<!-- by TradingView --><svg width="56" height="56" viewBox="0 0 56 56" xmlns="http://www.w3.org/2000/svg"><path fill="#F0F3FA" d="M0 0h56v56H0z"/><path fill-rule="evenodd" d="m14.25 17.83.57-.36A25.39 25.39 0 0 1 28 14a25.39 25.39 0 0 1 13.75 3.83 16.04 16.04 0 0 1 4.14 3.91A10.7 10.7 0 0 1 48 28c0 7.73-8.95 14-20 14S8 35.73 8 28a10.68 10.68 0 0 1 2.39-6.64v-.01a16.04 16.04 0 0 1 3.86-3.52Zm27.6 19.66c3.53-2.47 5.65-5.83 5.65-9.49 0-2.17-.74-4.23-2.07-6.06a44.1 44.1 0 0 1-5.07 1.42c.47 1.46.73 3.02.73 4.64 0 6.03-3.56 11.16-8.55 13.14 3.6-.6 6.8-1.89 9.32-3.65Zm-1.98-14.02c.47 1.41.73 2.94.73 4.53 0 7.5-5.68 13.5-12.6 13.5s-12.6-6-12.6-13.5c0-1.6.26-3.12.73-4.53 3.63.76 7.65 1.18 11.87 1.18 4.22 0 8.24-.42 11.87-1.18Zm.32-.58c1.74-.38 3.39-.84 4.92-1.37A15.39 15.39 0 0 0 41.09 18c-1.08.26-2.19.48-3.33.67a14.2 14.2 0 0 1 2.43 4.23Zm-3-4.13A13.65 13.65 0 0 1 39.7 23 57.68 57.68 0 0 1 28 24.16c-4.17 0-8.13-.42-11.7-1.16a13.65 13.65 0 0 1 2.52-4.24 59.75 59.75 0 0 0 18.36 0Zm.18-.54c1.07-.17 2.1-.37 3.1-.6a23.62 23.62 0 0 0-7.93-2.76c1.84.73 3.49 1.89 4.83 3.36Zm-.6.1a59.42 59.42 0 0 1-17.56 0 12.14 12.14 0 0 1 8.79-3.82c3.4 0 6.5 1.45 8.78 3.82Zm-18.14-.1c1.34-1.47 2.99-2.63 4.83-3.36-2.97.5-5.67 1.46-7.94 2.77 1 .22 2.04.42 3.1.6Zm-7.74 3.3A15.39 15.39 0 0 1 14.91 18c1.08.26 2.19.48 3.33.67a14.2 14.2 0 0 0-2.43 4.23 43.84 43.84 0 0 1-4.92-1.37Zm-.32.42A10.24 10.24 0 0 0 8.5 28c0 3.66 2.12 7.02 5.64 9.5a22.8 22.8 0 0 0 9.32 3.64c-5-1.98-8.55-7.11-8.55-13.14 0-1.62.26-3.18.73-4.64-1.8-.4-3.49-.87-5.07-1.42Z" fill="#0092D5"/><path d="M29.31 15.25c.04.18.04.34.02.48 0 .02-.01.03-.03.03-.01 0-.02.02-.01.04.04.28.62.54.83.58l.02.01a.06.06 0 0 1 .03.05v.03c-.1.2-.25.32-.48.38-.42.11-.74.46-1.03.8-.2.22-.36.62-.17.89.18.25.4.46.53.78.16.28.43.64.69.82a3.08 3.08 0 0 1 1.06 1.31c.08.31.15.67.2 1.07.04.31.04.55.01.7-.04.23-.18.81-.39.91-.35.17-.63.34-.84.5-.25.1-.51.16-.79.2-.07 0-.1.05-.08.13-.16.22-.31.36-.45.43-.39.18-.68.31-.92.58a.1.1 0 0 1-.14 0 .1.1 0 0 1-.03-.05c-.05-.27.04-.65.1-.87v-.06a.08.08 0 0 0-.05-.04.35.35 0 0 0-.21-.01.32.32 0 0 1-.07-.2.63.63 0 0 0 .21-.08.91.91 0 0 1 1.01-.17h.05a.05.05 0 0 0 .02-.05.48.48 0 0 0-.16-.37.11.11 0 0 1-.03-.05c-.02-.06.02-.13.08-.15.44-.12.84-.28 1.22-.47.07-.03.1-.08.1-.14 0-.23 0-.37.03-.54.05-.2-.05-.4-.09-.57a.53.53 0 0 1 .05-.28c.06-.17.12-.36.16-.56.05-.27-.15-.37-.17-.59-.01-.12-.04-.2-.07-.23-.32-.29-.79-.8-1-1.2l-.62-.84a.46.46 0 0 0-.15-.13l-.49-.29c-.08-.05-.1-.14-.08-.25 0-.03.02-.05.04-.06a.1.1 0 0 1 .07-.03c.12 0 .42 0 .52-.1.08-.08.09-.18.01-.28-.09-.14-.17-.46-.3-.54-.1-.06-.16-.08-.2-.07-.22.04-.61.2-.76-.1-.05-.13-.1-.22-.1-.28-.07-.23-.22-.39-.32-.53s-.21-.28-.07-.44c.15-.07.27-.09.35-.05 0 .05 0 .08.02.1a19.88 19.88 0 0 1 1.19-.04c.17 0 .3-.1.37-.26.2-.13.37-.13.54 0 .09.07.16.1.21.12.19.04.38.05.56.03Z" fill="#F52C36"/><path d="m19 36.05 2.12.46c.18-.23.75-.51 1.65-.51.85 0 1.23.1 1.23.4 0 .3-.44.6-1.23.6H21.5v1h1.27c.79 0 1.23.3 1.23.6s-.38.4-1.23.4c-.9 0-1.47-.28-1.65-.51-.36.08-.98.25-1.46.39l-.66.18c.5.35 2.04.94 3.77.94 2.68 0 4.23-.56 4.23-1.34s-1.54-1.08-2.3-1.16v-.13c.76-.09 2.3-.4 2.3-1.03 0-.78-1.55-1.34-4.23-1.34-1.73 0-3.27.7-3.77 1.05ZM30.35 36.75l-1.99-.44a6.33 6.33 0 0 1 3.8-1.31c2.9 0 3.84.76 3.84 1.31 0 1.04-3.23 2.23-4.84 2.69H36v1h-8v-.8c3.4-1.1 5-2.28 5-2.65 0-.37-.2-.55-.85-.55-.94 0-1.6.48-1.8.75Z" fill="#0092D5"/><path d="M37.06 30.5h-1.69c.83 1.09 1.3 1.5.63 1.5s-1.63-.99-2.15-1.73c-.52-.75-1.2-1.75-1.2-1.9 0-.14 0-.37.2-.37.31 0 .95.72 1.15 1h1.52a4.8 4.8 0 0 0-3.32-2c-.89 0-1.2.42-1.2 1.01 0 .6.33 1.55 1.04 2.7C34.2 34 36.67 35 37.56 35c.88 0 1.44-.47 1.44-1.2 0-1.06-1.3-2.64-1.94-3.3ZM25 35l1.22-8h3.54l.36 1H27.8v1h1.6l.36 1.45H27.8V32h3.32l.88 3h-7ZM5 35l13-8h2l-5.65 8h-3.03l2.64-3H12.3L8 35H5Zm10.16-5h.56l.88-1-1.44 1ZM25 28l-1.28.5c-.08-.18-.3-.5-.53-.5-.28 0-.56.02-.56.38 0 .35 1.8.95 1.8 1.99 0 2.76-3.36 4.63-4.64 4.63-1.28 0-1.79-.92-1.79-1.8 0-.7.34-1.4.5-1.64l2.17-.85c-.1.48-.16 1.45.4 1.45.7 0 1.18-.34 1.18-1.1 0-.77-1.58-.88-1.58-1.93 0-1.06 1.62-2.13 2.84-2.13.98 0 1.4.64 1.49 1Z" fill="#ED3237"/><path fill-rule="evenodd" d="M45.5 35H51c-1.47-1.1-5.1-3.71-7.78-5.35-3.36-2.04-5.26-2.65-6.4-2.65-.54 0-.82.3-.82.57 0 .28.96 1.25 3.08 3.1s5.32 4.2 6.42 4.33Zm-1.1-2.62c.28-.1-.9-1.16-2.62-2.38-1.73-1.2-3.35-2.11-3.63-2.02-.28.1.89 1.16 2.62 2.38 1.72 1.2 3.35 2.11 3.63 2.02Z" fill="#ED3237"/></svg>