<!-- by TradingView --><svg width="56" height="56" viewBox="0 0 56 56" xmlns="http://www.w3.org/2000/svg"><path fill="#F0F3FA" d="M0 0h56v56H0z"/><path d="M24 37a34.32 34.32 0 0 1 7.82-9l-.49 2.4L35 37H24Z" fill="#163665"/><path d="M20.46 37H7l14.45-22L29 26.22c-3.85 2.76-7.3 8.34-8.54 10.78Z" fill="#F3BE37"/><path d="M31.26 24 30 22.2l4.63-7.2L38 20.08c-1.77.6-5.23 2.86-6.74 3.92ZM39.22 37 33 27.44c2.4-1.6 5.96-2.96 7.44-3.44A1190.02 1190.02 0 0 0 49 37c-.23-.09-6.57-.04-9.77 0Z" fill="#163665"/></svg>