<!-- by TradingView --><svg width="56" height="56" viewBox="0 0 56 56" xmlns="http://www.w3.org/2000/svg"><path fill="#F0F3FA" d="M0 0h56v56H0z"/><path fill="#F51B1C" d="M34 36h8v2h-8z"/><path d="M15.54 33.03c.4.16 1 .43 1.59.76a7.1 7.1 0 0 1 1.66 1.17c.57.6 1.49 1.63 3.39 2.34 1.17.44 2.74.75 4.84.75 2.2 0 3.86-.29 5.05-.65a5.38 5.38 0 0 0 2.26-1.2c.34.22.68.42 1.03.58.22.1.52.27.77.24.46-.05.94-.75 1.33-.97a.74.74 0 0 1 .27-.1c.1-.02.23 0 .33.1.26.25.64.35.96.5.61-.13 1.68-.42 2.66-.74.64-.2 1.61-.39 2.14-.86l.3.34c-.57.52-1.59.73-2.3.96-.82.26-1.7.5-2.33.66a10.86 10.86 0 0 1 .77.85c1.33-.1 3.41-.2 4.42-1.14l.32.34c-1.1 1.01-3.39 1.23-4.83 1.27-.44.05-1.17.07-1.93-.03-.73-.1-1.53-.3-2.15-.72-.32 0-.64-.15-.92-.28a8.65 8.65 0 0 1-.78-.41c-.38.32-1.1.71-2.19 1.05-1.23.38-2.94.68-5.18.68-2.09 0-3.67-.3-4.9-.75-.2.13-.52.3-.88.44-.42.17-.92.3-1.4.3-1.13 0-1.9-.91-2.98-1.03h-.16c-.3.03-.64.24-.95.53-.3.29-.55.62-.69.86l-.08.13-.16-.03c-.85-.14-1.54-.82-1.97-1.46l-2.73.71-.12-.45 2.6-.67a2 2 0 0 1-.28-.89c0-.14.04-.27.1-.4l-.86-.5.24-.4.94.56a3.56 3.56 0 0 1 2.12-.58c1.4 0 2.45.67 2.98.88.06.02.1.01.14 0 .2-.1.31-.4.38-.59-.35-.33-.9-.68-1.46-.99a15.9 15.9 0 0 0-1.56-.74h-2.28v-.46h1.96v-.03a.9.9 0 0 1-.04-.45c.1-.46.6-.54 1-.5.4.03.79.1 1.09.37l.12.1c.04 0 .11.02.3-.01.8-.11 1.53-.46 2.35-.46.12 0 .24 0 .34.05.06.03.1.07.15.12.04.06.06.12.06.19.02.33-.37.68-.5.96-.08.16-.1.28-.06.4.06.2.08.49.23.65h.15c.21-.04.43-.16.63-.24 1.3-.5 2.68-1.15 4.1-1.15.87 0 1.8.16 2.42.85l-.34.3c-.53-.58-1.34-.7-2.09-.7-1.34 0-2.68.65-3.92 1.13-.32.13-.7.34-1.06.26-.4-.1-.46-.64-.56-.97a1 1 0 0 1 .08-.72c.1-.24.28-.45.41-.67-.8-.03-1.54.35-2.32.46-.22.03-.38.03-.52-.02s-.22-.14-.28-.18c-.22-.2-.53-.24-.82-.26-.13-.02-.47-.05-.51.13-.03.15.04.31.11.43Zm3.17 2.52c-.11.25-.28.51-.54.63a.62.62 0 0 1-.5.02c-.63-.25-1.54-.85-2.8-.85-.94 0-1.64.26-1.94.56-.11.12-.15.22-.15.3 0 .26.15.54.28.76a5.67 5.67 0 0 1 3.65.04l.2.01c1.05.11 1.87 1.03 2.93 1.03.4 0 .84-.11 1.23-.27.18-.07.35-.15.5-.23a8.36 8.36 0 0 1-2.86-2Zm-2.75 1.72a5.3 5.3 0 0 0-2.65.1c.37.5.88.96 1.44 1.12a4.9 4.9 0 0 1 1.21-1.22Zm20.7 0c.48.25 1.06.4 1.64.47.5.07 1 .08 1.38.06l-.32-.35c-.14-.16-.29-.34-.47-.46-.38-.19-.8-.29-1.12-.58a.5.5 0 0 0-.08.03c-.34.2-.62.53-.94.77l-.1.07Z" fill="#092651"/><path d="m34.89 24.6-.53.94a.24.24 0 0 1-.35.09.27.27 0 0 1-.1-.34l.44-.99c.1-.21 0-.47-.22-.55a.38.38 0 0 0-.47.19l-2.23 4.4a.45.45 0 0 0 .39.66c.14 0 .28-.08.36-.21l.39-.66a.26.26 0 0 1 .21-.13c.04 0 .08 0 .11.02.14.07.2.24.13.38-.2.43-.44.98-.57 1.23-.2.37-.3.37-.56.37-.2 0-.32-.25-.35-.37-.5.19-.92 0-1.24-.28-.42-.38-.36-1.04-.07-1.54l2.55-4.35a.89.89 0 0 1 1.17-.37l.59.3c.43.22.59.78.35 1.21Z" fill="#F82924"/><path d="m21.34 27.94 8.4-11.88a.14.14 0 0 1 .11-.06c.1 0 .17.1.12.2l-6.4 12.64a.9.9 0 0 0 .79 1.3L38 30.7c-2.22.1-6.92.3-7.93.3h-8.04c-.75 0 .34-1.76 0-1.7-.35.05-1.9 2.7-2.36 2.7-.46 0-.29-.23 0-1.3.23-.85.1-1.44 0-1.63a3.13 3.13 0 0 1-1.6 1.93h-2.42c-.46 0-.52-.18-.63-.3-.1-.09.23-.26.4-.33 2.12-.58 4-3.12 4.88-4.87a.9.9 0 0 1 .8-.5c.55 0 .96.52.82 1.05l-.58 1.9Z" fill="#F82924"/><path d="M20.47 34.9c-.84-.34-.68.23-.84.34 0 .74.5.97.95 1.09.45.1.4-.12 1.01-.12h1.24c.45 0 .56-.97 1.18-.68.62.28.28.45.96.68.67.23 2.02-.11 3.26-.4 1.23-.28 4.72-1.7 5.11-1.7h2.53c.4 0 .73-.63 1.01-.91.28-.29.85.5 1.24.5.4 0 0-.22 0-.5 0-.29-1.18-.86-1.52-.92-.34-.05-1.12-.34-3.99-.34s-4.38.63-4.78 1.03c-.4.4-1.01 1.53-1.97 1.93-.95.4-1 0-1.4 0h-1.07c-.34 0-.73.57-1.35.63-.62.06-.73-.29-1.57-.63Z" fill="#00305A"/><path d="M37.59 32c-.61-.03-1.31.3-1.59.47.14.38.9-.09 1.59 0 .68.08 1.24.5 1.24.76 0 .25-.49.17-.7.3-.2.12.42.42.7.46.27.04 1.1 0 1.17-.47.07-.46-1.66-1.48-2.41-1.52Z" fill="#092651"/><path d="M40.19 32c-.46-.03-.98.3-1.19.47.1.38.67-.09 1.19 0 .52.08.93.5.93.76 0 .25-.36.17-.52.3-.15.12.31.42.52.46.2.04.83 0 .88-.47.05-.46-1.24-1.48-1.81-1.52ZM34.86 35.07c.45.06 1.52-.11 1.74-.17.34-.06.23.51.11.69-.1.17-.78 0-1.06 0-.29 0-1.07.73-1.41.73-.34 0 .11-.5.11-.73 0-.23-.67-.18-1.12-.18-.45 0-.73.63-1.01.63s-.34-.34-.17-.63c.17-.28.4-.34.62-.5.22-.18.1-.4.56-.46.45-.06 1.18.57 1.63.62Z" fill="#092651"/><path fill-rule="evenodd" d="M28 11 9 39h38L28 11Zm0 1.5L11 38h34L28 12.5Z" fill="#092651"/><circle cx="37.5" cy="34.5" r=".5" fill="#092651"/><path d="M28.02 23H32l-1.4 3H30l.8-1.93c.08-.2 0-.6-.86-.6h-.48l-1.23 2.85h1.7l-.92 1.72h-.6l.33-.65c.07-.17-.12-.4-.7-.47L26.64 30H25l3.02-7Z" fill="#F82924"/></svg>