<!-- by TradingView --><svg width="56" height="56" viewBox="0 0 56 56" xmlns="http://www.w3.org/2000/svg"><path fill="#F0F3FA" d="M0 0h56v56H0z"/><path d="M28 45a17 17 0 1 0 0-34 17 17 0 0 0 0 34Zm-9-28.62c.89-.8 3.6-2.38 7.36-2.38C31.06 14 37 18.18 37 24.6a10.1 10.1 0 0 1-2.54 6.4c.18-.73.54-2.61.54-4.3 0-2.1-1.82-9.46-9.06-10.08l1.54 4.1-.6-.58c-.79.26-2.49.9-3.88 1.74-1.48.88-5.05 4.64-5 9.43.01 1.18.05 2.42.62 3.7l2.85-3.44c-.6 1.92-1.4 6.5.23 9.43-1.11-.34-3.78-1.8-5.56-4.99-2.22-3.98-1.39-11.18 4.2-14.51a10.52 10.52 0 0 1 6.46-1.43c-1.69-1.52-4.8-3.69-7.8-3.69ZM41.85 27c.27 1.12.37 4.14-1.38 7.2-2.19 3.84-8.54 6.6-14.04 3.39A10.6 10.6 0 0 1 22 32.5c.54.52 1.99 1.75 3.44 2.6.86.5 2.98.9 5.38.9 2.61 0 5.56-.53 7.6-3.45l-4.24-.8c1.89-.4 6.06-1.92 7.67-4.75Z" fill="#007659"/></svg>