<!-- by TradingView --><svg width="56" height="56" viewBox="0 0 56 56" xmlns="http://www.w3.org/2000/svg"><path fill="#F0F3FA" d="M0 0h56v56H0z"/><path fill-rule="evenodd" d="M42.72 36.26c3.76-2.15 6.02-5.08 6.02-8.26 0-3.18-2.26-6.11-6.02-8.26-3.75-2.15-8.96-3.48-14.72-3.48s-10.97 1.33-14.72 3.48C9.52 21.89 7.26 24.82 7.26 28c0 3.18 2.26 6.11 6.02 8.26 3.75 2.15 8.96 3.48 14.72 3.48s10.97-1.33 14.72-3.48ZM28 40c11.6 0 21-5.37 21-12s-9.4-12-21-12S7 21.37 7 28s9.4 12 21 12Z" fill="#007AF5"/><path fill-rule="evenodd" d="M28 39.74a11.74 11.74 0 1 0 0-23.48 11.74 11.74 0 0 0 0 23.48Zm0 .26a12 12 0 1 0 0-24 12 12 0 0 0 0 24Z" fill="#007AF5"/><path fill-rule="evenodd" d="M19.28 17.38c.13 1.11 1.08 2.17 2.67 2.97 1.68.85 4 1.39 6.56 1.39 2.48 0 4.73-.5 6.39-1.3 1.56-.75 2.55-1.74 2.8-2.8a33.4 33.4 0 0 0-9.66-1.38c-3.13 0-6.1.4-8.76 1.12Zm18.72.08A33.54 33.54 0 0 0 28.04 16c-3.24 0-6.3.42-9.04 1.18.08 2.67 4.31 4.82 9.51 4.82 5.02 0 9.14-2 9.49-4.54Z" fill="#007AF5"/><path d="M19.94 19.18a3.24 3.24 0 0 1-.95-2.02 34.5 34.5 0 0 1 8.9-1.16 11.86 11.86 0 0 0-7.95 3.18Z" fill="#007AF5"/><path fill-rule="evenodd" d="M37.72 38.3c-.13-1.07-1.09-2.06-2.69-2.81a16.33 16.33 0 0 0-6.64-1.23c-2.47 0-4.72.6-6.4 1.46-1.57.8-2.58 1.85-2.83 2.9 2.83.84 5.48 1.08 8.97 1.08 3.12 0 6.9-.68 9.6-1.4Zm-18.86.5c2.96.9 5.67 1.16 9.27 1.16 3.22 0 7.14-.72 9.87-1.46-.08-2.61-4.43-4.5-9.61-4.5-5.01 0-9.18 2.3-9.53 4.8Z" fill="#007AF5"/><path d="M36.58 36.33a3.46 3.46 0 0 1 1.36 2.25c-2.7.74-5.8 1.28-9 1.3 3.1-.02 5.53-1.62 7.64-3.55ZM19.98 36.85c-.55.6-1 1.27-1 1.98v.01C11.9 36.91 7 32.78 7 28c0-.09 0 .09 0 0h9c0 3.5 1.6 6.66 3.98 8.85ZM36.4 19.58c.57-.6 1.47-1.44 1.47-2.16C42.14 18.5 49 22.68 49 27.48V28h-9.1v-.52c-.26-3.62-1.68-5.83-3.5-7.9ZM28 16.09h.26V22H28v-5.91ZM28 34.04h.26V40H28z" fill="#007AF5"/><path d="M30 29v-1.71h.31c.33.89 1.81 1.41 3.5 1.41 1.07 0 2.19-.2 2.19-.62 0-1.14-6-.83-6-2.6 0-1.01 1.96-1.48 3.83-1.48 1.72 0 2.43.37 2.97.37.3 0 .44-.15.47-.37h.3v1.52h-.3c-.37-.77-1.64-1.22-3.28-1.22-.9 0-1.99.2-1.99.61 0 1 6 .64 6 2.5 0 1.13-1.67 1.59-3.9 1.59-1.27 0-2.83-.29-3.12-.29-.32 0-.58.17-.67.29H30ZM26.33 29h-5.66v-.15c.95 0 1.33-.12 1.33-.66V24.3c-2.22 0-2.5.39-2.7 1.19H19V24h9v1.5h-.3c-.2-.8-.48-1.2-2.7-1.2v3.89c0 .54.38.66 1.33.66V29Z" fill="#E00217"/><path d="M19.75 36a14.17 14.17 0 0 1 8.35-2.77c3 0 5.9.68 8.29 2.36l.61-1C34.43 32.76 31.32 32 28.1 32c-3.35 0-6.47 1.14-9.1 3.1l.75.9Z" fill="#E00217" fill-opacity=".6"/></svg>