<!-- by TradingView --><svg width="56" height="56" viewBox="0 0 56 56" xmlns="http://www.w3.org/2000/svg"><path fill="#F0F3FA" d="M0 0h56v56H0z"/><path fill-rule="evenodd" d="M39.56 21A3.56 3.56 0 0 0 36 24.56v6.88C36 33.4 37.6 35 39.56 35h6.88C48.4 35 50 33.4 50 31.44v-6.88C50 22.6 48.4 21 46.44 21h-6.88Zm8.35 3.13a.78.78 0 0 0-.7-1.13.8.8 0 0 0-.72.43L43 30.27l-3.5-6.84a.8.8 0 0 0-.7-.43c-.6 0-.98.61-.71 1.13l4.35 8.53c.23.45.89.45 1.12 0l4.35-8.53ZM9.56 21A3.56 3.56 0 0 0 6 24.56v6.88C6 33.4 7.6 35 9.56 35h6.88C18.4 35 20 33.4 20 31.44v-6.88C20 22.6 18.4 21 16.44 21H9.56Zm7.64 12c.6 0 .98-.61.71-1.13l-4.35-8.53a.63.63 0 0 0-1.12 0L8.1 31.87a.78.78 0 0 0 .7 1.13.8.8 0 0 0 .72-.43l1.05-2.07h4.88l1.05 2.07a.8.8 0 0 0 .71.43ZM13 25.73 14.67 29h-3.34L13 25.73ZM24.56 21A3.56 3.56 0 0 0 21 24.56v6.88C21 33.4 22.6 35 24.56 35h6.88C33.4 35 35 33.4 35 31.44v-6.88C35 22.6 33.4 21 31.44 21h-6.88Zm7.64 12c.6 0 .98-.61.71-1.13l-4.35-8.53a.63.63 0 0 0-1.12 0l-4.35 8.53a.78.78 0 0 0 .7 1.13.8.8 0 0 0 .72-.43l1.05-2.07h4.88l1.05 2.07a.8.8 0 0 0 .71.43ZM28 25.73 29.67 29h-3.34L28 25.73Z" fill="#00A654"/></svg>