<!-- by TradingView --><svg width="56" height="56" viewBox="0 0 56 56" xmlns="http://www.w3.org/2000/svg"><path fill="#F0F3FA" d="M0 0h56v56H0z"/><path d="M28.76 25 26 31h1.69l2.1-4.56c.09-.2.33-.2.42 0l2.1 4.56H34l-2.76-6h-2.48Z" fill="#00AAAD"/><path d="M27.67 28.5h2.73L31 30h-3.33v-1.5Z" fill="#00AAAD"/><path fill-rule="evenodd" d="M19 25h5.3c.66 0 1.2.6 1.2 1.33v.43c0 .52-.27.97-.66 1.2a1.55 1.55 0 0 1-.39 3.04H19v-6Zm1.5 2.4h3.07c.24 0 .43-.22.43-.48s-.2-.47-.43-.47H20.5v.94Zm0 1.2h3.53a.47.47 0 0 1 0 .95H20.5v-.94Z" fill="#00AAAD"/><path d="M6.76 25 4 31h1.69l2.1-4.56c.09-.2.33-.2.42 0l2.1 4.56H12l-2.76-6H6.76Z" fill="#00AAAD"/><path d="M5.76 28.5h2.72l.6 1.5H5.77v-1.5Z" fill="#00AAAD"/><path fill-rule="evenodd" d="M11.75 25h-1.34l1.79 3.6h3.6a.47.47 0 0 1 0 .95h-5.06V31h5.71a1.55 1.55 0 0 0 .38-3.05c.4-.22.67-.67.67-1.19v-.43c0-.73-.56-1.33-1.25-1.33h-4.5Zm1 1.45.47.94h2.34c.24 0 .44-.2.44-.47 0-.26-.2-.47-.44-.47h-2.81Z" fill="#00AAAD"/><path d="M34 25h2.7l2.5 4.16c.09.16.3.09.3-.1V25H41v6h-2.67l-2.53-4.22c-.09-.16-.3-.08-.3.1V31H34v-6ZM42.5 25H44v1.92c0 .28.22.51.48.51.13 0 .25-.05.34-.14l2.3-2.29H49l-3.01 2.99L49 31h-1.87l-2.29-2.29a.49.49 0 0 0-.34-.14c-.28 0-.5.23-.5.52V31h-1.5v-6Z" fill="#00AAAD"/><path d="M52 25h-1.76L47 28l3.24 3H52l-3.24-3L52 25Z" fill="#DF7630"/></svg>