<!-- by TradingView --><svg width="56" height="56" viewBox="0 0 56 56" xmlns="http://www.w3.org/2000/svg"><path fill="#E83941" d="M0 0h56v56H0z"/><path d="m11 30.5 4.48-7.5H18l-5.98 10H9.98L4 23h2.52L11 30.5ZM31.84 23 28 30.5 24.16 23H21v2h2.02l4.1 8h1.76L33 24.95V33h2V23h-3.16Z" fill="#fff"/><path d="M23 26h-2v7h2v-7ZM40.61 23A2.6 2.6 0 0 0 38 25.57v4.86A2.6 2.6 0 0 0 40.61 33h8.78A2.6 2.6 0 0 0 52 30.43V27H42v2h8v.27c0 .96-.8 1.73-1.79 1.73h-6.42c-.99 0-1.79-.77-1.79-1.73v-2.54c0-.96.8-1.73 1.79-1.73H52v-2H40.61Z" fill="#fff"/></svg>