<!-- by TradingView --><svg width="56" height="56" viewBox="0 0 56 56" xmlns="http://www.w3.org/2000/svg"><path fill="#F0F3FA" d="M0 0h56v56H0z"/><path d="M33 13H15.5a2.5 2.5 0 0 0-2.5 2.5V33l20-20ZM23 43h17.5a2.5 2.5 0 0 0 2.5-2.5V23L23 43Z" fill="#02412C"/><path d="m13 34 21-21h6.5a2.5 2.5 0 0 1 2.5 2.5V22L22 43h-6.5a2.5 2.5 0 0 1-2.5-2.5V34Z" fill="#B00934"/><path d="M27.63 15.9a3.64 3.64 0 0 1 3.81-2.9c0 2.36-2.1 3.36-3.48 3.64.15 1.22-.54 2.1-1.35 2.67.24.6.38 1.97-.39 3.94 1.7.1 2.37 1.37 2.56 2.5 2.09-.03 2.72 1.97 2.78 3.32 1.59.8 1.3 2.5.75 3.68 1.51.98.25 2.63-1.08 3.75.25.79-.15 2.07-3 3.13.56 2.27-2.49 3.2-4.14 3.37-.57-2.59 1.7-3.43 3.37-3.59-.2-1 .17-2.48 2.61-3.13a3.5 3.5 0 0 1 1.51-3.38c-1.52-2.13-1.42-3.22-.96-3.7-2.21-.73-2.74-1.81-2.68-2.64-2.37-.82-2.57-2.14-2.27-2.96-.84-.8-1.73-2.28-.42-3.61l-.05.02c-.36-2.77 1.39-3.86 2.43-4.1Z" fill="#F8D311"/></svg>