<!-- by TradingView --><svg width="56" height="56" viewBox="0 0 56 56" xmlns="http://www.w3.org/2000/svg"><path fill="#F0F3FA" d="M0 0h56v56H0z"/><path d="M10.5 29.72 12.52 22H17l-4.44 12H8.44L4 22h4.48l2.02 7.72Z" fill="red"/><path fill-rule="evenodd" d="M18 22h8.18a2.45 2.45 0 0 1 2.47 2.42v.45c0 1.04-.4 2-1.08 2.7.92.43 1.43 1.25 1.43 2.6v.9c0 1.34-1.45 2.93-2.82 2.93H18V22Zm4 3h2.7c.45 0 .81.56.81 1 0 .44-.36 1-.8 1H22v-2Zm0 6h2.7c.45 0 .81-.56.81-1 0-.44-.36-1-.8-1H22v2Z" fill="red"/><path d="M49 31v-1h3v1h-1v3h-1v-3h-1ZM47.02 31.27c-.02-.25-.17-.4-.48-.4-.2 0-.43.07-.44.3 0 .25.3.33.49.37l.3.07c.6.14 1.1.54 1.11 1.2 0 .82-.7 1.19-1.45 1.19-.9 0-1.55-.49-1.55-1.42h1c.02.35.19.55.53.55.2 0 .47-.08.48-.33 0-.12-.07-.2-.23-.27-.2-.1-.44-.14-.67-.2-.63-.14-1.02-.48-1.02-1.09 0-.8.71-1.24 1.45-1.24.76 0 1.46.47 1.46 1.27h-.98ZM41 34v-4h3v1h-2v.56h1.85v.88H42V33h2v1h-3ZM37.19 30l.81 2.82.81-2.82H40l-1.28 4h-1.44L36 30h1.19ZM35 30v4h-.79L33 31.9V34h-1v-4h.8l1.2 2.1V30h1ZM31 30v4h-1v-4h1Z" fill="#0045BF"/><path d="M40 23.7 37.08 22l-1.3 2.28-1.9-1.1-1.3 2.28-1.9-1.11L29 27.3l2.92 1.7 1.3-2.28 1.9 1.1 1.3-2.28 1.9 1.11L40 23.7Z" fill="red"/></svg>