<!-- by TradingView --><svg width="56" height="56" viewBox="0 0 56 56" xmlns="http://www.w3.org/2000/svg"><path fill="#F0F3FA" d="M0 0h56v56H0z"/><path d="M36 28.2c-.02-.28-.12-.86-.33-1.02-.24-.19-.63-.18-.92-.18h-.1c-.3 0-1.63.13-1.65 1.5.01 1 .84 1.49 1.75 1.5.3 0 .68 0 .92-.18.21-.16.3-.74.33-1.01-.08.07-.6.19-1.21.19-.6 0-.77-.31-.79-.5.02-.19.2-.5.79-.5.6 0 1.13.12 1.21.2Z" fill="#F72C35"/><path d="M44 32.76A16.66 16.66 0 0 1 27.98 45C20.4 45 14 39.9 12 32.92c3.11-.04 9.88.18 14.23 1.34 1.81-.75 6.5-2.26 10.73-2.26 2.7 0 5.21.37 7.04.76Z" fill="#028747"/><path d="m30.05 44 2.28-.7A64.38 64.38 0 0 0 16 38c7 2.48 12.39 5.09 14.05 6ZM19 41l8 3c-.75-.05-2.75-.33-4.69-1.04A8.44 8.44 0 0 1 19 41ZM39.97 38.16 42 34.41l-3.5 3.09 1.47.66ZM37.17 37l2.82-3.67-4.3 3 1.48.67ZM33.84 35.98l3.1-2.98-4.57 2.32 1.47.66ZM30.6 35.15l2.31-2.07-3.94 1.53 1.62.54ZM38.79 39.24C29.14 35.51 18.24 34.12 14 34c11.17 1.03 20.38 4.76 23.6 6.4l1.19-1.16ZM36.08 41.56l-1.66 1.03C28.39 39 19.03 36.63 15 36c7.95.1 17.3 3.8 21.08 5.56Z" fill="#FFEF47"/><path d="M19.94 23.67c-.03-1.06.6-1.55.9-1.67-.04.06-.14.3-.14.8 0 .62 1.3 1.56 1.3 2.64 0 .86-.77 1.4-1.16 1.56.11-.17.33-.65.33-1.15a1 1 0 0 0-.47-.85c-.15.73-.76.68-.76 1.17 0 .39.29.71.43.83-.72-.1-1.33-.97-1.37-1.56-.04-.6.94-1.25.94-1.77Z" fill="#F72C35"/><path fill="#028747" d="M20 27h1v3h-1z"/><path d="m24.5 28-.5-1h-2l-.5 1h.92v2h1.17v-2h.91ZM25 27.98c0-.54.48-.98 1.07-.98h.86c.6 0 1.07.44 1.07.98V30h-1.2v-.4c0-.15-.13-.27-.3-.27-.17 0-.3.12-.3.27v.4H25v-2.02Zm1.2.28c0 .15.13.27.3.27.17 0 .3-.12.3-.27V28c0-.15-.13-.28-.3-.28-.17 0-.3.13-.3.28v.25Z" fill="#F72C35"/><path fill-rule="evenodd" d="M38.5 30a1.5 1.5 0 1 0 0-3 1.5 1.5 0 0 0 0 3Zm0-1a.5.5 0 1 0 0-1 .5.5 0 0 0 0 1ZM18.1 27H16v3h2.1c.5 0 .9-.38.9-.84 0-.27-.13-.5-.34-.66.2-.15.34-.4.34-.66 0-.46-.4-.84-.9-.84Zm-.38.93c0 .15-.13.27-.28.27-.16 0-.3-.12-.3-.27 0-.15.14-.27.3-.27.15 0 .28.12.28.27Zm-.28 1.35c.15 0 .28-.12.28-.27 0-.15-.13-.27-.28-.27-.16 0-.3.12-.3.27 0 .15.14.27.3.27Z" fill="#F72C35"/><path d="M31.9 28.1c-.15-.07-.38-.1-1.08-.1-.58 0-.8.31-.82.5.04.35.34.5.64.5.17 0 .36-.17.36-.33v-.05c0-.2.16-.35.37-.35h.26c.2 0 .37.15.37.35v1.03c0 .2-.16.35-.37.35h-.26c-.17 0-.3-.1-.35-.25a.5.5 0 0 1-.4.25c-.41 0-1.6-.13-1.62-1.5.02-1.37 1.33-1.5 1.61-1.5h.1c.29 0 .68 0 .9.18.21.16.28.64.3.91Z" fill="#F72C35"/><path d="M38.76 20.76c-.48-.3-.95-.62-1.4-.96-.2-.13-.17-.18.06-.14l.92.18c.1.02.11 0 .04-.08-.42-.46-1.24-.86-1.79-1.16a.5.5 0 0 1-.1-.1c-.04-.06-.05-.12-.04-.16.02-.05.05-.06.09-.04.13.05.4.02.14-.1l-1.52-.72a.17.17 0 0 1-.06-.06.33.33 0 0 1-.04-.1c-.1-.36-.84-.35-1.14-.45-.07-.02-.21-.1-.43-.25-.27-.18-.6-.12-.86-.14-.47-.03-.48-.13-.03-.28.22-.08.5-.17.85-.27.08-.03.2-.21.05-.22l-2.37-.13c-.13-.02-.2-.16-.05-.2.47-.13 1.14-.36 2.02-.68.1-.03.12-.16.03-.23a5.72 5.72 0 0 1-.81-.77c-.3-.34-.56-.53-.98-.82-.4-.27-.37-.37.12-.3.58.1 1.27.13 2.07.08.34-.01.63.09 1 .2.09.03.18-.04.17-.13l-.2-1.64c0-.06.05-.1.1-.09.07.02.12.06.18.13a8.5 8.5 0 0 0 1.39 1.53c.04.04.08.06.12.07.09.01.17-.06.16-.15a3.21 3.21 0 0 1-.07-.65c.03-.26.1-.28.25-.04.4.7.85 1.27 1.33 1.72.16.16.24.13.22-.1a3.72 3.72 0 0 1-.01-.6c.05-.44.16-.45.34-.03a8.8 8.8 0 0 0 1.32 2.07c.04.06.14.04.15-.04l.16-.83c.02-.06.06-.09.12-.08a.15.15 0 0 1 .12.11c.2.83.53 1.61.97 2.35.09.15.15.14.19-.04.05-.27.13-.52.24-.75.11-.23.19-.22.23.03.12.8.36 1.63.71 2.49.02.05.1.05.12 0 .12-.22.26-.5.4-.82.05-.09.23-.1.23.02a10.82 10.82 0 0 0 .37 2.77l.04.01a.08.08 0 0 0 .07-.03l.44-.66c.2-.32.3-.3.26.07-.07.73-.06 1.57.03 2.52.02.17.08.18.18.05.23-.3.4-.5.53-.6.25-.23.33-.18.23.14a7.61 7.61 0 0 0-.26 2.56c0 .08.04.1.1.04l.59-.56c.09-.08.17-.1.25-.07.06.03.07.07.04.13-.32.63-.55 1.39-.67 2.28-.05.34.06.4.32.16.29-.25.54-.42.76-.52.19-.08.23-.03.13.14-.45.79-.8 1.64-1.02 2.56-.04.17.01.2.16.11.32-.2.58-.34.78-.42.18-.08.23-.02.15.15L45.8 30.8c-.06.11-.02.14.1.1l.59-.27c.6-.26.67-.16.22.31-.6.62-.93 1.3-1.36 2.05-.23.39-1 .98-1.62.95-.59-.04-1.39.32-1.96-.29a3 3 0 0 1-.93-2.16 9.7 9.7 0 0 0-.37-2.72.19.19 0 0 1 .14-.23c.03 0 .07.04.12.14.1.23.22.41.34.54.15.17.2.14.15-.07l-.53-2.27a.13.13 0 0 1 .06-.14c.09-.05.1-.15.06-.3-.08-.23-.27-.6-.58-1.1-.03-.05-.01-.07.04-.09.07 0 .14-.04.2.01l.5.5c.04.04.14-.04.11-.1-.29-.57-.63-1.13-1.02-1.65-.18-.24-.13-.3.14-.18l.13.06c.23.1.3.08.19-.04l-1.08-1.33a.59.59 0 0 1-.1-.15c-.02-.08 0-.14.1-.14.03 0 .06.02.09.04.09.08.17.13.23.14.1.02.1-.13.04-.18-.48-.4-.92-.8-1.33-1.17-.06-.06-.05-.1.04-.13a.7.7 0 0 1 .27 0c.12 0 .03-.12-.02-.16Z" fill="#028747"/><path d="M35.46 14.35c-.3-.48-.45-.8-.44-.98a16.87 16.87 0 0 0 .04-1.14.05.05 0 0 1 .05-.03s.02 0 .02.02c.6.52 1.24.96 1.35 1.74 0 .06 0 .12-.04.17-.1.16-.23.29-.38.38a.22.22 0 0 0-.1.14c-.09.42-.39.69-.9.8a3.44 3.44 0 0 1-2.05-.24.06.06 0 0 1 0-.06 65.6 65.6 0 0 1 1.27-.63c.24-.11.62-.15 1.13-.1.06 0 .08-.02.05-.07Z" fill="#FFEF47"/><path d="M37.15 15.36c-.84-.7-.5-1.38-.35-2.27.01-.07.1-.09.14-.04l.8.92c.16.2.24.46.36.78.07.16.12.16.17 0l.24-.77c.01-.05.08-.06.1-.02.38.49 1.52 1.73.94 2.5-.17.22-.49.35-.73.16-.48-.37-.67-.58-.65-1.34.01-.19-.05-.21-.17-.07-.14.15-.3.26-.48.34a.3.3 0 0 0-.14.12c-.13.2-.26.37-.38.47-.17.16-.14.22.1.2.64-.09 1.17.03 1.58.34a.3.3 0 0 1 0 .49l-.45.33c-.05.04-.04.06.03.07.71.03 1.42.12 1.9.68.04.05.06.1.05.17-.02.18-.19.32-.5.42-.24.07-.24.13 0 .19.7.16 1.22.27 1.65.87.11.16.02.38-.17.43l-.44.1c-.15.03-.15.08 0 .13.62.24 1.2.43 1.5.96.12.2-.01.46-.25.48l-.51.06c-.11.01-.12.04-.02.1.6.27 1.47.73 1.53 1.36a.31.31 0 0 1-.33.34l-.5-.03c-.08 0-.1.02-.03.07.56.48 1.01.62 1.35 1.38.1.22-.07.48-.31.48-.13 0-.32-.03-.58-.09a1.06 1.06 0 0 1-.5-.28c-.25-.24-.64-.57-.83-.96-.11-.22-.28-.52-.5-.89-.1-.16-.06-.2.11-.12l.82.36h.07c.04 0 .04-.01.01-.03a6.24 6.24 0 0 1-1.73-1.78c-.11-.16-.07-.2.11-.13.26.1.5.16.71.18.12 0 .13-.02.02-.07-.67-.35-1-.67-1.63-1.23-.37-.34-.34-.43.1-.27.22.08.52.1.88.07.1 0 .1-.03.01-.06a5.46 5.46 0 0 1-2.03-1.34c-.16-.17-.12-.24.1-.22l.52.06c.13.02.14 0 .01-.06a5.66 5.66 0 0 1-1.9-1c-.25-.2-.22-.29.1-.3h.52v-.05c0-.03-.02-.04-.05-.05a4.55 4.55 0 0 0-.54-.05c-.42.01-.97-.33-1.54-.54-.12-.04-.17-.24 0-.26.22-.03.39-.05.49-.08.25-.06.25-.1 0-.14l-1.59-.2c-.2-.03-.21-.1-.05-.2a7 7 0 0 1 1.32-.61 2.2 2.2 0 0 1 1.52-.02c.07.02.08 0 .02-.04ZM32.53 13.08c.9-.1 1.85-.13 2.25.63a.36.36 0 0 1-.06.42.38.38 0 0 1-.12.08c-.96.41-1.6-.24-2.15-.95a.1.1 0 0 1 .08-.18Z" fill="#FFEF47"/><path d="M39.97 15.92a14.44 14.44 0 0 0 .27-.6.06.06 0 0 1 .09.02c.33.56.57 1.05.71 1.47.18.52.08.95-.29 1.29a.41.41 0 0 1-.51.03c-.77-.53-.68-1.47-.27-2.21ZM41.41 17.42l.32-.54c.03-.04.1-.04.11 0 .26.6.44 1.12.53 1.55.11.54-.04.95-.45 1.24a.41.41 0 0 1-.52-.02c-.7-.62-.48-1.54.01-2.23ZM42.62 19.1l.4-.5c.02-.03.09-.02.1.03.18.63.29 1.17.32 1.61.04.55-.17.94-.62 1.18a.42.42 0 0 1-.51-.1c-.61-.7-.28-1.6.3-2.22ZM43.64 21l.44-.43c.04-.04.1-.02.1.03.1.64.14 1.19.12 1.62-.03.54-.28.9-.76 1.08a.41.41 0 0 1-.49-.15c-.5-.77-.07-1.6.59-2.14ZM44.4 23a18 18 0 0 0 .49-.39c.04-.03.1 0 .1.05a8.4 8.4 0 0 1-.08 1.63c-.1.53-.4.86-.88.99a.41.41 0 0 1-.47-.22c-.42-.82.12-1.6.83-2.06ZM44.9 25.02l.53-.3c.04-.02.1.01.1.06a8.05 8.05 0 0 1-.33 1.56c-.17.5-.5.77-.99.82a.4.4 0 0 1-.42-.27c-.28-.85.35-1.52 1.11-1.87ZM42.1 28.9c.03.02.08-.02.07-.06-.17-.34-.43-.65-.5-1.04a3.1 3.1 0 0 0-.23-.76c-.16-.36-.08-.41.24-.17l.54.41.04.02c.04 0 .07-.03.07-.07v-.03c-.3-.4-.6-.72-.74-1.2a5.56 5.56 0 0 0-.28-.74c-.1-.21-.04-.25.15-.12.29.2.5.32.66.38.68.28 1.71 1.26 1.54 2.02a.27.27 0 0 1-.13.17.28.28 0 0 1-.21.03l-.31-.1c-.22-.06-.26 0-.1.16.41.46.8.97.7 1.65a.26.26 0 0 1-.35.2l-.35-.12c-.25-.09-.29-.03-.12.16.4.47.8 1.3.48 1.95a.27.27 0 0 1-.38.12l-.36-.2c-.08-.05-.11-.03-.09.06.17.64.62 1.07.29 1.84a.3.3 0 0 1-.46.12 2.34 2.34 0 0 1-1.04-1.97l-.02-1.2c0-.18.06-.2.17-.06l.5.64c.05.07.11-.02.14-.06v-.01c-.48-.87-.38-1.42-.47-2.22-.03-.35.09-.34.36 0 .04.07.1.13.19.2ZM45.26 26.96c.03 0 .23-.1.6-.26.05-.02.1.03.1.08-.17.66-.35 1.2-.54 1.62-.24.51-.63.77-1.16.77a.43.43 0 0 1-.42-.34c-.19-.95.56-1.6 1.41-1.87ZM45.42 29.08l.68-.2c.06-.01.11.04.1.1a9.5 9.5 0 0 1-.81 1.66c-.33.52-.78.74-1.35.66a.47.47 0 0 1-.28-.14.45.45 0 0 1-.12-.28c-.07-1.04.83-1.63 1.78-1.8ZM45.05 31.4a22.46 22.46 0 0 0 .74-.11c.04.01.06.05.04.09a9.52 9.52 0 0 1-.98 1.57c-.38.48-.85.65-1.4.52a.46.46 0 0 1-.36-.46c.04-1.04 1-1.53 1.96-1.61Z" fill="#FFEF47"/><path d="M17.24 20.76c.48-.3.95-.62 1.4-.96.2-.13.17-.18-.06-.14l-.92.18c-.1.02-.11 0-.04-.08.42-.46 1.24-.86 1.79-1.16a.5.5 0 0 0 .1-.1c.04-.06.05-.12.04-.16-.02-.05-.05-.06-.09-.04-.13.05-.4.02-.14-.1l1.52-.72a.17.17 0 0 0 .06-.06.33.33 0 0 0 .04-.1c.1-.36.84-.35 1.14-.45.07-.02.21-.1.43-.25.27-.18.6-.12.86-.14.47-.03.48-.13.03-.28-.22-.08-.5-.17-.85-.27-.08-.03-.2-.21-.05-.22l2.37-.13c.13-.02.2-.16.05-.2-.47-.13-1.14-.36-2.02-.68-.1-.03-.12-.16-.03-.23.27-.2.54-.47.81-.77.3-.34.56-.53.98-.82.4-.27.37-.37-.12-.3-.58.1-1.27.13-2.07.08-.34-.01-.63.09-1 .2a.13.13 0 0 1-.17-.13l.2-1.64c0-.06-.05-.1-.1-.09-.07.02-.12.06-.18.13a8.5 8.5 0 0 1-1.39 1.53.28.28 0 0 1-.12.07c-.09.01-.17-.06-.16-.15.06-.32.08-.54.07-.65-.03-.26-.1-.28-.25-.04-.4.7-.85 1.27-1.33 1.72-.16.16-.24.13-.22-.1.02-.29.03-.48.01-.6-.05-.44-.16-.45-.34-.03a8.8 8.8 0 0 1-1.32 2.07c-.04.06-.14.04-.15-.04l-.16-.83c-.02-.06-.06-.09-.12-.08a.15.15 0 0 0-.12.11c-.2.83-.53 1.61-.97 2.35-.09.15-.15.14-.19-.04a3.14 3.14 0 0 0-.24-.75c-.11-.23-.19-.22-.23.03-.12.8-.36 1.63-.71 2.49-.02.05-.1.05-.12 0-.12-.22-.26-.5-.4-.82-.05-.09-.23-.1-.23.02a10.82 10.82 0 0 1-.37 2.77.07.07 0 0 1-.04.01.08.08 0 0 1-.07-.03l-.44-.66c-.2-.32-.3-.3-.26.07.07.73.06 1.57-.03 2.52-.02.17-.08.18-.18.05-.23-.3-.4-.5-.53-.6-.25-.23-.33-.18-.23.14.23.78.31 1.63.26 2.56 0 .08-.04.1-.1.04a28.7 28.7 0 0 1-.59-.56c-.09-.08-.17-.1-.25-.07-.06.03-.07.07-.04.13.32.63.55 1.39.67 2.28.05.34-.06.4-.32.16a3.14 3.14 0 0 0-.76-.52c-.19-.08-.23-.03-.13.14.45.79.8 1.64 1.02 2.56.04.17-.01.2-.16.11-.32-.2-.58-.34-.78-.42-.18-.08-.23-.02-.15.15l1.15 2.57c.06.11.02.14-.1.1l-.59-.27c-.6-.26-.67-.16-.22.31.6.62.93 1.3 1.36 2.05.23.39 1 .98 1.62.95.59-.04 1.39.32 1.96-.29a3 3 0 0 0 .93-2.16 9.7 9.7 0 0 1 .37-2.72.19.19 0 0 0-.14-.23c-.03 0-.07.04-.12.14-.1.23-.22.41-.34.54-.15.17-.2.14-.15-.07l.53-2.27a.13.13 0 0 0-.06-.14c-.09-.05-.1-.15-.06-.3.08-.23.27-.6.58-1.1.03-.05.01-.07-.04-.09-.07 0-.14-.04-.2.01l-.5.5c-.04.04-.14-.04-.11-.1.29-.57.63-1.13 1.02-1.65.18-.24.13-.3-.14-.18l-.13.06c-.23.1-.3.08-.19-.04l1.08-1.33c.04-.05.08-.1.1-.15.02-.08 0-.14-.1-.14a.16.16 0 0 0-.09.04.53.53 0 0 1-.23.14c-.1.02-.1-.13-.04-.18.48-.4.92-.8 1.33-1.17.06-.06.05-.1-.04-.13a.7.7 0 0 0-.27 0c-.12 0-.03-.12.02-.16Z" fill="#028747"/><path d="M20.54 14.35c.3-.48.45-.8.44-.98a16.87 16.87 0 0 1-.04-1.14.05.05 0 0 0-.05-.03s-.02 0-.02.02c-.6.52-1.24.96-1.35 1.74 0 .06 0 .12.04.17.1.16.23.29.38.38.06.03.1.08.1.14.09.42.39.69.9.8a3.44 3.44 0 0 0 2.05-.24.06.06 0 0 0 0-.06 65.6 65.6 0 0 0-1.27-.63 2.29 2.29 0 0 0-1.13-.1c-.06 0-.08-.02-.05-.07Z" fill="#FFEF47"/><path d="M18.85 15.36c.84-.7.5-1.38.35-2.27-.01-.07-.1-.09-.14-.04l-.8.92c-.16.2-.24.46-.36.78-.07.16-.12.16-.17 0l-.24-.77c-.01-.05-.08-.06-.1-.02-.38.49-1.52 1.73-.94 2.5.17.22.49.35.73.16.48-.37.67-.58.65-1.34-.01-.19.05-.21.17-.07.14.15.3.26.48.34.06.02.1.06.14.12.13.2.26.37.38.47.17.16.14.22-.1.2a2.08 2.08 0 0 0-1.58.34.3.3 0 0 0 0 .49l.45.33c.05.04.04.06-.03.07-.71.03-1.42.12-1.9.68a.2.2 0 0 0-.05.17c.02.18.19.32.5.42.24.07.24.13 0 .19-.7.16-1.22.27-1.65.87a.28.28 0 0 0 .17.43l.44.1c.15.03.15.08 0 .13-.62.24-1.2.43-1.5.96-.12.2.01.46.25.48l.51.06c.11.01.12.04.02.1-.6.27-1.47.73-1.53 1.36-.01.19.14.35.33.34l.5-.03c.08 0 .1.02.03.07-.56.48-1.01.62-1.35 1.38-.1.22.07.48.31.48.13 0 .32-.03.58-.09.17-.04.34-.13.5-.28.25-.24.64-.57.83-.96.11-.22.28-.52.5-.89.1-.16.06-.2-.11-.12l-.82.36h-.07c-.04 0-.04-.01-.01-.03a6.24 6.24 0 0 0 1.73-1.78c.11-.16.07-.2-.11-.13-.26.1-.5.16-.71.18-.12 0-.13-.02-.02-.07.67-.35 1-.67 1.63-1.23.37-.34.34-.43-.1-.27-.22.08-.52.1-.88.07-.1 0-.1-.03-.01-.06a5.46 5.46 0 0 0 2.03-1.34c.16-.17.12-.24-.1-.22l-.52.06c-.13.02-.14 0-.01-.06.17-.08.33-.14.5-.2.5-.16 1.04-.54 1.4-.8.25-.2.22-.29-.1-.3h-.52v-.05c0-.03.02-.04.05-.05l.54-.05c.42.01.97-.33 1.54-.54.12-.04.17-.24 0-.26-.22-.03-.39-.05-.49-.08-.25-.06-.25-.1 0-.14l1.59-.2c.2-.03.21-.1.05-.2a7 7 0 0 0-1.32-.61 2.2 2.2 0 0 0-1.52-.02c-.07.02-.08 0-.02-.04ZM23.47 13.08c-.9-.1-1.85-.13-2.25.63a.36.36 0 0 0 .06.42l.12.08c.96.41 1.6-.24 2.15-.95a.1.1 0 0 0-.08-.18Z" fill="#FFEF47"/><path d="M16.03 15.92a14.44 14.44 0 0 1-.27-.6.06.06 0 0 0-.09.02 8.27 8.27 0 0 0-.71 1.47c-.18.52-.08.95.29 1.29a.41.41 0 0 0 .51.03c.77-.53.68-1.47.27-2.21ZM14.59 17.42l-.32-.54c-.03-.04-.1-.04-.11 0-.26.6-.44 1.12-.53 1.55-.11.54.04.95.45 1.24a.41.41 0 0 0 .52-.02c.7-.62.48-1.54-.01-2.23ZM13.38 19.1l-.4-.5c-.02-.03-.09-.02-.1.03a8.45 8.45 0 0 0-.32 1.61c-.04.55.17.94.62 1.18a.42.42 0 0 0 .51-.1c.61-.7.28-1.6-.3-2.22ZM12.36 21l-.44-.43c-.04-.04-.1-.02-.1.03-.1.64-.14 1.19-.12 1.62.03.54.28.9.76 1.08.17.07.38 0 .49-.15.5-.77.07-1.6-.59-2.14ZM11.6 23a18 18 0 0 1-.49-.39c-.04-.03-.1 0-.1.05-.02.65 0 1.2.08 1.63.1.53.4.86.88.99.19.04.39-.05.47-.22.42-.82-.12-1.6-.83-2.06ZM11.1 25.02l-.53-.3c-.04-.02-.1.01-.1.06.08.63.2 1.15.33 1.56.17.5.5.77.99.82a.4.4 0 0 0 .42-.27c.28-.85-.35-1.52-1.11-1.87ZM13.9 28.9c-.03.02-.08-.02-.07-.06.17-.34.43-.65.5-1.04.05-.3.13-.55.23-.76.16-.36.08-.41-.24-.17l-.54.41a.07.07 0 0 1-.04.02c-.04 0-.07-.03-.07-.07v-.03c.3-.4.6-.72.74-1.2.05-.19.14-.43.28-.74.1-.21.04-.25-.15-.12-.29.2-.5.32-.66.38-.68.28-1.71 1.26-1.54 2.02a.27.27 0 0 0 .13.17.28.28 0 0 0 .21.03l.31-.1c.22-.06.26 0 .1.16-.41.46-.8.97-.7 1.65.03.15.2.25.35.2l.35-.12c.25-.09.29-.03.12.16-.4.47-.8 1.3-.48 1.95.07.14.25.2.38.12l.36-.2c.08-.05.11-.03.09.06-.17.64-.62 1.07-.29 1.84.08.17.3.23.46.12a2.34 2.34 0 0 0 1.04-1.97l.02-1.2c0-.18-.06-.2-.17-.06l-.5.64c-.05.07-.11-.02-.14-.06v-.01c.48-.87.38-1.42.47-2.22.03-.35-.09-.34-.36 0-.04.07-.1.13-.19.2ZM10.74 26.96c-.03 0-.23-.1-.6-.26-.05-.02-.1.03-.1.08.17.66.35 1.2.54 1.62.24.51.63.77 1.16.77.2 0 .38-.15.42-.34.19-.95-.56-1.6-1.42-1.87ZM10.58 29.08l-.69-.2c-.05-.01-.1.04-.08.1.26.68.53 1.24.8 1.66.33.52.78.74 1.35.66.1-.01.2-.06.28-.14a.45.45 0 0 0 .12-.28c.07-1.04-.83-1.63-1.78-1.8ZM10.95 31.4a22.46 22.46 0 0 1-.74-.11.07.07 0 0 0-.04.09c.34.66.67 1.18.98 1.57.38.48.85.65 1.4.52a.46.46 0 0 0 .36-.46c-.04-1.04-1-1.53-1.96-1.61Z" fill="#FFEF47"/></svg>