<!-- by TradingView --><svg width="56" height="56" viewBox="0 0 56 56" xmlns="http://www.w3.org/2000/svg"><path fill="url(#a)" d="M0 0h56v56H0z"/><path fill="#231560" d="m28 8 20 20-20 20L8 28z"/><path fill="#FEFEFE" d="M28 9.22 46.78 28 28 46.77 9.23 27.99z"/><path d="M34.72 34.66c0 .16-.06.3-.18.4-.13.1-.3.16-.52.2L35 36h-1.18l-.82-.66V36h-1v-2h1.31c.22 0 .41.01.59.04.17.02.32.06.44.12.12.05.22.12.28.2.07.09.1.19.1.3Zm-1.02 0c0-.07-.04-.12-.11-.15a.7.7 0 0 0-.28-.05H33v.4h.3a.7.7 0 0 0 .29-.04c.07-.03.11-.08.11-.16ZM29.5 34.51h-1V34h3v.51h-1V36h-1v-1.49ZM26 34.88V36h-1v-2h1.1l.9 1.12V34h1v2h-1.1l-.9-1.12ZM21.5 34h3v.49h-2v.26h1.84v.49H22.5v.27h2V36h-3v-2ZM35 34h3v.49h-2v.26h1.84v.49H36v.27h2V36h-3v-2ZM20.51 34.93c.16.03.28.1.37.18.08.08.12.17.12.27 0 .22-.13.37-.39.47-.25.1-.62.15-1.1.15H18v-2h1.46c.44 0 .79.04 1.03.13.25.1.37.23.37.42 0 .09-.03.17-.1.23a.58.58 0 0 1-.25.15Zm-1.02.64c.14 0 .24-.02.3-.05.07-.04.1-.09.1-.14 0-.06-.03-.1-.1-.14a.63.63 0 0 0-.3-.06H19v.4h.49ZM19 34.43v.33h.45c.12 0 .21-.02.26-.05.06-.03.08-.07.08-.12 0-.04-.02-.08-.08-.11-.05-.04-.14-.05-.26-.05H19Z" fill="#DF2124"/><path d="M29.75 20H18v.42h11.47l.28-.42Zm-.67 1H18v.54h10.71l.37-.54Zm-.84 1.24H18v.42h9.96l.28-.42Zm-.75 1.11H18V24h9.06l.43-.65Zm-.9 1.35H18v.61h8.17l.42-.61ZM25.7 26H18v.7h7.23l.47-.7Zm-.94 1.4H18v1.12h6.01l.75-1.12Zm-1.22 1.82H18V30h5.02l.52-.77Zm-1 1.47H18V33h3l1.55-2.3Z" fill="#241661"/><path d="m29.08 21 .47-.7h5.23v.21l-.33.49h-5.37Zm-.84 1.24.47-.7h5.37l-.47.7h-5.37Zm-.75 1.11.47-.7h5.36l-.48.7H27.5Zm-.9 1.35.47-.7h5.34l-.48.7H26.6ZM25.7 26l.47-.7h5.33l-.47.7H25.7Zm-.94 1.4.47-.7h5.32l-.48.7h-5.3Zm-1.22 1.82.47-.7h5.3l-.48.7h-5.29Zm-1 1.47.48-.7h5.28l-.48.7h-5.27Z" fill="#241661"/><path d="M33.35 20H38v13h-4v-2h-4.06l-1.29 2H25l8.35-13Zm-1.49 8H34v-3.33L31.86 28Z" fill="#DF2124"/><defs><linearGradient id="a" x1="28" y1="0" x2="28" y2="56" gradientUnits="userSpaceOnUse"><stop stop-color="#145DA2"/><stop offset="1" stop-color="#803D60"/></linearGradient></defs></svg>