<!-- by TradingView --><svg width="56" height="56" viewBox="0 0 56 56" xmlns="http://www.w3.org/2000/svg"><path fill="#F0F3FA" d="M0 0h56v56H0z"/><path d="M28.01 45A17 17 0 1 0 16.5 15.5a9.75 9.75 0 0 1 4.9-1.5c3.96 0 6.07 2.08 6.63 3.14L38 34c-.73 1.7-3.04 2.75-4 3l-5.97-10-9.1 15.37A16.9 16.9 0 0 0 28.02 45Z" fill="url(#a)"/><path d="M17.64 35 27 18.94A7.6 7.6 0 0 0 20.87 16C15.27 16 11 22.48 11 28.88 11 34 15.43 35.1 17.64 35Z" fill="url(#b)"/><defs><linearGradient id="a" x1="28.77" y1="44.13" x2="30.42" y2="12.53" gradientUnits="userSpaceOnUse"><stop stop-color="#A31BE0"/><stop offset="1" stop-color="#4714B3"/></linearGradient><linearGradient id="b" x1="23.83" y1="16.94" x2="13.84" y2="33.62" gradientUnits="userSpaceOnUse"><stop stop-color="#A31BE0"/><stop offset="1" stop-color="#4714B3"/></linearGradient></defs></svg>