<!-- by TradingView --><svg xmlns="http://www.w3.org/2000/svg" width="56" height="56" viewBox="0 0 56 56"><path fill="#F0F3FA" d="M0 0h56v56H0z"/><path fill-rule="evenodd" d="M6.03 35.32l5.66-15a.5.5 0 0 1 .46-.32h3.29c.2 0 .4.13.46.32l5.62 15a.5.5 0 0 1-.46.68h-2.97a.5.5 0 0 1-.47-.35l-1.07-3.3h-5.64l-1.19 3.32a.5.5 0 0 1-.47.33H6.5a.5.5 0 0 1-.47-.68zm5.68-5.8l2.01-5.97 1.96 5.96H11.7z" fill="#002395"/><path d="M35.16 33.54c.2.2.2.5 0 .68a8.35 8.35 0 0 1-5.74 2.28A8.46 8.46 0 0 1 21 28c0-4.7 3.77-8.5 8.42-8.5 2.2 0 4.18.84 5.68 2.22.2.19.2.5 0 .7l-1.78 1.75c-.2.2-.52.19-.73 0A4.85 4.85 0 0 0 29.42 23a4.96 4.96 0 0 0-4.92 5c0 2.76 2.2 5 4.92 5 1.24 0 2.38-.47 3.24-1.24.22-.2.55-.2.75 0l1.75 1.78z" fill="#002395"/><circle cx="29.5" cy="28" r="3" fill="#009FDA"/><path fill-rule="evenodd" d="M37 20.5c0-.28.22-.5.5-.5h6.82A3.92 3.92 0 0 1 46 27.46 4.38 4.38 0 0 1 44.62 36H37.5a.5.5 0 0 1-.5-.5v-15zm3.5 2.26h2.43a1.84 1.84 0 0 1 0 3.68H40.5v-3.68zm0 6.24h3a2 2 0 0 1 0 4h-3v-4z" fill="#002395"/></svg>