<!-- by TradingView --><svg width="56" height="56" viewBox="0 0 56 56" xmlns="http://www.w3.org/2000/svg"><path fill="#F0F3FA" d="M0 0h56v56H0z"/><path d="M20 39c-6.47-.47-12-5.9-12-12.5C8 19.6 13.6 14 20.5 14c5.32 0 9.7 3.32 11.5 8h-4.45c-1.5-2.4-4-4-7.05-4a8.5 8.5 0 0 0-8.5 8.5c0 4.7 4.23 8.5 8.93 8.5.71 0 1.4-.09 2.07-.25L20 39Z" fill="#C4BBB4"/><path d="M25 35h22v4H22l3-4Z" fill="#39285B"/><path d="M41 28.5h-2v-.7c0-.23-.18-.38-.48-.38-.23 0-.52.12-.52.37v2.35c0 .3.3.44.53.44.33 0 .46-.3.46-.57v-.51H41v1.82c-.77.49-1.6.68-2.51.68-1.2 0-2.49-.31-2.49-1.72v-2.47c0-1.43 1.21-1.81 2.47-1.81.9 0 1.78.17 2.53.7v1.8ZM47 28.5h-2v-.7c0-.23-.18-.38-.48-.38-.23 0-.52.12-.52.37v2.35c0 .3.3.44.53.44.33 0 .46-.3.46-.57v-.51H47v1.82c-.77.49-1.6.68-2.51.68-1.2 0-2.49-.31-2.49-1.72v-2.47c0-1.43 1.21-1.81 2.47-1.81.9 0 1.78.17 2.53.7v1.8ZM34 26l.69 4.01c.04.25.07.64.31.8V32h-2.16v-1.2c.12-.09.16-.21.16-.37h-1c0 .18.04.3.2.37V32H30v-1.2c.18-.2.21-.43.25-.69L31 26h3Zm-1.21 3-.29-2-.3 2h.59ZM23 26h3c1.34 0 2 .6 2 1.96v2.16c0 1.31-.72 1.88-2 1.88h-3v-6Zm2.12 4.5c.48 0 .89-.21.89-.66v-1.88c0-.38-.52-.48-.88-.48H25v3.02h.12ZM17 26h3.05c1.04 0 1.95.33 1.95 1.51 0 .68-.27 1.12-.9 1.37.72.17.9.71.9 1.41 0 1.27-.9 1.71-2.01 1.71H17v-6Zm2.1 2.3c.45 0 .9-.13.9-.44 0-.37-.57-.42-.88-.42H19v.85h.1Zm-.1 2.3h.06c.5-.02.94-.16.94-.57 0-.4-.5-.5-.92-.5H19v1.07Z" fill="#F11922"/></svg>