<!-- by TradingView --><svg width="56" height="56" viewBox="0 0 56 56" xmlns="http://www.w3.org/2000/svg"><path fill="#F0F3FA" d="M0 0h56v56H0z"/><path fill-rule="evenodd" d="M28 45a17 17 0 1 0 0-34 17 17 0 0 0 0 34Zm0-1a16 16 0 1 0 0-32 16 16 0 0 0 0 32Z" fill="#00A054"/><circle cx="28" cy="28" r="7" fill="#00A054"/><path d="m16.5 26 .59 2H19l-1.55 1.09.6 1.91-1.55-1.18L14.95 31l.6-1.91L14 28h1.91l.59-2ZM40.5 26l.59 2H43l-1.55 1.09.6 1.91-1.55-1.18L38.95 31l.6-1.91L38 28h1.91l.59-2ZM39.26 32.7c.46.37.8.77.99 1.2a2.4 2.4 0 0 1-.3 2.54 2.33 2.33 0 0 1-2.34.94c-.47-.08-.93-.3-1.4-.67-.46-.36-.79-.76-.98-1.19a2.41 2.41 0 0 1 .3-2.54 2.29 2.29 0 0 1 2.34-.94c.46.08.93.3 1.39.67Zm-.6.8a2.49 2.49 0 0 0-.95-.49c-.3-.07-.58-.06-.83.03s-.47.25-.65.49c-.18.24-.28.5-.3.76-.03.28.03.55.18.83.15.28.38.54.7.8.33.25.65.42.95.5.3.06.58.05.84-.04.25-.09.46-.25.64-.49s.29-.5.31-.76a1.5 1.5 0 0 0-.19-.83 2.55 2.55 0 0 0-.7-.8ZM26 43v-6h4v1h-3v1.54h2.71v.91H27V42h3v1h-4ZM25.17 39.06l-.93-.44a1.31 1.31 0 0 0-.09-.91 1.24 1.24 0 0 0-.27-.36 1.57 1.57 0 0 0-1.25-.41 1.5 1.5 0 0 0-.79.37 2.6 2.6 0 0 0-.63.9c-.18.4-.27.76-.28 1.1 0 .32.08.6.23.84a1.63 1.63 0 0 0 1.1.7 1.28 1.28 0 0 0 .85-.19c.13-.08.25-.19.34-.33l.94.45a2.22 2.22 0 0 1-2.1 1.02c-.28-.03-.58-.12-.89-.26a2.46 2.46 0 0 1-1.48-2.19c-.01-.5.1-1.02.36-1.57.25-.56.57-.99.96-1.29a2.4 2.4 0 0 1 2.6-.26c.28.13.53.3.74.5a2.28 2.28 0 0 1 .7 1.45c.02.28-.01.58-.1.88ZM35.12 36.88l-.9.5a1.28 1.28 0 0 0-.78-.46c-.14-.02-.3-.02-.45.02-.15.03-.3.09-.45.17a1.48 1.48 0 0 0-.76 1.48c.02.32.14.67.34 1.05.21.38.45.67.7.86.27.2.54.3.82.32a1.65 1.65 0 0 0 1.2-.5 1.32 1.32 0 0 0 .35-.81c.01-.15 0-.31-.06-.47l.9-.5a2.27 2.27 0 0 1-.41 2.3c-.2.23-.44.42-.73.59a2.37 2.37 0 0 1-2.61-.07c-.41-.27-.76-.68-1.05-1.21a3.39 3.39 0 0 1-.47-1.55 2.48 2.48 0 0 1 1.32-2.29c.27-.15.55-.26.83-.32.27-.05.55-.06.81 0 .27.04.52.13.76.28.24.15.45.35.64.61ZM15.6 35.39l-.6-.86L20.43 33l.68.99-3.27 4.64-.59-.85 2.65-3.64-.03-.03-4.27 1.28Zm1.72-1.19 1.6 2.33-.63.45-1.6-2.33.63-.45ZM33.35 19.32l-.62-.44 3.33-2.45.72.5-1.08 4.03-.62-.43.9-3.18-.02-.02-2.6 1.99Zm.89-1.26 1.68 1.18-.32.47-1.68-1.18.32-.47ZM24.52 18.56l-.96-3.89.7-.17.81 3.25 2.02-.51.15.63-2.72.69ZM18.35 18.65l-.4-.47L20.45 16l.4.46-.97.85 2.2 2.58-.55.5-2.2-2.59-.97.85ZM28.8 14.6l.07-.6 3.26.42-.08.61-1.26-.16-.43 3.39-.73-.1.43-3.39-1.27-.16ZM18.48 25.27 15 23.5l.76-1.55c.15-.29.3-.51.48-.66.17-.16.35-.25.54-.28.18-.03.36 0 .53.09a.76.76 0 0 1 .44.66c0 .13 0 .28-.05.42l.04.02c.08-.14.18-.26.31-.36a.88.88 0 0 1 .96-.08c.19.1.33.23.42.4.1.18.13.39.11.63-.01.25-.1.53-.25.84l-.8 1.64Zm-.16-1 .38-.8c.13-.26.19-.47.16-.63a.46.46 0 0 0-.26-.35c-.1-.06-.2-.07-.32-.06a.65.65 0 0 0-.32.16c-.1.08-.2.2-.27.35l-.4.81 1.03.52Zm-1.48-.75.36-.72c.06-.13.1-.26.1-.38.02-.12 0-.23-.05-.32a.47.47 0 0 0-.22-.23.45.45 0 0 0-.41 0c-.14.07-.27.2-.37.42l-.37.74.96.5ZM40.26 23.09c-.04.09-.1.17-.17.25l.36.63a1.45 1.45 0 0 0 .53-.95c.03-.18.02-.37-.01-.56a1.89 1.89 0 0 0-.69-1.12c-.18-.15-.4-.24-.62-.3a1.78 1.78 0 0 0-.73 0c-.25.04-.52.14-.79.3-.35.2-.61.45-.8.73a1.7 1.7 0 0 0-.01 1.84 1.81 1.81 0 0 0 .7.72l-.22.13.33.6 1.8-1.06-.78-1.38-.48.28.45.79a.97.97 0 0 1-.46.13.79.79 0 0 1-.45-.13 1.09 1.09 0 0 1-.35-.39c-.1-.19-.16-.38-.15-.58.01-.2.08-.39.21-.57.13-.18.32-.35.57-.5.25-.14.49-.23.7-.25.23-.02.43.01.6.1a1.11 1.11 0 0 1 .53.71.81.81 0 0 1-.07.58Z" fill="#00A054"/></svg>