<!-- by TradingView --><svg width="56" height="56" viewBox="0 0 56 56" xmlns="http://www.w3.org/2000/svg"><path fill="#181B1E" d="M0 0h56v56H0z"/><path d="M31.08 14c-3.72 0-6.88 2.42-7.99 3.62C13.4 21.95 21.12 44 28.68 44S45 38.2 45 28.56C45 18.93 35.74 14 31.08 14Z" fill="#0077B7"/><path d="m17.61 14 11.33 6.77a9.3 9.3 0 0 0-5.24 0c.37.27 1.47 1 1.47 1.54 0 .66-.5 1.37-1.47 1.37-.77 0-1.17-.36-1.27-.53-1.28 1.23.25 2.46 1.27 2.46 2.08 0 4.3-.96 6.19-.96-.9.33-2.3 2.2-3.2 5.8-.72 2.87-1.97 4.5-2.47 4.84 2.37-.46 2.69-1.42 3.75-4.25.85-2.26 1.85-3.36 2.24-3.5h2c1.11 0 1.9-1.51 1.9-3.27 0-1.77-.44-2.79-.44-5.01 0-2.23.9-3.32 1.7-3.32.82 0 1.13.63 1.13 2.06 0 1.42-.16 1.65-.9 3.64a6.87 6.87 0 0 0-.4 3.52c.81-.6 2.6-1.87 3.2-2.19.6-.32 1.18-.92 1.4-1.23 0 .93-.62 2.13-2.15 3.42a7.99 7.99 0 0 0-2.1 2.87c.63-.96 2.82-2.5 4.25-3.23a7.34 7.34 0 0 0 2.37-2.09c-.16 1.13-.4 2.19-2.8 3.95-2.4 1.76-2.37 2.82-2.37 2.82a9.03 9.03 0 0 1 7.06-2.9c-3.24 1.28-5.2 3.36-5.67 4.36 1.64-1.7 2.75-2.42 3.59-2.42.84 0 2.08.83 2.08 1.93 0 1.79-1.18 2.9-3.26 2.9-2.07 0-4.3-1.48-5.24-2.41.87 2.63 4.1 4.6 5.66 5.32-1.89 0-5.02-1.16-6.14-1.94.38 2.34 2.36 3.99 3.3 4.84-3.48-.43-5.06-1.94-5.37-5.3-.4-4.35-2.18-5.34-3.12-5.34 1.68 2.29.94 5.15.94 6.38 0 4.36 2.33 7.17 3.46 8.04-.6.35-2.6 1.06-5.76 1.06C14.36 44 11 28.09 11 24.53c0-3.55 1.28-6.24 2.77-7.3 1.2-.86 3-2.51 3.84-3.23Z" fill="#fff"/></svg>