<!-- by TradingView --><svg width="56" height="56" viewBox="0 0 56 56" xmlns="http://www.w3.org/2000/svg"><path fill="#F0F3FA" d="M0 0h56v56H0z"/><path d="M41 39.16A17.22 17.22 0 0 1 28.02 45a16.96 16.96 0 0 1-16.9-19c.35 1.5 1.28 3.13 2.88 3.75 0 2.33 1.3 7.25 7 7.25 3.2 0 5.29-1.92 7.48-3.64 1.15-.91 2.33-1.77 3.47-2.69 2.17-1.73 4.3-3.67 7.1-3.67 2.4 0 4.67 1.38 5.95 2.26a16.79 16.79 0 0 1-2.38 7.53c-1.14-.75-2.9-1.79-4.35-1.79-2.02 0-3.76 1.43-5.7 2.87-2.41 1.8-5.14 4.13-9.12 4.13-7.16 0-9.67-6.68-10.06-10.45C13.43 35.3 15.67 43 24.27 43c4.6 0 7.07-1.8 9.13-3.13 1.48-.96 2.75-1.87 4.44-1.87.82.06 2.43.44 3.16 1.16ZM27.21 11 15.5 20h.45l12.44-8.88L16.82 20h.45l12.44-8.88L18.15 20h.44l12.3-8.78L19.48 20h.45l12-8.57h.03L20.79 20h.45l11.65-8.31.04.01L22.12 20h.45l11.23-8.01.06.02L23.44 20h.45l10.77-7.67c.03 0 .05.02.08.03L24.76 20h.45l10.27-7.3.1.05L21.69 23H12a16.71 16.71 0 0 1 15.21-12Z" fill="#0068A9"/><circle cx="14" cy="26" r="1" fill="#0068A9"/><path d="m20.23 27.49 1.51-1.15 4.01 5.4-1.51 1.14-4-5.4ZM18.33 28.93a3.4 3.4 0 0 0-.66 4.72 3.31 3.31 0 0 0 4.67.67l1.43-1.08-1.07-1.44-1.37 1.04c-.69.52-1.66.38-2.18-.31-.51-.7-.38-1.69.31-2.2l1.37-1.04-1.07-1.44-1.43 1.08Z" fill="#0068A9"/><path d="m26.22 28.99 1.13 1.53-2.76 2.1-1.13-1.54 2.76-2.1ZM37.99 14l-1.51 1.15 1.33 1.8-.94.72-1.34-1.8-4.27 3.24c-.78.6-.89 2.1-.19 3 .64.8 1.95 1.15 2.66.6l.73-.54c.1-.08.24-.06.31.04s.05.24-.04.32l-2.42 1.8-1.34-1.8-1.5 1.14L31.92 27l3.93-2.94c.94-.71 1.04-2.17.29-3.18-.52-.7-1.63-1.15-2.23-.7l-.88.67c-.12.1-.3.07-.39-.05a.28.28 0 0 1 .06-.4l2.44-1.85 2.88 3.86 1.5-1.15L38 19.2l.95-.72 1.54 2.06L42 19.4 37.99 14ZM27.33 22.26l1.16 1.53-1.6 1.2.4.53 1.6-1.19 1.15 1.53-1.59 1.2 1.36 1.8L28.27 30l-4.07-5.4 3.13-2.34Z" fill="#0068A9"/><path d="M29.8 21.4a1 1 0 1 1-1.6 1.2 1 1 0 0 1 1.6-1.2Z" fill="#0068A9"/></svg>