<!-- by TradingView --><svg width="56" height="56" viewBox="0 0 56 56" xmlns="http://www.w3.org/2000/svg"><path fill="#F0F3FA" d="M0 0h56v56H0z"/><path d="M43.88 30a16 16 0 0 1-31.85-1h3a13 13 0 0 0 25.82 1h3.03Zm.09-1c.02-.33.03-.66.03-1h-3c0 .34-.01.67-.04 1h3Zm-3.12-3c.05.33.09.66.11 1h3c-.01-.34-.04-.67-.08-1h-3.03Zm2.87-1a16 16 0 0 0-31.22-1h3.13a13 13 0 0 1 25.02 1h3.07Zm-28.37 0h-3.07l-.16 1h3.03c.06-.34.12-.67.2-1Zm-.31 2h-3c-.03.33-.04.66-.04 1h3c0-.34.01-.67.04-1Z" fill="#E01719"/><path d="m31 24.5-3.2 4.42L49 40 31 24.5Z" fill="#FE964A"/><path d="M30 33.61 28 29 7 40l23-6.39Z" fill="#FE964A"/><path d="M23 29h5L7 40l16-11Z" fill="#0978AD"/><path d="M28 29h-5l5-22v22Z" fill="#FE964A"/><path d="M28 29V7l3 17.54L28 29ZM30 33.61 28 29l21 11-19-6.39Z" fill="#0978AD"/></svg>