<!-- by TradingView --><svg width="56" height="56" viewBox="0 0 56 56" xmlns="http://www.w3.org/2000/svg"><path fill="#181B1E" d="M0 0h56v56H0z"/><path d="M27.28 14.19c.45-.25 1-.25 1.44 0l21.52 11.87c.99.54 1.02 1.93.06 2.52l-21.52 13.2c-.48.3-1.08.3-1.56 0L5.7 28.58a1.46 1.46 0 0 1 .06-2.52l21.52-11.87Z" fill="#fff"/><path d="M26.58 40.6a2.7 2.7 0 0 0 2.84 0L49.74 28c.3-.19.35-.6.1-.85a.57.57 0 0 0-.68-.1L29.3 37.89a2.7 2.7 0 0 1-2.58 0L6.84 27.07a.57.57 0 0 0-.68.1c-.25.24-.2.65.1.84L26.58 40.6Z" fill="#F51A27"/><path fill-rule="evenodd" d="m45.38 25.45-16.8-9.3c-.36-.2-.8-.2-1.16 0l-16.8 9.3a1.2 1.2 0 0 0 0 2.1l16.8 9.3c.36.2.8.2 1.16 0l16.8-9.3a1.2 1.2 0 0 0 0-2.1ZM29.06 15.27a2.2 2.2 0 0 0-2.12 0l-16.8 9.3a2.2 2.2 0 0 0 0 3.86l16.8 9.3a2.2 2.2 0 0 0 2.12 0l16.8-9.3a2.2 2.2 0 0 0 0-3.86l-16.8-9.3Z" fill="#F51A27"/><path d="M22 21.23C22 20 23 19 24.23 19h.54C26 19 27 20 27 21.23V25h-2v-3.5a.5.5 0 0 0-1 0v10a.5.5 0 0 0 1 0V28h2v3.77C27 33 26 34 24.77 34h-.54C23 34 22 33 22 31.77V21.23ZM37 24.5a1.5 1.5 0 0 1 3 0V26h-1v-1.5a.5.5 0 0 0-1 0v4a.5.5 0 0 0 1 0V27h1v1.5a1.5 1.5 0 0 1-3 0v-4ZM31.5 19c-1.38 0-2.5 1-2.5 2.25v2.94c0 .46.12.92.34 1.34.07.13.17.25.27.37l2.15 2.48c.05.05.1.1.12.17.1.19.12.4.12.61v2.35c0 .27-.2.49-.5.49s-.5-.22-.5-.49V28h-2v3.75c0 1.24 1.12 2.25 2.5 2.25s2.5-1 2.5-2.25v-2.96c0-.53-.15-1.04-.43-1.5l-2.37-2.93a1.3 1.3 0 0 1-.2-.69V21.5c0-.27.2-.49.5-.49s.5.22.5.49V24h2v-2.75c0-1.24-1.12-2.25-2.5-2.25ZM15 30l1.45-7h2.1L20 30h-1.15l-.42-2h-1.87l-.41 2H15Zm1.77-3h1.46l-.73-3.5-.73 3.5Z" fill="#F51A27"/><circle cx="20.5" cy="29.5" r=".5" fill="#F51A27"/><circle cx="27.5" cy="29.5" r=".5" fill="#F51A27"/><circle cx="35.5" cy="29.5" r=".5" fill="#F51A27"/></svg>