<!-- by TradingView --><svg width="56" height="56" fill="none" xmlns="http://www.w3.org/2000/svg"><path fill="#F0F3FA" d="M0 0h56v56H0z"/><path fill-rule="evenodd" clip-rule="evenodd" d="M34.998 26h-4.353c-.49-1.196-1.503-2-3.145-2-2.343 0-3.5 1.79-3.5 4s.954 4 3.5 4c1.371 0 2.558-.656 3.133-2h4.361c-.742 4.04-3.778 6-7.41 6C22.068 36 20 32.418 20 28s2.507-8 7.584-8c4.477 0 6.798 2.55 7.414 6ZM5 35l4.489-14h5.852L20 35h-4.375l-.7-2h-4.786l-.65 2H5Zm6.116-5h2.757l-1.43-4.08L11.116 30Zm28.557-9H35l4.843 14h6.088L51 21h-4.843l-3.256 9.067L39.673 21Z" fill="url(#a)"/><defs><linearGradient id="a" x1="28" y1="20" x2="28" y2="36" gradientUnits="userSpaceOnUse"><stop stop-color="#1A83C5"/><stop offset="1" stop-color="#0B53A2"/></linearGradient></defs></svg>