<!-- by TradingView --><svg width="56" height="56" viewBox="0 0 56 56" xmlns="http://www.w3.org/2000/svg"><path fill="#F0F3FA" d="M0 0h56v56H0z"/><path d="M11.9 39.04C13.45 41.68 16.69 43 20.7 43c4 0 8.77-1.31 13.35-3.95 7.32-4.2 11.95-10.5 11.96-15.55 0-1.28-.29-2.47-.9-3.54-1.88-3.23-6.32-4.48-11.6-3.76 4.14-.14 7.57 1.2 9.18 3.97A7.1 7.1 0 0 1 43.6 24c-.15 4.67-4.15 10.23-10.5 13.88A23.38 23.38 0 0 1 21.5 41c-3.87 0-7.07-1.08-8.6-3.72a7.41 7.41 0 0 1-.9-3.78c0-1.44.26-2.96 1-4.5-1.43 2.3-2 4.5-2 6.67.02 1.21.32 2.35.9 3.37Z" fill="#CD161E"/><path d="M33.06 24c-1.14 0-2.06.9-2.06 1.99V33c0 1.1.92 1.99 2.06 1.99H39v-1.5h-4.27a.72.72 0 0 1-.73-.7v-7.45c0-.2.3-.35.5-.35s.5.16.5.35V30l3-2.31v-1.7c0-1.1-.92-1.99-2.06-1.99h-2.88ZM23 25.87c0-1.03.94-1.87 2.1-1.87H28v11h-2.9c-1.16 0-2.1-.84-2.1-1.87v-7.26ZM29.85 16.19 27.6 17c-1.46-2.08.1-5.53 1.05-7 1.57 2.04 1.45 4.98 1.2 6.19Z" fill="#CD161E"/><path d="m27 18.5 1-.5v11h-1V18.5Z" fill="#CD161E"/><path d="m30 17-4 1.38.28.64L29 18v17h1.56v-.19c-.19-.04-.56-.25-.56-.85V17ZM20.11 24c1.04 0 1.89.9 1.89 1.99v7.96c0 .6.3.84.44.87V35h-6c-.8 0-1.44-.68-1.44-1.52V31.9c0-.48.2-.94.56-1.25L19 28v-2.66c0-.2-.32-.35-.5-.35s-.5.16-.5.35v2.22l-3 2.28V26c0-1.1.73-1.99 1.78-1.99h3.33ZM19 29c-.38.06-1 .59-1 1v3.19c0 .41.62.75 1 .81v-5Z" fill="#CD161E"/></svg>