<!-- by TradingView --><svg width="56" height="56" viewBox="0 0 56 56" xmlns="http://www.w3.org/2000/svg"><path fill="#F0F3FA" d="M0 0h56v56H0z"/><path d="M10.18 27c1.57 0 3.14-.83 3.78-2.3h-1.7c-.49.6-1.26.97-2.03.97a2.73 2.73 0 0 1-2.73-2.72c0-1.42 1.2-2.62 2.62-2.62.82 0 1.66.38 2.18 1.02H14A4.14 4.14 0 0 0 10.18 19 4.1 4.1 0 0 0 6 23c0 2.27 1.96 4 4.18 4ZM15 27v-8h1.5v8H15Zm6 0a3 3 0 0 1 0-6 3.02 3.02 0 0 1 2.95 3.6h-4.48c.22.68.84 1.17 1.56 1.17.53 0 1.08-.29 1.33-.77h1.46A2.92 2.92 0 0 1 21 27Zm1.56-3.48A1.63 1.63 0 0 0 21 22.23c-.77 0-1.38.57-1.57 1.29h3.13ZM25.53 21H24l2.43 6h1.14L30 21h-1.53L27 25l-1.47-4ZM37 21v6h1.5v-3.36c0-.85.54-1.25 1.5-1.31V21h-.1c-.58 0-1.03.18-1.4.63V21H37Zm-7 3a3 3 0 0 0 3 3c1.26 0 2.44-.77 2.82-2h-1.46c-.25.48-.8.77-1.33.77-.72 0-1.34-.49-1.56-1.17h4.48A3.02 3.02 0 0 0 33 21c-1.65 0-3 1.36-3 3Zm3-1.77c.76 0 1.4.56 1.56 1.29h-3.13c.2-.72.8-1.29 1.57-1.29Z" fill="url(#a)"/><path d="M33 40v-9h1v1.15A2.47 2.47 0 0 1 36.16 31C38.1 31 39 32.61 39 34c0 1.6-1.14 3-2.82 3A2.51 2.51 0 0 1 34 35.86V40h-1Zm5-6c0-.92-.73-2-2.04-2-1.1 0-1.96.85-1.96 1.99 0 1.11.88 2.01 1.97 2.01 1.13 0 2.03-.9 2.03-2ZM32 31v6h-1v-1.07c-.26.6-.84 1.08-1.8 1.07-1.75-.01-2.2-1.37-2.2-2.58V31h1v3.16c0 1.05.41 1.84 1.48 1.84 1.02-.01 1.52-.75 1.52-1.74V31h1ZM20 34c0-1.51 1.1-3 3-3s3 1.48 3 3c0 1.53-1.1 3-3 3s-3-1.48-3-3Zm1 .01A2 2 0 0 0 23 36a2 2 0 1 0-2-1.99ZM17 37v-6h1v1.03c.36-.69 1.15-1.02 2-1.03v1h-.08c-1.13 0-1.92.7-1.92 1.85V37h-1ZM15.61 31.33H14.5A3.21 3.21 0 0 0 11.98 30 3.03 3.03 0 0 0 9 32.98 3 3 0 0 0 11.96 36c1.4 0 2.82-.94 3.04-2h-3v-1h4a4 4 0 0 1-4.03 4A3.95 3.95 0 0 1 8 32.98C8 30.68 9.79 29 11.98 29c1.63 0 3.09 1 3.63 2.33Z"/><path d="M47 25c.38.28.72.62 1 1a1 1 0 0 1 .8 1.6A5 5 0 0 1 40 32a1 1 0 0 1-.8-1.6 5 5 0 0 1 6.2-6.2 1 1 0 0 1 1.6.8Zm-1.92-.39a4.53 4.53 0 0 0-5.47 5.47A1 1 0 0 1 41 31a1 1 0 0 1-.5.86 4.5 4.5 0 0 0 7.89-3.94A1 1 0 0 1 48 28h-.22c-.2-.02-.4-.02-.59.03l-.69.2c-.32.09-.5.43-.5.77a2 2 0 1 1-2-2c.34 0 .7-.14.85-.44l.11-.22c.15-.3.11-.63.07-.97A5.76 5.76 0 0 1 45 25a1 1 0 0 1 .08-.39Zm2.41 1.53c-.19-.23-.4-.44-.63-.63A1 1 0 0 1 46 26c-.14 0-.28.06-.35.19l-.36.72c-.12.23-.04.5.14.7.16.15.38.24.59.18l.62-.18c.25-.07.36-.35.36-.61a1 1 0 0 1 .5-.86Z" fill="url(#b)"/><defs><linearGradient id="a" x1="7" y1="22.99" x2="39.45" y2="22.99" gradientUnits="userSpaceOnUse"><stop stop-color="#00A2F8"/><stop offset="1" stop-color="#26D5E0"/></linearGradient><linearGradient id="b" x1="39.45" y1="28.41" x2="49" y2="28.41" gradientUnits="userSpaceOnUse"><stop stop-color="#00A2F8"/><stop offset="1" stop-color="#26D5E0"/></linearGradient></defs></svg>