<!-- by TradingView --><svg width="56" height="56" viewBox="0 0 56 56" xmlns="http://www.w3.org/2000/svg"><path fill="#F0F3FA" d="M0 0h56v56H0z"/><circle cx="28" cy="28" r="17" fill="url(#a)"/><path d="M17.55 30c3.49 0 9.09-5.33 11.45-8-5 4.75-9.81 7.49-11.57 7.49-1.4 0-1.23-1.17-.97-1.75-1.19 1.43.2 2.26 1.09 2.26Z"/><path d="M26 35H14c4.76-.53 5-3.12 5-5.03 0-1.54-.6-2.62-.99-2.97 2.89.11 3.6 3.46 4.13 5.26.42 1.44 2.75 2.43 3.86 2.74Z"/><circle cx="34.5" cy="18.5" r="4.5" fill="url(#b)"/><path d="M38 35v-3h.63l2.75 2.1V32H42v3h-.54l-2.83-2.1V35H38ZM33 35l1.66-3h.66L37 35h-.77l-.35-.66h-1.86l-.34.66H33Zm1.31-1.2h1.29l-.63-1.22-.66 1.22ZM31.27 32.53h-2.54v.64h2.38c.52 0 .89.13.89.7v.42c0 .58-.37.71-.9.71h-2.2c-.54 0-.9-.12-.9-.71v-.08l.73-.13v.36h2.54v-.69h-2.38c-.53 0-.89-.13-.89-.7v-.34c0-.58.36-.71.89-.71h2.18c.48 0 .93.1.93.66v.06l-.73.15v-.34ZM23 35v-3h.58L25 33.81 26.43 32H27v3h-.65v-2.17l-1.28 1.8h-.14l-1.36-1.8V35H23Z"/><path d="m19 35 1.66-3h.66L23 35h-.77l-.35-.66h-1.86l-.34.66H19Zm1.31-1.2h1.29l-.63-1.22-.66 1.22Z" fill="#F0F3FA"/><path d="M22.63 33A5.45 5.45 0 0 0 25 28.54c0-3.06-2.6-5.54-5.81-5.54A5.85 5.85 0 0 0 14 26.04a5.77 5.77 0 0 1 4.76-2.45c3.15 0 5.7 2.43 5.7 5.43A5.3 5.3 0 0 1 22.63 33Z"/><defs><linearGradient id="a" x1="28" y1="11" x2="28" y2="45" gradientUnits="userSpaceOnUse"><stop offset=".21" stop-color="#0266F6"/><stop offset=".78" stop-color="#F0F3FA"/></linearGradient><linearGradient id="b" x1="38.16" y1="15.97" x2="30.96" y2="20.83" gradientUnits="userSpaceOnUse"><stop stop-color="#FCFEFC"/><stop offset="1" stop-color="#FDCF00"/></linearGradient></defs></svg>