<!-- by TradingView --><svg width="56" height="56" viewBox="0 0 56 56" xmlns="http://www.w3.org/2000/svg"><path fill="#F0F3FA" d="M0 0h56v56H0z"/><path fill-rule="evenodd" d="M20.37 19.06A6.53 6.53 0 0 0 19 16a6.53 6.53 0 0 0-1.37 3.06L16 18v11.63c0 1.28 2 2.12 3 2.37.21-.05.47-.14.75-.24h-.5l.29-.42-.03.02v-.73l.9-.6L22 27.65V18l-1.63 1.06ZM19 20l-.28-.52c-.23-.43-.23-.8 0-1.23l.28-.52.28.52c.23.43.23.8 0 1.23L19 20Zm-2-.5 1.49 1v.73l-1.49-1v-.73Zm0 1.36 1.49 1v.73l-1.49-1v-.73Zm1.49 2.38-1.49-1v.71l1.49 1.01v-.72ZM17 23.6l1.49 1v.73l-1.49-1v-.73Zm1.49 2.53-1.49-1v.72l1.49 1v-.72Zm-1.49.44 1.49 1v.73l-1.49-1v-.73Zm1.49 2.46L17 28.02v.72l1.49 1v-.71Zm-1.49.6 1.49 1v.73l-1.49-1v-.73Zm4-10.13-1.49 1v.73l1.49-1v-.73Zm0 1.36-1.49 1v.73l1.49-1v-.73Zm-1.49 2.38 1.49-1v.71l-1.49 1.01v-.72Zm1.49.36-1.49 1v.73l1.49-1v-.73Zm-1.49 2.53 1.49-1v.72l-1.49 1v-.72Zm1.49.44-1.49 1v.73l1.49-1v-.73Zm-1.49 2.46L21 28.02v.72l-1.49 1v-.71Z" fill="#F6B808"/><path fill-rule="evenodd" d="M44 12H12v32h32V12Zm-1 1H13v30h30V13Z" fill="#0504F5"/><path fill-rule="evenodd" d="M42 14H14v23h28V14Zm-1 1H15v21h26V15Z" fill="#0504F5"/><path d="m36.75 38 1.24 1.58L39.27 38H41l-2 2.5 2 2.5h-1.78L38 41.4 36.77 43H35l1.99-2.5L35 38h1.75ZM30 43v-5h4v1h-2.5v1h2.3v1h-2.3v1H34v1h-4ZM28.5 38v5H27v-5h1.5ZM22 43v-5h4v1h-2.5v1h2.25v1H23.5v2H22ZM16.56 43H15l2.03-5h1.94L21 43h-1.56l-1.42-3.74h-.04L16.55 43Zm-.2-2h3.26v1h-3.26v-1Z" fill="#F9040B"/><path fill="#0504F5" d="M19 33h21v1H19zM19 35h21v1H19z"/><path fill-rule="evenodd" d="M29.5 16 19 32h21L29.5 16Zm0 1.5L20.83 31h17.4L29.5 17.5Z" fill="#0504F5"/><path d="M32.64 25h-.4v1.27l-.24-.24h-.4l.64.64v.94h-.52l-.48.39h-1.76l-.28-.3H29V27h-1.4v.7l-2.04.55v.38H23v.86l.52.51h9.68l1.8-3.2h-.16l-.52.38h-.72l-.08.21h-.88v-.72l.64-.64h-.4l-.24.24V25Z" fill="#0504F5"/></svg>