<!-- by TradingView --><svg width="56" height="56" viewBox="0 0 56 56" xmlns="http://www.w3.org/2000/svg"><path fill="#F0F3FA" d="M0 0h56v56H0z"/><path fill-rule="evenodd" d="M41.66 13H14.34c-.74 0-1.34.6-1.34 1.34v27.32c0 .74.6 1.34 1.34 1.34h27.32c.74 0 1.34-.6 1.34-1.34V14.34c0-.74-.6-1.34-1.34-1.34Zm-27.32-1A2.34 2.34 0 0 0 12 14.34v27.32c0 1.3 1.05 2.34 2.34 2.34h27.32c1.3 0 2.34-1.05 2.34-2.34V14.34c0-1.3-1.05-2.34-2.34-2.34H14.34Z" fill="#006E60"/><path d="M35.78 22.22c-1.33.25-2.65.14-3.73 1 .54 1.14.97 2.1 1.3 2.81.39.84.74 1.69.61 2.63-.2 1.44-1.23 2.33-2.6 2.34-2.14.01-3.34-2.03-3.36-4.02 0-.98.22-1.99.56-2.86.39-.99.81-1.84 1.54-2.52l-1.32-2.25s-3.09 5.8-4.75 8.65c0 0-.72-2.02-1.03-3.1l5.04-8.9 2.91 5.06c1.6-1.04 3.42-1.16 5.3-1.06.92.05 1.85.16 2.75.28a4.18 4.18 0 0 0-2.15 3c-.4 1.83-.5 3.72-.67 5.6-.23 2.68-1.53 5.06-4.04 6.24a8.67 8.67 0 0 1-4.55.83c-.73-.1-1.45-.14-2.17-.34a7.5 7.5 0 0 1-5.48-5.74c-.18-.74-.27-1.5-.33-2.26.42.44.82.92 1.16 1.47a31.6 31.6 0 0 0 1.93 2.85C24.08 33.73 26 35 28.17 35a9.8 9.8 0 0 0 3.5-.6 5.62 5.62 0 0 0 3.65-4.38c.1-.52.16-1.12.2-1.78.07-1.61-.08-3.22.05-4.84.03-.44.1-.65.21-1.18Zm-6.63 4.08c-.4.88-.08 1.71 1 1.7.77 0 1.3-.24 1.86-.7.23-.2.55-.44.47-.76-.26-1.03-.81-1.97-1.31-2.9-.97.59-1.57 1.66-2.02 2.66Z" fill="#006E60"/><path d="M19.18 23.83c-.2-.96-.6-1.84-1.2-2.57-.39-.48-.7-.91-.98-1.26.82.23 1.56.52 2.2.9 1.37.83 2.06 2.33 2.53 3.8.44 1.38.8 2.92 1.32 4.28a8.78 8.78 0 0 0 1.89 3.08A7.79 7.79 0 0 0 28 34a5.7 5.7 0 0 1-3.17-1.52 8.35 8.35 0 0 1-1.69-2c-.25-.43-.52-.94-.79-1.54-.75-1.65-1.25-2.73-1.5-3.22a5.6 5.6 0 0 0-.6-.97c-.29-.38-.66-.7-1.07-.92Z" fill="#006E60"/><path d="M29.6 34.35a5.29 5.29 0 0 1-3.47-.28c-.82-.4-1.54-.9-2.15-1.5-.65-.66-1.25-1.4-1.8-2.26l-1.33-2.09a6.8 6.8 0 0 0-1.32-1.56l-.21-1.94a.03.03 0 0 1 .01-.03h.03c.54.36.93.93 1.23 1.5.42.78.74 1.41.95 1.89.3.64.58 1.23.87 1.77a10.1 10.1 0 0 0 2.57 3.2 6.2 6.2 0 0 0 3.17 1.37c.46.04.95.02 1.46-.07ZM14 39.16c0-.86.67-1.16 1.5-1.16s1.5.3 1.5 1.16V41h-.4v-1h-2.2v1H14v-1.84Zm.4.43h2.2v-.34c0-.64-.5-.87-1.1-.87-.6 0-1.1.23-1.1.87v.34ZM26.24 41c-.92 0-1.24-.67-1.24-1.5s.32-1.5 1.24-1.5H28v.4h-1.6c-.6 0-.86.38-.91.88H28v.41h-2.51c.04.52.3.91.91.91H28v.4h-1.76ZM18 39.5c0 .83.29 1.5 1.1 1.5h1.88v-.03H21v-1.69h-1.58v.41h1.19v.91h-1.36c-.61 0-.83-.5-.83-1.1 0-.6.22-1.1.83-1.1h1.73V38h-1.87c-.82 0-1.11.67-1.11 1.5ZM23.7 38H22v.41h1.28V41h.41v-2.59H25V38h-1.3ZM42.46 38v3H42v-3h.46ZM33 38.42h2.1c.27 0 .49.22.49.48v.04c0 .26-.22.48-.48.48H33.8c-.39 0-.8.32-.8.7V41h3v-.42h-2.59v-.26c0-.26.22-.48.48-.48h1.22c.49 0 .89-.4.89-.9v-.04c0-.5-.4-.9-.9-.9H33v.42ZM41.46 40.4v.6H41v-.6h.46ZM31.37 38H32l-1.18 1.5L32 41h-.63l-.87-1.1-.87 1.1H29l1.18-1.5L29 38h.63l.87 1.1.87-1.1ZM37.94 39.61a.5.5 0 0 0 0 1h1.11a.5.5 0 0 0 .01-1h-1.12Zm-.57-.2A.8.8 0 0 1 37.9 38h1.2a.8.8 0 0 1 .53 1.42.87.87 0 0 1-.5 1.58h-1.26a.87.87 0 0 1-.5-1.58Zm.14-.6c0 .25.2.45.45.45h1.08a.45.45 0 0 0 0-.9h-1.08c-.25 0-.45.2-.45.45Z" fill="#006E60"/></svg>