<!-- by TradingView --><svg width="56" height="56" viewBox="0 0 56 56" xmlns="http://www.w3.org/2000/svg"><path fill="#F0F3FA" d="M0 0h56v56H0z"/><path d="m31 37.2-1.64 1.68c-1.4.33-3.34 0-5.48-1.1-2.14-1.1-3.3-1.46-3.88-1.46h-1.54c-4.63 0-8.24.91-9.46 1.37v-2.47c1 .2 3.6.6 6 .6 2.99 0 4.65-.82 6.3-.82 1.67 0 2.32.26 3.48.95 1.8 1.04 2.93 1.27 3.27 1.25H31Z" fill="#fff"/><path d="M47 30.39v1.27a8.45 8.45 0 0 0-2.12-.34C42.14 31.32 39.74 34 35 34c-4.73 0-7.62-2.51-10.95-2.51-3.32 0-6.21 2.51-9.66 2.51A7.16 7.16 0 0 1 9 31.43c.3-.43 1.4-1.3 3.45-1.3 2.56 0 4.07 1.47 7.44 1.47 3.38 0 4.89-1.6 8.54-1.6 3.66 0 7.27 2 10.57 2 3.3 0 6.21-1.83 7-1.83.64 0 .93.14 1 .22Z" fill="#245E98"/><path d="M35.39 19 28 12l-7.39 7H35.4ZM38 21.47V25H18v-3.53L9 30h38l-9-8.53Z" fill="#245E98" fill-opacity=".7"/><path d="m17.5 23 7.5 7H10l7.5-7ZM34.37 23.36v-2.72c0-.35-.1-.47-.33-.47H34V20h1.37v.17h-.04c-.24 0-.33.12-.33.47v1.1h1v-1.1c0-.35-.09-.47-.33-.47h-.04V20H37v.17h-.04c-.24 0-.33.12-.33.47v2.72c0 .34.09.47.33.47H37V24h-1.37v-.17h.04c.24 0 .33-.13.33-.47V22h-1v1.36c0 .34.09.47.33.47h.04V24H34v-.17h.04c.24 0 .33-.12.33-.47ZM33.77 21.26c-.05-.3-.14-.54-.3-.74-.15-.2-.32-.29-.51-.29a.45.45 0 0 0-.35.14c-.09.09-.13.21-.13.37 0 .15.05.28.16.4.1.12.26.24.49.36.29.16.5.34.65.56.15.2.22.45.22.72 0 .36-.1.65-.28.87a.9.9 0 0 1-.72.32c-.24 0-.45-.05-.65-.16a.13.13 0 0 0-.14.01.22.22 0 0 0-.09.15V24H32v-1.44h.11c.04.34.14.63.3.86.17.23.37.34.59.34.15 0 .27-.06.37-.17.09-.11.14-.26.14-.44a.62.62 0 0 0-.16-.4c-.1-.12-.26-.24-.48-.36a1.67 1.67 0 0 1-.62-.53c-.14-.2-.21-.44-.21-.7 0-.35.08-.63.25-.84.17-.21.4-.32.67-.32.17 0 .34.05.52.15.07.04.12.05.17.03.05-.03.08-.07.1-.15l.02-.03h.11v1.26h-.11ZM30.3 23.36v-2.72c0-.35-.12-.47-.47-.47h-.05V20h1.75v.17h-.06c-.34 0-.47.12-.47.47v2.72c0 .34.12.47.48.47h.05V24h-1.75v-.17h.06c.34 0 .47-.12.47-.47ZM25 23.36v-2.72c0-.35-.13-.47-.48-.47h-.05V20h1.75v.17h-.06c-.34 0-.47.12-.47.47v2.72c0 .34.13.47.48.47h.05V24h-1.75v-.17h.06c.34 0 .47-.12.47-.47ZM27 23.36v-2.72c0-.35-.12-.47-.43-.47h-.05V20h2.9v1.2h-.15c-.05-.76-.49-.96-1.2-.96-.13 0-.21.02-.26.07-.04.04-.06.13-.06.26v1.27c.56 0 .7-.36.79-.86h.14v1.97h-.14c-.05-.53-.2-.89-.78-.89v1.3c0 .35.12.47.48.47h.05V24h-1.77v-.17h.05c.31 0 .43-.12.43-.47Z" fill="#DB251F"/><path d="M23.57 24c-.48 0-.86-.18-1.15-.54A2.3 2.3 0 0 1 22 22c0-.57.13-1.05.4-1.43.26-.38.6-.57 1-.57.3 0 .57.08.81.23.05.03.1.04.14.01a.2.2 0 0 0 .1-.13l.03-.11h.11v1.35h-.11c-.1-.36-.23-.63-.41-.83a.81.81 0 0 0-.62-.29c-.22 0-.4.16-.53.47-.12.31-.18.75-.18 1.32 0 .58.06 1.02.2 1.32.13.3.33.45.59.45h.06c.13 0 .22-.05.27-.13.05-.08.08-.21.08-.4v-.4c0-.16-.03-.27-.1-.34-.05-.07-.15-.1-.3-.1h-.05v-.15H25v.14h-.04c-.12 0-.21.04-.26.1-.05.08-.08.2-.08.36v.85c-.3.19-.65.28-1.05.28ZM19.37 23.37 20.49 20h.12l1.18 3.37c.06.17.11.3.17.36.05.07.12.1.2.1h.02V24h-1.52v-.16h.05c.14 0 .23-.04.27-.12.05-.08.04-.2-.01-.35l-.17-.51h-1.03l-.16.51c-.05.15-.05.26 0 .33.04.07.15.11.3.14h.06V24H19v-.16h.02c.07-.01.13-.05.19-.12.05-.07.1-.18.16-.35Zm.9-2.08-.42 1.31h.86l-.44-1.31Z" fill="#DB251F"/><path d="M47 38.88v2.05c-1.2-.95-4.39-2.93-7.6-2.93-5.7 0-9.11 3-13.84 3-4.74 0-6.12-3-9.24-3-2.5 0-5.92 1.34-7.32 2v-1.73c3.25 0 6.35-1.27 8.75-1.27 6.04 0 4.91 3 10.08 3 3.4 0 6.7-3 12.85-3 2.93 0 5.43 1.25 6.32 1.88Z" fill="#245E98"/><path d="M47 36.13v1.7c-.82-.74-3.02-1.83-5.8-1.83-4.4 0-7.97 1.33-9.2 2 .02-.12.17-.48.25-.64C34.48 36.34 40.54 35 42.82 35c1.82 0 3.54.75 4.18 1.13Z" fill="#245E98"/><path d="M47 32.34v2.21c-.7-.25-2.54-.76-4.36-.76-2.83 0-6.51 1.47-8 2.21L32 34a18 18 0 0 0 3.57.4c3.77 0 7.71-2.4 9.42-2.4 1.37 0 1.91.23 2.01.34Z" fill="#245E98"/><path fill-rule="evenodd" d="M33.19 35.72c-1.64-1-5.72-3.2-8.96-4.04l.2.61a6.94 6.94 0 0 0-1.59-.17c-.34 0-1.2.3-2.31.68-1.93.67-4.57 1.59-6.34 1.59-2.24 0-4.4-1.4-5.19-2.1v1.69c.56.4 2.37 1.07 5.19 1.07 1.89 0 3.3-.3 4.63-.58 1.13-.24 2.2-.46 3.4-.46 1.22 0 2.34.62 3.53 1.3 1.36.76 2.83 1.58 4.67 1.58 1.06 0 2.29-.78 2.77-1.17ZM30.5 36a.5.5 0 1 0 0-1 .5.5 0 0 0 0 1Z" fill="#245E98"/></svg>