<!-- by TradingView --><svg width="56" height="56" fill="none" xmlns="http://www.w3.org/2000/svg"><path fill="#EB1C23" d="M0 0h56v56H0z"/><path fill-rule="evenodd" clip-rule="evenodd" d="M8.174 24 4 32h3.391L9.5 24.702 11.63 32H15l-4.152-8H8.174ZM23 28.858 18.81 24H16v8h3v-4.858L23.168 32H26v-8h-3v4.858Zm13 2.284c-.912.504-2.406.858-4.148.858-2.716 0-4.831-1.38-4.852-3.99 0-2.444 2.405-4.01 4.977-4.01 1.369 0 2.737.261 3.774.783l-.788 1.604c-.042-.013-.107-.038-.192-.07-.416-.16-1.318-.508-2.42-.508-1.598 0-2.78.802-2.78 2.2 0 1.436 1.182 2.182 2.613 2.182.498 0 1.1-.056 1.514-.26V29h-1.7v-2H36v4.142ZM47.848 24 52 32h-3.37l-2.13-7.298L44.391 32H41l4.174-8h2.674ZM40 32h-3v-8h3v8Z" fill="#fff"/></svg>