<!-- by TradingView --><svg width="56" height="56" viewBox="0 0 56 56" xmlns="http://www.w3.org/2000/svg"><path fill="#F0F3FA" d="M0 0h56v56H0z"/><path d="M22 26.01c1.86.18 5.08 1.35 6 3.99.95-2.71 4.16-3.86 6-4a6.08 6.08 0 0 0-12 .01Z" fill="#FFC02F"/><path d="M12 26c1-7.9 7.78-14 16-14 8.22 0 15 6.1 16 14h-3.1c-.97-6.23-6.38-11-12.9-11a13.04 13.04 0 0 0-12.9 11H12Z" fill="#C4672D"/><path d="M16 26c.97-5.68 5.97-10 12-10s11.03 4.32 12 10h-3.1c-.92-4-4.56-7-8.9-7a9.1 9.1 0 0 0-8.9 7H16Z" fill="#E3942A"/><path d="M14 36h9.46c1.62.4 3.88 1.5 4.6 4 .71-2.5 3-3.6 4.61-4H42a16.3 16.3 0 0 1-14 8 16.3 16.3 0 0 1-14-8Z" fill="#00713A"/><path d="M7 29h16.19A5.94 5.94 0 0 1 28 33.92 5.94 5.94 0 0 1 32.81 29H49c-.66 2.66-3.17 3.72-4.34 4H32.8c-2.8 0-4.35 2.42-4.81 4-.46-1.58-2.02-4-4.81-4H11.34c-1.17-.28-3.68-1.34-4.34-4Z" fill="#00713A"/></svg>