<!-- by TradingView --><svg width="56" height="56" viewBox="0 0 56 56" xmlns="http://www.w3.org/2000/svg"><path fill="#F0F3FA" d="M0 0h56v56H0z"/><path d="M37 27v1h1v-1c2.72-.5 7.67-3.14 6.98-9.68l1.78-2.21-.16-.13-1.62 2.11-.07-.1L47 13.98l-.24-.1L44.64 17c-.83 0-2.88.45-4.42 2.14a12.1 12.1 0 0 0-2.55-8.1V7h-.27v3.9l-.23-2.86h-.2l.23 3.23c-2.2 2.16-2.54 6.15-2.42 7.87A6.63 6.63 0 0 0 30.36 17l-2.12-3.13-.24.1L30.09 17l-.07.1-1.62-2.12-.16.13 1.78 2.21c-.7 6.55 4.26 9.17 6.98 9.68Z" fill="url(#a)"/><path d="m37.7 26.3 6.75-9.04c-4.13.73-6.33 4.53-6.91 6.34a6 6 0 0 1 .17 2.7Z" fill="url(#b)"/><path d="M37.64 22.53v-11.1c2.18 2.7 2.46 6.42 2.33 7.94a11.2 11.2 0 0 0-2.33 3.16Z" fill="url(#c)"/><path d="m37.4 26.57-6.9-9.35c1.04 0 2.95.8 4.85 2.8 2.05 2.18 2.22 4.2 2.22 5.11 0 .73-.1 1.26-.17 1.44Z" fill="url(#d)"/><path d="M27 23h-5v10h10v-5h-1v4h-8v-8h4v-1Z" fill="url(#e)"/><path d="M27 11a17 17 0 1 0 17 17h-1a16 16 0 1 1-16-16v-1Z" fill="url(#f)"/><path d="M12 28a15 15 0 0 1 15-15v9h-6v12h12v-6h9a15 15 0 1 1-30 0Zm2.13 3.4.5 1.33-.67.5.3.82 3.16-2.6-.31-.86-4.11.05.3.78.83-.02Zm2.3-.08-1.26.97-.34-.92 1.6-.05Zm-.2 5.74c.2.24.42.4.66.48.13.05.32.07.56.08l-.32.37.34.4 1.6-1.3-1.01-1.24-.5.4.57.7c-.23.13-.45.17-.68.14a.96.96 0 0 1-.6-.37 1.06 1.06 0 0 1-.25-.75c.02-.3.21-.59.58-.89.37-.3.7-.44 1.01-.43.31 0 .57.12.76.36.1.13.18.26.22.4.07.25.02.48-.15.7l.5.6c.27-.26.4-.6.4-.98s-.15-.77-.46-1.14c-.36-.44-.8-.67-1.3-.7-.51-.03-1.01.16-1.5.55-.48.4-.75.83-.8 1.32-.08.47.05.9.38 1.3Zm4.53 1.7.75.37c.22.1.34.21.38.32.05.11.01.28-.1.5l-.15.32a1.94 1.94 0 0 0-.16.52l.8.4.04-.09a.32.32 0 0 1-.04-.26l.15-.33.11-.23c.12-.24.18-.44.17-.59 0-.15-.08-.3-.2-.44.22.03.41-.01.58-.13a1.15 1.15 0 0 0 .48-.82c0-.12 0-.25-.04-.37a.96.96 0 0 0-.21-.4c-.1-.13-.28-.25-.52-.37l-1.7-.84-1.72 3.44.71.35.67-1.35Zm1.92-.32c-.1.2-.24.29-.41.28-.1 0-.24-.04-.4-.12l-.82-.4.46-.93.84.41c.16.08.27.16.33.24.1.14.1.3 0 .52Zm3.17-.38-.8-.16-.73 3.78.8.15.73-3.77Zm3.33 3.16c-.12.06-.27.1-.46.11-.31.04-.55-.01-.7-.16a.8.8 0 0 1-.18-.37l-.77.09c.05.4.22.69.54.88.31.2.72.27 1.22.21a1.7 1.7 0 0 0 1.1-.47c.24-.26.34-.57.3-.92a.94.94 0 0 0-.43-.74c-.16-.1-.4-.16-.69-.2l-.68-.08a2.3 2.3 0 0 1-.52-.1.33.33 0 0 1-.22-.3.4.4 0 0 1 .15-.36c.11-.1.27-.16.48-.18.19-.02.35 0 .48.04.2.08.32.23.36.46l.77-.09c-.06-.4-.25-.7-.56-.88a1.7 1.7 0 0 0-1.07-.2c-.49.06-.84.21-1.07.46a1.1 1.1 0 0 0-.27.9c.04.37.2.64.48.78.16.09.45.16.86.2l.42.05c.24.02.42.06.54.12.12.05.19.14.2.27.03.22-.07.38-.28.48Zm3.2-2.02 1.7-.82-.3-.6-1.68.82-.36-.74 1.84-.88-.3-.62-2.55 1.23 1.68 3.46 2.64-1.27-.3-.62-1.93.93-.43-.9Zm5.58-1.84c.31-.32.48-.68.49-1.07 0-.38-.12-.75-.37-1.09l-.56.57c.1.18.17.33.18.46.03.23-.05.45-.25.65-.19.2-.43.29-.7.27-.29-.02-.58-.18-.9-.48-.3-.3-.49-.6-.54-.88a.8.8 0 0 1 .23-.74c.2-.2.4-.3.63-.3.13.01.27.06.44.15l.56-.57a1.4 1.4 0 0 0-.7-.31c-.52-.08-1 .11-1.45.58-.34.34-.5.74-.5 1.19.02.5.27 1 .75 1.46.45.43.92.66 1.4.68.47.02.9-.17 1.3-.57Zm1.97-3.67c.39-.16.69-.49.9-1 .2-.5.23-.95.06-1.33-.2-.5-.61-.88-1.26-1.14-.65-.27-1.22-.3-1.7-.07-.38.16-.68.5-.9 1-.2.5-.23.95-.06 1.33.18.5.6.88 1.26 1.15.64.26 1.2.28 1.7.06Zm-.6-2.73c.4.16.68.38.82.64.15.26.16.54.04.83a.93.93 0 0 1-.62.57c-.29.09-.64.05-1.04-.11-.4-.17-.68-.38-.82-.65a.92.92 0 0 1-.04-.83c.12-.3.33-.49.62-.57.29-.08.64-.04 1.04.12Z" fill="url(#g)"/><defs><linearGradient id="a" x1="37.5" y1="7" x2="37.5" y2="28" gradientUnits="userSpaceOnUse"><stop stop-color="#FDB818"/><stop offset="1" stop-color="#F48320"/></linearGradient><linearGradient id="b" x1="40.99" y1="17.26" x2="40.99" y2="26.31" gradientUnits="userSpaceOnUse"><stop stop-color="#F3EB2C"/><stop offset="1" stop-color="#F7CA3B"/></linearGradient><linearGradient id="c" x1="38.82" y1="11.43" x2="38.82" y2="22.53" gradientUnits="userSpaceOnUse"><stop stop-color="#F3EB2C"/><stop offset="1" stop-color="#F7CA3B"/></linearGradient><linearGradient id="d" x1="34.03" y1="17.22" x2="34.03" y2="26.57" gradientUnits="userSpaceOnUse"><stop stop-color="#F3EB2C"/><stop offset="1" stop-color="#F7CA3B"/></linearGradient><linearGradient id="e" x1="30.19" y1="25" x2="22" y2="32.53" gradientUnits="userSpaceOnUse"><stop stop-color="#F7921F"/><stop offset="1" stop-color="#FEC015"/></linearGradient><linearGradient id="f" x1="27" y1="11" x2="27" y2="45" gradientUnits="userSpaceOnUse"><stop stop-color="#FAAE43"/><stop offset="1" stop-color="#F2632E"/></linearGradient><linearGradient id="g" x1="34.95" y1="18.35" x2="19.19" y2="41.06" gradientUnits="userSpaceOnUse"><stop stop-color="#F6901F"/><stop offset="1" stop-color="#FEBA17"/></linearGradient></defs></svg>