<!-- by TradingView --><svg width="56" height="56" viewBox="0 0 56 56" xmlns="http://www.w3.org/2000/svg"><path fill="#F0F3FA" d="M0 0h56v56H0z"/><path d="m33.5 22 2 6H42l-5.25 3.89 2 6.11-5.25-3.78L28.25 38l2-6.11L25 28h6.5l2-6Z" fill="#E29238"/><path d="m32.42 44.42-2.03-.03H28.2l-.01-.04-5.13-.08a17.02 17.02 0 0 0 9.36.15Zm-10.83-.67 6.31-.11-.6-1.55-9.03-.15c1.03.72 2.14 1.33 3.32 1.8Zm-4.06-2.36 9.43-.17-.77-1.95-11.08-.19a17.1 17.1 0 0 0 2.42 2.3Zm-2.86-2.84c-.4-.52-.79-1.06-1.14-1.62l11.82.2.48 1.23-11.16.2Zm-1.46-2.16 11.77-.2-.82-2.07-12.1-.2c.32.85.7 1.68 1.15 2.47Zm-1.33-2.98 11.92-.2-.83-2.11-11.72-.2c.14.86.36 1.7.63 2.5Zm-.7-2.99 11.45-.2-.45-1.14-11.16-.18c.03.51.08 1.02.15 1.52ZM11 28.45l.08-.03 10.76-.18-.9-2.3-9.8-.16a17.14 17.14 0 0 0-.14 2.67Zm.24-3.36 9.3-.17-.63-1.6-8.23-.14c-.18.62-.33 1.26-.44 1.91Zm.61-2.44 7.73-.17-.8-2-5.98-.12c-.37.73-.69 1.5-.95 2.29Zm1.27-2.9 5.34-.1-.7-1.8-3.35-.07a17 17 0 0 0-1.29 1.97Zm1.8-2.62 25.73-.5c-.29-.32-.58-.63-.9-.92l-22.94-.51c-.68.59-1.3 1.23-1.88 1.93Zm2.8-2.68 20.03-.38c-.51-.36-1.05-.7-1.6-1l-15.62-.35c-1 .5-1.93 1.07-2.8 1.73Zm5.58-2.8 8.77-.16a17.07 17.07 0 0 0-8.77.17Zm18.74 6.75-10.94-.25 1.9 1.22 9.55-.19-.5-.78Zm1.46 2.57-8.27-.17 2.03 1.3 6.65-.13c-.13-.34-.26-.67-.41-1Zm.98 2.8-4.76-.08 1.33.85 3.6-.06c-.05-.24-.1-.47-.17-.7Zm.46 2.6.05.7-1.12-.71 1.07.01Z" fill="#007185"/></svg>