<!-- by TradingView --><svg width="56" height="56" viewBox="0 0 56 56" xmlns="http://www.w3.org/2000/svg"><path fill="#F0F3FA" d="M0 0h56v56H0z"/><path d="m28 26 3 5h-6l3-5Z" fill="url(#a)"/><path d="m37 33 2 3H22.82A3.28 3.28 0 0 1 20 31.09L28 17l8 14h-2.74L28 22.5l-5.38 9.13a.91.91 0 0 0 .8 1.37H37Z" fill="url(#b)"/><path d="m28 8 1.59 2.7-10.55 18.57c-1.54 4.01-.01 7.42 3.71 8.73H26l-1.55 3H9L28 8Zm-9.6 30a5.41 5.41 0 0 1-1.9-4L14 38h4.4Z" fill="url(#c)"/><path d="m28.5 15 1.84-3L47 41H27l1.52-3H41.5l-13-23Z" fill="url(#d)"/><defs><linearGradient id="a" x1="31" y1="28.5" x2="26.22" y2="28.54" gradientUnits="userSpaceOnUse"><stop offset=".15" stop-color="#6A1113"/><stop offset="1" stop-color="#C72328"/></linearGradient><linearGradient id="b" x1="39" y1="26.5" x2="23.51" y2="26.6" gradientUnits="userSpaceOnUse"><stop offset=".15" stop-color="#6A1113"/><stop offset="1" stop-color="#C72328"/></linearGradient><linearGradient id="c" x1="29.34" y1="24.5" x2="13.14" y2="24.56" gradientUnits="userSpaceOnUse"><stop offset=".15" stop-color="#6A1113"/><stop offset="1" stop-color="#C72328"/></linearGradient><linearGradient id="d" x1="47" y1="26.65" x2="31.45" y2="26.72" gradientUnits="userSpaceOnUse"><stop offset=".15" stop-color="#6A1113"/><stop offset="1" stop-color="#C72328"/></linearGradient></defs></svg>