<!-- by TradingView --><svg width="56" height="56" viewBox="0 0 56 56" xmlns="http://www.w3.org/2000/svg"><path fill="#F0F3FA" d="M0 0h56v56H0z"/><path fill="#009C00" d="M8 35h39v2H8zM11 34.56 35.21 19l.29.44L11.29 35l-.29-.44Z"/><path d="m37.83 27-5.77-7.8.17-.13 5.77 7.8-.17.13Z" fill="#FE0000"/><path d="M11.95 34.15 32.15 19l.13.17-20.2 15.15-.13-.17Z" fill="#009C00"/><path d="m11.66 34 22.05-15 .18.26-22.05 15-.18-.26Z" fill="#009C00"/><path d="m39.2 27-5.66-7.7.26-.19 5.66 7.7-.25.19ZM41 26.98l-6.04-7.52.38-.28 6.04 7.52-.38.28ZM36 27.14h-.59a.72.72 0 0 0-.03-.19.43.43 0 0 0-.07-.14.3.3 0 0 0-.12-.09.33.33 0 0 0-.14-.03c-.1 0-.18.03-.25.1a.62.62 0 0 0-.15.28c-.04.12-.05.26-.05.43 0 .18.01.33.05.45.03.12.08.2.15.27.07.06.15.09.24.09.06 0 .1 0 .15-.03a.32.32 0 0 0 .1-.08.42.42 0 0 0 .08-.13c.02-.05.04-.1.04-.16H36a1.41 1.41 0 0 1-.26.73c-.08.11-.18.2-.3.26a.83.83 0 0 1-.41.1.86.86 0 0 1-.53-.17 1.15 1.15 0 0 1-.37-.51 2.2 2.2 0 0 1-.13-.82c0-.33.05-.6.14-.82.09-.22.21-.4.37-.5a.9.9 0 0 1 .9-.1c.1.05.2.12.29.22.08.1.15.21.2.35.06.14.09.3.1.49Z" fill="#FE0000"/><path d="M31 26h.88l.6 1.7h.04l.6-1.7H34v3h-.7v-1.73h-.01l-.58 1.7h-.42l-.58-1.72h-.02V29H31v-3ZM28.85 29H28l.96-3h1.08l.96 3h-.85l-.64-2.17h-.02L28.85 29Zm-.16-1.18h1.6v.6h-1.6v-.6ZM26 29v-3h2v.66h-1.25v.51h1.15v.66h-1.15v.51H28V29H26Z" fill="#FE0000"/><path d="M9 37H5l29.91-24L50 37h-3L34.34 16.55 9 37Z" fill="#FE0000"/><path fill="#009C00" d="M19 32h22v1H19z"/></svg>