<!-- by TradingView --><svg width="56" height="56" viewBox="0 0 56 56" xmlns="http://www.w3.org/2000/svg"><path fill="#F0F3FA" d="M0 0h56v56H0z"/><path d="M7 20.23c0-.68.54-1.23 1.2-1.23h39.6c.66 0 1.2.55 1.2 1.23V29H7v-8.77Z" fill="#FEDC4E"/><path d="M7 35.74c0 .7.54 1.26 1.2 1.26h39.6c.66 0 1.2-.56 1.2-1.26V29H7v6.74Z" fill="#DA2128"/><path d="M34 31h1.5v.33c.24-.2.69-.33 1-.33.61 0 1 .49 1 1.03v1.8c0 .56-.34 1.17-1 1.17-.3 0-.75-.08-1-.23v.08c0 .18.03.34.15.48V36H34v-5Zm1.5 2.59a.4.4 0 0 0 .2.05c.1 0 .3-.07.3-.34v-.87c0-.23-.2-.3-.3-.3a.47.47 0 0 0-.2.05v1.4ZM31 35v-.29c-.28.22-.73.29-1.01.29-.7 0-.99-.53-.99-1v-3h1.5v2.37c0 .14.01.24.04.31s.15.1.23.1c.13 0 .2-.02.23-.04V31h1.5v2.42c0 .19 0 .37.11.53V35H31ZM26.7 32.31c0-.18-.06-.31-.2-.31-.12 0-.2.11-.2.3v1.4c0 .16.05.3.2.3.13 0 .2-.1.2-.31V32.3Zm-1.7.02c0-1 .54-1.33 1.5-1.33.94 0 1.5.34 1.5 1.33v1.34c0 1-.56 1.33-1.5 1.33-.95 0-1.5-.34-1.5-1.33v-1.34ZM22 31.02h1.44v.39c.1-.23.3-.41.56-.41v1.56c-.37 0-.5.28-.5.62v.31c0 .19 0 .37.13.52V35H22v-3.98ZM21 31.5h-1.67v-.07c0-.31-.13-.43-.29-.43-.19 0-.29.15-.29.38v2.2c0 .29.06.42.3.42.25 0 .3-.19.3-.48v-.29H19v-.73h2v1.94c-.45.38-1.07.56-2 .56-.95 0-2-.27-2-1.39v-2.26c0-1.06 1.05-1.35 1.93-1.35.83 0 1.54.22 2.07.64v.86Z" fill="#FEDC4E"/><path d="M42 27.45c0-.21.07-.37.21-.48a.36.36 0 0 0 .1-.09c.05-.08.16-.37.19-.87v-2.45c0-.39-.03-1.09-.17-1.28-.14-.2-.33-.36-.33-.62 0-.44.32-.65.88-.65.32 0 .6.08.67.16.05.06.16.35.33.88l.3 1.03c.17.56.3.84.37.84.08 0 .19-.26.32-.77.13-.48.24-.88.35-1.2.1-.34.22-.59.36-.73.13-.15.33-.22.61-.22.6 0 .81.19.81.65 0 .16-.05.3-.15.4l-.05.05c-.06.1-.1.3-.14.64l-.02 1.6v1.67c.02.44.06.68.1.74 0 .02.03.04.07.08.12.13.18.3.18.52 0 .58-.55.65-1.02.65-.5 0-.97-.08-.97-.67 0-.19.05-.33.16-.45a.57.57 0 0 0 .08-.1c.04-.09.07-.23.08-.43.02-.2-.01-.56-.01-1.07 0-.14-.01-.25-.03-.31-.02-.07-.05-.1-.1-.1-.06 0-.14.18-.23.56l-.27 1.14c-.2.83-.35 1.25-.45 1.25-.09 0-.24-.41-.45-1.23l-.27-1.13c-.1-.46-.18-.69-.24-.69-.04 0-.08.08-.1.22a13.78 13.78 0 0 0 .01 1.75c.02.1.06.17.11.22.15.13.23.28.23.48 0 .4-.2.56-.76.56-.54 0-.76-.16-.76-.55ZM32.53 24.74v-1.68c-.03-.36-.09-.6-.14-.72-.12-.25-.39-.3-.39-.62 0-.6.58-.72 1.06-.72.12 0 .22 0 .28.02.16.03.27.15.36.27.3.37.52.8.78 1.19.59.9.94 1.36 1.04 1.36.05 0 .08-.04.1-.11.08-.26.04-.57.04-.84 0-.18.01-.38-.05-.56a.46.46 0 0 0-.17-.24.55.55 0 0 1-.2-.46c0-.56.44-.63.9-.63.44 0 .86.08.86.6 0 .37-.3.45-.4.77-.12.46-.1 1.13-.1 1.49v1.31c0 .47.02.93 0 1.4-.01.38-.03.9-.2 1.25-.06.12-.14.18-.23.18s-.2-.09-.36-.27c-.55-.65-.99-1.41-1.44-2.13-.37-.58-.59-.87-.66-.87-.07 0-.12.07-.15.2a6.8 6.8 0 0 0 0 1.42c.02.2.05.33.08.38.12.2.46.3.46.58 0 .45-.43.68-1 .68-.61 0-1-.21-1-.65 0-.26.28-.39.4-.59.06-.08.1-.27.13-.55v-1.46ZM22 27.29c0-.27.13-.39.32-.54.1-.07.18-.45.18-1.75v-2.2c-.02-.34-.1-.54-.14-.6-.16-.16-.32-.23-.32-.5 0-.47.4-.7 1.19-.7.45 0 1.13.03 1.13.63 0 .34-.27.46-.33.76-.02.09-.03.29-.03.6v.27c0 .21.03.34.08.4.06.04.14.07.33.07.29 0 .41-.03.48-.08s.11-.2.11-.43v-.16c0-.22-.01-.41-.04-.57-.02-.15-.05-.25-.09-.3-.14-.17-.21-.27-.21-.52 0-.65.73-.67 1.23-.67.8 0 1.11.19 1.11.64 0 .3-.2.41-.36.61a.84.84 0 0 0-.14.46c-.02.26 0 .83 0 1.7 0 .8-.02 1.37 0 1.73.02.36.1.56.14.61.13.2.3.27.3.56 0 .48-.35.69-1.14.69-.82 0-1.17-.2-1.17-.67 0-.24.1-.43.27-.59.06-.05.08-.15.1-.29v-.98c0-.25-.03-.35-.09-.4-.05-.05-.13-.07-.32-.07-.2 0-.38.03-.47.09-.08.05-.12.18-.12.46v1.18c.15.17.3.31.3.55 0 .48-.37.7-1.2.7-.74 0-1.1-.23-1.1-.7ZM20 25.47v1.07c.07.3.37.4.37.74 0 .5-.34.72-1.12.72-.82 0-1.25-.23-1.25-.75 0-.33.32-.39.42-.64.04-.08.07-.37.08-.86v-2.8c0-.32 0-.73-.27-.9a.5.5 0 0 1-.23-.45c0-.18.05-.31.15-.4.1-.08.24-.13.45-.13.07 0 .15 0 .24.02l.18.01c.44 0 .87-.1 1.31-.1 1.12 0 1.67.7 1.67 2.15 0 1.06-.38 2.35-1.64 2.35l-.36-.03Zm0-1.28c.01.08.03.12.09.12.3 0 .5-.38.5-1.01 0-.7-.18-1.11-.47-1.11-.06 0-.1.05-.12.15v1.85Z" fill="#DA2128"/><path d="M14.39 28c-.27 0-.39-.53-.39-.72 0-.18.07-.34.22-.48l.13-.16c.06-.09.13-.24.15-.45v-3.57c-.01-.2-.04-.34-.22-.43-.18-.08-.27-.24-.27-.47 0-.46.48-.72 1.32-.72.41 0 .73.06.94.17.2.11.31.28.31.5 0 .2-.08.36-.24.48-.16.1-.3.22-.31.42 0 .93-.03 1.93-.03 3.2 0 .44-.05.9.5.9.23 0 .4-.05.51-.14.12-.1.2-.25.26-.48l.04-.17c.07-.28.15-.42.27-.42.34 0 .42.52.42.76 0 .48-.1 1.43-.48 1.78h-3.13ZM10.77 25h.9c-.1-.44-.2-.74-.28-.96-.08-.23-.15-.34-.19-.34-.04 0-.1.1-.15.28-.06.18-.16.5-.28 1.02ZM9 27.4c0-.22.09-.38.27-.48a.8.8 0 0 0 .07-.04c.12-.08.3-.56.53-1.45l.35-1.33c.34-1.26.53-2.1.57-2.5.02-.24.07-.4.14-.48.07-.08.19-.12.35-.12.18 0 .33.04.44.12.12.08.23.21.32.4.11.2.23.53.38.99.32 1 .59 2.02.84 3.05.18.7.3 1.12.4 1.22a.5.5 0 0 0 .08.06c.17.1.26.25.26.44 0 .25-.1.43-.28.54-.2.11-.5.17-.91.17-.47 0-.8-.04-.98-.14-.19-.09-.28-.24-.28-.47 0-.1.02-.18.05-.25a.36.36 0 0 1 .13-.16c.08-.06.13-.1.15-.14a.28.28 0 0 0 .04-.15c0-.14-.07-.24-.2-.3-.14-.05-.36-.08-.68-.08-.24 0-.41.02-.5.08-.1.06-.14.16-.14.3 0 .09.01.15.04.19.03.04.08.07.16.1.06.02.1.07.13.14.04.07.05.16.05.27 0 .21-.07.37-.22.47-.15.1-.38.15-.7.15-.28 0-.5-.05-.64-.15-.15-.1-.22-.25-.22-.46ZM28.77 25h.9c-.1-.44-.2-.74-.28-.96-.08-.23-.15-.34-.19-.34-.04 0-.1.1-.15.28-.06.18-.16.5-.28 1.02ZM27 27.4c0-.22.09-.38.27-.48a.81.81 0 0 0 .07-.04c.12-.08.3-.56.53-1.45l.35-1.33c.34-1.26.53-2.1.57-2.5.02-.24.07-.4.14-.48.07-.08.19-.12.35-.12.18 0 .33.04.44.12.12.08.23.21.32.4.11.2.23.53.38.99.32 1 .59 2.02.84 3.05.18.7.3 1.12.4 1.22a.5.5 0 0 0 .08.06c.17.1.26.25.26.44 0 .25-.1.43-.28.54-.2.11-.5.17-.91.17-.47 0-.8-.04-.98-.14-.19-.09-.28-.24-.28-.47 0-.1.02-.18.05-.25a.36.36 0 0 1 .13-.16c.08-.06.13-.1.15-.14a.28.28 0 0 0 .04-.15c0-.14-.07-.24-.2-.3-.14-.05-.36-.08-.68-.08-.24 0-.41.02-.5.08-.1.06-.14.16-.14.3 0 .09.01.15.04.19.03.04.08.07.16.1.06.02.1.07.13.14.04.07.05.16.05.27 0 .21-.07.37-.22.47-.15.1-.38.15-.7.15-.28 0-.5-.05-.64-.15-.15-.1-.22-.25-.22-.46ZM38.77 25h.9c-.1-.44-.2-.74-.28-.96-.08-.23-.15-.34-.19-.34-.04 0-.1.1-.15.28-.06.18-.16.5-.28 1.02ZM37 27.4c0-.22.09-.38.27-.48a.81.81 0 0 0 .07-.04c.12-.08.3-.56.53-1.45l.35-1.33c.34-1.26.53-2.1.57-2.5.02-.24.07-.4.14-.48.07-.08.19-.12.35-.12.18 0 .33.04.44.12.12.08.23.21.32.4.11.2.23.53.38.99.32 1 .59 2.02.84 3.05.18.7.3 1.12.4 1.22a.5.5 0 0 0 .08.06c.17.1.26.25.26.44 0 .25-.1.43-.28.54-.2.11-.5.17-.91.17-.47 0-.8-.04-.98-.14-.19-.09-.28-.24-.28-.47 0-.1.02-.18.05-.25a.36.36 0 0 1 .13-.16c.08-.06.13-.1.15-.14a.28.28 0 0 0 .04-.15c0-.14-.07-.24-.2-.3-.14-.05-.36-.08-.68-.08-.24 0-.41.02-.5.08-.1.06-.14.16-.14.3 0 .09.01.15.04.19.03.04.08.07.16.1.06.02.1.07.13.14.04.07.05.16.05.27 0 .21-.07.37-.22.47-.15.1-.38.15-.7.15-.28 0-.5-.05-.64-.15-.15-.1-.22-.25-.22-.46Z" fill="#DA2128"/></svg>