<!-- by TradingView --><svg width="56" height="56" viewBox="0 0 56 56" xmlns="http://www.w3.org/2000/svg"><path fill="#F0F3FA" d="M0 0h56v56H0z"/><path d="M20 24c.25-1.44.74-2.79 1.22-4h13.56c.48 1.21.97 2.56 1.22 4H20ZM19 25H8a12.8 12.8 0 0 1 3.2-5h9.19c-.58 1.5-1.17 3.2-1.39 5ZM12.3 19h8.5c.98-2.17 2.3-3.97 3.84-5a23.7 23.7 0 0 0-12.34 5ZM26.88 14.02a29.7 29.7 0 0 1 2.24 0c2.49.6 4.17 2.77 5.22 4.98H21.66c1.05-2.21 2.73-4.38 5.22-4.98ZM31.36 14a23.7 23.7 0 0 1 12.34 5h-8.5c-.98-2.17-2.3-3.97-3.84-5ZM44.8 20H35.6c.58 1.5 1.17 3.2 1.39 5h11a12.8 12.8 0 0 0-3.2-5Z" fill="#0094DC"/><path d="M20 32c.25 1.44.74 2.79 1.22 4h13.56c.48-1.21.97-2.56 1.22-4H20ZM19 31H8a12.8 12.8 0 0 0 3.2 5h9.19c-.58-1.5-1.17-3.2-1.39-5ZM12.3 37h8.5c.98 2.17 2.3 3.97 3.84 5a23.7 23.7 0 0 1-12.34-5ZM26.88 42h2.24c2.49-.6 4.17-2.8 5.22-5H21.66c1.05 2.2 2.73 4.4 5.22 5ZM31.36 42a23.7 23.7 0 0 0 12.34-5h-8.5c-.98 2.17-2.3 3.97-3.84 5ZM44.8 36H35.6c.58-1.5 1.17-3.2 1.39-5h11a12.8 12.8 0 0 1-3.2 5Z" fill="#00923F"/><path d="M31 26h1v4h-1v-4Zm2 0h1v4h-1v-1.5h-1v-1h1V26ZM27 30v-4h1.5a1.5 1.5 0 0 1 0 3H28v1h-1Zm1.5-3H28v1h.5a.5.5 0 0 0 0-1Z" fill="#DB2218"/><path fill-rule="evenodd" d="M13 26v4h1v-1h.02l.66 1H16l-.78-1.18A1.5 1.5 0 0 0 14.5 26H13Zm1.5 2a.5.5 0 0 0 0-1H14v1h.5ZM46 30a2 2 0 1 0 0-4 2 2 0 0 0 0 4Zm0-1a1 1 0 1 0 0-2 1 1 0 0 0 0 2Z" fill="#DB2218"/><path d="M43.64 29.15a2 2 0 1 1-.5-2.79l-.57.82a1 1 0 1 0 .25 1.4l.82.57Z" fill="#DB2218"/><path fill-rule="evenodd" d="M9.23 26 8 30h1.2l.36-.47h.88l.36.47H12l-1.23-4H9.23Zm.99 1.8-.22-.78-.22.79h-.7l.57.48-.22.78.57-.48.57.48-.22-.78.57-.48h-.7ZM36.23 26 35 30h1.2l.36-.47h.88l.36.47H39l-1.23-4h-1.54Zm.99 1.8-.22-.78-.22.79h-.7l.57.48-.22.78.57-.48.57.48-.22-.78.57-.48h-.7Z" fill="#DB2218"/><path d="M17.75 26 17 30h1.33l.34-2 .33 2h1l.33-2 .34 2H22l-.75-4h-1.42l-.33 2-.33-2h-1.42ZM24 26h-1v4h3v-1h-2v-.5h2v-1h-2V27h2v-1h-2Z" fill="#DB2218"/></svg>