<!-- by TradingView --><svg width="56" height="56" viewBox="0 0 56 56" xmlns="http://www.w3.org/2000/svg"><path fill="#F0F3FA" d="M0 0h56v56H0z"/><path d="M19.8 24 18 32h2.61l.7-3.08.24 3.08h2.09l1.64-3.08-.7 3.08h2.61L29 24h-3.55l-1.74 3.08-.35-3.08h-3.55ZM29.9 24 28 32h7.1l.52-2h-3.98l.15-1h3l.51-1.99h-3.17l.2-1.01h4.15l.52-2h-7.1ZM43.6 29c-.81 1.78-2.67 3-4.52 3-2.15 0-3.48-1.8-2.97-4 .5-2.2 2.66-4 4.81-4 1.86 0 3.1 1.22 3.08 3h-2.38c-.06-.74-.44-1-1.02-1-.8 0-1.66.82-1.93 2-.27 1.18.15 2 .95 2 .58 0 1.2-.26 1.6-1h2.37ZM51.6 29c-.81 1.78-2.67 3-4.52 3-2.15 0-3.48-1.8-2.97-4 .5-2.2 2.66-4 4.81-4 1.86 0 3.1 1.22 3.08 3h-2.38c-.06-.74-.44-1-1.02-1-.8 0-1.66.82-1.93 2-.27 1.18.15 2 .95 2 .58 0 1.2-.26 1.6-1h2.37ZM7.16 33H51l-.16 1H7l.16-1Z" fill="#194898"/><path d="m20 20-2.93 12h-3.44l.87-3h-2.72l-4.34 5H4l6.64-7.4h3.44l-.36.4h1.2l.42-1.8-.73.8h-3.44l5.39-6H20Z" fill="#194898"/></svg>