<!-- by TradingView --><svg width="56" height="56" viewBox="0 0 56 56" xmlns="http://www.w3.org/2000/svg"><path fill="#F0F3FA" d="M0 0h56v56H0z"/><path d="M22 19.74c0-2.64-1-4.93-1.5-5.74.39 1.32.52 3.83.52 5.54 0 1.72-.52 3.63-1.57 5.29a66.1 66.1 0 0 1-3.79 4.95c.35-.75 1.26-2.62 2.1-4.1A8.14 8.14 0 0 0 19 21.92c0-.47-.14-.86-.2-.99h-.2c.26 1.19 0 2.38-.65 3.76-.65 1.39-2.09 4.16-3.2 6.2-.89 1.64-.8 2.76-.65 3.11-.07-1.12.65-2.57 2.41-4.36 3.53-3.5 5.49-6.6 5.49-9.9Z" fill="#03A870"/><path d="M15.97 15.5a4.35 4.35 0 0 1-1.89-4.5c0 1.7.91 2.41 1.7 2.93.78.53 2.08 1.37 2.92 2.29A4.43 4.43 0 0 1 19.94 20a3.96 3.96 0 0 0-1.89-3.13c-.45-.2-1.1-.72-2.08-1.37Z" fill="#03A870"/><path d="M16 25a7.04 7.04 0 0 0-2.42.44l.28.75c-.67.24-1.29.6-1.82 1.05l-.52-.62a7 7 0 0 0-1.74 2.17l.71.36a6.14 6.14 0 0 0-.63 2l-.8-.1a6.98 6.98 0 0 0 .18 2.76l.77-.2c.19.69.49 1.33.88 1.9l-.66.45a7 7 0 0 0 2 1.93l.43-.67a6.2 6.2 0 0 0 1.94.82l-.18.78a7.03 7.03 0 0 0 2.78.08l-.13-.79c.7-.12 1.37-.36 1.98-.7l.39.7a7.02 7.02 0 0 0 2.11-1.8l-.63-.5c.34-.43.63-.91.84-1.43l.67.28A6.99 6.99 0 0 0 23 32h-2.5a4.47 4.47 0 1 1-4.5-4.47V25Z" fill="#583883"/><path d="M15.27 17.27a.96.96 0 0 1-.58.46 5.3 5.3 0 0 1-1.66.22c-.17 0-.3-.08-.45-.08a.06.06 0 0 1-.05-.04.06.06 0 0 1 0-.05c.2-.25.3-.45.65-.56.72-.22 1.42-.36 2.08 0 .02.01.03.03.01.05ZM16.87 17.38c.27.14.64.38.75.68a13.89 13.89 0 0 1 .16.53h-.01l-.02.01c-.52 0-.9-.17-1.35-.42a2.61 2.61 0 0 1-1.07-.93.04.04 0 0 1 .02-.03l.01-.01.52-.11c.33-.06.72.13 1 .28ZM13.99 18.02c.28-.07.56-.16.86-.17.16-.01.46.04.88.16a2.21 2.21 0 0 1 1.16.73.09.09 0 0 1-.02.07l-.03.03c-.23.13-.47.17-.73.14a3.77 3.77 0 0 1-2.16-.89v-.03l.01-.03.03-.01ZM11.96 18.96a2.3 2.3 0 0 1-1.37.6l-.02-.03c-.05-.27 0-.5.18-.69.3-.33.65-.58 1.04-.77a1.41 1.41 0 0 1 .82-.12.09.09 0 0 1 .05.1c-.06.41-.32.6-.7.91ZM12.17 18.85c.29-.26.6-.46.96-.6.27-.1.46-.1.73-.1.06 0 .08.04.07.09-.1.64-.55.85-1.07 1.15-.36.21-.6.28-.99.28l-.02-.01-.01-.03c-.05-.4.04-.51.33-.78ZM17.29 18.65c.34.03.48.13.77.35l.36.28a1.67 1.67 0 0 1 .57 1.33.03.03 0 0 1-.02 0c-.21-.01-.39-.06-.52-.13-.42-.24-.82-.6-1.19-1.07a.97.97 0 0 1-.21-.77c0-.02.02-.04.05-.03.05.01.13.04.19.04ZM10.4 21.6c-.16.07-.18.18-.26.37-.01.04-.02.04-.03 0v-.23a.7.7 0 0 0-.07-.35c-.2-.47.44-1.3.76-1.62a.64.64 0 0 1 .32-.15.82.82 0 0 0 .43-.27h.02v.03c-.06.1-.1.2-.1.33.01.28.03.42-.13.74-.19.39-.47.93-.93 1.14Z" fill="#F7BF12"/><path fill-rule="evenodd" d="m23 24-6 7h6v-7Zm-1 2.5L19 30h3v-3.5Z" fill="#03A870"/><path d="M25 30v-1.39L27 31h1v-4h-1v2.39L25 27h-1v3h-1v1h2v-1ZM31 27v4h-1v-4h1ZM39.9 28h-2.4c-.05 0-.1.04-.1.09 0 .03.03.06.06.08l1.35.62c.42.2.68.6.68 1.05 0 .64-.54 1.16-1.2 1.16H33v-1h5.37c.04 0 .08-.03.08-.08a.08.08 0 0 0-.05-.07l-1.36-.64c-.41-.2-.68-.6-.68-1.05 0-.64.55-1.16 1.22-1.16H41c-.7.33-.99.56-1.1 1ZM33 27v4h-1v-4h1Z" fill="#03A870"/><path d="M34.68 29.5H33v-1h2l-.32 1ZM28 27h9c-.54.33-.74.56-.8 1H28v-1Z" fill="#03A870"/><path fill-rule="evenodd" d="M46 27a2 2 0 1 0 0 4h1a2 2 0 1 0 0-4h-1Zm0 1a1 1 0 1 0 0 2h1a1 1 0 1 0 0-2h-1Z" fill="#03A870"/><path d="M43.85 30H42a1 1 0 1 1 0-2h1.85c.17-.4.45-.74.79-1H42a2 2 0 1 0 0 4h2.64a2.5 2.5 0 0 1-.8-1Z" fill="#03A870"/></svg>