<!-- by TradingView --><svg width="56" height="56" fill="none" xmlns="http://www.w3.org/2000/svg"><path fill="#F0F3FA" d="M0 0h56v56H0z"/><ellipse cx="27.015" cy="31" rx="14.972" ry="15" fill="url(#a)"/><path fill-rule="evenodd" clip-rule="evenodd" d="M22.284 32.543c0-.364.007-.739.019-1.12-1.844-.033-3.596-.09-5.184-.161-.016.43-.025.875-.025 1.336 0 1.322.12 2.54.323 3.652 1.5.09 3.167.165 4.93.21-.047-1.2-.063-2.502-.063-3.917Zm-5.019 3.698a106.946 106.946 0 0 1-4.153-.329l-.014.15c1.13.114 2.56.232 4.195.331a17.237 17.237 0 0 0 1.55 4.615 79.614 79.614 0 0 1-3.112-.272l-.015.15c.873.095 1.964.194 3.208.278.912 1.743 1.948 2.901 2.662 3.454l.09-.12c-.686-.53-1.687-1.644-2.578-3.322 1.141.076 2.405.141 3.742.183.322 1.652.82 3.036 1.586 4.227l.124-.082c-.748-1.164-1.24-2.519-1.558-4.14a102.347 102.347 0 0 0 5.032.028c-.171 1.883-.371 3.384-.544 4.382l.145.026c.174-1.004.376-2.516.548-4.411 1.643-.037 3.3-.122 4.902-.271-.783 2.19-1.713 3.576-2.33 4.181l.103.108c.642-.63 1.595-2.057 2.39-4.305a43.037 43.037 0 0 0 3.801-.524c-.194.31-.375.551-.527.72l.109.101a5.62 5.62 0 0 0 .616-.859c.57-.11 1.121-.234 1.648-.37l-.036-.147c-.484.126-.989.24-1.51.344.575-1.008 1.215-2.57 1.575-4.639a36.276 36.276 0 0 0 2.306-.47l-.034-.147c-.715.172-1.466.325-2.245.46.162-.982.26-2.075.26-3.275 0-.522-.02-1.042-.057-1.556A49.7 49.7 0 0 0 42 30.297l-.027-.148c-.897.168-1.849.314-2.84.44a27.287 27.287 0 0 0-.848-4.827c.86-.057 1.686-.123 2.468-.198l-.014-.15c-.79.076-1.625.142-2.494.2-.597-2.195-1.34-3.965-1.83-4.901l-.13.07c.482.924 1.217 2.673 1.809 4.841-1.264.082-2.598.147-3.97.197-.8-4.064-2.287-6.407-3.17-7.213l-.099.112c.852.778 2.323 3.082 3.119 7.106-1.823.065-3.71.103-5.587.122a93.105 93.105 0 0 0-.32-3.891l-.148.016c.136 1.31.241 2.605.32 3.876-1.81.017-3.61.016-5.328.002.396-3.19.95-6.18 1.299-7.792l-.145-.033a96.081 96.081 0 0 0-1.303 7.824 350.015 350.015 0 0 1-4.905-.076c.085-.324.173-.628.265-.914.57-1.779 1.253-2.815 1.698-3.223l-.1-.112c-.471.433-1.164 1.498-1.739 3.288-.096.3-.188.618-.276.958a268.457 268.457 0 0 1-4.597-.142l-.006.15c1.211.05 2.774.1 4.565.142-.34 1.36-.602 3.046-.69 5.083-1.896-.086-3.552-.19-4.84-.292l-.01.15c1.288.102 2.945.207 4.844.293-.016.432-.025.88-.025 1.343 0 1.316.118 2.531.319 3.643Zm20.869-10.469c-1.267.083-2.605.148-3.981.198.278 1.462.468 3.14.51 5.047a78.65 78.65 0 0 0 4.322-.41 27.158 27.158 0 0 0-.851-4.835Zm.863 4.986c-1.38.172-2.835.306-4.33.41.003.217.005.438.005.662 0 1.576-.102 3.016-.276 4.321a56.555 56.555 0 0 0 4.39-.554c.166-.986.267-2.088.267-3.3 0-.516-.02-1.03-.056-1.539Zm-.238 4.997a57.024 57.024 0 0 1-4.384.549c-.251 1.81-.64 3.355-1.083 4.642a42.26 42.26 0 0 0 3.853-.541c.576-.976 1.24-2.542 1.614-4.65Zm-4.535.562c-.255 1.817-.649 3.364-1.094 4.644a70.08 70.08 0 0 1-4.943.277c.121-1.361.227-2.915.298-4.617a91.443 91.443 0 0 0 5.739-.304Zm.3-4.487c0 1.584-.104 3.028-.28 4.334a91.08 91.08 0 0 1-5.753.306c.063-1.57.096-3.264.082-5.047 1.996-.037 4.003-.115 5.945-.246.004.215.006.433.006.653Zm-.521-5.854c.28 1.459.47 3.14.512 5.05-1.94.131-3.948.209-5.943.247a101.9 101.9 0 0 0-.176-5.175c1.884-.019 3.778-.057 5.607-.122ZM17.126 31.11c1.587.07 3.34.128 5.182.16.06-1.653.223-3.439.435-5.17-1.75-.015-3.416-.043-4.924-.077-.342 1.356-.606 3.042-.693 5.087Zm1.89 9.909c1.154.078 2.436.144 3.795.188-.25-1.345-.388-2.864-.459-4.598a142.106 142.106 0 0 1-4.906-.207c.35 1.831.928 3.373 1.57 4.617Zm3.416-8.477c0-.364.007-.737.02-1.118 1.921.032 3.94.037 5.973 0 .014 1.785-.02 3.479-.082 5.048-1.995.044-3.974.035-5.848-.01-.047-1.198-.063-2.5-.063-3.92Zm.53 8.67c-.251-1.34-.39-2.859-.461-4.6 1.87.045 3.845.055 5.836.011a97.848 97.848 0 0 1-.299 4.617c-.533.012-1.065.018-1.592.02a102.38 102.38 0 0 1-3.483-.048Zm5.462-9.938c-2.03.037-4.047.032-5.968 0 .06-1.654.224-3.441.436-5.173 1.728.013 3.536.015 5.356-.003.107 1.784.161 3.518.176 5.176Z" fill="#45458D"/><path fill-rule="evenodd" clip-rule="evenodd" d="M22.67 16.82c-5.74 1.223-8.796 6.415-9.606 8.859.438-.434 1.344-1.35 1.464-1.54.058-.093.127-.258.2-.431.111-.27.231-.558.333-.62.166-.102.283-.322.45-.678.147-.315.333-.365.707-.465l.16-.044c.308-.087.338.125.363.302.014.1.026.188.086.207.167.05.35.27.417.542.056.23-.273.388-.557.524l-.143.07c-.149.075-.121.21-.09.36.031.154.066.325-.077.47-.176.18-.21.4-.247.638-.023.143-.046.294-.103.447-.12.326.372 1.096.633 1.441-.044.124-.163.448-.283.746-.145.361.147.42.62.516l.047.01c.272.055.4.01.488-.02.074-.027.119-.042.195.02.166.135-.05.39-.283.593-.234.203-.134.356.45.44l.075.012c.53.078.78.115 1.258-.452.38-.452.316-1.652.271-2.49a9.525 9.525 0 0 1-.022-.646c.017-.662.334-.933 1-1.255.406-.196.447-.09.523.102a.878.878 0 0 0 .294.424c.298.228.508-.017.704-.245.11-.128.215-.25.329-.28.12-.033.25-.233.4-.46.24-.37.528-.812.9-.728.375.085.437.341.509.639.042.177.089.369.207.548.173.263.291.254.52.236.191-.015.458-.037.896.086.931.262.316 1.546.03 2.14l-.03.064c-.267.56-.1.932.267 1.662.13.257.209.371.273.463.118.167.184.261.41 1.028.242.823.781 1.084 1.256 1.313.21.101.407.197.56.332.158.14.287.322.41.496.263.375.5.712.956.504.38-.174.284-.353.09-.713-.145-.273-.346-.648-.44-1.203-.18-1.072-.383-1.181-1.281-1.666a27.055 27.055 0 0 1-.635-.351c-1.16-.665-1.094-1.645-.916-2.051.746.556 1.522.356 1.816.186.078.367.433 1.03 1.233.746.8-.285 1.11.492 1.166.916.55-.266 1.65-1.008 1.65-1.848 0-.625-.23-.89-.496-1.199-.182-.21-.382-.44-.537-.819-.275-.67.122-.947.423-1.157.118-.082.221-.155.263-.236.148-.289.382-.238.752.063a.738.738 0 0 1 .275.408c.023.08.037.124.12.119.12-.008.131-.105.15-.267.011-.089.025-.198.06-.323.098-.351.555-.49 1.011-.54.457-.05 1-.527 1.086-1.066.069-.432-.185-.582-.321-.603.054-.142-.038-.235-.207-.403a4.028 4.028 0 0 1-.36-.4c-.37-.477-.16-.627 0-.502.041.033.16.14.32.286.456.413 1.24 1.124 1.505 1.245.286.13-.12-.724-.358-1.167.083.105.407.4 1.049.74.641.342.54-.203.41-.517l-5.336-3.4c-.867-.007-2.811-.05-3.643-.158-.61-.08-1.044-.225-1.39-.34-.244-.082-.443-.149-.63-.168-.24-.024-.432.12-.621.26-.168.125-.333.248-.525.248-.254 0-.415.071-.602.155-.112.05-.235.104-.393.15-.134.04-.246.052-.348.063-.217.025-.39.044-.646.305-.302.307-.735.322-.914.291a.852.852 0 0 0 0-.964Zm-4.11 3.33c-.031.063-.099.246-.112.476-.017.287.242.362.959.08.37-.145.639-.175.857-.2.204-.023.365-.041.526-.144.332-.212.654-.643.547-.712l-.013-.008c-.105-.069-.245-.16-.76-.038-.536.126-.976.069-1.038-.034-.01-.016-.02-.035-.03-.056-.063-.12-.154-.295-.303-.134-.055.06-.093.113-.124.156-.067.096-.103.145-.215.114-.164-.046-.671.098-.293.5Zm3.375-.075c.188.162.629.489.886.494.094.001.213-.005.335-.011.295-.016.615-.033.687.056.048.061.024.128-.002.2-.027.078-.057.162.002.248a.53.53 0 0 0 .159.144c.076.051.142.095.145.207.006.189-.434.706-.705.47a5.604 5.604 0 0 1-.093-.083c-.17-.154-.171-.155-.528-.1-.412.063-.587 0-.79-.442-.162-.354-.132-.936-.096-1.183Zm2.12 9.875c.11.023.695.147.99-.003a2.61 2.61 0 0 0 .129-.072c.287-.167.64-.373 1.052.203.38.533.45 1.102.436 1.32.146.012.445.086.475.274.031.188-.098.418-.167.51.142-.114.44-.273.501 0 .04.174.042.314.044.413.001.093.002.148.033.161.016.007.086-.019.185-.055.297-.107.858-.31 1.022-.036.086.144.272.333.462.526.293.298.596.606.565.78-.051.287-.796.562-1.027.549-.082-.005-.095.092-.111.223-.03.236-.074.584-.57.652-.557.075-.637-.123-.756-.416-.045-.112-.096-.238-.18-.368a.654.654 0 0 0-.415-.306c-.154-.05-.313-.1-.497-.413-.338-.573-.506-.55-.776-.512l-.02.003a.848.848 0 0 0-.282.113c-.14.078-.23.128-.206-.113.038-.379.102-1.123-.103-1.202-.032-.012-.078-.026-.133-.043-.299-.094-.858-.268-.804-.61.043-.275-.032-.327-.169-.422a1.32 1.32 0 0 1-.23-.192c-.269-.287-.256-1.027.54-.967l.012.003Zm6.864 6.034c-.147.36.132.662.29.768.35.127 1.08.387 1.196.411.145.032.061.365-.145.38-.076.006-.205.061-.358.126-.262.112-.596.254-.87.24-.434-.024-1.272-.676-1.524-1.002-.195-.252.027-.346.165-.405.04-.017.073-.03.087-.044.034-.035-.047-.083-.143-.14-.077-.047-.164-.1-.208-.155-.099-.124-.32-.838-.046-1.063.275-.225.915-.48 1.213-.31.297.17.526.745.343 1.194Zm3.704-1.24c-.045-.008-.922-.481-.892-.706.016-.116.267-.258.545-.415.263-.15.55-.311.683-.477.136-.17.242-.496.34-.796.099-.304.189-.58.293-.64.064-.036.127-.124.205-.231.167-.233.4-.557.854-.637.394-.069.32-.187.22-.347-.067-.109-.148-.237-.098-.382.074-.217.151-.498.214-.726.04-.147.075-.272.099-.344.06-.186.709.387.914.79.206.404.519 1.14.526 2.04.001.118.004.228.007.335.02.708.034 1.22-.609 2.225-.74 1.156-1.082 1.513-1.372 1.49-.29-.024-.534-.42-.541-.613-.003-.064-.082-.014-.202.061-.246.154-.662.415-.934.024-.323-.465-.303-.628-.252-.652Zm4.551-1.684c.3-.291.318-.824.29-1.054.17-.905.496-.148.61.372.114.52.008 1.474-.244 1.722l-.104.104c-.233.234-.502.505-.674.485-.198-.023-.312-.085-.335-.349-.023-.264.084-.915.457-1.28Zm-6.216-8.195c-.058.1-.04.366.498.64.674.343.916-.297.916-.55 0-.254-.352-.627-.667-.507-.252.095-.603.317-.747.417Zm5.186.485v-1.8c.784.141.969 1.55.938 2.504-.025.763.205 1.11.323 1.189.015-.031.037-.216 0-.704-.026-.342.026-.262.167-.04.112.175.28.437.51.65.253.235.207.312.15.407-.062.102-.135.224.127.579.375.51.43 1.251.465 1.716.012.163.022.292.042.365.077.281-.323.375-.508.125-.105-.143-.255-.546-.382-.886-.096-.256-.178-.475-.217-.522-.047-.056-.01-.176.03-.312.04-.131.085-.277.062-.392-.027-.139-.3-.277-.574-.415-.19-.097-.38-.193-.487-.29-.135-.12-.033-.158.07-.197.098-.035.196-.072.1-.178-.2-.219-.816-1.142-.816-1.8Zm-25.569 9.652c-.191-.663-.575-2.478-.575-4.429 0-2.438.824-3.355.94-3.335.115.02.23.858-.154 1.716-.383.859-.575 1.97-.21 3.863.29 1.514.12 2.087 0 2.185Zm1.24.48c.135.45.346 1.64.307 1.834.499 0 1.055.82 1.055 1.327s.652.8.652.449c0-.173-.098-.46-.197-.752-.102-.299-.206-.602-.206-.79 0-.116-.025-.257-.05-.405-.058-.32-.12-.675.05-.901.2-.266.083-.748 0-.956.403-.878.02-1.717-.25-1.873-.167-.098-.402.248-.588.52-.111.163-.204.3-.255.3-.134 0-.652.8-.517 1.248Zm2.075 1.148c-.067.074-.136.37.127.957.137.305.203.551.249.723.064.24.09.335.217.243.22-.158.484-1.05.192-1.43a8.054 8.054 0 0 1-.12-.161c-.219-.302-.369-.507-.665-.332Zm10.464 9.11c-2.25.084-4.232-.696-4.943-1.097 0-.1.018-.4.09-.796.07-.386.931-.006 1.915.428.281.124.573.252.858.368.66.27.679.261.814.205.127-.054.358-.15 1.33-.1 2.003.104 0 .993-.064.993Zm9.825-2.936c-.13 0-.496 0-.717-.206-.242-.226-.282-.202-.764.084l-.104.062c-.127.075-.251.163-.376.252-.448.317-.914.647-1.598.442l-.016-.005c-.864-.26-1.239-.372-1.046-1.054.193-.687.602-1.505.947-1.088.345.416.445.518.825.153.145-.138.24-.349.333-.557.154-.342.304-.677.665-.677.582 0 1.228-.073 1.041-.504-.058-.134-.148-.242-.23-.34-.18-.217-.318-.382.043-.653.331-.25.502-.42.682-.6.106-.105.214-.213.36-.343.246-.219.431-.092.592.017.096.066.183.125.269.1.079-.022.141-.088.214-.164.139-.145.313-.327.705-.318.148.004.271-.001.373-.005.307-.012.416-.017.416.246 0 .073-.012.17-.025.27-.05.385-.108.837.477.322.413-.363.607-.774.737-1.05.103-.22.167-.355.268-.316.23.088.23.701.122.898-.01.017-.025.053-.049.106-.25.551-1.334 2.949-4.1 4.93-.006-.002-.021-.002-.044-.002Z" fill="url(#b)"/><path d="M23.369 12.69c-.219-.43-.091-.566 0-.58.096-.028.223-.128-.043-.309-.268-.18-.192-.511-.12-.654.973-1.097 1.508-.61 3.017-.61 1.508 0 1.776.098 3.722 0 1.947-.097 3.917 1.268 7.202 4.152 3.285 2.883 4.72 7.798 4.453 8.286-.214.39-2.133.292-3.066.195-1.8-2.512-7.96-4.426-10.127-5.405-1.733-.784-2.356-1.92-2.45-2.39-.33-.166-.6-.527-.692-.686-.542-.488-1.678-1.57-1.896-2Z" fill="url(#c)"/><path opacity=".8" fill-rule="evenodd" clip-rule="evenodd" d="M23.145 11.343c.717.801 1.956 1.873 3.126 1.909.76.023 1.429-.344 2.118-.722.91-.499 1.854-1.016 3.082-.681 2.16.588 4.587 2.86 6.453 5.171 1.845 2.285 3.182 5.274 3.419 6.118.129-.041.22-.095.257-.163.267-.488-1.168-5.403-4.453-8.286-3.284-2.883-5.255-4.25-7.202-4.152a24.87 24.87 0 0 1-2.452.024c-.354-.011-.734-.024-1.27-.024-.4 0-.732-.034-1.021-.064-.803-.083-1.281-.132-1.996.674a.679.679 0 0 0-.06.196Z" fill="#6D7AAD"/><path fill-rule="evenodd" clip-rule="evenodd" d="M23.368 12.11c-.09.014-.218.15 0 .58.219.43 1.355 1.511 1.896 1.999.094.16.363.52.692.685.095.47.717 1.607 2.45 2.39.463.21 1.108.462 1.854.753 2.746 1.072 6.858 2.677 8.274 4.653.276.029.64.057 1.019.074-2.76-4.336-8.27-6.313-10.823-7.229-.478-.171-.852-.306-1.085-.411-1.153-.522-3.219-2.438-4.275-3.495h-.002Z" fill="url(#d)"/><path d="M25.964 14.119c-.982-.183-2.216-1.335-2.71-1.887.237-.372-.105-.591-.172-.668-.067-.076.057-.61.171-.38.114.228 2.302 1.762 2.825 2.106.418.274.098.667-.114.829Z" fill="#B45865"/><path d="M26.762 13.89c-1.103.145-2.279-.963-2.729-1.535.395.36 1.444 1.096 2.482 1.163 1.039.068 1.834-.607 2.102-.953-.159.382-.751 1.18-1.855 1.325Z" fill="#B45865"/><path d="M29.644 14.767c.532.526.792 1.522.856 1.954l-1.084-.39c.015-.84-.565-1.456-.856-1.66l.333-.495c.028-.022.218.065.75.591Z" fill="#B6BFC8"/><path d="M30.519 13.576c-1.042-.046-1.588.864-1.731 1.324 0 .134.122.431.609.553.608.153 2.006-.553 2.158-.695.153-.143.267-1.125-1.036-1.182Z" fill="#A13F3E"/><path d="M29.397 13.528c-1.415 1.57-2.295 1.474-2.558 1.23.045 0 .393-.274.56-.41-.562.022-.672-.2-.656-.315.974-.008 1.585-.683 1.77-1.02v.515c-.086.098-.153.25.265.067.419-.183.587-.121.619-.067Z" fill="#4A556B"/><path d="M33.75 10.002c-.956-.041-1.91.697-2.143.834.546.314 1.67.943 1.801.943 1.44-.12 1.319-.679 1.078-.943.141-.087.423-.298.423-.452 0-.19-.205-.341-1.16-.382Z" fill="url(#e)"/><path d="M40.014 17.04c-.376-.32-1.048-.286-1.117-.286l1.117 1.712c.136-.228.375-1.107 0-1.427Z" fill="#636B91"/><path d="M40.31 23.014H38.42c0 1.475 1.77 2.204 2.655 2.383-.055 2.47.833 2.94.937 3.149.472-1.142-.196-2.946-.59-3.705.18-.432.214-1.537.209-2.036-.22.07-.792.21-1.32.21Z" fill="url(#f)"/><path fill-rule="evenodd" clip-rule="evenodd" d="M22.429 33c.743 0 1.345-.66 1.345-1.476s-.602-1.476-1.345-1.476-1.345.66-1.345 1.476c0 .815.602 1.476 1.345 1.476Zm0-.254c.37 0 .668-.547.668-1.222 0-.675-.299-1.222-.668-1.222-.37 0-.669.547-.669 1.222 0 .675.3 1.222.669 1.222Zm-8.418-1.222c0 .719-.393 1.302-.877 1.302-.485 0-.878-.583-.878-1.302 0-.72.393-1.302.878-1.302.484 0 .877.583.877 1.302Zm-.532 0c0 .595-.155 1.077-.345 1.077-.191 0-.346-.482-.346-1.077s.155-1.078.345-1.078c.191 0 .346.483.346 1.078ZM11 30.33l.299 2.324h.208l.169-1.168.182 1.168h.195l.325-2.324h-.325l-.091.75-.104-.75h-.273l-.158.75-.128-.75H11Zm2.995.033v-.12h.88c.268 0 .649.185.649.637 0 .361-.314.612-.47.693l.705 1.109h-.706l-.448-.878v.696h.146v.182h-.756V32.5h.16v-2.137h-.16Zm.594.127v.913c.274-.118.359-.323.359-.59 0-.267-.09-.4-.213-.4-.1 0-.139.05-.146.077Zm1.253-.277v.146h.23v2.409h1.617v-.656h-.12l-.002.026c-.026.279-.28.452-.586.452h-.34v-2.23h.267v-.147h-1.066Zm2.024-.09v.2c.156 0 .282.115.282.258v1.774c0 .143-.126.258-.282.258v.17h1.302c.396.002 1.189-.255 1.189-1.304s-.793-1.34-1.19-1.355h-1.3Zm.876.236v2.143c.31.16.915.08.915-1.016s-.605-1.166-.915-1.127Zm5.3-.293v.191h.373v2.481h-.373v.196h1.328v-.196h-.335v-1.177h.277c.163 0 .294.12.294.269v.274h.176V30.9h-.176v.23c0 .148-.131.268-.294.268h-.277v-1.142h.87c.162 0 .294.12.294.27v.374h.137v-.835h-2.294Zm3.218 2.668v.173h1.468v-.172h-.45v-1.096h.331c.144 0 1.102 0 1.102-.768 0-.619-.655-.795-.983-.807H27.26v.206h.424v2.464h-.424Zm1.031-2.375v1.08c.515 0 .703-.206.703-.612s-.206-.596-.418-.596c-.17 0-.26.086-.285.128Zm1.476 2.53v-.126h.253l1.05-2.658h.184l1.091 2.659h.306v.125h-1.36v-.126h.358l-.277-.657h-.818l-.26.657h.29v.126h-.817Zm.857-.962h.672l-.348-.822-.324.822Zm7.21.855v.125h.583v-.125h-.207l.185-.658h.583l.198.657h-.255v.126h.97v-.124h.324c.236.006.707-.128.707-.714-.018-.17-.155-.594-.56-.925-.507-.412-.269-.776-.045-.776.223 0 .302.377.302.604h.178v-.774h-.125l-.053.136c-.02-.046-.113-.136-.327-.136-.267 0-.565.141-.565.774 0 .312.21.491.423.673.218.186.44.375.44.712-.005.092-.07.275-.296.275-.283 0-.385-.293-.385-.605h-.138v.755h-.098l-.779-2.66h-.131l-.749 2.66h-.18Zm1.09-.837h-.479l.231-.822.248.822Zm-6.101.782v.155h.771v-.155h-.293v-1.883l1.474 2.038h.247v-2.64h.193v-.148h-.772v.149h.263v1.302l-1.112-1.45h-.849v.185h.008c.162 0 .293.12.293.27v2.177h-.223Zm4.4-1.679h.298v-.993h-.167l-.197.247a.96.96 0 0 0-.66-.247c-.43 0-1.098.427-1.098 1.446 0 1.02.64 1.473 1.097 1.473h.064c.222 0 .327 0 .423-.028.084-.025.162-.071.309-.158l.229-.134v-.793h.247v-.147h-.989v.147h.218v.793a.617.617 0 0 1-.377.12c-.24 0-.582-.327-.582-1.273s.32-1.2.582-1.2c.261 0 .603.38.603.747Zm5.614-.027h.095v-.753h-.066l-.029.133a.177.177 0 0 0-.175-.133c-.143 0-.301.138-.301.753 0 .303.112.477.226.654.116.181.234.364.234.692-.002.089-.036.267-.157.267-.152 0-.206-.285-.206-.588h-.074v.462c-.132.049-.373.068-.373-.22v-1.946h-.341v2.096c.033.134.222.36.714.206v.137h.237c.126.005.378-.125.378-.694a2 2 0 0 0-.3-.898c-.27-.402-.143-.755-.023-.755s.161.366.161.587Zm-1.218-.692h-.711v.117h.156v2.188h-.156v.13h.711v-.13h-.185v-2.188h.185v-.117Z" fill="#fff"/><path fill-rule="evenodd" clip-rule="evenodd" d="M22.429 32.837c.743 0 1.345-.635 1.345-1.419 0-.783-.602-1.418-1.345-1.418s-1.345.635-1.345 1.418c0 .784.602 1.419 1.345 1.419Zm0-.245c.37 0 .668-.525.668-1.174 0-.648-.299-1.174-.668-1.174-.37 0-.669.526-.669 1.174 0 .649.3 1.174.669 1.174ZM14.01 31.42c0 .69-.393 1.25-.877 1.25-.485 0-.878-.56-.878-1.25 0-.691.393-1.252.878-1.252.484 0 .877.56.877 1.252Zm-.532 0c0 .571-.155 1.035-.345 1.035-.191 0-.346-.464-.346-1.036 0-.572.155-1.035.345-1.035.191 0 .346.463.346 1.035ZM11 30.27l.299 2.233h.208l.169-1.122.182 1.122h.195l.325-2.233h-.325l-.091.722-.104-.722h-.273l-.158.722-.128-.722H11Zm2.995.032v-.116h.88c.268 0 .649.178.649.613 0 .347-.314.588-.47.665l.705 1.066h-.706l-.448-.843v.668h.146v.175h-.756v-.175h.16v-2.053h-.16Zm.594.122v.878c.274-.114.359-.311.359-.568 0-.256-.09-.384-.213-.384-.1 0-.139.049-.146.074Zm1.253-.266v.14h.23v2.315h1.617v-.63h-.12l-.002.024c-.026.268-.28.474-.586.474h-.34V30.3h.267v-.14h-1.066Zm2.024-.086v.191c.156 0 .282.111.282.248v1.705c0 .137-.126.248-.282.248v.163h1.302c.396.002 1.189-.245 1.189-1.253s-.793-1.288-1.19-1.302h-1.3Zm.876.226v2.06c.31.153.915.076.915-.977s-.605-1.12-.915-1.083Zm5.3-.282v.184h.373v2.384h-.373v.188h1.328v-.188h-.335v-1.132h.277c.163 0 .294.116.294.26v.263h.176V30.82h-.176v.22c0 .143-.131.259-.294.259h-.277V30.2h.87c.162 0 .294.116.294.26v.36h.137v-.804h-2.294Zm3.218 2.565v.166h1.468v-.166h-.45v-1.053h.331c.144 0 1.102 0 1.102-.738 0-.594-.655-.764-.983-.775H27.26v.198h.424v2.368h-.424Zm1.031-2.283v1.037c.515 0 .703-.197.703-.588 0-.39-.206-.572-.418-.572-.17 0-.26.083-.285.123Zm1.476 2.431v-.12h.253l1.05-2.555h.184l1.091 2.554h.306v.121h-1.36v-.12h.358l-.277-.632h-.818l-.26.631h.29v.121h-.817Zm.857-.924h.672l-.348-.79-.324.79Zm7.21.82v.122h.583v-.121h-.207l.185-.632h.583l.198.632h-.255v.12h.97v-.119h.324c.236.006.707-.123.707-.686-.018-.164-.155-.57-.56-.888-.507-.397-.269-.746-.045-.746.223 0 .302.362.302.58h.178v-.744h-.125l-.053.131c-.02-.044-.113-.131-.327-.131-.267 0-.565.136-.565.744 0 .3.21.472.423.647.218.179.44.36.44.684a.278.278 0 0 1-.296.264c-.283 0-.385-.281-.385-.58h-.138v.724h-.098l-.779-2.555h-.131l-.749 2.555h-.18Zm1.09-.803h-.479l.231-.79.248.79Zm-6.101.75v.15h.771v-.15h-.293v-1.808l1.474 1.958h.247v-2.535h.193v-.143h-.772v.142h.263v1.251l-1.112-1.393h-.849v.178h.008c.162 0 .293.116.293.259v2.092h-.223Zm4.4-1.612h.298v-.954h-.167l-.197.237c-.077-.079-.318-.237-.66-.237-.43 0-1.098.41-1.098 1.39s.64 1.414 1.097 1.414h.064c.223 0 .328 0 .424-.026.084-.024.162-.069.308-.152.062-.036.136-.078.229-.129v-.762h.247v-.14h-.989v.14h.218v.762a.633.633 0 0 1-.377.115c-.24 0-.582-.313-.582-1.222 0-.91.32-1.153.582-1.153.261 0 .603.365.603.717Zm5.614-.026h.095v-.723h-.066l-.029.128a.176.176 0 0 0-.175-.128c-.143 0-.301.133-.301.723 0 .292.112.46.226.629.116.174.234.35.234.664-.002.086-.036.257-.157.257-.152 0-.206-.273-.206-.564h-.074v.443c-.132.047-.373.066-.373-.212v-1.87h-.341v2.015c.033.128.222.346.714.198v.131h.237c.126.006.378-.12.378-.667a1.87 1.87 0 0 0-.3-.863c-.27-.385-.143-.724-.023-.724s.161.351.161.563Zm-1.218-.665h-.711v.113h.156v2.102h-.156v.126h.711v-.126h-.185v-2.102h.185v-.113Z" fill="#E23537"/><defs><linearGradient id="a" x1="33.6" y1="19.459" x2="24.261" y2="44.893" gradientUnits="userSpaceOnUse"><stop stop-color="#BFD3DD"/><stop offset=".64" stop-color="#249ED1"/><stop offset="1" stop-color="#454583"/></linearGradient><linearGradient id="b" x1="30.172" y1="20.94" x2="17.323" y2="42.826" gradientUnits="userSpaceOnUse"><stop stop-color="#F2E678"/><stop offset=".346" stop-color="#F3E022"/><stop offset="1" stop-color="#AF6D3B"/></linearGradient><linearGradient id="c" x1="36.002" y1="14.338" x2="32.138" y2="18.533" gradientUnits="userSpaceOnUse"><stop stop-color="#C5CFD9"/><stop offset=".484" stop-color="#F5F6F8"/><stop offset="1" stop-color="#E5E9EC"/></linearGradient><linearGradient id="d" x1="31.4" y1="12.109" x2="29.009" y2="17.367" gradientUnits="userSpaceOnUse"><stop offset=".692" stop-color="#F5F6F8"/><stop offset="1" stop-color="#A09896"/></linearGradient><linearGradient id="e" x1="32.508" y1="10.973" x2="34.513" y2="10.768" gradientUnits="userSpaceOnUse"><stop stop-color="#6C7191"/><stop offset="1" stop-color="#A74C4B"/></linearGradient><linearGradient id="f" x1="42.017" y1="23.553" x2="39.161" y2="25.43" gradientUnits="userSpaceOnUse"><stop stop-color="#DCA65C"/><stop offset="1" stop-color="#CA9E55"/></linearGradient></defs></svg>