<!-- by TradingView --><svg width="56" height="56" viewBox="0 0 56 56" xmlns="http://www.w3.org/2000/svg"><path fill="#F0F3FA" d="M0 0h56v56H0z"/><path d="m24.23 26-.54 1.68 1.75.2 6.82-.45L31.22 26h-6.99Z" fill="#535AA4"/><path d="m32.71 16.62-7.44 6.17L35 21l-2.29-4.38Z" fill="#FB5604"/><path d="m30.62 12.94 2.1 3.68-7.45 6.17-1.98 3.25h-4.51l5.85-3.9 4.25-4.42 1.23-.68.5-4.1Z" fill="#F60404"/><path d="m22.95 20.08 5.93-2.36-4.12 4.53-1.81-2.17Z" fill="url(#a)"/><path d="m21.63 20.71 1.32-.63 1.72 2.04-5.9 3.92 2.86-5.33Z" fill="url(#b)"/><path d="m23.52 17.66 1.24 1.81-1.9.82-.44-.97 1.1-1.66Z" fill="#FDB552"/><path d="m28.39 9 2.23 3.94-.38 4.53-5.74-1.79L28.39 9Z" fill="#FC9104"/><path d="m25.27 22.79-3.81 3.27h2.77l1.04-3.27Z" fill="#FB5604"/><path d="m18.78 26-2 3.41L21.27 26h-2.5Z" fill="#060404"/><path d="M21.48 26h2.75l-.13 2.17-4.98.44L21.48 26Z" fill="#511D04"/><path d="m42 35-1.36-2.22-2.19.46L42 35Z" fill="#535AA4"/><path d="m31.2 26 .45.8 3.37 4.53 3.43 1.9 2.2-.45L36.55 26H31.2Z" fill="#5D66B8"/><path d="m35.01 31.33-2.58-1.3-1.3-3.2.52-.03 3.36 4.53Z" fill="#9DA4E1"/><path d="M32.43 30.02 30.4 29l-.72-1.92 1.43-.25 1.3 3.2Z" fill="#939AD4"/><path d="m30.4 29-.8-.43-1.3-1.5h1.39l.72 1.92Z" fill="#848CD0"/><path d="m29.6 28.57-1.3-1.5V28l1.3.57Z" fill="#848CD0"/><path d="m28.3 28-5.88 3.14 1.15-3.44 4.72-.63V28Z" fill="#939AD4"/><path d="M19.5 28.35 13 36l9.42-4.86 1.15-3.44-4.08.65Z" fill="#8F3204"/><path d="M22.36 25.03 13 36l3.78-6.59 5.58-4.38Z" fill="#C5947C"/><path fill="#343434" d="M27 37h2v7h-2z"/><path fill-rule="evenodd" d="M20 37v7h2v-1.75l3-1.06V37h-5Zm3 3.21V38.5h-1v2.07l1-.36ZM31 44v-7h4.98l.02 4.2-.96.32L36 44h-1.95l-.73-1.88-.32.13V44h-2Zm3-5.5v1.71l-1 .36V38.5h1Z" fill="#343434"/><path d="m37 44 1.56-7h2.88L43 44h-1.88l-.25-1.26-1.87.64-.12.62H37Zm2.32-2.22 1.27-.43-.59-2.94-.68 3.37ZM14.23 38.5 13 44h1.88l.12-.62 1.87-.64.25 1.26H19l-1.56-7H13.5v1.5h.73Zm2.36 2.85-1.27.43.68-3.37.6 2.94Z" fill="#343434"/><defs><linearGradient id="a" x1="28.56" y1="17.72" x2="24.36" y2="21.02" gradientUnits="userSpaceOnUse"><stop stop-color="#FDB38E"/><stop offset="1" stop-color="#FC7836"/></linearGradient><linearGradient id="b" x1="22.04" y1="20.69" x2="22.79" y2="23.25" gradientUnits="userSpaceOnUse"><stop stop-color="#FDB38E"/><stop offset="1" stop-color="#FC7836"/></linearGradient></defs></svg>