<!-- by TradingView --><svg width="56" height="56" viewBox="0 0 56 56" xmlns="http://www.w3.org/2000/svg"><path fill="#F0F3FA" d="M0 0h56v56H0z"/><path d="M50 28c0 6.63-9.85 12-22 12S6 34.63 6 28s9.85-12 22-12 22 5.37 22 12Z" fill="#068F3D"/><path d="M46 28c0 1.89-1.07 4-3.5 4-2.43 0-3.5-2.11-3.5-4 0-1.9 1.06-4 3.5-4 2.43 0 3.5 2.11 3.5 4Zm-2 0c0-.97-.13-2-1.5-2S41 27.03 41 28s.13 2 1.5 2 1.5-1.03 1.5-2ZM38 27h-2c-.14-.44-.49-1-1.34-1-1.39 0-1.66 1-1.66 2 0 1.01.25 2 1.65 2 .81 0 1.21-.56 1.35-1.01l2 .01a3.41 3.41 0 0 1-3.39 3C32.14 32 31 29.96 31 28c0-1.94 1.15-4 3.61-4A3.28 3.28 0 0 1 38 27ZM25 32v-8h5v2h-3v1.5h2.5v2H27V32h-2ZM18 32v-8h3.19c1.76 0 2.81 1.01 2.81 2.5 0 1.52-1.09 2.5-2.87 2.5h-1.97v-1.5h1.62c.81 0 1.22-.3 1.22-1s-.4-1-1.22-1H20V32h-2ZM12 32h-2l2.37-8h2.26L17 32h-2l-1.5-5.78L12 32Zm-.42-3.5h3.81V30h-3.8v-1.5Z" fill="#D92515"/></svg>