<!-- by TradingView --><svg width="56" height="56" viewBox="0 0 56 56" xmlns="http://www.w3.org/2000/svg"><path fill="#F0F3FA" d="M0 0h56v56H0z"/><path d="M11.12 22.45a.95.95 0 0 1 .8-.45h2.15c.33 0 .64.17.81.45L22 34h-3.25l-1.85-3H9.1l-1.85 3H4l7.12-11.55ZM10.95 28h4.1L13 24.67 10.95 28Z" fill="#FF7328"/><path fill-rule="evenodd" d="M23 22v12h3v-3h8.05A2 2 0 0 0 36 28.97v-4.94A2 2 0 0 0 34.05 22H23Zm10 6v-3h-7v3h7Z" fill="#FF7328"/><path d="M38 24.26A2.3 2.3 0 0 1 40.32 22H50a2 2 0 0 1 2 2v1H41v6h8v-1h-4v-3h7v4.74A2.3 2.3 0 0 1 49.68 34h-9.36A2.3 2.3 0 0 1 38 31.74v-7.48Z" fill="#FF7328"/></svg>