<!-- by TradingView --><svg width="56" height="56" viewBox="0 0 56 56" xmlns="http://www.w3.org/2000/svg"><path fill="#F0F3FA" d="M0 0h56v56H0z"/><path d="M50 22.06c0-3.25-4.67-4.06-7-4.06 3.74 1.36 5 2.9 5 4.82 0 1.53-.56 2.76-1 3.18 1.06-.33 3-1.57 3-3.94Z" fill="#F7202B"/><path d="M47 23.06c0-2.9-4-4.59-6-5.06 1.31.84 4 3.03 4 5.06A4.92 4.92 0 0 1 43 27c1.41-.1 4-1.03 4-3.94Z" fill="#F7202B"/><path d="M40 24.16c0-1.2 1.74-2.6 2.61-3.16.47.46 1.39 1.68 1.39 2.88 0 1.5-1.39 2.12-2.13 2.12S40 25.35 40 24.16Z" fill="#F7202B"/><path fill-rule="evenodd" d="M32.8 22a2.83 2.83 0 0 0-2.8 2.87V35c1.46 0 3-1.21 3-2.7V31h3.2c1.55 0 2.8-1.28 2.8-2.87v-3.26A2.83 2.83 0 0 0 36.2 22h-3.4Zm3.2 6v-3h-3v3h3ZM22.8 22a2.83 2.83 0 0 0-2.8 2.87V35c1.46 0 3-1.21 3-2.7V31h3.2c1.55 0 2.8-1.28 2.8-2.87v-3.26A2.83 2.83 0 0 0 26.2 22h-3.4Zm3.2 6v-3h-3v3h3Z" fill="#007840"/><path d="M16.21 24.45 19 35h-.53a2.78 2.78 0 0 1-2.7-2.06L15.26 31h-4.5l-.53 1.94A2.78 2.78 0 0 1 7.52 35H7l2.79-10.55c.86-3.27 5.56-3.27 6.42 0Zm-3.99 1.15-.65 2.4h2.86l-.65-2.4A.79.79 0 0 0 13 25c-.34 0-.67.2-.78.6Z" fill="#007840"/></svg>