<!-- by TradingView --><svg width="56" height="56" viewBox="0 0 56 56" xmlns="http://www.w3.org/2000/svg"><path fill="#F0F3FA" d="M0 0h56v56H0z"/><path d="M19.36 15c1.85 0 2.9.2 3.2.29-7.28-.24-12.61 4.58-12.61 10.3 0 4.58 3.46 7.95 5.19 9.07C12.96 33.85 8 30.84 8 25.12 8 17.39 17.04 15 19.36 15Z" fill="#CD010C"/><circle cx="23" cy="19" r=".51" fill="#CD010C"/><path d="m30.3 27-2.8 12h-4.12l.94-4h-2.66l-3.1 4H15l9.31-12h6Zm-7.86 7h2.1l1.03-4-3.13 4ZM48 27h-8.33l.18.09c.85.41 1.2.58.8 2.91h.56l-2.1 9h2.57l2.1-9h3.42l.8-3Z" fill="#CD010C"/><path d="M39.93 29.81A2.23 2.23 0 0 0 37.8 27h-6.77l-.82 3H37l-.2 1H30l-2 8h3.14l1.08-4h3.57c1.69 0 3.16-1.36 3.59-3.03l.55-2.16Z" fill="#CD010C"/><path d="M19.83 37.35c.95.67 2.57 1.65 3.84 1.65a2.84 2.84 0 0 1-.47-1.24c0-.18.53-.52 1.28-1.01 1.46-.96 3.75-2.46 4.52-4.29 0-.06-.1-.19-.47-.19-.11 0-.43.23-.9.58a16.05 16.05 0 0 1-6.51 2.84l-1.3 1.66Z" fill="#0298EF"/><path fill-rule="evenodd" d="M29 20.87C28.12 19.1 25.68 16 21.3 16 15.83 16 11 19.96 11 26.21c0 6.25 4.93 9.02 6.78 9.97.37.35 1.14.69 1.48.82.76.65.93-1 .93-1S18 36.38 18 33.13c0-3.24 1.73-8.88 10.12-10.12a.42.42 0 0 0 .37-.43c0-.16-.4-.22-.86-.3-.67-.1-1.5-.22-1.5-.7.82-.07 2.54-.3 2.87-.72ZM23 20a1 1 0 1 0 0-2 1 1 0 0 0 0 2Zm-4 .19a5.11 5.11 0 0 1 1.84-3.95l.16.2a5.36 5.36 0 0 0-1.75 3.75c0 1.5 1.57 3.55 3.22 3.55V24c-1.8 0-3.47-2-3.47-3.81Zm2 4.19c-1.33-.06-3.77.38-2.85 2.62-.38-.17-1.15-.72-1.15-1.63 0-1.13 2.4-1.85 4-1Z" fill="#0298EF"/></svg>