<!-- by TradingView --><svg width="56" height="56" viewBox="0 0 56 56" xmlns="http://www.w3.org/2000/svg"><path fill="#F0F3FA" d="M0 0h56v56H0z"/><path d="M21.84 30c7.42 0 16.4 4.09 19.66 6a32.5 32.5 0 0 0-12.96-2.82c-8.91 0-13.35 2.82-14.22 2.82-.88 0-2.32-.67-2.32-2.26C12 31.7 15.2 30 21.84 30Z" fill="#008FD5"/><path d="M27.74 19.12C24 25.2 16.37 30.24 13.04 32c1.59-.96 5.53-4.08 8.51-8.9 4.51-7.3 4.27-12.26 4.71-12.98.45-.72 1.76-1.58 3.16-.83 1.81.98 1.68 4.4-1.68 9.83Z" fill="#ED1C24"/><path d="M34.98 29.17c-3.6-6.35-4.51-14.43-4.48-18.17.09 1.85 1.06 5.81 3.92 10.86 4.33 7.63 8.86 10.02 9.29 10.77.42.75.56 2.32-.79 3.1-1.73 1.03-4.7-.87-7.94-6.56Z" fill="#FFC20E"/><path d="M12 37h8.18c1 0 1.82.83 1.82 1.85V44h-8c-1.12 0-2-.86-2-2 0-1.14.88-2 2-2h6v-1.28c0-.4-.32-.72-.7-.72H12v-1Zm2.83 4c-.45 0-.83.55-.83 1 0 .45.38 1 .83 1H20v-2h-5.17ZM33 38v-1h-8.01c-1.1 0-1.99.87-1.99 2s.9 2 1.99 2h5.18c.46 0 .83.53.83 1s-.37 1-.83 1H23v1h8.01c1.1 0 1.99-.87 1.99-2s-.9-2-1.99-2h-5.18c-.46 0-.83-.53-.83-1 0-.67.37-1 .83-1H33ZM44 37h-6.6a3.45 3.45 0 0 0-3.4 3.5c0 1.93 1.52 3.5 3.4 3.5H44v-4h-2v3h-3.8c-1.22 0-2.2-1.25-2.2-2.5s.98-2.5 2.2-2.5H44v-1Z" fill="#008FD5"/></svg>