<!-- by TradingView --><svg width="56" height="56" fill="none" xmlns="http://www.w3.org/2000/svg"><path fill="#F0F3FA" d="M0 0h56v56H0z"/><path fill-rule="evenodd" clip-rule="evenodd" d="M40 13H16a2 2 0 0 0-2 2v26a2 2 0 0 0 2 2h24a2 2 0 0 0 2-2V15a2 2 0 0 0-2-2Zm-24-1a3 3 0 0 0-3 3v26a3 3 0 0 0 3 3h24a3 3 0 0 0 3-3V15a3 3 0 0 0-3-3H16Z" fill="#D9241C"/><path fill-rule="evenodd" clip-rule="evenodd" d="M32 28.527V32h6V15h-6v8.048c2.451.15 5.9.709 5.9 2.497 0 1.773-2.966 2.727-4.45 2.982H32Zm-1 0V32h-6v-4.361c.246-.24.505-.517.774-.839l.532-.642c1.414-1.713 2.242-2.715 3.431-2.715.32 0 .767.005 1.263.045v5.028a5.48 5.48 0 0 1-.197.011H31Zm1-.162c1.245-.284 2.641-.978 2.641-2.412 0-1.472-1.311-2.081-2.641-2.333v4.745Zm-1-5.359V20h-6v3.861c.754-.708 1.098-.861 1.541-.861h3.933c.159 0 .335.002.526.006Zm-7 1.858V20h-6v12h6v-3.533c-.55.374-.964.516-1.172.533h-3.854c.94 0 1.906-.913 2.272-1.369.296-.276 1.26-1.214 2.754-2.767ZM35 15.5l.59 1.91h1.91l-1.545 1.18.59 1.91L35 19.32l-1.545 1.18.59-1.91-1.545-1.18h1.91L35 15.5Zm-12 9c0 .828-.895 1.5-2 1.5s-2-.672-2-1.5.895-1.5 2-1.5 2 .672 2 1.5Zm7 3c0 .828-.895 1.5-2 1.5s-2-.672-2-1.5.895-1.5 2-1.5 2 .672 2 1.5ZM16 33v1h24v-1H16Zm-1 3v-1h26v1H15ZM16.389 39.912a.698.698 0 0 0-.018-.163.378.378 0 0 0-.064-.14.605.605 0 0 0-.136-.128 1.478 1.478 0 0 0-.23-.139 2.853 2.853 0 0 1-.323-.192 1.476 1.476 0 0 1-.277-.254 1.149 1.149 0 0 1-.193-.343 1.353 1.353 0 0 1-.071-.46c0-.167.024-.318.073-.451.049-.136.117-.25.204-.345a.88.88 0 0 1 .31-.22.96.96 0 0 1 .388-.077c.186 0 .35.05.492.15a.967.967 0 0 1 .334.42c.081.18.122.393.122.639h-.608a.77.77 0 0 0-.04-.26.38.38 0 0 0-.117-.176.3.3 0 0 0-.197-.064.336.336 0 0 0-.193.053.334.334 0 0 0-.119.144.467.467 0 0 0-.008.356c.022.046.053.09.092.131.04.041.09.08.146.118.059.037.124.074.196.11.134.065.254.14.358.221.106.08.195.172.267.276.073.101.128.217.165.347.039.13.058.277.058.441 0 .175-.022.33-.066.466a.977.977 0 0 1-.19.345.81.81 0 0 1-.296.21 1.042 1.042 0 0 1-.77-.003 1.012 1.012 0 0 1-.342-.234 1.174 1.174 0 0 1-.245-.41 1.76 1.76 0 0 1-.091-.596h.613c0 .115.01.21.03.29.02.078.049.141.087.19.038.045.085.08.141.1.056.02.12.03.192.03.078 0 .14-.017.188-.05a.31.31 0 0 0 .104-.14.543.543 0 0 0 .034-.192ZM18.483 37H17.884l-.971 4h.684l.152-.747h.873l.152.747h.686l-.976-4Zm-.015 2.508h-.568l.284-1.392.285 1.392Zm3.032-.428v-.157c0-.298-.028-.566-.083-.803a2.087 2.087 0 0 0-.231-.604 1.118 1.118 0 0 0-.355-.382.8.8 0 0 0-.448-.134.813.813 0 0 0-.453.134 1.126 1.126 0 0 0-.353.382 2.125 2.125 0 0 0-.23.604c-.053.237-.08.505-.08.803v.157c0 .298.027.565.08.802.056.236.133.437.232.605.1.165.219.293.355.382a.824.824 0 0 0 .452.131.813.813 0 0 0 .449-.131c.136-.09.253-.217.353-.382.099-.168.175-.37.23-.605.054-.237.082-.504.082-.802Zm-.625-.163v.163c0 .19-.01.36-.033.508-.021.146-.053.27-.095.372a.579.579 0 0 1-.152.23.327.327 0 0 1-.425 0 .594.594 0 0 1-.154-.23 1.626 1.626 0 0 1-.093-.372 3.865 3.865 0 0 1-.03-.508v-.163c0-.192.01-.362.03-.508a1.58 1.58 0 0 1 .093-.372c.04-.1.092-.174.152-.224a.32.32 0 0 1 .215-.078c.078 0 .147.026.208.078.062.05.114.125.156.224.042.1.074.224.095.372.022.146.033.316.033.508Zm15.593.005v.158c0 .298-.026.565-.079.802a2.148 2.148 0 0 1-.22.605 1.143 1.143 0 0 1-.34.382.76.76 0 0 1-.432.131.771.771 0 0 1-.435-.131 1.16 1.16 0 0 1-.341-.382 2.182 2.182 0 0 1-.223-.605 3.78 3.78 0 0 1-.077-.802v-.157c0-.298.025-.566.077-.803.053-.237.127-.438.221-.604a1.11 1.11 0 0 1 .34-.382.76.76 0 0 1 .435-.134.75.75 0 0 1 .432.134c.131.087.245.215.34.382.096.166.17.367.223.604.053.237.08.505.08.803Zm-.6.158v-.163c0-.192-.01-.362-.032-.508a1.567 1.567 0 0 0-.091-.372.562.562 0 0 0-.15-.224.294.294 0 0 0-.201-.078.3.3 0 0 0-.206.078.558.558 0 0 0-.147.224c-.04.1-.07.224-.09.372-.018.146-.028.316-.028.508v.163c0 .19.01.36.029.508.02.146.05.27.089.372.04.102.09.178.148.23a.307.307 0 0 0 .409 0 .581.581 0 0 0 .147-.23c.04-.102.07-.226.09-.372.022-.148.033-.317.033-.508ZM38 37h.616v2.577c0 .307-.041.568-.123.78a1.042 1.042 0 0 1-.343.48.85.85 0 0 1-.519.163.861.861 0 0 1-.52-.163 1.058 1.058 0 0 1-.347-.48 2.162 2.162 0 0 1-.125-.78V37h.607v2.577c0 .163.015.296.045.399.03.1.074.175.131.222a.32.32 0 0 0 .209.07.314.314 0 0 0 .209-.07.435.435 0 0 0 .127-.222 1.58 1.58 0 0 0 .033-.399V37Zm1.613 2.742h.402c.204 0 .379-.053.526-.159.148-.108.261-.258.34-.45.08-.193.119-.518.119-.776 0-.262-.04-.494-.119-.698a1.11 1.11 0 0 0-.34-.483.816.816 0 0 0-.526-.176H39v4h.613v-1.258Zm0-.744v-1.253h.402a.27.27 0 0 1 .21.087.51.51 0 0 1 .117.226c.025.093.038.195.038.305 0 .102-.013.294-.038.377a.392.392 0 0 1-.117.19.312.312 0 0 1-.21.068h-.402ZM32.375 37h.87c.17 0 .319.046.444.137a.864.864 0 0 1 .29.407c.07.18.104.401.104.665 0 .229-.02.42-.06.574a1.014 1.014 0 0 1-.327.562l.461 1.614V41h-.571l-.39-1.412h-.288V41h-.533v-4Zm.533 1.843h.338a.23.23 0 0 0 .168-.066.41.41 0 0 0 .1-.186c.024-.083.035-.18.035-.294a1.1 1.1 0 0 0-.035-.297.413.413 0 0 0-.103-.19.226.226 0 0 0-.165-.065h-.338v1.099ZM32 40.466v-1.598h-1v.644h.437v.604a.383.383 0 0 1-.177.139.464.464 0 0 1-.159.024.376.376 0 0 1-.23-.073.548.548 0 0 1-.158-.219 1.524 1.524 0 0 1-.093-.366 3.847 3.847 0 0 1-.03-.51v-.222c0-.196.01-.367.032-.513.022-.146.053-.267.092-.363a.56.56 0 0 1 .144-.22.289.289 0 0 1 .19-.072c.09 0 .162.025.218.073.057.046.1.114.13.205.03.09.051.198.062.326h.557a2.441 2.441 0 0 0-.13-.686 1.033 1.033 0 0 0-.316-.468.825.825 0 0 0-.54-.17.73.73 0 0 0-.414.125 1.076 1.076 0 0 0-.326.368 2.08 2.08 0 0 0-.213.594 3.85 3.85 0 0 0-.076.806v.217c0 .303.025.572.074.807.051.233.123.43.215.593.094.16.206.282.336.366.13.082.275.123.435.123a1.071 1.071 0 0 0 .769-.3.963.963 0 0 0 .171-.234ZM23 37h.157l.528 2.783.527-2.783H25v4h-.61v-.934l.055-1.913L23.873 41h-.376L23 38.527V41h-.59v-4H23Zm3.536 0h.167l.976 4h-.686l-.152-.747h-.873l-.152.747h-.684l.97-4H26.537Zm-.416 2.508h.568l-.284-1.392-.284 1.392ZM28.653 41v-4H28v4h.653Z" fill="#D9241C"/></svg>