<!-- by TradingView --><svg width="56" height="56" viewBox="0 0 56 56" xmlns="http://www.w3.org/2000/svg"><path fill="#F0F3FA" d="M0 0h56v56H0z"/><path fill="#007740" d="M8 34h40v2H8z"/><path d="M47 22h1v11h-1V22Z" fill="#F51A29"/><path fill-rule="evenodd" d="M46 25.57c0-1.73-.54-2.57-1.5-2.57-1 0-1.5.86-1.5 2.57v4.86c0 1.73.53 2.57 1.5 2.57 1 0 1.5-.86 1.5-2.57v-4.86Zm-1 .97c0-1.04-.18-1.54-.5-1.54-.33 0-.5.51-.5 1.54v2.92c0 1.03.18 1.54.5 1.54.33 0 .5-.51.5-1.54v-2.92Z" fill="#F51A29"/><path d="M39 25h-1v5.52c0 .32.11.48.34.48H39v2h-.5c-1 0-1.5-.59-1.5-1.77V25h-.55v-1.62c.37 0 .6-.1.72-.28.1-.2.2-.56.25-1.1H38v1.38H39V25ZM34.53 23c.98 0 1.47.8 1.47 2.38V28h-2v2.55c0 .3.39.45.54.45.13 0 .46-.13.46-.4v-2.1h1v2.44c0 .93-.36 2.06-1.46 2.06-1 0-1.54-.85-1.54-2.47V25.6c0-1.73.51-2.6 1.53-2.6Zm0 2c-.14 0-.53.15-.53.45V27h1v-1.55c0-.3-.34-.45-.47-.45ZM30.97 30H30v3h-1V22h1.66c.96 0 1.34 1.19 1.34 2.31v3.11c0 1.1-.06 2.58-1.03 2.58Zm-.25-2c.19 0 .28-.2.28-.6v-2.8c0-.4-.1-.6-.28-.6H30v4h.72ZM27 33v-1c-.17.73-.7 1-1.16 1-.75 0-.84-1.12-.84-1.65v-2c0-.85.17-1.74 1-2.16l1-.35v-1.5c0-.23-.36-.34-.47-.34-.13 0-.53.11-.53.34v1.16h-1v-1.57c0-1.29.6-1.93 1.56-1.93 1.21 0 1.44 1.18 1.44 2.17V33h-1Zm0-4.58-.8.1c-.15.1-.23.32-.23.68v1.78c0 .25.06.38.17.38.13 0 .87-.2.87-.51v-2.43ZM23.22 23c.52 0 .78.49.78 1.47V33h-1v-7.7c0-.2-.37-.3-.48-.3-.12 0-.52.14-.52.4V33h-1V22h1v2.03c.1-.43.7-1.05 1.22-1.03ZM19.16 33c-.57 0-.86 0-1.16-.5V34h-1V23h1v1.05c.15-.4.62-1.07 1.16-1.05.56 0 .84.6.84 1.8v6.38c0 1.21-.28 1.82-.84 1.82ZM18 30.55c0 .3.37.45.5.45s.5-.14.5-.42v-5.17c0-.28-.37-.41-.5-.41s-.5.15-.5.45v5.1ZM15.22 23c.52 0 .78.51.78 1.53V33h-1v-7.69c0-.2-.06-.31-.48-.31-.12 0-.52.14-.52.42V33h-1V23h1v1.07c.13-.43.68-1.09 1.22-1.07ZM11 33l-.21-2.5H9.25L9 33H8l1-11h2l1 11h-1Zm-1.64-4h1.3L10 23.43 9.36 29ZM42 23c-.18.02-.57.1-.7.27-.12.18-.18.37-.3.73v-1h-1v10h1v-5.67c0-.46.77-.61 1-.61V23Z" fill="#F51A29"/></svg>