<!-- by TradingView --><svg width="56" height="56" viewBox="0 0 56 56" xmlns="http://www.w3.org/2000/svg"><path fill="#F0F3FA" d="M0 0h56v56H0z"/><path d="m49 32.19-.24.74c-.3-.07-1-.22-1.48-.22-.6 0-1.08.15-1.08.34 0 .18.2.26 1.24.45 1.04.18 1.56.6 1.56 1 0 1.13-2.24 1.5-3.12 1.5-.7 0-1.55-.15-1.88-.22l.2-.79c.24.09.91.26 1.68.26.96 0 1.12-.15 1.12-.45 0-.3-.36-.37-.96-.52-.6-.15-1.4-.37-1.4-.97 0-.86 1.88-1.31 2.8-1.31.74 0 1.35.12 1.56.19Z" fill="#ED1C24"/><path d="M47.6 30h-3.2c-.91 0-1.4-.82-1.4-1.9 0-2.06 1.65-4.1 3.39-4.1h3.2c.92 0 1.41.8 1.41 1.87 0 2.07-1.7 4.13-3.4 4.13Zm.42-2.6.31-1c.15-.41.22-.74.22-.95 0-.34-.18-.45-.53-.45h-.89c-.5 0-.82.34-1.17 1.4l-.31.96c-.17.51-.25.91-.25 1.16 0 .35.15.48.43.48h.9c.53 0 .9-.4 1.29-1.6ZM40.9 30h-4.5c-.9 0-1.4-.8-1.4-1.9 0-2.05 1.66-4.1 3.4-4.1h4.48c.08 0 .12.04.12.11 0 .04 0 .07-.02.12l-.2.53c-.04.16-.13.24-.25.24H39.6c-.56 0-.87.32-1.23 1.4l-.31.96c-.17.5-.25.88-.25 1.14 0 .36.17.5.48.5h2.97c.09 0 .12.04.12.11 0 .03 0 .08-.03.13l-.18.52c-.05.16-.14.24-.25.24ZM32.93 30h-4.55c-.88 0-1.38-.8-1.38-1.9 0-2.05 1.64-4.1 3.35-4.1h4.53c.08 0 .12.04.12.11a.4.4 0 0 1-.02.12l-.19.53c-.05.16-.13.24-.25.24h-3.01c-.56 0-.87.32-1.22 1.4l-.3.96c-.17.5-.25.88-.25 1.14 0 .36.16.5.47.5h3.05c.07 0 .11.04.11.11 0 .03 0 .08-.02.13l-.19.52c-.05.16-.13.24-.25.24Z" fill="#036086"/><path d="M31.1 27h2.52c.08 0 .15-.05.17-.15l.2-.7.01-.06c0-.06-.04-.09-.11-.09h-2.52c-.1 0-.16.08-.2.22l-.15.56a.35.35 0 0 0-.02.12c0 .07.03.1.1.1ZM24 30h-4.88c-.08 0-.12-.04-.12-.1 0-.05 0-.08.02-.14l.19-.52c.05-.16.13-.24.25-.24h3.69l-2.4-1.92c-.38-.3-.5-.67-.5-1.02 0-1 .8-2.06 1.87-2.06h4.76c.08 0 .12.04.12.11 0 .04 0 .07-.03.12l-.18.53c-.05.16-.14.24-.25.24h-3.58l2.4 1.91c.4.31.5.69.5 1.03 0 1-.78 2.06-1.87 2.06Z" fill="#036086"/><path d="M17.77 30h-2.92c-.16 0-.25-.06-.3-.18l-1.47-3.52L10 29h3.17c.1 0 .13.04.13.11l-.03.13-.2.52c-.06.16-.15.24-.27.24H8.1c-.07 0-.1-.04-.1-.1 0-.07.04-.13.11-.19l6.04-5.54c.13-.1.24-.17.36-.17h.46c.13 0 .2.06.25.17L18 29.69l.01.1c0 .11-.07.21-.23.21Z" fill="#ED1C24"/><path d="M6.85 30H4.5c-.06 0-.1-.03-.1-.06l.01-.05L6.02 25H4.09c-.06 0-.09-.02-.09-.06v-.04l.27-.79c.03-.07.09-.11.16-.11h6.48c.06 0 .09.02.09.06v.05l-.28.8c-.02.06-.08.09-.16.09H8.63L7 29.89c-.02.07-.08.11-.16.11Z" fill="#036086"/><path d="m39 36 1.08-4h1.73l-.19.74h.07c.4-.53 1.11-.74 1.76-.74.18 0 .4.01.55.04l-.27 1.02C43.5 33 43.23 33 43 33c-.78 0-1.45.28-1.6.77L40.8 36H39ZM36 36l.97-3.75h1.62L37.62 36H36ZM37.1 31.84l.28-.84H39l-.29.84H37.1ZM28.88 36H27l4.25-5h2.26L35 36h-1.88l-1.01-3.86h-.07L28.88 36Zm.43-2h4.45l-.23 1h-4.45l.23-1Z" fill="#ED1C24"/></svg>