<!-- by TradingView --><svg width="56" height="56" viewBox="0 0 56 56" xmlns="http://www.w3.org/2000/svg"><path fill="#F0F3FA" d="M0 0h56v56H0z"/><path d="M17 21c.13-.16 1.2-2 2.97-2 1.84 0 2.15.78 2 .98-.16.2-.83-.33-1.9-.33-1.07 0-2.4.65-3.06 1.34ZM9 28.3c.38-5.12 4.16-7 6-7.3-.16.65-2.21 1.73-4.1 3.9-1.52 1.74-1.44 4.15-1.23 5.1-.31 0-.67-.94-.67-1.7ZM15 23.71c0-1.52 1.33-2.44 2-2.71.08.42-1.38 1.27-1.38 2.71 0 1.16.64 2 .96 2.29-.53-.13-1.58-.77-1.58-2.29Z" fill="#FF9429"/><path d="M9.17 31.63A8.98 8.98 0 0 1 7 25.76C7 18.08 13.98 16 17.4 16c2.74 0 5.54.94 6.6 1.41l-3.07 1.9 1.84-1.76c-.82-.32-3.05-.95-5.5-.95-3.07 0-9.7 1.97-9.7 9.16 0 5.75 5.68 8.93 8.43 9.75V36c-1.31-.36-3.02-.42-4.52-.54.18 1.54.32 3.8.52 4.54a9.3 9.3 0 0 1-3-6.85c0-.63.06-1.15.17-1.52Zm.3.35c-.29 1.28-.25 3.98 1.91 6.9-.3-1.27-.24-2.59-.38-3.88 1.1.09 2.19.25 3.29.3a13.92 13.92 0 0 1-4.82-3.32ZM30.9 26 28 33h3v-1h3v1h3l-2.9-7h-3.2Zm1.6 2.21.67 1.79h-1.34l.67-1.79Z" fill="#FF9429"/><path fill-rule="evenodd" d="M47 33c2.2 0 4-1.56 4-3.48S49.2 26 47 26s-4 1.6-4 3.52S44.8 33 47 33Zm0-1.54c.96 0 1.73-.87 1.73-1.94 0-1.07-.77-1.94-1.73-1.94s-1.73.87-1.73 1.94c0 1.07.77 1.94 1.73 1.94Z" fill="#E0E030"/><path d="M43 30.58A3.6 3.6 0 0 1 39.57 33 3.53 3.53 0 0 1 36 29.52C36 27.6 37.6 26 39.57 26A3.6 3.6 0 0 1 43 28.53h-2.1c-.26-.57-.76-.95-1.33-.95-.85 0-1.55.87-1.55 1.94 0 1.07.7 1.94 1.55 1.94.55 0 1.02-.35 1.3-.88H43Z" fill="#E0E030"/><path d="M16 33v-7h3l2 3v-3h2v1h1v-1h5v7h-3v-5h-2v5h-2.79L19 29.88V33h-3Z" fill="#FF9429"/></svg>