<!-- by TradingView --><svg width="56" height="56" viewBox="0 0 56 56" xmlns="http://www.w3.org/2000/svg"><path fill="#F0F3FA" d="M0 0h56v56H0z"/><path d="M28 11c6.13 0 11.88 3.54 15 8.77L39.22 23c-1.88-3.45-5.42-5.87-9.22-7v11.6c4.92-.95 10.07-2.9 13.44-6.64 1 2.28 1.56 4.7 1.56 7.2 0 5.87-3.32 11.03-8 14.25l-2.52-4.43c2.63-1.54 4.36-4.5 5.02-7.48A24.73 24.73 0 0 1 30 33v6.77c1.02-.32 2.58-.82 3.47-1.4L36 43c-2.48 1.36-5.18 2-8 2-2.82 0-5.52-.64-8-2l2.53-4.63c.9.58 2.45 1.08 3.47 1.4V33a24.73 24.73 0 0 1-9.5-2.5c.66 2.98 2.4 5.94 5.02 7.48L19 42.41c-4.68-3.22-8-8.38-8-14.25 0-2.5.55-4.92 1.56-7.2 3.37 3.75 8.52 5.69 13.44 6.64V16c-3.8 1.13-7.34 3.55-9.22 7L13 19.77C16.12 14.54 21.87 11 28 11Zm0 1c-7 0-11.82 4.88-13.6 7.56l2.1 1.94c2.25-3.67 6.38-6.06 10.5-6.94V29c-4.86-.94-10.66-2.3-14.23-5.84a17.2 17.2 0 0 0-.77 5c0 3.29 1.7 8.78 6.7 12.51L20 38.4c-3.15-2.32-4.53-6.08-5.01-9.83C18.81 30.64 22.6 32 27 32v9c-1.07-.25-2.92-.62-4.06-1.25l-1.4 2.74A16.3 16.3 0 0 0 28 44c2.81 0 5.22-.97 6.46-1.51l-1.4-2.74c-1.14.63-2.99 1-4.06 1.25v-9c4.4 0 8.2-1.36 12.01-3.44-.48 3.75-1.86 7.51-5.01 9.83l1.3 2.28c5-3.73 6.7-9.22 6.7-12.5 0-2.06-.41-3.9-.77-5.01C39.63 26.73 33.98 28.3 29 29V14.56c4.12.88 8.25 3.27 10.5 6.94l2.1-1.94C39.83 16.88 35 12 28 12Z" fill="#E02027"/></svg>