<!-- by TradingView --><svg width="56" height="56" viewBox="0 0 56 56" xmlns="http://www.w3.org/2000/svg"><path fill="#F0F3FA" d="M0 0h56v56H0z"/><path fill-rule="evenodd" d="M40.38 33.99c3.46-2 5.62-4.84 5.62-7.99 0-6.08-8.06-11-18-11s-18 4.92-18 11c0 3.15 2.16 5.98 5.62 7.99a13 13 0 0 0 24.76 0Zm0 0A13 13 0 0 0 28 17a13 13 0 0 0-12.38 16.99C18.85 35.85 23.21 37 28 37c4.8 0 9.15-1.15 12.38-3.01Z" fill="#1F4FA4"/><path d="m28 16 19 27-19-18.57L9 43l19-27Z" fill="#1F4FA4"/><path d="M30 35v-1.5h.97c.1.5.5.73.99.73.5 0 .7-.14.7-.34s-.18-.29-.53-.39l-.92-.24c-.6-.16-1.21-.45-1.21-1.16 0-.78.91-1.1 1.56-1.1.44 0 1.13.07 1.44.41V31h1v1.37h-.97c-.1-.46-.68-.65-1.14-.65-.35 0-.56.1-.56.3 0 .25.28.32.47.38l.96.25c.59.16 1.24.47 1.24 1.16 0 .84-1 1.19-1.69 1.19-.45 0-.98-.08-1.31-.43V35h-1Z" fill="#478EF6"/><path d="M27 35v-.74h.44v-2.52H27v.65h-1V31h4v1.4h-1v-.66h-.44v2.52H29V35h-2ZM23.79 35v-.74h.48l-.18-.49h-1.4l-.17.5H23V35h-2v-.74h.42l1.03-2.52H22V31h2.24l1.34 3.26H26V35h-2.21Zm-.4-3.15L22.95 33h.9l-.46-1.15Z" fill="#478EF6"/></svg>