<!-- by TradingView --><svg width="56" height="56" viewBox="0 0 56 56" xmlns="http://www.w3.org/2000/svg"><path fill="#F0F3FA" d="M0 0h56v56H0z"/><path fill-rule="evenodd" d="M12 12h32v32H12V12Zm30 2H14v28h28V14Zm-1 1H15v26h26V15Zm-6 19h-4.65c-.22-.1-.7-.35-.9-.62-.57.21-2.13.62-3.85.62-2.15 0-4.6-1.52-4.6-4.45 0-2.94 2.7-5.17 3.7-5.55.15 0 .3.05.3.38 0 .1-.16.34-.4.69-.58.88-1.6 2.42-1.6 3.91 0 2.08 1.95 3.5 3.9 3.5.88 0 1.57-.25 1.8-.37l-.02-.05c-.2-.5-.68-1.76-.68-3.08 0-.73.1-1.7.2-2.8.14-1.47.3-3.19.3-4.92 0-1.6-1-2.26-2.4-2.26s-2.15 1-2.1 1.67c0 .24-.1.33-.35.33H22c-.3-.05-1-.22-1-.52 0-.15.1-.17.3-.22.32-.07.85-.2 1.55-.92C24 18.16 25.25 17 27.55 17c2.3 0 5.45.28 5.45 6.96v5.59c-.02.96.56 3.2 2 4.45Zm-8-13a1 1 0 1 1-2 0 1 1 0 0 1 2 0Zm11.4 14.05c-.03-.03-.09-.05-.17-.05-.08 0-.14.02-.18.05-.03.03-.05.09-.05.16V36h-.8c-.08 0-.13.02-.16.05-.03.03-.04.1-.04.17 0 .08.01.14.04.17.03.04.08.05.15.05H38v1.41c0 .76.12 1.15.82 1.15.34 0 .76-.15 1.08-.36.07-.05.1-.1.1-.17a.35.35 0 0 0-.04-.15c-.05-.1-.1-.15-.18-.15a.15.15 0 0 0-.1.03c-.27.2-.59.33-.86.33-.36 0-.36-.22-.36-.72v-1.37h1.07c.07 0 .12-.01.15-.05.03-.03.05-.09.05-.17 0-.08-.02-.14-.05-.17-.03-.03-.08-.05-.15-.05h-1.07v-.79c0-.07-.02-.13-.05-.16Zm-3.89.95c.31 0 .57.06.79.18.22.12.38.29.5.5.12.22.18.46.2.74 0 .07-.02.12-.05.15-.03.03-.08.04-.15.04h-2.3c.02.31.11.55.28.7.17.16.42.24.73.24a2.38 2.38 0 0 0 1.08-.27.22.22 0 0 1 .1-.02c.08 0 .14.05.18.16a.3.3 0 0 1 .03.12c0 .08-.04.14-.14.19a3.07 3.07 0 0 1-1.25.27c-.32 0-.59-.06-.81-.18-.23-.12-.4-.3-.52-.52a1.7 1.7 0 0 1-.18-.8c0-.3.06-.56.2-.78.12-.23.3-.4.53-.53.23-.13.49-.19.78-.19Zm0 .45c-.26 0-.47.06-.64.2a.9.9 0 0 0-.34.53h1.94a.85.85 0 0 0-.3-.54 1.02 1.02 0 0 0-.66-.2Zm-3.56-.4c-.03-.03-.08-.05-.16-.05h-1.38c-.08 0-.13.02-.17.05-.03.03-.04.1-.04.17 0 .08.01.14.04.17.04.04.1.05.17.05h1.1v2.12h-1.3c-.08 0-.13.02-.16.05-.03.03-.05.09-.05.17 0 .08.02.14.05.17.03.03.08.05.16.05h2.58c.08 0 .13-.02.16-.05.03-.03.05-.1.05-.17 0-.08-.02-.14-.05-.17-.03-.03-.08-.05-.16-.05H31v-2.34c0-.08-.02-.14-.05-.17Zm-.02-1c-.04-.04-.12-.05-.24-.05s-.2.01-.25.04c-.04.03-.07.08-.07.15v.38c0 .07.03.12.07.15.04.03.13.04.25.04s.2-.01.24-.04c.05-.03.07-.08.07-.15v-.38c0-.07-.02-.12-.07-.15Zm-2.97 1c-.02-.03-.07-.05-.13-.05H27c-.06 0-.1.02-.13.05-.03.03-.04.09-.04.17 0 .07.01.13.04.16.02.04.07.05.13.05h.23l-.74 2.07-.72-2.07h.34c.06 0 .1-.01.13-.05.02-.03.04-.09.04-.16 0-.08-.02-.14-.04-.17-.03-.03-.07-.05-.13-.05h-.94c-.06 0-.1.02-.13.05-.03.03-.04.09-.04.17 0 .07.01.13.04.16.02.04.07.05.13.05h.16l.85 2.36c.03.08.07.13.11.16.05.03.12.05.2.05.09 0 .16-.02.2-.05a.29.29 0 0 0 .12-.16l.86-2.36h.16c.06 0 .1-.01.13-.05.03-.03.04-.09.04-.16 0-.08-.01-.14-.04-.17ZM23.42 36c.06 0 .1.02.13.05.03.03.04.09.04.17v2.35h.23c.07 0 .11.02.14.05.03.03.04.09.04.16 0 .08-.01.14-.04.17s-.07.05-.14.05h-.44c-.06 0-.11-.02-.14-.05-.02-.03-.04-.08-.04-.16v-.46c-.12.22-.27.38-.43.5a.91.91 0 0 1-.53.17.78.78 0 0 1-.45-.12.8.8 0 0 1-.28-.37c-.07-.15-.1-.33-.1-.54v-1.54h-.23c-.07 0-.11-.01-.14-.05-.03-.03-.04-.09-.04-.16 0-.08.01-.14.04-.17s.07-.05.14-.05h.47c.06 0 .1.02.13.05.03.03.05.09.05.17v1.7c0 .19.03.34.11.45.08.1.19.16.34.16.16 0 .3-.05.44-.15.14-.1.25-.25.33-.43.08-.18.12-.39.12-.61v-.9h-.4c-.06 0-.1-.02-.13-.06-.03-.03-.04-.09-.04-.16 0-.08.01-.14.04-.17s.07-.05.14-.05h.64Zm-3.98 1.03c0-.68-.31-1.03-1.02-1.03a2.24 2.24 0 0 0-1.1.28c-.07.04-.1.1-.1.17 0 .03 0 .07.02.12.05.1.1.15.16.15.03 0 .06 0 .1-.03a2.17 2.17 0 0 1 .9-.24c.45 0 .6.16.6.58v.27c-.28-.11-.5-.16-.81-.16-.35 0-.64.08-.86.23-.22.16-.33.4-.33.73a.84.84 0 0 0 .48.8 1.47 1.47 0 0 0 1.12-.02c.15-.07.24-.15.36-.26l.08-.08c.03.13.09.3.18.36.1.07.28.1.4.1h.2c.06 0 .1-.02.14-.05.03-.03.04-.08.04-.16s-.01-.13-.04-.16-.08-.05-.14-.05h-.1c-.14 0-.28-.15-.28-.31v-1.24Zm-1.78.67a1 1 0 0 1 .53-.13c.16 0 .3.02.46.04.12.02.18.04.26.07l.09.03v.34c-.31.34-.58.51-.97.51a.63.63 0 0 1-.42-.12.44.44 0 0 1-.15-.35c0-.18.07-.31.2-.4Z" fill="#4EA348"/></svg>