<!-- by TradingView --><svg width="56" height="56" fill="none" xmlns="http://www.w3.org/2000/svg"><path fill="#F0F3FA" d="M0 0h56v56H0z"/><path d="M25.776 25.777c-.626-1.597-.996-3.444-1.102-4.168 0-5.915-3.884-9.536-5.825-10.607-.593 2.169-.342 7.13.752 10.315.876 2.547 3.642 4.248 4.916 4.78.68.558 1.886 1.277 1.26-.32Z" fill="url(#a)"/><path d="M22.042 15.286C20.55 12.58 19.321 11.301 18.893 11c4.765 1.297 8.22 6.317 8.945 7.416.725 1.1.669 1.862.502 2.172-.168.31-.753 3.158-.864 4.089-.09.744-.427.893-.585.874-.372-.348-1.215-1.263-1.616-2.143-.502-1.1-.78-1.946-.864-3.13-.084-1.185-.502-1.608-2.369-4.992Z" fill="url(#b)"/><path d="M25.04 29.525c-1.696.098-3.544-.13-4.257-.257-5.545-1.865-10.166.722-11.783 2.249 1.847 1.253 6.578 2.578 9.91 2.53 2.665-.036 5.132-2.157 6.032-3.212.739-.478 1.792-1.408.097-1.31Z" fill="url(#c)"/><path d="M14.025 29.802c-3.01.58-4.595 1.356-5.012 1.672 2.719-4.167 8.516-5.902 9.775-6.251 1.26-.349 1.957-.055 2.195.203.238.259 2.724 1.719 3.561 2.12.67.32.703.691.636.837-.444.247-1.568.768-2.52.876-1.19.135-2.07.136-3.207-.158-1.137-.293-1.666-.025-5.428.7Z" fill="url(#d)"/><path d="M29.406 24.781c1.309-1.094 2.932-2.018 3.58-2.343 5.56-1.82 7.771-6.673 8.181-8.872-2.222.096-6.81 1.864-9.467 3.897-2.126 1.627-2.874 4.814-2.982 6.204-.316.828-.62 2.209.688 1.114Z" fill="url(#e)"/><path d="M38.121 17.959c2.086-2.271 2.91-3.847 3.062-4.35.246 4.987-3.411 9.858-4.222 10.894-.811 1.036-1.544 1.216-1.887 1.15-.344-.065-3.201.248-4.11.427-.728.143-.972-.137-1.003-.295.213-.465.814-1.558 1.518-2.215.88-.822 1.59-1.35 2.678-1.795 1.088-.445 1.357-.977 3.964-3.816Z" fill="url(#f)"/><path d="M31.252 27.805c1.383.996 2.685 2.343 3.163 2.893 3.175 4.965 8.38 5.869 10.585 5.7-.667-2.147-3.541-6.174-6.17-8.245-2.103-1.657-5.339-1.563-6.693-1.31-.872-.094-2.269-.034-.886.962Z" fill="url(#g)"/><path d="M40.019 34.558c2.707 1.451 4.424 1.849 4.944 1.867-4.696 1.53-10.292-.783-11.49-1.308-1.2-.525-1.561-1.194-1.588-1.547-.026-.352-1.064-3.065-1.47-3.907-.325-.674-.12-.985.022-1.056.499.088 1.698.392 2.507.91 1.012.648 1.7 1.205 2.406 2.153.706.948 1.284 1.074 4.669 2.888Z" fill="url(#h)"/><path d="M28.656 30.944c-.43 1.662-1.215 3.372-1.553 4.019-3.463 4.764-2.456 10.01-1.52 12.037 1.749-1.392 4.452-5.538 5.435-8.76.787-2.577-.446-5.606-1.16-6.798-.222-.859-.772-2.16-1.202-.498Z" fill="url(#i)"/><path d="M25.52 41.634c-.382 3.076-.141 4.842.027 5.34-3.079-3.902-2.923-10.017-2.862-11.338.06-1.32.551-1.9.867-2.05.317-.149 2.456-2.092 3.09-2.775.508-.546.868-.463.984-.353.095.503.239 1.746.047 2.695-.24 1.187-.511 2.036-1.137 3.04-.627 1.004-.538 1.595-1.016 5.44Z" fill="url(#j)"/><path fill-rule="evenodd" clip-rule="evenodd" d="M26.626 26.67a8.966 8.966 0 0 1-.871-1.392l.173-.087c.165.335.472.864.851 1.358.314.409.67.785 1.032 1.012a20.13 20.13 0 0 1 1.59-2.26l.148.126a19.965 19.965 0 0 0-1.568 2.229l.066.03c.502.218.919.285 1.349.353.055.01.111.018.168.027.492.082 1.008.19 1.665.553l-.092.172c-.63-.347-1.122-.451-1.605-.531-.055-.01-.11-.018-.166-.027-.417-.067-.844-.135-1.349-.347.038.11.069.243.095.386.046.253.08.555.104.869.048.627.06 1.309.055 1.745l-.193-.002a21.459 21.459 0 0 0-.056-1.728 8.61 8.61 0 0 0-.1-.848c-.03-.166-.065-.3-.102-.398-.316.424-.805.685-1.294.841a4.685 4.685 0 0 1-1.466.214l.005-.196c.335.01.877-.036 1.403-.205.496-.159.965-.422 1.242-.836-.393-.247-.767-.646-1.084-1.059Z" fill="#774626"/><defs><linearGradient id="a" x1="22.999" y1="20.763" x2="25.803" y2="18.764" gradientUnits="userSpaceOnUse"><stop stop-color="#C27D3A"/><stop offset="1" stop-color="#FFF4E8" stop-opacity="0"/></linearGradient><linearGradient id="b" x1="23.669" y1="24.649" x2="23.915" y2="25.747" gradientUnits="userSpaceOnUse"><stop offset=".032" stop-color="#D4A033"/><stop offset="1" stop-color="#D4A033" stop-opacity="0"/></linearGradient><linearGradient id="c" x1="19.462" y1="30.61" x2="18.413" y2="27.305" gradientUnits="userSpaceOnUse"><stop stop-color="#C27D3A"/><stop offset="1" stop-color="#FFF4E8" stop-opacity="0"/></linearGradient><linearGradient id="d" x1="23.317" y1="31.192" x2="24.424" y2="31.306" gradientUnits="userSpaceOnUse"><stop offset=".032" stop-color="#D4A033"/><stop offset="1" stop-color="#D4A033" stop-opacity="0"/></linearGradient><linearGradient id="e" x1="33.266" y1="20.565" x2="36.054" y2="22.587" gradientUnits="userSpaceOnUse"><stop stop-color="#C27D3A"/><stop offset="1" stop-color="#FFF4E8" stop-opacity="0"/></linearGradient><linearGradient id="f" x1="29.819" y1="22.406" x2="28.853" y2="22.965" gradientUnits="userSpaceOnUse"><stop offset=".032" stop-color="#D4A033"/><stop offset="1" stop-color="#D4A033" stop-opacity="0"/></linearGradient><linearGradient id="g" x1="36.275" y1="30.486" x2="35.004" y2="33.711" gradientUnits="userSpaceOnUse"><stop stop-color="#C27D3A"/><stop offset="1" stop-color="#FFF4E8" stop-opacity="0"/></linearGradient><linearGradient id="h" x1="33.626" y1="27.593" x2="32.825" y2="26.811" gradientUnits="userSpaceOnUse"><stop offset=".032" stop-color="#D4A033"/><stop offset="1" stop-color="#D4A033" stop-opacity="0"/></linearGradient><linearGradient id="i" x1="27.957" y1="36.648" x2="24.527" y2="36.617" gradientUnits="userSpaceOnUse"><stop stop-color="#C27D3A"/><stop offset="1" stop-color="#FFF4E8" stop-opacity="0"/></linearGradient><linearGradient id="j" x1="29.692" y1="33.116" x2="30.152" y2="32.091" gradientUnits="userSpaceOnUse"><stop offset=".032" stop-color="#D4A033"/><stop offset="1" stop-color="#D4A033" stop-opacity="0"/></linearGradient></defs></svg>