<!-- by TradingView --><svg width="56" height="56" fill="none" xmlns="http://www.w3.org/2000/svg"><path fill="#F0F3FA" d="M0 0h56v56H0z"/><path fill-rule="evenodd" clip-rule="evenodd" d="m44.632 20.924-.399-.696h-.968l.2.348.284.497h.868l.4.695.2-.349.283-.495h-.868Zm-.016.15h-.868l.4.695h.867l-.399-.695Zm.485-.846h-.868l.399.696h.868l-.399-.696Zm.413-2.383h.882l.441.77.442.77-.442.77-.042.074h.968l.484-.845-.683-1.192L46.88 17h-2.734l-.684 1.193-.683 1.193.483.843h.97l-.043-.074-.442-.77.442-.77.44-.77h.883Z" fill="#48B048"/><path fill-rule="evenodd" clip-rule="evenodd" d="m48.148 21.074.441.77.441.77-.44.77-.442.769h-1.764l-.4-.697-.2.35-.284.496.399.696h2.734l.683-1.193.684-1.193-.684-1.192-.683-1.193h-.869l-.2.348-.284.497.868.002Zm-.883 0h-.881l-.4.695h.897l.399-.695h-.015Zm-.869-.15.399-.695h-.896l-.399.695h.896Zm.883.15.284-.497.2-.348h-.968l-.399.695H45.5l.285.497.2.348.399-.695h.895Z" fill="#EF4036"/><path fill-rule="evenodd" clip-rule="evenodd" d="m45.058 23.383.441-.77-.441-.77-.043-.074-.484.843.483.844.044-.073Zm.456-1.614h.47l-.2-.348-.284-.497-.285.497-.2.348h.498Zm-.013.844.441.77.043.075.484-.844-.483-.843-.043.074-.442.768Zm-.002 0-.441.768-.043.075.2.348.285.497.285-.497.2-.348-.043-.075-.441-.77.441-.77.043-.074h-.969l.043.074.44.771Zm-1.75-1.539-.286-.497-.2-.348h-.896l-.683 1.193L41 22.614l.684 1.193.683 1.193h2.734l.399-.695-.285-.497-.2-.348-.399.696h-1.764l-.441-.77-.441-.77.44-.77.442-.769h.896v-.003Z" fill="#7B301B"/><path fill-rule="evenodd" clip-rule="evenodd" d="M34 29v-4h5v-2h-7v14h2v-6h4.998v-2M24.406 29c1.955 0 2.545 1.233 2.562 2.927.02 2.03-.536 3.056-2.562 3.073-1.734.013-2.406-1.319-2.406-3.043C21.999 30.2 22.61 29 24.406 29ZM29 37V27h-2v1.53c0-1.512-1.477-1.53-2.74-1.53-2.602 0-4.26 2.24-4.26 4.973C20 34.723 21.588 37 24.226 37 25.56 37 27 36.72 27 35.127V37h2ZM12.265 31c1.95 0 4.791-.301 4.791 2.012S14.891 35 13.237 35H12v-4h.265Zm3.49-4.267c0 1.021-.18 1.53-1.278 1.955-.465.18-1.196.312-2.187.312H12v-4h1.126c1.425 0 2.629.438 2.629 1.733Zm.568 2.696c1.004-.429 1.396-1.95 1.396-2.85 0-2.485-2.481-3.572-4.625-3.575L10 23v14h4.908c2.462 0 4.074-1.431 4.092-4.007.014-2.015-1.544-3.186-2.677-3.564Z" fill="#093"/></svg>