<!-- by TradingView --><svg width="56" height="56" viewBox="0 0 56 56" xmlns="http://www.w3.org/2000/svg"><path fill="#F0F3FA" d="M0 0h56v56H0z"/><path d="M40 34V22h4.64c2.54 0 4.36 1.63 4.36 4 0 2.39-1.83 4-4.4 4h-3.07v-2h3.06c1.44 0 2.41-.66 2.41-2 0-1.35-.99-2-2.42-2H42v10h-2ZM29 34V22h5.15c2.07 0 3.89.9 3.89 3.11 0 1.33-.5 2.26-1.88 2.56v.11C37.84 27.87 39 29 39 30.5c0 2.33-2.34 3.5-4.55 3.5H29Zm2-2h3.53c1.14 0 2.5-.24 2.5-1.5 0-1.23-1.22-2-2.43-2H31V32Zm0-5h2.85c1.1 0 2.18-.44 2.18-1.56S34.98 24 33.9 24H31v3ZM7 34V22h5.15c2.07 0 3.89.9 3.89 3.11 0 1.33-.5 2.26-1.88 2.56v.11C15.84 27.87 17 29 17 30.5c0 2.33-2.34 3.5-4.55 3.5H7Zm2-2h3.53c1.14 0 2.5-.24 2.5-1.5 0-1.23-1.22-2-2.43-2H9V32Zm0-5h2.85c1.1 0 2.18-.44 2.18-1.56S12.98 24 11.9 24H9v3ZM19.18 34H17l4.55-12h2.9L29 34h-2.18L23 23.67 19.18 34Zm.4-5h6.82v2h-6.82v-2Z"/></svg>