<!-- by TradingView --><svg width="56" height="56" viewBox="0 0 56 56" xmlns="http://www.w3.org/2000/svg"><path fill="#F0F3FA" d="M0 0h56v56H0z"/><path d="M16 19.42a1.43 1.43 0 0 1 2 0l7.58 7.57c.56.56.56 1.46 0 2.02l-7.57 7.57c-.56.56-1.46.56-2.02 0l-7.57-7.57a1.43 1.43 0 0 1 0-2.02l7.57-7.57ZM38 19.42a1.43 1.43 0 0 1 2 0l7.58 7.57c.56.56.56 1.46 0 2.02l-7.57 7.57c-.56.56-1.46.56-2.02 0l-7.57-7.57a1.43 1.43 0 0 1 0-2.02l7.57-7.57Z" fill="#002763"/><path d="M27 9.42a1.43 1.43 0 0 1 2 0l7.58 7.57c.56.56.56 1.46 0 2.02l-7.57 7.57c-.56.56-1.46.56-2.02 0l-7.57-7.57a1.43 1.43 0 0 1 0-2.02l7.57-7.57Z" fill="#FF051B"/><path fill-rule="evenodd" d="M38.38 37.61H17.62v4.78h20.76V37.6ZM17 37v6h22v-6H17Z" fill="#002763"/><path fill="#4E5A6D" fill-opacity=".5" d="M18 40h20v2H18z"/></svg>