<!-- by TradingView --><svg width="56" height="56" viewBox="0 0 56 56" xmlns="http://www.w3.org/2000/svg"><path fill="#F0F3FA" d="M0 0h56v56H0z"/><path fill-rule="evenodd" d="M52 28c0 5.52-10.75 10-24 10S4 33.52 4 28s10.75-10 24-10 24 4.48 24 10Zm-45.2.5c-.87 0-1.56-.37-1.8-.56.54 1.7 1.8 3.06 2.9 3.06 1.08 0 1.88-.47 3.32-1.74 1.43-1.26 2.49-1.67 3.35-1.67a3 3 0 0 1 1.43.35c-.49-2.09-1.29-2.94-2.43-2.94-1.15 0-1.92.65-3.07 1.65-1.15 1-2.6 1.85-3.7 1.85Zm33.2-.56c.24.19.93.56 1.8.56 1.1 0 2.55-.85 3.7-1.85 1.15-1 1.92-1.65 3.07-1.65 1.14 0 1.94.85 2.43 2.94a3 3 0 0 0-1.43-.35c-.86 0-1.92.41-3.35 1.67-1.44 1.27-2.24 1.74-3.33 1.74-1.09 0-2.35-1.35-2.89-3.06Zm-1.15-2.56c.03-.09.07-.14.1-.16.03-.02.1-.03.19-.03.14 0 .33-.05.54-.15.06-.03.1-.04.15-.04.11 0 .17.16.17.48 0 .25-.03.51-.08.8-.05.27-.16.76-.33 1.46-.19.74-.3 1.22-.34 1.42-.04.2-.06.38-.06.51 0 .2.06.32.2.37.11.04.17.13.17.27 0 .13-.04.22-.14.26l-.32.04c-.1 0-.22.04-.4.11l-.39.18c-.08.06-.14.1-.19.1-.05 0-.1-.05-.13-.14-.03-.1-.05-.22-.05-.37s0-.34.03-.55l-.34.5c-.24.37-.5.56-.78.56-.24 0-.44-.14-.6-.43a2.07 2.07 0 0 1-.25-1.06 6.2 6.2 0 0 1 1.03-3.32c.25-.37.5-.66.75-.87.25-.2.47-.31.66-.31.18 0 .3.12.4.37Zm-.05.72c-.08.08-.14.11-.19.11-.05 0-.09-.03-.13-.09a.4.4 0 0 1-.05-.21v-.11a.8.8 0 0 0 .01-.07c0-.06-.01-.1-.05-.1-.07 0-.17.12-.3.36a12.16 12.16 0 0 0-.77 2.29c-.09.47-.14.86-.14 1.17 0 .24.05.37.16.37.12 0 .28-.17.47-.5a10.09 10.09 0 0 0 .99-3.21Zm-4.14-.2c.16-.2.3-.3.41-.29.06.01.1.05.1.1a.3.3 0 0 1-.03.1c-.08.2-.12.36-.12.48 0 .16.04.29.13.4.09.12.2.17.31.17.15 0 .27-.08.38-.24a1.19 1.19 0 0 0-.06-1.29.8.8 0 0 0-.7-.33c-.32 0-.66.13-1 .38-.36.25-.7.6-1.02 1.07-.32.46-.58.97-.77 1.53A4.7 4.7 0 0 0 32 29.5c0 .4.1.73.3 1.02.2.31.49.47.84.47.49 0 .98-.28 1.47-.84.2-.24.36-.43.44-.56a.68.68 0 0 0 .13-.35.28.28 0 0 0-.05-.16c-.04-.06-.08-.09-.12-.09-.07 0-.18.1-.34.28-.25.27-.43.46-.56.56a.62.62 0 0 1-.38.15c-.08 0-.15-.04-.21-.14a.7.7 0 0 1-.08-.35c0-.32.07-.74.22-1.29.14-.54.32-1.03.52-1.49.16-.35.32-.62.48-.82Zm-4.74-.4h.1a5.09 5.09 0 0 0 1.17-.16.8.8 0 0 1 .24-.06c.16 0 .24.16.24.5 0 .25-.04.53-.12.84-.09.31-.29.93-.6 1.84-.13.38-.22.7-.27.95-.05.26-.07.54-.07.84 0 .15-.03.25-.08.31s-.15.1-.3.13c-.22.04-.49.12-.81.26a.53.53 0 0 1-.2.05c-.15 0-.22-.17-.22-.5a5 5 0 0 1 .21-1.3c.1-.32.3-.93.63-1.81.2-.56.3-.93.3-1.11 0-.16-.07-.26-.23-.3-.18-.03-.27-.12-.27-.25 0-.17.1-.25.28-.24Zm1.4-2.5c.2 0 .35.08.48.23.13.16.2.35.2.58a1 1 0 0 1-.34.75c-.31.3-.63.44-.95.44a.65.65 0 0 1-.5-.23.87.87 0 0 1-.21-.6 1 1 0 0 1 .12-.47 1.43 1.43 0 0 1 1.2-.7Zm-8.4 2.5h.1a5.09 5.09 0 0 0 1.17-.16.8.8 0 0 1 .24-.06c.16 0 .24.16.24.5 0 .25-.04.53-.12.84-.09.31-.29.93-.6 1.84-.13.38-.22.7-.27.95-.05.26-.07.54-.07.84 0 .15-.03.25-.08.31s-.15.1-.3.13c-.22.04-.49.12-.81.26a.53.53 0 0 1-.2.05c-.15 0-.22-.17-.22-.5a5 5 0 0 1 .21-1.3c.1-.32.3-.93.63-1.81.2-.56.3-.93.3-1.11 0-.16-.07-.26-.23-.3-.18-.03-.27-.12-.27-.25 0-.17.1-.25.28-.24Zm1.4-2.5c.2 0 .35.08.48.23.13.16.2.35.2.58a1 1 0 0 1-.34.75c-.31.3-.63.44-.95.44a.65.65 0 0 1-.5-.23.87.87 0 0 1-.21-.6 1 1 0 0 1 .12-.47 1.43 1.43 0 0 1 1.2-.7Zm2.67 3.13c.19-.3.35-.5.48-.62.23-.24.45-.35.67-.35.25 0 .46.14.62.41.16.28.24.64.24 1.07 0 .5-.1 1.03-.3 1.6a5.7 5.7 0 0 1-1.38 2.33c-.3.29-.56.43-.8.43-.22 0-.39-.12-.51-.36a4.5 4.5 0 0 1-.33.13l-.27.14a.45.45 0 0 1-.2.07c-.14 0-.21-.19-.21-.56 0-.44.05-.93.15-1.47.1-.55.31-1.5.64-2.9l.35-1.55c.03-.16.05-.3.05-.41 0-.12-.01-.2-.05-.23-.03-.04-.1-.09-.22-.13-.1-.03-.13-.1-.13-.23 0-.14.05-.22.15-.26l.43-.03a1.94 1.94 0 0 0 .7-.17c.07-.03.11-.04.15-.04.06 0 .11.05.15.16.04.1.05.25.05.42 0 .38-.06.85-.18 1.4-.15.64-.23 1.03-.25 1.15Zm.65.2c-.1-.02-.22.08-.38.3-.16.22-.3.5-.44.81a8.84 8.84 0 0 0-.56 2.46c0 .12.01.23.05.32.03.09.08.13.13.13.12 0 .26-.13.41-.4a8.28 8.28 0 0 0 .93-3.26c.02-.22-.03-.34-.14-.37Zm-6.52.06a1.72 1.72 0 0 0-.66-.3l.14-.08c.67-.42 1.4-.88 1.4-1.77 0-.9-.92-1.24-1.7-1.24-.36 0-.77.03-1.22.09l-1.08.13a2 2 0 0 0-.66.12.3.3 0 0 0-.17.3c0 .14.09.23.27.28.13.03.2.11.2.24 0 .18-.22.9-.63 2.17-.67 2.02-1.01 3.38-1.01 4.06 0 .19.03.34.1.45.05.1.13.16.23.16.07 0 .17-.03.3-.08.25-.1.51-.15.8-.15.2 0 .41.06.62.11.21.06.42.12.63.12.37 0 .77-.1 1.18-.31.62-.32 1.1-.9 1.44-1.54.25-.48.38-.95.38-1.42 0-.6-.19-1.04-.56-1.34Zm-1.88-1.43c.13-.44.21-.86.25-1.24.18-.05.32-.08.42-.08.28 0 .46.23.46.6 0 .24-.06.49-.2.75-.13.27-.32.5-.55.7-.2.19-.44.35-.73.5l.35-1.23Zm-.65 2.43c.14-.26.33-.39.58-.39.17 0 .3.08.4.22.09.14.13.32.12.54-.02.6-.18 1-.48 1.54-.3.55-.53.7-.87.7-.48 0-.33-.93-.27-1.18.26-.88.44-1.26.52-1.43Z" fill="#ED1C24"/></svg>