<!-- by TradingView --><svg width="56" height="56" viewBox="0 0 56 56" xmlns="http://www.w3.org/2000/svg"><path fill="#F0F3FA" d="M0 0h56v56H0z"/><path d="M36.3 25c.39 0 .78.07 1.18.2.4.13.79.2.84.2.11 0 .21-.05.28-.13a.56.56 0 0 0 .14-.26H39v1.98h-.24c-.45-.86-1.3-1.7-2.35-1.7-1.46 0-1.41 1.53-1.41 2.7 0 1.74.31 2.6 1.52 2.6.9 0 1.58-.45 2.2-1.04l.28.2A3.63 3.63 0 0 1 36.38 31C34.64 31 33 29.9 33 28.04 33 26.2 34.54 25 36.3 25ZM26 30.77c.43 0 1-.1 1-.62v-4.3c0-.53-.57-.6-1-.62V25h3.2c.95 0 2.46.16 2.46 1.43 0 .76-.63 1.17-1.3 1.28v.09c.82.14 1.64.6 1.64 1.55 0 1.34-1.65 1.65-2.67 1.65H26v-.23Zm2.5-3.08c.9 0 1.5-.22 1.5-1.22 0-.66-.13-1.2-.86-1.2-.4 0-.64.1-.64.43v2Zm0 2.5c0 .34.28.52.63.52.84 0 1.28-.49 1.28-1.31 0-1.15-.91-1.42-1.91-1.4v2.18ZM17 30.77c.42-.01 1-.12 1-.62v-4.3c0-.5-.57-.59-1-.62V25h3.5v.23c-.43.02-1 .1-1 .62v1.74H22v-1.74c0-.52-.57-.6-1-.62V25h3.5v.23c-.43.03-1 .11-1 .62v4.3c0 .5.58.61 1 .62V31H21v-.23c.43 0 1-.1 1-.62V28h-2.5v2.15c0 .52.57.61 1 .62V31H17v-.23Z" fill="red"/><path fill-rule="evenodd" d="M38.58 13H17.42A4.42 4.42 0 0 0 13 17.42v21.16A4.42 4.42 0 0 0 17.42 43h21.16A4.42 4.42 0 0 0 43 38.58V17.42A4.42 4.42 0 0 0 38.58 13Zm-21.16-1c-3 0-5.42 2.43-5.42 5.42v21.16c0 3 2.43 5.42 5.42 5.42h21.16c3 0 5.42-2.43 5.42-5.42V17.42c0-3-2.43-5.42-5.42-5.42H17.42Z" fill="red"/><path d="M41 33H15c2 5.26 7.07 9 13 9s11-3.74 13-9ZM41 23H15c2-5.26 7.07-9 13-9s11 3.74 13 9Z" fill="#00F"/></svg>