<!-- by TradingView --><svg width="56" height="56" viewBox="0 0 56 56" xmlns="http://www.w3.org/2000/svg"><path fill="#F0F3FA" d="M0 0h56v56H0z"/><path d="M19.5 24.87c-.3.1-.43.07-.36-.1a.4.4 0 0 1 0-.2c.02-.04.04-.06.08-.07 1.1-.09 2-.39 2.73-.89.5-.34.9-.83 1.17-1.47.27-.61.38-1.24.34-1.88a2.28 2.28 0 0 0-.77-1.65c-.45-.4-1-.6-1.65-.6-2.38-.02-5.33-.01-8.86 0a.2.2 0 0 0-.15.07.23.23 0 0 0-.06.16v.2c0 .09.04.13.12.13h.85a.1.1 0 0 1 .08.04.1.1 0 0 1 .02.1l-2.77 12.64c-.01.05-.04.08-.1.08h-.94c-.08 0-.14.04-.16.13l-.07.33c-.01.06.01.1.08.1l7.1.01c.39 0 .88 0 1.49-.02a4.95 4.95 0 0 0 2.78-.96c.46-.32.8-.7 1.05-1.15.5-.93.76-1.8.76-2.63 0-1.06-.46-1.77-1.4-2.11-.3-.12-.76-.2-1.36-.26Zm-3-.67 1.23-5.52c.01-.04.03-.06.07-.07.32-.09.59-.07.81.06.25.14.37.39.36.73 0 .24-.03.48-.09.74l-.6 2.74a2.7 2.7 0 0 1-.52 1.2c-.26.26-.64.36-1.15.29-.1-.02-.13-.08-.1-.17Zm-1.6 7.14c0-.07.02-.1.07-.11l1.35-6.15c.02-.09.07-.14.16-.14.34 0 .64.1.9.32.15.12.24.26.27.45a2.8 2.8 0 0 1 0 .7c-.02.2-.05.42-.1.69l-.57 2.52c-.05.24-.12.47-.2.7-.29.79-.84 1.17-1.64 1.16-.15.08-.22.03-.24-.14Zm31.07-13.2a.18.18 0 0 0-.06-.13.06.06 0 0 0-.05 0c-.37.06-.98.3-1.81.7l-.01.01c-.12.06-.2.06-.26.03a3.7 3.7 0 0 0-3.41-.5c-.85.27-1.55.72-2.1 1.35-.43.5-.8 1.15-1.08 1.94-.26.71-.4 1.39-.41 2.02a4.34 4.34 0 0 0 2 3.73c.2.14.78.52 1.72 1.12.47.31.73.63.77.97.1.82-.2 1.43-.87 1.84a1.8 1.8 0 0 1-1.35.17c-.46-.1-.88-.29-1.26-.59a3 3 0 0 1-.57-.61 3.2 3.2 0 0 1-.4-.7 9.8 9.8 0 0 1-.57-2.19c0-.04-.03-.07-.07-.07-.18-.05-.32-.03-.44.05a.12.12 0 0 0-.05.07l-.91 4.47c-.01.05 0 .1.03.13.03.04.07.05.12.05.15-.01.34-.06.56-.16l.71-.36.6-.31c.13-.07.23-.06.32 0 .39.35.82.56 1.3.66.55.12.93.17 1.12.15a5.8 5.8 0 0 0 3.93-1.84c.35-.38.62-.8.8-1.27.28-.68.47-1.35.57-2a4.36 4.36 0 0 0-.4-2.56c-.1-.18-.27-.37-.52-.57-1.1-.86-1.94-1.51-2.53-1.94-1.02-.75-1.5-1.28-1.46-1.6.06-.44.27-.85.6-1.23.18-.18.41-.31.71-.38.26-.05.52-.06.8-.02.28.04.58.17.9.39 1.02.7 1.6 1.84 1.76 3.41 0 .05.03.08.08.08.25.05.4-.04.45-.26a3163.16 3163.16 0 0 0 .74-4.05Zm-14.15 6.7c.14.1.29.11.45.04.45.03.82.1 1.12.2.35.12.68.31.96.58.43.39.62 1 .56 1.84a5.34 5.34 0 0 1-.5 1.96c-.33.67-.8 1.23-1.44 1.67-.6.42-1.26.68-2 .8-.25.05-.96.07-2.12.07h-6.9c-.13 0-.2-.08-.17-.22l.03-.14c.02-.13.1-.2.22-.2h.9c.08 0 .13-.04.14-.12.07-.45.14-.83.2-1.12.4-1.72.85-3.81 1.38-6.28.47-2.18.82-3.78 1.06-4.8.02-.12.04-.26.03-.4 0-.08-.03-.13-.1-.13l-.84-.05c-.08 0-.11-.05-.1-.14l.07-.27c.01-.08.06-.11.13-.11 2.4-.02 5.14-.02 8.2-.02.48 0 .83.03 1.07.06.33.06.64.17.92.34.32.19.55.42.7.7a2.77 2.77 0 0 1 .32 2.04 4.93 4.93 0 0 1-.65 1.62c-.23.36-.58.68-1.03.97a4.7 4.7 0 0 1-1.3.57c-.32.08-.7.15-1.12.2a.12.12 0 0 0-.09.05.56.56 0 0 0-.1.29Zm-1.39-6.16-1.2 5.51c-.02.1.02.16.11.17.5.07.88-.03 1.14-.3.2-.21.37-.61.5-1.19.11-.43.3-1.35.6-2.74.05-.26.08-.5.09-.73 0-.35-.12-.59-.36-.73-.23-.13-.5-.15-.8-.06-.05 0-.07.03-.08.07Zm-2.76 12.7c0 .02 0 .03.02.04.44.13.85.05 1.21-.25.34-.27.57-.64.69-1.11.2-.78.45-1.92.75-3.42.1-.52.08-.9-.07-1.17-.15-.27-.47-.45-.94-.54-.04 0-.08 0-.1.02-.11.06-.18.16-.22.31-.3 1.36-.58 2.62-.82 3.78-.19.88-.36 1.66-.52 2.33ZM9.1 34h34.8c.05 0 .1.04.1.08v.84c0 .04-.05.08-.1.08H9.1c-.06 0-.1-.04-.1-.08v-.84c0-.04.04-.08.1-.08Zm1.45 3.7a1.42 1.42 0 0 1-.02-.67l.01-.02.04-.01H45.4c.06 0 .09.02.09.06v.57c0 .05-.03.07-.1.07H10.55Zm1.51 2.3H47v-.38c-.01-.08-.05-.12-.14-.12H12.07c-.03 0-.05.02-.06.05-.02.16 0 .31.05.45Z" fill="#D72523"/></svg>