<!-- by TradingView --><svg width="56" height="56" viewBox="0 0 56 56" xmlns="http://www.w3.org/2000/svg"><path fill="#1B45B9" d="M0 0h56v56H0z"/><path d="M24.56 14.4c-.15.03-.16.02-.35.12a.07.07 0 0 1-.07-.01c-.38-.35-.74-.68-.65-1.14.13-.6.32-1.23.6-1.89.14-.37.4-.65.75-.83 1.2-.64 2.27-.68 3.64-.64.46.02.83.18 1.12.48.39.4.66.7.82.9.14.16.2.31.22.45a3.81 3.81 0 0 1-.53 1.82h-.02v-.02a2.73 2.73 0 0 0-2.04-1.8c-.9-.22-1.62 0-2.37.44-.88.52-.98 1.16-1.07 2.06 0 .03-.02.05-.05.06Zm2.64-3.7a1.13 1.13 0 0 1-.26.02 2.13 2.13 0 0 0 0 .34c.17 0 .25.02.26.02a.9.9 0 0 1 .03.25h.01a2.67 2.67 0 0 0 .36 0 .9.9 0 0 1 .02-.24 1.12 1.12 0 0 1 .27-.03v-.01a2.08 2.08 0 0 0 0-.33 1.1 1.1 0 0 1-.26-.03.91.91 0 0 1-.04-.24 2.6 2.6 0 0 0-.36 0 .97.97 0 0 1-.03.24Zm3.25 1.12-.02-.06a6.28 6.28 0 0 0-.73-.96c-.1-.1-.16-.15-.17-.14l.01.06.08.13a4.57 4.57 0 0 0 .31.43l.34.4c.1.1.16.15.18.14Zm-6.66 1.61.11-.62v-.02l-.02-.01h-.02c-.2.46-.35.75-.05 1.13a2.22 2.22 0 0 0 .42.42h.02v-.04l-.42-.68a.25.25 0 0 1-.04-.18Z" fill="#fff"/><path d="m25.08 15.4.09-.47c.08-.5.36-.87.82-1.09.3-.14.8-.2 1.13-.27a1.85 1.85 0 0 0 1.23-.84h.02a.04.04 0 0 1 .04.03c.16.42.37.57.73.88.46.4.6.84.54 1.45a5.8 5.8 0 0 1-.41 1.7c-.33.75-1.13 1.58-2.09 1.33-1.1-.28-1.6-1.18-1.99-2.09-.01-.04-.03-.05-.06-.05L25 16a.18.18 0 0 1-.2-.08 3.58 3.58 0 0 1-.43-1.23l.02-.04c.1-.07.2-.05.29.04.17.18.3.42.36.71 0 .04.02.04.03 0Zm.45-.86c-.01 0-.02.01 0 .02h.02c.28-.16.57-.2.86-.12l.4.12c.03.02.05 0 .05-.03 0-.02-.01-.05-.04-.07-.44-.3-.87-.28-1.3.08Zm4-.04c-.47-.34-.92-.34-1.35.01-.03.03-.04.05-.03.08 0 .03.02.04.05.03l.4-.16c.3-.1.6-.08.9.07h.03v-.03Zm-3.49.64a.15.15 0 0 0-.03-.01H26v.02c.17.05.38.13.54.04a.1.1 0 0 0 .05-.07c.01-.03.03-.06.06-.06a.1.1 0 0 1 .1.01l.16.14c.04.03.06.03.04-.02a.58.58 0 0 0-.22-.29c-.26-.2-.53-.24-.82-.1a.1.1 0 0 0-.06.06c-.02.08-.1.13-.23.17l-.01.01v.04h.02c.12.02.23 0 .32-.06a.11.11 0 0 1 .09-.01.1.1 0 0 1 .04.02l.02.03c.01.03 0 .06-.02.08h-.04Zm3.11.06c.09.05.08.08-.02.08l-.37.03c0 .02 0 .02 0 0a.68.68 0 0 0 .52-.05.02.02 0 0 0 0-.03.6.6 0 0 0-.29-.12l-.03-.01-.02-.04c0-.06.03-.08.1-.07h.01c.14.07.25.1.33.1.14 0 .15-.03.02-.08-.06-.02-.13-.08-.2-.18a.19.19 0 0 0-.07-.06c-.4-.2-.84.05-1.03.38-.01.03 0 .05.03.06h.04a.4.4 0 0 1 .17-.14c.04-.02.07 0 .08.03l.02.05c.01.03.03.04.07.05.16.01.31 0 .46-.03.07-.01.13 0 .18.03Zm-4.49-.28.06.02c.03-.01.03-.03.01-.04-.04-.05-.07-.07-.1-.07a.11.11 0 0 0-.1.05.1.1 0 0 0 0 .09c.07.2.16.37.25.49.08.1.1.1.04-.02a3.49 3.49 0 0 0-.23-.51l.02-.02.05.01Zm3.16 1.39c-.04.08-.11.13-.22.15l-.01.01v.03c0 .01.01.02.02.01l.28-.01a.2.2 0 0 0 .1-.03.19.19 0 0 0 .06-.06.17.17 0 0 0 0-.17 1.68 1.68 0 0 1-.15-1.27c.02-.08 0-.1-.05-.02-.22.28-.12.95-.02 1.27v.09Zm-1.75-1c.24.13.5.12.69-.07v-.02h-.09a.67.67 0 0 1-.6.09Zm1.12 1.1c-.18 0-.2.06-.04.16.02 0 .04 0 .09-.03.03-.02.03-.04.02-.07-.03-.04-.05-.07-.07-.07Zm.3.57-.14-.02h-.1a.67.67 0 0 1-.54-.03h-.03l-.02.03a.03.03 0 0 0 0 .02V17l.01.01a2.37 2.37 0 0 0 1.76-.05v-.03c.01-.04 0-.04-.03-.03a.75.75 0 0 1-.67.05.13.13 0 0 0-.1 0l-.11.04h-.03Zm.03.55c.2.01.36-.05.47-.19.07-.08.05-.1-.05-.07-.15.05-.28.07-.41.07-.13 0-.27-.04-.4-.1-.1-.04-.13-.01-.07.07.1.14.25.22.46.22Z" fill="#fff"/><path d="M25.53 19.45c.55-.37.53-1.05.49-1.65 0-.04 0-.04.04-.01.63.69 1.7 1.33 2.68.89.04-.02.06-.01.07.03.07.27.2.47.4.62.02.01.02.03 0 .05l-1.9 2.02a.07.07 0 0 1-.06.03.07.07 0 0 1-.04-.02 11.67 11.67 0 0 1-1.69-1.94l.01-.02ZM29.74 19.58v.01a.02.02 0 0 1 0 .02l-.01.01a41.77 41.77 0 0 1-1.16 1.21c-.06.06-.1.1-.1.08-.02 0 .1-.16.3-.42l.84-.96.02-.01h.01a.02.02 0 0 1 .02 0l.08.06ZM24.9 19.65h.01a.02.02 0 0 1 .02 0l.02.02a40.26 40.26 0 0 1 .98 1.14l.06.1a7.08 7.08 0 0 1-.72-.7l-.42-.46-.01-.02-.01-.01v-.02l.07-.05ZM33.97 22.9c-.2-.83-.45-1.59-1.16-2.03a8.43 8.43 0 0 0-1.75-.83c-.08-.03-.08-.04 0-.04.22 0 .43.05.65.13.51.2 1.18.5 1.6.95.42.44.62 1.17.68 1.82.02.13 0 .13-.02 0ZM22.98 20.04a4.28 4.28 0 0 0-1.97.96v-.04c.42-.6 1.27-.88 1.96-.96.02 0 .03 0 .03.02 0 .01 0 .02-.02.02ZM21.8 24.37c.43.14 1.02.1 1.37.12.09 0 .1.04.03.1-.15.12-.21.3-.19.53 0 .03 0 .05-.04.07l-.48.26a.12.12 0 0 1-.08 0c-.3-.05-.51-.15-.62-.3-.35-.49-.6-.87-1.27-.9-.05 0-.05-.02-.01-.05.46-.35 1-.43 1.63-.24a.1.1 0 0 0 .08 0 .1.1 0 0 0 .03-.04l.02-.03c0-.06-.04-.11-.12-.16l-.6-.26c-.32-.14-.39-.7-.49-.94-.14-.34-.51-.47-.91-.67a.48.48 0 0 1-.13-.1c-.03-.02-.02-.04.02-.03.61.12 1.3.13 1.7.16.48.04.87.24 1.18.6.1.13.24.17.43.12a.16.16 0 0 0 .1-.07.14.14 0 0 0 .01-.1c-.08-.33-.04-.64.13-.92.03-.04.04-.04.05 0 .06.39.17.7.33.93a22.53 22.53 0 0 0 .86 1.16v.02l-.03.02-.17.09c-.02.01-.05 0-.07-.01a9.4 9.4 0 0 0-.5-.53c-.12-.12-.2-.29-.28-.43-.01-.02-.02-.02-.03-.02-.02.01-.02.02-.02.04.07.16.15.36.26.5.16.18.3.37.41.55.02.02.01.04 0 .05l-.25.26a.02.02 0 0 1-.03 0 4.26 4.26 0 0 0-.43-.4l-1.21-.72c-.43-.25-.67-.54-1.05-.78-.01 0-.01 0 0 0l.5.49c.24.23.44.37.73.57.15.1.14.12-.03.06a2.83 2.83 0 0 1-1.1-.54c.3.26.62.44.96.54.3.1.5.17.61.25a3.68 3.68 0 0 1 .68.57v.05c-.01.01-.02.03-.04.03a.1.1 0 0 1-.04.02l-.56.04a.36.36 0 0 1-.25-.08.9.9 0 0 0-.3-.15c-.02 0-.02 0 0 0l.25.16.02.03v.03l-.02.02-.03.01H21.8c-.03 0-.03 0 0 .02Zm.31-2.29h-.04v.02c.45.34.75 1.05 1.48.65v-.02h-.02c-.75.27-.92-.42-1.42-.65Zm1.98 1.58c.1.08.11.17.18.23h.03v-.02a.45.45 0 0 0-.14-.22 5.88 5.88 0 0 1-.57-.47c.15.17.32.33.5.48ZM26.77 25.7l.04-.04v-.05a.12.12 0 0 0-.1-.08c-.6-.03-1.12-.04-1.6-.33-.1-.06-.27-.24-.52-.56-.08-.1-.15-.17-.28-.28-.02-.02-.02-.04 0-.07a3.84 3.84 0 0 1 3.14-1.15c.45.05.83.2 1.17.45.13.09.2.24.3.4.34.57-.56.61-.56 1.16 0 .37.06.54-.2.9a.08.08 0 0 0-.01.09c0 .02.02.04.04.06.02.02.03.05 0 .07-.05.1-.1.17-.13.18-.25.13-.46.28-.65.43a.07.07 0 0 1-.08.01c-.23-.11-.45-.2-.66-.26-.15-.04-.3-.13-.47-.27l-.52-.44c-.02-.02-.02-.04.02-.03.42.01.77-.05 1.07-.2Zm-1.58-1.72c-.15.17-.13.18.05.04.73-.56 1.88-.61 2.73-.28.17.06.17.05.02-.05-.8-.51-2.17-.44-2.8.29Zm1.55-.1c.21-.02.43-.03.67-.02.12 0 .12 0 0-.04a1.86 1.86 0 0 0-.68-.04c-.25.02-.46.08-.66.18-.1.05-.1.06.02.04.23-.06.44-.1.65-.12Zm.15 2.65a1.83 1.83 0 0 1-.26-.18c-.18-.18-.2-.16-.05.03.05.06.14.14.27.22.13.07.24.12.32.14.25.04.25.02.01-.06a1.86 1.86 0 0 1-.29-.15Z" fill="#fff"/><path d="M28.69 25.65v.01a.02.02 0 0 0 .02.01h.03c.08-.37.17-.61.29-.73.27-.27.47-.56.61-.88.02-.03.04-.05.08-.04l.15.02c.04 0 .05.03.02.06-.19.18-.3.18-.43.5-.04.1-.1.2-.17.3-.1.12-.22.35-.35.66-.04.1-.16.21-.37.33-.03.02-.05.01-.04-.03.05-.2.06-.43.03-.72-.01-.14.18-.26.3-.36.26-.2.47-.57.27-.87l-.14-.21c-.01-.03 0-.05.03-.06.1-.02.16.06.2.24.02.1.04.1.08 0l.01-.04c.01-.02.03-.03.05-.01.01 0 .02.02.02.05-.02.21-.06.36-.1.44l-.31.5c-.17.24-.22.55-.28.83ZM30.1 27.32c-.04.16.02.4.17.7a.03.03 0 0 1 0 .05h-.04c-.26-.1-.56-.18-.93-.23a3.44 3.44 0 0 1-1-.3 2 2 0 0 0-.43-.33.05.05 0 0 1 0-.04v-.02c.32-.37.57-.7.75-.95.05-.08.14-.17.26-.27.16-.13.25-.22.27-.27.07-.25.18-.46.32-.63.09-.11.15-.23.2-.35.07-.21.24-.39.52-.51a.16.16 0 0 1 .09-.02c.41.07.79.24 1.12.5 1.16.9 1.31 2.34.85 3.64-.01.03-.03.03-.05 0-.32-.4-.62-.41-1.15-.52-.3-.06-.6-.24-.7-.45-.12-.27-.21-.27-.26 0Zm.49-2.77c.47.16.78.76 1 1.14a3.44 3.44 0 0 1 .47 1.83h.03c.31-.97-.13-1.93-.82-2.66a1.23 1.23 0 0 0-.58-.35h-.06l-.04.03v.01Zm.6 1.2c.08.2.14.41.2.64.02.12.04.12.04 0 0-.22-.04-.45-.13-.68-.1-.23-.22-.43-.39-.59-.08-.08-.1-.07-.03.03.13.2.23.4.31.6Zm-.47-.04.06.26c.01.2.03.2.06 0 0-.07-.01-.16-.05-.28a.75.75 0 0 0-.12-.26c-.13-.16-.15-.16-.04.02l.1.26Zm-2.42 1.32.26-.39c.12-.17.1-.19-.06-.04-.23.21-.6.59-.1.8.19.08.4.15.63.22.1.03.1.02.02-.03a11 11 0 0 0-.73-.4.13.13 0 0 1-.01-.16ZM23.92 25.2a1.97 1.97 0 0 1-.58-.4.08.08 0 0 1-.01-.09l.01-.02.01-.02a.04.04 0 0 1 .03 0h.02a4 4 0 0 0 1.54.8v-.02a3.4 3.4 0 0 1-1.32-.94.04.04 0 0 1 .02-.04h.02c.04 0 .07 0 .1.02a2.24 2.24 0 0 1 .43.4h.04c.02 0 .02 0 0-.01l-.33-.4c-.06-.07-.04-.1.06-.07.18.05.34.17.45.32.44.6.9.94 1.68.92.02 0 .02 0 .02.02l-.01.02-.31.02a34.2 34.2 0 0 1-2.2-.38.77.77 0 0 1-.3-.14.2.2 0 0 1-.08-.17v-.08c0-.08.03-.1.09-.04a1.52 1.52 0 0 0 .62.32v-.01Z" fill="#fff"/><path d="M32.9 25.55c-.1.16-.19.32-.25.46-.02.04-.04.04-.05 0l-.14-.34c-.01-.03 0-.05.02-.07.4-.29.75-.55.85-1 .03-.1.05-.1.09 0 .19.5.11.97-.22 1.4a.08.08 0 0 0-.02.07c0 .02.02.03.03.04l.04.01a.17.17 0 0 0 .15-.04c.11-.1.25-.25.43-.45.2-.23.61-.19 1.07-.2.44-.02.73-.48 1.03-.7.07-.06.09-.05.04.03-.27.5-.44 1.04-.62 1.48-.13.32-.38.58-.72.73-.25.1-.47.24-.37.52.01.03.04.04.07.05.4.04.7.1.96.39.02.02.02.03-.02.02-1.02-.22-1.91.48-2.8.55-.05 0-.06-.02-.05-.05l.07-.2c0-.03.03-.04.07-.04.1.02.4-.1.87-.33l.38-.13c.04 0 .04-.02 0-.03-.25-.07-.88.25-1.17.3-.04.01-.06 0-.06-.04l.06-.33a.1.1 0 0 1 .06-.08c.23-.12.48-.29.73-.5.66-.56 1.22-1.01 1.69-1.37a3.98 3.98 0 0 0 .4-.37l-1.88 1.39c-.1.07-.11.05-.05-.04a3.45 3.45 0 0 1 .82-.88h-.02a3.3 3.3 0 0 0-.84.85c-.22.32-.53.47-.8.63-.03.02-.05.01-.05-.03.01-.3 0-.53-.01-.68-.05-.34.1-.67.22-1.01.02-.04.02-.05 0 0ZM22.73 25.79c-1.2.73-1.2 2.22-.48 3.25.02.03.02.05 0 .07l-.11.08c-.03.02-.05.02-.07-.01-.81-1.21-.75-2.45.4-3.42a2.62 2.62 0 0 1 .67-.42.1.1 0 0 1 .04.01c.15.08.24.13.38.16.54.1 1.01.2 1.42.25.14.03.26.08.36.16.3.26.58.52.81.78.15.17.35.33.6.5.02.01.02.03 0 .04a.85.85 0 0 0-.44.34c-.34.54-.73.97-1.18 1.31-.03.02-.05.02-.06-.01l-.03-.15c0-.03-.03-.05-.07-.05h-.07l-.04.07c-.13.41-.45.7-.95.84-.34.1-.64.18-.9.21-.04 0-.07 0-.09-.03a4.44 4.44 0 0 1-.72-1.08c-.48-1.1-.3-2.06.54-2.89.04-.03.04-.04 0-.01Zm-.44 1.26c-.07.35-.04.7.08 1.02.07.17.09.17.05-.02a2.7 2.7 0 0 1-.01-.98c.05-.3.18-.6.37-.92.1-.16.08-.17-.04-.02-.23.26-.38.57-.45.92Zm.56-.02c.04-.21.1-.43.18-.67.04-.11.02-.12-.04-.01-.13.19-.22.41-.26.67-.04.25-.04.49.02.7.03.12.05.12.05 0 0-.24.01-.47.05-.69Zm2.64-.55.84.67h.02l-.01-.06a1.83 1.83 0 0 0-.35-.35h-.02a3.12 3.12 0 0 0-.42-.27h-.05l-.01.01Z" fill="#fff"/><path d="M20.93 28.49c-.1.13-.07.16.07.07.1-.05.23-.08.39-.1.02 0 .05 0 .06.03l.48.9a.1.1 0 0 1 .01.09c-.05.2.02.4.2.58a.1.1 0 0 1 0 .15c-.14.1-.07.52-.11.52H22l-.77-.45a1.18 1.18 0 0 1-.6-.96c-.03-.33-.02-.67.03-1.03l.2-1.84c0-.02.01-.04.04-.05h.02l.57.09c.04 0 .06.03.04.07-.25.51-.3 1.07-.14 1.68 0 .03-.01.04-.04.05-.2.03-.35.1-.43.2ZM24.22 31.03l.16.41-.01.02-.19.07c-.02 0-.04 0-.05-.02a6.32 6.32 0 0 0-.19-.36c-.22-.36.05-.83.34-1.07.33-.26.54-.48.64-.65.17-.27.44-.38.67-.62.13-.15.34-.34.62-.57.5-.43 1.61-1.03 1.86.02l-.01.42c-.03.39-.23.9-.34 1.2-.01.03-.03.04-.06.03-.3-.15-.52-.37-.68-.67-.03-.06-.07-.07-.13-.03l-.03.02c-.03.02-.04.05-.04.09a8.33 8.33 0 0 0 .46.93c.12.18.12.64.08.94-.07.52-.17 1-.08 1.45.01.03 0 .06-.03.07-.84.37-1.48.44-2.22-.12v-.03l.28-.15h.04c.45.3 1 .4 1.5.2.09-.03.09-.04-.01-.03a2.1 2.1 0 0 1-1.27-.33c-.02-.01-.02-.03-.02-.05l.05-.26c0-.04.03-.06.07-.05l.14.03c.12.01.12 0 0-.04-.13-.04-.16-.14-.24-.23-.3-.33-.68-.3-.9-.77 0-.02-.01-.02-.01 0l-.01.03c.04.18.12.33.23.46.06.07-.1.18-.16.12-.43-.37-.48-.51-.46-.46Zm3.25-3.02c.16.35.25.65.19 1.07v.04l.03.05h.01l.01.01h.02v-.01c.11-.39.13-.9-.23-1.18-.04-.03-.05-.03-.03.02Zm-.66.1c-.28 0-.72.44-.89.63-.1.1-.09.12.04.04.17-.12.39-.28.65-.51a.6.6 0 0 1 .2-.12c.09-.02.09-.03 0-.03ZM31.48 28.65l-.03.01c0 .02 0 .03.02.03.39.12.89.51.74.94-.01.03-.02.04-.04 0-.23-.36-.4-.58-.5-.66-.49-.34-1.03-.58-1.28-1.2 0-.04 0-.05.04-.03.25.15.51.24.8.27a1.37 1.37 0 0 1 .58.19v.02l-.02.02a.99.99 0 0 0-.4-.06l-.02.03c-.02.01-.01.02 0 .02.28.02.5.1.66.24.1.08.09.1-.03.05l-.42-.19a.18.18 0 0 0-.12-.01c-.04 0-.07 0-.09-.02a.11.11 0 0 0-.08-.05c-.16-.02-.33-.09-.5-.2h-.02v.03c.15.1.26.17.42.23.32.12 1 .4 1.04.7 0 .04 0 .04-.04.01-.2-.18-.44-.3-.7-.37ZM31.87 30.12c-.11.2-.24.47-.4.69-.39.5-.89.85-1.52 1.05a5 5 0 0 0-.43.15c-.03.02-.03.03 0 .04.16.01.3 0 .45-.03 0 0 .01 0 0 0l-.18.3-.05.04c-.34.04-.97 0-1.17-.32-.13-.2-.2-.53-.24-.98a2 2 0 0 0-.2-.61 1 1 0 0 1-.1-.4c0-.24.08-.64.23-1.2.07-.28.04-.6-.1-.97 0-.03.01-.04.04-.03.97.17 1.56.3 1.8.37.45.14 1.24.69 1.57 1 .32.29.66.89.51 1.34-.16.5-.45.91-.86 1.25a.16.16 0 0 1-.09.04.8.8 0 0 0-.34.1.08.08 0 0 1-.08.01l-.1-.05c-.03-.02-.03-.04 0-.06a2.09 2.09 0 0 0 1.3-1.72c0-.06-.01-.06-.04 0Zm-3.52-2c.1.4.11.72-.03 1.15v.05l.01.05v.01h.04c.2-.38.33-.92.02-1.28-.04-.04-.05-.03-.04.02Zm.7.06.24.06c.18.08.19.06.02-.04a.8.8 0 0 0-.25-.08.8.8 0 0 0-.27-.01c-.2.03-.19.05 0 .04.04 0 .13 0 .26.03Zm1.86 2.78c.23-.22.38-.47.46-.75.04-.15.03-.15-.04-.01-.14.28-.3.52-.5.7-.18.18-.43.34-.73.48-.15.07-.14.08.02.03.3-.08.56-.23.79-.45ZM33.1 30.2c.15-.27.25-.4.01-.68l-.01-.03v-.59a.1.1 0 0 1 .04-.08c.33-.25.71-.32 1.16-.22.04 0 .05.02.06.05.04.38.04.73 0 1.05-.07.57-.54.7-1.05.78l-.11-.01a.2.2 0 0 1-.09-.07.18.18 0 0 1-.02-.2Z" fill="#fff"/><path d="m22.48 30.1.3.25a.1.1 0 0 1 .03.07l.03.26c0 .03.01.06.04.08l.2.18c.03.02.04.04.04.06v.17c0 .02.02.04.04.06.24.13.44.3.59.52.1.14.06.19-.12.14-.13-.03-.31-.1-.53-.2a.9.9 0 0 1-.37-.3c-.09-.13-.24-.28-.44-.46a.08.08 0 0 1-.03-.05l-.05-.46v-.04c.04-.1.16-.02.2-.09.01-.01.02-.03.01-.04a1.33 1.33 0 0 0-.26-.48.2.2 0 0 1-.03-.22l.08-.17c.04-.07.08-.08.14-.01l.4.49c.06.08.07.13.03.23-.02.04-.07.06-.12.04l-.16-.07c-.08-.03-.09-.02-.02.04ZM23.56 30.4a.52.52 0 0 0-.17.24c0 .01-.02.02-.04 0h-.03a.07.07 0 0 1-.04-.09c.11-.38.4-.42.72-.57.1-.04.1-.06-.02-.04-.27.05-.6.09-.79.33-.02.03-.04.02-.05-.01-.01-.05 0-.09.05-.14.03-.02.02-.03-.01-.03-.02 0-.04.01-.05.04-.02.02-.04.02-.06.01-.04-.01-.05-.02-.05-.04 0-.03.01-.07.04-.09a.17.17 0 0 1 .1-.04 3 3 0 0 0 1.42-.47h.02l.02.02v.02c-.33.22-.6.46-.79.73-.1.14-.16.33-.19.56 0 .05-.03.06-.07.02l-.07-.05c-.04-.04-.05-.08-.03-.14l.12-.23c.02-.04.01-.05-.03-.02ZM32.72 30.27l-.16.09a.09.09 0 0 1-.06 0h-.03l-.02-.03c-.06-.1-.06-.15 0-.24l.35-.52c.04-.07.09-.07.13 0l.1.16a.2.2 0 0 1 0 .22 1.32 1.32 0 0 0-.21.53v.02l.02.01h.03a.2.2 0 0 0 .06 0 .1.1 0 0 1 .08.03.1.1 0 0 1 .04.07v.46c0 .02 0 .04-.02.06-.19.2-.32.36-.4.5a.88.88 0 0 1-.32.33c-.21.12-.39.2-.52.25-.17.07-.22.02-.13-.13.13-.23.3-.42.53-.58a.07.07 0 0 0 .03-.06l-.01-.17c0-.02 0-.04.02-.06l.19-.2a.12.12 0 0 0 .03-.08v-.27c0-.03.01-.05.03-.07l.27-.28c.06-.07.05-.08-.03-.04ZM27.55 32.06v.59c0 .02-.01.03-.03.01-.13-.1-.13-.4-.1-.6l.13-.91c.03-.23-.03-.48 0-.68.02-.04.01-.07 0-.1l-.19-.34c-.03-.05-.01-.06.04-.03.67.35.7.98.78 1.6.03.26.22.55.3.8a.09.09 0 0 1-.01.1.07.07 0 0 1-.03.01c-.03 0-.06 0-.08-.02-.2-.29-.29-.6-.25-.95l-.01-.01h-.03c-.02 0-.02 0-.03.02a1.43 1.43 0 0 0 .2 1.04h-.04c-.19-.25-.3-.5-.33-.75a36.69 36.69 0 0 0-.21-1.3l-.03-.01-.02.01c.03.3.08.63.07.94 0 .42.07.8.22 1.16.02.04 0 .06-.04.07h-.03c-.04 0-.06-.01-.07-.04a1.14 1.14 0 0 1-.16-.61l-.02-.02c-.02 0-.03 0-.03.02ZM23.95 32.4c.45-.12.73-.23.8-.63 0-.03.02-.05.04-.08.11-.1.24-.1.38-.02.02.01.04.03.04.05l-.01.06c-.22.33-.62.47-1.03.65-.1.04-.18.05-.23.01-.04-.02-.03-.04 0-.05Z" fill="#fff"/><path d="M24.03 31.9a.1.1 0 0 1 .03-.1c.14-.12.27-.16.4-.12l.04.03a.1.1 0 0 1 .03.04c.1.34-.7.48-.98.54-.12.02-.22.03-.32.02a.11.11 0 0 1-.08-.04.96.96 0 0 1-.2-.4c0-.04.01-.05.05-.02.3.17.6.24.87.22l.07-.02A.19.19 0 0 0 24 32a.13.13 0 0 0 .03-.05.1.1 0 0 0 0-.06ZM25.38 31.87c.03-.04.04-.03.03 0-.07.36-.48.56-.82.65h-.01l-.01-.01a.01.01 0 0 1 0-.02l.02-.04.04-.02c.34-.13.55-.31.75-.56ZM30.66 32.2c.11.38.4.47.86.53.04 0 .05.02.02.05-.05.04-.13.04-.23.01-.43-.14-.84-.24-1.1-.54a.08.08 0 0 1 .02-.12c.14-.1.26-.1.38 0 .03.01.04.04.05.07Z" fill="#fff"/><path d="M31.4 32.26a.1.1 0 0 0 0 .06l.04.05a.2.2 0 0 0 .07.03l.07.01c.28 0 .56-.1.84-.31.04-.03.06-.02.05.02a.95.95 0 0 1-.15.41.11.11 0 0 1-.07.06c-.1.02-.2.02-.32 0-.3-.02-1.1-.08-1.05-.43a.1.1 0 0 1 .02-.04.12.12 0 0 1 .04-.03c.12-.07.26-.04.42.08a.1.1 0 0 1 .04.1ZM30.07 32.36c.22.23.44.38.8.47l.03.02.03.04a.01.01 0 0 1 0 .02h-.02c-.34-.04-.76-.2-.87-.53-.01-.04 0-.04.03-.02Z" fill="#fff"/><path d="M22.86 14.7a12.73 12.73 0 0 0-8.15 9.1l-1.16-.37a13.89 13.89 0 0 1 8.7-9.72l.6 1Zm9.88.07A12.7 12.7 0 0 1 40.76 24H42a13.82 13.82 0 0 0-8.67-10.24l-.6 1ZM11 26h7v1h-7zM11 30h7v1h-7zM12 28h5v1h-5zM38 26h7v1h-7zM38 30h7v1h-7zM39 28h5v1h-5z" fill="#fff" fill-opacity=".6"/><path fill-rule="evenodd" d="M12 35c-.55 0-1 .21-1 .79v3.34c0 .57.45.87 1 .87s1-.3 1-.87V35.8c0-.58-.45-.79-1-.79Zm0 .58a.4.4 0 0 0-.4.41v3.02c0 .23.18.41.4.41a.4.4 0 0 0 .4-.41v-3.02a.4.4 0 0 0-.4-.41Z" fill="#fff"/><path d="m14.5 35 .92 1.61V35H16v5h-.58v-2.25l-.91-1.47V40h-.58v-5h.58Z" fill="#fff"/><path fill-rule="evenodd" d="M8 35h1.12c.35 0 .63.28.63.62v1.13c0 .18-.07.34-.2.45.26.12.45.38.45.7v1.35c0 .42-.32.75-.72.75H8v-5Zm.6.61h.3c.17 0 .3.12.3.26v.72c0 .14-.13.25-.3.25h-.3v-1.23Zm0 1.93h.42c.21 0 .38.18.38.4v1.14c0 .22-.17.4-.38.4H8.6v-1.94ZM21 35h1.12c.35 0 .63.28.63.62v1.13c0 .18-.07.34-.2.45.26.12.45.38.45.7v1.35c0 .42-.32.75-.72.75H21v-5Zm.6.61h.3c.17 0 .3.12.3.26v.72c0 .14-.13.25-.29.25h-.31v-1.23Zm0 1.93h.42c.21 0 .38.18.38.4v1.14c0 .22-.17.4-.38.4h-.42v-1.94Z" fill="#fff"/><path d="M17.84 35a.84.84 0 0 0-.84.83v3.34c0 .46.38.83.84.83H19v-3h-1v.65h.38v1.74h-.31a.44.44 0 0 1-.45-.43v-3.07c0-.2.17-.37.38-.37.2 0 .38.17.38.37V36H19v-.17a.84.84 0 0 0-.84-.83h-.32ZM26.95 35c-.53 0-.95.35-.95.79v3.42c0 .44.42.79.95.79H28v-.57h-.97c-.2 0-.36-.14-.36-.3v-3.25c0-.17.16-.31.36-.31H28V35h-1.05ZM29 35h.63v2h.74v-2H31v5h-.63v-2.34h-.75V40H29v-5ZM36 35.66V35h-2v.66h.65V40h.65v-4.34h.7ZM48 35.66V35h-2v.66h.65V40h.65v-4.34h.7ZM40 35h.55l.45 1.77.45-1.77H42l-.72 2.83V40h-.55v-2.17L40 35ZM38.36 35H39v5h-1.32a.7.7 0 0 1-.68-.7V35h.64v4.04c0 .16.13.3.3.3h.42V35ZM43 35v5h2v-.66h-1.33v-1.68H45V37h-1.33v-1.34H45V35h-2ZM23 40l.85-5h1.3l.85 5h-.75l-.17-1h-1.16l-.17 1H23Zm1.03-1.66h.94l-.47-2.77-.47 2.77Z" fill="#fff"/></svg>