<!-- by TradingView --><svg width="56" height="56" viewBox="0 0 56 56" xmlns="http://www.w3.org/2000/svg"><path fill="#F0F3FA" d="M0 0h56v56H0z"/><path fill-rule="evenodd" d="M49 21H7v14h42V21Zm-32.74 2H10v10h6.72c1.55 0 2.28-1.24 2.28-2.77 0-1.14-.7-2.12-1.7-2.55a2.48 2.48 0 0 0 1.2-2.18c0-1.38-.83-2.5-2.24-2.5Zm-1.32 2H13v2h1.94c.3 0 .56-.32.56-.73v-.54c0-.4-.25-.73-.56-.73Zm.39 4H13v2h2.33c.37 0 .67-.32.67-.72v-.54c0-.4-.3-.74-.67-.74ZM32 25v-2h-5.72A2.28 2.28 0 0 0 24 25.27v5.46A2.28 2.28 0 0 0 26.28 33H32v-2h-4.37c-.36 0-.63-.24-.63-.6v-4.73c0-.36.27-.67.63-.67H32Zm-11-2h.26v10H21V23Zm14 0h-.3v10h.3V23Zm2 0h3v4h3v-4h3v10h-3v-4h-3v4h-3V23Z" fill="#065590"/></svg>