<!-- by TradingView --><svg width="56" height="56" viewBox="0 0 56 56" xmlns="http://www.w3.org/2000/svg"><path fill="#F0F3FA" d="M0 0h56v56H0z"/><path fill-rule="evenodd" d="M21.43 13H15v9h6.48A2.56 2.56 0 0 0 24 19.4c0-.94-.49-1.76-1.22-2.22.55-.42.9-1.1.9-1.86 0-1.28-1-2.32-2.25-2.32Zm-1.12 2.03H18v1.4h2.31a.7.7 0 0 0 .69-.7.7.7 0 0 0-.69-.7Zm.43 2.97H18v2h2.74c.42 0 .76-.45.76-1s-.34-1-.76-1Zm-1.22 14c2.71 0 3.95-1.25 4.35-3H20.8c-.21.6-.61 1-1.29 1-1.14 0-1.5-1.12-1.5-2.5s.46-2.5 1.5-2.5c.62 0 1.03.4 1.26 1h3.08c-.47-1.75-1.85-3-4.32-3-3.15 0-4.52 2.01-4.52 4.5s1.07 4.5 4.52 4.5ZM15 43V33h9v2h-6v2h5v2h-5v2h6v2h-9Zm11.12-30v.37h2.17c-.78-.16-1.51-.28-2.17-.37Zm0 .96v-.35h3.32c.46.1.94.22 1.43.35h-4.75Zm0 .25h5.64c.38.1.77.22 1.16.34h-6.8v-.34Zm0 .59h7.54l.98.35h-8.52v-.35Zm0 .6h9.15c.29.1.57.22.85.34h-10v-.35Zm0 .59h10.55c.25.1.5.22.73.34H26.12V16Zm0 .59h11.76l.65.35H26.12v-.35Zm0 .6h12.83c.19.1.38.22.56.34H26.1v-.35Zm0 .59h13.76l.49.34H26.12v-.34Zm0 .59h14.57l.42.35h-15v-.35Zm0 .6h15.27l.37.34H26.12v-.35Zm0 .59h15.87l.32.34H26.1v-.34Zm0 .59H42.5l.26.35h-14.4l-.49-.1.22.1h-1.98v-.35Zm2.54.6h-2.54v.34h3.26a17.5 17.5 0 0 0-.72-.35Zm1.18.59h-3.72v.34h4.3l-.58-.35Zm3.2.34-1.15-.35h11.4l.16.35h-10.4Zm-2.26.25h-4.66v.35h5.1a6.49 6.49 0 0 0-.44-.35Zm3.95.35-.96-.35h9.79l.13.35h-8.96Zm-3.24.24h-5.37v.35h5.68l-.31-.35Zm4.67.35a27.8 27.8 0 0 0-.82-.35h8.43l.09.35h-7.7Zm-4.19.24h-5.85v.35h6.03c-.05-.11-.1-.23-.18-.35Zm5.42.35-.7-.35h7.22l.05.35h-6.57Zm-5.16.25h-6.11v.35h6.15c0-.12-.01-.23-.04-.35Zm6.24.35c-.2-.12-.4-.24-.62-.35h6.13l.02.35h-5.53Zm-6.21.24h-6.14v.35h6.05c.04-.11.07-.23.09-.35Zm7.15.35-.54-.35H44c0 .12 0 .24-.02.35h-4.57Zm-7.34.24h-5.95v.35h5.72c.09-.11.16-.23.23-.35Zm8.17.35-.47-.35h4.2l-.05.35h-3.68Zm-8.6.25h-5.52v.35h5.15c.14-.12.26-.23.37-.35Zm9.33.35-.42-.35h3.33l-.08.35h-2.83Zm-10 .24h-4.85v.35h4.33l.52-.35Zm10.63.35a10.8 10.8 0 0 0-.36-.35h2.5l-.11.35H41.6Zm-11.57.24h-3.91v.35h3.22c.23-.1.47-.22.69-.35Zm12.1.35c-.1-.1-.2-.23-.3-.35h1.7l-.14.35h-1.26Zm-13.35.25h-2.66v.35h1.75l.91-.35Zm13.78.35a5.57 5.57 0 0 0-.24-.35h.96l-.18.35h-.54Zm-15.44.24-.51.15h16.17l-.08-.15h.35l.2.35h-.55a4.4 4.4 0 0 1-.13.24h.8l.16.35h-1.2l-.17.25h1.47l.12.35h-1.87l-.22.24h2.15l.08.35h-2.57l-.25.24h2.86l.05.35h-3.3l-.29.25H44l.01.29v.06h-4.05l-.33.24H44c0 .12 0 .24-.02.35h-4.85l-.37.24h5.2l-.06.32h-5.65l-.42.24h6.03a6.9 6.9 0 0 1-.09.35h-6.58l-.48.25h7l-.13.35h-7.6l-.54.24h8.05l-.15.35h-8.75l-.63.24h9.26l-.2.35H32.95c-.24.09-.5.17-.76.25h10.68l-.23.35H30.99l-.95.24h12.42l-.27.35h-13.7l-.6.12.27-.12h-2.04v-.35h2.78l.48-.24h-3.26v-.35h3.87l.39-.25h-4.26v-.35h4.74l.3-.24h-5.04v-.35h5.4l.22-.24h-5.62v-.35h5.86c.05-.08.09-.17.12-.25h-5.98v-.35h6.1l.05-.24h-6.15V32h6.15c0-.08-.02-.16-.04-.24h-6.11v-.35h6a2.35 2.35 0 0 0-.13-.24h-5.87v-.35h5.63a3.73 3.73 0 0 0-.21-.25h-5.42v-.35h5.04l-.3-.24h-4.74v-.35h4.22a9.87 9.87 0 0 0-.41-.24h-3.81v-.35h3.13l-.54-.25h-2.6v-.35h1.72l-.72-.24h-1v-.35h1Zm-.68.2.08-.03.08.03h-.16Zm16.36 0h-.02v-.03l.02.03ZM31 21.08c-.47-.12-.95-.24-1.45-.35h13.38l.22.35H31Zm-4.88 15.04h15.86l-.32.35H26.12v-.35Zm0 .6h15.3l-.37.35H26.12v-.35Zm0 .6h14.65c-.14.1-.28.23-.42.34H26.12v-.35Zm0 .58h13.91l-.48.35H26.12v-.35Zm0 .6h13.07l-.55.35H26.12v-.35Zm0 .6h12.1l-.62.34H26.12v-.35Zm0 .58h11.02l-.72.35h-10.3v-.35Zm0 .6h9.77l-.82.35h-8.95v-.35Zm0 .6h8.34l-.94.34h-7.4v-.35Zm0 .58h6.68c-.37.13-.74.24-1.11.35h-5.57v-.35Zm0 .6h4.7l-1.37.35h-3.33v-.35Zm0 .59h2.22c-.7.14-1.36.26-1.97.35h-.25v-.35Z" fill="#405CA6"/></svg>