<!-- by TradingView --><svg width="56" height="56" fill="none" xmlns="http://www.w3.org/2000/svg"><path fill="#F0F3FA" d="M0 0h56v56H0z"/><circle cx="17" cy="26" fill="url(#a)" r="10"/><path fill-rule="evenodd" clip-rule="evenodd" d="M16 30.5v5.413a9.48 9.48 0 0 0 8.956-3.883c-.362-.852-1.657-1.689-2.26-2 1.524-.285 1.75-1.82 1.804-2.53 0-2.266-1.58-2.413-2.506-2.5H16v5h2v.5h-2Zm1.5-3.5v.337H19V29h1.39c.68 0 1.23-.448 1.23-1s-.55-1-1.23-1H17.5Zm-.091 6.578V34h3.134c.714 0 1.293-.56 1.293-1.25s-.579-1.25-1.293-1.25H19v2.078h-1.591Z" fill="url(#b)"/><path d="M14.98 28.798c-2.768-1.353-3.794-6.762-3.961-9.298.528.634 2.861 5.459 3.962 7.792v1.506ZM15 30c-3.42 0-5.425.458-6 .687 1.058-.027 3.425-.016 4.425.237 1 .254 1.467.265 1.575.238V30Z" fill="#B1D680"/><path fill-rule="evenodd" clip-rule="evenodd" d="M35.357 33.562c-.562.542-1.277.867-2.055.867-1.811 0-3.28-1.76-3.28-3.93s1.469-3.928 3.28-3.928c1.037 0 1.781.31 2.296.83L36.6 25.47c-.851-.302-1.894-.469-3.159-.469C29.884 25 27 27.462 27 30.5s2.884 5.5 6.441 5.5a7.31 7.31 0 0 0 2.992-.628l-1.076-1.81Zm7.797.867c.293 0 .577-.05.846-.143V32h-1v-2h4v6H43l.002-.003C39.67 35.907 37 33.481 37 30.5c0-3.038 2.773-5.5 6.194-5.5 1.215 0 2.218.168 3.037.47l-.932 1.869c-.492-.483-1.19-.768-2.145-.768C41.412 26.57 40 28.33 40 30.5s1.412 3.929 3.154 3.929Z" fill="url(#c)"/><defs><linearGradient id="a" x1="10.507" y1="18.087" x2="22.849" y2="33.564" gradientUnits="userSpaceOnUse"><stop stop-color="#79C151"/><stop offset="1" stop-color="#1C3B1C"/></linearGradient><linearGradient id="b" x1="20.478" y1="25" x2="20.478" y2="35.996" gradientUnits="userSpaceOnUse"><stop stop-color="#FEFEFE"/><stop offset="1" stop-color="#8A8C8F"/></linearGradient><linearGradient id="c" x1="37" y1="25" x2="37" y2="36" gradientUnits="userSpaceOnUse"><stop stop-color="#D1D2D4"/><stop offset="1" stop-color="#818285"/></linearGradient></defs></svg>