<!-- by TradingView --><svg width="56" height="56" viewBox="0 0 56 56" xmlns="http://www.w3.org/2000/svg"><path fill="#F0F3FA" d="M0 0h56v56H0z"/><path d="M28.78 12c2.05.14 3.99.62 5.8 1.44a15.8 15.8 0 0 1 7.97 7.95c.83 1.82 1.3 3.76 1.45 5.82v1.56a16.4 16.4 0 0 1-1.42 5.8 15.83 15.83 0 0 1-7.96 7.97A16.73 16.73 0 0 1 28.8 44h-1.57a16.4 16.4 0 0 1-5.8-1.42 15.8 15.8 0 0 1-7.98-7.98A16.72 16.72 0 0 1 12 28.77v-1.53c.13-2.05.6-3.99 1.43-5.81a15.8 15.8 0 0 1 7.97-7.98A16.66 16.66 0 0 1 27.21 12h1.57Z" fill="#E3A718"/><path d="M42.82 28a14.68 14.68 0 0 1-4.34 10.48 14.67 14.67 0 0 1-16.15 3.21 14.65 14.65 0 0 1-4.8-3.21 14.67 14.67 0 0 1-3.21-16.15 14.65 14.65 0 0 1 3.2-4.81 14.68 14.68 0 0 1 16.15-3.21 14.65 14.65 0 0 1 8.02 8.02c.76 1.81 1.13 3.7 1.13 5.67Z" fill="#DA251D"/><path d="m34.88 16.22-.02 1.82c0 .05-.03.06-.07.03a11.92 11.92 0 0 0-6.77-2.05 12.1 12.1 0 0 0-11.85 9.48 11.9 11.9 0 0 0 .15 5.62 11.58 11.58 0 0 0 2.8 5.07 12 12 0 0 0 4.64 3.06A12.17 12.17 0 0 0 34.74 38c.05-.03.08-.02.08.05v1.8a13.48 13.48 0 0 1-5.75 1.78c-2.77.22-5.36-.35-7.78-1.72a13.54 13.54 0 0 1-6.38-8 13.53 13.53 0 0 1 1.03-10.3 13.54 13.54 0 0 1 8.1-6.66 13.53 13.53 0 0 1 10.84 1.27Z" fill="#004378"/><path d="m34.88 16.22.1.06a13.36 13.36 0 0 1 5.35 5.86 13.54 13.54 0 0 1 .8 9.65 13.34 13.34 0 0 1-6.3 8.06v-1.8c0-.07-.04-.08-.09-.05a12.17 12.17 0 0 1-10.98 1.25 12 12 0 0 1-4.64-3.06 11.58 11.58 0 0 1-2.8-5.07 11.9 11.9 0 0 1 6.25-13.82 12.1 12.1 0 0 1 5.45-1.28c2.45 0 4.71.68 6.77 2.05.04.03.07.02.07-.03l.02-1.82Z" fill="#F6EF8E"/><path d="M26.39 29.96c1.21-.32 2.3-.64 3.26-.98.55-.19 1.07-.4 1.55-.65a33.3 33.3 0 0 0 2.15-1.22c.36-.2.65-.47.87-.8.21-.32.3-.7.28-1.1-.02-.46-.2-.78-.53-.98-.34-.2-.7-.31-1.1-.36a14.6 14.6 0 0 0-4.35.24c-2.95.56-4.89.99-5.8 1.27l-4.4 1.35c-.4.13-.42.09-.05-.1a48.5 48.5 0 0 1 8.86-3.66 19.9 19.9 0 0 1 8-.87c1.01.12 1.78.47 2.3 1.05.3.35.49.8.55 1.35.05.5 0 1-.17 1.46-.54 1.5-2.2 2.59-5 3.27-1.65.4-3.8.66-6.42.77-.11 0-.12 0 0-.04Z" fill="#B7673C"/><path d="M24.68 26h1.33c.05 0 .07.06.04.1l-3.63 7.87c-.01.02-.03.03-.05.03h-4c-.03 0-.04-.11-.05-.13v-.06l6.32-7.8a.05.05 0 0 1 .04-.01Z" fill="#B7673C"/><path d="M38.85 27.63c.08-.32.12-.32.14 0a3.64 3.64 0 0 1-1.2 3.12c-.22.2-.61.44-1.18.73-.6.31-1 .57-1.23.79-.37.36-.56.8-.57 1.32l-.05 2.27c0 .06-.03.1-.08.11l-1.6.56c-.06.02-.08 0-.08-.06V31.5c0-.06.15-.1.21-.1 2.07-.45 3.65-1.19 4.74-2.22.46-.44.76-.96.9-1.55Z" fill="#004378"/></svg>