<!-- by TradingView --><svg width="56" height="56" viewBox="0 0 56 56" xmlns="http://www.w3.org/2000/svg"><path fill="#F0F3FA" d="M0 0h56v56H0z"/><path fill-rule="evenodd" d="M45.99 28.02v-.04L28.02 10h-.04L10 27.98v.04L27.98 46h.04L46 28.02Zm-.16 0c.02-.01.02-.03 0-.04l-17.8-17.81c-.02-.02-.04-.02-.06 0l-17.8 17.8c-.02.02-.02.04 0 .06l17.8 17.8c.02.02.04.02.05 0l17.81-17.8Z" fill="#0201CF"/><path d="m41.85 29.7 1.63-.84.34-.16c.15-.08.35-.24.6-.5l.17-.17c.02-.02.02-.04 0-.05L28.02 11.4c-.01-.02-.03-.02-.05 0L11.4 27.98c-.02.02-.02.03 0 .05l.79.71c.15.04.27.08.36.13l1.16.6c.1-.04.17-.1.22-.16l-.12-.06a357.96 357.96 0 0 1-1.8-.91 1.43 1.43 0 0 1-.31-.32c-.02-.02-.02-.04 0-.06L27.96 11.7c.03-.03.06-.03.08 0l16.29 16.29v.03a1.13 1.13 0 0 1-.06.06c-.17.17-.33.3-.48.37l-.12.06-1.87.94a.25.25 0 0 0 .05.25Z" fill="#0201CF"/><path d="M28 22h.04l9.67 5.85c.03.02.04.04.04.08v1.02c0 .03-.02.05-.05.05h-2.6c-.03 0-.05-.02-.07-.05-.13-.42-.32-.8-.58-1.13-.24-.3-.56-.6-.96-.9-.92-.69-2.05-1.3-3.37-1.86-.91-.37-1.61-.65-2.1-.82h-.05a55 55 0 0 0-2.09.82 15.57 15.57 0 0 0-3.37 1.86c-.4.3-.72.6-.96.9-.26.33-.45.7-.59 1.13 0 .03-.03.05-.07.05h-2.6c-.03 0-.04-.02-.04-.05v-1.02c0-.04.01-.06.04-.08A42925.03 42925.03 0 0 1 28 22Z" fill="#FF0D0C"/><path d="m28 24.69.1.01c.79.3 1.64.65 2.56 1.04.04.01.04.03 0 .05h-.07a357.16 357.16 0 0 0-5.27 0c-.04-.01-.04-.03 0-.05a84.3 84.3 0 0 1 2.56-1.03.32.32 0 0 1 .11-.02Z" fill="#FEB48F"/><path fill-rule="evenodd" d="M26.69 19h-.05a.82.82 0 0 0-.2.19c-.02.04 0 .06.04.06.05 0 .1-.04.15-.1 0-.02.02-.03.04-.03s.03 0 .04.02c.06.06.1.1.16.09.04 0 .05-.03.02-.06a.81.81 0 0 0-.2-.17Zm1 1.6c0 .03.03.05.06.04.04 0 .06-.02.06-.05l-.05-1.13c0-.03.01-.04.05-.04l.17-.02c.03 0 .05-.01.05-.04 0-.04-.02-.06-.06-.06a12.89 12.89 0 0 0-.54.01c-.04 0-.05.03-.05.07 0 .03.02.04.06.04h.17c.03 0 .05.02.05.05l.04 1.12Zm3.61-1.18h-.04c-.07.05-.12.07-.17.06-.04-.01-.04-.03 0-.06.06-.05.13-.1.22-.12a.8.8 0 0 1 .05 0l.14.22c.02.04 0 .06-.04.05-.05-.01-.09-.05-.12-.13a.05.05 0 0 0-.04-.02Zm-1.35 1.22-.39-.04c-.02 0-.03 0-.03-.02l.13-1.17c0-.03 0-.05-.02-.05h-.03c-.04-.02-.06 0-.06.04l-.15 1.28c0 .03 0 .04.03.04l.52.04c.02 0 .04-.01.04-.04v-.02c.01-.04 0-.05-.04-.06Zm-4.17.21c-.03 0-.05 0-.06-.02-.19-.26-.44-.64-.77-1.14 0-.01 0-.03.02-.03l.02-.01c.03-.02.06 0 .07.02a660.19 660.19 0 0 0 .66.97c.02 0 .03-.02.03-.04l.07-1.11c0-.04.02-.05.05-.06h.03c.02 0 .03 0 .03.03l-.11 1.35c0 .02-.02.03-.04.04Zm4.65-1.36h.02c.02 0 .04.03.04.06l-.2 1.24c-.01.02-.04.04-.06.04h-.02a.05.05 0 0 1-.05-.06l.2-1.24c.01-.03.04-.05.07-.04Zm-3.7-.11c-.01-.03-.03-.04-.07-.03-.03 0-.06.01-.07.04l-.37 1.32c0 .02 0 .04.04.03h.03c.03 0 .04-.02.05-.04l.1-.4c.01-.02.03-.03.07-.04a3.6 3.6 0 0 1 .42-.02c.04 0 .07 0 .07.03l.16.37c.01.03.03.04.06.04h.03c.04 0 .05-.01.03-.04-.24-.58-.43-1-.55-1.26Zm-.08.22-.13.5c-.01.03 0 .04.03.04l.34-.02c.03 0 .04-.02.03-.04l-.21-.48c0-.02-.02-.02-.03-.02-.02 0-.03 0-.03.02Zm4.79.84c.02-.01.03-.03.03-.05v-.05l-.06-.03-.53-.12c-.02 0-.04-.02-.03-.05l.08-.37c.01-.03.03-.04.06-.04l.57.12c.03 0 .05 0 .06-.04v-.03c.01-.03 0-.05-.03-.06l-.69-.14c-.03 0-.05 0-.05.04l-.15.6-.15.6c-.01.02 0 .04.03.04l.68.18c.03 0 .05 0 .05-.03l.01-.04c.01-.03 0-.04-.03-.05l-.56-.15c-.03 0-.04-.03-.03-.06l.1-.36c0-.03.03-.04.05-.04a36.57 36.57 0 0 0 .59.13Zm.54.7c.1.04.18.03.26-.02a.36.36 0 0 0 .16-.2l.28-.82c.02-.05.05-.06.09-.03h.02c.02.02.02.03.02.05l-.32.9c-.03.1-.1.18-.23.22a.49.49 0 0 1-.32.01.46.46 0 0 1-.24-.19c-.08-.1-.1-.2-.06-.3l.3-.9c0-.03.02-.04.04-.03H32c.04 0 .06.03.04.07-.1.3-.2.58-.27.83a.34.34 0 0 0 0 .25c.04.08.1.14.2.17Zm-9.18-1.22h-.02l-.03.09.01.02h.02c.2.07.3.08.32.05v-.01c.01-.04-.08-.08-.29-.15Zm.32.35c-.02-.02-.04-.03-.07-.02-.04.02-.06.04-.06.06 0 .29.01.74.04 1.35 0 .03.02.04.04.03l.03-.02c.03 0 .04-.03.04-.05l-.02-.4c0-.02.02-.04.05-.06a3.77 3.77 0 0 1 .4-.14l.07.01.26.31c.02.02.04.03.07.02H24c.03-.02.03-.03.01-.05-.4-.48-.7-.83-.9-1.04Zm.05.77a2.72 2.72 0 0 0 .32-.12c.02-.01.03-.03.01-.05a11.41 11.41 0 0 0-.38-.43l-.01.01V21c.01.03.03.04.06.04Zm-.67.65c0 .02 0 .04-.02.04-.01.01-.03 0-.05-.02l-.73-.86c-.02-.02-.04-.02-.07 0h-.02c-.02.02-.02.03-.01.04l.9 1.03c.02.02.04.02.06.01.03 0 .04-.02.04-.04l-.07-1.35c0-.02-.01-.03-.03-.02h-.03c-.03.01-.05.03-.04.06l.07 1.1Zm11.4-.51c.16-.1.31-.2.46-.32a.07.07 0 0 1 .07-.01l.03.01c.02 0 .02.02.02.03l-.01.03-.54.37a.06.06 0 0 0-.03.05v.73c0 .03 0 .04-.03.03l-.02-.01a.05.05 0 0 1-.04-.06 48.13 48.13 0 0 1-.04-.6c-.01-.01-.13.06-.36.23l-.16.12a.06.06 0 0 1-.07 0h-.02c-.02-.02-.03-.03 0-.05l.59-.46a.06.06 0 0 0 .02-.05l-.04-.64s0-.02.02-.02h.07c.02.02.04.04.04.07a4.87 4.87 0 0 0 .03.55Zm-7.07-.45c0 .04-.04.08-.08.08a.08.08 0 0 1-.09-.08c0-.05.04-.08.09-.08.04 0 .08.03.08.08Zm8.54.37a.05.05 0 0 0-.05 0c-.08.03-.13.03-.17 0-.04-.02-.04-.04 0-.06a.86.86 0 0 1 .26-.05.33.33 0 0 1 .05.02c.04.09.06.17.07.25 0 .05-.02.06-.06.04-.04-.03-.07-.08-.07-.16a.05.05 0 0 0-.03-.04Zm-4.62-.08-.06.01c-.02.02-.03.04-.02.08 0 .03.02.05.05.05.03 0 .05 0 .07-.02.03-.02.04-.04.03-.07-.01-.02-.04-.04-.07-.05Zm4.53.35c0-.02 0-.04-.03-.06-.03-.02-.06-.02-.08 0-.23.18-.59.47-1.06.87-.03.02-.02.04 0 .05l.03.02.07-.01.31-.27h.08a2.97 2.97 0 0 1 .36.2c.03.03.04.05.04.07l-.09.4c0 .02 0 .04.03.05l.02.02c.03.02.05.01.05-.02l.27-1.32Zm-.17.11-.43.36c-.03.02-.02.04 0 .05l.31.18c.03.01.05 0 .05-.02l.12-.54c0-.01 0-.02-.02-.03h-.03Zm-15.55.17h.01c.03 0 .04.03.04.06l-.05.25c0 .02-.03.04-.06.03h-.02a.05.05 0 0 1-.03-.06l.05-.24c0-.03.03-.04.06-.04Zm16.22.86h.03c.23-.1.46-.2.69-.32a.08.08 0 0 1 .1.01l.02.02c.02.02.02.04-.01.05-.24.11-.48.23-.73.33a.85.85 0 0 0-.33.3l-.07.1c-.03.03-.07.04-.1.02-.03-.03-.04-.06 0-.1l.08-.1a.81.81 0 0 0 .2-.38l.14-.76c0-.03.02-.04.05-.02l.02.01c.04.02.05.05.04.1a18.32 18.32 0 0 0-.13.74Zm-15.13-.03.28.38c.02.02.01.04 0 .05l-.03.02h-.04l-.78-1.04c-.02-.02-.02-.04 0-.06.16-.13.3-.2.4-.23.13-.04.25 0 .35.1.1.1.15.22.13.35-.02.13-.12.25-.3.35-.03.02-.04.05-.01.08Zm-.43-.56c-.02-.03-.01-.05.01-.06l.12-.09a.36.36 0 0 1 .24-.07c.09.01.15.05.2.1l.02.03c.04.06.06.13.04.21a.34.34 0 0 1-.14.2l-.12.08c-.03.02-.05.02-.07 0l-.3-.4Zm-.94.39a.24.24 0 0 1-.23.04l-.04-.03a.07.07 0 0 1 0-.03c0-.01 0-.02.02-.02.1-.01.17-.02.19-.04.02-.02.05-.07.08-.17 0-.02.01-.02.03-.02l.03.02.01.04c.01.08-.02.15-.09.2Zm.68.76a3.3 3.3 0 0 0-.16.13c-.02.03-.03.05-.02.07l.16.37c0 .03 0 .05-.02.06l-.02.03c-.02.02-.04.02-.05-.01a37 37 0 0 1-.52-1.26c0-.02 0-.05.02-.07.03-.02.06-.03.09-.01.26.13.66.36 1.2.68.04.02.04.03.01.05l-.03.02a.06.06 0 0 1-.06 0l-.36-.2c-.02-.02-.04-.01-.07.01-.03.01-.08.06-.17.13Zm-.07-.1c-.06.06-.1.1-.13.11-.02.02-.04.01-.06-.01a11.13 11.13 0 0 1-.2-.52h.02l.49.26c.03.02.03.04 0 .06l-.12.1Zm17.34-.23c-.03-.02-.06-.02-.09 0l-.97.83c-.03.02-.03.05 0 .08l.12.13c.13.14.28.21.47.22.2.02.36-.04.5-.16l.04-.03a.61.61 0 0 0 .23-.46.63.63 0 0 0-.18-.47l-.12-.14Zm-.02.16c-.02-.03-.05-.03-.07 0l-.8.68c-.03.02-.03.04-.01.07l.06.06c.1.11.23.17.4.18.15 0 .29-.04.4-.14l.02-.02c.12-.1.19-.23.2-.38a.5.5 0 0 0-.14-.39l-.06-.06ZM19.4 24.14l.37-.36v-.03l-.05-.06h-.04l-.3.28h-.03l-.88-.84h-.03l-.05.04v.04l.97.93h.04Zm19.16.11h.05c.03 0 .04-.03.04-.05v-.1c0-.04.02-.05.06-.04.05.01.08.04.1.08 0 .03-.01.06-.04.1a.39.39 0 0 1-.3.1l-.08.01-.2.16c-.27.23-.46.36-.57.39a.4.4 0 0 1-.41-.13.4.4 0 0 1-.11-.41c.02-.1.1-.19.23-.3.08-.05.29-.22.61-.49.03-.02.05-.02.08 0l.03.01c.03.02.03.04 0 .06l-.75.6c-.14.12-.15.26-.02.43l.02.02c.14.14.29.14.45.02l.72-.57c.03-.02.05-.02.06.02v.04c0 .03 0 .04.03.05Zm-20.1.8c.04.03.07.03.1 0 .02-.04.01-.07-.03-.1a4.06 4.06 0 0 0-.1-.07.84.84 0 0 1-.31-.32 37.8 37.8 0 0 0-.36-.7c-.01-.02-.03-.02-.06 0l-.02.02c-.03.03-.03.06 0 .1a16.77 16.77 0 0 1 .34.68l-.02.02-.77-.14c-.04 0-.07 0-.1.04v.02c-.02.03-.01.05.02.06l.8.12c.13.02.26.08.4.2.05.02.08.05.1.07Zm20.33-.2h-.02l-.02.01-.86.55c-.03.02-.05.01-.07 0l-.02-.05v-.03l.94-.6c.28-.18.35-.12.2.17l-.46.81c-.03.05-.01.06.04.05h.02l.03-.02.8-.5.04.01v.02c.03.03.03.06 0 .08l-1.1.69c-.02.01-.04 0-.06-.01-.03-.04-.03-.08 0-.14l.55-.98v-.05Zm-22.18.07v-.04a.05.05 0 0 1 .05-.02c.09 0 .14-.03.17-.06.02-.04.01-.06-.04-.06a.84.84 0 0 0-.26.05l-.01.02a.27.27 0 0 0-.02.02c0 .1.01.18.04.25.01.05.04.05.07.01.03-.03.03-.09 0-.17Zm20.46.04c.04 0 .07-.04.07-.08a.07.07 0 0 0-.07-.07.07.07 0 0 0-.08.07c0 .04.04.08.08.08ZM16.83 25c.01-.03.04-.04.06-.03.3.06.74.18 1.35.34.03.01.04.03.02.05l-.02.02a.06.06 0 0 1-.06.02l-.4-.1c-.02 0-.05 0-.07.03a3.1 3.1 0 0 0-.23.33c-.02.03-.02.06-.01.07l.26.32v.06l-.02.03c-.01.03-.03.03-.05 0a38.9 38.9 0 0 1-.84-1.06c-.02-.03-.01-.05 0-.08Zm.52.58-.36-.43v-.03c0-.02.02-.02.04-.02l.55.14c.02 0 .03.02.01.05l-.2.29c0 .02-.02.02-.04 0Zm-.44.79c-.01.01.06.13.22.36l.11.16v.08c-.02.02-.03.03-.05 0l-.44-.59a.06.06 0 0 0-.05-.03h-.67s-.02 0-.03-.02v-.03l.02-.03a.07.07 0 0 1 .07-.03 5.65 5.65 0 0 0 .57-.01l-.3-.45a.06.06 0 0 1 0-.08l.01-.03.03-.01.03.01.35.54c.01.02.03.03.05.03l.76.05c.03 0 .03 0 .02.03l-.01.02a.06.06 0 0 1-.06.03 48.65 48.65 0 0 1-.63 0Zm22.35.48-.14-.02a.41.41 0 0 1-.29-.16c-.12-.16-.14-.32-.06-.47a.64.64 0 0 1 .36-.3.66.66 0 0 1 .47-.03c.16.06.25.19.28.38 0 .05-.01.13-.05.25l-.03.08.01.02h.04c.04 0 .06 0 .07-.03.1-.23.1-.43 0-.6a.54.54 0 0 0-.4-.24.85.85 0 0 0-.5.09.74.74 0 0 0-.35.32.51.51 0 0 0-.01.48c.07.16.19.26.35.3.17.06.33.04.5-.04.01-.01.02-.02.01-.04l-.3-.58c-.03-.03-.06-.04-.1-.02l-.02.02v.04l.23.45c.04.08.02.11-.07.1Z" fill="#0201CF"/><path d="M29.52 26.94c.04-.09.1-.16.16-.2a.2.2 0 0 0 .06-.06c.02-.03.02-.06 0-.09a.06.06 0 0 0-.05-.03h-.36c-.06 0-.1.03-.11.09l-.1.3h-2.26l-.07-.27a.12.12 0 0 0-.11-.1 2.65 2.65 0 0 0-.34-.03c-.25 0-.28.08-.11.25l.13.15h-3.05c-.1 0-.1-.02-.02-.07l.9-.56a.36.36 0 0 1 .2-.06h7.24c.06 0 .12.02.18.06l.91.57c.08.04.07.07-.02.07l-3.18-.02Z" fill="#FEB48F"/><path d="m26.86 26.95.14.49.19.68.14.5.2.65.13.5.19.74.07.23c.02.08.05.08.08 0l.09-.24.22-.76.13-.46.2-.65.14-.5.2-.7.14-.48.1-.3c.01-.06.05-.09.1-.09h.37c.03 0 .04.01.05.03.02.03.02.06 0 .09a.2.2 0 0 1-.06.06.57.57 0 0 0-.16.2c-.07.11-.1.28-.07.51v.66l-.01.5v2.34c-.02.35.08.57.3.68l.1.12v.06a.18.18 0 0 1-.2.08 1.6 1.6 0 0 0-.7 0c-.02 0-.05 0-.07-.02-.04-.04-.03-.11.04-.2.11-.1.18-.2.2-.33.03-.15.04-.38.02-.71v-.13l-.01-.74-.01-.5v-.65l-.01-.42c-.04-.22-.1-.23-.15 0l-.13.41-.19.68-.15.49-.23.74-.11.4-.21.75-.02.02c-.02.02-.04.02-.07.01-.03-.02-.05-.04-.05-.06l-.2-.74-.12-.42-.2-.69-.13-.47-.2-.76a3.23 3.23 0 0 0-.07-.26c-.08-.22-.12-.21-.14.02l-.01.3-.02.67-.01.48-.01.71-.01.45c.01.22.04.38.1.5.05.12.14.2.24.25.12.11.1.18-.02.2h-.16c-.2-.04-.4-.04-.6.02-.03 0-.05 0-.07-.03-.04-.05-.02-.12.05-.21.18-.15.27-.4.28-.75a323.24 323.24 0 0 1 .07-2.38v-.32l-.04-.8a1.03 1.03 0 0 0-.16-.45l-.13-.15c-.17-.17-.14-.25.1-.25l.35.03c.06.01.1.04.1.1l.08.27Z" fill="#FF0D0C"/><path d="m29.12 26.95-.14.49H27l-.14-.49h2.26Z" fill="#fff"/><path d="M31.39 27.45a.5.5 0 0 0 .27.22c.02 0 .03.03.04.05l.03.4v.2c0 .03 0 .04-.02.05h-.03a.03.03 0 0 1-.02-.02.64.64 0 0 0-.08-.22c-.18-.53-.45-.75-.81-.65a.6.6 0 0 0-.34.26c-.08.13-.14.26-.17.4l-.1.47v.68l.06.48c.06.26.16.49.3.7.26.28.54.29.82.03l.32-.58.02-.01h.03v.04c0 .18-.02.36-.03.52-.52.52-1 .52-1.47 0l-.25-.7-.06-.53.04-.63.1-.5c.08-.24.21-.46.4-.65.33-.19.64-.2.95-.01ZM25.44 27.45c.2.2.3.43.28.68 0 .1-.01.25-.06.42l-.18.3c-.01.02 0 .03.01.04a.6.6 0 0 1 .34.4l.07.5c0 .22-.06.45-.17.67-.14.24-.34.35-.6.34a7.65 7.65 0 0 0-.77-.03c-.02-.02-.02-.04-.01-.07l.04-.04c.04-.04.08-.1.13-.19l.04-.9V28.14l-.05-.5a.07.07 0 0 0-.05-.07l-.12-.06a.1.1 0 0 1-.05-.06.19.19 0 0 1 0-.06.2.2 0 0 1 .09-.03c.2.03.4.03.61.03.07 0 .15 0 .22.02l.23.04Z" fill="#FF0D0C"/><path d="M26.56 28.2c-.23-.1-.52-.11-.84-.07a.85.85 0 0 0-.28-.68l1.08-.04.04.8ZM24.28 27.39c0 .02 0 .04.02.06 0 .03.02.04.04.06l.12.06c.03.01.04.03.05.06l.06.5h-2.52c-.04 0-.07-.02-.07-.07 0-.01 0-.02.02-.03l.47-.52a.2.2 0 0 1 .16-.07l1.6-.01c.02 0 .04-.02.05-.04ZM28.98 27.44l-.2.69h-1.6l-.18-.7h1.98ZM30.44 27.46c-.19.2-.32.41-.4.66l-.6-.01v-.66l1 .01ZM31.73 28.12l-.03-.4a.06.06 0 0 0-.04-.05.5.5 0 0 1-.27-.22l1.93-.01c.11 0 .2.04.28.13l.41.48c.05.05.03.08-.04.08h-2.24ZM31.58 28.13l-1.32.01c.03-.14.09-.27.17-.4a.6.6 0 0 1 .34-.26c.36-.1.63.12.81.65ZM25.5 28.15l-.7-.03.01-.46c0-.06.03-.1.1-.11.14-.04.28.02.4.16.1.13.17.27.19.44Z" fill="#FEB48F"/><path d="M29.1 28.61a.82.82 0 0 1-.28 0l.13-.42c.06-.23.1-.22.15 0 .01.09.02.22 0 .42ZM30.05 28.12l-.11.5-.5-.02v-.5l.6.02ZM25.5 28.15l-.01.44-.68.03-.02-.5.7.03ZM26.56 28.2v.32c-.03 0-.04.01-.05.03 0 .02-.02.04-.04.04-.29.05-.56.04-.81-.04.05-.17.07-.31.06-.42.33-.04.6-.02.84.07ZM26.93 28.55c0 .04-.01.07-.04.07l-.17-.01.01-.3c.02-.23.06-.24.14-.02l.06.26Z" fill="#fff"/><path d="m21.9 31.15 1.13.46 1.7.7c.44.22.84.4 1.22.5l1.17.5a.1.1 0 0 1 .07.1l.01.17v3.99c0 .03-.02.04-.04.04h-2.92c-.03 0-.04-.01-.04-.04v-3.58c0-.01 0-.02-.02-.02l-9.55-4.84c-.03-.01-.04-.04-.03-.07l.38-.74c0-.02.03-.03.05-.02l6.86 2.85ZM28.8 36.6v-3a.41.41 0 0 1 .02-.21c0-.03.02-.05.05-.06l4.08-1.7 1.2-.5 6.81-2.82c.03-.02.05 0 .06.02l.38.74c.01.02 0 .04-.02.05l-9.53 4.82a.07.07 0 0 0-.04.07v3.56c0 .03-.01.05-.04.05h-2.91c-.04 0-.06-.02-.06-.06v-.95Z" fill="#0201CF"/><path d="m16.72 29.18-1 .26h-.03l-.52-.9v-.03c.01-.01.03-.02.04-.01l1.51.62.02.03c0 .01 0 .02-.02.03ZM40.84 28.52l-.52.92-.03.01-1.03-.28a.02.02 0 0 1-.01-.02l.01-.02 1.55-.65.03.01v.03Z" fill="#DDFBFC"/><path d="M25.66 28.55c.25.08.52.09.81.04.02 0 .04-.02.04-.04s.02-.03.04-.03l-.01.56v.36l-.01.3-.02.18-.02.98c0 .35-.1.6-.28.75l-3.18-.04-1.14-.46c0-.05-.01-.1-.04-.13v-.05c0-.02.02-.02.04-.02h4.51c.05 0 .07-.03.07-.07v-.35c0-.04-.02-.07-.06-.07h-.68c.11-.22.17-.45.17-.67l.55-.02c.02 0 .03-.01.03-.03v-.42c0-.02-.01-.02-.03-.02l-.62-.02a.6.6 0 0 0-.34-.39c-.02 0-.02-.02-.01-.05l.18-.29Z" fill="#FEB48F"/><path d="M41.24 29c.02.04.01.07-.03.09l-.69.35c-.08.04-.1.02-.05-.06l.48-.84.03-.01c.01 0 .02 0 .03.02l.23.45ZM14.77 29l.22-.45.03-.02c.01 0 .02 0 .03.02l.47.82c.05.08.03.1-.05.06l-.68-.34c-.03-.02-.04-.05-.02-.1Z" fill="#DDFBFC"/><path d="m27.14 29.3-.44-.02.02-.67h.17c.03 0 .04-.02.04-.06l.21.76ZM25.49 28.6c-.1.2-.3.28-.63.23-.03 0-.04-.02-.04-.05l-.01-.16.68-.03ZM29.94 28.61l-.04.63v.1h-.02l-.02-.02a.08.08 0 0 0-.06-.03l-.36-.03v-.66l.5.01ZM24.57 28.6v.69H21.6c-.07 0-.09-.03-.07-.1l.13-.5c.02-.06.05-.08.1-.08h2.8ZM28.63 28.63l-.2.65h-.91l-.2-.66h1.31ZM28.82 28.6c.1.02.2.02.29.01v.66h-.48l.2-.67ZM30.16 29.3v-.7h4.06c.06 0 .1.04.12.1l.13.5c.01.03 0 .05 0 .07a.07.07 0 0 1-.07.03h-4.24Z" fill="#FEB48F"/><path d="M12.2 28.74c.14.04.26.08.35.13l1.16.6 9.75 4.93a.1.1 0 0 1 .05.1v3.79l.02.01h8.95c.02 0 .02 0 .02-.03v-3.8a.1.1 0 0 1 .06-.08l9.3-4.7 1.62-.83v.08c0 .03.02.04.04.03.05 0 .1-.04.13-.08h.02l.03.05v.02L28.06 44.6c-.04.04-.08.04-.12 0L12.66 29.32c-.2-.2-.35-.38-.47-.58Z" fill="#C7C3EE"/><path d="m25.52 29.3-.71-.02c-.06-.26.11-.33.52-.2.08.03.15.1.19.21Z" fill="#FEB48F"/><path d="m17.33 30.24-.4-.98v-.03h.04l1.58.65c.02 0 .02.02.02.03 0 .02 0 .03-.02.03l-1.18.32c-.02 0-.03 0-.04-.02ZM38.66 30.27l-1.23-.33-.02-.02c0-.02 0-.02.02-.03l1.58-.66h.02l.01.03-.35 1-.03.01Z" fill="#DDFBFC"/><path d="m28.44 29.28-.13.46c-.17.06-.4.07-.65.03l-.14-.5h.92ZM29.9 29.24l.06.52-.52.02v-.52l.36.03.06.03.01.02h.02l.01-.1Z" fill="#fff"/><path d="m15.8 29.54 1-.28c.02 0 .03 0 .03.02l.38.96-.01.04a.03.03 0 0 1-.04 0l-1.36-.69c-.01 0-.02-.01-.02-.03l.02-.02Z" fill="#DDFBFC"/><path d="m29.1 29.27.02.49h-.64l.15-.48.48-.01Z" fill="#fff"/><path d="m38.79 30.26.38-.98c0-.02.01-.02.03-.02l1.01.28c.01 0 .02 0 .02.02l-.01.02-1.4.71h-.02l-.01-.03Z" fill="#DDFBFC"/><path d="M25.52 29.3c.06.08.1.23.13.42l-.84.06a.97.97 0 0 1 0-.5l.71.01Z" fill="#fff"/><path d="M41.8 29.45a.25.25 0 0 0 .05.25l-9.3 4.69a.1.1 0 0 0-.05.09v3.8c0 .01 0 .02-.03.02h-8.94l-.02-.01v-3.8a.1.1 0 0 0-.05-.09l-9.75-4.93c.1-.04.17-.1.22-.16l9.8 4.95c.02.01.03.03.03.06V38c0 .02.01.04.04.04h8.41c.02 0 .03-.01.03-.04v-3.69c0-.03.02-.05.04-.07l9.52-4.8Z" fill="#2423E9"/><path d="m24.56 29.57-.04.9h-2.85c-.05 0-.08-.03-.09-.08l-.08-.54c-.01-.05.01-.08.06-.08h2.9c.03 0 .05 0 .06-.02.04-.05.06-.1.04-.18ZM25.53 30.5a2.36 2.36 0 0 0-.73-.03v-.69l.85-.06c.05.26.01.52-.12.77ZM28.31 29.74l-.22.76c-.14-.06-.22-.06-.24 0l-.2-.73c.27.04.49.03.66-.03ZM29.12 29.76l.01.73a1.88 1.88 0 0 0-.88.02l.23-.74h.64ZM30.21 30.47l-.77-.02v-.67l.52-.02.25.7ZM27.28 29.78l.19.68-.79.01v-.71l.6.02ZM31.68 30.47a7.57 7.57 0 0 0 .03-.55l-.03-.01-.02.01-.32.58v-.05c-.01-.03-.03-.03-.05-.02a.13.13 0 0 1-.07.03 3.38 3.38 0 0 1-.61-.03l-.02-.03h-.03c-.02 0-.03.03-.03.06-.15-.2-.25-.43-.3-.69h4.22c.04 0 .06.02.05.06l-.06.52c-.01.07-.05.1-.12.1l-2.64.02Z" fill="#FEB48F"/><path d="M19.22 31.19 18.73 30v-.03h.04l1.91.79c.01 0 .02.01.02.03l-.02.02-1.43.38-.03-.01ZM36.78 31.22l-1.46-.4-.02-.02c0-.02 0-.03.02-.03l1.87-.78h.03v.04l-.4 1.17-.04.02ZM17.42 30.37l1.2-.35c.02 0 .03 0 .03.02l.43 1.16v.03h-.03l-1.63-.82-.02-.02.02-.02ZM36.91 31.2l.43-1.16c0-.02.02-.03.04-.02l1.2.34.02.03c0 .01 0 .02-.02.03l-1.63.82h-.03l-.01-.03Z" fill="#DDFBFC"/><path d="M31.34 30.5c-.28.26-.56.25-.81-.04 0-.03.01-.06.03-.06h.03l.02.03.02.01c.2.03.4.03.6.02.01 0 .03 0 .06-.03.02-.01.04 0 .05.02v.05ZM25.53 30.5c-.34.23-.58.22-.73-.03.22-.03.46-.02.73.02ZM27.47 30.47l.12.42c-.3.06-.6.07-.92.03v-.45h.8ZM28.09 30.5l-.1.24c-.02.08-.05.08-.07 0l-.07-.23c.02-.07.1-.07.24-.01ZM29.14 30.5v.13a.7.7 0 0 1-.02.25c0 .03-.02.04-.05.04-.3.04-.62.04-.93 0l.1-.41c.28-.08.58-.08.9-.01Z" fill="#fff"/><path d="M29.13 30.63c.02.33.01.56-.02.7a.58.58 0 0 1-.2.34 3.22 3.22 0 0 0-.98-.01l.2-.74c.32.04.63.04.94 0 .03 0 .04-.01.05-.04a.71.71 0 0 0 .01-.25Z" fill="#FEB48F"/><path d="m21.39 32.3-.5-1.4v-.03h.02l2.25.93c.01 0 .02.01.02.03l-.02.02-1.75.47c-.01 0-.02 0-.02-.02Z" fill="#DDFBFC"/><path d="m27.79 31.63-.78.04a.47.47 0 0 1-.25-.26c-.05-.1-.08-.27-.09-.5.32.05.63.04.92-.02l.2.74Z" fill="#FEB48F"/><path d="m34.59 32.32-1.75-.47a.03.03 0 0 1-.02-.02c0-.02 0-.03.02-.03l2.24-.93h.03v.03l-.49 1.4c0 .02-.02.03-.03.02ZM19.31 31.32l1.43-.42.03.01.5 1.4-.01.03h-.03l-1.92-.98a.02.02 0 0 1-.01-.02l.01-.02ZM34.73 32.3l.5-1.38c0-.02.02-.03.04-.02l1.4.42c.02 0 .03 0 .03.02s0 .03-.02.03l-1.9.97h-.04v-.04Z" fill="#DDFBFC"/><path d="m34.15 31.13-1.2.5h-3.2c-.23-.1-.33-.33-.3-.68h4.61c.05 0 .08.02.08.07l.01.11Z" fill="#FEB48F"/><path d="M26.21 31.65c-.07.09-.09.16-.05.21l.06.03c.2-.06.41-.06.61-.02H27c.13-.02.14-.09.02-.2l.78-.04c0 .02.02.04.05.06.03.01.05 0 .07-.01l.02-.02c.33-.05.65-.05.98 0-.07.1-.08.17-.04.2.02.03.05.04.07.03.23-.05.46-.05.7 0 .08.01.14-.01.2-.08v-.06l-.1-.12h3.2l-4.07 1.7a.07.07 0 0 0-.05.06.41.41 0 0 0-.01.2 8.84 8.84 0 0 0-1.6-.01l-.02-.18a.1.1 0 0 0-.07-.08l-1.17-.5c.17.04.33.08.48.1.15.04.32.05.5.05h2.57a.4.4 0 0 0 .15-.03c.32-.12.6-.25.88-.38.1-.05.29-.11.55-.18l.02-.03v-.02c-.01-.03-.03-.05-.06-.05l-6.3.03-1.71-.7 3.18.04Z" fill="#fff"/><path d="m24.78 32.5-.5 1.2-.02.01-.02-.01-.84-1.75v-.03h.04l1.33.55c.01 0 .02.01.01.03ZM31.23 32.46l1.34-.56.03.01v.03l-.84 1.77-.02.01-.02-.01-.5-1.21v-.04ZM23.28 31.96l.86 1.8-.01.03h-.03l-2.62-1.33c-.01 0-.02 0-.02-.02l.02-.02 1.77-.48c.01 0 .02 0 .03.02ZM32.75 31.94l1.77.48c.01 0 .02 0 .02.02l-.01.03-2.64 1.33h-.03v-.04l.86-1.81c0-.01.01-.02.03-.01Z" fill="#DDFBFC"/><path d="M25.95 32.82a7.37 7.37 0 0 1-1.22-.51l6.31-.03c.03 0 .05.02.06.05v.02c0 .02 0 .03-.02.03a3.3 3.3 0 0 0-.55.18c-.27.13-.56.26-.88.38a.4.4 0 0 1-.15.03h-2.58c-.17 0-.34-.01-.49-.04a9.4 9.4 0 0 1-.48-.11Z" fill="#FEB48F"/><path d="M27.07 33.44v.39c0 .01 0 .02-.02.02h-2.67c-.02 0-.03 0-.02-.03l.53-1.28c0-.01.02-.02.03-.01l2.14.89.01.02ZM28.92 33.83v-.39s0-.02.02-.02l2.14-.9c.02 0 .03 0 .03.02l.54 1.28c0 .02 0 .03-.03.03h-2.67c-.02 0-.03 0-.03-.02Z" fill="#DDFBFC"/><path d="M28.81 33.6v.6h-1.48c-.02 0-.04 0-.06-.02a.34.34 0 0 1-.07-.18v-.42a8.84 8.84 0 0 1 1.61.01Z" fill="#FEB48F"/><path d="M31.69 37.47c0 .01 0 .02-.02.02h-2.73c-.01 0-.02 0-.02-.02v-3.49c0-.01 0-.02.02-.02h2.73c.01 0 .02 0 .02.02v3.49ZM27.08 37.47c0 .01 0 .02-.02.02h-2.72c-.02 0-.03 0-.03-.02V34c0-.02 0-.02.02-.02h2.72l.02.01v3.49Z" fill="#DDFBFC"/><path d="M25.1 34.7c0-.04.02-.05.05-.05h.32c.23 0 .43.1.6.28a1 1 0 0 1 .25.68v.25a1 1 0 0 1-.25.69.77.77 0 0 1-.6.28h-.3c-.04 0-.05-.01-.05-.04l-.01-2.1ZM30.25 34.65h.41c.04 0 .07.02.07.07V35c0 .04-.02.06-.06.06h-.23c-.03 0-.05.01-.05.04v1.67c0 .03-.01.04-.03.05H30.15c-.03 0-.04-.02-.04-.05V35.1c0-.03-.01-.04-.04-.04h-.23c-.04 0-.06-.02-.06-.06v-.28c0-.05.02-.07.07-.07h.4Z" fill="#2423E9"/><path d="M28.8 34.78v.63l-1.46.01c-.08 0-.12-.04-.12-.11v-.44c0-.06.04-.1.1-.1l1.48.01Z" fill="#FEB48F"/><path d="M25.39 35.09c0-.03.01-.04.04-.04h.06c.15 0 .28.06.38.18.1.12.16.27.16.44v.13c0 .18-.05.32-.16.45a.49.49 0 0 1-.38.18h-.06c-.03 0-.04-.01-.04-.04v-1.3Z" fill="#DDFBFC"/><path d="M28.8 35.98v.62h-1.6v-.5c0 .08.02.05.08-.1a.05.05 0 0 1 .05-.03l1.46.01Z" fill="#FEB48F"/></svg>