<!-- by TradingView --><svg width="56" height="56" viewBox="0 0 56 56" xmlns="http://www.w3.org/2000/svg"><path fill="#F0F3FA" d="M0 0h56v56H0z"/><path d="M29.24 12c.05.03.1.07.12.1l.03.1-.4 4.36c-.01.07-.05.1-.1.1-.61-.07-1.2-.08-1.79-.04-.08 0-.12-.03-.13-.11L26.63 12h2.61ZM25.22 16.93c-.3.07-.6.15-.9.25-.04.01-.06 0-.08-.04l-1.35-4.2c-.03-.09 0-.14.08-.17a14.5 14.5 0 0 1 2.46-.56c.08-.02.13.02.15.1l.6 4.38c0 .04 0 .07-.05.07-.3.04-.6.1-.91.17ZM30.74 16.93c-.3-.08-.61-.14-.91-.19-.05 0-.06-.03-.06-.07l.7-4.37c0-.08.06-.12.14-.1a14.11 14.11 0 0 1 2.45.6c.08.03.1.09.08.17l-1.43 4.18c-.02.05-.05.06-.09.04-.28-.1-.58-.19-.88-.26ZM19.38 14.46l2.3-1.23c.05-.03.09-.02.11.04l1.76 4.1c.02.04 0 .08-.04.1l-1.62.87c-.05.02-.08.01-.11-.03l-2.43-3.73c-.03-.05-.02-.1.03-.12ZM33.35 17.9a9.91 9.91 0 0 0-.84-.38c-.04-.02-.05-.05-.04-.09l1.67-4.08c.03-.08.09-.1.17-.07a14.28 14.28 0 0 1 2.23 1.15c.08.05.1.11.04.18l-2.34 3.74c-.02.03-.05.04-.09.02a9.96 9.96 0 0 0-.8-.46ZM37.85 15.3l1.57 1.4c.07.02.16.1.27.24l-3.36 3.2h-.04c-.44-.46-.9-.88-1.4-1.25-.04-.04-.05-.08-.02-.12l2.75-3.67c.11.06.19.13.23.2ZM21.11 18.92l-1.3 1.18c-.06.06-.12.06-.17 0l-3.2-2.97c-.07-.07-.07-.13 0-.19l1.86-1.7c.07-.06.13-.05.19.02l2.64 3.49c.04.06.04.12-.02.17Z" fill="#3BA4DC"/><path d="M29.68 25.4c0-.01 0-.02-.03-.01l-1.66.59c-.03.01-.04.03-.04.06v1.36c0 .03-.02.05-.06.05h-.03c-.03 0-.05-.01-.05-.04v-1.32a.15.15 0 0 0-.1-.15l-1.47-.55c-.04-.02-.07 0-.08.04l-.22 1.35c-.01.04-.03.06-.08.04l-.03-.01c-.04-.02-.06-.05-.05-.09l1.04-6.2c.02-.1-.02-.15-.12-.16l-.13-.01a.15.15 0 0 1-.1-.04l-.98-1.01c-.1-.1-.3-.22-.64-.36a.16.16 0 0 1-.07-.07.55.55 0 0 1-.05-.34c.01-.11.06-.19.14-.22a.7.7 0 0 1 .25-.04l.11-.01c.08 0 .17-.05.27-.13a78.09 78.09 0 0 0 .81-.62.73.73 0 0 0 .31-.39c0-.03.03-.06.05-.09.2-.17.47-.28.79-.31.34-.04.66-.04.96 0 .4.05.69.16.86.35.03.02.04.05.05.09.02.1.1.21.24.32l.9.71c.07.06.18.1.33.1.1 0 .18.01.22.04.08.03.14.1.18.2.05.1.04.2-.02.3-.07.1-.23.22-.47.32-.16.07-.27.13-.32.18a50 50 0 0 0-1.2 1.1l-.12.04c-.03 0-.04.03-.04.07l1.05 6.24c0 .06-.02.08-.08.06l-.05-.02a.06.06 0 0 1-.04-.05l-.23-1.36Z" fill="#315AA8"/><path d="M27.96 17.64c.66 0 1.2-.18 1.2-.4 0-.22-.54-.4-1.2-.4-.66 0-1.2.18-1.2.4 0 .22.54.4 1.2.4Z" fill="#fff"/><path d="m14.12 19.97 1.51-2.06c.05-.07.1-.07.17-.02l3.3 2.92c.04.04.05.1 0 .15l-1.05 1.44c-.04.05-.1.06-.15.03l-3.75-2.3c-.07-.04-.08-.1-.03-.16ZM41.17 18.95c.25.35.47.7.68 1.06.04.08.03.14-.05.18l-3.82 2.22c-.03.02-.06 0-.08-.03a10.22 10.22 0 0 0-1.07-1.52c-.03-.04-.02-.07.01-.1l3.38-2.84c.07-.05.13-.05.18.02.27.32.53.66.77 1Z" fill="#3BA4DC"/><path d="m27.04 20.42.75.13c.02 0 .02.02.02.03v1.09c0 .01 0 .02-.02.03l-1.03.44c-.03.02-.05 0-.04-.04l.28-1.65c0-.02.01-.03.04-.03ZM27.95 21.7v-1.08c0-.02 0-.03.03-.03l.84-.15c.02 0 .03 0 .03.03l.28 1.64c0 .03-.01.05-.05.03l-1.11-.42a.03.03 0 0 1-.02-.03Z" fill="#fff"/><path d="M42.25 20.54c.57 1.1 1 2.21 1.3 3.36.02.24.05.5.1.74a13.65 13.65 0 0 1 .34 2.54 15.83 15.83 0 0 1-2.35 9.24 16.04 16.04 0 0 1-10.23 7.25 13.73 13.73 0 0 1-3.61.33 15.6 15.6 0 0 1-7.11-1.74 16.05 16.05 0 0 1-6.92-21.55c.01-.05.05-.06.1-.04l4.12 2.12c.03.01.04.04.02.07a11.19 11.19 0 0 0-1.2 4.57c-.1 2.56.56 4.87 1.97 6.9a11.11 11.11 0 0 0 8.13 4.83 11.04 11.04 0 0 0 8.91-3.13 11.22 11.22 0 0 0 2.15-13.24c-.02-.03 0-.05.03-.07l4.25-2.18Z" fill="#315AA8"/><path d="m27.76 22.75-.9-.41-.02-.03c0-.02 0-.03.02-.03l.91-.4c.03-.01.05 0 .05.03l-.01.81c0 .04-.02.05-.05.03ZM28.01 21.88l.95.41c.02 0 .02.02.02.04s0 .03-.02.03l-.96.4c-.03.02-.05 0-.05-.03v-.81c0-.04.02-.06.06-.04ZM26.7 22.42l1.1.56.01.02v1.51c0 .02 0 .03-.02.03l-1.53.55c-.03 0-.04 0-.04-.04l.44-2.6c0-.04.02-.04.05-.03ZM27.98 22.96l1.16-.5c.03-.01.05 0 .05.03l.44 2.6c0 .03-.01.05-.05.03l-1.6-.6c-.02 0-.02-.02-.02-.03v-1.5s0-.02.02-.03Z" fill="#fff"/><path d="M30.96 29.52c.01.1.07.15.16.16.2.02.41-.08.61-.3.13-.12.27-.33.44-.61.36-.6.7-1.29 1.03-2.07.21-.54.48-1.27.8-2.21a.09.09 0 0 1 .07-.07c.8-.19 1.56-.44 2.29-.74.14-.06.16-.03.06.08a21.62 21.62 0 0 0-2.82 4.49 12.84 12.84 0 0 0-1.3 4.02c0 .04-.03.05-.06.05h-1.9c-.03 0-.05-.01-.06-.05-.22-1.13-.84-1.8-1.85-2a2.27 2.27 0 0 0-2.7 2.02c0 .02-.03.04-.06.04h-1.9c-.04 0-.06-.02-.06-.06-.14-1.15-.53-2.4-1.15-3.74a20.23 20.23 0 0 0-2.98-4.76c-.11-.13-.1-.16.06-.09.73.33 1.49.58 2.26.75.07.02.11.06.13.12a17.56 17.56 0 0 0 1.97 4.5c.3.45.6.66.9.63.1 0 .16-.06.17-.17a.64.64 0 0 0-.1-.46 18.93 18.93 0 0 1-2.27-4.33 6.87 6.87 0 0 0 1.83.49c.05 0 .07.03.07.08a3.29 3.29 0 0 0 1.34 2.67c.5.4 1.1.62 1.75.66a3.33 3.33 0 0 0 3.49-2.13c.14-.38.2-.75.2-1.1v-.12c0-.04.03-.06.06-.06.61-.1 1.22-.27 1.84-.52.04-.01.05 0 .03.04a48.77 48.77 0 0 1-1.44 2.95l-.78 1.35a.8.8 0 0 0-.13.5Z" fill="#3BA4DC"/><path d="m28.02 24.71 1.36.5c.02.01.03.03.03.05 0 .02 0 .04-.03.04l-1.37.49c-.04.02-.06 0-.06-.05v-.98c0-.05.03-.06.07-.05ZM27.75 25.78l-1.3-.5a.04.04 0 0 1-.03-.04c0-.02.01-.04.03-.04l1.3-.48c.05-.02.07 0 .07.04v.98c0 .05-.03.06-.07.04Z" fill="#fff"/><path d="M20 33.4a1.6 1.6 0 0 0-.1-.03c-.02-.01-.02-.02-.02-.04a.05.05 0 0 1 .05-.02c.08 0 .4.02.99.09.5.05 1.1.02 1.76-.09l.75-.18c.5-.13 1.02-.17 1.56-.15a17.67 17.67 0 0 1 2.04.27 12.57 12.57 0 0 0 1.1.12c.09.01.2 0 .3-.03.17-.04.2 0 .09.14-.1.1-.2.17-.33.2a1.9 1.9 0 0 1-.5-.02c-.81-.07-1.61-.16-2.41-.26-.1-.02-.47-.02-1.12-.01-.24 0-.6.06-1.07.17l-.5.1c-.84.13-1.7.04-2.6-.26Z" fill="#315AA8"/><path d="M23.33 34.04a5.4 5.4 0 0 1 3.1-.16c.48.1.84.16 1.08.16.65.01 1.02 0 1.12 0a61.09 61.09 0 0 1 2.48-.28c.2-.02.35-.02.43 0 .13.01.25.08.34.19.1.13.08.18-.08.14a.9.9 0 0 0-.31-.03 29.92 29.92 0 0 1-1.1.12l-.39.06c-.76.12-1.32.2-1.66.2a5.37 5.37 0 0 1-1.56-.13l-.76-.19a6.59 6.59 0 0 0-1.76-.08l-1 .1a.05.05 0 0 1-.04-.04c0-.01 0-.02.02-.03l.09-.03ZM26.25 34.86c.13 0 .32.02.58.05.48.04.83.06 1.06.04a14.28 14.28 0 0 0 1.99-.37c.25-.06.62-.08 1.09-.08.27 0 1.06.11 2.39.32.3.05.74.07 1.29.07.07 0 .08.02.03.07l-.2.18a.14.14 0 0 1-.1.04c-.5.02-.85.01-1.04-.01a40.5 40.5 0 0 0-2.7-.3 5 5 0 0 0-1.14.15c-.6.14-.97.21-1.12.22a5.54 5.54 0 0 1-2.32-.34c-.17-.06-.16-.09.02-.1l.08.03.1.03Z" fill="#315AA8"/><path fill-rule="evenodd" d="m41.3 23.6.08.26c.02.04.05.06.1.04l.45-.16c.08-.04.14-.01.2.1.04.09.02.15-.08.2a17.78 17.78 0 0 1-1.33.46c-.1.02-.16-.01-.19-.12-.02-.1 0-.17.1-.19l.46-.15c.04-.02.06-.05.04-.1a22.47 22.47 0 0 1-.17-.5c-.01-.04-.04-.06-.1-.04l-.45.16c-.08.04-.14.01-.2-.1-.04-.09-.01-.15.08-.2a17.87 17.87 0 0 1 1.34-.46c.1-.02.16.01.18.12.02.1 0 .17-.1.19l-.46.15c-.04.02-.06.05-.04.1l.09.25Zm-26.38 1.02c.2-.06.3-.17.33-.33.03-.15-.03-.29-.2-.4a.89.89 0 0 0-.4-.14c-.19-.02-.32 0-.41.09-.1.09-.14.2-.12.32.01.12.08.22.18.3.04.03.04.06.01.1l-.09.13c-.03.04-.06.04-.1.02-.27-.17-.35-.43-.24-.77a.7.7 0 0 1 .38-.45c.16-.07.35-.1.56-.05.2.04.37.13.5.27.14.15.21.32.2.52-.01.39-.2.63-.56.71a.1.1 0 0 1-.09-.02.1.1 0 0 1-.03-.08l.01-.14c0-.04.03-.07.07-.08Zm26.78.23-.22.22-.51.5c-.06.05-.1.1-.1.15-.01.04 0 .1.02.18v.02c.01.04.04.05.08.04l1.46-.29c.07 0 .1-.04.08-.1l-.02-.12c-.01-.06-.05-.09-.1-.07l-.9.18c-.06.02-.07 0-.03-.05a25.03 25.03 0 0 1 .74-.71c.06-.06.1-.11.1-.17a.5.5 0 0 0-.03-.19c-.01-.04-.03-.05-.07-.05l-1.47.3c-.06 0-.09.04-.08.1l.03.12c0 .06.04.08.1.07l.9-.19c.06 0 .07.01.02.06Zm-26.8 1.57a.7.7 0 0 0 .27-.48l.01-.14a.7.7 0 0 0-.15-.53.69.69 0 0 0-.48-.26l-.25-.03a.7.7 0 0 0-.53.15.7.7 0 0 0-.26.49l-.01.13a.7.7 0 0 0 .15.53c.12.16.28.25.48.27l.25.02a.7.7 0 0 0 .52-.15Zm.03-.54c-.05.26-.35.43-.67.37-.32-.06-.54-.32-.5-.58.06-.26.35-.42.67-.37.32.06.54.32.5.58Zm.45.03c.02.02.02.04-.01.05a.3.3 0 0 0-.16.23c0 .05.01.06.06.05.18-.06.29-.14.32-.27.04-.12-.03-.24-.18-.35a.07.07 0 0 0-.09 0 .08.08 0 0 0-.04.08c.01.07.05.14.1.2Zm27.59.03-.21.02a.05.05 0 0 0-.04.05l.02.21c0 .03.02.05.05.05l.21-.03c.03 0 .05-.02.04-.05l-.02-.2a.05.05 0 0 0-.05-.05Zm-2 .28 1.54-.22c.03 0 .05.01.06.04l.03.22c0 .02-.02.05-.05.05l-1.53.22a.05.05 0 0 1-.06-.04l-.03-.22c0-.02.01-.05.04-.05Zm-26.72 1.33-.27.15c-.05.04-.05.06 0 .06l.92.05c.06 0 .1.04.09.1v.11c-.01.07-.05.1-.11.1l-1.49-.1c-.04-.01-.06-.03-.06-.07v-.02c0-.09 0-.14.02-.18.02-.04.07-.09.14-.12a28.16 28.16 0 0 0 .9-.5c.05-.04.05-.06 0-.06l-.93-.05c-.06 0-.08-.04-.08-.1v-.11c.01-.07.05-.1.1-.1l1.5.1c.04 0 .06.03.06.07v.02a.5.5 0 0 1-.02.17c-.02.05-.07.1-.14.13l-.63.35Zm27.57-.92c.4-.01.65.1.77.35.07.15.1.46.11.93v.01c0 .04-.02.06-.05.06l-.55.02a.07.07 0 0 0-.06.04c-.06.1-.1.15-.15.15-.04 0-.1-.04-.15-.14a.07.07 0 0 0-.07-.03l-.55.03c-.03 0-.05-.02-.06-.05v-.02c-.04-.46-.03-.78.03-.94.1-.25.34-.39.73-.4Zm.01.34c.24-.02.4.02.48.1.06.08.1.26.1.53 0 .04-.02.07-.06.07l-.33.01c-.04 0-.06-.01-.05-.05.02-.2-.02-.3-.12-.3-.1 0-.12.11-.08.3.01.05 0 .07-.04.07l-.33.02c-.05 0-.07-.01-.07-.05-.03-.28-.02-.45.04-.54.06-.1.22-.15.46-.16Zm-27.81 2.42a.57.57 0 0 1-.01-.22c0-.04.03-.06.07-.06h.13c.05 0 .07.02.07.07l.03.6c0 .03-.01.04-.04.04l-.57.02a.1.1 0 0 1-.08-.03 1.1 1.1 0 0 1-.26-.8.73.73 0 0 1 .47-.65c.21-.1.42-.11.63-.06.22.05.39.17.5.37.1.19.14.38.1.58a.71.71 0 0 1-.35.5c-.03.02-.06.01-.07-.02-.1-.17-.09-.3.05-.37a.14.14 0 0 0 .06-.08c.07-.22.05-.4-.08-.53-.11-.1-.26-.16-.46-.15-.2.01-.35.08-.46.2-.12.13-.15.3-.08.5.04.1.1.18.2.22a.1.1 0 0 0 .11-.01.1.1 0 0 0 .04-.12Zm27.04-.3.52.05c.03 0 .05.02.05.06l-.06.57c0 .04-.02.05-.05.05l-.57-.05c-.03 0-.05.01-.05.04l-.02.23c0 .03 0 .05.04.06l1.55.14c.03 0 .05-.01.05-.05l.02-.2c0-.03-.01-.05-.05-.05l-.6-.06c-.04 0-.06-.02-.05-.05l.05-.57c0-.04.02-.05.06-.05l.64.06c.03 0 .05-.01.05-.05l.02-.23c0-.04 0-.05-.04-.06l-1.54-.14c-.03 0-.05.01-.06.05l-.01.2c0 .03.01.05.05.05Zm.4 1.88.3-.1c.05-.04.05-.05 0-.07l-.9-.2c-.06 0-.09-.04-.07-.1l.02-.12c.02-.06.06-.08.12-.07l1.46.34c.04 0 .05.03.05.07v.02a.5.5 0 0 1-.05.17c-.03.04-.08.08-.16.1a26.8 26.8 0 0 0-.97.36c-.05.02-.06.04 0 .05l.9.2c.06.01.08.05.07.1l-.03.12c-.01.07-.05.09-.11.07l-1.46-.33c-.04 0-.06-.03-.05-.07v-.02a.48.48 0 0 1 .05-.17c.03-.04.08-.08.16-.1l.67-.25Zm-26.39.27c.04-.01.06 0 .06.04l.08.36c0 .02.01.04.04.05l.04.01c.03.01.03.03.01.05l-.41.5c-.11.13-.32.24-.63.3l-.07.02c-.06.01-.08.05-.06.11l.05.14c.02.06.06.08.11.06.04 0 .1-.03.17-.05.28-.1.51-.12.7-.06.17.06.41.12.73.19.05.01.06 0 .05-.05l-.09-.24a.1.1 0 0 0-.08-.07l-.6-.1a.05.05 0 0 1-.04-.04v-.05l.44-.5a.08.08 0 0 0 .02-.08 5.7 5.7 0 0 1-.34-1.34c0-.07-.05-.1-.11-.1h-.08c-.08 0-.1.03-.1.1l.08.37c.01.04 0 .06-.04.07l-1.22.25c-.05 0-.06.04-.06.08l.05.2c0 .03.02.04.05.04l1.25-.26Zm24.93.54c0-.02.02-.04.05-.04l.27-.04c.02 0 .03 0 .05.02v.05a.68.68 0 0 1-.4.25l-.02-.01.05-.23Zm.55-.03 1.44.47c.04 0 .06.04.04.08l-.05.18a.07.07 0 0 1-.09.04l-1.44-.47a.07.07 0 0 1-.04-.08l.05-.18a.07.07 0 0 1 .09-.04Zm.42 1.03-.03-.01c-.06-.23-.2-.34-.41-.33-.13 0-.26.1-.36.29-.07.1-.14.28-.23.54l-.09.22c0 .03 0 .04.02.05l1.46.55c.03.01.06 0 .07-.03l.27-.72c.07-.19.07-.34.01-.47-.07-.14-.2-.22-.38-.24-.08-.01-.2.04-.33.15Zm-.7.56c-.04-.01-.06-.05-.04-.1l.13-.32c.02-.06.05-.1.1-.13s.1-.04.14-.02l.05.02c.04.01.07.05.09.1.02.06.01.12 0 .18l-.14.32c-.01.05-.04.06-.09.05l-.24-.1Zm.62.25c-.05-.03-.07-.06-.04-.11l.14-.35a.3.3 0 0 1 .13-.15.19.19 0 0 1 .17-.02l.03.02c.06.02.1.06.11.13a.3.3 0 0 1-.01.2l-.15.34c-.02.06-.06.07-.1.05l-.28-.11Zm-25.43.56a.9.9 0 0 1 .39-.17c.2-.03.33.02.42.16.09.13.08.28-.02.46a.09.09 0 0 0 0 .1l.09.12a.1.1 0 0 0 .08.03.1.1 0 0 0 .08-.04c.2-.3.17-.61-.08-.9a.67.67 0 0 0-.5-.25.94.94 0 0 0-.55.15.89.89 0 0 0-.37.43.7.7 0 0 0 .02.58c.16.32.4.45.7.4.05-.01.07-.04.06-.1l-.01-.15c0-.04-.03-.06-.08-.06a.46.46 0 0 1-.34-.1.35.35 0 0 1-.13-.3c0-.13.09-.25.24-.36Zm2.11.96-.04-.03c-.04-.03-.03-.05 0-.07h.05c.08.1.13.18.15.27.02.08 0 .1-.07.06-.1-.05-.13-.1-.08-.17.02-.02.01-.04 0-.06Zm-.12.38c0-.14-.07-.24-.2-.3-.03-.02-.04-.04-.03-.07v-.03c.07-.04.16.03.27.2.06.1.06.18-.01.25a.1.1 0 0 0-.03.1c.05.27 0 .48-.16.65-.2.2-.41.33-.62.38-.25.05-.47-.03-.65-.24-.31-.35-.36-.69-.12-1 .18-.24.41-.39.7-.43.33-.05.6.11.8.5.04.05.05.05.05-.01Zm-.56.74c.26-.19.36-.51.21-.73-.14-.22-.48-.24-.75-.06s-.36.5-.22.72c.15.22.49.25.76.07Zm20.95-.4.16-.17h.02c.07.17.09.34.04.49 0 .02-.02.03-.04.03s-.04 0-.05-.02l-.14-.26a.05.05 0 0 1 .01-.06ZM39 35.4c.07.06.09.05.07-.04a.9.9 0 0 1 .1-.71c.15-.25.36-.34.63-.3.03.01.05.04.04.07l-.03.18c0 .04-.03.06-.07.06h-.03c-.15.02-.25.06-.3.13-.14.18-.15.35-.01.52.1.12.26.22.47.3.2.06.37.01.47-.14.11-.15.1-.32-.05-.5-.04-.04-.03-.08.01-.11l.15-.11c.04-.03.07-.03.1.02.14.19.18.38.14.59a.84.84 0 0 1-.36.5c-.13.1-.31.11-.53.06-.2-.05-.36-.14-.49-.25-.05-.06-.08-.04-.09.03v.08c-.01.08.01.14.08.19.38.28.48.6.32.97a.8.8 0 0 1-.5.49c-.2.05-.4.03-.6-.07a.94.94 0 0 1-.45-.43.7.7 0 0 1-.03-.62c.2-.45.52-.61.99-.5.04.01.06 0 .06-.05v-.08c0-.04-.03-.06-.07-.05-.13.04-.22.01-.3-.06-.03-.04-.04-.08 0-.13l.07-.12c.03-.05.06-.05.1-.02l.11.1ZM38.54 37c.25.2.6.2.75-.01.17-.2.1-.54-.16-.74-.26-.2-.6-.2-.76.01-.16.2-.08.54.17.74Zm-.65.06c-.1.03-.2-.01-.29-.13-.02-.03-.02-.05 0-.08.04-.06.09-.1.14-.13.03-.02.07-.02.1.01l.13.14c.15.18.15.39.01.63v.02c.12.11.23.23.33.37.09.11.11.24.07.4a.75.75 0 0 1-.22.35.83.83 0 0 1-.37.22c-.14.03-.25.02-.34-.06a6.1 6.1 0 0 1-.88-.87c-.03-.04-.02-.07.01-.1l.13-.12c.03-.03.06-.03.09 0l.67.71c.15.16.31.17.48.04l.02-.02c.16-.14.16-.29.02-.44l-.72-.76c-.03-.03-.03-.06 0-.09l.16-.14c.03-.02.05-.02.08 0l.3.33c.01.03.04.03.08.02a.07.07 0 0 0 .05-.06l.01-.19c0-.04-.01-.06-.06-.05Zm-20.27.47-.37.34c-.03.03-.06.03-.08 0l-.13-.14c-.04-.04-.03-.08 0-.1l1.11-1.02c.03-.03.06-.02.09 0l.48.52c.19.22.19.43 0 .64-.17.19-.35.25-.53.16a1.72 1.72 0 0 1-.47-.39c-.03-.04-.06-.04-.1-.01Zm.55-.52c.03-.03.07-.03.1 0l.17.18c.05.06.09.13.1.2 0 .07-.02.13-.06.17l-.04.04c-.05.04-.1.06-.18.04a.34.34 0 0 1-.19-.1l-.16-.18c-.03-.04-.03-.07 0-.11l.26-.24Zm1.04 1.48.22.18c.02.02.05.02.08 0l.36-.4c.02-.03.05-.03.08 0l.14.13c.04.03.04.06 0 .1l-1.01 1.1c-.03.04-.07.04-.1 0l-.12-.1c-.04-.04-.04-.07 0-.11l.38-.42c.03-.03.03-.06 0-.1a4.55 4.55 0 0 0-.42-.37c-.03-.02-.06-.02-.09.01l-.37.43c-.03.04-.07.04-.1.01l-.13-.1c-.03-.03-.04-.07 0-.1l.98-1.14c.03-.04.06-.04.1-.01l.14.13c.03.02.03.05 0 .08l-.34.4c-.03.03-.03.06 0 .09l.2.19Zm17.5.54a43.54 43.54 0 0 1-.96-.35c-.08-.03-.14-.04-.2-.02a.49.49 0 0 0-.15.1c-.03.03-.03.06 0 .1l.9 1.19c.03.05.07.05.12.01l.1-.07c.04-.03.05-.07.01-.12l-.56-.73c-.03-.04-.02-.06.04-.04a42.56 42.56 0 0 1 .96.35c.08.03.14.03.2.02a.48.48 0 0 0 .15-.11c.03-.03.03-.06 0-.1l-.9-1.18c-.03-.05-.08-.06-.13-.02l-.09.07c-.05.04-.05.08-.02.13l.57.73c.03.04.02.05-.04.04Zm-1.66 1.86a.36.36 0 0 1-.11.05c-.03 0-.06 0-.07-.04l-.63-1.08c-.02-.03-.04-.04-.07-.02l-.32.19a.05.05 0 0 1-.05 0c-.09-.06-.12-.12-.1-.18 0-.03.04-.06.1-.1a37.52 37.52 0 0 1 .84-.49c.07-.03.11-.04.15-.04.06.02.09.07.1.17 0 .02-.01.04-.03.05l-.32.19c-.03.01-.04.04-.02.07l.62 1.08c.02.03.02.06 0 .08a.35.35 0 0 1-.1.07Zm-14.13-2.24-.13-.19c-.06-.1-.04-.12.06-.08.14.06.19.16.13.3a.09.09 0 0 0 .01.1l.05.12-.01.04H21c-.02.02-.04.01-.05-.01-.04-.13-.1-.2-.22-.2-.02 0-.03.01-.04.04v.03l.03.02c.14.05.2.15.16.3l-.3 1.5c0 .04-.03.04-.07.02l-.17-.1a.07.07 0 0 1-.04-.09l.05-.3a.1.1 0 0 0-.05-.1l-.47-.3c-.04-.02-.07-.01-.1.01l-.2.18c-.02.02-.05.03-.08 0l-.19-.11c-.04-.02-.04-.05 0-.08l1.33-.97a.13.13 0 0 0 .05-.11c0-.04.02-.05.05-.05.07 0 .13.02.2.06.05.04.06.03.02-.03Zm-.38.54.01.03-.1.52c-.02.05-.04.06-.09.03a13.46 13.46 0 0 0-.27-.17c-.04-.03-.04-.05 0-.08a26.59 26.59 0 0 1 .45-.33Zm1.03 1.17-.02-.31c-.01-.06-.03-.07-.06-.02l-.43.82c-.03.05-.07.07-.13.04l-.1-.06c-.06-.03-.07-.07-.04-.13l.72-1.32c.02-.04.05-.05.09-.03h.02c.07.04.12.07.14.1.04.04.06.1.06.18a26.55 26.55 0 0 0 .08 1.03c0 .07.03.07.05.02l.44-.82c.03-.05.07-.06.12-.04l.1.06c.06.03.07.08.04.13l-.72 1.33c-.02.03-.04.04-.08.02h-.02a.51.51 0 0 1-.15-.1c-.03-.03-.05-.1-.06-.18 0-.24-.03-.48-.05-.72Zm11.53-.82-.23.06a.05.05 0 0 0-.04.05l-.02.29c0 .02 0 .04.02.05l.06-.01a.7.7 0 0 0 .22-.43c0-.01 0-.02-.01-.01Zm-9.6 1.26a.9.9 0 0 0-.16.4c-.03.18 0 .32.07.42.08.1.19.14.31.13.12 0 .22-.06.31-.17.03-.03.07-.03.1 0l.12.1c.04.03.04.06.02.1-.19.26-.44.33-.78.2a.7.7 0 0 1-.42-.4.88.88 0 0 1-.03-.56c.05-.2.15-.37.3-.5s.33-.19.52-.17c.4.04.62.24.69.6a.1.1 0 0 1-.03.09.1.1 0 0 1-.08.03l-.14-.02a.1.1 0 0 1-.08-.08c-.05-.2-.15-.31-.3-.35-.16-.03-.3.03-.42.18Zm1.63-.14.3-.07c.03 0 .1-.06.25-.17.04-.03.03-.05-.02-.05l-.2-.02a.08.08 0 0 0-.08.04.54.54 0 0 1-.24.21l-.02.01v.03c-.01.02 0 .03.01.02Zm8.1.66a15.76 15.76 0 0 1 .53-.22c.04 0 .08 0 .1.03l.17.2c.03.03.07.04.12.02l.17-.07c.05-.02.06-.05.02-.1l-1.1-1.15a.11.11 0 0 0-.08-.03.41.41 0 0 0-.26.1.11.11 0 0 0-.04.1l.02 1.58c0 .06.03.08.08.06l.17-.07c.05-.02.07-.05.07-.1l-.02-.27c0-.03.02-.06.05-.08Zm-.06-.85V41c0 .03.01.04.04.03l.37-.15c.02 0 .03-.02 0-.05l-.36-.4a.03.03 0 0 0-.03 0 .03.03 0 0 0-.02.03Zm-7.7.17v.05c.05.05.1.07.14.03a.05.05 0 0 0 .02-.05.05.05 0 0 0-.03-.04.2.2 0 0 0-.1-.01.04.04 0 0 0-.03.02Zm3.4.7.06 1.26c0 .03-.02.05-.05.05l-.23.01c-.03 0-.05-.01-.05-.05l-.05-1.28c0-.03-.02-.05-.06-.05l-.38.02c-.03 0-.05-.02-.05-.05l-.01-.16c0-.03.01-.05.05-.05l1.56-.07c.03 0 .04.02.05.05l.09.52c0 .04.02.05.06.05l.55-.1c.04 0 .05-.02.05-.06l-.1-.54c0-.03.01-.05.05-.06l.21-.03c.04 0 .06 0 .06.04l.26 1.52c0 .03-.01.05-.05.06l-.2.03c-.03 0-.05 0-.06-.04l-.1-.61c0-.04-.03-.05-.06-.05l-.56.1c-.04 0-.05.03-.05.06l.1.63c.01.03 0 .05-.03.05l-.22.04c-.04 0-.06 0-.06-.04l-.23-1.33c0-.03-.02-.05-.06-.04l-.44.07c-.03 0-.05.03-.05.06Zm3.68-.08a.7.7 0 0 1-.07.55.7.7 0 0 1-.43.34l-.13.03a.7.7 0 0 1-.55-.07.7.7 0 0 1-.34-.44l-.07-.22a.7.7 0 0 1 .07-.55.7.7 0 0 1 .44-.34l.13-.04a.7.7 0 0 1 .55.07c.18.1.29.25.34.44l.06.23Zm-1.24.23c.1.31.37.5.63.43.25-.08.37-.4.28-.7-.1-.32-.38-.51-.63-.43-.25.07-.38.39-.28.7Zm-5.8-.68a.42.42 0 0 0-.28-.04.12.12 0 0 0-.08.05l-.83 1.36c-.03.05-.01.08.04.09l.19.03c.05.01.08 0 .1-.05l.13-.23c.02-.03.05-.05.1-.05a11.83 11.83 0 0 1 .56.1c.04.02.06.04.06.08l.04.25c.01.05.04.08.1.1l.17.02c.06.01.08-.01.07-.07l-.32-1.56a.11.11 0 0 0-.06-.08Zm-.17.43c-.02-.08-.05-.09-.09-.02l-.26.44c-.03.05-.02.07.04.08l.34.03c.04 0 .05-.02.05-.05l-.08-.48Zm1.2.73c-.05 0-.07.02-.07.06l-.05.51c0 .04-.03.06-.07.05l-.19-.01c-.05 0-.07-.04-.07-.09l.15-1.5c0-.04.03-.06.07-.06.17 0 .4.03.71.06.28.03.42.19.43.47 0 .26-.1.43-.3.5a1.7 1.7 0 0 1-.61.01Zm-.01-.71c0-.03.01-.04.03-.04l.3.02c.08 0 .14.03.19.07.05.03.07.08.07.13v.12c-.01.05-.04.1-.1.12a.33.33 0 0 1-.19.04l-.3-.01c-.02 0-.03-.02-.03-.04l.03-.41Z" fill="#fff"/><path opacity=".5" d="m19.3 23.1-.91-.4A11.01 11.01 0 0 0 28 39.08a11.01 11.01 0 0 0 9.72-16.18l-.93.38A10 10 0 0 1 28 38.06a10 10 0 0 1-8.7-14.96Z" fill="#315AA8"/></svg>