<!-- by TradingView --><svg width="56" height="56" viewBox="0 0 56 56" xmlns="http://www.w3.org/2000/svg"><path fill="#FFDF00" d="M0 0h56v56H0z"/><path fill-rule="evenodd" d="M14.26 24.36c0-.03 0-.06-.03-.08a7.15 7.15 0 0 1-3.16-4.87c-.2-1.07.01-2.15.61-3.25 1.27-2.3 3.26-3.35 5.97-3.13.04 0 .07.02.07.06 0 .04 0 .07-.04.08-2.07.92-3.22 2.07-3.46 3.44-.06.38.09.92.46 1.62l.15.3c.3.6.8 1.15 1.5 1.66.05.04.1.03.14-.02a14.05 14.05 0 0 1 5.08-3.96 13.47 13.47 0 0 1 5.94-1.25c2.07.04 4.04.52 5.9 1.46 1.93.97 3.58 2.34 4.94 4.12.06.09.15.12.25.08a5.47 5.47 0 0 0 2.14-1.08c.6-.56.92-1.27.95-2.15.05-1.58-1.1-2.92-3.42-4.01-.45-.2-.43-.29.06-.25 1.33.11 2.61.5 3.85 1.17.7.38 1.31 1 1.83 1.85.48.78.78 1.58.91 2.42.26 1.62 0 3.03-.8 4.22a8.69 8.69 0 0 1-3.35 2.76.2.2 0 0 0-.11.17c-.01.19.01.38.07.58.02.07.07.11.14.13l.76.16c.19.04.29.15.3.34.02.33-.03.6-.15.8-.07.13-.23.31-.47.54l-.28.27a.3.3 0 0 0-.08.2c-.23 4.05-1.76 7.33-4.58 9.81a13.71 13.71 0 0 1-12.14 3.1 13.47 13.47 0 0 1-9.95-17.29Zm7.69-3.8c.25-.29.43-.44.53-.47 1.88-.53 3.84-.72 5.87-.55.72.06 1.2.16 1.45.3 1.09.63 2.33 1 3.72 1.1a28.1 28.1 0 0 0 4.12-.11c.08 0 .1-.04.05-.1a12.54 12.54 0 0 0-4.63-3.85 13.17 13.17 0 0 0-16.03 3.58c-.07.09-.05.15.06.18.5.13 1.27.21 2.33.24.85.03 1.47.08 1.85.16.08.01.15 0 .21-.04.1-.06.26-.21.47-.45Zm18.22 8.76-.32.25c-.06.05-.1.04-.15-.01l-.08-.1c-.05-.07-.1-.06-.13 0l-.26.45a.16.16 0 0 1-.16.08l-.1-.01c-.1-.01-.15.03-.14.12 0 .2-.05.34-.18.4a.2.2 0 0 1-.21 0l-.46-.26c-.1-.05-.13-.03-.11.08l.06.31a.26.26 0 0 1-.11.28c-.1.07-.2.08-.3.02l-.93-.53a.12.12 0 0 0-.12 0 .12.12 0 0 0-.07.1 16.67 16.67 0 0 1-1.3 5 9.07 9.07 0 0 1-1 1.7c-.55.76-1.02 1.15-1.42 1.2-.2.02-.48.02-.83-.01-2.66-.24-4.44-.8-5.35-1.65-.2-.2-.43-.35-.67-.46a21.58 21.58 0 0 0-4.39-1.46 7.35 7.35 0 0 1-1.61-.57c-.28-.14-.7-.33-1.28-.57-1.4-.6-2.37-1.12-2.9-1.58a3.58 3.58 0 0 1-1.28-2.95c.03-.94.4-1.68 1.12-2.23.67-.5 1.5-.75 2.5-.72.02 0 .04 0 .06-.02l.04-.06c.04-.07.02-.12-.06-.15-1-.28-2.03-.72-3.08-1.3-.09-.06-.15-.03-.18.06A12.59 12.59 0 0 0 17.6 37.2a12.98 12.98 0 0 0 12.2 3.98c2.9-.57 5.3-1.93 7.22-4.08 1.9-2.14 3-4.7 3.29-7.7.01-.13-.03-.16-.14-.07ZM14.3 14.62c.03-.01.04-.03 0-.05-.2-.13-.34-.19-.4-.19l-.05.02a.14.14 0 0 0-.04.05c-.03.06 0 .1.05.12.17.07.32.09.44.05Zm-.46.67c-.02.08-.19.1-.38.05-.2-.05-.34-.15-.32-.23.02-.07.2-.1.39-.05.2.05.33.15.31.23Zm-.83.87c.28.01.5-.04.51-.12 0-.07-.21-.15-.5-.16-.27-.02-.5.03-.5.11s.22.15.5.17Zm29.19-.29c-.02-.01-.06 0-.1.02-.05.02-.06.05-.03.08.02.03.06.04.1.02.11-.02.12-.07.03-.12Zm.04.84c-.04 0-.05-.02-.03-.05.08-.14.23-.17.46-.11.07.02.08.05.02.1-.06.06-.21.08-.45.06Zm-28.8.19c0 .1-.28.18-.63.19-.36 0-.64-.07-.64-.17s.28-.19.63-.2c.35 0 .64.08.64.18Zm29.2.58c.25 0 .44-.06.44-.14 0-.08-.19-.15-.43-.15-.23 0-.43.06-.43.14 0 .08.2.15.43.15ZM12 17.7c-.04 0-.05.03-.05.06l.03.3c0 .04.03.05.06.05l.17-.02c.95-.1 1.42-.22 1.4-.34v-.05c-.02-.12-.5-.12-1.45-.02l-.16.02Zm31.06.57c-.02.1-.1.13-.27.1-.4-.08-.59-.16-.58-.24.02-.07.22-.08.63-.03.16.02.24.08.22.17Zm-29.03.4c.03.12-.41.33-.98.47-.57.14-1.05.16-1.08.05-.03-.12.41-.32.98-.46.57-.14 1.05-.16 1.08-.05Zm29.2.4c.03 0 .04.02.04.04v.02c0 .09-.07.16-.2.2a.97.97 0 0 1-.46.06l-.32-.02a.99.99 0 0 1-.44-.13c-.12-.07-.18-.15-.17-.24v-.01c0-.03.02-.04.05-.04l1.5.12Zm-30.64 1.19c-.03.01-.04.03-.02.06l.13.25c.02.03.04.04.07.02l.34-.18c.95-.5 1.4-.81 1.35-.91l-.02-.04c-.06-.1-.56.1-1.52.62l-.33.18Zm30.34.32c.02 0 .02.02.01.05v.01c-.03.07-.14.1-.31.08a2.12 2.12 0 0 1-.6-.17l-.08-.03c-.22-.1-.4-.2-.54-.32-.13-.12-.18-.21-.16-.28l.01-.02c.01-.02.03-.03.05-.02l1.62.7Zm-29.57 1.08c-.02.02-.02.03 0 .05l.26.32c.01.02.03.02.05 0l.17-.13c1.05-.86 1.54-1.34 1.45-1.45l-.04-.05c-.09-.1-.66.26-1.72 1.12l-.17.14Zm28.63.4c-.01.03-.04.03-.06.02l-.03-.03c-1.14-.81-1.68-1.26-1.62-1.35.07-.1.67.28 1.81 1.1l.03.01c.03.02.03.04.01.07l-.14.18Zm-27.5.58c-.02.02-.02.04 0 .07l.31.29c.03.02.05.02.08 0l.09-.1c.41-.44.75-.83 1-1.17.26-.34.36-.54.31-.59l-.01-.01c-.05-.05-.24.06-.57.34-.33.27-.7.63-1.12 1.07l-.1.1Zm24.19-1.43c-.04-.04-.03-.08 0-.12l.07-.07.05.02 1.93 1.93c.05.05.06.11.03.2-.03.1-.09.13-.17.11a1.5 1.5 0 0 1-.38-.1l-1.53-1.97Zm-4.12 3.03c.01.04.04.05.09.03l.34-.14c.04-.02.05-.05.03-.1l-.47-1.1c-.21-.5-.42-.9-.6-1.24-.2-.33-.33-.48-.39-.45h-.03c-.06.03-.03.23.07.6.11.36.27.8.48 1.28l.48 1.12Zm4.39-.34c-.03.02-.05.02-.07 0l-.02-.04c-1.13-1.61-1.63-2.45-1.52-2.53l.03-.02c.11-.08.73.69 1.85 2.3l.03.03c.01.02.01.05-.02.06l-.28.2Zm-21.5-2.17a4.5 4.5 0 0 0 .1-.21.08.08 0 0 0-.05-.07.07.07 0 0 0-.07.01 6.2 6.2 0 0 0-1.62 2.09c-.04.1-.01.14.1.14.27.01.56-.22.87-.68.18-.27.4-.7.68-1.28Zm.96 2.33.82.47c.05.02.07.07.05.12a.1.1 0 0 1-.06.06l-.07.03a7.11 7.11 0 0 1-1.58-.54c-.22-.1-.27-.25-.15-.46.27-.46.65-1.05 1.15-1.78.54-.76.65-.7.34.17l-.59 1.69c-.03.1 0 .18.1.24Zm18.9-.46c-1.08-1.48-1.68-2.18-1.81-2.1-.13.1.31.9 1.32 2.44.2.3.38.4.56.28.17-.12.15-.32-.07-.62Zm-15.61.24c-.04.06-.1.1-.17.12-.1.02-.1 0-.03-.06.15-.12.28-.25.36-.4a.4.4 0 0 0 .02-.37.4.4 0 0 0-.28-.24.82.82 0 0 0-.65.1c-.19.12-.33.28-.42.5-.2.5-.3.48-.28-.05.01-.34.19-.66.52-.97.37-.34.72-.37 1.04-.1.3.24.46.61.49 1.1 0 .08-.02.15-.08.2a.26.26 0 0 1-.22.08h-.1c-.1-.02-.16.02-.2.1Zm4.34 1.98c.06-.04.13-.17.2-.38.04-.11.1-.14.2-.08l.38.22c.05.03.1.03.15 0a.16.16 0 0 0 .1-.1.5.5 0 0 0-.01-.28.2.2 0 0 0-.16-.15l-.37-.07c-.07-.02-.1-.06-.12-.14a.47.47 0 0 1 .2-.44c.14-.1.32-.15.53-.14.5 0 .87-.06 1.11-.18a.2.2 0 0 1 .2 0l.48.28c.13.07.2.18.2.32a.39.39 0 0 1-.14.34 8.3 8.3 0 0 1-1.2.84c-.45 0-.47.1-.07.3.2.1.4.12.63.08a.91.91 0 0 0 .59-.34c.21-.28.42-.52.62-.73a.2.2 0 0 0 .05-.2l-.1-.43c-.1-.5-.2-.83-.33-1-.2-.29-.55-.4-1.03-.32l-.44.06c-.59.09-1 .19-1.23.3a1.7 1.7 0 0 0-.83.93c-.03.08 0 .1.07.08l.07-.03a.18.18 0 0 1 .2.04c.1.1.13.22.09.34-.17.42-.23.69-.2.8.04.1.1.12.16.08Zm-5.5-.15c-.1-.03-.1-.07-.01-.11a.4.4 0 0 1 .4.02c.13.09.12.15-.05.18l-.35-.09Zm2.12.25v.04l.95.82h.04v-.01c.06-.06.06-.15 0-.28a1.03 1.03 0 0 0-.27-.34l-.06-.05a1.04 1.04 0 0 0-.38-.23c-.13-.04-.22-.03-.27.03l-.01.02Zm-2.17.58c.03.08 0 .1-.07.07a5.4 5.4 0 0 1-.67-.28c-.1-.06-.1-.1-.01-.1.4-.03.66.07.75.31Zm19.55.72c-.07.09-.29.03-.5-.12-.2-.15-.32-.34-.26-.43.06-.09.28-.03.5.12.2.15.32.35.26.43Zm-17.76.07-.18-.51c-.04-.12-.01-.13.08-.06.45.37.63.69.56.95-.04.12-.15.19-.35.21-.11.01-.15-.03-.13-.14l.04-.2a.44.44 0 0 0-.02-.25Zm16.88-.09c-.04.07-.25 0-.45-.14s-.33-.3-.29-.37c.05-.06.25 0 .46.14.2.14.33.3.28.37Zm-1.51.01c.2.14.4.2.45.12.06-.08-.06-.25-.25-.4-.2-.14-.4-.19-.46-.11-.05.07.06.25.26.4Zm-.52.27c-.05.07-.25 0-.45-.15s-.32-.32-.27-.4c.05-.06.26 0 .46.15s.32.33.26.4Zm-20.7.45.65.28.04.04.05.14c.02.07 0 .1-.07.07l-.66-.15c-.54-.11-.95-.1-1.23.03-.27.12-.34.05-.2-.2.15-.32.33-.6.53-.83.08-.1.18-.17.3-.2.38-.14.64-.07.79.2.04.08.03.15-.03.21l-.22.22c-.08.08-.07.15.04.2Zm2.5.2.01-.06c.02-.02.03-.03.06-.01.08.06.13.03.14-.09v-.02a1.6 1.6 0 0 1-.06-.52c.02-.3-.1-.4-.4-.35-.67.15-.87.47-.6.97.36.68.9.88 1.61.58.1-.03.16-.1.2-.18l.11-.28v-.04h-.05c-.38.29-.7.3-.97.04a.2.2 0 0 1-.04-.03Zm16.81-.7c.17.14.35.2.4.15.04-.06-.06-.22-.23-.36-.17-.13-.34-.2-.4-.14-.04.06.06.22.23.36Zm-14.47.78c-.1.04-.25-.15-.36-.41-.1-.27-.12-.52-.03-.55.09-.04.25.15.36.41.1.27.12.51.03.55Zm-.22 2.08 1.38.24c.08.01.13.06.15.14.02.17-.01.26-.11.28a1.4 1.4 0 0 1-1.48-.55c-.08-.1-.06-.13.06-.1Zm-3.5 2c.02-.1-.02-.22-.11-.36-.05-.07-.05-.13 0-.2l.28-.3c.1-.13.1-.24-.05-.33-.42-.3-.87-.48-1.33-.54a.21.21 0 0 0-.19.05.21.21 0 0 0-.07.19c.07.87.51 1.4 1.32 1.58.08.02.13-.01.15-.1Zm15.81 1.2.99-2.32c.05-.13.17-.12.35.02a.2.2 0 0 1 .08.12c.05.28.06.46.03.53-.35.89-.8 1.47-1.35 1.75-.12.06-.15.03-.1-.1Zm-1.28.34c.07-.01.1-.05.08-.12l-.05-.33c-.01-.06-.05-.1-.12-.08l-.46.07c-.64.1-1.18.22-1.63.34-.44.12-.66.22-.65.29v.03c.02.07.26.1.72.07.46-.03 1-.1 1.65-.2l.46-.07ZM27 36.29c.05-.2-.03-.3-.24-.32l-.34-.04c-.68-.07-1.12-.18-1.32-.35-.1-.08-.08-.12.04-.1.86.1 1.81.1 2.87.02a50.24 50.24 0 0 0 3.1-.38c.26-.04.3.04.14.23-.57.68-1.63 1.12-3.19 1.32-.42.06-.75.02-.98-.1-.08-.04-.11-.1-.1-.2l.02-.08Z" fill="#1F1B17"/></svg>