<!-- by TradingView --><svg width="56" height="56" viewBox="0 0 56 56" xmlns="http://www.w3.org/2000/svg"><path fill="#F0F3FA" d="M0 0h56v56H0z"/><circle cx="18" cy="27" r="9" fill="url(#a)"/><path d="M26.92 28.17a9.08 9.08 0 0 0-.14-3.14l-1.32 3.14h1.46Zm-.03.23h-1.53l-1.42 3.33h1.71c.62-1 1.05-2.12 1.24-3.33Zm-1.39 3.57h-1.66l-1.14 2.7a9.05 9.05 0 0 0 2.8-2.7Zm-3.41 3.05 1.32-3.05h-3.1l-1.7 4.01a8.95 8.95 0 0 0 3.48-.96Zm-3.96.98 1.74-4.03h-2.93l-1.55 3.65a9 9 0 0 0 2.74.38Zm-3.15-.52 1.52-3.51h-2.8l-.99 2.31c.7.5 1.46.91 2.27 1.2Zm-2.62-1.47.89-2.04h-2.76a9.05 9.05 0 0 0 1.87 2.04Zm-2.02-2.28h3.01l1.45-3.33h-3.07l-1.44 3.24.05.1Zm15-9.93c.58.8 1.02 1.7 1.3 2.68l-.13.3h-3.15l1.26-2.98h.72Zm-8.96 2.97 1.3-2.97h-3l-1.33 2.97h3.03Zm.38 0 1.27-2.97h2.87l-1.29 2.97h-2.85Zm3.23 0 1.26-2.97h3.02l-1.29 2.97H20Zm-5.09 3.4h-3.07L13.24 25h3.04l-1.38 3.16Zm-1.1 3.56h2.8l1.44-3.33h-2.82l-1.42 3.33Zm3.24 0h2.93l1.44-3.33h-2.96l-1.4 3.33Zm3.37 0h3.1l1.44-3.33h-3.13l-1.4 3.33Zm6-6.72-1.36 3.16h-3.13L23.26 25h3.15Zm-3.53 0-1.37 3.16h-2.96L19.9 25h2.99Zm-3.37 0-1.37 3.16h-2.82L16.66 25h2.85Z" fill="url(#b)"/><path fill-rule="evenodd" d="M17 25v5.5h2v.5h-2v4.93c2.13.33 6.44-.47 8.53-4.01-.1-.53-.57-1.27-1.74-1.27v-.3a1.88 1.88 0 0 0 1.53-1.85v-.74A2.75 2.75 0 0 0 22.58 25H17Zm2 2v.61h1v1.89h1.73c.7 0 1.27-.56 1.27-1.25S22.43 27 21.73 27H19Zm0 7v-.61h1V31.5h1.8c.66 0 1.2.56 1.2 1.25S22.46 34 21.8 34H19Z" fill="url(#c)"/><path d="M35.27 33.49c-.56.32-1.22.51-1.92.51-2.03 0-3.67-.92-3.67-3.5s1.64-3.5 3.67-3.5c.69 0 1.33.18 1.88.5l.77-1.94a6.92 6.92 0 0 0-2.75-.56C29.8 25 27 26.44 27 30.5c0 4.06 2.8 5.5 6.25 5.5.98 0 1.9-.2 2.74-.56l-.72-1.95Z" fill="url(#d)"/><path d="M41.6 35.96c.12.03.28.04.49.04 1.7 0 3.32-.48 3.91-.72V30h-5v2h2v1.96c-.19.03-.38.04-.57.04-2.05 0-3.72-.92-3.72-3.5s1.67-3.5 3.72-3.5c.7 0 1.34.18 1.9.5l.78-1.94a7.08 7.08 0 0 0-2.8-.56C38.84 25 36 26.44 36 30.5c0 3.76 2.45 5.27 5.6 5.46Z" fill="url(#e)"/><defs><linearGradient id="a" x1="11.66" y1="20.77" x2="22.1" y2="34.77" gradientUnits="userSpaceOnUse"><stop stop-color="#70C04D"/><stop offset="1" stop-color="#1B300F"/></linearGradient><linearGradient id="b" x1="13.42" y1="24.29" x2="24.68" y2="33.76" gradientUnits="userSpaceOnUse"><stop offset=".11" stop-color="#DBE75D"/><stop offset=".23" stop-color="#96BA50"/><stop offset="1" stop-color="#122F10"/></linearGradient><linearGradient id="c" x1="21.3" y1="25" x2="21.3" y2="36" gradientUnits="userSpaceOnUse"><stop stop-color="#E6ECDE"/><stop offset=".46" stop-color="#B6BBB5"/><stop offset="1" stop-color="#636361"/></linearGradient><linearGradient id="d" x1="31.5" y1="25" x2="31.5" y2="36" gradientUnits="userSpaceOnUse"><stop stop-color="#DFDFDF"/><stop offset="1" stop-color="#626262"/></linearGradient><linearGradient id="e" x1="41" y1="25" x2="41" y2="36" gradientUnits="userSpaceOnUse"><stop stop-color="#DFDFDF"/><stop offset="1" stop-color="#626262"/></linearGradient></defs></svg>