<!-- by TradingView --><svg width="56" height="56" viewBox="0 0 56 56" xmlns="http://www.w3.org/2000/svg"><path fill="#F0F3FA" d="M0 0h56v56H0z"/><path d="M15.1 19h-2.4L9 35h2.35l3.75-16Zm-3.08 16 3.6-16h2.45l-3.75 16h-2.3Zm2.97 0h2.36L21 19h-2.4L15 35Z" fill="#005094"/><path d="m35.54 25.4-.56 2.6H19.66l.54-2.53 15.34-.06ZM20.36 24.75l15.3.1.56-2.65-15.33.06-.53 2.49ZM21.04 21.54 21.6 19l15.3.04-.55 2.6-15.3-.1Z" fill="#DA251C"/><path fill-rule="evenodd" d="M24.14 29H20v6h4.27a1.73 1.73 0 0 0 .93-3.17A1.6 1.6 0 0 0 24.14 29Zm-1.2 1.3h-.46v1.05h.46c.25 0 .44-.2.44-.44v-.17c0-.24-.2-.44-.44-.44Zm.17 2.2h-.63v1.2h.63c.24 0 .44-.2.44-.44v-.33c0-.24-.2-.43-.44-.43Zm6.55-3.5H27v6h2.66v-2.35h.68V35H33v-6h-2.66v2.06h-.68V29ZM34 29h2.66v2.06h.68V29H40v6h-2.66v-2.35h-.68V35H34v-6Zm7 2.04c0-1.13.9-2.04 2-2.04h2c1.1 0 2 .91 2 2.04v.44h-2.5v-.76a.52.52 0 0 0-.52-.53.52.52 0 0 0-.52.53v2.46c0 .3.23.53.52.53.28 0 .51-.24.51-.53v-.76H47v.68c0 1.05-.84 1.9-1.87 1.9h-2.26A1.88 1.88 0 0 1 41 33.1v-2.06Z" fill="#1F1A16"/></svg>