<!-- by TradingView --><svg width="56" height="56" fill="none" xmlns="http://www.w3.org/2000/svg"><path fill="#106138" d="M0 0h56v56H0z"/><path d="M19.401 27.773c-1.071-.927-1.74-2.078-1.814-2.288 0 0 1.955-.896 3.702-.517 1.637.388 2.076 2.207 2.05 2.33-.027.126-1.809 1.942-3.938.475Z" fill="#C2A541"/><path d="M18.94 28.552s-.352.923-1.621 2.122c0 0 2.183.557 4.252-1.381 0 0-1.306.186-2.632-.74Zm1.502-4.697s.282-.942 0-2.662c0 0 2.08.863 2.552 3.648 0 0-.931-.93-2.552-.986Zm-4.656-.952s2.048-.647 3.81.116l.15 1.019s-1.73 0-2.558.67l-1.402-1.805ZM14.55 26.56l1.878-.637s.693 1.009 1.956 2.018l-.797.95s-1.801-.658-3.037-2.331Z" fill="#C3A33E"/><path d="M14.684 29.572s.65.517 1.68.856l.607-.754-1.463-.9-.824.798Z" fill="#C0A33F"/><path d="M17.72 20.596s.978 0 2.1.352l-.305 1.138s-.582-.431-1.794-.411v-1.08Zm-3.762.53s1.496-.46 2.916-.517v1.188s-1.276-.04-2.173.551l-.743-1.221Zm.629 2.095 1.282 1.846-2.012.687s-.954-1.045-1.044-1.822c0 0 .562-.491 1.774-.71ZM10 23.026s.53-.419.78-.505l.891 1.016-1.363.445s-.321-.714-.308-.956Z" fill="#C1A43E"/><path d="M13.214 26.418s.563 1.129 1.557 1.693l-.864.886s-1.345-1.055-1.844-1.878l1.151-.7Zm-2.514-1.54s.479.992.777 1.387l1.165-.6s-.613-.67-.854-1.275l-1.088.488Zm2.511-3.502s-1.041.385-1.466.644l.502 1.201s.73-.544 1.356-.73l-.392-1.115Z" fill="#C4A43D"/><path d="M27.777 23.889c-.154-.02-2.192-1.082-1.456-3.549.55-1.298 1.44-2.29 1.617-2.43 0 0 1.473 1.56 1.66 3.323.145 1.663-1.576 2.656-1.82 2.656Z" fill="#C2A541"/><path d="M25.427 20.15s-.99-.039-2.54-.855c0 0 .153 2.227 2.66 3.568 0 0-.588-1.172-.12-2.712Zm4.969-.062s.994-.033 2.547-.837c0 0-.17 2.228-2.688 3.549 0 0 .6-1.169.14-2.712Zm-.55-4.684s1.263 1.726 1.085 3.625l-.927.461s-.542-1.63-1.45-2.197l1.293-1.889Zm-3.893-.01 1.202 1.567s-.75.97-1.32 2.476l-1.158-.454s.064-1.9 1.276-3.589Z" fill="#C3A33E"/><path d="M23.114 16.47s-.295.773-.295 1.849l.914.332.399-1.657-1.018-.524Z" fill="#C0A33F"/><path d="M32.662 16.5s.305.919.322 2.084l-1.186.073s.231-.68-.17-1.816l1.034-.341Zm-1.694-3.373s.914 1.261 1.416 2.582l-1.138.372s-.365-1.215-1.212-1.872l.934-1.082Zm-1.808 1.251-1.362 1.786-1.293-1.676s.703-1.228 1.417-1.557c0 0 .649.375 1.238 1.447ZM27.905 10s.566.365.73.574l-.693 1.159-.854-1.142s.58-.528.817-.591Z" fill="#C1A43E"/><path d="M25.672 14.09s-.907.886-1.132 1.998l-1.121-.531s.589-1.6 1.218-2.33l1.035.863Zm.683-2.848s-.8.763-1.085 1.165l.94.91s.45-.79.951-1.206l-.806-.87Zm4.141 1.258s-.696-.857-1.078-1.175l-.994.85s.753.514 1.125 1.045l.947-.72Z" fill="#C4A43D"/><path d="M32.662 27.231c-.027-.152.348-2.403 2.94-2.49 1.416.11 2.648.635 2.832.758 0 0-1.028 1.879-2.655 2.609-1.547.66-3.04-.648-3.117-.877Z" fill="#C2A541"/><path d="M35.501 23.842s-.274-.946.02-2.662c0 0-2.086.846-2.578 3.628 0 0 .938-.923 2.558-.966Zm1.627 4.657s.345.923 1.604 2.132c0 0-2.186.544-4.245-1.411 0 0 1.309.196 2.641-.72Zm4.309-1.998s-1.252 1.736-3.127 2.168l-.733-.727s1.39-1.026 1.647-2.058l2.213.617Zm-1.215-3.665L39.1 24.46s-1.165-.399-2.785-.459l.067-1.234s1.837-.538 3.84.07Z" fill="#C3A33E"/><path d="M38.297 20.503s-.834-.033-1.865.308l-.03.966 1.714-.149.18-1.125Z" fill="#C0A33F"/><path d="M41.273 29.498s-.78.578-1.892.96l-.442-1.092s.727.003 1.684-.734l.65.866Zm2.695-2.658s-.918 1.258-2.022 2.147l-.717-.952s1.048-.727 1.41-1.733l1.329.538Zm-1.765-1.305-2.139-.72 1.199-1.743s1.393.272 1.935.843c0 0-.154.727-.995 1.62ZM46 22.972s-.17.651-.321.87l-1.33-.285.827-1.165s.687.378.824.58Z" fill="#C1A43E"/><path d="M41.377 22.16s-1.132-.572-2.267-.432l.154-1.225s1.718.05 2.615.411l-.502 1.245Zm2.942-.256s-.98-.512-1.456-.651l-.572 1.172s.897.176 1.453.514l.575-1.035Zm.1 4.295s.603-.926.788-1.384l-1.129-.667s-.254.87-.646 1.387l.988.664Z" fill="#C4A43D"/><path d="M30.978 32.828c.137-.076 2.407-.448 3.321 1.958.352 1.365.245 2.69.188 2.905 0 0-2.123-.362-3.348-1.656-1.125-1.242-.355-3.064-.16-3.207Z" fill="#C2A541"/><path d="M35.126 34.405s.817-.561 2.548-.837c0 0-1.477-1.686-4.292-1.255 0 0 1.185.581 1.744 2.092Zm-3.927 3.02s-.77.621-1.523 2.191c0 0-1.219-1.879-.01-4.438 0 0 .23 1.288 1.533 2.248Zm3.291 3.406s-2.059-.617-3.073-2.24l.458-.923s1.426.976 2.495.886l.12 2.277Zm3.11-2.317-1.912-.534s.01-1.218-.451-2.762l1.198-.332s1.105 1.554 1.165 3.628Z" fill="#C3A33E"/><path d="M39.21 35.958s-.234-.793-.89-1.653l-.93.286.689 1.56 1.132-.193Z" fill="#C0A33F"/><path d="M31.574 41.641s-.8-.547-1.523-1.47l.904-.767s.227.684 1.238 1.348l-.619.89Zm3.405 1.68s-1.497-.462-2.698-1.215l.68-.976s1.03.747 2.105.767l-.087 1.424Zm.68-2.081.003-2.238 2.049.565s.187 1.4-.184 2.09c0 0-.744.087-1.869-.417Zm3.665 2.745s-.676.046-.934-.023l-.15-1.338 1.376.401s-.141.767-.292.96Z" fill="#C1A43E"/><path d="M38.618 39.384s.184-1.248-.311-2.27l1.215-.246s.505 1.63.445 2.586l-1.349-.07Zm1.188 2.682s.175-1.085.158-1.58l-1.306-.16s.12.897-.027 1.531l1.175.21Zm-4.07 1.47s1.078.27 1.573.296l.278-1.271s-.914.036-1.534-.163l-.317 1.139Z" fill="#C4A43D"/><path d="M25.15 32.742c-.134-.077-2.408-.448-3.322 1.958-.351 1.364-.247 2.689-.19 2.905 0 0 2.125-.362 3.347-1.657 1.129-1.238.362-3.06.165-3.206Z" fill="#C2A541"/><path d="M21.002 34.315s-.817-.56-2.548-.836c0 0 1.48-1.687 4.292-1.252 0 0-1.182.581-1.744 2.088Zm3.923 3.024s.77.621 1.52 2.194c0 0 1.222-1.878.017-4.438 0 0-.235 1.288-1.537 2.244Zm-3.29 3.406s2.055-.617 3.073-2.24l-.46-.923s-1.429.975-2.493.886l-.12 2.277Zm-3.11-2.32 1.91-.531s-.006-1.222.456-2.762l-1.198-.335s-1.109 1.553-1.169 3.628Z" fill="#C3A33E"/><path d="M16.914 35.869s.237-.794.894-1.653l.93.282-.693 1.56-1.131-.19Z" fill="#C0A33F"/><path d="M24.547 41.555s.803-.548 1.523-1.47l-.9-.764s-.231.68-1.243 1.344l.62.89Zm-3.405 1.676s1.497-.458 2.698-1.211l-.68-.976s-1.03.747-2.105.767l.087 1.42Zm-.68-2.078v-2.24l-2.048.564s-.188 1.398.18 2.088c0 0 .747.09 1.868-.412Zm-3.665 2.739s.672.05.93-.023l.154-1.338-1.376.401s.14.767.292.96Z" fill="#C1A43E"/><path d="M17.506 39.291s-.184-1.245.315-2.267l-1.219-.246s-.505 1.627-.445 2.583l1.35-.07Zm-1.192 2.682s-.174-1.085-.154-1.58l1.303-.16s-.12.9.027 1.531l-1.175.21Zm4.068 1.474s-1.075.269-1.573.295l-.275-1.274s.91.04 1.533-.16l.315 1.139Z" fill="#C4A43D"/></svg>