<!-- by TradingView --><svg width="56" height="56" viewBox="0 0 56 56" xmlns="http://www.w3.org/2000/svg"><path fill="#F0F3FA" d="M0 0h56v56H0z"/><path fill-rule="evenodd" d="M33.97 14.72A9.64 9.64 0 0 0 28.45 13h-.5a9.88 9.88 0 0 0-7.08 3.33 10.53 10.53 0 0 0-2.32 4.02c-.05.15-.08.15-.1-.01a5.54 5.54 0 0 0-.99-2.51 10 10 0 0 0-1.92-1.92c-.06-.05-.1-.04-.13.04a5.75 5.75 0 0 0 .13 4.02c.01.05 0 .07-.05.07-.59-.05-1.12 0-1.59.14-.04 0-.06.04-.05.1.1.53.3 1 .62 1.38.03.04.02.07-.04.09l-.34.12a.86.86 0 0 0-.5.43c-.12.22-.11.44 0 .67.1.17.3.32.65.44.24.09.48.15.71.17.27.04.29.12.05.26-.05.03-.14 0-.28-.08a3.47 3.47 0 0 0-2.59-.43 1.1 1.1 0 0 0-.77.5c-.18.3-.12.59.16.88.05.05.05.1-.01.13l-.51.3v.05c.26.55.64.93 1.16 1.15a.2.2 0 0 1 .11.1l.09.18c.13.32.25.54.35.66.17.21.38.33.63.36.26.02.48-.05.67-.22.11-.1.26-.28.43-.56l.22-.33c.15-.2.43-.43.85-.71l.45-.32c.05-.05.1-.04.15 0l1.05 1.1c.03.03.03.04-.01.04-.28 0-.53.06-.74.2-.18.13-.37.33-.56.61-.02.04-.05.05-.1.04-.58-.23-1.08-.17-1.51.17-.35.28-.53.63-.55 1.07-.01.4.1.8.35 1.19.03.04.03.08 0 .13-.22.47-.24.9-.04 1.3.18.38.52.66 1 .84.04 0 .05.03.05.06s-.02.05-.05.06c-.6.17-.9.59-.9 1.26a2.11 2.11 0 0 0 .64 1.52l.33.3c.03.02.04.05.05.1v.14c.01.3.03.52.06.67a1.4 1.4 0 0 0 .66.93l.3.24a.2.2 0 0 1 .04.1c.18.94.73 1.5 1.65 1.65.13.02.5.02 1.08-.02.05 0 .08.02.1.07.97 2.25 2 3.5 3.09 3.73h.85a9.38 9.38 0 0 0 2.2-.99c.34-.2.58-.33.73-.4a5.39 5.39 0 0 1 5.18.14l.54.31c.9.52 1.6.83 2.13.94h.87a2.84 2.84 0 0 0 1.49-1.01 9.7 9.7 0 0 0 1.55-2.7c.03-.09.1-.13.2-.11 1.1.2 1.88-.06 2.36-.8.05-.07.11-.22.18-.42.1-.3.2-.5.3-.58.54-.43.83-.85.86-1.25l.03-.65c0-.06.03-.1.07-.13.67-.46.98-1.1.92-1.9-.03-.55-.3-.92-.8-1.13-.14-.05-.14-.11 0-.17.37-.15.66-.37.86-.68.21-.34.26-.7.14-1.08l-.1-.36c-.02-.05-.02-.1 0-.14.47-.87.45-1.57-.05-2.1a1.42 1.42 0 0 0-.86-.42c-.35-.04-.66.02-.94.19-.22.14-.26.1-.11-.13.33-.48.53-.84.6-1.08.14-.38.13-.8-.01-1.24-.2-.59-.51-.9-.96-.92-.26-.02-.7.09-1.29.33l-.34.13c-.06.03-.1 0-.09-.06.19-2.66-.45-5.05-1.9-7.17a.1.1 0 0 1-.02-.08.08.08 0 0 1 .06-.06c.25-.07.47-.18.67-.33.11-.09.22-.09.32 0 .42.36.85.39 1.29.09a2.98 2.98 0 0 0 .82-1.22c.2-.42.24-.88.13-1.36-.14-.54-.44-.8-.92-.76-.07 0-.18.02-.31.05-.22.04-.39.06-.52.05a2.1 2.1 0 0 0-1.18.2.14.14 0 0 1-.13 0l-.15-.07a2.16 2.16 0 0 0-.61-.22.76.76 0 0 0-.62.22c-.04.04-.1.11-.17.23-.12.2-.23.31-.31.34-.32.1-.63.19-.96.25-.05 0-.1 0-.13-.03Zm-17.55 14.5c-.2.24-.42.38-.66.43-.03.01-.05 0-.07-.02a.07.07 0 0 1-.02-.07c.07-.27.07-.49 0-.65-.1-.19-.29-.23-.58-.13a.3.3 0 0 0-.2.26c-.07.37.06.64.36.82.03.01.04.04.04.07 0 .03 0 .06-.03.08-.26.22-.33.44-.23.67.02.05.05.06.1.04.06-.04.16-.11.3-.23l.23-.17c.8-.48 1.6-.42 2.36.18.07.05.23.09.49.12.05 0 .09 0 .12-.05a.75.75 0 0 1 .43-.26c.1-.02.24-.01.44.01.21.03.38.04.5.02.15-.02.18-.1.1-.23-.64-.9-1.13-1.84-1.46-2.84a.29.29 0 0 0-.22-.2l-.2-.05c-.1-.02-.13.01-.07.1.41.6.43 1.2.05 1.77a.7.7 0 0 1-.66.34l-.39-.02c-.29-.01-.32-.12-.1-.3.35-.3.43-.55.26-.75a.38.38 0 0 0-.35-.15.55.55 0 0 0-.34.18.18.18 0 0 0-.05.13v.12c0 .41-.05.67-.15.78Zm24.58.44c-.02.02-.05.02-.07.01-.52-.18-.8-.5-.82-.96-.01-.11-.04-.12-.1-.03l-.84 1.39c-.04.06-.02.08.04.07l.23-.06c.19-.04.33-.07.43-.07.65-.02 1.2.22 1.64.72.04.05.08.04.1-.01.15-.3.08-.55-.23-.76-.05-.03-.05-.06 0-.09.22-.1.35-.23.4-.42a.64.64 0 0 0-.04-.48c-.07-.16-.17-.24-.3-.27-.15-.03-.28.05-.4.22-.12.18-.13.4-.03.66.01.03 0 .05-.01.08Zm-.7 3.28c-.06.05-.06.09 0 .13.33.21.43.5.3.84a.95.95 0 0 1-.69.63 4.65 4.65 0 0 1-2.48-.15 28.6 28.6 0 0 0-2.77-.62 8.27 8.27 0 0 0-2.67.02c-.03 0-.04 0-.04-.03v-.04a9.38 9.38 0 0 0 3.41-2.2c.08-.09.28-.27.59-.55a.12.12 0 0 1 .12-.03c.95.32 1.74.26 2.38-.2.06-.03.08-.01.07.05l-.03.3c-.01.04-.04.07-.09.08-.5.04-.86.14-1.1.3-.34.2-.52.53-.57.98-.05.57.16.97.62 1.2.44.22.9.22 1.39 0 .1-.04.14-.1.1-.16a.05.05 0 0 0-.05-.03c-.21 0-.36-.08-.45-.23a.55.55 0 0 1-.05-.46.66.66 0 0 1 .3-.4.7.7 0 0 1 .6-.05c.05.02.09 0 .12-.05.12-.22.28-.34.48-.37.17-.02.33.03.48.16.15.12.23.26.25.42.02.19-.06.34-.23.46Zm-23.97-.07.02-.01.28-.9-.01-.01c-.07-.03-.14 0-.22.07a.67.67 0 0 0-.16.28l-.01.05a.66.66 0 0 0-.03.33c.02.1.06.16.13.19Zm2.23.92c.78-.01 1.23-.3 1.36-.88 0-.06.04-.09.09-.1a5.3 5.3 0 0 0 1.72-.78c.04-.03.09-.03.13 0 .8.6 1.32.95 1.58 1.09l1.35.65a9.12 9.12 0 0 0-3.81.2l-.72.18c-1 .26-1.71.42-2.17.47-.77.09-1.33-.01-1.7-.3-.36-.28-.43-.65-.21-1.12a.13.13 0 0 1 .12-.07c.06 0 .1.02.12.08.13.3.35.49.68.56.2.05.53.06 1.01.04l.45-.02Zm9.83 2.54a4.9 4.9 0 0 1 2.2-2.12c.1-.04.1-.06-.01-.06-.1 0-.23.02-.42.07l-.23.05c-1.32.2-2.59.16-3.8-.13-.23-.05-.24-.02-.03.08.97.47 1.7 1.17 2.18 2.1.01.03.03.04.05.04.03 0 .05-.01.06-.03ZM25 35.17a5.55 5.55 0 0 0-2.03-.06 8.49 8.49 0 0 0-2.34.74c-1.12.5-1.97.79-2.52.88-.71.13-1.22-.15-1.54-.82-.01-.03 0-.05.04-.05 1.21 0 2.4-.2 3.54-.59a7.45 7.45 0 0 1 3.3-.55c.65.05 1.17.18 1.57.4.11.06.1.08-.02.05Zm6.63-.06c-.12.07-.11.09.02.06a5.59 5.59 0 0 1 2.02-.07 8.48 8.48 0 0 1 2.35.75c1.12.5 1.97.79 2.52.89.72.12 1.23-.15 1.54-.82.01-.03 0-.05-.03-.05-1.22-.01-2.4-.2-3.55-.6a7.53 7.53 0 0 0-3.3-.55c-.65.05-1.18.18-1.57.4Zm-7.18 1.06c-.78.03-1.42.15-1.93.38-.65.3-1.37.62-2.17.95-1.32.56-2.19.67-2.61.35-.11-.08-.1-.13.03-.15.74-.1 1.77-.42 3.1-.95.6-.24 1.07-.42 1.39-.52a4.18 4.18 0 0 1 2.2-.1c.1.02.1.04 0 .04Zm9.95.06a4.14 4.14 0 0 0-2.18-.1c-.11.02-.11.04 0 .04.77.03 1.41.16 1.92.39.64.3 1.36.6 2.15.94 1.3.55 2.17.67 2.6.34.1-.08.09-.13-.04-.15a14.4 14.4 0 0 1-3.07-.94c-.6-.24-1.07-.41-1.38-.52Zm-10.04 1.13-2.01 1.1c-.02 0-.03 0-.04-.02l-.28-.56c-.02-.02-.01-.04.02-.06.94-.56 1.71-.73 2.3-.53.06.02.06.04.01.07Zm10.02 1.07c.03.01.04 0 .05-.01l.22-.58c.01-.02 0-.03-.01-.04l-.03-.01c-.58-.25-1.1-.43-1.54-.55-.43-.12-.67-.14-.7-.05l-.02.03c-.03.08.15.24.54.48.4.23.89.48 1.47.72l.02.01Zm-13.46.88c.28-.11.45-.38.37-.61-.08-.23-.38-.32-.67-.2-.28.1-.45.38-.37.6.08.23.38.32.67.2Zm15.5-.2c-.1.23-.4.31-.68.2-.29-.13-.45-.4-.37-.63.1-.22.4-.3.68-.18s.45.4.36.62Zm-5.92-1.28a7.55 7.55 0 0 0-2.17-.29c-.8 0-1.53.1-2.17.29-.66.2-1.42.52-2.27.97-.54.28-1.28.7-2.23 1.28a3.41 3.41 0 0 1-.74.3c-.05.01-.06.04-.04.09.23.48.52.85.84 1.1.4.3.83.4 1.3.3a7.9 7.9 0 0 0 2.09-1c.47-.3.84-.5 1.08-.63.42-.2.82-.33 1.2-.4.16-.03.48-.04.94-.04.47 0 .79.01.95.04.38.06.78.2 1.2.4.24.12.6.33 1.08.63.88.54 1.58.87 2.1 1 .46.1.89 0 1.29-.3.32-.25.6-.62.84-1.1.02-.05.01-.08-.04-.1-.03 0-.08-.03-.14-.05-.29-.1-.49-.18-.6-.24-.95-.57-1.69-1-2.23-1.28-.85-.45-1.61-.77-2.28-.97Zm-2.24.84-.4.02c-.03 0-.06-.02-.07-.05a.1.1 0 0 1 0-.08c0-.02.02-.04.04-.04l.41-.08a.15.15 0 0 0 .1-.06.16.16 0 0 0 .02-.1c0-.06-.04-.1-.1-.09l-.55.03c-.13 0-.19.07-.18.2l.04.93c0 .1.06.15.15.14l.59-.03c.07 0 .11-.04.1-.12v-.08c0-.05-.03-.08-.08-.07l-.35.01c-.07 0-.1-.02-.1-.08v-.1c0-.04.01-.07.05-.07l.35-.01c.06 0 .09-.04.08-.1v-.06c0-.08-.04-.12-.1-.11Zm-1.58.75c-.1-.02-.19-.1-.23-.27-.06-.2 0-.35.19-.44.09-.05.2-.09.3-.13a.1.1 0 0 0 .07-.05c.01-.03.02-.06 0-.08-.02-.05-.06-.08-.12-.07-.63.06-.88.36-.76.9.05.24.19.38.41.43.2.04.4 0 .6-.12.07-.04.1-.09.11-.15a.1.1 0 0 0-.03-.09.09.09 0 0 0-.1-.02l-.08.03a.9.9 0 0 1-.36.06Zm-1.69.3.2.48c.03.07.02.12-.04.17a.2.2 0 0 1-.1.04c-.11.01-.19-.04-.22-.14l-.3-.9c-.03-.1 0-.16.1-.16.25-.02.48.08.68.28.02.03.05.03.08 0a.06.06 0 0 0 .01-.04v-.02l-.17-.3a.14.14 0 0 1 0-.15l.05-.08a.11.11 0 0 1 .1-.07c.06 0 .1.03.11.07a7.62 7.62 0 0 1 .42 1.08c-.04.07-.1.1-.17.12a.25.25 0 0 1-.2-.04l-.51-.36c-.05-.04-.06-.03-.04.03Zm-1.12-.1h.01a.17.17 0 0 1 .23.06l.46.84c.05.08.02.2-.06.24h-.01a.17.17 0 0 1-.23-.06l-.46-.84a.18.18 0 0 1 .06-.24Zm-.69.95c.09 0 .2-.03.31-.06a.2.2 0 0 1 .15 0c.27.15.34.34.2.57a.8.8 0 0 1-.53.38c-.06 0-.1 0-.13-.05a.13.13 0 0 1-.01-.1c0-.05.03-.08.08-.1l.24-.13c.05-.04.07-.08.07-.13 0-.06-.04-.08-.1-.08l-.38.02a.27.27 0 0 1-.2-.08.3.3 0 0 1-.1-.21c0-.33.18-.52.55-.57.04 0 .07.02.09.06l.02.06c.02.08 0 .13-.09.15a.43.43 0 0 0-.23.13c-.08.1-.06.14.06.14Zm6.45-1.99.16.17c.04.05.06.1.04.15l-.13.57c-.02.08 0 .13.09.15l.06.02c.07.02.12-.01.14-.1l.24-.98c0-.06-.01-.1-.07-.1a.94.94 0 0 0-.5.02c-.07.02-.08.05-.03.1Zm1.43 1.04c-.18-.08-.28-.2-.3-.32-.03-.12 0-.23.1-.33.08-.1.2-.15.32-.16.15-.02.27.04.38.16.2.22.19.48-.04.78-.17.23-.46.28-.85.16-.05-.02-.08-.06-.07-.11 0-.04.02-.08.04-.1a.14.14 0 0 1 .1-.02c.07 0 .17.01.29.05.01 0 .02 0 .03-.02l.02-.03c.02-.03 0-.05-.02-.06Zm.16-.2c.1 0 .17-.08.17-.17 0-.1-.08-.18-.17-.18-.1 0-.17.08-.17.18 0 .1.08.17.17.17Zm1.22.36.02-.03c.01-.02.02-.02.04-.02.11.05.2.07.29.08.03 0 .06 0 .09-.02.02-.02.04-.04.05-.08 0-.06-.01-.1-.06-.12-.38-.16-.67-.14-.86.08-.25.27-.29.53-.1.77.09.12.2.19.35.2.13 0 .25-.05.34-.14.1-.1.15-.2.13-.31-.01-.14-.1-.25-.28-.35-.02-.01-.03-.04-.01-.06Zm-.26.59c-.09-.03-.12-.14-.09-.24.03-.1.13-.17.21-.14.08.03.12.14.09.25-.04.1-.13.16-.21.13Zm.72.53c.01.15.08.27.19.35.11.07.24.08.39.03a.69.69 0 0 0 .35-.3c.1-.15.13-.3.11-.46a.45.45 0 0 0-.19-.35.41.41 0 0 0-.38-.04.69.69 0 0 0-.36.3c-.09.15-.13.3-.11.47Zm.32.12c-.08-.05-.05-.24.06-.42.1-.17.26-.27.34-.22.08.06.05.24-.06.42-.11.17-.26.27-.34.22Z" fill="#ED1E25"/><path d="M38.5 15.11c0 .05.02.09.07.1a.1.1 0 0 0 .12-.03c.15-.18.24-.4.28-.69.03-.2.11-.22.25-.08l.1.1c.1.11.15.25.13.41a2.9 2.9 0 0 1-.66 1.5c-.13.16-.28.22-.45.18-.18-.03-.27-.16-.28-.39 0-.08-.02-.19-.05-.31-.03-.12-.1-.17-.22-.16-.28.04-.53.24-.72.61-.14.26-.46.38-.95.37-.33 0-.7-.07-1.1-.19-.16-.04-.16-.09 0-.13l.3-.04c.28-.03.53-.1.73-.22.2-.12.2-.2-.03-.24a2.5 2.5 0 0 0-.66-.03c-.7.06-1.41.18-2.11.36a4.2 4.2 0 0 0-1.62.78c-.2.14-.4.19-.58.15-.48-.1-.7-.4-.68-.9 0-.08.03-.13.09-.17a.2.2 0 0 1 .18-.04l.09.03c.29.08.55.08.78 0 .9-.31 1.84-.56 2.85-.73.19-.03.45-.1.8-.21l.15-.05c.28-.1.47-.28.56-.55a.26.26 0 0 1 .13-.16.25.25 0 0 1 .2-.02c.3.1.54.26.73.47.04.05.08.05.12 0 .3-.34.67-.47 1.14-.4.14.02.23.07.27.17.03.06.04.17.03.32v.2Z" fill="#FFF201"/><path d="M30.36 16.96c.07.11.1.17.12.17.28.1.27.16-.02.21-.4.07-.83.08-1.3.05-.23-.02-.47.02-.72.12l-1.2.47c-.19.08-.26.23-.23.44 0 .02-.01.06-.04.1a.18.18 0 0 1-.09.06c-.4.14-.73.28-1 .41-.18.08-.3.03-.39-.15l-.12-.26c-.07-.16 0-.27.19-.34l.37-.1c.3-.06.52-.12.66-.18l2.59-1.04a4.27 4.27 0 0 0 .82-.47.11.11 0 0 1 .12-.01c.04.02.07.05.07.1.02.14.07.28.17.42ZM17.07 19.7c-.24-.84-.31-.83-.22.05.03.33.14.73.32 1.22.04.11.01.13-.08.06a3.54 3.54 0 0 1-1.17-1.79 4.59 4.59 0 0 1-.14-2.17c.01-.07.05-.08.1-.04a5.58 5.58 0 0 1 1.52 1.87c.39.8.53 1.58.43 2.37-.02.16-.06.17-.13.02a13.3 13.3 0 0 1-.63-1.58Z" fill="#FFF201"/><path d="m30.87 18.5-.78-.35a.19.19 0 0 0-.14 0l-.1.03c-.16.06-.3.09-.42.08-.27-.02-.56.05-.85.22l-.28.14a.33.33 0 0 1-.28 0l-.64-.28c-.04-.02-.04-.04-.02-.07.06-.08.2-.13.42-.16l.14-.02c.1-.02.24-.1.41-.21.16-.1.27-.16.35-.18a5.29 5.29 0 0 1 2.61.2c.12.05.2.17.24.38.16.81.12 1.64-.12 2.47-.07.27-.07.6 0 1 .03.13.03.26 0 .38a5.4 5.4 0 0 0-.08 1.53c.03.51-.2.76-.66.75a1.93 1.93 0 0 1-1.1-.42c-.2-.14-.32-.25-.37-.32-.06-.08-.1-.22-.13-.43a2.3 2.3 0 0 0-.54-1.1 4.3 4.3 0 0 1-.27-.37c-.1-.16-.27-.36-.5-.6a3.8 3.8 0 0 1-.56-.69.2.2 0 0 0-.14-.1h-.29c-.2 0-.33-.01-.42-.04a3.56 3.56 0 0 1-.7-.34.26.26 0 0 0-.16-.04l-1.2.06c-.08 0-.1-.02-.04-.09.08-.11.2-.2.37-.3.05-.02.06-.06.04-.12l-.2-.4c-.05-.08-.03-.15.06-.2l.66-.35c.05-.03.09-.02.1.04l.04.12c.06.2.12.33.17.4.08.14.2.2.34.21l1.6.1c.24.02.72.45 1.44 1.3l.03.04c.11.13.22.13.31 0l.08-.1c.12-.14.13-.28.02-.41l-.36-.44a.18.18 0 0 1-.03-.2c.02-.06.07-.1.14-.1.22-.03.35-.13.39-.3.04-.18-.02-.35-.16-.52a.15.15 0 0 1-.04-.13c.01-.06.04-.1.08-.12.53-.29.97-.22 1.33.21.03.03.05.03.08 0l.14-.14v-.02Z" fill="#FFF201"/><path d="M35.88 18.74c.54-.06.9.05 1.11.34.05.06.03.08-.04.07l-.42-.11c-.05-.02-.08 0-.1.06v.05c-.02.06 0 .1.06.1.46.11.67.44.62.98 0 .01 0 .02-.02.03l-.08.04c-.03.02-.05.01-.05-.03 0-.18-.03-.3-.12-.34-.08-.04-.11-.01-.09.08.16.52.05.97-.3 1.37-.1.13-.18.28-.23.45-.05.2 0 .24.17.11l.73-.6c.04-.03.07-.02.07.04a.3.3 0 0 1 0 .05.1.1 0 0 1 0 .05c-.26.36-.39.75-.4 1.16 0 .29.1.32.27.1.1-.13.28-.27.5-.43.05-.03.06-.07.02-.1l-.03-.04c-.03-.03-.06-.03-.1 0l-.17.13c-.23.11-.3.04-.18-.22.12-.3.2-.6.22-.94.01-.17-.04-.2-.15-.07-.12.13-.3.28-.57.44-.06.04-.07.02-.04-.04.14-.25.29-.48.45-.68.12-.16.19-.29.21-.4.05-.2.1-.2.17-.02l.11.33c.1.28.16.5.18.66 0 .14.04.33.1.58.08.33.12.58.1.75 0 .28-.12.55-.32.81a.09.09 0 0 1-.1.03.08.08 0 0 1-.05-.03c-.03-.05-.07-.05-.1 0-.11.13-.17.25-.16.37 0 .06.03.08.09.06.3-.12.5-.27.63-.45.07-.1.12-.1.12.04.01.19-.02.47-.09.84-.08.44-.1.77-.08 1 0 .04-.02.07-.07.08l-1.85.72-.01.02-.03.12c0 .03 0 .04.02.03l4.23-1.5a.35.35 0 0 1 .26.01c.09.04.15.1.2.19.18.38.24.71.18 1-.04.19-.17.45-.4.78-.16.26-.28.46-.36.62-.36.73-.73 1.42-1.1 2.08-.1.2-.24.35-.4.48a3.79 3.79 0 0 1-.5.33c-.19.1-.43.17-.72.18a6.87 6.87 0 0 1-.94-.05.13.13 0 0 1-.11-.07.15.15 0 0 1-.01-.14 3.47 3.47 0 0 1 .79-1.2c.14-.09.3-.1.5-.05.04.02.09.02.13 0 .13-.05.32-.06.58-.04a.1.1 0 0 0 .09-.04.1.1 0 0 0 .02-.1c-.03-.13-.02-.23.02-.3.03-.05.1-.12.23-.21.55-.4.87-.98.95-1.72 0-.04 0-.06-.03-.08a.08.08 0 0 0-.09-.01c-.4.2-.89.63-1.45 1.28l-.46.52c-.11.12-.3.15-.54.11-.21-.03-.38-.1-.5-.2a5.5 5.5 0 0 1-.55-.49c-.05-.05-.1-.05-.15 0l-.03.04c-.03.03-.03.07 0 .1l.54.57c.1.1.1.2 0 .29a5.38 5.38 0 0 1-2.99 1.44c-1.08.2-2.2.2-3.35 0a.09.09 0 0 1-.07-.05.1.1 0 0 1 0-.09c.19-.35.24-.7.15-1.04 0-.04-.03-.07-.05-.07 0 0-.02 0-.03.02l-.01.03c-.06.86-.4 1.46-1.03 1.81-.59.33-1.26.47-2.01.42a13.95 13.95 0 0 1-2.61-.54c-.6-.15-1.2-.05-1.81.3-.93.53-1.55.87-1.84 1.02-.1.04-.25.1-.47.14-.42.1-.71.23-.87.42-.2.25-.51.43-.92.55-.34.1-.7.14-1.08.11a.28.28 0 0 1-.23-.13.3.3 0 0 1-.03-.27c.19-.57.5-1.07.91-1.52a.16.16 0 0 1 .13-.05c.08 0 .19.03.33.08.16.06.29.08.36.07.13-.02.24-.11.33-.28.06-.1.14-.14.25-.12.4.07.72.05.94-.04.71-.28 1.36-.69 1.93-1.2.1-.1.2-.25.32-.48.09-.18.17-.3.24-.37.11-.1.27-.13.47-.1.65.1 1.37-.16 2.14-.77.16-.12.32-.4.5-.86l.08-.22c.06-.14.2-.3.4-.48s.38-.3.55-.38a4.21 4.21 0 0 1 2.1-.3c.06 0 .1.03.11.08.13.36.38.57.75.64.3.05.62 0 .98-.14l.08.01c.02.02.03.05.03.08-.07.78-.23 1.57-.49 2.36-.14.43.01.7.45.79.45.1.91.1 1.38 0 .6-.13.95-.4 1.03-.81a.4.4 0 0 0-.08-.34.36.36 0 0 0-.32-.15l-.57.03a.27.27 0 0 1-.22-.08.3.3 0 0 1-.09-.22c0-.13.05-.27.14-.42l.07-.13c.28-.5.48-.86.6-1.11.18-.41.3-.79.33-1.14.01-.08-.01-.21-.06-.39l-.02-.06c-.02-.06 0-.1.06-.11.93-.3 1.5-.93 1.73-1.88.04-.19.05-.49.04-.91v-.35c0-.05.02-.09.06-.11.25-.17.44-.39.57-.66.02-.02.01-.04 0-.04h-.04c-.38.47-.74.68-1.07.62-.7-.13-1.15 0-1.37.38a.3.3 0 0 1-.25.16c-.2.01-.31-.04-.34-.16-.01-.05-.04-.07-.1-.07-.16.01-.29-.06-.38-.23a.86.86 0 0 1-.11-.47c0-.16.12-.3.33-.44a5.82 5.82 0 0 0 1.17-1.08c.28-.35.5-.59.7-.72a.17.17 0 0 0 .07-.12l.02-.17c.04-.3.1-.52.22-.65.06-.06.1-.05.14.02l.26.51c.03.06.06.07.11.03a.96.96 0 0 1 .61-.17 2.78 2.78 0 0 1 .79.2c.15.04.15.08 0 .13-.18.05-.33.1-.45.16-.24.1-.23.14.02.11ZM29.3 19c.02.1 0 .18-.03.26a.13.13 0 0 1-.1.09c-.22.03-.44-.02-.68-.15-.04-.02-.06-.04-.07-.06l.05-.09c.19-.2.39-.3.6-.34.05 0 .1 0 .13.05.06.06.1.14.1.24Z" fill="#FFF201"/><path d="M30.58 19.71a.2.2 0 0 1-.1 0c-.03 0-.05-.03-.06-.07 0-.04.01-.07.04-.1.22-.13.31-.34.28-.63-.01-.05 0-.06.05-.04.03.02.06.07.08.15.02.06.06.08.11.04a.1.1 0 0 0 .05-.1.7.7 0 0 1 0-.2c.02-.07.04-.07.08 0 .04.08.06.18.07.3 0 .06-.03.1-.1.09l-.09-.01c-.04 0-.07.01-.09.06l-.14.43a.17.17 0 0 0 0 .12c.12.31.06.59-.16.82h-.04c-.02 0-.03-.02-.01-.04a.9.9 0 0 0 .13-.75c-.02-.06-.05-.08-.1-.07ZM30.05 18.98a.17.17 0 0 1-.12.02c-.05-.01-.08-.04-.08-.1 0-.1.05-.16.14-.16.13-.01.24.02.34.09.06.03.05.07 0 .1a.48.48 0 0 1-.28.05Z" fill="#ED1E25"/><path d="m23.23 20.46-.3.24c-.13.1-.25.07-.34-.08l-.22-.33c-.09-.14-.06-.24.07-.31l1.54-.85a.2.2 0 0 1 .2 0c.07.05.11.1.12.19a.96.96 0 0 1-.14.54c-.07.11-.24.23-.5.35-.21.1-.35.18-.43.25Z" fill="#FFF201"/><path d="M34.35 19.7c.09-.06.14-.15.11-.2-.03-.04-.13-.03-.22.03s-.14.15-.11.2c.03.04.13.03.22-.03ZM29.88 19.77c.08-.01.14-.06.13-.1 0-.04-.07-.07-.15-.06-.07.01-.13.05-.13.1 0 .04.08.07.15.06Z" fill="#ED1E25"/><path d="M22.16 20.2c.04.19.15.4.35.62l.1.12c.02.02.03.04.02.07-.01.03-.03.05-.06.05l-.1.03c-.27.07-.5.15-.65.23-.52.28-1.3.72-2.34 1.32-.5.28-.9.58-1.23.9a.07.07 0 0 1-.07.02.07.07 0 0 1-.05-.05l-.25-.76c-.03-.1 0-.16.1-.18.24-.05.41-.12.53-.18 1-.57 2.01-1.16 3.02-1.79a2.43 2.43 0 0 0 .5-.45.07.07 0 0 1 .08-.02c.02.01.04.03.05.06ZM16.24 21.62c-.26-.09-.29-.04-.08.15.42.36.75.6 1 .7.47.17.45.22-.03.13a3.72 3.72 0 0 1-2.5-1.8.1.1 0 0 1 0-.1.09.09 0 0 1 .07-.05 2.7 2.7 0 0 1 2.44 1.18c.11.16.08.22-.1.17a1.56 1.56 0 0 1-.6-.25.82.82 0 0 0-.2-.13Z" fill="#FFF201"/><path d="m32.44 21.03.01.17c0 .07-.03.09-.08.06l-.1-.04c-.04-.02-.05-.05-.05-.1.03-.13.08-.19.17-.16.03.01.05.03.05.07ZM32.69 21.36h.06c.04 0 .04.03.02.06-.01.02-.03.03-.05.03-.1 0-.12-.02-.03-.1Z" fill="#ED1E25"/><path d="M16.76 22.98a2 2 0 0 1-.94.14 6.84 6.84 0 0 1-1.19-.24 1.91 1.91 0 0 1-.39-.18c-.13-.07-.13-.14 0-.2.33-.18.7-.23 1.15-.17.19.03.46.13.8.3.25.13.44.21.56.25.03.01.04.03.04.05 0 .03-.01.04-.03.05Z" fill="#FFF201"/><path d="M29.88 22.8c.12.01.24-.01.37-.06.03 0 .04 0 .06.03.02.02.01.04-.01.06a.66.66 0 0 1-.42.1.67.67 0 0 1-.41-.13c-.03-.02-.03-.04-.01-.07.02-.02.03-.03.06-.02a1 1 0 0 0 .36.1Z" fill="#ED1E25"/><path d="M17.54 22.9c.06.28.18.52.34.7.04.04.03.06-.02.07-.31.06-.55.15-.72.27a87.3 87.3 0 0 0-2.64 1.85c-.16.12-.33.33-.52.65l-.31.45c-.17.2-.33.19-.48-.02l-.12-.15c-.17-.22-.14-.42.07-.59l.27-.24a4.22 4.22 0 0 1 .82-.64c.35-.18.59-.34.71-.49.22-.25.49-.48.82-.69.33-.2.73-.53 1.19-.99.12-.12.26-.2.43-.26.08-.03.13 0 .16.08ZM30 24.83a2.5 2.5 0 0 0-.16-.03.96.96 0 0 1-.44-.18 4.5 4.5 0 0 0-1-.61c-.17-.09-.32-.1-.43-.06a.93.93 0 0 0-.29.25 2.8 2.8 0 0 1-.18.2.18.18 0 0 1-.13.05 1.93 1.93 0 0 1-.93-.24 1.74 1.74 0 0 0-.66-.08h-.2c-.03 0-.04-.02-.02-.05l.02-.05a.08.08 0 0 1 .07-.06c.32-.03.46-.2.42-.5-.01-.04 0-.08.04-.11a.12.12 0 0 1 .13-.02l.72.32c.11.05.2.02.27-.08.27-.41.67-.56 1.18-.44.17.04.38.2.63.49.2.23.37.39.5.46.43.23.73.43.89.59a.1.1 0 0 0 .1.02c.38-.1.94-.16 1.67-.15.7 0 .93.43.67 1.27a7.46 7.46 0 0 1-.84 1.67c-.06.1-.11.2-.14.3-.18.56.12.79.92.67.25-.03.34.08.27.33l-.03.1c-.07.25-.23.39-.49.4l-1.6.08a.27.27 0 0 1-.22-.1.29.29 0 0 1-.07-.23c0-.08.04-.22.1-.4.07-.16.1-.28.12-.37l.35-1.8c.05-.24.22-.55.51-.92.05-.06.04-.08-.04-.05a.9.9 0 0 0-.44.4.29.29 0 0 1-.1.1c-.46.3-.96.37-1.5.2-.23-.08-.34-.27-.32-.57.02-.27.1-.5.26-.68a.16.16 0 0 1 .12-.06l.26-.02c.1 0 .11-.02 0-.04Z" fill="#FFF201"/><path d="M13.2 24.24c-.04-.01-.05 0-.03.03l.02.04.02.02c.43.13.8.31 1.13.54.17.11.15.17-.05.16a4.6 4.6 0 0 1-2.29-.68.17.17 0 0 1-.08-.16c0-.07.04-.12.1-.15a2.4 2.4 0 0 1 1.4-.14c.39.07.82.27 1.3.57.03.03.04.06.03.1-.02.07-.06.09-.13.07-.5-.13-.98-.26-1.43-.4ZM16.82 24.45c.04-.13.14-.14.31-.05.57.3 1.2.36 1.9.19l.63-.16c1.14-.3 1.98-.45 2.54-.48.91-.05 1.76.14 2.55.55.68.36 1.2.91 1.55 1.64.02.04.01.08-.02.1l-.42.45c-.04.04-.08.04-.13.01a3.9 3.9 0 0 0-2.1-.44 17.37 17.37 0 0 0-2.2.23c-1.17.18-2.1.19-2.77.02a3.74 3.74 0 0 1-2.24-1.64c-.04-.07-.03-.12.04-.16l.28-.15a.17.17 0 0 0 .08-.11ZM28.73 25.06a.1.1 0 0 0-.07-.08.1.1 0 0 0-.1.03l-.11.12c-.2.21-.34.35-.45.4a.76.76 0 0 1-.6.07.2.2 0 0 1-.1-.08l-.2-.25a1.17 1.17 0 0 0-.37-.23 1.24 1.24 0 0 1-.3-.18c-.26-.23-.22-.33.12-.29l.83.1c.13.02.23-.02.3-.1.17-.2.35-.32.58-.39.04-.01.1-.01.14 0 .36.12.73.32 1.1.61.03.03.03.05 0 .08-.22.17-.35.4-.41.69-.01.05-.04.06-.07.02a1.34 1.34 0 0 1-.29-.52Z" fill="#FFF201"/><path d="M25.25 25.5c.02.15-.02.14-.14 0-.1-.13-.34-.25-.73-.37a5.86 5.86 0 0 0-2.05-.19c-.47.03-1.17.13-2.09.29l-1 .16c-.7.1-1.33-.03-1.87-.4-.2-.14-.2-.16.03-.07.43.16.96.22 1.58.16.37-.03.93-.13 1.68-.29.67-.15 1.16-.23 1.46-.26a4.79 4.79 0 0 1 3.13.97Z" fill="#ED1E25"/><path d="M13.04 25.21c-.28.08-.28.12.01.15.2.01.34.03.42.05.27.06.28.15.03.27-.23.1-.5.15-.8.12a1.1 1.1 0 0 1-.76-.33.15.15 0 0 1-.03-.13c0-.05.03-.09.07-.1.38-.22.79-.27 1.22-.18.03.01.05.03.06.05v.05c0 .03-.03.04-.05.04l-.17.01Z" fill="#FFF201"/><path d="M21.44 25.97c-.7.11-1.2.17-1.53.17-1.04 0-1.82-.2-2.32-.57-.2-.15-.18-.17.04-.07.5.24 1.1.35 1.83.34.49 0 1.13-.06 1.94-.2.7-.1 1.2-.16 1.53-.16 1.04 0 1.81.2 2.32.57.2.15.18.17-.04.07-.5-.24-1.1-.35-1.83-.35-.49 0-1.14.07-1.94.2Z" fill="#ED1E25"/></svg>