<!-- by TradingView --><svg width="56" height="56" fill="none" xmlns="http://www.w3.org/2000/svg"><path fill="#F0F3FA" d="M0 0h56v56H0z"/><path fill-rule="evenodd" clip-rule="evenodd" d="M7 33V23h7.22c1.308 0 3.78.733 3.78 2.973 0 .617-.459 1.473-1.673 1.824l.085.062c.579.417 1.588 1.144 1.588 2.484C18 31.983 15.893 33 14.22 33H7Zm3-8v2h3.259c.684 0 1.741-.211 1.741-1.044 0-.834-1.107-.956-1.741-.956H10Zm0 4v2h3.259c.684 0 1.741-.211 1.741-1.044 0-.834-1.107-.956-1.741-.956H10Zm9-6v10h3V23h-3Zm16 2v-2h-5.944C27.038 23.183 23 24.42 23 28s4.038 4.833 6.056 5H35v-2h-5.672C28.378 31 26 29.973 26 28c0-2.466 2.876-3 3.328-3H35Z" fill="#00665A"/><path fill-rule="evenodd" clip-rule="evenodd" d="M37.805 26.056a2.75 2.75 0 0 0 0 3.888l4.251 4.25a2.75 2.75 0 0 0 3.888 0l4.25-4.25a2.75 2.75 0 0 0 0-3.888l-4.25-4.25a2.75 2.75 0 0 0-3.888 0l-4.25 4.25ZM41 29.566c0 .792.642 1.434 1.433 1.434h3.134c.791 0 1.433-.642 1.433-1.433v-3.134c0-.791-.642-1.433-1.433-1.433h-3.134c-.791 0-1.433.642-1.433 1.433v3.134Z" fill="#EC2028"/></svg>