<!-- by TradingView --><svg width="56" height="56" fill="none" xmlns="http://www.w3.org/2000/svg"><path fill="#F0F3FA" d="M0 0h56v56H0z"/><path fill-rule="evenodd" clip-rule="evenodd" d="m10 28 18-18 18 18-18 18-18-18Zm18 16.586L44.586 28 28 11.414 11.414 28 28 44.586Z" fill="#EB050E"/><path fill-rule="evenodd" clip-rule="evenodd" d="M11.741 28 28 44.259 44.259 28h-8.266L28 35.993 20.007 28H11.74Z" fill="#E90105"/><path fill="#E90105" d="M25 17h5v13h-5z"/><path fill-rule="evenodd" clip-rule="evenodd" d="M24 19h-2v8h2v-8Zm8.092 0H31v8h1.092C33.698 27 35 25.67 35 24.029V21.97C35 20.331 33.698 19 32.092 19Z" fill="#293D9B"/></svg>