<!-- by TradingView --><svg width="56" height="56" viewBox="0 0 56 56" xmlns="http://www.w3.org/2000/svg"><path fill="#F0F3FA" d="M0 0h56v56H0z"/><path d="m28.1 22.87 2.39 3.33-2.4 3.5c-.04.06-.08.06-.12 0a40.9 40.9 0 0 0-8.33-9.72 21.77 21.77 0 0 0-1.9-1.45c-.03-.03-.04-.06-.02-.1l1.88-3.3c.06-.1.14-.13.24-.05a43.13 43.13 0 0 1 8.08 7.66c.04.04.1.09.17.13Z" fill="#224191"/><path d="m30.49 26.2-2.4-3.33a.55.55 0 0 0 .04-.09c0-.03.02-.05.04-.08a41.23 41.23 0 0 1 8.1-7.67c.06-.05.11-.04.15.03l1.9 3.34c.03.04.02.08-.02.1a41.23 41.23 0 0 0-7.81 7.7Z" fill="#1C94D1"/><path d="M28.1 35.78h.03a32.17 32.17 0 0 1 11.62-14.95c.07-.06.14-.04.19.04l1.8 3.19c.05.07.04.13-.03.18-2.78 2-5.1 4.43-6.98 7.3a29.76 29.76 0 0 0-4.01 9.35c-.01.06-.05.09-.1.09a288.96 288.96 0 0 1-5.02 0c-.06 0-.1-.03-.1-.09a29.78 29.78 0 0 0-4.01-9.35 27.44 27.44 0 0 0-6.99-7.3c-.06-.05-.07-.11-.03-.18l1.8-3.19c.06-.08.12-.1.2-.04A32.18 32.18 0 0 1 28.1 35.78h.02Z" fill="#7ABA42"/><path d="M13.07 26.62a24.86 24.86 0 0 1 9.7 14.28c.02.06 0 .1-.07.1h-3.94c-.07 0-.1-.04-.13-.1a21.85 21.85 0 0 0-2.92-6.04 18.86 18.86 0 0 0-4.66-4.77c-.05-.04-.06-.09-.03-.15l1.87-3.28c.04-.09.1-.1.18-.04Z" fill="#1C94D1"/><path d="M42.93 26.62c.08-.06.14-.04.18.04l1.87 3.29c.03.06.02.1-.03.15a18.85 18.85 0 0 0-4.66 4.76 21.87 21.87 0 0 0-2.92 6.04c-.02.07-.07.1-.13.1H33.3c-.07 0-.1-.03-.07-.1a24.87 24.87 0 0 1 9.7-14.28Z" fill="#224191"/></svg>