<!-- by TradingView --><svg width="56" height="56" viewBox="0 0 56 56" xmlns="http://www.w3.org/2000/svg"><path fill="#F0F3FA" d="M0 0h56v56H0z"/><path d="m38.55 33.03.33.11.5-.53 4.53-4.51a.1.1 0 0 0 .03-.07.1.1 0 0 0-.03-.07L28.03 12.02c-.02-.03-.04-.03-.07 0L12.02 27.98c-.03.02-.03.05 0 .07l5.07 5.08.18.18h.24l.03-.2-.07-.08a54.2 54.2 0 0 1-1.36-1.32l-3.59-3.58v-.01a.4.4 0 0 1-.07-.09c-.01-.03 0-.05.01-.07l.25-.25 2.27-2.27.04-.04a221.14 221.14 0 0 0 .84-.85l2.08-2.06.1-.1.7-.7 2.29-2.31a87.66 87.66 0 0 1 1.41-1.4 405.92 405.92 0 0 0 5.53-5.58l.03.03 15.55 15.53c.02.02.02.04 0 .07a687.7 687.7 0 0 1-4.71 4.69c-.12.11-.22.22-.29.31Z" fill="#3BA14B"/><path d="m38.88 33.14-.33-.1a.96.96 0 0 1-.58.1c-.06 0-.06-.02-.03-.06l5.03-5.03V28l-14.9-14.95a.1.1 0 0 0-.08-.03.1.1 0 0 0-.07.03l-14.9 14.91a.1.1 0 0 0-.03.07c0 .03.01.05.03.07.39.36.77.73 1.14 1.12a436.7 436.7 0 0 0 3.88 3.9l-.01.02-.49-.03-.03.2.99-.01c.02 0 .04-.01.04-.03v-.01l-5.18-5.2c-.03-.04-.03-.07 0-.1l14.6-14.6c.02-.03.05-.03.08 0L42.64 28v.04l-5.2 5.2v.04l.02.01a310.07 310.07 0 0 0 5.16.02c.03 0 .04.01.04.04v4.01c0 .03-.01.05-.04.05h-9.3a.12.12 0 0 0-.08.04l-5.21 5.21-.01.01c-.03.02-.05.02-.08 0l-5.18-5.2v-.02a.17.17 0 0 0-.12-.04h-9.29c-.03 0-.04-.01-.04-.04v-4.02c0-.03.01-.04.04-.04h3.92l-.18-.18-3.93.01c-.04 0-.06.02-.05.06 0 .07 0 .15-.02.22.04.08.04.18 0 .28l.01 3.87c0 .03.02.04.04.04h9.4c.02 0 .03 0 .05.02l5.36 5.38c.02.03.04.03.07 0a279.22 279.22 0 0 1 3.7-3.71l1.63-1.61a.27.27 0 0 1 .19-.08h9.28c.03 0 .05-.01.05-.05v-3.79c0-.06.03-.1.07-.1-.05-.03-.06-.12-.02-.25-.05-.03-.07-.1-.06-.22 0-.03 0-.04-.04-.04l-3.94-.02Z" fill="#1089C5"/><path d="M22.02 20.18H22a.38.38 0 0 1-.13-.04c-.04-.02-.05-.06-.05-.1 0-.03.02-.04.04-.04 1.88 0 3.09 0 3.61.02.35.01.53.26.53.73l.01 2.1c0 .78-.13 1.23-.38 1.33-.72.27-1.35.7-1.87 1.28a4.13 4.13 0 0 0-1.08 3.08 4.1 4.1 0 0 0 2.25 3.36c.03.01.05.03.07.06v.03l-.03.01h-2.94c-.27 0-.51-.05-.74-.16a3.86 3.86 0 0 1-1.7-1.54 3.86 3.86 0 0 1-.52-2.75c.14-.83.52-1.53 1.13-2.1.34-.31.62-.54.87-.69l.78-.44c.2-.12.35-.28.44-.49.09-.2.13-.4.14-.6l.02-2.04v-.02c0-.27-.02-.47-.05-.6-.06-.23-.18-.36-.37-.4Z" fill="#2399D3"/><path d="M32.94 24.1c0 .03 0 .04.04.04l1.44.02c.55 0 .98.03 1.28.1.73.15 1.36.46 1.9.92.55.47.95 1.05 1.2 1.74.27.77.27 1.55-.01 2.36a3.93 3.93 0 0 1-1.4 1.92c-.82.6-1.74.91-2.75.91a799.07 799.07 0 0 0-4.55-.01v-.03a.14.14 0 0 1 .07-.07c.4-.17.7-.36.94-.58a4.25 4.25 0 0 0 1.3-2.07c.24-.83.2-1.64-.11-2.43a4.2 4.2 0 0 0-1.13-1.59 4.98 4.98 0 0 0-1.69-1 .39.39 0 0 1-.25-.24c-.13-.36-.2-.67-.2-.94-.02-.56-.03-1.28 0-2.14 0-.3.05-.5.16-.64.13-.15.32-.23.6-.24a15.9 15.9 0 0 1 1.59 0c.94.07 1.65.5 2.1 1.28.17.3.25.61.24.96a1.71 1.71 0 0 1-.34.98c-.22.31-.36.56-.43.75ZM26 27.64v-.5c0-.03.02-.07.06-.1a.22.22 0 0 1 .13-.04c.16 0 .4.02.7.05.25.03.6.04 1.08.04a4.08 4.08 0 0 0 .73-.07c.14-.01.23.04.26.17.03.14.04.28.04.43 0 .04-.03.07-.08.07h-2.86c-.04 0-.06-.02-.06-.05ZM26.02 28.65c0-.26.04-.45.1-.56a.11.11 0 0 1 .05-.04.49.49 0 0 1 .23-.05h2.2c.12 0 .22.07.3.2.06.1.1.2.1.3v3.32c0 .05-.03.1-.08.13a.26.26 0 0 1-.16.05h-2a1.2 1.2 0 0 1-.56-.1c-.13-.09-.2-.22-.2-.4 0-1.3 0-2.25.02-2.85ZM13.1 33.7c.03-.1.02-.2 0-.28h-1.03c-.03 0-.04.02-.04.05v4.76c0 .02 0 .03.02.03h10.1c.06 0 .1.02.14.05l5.65 5.67c.02.03.05.03.07 0 1.92-1.9 3.8-3.78 5.62-5.62.07-.07.13-.1.2-.1a2957.16 2957.16 0 0 0 10.14-.02c.02 0 .03 0 .03-.03v-4.74c0-.02-.01-.03-.03-.03l-1.05-.02c-.04.13-.03.22.01.26l.7.01c.02 0 .03 0 .04.02l.01.03v4.18c0 .03-.01.05-.04.05h-9.98a.14.14 0 0 0-.1.04l-5.54 5.55c-.03.02-.05.02-.07 0L22.42 38a.1.1 0 0 0-.08-.03h-9.97l-.02-.01V33.73c0-.02 0-.02.02-.02l.73-.01" fill="#3BA14B"/><path fill-rule="evenodd" d="M37.1 34.77c-.17.15-.28.34-.33.54a.96.96 0 0 0 .08.67c.15.3.4.5.76.57.29.05.59.03.9-.07.05-.02.09 0 .1.07l.1.23c.01.05 0 .09-.05.1a3.16 3.16 0 0 1-1.43.08c-.63-.11-1.01-.41-1.16-.89-.1-.35-.1-.69.03-1.02.11-.33.3-.57.57-.72a2.1 2.1 0 0 1 1.99-.14c.05.02.06.05.02.1l-.15.28c-.04.05-.08.07-.13.04-.47-.25-.9-.2-1.3.16Zm4.09-.36c.26 0 .47.12.6.36.21.38.26.77.16 1.17-.1.4-.32.68-.65.85a2.22 2.22 0 0 1-1.7.08 1.36 1.36 0 0 1-.7-.52c-.17-.28-.24-.61-.18-1.01.05-.35.22-.64.5-.88.25-.2.53-.33.85-.39.02 0 .03.01.03.04v.05a2.4 2.4 0 0 1-.05.35.79.79 0 0 1-.15.33l-.1.1c-.12.14-.2.26-.24.35a.8.8 0 0 0-.06.49c.09.48.3.76.65.85a.7.7 0 0 0 .73-.2c.2-.2.31-.48.33-.85a.55.55 0 0 0-.08-.33c-.04-.06-.1-.15-.21-.25a1.8 1.8 0 0 1-.2-.23.66.66 0 0 1-.13-.3 2.95 2.95 0 0 0-.07-.43c-.01-.04 0-.05.02-.03.11.05.22.08.32.1.14.01.24.1.28.27.01.02.02.03.05.03Zm-23.24-.4-.6-.01c-.03 0-.05.03-.05.07v2.86c0 .04.02.07.05.07h.6c.02 0 .05-.03.05-.07v-2.85c0-.05-.02-.08-.05-.08Zm2.66.03c.04.12.06.24.06.35 0 .1.05.22.13.35a3.6 3.6 0 0 0 .37.5c.1.11.11.3.07.53-.04.21-.1.39-.2.52a.79.79 0 0 1-.42.34.71.71 0 0 1-.48-.02.85.85 0 0 1-.41-.33 1.15 1.15 0 0 1-.19-.61c0-.2.04-.36.13-.47l.36-.45c.07-.1.12-.26.14-.5l.02-.16c.01-.04 0-.06-.03-.06-.4.05-.73.22-.99.49-.3.31-.44.71-.39 1.2a1.31 1.31 0 0 0 1.1 1.22c.43.1.83.08 1.22-.04.49-.16.78-.47.89-.95.07-.35.06-.66-.03-.95-.1-.32-.28-.52-.53-.6a.88.88 0 0 1-.32-.2 1 1 0 0 0-.4-.18 2.2 2.2 0 0 1-.07-.02c-.03 0-.04 0-.03.04Zm7.42 1.66H28v1.25c0 .03.05.05.07.05h.63c.04 0 .06-.03.06-.08v-2.86c0-.04-.02-.06-.05-.06h-.6c-.05 0-.11.03-.11.1V35.24h-1.29c-.02 0-.03-.01-.03-.04v-1.16c0-.03 0-.04-.02-.04-.29 0-.53 0-.72.04-.03 0-.05.02-.07.06 0 .03 0 .05.02.06.06.05.1.15.11.3v2.5c0 .02 0 .04.02.04h.63c.03 0 .04-.02.04-.07v-1.2c0-.03.01-.04.03-.04l1.3.01Zm7.09.06a.96.96 0 0 0-.3-.2c-.02 0-.03-.01-.03-.03 0-.02.01-.03.03-.03.15-.03.3-.1.4-.19a.65.65 0 0 0 .25-.43c.04-.27-.07-.49-.33-.66-.2-.14-.42-.21-.65-.22-.57 0-1.1.01-1.6.06-.02 0-.03.02-.04.04-.01.05 0 .08.04.12l.03.02.06.07c.02.02.03.06.03.12v2.52c0 .03 0 .05.03.05h.64c.04 0 .05-.02.05-.07v-1c0-.06.03-.09.07-.1.29-.02.5.04.63.19.08.1.18.33.3.7l.06.22c.01.03.03.04.05.04h.7c.04 0 .05-.01.03-.05-.09-.23-.18-.5-.26-.8a.86.86 0 0 0-.2-.37Zm-1.3-1.37c-.05 0-.07.03-.07.08v.86c0 .05.01.08.05.08h.15c.22 0 .4-.04.57-.13.15-.1.23-.2.23-.34v-.04c0-.14-.07-.26-.23-.35-.15-.1-.34-.15-.57-.16h-.14Zm-10.1 1.47c-.01 0-.02 0-.02.02v1.1c0 .01 0 .02-.02.02h-.63c-.03 0-.05-.02-.05-.07V34.1c0-.02 0-.03.03-.04l.88-.05c.55-.04.96.05 1.24.27.13.1.23.25.27.43.05.18.04.37-.03.54-.16.4-.5.62-1.03.67-.28.02-.5 0-.64-.06Zm0-1.33c0-.04.01-.07.03-.1.02-.02.04-.03.07-.03h.27c.17.01.32.07.44.17.12.11.18.24.17.39 0 .15-.06.28-.18.38a.65.65 0 0 1-.45.15h-.26a.09.09 0 0 1-.07-.05.15.15 0 0 1-.03-.1l.01-.81Zm6.31-.26c.03.02.03.05.02.08l-.93 2.6c0 .03 0 .05.02.05h.7c.02 0 .03-.01.03-.03l.25-.68c.01-.04.04-.06.07-.06a13.23 13.23 0 0 1 .8-.01c.1-.01.16.04.2.15l.21.57c.02.04.05.06.08.06h.7c.01 0 .02 0 .02-.02v-.04l-.98-2.84c-.02-.07-.06-.1-.11-.1h-1.22c-.11 0-.12.07-.02.15l.16.12Zm.57.28-.34 1.16v.04l.04.02.7-.02c.01 0 .02 0 .03-.02v-.04l-.37-1.14c0-.02-.02-.03-.03-.03-.02 0-.03.01-.03.03Zm-14.76.88c.06.03.12.03.17 0 .02 0 .05-.03.08-.07.06-.07.12-.08.18-.03l.05.03c.2.15.32.27.4.37.12.16.16.33.12.52a.74.74 0 0 1-.3.44c-.13.1-.28.17-.44.2a3.8 3.8 0 0 1-1.76 0c-.02 0-.03-.01-.03-.04 0-.7.01-1.45 0-2.24 0-.28-.1-.43-.3-.46v-.01l-.01-.02c.05 0 .11 0 .19-.03l.13-.02 1.04-.07c.25-.01.47.02.68.08.3.1.5.25.6.47.13.25.02.5-.3.74a.05.05 0 0 1-.06 0c-.06-.04-.12-.04-.18.02a.1.1 0 0 1-.05.03l-.2.06c-.04 0-.04.02 0 .03Zm-.8-.4a8.98 8.98 0 0 1 0 .18l.1-.01c.42-.07.68-.16.78-.29.05-.06.06-.13.03-.21-.05-.14-.16-.23-.34-.28a1.14 1.14 0 0 0-.41-.02.06.06 0 0 0-.05.03c-.06.1-.1.3-.12.6Zm.03.68a.22.22 0 0 0-.04.14l.01.53c0 .05.02.1.05.14.03.04.06.05.1.05h.3c.16-.01.3-.06.4-.16a.4.4 0 0 0 .16-.33.4.4 0 0 0-.17-.33.63.63 0 0 0-.41-.12l-.3.02c-.04 0-.07.02-.1.06Z" fill="#3BA14B"/></svg>