<!-- by TradingView --><svg width="56" height="56" viewBox="0 0 56 56" xmlns="http://www.w3.org/2000/svg"><path fill="#F0F3FA" d="M0 0h56v56H0z"/><path fill-rule="evenodd" d="M48.96 27.8 28.15 16.03a.26.26 0 0 0-.28 0L7.24 27.84a.27.27 0 0 0-.14.24c0 .11.05.2.15.25l20.77 11.63c.09.05.18.05.27 0L48.96 28.3c.1-.05.14-.13.14-.25 0-.1-.05-.2-.14-.25Zm-.88.17-19.8-11.1a.17.17 0 0 0-.11-.01c-.16.02-.31.06-.46.13-.9.42-2.6 1.34-5.12 2.76-6.08 3.45-10.86 6.17-14.36 8.19a.1.1 0 0 0-.05.1c0 .04.03.07.06.09.27.11.67.34 1.2.67l.52.3c2.88 1.6 6.12 3.43 9.7 5.5.63.36 1.31.75 2.05 1.15l2.33 1.31a183.67 183.67 0 0 0 4.05 2.22c.07.01.14 0 .23-.04a12 12 0 0 0 .6-.3c1.37-.8 2.46-1.42 3.26-1.86.78-.43 1.47-.81 2.04-1.15 1.46-.86 3.39-1.95 5.78-3.3.5-.27 1.24-.7 2.22-1.26 1.32-.75 2.28-1.3 2.88-1.62.64-.35 1.63-.9 2.98-1.68a.05.05 0 0 0 .03-.05.06.06 0 0 0-.03-.05Z" fill="#0B83A5"/><path d="M22.42 19.62a37.11 37.11 0 0 0-2.39 1.32.43.43 0 0 1-.1.02c-.11 0-.12-.03-.03-.08l8-4.64c.09-.05.15-.03.17.07v.03c.02.1-.01.18-.1.22a177.91 177.91 0 0 0-5.55 3.06Z" fill="#81EFF6"/><path d="M19.66 35.04c-.5-.3-.91-.53-1.26-.71-1.17-.63-2.35-1.3-3.53-1.97-.46-.27-1.5-.84-3.14-1.74l-3.19-1.75a23 23 0 0 1-1.24-.75c-.02-.02-.03-.04-.02-.06 0-.02.03-.04.05-.05l.06-.01h.02c.08.04.2.07.34.1.19.03.33.08.43.15.28.2.71.47 1.3.8a574.74 574.74 0 0 1 8.9 5.06 10.05 10.05 0 0 1 .82.46 192.5 192.5 0 0 0 5.69 3.26c.14.11.25.19.33.22.12.05.4.2.84.45.04.03.09.04.14.04l.1.05 1.69.9c.14.08.27.07.4-.03.12-.09.2-.15.28-.18l.31-.16 1.35-.76.63-.38a30.54 30.54 0 0 0 2.25-1.25l.52-.3c.24-.11.42-.21.53-.3.15-.1.39-.24.7-.4.22-.1.45-.24.7-.38l4.25-2.41 1.96-1.14c.33-.2.8-.47 1.43-.81l1.21-.69a68.95 68.95 0 0 1 3.94-2.15c.24.01.27-.05.07-.2a4.74 4.74 0 0 0-.4-.27l-2.04-1.18c-.35-.2-.75-.42-1.2-.65-.42-.2-.8-.43-1.18-.67a.27.27 0 0 0-.1-.04.38.38 0 0 1-.2-.1 56.76 56.76 0 0 1-15.14-8.42.21.21 0 0 1-.1-.13c-.02-.09-.02-.14 0-.16.05-.06.1-.07.16-.04.34.16.85.46 1.56.89.4.24.97.56 1.7.97.79.44 1.38.78 1.77 1.03.37.23 1 .6 1.92 1.12 1.68.94 3.38 1.92 5.1 2.92.28.16.78.44 1.5.82l1.39.76a208.24 208.24 0 0 0 3.17 1.76c1.05.6 1.83 1.02 2.33 1.27.07.03.1.1.1.17 0 .08-.03.14-.1.18a615.66 615.66 0 0 0-7.26 4.03c-.24.12-.58.32-1.02.58l-.98.56a94.43 94.43 0 0 0-4.15 2.37c-.78.45-1.34.79-1.7 1.02-.07.05-.2.11-.4.2l-.4.2c-.48.32-.97.61-1.47.9-.18.1-.69.38-1.51.86-.51.3-1.03.56-1.55.8a.4.4 0 0 1-.38-.01l-2.02-1.1c-.17-.08-.34-.2-.5-.33a.28.28 0 0 0-.12-.05.3.3 0 0 1-.15-.06 5.77 5.77 0 0 0-.85-.51 110.17 110.17 0 0 1-2.23-1.26l-1.14-.64a.26.26 0 0 0-.12-.03.3.3 0 0 1-.07 0 .16.16 0 0 1-.07-.05c-.1-.1-.24-.2-.44-.3a18.97 18.97 0 0 0-.57-.33Z" fill="#81EFF6"/><path d="M27.44 25v.1c-.19.09-.38.15-.6.17-.1.02-.16.1-.13.22.08.5.1.99.03 1.47l.04 3.5a.78.78 0 0 0-.02.04c-.02.04-.01.06.02.06.18.04.3.05.38.05.94-.02 1.88-.02 2.83.01.13 0 .21-.06.23-.21a.46.46 0 0 1 .21-.03c.03.38-.14.64-.5.62h-3.4c-.04 0-.07 0-.08-.06-.03-.09-.03-.25-.01-.49v-.2l-.05-4.82c0-.17.11-.3.34-.36a2.52 2.52 0 0 1 .71-.07Z" fill="#0B83A5"/><path d="M30.43 30.38c-.07 0-.14 0-.21.03l.03-.4c0-.04-.01-.06-.03-.08a.06.06 0 0 0-.08 0 1.2 1.2 0 0 0-.33.3.2.2 0 0 1-.1.06c-.22.08-.47.11-.75.11l-2.18.05-.04-3.49c.3.13.58.16.85.08.04 0 .06-.04.06-.08l.06-1.68a.16.16 0 0 0-.04-.12.21.21 0 0 0-.23-.07V25c.36-.02.55.15.56.53 0 0-.03 1.94 0 3.51 0 .14.08.26.1.38.01.05.04.07.09.07h1.94c.05 0 .08.02.12.05.21.22.28.5.18.84Z" fill="#03A6CD"/><path d="M27.44 25.1c.09-.03.17 0 .23.06.03.03.04.07.04.12l-.06 1.68c0 .04-.02.07-.06.08-.27.08-.55.05-.85-.08.06-.48.05-.97-.03-1.47-.03-.13.02-.2.14-.22.2-.02.4-.08.6-.18Z" fill="#B3E3F3"/><path d="M24.76 27.58a.29.29 0 0 1-.02-.15c0-.04.05-.1.12-.17a.71.71 0 0 0 .1-.1c.18-.31.24-.66.15-1.04a1.11 1.11 0 0 0-.57-.8 1.91 1.91 0 0 0-.74-.13 31.5 31.5 0 0 0-2.43.01c-.08 0-.12.06-.11.15l.09 1.65c-.08.34-.1.69-.1 1.02l.11 2.36-.07.14c-.02.05 0 .07.04.08.99.06 1.96.07 2.92.03.26-.02.49-.12.7-.33.32-.22.46-.6.43-1.14l-.09-.95c.25.4.35.85.29 1.32-.06.49-.28.86-.65 1.12a3.72 3.72 0 0 1-1.5.32l-2.08.02c-.16 0-.35-.13-.35-.3v-5.43c0-.15.06-.22.19-.23.93-.04 1.88-.04 2.85 0 .27 0 .52.08.75.23a1.46 1.46 0 0 1 .64 1.35c-.02.3-.13.57-.32.83-.08.12-.2.16-.35.14Z" fill="#0B83A5"/><path d="M24.95 27.15a.78.78 0 0 1-.57.08c-.08-.01-.12-.07-.12-.17-.02-.28-.1-.53-.25-.74a.82.82 0 0 0-.62-.38 3.97 3.97 0 0 0-.97.01c-.04 0-.07.03-.1.08-.1.24-.15.48-.15.71 0 .13-.06.2-.17.2l-.65.06-.1-1.65c0-.1.04-.14.12-.15.8-.03 1.62-.03 2.43 0 .35 0 .6.05.74.12.3.15.49.42.57.8.09.38.03.73-.16 1.03Z" fill="#B3E3F3"/><path d="M24.86 27.26a.72.72 0 0 0 .1-.1.78.78 0 0 1-.58.07c-.08-.01-.12-.07-.13-.17-.01-.28-.1-.53-.24-.74a.82.82 0 0 0-.62-.38 3.97 3.97 0 0 0-.97.01c-.04 0-.07.03-.1.08-.1.24-.15.48-.15.71 0 .13-.06.2-.17.2l-.65.06c-.08.34-.1.69-.1 1.02l.11 2.36a.18.18 0 0 1 .04-.05c.03-.03.06-.03.1 0 .07.05.12.08.17.08l1.5.07c.23.02.53 0 .89-.05l.9-.13c.3-.22.45-.6.42-1.14l-.09-.95-.57-.55c-.02-.03-.02-.05 0-.07l.04-.01a.29.29 0 0 1-.02-.15c0-.04.05-.1.12-.17Zm-2.3-.98c0-.06.03-.09.08-.1l.64-.02c.15 0 .29.04.4.14.1.1.17.23.17.37v.08c0 .14-.04.27-.15.38-.1.11-.23.17-.38.17l-.65.03c-.04 0-.07-.02-.07-.08l-.03-.97Zm0 2.32c0-.1.04-.14.12-.15l.6-.01c.21-.01.4.04.56.14.16.11.24.24.24.4v.04c0 .16-.07.3-.22.41a.97.97 0 0 1-.56.18l-.6.02c-.08 0-.12-.04-.12-.13l-.02-.9Z" fill="#03A6CD"/><path d="m32.54 26.34.08.85c0 .05.03.07.07.07l1.36.01c.2.01.33.04.41.1.1.08.16.22.17.43.01.25 0 .44-.04.56-.06.17-.2.26-.38.27-.33 0-.85 0-1.55-.02-.05 0-.07.02-.07.08v1.97c0 .1-.03.18-.09.24a.26.26 0 0 1-.2.1h-1.05a.23.23 0 0 1-.18-.09.3.3 0 0 1-.07-.2v-5.36c0-.23.1-.35.3-.35h3.26c.3 0 .44.17.44.51v.3c0 .3-.13.46-.4.46H32.6c-.04 0-.06.02-.05.07Z" fill="#0B83A5"/><path d="m32.19 27.09-.85.08-.1-1.8c0-.1.04-.16.13-.16h3.17c.2 0 .28.11.26.34l-.02.14c-.03.22-.13.32-.32.31l-2-.09c-.13 0-.2.07-.2.2l-.07.98Z" fill="#B3E3F3"/><path d="M32.19 27.09c.13.83.07 1.38-.2 1.63a.14.14 0 0 0-.03.12l.06 1.63c-.33-.15-.6-.1-.81.14l.13-.25a.08.08 0 0 0-.01-.1c-.05-.05-.07-.1-.06-.16.04-.31.01-.8-.09-1.46-.07-.47-.02-.96.16-1.47l.85-.08Z" fill="#03A6CD"/><path d="m34.22 27.77-1.52-.04c-.04 0-.08.04-.09.1v.3c0 .06.03.1.08.1l1.52.05c.05 0 .09-.04.09-.1v-.3c0-.06-.03-.1-.08-.1ZM32.02 30.47c.03-.02.07 0 .12.03.04.03.05.07.03.12-.01.04-.04.06-.08.06l-.88-.07c.21-.24.48-.29.81-.14Z" fill="#B3E3F3"/></svg>