<!-- by TradingView --><svg width="56" height="56" viewBox="0 0 56 56" xmlns="http://www.w3.org/2000/svg"><path fill="#F0F3FA" d="M0 0h56v56H0z"/><path fill-rule="evenodd" d="M18.22 18.87a1.9 1.9 0 0 1-1.26-.3c-.22-.17-.5-.53-.83-1.08l.01-.06c.02-.02.04-.02.06 0l.62.35h.05c.03-.01.05-.03.05-.04.02-.03.02-.05 0-.07-.66-.54-.9-1.27-.73-2.2.01-.05.03-.1.06-.1.05-.03.08-.02.08.04v.25c0 .02.01.03.03.03h.08c.03 0 .05-.01.05-.05a5.4 5.4 0 0 1 1.94-4.36c.16-.14.2-.12.1.07-.94 1.82-1.3 3.34-1.07 4.57.06.33.28.57.66.7.33.12.67.13 1.02.03 1.62-.44 3.1-1.15 4.43-2.11.25-.18.61-.49 1.1-.93a8.83 8.83 0 0 1 1.78-1.36 2.62 2.62 0 0 1 2.2-.1c.66.25.9.7.73 1.34-.14.5-.46.98-.96 1.45-.07.06-.05.1.04.11.32.04.97-.21 1.96-.76.2-.11.34-.2.44-.24.58-.32 1.4-.89 2.46-1.72.51-.4.88-.68 1.12-.84.56-.4 1.11-.55 1.66-.47.59.09 1.01.45 1.27 1.08.19.44.15.97-.13 1.58-.24.53-.57.97-1 1.3-.26.21-.54.33-.83.35a3.51 3.51 0 0 1-1.04-.15.4.4 0 0 0-.24 0 155.38 155.38 0 0 1-8.56 3.52c-.45.17-.89.25-1.32.22-.61-.04-.79-.35-.53-.94.16-.35.33-.68.53-.99.06-.1.05-.19-.04-.27-.1-.1-.23-.12-.4-.06-.46.15-1.08.63-1.86 1.46-.34.35-.57.57-.71.68a3 3 0 0 1-1.08.47c-.12.03-.16 0-.1-.12a.75.75 0 0 1 .28-.31c.02-.02.03-.04.02-.07-.02-.03-.04-.04-.07 0-.64.55-1.43.7-2.38.47-.1-.02-.1-.06-.02-.13.1-.08.22-.13.34-.16.02 0 .03-.02.03-.04 0-.03-.02-.04-.04-.04Zm9.1-5.2c.11.13.12.33.02.58-.1.26-.29.49-.55.7a1.8 1.8 0 0 1-.8.4c-.26.05-.46 0-.57-.13-.12-.15-.13-.34-.03-.6.1-.25.29-.48.55-.7.26-.21.53-.34.8-.4.26-.05.45 0 .57.14Zm-6.64 1.82c-.15.09-.4.2-.72.36-.14.06-.35.06-.63 0a3.36 3.36 0 0 0-.32-.05.3.3 0 0 1-.23-.15.29.29 0 0 1-.02-.27l.67-1.72c.02-.07.01-.07-.04-.02-.34.34-.6.77-.8 1.27-.16.41-.14.76.04 1.05.2.3.54.4 1 .28 1.38-.35 2.68-.98 3.9-1.9.36-.25.56-.54.62-.86.04-.26 0-.27-.12-.04-.2.39-.43.6-.68.64a.38.38 0 0 0-.2.1l-.49.5a.24.24 0 0 1-.2.07c-.2-.02-.45.1-.77.36-.33.26-.59.38-.79.35a.34.34 0 0 0-.22.03Zm6.13-.75c.37-.3.52-.72.34-.94-.18-.23-.63-.17-1 .12-.37.3-.52.72-.34.94.18.23.63.17 1-.12Zm-5.3 28.52c-.54-.5-1.22-.69-2.03-.56-.1.02-.12.07-.09.15.01.04.03.07.07.1.03.03.07.05.1.06.78.15 1.4.46 1.89.94.1.1.14.24.1.38a.36.36 0 0 1-.3.26l-.17.02c-.23.03-.4.07-.5.1-.52.22-.91.31-1.18.29-.58-.06-.6-.19-.03-.39l.81-.28c.18-.07.23-.22.16-.44a.2.2 0 0 0-.18-.16.2.2 0 0 0-.22.11c-.26.44-.56.62-.9.56-.1-.02-.26-.14-.46-.36a2 2 0 0 0-.75-.45 1.93 1.93 0 0 1-.82-.54c-.06-.07-.03-.11.07-.12a1 1 0 0 1 .37.14c.07.03.14.04.22.03a1 1 0 0 1 1.06.5c.04.07.1.1.18.1a.2.2 0 0 0 .18-.1c.07-.13.06-.25-.04-.37-.21-.24-.67-.42-1.37-.52a2.2 2.2 0 0 1-.87-.24 1.86 1.86 0 0 1-.78-1.92c.03-.17.09-.18.17-.03.33.65.85.97 1.55.97.38 0 .65.02.81.08.2.07.4.23.58.48.06.06.11.1.17.13.11.03.19.03.22-.01.14-.17.12-.32-.07-.46a2.65 2.65 0 0 0-1.25-.56c-.12-.01-.13-.06-.04-.13.24-.2.57-.23 1-.12.7.18 1.13.52 1.32 1.03.03.08.08.11.17.1.07 0 .1-.06.12-.16.02-.26-.09-.53-.33-.83-.19-.23-.28-.43-.29-.59 0-.07.03-.09.1-.05l.28.16c.07.04.14.06.22.06.55.04.93.36 1.14.98a6.55 6.55 0 0 1 .2 1.8c.01.11.06.17.16.2 1.16.25 2.11.3 2.85.17.68-.13 1.32-.27 1.91-.43.37-.1.36-.18 0-.25a5.4 5.4 0 0 1-1.38-.58c-.16-.09-.15-.15.03-.18.16-.03.4-.02.7.03.71.13 1.28.17 1.7.14a3.32 3.32 0 0 0 1.26-.25c.7-.4.63-.59-.19-.55-.19.01-.45-.08-.78-.27-.12-.07-.11-.1.03-.1 1.09.1 1.94-.35 2.56-1.35.07-.11.04-.15-.09-.11-.31.1-.67.12-1.07.05-.04 0-.07-.03-.07-.07 0-.04.01-.07.05-.09a6.56 6.56 0 0 0 1.65-.91c.58-.44.97-.92 1.17-1.42.28-.69.16-.76-.35-.22-.44.46-1 .81-1.7 1.05-.3.1-.35.04-.14-.2 1.24-1.36 1.78-2.36 1.61-2.98a2.66 2.66 0 0 0-.8-1.32c-.13-.11-.23-.1-.31.05a2.34 2.34 0 0 0-.26 1.61c.05.25 0 .27-.14.06a4.32 4.32 0 0 1-.6-1.16l-.84-2.97c-.05-.18-.1-.18-.15 0l-.06.3v2.03c0 .14-.04.15-.11.03a13.6 13.6 0 0 1-1.12-2.55c-.17-.52-.49-.9-.96-1.11a.12.12 0 0 0-.12 0 .11.11 0 0 0-.05.12l.28 1.76c0 .05 0 .06-.04.02-.5-.6-.8-.99-.88-1.17-.35-.77-.79-1.48-1.3-2.12-.18-.24-.23-.21-.15.08l.51 1.82c0 .02 0 .04-.02.05-.02 0-.04 0-.06-.02-1.17-1.39-1.84-2.49-2.01-3.3-.14-.64-.23-1.22-.27-1.74-.05-.51-.14-.52-.29-.03-.17.55-.23 1.1-.19 1.66.02.27-.01.28-.1.01a7.3 7.3 0 0 1-.33-1.91c-.02-.45.09-.93.33-1.44a11.04 11.04 0 0 1 .9-1.49c.16-.24.11-.28-.14-.14-.16.09-.38.24-.64.44-.3.24-.55.4-.73.46-.29.1-.64.09-1.04-.03-.14-.04-.14-.09 0-.14l.82-.32c.04-.01.05-.04.04-.07l-.01-.1c0-.05-.03-.07-.07-.05-.68.28-1.32.36-1.93.22-.34-.07-.34-.15 0-.24a3 3 0 0 0 .74-.32c.01 0 .02-.02.01-.03v-.08c-.02-.07-.06-.09-.12-.07-.57.2-1.1.24-1.58.09-.14-.04-.14-.09 0-.14.16-.05.26-.12.3-.2.05-.07.02-.12-.07-.14-.45-.1-.85-.35-1.19-.76-.08-.1-.06-.12.05-.07a2 2 0 0 0 .42.14c.33.04.38-.06.18-.28a2.4 2.4 0 0 1-.36-.63.06.06 0 0 1 .02-.07c.02-.03.04-.03.07-.02 2.08.72 4.15.74 6.22.08 1.29-.41 2.38-.84 3.3-1.29.6-.3 1.26-.57 1.94-.8.18-.07.41-.22.71-.45.9-.69 2.4-1.1 4.52-1.22a9.53 9.53 0 0 0 1.7-.21c.5-.13 1-.34 1.47-.64.44-.28.49-.22.16.16-.3.36-.83.65-1.57.88-.63.2-1.23.3-1.79.31-1.27.02-2.26.1-2.97.23-.52.1-.97.28-1.36.55-.19.13-.17.16.05.09a13.8 13.8 0 0 1 4.24-.7c.41 0 .88.12 1.41.36.64.28.94.61.9.99-.13.9-.5 1.63-1.13 2.21a.17.17 0 0 1-.2.03 6.93 6.93 0 0 0-2.91-.65c-1.24 0-2.38.15-3.42.48-1.47.45-2.28 1.15-2.41 2.09-.13.88.16 1.72.87 2.54a5.54 5.54 0 0 0 2.3 1.58c2.16.81 3.87 1.7 5.1 2.69a8.1 8.1 0 0 1 3.05 4.7 8.14 8.14 0 0 1-.03 3.55c-.16.7-.69 1.65-1.6 2.85-2.23 2.97-4.96 4.5-8.17 4.61-1.92.06-3.8-.2-5.61-.8a5.1 5.1 0 0 1-1.32-.78c-.07-.05-.06-.08.03-.08.12 0 .24.05.37.12.06.04.07.03.02-.02Zm4.88 1a10.71 10.71 0 0 0 5.96-2.63 7.11 7.11 0 0 0 2.39-5.9c-.1-1.71-.83-3.1-2.18-4.2a7.93 7.93 0 0 0-2.2-1.14 28.82 28.82 0 0 1-3.87-1.7 4.24 4.24 0 0 1-2.37-4.41c.16-1.64 1.06-3.34 2.71-5.1.03-.04.06-.04.07-.01.02.04.02.06.01.07a17.66 17.66 0 0 0-1.95 3.57c-.16.41-.26 1-.3 1.74-.1 1.9.9 3.25 3.04 4.06l1 .37A18.9 18.9 0 0 1 33 31a5.65 5.65 0 0 1 2.38 4 8.1 8.1 0 0 1-3.45 7.81 8.71 8.71 0 0 1-5.54 1.54c-.02 0-.04 0-.04-.03-.01-.03 0-.05.04-.05Z" fill="#EAAE20"/></svg>