<!-- by TradingView --><svg width="56" height="56" viewBox="0 0 56 56" xmlns="http://www.w3.org/2000/svg"><path fill="#F0F3FA" d="M0 0h56v56H0z"/><path d="m28 34.89 4.66-6c.1-.12.18-.11.26.01l.1.15c.08.13.07.25-.03.37l-4.14 5.33a.13.13 0 0 0-.02.15c.03.06.07.08.13.08 5.55.02 10.55.01 15-.01.19 0 .71 0 1.58.03.58.01 1.1-.02 1.57-.09.42-.06.72-.31.88-.76a.2.2 0 0 0-.01-.17 2.25 2.25 0 0 0-.15-.26l-13.56-17.4a.56.56 0 0 0-.26-.2c-.76-.24-1.33-.12-1.7.37l-14.27 18.4a.06.06 0 0 0 0 .07c.01.02.03.03.05.03h9.7c.09 0 .15-.04.2-.1ZM22.93 16.1a1.5 1.5 0 0 0-.63-.08c-.22.06-.37.12-.46.17-.13.07-.26.19-.39.36l-13.2 17c-.19.25-.27.5-.25.74.03.27.19.46.48.55.31.1.55.16.71.16h8.05c.08 0 .14-.03.2-.1l10.12-13.02c.04-.06.04-.11 0-.17-2.5-3.2-3.82-4.87-3.95-5.03-.28-.34-.51-.53-.68-.58Z" fill="#00F"/></svg>