<!-- by TradingView --><svg width="56" height="56" viewBox="0 0 56 56" xmlns="http://www.w3.org/2000/svg"><path fill="#F0F3FA" d="M0 0h56v56H0z"/><path d="M28.84 13.4c-4.04 2.45-5.83 4.99-5.84 9.7v19.77c0 .09.05.13-.04.13h-6.73c-.11 0-.23-.06-.23-.17V21.06c.01-.8.3-1.65.83-2.56a10.5 10.5 0 0 1 5.1-4.54 12.92 12.92 0 0 1 6.85-.83c.27.04.3.12.06.26Z" fill="#009049"/><path d="M32.88 19.44c1.11-.5 1.54-1.35 1.3-2.54a8.88 8.88 0 0 0-1.38-2.81c-.09-.13-.06-.17.09-.12 4.13 1.37 6.55 3.5 7.27 6.36.49 1.97.45 3.77-.11 5.41a6.17 6.17 0 0 1-3.68 3.86 7.62 7.62 0 0 1-4.81.4 5.11 5.11 0 0 1-3.65-3.05 5.83 5.83 0 0 1-.4-2.56c.04-1.09.3-1.9.79-2.45.38-.43.89-.82 1.54-1.16.39-.22 1.01-.5 1.88-.85.52-.21.9-.38 1.16-.5Z" fill="#EB3D00"/><path d="M27.12 42.41a17.7 17.7 0 0 0 3.16-2.29C31.51 39 31.91 37.49 32 35.6c.04-.94.03-2.47 0-4.58 0-.13.33-.19.47-.16 1.8.28 3.38 0 4.74-.81a11.86 11.86 0 0 0 2.49-2.44c.16-.18.24-.15.24.09.05 3.45.07 5.92.05 7.4-.02 2.4-1.81 4.53-5.37 6.38-1.5.77-3.31 1.16-5.46 1.18-.97.01-1.64-.01-2-.07-.2-.02-.21-.08-.04-.18Z" fill="#009049"/></svg>