<!-- by TradingView --><svg width="56" height="56" fill="none" xmlns="http://www.w3.org/2000/svg"><path fill="#F0F3FA" d="M0 0h56v56H0z"/><path fill-rule="evenodd" clip-rule="evenodd" d="M14 44V12h28v32H14Zm27-1V13H15v30h26Z" fill="#EC2029"/><path d="M27.5 35H23v-.896l-6.07-3.486a1.525 1.525 0 0 1-.661-1.896l3.697-9.255 1.318 1.848c.483.676.623 1.544.38 2.342l-.895 2.924c-.284.929.19 1.922 1.082 2.27l5.047 1.966c.521.203.602.713.602 1.28V35ZM28.5 35H33v-.896l6.256-3.486c.661-.37.945-1.185.661-1.896l-3.698-9.255-1.318 1.848a2.687 2.687 0 0 0-.379 2.342l.895 2.924c.283.929-.19 1.922-1.082 2.27l-5.047 1.966c-.521.203-.788.713-.788 1.28V35Z" fill="#0E8742"/><path d="M34 24.783C34 27.664 31.314 30 28 30s-6-2.336-6-5.217C22 21.9 28 15 28 15s6 6.269 6 9.783Z" fill="#EF377F"/><path fill-rule="evenodd" clip-rule="evenodd" d="M15 36h26v7H15v-7Zm4.052 4.731v.145h1.21v-.145h-.284a.189.189 0 0 1-.17-.263l.177-.426h1.023l.182.424a.189.189 0 0 1-.17.265h-.162v.145h1.437v-.145h-.103a.186.186 0 0 1-.17-.111L20.86 38h-.261l-1.286 2.626a.186.186 0 0 1-.166.105h-.094Zm1.852-.93h-.818l.403-.963.415.964ZM16 38.105v.184h.293a.14.14 0 0 1 .14.142v2.182a.14.14 0 0 1-.14.142H16v.14h2.018c.071 0 .916-.03.916-.722 0-.554-.659-.726-.988-.743.293.002.879-.124.879-.654s-.449-.668-.673-.67H16Zm1.152 1.267v-.848c0-.13.104-.236.232-.236h.243c.256 0 .464.21.464.471 0 .338-.27.613-.603.613h-.336Zm0 .193v.928c0 .143.114.259.254.259h.266c.28 0 .507-.231.507-.516 0-.37-.295-.671-.66-.671h-.367Zm6.92 1.433c.848 0 1.536-.67 1.536-1.498S24.92 38 24.073 38c-.848 0-1.535.671-1.535 1.499 0 .827.687 1.498 1.535 1.498Zm0-.257c.405 0 .734-.556.734-1.241 0-.686-.329-1.242-.733-1.242-.405 0-.733.556-.733 1.242 0 .685.328 1.241.733 1.241Zm3.103.154v-.166h.13c.153 0 .278-.127.278-.284v-1.9a.281.281 0 0 0-.279-.283h-.129v-.235h1.354l.612 1.741.64-1.741h1.305v.235h-.163a.281.281 0 0 0-.28.283v1.9c0 .157.126.284.28.284h.163v.166h-1.544v-.166h.122c.154 0 .28-.127.28-.284v-2.08l-.926 2.53h-.244l-.912-2.53v2.08c0 .157.125.284.28.284h.203v.166h-1.17Zm4.188-.18v.167h1.598v-.167h-.205a.235.235 0 0 1-.233-.236v-1.975c0-.13.105-.236.233-.236h.205v-.227h-1.673v.227h.238c.128 0 .233.106.233.236v1.975c0 .13-.105.236-.233.236h-.163Zm1.791.166v-.162c.231 0 .42-.19.42-.425v-1.751a.281.281 0 0 0-.279-.284h-.141v-.214h1.063l1.568 1.807v-1.168a.422.422 0 0 0-.418-.425h-.019v-.214h1.156v.214h-.01a.422.422 0 0 0-.419.425v2.197h-.323l-1.88-2.152v1.565c0 .235.188.425.42.425h.03v.162h-1.168Zm5.264-2.83v.192h.17c.128 0 .232.106.232.236v.848h-1.08v-.848c0-.13.104-.236.233-.236h.2v-.191h-1.581v.19h.169c.128 0 .232.107.232.237v1.938c0 .131-.104.237-.232.237h-.17v.23h1.582v-.23h-.2a.234.234 0 0 1-.233-.237v-.787h1.08v.787c0 .13-.104.237-.233.237h-.169v.23H40v-.23h-.2a.235.235 0 0 1-.233-.237v-1.938c0-.13.104-.236.233-.236h.2v-.192h-1.582Z" fill="#EC2029"/></svg>