<!-- by TradingView --><svg width="56" height="56" viewBox="0 0 56 56" xmlns="http://www.w3.org/2000/svg"><path fill="#F0F3FA" d="M0 0h56v56H0z"/><path d="m8.02 35.87 14.41-19.82c.05-.07.1-.07.14 0l14.41 19.82c.02.02.03.05.01.08a.08.08 0 0 1-.07.05H8.08a.08.08 0 0 1-.07-.05.08.08 0 0 1 0-.08ZM42.86 20H41.2c-.14 0-.21-.05-.21-.19v-.66c0-.05-.02-.04-.05-.02-.02 0-.06.03-.1.02-3.36-.17-6.58.17-9.65 1.05-.23.06-.25.02-.07-.12.27-.22.58-.4.92-.54a21.96 21.96 0 0 1 7.16-1.83c1.6-.11 3.74-.14 6.4-.07.27 0 .4.13.4.38v1.6c0 .25-.14.38-.4.38h-1.26c-.04 0-.06.02-.06.05v12.3c0 .24-.07.27-.21.08L43.09 31a.45.45 0 0 1-.1-.28V20.15c0-.09-.04-.15-.13-.15Zm-8.42 2.06-3.42 4.53c-.03.05-.03.09 0 .13l6.95 9.24a.1.1 0 0 0 .09.04h6.82c.05 0 .08-.02.1-.06a.1.1 0 0 0 0-.11L34.63 22.06c-.06-.08-.12-.08-.19 0Z" fill="#006599"/></svg>