<!-- by TradingView --><svg width="56" height="56" viewBox="0 0 56 56" xmlns="http://www.w3.org/2000/svg"><path fill="#F0F3FA" d="M0 0h56v56H0z"/><path fill-rule="evenodd" d="M23.6 13.25a.12.12 0 0 1-.04-.05c-.05-.13-.13-.3-.24-.5-.24-.43-.74-1.23-1.51-2.4a4.83 4.83 0 0 0-1.21-1.25c-.1-.07-.18-.07-.27.01a22 22 0 0 0-.62.63c-.58.6-.62 1.7-.62 2.5 0 1.16-.03 2.26-.08 3.3a10.9 10.9 0 0 0 .71 4.4c.36.95.55 1.6.37 2.49a57 57 0 0 0-.45 2.4 6.8 6.8 0 0 0 1.09 4.94l.25.37c.32.48.65.97.86 1.48.38.93.74 2.07.77 3.13.03 1 .15 2.12.36 3.09.04.2.12.42.19.65.24.76.51 1.6-.07 2.23-.17.18-.56.3-.82.37-.79.23-.94 1.12-.92 1.85.02.56.46.62.86.68.05 0 .09 0 .13.02a.09.09 0 0 1 .07.05.1.1 0 0 1 0 .08c-.3.6-.04 1 .52 1.25 1.28.6 2.58.58 3.92-.05a.15.15 0 0 1 .16.02c1.01.8 1.88.88 3.29.98 2.09.13 4.15.1 6.19-.1a9.23 9.23 0 0 0 2.97-.8c1.25-.57 1.74-2.38 1.46-3.64A8.79 8.79 0 0 0 39.77 39c-.21-.34-.3-.59-.29-.74.18-1.3.03-2.67-.45-4.07l-.3-.82c-.22-.6-.4-1.08-.5-1.66-.08-.57-.26-1.49-.47-2.13a11.4 11.4 0 0 0-3.25-5.11c-.5-.45-.9-.74-1.17-.85l-.63-.25c-.89-.33-1.8-.67-2.35-1.43-.31-.42-.34-.8-.1-1.13.78-1.09.92-2.05 1.04-3.31.04-.48.05-1 .05-1.5 0-.4 0-.76.03-1.06.06-.82.22-1.68.48-2.6.17-.57.28-1.23.14-1.69-.12-.37-.35-.48-.7-.32-.2.1-.34.18-.38.23l-.1.11c-.42.5-.84.98-1.39 1.38-.58.41-1.2.98-1.84 1.69a.25.25 0 0 1-.29.06c-1.12-.49-2.31-.5-3.38-.52a66.81 66.81 0 0 1-.32-.03Zm-.14 6.73a.68.68 0 0 0 .5-.44.86.86 0 0 0 .04-.36 1.16 1.16 0 0 0-.11-.4 1.4 1.4 0 0 0-.59-.62c-.25-.15-.53-.2-.76-.14a.68.68 0 0 0-.5.44.85.85 0 0 0-.04.36c.02.13.05.27.11.4a1.4 1.4 0 0 0 .59.62c.25.15.53.2.76.14Zm5.49-1.54c.08.22.06.49-.05.75-.12.26-.33.49-.58.64-.13.07-.26.12-.39.15a.93.93 0 0 1-.38 0 .67.67 0 0 1-.5-.42.98.98 0 0 1 .05-.75c.12-.26.33-.49.58-.64.13-.07.26-.12.39-.15a.93.93 0 0 1 .38 0 .67.67 0 0 1 .5.42Zm.12 24.51c.17.1.3.05.38-.14l.18-.38c.07-.1.17-.18.28-.28.13-.1.12-.15-.03-.15h-1.76c-.14 0-.16.06-.04.18.29.3.62.56.99.77Z"/><path d="M23.3 19.2c0 .03-.01.04-.02.05a.07.07 0 0 1-.05.02h-.03a.32.32 0 0 1-.2-.09.27.27 0 0 1-.06-.1.25.25 0 0 1-.02-.1v-.02c0-.07.04-.13.1-.18a.3.3 0 0 1 .21-.07h.03c.02 0 .03.01.04.03.02 0 .02.03.02.04l-.02.43ZM27.8 18.98c-.03.16.04.3.15.33.1.02.22-.1.25-.26s-.04-.3-.15-.33c-.1-.02-.22.1-.25.26Z"/></svg>