<!-- by TradingView --><svg width="56" height="56" viewBox="0 0 56 56" xmlns="http://www.w3.org/2000/svg"><path fill="#F0F3FA" d="M0 0h56v56H0z"/><path d="M26 22.42h2.06V37H32V19h-6v3.42ZM20.74 19H12v4h6.48l-5.29 14h4.28l5.38-14.76c.57-1.56-.53-3.24-2.1-3.24ZM36 19v9.98h4.8c.91 0 1.65.77 1.65 1.71v.54c0 .95-.74 1.71-1.66 1.71H36V37h5.7c2.93 0 5.3-2.45 5.3-5.47v-.7a5.39 5.39 0 0 0-5.3-5.48h-1.6v-2.59h5.67V19H36Z" fill="#F4F70F"/><path d="M24 22.42h2.06V37H30V19h-6v3.42ZM18.76 19H10v4h6.49l-5.3 14h4.3l5.38-14.76c.57-1.56-.53-3.24-2.11-3.24ZM34 19v9.98h4.8c.91 0 1.65.77 1.65 1.71v.54c0 .95-.74 1.71-1.66 1.71H34V37h5.7c2.93 0 5.3-2.45 5.3-5.47v-.7a5.39 5.39 0 0 0-5.3-5.48h-1.6v-2.59h5.67V19H34Z" fill="#FA080E"/></svg>