<!-- by TradingView --><svg width="56" height="56" fill="none" xmlns="http://www.w3.org/2000/svg"><path fill="#F0F3FA" d="M0 0h56v56H0z"/><path fill-rule="evenodd" clip-rule="evenodd" d="M13.94 21h-3.795c1.666-2.518 7.66-7 18.302-7C45.947 14 48 26.667 48 28.133c0 1.174-.328 2.245-.581 2.867H37v-4.333L35.545 31h-2.544l-1.25-4.333L31.26 31h-3.125l.937-9h4.241l1.072 4.267L35.544 22H40v8h4.25c.982-6.933-5.982-14.622-15.803-14.622-7.856 0-12.945 3.563-14.508 5.622Zm8.346 1H9.73c-1.332 1.653-1.706 4.434-1.727 5.495C7.879 33.823 13.627 42 28.135 42c11.607 0 17.187-5.993 18.526-9h-3.572c-3.392 6.293-11.383 7.756-14.954 7.711-15.624 0-16.51-12.207-16.51-13.655 0-1.16.374-2.513.807-3.056h8.247c.71 0 1.286.55 1.286 1.258 0 .707-.575 1.28-1.286 1.28H20v.957h1.485c.624 0 1.13.504 1.13 1.125 0 .622-.506 1.38-1.13 1.38H19v-5h-3v6h7.056C24.33 31 26 30.884 26 28.944c0-1.552-1.662-2.164-2.554-2.276.658-.06 1.557-.766 1.557-2.317 0-1.552-1.557-2.351-2.717-2.351Zm-4.52 12.871h.923c.344 0 .636-.036.876-.108.243-.072.427-.176.553-.311a.686.686 0 0 0 .19-.485.69.69 0 0 0-.19-.478c-.126-.14-.31-.25-.553-.329-.24-.08-.532-.16-.876-.16H17v3h.767v-1.129Zm0-.4v-1.03h.923c.201 0 .364.025.488.074.125.05.215.115.272.197a.428.428 0 0 1 0 .52.559.559 0 0 1-.272.176 1.537 1.537 0 0 1-.488.064h-.922ZM23.78 36v-.44h-2.019V33h-.766v3h2.785Zm2.623-3h-.696l-1.674 3h.804l.374-.724h1.69l.376.724h.806l-1.68-3Zm.292 1.877h-1.278l.638-1.235.64 1.235Zm4.183.17c.028.047.042.1.042.16 0 .08-.03.15-.091.21a.618.618 0 0 1-.275.14c-.12.033-.27.05-.45.05-.136 0-.264-.01-.384-.03a1.232 1.232 0 0 1-.311-.092.565.565 0 0 1-.211-.165c-.049-.067-.073-.225-.073-.32h-.767c0 .155.05.368.15.485.1.115.234.21.403.288.169.077.356.133.562.17.207.038.418.057.632.057.238 0 .454-.018.647-.054a1.98 1.98 0 0 0 .501-.159.909.909 0 0 0 .324-.25.536.536 0 0 0 .113-.333.557.557 0 0 0-.092-.315.832.832 0 0 0-.274-.25 2.128 2.128 0 0 0-.459-.197 5.722 5.722 0 0 0-.644-.16 5.211 5.211 0 0 1-.425-.097 1.936 1.936 0 0 1-.299-.106.56.56 0 0 1-.177-.124.226.226 0 0 1-.058-.15c0-.078.03-.148.089-.21a.61.61 0 0 1 .268-.146c.12-.036.271-.054.452-.054.192 0 .35.021.474.064.126.043.22.102.28.177.064.073.095.268.095.364h.76c0-.163-.064-.422-.195-.557a1.326 1.326 0 0 0-.552-.323 2.68 2.68 0 0 0-.852-.12c-.235 0-.448.02-.642.06a1.968 1.968 0 0 0-.504.167.96.96 0 0 0-.327.252.52.52 0 0 0-.003.644c.074.09.177.172.309.243.132.07.287.13.464.184.18.052.375.1.586.143.194.038.353.076.477.114.126.036.224.073.293.112.07.039.117.082.144.129ZM34.994 35h.764a.934.934 0 0 1-.244.52 1.4 1.4 0 0 1-.584.352c-.25.085-.554.128-.913.128-.275 0-.522-.032-.742-.096a1.752 1.752 0 0 1-.565-.277 1.225 1.225 0 0 1-.36-.435 1.3 1.3 0 0 1-.123-.57v-.242c0-.21.042-.4.126-.57.085-.17.207-.315.366-.435.159-.122.35-.215.571-.279.224-.064.476-.096.755-.096.354 0 .653.043.898.128.244.086.433.204.568.355a.99.99 0 0 1 .25.52h-.764a.62.62 0 0 0-.434-.527 1.547 1.547 0 0 0-.518-.073c-.175 0-.328.022-.459.064a.793.793 0 0 0-.525.495c-.042.12-.064.259-.064.414v.246c0 .147.02.281.058.401.04.12.102.222.183.307.084.086.19.152.318.199.128.046.282.07.461.07.218 0 .394-.023.528-.068a.64.64 0 0 0 .309-.199.731.731 0 0 0 .14-.332ZM40 34.58v-.16a1.272 1.272 0 0 0-.51-1.039 1.728 1.728 0 0 0-.583-.283 2.694 2.694 0 0 0-.752-.098c-.273 0-.522.033-.748.098a1.766 1.766 0 0 0-.583.283c-.163.123-.29.272-.379.447-.09.174-.134.371-.134.592v.16c0 .22.044.419.134.594.092.175.22.324.385.447s.36.217.583.283c.226.064.476.096.748.096.275 0 .526-.032.752-.096.226-.066.42-.16.58-.283.163-.123.288-.272.376-.447A1.31 1.31 0 0 0 40 34.58Zm-.767-.164v.164c0 .163-.024.308-.073.433a.833.833 0 0 1-.207.32.902.902 0 0 1-.337.194 1.478 1.478 0 0 1-.455.064c-.169 0-.32-.022-.452-.064a.962.962 0 0 1-.342-.195.848.848 0 0 1-.213-.319 1.191 1.191 0 0 1-.074-.433v-.164c0-.163.025-.307.074-.431a.827.827 0 0 1 .55-.508c.132-.044.282-.066.451-.066.17 0 .321.022.455.066a.878.878 0 0 1 .34.193c.093.084.163.189.21.315.049.124.073.268.073.43Z" fill="#0754AB"/></svg>