<!-- by TradingView --><svg width="56" height="56" viewBox="0 0 56 56" xmlns="http://www.w3.org/2000/svg"><path fill="#F0F3FA" d="M0 0h56v56H0z"/><path d="M28.39 43.37c-.05-.27.02-.47.2-.61.4-.31.81-.68 1.22-1.1a6 6 0 0 0 1.1-1.45c.53-1.1.9-1.97 1.09-2.6a6.6 6.6 0 0 0-1.3-6.33 32.23 32.23 0 0 0-2.2-2.5l-1.66-1.51c-.8-.72-1.45-1.5-1.96-2.33a6.1 6.1 0 0 1-.99-2.85c-.1-1.71.2-3.4.86-5.08.25-.63.61-1.47 1.08-2.54.09-.21.04-.46-.16-.73.4-.42.76-.87 1.06-1.35.13-.2.34-.32.62-.35 1-.1 2.02-.03 3.06.2.07 0 .1.05.12.11a.14.14 0 0 1-.07.16c-.18.12-.34.25-.48.4-.79.92-1.47 2.04-2.06 3.39a9.08 9.08 0 0 0-.77 3.62 8 8 0 0 0 .81 3.58c.22.45.66 1.03 1.3 1.73l.57.6a53.52 53.52 0 0 1 2.12 2.4 15.3 15.3 0 0 1 1.76 2.58 7.2 7.2 0 0 1 .43 6.09 11.21 11.21 0 0 1-2.37 3.64 18.98 18.98 0 0 1-3.38 2.83Z" fill="#FDC40F"/><path d="M17.62 27.94c-.07.07-.07.14 0 .2l7.52 7.53c.06.05.07.11.04.18-.5 1.07-1.17 2.1-2.03 3.1-.7.8-1.59 1.69-2.7 2.65-.23.2-.42.26-.58.17a12.75 12.75 0 0 1-2.47-1.76A16 16 0 0 1 15 18.74a15.9 15.9 0 0 1 4.7-4.42 15.19 15.19 0 0 1 6.3-2.16c.26-.03.29.05.1.22a20.36 20.36 0 0 0-5.43 8.3c-.42 1.2-.57 2.68-.43 4.43 0 .14-.1.32-.32.53a64.6 64.6 0 0 0-2.3 2.3Z" fill="#2C479D"/><path d="M31.6 12.51c.1-.08.2-.1.33-.06l2.14.77c.07.02.1.07.12.14.02.07 0 .13-.05.18-.56.52-1.22 1.21-2 2.08a14.95 14.95 0 0 0-2.6 4.02 6.91 6.91 0 0 0-.32 4.17c.08.4.02.43-.18.06-.3-.51-.56-1.14-.81-1.88a6.76 6.76 0 0 1-.24-3 10.11 10.11 0 0 1 3.61-6.48Z" fill="#FDC40F"/><path d="M38.29 28.07c.03-.03.03-.06 0-.1l-7.6-7.6a.4.4 0 0 1-.1-.42 12.8 12.8 0 0 1 1.75-3.4c.73-1.04 1.57-1.99 2.5-2.85.08-.07.16-.08.25-.03a16.03 16.03 0 0 1 1 28.17A15.46 15.46 0 0 1 28.66 44c-.24 0-.26-.05-.05-.17 3.46-2.05 5.76-4.34 6.9-6.87.41-.9.64-1.88.7-2.93a6.62 6.62 0 0 0-.5-3.01.4.4 0 0 1 .1-.48l2.47-2.47Z" fill="#2C479D"/><path d="M25.66 13.74c.2.27.26.52.17.73a93.76 93.76 0 0 0-1.08 2.54 11.74 11.74 0 0 0-.86 5.08c.05.92.38 1.87.98 2.85.52.83 1.17 1.6 1.97 2.33l1.66 1.5c.68.7 1.41 1.53 2.2 2.51a6.6 6.6 0 0 1 1.3 6.33c-.2.63-.56 1.5-1.1 2.6a6 6 0 0 1-1.09 1.45c-.41.42-.82.79-1.22 1.1-.18.14-.25.34-.2.61-.93.67-2.13.77-3.61.3-.19-.05-.21-.15-.08-.3l.94-.98c1.16-1.24 1.99-2.62 2.47-4.14a7.6 7.6 0 0 0 .08-4.75c-.17-.51-.47-1-.92-1.47a15.19 15.19 0 0 0-1.57-1.32 19.8 19.8 0 0 1-2.38-2.29 7.26 7.26 0 0 1-1.82-5.29c.04-1.86.56-3.69 1.56-5.5a26.43 26.43 0 0 1 2.6-3.89Z" fill="#FFE802"/><path d="M26.72 32.81c-.02-.1 0-.12.09-.06a.9.9 0 0 1 .25.33 5.7 5.7 0 0 1 .57 3.77 9.58 9.58 0 0 1-1.36 3.36A16.9 16.9 0 0 1 23.94 43a.97.97 0 0 1-1.1.25c-.74-.27-1.38-.56-1.9-.87a.23.23 0 0 1-.13-.2c0-.08.02-.15.09-.2a45.8 45.8 0 0 0 3.1-2.94 15.06 15.06 0 0 0 2.43-3.37c.43-.86.53-1.8.29-2.85Z" fill="#F8D610"/></svg>