<!-- by TradingView --><svg width="56" height="56" viewBox="0 0 56 56" xmlns="http://www.w3.org/2000/svg"><path fill="#F0F3FA" d="M0 0h56v56H0z"/><path d="M28 15a1.5 1.5 0 1 0 0-3 1.5 1.5 0 0 0 0 3Z" fill="#ED141E"/><path fill-rule="evenodd" d="M32.75 15.2a15.64 15.64 0 0 1-4.65 2.08.27.27 0 0 1-.18 0 12.93 12.93 0 0 1-3.95-2.73.3.3 0 0 0-.2-.09 3.21 3.21 0 0 0-2.43.92c-.05.05-.05.1 0 .15a17.44 17.44 0 0 0 4.35 2.73c.94.4 1.85.57 2.73.5a6.9 6.9 0 0 0 2.58-.8c1.17-.61 2.3-1.35 3.4-2.22.35-.28.31-.48-.1-.62l-.32-.1a1.33 1.33 0 0 0-1.23.18Zm-4.23 2.34c.43.11.96.21 1.58.3.5.06 1-.05 1.47-.34 1.13-.69 2.02-1.3 2.69-1.83.27-.22.24-.37-.1-.46l-.31-.08a1.12 1.12 0 0 0-.95.17 16.38 16.38 0 0 1-4.39 2.03c-.24.07-.23.14 0 .2Z" fill="#9F1D27"/><path d="m28 21.68.14-.02a.2.2 0 0 0 .11-.07l.09-.1c.42-.5.75-.84.98-1.01.36-.27.79-.42 1.28-.46 1.58-.12 2.8.4 3.67 1.54.76 1.02 1 2.27.74 3.75-.18 1.01-.65 2.24-1.38 3.7l-.57 1.1a40.8 40.8 0 0 0-1.46 3 11.86 11.86 0 0 0-.8 3.02c-.01.06-.04.1-.1.14a.18.18 0 0 1-.16 0 3.3 3.3 0 0 1-1.97-2.32.28.28 0 0 1 .01-.2c.17-.36.32-.61.44-.75l2.53-2.8a7.44 7.44 0 0 0 1.57-2.65c.33-1.1.18-2.05-.47-2.85-.6-.73-1.4-1.02-2.43-.86-.46.07-.88.23-1.27.49a2.81 2.81 0 0 0-.95 1.01l-.02-.02c-.22-.4-.53-.73-.93-1-.39-.25-.8-.41-1.27-.48-1.02-.17-1.83.12-2.43.86-.65.8-.8 1.74-.48 2.84.26.85.78 1.73 1.57 2.65L26.97 33c.12.14.26.39.43.76.03.06.04.12.02.19a3.3 3.3 0 0 1-1.98 2.32.17.17 0 0 1-.16 0 .17.17 0 0 1-.09-.14c-.12-.98-.39-1.99-.8-3.02a41.1 41.1 0 0 0-1.45-3L22.37 29a14.04 14.04 0 0 1-1.38-3.7 4.63 4.63 0 0 1 .75-3.75c.86-1.14 2.08-1.65 3.67-1.53.5.03.92.19 1.28.46a6.88 6.88 0 0 1 1.06 1.1.2.2 0 0 0 .11.08l.14.02Zm-8 2.72c-1.3-.4-2.28-.05-2.9 1.07-.58 1.02-.55 2.14.07 3.36a8 8 0 0 0 2.3 2.66l.79.6a17.26 17.26 0 0 1 3.1 2.8c.05.06.07.12.08.2 0 .34-.2.71-.6 1.12-.33.32-.7.58-1.09.77-.07.04-.11.02-.11-.07a5.7 5.7 0 0 0-1.88-3.99c-1.06-1-1.83-1.75-2.3-2.26a13.18 13.18 0 0 1-1.8-2.41 5 5 0 0 1-.5-3.78c.29-1.16 1.05-1.9 2.28-2.2.8-.2 1.9-.22 3.34-.06.1 0 .11.05.06.12a3.85 3.85 0 0 0-.59 2.07c0 .07-.04.1-.12.1-.06 0-.1-.04-.13-.1Zm15.87.1c.06 0 .1-.04.13-.1 1.3-.4 2.28-.05 2.9 1.07.58 1.01.55 2.13-.07 3.36a8 8 0 0 1-2.3 2.65l-.79.6a17.23 17.23 0 0 0-3.1 2.8.31.31 0 0 0-.07.2c-.01.34.19.72.6 1.12.32.33.69.59 1.08.78.07.04.11.01.12-.07a5.7 5.7 0 0 1 1.85-3.98l.02-.01c1.06-1 1.83-1.75 2.3-2.26.77-.84 1.37-1.64 1.8-2.42.66-1.16.82-2.42.5-3.77-.29-1.16-1.05-1.9-2.28-2.2-.8-.2-1.9-.22-3.34-.07-.1.01-.11.05-.06.13.37.57.57 1.26.59 2.06 0 .08.04.12.12.1Z" fill="#9F1D27"/><path d="M28 37.03h.03c4.45.05 8.5.84 12.13 2.37.34.14.61.31.82.5.02.03.03.05.01.07-.01.03-.03.04-.06.03A41.47 41.47 0 0 0 28 38.09c-4.75 0-9.06.62-12.93 1.89-.03 0-.05 0-.06-.02-.02-.03-.01-.05 0-.07.22-.2.5-.37.83-.5a31.76 31.76 0 0 1 12.14-2.36H28Z" fill="#ED141E"/></svg>