<!-- by TradingView --><svg width="56" height="56" viewBox="0 0 56 56" xmlns="http://www.w3.org/2000/svg"><path fill="#F0F3FA" d="M0 0h56v56H0z"/><path fill-rule="evenodd" d="M29.5 35c4.14 0 7.5-3.13 7.5-7s-3.36-7-7.5-7c-4.14 0-7.5 3.13-7.5 7s3.36 7 7.5 7Zm0-3c1.93 0 3.5-1.8 3.5-4s-1.57-4-3.5-4-3.5 1.8-3.5 4 1.57 4 3.5 4Z" fill="#006AD1"/><path d="M41 21h-3v3h3v11h4V24h3v-3h-7Z" fill="#006AD1"/><path fill-rule="evenodd" d="M12 27v-3h1.98c.65 0 1.47.66 1.47 1.5 0 1.21-.96 1.5-1.47 1.5H12Zm0 2v3h2.41c.65 0 1.59-.5 1.59-1.5 0-1.44-1-1.5-1.59-1.5H12Zm-.13 6H8V21h6.63c1.57.02 4.37.72 4.37 3.3a3.18 3.18 0 0 1-2.08 3.1h.03c.81.3 3.05 1.47 3.05 3.68 0 3.07-3.16 3.9-4.75 3.92h-3.38Z" fill="#006AD1"/></svg>