<!-- by TradingView --><svg width="56" height="56" viewBox="0 0 56 56" xmlns="http://www.w3.org/2000/svg"><path fill="#F0F3FA" d="M0 0h56v56H0z"/><path d="M30.44 13.47c.53-.81 1.08-1.63 1.56-2.47-.13.32-.28.72-.53 1.18-.88 1.56-1.27 2.3-2 3.43-.32.48-.63.97-.92 1.45-.3.48-.5.98-.73 1.47-.36.73-.72 2.13-.88 2.95-.07.36-.3 1.02-.65 1.29-.35.28-.47.63-.75.96-.83.96-1.23 2.23-2.13 3.15-1.3 1.3-2.37 2.73-3.41 4.12.08-.34.08-.67.28-1.05.55-1.06 1.19-2.11 1.72-3.1.52-.96 1.01-1.9 1.56-2.82l2.2-3.71c.1-.17.2-.4.32-.71.18-.47.74-1.08 1-1.43.16-.2.32-.43.47-.67.72-1.13 1.02-1.6 1.54-2.47.32-.54.53-.89.65-1.05.47-.69.27.16.7-.52ZM15.82 18.6c.15-.05.36-.15.63-.32.25-.16.44-.25.56-.27.64-.09.91.4 1.04.9.24.93.44 1.77.6 2.5.11.5.08 1.16.33 1.64.3.57.6 1.26.93 2.1.33.86.62 1.48 1.06 2.41.15.33-.32.78-.6.97-.4.29-1.2.28-1.69.42-1.03.3-1.1-.78-1.27-1.45a8.25 8.25 0 0 0-.35-.94c-.67-1.63-1.39-3.24-2-4.88A5.07 5.07 0 0 0 14.03 20a.09.09 0 0 1-.02-.1l.27-.75.01-.02c.14-.13.37-.27.7-.43.26-.12.6-.04.83-.1Z" fill="#1A1A1C"/><path d="M29.27 22.23c-.2.09-.42.14-.67.16-.31.03-.87.46-.95.51-.22.16-.3.13-.24-.1a.92.92 0 0 1 .2-.33.14.14 0 0 0 .04-.1c-.05-.46-1.28-.77-.23-1.21.46-.2.95-.21 1.47-.05.28.08.47.17.58.26.2.17.37.42.51.77.06.14-.02.2-.24.17a2 2 0 0 1-.34-.08.18.18 0 0 0-.13 0ZM28.86 25.26c-.34.34-.68.57-.78 1.09-.26 1.28-.54 2.5-.71 3.65 0-.6-.05-1.36-.18-2.03-.19-.94-.3-1.5-.36-1.67a3.81 3.81 0 0 0-.55-.93c-.33-.46-.45-.85.1-1.18.19-.11.48-.17.9-.19.7-.03 1.27.26 1.68.85.1.14.01.3-.1.41Z" fill="#1A1A1C"/><path fill-rule="evenodd" d="M41.96 26.47c-.01.1-.05.11-.12.03l-.08-.1a.74.74 0 0 0-.15-.18c-.2-.16-.42-.22-.64-.22-.5 0-.96.36-1.1.83l-.04.46c-.02.38-.28.57-.61.81-.47.33-1.01.51-1.55.18-.1-.06-.14-.16-.16-.3 0-.03.01-.06.04-.1a10.01 10.01 0 0 1 1.82-1.48l.2-.15c.33-.24.73-.54.42-.9a4.82 4.82 0 0 0-.86-.77l-.22-.17c-.49-.37-.91-.41-1.41-.41-.2 0-.39.1-.6.27a4.33 4.33 0 0 0-1.44 1.93c-.04.13-.04.32.02.55v.05c.09.33.17.66-.02 1.06-.35.7-.9 1.18-1.65 1.46-.4.15-.83.26-1.24.25-.34 0-.67-.08-.96-.27-.45-.29-.73-.71-.86-1.26-.14-.6.03-1.16.51-1.67a.17.17 0 0 1 .1-.05c.3-.04.55-.17.8-.3.29-.13.56-.27.88-.3.04 0 .08.01.1.03.04.02.06.05.07.08l.06.24c0 .05.04.07.1.08.49.06 1.18.1 1.45-.33.36-.56-.1-1.18-.51-1.71a5.38 5.38 0 0 1-.34-.49c-.12-.2-.34-.32-.57-.44a5.06 5.06 0 0 1-.34-.18l-.07.01-.92.37a5.5 5.5 0 0 0-2.11 1.48c-.14.16-.34.48-.61.96-.2.37-.32.72-.34 1.06-.08 1.03.46 2.34 1.54 2.8.42.18.9.26 1.37.27 1.1 0 2.26-.4 3.04-.99.21-.16.4-.38.57-.57l.17-.19a.12.12 0 0 1 .15-.01l.17.12.41.3c.36.29.8.4 1.24.39.22 0 .45-.03.67-.07.34-.06.67-.27 1.03-.48l.25-.16c.06-.03.1-.02.14.04l.04.09c.1.24.2.45.49.52.17.04.34.06.5.06.57 0 1.04-.23 1.35-.7v.02c.18.2.34.38.68.36.62-.04.95-.34.98-.9l.05-1.01c.01-.27.07-.45.17-.54.3-.27.56-.57.79-.9.02-.03.05-.04.08-.02l.17.06c.3.12.73.3.95.49.58.52.4 1.1.14 1.73-.15.36-.15.5-.04.88.15.55.37.98.65 1.3.31.38 1.07.22 1.41 0 .52-.33.85-.74.83-1.34-.02-.66-.06-1.19-.1-1.6-.12-1.1-1.33-1.97-2.35-2.38-.87-.35-1.74-.28-2.3.43-.08.1-.22.32-.42.66-.12.22-.17.44-.22.66-.05.2-.1.4-.2.6-.08.16-.14.16-.2-.01a.93.93 0 0 1 0-.42l.08-.37c.1-.51.18-.92.07-1.31a.13.13 0 0 0-.06-.08c-.4-.23-.78-.1-.98.27-.26.5-.32.97-.36 1.6Zm-3.37.03c.22-.2.4-.37.52-.61.04-.09 0-.1-.13-.07l-.03.02-1.52 1.06c-.16.11-.23.26-.2.45l.05.26c.07.19.17.22.31.1.16-.15.33-.3.5-.5a.77.77 0 0 0 .16-.26c.04-.1.08-.21.19-.31l.15-.14Z" fill="#1A1A1C"/><path d="M9.3 27H7.75L7 37h3v-.03l.02.03L13 34.6l-1.4-.75-1.73 1.2L9.3 27ZM18 34.55l1.78-.55L23 37h-2.35L18 34.55Z" fill="#1C3091"/><path d="M17.95 32a2.51 2.51 0 0 1-2.45 3 2.5 2.5 0 1 1 .15-5l.64-1.93A4.5 4.5 0 1 0 19.97 32h-2.02Z" fill="#ED000E"/><circle cx="16.5" cy="32.5" r=".5" fill="#ED000E"/><path d="m48.32 35.32.66.15.02.32c0 .95-1.07 1.21-1.84 1.21-1.2 0-2.16-.65-2.16-1.91 0-1.27.96-2.09 2.19-2.09.62 0 1.32.22 1.46.92.02.09.03.2.03.34l-.68.26v-.32c0-.5-.18-.8-.6-.8-.9 0-.9 1.34-.9 1.85 0 .56.26 1.35 1 1.35.5 0 .82-.38.82-.86v-.42ZM41 37v-4h2.38c.73 0 1.62.29 1.62 1.16 0 1.01-1.07 1.3-1.89 1.3h-.61V37H41Zm1.5-2h.38c.45 0 .53-.44.53-.81 0-.38-.1-.75-.53-.75h-.38V35ZM37 37v-4h2.25c.62 0 1.55.18 1.55.97 0 .55-.42.79-.9.91.56.11 1.1.42 1.1 1.06 0 .82-.86 1.06-1.53 1.06H37Zm1.6-.41h.24c.42 0 .54-.3.54-.68 0-.4-.12-.78-.57-.78h-.21v1.46Zm0-1.87h.24c.3 0 .42-.2.42-.66 0-.32-.07-.63-.44-.63h-.22v1.29Z" fill="#1C3091"/></svg>