<!-- by TradingView --><svg width="56" height="56" viewBox="0 0 56 56" xmlns="http://www.w3.org/2000/svg"><path fill="#F0F3FA" d="M0 0h56v56H0z"/><path fill-rule="evenodd" d="M28 45a17 17 0 1 0 0-34 17 17 0 0 0 0 34Zm0-2a15 15 0 1 0 0-30 15 15 0 0 0 0 30Z" fill="#FB0B0C"/><path fill-rule="evenodd" d="M28 42a14 14 0 1 0 0-28 14 14 0 0 0 0 28Zm0-1a13 13 0 1 0 0-26 13 13 0 0 0 0 26Z" fill="#FB0B0C"/><path d="M28 17h-1v2.36l-4 3.18.65 1.46H31v1h-7v1h7v2h-1v1h1v1h.59l1.65 1H38v-1.64h-1.74l-1.32.94-1.94-.9V28h-1v-4h3l-1.94-2.35-5.06-2.4V17Zm-2 17.84c0-.43-.23-.81-.61-.97.31-.17.47-.45.47-.85 0-.6-.4-1.02-1.19-1.02H23v4h1.72c.85 0 1.28-.44 1.28-1.16Zm-2-2.08h.62c.26 0 .38.16.38.41 0 .27-.12.44-.38.44H24v-.85Zm.67 2.48H24v-.9h.67c.31 0 .47.14.47.45 0 .29-.17.45-.47.45Zm5.23.33c0 .18.04.32.1.43h-.92a1.08 1.08 0 0 1-.08-.44v-.09c-.01-.36-.02-.7-.48-.7H28V36h-1v-4h1.67c.82 0 1.33.54 1.33 1.25 0 .46-.24.93-.62 1.1.18.07.3.17.37.3.14.27.14.46.15.7v.22ZM28 33v1h.49c.33 0 .51-.14.51-.48 0-.35-.17-.52-.52-.52H28Zm4.53 3C31.46 36 31 34.94 31 34c0-.95.44-2 1.53-2 .84 0 1.38.67 1.47 1.46h-1l-.02-.12c-.08-.36-.12-.56-.45-.56-.49 0-.53.44-.53 1.22s.04 1.22.53 1.22c.38 0 .42-.28.48-.75v-.03H34c-.08.81-.58 1.56-1.47 1.56ZM19 29.07V31h2.5v-1h1.19v-1.24H25V27h-.58l-1.16 1H21.5v1h-.53l-.88 1-1.09-.93Zm6.01-.07H23v.49h2.01V29Z" fill="#FB0B0C"/><circle cx="28" cy="28" r="1" fill="#FB0B0C"/></svg>