<!-- by TradingView --><svg width="56" height="56" viewBox="0 0 56 56" xmlns="http://www.w3.org/2000/svg"><path fill="#009D52" d="M0 0h56v56H0z"/><circle cx="28" cy="28" r="17" fill="#FDFDFD"/><path fill-rule="evenodd" d="M28 44.36a16.36 16.36 0 1 0 0-32.72 16.36 16.36 0 0 0 0 32.72ZM28 43a15 15 0 1 0 0-30 15 15 0 0 0 0 30Z" fill="#00AEE8"/><path fill-rule="evenodd" d="M28 42a14 14 0 1 0 0-28 14 14 0 0 0 0 28Zm0-.58a13.42 13.42 0 1 0 0-26.84 13.42 13.42 0 0 0 0 26.84Z" fill="#00AEE8"/><path fill-rule="evenodd" d="M28 39.58a11.58 11.58 0 1 0 0-23.16 11.58 11.58 0 0 0 0 23.16Zm0-.58a11 11 0 1 0 0-22 11 11 0 0 0 0 22Z" fill="#00AEE8"/><circle cx="28" cy="28" r="10" fill="#00AEE8"/><path d="M30.4 34.47c.39.8 1.15 2.4 1.15 2.48.94.4 3.46-1.56 4.54-2.48 1.08-.92 2.14-3.37 2.4-4.31.26-.95.59-2.85.5-3.16-.85-.02-1.23 1.86-1.35 2.24-.11.37-1.31 3.1-1.43 3.59-.12.48-1.15.37-1.43.37-.29 0-.5-.13-.4-.24.09-.1 1.1-.64 1.4-.79.31-.15.38-.33.31-.59-.07-.26-.9-.02-1.08 0-.19.02-.87.26-1.18.55-.3.28-.77.55-2.13 1.16-1.1.49-1.32 1-1.3 1.18Z" fill="#FAE94D"/><path d="M36.59 31.34c.07-.02.9-2.42 1.31-3.62-.58-.32-1.03 1.25-1.31 1.95-.29.7-.52 1.38-.5 1.58.03.2.4.11.5.09ZM35.82 31.33c.07-.02.87-2.21 1.26-3.3-.56-.3-1 1.14-1.26 1.78-.28.64-.5 1.26-.48 1.44.02.18.39.1.48.08ZM35 31.5c.06 0 .75-1.8 1.1-2.7-.5-.24-.87.94-1.1 1.46a4.18 4.18 0 0 0-.41 1.18c.02.15.33.08.4.07ZM25.6 34.47c-.39.8-1.15 2.4-1.15 2.48-.94.4-3.46-1.56-4.54-2.48-1.08-.92-2.14-3.37-2.4-4.31a13.3 13.3 0 0 1-.5-3.16c.85-.02 1.23 1.86 1.35 2.24.11.37 1.31 3.1 1.43 3.59.12.48 1.15.37 1.43.37.29 0 .5-.13.4-.24-.09-.1-1.1-.64-1.4-.79-.31-.15-.38-.33-.31-.59.07-.26.9-.02 1.08 0 .19.02.87.26 1.18.55.3.28.77.55 2.13 1.16 1.1.49 1.32 1 1.3 1.18Z" fill="#FAE94D"/><path d="M19.41 31.34c-.07-.02-.9-2.42-1.31-3.62.58-.32 1.03 1.25 1.31 1.95.29.7.52 1.38.5 1.58-.03.2-.4.11-.5.09ZM20.18 31.33c-.07-.02-.87-2.21-1.26-3.3.56-.3 1 1.14 1.26 1.78.28.64.5 1.26.48 1.44-.02.18-.39.1-.48.08ZM21 31.5c-.06 0-.75-1.8-1.1-2.7.5-.24.87.94 1.1 1.46.24.53.43 1.03.41 1.18-.02.15-.33.08-.4.07Z" fill="#FAE94D"/><path d="M16.76 25.04a11.63 11.63 0 0 1 22.44-.16l1.25-.65a13 13 0 0 0-24.98.3l1.29.51Zm7.8 15.5.26-1.36a11.63 11.63 0 0 0 6.72-.1l.37 1.32a13 13 0 0 1-7.34.14Z" fill="#00ADE6" fill-opacity=".5"/><path d="M27.66 19.1c.2-.16.54-.15.7.17.11.25.18.56.22.85l.05.49.1-.04c.26-.1.53.05.62.32.08.26-.04.56-.3.66l-.39.15v.06c.28.03.59.1.84.19.2.07.54.22.64.6l.03.07v-1.47c0-.27.2-.51.47-.51.27 0 .48.24.48.51v.72l.61-.77a.45.45 0 0 1 .68-.05c.2.2.21.52.04.73l-.8 1 .3.21a.55.55 0 0 1 .07.81c.2.18.23.49.08.7l-.32.5h.09l.72-.75c.2-.2.5-.19.68.03.17.2.17.53-.02.72l-.21.22c.15.03.28.04.4.02.22-.04.47.1.54.38.07.25-.06.58-.36.64a2.28 2.28 0 0 1-1.1-.1v.32c0 .28-.2.52-.47.52-.27 0-.48-.24-.48-.52v-.47a9 9 0 0 1-.09-.01 1.4 1.4 0 0 1-.24.72c-.1.14-.24.2-.38.19a.47.47 0 0 1-.33-.19c-.18-.23-.11-.5-.03-.65a.45.45 0 0 0 .03-.23 6.45 6.45 0 0 0-.18-.02l-.16-.02v-1h.15l-.06-.35a.56.56 0 0 1 .01-.26h-.6l-.12-.34-.31-.91a.61.61 0 0 0-.2-.06l-.13-.02h-.04a1.65 1.65 0 0 1-.28-.06c0 .16-.02.3-.03.46l-.02.27-.04.47-.28-.37a15.03 15.03 0 0 1-.57-.74 2.17 2.17 0 0 0-.63-.56l-.03.05-.04.1v.02l-.05.11c-.1.22-.19.47-.24.67-.07.22-.27.38-.5.37l-.45.46c.02.1.01.2-.02.3l-.09.25h.36l-.02 1.04h-.53l.02.08c.03.15.06.22.08.24.08.1.2.35.1.62a.5.5 0 0 1-.28.27.4.4 0 0 1-.42-.08 1.5 1.5 0 0 1-.43-.9l-.15.56c-.07.27-.33.44-.6.35-.25-.08-.39-.37-.32-.64l.08-.3c-.35.08-.75.12-1 .14-.27.03-.5-.2-.5-.48-.02-.28.17-.53.43-.55l.58-.07c-.12-.1-.25-.18-.38-.26a.37.37 0 0 1-.16-.2.44.44 0 0 1-.01-.23l.03-.12v-.02c.07-.26.34-.47.63-.34a3.04 3.04 0 0 1 .86.63l-.05-.12a.55.55 0 0 1 .1-.63.52.52 0 0 1-.2-.28c-.06-.27.07-.56.33-.64l.28-.1-.86-1.02a.55.55 0 0 1 .03-.73c.2-.2.5-.19.68.03l.53.64v-.4c0-.27.2-.51.48-.51.27 0 .48.24.48.51v1.55l.04.05a5.84 5.84 0 0 1 .53-1.11c.12-.16.29-.31.52-.35a.75.75 0 0 1 .32 0c-.2-.21-.37-.47-.48-.67a.54.54 0 0 1 .15-.71c.24-.16.52-.06.66.16l.1.17a2.08 2.08 0 0 0-.11-.47c-.09-.2-.08-.49.14-.67Zm-2.99 4.55c.04.03.08.08.1.13l.09.17c.1-.18.29-.28.48-.24l-.18-.22-.49.16Zm1.43-.41.08.02c.06.02.13-.01.15-.09a5.5 5.5 0 0 1 .37-.96c.04-.09.12-.23.27-.27h.1l.13.05c.3.16.53.4.74.65l.3.38.03-.43.01-.18h.17c.1 0 .2 0 .34.04l.15.03h.03l.15.02c.12.02.27.06.4.17l.04.04.02.05.32.96.03.09h.44l.59-.73.66.47c.06.04.13.02.17-.04.04-.07.01-.16-.04-.2l-.63-.45 1.06-1.32a.16.16 0 0 0-.01-.21c-.05-.05-.12-.04-.17.01l-1.24 1.57v-1.76c0-.08-.06-.14-.12-.14s-.12.06-.12.14v2.06l-.37.47-.1-.3-.25-.72c-.05-.18-.22-.29-.41-.35-.29-.1-.63-.18-.91-.18h-.18V21.43l.63-.25c.06-.02.1-.1.08-.18-.03-.08-.1-.1-.15-.09l-.56.22v-.26a7.81 7.81 0 0 0-.07-.7c-.04-.28-.1-.55-.2-.74-.02-.04-.04-.06-.07-.06a.1.1 0 0 0-.08.02c-.06.05-.07.14-.04.21.06.15.11.36.15.62.03.18.05.38.06.59l.02.47-.32-.32a3.87 3.87 0 0 1-.52-.7c-.05-.06-.12-.08-.17-.04a.15.15 0 0 0-.04.2c.11.18.27.42.44.62.14.15.3.31.5.39l.1.04V21.95l-.01.4-.29-.27c-.14-.14-.3-.26-.46-.34a.56.56 0 0 0-.36-.08c-.11.02-.21.1-.3.22-.1.12-.18.28-.25.43a5.83 5.83 0 0 0-.3.83l.01.1Zm4.72.6c.16.02.3.13.36.29l.15-.23a.5.5 0 0 1 .05-.07l-.36-.25-.2.25Zm-4.91-.43-.48-.57v-1.69c0-.08-.06-.14-.12-.14s-.12.06-.12.14v1.4l-1.16-1.4a.1.1 0 0 0-.16 0 .16.16 0 0 0-.01.2l1.22 1.47-.8.27c-.07.02-.11.1-.09.18.02.08.09.1.15.1l.93-.32.46.55.18-.19Zm4.64 1.76v.29l.18.02.12.03.02.13c.03.16.05.42-.07.62a.26.26 0 0 0-.03.12c0 .04.01.07.03.1.02.03.06.05.09.05.02 0 .04 0 .07-.04.12-.17.16-.38.17-.57v-.13l-.01-.23.21.03.44.07.16.02v.8c0 .09.06.14.12.14s.12-.05.12-.14v-.8l.22.06a11.1 11.1 0 0 1 .35.1c.25.05.53.1.81.05a.1.1 0 0 0 .08-.06.17.17 0 0 0 0-.11c-.01-.08-.08-.12-.14-.1-.23.03-.47 0-.7-.06l-.16-.04-.3-.08.67-.7a.16.16 0 0 0 0-.21.1.1 0 0 0-.16 0l-.84.87-.08-.01-.48-.07-.28-.04.65-.99a.16.16 0 0 0-.02-.2c-.05-.04-.13-.04-.17.03l-.62.93-.13-.73c-.02-.08-.09-.12-.14-.11-.06.01-.11.08-.1.17l.15.8h-.23Zm-6.1-1.21c-.03-.07-.1-.09-.15-.05-.06.03-.09.12-.05.2l.47.94-.27.02-.17.01h-.07l-.05-.04-.29-.26-.24-.22a2.7 2.7 0 0 0-.64-.44.08.08 0 0 0-.08 0 .14.14 0 0 0-.06.09l-.02.05v.02a.56.56 0 0 0-.02.07c.27.15.52.35.75.55l.3.25-.37.08a8.2 8.2 0 0 1-1.02.16c-.06 0-.12.06-.11.15 0 .08.07.13.12.13.32-.03.87-.1 1.24-.2l.3-.1-.24.93c-.02.09.02.16.08.18.06.02.13-.01.15-.1l.26-1.02h.13l.22-.02.18-.01.01.18c0 .14.03.28.06.42.04.22.13.47.29.6l.04.03h.03a.14.14 0 0 0 .07-.08.18.18 0 0 0 0-.11.3.3 0 0 0-.05-.1 1 1 0 0 1-.15-.4 2.55 2.55 0 0 1-.05-.35l-.01-.2H25.6v-.29h-.5l.26-.76c.03-.08 0-.16-.07-.18-.05-.03-.12 0-.15.08l-.24.7-.45-.91Zm-1.64.39Z" fill="#72D38A"/><path d="M27.87 21.93v-.32c-.22-.1-.41-.28-.55-.44a4.35 4.35 0 0 1-.46-.65.34.34 0 0 1 .1-.45c.15-.1.34-.04.42.1a3.69 3.69 0 0 0 .48.64l-.05-.56a2.37 2.37 0 0 0-.14-.56c-.06-.13-.05-.32.1-.44a.28.28 0 0 1 .43.1c.1.23.17.51.21.8l.07.72.31-.12c.17-.07.34.03.4.2.05.17-.03.36-.2.42l-.5.2v.37c.11 0 .25.02.4.05a3.3 3.3 0 0 0 .24.05l.32.09c.2.07.45.2.53.48l.23.69.13-.16v-1.99c0-.17.12-.33.3-.33s.3.16.3.33v1.22l.92-1.15a.3.3 0 0 1 .44-.03c.12.12.13.33.02.46l-.93 1.18.46.32c.15.1.18.3.1.45a.3.3 0 0 1-.43.1l-.53-.37-.53.67h-.66l-.07-.22c-.09-.24-.28-.78-.33-.97a3.26 3.26 0 0 0-.47-.14h-.05l-.14-.03a1.16 1.16 0 0 0-.28-.04l-.03.36v.1l-.04.47-.28-.36-.09-.1a3.05 3.05 0 0 0-.9-.9.4.4 0 0 0-.1-.05l-.04.03a.53.53 0 0 0-.08.1l-.11.23-.02.05c-.1.22-.2.49-.26.7-.05.16-.2.27-.38.22l-.42.42-.5-.6-.82.27c-.17.06-.34-.05-.38-.22-.05-.17.04-.36.2-.41l.55-.18-1.04-1.25a.35.35 0 0 1 .01-.46.3.3 0 0 1 .44.02l.83 1v-.89c0-.17.13-.33.3-.33.19 0 .32.16.32.33v1.62l.3.35v-.09a6.02 6.02 0 0 1 .54-1.23c.1-.14.25-.29.45-.33.18-.03.35.03.48.1.18.1.34.22.48.36Zm-4.42 3.12c-.24-.2-.47-.4-.73-.54a.19.19 0 0 1-.08-.1.2.2 0 0 1 0-.12l.03-.13c.04-.16.21-.3.4-.21.24.1.47.29.68.47l.24.22.28.25.16-.01-.35-.7a.34.34 0 0 1 .12-.44c.16-.09.34-.02.42.14l.26.5.1-.28c.05-.16.23-.26.4-.19.16.07.23.26.17.43l-.18.5h.43v.67h-.56c0 .1.02.21.04.32.03.16.08.26.12.32.07.08.14.24.07.4a.3.3 0 0 1-.17.18.26.26 0 0 1-.27-.05 1.3 1.3 0 0 1-.35-.7 3.1 3.1 0 0 1-.06-.45l-.2.01-.23.9c-.05.16-.21.28-.39.22-.16-.05-.25-.24-.2-.4l.15-.6c-.38.1-.93.17-1.25.2-.18.01-.32-.14-.33-.31 0-.18.11-.34.28-.35.27-.03.68-.08 1-.15Zm-.81-.77Zm8.46.29.37-.56a.3.3 0 0 1 .43-.07c.14.1.16.31.07.46l-.5.74.46.06.77-.8a.3.3 0 0 1 .44 0c.12.14.11.34 0 .47l-.46.47c.05 0 .1.02.14.03.23.06.45.09.64.05.15-.02.31.07.36.25.04.16-.04.36-.23.4-.32.06-.64 0-.9-.05a6.49 6.49 0 0 1-.22-.06l-.06-.02-.06-.01v.55c0 .17-.13.33-.3.33-.18 0-.3-.16-.3-.33v-.64l-.44-.06v.15c0 .2-.05.46-.2.67-.13.18-.35.13-.45 0-.11-.14-.08-.32-.02-.43a.59.59 0 0 0 .06-.27l-.01-.23a1.4 1.4 0 0 0-.16-.02l.01-.2-.02.2-.16-.02v-.65h.19l-.1-.57c-.03-.17.06-.35.24-.39.17-.03.33.1.36.26l.05.29Z" fill="#FAFBFC"/><path fill="#FF894F" d="M24 30h8v3h-8z"/><path d="M30 25.64v4.63h.3v-4.63H30Zm-2.54 4.63v-4.63h.3v4.63h-.3Zm-1.75-4.63v4.63h.3v-4.63h-.3Zm1 0v4.63h.3v-4.63h-.3Zm1.66 0v4.63h.3v-4.63h-.3Zm.76 4.63v-4.63h.3v4.63h-.3Z" fill="#FF894F"/><path d="M30.04 24.75c.6-.19.96-.45.96-.74 0-.56-1.34-1.01-3-1.01s-3 .45-3 1c0 .3.37.56.96.75-.6.13-.96.32-.96.53 0 .4 1.34.72 3 .72s3-.32 3-.72c0-.21-.37-.4-.96-.53Z" fill="#FF894F"/></svg>