<!-- by TradingView --><svg width="56" height="56" viewBox="0 0 56 56" xmlns="http://www.w3.org/2000/svg"><path fill="#F0F3FA" d="M0 0h56v56H0z"/><path d="M10 26.28C10 14.63 24.61 9.91 32 9c-4.53.8-19 4.67-19 13.91 0 7.4 10.26 11.67 15 13.09v6c-5.88-1.48-18-6.71-18-15.72Z" fill="#2A9118"/><path d="M32 35c-3.75-9.05-12.9-15.1-17-17 7.79 4.48 12.57 13.2 14 17h3ZM39 35c-3.8-8.9-13.84-14.14-18-16 7.89 4.4 13.51 12.26 14.95 16H39ZM45 35c-3.84-9.23-13.79-13.07-18-15 8 4.57 13.46 11.12 14.91 15H45Z" fill="#0278D5"/><path d="m33 27 8-11-4.86 9H41l-6.77 10 3.71-8H33ZM45 38h-1c-.02-.33 0-.62-.43-.62-.57 0-.57 1.19-.57 1.62 0 .43 0 1.62.56 1.62.4 0 .41-.3.44-.63l1 .01c-.04.83-.42 2-1.46 2-1.36 0-1.54-2.04-1.54-3 0-.95.2-3 1.54-3 1.12 0 1.42 1.14 1.46 2ZM38 42v-6h1v2.34h1V36h1v6h-1v-2.34h-1V42h-1ZM35.3 42H34v-6h1.3c1.44 0 1.7 1.92 1.7 3 0 1.07-.25 3-1.7 3Zm-.3-1.38h.27c.8 0 .73-1.06.73-1.62 0-.58.05-1.62-.75-1.62H35v3.24ZM30 42v-6h1.58c.86 0 1.28.7 1.28 1.5 0 .5-.18 1.17-.7 1.34.64.04.84.96.84 1.46 0 .66-.22 1.19-.6 1.48-.19.15-.42.22-.68.22H30Zm1-1.3h.45c.34 0 .55-.26.55-.66 0-.3-.17-.6-.53-.6H31v1.26Zm0-2.27h.4c.31 0 .44-.3.44-.58 0-.37-.18-.57-.43-.57H31v1.15Z" fill="#AD1D14"/></svg>