<!-- by TradingView --><svg width="56" height="56" viewBox="0 0 56 56" xmlns="http://www.w3.org/2000/svg"><path fill="#006D7B" d="M0 0h56v56H0z"/><path d="M39.6 35.6h-2.65l.15-.41c.13-.36.19-.58.17-.68-.01-.1-.12-.14-.33-.14a.68.68 0 0 0-.43.13.82.82 0 0 0-.27.4c-.09.23-.13.4-.13.51 0 .11.08.23.24.37.16.13.52.32 1.08.57.74.33 1.2.65 1.36.94.16.3.14.73-.07 1.29-.24.63-.52 1.1-.84 1.43-.33.31-.77.56-1.32.73a6.2 6.2 0 0 1-1.85.26c-.76 0-1.38-.1-1.85-.28-.47-.19-.74-.44-.83-.76-.08-.31 0-.8.24-1.44l.23-.52h2.65l-.28.64c-.15.41-.22.68-.2.8.02.13.13.2.33.2s.37-.05.49-.13c.11-.08.22-.26.32-.53.14-.37.17-.6.1-.7-.09-.08-.56-.36-1.44-.82-.73-.39-1.14-.74-1.21-1.05-.08-.32-.03-.7.13-1.13.23-.62.5-1.07.82-1.36.31-.3.75-.52 1.3-.68a6.61 6.61 0 0 1 3.4-.04c.41.13.7.3.86.51.17.21.25.41.23.6-.02.18-.1.46-.24.85l-.17.45ZM33 33l-2.78 8h-2.94l.28-.8a2.97 2.97 0 0 1-3.05.6.86.86 0 0 1-.46-.5c-.06-.2-.07-.42-.02-.64.05-.23.2-.69.43-1.36l1.87-5.3h2.9l-1.9 5.35c-.21.6-.32.97-.32 1.09.01.11.12.17.32.17.21 0 .36-.06.44-.18.08-.12.24-.5.47-1.14L30.1 33H33ZM41 28l2.78-8h2.94l-.28.8a2.97 2.97 0 0 1 3.05-.6c.24.12.4.28.46.5.06.2.07.42.02.64-.05.23-.2.69-.43 1.36L47.67 28h-2.9l1.9-5.35c.21-.6.32-.97.32-1.09-.01-.11-.12-.17-.32-.17-.21 0-.36.06-.44.18-.08.12-.24.5-.47 1.14L43.9 28H41ZM19.2 30h2.86c.9 0 1.56.07 1.98.21.42.14.71.43.87.86.16.42.1 1.11-.17 2.06-.2.65-.42 1.1-.7 1.35a2.9 2.9 0 0 1-1.36.58c.62.15 1 .4 1.13.75.13.34.1.87-.12 1.59l-.3 1.02a5.1 5.1 0 0 1-.73 1.65c-.27.36-.61.6-1.02.73-.41.13-1.19.2-2.34.2H16l3.2-11Zm2.2 2-.6 2.33h.29c.28 0 .48-.08.6-.21.11-.14.15-.42.34-1.07.1-.35.14-.59.11-.72-.02-.14-.08-.23-.17-.27a1.95 1.95 0 0 0-.57-.06Zm-1.06 4-.94 3c.41-.01.68-.08.83-.19.14-.11.28-.27.4-.72l.35-1.06c.14-.48.17-.76.1-.86-.07-.1-.32-.16-.74-.17ZM41.7 22.85l-.67 1.9c-.25.69-.47 1.2-.67 1.52-.2.32-.5.63-.87.91-.38.28-.81.49-1.3.62-.48.13-1 .2-1.58.2-.63 0-1.15-.06-1.55-.17-.4-.12-.68-.29-.84-.52a1.36 1.36 0 0 1-.22-.83c.01-.33.14-.83.37-1.48l.7-1.98a5.6 5.6 0 0 1 .89-1.68c.33-.4.79-.73 1.37-.97a5.16 5.16 0 0 1 2.02-.37c.64 0 1.16.08 1.56.24.41.15.7.36.86.61.16.25.24.51.23.78 0 .27-.1.67-.3 1.22Zm-2.65-.58c.14-.4.2-.64.19-.75-.02-.1-.11-.15-.28-.15a.5.5 0 0 0-.4.15c-.1.1-.2.35-.35.75l-1.24 3.48c-.13.37-.19.6-.17.72.02.1.1.16.27.16s.3-.05.4-.15c.08-.1.19-.32.3-.65l1.28-3.56ZM35 20l-2.28 6.62c-.31.87-.54 1.44-.68 1.7-.13.25-.4.52-.8.8-.4.29-.88.5-1.46.65-.58.15-1.27.23-2.07.23-.98 0-1.72-.14-2.22-.42-.33-.18-.5-.47-.49-.88 0-.22.05-.42.14-.7h3c-.14.37-.04.51.29.51.23 0 .4-.05.52-.17a2 2 0 0 0 .37-.71l.22-.64c-.33.2-.66.35-1 .45-.32.1-.65.15-.97.15-.55 0-.98-.09-1.27-.27a.94.94 0 0 1-.48-.73c-.03-.3.06-.74.26-1.3l1.07-3.04c.29-.8.66-1.37 1.13-1.72a2.88 2.88 0 0 1 1.77-.53c.39 0 .71.07.98.2.28.13.5.32.65.58l.45-.78H35Zm-3.88 2.38c.13-.38.2-.63.17-.73-.01-.11-.1-.16-.3-.16a.6.6 0 0 0-.44.18c-.11.12-.23.36-.36.71l-1 2.82c-.13.38-.18.62-.17.74.02.1.12.16.3.16.2 0 .36-.07.46-.2.11-.14.25-.44.42-.92l.92-2.6ZM27 18l-.39 1h-2.8l.38-1H27Zm-.58 2-2.61 8H21l2.62-8h2.8ZM17.86 23h-2.63l.18-.39c.59-1.67 2-2.61 4.08-2.61 1.06 0 2.64.27 2.5 1.46-.04.4-.29 1.25-.73 2.53L19.76 28h-2.72l.38-.83c-.27.28-.56.49-.88.63-.32.13-.67.2-1.04.2-.49 0-.9-.11-1.23-.34-.33-.24-.36-.74-.08-1.52l.22-.64c.2-.57.44-.97.73-1.18.3-.2.92-.45 1.88-.73 1.02-.3 1.59-.5 1.69-.61.1-.1.2-.32.32-.64.14-.4.2-.67.16-.79-.03-.12-.12-.18-.29-.18-.19 0-.32.05-.4.15-.09.1-.2.37-.35.8l-.29.68Zm.52 1.19c-.54.27-.88.5-1.02.7a3.2 3.2 0 0 0-.39.8c-.14.4-.2.65-.18.77.03.11.13.17.32.17.17 0 .3-.04.38-.13.1-.1.2-.33.34-.72l.55-1.6ZM15.53 20.42h-2.9l.26-.57c.12-.37.17-.6.12-.7-.04-.1-.14-.15-.32-.15-.37 0-.65.26-.84.82-.11.35-.15.4-.1.58.05.18.27.4.67.64 1.14.73 1.82 1.32 2.03 1.79.2.46.13 1.21-.2 2.25C13.55 27.12 11.93 28 9.8 28c-.83 0-1.5-.14-2-.42-.5-.28-.76-.63-.8-1.06-.04-.43.07-1.04.33-1.83l.23-.7h2.9l-.43 1.08c-.13.4-.18.65-.13.76.04.11.17.17.38.17.42 0 .7-.08.9-.64.2-.62.24-1.03.11-1.22a5.7 5.7 0 0 0-1.14-.96 9 9 0 0 1-1.21-.98c-.19-.2-.3-.49-.35-.85-.04-.36.03-.82.21-1.38.68-2.05 2.23-2.97 4.37-2.97.84 0 2.6.13 2.8 1.22a4 4 0 0 1-.31 1.78l-.14.42Z" fill="#fff"/></svg>