<!-- by TradingView --><svg width="56" height="56" viewBox="0 0 56 56" xmlns="http://www.w3.org/2000/svg"><path fill="#F0F3FA" d="M0 0h56v56H0z"/><path d="M39 32c0 2.35-1.72 4-4.53 4-2.8 0-4.47-1.91-4.47-4.26v-4.48C30 24.9 31.66 23 34.45 23c2.8 0 4.55 1.67 4.55 4h-2c0-1.2-1.17-2-2.55-2-1.4 0-2.45 1.03-2.45 2.26v4.48C32 33 33.06 34 34.47 34c1.44 0 2.53-.76 2.53-2h2ZM25.42 27c0-1.23-1-2-1.99-2-.93 0-1.93.5-1.93 1.42 0 .89.92 1.36 2.01 1.73l1.22.42c1.93.7 3.27 1.74 3.27 3.72 0 2.38-2.24 3.71-4.47 3.71C21.2 36 19 34.63 19 32h2c0 1.24 1.23 2 2.53 2 1.2 0 2.47-.58 2.47-1.63 0-1-1.25-1.49-2.3-1.85l-1.24-.42c-2.08-.76-2.96-1.77-2.96-3.58 0-2.05 1.53-3.52 3.93-3.52 2.43 0 4.26 1.83 4.26 4h-2.27ZM9 23h4.55c2.93 0 3.95 1.8 3.95 3.5 0 .95-.23 1.83-1.56 2.41A3.28 3.28 0 0 1 18 32c0 2.05-1.37 4-4.14 4H9V23Zm5.13 7H11v4h3.13c1.14 0 1.87-.85 1.87-2 0-1.04-.73-2-1.87-2Zm-.42-5H11v3h2.69c1.17 0 1.81-.53 1.81-1.5s-.64-1.5-1.8-1.5Z" fill="#255CAC"/><path d="M45 20h-9l4.8-5H45v5Z" fill="#FEB326"/><path d="M43 18v10l5-5.34V18h-5Z" fill="#11AE8F"/><path d="M42.1 18H45v2.99L43 23v-3h-3l2.1-2Z" fill="#255CAC"/></svg>