<!-- by TradingView --><svg width="56" height="56" fill="none" xmlns="http://www.w3.org/2000/svg"><path fill="#CE202F" d="M0 0h56v56H0z"/><path fill-rule="evenodd" clip-rule="evenodd" d="M30.469 13.96c.078.009.148-.156.052-.353h.001c-.061-.115-.471-.617-1.491.205.33-.031.577.023.811.075.202.045.396.088.627.073Zm1.134-.095c0-.156-.142-.399-.348-.342h-.002c-.195.059-.244.294-.226.454.193.021.352-.034.5-.086l.076-.026Zm4.371 13.199c.033.335.043.943-.026.97-.059-.09-.423-.726.026-.97ZM31.54 34.03l.01-.005-.007.001-.003.004Zm-2.329.436c.64.02 1.728-.167 2.33-.436-.062.068-1.072 1.148-3.912.943-1.086.027-2.152-.558-2.566-.786-.058-.031-.103-.056-.134-.071-.182-.089-.248-.019-.27.08-.005.155.114.51 1.206.746h-.041l.063.015a4.176 4.176 0 0 1-.445-.048h-.03l-.066-.01h-.025a4.182 4.182 0 0 1-1.45-.529 1.56 1.56 0 0 1-.397-.308 1.937 1.937 0 0 1-.419-.577 6.957 6.957 0 0 1-1.323-.66 2.54 2.54 0 0 0-.114.433c-.197-.127-.602-.547-.842-1.211a3.976 3.976 0 0 1-.954-1.548 4.067 4.067 0 0 1-.175-1.823c.169-1.473 1.409-2.482 2.612-2.378-.655-.518-1.726.022-1.917.28.132-1.143 1.53-1.354 2.53-1.505.479-.072.867-.13.983-.27 0 .429-.104.519-.31.697a7.242 7.242 0 0 0-.05.043c.473-.062.745-.012.987.033.295.054.546.1 1.063-.071-.28.442-.562.53-.85.618-.162.05-.327.102-.492.218.346.1.71.128 1.06.155.825.064 1.555.121 1.696 1.104-.484-.537-.902-.465-1.435-.373-.393.068-.849.147-1.44 0 .205.169.461.248.736.334.388.121.814.254 1.196.663-.455-.2-.838-.196-1.276-.191-.41.004-.868.009-1.478-.154.53.623.553 1.078.465 1.578-.38-.904-1.006-1.05-1.547-1.176-.334-.079-.636-.149-.826-.387-.595.227-.558 1.453-.09 2.2.868 1.37 3.221 2.384 6.073 1.732 2.938-.672 3.62-2.664 2.575-4.242 1.299 2.88-2.985 4.724-6.34 3.54.495.1 1.487.154 2.08.026a.54.54 0 0 1-.226-.474c.398.322 1.319.346 1.58.231-.203-.116-.344-.478-.27-.65.35.14 1.158.292 1.703.113-.369-.163-.666-.546-.685-.728.435.125 1.345.213 1.697-.198-.298.02-.797-.253-.942-.474.59 0 1.06-.571 1.06-1.085l-.023.01c-.202.09-.25.112-.435.089.398-.873-.132-1.381-.752-1.754-.78-.435-1.748-.81-2.733-1.19-1.116-.432-2.251-.871-3.154-1.415-1.202-.725-1.9-1.847-2.033-3.01a2.086 2.086 0 0 0-.514-.504c-.31.362-.226.673-.131 1.02.128.474.274 1.015-.54 1.846.348-.5.17-1.07-.004-1.633-.14-.45-.28-.897-.144-1.296l.12-.268a1.368 1.368 0 0 1-.342-.187c-.049-.297-.032-.482-.016-.658a1.83 1.83 0 0 0-.037-.668c-.05-.064-.398-.12-.653.154a.144.144 0 0 1-.089.05L18 17.94c.309.048.637-.2.671-.445-.003-.123 0-.189.007-.293l.011-.2c.045-.832-.373-1.376-.65-1.358.244-.327.686-.322.741-.113.113.4.24.793.363.776.121-.016.36-.996-.09-1.124.421-.186.853-.113.752.267l-.052.192c-.091.333-.185.675-.117.696.082.024.709-.753.561-.998.636.197.33.582.234.69-.024.027-.058.052-.098.082a.946.946 0 0 0-.4.568c-.03.126.57.061.64-.216.173.22.228.572.036.61-.047.01-.098.019-.151.028-.261.043-.574.095-.725.458-.162.391.037.773.13.953l.028.054c.223.19.48.33.757.415.392-1.035 1.294-1.955 2.774-2.458-.414-.297-.734-.657-1.035-.996-.48-.54-.912-1.026-1.6-1.12.848-.176 1.293.156 1.77.511.466.349.963.719 1.898.655-.83-.4-1.33-.857-1.751-1.24-.668-.61-1.139-1.038-2.405-.783 1.296-.794 2.295-.138 3.204.46.416.273.814.535 1.212.638-.315-.195-.583-.486-.856-.78-.529-.575-1.075-1.167-2.024-1.117 1.305-.314 2.043.234 2.777.78.831.617 1.658 1.23 3.296.588-1.586-.262-2.884-1.462-3.034-2.36-.02-.1.107-.126.171-.05.793 1.009 1.95 1.658 2.614 1.776-.54-.378-.871-1.209-.762-1.702a.078.078 0 0 1 .027-.041.075.075 0 0 1 .092 0c.013.01.022.024.027.04.358 1.196 1.401 1.566 1.768 1.584.126-.216-.078-.627-.205-.71.111-.075.839-.049 1.77.384.081-.044.116-.268.014-.46a.612.612 0 0 1 .473.162.648.648 0 0 1 .212.464c.163-.031.578-.206.716-.394.26.434.066.93-.047 1.034a3.373 3.373 0 0 0 1.042-.394 1.76 1.76 0 0 1 .54-.493c.007-.119.073-.245.219-.395.483-.51.404-.93.07-.783a.13.13 0 0 1-.18-.09c-.207-.577-1.063-.552-1.094.04-.023.329.212.448.36.372a.216.216 0 0 0 .12-.138.229.229 0 0 0-.024-.183c-.024-.04 0-.062.036-.05.064.018.103.118.09.227-.025.311-.443.435-.67.248-.228-.188-.302-.622.06-1.016.293-.315 1.026-.27 1.348.336.529-.163.618.348.459.626-.08.143-.186.242-.281.332-.111.104-.21.196-.239.33.218-.09.428-.123.569-.066.279.115.306.545.227.855.151.16.554.324.778.006.033-.05.09.028.136.09l.016.021c.371.473.849.354.766.006a2.01 2.01 0 0 0-.01-.044c-.016-.072-.028-.122.018-.138.055-.02.671-.354.575-.822-.084-.418-.53-.49-.818-.435-.513.143-.495.737-.219.697.233-.04.13-.251.096-.29-.064-.066.078-.051.127 0a.255.255 0 0 1 .02.286c-.024.053-.282.318-.535.064-.133-.138-.212-.774.517-.986.73-.212 1.117.252 1.099.744-.018.49-.362.726-.666.857.173.515-.627.997-1.106.16-.263.344-.692.135-.883.006a.413.413 0 0 1-.044.059c.01.076.068.159.123.238.037.053.073.103.093.15.087.159.023.252-.077.398l-.026.038c.184.307.096.75-.104.998a1.42 1.42 0 0 0-.214-.902c-.011.167-.084.407-.264.473.048-.204-.049-.455-.12-.506-.021.197-.18.447-.321.463.086-.33-.115-.472-.201-.509.01.364-.062.676-.288.888.044-1.032-.683-.785-.841-.715-.764.35-1.095 1.176-1.005 1.7a2.18 2.18 0 0 0-1.587.464c1.008-.413 1.758-.097 2.023.05-.255.326-.121.33.124.339.272.008.68.021.844.485-.325-.163-.945-.084-1.389-.027-.077.01-.149.02-.213.027-.311.03-.242-.505-.078-.651-1.672.94-3.059-.743-1.563-1.874.287-.19.599-.337.926-.434-1.462.058-1.947.016-2.618-.19-.012 0 .22.455.807.69-.288.394-1.238.694-1.774.843a.214.214 0 0 1 .024.024c1.596.026 1.767.432.606 1.83 1.6-.906 1.52-.152 1.442.575a3.37 3.37 0 0 0-.03.531c.653-1.283 1.635-1.136 2.505-1.006.922.138 1.72.257 1.867-1.361.197.165.255.561.26.748.167-.063.392-.098.57 0 .105-.215.154-.456.142-.697.225.356.223.543.222.678-.001.1-.002.172.088.263.083.106.01.291-.054.452-.046.116-.087.22-.058.268.733 1.22.212 1.706-.206 2.095-.073.068-.143.133-.203.2.22-.546.199-1.357-.383-1.532.123.91-1.007 1.633-1.41 1.584 1.895-1.578-2.459-2.767-3.81-.268a6.546 6.546 0 0 1-.353-1.25c-.709.102-1.01.242-1.467.538-.092-.73.237-1.775.237-1.775s-.648-.028-1.031 0c.156-.355.39-.62.586-.846.05-.056.097-.11.14-.161a1.657 1.657 0 0 1-.879-.53c.316-.038 1.002-.38 1.034-.967-.642.584-1.112.658-1.688.69.145.338.482.833.8.95-.358.393-.504.872-.6 1.358.173-.052.859-.152 1.162-.099-.098.168-.169.35-.211.54-.638.176-1.037.501-1.078.816-.057.4.748.773 1.726 1.136.417.106.923.11 1.829-.039 1.24-.202 1.802.343 1.802.343-.082-.078-.573-.236-.833.042-.261.278.412.647.958.71.267.03.531.087.787.17 1.091.18 1.75.884 2.246 1.415.342.364.606.647.882.622-.327-.19-.593-.581-.575-.65.02-.075.074-.168.133-.27.106-.184.23-.397.21-.592-.051-.109-.205-.27-.364-.438-.056-.057-.111-.116-.163-.173-.204-.223-.138-.537.287-.704-.115-.361.036-.558.542-.484-.075.073-.227.27-.121.438.11.174.163.447.193.609.015.08.026.133.035.133.02 0 .026-.191.033-.365.004-.09.007-.175.011-.227.003-.024.004-.053.006-.086.014-.28.04-.82.717-.445-.19.023-.278.209-.278.406-.004.213-.093.498-.153.687-.035.111-.06.19-.05.2.055.085.2-.116.399-.394.198-.278.714-.164.677.174-.172-.143-.87.412-.949.664-.116.367.358.887.676.592.267.434-.446.66-.63.223-.076-.18-.34-.186-.34-.135-.006.142.022.29.052.453.057.308.124.67.003 1.151-.6-.201-.856-.201-1.08-.026-.096-.46-.527-.942-1.042-1.381l-.023-.015c-.194-.143-.535-.135-.373.131 1.284 1.035 2.297 2.361 2.434 3.97-.361-.896-1.195-1.182-1.785-.923 1.252.181 1.57 1.278 1.83 2.182.168.577.312 1.075.662 1.207-.272-.39-.373-.976-.318-1.044.062-.07.167-.144.283-.225.213-.15.464-.324.544-.558-.004-.148-.093-.409-.186-.682-.033-.096-.067-.194-.097-.29-.116-.362.118-.678.681-.634.056-.469.326-.61.857-.251-.122.042-.394.178-.36.427.037.258-.044.596-.092.794-.023.096-.038.16-.029.166.018.011.11-.174.201-.355a5.63 5.63 0 0 1 .15-.286l.048-.093c.158-.308.463-.901 1.034-.111-.225-.08-.416.085-.518.304-.115.243-.364.518-.528.7-.095.103-.161.176-.157.194.021.123.286-.023.651-.228.365-.205.885.202.671.562-.12-.252-1.187-.008-1.404.232-.321.353-.05 1.192.456 1.038.078.631-.839.499-.822-.093.006-.244-.287-.394-.315-.335-.077.156-.122.337-.17.537-.094.377-.203.822-.583 1.296.052 1.46-.613 1.6-1.354 1.756-.493.104-1.02.214-1.391.727.292-.814.877-1.116 1.362-1.366.543-.28.962-.497.709-1.291.05.04-.077-.065-.257-.216l-.398-.332c-.006.014-.015.027-.023.04l-.015.025a.577.577 0 0 1-.202.346 5.504 5.504 0 0 1-1.438 1.5c.134.088.283.147.44.174-.457.645-1.91.861-2.997 1.023-.121.018-.237.035-.347.053-.02 0-.04.003-.057.005-.025.002-.048.004-.07.004a.292.292 0 0 0-.195.083.309.309 0 0 0-.093.195c-.008.198.113.358.425.395ZM24.374 41h.68c.649 0 1.131-.195 1.131-.784 0-.553-.509-.896-1.204-.896h-.607V41Zm.497-4h-.497l.004 1.456h.462c.65 0 1.013-.288 1.013-.795 0-.433-.329-.661-.982-.661Zm1.952 1.37c-.207.248-.5.41-.822.45l-.003.003c.955.118 1.592.59 1.592 1.585a1.42 1.42 0 0 1-.841 1.27c-.463.218-.906.322-1.552.322H23v-5.276a.929.929 0 0 0-.085-.357l-.023-.047c-.054-.109-.123-.25-.206-.32h2.68c.541 0 .96.19 1.261.418a1.306 1.306 0 0 1 .532 1.09 1.376 1.376 0 0 1-.336.862Zm6.25 2.443v-.01l.008.003-.009.007ZM32.89 42l.182-1.187c-.197.147-.523.17-.725.184-.016 0-.032.002-.046.003h-1.935v-1.676H32v-.867h-1.634V37h1.944s.331-.048.47.173V36h-4.1c.312.127.323.727.323.727V42h3.887Zm3.469 0c.61 0 1.16-.098 1.561-.295l-.156-.925c-.078.053-.499.308-1.27.308-1.004 0-1.494-.691-1.494-2.077 0-.58.016-1.053.249-1.422.284-.457.716-.688 1.29-.688.709 0 1.04.344 1.124.454l.19-1.134a4.714 4.714 0 0 0-1.54-.22c-.911 0-1.628.295-2.144.892-.475.544-.712 1.25-.712 2.118 0 .904.226 1.62.682 2.138.496.567 1.262.851 2.22.851Zm-22.55-.002c1.59 0 2.466-.755 2.466-1.856l-.01-.002c0-.968-.587-1.472-1.624-1.837-.736-.257-1.302-.478-1.302-.795 0-.316.375-.61 1.063-.61.479-.007.953.09 1.391.282V36.14c-.47-.095-.95-.14-1.43-.137-.62 0-1.174.122-1.602.365a1.523 1.523 0 0 0-.76 1.345 1.339 1.339 0 0 0 .393 1.01c.227.25.646.444 1.137.634l.096.036c.681.257 1.18.445 1.18.947 0 .336-.328.758-1.09.758a2.408 2.408 0 0 1-1.2-.295 1.442 1.442 0 0 1-.498-.471v1.36c.577.197 1.18.3 1.79.307Zm7.07.002h1.436l-2.106-6H18.38s.309.25.143.689L16.647 42h1.08l.405-1.222c.74-.14 1.489-.234 2.24-.28L20.879 42Zm-.506-1.502c-.364-.396-.806-.917-.806-.917-.278.084-.903.325-1.162.44l.899-2.483 1.069 2.96Zm19.417-1.486c-.003 1.433.618 2.151 1.39 2.151.77.002 1.395-.708 1.399-2.144.004-1.435-.62-2.198-1.39-2.2-.769 0-1.396.76-1.4 2.192Zm-1.423 0c0-1.982 1.259-3.01 2.812-3.01h.006c1.555 0 2.815 1.024 2.815 3.004s-1.262 2.988-2.815 2.988-2.819-1.001-2.819-2.983Z" fill="#fff"/></svg>