<!-- by TradingView --><svg width="56" height="56" viewBox="0 0 56 56" xmlns="http://www.w3.org/2000/svg"><path fill="#F0F3FA" d="M0 0h56v56H0z"/><path d="M15.3 15A19.29 19.29 0 0 0 11 26.94c0 8.3 5.9 16.59 14.33 17.86a18.15 18.15 0 0 0 5.34 0C39.1 43.53 45 35.24 45 26.94c0-4.4-1.62-8.52-4.3-11.94a106.37 106.37 0 0 0-7.68 7.57c-2.25 2.54-2.91 5.84-3.08 9.13l2.29.12c.14-2.75.6-5.56 2.49-7.69 1.5-1.69 3.9-4.04 5.64-5.67a17.3 17.3 0 0 1 2.35 8.48c0 6.4-4.25 14-10.71 15.63V39h-3v3.94c-.44.04-.53.06-1 .06s-.56-.02-1-.06V39h-4v2h1v1.57c-6.46-1.62-11-9.23-11-15.63 0-3.62 1.61-6.74 2.64-8.48 1.74 1.63 4.15 3.98 5.64 5.67 1.89 2.13 2.36 4.94 2.5 7.69l2.28-.12c-.17-3.29-.83-6.6-3.08-9.13A106.37 106.37 0 0 0 15.31 15Z" fill="#00781B"/><path d="m28 10 .47 1.53H30l-1.24.94.48 1.53-1.24-.94-1.24.94.48-1.53-1.24-.94h1.53L28 10ZM26 30l2-3 2 3-2-13-2 13Z" fill="#FE141C"/><path d="M13.8 36.67a20.66 20.66 0 0 1 28.42.01c-.18.29-.36.57-.56.85a19.67 19.67 0 0 0-27.3-.02c-.2-.27-.39-.55-.57-.84Zm2.62 3.27.75.68A17.92 17.92 0 0 1 28 37c4.07 0 7.83 1.35 10.85 3.63l.74-.68A18.92 18.92 0 0 0 28 36c-4.36 0-8.38 1.47-11.58 3.94Z" fill="#00781B"/><path d="m34.25 35.84-.4-.15 1.07-1.3.5.17-.05 1.68-.4-.14.06-1.25-.78.99Zm.16-.61.83.3-.1.27-.83-.3.1-.27ZM33.1 33.94l.4.08-.2 1.04a.56.56 0 0 1-.43.46.92.92 0 0 1-.4 0 .92.92 0 0 1-.35-.14.59.59 0 0 1-.22-.25.56.56 0 0 1-.03-.33l.2-1.04.4.07-.18 1a.27.27 0 0 0 .1.28c.04.04.1.06.15.07h.17a.28.28 0 0 0 .2-.23l.18-1ZM26.88 33.69v-.33h1.46v.33h-.52v1.35h-.42v-1.35h-.52ZM24.4 35.19l-.1-1.56.4-.03.03.63.63-.04-.04-.63.39-.02.1 1.56-.38.02-.05-.62-.63.04.05.62-.4.03ZM30.8 35.2l.18-1.56-.39-.04-.07.62-.63-.07.07-.62-.38-.04-.19 1.55.39.04.07-.62.63.07-.07.62.38.05ZM23.1 33.84l.4 1.5-.32.1-.88-.71.23.87-.38.1-.42-1.5.34-.1.86.71h.02l-.24-.87.38-.1ZM38 35.47l-1.05 1.89-.3-.16.03-1.4-.61 1.08-.35-.19 1.04-1.88.3.16-.03 1.4h.02l.6-1.09.35.19ZM20.9 36.13l-.62-1.49.44-.17.62 1.49-.45.17Zm-.47-1.75a.24.24 0 0 1-.18 0 .24.24 0 0 1-.14-.14.23.23 0 0 1 0-.18c.03-.06.07-.1.14-.13a.24.24 0 0 1 .18 0c.07.03.11.07.14.13.02.07.02.13 0 .2a.23.23 0 0 1-.14.12ZM18.93 37.12 18 35.48l.7-.38c.12-.07.24-.11.34-.12.1-.01.2 0 .27.04.08.04.14.1.2.18a.4.4 0 0 1 .05.19.4.4 0 0 1-.04.18.5.5 0 0 1-.13.16l.01.01a.47.47 0 0 1 .22-.05.44.44 0 0 1 .38.24.48.48 0 0 1-.04.55.85.85 0 0 1-.28.23l-.75.41Zm.22-.54.25-.14c.1-.05.15-.1.17-.15a.18.18 0 0 0-.02-.17.23.23 0 0 0-.09-.1.23.23 0 0 0-.12-.02c-.05 0-.1.02-.15.05l-.26.14.22.39Zm-.36-.65.22-.12a.34.34 0 0 0 .1-.09.19.19 0 0 0 .02-.22.18.18 0 0 0-.13-.1.29.29 0 0 0-.19.05l-.23.12.2.36Z" fill="#FE141C"/></svg>