<!-- by TradingView --><svg width="56" height="56" viewBox="0 0 56 56" xmlns="http://www.w3.org/2000/svg"><path fill="#F0F3FA" d="M0 0h56v56H0z"/><path d="M36.98 12c1.63.3 2.64 1.2 3.02 2.7v26.58c-.37 1.5-1.37 2.4-2.98 2.72h-18c-1.63-.3-2.64-1.2-3.02-2.7V14.71c.37-1.5 1.37-2.4 2.98-2.71h18Z" fill="#FFF8AE"/><path d="M27.9 14c3.03-.05 5.78 1.06 8.25 3.34.62.57.9 1.26.84 2.08-.02.35-.13.38-.33.07a9.59 9.59 0 0 0-3.73-3.3 10.5 10.5 0 0 0-5.01-1.16c-1.78.03-3.43.47-4.96 1.32a9.5 9.5 0 0 0-3.6 3.43c-.2.31-.3.29-.34-.06-.1-.81.16-1.51.76-2.1 2.38-2.36 5.09-3.57 8.12-3.62Z" fill="#00963F"/><path d="M28 22a3 3 0 1 0 0-6 3 3 0 0 0 0 6Z" fill="#EC1D24"/><path d="M28.06 22.83c.13 0 .23.04.31.12.09.08.12.4.1.97v.4c0 .13.06.16.17.1.36-.2.74-.44 1.15-.74.35-.25.83-.41 1.44-.48.62-.06 1.2 0 1.75.17 1.07.35 1.93.53 2.58.55.97.03 1.83-.23 2.58-.8.26-.19.37-.13.34.19-.03.24-.14.53-.35.85a6.67 6.67 0 0 1-4.2 3.03 5.58 5.58 0 0 1-5.04-1.2c-.22-.18-.32-.13-.3.14l.34 6.26c0 .13-.06.2-.2.22a12.41 12.41 0 0 1-1.28 0c-.14 0-.2-.08-.2-.22l.3-6.26c.01-.27-.09-.32-.3-.14a5.56 5.56 0 0 1-5.04 1.24A6.7 6.7 0 0 1 18 24.22c-.2-.32-.32-.6-.35-.85-.04-.31.07-.37.33-.18.76.56 1.62.82 2.6.78.64-.02 1.5-.21 2.57-.57a4.2 4.2 0 0 1 1.75-.17c.6.06 1.1.21 1.44.46.4.3.8.54 1.15.73.11.06.17.03.18-.1l-.01-.4c-.02-.56 0-.89.1-.97a.44.44 0 0 1 .3-.12Z" fill="#00963F"/><path d="M25.34 24.98c-.6-.01-1.36.02-2.27.09-.37.03-.68-.17-.93-.6-.08-.12-.05-.2.09-.26.62-.26 1.3-.42 2.07-.46.38-.03.7.1.93.4l.34.4c.24.3.16.44-.23.43ZM30.9 24.89a6.2 6.2 0 0 1-1.72.17c-.25.02-.3-.06-.12-.24.41-.42.92-.72 1.52-.9.6-.19 1.2-.23 1.78-.11.24.04.26.13.05.26l-.3.18c-.55.35-.95.56-1.21.64ZM32.08 25.06c-.12 0-.13-.04-.04-.1l1.12-.86a.4.4 0 0 1 .4-.06l1.15.4c.18.05.2.14.05.25l-.19.14c-.2.15-.43.23-.68.23h-1.81ZM26.38 24.85c.3.23.62.34.7.24.08-.1-.1-.36-.41-.6-.3-.22-.62-.33-.7-.24-.08.1.1.37.41.6ZM19.6 24.66l-.15.11c-.01.02-.03.01-.05 0l-.07-.1c-.05-.06-.03-.1.05-.1l1.77-.18c.17-.01.32.05.43.18l.14.17c.12.16.09.25-.12.27-.32.04-.73-.04-1.22-.23-.28-.1-.48-.16-.6-.17a.27.27 0 0 0-.18.05ZM35.93 24.8c.3-.1.52-.24.49-.33-.03-.08-.3-.08-.6.01-.3.1-.51.25-.48.33.03.1.3.09.6 0ZM36.6 24.88c.02-.05.04-.08.06-.08.04-.02.07 0 .1.03.02.03.02.06 0 .1-.42.54-.99.96-1.7 1.26-.33.14-.54-.01-.64-.44-.03-.15.03-.23.18-.23a3.96 3.96 0 0 0 1.95-.56.13.13 0 0 0 .05-.08ZM20.66 25.71a.85.85 0 0 0 .25-.08.7.7 0 0 1 .34-.09h2.35c.04 0 .07.02.1.06.01.03 0 .07-.02.1-.85.93-1.75 1.1-2.71.51a2.6 2.6 0 0 1-.27-.2 2 2 0 0 0-.46-.3c-.21-.1-.34-.17-.4-.24-.15-.17-.23-.3-.23-.37 0-.1.04-.14.14-.1.36.15.58.33.65.56.04.13.13.18.27.15ZM26.57 25.45c.36-.02.4.08.11.3a5.72 5.72 0 0 1-3.46 1.12c-.12 0-.14-.03-.04-.1l1.5-1.14c.08-.06.17-.1.28-.1l1.6-.08ZM29.57 25.97c.25.21.52.3.61.21.09-.1-.04-.34-.28-.56-.25-.21-.52-.3-.61-.2-.1.09.03.34.28.55ZM30.74 25.9c-.21-.31-.12-.44.26-.4.6.08 1.36.13 2.28.14.37.01.66.24.86.69.06.12.02.21-.12.25-.64.2-1.34.29-2.1.26a1.05 1.05 0 0 1-.9-.5l-.28-.43Z" fill="#FFF8AE"/><path d="M27.92 34.96c1.78.03 3.45-.36 5.01-1.16 1.56-.8 2.8-1.9 3.73-3.31.2-.3.3-.28.33.08.06.8-.22 1.5-.84 2.07-2.47 2.29-5.22 3.4-8.25 3.36-3.03-.05-5.73-1.25-8.12-3.62a2.46 2.46 0 0 1-.76-2.1c.03-.35.15-.37.33-.06a9.48 9.48 0 0 0 3.61 3.43 10.4 10.4 0 0 0 4.96 1.31Z" fill="#00963F"/><path fill-rule="evenodd" d="m26.1 40.51-1.42-.45a.45.45 0 0 1-.23-.17c-.25-.32-.34-.64-.28-.96.06-.29.23-.52.5-.7.28-.18.6-.26.94-.22.38.03.72.2 1.02.48.06.05.1.12.11.19.12.49.04.7-.22.61a.55.55 0 0 1-.3-.2c-.29-.43-.63-.57-1.02-.42-.33.13-.44.33-.34.6.04.13.13.2.27.22.68.08 1.18.27 1.5.55.42.35.47.81.14 1.37-.28.5-.78.68-1.5.55-.74-.14-1.11-.51-1.14-1.13 0-.15.07-.2.23-.17.23.05.4.15.5.3.32.48.76.53 1.32.17.13-.09.18-.2.16-.34-.02-.14-.1-.23-.25-.28Zm2.05-.51c0 .46.1.82.33 1.08.14.16.32.24.55.24.24 0 .42-.1.55-.27l.07-.1c.17-.23.34-.36.51-.38.1 0 .2.01.27.05.13.07.16.17.09.3-.56.94-1.22 1.27-1.99.98-.74-.28-1.11-.92-1.11-1.9 0-.99.38-1.62 1.12-1.9.77-.29 1.43.04 1.98.99.08.13.05.23-.09.3a.48.48 0 0 1-.27.04c-.17-.02-.34-.15-.5-.38a3.02 3.02 0 0 0-.07-.1.66.66 0 0 0-.55-.26.68.68 0 0 0-.56.23c-.22.25-.32.61-.32 1.08Zm4.45-.68.37.03c.17.02.26.1.26.26v1.98c0 .22.12.33.37.33h.14c.18 0 .26-.08.26-.24l-.04-3.27c0-.1-.02-.16-.07-.2-.06-.05-.14-.08-.25-.07a.36.36 0 0 0-.3.2.99.99 0 0 1-.7.5c-.13.03-.2.1-.22.2a.36.36 0 0 0 0 .13c.01.1.08.14.18.15Zm-10.87 2.44V40.7c0-.14.07-.2.22-.18.54.06.97-.04 1.3-.29.29-.22.45-.51.48-.88.03-.35-.06-.66-.29-.92a1.26 1.26 0 0 0-1-.43c-.69 0-1.1 0-1.26.03-.12 0-.18.07-.18.18v3.55c0 .11.06.19.18.21.15.03.27.04.37.01.12-.03.18-.1.18-.22Zm.22-3.08c-.15 0-.23.07-.23.22v.74c0 .14.08.21.23.21h.44c.4 0 .6-.16.6-.5v-.17c0-.33-.2-.5-.6-.5h-.44Zm10.03 3.07c.08-.5-.07-.74-.47-.75-.4 0-.57.24-.5.74.03.17.2.26.49.26s.45-.08.48-.25Z" fill="#00963F"/></svg>