<!-- by TradingView --><svg width="56" height="56" viewBox="0 0 56 56" xmlns="http://www.w3.org/2000/svg"><path fill="#F0F3FA" d="M0 0h56v56H0z"/><path d="M25 22h-3v2h3v11h3V24h7v-2H25Z" fill="#49379E"/><path d="M36 32a9.11 9.11 0 0 1-8.03 5C23 37 19 32.75 19 27.5s4.01-9.5 8.97-9.5A8.85 8.85 0 0 1 36 23.19l-1.28.81a6.75 6.75 0 0 0-6.17-4C24.77 20 22 23.49 22 27.5s2.77 7.5 6.55 7.5a6.8 6.8 0 0 0 5.94-3.63L36 32Z" fill="#F95201"/><path fill-rule="evenodd" d="M31.09 24H29v9h2.09C33.8 33 36 30.99 36 28.5S33.8 24 31.09 24Zm.01 2H31v5h.1c1.6 0 2.9-1.12 2.9-2.5S32.7 26 31.1 26Z" fill="#F95201"/><path fill-rule="evenodd" d="M47 41 28 8 9 41h38Zm-4.2-6.22L28 9 13.2 34.78c-.57.99.14 2.22 1.27 2.22h27.06a1.48 1.48 0 0 0 1.27-2.22Z" fill="#49379E"/><path fill="#F0F3FA" fill-opacity=".5" d="M12 38h32v2H12z"/></svg>