<!-- by TradingView --><svg width="56" height="56" viewBox="0 0 56 56" xmlns="http://www.w3.org/2000/svg"><path fill="url(#a)" d="M0 0h56v56H0z"/><path fill-rule="evenodd" d="M19.82 39c3.27 0 6.2-1.47 8.18-3.8a10.72 10.72 0 0 0 8.18 3.8C42.16 39 47 34.08 47 28s-4.84-11-10.82-11c-3.27 0-6.2 1.47-8.18 3.8a10.72 10.72 0 0 0-8.18-3.8A10.91 10.91 0 0 0 9 28c0 6.08 4.84 11 10.82 11Zm16.9-4h-6.38a9 9 0 1 0 0-14h6.38c2.59 0 4.81 1.75 5.77 4.24l-1.74.93v.17A4.56 4.56 0 0 0 36.5 23h-17c-2.48 0-4.5 2.24-4.5 5s2.02 5 4.5 5h17c1.96 0 3.63-1.4 4.25-3.34v.16l1.77.86c-.94 2.54-3.19 4.32-5.8 4.32ZM20 37c2.14 0 4.11-.75 5.66-2h-6.38C15.81 35 13 31.87 13 28s2.81-7 6.28-7h6.38A9 9 0 1 0 20 37Zm-2-13h6v1.68h-2V32h-2v-6.32h-2V24Zm14 0h6v1.68h-2V32h-2v-6.32h-2V24Zm-7 0h4.7a2.13 2.13 0 0 1 1.22 3.82A2.25 2.25 0 0 1 32 29.76c0 1.23-.98 2.24-2.2 2.24H25v-8Zm2 1.45h1.92c.47 0 .84.39.84.86s-.37.86-.84.86H27v-1.72Zm0 3.08h2.08c.51 0 .92.47.92 1.05 0 .59-.41 1.06-.92 1.06H27v-2.11Z" fill="#BA2D1C"/><defs><linearGradient id="a" x1="28" y1="0" x2="28" y2="56" gradientUnits="userSpaceOnUse"><stop stop-color="#EBF0F4"/><stop offset="1" stop-color="#87A3B8"/></linearGradient></defs></svg>