<!-- by TradingView --><svg width="56" height="56" viewBox="0 0 56 56" xmlns="http://www.w3.org/2000/svg"><path fill="#F0F3FA" d="M0 0h56v56H0z"/><path fill-rule="evenodd" d="M25.53 41h5.13c1.03-.16 1.7-.28 2.01-.34a20.42 20.42 0 0 0 6.9-2.6 14.02 14.02 0 0 0 5.21-5.27 9.68 9.68 0 0 0 1.15-5.9 10.23 10.23 0 0 0-2.44-5.5 17.5 17.5 0 0 0-8.7-5.41 24.24 24.24 0 0 0-8.83-.9 22.31 22.31 0 0 0-8.55 2.43c-1.32.68-2.5 1.5-3.56 2.47a12.76 12.76 0 0 0-2.69 3.41 9.65 9.65 0 0 0-1.1 5.61c.19 1.93.9 3.7 2.14 5.3 1.51 1.96 3.51 3.53 6 4.7a22.72 22.72 0 0 0 7.33 2Zm18.74-8.12a9.5 9.5 0 0 0 1.33-4.82 9.5 9.5 0 0 0-1.33-4.82c-.9-1.55-2.17-2.91-3.82-4.1a19.02 19.02 0 0 0-5.71-2.72c-2.16-.64-4.4-.96-6.74-.96s-4.58.32-6.74.96a19.02 19.02 0 0 0-5.71 2.73 13.17 13.17 0 0 0-3.82 4.09 9.5 9.5 0 0 0-1.34 4.82 9.5 9.5 0 0 0 1.34 4.82c.9 1.55 2.17 2.91 3.82 4.1a19.02 19.02 0 0 0 5.7 2.73c2.17.63 4.41.95 6.75.95 2.33 0 4.58-.32 6.74-.95a19.02 19.02 0 0 0 5.7-2.74 13.17 13.17 0 0 0 3.83-4.09Z" fill="#00006D"/><path fill-rule="evenodd" d="M43.79 32.7a9.04 9.04 0 0 0 1.3-4.64c0-1.6-.44-3.14-1.3-4.63a12.7 12.7 0 0 0-3.7-3.92c-1.61-1.14-3.46-2.01-5.55-2.62a23.1 23.1 0 0 0-6.54-.92c-2.27 0-4.44.3-6.54.92-2.1.61-3.94 1.48-5.54 2.62a12.7 12.7 0 0 0-3.7 3.92 9.04 9.04 0 0 0-1.3 4.63c0 1.6.43 3.15 1.3 4.63a12.7 12.7 0 0 0 3.7 3.93c1.6 1.13 3.45 2 5.54 2.62 2.1.61 4.27.92 6.54.92 2.27 0 4.45-.3 6.54-.92 2.1-.61 3.94-1.49 5.54-2.62a12.7 12.7 0 0 0 3.7-3.93ZM33.66 17.2c-1.83-.46-3.71-.7-5.66-.7-1.94 0-3.83.23-5.66.7-1.91.5-3.67 1.23-5.26 2.2a13.78 13.78 0 0 0-3.3 2.73c-1 1.14-1.71 2.39-2.13 3.73-.03.09 0 .14.1.14H44.25c.1 0 .12-.05.1-.14a10.36 10.36 0 0 0-2.13-3.73c-.91-1.04-2.01-1.95-3.3-2.73-1.6-.97-3.35-1.7-5.27-2.2Z" fill="#00006D"/><path fill-rule="evenodd" d="M30.47 22.03c-.06.11-.1.1-.08-.03.03-.51 0-1-.07-1.47-.06-.35-.2-.9-.4-1.61a6.2 6.2 0 0 1-.18-2.13c0-.06-.02-.1-.07-.14a.13.13 0 0 0-.14 0c-.37.22-.63.54-.76.98a5.7 5.7 0 0 0-.17 1.26 5.2 5.2 0 0 1-.2 1.4c-.08.2-.14.2-.18-.02a2.94 2.94 0 0 0-.73-1.46c-.12-.14-.18-.11-.17.07.02.32 0 .62-.08.91l-.5 1.8c-.07.21-.1.38-.1.5 0 .25-.05.26-.16.05-.2-.4-.49-.73-.85-.98a7.8 7.8 0 0 0-1.24-.63c-.37-.16-.6-.4-.68-.75a.09.09 0 0 0-.07-.07c-.03 0-.07 0-.09.03-.3.33-.4.7-.28 1.13.08.3.29.65.61 1.05.02.02.02.04 0 .06l-.05.04c-.05.04-.1.04-.14-.01-.81-.85-1.28-1.33-1.41-1.45a3.22 3.22 0 0 0-1.2-.7.35.35 0 0 0-.34.07.37.37 0 0 0-.15.31v.14c0 .05.01.09.04.12.36.36.78 1.04 1.27 2.02.4.82.73 1.4 1 1.73.44.56.97.9 1.58 1.06.65.16 1.2.06 1.65-.3.47-.37.66-.9.58-1.58-.04-.33.02-.35.16-.06.2.38.38.68.53.88.51.69 1.06.85 1.63.49.47-.3.84-.82 1.1-1.56l.03-.02.06-.01c.04-.01.06 0 .05.05-.12.63-.02 1.15.29 1.56.31.42.77.62 1.39.6a2.7 2.7 0 0 0 2.03-1.08c.35-.42.78-1.14 1.28-2.17l.51-1c.06-.1.19-.24.38-.43l.1-.09c.05-.05.07-.1.07-.15-.05-.6-.38-.72-1-.39-.43.24-.82.55-1.15.93-.3.35-.63.68-.97 1a.07.07 0 0 1-.07 0l-.08-.01c-.04-.01-.05-.04-.02-.08.71-.89.82-1.6.31-2.15-.12-.12-.18-.1-.18.08 0 .17-.1.34-.33.5a4.1 4.1 0 0 1-.81.42c-.41.2-.72.37-.91.52a2.7 2.7 0 0 0-.64.77Zm-1.45.18-.14.2-.3.3c-.25.21-.4.4-.45.54-.13.35-.1.68.08 1 .05.08.12.13.22.15.1.01.18-.01.25-.08.38-.38.56-1.05.53-2.03 0-.18-.07-.2-.2-.08Zm-3.73 1.3.13.23.02.04c.02.1 0 .15-.08.18-.04.02-.08 0-.12-.05l-.14-.18a.21.21 0 0 0-.14-.08c-.19-.03-.32-.08-.4-.16-.29-.3-.43-.24-.43.18a2.27 2.27 0 0 0 .91.99c.24.13.46.16.66.1.17-.07.3-.2.35-.39a.7.7 0 0 0-.05-.56 1 1 0 0 0-.57-.47c-.2-.07-.25-.01-.14.18Zm6.33.34c.1-.12.26-.2.45-.2.06-.01.12-.04.17-.08l.24-.18a.16.16 0 0 1 .11-.04h.07c.1.06.13.16.07.3-.16.45-.46.8-.9 1.03-.25.13-.47.15-.65.05-.16-.09-.26-.24-.3-.46a.83.83 0 0 1 .12-.6.7.7 0 0 1 .56-.34c.17-.01.2.04.07.17-.1.11-.16.2-.17.27-.04.22.01.25.16.08Z" fill="#E70100"/><path fill-rule="evenodd" d="M31.68 28.14v-.88c0-.15.08-.26.23-.26h.21c.14 0 .21.1.21.25l.01 2.4c0 .42-.13.46-.4.13l-.68-.87c-.14-.17-.2-.15-.2.07v.78c0 .11-.06.24-.18.24h-.29c-.12 0-.19-.13-.19-.25v-2.36c0-.47.14-.51.43-.15l.74.94c.08.1.11.08.11-.04Zm-11.38-.88v.88c0 .12-.04.13-.11.04l-.75-.94c-.3-.36-.44-.32-.44.15v2.36c0 .12.07.25.2.25h.29c.12 0 .17-.13.17-.24v-.78c0-.22.07-.24.2-.07l.7.87c.27.33.44.29.44-.13v-2.4a.25.25 0 0 0-.25-.25h-.22c-.15 0-.23.12-.23.26Zm5.03 0v.88c0 .12-.04.13-.12.04l-.76-.94c-.3-.36-.45-.32-.45.15v2.36c0 .12.06.25.2.25h.3c.11 0 .17-.13.17-.24v-.78c0-.22.07-.24.22-.07l.7.87c.27.33.41.29.41-.13v-2.4c0-.14-.07-.25-.22-.25h-.22c-.15 0-.23.12-.23.26Zm8.87.75a.77.77 0 0 1-.2.01.9.9 0 0 1-.2-.01c-.06-.02-.1-.06-.1-.13l.01-.66c0-.14-.07-.22-.23-.22h-.22c-.17 0-.25.08-.25.24L33 29.8c0 .13.07.2.2.2h.29c.14 0 .22-.07.22-.21v-.82c0-.05.03-.08.08-.1a.75.75 0 0 1 .42 0c.06.02.08.05.08.1v.82c0 .14.08.21.22.21h.29c.13 0 .2-.07.2-.2v-2.56c0-.16-.08-.24-.25-.24h-.22c-.16 0-.23.08-.23.23v.65c0 .07-.03.1-.1.13Zm6.63.13v-.88c0-.14.07-.26.22-.26h.21c.14 0 .22.1.22.25v2.4c0 .42-.13.46-.4.13l-.68-.87c-.14-.17-.2-.15-.2.07v.78c0 .11-.06.24-.17.24h-.3c-.12 0-.18-.13-.18-.25v-2.36c-.01-.47.13-.51.43-.15l.73.94c.08.1.12.08.12-.04ZM13.2 29.79v-1.9c0-.06.03-.1.1-.1h.23c.07 0 .12-.03.13-.1.03-.15.03-.35-.01-.58-.02-.07-.06-.11-.13-.11h-1.36c-.11 0-.17.06-.17.18v.5c0 .08.04.12.12.12h.3c.07 0 .1.03.1.1v1.93c0 .11.05.17.17.17H13c.13 0 .2-.07.2-.21Zm1.7-.62c.14 0 .22-.06.23-.2.02-.27.02-.86 0-1.77 0-.13.07-.2.2-.2h.3c.12 0 .18.07.18.2l.01 1.64c0 .32-.07.58-.22.8a.8.8 0 0 1-.7.36.8.8 0 0 1-.7-.37 1.35 1.35 0 0 1-.21-.8l.02-1.65c0-.12.07-.18.19-.18h.3c.13 0 .2.07.19.2-.02.91-.03 1.5 0 1.77 0 .13.08.2.21.2Zm2.16-1.5c-.02.04-.05.07-.09.07-.04 0-.07-.03-.09-.08a5.6 5.6 0 0 0-.22-.52.24.24 0 0 0-.22-.14h-.46c-.1 0-.13.05-.08.14l.2.37c.39.68.57 1.16.55 1.44l-.02.87c0 .1.05.16.15.17a3.04 3.04 0 0 0 .37 0c.1 0 .16-.06.16-.16 0-.3-.01-.6-.03-.88-.01-.28.17-.76.57-1.44l.2-.36c.05-.1.02-.14-.08-.14h-.46c-.1 0-.17.04-.22.13-.05.08-.12.25-.23.52Zm6.23.83v.23c0 .1-.05.14-.14.14h-.38c-.07 0-.11.04-.13.1-.01.1 0 .16.05.2.04.03.09.05.15.05h.6c.09 0 .13.04.13.12v.46c0 .13-.07.2-.2.2h-1.2c-.1 0-.18-.05-.18-.14v-2.68c0-.1.04-.18.13-.18h1.2c.14 0 .2.06.21.2l.01.45c0 .09-.04.13-.12.13l-.6.01c-.07 0-.11.02-.14.05-.05.05-.07.12-.05.2.02.07.06.1.13.1h.38c.09 0 .14.04.14.13v.23Zm6.14-1.5h.42c.08 0 .14.06.14.14l-.02 2.73c0 .07-.06.13-.13.13h-.43a.13.13 0 0 1-.14-.13l.02-2.74c0-.07.06-.13.14-.13Zm9.38 0h-.33a.16.16 0 0 0-.16.17v2.66c0 .1.07.17.16.17h.33c.1 0 .16-.07.16-.17v-2.66c0-.1-.07-.17-.16-.17Zm3.97 1.87a.75.75 0 0 1 .42 0c.05.02.08.05.08.1v.82c0 .14.07.21.22.21h.29c.13 0 .2-.07.2-.2v-2.56c0-.16-.09-.24-.25-.24h-.23c-.15 0-.23.07-.23.22v.66c0 .07-.03.1-.1.13a.76.76 0 0 1-.19.01l-.2-.01c-.06-.02-.1-.06-.1-.13v-.66c0-.14-.07-.22-.22-.22h-.23c-.16 0-.25.08-.25.24v2.56c0 .13.07.2.2.2h.29c.14 0 .22-.07.22-.21v-.82c0-.05.03-.08.08-.1ZM36.16 27c-.1 0-.16.06-.16.17v2.66c0 .11.06.17.17.17h.47c.38 0 .7-.14.96-.43.27-.28.4-.62.4-1.02v-.1c0-.4-.13-.74-.4-1.03a1.27 1.27 0 0 0-.96-.42h-.48Zm.6.81c-.05 0-.08.03-.08.09v1.16c0 .06.03.09.08.09h.03a.5.5 0 0 0 .38-.19c.11-.12.16-.26.16-.43v-.1a.64.64 0 0 0-.16-.44.5.5 0 0 0-.38-.18h-.03Zm-8.07.68c.2.18.3.4.3.64.02.25-.07.46-.26.62-.29.23-.81.3-1.57.21-.1-.01-.16-.07-.16-.16v-2.68c0-.06.03-.1.1-.1.42-.04.81-.02 1.17.03.35.06.57.23.64.5.08.28 0 .54-.23.8-.04.05-.04.1 0 .14Zm-.85-.86h.21c.08 0 .15.07.15.15v.2c-.01.08-.08.15-.16.14h-.22c-.08 0-.14-.07-.14-.14v-.21c0-.08.07-.14.16-.14Zm-.04 1.17c-.07 0-.1.03-.1.1v.32c-.01.06.02.1.09.1h.12c.26 0 .4-.07.4-.22v-.06c0-.15-.13-.23-.4-.23h-.11Z" fill="#FDFDFD"/><path d="m43.68 31.8-.8.01c-.07 0-.1.04-.1.1v.47c0 .07.03.12.07.16.1.07.19.1.29.13l-.12.23-1.32.08c-.04 0-.06.03-.06.07v.63c0 .02 0 .03.03.03l.7.02a.87.87 0 0 1-.27.37l-1.23-.02c-.08 0-.1.03-.07.1.09.19.05.34-.1.47-.05.05-.05.09.03.1l.57.11c-.07.17-.15.26-.24.3a10.32 10.32 0 0 0-1.62.05.12.12 0 0 0-.04.05c0 .05 0 .08.05.1.07.04.13.1.15.16.02.06.02.1-.02.14a1.1 1.1 0 0 1-.03.04c-.05.05-.05.1.02.13l.32.16c-.01.14-.07.22-.19.25l-1.23-.03c-.15 0-.23.08-.25.23-.02.27.02.49.15.65a.76.76 0 0 1-.44.27 1.89 1.89 0 0 0-.65-.02c-.06.01-.1.05-.12.1-.02.1.02.18.12.25-.12.06-.25.1-.4.12l.1-.25c.07-.16.03-.24-.14-.24h-1.92c-.07 0-.1.03-.1.1v.52c0 .1.04.14.13.14h1.43c-.27.22-.55.34-.85.35l-1.61-.04c-.07 0-.1.04-.1.1l.02.46c-.1.07-.23.1-.39.12v-.6c0-.04-.02-.06-.06-.06h-1.83c-.12 0-.18.06-.18.18v.53c0 .1.05.14.14.1.2-.07.42-.08.65 0l.3.07c-.78.2-1.6.31-2.43.34a7.97 7.97 0 0 0-.9-.12c-1.14-.03-2.3 0-3.45.08a3.38 3.38 0 0 1-1.66-.29c.17-.02.32-.07.45-.14a.15.15 0 0 0 .08-.14v-.53c0-.05-.03-.07-.07-.07h-2.02c-.07 0-.09.03-.07.1.04.15.04.32 0 .5a.46.46 0 0 1-.38-.1v-.42c0-.06-.04-.1-.1-.1l-1.32.05c-.27.02-.54-.1-.82-.36h1.32c.02-.01.03-.02.03-.05v-.65c0-.05-.02-.08-.07-.08h-1.7c-.06 0-.1.03-.1.09v.5a.31.31 0 0 1-.3-.09l.01-.43c0-.06-.02-.1-.08-.09h-.88c-.13 0-.24-.06-.35-.2-.03-.32-.01-.58.05-.77.01-.06 0-.09-.06-.09l-1.38.03a.58.58 0 0 1-.3-.29c.21-.1.44-.11.68-.06a.1.1 0 0 0 .1-.03.11.11 0 0 0 .03-.12.54.54 0 0 1 .06-.48.09.09 0 0 0 0-.09c-.01-.03-.04-.05-.07-.05h-1.89c-.07.01-.13-.09-.19-.3l.7-.07c.06-.01.08-.05.06-.11a.73.73 0 0 1 .05-.51c.03-.07.02-.1-.05-.1l-1.66-.08a.27.27 0 0 0 .02-.2l.4-.06c.08-.01.12-.06.12-.14v-.48c0-.1-.04-.15-.14-.15L13 32.9l-.01-.2c.31-.02.43-.27.35-.76 0-.06-.04-.09-.1-.08-.32.02-.62-.01-.92-.1l-.3-.58a.09.09 0 0 1 0-.1.08.08 0 0 1 .08-.03l.4.02c-.04.24.03.37.2.39.47.04.94.05 1.4.01.12 0 .2-.04.24-.1.05-.07.06-.17.04-.3l.3.05c0 .12-.02.18-.02.19.06.1.17.16.34.16l1.63.01c.05 0 .09-.02.1-.07l.06-.36c.1.02.2.02.31 0-.02.17 0 .3.07.37.04.06.14.08.3.07.45-.02.91-.02 1.38.02.05 0 .1-.02.11-.08.04-.1.06-.23.06-.37l.27.01.14.31c.02.06.07.09.12.09h1.41c.2 0 .27-.13.22-.41h.29c-.01.1 0 .22.05.33.03.07.07.1.14.1h1.44c.06 0 .1-.03.12-.09.04-.1.05-.22.06-.34h.31l.02.3c0 .07.04.1.1.1h1.6c.07 0 .12-.03.14-.1.03-.09.04-.2.03-.32.14-.02.26-.01.37.01l.04.32c0 .07.05.1.11.1h1.54c.06 0 .09-.03.1-.09l.03-.33h.26l.07.33c.02.05.05.08.11.08h1.34c.2 0 .28-.14.24-.42h.38c0 .15.01.27.05.35.03.05.06.07.12.07h1.92c.05 0 .08-.02.08-.07l.06-.33.3.01c.02.13.05.24.11.32.04.05.08.07.14.08l1.2.03c.3 0 .43-.14.4-.43a.77.77 0 0 1 .34-.02l.16.4c.02.05.06.08.12.07.29-.05.58-.05.86-.01.67.09 1.03-.06 1.07-.45a.56.56 0 0 1 .3-.01c0 .11.03.22.07.31.03.07.09.1.16.1H39c.06 0 .1-.03.08-.1l-.04-.3c.12.03.26.03.43 0 .08.28.24.42.47.42.48 0 .89-.02 1.22-.06.15-.02.21-.13.2-.35h.28c.08.25.24.38.47.4.48.03.86.03 1.11 0 .2-.03.3-.16.3-.4a.69.69 0 0 1 .43-.06c.06.01.07.05.05.1l-.3.7Z" fill="#E70100"/><path d="M14.37 31.08c.02.12 0 .22-.04.3-.04.05-.12.09-.23.1a8.7 8.7 0 0 1-1.4-.02c-.18-.02-.25-.15-.22-.39h1.89ZM16.78 31.05l-.06.36c-.01.05-.05.07-.1.07l-1.63-.01c-.17 0-.28-.06-.34-.16l.03-.2c.12-.05.28-.08.49-.08.68-.01 1.22 0 1.6.02ZM19 31.06c.01.14 0 .26-.05.37-.02.06-.06.09-.11.08-.47-.04-.93-.04-1.39-.02-.15.01-.25-.01-.3-.07-.06-.08-.08-.2-.06-.38l1.92.02ZM21.18 31.06c.04.28-.04.42-.22.42l-1.42-.01a.13.13 0 0 1-.12-.09l-.14-.31 1.9-.01ZM23.27 31.06c0 .12-.02.23-.06.34-.02.06-.06.09-.12.09h-1.44c-.07 0-.11-.03-.14-.1a.72.72 0 0 1-.05-.34h1.8ZM25.47 31.04c.01.13 0 .23-.03.32-.02.07-.07.1-.14.1h-1.6c-.06 0-.1-.03-.1-.1l-.02-.3 1.9-.02ZM27.66 31.05l-.04.33c0 .06-.03.1-.1.1H26c-.06 0-.1-.04-.1-.11l-.05-.32h1.82ZM29.68 31.04c.04.28-.04.42-.24.42H28.1c-.06 0-.1-.03-.1-.08l-.08-.33 1.76-.01ZM32.3 31.06l-.07.33c0 .05-.03.07-.08.07h-1.92a.12.12 0 0 1-.12-.07.75.75 0 0 1-.05-.35l2.23.02ZM34.43 31.07c.04.29-.09.43-.38.43l-1.21-.03a.17.17 0 0 1-.14-.08.76.76 0 0 1-.12-.32h1.85ZM37 31.06c-.05.39-.4.54-1.07.45a2.87 2.87 0 0 0-.87 0c-.06.02-.1 0-.12-.06l-.16-.4h2.21ZM39.03 31.06l.04.3c.01.07-.02.1-.08.1h-1.47c-.07 0-.13-.03-.16-.1a.86.86 0 0 1-.07-.31h1.74ZM41.34 31.07c.03.22-.04.33-.19.35-.33.04-.74.05-1.22.06-.23 0-.39-.14-.47-.41h1.88ZM43.51 31.07c0 .24-.1.37-.3.4-.25.03-.63.03-1.11 0-.23-.02-.39-.15-.47-.4h1.88ZM12.98 32.7c-.33-.17-.55-.48-.67-.93.3.08.6.11.92.09.06 0 .1.02.1.08.08.49-.04.74-.35.76ZM24.88 32.14a.4.4 0 0 1-.1-.14.11.11 0 0 1 .01-.11.1.1 0 0 1 .1-.06h1.69c.02 0 .03.01.03.04v.68c0 .04-.02.07-.06.06l-1.72-.04c-.23 0-.25-.06-.07-.18.06-.04.1-.08.13-.12.04-.05.03-.1-.01-.13ZM15.4 31.84l-1.64-.02a.1.1 0 0 0-.09.1v.57c0 .06.04.1.08.1l1.65.02a.1.1 0 0 0 .09-.1v-.58a.1.1 0 0 0-.08-.1ZM17.65 31.86l-1.73-.04a.05.05 0 0 0-.04.04l-.02.66c0 .03.02.05.05.05l1.72.05c.03 0 .05-.02.05-.05l.01-.66a.05.05 0 0 0-.04-.05ZM19.84 32.56c0 .06-.02.09-.07.08l-1.65-.09c-.06 0-.09-.03-.07-.1.03-.18.04-.37.02-.56 0-.06.02-.09.08-.09l1.67.1c.03 0 .04.01.03.05-.04.2-.05.4-.01.61ZM21.97 31.87l-1.73-.05a.05.05 0 0 0-.05.04l-.02.66c0 .03.02.05.04.05l1.74.06c.03 0 .05-.02.05-.04l.02-.67a.05.05 0 0 0-.05-.05ZM24.38 31.82h-1.99a.05.05 0 0 0-.05.06v.69c0 .03.03.05.05.05h2c.02 0 .04-.03.04-.05v-.7a.05.05 0 0 0-.05-.05ZM26.96 32.54c.04-.23.04-.44 0-.65 0-.03 0-.05.04-.05l1.73-.04c.06 0 .09.03.08.09-.03.2-.03.39 0 .58.02.07-.01.1-.07.1l-1.71.05c-.06 0-.08-.03-.07-.08ZM29.13 32.54c.06-.21.1-.43.09-.65 0-.04.01-.06.05-.06h1.75c.01 0 .02.01.02.03v.66c0 .05-.02.08-.07.08h-1.8c-.04 0-.06-.02-.04-.06ZM33.42 31.84h-1.98a.05.05 0 0 0-.04.05v.65c0 .03.02.05.05.05l1.97-.01c.03 0 .05-.02.05-.05v-.64a.05.05 0 0 0-.05-.05ZM33.88 32.25a.13.13 0 0 0 .05-.13c0-.06-.02-.1-.04-.13-.03-.03-.04-.07-.01-.12a.11.11 0 0 1 .1-.06l1.81.05c.03 0 .04 0 .04.04l-.03.68c0 .01 0 .02-.02.02l-1.98-.09c-.04 0-.07-.02-.08-.06-.01-.04 0-.08.03-.1l.13-.1ZM37.98 31.9c-.06.2-.1.4-.09.61 0 .04-.02.06-.05.06l-1.65-.01c-.01 0-.02-.01-.02-.03v-.62c0-.05.03-.08.07-.08l1.7.01c.04 0 .05.02.04.06ZM40.44 32.55c0 .03-.01.04-.04.04h-1.75c-.1 0-.19-.03-.26-.1a.27.27 0 0 1-.11-.2v-.17c0-.08.03-.15.1-.21a.41.41 0 0 1 .28-.09h1.74c.03 0 .04.02.04.05v.68ZM42.42 32.56c0 .02-.01.03-.04.03l-1.26-.03a.34.34 0 0 1-.24-.12.36.36 0 0 1-.1-.27v-.02c0-.1.04-.19.11-.26s.16-.1.25-.1l1.27.04c.02 0 .03.01.03.04l-.02.69ZM43.68 31.8l-.54.87a.64.64 0 0 1-.29-.13.19.19 0 0 1-.07-.16v-.46c0-.07.03-.1.1-.1l.8-.02ZM25.46 33c-.06.2-.08.41-.07.62 0 .04-.01.06-.05.06l-1.69.05c-.02 0-.02 0-.03-.02l-.01-.64c0-.05.02-.08.07-.08l1.74-.05c.04 0 .05.02.04.06ZM12.99 32.9l1.2.04c.1 0 .14.05.14.15v.48c0 .08-.04.13-.11.14l-.42.06-.15-.01a.22.22 0 0 1-.16-.1l-.53-.71v-.06c.02-.04.03-.04.03 0ZM16.18 33.06c-.13.04-.13.08 0 .12.07.02.13-.01.16-.11.02-.06.06-.1.1-.12a.53.53 0 0 1 .29-.02c.06.01.08.05.06.11-.03.14-.05.33-.03.57 0 .07-.03.1-.1.1h-1.88c-.07 0-.1-.03-.1-.1V33c0-.08.03-.1.1-.1.35.08.77.07 1.23-.03.1-.02.17.01.22.09.02.03.02.05 0 .07a.18.18 0 0 1-.05.02ZM21.08 33.62c.01.06-.01.09-.07.08l-1.62-.03c-.07 0-.09-.03-.08-.1.03-.18.03-.36 0-.55 0-.06.02-.09.08-.09l1.65.04c.03 0 .04.01.03.04-.03.2-.03.4.01.61ZM37.23 33.65c.07-.21.1-.42.09-.64 0-.04.02-.06.05-.06h1.72c.02 0 .02.01.02.03v.65c0 .05-.02.08-.07.08h-1.77c-.04 0-.05-.02-.04-.06ZM43.02 32.9l-.66.83-.7-.02c-.01 0-.02-.01-.02-.03v-.63c0-.04.02-.07.06-.07l1.32-.08ZM18.92 32.94l-1.77.01a.05.05 0 0 0-.04.05v.66c0 .02.02.04.05.04h1.77c.02 0 .04-.02.04-.05V33a.05.05 0 0 0-.05-.05ZM23.16 32.95h-1.63a.07.07 0 0 0-.07.07v.61c0 .04.02.08.06.08h1.64c.03 0 .07-.02.07-.06v-.62a.07.07 0 0 0-.07-.08ZM27.57 32.95H25.8a.05.05 0 0 0-.05.04v.67c0 .03.02.05.04.05h1.78c.03 0 .05-.02.05-.04V33a.05.05 0 0 0-.05-.05ZM29.64 32.95l-1.62-.01a.05.05 0 0 0-.05.05v.66c0 .03.02.05.05.05l1.62.01c.02 0 .04-.02.04-.05V33a.05.05 0 0 0-.04-.05ZM32.21 32.94h-2.14a.05.05 0 0 0-.04.05v.66c0 .03.02.05.04.05h2.14c.03 0 .05-.03.05-.05v-.67a.05.05 0 0 0-.05-.04ZM34.4 32.93l-1.76.01a.05.05 0 0 0-.05.06v.65c0 .03.03.06.06.06l1.76-.01c.03 0 .05-.03.05-.06v-.65a.05.05 0 0 0-.06-.06ZM36.95 33.21a.57.57 0 0 0 0 .34c.03.08 0 .12-.07.13l-1.96.04c-.05 0-.07-.03-.07-.07l-.01-.63c0-.04.02-.05.05-.06l2.04-.02c.01 0 .03 0 .04.02.07.06.07.12.01.19a.14.14 0 0 0-.03.06ZM39.48 33.65c.06-.21.1-.42.08-.63 0-.04.02-.06.06-.06h1.7c.01 0 .02 0 .02.02v.64c0 .05-.02.08-.07.08h-1.75c-.04 0-.05-.01-.04-.05ZM14.69 34.84a2.37 2.37 0 0 1-.9-.87l1.66.08c.07 0 .08.03.05.1a.72.72 0 0 0-.05.5c.02.07 0 .11-.07.12l-.69.07ZM33.81 34.78c.07-.22.1-.45.1-.68-.01-.04 0-.06.05-.06l1.82-.02c.02 0 .03.01.03.03v.7c0 .05-.02.08-.07.08l-1.88.02c-.04 0-.06-.02-.05-.07ZM15.9 34.48c.04-.05.03-.1-.01-.13a.39.39 0 0 1-.1-.14.11.11 0 0 1 .01-.11.1.1 0 0 1 .1-.05l1.69-.02c.02 0 .03.01.03.04v.68c0 .05-.02.07-.06.07l-1.72-.03c-.23 0-.25-.07-.07-.19.06-.04.1-.08.13-.12ZM18.11 34.5c.04-.06.03-.1-.01-.14a.4.4 0 0 1-.1-.14.11.11 0 0 1 .01-.11.1.1 0 0 1 .1-.05h1.68c.02 0 .03 0 .03.02v.69c0 .04-.02.06-.06.06l-1.71-.04c-.23 0-.25-.06-.07-.18.06-.04.1-.08.13-.12ZM21.9 34.05h-1.66a.08.08 0 0 0-.08.07v.62c0 .05.03.08.07.08h1.67c.04 0 .08-.03.08-.07v-.62a.08.08 0 0 0-.08-.08ZM22.41 34.4c-.01-.06-.03-.11-.05-.13-.04-.04-.05-.08-.02-.13a.12.12 0 0 1 .11-.07l1.96-.04c.03 0 .04.02.04.05v.73c0 .02 0 .03-.02.03h-2.15c-.04 0-.07-.03-.09-.07a.1.1 0 0 1 .04-.1l.13-.12a.14.14 0 0 0 .05-.14ZM24.95 34.28a.45.45 0 0 1-.09-.13c-.04-.07-.02-.1.06-.1h1.67c.05 0 .06.02.05.07a.86.86 0 0 0 0 .62c.02.05 0 .08-.05.08h-1.78c-.05 0-.08-.03-.1-.08-.02-.05 0-.1.04-.13l.19-.16c.06-.05.07-.11 0-.17ZM27.08 34.49c.04-.05.03-.1-.01-.14a.41.41 0 0 1-.1-.14.12.12 0 0 1 .01-.12.1.1 0 0 1 .1-.05l1.73.02c.03 0 .04 0 .04.03l-.01.7c0 .05-.02.07-.07.07l-1.76-.06c-.23-.01-.25-.08-.06-.2l.13-.11ZM31.01 34.73c.01.06-.01.09-.07.09h-1.7c-.07 0-.1-.04-.09-.1.03-.2.03-.4 0-.59-.01-.06.02-.09.08-.09h1.73c.03 0 .04.02.03.05-.03.2-.03.42.02.64ZM36.16 34.12c-.01-.05.01-.08.06-.08h1.67c.06 0 .09.04.08.1-.03.19-.03.38 0 .57.01.06-.01.09-.07.09H36.2c-.03 0-.04-.02-.04-.05.04-.2.04-.41 0-.63ZM33.43 34.05h-1.98a.05.05 0 0 0-.05.05v.67c0 .02.02.04.05.04h1.98c.02 0 .04-.01.04-.04v-.67a.05.05 0 0 0-.04-.05ZM38.3 34.3c-.07-.07-.07-.13 0-.2a.06.06 0 0 1 .04-.01l2.05-.02c.04 0 .05.02.05.06v.62c0 .05-.02.07-.06.07H38.4c-.09 0-.11-.04-.08-.12.03-.1.03-.2 0-.34a.15.15 0 0 0-.04-.06ZM42.1 34.1l-.8.76-.57-.1c-.08-.02-.09-.06-.02-.11.14-.13.17-.28.1-.46-.04-.08-.02-.12.06-.11l1.23.02ZM15.97 35.97a4.2 4.2 0 0 1-1.09-.84l1.89.01c.03 0 .06.02.07.05.02.03.01.06 0 .1-.1.14-.12.3-.06.47.01.05 0 .08-.02.12a.1.1 0 0 1-.1.03 1.1 1.1 0 0 0-.7.06ZM17.11 35.8c.07-.21.1-.42.1-.63 0-.04.02-.06.06-.05l1.67.03c.02 0 .03 0 .03.02l-.01.64c0 .05-.03.08-.08.08l-1.73-.04c-.04 0-.05-.02-.04-.06ZM21.08 35.22c-.06.2-.08.39-.08.59 0 .03-.01.05-.05.05l-1.57.01c-.02 0-.03 0-.03-.03v-.6c0-.04.02-.07.07-.07h1.63c.03 0 .05.02.03.05ZM23.16 35.15h-1.69a.05.05 0 0 0-.04.05v.64c0 .02.02.04.04.04h1.69c.02 0 .04-.03.04-.05v-.64a.05.05 0 0 0-.04-.04ZM25.46 35.22c-.06.2-.07.41-.02.62.01.05 0 .07-.05.07h-1.68c-.12 0-.18-.06-.17-.19 0-.13.03-.27.09-.4.05-.11.14-.17.27-.17h1.5c.05 0 .07.02.06.07ZM25.75 35.8c.07-.2.1-.41.11-.63 0-.04.02-.06.06-.06l1.7.06c.02 0 .03.02.03.03l-.02.65c0 .05-.03.08-.08.08l-1.76-.07c-.04 0-.05-.02-.04-.06ZM27.97 35.82c.04-.2.05-.4.01-.6 0-.03 0-.05.04-.05l1.63-.01c.06 0 .08.03.07.08-.03.19-.03.37 0 .55 0 .06-.02.1-.08.1l-1.6.01c-.06 0-.08-.03-.07-.08ZM32.2 35.16l-2.08-.02a.05.05 0 0 0-.05.04v.65c0 .03.01.05.04.05l2.08.03c.02 0 .04-.02.04-.05l.01-.65a.05.05 0 0 0-.04-.05ZM37 35.41a.59.59 0 0 0 .01.35c.03.08 0 .12-.08.12l-2 .03c-.05 0-.07-.02-.07-.07l-.01-.64c0-.04.02-.06.05-.06H37l.04.01c.07.06.07.13.01.2a.15.15 0 0 0-.03.06ZM37.37 35.84v-.63c0-.04.02-.06.06-.06H39c.04 0 .05.02.05.06v.63c0 .04-.01.05-.05.05h-1.58c-.04 0-.06-.01-.06-.05ZM41.06 35.16c-.37.38-.76.66-1.17.83l-.32-.16c-.07-.04-.08-.08-.02-.13l.03-.04a.12.12 0 0 0 .02-.14.31.31 0 0 0-.15-.16c-.04-.02-.06-.05-.05-.1 0-.02.02-.04.04-.05a10.32 10.32 0 0 1 1.63-.05ZM34.35 35.16h-1.58a.1.1 0 0 0-.1.1v.5c0 .05.05.1.1.1h1.58a.1.1 0 0 0 .1-.1v-.5a.1.1 0 0 0-.1-.1ZM24.46 36.5a.61.61 0 0 0 0 .37c.03.08 0 .13-.08.13H22.3c-.04 0-.07-.03-.07-.07v-.67c0-.04.02-.06.06-.06l2.16.02c.01 0 .03 0 .04.02.07.06.07.13.01.2a.15.15 0 0 0-.04.07ZM19.83 36.91c.01.06-.01.09-.07.09l-1.66-.05c-.07 0-.1-.03-.08-.1.03-.19.03-.38 0-.57 0-.06.02-.09.09-.09l1.68.05c.03 0 .05.02.04.05-.04.2-.04.4 0 .62ZM21.8 36.24l-1.57-.02a.06.06 0 0 0-.06.06v.63c0 .03.02.06.05.06l1.57.01c.03 0 .06-.02.06-.06v-.62a.06.06 0 0 0-.05-.06ZM24.8 36.92c.07-.2.1-.41.09-.63 0-.04.01-.06.05-.06h1.69c.01 0 .02 0 .02.02v.64c0 .05-.02.08-.07.08h-1.74c-.04 0-.05-.01-.04-.05ZM28.8 36.29c-.04.22-.03.43 0 .63.01.03 0 .05-.03.05l-1.7.05c-.06 0-.08-.03-.07-.09.02-.19.02-.38-.01-.56-.02-.07 0-.1.07-.1l1.68-.06c.05 0 .07.02.06.08ZM29.08 36.9c.07-.2.1-.41.1-.62 0-.04.01-.06.05-.06h1.68l.02.03v.64c0 .05-.03.08-.08.08l-1.73-.01c-.04 0-.05-.02-.04-.06ZM31.32 36.92v-.63c0-.04.02-.06.06-.06h2.02c.03 0 .05.02.05.06v.63c0 .04-.02.06-.05.06h-2.02c-.04 0-.06-.02-.06-.06ZM35.77 36.23l-1.92-.03a.05.05 0 0 0-.04.05l-.01.66c0 .03.02.05.04.05l1.92.03c.02 0 .04-.02.04-.04l.01-.67a.05.05 0 0 0-.04-.05ZM37.83 36.23h-1.6a.05.05 0 0 0-.04.05v.66c0 .02.02.04.05.04h1.6c.02 0 .04-.02.04-.04v-.66a.05.05 0 0 0-.05-.05ZM39.7 36.24l-1.33.85c-.13-.16-.18-.38-.15-.65.02-.15.1-.23.25-.23l1.23.03ZM17.66 37.08l-1.39-.82 1.37-.03c.06 0 .08.03.07.1-.06.18-.08.44-.05.75ZM18.96 37.81 18 37.3h.88c.06 0 .08.03.08.09l-.01.43ZM19.78 38.09a.96.96 0 0 1-.52-.2v-.5c0-.05.04-.08.1-.08h1.7c.05 0 .07.03.07.08v.65c0 .03 0 .04-.03.04h-1.32ZM23.18 37.31h-1.64a.05.05 0 0 0-.05.05v.67c0 .03.03.05.05.05h1.64c.02 0 .04-.03.04-.05v-.67a.05.05 0 0 0-.04-.05ZM25.4 37.31h-1.73a.05.05 0 0 0-.05.05v.67c0 .02.02.05.05.05h1.72c.03 0 .05-.02.05-.05v-.66a.05.05 0 0 0-.05-.06ZM27.57 37.32h-1.7a.05.05 0 0 0-.04.05v.66c0 .03.02.05.05.05h1.7c.02 0 .04-.03.04-.06v-.66a.05.05 0 0 0-.05-.04ZM32.2 37.3h-2.1a.05.05 0 0 0-.04.05v.68c0 .02.02.05.05.05h2.09c.02 0 .04-.02.04-.05v-.68a.05.05 0 0 0-.04-.05ZM36.88 37.8a.7.7 0 0 1-.5.28h-1.43c-.09 0-.13-.05-.13-.14v-.51c0-.08.03-.11.1-.11h1.92c.17 0 .21.08.15.24l-.1.25ZM29.65 37.33h-1.63a.05.05 0 0 0-.04.06v.66c0 .03.02.05.05.05h1.62c.03 0 .05-.03.05-.05v-.67a.05.05 0 0 0-.05-.05ZM34.4 37.33h-1.76a.05.05 0 0 0-.05.05v.64c0 .03.03.05.05.05h1.77c.02 0 .05-.02.05-.05v-.64a.05.05 0 0 0-.05-.05ZM37.93 37.36l-.65.33c-.1-.07-.14-.15-.12-.25.02-.05.06-.09.12-.1.21-.03.43-.02.65.02ZM29.16 39.11c.04-.22.05-.44.01-.64 0-.04.01-.05.04-.05h1.75c.06 0 .08.03.07.1-.03.19-.03.38 0 .57 0 .07-.02.1-.08.1h-1.73c-.05 0-.07-.02-.06-.08ZM33.45 39.07l-.98.22a2.77 2.77 0 0 1-.3-.08.98.98 0 0 0-.65.02c-.1.03-.14 0-.14-.1v-.54c0-.12.06-.18.18-.18h1.84c.03 0 .05.02.05.06v.6ZM22.02 38.91l-1.42-.46 1.32-.04c.06 0 .1.03.1.1v.4ZM24.03 39.3l-1.63-.29a.96.96 0 0 0 0-.5c-.02-.06 0-.09.07-.09h2.02c.04 0 .07.02.07.07v.53c0 .06-.03.1-.08.14-.13.07-.28.12-.45.14ZM26.61 38.4h-1.67a.05.05 0 0 0-.04.04v.7c0 .03.01.05.04.05h1.67c.02 0 .04-.01.04-.04v-.7a.05.05 0 0 0-.04-.04ZM28.84 38.5v.62c0 .04-.02.06-.05.06h-1.73c-.03 0-.05-.02-.05-.06v-.63c0-.04.02-.05.05-.05h1.73c.03 0 .05.02.05.05ZM35.53 38.43l-1.69.52-.01-.46c0-.06.03-.1.09-.1l1.61.04ZM30.04 39.63c-.47.07-.77.1-.9.1-.95.03-2.1-.02-3.45-.14 1.16-.08 2.3-.1 3.46-.08.14 0 .44.04.89.12Z" fill="#FDFDFD"/></svg>