<!-- by TradingView --><svg width="56" height="56" viewBox="0 0 56 56" xmlns="http://www.w3.org/2000/svg"><path fill="#F0F3FA" d="M0 0h56v56H0z"/><path fill-rule="evenodd" d="M39.5 32.74a12.22 12.22 0 0 0 0-9.47 12.3 12.3 0 0 0-6.7-6.7 12.3 12.3 0 0 0-9.5 0A12.33 12.33 0 0 0 15.65 28a12.22 12.22 0 0 0 3.63 8.75 12.32 12.32 0 0 0 8.77 3.62 12.3 12.3 0 0 0 8.77-3.62 12.3 12.3 0 0 0 2.68-4.01Zm-4.45-.67L37.36 35c.2.1.4-.02.62-.35a12 12 0 0 0 1.94-6.37c.06-2.93-.83-5.52-2.66-7.75a11.79 11.79 0 0 0-7.06-4.18c-.18.56-.17 1.08.05 1.56l.72-.69c.09-.09.19-.1.3-.03 1.54.9 2.1 2.38 1.65 4.41-.05.25.04.36.3.3 2.04-.4 3.48.05 4.33 1.34.06.1.06.18 0 .27-1.29 1.78-3.15 2.03-5.59.74-.14-.07-.21-.03-.21.13v2.84c0 .14-.07.21-.2.23l-.1.02c-.22.04-.33-.06-.33-.28v-2.78c0-.17-.07-.2-.2-.12l-.82.52.05 3.08 2.93-.09c.25 0 .37.12.37.37v1.62c0 .25-.12.35-.36.3a1.34 1.34 0 0 0-.55.02c-.18.04-.17.08.02.13.07.01.29.02.65 0 .14 0 .2.06.22.2l.12 1.56c.04.03.1.04.18.04.07 0 .1-.04.12-.1 0-.04 0-.06-.04-.09l-.15-3.32c-.04-.92.26-1.04.88-.36.51.55 1 1.24 1.45 2.07a.3.3 0 0 1 0 .31l-.94 1.52Z" fill="#D5160D"/><path fill-rule="evenodd" d="M38.31 14.44c-2.61-2-5.63-3.14-9.06-3.44H26.8c-3.3.3-6.24 1.4-8.83 3.3a16.95 16.95 0 0 0-6.9 15.4c.28 2.77 1.18 5.29 2.68 7.56 3.19 4.8 7.75 7.38 13.68 7.74h1.31a16.96 16.96 0 0 0 10.95-4.6A16.8 16.8 0 0 0 45 29.8v-3.66a16.87 16.87 0 0 0-6.69-11.7Zm4.97 19.86a16.26 16.26 0 0 0 0-12.6 16.34 16.34 0 0 0-8.92-8.9 16.36 16.36 0 0 0-6.31-1.25 16.36 16.36 0 0 0-11.66 4.82A16.3 16.3 0 0 0 11.56 28a16.3 16.3 0 0 0 4.83 11.63 16.36 16.36 0 0 0 11.66 4.82 16.36 16.36 0 0 0 11.66-4.82 16.3 16.3 0 0 0 3.57-5.33Z" fill="#D5160D"/><path d="m32.85 12.83.08-.25c.06-.18.14-.19.25-.04.06.1.05.2-.03.33-.32.45-.67.58-1.05.39-.14-.08-.15-.16 0-.26.04-.04.21-.04.5-.01.12.01.2-.04.25-.16Z" fill="#201A18"/><path d="M26.57 15.24c-.17.02-.29-.21-.35-.7a.64.64 0 0 0-.1-.27l-.55-.78c-.1-.15-.08-.25.07-.3a.19.19 0 0 1 .11-.01c.06.02.11.06.15.1.25.4.42.58.49.57.07 0 .17-.23.32-.67.02-.06.06-.1.1-.14a.17.17 0 0 1 .12-.03c.16.01.2.1.14.28l-.32.9a.67.67 0 0 0-.02.28c.06.49 0 .74-.16.77ZM29.72 14.8a.72.72 0 0 1 .2-.13c.31-.12.39-.04.24.25-.16.33-.48.44-.97.3a.7.7 0 0 1-.56-.64c-.04-.36 0-.68.14-.99.17-.36.41-.55.74-.56.42-.02.71.19.88.63.03.07.02.13-.04.17a.17.17 0 0 1-.1.04c-.02 0-.05 0-.07-.03l-.4-.35c-.11-.09-.22-.1-.32-.03-.37.23-.5.6-.39 1.11.03.15.12.25.26.3.14.05.27.03.4-.06ZM23.95 14.03c-.13.04-.22.05-.27.03-.4-.1-.4-.21-.04-.33l1.14-.36c.05-.01.09 0 .1.05l.05.14c.03.07 0 .1-.05.13-.3.13-.4.35-.28.65.1.26.2.62.28 1.1.02.06 0 .1-.07.12l-.1.04c-.03.01-.06 0-.07-.04l-.5-1.4c-.04-.1-.1-.15-.2-.13ZM31.43 15.68a.87.87 0 0 1-.54-.53 1.17 1.17 0 0 1-.03-.84c.1-.29.27-.51.52-.66a.88.88 0 0 1 1.3.42c.11.27.12.55.02.84-.1.3-.27.52-.51.67a.87.87 0 0 1-.76.1Z" fill="#050302"/><path d="M31.26 14.43c-.12.4.03.79.32.87.3.08.62-.18.73-.57.11-.4-.03-.79-.33-.87-.29-.08-.61.18-.72.57Z" fill="#F0F3FA"/><path d="M22.36 15.2c.23.16.4.42.52.76.05.12.01.22-.1.29l-.68.39c-.32.18-.61.14-.87-.1-.79-.75-.82-1.36-.1-1.84.45-.3.78-.24.98.2.06.11.14.21.25.3ZM34.17 15.97l-.25.43c-.03.05-.07.07-.13.05l-.1-.04c-.12-.03-.15-.1-.1-.21l.75-1.52c.06-.12.15-.16.28-.12.44.14.72.32.85.55.15.26.14.52-.04.77a.69.69 0 0 1-.72.3c-.07-.02-.17-.1-.3-.24-.1-.1-.17-.08-.24.03Z" fill="#050302"/><path d="M21.97 15.77c.11 0 .2.02.26.05.13.07.15.16.06.27-.36.44-.72.38-1.08-.2a.48.48 0 0 1-.08-.26c-.01-.62.25-.81.8-.58.25.1.24.22-.02.34-.03.02-.07.07-.1.16-.04.14.02.21.16.22ZM34.47 15.22c.17-.27.38-.28.65-.02.14.14.14.28 0 .43-.17.2-.38.17-.62-.08-.1-.1-.1-.21-.03-.33Z" fill="#F0F3FA"/><path d="m20.13 16.66-.54-.94c-.03-.05-.02-.1.03-.13l.08-.04c.05-.03.09-.02.12.01.4.47.73.96.99 1.47.21.43.08.55-.39.35-.06-.02-.33-.17-.8-.43-.3-.18-.37-.11-.2.2.1.17.27.38.5.63.1.11.1.2-.03.27l-.16.09c-.07.04-.12.02-.16-.04l-.94-1.62c-.08-.14-.04-.23.12-.27.15-.04.32.01.51.15.22.16.48.3.78.41.04.01.06 0 .09-.02.02-.03.02-.06 0-.09Z" fill="#201A18"/><path d="M36.63 16.68c.32.15.6.05.84-.3.03-.04.07-.04.11-.01l.09.07c.06.05.07.11.02.18l-1.11 1.4a.25.25 0 0 1-.25.1.2.2 0 0 1-.11-.05c-.07-.05-.08-.11-.01-.17.41-.43.48-.75.22-.97-.27-.23-.58-.1-.92.39-.05.07-.1.07-.17.01a.2.2 0 0 1-.07-.1.26.26 0 0 1 .06-.26l1.18-1.34c.05-.06.12-.06.18 0l.08.06c.05.04.05.08 0 .12-.3.3-.34.59-.14.87Z" fill="#050302"/><path d="M30.2 16.36c-.18.55-.17 1.07.05 1.55-1.07 1.3-1.21 2.6-.44 3.93.17.3.08.43-.26.39-1.98-.26-3.42.22-4.31 1.44l-1.8-3.14a.66.66 0 0 0-.18-.42c-.1-.09-.2-.1-.3-.04l-.93.54a.97.97 0 0 0-.48.18 4.61 4.61 0 0 0-1.76 3.98c.05 1.1.14 2.65.28 4.64.01.19-.07.26-.25.22a1.08 1.08 0 0 0-.65.06c-.22.1-.21.15.03.18l.82.08-.84.12a.26.26 0 0 0-.23.21.58.58 0 0 0 .05.41v.28a7.41 7.41 0 0 0-2.41-.11c-.1-.1-.15-.2-.15-.27v-.1c-.7-3.67 0-6.86 2.08-9.6 2.83-3.7 6.72-5.22 11.69-4.54Z" fill="#969593"/><path d="M16.67 17.33c.08-.24.23-.4.45-.45.14-.04.2.01.2.16 0 .17-.17.31-.52.42-.13.04-.17 0-.13-.13Z" fill="#201A18"/><path d="M30.1 24.81c-.98.53-1.8.71-2.46.56-.48-.11-1.02-.23-1.63-.35-.1-.3-.33-.5-.69-.6a.14.14 0 0 1-.1-.1.18.18 0 0 1 0-.1c.02-.05.04-.06.08-.03l.11.07s.01 0 0 0l-.17-.6c.9-1.21 2.33-1.7 4.3-1.43.35.04.44-.08.26-.39-.76-1.33-.62-2.64.45-3.93l.72-.69c.09-.09.19-.1.3-.03 1.54.9 2.1 2.38 1.65 4.41-.05.25.04.36.3.3 2.04-.4 3.48.05 4.33 1.34.06.1.06.18 0 .27-1.29 1.78-3.15 2.03-5.59.74-.14-.07-.21-.03-.21.13v2.84c0 .14-.07.21-.2.23l-.1.02c-.22.04-.33-.06-.33-.28v-2.78c0-.17-.07-.2-.2-.12l-.82.52Z" fill="#217E55"/><path d="M40.06 17.66c-.05.12-.15.16-.28.11a.31.31 0 0 1-.2-.17c-.04-.08-.12-.13-.23-.13a.22.22 0 0 1-.21-.11.13.13 0 0 1-.01-.13.14.14 0 0 1 .1-.08c.1-.01.17.02.23.1.07.08.15.11.25.09a.3.3 0 0 1 .25.04c.12.07.16.16.1.28ZM18.96 19a.86.86 0 0 1-.64.37 1.2 1.2 0 0 1-.82-.2 1.2 1.2 0 0 1-.52-.67.86.86 0 0 1 .1-.75.86.86 0 0 1 .65-.38c.28-.03.56.04.82.2.26.18.43.4.51.68.08.28.05.52-.1.74ZM38.87 17.63c.08.09.1.19.03.3-.25.54-.53 1.03-.82 1.5-.2.3-.33.28-.4-.06-.02-.08 0-.24.05-.46a.19.19 0 0 0 0-.1.32.32 0 0 0-.07-.1.38.38 0 0 0-.09-.08.19.19 0 0 0-.1-.02 1.2 1.2 0 0 1-.46 0c-.34-.1-.35-.24-.02-.4a15 15 0 0 1 1.58-.65c.12-.04.22-.02.3.07Z" fill="#050302"/><path d="M17.67 18.8c.3.28.71.32.91.1.2-.23.13-.64-.18-.9-.3-.28-.7-.32-.91-.1-.2.23-.12.63.18.9ZM38.35 18.16c-.02.07-.1.22-.24.45-.08.11-.14.1-.19-.02a.26.26 0 0 0-.08-.1c-.1-.08-.1-.15.01-.22l.39-.24c.13-.08.17-.04.11.13Z" fill="#F0F3FA"/><path d="M39.57 20.33c0 .03 0 .06.03.08.03.02.06.02.1 0l.9-.6c.05-.03.1-.02.13.03l.05.08c.03.04.02.08-.01.12-.44.42-.91.78-1.41 1.07-.42.24-.54.11-.37-.37l.39-.81c.15-.33.08-.39-.21-.2-.17.11-.37.3-.61.55-.1.1-.2.1-.27-.03l-.1-.15c-.04-.06-.03-.12.04-.16l1.55-1.03c.14-.09.23-.06.28.1.05.15 0 .32-.12.52-.15.23-.27.5-.37.8ZM17.25 20.2a.8.8 0 0 1-.04-.23c.02-.33.13-.37.33-.11.23.3.18.63-.14 1a.7.7 0 0 1-.83.23c-.34-.12-.62-.3-.83-.56-.26-.3-.32-.6-.19-.91.16-.38.48-.56.95-.52.08 0 .12.05.14.12v.1c-.02.02-.03.04-.06.05l-.5.22c-.13.06-.18.15-.17.27.06.43.34.7.84.83.15.04.28 0 .39-.1.1-.1.14-.24.1-.38Z" fill="#050302"/><path d="M23.45 20.53c-.41.3-.8.48-1.19.56l-.08-.08a.59.59 0 0 1-.15-.4l.93-.54c.1-.06.2-.05.3.04.1.1.17.23.19.42Z" fill="#F0F3FA"/><path d="M22.03 20.6c0 .15.05.29.15.41-.22.22-.45.43-.7.63-.76.63-1.13 1.6-1.11 2.95 0 .32.06 1.93.18 4.84.01.22.12.3.33.24.61-.17.9-.06.84.33l-1.7-.05-.82-.08c-.24-.03-.25-.09-.03-.18.2-.09.42-.1.64-.06.19.04.27-.03.26-.22-.14-1.99-.23-3.54-.28-4.64a4.61 4.61 0 0 1 1.76-3.98c.1-.1.27-.15.48-.18Z" fill="#201A18"/><path d="m23.45 20.53 1.79 3.14.18.59-.12-.07c-.04-.03-.06-.02-.07.03a.18.18 0 0 0 0 .1c.01.05.04.08.1.1.35.1.58.3.68.6l1.44 2.68c-.4.65-.5 1.4-.28 2.25.03.12.1.16.22.12l1.16-.36.27.4c-.03.36-.42.4-1.2.14-.33-.12-.5 0-.5.35v.19c0 .28.14.44.42.49.49.08.8.32.91.73l-.41.09c-.7-.4-1.35-.39-1.94.05l-.18-.13c.12-.35.38-.59.78-.72.11-.04.17-.12.17-.24v-2.82c0-.2-.1-.3-.3-.3h-.19a.28.28 0 0 0-.26.16c-.25.46-.49.85-.72 1.17-.24.35-.34 1.1-.3 2.27l.02.5H23.6a4.22 4.22 0 0 0-.93-1.06l-.4-9.89c.38-.08.78-.27 1.19-.56Z" fill="#FFF500"/><path d="m22.26 21.1.4 9.88c-.47-.24-.72-.25-.74-.04a.46.46 0 0 1-.08-.16c.07-.31.03-.57-.12-.78.05-.39-.23-.5-.84-.33-.2.06-.32-.02-.33-.24-.12-2.9-.18-4.52-.18-4.84-.02-1.34.35-2.32 1.11-2.95.25-.2.48-.41.7-.63l.08.08ZM30.1 24.81l.05 3.08-2.45.05a.38.38 0 0 1-.25-.24L26 25.02l1.63.35c.66.15 1.48-.03 2.46-.56Z" fill="#969593"/><path d="M43.78 27.72v.14c0 .05-.02.1-.07.13-.45.23-.55.6-.3 1.11.03.08 0 .14-.09.18a.32.32 0 0 1-.12.02.13.13 0 0 1-.1-.05c-.35-.46-.75-.44-1.21.06a.13.13 0 0 1-.16.04c-.06-.03-.08-.08-.08-.14.02-.2.06-.38.12-.55.05-.13.06-.22.04-.3-.02-.06-.09-.13-.2-.2-.16-.1-.3-.22-.43-.37-.05-.05-.05-.1-.02-.16.03-.05.08-.07.15-.06.67.12 1-.1 1-.67 0-.05.01-.09.05-.11a.32.32 0 0 1 .11-.06c.1-.01.16.02.18.1.1.55.4.8.9.71.07 0 .11.01.15.06l.08.12ZM13.55 28.94l-.55.32c-.21.12-.28.07-.2-.17l.18-.54a.17.17 0 0 0-.04-.2l-.48-.44c-.21-.2-.21-.3 0-.32l.7-.07a.3.3 0 0 0 .25-.19c.1-.26.17-.4.19-.42.11-.1.2-.07.23.09.1.45.4.63.87.55.14-.02.23.04.27.18v.11a.24.24 0 0 1-.14.19c-.44.2-.53.57-.25 1.09a.1.1 0 0 1-.01.13.1.1 0 0 1-.12.04 1.47 1.47 0 0 1-.57-.32c-.1-.09-.21-.1-.33-.03Z" fill="#D5160D"/><path d="M27.7 27.94c0 .21.16.57.47 1.08.2.32.32.55.38.7l-1.16.35c-.11.04-.19 0-.22-.12a2.8 2.8 0 0 1 .28-2.25c.04.13.13.2.25.24Z" fill="#7DAB55"/><path d="M33.55 32a.4.4 0 0 0-.23.01c-.17-.37-.4-.64-.68-.8-.23-.14-.3-.08-.22.17.11.37.37.63.77.8.07.1.13.14.2.12-.12 0-.21 0-.28.02a.32.32 0 0 0-.22.15c-.27.43-.57.64-.9.64-.35.01-.64-.23-.86-.72-.05-.03-.07-.11-.05-.24.26-.37.6-.65 1.03-.85.04-.02.05-.04.03-.08l-.09-.14c-.05-.09-.12-.11-.21-.08-.58.19-.95.57-1.1 1.12-.45.12-.75.07-.9-.16l-1.02-1.85-.27-.4a4.86 4.86 0 0 0-.38-.7c-.3-.5-.46-.86-.46-1.07l2.44-.05 2.93-.09c.25 0 .37.12.37.37v1.62c0 .25-.12.35-.36.3a1.34 1.34 0 0 0-.55.02c-.17.04-.17.08.03.13.06.01.28.02.64 0 .14 0 .2.06.22.2l.12 1.56ZM35.05 32.07c-.21-.15-.56-.13-1.04.05-.06.03-.13-.06-.2-.27l-.14-3.32c-.04-.92.25-1.04.87-.36.51.55 1 1.24 1.46 2.07a.3.3 0 0 1-.01.31l-.94 1.52Z" fill="#0064AA"/><path d="m25.92 32.02-.8.02c0-.1 0-.27-.02-.5-.05-1.16.05-1.92.3-2.27.23-.32.47-.71.72-1.17.05-.1.14-.16.26-.16h.2c.2 0 .3.1.3.3v2.82c0 .12-.07.2-.18.24-.4.13-.66.37-.78.72Z" fill="#7DAB55"/><path d="M26.41 28.82c.13.04.13.35.02.91-.06.26-.2.35-.42.27-.23-.08-.29-.24-.17-.47.26-.52.45-.75.57-.71Z" fill="#FFF500"/><path d="M21.72 30c.15.21.2.47.13.78-.3.09-.62.05-.98-.1a.24.24 0 0 0-.24.02.24.24 0 0 0-.12.2v2.3c0 .13-.06.2-.2.2h-.13c-.12 0-.17-.06-.17-.18v-2.3c0-.13-.07-.19-.2-.18-.26.03-.53.01-.8-.05a.58.58 0 0 1-.06-.41.26.26 0 0 1 .23-.2l.84-.13 1.7.05Z" fill="#F0F3FA"/><path d="M29.85 31.96a3.75 3.75 0 0 0-1.4.05c-.12-.4-.42-.65-.91-.73-.28-.05-.41-.21-.41-.49v-.2c0-.34.16-.46.49-.34.78.27 1.17.22 1.2-.14l1.03 1.85Z" fill="#7DAB55"/><path d="M30.86 30.3c.7 0 1.26-.06 1.26-.12 0-.07-.56-.12-1.26-.11-.7 0-1.26.05-1.26.11 0 .07.56.12 1.26.12ZM34.78 30.05c.26 0 .44.01.54.03.41.08.41.14 0 .18a5.24 5.24 0 0 1-1.1 0c-.4-.06-.4-.12 0-.19l.56-.02ZM21.84 30.78c.02.07.05.12.08.16l.36 1.92c.02.12.09.16.2.1l1.08-.6c.27-.04.47-.04.6 0 .13.06.15.14.06.24l-.93.97a.4.4 0 0 1-.29.14l-1.17.04-.05-.1a.24.24 0 0 0-.23-.15h-2.7c-.13 0-.2-.07-.17-.2l.32-2.33v-.28c.28.06.55.08.81.05.13-.01.2.05.2.18v2.3c0 .12.05.17.17.17h.13c.13 0 .2-.06.2-.2v-2.28c0-.1.04-.16.12-.21a.24.24 0 0 1 .24-.02c.35.15.68.19.97.1Z" fill="#D5D4D3"/><path d="m19 30.97-.32 2.32c-.02.14.04.2.18.2h2.69c.1 0 .19.06.23.16l.05.1a.46.46 0 0 1-.08.23c-.71.05-1.3.4-1.76 1.03-.09.11-.06.2.07.25.05.02.12.02.19.01.14.08.2.15.18.22-.07.2 0 .41.23.62.32.3.6.25.85-.15.08 0 .15.02.2.09a.47.47 0 0 0-.02.1c-.01.1.03.14.12.14.95.03 1.88.03 2.81 0 .22-.01.32-.09.3-.24l.18.07c-.04.02-.06.05-.05.1.01.05.05.08.11.08 1.01.08 1.82.09 2.43.05.11 0 .18-.08.21-.2.16.02.22.06.17.11.74.2 1.48.2 2.23 0-.05-.08 0-.13.17-.14-.04.14.03.22.2.25.34.06 1 .07 1.99.03.12 0 .2-.06.2-.18l.02-.14.24-.06c-.04.26.03.4.21.4l1.69.03a.3.3 0 0 0 .15-.04c.07-.04.1-.09.08-.15.07-.07.14-.1.2-.1 0 .16.23.3.68.39a6.24 6.24 0 0 1-2.15 1.8 12.9 12.9 0 0 1-5.34 1.45 11.6 11.6 0 0 1-9.24-3.85 12.8 12.8 0 0 1-2.72-4.78.32.32 0 0 1 0-.2.43.43 0 0 0 0-.11c.85-.1 1.66-.06 2.42.1Z" fill="#373431"/><path d="M22.66 30.98c.38.32.7.67.93 1.06.01.14 0 .25-.03.33l-1.08.59c-.11.05-.18.02-.2-.1l-.36-1.92c.02-.21.27-.2.74.04Z" fill="#373431"/><path d="m31.08 32.15-.35-.03c.16-.55.53-.93 1.1-1.12.1-.03.17 0 .22.08l.09.14c.02.04 0 .06-.03.08-.43.2-.78.48-1.03.85ZM33.32 32.01c0 .07-.04.13-.13.17-.4-.17-.66-.43-.77-.8-.08-.25-.01-.3.22-.18.29.17.51.44.68.81Z" fill="#F0F3FA"/><path d="M13.55 32.79c.1.04.17.08.2.12.26.22.22.32-.1.32-.38 0-.62-.24-.71-.73a.7.7 0 0 1 .33-.8c.3-.19.61-.29.95-.3.4-.02.67.12.83.4.21.37.15.73-.17 1.08-.05.05-.1.07-.18.03a.16.16 0 0 1-.07-.06c-.02-.02-.02-.05 0-.08l.12-.52c.04-.14 0-.24-.1-.3-.38-.22-.77-.17-1.18.15a.38.38 0 0 0-.16.36c.02.15.1.26.24.33ZM42.14 32.43c-.05.14 0 .24.14.28l.13.05c.13.04.22 0 .26-.12.09-.2.17-.42.26-.67.02-.08.06-.13.1-.16h.16c.11.02.15.09.11.2l-.37 1.11c-.06.16-.16.21-.32.16l-1.55-.53c-.13-.04-.19-.13-.18-.26.02-.33.11-.66.28-1 .03-.07.09-.09.16-.06l.16.05c.16.06.18.14.05.25a.82.82 0 0 0-.28.75c.01.1.07.14.18.1l.19-.07a.35.35 0 0 0 .24-.28c.05-.28.14-.45.28-.5.05-.03.1-.02.15.02.04.04.05.1.03.15l-.18.53Z" fill="#050302"/><path d="M28.04 32.1a.3.3 0 0 1 0 .23l-.05.09c-.24.47-.5.74-.77.8-.5.1-.87-.17-1.12-.82v-.25c.6-.44 1.24-.46 1.94-.05Z" fill="#0064AA"/><path d="M35.05 32.07 37.36 35l-.22.4-1.63.12c-.12 0-.19.07-.2.2-.02.12 0 .27.04.43a.39.39 0 0 0-.2.1c-.1-.4-.29-.64-.58-.74a2.47 2.47 0 0 0-.9-.04l-.39.02c-.13 0-.22.07-.26.2-.03.09-.03.2 0 .33l-.24.06-.17-.4a.28.28 0 0 0-.27-.19h-1.57a.3.3 0 0 0-.3.2c-.06.13-.1.27-.1.43-.16.01-.22.06-.16.14l-.2-.53a.3.3 0 0 0-.24-.2c-.45-.07-.9-.07-1.36 0a.28.28 0 0 0-.24.19l-.2.54c.05-.05 0-.09-.17-.11l-.07-.46c-.03-.13-.1-.2-.24-.2h-1.86c-.12 0-.2.05-.26.15l-.27.48a.65.65 0 0 0-.18-.07v-.38c0-.13-.07-.2-.2-.19h-2.14c-.37-.01-.65.18-.86.57a.25.25 0 0 0-.21-.1.77.77 0 0 0 .12-.3c.02-.13-.04-.2-.18-.2l-1.02.04c.02-.07-.04-.14-.18-.22.45-.14.92-.17 1.4-.1.13.03.24 0 .35-.07.32-.2.59-.49.8-.84.08-.13.04-.2-.1-.2l-.95-.08a.46.46 0 0 0 .08-.23l1.17-.04c.1 0 .2-.05.29-.14l.93-.97c.1-.1.08-.18-.06-.24a1.18 1.18 0 0 0-.6 0 .75.75 0 0 0 .03-.32h1.53l.8-.02.18.13v.25h-1.09a.6.6 0 0 0-.5.23l-.64.81a.14.14 0 0 0-.02.16c.03.05.07.08.13.08h1.47c.1 0 .2-.05.27-.13l.14-.18c.06-.08.11-.08.17 0l.24.23c.05.04.13.06.25.06.6.02 1.06 0 1.36-.04a.29.29 0 0 0 .26-.21l.26-.77c.06-.19 0-.29-.2-.3l-.16-.01a.3.3 0 0 0 0-.23l.41-.1c.38-.1.85-.1 1.4-.04.14.23.44.28.88.16l.35.03c-.02.13 0 .21.05.24a.87.87 0 0 0-.49-.01c-.1.04-.16.16-.17.35v.74c0 .12.06.18.18.18h4.91c.16 0 .2-.07.13-.2-.33-.68-.81-1.06-1.44-1.16-.4-.05-.5.09-.28.43.13.2.2.4.19.62 0 .2-.06.22-.16.04l-.62-1.08c-.06.02-.12-.02-.19-.12.1-.04.14-.1.13-.17a.4.4 0 0 1 .23-.01c.04.03.1.04.19.04.06 0 .1-.04.11-.1 0-.04 0-.06-.04-.09.07.2.14.3.2.27.48-.18.83-.2 1.04-.05Z" fill="#6E706B"/><path d="M26.1 32.4c.25.65.62.92 1.12.81.28-.05.53-.32.77-.8l.05-.08h.16c.2.02.26.12.2.31l-.26.77a.29.29 0 0 1-.26.2c-.3.05-.76.07-1.36.05-.12 0-.2-.02-.25-.06a2.08 2.08 0 0 1-.24-.24c-.05-.07-.11-.07-.17 0l-.14.19a.33.33 0 0 1-.27.13h-1.47a.14.14 0 0 1-.13-.08.14.14 0 0 1 .02-.16l.64-.8a.6.6 0 0 1 .5-.25l1.1.01ZM29.97 32.38l-1.2-.03a.14.14 0 0 0-.14.14l-.03 1c0 .08.06.15.14.15l1.2.04c.07 0 .14-.06.14-.14l.03-1a.14.14 0 0 0-.14-.16ZM31.13 32.4c.22.48.5.72.86.71.33 0 .63-.21.9-.64a.32.32 0 0 1 .21-.15c.08-.02.17-.03.28-.02l.62 1.08c.1.18.15.16.16-.04 0-.21-.06-.42-.19-.62-.21-.34-.12-.48.28-.43.63.1 1.11.48 1.44 1.15.07.14.03.21-.13.21h-4.9c-.13 0-.2-.06-.2-.18v-.74c.02-.2.08-.3.18-.35a.86.86 0 0 1 .49.01Z" fill="#F0F3FA"/><path d="M15.98 33.54a.78.78 0 0 1-.24-.36c-.06-.17 0-.22.17-.15.22.1.35.26.4.48.03.14-.03.2-.17.19-.1-.01-.15-.07-.16-.16ZM40.26 35.21l1.2.7c.07.03.1.1.07.17l-.06.19c-.05.13-.13.16-.24.07l-1.08-.86c-.15-.12-.29-.1-.41.05l-.26.32c-.03.04-.05.03-.08 0l-.07-.13a.13.13 0 0 1 0-.15c.47-.7.85-1.36 1.14-1.99.12-.26.24-.41.36-.46.25-.1.5 0 .77.3a.2.2 0 0 0 .08.05l.9.3c.08.03.1.08.08.16l-.05.15c-.02.06-.06.07-.12.05l-.54-.18c-.12-.04-.21 0-.28.1l-.14.27c-.1.15-.05.25.12.3.2.04.38.12.51.21.08.05.1.12.05.2l-.1.17c-.03.06-.08.07-.14.04l-1.36-.78c-.09-.05-.15-.03-.2.05l-.23.4c-.08.12-.05.23.08.3ZM15.75 33.68c.12.23.11.48 0 .74-.13.26-.33.47-.61.6-.29.15-.57.19-.85.13a.82.82 0 0 1-.6-.44.81.81 0 0 1 0-.73c.13-.27.33-.47.61-.61.29-.14.57-.18.85-.12.29.06.49.2.6.43Z" fill="#050302"/><path d="M40.8 33.7c-.12.18-.1.4.03.5.14.09.35.02.47-.15.12-.18.1-.4-.03-.5-.14-.09-.35-.02-.47.15ZM14.94 34.67c.38-.16.6-.51.48-.77-.12-.27-.52-.34-.9-.17-.39.17-.6.52-.49.78.12.26.52.33.9.16ZM21.75 33.98l.94.07c.15.01.19.08.11.2a2.6 2.6 0 0 1-.8.85c-.11.07-.23.1-.35.08a3.06 3.06 0 0 0-1.4.1.37.37 0 0 1-.19-.02c-.13-.05-.16-.14-.07-.25a2.3 2.3 0 0 1 1.76-1.03ZM23.77 34.05h1.49c.22 0 .3.1.23.32l-.16.47c-.07.2-.21.3-.43.3h-1.98c-.28 0-.33-.1-.16-.32l.36-.45a.8.8 0 0 1 .65-.32ZM27.6 35.13h-1.68c-.2 0-.28-.1-.21-.3l.16-.47c.06-.2.2-.3.42-.3h1.42c.2 0 .3.1.3.3v.37c0 .26-.14.4-.41.4ZM32.2 34.06h-1.48a.27.27 0 0 0-.27.28v.52c0 .15.12.27.27.27h1.48c.15 0 .28-.12.28-.27v-.53a.27.27 0 0 0-.28-.27ZM34.3 34.28l.25.72c.04.1 0 .15-.1.15h-1.29c-.27 0-.4-.14-.4-.4v-.4c0-.2.1-.3.3-.3h.9c.17 0 .28.07.33.23ZM34.82 34.05h1.13c.3 0 .5.12.65.37l.25.43c.11.19.06.29-.17.29h-1.34a.46.46 0 0 1-.42-.25l-.3-.5c-.13-.23-.06-.34.2-.34ZM29.8 34.07l-1.22.01a.26.26 0 0 0-.26.27l.01.53c0 .15.12.26.27.26l1.22-.01c.14 0 .26-.13.26-.27v-.53a.26.26 0 0 0-.27-.26Z" fill="#F0F3FA"/><path d="M15.67 35.59c.02-.03 0-.06-.02-.08-.02-.03-.05-.03-.08-.02l-.95.51c-.05.03-.1.02-.13-.03l-.04-.08c-.02-.05-.02-.09.02-.12.48-.38.97-.69 1.48-.93.43-.2.55-.07.34.39l-.46.77c-.18.3-.11.37.2.2.17-.09.38-.25.64-.47.1-.1.2-.08.26.05l.09.15c.03.07.02.12-.05.16l-1.63.88c-.14.07-.23.03-.26-.13-.04-.15.02-.31.16-.5.17-.2.31-.46.43-.75Z" fill="#050302"/><path d="M37.14 35.4c-.24.67-.6 1.05-1.1 1.15-.46-.1-.68-.23-.69-.4a1.24 1.24 0 0 1-.04-.43c.01-.13.08-.2.2-.2l1.63-.12ZM20.43 35.5l1.02-.05c.14 0 .2.07.18.2a.77.77 0 0 1-.12.3c-.24.41-.52.46-.85.16-.22-.2-.3-.41-.23-.62ZM24.92 36.05c.02.15-.08.23-.3.24-.93.03-1.86.03-2.8 0-.1 0-.14-.05-.13-.14l.03-.1c.2-.39.5-.58.86-.58.71.02 1.43.02 2.14.01.13 0 .2.06.2.19v.38ZM27.8 36.15c-.03.12-.1.2-.21.2-.6.04-1.42.03-2.43-.05-.06 0-.1-.03-.1-.09-.02-.04 0-.07.04-.09l.27-.48c.06-.1.14-.15.26-.15h1.86c.14 0 .21.07.24.2l.07.46ZM30.2 36.26c-.75.2-1.5.2-2.23 0l.2-.54a.28.28 0 0 1 .24-.2c.45-.06.9-.06 1.36.02.12.02.2.08.24.2l.2.52ZM32.78 36.08l-.02.14c0 .12-.08.18-.2.18-.99.04-1.65.03-1.98-.03-.18-.03-.25-.11-.21-.25 0-.16.04-.3.1-.43a.3.3 0 0 1 .3-.2h1.57c.13 0 .22.07.27.19l.17.4ZM35.15 36.26c.02.06 0 .11-.08.16a.3.3 0 0 1-.15.03l-1.68-.03c-.2 0-.26-.14-.22-.4a.66.66 0 0 1 0-.34c.04-.12.13-.19.26-.19.08 0 .21 0 .38-.02.43-.04.73-.02.9.04.3.1.5.35.59.75Z" fill="#F0F3FA"/><path d="M16.81 38.06v-.27c0-.23.1-.28.27-.13l.35.27c.12.1.11.18-.02.26-.23.15-.43.33-.6.54-.08.1-.16.1-.22-.02-.1-.17-.24-.32-.44-.44a.69.69 0 0 1-.32-.42.67.67 0 0 1 .05-.52c.3-.55.7-.83 1.24-.83.55 0 .85.35.9 1.07l-.08.06-.14.1c-.08.06-.12.04-.12-.06 0-.36-.06-.58-.18-.68a.67.67 0 0 0-.63-.12.8.8 0 0 0-.52.44c-.2.38-.14.69.18.9.06.04.12.05.19.01.06-.03.1-.09.1-.16ZM39.34 37.57c.03 0 .06-.02.07-.05.02-.03.01-.06-.01-.09l-.8-.75c-.04-.04-.04-.08 0-.13l.07-.07c.03-.04.07-.04.11-.01.52.33.98.71 1.37 1.13.33.36.24.5-.27.44-.07 0-.37-.07-.9-.2-.34-.07-.39.02-.13.26.14.14.37.3.66.47.13.08.14.17.04.27l-.13.13c-.05.06-.1.06-.16 0l-1.36-1.29c-.12-.11-.1-.21.04-.3.13-.07.3-.07.53.01.26.1.55.16.87.18ZM36.76 38.44c.2-.27.44-.46.7-.57.06-.03.1-.01.13.06l.05.14c.02.05 0 .09-.04.1-.29.16-.44.27-.46.33-.2.59-.06.68.44.3l.3-.25c.08-.06.16-.06.23 0l.1.08c.02 0 .01.03-.02.07l-.51.65c-.08.1-.06.17.04.24l.12.06c.1.06.2.04.28-.06.16-.22.3-.34.4-.37.51-.13.58 0 .2.37l-.68.55c-.1.08-.2.08-.28 0a4.8 4.8 0 0 1-1.39-1.82.37.37 0 0 1 .03-.33l.4-.69c.05-.1.09-.1.1.03a1 1 0 0 1-.27.7.15.15 0 0 0-.02.16l.09.24c.01.04.03.05.06.01ZM21.3 40.3c-.5.2-.8.59-.93 1.16-.02.11-.08.15-.19.11l-.13-.04c-.12-.04-.15-.12-.09-.23l.27-.46c.07-.12.05-.2-.07-.27l-.23-.14c-.12-.07-.23-.05-.32.06l-.3.37c-.04.06-.1.08-.17.05a.2.2 0 0 1-.09-.09.12.12 0 0 1 0-.1c.18-.62.52-1.05 1.02-1.28-.11.57.01.86.38.89.16 0 .26-.05.31-.17.06-.13.03-.24-.09-.32l-.6-.4c-.18-.19-.4-.34-.64-.45-.12-.06-.21-.03-.29.06l-.87 1.1c-.06.08-.14.08-.23 0l-.08-.07c-.06-.04-.07-.09-.02-.15l.95-1.19c.07-.09.07-.18 0-.27a.96.96 0 0 0-.16-.17c-.17-.12-.15-.2.06-.24.08 0 .17.03.27.11.61.54 1.26 1.04 1.94 1.48.25.16.35.38.3.64ZM37.22 40.31c.13.17.1.32-.06.45l-.7.54c-.18.13-.33.12-.46-.05l-.9-1.17c-.13-.17-.11-.32.06-.45l.7-.54c.17-.13.32-.11.45.06l.9 1.16Z" fill="#050302"/><path d="M36.03 40.04c.18-.14.25-.35.15-.47s-.32-.1-.5.04c-.17.14-.23.35-.14.47.1.12.32.1.5-.04Z" fill="#F0F3FA"/><path d="M21.8 39.63c.03-.09.1-.13.19-.13.12 0 .15.13.1.37-.02.08-.07.12-.15.13-.18.02-.22-.1-.14-.37Z" fill="#373431"/><path d="M36.65 40.76c.19-.15.24-.4.13-.53-.12-.14-.36-.12-.55.04-.18.15-.24.39-.12.53.12.13.36.12.54-.04Z" fill="#F0F3FA"/><path d="M21.3 40.3c.13.02.23.06.3.12.06.07.07.16.03.3a4.2 4.2 0 0 1-.6 1.21c-.07.1-.15.1-.23.04l-.11-.09c-.08-.06-.09-.13-.02-.2.4-.42.6-.89.62-1.39ZM22.97 41.66l.28-.81c.02-.07.06-.09.12-.07l.14.05c.05.02.06.05.05.1L23 42.55c-.05.17-.16.22-.33.16l-.13-.04c-.09-.03-.13-.1-.11-.19.08-.44.04-.8-.12-1.11-.08-.16-.15-.15-.21.01l-.29.85c-.02.07-.07.09-.14.07l-.14-.05c-.1-.03-.11-.09-.06-.18.34-.53.46-1.07.36-1.6-.03-.18.04-.23.2-.18l.49.17c.1.03.14.1.13.21-.04.26 0 .58.1.98.07.23.14.23.22 0ZM33.92 40.28l-.02.01a.17.17 0 0 0-.07.24l1.06 1.97c.04.09.15.12.23.07h.02a.17.17 0 0 0 .07-.24l-1.06-1.98a.17.17 0 0 0-.23-.07ZM32.93 42.14l.21.6c.04.08 0 .14-.08.18l-.1.03c-.1.03-.15 0-.19-.08l-.44-1.23c-.08-.23-.23-.3-.45-.22l-.2.07c-.16.06-.2.16-.15.31l.43 1.2c.04.12 0 .2-.13.25l-.18.06c-.11.05-.18 0-.2-.11l-.18-1.32c-.02-.13-.1-.2-.23-.2h-.38a.1.1 0 0 1-.1-.05.29.29 0 0 1-.05-.16c0-.09.04-.14.12-.16l1.58-.4c.1-.03.2 0 .28.1.07.08.12.2.15.35.03.13.12.19.25.17a.8.8 0 0 0 .38-.14.2.2 0 0 0 .07-.24l-.16-.44c-.04-.1 0-.17.1-.2a.68.68 0 0 1 .08-.04c.13-.04.22.01.27.14l.62 1.73c.02.05 0 .1-.03.13-.04.04-.09.05-.14.02-.17-.08-.3-.28-.39-.6-.04-.14-.13-.19-.27-.13l-.37.13c-.12.04-.16.13-.12.25ZM24.69 42.54c.06-.18 0-.27-.2-.27h-.31c-.15 0-.24.07-.29.2l-.17.5c-.03.09-.09.12-.18.09l-.12-.04c-.08-.03-.11-.09-.09-.17l.61-1.79c.03-.07.07-.1.15-.1h.13c.11 0 .15.05.11.16l-.15.45c-.04.12 0 .21.1.28.15.1.3.14.44.1.12-.02.2-.1.2-.23.03-.19.07-.3.13-.33.35-.16.46-.05.34.32l-.54 1.61c-.03.08-.08.11-.16.08l-.1-.03c-.11-.04-.15-.1-.11-.2l.21-.63Z" fill="#050302"/><path d="m28.02 42.14.55-.69c.05-.05.04-.1-.02-.14-.04-.02-.07-.05-.08-.07-.03-.06-.01-.13.05-.2.06-.08.15-.1.29-.09.1.02.18.08.2.18.02.04.01.1-.01.16-.04.08-.01.13.07.17.69.28.97.77.83 1.47-.1.5-.38.77-.85.81-.48.04-.8-.18-.94-.67-.12-.36-.22-.37-.33-.01-.17.59-.67.78-1.5.57-.09-.03-.13-.08-.13-.17v-1.68c0-.18.09-.29.27-.32.7-.1 1.18.12 1.41.66.05.11.12.12.2.02Z" fill="#201A18"/><path d="M27.13 42.6c.03 0 .03-.02 0-.04-.52-.33-.58-.54-.18-.65.13-.04.23 0 .3.12.24.37.26.71.04 1.01-.18.25-.32.35-.42.32-.51-.16-.53-.36-.04-.6l.3-.15ZM28.44 42.68c.04.4.3.71.6.68.3-.02.5-.37.46-.77-.04-.4-.3-.71-.6-.68-.29.02-.5.37-.46.77Z" fill="#F0F3FA"/></svg>