<!-- by TradingView --><svg width="56" height="56" viewBox="0 0 56 56" xmlns="http://www.w3.org/2000/svg"><path fill="#2D9FFE" d="M0 0h56v56H0z"/><path fill-rule="evenodd" d="M28 44a16 16 0 1 0 0-32 16 16 0 0 0 0 32Zm0-4a12 12 0 1 0 0-24 12 12 0 0 0 0 24Z" fill="#0556C0"/><path d="M27.76 13.67c.11 0 .14-.21.08-.64-.02-.12.03-.17.15-.17h.3c.13 0 .2.07.2.2l-.03 1.92c0 .12-.06.17-.18.17h-.24c-.14 0-.2-.07-.18-.2.06-.5.03-.74-.1-.74-.14 0-.16.25-.08.74.02.13-.04.2-.18.2l-.24.02c-.12 0-.18-.05-.18-.17l-.09-1.92c0-.13.06-.2.19-.2l.3-.01c.13 0 .18.05.16.16-.05.43 0 .64.12.64Z" fill="#FDFEFE"/><path fill-rule="evenodd" d="M25.65 14.63c-.03-.1.02-.17.13-.2.51-.11.6-.52.27-1.21a.23.23 0 0 0-.18-.14c-.27-.05-.6-.01-1 .1-.11.04-.15.11-.13.23l.45 1.87c.03.13.11.18.24.15l.16-.04c.15-.03.2-.12.17-.27l-.11-.48Zm-.1-1.13c-.1-.03-.13 0-.12.09l.05.28c.01.06.05.09.11.08l.11-.03c.04-.03.05-.08.04-.14-.01-.14-.08-.24-.2-.28Z" fill="#FDFEFE"/><path d="M32.75 14.45c-.04.15-.01.16.07.03.15-.24.24-.42.27-.53.04-.15.13-.2.28-.16l.08.03c.1.02.13.08.1.17L33 15.86c-.05.15-.15.2-.3.16l-.17-.05c-.16-.04-.22-.14-.18-.3.05-.21.07-.4.04-.55-.03-.15-.07-.15-.12 0l-.13.46c-.05.15-.15.2-.3.16l-.1-.02c-.09-.03-.12-.09-.1-.18l.56-1.85c.03-.1.1-.17.2-.19.15-.02.27.02.35.13.05.06.08.16.07.28a3 3 0 0 1-.07.54Z" fill="#FDFEFE"/><path fill-rule="evenodd" d="M30.53 15.25a22.67 22.67 0 0 0-.05-2.34l.04-.04c.07-.04.07-.09 0-.15-.13-.12-.25-.18-.35-.17-.28.02-.46.19-.55.5L29 15.08c-.03.1 0 .15.1.15h.46c.09 0 .13-.04.13-.13v-.14c0-.07.04-.1.1-.1.04 0 .07.02.1.06.02.02.04.07.04.14 0 .21.16.3.49.29.06 0 .1-.04.1-.1Zm-.6-1.4c-.05.09-.1.26-.16.53 0 .03 0 .06.04.08.09.05.15.02.19-.08.05-.14.07-.31.04-.52-.01-.12-.05-.12-.12 0ZM21.37 13.95l-.17.08a.34.34 0 0 0-.06.09c-.03.07 0 .12.08.14a.6.6 0 0 0 .11.01c.06 0 .07.03.02.07l-.2.16a.38.38 0 0 0-.15.44c.16.52.43 1.01.81 1.49.06.08.14.11.24.11.37 0 .66-.16.86-.45a.3.3 0 0 0 .04-.26c-.23-.86-.66-1.44-1.28-1.75l-.3-.13Zm.25.7h-.01a.13.13 0 0 0-.06.18l.58 1.18c.03.07.11.1.18.06h.02c.06-.04.1-.12.06-.18l-.58-1.18a.14.14 0 0 0-.19-.06Z" fill="#FDFEFE"/><path d="m35.46 16.18-.35.53c-.04.07-.02.12.07.14.06.02.14-.04.22-.17.09-.14.2-.17.36-.08l.08.04c.12.07.16.18.1.31-.15.34-.4.48-.75.41a.82.82 0 0 1-.67-.57c-.02-.06 0-.15.03-.28.04-.12.18-.35.4-.67.23-.33.4-.53.5-.61.11-.09.2-.13.26-.13.35-.01.6.12.78.4.19.3.15.58-.12.84-.1.1-.22.1-.33.02l-.08-.06c-.13-.1-.14-.23-.04-.36.1-.12.12-.2.08-.26-.05-.07-.1-.07-.15-.01-.14.16-.27.33-.39.5ZM19.47 16.9a3.34 3.34 0 0 1-.43-.67c-.04-.13-.06-.22-.03-.28.1-.32.32-.52.65-.59.35-.07.6.06.77.4.06.13.03.24-.1.31l-.08.05c-.14.09-.27.06-.36-.08-.08-.13-.16-.18-.23-.16-.08.02-.1.07-.06.14a8.48 8.48 0 0 0 .77 1.03c.05.07.1.06.15 0 .04-.06.01-.15-.09-.27-.1-.13-.09-.25.04-.36l.07-.06c.12-.1.23-.1.34 0 .27.26.32.54.14.84a.85.85 0 0 1-.78.43c-.06 0-.15-.04-.26-.12-.1-.08-.28-.28-.51-.6ZM35.97 17.98c.17.2.37.26.57.16.15-.07.2-.02.17.13-.06.26 0 .44.2.55.09.05.16.04.22-.05l.4-.54c.5-.68.77-1.2.83-1.55.03-.16-.03-.28-.17-.36a.33.33 0 0 0-.4.03l-1.8 1.43c-.08.06-.09.13-.02.2Zm.92-.05c-.06-.06.05-.26.24-.46.2-.2.4-.32.46-.26.06.05-.05.25-.25.45s-.4.32-.45.27ZM17.27 18.22a1.22 1.22 0 0 1-.3-.4c-.06-.15-.03-.26.11-.34l.07-.04c.11-.07.2-.04.25.07.32.63.71 1.14 1.19 1.54.13.1.12.22 0 .32l-.1.07c-.1.08-.2.08-.3-.01a4.8 4.8 0 0 0-1.7-.91c-.11-.04-.15-.1-.12-.22.04-.13.12-.21.25-.24.1-.02.24.02.4.13.1.07.18.11.24.13.11.03.12 0 0-.1ZM17.46 20.8l-.1.13c-.07.1-.15.1-.24.05l-1.27-.83c-.09-.06-.16-.04-.21.05l-.05.07c-.03.06-.08.08-.15.06a.45.45 0 0 1-.24-.14c-.05-.05-.04-.14.02-.26a10.6 10.6 0 0 1 .51-.77c.09-.1.16-.15.23-.13.1.03.17.08.23.16.04.05.05.1 0 .16l-.05.07c-.06.09-.04.16.05.21l1.3.8c.08.05.1.13.05.23l-.08.14ZM38.3 20.05l.39-.3c.09-.08.17-.07.24.02.33.4.74.3 1.24-.29a.23.23 0 0 0 .04-.22 2.09 2.09 0 0 0-.53-.83c-.08-.09-.16-.1-.26-.02l-1.52 1.2c-.1.09-.12.18-.03.29l.1.12c.1.12.2.13.33.03Zm1.4-.9c.04.08-.04.2-.19.28-.14.07-.3.07-.33 0-.04-.08.04-.2.19-.27.14-.08.3-.08.33 0ZM41 22.24c.29-.06.48-.1.58-.16.14-.07.24-.04.31.1l.04.07c.04.09.02.15-.07.19l-1.77.85c-.14.07-.25.03-.32-.11l-.08-.15c-.07-.15-.03-.26.11-.33.2-.1.34-.22.44-.34.1-.13.07-.16-.08-.09l-.44.22c-.14.06-.24.03-.31-.1l-.05-.1c-.04-.08-.02-.15.07-.19l1.75-.84c.1-.05.2-.04.28.03.12.09.16.2.14.33a.4.4 0 0 1-.16.23c-.18.14-.33.25-.46.31-.14.08-.13.1.03.08ZM15.68 23.08a1.19 1.19 0 0 0-.46-.1c-.19-.02-.24-.1-.17-.27l.09-.21c.06-.16.18-.2.34-.13.29.14.52.22.7.24.2.02.27.12.19.3l-.31.73c-.08.18-.2.25-.4.21a5.05 5.05 0 0 1-1.54-.49c-.27-.15-.37-.37-.28-.67a.77.77 0 0 1 .76-.6c.14 0 .24.04.32.14.07.1.07.2 0 .29-.07.09-.24.15-.52.18-.15.02-.15.07-.02.13.5.23.9.37 1.23.43.32.05.34-.01.07-.18ZM42.4 23.94l-1.85.42c-.05 0-.07.04-.06.09l.02.13c0 .05.03.06.08.05l1.9-.43c.02.3.17.5.43.61.03.02.04.04.04.07l-.01.09c-.04.04-.08.06-.13.03l-.38-.15a.44.44 0 0 0-.27-.02l-1.29.3c-.36.1-.6-.06-.75-.47a2 2 0 0 1-.03-.12c-.08-.39.09-.63.5-.73l1.47-.36c.15-.04.25.02.32.16.03.08.04.19 0 .33ZM14.14 25c.16.02.17 0 .02-.07-.27-.1-.46-.16-.58-.17-.16 0-.23-.09-.21-.24v-.09c.02-.1.07-.13.17-.12l1.99.21c.16.02.23.1.22.27l-.02.17c-.02.16-.11.24-.28.22-.22-.01-.41 0-.56.06-.15.06-.15.1.01.11l.5.06c.16.02.23.1.21.26v.1c-.02.1-.07.14-.17.13l-1.97-.22a.25.25 0 0 1-.23-.17c-.05-.14-.03-.26.07-.36.06-.06.15-.1.27-.12.23-.02.42-.03.56-.02Z" fill="#FDFEFE"/><path d="M32.3 30.22c-.7.24-.69.31.06.2a5.26 5.26 0 0 0 4.2-3.06c.17-.36.43-.6.78-.7a.5.5 0 0 1 .47.07c.14.1.2.24.19.4a3.14 3.14 0 0 1-1.62 2.51c-1.51.89-3.72 1.34-6.64 1.35h-.65a35 35 0 0 1-6.98-.43c-2.87-.6-4.23-1.79-4.1-3.57a.35.35 0 0 1 .19-.29.4.4 0 0 1 .36-.03c.33.12.58.35.74.67a5.68 5.68 0 0 0 4.76 3.16c.08.01.11 0 .1-.04l-.02-.04-1.6-.61a5.9 5.9 0 0 1-2.2-1.6c-.74-.85-1-1.64-.8-2.39a.41.41 0 0 1 .25-.27.48.48 0 0 1 .39 0c.23.1.4.28.48.53.4 1.12.84 1.97 1.34 2.54.6.7 1.46 1.23 2.56 1.6.05 0 .08 0 .1-.04l.06-.09c.03-.05.02-.09-.04-.11a5.67 5.67 0 0 1-3.35-3.24c-.31-.79-.3-1.33.06-1.64.12-.1.26-.12.4-.08.16.04.25.13.3.27.22.8.38 1.35.48 1.64a5.33 5.33 0 0 0 3.31 3.42c.81.31 1.77.4 2.86.27a5.7 5.7 0 0 0 2.6-.94 5.84 5.84 0 0 0 2.38-4.08c.08-.43.29-.62.63-.56h.02c.38.06.55.22.52.48a4.77 4.77 0 0 1-1.14 2.7 9.26 9.26 0 0 1-2.44 1.8c-.06.03-.07.08-.05.13.02.04.06.05.1.03 2.01-.6 3.27-1.87 3.77-3.8.09-.35.27-.62.55-.83.13-.09.26-.1.41-.06a.4.4 0 0 1 .3.27c.12.38.11.75-.02 1.11a4.63 4.63 0 0 1-1.57 2.1c-.6.46-1.43.87-2.5 1.25Z" fill="#0556C0"/><path d="m31.3 22.41-.3-.15c-.09-.05-.13-.12-.1-.21.1-.44-.18-.88-.83-1.32a4.66 4.66 0 0 0-1.64-.72c-.14-.03-.21.02-.21.14v4.39c0 .1.06.15.18.15h3.45c.1 0 .15-.04.15-.13-.04-.66-.2-1.3-.49-1.94a.42.42 0 0 0-.2-.2Zm-1.56-1.04c.27.23.42.42.47.55.03.1 0 .13-.1.13l-1.03-.02-.03-.02-.01-.01-.02-.01-.02-.04-.05-.89c0-.08.05-.11.15-.09.16.04.37.17.64.4Zm-.75 2.55v-1.14c0-.06.04-.08.1-.08h1.52c.11 0 .19.04.22.14l.34 1.05c.03.07 0 .1-.09.1h-2c-.06 0-.09-.02-.09-.07Zm-2.05-.5c.01.03.03.03.06.03.02 0 .04-.02.04-.05V20.3c0-.16.09-.23.26-.23h.31c.1 0 .16.04.16.13.04 2.27.05 4.24.04 5.9 0 .26-.07.27-.2.03l-2.07-3.67c-.02-.02-.04-.04-.08-.04s-.06.02-.08.05a5.51 5.51 0 0 0-.04 4.99 3.3 3.3 0 0 0 2.18 1.86c.15.04.23.14.23.28v.23c0 .15-.08.2-.25.17a3.63 3.63 0 0 1-1.76-.84 5.28 5.28 0 0 1-1.74-3.9 6 6 0 0 1 1.4-4.1.16.16 0 0 1 .14-.05c.06 0 .1.03.13.08l1.27 2.24Zm1.52 2.24h2.67c.07 0 .1.02.08.08-.32 1.96-1.21 3.15-2.67 3.56-.16.04-.25.15-.25.3v.21c0 .15.09.21.25.18a3.85 3.85 0 0 0 2.6-1.87c.56-.9.85-1.9.86-2.98 0-.1-.05-.14-.15-.14h-3.39c-.14 0-.21.06-.21.19v.28c0 .12.07.19.2.19ZM43.17 26.66a.4.4 0 0 1-.01.15c-.03.1-.08.12-.17.08a.2.2 0 0 1-.08-.06.18.18 0 0 1-.04-.13c.05-.5-.12-.81-.52-.91a3.57 3.57 0 0 0-1.44.1c-.34.07-.5.28-.48.63v.09c.04.43.27.63.7.6l2.22-.15c.1-.01.17-.07.19-.18a.78.78 0 0 0 0-.24c-.02-.06-.06-.1-.13-.13-.06-.03-.12-.03-.17 0a.15.15 0 0 0-.07.15Zm-2.18-.28 1.32-.07c.07 0 .14.05.14.12v.02c0 .07-.05.14-.12.14l-1.32.07a.13.13 0 0 1-.15-.12v-.02c0-.07.05-.13.13-.14ZM15.43 27.65c.1-.21.1-.43.03-.67-.07-.22-.2-.35-.42-.38a6.99 6.99 0 0 0-1.48-.02.4.4 0 0 0-.24.11c-.19.18-.4.33-.62.44 0 .07-.01.13-.03.17l.66.52c.07.05.16.09.25.1.5.07.99.07 1.48.02.15-.02.27-.11.37-.29Zm-1.79-.55 1.28.02c.08 0 .15.07.15.15v.01c0 .09-.07.15-.16.15l-1.27-.03a.15.15 0 0 1-.15-.15c0-.1.07-.16.15-.15ZM41.65 28.54c.4.06.66.11.78.17.13.05.2.1.23.17a.8.8 0 0 1-.02.87c-.19.3-.46.38-.82.26-.14-.05-.2-.14-.16-.29l.02-.08c.04-.17.14-.24.3-.2.16.02.25 0 .28-.05.04-.08.02-.12-.06-.14a8.87 8.87 0 0 0-1.28-.18c-.09 0-.12.04-.1.12.02.06.1.1.25.12.17.01.25.1.24.27v.1c-.01.14-.09.22-.24.22-.38.02-.61-.13-.71-.47a.8.8 0 0 1 .22-.84c.04-.05.13-.08.27-.1.13-.02.4 0 .8.05ZM14.55 30.17c-.4.06-.67.07-.8.05-.14-.02-.23-.06-.27-.1a.8.8 0 0 1-.21-.85c.1-.33.34-.49.71-.47.15.01.23.1.24.23v.1c.01.16-.07.26-.24.27-.16.01-.24.05-.25.12-.02.08 0 .12.1.11a7.44 7.44 0 0 0 1.28-.16c.08-.02.1-.06.06-.13-.03-.07-.12-.08-.27-.06-.17.03-.28-.04-.31-.2l-.02-.1c-.03-.13.02-.22.16-.27.36-.12.64-.03.82.27a.8.8 0 0 1 .02.87c-.03.06-.11.11-.24.17-.12.05-.38.1-.78.15ZM15.07 33.67a.12.12 0 0 0 .03-.05c.1-.2.19-.3.28-.3.1 0 .2.1.3.29l.04.04a.1.1 0 0 0 .06.03c.22.01.35.07.38.16.03.1-.03.22-.2.37a.1.1 0 0 0-.02.05v.06c.04.21.03.35-.05.4-.09.07-.22.05-.42-.06a.12.12 0 0 0-.06-.01c-.02 0-.04 0-.05.02-.2.1-.33.13-.41.08-.09-.06-.1-.2-.07-.41a.1.1 0 0 0 0-.06.1.1 0 0 0-.04-.05c-.16-.14-.23-.26-.2-.35.03-.1.15-.16.37-.19l.06-.02ZM40.62 33.3c.1 0 .2.1.28.3l.04.04a.1.1 0 0 0 .06.02c.22.03.34.08.37.18.03.1-.03.21-.2.36a.1.1 0 0 0-.03.05.1.1 0 0 0 0 .06c.04.21.02.34-.06.4s-.22.03-.41-.07a.12.12 0 0 0-.06-.02c-.02 0-.04 0-.06.02-.19.1-.33.13-.4.07-.1-.06-.1-.2-.06-.41v-.06a.14.14 0 0 0-.04-.05c-.16-.15-.23-.26-.2-.36.04-.1.16-.15.38-.18.02 0 .04 0 .06-.02a.1.1 0 0 0 .04-.04c.09-.2.19-.3.29-.3Z" fill="#FDFEFE"/><path fill-rule="evenodd" d="M24.54 32.95c-.12.18-.37.24-.73.2-.08-.01-.12.03-.12.12v.1c0 .1.04.14.11.14l.6.06c.13.04.18.12.16.23-.02.06-.05.09-.1.09l-.96.03c-.1 0-.15-.07-.16-.2a16.65 16.65 0 0 1-.01-1.51c.01-.14.07-.21.16-.21l.97.02c.04 0 .08.03.09.08.03.12-.02.2-.15.24-.1.02-.3.05-.6.06-.08.01-.12.06-.12.14v.1c0 .1.05.14.13.13.36-.05.6.01.73.18Zm1.4.1c.04.06.06.05.07-.03v-.89c0-.07.04-.1.1-.1h.1c.07 0 .11.05.12.14.03.57.03 1 0 1.31-.05.65-.21.69-.48.13l-.26-.52c-.15-.3-.23-.28-.23.07l-.01.72c0 .08-.04.12-.11.12h-.11c-.09 0-.13-.05-.13-.16v-1.66c0-.12.07-.18.18-.18.06 0 .12.02.18.05.06.04.1.11.14.21.1.35.25.61.43.8Zm1.96-.73c.08 0 .1.04.1.13v1.37c0 .12.06.18.17.18h.12c.04 0 .06-.02.06-.06v-.55c0-.16.06-.24.2-.24h.17c.11 0 .17.07.17.2v.53c0 .05.02.07.07.07h.1c.1 0 .16-.06.16-.18v-1.62c0-.1-.04-.15-.13-.15H29c-.07 0-.1.04-.1.13v.52c0 .09-.05.14-.13.14h-.24c-.1 0-.15-.06-.15-.18v-.41c0-.12-.05-.2-.15-.2h-1.18c-.12 0-.16.09-.13.21.01.06.08.12.19.18.09.06.13.14.13.26v1.2c0 .1.04.14.12.14h.12c.05 0 .08-.03.08-.1V32.6c0-.19.08-.28.25-.28h.1Zm4.1.7v-.9c0-.07.04-.1.1-.1h.1c.07 0 .11.04.12.13.04.57.05 1.01.02 1.33-.04.65-.2.7-.49.13l-.26-.51c-.16-.31-.24-.29-.24.07v.61c0 .09-.03.13-.1.13h-.12c-.05 0-.09-.02-.11-.06a.1.1 0 0 1-.05.06l-.12.07c-.07.04-.13.02-.17-.07-.13-.3-.3-.46-.51-.48-.1 0-.17.04-.22.14-.14.29-.27.43-.4.43-.11 0-.15-.07-.1-.2l.57-1.67c.03-.08.08-.13.16-.13.07 0 .13.03.16.12l.66 1.62v-1.56c0-.12.05-.18.16-.18.06 0 .12.02.18.05.07.04.11.11.14.2a2 2 0 0 0 .45.8c.05.06.08.04.08-.04Zm1.68-.88c.02.45-.07.68-.29.68-.21 0-.3-.23-.29-.68 0-.1-.03-.14-.1-.14-.03 0-.07 0-.1.03-.08.04-.12.12-.11.22a8.83 8.83 0 0 1 0 1.5c-.01.1.03.18.1.22l.1.03c.08 0 .12-.05.11-.14-.02-.45.08-.68.3-.68.2 0 .3.23.28.68 0 .09.03.14.11.14.03 0 .06 0 .1-.03.08-.04.12-.12.1-.23a8.83 8.83 0 0 1 0-1.49c.02-.1-.02-.18-.1-.22a.22.22 0 0 0-.1-.03c-.08 0-.11.05-.11.14Zm-3.31.74c0 .1-.07.18-.15.18-.08 0-.15-.08-.15-.18 0-.1.07-.18.15-.18.08 0 .15.08.15.18Zm-7.33.21c.17.2.07.46-.3.8-.15.13-.31.15-.48.05-.17-.1-.26-.25-.26-.46v-1.25c0-.11.05-.18.15-.2.2-.03.4-.01.59.05.1.03.16.1.2.2.06.15.07.32.03.53-.02.1 0 .2.07.28Zm-.38-.53c0 .1-.07.18-.16.18-.08 0-.15-.08-.15-.18 0-.1.07-.17.15-.17.09 0 .16.08.16.17Zm-.2.97c-.1-.04-.14-.17-.1-.3.04-.12.15-.2.24-.16.1.04.15.17.1.3-.03.13-.14.2-.24.16ZM27.57 36c0-.45.18-.76.54-.92.35-.15.69-.09 1 .2.07.05.1.12.12.2 0 .05-.01.1-.06.14a.12.12 0 0 1-.14.01l-.4-.21a.28.28 0 0 0-.26-.01c-.3.13-.45.32-.44.6 0 .26.15.45.44.58.1.04.18.04.27 0l.4-.23c.05-.03.1-.02.14.01.04.04.06.09.05.15a.33.33 0 0 1-.11.2c-.32.29-.65.35-1 .2-.36-.16-.54-.46-.55-.92Zm-.55.26c-.01.24-.11.36-.3.36-.2 0-.29-.12-.3-.36l-.04-1c-.02-.3-.12-.34-.3-.1-.05.05-.07.15-.08.3-.02 1.02.22 1.53.72 1.54.5 0 .74-.51.72-1.53 0-.15-.02-.25-.07-.31-.18-.24-.29-.2-.3.1l-.05 1ZM22 35c.24.29.31.64.2 1.08v.03h.09c.04 0 .06-.01.08-.05l.34-.96c.03-.1.08-.12.16-.08l.08.04c.04.02.06.06.04.12a60.2 60.2 0 0 0-.4 1.6c-.03.13-.09.2-.17.22-.1.01-.16-.04-.17-.15-.05-.41-.13-.62-.25-.62s-.2.2-.25.62c-.02.11-.07.16-.17.15-.08-.02-.14-.1-.17-.23l-.4-1.6c-.02-.05 0-.1.04-.12l.08-.04c.08-.03.13 0 .16.09l.34.96c.02.04.04.06.08.05h.08v-.03c-.1-.44-.03-.8.21-1.08Zm3.1.4c-.1-.04-.14 0-.13.1 0 .06.03.12.1.18.07.08.25.22.51.41.08.06.12.14.12.24-.01.39-.17.6-.48.65-.31.04-.54-.1-.68-.46-.05-.12-.01-.17.11-.15.1.01.26.08.46.2.05.04.1.04.14 0a.17.17 0 0 0 .06-.06c.02-.04.01-.1-.02-.15-.06-.1-.23-.26-.53-.47a.4.4 0 0 1-.16-.23c-.08-.32.06-.51.42-.6.26-.05.42 0 .5.15.19.34.12.44-.2.3l-.21-.1Zm7.51.28c-.06-.06-.1-.12-.1-.18 0-.11.05-.14.15-.1l.2.1c.33.16.4.06.22-.28-.08-.16-.25-.21-.5-.16-.36.08-.5.28-.43.6.02.1.07.17.15.23.3.21.48.37.53.48.03.05.04.1.02.14a.17.17 0 0 1-.06.07.12.12 0 0 1-.14 0 1.3 1.3 0 0 0-.46-.22c-.12-.02-.16.03-.11.16.14.35.36.5.67.46.32-.04.48-.26.49-.64 0-.1-.03-.18-.11-.24-.27-.2-.44-.34-.52-.42Zm1.08.32c0 .26.15.45.44.58.1.04.18.03.27-.01l.4-.21c.05-.03.1-.02.14.01.05.04.06.09.05.14a.32.32 0 0 1-.11.2c-.32.27-.65.34-1.01.19-.36-.16-.54-.46-.54-.9s.19-.74.55-.9c.35-.15.69-.08 1 .2.07.06.1.12.12.2 0 .05-.01.1-.06.13-.04.04-.09.04-.14.02l-.4-.22a.3.3 0 0 0-.26 0c-.3.12-.45.3-.45.57Zm-2.14-.81v1.19c0 .08-.04.13-.12.14a.91.91 0 0 1-.23-.04c-.3-.07-.35.01-.17.27.2.28.43.32.7.14.1-.08.16-.19.16-.32V35.2c0-.08-.04-.12-.11-.12h-.13c-.06 0-.1.03-.1.1Zm-.86 1.47c.17-.18.26-.4.26-.65a.92.92 0 0 0-.26-.66.8.8 0 0 0-.62-.28.8.8 0 0 0-.61.28.92.92 0 0 0-.26.66c0 .25.09.47.26.65a.8.8 0 0 0 .61.28.8.8 0 0 0 .62-.28Zm-.08-.65c0 .31-.24.57-.54.57-.3 0-.53-.26-.53-.57 0-.32.24-.58.53-.58.3 0 .54.26.54.58Zm-6.99.42c-.1-.01-.17.04-.22.14-.15.29-.29.43-.42.43-.12 0-.16-.07-.11-.2l.6-1.67c.03-.08.09-.13.17-.13.07 0 .13.04.17.12l.7 1.65c.02.06 0 .1-.04.14l-.13.07c-.08.04-.14.02-.18-.07-.14-.3-.32-.46-.54-.48Zm-.05-.74c.01-.05.04-.08.08-.09.04 0 .08.02.1.06.07.14.1.22.1.26-.09.4-.2.42-.33.05-.01-.04 0-.13.05-.28Z" fill="#FDFEFE"/><path d="M36.78 39c-.11.08.01.3.38.65.1.1.09.19-.02.27l-.2.16c-.08.07-.16.06-.24-.03l-1.25-1.52c-.08-.1-.07-.2.03-.27l.24-.2c.1-.07.18-.05.23.05.23.38.38.53.47.46.1-.07 0-.27-.3-.58-.1-.08-.09-.16.01-.23l.25-.17c.11-.08.2-.07.28.04l1.16 1.59c.07.1.05.17-.04.24l-.2.14c-.12.08-.2.06-.27-.06-.26-.44-.43-.62-.53-.54ZM34.85 40.38c-.1-.13-.12-.12-.07.03.07.27.14.46.2.55.1.13.07.23-.07.31l-.07.05c-.08.05-.15.03-.2-.05l-1.03-1.68c-.08-.13-.05-.24.1-.33l.14-.09c.14-.08.26-.06.35.08.12.19.25.32.39.4.13.09.16.06.08-.07l-.26-.42c-.08-.14-.05-.25.08-.32l.09-.06c.08-.05.15-.03.2.05l1.01 1.66c.06.1.06.2 0 .28-.08.13-.19.18-.33.17a.42.42 0 0 1-.25-.14c-.16-.17-.28-.3-.36-.42ZM22.52 39.38a.5.5 0 0 0 .1 0c.05 0 .1.02.14.05.15.1.21.21.2.36-.02.1-.08.14-.18.15l-.38.03c-.06 0-.1.03-.12.08-.02.05-.01.1.02.13l.22.27c.07.08.06.16-.01.23-.08.06-.24.1-.48.1-.1-.01-.15.04-.15.14 0 .12.1.26.28.4.03.02.05.06.06.1.02.08 0 .14-.06.17a.15.15 0 0 1-.1.02c-.3-.04-.6-.16-.85-.35-.08-.06-.1-.14-.06-.23l.74-1.56c.09-.17.3-.34.66-.49l.04-.01c.1-.05.18-.02.22.09v.08c0 .06-.03.1-.09.13l-.16.03c-.17.01-.18.04-.04.08Z" fill="#FDFEFE"/><path fill-rule="evenodd" d="M20.65 39.85c.02.2-.1.44-.36.72a.2.2 0 0 1-.25.05c-.32-.12-.63-.3-.93-.55-.07-.06-.08-.12-.04-.2l.98-1.65c.06-.1.14-.12.24-.08.4.16.67.36.82.58.2.3.1.59-.33.86a.27.27 0 0 0-.13.27Zm-.32-.96a.2.2 0 0 1 .14-.1c.08 0 .14.02.18.07.04.07.04.13 0 .2a.72.72 0 0 1-.27.19c-.13.06-.17.02-.15-.1.02-.1.05-.18.1-.26Zm-.15.65c0-.03-.02-.04-.05-.02-.26.16-.4.25-.4.28-.08.33.02.39.29.17.12-.1.17-.24.16-.43Z" fill="#FDFEFE"/><path d="M31.5 39.76c.13.02.25-.02.26-.09.01-.07-.08-.15-.2-.17-.13-.02-.24.02-.26.09 0 .07.08.15.2.17ZM24.64 40.93c-.02.15 0 .16.07.02.13-.26.2-.44.22-.56.02-.15.1-.21.26-.18l.09.01c.1.02.13.08.11.17l-.36 1.93c-.03.15-.13.22-.29.19l-.17-.03c-.16-.03-.23-.13-.2-.29.02-.22.02-.4-.03-.55-.04-.16-.08-.15-.11 0l-.1.49c-.02.15-.11.21-.27.18l-.1-.02c-.1-.01-.13-.07-.12-.16l.37-1.91a.25.25 0 0 1 .19-.21c.14-.04.26 0 .36.1.06.06.09.15.1.27 0 .22 0 .4-.02.55ZM29.87 41.2c.13-.02.13-.24.01-.65-.03-.12.01-.18.13-.2l.31-.03c.13-.02.2.04.22.17l.23 1.94c.02.11-.03.18-.15.2l-.24.02c-.14.02-.21-.04-.21-.18 0-.5-.07-.75-.2-.73-.14.02-.13.27.01.76.04.13 0 .2-.14.23l-.25.04c-.12.02-.18-.02-.2-.14l-.35-1.93c-.02-.13.03-.2.16-.22l.3-.05c.13-.02.19.02.19.14 0 .44.07.65.18.63ZM27.77 40.5l.48.01c.14.02.22.06.24.13.02.09.02.18-.02.28-.02.06-.07.1-.14.09h-.09c-.1-.01-.16.04-.16.14v1.54c0 .1-.06.16-.18.17h-.33c-.12-.02-.18-.08-.18-.18l.05-1.54c0-.1-.05-.15-.16-.15h-.08c-.07 0-.12-.03-.14-.1a.43.43 0 0 1 0-.27c.01-.07.1-.11.24-.12a9 9 0 0 1 .47 0Z" fill="#FDFEFE"/><path fill-rule="evenodd" d="M32.3 42.11c-.02-.2-.01-.32.03-.33.05-.01.12.07.22.25.06.1.13.13.23.08l.31-.14c.08-.04.1-.09.06-.16l-.86-1.78c-.04-.08-.11-.12-.23-.12a4.77 4.77 0 0 0-.6.19c-.09.06-.13.14-.11.22l.33 1.94c.01.08.06.11.14.1l.34-.06c.1-.02.16-.08.14-.19Zm.02-.83c0-.06-.02-.13-.08-.23a2.97 2.97 0 0 0-.14-.27c-.09-.14-.13-.13-.14.03 0 .2.04.38.14.52.1.15.17.14.22-.05Z" fill="#FDFEFE"/></svg>