<!-- by TradingView --><svg width="56" height="56" viewBox="0 0 56 56" xmlns="http://www.w3.org/2000/svg"><path fill="#F0F3FA" d="M0 0h56v56H0z"/><path d="M12.68 28.33a.03.03 0 0 0-.01.04c0 .01.01.02.03.02.07 0 .2.05.36.14.47.25.77.62.89 1.11.11.46.04.93-.22 1.4-.25.45-.75.75-1.49.9-.2.04-.48.06-.88.06H8.13a.12.12 0 0 1-.1-.04.11.11 0 0 1-.03-.08v-6.75c0-.03.01-.06.04-.08a.13.13 0 0 1 .1-.04h3.38c.41.01.78.1 1.1.26.37.19.62.44.76.77.16.4.21.79.14 1.15a1.6 1.6 0 0 1-.72 1.06.62.62 0 0 0-.12.08Zm-3.2-1.91v1.32c0 .02 0 .03.03.03h1.6c.2 0 .36-.06.5-.2a.65.65 0 0 0 0-.98.72.72 0 0 0-.5-.2H9.5c-.02 0-.03 0-.03.03Zm0 2.82v1.35c0 .02 0 .03.03.03l2.24-.01c.2 0 .38-.07.52-.21.15-.14.22-.3.22-.5s-.08-.36-.22-.5a.74.74 0 0 0-.53-.2l-2.24.02c-.02 0-.03 0-.03.02ZM17.57 29.08l.02-.01 1.93-3.82a.5.5 0 0 1 .15-.2c.05-.03.13-.04.25-.04h1.31c.05 0 .1.03.12.07.03.03.04.08.02.12-.05.16-.12.32-.2.48-1.6 3.07-2.63 5.08-3.11 6.03a.5.5 0 0 1-.5.29.5.5 0 0 1-.48-.3l-3.1-6.03a3.55 3.55 0 0 1-.2-.48.12.12 0 0 1 .02-.12.15.15 0 0 1 .12-.06h1.31c.12 0 .2 0 .25.04.05.03.1.1.15.2a1243.86 1243.86 0 0 1 1.94 3.83ZM26.71 28.36l.32.14c.38.18.65.45.81.79.16.33.2.7.12 1.12a1.68 1.68 0 0 1-1.19 1.34 3.05 3.05 0 0 1-1 .2 12 12 0 0 1-.81.05h-2.64a.26.26 0 0 1-.22-.1l-.08-.1a5576.3 5576.3 0 0 0-.02-6.53c0-.02 0-.03.03-.05a.09.09 0 0 0 .02-.05c.01-.1.08-.16.2-.16h1.17c1.21-.02 2.01 0 2.41.04.38.04.7.16.98.34.3.2.51.46.62.78a2 2 0 0 1 .1 1.08c-.08.36-.28.67-.59.91a.65.65 0 0 1-.1.06.58.58 0 0 0-.14.1c-.02.01-.01.03.01.04Zm-3.18-1.94v1.3c0 .02 0 .04.04.04h1.54c.2 0 .38-.06.53-.2.14-.13.22-.3.22-.48a.64.64 0 0 0-.22-.5.74.74 0 0 0-.52-.2h-1.55c-.03 0-.04.01-.04.04Zm0 2.78v1.35c0 .01 0 .02.02.02h2.2c.2 0 .38-.06.52-.19a.6.6 0 0 0 .22-.46v-.08a.6.6 0 0 0-.21-.46.75.75 0 0 0-.52-.2h-2.21c-.02 0-.02 0-.02.02ZM41 29.83v1.99c0 .04-.06.08-.1.12a.14.14 0 0 1-.1.05h-1a.14.14 0 0 1-.1-.05.17.17 0 0 1-.05-.12v-6.65c0-.05.01-.1.05-.13.03-.03.07-.04.11-.04h1.01c.02 0 .18.21.18.23v3.58c0 .11-.02.12.04.03a208.44 208.44 0 0 1 1.07-1.77c.03-.03.08-.07.14-.07h1.16c.04 0 .06.07.05.12-.03.16-.1.31-.19.45l-1.08 1.6c-.08.13-.07.3.05.49l.94 1.58c.2.33.29.55.27.67 0 .04-.02.06-.06.06-.38.03-.75.04-1.1.01-.1 0-.2-.07-.26-.2l-1.04-1.97c-.02-.05 0-.04 0 .02ZM31.75 27.51v-.39c0-.07.03-.12.09-.12h1.07c.06 0 .09.05.09.12v4.64c0 .07-.02.13-.06.17a.2.2 0 0 1-.15.07h-.8a.62.62 0 0 1-.2-.1c-.03 0-.04-.03-.04-.05v-.4c0-.04-.01-.04-.04-.02-.22.24-.44.4-.66.46-.41.12-.82.11-1.22-.01-.35-.11-.65-.35-.9-.73a2.55 2.55 0 0 1-.4-1.16c-.06-.6-.03-1.1.1-1.5.14-.49.41-.88.81-1.18.39-.28.88-.37 1.48-.27.29.06.55.22.79.5.03.02.04.02.04-.03Zm-1.04 3.25c.3 0 .54-.13.74-.38.2-.25.3-.55.3-.9 0-.36-.1-.66-.3-.9a.93.93 0 0 0-.75-.38.93.93 0 0 0-.74.38c-.2.25-.3.55-.3.9 0 .36.1.66.31.9.2.26.46.38.74.38ZM35.57 27.58a.56.56 0 0 0 .07-.08.52.52 0 0 1 .1-.12c.28-.22.55-.34.82-.36.36-.03.65-.03.87 0 .29.04.55.12.78.27.52.31.79.78.79 1.4v3.12c0 .12-.07.18-.19.18h-1.15c-.15 0-.23-.08-.23-.23a76.05 76.05 0 0 0 0-2.5c0-.3-.06-.52-.16-.7a.66.66 0 0 0-.6-.33.75.75 0 0 0-.46.13c-.1.08-.2.2-.32.37-.12.18-.2.36-.23.55a4.15 4.15 0 0 0-.03.86v1.7c0 .04-.02.05-.05.06a.75.75 0 0 0-.09.05.41.41 0 0 1-.19.05h-1.03a.26.26 0 0 1-.19-.08.26.26 0 0 1-.08-.2V27.2c0-.05.02-.1.05-.13a.17.17 0 0 1 .12-.05h1.2c.04 0 .08.02.1.04.04.03.05.07.05.11v.4c0 .05.02.05.05.02Z" fill="#2B3278"/><path d="M44.23 21.05 45.8 24l-1.58 2.9-.23-.23V21.3l.23-.25Z" fill="url(#a)"/><path d="M49 24.02 45.8 24l-1.59-2.9.3-.1 4.4 2.69.09.33Z" fill="#03C2F3"/><path d="m49 23.98-3.2.02-1.59 2.9.3.1 4.4-2.69.09-.33Z" fill="#2B3278"/><defs><linearGradient id="a" x1="44.91" y1="21.05" x2="44.91" y2="26.91" gradientUnits="userSpaceOnUse"><stop stop-color="#06B9EB"/><stop offset="1" stop-color="#2B3278"/></linearGradient></defs></svg>