<!-- by TradingView --><svg width="56" height="56" viewBox="0 0 56 56" xmlns="http://www.w3.org/2000/svg"><path fill="#F0F3FA" d="M0 0h56v56H0z"/><path d="m13 27.6 3 1.6v-8.08a1652.9 1652.9 0 0 1 12-6.73V11l-15 8.55v8.05Zm7 3.73-2.99-1.6v-7.92L28 15.74v2.97c-2.64 1.54-5.83 3.39-8 4.62v8Zm1-7.3 7-4.1v3.62l-4 2.26v4.57l4 2.28v2.94l-7-3.74v-7.84Zm-8 4.89 15 8.39V45l-15-8.47v-7.61Z" fill="#008CB4"/><path d="m43 27.6-3 1.6v-8.08a1652.9 1652.9 0 0 0-12-6.73V11l15 8.55v8.05Zm-7 3.73 2.99-1.6v-7.92L28 15.74v2.97c2.64 1.54 5.83 3.39 8 4.62v8Zm-1-7.3-7-4.1v3.62l4 2.26v4.57l-4 2.28v2.94l7-3.74v-7.84Zm8 4.89L28 37.3V45l15-8.47v-7.61Z" fill="#373435"/></svg>