<!-- by TradingView --><svg width="56" height="56" viewBox="0 0 56 56" xmlns="http://www.w3.org/2000/svg"><path fill="#F0F3FA" d="M0 0h56v56H0z"/><path d="M22.33 22.59c-.22.03-.3.15-.27.37.2 1.1.2 2.35.02 3.74-.22 1.76-.71 2.83-1.47 3.2-.9.45-1.68.79-2.36 1.01a.2.2 0 0 1-.23-.06.2.2 0 0 1-.04-.24c2.83-6.48 1.97-11.53-2.59-15.13a.16.16 0 0 1-.06-.19.16.16 0 0 1 .15-.12 20.2 20.2 0 0 1 8.85.75c3.54 1.22 4.86 3.5 3.96 6.8-.02.08-.07.11-.15.1a15 15 0 0 0-5.81-.23Zm19.21 5.36c.02.43.1.44.21.02a5.83 5.83 0 0 0-.9-5.19c-.1-.13-.06-.2.1-.22.19-.03.4.08.65.32 1.77 1.71 2.56 3.6 2.37 5.65-.18 1.95-1.2 3.73-3.04 5.35a19.13 19.13 0 0 1-5.79 3.3c-2.09.8-4.18 1.34-6.28 1.63-.1.01-.19 0-.27-.04-.12-.06-.17-.1-.17-.16 0-.07 0-.12.04-.14.18-.12.7-.45 1.59-.97A13 13 0 0 0 35 32.22a10.99 10.99 0 0 0 1.16-7.13 12.07 12.07 0 0 0-3.66-6.8c-.06-.06-.07-.13-.03-.2.02-.05.06-.08.1-.1l.06.01c.62.17 1.9.77 3.83 1.8a9.1 9.1 0 0 1 5.07 8.15ZM19.72 33.4a26.76 26.76 0 0 1-8.3 6.8c-.59.3-.56.54.1.67.42.09.99.13 1.7.13 2.9-.01 5.3-.2 7.19-.54 2.47-.45 4.7-1.26 6.67-2.43a13.13 13.13 0 0 0 5.22-5.32c1.3-2.57 1.07-4.91-.68-7.03a6.87 6.87 0 0 0-3.86-2.23 13.6 13.6 0 0 0-4.63-.2c-.15 0-.21.09-.2.24.4 3.4-.67 6.7-3.2 9.91Z" fill="#F69433"/></svg>