<!-- by TradingView --><svg width="56" height="56" viewBox="0 0 56 56" xmlns="http://www.w3.org/2000/svg"><path fill="#F0F3FA" d="M0 0h56v56H0z"/><path fill-rule="evenodd" d="M27.5 40a12.5 12.5 0 1 0 0-25 12.5 12.5 0 0 0 0 25Zm0-1a11.5 11.5 0 1 0 0-23 11.5 11.5 0 0 0 0 23Z" fill="#147CC1"/><path d="m43.97 28.84-4.55-.3a12.46 12.46 0 0 0-.2-3.17l4.46-.9a17.14 17.14 0 0 1 .29 4.37Zm-1.67-8.5-4.08 2.04a12.12 12.12 0 0 0-1.73-2.63l3.42-3.05c.94 1.1 1.75 2.31 2.4 3.64Zm-5.63-6.52-2.53 3.84c-.87-.59-1.8-1.06-2.8-1.4l1.47-4.37c1.37.47 2.67 1.12 3.86 1.93Zm-8.09-2.79-.29 4.61a11.93 11.93 0 0 0-3.13.2l-.88-4.52a16.44 16.44 0 0 1 4.3-.29Zm-8.38 1.7 2.02 4.13c-.94.47-1.81 1.06-2.6 1.76l-3-3.47a16.47 16.47 0 0 1 3.58-2.43Zm-6.42 5.7L17.56 21c-.57.88-1.04 1.83-1.38 2.84l-4.3-1.49c.46-1.4 1.1-2.7 1.9-3.91Zm-2.75 8.2a17.14 17.14 0 0 0 .29 4.37l4.46-.9a12.45 12.45 0 0 1-.2-3.17l-4.55-.3Z" fill="#147CC1"/><path fill-rule="evenodd" d="M41.02 31.66a13.91 13.91 0 0 1-13.27 9.7 13.9 13.9 0 0 1-12.66-8.03l-3.17.25a16.91 16.91 0 0 0 15.83 10.76c7.93 0 14.6-5.43 16.42-12.68h-3.15Zm-.5-.66a13.23 13.23 0 0 1-12.77 9.7 13.22 13.22 0 0 1-12.23-8.07L11 33l.22.64A17.58 17.58 0 0 0 27.75 45 17.58 17.58 0 0 0 45 31h-4.48Z" fill="#147CC1"/><path d="M14.22 36.66a.91.91 0 0 1-.52-.42.91.91 0 0 1-.12-.8c.1-.25.3-.47.6-.64.35-.2.66-.26.95-.18.25.06.45.2.6.45.19.31.22.6.1.87a.79.79 0 0 1-.3.34l-.23-.4a.62.62 0 0 0 .15-.21c.04-.12.02-.25-.06-.4a.47.47 0 0 0-.39-.23c-.17-.02-.36.04-.58.16-.22.12-.35.26-.41.4a.47.47 0 0 0 .04.43c.08.14.2.22.33.24.07.01.17 0 .28-.03l.24.4c-.23.08-.46.09-.68.02Zm3.28.83-.31.24-.42-.51-1.45 1.12-.3-.36 1.45-1.12-.42-.51.3-.24 1.15 1.38Zm1.62 1.47-1.52.48-.58.6-.34-.32.58-.6.42-1.5.4.37-.35 1 1-.38.4.35Zm.58 2.91-.88-.5 1.13-1.88.94.53c.24.14.37.3.4.49a.54.54 0 0 1-.09.33.5.5 0 0 1-.26.23.56.56 0 0 1-.2.03c.07.09.11.18.12.29 0 .1-.03.21-.1.32a.65.65 0 0 1-.26.25.64.64 0 0 1-.5.04c-.1-.03-.2-.07-.3-.13Zm.49-.83-.49-.28-.3.5.48.28c.09.04.16.07.22.07.11.01.2-.04.27-.16.06-.1.06-.19 0-.27a.58.58 0 0 0-.18-.14Zm.42-.25c.07 0 .13-.04.18-.12.05-.09.05-.17 0-.23a.86.86 0 0 0-.22-.16l-.43-.24-.25.41.48.27c.08.05.16.07.24.07ZM22.08 43c-.3-.11-.5-.28-.58-.5-.14-.28-.13-.6.02-.96.16-.37.38-.6.67-.7.22-.1.48-.1.78.02.3.12.5.29.6.5.12.27.11.6-.04.96-.15.37-.37.6-.66.71-.23.1-.49.09-.79-.03Zm.64-.38a.9.9 0 0 0 .37-.47c.1-.22.12-.42.07-.58a.53.53 0 0 0-.34-.35.56.56 0 0 0-.49.02.89.89 0 0 0-.37.47.86.86 0 0 0-.07.59c.06.16.17.28.34.34.18.07.34.06.5-.02Zm2.96 1.2-.47-.08-.6-1.69-.3 1.52-.43-.07.4-2.15.5.09.59 1.66.29-1.5.43.08-.41 2.14Zm1.85.17c-.32-.01-.56-.1-.73-.28-.22-.21-.32-.52-.3-.9 0-.4.13-.7.36-.9.18-.16.43-.24.75-.23.32.01.57.1.73.28.22.2.33.51.31.91-.01.4-.13.69-.37.89-.17.16-.42.24-.75.23Zm.47-.57a.88.88 0 0 0 .18-.56.87.87 0 0 0-.14-.58.54.54 0 0 0-.44-.21.55.55 0 0 0-.45.18.86.86 0 0 0-.19.57c0 .24.04.43.15.57.1.14.25.2.44.21.18 0 .33-.05.45-.18Zm1.69-1.78.5-.09.79 1.54.17-1.71.48-.09-.34 2.28-.44.08-1.16-2Zm2.23-.48.45-.15.75 2.05-.44.15-.76-2.05Zm3.04.12-1 .44.24.51 1.13-.5.17.36-1.56.68-.93-1.98 1.51-.66.17.35-1.1.47.2.43 1-.44.17.34Zm1.4-2.28.2.32-.56.35 1 1.52-.4.24-1-1.51-.58.35-.2-.32 1.53-.95Zm3.68-.41-.33.33-1.8-.43 1.16 1.07-.3.3-1.63-1.5.34-.35 1.76.43-1.14-1.05.3-.31 1.64 1.5Zm.94-1.94-.48.65.29.38-.3.4-1.36-1.9.31-.43 2.3.64-.3.4-.46-.14Zm-.4-.12-.88-.28.56.73.33-.45Zm1.7-1.11-.17.38-2.06-.89.28-.6 1.79.34-1.46-1.06.28-.6 2.06.89-.18.39-1.4-.6a15.86 15.86 0 0 1-.33-.15l1.56 1.12-.19.4-1.9-.37a16.2 16.2 0 0 0 .34.14l1.39.6Z" fill="#147CC1"/><path fill-rule="evenodd" d="M29 32.19c.76.52 1.89.81 2.81.81 1.51 0 2.75-.75 3.19-1.12l-.51-.4c-.24.2-.77.54-1.46.75a3.55 3.55 0 0 0-1.82-6.55A3.6 3.6 0 0 0 27.77 21c-2 0-3.77 1.6-3.77 3.57 0 .52.11 1.01.31 1.45-1.58.3-2.77 1.95-2.77 3.5a3.59 3.59 0 0 0 3.15 3.55c-.19.04-.38.24-.56.24-1.22 0-2.27-.93-2.63-1.3l-.5.48c.43.45 1.65 1.51 3.13 1.51.78 0 1.57-.51 2.22-.9A6.1 6.1 0 0 0 28 31.74V36h1v-3.81Zm1.1-5.75.34-1.01a2.78 2.78 0 0 0-2.66-3.62c-1.55 0-2.96 1.23-2.96 2.76 0 .4.08.78.24 1.13l.42.92-1.01.2c-1.3.24-2.11 1.36-2.11 2.7a2.78 2.78 0 0 0 2.8 2.77c1.51 0 2.24-1.17 2.98-2.29.77.97 1.49 2 2.9 2 1.55 0 2.8-1.23 2.8-2.75 0-1.49-1.18-2.7-2.66-2.76l-1.08-.05Z" fill="#147CC1"/></svg>