<!-- by TradingView --><svg width="56" height="56" fill="none" xmlns="http://www.w3.org/2000/svg"><path fill="#F0F3FA" d="M0 0h56v56H0z"/><path fill-rule="evenodd" clip-rule="evenodd" d="M23.228 12.724c-.29.609-.56 1.213-.815 1.814.062.02.119.046.17.077 2.846-1.187 6.059-2.01 9.508-2.087A16.024 16.024 0 0 0 28 12c-1.662 0-3.265.253-4.772.724Zm-.772.262a46.781 46.781 0 0 0-.674 1.537 1.679 1.679 0 0 0-.604.268 20.924 20.924 0 0 0-1.85-.239 15.944 15.944 0 0 1 3.128-1.566Zm-3.913 2.107a16.086 16.086 0 0 0-4.171 4.52 33.066 33.066 0 0 1 6.259-4.1c.018-.068.044-.136.079-.203a19.013 19.013 0 0 0-2.167-.217Zm-4.99 6.022a15.893 15.893 0 0 0-1.433 4.915c1.365 1.071 3.205 2.222 5.497 3.257.21-.215.544-.321.915-.304.13-3.812.859-8.089 2.54-12.652a.706.706 0 0 1-.33-.216 32.19 32.19 0 0 0-7.189 5Zm-1.502 5.603c-.034.423-.051.85-.051 1.282a15.94 15.94 0 0 0 4.018 10.604 49.027 49.027 0 0 0 2.242-.72c-.052-.431.307-.877.857-1.081a34.578 34.578 0 0 1-.595-5.622 2.035 2.035 0 0 1-.177-.074c-.597-.283-.97-.806-.957-1.278-2.18-.983-3.966-2.073-5.337-3.11Zm4.411 12.367a16.054 16.054 0 0 0 4.261 3.168 25.863 25.863 0 0 1-1.203-3.637c-.369.037-.71-.047-.946-.22-.743.26-1.45.49-2.112.69Zm5.074 3.556A15.945 15.945 0 0 0 28 44c7.341 0 13.527-4.944 15.411-11.684-4.608.844-8.804 1.03-12.558.772-.227.185-.55.31-.912.328a1.742 1.742 0 0 1-.503-.045 65.084 65.084 0 0 1-8.609 4.183c-.02.359-.31.71-.742.909.418 1.646.929 3.052 1.45 4.178Zm22.037-10.952c.154-.653.268-1.321.34-2.002a66.265 66.265 0 0 0-2.999-3.068.807.807 0 0 1-.052.045c-.429.335-1.127.17-1.629-.359a58.53 58.53 0 0 1-8.048 6.014.707.707 0 0 1 .006.202c3.702.23 7.838.022 12.382-.832Zm.403-2.799a15.969 15.969 0 0 0-.936-6.363 50.238 50.238 0 0 1-2.24 2.318c.301.39.43.842.382 1.218.924.88 1.856 1.82 2.794 2.827ZM42.8 21.913a16.054 16.054 0 0 0-8.834-8.763c-4.04-.24-7.803.618-11.083 1.977v.024c4.44 1.098 10.13 3.733 16.294 9.089.343-.166.8-.083 1.198.197.83-.805 1.64-1.646 2.425-2.524Zm-3.91 3.91a57.92 57.92 0 0 1-8.023 6.001c-.25-.198-.62-.313-1.026-.292-.598.032-1.086.35-1.219.755-3.172-.386-5.981-1.09-8.407-1.954-.045-.44-.404-.902-.953-1.162a2.067 2.067 0 0 0-.147-.063c.12-3.828.853-8.144 2.575-12.758.153-.033.31-.09.462-.174.225-.125.408-.29.534-.468 4.34 1.063 9.965 3.641 16.094 8.964-.13.323-.092.748.11 1.15Zm-18.825 5.08c2.494.885 5.38 1.6 8.634 1.985a.89.89 0 0 0 .126.157 64.49 64.49 0 0 1-8.211 3.962c-.208-.208-.545-.325-.921-.316a33.955 33.955 0 0 1-.581-5.395c.403.01.758-.127.953-.392Z" fill="url(#a)"/><circle opacity=".4" cx="24.602" cy="23.225" r="9.845" fill="#F0F3FA"/><circle opacity=".4" cx="24.602" cy="23.226" r="7.43" fill="#F0F3FA"/><circle opacity=".4" cx="24.641" cy="23" r="5" fill="#F0F3FA"/><circle opacity=".4" cx="24.602" cy="23.226" r="3.398" fill="#F0F3FA"/><defs><linearGradient id="a" x1="13.296" y1="17.509" x2="35.562" y2="38.98" gradientUnits="userSpaceOnUse"><stop stop-color="#C8A161"/><stop offset=".887" stop-color="#604504"/></linearGradient></defs></svg>