<!-- by TradingView --><svg width="56" height="56" fill="none" xmlns="http://www.w3.org/2000/svg"><path fill="#F0F3FA" d="M0 0h56v56H0z"/><path d="m23.064 20.631-1.476 10.37h9.883l-4.76-14-3.647 3.63Z" fill="#2B4FA2"/><path d="M31.777 31.254 27.045 17l6.236 6.125h-2.673l4.788 4.955h-2.422l4.343 4.093-5.54-.92Z" fill="#009CEB"/><path d="M24 25.919c0-1.583 1.378-3.939 2.066-4.919.645 1.093 1.934 3.607 1.934 4.919 0 1.64-.795 3.081-1.934 3.081C24.927 29 24 27.898 24 25.919Z" fill="#00BDFB"/><path d="M26.052 24.066 24.556 27.9c1.215 1.434 2.563.597 3.084 0l-1.588-3.833Z" fill="url(#a)"/><path d="M25.943 23.531c-.178.155-.074.55 0 .73h.182c.041-.834 1.046-.477 1.143-.522.098-.044-.097-.297-.237-.342-.14-.045-.32-.208-.334-.566-.012-.285-.154-.386-.224-.401.084.446-.306.907-.53 1.101Z" fill="#FF8013"/><path d="M31.458 31h-9.886c0 .552.361 1 .806 1h9.6l-.52-1Z" fill="#F66600"/><path fill-rule="evenodd" clip-rule="evenodd" d="M21.47 35.122v.557h.404c.082 0 .15-.012.202-.035a.257.257 0 0 0 .116-.096.257.257 0 0 0 .038-.139.319.319 0 0 0-.035-.152.218.218 0 0 0-.106-.099.45.45 0 0 0-.195-.036h-.423Zm.853-.153a.551.551 0 0 0 .06-.025.427.427 0 0 0 .264-.398.48.48 0 0 0-.058-.242.47.47 0 0 0-.168-.17.837.837 0 0 0-.268-.101 1.739 1.739 0 0 0-.356-.033H21v2h.874c.177 0 .326-.022.449-.066a.575.575 0 0 0 .28-.196.537.537 0 0 0 .036-.551.426.426 0 0 0-.186-.172.517.517 0 0 0-.13-.046Zm-.526-.13a.66.66 0 0 0 .213-.029.255.255 0 0 0 .124-.086.23.23 0 0 0 .043-.14.256.256 0 0 0-.041-.151.222.222 0 0 0-.124-.084.734.734 0 0 0-.215-.026h-.326v.516h.326Zm1.7-.839v2h.5v-2h-.5Zm1.452 2-.66-2h.537l.425 1.362.458-1.362h.637l.525 1.362L27.42 34H28l-.771 2h-.57l-.548-1.399L25.497 36h-.548Zm3.983-2-.972 2h.536l.16-.325h.967l.125.325h.536l-.85-2h-.502Zm.512 1.205h-.557l.313-.639.244.639Zm2.5.259a.219.219 0 0 0-.02-.094.181.181 0 0 0-.067-.077.626.626 0 0 0-.14-.071 2.256 2.256 0 0 0-.232-.072 3.33 3.33 0 0 1-.302-.096 1.31 1.31 0 0 1-.25-.125.6.6 0 0 1-.17-.167.4.4 0 0 1-.06-.22c0-.082.021-.155.064-.221a.55.55 0 0 1 .18-.171.932.932 0 0 1 .272-.111c.105-.026.221-.039.348-.039a1.2 1.2 0 0 1 .45.078.701.701 0 0 1 .298.212c.072.09.107.193.107.309h-.477a.261.261 0 0 0-.044-.15.275.275 0 0 0-.128-.103.534.534 0 0 0-.215-.037.584.584 0 0 0-.208.032.274.274 0 0 0-.125.084.184.184 0 0 0-.042.118c0 .033.01.063.03.09.02.026.05.051.089.074.04.023.088.045.146.066.058.02.124.04.2.06.127.032.239.068.335.108.097.04.179.085.244.135s.114.107.147.17c.033.063.05.135.05.215 0 .085-.02.16-.06.227a.501.501 0 0 1-.17.17.887.887 0 0 1-.269.106c-.103.024-.22.036-.347.036-.116 0-.23-.013-.342-.037a1.146 1.146 0 0 1-.306-.117.643.643 0 0 1-.218-.198.495.495 0 0 1-.081-.284h.482c0 .06.011.111.034.153a.27.27 0 0 0 .094.102c.042.026.09.044.148.056a.96.96 0 0 0 .189.018c.083 0 .151-.01.205-.03a.249.249 0 0 0 .12-.081.188.188 0 0 0 .04-.118ZM33 36v-2h2v.275h-1.52v.6H35v.287h-1.52v.587H35V36h-2Z" fill="#F25900"/><path fill="#0C1080" d="M21 36h14v1H21z"/><path fill-rule="evenodd" clip-rule="evenodd" d="M43.192 27.575a.794.794 0 0 0 .194-.553l-.267.01a.528.528 0 0 1-.124.363c-.088.096-.254.18-.575.117l-.05.261c.388.076.656-.017.822-.198Z" fill="red"/><path fill-rule="evenodd" clip-rule="evenodd" d="M45 28c0 9.389-7.611 17-17 17s-17-7.611-17-17 7.611-17 17-17 17 7.611 17 17Zm-4 0c0 7.18-5.82 13-13 13s-13-5.82-13-13 5.82-13 13-13 13 5.82 13 13ZM27.999 11.706c.153.06.356.197.456.424.068.152.083.33.023.528a.994.994 0 0 1 .235.36c.052.132.081.284.086.455l.003.105c.005.17-.014.323-.058.46a1 1 0 0 1-.197.35.902.902 0 0 1-.308.226c-.12.054-.254.083-.4.087a1.04 1.04 0 0 1-.405-.063.883.883 0 0 1-.321-.206.993.993 0 0 1-.214-.34 1.355 1.355 0 0 1-.086-.454l-.003-.106c-.006-.17.014-.323.06-.459a.982.982 0 0 1 .195-.351.875.875 0 0 1 .308-.227c.119-.054.252-.083.4-.087a1.049 1.049 0 0 1 .453.083.436.436 0 0 0-.03-.246.561.561 0 0 0-.3-.275l.103-.264Zm.067 1.148.001-.001a.476.476 0 0 0-.283-.079.476.476 0 0 0-.215.054.425.425 0 0 0-.156.143.662.662 0 0 0-.093.23 1.3 1.3 0 0 0-.024.314l.003.108c.003.118.018.222.043.312.025.09.06.165.105.226.044.06.099.105.163.135.064.03.136.043.218.04a.438.438 0 0 0 .371-.198.68.68 0 0 0 .093-.231c.02-.092.028-.197.024-.314l-.003-.109a1.295 1.295 0 0 0-.043-.312.682.682 0 0 0-.105-.224.464.464 0 0 0-.072-.075l-.027-.019Zm-2.583-.223.448-.076.244 1.44a.795.795 0 0 1-.037.442.674.674 0 0 1-.25.309 1.029 1.029 0 0 1-.417.16 1.049 1.049 0 0 1-.45-.014.684.684 0 0 1-.34-.208.804.804 0 0 1-.177-.406l-.244-1.44.45-.077.243 1.44a.544.544 0 0 0 .087.232.298.298 0 0 0 .156.114.474.474 0 0 0 .215.008.46.46 0 0 0 .201-.078.29.29 0 0 0 .109-.159.544.544 0 0 0 .006-.247l-.244-1.44Zm9.93 1.708-.14-.078-.165-.092-.979 1.76.362.201.278-.5.418-.838-.256 1.583.246.137 1.21-1.053-.491.797-.279.5.363.203.98-1.76-.168-.094-.14-.078-.167-.092-1.17 1.04.266-1.543-.167-.093Zm2.783 5.187 1.757-1.512-.33-.383-1.757 1.511.33.384Zm3.023.136.238.402.358.603-.316.187-.358-.602-1.641.974-.239-.402 1.642-.974-.352-.593.316-.188.352.593Zm1.38 2.366-.304-.796-2.136.815.168.44.79-.302.134.35-.637.706.18.47.02-.007.7-.797c.05.05.103.091.158.125a.59.59 0 0 0 .266.085.729.729 0 0 0 .318-.054.669.669 0 0 0 .317-.23c.071-.1.109-.219.113-.356a1.17 1.17 0 0 0-.088-.449Zm-1.138.026.137.36c.03.077.067.135.114.176.047.04.1.064.158.07.06.008.12 0 .185-.025a.414.414 0 0 0 .163-.106.276.276 0 0 0 .07-.16.456.456 0 0 0-.034-.21l-.136-.356-.657.251ZM20.096 40.818l-.376-.21-.316.564.358.2c.074.042.14.063.2.066a.274.274 0 0 0 .157-.04.415.415 0 0 0 .168-.294.237.237 0 0 0-.038-.153.408.408 0 0 0-.153-.133Zm.075-.335-.29-.163.293-.524.29.163a.66.66 0 0 1 .176.133c.04.046.061.094.062.147a.33.33 0 0 1-.05.173.296.296 0 0 1-.116.121.263.263 0 0 1-.16.026.595.595 0 0 1-.206-.076Zm.462.397a.523.523 0 0 1-.069-.004.48.48 0 0 1 .09.111.462.462 0 0 1 .068.267.587.587 0 0 1-.076.26.69.69 0 0 1-.27.281.593.593 0 0 1-.36.06 1.204 1.204 0 0 1-.436-.156l-.358-.2-.26-.146-.159-.089 1.136-2.03.708.397c.118.066.217.136.298.21a.789.789 0 0 1 .181.236c.04.081.057.167.053.256a.623.623 0 0 1-.086.274.55.55 0 0 1-.187.2.485.485 0 0 1-.273.073Zm6.88 3.202h-.683V41.86h.687c.148 0 .284.026.407.076a.92.92 0 0 1 .532.551c.05.13.074.273.074.432v.106a1.2 1.2 0 0 1-.075.431.93.93 0 0 1-.531.55c-.124.051-.261.076-.412.076Zm0-.357h-.225v-1.506h.229a.57.57 0 0 1 .235.045c.068.03.126.074.172.133a.598.598 0 0 1 .106.218c.024.087.036.187.036.301v.109c0 .148-.021.275-.064.38a.5.5 0 0 1-.186.24.543.543 0 0 1-.304.08Zm-5.33-3.176-.995 2.094-.457-.217.995-2.094.457.217Zm8.354 1.264-.453.02.067 1.46c.004.099-.008.18-.036.245a.29.29 0 0 1-.127.144.461.461 0 0 1-.209.054.473.473 0 0 1-.213-.035.299.299 0 0 1-.141-.132.545.545 0 0 1-.059-.24l-.067-1.46-.455.022.067 1.459c.008.17.05.311.128.424a.683.683 0 0 0 .312.249c.131.053.28.075.444.068.165-.008.31-.044.433-.108a.675.675 0 0 0 .287-.277.795.795 0 0 0 .09-.434l-.068-1.46ZM43.2 24.926l.072.449-1.442.23a.794.794 0 0 1-.442-.04.675.675 0 0 1-.307-.254 1.029 1.029 0 0 1-.156-.417 1.05 1.05 0 0 1 .018-.45.685.685 0 0 1 .212-.338.804.804 0 0 1 .407-.174l1.442-.23.072.449-1.442.23a.543.543 0 0 0-.233.086.298.298 0 0 0-.115.155.473.473 0 0 0-.01.215c.013.082.039.15.077.202a.29.29 0 0 0 .158.11c.067.021.149.024.247.008l1.442-.23Zm-23.232-8.605.308-.237a.97.97 0 0 0 .287-.328.626.626 0 0 0 .068-.361.717.717 0 0 0-.153-.356.754.754 0 0 0-.307-.243.659.659 0 0 0-.376-.04.892.892 0 0 0-.396.184l-.656.503 1.364 1.777.347-.266-.486-.633Zm.09-.523-.31.237-.438-.571.309-.237a.362.362 0 0 1 .194-.083.306.306 0 0 1 .175.04.472.472 0 0 1 .221.288.27.27 0 0 1-.016.168.422.422 0 0 1-.136.158Zm-5.22 3.714 1.099.202-.505-.997.32-.428.65 1.463.64.479-.298.397-.64-.478-1.587-.209.32-.429Zm-.814 1.453.347-.671.352.182-.347.671 1.83.946-.232.448-1.83-.946-.341.66-.352-.181.341-.661.232-.448Zm-.073 2.988.891.086c.039.04.08.098.122.176.041.078.073.176.097.295.024.118.028.26.012.423-.014.145-.05.275-.11.39a.863.863 0 0 1-.242.288.958.958 0 0 1-.358.165c-.14.033-.296.041-.469.024l-.14-.014a1.486 1.486 0 0 1-.455-.111.965.965 0 0 1-.323-.226.83.83 0 0 1-.182-.319.99.99 0 0 1-.035-.391c.019-.196.066-.353.142-.473a.675.675 0 0 1 .29-.261.927.927 0 0 1 .396-.086l-.044.449a.577.577 0 0 0-.206.045.337.337 0 0 0-.146.125.478.478 0 0 0-.07.224.41.41 0 0 0 .15.376.688.688 0 0 0 .217.116c.087.03.19.051.308.063l.144.014a1.3 1.3 0 0 0 .315-.004.67.67 0 0 0 .237-.078.44.44 0 0 0 .154-.153.54.54 0 0 0 .068-.226.753.753 0 0 0 0-.184.462.462 0 0 0-.034-.123.372.372 0 0 0-.045-.076l-.399-.04-.04.424-.331-.032.086-.886Zm26.95 8.76.872.203.202-.868-.324-.075-.096.414-.39-.09a.373.373 0 0 1-.035-.082.455.455 0 0 1-.017-.126.755.755 0 0 1 .023-.183.54.54 0 0 1 .098-.214.438.438 0 0 1 .172-.132.668.668 0 0 1 .245-.047c.094-.002.198.011.313.038l.14.032c.117.027.216.061.299.103.082.041.149.09.199.143a.412.412 0 0 1 .1.393.479.479 0 0 1-.099.213.336.336 0 0 1-.161.104.577.577 0 0 1-.21.018l-.102.44a.929.929 0 0 0 .403-.034.675.675 0 0 0 .322-.221c.091-.109.159-.259.203-.45a.988.988 0 0 0 .017-.393.83.83 0 0 0-.14-.34.964.964 0 0 0-.29-.266 1.487 1.487 0 0 0-.437-.17l-.137-.032a1.426 1.426 0 0 0-.468-.037.958.958 0 0 0-.377.117.862.862 0 0 0-.277.254c-.074.106-.127.23-.16.372-.037.16-.051.3-.043.422.008.12.027.222.058.304a.785.785 0 0 0 .098.19Zm-4.35 7.626.364.817a.787.787 0 0 1-.092.193 1.09 1.09 0 0 1-.209.23c-.09.08-.212.153-.362.22-.133.059-.264.091-.393.097a.861.861 0 0 1-.37-.068.958.958 0 0 1-.32-.23 1.425 1.425 0 0 1-.253-.396l-.057-.129a1.485 1.485 0 0 1-.128-.45.962.962 0 0 1 .037-.392.83.83 0 0 1 .187-.317.99.99 0 0 1 .323-.224c.18-.08.34-.116.48-.109.142.006.266.047.372.123a.928.928 0 0 1 .27.301l-.412.184a.575.575 0 0 0-.141-.156.336.336 0 0 0-.18-.066.477.477 0 0 0-.23.05.412.412 0 0 0-.253.317.69.69 0 0 0 .006.245c.017.091.05.19.098.3l.059.131c.048.108.1.199.159.272.057.073.119.129.184.168a.44.44 0 0 0 .21.057.54.54 0 0 0 .23-.051c.067-.03.12-.06.16-.092a.373.373 0 0 0 .134-.167l-.163-.365-.389.173-.135-.303.813-.363Zm-11.324 2.637-.845-.199-.227.963-.433-.102.525-2.229.433.102-.214.908.845.199.214-.908.43.101-.524 2.23-.43-.102.226-.963ZM12.385 26.297l2.264-.038.008.466-1.503.936 1.518-.026.008.467-2.264.038-.008-.466 1.504-.938-1.52.026-.008-.465Zm10.014 14.464-.783 2.125.436.16.526-1.425.33 1.74.438.162.783-2.125-.438-.161-.525 1.424-.329-1.739-.438-.161Zm10.925 2.452-.778-2.127.439-.16 1.376 1.113-.522-1.426.439-.16.777 2.127-.438.16-1.378-1.114.522 1.427-.437.16Zm-9.209-28.071-.879-2.087-.429.18.59 1.4-1.43-1.046-.43.181.88 2.087.43-.18-.59-1.4 1.428 1.046.43-.181Zm19.342 15.423-2.257-.189.037-.44 1.585-.733-1.513-.127.037-.44 2.257.189-.037.44-1.587.734 1.515.127-.037.44Zm-29.225.71.164.434a.54.54 0 0 1 .234-.025c.069.01.129.038.18.086a.543.543 0 0 1 .128.208c.03.078.04.15.034.215a.376.376 0 0 1-.077.181.709.709 0 0 1-.18.155c-.077.047-.17.092-.28.133l-.149.057c-.111.042-.212.07-.302.085a.652.652 0 0 1-.24-.004.377.377 0 0 1-.175-.09.448.448 0 0 1-.112-.174.527.527 0 0 1-.041-.25.307.307 0 0 1 .084-.182.599.599 0 0 1 .197-.132l-.165-.435a.955.955 0 0 0-.336.267.746.746 0 0 0-.156.382c-.018.145.006.305.072.48a.94.94 0 0 0 .207.333c.088.09.19.156.308.2a.989.989 0 0 0 .387.055c.14-.006.287-.039.442-.097l.146-.056c.155-.058.287-.13.396-.218a.966.966 0 0 0 .253-.293.828.828 0 0 0 .099-.352.972.972 0 0 0-.068-.39 1.044 1.044 0 0 0-.26-.408.748.748 0 0 0-.368-.19.84.84 0 0 0-.422.026Zm4.588-13.993.33-.325c.1.115.165.24.194.376a.748.748 0 0 1-.026.413c-.047.139-.137.273-.269.403a.969.969 0 0 1-.329.22.827.827 0 0 1-.362.051.965.965 0 0 1-.37-.113 1.475 1.475 0 0 1-.36-.275l-.109-.111a1.444 1.444 0 0 1-.267-.365.99.99 0 0 1-.106-.377.84.84 0 0 1 .06-.362.94.94 0 0 1 .22-.323c.134-.132.27-.219.41-.26a.745.745 0 0 1 .413-.012.953.953 0 0 1 .38.2l-.331.327a.597.597 0 0 0-.2-.127.308.308 0 0 0-.202-.004.529.529 0 0 0-.212.139.447.447 0 0 0-.114.173.376.376 0 0 0-.012.196.65.65 0 0 0 .094.22c.049.077.115.158.2.243l.111.114c.082.083.16.15.235.201a.71.71 0 0 0 .214.103.375.375 0 0 0 .197-.003.463.463 0 0 0 .183-.117.542.542 0 0 0 .139-.201.321.321 0 0 0 .006-.2.54.54 0 0 0-.117-.204Zm12.268-3.001-.456-.085a.54.54 0 0 1-.1.213.321.321 0 0 1-.168.109.543.543 0 0 1-.244.002.463.463 0 0 1-.2-.083.375.375 0 0 1-.116-.16.707.707 0 0 1-.038-.235 1.6 1.6 0 0 1 .03-.307l.03-.157c.022-.118.05-.219.085-.303a.65.65 0 0 1 .127-.203.377.377 0 0 1 .168-.103.449.449 0 0 1 .207-.005c.102.019.18.05.235.094a.308.308 0 0 1 .112.168.598.598 0 0 1 .01.236l.457.086a.954.954 0 0 0-.052-.426.745.745 0 0 0-.246-.333 1.009 1.009 0 0 0-.448-.187.942.942 0 0 0-.392.004.843.843 0 0 0-.33.159.99.99 0 0 0-.249.302 1.443 1.443 0 0 0-.146.428l-.029.154c-.03.162-.037.313-.02.451a.965.965 0 0 0 .12.369.825.825 0 0 0 .249.267.97.97 0 0 0 .369.144c.181.034.343.03.484-.01a.747.747 0 0 0 .353-.215.839.839 0 0 0 .198-.374ZM13.68 28.818h-.096c-.155.002-.294.027-.415.077a.878.878 0 0 0-.508.523 1.135 1.135 0 0 0-.066.403c0 .048.003.094.008.139-.245.005-.378-.078-.453-.167a.56.56 0 0 1-.112-.392l-.283-.024a.844.844 0 0 0 .177.597c.15.18.39.29.74.266.046.114.11.213.193.297a.89.89 0 0 0 .315.202c.122.048.26.071.415.07h.096c.154-.001.292-.026.415-.075a.898.898 0 0 0 .312-.209.911.911 0 0 0 .195-.316c.044-.122.066-.256.066-.403-.001-.148-.025-.282-.071-.402a.892.892 0 0 0-.198-.314.891.891 0 0 0-.315-.202 1.128 1.128 0 0 0-.415-.07Zm-.096.487h.098c.107-.001.202.01.285.032a.608.608 0 0 1 .208.096.415.415 0 0 1 .128.159c.029.063.044.135.044.216a.517.517 0 0 1-.042.217.428.428 0 0 1-.126.161.59.59 0 0 1-.207.1 1.083 1.083 0 0 1-.284.036h-.099c-.107.002-.202-.01-.284-.031a.593.593 0 0 1-.207-.097.418.418 0 0 1-.126-.158.516.516 0 0 1-.044-.217c0-.08.013-.153.042-.217a.416.416 0 0 1 .124-.16.575.575 0 0 1 .206-.102c.081-.023.176-.034.284-.035ZM38.33 15.8a.843.843 0 0 1 .6.17c.202.163.319.441.264.858l-.28-.036c.044-.345-.055-.515-.163-.602a.56.56 0 0 0-.393-.108l-.028-.282Zm-1.264.58-.079.071a1.355 1.355 0 0 0-.289.362.995.995 0 0 0-.117.383.883.883 0 0 0 .052.378c.044.123.116.24.216.348.098.109.207.191.327.247a.904.904 0 0 0 .371.087 1 1 0 0 0 .395-.08c.132-.055.26-.14.386-.254l.079-.071c.126-.115.222-.236.289-.361a.992.992 0 0 0 .117-.384.892.892 0 0 0-.05-.379 1.049 1.049 0 0 0-.216-.348 1.04 1.04 0 0 0-.327-.247.874.874 0 0 0-.373-.086.982.982 0 0 0-.394.08 1.322 1.322 0 0 0-.387.254Zm.25.43.08-.073c.087-.08.172-.142.254-.186a.662.662 0 0 1 .234-.079.424.424 0 0 1 .21.026.477.477 0 0 1 .182.128c.054.06.091.124.11.192.02.066.021.137.005.21a.683.683 0 0 1-.101.226 1.3 1.3 0 0 1-.209.235l-.08.074c-.087.079-.172.141-.254.186a.68.68 0 0 1-.236.08.437.437 0 0 1-.393-.153.476.476 0 0 1-.11-.192.424.424 0 0 1-.004-.211.7.7 0 0 1 .102-.227c.053-.078.122-.156.21-.235Zm5.16 9.216.106.003c.17.003.323.031.456.083a.982.982 0 0 1 .34.213c.093.09.164.196.211.32.048.121.07.256.067.404-.003.146-.031.28-.084.4a.892.892 0 0 1-.225.31.993.993 0 0 1-.349.197 1.345 1.345 0 0 1-.459.063l-.105-.003a1.354 1.354 0 0 1-.456-.082 1.001 1.001 0 0 1-.34-.214.902.902 0 0 1-.21-.32 1.051 1.051 0 0 1-.066-.404c.003-.147.03-.281.083-.401a.883.883 0 0 1 .223-.31.994.994 0 0 1 .35-.196c.136-.046.289-.066.458-.063Zm.099.489-.11-.003a1.312 1.312 0 0 0-.313.027.698.698 0 0 0-.23.093.423.423 0 0 0-.143.156.475.475 0 0 0-.052.216.437.437 0 0 0 .179.381.68.68 0 0 0 .226.105c.09.024.195.038.312.04l.109.002c.119.003.223-.006.314-.027a.681.681 0 0 0 .229-.093.427.427 0 0 0 .141-.156.475.475 0 0 0 .052-.215.475.475 0 0 0-.043-.218.424.424 0 0 0-.134-.163.663.663 0 0 0-.225-.105 1.301 1.301 0 0 0-.312-.04ZM32.44 40.96a.844.844 0 0 0-.462-.417l-.1.265a.56.56 0 0 1 .305.27.467.467 0 0 1 .013.34.903.903 0 0 0-.22-.067 1.053 1.053 0 0 0-.41.016c-.144.033-.27.087-.376.163a.876.876 0 0 0-.258.282.981.981 0 0 0-.124.382c-.018.142-.008.296.03.462l.023.104c.038.165.095.308.172.43.077.12.169.217.275.29.107.073.225.12.355.141.13.022.266.017.41-.016a1.05 1.05 0 0 0 .376-.163.902.902 0 0 0 .259-.28 1 1 0 0 0 .125-.383 1.356 1.356 0 0 0-.031-.462l-.024-.103a1.348 1.348 0 0 0-.172-.43 1.05 1.05 0 0 0-.167-.203c.093-.238.082-.447.002-.621Zm-1.129 1.585.024.107c.026.114.06.213.103.297.042.083.09.15.146.201.055.05.117.084.186.101a.476.476 0 0 0 .222-.002.437.437 0 0 0 .326-.266.682.682 0 0 0 .046-.245 1.308 1.308 0 0 0-.036-.313l-.025-.106a1.299 1.299 0 0 0-.102-.297.684.684 0 0 0-.146-.2.427.427 0 0 0-.186-.1.476.476 0 0 0-.221.002.477.477 0 0 0-.201.095.424.424 0 0 0-.126.17.664.664 0 0 0-.047.244c-.002.092.01.197.037.312Zm-14.839-6.05.263.809h.852l-.689.5.263.81-.689-.5-.688.5.263-.81-.689-.5h.851l.263-.81Zm15.786-21.859.841.389.238-.515-.842-.388-.237.514Zm7.22 21.859.263.81h.851l-.688.5.263.81-.69-.501-.688.5.263-.81-.688-.5h.85l.264-.81Z" fill="#2E3192"/><defs><linearGradient id="a" x1="26.098" y1="24.066" x2="26.098" y2="28.691" gradientUnits="userSpaceOnUse"><stop stop-color="#fff"/><stop offset="1" stop-color="#fff" stop-opacity="0"/></linearGradient></defs></svg>