<!-- by TradingView --><svg width="56" height="56" viewBox="0 0 56 56" xmlns="http://www.w3.org/2000/svg"><path fill="#F0F3FA" d="M0 0h56v56H0z"/><path fill-rule="evenodd" d="M9.64 22H7v12h3c1.66 0 3-1.55 3-3.45 0-1.27-.6-2.38-1.48-2.98.56-.58.9-1.43.9-2.36 0-1.77-1.24-3.21-2.78-3.21ZM9 23c1.1 0 1.5 1.04 1.5 2s-.4 2-1.5 2v-4Zm1.5 7c0-.96-.4-2-1.5-2v4c1.1 0 1.5-1.04 1.5-2Z" fill="url(#a)"/><path d="M25.5 22H28l-8 12-1-4-4 4V22h2v7.5l3.3-2.5.38 2.4L25.5 22Z" fill="url(#b)"/><path d="M30.5 22H33v12h-2v-2h-4.25l-1.25 2H23l7.5-12ZM28 30h3v-4.8L28 30Z" fill="url(#c)"/><path d="M41 24.42V22.5c-.27-.17-1.25-.5-3.04-.5-1.84 0-2.96.67-2.96 1.42v9.16c0 .75 1.12 1.42 2.96 1.42 1.8 0 2.77-.33 3.04-.5v-1.92c-.45.54-1.41.73-1.84.75h-.56c-.8 0-1.6-.67-1.6-1.5v-5.66c0-.83.8-1.5 1.6-1.5h.56c.43.02 1.4.21 1.84.75Z" fill="url(#d)"/><path fill-rule="evenodd" d="m46 18-3.08 8.68A9.3 9.3 0 0 0 42 30.3c0 2.7 1.87 3.7 4 3.7s4-1 4-3.7a9.3 9.3 0 0 0-.92-3.62L46 18Zm0 14a2 2 0 1 0 0-4 2 2 0 0 0 0 4Z" fill="url(#e)"/><defs><linearGradient id="a" x1="10" y1="22" x2="10" y2="34" gradientUnits="userSpaceOnUse"><stop offset=".58" stop-color="#0072BB"/><stop offset=".71" stop-color="#0172BB" stop-opacity=".6"/></linearGradient><linearGradient id="b" x1="21.5" y1="22" x2="21.5" y2="34" gradientUnits="userSpaceOnUse"><stop offset=".58" stop-color="#0072BB"/><stop offset=".71" stop-color="#0172BB" stop-opacity=".6"/></linearGradient><linearGradient id="c" x1="28" y1="22" x2="28" y2="34" gradientUnits="userSpaceOnUse"><stop offset=".58" stop-color="#0072BB"/><stop offset=".71" stop-color="#0172BB" stop-opacity=".6"/></linearGradient><linearGradient id="d" x1="38" y1="22" x2="38" y2="34" gradientUnits="userSpaceOnUse"><stop offset=".58" stop-color="#0072BB"/><stop offset=".71" stop-color="#0172BB" stop-opacity=".6"/></linearGradient><linearGradient id="e" x1="46" y1="18" x2="46" y2="34" gradientUnits="userSpaceOnUse"><stop offset=".2" stop-color="#1E3188"/><stop offset=".31" stop-color="#026EB8"/><stop offset=".68" stop-color="#0072BB"/><stop offset=".78" stop-color="#0172BB" stop-opacity=".6"/></linearGradient></defs></svg>