<!-- by TradingView --><svg width="56" height="56" viewBox="0 0 56 56" xmlns="http://www.w3.org/2000/svg"><path fill="#F0F3FA" d="M0 0h56v56H0z"/><path d="m29.47 18.44-1.55-2.9 2.86-5.48a.11.11 0 0 1 .1-.06l.05.01a.1.1 0 0 1 .04.05l12.2 22.74a.14.14 0 0 1-.12.2h-1.37a.36.36 0 0 1-.34-.2l-9.72-18.11a.1.1 0 0 0-.16 0l-2 3.75ZM27.02 16.9c.03-.01.06 0 .1.02a144.18 144.18 0 0 1 1.49 2.72l-1.67 3.2a.23.23 0 0 1-.09.1c-.04.02-.08.06-.13.06H23.9l-.03-.03-.03-.02a.06.06 0 0 1 0-.06l3.18-6Z" fill="#D6261E"/><path d="M31.92 22.82c.06.13.03.18-.11.18h-1.38c-.17 0-.29-.06-.36-.2-1.57-2.94-2.91-5.28-4.45-8.16a.09.09 0 0 0-.08-.05.1.1 0 0 0-.08.05l-9.56 18.2a.3.3 0 0 1-.26.16h-2.71c-.15 0-.19-.06-.12-.19l11.93-22.73a.15.15 0 0 1 .05-.06.15.15 0 0 1 .16 0l.05.06 6.92 12.74Z" fill="#27166D"/><path d="m20.58 25.76.35.16.07.07v6.77l-.01.04a.1.1 0 0 1-.02.05l-.53.57a.16.16 0 0 0-.05.15c.06.27.28.41.67.42h2.66c.18 0 .28-.09.28-.28v-8.48a.24.24 0 0 0-.02-.09.23.23 0 0 0-.05-.07.2.2 0 0 0-.15-.07h-2.55a.95.95 0 0 0-.73.23.31.31 0 0 0-.08.13.34.34 0 0 0 .04.3.3.3 0 0 0 .12.1Zm6.23 3.67c-.14-.05-.15-.1-.02-.17l.6-.25c1.42-.58 1.57-2.45.38-3.4-.67-.53-1.92-.67-3.01-.59-.07.01-.12.05-.13.12-.05.2-.05.4 0 .6a.2.2 0 0 0 .12.13l.1.04c.37.12.61.2.64.6.04.62.04 1.22 0 1.81-.03.43-.28.56-.68.6a.18.18 0 0 0-.15.1.76.76 0 0 0-.05.56c.02.07.06.12.12.15l.13.06c.41.2.65.3.65.88l.01 1.66c0 .52-.24.8-.74.84a.15.15 0 0 0-.14.11c-.06.16-.06.36-.02.61a.15.15 0 0 0 .14.12c1.63.06 3.63-.23 3.9-2.03.21-1.34-.68-2.18-1.85-2.55Z" fill="#27166D"/><path d="M34.8 29.4c-.13-.04-.14-.1-.01-.16l.6-.25c1.42-.58 1.57-2.45.38-3.4-.67-.53-1.93-.67-3.02-.58-.07 0-.1.04-.13.1-.04.21-.04.4 0 .6a.2.2 0 0 0 .13.14l.1.04c.37.12.6.2.64.6.04.62.04 1.22 0 1.81-.03.43-.28.56-.68.6a.18.18 0 0 0-.15.1.76.76 0 0 0-.05.56c.02.07.06.12.12.15l.12.06c.42.2.66.3.66.88l.01 1.66c0 .52-.25.8-.75.84a.15.15 0 0 0-.13.11c-.06.16-.06.36-.02.61 0 .04.03.07.05.09l.09.03c1.63.06 3.63-.23 3.9-2.03.2-1.34-.68-2.18-1.85-2.55Zm-6.23-3.63.35.15c.04.02.06.04.08.07v6.77l-.01.04a.1.1 0 0 1-.03.05l-.53.57a.16.16 0 0 0-.04.15c.05.28.28.42.67.42l2.66.01c.18 0 .28-.1.28-.28v-8.49a.25.25 0 0 0-.02-.09.23.23 0 0 0-.05-.07.2.2 0 0 0-.07-.05.95.95 0 0 0-3.36.21.32.32 0 0 0-.08.13.34.34 0 0 0 .04.3.3.3 0 0 0 .11.1ZM35.91 37.24c0 .24-.06.47-.17.7a2.08 2.08 0 0 1-1.13.95c-.26.08-.52.12-.79.1h-.56a2.15 2.15 0 0 1-1.42-.58 1.71 1.71 0 0 1-.55-1.3l.01-.35c.01-.24.07-.47.18-.7.11-.2.27-.4.46-.57a2.25 2.25 0 0 1 1.46-.5l.56.03c.54.01 1.05.22 1.42.57.37.35.56.82.55 1.3l-.02.35ZM33.6 38.3c.14 0 .27-.03.4-.1.13-.06.24-.15.34-.27.1-.12.18-.27.23-.42.05-.16.08-.33.08-.5 0-.34-.1-.68-.3-.92a.95.95 0 0 0-.72-.39.87.87 0 0 0-.4.1c-.13.06-.24.16-.34.28-.1.12-.18.26-.23.42-.05.15-.08.32-.09.5 0 .34.1.67.3.91.2.25.46.39.73.39ZM44.72 37.48h-.57c-.1 0-.15-.04-.15-.14v-.45c0-.1.06-.16.19-.16h1.69c.07 0 .12.03.12.1v1.89c0 .03-.02.05-.04.07a10.54 10.54 0 0 1-2.46.19c-2.47-.18-2.58-3.54-.26-3.92.84-.13 2.88-.16 2.74 1.04 0 .05-.04.09-.1.1-.6.13-1.03.03-1.3-.3a.3.3 0 0 0-.18-.1c-2.08-.43-2.13 2.97.3 2.41.07-.01.11-.05.13-.1.04-.12.04-.3.02-.53a.1.1 0 0 0-.04-.07.13.13 0 0 0-.09-.03ZM12 36.61h.64c.03 0 .06-.02.08-.04a.1.1 0 0 0 .03-.08v-1.38a.1.1 0 0 1 .04-.07.11.11 0 0 1 .07-.03h1.03c.07 0 .1.05.1.15a330.83 330.83 0 0 1 0 3.69c0 .1-.04.15-.1.15h-1.03a.11.11 0 0 1-.08-.04.1.1 0 0 1-.03-.07v-1.38a.1.1 0 0 0-.03-.08.12.12 0 0 0-.08-.03 18.25 18.25 0 0 0-1.28 0 .12.12 0 0 0-.08.03.1.1 0 0 0-.03.08v1.38a.1.1 0 0 1-.01.04.1.1 0 0 1-.06.05l-.04.01H10.1c-.07 0-.1-.05-.1-.15a323.78 323.78 0 0 1 0-3.69c0-.1.04-.15.1-.15h1.03c.03 0 .06.02.08.04a.1.1 0 0 1 .03.07v1.38c0 .03 0 .06.03.08.02.02.05.03.08.03l.64.01ZM15.72 39h-1.01a.1.1 0 0 1-.05-.01.09.09 0 0 1-.03-.03.08.08 0 0 1 0-.08l1.68-3.83.03-.04a.1.1 0 0 1 .06-.01h1.39a.1.1 0 0 1 .05.01l.03.04 1.69 3.83a.08.08 0 0 1-.01.08.1.1 0 0 1-.03.03.1.1 0 0 1-.05.01H18.3a.1.1 0 0 1-.05-.01.09.09 0 0 1-.03-.04l-.3-.68a.09.09 0 0 0-.03-.04.1.1 0 0 0-.06-.02H16.2a.1.1 0 0 0-.05.02.09.09 0 0 0-.03.04l-.3.67-.04.04a.1.1 0 0 1-.05.02Zm.74-1.66a.06.06 0 0 0 0 .07l.03.02h.04l.98.01h.04l.02-.02.02-.03v-.03l-.48-1.4a.07.07 0 0 0-.03-.04.08.08 0 0 0-.08 0 .07.07 0 0 0-.03.03l-.51 1.4ZM21.14 35h-1.02c-.07 0-.12.05-.12.11v3.78c0 .06.05.11.12.11h1.02c.06 0 .12-.05.12-.11V35.1c0-.06-.06-.11-.12-.11ZM23.45 37.55a.2.2 0 0 0-.14.04.17.17 0 0 0-.04.06.16.16 0 0 0-.02.07v1.18a.1.1 0 0 1-.03.07.12.12 0 0 1-.08.03H22.1c-.07 0-.11-.03-.11-.1v-3.8a.1.1 0 0 1 .03-.06.1.1 0 0 1 .07-.03 29.3 29.3 0 0 1 2.34.03c1.06.05 1.53.56 1.43 1.52-.12 1.04-1.51 1.07-2.42.99Zm-.19-1.64-.01.76.01.05c0 .02.02.03.03.05.02 0 .03.02.05.03h.06l.43.01c.2 0 .4-.04.54-.13.14-.08.23-.2.23-.33v-.08a.32.32 0 0 0-.06-.19.53.53 0 0 0-.16-.15.9.9 0 0 0-.25-.11c-.09-.02-.19-.04-.29-.04h-.43a.16.16 0 0 0-.1.03.14.14 0 0 0-.05.1ZM26.6 37l.01-1.85c.01-.1.05-.15.11-.15h1.04l.04.02c.01 0 .03 0 .04.02a.1.1 0 0 1 .03.07l-.01 1.38c0 .03.01.06.03.08.02.02.05.03.08.03a13.84 13.84 0 0 0 1.37-.03.1.1 0 0 0 .04-.08v-1.38a.1.1 0 0 1 .03-.07l.04-.02.04-.02h1.04c.06 0 .1.06.1.17a312.3 312.3 0 0 1-.01 3.68c0 .1-.04.15-.1.15h-1.05l-.07-.04a.1.1 0 0 1-.03-.07v-1.38a.1.1 0 0 0-.03-.08.12.12 0 0 0-.08-.03 18.59 18.59 0 0 0-1.3 0 .12.12 0 0 0-.07.03.1.1 0 0 0-.03.07v1.39a.1.1 0 0 1-.01.03.1.1 0 0 1-.03.04.1.1 0 0 1-.03.02l-.05.02h-1.03c-.07 0-.1-.06-.11-.17V37Z" fill="#27166D"/><path d="m38.34 37.19-.47-.95c-.09-.18-.14-.17-.14.03v2.59c0 .1-.05.14-.15.14h-.82c-.1 0-.15-.05-.15-.15v-3.77c0-.02 0-.04.02-.05l.06-.03h1.52c.04 0 .08.02.11.04a.2.2 0 0 1 .08.08 537.66 537.66 0 0 1 1.32 2.64c.1.18.14.17.14-.03v-2.59c0-.1.05-.14.15-.14h.82c.1 0 .17.05.17.15v3.77l-.02.02c0 .01 0 .02-.02.03l-.02.02-.04.01H39.4a.24.24 0 0 1-.12-.04.2.2 0 0 1-.08-.08l-.85-1.7Z" fill="#27166D"/><path d="M45.85 39.63h-35.7c-.08 0-.15.07-.15.16v.04c0 .1.07.17.15.17h35.7c.08 0 .15-.08.15-.17v-.04c0-.09-.07-.16-.15-.16Z" fill="#BB252E"/><path d="M45.84 40.42H10.16a.16.16 0 0 0-.16.16v.26c0 .09.07.16.16.16h35.68c.09 0 .16-.07.16-.16v-.26a.16.16 0 0 0-.16-.16Z" fill="#27166D"/></svg>