<!-- by TradingView --><svg width="56" height="56" viewBox="0 0 56 56" xmlns="http://www.w3.org/2000/svg"><path fill="#F0F3FA" d="M0 0h56v56H0z"/><path d="M41.47 16.63c-.35-.36-1.32-.87-2.4-1.57a9.5 9.5 0 0 0-2.44-1.13c-3.07-.93-5.85-1.1-8.33-.5-6.97 1.65-11.07 6.09-12.28 13.3-.03.18-.13.27-.3.27h-3.46a.25.25 0 0 1-.2-.09.27.27 0 0 1-.06-.21c1.18-10.32 9.57-16.94 19.63-15.5 1.68.23 3.34.79 4.98 1.66a19.57 19.57 0 0 1 4.86 3.77Z" fill="#0AA649"/><path d="M18.8 26.72A13.52 13.52 0 0 1 42.1 19h-.01c-3.85-2.91-7.83-3.64-11.96-2.2a12.06 12.06 0 0 0-8.09 9.92c-.02.19-.13.28-.3.28h-2.69c-.18 0-.26-.1-.23-.28Z" fill="#0AA649"/><path d="M37.7 18.26a9.54 9.54 0 0 1 3.93 2.18c.37.35.3.37-.2.06-2.93-1.8-6.29-2.14-9.35-.55-2.93 1.52-4.2 3.6-5 6.66-.07.26-.23.39-.5.39h-1.4c-.33 0-.45-.16-.39-.49 1.26-6.21 6.79-10 12.9-8.25Z" fill="#0AA649"/><path d="M35.83 31.7a.26.26 0 0 0 .05.21c.02.03.05.06.08.07.03.02.06.03.1.02h2.4c.2 0 .29.1.29.29v.39a.34.34 0 0 1-.1.22.31.31 0 0 1-.22.1h-7.45c-.19 0-.23-.08-.11-.24.63-.9 2.17-3 4.62-6.28.92-1.23.4-3-1.14-2.79-1.85.26-2.67 1.33-2.46 3.22.02.17-.05.26-.22.26h-.2c-.1 0-.2-.04-.28-.12a.44.44 0 0 1-.14-.28c-.15-1.54.44-2.65 1.76-3.34 1.34-.69 3.8-.6 5 .58 2.27 2.22-.22 5.05-1.6 6.91a2.1 2.1 0 0 0-.38.79ZM39.63 24.86l-.11-.43a.18.18 0 0 1 .01-.13.17.17 0 0 1 .1-.08l4.17-1.21a.15.15 0 0 1 .14.03c.02.01.03.03.04.06.02.02.02.05.02.07v9.66c0 .04-.02.09-.05.12a.16.16 0 0 1-.11.05h-2.68a.16.16 0 0 1-.12-.05.17.17 0 0 1-.04-.12v-7.67c0-.03 0-.05-.02-.07a.17.17 0 0 0-.08-.1.15.15 0 0 0-.07 0h-1.05a.16.16 0 0 1-.1-.04.17.17 0 0 1-.05-.1Z" fill="#025BAA"/><path d="M41.44 35.63c.34-.2.87-.8 1.22-1.08.35-.29.43-.23.23.18-.98 2.01-2.22 4.24-3.7 5.62-7.5 7.04-18.54 5.95-24.43-2.37a16.24 16.24 0 0 1-2.72-8.5c0-.32.16-.48.47-.48h14.08c.24 0 .38.12.42.36 1.32 6.87 8.61 9.72 14.43 6.27Z" fill="#AD8442"/></svg>