<!-- by TradingView --><svg width="56" height="56" viewBox="0 0 56 56" xmlns="http://www.w3.org/2000/svg"><path fill="#F0F3FA" d="M0 0h56v56H0z"/><path d="M13 41.92 27.95 8.04c0-.02.02-.02.03-.03a.06.06 0 0 1 .09.03l14.93 33.88a.06.06 0 0 1 0 .05.06.06 0 0 1-.05.03H13.06a.06.06 0 0 1-.05-.03.06.06 0 0 1 0-.05Z" fill="#2E3192"/><path d="m24.01 20.96 3.95-8.94V12a.03.03 0 0 1 .06 0l3.94 8.95a.03.03 0 0 1 0 .03h-.02l-.01.01H24.03a.03.03 0 0 1-.02-.04ZM22.95 22.98l.64-1.44a.03.03 0 0 1 .02-.02h8.78l.01.02.63 1.44v.03l-.01.01L33 23H22.98l-.01.02a.03.03 0 0 1-.02-.02v-.02ZM23.64 26.45c-.4.1-.55.7-.66 1.04l-1.33 4.05c-.07.22-.03.57.26.6.39.05.63-.36.72-.7a104.38 104.38 0 0 0 .4-1.42h2.48a.05.05 0 0 1 .04.01.05.05 0 0 1 0 .04l-.39 2.84c-.06.38-.9.7-1.24.8-1.15.32-5.33.91-5.3-1.19.02-.45.15-.86.36-1.31.87-1.88 1.54-3.29 2-4.23.22-.46.5-.9.86-1.32.81-.97 1.72-1.42 2.98-1.14.52.11.97.37 1.34.79a.17.17 0 0 1 .05.13L25.85 28c0 .01 0 .02-.02.03l-.03.01h-2.15c-.04 0-.05-.01-.05-.05l.26-.96c.08-.28.04-.47-.11-.56a.13.13 0 0 0-.1-.02ZM32.38 26.46a.18.18 0 0 0-.24.08c-.07.15-.09.3-.05.44.51 2.03.91 3.56 1.2 4.6.08.27.48.72.81.52.15-.09.2-.24.13-.47a25.21 25.21 0 0 0-.46-1.6l.02-.01h2.43l.06.01a2622.07 2622.07 0 0 0 1.3 2.85c.2.46-.64.82-.97.9a8.04 8.04 0 0 1-3.9.05 2.92 2.92 0 0 1-2.02-1.54c-.14-.3-.27-.85-.36-1.65-.26-2.25-.41-3.56-.44-3.93a3.3 3.3 0 0 1 .2-1.33c.29-.85 1.05-1.01 1.89-.91.75.09 1.48.38 2.1.82.1.06.17.17.24.32a487.98 487.98 0 0 1 1.06 2.43H33.24c-.06 0-.1-.03-.12-.09-.15-.5-.26-.85-.34-1.06a.76.76 0 0 0-.4-.43ZM28 24.62l1.04.01c.04 0 .06.03.07.06.04.32.07.75.1 1.3 0 .1-.03.25-.09.48-.04.17-.06.38-.05.62.12 2.35.22 3.89.29 4.62.01.19.12.41.32.68.02.02.03.05.03.08l.12 1.44c0 .04-.02.09-.06.09h-3.76c-.04 0-.05-.09-.05-.12l.15-1.45c0-.03 0-.05.03-.07.2-.27.32-.5.34-.68.08-.73.2-2.27.38-4.6.01-.25 0-.46-.04-.64a1.88 1.88 0 0 1-.07-.48c.03-.54.07-.97.12-1.29.01-.04.03-.05.07-.06H28ZM16.88 36.9l.62-1.86.02-.03.03-.01h20.9l.03.01.02.03.62 1.86a.09.09 0 0 1 0 .07l-.03.02-.02.01H16.9l-.02-.03-.01-.03v-.04ZM17.12 39.46c-.34-.22-.45-.5-.31-.82.2-.5.85-.67 1.4-.64.43.03 1.03.18 1.13.6.08.28-.09.51-.34.67-.06.03-.06.07 0 .1.36.13.54.35.56.65.04 1.09-2.06 1.23-2.72.62-.3-.28-.3-.7.03-.95.04-.03.12-.09.25-.16.04-.03.04-.05 0-.07Zm1.5-.44.08-.35a.15.15 0 0 0-.02-.13.18.18 0 0 0-.05-.04.2.2 0 0 0-.06-.03l-.26-.05a1.3 1.3 0 0 0-.26-.03.94.94 0 0 0-.24.03.48.48 0 0 0-.17.08.21.21 0 0 0-.08.12.2.2 0 0 0 .02.14c.02.05.06.1.11.14l.2.11c.08.04.16.06.25.08l.26.05c.05.01.1 0 .14-.02a.17.17 0 0 0 .08-.1Zm-.88.7c-.45-.06-.64.59-.22.8.25.11.66.14.94.04.33-.11.49-.43.1-.6-.28-.13-.55-.2-.82-.24ZM32.4 40.19l.08-.26c.06-.16 0-.2-.16-.12-.54.27-1.45.2-1.8-.33a.85.85 0 0 1 .16-1.1c.52-.43 1.4-.49 1.96-.22.38.2.6.49.67.9.14.88-.11 1.71-1.23 1.9-.5.09-.94.02-1.33-.2-.48-.26-.02-.9.44-.56.11.08.13.23.2.33l.08.05c.21.07.42.05.63-.05a.6.6 0 0 0 .3-.34Zm-.64-.63c.16.01.33-.03.45-.13a.6.6 0 0 0 .23-.4.57.57 0 0 0-.13-.43.62.62 0 0 0-.4-.21.64.64 0 0 0-.46.12.6.6 0 0 0-.23.4c-.02.16.03.31.13.43.1.13.25.2.41.22ZM35.48 40.19l.09-.26c.05-.16 0-.2-.16-.12-.54.27-1.46.2-1.8-.32a.85.85 0 0 1 .16-1.11c.51-.43 1.4-.49 1.95-.22.38.19.6.49.67.89.15.89-.1 1.72-1.23 1.91-.49.09-.93.02-1.32-.2-.48-.26-.02-.9.44-.56.1.08.13.23.2.33l.08.05c.21.07.42.05.63-.05a.6.6 0 0 0 .3-.34Zm-.65-.63c.17.01.33-.03.46-.13a.6.6 0 0 0 .24-.4.56.56 0 0 0-.12-.43.6.6 0 0 0-.41-.22.65.65 0 0 0-.46.13.6.6 0 0 0-.24.39.56.56 0 0 0 .12.43.6.6 0 0 0 .41.23ZM38.86 39.34c-.05.03-.05.05.01.07.9.23.68 1.13-.03 1.4-.67.26-1.46.28-2.06-.1a.47.47 0 0 1-.2-.27c-.2-.67.8-.67.78-.23l-.01.18c0 .03 0 .05.02.08.01.02.03.04.06.05.4.17 1 .1 1.05-.38.05-.54-.4-.57-.87-.6a.1.1 0 0 1-.06-.02.08.08 0 0 1-.02-.06v-.16c0-.06.03-.09.09-.1.25 0 .61-.02.7-.27.21-.51-.36-.65-.76-.5a.2.2 0 0 0-.11.1.18.18 0 0 0 0 .14c.02.09.03.16.02.23 0 .04-.02.06-.04.09-.2.2-.64.2-.75-.09-.16-.42.32-.73.72-.84.6-.16 2.06-.04 1.87.84-.04.18-.22.33-.4.44ZM23.73 38.54l-.48-.06-.04-.01-.01-.04v-.21c0-.04.02-.06.06-.07L24.6 38a.07.07 0 0 1 .07.04l.01.03v2.34c0 .06.03.12.07.16.05.04.1.07.17.07h.29c.07 0 .1.03.11.1l.02.15c.01.07-.02.11-.1.11H23.3c-.07 0-.1-.03-.1-.09v-.17c0-.07.04-.1.12-.11.3 0 .47-.06.47-.17a14.7 14.7 0 0 0 0-1.88.1.1 0 0 0-.06-.04ZM28.37 38.54l-.49-.06c-.01 0-.02 0-.03-.02l-.01-.03v-.21c0-.04.02-.06.06-.07l1.34-.15a.07.07 0 0 1 .07.04V40.41c0 .06.03.12.08.16.04.04.1.07.17.07h.29c.06 0 .1.03.1.1l.03.15c0 .07-.03.11-.1.11h-1.95c-.06 0-.1-.03-.1-.09v-.17c0-.07.05-.11.12-.11.31 0 .47-.06.48-.17a14.73 14.73 0 0 0 0-1.88.1.1 0 0 0-.06-.04ZM21.16 39.98h-.7c-.05-.01-.07-.03-.05-.07l.18-.36c.01-.02.04-.04.1-.04h1.17c.06 0 .07.02.06.06l-.19.36c0 .02-.04.04-.1.04l-.47.01ZM26.37 39.5l.7.02c.05 0 .07.03.05.06l-.18.36c-.01.02-.05.04-.1.04h-1.17c-.05-.01-.07-.03-.05-.07l.18-.35c.01-.03.05-.04.1-.05h.47Z" fill="#FFF200"/></svg>