<!-- by TradingView --><svg width="56" height="56" viewBox="0 0 56 56" xmlns="http://www.w3.org/2000/svg"><path fill="#FBFBBB" d="M0 0h56v56H0z"/><path d="M23.9 11h9.17l-1.72 6h-6.68c-.66 0-1.24.49-1.42 1.12l-2.72 9.57c-.27.95.44 2.31 1.42 2.31h3.63l-1.66 6h-3.35a6.91 6.91 0 0 1-6.59-8.9l3.32-11.16A6.88 6.88 0 0 1 23.9 11Z" fill="#FF0305"/><path d="m21.7 28 2.81-10h5.08l-1.58 6h5.66l-3.44 12h-5.14l2.07-8H21.7Z" fill="#1801FF"/><path d="M41.67 18h-10.7l-1.32 5h5.5l-3.6 13h5.2l4.92-18ZM13.69 37h23.97l-.44 2H13l.69-2ZM13.73 41H37.7l-.43 2H13l.73-2ZM38.33 35H43l-.5 2h-4.84l.67-2ZM38.38 39H43l-.45 2H37.7l.68-2Z" fill="#1801FF"/></svg>