<!-- by TradingView --><svg width="56" height="56" viewBox="0 0 56 56" xmlns="http://www.w3.org/2000/svg"><path fill="#F0F3FA" d="M0 0h56v56H0z"/><path d="M44.14 33.32a26.98 26.98 0 0 0-4.65-2.14c-.37-.13-.65-.24-.98-.33a36.5 36.5 0 0 0-4.98-1.14c-1.06-.17-2.16-.24-3.34-.36-.52-.05-1.49-.07-2.92-.05-1.07.02-2.04.16-3.14.24-.6.05-1.3.22-1.86.3-.39.04-.74.16-1.19.25-.81.17-1.52.39-2.34.64a19.31 19.31 0 0 0-4.2 1.88c-.03.02-.05.02-.08 0-.1-.1-.1-.2-.02-.32.54-.73 1.37-1.88 2.47-3.44.57-.8 1.39-1.85 2.06-2.81l1.12-1.59c1.49-2.04 2.72-3.81 4.42-6.17.17-.24.43-.45.58-.67.77-1.1 1.87-2.3 2.8-3.59.07-.09.11-.07.11.04v12.96c0 .02-.01.04-.03.05a.07.07 0 0 1-.05.03c-.57.04-1.27.16-1.8.24l-.92.18a37.38 37.38 0 0 1-1.39.28.1.1 0 0 1-.06-.05.1.1 0 0 1 0-.04v-.55c0-.08-.03-.1-.08-.02l-.54.73a.8.8 0 0 1-.33.28 37.5 37.5 0 0 1-.87.35.03.03 0 0 1 0-.03c.3-.5.75-1.07.98-1.4l.6-.84c.3-.35.26-.72.23-1.1 0-.04-.02-.05-.06-.03a74.42 74.42 0 0 0-1.42 1.97c-.41.6-.86 1.16-1.35 1.86-.04.06-.03.09.05.07l.44-.11c.3-.12.63-.22.95-.28.23-.05.51-.17.68-.2.63-.08 1.31-.29 1.85-.34.34-.03.72-.1 1.16-.18.73-.14 1.51-.14 2.41-.2.47-.04.89-.06 1.25-.07l4 .01c.6 0 1.41.1 1.95.13 1.08.06 1.86.21 3.2.4a32.38 32.38 0 0 1 3.04.67c.28.1.57.12.83.22.39.14.7.2 1.05.33h.04a.04.04 0 0 0 .02-.04c.07-.86.1-1.57.03-2.46-.05-.57-.07-1.23-.21-1.8-.1-.38-.15-.64-.17-.8-.04-.28-.16-.55-.24-.83a15.82 15.82 0 0 0-2.82-5.43l-.5-.52a16.03 16.03 0 0 0-9.16-5.16c-.7-.09-1.7-.25-2.59-.24-.61 0-.97 0-1.06.02-.86.1-1.74.17-2.5.35-1.37.33-2.6.76-3.7 1.3a15.89 15.89 0 0 0-4.41 3.3c-.66.7-1.09 1.17-1.29 1.44a15.42 15.42 0 0 0-2.36 4.66c-.1.4-.19.71-.26.93-.12.35-.15.83-.25 1.24-.06.28-.11.6-.13.94-.09 1.24-.08 2.46.01 3.64.04.43.16.82.22 1.24.1.54.25 1.04.44 1.7a16.06 16.06 0 0 0 9.57 10.06c.43.15.95.29 1.3.39.44.13.77.2 1 .24.46.06.91.2 1.41.25 1.12.08 2.2.09 3.28.03a18.6 18.6 0 0 0 2.7-.49c.69-.2 1.3-.37 2.03-.68a16.28 16.28 0 0 0 6.88-5.6v-.02l-.02.11a27.16 27.16 0 0 0-8.76-4.12l-.02.02v.03l-.01 2.98v.01H23.78a.04.04 0 0 1-.04-.04v-4.22a.08.08 0 0 0-.05-.07h-.02c-.9.01-2.27.01-3.29.17-.37.06-.78.11-1.22.16-.49.04-1.2.23-1.72.3-.16.02-.32.05-.48.1-.44.13-.78.17-1.2.3a16.43 16.43 0 0 1-1.14.29v-.01c0-.03.03-.06.06-.08 1.01-.59 2.14-1.1 3.36-1.5.9-.3 1.5-.5 1.85-.56l1.97-.39a9 9 0 0 1 .92-.14c.79-.06 1.5-.2 2.32-.24 1.7-.08 3.3-.06 4.8.05.5.03 1.08.15 1.64.2.4.02.82.08 1.22.17.59.13 1.76.3 2.57.51 1.46.38 2.82.84 4.1 1.37 1.43.6 2.83 1.37 4.2 2.28a16.66 16.66 0 0 1-1.92 3.3 17.08 17.08 0 0 1-9.41 6.42c-.33.08-.66.19-1.02.24-.87.14-1.51.27-2.23.3-.76.03-1.53.03-2.34-.01-.58-.03-1.34-.22-1.77-.26a3.75 3.75 0 0 1-.79-.16c-.31-.1-.74-.16-1.06-.26a20.64 20.64 0 0 1-3-1.24 17.53 17.53 0 0 1-6.6-6.19 19.95 19.95 0 0 1-1.5-3.19 15.93 15.93 0 0 1-.8-3.27c-.24-1.21-.21-2.58-.14-3.76.03-.58.18-1.2.24-1.7.04-.31.1-.6.17-.85.12-.36.16-.68.3-1.12.3-.94.68-1.9 1.15-2.86.4-.8.82-1.5 1.29-2.06.31-.39.79-.94 1.43-1.65a16.71 16.71 0 0 1 7.5-4.68c.4-.12.67-.23 1-.28l.8-.16c.24-.06.51-.1.82-.13a25.8 25.8 0 0 1 2.43-.15c.64 0 1.64.12 2.11.15.55.03 1.08.22 1.6.3.35.05.68.22 1.02.28.08 0 .2.05.4.11 1.47.52 2.78 1.15 3.92 1.89a16.74 16.74 0 0 1 4.15 3.82c.22.27.54.58.76.91a17.7 17.7 0 0 1 1.66 3.17c.07.18.26.74.54 1.68.12.38.2.72.26 1.04.08.47.2.86.24 1.39.11 1.18.16 1.95.16 2.29 0 .21-.06.96-.16 2.24-.05.56-.2.98-.27 1.5-.03.18-.1.44-.2.77l-.23.78Z" fill="#E30009"/><path d="m44.14 33.32-.51 1.4a24.87 24.87 0 0 0-4.2-2.28 29.6 29.6 0 0 0-4.1-1.37c-.8-.2-1.98-.38-2.57-.51-.4-.09-.81-.15-1.22-.18-.56-.04-1.15-.16-1.64-.2-1.5-.1-3.1-.12-4.8-.04-.82.04-1.53.18-2.32.24a9 9 0 0 0-.92.14l-1.97.39c-.34.07-.96.25-1.85.55-1.22.42-2.34.92-3.36 1.51-.03.02-.05.05-.06.08v.02a.02.02 0 0 0 .03 0c.5-.12.87-.22 1.11-.3.42-.13.76-.17 1.2-.3.16-.05.32-.08.48-.1.53-.07 1.23-.26 1.72-.3.44-.05.85-.1 1.22-.16 1.02-.16 2.63-.16 3.53-.18a.07.07 0 0 1 .06.03l.01.02.02.03V35.99l.03.01H32a.02.02 0 0 0 .01 0v-3.05a.06.06 0 0 1 .02-.04.06.06 0 0 1 .06-.01 27.2 27.2 0 0 1 8.97 4.16.05.05 0 0 1-.01.03 16.29 16.29 0 0 1-6.87 5.57c-.72.31-1.34.48-2.04.68a18.6 18.6 0 0 1-2.7.49c-1.06.06-2.15.05-3.27-.03-.5-.04-.95-.19-1.42-.25a7.99 7.99 0 0 1-.98-.24c-.36-.1-.88-.24-1.3-.4a16.22 16.22 0 0 1-9.33-9.28 9 9 0 0 1-.25-.78c-.19-.65-.35-1.15-.44-1.7-.06-.4-.18-.8-.22-1.23-.1-1.18-.1-2.4-.01-3.64.02-.35.07-.66.13-.94.1-.4.13-.89.25-1.24.07-.22.16-.52.26-.93a15.43 15.43 0 0 1 2.36-4.66c.2-.27.63-.75 1.29-1.43a15.89 15.89 0 0 1 4.41-3.3c1.1-.55 2.33-.98 3.7-1.3.76-.19 1.64-.27 2.5-.36.1-.01.45-.02 1.06-.02.89-.01 1.89.15 2.6.24.16.02.4.07.69.15l.67.17a16.03 16.03 0 0 1 7.78 4.84l.5.52a15.82 15.82 0 0 1 2.83 5.43c.08.28.2.55.24.83.02.16.08.42.17.8.14.57.16 1.23.2 1.8a13.56 13.56 0 0 1-.04 2.5.05.05 0 0 1-.04 0c-.35-.13-.66-.19-1.05-.33-.25-.1-.55-.12-.83-.22a32.42 32.42 0 0 0-3.05-.68c-1.33-.18-2.11-.33-3.2-.4-.53-.02-1.33-.11-1.94-.12h-4c-.36 0-.78.02-1.25.05-.9.07-1.68.07-2.4.21-.45.09-.83.15-1.17.18-.54.05-1.22.26-1.85.34-.17.03-.45.15-.68.2-.32.06-.64.16-.95.28a3.1 3.1 0 0 1-.44.11c-.07.02-.1 0-.05-.07.5-.7.94-1.25 1.35-1.86a74.11 74.11 0 0 1 1.42-1.97c.04-.02.06-.01.06.02.03.4.07.76-.22 1.11l-.6.85c-.24.32-.69.88-1 1.39v.01a.03.03 0 0 0 .04.03l.84-.36a.8.8 0 0 0 .33-.28l.54-.73c.05-.07.07-.06.07.02v.55a.1.1 0 0 0 .11.1l1.35-.3.93-.17c.52-.08 1.22-.2 1.8-.23l.05-.03.02-.05V14.06c0-.1-.04-.12-.1-.03-2.53 3.47-5.28 6.95-7.8 10.42-.24.32-.62.85-1.13 1.59-.67.96-1.5 2.02-2.06 2.81a252.8 252.8 0 0 1-2.47 3.44c-.09.12-.08.23.02.32.03.02.05.02.08 0a19.3 19.3 0 0 1 4.2-1.88c.82-.25 1.53-.47 2.34-.64.45-.1.8-.2 1.19-.26.56-.07 1.25-.24 1.87-.29 1.1-.08 2.06-.22 3.13-.24 1.43-.02 2.4 0 2.92.05 1.18.12 2.28.19 3.34.37a36.57 36.57 0 0 1 4.98 1.13c.33.09.61.2.98.33 1.57.54 3.12 1.26 4.65 2.14Z" fill="#FEE800"/><path d="m29.5 26.92-1.2.13a.03.03 0 0 1-.02 0 .03.03 0 0 1 0-.03V13.99a.03.03 0 0 1 .05 0l1.2 1.67v11.23a.03.03 0 0 1-.02.03ZM30.97 26.86h-.96l-.01-.03v-10.4h.02a.03.03 0 0 1 .03 0L31 17.8l.01.02v9.04l-.03.01ZM32.2 26.84h-.6l-.03-.01-.02-.03v-8.3a.04.04 0 0 1 .08-.03l.6.83.01.03v7.47l-.01.03-.03.01ZM22.91 37.48h-.71a.03.03 0 0 0-.04.03v2.46c0 .02.02.03.04.03h.71c.02 0 .04 0 .04-.03v-2.46a.03.03 0 0 0-.04-.03ZM25 38.74a20.1 20.1 0 0 0-.03.24.06.06 0 0 1-.04.02h-.6c-.04 0-.06.02-.06.06v.3c0 .04.02.06.06.06h.95a.06.06 0 0 1 .05.06v.48c0 .03-.01.05-.05.05L23.94 40a.54.54 0 0 1-.4-.17c-.16-.17-.1-.66-.1-1.1 0-.42-.06-.9.1-1.08.1-.11.24-.17.4-.17l1.34-.01c.04 0 .05.02.05.05V38a.06.06 0 0 1-.05.06h-.95c-.04 0-.06.02-.06.07v.3c0 .04.02.06.06.06h.6a.06.06 0 0 1 .04.02.06.06 0 0 1 .02.04v.2ZM26.57 38.94l-.01.12c0 .5.01.8.02.91 0 .02-.01.03-.03.03h-.77c-.01 0-.02 0-.02-.02v-2.46c0-.03.02-.05.05-.05h.62a.1.1 0 0 1 .1.05l.6 1.07c.05.08.07.07.07-.01v-1.1l.02-.01H28a.02.02 0 0 1 .02.02v2.46a.05.05 0 0 1-.05.06c-.23 0-.57.05-.73-.15a5.78 5.78 0 0 1-.56-.93.08.08 0 0 0-.03-.01h-.04a.07.07 0 0 0-.03.02ZM36.1 39.59v.29c0 .08-.04.12-.12.12h-.62c-.06 0-.09-.03-.09-.08v-.34c0-.04-.01-.06-.05-.06h-1.29c-.03 0-.05-.02-.06-.05-.04-.23-.07-.65.19-.87a64.87 64.87 0 0 0 1.04-1.13H36.05c.03 0 .05.01.05.05v1.36c0 .03.02.06.06.06h.18a.1.1 0 0 1 .09.01.1.1 0 0 1 .04.09v.37a.11.11 0 0 1-.12.11h-.18c-.05 0-.07.02-.07.07Zm-.82-1.2a.05.05 0 0 0-.03-.05.05.05 0 0 0-.06.02l-.48.5a.05.05 0 0 0-.02.06.05.05 0 0 0 .05.03l.49-.02a.05.05 0 0 0 .05-.05v-.49ZM20.36 38.73v.63c0 .03.02.05.06.05h.38c.04 0 .06-.01.07-.05l.04-.12c.01-.03.03-.05.07-.05h.59c.14 0 .19.07.14.2l-.1.36a.33.33 0 0 1-.3.23 8.75 8.75 0 0 1-1.45-.02c-.43-.13-.34-.78-.34-1.23 0-.46-.08-1.12.35-1.24l.5-.03c.34 0 .66 0 .95.03a.33.33 0 0 1 .3.23l.1.36c.04.13 0 .2-.15.2h-.59c-.03 0-.05-.03-.06-.06l-.04-.12c-.01-.03-.04-.05-.07-.05h-.38c-.04 0-.06.01-.06.05v.63ZM29.3 38.74v.62c0 .04.03.06.06.06h.35c.03 0 .05-.01.06-.04l.05-.13c0-.04.03-.05.06-.05h.56c.14 0 .2.07.17.2l-.08.34a.3.3 0 0 1-.27.24c-.37.03-.8.04-1.3.01-.38-.02-.47-.2-.48-.57a47.62 47.62 0 0 1 .01-1.38c0-.37.1-.55.48-.57.5-.01.93 0 1.3.03a.3.3 0 0 1 .27.24l.07.35c.03.13-.02.2-.16.2l-.56-.01a.06.06 0 0 1-.07-.05l-.04-.13c0-.03-.03-.05-.06-.05h-.35c-.04 0-.06.02-.06.06v.63ZM33.3 39.52a.48.48 0 0 1-.48.48h-1.26a.48.48 0 0 1-.48-.49v-1.57a.48.48 0 0 1 .49-.48h1.26a.48.48 0 0 1 .48.49v1.57Zm-.83-1.42-.01-.04a.06.06 0 0 0-.04-.02h-.5s-.02 0-.03.02a.06.06 0 0 0-.02.04v1.26a.06.06 0 0 0 .06.06h.49a.06.06 0 0 0 .05-.06V38.1Z" fill="#E30009"/></svg>