<!-- by TradingView --><svg width="56" height="56" viewBox="0 0 56 56" xmlns="http://www.w3.org/2000/svg"><path fill="#F0F3FA" d="M0 0h56v56H0z"/><path d="M32 24.18c2.59 1.74 4.54 3.83 5.47 6.27.25.68.2.7-.18.09-1.09-1.8-2.9-3.2-5.04-4.21-.14-.07-.25-.03-.25.13V44.7c0 .26-.1.42-.34.48l-2.29.56c-.23.06-.37-.03-.37-.28v-2.34c0-.1-.03-.12-.12-.12h-1.73c-.1 0-.15.03-.15.13v2.3c0 .26-.12.36-.38.3l-2.18-.5c-.3-.08-.44-.26-.44-.57V26.25c0-.19-.09-.24-.26-.17-8.63 3.64-9.74 14.36-2.16 19.76.25.18.23.2-.05.1a11.95 11.95 0 0 1-5.55-17.69c1.72-2.65 4.33-4.4 7.81-5.26.22-.05.21-.33.21-.57v-7.44c0-.13-.06-.17-.18-.1l-1.57.93c-.15.09-.25.05-.25-.12v-1.92c0-.15.08-.26.2-.33l9.63-6.42a.15.15 0 0 1 .2.05c.01.02-.03.05-.03.07v17.04Zm-4.67-6.44a.61.61 0 0 0-.33.56v1.6c0 .06.03.1.1.1h1.79c.08 0 .11-.04.11-.13V16.9c0-.28-.1-.35-.35-.2l-1.32 1.04ZM29 22.17a.17.17 0 0 0-.17-.17h-1.66a.17.17 0 0 0-.12.05.17.17 0 0 0-.05.11v2.2a.16.16 0 0 0 .17.17h1.66a.17.17 0 0 0 .15-.1l.02-.06v-2.2Zm0 2.97-.02-.05a.15.15 0 0 0-.13-.1l-1.7.01a.15.15 0 0 0-.15.15v2.26l.02.06a.15.15 0 0 0 .14.09l1.7-.01a.15.15 0 0 0 .13-.09l.01-.06v-2.26Zm0 4.47a.15.15 0 0 0-.1-.14.15.15 0 0 0-.06 0l-1.68-.01a.16.16 0 0 0-.14.1l-.01.05v2.23a.15.15 0 0 0 .04.1l.05.04.06.02h1.68a.16.16 0 0 0 .14-.1l.02-.06v-2.23Zm0 2.99a.17.17 0 0 0-.17-.17h-1.67a.17.17 0 0 0-.17.17v2.25c0 .04.02.09.05.12.03.03.07.03.12.03h1.68c.04 0 .08 0 .12-.03a.16.16 0 0 0 .04-.12V32.6Zm0 7.52a.13.13 0 0 0-.08-.12h-1.8a.13.13 0 0 0-.1.04.13.13 0 0 0-.02.04V42.43a.12.12 0 0 0 .04.09.13.13 0 0 0 .09.04l1.75-.01a.13.13 0 0 0 .12-.08V40.12Z" fill="#1E4D75"/><path d="M24 19.64v2.78c-3.99.6-7.05 2.38-9.18 5.35-.38.55-.44.51-.18-.1 1.76-3.98 4.89-6.66 9.36-8.03ZM32 24.18v-4.36a14.49 14.49 0 0 1 10 13.22c0 4.84-2.42 9.93-7.73 12.7-.44.23-.47.19-.1-.13a13.06 13.06 0 0 0 2.75-17.18A10.97 10.97 0 0 0 32 24.18Z" fill="#23B4E8"/><path d="m20.76 43.65-.74-1.13a.14.14 0 0 1-.02-.07v-9.82a.14.14 0 0 1 .06-.11l2.74-1.9a.13.13 0 0 1 .13 0l.05.05.02.07v14.02c0 .03 0 .05-.02.08a.13.13 0 0 1-.05.05.13.13 0 0 1-.14-.02l-.74-.7a.14.14 0 0 1-.05-.11V40a.14.14 0 0 0-.04-.1.95.95 0 0 0-.27-.04h-.56a.13.13 0 0 0-.1.04.14.14 0 0 0-.03.1v3.57c0 .03-.01.06-.03.08a.13.13 0 0 1-.07.05h-.08a.13.13 0 0 1-.06-.05Zm.45-9.73a.5.5 0 0 0-.16.19.54.54 0 0 0-.05.24v1.92c0 .11.05.17.15.17h.51c.1 0 .34-.06.34-.17V33.8c0-.22-.08-.26-.25-.15l-.54.26Zm.8 3.06c0-.05-.02-.1-.05-.13-.04-.03-.26-.05-.3-.05h-.48c-.05 0-.1.01-.13.05a.19.19 0 0 0-.05.13v2.1c0 .05.01.1.04.14.04.03.08.05.13.05h.62c.07 0 .21-.14.21-.18v-2.1ZM35.24 43.65l.74-1.13a.14.14 0 0 0 .02-.07v-9.82a.14.14 0 0 0-.06-.11l-2.74-1.9a.13.13 0 0 0-.13 0 .13.13 0 0 0-.05.05.14.14 0 0 0-.02.07v14.02c0 .03 0 .05.02.08l.05.05a.13.13 0 0 0 .14-.02l.74-.7a.14.14 0 0 0 .05-.11V40c0-.03.01-.07.04-.1a.95.95 0 0 1 .27-.04h.56c.04 0 .07.02.1.04.02.03.03.07.03.1v3.57c0 .03.01.06.03.08.02.03.04.04.07.05h.08a.13.13 0 0 0 .06-.05Zm-.45-9.73a.5.5 0 0 1 .16.19c.03.07.05.16.05.24v1.92c0 .11-.05.17-.15.17h-.51c-.1 0-.34-.06-.34-.17V33.8c0-.22.08-.26.25-.15l.54.26Zm-.8 3.06c0-.05.02-.1.05-.13.04-.03.26-.05.3-.05h.48c.05 0 .1.01.13.05.03.03.05.08.05.13v2.1c0 .05-.01.1-.04.14a.17.17 0 0 1-.13.05h-.62c-.07 0-.21-.14-.21-.18v-2.1Z" fill="#1E4D75"/></svg>