<!-- by TradingView --><svg width="56" height="56" viewBox="0 0 56 56" xmlns="http://www.w3.org/2000/svg"><path fill="#F0F3FA" d="M0 0h56v56H0z"/><path d="M43.87 32.25c-.16 0-.3.01-.4.03a.52.52 0 0 0-.25.11.6.6 0 0 0-.15.24c-.04.1-.07.23-.1.4h-.15l.04-1.03h3.22l.04 1.03h-.14a2.3 2.3 0 0 0-.11-.4.57.57 0 0 0-.15-.24.5.5 0 0 0-.25-.11c-.1-.02-.24-.03-.4-.03h-.3v3.1l.01.26c.01.07.04.12.08.16.04.04.1.07.16.09l.29.03V36h-1.66v-.11c.11 0 .2-.02.28-.03a.3.3 0 0 0 .16-.1c.04-.04.06-.1.07-.18l.02-.3v-3.03h-.31ZM42 36l-2.53-3.27v2.33l.02.37c.02.1.05.17.09.23.04.05.1.1.16.12.08.02.17.04.28.04v.11h-1.35v-.1l.28-.05a.3.3 0 0 0 .17-.12.5.5 0 0 0 .08-.23l.02-.37v-2.61c-.06-.07-.1-.13-.15-.17a.43.43 0 0 0-.24-.14.67.67 0 0 0-.16-.02V32h.98l2.2 2.88v-2c0-.37-.06-.59-.17-.67a.41.41 0 0 0-.14-.06 1.29 1.29 0 0 0-.24-.03V32h1.34v.12c-.1 0-.19.02-.24.04a.47.47 0 0 0-.13.06c-.12.08-.17.3-.17.65V36H42ZM38.27 36h-3.08v-.11c.1 0 .18-.02.25-.04a.29.29 0 0 0 .15-.08c.03-.04.06-.1.07-.16l.02-.26v-2.69c0-.1 0-.2-.02-.26a.29.29 0 0 0-.07-.16.32.32 0 0 0-.15-.08 1.3 1.3 0 0 0-.25-.04V32h3.03v.87h-.13a1.78 1.78 0 0 0-.09-.33.43.43 0 0 0-.14-.2.51.51 0 0 0-.25-.09 2.9 2.9 0 0 0-.39-.02h-.77c-.07 0-.13.02-.15.04-.03.02-.04.08-.04.17v1.34h.88c.11 0 .21 0 .28-.02a.36.36 0 0 0 .18-.08c.05-.05.08-.1.1-.18.03-.07.05-.17.07-.3h.13v1.4h-.13a2.17 2.17 0 0 0-.07-.3.37.37 0 0 0-.1-.17.33.33 0 0 0-.17-.08 1.6 1.6 0 0 0-.3-.02h-.87v1.49l.01.13c0 .03.02.05.04.06.02.02.09.04.19.05l.36.02h.16c.2 0 .38-.01.51-.03a.87.87 0 0 0 .62-.37c.07-.1.14-.24.21-.4h.17L38.27 36ZM32.42 36h-.08l-1.44-3.32v2.43c0 .16 0 .28.02.38.02.1.05.17.09.23.04.06.1.1.16.12.07.03.16.04.27.05V36H30.1v-.11c.12-.01.21-.03.28-.05a.3.3 0 0 0 .17-.12.51.51 0 0 0 .08-.23l.02-.38v-2.45l-.02-.26a.27.27 0 0 0-.08-.16.3.3 0 0 0-.16-.08 1.58 1.58 0 0 0-.28-.04V32h1.13l1.32 3.05L33.83 32h1.13v.12c-.1 0-.2.02-.26.04a.32.32 0 0 0-.15.08.31.31 0 0 0-.07.16l-.02.26v2.69l.02.26c.02.07.04.12.07.16.04.04.1.06.15.08l.26.04V36h-1.6v-.11c.11 0 .2-.02.27-.04a.3.3 0 0 0 .16-.09c.04-.04.06-.1.07-.18l.02-.3v-2.74L32.42 36ZM27.68 32.25c-.16 0-.29.01-.4.03a.52.52 0 0 0-.24.11.6.6 0 0 0-.16.24c-.03.1-.07.23-.1.4h-.14l.03-1.03h3.23l.03 1.03h-.14a2.3 2.3 0 0 0-.11-.4.57.57 0 0 0-.15-.24.5.5 0 0 0-.25-.11c-.1-.02-.24-.03-.4-.03h-.3v3.1l.01.26c.02.07.04.12.08.16.04.04.1.07.16.09l.29.03V36h-1.66v-.11c.11 0 .2-.02.28-.03a.3.3 0 0 0 .16-.1c.04-.04.06-.1.07-.18.02-.08.03-.18.03-.3v-3.03h-.32ZM26.04 33.24h-.14a3.06 3.06 0 0 0-.15-.4 1.98 1.98 0 0 0-.2-.28.93.93 0 0 0-.7-.32.64.64 0 0 0-.43.14.5.5 0 0 0-.16.39c0 .16.06.3.2.44.12.14.34.3.63.46.38.21.66.42.82.62a1 1 0 0 1-.08 1.4c-.1.1-.22.17-.37.23-.14.05-.3.08-.46.08-.11 0-.23-.01-.34-.03a1.43 1.43 0 0 1-.33-.1 1.25 1.25 0 0 0-.27-.07.14.14 0 0 0-.11.06.23.23 0 0 0-.05.13h-.13l-.17-1.23h.13c.15.36.3.62.5.79.18.16.4.24.66.24.2 0 .38-.06.5-.18a.6.6 0 0 0 .2-.46.71.71 0 0 0-.09-.35c-.06-.1-.17-.22-.32-.33a3.91 3.91 0 0 0-.52-.35c-.16-.09-.3-.17-.4-.25-.12-.09-.21-.18-.29-.27a.99.99 0 0 1-.2-.6c0-.33.1-.58.33-.76.1-.07.2-.13.3-.17a.92.92 0 0 1 .34-.07 1.93 1.93 0 0 1 .62.13l.14.05a.5.5 0 0 0 .11.01c.1 0 .16-.06.18-.19h.12l.13 1.24ZM23.03 36h-3.09v-.11c.1 0 .19-.02.25-.04a.29.29 0 0 0 .15-.08c.04-.04.07-.1.08-.16l.02-.26v-2.69c0-.1 0-.2-.02-.26a.29.29 0 0 0-.07-.16.32.32 0 0 0-.16-.08 1.3 1.3 0 0 0-.25-.04V32h3.04v.87h-.13a1.77 1.77 0 0 0-.09-.33.43.43 0 0 0-.14-.2.51.51 0 0 0-.25-.09 2.9 2.9 0 0 0-.39-.02h-.77c-.08 0-.13.02-.16.04a.25.25 0 0 0-.05.17v1.34h.9c.11 0 .2 0 .28-.02a.36.36 0 0 0 .18-.08c.04-.05.08-.1.1-.18.02-.07.05-.17.07-.3h.13v1.4h-.13a2.16 2.16 0 0 0-.07-.3.37.37 0 0 0-.1-.17.33.33 0 0 0-.17-.08 1.6 1.6 0 0 0-.3-.02H21v1.49c0 .06.02.1.03.13 0 .03.02.05.03.06.03.02.1.04.2.05l.36.02h.16c.2 0 .37-.01.51-.03a.87.87 0 0 0 .62-.37c.07-.1.14-.24.21-.4h.17L23.03 36ZM19.73 32.12a.75.75 0 0 0-.17.03.23.23 0 0 0-.12.07.69.69 0 0 0-.11.17l-.13.28L17.94 36h-.09l-1.4-3.26a4.15 4.15 0 0 0-.3-.5.28.28 0 0 0-.14-.1.5.5 0 0 0-.17-.02V32h1.52v.12h-.17c-.17.02-.26.08-.26.2v.08a3.33 3.33 0 0 0 .23.57l.87 2 .83-2.17a1.44 1.44 0 0 0 .12-.44l-.03-.09a.19.19 0 0 0-.06-.08.27.27 0 0 0-.12-.05l-.2-.02V32h1.16v.12ZM15.02 36l-2.53-3.27v2.33l.02.37c.02.1.05.17.09.23.04.05.1.1.16.12.07.02.16.04.27.04v.11H11.7v-.1l.28-.05a.3.3 0 0 0 .17-.12.5.5 0 0 0 .08-.23l.02-.37v-2.61c-.06-.07-.1-.13-.15-.17a.43.43 0 0 0-.24-.14.67.67 0 0 0-.16-.02V32h.98l2.2 2.88v-2c0-.37-.06-.59-.17-.67a.41.41 0 0 0-.14-.06 1.29 1.29 0 0 0-.24-.03V32h1.34v.12c-.1 0-.19.02-.24.04a.47.47 0 0 0-.13.06c-.12.08-.17.3-.17.65V36h-.1ZM10.42 32.66l-.02-.27a.27.27 0 0 0-.08-.16.33.33 0 0 0-.17-.08 2.32 2.32 0 0 0-.29-.03V32h1.7v.12c-.12 0-.22.02-.3.03a.33.33 0 0 0-.16.08.3.3 0 0 0-.08.17c-.02.06-.02.15-.02.26v2.69c0 .1 0 .2.02.27.01.07.04.12.08.16.04.04.1.06.17.08.08.02.17.03.29.03V36h-1.7v-.11c.12 0 .22-.01.3-.03a.33.33 0 0 0 .16-.08.3.3 0 0 0 .08-.16l.02-.27v-2.69ZM29.8 27.88l-.18.04a.46.46 0 0 0-.14.06.5.5 0 0 0-.11.09.94.94 0 0 0-.1.14l-.15.26a3.97 3.97 0 0 1-.26.4 11.24 11.24 0 0 1-.3.43c.26.33.55.5.87.5.1 0 .19-.02.26-.06a.92.92 0 0 0 .25-.23l.09.07c-.09.2-.2.34-.36.45a.83.83 0 0 1-.5.17c-.17 0-.33-.04-.48-.12-.15-.08-.31-.2-.5-.39a3 3 0 0 1-.6.4l-.3.08c-.1.02-.22.03-.33.03-.3 0-.55-.08-.72-.23a.78.78 0 0 1-.26-.62c0-.23.08-.44.22-.64.15-.2.38-.38.68-.55l.22-.12a21.61 21.61 0 0 1-.16-.48 2.02 2.02 0 0 1-.03-.17l-.01-.17a.81.81 0 0 1 .54-.77.95.95 0 0 1 .65-.02c.1.03.18.08.24.14.07.06.13.13.16.21a.6.6 0 0 1 .06.27.74.74 0 0 1-.2.51 1.4 1.4 0 0 1-.27.22l-.42.22a8.87 8.87 0 0 0 .54.87l.22.27c.18-.24.32-.43.4-.59.08-.16.12-.3.12-.42 0-.08-.03-.14-.08-.17a.68.68 0 0 0-.3-.08v-.11h1.24v.11Zm-2.23-.06c.23-.12.4-.24.51-.36a.64.64 0 0 0 .17-.43.45.45 0 0 0-.46-.47.43.43 0 0 0-.32.12.43.43 0 0 0-.12.32 1.77 1.77 0 0 0 .04.38 7.2 7.2 0 0 0 .18.44Zm-.39.4-.31.23c-.1.07-.16.14-.21.2a.71.71 0 0 0-.12.23.85.85 0 0 0 .02.56.82.82 0 0 0 .4.42.87.87 0 0 0 .65-.02c.12-.07.27-.16.44-.29a11.32 11.32 0 0 1-.43-.57 17.72 17.72 0 0 1-.44-.75ZM49.3 25l-2.53-3.27v2.33c0 .15 0 .28.02.37.02.1.05.17.09.23.04.05.1.1.16.12.07.02.16.04.27.04v.11h-1.34v-.1l.28-.05a.3.3 0 0 0 .17-.12.5.5 0 0 0 .08-.23l.02-.37v-2.61c-.06-.07-.1-.13-.15-.17a.43.43 0 0 0-.24-.14.67.67 0 0 0-.16-.02V21h.98l2.2 2.88v-2c0-.37-.06-.59-.17-.67a.41.41 0 0 0-.15-.06 1.28 1.28 0 0 0-.23-.03V21H50v.12c-.1 0-.25.02-.3.04a.47.47 0 0 0-.14.06c-.1.08-.17.3-.17.65V25h-.09ZM43.87 21a1.8 1.8 0 0 1 1.72 1.26c.08.23.11.47.11.74 0 .3-.04.56-.14.81a1.82 1.82 0 0 1-.97 1.04c-.23.1-.48.15-.75.15-.28 0-.53-.05-.76-.15a1.71 1.71 0 0 1-.97-1.05 2.38 2.38 0 0 1 0-1.62 1.83 1.83 0 0 1 .99-1.03c.23-.1.49-.15.77-.15Zm-.05.2c-.16 0-.3.04-.45.12a1.14 1.14 0 0 0-.53.55 2.6 2.6 0 0 0-.2.72 3.32 3.32 0 0 0 .12 1.33c.09.27.21.48.37.61.2.18.44.26.71.26a1.02 1.02 0 0 0 .75-.3c.3-.32.46-.82.46-1.52 0-.34-.04-.64-.14-.9a1.38 1.38 0 0 0-.38-.6 1.08 1.08 0 0 0-.71-.27ZM40.52 21.66c0-.11 0-.2-.02-.27a.27.27 0 0 0-.07-.16.33.33 0 0 0-.17-.08 2.31 2.31 0 0 0-.3-.03V21h1.7v.12c-.11 0-.21.02-.28.03a.33.33 0 0 0-.17.08.3.3 0 0 0-.08.17 1.4 1.4 0 0 0-.03.26v2.69c0 .1.01.2.03.27.01.07.04.12.08.16.04.04.1.06.17.08.07.02.17.03.29.03V25h-1.7v-.11c.12 0 .22-.01.29-.03a.33.33 0 0 0 .16-.08.3.3 0 0 0 .08-.16c.02-.07.02-.16.02-.27v-2.69ZM37.52 21.25c-.16 0-.3.01-.4.03a.52.52 0 0 0-.24.11.6.6 0 0 0-.16.24c-.04.1-.07.23-.1.4h-.15l.04-1.03h3.22l.04 1.03h-.14a2.3 2.3 0 0 0-.11-.4.57.57 0 0 0-.15-.24.5.5 0 0 0-.25-.11c-.1-.02-.24-.03-.4-.03h-.3v3.1l.01.26c.02.07.04.12.08.16.04.04.1.07.16.09l.29.03V25H37.3v-.11c.11 0 .2-.02.28-.03a.3.3 0 0 0 .16-.1c.04-.04.06-.1.07-.18l.02-.3v-3.03h-.3ZM35.98 22.3a2.58 2.58 0 0 0-.16-.43 1.43 1.43 0 0 0-.22-.29c-.11-.11-.24-.2-.39-.26-.14-.06-.3-.1-.46-.1a1.23 1.23 0 0 0-1 .47c-.11.16-.2.34-.26.56a2.66 2.66 0 0 0 .04 1.6c.09.25.21.45.38.6.25.2.55.3.9.3.23 0 .45-.05.65-.14.2-.1.41-.24.62-.45l.1.1c-.17.24-.4.42-.66.55-.27.13-.57.19-.9.19-.28 0-.54-.05-.77-.14a1.76 1.76 0 0 1-.99-1.02c-.09-.24-.14-.5-.14-.8 0-.34.06-.64.17-.9.12-.28.29-.5.5-.69a1.96 1.96 0 0 1 1.25-.45c.28 0 .56.05.84.14.1.04.17.05.22.05.06 0 .1-.01.15-.05a.26.26 0 0 0 .09-.14h.12l.05 1.3h-.13ZM31.93 23.41c0 .23-.01.42-.04.57-.03.15-.07.29-.14.41-.23.4-.66.61-1.28.61-.49 0-.85-.12-1.08-.37-.24-.24-.35-.62-.35-1.14v-1.84l-.02-.26a.28.28 0 0 0-.07-.16.27.27 0 0 0-.15-.07 1.49 1.49 0 0 0-.27-.04V21h1.61v.12c-.11 0-.2.02-.28.04a.3.3 0 0 0-.15.08.3.3 0 0 0-.08.15l-.01.26v1.89c0 .19 0 .34.03.46s.06.23.11.32c.16.28.44.42.84.42.22 0 .41-.04.58-.12a.8.8 0 0 0 .37-.34c.05-.1.08-.2.1-.32.02-.13.03-.29.03-.5v-1.59c0-.15 0-.27-.02-.36a.5.5 0 0 0-.08-.23.3.3 0 0 0-.16-.11.98.98 0 0 0-.27-.05V21h1.32v.12a1.5 1.5 0 0 0-.28.06.34.34 0 0 0-.17.11.5.5 0 0 0-.07.22l-.02.36v1.54ZM28.4 25h-.92l-1.36-1.86-.32.01v1.2c0 .1 0 .2.02.26.01.07.04.12.07.16.04.04.09.07.16.09l.26.03V25h-1.58v-.11l.26-.04a.27.27 0 0 0 .15-.1c.03-.04.05-.1.06-.17l.02-.3v-2.62c0-.1 0-.19-.02-.25a.3.3 0 0 0-.06-.16.29.29 0 0 0-.15-.09 1.57 1.57 0 0 0-.26-.04V21h1.58c.28 0 .53.04.75.12.22.08.39.19.5.32.06.08.12.18.15.28.03.11.05.23.05.35 0 .27-.08.5-.25.65-.16.16-.42.28-.78.35l1.17 1.54c.08.1.16.17.23.2.07.04.16.07.27.08V25Zm-2.6-2.07a7.5 7.5 0 0 0 .6-.05 1.51 1.51 0 0 0 .41-.16.6.6 0 0 0 .24-.26.94.94 0 0 0 .09-.4c0-.3-.09-.5-.26-.63-.16-.14-.43-.2-.8-.2-.11 0-.19.01-.22.05-.04.02-.06.08-.06.16v1.5ZM22.29 21.25c-.16 0-.3.01-.4.03a.52.52 0 0 0-.25.11.6.6 0 0 0-.15.24c-.04.1-.07.23-.1.4h-.15l.04-1.03h3.22l.04 1.03h-.14a2.3 2.3 0 0 0-.11-.4.57.57 0 0 0-.15-.24.5.5 0 0 0-.25-.11c-.1-.02-.24-.03-.4-.03h-.31v3.1c0 .1 0 .2.02.26.01.07.04.12.07.16.04.04.1.07.17.09l.29.03V25h-1.67v-.11c.12 0 .21-.02.28-.03a.3.3 0 0 0 .16-.1c.04-.04.07-.1.08-.18l.02-.3v-3.03h-.31ZM20.65 22.24h-.14a3 3 0 0 0-.15-.4 1.95 1.95 0 0 0-.2-.28.93.93 0 0 0-.7-.32.64.64 0 0 0-.44.14.5.5 0 0 0-.16.39c0 .16.07.3.2.44s.34.3.64.46c.38.21.65.42.82.62a.99.99 0 0 1-.08 1.4c-.1.1-.23.17-.37.23-.14.05-.3.08-.46.08-.12 0-.23-.01-.34-.03a1.43 1.43 0 0 1-.34-.1 1.25 1.25 0 0 0-.27-.07.14.14 0 0 0-.1.06.24.24 0 0 0-.06.13h-.12l-.17-1.23h.13c.14.36.3.62.49.79.18.16.4.24.67.24.2 0 .37-.06.5-.18a.6.6 0 0 0 .2-.46.71.71 0 0 0-.09-.35c-.07-.1-.17-.22-.32-.33a3.91 3.91 0 0 0-.52-.35c-.16-.09-.3-.17-.41-.25-.11-.09-.2-.18-.28-.27a1 1 0 0 1-.16-.28 1 1 0 0 1-.05-.32c0-.33.11-.58.33-.76.1-.07.2-.13.31-.17a.92.92 0 0 1 .34-.07 1.93 1.93 0 0 1 .62.13l.14.05a.5.5 0 0 0 .11.01c.1 0 .15-.06.18-.19h.12l.13 1.24ZM17.24 25l-2.52-3.27v2.33l.01.37c.02.1.05.17.09.23.04.05.1.1.17.12.07.02.16.04.27.04v.11H13.9v-.1l.28-.05a.3.3 0 0 0 .17-.12.5.5 0 0 0 .08-.23l.02-.37v-2.61c-.06-.07-.1-.13-.15-.17a.43.43 0 0 0-.24-.14.67.67 0 0 0-.16-.02V21h.98l2.2 2.88v-2c0-.37-.06-.59-.17-.67a.41.41 0 0 0-.14-.06 1.29 1.29 0 0 0-.24-.03V21h1.34v.12c-.1 0-.19.02-.24.04a.47.47 0 0 0-.13.06c-.12.08-.17.3-.17.65V25h-.1ZM11.81 21a1.8 1.8 0 0 1 1.72 1.26 2.28 2.28 0 0 1-.03 1.56 1.82 1.82 0 0 1-.97 1.03c-.22.1-.48.15-.75.15-.28 0-.53-.05-.76-.15a1.71 1.71 0 0 1-.97-1.05 2.38 2.38 0 0 1 0-1.62 1.83 1.83 0 0 1 .99-1.03c.23-.1.5-.15.77-.15Zm-.05.2c-.16 0-.3.04-.45.12a1.15 1.15 0 0 0-.53.55 2.63 2.63 0 0 0-.22 1.12c0 .35.05.66.14.93.09.27.22.48.38.61.2.18.43.26.7.26a1.02 1.02 0 0 0 .75-.3c.31-.32.47-.82.47-1.52 0-.34-.05-.64-.14-.9a1.38 1.38 0 0 0-.38-.6 1.08 1.08 0 0 0-.72-.27ZM9.26 22.3a2.59 2.59 0 0 0-.17-.43 1.42 1.42 0 0 0-.22-.29 1.16 1.16 0 0 0-.85-.36 1.23 1.23 0 0 0-1 .47c-.1.16-.2.34-.26.56a2.66 2.66 0 0 0 .04 1.6c.1.25.22.45.39.6.25.2.55.3.9.3.23 0 .45-.05.65-.14.2-.1.4-.24.62-.45l.1.1c-.17.24-.4.42-.67.55-.26.13-.56.19-.89.19-.28 0-.54-.05-.77-.14a1.76 1.76 0 0 1-1-1.02c-.08-.24-.13-.5-.13-.8 0-.34.06-.64.17-.9.11-.28.28-.5.5-.69A1.96 1.96 0 0 1 7.91 21c.29 0 .57.05.84.14.1.04.17.05.23.05s.1-.01.14-.05a.26.26 0 0 0 .1-.14h.11l.06 1.3h-.13Z" fill="#363493"/></svg>