<!-- by TradingView --><svg width="56" height="56" viewBox="0 0 56 56" xmlns="http://www.w3.org/2000/svg"><path fill="#F0F3FA" d="M0 0h56v56H0z"/><path d="M28.04 10a16 16 0 0 1 5.84 1.09.1.1 0 0 1-.03.15 11 11 0 0 1-5.78 1.58 11.03 11.03 0 0 1-5.86-1.51.1.1 0 0 1 .06-.15A15.98 15.98 0 0 1 28.04 10ZM37.53 13.13l-.95.58a.26.26 0 0 1-.32-.04 14.53 14.53 0 0 0-2.34-2.04c-.05-.04-.06-.08-.04-.14.1-.25.3-.31.57-.2 1.06.43 2.07 1 3.04 1.72.03.02.05.05.06.09a.03.03 0 0 1-.02.03ZM22.04 11.55c-.88.62-1.71 1.37-2.43 2.14-.08.09-.18.1-.28.03l-.6-.39c-.12-.07-.12-.14 0-.22a15.57 15.57 0 0 1 3.08-1.74c.1-.04.17-.06.2-.04a.12.12 0 0 1 .09.1l-.01.07a.14.14 0 0 1-.05.05ZM22.12 11.72a.29.29 0 0 1 .29-.03l1.08.5a.1.1 0 0 1 .06.06.1.1 0 0 1-.02.09c-.56.69-1.04 1.45-1.43 2.28a.26.26 0 0 1-.33.13l-1.95-.78a.1.1 0 0 1-.06-.06.1.1 0 0 1 .02-.09 12.9 12.9 0 0 1 2.34-2.1ZM33.76 11.74a12.87 12.87 0 0 1 2.38 2.12.1.1 0 0 1-.02.08.1.1 0 0 1-.03.03l-1.95.79a.26.26 0 0 1-.33-.13 11.52 11.52 0 0 0-1.47-2.31.1.1 0 0 1 .02-.09.1.1 0 0 1 .03-.03l1.08-.49a.29.29 0 0 1 .29.03ZM23.54 12.64l.22-.24c.05-.04.1-.05.16-.03l1.7.46a.07.07 0 0 1 .05.03.07.07 0 0 1 0 .06l-.46 1.31a.13.13 0 0 1-.1.09 12.3 12.3 0 0 0-2.77.6.12.12 0 0 1-.08-.17c.34-.75.77-1.45 1.28-2.11ZM33.43 14.61l-2.7-.4a.12.12 0 0 1-.1-.08l-.4-1.13a.14.14 0 0 1 .1-.18l1.65-.45a.22.22 0 0 1 .22.08 13.17 13.17 0 0 1 1.33 2.08.09.09 0 0 1-.05.07l-.05.01ZM27.93 13.02c.7 0 1.36-.05 1.95-.15.07 0 .11.02.13.08l.38 1.18a.1.1 0 0 1-.02.09.1.1 0 0 1-.1.04 21.2 21.2 0 0 0-2.34-.09 21.58 21.58 0 0 0-2.4.1.1.1 0 0 1-.06-.12l.36-1.18c.02-.07.07-.1.13-.08.6.09 1.26.13 1.96.13ZM36.64 13.89l1.05-.64a.14.14 0 0 1 .15 0 14.1 14.1 0 0 1 2.87 2.85c.07.1.05.17-.05.22l-1.89.94c-.06.03-.1.02-.13-.04a15.12 15.12 0 0 0-2.06-3.2.12.12 0 0 1 .02-.1.13.13 0 0 1 .04-.03ZM18.5 13.37c.15.21.54.4.79.52.07.04.08.09.03.15-.81.97-1.5 2-2.03 3.12-.05.09-.11.1-.2.06l-1.52-.87a.1.1 0 0 1-.04-.06.1.1 0 0 1 .01-.07 16.8 16.8 0 0 1 2.84-2.86c.04-.04.08-.04.12.01ZM19.6 14.1l2.24.87a.11.11 0 0 1 .06.1.1.1 0 0 1-.05.1c-1.42.76-1.58 1.7-1.19 3.14a.08.08 0 0 1-.02.08.08.08 0 0 1-.08.02 21.54 21.54 0 0 1-3.02-1.05.19.19 0 0 1-.03-.22 17.05 17.05 0 0 1 2.04-3.05h.05ZM36.77 16.67c.11-1.02-1.26-1.52-2.02-1.72-.22-.06-.23-.14-.01-.23l1.44-.6a.25.25 0 0 1 .29.08 15.7 15.7 0 0 1 2 3.12.12.12 0 0 1-.08.12c-.99.4-2 .74-3.04 1-.04.02-.06 0-.08-.03a.1.1 0 0 1 0-.04c0-.02.01-.04.03-.04.74-.37 1.38-.82 1.47-1.66ZM29.95 17.13c-.4-.16-.98-.32-1.75-.46-.65-.13-.56-1.07-.48-1.45.07-.28.3-.43.69-.42 1.56.01 3.16.2 4.8.59.42.1 1.3.32 1.13.86-.06.2-.34.38-.53.42-1 .2-1.87.46-2.6.75a.74.74 0 0 1-.57 0l-.7-.29Zm.3-1.6c.01-.04 0-.08-.03-.12a.44.44 0 0 0-.13-.1 1.45 1.45 0 0 0-.93-.11.45.45 0 0 0-.16.06.16.16 0 0 0-.06.1c0 .04 0 .08.04.12.02.04.07.08.13.11.06.04.13.07.2.09a1.45 1.45 0 0 0 .73.03.44.44 0 0 0 .15-.08.16.16 0 0 0 .07-.1Zm1.25.34a.18.18 0 0 0 .02-.1.25.25 0 0 0-.04-.1.38.38 0 0 0-.08-.09.48.48 0 0 0-.36-.1.26.26 0 0 0-.1.03.18.18 0 0 0-.08.17c0 .03.01.07.03.1l.08.1a.48.48 0 0 0 .37.1c.04 0 .07-.01.1-.03a.18.18 0 0 0 .06-.08ZM25.75 17.34c-.04 0-.08 0-.12-.03a.15.15 0 0 1-.05-.1l-.14-1.56c-.01-.2.01-.39.08-.54.07-.14.17-.23.28-.24h.11c.11-.02.23.05.32.19.09.13.15.31.16.5l.14 1.56a.15.15 0 0 1-.04.12.16.16 0 0 1-.1.05l-.64.05ZM24.43 17.98a.29.29 0 0 1-.36-.16l-.65-1.65c-.04-.1-.06-.2-.07-.3 0-.1 0-.19.02-.27a.57.57 0 0 1 .1-.22.4.4 0 0 1 .18-.13l.1-.03c.13-.06.29-.03.43.07.15.1.28.26.35.46l.65 1.65a.27.27 0 0 1-.17.36l-.58.22ZM21.98 16.14l-.19.12a.5.5 0 0 0-.15.7l1.02 1.57c.16.23.48.3.72.15l.19-.12a.5.5 0 0 0 .15-.7l-1.03-1.57a.52.52 0 0 0-.71-.15ZM42.83 20.04c-.88.5-1.74.89-2.58 1.16-.1.04-.17 0-.2-.1-.27-1.2-.67-2.35-1.19-3.43a.13.13 0 0 1 .05-.17l1.88-1.15a.1.1 0 0 1 .15.03 18.07 18.07 0 0 1 1.93 3.59l-.01.04-.03.03ZM17.1 17.43a.06.06 0 0 1 .02.09c-.54 1.13-.99 2.37-1.33 3.7 0 .04-.03.05-.07.04l-2.22-.99a.16.16 0 0 1-.08-.2c.49-1.23 1.12-2.4 1.89-3.5a.14.14 0 0 1 .19-.04l1.6.9Z" fill="#2E3893"/><path d="M35.23 18.02c-.82.21-2.1.55-3 .28-.3-.1-.32-.2-.02-.34 1.07-.5 2.66-1.08 3.88-1a.19.19 0 0 1 .15.09.18.18 0 0 1 0 .17c-.22.42-.56.68-1.01.8ZM19.81 22.4l-3.84-1.05a.05.05 0 0 1-.03-.02l-.01-.02v-.02l1.31-3.73.03-.03h.04l3.23 1.1.03.03v.04l-.69 3.66v.02a.05.05 0 0 1-.07.02ZM39.81 21.4l-3.63.97a.17.17 0 0 1-.14-.02.17.17 0 0 1-.07-.1l-.63-3.41c0-.04 0-.09.02-.12a.17.17 0 0 1 .1-.07l3.07-1.03a.17.17 0 0 1 .12.01c.04.02.08.05.09.1l1.19 3.45a.17.17 0 0 1-.12.22ZM28.96 18.7c.6 0 1.08-.16 1.08-.36 0-.2-.48-.36-1.08-.36-.6 0-1.08.16-1.08.36 0 .2.49.37 1.08.37ZM22.05 19.45c.38.07.73-.05.77-.27.04-.22-.23-.46-.62-.53s-.73.05-.78.27c-.04.22.24.46.63.53ZM31.58 18.75a.04.04 0 0 1 0-.03l.02-.01h.04c.46-.02.9-.01 1.22.01.32.03.5.07.5.12 0 .05-.17.1-.5.14-.31.05-.75.08-1.2.1h-.05a.04.04 0 0 1-.02-.04l-.01-.3ZM35.67 22.47l-3.6.5a.12.12 0 0 1-.14-.12l-.27-3.4a.12.12 0 0 1 .1-.13l3.24-.58a.13.13 0 0 1 .12.06l.02.04.64 3.49a.12.12 0 0 1-.06.13.13.13 0 0 1-.05.01ZM29.82 19.25c-.19 0-.28-.03-.28-.07l1.59-.47a.2.2 0 0 1 .27.18v.05c0 .05 0 .1-.04.14a.18.18 0 0 1-.13.06l-1.41.11ZM28.7 19.18c.02.06-.09.11-.33.13l-3.32-.1a.09.09 0 0 1-.08-.06.09.09 0 0 1 .03-.1l.08-.06.02-.02h.01c1.53-.04 2.73.03 3.59.2ZM20.16 22.31c.14-1.17.32-2.18.52-3.02.07-.27.14-.27.21 0 .29 1.02.69 2.1 1.44 2.79.27.24.54.38.93.63.27.17.25.23-.06.18l-2.93-.43c-.09-.01-.13-.06-.11-.15ZM28.77 19.5l.95-.05 1.5-.11a.21.21 0 0 1 .21.1.2.2 0 0 1 .03.09l.27 3.36a.1.1 0 0 1-.09.1 59.9 59.9 0 0 1-6.95.02.07.07 0 0 1-.02-.04.07.07 0 0 1 .04-.08c.35-.13.68-.31 1-.53.47-.31 1.67-.01 2-.01.88 0 1.77-.37 2.21-1.16a12.9 12.9 0 0 0 .37-.75.2.2 0 0 0-.09-.17.2.2 0 0 0-.09-.03c-.3-.03-.58.01-.84.12-.75.34-1.93.96-2.78.72a2.85 2.85 0 0 1-1.82-1.48c-.05-.1-.03-.19.06-.26a.13.13 0 0 1 .13-.02l.27.09c1.22.08 2.43.11 3.64.09ZM23.21 20.05l-.68.14a.36.36 0 0 0-.28.43l.02.12c.04.2.24.32.44.28l.68-.14c.2-.04.33-.23.28-.43l-.02-.12a.37.37 0 0 0-.44-.28Z" fill="#2E3893"/><path d="M24.65 28.47c0-.02-.02-.02-.03-.02-.38 0-.7-.06-1.11 0-1.22.14-2.3.31-3.28.5-.08.01-.12-.02-.12-.1l-.05-.56c0-.04-.02-.05-.06-.05h-.08c-.05 0-.08.04-.07.08l.04.57c.01.08-.03.12-.1.14a27.68 27.68 0 0 0-3.75 1.01.14.14 0 0 1-.12-.11l-.25-1.33a.12.12 0 0 0-.11-.1h-.05c-.05 0-.07.02-.06.07l.27 1.48c.02.07-.01.12-.08.15-.6.25-1.16.51-1.7.79a2.34 2.34 0 0 0-.54.35h-.04a.07.07 0 0 1-.04-.05l-.65-2.04a.06.06 0 0 0-.04-.05.07.07 0 0 0-.06 0l-.57.35a.13.13 0 0 1-.11 0 .12.12 0 0 1-.07-.09 54.85 54.85 0 0 0-.95-5.38c-.02-.07.01-.11.08-.12l1.4-.25a.15.15 0 0 0 .12-.13 15.87 15.87 0 0 1 .81-3.12.1.1 0 0 1 .12-.03l2.3 1.02.02.02v.03l-.21 1.42c-.02.08.02.1.09.07l.07-.03.04-.02.01-.04.18-1.17a.17.17 0 0 1 .08-.12.18.18 0 0 1 .14-.02l3.74 1.02h.02l.01.03.04.13c.01.03.03.05.05.06h.04c.02 0 .03-.01.03-.03l.04-.09c.03-.05.07-.07.13-.06.5.09 1.08.18 1.74.27.68.1 1.6.14 2.42.25l.96.1a43.5 43.5 0 0 0 6.33-.08.12.12 0 0 1 .07.06l.01.05v1.1c0 .08.04.11.1.1l.07-.01.03-.02.01-.03v-1.2l.02-.05a.07.07 0 0 1 .05-.02l3.68-.5a.05.05 0 0 1 .06.04l.14 1.77c0 .05.03.07.08.07l.08-.01c.04 0 .05-.03.05-.06l-.15-1.81c0-.03 0-.05.02-.07a.1.1 0 0 1 .07-.04 34.56 34.56 0 0 0 3.8-1l.06.02a.14.14 0 0 1 .06.1l.35 2.18c0 .02.02.03.04.02l.1-.01a.1.1 0 0 0 .08-.08.1.1 0 0 0 0-.04l-.4-2.13c0-.05 0-.1.03-.14a.22.22 0 0 1 .12-.1 13.28 13.28 0 0 0 2.63-1.17.1.1 0 0 1 .08.03.1.1 0 0 1 .02.04l.67 2.1c.01.04.03.05.06.05h.17c.07.01.11.05.13.11l1.72 5.42V28l-.03.02-1.97.81a.2.2 0 0 0-.12.16 12.87 12.87 0 0 1-.63 2.31h-.04a1.1 1.1 0 0 0-.27-.2 23.2 23.2 0 0 0-2.4-1.1c-.06-.02-.08-.07-.08-.13l.03-.31c0-.03 0-.04-.04-.05h-.05c-.02-.01-.04 0-.05.02l-.12.25c-.02.05-.06.07-.11.06-.2-.05-.45-.11-.73-.2a.43.43 0 0 0-.3 0c-.1.04-.1.09.03.12l.87.27c.13.03.18.13.15.27a17.58 17.58 0 0 1-1.11 3.4.21.21 0 0 1-.17.12c-.28.02-.57 0-.87-.1-.73-.3-1.51-.51-2.32-.66a.11.11 0 0 1-.07-.05.1.1 0 0 1-.02-.08l.58-3.05c0-.04-.01-.06-.05-.06l-.06-.01c-.07-.01-.12.02-.13.1l-.57 2.98c0 .03-.03.05-.07.04l-3.31-.48a.1.1 0 0 1-.07-.04.1.1 0 0 1-.02-.07l.24-2.64c0-.06-.02-.09-.08-.09h-.06c-.01 0-.03 0-.05.02a.07.07 0 0 0-.02.05l-.24 2.64a.1.1 0 0 1-.03.07.1.1 0 0 1-.07.02l-3.32-.13a.08.08 0 0 1-.06-.04.08.08 0 0 1 0-.07l.4-.9c.04-.09.02-.16-.06-.21l-.06-.03c-.08-.06-.14-.04-.18.05l-.36.8c-.1.23-.17.22-.17-.04l-.02-2.79c0-.09-.05-.14-.14-.15l-.09-.02c-.1-.01-.14.03-.14.12-.01 1 0 1.88.04 2.65.03.59-.07.6-.28.06a14.97 14.97 0 0 0-.36-.76.12.12 0 0 0-.14 0l-.07.04c-.06.03-.07.08-.04.14l.54 1.04a.1.1 0 0 1 0 .09.1.1 0 0 1-.08.05l-2.12.17a.19.19 0 0 1-.18-.1.18.18 0 0 1-.02-.07l-.28-3.57c0-.05.02-.09.07-.1l.4-.13c.02 0 .03-.02.02-.04ZM11.95 24c-.18.05-.37.05-.56.08a.2.2 0 0 0-.12.08.19.19 0 0 0-.03.14l.82 4.48a.3.3 0 0 0 .14.2.32.32 0 0 0 .26.04c.67-.19 1.53-.42 2.56-.68.36-.1.66-.15.9-.15.31 0 .62-.03.92-.07.55-.07 1.62-.01 2.34-.1.32-.05.64-.05.97-.02.41.04.91.05 1.5.03.14 0 .44.03.9.11.5.1.95-.04 1.52.05.68.1 1.21.2 1.61.3.3.06.64.04.95.09l.65.06c.36.03.63.22.95.27 1.22.19 2.28.34 3.18.44.23.03.48.12.7.14 1.04.08 2.05.12 3.05.11l1.42.04c.48.01.95-.01 1.42-.07l1.64-.2a18.1 18.1 0 0 0 2.4-.35c1.13-.25 2.02-.62 3.29-1.08a.18.18 0 0 0 .1-.09.17.17 0 0 0 0-.13l-1.52-4.8c-.04-.13-.12-.16-.24-.12-.67.27-1.3.62-2.1.91-.6.22-1 .36-1.2.4a37.6 37.6 0 0 1-3.27.57c-1.67.22-3.51.13-5.26.07a54.37 54.37 0 0 1-5.24-.87c-1.6-.37-3.3-.55-4.72-.73-.88-.11-2.04-.02-2.84-.05-2.46-.06-4.82.24-7.1.9Z" fill="#2E3893"/><path d="M24.17 22.14c.38-.14.61-.45.52-.69-.1-.24-.47-.31-.85-.17-.38.14-.6.45-.52.69.1.23.48.31.85.17Z" fill="#2E3893"/><path d="M11.94 23.99c2.28-.66 4.64-.96 7.1-.9.8.03 1.96-.06 2.84.05 1.41.18 3.11.36 4.72.73a54.2 54.2 0 0 0 5.23.87c1.76.06 3.6.15 5.27-.07a37.6 37.6 0 0 0 3.27-.57c.2-.04.6-.18 1.2-.4.8-.29 1.43-.64 2.1-.9.12-.05.2-.02.24.1l1.53 4.81c.01.05 0 .1-.01.13a.18.18 0 0 1-.1.1c-1.27.45-2.16.82-3.28 1.07-.79.17-1.59.3-2.41.36-.26.02-.8.08-1.64.19-.47.06-.94.08-1.42.07a72.5 72.5 0 0 0-1.42-.04c-1 0-2.02-.03-3.05-.11-.22-.02-.47-.1-.7-.14-.9-.1-1.96-.25-3.18-.44-.32-.05-.6-.24-.95-.27a47.3 47.3 0 0 1-.65-.06c-.3-.05-.65-.03-.95-.1-.4-.08-.93-.18-1.6-.29-.58-.1-1.03.04-1.54-.05a5.23 5.23 0 0 0-.9-.11c-.58.02-1.08.01-1.5-.03a4.08 4.08 0 0 0-.96.01c-.72.1-1.79.04-2.34.11-.3.04-.6.06-.92.07-.24 0-.54.05-.9.15-1.03.26-1.89.5-2.56.68a.32.32 0 0 1-.35-.12.3.3 0 0 1-.05-.12l-.82-4.48c-.01-.05 0-.1.03-.14a.2.2 0 0 1 .12-.08c.18-.03.38-.03.55-.08Zm5.8.77a.8.8 0 0 1 1.27.27c.03.05.07.07.12.07h.42c.07 0 .1-.03.1-.1-.06-.9-1.1-1.18-1.84-.97-.96.26-1.22 1.62-.1 1.9.34.1 1.02.18 1.25.42a.34.34 0 0 1 .04.43.34.34 0 0 1-.12.1c-.34.19-.7.18-1.07-.02a.21.21 0 0 1-.1-.12c-.1-.28-.35-.39-.74-.31a.1.1 0 0 0-.07.1c.19 1.11 1.53 1.22 2.36.8.43-.22.69-.97.33-1.38-.52-.6-1.8-.38-1.95-.93-.03-.1 0-.19.1-.26Zm5.07 1.03a.1.1 0 0 0-.03-.07.11.11 0 0 0-.07-.04l-1.45-.13a.11.11 0 0 1-.07-.04.1.1 0 0 1-.03-.07l.02-.5a.1.1 0 0 1 .03-.08.11.11 0 0 1 .08-.03l1.64.06c.03 0 .06 0 .08-.02a.1.1 0 0 0 .03-.07l.03-.33a.1.1 0 0 0-.06-.1.11.11 0 0 0-.04-.02l-2.29-.2a.11.11 0 0 0-.08.02.1.1 0 0 0-.04.08l-.3 3.22a.1.1 0 0 0 .03.08.11.11 0 0 0 .08.04l2.42.1c.03 0 .06-.01.08-.03a.1.1 0 0 0 .04-.07l.02-.31a.1.1 0 0 0-.05-.1.11.11 0 0 0-.05-.02l-1.68-.15a.11.11 0 0 1-.08-.03.1.1 0 0 1-.02-.08l.02-.7a.1.1 0 0 1 .04-.07.11.11 0 0 1 .08-.02l1.49.13a.11.11 0 0 0 .08-.03.1.1 0 0 0 .03-.08l.02-.34Zm2.1 1.5.52.08c.09.03.14.06.14.08l.12.56c.01.07.06.1.13.12l.5.07c.05 0 .07-.01.06-.06l-.6-3.29a.21.21 0 0 0-.17-.17 2.99 2.99 0 0 0-.64-.08.22.22 0 0 0-.2.11l-1.5 3c-.01.05 0 .07.05.08l.5.06c.07.01.13-.01.16-.08l.27-.5c.01-.02.06-.04.15-.04l.52.06Zm4.35-.63a.13.13 0 0 1-.1-.1v-.04l.1-.54c0-.03.02-.05.05-.07a.13.13 0 0 1 .09-.03l1.49.22c.03 0 .06 0 .09-.02a.12.12 0 0 0 .05-.08l.04-.3c0-.03 0-.06-.02-.08a.13.13 0 0 0-.08-.05l-2.15-.4a.13.13 0 0 0-.15.1l-.59 3.1a.12.12 0 0 0 .06.12l.04.02.47.07c.03 0 .06 0 .09-.03a.12.12 0 0 0 .05-.07l.22-1.15c0-.04.02-.06.05-.08a.13.13 0 0 1 .09-.02l1.27.18c.03 0 .07 0 .1-.02a.12.12 0 0 0 .04-.08l.04-.28c0-.03 0-.06-.02-.09a.13.13 0 0 0-.08-.05l-1.24-.23Zm9.56-1 .7 3.05a.13.13 0 0 0 .05.09.14.14 0 0 0 .1.01l1.33-.29a1.39 1.39 0 0 0 .89-.63 1.44 1.44 0 0 0 .18-1.1l-.1-.47c-.1-.37-.32-.7-.64-.91-.32-.2-.71-.28-1.08-.2l-1.32.3a.14.14 0 0 0-.1.1v.06ZM38.44 27a1.51 1.51 0 0 0-1.58-1.4h-.27c-.4.03-.77.2-1.04.5-.27.29-.4.67-.39 1.06l.03.58a1.51 1.51 0 0 0 1.58 1.4h.28c.4-.03.77-.2 1.03-.5.27-.29.41-.67.39-1.06l-.03-.58Zm-3.84.2c.02-.4-.12-.78-.38-1.07a1.5 1.5 0 0 0-1.03-.49l-.29-.01a1.52 1.52 0 0 0-1.43.83c-.08.18-.13.37-.14.56l-.03.6c-.03.4.11.77.38 1.07.26.29.63.46 1.03.48l.28.02a1.51 1.51 0 0 0 1.43-.84c.09-.17.13-.36.15-.55l.03-.6Z" fill="#E82028"/><path d="m24.6 26.58.49-1a.08.08 0 0 1 .08-.05.08.08 0 0 1 .07.06l.17 1.11a.08.08 0 0 1-.1.09l-.66-.1a.08.08 0 0 1-.05-.04.08.08 0 0 1 0-.07Z" fill="#D52727"/><path d="M39.63 26.11a.17.17 0 0 1 .07-.18.18.18 0 0 1 .07-.03l.52-.11c.2-.05.42 0 .6.13s.3.33.36.56l.1.48c.05.22.02.46-.09.65-.1.2-.28.32-.48.37l-.53.11c-.05.01-.1 0-.13-.02a.18.18 0 0 1-.08-.11l-.41-1.85ZM35.85 27.43c.05.68.52 1.2 1.05 1.17.53-.04.93-.61.88-1.3-.04-.67-.5-1.2-1.04-1.16-.53.03-.93.61-.89 1.3ZM31.98 27.36c-.03.68.38 1.25.91 1.27.54.02 1-.5 1.02-1.18.03-.68-.38-1.25-.91-1.27-.54-.02-1 .5-1.02 1.18Z" fill="#E82028"/><path d="M22.16 32.4c-.14-.04-.19 0-.13.14.03.07.04.14.04.2 0 .07-.04.1-.1.11l-.95.17a.2.2 0 0 1-.14-.02.19.19 0 0 1-.08-.12 29.1 29.1 0 0 1-.64-3.6c-.01-.05.01-.09.07-.1.17-.06.33-.1.5-.13a39.47 39.47 0 0 1 3.13-.4.15.15 0 0 1 .09.07l.01.06.3 3.63c0 .03-.01.05-.05.06l-.84.15c-.04 0-.06-.01-.06-.05v-2.2c0-.11-.06-.17-.18-.16h-.08c-.07.02-.11.06-.11.13v2.2c0 .04-.02.08-.06.1a.91.91 0 0 1-.31.11h-.08a.13.13 0 0 1-.05-.05c-.11-.18-.2-.28-.28-.3ZM19.9 29.34l.69 3.7a.15.15 0 0 1-.04.12.16.16 0 0 1-.12.06h-3.45a.16.16 0 0 1-.15-.1l-.86-2.73a.15.15 0 0 1 .05-.17.16.16 0 0 1 .06-.03l3.63-.97a.16.16 0 0 1 .17.06l.03.06Z" fill="#2E3893"/><path d="M14.18 33.48 10.4 36a.15.15 0 0 0-.04.2c2.14 3.5 5.1 6.09 8.86 7.73a21.62 21.62 0 0 0 12.1 1.59 20.53 20.53 0 0 0 11.46-5.61 20.76 20.76 0 0 0 2.9-3.74.1.1 0 0 0-.03-.08.1.1 0 0 0-.03-.02l-3.73-2.13a.1.1 0 0 0-.14.03l-.8 1.2c-.05.1-.13.1-.22.05l-.89-.57c-.08-.06-.1-.13-.04-.22l.37-.56a.07.07 0 0 0 0-.07.07.07 0 0 0-.06-.04l-.9.07c-.16.01-.2-.05-.14-.2.46-1.05.81-2.15 1.04-3.28.03-.14.1-.18.24-.13.86.33 1.7.73 2.53 1.2.03.02.06.05.07.1v.1l-1.02 2.03v.02l3.97 2.26a.2.2 0 0 1 .1.12.19.19 0 0 1-.03.15 20.07 20.07 0 0 1-14.1 9.47c-1.76.27-3.48.37-5.18.31a21.3 21.3 0 0 1-10.25-3.23 19.8 19.8 0 0 1-6.42-6.59.16.16 0 0 1 .05-.22l4.09-2.72c.03-.02.04-.05.02-.08l-.78-1.52a.11.11 0 0 1 .04-.15l2.16-1.08c.12-.06.2-.02.22.1.3 1.28.72 2.5 1.28 3.65a.1.1 0 0 1-.04.13l-1.44.96a.15.15 0 0 1-.2-.04l-1.17-1.7c-.02-.03-.04-.03-.07-.01Z" fill="#2E3893"/><path d="m28.13 33.2-.12-.62a.09.09 0 0 1 .02-.07l.03-.02h.04l3.22.12a.09.09 0 0 1 .07.03.09.09 0 0 1 .02.07l-.1.49c0 .02 0 .04-.03.05a.09.09 0 0 1-.05.02H28.2c-.02 0-.04 0-.05-.02a.09.09 0 0 1-.03-.05ZM25.2 34.62h-.25a.13.13 0 0 1-.13-.1l-.31-1.7a.13.13 0 0 1 .07-.13l.05-.02 1.92-.15a.13.13 0 0 1 .13.08l.01.05v.53a.13.13 0 0 1-.13.13h-1.09a.13.13 0 0 0-.09.04.13.13 0 0 0-.04.1v1.03a.13.13 0 0 1-.08.13.14.14 0 0 1-.05 0ZM32.91 33.83c.05.17.1.27.13.3.25.21.22.32-.1.31h-.74a.08.08 0 0 1-.06-.03.08.08 0 0 1-.02-.07l.3-1.04a.03.03 0 0 0-.03-.04h-.78a.08.08 0 0 1-.05-.06v-.03l.06-.42c.01-.07.06-.1.13-.1l3.16.47a.13.13 0 0 1 .1.1v.06l-.28 1a.2.2 0 0 1-.16.14l-.1.02a.1.1 0 0 1-.1-.04.08.08 0 0 1 0-.1c.1-.17.17-.33.2-.47 0-.04-.02-.07-.07-.07h-1.53c-.05 0-.07.03-.06.07ZM23.85 33.3c.08-.16.16-.44.35-.58a.08.08 0 0 1 .1.01c.02.01.02.03.02.04l.25 1.75a.1.1 0 0 1-.1.1h-.96a.17.17 0 0 1-.14-.07.16.16 0 0 1-.03-.14c.1-.31.26-.68.5-1.12ZM23.47 33.42a.02.02 0 0 1-.02.02.3.3 0 0 1-.17-.18.33.33 0 0 1 .02-.25l.01-.03c.04-.08.1-.14.18-.17a.31.31 0 0 1 .25 0 .02.02 0 0 1 0 .03l-.27.58ZM22.81 32.88a.07.07 0 0 1 .08.04v.02c.05.16.08.3.09.43 0 .11 0 .19-.04.2l-.04.01c-.02 0-.04 0-.07-.03a.53.53 0 0 1-.08-.11 1.55 1.55 0 0 1-.17-.4V33a.06.06 0 0 1 .04-.08l.19-.05ZM22.09 33.03c.1-.02.19.03.23.13l.53 1.27a.17.17 0 0 1-.06.21.18.18 0 0 1-.08.03.59.59 0 0 1-.52-.17 358.6 358.6 0 0 0-1.23-1.1.14.14 0 0 1 .05-.15.14.14 0 0 1 .07-.03l1-.19ZM35.47 33.93l-.16.33a.27.27 0 0 1-.1.11l-.1.06a.1.1 0 0 1-.12 0 .1.1 0 0 1-.04-.11l.29-1.02c0-.03.03-.06.05-.07a.12.12 0 0 1 .1-.01l1.77.48a.1.1 0 0 1 .07.06l.02.04a.03.03 0 0 1-.02.04h-1.62a.14.14 0 0 0-.14.09ZM18.6 38.34h-.03a20.15 20.15 0 0 1-2.9-2.83.09.09 0 0 1 .03-.1l1.37-.91a.15.15 0 0 1 .18 0l.04.06a14.8 14.8 0 0 0 2.06 3.12.12.12 0 0 1-.01.1l-.04.03-.7.53ZM38.13 36.81a.17.17 0 0 0 .15-.08l1.22-1.83c.08-.12.17-.14.3-.06l.75.49c.12.08.14.18.04.3-.8.95-1.68 1.82-2.65 2.61-.1.09-.22.1-.34.02l-.74-.48c-.13-.09-.15-.2-.06-.33l.31-.47a.37.37 0 0 1 .31-.17h.71ZM21.31 36.85l.01.01a.03.03 0 0 1 0 .04h-.01l-1.68.7a.12.12 0 0 1-.15-.05l-.43-.63a.06.06 0 0 1 0-.06.06.06 0 0 1 .05-.03c.8.01 1.51 0 2.14-.02l.07.04ZM30.26 38.79l.57-1.84a.2.2 0 0 1 .18-.13h2.6a.08.08 0 0 1 .08.07v.04c-.43.85-.9 1.61-1.42 2.28a.23.23 0 0 1-.1.08.24.24 0 0 1-.14 0l-1.75-.47a.03.03 0 0 1-.02-.03ZM34.91 36.84l.07-.03a36.44 36.44 0 0 0 1.92 0 .05.05 0 0 1 .02.05v.02l-.38.57a.1.1 0 0 1-.13.04l-1.5-.6v-.05ZM25.7 38.77v.01a.02.02 0 0 1-.02.02l-1.74.48a.24.24 0 0 1-.25-.07 12.81 12.81 0 0 1-1.42-2.3l.01-.04.03-.03h.04l2.58-.03a.2.2 0 0 1 .19.14l.58 1.82ZM30.6 36.93l-.48 1.73a.09.09 0 0 1-.08.06h-4.08l-.05-.01a.09.09 0 0 1-.04-.05l-.54-1.73a.09.09 0 0 1 .04-.1h5.15a.09.09 0 0 1 .09.06v.04ZM36.24 37.76c-.66.81-1.5 1.5-2.36 2.14a.3.3 0 0 1-.29.03l-1.1-.48a.1.1 0 0 1-.06-.07.1.1 0 0 1 .02-.1 11.6 11.6 0 0 0 1.44-2.3c.03-.07.08-.11.14-.14a.27.27 0 0 1 .2 0l1.97.77a.1.1 0 0 1 .06.07.1.1 0 0 1-.02.08ZM23.47 39.44l-1.33.54a.06.06 0 0 1-.06 0l-2.38-2.11a.06.06 0 0 1-.01-.05.05.05 0 0 1 .03-.04l2.18-.9a.06.06 0 0 1 .07.02l1.53 2.46v.02a.05.05 0 0 1-.03.05Z" fill="#2E3893"/><path d="M40.08 38.71c.06.02.1 0 .1-.06v-.75a.12.12 0 0 0-.05-.09.13.13 0 0 0-.1-.03l-.18.01c-.25.02-.27-.04-.07-.18l.81-.56a.1.1 0 0 1 .04-.02.1.1 0 0 1 .04 0 .1.1 0 0 1 .07.04.04.04 0 0 1 0 .05c-.15.24-.24.34-.25.56a10.05 10.05 0 0 0 0 1.16 166.52 166.52 0 0 0 1.58.6c.12.05.2.04.31.04.28 0 .3.1.09.26l-1.1.83-.05-.01c-.07-.02-.08-.06-.04-.12l.18-.27a.09.09 0 0 0-.04-.12l-.9-.35c-.06-.03-.1 0-.1.07v.92c0 .08.04.11.13.1l.35-.06c.02 0 .05 0 .07.02l.01.04c.01.03 0 .05-.02.07a6 6 0 0 1-.84.58c-.06.04-.11.05-.16.03-.06-.02-.07-.06-.03-.11.14-.17.24-.3.22-.52-.03-.4-.02-.8.03-1.18 0-.06-.01-.1-.06-.12l-2.03-.62c-.06-.02-.07-.05 0-.09l1.29-.86a.05.05 0 0 1 .06 0l.08.04v.02a.02.02 0 0 1 0 .02.6.6 0 0 0-.25.25c-.02.05 0 .1.05.11l.76.3Z" fill="#D52727"/><path d="m37.52 38.49-.05.07a19.37 19.37 0 0 1-2.89 1.68c-.18.1-.34.12-.46.08a.19.19 0 0 1-.13-.15.19.19 0 0 1 .07-.18 12.2 12.2 0 0 0 2.38-2.15.11.11 0 0 1 .14-.02l.93.6.02.03v.04ZM19.68 38.03a14.62 14.62 0 0 0 2.25 2.02c.01.02.02.05.01.07a.11.11 0 0 1-.07.09c-.03 0-.1 0-.19-.04a14.3 14.3 0 0 1-2.81-1.61c-.1-.07-.1-.14 0-.21l.55-.35c.1-.06.19-.05.26.03Z" fill="#2E3893"/><path d="m17.95 39.13.2-.01a.1.1 0 0 1 .08.04.1.1 0 0 1 0 .1c-.2.32-.4.56-.6.74-.12.11-.18.08-.16-.08.05-.6.12-1.08-.5-1.42-.67-.38-1.76.98-1.9 1.64-.18.82.85 1.16 1.48 1.04.06 0 .1.01.11.07l.02.05v.02a.05.05 0 0 1-.02.04l-.02.01c-1.3.32-2.47-.72-2.15-2.06.16-.66.92-1.3 1.67-1.29.7 0 1.25.35 1.63 1.03a.17.17 0 0 0 .16.08Z" fill="#D52727"/><path d="M28.06 38.9a11.75 11.75 0 0 1 5.91 1.5.08.08 0 0 1 0 .08 16.13 16.13 0 0 1-11.84-.1.08.08 0 0 1-.01-.1l.03-.03c1.75-.98 3.8-1.37 5.9-1.35Z" fill="#2E3893"/><path d="M36.87 41.25c.35-.18.44-.45.27-.82a.05.05 0 0 1 .02-.07l.04-.02a.09.09 0 0 1 .07-.01.09.09 0 0 1 .06.04l.67 1.3a.06.06 0 0 1 0 .06.06.06 0 0 1-.04.03l-.06.02a.1.1 0 0 1-.12-.05c-.17-.33-.44-.42-.8-.27a.09.09 0 0 0-.06.08v.04l.5.96c.03.05.07.07.12.06.7-.13 1.06-.56 1.07-1.27 0-.08.03-.11.1-.1a.07.07 0 0 1 .06.05l.25.79a.16.16 0 0 1-.09.18 2468.55 2468.55 0 0 1-2.47 1.15.12.12 0 0 1-.04-.04c-.01-.03-.01-.05.01-.08l.22-.24c.04-.05.05-.1.02-.15l-1.09-2.12c-.1-.2-.23-.22-.4-.08l-.19.16a.43.43 0 0 0-.15.5l.68 2.14.04.06c.02.02.05.03.07.03l.3.03c.04 0 .05.02.05.05v.04c0 .06-.02.1-.08.11l-1.41.38h-.04l-.03-.02a.07.07 0 0 1-.02-.07.07.07 0 0 1 .05-.05c.24-.1.33-.24.27-.41-.26-.83-.46-1.49-.6-2 0-.02-.02-.03-.05-.03l-.04.01v.02l-.29 2.7a.12.12 0 0 1-.09.1.13.13 0 0 1-.13-.03l-1.66-1.98c-.03-.03-.06-.05-.1-.04a.06.06 0 0 0-.04.07c.2.5.37 1.05.5 1.65.08.34.26.49.55.43.06 0 .1.01.11.07.02.05 0 .08-.04.1-.84.3-1.72.5-2.64.59-.03 0-.05-.01-.06-.04l-.01-.04c0-.02.01-.03.03-.04l.27-.16a.13.13 0 0 0 .06-.14l-.42-2.33a.19.19 0 0 0-.14-.15.2.2 0 0 0-.2.07c-.17.23-.3.46-.38.71-.12.37-.38 1.08-.78 2.12a.8.8 0 0 1-.16.25.11.11 0 0 1-.1.03.11.11 0 0 1-.08-.06l-1.17-2.54c-.08-.18-.2-.33-.34-.45-.2-.17-.17-.25.09-.25H28.2l.03.04c.04.05.03.09-.03.11l-.3.13a.11.11 0 0 0-.07.14l.66 1.56c.06.14.12.13.17 0l.6-1.5c.06-.13.02-.22-.12-.25l-.24-.07a.09.09 0 0 1-.05-.06c-.02-.07.01-.1.09-.11l.43-.06c.7-.15 1.53-.36 2.5-.63a.27.27 0 0 1 .28.08l1.27 1.5c.13.14.2.12.22-.08l.17-1.89c0-.06.04-.12.08-.17a.3.3 0 0 1 .17-.09c.62-.1 1.16-.54 1.55-.73.59-.3 1.18-.58 1.78-.87a.11.11 0 0 1 .14.04c.18.25.3.45.35.6.1.28.05.32-.17.13a4.7 4.7 0 0 0-.24-.2c-.28-.2-.85.03-1.1.2-.1.07-.13.15-.07.25l.44.87c.03.05.07.06.12.03Zm-5.43 3.63.61-.14c.02 0 .03-.01.03-.02l.01-.04v-.02a32.25 32.25 0 0 0-.52-1.87 5.84 5.84 0 0 0-.2-.56c-.06-.13-.1-.2-.13-.19l-.28.07c-.03 0-.04.08-.04.22s.03.34.07.6a19.43 19.43 0 0 0 .39 1.89v.03a.05.05 0 0 0 .04.03h.02ZM18.49 42.69l.05-.52a.11.11 0 0 0-.06-.12l-.76-.42a.09.09 0 0 0-.1 0l-.4.27c-.06.04-.07.08-.03.13l.23.34v.04a.1.1 0 0 1-.04.03h-.04c-.26-.12-.5-.25-.72-.41-.18-.14-.16-.21.06-.22.14-.01.23-.01.33-.09l2.4-1.77a.18.18 0 0 1 .1-.04c.04 0 .08.01.11.03.02.02.03.05.02.1l-.39 2.98c-.02.18 0 .33.08.44a.07.07 0 0 1 0 .09.07.07 0 0 1-.1.01l-1.23-.7a.07.07 0 0 1-.03-.08c0-.01.01-.03.03-.03l.04-.02.36.03c.05.01.08-.02.09-.07Zm.12-.92.14-.75c.04-.19-.02-.22-.18-.12l-.57.38a.13.13 0 0 0 0 .22l.53.3c.05.02.07.01.08-.03ZM23.24 43.94c-.42.52-1.04.7-1.69.53a9.51 9.51 0 0 1-1.57-.56c-.04-.02-.07-.04-.07-.07v-.05c0-.03.02-.05.06-.04.23.01.39-.1.46-.34.1-.31.35-.99.75-2.03a.14.14 0 0 0 0-.13.59.59 0 0 0-.23-.21.08.08 0 0 1-.04-.07c0-.04.02-.06.04-.08a.1.1 0 0 1 .1 0c.56.17 1.04.34 1.44.5a1.69 1.69 0 0 1 1.14 1.33h.01a.03.03 0 0 0 .03 0c.56-.63 1.2-.83 1.93-.6.8.24 1.32.91 1.24 1.74-.2 2.08-3.14 2.15-3.5.11 0-.08-.04-.1-.1-.03Zm-1.27-2.34-.85 2.34a.17.17 0 0 0 .05.18l.05.04h.02a.95.95 0 0 0 .76-.05 1.05 1.05 0 0 0 .52-.59l.26-.72a1.06 1.06 0 0 0-.02-.78.97.97 0 0 0-.55-.51h-.01a.18.18 0 0 0-.14 0 .17.17 0 0 0-.09.1Zm2.9 3.66c.12.02.23 0 .35-.07.11-.06.22-.16.32-.28a2.56 2.56 0 0 0 .31-2.12c-.12-.31-.31-.5-.54-.53a.56.56 0 0 0-.34.07c-.11.06-.22.16-.32.28-.1.13-.19.29-.26.46-.07.18-.12.37-.15.57-.06.4-.02.8.1 1.1.11.3.3.49.53.52Z" fill="#D52727"/></svg>