<!-- by TradingView --><svg width="56" height="56" viewBox="0 0 56 56" xmlns="http://www.w3.org/2000/svg"><path fill="#F0F3FA" d="M0 0h56v56H0z"/><path d="M14.1 11H42v22.92a14.48 14.48 0 0 1-.54 3.33c-.1.33-.21.61-.34.95-.4 1-.96 1.92-1.69 2.74-.7.79-1.44 1.43-2.23 1.94-.85.54-1.43.9-1.76 1.06-.53.26-1.03.55-1.5.79-.57.27-1.18.6-1.85.96-.94.51-1.8 1.06-2.62 1.77a11.57 11.57 0 0 0-1.43 1.52.05.05 0 0 1-.07 0 3.05 3.05 0 0 1-.26-.27 9.74 9.74 0 0 0-2.3-2.1 30.22 30.22 0 0 0-3.4-1.91c-.4-.2-.85-.46-1.36-.72-.98-.5-1.96-1.12-2.84-1.84a9.83 9.83 0 0 1-3.52-5.87c-.16-.8-.26-1.6-.29-2.41v-4.7a.3.3 0 0 0 0-.1v-17.6a.4.4 0 0 0 0-.12V11h.1Z" fill="#008CE1"/><path d="M41.43 17H14.57v-5.37a.05.05 0 0 1 .05-.05h26.75a.06.06 0 0 1 .06.05V17Z" fill="#251464"/><path d="M22.86 15.78c0-.13-.04-.15-.12-.03-.1.16-.3.25-.55.25a.76.76 0 0 1-.55-.25c-.48-.47-.5-1.31-.34-1.9.08-.3.33-.72.69-.81.7-.19 1.22.3 1.2.93l-.02.03-.03.01h-.32c-.03 0-.06 0-.08-.02a.12.12 0 0 1-.05-.07c-.04-.16-.11-.36-.34-.38-.3-.02-.44.13-.53.38-.14.4-.14.8 0 1.2.1.3.5.49.77.2.09-.1.14-.23.16-.38v-.02l-.02-.02a.07.07 0 0 0-.05-.02h-.3c-.06 0-.09-.03-.09-.1v-.34c0-.06.03-.09.1-.09h.8l.04.02c.02.01.02.03.02.05v1.43c0 .04-.02.06-.07.06H22.89l-.01-.03a1.27 1.27 0 0 1-.02-.1ZM30.32 15.66c0-.04-.02-.04-.04 0-.17.26-.52.42-.84.3-.42-.16-.65-.57-.7-.97a3.1 3.1 0 0 1 .07-1.23c.1-.35.42-.73.86-.76.6-.04.96.44 1.02.93.01.05-.01.08-.07.08h-.33c-.05 0-.09-.03-.1-.08-.1-.49-.7-.54-.87-.07a2 2 0 0 0-.07 1.12c.05.24.25.48.54.47.3 0 .4-.3.44-.54 0-.03 0-.04-.03-.04h-.36c-.06 0-.09-.02-.09-.08v-.35c0-.06.03-.09.09-.09h.8l.05.02.02.05v1.42c0 .05-.03.07-.09.07h-.25a.07.07 0 0 1-.05-.02.06.06 0 0 1-.01-.05.68.68 0 0 0 0-.18ZM18.75 14.08v.08l-.01 1.75c0 .06-.03.09-.1.09h-.24c-.07 0-.1-.03-.1-.1v-2.84c0-.02 0-.03.02-.04a.06.06 0 0 1 .04-.02h.36c.02 0 .04 0 .06.03.04.04.08.1.1.17a293.33 293.33 0 0 1 .64 1.61c.04.05.06.04.06-.02l-.01-1.7c0-.06.03-.09.08-.09h.28c.06 0 .1.03.1.09v2.87L20 16l-.03.01h-.4c-.02 0-.04-.01-.05-.03l-.74-1.9c-.01-.03-.03-.03-.04 0ZM23.97 13h-.37a.07.07 0 0 0-.07.07v2.86c0 .04.02.07.06.07h.37c.04 0 .07-.03.07-.06v-2.87a.07.07 0 0 0-.06-.07ZM27.62 14.44a14.58 14.58 0 0 0 .2.45 92.21 92.21 0 0 1 .02-1.82c0-.05.02-.07.07-.07h.3c.05 0 .07.03.07.08v2.85c0 .05-.02.07-.07.07h-.36a.05.05 0 0 1-.05-.03 21.48 21.48 0 0 1-.76-1.86h-.02a92.21 92.21 0 0 1-.02 1.82c0 .05-.02.07-.06.07h-.3c-.05 0-.08-.02-.08-.07v-2.85c0-.05.03-.08.08-.08H27c.02 0 .04.01.05.03.23.53.42 1 .57 1.4ZM39 13a21.02 21.02 0 0 1 .88.03l.02.03v.43l-.02.05a.07.07 0 0 1-.05.02h-.52a.05.05 0 0 0-.04.01l-.01.02v2.36c0 .03-.02.04-.04.04a2.21 2.21 0 0 1-.44 0c-.02 0-.03-.01-.03-.04v-2.34a.05.05 0 0 0-.03-.05h-.55l-.04-.02a.06.06 0 0 1-.02-.05v-.43c0-.01 0-.02.02-.03A21.83 21.83 0 0 1 39 13Z" fill="#fff"/><path fill-rule="evenodd" d="M35.83 13.9c-.08-.43-.44-.9-.97-.9-.52 0-.88.46-.96.89a3.17 3.17 0 0 0 0 1.22c.08.43.43.9.96.9.52 0 .88-.47.97-.9a3.21 3.21 0 0 0 0-1.22Zm-.45.6c0-.35-.06-.95-.52-.95-.45 0-.51.6-.51.95 0 .36.06.95.51.95s.52-.6.52-.95ZM32.54 14.97h.01c.42 0 .8 0 1-.43.18-.42.17-.84-.04-1.26-.1-.17-.25-.27-.48-.27a12.62 12.62 0 0 0-1.01.02.05.05 0 0 0-.02.04v2.86c0 .05.03.07.08.07h.36c.05 0 .07-.02.07-.07V15a.03.03 0 0 1 .03-.03Zm0-1.39a.07.07 0 0 0-.02.05v.66c0 .02 0 .04.02.05l.05.02h.28c.08 0 .15-.03.2-.08a.25.25 0 0 0 .1-.18v-.28l-.03-.1a.26.26 0 0 0-.06-.09.32.32 0 0 0-.2-.08h-.29c-.02 0-.04.02-.05.03ZM37.84 15.74c0-.31 0-.9-.23-1.16v-.05c.16-.13.18-.24.22-.45l.02-.08c.08-.36-.1-.94-.56-.98a10.48 10.48 0 0 0-1.16.01.06.06 0 0 0-.01.04v2.85c0 .02 0 .04.02.06l.05.02h.34c.06 0 .09-.03.09-.09v-1l.01-.05a.07.07 0 0 1 .05-.02c.25-.02.62-.05.63.29l.02.75c0 .02.01.05.03.07l.07.04c.1.02.24.02.41 0 .03 0 .04-.02.04-.04l-.02-.08a.52.52 0 0 1-.02-.13Zm-1.22-2.13v.62l.02.05.06.02h.39a.28.28 0 0 0 .2-.1.31.31 0 0 0 .1-.21l-.01-.12a.32.32 0 0 0-.09-.22.29.29 0 0 0-.2-.1h-.4a.08.08 0 0 0-.05.03l-.02.03ZM16.74 15.4a3.06 3.06 0 0 1 .63.02.1.1 0 0 1 .03.05l.1.43c.02.07.07.1.14.1h.3c.07 0 .1-.03.08-.1l-.68-2.83c0-.03-.03-.05-.06-.05a1.55 1.55 0 0 0-.48 0c-.03 0-.05.02-.06.05l-.7 2.82c-.02.07.01.1.08.1h.3c.07 0 .12-.03.13-.1l.11-.43a.1.1 0 0 1 .03-.04.1.1 0 0 1 .05-.03Zm.31-1.51c0-.02 0-.02-.02-.02a14.67 14.67 0 0 1-.22.94.05.05 0 0 0 .03.02 1.28 1.28 0 0 0 .4 0 .05.05 0 0 0 .01-.04v-.01c-.07-.29-.14-.58-.2-.9ZM25.55 13.02a1.66 1.66 0 0 0-.48 0c-.03 0-.05.02-.06.05l-.7 2.82c-.02.07.01.1.08.1h.3c.07 0 .12-.02.13-.09l.11-.43a.1.1 0 0 1 .03-.05.1.1 0 0 1 .05-.02 3.04 3.04 0 0 1 .63.02c.02.01.03.03.03.05l.1.43c.02.07.07.1.14.1h.3c.07 0 .1-.03.08-.1l-.68-2.83c0-.03-.03-.05-.06-.05Zm-.3.97-.16.8a.05.05 0 0 0 0 .04l.02.01H25.46a.05.05 0 0 0 .04 0 .05.05 0 0 0 .01-.05l-.15-.8-.02-.03a.05.05 0 0 0-.07 0l-.01.03Z" fill="#fff"/><path d="M41.43 17v13.74l-.01.02H40.94l-.11-2.58a.06.06 0 0 0-.06-.06l-3.1-.02a.05.05 0 0 0-.05.08l.72.69a.14.14 0 0 0 .1.05h1.8c.02 0 .03 0 .04.02l.02.04v.59l-.02.04a.06.06 0 0 1-.05.02h-4.92c-.02 0-.04 0-.05-.02a.06.06 0 0 1-.02-.05v-2.63c0-.01 0-.03.02-.03l.03-.02h4.63c.02 0 .03 0 .04-.02l1.17-1.25c.04-.05.03-.07-.03-.07h-.8a.34.34 0 0 1-.15-.03c-.07-.47-.12-.9-.14-1.28 0-.16-.05-.32-.05-.47v-2.14a.04.04 0 0 1 .03-.03h.32a.03.03 0 0 0 .03-.03v-.7c0-.03-.01-.04-.04-.04h-.22c-.03 0-.04-.01-.04-.03-.04-.23.06-.48-.26-.56a7241.05 7241.05 0 0 1-9.98-2.5c-.22-.06-.66-.16-.83-.02a.06.06 0 0 1-.05.02l-.52-.14c-.03 0-.04 0-.05.03l-.16.42a.12.12 0 0 0 .01.11.13.13 0 0 0 .1.06.84.84 0 0 0 .34-.06.03.03 0 0 1 .02.01v.02l.01 7.2-4.33.03c-.04 0-.07.03-.07.08v5.27l-.3.01-.02-1.1c0-.03-.02-.04-.05-.04h-3.83a.09.09 0 0 1-.07-.04c-.06-.06-.11-.16-.17-.3l-2.45-5.61c-.04-.1-.02-.13.08-.08l5.89 3.13a.02.02 0 0 0 .02 0v-.2l-.2-1.23a.07.07 0 0 0-.03-.05l-4.73-2.52a.14.14 0 0 1-.08-.13V21.3c0-.07.04-.1.1-.06a.8.8 0 0 0 .3.04h.02a.05.05 0 0 0 .02-.07l-.54-.93a.04.04 0 0 0-.07 0l-.5.94a.04.04 0 0 0 0 .04l.01.02H17.96a.05.05 0 0 1 .06.05V22.45H18a.03.03 0 0 1-.02.01l-3.07-1.53c-.07-.04-.1-.02-.06.06l3.2 7.5-3.4-.02a.07.07 0 0 1-.07-.07V17h26.85Z" fill="#fff"/><path d="M40.15 25.5h-.08l-.18-1.69c0-.01 0-.03-.02-.04a.06.06 0 0 0-.04-.02h-1.2l-.05.02a.07.07 0 0 0-.02.05l-.2 1.67-.01.01c-.02 0-.03 0-.04-.02a804 804 0 0 0 .16-1.57c.02-.2.01-.43.02-.62.02-.28-.2-.23-.36-.24a.12.12 0 0 1-.11-.1c-.03-.17-.04-.3-.04-.42a.16.16 0 0 0-.03-.1l-.76-1.08c-.1-.16-.22-.16-.45-.26-.06-.02-.1-.05-.1-.07 0-.04.01-.1.05-.15.03-.05.02-.09-.04-.1-1.32-.42-3.38-1.03-6.73-2.05a1.19 1.19 0 0 1-.18-.07c-.14-.07-.2-.12-.35-.08-.18.04-.34-.02-.48-.15-.03-.02-.04-.01-.04.02l-.01 6.91c-.09.08-.15.1-.19.03v-7.2a.03.03 0 0 0-.02-.03h-.02c-.1.04-.2.06-.33.06a.13.13 0 0 1-.11-.17l.16-.42c0-.03.02-.04.05-.03l.52.14c.02 0 .04 0 .05-.02.17-.14.6-.04.83.02a301.23 301.23 0 0 1 4.4 1.11l5.58 1.4c.32.07.22.32.25.55 0 .02.02.03.04.03h.23c.03 0 .04.01.04.04v.7a.03.03 0 0 1-.03.03h-.32a.04.04 0 0 0-.03.03v2.14c0 .15.04.3.05.47.02.38.07.8.14 1.28Z" fill="#1E1A17"/><path d="M28.67 18.05a.57.57 0 0 1-.4.08.04.04 0 0 1-.04-.05l.14-.35c.01-.03.03-.05.07-.04l.16.03c.2.03.67.16 1.44.38l1.25.32c.1.02.24.09.33.1l.85.22a1263.8 1263.8 0 0 0 4.44 1.2c.01.02.02.04.01.06l-.17.65a.07.07 0 0 1-.04.05.07.07 0 0 1-.05 0l-6.85-2.09a10.87 10.87 0 0 1-1.1-.56h-.04Z" fill="#F6C41F"/><path d="M30.15 18.01h.03l2.86.73 5.33 1.33c.36.1.63.2.94.24.07.01.1.05.07.12l-.14.34a.1.1 0 0 1-.1.06 4.74 4.74 0 0 1-.74-.35c-.23-.14-.45-.24-.7-.38-.09-.05-.19-.1-.28-.12a1391.23 1391.23 0 0 1-7.69-2.07h.05c.1.06.18.03.3.1h.07ZM38.3 25.48c-.01.04-.06.06-.13.06h-3.7c-.27 0-.43.06-.66.07-.03 0-.04.01-.04.03v5.1a.27.27 0 0 1-.24.02l-.02-5.3a.04.04 0 0 0-.03-.05h-4.55c-.06 0-.08-.02-.07-.06l.01-6.9c0-.04.01-.05.04-.03.14.13.3.2.48.15.15-.04.2 0 .36.08l.17.07c3.35 1.02 5.41 1.63 6.73 2.05.06.01.07.05.04.1-.04.06-.05.1-.05.15.01.02.04.05.1.07.23.1.35.1.45.26l.76 1.09c.02.03.03.06.03.1 0 .1 0 .24.04.4a.13.13 0 0 0 .11.11c.17.01.38-.04.36.24 0 .2 0 .42-.02.62a804 804 0 0 1-.16 1.57Z" fill="#fff"/><path d="M38.88 20.86v.31a.1.1 0 0 1-.04.08.1.1 0 0 1-.08.02l-1.35-.36a.1.1 0 0 1-.08-.08.1.1 0 0 1 0-.04l.16-.6a.1.1 0 0 1 .06-.06.1.1 0 0 1 .08 0l1.2.64a.1.1 0 0 1 .05.09Z" fill="#F6C41F"/><path d="M23.97 30.77c-.04.05-.14.07-.3.07a422.72 422.72 0 0 0-4.57-.02c-.05 0-.09-.02-.11-.05-.04-.2-.1-.34-.2-.45a.78.78 0 0 0-.14-.38 1.3 1.3 0 0 0-.17-.38l-.14-.32c-.04-.2-.1-.35-.18-.45l-.12-.3-3.2-7.5c-.03-.08 0-.1.07-.06l3.07 1.53a.03.03 0 0 0 .03-.01V21.29a.05.05 0 0 0-.05-.02h-.27a.04.04 0 0 1-.03-.02.04.04 0 0 1 0-.04l.5-.94a.04.04 0 0 1 .07 0l.54.93a.05.05 0 0 1 0 .05.05.05 0 0 1-.04.02.8.8 0 0 1-.3-.04c-.07-.03-.1-.01-.1.06v1.31a.14.14 0 0 0 .08.13l4.73 2.52c.02 0 .03.02.04.05a49.87 49.87 0 0 1 .2 1.42.02.02 0 0 1-.01.01.02.02 0 0 1-.02 0l-5.89-3.13c-.1-.05-.13-.03-.08.08l2.45 5.6c.06.15.11.25.16.31.02.02.05.04.08.04h3.83c.03 0 .05.01.05.05l.02 1.1Z" fill="#251464"/><path d="M39.95 20.81a.07.07 0 0 0 .07.07h.19c.04 0 .07.02.07.07v.44c0 .05-.03.08-.08.08h-1.19c-.05 0-.07-.03-.07-.07v-.05c0-.05.02-.07.07-.06.19.02.27-.03.24-.16-.03-.13-.12-.16-.27-.08-.02.01-.04 0-.04-.03v-.08c0-.03.02-.05.06-.05h.27c.02 0 .04 0 .04-.03a.74.74 0 0 1 .21-.47c.09-.09.2-.08.3-.07a.15.15 0 0 1 .13.15v.34ZM37 21.05a.05.05 0 0 1-.04-.03v-.01l.01-.02c.03-.03.08-.04.15-.03.02 0 .04.01.03.04 0 .15.09.18.15.31l.1.13c.08.09.15.2.21.3.05.1.16.16.19.24a.2.2 0 0 0 .09.12.08.08 0 0 1 .03.05c.02.07.06.13.13.18a.1.1 0 0 1 .04.05c.03.08.1.18.2.31.14.17.24.37.42.5a.1.1 0 0 1 .04.13c0 .02-.02.03-.03.04-.01.02-.04.02-.08.01a.04.04 0 0 1-.03-.04v-.1c0-.02 0-.03-.02-.05-.1-.1-.23-.27-.38-.48a27.17 27.17 0 0 0-.86-1.2 4.07 4.07 0 0 0-.35-.45Z" fill="#F6C41F"/><path d="M37.88 21.78c.04.07.05.14.04.23v.01a.02.02 0 0 1-.03 0l-.6-.82c-.04-.06-.05-.1-.04-.12l.03-.09c0-.03.03-.04.05-.03l1.51.4a.04.04 0 0 1 .03.02l.01.06c.01.04 0 .07-.05.07l-.36.01c-.28 0-.36.03-.58.2-.02.01-.03.03-.01.06Z" fill="#fff"/><path d="M38.68 23.43a.13.13 0 0 0 .12-.1c.04-.2-.24-.25-.24-.48v-1.2c-.01-.04 0-.06.05-.06h1.25c.02 0 .03.01.03.03v1.84c0 .03-.01.05-.05.05h-1.23l-.03-.01-.01-.03a.1.1 0 0 1 0-.04c0-.03.02-.03.04-.02l.07.02ZM39.86 23.57H38.6a.04.04 0 0 0-.04.04v.05c0 .02.02.04.04.04h1.25c.02 0 .04-.02.04-.04v-.05a.04.04 0 0 0-.04-.04ZM40.07 25.5l-1.7-.01.19-1.67a.07.07 0 0 1 .07-.07h1.2a.06.06 0 0 1 .06.06l.18 1.68Z" fill="#F6C41F"/><path d="M19.24 25.13a.48.48 0 1 1-.97 0 .48.48 0 0 1 .97 0Z" fill="#251464"/><path d="M18.77 25.36a.25.25 0 1 0 0-.5.25.25 0 0 0 0 .5Z" fill="#fff"/><path d="M28.86 25.35c-.01.04.01.06.06.06a883.34 883.34 0 0 0 4.58.02l.01.02.02 5.3a.48.48 0 0 1-.28.09H24.4c-.09 0-.14-.03-.14-.08V25.5c0-.05.02-.08.07-.08l4.33-.03c.04.06.1.05.19-.03Z" fill="#251464"/><path d="M24.38 25.48h3.87a.04.04 0 0 1 .04.02.04.04 0 0 1 0 .05L24.4 30.6l-.02.02a.04.04 0 0 1-.05-.04v-5.06a.04.04 0 0 1 .04-.04ZM32.04 28.95a1732.67 1732.67 0 0 1-2.6-3.43s0-.02.02-.02l.02-.01 3.93-.01c.03 0 .04.01.04.04v5.11c0 .1-.03.1-.08.03-.25-.35-.5-.66-.72-.94-.08-.1-.13-.1-.26-.1h-5.37c-.06 0-.07-.02-.04-.07l1.87-2.6a.03.03 0 0 1 .02 0h.02l1.5 1.94c.05.06.12.09.23.1a31.07 31.07 0 0 0 1.42-.03Z" fill="#FFF600"/><path d="M38.36 25.49h1.71l.08.02c.04.02.09.03.14.03h.81c.06 0 .07.02.03.07L39.91 27h-4.67c-.01 0 0 0 0 0s0-.01 0 0v2.56a.06.06 0 0 0 .06.07h4.64c.01 0 .03 0 .04-.02a.06.06 0 0 0 .02-.04v-.5c0-.02 0-.03-.02-.04 0-.01-.02-.03-.04-.03h-2.22a.14.14 0 0 1-.05-.04l-.64-.96H41v2.78h-7.18c-.04 0-.06-.01-.06-.04l.01-5.1c0-.02.02-.1.05-.1h4.35c.07 0 .12-.02.13-.06.01.02.03.02.05.02.01 0 .02 0 .01-.01Z" fill="#251464"/><path d="M18.16 28.8c.08.1.14.24.19.44H14.6s-.02 0-.02-.02a1.22 1.22 0 0 1 0-.4l.04-.02h3.53ZM18.48 29.56c.06.1.12.22.17.39H14.6l-.02-.02v-.35c0-.01 0-.02.02-.02h3.88ZM18.8 30.32c.09.1.15.26.19.45h-4.4l-.01-.02v-.4c0-.02 0-.02.02-.02h4.2ZM14.94 36.23a.03.03 0 0 1-.02 0 .03.03 0 0 1-.01-.02c-.1-.4-.16-.8-.2-1.16a26.54 26.54 0 0 1-.11-3.88l.03-.01a2019.01 2019.01 0 0 0 12.51 0c.06 0 .06.03 0 .05-2.98 1.18-4.9 1.92-6.6 2.64l-5.6 2.38ZM41.06 36.23l-5.6-2.38c-1.69-.72-3.62-1.46-6.6-2.64-.06-.03-.06-.04 0-.05l.14-.01a2023.95 2023.95 0 0 0 12.4.02l.01.03c.05 1.34.01 2.62-.12 3.84a10.36 10.36 0 0 1-.22 1.19h-.01Z" fill="#fff"/><path d="m32.97 40.22-.58-.3a.06.06 0 0 0-.06 0 .06.06 0 0 0-.03.04V42a.04.04 0 0 1-.02.04.04.04 0 0 1-.05 0l-1.87-1.43a.8.8 0 0 1 .36-.07c.43-.02 1.05-.32 1.08-.84.02-.29 0-.58-.06-.87l-.63-3.56c-.06-.4-.19-.7-.6-.82a1.8 1.8 0 0 0-.5-.1l-3.85-.01c-.54 0-1.11.12-1.23.75-.15.78-.31 1.7-.49 2.76-.08.47-.2 1-.24 1.43-.02.3 0 .5.03.6.1.22.25.39.47.5.19.09.37.14.52.16.2.01.35.03.44.05l-1.92 1.46a.03.03 0 0 1-.04-.02v-2.08a.05.05 0 0 0-.03-.04.05.05 0 0 0-.05 0l-.58.32.06-.3.7-5.65c.09-.73.35-1.31 1.08-1.57.17-.06.45-.1.82-.1h4.82c.7 0 1.33.38 1.55 1.06.07.21.12.43.15.66.29 2.5.51 4.36.67 5.58l.08.31Z" fill="#F6C41F"/><path d="M25.11 34a.1.1 0 0 1-.08-.04.15.15 0 0 1-.03-.1v-.32c0-.07.01-.14.04-.2a.56.56 0 0 1 .1-.18.42.42 0 0 1 .34-.16h5.05c.06 0 .12.01.18.04l.15.12c.05.05.08.11.1.18.03.06.04.13.04.2v.32c0 .04-.01.07-.03.1a.1.1 0 0 1-.08.04H25.1Z" fill="#008CE1"/><path d="M25.4 38.52c.35 0 .9-.05 1.39-.01.27.02.56 0 .83.03h1.35l.01-.04v-2.25a.05.05 0 0 0-.02-.04h-.01l-.02-.01-.64.02v-.12c0-.05-.02-.07-.07-.08-.35-.05-.5 0-.45.16-.02.03-.06.04-.11.03v-.7c0-.05-.04-.08-.1-.08h-.45c-.06 0-.09.03-.09.09l-.01.7-.16-.03a.06.06 0 0 0-.05.02.06.06 0 0 0-.02.04l-.01.9h-.8v-.89a.05.05 0 0 0-.03-.04c-.17-.04-.32-.04-.48-.18-.17-.15-.16-.6 0-.77.22-.26.42-.27.81-.27h3.05c.39 0 .73.14 1.02.35.22.15.33.37.32.64a.09.09 0 0 1-.08.08h-.68a.08.08 0 0 0-.08.09v2.33a.05.05 0 0 0 .02.04.06.06 0 0 0 .04.02h.79c.37.02.73.28.8.66.03.22.04.54-.12.72-.3.35-.54.41-1.02.41h-4.58c-.3 0-.52-.02-.63-.06-.26-.09-.6-.37-.6-.68-.02-.3 0-.58.23-.8.18-.17.4-.27.64-.28Z" fill="#F6C41F"/><path d="m27.66 36.21-.04 2.33c-.28-.02-.56 0-.84-.03-.47-.04-1.03 0-1.39.01h-.17a.12.12 0 0 1-.12-.11v-1.2c0-.04.02-.06.05-.06h1.62l.16.02a.06.06 0 0 0 .05-.02.07.07 0 0 0 .02-.05v-.89l.02-.7c0-.05.03-.08.09-.08h.45c.06 0 .1.03.1.09v.7ZM28.29 36.22v2.18c0 .08-.04.12-.12.12h-.28c-.08 0-.12-.04-.12-.12v-2.22c-.05-.16.1-.21.45-.16.05 0 .07.03.07.08v.12Z" fill="#1E1A17"/><path d="M27.77 36.18v2.22c0 .08.04.12.12.12h.28c.08 0 .12-.04.12-.12v-2.18l.64-.02h.02a.05.05 0 0 1 .03.03v2.27l-.01.03-.03.02h-1.32l.04-2.34c.05.01.1 0 .11-.03Z" fill="#008CE1"/><path d="M16.6 40.04a9.3 9.3 0 0 1-1.65-3.66c0-.04 0-.06.05-.06h4v5.98c0 .02 0 0 0 0-.01.01.01 0 0 0 0 0 .01.01 0 0l-1.27-1.02c-.36-.3-.73-.71-1.13-1.24ZM39.4 40.04c-.68.9-1.53 1.55-2.4 2.25-.01.01 0 0 0 0-.01 0 0 .01 0 0-.01 0 0 .02 0 0v-5.97s0-.01 0 0c-.01 0 0 0 0 0h4c.04 0 .06.02.05.06a9.31 9.31 0 0 1-1.65 3.66Z" fill="#fff"/><path d="M31.02 39.19h-1a.08.08 0 0 0-.08.08v.74c0 .05.04.08.09.08h1c.04 0 .07-.04.07-.08v-.74a.08.08 0 0 0-.08-.08ZM25.97 39.2l-.98-.01a.08.08 0 0 0-.09.08V40c0 .05.04.09.08.09h.99c.05 0 .08-.04.08-.08v-.73a.08.08 0 0 0-.08-.09ZM26.45 39.9v-.52a.13.13 0 0 1 .13-.13h.6a.13.13 0 0 1 .13.13v.52a.13.13 0 0 1-.13.13h-.6a.13.13 0 0 1-.13-.13ZM29.05 39.25h-.57a.12.12 0 0 0-.12.13v.52c0 .07.06.13.13.13h.56c.07 0 .13-.06.13-.13v-.53a.12.12 0 0 0-.13-.12Z" fill="#1E1A17"/><path d="M25.66 40.6c.16-.07.33-.08.52-.06.29.04.57.06.87.06-.24.19-.4.31-.46.38-.34.36-.7.7-1.08 1.02a5.4 5.4 0 0 0-.38.4.05.05 0 0 0 0 .05l.3.79c0 .03.02.03.04.01a41.14 41.14 0 0 0 1.6-1.48c.04-.04.07-.1.07-.17a34.1 34.1 0 0 1 .03-.6.05.05 0 0 1 .03-.02l.53-.01a.05.05 0 0 0 .05-.04c.01-.1 0-.21-.02-.33.15-.1.3-.1.47-.01v.35c0 .02.02.04.04.04h.52a.07.07 0 0 1 .07.07v.56a.21.21 0 0 0 .07.15l1.6 1.5h.04l.3-.8a.07.07 0 0 0 0-.08 6.18 6.18 0 0 0-.44-.43 8.87 8.87 0 0 1-.47-.44c-.33-.33-.68-.64-1.03-.91h.33c.24 0 .49-.06.73-.06a.8.8 0 0 1 .37.07l1.87 1.43h.02a.04.04 0 0 0 .05-.01v-2.07a.06.06 0 0 1 .09-.05l.58.31.62.37a.12.12 0 0 1 .06.1v2.96a.05.05 0 0 1-.05.05h-.02c-.22-.06-.4-.1-.55-.08-.1-.1-.23-.16-.42-.16a.05.05 0 0 0-.05.05v.52a.13.13 0 0 1-.06.11l-1.1.6-1.44.76a.05.05 0 0 1-.05 0l-.02-.01v-.03c0-.24.09-.45.05-.71.03-.22.03-.4-.09-.52a2500.99 2500.99 0 0 0-1.87-1.84c-.42.44-1.03 1.04-1.8 1.8a.38.38 0 0 0-.13.26l.01.3.06.65c0 .06-.02.1-.07.1l-.1-.04a86.44 86.44 0 0 1-2.38-1.29.26.26 0 0 1-.11-.13c-.05-.14-.02-.38-.03-.54a.04.04 0 0 0-.03-.03 1 1 0 0 0-.46.12l-.52.12a.05.05 0 0 1-.05-.01l-.01-.02V40.67c0-.02 0-.04.03-.06l.65-.38.58-.32.03-.01a.05.05 0 0 1 .04.03l.01.02v2.1h.04l1.92-1.46Z" fill="#1E1A17"/><path d="M27.76 40.6c.02.12.03.23.02.33a.05.05 0 0 1-.05.04l-.53.01-.04.02a34.13 34.13 0 0 0-.02.6c0 .07-.03.13-.08.17l-.27.24c-.37.36-.8.78-1.32 1.24-.02.02-.04.02-.05-.01l-.3-.79.01-.06.38-.4c.38-.31.74-.65 1.08-1 .06-.08.22-.2.46-.39h.7ZM28.93 40.6c.35.27.7.58 1.03.91l.47.44c.11.1.26.24.43.43.02.02.03.05.02.07l-.31.8c0 .02-.02.02-.03.01l-1.61-1.5a.2.2 0 0 1-.07-.15v-.56a.07.07 0 0 0-.07-.07h-.52c-.02 0-.04-.02-.04-.04v-.35h.7ZM29.94 44.75h-3.87a1.83 1.83 0 0 1-.02-.3c0-.09.05-.18.13-.26a291.92 291.92 0 0 0 1.83-1.8l1.84 1.84c.12.12.12.3.09.52ZM24.63 44.76l-.42-.11a1.83 1.83 0 0 1-1.27-1.06 1 1 0 0 1 .45-.12h.03l.01.03c0 .16-.02.4.03.54.01.05.05.1.12.13l1.05.59ZM33.03 43.62c-.06.15-.1.24-.13.28-.24.33-.54.56-.93.7-.11.05-.3.1-.57.14l1.1-.6a.13.13 0 0 0 .06-.11v-.52a.05.05 0 0 1 .05-.05c.18 0 .32.05.42.16Z" fill="#F6C41F"/></svg>