<!-- by TradingView --><svg width="56" height="56" viewBox="0 0 56 56" xmlns="http://www.w3.org/2000/svg"><path fill="#E31E26" d="M0 0h56v56H0z"/><path d="M28.32 17.26c.02.06.02.13 0 .19v.65c0 .02.01.03.03.03 1.28.01 2.56.08 3.83.22.04 0 .07 0 .1-.03.22-.17.43-.36.62-.6l.15-.17c.09-.08.18-.17.27-.28a.95.95 0 0 1 .2-.18.07.07 0 0 1 .1.04c.03.1.08.15.14.21.12.15.24.27.38.36a9.65 9.65 0 0 0 1.46 1.18c1.34.28 2.66.65 3.96 1.1 1.64.58 3.23 1.34 4.69 2.32 1.64 1.11 3.18 2.65 3.78 4.62a9.9 9.9 0 0 0-2.3.05l-.08-.15v-.04c.1-.11.2-.19.06-.33-.1-.1-.23-.16-.3-.27-.18-.3-.2-.47-.29-.87-.02-.1-.07-.25-.16-.44-.22-.47-.26-.97-.87-1.09a1.8 1.8 0 0 0-.38-.04c-.2 0-.38.16-.5.22-.14.09-.2.06-.4.03-.13-.03-.6.06-.56.33.02.14.03.26-.06.36a.05.05 0 0 1-.06 0c-.16-.1-.35-.29-.4-.48-.04-.11-.03-.16-.11-.21a.92.92 0 0 0-.6-.15c-.2 0-.35.04-.41.25-.1.4-.24.76-.39 1.1-.06.14-.14.25-.3.31-.2.07-.37.2-.5.38a.44.44 0 0 1-.12.13c-.25.12-.47.28-.68.48a5.77 5.77 0 0 0-1.7.22 20.2 20.2 0 0 1 .1-6.38c.03-.1.02-.18-.07-.23a37.99 37.99 0 0 1-3.1-2.04c-.12-.09-.23-.2-.33-.3-.08-.1-.14-.05-.2.03-.41.69-1.06 1.3-1.89 1.32a.1.1 0 0 0-.06.03.1.1 0 0 0-.03.06c-.09.8-.47 1.7-1.24 2.05a.09.09 0 0 0-.05.1c.1.92-.23 1.86-1.1 2.27a.1.1 0 0 0-.05.1c.08.64.06 1.37-.21 1.97-.01.03-.03.03-.03 0-.08-.34-.15-.72-.21-1.14a44.45 44.45 0 0 1-.4-7.94 9.23 9.23 0 0 0 1.78-.82c.08-.05.16-.12.24-.21.03-.03.04-.06.04-.08-.01-.05-.04-.07-.09-.04-.3.15-.64.27-.99.37-.38.11-.85.19-1.22 0a.05.05 0 0 0-.07.04l-.02 1.48c0 .02 0 .03-.02.02-1.36-.25-2.71-.6-3.96-1.16-.44-.2-.8-.46-1.1-.76-.03-.04-.06-.06-.1-.07-.05 0-.08.02-.1.08-.38 1.08-1.12 2.1-2.24 2.4a.08.08 0 0 0-.05.03.08.08 0 0 0-.01.05 2.74 2.74 0 0 1-1.49 2.62.15.15 0 0 0-.07.18c.2.55.2 1.18-.03 1.72a2.32 2.32 0 0 0-.9-.27 4.8 4.8 0 0 0-2.28.26 6.8 6.8 0 0 1-1.89-1c-.05-.05-.06-.04-.03.02.15.26.35.49.6.68l-.6-.03-1.54.01a23.68 23.68 0 0 1 7.7-3.1c.02 0 .03-.01.04-.04l.07-.7.03-.22.05-.54c0-.01 0-.02.03-.02l.14-.04a3.02 3.02 0 0 0 1.85-1.32c.16-.25.3-.58.43-.97.02-.08.1-.18.2-.18.12 0 .2.05.26.14.1.14.18.25.26.31.35.3.83.54 1.24.7.63.26 1.32.5 2.07.7.13.03.26.05.39.04a15.02 15.02 0 0 0 .7-.06v-1c0-.1.02-.2.05-.29 0-.01.01-.03.03-.03a.31.31 0 0 1 .27-.04c.17.05.34.13.5.15.37.04.66-.01 1.04-.18.18-.08 1.08-.54 1.12-.16.03.37-.3.7-.58.87-.43.26-.91.49-1.45.69-.03 0-.04.03-.04.06l.01.36Z" fill="#fff"/><path d="M36.93 26.7c.15 1.24.38 2.47.7 3.67.04.12.04.22-.1.22a378.02 378.02 0 0 0-2.07-.04l-.02 1.96c0 .02 0 .03.03.03a6.4 6.4 0 0 0 2.66-1.02 13.46 13.46 0 0 0 1.68-1.2.1.1 0 0 1 .09 0l.03.04.01.07-.01.06c-.18.58-.4 1.12-.68 1.62-.4.72-.96 1.3-1.7 1.59-.86.33-1.84.37-2.75.38a341.5 341.5 0 0 1-9.1 0c.14-.73.05-1.4-.44-1.97.13-.26.18-.5.17-.7-.03-.37-.36-.39-.63-.27l-.07-.21c.18-.06.33-.09.45-.08a458.33 458.33 0 0 1 2 .06v-1c0-.02 0-.03-.02-.03l-9.88-.18a.85.85 0 0 1-.33-.05.52.52 0 0 1-.24-.25c-.03-.06-.04-.1-.02-.14.24-.39.4-.8.5-1.23.11-.52.05-1-.18-1.46a.13.13 0 0 1 .02-.16 2.9 2.9 0 0 0 .68-2.83c-.02-.08.02-.14.08-.19.33-.24.59-.55.76-.93.23-.54.23-1.16.04-1.72a.15.15 0 0 1 .06-.18 2.74 2.74 0 0 0 1.49-2.62l.01-.05a.08.08 0 0 1 .05-.03c1.12-.3 1.86-1.32 2.24-2.4.02-.06.05-.08.1-.08.03 0 .07.03.1.07.29.3.66.56 1.1.76 1.25.56 2.6.91 3.96 1.16.01 0 .02 0 .02-.02l.02-1.48a.05.05 0 0 1 .04-.05h.03c.37.2.83.12 1.22.01.35-.1.68-.22 1-.37.04-.03.07-.01.08.04 0 .02-.01.05-.04.08-.08.09-.16.16-.25.21a9.23 9.23 0 0 1-1.78.82l-.01.12c-.1 2.6.05 5.2.41 7.82.07.42.14.8.22 1.14 0 .03.01.03.03 0 .27-.6.3-1.33.2-1.98a.1.1 0 0 1 .06-.1c.87-.4 1.2-1.34 1.1-2.27a.09.09 0 0 1 .05-.09c.77-.35 1.15-1.24 1.24-2.05a.1.1 0 0 1 .03-.06.1.1 0 0 1 .06-.03c.83-.01 1.48-.63 1.9-1.32.05-.08.11-.14.2-.04.09.12.2.22.31.31a38 38 0 0 0 3.11 2.04c.1.05.1.12.07.23a20.2 20.2 0 0 0-.1 6.38Z" fill="#C61D22"/><path d="m26.87 20.04-5.4-1.73a.11.11 0 0 1-.04-.02.1.1 0 0 1-.03-.04.08.08 0 0 1 .03-.1c.38-.2.61-.49.84-.85.05-.08.1-.08.17-.02.16.16.3.3.46.43a13.74 13.74 0 0 0 4.07 2.18l.02.03.01.03V20a.1.1 0 0 1-.06.04.1.1 0 0 1-.07 0Z" fill="#fff"/><path d="m33.05 17.55-.15.18a41.97 41.97 0 0 0-4.57-.28.53.53 0 0 0 0-.19h.23c1.49.02 2.99.12 4.5.3ZM28.22 40h-1.09a39.07 39.07 0 0 1-8.26-.98c-2.12-.5-4.17-1.2-6.12-2.17-1.2-.6-2.28-1.29-3.27-2.1a9.75 9.75 0 0 1-3.03-3.92c-.64-1.66-.6-3.3.13-4.91a7.7 7.7 0 0 1 .93-1.52 13.51 13.51 0 0 1 4.1-3.4 28 28 0 0 1 8.14-2.93l-.03.22c-1.43.3-2.84.7-4.2 1.18-1.67.6-3.28 1.36-4.76 2.35-1.62 1.07-3.2 2.56-3.98 4.41a5.95 5.95 0 0 0-.2 4.19c.3.97.86 1.87 1.53 2.65.52.6 1.09 1.14 1.7 1.62a19.39 19.39 0 0 0 4.58 2.6c3 1.23 6.17 1.93 9.42 2.25 4.2.42 8.53.22 12.66-.67 2.26-.49 4.44-1.2 6.47-2.18 1.31-.64 2.6-1.43 3.7-2.37a9.2 9.2 0 0 0 2.57-3.35c1.15-2.75.17-5.37-1.8-7.38a15.64 15.64 0 0 0-4.04-2.87c-.88-.45-1.8-.85-2.75-1.2a32.58 32.58 0 0 0-6.26-1.59.89.89 0 0 1-.22-.23 33 33 0 0 1 7.16 1.84c.87.33 1.72.73 2.57 1.17a16 16 0 0 1 3.52 2.47 8.2 8.2 0 0 1 2.44 3.93 6.48 6.48 0 0 1-1.1 5.22c-.39.56-.8 1.05-1.22 1.47-.8.77-1.66 1.45-2.61 2.04a22.3 22.3 0 0 1-3.37 1.7c-1.2.5-2.42.9-3.66 1.22A39.5 39.5 0 0 1 28.22 40Z" fill="#EAEBEC"/><path d="m19.72 18.29-.08.7c0 .03-.01.04-.04.05-2.67.6-5.38 1.57-7.7 3.1-2.45 1.57-4.81 4.2-4.16 7.43.5 2.51 2.66 4.42 4.72 5.65 1.32.77 2.74 1.42 4.28 1.93 3 1 6.12 1.52 9.29 1.67 3.71.18 7.5-.15 11.07-1.06 1.96-.5 3.92-1.22 5.7-2.18 2.42-1.32 5.03-3.44 5.43-6.42.1-.73.03-1.48-.2-2.24-.6-1.97-2.14-3.5-3.78-4.62a20.47 20.47 0 0 0-4.7-2.32c-1.29-.45-2.61-.82-3.96-1.1a9.64 9.64 0 0 1-1.24-.95c2.15.33 4.24.86 6.27 1.6a24 24 0 0 1 2.75 1.19c1.47.75 2.87 1.7 4.04 2.87 1.97 2 2.95 4.63 1.8 7.38a9.2 9.2 0 0 1-2.57 3.35c-1.1.94-2.39 1.73-3.7 2.37-2.03.98-4.2 1.7-6.47 2.18a41.1 41.1 0 0 1-12.66.67 33.53 33.53 0 0 1-9.42-2.25 19.38 19.38 0 0 1-4.57-2.6c-.62-.48-1.2-1.02-1.71-1.62a7.63 7.63 0 0 1-1.53-2.65c-.44-1.4-.37-2.8.2-4.19.77-1.85 2.36-3.34 3.98-4.41a21.97 21.97 0 0 1 4.75-2.35c1.37-.49 2.78-.88 4.21-1.18Z" fill="#C61D22"/><path d="M32.94 19.35c.19.28.42.52.67.74.46.4.98.8 1.53 1.16.06.04.07.1.04.15a.07.07 0 0 1-.1.02l-2.69-1.58a.08.08 0 0 1-.04-.07c0-.05.02-.09.07-.12a2.23 2.23 0 0 0 .43-.33.07.07 0 0 1 .07 0l.02.03ZM26.28 22.75c-.05 0-2.16-.56-6.35-1.65-.04 0-.06-.03-.08-.06a.08.08 0 0 1 .03-.09c.28-.23.49-.53.63-.88.02-.07.06-.09.1-.08a32.32 32.32 0 0 0 5.7 2.59c.06.02.09.06.08.12l-.05.05a.1.1 0 0 1-.06 0ZM34.67 23.3l-3.4-1.52a.09.09 0 0 1-.05-.04.1.1 0 0 1 0-.07.23.23 0 0 1 .06-.08c.19-.11.34-.28.45-.5.06-.11.13-.06.2.02.1.15.24.3.4.45a9.51 9.51 0 0 0 2.4 1.55c.07.03.08.07.06.13-.02.06-.06.08-.12.05Z" fill="#fff"/><path d="M15.37 22.45a11.88 11.88 0 0 0 1.62.52h-.03c-1-.01-2.08-.24-2.9-.82-.26-.2-.46-.42-.6-.68-.04-.06-.03-.07.02-.03a6.8 6.8 0 0 0 1.89 1Z" fill="#C61D22"/><path d="M14.05 22.15a5.27 5.27 0 0 0 2.94.8c-.55-.13-1.1-.3-1.62-.5a4.8 4.8 0 0 1 2.28-.26c.33.03.62.12.9.27-.17.38-.43.69-.76.93-.06.05-.1.11-.08.19a2.9 2.9 0 0 1-.68 2.83.13.13 0 0 0-.02.16c.23.45.3.94.18 1.46-.1.43-.26.84-.5 1.23-.02.03-.01.08.02.14.05.12.13.2.24.25.07.03.17.05.33.05l9.88.18c.02 0 .03.01.03.03l-.01 1c0 .02-.01.03-.03.03l-1.97-.1c-.12 0-.27.03-.45.09-.61.2-1.02.62-1.24 1.24 0 .02-.03.04-.05.03l-1.42-.15c-.02 0-.03 0-.04-.02l-.56-.9v-.02a.01.01 0 0 1 .01 0l.47.02h.03l.03-.03a.08.08 0 0 0 .01-.06.15.15 0 0 0-.87-.76l-.98.58a.07.07 0 0 0-.03.05.07.07 0 0 0 .02.06c.04.03.07.04.12.04l.3.05c.02 0 .03.01 0 .03-.2.1-.38.24-.53.4-.03.02-.07.1-.13.21-.01.02-.02.02-.04.02a28.64 28.64 0 0 1-4.39-1.07.07.07 0 0 0-.05.04v.03c0 .05.03.1.09.14.57.36 1.1.76 1.58 1.2.21.2.41.42.59.66.12.18.2.37.25.57.03.13.06.22.13.32l.02.02.04.02 3.6.3c.28.03.58.04.9.05a3738.87 3738.87 0 0 0 5.64.1c2.2.02 4.4 0 6.57-.02.9-.01 1.9-.05 2.75-.38.74-.29 1.3-.87 1.7-1.6a8.76 8.76 0 0 0 .7-1.67c0-.04-.01-.06-.02-.07a.11.11 0 0 0-.07-.05.1.1 0 0 0-.09.03c-.48.4-1.03.8-1.64 1.18a6.4 6.4 0 0 1-2.66 1.02c-.02 0-.03-.01-.03-.03l.02-1.96.01-.01c.48 0 1.16.02 2.05.05.15 0 .15-.1.12-.22-.32-1.2-.56-2.43-.71-3.66a5.77 5.77 0 0 1 1.7-.22c-.32.3.15.35.23.58a.09.09 0 0 1-.05.1l-.13.07-.01.01v.01a.03.03 0 0 0 0 .03c.2.12.48.06.71.15.3.1.55.34.62.66a9.91 9.91 0 0 0 1.43 0 .03.03 0 0 0 0-.03l-.05-.08a.07.07 0 0 1 0-.04v-.04a.1.1 0 0 1 .05-.03l.05-.01.27.01h.03l.02-.01a.06.06 0 0 0 .01-.05c-.03-.15.02-.29.14-.37.06-.04.11-.08.11-.18 0-.1-.01-.2-.04-.32a21.98 21.98 0 0 0-.18-.75c.05-.12.13-.15.1-.3-.04-.22-.08-.4.04-.6h.01a.04.04 0 0 1 .03-.01h.02a2 2 0 0 1 .41.52v.04c-.14.16-.18.24-.09.46.04.09.07.18.08.27a5.06 5.06 0 0 1 .07 1.35.1.1 0 0 0 .06.05l.13.01a56.04 56.04 0 0 0 2.26-.08c.02-.2.1-.36.26-.48l.46-.34c.04-.03.06-.07.04-.12a9.9 9.9 0 0 1 2.31-.05c.23.76.3 1.5.2 2.24-.4 2.98-3.01 5.1-5.43 6.42a24.95 24.95 0 0 1-5.7 2.18 37.76 37.76 0 0 1-20.36-.6 22.03 22.03 0 0 1-4.28-1.94c-2.06-1.23-4.22-3.14-4.72-5.65-.65-3.23 1.71-5.86 4.17-7.44l1.54-.01.6.03Z" fill="#EAEBEC"/><path d="M23.23 24.57a32424.59 32424.59 0 0 1-4.19-.79.07.07 0 0 1-.03-.05.07.07 0 0 1 .03-.06c.32-.27.48-.6.62-1 .03-.07.08-.08.14-.02.15.13.32.24.49.34.73.42 1.57.73 2.37.99 1.11.36 2.27.67 3.48.95.06.01.08.05.08.1s-.07.07-.2.06l-2.79-.52ZM30.84 23.18c.35.45.82.83 1.31 1.16.7.47 1.45.86 2.26 1.18.06.02.1.07.1.13v.01a.06.06 0 0 1-.04.06h-.06l-4.02-1.64c-.1-.04-.14-.07-.15-.11l.01-.05c.05-.07.16-.15.22-.24.07-.1.14-.25.21-.46.01-.04.03-.06.04-.07a.08.08 0 0 1 .06-.01.1.1 0 0 1 .06.04Z" fill="#fff"/><path d="M17.31 23.8c-.98.08-2.08.1-2.93-.5-.1-.07-.1-.08.02-.03.18.09.37.16.59.22a9.46 9.46 0 0 0 2.33.29v.02ZM14.1 26.06a.44.44 0 0 0 .03.28c.09.21.12.38.01.6-.15.32-.31.63-.48.92-.1.19-.18.37-.41.42-.1.03-.28.04-.55.04l-1.38-.02a.8.8 0 0 1-.33-.06c-.48-.25-.28-.77-.07-1.13.7-1.15 1.4-2.24 2.11-3.28.12-.17.27-.3.47-.3.24.03.43.07.57.13.18.07.17.24.2.41l.05.1c.16.18.2.4.13.62l-.35 1.27ZM45.73 26.97c.01.05 0 .1-.05.12l-.46.34a.61.61 0 0 0-.25.48 56.04 56.04 0 0 1-2.4.07.1.1 0 0 1-.06-.05 5.06 5.06 0 0 0-.15-1.62c-.1-.22-.05-.3.09-.46v-.04a1.99 1.99 0 0 0-.42-.52h-.04l-.01.02c-.12.2-.08.37-.04.59.03.15-.05.18-.1.3v.04l.18.71c.03.11.04.22.04.32s-.05.14-.11.18c-.12.08-.17.22-.14.37v.02a.06.06 0 0 1-.06.04l-.27-.01h-.05a.1.1 0 0 0-.04.04.08.08 0 0 0-.02.04l.01.04.05.08v.04l-.03.01a9.91 9.91 0 0 1-1.4-.02.96.96 0 0 0-.62-.66c-.23-.09-.5-.03-.7-.15l-.01-.01v-.04l.14-.06a.09.09 0 0 0 .05-.11c-.08-.23-.55-.27-.23-.58.2-.2.42-.36.67-.48.04-.02.1-.08.13-.13a.99.99 0 0 1 .48-.38c.17-.06.25-.17.31-.3.15-.35.28-.72.39-1.1.06-.22.2-.26.41-.26.25-.01.41.03.6.15.08.05.07.1.1.2.06.2.25.39.4.5a.05.05 0 0 0 .07-.01c.09-.1.08-.22.06-.36-.05-.27.43-.36.56-.33.2.03.26.06.4-.03.12-.06.3-.21.5-.22.1 0 .23.01.38.04.6.12.65.62.87 1.1.09.18.14.33.16.43.1.4.1.57.29.87.07.11.2.17.3.27.14.14.03.22-.05.33a.03.03 0 0 0 0 .04l.07.15Z" fill="#C61D22"/><path d="M14.05 24.56c.12 0 .25.03.17.2a4.52 4.52 0 0 0-.37 1.04c-.03.09-.08.15-.14.22-.02.02-.04.09-.04.18l.07.17c.05.1.05.2.02.3a5.71 5.71 0 0 0-.23.8 4.7 4.7 0 0 1-.26.47h-.01v-.01c-.06-.2-.1-.48-.25-.67a.1.1 0 0 1 0-.12c.22-.25.35-.55.39-.89l.06-.55c.03-.12.08-.27.16-.47.13-.3.16-.66.04-.96a58.02 58.02 0 0 1-.07-.26.06.06 0 0 1 .04-.03c.08 0 .15 0 .21.02.02 0 .03.01.04.03a.5.5 0 0 1 .1.26c0 .05.01.13.04.25 0 .01.01.02.03.02ZM44.2 24.55a.03.03 0 0 0 .01-.03.73.73 0 0 0-.4-.2c-.13-.03-.13-.06-.01-.09.23-.05.55-.01.71.18.05.06.1.16.12.3.04.24.07.4.18.61.08.15.06.26.05.4-.02.16 0 .22.09.35.16.23.18.48.01.71a.31.31 0 0 1-.13.12.07.07 0 0 1-.08-.02c-.16-.21-.35-.4-.36-.63 0-.21-.03-.4-.08-.59-.01-.03 0-.06.03-.08l.13-.07a.1.1 0 0 0 .05-.13.58.58 0 0 0-.23-.3c-.12-.09-.2-.14-.25-.25v-.04c.04-.09.1-.17.17-.24ZM26.4 27.42l-7.88-.83a.1.1 0 0 1-.08-.09s0-.03.03-.06a2.3 2.3 0 0 0 .43-1.1l.03-.02a.08.08 0 0 1 .08 0c.29.15.61.3.98.43.77.28 1.62.53 2.55.75 1.25.3 2.53.54 3.86.74.06 0 .09.04.09.1v.01a.08.08 0 0 1-.06.07h-.03ZM34.84 27.9l-5.12-1.52a.14.14 0 0 1-.1-.1.8.8 0 0 1-.01-.27c0-.02 0-.03.02-.04.12-.13.2-.28.26-.45.02-.09.08-.15.17-.07.19.16.36.3.53.4.52.34 1.07.64 1.67.9.82.37 1.7.69 2.61.97.06.02.09.06.08.13l-.01.02a.09.09 0 0 1-.04.04h-.06ZM41.43 25.7v-.04c0-.02.01-.03.03-.02.08.03.13.08.13.16a1.64 1.64 0 0 0 .14.62l-.04.33c0 .02 0 .04.02.05.16.2.15.4-.03.6a.09.09 0 0 1-.07.03.09.09 0 0 1-.07-.03l-.18-.24a.3.3 0 0 1-.05-.18 4.5 4.5 0 0 0 0-.44l.1-.1.02-.04v-.04c-.1-.16-.27-.24-.4-.32a.07.07 0 0 1 .01-.13l.36-.17c.02 0 .02-.02.03-.04ZM27.31 28.8c.05 0 .08.04.1.1l-.01.02c-.01.04-.04.06-.07.06l-8.85-.1-.05-.01a.12.12 0 0 1-.04-.04v-.07a2.37 2.37 0 0 0 .17-.94.07.07 0 0 1 .05-.04h.03c.4.14.82.24 1.28.3.72.12 1.28.2 1.67.24 1.91.2 3.82.37 5.72.48Z" fill="#EAEBEC"/><path d="M47.76 27.93h.03l-.02.41c-.02.7-.17 1.4-.43 2.03-.07.17-.17.42-.28.63a8.4 8.4 0 0 1-1.24 1.71c-1 1.07-2.21 1.95-3.5 2.65a25.3 25.3 0 0 1-6.87 2.46 37 37 0 0 1-10.32.66 29.98 29.98 0 0 1-10.52-2.59 14.7 14.7 0 0 1-4.51-3.15 7.96 7.96 0 0 1-1.5-2.26A5.78 5.78 0 0 1 8.13 28h.02v.23c.2 1.67 1.11 3.1 2.28 4.24.99.96 2.15 1.76 3.36 2.4a26.9 26.9 0 0 0 8.14 2.62c4.5.75 9.18.65 13.64-.3 2.52-.55 4.99-1.42 7.2-2.71.72-.41 1.4-.9 2.05-1.44 1.41-1.18 2.66-2.83 2.89-4.74l.04-.37Z" fill="#fff"/><path d="M30.32 28.52c1.43.53 2.98.84 4.55 1.02.05 0 .08.04.1.11-.03.06-.07.09-.13.08l-4.8-.3s-.02 0-.02-.02l-.39-1.14a.02.02 0 0 1 0-.02h.02c.23.1.45.2.67.27Z" fill="#EAEBEC"/><path d="m42.24 30.36.14-.97c.57-.02 1.17-.03 1.72-.09.16-.02.16-.04 0-.07a2.92 2.92 0 0 1-.43-.13c-.09-.03-.13-.07-.08-.17.05-.07.1-.13.16-.16.03-.01.03-.02 0-.02l-.79-.1a.04.04 0 0 1-.03-.03v-.05l.14-.18a.06.06 0 0 1 .04-.03l.35-.03a22.09 22.09 0 0 1 2.94.18c.1.02.18 0 .27.03.05.02.1 0 .14 0a.03.03 0 0 1 .02 0v.02c-.06.25-.5.33-.7.37a22.97 22.97 0 0 0-1.26.27c-.05.01-.05.03 0 .03.33.04.66.03 1-.04.05 0 .07.02.07.07l-.06.12c-.13.2-.57.27-.8.3-.56.05-1.26.08-1.86.19-.04 0-.04.02 0 .03a1.77 1.77 0 0 0 .81.1l.02.02a.04.04 0 0 1 0 .04c-.07.15-.21.2-.38.22-.48.05-.95.08-1.43.08Z" fill="#6BC9F0"/><path d="m42.38 29.4-.14.96c-.7.01-1.14.02-1.6-.02a.7.7 0 0 1-.24-.05.04.04 0 0 1-.02-.03.04.04 0 0 1 0-.03c.07-.1.13-.18.26-.2a3.27 3.27 0 0 1 .55-.06v-.01c-.34-.05-.68-.08-1.13-.12-.1-.01-.35-.03-.37-.18 0-.01 0-.02.02-.03l.17-.18h.01l.67-.16a.04.04 0 0 0 .03-.03v-.02l-.02-.02a.29.29 0 0 0-.13-.06 34 34 0 0 0-.96-.13c-.15-.02-.58-.1-.64-.25v-.05l.18-.19c.06-.05.12-.04.2-.04l2.63.17c.13.01.17-.01.28-.07.08-.04.1-.02.07.06a.28.28 0 0 1-.23.17c-.16.02-.32.06-.5.11-.06.02-.06.03 0 .04.2.03.38.06.58.07.03 0 .05 0 .08-.02a.73.73 0 0 1 .18-.1.05.05 0 0 1 .05.02.06.06 0 0 1 .02.06c-.03.1-.11.17-.24.21l-.35.11c-.17.04-.16.06 0 .06h.59Z" fill="#3BB2E4"/><path d="M11.89 30.7c.05-.01.05-.03 0-.04l-.83-.14c-.06-.01-.07-.04-.03-.09l.07-.03c.29-.1.65-.06.93-.11.07-.02.08-.04 0-.06a68.85 68.85 0 0 1-.87-.16l-.3-.09a.12.12 0 0 1-.06-.05.12.12 0 0 1 0-.09c.06-.24.36-.43.51-.58a.03.03 0 0 0 .01-.03v-.01h-.02a27.8 27.8 0 0 0-1.25-.1l-.27-.06a.04.04 0 0 1-.03-.03c-.06-.21.25-.29.4-.31.25-.04.49-.06.71-.07h2.26c.41 0 .82.02 1.22.05.1.01.19.03.27.07a.04.04 0 0 1 .02.04.04.04 0 0 1-.02.04 78.1 78.1 0 0 1-1.36.25 1.52 1.52 0 0 0-.37.12v.01a.03.03 0 0 0 .01.03c.04.03.1.04.15.04l.68.09a.5.5 0 0 1 .2.07l.02.03a.07.07 0 0 1-.01.07c0 .02-.02.02-.03.03-.1.03-.2.05-.32.06l-.9.02c-.2 0-.37.03-.54.08-.07.02-.07.04 0 .06l.07.01 1.08.18a2.43 2.43 0 0 1 .47.13l.02.04a.1.1 0 0 1 0 .05.12.12 0 0 1-.06.07c-.3.18-.6.3-.94.35-.06.01-.06.03 0 .06l.15.07.07.04c.02.04.01.07-.04.08a4.58 4.58 0 0 1-1.33 0 .06.06 0 0 1-.02-.05.06.06 0 0 1 .04-.05l.24-.09Z" fill="#6BC9F0"/><path d="M28.22 30.33v.01l6.82.18c.01 0 .02 0 .03.02l.01.03-.02 1.96-.01.02-2.22.04c-.02 0-.03 0-.03-.02-.12-.71-.5-1.17-1.13-1.37a2.8 2.8 0 0 0-.7-.1 1523.47 1523.47 0 0 0-3.42-.17l.01-1.03.02-.02.76-.04c.02 0 .02 0 .02.02-.02.17-.07.33-.14.47Z" fill="#EAEBEC"/><path d="m24.73 30.93.07.21a1.56 1.56 0 0 0-1.03 1.1.02.02 0 0 0 .01 0l.01.01 1.34.08a.04.04 0 0 0 .04-.02l.09-.2c.5.57.58 1.24.45 1.96L22.6 34c-.32 0-.62-.02-.9-.05a1014.06 1014.06 0 0 0-3.64-.32.08.08 0 0 1-.02-.02.81.81 0 0 1-.13-.32c-.04-.2-.13-.4-.25-.57a4.37 4.37 0 0 0-.59-.66c-.48-.44-1-.84-1.58-1.2-.06-.04-.1-.09-.1-.14a.07.07 0 0 1 .03-.06h.06a28.63 28.63 0 0 0 4.4 1.04c.06-.11.1-.19.13-.22.15-.15.33-.28.54-.4.02 0 .02-.01 0-.02l-.31-.05a.19.19 0 0 1-.12-.04.07.07 0 0 1-.02-.06.07.07 0 0 1 .03-.05l.98-.58a.15.15 0 0 1 .19.03 1831.32 1831.32 0 0 1 .68.73.08.08 0 0 1-.01.06.07.07 0 0 1-.06.03l-.47-.03v.01h-.01v.02l.56.9.04.02 1.42.15c.03 0 .04 0 .05-.03.22-.63.63-1.04 1.24-1.24Z" fill="#C61D22"/><path d="m20.92 30.88-.01.06c0 .02-.01.02-.03.02l-.48-.05c-.04 0-.04-.02 0-.04l.68-.4c.07-.04.08-.03.02.03-.1.1-.16.23-.18.38ZM25.26 32.1l-.1.2-.01.03h-.03l-1.33-.08a.02.02 0 0 1-.01 0v-.02c.12-.53.51-.9 1.02-1.09.27-.12.6-.1.63.27.01.2-.04.44-.17.7Z" fill="#EAEBEC"/><path d="M23.15 34.4a6.5 6.5 0 0 0-.05 2.74c-.38-.04-.75-.1-1.1-.2-.2-.04-.4-.1-.5-.26v-.05c.06-.2.34-.22.56-.27.1-.02.14-.07.14-.16a.1.1 0 0 0-.06-.1c-.1-.04-.22-.07-.35-.07l-1.23-.05c-.27-.01-.54-.02-.82-.01-.55 0-.92.01-1.44-.02a2.19 2.19 0 0 1-.71-.16c-.15-.06-.21-.18-.2-.35.03-.26 1.06-.24 1.27-.24l.92.02c.23.01.45 0 .66-.03.05-.01.08-.02.11-.05a.1.1 0 0 0 .04-.08.1.1 0 0 0-.05-.08.8.8 0 0 0-.25-.1c-.2-.05-.48-.08-.83-.1a25.43 25.43 0 0 1-1.83-.13l-.63-.02c-.3 0-.6-.05-.89-.12-.17-.04-.39-.22-.28-.42.36-.63 4.86.14 5.71.22.6.05 1.2.08 1.81.1Z" fill="#3BB2E4"/><path d="M23.1 37.14a6.5 6.5 0 0 1 .06-2.74l2.97.01c1.06.03 2 .04 2.85.04l.35-.01a127.4 127.4 0 0 1 4.65.06c.24 0 .64.03 1.21.07a.8.8 0 0 1 .3.08c.02 0 .03.02.03.03v.05a.16.16 0 0 1-.1.08c-.64.24-1.37.27-2.07.31l-.56.02a23.96 23.96 0 0 0-2.6.22c-.15.02-.42.08-.51.2v.05c.03.07.09.12.17.14.26.07.56.1.62.36a.11.11 0 0 1-.05.13c-.1.05-.2.08-.3.1l-.72.03c-.64 0-1.4-.04-2.24-.1-.18-.01-.39 0-.62.03-.17.02-.32.05-.34.26a.06.06 0 0 0 .01.04c.05.05.1.09.17.1l.48.06c.09.02.16.13.1.21-.1.1-.28.15-.41.17-.3.05-.58.08-.88.1-.87.04-1.72 0-2.57-.1Z" fill="#6BC9F0"/></svg>