<!-- by TradingView --><svg width="56" height="56" viewBox="0 0 56 56" xmlns="http://www.w3.org/2000/svg"><path fill="#F0F3FA" d="M0 0h56v56H0z"/><path d="M18 39.22c-5.98-2.25-10-6.44-10-11.24C8 20.8 16.95 15 28 15s20 5.81 20 12.98c0 4.8-4.02 9-10 11.24v-3.44c5.6-1.69 9.33-4.74 9.33-8.23 0-5.3-8.65-9.61-19.33-9.61-10.68 0-19.33 4.3-19.33 9.6 0 3.5 3.73 6.55 9.33 8.24v3.44Z" fill="#0E86F6"/><path d="M18.46 34.98V31h.53v3.98c0 .4.31.72.7.72h.3V40h-.58v-3.77a1.27 1.27 0 0 1-.95-1.25Zm3.16 0V31h-.54v3.98c0 .4-.3.72-.68.72h-.27V40h.54v-3.77c.54-.13.95-.64.95-1.25Zm-1.93-.66V31h-.54v3.32c0 .52.4.94.9.94s.9-.42.9-.94V31h-.54v3.32c0 .21-.16.38-.36.38a.37.37 0 0 1-.36-.38ZM22.54 32.83c0-.23.07-.58.24-.85a.87.87 0 0 1 .82-.44c.26 0 .44.1.58.24.14.14.24.34.3.58.14.45.14.95.14 1.2v.05h.54v-.05c0-.25 0-.83-.16-1.36a1.9 1.9 0 0 0-.44-.8 1.34 1.34 0 0 0-.94-.4 1.4 1.4 0 0 0-1.3.7 2.3 2.3 0 0 0-.32 1.12V40h.54v-7.17Zm1.05-.09a.33.33 0 0 0-.33.33v1.65h1.1v.54h-1.64v-2.19a.87.87 0 0 1 1.75 0v.54h-.55v-.54a.33.33 0 0 0-.33-.33ZM22.72 36h1.63v.55h-1.1V40h-.53v-4ZM35.54 32.83c0-.23.07-.58.24-.85a.87.87 0 0 1 .82-.44c.26 0 .44.1.58.24.14.14.24.34.3.58.14.45.14.95.14 1.2v.05h.54v-.05c0-.25 0-.83-.15-1.36a1.9 1.9 0 0 0-.45-.8 1.34 1.34 0 0 0-.94-.4 1.4 1.4 0 0 0-1.3.7 2.3 2.3 0 0 0-.32 1.12V40h.54v-7.17Zm1.05-.09a.33.33 0 0 0-.33.33v1.65h1.1v.54h-1.64v-2.19a.87.87 0 0 1 1.75 0v.54h-.55v-.54a.33.33 0 0 0-.33-.33ZM35.72 36h1.63v.56h-1.1V40h-.53v-4Z" fill="#BF2436"/><path d="M27.49 31.55h-2.26V31H28v9H26c-.32 0-.57-.27-.74-.68a5.81 5.81 0 0 1-.29-2.1c0-1.02.14-1.68.33-2.1.09-.21.2-.37.3-.48.12-.1.25-.18.4-.18h.72v-1.92h-1.48V32h2.02v3H26l-.04.04a.94.94 0 0 0-.19.3c-.14.33-.28.9-.28 1.88 0 .98.12 1.56.25 1.9.07.16.13.25.18.3a.2.2 0 0 0 .05.03h1.51v-7.9Z" fill="#BF2436"/><path fill-rule="evenodd" d="M26.69 36.24h-.2c-.1 0-.18.08-.18.18v1.59c0 .1.08.18.18.18h.2v-1.95Zm-.2-.54c-.4 0-.72.32-.72.72v1.59c0 .4.32.72.72.72h.74V35.7h-.74Z" fill="#BF2436"/><path d="M31.37 31.54h-3.02V31h3.02v.54Zm-2.19.73h-.83v-.54h1.36V40h-.53v-7.73Zm.82-.54h1.37v.54h-.85V40H30v-8.27ZM32.25 31v7.37c0 .6.46 1.08 1.03 1.08.56 0 1.02-.48 1.02-1.08V31h.52v7.37c0 .9-.7 1.63-1.54 1.63-.85 0-1.54-.73-1.54-1.63V31h.51Z" fill="#BF2436"/><path d="M33 31v7.13c0 .16.1.28.25.28.14 0 .26-.12.26-.28V31H34v7.13c0 .46-.34.83-.75.83s-.75-.37-.75-.83V31h.5Z" fill="#BF2436"/></svg>