<!-- by TradingView --><svg width="56" height="56" viewBox="0 0 56 56" xmlns="http://www.w3.org/2000/svg"><path fill="#F0F3FA" d="M0 0h56v56H0z"/><path fill-rule="evenodd" d="M28 42.34c-10.16 0-18.39-6.42-18.39-14.35s8.23-14.36 18.4-14.36v28.71ZM28 13c10.5 0 19 6.71 19 14.98 0 8.28-8.5 14.99-19 14.99-10.49 0-19-6.7-19-14.98C9 19.7 17.51 13 28 13Z" fill="#0CF"/><path fill-rule="evenodd" d="M33.43 33.24s-.23 1.61.06 1.88c.29.26.85.26.93-.37.06-.5-.55-1.3-1-1.51Zm-.87 1.23c-.14.38-.3.75-.5 1.11-.21.39-.37 1.15.15 1.3.52.14.85-.32.8-1.17 0-.45-.16-.9-.45-1.25Zm-.5-.98s-1.6.78-1.99 1.5c-.38.71-.09 1.36.5 1.4.6.04 1.1-.97 1.26-1.65.15-.7.24-1.26.24-1.26Zm-1.74-1.93c.81-.6 1.7-.74 2-.32.3.41-.13 1.23-.94 1.82-.81.58-1.7.74-2 .32-.3-.41.14-1.22.94-1.82Zm.22-2.87c.81-.6 1.7-.74 2-.33.3.42-.13 1.24-.94 1.82-.81.59-1.7.74-2 .33-.3-.41.14-1.23.94-1.82Zm3.14-3.6v6.99c.26.1.5.3.66.54.13.22.23.46.28.72l1.43-3.9c.08-.27.14-.41.14-.41l-.42-.43-.53 1.15.14-2.05-.5-.58-.32 1.36-.08-2.28s-.8-1.08-.8-1.1Zm-2.5-3.61c.27-.19.57-.23.67-.08.1.16-.04.42-.3.6-.27.19-.57.23-.67.08-.1-.16.04-.41.3-.6Zm-1.9-4.66v11.23l.75.38s1.71-1.15 2.05-1.53c.34-.37.53-.83.53-2.18V22.7l-.33-.32-1.6.95-.14-.12a3.9 3.9 0 0 1-.09-1.2c.09-.46.5-1.12.62-1.55a.68.68 0 0 0-.22-.78c-.14-.09-.48.35-.48.35l-.03-1.64-.64 1.09v-2.28l-.42-.4ZM28 13.65l.03.02L46.38 28 28 42.32V13.65Z" fill="#F0F3FA"/><path d="M28 42.34c-.13.02-.26.03-.4.03-1.55 0-3-1.43-4.1-3.77a35 35 0 0 0 4.1.24h.4v3.5Zm0-4.12h-.4c-1.46 0-2.93-.1-4.38-.28a26.94 26.94 0 0 1-1.72-9.96c0-3.91.66-7.46 1.77-10.07 1.44-.18 2.9-.27 4.34-.27h.4v20.58Zm-.4-24.62c.14 0 .27.01.4.03v3.4h-.4c-1.35 0-2.7.07-4.04.22 1.09-2.27 2.5-3.65 4.04-3.65Zm-4.8 24.91a9.35 9.35 0 0 0 2.55 3.65 12.3 12.3 0 0 1-7.3-4.67c1.55.47 3.14.8 4.75 1.02Zm-.23-20.5A27.9 27.9 0 0 0 20.9 28c0 3.77.61 7.23 1.63 9.85a30.79 30.79 0 0 1-5.1-1.2 15.58 15.58 0 0 1-2.56-8.65c-.01-3.14.92-6.21 2.66-8.79a30.13 30.13 0 0 1 5.04-1.18Zm2.78-4.18a9.1 9.1 0 0 0-2.5 3.52 31.6 31.6 0 0 0-4.68 1 12.3 12.3 0 0 1 7.19-4.53Zm2.66-.82a12.57 12.57 0 0 0-9.85 4.37c-.36.42-.7.85-1 1.3l-.53.17c-2.21.77-4.29 1.9-6.15 3.36l.38.48a20.47 20.47 0 0 1 5.73-3.16A16.3 16.3 0 0 0 14.27 28c-.01 2.93.76 5.8 2.23 8.32a20.41 20.41 0 0 1-5.64-3.14l-.38.5a21.28 21.28 0 0 0 6.16 3.35l.41.14c.34.5.71.98 1.11 1.43A12.56 12.56 0 0 0 27.6 43h.4" fill="#0CF"/><path d="M9.63 27.99 28 13.65v28.68L9.63 28Z" fill="red"/><path d="M27.01 21.09a.4.4 0 0 1 .23.07c.06.05.11.11.14.19a.43.43 0 0 1-.09.45.4.4 0 0 1-.44.09.4.4 0 0 1-.18-.15.42.42 0 0 1 .18-.62.4.4 0 0 1 .16-.03Zm.5-2.01c-.79.36-1.47.93-2 1.64-.75 1.12-1.1 3.64-1.1 3.64l-1.07 1.04.76.17-.96 1.1.78.2-.81.9.64.15-.6.81.7.18-.5.75.56.35-.31.68.64-.03-.4.86.54.09-.44.45.64.2-.09.66.87.1.05.6.78.63L25 36.52l2.49 2.82.03-20.26Z" fill="#F0F3FA"/></svg>