<!-- by TradingView --><svg width="56" height="56" viewBox="0 0 56 56" xmlns="http://www.w3.org/2000/svg"><path fill="#F0F3FA" d="M0 0h56v56H0z"/><path d="m27.6 22.83-.46-1.14c2.04-3.45 4.34-6.79 6.44-10.17.28-.44.7-.6 1.27-.48.14.03.18.1.1.23L27.6 22.83ZM28.74 24.4c-.44-.3-.66-.65-.65-1.03l7.77-12.07c.1-.16.24-.23.41-.2l.58.09c.17.02.21.1.13.24l-8.24 12.96ZM26.64 20.85c-.47-.01-.73-.32-.78-.94l5.08-7.9c.17-.25.39-.42.67-.5l.7-.21c.4-.12.48-.01.27.32l-5.94 9.23ZM29.8 26.35c-.48-.47-.67-.9-.59-1.3l8.6-13.37c.12-.2.28-.24.49-.15l.48.2c.15.07.18.17.1.3l-9.09 14.32ZM25.47 19.16c-.27-.14-.47-.45-.6-.93a66.8 66.8 0 0 1 3.35-5.18c.34-.43.85-.7 1.5-.8.1-.02.13.01.08.1l-4.33 6.81ZM30.76 27.88c-.52-.25-.72-.5-.59-.77l9.44-14.79a.23.23 0 0 1 .24-.1c.03 0 .06.01.08.03l.31.2c.18.1.21.25.1.42l-9.58 15.01ZM31.92 29.66c-.36.1-.59-.23-.69-.96l9.87-15.4a.06.06 0 0 1 .04-.03.06.06 0 0 1 .05 0l.72.45c.05.04.06.08.03.13L31.92 29.66ZM24.45 17.31a2.37 2.37 0 0 0-.9-.93c.8-.78 1.66-1.49 2.56-2.13.37-.27.44-.2.23.19-.5.88-1.12 1.84-1.89 2.87ZM32.95 31.29c-.26.12-.47-.16-.63-.85l9.9-15.45c.23-.38.47-.37.72.03l.01.02c.14.15.13.34-.01.56L32.95 31.3ZM33.97 33.05c-.34-.1-.56-.37-.66-.8 3.02-4.73 6.07-9.44 9.14-14.14.33-.5.78-.99 1.14-1.5a.15.15 0 0 1 .12-.07.15.15 0 0 1 .12.06c.26.36.24.59-.01.99-3.26 5.16-6.55 10.3-9.85 15.46ZM34.98 34.6a1.03 1.03 0 0 1-.56-.63l9.72-15.07c.2-.31.36-.29.5.08l.07.2c.05.16.03.33-.09.5L34.98 34.6ZM29.12 45.06a9.87 9.87 0 0 0 1.74-2.2A833.1 833.1 0 0 1 44.26 22c.2-.32.4-.55.58-.68.08-.06.12-.04.13.06.05.6.04.96-.04 1.08L31.43 43.7c-.6.96-1.23 1.1-2.22 1.5-.28.1-.3.06-.1-.14ZM33.15 43.19c-.17.11-.2.08-.1-.1.73-1.3 1.55-2.7 2.46-4.17 2.87-4.62 5.9-9.4 9.13-14.37a.18.18 0 0 1 .1-.08c.1-.03.16 0 .16.11a3.8 3.8 0 0 1-.7 2.2L35.29 41.1a5.6 5.6 0 0 1-2.13 2.08ZM43.37 29.84a.03.03 0 0 1 .04 0h.02c.15.1-.03.69-.49 1.65-.46.96-1.16 2.21-1.96 3.48l-.03.06a37.31 37.31 0 0 1-2.29 3.28c-.66.84-1.12 1.25-1.27 1.16h-.02a.04.04 0 0 1-.01-.03.03.03 0 0 1 0-.03l6-9.56ZM34.36 35.68l-6.27 9.8a.34.34 0 0 1-.21.13l-.74.17c-.1.02-.13-.01-.07-.11 1.37-2.15 2.65-4.23 3.85-6.22.2-.35.55-.48 1.04-.41.1.02.14-.02.15-.12.04-.47-.07-1.17.26-1.78a9.7 9.7 0 0 1 1.05-1.57l.94.11Z" fill="#058B20"/><path d="M13.65 36.4c-1.44.05-1.6 1.44-.19 1.87.43.13 1.1-.26 1.5-.35.17-.03.29-.01.36.06a.15.15 0 0 1 .05.12.15.15 0 0 1-.05.1c-1.06.9-2.1.9-3.14-.01-.33-.29-.43-1-.28-1.36.49-1.14 2.17-1.08 3.16-.64.08.03.14.08.18.16l.08.14a.14.14 0 0 1-.01.16.15.15 0 0 1-.16.05 5.55 5.55 0 0 0-1.5-.3ZM16.74 38.15l-.3.5a.37.37 0 0 1-.32.19h-.2a.25.25 0 0 1-.21-.12.24.24 0 0 1 0-.24l1.34-2.29a.46.46 0 0 1 .4-.23.47.47 0 0 1 .4.23l1.43 2.44a.13.13 0 0 1-.12.2h-.45a.3.3 0 0 1-.32-.22l-.14-.43c-.04-.11-.12-.17-.25-.17h-1.02c-.1 0-.19.05-.24.14Zm.73-.65c.05 0 .1 0 .14-.02.1-.02.13-.08.11-.18-.06-.35-.15-.53-.29-.52-.13 0-.2.2-.23.55 0 .1.04.15.14.17a.6.6 0 0 0 .13 0ZM21.8 37.34c.61.49.18 1.17-.42 1.33-.53.14-1.04.2-1.5.16-.14-.01-.2-.09-.2-.22v-2.52c0-.13.06-.2.2-.19l1.54.06a.2.2 0 0 1 .1.04l.13.11c.22.25.24.56.07.93a.25.25 0 0 0-.01.16c0 .06.04.1.08.14Zm-.7-.66c0-.07-.04-.14-.12-.2a.5.5 0 0 0-.28-.07c-.1 0-.2.04-.28.1-.07.05-.1.12-.1.2 0 .07.04.14.12.19a.5.5 0 0 0 .28.07c.1 0 .2-.04.28-.09.07-.05.1-.13.1-.2Zm.2 1.08a.24.24 0 0 0-.07-.17.25.25 0 0 0-.18-.07h-.48a.25.25 0 0 0-.22.14.24.24 0 0 0-.02.1v.15c0 .07.02.13.07.18.04.04.1.07.17.07h.48a.25.25 0 0 0 .17-.07.24.24 0 0 0 .08-.17v-.16ZM24.11 35.9c.21 0 .36.07.43.19.2.32.64 1.16 1.32 2.5.08.17.03.25-.15.25h-.26a.4.4 0 0 1-.37-.24l-.18-.42c-.03-.07-.12-.12-.25-.14a6.55 6.55 0 0 0-1.08 0c-.13.02-.2.07-.24.14l-.19.43a.4.4 0 0 1-.37.24h-.25c-.18 0-.23-.09-.15-.25a59.88 59.88 0 0 1 1.3-2.51c.08-.12.23-.18.44-.18Zm.2 1.58.06-.03a.08.08 0 0 0 0-.07 1.52 1.52 0 0 0-.17-.5.11.11 0 0 0-.1-.06.12.12 0 0 0-.1.06l-.19.33c-.08.14-.04.23.11.26.14.04.27.04.4.01ZM26.98 36.8c.47.3 1.38.3 1.45 1.03.11 1.11-1.86 1.42-2.32.35a.2.2 0 0 1 .03-.2.2.2 0 0 1 .19-.08c.35.04.72.4 1 .4.13 0 .26-.08.36-.21a.3.3 0 0 0 .04-.28.3.3 0 0 0-.2-.19c-.63-.17-1.49-.38-1.34-1.2.02-.1.07-.19.15-.25.4-.33.95-.39 1.63-.16.24.08.36.23.35.43 0 .1-.06.16-.17.16-.26 0-.56-.06-.88-.2a.25.25 0 0 0-.3.1l-.05.07c-.06.1-.04.17.06.23ZM30.21 38.3c.3 0 .52-.3.53-.6.02-.66.02-1.2.01-1.6 0-.13.06-.2.19-.2h.34c.12 0 .18.06.2.18a9.1 9.1 0 0 1-.04 1.85c-.08.58-.72.93-1.23.93-.5 0-1.15-.35-1.23-.93a9.1 9.1 0 0 1-.02-1.85c0-.12.07-.18.19-.18h.34c.13 0 .2.07.19.2-.02.4-.01.94 0 1.6.02.3.24.6.53.6Z" fill="#C1170B"/><path d="M16.52 40.33a.06.06 0 0 1-.08.02l-.03-.02c-.1-.06-.2-.13-.27-.22a.93.93 0 0 1-.17-.28.7.7 0 0 1-.05-.29.56.56 0 0 1 .28-.46.72.72 0 0 1 .29-.09 1.14 1.14 0 0 1 .65.15l.02.02a.06.06 0 0 1 .02.09l-.66 1.08ZM17.47 42.22l-.03.02h-.05l-.02-.02a1.07 1.07 0 0 1-.47-.63.97.97 0 0 1 .12-.75l.87-1.36a.97.97 0 0 1 .63-.43c.26-.05.54 0 .78.15l.02.01.02.02a.06.06 0 0 1 0 .04v.02l-1.87 2.93ZM18.64 43.7l-.66-.41a.15.15 0 0 1-.05-.2l2.27-3.9a.15.15 0 0 1 .12-.08l1.18-.06a.16.16 0 0 1 .14.08.15.15 0 0 1 0 .16l-2.79 4.36a.16.16 0 0 1-.21.05ZM22.73 39.12l.74-.04a.15.15 0 0 1 .13.07.14.14 0 0 1 0 .15l-3.46 5.42a.15.15 0 0 1-.2.04l-.5-.3a.14.14 0 0 1-.05-.2l3.23-5.07a.14.14 0 0 1 .11-.07ZM21.75 45.6l-.83-.36a.09.09 0 0 1-.06-.1l.02-.03 3.82-5.99a.09.09 0 0 1 .08-.04l1.02.05a.09.09 0 0 1 .08.04.08.08 0 0 1 0 .09l-4.02 6.3a.09.09 0 0 1-.11.03ZM23.58 45.9l-.76-.04a.16.16 0 0 1-.14-.08.16.16 0 0 1 .01-.16l4.1-6.44a.16.16 0 0 1 .13-.07l.81-.05a.16.16 0 0 1 .15.08.16.16 0 0 1 0 .16l-4.15 6.52a.16.16 0 0 1-.15.08ZM25.68 45.96l-.67.04a.23.23 0 0 1-.21-.1.22.22 0 0 1 0-.24l4.1-6.42a.22.22 0 0 1 .17-.1l.68-.04a.23.23 0 0 1 .2.1.22.22 0 0 1 0 .24l-4.09 6.42a.22.22 0 0 1-.18.1Z" fill="#058B20"/><path d="M34.98 34.6c-.03.2 0 .41.1.65.03.09 0 .14-.1.15l-26.85.2a.13.13 0 0 1-.11-.06.13.13 0 0 1 0-.13L21.4 12.5a.1.1 0 0 1 .09-.05.1.1 0 0 1 .1.05L34.97 34.6Zm-11.6-14.4c-1.21-.15-2.13-.53-3.14.44a.17.17 0 0 0 .01.25c.06.05.16.08.29.08h1.42c.72.02 1.34.63 2.12.3.35-.14.63-.28.84-.43a1.05 1.05 0 0 0 .45-.92l-.02-.28c-.02-.3-.16-.38-.43-.22l-1.29.73a.4.4 0 0 1-.25.05Zm-4.63 12a41.79 41.79 0 0 0-6.6-2.73.17.17 0 0 0-.13.09.17.17 0 0 0-.02.08v5.25a.1.1 0 0 0 .07.1.1.1 0 0 0 .04.01h21.77a.18.18 0 0 0 .15-.09.17.17 0 0 0 0-.17l-.67-1.1a.25.25 0 0 0-.08-.08c-.21-.13-.38-.2-.49-.24-1.59-.53-3.27-.83-5.03-.9-.11-.01-.17.04-.17.15v1.1a.11.11 0 0 1-.05.1.11.11 0 0 1-.1.01l-6.33-2.7a.2.2 0 0 1-.12-.17l-.56-9.13c-.02-.39-.2-.56-.57-.51h-.02c-.3 0-.47.2-.48.57l-.47 10.34-.01.03h-.08l-.05-.01Zm3.6-7.08c-.12.12-.16.35-.12.68.01.1.1.3.29.59.19.3.27.62.23.97-.04.39.08.64.36.76.1.05.33.03.68-.06.43-.1.89-.1 1.38.01.5.11.83-.03 1.01-.43.12-.24-.08-.63-.04-.91 0-.1.05-.17.12-.24a2 2 0 0 0 .7-.99.3.3 0 0 0-.05-.25 1.5 1.5 0 0 0-1.07-.64.3.3 0 0 1-.22-.14c-.51-.81-1.13-1-1.85-.56a.27.27 0 0 0-.14.23l-.01.09c0 .07-.03.12-.09.16-.38.25-.73.4-1.04.47-.07.01-.1.05-.1.12 0 .07-.02.12-.04.14Z" fill="#004B9B"/><path d="M22.35 25.12c.02-.02.03-.07.03-.14s.04-.1.1-.12c.33-.06.67-.22 1.05-.47.06-.04.09-.1.09-.16v-.1c.01-.1.06-.17.15-.22.72-.44 1.34-.25 1.85.56a.3.3 0 0 0 .22.14c.44.05.8.27 1.07.64a.3.3 0 0 1 .05.25 2 2 0 0 1-.7 1 .38.38 0 0 0-.12.23c-.04.28.16.67.05.91-.19.4-.53.54-1.02.43a2.96 2.96 0 0 0-1.38 0c-.35.08-.58.1-.68.05-.28-.12-.4-.37-.36-.76a1.5 1.5 0 0 0-.23-.97 1.8 1.8 0 0 1-.29-.59c-.03-.33 0-.56.12-.68Zm2.09-.28.29.18a.22.22 0 0 0 .33-.13c.04-.18-.04-.4-.25-.64-.14-.15-.3-.2-.48-.16-.34.1-.56.57-.37.9.07.13.14.13.22.01l.07-.12c.05-.07.11-.08.19-.04Zm-.91.87.1-.17a.16.16 0 0 0 0-.18c-.14-.21-.32-.32-.53-.34a.51.51 0 0 0-.5.3.5.5 0 0 0-.04.2c0 .36.24.6.73.73a.25.25 0 0 0 .25-.08.22.22 0 0 0 .05-.12c0-.04 0-.09-.03-.12l-.04-.08a.12.12 0 0 1 0-.14Zm1.92.12a.25.25 0 0 0-.1.18c-.02.12.04.18.16.18.4 0 .68-.12.86-.36a.49.49 0 0 0-.23-.75c-.28-.1-.52-.09-.72.03a.45.45 0 0 0-.15.12c-.13.2-.08.34.16.46.09.04.1.08.02.14Zm-.25.77c-.05.12-.18.22-.38.27-.1.03-.15.1-.13.21.06.3.19.5.38.6.34.16.6.07.77-.25a.34.34 0 0 0 .04-.2.51.51 0 0 0-.1-.23l-.3-.45c-.1-.15-.2-.14-.28.05Zm-1.92 1.1c.17.1.4.06.7-.11a.52.52 0 0 0 .27-.6h-.01c0-.01 0-.02-.02-.02a5.1 5.1 0 0 1-.4-.1 4.2 4.2 0 0 1-.31-.34c-.26.07-.4.24-.42.5-.04.34.03.56.2.66Z" fill="#BA0B77"/></svg>