<!-- by TradingView --><svg width="56" height="56" viewBox="0 0 56 56" xmlns="http://www.w3.org/2000/svg"><path fill="#F0F3FA" d="M0 0h56v56H0z"/><path d="M21 43c0-1.1.88-2 1.96-2h1.08c1.08 0 1.96.9 1.96 2v.39h-2v-.7a.5.5 0 0 0-1 0v2.63a.5.5 0 1 0 1 0v-.8h2V45c0 1.11-.88 2.01-1.96 2.01h-1.08c-1.08 0-1.96-.9-1.96-2v-2ZM26.5 43c0-1.1.88-2 1.97-2h1.07c1.08 0 1.96.9 1.96 2v.39h-2v-.7a.5.5 0 0 0-1 0v2.63a.5.5 0 1 0 1 0v-.8h2V45c0 1.11-.88 2.01-1.96 2.01h-1.07c-1.09 0-1.97-.9-1.97-2v-2ZM32 41.66v.85h1V47h2v-6h-1.57c-.37.53-1.1.66-1.43.66Z" fill="#03804B"/><path fill-rule="evenodd" d="M28 8 12 24.02l16 16.03 16-16.03L28 8Zm0 1.17L13.16 24.02 21.33 32h13.34l8.17-7.98L28 9.17Z" fill="#E12429"/><path d="M23.45 25A66.87 66.87 0 0 1 21 31h6v-2h-3.15l.52-2H27v-2h-3.55ZM25.66 18a42.08 42.08 0 0 1-1.8 6H27v-2h-1.34l.2-1H27v-3h-1.34Z" fill="#03804B"/><path d="M26.9 12c-.22 2.18-.78 4.1-1.04 5H28v14h2V12h-3.1ZM30.65 12.59l.35.52V31h-.35V12.59ZM31.63 14.21l.37.48V31h-.37V14.21ZM32.63 15.76l.37.43V31h-.37V15.76Z" fill="#03804B"/></svg>