<!-- by TradingView --><svg width="56" height="56" viewBox="0 0 56 56" xmlns="http://www.w3.org/2000/svg"><path fill="#F0F3FA" d="M0 0h56v56H0z"/><path d="M26 12.18v4.93a.3.3 0 0 1-.07.2c-.04.05-.1.09-.18.1-7.4 1.63-10.96 9.97-6.58 16.16a10.9 10.9 0 0 0 5.92 4.15c.6.19.58.28-.05.28H12.2a.2.2 0 0 1-.2-.2V12.14c0-.03.01-.07.04-.1a.14.14 0 0 1 .1-.03h13.67c.05 0 .1.02.14.05.03.04.05.08.05.13Z" fill="#BEC6C2"/><path d="M30 43.82V38.7a.32.32 0 0 1 .25-.31 10.9 10.9 0 0 0 .62-21.08c-.6-.19-.58-.28.05-.28L43.76 17c.05 0 .1.02.14.06a.2.2 0 0 1 .05.14L44 43.84c0 .03-.01.07-.04.1a.14.14 0 0 1-.1.03L30.19 44a.19.19 0 0 1-.17-.11l-.02-.07Z" fill="#456D70"/><path d="m19.92 25.69 7.93-6.45a.16.16 0 0 1 .21 0L36 25.69a.17.17 0 0 1-.01.26c-.03.02-.06.05-.1.05H20.03c-.03 0-.06-.03-.1-.05a.17.17 0 0 1-.05-.18c0-.03.02-.06.05-.08Z" fill="#456D70"/><path d="m20.66 27.98-1.3-.83a.09.09 0 0 1-.04-.04v-.05c0-.02.02-.03.04-.04a.1.1 0 0 1 .06-.02h17.05a.1.1 0 0 1 .06.02c.02 0 .03.02.04.04v.05c0 .02-.02.03-.04.04l-1.32.83a.1.1 0 0 1-.06.02H20.72c-.02 0-.04 0-.06-.02ZM30.78 28.99l-5.56.01c-.12 0-.22.12-.22.27v1.46c0 .15.1.27.22.27l5.57-.01c.12 0 .21-.12.21-.27v-1.46c0-.15-.1-.27-.22-.27ZM34.77 32H21.23c-.13 0-.23.1-.23.21v1.58c0 .12.1.21.23.21h13.54c.13 0 .23-.1.23-.21V32.2c0-.12-.1-.21-.23-.21Z" fill="#BEC6C2"/><path d="M27.54 44c-.47 0-.93-.2-1.26-.58a2.22 2.22 0 0 1-.02-2.83c.17-.19.36-.33.58-.44.21-.1.44-.15.68-.15.47 0 .92.2 1.26.58a2.22 2.22 0 0 1 .02 2.83c-.17.18-.37.33-.58.43-.22.1-.45.16-.68.16Zm-.04-.65c.27 0 .54-.14.74-.39a1.68 1.68 0 0 0 .23-1.46 1.41 1.41 0 0 0-.23-.44c-.1-.12-.21-.22-.34-.3a.86.86 0 0 0-.4-.1.95.95 0 0 0-.74.4c-.2.25-.31.6-.31.95 0 .18.02.35.08.51.05.17.13.31.22.44.1.12.22.22.34.3.13.06.27.1.4.1ZM12.23 42c0-1.26.7-2.34 2.16-1.9.55.16.86.44.93.83.1.55-.09.65-.56.3a2.08 2.08 0 0 1-.33-.4.44.44 0 0 0-.25-.17c-.93-.24-1.26.6-1.27 1.34 0 .73.33 1.58 1.26 1.34.1-.03.18-.08.24-.17.15-.2.27-.33.34-.38.48-.35.66-.25.56.3-.07.39-.39.66-.94.82-1.47.42-2.15-.67-2.14-1.92ZM16.42 40h-.16a.26.26 0 0 0-.26.25v3.5c0 .14.11.25.25.25h.16c.15 0 .26-.11.26-.25l.01-3.5a.26.26 0 0 0-.26-.25ZM21.47 40h-.26c-.11 0-.21.1-.21.2v3.6c0 .1.1.2.22.2h.26c.12 0 .21-.1.21-.2v-3.6c0-.1-.1-.2-.22-.2ZM22.9 42c-.02.73.3 1.58 1.24 1.34.1-.02.2-.08.25-.16.15-.2.27-.34.34-.39.48-.35.67-.25.56.3-.08.4-.39.67-.94.82-1.48.41-2.16-.67-2.15-1.92.02-1.26.72-2.33 2.18-1.89.55.16.86.44.93.83.1.56-.1.66-.57.3a2.1 2.1 0 0 1-.33-.4.44.44 0 0 0-.24-.17c-.93-.24-1.27.6-1.28 1.33ZM17.29 40.2c0-.04.03-.12.06-.15a.16.16 0 0 1 .11-.05h1.35a1.45 1.45 0 0 1 1.07.48 1.61 1.61 0 0 1 .44 1.13v.8c0 .42-.16.82-.45 1.12-.28.3-.67.47-1.08.47h-1.34a.16.16 0 0 1-.15-.1.16.16 0 0 1-.01-.07v-3.62Zm.7.67v2.27c0 .06.02.13.07.18.05.04.11.07.18.07h.42c.26 0 .5-.1.68-.3.19-.2.29-.46.29-.73v-.7a1.1 1.1 0 0 0-.27-.74.96.96 0 0 0-.32-.22.9.9 0 0 0-.37-.08h-.42a.26.26 0 0 0-.25.25Z" fill="#165057"/></svg>