<!-- by TradingView --><svg width="56" height="56" viewBox="0 0 56 56" xmlns="http://www.w3.org/2000/svg"><path fill="#F0F3FA" d="M0 0h56v56H0z"/><path d="M28.53 11c.82.08 1.67.13 2.44.28a17.02 17.02 0 0 1 13.8 14.04c.12.64.15 1.42.23 2.14v1.07c-.08.72-.11 1.49-.22 2.16A17.01 17.01 0 0 1 30.63 44.8c-.51.09-1.17.11-1.75.2h-1.8c-.28-.05-.55-.08-.83-.1a16.65 16.65 0 0 1-10.04-4.65 16.68 16.68 0 0 1-5.11-10.5 8.8 8.8 0 0 0-.1-.8V27.1c.05-.32.08-.64.11-.97.71-7.87 7.45-14.45 15.33-15.04l1.02-.1h1.07Zm15.56 17a16.1 16.1 0 1 0-32.2 0 16.1 16.1 0 0 0 32.2 0Z" fill="#0000FE"/><path d="m32.82 20.13.01 1.74a.1.1 0 0 1-.05.08l-.04.01h-3.2c-.06 0-.1.03-.1.1l.05 1.9c0 .03 0 .03-.03.02a.14.14 0 0 1-.03-.04c0-.02-.02-.02-.02 0a.22.22 0 0 1-.1.12L26 21.72c-.44.09-.84.33-1.2.73-.13.14-.24.24-.34.29-1.18.97-2.34 2-3.46 2.75v-2.45c0-.03-.01-.04-.04-.04H19.7c-.03 0-.04.01-.04.04v3.57l-1.72 1.4c-.03.02-.03.04.02.05l.2.02c.07 0 .1 0 .08.02.3-.04.62-.02.94.06a121 121 0 0 0-.11 7.68.05.05 0 0 1-.04.01l-3.52.03a.15.15 0 0 0-.1.03.57.57 0 0 0-.08.09l-.27-.16a.11.11 0 0 1-.06-.1V20.06c0-.04.02-.06.06-.06h17.61c.05 0 .1.04.15.13Z" fill="#0000FE"/><path d="M32.82 20.13c.04 0 .08.02.1.04.06.03.08.08.08.14V22c0 .05-.02.07-.06.07h-3.2c-.06 0-.1.03-.1.1v2c0 .06-.02.07-.06.04l-.26-.16a.22.22 0 0 0 .09-.12c0-.02.01-.02.02 0l.03.04c.02.01.03 0 .03-.02l-.04-1.9c0-.07.03-.1.1-.1h3.2a.09.09 0 0 0 .06-.03.1.1 0 0 0 .02-.06l-.01-1.74ZM26 21.72l-7.75 6.3c-.04 0-.06.02-.09.06l-.2-.02c-.05 0-.06-.03-.02-.06l1.72-1.39.37-.33a.16.16 0 0 0 .06-.12v-2.82c0-.05.02-.07.07-.07h.14c.07 0 .1.03.1.1v2.52a.05.05 0 0 0 .02.04h.05c.2-.11.35-.24.44-.38 1.28-1.02 2.76-2.28 3.89-3.1.36-.4.76-.64 1.2-.73ZM19.18 28.16a112 112 0 0 1 .1 7.76c-.01.05-.04.08-.09.08h-3.86a.58.58 0 0 1 .08-.09.15.15 0 0 1 .1-.03 368.89 368.89 0 0 1 3.56-.04.05.05 0 0 0 .01-.04 121 121 0 0 1 .1-7.64Z" fill="#303239"/><path d="m30.7 32.14-1.74 2.61a.2.2 0 0 1-.17.1l-1.56.02-1.9-2.75a.07.07 0 0 1 0-.07l.03-.03.04-.01h1.31a.65.65 0 0 1 .55.31l.81 1.38.02.01h.03l.01-.01.88-1.5a.4.4 0 0 1 .36-.2c.4 0 .8 0 1.2.03.07 0 .11.04.13.11Z" fill="#ED1C24"/><path d="M30.7 32.14c.08 0 .13.02.17.04.05.03.05.06.02.1l-1.73 2.59c-.04.06-.1.1-.19.1-.56.06-1.14.02-1.74-.1l1.56-.03a.2.2 0 0 0 .17-.09l1.74-2.6Z" fill="#303239"/><path d="M25.17 32.46c.17.45.14.77-.12.97-.62.49-1.5.4-2.28.38a.12.12 0 0 0-.12.12v.82a.11.11 0 0 1-.12.12l-1.32.01c-.04.01-.1 0-.15-.05a.14.14 0 0 1-.06-.12V32.1c0-.02 0-.04.02-.06a142.42 142.42 0 0 1 2.92-.02c.46 0 .87.15 1.23.45Zm-2.33.68c.31.06.58.01.81-.14.05-.04.06-.08.02-.12-.04-.06-.14-.1-.29-.1a.73.73 0 0 0-.67-.07c-.05.02-.07.05-.07.1 0 .29.06.4.2.33Z" fill="#ED1C24"/><path d="m21.2 34.88 1.33-.01c.03 0 .06-.02.08-.04a.11.11 0 0 0 .04-.08v-.82a.12.12 0 0 1 .07-.1c.02-.02.03-.02.05-.02.79.01 1.66.1 2.28-.38.26-.2.3-.52.12-.97.32.3.39.6.22.9-.4.7-1.74.6-2.47.61-.03 0-.05.01-.06.03a.08.08 0 0 0-.03.05v.82a.12.12 0 0 1-.11.12h-1.33c-.07 0-.13-.03-.18-.1ZM23.38 32.78c-.17 0-.33 0-.47.05-.05.02-.08.05-.07.1v.2c-.14.07-.2-.03-.2-.31 0-.06.02-.09.07-.1a.73.73 0 0 1 .67.06Z" fill="#303239"/><path d="m35.82 32.84-1.42.28-.36-.26c-.2-.14-.47-.18-.8-.12-.74.13-.9.55-.49 1.25.73.27 1.26.17 1.6-.3a.11.11 0 0 1 .12-.05l1.28.23c.01.48-.77.8-1.13.87a6.2 6.2 0 0 1-1.78.05c-.27-.03-.54-.06-.81-.07-.67-.24-1.17-.72-1.12-1.43.1-1.32 2.17-1.34 3.14-1.27.7.05 1.29.32 1.77.82Z" fill="#ED1C24"/><path d="M34.04 32.86c-.45-.07-1.23-.02-1.28.55-.02.18-.02.37 0 .58-.42-.7-.26-1.12.49-1.25.32-.06.58-.02.79.12ZM35.82 32.84c.05.05.08.1.09.15a.07.07 0 0 1-.04.08l-.03.01c-.49.1-.97.11-1.44.04l1.42-.28ZM32.03 34.72c.27.01.54.04.81.07.6.07 1.19.05 1.78-.05.36-.06 1.14-.39 1.13-.87.08.04.14.08.18.13.04.04.04.08.01.12-.23.37-.55.6-.97.72-.98.25-1.96.21-2.94-.12Z" fill="#303239"/><path d="M38.21 32.1c.02.54.03 1.01.03 1.57 0 .28.06.39.18.32h2.05c.07 0 .1.07.13.13v.61a.13.13 0 0 1-.13.14h-3.7c-.1-.02-.16-.07-.16-.15a144.32 144.32 0 0 1 .02-2.7 38.51 38.51 0 0 1 1.53 0l.05.07Z" fill="#ED1C24"/><path d="M38.42 34c-.12.06-.19-.04-.18-.32 0-.53 0-1.06-.03-1.59l.14.09c.05.02.07.06.07.11V34ZM40.6 34.2c.14.03.2.09.2.18v.52c0 .06-.04.1-.1.1H37c-.08 0-.16-.05-.23-.14h3.7c.04 0 .07 0 .1-.03a.13.13 0 0 0 .04-.1v-.53Z" fill="#303239"/><path fill-rule="evenodd" d="M24.5 24h3v3h-3v-3Zm.22 1.63h1.12v1.13h-1.12v-1.13Zm2.56-1.4h-1.13v1.14h1.13v-1.13Z" fill="#0000FE"/></svg>