<!-- by TradingView --><svg width="56" height="56" viewBox="0 0 56 56" xmlns="http://www.w3.org/2000/svg"><path fill="#F0F3FA" d="M0 0h56v56H0z"/><path d="M30.66 11.23c.27.22.35.27.7.15.07-.03.1 0 .08.07l-.01.1a.17.17 0 0 1-.11.13c-.3.1-.55.04-.78-.17a.2.2 0 0 1-.07-.15c0-.08.03-.13.1-.15a.1.1 0 0 1 .1.02ZM28.48 13.71l.63.05a.2.2 0 0 1 .18.2V14a.1.1 0 0 1-.04.07.1.1 0 0 1-.08.03l-1.26-.09h-.02a.06.06 0 0 1-.03-.04v-.02l.15-2.14c0-.18.1-.26.27-.24h.07c.12 0 .18.07.17.2l-.13 1.83c0 .06.02.1.09.1ZM26.85 13.7c.06-.06.08-.16.06-.3-.01-.14.04-.2.17-.22l.14-.01a.19.19 0 0 1 .14.04.18.18 0 0 1 .07.13c.03.48-.2.75-.68.8-.96.1-.9-.66-.98-1.32-.1-.8.15-1.38 1.14-1.18.24.05.39.25.43.58 0 .03 0 .06-.02.08a.11.11 0 0 1-.06.04.48.48 0 0 1-.3.02.17.17 0 0 1-.11-.12c-.09-.27-.24-.33-.47-.2a.28.28 0 0 0-.09.09.15.15 0 0 0-.02.1l.1 1.32a.25.25 0 0 0 .19.23h.16a.3.3 0 0 0 .13-.08ZM25.21 14.08a.7.7 0 0 0 .1-.53l-.23-1.09a.7.7 0 0 0-.84-.54l-.28.06a.7.7 0 0 0-.55.84l.24 1.09a.7.7 0 0 0 .83.54l.29-.06a.7.7 0 0 0 .44-.31Zm-1.05-1.77h.03c.18-.04.35.07.39.25l.25 1.14a.33.33 0 0 1-.25.39h-.04a.33.33 0 0 1-.39-.25l-.24-1.14a.33.33 0 0 1 .25-.39Z" fill="#0102B8"/><path fill-rule="evenodd" d="M30.05 13.98a.6.6 0 0 1 .16-.27.4.4 0 0 1 .17-.1.38.38 0 0 1 .2.02c.05.01.1.05.15.1.03.04.06.1.06.16l.02.21c.01.11.07.2.17.24l.1.05a.16.16 0 0 0 .24-.15l-.14-2.17a.17.17 0 0 0-.1-.15c-.16-.07-.32-.1-.5-.1a.17.17 0 0 0-.15.11l-.93 2.02c-.06.13-.02.2.13.2l.17.02c.12 0 .2-.06.25-.19Zm.39-.7.02.02.2.04a.04.04 0 0 0 .05-.03v-.02c.05-.25.09-.48.1-.66.02-.17 0-.28-.02-.29h-.04c-.03 0-.08.08-.14.25-.06.17-.12.4-.17.64v.05Z" fill="#0102B8"/><path d="M32.63 13.36c-.01-.11-.03-.11-.06 0l-.3 1.14a.21.21 0 0 1-.25.15l-.1-.03c-.14-.03-.19-.11-.15-.24l.64-1.97c.02-.06.07-.1.14-.1.12 0 .23.04.32.1.05.05.08.14.1.3l.1 1.22c.02.2.05.2.1.01l.3-1.09c.03-.16.14-.22.3-.18l.05.01c.16.04.21.13.15.29-.17.48-.38 1.12-.62 1.93-.03.1-.11.14-.25.12a.37.37 0 0 1-.22-.1.36.36 0 0 1-.1-.22l-.15-1.34ZM23.32 14.53a.7.7 0 0 0 .01-.53l-.4-1.03a.7.7 0 0 0-.9-.4l-.28.11a.7.7 0 0 0-.4.9l.4 1.04a.7.7 0 0 0 .91.4l.28-.12a.7.7 0 0 0 .38-.37ZM22 12.96h.02c.17-.07.36.01.42.18l.41 1.07a.32.32 0 0 1-.18.42h-.02a.32.32 0 0 1-.42-.18l-.42-1.07a.32.32 0 0 1 .19-.42ZM35.21 15.26a.14.14 0 0 0 0-.17l-.12-.15c-.05-.07-.06-.12-.05-.17a.15.15 0 0 1 .12-.1c.04-.02.09-.02.14 0 .1.04.27.15.5.33.08.06.09.12.04.2l-.59.9c-.03.05-.06.05-.1.01l-.15-.15a.2.2 0 0 0-.13-.07c-1.51-.16-.79-1.37-.26-2.11.3-.43.7-.47 1.2-.12.36.25.46.54.32.89-.05.12-.13.15-.24.08l-.08-.05a.25.25 0 0 1-.11-.27.36.36 0 0 0-.1-.34.3.3 0 0 0-.47.04l-.66 1.02a.32.32 0 0 0 .25.5c.22 0 .38-.08.5-.27ZM20.66 15.79l-.33-.69c-.03-.06-.02-.11.04-.15l.12-.07c.22-.14.45-.3.5-.51.07-.45-.37-1.05-.87-.83a7.52 7.52 0 0 0-.9.5v.04l.92 1.88c.05.12.14.16.26.1l.19-.07c.1-.04.12-.11.07-.2Zm-.7-1.78.16-.08c.11-.05.24 0 .3.11l.07.17c.05.11 0 .24-.11.3l-.16.07a.22.22 0 0 1-.3-.11l-.07-.17a.22.22 0 0 1 .1-.3ZM38.59 16.75l.39-.39c.1-.1.23-.12.36-.04l.07.04c.1.07.11.16.01.26l-1.45 1.56c-.08.08-.15.1-.24.05a.26.26 0 0 1-.1-.1c-.08-.13-.06-.26.05-.37l.48-.48c.08-.08.08-.16 0-.24l-.21-.22c-.1-.1-.2-.1-.31 0l-.53.53c-.1.1-.19.1-.28 0l-.06-.05c-.1-.11-.1-.22 0-.33l1.44-1.43c.08-.09.16-.09.25 0l.07.07a.18.18 0 0 1 0 .26l-.42.42c-.06.05-.07.12-.03.18.07.15.18.25.33.31.07.04.13.03.18-.03ZM17.86 16.87l-.17.06c-.08.02-.14.02-.18-.01a.15.15 0 0 1-.07-.14c0-.05.03-.09.06-.13.07-.09.23-.21.47-.37.07-.05.14-.04.2.03l.66.84c.03.04.03.07-.02.09l-.2.1a.2.2 0 0 0-.1.1c-.63 1.37-1.53.3-2.07-.42-.3-.42-.22-.81.27-1.17.34-.26.65-.26.93-.02.1.08.1.17 0 .25l-.07.06c-.09.07-.19.08-.29.02a.36.36 0 0 0-.35-.02.3.3 0 0 0-.1.47l.74.94a.31.31 0 0 0 .54-.09.5.5 0 0 0-.08-.54.14.14 0 0 0-.17-.05ZM34.79 33.5a2.03 2.03 0 0 1-.3-.33c-.62-.78-1.37-.73-2.27-.73-.44 0-.87-.3-1.17-.44-.11-.06-.18-.03-.22.1-.08.33-.13.68-.14 1.06a6.07 6.07 0 0 1-.45 2.22c-.08.18-.03.22.14.12l.32-.18c.16-.1.27-.23.32-.41.17-.65.83-2.5 1.87-1.58.05.04.08.1.07.16 0 .24.06.49.2.76.04.07.05.13.03.18-.02.06-.09.1-.2.12a.16.16 0 0 0-.13.18l.04.08c.07.08.1.17.09.28-.01.07-.04.1-.1.13l-.5.2-.45.1a.65.65 0 0 0-.38.28c-.05.05-.04.1.02.14.27.17.53.2.8.11.07-.02.08-.06.02-.1a.37.37 0 0 1-.16-.23c-.02-.08.01-.12.09-.13l.67-.07c.05 0 .08.02.07.08a.5.5 0 0 1-.1.27.13.13 0 0 0 .04.19c.47.3 1.25.14 1.8.14.08 0 .08.02.02.07-.75.5-1.15.37-1.97.04-.08-.03-.14-.03-.2 0-.39.17-.8.15-1.2-.07a.11.11 0 0 0-.17.1c.03.3.15.56.35.75a.11.11 0 0 1-.04.19c-.56.18-1.14.07-.93-.73.1-.35.02-.4-.23-.11-.16.17-.35.33-.58.5a.27.27 0 0 1-.16.04.63.63 0 0 0-.4.12.2.2 0 0 1-.18.03l-.7-.2a.14.14 0 0 1-.1-.17v-.08c-.03-.05-.06-.06-.1-.02-.17.16-.4.23-.7.2-.08-.02-.12-.06-.14-.14l-.01-.06c-.01-.05-.05-.08-.12-.08a.11.11 0 0 0-.07.04.08.08 0 0 0-.01.08l.03.12a.1.1 0 0 1-.05.12 3.79 3.79 0 0 1-2.28-.57 3.07 3.07 0 0 0-.96-.46c-.33-.06-.53-.11-.6-.16a.2.2 0 0 1-.08-.17c0-.17-.03-.26-.07-.29-.3-.14-.36-.08-.18.2.11.16.3.37.58.64.2.2.3.46.32.79a.14.14 0 0 1-.09.13c-.26.11-.49.12-.69.04a.2.2 0 0 1-.11-.13.92.92 0 0 0-.03-.1c-.05-.13-.07-.12-.07.01v.06c0 .04-.02.07-.07.07-.16.02-.25-.04-.28-.18 0-.06-.05-.1-.11-.1-.32-.03-.6-.18-.83-.45a.1.1 0 0 1-.03-.09.11.11 0 0 1 .04-.08c.04-.03.1-.04.16-.03a.13.13 0 0 1 .09.05.13.13 0 0 1 .02.1c-.01.06 0 .1.06.11a.1.1 0 0 0 .08-.01c.06-.05.06-.1.01-.16a.2.2 0 0 1-.05-.17c.05-.27-.01-.6-.17-.98-.03-.07-.07-.08-.14-.05-.43.22-.9.2-1.39-.04-.19-.1-.56-.32-1.11-.68-.77-.5-.66-1.48.32-1.57.22-.02.37-.14.44-.36.02-.06.05-.1.1-.13.4-.28.8-.17 1.2.03.06.02.11.01.15-.04.48-.57 1-.52 1.36.13.04.06.02.08-.05.06a1.15 1.15 0 0 1-.3-.14c-.37-.23-.63-.08-.77.35-.03.09-.09.11-.17.08-.38-.16-.84-.59-1.26-.1-.2.22-.45.35-.78.38a.48.48 0 0 0-.4.27c-.17.32.11.64.4.77.02.02.05.02.07.01.03 0 .05-.02.07-.04.18-.22.39-.31.63-.27.08.01.12.05.12.13 0 .06-.03.1-.1.11-.27.06-.39.18-.36.37.01.07.05.13.1.17.44.32.98.43 1.62.35.05 0 .08-.04.07-.1-.04-.3-.17-.46-.4-.5a.18.18 0 0 0-.17.05l-.2.2c-.03.03-.07.04-.12.01a.16.16 0 0 1-.04-.04.12.12 0 0 1-.02-.12.4.4 0 0 0-.05-.47.2.2 0 0 1-.04-.18c.09-.33.3-.47.64-.43.27.03.36.21.53.43a.07.07 0 0 0 .07.02.07.07 0 0 0 .05-.06c.01-.18 0-.3-.06-.33-.21-.16-.19-.21.07-.15.2.04.3.2.3.49.01.06-.01.1-.05.15-.1.12-.12.24-.05.37.03.07.08.07.13 0l.13-.15a.17.17 0 0 1 .15-.07l.48.03c.06 0 .09-.02.08-.09l-.42-4.24a.24.24 0 0 0-.2-.2c-.22-.06-.5-.16-.8-.3-.29-.15-.6-.1-.9-.23-.29-.14-.6-.25-.95-.33-.55-.13-.85-.36-.7-.95a.17.17 0 0 0-.04-.14.17.17 0 0 0-.12-.07c-.88-.07-1.62-.09-2.24-.64a.14.14 0 0 1 .01-.22c.36-.26.87-.35 1.18-.56.42-.28 1.25-.82 1.67-.26l.06.06c.03.03.08.01.12-.05.08-.1.13-.25.29-.32a2.32 2.32 0 0 1 2-.04c.06.03.12.02.18-.02.46-.3.95-.33 1.46-.07.08.05.14.02.17-.07l.02-.07c.03-.11 0-.19-.12-.22-.51-.17-.83-.41-.94-.72-.17-.47-.3-.76-.4-.86-.33-.37-.4-.78-.2-1.23.02-.05 0-.1-.05-.12-.3-.12-.59-.32-.87-.6-.06-.06-.04-.1.03-.1l.39-.04c.01 0 .02 0 .03-.02v-.05a.06.06 0 0 0-.03-.05 2.23 2.23 0 0 1-1.36-1.43.08.08 0 0 1 .05-.06h.04c.28.05.54.19.78.41.02.02.04.02.06 0l.1-.06c.04-.02.04-.04 0-.06a1.98 1.98 0 0 1-.94-1.25.13.13 0 0 1 .17-.16l.8.24c.07.02.11 0 .13-.08l.31-1.37c.02-.07.05-.08.09-.01.31.5.54.88.68 1.14.06.1.12.15.2.13a.11.11 0 0 0 .08-.1v-.07a.15.15 0 0 0-.05-.06c-.32-.25-.5-.53-.57-.85-.07-.3.03-.37.28-.17.09.07.17.11.25.13.07.02.12 0 .16-.06l.1-.14c.03-.05.09-.1.15-.1l1.18-.25c.07-.01.13 0 .19.03.14.07.26.2.35.36.03.05.07.06.11.02.44-.38.88-.54 1.33-.47.37.05.72-.07 1.03-.38.38-.38 1.07-.16 1.64-.03.06.02.12.02.18 0 .73-.23 1.31-.03 1.74.6.03.05.04.09.03.11l-.05.05-.1-.01c-.47-.44-.97-.6-1.5-.47-.54.13-.96-.24-1.52-.07-.08.02-.23.1-.44.25-.5.34-.93.1-1.47.27-.46.15-.87.67-1.14 1.06a.23.23 0 0 0 .04.31l.75.6c.06.05.14.06.22.04l.2-.06a.13.13 0 0 0 .1-.09.13.13 0 0 0-.04-.13l-.66-.66a.17.17 0 0 1 .02-.25c.48-.36 1.24-.45 1.66-.5a.24.24 0 0 0 .17-.09c.22-.3.57-.36 1.04-.2.05.02.1.03.16 0 .88-.28.94.04 1.5.54.04.03.1.05.15.05.4.03.59.18.56.47-.02.32-.09.32-.19 0 0-.04-.1-.1-.28-.17 0 0-.09 0-.23.03-.15.03-.27-.05-.36-.23-.23-.49-.6-.57-1.1-.26a.15.15 0 0 1-.16 0c-.4-.22-.7-.18-.9.13a.17.17 0 0 1-.16.09c-.5-.05-.95.03-1.36.23-.06.04-.09.09-.07.15.02.11.1.2.23.3a.7.7 0 0 1 .1.08c.35.34.73.45 1.17.33.06-.01.1-.05.12-.12.03-.12.03-.2-.02-.27-.19-.29-.13-.37.19-.25.08.03.13.2.14.52 0 .07.04.1.1.09.15-.02.3-.09.46-.2.05-.04.1-.06.17-.07l.85-.06c.48-.02 1.02.27 1.51.4.08.02.12-.01.13-.09.01-.24.16-.34.45-.3.08 0 .1-.02.06-.1-.23-.45-.51-1.32.34-1.31.2 0 .34.03.4.1.09.07.13.18.13.3s-.04.24-.11.33c-.19.23-.17.51.03.85.3.47.78.43 1.38.51.34.05.54.1.6.15.05.05.08.1.07.15 0 .1-.07.19-.17.26-.06.03-.07.08-.04.14.06.1.14.15.23.14.3-.02.53-.28.46-.6a3.91 3.91 0 0 1-.08-.78.24.24 0 0 0-.07-.18l-.42-.42a.41.41 0 0 1-.1-.17c-.15-.49-.27-1.06-.95-.9-.2.06-.34.25-.5.33a.11.11 0 0 1-.08 0 .1.1 0 0 1-.06-.03c-.35-.47-.7-.58-1.03-.34-.26.19-.32.13-.19-.16.2-.4.98-.16 1.29.04.05.03.1.03.16 0 .6-.3 1.32-.14 1.54.54.1.31.16.46.43.67.17.14.26.22.3.45.07.52.1 1.01.07 1.49 0 .07.03.1.1.1.63 0 1.16.17 1.6.52a.28.28 0 0 1 .1.2c0 .19-.09.3-.29.33-.6.08-1 .03-1.3.28-.17.15-.3.25-.38.3-.44.28-1.18.16-1.65 0a.3.3 0 0 0-.18 0c-.4.1-.96.22-1.19-.09-.2-.27-.28-.24-.25.1.03.37.02.73-.05 1.08l-.31 1.05c-.19.6-.48 1.16-.89 1.68a.18.18 0 0 0 .01.24l.61.6a.13.13 0 0 0 .12.04.88.88 0 0 0 .65-.5c.12-.29.32-.59.6-.9.65-.67 1.8-.5 1.68-1.63a.16.16 0 0 0-.12-.15l-.28-.08c-.13-.04-.15-.11-.07-.22l.08-.1c.09-.11.2-.13.32-.06.5.29.41 1 .2 1.4-.25.46-1 .62-1.38.86-.32.21-.3.33.09.36.3.03.6.1.92.21.07.03.1.07.1.14.03.35.14.8-.2.92-.14.05-.15.12-.02.2.25.17.6.24 1.05.21a.1.1 0 0 1 .08.03.1.1 0 0 1 .03.08c0 .05-.02.1-.06.13a.82.82 0 0 1-.36.16c-.05 0-.06.03-.04.07l.03.06c.02.02.05.04.08.04.2-.03.37-.09.51-.19.35-.24 1.33-.4 1.65-.04.07.08.1.14.09.18-.14.32-.29.31-.43-.02-.01-.03-.06-.06-.13-.1a.26.26 0 0 0-.18-.03c-.34.06-.67.19-1 .38-.07.05-.08.1-.01.15l.17.16c.05.04.04.08-.03.1-.06.02-.25.02-.55 0-.12 0-.2.02-.24.09a.09.09 0 0 0 0 .08.08.08 0 0 0 .06.05c.06 0 .14.02.25.05.05.02.1.05.11.08.02.03.02.06.02.08 0 .08-.05.12-.13.13l-.75.07a.14.14 0 0 0-.11.18c0 .02.02.05.04.06l.22.18c.07.05.06.09-.03.1l-.64.03c-.04 0-.07 0-.08.03-.04.04-.03.07.01.1l.4.27c.1.06.09.1-.01.13l-.79.21c-.06.02-.07.06-.04.11.08.14.14.21.19.23.28.1.27.18-.02.25a2.1 2.1 0 0 1-1.02-.1.11.11 0 0 0-.1.02.11.11 0 0 0-.04.08l-.06.84a.09.09 0 0 1-.08.09l-.05-.01c-.18-.08-.35-.21-.49-.4a.1.1 0 0 0-.14 0 .48.48 0 0 0-.09.2c-.01.07 0 .12.07.15l.75.36c.06.03.11.04.18.04l.66-.05c.95-.09 1.57.59 2.27 1.2.51.46 1.54.3 1.59 1.2.01.28-.05.3-.17.05-.23-.44-.67-.71-1.33-.82-.08 0-.12.02-.1.1l.22.88c0 .04.03.07.05.1.11.08.27.1.35.24.1.18.14.31.11.4-.08.26-.15.26-.2 0-.03-.17-.19-.3-.48-.39a.26.26 0 0 1-.18-.28c.13-1.08-.65-1.15-1.45-1.1a.19.19 0 0 1-.15-.06.71.71 0 0 1-.12-.17c-.4-.8-1.38-.55-1.89-.07-.16.16-.24.13-.22-.1 0-.04.03-.1.07-.18.04-.06.09-.1.13-.13.76-.45 1.42-.4 2 .16.17.15.3.23.38.23.44.04.8.02 1.16.3h.02l.04-.02c.04-.02.04-.04 0-.07ZM41.55 17.76c-.47-.12-.2-.48-.57-.65-.04-.01-.05-.04-.03-.08l.09-.13c.04-.05.08-.06.13-.03l.14.1c.05.03.09.07.1.13.1.24.18.4.26.47.22.2.18.27-.12.19ZM15.46 18.75l.99.7a.21.21 0 0 1 .05.29l-.06.1c-.08.11-.17.13-.29.04l-1.65-1.32c-.06-.05-.07-.1-.05-.16.05-.12.12-.21.22-.28.05-.03.16-.03.3.01l1.22.34c.2.06.22.03.05-.1l-.94-.66c-.14-.1-.16-.22-.07-.36l.03-.04c.1-.15.2-.16.33-.05.4.34.95.77 1.64 1.3.08.05.09.15.02.27a.38.38 0 0 1-.18.18.36.36 0 0 1-.24.02l-1.34-.34c-.11-.03-.13-.01-.03.06Z" fill="#0102B8"/><path d="M26.79 19.56c.02-.02.02-.04.02-.07l-.02-.04-.37-.2v-.01l.02-.05c0-.03.02-.03.04-.03.29.1.5.15.65.16.36.04.38.14.05.3l-.6.3a.5.5 0 0 0-.15.1c-.3.35-.61.55-.92.6-.2.04-.2.11-.04.22.03.03.1.06.21.1.25.12.23.18-.03.19a2 2 0 0 0-1.05.44.16.16 0 0 0-.06.16.15.15 0 0 0 .13.12c.13.02.23.05.28.09.2.14.17.23-.1.27-.25.03-.51.13-.77.29a.15.15 0 0 0 .03.26l.3.09c.14.04.14.09 0 .14a.84.84 0 0 1-.64.02.16.16 0 0 1-.1-.15l-.12-1.12c0-.08.02-.14.1-.17.3-.18.55-.48.76-.9.03-.07.01-.12-.06-.14l-.15-.04c-.07-.02-.1-.07-.08-.14l.23-1.1c.06-.31-.03-.38-.29-.2a.8.8 0 0 0-.09.1.15.15 0 0 1-.2.04.16.16 0 0 1-.06-.06 1.2 1.2 0 0 1-.1-1.04.13.13 0 0 1 .11-.08l.2-.02c.13-.02.13-.05.02-.1a1.39 1.39 0 0 1-.38-.24c-.05-.05-.04-.09.01-.12.35-.21.96-.55 1.16-.03a.12.12 0 0 1-.02.12.13.13 0 0 1-.12.04.92.92 0 0 0-.23-.02c-.23.03-.24.09-.02.19l.09.04c.06.03.07.07.03.13l-.1.16a.27.27 0 0 0 .02.33c.28.32.57.53.86.62.06.02.1.06.13.12.02.06.06.13.12.18a.17.17 0 0 0 .17.06c.34-.08.7-.05 1.06.11.03.02.05 0 .07-.02Z" fill="#F0F3FA"/><path d="M40.97 18.07c0-.38-.09-.43-.4-.61a.1.1 0 0 1-.06-.08c0-.08.03-.13.11-.15a.22.22 0 0 1 .18 0c.28.14.43.37.45.68a.17.17 0 0 1-.09.16l-.09.05c-.06.04-.1.02-.1-.05Z" fill="#0102B8"/><path d="M32.66 19.73c0 .03.05.1.15.22l.3.36c.05.06.03.08-.06.07l-.18-.02-.04-.01c-.55-.55-.82-1.38-1.12-2.08-.08-.18-.1-.4-.14-.58-.03-.14.03-.18.16-.14l.13.03a.16.16 0 0 1 .1.2l-.13.42a.26.26 0 0 0 .03.2l.38.66a.64.64 0 0 0 .47.31c.37.04.63.1.79.18.1.05.15.12.13.2a.12.12 0 0 1-.13.1.94.94 0 0 1-.58-.24c-.18-.17-.27-.13-.26.12Z" fill="#F0F3FA"/><path d="m33.74 18.97-.56-.38a.36.36 0 0 1-.13-.13 1.09 1.09 0 0 0-.58-.53c-.2-.07-.2-.12.01-.15.66-.09.7.62 1.22.84.26.1.33.3.27.54-.02.06-.05.07-.1.03a.19.19 0 0 1-.04-.09.2.2 0 0 0-.09-.13ZM40.85 18.15a.7.7 0 0 0-.12-.25l-.21-.27a.7.7 0 0 0-.97-.12l-.91.7a.7.7 0 0 0-.13.98l.21.27a.7.7 0 0 0 .98.12l.9-.7a.7.7 0 0 0 .25-.73Zm-1.9.46.93-.7a.33.33 0 0 1 .47.07l.01.02c.11.15.08.36-.07.47l-.92.7a.33.33 0 0 1-.47-.07l-.01-.02a.33.33 0 0 1 .06-.47Z" fill="#0102B8"/><path d="M22.2 19.49c.04.18.06.3.05.35a.19.19 0 0 1-.05.08.12.12 0 0 1-.08.04.22.22 0 0 0-.08.02c-.06.04-.07.09-.03.14.1.14.13.28.1.43-.01.07 0 .12.05.16.2.2.4.31.59.33.04 0 .05.02.03.05l-.01.02h-.05c-.19-.03-.3.17-.36.62 0 .1-.06.13-.15.07l-.3-.2c-.08-.05-.08-.1 0-.13.17-.08.25-.18.25-.31a.15.15 0 0 0-.1-.14c-.35-.13-.87-.35-1.08-.7-.04-.08-.02-.1.06-.1.23.04.39.04.48.01a.22.22 0 0 0 .15-.14.2.2 0 0 0-.05-.2l-.66-.68c-.26-.26-.21-.36.14-.29.1.02.32.16.64.4.05.03.1.04.16.03.07 0 .09-.04.05-.1-.2-.38-.2-.79 0-1.23a.05.05 0 0 1 .08-.03l.02.02.6 1.05a.15.15 0 0 0 .27-.03l.06-.23c.1-.34.2-.33.29 0 .04.15.1.3.2.48.07.1.14.17.22.19l.22.03c.07 0 .1.04.09.1-.05.25-.3.74-.1 1.13a.2.2 0 0 1-.02.22l-.1.17c-.06.08-.11.08-.15-.02a4.07 4.07 0 0 1-.26-1.34c-.01-.28-.15-.39-.43-.33l-.33.07a.21.21 0 0 1-.16-.03.54.54 0 0 0-.16-.08c-.08-.02-.11.02-.1.1ZM29.74 21.49c-.09-.28.03-.74-.05-1.08-.1-.39-.27-.72-.52-.98a.44.44 0 0 0-.3-.14l-.62-.05c-.13 0-.13-.03-.01-.07a.34.34 0 0 0 .16-.1c.04-.05.1-.06.16-.05.38.08.63.19.74.32.51.62.68 1.33.52 2.13 0 .03-.02.05-.04.05-.03 0-.04-.01-.04-.03Z" fill="#F0F3FA"/><path d="m41.1 20.05-1.2.68a.17.17 0 0 1-.21-.04l-.05-.05c-.1-.13-.08-.23.06-.31l1.8-1.1a.1.1 0 0 1 .07-.02.1.1 0 0 1 .06.03c.24.24.24.49-.01.75a12 12 0 0 0-.7.92c-.05.06-.04.07.02.04l1.12-.65c.1-.06.19-.03.25.09l.03.05c.07.12.05.2-.07.28l-1.81 1.1c-.05.04-.09.04-.11.02a.8.8 0 0 1-.19-.45c0-.06.01-.12.05-.17l.91-1.14c.05-.06.04-.07-.03-.03ZM13.13 19.37c0-.02 0-.03.02-.05a.1.1 0 0 1 .03-.03c.07-.04.13-.03.18.04.04.04.06.1.06.16a.74.74 0 0 1-.44.67.17.17 0 0 1-.18-.02l-.08-.06c-.06-.05-.06-.08 0-.11.35-.16.37-.25.41-.6Z" fill="#0102B8"/><path d="m34.4 20.8-.1-.13a.24.24 0 0 1-.06-.2c.02-.14.1-.23.2-.26.27-.08.4.2.7.23.48.06 1 .05 1.24.24.23.18.2.27-.09.29l-.51.04c-.4.04-.75.36-1.1.46-.37.12-.7.14-.97.08a.2.2 0 0 1-.1-.04l-.02-.05c0-.05.01-.07.05-.06.32.02.58-.13.77-.45.03-.05.03-.1 0-.15Z" fill="#F0F3FA"/><path fill-rule="evenodd" d="M15.18 21.4a.58.58 0 0 1-.2-.24.4.4 0 0 1-.02-.2c0-.06.03-.12.07-.17a.31.31 0 0 1 .14-.1.29.29 0 0 1 .18 0l.2.05c.1.03.2 0 .28-.08l.08-.08a.16.16 0 0 0 0-.23.16.16 0 0 0-.06-.04l-2.05-.6a.17.17 0 0 0-.18.04 1 1 0 0 0-.25.42c-.02.07 0 .13.05.18l1.54 1.54c.1.1.18.09.24-.04l.06-.15c.05-.12.03-.22-.08-.3Zm-1.04-.95c.1.07.2.15.3.29a.15.15 0 0 0 .16.06c.08-.02.14-.1.18-.22a.06.06 0 0 0-.03-.08l-.75-.29c-.09-.03-.1 0-.05.07.04.06.1.11.19.17Z" fill="#0102B8"/><path d="M32.2 21.05c-.13.01-.25.04-.37.09-.07.03-.13.03-.16.02a.37.37 0 0 1-.09-.04c-.09-.06-.08-.09.02-.1.36-.02.54-.21.56-.58 0-.13.05-.15.14-.06l.6.61c.1.09.1.17 0 .25a.84.84 0 0 1-.62.24c-.22-.01-.24-.09-.06-.24a.18.18 0 0 0 .06-.09c.03-.08 0-.11-.08-.1ZM25.43 23.01c.1.04.22.05.32.05.07 0 .1.04.07.1l-.02.09c-.03.1-.08.1-.15.04l-.19-.2c-.06-.06-.13-.06-.2 0l-.13.14c-.1.1-.12.08-.07-.04.08-.17.18-.32.32-.45.03-.04.05-.06.05-.08v-.05c0-.03.02-.06.05-.09.2-.21.5-.53.68-.93.13-.28.32-.56.55-.85.02-.02.04-.02.05 0l.02.05c-.2.32-.37.64-.55.98-.24.47-.48.72-.84 1.1-.06.06-.05.11.04.14Z" fill="#F0F3FA"/><path d="m13.02 22.12 1.55 1.03c.03.02.06.05.07.1 0 .03 0 .07-.02.11-.04.1-.15.13-.31.1a22.4 22.4 0 0 0-1.76-.18c-.04 0-.05.02-.03.05l.02.04.02.01a6 6 0 0 1 1.72.58c.1.04.12.12.1.21l-.05.14a.19.19 0 0 1-.25.12l-2.06-.8a.14.14 0 0 1-.08-.17l.14-.34a.33.33 0 0 1 .33-.22l1.14.08c.1 0 .1-.01.02-.06l-1-.58c-.09-.05-.11-.13-.07-.22l.18-.49c.04-.1.12-.14.23-.1l1.88.73c.1.04.15.11.11.23l-.03.1c-.03.11-.1.15-.2.1l-1.64-.59c-.06-.02-.07-.02-.01.02Z" fill="#0102B8"/><path d="m29.66 22.3-.02-.02a.05.05 0 0 0-.05 0l-.02.02-.64 1.33h-.02l-.07-.03c-.03-.01-.03-.03-.02-.06l.64-1.4.1-.49c.02-.02.03-.03.05-.02l.06.02c.03.01.04.03.03.05l-.08.42a.13.13 0 0 0 .02.1.12.12 0 0 0 .09.04.1.1 0 0 1 .07.04.03.03 0 0 1-.02.05c-.06 0-.1 0-.12-.05ZM26 25.95a.16.16 0 0 0-.22-.1.16.16 0 0 0-.07.05c-.28.4-.44.75-.5 1.08-.01.02-.02.03-.04.03a.1.1 0 0 1-.05-.01v-.01c0-.1 0-.19-.02-.25a.14.14 0 0 0-.18-.1.14.14 0 0 0-.06.05c-.3.38-.5.8-.58 1.26-.02.08-.05.09-.1.03a.71.71 0 0 1-.19-.4c-.01-.07-.05-.11-.12-.12-.07 0-.15.04-.25.14a.19.19 0 0 1-.15.07c-.3-.02-.5-.16-.6-.4a.2.2 0 0 1 .07-.24.2.2 0 0 1 .24 0l.26.17c.15.1.2.06.15-.12-.06-.16-.18-.26-.37-.3a.32.32 0 0 1-.25-.2c-.23-.56-.57-.7-1.03-.41-.22.14-.32.3-.3.48.02.08.08.14.17.17.07.01.1 0 .13-.07.05-.16.1-.27.14-.33.07-.08.18-.1.33-.04.07.03.16.12.26.25.06.08.06.17 0 .25-.42.59-1.44.08-2.18-.22-.42-.17-.58-.43-.5-.77a.21.21 0 0 1 .12-.15c.68-.37 1.11-.32 1.82-.08a.5.5 0 0 0 .41-.03l.43-.25a.24.24 0 0 1 .19-.02c.35.1.65.3.9.6a.07.07 0 0 0 .12-.03c.1-.3.25-.5.48-.63a.24.24 0 0 1 .18-.02c.24.06.45.17.66.3.05.04.1.04.16 0a.1.1 0 0 0 .03-.07c0-.02 0-.05-.03-.07-.08-.1-.15-.22-.2-.34-.04-.07-.02-.1.06-.1.5 0 1.15-.68 1.3-.95.32-.56 1.14-1.8 1.89-1.81a.2.2 0 0 1 .16.07c.1.12.14.22.11.3-.07.2-.13.2-.18-.01-.02-.07-.1-.1-.24-.1-.07 0-.11.04-.12.1-.02.25-.12.86-.3 1.05-.07.06-.1.05-.1-.05v-.18c0-.05-.03-.08-.08-.08l-.05.01a5.58 5.58 0 0 0-.36 1.63c-.04.03-.07.02-.09-.02a.27.27 0 0 0-.1-.11.12.12 0 0 0-.09-.02.12.12 0 0 0-.07.06l-.12.17c-.06.09-.1.08-.14-.01-.07-.2-.18-.29-.34-.27-.59.05-.46.73-.28 1.1V26l-.04.06c-.03.04-.05.03-.06-.02l-.02-.08Z" fill="#F0F3FA"/><path d="M42.62 23.49c-.07.02-.1.07-.08.14l.13.47a.11.11 0 0 0 .1.09.1.1 0 0 0 .04 0l.6-.17c.14-.04.23.01.27.15l.02.07c.04.13-.01.22-.14.25l-1.93.53c-.15.04-.24-.01-.28-.16l-.02-.06a.2.2 0 0 1 .14-.23l.72-.2c.12-.04.16-.1.13-.22l-.12-.42c-.04-.14-.12-.17-.24-.09-.5.34-.81.36-.93.07-.07-.18-.01-.3.18-.35l1.9-.52c.15-.04.25.02.3.17l.01.08c.04.1 0 .18-.12.21l-.68.19Z" fill="#0102B8"/><path d="M24 23.93c.34-.1.67-.3 1-.62.02-.03.04-.03.06 0l.04.06v.04l-.6.52c-.25.16-.41.24-.49.23-.37-.06-.38-.14 0-.23ZM31.62 26.8l.1-.23c.05-.1.09-.08.12.07 0 .03.02.06.05.1.02.01.02.03.02.06-.07.24-.19.46-.36.64a.29.29 0 0 0-.08.16c-.08.5.06.87.42 1.14.05.03.1.04.16.04l.6-.06c.11-.01.12.02.02.09-.13.1-.2.19-.23.28-.02.08 0 .1.08.09a.8.8 0 0 0 .43-.28.32.32 0 0 1 .13-.1.71.71 0 0 0 .3-.2c.19-.23.45-.22.64-.02a.09.09 0 0 1-.02.14.09.09 0 0 1-.05 0l-.5-.03c-.07 0-.12.03-.13.1-.02.07 0 .16.05.25a.08.08 0 0 1 0 .09.08.08 0 0 1-.08.03l-.33-.02c-.07-.01-.1.02-.1.1.04.18.11.35.24.51a.05.05 0 0 1 0 .05.05.05 0 0 1-.04.03c-.25.02-.47-.1-.76.05-.06.03-.1.02-.14-.03a1.16 1.16 0 0 0-.23-.24c-.1-.06-.13-.04-.11.05l.05.2a.08.08 0 0 1-.04.1.08.08 0 0 1-.04 0l-.23.03c-.06 0-.1.04-.12.1l-.07.2c-.03.07-.06.08-.1.02l-.2-.23a.22.22 0 0 0-.19-.09c-.14.01-.22.13-.24.37 0 .07-.03.08-.08.03-.07-.06-.11-.15-.12-.27a.15.15 0 0 0-.1-.14c-.2-.09-.35 0-.46.28a.04.04 0 0 1-.04.03.04.04 0 0 1-.03-.02l-.46-.57a.22.22 0 0 0-.16-.09.45.45 0 0 1-.2-.05c-.06-.04-.06-.09 0-.13.23-.16.3-.36.24-.59a.23.23 0 0 0-.1-.12l-.23-.16c-.05-.03-.06-.07-.02-.11.1-.17.08-.36-.09-.59-.05-.07-.03-.1.05-.1l.27.02a.1.1 0 0 0 .07-.02.1.1 0 0 0 .04-.05l.02-.08c0-.02 0-.04-.02-.05a.81.81 0 0 0-.32-.1.17.17 0 0 1-.13-.1c-.07-.14-.18-.2-.34-.18-.16 0-.52.06-1.1.16a.26.26 0 0 1-.18-.04l-.56-.37a.1.1 0 0 1-.05-.1v-.1c0-.05.04-.07.09-.05.14.05.22.08.24.1.07.1.17.18.3.2a.6.6 0 0 0 .37-.03 2.87 2.87 0 0 1 2.27-.07c.05.02.09.02.12 0a.12.12 0 0 0 .05-.04c.03-.03.02-.07-.01-.1-.65-.48-1.36-.32-2.25-.24-.48.05-.83 0-1.03-.12-.33-.2-.5-.58-.5-1.16l.02-.08a.18.18 0 0 1 .06-.07c.13-.1.22-.06.27.11.02.05.01.11-.01.19-.16.5.03.82.58.97a.13.13 0 0 0 .1-.03.12.12 0 0 0 .05-.1l-.04-.41a.1.1 0 0 1 0-.04.1.1 0 0 1 .02-.04c.15-.18.26-.06.34.34l.02.04.05.02c.51.05 1-.03 1.5-.23a.44.44 0 0 1 .39.02c.2.1.4.17.62.19a.1.1 0 0 1 .08.06.1.1 0 0 1 0 .1c-.18.27-.14.49.1.66.05.04.11.06.17.07.24.02.37.15.4.39.01.06.04.1.1.14.03.03.07.05.1.05.06.01.09 0 .1-.06l.18-.6c0-.02.02-.03.03-.04a.1.1 0 0 1 .05-.02h.06a.1.1 0 0 0 .06-.03.1.1 0 0 0 .03-.04Z" fill="#F0F3FA"/><path d="M37.78 23.68a8.82 8.82 0 0 1-.33.93.07.07 0 0 1-.1 0c-.46-.46-.65-1-.56-1.62 0-.06 0-.13-.02-.21l-.05-.2c-.15-.32-.23-.3-.24.05l-.04.17a.4.4 0 0 1-.07.16c-.24.3-.4.62-.47.96-.04.18-.22.45-.35.56-.14.12-.2.08-.17-.1.03-.28.05-.96-.27-1.06-.07-.03-.1 0-.1.08 0 .31-.1.65-.28 1-.35.62-.34.88-.03 1.53.02.05.03.11.03.17-.07.63.18.79.77.85.29.04.54.1.77.21.05.03.11.03.17.01.17-.06.5-.14.98-.24.1-.02.2-.11.3-.28.33-.61.4-1.2.21-1.76a.33.33 0 0 1 0-.18c.1-.46.13-.8.1-1.01-.07-.38-.15-.38-.25-.02Zm-1.4 3.17a.82.82 0 0 1-.7-.92c.05-.46.44-.8.89-.75.44.04.76.46.7.92a.82.82 0 0 1-.88.75ZM13.81 26.09l-2.17-.33a.15.15 0 0 0-.16.12l-.04.23c0 .07.05.15.13.16l2.16.33c.08.02.16-.04.17-.12l.03-.23a.15.15 0 0 0-.12-.16ZM44.34 26.5l-.22.06c-.07.02-.1 0-.08-.08.08-.35.06-1.08-.34-1.19a3.33 3.33 0 0 0-1.77.13c-.53.15-.42.86-.31 1.24.2.72 1.7.31 2.14.13a.31.31 0 0 1 .18-.01l.34.07c.16.04.25-.01.27-.17.03-.17-.04-.23-.2-.18Zm-2.12-.64 1-.17c.2-.03.38.1.42.29v.04c.04.19-.1.37-.29.4l-1.01.18a.35.35 0 0 1-.4-.3l-.01-.03c-.04-.19.1-.37.29-.4Z" fill="#0102B8"/><path d="M19.34 26.72c.11 0 .22-.05.32-.19a.08.08 0 0 1 .06-.03.09.09 0 0 1 .08.03c.4.5 1.16.6 1.76.83.35.13.62.1.93.04.06-.01.11.01.15.07.18.28.46.44.85.48.14.02.17.08.09.2l-.05.08a.3.3 0 0 1-.32.14c-.67-.09-.99-.42-1.43-.75a.25.25 0 0 0-.17-.05c-.78.04-1.21.07-1.97-.2a8.23 8.23 0 0 0-1.72-.38 1.37 1.37 0 0 1-.67-.26.09.09 0 0 1 .02-.15c.29-.1.48-.13.7-.3.4-.28 1.14-.9 1.54-.15.03.05.02.1 0 .14l-.23.34c-.04.06-.02.1.06.1ZM32.19 26.88c.33-.04.95-.27 1.02-.68a.35.35 0 0 1 .08-.16.39.39 0 0 0 .07-.13.13.13 0 0 0-.02-.11.13.13 0 0 0-.1-.06h-1a.16.16 0 0 0-.16.16v.88c0 .07.04.1.11.1Zm.14-.52c-.08-.03-.1-.15-.05-.26.04-.1.15-.17.23-.13.07.03.1.15.05.26-.05.1-.15.17-.23.13Z" fill="#F0F3FA"/><path d="M12.6 27.42c.26 0 .84-.31 1.08-.43.12-.05.18-.02.17.11l-.01.17a.3.3 0 0 1-.24.3l-.44.11c-.1.03-.1.07-.02.13l.5.32a.35.35 0 0 1 .15.32l-.01.17c-.01.14-.07.17-.18.08a7.17 7.17 0 0 0-1.03-.57 7.36 7.36 0 0 0-1.06.5c-.11.07-.17.04-.17-.1v-.17a.35.35 0 0 1 .18-.3l.52-.3c.08-.04.08-.09-.02-.12l-.43-.15a.3.3 0 0 1-.21-.3v-.17c0-.14.06-.17.17-.1.23.13.8.49 1.05.5Z" fill="#0102B8"/><path d="M25.76 26.97c.3.22.7.34 1.17.38.04 0 .05.03.04.07l-.03.06c0 .02-.01.02-.03.02l-.8-.12c-.31-.1-.49-.17-.53-.24-.2-.35-.14-.4.18-.17Z" fill="#F0F3FA"/><path d="M30.62 27.47a.42.42 0 1 1-.83 0 .42.42 0 0 1 .83 0Z" fill="#0102B8"/><path d="M32.73 27.76a.08.08 0 0 0 .03-.07.08.08 0 0 0-.05-.06 1.2 1.2 0 0 0-.8 0c-.09.04-.12.01-.1-.07a.4.4 0 0 1 .16-.23c.05-.04.1-.05.16-.03.3.14.53.13.68-.02.23-.23.31-.18.25.13a1.7 1.7 0 0 1-.44.68c-.06.06-.09.05-.08-.04.02-.1.08-.2.2-.29ZM24.53 28.19a2.62 2.62 0 0 1 .3-.96.1.1 0 0 1 .13.02l.21.26.03.09c0 .03-.01.05-.03.08-.36.4-.6.7-.98.99-.14.1-.26.24-.37.41-.15.25-.2.22-.17-.06.04-.25.11-.51.22-.8.02-.07.06-.08.1-.03.15.14.3.18.46.13.06-.02.1-.07.1-.13ZM30.06 27.59c.08.04.16.02.19-.05.03-.06 0-.13-.08-.17-.07-.03-.16-.01-.18.05-.03.06 0 .13.07.17ZM33.61 27.97a2.4 2.4 0 0 1-.62.37c-.27.1-.31.04-.13-.17.4-.45.49-1 1.28-.79.1.03.1.05 0 .08l-.3.04c-.14 0-.23.05-.25.15-.02.06 0 .1.07.14l.28-.02c.07 0 .12 0 .15.02.03.01.05.03.06.06.03.06.01.1-.04.13-.13.08-.24.07-.34 0-.05-.05-.1-.05-.16 0ZM25.54 27.52a.2.2 0 0 1 .17-.06h.12l.01.01.01.01v.02c-.41.43-.74.82-1.22 1.27a4.29 4.29 0 0 0-1.27 2.36c0 .06-.04.07-.09.04l-.05-.04a.09.09 0 0 1-.04-.1c.12-.86.47-1.58 1.04-2.15.55-.54.99-1 1.32-1.36ZM22.56 28.7c-.1.01-.16.11-.2.31-.01.06-.05.08-.1.06-.32-.1-.6-.3-.97-.35-.27-.03-.5-.1-.7-.21-.34-.2-.64-.18-.94-.28a.44.44 0 0 1-.31-.35l-.02-.12c-.04-.16.02-.22.18-.16.4.15.7.25.9.3.3.06.6-.04.91-.04a.3.3 0 0 1 .17.05c.77.49 1 .73 1.83.77.07 0 .1.04.1.1l-.01.23c0 .05-.03.07-.09.06a1.26 1.26 0 0 1-.59-.3.21.21 0 0 0-.16-.06Z" fill="#F0F3FA"/><path d="M35.87 29.56c.32.36 1.15.96 1.67.56a.09.09 0 0 0 .03-.1l-.01-.02-.1-.13c-.18-.22-.13-.29.14-.2l.68.2c.07.02.08.05.01.1-.37.23-.4.5-.06.8a.24.24 0 0 0 .4-.1c.02-.1.09-.16.2-.2.06-.04.1-.02.11.05.06.32-.06.51-.35.59-.34.08-.62-.07-.83-.48-.03-.05-.08-.07-.14-.06-.36.1-.68.08-.97-.07a5.87 5.87 0 0 1-1.37-1.17.1.1 0 0 1 .04-.1.1.1 0 0 1 .05-.02l1-.1a.4.4 0 0 0 .34-.28l.13-.43a.22.22 0 0 1 .12-.14c.27-.13.5-.26.66-.38.47-.35.9-.12 1.37-.23.24-.06.52-.07.82-.03.03 0 .05.02.05.05v.05c0 .03 0 .05-.04.05-.3 0-.57.1-.79.3a.15.15 0 0 1-.14.02l-.58-.17a.17.17 0 0 0-.13.02l-.97.56c-.22.13-.2.2.05.22l.49.03c.2.02.38-.04.54-.17.19-.15.44-.16.75-.04.06.03.1.07.14.12l.05.1a.04.04 0 0 1 0 .05l-.03.01h-.03c-.35-.17-.66-.1-.93.22a.19.19 0 0 1-.07.05.23.23 0 0 1-.09.02c-.5 0-.97-.27-1.46.27a.19.19 0 0 1-.16.06l-.52-.03a.1.1 0 0 0-.07.15Z" fill="#0102B8"/><path d="m28.03 28.93.04.06c.02.03 0 .06-.02.07l-.24.11a.09.09 0 0 1-.12-.06c0-.06.04-.12.14-.16a.11.11 0 0 0 .06-.06l.12-.3a.2.2 0 0 1 .12-.13c.1-.04.16-.08.17-.13a.17.17 0 0 0-.06-.16.18.18 0 0 0-.17-.04c-.24.08-.45-.01-.62-.26-.04-.05-.02-.08.04-.06.17.03.28.03.32-.01.07-.07.12-.09.17-.05.19.18.4.31.64.4a.09.09 0 0 1 .06.12.1.1 0 0 1-.03.04l-.57.4a.2.2 0 0 0-.06.05.17.17 0 0 0-.02.06v.06c0 .02.01.03.03.05Z" fill="#F0F3FA"/><path d="M31.93 28.9c.07.05.07.1 0 .16l-.06.05a.15.15 0 0 1-.2-.02l-.54-.63c-.14-.16-.2-.3-.18-.4.06-.27.15-.27.27 0 .14.31.38.59.71.84ZM30.63 28.71l.6.6c.06.07.05.1-.03.11l-.98.1c-.06 0-.1-.02-.13-.08a1.23 1.23 0 0 0-.24-.36c-.28-.3-.3-.5-.36-.86 0-.07.02-.1.08-.09l.83.06c.07 0 .11.04.12.12l.02.22c0 .07.04.13.1.18Z" fill="#0102B8"/><path fill-rule="evenodd" d="M42.6 28.24c.08 0 .12.04.12.11l.01.14c.02.28.03.56.21.71.36.3 1.14.2 1.2-.36a7.79 7.79 0 0 0 0-1.06.07.07 0 0 0-.04-.03l-2.18-.13c-.13 0-.2.06-.22.2l-.02.2c-.02.1.03.16.14.17l.79.05Zm1.09.02h-.05l-.47.01a.13.13 0 0 0-.09.04.13.13 0 0 0-.03.1v.02c0 .12.05.23.11.3a.3.3 0 0 0 .24.13h.05a.3.3 0 0 0 .23-.14c.06-.09.1-.2.09-.32v-.03a.13.13 0 0 0-.04-.08.13.13 0 0 0-.04-.03Z" fill="#0102B8"/><path d="m19.03 29.19-1.62-.48a.25.25 0 0 0-.22.04c-.2.16-.13.32.21.48.12.05.12.1 0 .16-.19.08-.5.02-.57-.25-.17-.67.59-.87 1-.67.5.26 1 .4 1.48.44a.16.16 0 0 1 .15.16c0 .03 0 .06-.02.08-.51.79-1.2 1.03-2.01 1.2-.38.07-.43-.01-.14-.26l.15-.1c.2-.12.22-.43.15-.61v-.06c0-.02.02-.04.03-.05l.13-.07a.1.1 0 0 1 .12.02l.02.05.04.39a.19.19 0 0 0 .08.13.18.18 0 0 0 .16.03c.33-.1.62-.29.88-.56.03-.03.02-.06-.02-.07Z" fill="#0102B8"/><path d="M28.48 28.9a.74.74 0 0 1-.17.07l-.02-.01v-.06l.03-.02c.12-.05.26-.07.4-.08a.2.2 0 0 1 .18.09.2.2 0 0 1 .02.19c-.04.12-.16.26-.35.42a.35.35 0 0 0-.11.16c-.05.15-.2.22-.46.2-.1 0-.11-.04-.03-.1l.67-.54a.16.16 0 0 0 .05-.18.27.27 0 0 0-.05-.1.12.12 0 0 0-.16-.03ZM23.23 30.1c0 .06-.02.1-.06.14-.04.06-.07.05-.08-.02a2.45 2.45 0 0 0-.33-.95l.01-.03a.05.05 0 0 1 .06-.02c.45.1.73.44.4.88Z" fill="#F0F3FA"/><path d="M26.68 31.76c.23.05.44.12.63.22.22.12.2.18-.05.18-.37-.01-.66.1-.9.32a.18.18 0 0 0 .08.3c.25.07.44.18.57.34.04.05.03.08-.04.08-.18 0-.45-.06-.8-.17-.16-.04-.28-.03-.36.04-.05.04-.06.1-.02.15.1.13.14.24.15.33 0 .08-.03.09-.09.04-.28-.27-.4-.65-.37-1.14.02-.26.16-.6.43-1 .47-.71.87-1.26 1.19-1.64.16-.2.4-.3.72-.33.09-.01.1.01.02.06l-.51.37a.2.2 0 0 0-.08.2.22.22 0 0 0 .14.17c.06.02.15.03.25.03a3.17 3.17 0 0 0 .75-.18l.01.05v.02c-.22.2-.56.31-.75.6-.22.32-.55.57-1 .72-.27.1-.27.19.03.24ZM28.94 30.53a.22.22 0 0 1-.1.15c-.1.06-.19.1-.26.11a.06.06 0 0 1-.07-.05v-.03c.1-.24.22-.44.37-.58.05-.05.06-.1.03-.16a.2.2 0 0 1-.03-.12c0-.1.05-.12.12-.05l.05.04v.03l-.11.66ZM29.75 31.35l.22.15a.08.08 0 0 0 .09 0 .08.08 0 0 0 .04-.06l.01-.19c.01-.08.05-.11.13-.1.05.02.08.06.09.13a3.4 3.4 0 0 1 0 .7.09.09 0 0 0 .07.05l.04-.01.07-.01c.05.01.08.03.07.05l-.07.42c0 .05-.04.08-.1.07a.66.66 0 0 1-.32-.11.17.17 0 0 1-.08-.16l.04-.53c0-.07-.03-.1-.1-.1-.17-.01-.26-.1-.27-.27 0-.06-.04-.1-.1-.1-.05 0-.11.04-.18.1a.03.03 0 0 1-.05-.02c.15-.38.14-.69-.04-.92-.05-.06-.03-.09.04-.08h.13c.06.01.1.04.12.11l.17.62v.1a.3.3 0 0 1-.04.05c-.03.04-.02.08.02.11ZM30.82 30.9a1.66 1.66 0 0 1-.01-.4c0-.07.04-.1.11-.1.08.01.15.05.19.1.1.15.08.21-.09.2-.05-.01-.1.06-.13.23-.05.18-.1.36-.12.55-.01.05-.04.08-.1.07h-.06c-.05 0-.07-.03-.06-.08.02-.18 0-.36-.07-.54a.1.1 0 0 1 0-.08c.04-.06.07-.06.09 0l.03.12c.02.07.06.1.14.08.03 0 .05-.03.07-.06.02-.02.02-.05.01-.09ZM31.57 30.52c.1-.13.13-.12.12.04l-.03.7-.01.03a.06.06 0 0 1-.1.01c-.2-.19-.2-.45.02-.78Z" fill="#F0F3FA"/><path d="m14.14 32.2.9-.43a.06.06 0 0 1 .08.1l-.52.83a.06.06 0 0 0 0 .08l.68.72a.07.07 0 0 1 .01.08.07.07 0 0 1-.07.03l-.96-.23a.06.06 0 0 0-.07.03l-.48.87a.06.06 0 0 1-.12-.03l-.08-.98a.06.06 0 0 0-.05-.06l-.97-.19a.07.07 0 0 1-.04-.1l.03-.02.91-.38a.06.06 0 0 0 .04-.07l-.12-.98a.06.06 0 0 1 .04-.06.06.06 0 0 1 .07.01l.64.75a.06.06 0 0 0 .08.02ZM42.12 32.52l.88.39a.06.06 0 0 1 .03.06.06.06 0 0 1-.05.05l-.93.2a.06.06 0 0 0-.05.06l-.1.95a.06.06 0 0 1-.04.05.06.06 0 0 1-.07-.03l-.48-.83a.06.06 0 0 0-.06-.03l-.94.2a.06.06 0 0 1-.07-.02.06.06 0 0 1 .01-.08l.64-.7a.06.06 0 0 0 .01-.08l-.48-.82a.06.06 0 0 1 .08-.1l.87.4a.06.06 0 0 0 .07-.02l.64-.71a.06.06 0 0 1 .1 0v.05l-.1.95a.06.06 0 0 0 .04.06Z" fill="#0102B8"/><path fill-rule="evenodd" d="M37.5 34.63c-.15.21-.3.44-.48.66a9.18 9.18 0 0 1-3.04 2.78c-.67.42-1.43.9-2.12 1.13-2.65.9-5.29.9-7.92-.05-.85-.3-1.77-.9-2.44-1.34a72.2 72.2 0 0 0-.19-.12c-1.08-.7-1.75-1.54-2.5-2.48l-.24-.31c-.05-.05-.09-.06-.14-.02l-3.96 3.17a.19.19 0 0 0-.04.24c.41.67.89 1.26 1.41 1.8a16.5 16.5 0 0 0 7.37 4.45l.36.1c.79.21 1.6.43 2.37.53 1.76.22 3.39.17 4.89-.17 1.72-.38 3.1-.8 4.13-1.27a17.91 17.91 0 0 0 4.5-3.08 15.85 15.85 0 0 0 2.56-3.13c.03-.05.02-.09-.02-.12l-4.27-2.82a.17.17 0 0 0-.13-.03.17.17 0 0 0-.1.08Zm3.84 2.88-3.53-2.34c-.08-.05-.14-.03-.19.04-.57.83-1.21 1.57-1.94 2.24-.32.3-.66.5-1 .71l-.56.37c-.38.28-.8.52-1.23.72-3 1.36-6.54 1.4-9.58.13a7.36 7.36 0 0 1-1.13-.59l-.37-.24a10.1 10.1 0 0 1-2.1-1.57 15.02 15.02 0 0 1-1.2-1.45.16.16 0 0 0-.12-.02.16.16 0 0 0-.06.03l-3.23 2.58c-.1.09-.12.19-.04.3.64.91 1.3 1.5 2.04 2.18l.59.53c.36.34 1 .8 1.91 1.36.72.45 1.42.8 2.08 1.06a16.75 16.75 0 0 0 13.64-.47c.57-.27 1.44-.83 2.6-1.7.23-.17.44-.37.65-.57.18-.17.36-.35.57-.5.9-.74 1.52-1.58 2.23-2.65.04-.06.03-.1-.03-.15Z" fill="#0102B8"/><path d="M18.03 38.93c-.5.61-.08 1.18.65 1.1.15-.02.24.05.27.2l.02.08a.14.14 0 0 1-.07.15.14.14 0 0 1-.06.01 1.32 1.32 0 0 1-1.33-.67c-.25-.41-.16-.84.13-1.2.3-.34.7-.5 1.15-.33.55.2.84.6.9 1.2a.14.14 0 0 1-.04.1.14.14 0 0 1-.1.05h-.09c-.15-.01-.23-.09-.24-.24-.05-.73-.68-1.05-1.19-.45ZM37.95 37.93c.15.02.25.08.3.16a.05.05 0 0 1 0 .06.05.05 0 0 1-.06.02c-.71-.2-1.24-.04-1.59.52-.74 1.18.53 2.34 1.61 1.38.55-.48.62-1.05.21-1.69a.21.21 0 0 1-.02-.18c.1-.3 0-.55-.3-.73-.05-.03-.1-.03-.15.01-.1.1-.14.2-.12.34.01.06.05.1.12.11Zm-.2 2.04c-.37.1-.77-.12-.89-.52s.09-.8.46-.92c.37-.1.77.12.89.52.11.4-.09.8-.46.92Z" fill="#0102B8"/><path d="m33.51 41.09.64 1.32c.04.07.02.13-.05.17l-.26.15c-.05.03-.09.01-.12-.06l-.66-1.34c-.03-.07-.08-.09-.15-.06l-.38.19a.13.13 0 0 1-.16-.03l-.07-.07a.12.12 0 0 1-.03-.1.12.12 0 0 1 .06-.1l2.17-1.04a.15.15 0 0 1 .19.05l.27.48.07.06c.03 0 .07 0 .1-.02l.67-.39c.06-.03.07-.07.04-.13l-.26-.45a.23.23 0 0 1 .03-.28.26.26 0 0 1 .11-.07c.11-.03.2 0 .26.1l.88 1.52c.08.12.03.21-.13.27l-.08.03a.24.24 0 0 1-.3-.13l-.22-.45c-.05-.1-.11-.11-.2-.06l-.6.34c-.11.07-.13.15-.04.25.06.08.15.2.24.36.08.14.1.24.06.3-.05.1-.16.14-.31.16a.17.17 0 0 1-.18-.09l-.82-1.43c-.03-.04-.05-.04-.08-.01-.18.2-.4.36-.65.48-.04.01-.06.04-.04.08ZM19.5 40.25c.26-.38.66-.59 1.12-.46.57.15.91.52 1.03 1.1a.14.14 0 0 1-.03.12.14.14 0 0 1-.1.05h-.08c-.15.02-.24-.05-.27-.2-.12-.73-.8-.99-1.24-.32-.45.66.04 1.18.77 1.03.14-.04.24.02.29.17l.02.08a.14.14 0 0 1-.01.11.14.14 0 0 1-.1.07 1.34 1.34 0 0 1-1.4-.54c-.3-.39-.25-.83 0-1.21ZM22.61 42.24l.79-.91c.04-.05.1-.07.16-.04l.49.19a.1.1 0 0 1 .06.13l-.68 1.76c-.05.11-.12.14-.22.08l-.1-.05a.22.22 0 0 1-.1-.27l.41-1.05c.1-.27.07-.28-.1-.06-.2.3-.37.52-.5.67-.51.64-.75.55-.7-.26 0-.22.03-.54.08-.96.03-.2 0-.21-.09-.03a11 11 0 0 0-.4 1.05c-.05.15-.15.2-.29.14l-.06-.03c-.1-.04-.14-.11-.1-.22l.68-1.77a.12.12 0 0 1 .19-.05l.42.32c.05.03.07.08.07.14l-.08 1.19c-.01.09.02.1.07.03ZM30.48 42.82a1.55 1.55 0 0 0-.34-.27c-.1-.05-.13-.02-.1.08l.27.98c.03.1 0 .17-.11.2l-.16.04c-.13.04-.2 0-.23-.13l-.36-1.74c0-.06.01-.1.06-.14.4-.29.95.33 1.26.65.13.13.24.22.34.27.1.05.13.03.1-.08l-.27-.98c-.02-.1.01-.17.12-.2l.16-.04c.12-.04.2.01.22.14l.36 1.73c.01.06 0 .1-.06.14-.4.3-.94-.33-1.26-.65ZM24.85 42.77c.04-.46.29-.83.76-.95.58-.14 1.06.02 1.44.48a.14.14 0 0 1 .04.11.14.14 0 0 1-.07.1l-.07.05c-.13.08-.24.06-.33-.05-.47-.59-1.19-.5-1.26.31-.08.8.61 1.02 1.18.54.11-.1.23-.1.34 0l.06.07a.14.14 0 0 1-.01.2c-.46.39-.97.45-1.5.21-.45-.2-.62-.6-.58-1.07Z" fill="#0102B8"/><path fill-rule="evenodd" d="m27.88 41.54.09.1c.04.06.05.11.02.17l-.81 2.13a.1.1 0 0 0 .01.1.1.1 0 0 0 .09.03l.2-.02c.1 0 .16-.05.2-.14l.08-.23a.18.18 0 0 1 .17-.13l.75-.08c.04 0 .07.01.1.03.03.02.05.05.06.08.1.29.3.41.6.38a.09.09 0 0 0 .06-.05.08.08 0 0 0 0-.08c-.37-.7-.74-1.43-1.1-2.2-.1-.23-.24-.3-.47-.24-.09.03-.1.08-.05.15Zm.66 1.48c-.13-.4-.22-.59-.28-.59-.06 0-.14.2-.25.6-.02.06 0 .1.07.12a.7.7 0 0 0 .4 0c.06-.03.08-.07.06-.13Z" fill="#0102B8"/><path fill-rule="evenodd" d="M28 45.44a17.44 17.44 0 1 0 0-34.88 17.44 17.44 0 0 0 0 34.88Zm0 .56a18 18 0 1 0 0-36 18 18 0 0 0 0 36Z" fill="#0102B8"/></svg>