<!-- by TradingView --><svg width="56" height="56" viewBox="0 0 56 56" xmlns="http://www.w3.org/2000/svg"><path fill="#F0F3FA" d="M0 0h56v56H0z"/><path d="M8.72 31h25.54v2H9.76l-1.04-2Z" fill="#FFF501"/><path d="M28.3 41h-.03l-.9-.02a28.26 28.26 0 0 1-8.1-1.3C14.12 38.09 8.26 34.29 8 28.24v-.46c.22-5.68 5.49-9.45 10.32-11.15 3.69-1.3 7.51-1.78 11.42-1.57 2.97.15 5.83.75 8.56 1.8 3.8 1.46 7.9 4.28 9.23 8.33 1.68 5.08-1.38 9.52-5.58 12.14C37.93 39.83 33 40.97 28.3 41Zm12.38-12.34c.19-.23.45-.66.79-.66h6.19a.07.07 0 0 0 .07-.07c.03-4.9-4.2-8.48-8.36-10.33a25.64 25.64 0 0 0-8.75-2.2c-.07 0-.14.02-.21.05-2.46 1.1-4.86 2.28-6.77 3.8-1.29 1.03-3.04 2.84-2.27 4.66.67 1.6 2.56 2.65 4.12 3.3.84.35 1.54.46 2.16.67.2.07.43.12.68.12h5.94c.17 0 .4.2.5.33a24.95 24.95 0 0 1 3.05 4.49.08.08 0 0 0 .11-.03c.78-1.47 1.7-2.84 2.75-4.13ZM12.81 28H8.4a.08.08 0 0 0-.08.1 10 10 0 0 0 .75 3.46c.28.65.64 1.25 1.06 1.81 3.64 4.77 9.98 6.89 15.75 7.27.16 0 .31-.02.46-.1 1.53-.7 2.97-1.52 4.34-2.46 1.35-.94 3.05-2.45 3.17-4.06l-.02-.6c-.12-.8-.48-1.5-1.07-2.1-1.27-1.4-3.05-2.43-4.7-3.3a.22.22 0 0 0-.1-.02h-10c-.04 0-.07-.02-.09-.05l-.23-.28c-.64-.88-1.13-1.55-1.8-2.42-.04-.06-.06-.22-.06-.47 0-.17-.05-.58.09-.7l5.43-4.87c.03-.02.05-.05.05-.08 0-.04-.02-.06-.06-.04l-8 4.46a.04.04 0 0 0-.03.03v.02l.02.02.98.49a.25.25 0 0 1 .14.22v.76c0 .05.03.08.08.08h.34a.04.04 0 0 1 .04.04v.02L12.8 28Z" fill="#29166E"/><path d="M14.94 25.24a.1.1 0 0 0-.08-.15c-.16 0-.26-.01-.32-.04a.1.1 0 0 1-.06-.1v-.72a.16.16 0 0 0-.09-.15l-.89-.44a.07.07 0 0 1 0-.13l7.16-3.94c.16-.1.17-.08.04.05l-4.92 4.41a.3.3 0 0 0-.1.2c-.03.26-.08.88.1 1.1.5.64.84 1.1 1.03 1.39a8.19 8.19 0 0 0 .56.75l-.02.02h-.01l-1.92-1.66a.15.15 0 0 0-.2 0l-1.83 1.63c-.14.12-.16.11-.04-.04l1.6-2.18Z" fill="#D8261C"/><path d="M38.94 23.27h-2.28a.07.07 0 0 0-.07.07v1.2c0 .04.03.07.07.07h2.28c.04 0 .07-.03.07-.07v-1.2a.07.07 0 0 0-.07-.07ZM37.84 24.69c.95 0 1.75-.05 2.63-.03.02 0 .03.02.03.04v1.49a.05.05 0 0 1-.02.04l-.03.01h-.03c-.74-.41-1.53-.85-2.38-1.3a.5.5 0 0 0-.2-.07.48.48 0 0 0-.2.07 295.24 295.24 0 0 0-2.4 1.32.05.05 0 0 1-.05-.03v-.03l-.01-1.49c0-.02 0-.03.03-.03.88-.03 1.68.01 2.63 0Z" fill="#29166E"/><path d="M40.97 28.16c-1.03-.08-2.05-.1-3.05-.04l-.03-3v-.02a.04.04 0 0 0-.06 0l-.02.02-.01.01-.03 2.97c-.59-.01-1.44 0-2.54.03-.23 0-.36.06-.39.16a5.08 5.08 0 0 0-1.32-.97v-.03a.05.05 0 0 1 .02-.05l4.1-2.2c.25-.13.4-.02.68.13a790.97 790.97 0 0 0 3.87 2.11v.02l-.02.02-1.2.84ZM17.6 27.78c.09.05.14.1.16.15.01.05 0 .07-.05.07h-4.84c-.01 0-.02 0-.03-.02l-.02-.04 2.42-1.99a.14.14 0 0 1 .19 0l2.17 1.83Z" fill="#29166E"/><path d="M37.78 28v4.32c0 .18-.04.19-.12.03a29.94 29.94 0 0 0-3.1-4.35h3.22ZM41.15 28c-.35.46-.84 1.02-1.1 1.36-.76.96-1.41 1.95-1.96 2.97-.1.19-.15.18-.15-.04V28h3.21ZM11.5 31.17c-.29.47-.67.58-1.13.34a1.36 1.36 0 0 1-.3-.3c-.16-.5-.12-1.2.46-1.37.39-.11.7-.01.91.3a.15.15 0 0 1-.05.22c-.14.07-.25.03-.34-.14a.15.15 0 0 0-.08-.07c-.52-.22-.64.32-.6.72.04.48.58.59.77.15a.08.08 0 0 1 .08-.05c.14 0 .23.06.29.2ZM26.99 31.25a.83.83 0 0 1-.77.38.83.83 0 0 1-.69-.37c-.23-.56-.15-1.32.55-1.44.92-.16 1.22.74.9 1.43Zm-.73.04c.13 0 .25-.06.34-.17.1-.11.14-.26.14-.42a.67.67 0 0 0-.13-.42.44.44 0 0 0-.34-.18.44.44 0 0 0-.35.17.67.67 0 0 0-.14.43c0 .15.05.3.14.42.09.11.21.17.34.17ZM28.75 31.22l.12.28c.03.07 0 .1-.07.1h-.17a.2.2 0 0 1-.18-.09l-.24-.35a.66.66 0 0 0-.36-.31.09.09 0 0 0-.09.01.1.1 0 0 0-.03.08V31.5c-.01.04-.03.06-.07.08a.39.39 0 0 1-.2.01.08.08 0 0 1-.07-.07l-.04-.29.02-1.37a.05.05 0 0 1 .01-.03.05.05 0 0 1 .03-.02l1.03.03c.1 0 .17.04.23.13.18.25.17.5-.02.72a.13.13 0 0 1-.07.05l-.13.03c-.04.01-.05.03-.02.07l.32.37Zm-1.03-1.04.01.36v.02l.01.01a.04.04 0 0 0 .03.01h.3c.1 0 .2-.03.26-.07.07-.04.1-.09.1-.14v-.04a.13.13 0 0 0-.02-.08.25.25 0 0 0-.08-.06.45.45 0 0 0-.12-.04.62.62 0 0 0-.14-.01h-.3l-.03.01-.02.03ZM13.33 31.47c0 .1-.09.13-.27.11-.06 0-.1-.03-.12-.08l-.07-.21a.15.15 0 0 0-.14-.1h-.45a.2.2 0 0 0-.18.12l-.1.24c0 .01 0 .02-.02.03a.09.09 0 0 1-.04.02c-.1.01-.18 0-.24-.02a.07.07 0 0 1-.04-.04v-.05l.08-.24.53-1.35a.08.08 0 0 1 .08-.06h.27c.04 0 .06.02.08.05l.63 1.58Zm-1.06-.61v.01a.04.04 0 0 0 .03.04h.35a.04.04 0 0 0 .04-.06l-.18-.52a.04.04 0 0 0-.07 0l-.17.53ZM15.23 31.25l-.04.33c0 .05-.03.06-.07.05l-.15-.03a.12.12 0 0 1-.1-.12v-1.1c0-.02 0-.03-.02-.04h-.03l-.26 1.19a.1.1 0 0 1-.07.07c-.18.08-.31-.03-.36-.22a15.45 15.45 0 0 1-.22-1.08h-.03a.01.01 0 0 0-.01 0v1.22l-.02.04-.04.03c-.16.03-.26-.01-.3-.12l.04-1.57c0-.02 0-.03.02-.04a.06.06 0 0 1 .04-.02h.4c.05 0 .08.02.1.07l.24 1.06c.01.05.03.05.04 0l.27-1.07c.01-.04.04-.06.08-.06h.41c.05 0 .07.02.07.06l.01 1.35ZM19.52 31.44c.02.17-.08.22-.3.14a.14.14 0 0 1-.07-.07l-.17-.3a.06.06 0 0 0-.06-.03h-.55a.07.07 0 0 0-.06.05l-.12.3a.15.15 0 0 1-.2.08l-.08-.03a.22.22 0 0 0-.1 0l-.37.03c-.04 0-.07-.01-.1-.05l-.24-.37a.81.81 0 0 0-.4-.35.1.1 0 0 0-.13.1l.03.36-.02.21c0 .07-.04.1-.1.1h-.17c-.05 0-.07-.03-.07-.07l-.02-.34v-1.3c0-.02 0-.04.02-.05a7.42 7.42 0 0 1 1.08 0c.12.02.2.1.25.22.15.38.05.62-.3.71-.03.01-.04.03 0 .06a2.15 2.15 0 0 1 .48.67h.05l.02-.02.63-1.6a.07.07 0 0 1 .07-.05h.26c.04 0 .07.02.08.05l.66 1.55Zm-2.95-1.27v.37a.04.04 0 0 0 .05.04h.36l.12-.01a.35.35 0 0 0 .1-.05.22.22 0 0 0 .06-.06.14.14 0 0 0 .03-.08v-.05c0-.06-.04-.1-.1-.14a.4.4 0 0 0-.21-.06h-.36a.04.04 0 0 0-.05.04Zm2.09.74c.06 0 .11-.01.16-.03.04 0 .05-.03.04-.06l-.22-.53c-.02 0-.08.18-.19.54-.01.04 0 .06.04.07l.17.01ZM21.1 31.28l-.01.25c0 .04-.02.06-.06.07a.52.52 0 0 1-.27-.01.14.14 0 0 1-.08-.07l-.26-.44-.33-.57c-.02-.03-.03-.03-.04.01v.8l-.02.2a.1.1 0 0 1-.06.08.23.23 0 0 1-.2 0 .1.1 0 0 1-.05-.08l-.02-.27.01-1.32c0-.04.02-.07.06-.08.18-.05.3-.04.4.14l.56.94c.02.04.03.04.03 0l.01-.96c0-.1.06-.16.17-.14h.02a.1.1 0 0 1 .05 0l.06.03c.01.02.03.04.03.07l.02.07-.01 1.28ZM22.87 31.21l-.03.3c0 .07-.04.1-.12.1h-.1c-.07 0-.11-.03-.11-.1l-.03-.37c.13-.26-.07-.37-.61-.31-.04 0-.06.02-.06.06v.39l-.01.23c0 .07-.04.1-.1.1h-.12c-.07 0-.11-.03-.12-.1l-.03-.3.02-1.26c0-.08.04-.11.12-.11h.15c.06 0 .1.03.1.09v.55c0 .02 0 .03.02.03h.63c.02 0 .02 0 .02-.03v-.55c0-.06.04-.1.1-.1h.15c.08 0 .12.04.12.12l.01 1.26ZM24.26 31.23l-.04.31c0 .02 0 .03-.02.04a.07.07 0 0 1-.05.02h-.2c-.04 0-.06-.02-.07-.06l-.03-.35.01-1.3c0-.04.03-.06.07-.06.5 0 1.37-.17 1.27.65-.06.5-.49.46-.9.47a.07.07 0 0 0-.07.06c-.01.07 0 .14.03.22Zm-.03-1.04v.38a.05.05 0 0 0 .01.04.05.05 0 0 0 .04.01h.21a.5.5 0 0 0 .25-.07c.06-.04.1-.09.1-.15v-.06c0-.02 0-.05-.03-.08a.24.24 0 0 0-.07-.06.42.42 0 0 0-.12-.05.56.56 0 0 0-.13-.01h-.21a.05.05 0 0 0-.05.05ZM29.88 31.2l-.02.32c0 .06-.03.1-.1.1h-.15c-.06 0-.1-.04-.1-.1l-.01-.31v-1.02c0-.04-.02-.06-.06-.06l-.3.01c-.09 0-.14-.04-.15-.12v-.03c-.02-.1.02-.15.12-.15h1.15c.1 0 .15.05.13.15v.03c0 .03-.02.06-.05.09a.17.17 0 0 1-.1.03h-.3c-.05 0-.07.01-.07.06v1Z" fill="#D8261C"/></svg>