<!-- by TradingView --><svg width="56" height="56" viewBox="0 0 56 56" xmlns="http://www.w3.org/2000/svg"><path fill="#F0F3FA" d="M0 0h56v56H0z"/><path d="M29.58 32.52c1.74 0 3.24-.62 4.21-2.12a30.74 30.74 0 0 0 1.97-3.41c.3-.51.51-1.12.85-1.72.14-.24.25-.47.34-.69.5-1.22 1.13-2.29 1.77-3.68.4-.88.74-1.48 1-1.83a4.46 4.46 0 0 1 2.4-1.71 12.7 12.7 0 0 1 2.77-.3 49.19 49.19 0 0 0 3.08-.05.06.06 0 0 1 .02.1 21.4 21.4 0 0 0-2.13 3.6c-.78 1.65-1.55 3.37-2.3 5.14-.47 1.12-1.08 2.35-1.38 3.07-.52 1.24-1.22 2.2-2.31 2.7-1.72.8-3.63.96-5.67.93a4.87 4.87 0 0 0-4.7 2.43c-.24.38-.53.8-.74 1.23a83.2 83.2 0 0 1-1.44 2.84c-.57 1.01-1.84 1.8-3.06 2.26-.64.25-1.57.4-2.8.47a175.78 175.78 0 0 0-3.87.21.08.08 0 0 1-.04-.1c.19-.53.55-1.07.75-1.49.5-1.06.99-2 1.44-2.84.14-.25.34-.66.6-1.22a5.8 5.8 0 0 1 3.88-3.4c.38-.13.8-.2 1.29-.24a54.9 54.9 0 0 1 4.07-.18Z" fill="#FBD30F"/><path d="m34.47 21.95-.35.35c-.33.33-.7.52-1.19.83-.29.18-.57.32-.85.41-1.07.36-2.17.56-3.3.6-3.05.1-5.99.06-8.83-.12-1.7-.11-3.45-.05-5.27.18-.8.1-1.5.3-2.11.59-.22.1-.27.05-.16-.16.43-.81.84-1.55 1.24-2.2 1.38-2.34 3.1-4.05 5.95-4.31.9-.09 2-.13 3.3-.12 3.04.02 5.17.06 6.37.13.84.04 1.67.06 2.5.06 1.36 0 3.2-.17 4.97-.18.22 0 .28.09.16.28-.39.63-.64 1.06-.76 1.3-.3.61-.64.98-1.03 1.6-.15.25-.36.45-.64.76ZM8.01 32.75c.3-.83.68-1.35 1.4-2.57.65-1.12 1.5-2.08 2.52-2.89a6.56 6.56 0 0 1 3.19-1.11c.5-.04.96-.11 1.41-.13 1.91-.08 4.18-.05 6.82.09 1.12.06 3.01.07 5.67.04 1.04-.01 2.35-.2 3.48-.18a.1.1 0 0 1 .1.06.1.1 0 0 1-.01.1c-.26.37-.47.72-.63 1.04-.46.95-1.06 1.79-1.73 2.6-.56.67-1.05.93-1.78 1.42-.68.45-1.68.57-2.69.76-.55.1-1.09.16-1.6.18-3.07.09-6.15.03-9.25-.18a18.6 18.6 0 0 0-3.34.09c-1.45.16-2.38.25-3.48.81a.06.06 0 0 1-.06 0 .06.06 0 0 1-.03-.05l.01-.08Z" fill="#097ABF"/></svg>