<!-- by TradingView --><svg width="56" height="56" viewBox="0 0 56 56" xmlns="http://www.w3.org/2000/svg"><path fill="#F0F3FA" d="M0 0h56v56H0z"/><path d="M12.19 14h.62c.1 0 .19.08.19.19V41.8c0 .1-.09.19-.2.19h-.61a.19.19 0 0 1-.19-.2V14.2c0-.1.08-.19.19-.19Z" fill="url(#a)"/><path d="M14.12 14h.76c.07 0 .12.07.12.14v27.74c0 .06-.05.12-.12.12h-.76a.12.12 0 0 1-.12-.12V14.14c0-.07.05-.14.12-.14Z" fill="url(#b)"/><path d="M37.93 24h-4.55a.26.26 0 0 1-.17-.05.25.25 0 0 1-.09-.16c-.72-4.05-3.32-7.27-7.45-7.96a22.83 22.83 0 0 0-4.53-.12c-.05 0-.08.03-.1.08 0 .03 0 .07.03.1l.04.01 3.67.88a.29.29 0 0 1 .22.27v22.11c-1.47.33-2.8.67-3.86 1.03a.1.1 0 0 0-.07.06v.1l.1.08c.03.02.08.03.12.02l3.43-.22c4.68-.34 7.76-4.64 8.39-8.98 0-.06.04-.12.08-.16.05-.03.1-.09.17-.09h11.47c.02 0 .04.06.06.07a.15.15 0 0 1 .09.1v.07c-.76 4.82-3.48 9.14-8.39 10.44-.7.19-.76.06-.2-.38a14.3 14.3 0 0 0 4.96-8.11c.03-.16-.03-.2-.19-.19h-1.82c-.71 2-1.73 4.11-3.06 5.73-1.9 1.98-4.04 3.14-6.4 3.27H16V14.1l.03-.03.01-.02.02-.01.03-.04h13.92c4.62.8 7.64 3.05 9.1 7.89.02.08.07.11.15.11h2.03a.09.09 0 0 0 .05-.06v-.04a12.36 12.36 0 0 0-5.3-7.47c-.44-.31-.4-.41.14-.3 5.17 1.06 8 4.71 8.82 9.67a.17.17 0 0 1-.04.14.18.18 0 0 1-.13.06h-6.9Z" fill="url(#c)"/><defs><linearGradient id="a" x1="12" y1="28" x2="45" y2="28" gradientUnits="userSpaceOnUse"><stop stop-color="#CD1F1A"/><stop offset=".28" stop-color="#E14827"/></linearGradient><linearGradient id="b" x1="12" y1="28" x2="45" y2="28" gradientUnits="userSpaceOnUse"><stop stop-color="#CD1F1A"/><stop offset=".28" stop-color="#E14827"/></linearGradient><linearGradient id="c" x1="12" y1="28" x2="45" y2="28" gradientUnits="userSpaceOnUse"><stop stop-color="#CD1F1A"/><stop offset=".28" stop-color="#E14827"/><stop offset="1" stop-color="#D22C2A"/></linearGradient></defs></svg>