<!-- by TradingView --><svg width="56" height="56" viewBox="0 0 56 56" xmlns="http://www.w3.org/2000/svg"><path fill="#F0F3FA" d="M0 0h56v56H0z"/><path fill-rule="evenodd" d="M28 44.62a16.62 16.62 0 1 0 0-33.24 16.62 16.62 0 0 0 0 33.24Zm0 .38a17 17 0 1 0 0-34 17 17 0 0 0 0 34Z"/><path fill-rule="evenodd" d="M27.81 43.73a15.73 15.73 0 1 0 0-31.46 15.73 15.73 0 0 0 0 31.46Zm0 .38a16.11 16.11 0 1 0 0-32.22 16.11 16.11 0 0 0 0 32.22Z"/><path d="M27.24 16.33h-.06c-.13.9-.66 1.24-1.58 1.03a.28.28 0 0 1-.15-.1 3.7 3.7 0 0 1-.82-1.86c-.1-.74-.23-2.19.86-2.33.73-.09 1.17.22 1.33.93.03.13-.01.21-.13.26l-.24.1a.24.24 0 0 1-.31-.14L26 13.9c-.03-.07-.08-.1-.16-.1-.34.05-.55.23-.55.6 0 .71.14 1.42.41 2.12.03.07.07.1.14.1.33-.01.52-.14.57-.39.06-.3.22-.43.49-.4.06 0 .1-.02.1-.1.07-.79-.07-2.8 1.2-2.84.78-.02 1.2.4 1.23 1.28a.12.12 0 0 1-.09.12c-.1.04-.24.06-.4.06a.17.17 0 0 1-.15-.1 2.83 2.83 0 0 1-.1-.26c-.09-.26-.4-.37-.6-.2-.48.38-.34 1.98-.2 2.48a.3.3 0 0 0 .37.21.3.3 0 0 0 .13-.08l.44-.43c.04-.05.1-.07.15-.07h.28c.09 0 .13.04.13.13 0 1.59-2.12 1.7-2.12.31a.03.03 0 0 0-.01-.02h-.02ZM24.1 17.88c-.11.04-.2.05-.29.03a.19.19 0 0 1-.12-.11l-1.03-2.82a.22.22 0 0 0-.33-.11c-.32.2-.54.11-.68-.26-.08-.22-.01-.36.2-.44a1974.35 1974.35 0 0 1 1.58-.57c.22-.08.36-.01.44.2.13.38.02.59-.35.64a.22.22 0 0 0-.18.3l1.01 2.82a.18.18 0 0 1-.02.16.46.46 0 0 1-.24.16ZM33.38 16.8c.08-.36.26-.53.52-.5a.34.34 0 0 1 .2.58l-.66.67a.28.28 0 0 0-.09.17c-.02.23.02.5.12.8a.1.1 0 0 1-.12.12l-.47-.16a.12.12 0 0 1-.07-.05l-.15-.29c-.04-.06-.1-.09-.16-.07-.9.24-1.54-.38-1.38-1.24.1-.55.44-.93 1.02-1.15a.11.11 0 0 0 .07-.13c-.12-.6.11-1.51.84-1.57.45-.03 1.07.25 1.08.76.01.82-.24.9-.8 1.38-.28.23-.26.47-.06.71a.06.06 0 0 0 .1-.02Zm-.36-1.33.1-.01a.3.3 0 0 0 .1-.07.61.61 0 0 0 .08-.13.86.86 0 0 0 .1-.48c-.01-.1-.05-.16-.11-.18l-.1.01a.3.3 0 0 0-.1.07.6.6 0 0 0-.08.13.86.86 0 0 0-.1.48c.01.1.05.16.11.18Zm-1.13 1.88.42.09a.1.1 0 0 0 .11-.08v-.02a2.42 2.42 0 0 0 .04-.63.62.62 0 0 0-.06-.2c-.03-.05-.06-.08-.1-.09h-.03c-.04 0-.08 0-.13.04a.61.61 0 0 0-.12.17 2.42 2.42 0 0 0-.2.59l-.01.03a.1.1 0 0 0 .02.07.1.1 0 0 0 .06.03ZM20.89 17.1c.25.42.5.72.75.92a.34.34 0 0 0 .44-.01.34.34 0 0 0 .09-.13.8.8 0 0 0 .01-.49.18.18 0 0 1 .05-.17c.11-.12.24-.2.38-.26.07-.03.12 0 .16.06.48.8.2 1.77-.75 1.85-.8.07-1.37-.76-1.75-1.4-.39-.63-.84-1.53-.42-2.19.52-.8 1.5-.6 2 .2.04.06.03.12-.03.17-.11.1-.25.17-.4.22a.19.19 0 0 1-.18-.04.81.81 0 0 0-.44-.22.34.34 0 0 0-.36.24.34.34 0 0 0-.01.16c.06.32.2.68.46 1.1ZM35.43 21.24l.4-.44c.04-.05.04-.1 0-.14a1.1 1.1 0 0 0-.37-.25l-.8-.77a.09.09 0 0 1-.02-.1l.02-.02 2.77-2.77c.05-.05.1-.06.15-.03.15.07.3.18.43.33.5.53.94.94.58 1.72-.26.57-.7 1.11-1.3 1.63-.02.02-.02.04.02.06l.05.03h.04l1.82-1.92c.12-.12.22-.11.3.04l.14.25c.07.14.05.25-.06.36l-2.09 2-.02.04.03.02 2.72-1.13c.2-.08.35-.02.46.18l.03.07a.23.23 0 0 1-.11.31l-3.68 1.5a.15.15 0 0 1-.1 0 .15.15 0 0 1-.09-.07l-.28-.52a.13.13 0 0 1-.02-.08l.03-.06.43-.52a.05.05 0 0 0 0-.06.08.08 0 0 0-.04-.03l-.04.01c-.4.18-.86.3-1.4.36Zm1.95-3.5-1.66 1.66a.15.15 0 0 0 0 .21l.08.09c.16.15.4.21.66.16.27-.05.55-.2.77-.43l.18-.18c.23-.22.38-.5.43-.77.05-.27 0-.5-.16-.66l-.09-.09a.15.15 0 0 0-.2 0ZM19.3 21.45c-.08.1-.15.16-.21.17-.07 0-.15-.02-.23-.09-.68-.52-.97-.8-1.6-.98-.57-.15-1.22-.36-1.94-.61-.16-.06-.18-.15-.06-.28l.21-.2c.1-.1.22-.13.35-.09a23.2 23.2 0 0 1 1.56.6v-.04c-.33-.42-.65-.86-.96-1.33a.32.32 0 0 1-.01-.36l.15-.25c.09-.16.18-.16.28-.01.43.63.79 1.2 1.08 1.7.33.58.68.8 1.35 1.31.09.07.14.13.15.2 0 .07-.03.15-.11.26ZM15.45 21.35l2.66 1.36c.18.1.22.23.13.4l-.05.11c-.09.17-.22.21-.39.13l-2.58-1.33a.24.24 0 0 0-.32.11l-.18.34c-.05.1-.12.13-.23.1a1.37 1.37 0 0 1-.4-.22c-.1-.08-.13-.18-.07-.3l.88-1.71c.03-.06.07-.08.13-.04l.55.27a.17.17 0 0 1 .02.28c-.12.1-.2.2-.23.33-.01.08.01.13.08.17Z" fill="#131314"/><path d="M35.43 21.24a11.53 11.53 0 0 0-2.61 2.2.22.22 0 0 1-.25-.05c-.67-.66-1.6-1.51-2.61-1.36-.24-.13-.44-.15-.61-.06a2.65 2.65 0 0 0-.97.05c-.17.04-.32.11-.45.2-.41.32-.82.68-1.21 1.1-.51.53-.95.9-1.52 1.4-.14.13-.28.14-.42.01-.5-.43-1.12-.92-1.85-1.48-.32-.24-.87-.17-1.36-.35a2.46 2.46 0 0 0-.3-.1.09.09 0 0 1-.06-.1.09.09 0 0 1 .08-.07c.36-.04.78-.07 1.24-.1.6-.03 1.21.4 1.98.82a.66.66 0 0 0 .68-.03l1.94-1.24c.26-.16.75-.43 1.16-.41.4.01.83 0 1.3-.07.05 0 .11-.03.16-.06.22-.16.53-.26.93-.32.1-.04.23-.07.43-.1.49.28 1.01.45 1.5.79a.1.1 0 0 0 .13-.03c.56-.95 1.98-.86 2.72-1.47.15.06.27.14.37.25.04.04.04.1 0 .14l-.4.44Z" fill="#4141F7"/><path d="M30.68 21.22c-.4.06-.71.16-.93.32a.37.37 0 0 1-.17.06c-.46.06-.89.08-1.3.07-.4-.02-.89.25-1.15.41-.65.4-1.3.82-1.94 1.24a.65.65 0 0 1-.68.03c-.77-.42-1.38-.85-1.98-.82a31.82 31.82 0 0 0-1.3.12.09.09 0 0 0 .05.15l.29.1c.5.18 1.04.1 1.36.35.73.56 1.35 1.05 1.85 1.48.14.13.28.12.42 0 .57-.52 1-.88 1.52-1.42.4-.41.8-.77 1.21-1.09.13-.09.28-.16.45-.2.34-.08.66-.1.97-.05-.27.15-.55.26-.84.33-.32.08-.54.17-.67.29-.35.3-.66.58-.92.85-.22.22-.19.27.1.14.11-.05.22-.08.32-.09 2.6-.25 4.96 2 4.87 4.62l-.01.5c0 .06.03.1.08.11l3.52 1.16a.66.66 0 0 0 .52-.05l3.77-2.03a.3.3 0 0 1 .3 0l2.36 1.37a.26.26 0 0 1 .13.28c-.13.62-.13 1.19-.27 1.75-1.41 5.7-5.75 10.3-11.55 11.52-1.1.24-2.6.44-3.79.38a15.32 15.32 0 0 1-14.5-13.12c-.02-.16 0-.38.06-.67.01-.07.05-.09.11-.07 1.36.43 2.7.84 4.02 1.22.35.1.63.1.85.04l5.39-1.87c.12-.04.17-.12.17-.25a4.77 4.77 0 0 1 1.14-3.37c.04-.04.04-.09 0-.13-.39-.37-.8-.7-1.24-1-.19-.12-.32-.37-.58-.44-.77-.18-1.61-.32-2.52-.4a1.42 1.42 0 0 1-.62-.19c-.25-.16-.23-.24.07-.26.51-.03 1.34-.13 2.48-.31.55-.1.89-.04 1.42.24l1.1.56a.4.4 0 0 0 .42-.01 58.4 58.4 0 0 0 1.83-1.2c.65-.45 1.12-.44 1.89-.5.68-.04 1.14-.33 1.92-.15Zm-5.7 3.94c-.2-.03-.38.07-.54.32-.58.92-.85 1.9-.8 2.96a.27.27 0 0 0 .16.23l1.37.7c.5.3 1.03.57 1.6.83.25.11.47.09.66-.07 1-.88 2.02-1.57 3.06-2.08l1.19.5a.15.15 0 0 0 .2-.12 4.02 4.02 0 0 0-1.97-4.04 3.93 3.93 0 0 0-2.89-.53c-.32.07-.64.22-.97.48l-1.08.82ZM27 30.62l-3.29-1.68a.65.65 0 0 0-.51-.04 607 607 0 0 1-5.08 1.79c-.44.15-.76.18-1.17.06l-3.64-1.1c-.17-.06-.25 0-.23.18v.05c.01.17.1.28.27.33 1.28.36 2.39.69 3.32.98.55.17 1.16.13 1.83-.12.48-.18 2.03-.72 4.64-1.62.37-.13.65-.01.98.16a80 80 0 0 0 2.77 1.44.36.36 0 0 0 .38-.03l2.74-2a.52.52 0 0 1 .47-.08c2.37.81 4.06 1.37 5.08 1.68.35.11.73.06 1.13-.16.9-.48 2.02-1.1 3.36-1.86a.4.4 0 0 1 .4.01l1.84 1.12c.04.02.12 0 .25-.05l.02-.04c-.02-.17-.04-.27-.07-.28a36.3 36.3 0 0 0-2.23-1.34c-.03 0-.06 0-.09.02l-3.54 1.92c-.36.2-.6.3-1.02.17-1.65-.55-3.27-1.07-4.86-1.56-.37-.11-.64-.1-.81.03l-2.7 2a.23.23 0 0 1-.24.02Zm.35 1.61a.43.43 0 0 1-.46.04 86.19 86.19 0 0 0-3.04-1.55 1.3 1.3 0 0 0-.95 0l-4.7 1.66c-.48.17-.86.2-1.14.11a68.1 68.1 0 0 0-3.5-1.05c-.14-.04-.2.02-.17.16 0 .03.02.08.05.13.07.13.18.23.33.27l2.81.86c.62.18 1.02.21 1.6.02 1.84-.62 3.4-1.17 4.72-1.65.37-.14.65-.16.84-.06l3.22 1.63a.27.27 0 0 0 .3-.04c.16-.15.49-.4.99-.74a21.4 21.4 0 0 0 1.51-1.13c.29-.24.57-.3.85-.2 1.9.66 3.55 1.2 4.93 1.64.55.17.9-.02 1.4-.3.99-.56 2.03-1.13 3.12-1.71a.41.41 0 0 1 .4 0l1.63.94a.16.16 0 0 0 .17-.01.16.16 0 0 0 .04-.05l.04-.06c.02-.04.03-.1.02-.14a.15.15 0 0 0-.07-.1l-1.95-1.13a.24.24 0 0 0-.24 0c-1.37.78-2.6 1.45-3.69 2.02-.26.13-.57.14-.95.01-1.82-.6-3.5-1.16-5.04-1.65a.28.28 0 0 0-.18.01c-.22.09-.45.23-.7.42-.71.55-1.44 1.1-2.2 1.65Zm-.49 1.72c-.59-.37-1.18-.5-1.75-.88-.83-.58-1.46-.96-2.38-.63l-4.69 1.68c-.39.14-.71.16-.98.07a23.37 23.37 0 0 0-2.97-.8.1.1 0 0 0-.08.08l.01.06a.92.92 0 0 0 .54.42c.9.27 1.77.5 2.59.73.27.08.53.06.8-.04l4.87-1.7c.34-.11.66-.25 1-.08 1.04.55 2.1 1.09 3.16 1.62a.22.22 0 0 0 .24-.02c.92-.67 1.76-1.28 2.51-1.85.3-.22.6-.29.92-.19 1.57.49 3.27 1.03 5.08 1.64.21.07.41.06.6-.05l3.69-1.98a.48.48 0 0 1 .46 0l1.19.69c.1.06.15.03.15-.08v-.14a.34.34 0 0 0-.17-.29l-1.2-.7a.41.41 0 0 0-.4 0l-3.63 1.95a.9.9 0 0 1-.7.07c-.89-.28-2.53-.8-4.92-1.6-.36-.12-.6-.14-.75-.05-.3.17-.91.63-1.86 1.38-.31.25-.63.44-.99.68a.31.31 0 0 1-.34.01Zm.03 1.67c-1.14-.59-2.1-1.08-2.87-1.46-.41-.2-.7-.22-1.11-.07-1.96.7-3.61 1.28-4.96 1.74-.3.1-.6.11-.88.03a68.09 68.09 0 0 0-2.05-.56.09.09 0 0 0-.05.12 13.74 13.74 0 0 0 5.53 5.46 15.02 15.02 0 0 0 9.87 1.7 15.36 15.36 0 0 0 5.7-2.3c2.3-1.5 4.05-3.6 5.24-6.27a.28.28 0 0 0-.12-.36l-.86-.44a.3.3 0 0 0-.3 0l-3.84 2.07a.4.4 0 0 1-.32.03l-5.5-1.8a.31.31 0 0 0-.28.04l-2.8 2.04a.4.4 0 0 1-.4.03ZM40.8 21.12a.26.26 0 0 1 .35.14l.35.8c.14.34.1.74-.13 1.12-.22.38-.61.7-1.08.9l-.36.17c-.47.2-.97.26-1.4.16-.44-.1-.76-.34-.9-.67l-.35-.8a.26.26 0 0 1 .13-.35l3.4-1.47Zm-.42.95-1.98.88a.23.23 0 0 0-.14.22c0 .03 0 .06.02.09l.04.1c.08.17.27.28.53.31.26.04.57-.02.86-.15l.21-.1c.3-.12.54-.32.7-.53.14-.22.19-.44.1-.61l-.03-.1a.23.23 0 0 0-.31-.11Z" fill="#131314"/><path d="m29.91 24.39.57 1.78c.21.64.22 1.26 0 1.88a14.3 14.3 0 0 0-3.05 2.08c-.18.16-.4.18-.66.07-.57-.26-1.1-.54-1.6-.83a5.84 5.84 0 0 1-.43-2.45c.02-.39.1-.97.23-1.76l1.08-.82c.33-.26.66-.41.97-.48a3.93 3.93 0 0 1 2.9.53Zm-3 4.03c.03.05.07.08.14.08.67 0 1.53-.1 1.93-.64.43-.58.3-1.52-.27-1.99-.56-.47-1.4-.3-1.83.24-.5.63-.4 1.57.03 2.3Z" fill="#5F5FF6"/><path d="m38.43 26.53-.33-1.5a.16.16 0 0 1 .12-.2l3.8-.84a.16.16 0 0 1 .2.12l.08.38a.16.16 0 0 1-.12.19l-3 .66a.16.16 0 0 0-.13.2l.19.8a.16.16 0 0 1-.12.2l-.5.1a.16.16 0 0 1-.19-.11ZM17.38 24.42l-.3-.11a.3.3 0 0 0-.4.19l-.03.1a.3.3 0 0 0 .19.39l.3.1a.3.3 0 0 0 .4-.18l.03-.1a.3.3 0 0 0-.19-.4Z" fill="#131314"/><path d="M29.91 24.39a4.02 4.02 0 0 1 1.95 4.1.15.15 0 0 1-.18.06l-1.2-.5c.22-.62.21-1.24 0-1.88l-.57-1.78ZM24.97 25.16c-.13.79-.2 1.37-.23 1.76-.05.76.1 1.58.43 2.45l-1.37-.7a.27.27 0 0 1-.15-.23c-.06-1.06.2-2.04.8-2.96.15-.25.32-.35.52-.32Z" fill="#AFB1FA"/><path d="M16.29 27.13a.17.17 0 0 0 .14-.13v-.06c-.03-.28-.2-.5-.49-.67a.18.18 0 0 1-.1-.15.73.73 0 0 1 .13-.46c.04-.06.1-.09.16-.07.9.17 1.47 1 .9 1.8-.77 1.06-5.11.61-4.05-1.38.2-.4.62-.58 1.24-.58.08 0 .12.04.12.11.04.35-.07.58-.32.67-.22.08-.34.18-.36.3-.16.84 2.15.68 2.63.62Z" fill="#131314"/><path d="M26.9 28.42c-.43-.74-.53-1.68-.02-2.31.43-.54 1.27-.71 1.83-.24.57.47.7 1.4.26 2-.4.53-1.25.63-1.92.63a.16.16 0 0 1-.14-.08Z" fill="#1515F5"/><path d="M25.75 38.96c.35 0 .72.03 1.05 0 .06-.01.1-.05.1-.11v-1.66a.18.18 0 0 1 .1-.16l.07-.01h.09a.18.18 0 0 1 .17.17v4.2c0 .03 0 .06-.02.08a.18.18 0 0 1-.07.07c-.05.03-.09.04-.12.04-.15-.02-.22-.1-.22-.23v-1.84c0-.03 0-.05-.02-.07a.1.1 0 0 0-.07-.04 9.28 9.28 0 0 0-2.12 0 .1.1 0 0 0-.07.03.11.11 0 0 0-.03.08v1.84c0 .13-.07.2-.22.22-.03 0-.07 0-.12-.03a.18.18 0 0 1-.1-.16l.01-4.2a.18.18 0 0 1 .18-.17h.09a.18.18 0 0 1 .17.18v1.66c0 .06.03.1.1.1.33.04.7 0 1.05.01ZM28.7 39.78v1.58c0 .13-.06.2-.2.2h-.07c-.1 0-.15-.06-.15-.16v-4.2c0-.03.01-.06.04-.1a.15.15 0 0 1 .1-.04c.98-.12 2.44-.17 2.79 1.02.14.5-.13 1.06-.56 1.35-.42.3-1.3.27-1.82.24a.11.11 0 0 0-.11.07l-.01.04Zm.01-2.18v1.57a.14.14 0 0 0 .05.1.14.14 0 0 0 .1.04h.97a1 1 0 0 0 .68-.27c.18-.17.28-.4.28-.63v-.07a.84.84 0 0 0-.08-.34.9.9 0 0 0-.2-.3 1.03 1.03 0 0 0-.68-.26l-.98.01a.14.14 0 0 0-.14.15Z" fill="#131314"/></svg>