<!-- by TradingView --><svg width="56" height="56" fill="none" xmlns="http://www.w3.org/2000/svg"><path fill="#015198" d="M0 0h56v56H0z"/><path fill-rule="evenodd" clip-rule="evenodd" d="M28 15c12.152 0 21.93 6.041 21.93 13.5S40.149 42 28 42C15.848 42 6 35.959 6 28.5S15.852 15 28 15Z" fill="url(#a)"/><path fill-rule="evenodd" clip-rule="evenodd" d="M25.052 38.396C18.044 37.132 12.9 32.974 12.9 28.037c0-4.938 5.144-9.095 12.152-10.359v20.718Zm-8.848-16.044c.986.433 4.431 1.79 8.186 1.57l.01 3.758H13.59c.103-1.973 1.051-3.805 2.61-5.328h.004Zm8.186.855c-.746.062-3.604.146-7.599-1.39 1.91-1.626 4.549-2.838 7.585-3.406l.014 4.792v.005Zm.015 5.187h-10.81c.108 1.968 1.07 3.763 2.642 5.243 1.019-.442 4.45-1.78 8.186-1.56l-.009-3.688-.005.005h-.004Zm.014 4.402c-.704-.056-3.563-.164-7.59 1.372 1.924 1.578 4.576 2.748 7.6 3.316l-.015-4.688h.005Z" fill="url(#b)"/><path clip-rule="evenodd" d="M25.052 38.396C18.044 37.132 12.9 32.974 12.9 28.037c0-4.938 5.144-9.095 12.152-10.359v20.718Zm-8.848-16.044c.986.433 4.431 1.79 8.186 1.57l.01 3.758H13.59c.103-1.973 1.051-3.805 2.61-5.328h.004Zm8.186.855c-.746.062-3.604.146-7.599-1.39 1.91-1.626 4.549-2.838 7.585-3.406l.014 4.792v.005Zm.015 5.187h-10.81c.108 1.968 1.07 3.763 2.642 5.243 1.019-.442 4.45-1.78 8.186-1.56l-.009-3.688-.005.005h-.004Zm.014 4.402c-.704-.056-3.563-.164-7.59 1.372 1.924 1.578 4.576 2.748 7.6 3.316l-.015-4.688h.005Z" stroke="#FEFEFE" stroke-width=".035"/><path fill-rule="evenodd" clip-rule="evenodd" d="M32.886 19.384h-2.464v3.425h2.464v-3.425Z" fill="url(#c)"/><path clip-rule="evenodd" d="M30.422 19.384h2.464v3.425h-2.464v-3.425Z" stroke="#FEFEFE" stroke-width=".035"/><path fill-rule="evenodd" clip-rule="evenodd" d="M27.122 26.84h2.46v-3.425h-2.46v3.424Z" fill="url(#d)"/><path clip-rule="evenodd" d="M27.122 23.415h2.46v3.424h-2.46v-3.424Z" stroke="#FEFEFE" stroke-width=".035"/><path fill-rule="evenodd" clip-rule="evenodd" d="M30.422 26.84h2.464v-3.425h-2.464v3.424Z" fill="url(#e)"/><path clip-rule="evenodd" d="M30.422 23.415h2.464v3.424h-2.464v-3.424Z" stroke="#FEFEFE" stroke-width=".035"/><path fill-rule="evenodd" clip-rule="evenodd" d="M33.727 26.84h2.465v-3.425h-2.465v3.424Z" fill="url(#f)"/><path clip-rule="evenodd" d="M33.727 23.415h2.465v3.424h-2.465v-3.424Z" stroke="#FEFEFE" stroke-width=".035"/><path fill-rule="evenodd" clip-rule="evenodd" d="M37.03 26.84h2.465v-3.425h-2.464v3.424Z" fill="url(#g)"/><path clip-rule="evenodd" d="M37.03 23.415h2.465v3.424h-2.464v-3.424Z" stroke="#FEFEFE" stroke-width=".035"/><path fill-rule="evenodd" clip-rule="evenodd" d="M39.51 31.336H26.133v.803c1.469-.512 5.839-.08 5.839-.08 5.224.362 7.538-.723 7.538-.723Z" fill="url(#h)"/><path clip-rule="evenodd" d="M26.133 31.336H39.51s-2.314 1.085-7.538.723c0 0-4.37-.432-5.84.08v-.803Z" stroke="#FEFEFE" stroke-width=".035"/><path fill-rule="evenodd" clip-rule="evenodd" d="M26.133 32.618c.474-.164 2.075-.535 6.172-.173 5.102.45 8.106-1.175 8.106-1.175h1.202s-1.44 1.86-5.58 2.194c0 0-4.577-.033-5.854-.178-1.197-.141-3.45.018-4.041.202v-.87h-.005Z" fill="url(#i)"/><path clip-rule="evenodd" d="M26.133 32.618c.474-.164 2.075-.535 6.172-.173 5.102.45 8.106-1.175 8.106-1.175h1.202s-1.44 1.86-5.58 2.194c0 0-4.577-.033-5.854-.178-1.197-.141-3.45.018-4.041.202v-.87h-.005Z" stroke="#FEFEFE" stroke-width=".035"/><path fill-rule="evenodd" clip-rule="evenodd" d="M26.133 33.98v1.161c.45-.314 1.887-1.066 5.116-.803 4.055.334 7.388.178 9.008-.512 0 0 .929-.244 1.924-2.556 0 0-1.77 2.434-6.844 2.523-4.966.09-6.308-.63-9.204.183v.005Z" fill="url(#j)"/><path clip-rule="evenodd" d="M26.133 35.136c.45-.315 1.887-1.066 5.116-.803 4.055.333 7.388.178 9.008-.512 0 0 .929-.244 1.924-2.556 0 0-1.77 2.434-6.844 2.523-4.966.09-6.308-.63-9.204.183V35.136Z" stroke="#FEFEFE" stroke-width=".035"/><path fill-rule="evenodd" clip-rule="evenodd" d="M26.132 36.376c.54-.352 2.342-1.137 7.22-.568 0 0 3.51.333 4.684-.062 0 0 1.14-.723 1.741-1.32 0 0-2.764.752-7.477.334-4.351-.385-5.684.352-6.172.822v.799h.004v-.005Z" fill="url(#k)"/><path clip-rule="evenodd" d="M26.132 36.376c.54-.352 2.342-1.137 7.22-.568 0 0 3.51.333 4.684-.062 0 0 1.14-.723 1.741-1.32 0 0-2.764.752-7.477.334-4.351-.385-5.684.352-6.172.822v.799h.004v-.005Z" stroke="#FEFEFE" stroke-width=".035"/><path fill-rule="evenodd" clip-rule="evenodd" d="M26.133 36.907v.888c.47-.376 1.704-1.114 4.098-.93 3.182.244 4.923.3 4.923.3l1.925-.869s-2.67.179-5.013-.15c-2.234-.315-4.718-.141-5.929.766l-.004-.005Z" fill="url(#l)"/><path clip-rule="evenodd" d="M26.133 37.795c.47-.376 1.704-1.114 4.098-.93 3.182.244 4.923.3 4.923.3l1.925-.869s-2.67.179-5.013-.15c-2.234-.315-4.718-.141-5.929.766v.888l-.004-.005Z" stroke="#FEFEFE" stroke-width=".035"/><path d="M26.278 30.602v-3.091h.882c.329 0 .559.061.685.178.127.118.193.315.193.583v1.57c0 .272-.07.469-.211.586-.141.118-.38.179-.723.179h-.831l.005-.005Zm.746-2.673v2.236c.084 0 .15-.014.192-.037.043-.024.066-.07.066-.141v-1.88c0-.08-.019-.126-.056-.15-.038-.023-.103-.033-.197-.033l-.005.005Zm2.272 1.39h.37l-.121-.934a.917.917 0 0 0-.015-.16 3.516 3.516 0 0 1-.042-.268h-.028c0 .066 0 .113-.005.155-.004.038-.014.127-.032.263l-.113.945h-.015Zm-.915 1.288.647-3.091h.897l.648 3.09h-.737l-.104-.826h-.502l-.113.827h-.737Zm2.483 0v-3.091H31.9l.268 1.31c.028.141.051.287.075.447.018.164.028.305.028.441h.037c0-.103-.005-.258-.019-.465a7.024 7.024 0 0 1-.018-.456v-1.282h.582v3.091h-.883l-.39-1.677c-.023-.094-.042-.202-.065-.329-.019-.122-.038-.263-.061-.409h-.019c0 .066.005.16.014.292.01.127.014.22.014.286v1.837h-.605l-.005.005h.01Zm3.205-1.287h.371l-.122-.935a.917.917 0 0 0-.014-.16 3.544 3.544 0 0 1-.042-.268h-.028c0 .066 0 .113-.005.155-.005.038-.014.127-.033.263l-.112.945h-.015Zm-.915 1.287.648-3.091h.896l.648 3.09h-.737l-.103-.826h-.502l-.113.827h-.737Zm2.483 0v-3.091h1.038l.267 1.31c.028.141.052.287.075.447.019.164.028.305.028.441h.038c0-.103-.005-.258-.019-.465a6.969 6.969 0 0 1-.019-.456v-1.282h.582v3.091h-.882l-.39-1.677c-.023-.094-.042-.202-.065-.329-.02-.122-.038-.263-.061-.409h-.02c0 .066.005.16.015.292.01.127.014.22.014.286v1.837h-.605l-.005.005h.01Zm2.328-2.368c0-.272.061-.47.179-.587.14-.141.37-.202.704-.202.29 0 .516.056.662.164.15.108.22.282.22.517v.46h-.75v-.544c0-.1-.043-.15-.132-.15a.147.147 0 0 0-.09.037.149.149 0 0 0-.042.108v2.01c0 .052.01.09.033.118a.116.116 0 0 0 .09.042.12.12 0 0 0 .093-.052.168.168 0 0 0 .052-.117v-.545h-.193v-.47h.944v1.565h-.38l-.038-.193a.95.95 0 0 1-.29.193.797.797 0 0 1-.348.075c-.07 0-.146-.01-.216-.024a.59.59 0 0 1-.404-.31 1.027 1.027 0 0 1-.089-.465v-1.635l.005.005h-.01Zm3.31 2.368v-3.091h.882c.272 0 .474.037.62.112a.472.472 0 0 1 .258.447v.657c0 .254-.085.433-.258.536-.15.09-.376.131-.686.131h-.051v1.208h-.765Zm1.004-1.814v-.714c0-.075-.019-.117-.056-.145-.038-.024-.099-.033-.188-.033v1.066c.094 0 .16-.01.183-.023.037-.024.061-.075.061-.15Zm1.877-.751v2.01c0 .052.014.09.038.118a.133.133 0 0 0 .094.042c.033 0 .07-.014.103-.052a.168.168 0 0 0 .052-.117v-2.01c0-.052-.014-.09-.038-.113a.154.154 0 0 0-.103-.038c-.094 0-.145.052-.145.15v.01Zm-.802.202c0-.273.066-.465.192-.587.146-.141.395-.203.751-.203.362 0 .61.071.756.203.127.117.188.314.188.587v1.635c0 .272-.066.47-.188.587-.145.14-.394.202-.756.202-.352 0-.605-.07-.75-.202-.127-.122-.193-.32-.193-.587v-1.635Zm2.328 2.367v-3.09h.882c.273 0 .474.037.62.112a.472.472 0 0 1 .258.446v.226c0 .192-.028.338-.094.423-.089.122-.253.188-.492.188v.014c.215.014.365.065.455.14.089.076.127.203.127.381v.644c0 .117.004.211.014.282.009.07.028.15.06.235h-.746a1.08 1.08 0 0 1-.056-.235 2.532 2.532 0 0 1-.014-.263v-.677c0-.08-.019-.146-.061-.188-.038-.051-.103-.07-.188-.07v1.437h-.76l-.005-.005Zm1.004-2.029v-.493c0-.07-.018-.118-.056-.141-.037-.024-.098-.033-.188-.033v.846a.355.355 0 0 0 .183-.038c.038-.023.061-.07.061-.141Zm1.68 2.03v-2.65h-.483v-.446h1.728v.446h-.493v2.65h-.751Z" fill="#ED3237" stroke="#FEFEFE" stroke-width=".035"/><path fill-rule="evenodd" clip-rule="evenodd" d="M27.893 16.57c7.453 0 13.748 3.737 15.79 8.43h5.861c.442 1.066.456 1.85.456 2.996 0 1.18.087 1.914-.378 3.004h-6.01c-2.112 4.613-8.35 8.368-15.724 8.368-9.11 0-16.49-5.102-16.49-11.397s7.384-11.397 16.49-11.397h.005v-.005Z" fill="#015198"/><path fill-rule="evenodd" clip-rule="evenodd" d="M25 38.396c-7.008-1.264-12.1-5.422-12.1-10.359 0-4.938 5.092-9.095 12.1-10.359v20.718Zm-8.796-16.044c.986.433 4.431 1.79 8.186 1.57l.01 3.578H13.59c.103-1.973 1.051-3.625 2.61-5.148h.004Zm8.186.855c-.746.062-3.604.146-7.599-1.39 1.91-1.626 4.549-2.838 7.585-3.406l.014 4.792v.005Zm.015 5.187h-10.81c.108 1.968 1.07 3.763 2.642 5.243 1.019-.442 4.45-1.78 8.186-1.56l-.009-3.688-.005.005h-.004Zm.014 4.402c-.704-.056-3.563-.164-7.59 1.372 1.924 1.578 4.576 2.748 7.6 3.316l-.015-4.688h.005Z" fill="url(#m)"/><path fill-rule="evenodd" clip-rule="evenodd" d="M33 19h-2v3h2v-3Z" fill="url(#n)"/><path fill-rule="evenodd" clip-rule="evenodd" d="M28 26h2v-3h-2v3Z" fill="url(#o)"/><path fill-rule="evenodd" clip-rule="evenodd" d="M31 26h2v-3h-2v3Z" fill="url(#p)"/><path fill-rule="evenodd" clip-rule="evenodd" d="M34 26h2v-3h-2v3Z" fill="url(#q)"/><path fill-rule="evenodd" clip-rule="evenodd" d="M37 26h2v-3h-2v3Z" fill="url(#r)"/><path fill-rule="evenodd" clip-rule="evenodd" d="M39.333 31H26v.842c1.464-.499 5.82-.078 5.82-.078 5.207.352 7.513-.764 7.513-.764Zm-13.286 6.907s.51-1.784 7.902-.819c0 0-3.682 1.258-7.902.819ZM26 36.494l.005.86c.468-.366 1.698-1.085 4.084-.906 3.172.238 4.907.293 4.907.293l1.919-.847s-2.662.174-4.997-.146c-2.227-.306-4.711-.137-5.918.745Zm.005-.522c.538-.343 2.334-1.107 7.195-.553 0 0 3.5.324 4.669-.06 0 0 1.137-.704 1.736-1.285 0 0-2.756.732-7.453.325-4.337-.376-5.665.343-6.152.8v.778l.005-.005Zm0-2.333v1.13c.449-.306 1.88-1.038 5.1-.782 4.041.325 7.363.174 8.977-.499 0 0 .926-.237 1.918-2.488 0 0-1.764 2.37-6.821 2.456-4.95.087-6.288-.613-9.174.179v.004Zm0-1.326c.472-.16 2.068-.522 6.152-.17 5.085.44 8.08-1.143 8.08-1.143h1.197s-1.436 1.811-5.563 2.136c0 0-4.561-.032-5.834-.174-1.193-.137-3.447.019-4.037.197l.005-.846Z" fill="url(#s)"/><path d="M26.005 29.939V27h.87c.323 0 .55.114.675.223.125.11.19.294.19.543v1.463c0 .254-.07.438-.209.548-.139.11-.374.223-.712.223H26l.005-.061Zm.735-2.492v2.084a.423.423 0 0 0 .19-.035c.041-.022.07-.065.07-.131v-1.752c0-.074-.024-.118-.06-.14a.416.416 0 0 0-.195-.03l-.005.004Zm2.24 1.296h.364l-.12-.871a.816.816 0 0 0-.014-.15 3.117 3.117 0 0 1-.041-.249h-.028c0 .061 0 .105-.005.145-.004.035-.014.118-.032.245l-.111.88H28.979ZM28.076 30l.638-3h.884l.638 3h-.726l-.102-.828h-.495l-.11.828h-.727Zm2.527-3h1.022l.264 1.283c.027.132.05.267.074.416.018.153.027.285.027.412h.037c0-.096-.004-.24-.018-.434-.014-.192-.01-.332-.01-.424V27h.565v3h-.87l-.384-1.625c-.023-.087-.041-.188-.064-.306-.019-.114-.037-.246-.06-.381h-.019c0 .06.005.149.014.271.01.118.014.206.014.267V30h-.597l.005-3Zm3.08 1.743h.365l-.12-.871a.808.808 0 0 0-.014-.15 3.142 3.142 0 0 1-.042-.249h-.027c0 .061 0 .105-.005.145-.005.035-.014.118-.032.245l-.111.88h-.015ZM32.782 30l.638-3h.883l.639 3h-.726l-.102-.828h-.495l-.111.828h-.726Zm2.447-3h1.022l.264 1.283c.027.132.05.267.074.416.018.153.028.285.028.412h.037c0-.096-.005-.24-.019-.434a6.142 6.142 0 0 1-.018-.424V27h.573v3h-.87l-.383-1.625c-.024-.087-.042-.188-.065-.306-.019-.114-.037-.246-.06-.381h-.019c0 .06.005.149.014.271.01.118.014.206.014.267V30h-.602l.01-3Zm2.294.736c0-.254.06-.438.176-.548.139-.131.365-.188.694-.188.287 0 .509.052.652.153.148.101.218.263.218.482V28h-.74v-.444c0-.092-.042-.14-.13-.14a.15.15 0 0 0-.088.035.135.135 0 0 0-.042.1v1.875c0 .048.01.084.033.11.023.026.055.04.088.04a.121.121 0 0 0 .092-.049c.032-.03.051-.07.051-.11v-.508h-.19v-.438h.93V30h-.375l-.037-.25a.945.945 0 0 1-.286.18.823.823 0 0 1-.343.07c-.07 0-.143-.009-.212-.022-.19-.048-.324-.144-.398-.289a.912.912 0 0 1-.088-.433V27.73l.004.005h-.009ZM40.992 30 41 27h.862c.346 0 .865.165.865.582v.614c0 .236-.084.402-.255.499-.148.083-.37.122-.675.122h-.051V30h-.754ZM42 28.253v-.666c0-.07-.037-.11-.074-.136a.384.384 0 0 0-.185-.03v.994a.48.48 0 0 0 .18-.022.163.163 0 0 0 .079-.14Zm1.789-.701v1.874c0 .048.014.084.037.11.028.026.06.04.092.04.033 0 .07-.014.102-.049.032-.03.051-.07.051-.11v-1.874c0-.048-.014-.083-.037-.105a.158.158 0 0 0-.102-.035c-.092 0-.143.048-.143.14v.009Zm-.791.188c0-.254.065-.433.19-.547.143-.132.388-.189.74-.189.356 0 .601.066.744.189.125.11.185.293.185.547v1.524c0 .254-.064.438-.185.548-.143.131-.388.188-.744.188-.347 0-.597-.066-.74-.188-.126-.114-.19-.298-.19-.548V27.74Zm2.278 2.207V27h.87c.59 0 .864.242.864.587v.21c0 .18-.027.315-.092.394-.088.114-.25.175-.486.175v.014c.213.013.361.06.449.13.088.071.125.19.125.356v.6c0 .11.005.197.014.262.009.066.027.193.06.272h-.736c-.027-.066-.041-.188-.055-.271a2.23 2.23 0 0 1-.014-.246v-.63c0-.075-.018-.136-.06-.176-.037-.048-.132-.065-.215-.065V30h-.72l-.004-.053Zm.99-1.892v-.46c0-.065-.019-.109-.056-.13a.51.51 0 0 0-.21-.031v.788a.489.489 0 0 0 .206-.035c.037-.022.06-.066.06-.132ZM47.774 30v-2.523h-.476V27H49v.477h-.486V30h-.74Z" fill="#ED3237"/><path fill-rule="evenodd" clip-rule="evenodd" d="M26.174 37.904s.512-1.832 7.928-.84c0 0-3.694 1.291-7.928.84Z" fill="url(#t)"/><defs><linearGradient id="a" x1="11.091" y1="44.471" x2="27.142" y2="7.323" gradientUnits="userSpaceOnUse"><stop stop-color="#F58634"/><stop offset=".341" stop-color="#F9EA80"/><stop offset=".631" stop-color="#F58634"/><stop offset=".988" stop-color="#FFF212"/><stop offset="1" stop-color="#FAF289"/></linearGradient><linearGradient id="b" x1="12.9" y1="35.716" x2="29.65" y2="29.057" gradientUnits="userSpaceOnUse"><stop stop-color="#F2AE3A"/><stop offset=".478" stop-color="#F9EA80"/><stop offset=".988" stop-color="#F2B13D"/><stop offset="1" stop-color="#FAF289"/></linearGradient><linearGradient id="c" x1="30.422" y1="22.154" x2="33.433" y2="20.91" gradientUnits="userSpaceOnUse"><stop stop-color="#F2AE3A"/><stop offset=".478" stop-color="#F9EA80"/><stop offset=".988" stop-color="#F2B13D"/><stop offset="1" stop-color="#FAF289"/></linearGradient><linearGradient id="d" x1="27.122" y1="26.185" x2="30.129" y2="24.945" gradientUnits="userSpaceOnUse"><stop stop-color="#F2AE3A"/><stop offset=".478" stop-color="#F9EA80"/><stop offset=".988" stop-color="#F2B13D"/><stop offset="1" stop-color="#FAF289"/></linearGradient><linearGradient id="e" x1="30.422" y1="26.185" x2="33.433" y2="24.941" gradientUnits="userSpaceOnUse"><stop stop-color="#F2AE3A"/><stop offset=".478" stop-color="#F9EA80"/><stop offset=".988" stop-color="#F2B13D"/><stop offset="1" stop-color="#FAF289"/></linearGradient><linearGradient id="f" x1="33.727" y1="26.185" x2="36.739" y2="24.941" gradientUnits="userSpaceOnUse"><stop stop-color="#F2AE3A"/><stop offset=".478" stop-color="#F9EA80"/><stop offset=".988" stop-color="#F2B13D"/><stop offset="1" stop-color="#FAF289"/></linearGradient><linearGradient id="g" x1="37.031" y1="26.185" x2="40.042" y2="24.941" gradientUnits="userSpaceOnUse"><stop stop-color="#F2AE3A"/><stop offset=".478" stop-color="#F9EA80"/><stop offset=".988" stop-color="#F2B13D"/><stop offset="1" stop-color="#FAF289"/></linearGradient><linearGradient id="h" x1="30.293" y1="34.409" x2="35.352" y2="29.348" gradientUnits="userSpaceOnUse"><stop stop-color="#F2AE3A"/><stop offset=".478" stop-color="#F9EA80"/><stop offset=".988" stop-color="#F2B13D"/><stop offset="1" stop-color="#FAF289"/></linearGradient><linearGradient id="i" x1="30.601" y1="35.655" x2="37.148" y2="29.108" gradientUnits="userSpaceOnUse"><stop stop-color="#F2AE3A"/><stop offset=".478" stop-color="#F9EA80"/><stop offset=".988" stop-color="#F2B13D"/><stop offset="1" stop-color="#FAF289"/></linearGradient><linearGradient id="j" x1="30.276" y1="37.094" x2="38.042" y2="29.328" gradientUnits="userSpaceOnUse"><stop stop-color="#F2AE3A"/><stop offset=".478" stop-color="#F9EA80"/><stop offset=".988" stop-color="#F2B13D"/><stop offset="1" stop-color="#FAF289"/></linearGradient><linearGradient id="k" x1="30.055" y1="38.273" x2="35.852" y2="32.482" gradientUnits="userSpaceOnUse"><stop stop-color="#F2AE3A"/><stop offset=".478" stop-color="#F9EA80"/><stop offset=".988" stop-color="#F2B13D"/><stop offset="1" stop-color="#FAF289"/></linearGradient><linearGradient id="l" x1="29.218" y1="39.201" x2="33.999" y2="34.424" gradientUnits="userSpaceOnUse"><stop stop-color="#F2AE3A"/><stop offset=".478" stop-color="#F9EA80"/><stop offset=".988" stop-color="#F2B13D"/><stop offset="1" stop-color="#FAF289"/></linearGradient><linearGradient id="m" x1="12.9" y1="35.716" x2="29.65" y2="29.057" gradientUnits="userSpaceOnUse"><stop stop-color="#F2AE3A"/><stop offset=".478" stop-color="#F9EA80"/><stop offset=".988" stop-color="#F2B13D"/><stop offset="1" stop-color="#FAF289"/></linearGradient><linearGradient id="n" x1="31" y1="21.427" x2="33.495" y2="20.471" gradientUnits="userSpaceOnUse"><stop stop-color="#F2AE3A"/><stop offset=".478" stop-color="#F9EA80"/><stop offset=".988" stop-color="#F2B13D"/><stop offset="1" stop-color="#FAF289"/></linearGradient><linearGradient id="o" x1="28" y1="25.427" x2="30.495" y2="24.471" gradientUnits="userSpaceOnUse"><stop stop-color="#F2AE3A"/><stop offset=".478" stop-color="#F9EA80"/><stop offset=".988" stop-color="#F2B13D"/><stop offset="1" stop-color="#FAF289"/></linearGradient><linearGradient id="p" x1="31" y1="25.427" x2="33.495" y2="24.471" gradientUnits="userSpaceOnUse"><stop stop-color="#F2AE3A"/><stop offset=".478" stop-color="#F9EA80"/><stop offset=".988" stop-color="#F2B13D"/><stop offset="1" stop-color="#FAF289"/></linearGradient><linearGradient id="q" x1="34" y1="25.427" x2="36.495" y2="24.471" gradientUnits="userSpaceOnUse"><stop stop-color="#F2AE3A"/><stop offset=".478" stop-color="#F9EA80"/><stop offset=".988" stop-color="#F2B13D"/><stop offset="1" stop-color="#FAF289"/></linearGradient><linearGradient id="r" x1="37" y1="25.427" x2="39.495" y2="24.471" gradientUnits="userSpaceOnUse"><stop stop-color="#F2AE3A"/><stop offset=".478" stop-color="#F9EA80"/><stop offset=".988" stop-color="#F2B13D"/><stop offset="1" stop-color="#FAF289"/></linearGradient><linearGradient id="s" x1="29.859" y1="39.621" x2="37.907" y2="29.55" gradientUnits="userSpaceOnUse"><stop stop-color="#F2AE3A"/><stop offset=".478" stop-color="#F9EA80"/><stop offset=".988" stop-color="#F2B13D"/><stop offset="1" stop-color="#FAF289"/></linearGradient><linearGradient id="t" x1="28.251" y1="39.103" x2="32.031" y2="35.326" gradientUnits="userSpaceOnUse"><stop stop-color="#F2AE3A"/><stop offset=".478" stop-color="#F9EA80"/><stop offset=".988" stop-color="#F2B13D"/><stop offset="1" stop-color="#FAF289"/></linearGradient></defs></svg>