<!-- by TradingView --><svg width="56" height="56" viewBox="0 0 56 56" xmlns="http://www.w3.org/2000/svg"><path fill="#F0F3FA" d="M0 0h56v56H0z"/><path d="M29 32.16c5.85-.65 10.39-5.36 10.39-11.08S34.85 10.65 29 10v22.16Z" fill="#DA251C"/><path d="M27 46c-5.85-.65-10.39-5.36-10.39-11.08S21.15 24.49 27 23.84V46Z" fill="#183883"/><path d="M27 22.08V10C7.87 13.35 10.55 32.02 15.97 39.14 12.45 25.8 21.86 22.2 27 22.08Z" fill="url(#a)"/><path d="M29 33.92V46c19.13-3.35 16.45-22.02 11.03-29.14C43.55 30.2 34.14 33.8 29 33.92Z" fill="url(#b)"/><defs><linearGradient id="a" x1="26.18" y1="12.05" x2="15.13" y2="37.2" gradientUnits="userSpaceOnUse"><stop stop-color="#DE4019"/><stop offset="1" stop-color="#F8BE02"/></linearGradient><linearGradient id="b" x1="29.82" y1="43.95" x2="40.87" y2="18.8" gradientUnits="userSpaceOnUse"><stop stop-color="#1B3780"/><stop offset="1" stop-color="#008DD3"/></linearGradient></defs></svg>