<!-- by TradingView --><svg width="56" height="56" viewBox="0 0 56 56" xmlns="http://www.w3.org/2000/svg"><path fill="#F0F3FA" d="M0 0h56v56H0z"/><path d="M33.7 13.12c-1.74 1.9-3.04 3.88-3.31 6.46-.4 3.72 3.6 7.34 6.15 9.57.6.53 1 .93 1.2 1.21 1.4 2.02.78 4.05-.53 5.96-.36.53-.94 1.15-1.74 1.85a56.4 56.4 0 0 1-6 4.6c-.22.16-.5.23-.84.23H12.12c-.03 0-.06-.03-.09-.05a.12.12 0 0 1-.03-.09V13.07c0-.02 0-.04.02-.05a.07.07 0 0 1 .05-.02h21.58a.07.07 0 0 1 .07.04.07.07 0 0 1-.01.08Z" fill="#2449A4"/><path d="m33.43 14.32 1.19-1.19a.07.07 0 0 1 .05-.02h9.26a.07.07 0 0 1 .07.1l-.03.03-2.07 1.19h-8.43a.07.07 0 0 1-.06-.04.07.07 0 0 1 .02-.07Z" fill="#E1240D"/><path d="M17.8 20a3.97 3.97 0 0 1-1.73-1.77c-.62-1.54.09-2.69 1.55-3.27 1.39-.55 2.92-.02 4.12.65l1.95 1.07c.56.28.86.73.91 1.36a.1.1 0 0 1-.12.1l-.3-.08c-.12-.03-.13 0-.06.08.05.06.12.1.2.1l.15.07.8.65a.07.07 0 0 1 .03.1l-.02.04a.1.1 0 0 1-.08.06.1.1 0 0 1-.08-.03l-.79-.78a.22.22 0 0 0-.15-.07 2.47 2.47 0 0 1-1.92-1c-.55-.66-1.6-1-2.59-1.2-.69-.16-1.2-.18-1.52-.09-1.52.44-1.27 1.85-.3 2.7.52.47 1.17.78 1.94 1.17.21.1.45.15.71.14h8.83c.15 0 .13.11 0 .18l-4.8 2.43c-.06.03-.07.07-.04.13.17.28.38.5.51.87.45 1.27-.8 2.24-1.9 2.48l-.75.14c-.06 0-.09.05-.09.1v1.75c0 .06.03.1.09.12.75.33 1.36 1.23.52 1.86a3.2 3.2 0 0 1-.47.27.37.37 0 0 0-.2.28.37.37 0 0 0 .13.33c.22.18.38.42.48.7a.04.04 0 0 1-.06.05l-.3-.3a.12.12 0 0 0-.15-.03.13.13 0 0 0-.08.12v.97a.11.11 0 0 0 .09.11l3.48.95c.23.07.23.1-.02.1l-7.88.04c-.3 0-.3-.04-.02-.12l3.5-.97c.04-.02.07-.05.07-.1l.01-1.21c0-.05-.03-.1-.1-.13-.62-.32-1.23-.61-1.1-1.38.08-.42.42-.6.8-.67.15-.03.16-.08.03-.16-.77-.48-1.6-1.07-1.69-1.94-.11-1.23.9-1.68 1.93-1.85a.14.14 0 0 0 .11-.14v-1.1a.15.15 0 0 0-.08-.13l-7.43-3.48c-.25-.12-.24-.27.03-.27h3.84Z" fill="#fff"/><path d="m32.3 15.77.56-.55a.09.09 0 0 1 .06-.03h7.77a.09.09 0 0 1 .09.07.09.09 0 0 1-.04.1l-.97.55a.09.09 0 0 1-.04 0h-7.37a.09.09 0 0 1-.06-.14ZM31.58 17.25l.25-.52a.1.1 0 0 1 .1-.06h6.82a.1.1 0 0 1 .1.13.1.1 0 0 1-.02.05l-.51.52a.1.1 0 0 1-.08.03h-6.56a.1.1 0 0 1-.1-.15ZM31.12 18.77l.15-.56a.09.09 0 0 1 .09-.07h6.17a.09.09 0 0 1 .08.06.09.09 0 0 1-.02.1l-.56.55a.09.09 0 0 1-.06.03H31.2a.09.09 0 0 1-.09-.07v-.04ZM31.03 20.28v-.57a.09.09 0 0 1 .09-.09h5.47a.09.09 0 0 1 .08.05.09.09 0 0 1 0 .08l-.26.57a.09.09 0 0 1-.09.05h-5.2a.09.09 0 0 1-.1-.09Z" fill="#E1240D"/><path d="M23.47 23.1c-.43-.03-.82.01-1.07-.15l-3.61-2.32c-.11-.07-.1-.11.03-.12.62-.05 1.12-.14 1.66.18l3 1.68c.1.05.18.14.21.25.04.1.03.23-.02.33-.04.1-.1.14-.2.14Z" fill="#2449A4"/><path d="M36.24 21.17v.6a.07.07 0 0 1-.07.08h-4.78a.07.07 0 0 1-.07-.05l-.17-.6a.07.07 0 0 1 .01-.07.07.07 0 0 1 .06-.03h4.95a.07.07 0 0 1 .07.07ZM31.88 23.26l-.19-.53a.1.1 0 0 1 .06-.13.1.1 0 0 1 .05-.01h4.44a.1.1 0 0 1 .1.07l.19.53a.1.1 0 0 1-.1.14h-4.45a.1.1 0 0 1-.1-.07Z" fill="#E1240D"/><path d="M22.27 24.73c0-.2 0-.43.02-.67.03-.42.21-.48.53-.58.07-.02.12-.01.17.03.25.22.39.48.4.78a.53.53 0 0 1-.35.55l-.4.13c-.24.09-.36 0-.37-.24Z" fill="#2449A4"/><path d="m32.88 24.75-.3-.5a.12.12 0 0 1 .1-.17h4.22a.12.12 0 0 1 .1.06l.29.5a.12.12 0 0 1-.1.17h-4.21a.12.12 0 0 1-.1-.06ZM34.28 26.26l-.57-.56a.09.09 0 0 1 .02-.14.1.1 0 0 1 .05-.02h4.27a.1.1 0 0 1 .07.03l.57.57a.09.09 0 0 1 .01.1.09.09 0 0 1-.08.05h-4.27a.1.1 0 0 1-.07-.03Z" fill="#E1240D"/><path d="M21.34 27.9c-.4-.19-.66-.5-.76-.94a.46.46 0 0 1 .3-.54l.24-.09c.21-.07.32 0 .32.23v1.28a.07.07 0 0 1-.07.07l-.03-.01Z" fill="#2449A4"/><path d="m39.87 27.06.55.54a.1.1 0 0 1-.07.19h-4.46a.1.1 0 0 1-.08-.03l-.55-.55a.1.1 0 0 1 .01-.17.1.1 0 0 1 .06-.02h4.47a.1.1 0 0 1 .07.04ZM37.43 29.23l-.6-.6a.07.07 0 0 1-.02-.08.07.07 0 0 1 .07-.04h4.4a.07.07 0 0 1 .06.02l.6.6a.07.07 0 0 1 0 .11.07.07 0 0 1-.05.01h-4.4a.07.07 0 0 1-.06-.02ZM38.57 30.69l-.32-.55a.1.1 0 0 1 .03-.13.1.1 0 0 1 .05-.02h4.19a.1.1 0 0 1 .08.05l.32.55a.1.1 0 0 1-.04.14.1.1 0 0 1-.05 0h-4.18a.1.1 0 0 1-.08-.04ZM39.1 32.14l-.15-.5a.12.12 0 0 1 .02-.1.12.12 0 0 1 .1-.05h4.22a.12.12 0 0 1 .1.08l.15.5a.11.11 0 0 1-.11.15H39.2a.12.12 0 0 1-.11-.08ZM43.66 32.96h-4.43a.13.13 0 0 0-.14.13v.48c0 .07.06.13.14.13h4.43c.07 0 .13-.06.13-.13v-.48a.13.13 0 0 0-.13-.13ZM43.8 34.53v.57a.09.09 0 0 1-.1.09h-5.02a.09.09 0 0 1-.09-.08l.01-.05.27-.57a.09.09 0 0 1 .08-.05h4.75c.03 0 .05 0 .07.03l.02.06Z" fill="#E1240D"/><path d="M14.51 36.5c0 .64.63.68 1.04.38.07-.05.1-.03.1.06v.86c0 .06-.03.1-.08.12-1.07.3-2.1-.24-2.1-1.41 0-1.18 1.02-1.73 2.09-1.43.06.02.09.05.09.12v.86c0 .09-.03.1-.1.06-.41-.3-1.04-.25-1.04.38ZM23.9 37.07c.1 0 .16-.02.2-.06.05-.04.07-.1.07-.19V35.1c0-.07.04-.1.1-.1h.84c.06 0 .1.03.1.1l-.01 1.44c-.02.92-.34 1.46-1.3 1.46s-1.28-.53-1.3-1.45l-.02-1.44c0-.07.03-.1.1-.1h.83c.07 0 .1.03.1.1l.01 1.71c0 .09.03.15.07.19.05.04.12.06.21.06ZM29.9 36.04c.07 0 .14 0 .2-.03.07-.02.1-.07.1-.14v-.74c0-.09.05-.13.13-.13h.78c.05 0 .09.04.1.13.01.06.02.52.01 1.37l-.01 1.37c-.01.09-.05.13-.1.13h-.79c-.08 0-.12-.05-.12-.13v-.74c0-.08-.03-.12-.1-.14a.79.79 0 0 0-.43 0c-.06.02-.1.06-.1.14v.74c0 .08-.03.13-.12.13h-.77c-.06 0-.1-.05-.11-.13l-.01-1.37.01-1.37c.02-.09.05-.13.11-.13h.78c.08 0 .12.04.12.13v.74c0 .07.03.12.1.14.06.02.14.03.21.03ZM26.76 37.86v-.62c0-.08.04-.12.11-.12.45 0 1-.02 1.21-.47.3-.6.1-1.44-.63-1.58a6.94 6.94 0 0 0-1.6-.05c-.08 0-.11.04-.11.11v2.72c0 .1.05.15.14.15h.75c.09 0 .13-.05.13-.14Zm.1-1.53c-.1-.05-.16-.2-.1-.34.05-.14.19-.2.3-.15.12.05.17.2.12.34-.06.13-.2.2-.31.15ZM18.63 37.53a1.49 1.49 0 0 0-.05-2.12 1.54 1.54 0 0 0-2.16.06 1.49 1.49 0 0 0 .05 2.12 1.54 1.54 0 0 0 2.16-.06Zm-1.08-.5c-.26.02-.5-.21-.51-.51-.02-.3.19-.55.45-.57.27-.01.5.22.52.52.01.3-.2.55-.46.56Z" fill="#fff"/><path fill-rule="evenodd" d="M19.51 35.04a.13.13 0 0 0-.03.08v2.76a.13.13 0 0 0 .03.08l.04.03.04.01h1.1c.39 0 .77-.15 1.06-.42.28-.27.44-.63.44-1v-.15c0-.38-.16-.74-.44-1.01a1.55 1.55 0 0 0-1.07-.42H19.6a.11.11 0 0 0-.08.04Zm1 .92a.13.13 0 0 0-.03.09v.9a.13.13 0 0 0 .04.1l.04.02.04.01h.05a.5.5 0 0 0 .36-.15c.1-.1.15-.23.15-.37v-.13a.53.53 0 0 0-.15-.36.51.51 0 0 0-.37-.15h-.04a.12.12 0 0 0-.09.04Z" fill="#fff"/><path d="m43.59 36.08-.14.5a.13.13 0 0 1-.12.09h-5.5a.13.13 0 0 1-.13-.08.12.12 0 0 1 .03-.14l.5-.5a.13.13 0 0 1 .09-.03h5.15a.13.13 0 0 1 .12.1v.06Z" fill="#E1240D"/><path fill-rule="evenodd" d="M33.48 35.05a2.41 2.41 0 0 0-1.01 0 .15.15 0 0 0-.12.1l-.92 2.72c-.03.08 0 .12.08.12h.85c.07 0 .12-.03.14-.1l.06-.17c.02-.06.06-.1.13-.1a10.12 10.12 0 0 1 .55 0c.06 0 .1.04.12.1l.06.17c.03.07.07.11.15.11h.85c.07 0 .1-.04.07-.12l-.9-2.72a.15.15 0 0 0-.11-.1Zm-.66 1.9h.01l.2.02a.04.04 0 0 0 .04 0 .04.04 0 0 0 .01-.03v-.03c.02-.2.02-.39.01-.53s-.03-.22-.07-.23h-.04c-.03 0-.07.07-.1.21-.04.14-.07.32-.08.52v.03a.04.04 0 0 0 0 .03l.02.01Z" fill="#fff"/><path d="m36.52 37.98.54-.54a.1.1 0 0 1 .07-.03H43a.1.1 0 0 1 .08.04.1.1 0 0 1 0 .1l-.25.54a.1.1 0 0 1-.09.06H36.6a.1.1 0 0 1-.1-.06.1.1 0 0 1 .03-.11ZM42.45 39.04l-.58.57a.08.08 0 0 1-.06.02h-6.78a.08.08 0 0 1-.08-.05.08.08 0 0 1 .02-.08l.57-.58a.08.08 0 0 1 .06-.02h6.79a.08.08 0 0 1 .07.05.08.08 0 0 1-.01.09ZM41.44 40.52l-.55.56a.09.09 0 0 1-.07.02h-7.8a.09.09 0 0 1-.04-.16l.96-.55.04-.02h7.4a.09.09 0 0 1 .06.15ZM40.3 41.96l-1 1-.02.02H30.15a.06.06 0 0 1-.06-.04.06.06 0 0 1 .03-.07l1.75-1 .03-.02h8.36a.06.06 0 0 1 .06.04.06.06 0 0 1-.01.07Z" fill="#E1240D"/></svg>