<!-- by TradingView --><svg width="56" height="56" viewBox="0 0 56 56" xmlns="http://www.w3.org/2000/svg"><path fill="#F0F3FA" d="M0 0h56v56H0z"/><path d="m28.02 16 11.38 7H33v5.8l9.46-4.84L52 29.18l-.19.82H48v5H8v-5H4.19L4 29.18l9.7-5.22L23 28.8V23h-6.7l11.72-7Zm-7.86 6H24v8.44l-10.3-5.35L6.18 29H9v5h38v-5h2.85l-7.4-3.9L32 30.42V22h3.7L28 17.19 20.17 22Z" fill="#F1810A"/><path d="m28.08 18.6 3.4 2.03v11.12l10.95-5.68L46 27.92v5.59H10v-5.59l3.73-1.85 10.92 5.68V20.63l3.43-2.03Zm-2.93 2.32v11.65l-11.43-5.94-3.22 1.6V33h35v-4.77l-3.07-1.6-11.45 5.94V20.92l-2.9-1.73-2.93 1.73Z" fill="#1A331E"/></svg>