<!-- by TradingView --><svg width="56" height="56" viewBox="0 0 56 56" xmlns="http://www.w3.org/2000/svg"><path fill="#F0F3FA" d="M0 0h56v56H0z"/><path d="M27.93 10c4.65 2.87 3.82 8.57.84 12.21-.08.1-.12.09-.12-.04 0-.37 0-.89-.06-1.34-.28-1.87-.51-3.97-.7-6.28a3.26 3.26 0 0 0-.08-.5c-.06-.24-.1-.25-.12 0-.04.64-.05 1.3-.12 1.94-.24 2.02-.3 4.06-.58 6.09-.01.08-.05.09-.11.04a8.19 8.19 0 0 1-2.7-6.67A6.79 6.79 0 0 1 27.42 10h.5Z" fill="#CDAB59"/><path d="M45.91 31.48a6.84 6.84 0 0 1-6.7 1.8 10.91 10.91 0 0 1-5.82-3.48.16.16 0 0 1-.02-.18.16.16 0 0 1 .07-.07.17.17 0 0 1 .1-.02l8.4 1v-.01l.03-.05c0-.02 0-.03-.02-.03l-8.04-2.35a.14.14 0 0 1-.07-.04.13.13 0 0 1 .03-.2A9.05 9.05 0 0 1 40 26.52c2.5.33 4.9 1.8 5.86 4.05.22.51.14.83.05.92Z" fill="#EBC86C"/><path d="M28.86 31.96c-.13.02-.2.1-.2.22l-.68 9.1a.05.05 0 0 1-.02.03l-.02.01h-.08c-.06 0-.1-.04-.1-.1l-.36-9a.28.28 0 0 0-.08-.2.3.3 0 0 0-.18-.08c-.78-.1-1.46-.4-2.02-.9-.07-.05-.14-.06-.22 0l-7.76 5.24c-.03.01-.05.01-.07 0l-.05-.05c-.04-.03-.04-.07 0-.1l6.99-5.96a.27.27 0 0 0 .07-.32c-.3-.62-.5-1.29-.6-2a.4.4 0 0 0-.1-.21.4.4 0 0 0-.2-.12c-2.18-.5-3.98-.96-5.4-1.36-1.4-.39-2.52-.66-3.35-.8-.14-.02-.24-.09-.27-.2-.03-.08 0-.11.1-.1l9.08 1.3c.08 0 .15 0 .22-.04a.36.36 0 0 0 .16-.14c.38-.68.84-1.29 1.39-1.82.06-.07.08-.15.04-.23l-3.88-8.29a.12.12 0 0 1 .04-.14l.07-.05c.04-.03.08-.02.1.02l4.64 7.8c.04.06.09.1.15.13a.3.3 0 0 0 .19.01 5.6 5.6 0 0 1 2.3-.13.6.6 0 0 0 .66-.31l4.45-7.7c.02-.03.05-.05.1-.04l.12.01c.02 0 .03.02.02.04l-3.6 8.26a.41.41 0 0 0 .12.5c.58.43 1.05.96 1.39 1.58.02.03.06.07.1.09.04.02.09.02.13.01 2.06-.38 4.13-.75 6.22-1.08.78-.13 1.98-.41 3-.51.09 0 .1.03.06.11a.1.1 0 0 1-.06.05l-8.81 2.6a.29.29 0 0 0-.21.27c-.02.8-.17 1.55-.47 2.27a.2.2 0 0 0 0 .12.2.2 0 0 0 .06.1l7.07 5.95a.1.1 0 0 1 .03.09v.05l-.01.03a.07.07 0 0 1-.06.03h-.04l-7.62-5.1a.33.33 0 0 0-.37.02c-.75.54-1.48.89-2.18 1.04Z" fill="#EDDE7B"/><path d="M38.84 19.2c-.11.04-.34.26-.49.35a274.83 274.83 0 0 0-5.73 3.6c-.2.14-.41.25-.61.32a.12.12 0 0 1-.11-.02.1.1 0 0 1-.04-.1 8.41 8.41 0 0 1 3.1-5.56 7.59 7.59 0 0 1 7-1.48c.53.15.48.4.49.9a6.65 6.65 0 0 1-3.13 5.89A10.8 10.8 0 0 1 33 24.99c-.21 0-.24-.08-.08-.22l6-5.47c.2-.18.17-.21-.07-.1Z" fill="#DDBF65"/><path d="M16.53 19.9c.08.1.35.25.48.36 1.75 1.5 3.48 2.95 5.17 4.33.2.16.35.32.48.48a.11.11 0 0 1 .01.11.11.11 0 0 1-.09.07 8.93 8.93 0 0 1-6.35-1.33 7.16 7.16 0 0 1-3.42-6.11c0-.55.26-.57.76-.72a7.04 7.04 0 0 1 6.68 1.27c1.8 1.4 3.01 3.2 3.63 5.37.06.2 0 .25-.19.14l-7.07-4.07c-.23-.13-.26-.1-.1.1Z" fill="#EBD37B"/><path d="M14.45 30.76c-.05.02-.07.05-.05.1l.02.07c.01.03.03.05.07.04.6-.1 1.2-.28 1.81-.35 1.43-.16 3.44-.43 6.03-.8.08 0 .15.01.2.07a.1.1 0 0 1 0 .12 7.37 7.37 0 0 1-1.82 2.12c-3.1 2.3-7.08 2.74-10.32.26-.4-.3-.49-.66-.29-1.08a7.04 7.04 0 0 1 5.83-4.16c2.21-.27 4.28.04 6.2.92.23.11.22.2-.02.28l-7.66 2.4Z" fill="#EDDE7B"/><path d="M21.49 40.02c-.13.3-.1.31.08.04l4.48-6.85a.11.11 0 0 1 .17-.03 7.99 7.99 0 0 1-.73 7.03 7.25 7.25 0 0 1-5.57 3.56.4.4 0 0 1-.39-.19c-2.76-4.57.55-9.29 4.92-11.3.16-.07.25-.05.27.07v.01l-.02.03-3.21 7.63ZM33.83 40.29c.17.28.2.27.09-.04l-2.74-7.66a.1.1 0 0 1 .03-.12.11.11 0 0 1 .11-.02c2.5.9 4.22 2.54 5.16 4.92a6.87 6.87 0 0 1-.6 6.45.39.39 0 0 1-.16.14.4.4 0 0 1-.23.04c-5.4-.74-7.15-6.2-6.05-10.78.04-.16.11-.22.22-.16v.02l.02.02 4.15 7.19Z" fill="#BD9B52"/></svg>