<!-- by TradingView --><svg width="56" height="56" viewBox="0 0 56 56" xmlns="http://www.w3.org/2000/svg"><path fill="#F0F3FA" d="M0 0h56v56H0z"/><path d="m28.12 14.47 2.96-2.82.02-.03a.05.05 0 0 0 0-.04l-.03-.02-2.93-1.55a.05.05 0 0 0-.05 0l-2.92 1.52-.01.01a.05.05 0 0 0 0 .07l2.88 2.86a.05.05 0 0 0 .08 0ZM33.63 12.87l-3.61 1.6-.02.01-.01.02a.05.05 0 0 0 .01.05l2.16 2.37h.02l.02.01 3.18-.43a.05.05 0 0 0 .04-.03v-.04l-1.73-3.54a.05.05 0 0 0-.06-.02ZM22.5 12.9l3.6 1.6a.05.05 0 0 1 .01.08l-2.16 2.37a.05.05 0 0 1-.04.01l-3.18-.44a.05.05 0 0 1-.04-.03.05.05 0 0 1 0-.04l1.74-3.53a.05.05 0 0 1 .06-.03ZM36.91 17.65l4.08-.27a.05.05 0 0 0 .05-.05v-.02l-1.24-3.07a.05.05 0 0 0-.04-.03l-3.24-.7h-.03a.05.05 0 0 0-.04.05l.4 4.04.03.03.03.02ZM19.2 17.72l-4.08-.3a.05.05 0 0 1-.04-.02.05.05 0 0 1 0-.04l1.25-3.06a.05.05 0 0 1 .03-.03l3.26-.7a.05.05 0 0 1 .06.06l-.42 4.04c0 .01 0 .03-.02.03a.05.05 0 0 1-.03.02ZM30.38 17.45l-2.23-2.22a.05.05 0 0 0-.07 0l-2.29 2.19a.05.05 0 0 0-.01.04v.02l.02.02 2.27 1.2a.05.05 0 0 0 .05 0l2.25-1.17a.05.05 0 0 0 .03-.04.05.05 0 0 0-.02-.04ZM33.2 18.43l3.16-.21a.05.05 0 0 1 .05.04l.31 3.12a.05.05 0 0 1-.06.06l-2.5-.55a.05.05 0 0 1-.04-.03l-.96-2.37a.05.05 0 0 1 .02-.06h.02ZM19.73 18.3l-.32 3.12a.05.05 0 0 0 .06.06l2.51-.54a.05.05 0 0 0 .04-.03l.96-2.36v-.05a.05.05 0 0 0-.04-.02l-3.15-.22-.04.01a.05.05 0 0 0-.02.03ZM24.65 18.79l2.14.96a.05.05 0 0 1 .03.03.05.05 0 0 1 0 .05l-1.27 1.38a.06.06 0 0 1-.05.02l-1.82-.26a.05.05 0 0 1-.05-.05v-.02l.95-2.09a.05.05 0 0 1 .07-.02ZM32.5 20.89l-.96-2.11a.05.05 0 0 0-.02-.02h-.04l-2.15.95-.02.02a.05.05 0 0 0 0 .06l1.27 1.4a.05.05 0 0 0 .05.01l1.82-.25a.05.05 0 0 0 .04-.04v-.02ZM42.2 20l-.98 3.8a.05.05 0 0 1-.08.03l-2.71-1.7a.05.05 0 0 1-.02-.03l-.12-3.2v-.02a.05.05 0 0 1 .04-.02h.02l3.8 1.07a.05.05 0 0 1 .04.06ZM13.97 20.06l.96 3.81a.05.05 0 0 0 .03.04.05.05 0 0 0 .04 0l2.72-1.7a.05.05 0 0 0 .02-.03l.13-3.2a.05.05 0 0 0-.06-.04L14.01 20a.05.05 0 0 0-.04.06ZM41.56 25.62l2.31-3.36.02-.01a.05.05 0 0 1 .04 0l.02.01L46 24.87a.05.05 0 0 1 0 .05l-1.03 3.13a.05.05 0 0 1-.08.03l-3.3-2.4a.05.05 0 0 1-.02-.06ZM12.2 22.38l-2 2.58a.13.13 0 0 1-.11.06h-.05c-.02 0-.03.01-.03.02v.03c-.01.02 0 .03.05.03h.08c.06.02.1.05.1.1l.98 2.98a.02.02 0 0 0 .03.02l3.37-2.42c.02-.02.02-.04 0-.06l-2.28-3.33a.08.08 0 0 0-.06-.04.08.08 0 0 0-.07.03ZM36.72 23.15l-.63 2.2a.05.05 0 0 1-.03.03H36l-1.58-1a.05.05 0 0 1-.03-.04V22.5a.05.05 0 0 1 .02-.04.05.05 0 0 1 .05 0l2.22.62a.05.05 0 0 1 .03.02.05.05 0 0 1 0 .05ZM19.46 23.16l.57 2.27a.05.05 0 0 0 .03.04h.04l1.6-1a.05.05 0 0 0 .03-.04l.07-1.84v-.02a.05.05 0 0 0-.05-.03l-2.26.56a.05.05 0 0 0-.03.06ZM38.24 23.93l2.54 1.84a.05.05 0 0 1 .02.08l-1.78 2.57a.05.05 0 0 1-.04.03h-.03l-.02-.02-1.57-2.01a.05.05 0 0 1 0-.05l.8-2.41a.05.05 0 0 1 .03-.04.05.05 0 0 1 .05.01ZM17.96 24l-2.56 1.84a.05.05 0 0 0-.02.03v.04l1.78 2.6a.05.05 0 0 0 .05.01.05.05 0 0 0 .04-.02l1.57-2a.05.05 0 0 0 0-.05l-.78-2.42-.01-.02a.05.05 0 0 0-.07-.01ZM41.9 27.53l2.22 3.24a.05.05 0 0 1 0 .04.05.05 0 0 1-.01.04l-3.21 2.3a.05.05 0 0 1-.05 0h-.02l-.01-.03-.98-3.02v-.05l1.97-2.52a.05.05 0 0 1 .07-.01l.02.01ZM14.32 27.62l-2.23 3.23a.05.05 0 0 0 .01.07l3.2 2.32a.05.05 0 0 0 .05 0 .05.05 0 0 0 .03-.03l1-3.02a.05.05 0 0 0 0-.05l-1.98-2.52-.01-.02a.05.05 0 0 0-.07.02ZM37.88 29.78l-1.91 1.29a.05.05 0 0 1-.09-.03l-.56-1.73a.05.05 0 0 1 .01-.05l1.16-1.48.02-.02a.05.05 0 0 1 .06.02l1.32 1.93a.05.05 0 0 1-.01.07ZM19.65 27.85l-1.34 1.93a.05.05 0 0 0 0 .06l.02.01 1.9 1.3a.05.05 0 0 0 .05 0 .05.05 0 0 0 .03-.03l.58-1.75a.05.05 0 0 0 0-.04l-1.16-1.48-.02-.02a.05.05 0 0 0-.06.02ZM38.52 31.33l.77 3.05v.04l-.03.02-3.05.85a.05.05 0 0 1-.05 0 .05.05 0 0 1-.01-.05l.1-2.54a.05.05 0 0 1 .02-.04l2.18-1.35a.05.05 0 0 1 .04 0 .05.05 0 0 1 .03.02ZM16.98 34.5l3.03.86a.05.05 0 0 0 .07-.03v-.02l-.1-2.54a.05.05 0 0 0-.02-.05l-2.16-1.35a.05.05 0 0 0-.08.03l-.78 3.04a.05.05 0 0 0 .04.06ZM21.7 35.56l-.16-2.27a.05.05 0 0 1 .06-.06l1.8.4h.02l.02.03.7 1.73a.05.05 0 0 1 0 .05.05.05 0 0 1-.05.02l-2.34.15a.06.06 0 0 1-.04 0 .05.05 0 0 1-.02-.05ZM32.16 35.37l2.3.24a.05.05 0 0 0 .04-.02.05.05 0 0 0 .02-.03l.24-2.32v-.03a.05.05 0 0 0-.04-.02h-.02l-1.85.39a.05.05 0 0 0-.04.03l-.69 1.7a.05.05 0 0 0 .01.04.05.05 0 0 0 .03.02ZM40.93 38.76l-.99-3.93.01-.04c0-.02.02-.03.03-.03l3.94-1.1h.02a.06.06 0 0 1 .05.06L43.85 37a.05.05 0 0 1-.02.05l-2.81 1.74a.06.06 0 0 1-.05 0 .06.06 0 0 1-.04-.03ZM15.3 38.85l1-3.94a.05.05 0 0 0-.03-.06l-3.94-1.11a.05.05 0 0 0-.05 0 .05.05 0 0 0-.02.05l.12 3.3a.05.05 0 0 0 .03.04l2.81 1.75.02.01a.05.05 0 0 0 .05-.02v-.02ZM28.06 37.9l-1.6-1.66a.05.05 0 0 1 0-.07l.02-.01 1.63-.85a.05.05 0 0 1 .05 0l1.66.88a.05.05 0 0 1 .03.04.05.05 0 0 1-.02.05l-1.69 1.61a.05.05 0 0 1-.06.01h-.02ZM34.6 40.1l3.94.29a.05.05 0 0 0 .06-.05l.4-3.9a.05.05 0 0 0 0-.02.05.05 0 0 0-.04-.03h-.02l-3.14.67a.05.05 0 0 0-.04.03l-1.2 2.95v.05l.02.01h.02ZM21.65 40.17l-3.94.27a.05.05 0 0 1-.05-.05l-.4-3.9a.05.05 0 0 1 .02-.04.05.05 0 0 1 .05-.01l3.14.68a.05.05 0 0 1 .04.03l1.19 2.95v.03a.05.05 0 0 1-.02.04h-.03ZM22.31 37.23l1.39 2.83.02.02h.04l2.89-1.28a.05.05 0 0 0 .03-.04.05.05 0 0 0-.01-.04l-1.73-1.9a.05.05 0 0 0-.04 0l-2.55.34a.05.05 0 0 0-.03.02.05.05 0 0 0 0 .05ZM32.5 40.06l-2.88-1.3a.05.05 0 0 1-.03-.03.05.05 0 0 1 .01-.04l1.73-1.89a.05.05 0 0 1 .04-.01l2.55.35a.05.05 0 0 1 .03.03v.04l-1.38 2.82-.03.03h-.04ZM25.3 41.41l2.77 2.77a.05.05 0 0 0 .08 0l2.87-2.74a.05.05 0 0 0-.01-.08l-2.83-1.5a.05.05 0 0 0-.05 0l-2.83 1.47-.01.02-.01.02a.05.05 0 0 0 .01.04ZM31 44.44l1.79-3.65a.05.05 0 0 1 .06-.03l3.74 1.67a.05.05 0 0 1 .03.04.05.05 0 0 1-.02.04l-2.23 2.44a.05.05 0 0 1-.05.02l-3.29-.46a.05.05 0 0 1-.04-.03.05.05 0 0 1 0-.04ZM23.44 40.8l-3.74 1.65a.05.05 0 0 0-.03.04.05.05 0 0 0 .01.04l2.23 2.45.02.02h.02l3.3-.45a.05.05 0 0 0 .04-.07l-1.79-3.66a.05.05 0 0 0-.06-.02Z" fill="#E09F0E"/></svg>