<!-- by TradingView --><svg width="56" height="56" viewBox="0 0 56 56" xmlns="http://www.w3.org/2000/svg"><path fill="#F0F3FA" d="M0 0h56v56H0z"/><path d="M35.98 29.98v-.02l.02-.02 1.12-1.1.01-.03v-.03l-6.62-6.56c-.04-.04-.04-.08 0-.12l4.5-4.46a.07.07 0 0 1 .1 0l10.92 10.83.02.02a.06.06 0 0 0 .06-.02l1.38-1.36c1.07-1.06.26-2.74-.6-3.6l-9.38-9.3a5.6 5.6 0 0 0-.98-.83 2.98 2.98 0 0 0-3.46.4 6363.1 6363.1 0 0 0-14.4 14.3.04.04 0 0 0 0 .03l2.85 2.83a.06.06 0 0 0 .08 0l5.9-5.85a.04.04 0 0 1 .06 0l6.62 6.57a.06.06 0 0 0 .1 0 388.25 388.25 0 0 0 1.7-1.68Zm-23.31-5.1 7.3-7.25c.03-.02.05-.02.07 0l3.5 3.48a.07.07 0 0 0 .1 0l2.82-2.8c.04-.04.04-.08 0-.11l-3.97-3.93a6.15 6.15 0 0 0-1.04-.89 2.97 2.97 0 0 0-3.47.44l-8.8 8.72c-.4.41-.67.72-.79.93-.4.71-.51 1.61-.23 2.4.24.67.6 1.03 1.2 1.6l.2.22a2275.62 2275.62 0 0 1 13.19 13.08l3.42 3.4a2.98 2.98 0 0 0 4.01.09 13936.78 13936.78 0 0 1 14.6-14.51.04.04 0 0 0 0-.03l-2.86-2.84h-.02a.04.04 0 0 0-.04 0l-13.6 13.5a.03.03 0 0 1-.02 0 .04.04 0 0 1-.04 0L12.67 24.96a.06.06 0 0 1 0-.08Z" fill="#1C74BB"/></svg>