<!-- by TradingView --><svg width="56" height="56" viewBox="0 0 56 56" xmlns="http://www.w3.org/2000/svg"><path fill="#F0F3FA" d="M0 0h56v56H0z"/><path d="M50 28c0 6.63-9.85 12-22 12S6 34.63 6 28s9.85-12 22-12 22 5.37 22 12Z" fill="url(#a)"/><path fill-rule="evenodd" d="M43.3 36.03c3.9-2.13 6.17-5 6.17-8.03 0-3.04-2.26-5.9-6.17-8.03-3.89-2.12-9.3-3.45-15.3-3.45s-11.41 1.33-15.3 3.45c-3.9 2.13-6.17 5-6.17 8.03 0 3.04 2.26 5.9 6.17 8.03 3.89 2.12 9.3 3.45 15.3 3.45s11.41-1.33 15.3-3.45ZM28 40c12.15 0 22-5.37 22-12s-9.85-12-22-12S6 21.37 6 28s9.85 12 22 12Z" fill="#B38348"/><path d="M12.59 23.62c-.2-.02-.28-.07-.27-.18l.4-.33a.12.12 0 0 0 .03-.16c-.35-.53 0-.99.32-1.44a.32.32 0 0 0 .04-.27c-.06-.21-.1-.4-.12-.54l.01-.11a.1.1 0 0 1 .08-.02c.02 0 .05.01.07.03a2.1 2.1 0 0 1 .7 1.57.06.06 0 0 0 .05.02h.03c.42-.21.74-.44.95-.7.09-.1.1-.09.06.04a3.5 3.5 0 0 1-.43.88.08.08 0 0 0 .02.07l.03.02c.35.14.65.32.92.54.08.05.12.12.13.18a.1.1 0 0 1-.03.1.1.1 0 0 1-.1.01 1.5 1.5 0 0 0-1.15.13c-.17.08-.41.13-.73.14-.2 0-.34-.14-.5-.23a.14.14 0 0 0-.1-.02.64.64 0 0 0-.41.27ZM11.92 23.45c-.07.06-.19.11-.37.14a.14.14 0 0 0-.09.06.58.58 0 0 1-.2.16.18.18 0 0 0-.1.1.17.17 0 0 0 0 .13c.05.14.09.28.11.43.01.07.1.21.27.41-.2.11-.35.25-.46.41.01.1-.03.1-.14 0-.03-.02-.05-.02-.08 0a.28.28 0 0 1-.18.1l.49-.67a.18.18 0 0 0 .01-.2c-.22-.43-.45-.78-.42-1.25.03-.43-.06-.82-.34-1.08-.03-.03-.04-.06 0-.08.06-.08.14-.1.22-.06.45.17.82.48 1.13.92.05.08.1.24.15.48Z" fill="#499659"/><path d="M12.31 23.44c0 .1.08.16.28.18-.08.1-.1.2-.07.29 0 .03.03.06.06.07l.14.07c-.05.01-.06.08-.03.2v.1c-.08.18-.11.4-.29.5-.12.08-.3.13-.5.15a.63.63 0 0 1-.36-.12c-.17-.2-.26-.34-.27-.41a2.3 2.3 0 0 0-.11-.43.17.17 0 0 1 0-.13.18.18 0 0 1 .1-.1.58.58 0 0 0 .2-.16.14.14 0 0 1 .09-.05c.18-.04.3-.09.36-.15 0 .1 0 .16.06.19.03.02.06.02.1 0l.24-.2Z" fill="#CA4C45"/><path d="M12.72 24.05c.28.05.55.16.81.36.35.26.75.6.72 1a.04.04 0 0 1-.02.03.04.04 0 0 1-.04 0 1.42 1.42 0 0 0-.7-.26l-.58.05a1.7 1.7 0 0 1-1.02-.23c.22-.02.39-.07.51-.15.18-.1.21-.32.28-.5a.16.16 0 0 0 .01-.1c-.03-.12-.02-.19.03-.2ZM10 25.37a.22.22 0 0 1-.2.13.15.15 0 0 0-.1.05.15.15 0 0 0-.04.11l.05.57.03.06.17.2.05.1a.5.5 0 0 0 .25.33v.5a.05.05 0 0 0 .02.04.05.05 0 0 0 .05 0c.26-.27.64-.4 1-.44l.36-.06a1.67 1.67 0 0 1 1.04.17.07.07 0 0 1 .02.05l-.01.03a.11.11 0 0 1-.08.05c-.42.1-.75.11-.9.5-.2.49-.56 1.12-1.1 1.18.1-.23.27-.93-.04-1.07a1.35 1.35 0 0 0-.23-.08.92.92 0 0 1-.21-.11.98.98 0 0 0-.25-.11l.03-.85c0-.03 0-.06-.02-.1a.15.15 0 0 0-.09-.05c-.4-.1-.7-.38-.87-.75-.15-.3-.43-.7-.65-.77-.36-.11-.36-.2.03-.24.6-.06 1.16.12 1.7.56Z" fill="#499659"/><path d="M11.08 25.29c.02.44.07.6.15.48.06.35 0 .65-.16.91a.18.18 0 0 1-.18.09 1.38 1.38 0 0 0-.55.02c-.03 0 0 .03.1.06-.1 0-.18.01-.23.07a.5.5 0 0 1-.25-.34.25.25 0 0 0-.05-.09l-.17-.2a.11.11 0 0 1-.03-.06l-.05-.57a.15.15 0 0 1 .08-.15l.06-.01c.1 0 .16-.05.2-.13.2-.16.39-.12.57.1.02.04.06 0 .11-.09.07 0 .13-.03.18-.09.03-.02.05-.02.07 0 .11.1.16.1.15 0Z" fill="#CA4C45"/><path d="M10.44 26.85c-.1-.03-.13-.06-.1-.06.18-.05.36-.05.55-.02a.19.19 0 0 0 .18-.09c.17-.26.22-.56.16-.9.54-.26 1.16-.24 1.86.07.07.04.13.08.18.14a.07.07 0 0 1 0 .08.07.07 0 0 1-.06.04c-.55-.04-.83.22-1.37.59-.2.13-.4.19-.63.18-.26-.01-.52 0-.77-.03Z" fill="#499659"/><path d="M9.88 27.57c.1.03.17.06.24.1.1.07.17.1.22.12.08.02.15.04.23.08.3.14.14.84.03 1.07a.87.87 0 0 1-.32.06c-.3.05-.58 0-.84-.14-.17-.1-.3-.28-.44-.42-.03-.02-.04-.05-.01-.09l.25-.4c.1-.12.24-.17.43-.14.03 0 .06 0 .08-.04l.13-.2Z" fill="#CA4C45"/><path d="m9.24 27.94-.25.41c-.02.04-.02.07 0 .1.16.13.28.32.45.41.26.14.54.19.84.14a.9.9 0 0 0 .17.7c.03.11 0 .2-.05.26a.5.5 0 0 1-.24.02c-.01 0-.03 0-.04-.02a.08.08 0 0 1-.02-.03l-.23-.65a.2.2 0 0 0-.19-.13.2.2 0 0 0-.08.02c-.2.08-.34.16-.57.1a2.3 2.3 0 0 1-.52-.2c-.25-.2-.47-.4-.66-.6a.31.31 0 0 0-.29-.09l-.5.1a.1.1 0 0 1-.08-.01.1.1 0 0 1-.04-.07c0-.07.03-.13.1-.18.43-.3 1.6-.78 2.06-.33.03.02.07.04.14.05ZM11.54 30.9l.08-.5c0-.02 0-.06-.02-.08l-.3-.45a.16.16 0 0 0-.08-.07c-.13-.04-.2-.12-.21-.23a.8.8 0 0 1 .1-.3c.43-.62 1-1.02 1.74-1.23.07-.02.11 0 .13.07.02.07-.01.14-.1.21-.2.2-.48.41-.45.65.1.6.18 1.17-.17 1.72-.18.27-.42.33-.72.2Z" fill="#499659"/><path d="M11.01 29.57c.01.11.08.19.21.23.04.01.07.04.09.07l.3.45c.01.02.02.06.01.09l-.08.49a.28.28 0 0 0-.05.15c0-.03 0-.04-.03-.04s-.05 0-.07.03c-.14.16-.3.2-.49.12a.17.17 0 0 0-.1-.02.93.93 0 0 1-.82-.24.22.22 0 0 1-.06-.26l.1-.3c0-.14.1-.2.29-.18.03 0 .06 0 .08-.02a.13.13 0 0 0 .05-.07c.02-.05 0-.08-.04-.1.06-.07.08-.16.05-.26.17 0 .33.03.48.1.04.02.06.01.07-.02a.39.39 0 0 0 .01-.22Z" fill="#CA4C45"/><path d="M13.86 32.68c.02-.2.03-.38.02-.55-.02-.27-.3-.35-.55-.44h-.06c-.02.02-.04.02-.06-.01l-.05-.1c-.1-.74.27-1.18.78-1.62a2 2 0 0 1 .8-.38c.24-.05.3.03.15.23-.18.27-.52.37-.42.82.11.5.17.8.16.9 0 .23-.06.5-.15.78-.09.27-.3.39-.62.37ZM11.49 31.05c.26.3.57.56.94.8.04.04.06.1.05.18a.26.26 0 0 0-.03.17c-.08.14-.15.2-.21.16a1.4 1.4 0 0 0-1.15-.81.12.12 0 0 0-.05.02c-.36.27-.66.3-1.21.27-.29-.03-.52-.19-.77-.29a.21.21 0 0 0-.16 0l-.69.34a.07.07 0 0 1-.06 0 .07.07 0 0 1-.03-.06c0-.44.72-1.02 1.07-1.21.09-.05.22-.1.41-.14.16-.03.3-.08.42-.13l-.1.29c-.04.1-.02.19.06.26.24.21.5.3.82.24.03 0 .07 0 .1.02.18.08.35.04.49-.12a.08.08 0 0 1 .07-.03c.02 0 .03.01.03.04ZM16.07 31.85c.14.44.17.89.08 1.34-.23.13-.41.1-.54-.09a.17.17 0 0 0-.22-.05l-.28.15c-.5-.51-.57-1.04-.24-1.59.3-.49.68-.84 1.15-1.06a.42.42 0 0 1 .19-.05.15.15 0 0 1 .13.09.15.15 0 0 1-.02.15l-.31.44c-.12.2-.02.47.06.67Z" fill="#499659"/><path d="m13.16 31.57.05.1c.02.04.04.04.06.02a.07.07 0 0 1 .07 0c.24.09.52.17.54.44 0 .17 0 .35-.02.55.09.29.3.52.65.7l.07-.01a.98.98 0 0 1 .53-.17l.28-.15a.17.17 0 0 1 .22.05c.13.19.3.22.54.09-.02.24.02.45.14.64-.17.22-.24.46-.23.73-.1.1-.22.12-.38.08-.03-.01-.06 0-.07.03-.03.07-.05.15-.11.2-.14.1-.27.11-.39.06a.09.09 0 0 1-.04-.05l-.03-.07a.04.04 0 0 0-.03-.03.05.05 0 0 0-.05.01c-.14.14-.3.17-.47.09a.84.84 0 0 0-.12-.75c.1-.08.15-.16.16-.25a.1.1 0 0 0-.03-.08c-.3-.29-.63-.43-1-.43a.1.1 0 0 1-.1-.06l-.08-.16a.1.1 0 0 0-.13-.04.1.1 0 0 0-.03.04.37.37 0 0 0-.04.17l-.86-.25a.14.14 0 0 1-.09-.1.14.14 0 0 1 .02-.12c.04-.05.04-.1.02-.15.08-.02.09-.14.03-.34.06.04.13-.02.2-.16.14 0 .15-.06.04-.17.01-.08 0-.14-.05-.18.1-.04.18-.12.24-.24a.07.07 0 0 1 .07-.05c.14.01.24.06.28.17.05.14.1.14.15 0v-.16Z" fill="#CA4C45"/><path d="M12.21 32.7c.02.05.02.1-.02.15a.14.14 0 0 0 .07.22l.86.25c.06.1.08.24.05.44.43-.08.82.05 1.2.37.16.22.2.47.12.75-.54.34-1.28.3-1.84.1-.13-.05-.3.02-.42.1-.17.13-.35.25-.54.35-.1 0-.14-.04-.12-.15l.01-.04c.2-.44.48-.78.84-1.04.18-.13.16-.18-.06-.15-.29.04-.63.01-1.02-.09-.3-.07-.48-.06-.71.14-.12.1-.26.18-.43.25a.27.27 0 0 1-.1-.07c.2-.53.54-.96 1.05-1.32.33-.23.69-.31 1.06-.26ZM16.06 34.56c-.02-.27.06-.51.22-.73 0 .28.16.49.48.63a17.5 17.5 0 0 1 .61.32.06.06 0 0 1-.01.06l-.23.29a.08.08 0 0 1-.12 0 1.5 1.5 0 0 0-.95-.57ZM43.3 23.18c.18-.02.27-.08.26-.18l-.4-.33a.12.12 0 0 1-.05-.08c0-.02 0-.06.02-.08.35-.53 0-.99-.32-1.44a.32.32 0 0 1-.04-.27c.06-.21.1-.4.12-.54 0-.06 0-.1-.02-.11a.1.1 0 0 0-.07-.03.12.12 0 0 0-.07.04 2.1 2.1 0 0 0-.7 1.56.06.06 0 0 1-.05.03h-.03c-.42-.21-.74-.44-.95-.7-.09-.1-.1-.09-.06.03a3.5 3.5 0 0 0 .43.89.08.08 0 0 1-.02.06l-.03.02c-.35.15-.66.33-.92.54-.08.06-.12.13-.13.2a.1.1 0 0 0 .08.1.1.1 0 0 0 .05 0 1.5 1.5 0 0 1 1.15.12c.17.1.41.14.73.14.2 0 .34-.13.5-.22a.14.14 0 0 1 .1-.02c.17.03.31.12.41.27ZM43.96 23c.07.07.19.12.37.15.04 0 .06.03.09.05.06.08.13.14.2.17.05.02.08.05.1.1.02.04.02.08 0 .12-.05.15-.09.3-.11.43-.02.08-.1.22-.27.42.2.1.35.24.46.4-.02.1.03.1.14 0 .03-.01.05-.01.08.01.05.06.1.08.18.09l-.49-.66a.19.19 0 0 1-.01-.2c.22-.43.45-.78.42-1.26-.03-.42.06-.81.34-1.07.03-.03.03-.06 0-.09-.06-.07-.14-.09-.22-.05-.45.17-.82.48-1.13.92-.05.08-.1.23-.15.48Z" fill="#499659"/><path d="M43.56 23c.01.1-.08.16-.27.18.08.1.1.2.07.29a.12.12 0 0 1-.06.07l-.14.07c.05.01.06.08.03.2v.1c.08.17.11.4.29.5.12.08.3.13.5.15.12 0 .24-.04.36-.12.17-.2.25-.34.27-.42.02-.14.06-.28.11-.43a.17.17 0 0 0 0-.13.18.18 0 0 0-.1-.09.58.58 0 0 1-.2-.17.14.14 0 0 0-.09-.05c-.18-.03-.3-.08-.37-.14.02.1 0 .16-.05.19-.03.02-.06.01-.1 0l-.25-.2Z" fill="#CA4C45"/><path d="M43.16 23.61c-.28.04-.56.16-.82.36-.34.25-.74.6-.72 1l.01.01.02.01a.04.04 0 0 0 .04 0c.2-.15.44-.23.7-.25l.58.05c.35.03.69-.04 1.02-.23a1.23 1.23 0 0 1-.51-.15c-.18-.1-.21-.33-.28-.5a.16.16 0 0 1-.01-.1c.03-.12.02-.19-.03-.2ZM45.88 24.93c.04.08.1.12.2.13a.15.15 0 0 1 .1.05.15.15 0 0 1 .04.1l-.05.57c0 .03-.02.05-.03.07l-.17.2a.25.25 0 0 0-.05.09.5.5 0 0 1-.26.33l.02.5a.05.05 0 0 1-.03.05.05.05 0 0 1-.05-.01c-.26-.26-.65-.4-1-.44a2.66 2.66 0 0 1-.36-.06 1.67 1.67 0 0 0-1.04.18.07.07 0 0 0-.02.05l.01.03c.02.02.04.04.08.05.42.1.75.11.9.5.2.49.56 1.12 1.1 1.18-.1-.23-.27-.93.04-1.08l.23-.08a.92.92 0 0 0 .21-.1.99.99 0 0 1 .25-.11l-.04-.85c0-.03.01-.07.03-.1a.15.15 0 0 1 .09-.05c.4-.11.69-.38.87-.76.14-.3.43-.7.65-.76.36-.11.35-.2-.03-.24-.6-.07-1.17.12-1.7.56Z" fill="#499659"/><path d="M44.8 24.85c-.03.43-.07.6-.15.48-.06.35 0 .65.16.91a.18.18 0 0 0 .18.08c.19-.03.37-.02.54.03.03 0 0 .02-.09.06.1-.01.18.01.23.06a.5.5 0 0 0 .25-.33l.05-.09.17-.2a.11.11 0 0 0 .03-.07l.05-.56a.15.15 0 0 0-.08-.15.15.15 0 0 0-.06-.01.22.22 0 0 1-.2-.13c-.2-.16-.39-.13-.57.1-.02.04-.06 0-.11-.09a.28.28 0 0 1-.18-.09c-.03-.02-.05-.02-.08 0-.1.1-.15.1-.14 0Z" fill="#CA4C45"/><path d="M45.44 26.4c.1-.03.13-.05.1-.05a1.38 1.38 0 0 0-.55-.03.19.19 0 0 1-.18-.08 1.23 1.23 0 0 1-.16-.9c-.54-.27-1.16-.24-1.86.07a.48.48 0 0 0-.18.14.07.07 0 0 0 .06.12c.54-.04.83.22 1.37.59.2.13.4.19.63.18.26-.01.52-.01.77-.03Z" fill="#499659"/><path d="M46 27.13a.98.98 0 0 0-.25.1c-.09.06-.16.1-.21.11l-.23.08c-.31.15-.14.85-.03 1.08.07.03.18.05.32.05.3.06.58.01.83-.13.18-.1.3-.28.45-.42.03-.02.03-.05.01-.09l-.25-.4c-.1-.13-.24-.17-.43-.14-.03 0-.06-.01-.08-.04l-.13-.2Z" fill="#CA4C45"/><path d="m46.64 27.5.25.41c.02.04.02.07-.01.1-.15.13-.27.32-.45.41-.25.14-.53.19-.83.13a.9.9 0 0 1-.17.71c-.03.11 0 .2.05.26a.5.5 0 0 0 .24.02c.01 0 .03 0 .04-.02l.02-.03.23-.65a.2.2 0 0 1 .19-.13.2.2 0 0 1 .08.01c.19.09.34.17.57.1.29-.09.46-.15.51-.2.26-.19.48-.38.67-.59a.31.31 0 0 1 .29-.09l.5.1a.1.1 0 0 0 .08-.01.1.1 0 0 0 .04-.07c0-.08-.04-.14-.1-.18-.43-.3-1.6-.78-2.06-.33a.28.28 0 0 1-.14.05ZM44.34 30.46l-.08-.5c0-.03 0-.06.02-.08l.3-.45a.16.16 0 0 1 .08-.07c.13-.04.2-.12.2-.23a.8.8 0 0 0-.1-.31c-.42-.61-1-1.02-1.74-1.22-.06-.02-.1 0-.12.07-.02.07.01.14.09.21.2.2.5.41.46.65-.1.6-.18 1.17.17 1.72.18.26.41.33.72.2Z" fill="#499659"/><path d="M44.87 29.13c-.01.11-.08.19-.21.23a.16.16 0 0 0-.09.07l-.3.45a.13.13 0 0 0-.01.08l.08.5c.03.03.04.08.05.14 0-.02 0-.03.03-.04.03 0 .05.01.07.03.14.17.3.21.49.12a.17.17 0 0 1 .1-.01c.31.05.58-.03.81-.24.09-.07.1-.16.07-.27a6.7 6.7 0 0 1-.1-.28c0-.15-.1-.21-.29-.2-.03.01-.06 0-.08-.01a.13.13 0 0 1-.06-.07c-.01-.05 0-.09.05-.11-.06-.06-.08-.15-.05-.26-.17 0-.33.04-.48.11-.04.02-.06 0-.07-.03a.39.39 0 0 1-.01-.21Z" fill="#CA4C45"/><path d="M42.02 32.24c-.02-.2-.03-.38-.02-.55.02-.27.3-.35.54-.45l.07.01c.02.02.04.01.06-.01l.05-.11c.1-.73-.27-1.17-.78-1.62a2 2 0 0 0-.8-.38c-.24-.04-.3.03-.15.24.18.26.52.36.42.82-.11.5-.17.8-.16.9 0 .23.06.5.15.78.08.27.29.39.62.37ZM44.4 30.6c-.27.3-.58.57-.95.8-.04.04-.06.1-.05.19.03.06.04.11.03.17.08.14.15.2.21.16a1.4 1.4 0 0 1 1.15-.82l.05.02c.36.28.66.31 1.21.27.29-.02.51-.18.77-.28a.21.21 0 0 1 .16 0l.69.34a.07.07 0 0 0 .06 0 .07.07 0 0 0 .03-.06c0-.44-.73-1.02-1.07-1.21-.09-.05-.23-.1-.41-.14-.16-.04-.3-.08-.42-.13l.1.28c.04.1.02.2-.06.27-.24.2-.5.29-.82.24l-.1.01c-.19.1-.35.05-.49-.12a.08.08 0 0 0-.07-.03c-.03 0-.04.02-.03.04ZM39.8 31.4c-.13.45-.16.9-.07 1.34.23.14.41.1.54-.08a.17.17 0 0 1 .22-.05l.28.15c.49-.52.57-1.04.24-1.59-.3-.49-.68-.84-1.15-1.06a.42.42 0 0 0-.2-.05.15.15 0 0 0-.12.09.15.15 0 0 0 .02.15l.31.44c.12.2.02.47-.06.67Z" fill="#499659"/><path d="m42.72 31.13-.06.1c0 .03-.03.04-.05.02a.07.07 0 0 0-.07 0c-.24.09-.52.17-.54.44-.01.17 0 .35.02.55-.09.29-.3.52-.65.69a.07.07 0 0 1-.07 0 .98.98 0 0 0-.53-.17l-.28-.16a.17.17 0 0 0-.22.06c-.13.19-.3.22-.54.08.02.24-.02.46-.14.65.17.21.24.46.23.73.1.1.22.12.38.08.03-.02.06 0 .07.03.03.07.05.15.1.2.15.09.28.11.4.06a.1.1 0 0 0 .04-.05l.03-.07a.04.04 0 0 1 .03-.03.05.05 0 0 1 .04 0c.15.15.3.18.47.1a.84.84 0 0 1 .13-.75c-.1-.09-.15-.17-.16-.25 0-.03 0-.06.03-.09.3-.28.63-.42 1-.42a.1.1 0 0 0 .1-.06l.08-.16a.1.1 0 0 1 .13-.04.1.1 0 0 1 .03.04c.03.03.04.1.04.17l.86-.26a.14.14 0 0 0 .09-.09.14.14 0 0 0-.02-.12.15.15 0 0 1-.02-.15c-.08-.02-.1-.14-.03-.34-.06.03-.13-.02-.2-.16-.14 0-.15-.06-.04-.17-.01-.08 0-.15.05-.18a.42.42 0 0 1-.24-.24.07.07 0 0 0-.08-.05c-.14 0-.23.06-.27.17-.05.14-.1.14-.15 0v-.16Z" fill="#CA4C45"/><path d="M43.67 32.26c-.02.05-.02.1.02.15a.14.14 0 0 1-.07.21l-.86.26c-.06.1-.08.24-.05.43v.01c-.43-.08-.82.04-1.2.37a.84.84 0 0 0-.13.75c.55.34 1.29.3 1.85.1.13-.05.3.01.42.1.17.13.35.25.54.35.1 0 .14-.05.12-.15 0-.02 0-.03-.02-.05-.2-.43-.47-.77-.83-1.04-.18-.12-.16-.17.06-.14.29.04.63 0 1.01-.09.31-.08.49-.06.72.14.12.1.26.18.43.25a.26.26 0 0 0 .1-.07c-.2-.53-.54-.97-1.05-1.32a1.45 1.45 0 0 0-1.06-.26ZM39.82 34.12c.01-.27-.06-.52-.23-.73 0 .28-.15.49-.47.63a17.28 17.28 0 0 0-.61.32.06.06 0 0 0 .01.06l.23.28a.08.08 0 0 0 .12 0c.24-.3.56-.5.95-.56Z" fill="#499659"/><path d="M20.1 36.95c.28.21.62.06.77-.21.1-.2.21-.5.32-.89.02-.06.07-.1.16-.14h.04c.1.01.16.06.15.15l-.07.96c0 .33-.83.48-1.09.47-1.93-.03-2.59-2.23-1.74-3.68.3-.5.71-.82 1.26-.94.5-.12 1.14-.14 1.52.2.03.02.04.05.04.09v.91c0 .04-.02.06-.05.07-.13.03-.21.01-.25-.05a6.83 6.83 0 0 1-.3-.64c-.33-.78-.88-.35-1.15.15-.5.91-.53 2.88.38 3.55ZM27.12 34.59c-.09.74-.1 1.49-.06 2.22 0 .03.02.05.04.06.02.02.03.02.04 0 0 .08.02.14.06.2a.13.13 0 0 0 .1.05h.1c.15.11.13.17-.06.17H25.9v-.02c-.04-.07-.03-.1.02-.12.1-.01.2-.06.3-.13.1-.8.1-1.59.02-2.4 0-.04-.04-.05-.11-.02l-.22-.09a.05.05 0 0 1-.03-.05.05.05 0 0 1 .03-.05l.23-.1a.14.14 0 0 0 .07-.07c.07-.17.08-.48.17-.7.23-.5.62-.79 1.15-.85.2-.03.4.03.6.16.02 0 .03.02.04.04v.05l-.13.56c0 .03-.02.06-.05.08a.17.17 0 0 1-.09.04c-.26.04-.29-.36-.3-.56a.16.16 0 0 0-.13-.14h-.07c-.1.01-.18.1-.2.28-.07.28-.1.62-.1 1 0 .03.02.06.04.08a.1.1 0 0 0 .07.03h1.2a.08.08 0 0 0 .09-.07c.07-.73.38-1.34 1.14-1.52a1 1 0 0 1 .68.06c.1.04.13.11.11.21l-.12.54-.02.03-.04.03a.25.25 0 0 1-.23-.03.13.13 0 0 1-.06-.09c-.03-.2-.08-.37-.16-.5a.13.13 0 0 0-.1-.07.13.13 0 0 0-.11.04c-.27.29-.2.93-.2 1.31 0 .02 0 .04.02.05l.05.02h.47a.1.1 0 0 1 .1.1v.06c0 .05-.03.07-.08.07h-.45a.11.11 0 0 0-.08.03.11.11 0 0 0-.03.08v2.36l.04.03.3.14c.03.02.03.04 0 .06l-.05.04-.02.01h-1.4a.15.15 0 0 1-.12-.05l-.02-.02v-.04a.03.03 0 0 1 .02-.02c.25-.02.38-.15.38-.4a329.03 329.03 0 0 0-.01-2.15.1.1 0 0 0-.1-.06l-1.3.03Z" fill="#353436"/><path fill-rule="evenodd" d="M22.6 35.29a1.4 1.4 0 0 0 1.63.36c.19-.08.36-.2.5-.35a1.63 1.63 0 0 0 .44-1.14c0-.43-.15-.85-.43-1.15a1.4 1.4 0 0 0-1.63-.36c-.19.08-.35.2-.5.35a1.63 1.63 0 0 0-.44 1.14c0 .43.15.84.43 1.15Zm.86.2c.07.08.14.11.21.11.14 0 .28-.14.39-.41a3.59 3.59 0 0 0 .02-2.03.98.98 0 0 0-.17-.32c-.07-.07-.14-.11-.2-.11-.15 0-.3.15-.4.41a3.59 3.59 0 0 0-.02 2.03c.05.14.1.25.17.32ZM32.94 35.4c-.71.04-1-.74-.92-1.33 0-.04.03-.07.08-.07h1.47a.2.2 0 0 0 .14-.06.2.2 0 0 0 .06-.14c-.04-.8-.59-1.23-1.36-1.18-1.19.08-1.68 1.35-1.26 2.34.42.98 1.69 1.22 2.4.39.09-.11.15-.23.17-.35 0-.05-.02-.08-.08-.08a.08.08 0 0 0-.07.04c-.12.2-.38.44-.63.45Zm-.5-2.65a.2.2 0 0 0-.1.1l-.36.62a.19.19 0 0 0 .08.26l.06.03c.13.07.29.09.43.05a.54.54 0 0 0 .33-.26v-.01a.53.53 0 0 0 .04-.41.57.57 0 0 0-.27-.33l-.06-.03a.2.2 0 0 0-.14-.02ZM35.69 35.2c-.27-.3-.39-.67-.36-1.12 0-.05.03-.08.08-.08h1.4c.1 0 .15-.04.14-.14v-.15c-.01-.15-.02-.33-.08-.46-.43-.87-1.64-.8-2.14-.07-.51.76-.44 1.87.33 2.43.68.49 1.56.2 1.87-.56a.08.08 0 0 0-.01-.09l-.04-.04c-.03-.04-.06-.04-.09.02-.19.45-.73.67-1.1.26Zm.02-2.42a.18.18 0 0 0-.1.1l-.29.63a.18.18 0 0 0 .04.2l.05.04.08.03a.51.51 0 0 0 .68-.26l.01-.04a.5.5 0 0 0-.25-.66l-.08-.04a.19.19 0 0 0-.14 0Z" fill="#353436"/><path d="m32.13 22.24-.15.24c-.06.2-.13.2-.2 0a.74.74 0 0 1-.02-.1.14.14 0 0 0-.05-.08.12.12 0 0 0-.1-.02.09.09 0 0 0-.07.06l-.04.13a.13.13 0 0 1-.07.07.23.23 0 0 1-.1.02h-.05a.08.08 0 0 1-.03-.04l-.1-.26a.1.1 0 0 0-.08-.05.1.1 0 0 0-.09.04l-.15.27c-.08.14-.15.13-.2-.02a1.34 1.34 0 0 0-.18-.28c-.04-.05-.06-.04-.08.02l-.04.23c0 .03-.03.05-.06.06-.15.03-.2-.11-.26-.23l-.04-.08a.07.07 0 0 0-.06-.03.07.07 0 0 0-.05.03l-.1.2c-.02.03-.04.05-.07.06a.1.1 0 0 1-.06 0 .06.06 0 0 1-.03-.03.06.06 0 0 1-.01-.04l.08-.89c0-.05.04-.09.1-.1a6.1 6.1 0 0 1 3.3.01l.02.05.05.9c0 .16-.04.18-.16.05l-.22-.24c-.02-.03-.05-.02-.07.01-.07.1-.12.2-.15.31 0 .04-.03.05-.07.04-.09-.02-.16-.11-.21-.3-.03-.1-.07-.1-.13 0Z" fill="#824645"/><path d="M33.23 23.45c.13.65.36 1.3.7 1.96.46.94.94 1.83 1.43 2.67.01.03.03.07.03.11 0 .04 0 .09-.02.13l-.2.57c-.03.06-.05.06-.08 0l-.48-.98a.08.08 0 0 0-.14 0l-.42.92c-.08.18-.14.17-.19-.02a6.05 6.05 0 0 0-.32-.92l-.02-.01h-.03l-.02.02-.52.98c-.05.08-.08.08-.12 0l-.4-.96a.07.07 0 0 0-.1-.04.07.07 0 0 0-.03.03l-.53.93c-.01.03-.04.04-.06.02a.49.49 0 0 1-.15-.21l-.29-.74a.07.07 0 0 0-.06-.04h-.04a.07.07 0 0 0-.03.04l-.06.13c-.03.06-.06.06-.1 0a89.92 89.92 0 0 1-1.35-4.05c-.04-.2-.07-.51-.07-.95 0-.23.08-.32.22-.47h.01c.1-.1.17-.1.23.02l.15.31a.08.08 0 0 0 .09.04.08.08 0 0 0 .06-.08v-.2c0-.15.06-.17.17-.08.07.06.13.16.19.28a.08.08 0 0 0 .07.05.08.08 0 0 0 .07-.04l.14-.3a.09.09 0 0 1 .08-.06.1.1 0 0 1 .09.05l.13.27a.1.1 0 0 0 .1.06.1.1 0 0 0 .08-.06l.12-.24a.07.07 0 0 1 .06-.04.07.07 0 0 1 .06.04l.15.3a.07.07 0 0 0 .07.04h.03l.03-.03.17-.36a.06.06 0 0 1 .11 0l.14.29c.05.1.1.1.14 0l.17-.35a.09.09 0 0 1 .06-.05.09.09 0 0 1 .08.03l.29.28c.02.02.04.05.04.09l.07.62ZM28.91 27.9l.02.02.46.92a.05.05 0 0 0 .04.03.05.05 0 0 0 .05-.03l.42-.87.01-.02a.05.05 0 0 1 .06 0l.02.02.51.92c.05.08.1.08.14 0l.07-.15a.31.31 0 0 0 0-.27c-.53-1.17-.9-2.4-1.11-3.69-.04-.26-.07-.26-.1 0v.2c-.03.36-.05.63-.15.94-.26.8-.55 1.58-.88 2.35-.13.3-.1.32.1.06a3.62 3.62 0 0 0 .28-.43.06.06 0 0 1 .06 0Z" fill="#824645"/><path d="m31.44 28.79.2.45a.06.06 0 0 0 .05.04.06.06 0 0 0 .05-.03l.52-.9c.06-.11.12-.1.16 0l.4.93c0 .01 0 .02.02.03a.08.08 0 0 0 .13-.03l.45-.94a.05.05 0 0 1 .05-.03.05.05 0 0 1 .04.03l.38 1.07.01.01a.04.04 0 0 0 .04 0h.02l.54-1.15.02-.02a.04.04 0 0 1 .05.02l.5 1c.08.16.13.15.17-.02.06-.26.17-.5.34-.73l.98 2.56c.04.11 0 .18-.11.22-1.1.3-1.94.48-2.52.55-.67.09-1.32.08-1.96-.03a.14.14 0 0 1-.09-.05.14.14 0 0 1-.03-.08l-.05-1.25a4.86 4.86 0 0 0-.58-1.78c-.06-.13-.1-.27-.1-.4 0-.05 0-.05.03-.02.13.15.22.34.29.55ZM31.44 31.26a6.9 6.9 0 0 0-.54-2.35.56.56 0 0 0-.27.33l-.03.03a.08.08 0 0 1-.12-.03l-.43-.87a.06.06 0 0 0-.03-.03.06.06 0 0 0-.06 0 .06.06 0 0 0-.03.03l-.4.86c-.05.1-.1.1-.15 0l-.45-.9c-.04-.08-.09-.09-.14 0l-.54.82c-.19.31-.3.7-.43 1.1l-.11.38a.21.21 0 0 0 .08.24c.65.43 1.36.81 2.13.86.54.03 1.06-.02 1.45-.32a.18.18 0 0 0 .07-.15Z" fill="#824645"/><path d="M18.85 31.47v-9.7h4.53c3.93.16 3.12 3.76 3.06 5.47-.04 1.36.22 3.39.35 4.23h-2.03c-.35-3.11-1.3-3.8-1.74-3.75-.19 3.56-2.86 3.98-4.17 3.75Z" fill="url(#b)"/><ellipse cx="23.78" cy="24.92" rx=".43" ry=".37" fill="#464646"/><path d="M39.8 21.18c-9.82-4.38-20.26-2.1-24.23-.42l-.42-.96c4.14-1.76 14.92-4.1 25.1.43l-.45.95Z" fill="#CA4C45"/><defs><linearGradient id="a" x1="8.3" y1="22.09" x2="47.61" y2="33.58" gradientUnits="userSpaceOnUse"><stop stop-color="#FFC82C"/><stop offset=".51" stop-color="#FFF8F5"/><stop offset="1" stop-color="#FECB2D"/></linearGradient><linearGradient id="b" x1="19.98" y1="24.73" x2="25.39" y2="29.24" gradientUnits="userSpaceOnUse"><stop stop-color="#fff"/><stop offset="1" stop-color="#FDF9ED"/></linearGradient></defs></svg>