<!-- by TradingView --><svg width="56" height="56" viewBox="0 0 56 56" xmlns="http://www.w3.org/2000/svg"><path fill="#F0F3FA" d="M0 0h56v56H0z"/><path d="M42.5 31h-29c2.18 2.2 7.42 6 14.45 6 7.59 0 12.77-3.95 14.55-6Z" fill="#D82E21"/><path d="M12 27.33a8.5 8.5 0 0 0-1 3.96c0 1.4.35 2.73 1 3.97v-7.93Zm.65 9V26.25c.22-.3.45-.61.7-.9v11.89c-.25-.3-.48-.6-.7-.9ZM14 37.94l.7.65v-6.42l-.7-.61v6.38Zm0-7.43c.21-.2.44-.43.7-.66V24l-.7.66v5.86Zm1.36-7.04v5.84c.22-.17.45-.35.7-.52v-5.83c-.24.16-.48.33-.7.5Zm.7-5.6-.7-1.1V15h.7v2.86Zm.65 4.67v5.8l.7-.43v-5.78l-.7.41Zm.7-2.56-.7-1.1V15h.7v4.98Zm.65 1.81v5.75l.7-.37v-5.08l-.3-.49.3-.14V15h-.7v6l.4.6-.4.2ZM19.42 15v6.19c.23-.1.46-.19.7-.27V15h-.7Zm1.35 0v5.7l.7-.22V15h-.7Zm1.35 0v5.3l.7-.16V15h-.7Zm1.35 0v5l.7-.12V15h-.7Zm1.36 0v4.79l.57-.07V15h-.57ZM26 15v4.66a24.84 24.84 0 0 1 4 0V15h-4Zm4.65 0v4.73l.52.06V15h-.52Zm1.17 0v4.88l.7.12v-5h-.7Zm1.36 0v5.14l.7.16V15h-.7Zm1.35 0v5.48l.7.21V15h-.7Zm1.35 0v5.92c.24.08.47.17.7.27V15h-.7Zm1.36 0v6.46l.38.18-.38.6v4.98l.7.37v-5.8l-.32-.15.32-.5V15h-.7Zm1.35 0v5.12l.7-1.1V15h-.7Zm1.35 0v3l.7-1.1V15h-.7Zm1.35 0v.87l.56-.87h-.56Zm-.65 8.47c-.22-.18-.46-.35-.7-.51v5.87c.25.17.48.35.7.52v-5.88Zm.65 6.41v-5.89c.25.22.48.43.7.66v5.87c-.2-.2-.44-.42-.7-.64Zm-.65 2.78-.7.5v6.47l.7-.51v-6.46Zm.65 5.93v-6.44c.26-.21.5-.41.7-.6v6.39c-.22.22-.45.44-.7.65Zm1.36-1.35c.25-.3.48-.6.7-.9V26.24c-.22-.3-.45-.61-.7-.9v11.89ZM44 27.33v7.93a8.5 8.5 0 0 0 1-3.97 8.5 8.5 0 0 0-1-3.96Zm-4.7 12.72v-6.47l-.71.43v6.44l.7-.4Zm-1.36.74v-6.42l-.7.36v6.4l.7-.34Zm-1.36.61v-6.36l-.7.31v6.32l.7-.27Zm-1.35.5V35.6l-.7.26v6.24l.7-.22Zm-1.35.38v-6.2l-.7.2v6.17l.7-.17Zm-1.35.3v-6.13l-.7.15v6.1l.7-.12Zm-1.36.22v-6.08l-.52.09v6.05l.52-.06Zm-1.17.12v-6.03a19.35 19.35 0 0 1-4 .01v6.02a24.84 24.84 0 0 0 4 0Zm-4.6-.06v-6.03l-.57-.08v6.05l.57.06Zm-1.22-.16v-6.07c-.24-.04-.48-.1-.7-.15v6.1c.23.04.46.09.7.12Zm-1.36-.25v-6.13l-.7-.2v6.16l.7.17Zm-1.35-.34v-6.2a21.8 21.8 0 0 1-.7-.25v6.23l.7.22Zm-1.35-.44V35.4l-.7-.3v6.3c.23.1.46.18.7.27Zm-1.36-.55v-6.34a22.5 22.5 0 0 1-.7-.36v6.37c.23.12.47.23.7.33Zm-1.35-.67v-6.4c-.24-.14-.48-.28-.7-.43v6.43l.7.4Zm-1.35-.82v-6.44l-.7-.5v6.43c.22.17.46.34.7.5Zm3.36-12.77.7-.3V24.2l-.7-1.1v3.75Zm1.35-1.64v1.08l.56-.2.14.22v-.27l-.14.05-.56-.88Zm1.35.62v1.5l.7 1.1v-2.8l-.7.2Zm1.35-.35v3.96l.7 1.1v-5.2l-.7.14Zm1.36-.25v6.32l.57.9v-7.3l-.57.08Zm1.17-.15v8.3l2.07 3.24L30 33.6v-8.5a20.45 20.45 0 0 0-4-.01Zm4.65.1v7.39l.52-.82v-6.5a20.7 20.7 0 0 0-.52-.08Zm1.17.19v5.35l.7-1.1v-4.1c-.22-.06-.46-.1-.7-.15Zm1.36.3v2.93l.7-1.1v-1.63l-.7-.2Zm1.35.41v.4l.2-.33.5.18v-.95l-.5.77-.2-.07Zm1.35-1.73v2.24l.7.3v-3.64l-.7 1.1Zm2.7 3.6c.25.14.49.28.71.43v-5.85c-.23-.14-.46-.28-.7-.4v5.82ZM14.72 15v.75l-.48-.75h.48Z"/></svg>