<!-- by TradingView --><svg width="56" height="56" viewBox="0 0 56 56" xmlns="http://www.w3.org/2000/svg"><path fill="#F0F3FA" d="M0 0h56v56H0z"/><path d="M28.95 12a16.3 16.3 0 0 1 11.61 6.1 15.83 15.83 0 0 1 3.19 12.68 15.89 15.89 0 0 1-8.84 11.64 16.02 16.02 0 0 1-15.66-1.03A16.01 16.01 0 0 1 27 12h1.94Z" fill="#238FD1"/><path d="M43.59 28a15.45 15.45 0 0 1-4.57 11.02A15.47 15.47 0 0 1 28 43.6a15.45 15.45 0 0 1-11.03-4.57A15.47 15.47 0 0 1 12.41 28a15.45 15.45 0 0 1 4.56-11.02A15.47 15.47 0 0 1 28 12.4a15.45 15.45 0 0 1 11.02 4.57A15.47 15.47 0 0 1 43.6 28Z" fill="#F0F3FA"/><path d="M25.34 13.88a.15.15 0 0 1 .13-.02c.04.01.07.04.08.07.04.09.02.1-.07.07-.13-.05-.26-.04-.41.04h-.05v-.05c.08-.13.13-.26.15-.4.01-.05.05-.09.11-.1l.19-.02c.08-.01.1.01.04.08l-.2.23a.06.06 0 0 0-.02.05c0 .02.02.04.03.05h.02ZM31.63 14.2c-.01.02-.02.01-.03 0v-.01c-.08-.14-.04-.26.14-.36l.03-.02c.17-.1.3-.07.38.07v.04l-.52.29ZM26.38 14.15c-.06-.06-.1-.08-.11-.08-.2-.02-.2-.03.02-.05L27 14c.11 0 .12.02.02.07l-.09.04c-.05.03-.07.07-.06.13l.16 1.26c.02.21.13.31.32.31h.14c.26-.1.38-.27.36-.52l-.08-1.07a.2.2 0 0 0-.07-.14l-.09-.08c-.06-.05-.05-.08.02-.08l.37-.01c.08 0 .09.02.04.08l-.07.08a.2.2 0 0 0-.05.15l.07 1c.03.43-.17.68-.6.73l-.1.01c-.44.06-.69-.13-.74-.57l-.15-1.2-.02-.03ZM30.16 14.15l.04-.01c.06-.02.09 0 .08.06a10.9 10.9 0 0 1-.08.48.05.05 0 0 1-.04.01c-.02 0-.04-.01-.04-.03-.01-.2-.12-.37-.32-.51-.11-.08-.23-.08-.35 0l-.04.03a.19.19 0 0 0-.09.16c0 .07.02.14.08.19l.25.2c.23.16.38.3.46.4.12.18.14.38.04.6-.08.16-.26.27-.54.31a.68.68 0 0 1-.35-.08.7.7 0 0 0-.38-.08c-.07.01-.1-.01-.1-.08l.04-.38c.04-.25.1-.25.15 0 .04.19.15.34.34.45.2.12.37.09.5-.11.09-.13.07-.24-.05-.33l-.17-.13a2.42 2.42 0 0 1-.53-.5c-.14-.2-.12-.4.05-.6.24-.28.54-.3.92-.06.04.03.08.03.13.01ZM25.32 15.28l.07.6c.01.06.05.1.11.1.4.03.66-.13.77-.49.04-.12.07-.11.1 0v.43c0 .07-.04.1-.1.11l-1.36.18c-.07 0-.08-.02-.04-.07l.04-.04a.12.12 0 0 0 .03-.1l-.23-1.47c-.01-.06-.04-.1-.1-.12l-.09-.04c-.07-.02-.06-.04.01-.06l1.38-.22c.07 0 .11.02.12.09l.05.36c0 .06 0 .07-.05.02-.2-.27-.46-.35-.79-.22-.05.01-.07.05-.06.1l.08.62c0 .08.04.1.1.05a.5.5 0 0 0 .24-.48c0-.03.01-.04.04-.02l.05.01v.01l.15.93c0 .01 0 .02-.02.03H25.76c-.04-.21-.16-.34-.35-.4-.07-.01-.1.01-.1.1ZM31.28 15.78l-.42-.17a.15.15 0 0 0-.16.02.52.52 0 0 0-.18.23c-.02.05-.01.1.03.15.04.05.07.08.06.1-.01.04-.03.05-.07.03l-.3-.13c-.05-.01-.05-.04-.02-.07l1.27-1.43c.1-.12.17-.1.19.06l.24 1.91c0 .04-.01.05-.04.04l-.57-.17c-.08-.02-.08-.05-.01-.1.12-.07.15-.2.07-.37a.17.17 0 0 0-.09-.1ZM24.61 16.36l-.82.28c-.06.02-.07 0-.03-.04a.4.4 0 0 0 .07-.12.2.2 0 0 0 0-.12l-.45-1.4a.16.16 0 0 0-.09-.1l-.07-.04c-.07-.02-.06-.05 0-.07a13.52 13.52 0 0 0 .72-.21c.04 0 .05.01 0 .04-.09.06-.13.13-.11.2.02.1.16.55.43 1.37.03.08.07.14.12.17.07.04.15.05.24.03ZM33.92 16.4c.03.13.07.13.13.01l.3-.68a.16.16 0 0 0-.02-.17l-.04-.04c-.05-.08-.03-.1.05-.08.13.04.24.1.34.16.06.04.05.07-.01.08l-.08.02a.17.17 0 0 0-.13.1l-.68 1.43c-.06.11-.1.1-.13-.02l-.45-1.83c0-.02 0-.03-.02-.03s-.03 0-.04.02l-.5 1.14c-.02.05-.01.1.01.13l.06.1c.06.08.05.1-.05.06l-.36-.16c-.1-.04-.1-.08.01-.1l.1-.03a.17.17 0 0 0 .12-.09l.55-1.15c.05-.09.06-.16.04-.21a.47.47 0 0 0-.07-.13c-.08-.1-.06-.12.08-.06l.4.19c.05.02.08.06.1.11l.29 1.23ZM22.8 15.93c.21.39.33.6.36.63.04.07.09.1.13.1h.05c.13-.01.13.01.02.08l-.55.32c-.1.05-.12.03-.08-.06l.03-.08a.12.12 0 0 0 0-.11l-.32-.54c-.02-.04-.04-.05-.08-.03l-.5.3c-.03.01-.04.03-.02.05l.31.55c.03.05.08.08.14.08h.06c.07 0 .08.02.01.06l-.6.35c-.1.06-.12.04-.05-.07l.04-.06c0-.01 0-.06-.03-.15a17.14 17.14 0 0 0-.8-1.38h-.08c-.13 0-.13-.03-.02-.08l.61-.32c.07-.03.08-.02.04.05l-.03.05a.15.15 0 0 0 0 .15l.29.57c0 .02.03.03.05.02l.52-.27c.04-.02.05-.05.03-.08l-.29-.56a.13.13 0 0 0-.09-.07l-.08-.01c-.1-.02-.1-.05-.01-.1l.57-.3c.12-.05.13-.03.05.07l-.03.04c-.02.03-.02.09.02.17l.33.63Z" fill="#0B6995"/><path d="M31.34 15.62c0 .04-.01.05-.05.04l-.39-.17c-.06-.02-.07-.06-.02-.1l.3-.35c.01-.01.03-.02.05-.01.02 0 .04.02.04.04l.07.55Z" fill="#F0F3FA"/><path d="M35.35 17.47a.48.48 0 0 1-.06-.1c-.02-.05 0-.06.06-.03.2.12.38.25.57.38.06.04.05.07-.02.08-.17.03-.3.16-.36.39-.02.05-.06.07-.12.06-.54-.12-.9-.33-1.1-.65a1 1 0 0 1-.13-.82.95.95 0 0 1 .46-.57c.24-.14.49-.18.75-.13.3.05.54.2.74.48.05.06.1.1.13.12l.09.01c.1 0 .12.04.06.12l-.22.32c-.09.13-.12.12-.1-.04a.77.77 0 0 0-.22-.63c-.18-.2-.4-.24-.63-.13-.3.13-.52.38-.65.74-.13.39-.04.68.3.87.07.05.14.04.2-.03l.24-.26c.05-.06.05-.12 0-.18ZM20.4 16.23a.13.13 0 0 0 .09-.09l.01-.04.05-.04c.03 0 .04.01.06.03l.21.34c.12.19.09.21-.1.08-.18-.15-.38-.17-.58-.07a.59.59 0 0 0-.35.64c.03.26.15.5.37.7.22.23.44.32.66.27.25-.04.43-.27.54-.69 0-.04.02-.04.04 0l.05.1v.03a1.1 1.1 0 0 1-1.08.84.92.92 0 0 1-.62-.23.98.98 0 0 1-.32-.68c-.06-.61.27-1 .96-1.2Z" fill="#0B6995"/><path d="M39.03 28a10.94 10.94 0 0 1-3.23 7.8 10.92 10.92 0 0 1-7.8 3.24 10.94 10.94 0 0 1-7.8-3.23 10.92 10.92 0 0 1-3.24-7.8 10.94 10.94 0 0 1 3.23-7.8 10.92 10.92 0 0 1 7.8-3.24 10.94 10.94 0 0 1 7.81 3.23 10.92 10.92 0 0 1 3.23 7.8Z" fill="#4BC9F6"/><path d="M38.5 18.76c.01.04.05.07.1.08h.03c.03.01.04.03.05.05 0 .02 0 .04-.02.06l-.31.26c-.17.14-.2.11-.09-.08.12-.21.11-.4-.02-.6a.59.59 0 0 0-.67-.25c-.26.06-.47.22-.65.46-.2.25-.25.48-.18.69.08.25.34.4.76.44.04 0 .05.02.01.04l-.09.07h-.03a1.1 1.1 0 0 1-.68-.33 1.09 1.09 0 0 1-.3-.62.92.92 0 0 1 .13-.65.98.98 0 0 1 .64-.42c.6-.13 1.03.13 1.31.8ZM18.57 19.04c-.05.05-.05.1 0 .15l.4.38c.04.04.08.05.14.03l.1-.03c.1-.04.12-.02.04.06l-.5.52c-.08.09-.1.07-.06-.04l.02-.05a.1.1 0 0 0-.02-.12l-1.08-1.05a.16.16 0 0 0-.12-.04c-.02 0-.05 0-.09.02-.07.02-.09 0-.04-.06a3 3 0 0 1 .7-.73c.2-.14.38-.16.56-.07.18.1.27.26.26.5 0 .16-.11.33-.31.53Z" fill="#0B6995"/><path d="M17.84 18.5c-.02-.02-.02-.04 0-.06l.02-.02a.37.37 0 0 1 .26-.11c.1 0 .2.03.27.1l.07.07c.07.07.11.16.11.26s-.03.2-.1.27l-.02.02c-.02.02-.04.02-.06 0l-.55-.53Z" fill="#F0F3FA"/><path d="M17.04 19.17v-.04c0-.03 0-.04.03-.05.02-.02.04-.01.06 0l.32.24c.18.14.16.17-.06.1-.23-.06-.42-.01-.57.16a.59.59 0 0 0-.1.71c.12.24.32.41.6.54.29.12.52.13.71 0 .22-.13.3-.4.26-.83 0-.04 0-.05.04-.02l.08.07.02.03a1.11 1.11 0 0 1-.71 1.17.93.93 0 0 1-.67.02.98.98 0 0 1-.55-.52c-.27-.56-.1-1.04.48-1.47a.13.13 0 0 0 .06-.11ZM40.08 19.4c.09.13.03.33-.16.61a.04.04 0 0 1-.05.02.04.04 0 0 1-.04-.03.6.6 0 0 1 .02-.3v-.09a.24.24 0 0 0-.02-.04l-.02-.03a.13.13 0 0 0-.08-.03.6.6 0 0 1-.29-.1.04.04 0 0 1-.02-.04c0-.02.02-.03.04-.04.33-.07.54-.05.62.08ZM39.7 20.4a1 1 0 0 1-.31.72 1 1 0 0 1-.73.3 1 1 0 0 1-.73-.3 1 1 0 0 1-.3-.73 1 1 0 0 1 .3-.73 1 1 0 0 1 .73-.3 1 1 0 0 1 .73.3c.2.2.3.45.3.73Z" fill="#0B6995"/><path d="M38.97 20.83c.42-.29.62-.72.45-.96-.16-.24-.64-.2-1.05.08-.42.29-.63.72-.46.96.17.24.64.2 1.06-.08Z" fill="#F0F3FA"/><path d="M39.87 22.57c-.06.12-.02.15.1.09l.65-.38a.15.15 0 0 0 .08-.15v-.06c0-.09.03-.1.08-.02.08.1.14.2.18.32.03.07 0 .09-.06.06l-.08-.03a.17.17 0 0 0-.16 0l-1.4.76c-.12.06-.15.03-.1-.1l.74-1.75-.01-.04h-.04l-1.09.63c-.04.02-.07.06-.07.1v.12c0 .1-.03.11-.09.02l-.2-.34c-.05-.1-.03-.12.08-.08l.1.04c.05.03.1.02.14 0l1.14-.6c.09-.06.14-.1.16-.16l.02-.15c-.01-.13.02-.13.1 0l.21.4c.03.04.03.09 0 .14l-.48 1.18ZM15.2 22.53h.84c.07 0 .1-.04.06-.1l-.23-.36-.15-.22c-.08-.12-.17-.16-.29-.1-.06.02-.08 0-.05-.06l.12-.3c.03-.08.07-.08.11 0 .2.38.4.7.62.99.12.15.34.27.64.36.03 0 .07 0 .13-.05l.04-.05h.03v.06l-.31.7c-.03.06-.06.06-.07-.01-.06-.29-.28-.43-.64-.43-.22 0-.62.02-1.2.08-.07 0-.09-.02-.06-.07l.26-.57c.04-.1.07-.09.08.01l.01.06c0 .04.03.06.06.06Z" fill="#0B6995"/><path d="M30 21.45v5.48c0 .05.03.07.08.07h7.3c.06 0 .1.04.1.1.09 1.49-.11 2.97-.62 4.3a9.36 9.36 0 0 1-9.74 6.06c-.08 0-.12-.05-.12-.14v-6.85c0-.07.03-.1.1-.1h2.38c.04 0 .05 0 .05.04v4.32c0 .1.04.13.13.1 2.84-.81 4.6-2.82 5.26-5.72.02-.07-.01-.1-.08-.1h-6.8c-.02 0-.04-.02-.04-.05V18.59c0-.06.04-.1.1-.09 2.1.01 3.84.6 5.46 1.77a9.33 9.33 0 0 1 3.49 4.65c.01.05 0 .08-.06.08h-2.51c-.05 0-.1-.03-.12-.08-.83-1.72-2.48-2.81-4.29-3.5-.04-.02-.07-.01-.07.03ZM26.68 21.2c-3.05.89-5.68 3.42-5.68 6.72 0 1.67.69 3.28 1.8 4.54.84.97 1.9 1.68 3.17 2.14.08.02.12.08.12.16v2.36c0 .1-.04.12-.13.1a9.79 9.79 0 0 1-6.57-5.28 8.97 8.97 0 0 1-.74-5.54 9.15 9.15 0 0 1 2.6-5 10.1 10.1 0 0 1 5.65-2.8c.07 0 .1.02.1.08v2.38c0 .07-.03.1-.1.1-.1 0-.17.02-.22.03Z" fill="#F0F3FA"/><path d="M23.04 23.46c1.16-.49 2.15-1 2.97-1.52.12-.08.22-.23.32-.47.38-.23.4-.06.05.5a3.74 3.74 0 0 1-1.55 1.37c-.63.32-1.3.48-2.02.49-.07 0-.09-.03-.07-.09.07-.2.17-.29.3-.28Z" fill="#FEF50E"/><path d="M26.33 21.47c-.1.24-.2.4-.32.47-.82.53-1.8 1.03-2.97 1.52.86-1 1.95-1.67 3.29-1.99Z" fill="#BEE369"/><path d="M40.23 24.52c.08-.01.11-.05.12-.13l.02-.11c.02-.06.04-.05.06.02a9 9 0 0 1 .2.64c.03.07 0 .09-.06.05-.15-.08-.32-.06-.52.07-.05.03-.1.03-.13-.02-.35-.43-.5-.83-.44-1.2a.99.99 0 0 1 .41-.71c.21-.14.45-.2.72-.15.26.04.49.16.66.37.2.22.28.5.27.83 0 .09 0 .15.03.18l.05.06c.08.06.07.1-.02.13l-.37.11c-.16.05-.17.02-.06-.1a.76.76 0 0 0 .23-.62c-.02-.27-.16-.43-.4-.5a1.2 1.2 0 0 0-.97.17c-.35.22-.46.5-.33.86.03.09.1.12.19.1l.34-.05ZM16.3 24.6c-.04.2-.08.3-.1.35-.03.08-.05.09-.07.01a.58.58 0 0 0-.03-.1.17.17 0 0 0-.11-.1l-1.4-.38c-.05-.02-.1 0-.12.04-.1.17-.08.32.05.44l.11.11c.07.08.06.1-.03.09a3.76 3.76 0 0 1-.34-.1c-.04-.01-.05-.06-.03-.14a232.32 232.32 0 0 0 .4-1.45c.02-.09.05-.12.1-.11.07.01.19.04.34.1.08.02.07.05-.02.08l-.15.04c-.18.03-.26.15-.27.35 0 .05.03.09.08.1l1.4.38c.05.02.1 0 .15-.03a.68.68 0 0 0 .08-.07c.05-.06.07-.04.05.05l-.08.35ZM42.03 27.39c-.01.04 0 .08.03.12l.02.03c.02.02.02.04.01.06 0 .03-.02.04-.05.04l-.4.02c-.22 0-.23-.03-.02-.12.22-.1.33-.25.34-.48a.6.6 0 0 0-.38-.62c-.24-.1-.5-.11-.8-.03-.3.09-.49.24-.56.45-.08.25.03.52.34.81.03.03.02.05-.02.04h-.1l-.04-.01a1.1 1.1 0 0 1-.34-.68 1.1 1.1 0 0 1 .14-.68.93.93 0 0 1 .5-.44.98.98 0 0 1 .76.05c.56.26.75.74.57 1.44ZM15.34 26.63c-.07-.02-.13 0-.16.07a.39.39 0 0 1-.06.1c-.04.04-.06.03-.05-.04 0-.23.03-.46.05-.68.01-.07.04-.08.09-.02.1.14.27.18.5.14.06-.01.1 0 .12.06.15.54.13.96-.06 1.28a1 1 0 0 1-.65.5.95.95 0 0 1-.72-.13c-.23-.14-.4-.34-.48-.6-.09-.28-.06-.57.08-.87.03-.08.05-.14.04-.18a.32.32 0 0 0-.03-.08c-.04-.08-.02-.12.07-.11l.4.04c.15.02.16.05.01.11a.77.77 0 0 0-.46.5c-.08.25-.02.45.19.61.26.2.58.27.95.22.42-.07.63-.3.64-.67 0-.1-.04-.15-.13-.17l-.34-.08ZM42.12 28.77a1 1 0 0 1-.3.73 1 1 0 0 1-.73.3 1 1 0 0 1-.73-.3 1 1 0 0 1-.3-.73 1 1 0 0 1 .3-.73 1 1 0 0 1 .73-.3 1 1 0 0 1 .72.3c.2.2.3.45.3.73ZM14.94 28.44c.1-.09.09-.13-.05-.11l-.75.08c-.06 0-.1.03-.14.1l-.02.05c-.04.08-.06.08-.09-.01a1.21 1.21 0 0 1-.03-.37c0-.07.03-.08.08-.03l.06.06c.04.04.09.06.15.06l1.59-.11c.13-.01.14.03.05.12l-1.39 1.3v.04c0 .01.01.02.03.02l1.24-.13c.06-.01.1-.03.12-.07l.04-.1c.05-.1.08-.1.1.01l.03.39c.01.1-.02.12-.1.04l-.07-.08a.17.17 0 0 0-.13-.05l-1.28.09c-.11 0-.18.03-.22.07a.47.47 0 0 0-.07.13c-.05.13-.08.11-.1-.04l-.03-.44c0-.06.01-.1.05-.14l.93-.88Z" fill="#0B6995"/><path d="M41.05 29.31c.5.04.93-.16.96-.46.02-.3-.37-.57-.87-.6-.5-.05-.93.16-.96.45-.02.3.37.57.87.61Z" fill="#F0F3FA"/><path d="M39.73 28.9a.23.23 0 1 0 0-.46.23.23 0 0 0 0 .46ZM42.46 28.88c0 .1-.04.17-.1.24l-.06.03c-.04 0-.06-.02-.05-.06.03-.1.04-.18.04-.22l-.01-.23c-.01-.04 0-.06.05-.05.02 0 .03.01.05.03.06.07.08.16.08.26ZM40.66 31.21c-.12.06-.12.1.01.13l.74.14c.07.01.12 0 .16-.05l.04-.05c.06-.07.08-.06.08.03-.01.13-.04.25-.08.37-.02.06-.05.07-.08 0l-.04-.07a.17.17 0 0 0-.12-.1l-1.55-.35c-.12-.03-.13-.08-.01-.13l1.69-.85c.01 0 .02-.01.02-.03 0-.01-.01-.02-.03-.02l-1.22-.24c-.05 0-.1 0-.13.04l-.07.08c-.08.08-.1.06-.08-.04l.07-.38c.02-.11.06-.12.1-.02l.05.1c.03.05.06.08.12.1l1.24.27c.1.02.18.02.22 0a.44.44 0 0 0 .11-.1c.08-.11.1-.09.08.06l-.1.43a.16.16 0 0 1-.09.12l-1.13.56ZM16.22 30.9a1 1 0 0 1-.3.73 1 1 0 0 1-.73.3 1 1 0 0 1-.73-.3 1 1 0 0 1-.3-.73 1 1 0 0 1 .3-.73 1 1 0 0 1 .73-.3 1 1 0 0 1 .73.3c.2.2.3.44.3.73Z" fill="#0B6995"/><path d="M15.3 31.41c.5-.11.84-.43.78-.72-.07-.29-.52-.43-1.01-.32-.5.12-.84.44-.78.73.07.28.52.42 1.01.31Z" fill="#F0F3FA"/><path d="m13.8 31.21.02.05c.02.02.03.04.06.05.12.06.2.13.24.2v.04a.04.04 0 0 1-.05.02c-.33-.04-.52-.14-.55-.28-.04-.15.08-.32.36-.5a.04.04 0 0 1 .05-.01c.02 0 .03.02.02.04a.6.6 0 0 1-.12.28.15.15 0 0 0-.03.08v.03ZM39.77 32.84c.06.04.12.03.17-.02a.47.47 0 0 1 .09-.08c.05-.03.06-.02.04.05l-.25.63c-.03.07-.05.07-.08 0-.07-.16-.22-.25-.46-.27-.05 0-.08-.04-.08-.1 0-.55.13-.95.4-1.2.24-.23.5-.33.78-.3.25.01.46.12.65.32.18.2.28.44.29.7 0 .3-.1.58-.32.83-.05.06-.08.11-.09.15v.09c.03.1 0 .12-.1.08l-.35-.14c-.15-.06-.15-.1 0-.12a.76.76 0 0 0 .59-.34c.15-.22.14-.43-.01-.64a1.2 1.2 0 0 0-.86-.47c-.41-.06-.68.1-.8.46-.02.09 0 .16.08.2l.3.17ZM14.69 32.58a.13.13 0 0 0-.07-.1l-.03-.03a.06.06 0 0 1-.03-.06c0-.02.02-.04.04-.04l.38-.15c.2-.07.22-.04.05.1-.18.17-.24.35-.18.57.08.28.26.44.55.47.26.03.52-.04.77-.21.26-.17.4-.37.4-.6 0-.25-.19-.48-.57-.67-.04-.01-.04-.03 0-.04l.1-.03h.04c.25.13.42.3.53.55.1.22.13.45.08.69a.92.92 0 0 1-.35.56.98.98 0 0 1-.74.18c-.6-.07-.93-.47-.97-1.19Z" fill="#0B6995"/><path d="m39.61 34.77.59-.02c.02 0 .04.02.05.04 0 .03 0 .05-.02.06l-.48.33c-.03.02-.03.04-.02.06l.2.55c0 .03 0 .05-.03.07h-.06l-.46-.36c-.03-.02-.05-.02-.07 0l-.46.36h-.06c-.03-.02-.03-.04-.02-.06l.2-.55c0-.03 0-.05-.03-.07l-.48-.32c-.02-.02-.03-.04-.02-.07 0-.02.02-.03.05-.03l.58.01c.03 0 .05-.01.06-.04l.16-.56c0-.02.02-.04.05-.04.03 0 .05.02.05.04l.17.56c0 .03.02.04.05.04ZM16.9 34.78l.58-.02c.03 0 .05.02.05.04.01.03 0 .05-.02.06l-.47.33c-.02.01-.03.03-.02.06l.2.54c0 .03 0 .05-.03.06-.02.02-.04.02-.06 0l-.46-.35c-.02-.02-.04-.02-.06 0l-.46.35c-.02.02-.04.02-.06 0-.02-.01-.03-.03-.02-.06l.19-.54c0-.03 0-.05-.02-.06l-.47-.33c-.03-.01-.03-.03-.02-.06 0-.02.02-.04.05-.04l.57.02c.03 0 .05-.01.06-.04l.16-.55c0-.03.02-.04.05-.04.03 0 .04.01.05.04l.16.55c.01.03.03.04.06.04Z" fill="#238FD1"/><path d="m18.67 36.4.5.57c.06.07.07.12.04.15l-.27.23c-.07.05-.1.03-.07-.06l.05-.15c.07-.17.02-.3-.14-.42-.05-.03-.09-.02-.13.01l-1.1.96a.16.16 0 0 0-.05.14c0 .03 0 .06.02.1.02.08 0 .09-.08.02a4.42 4.42 0 0 1-.46-.53c-.06-.08-.05-.1.02-.08l.1.04c.06 0 .11 0 .15-.04l1.1-.96c.04-.03.05-.07.02-.12-.09-.18-.22-.24-.4-.2l-.14.03c-.1.01-.12-.01-.06-.07.12-.11.2-.2.27-.24.04-.03.08 0 .14.06l.5.56ZM37.98 36.87c-.08-.1-.2-.21-.35-.35-.1-.09-.18-.11-.25-.09a.36.36 0 0 0-.2.15c-.05-.08-.05-.08 0 0l.66-.74c.1-.1.11-.09.06.04l-.04.11c-.02.05 0 .1.05.15L39 37.17c.07.07.14.06.2-.02.01-.02.03-.03.05-.02.03 0 .04.01.01.04l-.5.57c-.08.08-.1.07-.09-.04l.02-.13a.1.1 0 0 0-.03-.1l-.47-.41c-.04-.04-.07-.03-.1 0l-.35.4c-.04.04-.04.09 0 .13l.47.41a.1.1 0 0 0 .12.02c.1-.03.16-.07.22-.12.02-.03.03-.02 0 0-.17.22-.38.45-.63.69-.08.08-.1.06-.06-.04l.02-.06c.03-.06.02-.12-.04-.17-.42-.42-.76-.74-1-.96-.17-.15-.32-.15-.45.02.2-.23.41-.45.63-.66.1-.1.13-.1.07.03a.6.6 0 0 0-.03.11.1.1 0 0 0 .03.11l.42.37c.05.05.1.04.14 0l.33-.38c.03-.03.03-.06 0-.1ZM19.19 38.51l-.37.41a.14.14 0 0 0-.02.15l.03.1c.04.1.02.11-.05.04l-.54-.47c-.1-.09-.08-.1.03-.07l.06.02a.1.1 0 0 0 .1-.03l1.01-1.12a.16.16 0 0 0 .04-.12c0-.02 0-.05-.02-.09-.03-.07-.01-.08.05-.04.3.18.55.4.76.67.15.2.18.37.1.56-.1.18-.26.27-.5.27-.15 0-.33-.1-.54-.29-.05-.04-.1-.04-.14.01ZM36.57 38.53c.13.03.15 0 .07-.11l-.48-.58a.15.15 0 0 0-.16-.06l-.06.01c-.09.01-.1-.01-.04-.08.09-.09.19-.17.3-.23.06-.03.08-.02.06.05l-.02.09c-.01.05 0 .1.03.15l.97 1.26c.08.1.05.14-.07.1l-1.84-.43c-.02 0-.03 0-.04.02v.03l.8.97c.03.04.07.06.11.05l.12-.01c.1-.02.11.01.03.08l-.3.24c-.09.07-.12.06-.1-.05l.03-.1c.02-.06 0-.1-.03-.15l-.77-1.01c-.07-.09-.13-.13-.18-.14h-.15c-.13.04-.13 0-.01-.1l.35-.26a.15.15 0 0 1 .14-.03l1.24.29Z" fill="#0B6995"/><path d="M19.8 37.79c.04-.04.07-.05.11-.01l.02.02c.07.06.1.14.1.23.01.1-.02.18-.09.25l-.07.1a.35.35 0 0 1-.24.1.32.32 0 0 1-.25-.07l-.02-.02c-.04-.04-.04-.07 0-.11l.44-.5Z" fill="#F0F3FA"/><path d="m22.1 40.2-.35.64c-.03.08-.04.13-.03.14l.04.07c.07.1.05.12-.06.06l-.6-.36c-.06-.04-.05-.06.02-.06h.07c.05 0 .1-.02.13-.07l.33-.55c.01-.02 0-.04-.02-.05l-.5-.3c-.03-.03-.06-.02-.08.01l-.33.54a.13.13 0 0 0 0 .11l.02.08c.04.1.01.11-.07.06l-.55-.33c-.11-.07-.1-.1.02-.08h.06c.04 0 .08-.03.13-.1a15.55 15.55 0 0 0 .72-1.25c.03-.07.04-.13.02-.16l-.03-.04c-.08-.1-.07-.13.05-.06l.56.3c.1.05.09.08-.01.1h-.08a.13.13 0 0 0-.1.07l-.3.56c-.01.03 0 .06.03.08l.52.28c.02.01.04 0 .05-.02l.3-.56a.15.15 0 0 0 0-.15l-.03-.05c-.04-.07-.02-.08.04-.05l.61.33c.11.06.1.09-.02.08h-.08l-.1.1-.38.63ZM34.8 39.67l.35.6c.04.05.07.09.1.1h.1c.11 0 .12.03.01.1l-.28.16-.28.16c-.1.06-.13.04-.07-.05a.27.27 0 0 0 .04-.09c0-.04 0-.08-.03-.14a30.2 30.2 0 0 0-.7-1.2c-.03-.06-.07-.1-.1-.1a.3.3 0 0 0-.1-.02c-.11.01-.11-.02 0-.08a14.29 14.29 0 0 1 .56-.32c.1-.06.12-.05.06.05a.34.34 0 0 0-.03.08c-.01.04 0 .09.03.15l.34.6ZM23.7 39.5c-.02.01-.07 0-.12-.02a.05.05 0 0 1-.03-.04c0-.02 0-.04.02-.06a.05.05 0 0 1 .04-.01l.1-.01c.07-.03.09-.07.04-.13l-.07-.1c-.06-.06-.04-.09.05-.07.09.02.16.06.22.13.05.06.05.1 0 .15l-.04.05c-.03.03-.03.05 0 .08.07.05.11.1.13.14.02.06 0 .08-.05.06-.08-.02-.14-.05-.16-.1-.03-.04-.07-.06-.12-.06ZM19.5 39.75a.24.24 0 1 0 0-.47.24.24 0 0 0 0 .47ZM31.58 40.48c-.1-.11-.13-.1-.07.05l.47 1.16c.02.07.05.1.08.12.04.01.1.02.15 0l.05.01c.02.02.02.03.02.05l-.02.02-.42.17c-.07.02-.09 0-.04-.06l.05-.08c.03-.05.04-.1.02-.16l-.53-1.36c-.02-.05-.06-.08-.12-.09h-.05c-.11 0-.11-.03 0-.08l.48-.2a.13.13 0 0 1 .16.04l.8.8c.1.09.14.07.14-.06v-1.1c0-.05.02-.1.07-.12.29-.13.47-.2.55-.22.1-.03.1 0 .04.06l-.05.04a.15.15 0 0 0-.03.18l.53 1.36c.02.05.06.09.12.1h.06c.12.02.12.05.02.09l-.69.26c-.1.04-.11.02-.04-.06l.06-.05c.05-.05.06-.1.03-.17l-.48-1.24-.03-.02-.04.02v.03c0 .5-.02 1.04-.06 1.62 0 .07-.04.08-.09.03l-1.14-1.14ZM29.87 40.2c-.01.02-.02.02-.03.01h-.01c-.13-.09-.14-.21-.03-.38l.04-.05c.1-.17.23-.2.36-.12.02.02.02.03.01.04l-.34.5ZM24.22 41.29a.9.9 0 0 1-.56.43.9.9 0 0 1-.7-.09l-.17-.1a.9.9 0 0 1-.43-.55.89.89 0 0 1 .09-.7l.07-.14a.9.9 0 0 1 .56-.44.9.9 0 0 1 .7.1l.17.09a.9.9 0 0 1 .44.56c.07.24.04.48-.09.7l-.08.14Z" fill="#0B6995"/><path d="M22.87 40.54c-.16.48-.06.95.21 1.04.28.1.64-.22.8-.7.17-.48.07-.95-.2-1.05-.29-.09-.64.23-.8.7Z" fill="#F0F3FA"/><path d="M28.69 41.33c.05-.3.02-.54-.1-.7-.02-.04-.01-.06.03-.06l1.74-.23c.02 0 .02 0 0 .02l-.05.06a.13.13 0 0 0-.04.1l.2 1.46c0 .07.04.12.1.14l.13.04c.1.04.09.06-.01.08l-.74.12c-.07.01-.08 0-.03-.06l.07-.07c.02-.02.03-.05.02-.09l-.18-1.4c-.02-.18-.12-.25-.3-.22l-.13.01c-.17.02-.25.12-.25.29l.04 1.44c0 .08.05.14.14.17l.05.03c.04.02.04.03 0 .03h-.79c-.08 0-.08-.02 0-.06l.04-.03a.14.14 0 0 0 .08-.12v-.68c0-.02-.01-.03-.03-.03h-.6c-.04 0-.06.02-.06.06v.65c0 .07.04.12.1.15l.08.03c.1.04.09.06-.02.06h-.73c-.1 0-.1-.03-.02-.07l.04-.03a.14.14 0 0 0 .08-.12v-1.5c0-.05-.03-.1-.07-.12l-.06-.04c-.07-.05-.06-.08.03-.08h.59c.07 0 .09.03.04.09-.09.13-.11.36-.07.69.01.06.04.09.1.09h.47c.06 0 .1-.03.1-.1ZM26.9 40.56c.05.02.09.02.13 0l.04-.02a.06.06 0 0 1 .06 0c.02.02.03.03.02.06l-.06.4c-.04.21-.08.21-.12 0-.05-.24-.18-.39-.4-.44a.59.59 0 0 0-.68.24c-.15.22-.22.47-.2.78.03.3.13.52.32.63.23.14.52.08.87-.16.03-.02.05-.01.04.03l-.03.1c0 .02-.01.02-.02.03a1.1 1.1 0 0 1-.73.2 1.1 1.1 0 0 1-.64-.28.93.93 0 0 1-.32-.58.98.98 0 0 1 .2-.73c.37-.5.88-.58 1.53-.26Z" fill="#0B6995"/></svg>