<!-- by TradingView --><svg width="56" height="56" viewBox="0 0 56 56" xmlns="http://www.w3.org/2000/svg"><path fill="#F0F3FA" d="M0 0h56v56H0z"/><path fill-rule="evenodd" d="M14 42h19.35c4.61 0 8.65-3.63 8.65-8.12V14H22.64C18.03 14 14 17.63 14 22.12V42Zm.5-.5h18.67c4.6 0 8.33-3.62 8.33-8.1V14.5H22.83a8.22 8.22 0 0 0-8.33 8.1v18.9Z" fill="#283892"/><path d="M19 29.06V23l6 6.06V35l-6-5.94ZM25 29.06V23l6 6.06V35l-6-5.94ZM31 22.85V29l6-6.04V17l-6 5.85ZM34.44 26.5l-2.94 2.88L37 35v-6.02l-2.56-2.48Z" fill="#283892"/><path fill-rule="evenodd" d="m21.28 37-.97 3h-.34L19 37h.4l.74 2.48.74-2.48h.4Zm.42 0h.3v3h-.3v-3Zm5.62 0H27v3h.32v-3Zm-4.63 0v3h.34v-2.39L24.3 40h.38v-3h-.31v2.4L23.1 37h-.42ZM35 37h.42l1.27 2.4V37H37v3h-.38l-1.3-2.39V40H35v-3Zm-7 0v3h.3v-2.39L29.5 40h.35v-3h-.29v2.4L28.39 37H28Zm-3.16 3 .9-3h.31l.9 3h-.38l-.24-.87h-.88l-.24.87h-.37Zm1.05-2.48.34 1.24h-.68l.34-1.24ZM33.75 40c.72 0 1.07-.67 1.07-1.5s-.34-1.5-1.07-1.5c-.74 0-1.08.67-1.08 1.5s.35 1.5 1.08 1.5Zm0-.37c.5 0 .74-.5.74-1.13 0-.62-.24-1.13-.74-1.13s-.74.5-.74 1.13c0 .62.24 1.13.74 1.13Zm-2.49.37c.62 0 .96-.48 1.05-1.13h-.34c-.08.44-.31.76-.7.76-.5 0-.75-.5-.75-1.13 0-.62.24-1.13.74-1.13.35 0 .57.24.67.6h.36c-.13-.57-.46-.97-1.03-.97-.73 0-1.07.67-1.07 1.5s.35 1.5 1.07 1.5Z" fill="#ED1C24"/></svg>