<!-- by TradingView --><svg width="56" height="56" viewBox="0 0 56 56" xmlns="http://www.w3.org/2000/svg"><path fill="#F0F3FA" d="M0 0h56v56H0z"/><path d="M34 26.42c2.03-.21 4-.6 5.91-1.17.89-.26 4.24-1.34 10.06-3.25.02 0 .03 0 .03.02v.11c0 .05-.02.08-.05.1a142.26 142.26 0 0 1-9.9 4.16c-1.35.5-2.93.9-4.71 1.2-5.87.96-11.51.74-16.93-.67a58.72 58.72 0 0 1-12.37-4.76c-.04-.02-.05-.05-.03-.1.02-.05.05-.06.09-.05A92.2 92.2 0 0 0 19.5 25.9c4.52.9 9.35 1.07 14.5.53Zm-.52 1.87a29.9 29.9 0 0 0 5.39-1.07c.8-.24 3.86-1.23 9.16-2.97.02 0 .03 0 .03.03v.1c0 .03-.02.06-.05.07-3.7 1.7-6.7 2.97-9.01 3.81-1.24.45-2.67.82-4.3 1.09-5.34.88-10.49.68-15.42-.6-3.88-1-7.64-2.44-11.27-4.33-.04-.02-.05-.05-.03-.1.02-.04.04-.05.08-.03a83.97 83.97 0 0 0 12.22 3.52c4.12.82 8.52.98 13.2.48Zm-21.13-1.36.02.18v.01A32.98 32.98 0 0 0 33 31.15a29.96 29.96 0 0 0 10.62-3.42c.28-.16.27-.2-.04-.11-.7.18-1.63.45-2.81.82-2.9.89-5.94 1.4-9.13 1.54-3.1.13-5.12.15-6.09.06a46.82 46.82 0 0 1-13.12-3.17c-.06-.03-.08 0-.08.06Zm13.8 4.81c4.4.3 8.77-.17 13.08-1.38.05-.01.08 0 .1.06l.04.1-.01.02c-1.73.87-3.3 1.47-4.69 1.8a26.52 26.52 0 0 1-18.03-1.92c-.06-.02-.07-.07-.04-.14.02-.05.05-.06.1-.05 3.15.8 6.3 1.3 9.45 1.51Zm9.74 1.16c-2.44.4-5 .6-7.71.57a43.9 43.9 0 0 1-7.7-.72c-.26-.05-.28 0-.04.15a14.51 14.51 0 0 0 7.73 2.1c2.96.03 5.55-.63 7.76-1.96.23-.14.22-.19-.04-.14Z" fill="#D9B47F"/></svg>