<!-- by TradingView --><svg width="56" height="56" viewBox="0 0 56 56" xmlns="http://www.w3.org/2000/svg"><path fill="#F0F3FA" d="M0 0h56v56H0z"/><path d="M12.5 29.04c0-3.44 2.51-6.6 3.76-7.75-1.75 1.1-5.26 4.3-5.26 8.28 0 6.3 7.33 8.1 11 8.22V17.52l-3 1.84v15.82c-2.03-.61-6.5-2.7-6.5-6.14Z" fill="#104877"/><path d="M22 39.83c-11.9-.68-12.73-7.48-11.65-10.8-.44 7.22 7.58 9.18 11.65 9.26v1.54Z" fill="#F68617"/><path d="M43.5 26.8c0 3.43-2.51 6.6-3.76 7.74 1.75-1.1 5.26-4.3 5.26-8.28 0-6.29-7.33-8.1-11-8.21V38.3l3-1.84V20.65c2.03.61 6.5 2.7 6.5 6.14Z" fill="#104877"/><path d="M34 16c11.9.68 12.73 7.48 11.65 10.8.44-7.22-7.58-9.18-11.65-9.26V16Z" fill="#F68617"/><path d="M24 18.34V40l3-1.87v-21.6l-3 1.81ZM29 17.8v21.66l3-1.87V16l-3 1.8Z" fill="#104877"/></svg>