<!-- by TradingView --><svg width="56" height="56" viewBox="0 0 56 56" xmlns="http://www.w3.org/2000/svg"><path fill="#F0F3FA" d="M0 0h56v56H0z"/><path fill-rule="evenodd" d="M28 41c11.05 0 20-5.82 20-13s-8.95-13-20-13S8 20.82 8 28s8.95 13 20 13ZM13 28a7 7 0 0 1 7-7h7v5h-5.5a2.5 2.5 0 0 0 0 5H27l-4 4h-3a7 7 0 0 1-7-7Zm21 2.5V21l-6 5v9.5l6-5Zm7-9.5v9.5l-6 5V26l6-5Z" fill="#1A3880"/><path d="M31.01 21H30l-2 1.6v.8l3.01-2.4ZM28 24.12V25l5-4h-1.09L28 24.12ZM28 21h1.1l-1.1.88V21ZM38.01 21H37l-2 1.6v.8l3.01-2.4ZM35 24.12V25l5-4h-1.09L35 24.12ZM35 21h1.1l-1.1.88V21Z" fill="#D78750"/></svg>