<!-- by TradingView --><svg width="56" height="56" viewBox="0 0 56 56" xmlns="http://www.w3.org/2000/svg"><path fill="#F0F3FA" d="M0 0h56v56H0z"/><path d="M39.08 29H16.92l5.41-9H33.5l5.59 9Z" fill="#943D21"/><path d="M45 39H11l5.4-9h23.27L45 39Z" fill="#1C6C37"/><path d="M37 29v-2h-2.21c-1.5 0-2.79 1.17-2.79 2.62v2.76c0 1.45 1.3 2.62 2.79 2.62H37v-2h-1.82c-.67 0-1.21-.3-1.21-.96V29.9c0-.65.54-.89 1.21-.89H37Zm-14.01 0v-2h-2.26A2.68 2.68 0 0 0 18 29.62v2.76A2.68 2.68 0 0 0 20.73 35h2.26v-2h-1.82c-.67 0-1.17-.3-1.17-.96V29.9c0-.65.5-.89 1.17-.89h1.82ZM24 27h2v8h-2v-8Zm3 2v-2h2.54A2.45 2.45 0 0 1 32 29.4c0 1.33-1.13 2.6-2.46 2.6H29v3h-2v-5h2.46c.44 0 .8-.12.8-.56 0-.44-.36-.44-.8-.44H27Z" fill="#F0F3FA"/><path fill-rule="evenodd" d="M32 32.38c0 1.45 1.3 2.62 2.79 2.62H37v-2h-1.82c-.67 0-1.21-.3-1.21-.96V29.9c0-.65.54-.89 1.21-.89H37v-2h-2.21c-1.2 0-2.29.77-2.66 1.83a2.42 2.42 0 0 0-.13.8v2.75Zm-.2-2a2.58 2.58 0 0 0 .2-.98c0-.2-.03-.4-.07-.58A2.47 2.47 0 0 0 29.54 27H27v2h2.46c.44 0 .8 0 .8.44s-.36.56-.8.56H27v5h2v-3h.54c1 0 1.88-.71 2.26-1.63Zm-3 4.42v-3h.74c1.21 0 2.26-1.17 2.26-2.4 0-1.2-1.03-2.2-2.26-2.2H27.2v1.6h2.27c.2 0 .44 0 .63.07.1.04.2.1.26.21.07.1.1.23.1.36 0 .29-.13.5-.34.62-.19.11-.43.14-.66.14H27.2v4.6h1.6Zm8-7.6h-2.01c-1.4 0-2.59 1.1-2.59 2.42v2.76c0 1.32 1.2 2.42 2.59 2.42h2.01v-1.6h-1.62c-.36 0-.7-.08-.97-.27-.28-.2-.44-.5-.44-.89V29.9c0-.4.17-.68.45-.86.26-.17.61-.23.96-.23h1.62v-1.6Zm-14.01 1.6v-1.6h-2.06a2.48 2.48 0 0 0-2.53 2.42v2.76a2.48 2.48 0 0 0 2.53 2.42h2.06v-1.6h-1.62c-.36 0-.7-.08-.96-.27-.26-.2-.41-.5-.41-.89V29.9c0-.39.15-.67.42-.86.26-.17.6-.23.95-.23h1.62ZM24 27h2v8h-2v-8Zm.2 7.8h1.6v-7.6h-1.6v7.6ZM22.99 29h-1.82c-.67 0-1.17.24-1.17.89v2.15c0 .66.5.96 1.17.96h1.82v2h-2.26A2.68 2.68 0 0 1 18 32.38v-2.76A2.68 2.68 0 0 1 20.73 27h2.26v2Z" fill="#1C6C37"/><path d="M27.9 19H23L28 11l5 8h-5.1Z" fill="#A51D21"/></svg>