<!-- by TradingView --><svg width="56" height="56" viewBox="0 0 56 56" xmlns="http://www.w3.org/2000/svg"><path fill="#F0F3FA" d="M0 0h56v56H0z"/><path fill-rule="evenodd" d="M23.53 28.16h1.06l.02.01a11.2 11.2 0 0 0 .21.84h-.01l-.93.55a.05.05 0 0 0-.02.02v.04a1.93 1.93 0 0 0 .12.2 7.38 7.38 0 0 0 .69 1.06l.91-.64h.04c.16.2.33.38.52.54.02.02.03.05.03.08a.3.3 0 0 1-.04.08v.01a17.69 17.69 0 0 1-.47.79c-.04.06 0 .12.11.19l.2.12a5.93 5.93 0 0 0 .94.54l.54-.98h.02c.15.06.3.12.45.16l.27.06h.05c.01 0 .02.01.02.03v1.06c0 .02.01.03.03.03.06 0 .13 0 .24.02l.15.02a3.99 3.99 0 0 0 1.1-.08v-1.06l.03-.02c.11-.01.25-.04.39-.08a8.44 8.44 0 0 0 .4-.12l.52.96c.01.02.03.03.05.02l.3-.17c.31-.17.63-.37.93-.6.02-.01.02-.03 0-.05l-.46-.82v-.01c-.06-.09-.07-.14-.04-.17.12-.1.28-.25.48-.47l.03-.05c.02-.02.04-.02.06 0a13.75 13.75 0 0 0 .88.59l.03.02h.02a7.85 7.85 0 0 0 .74-1.2.2.2 0 0 0 .04-.1v-.02a4.57 4.57 0 0 1-.4-.22 14.53 14.53 0 0 0-.53-.33.05.05 0 0 1-.02-.05l.21-.79h1.08s.02-.01.02-.03a1.83 1.83 0 0 0 .09-.65v-.12a.38.38 0 0 0-.07-.26v-.02c-.04-.05-.06-.08-.09-.08l-.09-.01h-2.63l-.18-.02-.07-.01a.05.05 0 0 1-.03-.02c-.22-.36-.42-.65-.63-.94-.2-.27-.4-.55-.6-.9a.19.19 0 0 1-.04-.1c0-.02 0-.03.02-.03h.03l.15.11c.04.03.07.02.1-.02l1.33-2.41v-.04l-.7-.4c-.03 0-.04 0-.05.02a22.68 22.68 0 0 1-.5.96c-.02.02-.05.02-.08 0a2.88 2.88 0 0 0-.72-.22l.01-1.06c0-.03-.01-.05-.04-.05-.05 0-.13 0-.22-.02a4.05 4.05 0 0 0-1.14.01 10.42 10.42 0 0 0-.2-.33A654.55 654.55 0 0 1 26.12 18h-.01a21.57 21.57 0 0 1-.75 1.33 177.63 177.63 0 0 0-2.16 3.73 1968.8 1968.8 0 0 1-2.57 4.46l.03.02h2.72c.02 0 .04 0 .04.04l.04.27a1.58 1.58 0 0 0 .07.3Zm-.03-1.7c0-.02.01-.03.02-.03h1.09l.02-.01c.05-.23.12-.46.21-.71.01-.03 0-.05-.03-.07l-.9-.47v-.02c-.01-.03 0-.07.02-.1.05-.12.16-.3.31-.55a64.21 64.21 0 0 1 .44-.67l.88.61h.02a3.62 3.62 0 0 1 .56-.59.05.05 0 0 0 .01-.06l-.5-.87c0-.03 0-.05.02-.06l.06-.04.44-.3c.16-.08.3-.16.45-.21.02 0 .02-.02.01-.03L25.27 20l-.02-.01-.02.01-4.07 6.93v.04l.03.02h2.23c.02 0 .02 0 .03-.02l.05-.53Zm5.63.08a185.26 185.26 0 0 0-1.02-1.52c-.01-.02-.03-.02-.05-.02a2.86 2.86 0 0 1-.32.14c-.45.22-.8.53-1.06.94-.18.28-.28.58-.32.9 0 .01 0 .02.02.02h3.02v-.01a46.81 46.81 0 0 1-.28-.44Zm-2.76 1h5.32v.13a2.91 2.91 0 0 1-1.45 2.11 2.68 2.68 0 0 1-2.3.07 2.46 2.46 0 0 1-.89-.65c-.24-.28-.43-.6-.56-.95a2.03 2.03 0 0 1-.11-.45l-.01-.05a.92.92 0 0 1-.01-.2l.01-.02Z" fill="#F01116"/><path fill-rule="evenodd" d="M11.03 40h33.94c.01 0 .02 0 .03-.03l-.01-.12a.77.77 0 0 0-.06-.11l-.02-.03a12.56 12.56 0 0 0-.32-.57 16.11 16.11 0 0 0-.57-1.03 701.4 701.4 0 0 0-2.63-4.64 77.07 77.07 0 0 0-1.1-1.9l-1.93-3.4a60.37 60.37 0 0 1-.64-1.16 126.65 126.65 0 0 1-1.41-2.47 415.23 415.23 0 0 0-1.7-2.97l-.04-.07a27.2 27.2 0 0 0-.45-.8l-.22-.4a266.3 266.3 0 0 1-2.26-3.94l-.8-1.42-.45-.78-.63-1.1a25.8 25.8 0 0 1-.39-.7 72.01 72.01 0 0 1-1.11-1.96 53.79 53.79 0 0 0-.24-.39l-.03-.01-.02.01A117.13 117.13 0 0 0 12.53 37.2l-.08.13-.07.12a5.23 5.23 0 0 0-1.36 2.41.14.14 0 0 0-.01.13l.02.01ZM28 11h-.01a48.5 48.5 0 0 0-.6 1.07 751.4 751.4 0 0 0-4.58 8.15 441.17 441.17 0 0 1-7.89 13.84l.02.01H32.1l.06-.03a71.73 71.73 0 0 1 1.11-1.98 23.84 23.84 0 0 0 .52-.9 26.65 26.65 0 0 0 .5-.87 420.12 420.12 0 0 0 1.96-3.45c.17-.29.29-.5.37-.61.01-.03.01-.05 0-.07a67.13 67.13 0 0 0-.7-1.24 354.39 354.39 0 0 0-1.66-2.9c-1.07-1.91-2.15-3.8-3.23-5.7A850.32 850.32 0 0 1 28 11ZM41.13 34 37.8 28h-.01l-3.3 5.98 6.65.01v-.01ZM28 34.5a22922.62 22922.62 0 0 0 13.3-.01c.03 0 .05.01.06.03a1166.83 1166.83 0 0 0 2.97 4.96s0 .01 0 0a366880.5 366880.5 0 0 0-32.54 0l.01-.06c1.02-1.69 1.73-2.96 2.2-3.8a48.73 48.73 0 0 1 .64-1.1.07.07 0 0 1 .06-.03H28Z" fill="#0000FB"/><path fill-rule="evenodd" d="M24.67 35.38a7.36 7.36 0 0 0 .4-.37h.02l.3.1.03.04c0 .02 0 .03-.02.04l-.42.25c-.16.1-.31.15-.46.17h-.02v-.02c0-.03.01-.07.04-.1a.84.84 0 0 1 .13-.11Zm-6.66.58a.56.56 0 0 1-.09-.13.35.35 0 0 1-.02-.24.28.28 0 0 1 .31-.2c.07.01.12.03.17.07a.33.33 0 0 1 .13.3c0 .06-.03.11-.07.16a.32.32 0 0 1-.23.13c-.07 0-.14-.02-.2-.1Zm15.46.04c-.08-.01-.13.02-.15.09 0 .01-.02.02-.04.01a5.82 5.82 0 0 1-.55-.1l-.26.01a1.35 1.35 0 0 0-.65.27c-.1.09-.2.2-.27.3a.84.84 0 0 0-.03.8c.11.23.3.4.58.52l.15.05c.12.04.28.05.49.05a2.25 2.25 0 0 0 .47-.06l.29-.06c.03-.01.05-.03.05-.06a9 9 0 0 0 0-.38c-.01-.08 0-.14.01-.2 0-.02.02-.03.04-.03l.18-.02c.05 0 .07-.03.07-.08v-.03c-.01-.05-.04-.08-.1-.08h-1.1v.03c-.02.05-.02.09 0 .12.01.02.06.05.14.07h.03l.09.04c.02.02.02.05.03.08v.29c0 .08-.04.13-.1.15a.74.74 0 0 1-.23.03h-.01c-.15 0-.27-.08-.36-.24a.91.91 0 0 1-.1-.4c-.01-.18 0-.33.01-.45.03-.16.09-.3.18-.4a.4.4 0 0 1 .27-.13.6.6 0 0 1 .3.04c.12.05.22.12.3.21.04.06.1.15.17.3h.02c.08.03.12 0 .12-.09v-.6c0-.03-.02-.04-.04-.05Zm7.94.1.02-.01.01-.01a.19.19 0 0 1 .05-.07h.11l.01.05a19.17 19.17 0 0 1 0 .67c-.01.02-.03.03-.07.03-.03 0-.05-.02-.06-.04l-.12-.2a.7.7 0 0 0-.38-.3.6.6 0 0 0-.28-.03.41.41 0 0 0-.25.11.55.55 0 0 0-.12.2c-.1.27-.12.55-.06.83.02.11.06.21.12.3.08.1.18.17.3.17.1.01.18 0 .23-.01.08-.03.08-.08.08-.15v-.22c0-.1-.05-.13-.13-.15h-.02a.16.16 0 0 1-.1-.07.12.12 0 0 1 0-.1v-.01l1.13-.02c.04 0 .06.02.06.05v.06c.01.03 0 .05-.04.05l-.2.04c-.02 0-.03.01-.04.03a11.45 11.45 0 0 0-.01.52c0 .03-.02.06-.07.07-.3.06-.52.1-.67.1a1.6 1.6 0 0 1-.67-.08 1.21 1.21 0 0 1-.37-.22.9.9 0 0 1-.12-1.22.95.95 0 0 1 .22-.22c.14-.1.29-.17.45-.21.1-.03.25-.04.44-.03a2.15 2.15 0 0 1 .48.08l.07.01Zm-25.66.02h-.03a4.66 4.66 0 0 1-.39-.1c-.04-.02-.1-.02-.16-.02a1.27 1.27 0 0 0-.78.25.91.91 0 0 0-.35.5c-.06.2-.05.39.02.58.08.24.25.42.5.55.1.05.2.08.3.1.11.02.22.02.33.02a1.22 1.22 0 0 0 .6-.24l.18-.13c.03-.02.04-.05.02-.08l-.04-.08c-.01-.03-.03-.04-.06-.01a2.1 2.1 0 0 1-.26.17.83.83 0 0 1-.42.13.48.48 0 0 1-.37-.16.7.7 0 0 1-.15-.27 1.36 1.36 0 0 1-.01-.61c.01-.1.05-.18.1-.27.05-.1.11-.16.2-.2a.3.3 0 0 1 .12-.05c.18-.02.34.02.46.13.08.07.17.2.26.37 0 .02.03.04.05.04.08 0 .12-.02.12-.07v-.64c0-.01-.01-.02-.03-.02h-.14l-.03.01-.04.1ZM21.41 38c.06 0 .09-.02.08-.06h.01l.02.03c0 .01.01.03.03.03h1.16c.03 0 .04-.02.04-.05v-.07c0-.03-.01-.05-.04-.05h-.01a.64.64 0 0 1-.18-.05c-.05-.02-.08-.07-.08-.13v-.52a4.45 4.45 0 0 1 .62-.02c.03 0 .04.02.04.04v.54c-.01.06-.05.1-.12.12l-.14.02c-.02 0-.03.02-.04.03l.01.1c0 .02.02.04.04.04h1.1c.01 0 .03 0 .05-.02h.03l.03.01V38h1.25c.03 0 .05-.02.05-.05v-.08c0-.03-.02-.05-.05-.05l-.14-.01c-.12-.01-.18-.1-.18-.25v-1.28c0-.04.02-.07.06-.08a.96.96 0 0 1 .25-.03c.02 0 .04-.01.04-.03v-.1l-.02-.02-.03-.01h-1.21c-.03 0-.05.01-.05.04l.02.08c0 .04.02.05.06.05.07-.01.13 0 .17.03.06.04.08.08.08.14v1.24a.5.5 0 0 1 0 .1c-.02.05-.04.08-.07.09l-.22.05h-.1l-.03-.01c-.1-.02-.16-.05-.18-.08a.36.36 0 0 1-.02-.17v-1.25c0-.05.02-.1.07-.12a.41.41 0 0 1 .15-.03c.03 0 .04-.01.04-.04v-.11l-.04-.01h-1.1c-.03 0-.04 0-.04.03v.08c0 .03.02.05.05.05.1 0 .15.02.17.04.04.02.05.07.06.14v.47c0 .02-.01.03-.03.03h-.6l-.01-.03v-.51c0-.06.03-.1.1-.11l.14-.03c.02 0 .02 0 .03-.02a.3.3 0 0 0 .01-.12c0-.02 0-.02-.02-.02h-1.18c-.02 0-.03 0-.03.03v.1c0 .02.01.03.04.04.12 0 .2.01.23.04s.05.1.05.2v1.24c0 .06-.04.1-.1.13a.75.75 0 0 1-.24.04.83.83 0 0 0-.07-.02.38.38 0 0 1-.15-.1 99.47 99.47 0 0 0-.84-.9c-.03-.04-.03-.07.01-.1a4.02 4.02 0 0 0 .42-.36l.13-.1a.4.4 0 0 1 .15-.05l.15-.02c.04 0 .05-.02.05-.05v-.08c0-.03-.01-.05-.05-.05h-.87c-.02 0-.04.02-.04.04v.1c0 .03.02.04.04.04l.16.02h.02v.03c0 .04-.02.07-.04.1a.99.99 0 0 1-.1.1l-.01.01a88.88 88.88 0 0 1-.5.42.47.47 0 0 1 0-.11v-.38l.01-.12c.02-.04.06-.06.12-.06h.13c.04 0 .06-.02.06-.05v-.09c0-.03-.02-.04-.06-.04L19.08 36c-.04 0-.06.01-.06.05v.06c0 .03.02.05.06.06h.01c.1.01.16.03.2.05l.02.04.01.1v1.19c0 .12 0 .19-.04.23-.02.01-.07.03-.15.03h-.05c-.05.01-.08.04-.08.08v.05c0 .04.02.06.07.06.36-.01.73-.01 1.12 0 .02 0 .04-.01.04-.04v-.1c0-.03-.02-.04-.05-.04h-.03c-.05 0-.08 0-.1-.02-.08-.02-.12-.08-.11-.17a12.42 12.42 0 0 0 .01-.48c0-.01 0-.02.02-.02h.02l.06.06a21.75 21.75 0 0 1 .49.56c0 .02 0 .03-.03.03l-.17.02c-.04 0-.06.03-.06.06l-.01.09c0 .03.01.05.05.05h1.1Zm13.23-1.7c0-.05.01-.08.04-.09a.8.8 0 0 1 .26-.05c.03 0 .04-.02.04-.05v-.07c0-.03-.01-.04-.05-.04H33.7c-.02 0-.03 0-.03.03v.1c0 .02.01.03.03.03.07 0 .14 0 .2.02.04.02.08.04.1.08V37.68c0 .05-.02.09-.07.11a3.8 3.8 0 0 0-.2.04c-.04 0-.06.03-.06.06v.07c0 .03.01.04.04.04h1.15c.03 0 .04-.01.04-.04v-.09c0-.02-.01-.04-.04-.04a.47.47 0 0 1-.16-.05c-.05-.03-.07-.07-.07-.13V36.3Zm4.4.73c.02.03.04.03.03 0v-.64a.3.3 0 0 0-.03-.14.15.15 0 0 0-.13-.08h-.1c-.03 0-.04-.01-.04-.04v-.1c0-.01 0-.02.03-.02a9.6 9.6 0 0 0 .82 0l.01.03v.08c0 .03-.01.04-.04.05h-.04a.51.51 0 0 0-.15.02c-.05.02-.08.06-.08.12a774.9 774.9 0 0 0 0 1.68h-.02a.42.42 0 0 0-.14 0h-.02a219.2 219.2 0 0 1-1.25-1.38c-.03-.04-.04-.04-.04 0 0 .32 0 .7.02 1.05 0 .06.03.11.09.14.04.03.1.04.18.03.03 0 .05.02.05.05v.08c0 .02-.01.04-.04.04h-.8c-.04 0-.06-.02-.06-.05v-.06c0-.04.02-.06.06-.06h.01l.14-.02a.14.14 0 0 0 .09-.1 47.58 47.58 0 0 0 0-1.42.14.14 0 0 0-.1-.1.54.54 0 0 0-.14-.02h-.03c-.03 0-.05-.02-.05-.05v-.07c0-.03.01-.04.04-.04h.78c.02 0 .03 0 .04.02l.14.17a31.98 31.98 0 0 1 .77.83Zm-21.33-.7c.12.12.2.25.25.4a.9.9 0 0 1 .03.43.97.97 0 0 1-.18.41c-.1.13-.21.23-.36.32a.93.93 0 0 1-.55.1.92.92 0 0 1-.5-.2c-.17-.13-.28-.3-.35-.48a.94.94 0 0 1-.01-.58 1.01 1.01 0 0 1 1.2-.7c.1.03.17.07.22.1.06.03.14.1.25.2Zm-.7-.14c.1 0 .17.03.22.1.07.08.11.2.14.33l.02.38c0 .16 0 .29-.02.38a.74.74 0 0 1-.15.34c-.05.06-.12.09-.22.09s-.18-.03-.23-.1a.74.74 0 0 1-.14-.33 2.25 2.25 0 0 1-.02-.38c0-.17 0-.3.02-.38a.74.74 0 0 1 .15-.34c.05-.06.12-.1.22-.1Zm18.55 1.58-.01-.03c.03-.1.07-.2.13-.3h.62a14.07 14.07 0 0 1 .1.31v.02c-.04.03-.1.04-.2.05-.03 0-.04.02-.04.04v.1c0 .03.01.04.04.04h1.03c.03 0 .05-.01.05-.04 0-.04 0-.07-.02-.1a.24.24 0 0 0-.08-.04.37.37 0 0 1-.08-.04.39.39 0 0 1-.11-.15l-.7-1.53c-.03-.07-.07-.1-.1-.1a.1.1 0 0 0-.1.06 54.11 54.11 0 0 1-.84 1.71c-.02.02-.05.04-.1.05-.03 0-.06.02-.08.04V37.98s0 .02.02.02h.68c.04 0 .05-.02.05-.05v-.07c0-.03-.01-.04-.04-.05a.8.8 0 0 1-.22-.06Zm.21-.53h.4l.01-.01a.27.27 0 0 0-.03-.11l-.12-.25a.43.43 0 0 0-.06-.1l-.02.01-.19.44.01.02Zm-7.43.68c0 .03-.02.08-.05.08h-1.06c-.02 0-.03-.05-.03-.07v-.11c0-.02.01-.03.04-.03l.16-.03.02-.01c.02-.06-.01-.17-.1-.33l-.03-.01h-.52c-.04 0-.06.01-.08.04l-.1.25v.04l.03.01.17.04c.03.01.04.02.04.05v.1c0 .03-.02.06-.03.06h-.73c-.03 0-.05-.06-.05-.09v-.06c0-.03.02-.05.05-.05.1-.01.17-.03.2-.06a604.33 604.33 0 0 0 .86-1.71c0-.02.01-.03.04-.03h.08l.02.02.07.1a183.78 183.78 0 0 1 .72 1.54c.03.04.05.07.08.08.01.01.04.03.09.04l.07.02.01.01.02.04c.02-.02.03-.04.06-.05l.09-.02c.06 0 .1-.02.12-.03.04-.02.06-.06.06-.12v-1.2c-.01-.08-.03-.14-.07-.18-.04-.03-.11-.05-.22-.05-.02 0-.04-.01-.04-.04v-.08c0-.03.01-.08.04-.08h.73c.04 0 .09.07.15.15l.06.07a29.62 29.62 0 0 1 .81.87l.01-.12v-.62c0-.06-.02-.1-.07-.13a.39.39 0 0 0-.17-.02c-.03 0-.04 0-.04-.03l-.01-.1c0-.01 0-.07.03-.07h.77c.03 0 .04.06.04.08v.08c0 .03-.01.04-.04.04-.1 0-.15 0-.2.03-.03.03-.05.08-.05.16a310.89 310.89 0 0 0-.01 1.6h-.04a.26.26 0 0 0-.14 0h-.02a148.26 148.26 0 0 1-1.2-1.33.17.17 0 0 0-.05-.04h-.02v.98c0 .06.02.12.06.16.02.02.09.03.2.04h.01c.04 0 .05.01.05.04v.07c0 .03-.02.1-.05.09h-.79c-.03 0-.04-.06-.05-.08Zm-1.56-.73.2-.4.02-.01h.02l.2.41v.02H26.78v-.02Z" fill="#F01116"/></svg>