<!-- by TradingView --><svg width="56" height="56" viewBox="0 0 56 56" xmlns="http://www.w3.org/2000/svg"><path fill="#F0F3FA" d="M0 0h56v56H0z"/><path d="M6 25.51A2.5 2.5 0 0 1 8.5 23H16v2H8.94a.96.96 0 0 0-.94.98v4.04c0 .54.42.98.94.98H16v2H8.5A2.5 2.5 0 0 1 6 30.49V25.5ZM35.4 23c1.44 0 2.6 1.13 2.6 2.52v4.98c0 1.38-1.16 2.5-2.6 2.5H28v-6.65h2V31h4.95c.58 0 1.05-.44 1.05-.98v-4.04c0-.54-.47-.98-1.05-.98H26v-2h9.4Zm11.84 0c1.52 0 2.76 1.12 2.76 2.5V33h-2v-3h-7v3h-2v-7.5c0-1.38 1.24-2.5 2.76-2.5h5.48ZM41 28h7v-1.95c0-.58-.51-1.05-1.14-1.05h-4.72c-.63 0-1.14.47-1.14 1.05V28Zm-24-5h2v3.03L22.36 23h2.82l-5.13 4.8 6.02 5.2h-2.83L19 29.42V33h-2V23Z" fill="#0089D1"/></svg>