<!-- by TradingView --><svg width="56" height="56" viewBox="0 0 56 56" xmlns="http://www.w3.org/2000/svg"><path fill="#F0F3FA" d="M0 0h56v56H0z"/><path d="m28 11 .93.03c.92.03 1.6.07 2.02.15 2.02.35 3.82.99 5.4 1.91 5.08 2.98 7.97 7.47 8.65 13.49v2.78a17.7 17.7 0 0 1-1.4 5.5 16.93 16.93 0 0 1-7.24 8.03 17.49 17.49 0 0 1-5.33 1.94c-.65.13-1.71.18-3.2.17h-.61c-1.78 0-3.58-.35-5.39-1.05A17.2 17.2 0 0 1 11 29.33v-2.8a17.42 17.42 0 0 1 8.85-13.6c1.7-.93 3.5-1.53 5.41-1.8.3-.05.8-.08 1.5-.1.45 0 .78-.02 1-.03H28Z" fill="#007A67"/><path d="M28.73 43.98a15.84 15.84 0 0 1-11.52-4.17 15.85 15.85 0 0 1-5.2-11.09 15.84 15.84 0 0 1 4.17-11.5 15.84 15.84 0 0 1 11.1-5.2 15.84 15.84 0 0 1 11.5 4.17 15.85 15.85 0 0 1 5.2 11.09 15.84 15.84 0 0 1-4.16 11.5 15.84 15.84 0 0 1-11.1 5.2Z" fill="#F0F3FA"/><path d="M28.13 43a14.85 14.85 0 0 1-10.63-4.34 14.85 14.85 0 0 1-4.45-10.58 14.85 14.85 0 0 1 4.33-10.63A14.87 14.87 0 0 1 27.97 13a14.85 14.85 0 0 1 10.63 4.34 14.85 14.85 0 0 1 4.45 10.58 14.85 14.85 0 0 1-4.34 10.63A14.87 14.87 0 0 1 28.13 43Z" fill="#007A67"/><path d="m28.17 15.05 2.65 3.93a.1.1 0 0 1 0 .13l-9.3 13.84a.11.11 0 0 1-.1.05h-5.3a.11.11 0 0 1-.1-.06.1.1 0 0 1 0-.12l11.96-17.77a.1.1 0 0 1 .1-.05.1.1 0 0 1 .09.05ZM32.41 29.65c.34.43.8.78 1.42 1.04.6.26 1.19.38 1.78.35.7-.02 1.48-.36 2.34-1 .07-.06.12-.05.17.02l1.82 2.69c.11.17.07.25-.14.25H23a.12.12 0 0 1-.12-.07.12.12 0 0 1 0-.13l8.39-12.75a.1.1 0 0 1 .08-.05.1.1 0 0 1 .09.05l2.32 3.42c.03.05.04.1.02.17a.19.19 0 0 1-.11.12 3.2 3.2 0 0 0-1.7 1.6 3.8 3.8 0 0 0 .44 4.29Z" fill="#F6CF75"/><path d="M35.5 30a3 3 0 1 0 0-6 3 3 0 0 0 0 6Z" fill="#F6CF75"/><path fill-rule="evenodd" d="M29.9 35.7c-.03.02-.03.05-.01.09l.67 1.1c.05.07.03.11-.05.11h-.4c-.19 0-.33-.1-.43-.28-.32-.62-.64-.92-.95-.9-.06 0-.09.04-.09.1v.86c0 .15-.07.22-.2.22h-.23c-.14 0-.21-.08-.21-.23v-2.61c0-.07.03-.11.1-.12h.11a5.43 5.43 0 0 1 1.42.02c.54.11.8.4.77.85-.02.25-.18.51-.5.78Zm-.38-1.17-.7.02c-.15 0-.27.13-.26.3v.18c0 .16.12.29.27.29l.7-.02c.15 0 .26-.14.26-.3v-.19c0-.16-.13-.29-.27-.28Zm8.05 1.53c0-.1.04-.15.13-.15.85.04 1.28-.26 1.3-.9.01-.48-.18-.78-.58-.92-.23-.08-.6-.1-1.11-.08h-.22c-.06 0-.09.05-.09.12v2.62c0 .17.07.25.21.25h.14c.14 0 .22-.09.22-.27v-.67Zm.08-1.54c-.11 0-.17.07-.16.2v.5c0 .14.07.2.18.2h.26c.16 0 .3-.05.4-.14.12-.08.17-.18.17-.3v-.06c0-.12-.06-.22-.17-.3a.67.67 0 0 0-.41-.1h-.27Zm-10.6 1.51c.02.06.01.1-.03.15-.24.25-.5.33-.8.25-.31-.09-.5-.31-.56-.67-.07-.35-.03-.64.1-.86.15-.23.38-.34.7-.33.1 0 .27.08.48.22.16.11.28.17.35.18.24.04.34-.04.3-.24l-.03-.1a.57.57 0 0 0-.27-.4 1.65 1.65 0 0 0-1-.22c-.41.02-.73.17-.96.43-.21.24-.32.57-.33 1-.02.75.25 1.23.8 1.45.49.19 1.05.14 1.68-.15a.2.2 0 0 0 .11-.15c.08-.37.1-.74.04-1.13 0-.05-.03-.07-.08-.07h-.98c-.1 0-.17.06-.2.2l-.01.04c-.04.14.02.22.15.24l.44.06c.05.01.1.04.1.1ZM20.14 34h.34c.07 0 .13.07.13.15v2.7c0 .09-.07.15-.14.15h-.34c-.07 0-.13-.06-.13-.14l.01-2.72c0-.08.06-.14.13-.14Zm-2.18.67c.2-.16.42-.14.68.03l.32.23c.18.15.32.16.42 0a.4.4 0 0 0 .05-.3.5.5 0 0 0-.18-.3 1.35 1.35 0 0 0-1.38-.24c-.51.18-.8.57-.85 1.15-.08.97.24 1.54.95 1.71.31.08.6.06.86-.04a1 1 0 0 0 .6-.62c.04-.1.03-.2-.03-.3a.3.3 0 0 0-.25-.15c-.05 0-.1.02-.14.07l-.12.14c-.22.26-.4.4-.54.4-.26.03-.45-.09-.58-.34a1.31 1.31 0 0 1-.11-.78c.04-.3.14-.53.3-.66Zm3.62.85c.01.34.12.6.31.8.22.22.47.21.74-.04l.3-.3c.16-.17.3-.15.42.04l.04.06c.06.09.06.18 0 .27-.29.51-.75.72-1.38.61-.66-.1-1-.58-1.03-1.41-.03-.84.29-1.33.94-1.5.62-.14 1.1.03 1.42.53.06.08.06.17.01.26l-.03.07c-.11.2-.25.22-.41.07l-.33-.29c-.28-.22-.53-.22-.74.02-.18.2-.27.48-.26.81Zm13.58.96c.28 0 .44-.15.5-.44a16 16 0 0 0 0-1.83c0-.14.06-.21.19-.21h.26c.11 0 .17.06.17.19l-.03 1.8c0 .4-.1.66-.29.81-.16.13-.43.2-.8.2-.37 0-.63-.06-.8-.18-.19-.15-.29-.42-.3-.8L34 34.2c0-.13.05-.2.16-.2h.27c.13 0 .19.07.19.21-.02 1.05 0 1.66.03 1.83.05.29.22.43.5.43Zm-1.63-.77c-.01.37-.14.68-.4.93-.25.25-.55.37-.9.36l-.25-.01a1.18 1.18 0 0 1-.88-.43c-.23-.27-.35-.6-.33-.96v-.31c.02-.37.15-.68.4-.93.26-.25.56-.37.9-.36l.26.01c.35.01.64.16.88.43.23.27.35.59.33.96v.3Zm-2.2-.2c0 .57.38 1.03.85 1.02.47 0 .84-.47.83-1.04 0-.56-.39-1.02-.85-1.01-.47 0-.84.47-.84 1.04Z" fill="#F0F3FA"/></svg>