<!-- by TradingView --><svg width="56" height="56" viewBox="0 0 56 56" xmlns="http://www.w3.org/2000/svg"><path fill="#F0F3FA" d="M0 0h56v56H0z"/><path d="M34.3 14.24a78.96 78.96 0 0 0-9.25 9.18.28.28 0 0 1-.5-.13c-.45-2.54-.42-5.02.08-7.44a.98.98 0 0 1 .54-.7c2.04-1 4.08-1.94 6.13-2.83a3.12 3.12 0 0 1 3.57.57c.3.26.3.53.03.82l-.6.53ZM19.76 37.85c2.21 2.63 9.02.86 11.54-.03.37-.13.72-.09 1.07.13l1.5.98c.32.19.3.37-.05.53a1339.3 1339.3 0 0 0-8.62 4.02c-2.65 1.25-3.76.12-5.2-2.08L9.7 25.73c-1.57-2.4-.24-3.25 1.87-4.24l9.38-4.37a.2.2 0 0 1 .27.09.2.2 0 0 1 .02.1c-.13 2.75.26 5.44 1.17 8.08.2.58.2 1.14-.18 1.68-1.97 2.7-4.99 7.79-2.47 10.78Zm12.8-1.77c.18.04.37.03.54-.02l.2-.07a73.76 73.76 0 0 0 12.52-6.3.23.23 0 0 0 0-.26l-7.5-11.35a.29.29 0 0 0-.33-.12.29.29 0 0 0-.11.06c-3.8 3.27-7.75 7-10.69 11.08a.86.86 0 0 0-.02 1.05 26.55 26.55 0 0 0 4.92 5.7c.14.11.3.2.48.23Zm3.82 2.2c-.36.17-.71.15-1.05-.04l-1.24-.73c-.4-.24-.4-.45.02-.63 4.16-1.8 8.14-3.78 11.94-5.97.64-.37.96-.17.96.59v.54a2.02 2.02 0 0 1-1.2 1.85l-9.43 4.4ZM24.5 34.73c-.33 3.29 3.95 2.58 5.85 2.18a.1.1 0 0 0 .05-.03.12.12 0 0 0 .03-.06c.05-.16 0-.3-.13-.41-1.8-1.48-3.28-3-4.45-4.57a.3.3 0 0 0-.27-.12.3.3 0 0 0-.25.17 8.52 8.52 0 0 0-.83 2.84Z" fill="#FCDB01"/></svg>