<!-- by TradingView --><svg width="56" height="56" viewBox="0 0 56 56" xmlns="http://www.w3.org/2000/svg"><path fill="#F0F3FA" d="M0 0h56v56H0z"/><path d="M27.67 8.05v6.84h-.01l-1.68-1.7a.05.05 0 0 1-.02-.05l1.68-5.1c.02-.06.03-.05.03 0ZM28.36 8.05l1.67 5.1v.04l-1.68 1.7h-.01a.01.01 0 0 1 0-.01V8.06c0-.06 0-.07.02 0ZM24.07 18.9l1.64-4.99h.01a.02.02 0 0 1 .02 0l1.92 1.95v6.67l-.01.01-3.58-3.61v-.02ZM30.29 13.92l1.64 5v.01l-3.57 3.6a.02.02 0 0 1-.02 0v-6.68l1.92-1.94h.02ZM22.18 24.65l1.64-4.98v-.01h.03l3.81 3.86v6.66a.02.02 0 0 1 0 .01.02.02 0 0 1-.02 0l-5.45-5.52v-.02ZM32.18 19.66l1.64 5v.01l-5.46 5.52a.02.02 0 0 1-.02 0V23.5l3.8-3.85a.02.02 0 0 1 .04 0ZM20.28 30.44l1.66-5.03a.02.02 0 0 1 .02-.01l5.7 5.77V37.9a.02.02 0 0 1-.02 0l-7.35-7.44v-.02ZM34.06 25.42l1.65 5.02a.02.02 0 0 1 0 .02l-7.34 7.43a.02.02 0 0 1-.03 0v-6.72l5.7-5.76a.02.02 0 0 1 .01 0 .02.02 0 0 1 .01 0Z" fill="#C42126"/><path d="M28 41.45h.01L38.1 31.22c.49-.5 1.3-.53 1.81-.07.11.1.23.26.36.49A14160.12 14160.12 0 0 0 43 36.45l-.01.02-3.9 3.94a.02.02 0 0 1-.03 0l-1.82-3.19h-.01a.02.02 0 0 0-.02 0l-8.24 8.37c-.27.27-.6.41-.97.41s-.7-.14-.97-.41a97408.61 97408.61 0 0 0-8.27-8.37l-1.82 3.19a.02.02 0 0 1-.03 0L13 36.47l-.01-.02v-.02l2.73-4.8c.13-.22.25-.38.36-.48a1.33 1.33 0 0 1 1.81.07A26607.33 26607.33 0 0 0 28 41.45Z" fill="#C42126"/></svg>