<!-- by TradingView --><svg width="56" height="56" viewBox="0 0 56 56" xmlns="http://www.w3.org/2000/svg"><path fill="#F0F3FA" d="M0 0h56v56H0z"/><path d="M11.15 29.38c-.17-1.25-.2-2.24-.08-2.96.4-2.38 1-4.78 2.18-6.82 1.09-1.89 2.48-3.54 4.17-4.95a15.67 15.67 0 0 1 9.8-3.65c5.32 0 7.93.91 11.52 3.67 1.03.78 2.06 1.88 3.08 3.29a17.04 17.04 0 0 1 2.8 6.1c.44 1.85.39 3.19.36 5.27a17.61 17.61 0 0 1-2.37 7.38 20.02 20.02 0 0 1-4.9 5.15c-.64.39-1.33.9-2.04 1.24a16.84 16.84 0 0 1-3.99 1.4c-.59.13-.97.2-1.13.25-.5.12-.88.18-1.14.2-.87.06-2.52.12-3.64-.14l-.93-.22a14.7 14.7 0 0 1-5.24-2c-.49-.32-1.18-.7-1.71-1.1a17.15 17.15 0 0 1-3.28-3.27c-.48-.63-.79-1.2-1.3-1.95-.15-.24-.3-.5-.46-.8a19.5 19.5 0 0 1-1.7-6.1Zm27.54 1.04c-.07.2 0 .33.18.4a14 14 0 0 0 4.85 1.22c.2 0 .32-.08.37-.28.66-2.66.65-5.28-.02-7.87a16.33 16.33 0 0 0-8.22-10.58c-5.17-2.52-11.34-2.52-16.25.43a16.51 16.51 0 0 0-7.52 18.1.35.35 0 0 0 .33.27 10.46 10.46 0 0 0 5.15-1.25.13.13 0 0 0 .03-.1c0-.02 0-.04-.02-.05-.14-.25-.24-.5-.28-.74-.8-4.64 1.1-8.97 5.04-11.47a10.9 10.9 0 0 1 11.69.14A10.85 10.85 0 0 1 39 28.31c-.01.78-.12 1.49-.32 2.11Zm-19.36 1.26c.07.53.24 1.12.52 1.79.01.03.04.06.07.07.03.02.07.02.1.01a29.32 29.32 0 0 1 16.67-.01c.07.02.11 0 .13-.08l.68-2.4a.27.27 0 0 1 .11-.14l.52-.38a.33.33 0 0 0 .13-.2 10.4 10.4 0 0 0-4-10.89 9.58 9.58 0 0 0-5-1.98c-7.41-.7-12.9 5.7-11.4 12.88a.45.45 0 0 0 .45.37c.58 0 .94.35 1.02.96Zm20.64 1.1c.61.3 1.62 1.04 1.01 1.82a56.77 56.77 0 0 1-1.65 2.09.04.04 0 0 0 .03.02l2.18.5c.04 0 .07 0 .1-.04a14.3 14.3 0 0 0 1.26-2 356.5 356.5 0 0 0 1-2.58.17.17 0 0 0-.16-.15c-1.82.03-3.78-.67-5.27-1.37-.23-.1-.43-.06-.6.13v.02c-.17.2-.14.37.1.5.57.32 1.24.68 2 1.06ZM15.47 34c.2-.4.55-.73 1.04-.97 1.2-.6 1.93-.98 2.2-1.16a.37.37 0 0 0 .17-.27c0-.06 0-.11-.02-.16a.31.31 0 0 0-.1-.12l-.06-.04a.73.73 0 0 0-.84-.05 9.88 9.88 0 0 1-5.43 1.3.2.2 0 0 0-.11.25c.54 1.73 1.3 3.25 2.27 4.56a.3.3 0 0 0 .32.11l2.18-.62a.17.17 0 0 0 .11-.1.16.16 0 0 0-.03-.16l-1.62-1.93a.59.59 0 0 1-.08-.64Zm22.24-1.85-.64 1.42a.06.06 0 0 0 .03.08l.46.2a13.1 13.1 0 0 0 2.04.71c.29.06.52.09.7.08.17-.01.27-.06.3-.14l.15-.32c.07-.16-.15-.44-.62-.8a10.7 10.7 0 0 0-1.88-1.05l-.46-.2a.06.06 0 0 0-.08.02ZM19.5 33.6l-.53-1.22a.07.07 0 0 0-.1-.04l-.04.02a17.99 17.99 0 0 0-2.21 1.16c-.28.19-.5.35-.62.5-.13.14-.18.25-.15.33l.07.16c.07.15.48.16 1.13 0 .66-.14 1.5-.43 2.36-.8l.05-.02c.02 0 .03-.02.04-.04v-.05Zm19.67 1.33a25.12 25.12 0 0 0-3.52-1.22c-6-1.54-12.54-.94-18.31 1.2-.28.1-.51.07-.76.13-.11.02-.13.08-.06.17l3.03 3.6a.37.37 0 0 0 .42.1c5.4-2.18 11.44-1.96 16.88.06a.37.37 0 0 0 .43-.13l2.66-3.66a.1.1 0 0 0 0-.1.1.1 0 0 0-.1-.05c-.25.01-.48-.02-.67-.1Zm-19.35 4.5a.28.28 0 0 1-.16.02.21.21 0 0 1-.13-.07l-1.95-2.33a.15.15 0 0 0-.1-.05c-.05 0-.09 0-.12.03-.63.47-1.36.71-2.18.72a.19.19 0 0 0-.18.2c0 .04.02.08.04.1a17.46 17.46 0 0 0 7.55 5.44c.77.29 1.38.4 2.48.64.68.15 1.32.23 1.9.26 5.8.22 10.55-1.95 14.25-6.5a.18.18 0 0 0-.09-.3l-1.75-.49a.37.37 0 0 0-.43.15l-1.54 2.12a.33.33 0 0 1-.38.11 24.09 24.09 0 0 0-16.22-.5c-.28.1-.76.34-.99.45Z" fill="#112EEB"/><path d="m30.88 14.09-.3.6a.36.36 0 0 0-.04.25c.02.07.05.13.1.19.07.07.07.13 0 .2l-.49.4a.27.27 0 0 1-.2.06l-1.37-.09c-.2-.01-.29-.11-.27-.3l.14-2.28a.2.2 0 0 1 .13-.17.2.2 0 0 1 .08-.01h.1c.16.02.23.1.21.25a44.27 44.27 0 0 0-.1 1.84c.09.27.33.4.72.4.16 0 .27-.08.33-.23l.72-1.72a.24.24 0 0 1 .2-.16c.23-.02.36-.07.41-.15.06-.08.03-.12-.06-.12-.11 0-.2-.01-.26-.06-.08-.05-.12-.13-.12-.26 0-.1.04-.14.14-.1.12.06.2.12.26.18.06.05.12.06.18.01.05-.03.13-.04.23-.02s.12.07.07.16a.53.53 0 0 1-.21.19c-.08.04-.11.1-.1.2.13.95.13 1.76 0 2.41-.11.52-.29.55-.53.07-.28-.53.28-1.15.26-1.7-.02-.3-.1-.3-.23-.04ZM26.84 14.4c.02.22.03.43.02.65 0 .18.06.28.19.29.1 0 .15-.03.18-.13l.1-.34a.25.25 0 0 1 .15-.18c.13-.05.24-.04.34.04.07.05.1.13.08.22-.08.47-.4.94-.95.86-.63-.1-.63-.76-.68-1.36-.04-.6-.14-1.26.47-1.45.52-.17.92.25 1.07.7a.2.2 0 0 1-.05.23c-.09.1-.2.12-.33.09a.25.25 0 0 1-.18-.15l-.15-.33c-.04-.08-.1-.11-.2-.1-.12.04-.17.14-.14.32.04.22.07.43.08.64ZM25.92 15.15a.71.71 0 0 1-.49.89l-.1.03a.72.72 0 0 1-.9-.49l-.38-1.3a.71.71 0 0 1 .5-.9l.1-.03a.72.72 0 0 1 .89.49l.38 1.31Zm-.89-1.2a.24.24 0 0 0-.3-.17.24.24 0 0 0-.18.3l.35 1.36a.24.24 0 0 0 .3.17h.01a.24.24 0 0 0 .18-.3l-.36-1.35ZM33.03 13.82l-.1-.04a.27.27 0 0 0-.35.14l-.88 2c-.06.14 0 .3.13.35l.1.05c.14.06.3 0 .35-.14l.88-2.01a.26.26 0 0 0-.13-.35ZM23.97 15.74a.67.67 0 0 1-.34.88l-.18.08a.68.68 0 0 1-.89-.34l-.59-1.33a.67.67 0 0 1 .35-.89l.18-.08a.68.68 0 0 1 .88.35l.6 1.33Zm-1.08-1.15a.23.23 0 0 0-.22-.13c-.03 0-.06 0-.08.02h-.02a.23.23 0 0 0-.12.3l.6 1.34a.23.23 0 0 0 .3.11h.02a.22.22 0 0 0 .11-.3l-.6-1.34ZM33.12 16.88a.04.04 0 0 1-.06.02l-.09-.04c-.07-.03-.12-.1-.16-.19a.95.95 0 0 1-.04-.35c0-.15.03-.3.07-.47.04-.17.1-.35.18-.52l.03-.07c.16-.35.36-.65.57-.85.2-.2.4-.28.54-.22l.1.04.01.03v.03l-1.15 2.6ZM35.13 17.44a.4.4 0 0 1-.54.16l-.66-.36a.4.4 0 0 1-.2-.4c0-.04.01-.1.04-.14l.92-1.7a.4.4 0 0 1 .54-.15l.66.35a.4.4 0 0 1 .2.4.4.4 0 0 1-.04.14l-.92 1.7Zm-.04-1.16.21-.04a.2.2 0 0 0 .16-.15c.05-.23.05-.42 0-.58a.22.22 0 0 0-.32-.12.22.22 0 0 0-.09.09l-.73 1.26a.2.2 0 0 0 0 .22c.1.17.23.22.39.13a.23.23 0 0 0 .12-.16l.08-.47a.2.2 0 0 1 .18-.18ZM21.08 16.86l.42.58a.22.22 0 0 1-.05.3l-.11.08c-.08.06-.14.05-.2-.03L19.8 15.9a.31.31 0 0 1 .07-.43c.6-.44 1.27-.8 1.73.1.31.62-.15.76-.48 1.06-.08.07-.09.14-.03.23Zm0-.7a.27.27 0 0 0 .06-.25.48.48 0 0 0-.15-.26.53.53 0 0 0-.13-.09.44.44 0 0 0-.15-.04l-.13.01a.24.24 0 0 0-.1.07.27.27 0 0 0-.06.24c.01.09.07.18.15.26l.13.09.14.04.13-.01a.24.24 0 0 0 .1-.07ZM37.25 17.99a3.05 3.05 0 0 0-.88.76.17.17 0 0 1-.19.07c-.16-.03-.26-.12-.3-.25 0-.02 0-.05.03-.1a110.36 110.36 0 0 1 1.76-1.86c.03 0 .06-.02.08-.01.14.02.23.12.27.28.02.07 0 .14-.06.19a3.02 3.02 0 0 0-.71.92ZM19.93 18.34a.42.42 0 0 1 0 .59l-.52.5a.42.42 0 0 1-.59 0l-1.34-1.37a.42.42 0 0 1 0-.59l.51-.5a.42.42 0 0 1 .6 0l1.34 1.37Zm-1.11-.3.03-.22a.2.2 0 0 0-.1-.18c-.2-.12-.38-.18-.54-.18a.22.22 0 0 0-.2.13.22.22 0 0 0 .04.24l.98 1.07a.2.2 0 0 0 .2.07c.2-.04.28-.15.24-.32a.23.23 0 0 0-.11-.17l-.43-.22a.2.2 0 0 1-.11-.22ZM38.05 17.67c.03-.04.1-.13.24-.25.15-.14.28-.15.42-.05a.24.24 0 0 1 .08.28.25.25 0 0 1-.06.08l-1.7 1.7a.23.23 0 0 1-.27.04.24.24 0 0 1-.07-.07.38.38 0 0 1-.09-.2c0-.09.03-.15.1-.2.33-.15.56-.43.7-.81a.3.3 0 0 1 .14-.18c.19-.1.37-.14.51-.34ZM40.07 18.69c-.13-.3-.06-.54.21-.75.12-.09.21-.07.3.04l.15.21c.07.1.06.18-.04.25l-.49.35c-.06.04-.1.1-.1.17-.1.85-.8 1.21-1.7 1.85a.23.23 0 0 1-.24.02c-.33-.15-.57-.4-.71-.73a.21.21 0 0 1 .03-.23c.52-.66 1.32-1.55 2.06-1.44.09.02.13.07.12.16v.1c0 .08-.05.13-.12.16-.59.2-1.12.6-1.59 1.2-.06.09-.05.15.04.2.13.08.26.07.39-.02.3-.24.68-.53 1.1-.9.06-.06.1-.12.13-.2.05-.16.18-.26.37-.28a.12.12 0 0 0 .09-.16ZM18.8 20.1a.05.05 0 0 1 .03.03.06.06 0 0 1-.01.04l-.14.17c-.04.04-.1.06-.2.06-.09 0-.2-.03-.32-.09a4.15 4.15 0 0 1-.85-.54l-.03-.03c-.29-.24-.53-.5-.68-.74-.14-.24-.18-.42-.1-.51l.13-.17h.02l.02-.02h.02l.02.02 2.1 1.77Z" fill="#112EEB"/><path d="M26.03 27.7c-.38-.03-.62-.38-.9-.55-.31-.19-.88-.16-.98-.7-.02-.1-.07-.14-.16-.14-.1 0-.16.05-.2.15-.1.32-.12.46-.22.6a.13.13 0 0 1-.08.06c-.27.06-.27-.28-.02-1.02a.15.15 0 0 0 0-.1.16.16 0 0 0-.07-.08c-.15-.08-.28-.08-.4 0-.35.24-.26.94-.26 1.4a.38.38 0 0 1-.2.32.3.3 0 0 1-.1.04c-.17.03-.24-.04-.23-.2a5.3 5.3 0 0 1 .45-1.81.33.33 0 0 0 .01-.22.23.23 0 0 0-.12-.15.18.18 0 0 0-.09-.05.2.2 0 0 0-.1 0 .24.24 0 0 0-.08.04.25.25 0 0 0-.07.08c-.48.84-.53 1.71-.6 2.7 0 .13-.1.2-.26.24-.06.02-.12 0-.17-.05a.28.28 0 0 1-.09-.31l.9-3.14c.03-.12-.01-.2-.12-.24a.2.2 0 0 0-.09-.02c-.16 0-.26.05-.3.13a9.64 9.64 0 0 0-1.03 4.09.36.36 0 0 1-.24.33l-.15.06c-.2.07-.3 0-.29-.22.06-.86.49-1.6.64-2.41.11-.64.67-1.38.8-2.23.02-.09-.02-.15-.1-.18a.14.14 0 0 0-.06-.02.22.22 0 0 0-.2.1 6.18 6.18 0 0 0-1.21 2.94.43.43 0 0 1-.1.2.53.53 0 0 1-.18.15.35.35 0 0 1-.25-.02.21.21 0 0 1-.1-.14 16.79 16.79 0 0 1 1.7-4.01c.63-1.07 2.83-3.28 4.18-1.76.21.24.28.59.42.89.26.58 1.02.42 1.4.06.17-.17.2-.36.1-.57-.13-.24-.2-.47-.23-.66a.44.44 0 0 1 .05-.25c.17-.35.12-.63-.16-.85a.2.2 0 0 1-.05-.24c.14-.28.22-.55.26-.82 0-.11.06-.14.16-.08.17.12.32.19.46.22.07.01.15 0 .23-.03.73-.35 1.29-.69 2.1-.58a.17.17 0 0 1 .1.28.98.98 0 0 1-.4.22.27.27 0 0 0-.1.05c-.22.19-.1.43.34.74.13.08.19.2.18.36l-.11 1.72c-.02.22.07.38.27.49.58.31 1.03.3 1.44-.28.42-.6 1.16-1.68 1.98-1 2.17 1.76 2.67 4.3 3.02 6.9.01.12-.04.17-.16.13l-.09-.02a.36.36 0 0 1-.29-.34c-.11-1.11-.4-2.18-.84-3.2a.3.3 0 0 0-.2-.18l-.07-.02c-.06-.02-.08 0-.07.07l.9 4.53a.11.11 0 0 1-.1.14l-.06-.01a1.01 1.01 0 0 1-.56-.8c-.07-.55-.15-1.07-.24-1.55-.19-1.06-.26-1.78-.84-2.37-.06-.06-.13-.06-.2 0-.1.1-.13.23-.05.39.5 1.02.77 2.1.8 3.23 0 .15-.07.2-.21.14a.55.55 0 0 1-.24-.19.76.76 0 0 1-.14-.48c.04-.98-.2-1.9-.74-2.74-.02-.03-.12-.06-.32-.08l-.07.01a.33.33 0 0 0-.07.2c0 .08 0 .16.04.25l.73 1.77v.08a.2.2 0 0 1-.04.09.3.3 0 0 1-.1.06.37.37 0 0 1-.12.03h-.09c-.2 0-.3-.1-.3-.26-.02-.5-.13-1.5-.61-1.66a.13.13 0 0 0-.18.15l.19.94a.16.16 0 0 1-.14.19l-.09-.01a3.4 3.4 0 0 0-1.18-.27.1.1 0 0 0-.06.07.1.1 0 0 0 0 .04l.13.66c.02.1-.02.16-.13.17l-.47.05a.16.16 0 0 0-.07.03.15.15 0 0 0-.05.05.13.13 0 0 0-.02.07c0 .02 0 .04.02.06.47.69.51 1.39.13 2.1-.04.08-.04.16.02.23l.19.22a.17.17 0 0 1 .03.16.16.16 0 0 1-.13.1l-.24.06c-.08.01-.13.06-.13.15l-.04.52c0 .07-.04.1-.1.1l-.34-.03c-.11 0-.18.05-.2.15l-.12.38c-.03.11-.1.14-.2.08-.33-.17-.61-.14-.84.1a.22.22 0 0 1-.22.07.23.23 0 0 1-.16-.16c-.04-.17-.16-.24-.36-.2l-.4.07c-.1.01-.16-.03-.18-.13l-.09-.45c-.02-.08-.06-.12-.14-.12l-.37-.03a.25.25 0 0 1-.23-.2v-.11l.2-.68c.02-.07 0-.12-.06-.16a.8.8 0 0 0-.24-.1.2.2 0 0 1-.15-.15.19.19 0 0 1 .08-.2c.4-.26.44-.52.16-.79-.08-.07-.09-.14-.02-.23l.31-.43a.11.11 0 0 0 .01-.12.1.1 0 0 0-.1-.06Zm2.42-7.84a.25.25 0 0 0 0-.12.31.31 0 0 0-.06-.11.4.4 0 0 0-.1-.1.48.48 0 0 0-.43-.05.31.31 0 0 0-.1.08.25.25 0 0 0-.07.22c.01.05.03.09.06.12a.4.4 0 0 0 .1.1.48.48 0 0 0 .43.04.31.31 0 0 0 .1-.07.25.25 0 0 0 .07-.1Z" fill="#C8002B"/><path d="M17.06 19.93c.22.36.52.66.9.9a.25.25 0 0 1 .11.3.26.26 0 0 1-.06.1l-.08.09c-.1.09-.19.09-.28 0a9.16 9.16 0 0 0-1.8-1.3c-.1-.06-.16-.12-.17-.18a.45.45 0 0 1 0-.17c.03-.1.1-.19.18-.24a.4.4 0 0 1 .29-.05c.44.1.75.28.91.55ZM40.07 21.44a.17.17 0 0 0-.02.25l.08.08c.05.07.12.08.19.03l.76-.55a.27.27 0 0 1 .4.08l.03.07c.06.1.04.17-.07.23l-2.07 1.2a.2.2 0 0 1-.16.02c-.2-.06-.3-.2-.27-.44.01-.1.08-.19.2-.28a16.43 16.43 0 0 0 .86-.73.13.13 0 0 0-.1-.17c-.32-.05-.66.2-1.09.5-.11.08-.22.07-.33-.02a.22.22 0 0 1-.06-.12c-.03-.12 0-.22.12-.28l2-1.16c.13-.07.24-.05.33.08l.07.09a.33.33 0 0 1-.06.45l-.8.67ZM15.5 21.34a.08.08 0 0 0-.05.13c.3.33.67.55 1.13.66.08.02.15.07.2.13.15.18.24.34.27.48.04.14 0 .25-.11.34-.07.05-.14.04-.2-.02-.55-.5-1.49-.96-2-1.68-.09-.1-.06-.16.08-.15l.2.01c.14.01.16-.03.05-.12l-.26-.21c-.12-.1-.2-.1-.23.04a.7.7 0 0 0-.02.11v.12l-.03.06c-.05.08-.14.11-.25.09a.13.13 0 0 1-.1-.2l.39-.66c.03-.06.08-.07.15-.03.06.03.12.11.2.23.04.07.1.1.18.13l2.34.66c.2.06.26.19.16.38-.04.1-.09.16-.14.18-.09.05-.19.07-.29.08a.55.55 0 0 1-.26-.06c-.37-.19-.93-.72-1.4-.7ZM14.83 23.54c.26.25.73.48 1.42.68.13.03.19.11.19.24 0 .04 0 .07-.02.11-.03.07-.08.1-.16.08l-1.08-.19a.36.36 0 0 1-.22-.13c-.28-.34-.56-.6-.86-.75a.22.22 0 0 1-.13-.2.82.82 0 0 1 .2-.61.2.2 0 0 1 .2-.06l2.18.62c.1.03.15.1.13.2l-.04.25c-.02.1-.08.15-.19.11l-1.53-.5c-.25-.09-.28-.04-.09.15ZM41.48 24.59c.25-.05.48-.14.72-.28a.27.27 0 0 1 .33.06c.1.11.13.23.07.34a.2.2 0 0 1-.12.1l-2.3.65c-.16.05-.25-.01-.25-.19v-.07c-.01-.13.05-.2.16-.24l.69-.2c.13-.03.19-.12.18-.26l-.01-.16a.16.16 0 0 0-.15-.15h-.07l-.76.29c-.16.06-.27.01-.32-.14l-.04-.09a.2.2 0 0 1 .14-.26l2.33-.67c.1-.03.17 0 .2.11l.03.1a.23.23 0 0 1-.16.3l-.7.2a.23.23 0 0 0-.17.16.47.47 0 0 0 .02.29c.02.1.09.13.18.11ZM15.21 24.8c.24.08.5.15.82.22.17.04.24.14.2.31l-.01.07c-.04.16-.13.22-.3.17l-2.22-.63c-.1-.02-.14-.08-.14-.18 0-.2.06-.4.2-.62a.35.35 0 0 1 .56-.05c.27.29.44.56.9.71ZM40.03 26.77a.71.71 0 0 1-.5.06c-.06-.01-.09-.05-.08-.11v-.1c0-.05.03-.09.09-.1a.87.87 0 0 1 .4 0c.07.02.13-.01.17-.08.34-.65 1-.61 1.72-.7.72-.08 1.14.2 1.04.95-.01.08 0 .15.05.2l.23.33c.06.08.05.15 0 .22-.03.05-.09.07-.15.06-.33-.02-.36-.34-.85-.28-.75.08-1.69.33-1.95-.38a.12.12 0 0 0-.17-.07Zm2.44-.34a.24.24 0 0 0-.17-.21.25.25 0 0 0-.1-.01l-1.43.13a.25.25 0 0 0-.22.27v.04a.24.24 0 0 0 .17.21l.1.01 1.44-.13a.25.25 0 0 0 .22-.27v-.04ZM15.8 26.77l-2.35-.15a.2.2 0 0 0-.22.18v.16c-.01.12.07.21.18.22l2.34.16a.2.2 0 0 0 .22-.19l.01-.16a.2.2 0 0 0-.19-.22ZM13.9 28.62l-.45-.19a.3.3 0 0 1-.2-.25l-.01-.08a.17.17 0 0 1 .23-.2l1 .42.1.02a.2.2 0 0 0 .09-.03l1.06-.61c.13-.08.2-.04.2.11l.01.1c0 .16-.05.27-.17.34l-.47.23c-.25.13-.24.21.04.25.12.01.34.08.64.2a.2.2 0 0 1 .12.23l-.02.1a.16.16 0 0 1-.22.13l-1.16-.46c-.07-.03-.14-.02-.23.04l-.75.49c-.13.08-.25.1-.35.06a.19.19 0 0 1-.09-.27c.14-.22.34-.38.62-.5.11-.04.11-.09 0-.13ZM41.27 28.5c0-.1-.06-.15-.16-.16l-.7-.01a.21.21 0 0 1-.21-.21v-.14c0-.1.05-.13.14-.13l2.27.04a.31.31 0 0 1 .29.2.3.3 0 0 1 .02.11c0 .73-.12 1.47-1.1 1.3-.67-.12-.5-.57-.55-1Zm1.07-.08-.55-.05a.11.11 0 0 0-.12.1v.04c-.02.14.01.27.07.38.06.1.14.16.24.17h.06c.05 0 .1 0 .14-.02a.38.38 0 0 0 .13-.1.73.73 0 0 0 .13-.36v-.04a.11.11 0 0 0-.1-.12Z" fill="#112EEB"/><path d="M28.08 35.04c.24.03.43 0 .55-.1a.2.2 0 0 0 .08-.14l.04-.58c.01-.17.1-.24.27-.23l.32.02c.2.01.29.12.28.31l-.15 2.2c0 .15-.09.22-.24.21l-.32-.02a.2.2 0 0 1-.14-.07.2.2 0 0 1-.05-.15l.05-.75c.01-.19-.08-.29-.26-.3l-.23-.01c-.19-.01-.28.07-.3.26l-.05.73c0 .2-.12.3-.32.28h-.13a.33.33 0 0 1-.21-.1.32.32 0 0 1-.09-.23V34.2c0-.13.07-.2.2-.2h.28a.25.25 0 0 1 .25.25v.6c0 .12.06.18.17.2ZM34.75 36.57c-.13-.5-.27-.5-.42.02-.04.12-.1.38-.19.78-.01.09-.07.14-.15.15a.5.5 0 0 1-.37-.1.37.37 0 0 0-.15-.06l-2.27-.4a.3.3 0 0 1-.24-.25.3.3 0 0 1 0-.12l.59-2.04a.3.3 0 0 1 .43-.18c.3.16.51.11.6-.14a.29.29 0 0 1 .16-.17c.16-.07.3-.07.4 0 .06.04.1.1.11.16l.06.3c.02.1.08.16.17.2.17.04.27.08.28.11.19.39.06.52-.37.4l-1.04-.31c-.18-.06-.29 0-.32.2l-.01.06c-.03.17.04.27.2.3l1.16.24c.15.03.2.13.17.32a.25.25 0 0 1-.14.16.3.3 0 0 1-.21 0l-.98-.3c-.26-.1-.4 0-.45.26l-.02.1c-.05.26.06.4.32.4.53.02.98.17 1.35.44a.18.18 0 0 0 .27-.09l.55-1.92a.33.33 0 0 1 .42-.23c.7.21.4.7.57 1.15.18.46.34.44.48-.05l.12-.42c.04-.14.14-.2.28-.18l.15.05a.1.1 0 0 1 .04.03c.02.01.03.03.04.06V35.65l-.61 2.13a.27.27 0 0 1-.26.2c-.26 0-.4-.1-.46-.3l-.26-1.1ZM30.77 34.14l-.3-.05a.19.19 0 0 0-.21.16l-.34 2.28c-.02.1.05.2.15.21l.3.05c.1.01.2-.05.22-.16l.34-2.28a.18.18 0 0 0-.16-.21ZM23.65 37.05l-1.91.7a.25.25 0 0 1-.33-.14l-.73-1.98c-.07-.19-.02-.31.17-.38l.1-.03c.21-.09.36-.02.44.2l.55 1.47a.36.36 0 0 0 .53.17c.4-.25.76-.32 1.1-.2.09.03.14 0 .16-.09.08-.36.19-.9.31-1.65.1-.57.27-.83.85-.81a.2.2 0 0 1 .15.08l1.44 2a.2.2 0 0 1-.1.3l-.21.09a.44.44 0 0 1-.51-.16l-.33-.45a.18.18 0 0 0-.2-.08c-.57.12-.88.4-.92.87a.17.17 0 0 1-.16.15.39.39 0 0 1-.23-.05.18.18 0 0 0-.17-.01Zm1.28-1.65a.26.26 0 0 0-.2-.22.26.26 0 0 0-.1 0l-.13.02a.26.26 0 0 0-.21.19v.22a.26.26 0 0 0 .3.22l.14-.02a.26.26 0 0 0 .21-.19v-.22Z" fill="#C70012"/><path d="M27.05 43.07c-2.03-.15-3.8-.63-4.86-1.05l1.06-2.61c.78.31 2.26.73 4 .85 1.72.12 3.6-.06 5.25-.83L33.69 42a13.64 13.64 0 0 1-6.64 1.08Z" fill="#112EEB" fill-opacity=".6"/></svg>