<!-- by TradingView --><svg width="56" height="56" viewBox="0 0 56 56" xmlns="http://www.w3.org/2000/svg"><path fill="#F0F3FA" d="M0 0h56v56H0z"/><path d="m28.1 9 2.7 4.37L46 38.27l-13.53 4.36c-.01-.01-.02-.02-.03-.01a442.97 442.97 0 0 1-4.4 1.38l-18-5.67c-.04-.06-.05-.1-.03-.15A719032.87 719032.87 0 0 0 28.11 9Zm-.05 18h-.02l-.01.02a.04.04 0 0 0-.02.03v8.57c0 .01 0 .02.02.03l.03.01h5.91c.02 0 .04.01.04.03v4.28l-.01.02H28.05a.04.04 0 0 0-.05.05v3.27a.01.01 0 0 0 .01 0v.01h.01l17.03-5.37a.02.02 0 0 0 .02-.02.02.02 0 0 0 0-.01L28.02 10.26c-.01-.02-.02-.01-.02 0v12.32c0 .03-.01.05-.05.05a9.18 9.18 0 0 0-4.75.96 8.85 8.85 0 0 0-4.92 6.54 8.6 8.6 0 0 0 3.46 8.22c1.67 1.23 3.48 1.65 5.62 1.67.2 0 .4 0 .6-.03.02 0 .04-.01.04-.03v-4.2l-.01-.01-.01-.02a.03.03 0 0 0-.03 0 4.44 4.44 0 0 1-3.02-.69 4.23 4.23 0 0 1-1.76-5.18 4.61 4.61 0 0 1 4.8-2.95l.02-.02.01-.01V22.65H33.98a.02.02 0 0 1 .02 0V26.98l-.01.02-.03.01h-5.91Z" fill="#1F1A17"/><path d="m32.9 27.2.02.02.03.01a4.02 4.02 0 0 1 2.25.8v.06c-.5.84-1.45 1.3-2.42 1.36-.02 0-.03-.01-.03-.03-.04-.32-.05-.6.33-.73.02 0 .03-.01.05-.03a.98.98 0 0 1 .28-.21.11.11 0 0 0 .05-.05.1.1 0 0 0 .01-.06s0-.02-.03-.04a.1.1 0 0 0-.04-.02c-.2-.04-.4-.14-.59-.3-.04-.04-.06-.08-.06-.11-.01-.22 0-.44.01-.67h.14ZM30.1 28.07a.03.03 0 0 0 0 .03.03.03 0 0 0 .01.02c.19.07.26.16.4.34.12.15.28.25.49.3a.1.1 0 0 0 .06 0c.06-.03.09-.08.17-.08.25.02.23.25.23.43 0 .02-.01.03-.04.04-.3.05-.47-.05-.74-.23a2.48 2.48 0 0 1-.8-.9 4.14 4.14 0 0 1 1.87-.76c.16-.03.38 0 .52-.03.02 0 .04 0 .05.02.03.05.04.1.04.14a.07.07 0 0 1-.03.06.07.07 0 0 1-.07 0 .67.67 0 0 0-.49-.02c-.25.08-.46.15-.63.22-.09.04-.16 0-.24.02-.28.1-.54.24-.8.4ZM28.14 30.92a4.06 4.06 0 0 1 1.4-2.62h.01l.01.02a3.1 3.1 0 0 0 1.55 1.26c.12.05.34.11.65.2.11.03.2.11.27.22l.26.35c.04.06.07.13.07.22a35.75 35.75 0 0 1-.01.65H28.2c-.04 0-.06-.01-.07-.05v-.25Z" fill="#D9741C"/><path d="M33.33 30.75c-.16-.1-.32-.25-.48-.43a.52.52 0 0 1-.11-.45v-.02h.03c1.03-.05 2.25-.6 2.74-1.53l.01-.01a.05.05 0 0 1 .06 0 4.16 4.16 0 0 1 1.4 2.9v.01H34c-.16 0-.19-.04-.32-.14a.86.86 0 0 1-.16-.18.91.91 0 0 0-.19-.15Zm1.52-.6c0-.03 0-.04-.02-.06a.15.15 0 0 0-.05-.03.25.25 0 0 0-.07-.02.32.32 0 0 0-.16.02.24.24 0 0 0-.06.03.14.14 0 0 0-.04.05v.05l.01.04.05.04.07.02a.32.32 0 0 0 .22-.05.15.15 0 0 0 .04-.05l.01-.05ZM33 31.2a.2.2 0 0 1-.13.04.17.17 0 0 1-.12-.06v-.01a.16.16 0 0 1-.03-.13c0-.02 0-.04.02-.07a.2.2 0 0 1 .05-.05l.22.28ZM28.14 31.85v-.18c0-.02 0-.04.02-.06a.08.08 0 0 1 .06-.02h4.1a.05.05 0 0 1 .04.05v1.34c0 .02 0 .03-.02.04a.06.06 0 0 1-.04.02 3.35 3.35 0 0 0-2.7 1.47c-.02.04-.05.04-.09 0a4.02 4.02 0 0 1-1.37-2.66ZM32.76 33.03h-.02v-1.4c0-.03.01-.04.03-.04h.41a.03.03 0 0 1 .03.02c.16.46.3 1 .27 1.47 0 .03-.02.05-.05.04l-.67-.09ZM35.49 34.5c-.21-.3-.42-.54-.62-.69a51 51 0 0 1-.36-.27.05.05 0 0 1-.02-.05c.04-.2.05-.4.05-.58 0-.34-.17-.68-.33-1.02a.52.52 0 0 1-.04-.26c0-.03.01-.04.03-.04h2.78a.03.03 0 0 1 .02.04 4.21 4.21 0 0 1-1.47 2.9.06.06 0 0 1-.04-.03Zm.42-.88v-.37a.01.01 0 0 0-.02-.02.9.9 0 0 0-.17.02.62.62 0 0 0-.14.04.29.29 0 0 0-.1.07.11.11 0 0 0-.03.07v.01c0 .05.05.1.13.14.08.04.19.06.3.06h.02v-.01Z" fill="#D9741C"/><path d="m32.01 34.11-.01.12c0 .02-.02.04-.05.04a.92.92 0 0 1-.22 0c-.06 0-.08.03-.07.11a.15.15 0 0 0 .07.12l.17.1a.14.14 0 0 1 .07.1.13.13 0 0 1-.04.1l-.1.12a.05.05 0 0 0-.02.06l.08.23c0 .02.02.04.05.04l.22.03c.03 0 .04 0 .06-.03l.04-.06c.05-.08.08-.08.1.02v.37a.05.05 0 0 1-.06.05 4.44 4.44 0 0 1-2.4-.82l.01-.03a2.95 2.95 0 0 1 2.37-1.35c.05 0 .08.02.08.07V34c0 .02 0 .04-.02.05a.06.06 0 0 1-.04.02h-.27l-.02.03ZM32.72 33.46v-.01h.02v-.01h.2c.06 0 .09.01.1.02v.01c0 .02-.03.04-.08.05l-.2.04h-.02v-.01l-.02-.09ZM33.02 34.75c.07-.2.12-.3.3-.4.27-.13.54-.3.83-.47.05-.03.1-.03.17.01.36.23.65.52.85.87a.06.06 0 0 1-.02.08 4.48 4.48 0 0 1-2.39.78l-.01-.03-.02-.43c0-.22.22-.23.29-.41Z" fill="#D9741C"/></svg>