<!-- by TradingView --><svg width="56" height="56" viewBox="0 0 56 56" xmlns="http://www.w3.org/2000/svg"><path fill="#1151B8" d="M0 0h56v56H0z"/><path fill-rule="evenodd" d="M28 40c11.6 0 21-5.37 21-12s-9.4-12-21-12S7 21.37 7 28s9.4 12 21 12Zm0-.64c10.07 0 18.23-5.09 18.23-11.36S38.07 16.64 28 16.64 9.77 21.73 9.77 28 17.93 39.36 28 39.36Z" fill="#fff"/><path d="M20.75 23.65v-.2a.45.45 0 1 1 .9 0v3.2c0 .2-.17.38-.38.38a.4.4 0 0 1-.4-.37c-.17-1.79-1.32-2.56-1.87-2.73V23c.53 0 1.41.43 1.75.65Zm.26 6.67A3.2 3.2 0 0 1 19 32.1v.9a3.49 3.49 0 0 0 2.98-2.5c.09-.28-.15-.54-.45-.54a.58.58 0 0 0-.52.36ZM18 23.06c-1.27.02-3.84 1.03-4 4.93-.18 4.87 3.35 4.98 4 4.93v-.82c-.25-.03-1-.28-1-1.07v-6.34c0-.27.37-.82 1-.84v-.8ZM39.75 23.65v-.2a.45.45 0 1 1 .9 0v3.2c0 .2-.17.38-.38.38a.4.4 0 0 1-.4-.37c-.17-1.79-1.32-2.56-1.87-2.73V23c.53 0 1.41.43 1.75.65Zm.26 6.67A3.2 3.2 0 0 1 38 32.1v.9a3.49 3.49 0 0 0 2.98-2.5c.09-.28-.15-.54-.45-.54a.58.58 0 0 0-.52.36ZM37 23.06c-1.27.02-3.84 1.03-4 4.93-.18 4.87 3.35 4.98 4 4.93v-.82c-.25-.03-1-.28-1-1.07v-6.34c0-.27.37-.82 1-.84v-.8ZM24 31.4v-4.16l.6 1.3v2.86l.93 1.08c.17.2.03.52-.22.52h-2.17c-.26 0-.39-.34-.2-.54L24 31.4ZM23.42 23.77h-.16a.39.39 0 1 1 0-.77h3.26l1.31 3.79.62-1.73v2.27l-1.56 5.24h-.37l-3.1-8.8ZM29 31.75V23h3.24c.93.5.25 1-.24 1.18v7.57l.64.71c.19.2.06.54-.2.54H28.4c-.27 0-.4-.36-.2-.55l.8-.7Z" fill="#fff"/></svg>