<!-- by TradingView --><svg width="56" height="56" viewBox="0 0 56 56" xmlns="http://www.w3.org/2000/svg"><path fill="#F0F3FA" d="M0 0h56v56H0z"/><path d="M48 38.64A20.07 20.07 0 0 1 38.68 41c-4.8 0-7.75-1.2-10.68-2.38-2.9-1.18-5.78-2.35-10.44-2.35-4.3 0-7.45 1.08-9.56 2.32V17h40v21.64Z" fill="#E21A22"/><path d="M41.66 36.77c2.18 0 3.8-.4 4.34-.61-1.94 1.32-6.1 1.84-6.93 1.84-.83 0-5.32 0-9.48-1.84-3.03-1.35-7.25-2.93-11.32-2.93-3.25 0-6.87 1.1-8.27 1.65A28 28 0 0 1 21.7 32c8.13 0 10.62 4.77 19.96 4.77Z" fill="url(#a)"/><path d="M15.39 26.13a3.46 3.46 0 0 1-2.65 1.13c-.49 0-.66-.63-.57-1.06.2-.95.85-1.55 1.69-2.03.21-.12.41-.19.6-.2a4.9 4.9 0 0 0-.83 1.11c-.16.27-.1.53.19.77a2.27 2.27 0 0 0 1.68-1.97c.08-.56-.3-.89-.85-.88a4 4 0 0 0-2.39 1.12A3.75 3.75 0 0 0 11 26.86c-.01.96.5 2.58 1.58 2.58.92 0 1.7-.25 2.45-.72.5-.3.97-1.07 1.4-1.54.18-.2.33-.42.37-.71.14-.89.6-4.22 2.05-4.12.1 0 .23.05.39.13.2.5.23 1 .1 1.54-.21.8-.57 1.47-1.07 1.99l-.5.48a.36.36 0 0 0-.11.22l-.18 1.58v.02l.02.02h.04l.35-.78c.3-.53.85-1.54 1.58-1.55.54-.01.54.42.53.85v2.12c-.01.23.08.33.25.28.33-.09.7-.71.73-1.06.1-1.1.73-2.17 2.02-2.18.9-.01 1.35.53 1.42 1.31.11.03.22.02.33-.02.5-.1.78-.4.85-.87.23-1.38.54-3.3 1.54-4.24a.7.7 0 0 1 .48-.19c.33 0 .52.19.57.57a4.6 4.6 0 0 1-1.62 3.88c-.14.11-.12.16-.13.32-.07 1.01-.1 1.64-.1 1.9.01.18.09.26.23.26.2-.14.36-.31.48-.53l.8-1.45c.2-.35.68-.98 1.15-.95.62.04.5 1.63.45 2.04-.02.21-.03.42-.02.63 0 .09.07.18.2.26.24-.1.45-.32.63-.68.42-.82.7-1.29.83-1.53.21-.39.53-.7.98-.72.85-.03.47 1.3.42 1.8v.12c.02.06.04.06.07 0 .25-.67.67-1.92 1.56-1.92.1 0 .2.03.3.09.37.26.2 1.18.16 1.58l.01.25c.03.12.06.12.1 0a4 4 0 0 1 1.1-1.71c.16-.14.34-.2.55-.21.1 0 .21.02.33.06.2.77.25 1.54.16 2.44-.04.3.02.6.18.66.34.02.61-.2.8-.44a.14.14 0 0 0 .04-.1c-.07-1.13.6-2.36 1.84-2.6.1-.02.22-.03.32-.03.94.01 1.59.77.93 1.67-.36.49-1.08.8-1.66.96-.07.02-.13.05-.16.09-.17.22.35.47.51.5.56.08 1.15-.08 1.47-.53.58-.8 1.1-1.23 1.56-2.32a.92.92 0 0 1 .26-.26.6.6 0 0 1 .35-.15c.13 0 .25.05.37.14l.57 1.14c.04.07.1.07.17-.01.26-.48.53-.92.83-1.33.23-.32.44-.48.63-.49.11 0 .22.04.31.14.07.22.07.37-.01.45-.55.55-1.02 1.24-1.48 1.85a.15.15 0 0 0-.02.16c.31.57.76 1.11 1.3 1.5.08.07.17.1.26.13.04 0 .07 0 .1-.02.2-.13.35-.28.44-.48a.25.25 0 0 1 .23-.14c.02 0 .03.03.03.08a.28.28 0 0 0-.05.1c-.06.23-.13.44-.22.66-.2.5-.58.69-.99.67-.63-.02-1.26-.94-1.59-1.4l-.1-.2a.1.1 0 0 0-.09-.05.1.1 0 0 0-.09.05c-.22.34-.47.6-.75.92-.13.15-.27.18-.45.18-.14-.1-.21-.2-.21-.33 0-.11.06-.24.19-.39.22-.25.5-.52.85-.94.1-.11.12-.23.07-.34-.07-.19-.32-.89-.59-.93a.13.13 0 0 0-.12.05c-.92 1.14-1.53 2.87-3.26 2.88-.6 0-1.2-.23-1.5-.75a.1.1 0 0 0-.08-.06c-.04 0-.08.01-.1.04-.5.45-1 .77-1.52.77-.13 0-.26-.01-.38-.04l-.15-.18c-.2-.28-.1-1.18-.05-1.63.02-.12 0-.37-.03-.75-.09-.19-.33-.1-.4.03a6.26 6.26 0 0 0-.55 1.73c-.06.33-.15.61-.44.81a.11.11 0 0 1-.04.02.78.78 0 0 1-.24.01c-.83-.1-.5-1.9-.45-2.5l-.08-.13a.16.16 0 0 0-.14-.08c-.03 0-.06 0-.08.02-.27.16-.4.79-.46 1.06-.1.41-.31.83-.4 1.19-.08.29-.32.44-.6.44-.06 0-.12 0-.18-.02-.18-.23-.26-.62-.22-1.05.03-.43.08-.85.15-1.28.02-.1-.02-.2-.05-.29-.12-.11-.3-.06-.37.06-.1.19-.23.32-.32.54a5.28 5.28 0 0 1-1.02 1.69 1.3 1.3 0 0 1-1.05.35 1.07 1.07 0 0 1-.27-.36 2.1 2.1 0 0 1-.13-.78c0-.4.02-.83.04-1.28a.42.42 0 0 0-.04-.22.12.12 0 0 0-.19-.03c-.13.12-.23.26-.31.44-.34.73-.9 2.31-1.95 2.23-.38-.03-.64-.43-.64-.93 0-.46-.03-.93.08-1.38.03-.12 0-.14-.1-.06-.2.17-.42.3-.7.41a.11.11 0 0 0-.06.08c-.32.94-.73 1.87-1.99 1.88-.88 0-.97-.47-1.49-.93-.04-.03-.09 0-.15.06-.25.28-.93.88-1.34.87-.94-.02-.58-1.97-.54-2.56a.53.53 0 0 0-.16-.13.2.2 0 0 0-.19 0 .9.9 0 0 0-.4.41 9.3 9.3 0 0 0-.6 1.67c-.11.36-.4.65-.79.61-.33-.03-.42-.47-.41-.73.02-.48.01-1 .1-1.47.05-.2 0-.22-.11-.06-.59.8-1.32 2.17-2.2 2.63-.82.43-1.7.64-2.63.63C10.15 30.98 9 29.27 9 27.72c0-1 .41-2.05.94-2.83 1.04-1.5 2.92-2.89 4.9-2.89.85 0 1.63.56 1.67 1.39.06.98-.44 2.02-1.12 2.74Zm11.4-.51c.49-.65.77-1.52.83-2.32 0-.05.02-.18-.01-.22a.2.2 0 0 0-.2-.08c-.24.03-.52.55-.58.76-.18.64-.32 1.59-.4 2.15-.03.14 0 .15.09.04l.27-.33Zm-8.6-.24c.37-.63.6-1.3.66-2.03-.02-.08-.05-.15-.15-.15-.15 0-.26.05-.31.15a6.08 6.08 0 0 0-.68 2.22c0 .04-.17.57 0 .42.17-.17.36-.4.48-.6Zm4.13 3.38c.3.16.55.16.77-.01.16-.12.29-.22.39-.44a.17.17 0 0 0-.04-.2c-.26-.24-.33-.65-.04-.89a.16.16 0 0 0 .06-.09c.05-.23-.33-.5-.56-.35-.73.5-1.07 1.15-.58 1.98Zm17.8-1.28c.1-.16.24-.66-.05-.73-.67-.17-1.13 1-1.08 1.47 0 .05.03.05.05.02.26-.34.78-.35 1.07-.76Z" fill="#fff"/><path d="M29.92 24.76c-.23.4-.83.27-.91-.18a.5.5 0 0 1 .42-.57c.44-.07.71.39.5.75Z" fill="#fff"/><defs><linearGradient id="a" x1="46" y1="35" x2="10" y2="35" gradientUnits="userSpaceOnUse"><stop stop-color="#FEF68C"/><stop offset=".24" stop-color="#E6D20A"/><stop offset=".54" stop-color="#FFF226"/><stop offset=".8" stop-color="#E3B515"/><stop offset="1" stop-color="#F3E205"/></linearGradient></defs></svg>