<!-- by TradingView --><svg width="56" height="56" fill="none" xmlns="http://www.w3.org/2000/svg"><path fill="#F0F3FA" d="M0 0h56v56H0z"/><path fill-rule="evenodd" clip-rule="evenodd" d="M22.855 23.192c-.08-.367-.12-.741-.12-1.116a5.235 5.235 0 0 1 1.493-3.74 5.26 5.26 0 0 1 3.71-1.582 5.27 5.27 0 0 1 3.741 1.505 5.245 5.245 0 0 1 1.572 3.706v.11c0 .376-.041.75-.12 1.117a8.052 8.052 0 0 1 2.941-1.34 8.054 8.054 0 0 0-2.44-5.564 8.093 8.093 0 0 0-11.28 0 8.055 8.055 0 0 0-2.44 5.565 8.078 8.078 0 0 1 2.942 1.338Zm-3.036 12.023c.082-.116.17-.242.181-.371v-6l3 3.99v2.94c-.06.534-.22 1.08-.617 1.463-1.416 1.146-3.485 1.77-5.315 1.763a8.157 8.157 0 0 1-3.255-.684 8.081 8.081 0 0 1-2.7-1.924 7.98 7.98 0 0 1-1.69-2.837 7.922 7.922 0 0 1 .582-6.418 8.024 8.024 0 0 1 2.172-2.495 8.12 8.12 0 0 1 3.004-1.417c1.09-.261 2.715-.295 3.819-.1v2.854c-.725-.205-1.98-.253-2.726-.142a5.305 5.305 0 0 0-2.09.787 5.243 5.243 0 0 0-1.573 1.574 5.181 5.181 0 0 0-.603 4.285 5.2 5.2 0 0 0 1.08 1.94 5.267 5.267 0 0 0 1.794 1.321 5.32 5.32 0 0 0 2.186.466c.803 0 1.596-.184 2.315-.537.148-.087.273-.207.364-.351.022-.035.047-.07.072-.107Zm13.274-9.673A6.866 6.866 0 0 1 36 23.258v2.986L28.002 38 20 26.244V23.26a6.869 6.869 0 0 1 2.908 2.285l.004-.003a.034.034 0 0 0 .004-.003L28 33.008l5.085-7.471.003.004h.002l.003.001Zm3.087 9.673c-.082-.116-.17-.242-.18-.371v-6l-3 3.99v2.94c.059.534.22 1.08.617 1.463 1.416 1.146 3.485 1.77 5.314 1.763a8.156 8.156 0 0 0 3.255-.684 8.081 8.081 0 0 0 2.7-1.924 7.983 7.983 0 0 0 1.69-2.837 7.923 7.923 0 0 0-.581-6.418 8.025 8.025 0 0 0-2.173-2.495 8.121 8.121 0 0 0-3.003-1.417c-1.09-.261-2.716-.295-3.82-.1v2.854c.726-.205 1.98-.253 2.726-.142.746.111 1.46.38 2.091.787a5.243 5.243 0 0 1 1.573 1.574 5.163 5.163 0 0 1 .602 4.285 5.2 5.2 0 0 1-1.079 1.94 5.266 5.266 0 0 1-1.794 1.321 5.318 5.318 0 0 1-2.187.466 5.244 5.244 0 0 1-2.314-.537 1.065 1.065 0 0 1-.364-.351 2.637 2.637 0 0 0-.073-.107Z" fill="#008FD5"/></svg>