<!-- by TradingView --><svg width="56" height="56" viewBox="0 0 56 56" xmlns="http://www.w3.org/2000/svg"><path fill="#F0F3FA" d="M0 0h56v56H0z"/><path d="M39.44 28.82c0 .42-.07.83-.21 1.22-.14.4-.35.74-.6 1.04-.26.3-.56.53-.9.69-.33.15-.68.23-1.04.23l-.99-.01c-.35 0-.7-.1-1.04-.26-.33-.16-.63-.4-.88-.7a3.72 3.72 0 0 1-.78-2.28l.01-1.57c0-.42.08-.83.22-1.22.14-.4.34-.74.6-1.04.25-.3.56-.53.89-.69.33-.15.68-.23 1.04-.23l1 .01c.35 0 .7.1 1.03.26.33.16.63.4.88.7.25.3.45.66.59 1.05.13.4.2.8.2 1.23l-.02 1.57Zm-1.64-1.6c0-.23-.04-.45-.12-.66-.07-.2-.18-.4-.31-.55-.14-.16-.3-.28-.47-.37a1.26 1.26 0 0 0-.56-.13h-.23c-.19 0-.38.05-.55.13-.18.09-.34.21-.47.37-.14.16-.24.35-.32.56-.07.2-.1.43-.1.65v1.54a1.75 1.75 0 0 0 .43 1.2 1.26 1.26 0 0 0 1.02.5h.23c.2 0 .38-.04.56-.12.17-.09.33-.22.46-.37.14-.16.25-.35.32-.56.07-.2.1-.43.1-.65V27.2ZM5.65 28c0 .96.08 2.07.94 2.34.1.03.5.05 1.2.06l1.55-.01c.02 0 .04 0 .05.02a.1.1 0 0 1 .02.06v1.43c0 .04-.02.06-.05.07a20 20 0 0 1-3.02-.04c-1.8-.28-2.34-2-2.34-3.92 0-1.93.53-3.65 2.33-3.94.48-.08 1.49-.09 3.01-.04.04 0 .06.02.06.06v1.43a.1.1 0 0 1-.02.06.07.07 0 0 1-.05.02 40 40 0 0 0-1.55 0c-.7.01-1.1.03-1.2.07-.85.27-.93 1.37-.93 2.34ZM11.6 27.1v4.83c0 .05-.02.07-.06.07h-1.48c-.04 0-.06-.02-.06-.07v-7.78c0-.1.04-.15.12-.15h1.97c.07 0 .11.04.13.11l1.43 5.14c.08.27.15.27.23 0l1.4-5.09a.23.23 0 0 1 .07-.11.18.18 0 0 1 .11-.05h1.94c.1 0 .14.06.14.16v7.74c0 .07-.03.1-.08.1h-1.39c-.06 0-.07-.04-.07-.1v-4.8c0-.04-.02-.06-.05-.06-.04 0-.06 0-.07.03-.49 1.82-.84 3.38-1.24 4.77-.03.1-.09.15-.18.15h-1.32c-.1 0-.16-.06-.2-.17l-1.2-4.75c-.1-.37-.15-.36-.14.03ZM19.93 24h-1.46c-.04 0-.07.04-.07.08v7.84c0 .04.03.08.07.08h1.46c.04 0 .07-.04.07-.08v-7.84c0-.04-.03-.08-.07-.08ZM23.86 27.2c1.62 0 3.31-.12 3.1 2.62-.15 2.19-1.44 2.14-3.01 2.17h-2.89c-.04 0-.06-.03-.06-.08v-1.47c0-.05.02-.07.05-.07h3.42c.59 0 1.03-.22.9-1.04-.1-.7-.9-.52-1.46-.52-1.62 0-3.31.1-3.1-2.63.15-2.19 1.44-2.14 3.01-2.17h2.84c.04 0 .06.03.06.08v1.47c0 .05-.02.07-.06.07H23.3c-.59 0-1.03.22-.9 1.04.1.7.9.52 1.46.52ZM46 24.09v7.82a.1.1 0 0 1-.02.06c-.01.01-.03.03-.05.03H44.3l-.04-.02a.08.08 0 0 1-.02-.03l-2.53-5.1a.08.08 0 0 0-.04-.04h-.04a.07.07 0 0 0-.04.03.1.1 0 0 0-.02.05v5.03a.1.1 0 0 1-.02.06l-.02.01-.03.01h-1.46l-.02-.02-.01-.03a.1.1 0 0 1-.01-.03v-7.84c0-.02 0-.04.02-.06a.07.07 0 0 1 .05-.02h1.77l.04.01.03.03 2.38 4.8c0 .02.02.03.03.04h.05l.04-.03a.1.1 0 0 0 .01-.05v-4.71c0-.03 0-.05.02-.06a.07.07 0 0 1 .05-.03h1.44c.02 0 .04.01.05.03a.1.1 0 0 1 .02.06ZM52 28.44c0 .1-.06.16-.15.16h-3.16c-.4 0-.5.41-.3.83.21.44.45.96 1.03.96h2.53c.03 0 .04.02.04.05v1.48c0 .04-.01.06-.05.06a28.3 28.3 0 0 1-2.78-.03c-1.92-.17-2.54-1.9-2.54-3.95 0-2.05.62-3.78 2.54-3.96.52-.04 1.45-.05 2.79-.02.03 0 .05.02.05.06v1.48c0 .03-.02.05-.05.05h-2.53c-.51 0-.83.34-1.03.76-.2.41-.1.62.3.62h3.16c.09 0 .14.06.15.17v1.28ZM32.94 24c.04 0 .06.04.06.1v1.4c0 .07-.02.1-.07.1h-1.75c-.11 0-.18.07-.18.2v6.03c0 .12-.04.17-.13.17h-1.32c-.1 0-.14-.06-.14-.17V25.8c0-.13-.05-.2-.17-.2h-1.79c-.05 0-.08-.04-.08-.1v-1.41c0-.06.03-.09.07-.09h5.5Z" fill="#C01D2D"/></svg>