<!-- by TradingView --><svg width="56" height="56" viewBox="0 0 56 56" xmlns="http://www.w3.org/2000/svg"><path fill="#F0F3FA" d="M0 0h56v56H0z"/><path d="m8.4 25.72-.93-1.45h-.03v.03l.78 1.52.5 1c.01.04 0 .06-.02.08-.36.25-.66.55-.9.9-.02.03-.05.04-.08.03l-.63-.3-1.47-.76H5.6l-.02.02v.03l1.39.88.04.05.55.37c.03.01.03.04.02.07-.2.39-.32.82-.34 1.28 0 .03-.02.05-.06.05-.22.02-.49.02-.8.03-.03 0-.05.01-.07.04l-.02-.02c0-.01 0-.02-.02-.02l-.88.05-.02.01v.03c0 .02 0 .02.02.02l.91.05.88.07c.03 0 .05.02.05.05.05.44.17.85.37 1.23.02.03.02.06 0 .09a.19.19 0 0 1-.07.04l-.99.65v.03a.02.02 0 0 0 0 .01.02.02 0 0 0 .02 0l.97-.5.17-.05c.03-.01.06 0 .08.03.25.39.58.71.97.97.03.02.04.04.04.08 0 .06-.03.11-.06.16l-.34.65v.02l.03.01h.03l.41-.65a.3.3 0 0 1 .1-.09.09.09 0 0 1 .09 0c.42.2.86.32 1.32.35.05 0 .07.01.1.03.02.02.02.06.02.1l.06.71v.02h.02a.01.01 0 0 0 .01-.02l.03-.71c0-.04.01-.07.03-.1.02-.01.04-.03.08-.03a3.3 3.3 0 0 0 2.18-.97.1.1 0 0 1 .05 0c.15.03.3.03.43 0l.06.01.04.04a3.87 3.87 0 0 1-2.43 1.41c.2.02.4 0 .6-.07.77-.24 1.4-.67 1.92-1.3l.29-.36c.05-.07.11-.1.2-.1h.9c.07 0 .09.03.04.1a5.51 5.51 0 0 1-6.3 1.96 5.35 5.35 0 0 1-3.06-2.75c-.23-.45-.39-.9-.47-1.35a5.65 5.65 0 0 1 5.5-6.48h4.54c.08 0 .13-.04.16-.11l.22-.58c.03-.07 0-.1-.07-.1H11.3c-.92 0-1.6.04-2.03.14-3.01.64-5.1 3.28-5.06 6.35a6.38 6.38 0 0 0 3.77 5.54c2.14.96 4.51.64 6.4-.75.02-.02.04-.02.06 0l.1.08c.05.03.05.06 0 .09A6.58 6.58 0 0 1 4.02 28.9a6.61 6.61 0 0 1 1.64-4.73 6.48 6.48 0 0 1 4.63-2.17h5.56c.04 0 .05.01.04.05a5.45 5.45 0 0 1-4 4.1c-.6.16-1.43.17-1.95.23-.22.03-.5.12-.83.28-.03.01-.05 0-.07-.02l-.63-.93Zm4.08-1.55a.28.28 0 1 0-.57 0 .28.28 0 0 0 .57 0Z" fill="#FF1C00"/><path d="m18.91 28.33.04-.01.03-.03a.07.07 0 0 0 0-.07l-1.04-1.84-.02-.02a.06.06 0 0 0-.05 0l-.02.02-2.47 4.52a.19.19 0 0 1-.07.07.2.2 0 0 1-.1.03h-1.04c-.04 0-.05-.02-.04-.05.12-.25.24-.49.38-.7.22-.36.36-.59.41-.7a1557 1557 0 0 0 2.22-4.13c.04-.07.04-.2 0-.38 0-.03 0-.04.04-.04h1c.17 0 .31.1.4.29l2.23 4.17.44.74c.1.15.23.4.41.75.02.03 0 .05-.03.05h-1.08a.09.09 0 0 1-.08-.05l-.9-1.6a.1.1 0 0 0-.04-.04.1.1 0 0 0-.05-.01h-2.44c-.04 0-.06-.02-.04-.06l.48-.87a.07.07 0 0 1 .07-.04h1.36ZM33 27.5V31h-.94c-.03 0-.06-.02-.06-.05v-5.38c0-.18-.02-.36-.1-.53 0-.02 0-.04.04-.04h.85c.08 0 .16.02.22.06.07.04.12.1.16.16l1.94 3.52.05.04a.12.12 0 0 0 .12 0 517.18 517.18 0 0 0 1.98-3.55c.05-.1.07-.16.06-.19 0-.03.01-.04.04-.04h.92c.04 0 .06.02.06.05v5.89c0 .04-.02.06-.07.06h-.9c-.03 0-.04-.01-.04-.04v-3.48c0-.18-.05-.2-.14-.03l-1.4 2.53c-.01.03-.04.02-.07.02h-1c-.03 0-.06.01-.07-.02l-1.4-2.53c-.15-.26-.25-.25-.25.05ZM40.08 30H44.69l.01.03v.94c0 .02-.01.03-.04.03h-5.6c-.03 0-.06-.02-.06-.05v-5.41c0-.2-.04-.33-.1-.49-.02-.03 0-.05.03-.05h5.72c.03 0 .05.02.05.05v.9c0 .03-.02.05-.05.05h-4.56c-.04 0-.1.01-.1.05v1.44l.06.04.05.02h3.46c.01 0 .02 0 .03.02l.02.03v.93h-3.52c-.04 0-.1.02-.1.05v1.38c0 .03.06.04.09.04ZM23.1 27.22c-.03-.02-.1 0-.1.03V31h-.93c-.04 0-.07-.02-.07-.06v-5.59c0-.04-.03-.15-.1-.31-.01-.03 0-.04.03-.04h.85c.08 0 .17.02.24.06.07.05.13.1.17.17l2.02 3.6.03.03a.06.06 0 0 0 .06 0l.02-.03 2.13-3.79a.08.08 0 0 1 .08-.04h.99V30.96c0 .03-.02.05-.05.05h-.92c-.04 0-.06-.02-.06-.06v-3.46c0-.28-.07-.3-.2-.05L25.84 30c-.02.02-.04.01-.07.01h-1.02c-.03 0-.06.01-.08-.02l-1.58-2.76ZM29.91 25h1.05c.02 0 .04.01.04.04v5.9l-.01.02a.06.06 0 0 1-.03.04h-.9a.05.05 0 0 1-.05-.03l-.01-.02v-5.5a.92.92 0 0 0-.1-.43.02.02 0 0 1 0-.02h.01ZM48.67 27.08c0 .02.01.03.03.04a.1.1 0 0 0 .05.02.11.11 0 0 0 .1-.03l1.7-2.06c.03-.03.06-.05.1-.05h1.34a.02.02 0 0 1 0 .02v.01L49.53 28a.1.1 0 0 0 0 .14L52 30.97c.02.01.01.02-.01.02-.7 0-1 .06-1.45-.16l-1.67-1.8a.12.12 0 0 0-.18 0l-1.7 1.92c-.03.03-.06.05-.1.05h-1.29c-.04 0-.05-.02-.02-.05.8-.95 1.62-1.86 2.43-2.82.04-.06.04-.1 0-.16l-2.44-2.93V25l.02-.01h.9c.42 0 .65.22.92.54.4.5.81.98 1.22 1.47l.05.07Z" fill="#FF1C00"/><path d="M10.54 31.72c1.2 0 2.16-.94 2.17-2.11 0-1.17-.96-2.13-2.15-2.13-1.2 0-2.17.94-2.17 2.11s.96 2.12 2.15 2.13Z" fill="#FFCF00"/></svg>