<!-- by TradingView --><svg width="56" height="56" viewBox="0 0 56 56" xmlns="http://www.w3.org/2000/svg"><path fill="#F0F3FA" d="M0 0h56v56H0z"/><path d="M16.13 23.42c.96 0 1.74-.76 1.74-1.7 0-.95-.78-1.72-1.74-1.72s-1.74.77-1.74 1.71c0 .95.78 1.71 1.74 1.71Z" fill="#DB4F3B"/><path d="M5.82 28.04c.04 1.57 1.18 2.77 2.96 2.25.46-.14 1.02-.54 1.5-.17.6.48.22 1.2-.37 1.48-1.13.53-2.7.55-3.82-.04A3.9 3.9 0 0 1 4 28.07c-.03-1.45.61-2.8 1.94-3.56a4.57 4.57 0 0 1 3.82-.18c.6.26 1.01.97.42 1.47-.46.39-1.02 0-1.5-.11-1.8-.46-2.89.78-2.86 2.35Z" fill="#E8973E"/><path d="M16.13 28.06c.02 0 .04-.01.05-.03l.89-2.8c.15-.48.31-.79.48-.93.37-.31.82-.38 1.35-.2.55.18.62.55.77 1.11l1.5 5.68c.24.9-1.02 1.53-1.61.76-.09-.11-.16-.3-.23-.56a305.3 305.3 0 0 1-.97-3.7c0-.02-.02-.03-.04-.03h-.02l-.02.02c-.24.8-.64 2.04-1.18 3.74-.2.59-.52.88-.97.88-.46 0-.78-.3-.97-.88a346.22 346.22 0 0 1-1.2-3.75l-.03-.01c-.02 0-.03 0-.04.03-.31 1.24-.63 2.47-.96 3.7-.07.26-.15.45-.24.56-.58.77-1.85.15-1.61-.75l1.5-5.69c.15-.56.22-.93.77-1.11.53-.18.98-.11 1.35.2.17.14.33.45.48.93.4 1.2.7 2.14.9 2.8 0 .02.02.03.05.03Z" fill="#DB4F3B"/><path d="m23.37 29.68.04-.01.02-.04 1.14-4.03c.13-.45.38-.65.76-.59.45.07.66.48.53.94-.48 1.64-.97 3.39-1.48 5.23-.15.54-.46.82-1 .82-.56 0-.86-.28-1.01-.82-.52-1.84-1.01-3.59-1.49-5.23-.13-.45.08-.86.53-.94.37-.06.63.14.76.59a261.33 261.33 0 0 1 1.16 4.07l.04.01ZM33.63 26c.57 0 .63.52.63 1 0 .04.03.06.07.06.35-.02.72.03.77.43.08.52-.33.66-.78.64a.06.06 0 0 0-.04.02.06.06 0 0 0-.02.04l.02 3.1c0 .38-.24.71-.64.71s-.64-.33-.64-.71v-3.12a.06.06 0 0 0-.03-.04h-.02c-.45.03-.86-.11-.79-.63.06-.4.43-.46.78-.44.04 0 .06-.02.06-.06 0-.48.06-1 .63-1ZM29.1 30c-.11 0-.15.05-.11.16.2.54.57.72 1.14.7.37 0 .72-.26 1-.46.18-.12.32-.1.49.02.47.38.22.86-.19 1.13-1.46 1-3.43.29-3.71-1.55-.18-1.17.28-2.34 1.38-2.83a2.15 2.15 0 0 1 2.24.36c.48.4.77.94.85 1.6.06.43-.08.87-.57.87H29.1Zm1.76-1c.08 0 .1-.02.09-.09-.1-.5-.48-.83-1-.83-.53 0-.9.32-1 .83-.02.07 0 .1.08.09h1.83ZM37.03 27.45c.82-.8 2.38-.48 2.82.53.1.23.15.68.15 1.36v1.8c0 .37-.06.66-.42.8a.64.64 0 0 1-.88-.59V28.9c0-.5-.47-.85-.97-.78-.48.07-.73.4-.73.98v2.2a.65.65 0 0 1-1.3 0l.02-3.46c0-.38.13-.66.5-.75.33-.07.57.05.73.35.02.04.05.05.08.02ZM44.68 29.5l-.01 1.88c0 .33-.22.55-.54.57-.3.02-.52-.13-.65-.44-.02-.04-.05-.05-.08-.01-.68.6-1.41.66-2.2.16-.72-.46-1.03-1.34-1.03-2.16 0-.83.32-1.71 1.03-2.16.8-.5 1.53-.45 2.2.17.04.03.07.02.09-.02.13-.3.35-.45.65-.43.32.02.53.24.54.56v1.88Zm-2.26 1.31a.9.9 0 0 0 .7-.38c.2-.25.3-.58.3-.93 0-.35-.1-.68-.29-.93a.9.9 0 0 0-.7-.39.9.9 0 0 0-.7.39c-.2.24-.3.58-.3.92 0 .35.1.69.29.94a.9.9 0 0 0 .7.38ZM46.35 27.45c.11-.07.3-.25.47-.31.74-.28 1.4-.13 1.95.45a.1.1 0 0 0 .11.02.1.1 0 0 0 .03-.02c1.05-1.06 3.06-.64 3.08 1.03v2.48c0 .24-.02.4-.05.5-.25.65-1.25.43-1.24-.25v-2.46a.77.77 0 0 0-1.55-.02v2.17c0 .44-.02.79-.47.93a.65.65 0 0 1-.83-.63v-2.23c0-.33-.08-.7-.35-.89-.55-.38-1.18.05-1.2.7v2.25c.01.38-.07.64-.42.78-.44.18-.88-.19-.88-.63v-3.53c0-.58.55-.98 1.06-.6.09.06.14.19.21.28.02.01.05 0 .08-.02ZM26.64 27h-.03c-.34 0-.61.28-.61.63v3.74c0 .35.27.63.6.63h.04c.34 0 .6-.28.6-.63v-3.74a.62.62 0 0 0-.6-.63Z" fill="#58595B"/></svg>