<!-- by TradingView --><svg width="56" height="56" viewBox="0 0 56 56" xmlns="http://www.w3.org/2000/svg"><path fill="#F0F3FA" d="M0 0h56v56H0z"/><path d="M7.6 17.23a6.9 6.9 0 0 0-1.08 4.36c.08 1-.01 1.02-.28.05a5.81 5.81 0 0 1 .69-4.83 5.8 5.8 0 0 1 4.05-2.72c1-.18 1.02-.1.08.27a6.9 6.9 0 0 0-3.46 2.87ZM12.03 22.15a2.34 2.34 0 0 0 2.28-2.39 2.34 2.34 0 0 0-2.48-2.18 2.34 2.34 0 0 0-2.28 2.39 2.34 2.34 0 0 0 2.48 2.18ZM17.13 22.8a5.42 5.42 0 0 1-3.77 2.57c-.93.17-.95.09-.08-.25a6.45 6.45 0 0 0 3.21-2.7 6.45 6.45 0 0 0 .97-4.09c-.08-.93 0-.95.26-.04a5.41 5.41 0 0 1-.6 4.5Z" fill="#EA5B2D"/><path d="M12.53 23.07c-3.4 3.78-4.7 8.57-4.29 13.45.05.6-.07.64-.35.1-2.17-4.01-1.43-9.42.32-13.5a.17.17 0 0 1 .17-.12h4.12a.04.04 0 0 1 .04.02v.05ZM22 29.35l-1.24 5.23a.56.56 0 0 1-.18.3.48.48 0 0 1-.31.12h-2.2a.3.3 0 0 1-.14-.04.33.33 0 0 1-.12-.1.36.36 0 0 1-.06-.3l1.2-5.15a.37.37 0 0 0-.08-.35l-.26-.28a.4.4 0 0 1-.04-.5c.12-.19.29-.34.49-.45a.7.7 0 0 0 .3-.33c.29-.61.54-1.13 1.1-1.27a7.95 7.95 0 0 1 2.72-.19c.23.03.32.16.28.4-.04.2-.1.4-.2.55a.37.37 0 0 1-.4.2.94.94 0 0 0-.89.3c-.11.12-.1.24.03.35.1.1.34.11.73.07l.11.01.1.07.05.1c.02.04.02.08.01.12-.06.44-.3.71-.71.82-.16.05-.25.15-.3.32ZM50.62 28.08c.23.14.36.35.38.63.01.16-.06.28-.23.36l-.6.27a.45.45 0 0 0-.27.33l-.92 3.73c-.05.24.03.39.26.45l.17.04c.18.05.27.16.29.35.04.45-.1.69-.45.71-.97.08-1.84.06-2.6-.05-.69-.1-.94-.5-.77-1.19l.99-4.06c.04-.15-.01-.27-.14-.36-.28-.18-.4-.4-.35-.65a.4.4 0 0 1 .3-.34c.4-.13.67-.48.78-1.05a.32.32 0 0 1 .1-.18.31.31 0 0 1 .2-.07h2.4c.16 0 .26.08.3.25.02.13.02.28-.01.43-.04.18.02.3.17.4ZM14.89 29.6a.26.26 0 0 0-.25-.33h-.19a.48.48 0 0 0-.47.36l-1.31 5.07a.4.4 0 0 1-.14.21.38.38 0 0 1-.23.08H9.87a.23.23 0 0 1-.22-.3l1.61-6.27a.33.33 0 0 1 .31-.26c1.24-.11 2.21-.06 2.92.14a.7.7 0 0 0 .42-.02c1.23-.48 3.46-.56 2.95 1.5-.37 1.47-.78 3.11-1.26 4.91-.05.2-.19.3-.4.3h-2.4a.23.23 0 0 1-.23-.3l1.32-5.1ZM29.58 28.62c.75.89.09 3.07-.31 4.15-.45 1.22-1.28 1.91-2.48 2.08-.96.13-3.4.41-4.13-.46s-.02-3.2.28-4.12c.38-1.16 1.2-1.85 2.49-2.07 1.14-.2 3.41-.46 4.15.42Zm-2.54 1.07a.4.4 0 0 0-.28-.49h-.02a.4.4 0 0 0-.49.28l-1.02 3.83a.4.4 0 0 0 .29.49h.02a.4.4 0 0 0 .49-.28l1.01-3.83ZM34.97 29.6a.26.26 0 0 0-.25-.33h-.19a.48.48 0 0 0-.46.37l-1.29 5.06a.4.4 0 0 1-.13.22.38.38 0 0 1-.24.08h-2.42a.23.23 0 0 1-.23-.29l1.58-6.27c.04-.16.14-.24.3-.26a8.4 8.4 0 0 1 2.93.13.7.7 0 0 0 .42-.02c1.22-.49 3.45-.58 2.95 1.48-.35 1.47-.76 3.1-1.23 4.91-.05.2-.18.3-.4.3h-2.4a.23.23 0 0 1-.23-.28l1.3-5.1ZM41.13 33.75c.28.16.51.05.7-.33.1-.19.24-.57.42-1.13.05-.16.16-.29.34-.29h2.28c.2 0 .28.14.24.34-.6 2.83-3.96 3.03-6.18 2.3-1.67-.56-.45-3.55-.13-4.56.75-2.3 4.17-2.39 5.98-1.7 1.25.46.94 1.84.52 3.05-.05.13-.14.2-.3.2h-3.38c-.16 0-.26.08-.3.22l-.37 1.48c-.05.18 0 .32.18.42Zm.87-3.18a.3.3 0 0 0 .17.01.5.5 0 0 0 .19-.09c.06-.04.12-.1.17-.17a1.08 1.08 0 0 0 .2-.5.8.8 0 0 0 0-.25.48.48 0 0 0-.08-.19.3.3 0 0 0-.13-.11.3.3 0 0 0-.18-.01.5.5 0 0 0-.19.09.83.83 0 0 0-.17.17 1.08 1.08 0 0 0-.2.5.8.8 0 0 0 0 .25c.02.07.04.14.08.19a.3.3 0 0 0 .14.11Z" fill="#0165AD"/></svg>