<!-- by TradingView --><svg width="56" height="56" viewBox="0 0 56 56" xmlns="http://www.w3.org/2000/svg"><path fill="#F0F3FA" d="M0 0h56v56H0z"/><path d="m28.89 14.06-.03 1.22c-.1.24-.09.42 0 .53l-.04 1.21a.23.23 0 0 1-.2.22c-.24.04-.65-.07-.82-.07-5.33 0-11.56 1.6-15.34 5.53-4.45 4.62-1.38 10.54 3.69 12.97a31 31 0 0 0 12.15 3.07.5.5 0 0 1 .47.62c-.13.56-.12.84.04.86l.08.36c.04-.08 0-.11-.1-.1a.12.12 0 0 0-.1.1v1.16a.26.26 0 0 1-.27.26c-8.27-.28-20.11-3.72-21.4-13.61-.07-1.3.08-2.6.44-3.9 2.55-5.62 8.65-8.77 14.45-9.81 2.38-.59 4.71-.8 6.98-.62Z" fill="#D6261C"/><path d="M46.94 33.45c-4.16 4.97-11.67 7.11-18.05 7.13l-.08-.36.16-.11c.1-.06.2-.1.31-.1 5.96-.14 12.88-2.02 16.96-6.6 2.73-3.06 3-7.2.44-10.45-4.18-5.27-11.48-6.81-17.81-7.15-.1-.11-.1-.29-.01-.53 5.72.05 11.73 1.62 16.24 5.26 4.16 3.35 5.34 8.73 1.84 12.91Z" fill="#0A8BD1"/><path d="M33.18 26.47c-.07-.4-.16-.4-.29-.02-.98 2.88-1.23 5.84-1.47 9.07-.03.37-.2.48-.55.32l-.12-.05a.67.67 0 0 1-.38-.63 36.48 36.48 0 0 1 4.13-15.8.67.67 0 0 1 .26-.28c.12-.06.25-.1.37-.08.16.01.31.16.46.45a36.95 36.95 0 0 1 4.1 15.75.6.6 0 0 1-.08.29c-.05.1-.13.22-.24.33a.24.24 0 0 1-.16.08c-.37.01-.56-.12-.57-.4a39.3 39.3 0 0 0-3.45-14.51c-.1-.23-.21-.23-.32 0l-.13.28a.8.8 0 0 0 0 .65c1.3 3 2.18 6.39 2.67 10.19.2 1.63.26 2.8.16 3.5-.04.32-.22.41-.51.27l-.23-.1a.48.48 0 0 1-.28-.43 37.55 37.55 0 0 0-2.48-12.08.08.08 0 0 0-.08 0 .08.08 0 0 0-.04.02c-.27.44-.35.86-.24 1.26 1 3.39 1.6 6.3 1.81 8.75a7.6 7.6 0 0 1-.07 2.37.37.37 0 0 1-.14.21.35.35 0 0 1-.24.07c-.31-.02-.48-.2-.5-.53-.29-3.24-.52-5.2-.7-5.86a31.38 31.38 0 0 1-.7-3.09ZM19.58 27.1a35.76 35.76 0 0 1 2.95-7.69c.16-.3.38-.42.68-.37a.42.42 0 0 1 .31.57c-.15.38-.53 1.25-1.13 2.6a32.83 32.83 0 0 0-1.76 5.16 32.7 32.7 0 0 0-.94 5.37c-.13 1.48-.21 2.42-.26 2.83a.42.42 0 0 1-.55.34c-.28-.1-.42-.3-.42-.64.06-2.78.43-5.5 1.12-8.17Z" fill="#0A8BD1"/><path d="M22.59 27.37a33 33 0 0 0-.95 5.38 102.9 102.9 0 0 1-.26 2.82.42.42 0 0 1-.54.35c-.3-.1-.43-.31-.42-.65a35.9 35.9 0 0 1 4.06-15.87c.16-.3.39-.42.69-.36a.42.42 0 0 1 .31.56c-.15.38-.53 1.25-1.13 2.6a32.8 32.8 0 0 0-1.76 5.17Z" fill="#0A8BD1"/><path d="M25.1 26.27c-.09-.3-.17-.3-.26 0a37.47 37.47 0 0 0-1.46 9.24c0 .1-.06.2-.14.27a.5.5 0 0 1-.34.1h-.12a.38.38 0 0 1-.2-.08.6.6 0 0 1-.17-.2.96.96 0 0 1-.1-.28c-.03-.1-.04-.21-.03-.32a38.25 38.25 0 0 1 4.19-15.66.6.6 0 0 1 1.07.02L29 22.43c.04.09.08.09.12 0l1.38-2.96a.62.62 0 0 1 .6-.4h.23a.29.29 0 0 1 .25.42c-1.88 4.05-3.37 8.33-3.8 12.7-.09.93-.2 2-.3 3.23a.5.5 0 0 1-.29.41l-.16.08a.37.37 0 0 1-.53-.32 35.65 35.65 0 0 0-1.41-9.32Zm2.07-5.42a.2.2 0 0 0-.4.04l-.14.76c0 .03 0 .07.02.1l1.27 3.29a.2.2 0 0 0 .32.08.2.2 0 0 0 .07-.12l.15-.73a.2.2 0 0 0 0-.12l-1.3-3.3Zm-1.67 2.39 1.42 5.99c0 .01 0 .02.02.03h.03c.22-.05.36-.4.4-.97a7.74 7.74 0 0 0-.24-2.07l-.09-.39a9.4 9.4 0 0 0-.72-1.95 2.2 2.2 0 0 0-.41-.55c-.14-.12-.26-.17-.37-.15a.04.04 0 0 0-.03.03v.03Z" fill="#0A8BD1"/><path d="M29.59 27.11a35.88 35.88 0 0 1 2.95-7.67c.15-.3.38-.42.67-.37a.42.42 0 0 1 .35.39l-.03.18-1.13 2.6a32.4 32.4 0 0 0-1.76 5.14c-.48 1.9-.8 3.68-.94 5.36-.12 1.47-.21 2.41-.26 2.82a.41.41 0 0 1-.36.36c-.06 0-.13 0-.18-.02-.29-.1-.43-.31-.42-.65.06-2.77.43-5.48 1.1-8.14Z" fill="#0A8BD1"/></svg>