<!-- by TradingView --><svg width="56" height="56" viewBox="0 0 56 56" xmlns="http://www.w3.org/2000/svg"><path fill="#F0F3FA" d="M0 0h56v56H0z"/><path d="M43.42 34.82c-1.37 3-3.56 5.53-6.32 7.3A16.86 16.86 0 0 1 18.72 42a17.14 17.14 0 0 1-6.23-7.36l2.79.33.74-1.94c1.03 2.33 2.7 4.3 4.81 5.7a13.03 13.03 0 0 0 19.09-5.55l.99 1.93 2.51-.29Z" fill="#ADD3FB"/><path d="m13.5 29 .35 1.15H15l-.93.7.36 1.15-.93-.7-.93.7.36-1.15-.93-.7h1.15L13.5 29Z" fill="#F7F745"/><path fill-rule="evenodd" d="M28 45a17 17 0 1 0 0-34 17 17 0 0 0 0 34Zm0-.26a16.74 16.74 0 1 0 0-33.48 16.74 16.74 0 0 0 0 33.48Z" fill="#4A39B6"/><path fill-rule="evenodd" d="M28 41a13 13 0 1 0 0-26 13 13 0 0 0 0 26Zm0-.36a12.64 12.64 0 1 0 0-25.28 12.64 12.64 0 0 0 0 25.28Z" fill="#4A39B6"/><path d="m42.5 29 .35 1.15H44l-.93.7.36 1.15-.93-.7-.93.7.36-1.15-.93-.7h1.15L42.5 29Z" fill="#F7F745"/><path d="M27 35h-2.13c-.6-1.6-2.13-1.36-5.28-2.41-3.16-1.06-3.59-2.36-3.59-2.44 0-.03.01-.05.03-.08.07-.1.19-.09.27-.02 1.37 1.07 4.83 1.86 6.44 2.13 0-.27-1.73-1.27-1.89-1.38-.07-.05-.1-.17-.12-.29-.02-.14.12-.24.25-.2 1.53.53 4.31 1.5 5.02 1.87.76.4.98 2.04 1 2.82ZM29 35h2.13c.6-1.6 2.13-1.36 5.28-2.41 3.16-1.06 3.59-2.36 3.59-2.44a.16.16 0 0 0-.03-.08c-.07-.1-.19-.09-.27-.02-1.37 1.07-4.83 1.86-6.44 2.13 0-.27 1.73-1.27 1.89-1.38.07-.05.1-.17.12-.29.02-.14-.12-.24-.25-.2-1.53.53-4.31 1.5-5.02 1.87-.76.4-.98 2.04-1 2.82Z" fill="#6091DF"/><path d="m13.45 25.61.56.08v.09l-.13.11c.04.06.07.13.09.2a.8.8 0 0 1 0 .27.82.82 0 0 1-.11.34.93.93 0 0 1-.27.26.99.99 0 0 1-1.36-.17.84.84 0 0 1-.15-.9.76.76 0 0 1 .12-.2l-.09-.11.02-.1.52.06-.02.1c-.17.04-.3.1-.38.17a.47.47 0 0 0-.16.3c-.01.15.02.25.11.32.09.06.32.11.7.16a10.46 10.46 0 0 0 .68.06c.1-.02.17-.05.22-.1a.36.36 0 0 0 .09-.2.5.5 0 0 0-.1-.38.7.7 0 0 0-.35-.25l.01-.1Zm-.19-1.03.49.12c.09.02.16.02.2.01a.3.3 0 0 0 .19-.08.47.47 0 0 0 .1-.2c.03-.1.04-.17.02-.23a.3.3 0 0 0-.1-.17.72.72 0 0 0-.2-.1 6.64 6.64 0 0 0-1.17-.28.3.3 0 0 0-.17.08.47.47 0 0 0-.11.21.47.47 0 0 0-.02.23.3.3 0 0 0 .1.16 6.71 6.71 0 0 0 .66.24Zm-.15.54a.94.94 0 0 1-.33-.17 1.05 1.05 0 0 1-.39-.66.89.89 0 0 1 .03-.37.9.9 0 0 1 .18-.34c.07-.1.18-.17.3-.24.12-.07.25-.1.37-.12a.93.93 0 0 1 .71.2 1.02 1.02 0 0 1 .38.65c.02.13 0 .25-.03.38a.9.9 0 0 1-.48.58.96.96 0 0 1-.75.09Zm1.48-1.84-.08-.03.06-.14v-.08c0-.02-.03-.04-.07-.06l-1.37-.6c-.03-.02-.06-.03-.08-.02-.02.01-.04.04-.06.09l-.05.1-.08-.03.32-.7 1.33-.27-.8-.35c-.04-.03-.08-.03-.1-.03-.03.01-.05.04-.08.1l-.05.1-.08-.03.25-.55.08.04-.04.1c-.02.04-.03.07-.02.1.01.02.04.05.1.07l1.55.7-.03.07-2.07.42 1.34.6a.1.1 0 0 0 .08 0c.02 0 .04-.03.06-.06l.07-.15.08.04-.26.57Zm1.35-3.85-.1.14.03.02a.6.6 0 0 1 .3.42.8.8 0 0 1-.16.56.96.96 0 0 1-.17.2.76.76 0 0 1-.21.14 1 1 0 0 1-.95-.1.96.96 0 0 1-.44-.64.92.92 0 0 1-.01-.35.82.82 0 0 1 .29-.5.56.56 0 0 1 .2-.11l-.04-.15.05-.07.47.28-.06.09a.84.84 0 0 0-.42-.03.45.45 0 0 0-.28.2.45.45 0 0 0-.08.21c0 .06.01.12.06.18.03.05.08.1.15.15.07.06.23.16.46.31.33.2.54.32.64.32.1 0 .18-.04.26-.16a.32.32 0 0 0 .06-.2c0-.07-.04-.12-.1-.16l-.31-.2-.13.21-.08-.04.5-.77.07.05Zm1.43-.76-.06-.06.16-.17-1.24-1.17-.08.07a.37.37 0 0 0-.11.3c0 .1.06.23.16.4l-.05.06-.43-.43 1.22-1.27.46.4-.05.06c-.18-.1-.32-.14-.42-.14-.11 0-.2.04-.3.12l-.07.08 1.25 1.17.16-.17.06.07-.66.68Zm1.39-1.36-.06-.07.18-.14-.5-.63-1-.37-.14.11-.06-.06.76-.59.05.07-.19.14.85.32-.13-.68a.83.83 0 0 0-.01-.07.1.1 0 0 0-.02-.03.04.04 0 0 0-.04-.02.16.16 0 0 0-.07.04l-.13.1-.05-.07.48-.38.06.07-.07.05a.19.19 0 0 0-.07.1l.01.2.13.74.53.66.18-.15.06.08-.75.58Zm3.13-2.65.26.5-.08.04-.17-.04a.56.56 0 0 1-.12.2.81.81 0 0 1-.21.14.84.84 0 0 1-.73.03.97.97 0 0 1-.62-1.21.85.85 0 0 1 .67-.64.77.77 0 0 1 .23 0l.05-.14.08-.04.25.46-.1.04a.88.88 0 0 0-.35-.22.48.48 0 0 0-.34.05c-.13.07-.2.15-.2.26 0 .11.08.33.26.67a10.07 10.07 0 0 0 .33.58c.07.08.13.12.2.13.07.01.14 0 .23-.05.12-.06.2-.15.25-.29a.68.68 0 0 0 .01-.43l.1-.04Zm.77-.73c.07.23.13.39.17.47l.1.18c.06.05.11.09.18.1.06 0 .14 0 .23-.03s.16-.07.2-.12c.04-.04.07-.1.07-.18a.7.7 0 0 0-.02-.22 6.4 6.4 0 0 0-.43-1.1.3.3 0 0 0-.17-.1.48.48 0 0 0-.23.03.48.48 0 0 0-.2.12.3.3 0 0 0-.08.18c0 .04 0 .11.03.2l.15.47Zm-.54.18a.92.92 0 0 1-.05-.36 1.04 1.04 0 0 1 .33-.69c.1-.08.2-.14.33-.18a.92.92 0 0 1 .75.06c.12.06.23.14.31.23a.91.91 0 0 1 .24.7c-.01.12-.05.24-.1.36a.94.94 0 0 1-.56.5.93.93 0 0 1-.75-.06 1.04 1.04 0 0 1-.31-.23.94.94 0 0 1-.2-.33Zm3.24-.08.22-.03-.21-1.68-.23.03-.01-.09.97-.12c.27-.03.47-.02.6.04a.4.4 0 0 1 .25.34c.02.17-.03.3-.15.4-.13.1-.32.17-.59.2l-.25.04.1.78.27-.03v.1l-.96.11-.01-.09Zm.48-1.77.1.82.27-.03c.11-.02.18-.05.2-.1.03-.04.04-.17.01-.36-.02-.18-.05-.29-.1-.32-.03-.04-.11-.06-.23-.04l-.25.03Zm1.43 1.61v-.1l.24.01.04-1.7h-.23V12l.94.02v.09h-.23l-.02.76.64.02.02-.77h-.23v-.1l.94.03v.08h-.23l-.05 1.7h.23v.1l-.94-.03v-.1l.23.01.03-.82-.64-.01-.02.82h.23v.1l-.95-.03Zm2.77-.48.5.08-.12-.69-.38.6Zm-.6.52.01-.1.12.03a.1.1 0 0 0 .08-.02.35.35 0 0 0 .08-.1l.94-1.53.11.02.38 1.91.17.03-.02.1-.9-.17.01-.09.23.04-.09-.46-.56-.1-.18.3-.02.02v.08l.07.02.16.03-.01.1-.58-.1Zm1.97.31.03-.09.14.05h.09l.05-.08.48-1.4v-.08c-.01-.02-.04-.04-.1-.05l-.1-.04.03-.08.72.24.41 1.28.28-.81c.02-.06.02-.1.01-.12-.01-.02-.04-.04-.1-.06l-.11-.04.02-.08.58.2-.03.08-.1-.04c-.05-.01-.08-.02-.1 0-.03 0-.05.04-.07.1L33 14.8l-.07-.03-.63-1.99-.47 1.37v.08c.01.03.04.04.07.05l.16.06-.03.09-.6-.2Zm4.53 1.33-.28.49-.08-.05-.06-.15a.57.57 0 0 1-.23 0 .82.82 0 0 1-.24-.1.83.83 0 0 1-.42-.58.96.96 0 0 1 .35-1 1.1 1.1 0 0 1 .72-.22.86.86 0 0 1 .53.25c.05.06.09.12.12.19l.14-.03.08.04-.25.46-.09-.05a.86.86 0 0 0 0-.42.47.47 0 0 0-.23-.26c-.13-.07-.24-.08-.33-.02-.1.06-.24.25-.43.58a10.14 10.14 0 0 0-.3.6.35.35 0 0 0-.01.23c.03.06.08.11.17.16.11.07.24.09.38.05a.7.7 0 0 0 .37-.22l.1.05Zm.65.36.41.3.19-.68-.6.38Zm-.78.22.05-.07.1.06a.1.1 0 0 0 .08.02c.03 0 .07-.02.12-.05l1.51-1 .1.07-.49 1.89.14.1-.06.07-.75-.52.06-.08.19.13.12-.45-.47-.33-.3.19-.01.02-.03.03v.04c0 .02.02.03.04.05l.14.1-.06.07-.48-.34Zm1.67 1.12.17.16 1.18-1.23-.16-.15.06-.07.7.67c.2.19.32.35.36.5a.4.4 0 0 1-.12.39.43.43 0 0 1-.4.14 1.14 1.14 0 0 1-.54-.32l-.18-.18-.55.58.19.18-.06.07-.71-.67.06-.07Zm1.7-.74-.58.6.2.18c.07.07.14.1.2.1.05-.01.15-.09.29-.23.12-.13.18-.22.19-.27 0-.06-.03-.13-.12-.2l-.18-.18Zm.15 2.8.08-.04.08.11c.03.03.05.05.07.05.02 0 .05 0 .1-.03l1.21-.86c.03-.02.05-.05.05-.07 0-.02-.01-.05-.04-.09l-.07-.1.07-.04.45.62-.43 1.27.7-.5c.05-.03.08-.06.08-.09 0-.02 0-.06-.04-.1l-.07-.1.07-.05.35.49-.07.05-.06-.1c-.03-.03-.06-.05-.09-.05-.02 0-.06 0-.1.04l-1.4.98-.04-.06.67-1.98-1.2.84c-.02.02-.04.04-.04.06 0 .03 0 .06.02.08l.1.14-.08.06-.37-.52Zm1.77 1.7 1.18-.52-.1-.2.08-.04.4.86-.08.03-.1-.22-1.18.52c-.14.07-.24.14-.28.23-.04.08-.03.19.02.3l.1.17c.05.04.1.08.15.1.06.03.12.03.19.03l.3-.1.03-.02.88-.4c.06-.02.1-.04.1-.07.02-.02 0-.06-.02-.11l-.04-.09.08-.03.25.54-.08.03-.04-.08c-.03-.06-.05-.1-.08-.1-.03-.02-.07-.01-.12.01l-.9.4c-.14.07-.23.1-.3.12a.44.44 0 0 1-.17 0 .51.51 0 0 1-.26-.14 1 1 0 0 1-.21-.31.91.91 0 0 1-.1-.56c.03-.16.13-.27.3-.35Zm1.4 2.2-.47.15a.65.65 0 0 0-.19.1.3.3 0 0 0-.1.16c-.02.06-.01.14.01.23.03.1.06.16.1.2.05.05.11.08.19.09.05 0 .12 0 .22-.02a6.63 6.63 0 0 0 1.14-.36.3.3 0 0 0 .1-.17.47.47 0 0 0-.01-.23.47.47 0 0 0-.11-.2.3.3 0 0 0-.18-.08H43l-.5.13Zm-.15-.54a.95.95 0 0 1 .37-.03 1.07 1.07 0 0 1 .68.37c.08.09.13.2.17.33a.9.9 0 0 1-.1.74.93.93 0 0 1-.96.5 1.04 1.04 0 0 1-.67-.37.92.92 0 0 1-.17-.34.9.9 0 0 1 .1-.73.96.96 0 0 1 .59-.46Zm.48 3.9-.56.08-.01-.1.09-.14a.56.56 0 0 1-.14-.18.8.8 0 0 1-.07-.24.81.81 0 0 1 .03-.36c.03-.12.1-.22.19-.33.09-.1.18-.18.3-.24a1 1 0 0 1 .72-.1 1.1 1.1 0 0 1 .6.44.84.84 0 0 1 .12.57.75.75 0 0 1-.07.22l.1.09.02.1-.52.07-.01-.1a.88.88 0 0 0 .33-.27c.06-.09.09-.2.07-.33-.02-.14-.08-.23-.18-.27-.1-.04-.35-.04-.73.01a10.57 10.57 0 0 0-.66.12.36.36 0 0 0-.2.14.36.36 0 0 0-.02.23.5.5 0 0 0 .19.33c.1.1.24.15.4.16l.01.1ZM23.5 42.74l-.19.53-.09-.03-.08-.14a.57.57 0 0 1-.23.05.82.82 0 0 1-.25-.05.83.83 0 0 1-.53-.5.96.96 0 0 1 .14-1.05 1.09 1.09 0 0 1 .66-.35.86.86 0 0 1 .57.15c.06.04.11.1.16.16l.13-.06.09.03-.16.5-.1-.04a.86.86 0 0 0-.09-.41.47.47 0 0 0-.27-.2c-.14-.05-.25-.04-.33.04-.08.07-.18.29-.3.65a10.19 10.19 0 0 0-.18.64c-.01.1 0 .17.04.23s.1.1.2.13c.12.04.25.03.39-.03a.69.69 0 0 0 .31-.29l.1.04Zm1.1.23.51.1-.12-.7-.39.6Zm-.6.53.01-.1.12.03a.1.1 0 0 0 .08-.02.35.35 0 0 0 .08-.1l.95-1.53.11.02.37 1.92.16.03-.01.09-.9-.17.01-.09.23.04-.09-.46-.56-.1-.18.3-.02.02v.08l.07.02.16.03-.01.1-.59-.11Zm3.36.5v-.1h.13c.04 0 .07-.01.09-.04.02-.02.03-.05.02-.1l-.05-1.56-.25.01v-.08l.82-.03.36 1.07.32-1.1.78-.02v.09h-.24l.05 1.7h.24v.09l-.96.03v-.1h.25l-.05-1.67-.5 1.78h-.1l-.62-1.76.05 1.54c0 .05.02.1.04.11.02.02.05.03.1.03h.13v.1l-.61.01Zm3.26-.86.5-.09-.36-.6-.14.7Zm-.38.7-.02-.08.12-.03a.1.1 0 0 0 .07-.04.34.34 0 0 0 .04-.12l.33-1.77.12-.02 1.03 1.66.17-.03.01.1-.9.16-.02-.1.23-.03-.25-.4-.56.1-.07.34v.06l.04.04h.06l.17-.03.01.09-.58.1Zm2.48-1.06-.43-1.2-.21.06-.03-.08.9-.3.02.07-.23.08.43 1.2c.05.15.12.25.2.3.08.05.19.05.31 0a.58.58 0 0 0 .18-.08.41.41 0 0 0 .11-.14.36.36 0 0 0 .04-.18c0-.06-.02-.17-.08-.31v-.03l-.33-.9c-.02-.06-.04-.1-.06-.1-.02-.02-.06-.01-.12 0l-.09.04-.03-.08.57-.2.03.08-.09.03c-.06.02-.1.05-.11.07-.02.03-.01.07 0 .13l.34.92.08.3-.01.17a.5.5 0 0 1-.17.25c-.08.06-.19.12-.33.17a.94.94 0 0 1-.57.05.48.48 0 0 1-.32-.32Z" fill="#4A39B6"/><path d="M25.42 22.3c.94-1.2 2.1-2.67 2.58-6.3.48 3.63 1.64 5.1 2.58 6.3.78 1 1.42 1.8 1.42 3.5 0 3.72-2.53 5.2-4 5.2-1.47 0-4-1.48-4-5.2 0-1.7.64-2.5 1.42-3.5Z" fill="#6FACF5"/><path d="M26.39 23.33A7.22 7.22 0 0 0 28 19.8c.25 1.7.97 2.67 1.61 3.53.61.83 1.15 1.55 1.15 2.72 0 2.4-1.84 3.1-2.76 3.15a2.96 2.96 0 0 1-2.76-3.15c0-1.17.54-1.9 1.15-2.72Z" fill="url(#a)"/><path d="M27.2 24.88c.03-.22-.13-.65-.98-.62-.02.2.15.62.98.62ZM26.25 26.72c.3-.18.66-.31.9-.38l.05.2c-.22.07-.56.2-.84.36-.14.08-.27.17-.35.26-.09.1-.13.19-.13.27 0 .1.07.2.21.3.15.08.37.15.64.16.54.04 1.26-.1 1.96-.55l.11.18c-.74.47-1.5.62-2.08.58-.3-.02-.55-.09-.73-.2-.18-.1-.31-.27-.31-.47 0-.15.07-.29.18-.4.1-.12.24-.22.4-.31Z" fill="#64B169"/><path d="M27.46 24.36C27.5 23.78 28.5 23.2 29 23c.13 1.22-.57 1.8-.78 1.9-.2.1-.46.23-.46.36 0 .13.05.16.18.1.13-.05.39-.3.49-.36.1-.05.13.18.13.26 0 .08-.8.26-.75.68.13.96.46.94.62.94.15 0 .44-.16.44-.47 0-.25-.5-.28-.75-.26.1-.08.33-.24.44-.26.13-.03.62-.13.62.39s-.98 1.14-1.42.88c-.44-.26-.36-2.08-.31-2.81Z" fill="#64B169"/><path d="M28.01 30.22a3.37 3.37 0 0 0 3.06-2.92c-.38.76-1.52 2.27-3.07 2.27-1.55 0-2.7-1.51-3.07-2.27a3.37 3.37 0 0 0 3.06 2.92H28Z" fill="#FBF8F7"/><path fill="#D92924" d="M23 36h10v2H23z"/><defs><linearGradient id="a" x1="28" y1="19.8" x2="28" y2="29.2" gradientUnits="userSpaceOnUse"><stop stop-color="#fff"/><stop offset="1" stop-color="#BFD6F9"/></linearGradient></defs></svg>