<!-- by TradingView --><svg width="56" height="56" viewBox="0 0 56 56" xmlns="http://www.w3.org/2000/svg"><path fill="#F0F3FA" d="M0 0h56v56H0z"/><path d="M38.68 14.85A16.42 16.42 0 0 0 12.76 29.2c0 .16-.04.4-.13.74a356 356 0 0 0-.79 2.78c-.05.2-.1.2-.17 0a16.78 16.78 0 0 1 .9-11.83 16.97 16.97 0 0 1 26.15-6.05h-.04Z" fill="#00953B"/><path d="M30.3 34.9c-.05-.45.05-.96.3-1.51l4.23-14.29a.08.08 0 0 0-.02-.07.09.09 0 0 0-.03-.03h-8.51l-.06-.02a.13.13 0 0 1-.07-.09v-.05l.82-2.77c.02-.04.05-.07.1-.07h15.72c.87 0 1.42.4 1.65 1.18.05.18 0 .56-.17 1.13l-4.84 16.55a.2.2 0 0 1-.19.14H30.6a.94.94 0 0 1-.3-.1Z" fill="#E67124"/><path d="M30.6 33.94a3 3 0 0 0-.3 1.53c-.08.04-.15.04-.2-.02a5.77 5.77 0 0 1-.58-.72.23.23 0 0 1-.04-.14c0-.05.02-.1.06-.14l.32-.35a.13.13 0 0 0 0-.17l-.48-.65a.1.1 0 0 0-.1-.03.1.1 0 0 0-.07.06l-.14.48c0 .02-.02.04-.04.06a.13.13 0 0 1-.18-.01c-.43-.5-1.63-1.72-.57-2.25.37-.2.91.07.95-.66 0-.06-.03-.1-.1-.11-1.01-.18-2.9.39-2.29 1.77a.14.14 0 0 1-.08.18c-.8.33-1.69.71-1.83 1.63-.08.5.15.85.68 1.02.96.3 1.87.23 2.74-.25.07-.03.12-.02.17.03l.25.27c.04.05.1.07.17.07h1.08c.08 0 .1.04.08.12l-1.28 4.22a.16.16 0 0 1-.05.09.17.17 0 0 1-.1.03H13.13c-1.32 0-1.74-1.39-1.42-2.48 2.05-7.08 3.42-11.84 4.1-14.26.29-.99.84-1.65 1.66-2a7.21 7.21 0 0 1 2.4-.26h12.97a.1.1 0 0 1 .1.08.1.1 0 0 1 0 .05l-.78 2.74a.16.16 0 0 1-.06.08c-.03.02-.06.05-.1.05h-4.6c-1.06 0-1.89.34-2.48 1a4.3 4.3 0 0 0-.76 1.64c-.01.06-.82 2.61-2.07 6.88-.28.94.02 1.59.9 1.95.2.08.71.1 1.54.07.06 0 .08-.04.04-.1-.78-1.37.19-2.32 1.4-2.9a.14.14 0 0 0 .08-.13c0-.39.04-.64.11-.76.76-1.39 2.17-1.45 3.62-1.31.13.01.18.08.14.2l-.37 1.24c-.04.13-.13.2-.27.2h-.7a.22.22 0 0 0-.2.12.21.21 0 0 0 .02.22l.43.55a.14.14 0 0 0 .12.06.14.14 0 0 0 .11-.07l.28-.47a.12.12 0 0 1 .1-.06.12.12 0 0 1 .1.06l1.06 1.55Z" fill="#00953B"/><path d="M17.02 40.96c.98.65 1.88 1.23 2.92 1.71a16.4 16.4 0 0 0 23.32-15.26c0-.6.04-1.04.12-1.36.2-.7.45-1.6.78-2.68.09-.3.17-.3.24 0 1.22 4.91.58 9.42-1.9 13.52A17 17 0 0 1 17 40.95h.01l.01.01Z" fill="#00953B"/><path d="m27.3 33.42.65.86c.1.14.08.24-.08.32-.5.25-1.28.39-1.7-.06-.43-.46.4-1.04.75-1.21.16-.08.28-.05.39.09Z" fill="#00953B"/></svg>