<!-- by TradingView --><svg width="56" height="56" viewBox="0 0 56 56" xmlns="http://www.w3.org/2000/svg"><path fill="#FD4F2D" d="M0 0h56v56H0z"/><path d="M15.92 29.42a7.56 7.56 0 0 0 13.78 4.94c.07-.1.17-.19.29-.25a.83.83 0 0 1 .36-.11h12.4c.04 0 .08.03.11.05l.1.08a.26.26 0 0 1 .02.24c-1.44 3.9-3.88 7.03-7.33 8.83-9 4.7-20.58-.14-22.44-10.63-.94-5.3 1.33-9.86 4.95-13.55l9.87-9.96c.07-.08.15-.08.22 0l8.86 8.63c2.28 2.22 4.63 5.12 5.76 8.17a.1.1 0 0 1-.01.1.1.1 0 0 1-.08.04H30.4a.57.57 0 0 1-.27-.08.58.58 0 0 1-.2-.2c-4.02-6.28-13.56-3.77-14.02 3.7Z" fill="#fff"/><path d="M17.81 30.25c-.01 1.17 1.05 1.86 2.05 1.36l.79-.41a.17.17 0 0 1 .11-.02c.05 0 .08.02.1.03l.08.14c.03.05.04.1.04.16l-.01.14a.28.28 0 0 1-.08.12c-.95.88-1.9 1.01-2.86.4-.65-.4-.97-1.05-.96-1.93.01-.87.35-1.5 1.01-1.9.98-.58 1.93-.42 2.85.49.04.03.06.07.07.12.02.04.02.1.02.14 0 .06-.02.11-.05.16a.56.56 0 0 1-.1.14c0 .01-.03.02-.08.02-.04.01-.08 0-.12-.02l-.77-.43c-.99-.53-2.07.13-2.09 1.3ZM23.48 32.56a1.8 1.8 0 0 1-1.39-.62 2.5 2.5 0 0 1-.61-1.6c-.02-.6.16-1.19.51-1.63.35-.44.84-.7 1.35-.7a1.8 1.8 0 0 1 1.38.61c.38.42.6 1 .62 1.6.02.6-.17 1.19-.52 1.63-.35.44-.83.7-1.34.7Zm-.09-.75c.17 0 .34-.04.5-.11.15-.08.3-.2.42-.33a1.8 1.8 0 0 0 .02-2.17 1.2 1.2 0 0 0-.91-.46c-.17 0-.34.03-.5.1a1.58 1.58 0 0 0-.7.83 1.8 1.8 0 0 0 .27 1.68c.24.3.56.46.9.46ZM28.14 32.49c-.2 0-.32-.08-.37-.25-.26-.78-.48-1.48-.66-2.1-.19-.65-.31-.63-.38.03-.04.4-.03 1.03.02 1.9.01.26-.1.38-.35.38h-.14c-.17 0-.26-.09-.26-.26v-3.94c0-.12.06-.19.17-.21.25-.06.49-.05.7.01.13.04.2.12.25.23.3.84.59 1.72.86 2.64.03.1.09.16.17.16.07 0 .13-.05.16-.16.28-.92.58-1.8.88-2.63.05-.12.13-.2.25-.22.22-.07.46-.08.7-.02.12.03.17.1.17.22l-.03 3.94c0 .17-.08.26-.25.26h-.15c-.24 0-.36-.13-.35-.38.06-.88.07-1.52.04-1.91-.07-.66-.2-.68-.38-.04a59 59 0 0 1-.67 2.1c-.05.17-.18.25-.38.25ZM34.54 30.24c0-.87.33-1.5 1-1.9.95-.58 1.9-.42 2.83.47.03.03.05.07.07.12.01.04.02.1.01.14 0 .06-.02.11-.04.16a.56.56 0 0 1-.1.14c0 .01-.04.02-.09.02-.04.01-.08 0-.11-.02l-.77-.42c-.98-.52-2.06.14-2.07 1.3 0 1.16 1.06 1.83 2.05 1.33l.77-.41a.17.17 0 0 1 .12-.02c.05 0 .08.01.09.02l.09.15c.02.05.04.1.04.15 0 .06 0 .1-.02.15a.28.28 0 0 1-.07.11c-.94.88-1.89 1.02-2.84.43-.65-.41-.97-1.05-.96-1.92ZM40.88 32.55c-.5 0-1-.23-1.36-.65a2.65 2.65 0 0 1-.44-2.48c.1-.28.24-.53.41-.74.18-.21.39-.38.62-.5.23-.12.48-.18.73-.18.51 0 1 .23 1.36.65.37.43.57 1 .58 1.6 0 .3-.05.6-.14.88-.1.28-.23.53-.4.74-.19.22-.4.39-.63.5-.23.12-.48.18-.73.18Zm-.05-.76c.33 0 .65-.15.9-.43a1.78 1.78 0 0 0 .3-1.64 1.57 1.57 0 0 0-.27-.5 1.27 1.27 0 0 0-.4-.33 1.07 1.07 0 0 0-.48-.12c-.33-.01-.65.14-.9.42a1.78 1.78 0 0 0-.3 1.64c.06.19.15.35.27.5.11.14.25.25.4.33.15.08.31.12.48.13ZM33.92 30.18c0 .1-.01.18-.03.24-.03.1-.1.15-.2.15H32.1c-.27 0-.4.14-.4.42v.2c0 .27.13.4.38.4h1.63c.2 0 .3.1.3.31v.14c0 .09-.03.17-.09.23a.31.31 0 0 1-.22.1h-2.45c-.13 0-.2-.07-.22-.2-.02-.14-.03-.8-.03-1.99s.01-1.84.03-1.98c.02-.13.1-.2.22-.2h2.45c.08 0 .16.03.22.1.06.06.1.14.1.22v.14c0 .2-.1.31-.31.31h-1.63c-.25 0-.38.14-.38.4v.2c0 .28.13.42.4.42h1.58c.11 0 .18.05.21.16.02.06.03.13.03.23Z" fill="#fff"/></svg>