<!-- by TradingView --><svg width="56" height="56" viewBox="0 0 56 56" xmlns="http://www.w3.org/2000/svg"><path fill="#F0F3FA" d="M0 0h56v56H0z"/><path d="M29.67 17c2.17.11 4.3.37 6.42.78 3.06.59 6.07 1.59 8.78 3.17 2.5 1.46 5.04 3.85 5.13 7v.52l-.14.67a5.7 5.7 0 0 1-.6 1.68 11.8 11.8 0 0 1-4.66 4.38 27.97 27.97 0 0 1-8.57 3.04c-1.68.32-3 .5-3.95.57-.84.05-1.68.12-2.53.19H26.6c-.23-.03-.7-.06-1.44-.1a37.68 37.68 0 0 1-6.31-.9 26.16 26.16 0 0 1-8.2-3.26C8.35 33.3 6.28 31.16 6 28.33v-.7c.26-2.37 1.75-4.26 3.6-5.65 2.99-2.22 6.7-3.51 10.31-4.2 1.7-.33 3.02-.52 3.97-.59l2.7-.19h3.09ZM9.57 33.23a13.5 13.5 0 0 0 5.36 3.22c.74.24 1.32.43 1.73.58 1.07.4 2.18.68 3.31.85l2.22.34c.9.14 1.64.23 2.23.27l1.51.1c.43.03.94.04 1.52.03.46 0 1.25 0 2.36.02.24.01.47 0 .67-.04.46-.08.85-.01 1.32-.07l.66-.08 1.55-.2c.54-.06 1.06-.14 1.54-.24l2.08-.43c.35-.08.79-.28 1.13-.3.32-.04.56-.28.88-.3.27-.03.47-.18.75-.25l.56-.16c.62-.26 1.2-.51 1.73-.78.55-.27 1.02-.4 1.56-.73.4-.24.71-.43.96-.55.3-.15.51-.34.84-.57.25-.17.45-.33.6-.46.95-.88 1.64-1.64 2.1-2.3a5.8 5.8 0 0 0 .84-2.25l.15-.95c-.04-.59-.09-.97-.12-1.15-.42-1.95-1.99-3.69-3.6-4.84a19.88 19.88 0 0 0-4.6-2.43 36.48 36.48 0 0 0-10.47-2.2c-.76-.04-1.32-.01-2.06-.07-.4-.03-.92-.03-1.55 0l-2.18.09c-4.4.25-8.94 1.24-12.81 3.18-1.99 1-3.97 2.46-5.14 4.36-1.56 2.5-.96 5.14 1.07 7.1.42.41.86.82 1.3 1.21Z" fill="#B81E14"/><path d="M26.25 21.72c-.33.15-.58.39-.76.73-.1.2-.11.4-.02.6.14.3.26.47.38.54.3.18.72.4 1.24.66.44.22.88.82.7 1.35-.35 1.04-1.93 1.4-2.92 1.75a2.49 2.49 0 0 0-1.15.86l-.03-.02c-.02-.02-.02-.04 0-.06.28-.35.6-.62.94-.79.38-.19.92-.4 1.61-.66.36-.12.65-.33.88-.62.43-.52.4-1.16-.15-1.56l-1-.64c-.46-.3-.89-.98-.53-1.5a1.78 1.78 0 0 1 .81-.65v.01Z" fill="#791E17"/><path d="M24.03 23.13c0 .01 0 .03-.03.04-.02.02-.02.04 0 .06l.03.05.01.05c0 .63-.06 1.26-.15 1.88-.03.2-.01.4-.05.59a59.19 59.19 0 0 1-.8 3.67c-.13.52-.32 1.06-.58 1.65-.23.53-.47 1.06-.74 1.6-.18.4-.58.7-1.2.91l-.27.05.74-1.27c.28-.48.5-.92.64-1.3a18.31 18.31 0 0 0 1.08-5.97c0-.28-.03-.46-.1-.56-.38-.55-1.28-.81-1.94-.94a4.44 4.44 0 0 0-1.53.01c-2.23.36-4.55 1.61-5.72 3.63-.03.06-.06.06-.07-.01a.25.25 0 0 1 .04-.18c1.54-2.56 4.58-4 7.45-4.28.83-.07 1.64.05 2.46.37.04.02.08.02.12.02l.6-.07Z" fill="#047A3F"/><path d="m20.25 33.68.28-.05a6.3 6.3 0 0 0 1.48-.5c.38-.2.65-.42.82-.67.28-.41.25-.82-.1-1.23a.08.08 0 0 0-.1-.01 10.9 10.9 0 0 0-.41.81c-.12.24-.28.47-.5.68.27-.53.51-1.06.74-1.59.26-.59.45-1.13.58-1.65.27-1.02.53-2.24.8-3.67.04-.2.02-.4.05-.59a14.19 14.19 0 0 0 .14-1.93.37.37 0 0 0-.04-.05c-.01-.02-.01-.04.01-.06l.03-.04h.1c.04.01.07.04.07.1.01.33-.01.75-.07 1.26-.26 2.42-.74 4.6-1.45 6.52-.02.07 0 .12.06.15.24.13.48.35.52.65.06.53-.08.97-.43 1.32a5.55 5.55 0 0 1-2.95 1.24 11.43 11.43 0 0 1-6.36-.83.05.05 0 0 1 0-.04l.06-.03c1.46.3 2.76.46 3.9.5.96.02 1.88-.08 2.77-.3Z" fill="#791E17"/><path d="M24.13 30.62c.13 0 .14-.04.03-.1-.5-.3-.8-1.04-.48-1.58.46-.79 1.29-1.18 2.12-1.52a8.26 8.26 0 0 0 1.94-1.12c.81-.64.78-1.72 0-2.38a3.18 3.18 0 0 0-.93-.52c.54.14.98.39 1.3.75.8.9.31 1.88-.56 2.45-.47.3-1.05.6-1.76.88-.92.38-2.5 1.1-1.88 2.42.19.4.44.7.74.9a.14.14 0 0 1 0 .24c-.23.16-.31.39-.25.68a.1.1 0 0 0 .09.1c.21.04.41.04.59-.01a.1.1 0 0 0 .07-.1v-.48a.1.1 0 0 0-.06-.1l-.12-.03c-.05 0-.07-.04-.07-.08v-.17c0-.05.03-.09.08-.1.37-.12 1.17-.26 1.45.12a.1.1 0 0 1-.02.14.52.52 0 0 0-.23.42 122.37 122.37 0 0 0 0 1.59c0 .02.02.04.04.05l.15.13a.16.16 0 0 1-.05.27c-.45.18-.9.2-1.32.04a.17.17 0 0 1-.11-.12.17.17 0 0 1 .04-.16c.2-.21.27-.49.22-.83-.01-.05-.04-.07-.1-.08-.22 0-.42.01-.58.06a.11.11 0 0 0-.08.1c-.01.25.07.49.25.73a.17.17 0 0 1-.07.25c-.47.21-.92.22-1.35.01a.18.18 0 0 1-.1-.15.19.19 0 0 1 .08-.17c.11-.07.21-.15.22-.3a11.47 11.47 0 0 0-.03-1.64.12.12 0 0 0-.05-.04c-.13-.06-.18-.15-.15-.29a.13.13 0 0 1 .08-.1c.3-.1.58-.16.86-.16Z" fill="#047A3F"/><path d="M26.15 28.6c-1.03.32-1.85.54-1.47 1.8v.04a.04.04 0 0 1-.03.01H24.59a3.6 3.6 0 0 1-.27-.76 1.2 1.2 0 0 1 .24-.97c.06-.07.24-.18.55-.32.53-.24.88-.29 1.7-.5a2.41 2.41 0 0 0 1.54-1.15h.01l.02.03a2.7 2.7 0 0 1-.48.81c-.5.46-1.08.8-1.75 1Z" fill="#047A3F"/><path d="m15.46 29.17.18-.06c.07-.03.08-.02.01.03-.2.16-.79.1-.98.05-.38-.09-.57-.58-.44-.94.15-.42.58-.85 1.07-.86.05 0 .06.01.01.05-.46.34-.73.8-.8 1.36a.34.34 0 0 0 .26.37c.13.03.5.07.69 0ZM17.53 28.49c.05.04.08.03.1-.04.05-.3.17-.59.36-.85.12-.19.24-.25.36-.18.04.02.06.06.07.1.08.39-.1.62-.4 1a.95.95 0 0 0-.22.48c-.02.17-.07.33-.14.5-.04.08-.08.12-.13.13h-.13a.1.1 0 0 1-.08-.11c0-.1.02-.19.06-.27a.09.09 0 0 0-.01-.1c-.2-.22-.2-.46 0-.7a.08.08 0 0 1 .1-.01l.06.05Zm.73-1.04-.31.89.01.02h.07a.23.23 0 0 0 .07-.06.75.75 0 0 0 .13-.22l.09-.25a.75.75 0 0 0 .03-.25.23.23 0 0 0-.02-.1.09.09 0 0 0-.04-.04.02.02 0 0 0-.02 0l-.01.01Zm-.95 1.37c0 .07.02.12.06.16.1.11.14.09.13-.06a3.24 3.24 0 0 1-.01-.21c0-.15-.05-.17-.14-.05a.24.24 0 0 0-.04.16ZM19.25 29.08l-.4.16a.13.13 0 0 0-.09.1.4.4 0 0 0 0 .14c0 .05-.02.08-.07.1a.68.68 0 0 1-.28.02c-.05 0-.07-.03-.05-.07l.08-.31a.14.14 0 0 0-.03-.14.13.13 0 0 0-.13-.03l-.04.01c-.06.02-.07 0-.03-.04l.05-.06a.16.16 0 0 0 .03-.12c0-.14.05-.27.18-.4a.1.1 0 0 1 .1-.02h.05c.03.02.05 0 .05-.03.08-.33.23-.63.46-.87.18-.2.23-.17.14.09l-.17.5c-.1.3-.06.32.14.07.08-.11.16-.32.22-.63 0-.02.02-.03.04-.02h.03c.02.01.03.02.02.04l-.14.53a.24.24 0 0 1-.09.12c-.25.2-.42.48-.5.83 0 .04 0 .07.05.07.12.03.24.01.38-.04Zm-.84-.3c0 .07.03.14.09.2.03.03.06.03.07-.02l.02-.16v-.16c0-.05-.03-.06-.07-.03-.07.05-.1.11-.1.18Z" fill="#190A05"/><path d="m15.8 27.62-.09-.1c0-.02 0-.03.02-.03h.03c.13.18.15.37.09.58a1 1 0 0 1-.92.73c-.02 0-.03 0-.04-.03-.01-.02 0-.03.03-.04.45-.11.7-.56.89-.98.02-.05.02-.1 0-.13ZM15.38 27.95c-.21.13-.38.24-.52.4-.05.07-.06.07-.04-.01l.03-.08a.2.2 0 0 1 .04-.07c.13-.13.29-.22.46-.3.02 0 .04 0 .04.02l-.01.04Z" fill="#190A05"/><path d="m49.73 27.98-.15.95a5.8 5.8 0 0 1-.84 2.26 15.2 15.2 0 0 1-2.1 2.29c-.15.13-.35.29-.6.46-.32.23-.54.42-.84.57-.25.12-.56.3-.96.55-.54.34-1.01.46-1.56.73-.53.27-1.1.52-1.73.78l-.56.16c-.28.07-.48.22-.74.25-.33.02-.57.26-.9.3-.33.02-.77.22-1.12.3l-2.08.43c-.48.1-1 .18-1.54.24a89.4 89.4 0 0 0-2.2.28c-.48.06-.87 0-1.33.07-.2.03-.43.05-.67.05-1.1-.03-1.9-.04-2.36-.03-.58.01-1.09 0-1.52-.03l-1.51-.1a25.4 25.4 0 0 1-2.23-.27l-2.22-.34a17.07 17.07 0 0 1-3.31-.85c-.41-.15-.99-.34-1.73-.58a13.5 13.5 0 0 1-5.35-3.22c1.8 1.2 3.74 2.14 5.8 2.8 1.96.62 4.01 1.07 6.16 1.35 4.16.54 8.33.45 12.52-.28a26.01 26.01 0 0 0 9.13-3.24c1.82-1.11 3.49-2.67 4.1-4.7a3.27 3.27 0 0 0 .16-1.12.1.1 0 0 1 .06-.05.1.1 0 0 1 .04-.01h2.18Z" fill="#791E17"/><path d="M16.74 28.56c.07-.05.09-.14.06-.28a.12.12 0 0 0-.07-.1.11.11 0 0 0-.1.03 1.1 1.1 0 0 0-.42.92c0 .05-.02.07-.07.06l-.29-.08a.08.08 0 0 1-.04-.04.07.07 0 0 1 0-.06c.18-.6.52-.9 1.02-.9a.13.13 0 0 1 .12.1c.09.46-.05.79-.42.98h-.04l-.03-.03v-.02c.19-.16.27-.32.24-.47 0-.05 0-.08.04-.1ZM19.25 29.08l.08-.07a.18.18 0 0 0 .06-.11c.05-.36.24-.6.57-.72.14-.05.18-.01.1.12l-.2.33c-.08.14-.05.17.08.1a.85.85 0 0 0 .36-.43c.07-.17.12-.16.15.01.05.3-.42.49-.65.58a.08.08 0 0 0-.06.07.08.08 0 0 0 .05.08l.14.1c.03.03.02.05-.02.05-.23 0-.45-.03-.66-.11ZM21.16 28.58c-.07.13-.04.16.1.1.15-.07.26-.21.32-.42a.06.06 0 0 1 .05-.04.07.07 0 0 1 .06.01l.04.04a.09.09 0 0 1 .02.1.7.7 0 0 1-.56.42.18.18 0 0 0-.11.06c-.08.1-.07.19.04.26.13.08.12.11-.03.1l-.3-.05c-.13-.02-.18-.1-.16-.22a.88.88 0 0 1 .5-.73c.22-.1.27-.05.15.16l-.12.2Z" fill="#190A05"/><path d="M34.74 31.28c-1.14-.4-.92 1.7.3 1.58.17-.02.36-.19.54-.24a.17.17 0 0 1 .2.09l.02.08c-.05.57-.48.6-.93.77-.64.22-1.36-.17-1.71-.68-.4-.6-.27-1.34.28-1.84.46-.41.93-.5 1.5-.34.29.08.5.13.62.14.04 0 .08.02.1.06.21.28.26.56.15.84a.28.28 0 0 1-.13.14c-.42.22-.7-.52-.94-.6ZM37.77 33.13a.12.12 0 0 0 .03-.19.12.12 0 0 0-.07-.03 3.74 3.74 0 0 0-.8-.04.25.25 0 0 0-.14.04c-.05.04-.07.1-.05.16.03.1.12.13.2.2a.14.14 0 0 1-.03.23c-.43.17-.81.16-1.15-.03a.1.1 0 0 1-.05-.08.1.1 0 0 1 .04-.09c.18-.12.37-.25.49-.5l.58-1.17c.11-.25.14-.43.2-.75a.3.3 0 0 1 .24-.25c.46-.12.76.23.97.68.14.29.34.78.61 1.46.08.19.2.33.38.44a.1.1 0 0 1 .05.06c.03.1-.03.19-.2.24-.49.17-.96.16-1.4 0-.07-.03-.11-.08-.13-.16a.1.1 0 0 1 .05-.12l.18-.1Zm-.44-1.3a.07.07 0 0 0-.1-.04.07.07 0 0 0-.02.02c-.1.1-.17.26-.22.45-.01.06 0 .09.07.09h.5c.04 0 .06-.02.03-.07l-.26-.46ZM40.4 32.2h-.03a.05.05 0 0 0-.03.02l-.01.02c-.03.2-.04.41-.02.66.02.15.12.23.21.32a.17.17 0 0 1-.05.27c-.35.17-.7.16-1.08-.03-.1-.05-.1-.12-.02-.2.45-.45.36-1.38.2-1.93-.04-.2-.11-.2-.26-.3a.12.12 0 0 1-.04-.05.11.11 0 0 1 0-.07c.09-.33.66-.3.93-.26.06 0 .1.03.15.07l1.25 1.07a.13.13 0 0 0 .13.03.13.13 0 0 0 .08-.11c.03-.32-.05-.55-.24-.68a.2.2 0 0 1-.08-.2.2.2 0 0 1 .14-.15c.38-.09.7-.08.94.04a.2.2 0 0 1 .1.26.2.2 0 0 1-.06.08c-.18.15-.28.38-.27.68 0 .84.06 1.52-.06 1.75a.2.2 0 0 1-.22.1 28.72 28.72 0 0 1-1.33-1.17 1.46 1.46 0 0 0-.33-.21ZM26.47 30.92c.23-.4 1.1-.32 1.43-.21.13.04.2.12.19.23 0 .05-.03.09-.07.11l-.17.1a.11.11 0 0 0-.07.11v1.17c0 .36.18.53.53.53h.16c.33 0 .5-.16.5-.5v-1.12c0-.18-.08-.28-.24-.31a.11.11 0 0 1-.09-.07.11.11 0 0 1 .01-.1c.21-.34.88-.26 1.2-.09a.08.08 0 0 1 .04.06v.04l-.02.03-.24.28a.21.21 0 0 0-.05.13l-.02 1c0 .33-.02.56-.09.69-.44.93-2.65.85-2.7-.4l-.02-1.3a.15.15 0 0 0-.06-.12l-.2-.18a.06.06 0 0 1-.02-.08Z" fill="#047A3F"/><path d="M32.82 32.14c0 .4-.17.78-.46 1.06a1.6 1.6 0 0 1-2.22-.02 1.47 1.47 0 0 1 .01-2.13 1.6 1.6 0 0 1 2.22.02c.3.28.46.67.45 1.07Zm-1.28.85c.12-.03.2-.16.23-.35.03-.18.01-.42-.06-.65a1.5 1.5 0 0 0-.32-.58c-.13-.14-.26-.2-.38-.16-.11.03-.2.16-.23.35-.03.18 0 .42.06.65.07.24.19.44.32.58.13.14.27.2.38.16Z" fill="#047A3F"/></svg>