<!-- by TradingView --><svg width="56" height="56" viewBox="0 0 56 56" xmlns="http://www.w3.org/2000/svg"><path fill="#F0F3FA" d="M0 0h56v56H0z"/><path d="M45.34 38H10.72a2.68 2.68 0 0 1-1.7-.67 3.2 3.2 0 0 1-.76-3.6c.1-.25.36-.6.74-1.08a43436.4 43436.4 0 0 0 16.5-20.32c.56-.69 1.12-1.15 2-1.29 1.01-.16 1.88.13 2.62.85.11.11.3.34.59.7l.56.71 16.1 19.82a3.14 3.14 0 0 1 .16 3.54A2.69 2.69 0 0 1 45.34 38ZM28 37.54h16.84c.51 0 .87-.04 1.07-.1 1.4-.46 2.02-2.26 1.4-3.58-.09-.2-.3-.5-.65-.92-5.38-6.61-10.88-13.38-16.5-20.32-.24-.3-.42-.5-.55-.6-.47-.39-1-.56-1.61-.56-.61 0-1.14.17-1.6.56-.14.1-.33.3-.56.6-5.62 6.94-11.13 13.7-16.5 20.32-.35.42-.56.73-.65.92-.62 1.33-.01 3.12 1.4 3.58.2.07.56.1 1.07.1H28Z" fill="#00A54F"/><path d="M28 11.89c.47 0 .91.13 1.28.42.12.09.29.27.51.55l16.5 20.21c.37.46.6.8.69 1.03.4 1.02-.08 2.43-1.17 2.8-.2.07-.65.1-1.34.1H11.52c-.68 0-1.13-.02-1.33-.1-1.1-.37-1.58-1.78-1.17-2.8.09-.23.32-.57.7-1.03L26.2 12.86c.23-.28.4-.46.51-.55.37-.3.82-.42 1.29-.42Zm-.64 6.06-1.27.5c-.06.02-.07 0-.02-.04.2-.24.38-.47.5-.7.06-.13.1-.28.12-.44l.07-.66c0-.03 0-.04-.03-.03-.43.13-.82.14-1.18.46-.42.37-.85.84-.99 1.38 0 .05-.01.05-.01 0l.02-.73c0-.03 0-.04-.04-.03l-.66.22c-.53.17-1.63 1.6-1.23 2.22.1.16.28.13.46.1.03 0 .03 0 .01.03l-.74.63c-.05.05-.07.04-.05-.03.11-.36.21-.68.12-1.05l-.15-.57c0-.02-.02-.03-.04-.01l-.49.32c-.42.3-.66.9-.79 1.38-.1.34-.12.96.24 1.16l.01.02a.04.04 0 0 1 0 .03v.02l-.53.71h-.02v-.02c.1-.3.16-.59.19-.9.03-.4-.15-.76-.25-1.11a.02.02 0 0 0-.01-.02.02.02 0 0 0-.02 0c-.3.28-.66.45-.85.85-.25.54-.48 1.25-.3 1.8.14.39.38.48.7.21.06-.04.07-.03.04.03l-.56 1.16c-.02.02-.02.02-.02 0-.02-.41 0-.8-.14-1.16a2.4 2.4 0 0 0-.34-.52c-.06-.07-.12-.2-.17-.28a.02.02 0 0 0-.02 0h-.01c-.16.26-.53.62-.62.99-.13.56-.18 1.3.04 1.86.04.1.1.22.2.35.17.22.37.25.62.08h.01v.01l-.21 1.02c-.02.1-.04.1-.06 0-.12-.59-.25-1.03-.7-1.42a3.67 3.67 0 0 1-.4-.4c-.02-.02-.04-.02-.05.01l-.28.65c-.1.2-.13.38-.12.59a4.75 4.75 0 0 0 .26 1.55l-.39-.3c-.02-.01-.04 0-.05.03-.04.24-.08.45-.14.63-.19.62.06 1.38.32 1.91.01.02 0 .03-.02.02l-.22-.11a.03.03 0 0 0-.03 0l-.01.01v.01c0 .2-.02.46-.06.78-.03.23-.04.48.02.67.27.9.86 2.03 1.78 2.4.05.02.05.03 0 .03h-3.76l-.03.01-.02.04V36H41v-1.7c0-.03-.02-.05-.05-.05H19.33c-.06 0-.06-.02-.01-.05.1-.07.17-.18.21-.35 0-.03.02-.03.05-.02l.04.03a.1.1 0 0 0 .06.02h.11c.03 0 .05 0 .06.03.45.68 1.24-.25 1.46-.68.23-.43.4-.96.52-1.6.08-.44 0-.77-.15-1.17-.03-.08-.02-.2.02-.33.57-1.98 1.6-3.8 3.15-5.14 1.5-1.3 3.38-2.12 5.32-2.56a62.85 62.85 0 0 1 1.14-.27l-.02-.01a13.45 13.45 0 0 0-2.96-.17 9.76 9.76 0 0 0-6.4 2.85c-.05.05-.07.04-.05-.03l.12-.44c0-.02 0-.03-.02-.03l-.72.07c-.6.06-1.27.67-1.62 1.11-.08.1-.1.09-.05-.02l.52-1.26a.04.04 0 0 1 .03-.02.04.04 0 0 1 .03 0c.6.5 1.57-.04 2.11-.4.32-.2.4-.47.67-.93.02-.04 0-.06-.04-.06-.19-.01-.33-.03-.43-.07-.04-.01-.04-.02 0-.03.45-.08.88-.25 1.29-.5.3-.2.48-.58.67-.84v-.01a.03.03 0 0 0 0-.02h-.01l-.47-.11v-.03c.47.01.9-.04 1.28-.18.34-.12.62-.43.83-.59a.04.04 0 0 0 .01-.04.04.04 0 0 0-.03-.04c-.12-.04-.23-.1-.33-.17-.03-.02-.03-.03.01-.02.54.07 1.45.08 1.85-.25a4.02 4.02 0 0 1 .54-.41l-.45-.3c-.06-.04-.05-.05.02-.03.34.1.98.26 1.25.16l.69-.26c.02 0 .03-.02 0-.04l-.4-.47c-.27-.32-.85-.48-1.25-.55h-.01a.02.02 0 0 1 0-.04l.55-.17c.02 0 .04 0 .05.02.2.24.45.36.75.36.48 0 .94-.11 1.37-.35a.54.54 0 0 0 .16-.12 23.04 23.04 0 0 1 .46-.58h-.01a6.27 6.27 0 0 1-.5-.24c-.47-.25-1.27-.06-1.7.14-.23.1-.4.27-.53.52a.08.08 0 0 1-.05.03l-.74.23a3.53 3.53 0 0 0 1.03-.84c.14-.17.23-.55.34-.8a.02.02 0 0 0 0-.02l-.01-.01h-.63c-.22 0-.36.05-.55.14-.5.24-1.13.67-1.26 1.25-.1.46.36.43.65.4.02 0 .02 0 0 .01Zm9.57 8.17c.31-.82 1.02-1.22 1.84-.74a.11.11 0 0 0 .13-.01l.14-.12c.04-.03.03-.06 0-.08-1.74-.84-4.2-.21-4.78 1.84-.13.47-.13.94 0 1.42.48 1.71 2.12 2.57 3.84 2.28.25-.04.57-.15.94-.33.04-.02.04-.04 0-.07l-.16-.12a.13.13 0 0 0-.13-.02c-.9.42-1.6-.02-1.9-.9a4.6 4.6 0 0 1 .08-3.15Zm-6.43-.2a.2.2 0 0 0 0-.07c-.02-.03-.03-.04-.06-.04h-1.8c-.02 0-.03.01-.03.04v5.92h1.85a.04.04 0 0 0 .03-.01v-1.43l.01-.02h.01a.03.03 0 0 1 .03-.01c1.33.31 2.66-.35 3.05-1.7a2.05 2.05 0 0 0-.67-2.08 2.67 2.67 0 0 0-1.83-.61l-.54.05c-.03 0-.05-.01-.05-.05Zm-4.84 2.32c.3-.81 1.01-1.22 1.83-.73a.11.11 0 0 0 .13-.02l.15-.12c.03-.03.03-.05-.01-.07-1.74-.85-4.2-.22-4.78 1.83-.13.47-.13.94 0 1.42.48 1.72 2.12 2.57 3.84 2.29.25-.05.57-.16.94-.33.04-.02.04-.05 0-.08l-.16-.12a.13.13 0 0 0-.13-.01c-.9.41-1.6-.02-1.9-.92a4.6 4.6 0 0 1 .09-3.14ZM41 31.04v-.03l-.04-.01H33.5l-.03.01-.01.03v.38a.04.04 0 0 0 .04.04h7.46a.04.04 0 0 0 .04-.04v-.38Zm0 1.19v-.03l-.04-.01H28.42a.04.04 0 0 0-.04.04v.37l.01.03.03.01h12.54l.03-.01.01-.03v-.37Zm0 1.05a.04.04 0 0 0 0-.02.03.03 0 0 0-.03-.01H22.18l-.01.03v.4a.03.03 0 0 0 .03.03h18.78a.03.03 0 0 0 .02-.04v-.39Z" fill="#00A54F"/><path d="M24.93 19.46c-.08.16.04.36.17.46.04.03.04.04-.02.04a3.62 3.62 0 0 0-1.18.04c-.08.01-.1 0-.02-.05a14.9 14.9 0 0 1 2.88-1.52c.03-.01.05 0 .06.03a.85.85 0 0 0 .37.5v.02h-.01a3.64 3.64 0 0 0-1.41-.03c-.3.06-.7.23-.84.5ZM24.73 19.1l.04.02c.01.02 0 .03-.01.04l-.8.47c-.05.03-.05.02-.02-.02.23-.28.43-.6.56-.95.01-.03.02-.03.02 0 0 .15.04.32.15.41l.06.03ZM21.61 22.2c-.15.28.07.45.3.53.04.02.04.03 0 .04-.42.09-.8.24-1.12.45-.09.06-.1.04-.05-.04.18-.27.39-.56.62-.86.2-.26.4-.45.6-.68a8.25 8.25 0 0 1 1-.96l.01.01v.01c.07.26.3.38.53.47.03 0 .03.01 0 .02a2.5 2.5 0 0 0-.7.16c-.5.17-.92.36-1.19.85ZM21.19 28.11l-.02-.02h-.02c-.19.13-.35.23-.49.29-.07.03-.08.01-.03-.04.34-.43.67-.96.64-1.53 0-.17.09-.2.16-.3.8-1.12 1.79-2.19 2.97-2.89a7.9 7.9 0 0 1 3.52-1.08c.11 0 .12.01 0 .05-2.52.97-4.5 2.72-5.73 5.11-.39.75-.7 1.54-.96 2.37-.04.13-.1.22-.21.27-.04.02-.05.01-.03-.03.2-.43.4-.95.3-1.44a6.3 6.3 0 0 1-.1-.76ZM21.24 26.22l-.42.16h-.03l-.01-.03v-.01c.28-.2.51-.42.71-.67.06-.06.07-.05.05.03l-.23.82-.01.02h-.04l.03-.29c0-.03-.01-.05-.05-.03ZM30.49 26.22v-.01h.01c.34 0 .67.16.9.46.25.3.39.71.39 1.14v.74c0 .22-.03.42-.1.62-.05.2-.15.37-.27.52a1.3 1.3 0 0 1-.41.35c-.16.09-.32.13-.49.13l-.01-.01-.02-3.94ZM19.38 26.53a.2.2 0 0 0 .08.11c.17.1.36.13.57.06l.03.01v.03c-.4.37-.73.8-.97 1.28-.05.1-.06.09-.04-.01l.26-1.51c0-.03.02-.03.04-.02l.03.05ZM18.55 28.94a.43.43 0 0 0 .2-.16c.02-.04.03-.03.03.01v.76c0 .09-.02.1-.06.02l-.25-.53c-.02-.02-.01-.04.01-.06a.62.62 0 0 1 .07-.04ZM19.09 30.88c-.09-.58-.12-1.2-.1-1.86 0-.03.01-.03.03 0 .17.23.49.18.72.08.07-.03.08-.01.04.05a3.35 3.35 0 0 0-.68 1.74h-.01ZM19.2 31.48c.17.34.5.24.79.1H20l.02.01a.03.03 0 0 1 0 .03 3.86 3.86 0 0 0-.4 1.72c-.2-.62-.35-1.24-.46-1.86-.02-.1 0-.1.04 0ZM18.94 31.43l.1.5v.02a.02.02 0 0 1-.05 0l-.18-.33a.05.05 0 0 1 0-.05l.07-.14a.03.03 0 0 1 .05-.01l.01.01Z" fill="#00A54F"/></svg>