<!-- by TradingView --><svg width="56" height="56" viewBox="0 0 56 56" xmlns="http://www.w3.org/2000/svg"><path fill="#F0F3FA" d="M0 0h56v56H0z"/><path d="m32.73 12.73 4.03 12.15c.04.1.02.2-.05.28l-.68.77L18 15.76a.12.12 0 0 1-.06-.1l.01-.06.04-.04c4.51-3.45 9.43-4.4 14.74-2.83Z" fill="#2C67AD"/><path d="M32.73 12.73c.61.14.95.26 1.02.38 1.19 3.82 2.41 7.59 3.67 11.29.05.15.13.27.23.36a.18.18 0 0 0 .26-.05.18.18 0 0 0 .03-.1l-.02-9.08.93.77-.07 8.38a.15.15 0 0 0 .08.14h.06c.11.01.18-.04.22-.15.66-1.8 1.35-3.66 2.08-5.56.35.41.55.71.6.9l-1.97 5.11a.29.29 0 0 0 .07.34l.57.57c.07.06.14.07.22.02l2.86-1.62.22 1.02c-.99.4-1.86.86-2.6 1.35-.49.32-.44.5.14.5l2.66.1.01.85c-.9.05-1.8.05-2.7 0-.28 0-.43.12-.44.38 0 .07.03.13.09.18.88.65 1.83 1.16 2.87 1.54.03.14-.03.43-.18.87l-2.98-1.57c-.1-.05-.19-.04-.27.04l-.74.74a.23.23 0 0 0-.06.25l2 5.71c-.04.17-.26.5-.66.97l-1.98-5.95c-.13-.38-.2-.37-.2.03l.04 8.33c-.17.25-.48.5-.91.75l.03-9.27c0-.67-.1-.68-.33-.06l-4.27 11.87c-.2.17-.6.3-1.19.37l4.76-12.68a.3.3 0 0 0 0-.2.3.3 0 0 0-.12-.17 1.5 1.5 0 0 1-.62-.77l2.91-1.63a.13.13 0 0 0 .07-.11.13.13 0 0 0-.06-.11l-3.03-1.83.68-.77a.26.26 0 0 0 .05-.28l-4.03-12.15Z" fill="#26ABE3"/><path d="m37.92 15.53.02 9.09a.17.17 0 0 1-.2.17.18.18 0 0 1-.09-.03.76.76 0 0 1-.23-.36c-1.26-3.7-2.48-7.47-3.68-11.3 1.66.65 3.05 1.46 4.18 2.43ZM17.14 16.34l19.11 10.74c.3.16.27.25-.06.25H12.12c-.08 0-.11-.04-.1-.12a16.15 16.15 0 0 1 5.09-10.88h.03ZM38.85 16.3c1.09 1 1.88 1.93 2.37 2.8a303.3 303.3 0 0 0-2.08 5.57c-.04.1-.11.16-.22.16a.15.15 0 0 1-.14-.15l.07-8.38ZM43.57 24.43l-2.86 1.62c-.08.05-.15.04-.22-.02l-.57-.57a.29.29 0 0 1-.07-.34l1.97-5.11a14.73 14.73 0 0 1 1.75 4.42ZM43.79 25.45l.2 1.94-2.66-.08c-.58-.02-.63-.19-.15-.5.75-.5 1.62-.95 2.6-1.36ZM36.55 28.28c.12 0 .12.02.02.08l-19.6 10.98a.23.23 0 0 1-.27-.04A16.05 16.05 0 0 1 12 28.43c0-.1.04-.15.14-.15h24.4ZM44 28.25l-.18 2.1c-1.04-.38-2-.9-2.87-1.54a.2.2 0 0 1-.09-.18c.01-.26.16-.39.45-.37.9.04 1.8.04 2.69-.01ZM36.14 29.61c.13.34.33.6.62.77.06.04.1.1.13.17a.3.3 0 0 1 0 .2l-4.77 12.68A15.8 15.8 0 0 1 17.6 40.1a.15.15 0 0 1 .07-.2l18.47-10.29ZM43.64 31.22a14.47 14.47 0 0 1-2.06 5.17l-1.99-5.7a.23.23 0 0 1 .06-.26l.74-.74c.08-.08.17-.09.27-.04l2.98 1.57ZM37.88 40.52a14.1 14.1 0 0 1-4.57 2.54l4.27-11.87c.22-.62.33-.6.33.06l-.03 9.27ZM40.93 37.36l-2.14 2.4-.03-8.32c0-.4.06-.41.18-.03l1.99 5.95Z" fill="#2C67AD"/></svg>