<!-- by TradingView --><svg width="56" height="56" viewBox="0 0 56 56" xmlns="http://www.w3.org/2000/svg"><path fill="#F0F3FA" d="M0 0h56v56H0z"/><ellipse cx="28" cy="28" rx="20" ry="12" fill="url(#a)"/><path d="M35.99 17.33c1.84.55 3.62 1.31 5.24 2.4a9.67 9.67 0 0 1 3.47 3.84l.38 1.1c.87 3.75-1.92 6.63-4.7 8.23l-.8.45a23.5 23.5 0 0 1-7.74 2.28c-.96.13-1.72.2-2.27.2-.74.03-1.36.06-2.03.04-.7-.03-1.22-.02-1.82-.09-2.68-.2-5.35-.76-7.85-1.8a15.37 15.37 0 0 1-4.45-2.72c-1.91-1.74-3.16-4.2-2.36-6.87a8.7 8.7 0 0 1 3.36-4.37 18.73 18.73 0 0 1 6.12-2.82c1.93-.53 3.9-.84 5.9-.93 3.21-.17 6.44.16 9.55 1.06Zm-9.47-.92c-2.15.1-4.25.44-6.17 1a20.9 20.9 0 0 0-3.71 1.43c-.98.5-1.86 1.05-2.61 1.67a9.83 9.83 0 0 0-1.88 1.97c-.42.6-.73 1.23-.94 1.87a5.7 5.7 0 0 0 .44 4.44c.47.9 1.17 1.76 2.08 2.55.7.6 1.5 1.16 2.42 1.66.65.36 1.35.69 2.1.99 1.6.63 3.4 1.1 5.29 1.4a29.35 29.35 0 0 0 13.23-1.02 20 20 0 0 0 2.79-1.18c.9-.47 1.73-1 2.44-1.57.66-.53 1.23-1.1 1.69-1.7a7.3 7.3 0 0 0 .99-1.7 5.62 5.62 0 0 0-.15-4.68 7.84 7.84 0 0 0-1.24-1.85c-.7-.78-1.58-1.5-2.61-2.15a18.1 18.1 0 0 0-3.24-1.57 25.35 25.35 0 0 0-5.54-1.35c-1.76-.23-3.58-.3-5.38-.21Z" fill="#38438B"/><path d="m27.36 16.62-.03.14-.96.04c-.05 0-.1 0-.14.02a8.26 8.26 0 0 0-1.05.07c-.3.04-.56.04-.92.15h-.36a24.35 24.35 0 0 0-4.9 1.2c-.09 0-.14-.04-.18-.1l1.47-.48c1.4-.4 2.83-.68 4.27-.86.11-.02.23-.01.34-.03.29-.06.56-.04.85-.08l.31-.04 1.3-.03ZM37.21 18.1a.29.29 0 0 1-.17.09l-1.5-.47a27.53 27.53 0 0 0-5.84-.93c-.04-.08-.06-.12-.04-.14 2.6.12 5.1.6 7.55 1.45Z" fill="#286233"/><path d="M26.37 16.8v1.95l-.01.03-.03.02c-.73.17-1.4.47-2.04.88-.04.03-.03.04 0 .04l2.25.18-.55.14-1.86-.2a.2.2 0 0 0-.14.05 7.18 7.18 0 0 0-2.83 4.98.3.3 0 0 1-.14.05 7.33 7.33 0 0 1 2.78-5.06c.04-.04.03-.06-.02-.06-.9-.13-1.79-.3-2.65-.54-.02-.01-.04 0-.06.01a9.88 9.88 0 0 0-2.68 6.5c-.03.04-.07.04-.11.02 0-.27 0-.52.03-.77a10 10 0 0 1 2.58-5.83l-.73-.24-.88-.39-.44-.25h-.04c-1.64.6-3.21 1.42-4.57 2.53a7.23 7.23 0 0 0-2.67 4.1 5.3 5.3 0 0 0-.07 1.29h.02l.02.13-.02-.01v.02l.07.5.06.12h-.02a.02.02 0 0 0-.02.02 6.77 6.77 0 0 0 1.91 3.23l.5.47a14.86 14.86 0 0 0 4.56 2.61h.03a8.42 8.42 0 0 1 1.92-.84c.03 0 .03-.02.01-.04a10.06 10.06 0 0 1-2.08-4.43.15.15 0 0 1 .1-.01c.02 0 .04.02.05.04l.01.08a9.82 9.82 0 0 0 1.6 3.65l.47.62c.01.02.03.02.05.02 1.06-.3 2.14-.51 3.23-.65.03 0 .04-.01.01-.03a7.3 7.3 0 0 1-2.42-3.12l-.22-.59c.07-.05.12-.03.16.04a7.04 7.04 0 0 0 2.68 3.62c.04.03.1.04.14.04l1.47-.14.4.13-1.7.14c-.03 0-.03 0 0 .02a6.22 6.22 0 0 0 6.67-.07l-1.14-.08v-.02c.14-.07.21-.1.25-.1.35 0 .69.03 1.03.08.05 0 .1 0 .14-.03a7.03 7.03 0 0 0 2.6-3.5H37a.03.03 0 0 1 .02.02l.01.02v.01a9.95 9.95 0 0 1-1.94 4.11c-.02.02-.01.04.01.05l.65.2c.6.2 1.17.46 1.7.79.03 0 .05.01.07 0 .9-.33 1.76-.74 2.58-1.21 1.25-.7 2.43-1.63 3.32-2.8.54-.69.92-1.47 1.14-2.35l.01-.12.09-.51a5.25 5.25 0 0 0-.45-2.65 9.4 9.4 0 0 0-4.01-4.06c-.94-.55-1.91-1-2.92-1.37h-.07a11.47 11.47 0 0 1-3.62 1.29c-1.22.24-2.5.39-3.82.46-.08 0-.1-.02-.1-.07.01-.04.04-.07.08-.07 1.72-.1 3.44-.32 5.1-.78a9 9 0 0 0 2.36-1.01c1.16.41 2.27.94 3.32 1.57 1.75 1.07 3.35 2.56 4.05 4.62.36 1.28.29 2.5-.2 3.67-.85 2.05-2.8 3.57-4.63 4.55a22.47 22.47 0 0 1-7.12 2.27 19.82 19.82 0 0 1-2.43.28c-.26 0-.6.03-1.04.05-.54.04-1.08.03-1.62.03-1.08-.02-2.15-.1-3.21-.22-.4-.05-.85-.12-1.34-.23l-1.34-.27c-.82-.17-1.82-.46-2.99-.89a16.22 16.22 0 0 1-4.69-2.67 7.95 7.95 0 0 1-2.3-3.14 5.32 5.32 0 0 1-.28-2.56c.23-1.96 1.65-3.6 3.08-4.7a15.6 15.6 0 0 1 4.35-2.31c.04.05.1.08.18.08.64.37 1.3.65 2 .83.03 0 .06 0 .08-.03a9.35 9.35 0 0 1 2.82-2h.36a9.26 9.26 0 0 0-3.04 2.07c-.02.02-.01.03.01.04.9.24 1.8.42 2.74.54.04 0 .08 0 .11-.03a6.6 6.6 0 0 1 2.1-.97c.03 0 .04-.02.04-.05v-1.8c.06-.03.1-.04.15-.03Zm7.44 15.25 1.05.25c.03 0 .06 0 .08-.03a9.84 9.84 0 0 0 1.92-3.93c.01-.03 0-.04-.02-.04H34.15a7.25 7.25 0 0 1-2.52 3.38c-.01.02-.01.03.01.03l2.17.34Zm-6.69.88a6.51 6.51 0 0 1-2.86-1 .22.22 0 0 0-.14-.04c-1.09.12-2.17.33-3.25.63-.04.02-.05.04-.02.07a9.96 9.96 0 0 0 2.25 1.87c.15.1.27.14.37.16a29.43 29.43 0 0 0 8.16.13c.18-.03.33-.03.51-.13a9.87 9.87 0 0 0 2.65-2.18h-.01v-.01l-.95-.23c-.79-.16-1.57-.28-2.36-.36-.03 0-.06 0-.09.02a6.46 6.46 0 0 1-4.26 1.07Zm5.3 1.72.2-.02a24.62 24.62 0 0 0 4.68-1.2v-.01l-.01-.01a9 9 0 0 0-2.11-.87c-.05-.01-.13-.05-.2-.05a.08.08 0 0 0-.06.03 9.27 9.27 0 0 1-2.5 2.13Zm-13.66-1.27v.02c0 .02 0 .02.02.03h.04c1.3.48 2.65.84 4.03 1.09.07.01.07 0 .02-.03a9.6 9.6 0 0 1-2.18-1.87.06.06 0 0 0-.07-.02c-.68.2-1.3.46-1.86.78Z" fill="#38438B"/><path d="M27.53 19.9c-.02-.06-.04-.1-.04-.17a1011.28 1011.28 0 0 1 0-2.72l.03-.01h1.98c.02 0 .03.01.03.03v5.22c0 .03 0 .04-.03.03l-.49-.16a3.6 3.6 0 0 0-4.36 2.37c0 .03-.02.04-.05.04h-2.02c-.03 0-.04-.01-.03-.04a5.7 5.7 0 0 1 4.95-4.55c.03 0 .04-.02.03-.04Z" fill="#ED2024"/><path d="m33.53 20.18.54.7v.05l-.35.37a.07.07 0 0 0-.02.07l.08.53-.01.07a1.5 1.5 0 0 0-.1.3c-.06.21-.45.29-.55.28-.32-.01-.64-.02-.96-.01l-.26-.04a.12.12 0 0 1-.06-.03l-.52-.45c-.02-.02-.02-.04-.01-.06l.34-.8a.08.08 0 0 1 .05-.05c.25-.08.48-.12.7-.1.03 0 .04 0 .04-.04l-.05-.34v-.04s0-.02.02-.03c.1-.08.22-.12.32-.27.13-.2.31-.33.56-.39.02 0 .04 0 .05.02l.2.26ZM34.27 20.9a.44.44 0 0 0-.15-.15l-.01-.01a.06.06 0 0 1 0-.06c.16-.25.35-.45.55-.62.2-.15.39-.17.6-.06.02 0 .03.03.04.05l.11.52c.06.29.36.26.4.5.01.09.04.15.08.2.1.1.42.22.48.4a7.83 7.83 0 0 1 .08.26c0 .02-.01.02-.02.03-.3.13-.48.2-.7.37l-.24.17a.13.13 0 0 1-.07.02h-.62a.1.1 0 0 1-.04-.01.11.11 0 0 1-.04-.04l-.48-.66a.22.22 0 0 1-.04-.16l.08-.7v-.05Z" fill="#259245"/><path d="M40.9 27H16.44c-.02 0-.12.22 0 .22h24.33l-.36.78c-.02.03.03 0 0 0H15.93c-.02 0 .01.01 0 0l-2.46-2.01c-.02-.02-.02.01.01.01h5.42c.13 0 .25-.07.37-.12.32-.14 1.05-.37 2.2-.88h3.14c.7 0 1.88-1.38 1.95-2H30v.6c0 .55.16 1.12.63 1.39.07.04.18.01.33.01h4.8c.22 0 .4.02.55-.04.74-.28 1.53-1.27 2-1.96h4.9l-2.31 4Z" fill="#ED2024"/><path d="m32.66 23.22-.24-.1a.06.06 0 0 1-.04-.06l-.03-.4.64.01c.19 0 .27.1.44.21a.13.13 0 0 0 .1.02l1.03-.27a.14.14 0 0 1 .12.03l.28.2c.03.03.08.05.12.05h.62c.03 0 .04.01.04.04l-.01.28c0 .02-.02.04-.04.06l-.16.14c-.03.02-.05.02-.07 0a2.62 2.62 0 0 0-1.03-.34l-.71.3a.08.08 0 0 1-.07 0c-.1-.03-.24-.12-.35-.14-.19-.05-.41.05-.64-.03Z" fill="#259245"/><path d="m11.64 27-.06-.13h2.17v-.01l-.45-.48a.06.06 0 0 0-.04-.02h-1.73l-.02-.14h1.77c.04 0 .07.02.1.04l.65.7V27H11.64ZM42.84 26.21h1.82c.02.06.02.11 0 .15H42.9a.1.1 0 0 0-.08.03l-.38.42c-.04.03-.03.05.02.05h2.1l-.02.13H42.6l-.46.01h-.02a.03.03 0 0 1 0-.05l.73-.74Z" fill="#286233"/><path d="M33.16 28.48a5.73 5.73 0 0 1-4.33 3.35c-2.58.4-5.04-1.2-6.02-3.79 0-.02 0-.03.03-.03h2.19c.03 0 .05.01.06.04a3.48 3.48 0 0 0 5.35.72c.1-.08.2-.21.31-.3a.09.09 0 0 1 .06-.03h2.34a.03.03 0 0 1 .02.03v.01Z" fill="#ED2024"/><path d="m44.21 33.26-.17.18c-.03.02-.04.02-.04-.02v-.04c0-.03 0-.05-.02-.07l-.89-1.04c-.01-.03-.03-.03-.05 0l-.39.36a.06.06 0 0 0-.02.04v.09c0 .04-.02.05-.04.02l-.27-.32v-.04h.07c.02 0 .04 0 .06-.02l.55-.54.55-.54a.08.08 0 0 0 .03-.07V31.18h.04l.27.31c.03.04.02.05-.02.05h-.08l-.04.01-.38.38c-.02.02-.02.04 0 .06l.91 1.03c.01.02.03.03.05.03h.04c.04 0 .05.01.02.04l-.18.17ZM13.08 31.88c.39.33.6.79.37 1.31a.9.9 0 0 1-.75.56c-.03 0-.04.02-.04.05.02.08.03.15.02.2 0 .03 0 .06.02.08l.05.05c.02.03.02.04-.02.04h-.45c-.03 0-.03-.01-.02-.04.09-.16.1-.31.03-.46-.25-.1-.44-.28-.58-.5-.39-.61-.05-1.45.65-1.53.25-.03.5.05.72.24Zm-.83 1a.03.03 0 0 1 0-.03l.02-.01h.01c.2.05.32.2.35.45 0 .05.03.07.08.05a.68.68 0 0 0 .26-1.13c-.19-.19-.4-.24-.64-.15-.29.1-.49.47-.4.8.06.2.19.35.38.46.02 0 .03 0 .04-.03a.8.8 0 0 0-.1-.41ZM42.23 33.93l.61.3.08.02h.13c.04 0 .05.01.01.04l-.48.32c-.02.02-.03.01-.04-.02v-.05l-.02-.03-.02-.02-.61-.3a.04.04 0 0 0-.04 0l-.37.23a.04.04 0 0 0-.01.02.04.04 0 0 0 0 .03l.26.48.05.05a.2.2 0 0 0 .1.04c.03 0 .03.01 0 .04l-.41.28c-.06.03-.07.02-.04-.04.03-.03.02-.08-.02-.15l-.78-1.33a.06.06 0 0 0-.06-.04h-.05l-.01-.01v-.05l1.01-.67c.3-.2.6-.22.8.1.17.25.14.5-.1.74v.01Zm-1.16-.13.2.35.02.01h.03l.6-.4a.28.28 0 0 0 .11-.16l.01-.09a.22.22 0 0 0-.03-.09L42 33.4a.2.2 0 0 0-.15-.1h-.09a.26.26 0 0 0-.09.04l-.6.4-.01.03v.03ZM14.36 34.88c.25.15.47.2.64-.1a180.69 180.69 0 0 0 .5-.95v-.07c0-.03 0-.04.03-.02l.4.24c.03.02.03.04 0 .05l-.07.03c-.02 0-.03.02-.05.05l-.5.92c-.27.52-.7.37-1.1.13-.4-.24-.73-.58-.43-1.08a116.13 116.13 0 0 0 .52-1l-.01-.07c0-.03 0-.04.04-.02l.4.24c.02.02.02.03-.01.05l-.06.03a194.64 194.64 0 0 0-.53.93c-.16.3-.01.48.23.64ZM39.8 34.38c.31.15.5.38.56.7.18.86-.65 1.4-1.34 1.26a.97.97 0 0 1-.65-.74.95.95 0 0 1 .08-.67c.16-.28.4-.47.72-.56a.95.95 0 0 1 .64.01Zm.2.97a.7.7 0 0 0-.19-.48.6.6 0 0 0-.44-.2.6.6 0 0 0-.44.2.7.7 0 0 0-.19.48c0 .17.07.34.19.47.11.12.27.2.44.2a.6.6 0 0 0 .44-.2.7.7 0 0 0 .19-.47ZM17.58 34.8c.03.03 0 .07-.06.1-.03 0-.04.02-.04.04l.11 1.77c0 .03.03.08.06.15.02.03.01.04-.02.03a.12.12 0 0 1-.04-.02l-.5-.22c-.06-.03-.06-.05.01-.06.01 0 .03 0 .05-.02a.07.07 0 0 0 .03-.06v-.28a.06.06 0 0 0-.04-.06l-.68-.34-.05.01-.23.22a.07.07 0 0 0-.02.06c0 .03.01.05.03.08v.03l-.01.01h-.02l-.47-.2c-.06-.03-.06-.06 0-.08h.04c.03 0 .05 0 .07-.03l1.22-1.17a.08.08 0 0 0 .02-.08l-.01-.08c-.01-.03 0-.04.03-.03l.52.22Zm-.7.95.24.1c.02 0 .03 0 .03-.03a672.04 672.04 0 0 0-.03-.65h-.01c-.3.27-.44.42-.45.43-.02.02-.02.03 0 .04l.23.1ZM36.63 36.6v.01a.03.03 0 0 0-.02.02v.02l.16.56c.01.04.03.06.06.07l.05.03c.03.01.03.02 0 .03l-.47.16c-.04 0-.05 0-.03-.05l.01-.03a.12.12 0 0 0 0-.08l-.42-1.5a.09.09 0 0 0-.03-.04l-.07-.07c-.02-.03-.02-.04.01-.05l1.08-.37c.36-.11.6-.03.73.26.15.31.05.64-.26.77-.24.1-.5.2-.8.27Zm-.24-.73.12.42.01.02h.02l.64-.2a.28.28 0 0 0 .15-.12.2.2 0 0 0 .02-.17l-.01-.06a.2.2 0 0 0-.11-.12.26.26 0 0 0-.19-.01l-.63.2-.01.01a.03.03 0 0 0-.01.03ZM19.08 36.1l-.27 1.02c-.01.02-.01.05 0 .07l.02.07c0 .03 0 .04-.02.03l-.43-.13c-.05-.01-.05-.03 0-.06l.03-.02a.09.09 0 0 0 .04-.05 33.86 33.86 0 0 0 .4-1.65c-.06-.06-.05-.08.03-.06l.47.15c.03 0 .03.02.02.05-.04.05-.04.1-.02.15l.64 1.28c.01.03.02.03.03 0l.27-1c.02-.09 0-.1-.03-.16v-.02a.03.03 0 0 1 .02-.02h.01l.44.14c.04 0 .04.02 0 .04l-.05.04a.08.08 0 0 0-.04.05l-.4 1.54v.08l.02.04c.02.04.01.05-.03.04l-.47-.14c-.03-.01-.04-.03 0-.05l.04-.04v-.05l-.67-1.34c-.02-.05-.04-.05-.05 0ZM22.74 37.52l-.4-.07a.1.1 0 0 0-.06 0 .12.12 0 0 0-.03.02c-.05.07-.07.06-.05-.03l.06-.32c0-.04.02-.04.05-.01l.02.04c.02.01.03.03.06.03l.8.16h.02v.02l-.07.06a.07.07 0 0 0-.02.04l-.07.4c0 .03 0 .05.02.08l.02.03c.02.02.02.04 0 .05-.43.16-.83.18-1.18.06-.55-.18-.83-.66-.66-1.26.2-.75 1.1-.79 1.62-.48.18.11.29.16.32.17.03 0 .03 0 .02.03l-.25.36a.02.02 0 0 1-.02 0 .4.4 0 0 0-.2-.26c-.35-.18-.79-.23-1.03.13a.69.69 0 0 0-.1.46c.05.56.68.66 1.09.57.02 0 .03-.02.04-.05l.03-.18c0-.03 0-.04-.03-.05ZM33.22 37.4l-.46.08c-.03 0-.04.02-.04.05l.1.63c0 .03.02.05.04.07.03 0 .04.02.05.04.01.02 0 .03-.01.03l-.5.08c-.02.01-.03 0-.02-.03l.03-.07a.13.13 0 0 0 .01-.07l-.24-1.58a.1.1 0 0 0-.04-.07l-.03-.02c-.03-.02-.03-.04.01-.05l.48-.08c.05 0 .06 0 .02.04-.03.03-.05.11-.03.24 0 .07.03.21.07.43 0 .03.02.04.05.04a9.87 9.87 0 0 0 .92-.16c.03 0 .04-.02.03-.05a7.84 7.84 0 0 0-.05-.44c-.03-.12-.06-.2-.1-.21-.05-.02-.05-.04 0-.04l.48-.09c.04 0 .05 0 .03.04l-.03.04a.1.1 0 0 0-.02.07l.24 1.58.03.06.05.06c.02.02.02.04-.01.04l-.5.09c-.01 0-.02 0-.01-.03l.03-.06a.1.1 0 0 0 .03-.08l-.1-.62c0-.03-.02-.04-.05-.04l-.46.08ZM31.3 36.6l.08 1.74c0 .04.02.06.04.08l.03.03c.02.02.01.03-.01.03l-.52.05a.41.41 0 0 0 .01-.12.1.1 0 0 0-.02-.06l-1.05-1.01c-.03-.02-.04-.02-.03.02l.07 1.07c0 .06.02.1.04.11.09.04.08.06 0 .07l-.43.02c-.04 0-.05-.01-.02-.05l.02-.02a.1.1 0 0 0 .03-.07l-.1-1.45c-.01-.14-.04-.23-.09-.29-.01-.01-.01-.02.01-.02l.54-.04c.03 0 .04 0 .03.04l-.02.05-.01.03.01.04 1.05 1c.02.02.02.01.02 0l-.07-1.1-.02-.04-.05-.04c-.05-.04-.05-.06.02-.06l.44-.02ZM25.2 38.58c.12-.63.16-1.27.1-1.92l.53.06c.02 0 .03.01.02.04l-.03.06a.06.06 0 0 0 0 .07l.93 1.09c.01.02.02.01.02-.01l.06-1.05c0-.02 0-.05-.02-.07l-.03-.04c-.02-.04-.01-.05.03-.05l.43.02.01.01v.01a.03.03 0 0 1 0 .03l-.04.06a.1.1 0 0 0-.02.05l-.08 1.57c0 .03 0 .05.02.08l.04.06c.01.03 0 .05-.03.04l-.48-.02c-.03 0-.03-.02-.02-.05l.03-.07a.06.06 0 0 0-.01-.07l-.96-1.13c-.01-.02-.02-.01-.02.01l-.06 1.09c0 .04.02.08.05.1l.03.03c.03.02.03.03 0 .03l-.5-.03ZM28.55 37.69l.01.81c0 .03.01.05.03.07l.04.04c.02.03.01.04-.02.04a8.26 8.26 0 0 0-.52-.02v-.02c.02 0 .03-.02.05-.06a29.94 29.94 0 0 0-.01-1.72l-.05-.05v-.02l.01-.02h.02l.49-.01c.03 0 .03 0 .01.03l-.03.04a.1.1 0 0 0-.03.08v.8Z" fill="#38438B"/><defs><linearGradient id="a" x1="10.9" y1="22.12" x2="46.48" y2="32.26" gradientUnits="userSpaceOnUse"><stop stop-color="#FBA919"/><stop offset=".28" stop-color="#FFCB15"/><stop offset=".52" stop-color="#FFED02"/><stop offset=".66" stop-color="#F5E61C"/><stop offset="1" stop-color="#FBA919"/></linearGradient></defs></svg>