<!-- by TradingView --><svg width="56" height="56" viewBox="0 0 56 56" xmlns="http://www.w3.org/2000/svg"><path fill="#F0F3FA" d="M0 0h56v56H0z"/><path d="m28.14 9 15.69 13.75c.14.12.11.25-.07.25h-10.6c-.1 0-.16-.11-.16-.21v-1.64c0-.07.04-.1.1-.1h.63c.12 0 .13-.04.04-.11l-5.68-4.61a.23.23 0 0 0-.28 0l-5.53 4.55c-.08.07-.07.1.03.13l.47.11c.06.02.12.05.16.1.04.05.06.1.06.17v1.47c0 .04-.01.07-.04.1a.14.14 0 0 1-.1.04H12.15c-.1 0-.1-.1-.04-.16L27.77 9h.37Z" fill="#01913F"/><path d="M27.2 27.33h.12c.14 0 .2-.07.2-.2v-.56c0-.13.07-.2.2-.2h1.14c.1 0 .15.06.14.16-.03.39-.06.65-.1.77-.2.64-1.47.75-1.98.68-.78-.1-1.34-.24-1.38-1.12-.03-.6-.08-1.56 0-2 .21-1.04 2-.94 2.72-.71.72.22.73.8.73 1.44 0 .11-.05.17-.16.17h-1.16c-.14 0-.18-.07-.15-.2.03-.1.03-.34-.02-.74 0-.11-.07-.17-.17-.19a.35.35 0 0 0-.09 0c-.16.02-.24.1-.24.24v2.26c0 .14.07.2.2.2ZM13.92 26.55c.04 0 .14-.83.31-2.47 0-.05.04-.08.1-.08h1.43l.02.02a.05.05 0 0 1 0 .04l-.72 3.83c0 .06-.04.09-.1.09a164.05 164.05 0 0 1-2.07.02c-.05 0-.08-.03-.1-.08L12 24.06a.05.05 0 0 1 .05-.06h1.41c.06 0 .09.03.1.09.2 1.63.32 2.45.36 2.46ZM17.42 24h-1.38a.04.04 0 0 0-.04.04v3.92c0 .02.01.04.04.04h1.38c.02 0 .04-.02.04-.04v-3.92a.04.04 0 0 0-.04-.04ZM18 27.94v-3.88l.01-.04a.05.05 0 0 1 .04-.02h1.19l.02.03.66 1.6.02.02c.04.02.06-.01.06-.05v-1.54l.02-.02.01-.02.02-.01h1.12a.05.05 0 0 1 .03.01.06.06 0 0 1 .02.04v3.88c0 .02 0 .03-.02.04a.05.05 0 0 1-.03.02h-1.2l-.02-.03-.65-1.6a.05.05 0 0 0-.03-.02.05.05 0 0 0-.06.01l-.01.04v1.54c0 .02 0 .03-.02.04a.05.05 0 0 1-.03.02h-1.1c-.02 0-.03 0-.04-.02a.06.06 0 0 1-.01-.04ZM36.66 25.6c-.1.4-.24 1.17-.41 2.31-.01.06-.04.09-.1.09h-.76c-.06 0-.1-.03-.1-.1l-.46-2.15c-.02-.1-.03-.1-.04 0a21.03 21.03 0 0 0-.04 2.23.05.05 0 0 1-.04.02h-1.19c-.04 0-.06-.02-.06-.07v-3.85c0-.05.02-.08.07-.08h1.81c.04 0 .06.02.07.06.06.56.17 1.09.32 1.57.05.14.08.14.1 0l.21-1.54c.01-.06.04-.09.1-.09h1.8c.04 0 .06.03.06.08v3.87c0 .03 0 .05-.03.05h-1.24v-2.4c0-.17-.02-.18-.07 0ZM39.96 24h-1.4a.04.04 0 0 0-.03.04v3.92c0 .02.01.04.04.04h1.4c.01 0 .03-.02.03-.04v-3.92a.04.04 0 0 0-.04-.04ZM42 26.44v1.5c0 .04-.02.06-.05.06h-1.1c-.05 0-.07-.02-.07-.06v-3.82c0-.08.03-.12.1-.12h1.07l.07.03.04.06.6 1.45c.1.22.14.2.14-.03l-.01-1.45c0-.03.01-.06.05-.06h1.12c.03 0 .04.01.04.04v3.85c0 .07-.03.1-.1.11h-1.08l-.05-.02a.11.11 0 0 1-.04-.05l-.64-1.51c-.07-.19-.1-.18-.09.02ZM32.65 27.65c.22-.22.35-.52.35-.83v-1.65c0-.3-.14-.6-.36-.83a1.19 1.19 0 0 0-.84-.34h-1.07a1.19 1.19 0 0 0-1.18 1.19v1.64A1.17 1.17 0 0 0 30.74 28h1.07c.32 0 .62-.13.84-.35Zm-1.41-3.02h.04c.13 0 .24.1.24.22l-.01 2.29c0 .12-.1.22-.24.22h-.04c-.13 0-.24-.1-.24-.22l.01-2.3c0-.11.1-.21.24-.21Z" fill="#0A0B0B"/><path fill-rule="evenodd" d="M24.55 24.08c0-.05-.04-.08-.1-.08H22.5c-.06 0-.1.06-.11.11l-.69 3.73c-.02.11.02.16.13.16h1.22c.1 0 .14-.09.15-.18l.03-.45c0-.06.04-.1.1-.12a1 1 0 0 1 .19-.01h.17c.07.02.1.06.11.12l.05.45c0 .1.06.19.16.19h1.21c.1 0 .15-.1.13-.21l-.79-3.7Zm-1.2 2.47.02.01h.27a.04.04 0 0 0 .04-.02v-.05c0-.39-.02-.76-.05-1.04-.03-.28-.06-.43-.1-.43h-.05c-.02 0-.04.03-.06.1l-.04.33a8.25 8.25 0 0 0-.04 1.04v.06Z" fill="#0A0B0B"/><path d="M43.82 29H12.18c-.1 0-.18.11-.18.25v.02c0 .14.08.25.18.25h31.64c.1 0 .18-.11.18-.25v-.02c0-.14-.08-.25-.18-.25Z" fill="#727377"/><path d="M23.22 32.09c.08 0 .14 0 .2-.02.03 0 .06-.03.08-.05a.17.17 0 0 0 .03-.08l.07-.36c0-.04.03-.05.06-.05H23.97l.02.04c.07 1.2-1.34 1.19-1.38.17a9.9 9.9 0 0 1 .01-1.3c.04-.5.41-.55.8-.54.38.02.57.26.57.73l-.01.05a.07.07 0 0 1-.05.02c-.25.06-.38-.02-.39-.24a.24.24 0 0 0-.03-.12.22.22 0 0 0-.09-.08.2.2 0 0 0-.22.02c-.1.1-.17.2-.17.35-.01.55-.04 1.13.07 1.36.03.06.07.1.12.1ZM25.8 31.02v.18c0 .02-.02.04-.03.05a.07.07 0 0 1-.05.02h-.8l-.05.02a.07.07 0 0 0-.02.05V32c0 .02 0 .04.02.06l.05.02h.89a.07.07 0 0 1 .04.04v.23a.08.08 0 0 1-.02.05l-.02.02h-1.32a.06.06 0 0 1-.04-.02.07.07 0 0 1-.02-.05v-2.32c0-.02 0-.04.02-.05a.07.07 0 0 1 .04-.02h1.28c.02 0 .04 0 .05.02l.02.05v.2c0 .01 0 .03-.02.05a.07.07 0 0 1-.05.02h-.86c-.01 0-.03 0-.04.02a.07.07 0 0 0-.02.05v.52c0 .01 0 .03.02.05l.04.02h.81c.02 0 .04 0 .05.02l.02.05ZM27.26 32.41h-.06a.13.13 0 0 1-.1-.11l-.38-1.97h-.05c-.02 0-.03.02-.03.04l.05 1.9c0 .06-.03.1-.09.11l-.18.05c-.1.02-.16-.02-.16-.14v-2.26a.1.1 0 0 1 .03-.06.09.09 0 0 1 .06-.03h.5c.06 0 .1.03.11.08.18.94.28 1.41.3 1.41.02 0 .12-.46.31-1.4.01-.06.05-.1.1-.09h.5c.03 0 .06.01.07.03a.1.1 0 0 1 .03.07l-.01 2.26c0 .11-.06.16-.16.13l-.19-.04c-.05-.02-.08-.06-.08-.12l.06-1.9c0-.02 0-.03-.03-.03l-.04-.01-.41 1.97c-.01.05-.04.09-.1.1a.2.2 0 0 1-.05.01ZM29.18 30.37l.01.48c0 .07.03.1.1.1l.71-.02c.09 0 .13.05.13.14l.01.07c0 .08-.04.13-.12.13h-.74a.1.1 0 0 0-.07.02.1.1 0 0 0-.02.06v.6c0 .07.02.1.08.1h.77c.1 0 .15.06.15.16v.07c0 .08-.03.12-.1.12h-1.23c-.06 0-.1-.03-.1-.1V30c0-.05.03-.07.07-.07l1.26.01c.08 0 .11.04.1.12l-.01.1c0 .09-.05.12-.12.12h-.8c-.05 0-.08.03-.08.09ZM31.49 31.12l.18.47c.04.1.05.1.05-.02l-.06-1.52c0-.08.03-.11.1-.11h.22a.1.1 0 0 1 .07.03c.02.02.04.05.04.08v2.27c0 .06-.03.09-.1.09h-.26c-.06 0-.1-.03-.12-.1a28.34 28.34 0 0 0-.58-1.55c-.04-.1-.06-.1-.05.02l.06 1.52c0 .07-.03.11-.1.11h-.22a.1.1 0 0 1-.08-.03.12.12 0 0 1-.03-.08v-2.27c0-.06.03-.1.09-.1h.26c.07 0 .1.04.13.1.13.39.27.75.4 1.09ZM33.18 29.94l.63.01c.08 0 .13.06.13.14v.07c0 .03-.02.06-.04.09a.12.12 0 0 1-.09.04h-.3a.11.11 0 0 0-.08.03.13.13 0 0 0-.04.1l.01 1.89a.1.1 0 0 1-.02.06.12.12 0 0 1-.06.04h-.27a.12.12 0 0 1-.06-.04.1.1 0 0 1-.02-.06v-1.9a.14.14 0 0 0-.03-.09.11.11 0 0 0-.09-.04h-.3a.12.12 0 0 1-.08-.03.13.13 0 0 1-.04-.1v-.06c0-.08.04-.13.13-.14l.62-.01Z" fill="#0A0B0B"/><path d="M28 46.99 12.1 33.09a.06.06 0 0 1-.02-.05l.02-.03.03-.01h31.66a.05.05 0 0 1 .05.04.06.06 0 0 1-.02.06L28.08 46.99a.05.05 0 0 1-.07 0Z" fill="#727377"/></svg>