<!-- by TradingView --><svg width="56" height="56" viewBox="0 0 56 56" xmlns="http://www.w3.org/2000/svg"><path fill="#F0F3FA" d="M0 0h56v56H0z"/><path d="m18.18 32.57-2.87 4.4a.07.07 0 0 1-.06.03l-2.37-.1a6 6 0 0 1-1.38-.16 8.51 8.51 0 0 1-6.41-9.45A8.6 8.6 0 0 1 13.85 20a35107.4 35107.4 0 0 0 10.26.02v.03l-2.85 4.38a.11.11 0 0 1-.1.05h-6.93c-.47 0-.97.12-1.5.35a4.01 4.01 0 0 0 .94 7.62c.28.05.66.08 1.15.07a772.72 772.72 0 0 1 3.36.02v.02Z" fill="#0173BC"/><path d="M23.42 24.47h-1.08a.03.03 0 0 1-.03-.01v-.04l2.87-4.4a.03.03 0 0 1 .03-.02h1.1l.02.02a.03.03 0 0 1 0 .03l-2.88 4.4a.03.03 0 0 1-.03.02ZM31.57 31.73c-.03.01-.03.03-.01.06l4.29 5.15a.03.03 0 0 1 0 .04l-.01.01h-7.02a.24.24 0 0 1-.18-.08l-3.58-4.3a.21.21 0 0 0-.17-.07h-5.6a.03.03 0 0 1-.02-.03v-.01l2.84-4.41c.03-.05.07-.09.13-.09h5.12c.7 0 1.23-.19 1.62-.61.28-.5.52-1.27.06-2-.38-.6-.94-.9-1.68-.9a147.07 147.07 0 0 0-2.84-.03v-.03l2.86-4.38.03-.03.04-.01c.62-.01 1.33-.03 1.92.06a6.38 6.38 0 0 1 5.06 4.06 6.2 6.2 0 0 1-2.86 7.6Z" fill="#FF9400"/><path d="M44.6 21.56H49.97v.01l.01.01v.02l-.46.7a.1.1 0 0 1-.09.04H44.1a.1.1 0 0 0-.09.05l-.4.6v.03h.02l.01.01H49a.03.03 0 0 1 .01.04l-.88 1.35a.11.11 0 0 1-.1.05H37.2c-.65 0-1.23.12-1.75.36-.02 0-.04 0-.04-.02a7.1 7.1 0 0 0-3.73-4.77c-.04-.03-.04-.04.01-.04h19.3l.02.01v.02l-.5.78a.13.13 0 0 1-.12.06h-5.34a.06.06 0 0 0-.05.03l-.41.62a.02.02 0 0 0 0 .03.02.02 0 0 0 .02 0ZM45.13 32.58l-2.86 4.39a.07.07 0 0 1-.06.03h-5.15a.17.17 0 0 1-.13-.06l-4.2-5.05a.04.04 0 0 1-.01-.03v-.02a7.2 7.2 0 0 0 1.3-1.23.03.03 0 0 1 .02.02 3.39 3.39 0 0 0 3.15 1.9 3384.63 3384.63 0 0 1 7.94.01.03.03 0 0 1 0 .04Z" fill="#0173BC"/></svg>