<!-- by TradingView --><svg width="56" height="56" viewBox="0 0 56 56" xmlns="http://www.w3.org/2000/svg"><path fill="#F0F3FA" d="M0 0h56v56H0z"/><path d="M18.56 22.98V23l-.96.94c-.5.48-1.26.6-1.85.24a4.07 4.07 0 0 1-.54-.5 7.14 7.14 0 0 0-4.54-2.05 6.5 6.5 0 0 0-5.34 1.98v-.01a8.28 8.28 0 0 1 8.07-3.52 8.16 8.16 0 0 1 5.16 2.89ZM23.98 28.5c0 .93-.39 1.82-1.09 2.47A3.84 3.84 0 0 1 20.27 32c-.99 0-1.94-.37-2.63-1.03a3.4 3.4 0 0 1-1.1-2.47c0-.93.4-1.82 1.1-2.47A3.84 3.84 0 0 1 20.27 25c.98 0 1.93.37 2.62 1.03A3.4 3.4 0 0 1 24 28.5Zm-1.5 0c0-.55-.24-1.08-.65-1.47-.42-.38-.98-.6-1.56-.6-.58 0-1.14.22-1.56.6-.41.4-.64.92-.64 1.47 0 .55.23 1.08.64 1.47.42.38.98.6 1.56.6.58 0 1.14-.22 1.56-.6.41-.4.64-.92.64-1.47ZM33.66 24.77h.01A7768.3 7768.3 0 0 1 37.13 32H35.5c-.02 0-.04 0-.05-.03l-.5-.97h-2.63l-.48.97c0 .02-.02.03-.04.03h-1.62a.01.01 0 0 1-.01-.03l3.47-7.2h.01Zm-.72 4.94a.02.02 0 0 0 0 .02h1.42a.02.02 0 0 0 .01 0v-.02l-.69-1.45a.02.02 0 0 0-.02 0h-.02l-.7 1.45ZM48.52 24.77h.01A7768.3 7768.3 0 0 1 51.98 32h-1.62c-.02 0-.03 0-.04-.03l-.5-.97H47.2l-.48.97c0 .02-.02.03-.05.03h-1.62a.01.01 0 0 1 0-.03c1.15-2.4 2.3-4.8 3.47-7.2h.01Zm-.72 4.94a.02.02 0 0 0 0 .02h1.41a.02.02 0 0 0 .02 0v-.02l-.7-1.45a.02.02 0 0 0-.01 0h-.01l-.71 1.45ZM40.4 28.9a275.03 275.03 0 0 0-.95-1.34v4.42c0 .01-.01.02-.03.02h-1.38c-.03 0-.04-.01-.04-.04v-6.93c0-.02.01-.03.03-.03h1.37a939.3 939.3 0 0 1 3.13 4.44c.02.03.02.02.02 0v-4.42c0-.01.01-.02.03-.02h1.38c.03 0 .04.01.04.04v6.93c0 .02-.01.03-.03.03H42.6c-.02 0-.04 0-.05-.03L40.4 28.9ZM27.24 25h3.36c.02 0 .04.02.04.04v1.35c0 .02-.02.03-.04.03H28V31.99L28 32l-.02.01h-1.49v-5.55l-.01-.02-.03-.01h-2.57c-.02 0-.04-.01-.04-.04v-1.34c0-.02.02-.04.04-.04h3.37ZM18.59 33.03a8.17 8.17 0 0 1-5.17 2.88 8.3 8.3 0 0 1-8.09-3.55h.02a6.51 6.51 0 0 0 5.33 2 7.16 7.16 0 0 0 4.55-2.05c.27-.28.45-.45.54-.5a1.52 1.52 0 0 1 1.85.24 1223.76 1223.76 0 0 0 .97.98Z" fill="#0066B3"/><path d="M10.95 22.1a6.71 6.71 0 0 0-5.06 1.68A5.77 5.77 0 0 0 4 27.74v.53c.1 1.48.68 2.76 1.75 3.82a6.4 6.4 0 0 0 4.44 1.84 6.53 6.53 0 0 0 5.17-2.3v-.01h-.02a5.68 5.68 0 0 1-5.06.7 5.32 5.32 0 0 1-1.93-1.17 4.29 4.29 0 0 1 .08-6.38 5.63 5.63 0 0 1 6.93-.4 6.47 6.47 0 0 0-4.41-2.27Z" fill="url(#a)"/><defs><linearGradient id="a" x1="4" y1="28.53" x2="14.69" y2="28.79" gradientUnits="userSpaceOnUse"><stop stop-color="#F3A42F"/><stop offset="1" stop-color="#E54C24"/></linearGradient></defs></svg>