<!-- by TradingView --><svg width="56" height="56" viewBox="0 0 56 56" xmlns="http://www.w3.org/2000/svg"><path fill="#F0F3FA" d="M0 0h56v56H0z"/><path d="m11.08 39.29.47-.29c.11.3.33.44.65.44.3 0 .44-.12.44-.3 0-.1-.04-.18-.13-.24a1.88 1.88 0 0 0-.47-.18c-.25-.08-.4-.14-.58-.27-.17-.13-.26-.33-.26-.6 0-.25.09-.46.27-.62.18-.15.4-.23.65-.23.45 0 .8.24 1 .65l-.47.27c-.11-.24-.29-.37-.53-.37-.23 0-.37.12-.37.3 0 .08.04.16.1.21.08.06.22.12.43.18l.2.07.17.07a.8.8 0 0 1 .18.09c.08.05.2.15.26.25s.1.25.1.41c0 .27-.1.48-.28.64a1.1 1.1 0 0 1-.73.23c-.55 0-.94-.27-1.1-.71ZM15.55 39.43h1.18V40H15v-3h1.7v.57h-1.15v.63h1.06v.56h-1.06v.67ZM18.8 39.57a1.48 1.48 0 0 1-.41-1.07c0-.42.13-.78.4-1.07.28-.29.63-.43 1.05-.43.5 0 .96.26 1.2.68l-.48.28a.8.8 0 0 0-.72-.4.86.86 0 0 0-.66.26.97.97 0 0 0-.25.68c0 .28.09.5.25.68.17.18.39.26.66.26a.8.8 0 0 0 .72-.4l.48.28c-.24.42-.69.68-1.2.68-.42 0-.77-.14-1.04-.43ZM23.1 39.72a.97.97 0 0 1-.3-.74V37h.54v1.93c0 .3.17.5.52.5.36 0 .52-.2.52-.5V37h.55v1.98c0 .31-.1.56-.3.74-.2.19-.45.28-.77.28-.3 0-.56-.1-.76-.28ZM28.4 40l-.56-1.04h-.42V40h-.55v-3H28c.26 0 .48.1.66.3a1 1 0 0 1 .27.7c0 .37-.22.71-.54.87L29 40h-.6Zm-.98-2.45v.89H28c.2 0 .38-.2.38-.45 0-.24-.17-.44-.38-.44h-.57ZM30.77 37h.55v3h-.55v-3ZM35.13 37v.57h-.76V40h-.55v-2.43h-.75V37h2.05ZM37 37h.55v3H37v-3ZM39.94 39.43h1.18V40h-1.73v-3h1.7v.57h-1.15v.63H41v.56h-1.06v.67ZM42.8 39.29l.48-.29c.1.3.32.44.64.44.3 0 .45-.12.45-.3 0-.1-.05-.18-.13-.24a1.88 1.88 0 0 0-.47-.18c-.26-.08-.4-.14-.58-.27-.17-.13-.27-.33-.27-.6 0-.25.1-.46.27-.62.18-.15.4-.23.65-.23.45 0 .8.24 1 .65l-.46.27c-.12-.24-.3-.37-.54-.37-.23 0-.37.12-.37.3 0 .08.04.16.11.21.08.06.22.12.42.18l.2.07.18.07.17.09c.08.05.21.15.26.25.06.1.1.25.1.41 0 .27-.09.48-.28.64a1.1 1.1 0 0 1-.73.23c-.55 0-.94-.27-1.1-.71Z" fill="#FFC800"/><path d="M46 17h-5v17h5V17ZM15 18.4v14.24c0 .21.18.36.4.36H23v1H12.42A2.4 2.4 0 0 1 10 31.62V19.38A2.4 2.4 0 0 1 12.42 17H23v1h-7.6a.4.4 0 0 0-.4.4ZM40 27.23v4.64c-.05 1.1-.91 1.87-2.04 2.08a2.16 2.16 0 0 1-.52.05H25v-1h9.6c.23 0 .4-.16.4-.37v-6.25a.38.38 0 0 0-.4-.38h-7.02c-1.26 0-2.35-.59-2.55-1.72a.96.96 0 0 1-.02-.13L25 23.9v-4.54c0-1.3 1.18-2.37 2.58-2.37H40v1H30.4c-.22 0-.4.17-.4.38v6.34c.03.18.18.28.38.28h7.09c1.4 0 2.53.93 2.53 2.23Z" fill="#2323FF"/></svg>