<!-- by TradingView --><svg width="56" height="56" viewBox="0 0 56 56" xmlns="http://www.w3.org/2000/svg"><path fill="#F0F3FA" d="M0 0h56v56H0z"/><path d="M29.5 11c13.8 1.23 20.3 17.4 11.47 27.98a17.04 17.04 0 0 1-20.46 4.29A17.07 17.07 0 0 1 18.23 14 16.57 16.57 0 0 1 26.46 11h3.03Z" fill="#9B0C1C"/><path d="M42.85 22.89a15.69 15.69 0 1 0-29.67 10.18 15.69 15.69 0 0 0 29.67-10.18Z" fill="url(#a)"/><path d="M17.52 26.1c.1-.21.21-.26.3-.14-.39 1.14-.02 2.23.48 3.27a.05.05 0 0 0 .01.02.05.05 0 0 0 .06 0 .05.05 0 0 0 .02-.02l.2-.36c.06-.1.1-.09.12.01l1.01 3.78a11.33 11.33 0 0 1-.71 3.66c-.03.08-.1.11-.18.08-.12-.03-.25-.09-.38-.14-.38-.15-.78-.31-1.17-.21-.86.23-1.12 1.17-.56 1.87.04.05.1.08.17.08h3.58a.48.48 0 0 0 .47-.5c0-.15-.03-.3-.06-.47a2.26 2.26 0 0 1-.05-.89c.08-.3.14-.48.17-.5a4.2 4.2 0 0 0 1-1.9l.38-1.9c0-.04.02-.07.05-.09a.14.14 0 0 1 .1-.02c.56.09 1 .33 1.3.73.17.23.29.66.33 1.3a85.66 85.66 0 0 1 .14 2.51.22.22 0 0 1-.26.12l-.04-.01c-.95-.29-2.01-.61-2.35.7-.07.3.02.58.28.84.03.03.1.08.2.08h3.64c.1 0 .17-.14.2-.19.32-.45.17-.8.01-1.17a2.83 2.83 0 0 1-.15-.42.4.4 0 0 1 .01-.24c.32-.85.56-1.9.73-3.17.03-.24.16-.34.4-.31l2.47.27c.06 0 .12.03.16.07l.77.68.05.05.03.03c.65.72 1.24 1.35.85 2.3-.27.52-.63.73-1.1.64a.37.37 0 0 1-.2-.1c-.6-.58-1.16-.59-1.68-.03-.39.41-.41 1-.08 1.5.04.06.1.09.16.09h3.75a.42.42 0 0 0 .4-.3c.06-.2.05-.6 0-.93a.9.9 0 0 1 .11-.64c.32-.5.54-.92.66-1.27.15-.45.11-1.08.08-1.62a8.71 8.71 0 0 1-.02-.6c0-.08.04-.11.12-.08.9.35 1.87.5 2.91.46a.2.2 0 0 1 .2.1c.65 1.12.6 2.37-.16 3.38a.23.23 0 0 1-.27.08l-.33-.13c-.42-.18-.9-.4-1.22-.29-.75.25-1.08 1.05-.65 1.74.04.07.1.1.19.1h3.32a.51.51 0 0 0 .5-.38c.24-.91.5-1.91.77-2.63.59-1.53.91-2.48.97-2.83.05-.31-.1-.59-.47-.84-.25-.17-.56-.27-.86-.38-.67-.23-1.34-.46-1.33-1.4a.71.71 0 0 1 .44-.65 2.6 2.6 0 0 0 1.6-2.09 3.94 3.94 0 0 0-.77-3.14 38.44 38.44 0 0 0-1.52-1.84c-.7-.78-1.26-2.2-.03-2.74a.27.27 0 0 1 .24 0c.15.08.28.2.42.3.16.14.33.28.5.34.98.35 1.84-.37 1.71-1.4a.1.1 0 0 0-.09-.09h-.01a2.05 2.05 0 0 1-1.71.26 3.1 3.1 0 0 0-.53-.08c-2.02-.04-2.21 2.25-1.22 3.48l.64.76c1.03 1.2 1.85 2.13 1.63 3.9-.1.83-.74 1.85-1.68 1.04a9.1 9.1 0 0 0-.9-.7 7.23 7.23 0 0 0-4.75-.94c-.08.01-.12-.02-.13-.1a4.97 4.97 0 0 0-.8-2.41c-.03-.09 0-.11.08-.07l.77.43a.07.07 0 0 0 .1-.06 4.86 4.86 0 0 0-1.55-3.33l.01-.07c0-.02.02-.02.04 0l.44.27c.15.1.2.06.13-.1a4.36 4.36 0 0 0-3.2-2.67c-.15-.04-.16-.1-.02-.16a.82.82 0 0 1 .28-.05.12.12 0 0 0 .1-.07c.03-.07.02-.11-.05-.15-2.13-1.1-4.75-1.3-6.7.19a.39.39 0 0 1-.23.08c-.46.01-.87.1-1.23.27a.32.32 0 0 0-.16.15l-.07.13a.25.25 0 0 1-.17.12l-1.6.32a.63.63 0 0 1-.22 0c-.4-.07-.61.1-.65.51-.04.48.17 1.06.61 1.75.05.06.1.06.14 0 .3-.39.61-.4.92-.04.29.34.72.91.43 1.32a.83.83 0 0 1-.58.37c-.1.02-.18 0-.24-.04-.15-.1-.23-.16-.24-.18-.2-.33-.34-.32-.45.03-.3 1 .5 1.1 1.2 1.18l.2.03c.69.1.74.33.15.7-.42.27-.75.77-.99 1.51-.03.1-.01.2.05.3.04.07.07.07.11 0Z" fill="url(#b)"/><defs><linearGradient id="a" x1="18.85" y1="14.53" x2="36.69" y2="40.7" gradientUnits="userSpaceOnUse"><stop stop-color="#FD0"/><stop offset="1" stop-color="#E7C200"/></linearGradient><linearGradient id="b" x1="21.49" y1="19.05" x2="33.29" y2="34.65" gradientUnits="userSpaceOnUse"><stop stop-color="#D9121B"/><stop offset="1" stop-color="#A40F1E"/></linearGradient></defs></svg>