<!-- by TradingView --><svg width="56" height="56" viewBox="0 0 56 56" xmlns="http://www.w3.org/2000/svg"><path fill="#F0F3FA" d="M0 0h56v56H0z"/><path d="M29.5 45.94a18 18 0 1 1-3-35.89 18 18 0 0 1 3 35.89Z" fill="#FDEF00"/><ellipse cx="27.94" cy="28.17" rx="17.06" ry="17.03" fill="#008AE8"/><path d="M28.67 13.58h1.23l.03.01a.05.05 0 0 1 .02.06l-.02.03-1 .71a.05.05 0 0 0-.02.06l.37 1.17a.05.05 0 0 1-.08.06l-.99-.73a.05.05 0 0 0-.06 0l-1 .71a.05.05 0 0 1-.08-.06l.4-1.16a.05.05 0 0 0-.03-.06l-.99-.72a.05.05 0 0 1-.02-.06.05.05 0 0 1 .06-.04l1.22.01a.05.05 0 0 0 .06-.04l.38-1.16a.05.05 0 0 1 .08-.02l.02.02.37 1.17a.05.05 0 0 0 .05.04Z" fill="#FDEF00"/><path d="M29.22 40.07a11.81 11.81 0 0 1-8.76-2.53 12.01 12.01 0 0 1-4.44-8.02c-.36-3.16.53-6.34 2.49-8.83a11.84 11.84 0 0 1 19.72 1.64 12.09 12.09 0 0 1-1.06 13.28 11.84 11.84 0 0 1-7.95 4.46Z" fill="#FDEF00"/><path d="M34.39 18.43h.03l.05.02c.49.3.93.62 1.33 1a11.25 11.25 0 0 1 3.5 6.37c.07.48.15 1.01.22 1.6.02.17-.05.25-.21.25H28.33c-.1 0-.12-.04-.07-.13l6.1-8.93a.07.07 0 0 0 0-.09l-.03-.03a.03.03 0 0 0-.04 0c-.1.13-.18.22-.22.29a489.74 489.74 0 0 0-5.85 8.48c-.07.1-.13.22-.17.34a.07.07 0 0 1-.13.02l-6.34-9.31c-.06-.1-.05-.17.05-.23a12.5 12.5 0 0 1 4.34-1.59c.54-.1 1.07-.13 1.57-.11.72.02 1.34-.03 2.12.1 1.62.3 3.12.86 4.49 1.7.04.02.1.1.16.21.02.04.05.05.08.04ZM20.4 18.96c.41-.31.72-.52.9-.63.05-.03.09-.02.12.03l6.28 9.23v.05a.05.05 0 0 1-.04.02H16.3a.15.15 0 0 1-.15-.15c.02-.49.08-1.18.23-1.72.07-.26.07-.52.13-.78.4-1.53 1.11-3.06 2.12-4.25l.82-.94c.38-.4.69-.68.93-.86Z" fill="#F90000"/><path d="m15.25 24.01.05.06c.05.07.04.1-.05.1-.33 0-.64-.06-.95-.2-.03-.02-.03-.04-.02-.07 0 0 0-.02.02-.03a.06.06 0 0 1 .05-.02c.51.05.88-.12 1.1-.52.45-.82-.9-1-1.5-1.09-.25-.03-.44 0-.57.13-.45.43-.2 1.13.33 1.34l.03.02a.07.07 0 0 1-.01.1l-.04.04h-.03a.93.93 0 0 1-.56-.76c-.12-.79.14-1.36.76-1.7.7-.4 1.58 0 1.79.77.16.6.02 1.15-.4 1.67-.05.06-.05.1 0 .16ZM41.53 24.2c.56-.04 1.17 0 1.54-.34.04-.04.08-.03.1.02.1.18.14.34.13.47 0 .11-.04.12-.11.05-.14-.16-.27-.22-.48-.17a32.42 32.42 0 0 1-1.72.3c-.06.04-.1.07-.1.09-.05.28-.1.28-.13 0l-.12-.85c0-.06.01-.1.05-.14l1.4-1.4a.1.1 0 0 0-.08-.17l-1.27.22a.15.15 0 0 0-.1.07l-.05.08c-.09.14-.13.13-.13-.04v-.44c0-.09.02-.1.07-.03.28.41.94.01 1.32.03.27.02.57-.04.9-.16a.15.15 0 0 1 .12.01.15.15 0 0 1 .07.1c.07.46.08.64-.27.97-.64.6-1.04 1-1.21 1.17-.12.12-.1.17.07.16ZM13.55 27.27c-.17 0-.34-.04-.5-.11a1.3 1.3 0 0 1-.42-.33 1.66 1.66 0 0 1 .01-2.1c.13-.13.27-.24.43-.3a1.17 1.17 0 0 1 1 0c.16.07.3.18.42.32s.22.3.28.48a1.66 1.66 0 0 1-.3 1.62 1.3 1.3 0 0 1-.42.31c-.16.08-.33.11-.5.11ZM15.35 25.73a.3.3 0 0 0-.06-.16c-.15-.2-.12-.24.09-.13.15.08.2.24.16.5 0 .05-.03.09-.08.12l-.24.16c-.05.03-.07 0-.06-.07 0-.03.06-.13.16-.28.03-.04.04-.09.03-.14ZM41.08 26.03a.9.9 0 0 0-.2-.28c-.2-.18-.16-.28.1-.3.1-.01.23.01.4.06.04.01.1.01.14 0 .7-.2 1.37-.27 1.82.4.97 1.44-.83 3.33-2.09 1.8-.08-.1-.14-.26-.18-.46-.08-.42-.21-.59 0-1.1a.15.15 0 0 0 0-.12Z" fill="#FDEF00"/><path d="m14.38 25.45-1.58-.06c-.2 0-.36.15-.37.35v.08c0 .2.15.36.34.36l1.59.06c.2 0 .36-.15.36-.35v-.08c.01-.2-.14-.36-.34-.36ZM43.08 26.38l-1.61.02a.38.38 0 0 0-.38.38v.03c0 .22.18.38.39.38l1.61-.02c.21 0 .38-.17.38-.39v-.03a.38.38 0 0 0-.39-.37Z" fill="#008AE8"/><path d="M14.13 27.98a3.29 3.29 0 0 0-1.57.2c-.06.03-.09 0-.09-.06v-.26c0-.08.03-.1.1-.07l.08.03c.04.02.08.03.13.03l1.78-.09c.07 0 .11-.03.14-.09l.08-.2h.03l.02.01.16.97a.21.21 0 0 1-.08.22l-1.45 1.22c-.1.08-.08.13.05.13.34.02.7.02 1.08 0 .06 0 .17-.09.34-.24.06-.05.09-.04.1.03.03.19.03.36.02.51-.01.13-.06.14-.13.03-.07-.11-.15-.17-.29-.16l-1.84.16a.21.21 0 0 1-.21-.13c-.2-.43-.06-.66.3-.96.5-.4.93-.76 1.3-1.11.11-.1.1-.16-.05-.17Z" fill="#FDEF00"/><path d="M17.03 30.64a.85.85 0 0 0-.45 0c-.17-.02-.25-.1-.26-.27-.05-.85-.26-1.68-.14-2.44 0-.05.03-.08.09-.08.5.03 1.37.03 2.62.02 4.21-.05 8.85-.02 15.28 0 1.72 0 3.51.09 5.28.1a.06.06 0 0 1 .06.05 8.9 8.9 0 0 1-.21 2.56c-.01.05-.04.07-.09.07H30.82a2.85 2.85 0 0 0-.27-.88c-.22-.5-.66-.32-1.09-.43-.2-.06-.37-.07-.5-.03-.57.15-.94.51-1.13 1.08a.08.08 0 0 1-.1.05.08.08 0 0 1-.03-.02.55.55 0 0 1-.12-.3.56.56 0 0 0-.43-.53c-.29-.07-.56-.16-.8-.26-.63-.26-1.44.39-1.7.87a2 2 0 0 1-.25.41.18.18 0 0 1-.14.06l-7.23-.03Z" fill="#008AE8"/><path d="M41.12 30.66c.12.03.23.03.33-.02a.24.24 0 0 0 .11-.11l.56-1.1c.18-.32.47-.43.86-.32.49.13.57.85.46 1.24l-.23.88a.26.26 0 0 0 0 .15l.05.15c.03.06 0 .08-.06.08l-.67-.06c-.19-.02-.2-.08-.04-.17.58-.32 1-.63.8-1.42a.13.13 0 0 0-.1-.1.5.5 0 0 0-.22 0 .16.16 0 0 0-.12.09c-.39.73-.84 2.03-1.72 1.33-.37-.3-.18-1.22-.07-1.58.08-.24.04-.29-.02-.5-.02-.06 0-.09.06-.09.27 0 .47 0 .63.05.22.05.22.12 0 .2-.47.2-.7.6-.7 1.19a.12.12 0 0 0 .09.1Z" fill="#FDEF00"/><path d="M27.09 29.83c.12-.02.21.04.29.18.23.44.37 1.4-.05 1.71a.3.3 0 0 1-.46-.13c-.12-.34-.21-.73-.57-1-.3-.22-.65-.03-.72.3-.16.76-.16 2.89 1.17 2.6.22-.04.37-.29.57-.4.06-.04.1-.02.1.04.15.72-.1 1.25-.74 1.58-.96.49-1.7-.14-2.07-1.03-.4-.94-.41-1.9-.06-2.88.23-.62.61-1.05 1.15-1.29.15-.06.3-.09.45-.07.34.04.54.28.79.37.05.02.1.03.15.02ZM28.03 32.59c.01-.03.03-.04.04-.04 0 .39.13.76.4 1.12.19.25.7.47.92.12.12-.2.1-.36-.06-.5-.42-.39-1.08-.61-1.28-1.22-.23-.7-.2-1.33.07-1.9.33-.66.86-.86 1.61-.6.17.06.27.04.4.05a.2.2 0 0 1 .08.03c.02 0 .04.03.05.05.23.33.53 1 .26 1.38a.22.22 0 0 1-.27.08.22.22 0 0 1-.08-.06l-.5-.6a.33.33 0 0 0-.54.05c-.2.35.07.57.38.75.48.29.84.47 1.02.98.39 1.13-.1 2.85-1.64 2.58-.5-.1-.92-.22-.98-.78-.05-.43-.09-.7-.12-.8-.06-.24.08-.43.22-.56a.1.1 0 0 0 .03-.09l-.01-.04Z" fill="#F90000"/><path d="M29.4 30.64a.07.07 0 1 0 0-.14.07.07 0 0 0 0 .14ZM17.03 30.64l.85.02c.22 0 .32.11.32.33v1.5c0 .44.12.52.52.55a13.35 13.35 0 0 0 2.07 0 .2.2 0 0 1 .13.2V35c0 .05.03.08.08.09.03 0 .05 0 .07-.02l4.6.08c-.01.03.04.06.16.08l-3.08.05c-.05 0-.08.03-.08.08v1.8l.01.13c.01.05.05.08.1.08h1.4c.18 0 .27.09.27.27v1.6a.18.18 0 0 1-.23.16 11.9 11.9 0 0 1-7.74-8.49c-.02-.1.01-.19.1-.27.15-.04.3-.04.45 0Z" fill="#CBF1FE"/><path d="m24.24 30.87-.18 1.96a.06.06 0 0 1-.05.05h-5.57a.06.06 0 0 1-.06-.05v-1.96a.06.06 0 0 1 .06-.06h5.75a.06.06 0 0 1 .05.06ZM28.07 32.55c-.01 0-.03.01-.04.04-.1-.04-.17-.02-.23.03-.16.16-.22.26-.41.25-.3-.02-.76-.01-1.38.02a.11.11 0 0 1-.12-.08 3.2 3.2 0 0 1-.2-1.66c.05-.3.22-.42.52-.34.1.02.18.1.23.2l.38.83c.02.04.05.08.1.1.2.06.38.05.56-.03a.12.12 0 0 0 .08-.11c0-.07.01-.11.04-.15a.07.07 0 0 1 .06-.03.07.07 0 0 1 .06.05l.35.88ZM31 32.98h3.28c.01 0 .02 0 .02-.02v-.06c0-.02-.01-.03-.03-.03h-3.29a.11.11 0 0 1-.1-.06c-.16-.38-.14-.97-.63-1.24-.16-.1-.3-.2-.42-.33a.27.27 0 0 0-.14-.07.6.6 0 0 1-.38-.24c-.04-.05-.03-.09.03-.1.26-.1.44-.01.56.28.05.13.2.23.43.32.05.02.1.02.14 0 .1-.05.21-.21.32-.5.02-.06.06-.09.13-.09h6.28a.07.07 0 0 1 .07.07v1.85c0 .06-.03.08-.1.08-.93-.11-1.82-.13-2.67-.07-.06 0-.1.04-.1.1v1.98c0 .12-.06.19-.19.19l-4.4.1c-.25 0-.26-.05-.05-.17.41-.21.72-.55.93-1.02.1-.21.12-.56.16-.83 0-.1.06-.14.16-.14Z" fill="#008AE8"/><path d="M36.45 36.2c-.32.3-.8.74-1.44 1.3-.3.27-.63.5-.98.7l-.7.4a5.2 5.2 0 0 1-.71.35 47.4 47.4 0 0 0-1.51.6.16.16 0 0 1-.15-.17v-1.82c0-.03.01-.07.03-.09a.12.12 0 0 1 .09-.03h1.55c.06 0 .12-.03.16-.07.04-.04.07-.1.07-.15V35.3a.14.14 0 0 1 .14-.14h1.4a.22.22 0 0 0 .21-.22v-1.77a.18.18 0 0 1 .18-.19h2.45a.23.23 0 0 0 .23-.23V31a.15.15 0 0 1 .15-.14h1.45a.15.15 0 0 1 .14.19c-.23.8-.5 1.6-.84 2.35-.04.1-.14.28-.3.52-.07.1-.13.23-.19.36-.06.15-.13.26-.2.35-.2.23-.4.5-.6.8-.18.28-.4.53-.63.77Z" fill="#CBF1FE"/><path d="M14.31 33.76c-.26.04-.5.11-.7.22-.27.13-.33.07-.2-.18l.01-.13c0-.05-.02-.1-.05-.15-.28-.4-.66-.95-.53-1.42.1-.43.39-.89.86-1.04.63-.2 1.12-.04 1.48.47.15.2.33.62.33.9 0 .3.05.54.13.75.03.05.01.09-.05.11l-.57.2c-.14.05-.16.01-.08-.1.3-.4.54-.78.36-1.25a.47.47 0 0 0-.53-.3c-.58.1-1.22.25-1.69.64a.15.15 0 0 0-.06.13c.03.64.65.47 1 .23a.15.15 0 0 0 .08-.11.2.2 0 0 1 .03-.1c.04-.06.07-.05.08.02a5.3 5.3 0 0 0 .35 1.16c0 .05-.03.06-.07.04l-.1-.07a.1.1 0 0 0-.08-.02Z" fill="#FDEF00"/><path d="M26.97 32.97h.01a.02.02 0 0 1 .01 0V33c.01.09-.03.18-.11.24a.56.56 0 0 1-.32.12h-.03a.57.57 0 0 1-.33-.07c-.1-.05-.15-.13-.15-.22v-.02h.02l.9-.07ZM25.67 35.14l-4.6-.08v-1.93a.11.11 0 0 1 .11-.1h2.75c.04 0 .08-.02.12-.04.07-.03.11 0 .14.09.23.83.64 1.6 1.46 1.96.03.02.04.03.05.06 0 .02 0 .03-.03.04ZM29.34 33.55a.02.02 0 0 1 .01.01v.03a.34.34 0 0 1-.13.1.41.41 0 0 1-.16.05c-.06 0-.13 0-.19-.02a.62.62 0 0 1-.17-.09l-.05-.03a.57.57 0 0 1-.22-.3.37.37 0 0 1 .04-.33h.01l.02-.02h.01l.83.6Z" fill="#008AE8"/><path d="M39.67 34.66c0 .06.02.11.06.16.03.04.08.08.13.1l1.57.68c.15.06.3-.02.45-.26v-.02c.04-.26-.05-.43-.26-.52-.7-.3-1.19-.5-1.44-.63-.18-.1-.34-.03-.47.18h-.02l-.05-.05a.09.09 0 0 1-.01-.1c.3-.55.86-.9 1.52-.74.56.14.87.52.93 1.14.06.68-.18 1.2-.72 1.56-1.1.71-2.17-.52-1.83-1.6.05-.16.1-.16.13 0l.01.1Z" fill="#FDEF00"/><path d="M27.75 34.2c.03.32.49.67.72.75.37.13.35.19-.04.18H26.7c-.1 0-.19 0-.23-.04-.06-.04-.05-.07 0-.1.54-.19.92-.53 1.13-1.01.03-.07.07-.07.1 0 .03.06.05.14.06.22Z" fill="#008AE8"/><path d="M17.11 36a.14.14 0 0 0 .04-.2.14.14 0 0 0-.06-.05c-.3-.13-.62-.14-.95-.02-.03 0-.05 0-.07-.02a.08.08 0 0 1-.03-.04c0-.03 0-.05.02-.06l.68-.46c.04-.03.08-.02.1.02l.91 1.34a.15.15 0 0 1 0 .16 78.88 78.88 0 0 1-1.56 1.02.64.64 0 0 0-.3.5c0 .04-.03.05-.05 0l-.57-.82c-.04-.06-.03-.1.03-.14L17.11 36Z" fill="#FDEF00"/><path d="M22.67 37.16v-1.8c0-.06.03-.09.08-.09l3.08-.05 6.72-.03a.1.1 0 0 1 .1.11v1.8a.08.08 0 0 1-.07.07l-9.91-.01Z" fill="#008AE8"/><path d="M40.06 37.94a.26.26 0 0 0-.3-.25c-.04 0-.09.02-.13.05-.18.16-.33.4-.45.72a.2.2 0 0 0 .11.26.2.2 0 0 0 .1.02l.1-.03c.16-.1.2-.07.1.1-.06.15-.16.29-.28.43-.06.06-.09.06-.1-.02a1.13 1.13 0 0 0-.1-.4L38 36.97a.3.3 0 0 1 .3-.47c.71.08 1.4.22 2.05.41.18.06.34.05.47 0 .14-.08.17-.05.08.08l-.78 1.07c-.04.06-.06.05-.06-.02v-.1ZM17.89 36.77l.31.47a.18.18 0 0 1 .03.13.19.19 0 0 1-.08.12l-.57.4c-.16.1-.19.07-.08-.09.18-.27.3-.61.35-1.02 0-.03.02-.04.04-.01Z" fill="#FDEF00"/><path d="m30.6 37.38-5.89.02a.15.15 0 0 0-.15.15l.01 1.87c0 .08.07.14.15.14l5.9-.02c.07 0 .14-.06.14-.15v-1.86a.15.15 0 0 0-.16-.15ZM39.22 37.64h.04c.06.01.07.04.05.09l-.2.36a.12.12 0 0 1-.1.06.12.12 0 0 1-.1-.04c-.1-.09-.2-.27-.33-.55-.02-.06 0-.09.05-.09.16-.01.3.03.44.12.04.03.1.05.15.05Z" fill="#008AE8"/><path d="M19.42 39.8c.2-.15.43-.26.67-.32.14-.03.23-.12.27-.28.01-.06.03-.06.06-.01.1.16.3.17.4.35.03.05.02.07-.04.05-.54-.16-.8.17-1.2.26-.16.04-.3.1-.4.19-.22.21-.49.47-.52.86-.01.08-.04.09-.1.04l-.75-.76c-.04-.04-.04-.08.01-.11.3-.17.51-.38.62-.61.25-.55.35-1.12.31-1.73 0-.08.02-.1.08-.04l.86.86c.04.04.04.09 0 .13a1.6 1.6 0 0 0-.34 1.1.05.05 0 0 0 .07.01ZM36.74 38.44c-.44.08-.53.65-.33.96.18.28.69.73 1.08.92.21.1.43.08.66-.09.37-.26.3-.86.14-1.23 0-.02 0-.04.03-.05l.04-.02c.03 0 .04 0 .05.02.25.61.15 1.13-.28 1.57-.46.46-1.27.71-1.8.24-.66-.6-.71-1.37-.14-2.07.23-.29.84-.33.8-.79 0-.07.03-.08.09-.04.29.22.5.41.64.59.1.13.08.15-.07.08a1.46 1.46 0 0 0-.91-.09ZM22.99 40.5c-.31.06-.56.2-.73.42-.16.22-.23.19-.2-.08 0-.1.07-.26.19-.47.12-.2.29-.26.5-.15a74.81 74.81 0 0 0 2.07 1.02.09.09 0 0 1 .02.06l-.01.04c-.12.2-.23.44-.33.71a.15.15 0 0 1-.1.1c-.07.01-.1-.01-.1-.07.01-.34 0-.59-.05-.74-.1-.37-.23-.38-.4-.03l-.67 1.49c-.06.12-.05.27.04.45.02.06.01.08-.04.05l-1.15-.5c-.18-.08-.18-.14.01-.2a.49.49 0 0 0 .2-.12.6.6 0 0 0 .13-.17 44.78 44.78 0 0 0 .75-1.71.11.11 0 0 0-.13-.1ZM33.7 41.75l-.4-.97c-.05-.13-.16-.2-.23-.3-.04-.05-.04-.09 0-.12.11-.08.25-.14.42-.18a.07.07 0 0 1 .07.1c-.1.17-.12.34-.06.5.23.56.46 1.17.68 1.8.02.06 0 .1-.04.14-.29.19-.55.23-.87.02a191.34 191.34 0 0 1-1.57-1c-.14-.02-.19.03-.15.14.15.4.31.8.5 1.18.06.15.16.17.28.22.14.05.14.1 0 .17l-.45.18c-.05.02-.07 0-.05-.05.06-.24.08-.4.04-.5-.16-.36-.32-.77-.49-1.24a.92.92 0 0 0-.4-.51.08.08 0 0 1-.02-.12l.04-.03.85-.3a.2.2 0 0 1 .18.03l1.5.98c.2.13.25.08.17-.14ZM26.16 42.79v.95a.13.13 0 0 0 .08.12c.06.02.09.05.07.1 0 .01 0 .02-.02.03a.05.05 0 0 1-.04.01L25 43.84c-.12-.02-.13-.05-.02-.1l.16-.07c.05-.02.07-.05.07-.12-.01-.62.04-1.23.14-1.82.04-.18-.04-.28-.21-.31-.04 0-.06-.03-.06-.07 0-.02.02-.04.04-.06a.06.06 0 0 1 .05-.02l1.17.1c.04.01.06.03.04.07-.13.25-.2.54-.2.87 0 .07.03.1.1.1h.54c.05 0 .09-.02.1-.07.06-.34.04-.6-.06-.81-.02-.05 0-.08.05-.08h1.15c.1 0 .12.03.02.1l-.1.06a.2.2 0 0 0-.08.13c-.11.58-.16 1.26-.15 2.05 0 .16.08.25.22.27.02 0 .03 0 .03.03h-.03l-1.45-.13c-.07 0-.08-.03-.03-.07.04-.03.1-.05.17-.05.06 0 .1-.03.1-.1l.09-.89c0-.08-.03-.13-.12-.13l-.45-.05c-.08 0-.12.03-.12.12ZM29.82 43.34l-.73.02a.19.19 0 0 0-.15.07c-.1.13-.1.26-.01.39l.07.06.12.05c.06.03.06.05 0 .08-.26.09-.52.13-.78.11-.05 0-.06-.02-.01-.05l.24-.16a.18.18 0 0 0 .08-.1l.58-2.15a.35.35 0 0 1 .63-.08l1.07 1.85c.08.14.14.22.18.24.25.11.24.17-.03.16-.34-.01-.7.04-1.1.16a.18.18 0 0 1-.14 0c-.05-.03-.06-.06 0-.1.15-.1.19-.25.11-.46-.02-.06-.06-.09-.13-.09Z" fill="#FDEF00"/><path d="m29.28 42.34.38.68c.03.05.01.09-.05.1l-.45.07a.13.13 0 0 1-.12-.04.13.13 0 0 1-.03-.12l.19-.68c.02-.07.05-.07.08 0Z" fill="#008AE8"/></svg>