<!-- by TradingView --><svg width="56" height="56" viewBox="0 0 56 56" xmlns="http://www.w3.org/2000/svg"><path fill="#F0F3FA" d="M0 0h56v56H0z"/><path d="M19 23.8c0 .33.05.34.18.04 2.39-5.46 8.68-7.35 13.96-4.57 2.29 1.2 3.93 3.71 4.69 6.18a.2.2 0 0 1-.03.17.19.19 0 0 1-.15.07h-1.6a.34.34 0 0 1-.35-.23c-.2-.48-.5-1.33-.84-1.85a7.85 7.85 0 0 0-10.1-2.89c-4.52 2.13-5.84 7.95-3.01 11.97a7.81 7.81 0 0 0 9.86 2.55 8.1 8.1 0 0 0 4.2-5.11c.03-.09.08-.13.17-.13h1.8a.11.11 0 0 1 .1.14c-.57 2.36-2.23 5.04-4.31 6.31a10.46 10.46 0 0 1-6.12 1.51c-3.5-.33-6.12-2-7.86-4.97l-.25-.57c-.1-.25-.2-.4-.27-.48-.06-.05-.07-.04-.07.04v5.92l-.04.07a.1.1 0 0 1-.08.03H15.1a.1.1 0 0 1-.1-.1v-7.77a.13.13 0 0 0-.13-.13h-2.75a.12.12 0 0 0-.12.11v7.77c0 .03-.02.07-.04.1-.03.02-.06.02-.1.02H8.13c-.04 0-.07 0-.1-.02a.13.13 0 0 1-.03-.1V18.1c0-.02 0-.04.02-.06l.06-.03h3.79c.03 0 .06.02.08.04.02.02.05.05.05.08v7.75c0 .08.03.13.12.13h2.78a.1.1 0 0 0 .07-.03.1.1 0 0 0 .03-.07V18.1a.1.1 0 0 1 .03-.07c.02-.02.04-.04.07-.04h3.8c.03 0 .05.01.06.03.01.01.04.03.04.05v5.72Z" fill="#989898"/><path d="M47.2 27.99V28c0 .02.02.04.03.04.5.24.77.74.77 1.49v2.86c.03 2.42-.44 4.2-2.7 5.2-.57.26-1.44.41-2.62.4h-8.44c-.2 0-.21-.05-.04-.16a10.87 10.87 0 0 0 3.77-3.72.2.2 0 0 1 .2-.12h4.2c.89 0 1.6-.45 1.93-1.3.47-1.28-.19-2.68-1.56-2.7h-3.63c-.08 0-.11 0-.11-.1v-3.79c0-.08.02-.11.1-.11h3.64c1.37-.02 2.02-1.44 1.55-2.71-.32-.86-1.1-1.28-1.99-1.29h-4.2c-.1 0-.16-.06-.2-.14a10.66 10.66 0 0 0-3.72-3.7c-.17-.1-.15-.16.04-.16 3.7.03 6.52.03 8.45.01a6.6 6.6 0 0 1 2.62.36c2.25 1 2.73 2.78 2.71 5.2v2.87c0 .75-.27 1.24-.77 1.48a.06.06 0 0 0-.03.04V28Z" fill="#989898"/><path d="M23.36 28.09a4.9 4.9 0 0 0 2.7 4.31c2.52 1.36 5.24.06 6.65-2.27a.25.25 0 0 1 .22-.13h2c.04 0 .07.01.1.03a.18.18 0 0 1 .07.23 9.61 9.61 0 0 1-1.56 2.54c-3.79 4.17-10.01 2.64-12.03-2.42a6.87 6.87 0 0 1-.31-2.26 6.9 6.9 0 0 1 .23-2.26c1.85-5.12 8.01-6.88 11.94-2.84a8.98 8.98 0 0 1 1.6 2.49.18.18 0 0 1-.17.17l-2 .07a.24.24 0 0 1-.22-.12c-1.5-2.28-4.2-3.4-6.67-1.95a4.9 4.9 0 0 0-2.55 4.4Z" fill="#F57D20"/></svg>