<!-- by TradingView --><svg width="56" height="56" viewBox="0 0 56 56" xmlns="http://www.w3.org/2000/svg"><path fill="#F0F3FA" d="M0 0h56v56H0z"/><path d="M23.26 21.68c-.3.38-.72.9-1.28 1.56-.16.2-.28.41-.43.62-.02.04-.03.04-.02 0l.54-2.7c0-.04 0-.07-.04-.09a.23.23 0 0 0-.12-.02h-.02l-.05-.02-1.94-.78c-.02 0-.02-.01 0-.03l2.64-1.28c.07-.03.1-.08.12-.16l.62-2.67c0-.06.03-.06.05 0L24 18c.02.04.04.05.07.03l3.58-2c.02-.02.02-.01 0 0l-2.9 3.73a.1.1 0 0 0-.02.1l1.12 2.84c0 .02 0 .03-.03.02l-2.5-1.05c-.02-.01-.05 0-.06.02Z" fill="#C33"/><path d="M41.3 37h3.16l-.67.91c-.02.03-.05.09-.1.09H14.24c-2.1 0-4.11-.16-6.05-1-1.85-.82-2.54-2.52-2-4.48.49-1.78 1.47-3.04 2.8-4.46A35.36 35.36 0 0 1 19 20.74a.33.33 0 0 1 .26-.02l.86.28c.08.03.08.06.01.1-1.58 1-3.25 2.2-5 3.57a25.34 25.34 0 0 0-3.94 3.8 7.87 7.87 0 0 0-1.88 4.1c-.36 3.56 4.89 4.42 7.47 4.43h18.37c-1.1-.53-2.03-1-3.2-1h-15.9a11.3 11.3 0 0 1-3.81-.8c-3.58-1.3-1.22-5.56.34-7.35a30.12 30.12 0 0 1 8.2-6.4h.05l.77.25a.03.03 0 0 1 .02.03.03.03 0 0 1-.01.03 26.1 26.1 0 0 0-7.47 6.66c-.3.4-.56.87-.78 1.4-.93 2.22.08 3.57 2.2 4.19 1.15.33 2.32.5 3.52.5H30.9c.1 0 .12-.04.04-.12a8.15 8.15 0 0 1-1.17-1.27c-.12-.15-.2-.12-.38-.12h-8.93c-.77 0-1.48-.2-2.12-.52-1.23-.61-1.39-2.08-1.08-3.28l.15-.6c0-.03-.01-.05-.05-.05H15.3a.04.04 0 0 1-.04-.03v-.02l.8-1.43a.12.12 0 0 1 .05-.04c.02-.01.05-.03.08-.03h1.72a.1.1 0 0 0 .04-.06l.65-2.19a.12.12 0 0 1 .1-.08l2.11-.22a.04.04 0 0 1 .04.01v.04l-1.44 4.91c-.13.43-.1 1.16.22 1.56.32.4.77.62 1.35.65.05 0 .06 0 .02-.04-.66-.43-.8-1.15-.72-1.93a9 9 0 0 1 .24-1.3 878.6 878.6 0 0 1 1.14-3.97.1.1 0 0 1 .06-.02l2.02-.32a.04.04 0 0 1 .04.06L22.7 27h4.87a10.51 10.51 0 0 1 3.2-7.93 10.5 10.5 0 0 1 6.42-3.01c2.73-.28 5.4.45 7.6 2.12a10.75 10.75 0 0 1 4.14 9.77c-.56 4.1-3.84 7.67-7.63 9.05Zm-11.5-5.57h2.85a.05.05 0 0 1 .04.02.05.05 0 0 1 0 .05l-.78 1.38a.1.1 0 0 1-.09.05l-1 .02c.43.6.93 1.1 1.47 1.47a.3.3 0 0 0 .21.05c.07.03.13.05.18.05a1530.06 1530.06 0 0 1 9.74.03.04.04 0 0 1 0 .04l-.52.9a.22.22 0 0 0-.03.1v.07a.36.36 0 0 1-.13.07l-6.53-.03c-.05 0-.07.02-.05.07l.04.08c-.2-.1-.22-.1-.33-.08A9.72 9.72 0 0 0 48.1 25.8a9.85 9.85 0 0 0-17.34-5.43 9.75 9.75 0 0 0-1.12 10.96c.02.04.07.08.16.1Zm-2.16-2.94h-5.2c-.03 0-.06.01-.08.03a.13.13 0 0 0-.05.07c-.3 1.12-.3 2.15.97 2.57.5.16.99.24 1.5.24l3.84.02c.08 0 .1-.04.06-.1a5.06 5.06 0 0 1-.39-.83c-.24-.66-.41-1.25-.5-1.77-.05-.2-.05-.43-.06-.65h-.02l-.01.37c0 .03-.02.05-.06.05Z" fill="#339"/><path d="m41.84 35.82.01-.07c0-.03-.16.03-.14 0l.6-1.14a.04.04 0 0 0 0-.04.04.04 0 0 0-.04-.02c-3.36-.01-6.48-.05-9.66-.04-.04 0-.4.03-.46 0l-1.42-1.57 1.02-.02a.1.1 0 0 0 .09-.05l.78-1.39a.05.05 0 0 0-.04-.07l-2.9.08a9.74 9.74 0 0 1 1.65-11.77 9.93 9.93 0 0 1 13.38-.5 9.7 9.7 0 0 1 3.42 7.96c-.04.48-.05.75-.12 1.12-.27 1.5-.86 2.99-1.77 4.22a9.8 9.8 0 0 1-4.4 3.3Zm-2.2-10c-.23.73-1.25 1.03-1.84.6-.4-.28-.6-.7-.62-1.23 0-.28.1-.6.32-1A15.8 15.8 0 0 1 40.77 20a.05.05 0 0 0-.02-.04l-1.94-1.34h-.03c-1.12 1.3-1.9 2.23-2.34 2.76-.82 1-1.43 1.93-1.81 2.8-1.06 2.4.51 4.73 2.97 5.09 1.69.24 3.03-.3 4.01-1.64 1.57-2.13.5-4.47-1.46-5.79-.03-.02-.06-.02-.1.02L38.5 23.7c-.04.04-.03.08.02.12.72.47 1.4 1.04 1.11 2Z" fill="#09F"/><path d="M36.94 31.76a.06.06 0 0 0-.01-.06l-.02-.02H36.45c-.07 0-.09-.04-.06-.1l.04-.11a.18.18 0 0 1 .17-.11h1.58c.09 0 .13.04.13.12v.1a.1.1 0 0 1-.03.06.1.1 0 0 1-.07.03c-.31 0-.6-.03-.7.29-.26.78-.35 1-1.22 1.03a1.4 1.4 0 0 1-.6-.13c-.1-.04-.16-.16-.17-.35 0-.04.02-.07.06-.07h.45a.1.1 0 0 1 .1.06l.05.12c.02.03.04.05.07.06.03.02.06.02.1.01.04 0 .07-.01.11-.04a.35.35 0 0 0 .1-.08c.19-.26.31-.53.38-.81ZM33.96 32.4c-.02.07 0 .11.08.11h1.03a.02.02 0 0 1 0 .02l-.16.37c0 .02-.02.03-.04.03h-1.15c-.32 0-.45-.15-.38-.47.04-.16.1-.4.21-.7.1-.3.38-.39.61-.38a22.54 22.54 0 0 0 1.28.03l.03.02a.08.08 0 0 1 0 .07l-.02.1c-.02.07-.07.11-.14.11h-1c-.1 0-.15.05-.18.13l-.17.56ZM39.23 32.4c-.02.08 0 .12.09.12h1.02a.02.02 0 0 1 .01 0v.01l-.16.38c-.01.02-.02.03-.04.03h-1.16c-.32 0-.45-.16-.38-.48.04-.16.1-.4.21-.71.1-.29.38-.38.62-.37a22.44 22.44 0 0 0 1.29.03l.02.03a.08.08 0 0 1 .01.07l-.03.1c-.02.07-.07.1-.14.1h-1.01c-.09 0-.14.05-.17.13l-.18.56Z" fill="#339"/><path d="M42.16 35.73c-2.46.91-4.92.96-7.38.14l-.03-.1c-.03-.04-.01-.07.05-.07l7.36.03Z" fill="#09F"/></svg>