<!-- by TradingView --><svg width="56" height="56" viewBox="0 0 56 56" xmlns="http://www.w3.org/2000/svg"><path fill="#F0F3FA" d="M0 0h56v56H0z"/><path d="m17.07 23.28-4.51-7.89a.26.26 0 0 1 .22-.39l9.05.01a.26.26 0 0 1 .27.26c0 .05-.02.1-.04.14l-4.54 7.87a.26.26 0 0 1-.23.13.26.26 0 0 1-.22-.13Zm10.38 2.52a.14.14 0 0 0 .05.19l.07.01h3.04c.11 0 .2-.04.25-.14l1.11-2.05c2.54-4.75 4.64-8.66 10.13-8.76a87.68 87.68 0 0 1 3.81.02.18.18 0 0 1 .09.16c0 .03 0 .06-.02.09-7.2 12.79-11.16 19.8-11.88 21.04-2.69 4.6-6.73 4.78-11.47 4.59a.17.17 0 0 1-.14-.1.18.18 0 0 1 0-.17l6.06-10.48a.13.13 0 0 0 0-.13.14.14 0 0 0-.13-.07h-3.04c-.05 0-.1 0-.14.03a.27.27 0 0 0-.1.1 365.72 365.72 0 0 1-3.34 5.85l-.22.38c-2.61 4.5-6.71 4.81-11.41 4.59a.17.17 0 0 1-.17-.19 8175.64 8175.64 0 0 1 11.81-21c2.5-4.39 6.5-5.1 11.38-4.64.27.02.34.16.2.4L27.45 25.8Zm11.11 6.94-4.5 7.87a.26.26 0 0 0 .22.39h9a.25.25 0 0 0 .23-.13.26.26 0 0 0 0-.26L39 32.74a.26.26 0 0 0-.23-.13.25.25 0 0 0-.22.13Z" fill="#046EB0"/></svg>