<!-- by TradingView --><svg width="56" height="56" fill="none" xmlns="http://www.w3.org/2000/svg"><path fill="#F0F3FA" d="M0 0h56v56H0z"/><path fill-rule="evenodd" clip-rule="evenodd" d="M35.808 16.535c1.98-.914 6.657-2.377 9.529-.914 3.59 1.829-8.332 13.498-13.252 15.98 4.225-3.222 12.037-10.46 9.484-13.629-1.17-1.846-4.328-1.727-5.76-1.437Zm.799 20.746A11.95 11.95 0 0 1 29 40c-6.446 0-11.705-5.082-11.988-11.458-1.928 1.686-4.517 5.622-4.068 8.066.401 2.18 4.584 2.044 6.625 1.703-5.577 2.24-8.451 1.421-9.191.732-1.87-2.723 3.65-9.246 6.677-12.203C17.64 20.757 22.764 16 29 16c2.883 0 5.529 1.017 7.598 2.711l-2.979 4.03a7 7 0 1 0-.225 10.708l3.213 3.832Z" fill="#16315E"/></svg>