<!-- by TradingView --><svg width="56" height="56" viewBox="0 0 56 56" xmlns="http://www.w3.org/2000/svg"><path fill="#F0F3FA" d="M0 0h56v56H0z"/><path d="M34.81 17.95a12.1 12.1 0 0 0-1.78-1.04 31.86 31.86 0 0 1 5.2-2.76c1.4-.57 2.85-1 4.31-1.13 1.41-.12 3.36.32 3.46 2.12.03.72-.2 1.45-.51 2.1-.25.52-.55 1.03-.9 1.53a28.32 28.32 0 0 1-3.82 4.28c.54-.83 1-1.72 1.3-2.65.38-1.16.5-2.66-.83-3.28-.3-.13-.6-.22-.92-.27-1.87-.26-3.82.3-5.51 1.1Z" fill="#0077BD"/><path d="M33.03 16.9a12.1 12.1 0 0 1 2.38 1.48 12.4 12.4 0 0 1 4.28 6.68h-2.21a.02.02 0 0 1-.02-.01 10.01 10.01 0 0 0-6.62-6.63 9.74 9.74 0 0 0-11.04 4.1c-.01.02-.02.02-.03.02H17.32v-.02a12 12 0 0 1 11.75-6.66 11.64 11.64 0 0 1 3.96 1.05Z" fill="#ED3237"/><path d="M32.53 19.12c-1.4.78-2.76 1.63-4.08 2.54a92.84 92.84 0 0 0-4.7 3.5 38.24 38.24 0 0 1 7.09-6.74c.58.18 1.15.41 1.7.7Z" fill="#0077BD"/><path d="M19.66 23.02c.1.04.18 0 .2-.1 0-.03.02-.04.02-.05h.04l.02.02v.76c0 .02 0 .02-.02.02h-.02c-.02 0-.03 0-.03-.02-.08-.31-.26-.54-.56-.61-.35-.09-.68.13-.8.47a1.8 1.8 0 0 0-.02 1.08c.1.37.33.54.7.53.29 0 .5-.18.69-.4.01-.01.02-.01.02.01v.13a.1.1 0 0 1-.03.07c-.27.3-.63.4-1.07.34a1.08 1.08 0 0 1-.91-.77 1.16 1.16 0 0 1-.02-.7 1.2 1.2 0 0 1 1.54-.87c.04.01.13.04.25.1ZM21.44 25.28c-.39 0-.73-.13-.96-.47-.2-.3-.26-.62-.2-.97a1.11 1.11 0 0 1 1.16-.95c.39 0 .74.13.97.46.2.3.26.62.2.98a1.12 1.12 0 0 1-1.17.95Zm-.58-1.2c0 .43.07 1.07.58 1.07s.6-.63.6-1.07c0-.44-.08-1.08-.6-1.08-.5 0-.58.64-.58 1.07ZM13.27 22.92h.55c.03 0 .04.01.04.04a.02.02 0 0 1-.02.02c-.15 0-.3.02-.3.21a81.66 81.66 0 0 0 0 1.77c0 .2.15.2.3.21h.01l.01.02c0 .03-.01.04-.04.04a133.41 133.41 0 0 0-1.09 0c-.03 0-.04-.01-.04-.04a.02.02 0 0 1 .02-.02c.15 0 .3-.01.3-.2a77.68 77.68 0 0 0 0-1.78c0-.2-.15-.2-.3-.2l-.01-.02-.01-.01c0-.03.01-.04.04-.04h.54ZM17.3 24.08v.88c0 .2.14.2.29.21h.02v.02c0 .03-.01.04-.04.04a133.23 133.23 0 0 0-1.09 0c-.02 0-.04-.01-.04-.04a.02.02 0 0 1 .02-.02c.15 0 .3-.01.3-.2a71.95 71.95 0 0 0 0-1.78c0-.2-.15-.2-.3-.2l-.01-.02v-.01c0-.03 0-.04.03-.04a143.4 143.4 0 0 0 1.09 0c.03 0 .04.01.04.04a.02.02 0 0 1-.02.02c-.15 0-.29.02-.3.21v.89ZM16.23 24.07c0 .7-.44 1.13-1.12 1.15a34.42 34.42 0 0 1-1.13-.01v-.02a.02.02 0 0 1 .01-.02H14c.32 0 .3-.13.3-.4a293.1 293.1 0 0 1 0-1.4c0-.26.01-.4-.3-.39h-.01v-.03a.02.02 0 0 1 .01-.02h1.1c.69.02 1.13.45 1.13 1.14Zm-1.4-1.01v1.87c0 .12.07.18.2.17.44-.02.56-.4.6-.78.03-.37 0-.82-.23-1.09-.15-.17-.34-.18-.56-.18v.01Z" fill="#ED3237"/><path d="M14.9 27.11c-.07-.41-.33-.82-.81-.69-.7.19-.63 1.55-.56 2.1.03.23.1.43.2.6.15.21.4.34.66.26.34-.1.48-.56.53-.89h.01l.58.24v.01l.01.02c-.02.1-.06.27-.13.48-.14.4-.42.77-.85.87-.74.17-1.26-.3-1.5-.95-.36-.95-.33-3.13.92-3.47.54-.15 1.05.08 1.33.56.11.21.19.43.22.66v.01l-.6.2ZM20.53 25.65c.59 0 1 .35 1.24.87.2.43.26.9.26 1.38 0 .48-.06.95-.25 1.38-.24.52-.66.88-1.25.88s-1-.35-1.24-.88c-.2-.43-.25-.9-.25-1.38 0-.47.05-.95.25-1.38.23-.52.65-.87 1.24-.87Zm-.85 2.25c0 .34.03.7.18 1.01.13.29.36.5.67.5.32 0 .55-.21.68-.5.14-.3.18-.67.18-1.01 0-.34-.04-.7-.18-1.02-.13-.28-.36-.49-.68-.49-.3 0-.54.21-.67.5-.15.3-.18.66-.18 1ZM27.77 28.5v-.01h-.71v-.72l.01-.02h1.3l.02.01v1.7a.1.1 0 0 1-.02.06 1.8 1.8 0 0 1-.86.57c-.91.28-1.61-.29-1.86-1.17-.23-.85-.21-1.97.32-2.72.28-.39.66-.57 1.14-.55.75.03 1.14.56 1.24 1.26l-.01.01-.58.17h-.02v-.02a.97.97 0 0 0-.23-.47c-.26-.29-.7-.26-.97 0-.41.37-.41 1.14-.37 1.65.04.4.16.83.5 1.05.36.25.82.03 1.08-.25l.02-.04v-.52ZM17.05 29.36c.14.07.39.06.52 0 .18-.1.28-.31.3-.52l.02-.64a501.25 501.25 0 0 1 .02-2.47h.57c.02 0 .03 0 .03.02V28c0 .28 0 .57-.02.86-.03.35-.1.71-.36.98-.27.3-.68.34-1.1.29-.6-.08-.89-.6-.93-1.18a9.08 9.08 0 0 1-.04-.62 437.33 437.33 0 0 1 .02-2.61h.58a1681.24 1681.24 0 0 0 .02 2.6c0 .36 0 .84.37 1.03ZM24.38 28.6v-2.85c0-.02.01-.02.02-.02h.55l.01.01v4.32a.02.02 0 0 1-.02.02h-.58c-.02 0-.03 0-.04-.02l-1.2-2.8c-.02-.03-.03-.03-.03.01v2.8h-.56l-.02-.01v-4.32l.02-.01h.57c.01 0 .02 0 .03.02l1.24 2.85c0 .03.01.02.01 0ZM29.97 25.73a427.61 427.61 0 0 1 1.22.01v.72h-.89a.01.01 0 0 0-.02 0v3.61h-.01a17.34 17.34 0 0 1-.6 0l-.01-3.6h-.9v-.01l-.01-.01v-.72h1.21ZM32.83 27.44a92.92 92.92 0 0 0 .6-.03v-1.67l.02-.01h.6v4.34h-.61V28.2l-.01-.01h-.01a391.03 391.03 0 0 1-1.2 0v1.88a.02.02 0 0 1-.02.02h-.6a.01.01 0 0 1 0-.02v-4.33h.61v1.68c0 .02.01.03.03.03h.59ZM35.69 29.36c.14.07.4.06.52 0 .18-.1.28-.31.3-.52l.02-.64a497.63 497.63 0 0 1 .02-2.47h.58a7041.63 7041.63 0 0 1 .02 2.28c0 .28 0 .57-.02.86-.02.35-.1.71-.36.98-.27.3-.68.34-1.1.29-.59-.08-.89-.6-.93-1.18a8.9 8.9 0 0 1-.03-.62 418.16 418.16 0 0 1 .01-2.61h.58c.02 0 .02 0 .02.02v2.58c0 .36 0 .84.37 1.03ZM39.02 25.73a6.1 6.1 0 0 1 .34.02l1.21 4.3v.01a.02.02 0 0 1 0 .01h-.64c-.01 0-.02 0-.02-.02l-.27-.94c0-.01 0-.02-.02-.02a40.63 40.63 0 0 0-1.2.02l-.26.95c0 .01-.01.02-.03.02h-.62a.02.02 0 0 1-.01 0 .02.02 0 0 1 0-.02l1.17-4.3c0-.02.02-.03.03-.03h.32Zm-.42 2.61a.01.01 0 0 0 0 .01H39.44v-.01l-.4-1.56H39l-.4 1.56ZM42.78 28.6v-2.85c0-.02.01-.02.03-.02h.54l.01.01v4.32a.02.02 0 0 1-.01.02h-.59c-.02 0-.03-.01-.03-.02l-1.21-2.8c-.02-.03-.03-.03-.03.01v2.8a.02.02 0 0 1-.01 0h-.54l-.02-.01v-4.32l.01-.01h.57c.01 0 .02 0 .03.02l1.24 2.85c0 .03.01.02.01 0Z" fill="#0077BD"/><path d="M24.93 37.76a44.2 44.2 0 0 1-2.77 1.85c-1.41.87-2.86 1.61-4.35 2.23-1.31.54-2.68.96-4.1 1.12-1.08.13-2.61-.01-3.32-1-1.34-1.84 1.12-5 2.27-6.33a34.78 34.78 0 0 1 2.57-2.67c-.54.83-1 1.71-1.3 2.63-.37 1.15-.5 2.64.8 3.27.3.14.6.24.92.29 1.15.17 2.37.01 3.49-.31.64-.2 1.26-.42 1.87-.7A28.84 28.84 0 0 0 23.26 37a50.1 50.1 0 0 0 4.89-3.08 91.26 91.26 0 0 0 4.11-3.11h.01a38.9 38.9 0 0 1-7.34 6.95ZM35.88 31c.1.04.17 0 .2-.1 0-.03.01-.04.02-.05h.04l.01.02v.76l-.01.02h-.03c-.01 0-.02 0-.03-.02-.07-.31-.26-.54-.56-.61-.35-.09-.67.13-.8.47a1.8 1.8 0 0 0 0 1.08c.09.37.32.54.69.53.28 0 .5-.18.68-.4.02-.01.03-.01.03.01v.13a.1.1 0 0 1-.03.07c-.28.3-.63.4-1.07.34a1.08 1.08 0 0 1-.91-.77 1.16 1.16 0 0 1-.02-.7 1.2 1.2 0 0 1 1.53-.87l.26.1ZM37.66 33.26c-.4 0-.74-.13-.97-.47-.2-.3-.26-.62-.2-.97a1.11 1.11 0 0 1 1.16-.95c.4 0 .74.13.97.47.2.29.26.6.2.97a1.11 1.11 0 0 1-1.16.95Zm-.59-1.2c0 .43.07 1.07.58 1.07.52 0 .6-.63.6-1.07 0-.44-.08-1.08-.59-1.08-.5 0-.59.64-.59 1.07ZM39.87 32.18v.76c0 .2.14.2.29.21h.01v.05h-1.12l-.02-.01v-.02c0-.01.01-.02.03-.02.28 0 .28-.1.28-.35l.01-1.47a1 1 0 0 0-.03-.25c-.02-.1-.17-.12-.26-.12-.02 0-.03 0-.03-.02v-.02l.01-.01h1.02c.25 0 .52 0 .7.1a.6.6 0 0 1 .32.58c-.02.27-.18.44-.46.52-.02 0-.02.02-.02.03l.58.85c.05.08.13.13.23.16l.02.01v.02c0 .02 0 .03-.03.03a47.4 47.4 0 0 1-.69-.03l-.69-1-.01-.02h-.14v.02Zm0-1.14v.99h.25a.42.42 0 0 0 .39-.26c.02-.05.03-.1.03-.17v-.14a.44.44 0 0 0-.26-.4.42.42 0 0 0-.16-.03h-.25a.01.01 0 0 0 0 .01ZM42.31 32.19v.77c0 .07.04.12.09.15.04.03.11.04.2.04h.02a.02.02 0 0 1 0 .02c0 .03 0 .04-.02.04h-1.1l-.01-.02v-.01c0-.02 0-.03.02-.03.15 0 .29-.03.29-.22v-1.57c0-.26.01-.4-.29-.4-.01 0-.02 0-.02-.02v-.02s0-.02.02-.02h1.06c.34.01.68.13.77.5.03.1.02.2-.01.31-.13.43-.62.45-1 .45 0 0-.02.01-.02.03Zm0-1.14v.98h.1c.1 0 .2-.04.28-.11a.41.41 0 0 0 .12-.29v-.19c0-.1-.04-.21-.12-.29a.39.39 0 0 0-.28-.12h-.09v.02Z" fill="#ED3237"/><path d="m23.24 37-.02.02c-.72.4-1.46.78-2.21 1.13A11.66 11.66 0 0 1 16.6 32h2.24l.02.01A9.42 9.42 0 0 0 23.24 37ZM22.78 39.23a44.2 44.2 0 0 0 2.15-1.47c4.26 1.42 8.83.04 11.29-3.73l.03-.03h2.44l.01.01a.01.01 0 0 1 0 .01v.01a11.7 11.7 0 0 1-9.5 6.37c-2.24.22-4.38-.18-6.42-1.17Z" fill="#0077BD"/></svg>