<!-- by TradingView --><svg width="56" height="56" viewBox="0 0 56 56" xmlns="http://www.w3.org/2000/svg"><path fill="#F0F3FA" d="M0 0h56v56H0z"/><path d="M45 28a17 17 0 1 1-34 0 17 17 0 0 1 34 0Zm-13.32-9v5.17a.02.02 0 0 0 .03 0L37.06 19h1.37c-3.3-4-8.28-5.51-13.35-4.44a12.9 12.9 0 0 0-7.5 4.44h2l3.7 9.34c0 .03.02.03.02 0L27.13 19h4.55Zm3.8 6.7-.01.01v.02l5.45 6.89a.02.02 0 0 0 .03 0 13.8 13.8 0 0 0-1-11.4l-4.48 4.48ZM14.24 28c0 1.63.18 3.09.75 4.63.08-3.13.02-6.23 0-9.36-.57 1.54-.75 3.1-.75 4.73Zm17.25 6H28v-7.4l-3.2 7.37V34l-.02.01h-3.12l-.02-.01v-.02l-3.22-7.35c-.02-.04-.02-.04-.02 0V34h-2.78c.29.6.82 1.45 1.18 2h22.5c.37-.53.78-1.38 1.07-2h-2.71l-4.92-6.03a.03.03 0 0 0-.01 0h-.02l-1.08.9s-.11.08-.11.1v5l-.02.03Z" fill="#2E5C3C"/><path d="M24.54 40.37h1.51c.02 0 .03.01.02.03-.24 1.18-1.3 1.58-2.44 1.6-.4 0-.78-.05-1.14-.15-1.08-.33-1.62-1.25-1.39-2.32.23-1.02 1.3-1.48 2.3-1.53.85-.03 1.9.13 2.44.84.15.2.21.43.2.7l-.02.02-.02.01h-1.45l-.01-.02c-.16-.43-.36-.54-.82-.57-.23-.02-.43.02-.62.11-.5.25-.55.92-.4 1.37.19.5.73.63 1.24.52a.68.68 0 0 0 .58-.6l.02-.01ZM28.24 38h2.22c.01 0 .02.01.02.03v.94c0 .02 0 .03-.02.03h-1.44a.03.03 0 0 0-.02.03v2.96h-.01a218.63 218.63 0 0 1-1.5 0v-2.96l-.01-.01a.03.03 0 0 0-.01-.01h-1.44C26 39 26 39 26 38.98v-.94c0-.02 0-.03.03-.03h2.21ZM32.55 40.71v1.27c0 .01 0 .02-.02.02h-1.5c-.02 0-.03-.01-.03-.03v-3.93c0-.02.01-.03.03-.03l2.51-.01c.62 0 1.41.18 1.7.8.3.65.03 1.29-.57 1.62-.27.16-.6.24-.97.26h-1.11c-.03 0-.04.01-.04.03Zm0-1.7v.67l.02.01h.84c.1 0 .2-.03.28-.08.08-.05.12-.12.12-.2v-.14c0-.07-.04-.14-.12-.2a.51.51 0 0 0-.28-.07h-.85v.01Z" fill="#FFF212"/></svg>