<!-- by TradingView --><svg width="56" height="56" viewBox="0 0 56 56" xmlns="http://www.w3.org/2000/svg"><path fill="#F0F3FA" d="M0 0h56v56H0z"/><path d="M44.46 28c.35 0 .54-.12.54-.48 0-1.06-1.86-1.01-2.56-1.01-.82 0-2.44-.08-2.44 1.16v.86c.07.06.72-.53 1.22-.53h3.24Zm-1.99 5c-2.8 0-4.47-.53-4.47-3.88v-.15c0-3 1.4-3.97 4.14-3.97h.49c2.42 0 4.37.14 4.37 3.13 0 .94-.4 1.37-1.35 1.37h-4.72c-.33 0-.93.23-.93.65 0 .56.7.81 1.14.85h5c.52 0 .86-.02.86.34v.6c0 1.02-1.19 1.03-1.94 1.06h-2.59ZM23.46 28c.35 0 .54-.12.54-.48 0-1.06-1.86-1.01-2.56-1.01-.82 0-2.44-.08-2.44 1.16v.86c.07.06.72-.53 1.22-.53h3.24Zm-1.99 5c-2.8 0-4.47-.53-4.47-3.88v-.15c0-3 1.4-3.97 4.14-3.97h.49c2.42 0 4.37.14 4.37 3.13 0 .94-.4 1.37-1.35 1.37h-4.72c-.33 0-.93.23-.93.65 0 .56.7.81 1.14.85h5c.52 0 .86-.02.86.34v.6c0 1.02-1.19 1.03-1.94 1.06h-2.59ZM14 25.43c0-.24.18-.43.4-.43h1.2c.22 0 .4.2.4.43v7.14c0 .24-.18.43-.4.43h-1.2c-.22 0-.4-.2-.4-.43v-7.14ZM11.55 25c-.44 0-.85.29-1.05.74l-2 4.76-2-4.76c-.2-.45-.6-.74-1.05-.74H4l3.12 7.03c.58 1.3 2.18 1.3 2.76 0L13 25h-1.45ZM48.35 23c-.2 0-.35.2-.35.45v7.4c.09 1.56 1.47 2.1 2.18 2.15h1.54c.15 0 .28-.16.28-.36v-1.28c0-.2-.13-.36-.28-.36h-.74c-.76 0-.97-1.04-.98-1.56v-6c0-.24-.16-.44-.35-.44h-1.3ZM14.48 23a.48.48 0 0 0-.48.48V25c.08-.13.3-.4.56-.4h.96c.27 0 .48-.21.48-.48v-.64a.48.48 0 0 0-.48-.48h-1.04Z" fill="#EA0A2A"/><path d="M28 23.42c0-.23.18-.42.4-.42h1.2c.23 0 .4.19.4.42V25h4v-1.58c0-.23.18-.42.4-.42h1.2c.23 0 .4.19.4.42V25h2v.42c0 .56-.42 1.08-.94 1.08H36v3.43c.01.5.25 1.57 1.1 1.57h.59c.17 0 .31.15.31.34v.66c0 .18-.14.33-.31.33h-1.22c-.78-.04-2.37-.56-2.47-2.01V26.5h-4v3.6c.01.5.19 1.4 1.03 1.4h.66c.17 0 .31.15.31.34v.82c0 .19-.14.34-.31.34H30.4c-.78-.04-2.31-.56-2.41-2.02V26.5h-1.06c-.52 0-.94-.52-.94-1.08V25h2v-1.58Z" fill="#EA0A2A"/></svg>