<!-- by TradingView --><svg width="56" height="56" viewBox="0 0 56 56" xmlns="http://www.w3.org/2000/svg"><path fill="#F0F3FA" d="M0 0h56v56H0z"/><ellipse cx="28" cy="28" rx="21" ry="14" fill="#FFF500"/><path d="m18.62 30-2.12 3.77L14.38 30H12l4.5 8 4.5-8h-2.38Z" fill="#DA251C"/><path d="M32 30h-2l-2.5 4.4L25 30h-2v8h2v-4.4l2.5 4.4 2.5-4.4V38h2v-8Z" fill="#241072"/><path d="M43 36.6a4.82 4.82 0 0 1-3.45 1.4C37.04 38 35 36.2 35 34s2.04-4 4.55-4c1.38 0 2.62.54 3.45 1.4l-1.39 1.13a2.64 2.64 0 0 0-2.06-.97c-1.43 0-2.59 1.1-2.59 2.44 0 1.35 1.16 2.44 2.59 2.44.84 0 1.59-.38 2.06-.97L43 36.6Z" fill="#00933F"/><path d="m24.84 15-.75 3.84a11.5 11.5 0 0 0-2.31 1.02l-3.06-2.53a49.5 49.5 0 0 0-4.1 3.64l2.73 3.69a10.69 10.69 0 0 0-.29.63c-.1.22-.2.42-.29.71h-4.4L12 29h31l-.37-3h-4.31c-.08-.3-.18-.49-.29-.7a8.27 8.27 0 0 1-.34-.76l2.65-3.57a49.52 49.52 0 0 0-4.11-3.64l-3 2.48a11.38 11.38 0 0 0-2.23-.97L30.25 15h-5.41Zm10.51 10.32c.43.85.65 1.76.65 2.68H19c0-.92.22-1.83.65-2.68a7.08 7.08 0 0 1 1.84-2.27 8.8 8.8 0 0 1 2.76-1.52 10.1 10.1 0 0 1 6.5 0 8.8 8.8 0 0 1 2.76 1.52 7.08 7.08 0 0 1 1.84 2.27Z" fill="#00923F"/><path fill-rule="evenodd" d="M35.65 24.62c.13.17.25.34.35.52-.7.43-1.5.81-2.35 1.13.13.53.2 1.1.23 1.73h-.71a8.32 8.32 0 0 0-.19-1.5 18 18 0 0 1-4.98.83V28h-1v-.67a18.03 18.03 0 0 1-5.06-.83c-.1.47-.16.96-.18 1.5h-.71c.02-.62.1-1.2.22-1.73-.82-.3-1.58-.67-2.27-1.09.1-.18.22-.35.34-.52.63.4 1.33.74 2.1 1.03.27-.86.67-1.6 1.15-2.22-.54-.15-1.05-.33-1.52-.52.2-.14.4-.28.61-.4.42.15.86.3 1.33.42a8.17 8.17 0 0 1 2.42-1.8 12.2 12.2 0 0 1 1.57-.16V21h1v.01c.49.02.97.07 1.45.14.84.41 1.71 1 2.46 1.82.5-.13.96-.28 1.4-.45.2.13.41.26.6.4-.48.2-1 .4-1.58.55.48.62.89 1.36 1.16 2.22.79-.3 1.51-.66 2.16-1.07ZM27 21.2c-.99.3-2.22.9-3.25 1.94 1 .2 2.09.33 3.25.35V21.2Zm1 2.3v-2.27c.98.3 2.18.9 3.17 1.9-.97.2-2.04.33-3.17.36Zm-1 .58a18.93 18.93 0 0 1-3.7-.44c-.5.63-.93 1.38-1.2 2.28 1.46.49 3.13.78 4.9.82v-2.66Zm1 2.66v-2.66a18.9 18.9 0 0 0 3.63-.44c.5.63.93 1.38 1.2 2.28a17.1 17.1 0 0 1-4.83.82Z" fill="#00923F"/></svg>