<!-- by TradingView --><svg width="56" height="56" viewBox="0 0 56 56" xmlns="http://www.w3.org/2000/svg"><path fill="#F0F3FA" d="M0 0h56v56H0z"/><path d="M44.28 33c2.61 0 3.57.7 3.72 1-.52 0-3.27.73-7.93 3.27C33.33 41.05 30.23 42 26.8 42c-3.44 0-6.81-.53-11.09-2.58A58.4 58.4 0 0 0 6 36.04c.2-.13.9-.4 1.98-.4 5.67 0 9.5 4.36 17.6 4.36 8.1 0 13.24-7 18.7-7Z" fill="#02A6E5"/><path d="M13 34c-1.4 0-2.58.36-3 .54 1.36-.16 4.37.77 7.55 2.23 3.18 1.46 6.02 2.23 7.73 2.23a19 19 0 0 0 3.72-.46c-1.4-.08-4.39-.42-7.29-1.62-2.9-1.19-6.96-2.92-8.7-2.92Z" fill="#02A6E5"/><path d="M18.38 34a6.7 6.7 0 0 0-2.38.43c1.08-.12 3.47.62 5.99 1.79C24.5 37.38 26.76 38 28.12 38c1.08 0 2.37-.25 2.88-.37-1.1-.06-3.41-.34-5.71-1.3-2.3-.95-5.52-2.33-6.9-2.33Z" fill="#02A6E5"/><path d="M22.59 34c-.74 0-1.37.22-1.59.32.72-.09 2.31.46 4 1.34 1.67.88 3.17 1.34 4.08 1.34.72 0 1.58-.18 1.92-.28a11.1 11.1 0 0 1-3.8-.97C25.65 35.04 23.5 34 22.58 34Z" fill="#02A6E5"/><path d="M26.94 18.5A60.15 60.15 0 0 0 31.5 11c0 1.47-2.3 4.85-3.98 7.5-1.67 2.67-3.52 5.9-3.52 9.56 0 6.1 4.92 7.83 7.5 7.94-7.33-.29-8.5-5.64-8.5-8.12 0-2.48 1.53-6.07 3.94-9.37ZM36.06 18.5A60.15 60.15 0 0 1 31.5 11c0 1.47 2.3 4.85 3.98 7.5 1.67 2.67 3.52 5.9 3.52 9.56 0 6.1-4.92 7.83-7.5 7.94 7.33-.29 8.5-5.64 8.5-8.12 0-2.48-1.53-6.07-3.94-9.37Z" fill="#364596"/><path d="M31.5 11a55.12 55.12 0 0 1-4.07 8.38c-1.77 3.12-2.84 5.55-2.84 8.72 0 1.35.26 2.47.68 3.4a15.2 15.2 0 0 0 1.07-.57l.52-1.9V26h.28v3.04l.36 1.4a19.72 19.72 0 0 1 2.3-.67c.33-.08.6-.12.75-.12l.49-.04-.04-.14 1.49-6.72V18h1.03v4.28l1.48 6.6-.02.3h.05c.33-.05 2.16-.41 3.37-.66v-.42c0-3.17-1.06-5.6-2.83-8.72-1.28-2.26-2.76-4.87-4.07-8.38Zm6.88 17.82a166.84 166.84 0 0 1-3.43.66l-.01.17a38.64 38.64 0 0 0 3.4-.45l.04-.38Zm-.07.67-.07.02a38.99 38.99 0 0 1-3.32.42l-.13 1.5h.71V32h-5v-.58h.98l-.3-1.24a13.77 13.77 0 0 0-3.54.82l.04.15-.24 1.5H28V33h-1.79a7.58 7.58 0 0 0 5.29 2.52c2.2-.1 6.14-1.46 6.8-6.03ZM26 32.73v-.08h.38l-.07-1.09-.03.02c-.24.1-.54.2-.83.29.16.3.35.6.55.86Zm8.67-3.83-.03.33-.26.03V29l-1.03-5.78h-.33l-1.4 6.27.02.08c-.1 0-.19.02-.27.03l-.03-.12 1.48-6.7V18.3h.37v4.02l1.48 6.6Zm-.62.11v.29a167.6 167.6 0 0 1-2.08.23l-.01-.07 1.2-5.4.9 4.95Zm-1.22.72-.78.08.06.18h.23l-.01-.13c.4-.04 1.11-.12 1.72-.17v-.1l-1.22.14Zm-1.4.14.31-.03.55 1.58h-.47l-.31-1.27h.07l-.01-.29-.13.01Zm2.15 1.55h-.95l-.42-1.14h1.78l-.41 1.14Zm.88 0h-.55l.47-1.35v-.11l.2-.02-.12 1.48ZM33.9 30h.15-.15Zm.48-.44v.12l.23-.01v-.14l-.23.03Zm-7.38.08.23.91c-.2.07-.37.15-.54.23l.3-1.14Zm-.33 3.02-.08-1.2c.23-.11.5-.23.78-.34l.02.06-.24 1.48h-.48Zm.63-1.83Zm3.8-.92-.55.03a14.9 14.9 0 0 0-1.16.23c.61-.13 1.25-.22 1.7-.26Z" fill="url(#a)"/><defs><linearGradient id="a" x1="31.5" y1="11" x2="31.5" y2="35.52" gradientUnits="userSpaceOnUse"><stop stop-color="#458CCC"/><stop offset=".56" stop-color="#4CC2F0"/><stop offset="1" stop-color="#4783C1"/></linearGradient></defs></svg>