<!-- by TradingView --><svg width="56" height="56" viewBox="0 0 56 56" xmlns="http://www.w3.org/2000/svg"><path fill="#F0F3FA" d="M0 0h56v56H0z"/><path d="M43 20.25 47 18v20h-4V20.25ZM37 23.5l5-2.5v17h-5V23.5ZM26 15h.99L36 25h-.99L26 15Z" fill="#BE6100"/><path d="M47 18.98V18l-11.7 6.3.7.7 11-6.02ZM22 26h-1v9h7v-2h-4v-1.5h4v-2h-4V28h4v-2h-6ZM32.5 35c-2.03 0-3.37-.88-3.5-3h2.4c.06.72.42 1.06 1.15 1.06.66 0 .99-.21.99-.64 0-.55-.62-.7-1.05-.78l-1-.18c-1.6-.29-2.49-1.18-2.49-2.66 0-2.3 1.64-2.8 3.42-2.8 2.15 0 3.48 1.03 3.58 3h-2.5c-.02-.68-.36-1-1.08-1-.61 0-.92.15-.92.58 0 .4.25.57.87.68l1.18.2c1.68.29 2.45 1.15 2.45 2.71 0 2-1.7 2.83-3.5 2.83ZM14 26v9h1v-7.57h1.12c.55 0 .88.44.88 1.07 0 .63-.33 1.5-.88 1.5h-.8v1.3c.74 1.31 1.43 2.37 2.16 3.7H20a16.25 16.25 0 0 0-1.78-3.93c.92 0 1.78-1.19 1.78-2.25v-.28c0-1.4-1.1-2.54-2.3-2.54H14ZM12 37h24v1H12z" fill="#BE6100"/><path d="M27 15h-1.77L14.87 27.39h1.77L27 15ZM13.17 31.54h-.39V29.9L6 38h1.77l5.4-6.46Z" fill="#BE6100"/><path fill="#F5A654" d="M12 26h2v9h-2z"/></svg>