<!-- by TradingView --><svg width="56" height="56" viewBox="0 0 56 56" xmlns="http://www.w3.org/2000/svg"><path fill="#F0F3FA" d="M0 0h56v56H0z"/><path fill-rule="evenodd" d="M16.77 17H10v22h6.77A4.33 4.33 0 0 0 21 34.57V21.43c0-2.45-1.9-4.43-4.23-4.43Zm.23 4.95c0-.52-.9-.95-2-.95v14c1.1 0 2-.43 2-.95v-12.1ZM41.77 17H35v22h6.77A4.33 4.33 0 0 0 46 34.57V21.43c0-2.45-1.9-4.43-4.23-4.43Zm.23 4.95c0-.52-.9-.95-2-.95v14c1.1 0 2-.43 2-.95v-12.1Z" fill="#C00000"/><path d="M22 20.9c0-2.15 1.4-3.9 5.97-3.9 3.67 0 6.03 1.52 6.03 4.49v2.62c0 .77-.2 1.52-.56 2.2L27.97 36H34v3H22v-3.2l6.35-10.7c.43-.74.65-1.58.65-2.42v-.8c0-.49-.51-.88-1.03-.88s-.97.4-.97.88V25h-5v-4.1Z" fill="#C00000"/></svg>