<!-- by TradingView --><svg width="56" height="56" viewBox="0 0 56 56" xmlns="http://www.w3.org/2000/svg"><path fill="#F0F3FA" d="M0 0h56v56H0z"/><path d="M40 9H16v28.59c0 1.3.9 2.41 2.02 2.41h7.48c.4 1.08 1.44 1.5 2.5 1.5s2.1-.42 2.5-1.5h7.48C39.1 40 40 38.9 40 37.59V9Z" fill="#00AFEE"/><path fill-rule="evenodd" d="M39 20.5C39 14.7 34.7 10 29 10v21c5.91 0 10-4.7 10-10.5Zm-3 0c0-3.59-1.58-5.94-4-6.5v13c2.46-.73 4-2.91 4-6.5Z" fill="#fff"/><path d="M27 10c-5.7 0-10 4.7-10 10.5S21.09 31 27 31V20h-3v6.11a6.64 6.64 0 0 1-3-5.61c0-3.59 2.75-6.5 6-6.5v-4ZM20.42 39.24l5.75.34c.1.46.61 1.4 1.83 1.42h.04a1.86 1.86 0 0 0 1.83-1.42l5.75-.34c-.72-.13-1.32-.32-1.88-.5a7.59 7.59 0 0 0-2.4-.5 4.57 4.57 0 0 0-3.32 1.74 4.57 4.57 0 0 0-3.32-1.73c-.88 0-1.6.23-2.4.49-.56.18-1.16.37-1.88.5Z" fill="#fff"/><path d="M25.39 32c.63 0 2.05.28 2.61 1.38.56-1.1 1.98-1.38 2.61-1.38h5.54L39 38.96h-2.61a7.2 7.2 0 0 1-2.4-.56c-.81-.29-1.65-.59-2.56-.59-1.43 0-2.88.93-3.43 1.39-.55-.46-2-1.39-3.43-1.39-.91 0-1.75.3-2.56.59a7.2 7.2 0 0 1-2.4.56H17L19.85 32h5.54Z" fill="#fff"/><path d="M33 44.46c-.02.84.39 1.53 1.1 1.54.44 0 .8-.35.88-.76.02-.08.05-.13.09-.16.04-.04.1-.07.18-.08h.43c.13.01.29.03.32.18 0 1.32-1.02 1.83-1.95 1.82-1.33-.01-2.05-1.16-2.05-2.54 0-1.2.8-2.43 2.09-2.46a1.8 1.8 0 0 1 1.71 1.08c.12.24.17.51.16.65-.02.26-.25.25-.45.27h-.22c-.17-.01-.27-.07-.3-.2-.13-.32-.39-.8-.94-.8-.62.01-1.03.73-1.05 1.46ZM23.97 46.47l.03.2c0 .05 0 .1-.02.13-.08.14-.22.15-.36.16h-.22c-.15.01-.27-.01-.34-.06a.49.49 0 0 1-.16-.26l-.19-.5c-.05-.14-.21-.14-.45-.14h-.76c-.13 0-.15.01-.2.12-.08.13-.15.3-.2.54-.04.14-.09.24-.15.28-.06.04-.18.06-.37.06l-.42-.01a.19.19 0 0 1-.13-.1.32.32 0 0 1-.02-.2l.19-.65c.36-1.2.75-2.4 1.18-3.59.08-.23.17-.37.26-.4a2.02 2.02 0 0 1 .67-.04c.28 0 .4.45.46.65.4 1.27.9 2.51 1.2 3.81ZM22.17 45c.13 0 .17-.04.18-.1.02-.05-.01-.21-.05-.26l-.16-.45c-.01-.06-.06-.2-.14-.19-.02 0-.05.02-.06.06-.1.2-.2.46-.28.82-.01.03 0 .06.01.09l.06.03h.43ZM16 46.51v-3.75c0-.39.04-.6.1-.67.08-.06.32-.1.7-.09h.84C19.1 42 20 43.16 20 44.5c0 1.3-.88 2.5-2.23 2.5h-1.32c-.34 0-.43-.17-.45-.49Zm1.6-.51c.76-.02 1.4-.58 1.4-1.5 0-.9-.77-1.5-1.55-1.5-.22 0-.35 0-.38.03-.05.03-.07.12-.07.25v2.58c.02.09.07.14.14.14h.47Z" fill="#E20000"/><path fill-rule="evenodd" d="M38 47c1.1 0 2-1.12 2-2.5s-.9-2.5-2-2.5-2 1.12-2 2.5.9 2.5 2 2.5Zm0-1c.55 0 1-.67 1-1.5s-.45-1.5-1-1.5-1 .67-1 1.5.45 1.5 1 1.5Z" fill="#E20000"/><path d="M28 42.5a.5.5 0 0 0-.5-.5h-3a.5.5 0 0 0-.5.5v4c0 .28.22.5.5.5h3a.5.5 0 0 0 0-1h-2a.5.5 0 0 1 0-1h2a.5.5 0 0 0 0-1h-2a.5.5 0 0 1 0-1h2a.5.5 0 0 0 .5-.5Z" fill="#E20000"/><path fill-rule="evenodd" d="M32 43.5c0-1-.95-1.5-1.5-1.5h-2a.5.5 0 0 0-.5.5v4c0 .28.22.5.5.5h2c.55 0 1.5-.5 1.5-1.5 0-.42-.37-.76-.5-1 .13-.24.5-.58.5-1ZM30.5 45h-1a.5.5 0 0 0 0 1h1a.5.5 0 0 0 0-1Zm0-1a.5.5 0 0 0 0-1h-1a.5.5 0 0 0 0 1h1Z" fill="#E20000"/></svg>