<!-- by TradingView --><svg width="56" height="56" viewBox="0 0 56 56" xmlns="http://www.w3.org/2000/svg"><path fill="#F0F3FA" d="M0 0h56v56H0z"/><path d="M26 18.58c.5-.62 1.62-1.82 2-3.58.38 1.76 1.5 2.96 2 3.58-.67.65-1.14.92-2 .92-.86 0-1.33-.27-2-.92ZM21.98 19.54c-.3 0-.62-.36-.74-.54l-.24.3c.14.23.52.7.98.7.46 0 .87-.47 1.02-.7l-.24-.3c-.13.18-.48.54-.78.54ZM33.98 19.54c-.3 0-.62-.36-.74-.54l-.24.3c.14.23.52.7.98.7.46 0 .87-.47 1.02-.7l-.24-.3c-.13.18-.48.54-.78.54Z" fill="#A7202D"/><path fill-rule="evenodd" d="M28 46a18 18 0 1 0 0-36 18 18 0 0 0 0 36Zm0-.77a17.23 17.23 0 1 0 0-34.46 17.23 17.23 0 0 0 0 34.46Z" fill="#A7202D"/><path fill-rule="evenodd" d="M28 44a16 16 0 1 0 0-32 16 16 0 0 0 0 32Zm0-.4a15.6 15.6 0 1 0 0-31.2 15.6 15.6 0 0 0 0 31.2Z" fill="#A7202D"/><path fill="#A7202D" d="M19 31h18v1H19zM21 30h14v.73H21V30ZM23 29h10v.73H23V29Z"/><path fill-rule="evenodd" d="M29 26.45c0-2.75 1.5-4.59 4-4.44V28h-4v-1.55ZM30.15 25c.32-1.05 1.08-1.71 1.85-1.71V25h-1.85ZM30 26v2h2v-2h-2Z" fill="#A7202D"/><path d="M28 25.82c0 1.57-1.3 2.1-1.94 2.18H23v-6c2.72 0 5 1.85 5 3.82Zm-4-2.6V27h1.59c.57 0 1.41-.53 1.41-1.18 0-1.45-1.69-2.35-3-2.6ZM34.54 36H34l1.2-3h.6l1.2 3h-.54l-.95-2.46h-.02L34.54 36Zm.09-1.17h1.74v.38h-1.74v-.38ZM32.44 33.96a.84.84 0 0 0-.58-.52 1.2 1.2 0 0 0-.84.09.92.92 0 0 0-.37.37c-.09.16-.13.36-.13.6s.04.44.13.6c.1.16.22.29.38.37.15.09.33.13.54.13.18 0 .35-.03.49-.1a.75.75 0 0 0 .32-.27.75.75 0 0 0 .12-.42l.13.02h-.98v-.36H33v.33a1.1 1.1 0 0 1-.7 1.05c-.2.1-.46.15-.73.15-.32 0-.59-.06-.82-.18-.24-.12-.42-.3-.55-.52-.13-.22-.2-.49-.2-.8 0-.23.04-.44.11-.63a1.33 1.33 0 0 1 .82-.77 1.86 1.86 0 0 1 1.14-.03c.15.05.3.11.42.2.13.08.24.19.32.3.08.12.14.25.17.4h-.54ZM29 33v3h-.52l-1.9-2.2V36H26v-3h.52l1.9 2.2V33H29ZM25.5 34.5c0 .31-.06.58-.2.8-.13.23-.3.4-.53.52-.23.12-.48.18-.77.18-.29 0-.54-.06-.77-.18-.23-.12-.4-.3-.53-.52-.13-.22-.2-.49-.2-.8 0-.31.07-.58.2-.8.13-.23.3-.4.53-.52.23-.12.48-.18.77-.18.29 0 .54.06.77.18.23.12.4.3.54.52.13.22.19.49.19.8Zm-.5 0c0-.24-.04-.44-.13-.6a.88.88 0 0 0-.36-.37 1.03 1.03 0 0 0-.5-.13c-.2 0-.37.04-.52.13a.9.9 0 0 0-.36.37c-.09.16-.13.36-.13.6s.04.44.13.6c.09.16.2.29.36.37.15.09.32.13.51.13.2 0 .36-.04.51-.13a.9.9 0 0 0 .36-.37c.09-.16.13-.36.13-.6ZM20.2 36H19v-3h1.25c.36 0 .67.06.94.18A1.34 1.34 0 0 1 22 34.5c0 .3-.07.58-.21.8-.14.23-.35.4-.61.52-.27.12-.6.18-.97.18Zm-.64-.4h.62c.28 0 .52-.04.7-.12a.9.9 0 0 0 .43-.38c.09-.17.14-.37.14-.6 0-.24-.05-.44-.14-.6a.89.89 0 0 0-.42-.38 1.62 1.62 0 0 0-.68-.12h-.65v2.2ZM19 37h6.64v.46H19zM30.36 37H37v.46h-6.64V37ZM26 37h.46v.46H26zM27 37h.46v.46H27zM28.54 37H29v.46h-.46V37ZM29.54 37H30v.46h-.46V37ZM35.72 40v-2h.63c.39 0 .65.26.65.65 0 .38-.27.6-.65.6h-.42V39h.4c.23 0 .39-.11.39-.35s-.16-.4-.4-.4H36V40h-.28ZM35.2 38h.3v1.3c0 .13-.04.25-.1.36a.66.66 0 0 1-.26.25.82.82 0 0 1-.4.09.82.82 0 0 1-.39-.09.66.66 0 0 1-.35-.62V38h.28v1.27c0 .09.02.17.06.24.04.07.09.12.16.16.07.04.15.06.25.06a.5.5 0 0 0 .24-.06.4.4 0 0 0 .16-.16.5.5 0 0 0 .06-.24V38ZM33.35 39c0 .2-.04.39-.11.54a.8.8 0 0 1-.74.46.8.8 0 0 1-.43-.12.83.83 0 0 1-.3-.34 1.2 1.2 0 0 1-.12-.54c0-.2.04-.39.11-.54a.8.8 0 0 1 .74-.46.8.8 0 0 1 .74.46c.07.15.1.33.1.54Zm-.28 0c0-.16-.03-.3-.08-.4a.56.56 0 0 0-.2-.25.51.51 0 0 0-.29-.08c-.1 0-.2.03-.29.08a.57.57 0 0 0-.2.25.97.97 0 0 0-.07.4c0 .16.02.3.07.4.05.11.12.2.2.25.09.05.18.08.3.08a.51.51 0 0 0 .48-.33c.05-.1.08-.24.08-.4ZM30 40v-2h.67c.14 0 .27.03.36.08.1.05.17.13.22.22.05.1.07.2.07.33a.7.7 0 0 1-.07.32.5.5 0 0 1-.22.22.76.76 0 0 1-.36.07h-.5V39h.47a.5.5 0 0 0 .23-.06c.05-.03.1-.07.12-.12a.42.42 0 0 0 .04-.2.44.44 0 0 0-.04-.19.27.27 0 0 0-.12-.13.49.49 0 0 0-.23-.04h-.36V40H30Zm.93-.9.46.9h-.32l-.46-.9h.32ZM29.47 38.64a.6.6 0 0 0-.08-.15.47.47 0 0 0-.41-.22.5.5 0 0 0-.29.08.57.57 0 0 0-.2.25.97.97 0 0 0-.07.4c0 .16.02.29.07.4.05.1.12.2.2.25.09.05.19.08.3.08.1 0 .19-.02.26-.06.08-.05.14-.1.18-.19a.5.5 0 0 0 .07-.25l.07.01H29V39h.77v.22c0 .16-.03.28-.1.4a.7.7 0 0 1-.28.28.82.82 0 0 1-.4.1.82.82 0 0 1-.45-.12.82.82 0 0 1-.3-.35c-.07-.15-.1-.32-.1-.53 0-.15.02-.3.06-.42.04-.12.1-.23.17-.31a.77.77 0 0 1 .6-.27c.1 0 .2.02.29.05a.76.76 0 0 1 .5.6h-.3ZM26 40v-2h.28v1.74H27V40h-1ZM24.5 40v-2h1.18v.26h-.9v.6h.84v.27h-.84v.61h.9V40H24.5ZM22.73 38.26V38h1.45v.26h-.59V40h-.28v-1.74h-.58ZM22.7 39c0 .2-.05.39-.12.54a.8.8 0 0 1-.74.46.8.8 0 0 1-.43-.12.83.83 0 0 1-.3-.34A1.2 1.2 0 0 1 21 39c0-.2.04-.39.11-.54a.8.8 0 0 1 .74-.46.8.8 0 0 1 .73.46c.07.15.11.33.11.54Zm-.29 0c0-.16-.02-.3-.07-.4a.56.56 0 0 0-.2-.25.51.51 0 0 0-.3-.08c-.1 0-.2.03-.28.08a.57.57 0 0 0-.2.25.97.97 0 0 0-.08.4c0 .16.03.3.07.4.05.11.12.2.2.25.1.05.19.08.3.08a.51.51 0 0 0 .49-.33c.05-.1.07-.24.07-.4ZM19 40v-2h.28v.87h.94V38h.28v2h-.28v-.87h-.94V40H19Z" fill="#A7202D"/><circle cx="19.5" cy="16.5" r=".5" fill="#A7202D"/><circle cx="36.5" cy="16.5" r=".5" fill="#A7202D"/><circle cx="33.5" cy="15.5" r=".5" fill="#A7202D"/><circle cx="22.5" cy="15.5" r=".5" fill="#A7202D"/><circle cx="28" cy="14" r="1" fill="#A7202D"/><path d="M19 18c.24.99 1.2 3 3.1 3 1.45 0 2.12-1.28 2.28-1.82.54.6 2.03 1.8 3.62 1.82 1.59-.02 3.08-1.22 3.62-1.82.16.54.83 1.82 2.29 1.82 1.89 0 2.85-2.01 3.09-3-.52.77-1.87 2.34-3.1 2.34-1.82 0-1.3-2.96-.9-4.34-1.16 3.05-4 4-5 4s-3.84-.95-5-4c.4 1.38.92 4.34-.9 4.34-1.23 0-2.58-1.57-3.1-2.34Z" fill="#A7202D"/></svg>