<!-- by TradingView --><svg width="56" height="56" viewBox="0 0 56 56" xmlns="http://www.w3.org/2000/svg"><path fill="#F0F3FA" d="M0 0h56v56H0z"/><path d="m22 30 5-3.5v5L22 35v-5ZM28 25.94 33 23v4.8L28 31v-5.06ZM39 30l-6 3v-3.88L35.1 28l3.9 2ZM16 26l6-3v4.84L19.9 29 16 26Z" fill="#569A76"/><path fill-rule="evenodd" d="M44 12H12v32h32V12Zm-1 1H13v30h30V13Z" fill="#007D3D"/><path d="M22 18.15 27 15v11.5L22 30V18.15ZM28 30.86l5-3.36v10.22L28 41V30.86ZM28 20.63 37 16v5.37L28 26v-5.37Z" fill="#007D3D"/><path d="M39 25.5 33 23v4.5l6 2.5v-4.5ZM22 30l-6-4v5.24L22 35v-5Z" fill="#007D3D"/></svg>