<!-- by TradingView --><svg width="56" height="56" viewBox="0 0 56 56" xmlns="http://www.w3.org/2000/svg"><path fill="#F0F3FA" d="M0 0h56v56H0z"/><path fill-rule="evenodd" d="M23 21.64c0-4.78-5.75-8.25-9.31-9.63-.95.12-1.69.93-1.69 1.91V42.08c0 1.06.86 1.92 1.92 1.92h28.16c1.06 0 1.92-.86 1.92-1.92v-9.06a17.2 17.2 0 0 0-.91-.36c-1.47 1-4.25 2.38-7.85 3.31A23.9 23.9 0 0 1 38 38c-1.1-.7-2.24-1.32-3.39-1.87-2.2.52-4.69.87-7.35.87-5.8 0-9.03-1.2-10.42-2.1A53.3 53.3 0 0 0 12 38c1.3-1.62 4.34-4.2 8.85-6-4.59-.71-7.85-.68-7.85-.68 3.52-.47 6.76-.39 9.67.04 2.67-.85 5.78-1.4 9.28-1.36 4.78.1 8.88 1.09 11.53 2h.45a3.7 3.7 0 0 1-.12.11l.19.07V13.92c0-1.06-.86-1.92-1.92-1.92H21c3.47.54 6.99 1.85 6.99 3.4 0 1.1-.71 2.08-1.28 2.87-.4.53-.72.98-.72 1.32 0 .85.56 1.41 1.34 1.41 2.2 0 2.1-3.13 2.04-4.54v-.43l-.01-.36c-.01-.74-.02-.97.63-1.2.53-.18 4.73-.93 7.27-1.38l.74-.13-.32.08c-1.75.43-5.13 1.25-6.32 1.7-1.41.52-1.4 1.48-1.38 2.95l.01.6v.32c.01 1.64.02 2.88-2.96 5.55A45.69 45.69 0 0 1 12 31c8.94-4 11-5.96 11-9.36Zm15.9 9.93c1.38.25 2.56.56 3.53.87-1.8.89-4.81 2.06-8.38 2.82a32.46 32.46 0 0 0-9.22-3.5c2.14-.5 4.5-.79 7.12-.79 1.97 0 3.75.13 5.32.35A1 1 0 0 0 38 33a1 1 0 0 0 .9-1.43Zm-16.19.76c3.2.6 6.85 1.57 10.41 3.12-1.85.34-3.84.56-5.86.56-4.56 0-7.81-.91-9.48-1.63 1.53-.79 3.16-1.5 4.93-2.05ZM23 34a1 1 0 1 1-2 0 1 1 0 0 1 2 0Z" fill="#DA251D"/><path fill-rule="evenodd" d="M14 39v1h1v3h1v-3h2.62c.2 0 .38.27.38.5 0 .23-.17.5-.38.5H17v2h1v-1h.72c.18 0 .34-.04.5-.12L20.76 43h4.82c.78 0 1.41-.58 1.41-1.3 0-.72-.63-1.18-1.41-1.18h-1.36c-.13 0-.23-.16-.23-.27 0-.12.1-.25.23-.25H31v-1h-6.7c-.72 0-1.3.62-1.3 1.28s.58 1.22 1.3 1.22h1.36c.19 0 .34.06.34.23s-.15.27-.34.27H22v-3h-1v3l-1.12-.88c.08-.2.12-.4.12-.62 0-.78-.57-1.5-1.28-1.5H14Zm17 2.5h-2v.5h4.01c.57 0 .99-.43.99-1 0-.57-.42-1-.99-1H33v1h-1v-2h1.01A2 2 0 0 1 35 41a2 2 0 0 1-1.99 2H28v-2.5h3v1Zm6-.5a1 1 0 0 1 1.03-1h.47v-1h-.47c-1.12 0-2.03.9-2.03 2s.91 2 2.03 2h.47v-1h-.47A1 1 0 0 1 37 41Zm4 2a2 2 0 1 1 0-4 2 2 0 0 1 0 4Zm-1-2c0-.57.43-1 1-1 .57 0 1 .43 1 1 0 .57-.43 1-1 1-.57 0-1-.43-1-1Z" fill="#F0F3FA"/></svg>