<!-- by TradingView --><svg width="56" height="56" fill="none" xmlns="http://www.w3.org/2000/svg"><path fill="#F0F3FA" d="M0 0h56v56H0z"/><ellipse cx="33.827" cy="29.863" rx="10.587" ry="10.471" fill="#0F9347"/><ellipse cx="22.119" cy="29.863" rx="10.587" ry="10.471" fill="#DB2827"/><path fill-rule="evenodd" clip-rule="evenodd" d="M22 30V20c-5.523 0-10 4.477-10 10s4.477 10 10 10c1.453 0 2.833-.31 4.078-.867-2.297-1.678-3.64-5.22-4.078-7.14V30Zm12-12v-7h-2v5.897l-3.948-2.867L24 16.897V11h-2v7c-6.627 0-12 5.373-12 12s5.373 12 12 12c2.186 0 4.235-.584 6-1.605A11.945 11.945 0 0 0 34 42c6.627 0 12-5.373 12-12s-5.373-12-12-12Zm-4.169 21.092c.422-.362.817-.754 1.184-1.172C32.58 36.466 34 34.427 34 31.992V20c5.523 0 10 4.477 10 10s-4.477 10-10 10c-1.488 0-2.9-.325-4.169-.908Z" fill="#050708"/><path fill-rule="evenodd" clip-rule="evenodd" d="M26.542 19.289c0-1.229 1.015-2.038 1.523-2.289.47.275 1.408 1.117 1.408 2.289 0 1.171-.938 2.099-1.408 2.416-.508-.293-1.523-1.188-1.523-2.416Zm-2.412 1.843c-.178.53-.312 1.805.575 2.674.886.868 2.25.797 2.821.653.103-.55.097-1.856-.749-2.684-.845-.828-2.117-.774-2.647-.643Zm7.74 0c.178.53.312 1.805-.575 2.674-.886.868-2.25.797-2.821.653-.103-.55-.097-1.856.749-2.684.845-.828 2.117-.774 2.647-.643Zm-7.165 6.754c-.887-.869-.753-2.145-.575-2.674.53-.13 1.802-.185 2.647.643.846.828.852 2.135.75 2.684-.572.144-1.936.215-2.822-.653Zm6.59 0c.887-.869.753-2.145.575-2.674-.53-.13-1.802-.185-2.647.643-.846.828-.852 2.135-.75 2.684.572.144 1.936.215 2.822-.653Zm-7.165 1.619c-.178.53-.312 1.805.575 2.674.886.868 2.25.797 2.821.653.103-.55.097-1.855-.749-2.684-.845-.828-2.117-.774-2.647-.643Zm7.74 0c.178.53.312 1.805-.575 2.674-.886.868-2.25.797-2.821.653-.103-.55-.097-1.855.749-2.684.845-.828 2.117-.774 2.647-.643Zm-7.165 6.754c-.887-.869-.753-2.145-.575-2.674.53-.13 1.802-.185 2.647.643.846.829.852 2.135.75 2.684-.572.144-1.936.215-2.822-.653Zm6.59 0c.887-.869.753-2.145.575-2.674-.53-.13-1.802-.185-2.647.643-.846.829-.852 2.135-.75 2.684.572.144 1.936.215 2.822-.653Z" fill="#F7EE26"/></svg>