<!-- by TradingView --><svg width="56" height="56" fill="none" xmlns="http://www.w3.org/2000/svg"><path fill="#F0F3FA" d="M0 0h56v56H0z"/><path fill-rule="evenodd" clip-rule="evenodd" d="M27.619 37.957C20.169 32.657 5.218 22.046 5 22h15.26l7.358 15.957Zm.762 0C35.831 32.657 50.781 22.046 51 22H35.74L28.38 37.957Zm-3.513 2.777c.248-.4 1.278-1.409 3.12-1.409 1.84 0 2.835 1.007 3.067 1.4a.543.543 0 0 0 .767.188.598.598 0 0 0 .18-.802c-.429-.724-1.777-1.95-4.015-1.95-2.236 0-3.61 1.224-4.054 1.94a.598.598 0 0 0 .165.805.542.542 0 0 0 .77-.172Z" fill="#0B3F89"/></svg>