<!-- by TradingView --><svg width="56" height="56" viewBox="0 0 56 56" xmlns="http://www.w3.org/2000/svg"><path fill="#F0F3FA" d="M0 0h56v56H0z"/><path d="M26.65 29.66c0-.46.1-.7.21-.81.1-.12.27-.19.55-.19.22 0 .49.12.68.34.18.2.27.48.2.8l.62.16a1.6 1.6 0 0 0-1.5-1.96c-.38 0-.75.1-1.02.4-.27.29-.39.72-.39 1.26 0 .27.03.52.12.74.08.22.22.4.39.56.32.28.8.5 1.38.75l.04.02c.18.08.34.17.5.27H24a20 20 0 0 1 3.07 1.77c.2.14.35.24.4.26.09.05-.16.31-.42.59-.23.24-.48.5-.48.61 0 .84.4 1.38.73 1.83.17.22.32.43.4.64.18.5-1.05 1.07-1.69 1.3h2.25c.36-.05 1.07-.23 1.07-.58 0-.73-.96-1.5-1.45-1.79.49-.25 1.45-.9 1.45-1.4 0-.5-.25-.82-.37-.91.6-1.16 2.28-2.03 3.04-2.32h-2.53c-.31-.3-.74-.64-1.28-.88a5.15 5.15 0 0 1-1.25-.66.76.76 0 0 1-.22-.3 1.38 1.38 0 0 1-.07-.5Z" fill="#F78737"/><path opacity=".5" d="M30.74 12h-5.58C22.95 28.1 12.13 37.38 7 40h9.42c9.79-7.31 13.63-21.71 14.32-28Z" fill="#00A147"/><path opacity=".5" d="M25.2 12h5.6C33 28.1 43.81 37.38 48.94 40h-9.42c-9.79-7.31-13.63-21.71-14.32-28Z" fill="#F47200"/><path d="M10.45 38.93H47.1L49 40H10.45v-1.07Z" fill="#78CAA0"/></svg>