<!-- by TradingView --><svg width="56" height="56" viewBox="0 0 56 56" xmlns="http://www.w3.org/2000/svg"><path fill="#F0F3FA" d="M0 0h56v56H0z"/><path d="M34.72 36.2c0 1.21-4.92 1.55-6.34 1.56 3.38.74 7.62-.39 7.62-1.39 0-2.13-6-3.17-6-4.17 0-.56.74-1.39 2.14-2.08 2.72-1.65 4.86-3.65 4.86-6.47 0-4.6-5.89-5.65-7.12-5.65-1 0-2.45.38-3.05.56-2.7-.06-3.68 1.82-3.83 2.77 2.7 0 3.45-1.17 4.04-1.9.48-.11 1.72-.43 2.84-.43 2.55 0 5.12 2 5.12 4.08 0 2.09-.51 3.04-1.58 3.91-1.07.87-5.04 3.48-5.04 5.39 0 1.9 6.34 2.3 6.34 3.82Z" fill="#005C9F"/><path fill-rule="evenodd" d="M43 13H13v30h30V13ZM28 42a14 14 0 1 0 0-28 14 14 0 0 0 0 28Z" fill="#005C9F"/><path d="M18 23h13v.44a5.66 5.66 0 0 0-6.02 5.07v7.43c0 1.09 1.5 1.83 2.25 2.06h-5.46c.75-.23 2.25-.97 2.25-2.06v-7.43A5.66 5.66 0 0 0 18 23.44V23Z" fill="#005C9F"/></svg>