<!-- by TradingView --><svg width="56" height="56" viewBox="0 0 56 56" xmlns="http://www.w3.org/2000/svg"><path fill="#F0F3FA" d="M0 0h56v56H0z"/><path d="M10.61 28.1 28.24 10.6l-.6-.6L41.74 24H46L31.88 10h-4.26L10 27.48l.61.62ZM12 42h32v1H12zM12 40h5v1h-5zM12 38h5v1h-5zM39 38h5v1h-5zM39 40h5v1h-5z" fill="#FF0E1F"/><path d="M31 21h5.05L41 25.61v1.89L37.4 24H34v10h5v-2h2v4H31V21ZM25 21h-5.56L15 25.61v2.33L18.6 24H22v10h-4v-7.93l-3 3.7V36h10V21Z" fill="#0011F0"/><path fill-rule="evenodd" d="M28 20a3 3 0 1 0 0-6 3 3 0 0 0 0 6Zm0-1a2 2 0 1 0 0-4 2 2 0 0 0 0 4ZM30 21h-4v15h4V21Zm-1 2h-2v3h2v-3Zm-2 7v-3h2v3h-2Zm0 1v3h2v-3h-2Z" fill="#0011F0"/><path d="M22.57 39.2a4.89 4.89 0 0 0-.97 1.74l-.6-.07V38h.61v1.51c.14-.22.3-.43.48-.63a2.84 2.84 0 0 1 2.66-.8l-.18.5c-.66-.18-1.52.1-2 .62Zm2.5.82c.28-.24.34-.5.31-.67l.61-.06c.05.3-.07.75-.5 1.1-.44.36-1.17.61-2.3.61v-.52c1.03 0 1.58-.22 1.87-.46ZM31.81 38 34 40.78l-.62.22-1.54-1.96-.42.58.17-.1.47.34-1.5.93-.56-.27L31.81 38ZM34 41h.61v-2l1.7 2H37v-3h-.61v2.19L34.53 38H34v3ZM27 38h1v3h-1zM19.74 39.5c.3-.31.63-.55.85-.67l.41.53c-.17.1-.46.3-.72.6a2.1 2.1 0 0 0-.54 1.04l-.74-.04V39.1h.74v.4ZM19 38h.71v.62H19z" fill="#0011F0"/></svg>