<!-- by TradingView --><svg width="56" height="56" viewBox="0 0 56 56" xmlns="http://www.w3.org/2000/svg"><path fill="#F0F3FA" d="M0 0h56v56H0z"/><path d="m4 30.85 1.84-6.75c0-.03.02-.05.04-.06a.13.13 0 0 1 .08-.03h3.22c1.44.01 2.78.48 2.74 2.12-.05 2.13-1.19 4.22-3.37 4.7-1.19.27-3.28.14-4.44.15-.1 0-.13-.05-.1-.13Zm2.75-1.8a.04.04 0 0 0 0 .04l.02.01h.02c.5.04 1.67.1 2.03-.4.42-.57 1.41-2.76-.07-2.82l-1.03-.03c-.07 0-.1.03-.12.1l-.85 3.1ZM14.5 31h-2a.13.13 0 0 1-.1-.05.12.12 0 0 1-.02-.1l1.83-6.76c0-.02.02-.05.04-.06a.13.13 0 0 1 .08-.03h1.99a.13.13 0 0 1 .1.05.12.12 0 0 1 .02.1l-1.82 6.76-.05.06a.13.13 0 0 1-.08.03ZM22.34 26.9c-.1-1.29-1.8-1.13-2.37-.45-.5.59-1.26 2.56.15 2.73.9.11 1.23-.23 1.76-.81.05-.06.1-.08.17-.08h2.05a.1.1 0 0 1 .08.05.09.09 0 0 1 0 .09 4.88 4.88 0 0 1-3.66 2.51c-2.06.3-3.86-.54-3.53-2.88a4.53 4.53 0 0 1 2.52-3.52 5.05 5.05 0 0 1 3.82-.3c1.07.38 1.36 1.59 1.36 2.62 0 .03-.02.07-.04.09-.03.02-.06.05-.1.05h-2.1c-.07 0-.1-.04-.1-.1Z" fill="#051A94"/><path d="M28.71 29.23c.12-.18.28-.23.5-.23h1.5c.22 0 .25.07.22.12-.75 1.52-2.5 2.14-4.2 1.78-.94-.2-1.45-.92-1.36-1.81.21-2.13 2.15-3.36 4.38-3.04 1.1.16 1.67.82 1.57 1.85-.01.07-.05.1-.12.1h-1.87c-.07 0-.12-.03-.13-.1-.05-.23-.12-.35-.41-.4-1-.12-1.32.96-1.32 1.67 0 .52 1.04.36 1.24.06ZM38.1 26.89c.17.25.27.54.3.85.02.32-.03.65-.16.97-.13.33-.34.65-.6.94a4.06 4.06 0 0 1-2.1 1.23c-.4.1-.8.14-1.18.11a2.73 2.73 0 0 1-1.02-.27c-.3-.15-.55-.36-.72-.6a1.71 1.71 0 0 1-.3-.86c-.03-.32.02-.65.15-.97.13-.33.33-.65.6-.94a4.06 4.06 0 0 1 2.1-1.23c.4-.1.8-.14 1.17-.11.38.03.73.12 1.03.27.3.15.55.36.72.6Zm-3.3 2.54c.17.1.4.08.64-.03a1.43 1.43 0 0 0 .8-1.32c-.03-.24-.15-.43-.33-.52-.18-.09-.42-.08-.65.03a1.43 1.43 0 0 0-.8 1.32c.03.24.15.43.33.52ZM42.45 26.64a2.4 2.4 0 0 1 2.08-.6c1.13.2 1 1.22.78 2.01-.4 1.44-.67 2.39-.78 2.84-.01.03-.03.06-.06.08a.16.16 0 0 1-.09.03H42.5c-.08 0-.1-.03-.09-.1l.77-2.72c.1-.36-.05-.52-.45-.49l-.07.01c-.39.04-.63.23-.73.58l-.74 2.63c-.02.06-.06.09-.12.09h-1.82c-.02 0-.05 0-.06-.02a.14.14 0 0 1-.05-.03.12.12 0 0 1-.03-.11l1.33-4.72c.01-.03.03-.06.06-.08a.18.18 0 0 1 .1-.04h1.73l.07.02.05.04.03.06v.07l-.11.4c-.03.11 0 .13.08.05ZM49.52 29.57a.15.15 0 0 0 .05-.07v-.08a.15.15 0 0 0-.05-.07 1463.44 1463.44 0 0 0-1.62-.3c-.44-.08-.98-.33-1.06-.78-.2-1.15.76-1.96 1.9-2.16a5.1 5.1 0 0 1 2.56.11c.52.18.75.62.7 1.33a.1.1 0 0 1-.04.06.1.1 0 0 1-.07.03l-1.25-.02c-.36 0-.57-.1-.64-.28a.16.16 0 0 0-.13-.11 1.42 1.42 0 0 0-.87.07.18.18 0 0 0-.06.05.16.16 0 0 0-.03.16c0 .02.02.05.05.06.08.08.2.13.37.14 1 .09 2.93.24 2.23 1.8-.64 1.41-2.48 1.62-3.93 1.43-.92-.12-1.52-.63-1.36-1.53.01-.05.05-.09.12-.09.78-.03 1.35-.03 1.7.02.14.02.24.1.32.28.03.05.07.08.13.1.4.1.72.05.98-.15Z" fill="#E91D26"/></svg>