<!-- by TradingView --><svg width="56" height="56" viewBox="0 0 56 56" xmlns="http://www.w3.org/2000/svg"><path fill="#F0F3FA" d="M0 0h56v56H0z"/><path fill-rule="evenodd" d="M12.57 20H6v16h6.57c3 0 5.43-2.41 5.43-5.38v-5.24A5.4 5.4 0 0 0 12.57 20Zm-.83 3H9v10h2.74c1.8 0 3.26-1.57 3.26-3.5v-3c0-1.93-1.46-3.5-3.26-3.5Z" fill="#0A5DAB"/><path d="M26.74 23h1.4l.79-3h-4.68A5.6 5.6 0 0 0 19 25.38v5.24A5.6 5.6 0 0 0 24.25 36H29v-3h-2.26C23.9 33 22 32.56 22 29.36v-2.75c0-2.79 1.91-3.61 4.74-3.61ZM34 20h-3v16h7.09l1.44-3H34V20Z" fill="#0A5DAB"/><path d="M49.98 27.72c.32-4.35-3.15-6.96-4.92-7.72l-1.45 3.37c5.64 5.06 2.62 10.4.41 12.43 2.08-.68 5.55-2.65 5.96-8.08Z" fill="url(#a)"/><path d="M46.27 30.25c.23-3.1-2.24-4.96-3.5-5.5l-1.04 2.4c4.02 3.6 1.87 7.4.3 8.85 1.47-.48 3.95-1.89 4.24-5.75Z" fill="url(#b)"/><path d="M43.08 32.29c.15-2-1.45-3.2-2.26-3.55l-.67 1.55c2.6 2.33 1.2 4.78.19 5.71.95-.3 2.55-1.22 2.74-3.71Z" fill="url(#c)"/><defs><linearGradient id="a" x1="44.47" y1="21.39" x2="48.04" y2="34.24" gradientUnits="userSpaceOnUse"><stop stop-color="#3181C6"/><stop offset=".47" stop-color="#44C0F3"/><stop offset="1" stop-color="#3181C6"/></linearGradient><linearGradient id="b" x1="42.34" y1="25.74" x2="44.89" y2="34.89" gradientUnits="userSpaceOnUse"><stop stop-color="#F6A30C"/><stop offset=".47" stop-color="#F4CD0B"/><stop offset="1" stop-color="#F1A60D"/></linearGradient><linearGradient id="c" x1="40.15" y1="30.27" x2="42.18" y2="35.29" gradientUnits="userSpaceOnUse"><stop stop-color="#BBD51F"/><stop offset=".47" stop-color="#60B87D"/><stop offset="1" stop-color="#9BC948"/></linearGradient></defs></svg>