<!-- by TradingView --><svg width="56" height="56" viewBox="0 0 56 56" xmlns="http://www.w3.org/2000/svg"><path fill="#F8AB50" d="M0 0h56v56H0z"/><ellipse cx="28" cy="28" rx="20" ry="14" fill="#2C79BC"/><path d="m10.77 33.4-1.51-3.29a9.25 9.25 0 0 1-.24-3.5c.18-1.44.7-2.85 1.54-4.17.45-.7.98-1.37 1.6-2a14.97 14.97 0 0 1 3.12-2.48 20.1 20.1 0 0 1 3.22-1.59 23.8 23.8 0 0 1 6.74-1.56 26.99 26.99 0 0 1 12.4 1.76c1.3.54 2.52 1.19 3.62 1.93 1.7 1.15 3.1 2.5 4.1 4a10.5 10.5 0 0 1 1.63 3.91c.24 1.28.2 2.58-.1 3.85-.2.85-.52 1.67-.95 2.47a13.7 13.7 0 0 1-4.41 4.71c-.66.45-1.36.86-2.1 1.24a23.4 23.4 0 0 1-6.73 2.14 27.1 27.1 0 0 1-10.58-.35 23.32 23.32 0 0 1-5.35-1.96c-2-1.03-3.7-2.32-5-3.8a12.9 12.9 0 0 1-1-1.3Zm18.88-17.35-.41-.29a.28.28 0 0 0-.4.1.3.3 0 0 0-.04.14c0 .28.05.55.14.8.03.07.08.1.16.1.88-.06 1.6-.13 2.14-.21.07-.01.12-.04.15-.08.05-.07.04-.15-.02-.24a.22.22 0 0 0-.17-.1l-1.43-.18a.23.23 0 0 1-.12-.04Zm-1.8.63-.02-.69a.17.17 0 0 0-.05-.12.17.17 0 0 0-.12-.05h-.04a12.96 12.96 0 0 0-1.88.22c-.25.06-.44.12-.57.19-.14.07-.2.14-.2.2 0 .08.07.14.21.2.14.06.33.1.58.14a12.9 12.9 0 0 0 1.9.08h.03a.17.17 0 0 0 .15-.1c.01-.03.02-.05.01-.07Zm-12.33 2.45 2.42.98a.62.62 0 0 0 .7-.15l1.9-2.13c.33-.38.8-.62 1.13-.88.75-.61.66-.79-.27-.51-.42.12-.93.26-1.36.44-1.26.54-2.5.84-3.77 1.71-.24.18-.52.22-.75.32a.12.12 0 0 0 0 .22Zm25.07.49c.18-.05.19-.15.02-.33a.3.3 0 0 0-.07-.05c-1.3-.75-2.46-1.5-3.69-1.86-.82-.24-1.46-.55-2.35-.8-.29-.08-.32-.01-.1.2.43.37 1 .66 1.38 1.07.88.96 1.55 1.8 2.02 2.56a.33.33 0 0 0 .42.12c.98-.46 1.77-.77 2.37-.91Zm-20.71.1c-.13.15-.39.31-.48.54a.28.28 0 0 0 0 .21.27.27 0 0 0 .15.15 24.25 24.25 0 0 0 5.18 1.17c.71.06 1.57.15 2.57.27a.37.37 0 0 0 .3-.1.38.38 0 0 0 .12-.28v-3.46a.34.34 0 0 0-.08-.23.33.33 0 0 0-.2-.1l-1.1-.14c-.7-.09-1.48-.4-2.31-.66-.57-.18-.83-.09-1.28.21a12.62 12.62 0 0 0-2.87 2.41Zm15.14-1.23c-.58-.47-1.6-1.53-2.41-1.23-.97.34-1.97.54-3 .57-.6.03-.9.33-.9.9a79.4 79.4 0 0 0 .07 3.18.28.28 0 0 0 .27.17c1.6-.08 3.17-.21 4.7-.41.9-.12 1.86-.56 2.8-.49a.19.19 0 0 0 .17-.07c.17-.23.18-.43 0-.62-.13-.15-.41-.5-.82-1.04a5.8 5.8 0 0 0-.88-.96ZM15 19.8c-.72-.15-1.07.3-1.66.9-.58.58-1 1.04-1.29 1.38a9.58 9.58 0 0 0-2.01 4.26c-.05.27-.07.48-.06.64a.2.2 0 0 0 .07.14.2.2 0 0 0 .15.05c.58-.06 1.06-.08 1.43-.07l4.22.14c.1 0 .18-.03.25-.1a.37.37 0 0 0 .12-.24c.17-1.95.68-3.73 1.53-5.33a.37.37 0 0 0-.14-.5c-.62-.36-1.23-.65-1.83-.86-.25-.1-.57-.36-.78-.4Zm30.85 5.8a9.12 9.12 0 0 0-1.56-2.95c-.59-.74-2.25-2.67-2.89-2.4-.42.18-1.23.52-2.44 1-.36.15-.45.4-.28.75.5 1.05.83 2.46 1.04 3.22.08.28.13.59.16.93.04.47 0 1.36.53 1.41.68.07 1.5.08 2.5.04 1.02-.05 2.02.1 3.08.08.05 0 .1-.02.13-.06a.2.2 0 0 0 .05-.13c0-.61-.1-1.24-.32-1.89Zm-28.52.1c-.15.4-.24.83-.26 1.3-.02.79.04 1.63.2 2.52.24 1.47.64 2.8 1.21 4 .12.25.31.34.57.27.77-.22 1.32-.45 2.2-.53.5-.05 5.76-1.07 6.26-1.14-.04.28-2.41 1.67-2.41 1.67-1.17.12-4.58.65-5.63 1.02a.25.25 0 0 0-.16.18.26.26 0 0 0 .05.23c1.18 1.5 2.11 2.56 3.68 3.36.15.07.3.08.47.02.93-.35 1.96-.62 3.08-.8.35-.06.53.01.78.08a.2.2 0 0 0 .18-.03.2.2 0 0 0 .08-.17v-3.57a.27.27 0 0 0-.08-.18.26.26 0 0 0-.17-.09l-2.28-.05c1.05-1.6 3.96-1.13 5.69-1.14a7 7 0 0 1 1.95.35c.71.16 1.48.2 2.09.33.93.22 1.75.5 2.44.82a.23.23 0 0 0 .22 0 .24.24 0 0 0 .12-.2c.55-1.5.94-2.22 1.3-3.3.12-.31.13-.59.02-.82a4.2 4.2 0 0 0 .24-2.24l-.18-1.23c.02-.63-.08-1.21-.3-1.75-.4-.96-.7-1.76-.88-2.38-.1-.33-4.22.3-4.7.61-1.73.24-3.36.36-4.88.37-.52 0-1.17-.08-1.96-.22-1.53-.29-2.73-.04-4.13-.05l1.24-.12s.02 0 .02-.02v-.05a.1.1 0 0 0-.03-.06.06.06 0 0 0-.05-.03c-1.25.03-2.91-.68-4.12-1.04a.49.49 0 0 0-.6.29l-1.05 2.69c-.12.32-.2.69-.22 1.1Zm-4.6 2.4c-.76-.03-1.75.06-2.67.01a.17.17 0 0 0-.15.07.18.18 0 0 0-.03.16c.2.63.31 1.17.37 1.6.05.42.18.82.39 1.21.75 1.39 1.31 2.3 1.69 2.73.13.15.66.63 1.6 1.45.29.25.53.32.86.14.81-.45 1.66-.8 2.53-1.05a.4.4 0 0 0 .26-.22.41.41 0 0 0-.02-.35c-.78-1.57-1.08-3.4-1.35-5.28-.03-.24-.2-.37-.5-.38l-2.97-.08Zm26.26 6.57c.72.31 1.3.57 1.94.94.65.37 1.27.24 1.85-.38a40.6 40.6 0 0 0 1.61-1.82c.92-1.1 1.9-3.21 1.76-4.7-.01-.1-.06-.15-.16-.15a53.1 53.1 0 0 0-5.44.03c-.2.01-.33.04-.37.1-.35.43-.3 1.7-.46 2.34a38.43 38.43 0 0 1-.95 3.12c-.1.24-.02.42.22.52Zm-5.07 3.64a29.86 29.86 0 0 0 2.68-2.42c.1-.12.17-.3.22-.53a.34.34 0 0 0-.2-.38c-1.4-.6-2.7-.72-4.74-1.05-1.06-.17-2.11-.2-3.16-.1a.23.23 0 0 0-.2.23v3.47a.33.33 0 0 0 .32.34c1.22.03 2.38.26 3.48.68.71.27 1.03.24 1.6-.24Zm-14.88-2a6 6 0 0 1-.69-.88.32.32 0 0 0-.17-.12.96.96 0 0 0-.72.06c-.7.32-1.33.57-1.9.74a.22.22 0 0 0-.05.4c.8.48 1.69.99 2.68 1.52.22.13.67.28 1.34.47.74.21 1.49.63 2.21.79.15.03.25 0 .3-.07a.15.15 0 0 0 .03-.13.16.16 0 0 0-.08-.1 6.97 6.97 0 0 1-1.53-1.02c-.54-.46-.94-1.17-1.42-1.66Zm16.8 1.64c-.38.4-.73.68-1.05.86-.56.31-.52.48.11.5.09 0 .3-.07.66-.19a26.83 26.83 0 0 0 4.78-2.14c.13-.08.24-.16.32-.26a.24.24 0 0 0 .06-.23.25.25 0 0 0-.16-.17l-2.4-.85a.23.23 0 0 0-.25.08c-.53.73-1.22 1.53-2.07 2.4Zm-9.18 1.92c.2.01.48.19.67.3a.15.15 0 0 0 .2-.05.16.16 0 0 0 .03-.06c.07-.42.05-.78-.05-1.1-.03-.07-.08-.1-.15-.08-.43.12-1.06.18-1.88.19-.31 0-.64.1-.86.28a.13.13 0 0 0-.04.13.13.13 0 0 0 .09.1c.47.12 1.14.22 2 .29Zm1.8-.6.02.53a.22.22 0 0 0 .14.2l.08.01h.04c.75-.03 1.47-.11 2-.23.53-.11.83-.25.82-.37 0-.13-.3-.24-.85-.3-.53-.08-1.26-.1-2.01-.06h-.04a.21.21 0 0 0-.2.14.22.22 0 0 0 0 .09Z" fill="#EEF9F7"/><path d="m29.77 16.1 1.43.16c.08.01.13.05.17.1.06.1.07.18.02.25-.03.04-.08.07-.15.08-.55.08-1.26.15-2.14.21-.08 0-.13-.03-.16-.1-.1-.25-.14-.52-.14-.8a.3.3 0 0 1 .15-.25.28.28 0 0 1 .29.01l.41.29c.04.02.07.04.12.04ZM27.85 16.68a.17.17 0 0 1-.04.12.17.17 0 0 1-.12.06h-.04a12.96 12.96 0 0 1-1.89-.09 2.6 2.6 0 0 1-.58-.14c-.14-.06-.2-.12-.2-.2-.01-.06.05-.13.19-.2.13-.07.32-.13.57-.19a12.91 12.91 0 0 1 1.88-.22h.04a.17.17 0 0 1 .12.05.17.17 0 0 1 .05.12l.02.69ZM17.94 20.11l-2.42-.98a.12.12 0 0 1-.08-.1l.02-.08a.12.12 0 0 1 .06-.04c.23-.1.5-.14.75-.32 1.26-.87 2.51-1.17 3.77-1.7.43-.19.94-.33 1.36-.45.93-.28 1.02-.1.27.51-.32.26-.8.5-1.14.88l-1.9 2.13a.62.62 0 0 1-.7.15Z" fill="#1291D8"/><path d="M40.6 19.62c-.6.14-1.4.45-2.38.91a.33.33 0 0 1-.42-.12c-.47-.75-1.14-1.6-2.02-2.56-.38-.4-.95-.7-1.37-1.08-.23-.2-.2-.27.1-.18.88.24 1.52.55 2.34.79 1.23.36 2.4 1.11 3.7 1.86l.06.05c.17.18.16.28-.02.33ZM19.88 19.71c.6-.74 1.55-1.54 2.87-2.4.45-.3.71-.4 1.28-.22.83.27 1.6.57 2.32.66l1.08.13c.08.01.16.05.21.11.05.07.08.15.08.23v3.46a.39.39 0 0 1-.12.29.38.38 0 0 1-.3.1c-1-.13-1.86-.22-2.58-.28-.8-.06-1.66-.2-2.58-.42a24.25 24.25 0 0 1-2.68-.8.27.27 0 0 1-.08-.2c0-.04 0-.08.02-.11.1-.23.35-.39.48-.55ZM32.61 17.26c.82-.3 1.83.76 2.42 1.23.24.2.53.52.87.96.4.54.69.89.83 1.04.17.19.16.4 0 .62a.19.19 0 0 1-.17.07c-.95-.07-1.91.37-2.8.49a57.77 57.77 0 0 1-4.82.39.27.27 0 0 1-.16-.15 79.37 79.37 0 0 1-.07-3.18c0-.57.3-.87.9-.9a9.99 9.99 0 0 0 3-.57ZM14.99 19.8c.2.05.53.32.78.4.6.22 1.2.51 1.83.88.08.05.14.12.17.21.02.1.01.2-.03.28a13.87 13.87 0 0 0-1.53 5.33c0 .1-.05.18-.12.25a.35.35 0 0 1-.25.09l-4.22-.14a11.25 11.25 0 0 0-1.5.06.2.2 0 0 1-.13-.1.2.2 0 0 1-.02-.08c-.01-.16 0-.37.06-.64.3-1.58.98-3 2.01-4.26.28-.34.7-.8 1.29-1.38.59-.6.94-1.05 1.66-.9Z" fill="#2096EF"/><rect x="17.06" y="22.84" width="22.15" height="10.06" rx="5.03" fill="#FEF896"/><path d="M45.84 25.6c.21.65.32 1.28.32 1.89a.2.2 0 0 1-.05.13.19.19 0 0 1-.13.06c-1.07.02-2.06-.13-3.08-.08-1 .04-1.83.03-2.5-.04-.53-.05-.5-.94-.53-1.41a5.05 5.05 0 0 0-.16-.93c-.21-.76-.54-2.17-1.04-3.22-.17-.35-.08-.6.28-.75 1.21-.48 2.02-.82 2.44-1 .64-.27 2.3 1.66 2.9 2.4.71.91 1.18 1.82 1.55 2.95Z" fill="#2096EF"/><path d="M22.13 22.94c-.56-.1-.98-.1-1.24-.01a7.3 7.3 0 0 0-3.57 2.77c.02-.41.1-.78.22-1.1l1.05-2.7a.49.49 0 0 1 .6-.3c1.2.38 2.87 1.1 4.12 1.06.02 0 .04.01.05.03a.1.1 0 0 1 .02.06v.05l-.01.02-1.24.12ZM38.98 26.36c-.21-.3-.4-.61-.56-.92a3.37 3.37 0 0 0-.57-.87 6.07 6.07 0 0 0-1.47-1.02c-.39-.19-.93-.34-1.63-.45l-1.66-.26c.5-.31 4.6-.94 4.7-.6.2.61.49 1.4.9 2.37.21.54.31 1.12.3 1.75Z" fill="#1291D8"/><path d="M21.25 26.88c.17-.41.1-1.14.09-1.89 0-.07.02-.14.07-.19a.26.26 0 0 1 .18-.09c1.23-.07 2.5-.06 3.84.04.24.01.75.19 1.53.53.53.23.92.56 1.17 1 .37.64.47 1.4.29 2.25-.32 1.48-1.24 2.24-2.76 2.28-1.5.04-2.88.02-4.14-.05a.21.21 0 0 1-.15-.07.23.23 0 0 1-.06-.15v-2.12a.3.3 0 0 0-.2-.28l-.9-.33a.22.22 0 0 1-.14-.14.23.23 0 0 1 .02-.2c.22-.32.47-.33.85-.36.15 0 .25-.08.31-.23Zm2.52-.83c-.25.03-.5-.06-.77-.01-.17.03-.27.13-.29.31-.07.77-.08 2.8.12 3.2a.3.3 0 0 0 .23.16c.5.04 1.17.03 2.03-.02.76-.04 1.48-.18 1.73-.92.18-.5.2-1.02.1-1.54-.17-.75-.37-1.27-1.23-1.26a24.8 24.8 0 0 0-1.92.08ZM31.66 26a.17.17 0 0 0-.12.06.18.18 0 0 0-.05.12 76.84 76.84 0 0 0-.05 3c0 .47.23.68.68.63.85-.1 1.76-.08 2.72.03.15.02.23-.32.24-1.02 0-.31.15-.42.44-.32l.41.15c.28.1.44.3.49.6.17 1.1-.2 1.73-1.1 1.86-.9.13-1.59.16-2.05.09-.6-.1-1.23-.17-1.88-.21-.3-.02-.61-.11-.94-.27a.4.4 0 0 1-.15-.13c-.1-.13-.16-.47-.19-1.01-.09-1.44-.05-2.83.13-4.18a.42.42 0 0 1 .11-.24.4.4 0 0 1 .23-.11c1.8-.26 3.59-.2 5.37.16.24.05.37.18.42.4.08.4.1 1.02-.1 1.44-.06.12-.16.18-.31.2-.34.03-.6-.02-.75-.17a.19.19 0 0 1-.06-.1l-.2-.74a.31.31 0 0 0-.1-.17.3.3 0 0 0-.19-.06h-3Z" fill="#B92501"/><path d="m12.73 28.1 2.96.1c.3 0 .48.13.51.37.27 1.89.57 3.71 1.35 5.28a.41.41 0 0 1-.09.49.4.4 0 0 1-.15.08c-.87.25-1.72.6-2.53 1.05-.33.18-.57.11-.86-.14-.94-.82-1.47-1.3-1.6-1.45-.38-.43-.94-1.34-1.7-2.73-.2-.4-.33-.8-.38-1.2a9.98 9.98 0 0 0-.37-1.7.18.18 0 0 1 .1-.12.17.17 0 0 1 .08-.02c.92.05 1.91-.04 2.68 0ZM38.98 34.67c-.24-.1-.31-.28-.22-.52.3-.86.62-1.9.95-3.12.17-.64.11-1.91.46-2.34.04-.06.17-.09.37-.1 1.74-.1 3.56-.11 5.44-.03.1 0 .15.05.16.14.14 1.5-.84 3.6-1.76 4.7-.48.6-1.02 1.2-1.6 1.83-.6.62-1.2.75-1.86.38-.64-.37-1.22-.63-1.94-.94Z" fill="#2096EF"/><path d="m22.72 33.08-1.47.18c-.89.08-1.44.3-2.2.53-.27.07-.46-.02-.58-.27a14.7 14.7 0 0 1-1.2-4c.22.3.43.6.62.92.22.36.46.64.7.84.55.43.97.74 1.26.9.5.28 1.1.43 1.78.45 1.5.03 1.86.18 1.1.45ZM32.73 33l2.89-.23c.06 0 .11-.03.16-.06l1.48-.97c.49-.31.78-.6 1.12-1.14.15-.25.33-.5.54-.77.1.23.1.5-.01.83l-.25.7c-.2.75-1 1.92-1.06 2.6a.25.25 0 0 1-.12.18.24.24 0 0 1-.22.01c-.7-.32-1.5-.6-2.44-.82-.6-.14-1.38-.17-2.09-.33Z" fill="#1291D8"/><path d="M10.77 33.4a10.73 10.73 0 0 1-1.52-3.29l1.52 3.3ZM25.38 33.76l1.99.08c.06 0 .13.04.17.09.05.05.08.11.08.18v3.57a.2.2 0 0 1-.08.17.2.2 0 0 1-.18.03c-.25-.07-.43-.14-.78-.08-1.12.18-2.15.45-3.08.8a.56.56 0 0 1-.47-.02c-1.57-.8-2.5-1.87-3.68-3.36a.26.26 0 0 1 .1-.4c1.06-.38 2.17-.63 3.34-.75l2.6-.31ZM33.9 38.3c-.56.5-.88.52-1.6.25-1.09-.42-2.25-.65-3.48-.69a.33.33 0 0 1-.22-.1.34.34 0 0 1-.1-.23v-3.48c0-.06.02-.11.06-.16.04-.04.1-.06.15-.07 1.05-.1 2.1-.06 3.16.11 2.04.33 3.33.44 4.74 1.05a.34.34 0 0 1 .2.38c-.05.24-.12.41-.22.53-.35.4-1.24 1.2-2.68 2.42Z" fill="#2096EF"/><path d="M19.03 36.31c.48.49.88 1.2 1.42 1.66a6.97 6.97 0 0 0 1.58 1.06.15.15 0 0 1 0 .19c-.05.08-.15.1-.3.07-.72-.16-1.47-.58-2.21-.79a7.6 7.6 0 0 1-1.34-.47c-1-.53-1.88-1.04-2.67-1.52a.21.21 0 0 1-.1-.21.22.22 0 0 1 .15-.19c.56-.17 1.2-.42 1.9-.74.25-.11.5-.14.71-.06.07.02.13.06.17.12a6 6 0 0 0 .7.88ZM35.83 37.95c.85-.87 1.54-1.67 2.07-2.4a.23.23 0 0 1 .25-.08l2.4.85a.24.24 0 0 1 .16.17.25.25 0 0 1-.06.23c-.08.1-.2.18-.32.26-1.37.8-2.97 1.52-4.78 2.14-.35.12-.57.18-.66.18-.63-.01-.67-.18-.11-.5.32-.17.67-.46 1.05-.85ZM26.65 39.87a11.78 11.78 0 0 1-2.05-.33.13.13 0 0 1-.03-.13l.04-.06c.22-.18.55-.28.86-.28a8.4 8.4 0 0 0 1.88-.19c.07-.02.12.01.15.08.1.32.12.68.05 1.1a.16.16 0 0 1-.09.11.15.15 0 0 1-.14 0c-.19-.11-.47-.29-.67-.3ZM28.44 39.28a.22.22 0 0 1 .13-.21.21.21 0 0 1 .08-.02h.04c.75-.04 1.48-.02 2.01.05.54.07.85.18.85.3 0 .13-.29.27-.82.38-.53.12-1.25.2-2 .23h-.04a.21.21 0 0 1-.2-.12.22.22 0 0 1-.02-.09l-.03-.52Z" fill="#1291D8"/></svg>