<!-- by TradingView --><svg width="56" height="56" viewBox="0 0 56 56" xmlns="http://www.w3.org/2000/svg"><path fill="#F0F3FA" d="M0 0h56v56H0z"/><path d="M14.49 34.22V22.58a.55.55 0 0 1 .18-.4l12.95-12.13a.55.55 0 0 1 .73-.01L41.52 21.9a.55.55 0 0 1 .18.41v11.94a.55.55 0 0 1-.19.41L28.37 46.05a.55.55 0 0 1-.72 0L14.68 34.63a.55.55 0 0 1-.19-.42Zm13.95 11.35 12.7-11.01a.7.7 0 0 0 .24-.55V22.63a.82.82 0 0 0-.26-.61L28.36 10.4c-.22-.2-.44-.2-.66 0L15.1 22.17c-.18.18-.28.4-.28.67l-.03 11.3a.5.5 0 0 0 .17.37l12.7 11.07c.1.09.24.14.38.14.15 0 .29-.06.4-.15Z" fill="#B70A04"/><path d="M13 34.82V21.98a.6.6 0 0 1 .2-.44L27.46 8.16a.6.6 0 0 1 .82 0L42.8 21.22a.6.6 0 0 1 .2.45v13.16a.6.6 0 0 1-.21.46L28.3 47.85a.6.6 0 0 1-.8 0L13.2 35.27a.6.6 0 0 1-.2-.45Zm15.38 12.5 14-12.14a.78.78 0 0 0 .27-.6V22.04a.9.9 0 0 0-.3-.67L28.3 8.56c-.24-.22-.49-.22-.73 0L13.68 21.54a.97.97 0 0 0-.32.74l-.02 12.45c0 .08.01.15.05.22.03.07.08.13.14.19l13.98 12.2c.12.1.27.16.43.16.16 0 .32-.06.44-.17Z" fill="#B70A04"/><path d="M15.28 26.17c0-.04.02-.09.05-.12a.19.19 0 0 1 .13-.05h2.06c.54.01 1.06.21 1.44.57.38.35.6.83.6 1.33v.23a1.88 1.88 0 0 1-.6 1.33 2.06 2.06 0 0 1-1.46.54h-2.06a.19.19 0 0 1-.13-.06.17.17 0 0 1-.05-.12l.02-3.65Zm.94.62v2.44c0 .03.02.11.05.14.02.02.06.04.1.04h1a1.13 1.13 0 0 0 .77-.32 1.05 1.05 0 0 0 .32-.74v-.65c0-.28-.11-.54-.32-.74-.2-.2-.48-.3-.78-.3h-1a.15.15 0 0 0-.1.04.13.13 0 0 0-.04.1ZM25.12 27.93c0 .54-.24 1.07-.7 1.46-.45.38-1.06.6-1.7.61-.65 0-1.27-.2-1.73-.6-.46-.37-.72-.9-.72-1.44 0-.55.25-1.07.7-1.46a2.66 2.66 0 0 1 1.71-.61c.65 0 1.27.2 1.72.59.46.38.72.9.72 1.45Zm-1.03.02c0-.37-.15-.73-.42-.99a1.43 1.43 0 0 0-2.32.45 1.37 1.37 0 0 0 .31 1.53 1.42 1.42 0 0 0 1 .4 1.38 1.38 0 0 0 1.42-1.4ZM33.1 26c.18 0 .32.02.44.05.1.03.17.1.22.18l1.81 3.42c.1.2.04.35-.2.35h-.42c-.2 0-.35-.14-.44-.3l-.3-.6c-.04-.06-.14-.1-.31-.1h-1.5c-.17 0-.27.06-.3.13l-.3.6a.47.47 0 0 1-.43.26l-.42.01c-.24 0-.3-.1-.2-.3l1.71-3.45a.37.37 0 0 1 .22-.19c.11-.04.26-.06.43-.06Zm.53 2.4c.14-.01.2-.05.16-.11l-.58-1.23-.07-.03h-.03c-.04 0-.07.02-.07.04l-.54 1.23c-.03.07.01.1.15.1h.98ZM37.12 28.03c.03 1.33 1.36 1.79 2.23.93.2-.2.43-.24.7-.13l.1.05c.29.12.31.28.09.48-1.3 1.15-4.04.78-4.08-1.31-.05-2.1 2.68-2.58 4.02-1.48.23.19.21.35-.06.48l-.11.06a.58.58 0 0 1-.7-.11c-.9-.82-2.22-.3-2.19 1.03Z" fill="#E40F09"/><path d="M15.4 31c-.12 0-.18-.07-.18-.18v-.25c0-.15.09-.23.25-.23h9.93c.12.02.43-.03.5-.14a.5.5 0 0 0 .1-.28v-3.78c0-.13.03-.14.17-.14h.74c.06 0 .11.02.16.05.05.02.09.05.12.1l1.52 1.89c.2.25.28.22.29-.1v-2.76c0-.05.02-.1.06-.13a.19.19 0 0 1 .12-.05h10.76c.18 0 .27.09.27.26v.11c0 .19-.1.28-.29.28h-9.75c-.11 0-.17.06-.17.17v4.05c0 .04-.02.09-.05.12a.2.2 0 0 1-.12.06h-.07c-.54.07-.7.1-1.11-.44l-1.34-1.77c-.14-.2-.3-.17-.31.09v2.92c0 .1-.16.15-.3.15H15.4Z" fill="#E40F09"/></svg>