<!-- by TradingView --><svg width="56" height="56" viewBox="0 0 56 56" xmlns="http://www.w3.org/2000/svg"><path fill="#F0F3FA" d="M0 0h56v56H0z"/><path fill="#030332" d="M9 36h38v1H9zM11 35h34v.79H11V35ZM12 34h32v.55H12V34ZM8 26c4.7-1.5 15.27-5.55 20-10 4.73 4.45 15.3 8.5 20 10H8Zm3.95-.6h32.1l-.2-.04A45.5 45.5 0 0 1 28 17.08a45.5 45.5 0 0 1-15.85 8.28l-.2.04Z"/><path d="M24 21.86c0-.48.39-.86.87-.86h6.26c.48 0 .87.38.87.86v5.29c0 .47-.39.85-.87.85h-6.26a.86.86 0 0 1-.87-.86v-5.29Z" fill="#030332"/><path d="M25 22.48c0-.26.22-.48.48-.48h1.04c.26 0 .48.22.48.48v1.04c0 .26-.22.48-.48.48h-1.04a.48.48 0 0 1-.48-.48v-1.04Z" fill="#FD0604"/><path d="M25 25.48c0-.26.22-.48.48-.48h1.04c.26 0 .48.22.48.48v1.04c0 .26-.22.48-.48.48h-1.04a.48.48 0 0 1-.48-.48v-1.04Z" fill="#EDFF01"/><path d="M29 22.48c0-.26.22-.48.48-.48h1.04c.26 0 .48.22.48.48v1.04c0 .26-.22.48-.48.48h-1.04a.48.48 0 0 1-.48-.48v-1.04Z" fill="#FBFDFB"/><path d="M29 25.48c0-.26.22-.48.48-.48h1.04c.26 0 .48.22.48.48v1.04c0 .26-.22.48-.48.48h-1.04a.48.48 0 0 1-.48-.48v-1.04Z" fill="#04780A"/><path d="M45.26 28.97a1.86 1.86 0 0 0-.1-.37 1 1 0 0 0-.15-.27.62.62 0 0 0-.2-.18.52.52 0 0 0-.25-.06.58.58 0 0 0-.44.22c-.13.15-.23.37-.3.65-.07.28-.1.63-.1 1.03 0 .41.03.76.1 1.04.07.29.17.5.3.66a.6.6 0 0 0 .86.07c.1-.1.2-.24.25-.43.06-.18.1-.4.1-.64l.14.03h-.86v-.93H46v.74c0 .51-.06.95-.18 1.32a2 2 0 0 1-.51.85c-.22.2-.47.3-.74.3-.32 0-.59-.12-.82-.36a2.47 2.47 0 0 1-.55-1.04c-.13-.45-.2-.98-.2-1.6 0-.47.04-.89.12-1.26.08-.37.19-.69.33-.95s.3-.45.5-.59a1.02 1.02 0 0 1 1.13-.05c.16.1.3.23.43.4.12.18.23.38.3.62.09.24.14.5.16.8h-.71ZM42 30v3h-.66l-1.56-1.89h-.02V33H39v-3h.67l1.54 1.89h.04V30H42ZM38 31.5c0 .32-.07.59-.2.81-.13.23-.3.4-.54.51-.22.12-.48.18-.76.18s-.54-.06-.77-.18c-.22-.11-.4-.29-.53-.5-.13-.23-.2-.5-.2-.82 0-.32.07-.59.2-.81.13-.23.3-.4.53-.51.23-.12.49-.18.77-.18s.54.06.76.18c.23.11.41.28.54.5.13.23.2.5.2.82Zm-.69 0c0-.2-.03-.38-.1-.52a.72.72 0 0 0-.28-.32.82.82 0 0 0-.43-.11c-.16 0-.3.03-.43.1a.73.73 0 0 0-.28.33c-.07.14-.1.31-.1.52 0 .2.03.38.1.52a.73.73 0 0 0 .71.43c.16 0 .3-.03.43-.1a.72.72 0 0 0 .28-.33c.07-.14.1-.31.1-.52ZM33.23 30H34v1.92a.9.9 0 0 1-.19.57c-.12.16-.3.29-.52.38-.23.09-.5.13-.79.13-.3 0-.56-.04-.79-.13-.22-.1-.4-.22-.52-.38a.9.9 0 0 1-.19-.57V30h.77v1.87c0 .11.03.21.09.3s.14.15.25.2c.11.05.24.08.39.08.15 0 .28-.03.39-.08a.6.6 0 0 0 .25-.2c.06-.09.1-.19.1-.3V30ZM28.26 33H27v-3h1.27c.36 0 .67.06.92.18.26.12.46.3.6.51.14.23.21.5.21.8 0 .32-.07.59-.21.81-.14.23-.34.4-.6.52a2.2 2.2 0 0 1-.93.18Zm-.5-.54h.47c.22 0 .4-.04.56-.1a.7.7 0 0 0 .34-.32c.08-.14.12-.32.12-.54 0-.22-.04-.4-.12-.55a.7.7 0 0 0-.34-.3 1.4 1.4 0 0 0-.56-.1h-.48v1.9ZM25.26 30.98a.6.6 0 0 0-.25-.32.69.69 0 0 0-.2-.08.96.96 0 0 0-.25-.03.88.88 0 0 0-.44.1.76.76 0 0 0-.3.33c-.07.14-.1.31-.1.52 0 .2.03.37.1.52.07.14.17.25.3.32a.9.9 0 0 0 .45.11 1 1 0 0 0 .4-.07c.12-.05.2-.12.26-.21.06-.1.1-.2.1-.33l.14.02h-.86v-.46H26v.37c0 .25-.06.47-.18.66-.13.18-.3.32-.51.42-.22.1-.47.15-.74.15-.32 0-.59-.06-.82-.18-.24-.12-.42-.3-.55-.52-.13-.22-.2-.49-.2-.8 0-.23.04-.44.12-.63a1.34 1.34 0 0 1 .82-.77c.19-.07.4-.1.61-.1.19 0 .36.02.53.07.16.05.3.12.43.2.12.1.23.2.3.32.09.12.14.25.16.4h-.71ZM22 30v3h-.66l-1.56-1.89h-.02V33H19v-3h.67l1.54 1.89h.04V30H22ZM18 31.5c0 .32-.07.59-.2.81-.13.23-.3.4-.54.51-.22.12-.48.18-.76.18s-.54-.06-.77-.18c-.22-.11-.4-.29-.53-.5-.13-.23-.2-.5-.2-.82 0-.32.07-.59.2-.81.13-.23.3-.4.53-.51.23-.12.49-.18.77-.18s.54.06.76.18c.23.11.41.28.54.5.13.23.2.5.2.82Zm-.69 0c0-.2-.03-.38-.1-.52a.72.72 0 0 0-.28-.32.82.82 0 0 0-.43-.11c-.16 0-.3.03-.43.1a.73.73 0 0 0-.28.33c-.07.14-.1.31-.1.52 0 .2.03.38.1.52a.73.73 0 0 0 .71.43c.16 0 .3-.03.43-.1a.72.72 0 0 0 .28-.33c.07-.14.1-.31.1-.52ZM12.26 33H11v-6h1.27c.36 0 .67.12.92.36.26.24.46.58.6 1.03.14.45.21.98.21 1.6 0 .63-.07 1.17-.21 1.62-.14.44-.34.79-.6 1.03-.26.24-.57.36-.93.36Zm-.5-1.09h.47c.22 0 .4-.06.56-.2.15-.13.27-.34.34-.62.08-.28.12-.65.12-1.1 0-.44-.04-.8-.12-1.08a1.23 1.23 0 0 0-.34-.62.82.82 0 0 0-.56-.2h-.48v3.82Z" fill="#030332"/></svg>