<!-- by TradingView --><svg width="56" height="56" viewBox="0 0 56 56" xmlns="http://www.w3.org/2000/svg"><path fill="#F0F3FA" d="M0 0h56v56H0z"/><path d="M13.58 15.37c2.52.39 7.94.13 9.47-3.97H32.95c1.53 4.1 6.95 4.36 9.46 3.97 1.73 27.78-9.47 30.95-13.97 32.23l-.34.1v.05l-.1-.03-.1.03v-.06l-.34-.1c-4.5-1.27-15.7-4.44-13.98-32.22Z" fill="#217152"/><path fill-rule="evenodd" d="M22.77 11h10.46l.1.26c.7 1.89 2.3 2.91 4.1 3.42 1.79.5 3.7.48 4.92.3l.44-.07.03.44c.87 13.93-1.5 21.77-4.72 26.3-3.23 4.55-7.27 5.7-9.54 6.33l-.05.02h-1.02l-.04-.01c-2.28-.65-6.32-1.8-9.55-6.33-3.22-4.54-5.59-12.38-4.72-26.31l.03-.44.44.06c1.21.19 3.13.22 4.92-.3 1.8-.5 3.4-1.52 4.1-3.4l.1-.27ZM28 47.3l-.33-.1c-2.24-.63-6.04-1.7-9.1-6.01-3.04-4.28-5.4-11.8-4.6-25.36 1.29.14 3.1.12 4.83-.37 1.85-.53 3.65-1.42 4.52-3.46h9.36c.87 2.04 2.67 2.93 4.52 3.46 1.73.49 3.54.51 4.84.37.78 13.57-1.57 21.08-4.6 25.36-3.07 4.3-6.87 5.38-9.1 6.02l-.34.1Z" fill="#D0BF56"/><path d="M30.2 16.72c-.16.12-.18.24-.18.44 0 .12.02.2.08.27a.5.5 0 0 0 .44.13.06.06 0 0 1 .08.05v.04c-.19.45-.46.82-.83 1.13a.8.8 0 0 1-.43.17.1.1 0 0 1-.08-.02.1.1 0 0 1-.03-.08v-.94c0-.15.06-.22.15-.34.38-.52.32-1.32-.08-1.79-.4-.46-1.02-.6-1.57-.38a1.5 1.5 0 0 0-.87 1.12c-.05.45.07.82.33 1.17.06.07.09.14.1.21v.6a5.17 5.17 0 0 0 .02.42l-.04.02a.5.5 0 0 1-.43-.08 2.62 2.62 0 0 1-1.07-2.24 2.5 2.5 0 0 1 1.97-2.43 2.28 2.28 0 0 1 1.8.3 2.5 2.5 0 0 1 1.22 2.05.12.12 0 0 1-.1.12c-.14.01-.36-.03-.48.06Z" fill="#B33B3C"/><path d="M32.15 36.43c-.04.19-.1.25-.2.21a.65.65 0 0 1-.22-.17c-.07-.09-.09-.08-.06.03.03.13.03.25 0 .37a.08.08 0 0 1-.13.05.77.77 0 0 1-.18-.19l-.17-.33c-.02-.03-.03-.02-.04 0-.04.18-.09.37-.23.48a.05.05 0 0 1-.07 0 .63.63 0 0 1-.22-.22l-.11-.3c-.01-.03-.02-.03-.02 0l-.05.18c-.03-.26-.16-.4-.38-.45-.03 0-.04-.02-.04-.05v-.23a.1.1 0 0 0-.15-.1c-.1.04-.18.06-.26.07l-.25.03c-.25.06-.52.09-.79.1-.02 0-.03.01-.03.03v.2l-.03.06c-.03.03-.05.06-.04.1l-.08-.3c-.02-.08-.03-.08-.03 0l-.09 4.17a.06.06 0 0 1-.08.05c-.25-.1-.46-.26-.63-.46-.1-.12-.3-.36-.58-.73-.37-.46-.8-.57-1.43-.78-.56-.2-1.15-.33-1.52-.72a.02.02 0 0 1 .01-.03h1.85c.14 0 .25 0 .38.03.05.02.08.01.12-.02.02 0 .05 0 .07-.02a.07.07 0 0 0 .04-.05l.06-.34c.02-.1 0-.12-.08-.06h-.16c.15 0 .25-.07.29-.21 0-.04.02-.04.03 0l.07.07.03.02.01.04a.9.9 0 0 0 .23.54H27a.04.04 0 0 0 .03-.02c.12-.19.17-.38.17-.6l.01-.06c.1-.16.05-.36.04-.53l.01-.03h.02c.03 0 .03.02.03.04a.7.7 0 0 0 .08.63l.06.03c.05 0 .08.04.1.12l-.01.22a.05.05 0 0 0 .07.04c.24-.13.33-.28.34-.55.02-.24.04-.41-.1-.6a.1.1 0 0 1-.03-.06v-.17c0-.02-.01-.04-.04-.05l-.96-.14h-.02l-.01-.02a.07.07 0 0 0-.05-.02.52.52 0 0 1-.29-.09.08.08 0 0 0-.12.06v.38c0 .02-.02.04-.04.04-.25.08-.35.25-.31.51l-.01.07a.62.62 0 0 0-.03.36c-.06.02-.1 0-.12-.06a.63.63 0 0 1-.06-.3v-.02l-.03-.01h-.01c-.03.07-.07.11-.12.13a.05.05 0 0 1-.05-.01l-.03-.03c-.02-.02-.04-.02-.06 0-.37.29-.53-.18-.57-.46 0-.04-.02-.04-.04-.01l-.18.23c-.13.17-.4.32-.53.08a.88.88 0 0 1-.08-.54c.04-.35.13-.67.25-.97.02-.04 0-.06-.03-.06h-.03a.12.12 0 0 0-.1.06.93.93 0 0 1-.51.46.08.08 0 0 1-.1-.03.09.09 0 0 1-.02-.04c-.04-.23.1-.42.25-.68.03-.04.02-.05-.02-.02l-.15.11a.1.1 0 0 1-.14-.02.1.1 0 0 1-.02-.04.45.45 0 0 1 .02-.3c.06-.13.04-.15-.07-.06-.09.08-.26.25-.38.1a.11.11 0 0 1-.03-.05v-.07l.12-.3c.02-.06 0-.07-.06-.04-.49.28-.75-.07-.46-.5.13-.2.28-.37.45-.5v-.04l-.02-.02H23c-.36.25-.75.43-1.16.56a.93.93 0 0 1-.43.04.14.14 0 0 1-.1-.14 3.2 3.2 0 0 1 1.24-1.15 2.22 2.22 0 0 0 .35-.36l-.02-.02h-.02c-.63.4-1.37.75-2.16.9a.72.72 0 0 1-.3-.02.1.1 0 0 1-.07-.04.1.1 0 0 1-.01-.08c.07-.3.7-.63.95-.75.1-.05.1-.07-.01-.07-.42.03-.84.03-1.26 0a2.82 2.82 0 0 1-.78-.17c-.07-.03-.1-.06-.11-.1a.2.2 0 0 1 .1-.2c.12-.08.26-.14.41-.17a6.47 6.47 0 0 1 1.13-.19v-.03c0-.02 0-.02-.02-.02-.8.04-1.36.06-2-.1a1 1 0 0 1-.4-.2.14.14 0 0 1-.02-.2c.15-.19.74-.3.98-.33l.53-.06c.02 0 .03-.02.01-.04h-.03c-.45-.03-.9-.08-1.35-.17-.3-.05-.89-.16-1.11-.4a.1.1 0 0 1 0-.14c.37-.25 1.1-.22 1.58-.25-.26-.07-1.75-.5-1.63-.9.1-.36 1.42-.22 1.76-.18v-.02c-.43-.13-.85-.3-1.28-.51-.21-.1-.46-.26-.58-.41a.15.15 0 0 1-.02-.14.15.15 0 0 1 .1-.1 3.98 3.98 0 0 1 1.57.04 27.08 27.08 0 0 0 .81.14c-.3-.08-.52-.17-.67-.28a3.58 3.58 0 0 1-1.37-1.66.1.1 0 0 1 .08-.1.3.3 0 0 1 .21.04 21.94 21.94 0 0 0 1.03.5h.02v-.02c-.18-.13-.31-.25-.39-.35a6.85 6.85 0 0 1-.66-1.17.1.1 0 0 1 .03-.09.1.1 0 0 1 .09-.03c.26.05.51.26.9.5a3.31 3.31 0 0 0 .29.15l.01-.01v-.06c-.03-.05-.08-.1-.1-.17-.17-.37-.31-.74-.43-1.11a.94.94 0 0 1-.06-.33.13.13 0 0 1 .14-.13c.03 0 .05 0 .07.02l.56.34a.02.02 0 0 0 .01 0v-.01a6.38 6.38 0 0 1-.4-2.06c0-.09 0-.23.02-.44.01-.05.03-.05.05-.01l1.22 1.72h.02l.02-.01v-.02c-.11-.25-.18-.48-.22-.69a8.81 8.81 0 0 1-.19-1.6l.02-1.1c0-.15.02-.16.07-.01.04.11.1.22.16.33a67.35 67.35 0 0 1 .59.95l.01-.01v-.02a.76.76 0 0 1-.04-.25l-.07-2.35c0-.11.03-.2.1-.24a.14.14 0 0 1 .22.06c.25.75.57 1.5.95 2.23.02.03.03.03.03 0a9.61 9.61 0 0 1 1.14-3.6.74.74 0 0 1 .3-.3.06.06 0 0 1 .1.07 9.87 9.87 0 0 0-.1 3.33 9 9 0 0 0 .34 1.69l.29.94c.19.58.4 1.14.64 1.69l.89 2.03c.15.4.27.78.36 1.14.07.27.1.46.07.57-.1.54-.52.8-.75 1.26a1.99 1.99 0 0 0-.1 1.6l-1.14.6c-.13.12-.1.23-.3.3-.24.08-.45.2-.63.37a.38.38 0 0 0-.12.2v.02a.04.04 0 0 0 .04.03c.1-.01.18-.06.25-.14a.16.16 0 0 1 .05-.04c.33-.14.65-.16.96-.05l-.24.37v.02h.03l.32-.3.27.1c-.06.02-.1.06-.1.12.01.02.02.03.05.03.06-.02.1-.07.12-.15.27.12.55.23.83.32.11.04.2.1.27.17l.23.23a.2.2 0 0 0-.05.15c0 .03.01.04.04.03.04-.01.07-.05.07-.11l.14.08c-.05.03-.09.08-.1.16 0 .04-.03.06-.07.05-.02 0-.04 0-.06.02l-.05.07c-.02.02 0 .03.02.03.17-.02.28-.1.33-.24l.31.18c.03.01.04.01.05-.01v-.09c-.01-.14-.06-.2-.14-.2l-.43-.48v-.02h.03l.67.45a.1.1 0 0 0 0 .07l.04.04c.04.01.07 0 .1-.04.05 0 .1.02.15.05.02.01.04.01.07 0 .02-.01.02-.03.01-.06.04-.02.05-.05.04-.07-.1-.12-.18-.24-.24-.36l.6.16c.1.03.11 0 .05-.08l-.07-.05a57.17 57.17 0 0 1-.94-.53c.16.06.38.14.65.26.26.11.62.2 1.1.28l.2-.01c.07-.02.07-.04 0-.06a4.61 4.61 0 0 1-.99-.4.18.18 0 0 0 .03-.1l1.3.31c-.02.04.02.08.08.11.07.03.1.08.1.14 0 .03 0 .05.03.06l.17.13.02.02v.1c0 .03.02.04.04.05l.78.2c.02 0 .03 0 .02-.02l-.02-.05c0-.02-.02-.03-.04-.03a.59.59 0 0 1-.32-.15l-.08-.04a.17.17 0 0 0-.09.05c-.02.01-.04.02-.07 0-.25-.13-.4-.3-.42-.53a.9.9 0 0 1 .31-.01c.04.08.11.1.22.03a.07.07 0 0 1 .07 0 .2.2 0 0 0 .08.02c.02 0 .04-.01.03-.04a.44.44 0 0 0-.04-.1c-.01-.02-.03-.04-.05-.04-.03 0-.06 0-.09.02l-1.51-.5.05-.08.87.17c.14.02.3.02.5-.02.01.07.06.12.14.15a.1.1 0 0 0 .07 0c.2-.07.47.13.61.25l.02.01h.02c.02 0 .02-.01.01-.03a.63.63 0 0 1-.11-.17.09.09 0 0 0-.05-.06l-.75-.29a2.6 2.6 0 0 0-.16-.16.43.43 0 0 0-.2-.1c-.22-.04-.45-.08-.68-.1.02-.02.02-.04.01-.06.48-.01.93-.08 1.35-.19.34-.02.63.03.85.18.11.08.08.15-.08.22a.22.22 0 0 1-.02.01l-.67.04c-.07 0-.07.03-.01.06.08.05.16.09.23.1.02.01.04 0 .05-.02.03-.07.12-.1.27-.06a1.08 1.08 0 0 1 .64.36c.07-.1.13-.13.19-.09.08.06.16.14.23.24.01.02.04.03.08.04a.02.02 0 0 0 .02-.02.03.03 0 0 0 0-.02l-.15-.22a.09.09 0 0 0-.05-.04c-.26-.06-.5-.19-.6-.46a.8.8 0 0 0-.18-.26c-.02-.02-.02-.04 0-.06.4-.34.6-.83.53-1.37a2.04 2.04 0 0 0-.28-.87l-.44-.67c-.32-.52-.01-1.27.23-1.85.17-.43.46-1.08.87-1.94.3-.66.59-1.33.85-2.01l.37-1.16c0-.05.02-.1.05-.18l.28-1.35c.16-.93.19-1.86.08-2.79-.02-.13-.08-.33-.07-.5a.09.09 0 0 1 .14-.07c.1.07.18.16.24.28a11.22 11.22 0 0 1 1.08 3.68l.02-.01v-.01c.03-.13.1-.21.15-.3.38-.79.68-1.42.89-1.9.03-.05.08-.07.16-.03.02 0 .04.02.05.04l.02.05c.03.23.03.48 0 .74a53.14 53.14 0 0 0-.12 1.73.7.7 0 0 1-.05.2c-.03.09 0 .1.07.06.06-.04.1-.12.1-.2a.33.33 0 0 1 .15-.22 3.63 3.63 0 0 1 .4-.62c.03-.03.06-.1.1-.23l.03-.02h.03c-.02.37 0 .64-.04 1v.47c0 .08-.05.18-.05.27-.05.6-.18 1.18-.42 1.73-.03.07-.02.07.03.01l1.23-1.62c.08-.1.12-.09.11.04a7.06 7.06 0 0 1-.49 2.48c.2-.13.43-.33.68-.4a.1.1 0 0 1 .08.01.1.1 0 0 1 .04.07c0 .09-.01.18-.05.3l-.3.89c-.06.16-.14.3-.24.44-.05.07-.04.1.05.06.22-.1.44-.22.66-.37.13-.09.3-.16.45-.2a.09.09 0 0 1 .11.1.62.62 0 0 1-.07.22c-.26.46-.55.95-.94 1.23-.13.1-.12.11.03.05.33-.13.64-.28.92-.44a.51.51 0 0 1 .24-.07.09.09 0 0 1 .09.1c0 .1-.03.19-.08.28-.34.56-.76.99-1.24 1.3l-.32.2c-.06.03-.05.04 0 .03a7 7 0 0 1 1.25-.14c.27 0 .52.03.74.11a.11.11 0 0 1 .07.07.11.11 0 0 1 0 .1.58.58 0 0 1-.22.21c-.46.29-.95.5-1.49.64-.18.04-.18.07.01.06.6-.01 1-.06 1.42.14a.17.17 0 0 1 .08.23c-.18.36-1.26.63-1.6.7l-.02.01v.01c.47-.01.92.06 1.36.2l.18.1a.09.09 0 0 1 .01.14.63.63 0 0 1-.25.15c-.29.1-.56.16-.81.2-.5.07-1.03.12-1.59.14-.07 0-.1-.02-.17-.04-.03 0-.04 0 0 .02l.11.09h.03c.5-.02 1.34.06 1.7.43a.12.12 0 0 1 .02.15.3.3 0 0 1-.14.1c-.54.22-1.13.22-1.75.22-.31 0-.5 0-.72-.12l.26.17.06.02c.45.01.88.11 1.3.3.07.03.13.07.16.12.05.07.03.12-.03.16-.13.09-.3.14-.52.15-.57.04-1.12.03-1.64-.03-.1-.01-.1 0-.01.06.28.16.56.35.84.58a.5.5 0 0 1 .16.24.09.09 0 0 1-.07.1c-.32.07-.64-.04-.91-.12l-.22-.04a.38.38 0 0 1-.17-.07 3.65 3.65 0 0 1-1.34-.81l-.02.01v.03l.55.55a.1.1 0 0 0 .05.02 3.21 3.21 0 0 1 1.09 1 .15.15 0 0 1-.03.19.14.14 0 0 1-.06.03.53.53 0 0 1-.3-.01c-.5-.15-.98-.4-1.44-.77l-.03.01-.02.04.01.02c.27.22.48.46.63.71.05.1.08.22.07.35a.18.18 0 0 1-.18.16.66.66 0 0 1-.37-.1c-.11-.06-.14-.03-.09.08.04.1.06.21.06.34a.11.11 0 0 1-.06.1.11.11 0 0 1-.12 0l-.22-.16c-.03-.02-.05 0-.04.03.03.14.12.27-.03.38a.05.05 0 0 1-.07 0 .3.3 0 0 0-.1-.03c-.03 0-.04 0-.02.03.1.14.29.55.09.65a.1.1 0 0 1-.1 0 1.1 1.1 0 0 1-.5-.5c0-.03-.03-.04-.06-.03-.02.01-.03.03-.02.05.22.48.34.95.37 1.42Z" fill="#D0BF56"/><path d="m33.07 19.02-.28 1.35.03-.3c0-.03 0-.03-.01 0-.13.22-.22.75-.5.83-.09.03-.2 0-.3.11a.78.78 0 0 0-.2.39c-.03.19-.06.3-.15.44-.31.5-.52.82-.62.96-.15.2-.27.15-.44.17a.08.08 0 0 0-.06.03.08.08 0 0 0-.02.06c.03.15.04.27.04.35-.01.09-.06.19-.14.3-.17.23-.34.44-.52.63-.25.3-.37.47-.74.4a.06.06 0 0 0-.06.1c.1.2.1.39-.02.58-.07.1-.31.42-.74.95-.13.16-.24.17-.43.19a.1.1 0 0 0-.06.03c-.11.12-.23.3-.37.53-.2.33-.66.19-.6-.2a.73.73 0 0 1 .15-.28c.2-.25.26-.45.2-.62a.57.57 0 0 1 .09-.49c.31-.46.55-.77.7-.93.14-.13.29-.2.47-.2a.1.1 0 0 0 .09-.12c-.07-.25-.06-.44.13-.66l.55-.67c.19-.26.32-.35.61-.34a.07.07 0 0 0 .07-.06v-.03c-.09-.23-.05-.4.08-.62l.48-.8c.18-.3.43-.42.73-.35.1.03.18 0 .2-.1.01-.02 0-.05-.02-.1-.13-.16-.12-.34-.03-.54.14-.33.3-.66.47-1 .1-.21.34-.33.24-.58-.04-.1-.2-.13-.25-.2a4.98 4.98 0 0 1-.37-.75.11.11 0 0 0-.07-.02h-.92c-.22 0-.34-.11-.35-.33v-.02c0-.22.1-.33.3-.33l.76-.01c.02 0 .03-.01.04-.04.06-.38.28-.6.68-.67.28-.04.5.09.63.4.18.39.31.72.4 1 .08.26.03.48-.14.69a.12.12 0 0 0-.03.07c-.01.12 0 .27.02.46.01.08.07.12.12.16l.05.06c.03.05.07.1.11.12Z" fill="#B33B3C"/><path d="M32.39 17.53a.3.3 0 0 0-.32.18c-.03.1-.07.11-.1.01l-.07-.15v-.07c0-.02.02-.03.04-.04.24-.11.31-.29.22-.53-.09-.23-.24-.16-.43-.17a.06.06 0 0 1-.05-.03.06.06 0 0 1 0-.07c.1-.11.22-.16.36-.16a.1.1 0 0 1 .07.03c.06.05.1.12.14.2a32.8 32.8 0 0 1 .33.78l-.02.02H32.39Z" fill="#217152"/><path d="M23.75 20.77a9 9 0 0 1-.35-1.69h3.95a.1.1 0 0 0 .1-.1l.05-2.16a.07.07 0 0 1 .02-.04.06.06 0 0 1 .05-.02l1.54.03c.01 0 .03 0 .04.02l.01.04-.04 2.15a.1.1 0 0 0 .09.1H31.62l.02.02v.05c-.12.28-.22.52-.32.7a.81.81 0 0 0-.03.71.04.04 0 0 1-.02.06h-.03c-.2-.05-.44.03-.59.04-.29.02-.73.02-1.32 0l-2.21.01c-.82.01-1.58-.03-2.4-.02l-.93-.01c-.04 0-.06.03-.04.1Z" fill="#B33B3C"/><path d="M31.96 19.89a.45.45 0 0 1-.1.08c-.06.02-.07.01-.05-.04l.31-.72.01-.01.02-.01a.04.04 0 0 1 .04.01c.02.03.03.06.03.1-.02.2.08.33.3.37.05 0 .06.04.04.09l-.08.2a.08.08 0 0 1-.13.03.48.48 0 0 0-.33-.13.1.1 0 0 0-.06.03Z" fill="#217152"/><path d="m32.74 20.55-.37 1.16-.5.16a.05.05 0 0 1-.06-.04v-.03c.04-.08.09-.17.09-.27 0-.29.13-.48.38-.58.13-.04.22-.1.26-.14.08-.07.14-.15.2-.26ZM27.31 25.36c-.04-.09-.02-.11-.02-.19a743.16 743.16 0 0 1 0-2.5.14.14 0 0 0-.08-.05l-3.18-.91-.29-.94c.03.05.07.06.13.05l.13-.03c.57 0 .98-.07 1.38.12a617.6 617.6 0 0 0 2.89 1.28c.04 0 .07-.01.1-.03l1.72-.75c.1-.04.13-.01.08.09-.15.28-.38.54-.33.91l-.01.06a.09.09 0 0 1-.06.04c-.23.04-.32.07-.48.26l-.55.68c-.14.17-.22.3-.23.37a2.15 2.15 0 0 0-.02.46h-.01l-.3.1c-.15.05-.18.16-.26.26l-.6.72Z" fill="#B33B3C"/><path d="M30.99 21.45c.01.12.08.22.2.3.02 0 .04.02.05.04l.02.04v.03l-.24.36c0 .01 0 .01 0 0 .02-.3-.13-.44-.44-.44h-.01l-.01-.01v-.02c.2-.3.29-.53.46-.58a.03.03 0 0 1 .03 0l.01.02v.02c-.02.08-.08.14-.07.24ZM29.9 23.7c.02 0 .03.01.01.02a1.7 1.7 0 0 0-.22.3c-.06.1-.14.16-.25.24-.01.01-.02 0 0 0 .23-.32.23-.51-.18-.64a.05.05 0 0 1-.03-.03.05.05 0 0 1 .01-.04l.22-.22a.04.04 0 0 1 .07.02c.03.11.1.22.18.3.02.02.04.03.07.03.04 0 .08 0 .13.02Z" fill="#217152"/><path d="M29.46 29.59c-.3.17-.63.22-1.02.13-.07-.02-.09-.06-.06-.12l.11-.28c.05-.13.03-.15-.08-.06l-.79.65h-.02l-.01-.04v-.01c.36-.27.91-.73.92-1.2 0-.11-.03-.12-.1-.04-.29.4-.68.71-1.17.93l.02-2.09c0-.03.02-.04.04-.05a.5.5 0 0 0 .17-.13c.14-.18.26-.37.38-.57.06-.1.23-.07.31-.1a.74.74 0 0 0 .29-.18c.37-.47.6-.77.7-.92a.8.8 0 0 0 .1-.58c-.02-.04 0-.07.05-.06h.04c.04.02.05.04.05.08l.07 4.64Z" fill="#B33B3C"/><path d="M28.43 25.5a.2.2 0 0 1 .09 0c.03.02.03.04.01.06l-.11.15c-.03.04-.06.04-.09 0-.2-.2-.36-.28-.48-.23-.05.02-.06 0-.03-.03l.22-.29a.05.05 0 0 1 .06-.02.05.05 0 0 1 .03.05c.01.13.09.23.23.3l.07.01Z" fill="#217152"/><path d="m29.45 29.59.2-.12c.02-.02.04-.01.04.01.04.15-.12.33-.24.4l-.54.17-.49.06v.02l.01.03a10 10 0 0 0 1.5.01l.14-.03c.17-.02.18.02.04.1l-.3.18c-.42.11-.87.18-1.35.2l-.87-.07-.01.03v.02c.3.06.58.08.87.06.23.03.45.07.68.12.07.01.14.05.2.1l.16.15.03.14c-.18.04-.35.04-.49.02a85 85 0 0 1-1.35-.25c-.03 0-.03 0 0 .01l.43.16 1.5.49a.36.36 0 0 1-.2.1.9.9 0 0 0-.32.02.52.52 0 0 0-.2-.04l-1.3-.3a.84.84 0 0 0-.36-.14c-.03 0-.04 0 0 .02l.33.22c.32.17.65.3.98.39.08.02.08.04 0 .06a.47.47 0 0 1-.2 0 4.79 4.79 0 0 1-1.09-.27 9.22 9.22 0 0 0-.65-.26 56.76 56.76 0 0 0 1.01.58c.06.08.04.1-.05.08l-.6-.16-.54-.22h-.03v.01a.02.02 0 0 0 .01.02l.76.62c.01.03 0 .05-.01.06a.06.06 0 0 1-.07 0 .46.46 0 0 0-.16-.05c-.04-.08-.08-.1-.13-.07l-.67-.45h-.02l-.01.02.43.49c.04.1.09.17.15.2v.08c-.02.02-.03.02-.06.01l-.3-.18-.08-.09-.14-.08a.11.11 0 0 0-.07-.07 2.9 2.9 0 0 0-.22-.23.76.76 0 0 0-.27-.17 15.86 15.86 0 0 1-.9-.33l-.27-.1-.11-.08c-.31-.1-.63-.1-.96.05a.15.15 0 0 0-.05.04.37.37 0 0 1-.25.14.04.04 0 0 1-.04-.04.38.38 0 0 1 .12-.2c.18-.17.39-.3.63-.38.2-.07.17-.18.3-.3a26.04 26.04 0 0 1 .4-.33l.75-.27c.44-.1.83-.3 1.15-.6.03-.03.06-.02.07.02.03.1.08.2.15.3.02.02.04.03.06.02l.66-.19c.49-.22.88-.53 1.17-.93.07-.08.1-.07.1.03-.01.48-.56.94-.92 1.2V29.92h.03l.8-.65c.1-.09.12-.07.07.06l-.11.28c-.03.06 0 .1.06.12.38.09.72.04 1.01-.13Z" fill="#DDD7CF"/><path d="M26.02 30.59v.03a6 6 0 0 0-.92.12.93.93 0 0 0-.33.2c-.11.1-.35 0-.47-.03-.02 0-.03-.02-.02-.04.04-.08.08-.12.14-.13a19.04 19.04 0 0 1 1.6-.15Z" fill="#217152"/><path d="M35.49 36.02a.04.04 0 0 0 0-.05l-1.46-.8c-.12-.06-.11-.11.02-.14.9-.2 1.67-.61 2.32-1.24.2-.2.43-.46.68-.79.11-.14.17-.32.27-.45.12-.16.18-.14.19.06l.15 4.24v.03a.05.05 0 0 1-.06.02l-.03-.01-.7-.7a.05.05 0 0 0-.06 0l-.02.02a4.1 4.1 0 0 1-1.8 2.05c-.16.08-.43.22-.83.4-.08.04-.15.02-.2-.06l-.16-.2c-.05-.08-.04-.14.05-.19.16-.09.3-.14.5-.27l.28-.16c.28-.14.44-.3.66-.55.1-.1.08-.1-.03-.04-.34.21-.68.43-1.05.52a9.66 9.66 0 0 1-1.04.17.06.06 0 0 1-.05-.05 1.99 1.99 0 0 0-.34-.61c-.02-.03-.01-.04.02-.05 1-.1 1.94-.5 2.69-1.15Z" fill="#B33B3C"/><path d="M25.83 37c.03.07.07.08.12.06.05.11.1.27.2.34l.07.06c.01.02 0 .03-.01.03h-2.15l-.01.01a.02.02 0 0 0-.01.02v.01c.37.39.96.53 1.52.72.64.2 1.06.32 1.43.78.28.37.48.6.58.73a1.65 1.65 0 0 0 .66.47l.03-.01a.06.06 0 0 0 .03-.05l.08-4.16c0-.09.01-.09.03 0l.08.28c-.15.5-.05.85.3 1.07h.01a.03.03 0 0 0 .02-.01v-.02c-.02-.18.04-.32.18-.41a.1.1 0 0 0 .04-.06l.01-.02c.01-.04.03-.04.05-.01.04.05.08.1.1.17 0 .17.06.33.13.47l.02.02a.06.06 0 0 0 .09-.01l.16-.26c.05-.13.04-.3.1-.43.02-.06.05-.06.08 0 .06.13.15.2.28.24.03 0 .04.02.03.05l-.1.41a.03.03 0 0 0 .04.04c.26-.1.4-.3.41-.6l.02-.4.05-.17c0-.03.01-.03.02 0l.1.3c.01.15.05.3.11.44.01.02.03.03.06.03l.3.03c.03 0 .05.02.06.04.03.08.06.2.11.28a185.92 185.92 0 0 1 .37.57v.03a.06.06 0 0 1-.05.03c-.79.19-1.6.55-2.2 1.12-.17.16-.37.52-.27.75.18.42 1.27-.3 1.68-.53.24-.14.41-.23.54-.26a122.34 122.34 0 0 0 1.13-.44v-.08a.08.08 0 0 0-.01-.06.09.09 0 0 0-.06-.03c-.2-.02-.36-.05-.47-.2l-.57-.94c-.16-.27-.22-.48.01-.7.06.08.12.14.18.18a.08.08 0 0 0 .08 0 .08.08 0 0 0 .05-.05.76.76 0 0 0 0-.37c-.03-.1 0-.12.07-.03.05.07.12.13.22.17.08.04.15-.02.2-.2a5.04 5.04 0 0 1 .99 1.56c.33.04.47.19.62.46a1 1 0 0 0 .16.21l.16.22c.01.04.07.11.15.23.1.12.14.3.1.44-.02.03-.02.06-.03.1 0 .03.01.04.04.05.2.03.36.16.5.39l.45.78c.29.52-.17.86-.62.96-.3.06-.5-.24-.63-.49a44.3 44.3 0 0 1-.43-.8c-.06-.1-.06-.23-.01-.39a.03.03 0 0 0 0-.02.03.03 0 0 0-.02-.01c-.15-.04-.22-.02-.32-.16a164.56 164.56 0 0 0-.66-.83.06.06 0 0 0-.05.02l-.04.03a5.16 5.16 0 0 0-3.95 2.84.05.05 0 0 0 .03.05h.03l.87-.05c.08 0 .2-.03.34-.07.13-.04.26-.06.38-.06.06 0 .12-.01.19-.05a3.22 3.22 0 0 1 .76-.16c.02 0 .04-.01.05-.03.17-.16.38-.13.57-.23a.91.91 0 0 1 .27-.09.1.1 0 0 0 .06-.03c.04-.05.1-.09.15-.11l.85-.4a.11.11 0 0 1 .14.04c.08.13.11.26.1.41 0 .03.01.05.03.07.09.1.16.24.22.43 0 .02.02.04.04.05.04.02.08.06.1.11.06.1.11.2.09.3 0 .03-.02.05-.04.06-.55.3-.97.5-1.27.61l-.19.09a71.64 71.64 0 0 1-1.64.54.82.82 0 0 1-.41.04l-.07.01c-.1.06-.26.1-.47.14-.39.06-.76.1-1.13.13-.03 0-.05 0-.07-.02-.04-.05-.07-.12-.06-.21.01-.27 0-.52-.04-.76l-.03-.25c0-.13.01-.23-.07-.32l-.21-.33c-.7-1.17-1.78-2-3.1-2.42l-1.45-.45c-.35-.1-.62-.23-1.02-.4a6.8 6.8 0 0 1-2.75-2.24.08.08 0 0 0-.07 0l-.03.01-.78.65a.05.05 0 0 1-.05 0 .05.05 0 0 1-.02-.04l.21-4.5c0-.03.02-.04.05-.04.1 0 .15.04.16.13l.03.06c.15.2.27.39.36.55a4.52 4.52 0 0 0 2.9 1.73.06.06 0 0 1 .01.07l-.02.03-1.3.91a.12.12 0 0 0-.04.14l.03.04c.36.4.75.6 1.29.75a6 6 0 0 0 1.94.18 65 65 0 0 0 1.34-.1Z" fill="#B33B3C"/><path d="M26.63 33.24c.2.04.44.02.79 0 .08 0 .14.02.19.08l.5.6c.02.03.02.05-.03.05h-.9c-.03 0-.05 0-.06-.02l-.54-.61c-.06-.08-.05-.11.05-.1ZM29.13 33.23l.93.01a.03.03 0 0 1 .02.04v.01l-.7.69h-.01l-.93-.01h-.01l-.01-.02a.03.03 0 0 1 0-.03l.7-.69h.01Z" fill="#217152"/><path d="M19.9 33.77c.24.42.6.7 1.05.87.3.1.64.19.77.33a.13.13 0 0 1-.03.2c-.3.19-.8.17-1.16.13-.38-.03-.66-.18-.85-.52-.2-.38-.4-.95-.23-1.35a.1.1 0 0 1 .08-.06.1.1 0 0 1 .1.03c.12.15.2.27.26.37Z" fill="#D0BF56"/><path d="M28.35 35.27a.04.04 0 0 1-.03.01.04.04 0 0 1-.03-.01l-.64-.76v-.04a1 1 0 0 1 .36-.24h.37c.23 0 .32.12.49.21.03.02.03.04.01.06l-.53.77Z" fill="#B33B3C"/><path d="M26.33 37.04c-.01.15 0 .31.07.47-.03.03-.07.04-.12.02a1.12 1.12 0 0 0-.38-.03l.3-.01c.03 0 .03 0 .02-.03a.34.34 0 0 0-.07-.06c-.1-.07-.15-.23-.2-.34a.62.62 0 0 1 .03-.36v-.07c-.03-.26.07-.43.32-.5.02-.01.03-.03.03-.05l.01-.38a.08.08 0 0 1 .04-.06.08.08 0 0 1 .08 0c.08.06.18.09.29.09a31210432498.76 31210432498.76 0 0 1 .08.04l.96.14c.03 0 .04.03.04.05v.17c0 .02 0 .04.02.06.15.19.13.36.11.6-.01.27-.1.42-.34.55h-.03a.05.05 0 0 1-.04-.02v-.24c0-.08-.04-.12-.09-.12-.02 0-.04 0-.06-.03a.7.7 0 0 1-.08-.63c0-.02 0-.03-.03-.04h-.02l-.01.03c.01.17.05.37-.04.53a.14.14 0 0 0-.01.07 1.13 1.13 0 0 1-.18.6.04.04 0 0 1-.04.01l-.02-.01a.9.9 0 0 1-.2-.53.07.07 0 0 0-.05-.06.15.15 0 0 1-.07-.07c-.01-.04-.02-.04-.03 0-.04.14-.14.21-.29.21ZM30.45 36.54l-.02.4c0 .3-.15.5-.41.59h-.04a.03.03 0 0 1 0-.04l.1-.4c.01-.04 0-.06-.03-.06a.38.38 0 0 1-.28-.24c-.03-.06-.06-.06-.09 0-.05.14-.04.3-.1.43-.03.08-.08.17-.15.26l-.03.02a.06.06 0 0 1-.08-.03c-.07-.14-.12-.3-.14-.47 0-.07-.05-.12-.09-.17-.02-.03-.04-.03-.05 0v.03a.1.1 0 0 1-.05.06c-.14.09-.2.23-.17.41a.03.03 0 0 1-.04.03c-.35-.22-.45-.57-.3-1.07 0-.03.01-.06.04-.1a.08.08 0 0 0 .03-.05v-.2c0-.02.01-.03.03-.03a5.15 5.15 0 0 0 1.04-.13c.08 0 .16-.03.26-.07a.1.1 0 0 1 .15.1v.23c0 .03.01.05.04.05.22.04.35.2.38.45Z" fill="#DDD7CF"/><path d="M32.29 37.3a.1.1 0 0 0-.1-.09h-.49c-.06 0-.08-.03-.06-.09a.48.48 0 0 1 .17-.2c.05-.04.1-.05.17-.05.07.02.13.06.19.14a17.8 17.8 0 0 0 .24.4c-.07 0-.11-.04-.12-.11Z" fill="#217152"/><path d="M26.4 37.51a1.08 1.08 0 0 1-.07-.47h.16c.07-.06.1-.04.08.06l-.06.34a.07.07 0 0 1-.04.05.26.26 0 0 1-.07.02Z" fill="#B33B3C"/><path d="M31.95 37.58a.73.73 0 0 0 .06-.07c.05-.08.13-.12.22-.1-.1 0-.2.12-.26.35-.01.04-.02.04-.04 0a.93.93 0 0 0-.19-.3v-.06h.03c.06.05.1.1.1.16a.04.04 0 0 0 .04.03.04.04 0 0 0 .04 0ZM33.65 39.18a.57.57 0 0 0-.3.17l-.02.01h-.03l-.4-.48-.01-.02a.04.04 0 0 1 .04-.04h.03c.03 0 .05.01.06.03.09.17.32.32.46.11l.08-.11.03-.02a.08.08 0 0 1 .09.03l.3.48a.04.04 0 0 1 0 .04v.03c-.02.04-.04.05-.07.01a5.22 5.22 0 0 0-.2-.24.1.1 0 0 0-.06 0ZM34.76 40.63c.13.15.4.57.2.75-.3.26-.54-.04-.65-.3a.06.06 0 0 1 0-.06.06.06 0 0 1 .06-.03c.2 0 .3-.12.34-.34a.03.03 0 0 1 .03-.02h.02Z" fill="#217152"/><path d="M23.99 41.2a.13.13 0 0 0 .13.07c.15-.02.3 0 .43.08l.14.12c.13.1.25.07.38.14a6.19 6.19 0 0 0 .21.08.31.31 0 0 1 .23.02c.17.1.33.13.5.12a.7.7 0 0 1 .26.09c.1.04.19.06.28.07l.34.02c.16 0 .28.1.39.15h.06c.14-.06.2-.1.35-.08.27.03.44.16.5.4.03.07.02.22 0 .43-.02.17-.04.32-.04.45a.47.47 0 0 1-.56.46.49.49 0 0 1-.36-.24.06.06 0 0 0-.07-.03l-.03.02-.12.1a.13.13 0 0 1-.07.03c-.26.02-.54-.01-.84-.1-.23-.08-.46-.05-.68-.2a.1.1 0 0 0-.06-.02.8.8 0 0 1-.6-.16.1.1 0 0 0-.06-.03c-.06 0-.15-.02-.28-.05-.1-.03-.13-.09-.18-.16a.07.07 0 0 0-.06-.04c-.35.02-.48-.1-.66-.38a.05.05 0 0 0-.06-.03c-.18.02-.3.05-.44-.03l-.4-.24a.1.1 0 0 1-.04-.13l.64-1.3a.12.12 0 0 1 .12-.06c.02 0 .03 0 .05.02.19.1.5.24.6.42Z" fill="#B33B3C"/><path d="M23.25 40.97a.1.1 0 0 1 .13-.05l.31.14c.1.04.17.1.2.19.05.08.05.17.02.24l-.34.77a.25.25 0 0 1-.08.09.3.3 0 0 1-.11.06.4.4 0 0 1-.14 0 .46.46 0 0 1-.14-.03l-.31-.14a.1.1 0 0 1-.06-.1.1.1 0 0 1 0-.03l.52-1.14ZM33.37 42.09l.2-.12c.06-.03.1-.02.13.05l.02.06c.03.05.01.1-.05.13l-.5.27a.06.06 0 0 1-.07-.01l-.01-.02-.52-1.18a.06.06 0 0 1 .03-.08l.48-.27c.05-.02.09-.01.11.04l.05.1c.02.06 0 .1-.06.13l-.21.1c-.03 0-.04.03-.03.06l.09.2a.05.05 0 0 0 .03.02.05.05 0 0 0 .05 0l.2-.14a.04.04 0 0 1 .02 0 .04.04 0 0 1 .03 0c.05.08.07.16.06.24 0 .03-.01.04-.03.05l-.19.08a.06.06 0 0 0-.03.04v.06l.13.17c.02.03.04.03.07.02Z" fill="#D0BF56"/><path d="M23.47 41.28a.03.03 0 0 1 .02-.01.03.03 0 0 1 .02 0h.01a.12.12 0 0 1 .07.07.14.14 0 0 1-.01.1l-.27.62a.15.15 0 0 1-.08.08.12.12 0 0 1-.1 0 .03.03 0 0 1-.02-.05l.36-.8Z" fill="#B33B3C"/><path d="M32.42 41.99a8.38 8.38 0 0 0-.22-.62.07.07 0 0 1 .03-.04l.16-.06c.05-.02.09 0 .1.05l.47 1.2a.06.06 0 0 1 0 .04.05.05 0 0 1-.03.03l-.2.08a.1.1 0 0 1-.13-.05l-.35-.5c-.1-.14-.12-.13-.06.03l.23.6c.01.03 0 .04-.01.06l-.18.12a.03.03 0 0 1-.06-.01l-.49-1.26c-.02-.06 0-.1.06-.13l.17-.07c.06-.02.1 0 .14.05l.31.5c.1.15.11.14.06-.02ZM24.41 42.6a.35.35 0 0 1-.45.21l-.09-.03a.35.35 0 0 1-.2-.45l.27-.72a.35.35 0 0 1 .45-.21l.08.03a.35.35 0 0 1 .21.46l-.27.72ZM32 43l-.2.08a.05.05 0 0 1-.05 0l-.02-.01v-.02l-.42-1.32a.05.05 0 0 1 .02-.06l.21-.08a.05.05 0 0 1 .04 0l.02.01v.02l.42 1.32A.05.05 0 0 1 32 43ZM24.93 42.38c-.02-.05-.04-.04-.05 0l-.17.65c0 .05-.04.07-.09.06l-.1-.03a.08.08 0 0 1-.06-.1l.32-1.27a.08.08 0 0 1 .04-.04.08.08 0 0 1 .06-.01l.15.04a.1.1 0 0 1 .06.04c.02.02.02.05.02.08-.02.27-.03.51-.02.71.01.12.03.12.06 0l.17-.65c0-.04.03-.05.07-.04l.18.04c.04.01.05.04.04.08l-.33 1.29c-.01.04-.04.06-.09.04l-.2-.07c-.05-.02-.08-.05-.08-.1a97.26 97.26 0 0 1 .02-.72Z" fill="#D0BF56"/><path d="M24.33 41.67a.08.08 0 0 0-.1.04l-.27.76c-.02.04 0 .09.04.1.05.02.09 0 .1-.05l.27-.75a.08.08 0 0 0-.04-.1Z" fill="#B33B3C"/><path d="m31.32 42.46.08.04a.1.1 0 0 1 .04.06l.14.53a.07.07 0 0 1-.05.08l-.16.04c-.05.02-.09 0-.1-.06l-.12-.45a.08.08 0 0 0-.07-.06h-.04c-.05 0-.07.02-.06.07l.14.54-.01.02-.25.1a.04.04 0 0 1-.03 0h-.01l-.01-.02-.35-1.33c-.02-.05 0-.08.05-.1l.53-.13a.13.13 0 0 1 .14.04c.11.14.17.27.18.41 0 .07-.02.11-.06.14-.09.05-.08.07.02.08ZM25.8 43.07c0 .14.05.16.15.06l.02-.12c.02-.14-.13-.16 0-.35.01-.03.03-.04.06-.03l.25.06.03.03v.03l-.1.7c0 .02-.02.04-.05.04-.09 0-.15-.03-.19-.06a.09.09 0 0 0-.06-.03c-.24 0-.48.03-.44-.31.05-.43.1-.73.17-.91.06-.19.21-.24.39-.2.2.04.26.03.36.2.02.03.03.06.02.1l-.02.23c0 .04-.01.05-.05.04l-.2-.05c-.04 0-.06-.03-.05-.07l.01-.14c0-.02 0-.04-.03-.06a.07.07 0 0 0-.06 0 .07.07 0 0 0-.05.04c-.09.33-.14.6-.15.8ZM30.27 43.2c-.1.02-.15.07-.13.17.02.06 0 .1-.06.13l-.16.07c-.05.03-.08 0-.08-.05v-1.4a.04.04 0 0 1 .03-.04l.3-.06a.06.06 0 0 1 .06.04l.48 1.23c.02.04 0 .06-.03.08l-.18.07c-.04.01-.06 0-.08-.03l-.09-.18a.06.06 0 0 0-.02-.03h-.04Z" fill="#D0BF56"/><path d="M30.89 42.07h-.01a.07.07 0 0 0-.04.1l.08.2c.01.03.05.05.09.03a.07.07 0 0 0 .05-.09l-.09-.2a.07.07 0 0 0-.08-.04Z" fill="#B33B3C"/><path d="M26.5 42.12a.03.03 0 0 1 .02-.02l.38.04c.1 0 .19.06.25.13.06.08.08.18.07.28l-.07.7a.39.39 0 0 1-.13.25.36.36 0 0 1-.27.09l-.37-.04a.03.03 0 0 1-.03-.02v-.01l.14-1.4ZM29.19 42.84l-.03-.62a.05.05 0 0 1 .03-.04h.02l.4-.02c.02 0 .03.01.03.04l.1 1.31c.01.06-.01.09-.07.1l-.14.02c-.05.01-.07 0-.07-.05l-.03-.93-.02-.02h-.02v.01l-.09.96c0 .03-.02.05-.05.05l-.14.03c-.03 0-.05 0-.06-.04l-.14-.8h-.02l-.03.01a.04.04 0 0 0-.01.04l.05.74c0 .03 0 .05-.04.05l-.17.01c-.04 0-.06-.01-.06-.05l-.1-1.32c-.01-.06.02-.1.08-.1l.34.01a.09.09 0 0 1 .08.09c.01.18.05.36.13.53.02.03.03.03.03 0ZM28.05 43.38a.32.32 0 0 1-.33.3h-.15a.31.31 0 0 1-.3-.33l.02-.81a.31.31 0 0 1 .32-.31h.15a.32.32 0 0 1 .3.33l-.01.82Z" fill="#D0BF56"/><path d="M26.85 42.37a.08.08 0 0 0-.1.07l-.1.82c-.01.04.02.08.07.1.05 0 .09-.03.1-.08l.1-.82a.08.08 0 0 0-.07-.09ZM30.15 42.97h-.01v-.01l-.01-.03a4.54 4.54 0 0 1-.04-.52c0-.02 0-.04.02-.04l.03.04.04.11a2.74 2.74 0 0 1 .08.4v.01a.02.02 0 0 1-.01.02l-.1.02ZM27.7 42.47h-.05a.05.05 0 0 0-.05.04l-.02.87c0 .02.02.04.05.04h.06c.02 0 .04-.02.05-.04v-.87a.05.05 0 0 0-.04-.04Z" fill="#B33B3C"/></svg>