<!-- by TradingView --><svg width="56" height="56" viewBox="0 0 56 56" xmlns="http://www.w3.org/2000/svg"><path fill="#F0F3FA" d="M0 0h56v56H0z"/><path d="m40.8 23.08 5.18 9.73a.14.14 0 0 1 0 .12l-5.15 10a.14.14 0 0 1-.12.07H30.26a.14.14 0 0 1-.12-.08l-3-5.85A.14.14 0 0 0 27 37h-6.86a.14.14 0 0 1-.1-.04c-.03-.03-.05-.07-.05-.1v-3.72c0-.04 0-.07-.03-.1a.14.14 0 0 0-.1-.04h-4.64a.14.14 0 0 1-.12-.08L10 23.18a.14.14 0 0 1 0-.13l5.15-9.97a.14.14 0 0 1 .12-.08h10.3a.14.14 0 0 1 .12.08l3.04 5.84a.14.14 0 0 0 .12.08h7.01c.04 0 .07.01.1.04s.03.06.03.1v3.72c0 .04.03.08.05.1.03.03.06.04.1.04h4.53a.14.14 0 0 1 .12.08ZM19.9 32a.1.1 0 0 0 .08-.03c.02-.02.02-.04.02-.07V19h7.63a.1.1 0 0 0 .09-.05.1.1 0 0 0 0-.1l-2.49-4.8a.1.1 0 0 0-.04-.04l-.05-.01h-9.46a.1.1 0 0 0-.04.05l-4.73 9a.1.1 0 0 0 0 .1l4.68 8.8a.1.1 0 0 0 .1.05h4.21ZM35 20.1a.1.1 0 0 0-.03-.08.1.1 0 0 0-.07-.02h-5.36a.1.1 0 0 0-.08.04.1.1 0 0 0 0 .1l1.16 2.81a.1.1 0 0 0 .08.05h4.2a.1.1 0 0 0 .07-.02.1.1 0 0 0 .03-.07v-2.82Zm-9.77 11.73 4.42-7.85a.42.42 0 0 0 0-.4l-1.42-3.2a.36.36 0 0 0-.31-.19l-6.72.02c-.05 0-.1.02-.13.06a.19.19 0 0 0-.05.13v11.38a.16.16 0 0 0 .1.14l.06.01h3.87a.2.2 0 0 0 .18-.1ZM36.1 24a.11.11 0 0 0-.08.03.12.12 0 0 0-.03.08v12.8c0 .02-.06.05-.08.07-.02.02-.05.02-.08.02h-7.37l-.05.03a.11.11 0 0 0-.06.1l.01.06 2.36 4.73.05.05c.01 0 .03.03.06.03h9.3c.02 0 .04-.02.05-.03a.11.11 0 0 0 .05-.05l4.63-8.98a.12.12 0 0 0 0-.1l-4.64-8.78a.11.11 0 0 0-.1-.06h-4.02Zm-1.11.54a.2.2 0 0 0-.06-.14.2.2 0 0 0-.14-.06h-3.94a.2.2 0 0 0-.17.11l-4.49 7.97a.2.2 0 0 0 0 .18l1.49 3.16a.2.2 0 0 0 .17.1h6.94a.2.2 0 0 0 .14-.05.2.2 0 0 0 .06-.14V24.54ZM21 35.9c0 .03.01.06.03.08a.1.1 0 0 0 .08.03h5.2a.1.1 0 0 0 .1-.05.1.1 0 0 0 0-.1l-1.18-2.8a.1.1 0 0 0-.1-.05h-4.02a.1.1 0 0 0-.08.03.1.1 0 0 0-.03.07v2.8Z"/><path d="m16.66 31.3-.42.2a.2.2 0 0 1-.2-.02.19.19 0 0 1-.05-.06l-4.2-7.92a.18.18 0 0 1 0-.17l4.41-8.23a.19.19 0 0 1 .17-.1h8.42c.05 0 .1.02.14.05.03.04.07.09.07.14v.6l-.03.07a.19.19 0 0 1-.1.1c-.03 0-.05.04-.08.04h-7.98c-.04 0-.07-.02-.1 0a.19.19 0 0 0-.07.07l-3.88 7.26a.18.18 0 0 0 0 .17l3.98 7.54a.18.18 0 0 1-.08.25Z"/><path d="M25.2 31.9a.2.2 0 0 1-.17.1h-3.87a.15.15 0 0 1-.1-.05.16.16 0 0 1-.05-.1L21 20.2c0-.05.02-.1.05-.13a.18.18 0 0 1 .13-.06L27.9 20a.35.35 0 0 1 .31.2l1.5 3.28a.43.43 0 0 1 0 .4l-4.5 8.01Z" fill="red"/><path d="M35 24.2v11.6a.2.2 0 0 1-.06.14.2.2 0 0 1-.14.06h-7.06a.2.2 0 0 1-.18-.1l-1.39-3.31a.2.2 0 0 1 0-.19l4.48-8.3a.2.2 0 0 1 .18-.1h3.97c.05 0 .1.02.14.06a.2.2 0 0 1 .06.14Z" fill="#00F"/><path d="M39.87 24.9 44 32.75a.17.17 0 0 1 0 .16l-4.26 8.01a.18.18 0 0 1-.07.07c-.02.02-.06.01-.09.01h-8.4c-.05 0-.1 0-.13-.04a.17.17 0 0 1-.05-.12v-.67c0-.04.02-.09.05-.12a.18.18 0 0 1 .13-.05h7.9a.18.18 0 0 0 .17-.1l3.72-6.99a.17.17 0 0 0 0-.16l-3.95-7.39a.17.17 0 0 1 .07-.23l.54-.3a.18.18 0 0 1 .24.07Z"/></svg>