<!-- by TradingView --><svg width="56" height="56" viewBox="0 0 56 56" xmlns="http://www.w3.org/2000/svg"><path fill="#F0F3FA" d="M0 0h56v56H0z"/><path d="M14.57 15.77a.05.05 0 0 1-.02.07c-.95.22-1.79.03-2.51-.59-.03-.02-.03-.04 0-.06.97-.46 1.78-.02 2.53.58ZM14.67 15.09c1.16-.23 1.89.4 2.55 1.23a.04.04 0 0 1 0 .03.04.04 0 0 1-.02.03 2.96 2.96 0 0 1-2.55-1.22c-.03-.04-.02-.06.02-.07ZM11.84 15.6h.02a.04.04 0 0 1 0 .05l-.01.01a2.5 2.5 0 0 1-2.37.12c-.04-.01-.04-.03 0-.06.73-.64 1.56-.47 2.36-.13ZM17.29 15.49c1.2.13 1.72.97 2.13 1.99a.04.04 0 0 1-.02.05h-.02a3.09 3.09 0 0 1-2.14-1.98c-.02-.05 0-.07.05-.06ZM14.55 16.15a.04.04 0 0 1 .03.03.04.04 0 0 1-.01.04c-.66.57-1.4.77-2.2.6-.04-.02-.05-.04-.03-.06.57-.76 1.39-.76 2.2-.6ZM8.03 17.09a.04.04 0 0 1-.03-.02.04.04 0 0 1 0-.04c.56-.61 1.22-.88 2-.8.03 0 .04.01.02.04-.45.77-1.2.87-1.99.82ZM12.1 16.28h.02a.04.04 0 0 1 .01.05v.01a2.3 2.3 0 0 1-2.07.7c-.03 0-.04-.02-.02-.05.5-.75 1.27-.8 2.06-.71ZM16.97 16.74a.04.04 0 0 1 .02.04v.02l-.02.02a2.6 2.6 0 0 1-2.46 0c-.03-.01-.04-.03 0-.06.79-.63 1.64-.4 2.46-.02ZM19.65 16.61c1.1.55 1.33 1.53 1.39 2.65v.02a.04.04 0 0 1-.06.01 3.21 3.21 0 0 1-1.4-2.63c0-.05.02-.07.07-.05ZM16.58 17.4c.95-.48 1.79-.07 2.55.52a.05.05 0 0 1 .02.04l-.01.03h-.02c-.96.25-1.8.08-2.55-.52-.03-.03-.03-.05 0-.07Z" fill="#FFB500"/><path d="m18.62 35.01-1.07 1.14c-.08.1-.07.12.05.06.37-.19.74-.4 1.1-.64.8-.44 1.46-.91 1.95-1.43a13.58 13.58 0 0 0 3.67-7.27c.34-2 .38-4.05.11-6.16a75.59 75.59 0 0 0-.43-3.1c0-.02 0-.03.03-.01l.03.02c.35 1.32.61 2.7.79 4.15.6 5.04-.79 10.75-5 13.86a11.67 11.67 0 0 1-6.9 2.3L9.18 38c-.04 0-.06-.02-.04-.06 1.8-3.9 2.15-8.06 1.05-12.21-.14-.52-.43-1.25-.54-1.65-.01-.06 0-.08.06-.08h.8c.05 0 .08.02.1.08a29.92 29.92 0 0 1 0 12.73.04.04 0 0 0 .03.01h.59c.02 0 .04 0 .04-.03.34-4.22.34-8.56 0-12.76 0-.02 0-.03.02-.03h.96c.03 0 .04.01.04.04l-.13 1.84c-.22 3.68-.18 7.4.14 10.87 0 .05.03.08.08.08h.5a.07.07 0 0 0 .07-.06v-.03a29.86 29.86 0 0 1 .03-12.73L13 24h.9l.02.01a.03.03 0 0 1 0 .03 17.92 17.92 0 0 0-.06 12.64c.03.1.1.14.2.13 3.4-.26 5.54-3.56 6.16-6.66.4-2 .33-3.95-.08-5.94 0-.02 0-.03.02-.03.02-.01.03 0 .03.01.51 1.69.68 3.45.5 5.3-.2 2.04-.89 3.89-2.07 5.52Z" fill="#00942B"/><path d="M21.52 18.4c1.03.95.98 2.1.7 3.34l-.02.02-.02.01a.04.04 0 0 1-.04-.01c-.78-1-1.01-2.1-.7-3.33 0-.06.04-.07.08-.03ZM18.25 18.44c1.12-.22 1.83.38 2.49 1.18a.04.04 0 0 1 0 .04.04.04 0 0 1-.03.02 2.89 2.89 0 0 1-2.49-1.17c-.03-.04-.02-.06.03-.07ZM19.42 19.86c1.28.09 1.88.95 2.36 2a.04.04 0 0 1-.03.06h-.02a3.27 3.27 0 0 1-2.35-2c-.02-.05 0-.07.04-.06ZM23.1 20.97c.73 1.26.35 2.38-.3 3.5 0 .02 0 .02-.02.03h-.04l-.02-.03a3.82 3.82 0 0 1 .28-3.5c.03-.05.06-.05.1 0ZM20.44 21.75c1.29.43 1.69 1.47 1.91 2.7v.01l-.02.02a.04.04 0 0 1-.04 0 3.53 3.53 0 0 1-1.92-2.67c0-.06.01-.08.07-.06ZM20.84 23.96c1.24.65 1.48 1.78 1.5 3.05a.04.04 0 0 1-.01.04.04.04 0 0 1-.05 0 3.66 3.66 0 0 1-1.52-3.04c0-.06.02-.08.08-.05Z" fill="#FFB500"/><path d="M27.33 33c-.03 0-.06.01-.08.03a.14.14 0 0 0-.05.07l-.92 2.76c-.03.1-.06.28-.1.57-.1.87.41 1.1 1.08 1.27.06.01.1.05.1.1.02.06.02.1.02.13-.01.04-.04.07-.1.07H23.5l-.05-.01a.1.1 0 0 1-.03-.04.16.16 0 0 1 0-.17c.02-.04.06-.06.11-.08 1.03-.27 1.57-1.17 1.92-2.15.24-.65 1.53-4.47 3.88-11.46l.05-.06a.13.13 0 0 1 .08-.03H31c.02 0 .05 0 .08.03l.05.06 4 10.81c.35.94.66 2.15 1.62 2.57.15.07.41.15.77.25.05.01.08.05.09.1v.09c-.02.06-.06.09-.12.09h-6.15a.1.1 0 0 1-.05-.06.1.1 0 0 1 0-.04v-.07c0-.08.03-.11.1-.12.09 0 .27-.03.56-.1.91-.24.65-1.15.38-1.91-.19-.51-.5-1.25-1-2.6-.02-.07-.07-.1-.14-.1h-3.85Zm.26-1.08a.05.05 0 0 0 0 .05l.02.02.03.01H30.9l.02-.02a.05.05 0 0 0 0-.05l-1.68-4.58a.05.05 0 0 0-.02-.02.05.05 0 0 0-.06 0l-.01.02-1.56 4.57Z" fill="#00942B"/><path d="M23.7 24.31c.55 1.4-.04 2.47-.88 3.5a.05.05 0 0 1-.05.02.05.05 0 0 1-.03-.03c-.28-1.32.01-2.5.87-3.5.04-.05.07-.05.1.01Z" fill="#FFB500"/><path d="M43 31.75v4.46c.05 1.11.5 1.47 1.43 1.5.02 0 .04.01.05.03.02.02.02.04.02.06v.13c0 .05-.02.07-.06.07h-5.82a.1.1 0 0 1-.08-.03.13.13 0 0 1-.03-.09v-.06c0-.07.03-.1.08-.1.79-.04 1.4-.34 1.41-1.36v-9.63c0-.3 0-.68-.02-1.15-.06-1-.63-1.2-1.41-1.3a.08.08 0 0 1-.05-.03.1.1 0 0 1-.02-.05.12.12 0 0 1 .03-.1l.02-.03a.25.25 0 0 1 .04-.03l.02-.01c1.94 0 4.05 0 6.34-.03 2.36-.02 4.2 1.33 4.04 4.22-.16 2.8-2.97 3.77-5.03 3.55-.47-.05-.68-.09-.88-.1-.05 0-.08.02-.08.08Zm0-6.7v5.68c0 .07 0 .13.05.18.04.04.1.07.16.07h.61c.64 0 1.24-.3 1.7-.81a3 3 0 0 0 .69-1.96v-.64a3 3 0 0 0-.7-1.96 2.23 2.23 0 0 0-1.69-.81h-.61a.21.21 0 0 0-.16.07c-.04.05-.05.11-.05.18Z" fill="#00942B"/><path d="M18.7 35.57c-.36.24-.73.45-1.1.64-.12.06-.13.04-.05-.06l1.07-1.14a6.7 6.7 0 0 0 2.63-3.77c.2-.73.12-1.3-.1-2.18a4.9 4.9 0 0 1-.05-2.55c.02-.06.05-.07.1-.03.56.49.82 1.17.8 2.05a8.44 8.44 0 0 1-.47 2.77l.03-.01c.28-.57.43-.96.46-1.15.18-1.11.76-1.95 1.73-2.54.05-.03.08-.01.08.04.03.6-.06 1.07-.26 1.42-.28.48-.76.84-1.07 1.25-.18.24-.38.47-.54.74-.56.97-1.02 2.06-1.73 2.91-.43.51-1.03 1.05-1.53 1.61Z" fill="#FFB500"/></svg>