<!-- by TradingView --><svg width="56" height="56" viewBox="0 0 56 56" xmlns="http://www.w3.org/2000/svg"><path fill="#F0F3FA" d="M0 0h56v56H0z"/><path d="M11.02 40.72 27.83 9.1a.19.19 0 0 1 .34 0l16.8 31.62a.19.19 0 0 1-.16.28H11.19a.2.2 0 0 1-.16-.1.19.19 0 0 1 0-.18Zm1.69-.9a.11.11 0 0 0 .04.16l.06.02h30.53a.12.12 0 0 0 .1-.17l-15.36-28.5a.11.11 0 0 0-.16-.04.12.12 0 0 0-.04.05L12.7 39.82Z" fill="#E8370F"/><path d="M30.79 22.69c-.65.03-1.36.21-1.98.54a8.7 8.7 0 0 0-4.32 5.07.53.53 0 0 1-.5.37h-2.03c-.33 0-.45-.16-.38-.48l.14-.55c.08-.35.3-.54.65-.57.4-.04.7-.35.9-.96a.24.24 0 0 0-.05-.24l-.43-.42a.3.3 0 0 1-.09-.22c0-.08.03-.15.09-.21l.74-.74a.18.18 0 0 1 .12-.05c.13-.01.3.02.51.09.12.03.21.01.3-.07l.7-.7a.3.3 0 0 0 .07-.34l-.17-.5a.32.32 0 0 1 .04-.3c.26-.4.58-.68.96-.84a.25.25 0 0 1 .3.06l.28.28c.07.07.16.1.26.07.34-.1.65-.27.92-.52a.37.37 0 0 0 .13-.3c-.01-.6.3-.97.94-1.09a.34.34 0 0 1 .3.1l.37.37c.06.06.14.1.23.11.33.05.64.02.94-.08.1-.04.16-.11.16-.23v-1.07c0-.24.08-.27.24-.08.62.74.87 1.67.87 2.89v6.73c0 .23-.04.19.18.19h4.36c.37 0 .44.16.24.46l-.66.94a.97.97 0 0 1-.36.3 1.1 1.1 0 0 1-.48.13 8.54 8.54 0 0 0-3.5.88.7.7 0 0 1-.61 0c-3.65-1.69-8.2-2-12.1-2-.17 0-.24-.08-.22-.24l.02-.12c.04-.22.17-.35.4-.35H30.7c.2 0 .3-.08.3-.28V22.9c0-.14-.07-.21-.21-.2Zm-4.66 1.06c-1.12 1.01-2.37 2.76-2.63 4.39-.04.21.05.28.25.21l.13-.04c.19-.06.3-.19.37-.37a8.21 8.21 0 0 1 2.4-3.62 8.5 8.5 0 0 1 3.93-2.02.54.54 0 0 0 .4-.33l.06-.13c.09-.2.03-.29-.19-.27a8.85 8.85 0 0 0-4.72 2.18ZM23.51 34.06l-.1-.16a.34.34 0 0 1-.01-.32.33.33 0 0 1 .27-.18c.64-.05 3.42-.4 2.98 1.1a.28.28 0 0 1-.22.2c-.13.03-.23.07-.3.1a.26.26 0 0 0-.14.25v1.17a.2.2 0 0 1-.12.2.24.24 0 0 1-.1.02c-.09 0-.15-.02-.18-.07l-.1-.18c-.07-.12-.1-.11-.1.03v.26c0 .12.06.2.19.22.36.07.7.08.98.01.12-.03.18-.1.18-.22v-1.15c0-.12.06-.2.19-.2.25-.03.47 0 .65.08.1.05.21.06.32.05l1.08-.11c.1-.01.16-.07.17-.18.06-.43-.07-.72-.38-.85a.39.39 0 0 1-.21-.22c-.1-.3-.04-.47.2-.5.84-.13 2.78-.14 3.66.16 1.32.46 1.82 1.42 1.51 2.9-.01.07.02.1.09.12l.1.01c.05 0 .1-.01.1-.05l1.07-2.79a.63.63 0 0 1 .48-.4c2.12-.38 3 1.6 3.28 3.36.02.14.14.2.35.2.2 0 .33.1.39.29.06.2.09.42.07.65-.01.18-.11.28-.3.28h-2.1a.46.46 0 0 1-.32-.12c-.1-.09-.14-.23-.12-.43a.32.32 0 0 0-.11-.29 2.66 2.66 0 0 1-.08-.07c-.1-.1-.09-.18 0-.27l.35-.35c.13-.13.13-.26 0-.38l-.09-.09c-.12-.12-.22-.1-.32.03-.15.22-.47.22-.95-.01a.42.42 0 0 0-.5.07.34.34 0 0 0-.1.16c-.03.14.01.23.15.28l.85.33c.14.05.21.15.21.3v.58c0 .05-.02.1-.05.13a.2.2 0 0 1-.13.07c-.81.13-1.52.13-2.13 0-.16-.03-.24-.13-.24-.3v-.13c0-.13.06-.18.19-.15.56.14 1.08.18 1.54.14.23-.02.37-.1.42-.22.07-.18.01-.23-.16-.15-.48.21-1.09.24-1.84.1a.44.44 0 0 0-.32.06c-1.06.7-2.63.91-4.72.64-.14-.02-.19-.1-.13-.24a.5.5 0 0 1 .15-.2.58.58 0 0 1 .43-.12c1.36.2 3.25.38 4.06-1.01v-.02l-.07-.07a.09.09 0 0 0-.07-.03.1.1 0 0 0-.07.03c-.6.71-1.3 1.05-2.1 1.02-.9-.03-1.69-.04-2.37-.01-.12 0-.2.05-.24.17-.02.05-.02.09 0 .12.04.04.05.09.05.13 0 .05-.02.1-.05.14a.32.32 0 0 1-.12.1.36.36 0 0 1-.16.04l-7.44.02a.3.3 0 0 1-.22-.1.28.28 0 0 1-.07-.22c.01-.08.03-.15.06-.2.07-.12.04-.2-.09-.25l-.24-.1a.12.12 0 0 0-.12.03.12.12 0 0 0-.03.12c.07.23.07.4 0 .51a.32.32 0 0 1-.25.18c-.56.07-1.08.08-1.54.04-.78-.06-.96-.52-1.06-1.13-.02-.12.03-.2.15-.23a3.5 3.5 0 0 0 1.76-1.28c.07-.08.06-.15 0-.22l-.89-.88a.18.18 0 0 0-.16-.05.18.18 0 0 0-.13.11l-.07.2c-.08.2-.16.2-.24 0l-.42-1a.22.22 0 0 1-.02-.08.2.2 0 0 1 .02-.1.19.19 0 0 1 .07-.06 171.24 171.24 0 0 1 1.9-.07c.32 0 .59.07.79.25.08.08.17.08.27 0 .25-.2.82-.28 1.73-.26.66.02 1.07.26 1.24.74.02.04.05.07.1.07.04 0 .08-.02.1-.04.02-.02.03-.04.01-.06Zm-3.44.17a.53.53 0 0 1-.18-.2.08.08 0 0 0-.1-.05.08.08 0 0 0-.04.02c-.08.1-.06.27.06.5.12.23.28.28.5.15a.8.8 0 0 0 .44-.6.1.1 0 0 0 0-.06c-.04-.05-.08-.07-.13-.06l-.04.01a.07.07 0 0 0-.02.03c-.08.16-.14.25-.2.28-.1.05-.2.05-.3-.02Zm1.05.91c.4-.52.95-.82 1.63-.9a.1.1 0 0 0 .07-.04.13.13 0 0 0 .03-.08V34c0-.07-.03-.1-.1-.08-.8.14-1.4.57-1.78 1.3a.31.31 0 0 0 0 .31c.6 1.08 1.6 1.47 2.98 1.16.24-.06.36-.2.35-.45-.03-.7-.08-1.34-.15-1.91a.32.32 0 0 0-.11-.22c-.09-.07-.18-.09-.27-.05-.16.06-.3.35-.47.5a.46.46 0 0 1-.3.14c-.59.03-1.03.27-1.33.72-.1.13-.21.17-.36.1l-.1-.03a.22.22 0 0 1-.13-.25c0-.04.02-.07.04-.1Zm4.37.55c-.11-.55-.13-1.42.63-1.43a.1.1 0 0 0 .1-.12.1.1 0 0 0-.04-.05c-.14-.1-.34-.13-.6-.06-.13.03-.2.1-.2.23l-.06 1.52h.1c.06 0 .08-.04.07-.1Zm4.92-.88c.07-.4.39-.44.71-.58.15-.06.15-.11-.01-.15-.15-.03-.4 0-.75.06-.1.02-.16.08-.16.19v.54c0 .03.02.06.06.07a.1.1 0 0 0 .1-.02c.03-.02.04-.05.05-.1Zm5.3.54a.08.08 0 0 0 0 .07l.03.02h.04c.32 0 .6.04.85.13.14.05.19 0 .14-.14l-.37-1.08c-.1-.29-.2-.3-.3 0l-.4 1Zm-5.37.96-.06-.13c-.07-.15-.11-.14-.11.02v.36c0 .14.07.2.2.2.45-.01.78-.03 1.01-.05 1.09-.1.89-1.47.61-2.24-.09-.25-.22-.27-.4-.07-.2.22-.42.4-.7.55a.34.34 0 0 0-.16.36c0 .04.02.09.05.13.1.15.1.42.02.82-.02.1-.08.15-.18.15h-.12c-.08 0-.13-.04-.16-.1Zm8.24.32c.03-.02 0-.15-.06-.37a9.56 9.56 0 0 0-.78-1.84c-.04-.05-.07-.07-.08-.07-.03.02-.01.15.06.37a9.54 9.54 0 0 0 .78 1.84c.04.05.06.07.08.07Zm-10.8.19a.39.39 0 0 1-.3.56c-1.31.12-2.44.07-3.39-.17a.96.96 0 0 0-.35 0l-.34.07c-.37.15-.36.24.04.27 1.2.12 3.01.32 4.32.05.1-.02.17-.1.17-.2.03-.42 0-.74-.1-.97a.45.45 0 0 1-.02-.31.9.9 0 0 0 .05-.5c-.06-.2-.1-.2-.13.01-.09.54-.07.94.06 1.19Zm1.03-.06a.3.3 0 0 0 .24-.13c.07-.08.1-.2.11-.32a.6.6 0 0 0-.01-.17.5.5 0 0 0-.07-.15.35.35 0 0 0-.1-.1.26.26 0 0 0-.13-.05.3.3 0 0 0-.24.13c-.06.08-.1.2-.11.31 0 .06 0 .12.02.18.01.06.03.1.06.15.03.04.06.08.1.1.04.03.09.04.13.05Zm-9.06.23a.57.57 0 0 1 .3.01.24.24 0 0 0 .28-.11c.13-.23.06-.47-.23-.73-.16-.14-.3-.13-.44.03-.2.25-.29.52-.27.82a.31.31 0 0 1-.13.28.95.95 0 0 1-.92.1h-.02l-.07.1c-.03.05-.02.07.04.08.58.06.95.06 1.13 0 .2-.06.28-.15.27-.29-.01-.18 0-.27.06-.29Zm18.83.49a4.34 4.34 0 0 0-1.05-.05.12.12 0 0 0-.05.08c0 .05.02.08.07.1.58.1 1.16.1 1.76 0 .03 0 .05-.02.07-.04a.11.11 0 0 0 .02-.07v-.12c0-.11-.05-.15-.15-.1-.34.15-.56.21-.67.2Zm-16.43-.02a4.36 4.36 0 0 0-1.06-.04.12.12 0 0 0-.05.07c0 .06.02.1.08.1.58.1 1.16.1 1.76 0a.12.12 0 0 0 .1-.1v-.12c0-.12-.05-.15-.16-.1-.34.15-.56.21-.67.2Z" fill="#E8370F"/></svg>