<!-- by TradingView --><svg width="56" height="56" viewBox="0 0 56 56" xmlns="http://www.w3.org/2000/svg"><path fill="#F0F3FA" d="M0 0h56v56H0z"/><path d="M44 43.88a.12.12 0 0 1-.12.12H12.12a.12.12 0 0 1-.12-.12V12.12a.12.12 0 0 1 .12-.12h31.76a.12.12 0 0 1 .12.12v31.76Zm-.5-31.27a.11.11 0 0 0-.1-.11H12.6a.11.11 0 0 0-.1.1v30.8a.11.11 0 0 0 .1.1h30.8a.11.11 0 0 0 .1-.1V12.6Z" fill="#12266F"/><path d="M20.54 37.19h.02l3.05.02a.03.03 0 0 0 .02-.01v-.03a.5.5 0 0 0-.1-.31c-.08-.1-.2-.2-.33-.27a2.68 2.68 0 0 0-1.07-.24h-.09c-.4 0-.78.09-1.07.24-.28.15-.44.35-.44.57v.03Z" fill="#12266F"/><path d="m33.25 22.68-6.57 3.84c-.06.04-.1.02-.1-.05v-8.29c0-.12.07-.18.2-.18h10.1c.17 0 .34-.05.5-.13a1 1 0 0 0 .37-.36l1.45-2.25c.05-.08.02-.26-.08-.26H19.54c-.5-.01-.88.06-1.11.23l-1.28.9a.71.71 0 0 0-.24.27.68.68 0 0 0-.06.36c.59 6.98.61 14.2.07 21.67-.07.96.28 1.66 1.05 2.08.41.23 1.1.3 2.08.25a40.46 40.46 0 0 1 7.4.23.16.16 0 0 0 .09-.1v-.06c-.29-2.74-.5-5.03-.64-6.89-.22-3.17-.31-5.3-.27-6.35 0-.12.05-.14.15-.06l5.46 4.55c.07.05.14.05.2 0a33.01 33.01 0 0 1 3.5-2.48l3.14-1.77c.08-.04.08-.09 0-.14a41.37 41.37 0 0 1-5.52-4.97c-.1-.1-.2-.1-.3-.04ZM20.02 18.8a9.71 9.71 0 0 1-.02-.86c0-.5.01-.78.02-.87.02-.1.07-.17.16-.18.22-.02.38.13.48.44.04.11.11.16.23.16h3.07c.1 0 .18.05.21.15.04.1.05.2.05.3 0 .1-.01.2-.05.3-.03.1-.1.14-.21.14h-3.07c-.12 0-.2.06-.23.16-.1.32-.26.47-.48.44-.09 0-.14-.07-.16-.18Zm4.2 2.07-2.1.72c-.18.06-.18.13 0 .2l2.1.9c.02 0 .03.02.04.03l.01.04a.07.07 0 0 1-.04.07.93.93 0 0 1-.37.08c-.11.01-.23 0-.34-.05l-2.21-.84a.4.4 0 0 0-.31 0c-.42.18-.76.02-1.03-.49-.05-.1-.02-.16.09-.2l3.39-1.16a.33.33 0 0 1 .33.06l.48.4c.13.1.11.19-.04.24Zm-.92 1.27c-.42-.13-.63-.26-.63-.38 0-.14.2-.29.6-.46a.35.35 0 0 1 .24 0c.41.13.63.27.63.4s-.2.27-.6.43a.33.33 0 0 1-.25 0Zm-2.58 2.94h.75c.15 0 .17-.05.05-.15l-.2-.17a.15.15 0 0 1-.06-.14c0-.03.02-.05.03-.07a.15.15 0 0 1 .07-.04l.71-.25h.09c.02 0 .05.01.07.03l.41.34c.1.08.09.15-.02.21l-.23.13c-.15.08-.12.11.08.1h1.49c.19 0 .28.09.28.27v.23a.37.37 0 0 1-.11.27.4.4 0 0 1-.28.11h-3.51a.37.37 0 0 1-.26-.1.35.35 0 0 1-.1-.26v-1.3c0-.1.04-.13.14-.1.4.12.55.36.47.72-.03.11.02.17.13.17Zm3.5 3.06-2.1.72c-.18.06-.18.13 0 .2l2.1.9.04.03.02.04a.07.07 0 0 1-.04.08.93.93 0 0 1-.37.08c-.12 0-.24 0-.34-.05l-2.22-.84a.4.4 0 0 0-.31 0c-.42.18-.76.01-1.03-.5-.05-.1-.02-.16.08-.2l3.4-1.16a.33.33 0 0 1 .33.06l.49.4c.12.11.1.19-.05.24Zm-.94 1.26c-.41-.15-.61-.3-.61-.44 0-.12.2-.25.62-.4a.32.32 0 0 1 .12-.02l.12.03c.41.15.61.29.61.4 0 .14-.2.29-.62.43a.36.36 0 0 1-.12.03.4.4 0 0 1-.12-.03Zm.81 3.12a.2.2 0 0 1-.1 0 .12.12 0 0 0-.13.04.11.11 0 0 0 0 .13c.32.44.45.76.38.98-.08.25-.36.39-.85.4-.93.05-1.97.05-3.14.03a.2.2 0 0 1-.13-.05.18.18 0 0 1-.06-.13v-.56c0-.08.04-.11.12-.11h2.8c.25 0 .38-.13.38-.37v-.09a.28.28 0 0 0-.09-.2.3.3 0 0 0-.21-.08h-2.85c-.15 0-.22-.08-.22-.22v-.34c0-.18.1-.27.28-.27h3.7c.04 0 .09.01.13.04.04.02.07.06.09.1a.9.9 0 0 1 .04.56.18.18 0 0 1-.14.14Zm-.04 5.46a.36.36 0 0 1-.13.02l-3.59.02a.36.36 0 0 1-.24-.1.34.34 0 0 1-.1-.24v-.48c0-.46.2-.9.56-1.24.36-.32.86-.51 1.37-.51h.39a2.15 2.15 0 0 1 1.38.5c.18.16.32.35.42.57.1.2.15.43.15.66v.49a.33.33 0 0 1-.1.23.35.35 0 0 1-.1.08Z" fill="#12266F"/></svg>