<!-- by TradingView --><svg width="56" height="56" fill="none" xmlns="http://www.w3.org/2000/svg"><path fill="#F0F3FA" d="M0 0h56v56H0z"/><path fill-rule="evenodd" clip-rule="evenodd" d="M28.029 46 12 36.887V19.113L28.029 10 44 19.113v17.774L28.029 46Zm-.006-4L15 34.912V21.088L28.023 14 41 21.088v13.824L28.023 42Z" fill="#12A21C"/><path fill-rule="evenodd" clip-rule="evenodd" d="M16 35V21h3.428c1.19.102 3.572 1.676 3.572 7.153C23 33.631 20.329 35 18.993 35H16Zm2-3v-8h1.469c.51.058 1.531.958 1.531 4.088S19.855 32 19.283 32H18Zm11.115 3c1.068 0 2.06-.448 2.88-1.215V27H28v2h2v2.772c-.313.148-.65.228-1 .228-1.657 0-3-1.79-3-4s1.343-4 3-4c.762 0 1.458.379 1.987 1.003L30.99 25h1.005v-2.785c-.82-.767-1.812-1.215-2.88-1.215C26.29 21 24 24.134 24 28s2.29 7 5.115 7Zm8.358 0c.938 0 1.808-.451 2.527-1.223V31h-.846c-.441.622-1.02 1-1.654 1-1.38 0-2.5-1.79-2.5-4s1.12-4 2.5-4c.634 0 1.213.378 1.654 1H40v-2.777C39.281 21.451 38.41 21 37.473 21 35.003 21 33 24.134 33 28s2.003 7 4.473 7Z" fill="#F83347"/></svg>