<!-- by TradingView --><svg width="56" height="56" viewBox="0 0 56 56" xmlns="http://www.w3.org/2000/svg"><path fill="#F0F3FA" d="M0 0h56v56H0z"/><path fill-rule="evenodd" d="M28 44.18a16.18 16.18 0 1 0 0-32.36 16.18 16.18 0 0 0 0 32.36Zm0 .82a17 17 0 1 0 0-34 17 17 0 0 0 0 34Z" fill="#303591"/><path fill-rule="evenodd" d="M19.86 21H15v14h4.86c1.73 0 3.14-1.5 3.14-3.36v-7.28C23 22.5 21.6 21 19.86 21Zm-.96 2.63H18v8.74h.9c.6 0 1.1-.5 1.1-1.12v-6.5c0-.62-.5-1.12-1.1-1.12Z" fill="#303591"/><path d="M33 24.32V26h-3v-1.7c0-.57-.39-1.02-.93-1.02S28 23.73 28 24.3v7.17c0 .57.53 1.02 1.07 1.02.53 0 .91-.43.93-.97V30h-1v-2.56h4V35h-3v-1.15c-.5.7-1.31 1.15-2.22 1.15A2.85 2.85 0 0 1 25 32.09v-7.77A3.25 3.25 0 0 1 28.17 21h1.66A3.25 3.25 0 0 1 33 24.32ZM36 21h-2v3h2v11h3V24h2v-3h-5Z" fill="#303591"/></svg>