<!-- by TradingView --><svg width="56" height="56" fill="none" xmlns="http://www.w3.org/2000/svg"><path fill="#F0F3FA" d="M0 0h56v56H0z"/><path d="M16 37.668V43h13c8.284 0 15-6.716 15-15 0-8.284-6.716-15-15-15H16v5.031c0 3.192 3.483 5.16 5.561 4.957 7.584-.742 12.19 0 17.5 5.03-8.594 6.834-12.25 4.844-17.267 4.844-4.013 0-5.535 3.204-5.794 4.806Z" fill="#F15021"/><path d="m22.354 16.62-2.028 2.817 6.394 1.436 9.593 4.2 2.768 2.95-3.717 3.832-10.932 4.107-.396 2.531c4.386-.748 13.207-2.254 13.405-2.292.198-.038 2.226-4.442 3.216-6.639l-1.732-7.832-16.571-5.11Z" fill="url(#a)"/><path d="M16.277 18.077v-4.614c2.015 3.335 5.93 5.892 12.523 6.92 5.274.823 9.049 5.384 10.277 7.56-6.593-6.892-12.955-5.141-17.618-5.252-3.731-.09-5.01-3.113-5.182-4.614Z" fill="url(#b)"/><path d="M16.277 37.867v4.614c2.015-3.335 5.93-5.892 12.523-6.92 5.274-.824 9.049-5.384 10.277-7.56-6.593 6.892-12.955 5.141-17.618 5.252-3.731.09-5.01 3.113-5.182 4.614Z" fill="url(#c)"/><path d="M26.073 19.271c-4.988-1.094-8.07-4.286-8.987-5.745h11.851c7.987 0 14.46 6.474 14.46 14.46 0 7.987-6.473 14.461-14.46 14.461H16.964c1.363-1.693 5.352-5.291 10.404-6.136 6.736-.75 10.902-5.81 12.144-8.246-3.846-6.449-7.206-7.426-13.44-8.794Z" fill="url(#d)"/><path d="M16 24.077V32c1.737-.053 5.57-.935 7-4.04-2.404-3.803-5.669-4.173-7-3.883Z" fill="url(#e)"/><defs><linearGradient id="a" x1="40.2" y1="28.182" x2="29.157" y2="29.355" gradientUnits="userSpaceOnUse"><stop stop-color="#FFD86E"/><stop offset="1" stop-color="#FFD86E" stop-opacity="0"/></linearGradient><linearGradient id="b" x1="16.277" y1="15.631" x2="38.08" y2="27.318" gradientUnits="userSpaceOnUse"><stop offset=".167" stop-color="#8B0304"/><stop offset=".406" stop-color="#F05322"/><stop offset="1" stop-color="#FDCB69"/></linearGradient><linearGradient id="c" x1="16.277" y1="40.313" x2="38.08" y2="28.626" gradientUnits="userSpaceOnUse"><stop offset=".167" stop-color="#8B0304"/><stop offset=".406" stop-color="#F05322"/><stop offset="1" stop-color="#FDCB69"/></linearGradient><linearGradient id="d" x1="42.388" y1="27.174" x2="20.721" y2="27.174" gradientUnits="userSpaceOnUse"><stop stop-color="#EE3524"/><stop offset=".354" stop-color="#F8992A"/><stop offset=".733" stop-color="#FED26A"/><stop offset=".973" stop-color="#F27320"/></linearGradient><linearGradient id="e" x1="15.429" y1="27.563" x2="23.951" y2="27.563" gradientUnits="userSpaceOnUse"><stop offset=".221" stop-color="#EC5E20"/><stop offset=".46" stop-color="#FED875"/><stop offset=".8" stop-color="#F47A20"/></linearGradient></defs></svg>