<!-- by TradingView --><svg width="56" height="56" viewBox="0 0 56 56" xmlns="http://www.w3.org/2000/svg"><path fill="#F0F3FA" d="M0 0h56v56H0z"/><path fill-rule="evenodd" d="M41.06 37.22c3.28-2.46 5.16-5.73 5.16-9.22s-1.88-6.76-5.16-9.22c-3.28-2.46-7.9-4.04-13.06-4.04-5.17 0-9.78 1.58-13.06 4.04-3.28 2.46-5.16 5.73-5.16 9.22s1.88 6.76 5.16 9.22c3.28 2.46 7.9 4.04 13.06 4.04 5.17 0 9.78-1.58 13.06-4.04ZM28 43c11.05 0 20-6.72 20-15 0-8.28-8.95-15-20-15S8 19.72 8 28c0 8.28 8.95 15 20 15Z" fill="#20135D"/><path fill-rule="evenodd" d="M28 42.13c6.87 0 12.62-6.22 12.62-14.13 0-7.91-5.75-14.13-12.62-14.13-6.87 0-12.62 6.22-12.62 14.13 0 7.91 5.75 14.13 12.62 14.13Zm0 .87c7.46 0 13.5-6.72 13.5-15 0-8.28-6.04-15-13.5-15s-13.51 6.72-13.51 15c0 8.28 6.05 15 13.51 15Z" fill="#20135D"/><path fill-rule="evenodd" d="M31.26 38.3c1-2.6 1.63-6.24 1.63-10.3 0-4.06-.63-7.7-1.63-10.3a9.48 9.48 0 0 0-1.67-2.94c-.6-.65-1.14-.89-1.59-.89-.45 0-1 .24-1.59.89a9.48 9.48 0 0 0-1.67 2.94c-1 2.6-1.63 6.24-1.63 10.3 0 4.06.63 7.7 1.63 10.3.5 1.3 1.08 2.29 1.67 2.94.6.65 1.14.89 1.59.89.45 0 1-.24 1.59-.89a9.48 9.48 0 0 0 1.67-2.94ZM28 43c3.2 0 5.78-6.72 5.78-15 0-8.28-2.59-15-5.78-15-3.2 0-5.78 6.72-5.78 15 0 8.28 2.59 15 5.78 15Z" fill="#20135D"/><path d="M39.2 16.26c-9.84 6.21-19.13 2.6-22.58-.02l.55-.69c3.23 2.46 12.1 5.94 21.55-.02l.48.73Zm5.4 4.12c-15.09 7.22-28.25 3.02-33-.03l.49-.73c4.52 2.9 17.35 7.05 32.12-.03l.39.79ZM39.2 39.64c-9.84-6.21-19.13-2.6-22.58.02l.55.7c3.23-2.47 12.1-5.95 21.55.01l.48-.73Zm5.4-4.11c-15.09-7.23-28.25-3.03-33 .02l.49.73c4.52-2.9 17.35-7.05 32.12.03l.39-.78ZM47.42 28.4H8.54v-.86h38.88v.87Z" fill="#20135D"/><path fill-rule="evenodd" d="M18.24 23H14v10h4.24c2.34 0 4.24-1.9 4.24-4.24v-1.52c0-2.34-1.9-4.24-4.24-4.24Zm-.19 2H16v6h2.05a2.4 2.4 0 0 0 2.46-2.4v-1.1a2.5 2.5 0 0 0-2.46-2.5Z" fill="#D90D05"/><path d="M24 23h2v4h4v-4h2v10h-2v-4h-4v4h-2V23ZM33.58 33l3.63-10h2.83l2.91 10h-2.08l-.63-2H36.6l-.68 2h-2.34Zm3.72-4h2.3l-1.1-3.31L37.3 29Z" fill="#D90D05"/></svg>