<!-- by TradingView --><svg width="56" height="56" viewBox="0 0 56 56" xmlns="http://www.w3.org/2000/svg"><path fill="#F0F3FA" d="M0 0h56v56H0z"/><path d="M27.91 45a17 17 0 1 1 .18-34 17 17 0 0 1-.18 34Zm.45-1.14a15.85 15.85 0 1 0-.72-31.7 15.85 15.85 0 0 0 .72 31.7Zm4.56-21.66-4.6 9.47a.07.07 0 0 1-.08.04.08.08 0 0 1-.06-.08V13.24a.07.07 0 0 1 .06-.07h.05l.04.04 4.59 8.93a.08.08 0 0 1 0 .06Zm-5.16-8.93-4.56 8.86a.09.09 0 0 0 0 .08l4.56 9.41a.09.09 0 0 0 .17-.04V13.31a.09.09 0 0 0-.17-.04Zm-9.6 18.55 4.72-9.15a.1.1 0 0 1 .08-.05.1.1 0 0 1 .09.05l4.65 9.6a.1.1 0 0 1 0 .08l-4.58 9.44a.1.1 0 0 1-.13.04.1.1 0 0 1-.04-.04l-4.8-9.89a.1.1 0 0 1 .01-.08Zm19.73 0-4.7-9.14a.1.1 0 0 0-.14-.04.1.1 0 0 0-.04.04l-4.65 9.6a.1.1 0 0 0 0 .08l4.57 9.42a.1.1 0 0 0 .18 0l4.78-9.87a.1.1 0 0 0 0-.09Z" fill="#00A54F"/></svg>