<!-- by TradingView --><svg width="56" height="56" fill="none" xmlns="http://www.w3.org/2000/svg"><path fill="#F0F3FA" d="M0 0h56v56H0z"/><circle r="3" transform="matrix(-1 0 0 1 28 26)" fill="#E6141D"/><path d="m17.624 30.499-1.55 1.128-.297.215c1.199 2.477 5.228 7.431 11.755 7.431 7.856 0 11.773-5.53 12.75-8.296l-.455.367a2.048 2.048 0 0 1-2.674-.105l-.54-.514a2.049 2.049 0 0 0-2.555-.194l-1.601 1.104a2.054 2.054 0 0 1-2.373-.041l-1.61-1.196a2.055 2.055 0 0 0-2.257-.115l-2.485 1.469a2.054 2.054 0 0 1-2.298-.147l-1.354-1.063a2.052 2.052 0 0 0-2.456-.043Z" fill="#00A3E5"/><path fill-rule="evenodd" clip-rule="evenodd" d="M28 39c7.18 0 13-5.82 13-13s-5.82-13-13-13-13 5.82-13 13 5.82 13 13 13Zm0 1c7.732 0 14-6.268 14-14s-6.268-14-14-14-14 6.268-14 14 6.268 14 14 14Z" fill="#272B8B"/><path fill-rule="evenodd" clip-rule="evenodd" d="M14 38v7h2.478c.507-.079 1.522-.66 1.522-2.357 0-2.489-2.667-4.132-4-4.643Zm1 2v4h1.24c.253-.045.76-.377.76-1.347 0-1.422-1.333-2.361-2-2.653Zm5.232 1c-1.43 0-1.648 1.253-1.58 1.88 0 1.2.622 2.12 2.188 2.12 1.567 0 2.473-.747 2.473-1.533 0-.787-1.294-2.467-3.081-2.467Zm.314 1c-.827 0-.954.627-.914.94 0 .6.36 1.06 1.266 1.06.907 0 1.431-.373 1.431-.767 0-.393-.75-1.233-1.783-1.233Zm16.506 1.5a2.688 2.688 0 0 1-.052-.543C37 40.663 39.1 39 40.083 39 41.067 39 42 40.164 42 42.176c0 2.012-1.15 2.81-2.65 2.81-.693.078-2-.133-2.291-1.455-.201.866-.85 1.469-2.118 1.469-1.567 0-2.473-.747-2.473-1.533 0-.787 1.295-2.467 3.081-2.467.824 0 1.245.416 1.442.889l-.935.557c-.112-.212-.333-.39-.74-.39-.943 0-1.626.824-1.626 1.21s.478.752 1.305.752c.648 0 .99-.277 1.107-.68l.95.163Zm2.358.49c-.47.06-1.41-.128-1.41-1.352C38 41.108 39.26 40 39.85 40c.59 0 1.15.776 1.15 2.117s-.69 1.873-1.59 1.873ZM24 45v-3h1v1h2v-1h1v3h-1v-1h-2v1h-1Zm4 0 2.03-3.5h.83L33 45h-1.38l-.518-1h-1.37l-.488 1H28Zm2.22-2h.363l-.188-.361-.176.361Z" fill="#D7050D"/></svg>