<!-- by TradingView --><svg width="56" height="56" fill="none" xmlns="http://www.w3.org/2000/svg"><path fill="#F0F3FA" d="M0 0h56v56H0z"/><path fill-rule="evenodd" clip-rule="evenodd" d="M4 25v6h2.465c.722 0 1.373-.329 1.835-.856V31H9V28h2.3v3h.7v-1.852C12.426 30.235 13.441 31 14.626 31c1.295 0 2.388-.914 2.73-2.164h.004V28H15v.7h1.634c-.277.89-1.071 1.533-2.008 1.533-1.167 0-2.113-.998-2.113-2.229 0-1.23.946-2.228 2.113-2.228.73 0 1.373.39 1.753.984l.567-.485c-.515-.766-1.362-1.266-2.32-1.266-1.185 0-2.2.765-2.626 1.852V25h-.7v2.3H9V25h-.7v.856C7.838 25.329 7.187 25 6.465 25H4Zm4.3 2.81c-.003-1.166-.82-2.11-1.825-2.11H4.7v4.6h1.775c1.006 0 1.822-.944 1.825-2.11v-.38ZM25 31v-6h.7v2.3H28V25h.7v6H28v-3h-2.3v3H25Zm-5 0v-6h2.131c.867 0 1.569.736 1.569 1.643 0 .908-.702 1.643-1.569 1.643h-1.427V31H20Zm.7-3.387V25.65h1.359c.52 0 .941.44.941.98 0 .543-.421.982-.941.982H20.7ZM37.432 25H35.3v6h.704v-2.714h.54L38.373 31h.805l-1.827-2.714h.081c.867 0 1.569-.735 1.569-1.643 0-.907-.702-1.643-1.569-1.643Zm-.073.65H36v1.963h1.359c.52 0 .941-.44.941-.981 0-.542-.421-.981-.941-.981ZM29.367 31h.723l.859-2h2.23l.86 2h.67l-2.541-6h-.22l-2.58 6Zm3.512-2.7-.815-1.898-.814 1.898h1.63ZM47.38 31h-.722l2.58-6h.22L52 31h-.671l-.859-2h-2.23l-.86 2Zm1.975-4.598.815 1.898h-1.63l.815-1.898ZM39.865 31h.717l.42-4.025L42.922 31h.268l1.863-4.025L45.54 31h.669l-.774-6h-.258l-2.13 4.762L40.797 25h-.23l-.701 6Z" fill="#005099"/></svg>