<!-- by TradingView --><svg width="56" height="56" viewBox="0 0 56 56" xmlns="http://www.w3.org/2000/svg"><path fill="#F0F3FA" d="M0 0h56v56H0z"/><path d="m26.68 25.93-.18.22a7.95 7.95 0 0 1-1.68 1.58A7 7 0 0 1 20.79 29H14.9v-.01l2.68-13.98.02-.01h5.86c.3 0 .6.02.89.06a4.36 4.36 0 0 1 2.76 1.37c.37.38.66.81.88 1.3.07.13.11.26.17.4h.01l.6-3.12.02-.01h4.67l-.98 5h2.92l.95-5h4.71l.02.01L38.39 29h-4.72L34.68 24H31.8l-1 4.99H26.1l.58-3.05c0-.01 0-.02 0 0Zm-5.2-6.71-1.02 5.31v.01l.6-.01c.12-.01.22-.03.35-.06.12-.02.26-.08.34-.1.1-.04.17-.09.26-.14l.18-.11.24-.2.15-.16.2-.25a5.04 5.04 0 0 0 .68-1.9c.01-.12.05-.32.04-.47 0-.06 0-.18-.02-.35 0-.12-.05-.26-.08-.38a1 1 0 0 0-.07-.18c-.06-.13-.1-.21-.17-.3a23.06 23.06 0 0 1-.24-.27c-.07-.06-.17-.15-.26-.2-.1-.04-.2-.11-.3-.13l-.15-.04a4.45 4.45 0 0 0-.72-.07Z" fill="#EE3338"/><path d="m45.77 32.2-.13-.3a1.4 1.4 0 0 0-.13-.23c-.1-.15-.24-.36-.37-.52a7.43 7.43 0 0 0-2.42-1.7 15.45 15.45 0 0 0-1.96-.77c1.07.24 2.11.54 3.12.89.58.2 1.16.43 1.72.7a11.04 11.04 0 0 1 2.05 1.22 388.76 388.76 0 0 1 .57.53c.15.18.26.28.35.44l.14.24c.1.13.16.36.2.47l.05.2.04.36-.01.23-.05.23c-.03.13-.05.22-.1.3l-.07.18c-.05.12-.13.23-.2.34l-.11.16-.28.32c-.11.12-.24.25-.37.35l-.31.25a13.59 13.59 0 0 1-2.5 1.35 29.08 29.08 0 0 1-5.26 1.51c-2.17.43-4.36.7-6.55.86a71.3 71.3 0 0 1-13.26-.28 45.01 45.01 0 0 1-5.76-1.06c-1.3-.34-2.6-.75-3.8-1.3a9.73 9.73 0 0 1-2.41-1.54l-.3-.31c-.09-.1-.16-.2-.23-.31-.08-.1-.13-.21-.2-.35-.06-.1-.1-.21-.12-.3-.06-.14-.07-.24-.1-.44a1.86 1.86 0 0 1 .1-.82 152.6 152.6 0 0 1 .35-.68c.15-.2.25-.34.38-.48a7.31 7.31 0 0 1 1.68-1.23 18.27 18.27 0 0 1 3.6-1.46l-.45.2c-.3.14-.61.3-.91.49a5.15 5.15 0 0 0-1.6 1.5l-.15.33a189.22 189.22 0 0 0-.2.55c-.05.28-.09.44-.1.66a3.24 3.24 0 0 0 .03.6c.02.12.05.25.1.4.02.13.07.24.11.36l.09.19c.06.12.12.25.2.35l.11.18c.08.13.18.23.29.37l.3.32c.11.11.26.24.4.35.05.05.1.1.16.13l.47.34.23.15.53.3.3.16c.67.33 1.37.61 2.11.86 1.03.33 2.13.61 3.3.83 1.8.34 3.59.54 5.4.67 2.16.14 4.32.19 6.48.13 2.32-.07 4.72-.3 7.01-.75 1.63-.32 3.2-.77 4.67-1.44a11.53 11.53 0 0 0 2.02-1.17c.14-.1.23-.18.4-.33l.2-.17c.08-.08.24-.23.34-.35l.16-.19c.1-.1.15-.2.25-.34l.21-.36.1-.2c.04-.1.1-.23.13-.35.04-.14.08-.29.1-.42l.03-.26c.02-.2.01-.43-.04-.64a7.24 7.24 0 0 1-.05-.26 1.16 1.16 0 0 0-.08-.24Z" fill="#28609C"/><path d="M28.05 35.76h-.2l-.01-.02v-.64h1.08v1.43c-.41.1-.8.13-1.18.1-.81-.05-1.2-.5-1.34-1.25v-.13c.09-.67.47-1.04 1.1-1.21.11-.03.2-.04.29-.05a3.06 3.06 0 0 1 1 .12l.05.76h-.01c-.16-.05-.23-.1-.36-.11-.13-.02-.25-.05-.39-.03-.4.05-.65.23-.74.62-.02.06-.01.16.02.22.18.3.18.32.5.42.04 0 .1 0 .19-.02v-.21ZM23.31 35.89c-.21.38-.59.61-1 .72l-.3.03c-.73.04-1.25-.37-1.5-1.01a.5.5 0 0 1-.04-.15c0-.1-.02-.16 0-.24.16-.77.6-1.16 1.4-1.24.1 0 .22 0 .34.02.5.03 1 .35 1.17.83a1.36 1.36 0 0 1-.07 1.04Zm-.87-.34a.3.3 0 0 0 .04-.13v-.15c.02-.24-.22-.55-.47-.56-.33-.03-.49.28-.59.56v.06c.07.3.13.56.5.62.01 0 .04 0 .07-.02.3-.12.3-.1.45-.38ZM31.33 34.9a65.3 65.3 0 0 0 .37 0V34l.01-.01h.93l.02.01v2.53l-.02.01h-.92l-.02-.01V35.6H31v.94l-.01.01H30l-.01-.01V34l.01-.01H31l.01.01v.9h.33ZM36.19 34.97v.65h-.98v.27h1.16v.66H34.3V34h2.08v.68h-1.15l-.01.01v.26h.97v.01ZM17.36 34.72a1.76 1.76 0 0 1 .08.85c-.02.15-.05.26-.08.33-.19.36-.39.54-.79.63a986.9 986.9 0 0 0-1.57.02V34h.01l1.4-.01.24.02.09.03c.3.17.5.32.62.67Zm-.88.71a.42.42 0 0 0 .01-.16c-.04-.3-.08-.33-.3-.54H15.9v1.16h.22c.27 0 .3-.26.36-.46ZM19.05 35.85l.2-.22a.09.09 0 0 0 .02-.06V34h.93l.01.01v1.8c0 .37-.35.65-.69.72-.12.02-.32.08-.47.09h-.27c-.38-.02-1.01-.22-1.06-.69l-.02-.15a1298.84 1298.84 0 0 1 .01-1.78h.93l.01.01v1.57l.01.03.22.24a.11.11 0 0 0 .09.04l.04-.01.04-.03ZM24.42 35.2v1.35h-.8V34h1.05l.72 1.4.01-.01V34h.83v2.55h-1.09l-.7-1.36h-.02ZM34 34H33v2.55H34V34ZM38.14 35.63a.09.09 0 0 0 .02-.06v-1.56H39.1v1.81c0 .55-.7.78-1.16.8h-.27c-.14 0-.33-.06-.45-.09a.81.81 0 0 1-.62-.75 987.22 987.22 0 0 1 0-1.78h.94v1.59l.02.03c.11.3.5.36.58.01Z" fill="#28609C"/></svg>