<!-- by TradingView --><svg width="56" height="56" viewBox="0 0 56 56" xmlns="http://www.w3.org/2000/svg"><path fill="#F0F3FA" d="M0 0h56v56H0z"/><path d="M24.62 36.29H41.2c4.52-.2 8.63-3.08 9.02-7.86A8.2 8.2 0 0 0 44.17 20c-.9-.25-2.43-.38-4.58-.37-8.88.02-16.99.02-24.32-.02-2.06 0-3.75.34-5.06 1.05-7.54 4.04-5.34 14.17 2.7 15.55.04.01.08.03.1.06.02.03.04.07.04.1v.18c0 .21-.1.3-.31.26-4.3-.81-7.71-4.26-7.74-8.9-.02-3.7 2.63-6.99 5.87-8.25 1.04-.4 3.14-.64 6.28-.65h25.18a9.28 9.28 0 0 1 8.28 6.4c1.58 5.04-1.8 10.3-6.83 11.31-.68.14-2.35.26-5 .29H24.53c-.08 0-.13-.09-.13-.18v-.3c0-.15.08-.23.22-.23Z" fill="#018"/><path d="m16.97 21.72-.22-.49c-.08-.15-.03-.23.14-.23h9.5c.16 0 .22.08.19.24l-3.43 14.08c-.28 1.12-1.03 1.69-2.27 1.68h-7.01a.16.16 0 0 1-.17-.2L17 22.05a.52.52 0 0 0-.03-.33Z" fill="#018"/><path d="M28.12 21.02c2.44-.03 4.43-.03 5.97.02 1.58.04 2.7 1.65 2.28 3.16-.94 3.37-6.51 3.41-8.68 4.17a10.4 10.4 0 0 0-1.56.65.12.12 0 0 1-.1-.08.12.12 0 0 1 0-.06l1.73-7.57c.04-.19.17-.28.36-.29Z" fill="#F02A2A"/><path d="M37.9 23.02c.13-.57-.1-1.3-.61-1.59-.47-.25-.47-.38 0-.4 1.51-.03 2.84-.04 3.97-.02 1.68.04 2.86.26 3.54.69 1.99 1.22 1.8 2.87 1.34 5.05-.72 3.35-1.18 5.4-1.36 6.16a3.69 3.69 0 0 1-1.35 1.97c-.1.08-.33.12-.46.12h-7.79a.12.12 0 0 1-.11-.1v-.04c.95-3.86 1.9-7.8 2.83-11.84ZM35.77 27.16c-.26.84-.71 2.71-1.37 5.61-.13.58-.39 1.1-.76 1.53-.3.34-.82.71-1.48.7h-7.23c-.18 0-.26-.1-.24-.27.2-2.05.9-4.02 2.62-5.26a6.95 6.95 0 0 1 2.63-.84c1.65-.29 3.85-.7 5.57-1.67.26-.14.34-.08.26.2Z" fill="#F02A2A"/></svg>