<!-- by TradingView --><svg width="56" height="56" viewBox="0 0 56 56" xmlns="http://www.w3.org/2000/svg"><path fill="#F0F3FA" d="M0 0h56v56H0z"/><path d="M28.52 11c2.82.18 5.34.88 7.55 2.09a17.49 17.49 0 0 1 8.82 12.8c.42 3.9-.36 7.5-2.33 10.8a17.08 17.08 0 0 1-7.94 6.97c-2.47 1-5 1.44-7.6 1.32a16.1 16.1 0 0 1-12.51-6.7c-.19-.27-.14-.49.14-.67h.02c.28-.18.53-.14.75.12 2.9 3.37 7.72 4.72 11.98 3.75 1.2-.27 2.2-.68 3.03-1.22a8.35 8.35 0 0 0 2.11-2.13c2.19-3.06 1.75-6.8-.28-9.82-.08-.13-.06-.15.08-.08 2.22 1.16 3.11 3.19 3.78 5.5.03.1.07.1.11.02a9.57 9.57 0 0 0 .05-8.85 10.64 10.64 0 0 0-8.5-5.68c-5.7-.29-10.25 2.54-11.7 8.18-.23.9-.3 1.8-.2 2.73.36 3.36 2 6.21 5.14 7.65 1.84.85 3.73.9 5.68.15 3.03-1.16 5.24-4.61 2.48-7.43a.11.11 0 0 0-.1-.03c-1.65.37-3.12-.26-4.37-1.32-.07-.06-.11-.04-.13.04-.16.66-.2 1.3-.13 1.93.05.44.4.72.85.94.71.35 1.53.78 1.82 1.47.3.7-.15 1.29-.77 1.54-1.5.6-3.9.47-4.33-1.49-.3-1.43.6-3.11 1.47-4.3a.05.05 0 0 0-.06-.06c-.8.3-1.46.59-2 .89-.57.32-.89.68-.91 1.4-.02.61-.27 3.09-1.12 3.2-.99.13-1.52-.55-1.95-1.34-.44-.8-.5-1.58-.17-2.34.73-1.68 3.12-2.14 4.8-2.18l.04-.01.03-.05A3.79 3.79 0 0 1 19.14 24a3.8 3.8 0 0 1 2.76-2.96c1.15-.34 2.48.03 2.29 1.52a3.02 3.02 0 0 1-.55 1.44c-.64.86-2.24 2.82-.85 3.72.3.2.62.3.95.3.05 0 .07-.02.04-.07-1.12-2.2.98-4.6 2.78-5.55.22-.11.52-.17.92-.19.75-.02 1.34.2 1.77.66.49.53.54 1.37.07 1.93-.5.61-1.17.75-2 .76a2.9 2.9 0 0 0-2.76 1.73.8.8 0 0 0-.06.62.27.27 0 0 0 .31.18 7.24 7.24 0 0 0 2.44-.85c1.63-.95 3.97-.06 3 2.18a.18.18 0 0 0 .03.19c1.58 1.88 2.16 4.02.98 6.24a8.41 8.41 0 0 1-4.56 3.7c-4.57 1.67-8.98-.8-11.34-4.75a10.46 10.46 0 0 1-1.38-7.56 12.6 12.6 0 0 1 4.86-7.65c2.76-2.08 5.9-2.9 9.41-2.45 4.6.58 8.09 2.97 10.2 7.24.7 1.43.95 2.69 1 4.34.04 1.86-.17 3.8-.63 5.8-.08.34-.05.36.1.04a14.58 14.58 0 0 0-1.37-14.54 12.09 12.09 0 0 0-2.93-2.85 14.75 14.75 0 0 0-7.72-2.75c-2.66-.2-5.18.35-7.56 1.62a14.38 14.38 0 0 0-7.53 11.04.34.34 0 0 1-.32.3.3.3 0 0 1-.08 0c-.28-.15-.42-.33-.4-.55.38-8.91 7.95-15.4 16.53-15.83h.98Z" fill="#00A859"/></svg>