<!-- by TradingView --><svg width="56" height="56" viewBox="0 0 56 56" xmlns="http://www.w3.org/2000/svg"><path fill="#F0F3FA" d="M0 0h56v56H0z"/><path d="m21.52 31.01-.02 3.13a38.19 38.19 0 0 1-15.3 1.7.22.22 0 0 1-.14-.07.24.24 0 0 1-.06-.16V20.2a.19.19 0 0 1 .05-.13.18.18 0 0 1 .13-.05c2.18-.03 4.62-.02 7.32.03 5.9.09 6.98 4.8 6.7 9.73-.01.12-.06.22-.14.3-2.44 2.25-5.37 3.82-8.69 3.84-.04 0-.06-.02-.06-.07 0-.04.02-.06.06-.07 4.5-.46 5.66-4.93 4.68-8.8-.27-1.1-.98-1.72-2.12-1.88-.74-.1-1.7-.1-3.71-.02-.15 0-.22.08-.22.24v11.34c0 .04.01.08.04.11s.07.05.11.05c4.3.06 7.81-1.21 11.37-3.8Z" fill="#8CC63F"/><path d="m34 22.06-4.06 2.27a4.24 4.24 0 0 1 3.33-4.26c.48-.12.8.05.73.52v1.47ZM44.14 22.44c-.1 0-.14.1-.14.2v9.6c0 1.1-.64 2.2-1.54 2.81l-1.02.53c-.96.64-1.44.38-1.44-.78V23.4a.45.45 0 0 1 .28-.42c2.3-.97 4.79-1.62 7.45-1.95 1.55-.18 2.6.52 3.15 2.12.22.65.14 1.23-.22 1.74l-.27.38c-.38.52-.63.47-.76-.15-.5-2.29-3.46-2.82-5.49-2.7Z" fill="#005A2F"/><path d="m28.32 30.34-3.41 2.26-.02-4.35 3.21-2.64L30.23 24l3.68-1.91c4.3-1.61 8.69-2.1 13.15-1.45.68.1.68.17-.01.2-4.67.18-9 1.83-12.99 4.96-1.9 1.5-3.82 3-5.74 4.54Z" fill="url(#a)"/><path d="M25 32.35c-.27 1.92-1.46 3.1-3.56 3.56a.35.35 0 0 1-.28-.06.32.32 0 0 1-.1-.1c-.02-.05-.06-.1-.06-.14V25.18c0-1.53.15-2.58.46-3.14.59-1.03 1.6-1.7 3.02-2.02.34-.07.52.05.52.38v11.95ZM34 27.43v4.8c0 1.2-.54 2.15-1.63 2.84l-.83.51c-1.03.64-1.54.4-1.54-.75v-4.5c0-.36.15-.65.46-.87l3.11-2.22c.29-.2.43-.14.43.19Z" fill="#005A2F"/><defs><linearGradient id="a" x1="25.49" y1="30.46" x2="42.74" y2="22.58" gradientUnits="userSpaceOnUse"><stop stop-color="#63BC46"/><stop offset="1" stop-color="#0C9545"/></linearGradient></defs></svg>