<!-- by TradingView --><svg width="56" height="56" viewBox="0 0 56 56" xmlns="http://www.w3.org/2000/svg"><path fill="#F0F3FA" d="M0 0h56v56H0z"/><path d="M10.34 17.9 28 12h.04l17.66 5.9.02.03a.05.05 0 0 1 0 .06l-.04.01H10.35l-.03-.01-.02-.03.01-.03.03-.02Z" fill="#C33"/><path d="M41 24.1c-.08-1.32-3-1.22-3 .1v6.7c0 .35.08.62.23.8.37.42 2.16.44 2.51 0 .16-.21.26-.48.26-.82V29h5v4c0 .54-.25.74-.82 1.02-.44.2-.91.37-1.4.5-3.14.75-9.78 1.15-10.68-2.93a16.3 16.3 0 0 1-.1-2.33c0-2.45 0-4.14.02-5.06.04-2.5 1.73-3.83 4.3-4.1 1.51-.16 3.1-.12 4.78.11 1.23.18 2.43.54 3.6 1.08.1.05.17.1.23.15.05.05.07.13.07.23v4.22c0 .03-.01.05-.03.07-.02.01-.04.04-.07.04h-4.84c-.02 0-.04-.02-.06-.04-.02-.02 0-.04 0-.06v-1.8ZM10.5 32c.3-.36.5-.82.5-1.33V24.2c0-.17-.07-.37-.12-.6-.1-.45-.48-.62-.77-.95-.04-.04-.11-.09-.11-.14v-2.43c0-.05.08-.08.14-.08h8.4c2.18 0 4.5.6 5.23 2.77.14.42.22 1.28.22 2.58v4.9c0 2.25-.8 3.93-3.32 4.49-.53.26-1.82.26-1.82.26H10.1c-.07 0-.1-.05-.1-.11v-2.4c0-.03.13-.05.14-.06l.36-.42Zm5.5-8.88v8.76c0 .03 0 .06.02.08.02.02.05.04.08.04h1.69a1.25 1.25 0 0 0 .84-.33c.11-.1.2-.23.26-.37.06-.14.1-.28.11-.43v-6.73a1.08 1.08 0 0 0-.34-.8 1.2 1.2 0 0 0-.84-.34h-1.69a.13.13 0 0 0-.08.03c-.03.02-.05.05-.05.09ZM31.86 20c.1 0 .14.05.14.13v2.39c0 .04-.05.08-.1.13-.35.3-.9.7-.9 1.24v7.22c0 .53.55.95.9 1.24.05.05.1.1.1.13v2.4c0 .07-.05.12-.14.12h-6.72c-.1 0-.14-.05-.14-.13v-2.39c0-.04.05-.08.1-.13.35-.3.9-.7.9-1.24v-7.22c0-.53-.55-.95-.9-1.24-.05-.05-.1-.09-.1-.13v-2.4c0-.07.05-.11.14-.12h6.72Zm-2.3 3.09a.09.09 0 0 0-.04-.06.1.1 0 0 0-.06-.03h-2.01a.1.1 0 0 0-.07.03.09.09 0 0 0-.03.06v2.43l.03.06a.1.1 0 0 0 .07.03h2a.1.1 0 0 0 .07-.03.09.09 0 0 0 .03-.06v-2.43Zm0 3.38a.08.08 0 0 0-.03-.06.1.1 0 0 0-.07-.02h-2.01a.1.1 0 0 0-.07.02.08.08 0 0 0-.02.06v2.2c0 .03 0 .05.02.07a.1.1 0 0 0 .07.02h2.01a.1.1 0 0 0 .07-.02.08.08 0 0 0 .02-.06v-2.2Zm-.01 3.19a.1.1 0 0 0-.03-.08.12.12 0 0 0-.08-.03h-1.97a.12.12 0 0 0-.08.04.1.1 0 0 0-.04.07v2.23l.04.07c.02.02.05.04.08.04h1.97l.05-.02.03-.02a.1.1 0 0 0 .03-.08v-2.22Z" fill="#336799"/><path d="M45.85 36.6h-35.7a.15.15 0 0 0-.15.15v.47c0 .08.07.14.15.14h35.7c.08 0 .15-.06.15-.14v-.47a.15.15 0 0 0-.15-.14ZM45.9 38H10.1c-.05 0-.1.04-.1.09v.82c0 .05.05.09.1.09h35.8c.05 0 .1-.04.1-.09v-.82c0-.05-.05-.09-.1-.09ZM45.9 39.5H10.1a.1.1 0 0 0-.1.11v1.28c0 .06.05.11.1.11h35.8a.1.1 0 0 0 .1-.1V39.6a.1.1 0 0 0-.1-.1Z" fill="#C33"/></svg>