<!-- by TradingView --><svg width="56" height="56" viewBox="0 0 56 56" xmlns="http://www.w3.org/2000/svg"><path fill="#F0F3FA" d="M0 0h56v56H0z"/><path fill-rule="evenodd" d="M28 38c12.15 0 22-4.48 22-10s-9.85-10-22-10S6 22.48 6 28s9.85 10 22 10Zm.14-1.77c9.27 0 16.77-3.69 16.77-8.23 0-4.54-7.5-8.23-16.77-8.23-9.26 0-16.77 3.69-16.77 8.23 0 4.54 7.5 8.23 16.77 8.23Z" fill="url(#a)"/><path d="M44.92 28c0 4.54-7.51 8.23-16.78 8.23-9.26 0-16.77-3.69-16.77-8.23 0-4.54 7.5-8.23 16.77-8.23S44.92 23.46 44.92 28Zm-16.85 9.3c10.6 0 19.18-4.1 19.18-9.16 0-5.05-8.59-9.15-19.18-9.15S8.9 23.1 8.9 28.14c0 5.05 8.58 9.15 19.17 9.15Z" fill="url(#b)"/><path d="m28.76 33.88 3.4-12.77-1.44-.9 1.12-1.82H27.6l2.27 3.14-3.55 12.35c-.5 2.34 1.03 3.5 1.86 3.78h1.12c-1.12-.7-1.12-1.76-1.12-1.76l.58-2.02Z" fill="#EBE700"/><path d="M27.65 21.53c.8-2-.34-3.1-1-3.4 3.09.42 3.44 2.45 3.22 3.4l-3.55 12.35c-.5 2.34 1.03 3.5 1.86 3.78l-4.67-.32 1.65-1.28H23.5l4.14-14.53Z" fill="#C38A23"/><defs><linearGradient id="a" x1="30.95" y1="19.57" x2="23.02" y2="35.3" gradientUnits="userSpaceOnUse"><stop stop-color="#F0E600"/><stop offset="1" stop-color="#C38A23"/></linearGradient><linearGradient id="b" x1="23.9" y1="37.29" x2="41.81" y2="22.06" gradientUnits="userSpaceOnUse"><stop stop-color="#E2C901"/><stop offset="1" stop-color="#C5901C"/></linearGradient></defs></svg>