<!-- by TradingView --><svg width="56" height="56" viewBox="0 0 56 56" xmlns="http://www.w3.org/2000/svg"><path fill="#F0F3FA" d="M0 0h56v56H0z"/><path d="M28 10c1.34 0 2.63.54 3.56 1.46 6.17 6.13 10.49 10.44 12.95 12.92a5.11 5.11 0 0 1 0 7.24 3989.4 3989.4 0 0 1-12.95 12.92 5.07 5.07 0 0 1-7.12 0A3884.94 3884.94 0 0 1 11.5 31.62a5.11 5.11 0 0 1 0-7.24c2.46-2.48 6.78-6.79 12.95-12.92A5.07 5.07 0 0 1 28 10ZM10.54 28c0 1.1.43 2.33 1.22 3.12l12.8 12.78a4.69 4.69 0 0 0 5.9.84c.26-.16.6-.45.98-.84l12.8-12.78A4.56 4.56 0 0 0 45.46 28c0-1.1-.43-2.33-1.22-3.12L31.44 12.1a4.7 4.7 0 0 0-5.9-.84c-.26.16-.6.45-.98.84l-12.8 12.78A4.56 4.56 0 0 0 10.54 28Z" fill="#3E4095"/><path d="M26.54 38a7.75 7.75 0 0 1-3-11.06A7.91 7.91 0 0 1 30 23.4l.01.02v5.21c0 .04-.02.06-.06.06-.44 0-.84.13-1.2.38-.9.6-1.27 1.44-1.1 2.5a2.3 2.3 0 0 0 2.3 1.95c.04 0 .06.02.06.05v5.17c0 .06-.03.1-.1.09-1.3-.07-2.88-.17-4.72-.3-.9-.07-1.68-.15-2.34-.25-5.45-.85-8.14-7.1-5.3-11.75a7.54 7.54 0 0 1 6.05-3.62l.01-.03v-7.53a.02.02 0 0 1 .02-.02h1.43c.02 0 .03.01.03.03v.45c0 .02-.01.03-.04.03h-.88c-.03 0-.05.01-.05.04v7.17a.04.04 0 0 0 .02.03h.02l1.3-.18h.02V15.37c0-.04.03-.06.07-.06h1.28c.02 0 .04.01.04.04v.42a.05.05 0 0 1-.05.04h-.75c-.04 0-.06.02-.06.06v7.23c0 .03.01.05.05.04l1.23-.17c.04 0 .05-.03.05-.06v-7.56c0-.01 0-.02.02-.03l.03-.01h2.32a.04.04 0 0 1 .05.04v.43c0 .03-.02.04-.05.04h-1.84l-.01.03v7.62a.03.03 0 0 1 0 .03h-.02c-5.98-.06-9.14 6.74-5.88 11.5a7.32 7.32 0 0 0 4.56 3.06c.22.05.23.03.03-.07Zm-7.74-7.86a7.23 7.23 0 0 0 5.06 7.46c.23.08.24.05.04-.07a7.83 7.83 0 0 1-3.75-7.3 7.83 7.83 0 0 1 4.7-6.7c.23-.1.22-.12-.01-.08a7.23 7.23 0 0 0-6.04 6.7Zm4.31 7.7c.01 0 .01 0 0 0a7.8 7.8 0 0 1-.54-14.18c.27-.13.26-.16-.03-.1a7.1 7.1 0 0 0-4.97 4 7.36 7.36 0 0 0 5.19 10.26c.11.02.23.03.35.02Z" fill="#ED3237"/><path d="M35.92 27h-.01v6.97c0 .03.01.03.05.03h2.3c.04 0 .05.04.04.07-1.2 2.95-3.6 4.18-7.21 4.73-.06 0-.09-.02-.09-.07V15.89c0-.12.02-.13.06-.01 1.35 4.1 3.21 9.12 7.9 11.07.06.03.05.05-.02.05h-3.02Z" fill="#3E4095"/></svg>