<!-- by TradingView --><svg width="56" height="56" viewBox="0 0 56 56" xmlns="http://www.w3.org/2000/svg"><path fill="#F0F3FA" d="M0 0h56v56H0z"/><path d="M44.96 30.5 30.5 44.96a3.54 3.54 0 0 1-5 0L11.04 30.5a3.54 3.54 0 0 1 0-5L25.5 11.04a3.54 3.54 0 0 1 5 0L44.96 25.5a3.54 3.54 0 0 1 0 5ZM30.04 11.8a2.88 2.88 0 0 0-4.08 0L11.8 25.95a2.88 2.88 0 0 0 0 4.08L25.96 44.2a2.88 2.88 0 0 0 4.08 0L44.2 30.04a2.88 2.88 0 0 0 0-4.08L30.04 11.8Z" fill="#0094DC"/><path d="M27.05 20.65c0 .52.3.94.71 1.1.02 0 .03.01.04.03a.1.1 0 0 1 .02.05v6.05c0 .08-.03.1-.08.04l-1.64-1.89a.38.38 0 0 1-.1-.25 2435.15 2435.15 0 0 1 0-10.27c0-.1.04-.18.1-.25l1.64-1.89c.05-.05.08-.04.08.04v6.05a.1.1 0 0 1-.02.05.08.08 0 0 1-.04.04c-.41.16-.71.58-.71 1.1ZM28.28 21.75c.64-.2.97-.98.65-1.65-.17-.36-.37-.45-.66-.59-.03-.01-.05-.04-.05-.07v-6.07c0-.07.03-.09.07-.03l1.67 2.01c.03.05.04.1.04.16v10.3l-.01.14a.36.36 0 0 1-.07.11L28.24 28c-.01.02-.02.01-.02-.01v-6.13c0-.02 0-.05.02-.06a.09.09 0 0 1 .04-.04Zm.07 5.52v.02h.03l1.3-1.47a.34.34 0 0 0 .07-.23V15.5a.2.2 0 0 0-.04-.13l-1.28-1.54c-.05-.07-.08-.05-.08.04v5.49c0 .02 0 .04.02.05 0 .02.02.03.04.04 1.01.43.99 1.9.03 2.39a.15.15 0 0 0-.06.06.18.18 0 0 0-.03.09v5.3ZM22.1 27.08a.04.04 0 0 0-.03-.01.04.04 0 0 0-.03.01l-2.57 2.7a.06.06 0 0 0-.01.05l.01.04 7.97 8.11c.12.13.32.3.32.47a2435.02 2435.02 0 0 0-.02 4.25.05.05 0 0 1-.04.01c-.4-.04-.74-.08-1.07-.3-.2-.13-.4-.3-.62-.53L14.76 30.63a3.23 3.23 0 0 1-.14-4.48L17.78 23c.34-.34.6-.56.8-.66.76-.4 1.69-.43 2.46-.03.23.13.6.43 1.09.92l5.45 5.43c.22.22.19.3.19.6v3.4c0 .06-.03.07-.07.03l-5.6-5.6Z" fill="#D9271B"/><path d="m33.9 27.08-5.6 5.6c-.05.04-.08.03-.08-.04v-3.39c0-.3-.03-.38.19-.6l5.45-5.43c.5-.49.86-.8 1.09-.92.77-.4 1.7-.36 2.47.03.18.1.45.32.79.66l3.16 3.16a3.23 3.23 0 0 1-.14 4.48L29.98 41.88c-.21.22-.42.4-.62.52a2.16 2.16 0 0 1-1.09.3.05.05 0 0 1-.03-.04v-4.21c0-.18.19-.34.31-.47a11578.01 11578.01 0 0 1 7.98-8.15l-.01-.05-2.57-2.7a.04.04 0 0 0-.03-.01.04.04 0 0 0-.03.01Z" fill="#0094DC"/></svg>