<!-- by TradingView --><svg width="56" height="56" viewBox="0 0 56 56" xmlns="http://www.w3.org/2000/svg"><path fill="#F0F3FA" d="M0 0h56v56H0z"/><path fill-rule="evenodd" d="M9 33H8v6h1v-2h1a1 1 0 0 0 1-1v-2a1 1 0 0 0-1-1H9Zm0 1v2h.6a.4.4 0 0 0 .4-.4v-1.2a.4.4 0 0 0-.4-.4H9Z" fill="#3B5E93"/><path d="M15.5 33h-1v1h1v5h1v-5h1v-1h-2ZM34 33h-1v1h1v5h1v-5h1v-1h-2ZM13 33h-1v6h2v-1h-1v-1.5h1v-1h-1V34h1v-1h-1ZM31.5 33h-1v6h2v-1h-1v-1.5h1v-1h-1V34h1v-1h-1Z" fill="#3B5E93"/><path fill-rule="evenodd" d="M18 33h2a1 1 0 0 1 1 1v1a1 1 0 0 1-1 1 1 1 0 0 1 1 1v2h-1v-2.1a.4.4 0 0 0-.4-.4H19V39h-1v-6Zm1 2.5V34h.6c.22 0 .4.18.4.4v.7a.4.4 0 0 1-.4.4H19ZM22.75 33c-.69 0-1.25.56-1.25 1.25v3.5a1.25 1.25 0 1 0 2.5 0v-3.5c0-.69-.56-1.25-1.25-1.25Zm0 1a.25.25 0 0 0-.25.25v3.5a.25.25 0 1 0 .5 0v-3.5a.25.25 0 0 0-.25-.25Z" fill="#3B5E93"/><path d="m25.65 39-1.15-6h.9l.85 4.45.85-4.45h.9l-1.15 6h-1.2ZM28.5 33h1v6h-1v-6ZM36.5 39v-6h1.27l.73 3.5V33h1v6h-1.32l-.68-3v3h-1Z" fill="#3B5E93"/><path fill-rule="evenodd" d="m41.02 33-.72 6h1l.13-1h.66l.12 1h1l-.72-6h-1.47Zm.95 4-.21-1.73-.21 1.73h.42Z" fill="#3B5E93"/><path d="M44 33v6h1v-4.53l.5 4.53h1.01l.49-4.53V39h1v-6h-1.78L46 35.8l-.23-2.8H44Z" fill="#3B5E93"/><path d="M21.7 22.08c1.02-2.77.3-4.87-.2-5.58 2.27.82 3.45 1.9 4.1 2.98 1.43 2.43.8 5.25.13 7.79-.63 2.38.13 3.56.6 3.85 3.54-3.25 1.2-7.99.55-11.83-.33-2.03-.28-4.16.52-5.96A7.68 7.68 0 0 1 33.31 9c-1.48 1.35-2.16 2.7-2.07 4.71.1 2.02 1.68 4.14 2.07 7.21.4 3.08-1.28 5.87-3.74 7.98a12.8 12.8 0 0 0-3.44 5.1c0-1.54-2.27-4.23-2.56-4.71-.3-.48-3.15-3.75-1.87-7.21Z" fill="#DF0024"/></svg>