<!-- by TradingView --><svg width="56" height="56" viewBox="0 0 56 56" xmlns="http://www.w3.org/2000/svg"><path fill="#F0F3FA" d="M0 0h56v56H0z"/><path d="M18 43h-5v-1.15c1.6.7 3.31 1.08 5 1.14ZM26.26 30.42c-.73.43-1.48.87-2.23 1.27l-.33-.32-5.7-6.02v8.02c-1.59-.07-3.5-.48-5-1.22v-18.2l15.28 15.3c-.69.37-1.36.77-2.02 1.17ZM42.02 43h-6.7l-4.83-4.84-.2-.2a10.79 10.79 0 0 1 5.8-.9L42.02 43Z" fill="#ED1B24"/><path d="M43 13v5H25.59l9.23 9.36c-.83 0-1.64.07-2.42.24-1.04.23-2.02.6-2.97 1.05L13.8 13H43ZM37.33 29.87c-.8-.18-1.59-.27-2.37-.29h-.08c.8 0 1.61.1 2.43.27l.02.02Z" fill="#0F75BD"/><path d="M43 20v10.3a17.13 17.13 0 0 0-4-2.02c-.18-.07-.81-.13-1-.18V25h-4v-5h9ZM43 39.9v2.33l-4.7-4.7.46.15A16.8 16.8 0 0 1 43 39.9Z" fill="#0F75BD"/><path d="M30.29 37.96c-1.23.55-2.41 1.27-3.57 1.98-1.83 1.12-3.73 2.27-5.84 2.78a10.45 10.45 0 0 1-2.88.27v-.74h.02l.41.01h.01a14.5 14.5 0 0 0 .86-.04 9.9 9.9 0 0 0 1.58-.24c2.11-.5 4.01-1.66 5.84-2.79 1-.6 2.02-1.23 3.07-1.74l.18.19.05.04.02.03.25.25ZM18 41.51v.74c-1.69-.06-3.4-.45-5-1.14v-.74c1.6.7 3.31 1.08 5 1.14ZM35.29 36.25c-.94-.04-1.86.03-2.74.22-.95.2-1.87.56-2.77.98l-.27-.27-.02-.02-.2-.2c1.05-.54 2.13-.98 3.26-1.23.65-.14 1.3-.21 1.99-.23l.16.17.06.06.52.52Z" fill="#ED1B24"/><path d="M43 38.42v.74a16.8 16.8 0 0 0-4.24-2.22c-.49-.17-.97-.3-1.46-.41l-.9-.9a13 13 0 0 1 2.36.57A16.8 16.8 0 0 1 43 38.42Z" fill="#0F75BD"/><path d="M29.31 36.95c-.88.46-1.74.99-2.59 1.5-1.83 1.13-3.73 2.28-5.84 2.79a9.9 9.9 0 0 1-2.44.28h-.42L18 41.5v-.74h.75a9.58 9.58 0 0 0 2.13-.27c2.11-.5 4.01-1.66 5.84-2.79.7-.42 1.4-.85 2.11-1.24l.27.27.02.02.2.2ZM18 40.03v.74c-1.69-.06-3.4-.45-5-1.14v-.74c1.6.7 3.31 1.08 5 1.14Z" fill="#ED1B24"/><path d="M33.83 34.8c-.43.04-.86.1-1.28.19-1.3.28-2.55.84-3.75 1.48l-.48-.48a15.43 15.43 0 0 1 4.23-1.74c.2-.05.41-.08.62-.11l.13.13.2.21h.01l.32.32Z" fill="#ED1B24"/><path d="M43 36.94v.74a16.8 16.8 0 0 0-4.24-2.23 12.56 12.56 0 0 0-3.2-.66l-.76-.77c1.3 0 2.63.24 3.96.7A16.8 16.8 0 0 1 43 36.93Z" fill="#0F75BD"/><path d="M28.37 36c-.56.31-1.1.64-1.65.97-1.83 1.12-3.73 2.28-5.84 2.79a9.9 9.9 0 0 1-2.44.28l-.42-.01H18v-.74h.44a15.19 15.19 0 0 0 .86-.03 9.9 9.9 0 0 0 1.58-.24c2.11-.5 4.01-1.67 5.84-2.79l1.19-.71.46.47ZM18 38.55v.74c-1.69-.06-3.4-.45-5-1.14v-.74c1.6.7 3.31 1.08 5 1.14ZM32.54 33.51c-1.65.36-3.2 1.15-4.7 2l-.46-.46a19.68 19.68 0 0 1 4.57-2.13l.1.1.5.5Z" fill="#ED1B24"/><path d="M43 35.46v.74a16.8 16.8 0 0 0-4.24-2.23 12.56 12.56 0 0 0-4.31-.69l-.2.01-.17.01-.41-.41-.27-.27a8.4 8.4 0 0 1 1.05-.08l.79.01c1.16.05 2.34.28 3.52.68A16.8 16.8 0 0 1 43 35.46Z" fill="#0F75BD"/><path d="m27.45 35.05-.73.44c-1.83 1.12-3.73 2.28-5.84 2.78a9.9 9.9 0 0 1-2.13.28H18v-.74h.75a9.58 9.58 0 0 0 2.13-.28c2.11-.5 4.01-1.66 5.84-2.78.1-.05.19-.1.28-.17l.26.27.06.07.06.06.07.07ZM18 37.07v.74c-1.69-.06-3.4-.45-5-1.14v-.74c1.6.7 3.31 1.08 5 1.14ZM31.39 32.35a23.84 23.84 0 0 0-4.47 2.23l-.03-.02-.05-.05-.1-.1-.28-.28v-.01l.17-.1c1.36-.82 2.75-1.64 4.21-2.2l.1.09.42.41.03.03Z" fill="#ED1B24"/><path d="M43 33.98v.74a16.8 16.8 0 0 0-4.24-2.23 12.56 12.56 0 0 0-4.31-.69l-.22.01-.21.01c-.43.03-.85.09-1.26.17l-.6-.6.4-.1c1.94-.42 4.08-.26 6.2.46A16.8 16.8 0 0 1 43 33.98Z" fill="#0F75BD"/><path d="M26.55 34.12c-1.78 1.09-3.62 2.19-5.67 2.67a9.9 9.9 0 0 1-2.44.29l-.42-.01H18v-.74h.75a9.67 9.67 0 0 0 2.13-.28c1.87-.44 3.58-1.4 5.21-2.4l.04.05.27.27.15.15ZM18 35.59v.74c-1.69-.06-3.4-.45-5-1.14v-.74c1.6.69 3.31 1.08 5 1.14ZM30.32 31.28c-1.27.56-2.5 1.28-3.69 2l-.64.38-.03-.03-.02-.02-.03-.03-.04-.04-.27-.28-.07-.07 1.1-.66a37.98 37.98 0 0 1 3.18-1.76l.07.08h.01l.02.03.36.36.05.04Z" fill="#ED1B24"/><path d="M43 32.5v.74c-1.4-1-3.22-1.88-4.64-2.37l-.36-.1v-.75c.1.04.25.07.36.1 1.42.5 3.24 1.39 4.64 2.38Z" fill="#0F75BD"/><path d="M25.64 33.19c-1.5.89-3.06 1.72-4.76 2.12a9.9 9.9 0 0 1-2.13.28H18v-.74h.44a15.19 15.19 0 0 0 .86-.03 9.9 9.9 0 0 0 1.58-.25 16.07 16.07 0 0 0 4.3-1.85l.1.1.28.28.08.09Z" fill="#ED1B24"/><path d="M38.33 30.88c-.96-.3-1.93-.48-2.89-.54H35.33l-.45-.02h-.26l-.33.01-.23.01h-.14l-.05.01h-.04l-.25.03a9.82 9.82 0 0 0-2 .42l-.36-.36-.1-.1-.03-.03-.06-.06a11.24 11.24 0 0 1 3.25-.67H34.87c.8 0 1.62.1 2.43.26l.03.02.1.1.04.05.61.61.25.25Z" fill="#0F75BD"/><path d="M18 34.1v.75c-1.69-.06-3.4-.45-5-1.14v-.74c1.6.69 3.31 1.08 5 1.14ZM29.31 30.28c-.91.46-1.8 1-2.68 1.51-.52.31-1.05.63-1.58.93l-.07-.07-.27-.27-.06-.06v-.01l-.08-.07c.7-.38 1.39-.79 2.06-1.19.72-.43 1.45-.86 2.2-1.26l.07.08.02.01.4.4Z" fill="#ED1B24"/><path d="M36.42 28.95a11.84 11.84 0 0 0-2.22-.1l-.24.02a10.37 10.37 0 0 0-3.46.85l-.35-.35-.05-.04-.11-.12c.83-.38 1.68-.7 2.56-.88a10.23 10.23 0 0 1 2.69-.22h.18l.17.02.83.82ZM43 31.02v.74c-1.53-1-3.09-1.74-4.65-2.23l-.35-.1v-.74l.35.1c1.56.49 3.12 1.24 4.65 2.23Z" fill="#0F75BD"/><path d="M24.72 32.24a15.14 15.14 0 0 1-3.84 1.6 9.9 9.9 0 0 1-2.13.27H18v-.74a9.8 9.8 0 0 0 2.71-.26c1.21-.29 2.36-.8 3.47-1.42l.54.55Z" fill="#ED1B24"/></svg>