<!-- by TradingView --><svg width="56" height="56" viewBox="0 0 56 56" xmlns="http://www.w3.org/2000/svg"><path fill="#F0F3FA" d="M0 0h56v56H0z"/><path fill-rule="evenodd" d="M27.29 45.73c.68.1 1.48-.96 1.4-1.06.26.12.51.48.74.8.12.17.23.33.34.44.05.06.12.09.2.09h9.9c.09 0 .13-.04.13-.13V10.13c0-.09-.04-.13-.12-.13H16.12c-.08 0-.12.04-.12.13v35.73c0 .08.04.14.12.14h8.98a7 7 0 0 0 1.4-1.34c.42.22.67.6.79 1.07Zm10.67-2.77a.14.14 0 0 0 .04-.1V11.14a.14.14 0 0 0-.04-.1.12.12 0 0 0-.08-.04H18.12a.12.12 0 0 0-.08.04.14.14 0 0 0-.04.1v31.72c0 .04.01.07.04.1.02.03.05.04.08.04h19.76c.03 0 .06-.01.08-.04Z" fill="#006C04"/><path d="M34 23.95V14H20v-1.92c0-.02 0-.04.02-.06a.07.07 0 0 1 .05-.02h16.61c.03 0 .07 0 .1.02l.08.06.05.09.04.05c.03.02.05.04.05.06v16.29c.03 1.38-.06 2.4-.26 3.06a6.51 6.51 0 0 1-2.96 3.75c-1.02.62-1.73 1-2.12 1.12a8.83 8.83 0 0 1-9.05-1.92 6.8 6.8 0 0 1-1.82-7.35 8.1 8.1 0 0 1 5.68-4.8 8.36 8.36 0 0 1 7.06 1.2l.33.22.14.1Zm-.83 9.59c1.2-1 1.89-2.38 1.9-3.82 0-.72-.15-1.43-.47-2.09a5.47 5.47 0 0 0-1.37-1.77 6.57 6.57 0 0 0-2.06-1.2 7.38 7.38 0 0 0-2.44-.44 7 7 0 0 0-4.54 1.55c-1.2 1.01-1.89 2.39-1.9 3.83 0 .71.15 1.42.47 2.08.31.66.78 1.27 1.37 1.78.59.5 1.29.91 2.06 1.2.78.27 1.6.42 2.45.43a7 7 0 0 0 4.53-1.55Zm.04-2.26c.25-.5.38-1.05.38-1.6a3.9 3.9 0 0 0-1.43-2.96 5.66 5.66 0 0 0-5.35-.93c-.6.21-1.14.52-1.6.9a4.2 4.2 0 0 0-1.06 1.36c-.25.5-.38 1.05-.38 1.6 0 1.1.5 2.17 1.43 2.96a5.67 5.67 0 0 0 5.35.93c.6-.21 1.14-.52 1.6-.9a4.2 4.2 0 0 0 1.06-1.36Zm-1.35-1.53a2.57 2.57 0 0 1-.97 1.92c-.6.5-1.42.78-2.27.76a3.48 3.48 0 0 1-2.24-.85 2.58 2.58 0 0 1-.9-1.96c.01-.73.36-1.42.97-1.93.6-.5 1.42-.78 2.27-.76.85.02 1.66.32 2.24.85.6.53.92 1.24.9 1.97Zm-3.2 1.38c.98 0 1.77-.65 1.77-1.45 0-.81-.78-1.47-1.75-1.47-.98 0-1.77.65-1.77 1.45 0 .81.78 1.47 1.76 1.47ZM28.8 39.66c.03.01.07 0 .1-.01.07-.03.1-.08.1-.16v-1.24c0-.17.08-.25.24-.25h1.05c.18 0 .27.1.27.29v3.5c0 .02 0 .05-.03.07a.11.11 0 0 1-.07.04c-.41.06-.7.1-.88.1-.07 0-.26-.05-.6-.15-.13-.05-.26-.18-.37-.4a7.18 7.18 0 0 0-.7-1.18c-.43-.57-.62-.5-.56.22l.1 1.2c.02.13-.08.31-.22.31h-.98c-.17 0-.25-.13-.25-.3v-3.58c0-.03.01-.06.03-.08a.12.12 0 0 1 .09-.04h1.6c.1 0 .18.05.24.14.2.34.43.8.7 1.38.03.09.08.13.13.14ZM33.22 40c0 .59.45.94 1.33 1.07.12.02.38 0 .78-.07.14-.02.22.05.22.2v.35c0 .2-.1.32-.27.35-1.35.3-3.5 0-3.51-1.88-.01-1.89 2.14-2.2 3.48-1.94.18.04.27.15.27.35v.35c.01.16-.06.23-.2.2-.4-.05-.66-.07-.78-.05-.88.14-1.32.5-1.32 1.08Z" fill="#E00"/><path fill-rule="evenodd" d="M20.65 38.11v.06l.01 3.67c0 .05.02.09.05.11.02.03.06.05.1.05l2.06-.01c.28 0 .56-.05.82-.14.26-.09.5-.21.7-.38.2-.16.35-.35.45-.56.11-.21.17-.44.16-.66v-.53c0-.46-.23-.9-.63-1.22-.4-.32-.95-.5-1.52-.5l-2.06.01-.06.01a.14.14 0 0 0-.05.04.16.16 0 0 0-.03.05Zm1.43.86a.28.28 0 0 0-.08.18v1.71c0 .07.03.14.07.19.05.05.1.07.17.07h.23c.15 0 .3-.02.43-.07.14-.04.27-.12.37-.2.11-.1.2-.2.25-.32a.85.85 0 0 0 .09-.37v-.29c0-.26-.12-.5-.33-.69-.22-.18-.5-.28-.8-.29h-.23a.23.23 0 0 0-.17.08Z" fill="#E00"/></svg>