<!-- by TradingView --><svg width="56" height="56" viewBox="0 0 56 56" xmlns="http://www.w3.org/2000/svg"><path fill="#F0F3FA" d="M0 0h56v56H0z"/><path d="M11.87 32.88c.08 0 .15 0 .22-.03.91 2.91 2.46 5.39 4.63 7.44a16.05 16.05 0 0 0 7.71 4.08 16.77 16.77 0 0 0 19.72-11.66c.33-1.2.53-2.45.61-3.74a16.5 16.5 0 0 0-1.56-8.14 16.88 16.88 0 0 0-6.5-7.2 15.9 15.9 0 0 0-6.9-2.31 16.52 16.52 0 0 0-16.89 9.7c-.08.01-.13.07-.18.16-.03.07-.08.08-.14.02l-.09-.08a17.93 17.93 0 0 1 6.3-7.35 16.9 16.9 0 0 1 17-.91c1.95.99 3.63 2.3 5.05 3.91a17.2 17.2 0 0 1 3.95 8.08 13 13 0 0 1 .2 2.51c0 1.33-.01 2.17-.05 2.53a16.62 16.62 0 0 1-3.82 9c-.48.62-.92 1.1-1.32 1.47a17.05 17.05 0 0 1-23.5-.1 17.42 17.42 0 0 1-4.24-6.76c-.02-.04 0-.08.04-.1.02 0 .03-.03.01-.06a.22.22 0 0 0-.04-.06.85.85 0 0 1-.2-.4Z" fill="#030303"/><path d="M11.97 29.74c.12 0 .2.01.24.03.06.77.2 1.52.4 2.25.98 3.5 2.86 6.36 5.67 8.6a15.45 15.45 0 0 0 6.27 3c2.38.54 4.72.54 7.03 0A16 16 0 0 0 41.26 37a15.86 15.86 0 0 0 1.97-14.07 7.24 7.24 0 0 0-.75-1.75c-.05-.07-.11-.08-.18-.05-.23.1-.42.26-.58.47-.02.02-.04.02-.06 0l-.08-.03c-.03-.02-.04-.04 0-.07l.45-.46a.2.2 0 0 1 .2-.06l.09.02c.1 0 .12-.03.08-.12a16.2 16.2 0 0 0-5.87-6.46 15.47 15.47 0 0 0-9.25-2.39 15.48 15.48 0 0 0-8.95 3.32c-.1.08-.1.16.03.22.19.09.42.14.68.17.04 0 .06.02.08.05l.08.2c.04.1.02.13-.08.07l-.88-.47a.2.2 0 0 0-.22.02c-.34.25-.62.49-.85.7a16.38 16.38 0 0 0-4.45 7.34c-.07-.03-.13-.11-.18-.26a16.13 16.13 0 0 1 7.28-9.34 15.98 15.98 0 0 1 6.76-2.2c2.42-.23 4.77.08 7.05.9 2.73 1 5.03 2.62 6.9 4.85a16.08 16.08 0 0 1 3.73 11.48 15.88 15.88 0 0 1-3.36 8.87 16.08 16.08 0 0 1-10.44 6.1c-2.5.38-4.95.17-7.35-.6a15.99 15.99 0 0 1-6.33-3.81 16 16 0 0 1-4.81-9.9Z" fill="#030303"/><path d="M12.21 29.77c-.2-2.05-.03-4.09.51-6.12a16.38 16.38 0 0 1 4.45-7.34c.23-.21.51-.45.85-.7a.2.2 0 0 1 .22-.02l.88.47c.1.06.13.03.08-.07l-.08-.2a.08.08 0 0 0-.08-.05c-.26-.03-.49-.08-.68-.17-.13-.06-.14-.14-.03-.22a15.48 15.48 0 0 1 8.95-3.32c3.36-.17 6.45.63 9.25 2.4a16.2 16.2 0 0 1 5.87 6.45c.04.09.02.13-.08.12l-.1-.02a.2.2 0 0 0-.19.06l-.46.46c-.03.03-.02.05.01.07l.08.04c.02.01.04 0 .06-.01.16-.21.35-.37.58-.47.07-.03.13-.02.18.05.25.39.5.97.75 1.75A15.86 15.86 0 0 1 41.26 37a16 16 0 0 1-9.68 6.62c-2.31.54-4.65.54-7.03 0a15.45 15.45 0 0 1-6.27-3c-2.8-2.24-4.7-5.1-5.67-8.6-.2-.73-.34-1.48-.4-2.25Z" fill="#FFF302"/><path d="m28.7 13 .06.97c0 .02-.01.04-.04.04h-.36c-.03 0-.05-.02-.04-.05l.1-.94c.01-.06 0-.08-.06-.08h-.44l-.02-.02.02-.07c0-.03.03-.05.06-.06.37-.1.74-.1 1.12-.03.08.01.13.04.14.07 0 .04 0 .08-.02.11-.03.06-.07.07-.13.04a.55.55 0 0 0-.27-.09c-.08 0-.12.03-.11.11ZM27.03 13.63l-.13-.13c-.06-.07-.05-.1.04-.1l.44.01c.07 0 .08.04.04.11a.76.76 0 0 0-.05.27c0 .07-.04.12-.1.15a1 1 0 0 1-.97.03.27.27 0 0 1-.13-.15c-.1-.26-.1-.49-.05-.69.07-.25.25-.37.54-.38.14 0 .15.03.02.1-.36.17-.42.48-.18.92.1.17.24.24.43.2a.19.19 0 0 0 .15-.14.19.19 0 0 0-.05-.2Z" fill="#030303"/><path d="M26.83 12.8c-.03-.02-.02-.04.02-.04.14-.02.27 0 .4.03.05.02.07.06.05.12l-.02.09c0 .02-.02.03-.04.02a.93.93 0 0 1-.4-.21ZM25.66 13.18a.73.73 0 0 0-.18-.13c-.1-.05-.1-.1 0-.15a.35.35 0 0 1 .12-.03c.1 0 .14.04.13.14l.01.13c.03.1 0 .12-.08.04ZM29.9 13.24a.3.3 0 0 1-.18.08c-.06 0-.08-.03-.04-.08l.17-.32a.16.16 0 0 1 .15-.08h.13c.05 0 .08.02.08.08 0 .46.09.85.27 1.17.04.07.02.1-.07.09l-.28-.03c-.09 0-.11-.05-.08-.14.03-.06.03-.1.03-.13-.05-.2-.17-.26-.35-.18-.19.08-.28.17-.26.28.01.07-.01.1-.08.08l-.16-.03c-.12-.03-.12-.06 0-.1l.09-.02c.04-.01.07-.04.08-.1.05-.24.21-.34.47-.3.1.01.14-.03.14-.12v-.1c0-.09-.03-.1-.1-.05Z" fill="#030303"/><path d="M23.61 12.96a.2.2 0 0 1 .16.02c.02.01.03.03.02.05 0 .03-.01.04-.03.04a.29.29 0 0 1-.16 0c-.13-.04-.13-.08.01-.12Z" fill="#3F3E3B"/><path d="M24.54 13.23c-.08-.05-.07-.1.03-.12l.2-.06c.05 0 .1 0 .13.02l.62.43c.21.15.34.3.36.47.03.16-.02.19-.16.1l-1.18-.84ZM32.12 13.7c0 .2-.06.35-.2.48-.13.14-.29.2-.48.2a.65.65 0 0 1-.48-.2.65.65 0 0 1-.2-.48c0-.19.06-.35.2-.48.13-.14.3-.2.48-.2.19 0 .35.06.48.2.14.13.2.3.2.48Z" fill="#030303"/><path d="M31.68 14c-.12.2-.27.26-.45.22a.16.16 0 0 1-.13-.15c-.04-.36.05-.65.26-.87.1-.1.2-.1.3-.02.18.17.2.35.04.54a.1.1 0 0 0-.02.1c0 .02.03.04.05.06h.05a.54.54 0 0 1 .09-.07c.1-.04.12-.02.06.06a.13.13 0 0 1-.1.05.2.2 0 0 0-.15.09Z" fill="#FFF302"/><path d="M23.46 14.48c-.1-.27-.11-.57-.05-.9.02-.1.09-.16.2-.18.1-.02.18.02.23.1.22.36.45.62.67.79.07.05.07.09-.02.1-.13.03-.23.07-.32.13-.07.04-.1.02-.11-.06-.01-.17-.1-.3-.3-.37-.06-.02-.07-.06-.02-.11.06-.06.07-.1.05-.12-.18-.2-.26-.18-.26.06v.62c0 .06.04.08.1.07l.03.04-.01.03a.16.16 0 0 1-.14.07c-.08 0-.1-.03-.06-.1a.34.34 0 0 0 .03-.09l-.02-.08ZM24.7 13.81c0 .13.04.23.08.23s.06-.11.04-.24c0-.13-.05-.23-.08-.23-.04 0-.06.11-.05.24ZM22.27 14.19c.2 0 .42.03.68.12.08.03.13.09.12.18 0 .09-.04.13-.12.12l-.75-.07a.33.33 0 0 1-.29-.2.29.29 0 0 1 .05-.34c.19-.2.45-.29.78-.25.04 0 .06.02.06.06l.02.07c0 .06-.01.08-.07.06-.23-.07-.41-.07-.55 0-.3.18-.28.26.07.25ZM33.95 14.77c-.06.05-.06.17 0 .35.03.06 0 .09-.07.08a.79.79 0 0 1-.38-.17c-.08-.07-.07-.13.02-.18l.13-.07a.16.16 0 0 0 .1-.15c0-.18.06-.34.18-.48a.12.12 0 0 0 .03-.11l-.01-.09c-.02-.1.01-.12.1-.07l.64.34c.07.04.1.1.11.17.01.12.01.23-.01.31a.16.16 0 0 1-.15.13.89.89 0 0 1-.47-.1.2.2 0 0 0-.22.04ZM32.54 14.28c-.06-.04-.05-.09 0-.12.04-.02.1-.03.17-.02h.16c.09 0 .15.04.19.12.02.08 0 .13-.08.15a.52.52 0 0 1-.44-.13Z" fill="#030303"/><path d="M34.45 14.57c.13-.07.18-.21.12-.31s-.2-.12-.33-.05c-.13.08-.18.22-.12.32.05.1.2.12.33.04Z" fill="#FFF302"/><path d="M14.66 29.36c.03-.27.09-.36.19-.28.13 1.78.61 3.47 1.45 5.07a13.85 13.85 0 0 0 3.29 4.1 13.07 13.07 0 0 0 13.84 2 13.28 13.28 0 0 0 7.8-10.1 14 14 0 0 0-.46-6.21 13 13 0 0 0-3.24-5.3 12.98 12.98 0 0 0-5.47-3.4c-1.75-.53-3.5-.71-5.25-.55a13.2 13.2 0 0 0-8.73 4.53 14.08 14.08 0 0 0-2.63 4.55.97.97 0 0 1-.07.02c-.05 0-.08 0-.1-.05l-.03-.13c.87-2.4 2.22-4.4 4.05-5.97a13 13 0 0 1 6.46-3.04 13.39 13.39 0 0 1 12.6 4.55 13.45 13.45 0 0 1 3 11.58c-.21 1.18-.59 2.27-1.1 3.3-.05.07-.02.12.07.12a.2.2 0 0 0 .06 0c.03-.01.04 0 .05.02 0 .02 0 .03-.02.04a.53.53 0 0 1-.19.06.2.2 0 0 0-.16.1 13.68 13.68 0 0 1-6.09 5.89 13.3 13.3 0 0 1-8.36 1.12c-3.4-.6-6.19-2.36-8.34-5.26a11.9 11.9 0 0 1-1.56-2.6 14.84 14.84 0 0 1-.93-2.93l-.13-1.23ZM34.6 15.55c.32-.32.53-.64.62-.98.02-.1.08-.12.16-.06l.2.13c.05.03.05.06.03.1l-.67 1.01c-.03.05-.07.06-.12.03l-.2-.14c-.05-.03-.05-.06-.02-.09Z" fill="#030303"/><path d="M14.85 29.08c-.1-1.8.1-3.57.6-5.31.6-1.7 1.48-3.22 2.63-4.55a13.2 13.2 0 0 1 13.98-3.98c2.02.62 3.84 1.75 5.47 3.4a13 13 0 0 1 3.24 5.3 14 14 0 0 1 .46 6.2 13.28 13.28 0 0 1-7.8 10.1 13.07 13.07 0 0 1-13.84-1.99 13.85 13.85 0 0 1-3.29-4.1 12.84 12.84 0 0 1-1.45-5.07Z" fill="#F0F3FA"/><path d="M22.64 14.96c.14-.05.3-.14.45-.26.03-.03.06-.03.1 0l.04.05-.03.02c-.3.25-.66.36-1.05.33-.07-.01-.1-.05-.08-.11l.02-.1c.02-.05.06-.08.12-.08.07.01.15.05.23.12.06.05.12.06.2.03ZM19.64 15.35a.28.28 0 0 0-.07.03c-.05.03-.07.07-.04.13.02.02.02.05.02.06 0 .08-.04.1-.1.07a.28.28 0 0 1-.13-.1c-.04-.08-.03-.14.04-.18l.75-.48a.15.15 0 0 1 .18 0c.07.05.13.12.18.2.04.07.02.09-.05.06-.19-.08-.32-.08-.4 0-.07.05-.07.1-.01.17l.21.21c.05.05.09.12.1.2.02.16.12.26.3.3.1.01.11.04.03.1-.08.06-.2.1-.35.13-.08.02-.13-.01-.14-.1-.02-.15-.16-.4-.4-.75a.11.11 0 0 0-.12-.05ZM35.26 15.88c.32-.29.53-.59.63-.9.03-.1.09-.1.16-.05l.18.13c.04.03.05.07.02.1l-.68.93c-.03.04-.07.04-.1.01l-.2-.14c-.04-.03-.04-.05-.01-.08ZM21.29 15.24c.15-.05.25-.15.23-.22-.03-.06-.17-.07-.32-.02-.14.05-.25.15-.22.22.02.06.16.07.3.02Z" fill="#030303"/><path d="M24.94 19.61c-.01.1-.07.16-.18.16-.77 0-1.38.14-1.84.4-.41.23-.72.2-.93-.1a.17.17 0 0 1-.01-.18c.7-1.38 1.52-2.77 2.46-4.17a.3.3 0 0 1 .17-.12c1.02-.3 2.07-.45 3.15-.47.1 0 .14.05.14.14v1.07c0 .07-.04.11-.1.13a3.46 3.46 0 0 0-2.86 3.14ZM31.5 19.7c-.22-1.9-1.28-2.99-3.15-3.27-.04 0-.06-.02-.06-.06V15.2c0-.05.03-.08.08-.08 1.05.01 2.14.17 3.28.48.15.04.26.16.34.35.03.09.07.15.1.2a37.72 37.72 0 0 1 2.22 3.79c.03.05.02.1-.04.13l-.34.23a.2.2 0 0 1-.23 0 4.28 4.28 0 0 0-2.1-.55c-.06 0-.09-.02-.1-.07Z" fill="#ACD204"/><path d="m36.68 16.43-.1-.14c-.05-.1-.03-.13.08-.13l.2.01c.04 0 .06 0 .07-.03a.07.07 0 0 0 0-.07l-.07-.11a.11.11 0 0 0-.13-.05c-.13.02-.31.17-.54.43-.1.12-.21.12-.34 0l-.1-.1c-.1-.07-.09-.09.03-.03.06.04.12.05.17.05.05 0 .1-.02.16-.06.29-.24.56-.43.82-.58a.17.17 0 0 1 .2.01c.06.05.09.11.07.2L36.9 17c-.01.05-.04.06-.08.02l-.24-.21c-.1-.08-.1-.15.01-.21l.06-.04c.06-.04.07-.08.03-.14Z" fill="#030303"/><path d="M19.5 18.59c-.09-.05-.1-.1-.02-.16a12.87 12.87 0 0 1 4.2-2.54c.15-.05.18-.01.1.12l-2.1 3.65c-.06.1-.13.12-.23.06L19.5 18.6ZM36.69 18.59l-1.92 1.1c-.1.05-.17.03-.22-.06l-2.04-3.57c-.08-.14-.05-.17.1-.12 1.51.56 2.88 1.4 4.1 2.5.06.05.06.1-.02.15Z" fill="#ACD204"/><path d="M18.88 16.62c.1.23.23.33.4.3.07 0 .12-.04.15-.1l.16-.3c.03-.06.07-.06.11 0l.07.1c.02.03.02.06-.02.09l-.69.52-.08.06-.7-.92c-.09-.12-.11-.19-.07-.21l.29-.15c.1-.06.14-.03.1.08a.9.9 0 0 1-.02.06.12.12 0 0 0 0 .1c.05.13.14.16.26.11a.44.44 0 0 1 .41.02c.14.08.13.11-.02.11h-.28c-.08 0-.1.05-.07.13ZM37.88 16.39a.8.8 0 0 1-.3.07c-.13 0-.14-.04-.04-.1.15-.1.26-.15.32-.13.16.04.16.1.02.16ZM37.35 17.27l.69-.7c.09-.08.17-.08.25.02.1.13.23.23.39.3.04.03.04.05 0 .07l-.07.05h-.03l-.34-.19c-.07-.03-.12-.02-.15.06-.11.24-.28.47-.5.68-.05.05-.1.05-.15 0l-.1-.09c-.06-.07-.06-.13 0-.2ZM17.52 16.96a.39.39 0 0 1 .3-.3c.1-.03.14.01.12.11 0 .04-.02.08-.05.12a.18.18 0 0 1-.1.08 1 1 0 0 1-.29.06c-.03 0-.03 0-.01-.03h.01a.07.07 0 0 0 .02-.04Z" fill="#030303"/><path d="m32.56 25.93-.04-.04a.08.08 0 0 1-.02-.06v-1.88c0-.08.03-.14.1-.17a1 1 0 0 1 .31-.11c.15-.02.16-.07.03-.14l-4.6-2.48a.4.4 0 0 0-.4 0l-4.54 2.42c-.21.12-.2.2.03.25l.14.04c.06.01.09.06.09.13l.04 2.04a3.09 3.09 0 0 1-1.97-1.68 2.78 2.78 0 0 1 .01-2.34c.58-1.31 1.71-1.9 3.4-1.78.1.01.15-.04.15-.14a3.18 3.18 0 0 1 1.58-2.83 2.72 2.72 0 0 1 3.18.32c.74.6 1.1 1.42 1.08 2.47 0 .15.07.22.21.2a3.2 3.2 0 0 1 2.3.6c.58.44.95 1.02 1.1 1.74.16.72.06 1.4-.3 2.01a3.1 3.1 0 0 1-1.88 1.43Z" fill="#079543"/><path d="M18.17 17.31c.18.08.37.1.56.09.12-.02.13.02.05.1-.29.24-.62.23-1-.06-.06-.05-.06-.12 0-.22.05-.06.1-.08.16-.05a.9.9 0 0 1 .1.06l.13.08ZM18.16 17.93c.03.02.03.05 0 .09l-.15.16c-.04.04-.07.04-.11 0l-.82-.74c-.03-.03-.03-.07 0-.1l.15-.16c.06-.07.11-.07.16.02.15.27.41.52.77.73ZM39.23 17.83c.04.06.09.08.14.06.1-.03.17 0 .22.08.09.18.2.3.33.36.05.03.05.08 0 .14-.03.03-.11.08-.26.13-.09.03-.11 0-.07-.08.05-.11.05-.2 0-.27s-.1-.07-.17-.01l-.55.54a.1.1 0 0 0-.02.12l.04.08c.02.02.02.04-.02.04a.14.14 0 0 1-.1-.05l-.24-.26c-.05-.06-.04-.1.03-.15.19-.1.36-.23.53-.38.26-.25.21-.37-.14-.37h-.12c-.1 0-.12-.03-.03-.09.11-.08.23-.15.37-.19.05-.02.1 0 .11.05.01.03 0 .06-.03.1-.04.04-.05.1-.02.15ZM16.1 19.12c.24.2.47.33.68.4.09.04.1.08.02.15-.16.14-.28.3-.36.47a.2.2 0 0 1-.16.12.82.82 0 0 1-.47-.1.92.92 0 0 0-.5-.1.14.14 0 0 1-.16-.07 1.07 1.07 0 0 0-.06-.1c-.17-.13-.15-.18.08-.15.38.04.76.1 1.13.2.12.03.21-.02.28-.16.03-.07.02-.13-.05-.17a2.07 2.07 0 0 1-.57-.5.14.14 0 0 0-.15-.05l-.07.01c-.08.02-.1-.01-.06-.08l.12-.2a.2.2 0 0 1 .17-.1l.77-.06c.13 0 .15-.05.06-.14a.76.76 0 0 0-.48-.2c-.1 0-.12-.05-.07-.13.04-.06.11-.08.22-.07.08.02.15.06.2.13.19.23.4.42.64.57.03.01.04.04.03.07 0 .03-.02.04-.06.04l-1.15.1c-.12 0-.13.04-.04.12ZM39.13 19.31c.4-.15.72-.35.93-.6.07-.08.12-.07.18 0l.11.2c.03.04.03.08-.02.1l-.99.62c-.04.03-.08.02-.1-.03l-.13-.2c-.03-.04-.02-.07.02-.09Z" fill="#030303"/><path d="M19.61 23.83a.25.25 0 0 0-.24.03.25.25 0 0 0-.11.23c.05 1.22-.12 2.43-.5 3.62-.02.07-.07.11-.14.11h-3.23c-.1 0-.14-.05-.13-.14.1-3.4 1.34-6.33 3.72-8.77.09-.09.18-.1.28-.04l2.07 1.2c.07.04.1.1.06.18l-1.35 3.65c-.01.05-.05.07-.1.05l-.33-.12ZM36.79 23.81c-.1 0-.2.04-.32.1a.2.2 0 0 1-.18 0 .2.2 0 0 1-.12-.13 21.74 21.74 0 0 0-1.36-3.53c-.02-.04-.02-.07.02-.1l1.96-1.26c.16-.1.3-.09.43.05 1.95 2 3.16 4.39 3.6 7.19.04.18.07.7.1 1.55 0 .1-.04.14-.14.14H37.7c-.11 0-.18-.05-.21-.16-.36-1.2-.52-2.42-.49-3.65 0-.13-.06-.2-.2-.2Z" fill="#ACD204"/><path d="M39.7 20.13a.23.23 0 0 1-.08-.03c-.08-.04-.09-.1-.03-.16.25-.3.57-.53.97-.68.03-.02.06-.01.08.01.03.02.04.05.03.09l-.07.27c-.02.07-.06.1-.13.1h-.23c-.1 0-.17.04-.23.11a.28.28 0 0 0-.06.25c.03.12.03.22.01.27-.02.07-.06.08-.1.02a.3.3 0 0 1-.07-.15.1.1 0 0 0-.1-.1ZM40.51 20.28c.12-.08.25-.19.4-.31.04-.05.1-.05.14 0l.13.18c.06.08.04.13-.06.17-.17.05-.34.13-.5.23l-.38.33c-.05.05-.1.05-.14-.01l-.13-.17c-.06-.09-.05-.14.05-.17.17-.06.34-.14.5-.25ZM15.56 20.54l-.18-.18c-.1-.1-.07-.14.06-.14h.14c.08 0 .12.04.12.13-.02.2.1.38.33.5.05.03.05.06 0 .09l-.07.04a.05.05 0 0 1-.05 0 .85.85 0 0 1-.33-.4.07.07 0 0 0-.02-.04Z" fill="#030303"/><path d="m23.57 26.25.01 1.57-3.2.01c-.15 0-.2-.07-.17-.21.29-1.19.35-2.1.17-2.74-.08-.33-.1-.56-.06-.7l1.35-3.64c.03-.07.08-.1.16-.08.08.03.16.07.23.12.06.05.07.1.02.17-.84 1.02-1.12 2.08-.83 3.17.3 1.1 1.07 1.88 2.32 2.33ZM32.58 27.85l.03-1.6a3.26 3.26 0 0 0 2.13-1.6c.74-1.43.56-2.73-.55-3.91-.08-.08-.07-.15.02-.2.1-.08.21-.1.31-.04.04.01.09.09.14.22.43.94.82 2 1.18 3.18a1.72 1.72 0 0 1 .03 1.08c-.1.4-.13.71-.1.92.09.59.2 1.19.33 1.8.02.09-.02.13-.11.13l-3.4.02Z" fill="#ACD204"/><path d="M41.56 21c-.41.1-.74.26-.98.49-.07.07-.12.05-.16-.03l-.1-.2c-.02-.05 0-.08.04-.1l1.03-.49c.04-.02.08 0 .1.04l.1.21c.02.05.01.07-.03.08ZM14.53 21c-.13.06-.16.14-.1.26.32.52.68.68 1.08.46.12-.07.14-.05.06.06-.19.25-.42.34-.7.27a.73.73 0 0 1-.56-.52.53.53 0 0 1 .14-.57c.38-.39.76-.34 1.14.15.07.08.11.18.13.3 0 .02 0 .04-.02.05h-.06l-.01-.02c-.5-.36-.87-.51-1.1-.43Z" fill="#030303"/><path d="M12.9 21.01a17.1 17.1 0 0 0-.8 11.84.43.43 0 0 1-.23.03 1.46 1.46 0 0 0-.17-.48.35.35 0 0 1-.05-.17c0-.16-.05-.42-.15-.78-.22-.76-.37-1.73-.48-2.91-.03-.4-.03-.84.02-1.3l.14-1.3c.18-1.68.62-3.29 1.33-4.82l.08.08c.06.06.1.05.14-.02.05-.09.1-.15.18-.17Z" fill="#3F3E3B"/><path d="m32.56 25.93-.07.06c-.05.04-.06.08-.03.14.02.05.07.1.15.13l-.03 1.6-.02.32a.32.32 0 0 1-.24.1l-.06-4.35c0-.17-.09-.25-.25-.25H24.2c-.18 0-.26.09-.26.26v4.16c0 .05-.02.1-.05.15a.2.2 0 0 0-.02.08c0 .07.03.1.1.1h2.3a.7.7 0 0 1 .35 0h2.94c.04.07.17.07.37 0h2.38c.13-.08.22-.07.27.01.04.07.02.12-.06.14-.33.1-.68.15-1.03.14a48.17 48.17 0 0 0-3.13.02 1.54 1.54 0 0 0-.5 0h-3.98c-.18 0-.26-.1-.25-.26a.86.86 0 0 0-.05-.29.43.43 0 0 0 0-.37l-.01-1.57c.14-.16.19-.27.13-.32l-.04-2.04c0-.07-.03-.12-.09-.13l-.14-.04c-.23-.05-.24-.13-.03-.25l4.54-2.42a.4.4 0 0 1 .4 0l4.6 2.48c.13.07.12.12-.03.14a1 1 0 0 0-.31.1c-.07.04-.1.1-.1.18v1.88c0 .02 0 .04.02.06l.04.04Z" fill="#D60C19"/><path d="m40.96 22 .03.05c.04.06.02.08-.04.08-.1 0-.18-.04-.23-.1-.04-.06-.04-.12 0-.17l.39-.43c.09-.1.18-.1.3-.03v.06c0 .03-.02.04-.05.05a.53.53 0 0 0-.41.32.17.17 0 0 0 0 .17Z" fill="#030303"/><path d="m28.97 21.76-1.74.02c-.02 0-.03 0-.04.03l-.01.06c-.02.07 0 .1.08.1l1.85-.03c.14 0 .3.06.45.14a.37.37 0 0 1-.11.15l-3.07.1c.15.06.15.02-.02-.1.26-.11.68-.34 1.24-.67.45-.27.9-.2 1.37.2Z" fill="#FFF302"/><path d="M40.54 21.57c.01 0 .02.05.01.12 0 .04-.02.04-.05.03-.02-.02-.02-.06-.01-.12 0-.02.02-.03.05-.03Z" fill="#3F3E3B"/><path d="M28.97 21.76c.08.02.13.08.14.18l-1.85.03c-.07 0-.1-.03-.08-.1l.01-.06c0-.02.02-.03.04-.03l1.74-.02Z" fill="#079543"/><path d="M41.78 22.53c.1-.2.05-.27-.16-.18-.2.08-.38.19-.55.32-.04.02-.06.02-.08-.02l-.04-.07c-.02-.03 0-.06.03-.08l.95-.4c.29-.13.37-.05.24.24l-.44.97c-.03.06-.1.1-.21.13l-.06.01a.08.08 0 0 1-.1-.04.1.1 0 0 1 0-.1l.42-.78ZM14.3 22.4a.27.27 0 0 0-.22 0l-.15.04c-.1.04-.12 0-.1-.1.03-.07.1-.13.2-.17.33-.14.65 0 .94.41.03.04.04.1.02.14l-.01.06c-.02.04-.04.05-.08.02-.18-.17-.39-.3-.6-.4Z" fill="#030303"/><path d="M26.36 22.23c.16.12.17.16.02.1l3.12.06c.03 0 .05 0 .06-.03a.06.06 0 0 0 0-.07.26.26 0 0 0-.11-.06c.05-.05.09-.1.1-.15l2.44 1.3c.11.05.1.08-.01.1a.5.5 0 0 1-.27-.04.47.47 0 0 0-.18-.04h-7.14c-.13 0-.14-.03-.02-.1l1.99-1.07Z" fill="#ACD204"/><path d="M29.45 22.23c.04.01.08.04.1.06.02.02.02.04.01.07a.06.06 0 0 1-.06.03l-3.12-.06 3.07-.1Z" fill="#079543"/><path d="M14.24 22.97c.18.07.35.12.53.15.1.02.12.07.07.16l-.1.19c-.03.06-.08.07-.14.03a2.8 2.8 0 0 0-.94-.42c-.1-.02-.13-.07-.08-.15l.1-.2c.04-.06.08-.07.14-.03l.42.27ZM41.98 23.14c.21-.03.35-.09.4-.18.1-.18.18-.17.2.04.01.05-.04.1-.14.14l-.18.05a.52.52 0 0 1-.29 0c-.07-.02-.06-.04 0-.05Z" fill="#030303"/><path d="M12.54 23.4c.05.14.1.22.18.25-.54 2.03-.7 4.07-.5 6.12a.66.66 0 0 0-.25-.03v.07l-.05-.57c-.15-1.99.06-3.94.62-5.85ZM15.25 23.6l.04.14c.01.04.04.06.09.05l.07-.02c-.5 1.74-.7 3.51-.6 5.3-.1-.07-.16.02-.19.3-.03-.01-.06-.05-.07-.13-.21-1.96 0-3.84.66-5.63Z" fill="#3F3E3B"/><path d="M32.8 37.43a7.48 7.48 0 0 0-.33-3.8c.4-1.23.9-2.24 1.53-3.07.27-.35.37-.3.3.13-.05.3-.2.7-.44 1.22a4.88 4.88 0 0 0-.56 2.1c0 .8.2.87.63.2.29-.45.74-1.12 1.37-2 .56-.8.9-1.42 1.04-1.85a4.8 4.8 0 0 0 .18-2.16c-.12-.81-.23-1.44-.32-1.89-.13-.64-.12-1.13.03-1.46.39-.88.53-.85.42.1-.01.11.03.45.12.99.05.32.2 1.1.45 2.32.15.72.21 1.59.2 2.6a7.7 7.7 0 0 1-2.15 5.3 3.84 3.84 0 0 1-2.47 1.27ZM23.86 33.73a5.88 5.88 0 0 0-.42 3.74c-1.3-.26-2.3-.9-3.02-1.9a8.72 8.72 0 0 1-1.56-6.28c.07-.62.27-1.6.59-2.92.05-.2.1-.84.13-1.92 0-.07.04-.11.12-.11.12-.01.2.05.25.17.26.68.21 1.79-.13 3.31-.23.98-.11 2 .35 3.06.14.33.4.76.81 1.31.24.31.69.98 1.36 2 .12.2.27.36.43.5.02.03.05.03.09.02a.08.08 0 0 0 .05-.07c.08-.74 0-1.47-.28-2.19l-.5-1.31c-.07-.23-.1-.4-.1-.52 0-.28.07-.3.24-.07.67.92 1.2 1.98 1.6 3.18Z" fill="#079543"/><path d="M29.93 28.43c-.2.07-.33.07-.37 0V25.3c0-.08-.04-.12-.12-.12h-2.72c-.06 0-.08.03-.08.09l-.02 3.15a.7.7 0 0 0-.36.01l-.03-3.35c0-.16.08-.24.25-.24h3.27c.13 0 .2.06.2.2l-.02 3.39Z" fill="#E07852"/><path d="m12.77 29.06.25.18c.08.06.07.09-.03.08-.2-.02-.33-.13-.4-.31a.58.58 0 0 1 .04-.49c.07-.14.19-.24.35-.31a.67.67 0 0 1 .47-.04c.17.05.3.16.39.34.03.07.01.1-.06.06-.23-.1-.47-.13-.74-.07a.47.47 0 0 0-.33.25c-.07.13-.05.24.06.31Z" fill="#030303"/><path d="M15.26 28.35c0-.11.05-.17.16-.17h3.12c.1 0 .14.05.12.16a9.01 9.01 0 0 0 1.83 7.9c.04.04.03.07-.02.1l-1.32.85-.04.02a12.83 12.83 0 0 1-3.85-8.86ZM23.58 28.2c.04.1.05.2.05.28 0 .17.07.25.25.25h3.98a.4.4 0 0 0 .06.26h-4.56c-.12 0-.18.07-.18.2v.26c0 .13.06.2.19.2h4.52v1.63a4.42 4.42 0 0 0-2.69.97c-.17.15-.54.51-1.1 1.1-.57-1.67-1.22-2.8-1.96-3.4a.27.27 0 0 0-.3-.05.26.26 0 0 0-.16.24c-.05.47 0 .9.16 1.3l.25.6c.25.6.4 1.07.43 1.4.03.28-.03.3-.18.07-.15-.23-.38-.56-.7-.99-.58-.8-.97-1.42-1.18-1.87a4.5 4.5 0 0 1-.38-2.34c0-.09.06-.13.15-.13l3.35.01ZM32.56 28.18h3.46c.1 0 .15.05.16.15a5 5 0 0 1-.3 2.33c-.14.36-.52.94-1.15 1.76l-.45.6-.17.3c-.08.17-.15.29-.22.35-.06.06-.1.05-.12-.04-.07-.32.1-.93.52-1.83l.05-.09c.25-.55.34-1.1.24-1.6a.26.26 0 0 0-.18-.21.26.26 0 0 0-.26.04c-.16.12-.3.27-.42.44a10 10 0 0 0-1.55 3.11 4.92 4.92 0 0 0-3.87-2.23l.01-1.6 4.53-.02c.13 0 .19-.06.19-.18v-.24c0-.15-.07-.22-.22-.22H28.4a.8.8 0 0 0-.04-.26c1.05-.04 2.09-.04 3.13-.02.35.01.7-.03 1.03-.14.08-.02.1-.07.06-.14-.05-.08-.14-.09-.27-.02l.01-.14c.1 0 .17-.03.24-.1ZM40.96 28.38a12.78 12.78 0 0 1-3.84 8.82l-.04-.01-1.32-.85c-.05-.03-.05-.07-.02-.1a8.98 8.98 0 0 0 1.83-7.88c-.02-.1.02-.15.12-.15h3.11c.11 0 .16.05.16.17Z" fill="#ACD204"/><path d="m43.46 28.59.12.19c.02.03.02.04-.02.03l-.52-.2a.14.14 0 0 1-.1-.12c0-.06.02-.1.07-.13.14-.1.32-.1.53-.06.11.03.12.07.01.13l-.06.03c-.05.03-.06.07-.03.13Z" fill="#030303"/><path d="M42.74 29.4c-.47-.1-.64-.4-.5-.9a.2.2 0 0 1 .13-.15c.12-.04.23-.03.32.04s.08.1-.03.1h-.17a.18.18 0 0 0-.17.1c-.12.23-.05.39.2.48.32.13.53.17.64.13.5-.19.54-.12.1.2-.19.15-.52.28-1 .4-.08.03-.12 0-.12-.1 0-.02 0-.04.02-.06.02-.07.07-.1.15-.09.21.04.36.03.45-.02.1-.06.1-.1-.02-.13ZM13.86 28.87c.12-.01.16.04.11.15l-.03.07a.17.17 0 0 1-.05.08.26.26 0 0 1-.23.03c-.1-.04-.12-.1-.07-.19.04-.07.13-.12.27-.14Z" fill="#030303"/><path d="M27.92 29H32.8c.15 0 .22.07.22.22v.24c0 .12-.06.18-.19.18l-4.53.01H23.37c-.13 0-.19-.07-.19-.2v-.27c0-.12.06-.18.18-.18h4.56Z" fill="#D60C19"/><path d="m14.15 30.11-.22.31c-.14.2-.32.3-.54.31a.73.73 0 0 1-.58-.25c-.02-.02-.03-.05-.04-.11 0-.08.04-.1.1-.06.28.18.56.18.84.01.22-.14.3-.29.2-.46-.03-.05-.12-.09-.28-.1-.35 0-.6.1-.77.32-.04.05-.06.04-.07-.02l-.04-.16c0-.04 0-.07.03-.1.38-.4.74-.44 1.11-.12.05.04.08.09.1.14.02.1.07.14.14.15.07.02.12 0 .16-.07a.25.25 0 0 1 .15-.13c.1-.04.14 0 .1.11 0 .03-.08.07-.22.11a.3.3 0 0 0-.17.12ZM42.59 30.67l.17.04h.06c.17-.06.31-.08.43-.07.09 0 .11.05.07.12-.03.06-.08.1-.16.09a10.5 10.5 0 0 1-1.1-.18.07.07 0 0 1-.07-.07c0-.03 0-.06.04-.08l1.22-.8c.05-.02.1-.02.14 0l.1.06c.03.01.02.04-.02.08-.24.26-.54.46-.9.62a.1.1 0 0 0-.06.1c0 .05.03.08.08.09ZM13.56 32.1c-.04.06-.1.09-.17.07l-.13-.04c-.1-.02-.12-.07-.06-.15l.59-.79a.19.19 0 0 0 .03-.1c.01-.16.12-.23.33-.22.07 0 .1.04.05.1l-.64 1.13ZM13.06 31.05c.05.02.1.02.17.02.1-.01.13.03.08.13-.04.08-.12.11-.25.09-.13-.02-.18-.05-.17-.09.05-.12.1-.17.17-.15ZM41.83 31.39l-.19-.1c-.06-.04-.06-.08-.01-.13a.14.14 0 0 1 .05-.03h.07c.09.05.14.12.15.21 0 .06-.02.07-.07.05ZM42.26 31.7c0 .05.02.08.08.11.1.07.27.11.5.14.1 0 .16.07.16.18v.09c0 .1-.05.13-.15.09a2.03 2.03 0 0 1-.68-.49.3.3 0 0 0-.17-.1l-.56-.08c-.04 0-.07-.02-.09-.04-.03-.04-.03-.07.03-.08l1.73-.3c.09-.02.12.02.1.1 0 .06-.05.12-.13.17a.93.93 0 0 1-.67.1c-.08 0-.14.03-.15.12Z" fill="#030303"/><path d="M28.3 31.26c1.68.15 2.97.9 3.87 2.23.07.1.17.14.3.13.44 1.26.55 2.53.33 3.81a.4.4 0 0 0-.13.4l-.27.49c-.15.3-.27.5-.37.62a5.44 5.44 0 0 1-2.36 1.77c-.96.32-1.95.35-2.94.09a5.13 5.13 0 0 1-2.98-2.69c-.04-.1-.1-.18-.16-.27 0-.1-.04-.23-.15-.37a5.88 5.88 0 0 1 .42-3.74c.14-.02.22-.15.24-.38.56-.59.93-.95 1.1-1.1.7-.59 1.6-.91 2.68-.97.16.04.3.03.42-.02Z" fill="#71C5EE"/><path d="M13.89 31.85c.16-.1.32-.16.48-.16.04 0 .07.02.08.07 0 .03 0 .07-.03.1a.08.08 0 0 1-.07.04h-.45c-.05 0-.05-.02-.01-.05ZM14.54 32.87a.31.31 0 0 0-.12-.35.31.31 0 0 0-.37-.03l-.61.33c-.07.04-.1.02-.09-.06.05-.3.22-.5.5-.56.28-.07.52.01.72.25a.3.3 0 0 1 .07.19c0 .19.05.33.11.43.06.08.03.13-.06.13h-.1c-.09 0-.12-.04-.1-.12l.05-.21Z" fill="#030303"/><path d="M26.6 32.53c-.03 0-.04-.01-.04-.04v-.09c0-.09.52-.13 1.56-.13h.06c1.04 0 1.56.04 1.56.13v.09c0 .03-.01.04-.04.04h-3.1Z" fill="#F0F3FA"/><path d="M42.2 32.8c.23-.07.23-.14.02-.23-.19-.09-.4-.14-.61-.18-.04 0-.06-.03-.04-.07l.02-.07c.01-.04.04-.05.07-.03l.95.38c.3.12.3.24 0 .35l-1 .36c-.06.02-.13 0-.23-.06l-.05-.03a.09.09 0 0 1-.05-.1.1.1 0 0 1 .08-.08l.85-.24Z" fill="#030303"/><path d="M25.87 33c-.02 0-.03 0-.03-.02 0-.07.14-.12.4-.17.27-.05.6-.07.97-.07h1.85c.37 0 .7.02.96.07.27.05.4.1.4.17 0 .02 0 .03-.02.03h-4.53Z" fill="#F0F3FA"/><path d="M13.62 33.23c.15-.02.27-.06.36-.12.08-.04.14-.02.18.06l.04.07c.06.1.03.18-.09.22-.31.11-.5.07-.56-.1-.02-.07 0-.12.07-.13Z" fill="#030303"/><path d="M29.6 33.5h-1.61l-2.63-.04c-.1 0-.12-.04-.07-.12l.03-.06a.08.08 0 0 1 .07-.05h5.41c.04 0 .06.02.08.05l.08.12c.02.04.01.06-.04.06l-1.33.05Z" fill="#F0F3FA"/><path d="m29.6 33.5-.03.18c0-.08-.03-.06-.07.07l.01.06.5.8c.04.05.07.1.08.17.02.08.05.14.09.2.13.15.2.24.2.26.38.7.84 1.42 1.37 2.16.06-.03.07.05.02.23l-2.25.04c-.5-.65-.99-1.38-1.45-2.19a.85.85 0 0 0-.86-.46.11.11 0 0 1-.11-.06.11.11 0 0 1 0-.13c.27-.47.65-.66 1.13-.56.26.05.48.25.64.59.04.1.52.88 1.42 2.34.06.1.14.17.24.22.07.04.09.03.04-.04l-1.7-2.72c-.16-.25-.34-.41-.55-.47-.24-.07-.5-.08-.77-.04V34l.31-.2c.08-.03.12-.13.13-.3l1.6.02Z" fill="#005B9E"/><path d="M42.1 33.52c.16-.03.29-.04.4-.03.06 0 .08.03.07.09l-.03.11c-.01.05-.04.06-.09.05l-.36-.13c-.11-.04-.1-.07.01-.1Z" fill="#030303"/><path d="M29.58 33.68h1.52c.05 0 .1.02.13.04l.12.07c.04.03.06.06.05.1-.02.05-.05.08-.1.08h-1.35c-.07 0-.08.02-.05.07l.07.1c.01.03.03.04.06.04l1.41.02c.1 0 .18.05.23.13l.03.05c.07.1.04.15-.08.15h-1.35l-.03.01-.03.07c-.02.04-.01.06.03.06l1.53.09h.05l.07.11c.02.03.02.06 0 .09a.08.08 0 0 1-.07.04H30.6c-.02 0-.03.02-.04.04v.06c.01.02.02.04.04.04l1.2.05c.1 0 .16.06.18.17l.02.08c.02.14-.04.22-.19.22h-.79l-.03.01c-.03.03-.04.05-.03.08.01.04.04.06.08.06h.83c.08 0 .12.04.13.12.06.63-.03 1.12-.26 1.47-.53-.74-.98-1.46-1.36-2.16a3.38 3.38 0 0 0-.2-.26.45.45 0 0 1-.1-.2.48.48 0 0 0-.07-.18l-.5-.79a.07.07 0 0 1-.02-.06c.05-.13.07-.15.08-.07ZM27.86 33.78l-.3.21-2.67-.03c-.04 0-.06-.02-.06-.06v-.07c0-.07.03-.1.1-.1l2.79-.03c.03 0 .06 0 .08.02l.06.06Z" fill="#F0F3FA"/><path d="M14.78 33.82c-.05-.04-.04-.06.02-.08.12-.03.22-.01.29.05.13.14.1.2-.09.18a.76.76 0 0 1-.22-.15ZM15.37 35.65l.08.01c.04 0 .08 0 .1-.03.2-.18.38-.19.53-.02.06.08.04.1-.05.1-.43-.06-.83 0-1.19.2-.05.03-.1.01-.14-.05-.04-.05-.03-.1.02-.15.23-.2.44-.46.63-.78a.17.17 0 0 0 0-.2l-.15-.22c-.06-.1-.14-.12-.24-.07l-.76.4c-.04.03-.07.02-.09-.02l-.05-.09c-.04-.08-.02-.15.06-.2l.89-.46c.12-.07.2-.04.25.1.09.28.24.55.45.82.07.08.03.15-.12.2-.12.04-.21.16-.28.35-.02.06 0 .1.06.11Z" fill="#030303"/><path d="m29.52 37.67.07.1v.13l-.1.02c-.07-.12-.17-.17-.3-.15a.21.21 0 0 1-.01-.13c.07-.08.06-.15-.04-.21a.33.33 0 0 1-.1-.11L28 35.6c-.24-.4-.58-.54-1.03-.43a.24.24 0 0 0-.15.13c-.17.32-.37.62-.62.9-.06.07-.09.14-.08.19.02.07.08.12.18.16a.39.39 0 0 0-.12.05l-.5-.61c.13-.19.34-.27.6-.25.06 0 .07-.01.05-.04-.01-.03-.03-.05-.04-.05l-2-.01a.15.15 0 0 1-.13-.08.15.15 0 0 1 0-.15l.05-.1a.15.15 0 0 1 .13-.08l2.35-.07c.02 0 .04 0 .05-.03l.03-.05c.02-.05 0-.07-.04-.07h-2.36a.1.1 0 0 1-.09-.04c-.02-.03-.02-.06 0-.09l.04-.1.05-.04 2.57-.06c.02 0 .03-.01.04-.03l.04-.06c.03-.06.01-.1-.06-.1H24.6c-.06 0-.08-.02-.08-.07v-.12c0-.06.03-.1.1-.1l2.94-.05c.28-.04.54-.03.77.04.2.06.4.22.55.47l1.7 2.72c.05.07.03.08-.04.04a.6.6 0 0 1-.24-.22 95.93 95.93 0 0 1-1.42-2.34c-.16-.34-.38-.54-.64-.59-.48-.1-.85.1-1.13.56a.11.11 0 0 0 0 .13c.02.04.06.06.11.06.38-.03.67.12.86.46.46.8.94 1.54 1.45 2.2Z" fill="#F0F3FA"/><path d="M41 34.66c-.13-.11-.17-.24-.13-.38.03-.1.1-.14.2-.11l1.05.26c.04.01.06.04.05.08l-.02.06c-.02.1-.08.13-.17.12a7.9 7.9 0 0 1-.8-.14c-.07-.01-.13.02-.19.11Z" fill="#030303"/><path d="M41 34.66a1 1 0 0 1 .74.5c.03.06.02.12-.02.18-.03.07-.08.08-.13.02l-.6-.7ZM40.54 35.36l-.16.03c-.1.02-.13-.02-.08-.11.04-.08.11-.13.22-.16.38-.08.69.12.91.6.02.05.02.1 0 .15l-.03.05c-.02.05-.05.05-.08.01-.16-.2-.35-.38-.56-.52a.3.3 0 0 0-.22-.05Z" fill="#030303"/><path d="m29.18 37.64-1.78-.05c-.04 0-.06.02-.07.05l-.01.06.01.02c.28 0 .43.1.45.33l-2.37.01-.68-.03c-.04 0-.07-.02-.08-.06 0-.04 0-.07.04-.1l.13-.07a.2.2 0 0 1 .12-.04l.98.06 1.15-.1c.08 0 .12-.05.12-.13v-.11c0-.07.03-.13.08-.17a.87.87 0 0 0 .28-.38l.22-.2c.05-.05.1-.06.17-.03l.07.04c.04.02.04.05.02.08-.1.13-.2.23-.34.3-.04.04-.06.07-.04.12.02.04.03.06.05.06.24.01.38-.1.4-.32 0-.1.05-.2.14-.32.06-.08.04-.12-.05-.12-.3 0-.52.12-.64.39l-.5.45c-.08.07-.15.06-.2-.02l-.54-.8c-.1-.05-.16-.1-.18-.17 0-.05.02-.12.08-.19.25-.28.45-.58.62-.9.03-.07.08-.1.15-.13.45-.1.79.04 1.03.43l1.02 1.72.1.11c.1.06.12.13.05.2Z" fill="#005B9E"/><path d="M41.17 36.16c.03.01.04.04.02.08l-.12.2c-.02.05-.06.06-.1.03l-.99-.57c-.04-.02-.05-.05-.02-.1l.1-.19c.06-.08.11-.09.18-.02.21.25.52.43.93.57Z" fill="#030303"/><path d="M25.38 36.05a1.6 1.6 0 0 0-.42.61c-.02.07 0 .13.05.17.14.1.27.2.38.3.15.13.2.26.14.39l.01.05c-.56-.73-.89-.83-.98-.28-.31-.14-.45-.57-.42-1.3 0-.08.04-.13.12-.14.67-.13 1.04-.06 1.12.2Z" fill="#F0F3FA"/><path d="m25.69 35.99.5.61c.1.27.26.5.5.71.05.05.06.1.04.17a.14.14 0 0 1-.13.1l-.8.07-.27-.13c.06-.13.02-.26-.14-.4-.11-.1-.24-.2-.38-.3-.06-.03-.07-.1-.05-.16.06-.2.2-.4.42-.6.05-.08.16-.1.31-.07Z" fill="#005B9E"/><path d="M15.76 37.19c-.02.05 0 .09.04.11l.27.16c.36.13.35.17-.02.11a.56.56 0 0 1-.48-.42.56.56 0 0 1 .2-.63c.42-.37.78-.35 1.05.07.05.07.03.09-.04.05-.48-.2-.82-.03-1.02.55Z" fill="#030303"/><path d="M27.55 36.93c.12-.27.33-.4.64-.39.1 0 .11.04.05.12a.58.58 0 0 0-.15.32c-.01.22-.15.33-.4.32l-.04-.06c-.02-.05 0-.08.04-.11.13-.08.24-.18.34-.31.02-.03.02-.06-.02-.08l-.07-.04c-.06-.03-.12-.02-.17.02l-.22.21Z" fill="#E07852"/><path d="M39.4 36.53c.02-.03.05-.03.07-.02l.05.03c.68.48 1 .74.97.78l-.1.16c-.04.05-.4-.17-1.08-.64l-.04-.02c-.03-.02-.03-.05-.01-.07l.15-.22Z" fill="#030303"/><path d="m26.31 36.55.54.8c.05.1.12.1.2.03l.5-.45a.87.87 0 0 1-.28.38.21.21 0 0 0-.08.17v.1c0 .09-.04.13-.12.14l-1.15.1c-.04 0-.07 0-.1-.03-.04-.05-.04-.09-.01-.14l.8-.07c.06 0 .1-.04.12-.1a.14.14 0 0 0-.04-.17c-.24-.2-.4-.44-.5-.7a.38.38 0 0 1 .12-.06Z" fill="#E07852"/><path d="m23.6 37.84.15.27a5.13 5.13 0 0 0 2.98 2.69 12.14 12.14 0 0 1-7.3-3.28c-.03-.03-.03-.07.01-.1l1.34-.85c.02-.02.05-.02.07 0a4.49 4.49 0 0 0 2.74 1.27ZM29.67 40.7c.98-.38 1.76-.97 2.36-1.76.1-.12.22-.33.37-.62.11-.22.2-.38.27-.48a4.51 4.51 0 0 0 2.72-1.28c.03-.03.06-.03.1 0l1.27.9c.02.02.02.05 0 .07a13.04 13.04 0 0 1-5.86 3.08c-.43.1-.84.14-1.23.1Z" fill="#ACD204"/><path d="M16.9 36.88c.03 0 .05 0 .07.03l-.01.13c-.01.06-.05.1-.12.1-.05 0-.09 0-.1-.02-.12-.04-.13-.12-.05-.2.02-.03.1-.04.22-.04Z" fill="#030303"/><path d="m25.55 37.57-.98.06c-.08 0-.13-.04-.14-.12 0-.08.04-.15.13-.22.1-.55.42-.45.99.28Z" fill="#005B9E"/><path d="m17.67 36.98.1.01c.04.02.05.04 0 .08-.06.05-.1.05-.14-.02-.02-.04 0-.06.04-.07Z" fill="#3F3E3B"/><path d="M28.38 37.32c.11.05.22.05.25 0 .02-.05-.05-.13-.16-.18-.11-.06-.22-.06-.25 0-.02.04.05.13.16.18Z" fill="#E07852"/><path d="M38.8 37.4c-.04-.02-.05-.04-.02-.08l.14-.2c.03-.04.07-.04.11 0l.93.67c.04.03.04.07 0 .11l-.12.18c-.06.08-.12.08-.18 0a2.1 2.1 0 0 0-.87-.68ZM17.55 37.87a.2.2 0 0 0 0-.24.2.2 0 0 0-.2-.1c-.5.03-.75.28-.76.75 0 .1-.02.1-.07.01-.1-.24-.15-.41-.12-.53a.56.56 0 0 1 .26-.34c.14-.09.3-.12.47-.1.4.03.59.23.58.6 0 .32-.21.55-.63.7a.2.2 0 0 1-.17 0l-.16-.1c-.1-.04-.09-.08.02-.1.33-.08.6-.27.78-.55ZM17.92 37.4a.22.22 0 0 1 .1-.02c.04 0 .06.02.07.06 0 .03-.01.05-.04.06-.04.02-.09.01-.13-.02-.06-.03-.05-.05 0-.08Z" fill="#030303"/><path d="m31.77 37.63-.05.13-2.13.01a4.4 4.4 0 0 0-.07-.1l2.25-.04ZM29.18 37.64c-.01.04 0 .08.01.13-.52-.05-.8.02-.85.21-.1.2-.29.22-.56.07-.02-.23-.17-.34-.45-.33l-.01-.02.01-.06c.01-.03.03-.05.07-.05l1.78.05Z" fill="#E07852"/><path d="M37.76 38.7c-.07.07-.09.11-.06.14.02.01.02.03 0 .05a.15.15 0 0 1-.12.03.28.28 0 0 1-.12-.06c-.06-.04-.06-.08-.01-.13l1.02-1.02c.07-.08.15-.08.23 0l.75.75c.04.04.04.1 0 .14l-.11.1c-.03.04-.07.04-.1 0l-.65-.65c-.04-.04-.1-.04-.14-.01l-.44.28c-.03.02-.04.05 0 .07l.8.82c.04.04.04.07 0 .1a.66.66 0 0 1-.31.09c-.08 0-.13-.03-.16-.11a1.2 1.2 0 0 0-.43-.6c-.06-.04-.1-.04-.15 0Z" fill="#030303"/><path d="M29.19 37.77c.13-.02.23.03.3.15 0 .05-.01.08-.05.08-.4.01-.74.05-1 .13l-.1-.15c.04-.2.33-.26.85-.21ZM31.72 37.76l.02.1a.24.24 0 0 1-.24.17c-.6.02-1.17.02-1.73 0-.07 0-.13-.04-.19-.13l.01-.13 2.13-.01Z" fill="#005B9E"/><path d="M27.78 38.05c.27.15.46.13.56-.07l.09.15a12 12 0 0 1-1.7.16 2.66 2.66 0 0 1-1.33-.23h2.38Z" fill="#F0F3FA"/><path d="M18.24 38.48a.2.2 0 0 1-.03-.08c0-.05.03-.06.07-.04.19.09.34.2.46.32.06.07.04.1-.04.12-.04 0-.07 0-.1-.02-.06-.04-.11-.04-.16.02l-.56.7c-.06.08-.15.1-.24.04l-.06-.03c-.09-.05-.1-.1-.03-.18l.67-.67c.05-.05.06-.11.02-.18Z" fill="#030303"/><path d="M29.42 38.8c.5.01.9-.04.9-.11 0-.08-.4-.15-.9-.17-.49-.02-.9.03-.9.11s.4.15.9.17ZM26.95 39.08c.57 0 1.03-.07 1.02-.15 0-.08-.46-.14-1.02-.14-.57.01-1.03.08-1.03.16s.46.14 1.03.13Z" fill="#F0F3FA"/><path d="M18.53 39.2a.7.7 0 0 0 .29-.24c.03-.04.06-.05.1 0l.14.13c.02.02.02.04 0 .06-.16.2-.34.3-.55.3-.15 0-.17-.06-.08-.19l.1-.05Z" fill="#030303"/><path d="M36.36 39.1c-.02.1 0 .18.04.18.05.01.1-.06.1-.15.02-.1 0-.17-.04-.18-.04 0-.09.06-.1.15Z" fill="#3F3E3B"/><path d="M18.52 40.12c.31-.28.52-.58.61-.88.03-.09.08-.1.16-.05l.18.13c.04.02.04.06.01.1l-.65.9c-.03.04-.07.04-.11.01l-.19-.13c-.03-.03-.04-.06 0-.08Z" fill="#030303"/><path d="M28.8 39.64c.55 0 .99-.08.99-.18 0-.1-.44-.18-.98-.18s-.98.07-.99.17c0 .1.44.18.99.19Z" fill="#F0F3FA"/><path d="M37.14 39.84c-.12-.17-.28-.3-.47-.39-.11-.05-.1-.09.01-.11.4-.08.7.12.89.59.03.08-.01.15-.13.2-.07.04-.12.02-.17-.04a.66.66 0 0 1-.05-.1.78.78 0 0 0-.08-.15ZM20.45 40.8c.29-.06.3-.13.02-.2-.14-.03-.23.05-.3.23 0 .02-.02.05-.04.06l-.3.19c-.05.03-.08.02-.1-.04a.27.27 0 0 0-.03-.07.19.19 0 0 0-.1-.08l-.43-.16c-.1-.03-.11-.08-.02-.14.22-.15.32-.28.29-.42-.02-.07.01-.13.08-.17.14-.08.22-.17.24-.27.02-.07.06-.1.12-.07l.28.1c.13.05.13.1 0 .14l-.12.04a.22.22 0 0 0-.14.13c-.09.2-.2.38-.34.55-.06.06-.06.13 0 .19.12.11.23.13.33.04.39-.3.68-.53.9-.68.06-.04.08-.1.05-.17a.22.22 0 0 0-.05-.07c-.02-.02-.03-.04-.01-.07.01-.02.03-.03.06-.03.06.01.14.07.24.16.06.06.05.1-.03.12-.1.02-.2.1-.3.27-.03.05-.02.1.04.12l.05.04c.05.02.06.06.03.1a1.6 1.6 0 0 0-.12.85c0 .08-.03.11-.1.1a.88.88 0 0 1-.3-.15c-.08-.06-.08-.12.01-.17l.1-.07c.1-.06.09-.11 0-.16l-.13-.08c-.1-.06-.1-.1.02-.13l.1-.02ZM37.18 40.42a.76.76 0 0 1 .14-.1c.14-.06.16-.03.05.08-.24.25-.5.3-.76.15a.89.89 0 0 1-.44-.68c-.01-.04 0-.08.05-.1l.1-.06c.07-.03.1-.01.12.05.06.33.24.56.54.68.07.03.14.02.2-.02ZM35.42 41.17l-.5-.61c-.04-.04-.04-.08.01-.1l.5-.27c.15-.08.3-.1.46-.05.15.05.27.14.35.29.1.17.12.37.06.6-.03.12-.2.26-.5.42a7.1 7.1 0 0 0-.16.1c-.1.05-.15.02-.15-.1v-.08a.3.3 0 0 0-.07-.2Z" fill="#030303"/><path d="m35.95 40.62.15.27c.06.16 0 .27-.18.33-.12.05-.2 0-.24-.12a.87.87 0 0 0-.1-.24.87.87 0 0 0-.19-.19c-.1-.08-.1-.17-.02-.26.13-.15.26-.16.38-.04l.2.25Z" fill="#FFF302"/><path d="M21.48 41.17c-.07.11-.14.19-.19.23-.02.02-.04.02-.07 0-.02-.02-.02-.04-.01-.07a.14.14 0 0 0 .02-.07c0-.06.02-.1.07-.12.15-.05.18-.17.1-.34-.04-.1-.01-.13.09-.12.2.02.32.13.34.35.01.19.04.36.08.51.02.09.07.1.14.06a.19.19 0 0 0 .06-.09c.05-.09.08-.09.1.01l.01.07a.1.1 0 0 1 0 .06l-.24.49c-.03.05-.07.06-.12.01-.12-.11-.2-.33-.22-.65a1.21 1.21 0 0 0-.05-.32c-.03-.07-.06-.07-.1-.01ZM33.46 41.42a.9.9 0 0 1 .7-.57c.17-.03.3.05.4.22.05.12.03.14-.08.08l-.19-.1a.32.32 0 0 0-.2-.03c-.16.02-.27.1-.32.23-.06.12-.04.26.04.4.15.28.31.45.47.53.1.04.1.08 0 .1-.08.03-.18.01-.31-.05-.29-.13-.45-.33-.49-.61 0-.09-.06-.12-.14-.1-.12.05-.26.01-.4-.1-.1-.07-.08-.1.03-.09.11.02.23.06.35.14.06.04.11.03.14-.05Z" fill="#030303"/><path d="M22.48 41.22a.6.6 0 0 0-.24.1l-.07.05c-.02.02-.04.01-.05 0l-.02-.06c.03-.1.08-.16.16-.2a.28.28 0 0 1 .25-.02s.02.02.02.06c.01.04 0 .06-.05.07ZM23.7 42.19a.8.8 0 0 0-.3.32c-.1.24-.16.23-.18-.04-.02-.15-.1-.5-.25-1.03-.02-.08 0-.1.08-.08l.36.13c.1.04.12.1.05.19-.1.13-.15.23-.12.28.03.08.09.12.17.13a.2.2 0 0 0 .2-.07c.25-.3.45-.4.6-.32.08.04.1.1.02.17l-.13.13a.2.2 0 0 0-.05.17c0 .12-.03.21-.12.28a.16.16 0 0 0-.06.17l.04.24c.01.09-.03.13-.12.1l-.22-.05c-.06-.02-.08-.06-.04-.11.08-.11.14-.29.19-.54.02-.11-.02-.14-.12-.07ZM32.16 42.45c-.03.37-.2.6-.53.67-.33.09-.58-.04-.74-.39a.57.57 0 0 1-.05-.4c.03-.13.1-.22.22-.25.05-.02.09-.1.12-.26a.28.28 0 0 1 .1-.17c.13-.1.27-.17.42-.21.03-.01.06 0 .07.03l.03.06c.02.03.01.06-.02.07-.27.1-.47.28-.6.54a.2.2 0 0 0-.01.2c.06.12.1.28.11.47.01.17.1.25.27.22l.08-.02c.17-.03.24-.12.21-.29l-.07-.4a.25.25 0 0 0-.12-.18.19.19 0 0 1-.1-.15c0-.09.04-.13.13-.11.13.01.23.12.31.3.03.07.08.1.15.1l.08-.04c.15-.1.18-.08.08.06a.16.16 0 0 1-.08.05.1.1 0 0 0-.06.1ZM34.64 41.86l-.27-.16c-.07-.03-.08-.08-.03-.14.08-.1.15-.16.2-.15.14.02.23.1.29.21a.3.3 0 0 1-.04.34l-.14.18c-.02.03-.05.03-.09.01h-.02c-.06.04-.06.03 0-.02l.12-.1c.07-.06.07-.12-.02-.17Z" fill="#030303"/><path d="M20.95 41.67a.48.48 0 0 1 .18-.02c.05 0 .08.02.1.07l.01.07c0 .04-.02.06-.08.06-.07 0-.15-.04-.23-.12-.02-.02-.02-.04.02-.06Z" fill="#3F3E3B"/><path d="M32.12 41.82c-.08-.04-.07-.08.02-.12l.18-.07a.14.14 0 0 1 .13 0l.64.34c.22.11.35.25.4.4.04.14 0 .18-.15.1l-1.22-.65ZM25.27 42.01c-.26-.06-.42.02-.48.25l-.14.46c-.06.18 0 .3.2.34l.08.02c.17.04.28-.03.33-.2.08-.28.09-.57.01-.87.15.01.26.1.32.26.03.07.03.14.01.2l-.02.1c-.02.07 0 .1.07.1.1-.01.17 0 .2.03.04.06.07.05.1-.01.05-.11.05-.25-.02-.4-.03-.1 0-.15.1-.18.06-.02.15 0 .25.03.05.02.07.05.08.1 0 .05-.02.08-.06.11-.13.08-.15.16-.08.24.07.07.07.14 0 .21-.11.15-.12.29 0 .42.06.06.05.11-.04.14a.74.74 0 0 1-.37-.01c-.1-.03-.12-.07-.03-.14a.32.32 0 0 0 .12-.2c.02-.1-.02-.15-.1-.17l-.11-.02c-.08-.02-.13 0-.17.08-.16.34-.48.39-.96.14a.26.26 0 0 1-.14-.16c-.13-.43.01-.76.42-.98a.28.28 0 0 1 .23-.03c.07.03.14.07.2.14ZM30.5 42.14c.11.01.21-.02.22-.06 0-.05-.09-.1-.2-.11-.12-.01-.22.01-.22.06-.01.05.08.1.2.1ZM29.52 42.35c-.02 0-.04 0-.06-.02-.06-.04-.06-.08 0-.12.1-.08.21-.11.35-.09.07.02.1.06.07.13-.1.29-.06.56.09.81.06.1.15.16.26.18.1 0 .2-.03.3-.11.05-.05.06-.1.04-.18a1.5 1.5 0 0 1-.04-.5c0-.1.05-.12.12-.05.07.08.08.19 0 .32a.29.29 0 0 0-.02.21c0 .03.02.05.04.07.06.05.06.1 0 .15-.34.29-.67.3-.99.05a.2.2 0 0 1-.08-.17v-.6c0-.04-.02-.07-.08-.08ZM28.54 43.16l.15.23c.04.07.02.1-.06.1l-.33-.01c-.08 0-.1-.04-.04-.1l.06-.05a.06.06 0 0 0 .01-.05 1.8 1.8 0 0 1 .05-.76c.03-.1 0-.13-.1-.1a.27.27 0 0 0-.1.05c-.06.05-.11.05-.17 0a.3.3 0 0 0-.27-.1c-.08.02-.11.06-.11.14v.92c0 .03-.01.04-.04.04h-.34c-.05 0-.07-.03-.05-.08l.2-.8c.02-.1-.02-.17-.11-.21-.09-.03-.2-.01-.35.06-.07.04-.09.02-.05-.06.07-.13.15-.2.26-.18.58.07 1.13.07 1.67 0 .07 0 .14.01.2.04.3.16.3.36.03.6-.05.04-.06.09 0 .14l.33.34c.06.05.05.1-.02.13-.05.02-.14.01-.28-.02a.16.16 0 0 1-.13-.13c-.04-.2-.15-.3-.31-.31-.14 0-.18.05-.1.17Z" fill="#030303"/><path d="M28.54 42.56c0 .13.08.24.2.25.1 0 .2-.1.2-.23.01-.12-.07-.23-.19-.24-.11 0-.2.1-.21.22Z" fill="#FFF302"/><path d="M22.62 42.53c0-.03.04-.07.1-.1.05-.03.09-.03.13-.01l.1.07c.06.07.04.1-.05.1h-.23c-.05 0-.07-.02-.05-.06Z" fill="#3F3E3B"/><path d="M32.6 42.48c.06.02.11.06.15.11.05.07.04.13-.02.19a.32.32 0 0 1-.16.08c-.1.01-.13-.02-.1-.11l.05-.24c.02-.04.04-.06.09-.03ZM28.12 42.68a.06.06 0 1 0 0-.13.06.06 0 0 0 0 .13Z" fill="#030303"/></svg>