<!-- by TradingView --><svg width="56" height="56" viewBox="0 0 56 56" xmlns="http://www.w3.org/2000/svg"><path fill="#F0F3FA" d="M0 0h56v56H0z"/><path d="M44 27.5c0 1.21-.64 2.5-2 2.5-1.37 0-2-1.3-2-2.5 0-1.21.63-2.5 2-2.5 1.36 0 2 1.29 2 2.5Zm-1 0c0-.62-.23-1.5-1-1.5s-1 .88-1 1.5.23 1.5 1 1.5 1-.88 1-1.5ZM39 26.83h-1a.93.93 0 0 0-.91-.83c-.79 0-1.09.85-1.09 1.5s.3 1.5 1.09 1.5c.45 0 .84-.33.91-.78l1 .01A1.93 1.93 0 0 1 37.06 30C35.68 30 35 28.75 35 27.5s.69-2.5 2.06-2.5c1.08 0 1.85.77 1.94 1.83ZM31 30v-5h3v1h-2v1h1.5v1H32v1h2v1h-3ZM25 25h1.34l1.16 3 1.16-3H30v5h-1v-3l-1.16 3h-.68L26 26.98V30h-1v-5ZM18 25v5h-.96L15 27.11V30h-1v-5h.98L17 27.88V25h1ZM9.22 30H8l1.7-5h1.6l1.7 5h-1.22l-1.28-4-1.28 4Zm-.1-2h2.73v1H9.13v-1ZM20.22 30H19l1.7-5h1.6l1.7 5h-1.22l-1.28-4-1.28 4Zm-.1-2h2.73v1h-2.72v-1ZM5.71 30H4v-5h1.71C7.16 25 8 26.11 8 27.5S7.17 30 5.71 30ZM5 29h.67c.9 0 1.33-.69 1.33-1.5 0-.82-.45-1.5-1.35-1.5H5v3ZM44 25h2.37L49 29h-2.37L44 25ZM47 33h2.37L52 29h-2.37L47 33Z" fill="#29618E"/><path fill="#F9BF3C" fill-opacity=".6" d="M32 31h5v2h-5zM38 31h5v2h-5z"/><path d="M44 33h2.37L49 29h-2.37L44 33ZM47 25h2.37L52 29h-2.37L47 25Z" fill="#F9BF3C"/></svg>