<!-- by TradingView --><svg width="56" height="56" viewBox="0 0 56 56" xmlns="http://www.w3.org/2000/svg"><path fill="#F0F3FA" d="M0 0h56v56H0z"/><path d="M8 19h10.77A8.12 8.12 0 0 1 27 27H9.82c-1 0-1.82-.8-1.82-1.77V19ZM8 37h10.77A8.12 8.12 0 0 0 27 29H9.82c-1 0-1.82.8-1.82 1.77V37Z" fill="#0065AC"/><path d="M29 29h6.6c.78 0 1.4.62 1.4 1.4v5.2c0 .78-.62 1.4-1.4 1.4H29v-8Z" fill="#00AADF"/><path d="M29 19v8h7.32A2.64 2.64 0 0 1 39 29.6v5.64c0 .97.81 1.76 1.81 1.76H48V26.6c0-4.2-3.5-7.6-7.83-7.6H29Z" fill="#00AADF"/></svg>