<!-- by TradingView --><svg width="56" height="56" fill="none" xmlns="http://www.w3.org/2000/svg"><path fill="#F0F3FA" d="M0 0h56v56H0z"/><path fill-rule="evenodd" clip-rule="evenodd" d="M19 27.225C19 32.827 24.118 36 27.942 36 31.792 36 37 32.919 37 27.225c0-3.168-2.133-6.61-3.727-9.213-1.725-2.816-3.744-5.533-5.322-7.476-1.561 1.96-3.558 4.695-5.264 7.52C21.12 20.647 19 24.08 19 27.224Zm8.236-17.362C23.77 14.177 18 22.5 18 27.225 18 33.552 23.648 37 27.942 37 32.236 37 38 33.666 38 27.225c0-4.808-5.838-13.091-9.343-17.369-.251-.307-.49-.593-.715-.856-.222.265-.458.554-.706.863Z" fill="#16ACE4"/><path d="M22.82 33.389c-1.541-1.21-2.374-2.777-2.598-3.409 1.596.119 5.482-.243 8.261-2.638 2.779-2.395 6.09-2.808 7.399-2.715.2.35.327.928.366 1.174-.584 0-3.562.593-6.831 4.357-2.615 3.011-5.488 3.408-6.597 3.23Z" fill="#16ACE4"/><path d="M26.134 34.626c-1.753 0-2.701-.587-2.956-.88 1.274 0 4.094-.207 6.982-3.622 2.31-2.733 5.028-3.807 6.098-4.002.286 2.263-.311 3.852-.645 4.364-3.194 0-6.065 4.14-9.48 4.14Z" fill="#0B7ABF"/><path d="M28.257 35.385c-1.576 0-2.593-.346-2.905-.518.839.172 3.024.11 5.063-1.518 2.548-2.035 4.06-2.553 5.011-2.553-1.46 3.174-5.198 4.589-7.169 4.589Z" fill="#144992"/><path d="M23.972 24.625c-.793.152-2.389 1.594-3.088 2.296v.499c1.39-1.01 2.307-1.815 3.599-2.005 1.034-.152 1.783-1.39 2.028-1.99.206.082 1 .225 2.54.131 1.538-.093 2.474-.712 2.75-1.01-.201.264-.644.858-.812 1.127-.169.27.07.825.21 1.069.048-.61.581-1.259.841-1.508 2.092-2.248.552-2-.48-1.595.345-2.664-2.134-3.132-1.533-3.776.601-.644.39-.995.21-1.112-.18-.117-.51.366-1.186.453-.677.088-.977 0-1.202-.336-.226-.337-.812-.6-1.112-.483-.3.117 1.532.732.105.82-1.428.087-1.232-.454-1.473-.66-.24-.204-.03.572-.225.425-.195-.146-.811-.19-.33.147.48.336 1.367.468 2.749.439 1.382-.03.661.775.51.951-.15.176-1.066-.015-1.336 0s-.264.801-.556.673c-.293-.128-.857-.073-1.037 0-.18.073.406.264.631.234.18-.023.286.322.316.498.095-.268.378-.79.75-.732.373.059 1.198-.19 1.563-.322.116-.112.481-.12 1.022.747.676 1.083-.39 1.785-1.653 1.683-1.262-.103-2.75-.176-3.11.35-.288.422-.831.547-1.067.557.491.02 1.392.117 1.067.351-.324.234-.596 1.483-.691 2.079Z" fill="#FCB84E"/><path fill-rule="evenodd" clip-rule="evenodd" d="m18.595 38.027-.01.003c-.13.04-1.047.317-1.277.788-.237.486 2.788 1.611 10.732 1.611 7.943 0 10.773-1.293 10.81-1.611.03-.26-.623-.623-1.152-.747.923.14 2.302.492 2.302 1.078C40 39.976 35.508 41 28.04 41c-7.469 0-12.837-1.155-11.943-2.182.716-.822 1.963-.87 2.498-.791Zm18.776 0c.099.011.21.026.327.044a1.472 1.472 0 0 0-.328-.044Zm-15.643-.01-.006.003c-.085.025-.687.207-.838.517-.155.319 1.83 1.057 7.041 1.057 5.212 0 7.069-.849 7.093-1.057.02-.171-.409-.41-.756-.49.606.092 1.51.322 1.51.707 0 .543-2.947 1.214-7.847 1.214s-8.422-.758-7.835-1.431c.47-.54 1.288-.571 1.639-.52Zm12.32 0c.064.008.137.017.214.03a.962.962 0 0 0-.215-.03Zm-3.263.5c0 .287-1.186.519-2.649.519s-2.649-.232-2.649-.518c0-.286 1.186-.518 2.65-.518 1.462 0 2.648.232 2.648.518Zm-1.191 0c0-.156-.653-.284-1.458-.284-.805 0-1.457.128-1.457.285 0 .157.652.285 1.457.285s1.458-.128 1.458-.285Z" fill="#16ACE4"/><path fill-rule="evenodd" clip-rule="evenodd" d="M17.247 45H16v-3h1.256c.271 0 .52.034.745.103.227.067.423.164.589.29.166.127.293.278.382.454.091.174.137.369.137.583v.142c0 .213-.046.407-.137.583-.089.176-.216.327-.382.453-.164.126-.36.222-.589.291a2.644 2.644 0 0 1-.754.101Zm0-.482h-.41v-2.034h.419c.162 0 .305.02.43.062.124.04.23.1.315.18.086.079.15.177.193.294.044.117.067.252.067.406v.146c0 .2-.04.372-.118.513a.754.754 0 0 1-.34.324 1.27 1.27 0 0 1-.556.109Zm7.35.482h.847l.658-1.969.662 1.969h.845l.899-3h-.829l-.55 2.09-.672-2.09H25.75l-.67 2.09-.555-2.09h-.829l.902 3Zm6.275-3h.212l1.518 3h-.893l-.282-.633h-1.46l-.281.633h-.89l1.51-3h.566Zm-.69 1.883h1.03l-.516-1.157-.514 1.157ZM23 43.5a1.5 1.5 0 1 1-3 0 1.5 1.5 0 0 1 3 0Zm-.71 0a.79.79 0 1 1-1.579 0 .79.79 0 0 1 1.578 0ZM38.5 45a1.5 1.5 0 1 0 0-3 1.5 1.5 0 0 0 0 3Zm0-.64a.86.86 0 1 0 0-1.72.86.86 0 0 0 0 1.72Zm-3.955.64c.674 0 1.247-.42 1.458-1.004h-.728a.898.898 0 0 1-.73.37.878.878 0 0 1-.891-.866c0-.478.398-.865.89-.865.299 0 .563.142.725.36h.73A1.543 1.543 0 0 0 34.546 42c-.853 0-1.545.672-1.545 1.5s.692 1.5 1.545 1.5Z" fill="#144992"/></svg>