<!-- by TradingView --><svg width="56" height="56" viewBox="0 0 56 56" xmlns="http://www.w3.org/2000/svg"><path fill="#F0F3FA" d="M0 0h56v56H0z"/><path fill-rule="evenodd" d="m28 9-14 9.65V39h28V18.65L28 9Zm-.29 28c4.44 0 8.3-2.43 10.29-6h-1.22c-1.87 3-5.23 5-9.07 5-5.88 0-10.65-4.7-10.65-10.5S21.83 15 27.71 15c3.84 0 7.2 2 9.07 5H38c-1.99-3.57-5.85-6-10.29-6A11.6 11.6 0 0 0 16 25.5 11.6 11.6 0 0 0 27.71 37ZM27 18h-2v7a2 2 0 1 1-1-1.74v-2.14A4 4 0 1 0 27 25v-7Zm4 15h-2v-7a4 4 0 1 1 3.01 3.88v-2.14A2 2 0 1 0 31 26v7Z" fill="#0393DA"/><path d="M36.55 40c.24 0 .45.18.45.4v1.18h-1.5v-1h-3v2.84h3v-.7H37v.89c0 .21-.2.39-.45.39h-5.1c-.25 0-.45-.18-.45-.4v-3.2c0-.22.2-.4.45-.4h5.1ZM19.55 40c.24 0 .45.18.45.4v1.18h-1.5v-1h-3v2.84h3v-.7H20v.89c0 .21-.2.39-.45.39h-5.1c-.25 0-.45-.18-.45-.4v-3.2c0-.22.2-.4.45-.4h5.1ZM28.55 40c.24 0 .45.18.45.4v2.2c0 .22-.2.4-.45.4H24.5v1H23v-4h5.55Zm-4.05 2.42h3v-1.84h-3v1.84ZM39 40.58V40h3v4h-1.5v-3.42H39Z" fill="#0393DA"/></svg>