<!-- by TradingView --><svg width="56" height="56" viewBox="0 0 56 56" xmlns="http://www.w3.org/2000/svg"><path fill="#F0F3FA" d="M0 0h56v56H0z"/><path fill-rule="evenodd" d="M48 20.5 28 13 8 20.5v15L28 43l20-7.5v-15ZM28 14 9 21.19V35h38V21.19L28 14Z" fill="#DA251C"/><path fill-rule="evenodd" d="M26.7 33H20c-.1-.88 1.1-3.3 6.8-5.94l.2-.09.15-3.32-4.38-.65h-2.39c0-.1 0-.23.02-.35L16 22h4.54c.51-1.69 2.4-4 7.34-4 5.01 0 7.12 2.32 7.12 3.9a3 3 0 0 1 0 .1h5l-5.12.76c-.4 1.45-1.89 3.27-5.82 5.24l.14 3H35v2h-5.7l.1 2h-2.8l.1-2Zm.1-2 .09-1.9C24.65 30.3 24 30.82 24 31h2.8Zm2.16-5.07c1.33-.83 2.35-1.79 2.8-2.71l-2.91.43.1 2.28ZM31.98 22h-8.76c.64-1.36 2.59-2 4.47-2 2.17 0 4.09.56 4.3 2Z" fill="#DA251C"/><path fill="#fff" fill-opacity=".5" d="M17 36h22v2H17z"/></svg>