<!-- by TradingView --><svg width="56" height="56" viewBox="0 0 56 56" xmlns="http://www.w3.org/2000/svg"><path fill="#F0F3FA" d="M0 0h56v56H0z"/><path fill-rule="evenodd" d="M31.38 13h-8.12C17.04 13 12 17.86 12 23.86v17.1c0 1.13.95 2.04 2.12 2.04h15.76c1.17 0 2.12-.91 2.12-2.04V33h2.96a5.03 5.03 0 0 0 4.95-4.97A5.09 5.09 0 0 0 34.96 23H29v17H15V23.72c0-4.47 3.49-7.72 8.12-7.72h8.26v-3ZM32 26v4h2.96c1.26 0 2.04-.75 2.04-1.97 0-1.21-.78-2.03-2.04-2.03H32Z" fill="#F61A2D"/><path d="M24 14.2c0-.66 1.09-1.2 1.77-1.2H41.8c1.21 0 2.19.95 2.19 2.13V32h-3V16H27v17h-6.05A5.04 5.04 0 0 1 16 28c0-2.66 2.22-5 4.95-5H24v-8.8ZM21.29 30H24v-4h-2.71c-1.27 0-2.29.77-2.29 2s1.02 2 2.29 2ZM37 38.5v-2.07h1.67c1.83 0 2.56-.71 2.83-1.43H37v-2h6.52c.26 0 .48.2.48.45v.48c0 1.04-.84 1.9-1.18 2.5h.7c.26 0 .48.14.48.38v.48c0 4.34-4.08 5.61-6.12 5.71H32c.44-.82.62-2.5.66-3h5.4c1.82 0 2.67-.78 2.94-1.5h-4Z" fill="#004494"/></svg>