<!-- by TradingView --><svg width="56" height="56" viewBox="0 0 56 56" xmlns="http://www.w3.org/2000/svg"><path fill="#F0F3FA" d="M0 0h56v56H0z"/><path fill="#C8CEA8" d="M14.33 14.33h27.34v27.34H14.33z"/><path d="M23 15a4 4 0 0 1-8 0h8ZM31 15a4 4 0 0 1-8 0h8ZM40 15a3 3 0 1 1-6 0h6Z" fill="#004273"/><circle cx="19.5" cy="25.5" r="3.5" fill="#004273"/><circle cx="34" cy="28" r="3" fill="#004273"/><circle cx="40.5" cy="31.5" r="2.5" fill="#004273"/><circle cx="29" cy="33" r="3" fill="#004273"/><circle cx="28.5" cy="22.5" r="2.5" fill="#004273"/><circle cx="41" cy="22" r="2" fill="#004273"/><path d="M37.5 36h4.16v1H38l-2.37 3H15v-1.18h20.13L37.5 36Z" fill="#9C1900"/><path d="M37 35h4v1h-3.5L35 39H15v-1h19.5l2.5-3Z" fill="#004273"/><path d="M38 37h4.09v1h-3.6l-2.72 3H15v-1h20.28L38 37Z" fill="#082921"/><path fill-rule="evenodd" d="M43 13H13v30h30V13Zm-2 2H15v26h26V15Z" fill="#FF7331"/><path d="M40 21a6 6 0 0 1-9 5.2V37h-3V21a6 6 0 0 1 12 0Zm-9 0a3 3 0 1 0 6 0 3 3 0 0 0-6 0Z" fill="#9C1900"/><path fill-rule="evenodd" d="M21.5 27.26c-3.04 0-5.5 2.4-5.5 5.37A5.44 5.44 0 0 0 21.5 38a5.46 5.46 0 0 0 5.5-5.01V20h-3v7.77a6.33 6.33 0 0 0-2.5-.5Zm0 7.74a2.5 2.5 0 1 0 0-5 2.5 2.5 0 0 0 0 5Z" fill="#AD9452"/><path d="M24 20h1v12.5h-1v-3.93c-.8-.33-1.6-.57-2.5-.57-2.6 0-4.5 2.32-4.5 4.63 0 2.32 1.9 4.37 4.5 4.37 2.4 0 4.3-1.85 4.46-4.23l.03-9.77H26v-3h1v12.99A5.46 5.46 0 0 1 21.5 38c-3.04 0-5.5-2.4-5.5-5.37a5.66 5.66 0 0 1 8-5.12V20Z" fill="#9C1900"/><path fill-rule="evenodd" d="M21.5 36a3.5 3.5 0 1 0 0-7 3.5 3.5 0 0 0 0 7Zm0-1a2.5 2.5 0 1 0 0-5 2.5 2.5 0 0 0 0 5Z" fill="#9C1900"/></svg>