<!-- by TradingView --><svg width="56" height="56" viewBox="0 0 56 56" xmlns="http://www.w3.org/2000/svg"><path fill="#F0F3FA" d="M0 0h56v56H0z"/><path d="M7 28.23c0 3.02 1.63 5.8 4.37 8.03a35.5 35.5 0 0 1-1.09-2.28A8.73 8.73 0 0 1 8 28.23C8 21.39 17.06 16 28.3 16c6.3 0 11.54 1.6 15.26 4.34.58.98 1.44 2.6 1.44 3.3 0 4.82-5.6 5.35-11.32 5.37L30.33 36H26l3.36-7H27.3c-.55 0-1.09 0-1.63.03L22.33 36H18l3.17-6.6C16.6 30 13 31.3 13 33.14c0 3.7 8.18 5.85 16 5.85 10.65 0 18-6.91 18-12 0-2.25-.22-3.37-.84-4.68-.4-.86-1-1.8-1.52-2.57-3.9-2.9-9.78-4.75-16.35-4.75C16.53 15 7 20.92 7 28.23Z" fill="#0B91D0"/><path d="M49 27.77c0-3.02-1.63-5.8-4.37-8.03.37.7.76 1.53 1.09 2.28A8.73 8.73 0 0 1 48 27.77C48 34.61 38.94 40 27.7 40c-6.3 0-11.54-1.6-15.26-4.34-.58-.98-1.44-2.6-1.44-3.3 0-4.82 5.6-5.35 11.32-5.37L25.67 20H30l-3.36 7h2.06c.55 0 1.09 0 1.63-.03L33.67 20H38l-3.17 6.6C39.4 26 43 24.7 43 22.86c0-3.7-8.18-5.85-16-5.85-10.65 0-18 6.91-18 12 0 2.25.22 3.37.84 4.68.4.86 1 1.8 1.52 2.57 3.9 2.9 9.78 4.75 16.35 4.75C39.47 41 49 35.08 49 27.77Z" fill="#D1291E"/></svg>