<!-- by TradingView --><svg width="56" height="56" viewBox="0 0 56 56" xmlns="http://www.w3.org/2000/svg"><path fill="#F5F0B3" d="M0 0h56v56H0z"/><path d="M46 28c0 9.39-8.06 17-18 17s-18-7.61-18-17 8.06-17 18-17 18 7.61 18 17Z" fill="#90C5F3"/><path d="m26.7 16.12-4.2-4.05 1.46-.42 3.37 2.42-.62 2.05ZM29.52 16.12l4.2-4.05-1.45-.42-3.38 2.42.63 2.05ZM28 15l1.5 1.5L31 40l-3-.3-3 .3 1.13-21.92L28 15Z" fill="#296B52"/><path d="m26.94 18.64-8.57-4.42.2-.43 8.57 4.42-.2.43ZM29.29 18.09l7.43-4.5-.2-.44-7.44 4.51.2.43Z" fill="#296B52"/><path fill-rule="evenodd" d="M28 44.52c9.73 0 17.54-7.44 17.54-16.52 0-9.08-7.8-16.52-17.54-16.52-9.73 0-17.54 7.44-17.54 16.52 0 9.08 7.8 16.52 17.54 16.52Zm0 .48c9.94 0 18-7.61 18-17s-8.06-17-18-17-18 7.61-18 17 8.06 17 18 17Z" fill="#EF3A31"/><path d="M43.12 18.77C39.23 21.7 33.9 23.52 28 23.52c-5.9 0-11.23-1.82-15.12-4.75l-.26.39C16.6 22.16 22.02 24 28 24s11.41-1.85 15.38-4.84l-.26-.4Zm.26 18.07C39.4 33.84 33.98 32 28 32s-11.41 1.85-15.38 4.84l.26.4c3.89-2.94 9.22-4.76 15.12-4.76 5.9 0 11.23 1.82 15.12 4.75l.26-.39Z" fill="#EF3A31"/><path d="M27.61 11.02a32.78 32.78 0 0 0-6.62 6.6C18.8 20.59 17 24.17 17 27.86h.47c0-3.54 1.71-7.01 3.9-9.93a32.31 32.31 0 0 1 6.51-6.5l-.27-.4Zm0 33.91a32.78 32.78 0 0 1-6.62-6.6C18.8 35.37 17 31.8 17 28.11h.47c0 3.54 1.71 7 3.9 9.93a32.31 32.31 0 0 0 6.51 6.5l-.27.4Z" fill="#EF3A31"/><path d="M27.95 11.02a33.52 33.52 0 0 1 6.9 6.6C37.13 20.59 39 24.17 39 27.86h-.48c0-3.54-1.8-7.01-4.06-9.93a33.05 33.05 0 0 0-6.8-6.5l.29-.4Zm0 33.91a33.53 33.53 0 0 0 6.9-6.6C37.13 35.37 39 31.8 39 28.11h-.48c0 3.54-1.8 7-4.06 9.93a33.05 33.05 0 0 1-6.8 6.5l.29.4Z" fill="#EF3A31"/><path d="M10.17 28.48V28c11.87.02 23.75.02 35.62 0v.48c-11.87.01-23.75.03-35.62 0Z" fill="#EF3A31"/><path d="M21.84 13.9c.23.11.94.35 1.9.35 1.19 0 2.31-1.25 2.56-1.25s1.22.4 1.36.47l1.76.78c.08.22.28.68.41.73.17.06-.37.21 1.03.34 1.4.13 1.77-.28 1.69.21-.08.49-1.88 1.77-2.5 1.94-.63.17-3.01 1.8-2.39 3.06.5 1 1.2 1.28 1.48 1.3.1.3.28.96.28 1.08 0 .15 4.38 3.8 4.53 5.8.14 2-.04 4.2-.25 4.37-.21.17-2.74 2.17-3.2 2.1-.46-.06-1.08-.55-1.08-.27 0 .27.12 1.63-.46 1.36a1.48 1.48 0 0 1-.3-.19c.07.22.03.45-.29.59-.44 0-.69.4-.9.57-.2.17-.41.86-1.17.75-.75-.1-.75-.92-.68-1.32.05-.32.48-.83.68-1.04-.43-.06-1.3-.13-1.3-.45 0-.65 2.93-1.13 2.66-1.7-.19-.4-.8-.55-.4-.62.32-.05 1.57-.64 2.16-.93.3-.02.93-.14 1.08-.43.19-.36 0-1.42 0-1.68 0-.25.21-1.1 0-1.1-.16 0-.51-.17-.67-.26.23-.26.67-.92.67-1.45-.29-.95-.46-1.33-.46-1.5 0-.14-.14-.39-.2-.5a4.02 4.02 0 0 1-.88-.36c-.15-.11-.33-.68-.4-.95-.12-.27-.4-.79-.63-.79-.27 0-.79-.91-1.38-1.42-.58-.51-1.08-1.17-1.42-1.24-.33-.06-1.14.02-1.04-.34.1-.36 1.53-1.04 1.53-1.44 0-.4-.7-1.15-.78-1.3-.08-.15-1.48 0-1.94 0-.46 0-.92.04-.8-.51.13-.55.28-.92 0-1.13-.27-.21-2.17-1.64-.27-1.64Z" fill="#EF3A31"/><path d="M32.32 44.5a19.05 19.05 0 0 1-8.64 0A4.41 4.41 0 0 1 28 40.4a4.41 4.41 0 0 1 4.32 4.12Z" fill="#FFFFF7"/><path d="M24 44.58c-.89-.2-1.75-.44-2.58-.75l.33-1.1h1.19c.06-.43.28-1 .37-1.23l-.77-.96 1.84-1.44c.4.24 1.32.72 1.87.72s.7-1.3.7-1.82h2.11c0 .52.16 1.82.71 1.82.55 0 1.48-.48 1.88-.72l1.83 1.44-.77.96c.1.23.3.8.37 1.24h1.2l.32 1.08c-.83.31-1.7.56-2.58.75-.46-1.1-1.78-3.02-4.01-3.07-2.23.05-3.56 1.97-4.01 3.08Z" fill="#394F56"/><path d="M31 43.68h-.41a.4.4 0 0 0-.07-.15.45.45 0 0 0-.12-.12.53.53 0 0 0-.16-.07.73.73 0 0 0-.52.06.55.55 0 0 0-.23.23.78.78 0 0 0-.08.37c0 .15.03.27.08.38.06.1.13.17.23.23.1.05.2.07.32.07.07 0 .14 0 .2-.02a.56.56 0 0 0 .16-.07.44.44 0 0 0 .12-.11.4.4 0 0 0 .07-.15H31a.7.7 0 0 1-.1.26.8.8 0 0 1-.2.21.97.97 0 0 1-.3.15c-.1.03-.23.05-.36.05-.2 0-.38-.04-.53-.12a.9.9 0 0 1-.37-.34A1.02 1.02 0 0 1 29 44c0-.21.05-.39.14-.54a.9.9 0 0 1 .37-.34 1.3 1.3 0 0 1 .88-.07c.11.03.2.07.3.13a.75.75 0 0 1 .31.5ZM27.42 45H27l.76-2h.48l.76 2h-.42l-.57-1.59h-.02L27.42 45Zm.01-.78h1.14v.29h-1.14v-.3ZM25 43.3V43h2v.3h-.77V45h-.47v-1.7H25Z" fill="#394F56"/></svg>