<!-- by TradingView --><svg width="56" height="56" viewBox="0 0 56 56" xmlns="http://www.w3.org/2000/svg"><path fill="#181B1E" d="M0 0h56v56H0z"/><path d="M47 36.48c0 2.15-.84 3.52-3.52 3.52-1.62 0-2.89-.45-3.18-2h2.05s.27 1.3 1.1 1.3c.88 0 1.05-.54 1.05-1.31v-1.56c-.64.43-1.1.57-1.86.57-2.13 0-2.64-1.82-2.64-3.42 0-1.79.41-3.58 2.58-3.58a4 4 0 0 1 1.92.31V30H47v6.48Zm-2.5-.84v-4.3c-.25-.2-.59-.34-.92-.34-1.05 0-.94 1.85-.94 2.54 0 .66-.13 2.46.92 2.46.34 0 .69-.16.94-.36ZM36 19h2.5v.33c.7-.17 1.35-.33 2.32-.33.48 0 .95.08 1.37.33.76.48.81 1.34.81 2.16V26h-2.5v-4.62c0-.6-.16-1.12-.86-1.12-.43 0-.85.25-1.14.54V26H36v-7ZM32 30h2.5v.33c.7-.17 1.35-.33 2.32-.33 1.55 0 2.18 1.02 2.18 2.49V37h-2.5v-4.62c0-.6-.16-1.12-.86-1.12-.43 0-.85.25-1.14.54V37H32v-7ZM24 37h-2.5v-.33c-.7.17-1.35.33-2.32.33-1.55 0-2.18-1.02-2.18-2.49V30h2.5v4.62c0 .6.16 1.12.86 1.12.43 0 .85-.25 1.14-.54V30H24v7ZM35 22.5h-4.5c.04.76.06 2.9 1.3 2.9.96 0 .7-2.02.7-2.02H35c0 1.8-1.57 2.62-3.3 2.62-2.6 0-3.7-1.17-3.7-3.52C28 20.2 29.1 19 31.61 19c.94 0 1.89.19 2.58.81.81.72.81 1.72.81 2.69Zm-2.5-.88c0-.35-.02-.48-.05-.84-.07-.55-.1-1.19-.82-1.19-.78 0-1.03.81-1.08 1.36-.03.3-.05.38-.05.68h2ZM27 26h-2.5v-7H27v7ZM25.74 18c.71 0 1.26-.34 1.26-1 0-.67-.53-1-1.26-1-.72 0-1.24.33-1.24 1 0 .66.53 1 1.24 1ZM23 26h-2.5v-.6a3 3 0 0 1-1.88.6c-.57 0-1.12-.15-1.59-.49-.95-.7-1.03-1.96-1.03-3.07 0-1.86.41-3.44 2.58-3.44.71 0 1.33.24 1.92.65V15H23v11Zm-2.5-1.34V20.5a1.38 1.38 0 0 0-.92-.38c-1.05 0-.95 1.58-.95 2.3 0 .68-.1 2.63.93 2.63.34 0 .7-.17.94-.38ZM16 30h-2.5v.6a3 3 0 0 0-1.88-.6c-.57 0-1.12.15-1.59.49-.95.7-1.03 1.96-1.03 3.07 0 1.86.41 3.44 2.58 3.44a3.3 3.3 0 0 0 1.92-.65V41H16V30Zm-2.5 1.34v4.28c-.24.23-.59.38-.92.38-1.05 0-.96-1.7-.96-2.41 0-.69-.09-2.59.94-2.59.34 0 .7.13.94.34ZM28.5 37H31v-7h-3c-1.17 0-2.67.4-2.68 2h1.84c0-.6.14-1 .84-1 .43 0 .5.23.5.86v.74c-.52-.09-.76-.09-1.3-.09-1.31 0-2.2.78-2.2 2.25 0 1.46.84 2.24 2.16 2.24.58 0 .85 0 1.34-.17V37Zm-.52-3.63c.27 0 .3.14.52.32v2.16c-.21.18-.25.32-.52.32-.72 0-.98-.78-.98-1.4 0-.62.26-1.4.98-1.4Z" fill="#F61A29"/><path fill="#F61A29" d="M10 16h14v1H10zM29.5 17h4l.5 1h-1.36l-.3-.6h-1.68l-.3.6H29l.5-1Z"/><ellipse cx="31.5" cy="27.5" rx="1.5" ry=".5" fill="#F61A29"/></svg>