<!-- by TradingView --><svg width="56" height="56" fill="none" xmlns="http://www.w3.org/2000/svg"><path fill="#F0F3FA" d="M0 0h56v56H0z"/><path fill-rule="evenodd" clip-rule="evenodd" d="m6.5 28 2.566-4 2.434 4h-5ZM9 32H4l2.5-4L9 32Zm5 0H9l2.5-4 2.5 4Zm2.5-4 2.5 4h-5l2.5-4Zm0 0-2.434-4-2.566 4h5Zm6.5-4h-3v8h5.976C27.17 32 30 30.602 30 27.735 30 24.151 25.456 24 24.822 24H24v2.5h1.293c.794 0 1.439.766 1.439 1.588 0 .823-.645 1.412-1.44 1.412H23V24Zm8 0h7.592c1.536 0 2.782 1.262 2.782 2.82 0 1.336-.919 2.722-2.15 3.087L42 32h-4.288L35 30v-2.5h2.715c.208 0 .498-.29.498-.5 0-.21-.29-.5-.498-.5H34V32h-3v-8Zm20.142 2.5L52 24h-6.044C43.9 24 42 25.79 42 28s1.899 4 3.956 4h5.186L52 29.5h-5.7c-.72 0-1.3-.726-1.3-1.5s.58-1.5 1.3-1.5h4.842Z" fill="#ED1C24"/></svg>