<!-- by TradingView --><svg width="56" height="56" viewBox="0 0 56 56" xmlns="http://www.w3.org/2000/svg"><path fill="#F0F3FA" d="M0 0h56v56H0z"/><circle cx="28" cy="28" r="13.44" fill="#101010"/><path fill-rule="evenodd" d="M28 46a18 18 0 1 0 0-36 18 18 0 0 0 0 36Zm0-.4a17.6 17.6 0 1 0 0-35.2 17.6 17.6 0 0 0 0 35.2Z" fill="#101010"/><path d="m33.58 16.35.02.81c-.02.15-.05.25-.1.32-.07.06-.1.1-.12.09l-1.65-.87c-.09-.05-.15-.05-.17 0a.89.89 0 0 1-.35.35.19.19 0 0 1-.16.01l-.22-.08c-.17-.15-.21-.12-.13.09.08.2.24.3.5.35.52.43 1.1.62 1.73.58a.2.2 0 0 1 .16.05l.19.17c.1.55.35.9.72 1.05.62.02 1.2.2 1.77.54l-1.03 1.22a.27.27 0 0 0-.07.17c0 .33-.04.82-.45.87-.86.09-1.43-.23-1.97-.8-.08-.08-.15-.07-.2.03-.11.2-.24.26-.37.2a2.13 2.13 0 0 0-1.12-.2c-.07 0-.1.04-.12.1l-.06.44a.14.14 0 0 1-.11.11h-.06l-1.02-.32a.47.47 0 0 1-.29-.25l-.45-.93a.21.21 0 0 0-.18-.11c-.35-.02-.4.32-.2.54.1.28.28.45.5.52l.2.3c.03.05.03.1.01.16-.06.19-.15.36-.26.5a.2.2 0 0 1-.14.08c-.34.04-.9.04-1.66 0-.77-.03-1.06.32-1.64.66a.2.2 0 0 1-.14.02l-1.05-.2a.3.3 0 0 1-.14-.08l-1.06-.98c-.05-.04-.1-.04-.12 0l-.22-.14c-.05-.03-.08-.02-.1.03a.1.1 0 0 0 0 .06c.01.06 0 .11-.04.16a.44.44 0 0 1-.16.12l-.4-.07a3.64 3.64 0 0 1-.6-.25c-.31-.17-.38-.1-.2.2.13.21.14.51.04.9a1.1 1.1 0 0 0-.74-.18c-.38-.19-.7-.2-.97-.01a.88.88 0 0 1 0-.47c.33-.04.54-.13.63-.3.07.02.14.02.18 0 .04 0 .05-.03.03-.07l-.34-.6c-.06-.09-.13-.1-.22-.06l-.57.28c-.05.02-.07.06-.06.1l.12.63a.2.2 0 0 1-.06.17.2.2 0 0 1-.18.05c-.4-.1-.55-.38-1.02-.38-.42 0-.84.02-1.26.06.07-.03.1-.06.1-.1.03-.38.2-.56.41-.86.55-.82 1.06-1.48 1.5-2 .24-.27.46-.48.66-.63.3-.22.56-.57.9-.82.84-.6 1.76-1.13 2.76-1.58a13.33 13.33 0 0 1 10.66.06c.1.05.15.11.16.19Z" fill="#00733B"/><path d="M36.37 37.74a9.9 9.9 0 0 0-4.48-3.55c.24-1.2 0-2.3-.68-3.31a.2.2 0 0 1-.03-.17c.06-.28.07-.56.04-.84 0-.05 0-.1.05-.15l.53-.62h.16a.12.12 0 0 0-.04.06c0 .05.01.06.06.04a3.32 3.32 0 0 0 1.56-1.97c.03-.1 0-.12-.07-.03-.09.12-.16.26-.21.42a.3.3 0 0 0-.13-.12 4.1 4.1 0 0 0 .99-3.48c-.02-.09-.07-.14-.17-.13l-.33.01c-.09 0-.13.05-.13.14.02.52.01.85-.03 1.01-.24.92-.8 1.5-1.66 1.74-.28.08-.46-.01-.53-.29-.21-.8-.88-.6-1.58-.41a.23.23 0 0 1-.17-.01 1.44 1.44 0 0 0-.76-.13c-.82.07-.98 1.14-.79 1.79a.16.16 0 0 0-.03.05.09.09 0 0 1-.07.06c-.62.12-1.23.3-1.84.56-.9.38-1.34 1.01-1.84 1.81a.23.23 0 0 1-.13.1c-.72.24-.86.33-.43.28.07.16.21.22.44.19.19.15.27.36.24.64l-.27 2.33c-.03.33-.08.57-.41.72-.2.09-.4.15-.62.2l.1-3.69a.26.26 0 0 0 0-.12c-.01-.06-.05-.1-.12-.1l-.19.02c-.08 0-.09-.03-.03-.08l.04-.04a.08.08 0 0 1 .04-.02h.05c.1.04.16.04.2 0 .02-.04.03-.08.03-.14 0-1.67.03-3.37.09-5.1 0-.34.08-.7.2-1.06.15-.4.28-.8.4-1.2.3-.01.65.05 1.04.19.06.02.11.02.17-.01.52-.26 1.03-.75 1.65-.67.76.1 1.39.1 1.88 0 .06-.02.1-.05.11-.11.04-.17.17-.4.39-.67.04-.07.1-.08.18-.05l.97.4a.22.22 0 0 0 .26-.07.22.22 0 0 0 .04-.1l.11-.5c.01-.06.05-.08.1-.07l1.04.23h.03c.1 0 .21-.05.31-.14.05-.06.1-.06.16-.01.69.54 1.07.8 1.93.74.58-.03.61-.53.66-.98 0-.07.02-.12.06-.18.06-.1.28-.34.68-.7.2-.2.26-.4.18-.64a3.5 3.5 0 0 0-1.77-.54 4.92 4.92 0 0 1-.37-.5 1.75 1.75 0 0 1-.13-.3c-.06-.15-.13-.24-.22-.25l-.19-.17a.2.2 0 0 0-.16-.05 2.4 2.4 0 0 1-1.73-.58l.4-.4a.2.2 0 0 1 .25-.04l1.4.8a.29.29 0 0 0 .38-.1c.17-.26.16-.43-.03-.52l-.02-.81c.15-.03.35.02.6.16a12.87 12.87 0 0 1 6.8 11.79 12.79 12.79 0 0 1-3.38 8.31c-.4.45-.81.83-1.23 1.13Z" fill="#93AE37"/><path d="M33.6 17.16c.2.09.2.26.03.53a.28.28 0 0 1-.39.1l-1.39-.8a.2.2 0 0 0-.25.02l-.4.41c-.26-.04-.42-.16-.5-.35-.08-.2-.04-.24.13-.1l.22.1c.06.01.11 0 .17-.02.16-.1.27-.22.34-.35.02-.05.08-.05.17 0l1.65.87c.02 0 .06-.03.11-.1.06-.06.1-.16.1-.3Z" fill="#FFFFFE"/><path d="M34 19.27c-.37-.15-.61-.5-.72-1.05.1.01.16.1.22.25.05.15.1.24.13.3.1.16.22.33.37.5Z" fill="#EAD534"/><path d="m23.81 23.15-1.17-1.24.05-.05 1.06.98c.04.04.09.07.14.08l1.05.2c.05.01.1 0 .14-.02.58-.34.87-.7 1.64-.66.76.04 1.32.04 1.66 0a.2.2 0 0 0 .14-.08c.11-.14.2-.31.26-.5a.18.18 0 0 0-.02-.16l-.19-.3a.98.98 0 0 0-.24-.74c-.05-.06-.1-.06-.15-.01a.55.55 0 0 0-.11.23c-.2-.22-.15-.56.2-.54a.21.21 0 0 1 .18.11l.45.93a.47.47 0 0 0 .29.25l1.02.32a.14.14 0 0 0 .15-.06.14.14 0 0 0 .02-.05l.06-.43c.01-.07.05-.1.12-.11.4-.04.77.03 1.12.2.13.06.26 0 .36-.2.06-.1.13-.1.21-.02.54.56 1.11.88 1.97.79.41-.05.45-.54.45-.87 0-.06.03-.12.07-.17l1.03-1.22c.08.24.01.45-.18.63-.4.37-.62.61-.69.71a.4.4 0 0 0-.05.18c-.05.45-.08.95-.66.98-.87.05-1.24-.2-1.93-.74-.06-.05-.1-.05-.16 0-.1.1-.2.15-.31.15h-.03l-1.04-.23c-.05 0-.09.01-.1.07l-.11.5a.22.22 0 0 1-.3.17l-.97-.4c-.07-.03-.14-.02-.18.05-.22.28-.35.5-.39.67a.13.13 0 0 1-.1.1c-.5.11-1.13.11-1.89.01-.62-.08-1.13.41-1.65.67a.22.22 0 0 1-.17.01c-.39-.14-.74-.2-1.05-.2Z" fill="#FFFFFE"/><path d="M28.57 21.4c-.22-.07-.4-.24-.5-.52.03-.1.07-.19.12-.23.04-.05.1-.05.14 0 .18.21.26.46.24.75Z" fill="#93AE37"/><path d="M19.8 21.91c-.04-.34-.24-.45-.55-.37-.16.04-.25.11-.28.22-.04.14.03.29.2.45a.88.88 0 0 0 0 .47 2.15 2.15 0 0 1-1.22-.42.28.28 0 0 0-.16-.05l-1.48.01c.06-.08.1-.13.12-.13.42-.04.84-.06 1.26-.06.47 0 .62.28 1.02.38a.19.19 0 0 0 .18-.05.2.2 0 0 0 .06-.17l-.12-.62c0-.05.01-.09.06-.11l.57-.28c.09-.05.16-.03.22.07l.34.59c.02.04.01.06-.03.08a.39.39 0 0 1-.18 0Z" fill="#FFFFFE"/><path d="M19.8 21.91c-.08.17-.3.26-.62.3-.18-.16-.25-.31-.21-.45.03-.1.12-.18.28-.22.3-.08.5.03.56.37Z" fill="#93AE37"/><path d="m22.05 22.09.04.05c.01.04 0 .06-.05.05a.9.9 0 0 1-.39-.17l.4.07Z" fill="#FFFFFE"/><path d="M16.31 22.22h1.48c.06 0 .11.01.16.04a2.15 2.15 0 0 0 1.23.42c-.07.32.01.55.27.68.05.02.06.06.04.11a1 1 0 0 0-.03.62v6.45c-.03.27.01.48.11.65h-.07c-.07 0-.1.04-.1.1v6.3a12.57 12.57 0 0 1-4.36-8.72c-.18-2.37.24-4.59 1.27-6.65ZM20.56 23.04c-.22.48-.51.66-.87.54l.87-.54Z" fill="#93AE37"/><path d="m22.34 26.9-.04.14c.16.19.24.16.25-.07l.03-.74c-.03.35-.02.7.03 1.05.05.45.08.8.07 1.04L22.63 31l-.05 1.88-.02-.1c-.02-.06-.06-.09-.13-.08-.3.02-.84.12-1.07-.13a57.95 57.95 0 0 0-1.9-2.02V24.1l.23-.5c.36.1.65-.07.87-.55.23.46.35.95.37 1.48.01.3.18.45.5.4.07 0 .19.02.34.08.05.01.08.05.09.1.06.77.12 2.02.18 3.77a4.12 4.12 0 0 0 .22 1l.03.01.05-.01v-.01c0-.17-.04-.62-.1-1.33-.06-.54.1-1.07.1-1.63Z" fill="#D82B29"/><path d="m22.58 26.23-.03.74c-.01.23-.1.26-.25.07 0 0 0-.05.04-.14l.1-1.42a.1.1 0 0 1 .04-.08.1.1 0 0 1 .09-.01l.06.02c.02 0 .03.01.03.03l-.08.79Z" fill="#93AE37"/><path d="M31.96 29.1c.57-.4 1-.89 1.3-1.48.05-.16.12-.3.21-.42.07-.09.1-.08.07.03-.16.8-.9 1.6-1.56 1.97-.05.02-.07.01-.06-.04l.04-.07Z" fill="#0D1413"/><path d="M33.26 27.62c-.3.6-.73 1.08-1.3 1.47h-.16c.21-.42.4-.7.59-.8.36-.2.6-.47.74-.8.07.05.1.09.13.13Z" fill="#FFFFFE"/><path d="M28 27.92c-1.62.4-2.84.81-3.61 2.26-.18.32-.42.44-.76.42-.43.05-.3-.04.43-.27.06-.02.1-.06.13-.1.5-.8.94-1.44 1.84-1.82.6-.26 1.22-.44 1.84-.56.04 0 .06-.02.07-.06l.03-.05c-.03.04-.02.1.02.18Z" fill="#1A1919"/><path d="M28 27.92c.2.71.33 1.01.95 1.39.05.03.07.08.07.14 0 .03-.04.08-.11.15a.06.06 0 0 0-.01.06c0 .02 0 .02.02.03l.03.01c.04 0 .1-.02.15-.09a.17.17 0 0 1 .17-.04l.55.16c.05.02.07.06.04.11l-.07.17c0 .08.02.1.08.06.06-.05.1-.09.1-.12a.1.1 0 0 1 .03-.05.1.1 0 0 1 .06-.02c.02 0 .04 0 .06.02l.05.04c.6.96.16 1.56-.35 2.34a4.04 4.04 0 0 0-.61 2.42.15.15 0 0 1-.07.13c-.06.05-.17.06-.31.02-.22-.05-.33-.14-.32-.27.05-.78.09-1.55.12-2.33 0-.09-.04-.12-.13-.1a.18.18 0 0 0-.09.08c-.18-.02-.31 0-.4.05-.1 0-.2.06-.28.15 0-.1-.15-.08-.42.06l-.56.2c-.03 0-.04.02-.02.05l.04.02c.02 0 .05 0 .08-.02l.14-.07a.16.16 0 0 1 .17.06l.62.77a.1.1 0 0 1-.05.15c-.5.12-1.05-.3-1.31-.69-.03-.05-.08-.06-.14-.04-.65.26-1.07.7-1.26 1.33a.32.32 0 0 1-.32.24l-.4.02c-.19 0-.26-.08-.24-.26.27-1.7.4-2.71.38-3.04-.01-.43-.14-.57-.37-.42-.23.03-.37-.03-.44-.19.34.02.59-.1.76-.42.77-1.45 1.99-1.86 3.6-2.26ZM19.46 30.54c.7.7 1.33 1.38 1.9 2.02.23.25.77.15 1.07.13.07 0 .11.02.13.09l.02.09c-.02-.01-.04.02-.05.1-.43 1.26-1.8 1.48-2.4.19-.08-.2-.08-.35 0-.47.03-.05.08-.06.14-.04.22.09.37.11.44.08.13-.05.14-.12.05-.22l-1.19-1.32c-.1-.17-.14-.38-.11-.65Z" fill="#FFFFFE"/><path d="M27.3 32.49c.16.34.38.65.65.9a.27.27 0 0 0 .38.01.28.28 0 0 0 .07-.11c.12-.32.12-.67.01-1.06a.18.18 0 0 1 .1-.07c.08-.03.13 0 .12.1l-.12 2.32c0 .13.1.22.32.27l-.02.1-.29-.11c-.08-.03-.13 0-.12.09l.02.5c0 .06.04.09.1.07.21-.05.35 0 .42.17.03.07.07.1.14.08.11-.02.18-.1.21-.22a.53.53 0 0 0-.06-.37l.18-.23.39.38a.4.4 0 0 0 .55.02c.1-.1.09-.17-.02-.24l-.92-.6c.1.01.15-.07.17-.25.5.29.98.58 1.44.89.17.1.5.22.77.24.6.03 1.12.16 1.57.38.32.16.3.27-.07.35-.1.02-.28.02-.55 0a.16.16 0 0 0-.14.07c-.07.08-.09.2-.05.36a.14.14 0 0 0 .1.11h.06c.5-.1.96-.3 1.36-.6.1-.07.1-.14 0-.21-.47-.35-.87-.65-1.47-.93l-.95-.44c.12-.07.2-.16.24-.27a9.9 9.9 0 0 1 4.48 3.55c-.07.1-.17.2-.28.3-.04-.1-.12-.09-.26.03l-1.48.59a.15.15 0 0 0-.1.13.5.5 0 0 0 .06.3c-.08-.01-.15.02-.22.09l-.29-.3a.15.15 0 0 0-.14-.04c-.73.14-1.59.25-1.98.63a.2.2 0 0 0-.07.16l.02.66-.24.08-.21-.95c-.02-.06-.05-.09-.11-.08l-2.57.1c-.05 0-.08.03-.08.09l-.02 1.33c-.02 0-.03.04-.03.1 0 .02.01.05.05.1H28c0-.09.02-.15.1-.19l-.04-1.39c0-.02-.01-.04-.03-.05a.1.1 0 0 0-.05-.03l-1.4-.2a.51.51 0 0 0-.57.4l-.1.48c-.03.13-.08.14-.13 0-.14-.34-.19-.67-.15-1 .02-.08-.02-.13-.11-.14l-.19-.03c-.08 0-.13.03-.15.1l-.3 1.48a.67.67 0 0 0-.26-.2l.24-1.45c0-.05-.02-.09-.06-.1l-2.02-.84c-.05-.02-.09-.01-.12.03l-.9 1.3c-.12-.04-.18-.12-.17-.24l.8-1.32a.07.07 0 0 0 0-.05.06.06 0 0 0-.03-.04l-1.34-.77h-.04l-.03.01-.98 1.11c-.13-.03-.19-.13-.19-.3.77-1.05 1.7-1.93 2.81-2.63.15.03.3-.08.43-.33.21-.04.42-.1.62-.2.33-.14.38-.38.41-.71l.27-2.33c.03-.28-.05-.5-.24-.64.23-.15.36 0 .37.42.01.33-.11 1.34-.38 3.04-.02.18.05.27.23.26l.41-.02c.17 0 .27-.09.32-.24.19-.62.61-1.07 1.26-1.33.06-.02.1 0 .14.04.26.4.8.81 1.31.7a.1.1 0 0 0 .05-.16l-.62-.77a.17.17 0 0 0-.17-.06.5.5 0 0 0-.14.07c-.03.02-.06.03-.08.02a.07.07 0 0 1-.04-.02c-.02-.03-.01-.05.02-.06l.56-.19Z" fill="#01843B"/><path d="m19.57 31.19 1.2 1.32c.08.1.07.17-.06.22-.07.03-.22 0-.44-.08-.06-.02-.1 0-.14.04-.08.12-.08.27 0 .47.6 1.29 1.97 1.07 2.4-.2.23.53.13 1.48.05 2.04-1.1.7-2.04 1.58-2.8 2.64-.02.16-.14.14-.37-.04l-.01-6.3c0-.07.04-.1.1-.1l.07-.01Z" fill="#D82B29"/><path d="M28.41 32.23c.11.39.11.74 0 1.06a.28.28 0 0 1-.34.17.27.27 0 0 1-.12-.06 2.95 2.95 0 0 1-.64-.91c.42-.22.85-.3 1.1-.26Z" fill="#93AE37"/><path d="m31.65 34.46.95.44c.6.28 1 .58 1.48.93.1.07.1.14 0 .22a3.72 3.72 0 0 1-1.43.6.13.13 0 0 1-.08-.07.14.14 0 0 1-.02-.05c-.04-.16-.02-.28.05-.36a.16.16 0 0 1 .14-.07c.27.02.46.02.55 0 .37-.08.4-.2.07-.35a4.01 4.01 0 0 0-1.57-.38c-.26-.02-.6-.13-.77-.24-.46-.3-.94-.6-1.44-.89-.16-.06-.2-.18-.1-.36.03-.04.07-.06.11-.04l2.06.62ZM29.4 34.5l.93.59c.1.07.11.15.02.24a.4.4 0 0 1-.55-.02l-.39-.38c-.07-.16-.07-.3 0-.43ZM28.8 34.95c.2.05.33.12.43.21.07.14.1.26.06.37-.03.13-.1.2-.21.22-.07.01-.11-.01-.14-.08-.07-.16-.2-.22-.42-.17-.06.02-.1-.01-.1-.08l-.02-.49c0-.1.04-.12.12-.09l.29.1ZM21.58 38.99c-.01.11-.1.12-.28.02-.46-.28-.9-.6-1.32-.94-.09-.07-.1-.12-.02-.14l.98-1.1c0-.02.02-.02.03-.03l.04.01 1.34.77a.07.07 0 0 1 .03.07v.02l-.8 1.32ZM24.6 40.29c0 .08-.03.11-.08.1a10.6 10.6 0 0 1-2.77-1.16l.9-1.3c.03-.04.07-.05.12-.03l2.02.83c.04.02.06.06.06.1l-.24 1.46Z" fill="#EAD534"/><path d="M36.09 38.03c-.04.06-.09.1-.14.1-.04-.04-.08-.06-.12-.06.14-.12.22-.13.26-.04Z" fill="#93AE37"/><path d="M35.83 38.07c.04 0 .08.02.12.06-.42.33-.86.63-1.32.9-.13.08-.24.1-.32.06a.5.5 0 0 1-.07-.3c.01-.07.05-.1.1-.13l1.5-.59ZM34.09 39.18c.04.09 0 .17-.12.23-.73.37-1.48.68-2.27.91-.03.01-.06 0-.07-.03l-.02-.66a.2.2 0 0 1 .07-.16c.4-.38 1.25-.5 1.98-.63.05-.01.1 0 .14.04l.29.3ZM28.08 40.87c-1.1.02-2.18-.1-3.2-.38l.3-1.47c.01-.08.06-.12.14-.1l.19.02c.09.01.12.06.11.15-.04.32.01.65.15 1 .05.13.1.12.12-.01l.1-.47a.5.5 0 0 1 .57-.4l1.4.19a.1.1 0 0 1 .06.03c.02.01.02.03.02.05l.04 1.4ZM31.39 40.37a.24.24 0 0 1-.11.06c-.92.27-1.88.42-2.88.43l.02-1.33c0-.06.03-.08.08-.09l2.57-.1c.06 0 .1.02.1.08l.22.95Z" fill="#EAD534"/><path d="M26.17 17.37v.01a.03.03 0 0 0 .02.04c.18 0 .3.02.36.08a.07.07 0 0 1 0 .1l-.03.02a1.5 1.5 0 0 1-.65.03.21.21 0 0 1-.16-.28.21.21 0 0 1 .06-.1c.33-.28 1.23-.65 1.48.02l.15.36c.3.37.45.31.48-.19l.06-1.13a.16.16 0 0 0-.13-.16l-.08.01c-.66.27-1.23.41-1.72.43-.06 0-.1-.03-.1-.09-.02-.1.03-.25.16-.44.03-.05.07-.05.1.01.07.17.2.22.37.17a23.57 23.57 0 0 1 1.44-.4.18.18 0 0 1 .12.08l.03.08c.09.55.45.93 1.08 1.14a.14.14 0 0 0 .15-.04.15.15 0 0 0 .03-.15c-.12-.35-.05-.67.21-.98a.17.17 0 0 1 .3.07l.06.37c.02.07 0 .1-.07.06l-.12-.07a.1.1 0 0 0-.14.08l.03.7a.16.16 0 0 1-.1.16c-.5.14-.9.01-1.19-.4a.11.11 0 0 0-.12-.06c-.02 0-.04.02-.04.03l-.03.07a2 2 0 0 1-.11.96.33.33 0 0 1-.35.2c-.54-.07-.59-.4-.73-.82a.2.2 0 0 0-.05-.08.2.2 0 0 0-.07-.04.64.64 0 0 0-.7.15ZM22.1 18.05c.51.22 1 .21 1.3-.3.29-.49.5-.9.6-1.24.09-.23.15-.23.2 0 .03.25-.18.78-.37 1.16-.34.67-.7 1.03-1.46.84a.89.89 0 0 1-.2-.07c-.18-.1-.26-.2-.23-.3.02-.1.08-.12.16-.09ZM30.64 18.25a2.41 2.41 0 0 1-.88.75.08.08 0 0 1-.09-.07v-.06c-.02-.03-.01-.06 0-.1a.16.16 0 0 1 .07-.07c.33-.19.56-.4.71-.64a.23.23 0 0 1 .14-.1c.15-.04.26.02.32.18.03.06 0 .08-.05.07l-.08-.02a.13.13 0 0 0-.14.06ZM25.56 18.61a.34.34 0 0 0-.23-.08.33.33 0 0 0-.22.08l-.64.63c-.38.39-.77.39-1.22.27-.07-.02-.1-.06-.11-.12 0-.05 0-.08.02-.1.06-.04.1-.06.13-.06.43.05.75.02 1.09-.34.27-.3.65-.72 1.09-.64.24.04.4.2.49.5.05.19 0 .22-.15.08l-.25-.22Z" fill="#0D1413"/><path d="m21.02 19.5-1.13-1.04a.16.16 0 0 0-.23 0v.02a.16.16 0 0 0 0 .22l1.13 1.04c.06.06.17.06.23 0v-.01a.16.16 0 0 0 0-.23Z" fill="#1A1919"/><path d="M30.2 19.97c-.09.05-.16.07-.21.07a.11.11 0 0 1-.1-.08.12.12 0 0 1 .03-.13c.23-.2.47-.2.75-.06 1 .47 2.02.5 3.04 1a.15.15 0 0 1 .08.13v.08a.05.05 0 0 1-.02.05h-.05a5.7 5.7 0 0 0-1.45-.46 6 6 0 0 1-1.88-.6.2.2 0 0 0-.2 0Z" fill="#0D1413"/><path d="M19.77 20.51c-.58.12-1.13 0-1.67-.32a.1.1 0 0 1-.05-.07l.01-.09a.21.21 0 0 1 .07-.08.24.24 0 0 1 .1-.04l.85-.12c.13-.02.25.02.34.12l.41.4a.12.12 0 0 1 .03.12.12.12 0 0 1-.1.08Z" fill="#1A1919"/><path d="M22.76 20.97c.55.14 1.03.11 1.44-.09a3.2 3.2 0 0 1 2.68-.12.08.08 0 0 1 .02.07l-.02.03-.08.07a.18.18 0 0 1-.17.05c-.71-.2-1.32-.17-2.08.15-.5.2-1.01.3-1.56.3-.4-.02-.63-.22-.69-.63 0-.08 0-.13.05-.18.05-.05.1-.05.13.02l.13.21c.03.06.08.1.15.12Z" fill="#0D1413"/><path d="m30.67 26.51-.04.01-.02.04.04.03c.52.45 1.18.45 1.75.11.9-.54 1.33-1.4 1.28-2.6 0-.06.02-.09.08-.08h.07a.18.18 0 0 1 .16.17 3.66 3.66 0 0 1-1.34 3.5c-.07.05-.1.03-.1-.05.02-.22.09-.41.2-.59.02-.02.01-.03-.01-.04h-.08c-.47.53-1 .99-1.6 1.38-.02.02-.02.03.01.04l.08.04.06-.01 1.06-.8c.11-.09.14-.07.09.06-.34.82-.8 1.5-1.36 2.01-.06.06-.07.12 0 .18l.06.06a.14.14 0 0 1 .04.12l-.1.65c0 .06.01.11.05.16.5.73.76 1.55.79 2.47 0 .25-.02.43-.07.54a.28.28 0 0 1-.51-.07 4.71 4.71 0 0 0-.89-1.84.17.17 0 0 1-.03-.16c.18-.56.4-.94.17-1.54a9.79 9.79 0 0 0-.2-.46c-.08-.2-.04-.39-.02-.57a.34.34 0 0 0 0-.17 2.66 2.66 0 0 1-.2-1.47l-.08.02a.09.09 0 0 0-.06.07c-.1.46-.04.92.16 1.38.04.08.03.23-.03.44-.02.06-.05.08-.12.07-.68-.14-1.42-.56-1.67-1.28-.18-.53-.37-1.16-.16-1.69.15-.39.43-.58.85-.57.21 0 .38.1.57.15.06.02.12.01.18 0 .62-.2 1.2-.4 1.45.43.02.07 0 .1-.07.08-.16-.05-.3-.12-.44-.22Z" fill="#FFFFFE"/><path d="m30.91 33.82-1.23-.27a.17.17 0 0 1-.11-.07.17.17 0 0 1-.02-.13c.12-.47.3-.86.54-1.17.08-.1.15-.1.23 0 .33.47.56.97.7 1.52.03.1 0 .14-.1.12ZM26.26 33.1c.1.14.17.22.2.24.19.18.15.26-.1.22-.26-.03-.52.05-.78.23-.06.04-.08.03-.06-.04.02-.1.08-.19.16-.26a6.74 6.74 0 0 1 .56-.41l.02.01Z" fill="#93AE37"/><path d="M27.34 33.89c-.35.19-.93.47-1.73.86-.22.1-.45.27-.68.49a.2.2 0 0 1-.21.03.19.19 0 0 1-.06-.05c-.18-.2-.37-.23-.57-.1a.14.14 0 0 1-.15 0 .84.84 0 0 1-.19-.14.16.16 0 0 1 .12-.27l1-.05c.07 0 .13-.03.16-.1l.24-.41c.04-.06.09-.1.16-.1.5 0 .91-.07 1.25-.19a1.12 1.12 0 0 1 .69.02h-.02v.01ZM27.23 36.67c-.19-.56.03-.85.15-1.39.1-.44.27-.57.54-.84a.05.05 0 0 1 .06-.01s.02 0 .02.02l.01.03.1 2.26a.16.16 0 0 1-.2.16l-.57-.13a.15.15 0 0 1-.1-.1ZM22.94 36c0 .18.22.31.36.34a.13.13 0 0 1 .1.09.13.13 0 0 1-.03.13l-.62.62c-.1.1-.22.12-.35.05l-.94-.54c-.16-.1-.17-.2-.04-.34a8.7 8.7 0 0 1 1.74-1.28c.05-.03.1-.03.16 0l.5.4c.27.2.24.28-.1.24a2.03 2.03 0 0 0-.45-.02c-.23.03-.34.13-.33.3ZM33.05 36.92c.5-.15.94-.37 1.32-.67.07-.06.14-.05.21.02l1.3 1.29a.12.12 0 0 1 0 .16.12.12 0 0 1-.05.03l-1.76.62h-.05a.09.09 0 0 1-.04-.03l-.96-1.35c-.03-.03-.02-.06.02-.07ZM24.1 36.67c.1.64.41 1.01.92 1.12.14.03.19.11.13.25l-.09.21a.2.2 0 0 1-.25.1l-1.77-.73c-.11-.05-.13-.11-.04-.2l.84-.83c.14-.15.23-.12.26.08ZM27.24 37.9c.06.06.25.08.56.05a.15.15 0 0 1 .15.08l.01.06.03.74c.01.13-.05.19-.18.18a3.01 3.01 0 0 1-1-.18c-.42-.25-.41-.73-1.01-.82a.2.2 0 0 1-.15-.1.21.21 0 0 1-.01-.2c.14-.33.37-.58.67-.75a.18.18 0 0 1 .1-.02l.76.1c.06.02.1.05.08.12l-.07.57c-.01.06 0 .12.06.17ZM32.07 38.8c-.23-.14-.57-.4-.7-.5-.43-.31-.29-.97.22-1.04.27-.04.5-.1.69-.16.2-.07.36-.02.49.15l.72 1.01c.12.17.08.28-.13.32l-1.2.23c-.03 0-.06 0-.1-.02ZM29.93 37.81l.22-.21a.1.1 0 0 1 .07-.03.1.1 0 0 1 .07.04 3.55 3.55 0 0 1 .7 1.28.15.15 0 0 1-.15.12l-1.38.06a.18.18 0 0 1-.15-.06c-.3-.33-.4-.73-.29-1.2a.17.17 0 0 1 .14-.13h.07l.54.17c.06.02.12.01.16-.04Z" fill="#EAD534"/><path d="M30.9 27.79a.08.08 0 0 1-.05.02.07.07 0 0 1-.05-.03l-.03-.03a.68.68 0 0 1-.1-.13.5.5 0 0 1-.04-.13.27.27 0 0 1 0-.1c0-.04.02-.06.04-.08l.03-.03c.04-.04.11-.04.19-.01s.16.09.23.17l.03.03a.08.08 0 0 1 0 .11l-.25.21Z" fill="#0D1413"/><circle cx="12.5" cy="26.5" r=".5" fill="#1E2D68"/><circle cx="43.5" cy="26.5" r=".5" fill="#FF0D14"/><path d="m13.12 28.1.05.65c0 .16 0 .29-.03.38a.62.62 0 0 1-.17.24.96.96 0 0 1-.32.2c-.14.04-.31.08-.52.1-.18 0-.35 0-.49-.03a.98.98 0 0 1-.34-.14.62.62 0 0 1-.2-.22.88.88 0 0 1-.08-.35l-.05-.67 2.15-.16Zm-.34.38-1.42.11.02.27c0 .11.02.2.05.25a.3.3 0 0 0 .1.11c.05.03.12.06.22.07.1.01.22.02.37 0 .16 0 .28-.03.37-.06a.5.5 0 0 0 .21-.12c.05-.05.08-.1.1-.17v-.3l-.02-.16Zm-1.4 3.16-.06-.38.45-.24-.13-.7-.5-.05-.07-.38 2.24.29.07.37-2 1.09Zm.73-.8.74-.39-.83-.09.09.48Zm-.67 1.01 2.07-.58.1.34-.92.26 1.11.44.13.46-.98-.41-1.08 1.03-.13-.45.85-.74-.43-.18-.63.17-.1-.34Zm.76 2.38 1.95-.87.14.32-1.62.73.37.8-.34.16-.5-1.14Zm1.41 2.78-.2-.34.35-.38-.35-.6-.5.11-.2-.33 2.22-.49.19.33-1.5 1.7Zm.4-1 .58-.61-.82.2.25.41Zm-.28 1.18 1.75-1.26.2.3-.77.55 1.2.03.28.39-1.07-.05-.66 1.34-.27-.38.53-.98-.46-.03-.53.38-.2-.29Zm1.51 1.98 1.57-1.48.52.54c.13.14.2.26.24.34.03.09.02.18-.01.29a.7.7 0 0 1-.2.3.64.64 0 0 1-.37.18.54.54 0 0 1-.38-.11.9.9 0 0 1 0 .26c-.02.08-.05.2-.12.39l-.16.44-.29-.3.17-.52.1-.35-.01-.14a.48.48 0 0 0-.1-.15l-.06-.05-.65.62-.25-.26Zm1.15-.6.18.2.23.2a.2.2 0 0 0 .14.02c.05 0 .1-.04.15-.09a.3.3 0 0 0 .1-.14.2.2 0 0 0-.02-.14 1.4 1.4 0 0 0-.19-.22l-.19-.2-.4.37Zm1.52.25.27.23-.76.88-.22.28a.36.36 0 0 0-.06.24c.01.08.05.15.13.22.06.05.12.08.19.08.06.01.12 0 .18-.04l.3-.3.77-.91.27.23-.74.86c-.19.22-.33.37-.44.45a.53.53 0 0 1-.36.1.7.7 0 0 1-.4-.19.8.8 0 0 1-.27-.35.56.56 0 0 1 .01-.36c.04-.12.17-.3.38-.55l.75-.87Zm1.25 1.02.58.41c.15.12.25.2.3.28.04.08.06.17.05.27 0 .1-.04.2-.11.3a.57.57 0 0 1-.22.18.46.46 0 0 1-.25.05c.06.1.09.2.09.3 0 .1-.05.21-.12.32-.1.13-.2.21-.33.26a.46.46 0 0 1-.33 0c-.07-.02-.21-.11-.42-.26l-.5-.35 1.26-1.76Zm.08.5-.29.4.2.14c.1.09.18.13.21.15.06.03.11.03.16.02.05-.01.1-.05.14-.1.04-.06.06-.11.06-.16a.18.18 0 0 0-.04-.12 2.2 2.2 0 0 0-.27-.2l-.17-.13Zm-.5.7-.33.47.27.2c.12.08.2.12.24.13a.2.2 0 0 0 .14 0l.13-.12a.31.31 0 0 0 .06-.17c0-.05 0-.1-.04-.15-.03-.04-.1-.1-.23-.2l-.24-.16Zm1.63-.34.63.32c.17.08.29.16.34.23.06.06.09.15.1.25 0 .1-.02.21-.07.31a.57.57 0 0 1-.19.22.45.45 0 0 1-.24.09c.08.08.12.17.13.28.02.1 0 .22-.07.33a.68.68 0 0 1-.28.3.46.46 0 0 1-.33.06 2.78 2.78 0 0 1-.45-.2l-.54-.27.97-1.92Zm.16.48-.23.44.21.11.24.11c.06.02.11.02.16 0a.26.26 0 0 0 .12-.13c.03-.06.04-.11.04-.16a.18.18 0 0 0-.06-.11 2.2 2.2 0 0 0-.3-.17l-.18-.1Zm-.39.76-.26.52.3.15c.13.06.21.1.26.1a.2.2 0 0 0 .13-.03.32.32 0 0 0 .11-.13.31.31 0 0 0 .04-.18c0-.05-.03-.1-.06-.14l-.26-.16-.26-.13Zm.88 1.5.8-2 1.22.48-.14.34-.88-.36-.18.45.82.33-.13.34-.83-.34-.22.55.92.37-.14.33-1.24-.5Zm1.55.6.58-2.07.73.2c.18.06.3.11.38.17.07.06.11.15.14.25a.7.7 0 0 1-.02.35.64.64 0 0 1-.22.36c-.1.08-.24.11-.39.1.06.07.1.15.14.22l.1.4.1.46-.42-.12-.12-.52c-.04-.19-.08-.3-.1-.36a.28.28 0 0 0-.08-.11.49.49 0 0 0-.16-.07l-.07-.02-.24.87-.35-.1Zm.68-1.1.26.08.3.06a.2.2 0 0 0 .13-.05.32.32 0 0 0 .08-.16.3.3 0 0 0 0-.17.2.2 0 0 0-.08-.11 1.39 1.39 0 0 0-.27-.1l-.27-.07-.15.53Zm2.63-.33.35.04-.16 1.36c-.03.22-.07.38-.12.48a.53.53 0 0 1-.23.22c-.1.05-.2.07-.33.05a.49.49 0 0 1-.38-.22c-.08-.13-.1-.3-.08-.54l.34-.01c-.01.13 0 .22.02.27.03.08.08.12.15.13.08.01.14 0 .18-.06.04-.04.07-.16.1-.34l.16-1.38Zm.46 1.2c0-.26.05-.47.13-.63a.86.86 0 0 1 .31-.37.79.79 0 0 1 .45-.1c.25 0 .46.1.6.3.16.2.23.48.22.84-.01.36-.1.64-.28.83a.74.74 0 0 1-.6.25.75.75 0 0 1-.6-.28c-.17-.21-.24-.5-.23-.84Zm.37 0c-.01.24.03.43.12.55.09.13.2.2.34.2s.26-.05.36-.17c.1-.12.14-.3.15-.56.01-.25-.03-.44-.11-.56a.42.42 0 0 0-.35-.2.42.42 0 0 0-.36.18c-.1.11-.15.3-.15.55Zm1.6 1.1-.07-2.15.36-.01.07 2.15-.36.01Zm.73-.03-.17-2.14.35-.03.83 1.38-.11-1.44.33-.02.16 2.15-.35.03-.82-1.35.1 1.4-.32.02Zm2.18-.27-.33-1.76-.51.1-.07-.36 1.38-.26.07.36-.52.1.33 1.76-.35.06Zm1.45-1.05.32-.16c.13.25.3.33.5.26.1-.03.17-.09.2-.16a.27.27 0 0 0 .03-.23.23.23 0 0 0-.07-.1.24.24 0 0 0-.13-.06h-.34c-.15.01-.28 0-.36-.02a.56.56 0 0 1-.23-.15.65.65 0 0 1-.15-.24.64.64 0 0 1-.03-.33c.02-.1.06-.2.14-.28a.77.77 0 0 1 .3-.18c.2-.07.37-.07.52 0 .14.07.25.2.33.4l-.33.13c-.05-.1-.11-.17-.18-.2a.33.33 0 0 0-.23.01.36.36 0 0 0-.19.13.19.19 0 0 0 .1.28 1 1 0 0 0 .34.03c.2-.02.33 0 .43.02.09.03.17.08.24.15.07.07.13.17.17.29.06.18.06.34 0 .5-.07.16-.22.28-.45.36-.4.15-.72 0-.93-.45Zm2.25-.11-.73-1.63-.48.22-.15-.34 1.28-.58.15.34-.48.21.74 1.63-.33.15Zm.4-1.34c-.13-.22-.2-.42-.22-.6a.86.86 0 0 1 .07-.48.79.79 0 0 1 .32-.33.76.76 0 0 1 .68-.06c.24.09.45.29.63.6.18.3.25.6.2.85a.74.74 0 0 1-.38.54.75.75 0 0 1-.66.07 1.27 1.27 0 0 1-.64-.59Zm.31-.2c.13.22.26.35.4.41.15.06.28.06.4-.01a.42.42 0 0 0 .2-.34c.03-.15-.03-.34-.16-.56-.12-.21-.26-.35-.4-.4a.42.42 0 0 0-.39.01.42.42 0 0 0-.21.34c-.02.15.03.33.16.55Zm2.4-1.23.37-.1c.1.23.12.43.09.6a.68.68 0 0 1-.28.4.69.69 0 0 1-.61.1 1.28 1.28 0 0 1-.69-.52c-.21-.3-.31-.58-.3-.85a.7.7 0 0 1 .31-.56.67.67 0 0 1 .53-.12c.13.02.27.1.42.22l-.23.3a.48.48 0 0 0-.27-.15.34.34 0 0 0-.24.07.38.38 0 0 0-.16.32c0 .14.07.32.22.53.16.22.3.36.44.4.13.05.25.03.36-.04a.32.32 0 0 0 .13-.23.7.7 0 0 0-.08-.37Zm1 .22-1.48-1.57.26-.24.66.7-.13-1.2.34-.33.1 1.07 1.41.47-.33.32-1.05-.4.03.46.45.47-.26.25Zm1.86-3.13.32-.19c.15.2.24.38.25.54 0 .17-.05.33-.16.47a.69.69 0 0 1-.56.27c-.26 0-.53-.1-.8-.31a1.35 1.35 0 0 1-.52-.73.7.7 0 0 1 .14-.63.67.67 0 0 1 .47-.26c.13-.02.29.02.47.1l-.14.34a.48.48 0 0 0-.3-.06.34.34 0 0 0-.22.13c-.08.1-.1.22-.06.35.04.14.16.29.37.45.2.17.39.26.53.26.14.01.24-.03.32-.14a.32.32 0 0 0 .07-.26.7.7 0 0 0-.18-.33Zm.1-.56a1.52 1.52 0 0 1-.47-.44.86.86 0 0 1-.15-.45c0-.15.05-.3.14-.44a.76.76 0 0 1 .58-.36c.25-.03.53.05.83.24.3.2.49.42.57.68.07.22.03.44-.1.65a.75.75 0 0 1-.56.36c-.26.03-.54-.05-.84-.24Zm.2-.32c.2.14.38.2.54.19a.42.42 0 0 0 .38-.59c-.06-.14-.19-.28-.4-.42-.21-.14-.4-.2-.54-.19a.42.42 0 0 0-.34.2.42.42 0 0 0-.04.4c.05.14.18.28.4.41Zm1.76-.8-1.92-.98.24-.48 1.46.38-1.17-.95.24-.47 1.92.97-.15.3-1.51-.77 1.36 1.08-.16.3-1.67-.45 1.51.77-.15.3Zm.9-1.9-2.04-.67.18-.55c.07-.2.12-.33.16-.39a.48.48 0 0 1 .29-.18.78.78 0 0 1 .43.04.8.8 0 0 1 .34.2c.09.1.13.2.14.29.02.1-.01.25-.08.45l-.07.22.77.26-.12.34Zm-1.58-.9.58.2.06-.19a.87.87 0 0 0 .06-.26c0-.06-.02-.1-.06-.15a.33.33 0 0 0-.15-.1.33.33 0 0 0-.19-.01.24.24 0 0 0-.13.08c-.03.04-.07.13-.12.27l-.05.16Zm2.44-2.05-.09.37-.51.04-.16.7.44.24-.08.37-1.95-1.16.09-.36 2.26-.2Zm-.98.44-.83.06.72.41.11-.47Zm1.05-.65-2.14-.26.04-.35 1.52-.54-1.43-.17.04-.33 2.14.25-.04.36-1.49.54 1.4.17-.04.33Zm.24-2.26-.91-.03-1.27.61.01-.42.87-.39-.84-.43.01-.41 1.23.69.9.03v.35Z" fill="#1E2D68"/><path d="M13.54 23.95c.1.18.13.39.07.62a.88.88 0 0 1-.43.61c-.22.13-.5.15-.81.08-.35-.09-.6-.24-.75-.47a.86.86 0 0 1-.1-.68c.08-.33.25-.55.5-.66a.73.73 0 0 1 .4-.05l-.1.42c-.1 0-.17.02-.23.05-.1.06-.17.16-.2.3-.04.16-.01.3.1.4.1.13.26.2.48.26.22.05.4.05.53-.02a.45.45 0 0 0 .25-.32c.04-.14.01-.26-.06-.36a.64.64 0 0 0-.21-.16l.1-.42c.2.1.36.22.46.4Zm.53-.94c-.1.27-.25.46-.45.55-.25.14-.55.15-.9.03s-.58-.31-.7-.57c-.1-.2-.1-.43 0-.7.09-.29.23-.47.44-.57.24-.13.54-.14.9-.02.34.12.58.3.7.56.1.2.1.44 0 .72Zm-.4-.56a.84.84 0 0 0-.45-.31.84.84 0 0 0-.56-.03.49.49 0 0 0-.3.32.5.5 0 0 0 .04.44c.1.14.24.24.46.32.22.07.4.08.56.02a.5.5 0 0 0 .3-.32.49.49 0 0 0-.05-.44ZM15 20.69l-.18.39-1.67.16 1.33.6-.17.37-1.86-.85.18-.4 1.64-.16-1.3-.59.16-.36 1.87.84Zm.62-1.02c0 .13-.05.27-.14.4a.87.87 0 0 1-.6.41c-.25.05-.52 0-.8-.19-.27-.17-.45-.4-.52-.66a.93.93 0 0 1 .14-.77c.14-.22.3-.36.5-.42s.39-.05.57.04l-.23.35a.4.4 0 0 0-.38.05.59.59 0 0 0-.16.17.51.51 0 0 0-.06.44c.04.16.17.3.38.44.22.13.4.18.55.14a.57.57 0 0 0 .34-.24.5.5 0 0 0-.1-.69l-.25.4-.29-.18.46-.72.93.6-.16.23-.24-.1c.04.12.06.22.06.3Zm.21-3.48.28.24-.4.46 1.27 1.1-.28.33-1.28-1.1-.4.46-.27-.24 1.08-1.25Zm1.19-1.13.39 1.4.53.56-.31.3-.53-.56-1.4-.44.37-.35.92.35-.32-.92.35-.34Zm2.9.2a.83.83 0 0 1-.35.51.88.88 0 0 1-.73.17 1.13 1.13 0 0 1-.65-.49c-.21-.29-.3-.57-.25-.84a.86.86 0 0 1 .37-.57c.28-.2.55-.25.81-.16.15.05.26.13.34.23l-.35.24a.58.58 0 0 0-.21-.11c-.12-.03-.24 0-.36.09a.43.43 0 0 0-.2.36c0 .16.07.33.2.52.14.18.28.3.42.33.14.04.28.02.4-.07.12-.08.18-.19.19-.32a.64.64 0 0 0-.05-.25l.34-.25c.1.2.13.4.09.61Zm1.04-.35c-.26.15-.49.19-.7.13-.28-.07-.51-.26-.7-.58-.18-.32-.23-.62-.14-.89.05-.21.2-.4.46-.54.25-.14.48-.19.7-.12.27.06.5.25.69.57.18.32.23.62.15.89-.05.21-.2.4-.46.54Zm.07-.68a.84.84 0 0 0-.13-.53.84.84 0 0 0-.4-.4.49.49 0 0 0-.44.05.5.5 0 0 0-.26.36c-.02.16.02.34.13.54.12.2.25.33.4.39.15.05.3.04.45-.04.14-.09.23-.2.25-.37Zm1.7-.97-.4.14.23.7-.4.13-.66-1.94.85-.28c.2-.07.36-.07.51-.01.15.06.26.2.33.4.08.23.08.42 0 .55a.8.8 0 0 1-.45.31Zm.06-.47c.04-.06.04-.15 0-.25-.03-.1-.08-.16-.15-.18a.36.36 0 0 0-.24 0l-.38.13.2.57.37-.12c.1-.04.16-.08.2-.15Zm2.14.6-.2-.9-.78.18.2.9-.4.09-.47-2 .42-.1.17.77.78-.18-.18-.76.42-.1.46 2-.41.1Zm1.5-.67-.75.1-.09.43-.44.06.47-2.13.48-.06.97 1.94-.46.06-.18-.4Zm-.16-.33-.36-.77-.16.83.52-.06Zm2.26.66h-.43l-.87-1.43.03 1.46h-.4l-.05-2.04h.45l.85 1.4-.03-1.43.4-.01.05 2.05Zm2.17.08a.83.83 0 0 1-.6.13.88.88 0 0 1-.66-.37c-.14-.2-.2-.47-.15-.8.04-.36.17-.62.39-.78.18-.15.4-.2.66-.17.34.04.58.18.7.43.08.13.11.27.1.4l-.42-.06a.58.58 0 0 0-.08-.23c-.07-.1-.18-.16-.33-.18a.43.43 0 0 0-.39.14.9.9 0 0 0-.2.51c-.03.23 0 .4.08.53s.19.2.34.22c.14.02.26-.02.35-.1.05-.05.1-.13.14-.23l.42.06a.92.92 0 0 1-.35.5Zm1.39.05-.74-.17-.23.38-.44-.1 1.18-1.84.47.11.24 2.16-.45-.1-.03-.44Zm-.04-.37-.07-.85-.44.73.5.12Zm1.15 1.24c-.27-.1-.45-.26-.54-.47-.12-.25-.11-.55.02-.9.14-.34.34-.57.6-.67.2-.09.44-.08.71.03.28.1.46.26.54.46.12.26.12.56-.02.9-.13.35-.33.57-.6.68-.2.09-.44.08-.71-.03Zm.58-.36a.84.84 0 0 0 .33-.44c.09-.22.1-.4.06-.55a.49.49 0 0 0-.3-.33.5.5 0 0 0-.45.03.83.83 0 0 0-.34.44c-.09.21-.1.4-.06.55a.5.5 0 0 0 .31.32c.16.07.3.06.45-.02Zm1.55.91.23.1c.13.02.22-.02.28-.12a.18.18 0 0 0 0-.18.95.95 0 0 0-.2-.22l-.16-.15a1.37 1.37 0 0 1-.3-.36c-.08-.15-.06-.31.04-.49a.6.6 0 0 1 .4-.3c.17-.03.37.01.6.14.18.11.31.25.39.43.07.17.06.36-.04.55l-.36-.2c.06-.12.05-.22 0-.32a.54.54 0 0 0-.2-.16.47.47 0 0 0-.26-.08.21.21 0 0 0-.18.11.18.18 0 0 0 0 .2l.2.2.26.25c.11.11.2.21.23.3a.5.5 0 0 1-.05.46.59.59 0 0 1-.42.3.9.9 0 0 1-.62-.15.98.98 0 0 1-.45-.47.6.6 0 0 1 .05-.55l.35.2a.42.42 0 0 0-.03.23c.01.1.1.2.24.28Zm2.08.8.73-1.02.36.25-.73 1.03c-.13.18-.25.3-.38.35-.23.11-.5.06-.78-.14-.29-.2-.42-.44-.4-.7.02-.13.09-.29.22-.46l.73-1.03.35.25-.73 1.03a.71.71 0 0 0-.14.28c-.02.12.04.23.18.33.14.1.27.12.37.06a.7.7 0 0 0 .22-.22Zm1.09 2-.64-.61 1.41-1.48.64.6c.1.1.16.18.2.26.07.13.1.27.07.42a.9.9 0 0 1-.12.34 1.57 1.57 0 0 1-.8.66.74.74 0 0 1-.76-.2Zm1.28-.89c.03-.12-.02-.25-.16-.39l-.29-.27-.92.97.28.27c.15.14.32.16.52.07.1-.04.2-.12.31-.23a.97.97 0 0 0 .26-.42Zm.3 2.06-.46-.6-.42.15-.27-.35 2.06-.69.3.38-1.17 1.84-.28-.37.25-.36Zm.21-.31.48-.7-.8.29.32.4Zm.7 2.4-.3-.47.42-1.02-.29-.06-.57.37-.23-.35 1.72-1.1.23.35-.71.45 1.14.21.3.47-1.17-.25-.54 1.4Zm2.13-.35.17.4-1.53.69.42.92-.33.15-.6-1.31 1.87-.85Zm-.55 3-.24-.71h-.44l-.15-.42 2.18.03.15.46-1.7 1.34-.15-.44.35-.26Zm.3-.22.68-.5h-.85l.17.5Zm-.16 2.5-.13-.54.73-.82-.25-.15-.66.15-.1-.4 2-.47.1.41-.83.2 1 .57.12.54-1-.62-.98 1.13Z" fill="#FF0D14"/></svg>