<!-- by TradingView --><svg width="56" height="56" viewBox="0 0 56 56" xmlns="http://www.w3.org/2000/svg"><path fill="#F0F3FA" d="M0 0h56v56H0z"/><path d="M42.5 32.77c0-.34.17-.65.72-.9.56-.28.72-.68.78-1.3V25.5c0-.76-.03-1.2-.74-1.53-.42-.22-.76-.46-.76-.75 0-.82 1.04-1.21 3.7-1.21.76 0 4.3-.19 4.3 1.17 0 .6-.77.7-1.15 1.01-.14.12-.3.6-.35 1.4v4.47c0 .67-.01 1.1.05 1.3.16.31.42.48.7.63.43.26.75.53.75.81 0 .4-.43.7-1.09.9-.65.2-2.1.3-3.45.3-.76 0-3.46 0-3.46-1.23Z" fill="#DF2123"/><path d="M30 26.93c.23.05.4.07.56.07 1.09 0 1.44-.63 1.44-1.61 0-.88-.49-1.4-1.38-1.4-.28 0-.47.08-.55.23-.09.14-.07.53-.07 1.17v1.54Zm0 2.14v2.33c.1.3.37.5.65.62.47.24.71.51.71.83C31.36 34 28.25 34 27.5 34c-.76 0-4 0-4-1.2 0-.82 1.36-1.07 1.5-2.1v-5.93c-.11-.99-1.5-.9-1.5-1.78 0-1 1.98-.98 2.61-.98h6.36c1.98 0 5.53.42 5.53 3.04 0 1.13-1.06 1.93-2.07 2.35-.3.12-.44.23-.44.33 0 .12.19.23.58.33 1.17.3 1.99 1.1 2.26 2.3.1.41.08 1.36.55 1.53l.24.08c.59.19.88.43.88.72 0 1.27-2.49 1.31-3.3 1.31-2.12 0-3.34-.74-3.95-2.77-.3-.83-1.02-2.23-2.17-2.23-.19 0-.4.03-.58.07Z" fill="#00873C"/><path d="M5.5 32.98c0-.74.7-.78 1.18-1.11.1-.08.28-.48.34-1.2v-5.76c0-1.11-1.52-.85-1.52-1.87 0-.38.15-.65.44-.8.3-.15 1.26-.23 2.81-.23h5.42C17.67 22 21 23.75 21 28c0 4.42-3.62 6-7.15 6h-6.4c-.57-.03-1.95-.18-1.95-1.02Zm6.5-1.73c.04.3.14.5.23.6.09.1.26.15.52.15 2 0 3.25-1.97 3.25-4 0-2.22-1.17-4-3.46-4-.3 0-.53.1-.54.18v7.07Z" fill="#241661"/></svg>