<!-- by TradingView --><svg width="56" height="56" viewBox="0 0 56 56" xmlns="http://www.w3.org/2000/svg"><path fill="#F0F3FA" d="M0 0h56v56H0z"/><circle cx="28" cy="28" r="17" fill="#232867"/><path fill-rule="evenodd" d="M28 44a16 16 0 1 0 0-32 16 16 0 0 0 0 32Zm0-.34a15.66 15.66 0 1 0 0-31.32 15.66 15.66 0 0 0 0 31.32Z" fill="#fff"/><path fill-rule="evenodd" d="M28 39a11 11 0 1 0 0-22 11 11 0 0 0 0 22Zm0-.33a10.67 10.67 0 1 0 .01-21.35A10.67 10.67 0 0 0 28 38.67Z" fill="#fff"/><path d="m29.38 18.13-.66-.13-.33.82.33.19.66-.88Zm1.39.19.72.34-2.36.9-.13-.2 1.77-1.04Zm3.07 1.59-.5-.5-4.1.5v.18l4.6-.18ZM36 22l-.42-.66-6.58-.9-.09.18L36 22Zm-15.58-.66L20 22l7.09-1.38-.09-.18-6.58.9Zm1.74-1.43.5-.5 4.1.5v.18l-4.6-.18Zm3.07-1.6-.72.35 2.35.9.14-.2-1.77-1.04Zm1.39-.18.66-.13.33.82-.33.19-.66-.88ZM24.68 24.94c.56-.18 2.01-.54 3.32-.54 1.3 0 2.76.36 3.32.54l.3 3.24A33.28 33.28 0 0 0 28 26.32c-.86.38-2.78 1.3-3.63 1.86l.3-3.24Z" fill="#fff"/><circle cx="28" cy="20" r="1" fill="#fff"/><path d="M27.22 21.04 26.81 24h2.44l-.42-3a1.28 1.28 0 0 1-1.61.04Z" fill="#fff"/><path fill-rule="evenodd" d="M28 27a12.75 12.75 0 0 0-6 4.47l1.99 5.55.02.2.57-.05a2 2 0 0 1 .75.12l.04.01c.3.1.63.1.94.02l.04-.01c.3-.08.6-.16.93-.09l.63.14c.25.05.5.05.74 0l.69-.15c.32-.06.64.01.96.09l.16.04c.29.06.58.06.86-.01l.63-.21h.02L34 31.47A12.75 12.75 0 0 0 28 27Zm3.12 10 .36-1.17c-.4-1.2-2.48-2.55-3.48-3.07-1 .52-3.09 1.87-3.48 3.07l.3.98c.22.02.44.08.66.15.24.07.49.07.73 0 .38-.09.75-.18 1.15-.1l.63.14c.2.04.4.05.58 0l.69-.14c.4-.08.77 0 1.15.1.05 0 .1.02.14.03.19.04.38.04.57 0Z" fill="#fff"/><path d="M16.96 20.78c.1-.16.14-.3.12-.44a.56.56 0 0 0-.24-.35.5.5 0 0 0-.38-.1c-.13.02-.26.1-.36.26l.86.63Zm.19 1.12-1.5-1.1-.12.17-.53-.64.3-.43c.1-.14.19-.26.29-.37.1-.12.21-.21.34-.3a1.18 1.18 0 0 1 1.36.07 1.38 1.38 0 0 1 .54 1.4l-.08.26a4.86 4.86 0 0 1-.28.48l-.32.46Zm.82-5.26 1.1 1.07a3.24 3.24 0 0 1 .28.34 1.1 1.1 0 0 1 .14.43.9.9 0 0 1-.05.43c-.05.13-.13.26-.25.4-.24.25-.5.37-.8.36a.8.8 0 0 1-.4-.11 2.1 2.1 0 0 1-.37-.3l-.52-.5-.15.15-.43-.72.54-.58 1.03 1.01.14.13c.04.04.09.07.13.08.05.02.09.03.13.02.05-.01.09-.04.14-.1a.26.26 0 0 0 .07-.12c0-.05 0-.09-.02-.13a.5.5 0 0 0-.09-.13 2.76 2.76 0 0 0-.13-.14l-1.03-1.01.54-.58Zm2.8-.36a.62.62 0 0 0-.34-.26.48.48 0 0 0-.42.06.56.56 0 0 0-.24.6.64.64 0 0 0 .23.37.5.5 0 0 0 .4.1.56.56 0 0 0 .22-.09.35.35 0 0 0 .1-.1c.02-.03.05-.07.07-.13.05-.1.07-.2.07-.28a.55.55 0 0 0-.1-.27Zm.67-.45a1.4 1.4 0 0 1-.9 2.12 1.32 1.32 0 0 1-1.37-.63 1.24 1.24 0 0 1-.2-.6c-.06-.58.15-1.02.62-1.33.15-.1.32-.17.5-.19a1.36 1.36 0 0 1 .98.24c.15.1.27.24.37.4Zm2.86.27-.64.26-1.2-.94.48 1.23-.71.29-.68-1.76-.19.07-.1-.83.76-.3.97.76-.38-1 .72-.3.97 2.52Zm2.4-2.16.06.45a1.5 1.5 0 0 1-.16.8 1.4 1.4 0 0 1-.55.56 1.31 1.31 0 0 1-1.38-.1 1.4 1.4 0 0 1-.56-.9 1.4 1.4 0 0 1 1.11-1.62 1.53 1.53 0 0 1 .33 0l.06-.1.64.27-.47.72a.67.67 0 0 0-.43-.09.55.55 0 0 0-.45.45.63.63 0 0 0 .23.6.54.54 0 0 0 .42.1c.1-.02.19-.06.25-.1a.6.6 0 0 0 .15-.21l-.47.08.05-.7 1.18-.21Zm3.26.07-.28-.17a.78.78 0 0 0-.27-.09.3.3 0 0 0-.18.02c-.04.02-.07.05-.07.09 0 .03 0 .06.02.09.02.02.05.05.1.06a2.07 2.07 0 0 1 .23.11c.44.21.64.51.6.91a.9.9 0 0 1-.12.35.85.85 0 0 1-.56.41c-.12.03-.25.04-.39.02a1.86 1.86 0 0 1-.72-.24 9.93 9.93 0 0 1-.18-.1l.29-.76c.1.09.22.16.32.22s.22.1.34.11c.04 0 .08 0 .13-.02a.13.13 0 0 0 .05-.19.2.2 0 0 0-.08-.06 7.51 7.51 0 0 1-.4-.2 1.27 1.27 0 0 1-.29-.22.67.67 0 0 1-.17-.27.85.85 0 0 1-.02-.36.77.77 0 0 1 .31-.53c.08-.06.18-.1.3-.14a1.03 1.03 0 0 1 .63.06l.04-.11.68.2-.3.81Zm2.15 1.13a.64.64 0 0 0 0-.42.49.49 0 0 0-.3-.3.54.54 0 0 0-.47.04.59.59 0 0 0-.26.32.66.66 0 0 0-.03.23.54.54 0 0 0 .51.53 1 1 0 0 0 .15-.03.6.6 0 0 0 .25-.12.55.55 0 0 0 .15-.25Zm.76.27a1.38 1.38 0 0 1-.7.82A1.3 1.3 0 0 1 30.7 16a1.39 1.39 0 0 1-.38-1.5 1.25 1.25 0 0 1 .34-.53c.4-.4.86-.52 1.4-.33.17.06.32.15.45.28a1.43 1.43 0 0 1 .43.94c.01.19 0 .37-.07.54Zm1.59 2.45-.6-.35-.03-1.54-.64 1.14-.66-.39.92-1.64-.18-.1.57-.6.71.41.02 1.26.52-.94.68.4-1.31 2.35Zm3.15.56-.3.32a1.41 1.41 0 0 1-.72.38 1.32 1.32 0 0 1-.76-.08 1.38 1.38 0 0 1-.8-1.16 1.45 1.45 0 0 1 .33-1.03 1.33 1.33 0 0 1 2.14.13h.1l.2.68-.83.07a.71.71 0 0 0-.2-.4.56.56 0 0 0-.42-.14.56.56 0 0 0-.37.2.62.62 0 0 0-.15.43.57.57 0 0 0 .2.39c.07.07.15.11.23.13.07.02.16.01.25 0l-.36-.33.56-.4.9.8Zm.5 1.74.59-.2.12.2.13.13a.1.1 0 0 0 .11 0 .16.16 0 0 0 .08-.13.34.34 0 0 0-.07-.2.87.87 0 0 0-.14-.17l-.16-.14.78-.26a2.74 2.74 0 0 1 .25.31c.16.25.22.48.2.68a.67.67 0 0 1-.32.49.67.67 0 0 1-.63.05 1 1 0 0 1-.07.43.64.64 0 0 1-.25.3c-.1.06-.2.1-.31.12a.71.71 0 0 1-.32-.02.84.84 0 0 1-.3-.17 1.3 1.3 0 0 1-.27-.31c-.13-.21-.23-.46-.3-.76l.73-.25.04.26c.03.09.06.17.11.25.04.06.08.1.12.11.05.02.1.02.15-.01.09-.06.08-.17-.02-.32l-.24-.4ZM18.38 37.72l.14.14c.07.07.14.1.2.1.07 0 .13-.02.19-.08.04-.05.06-.1.06-.17s-.05-.14-.12-.21l-.13-.14-.34.36Zm0 1.97-.68-.67.24-.8-.02-.01-.5.54-.57-.56 1.28-1.37-.14-.14.69-.44.63.62c.12.12.22.23.3.35.07.1.12.23.14.38.03.15.02.3-.03.44-.04.14-.12.28-.23.4a.94.94 0 0 1-.91.3l-.2.96Zm1.17.82-.63-.46 1.07-1.55-.17-.12.63-.54.63.47-1.53 2.2Zm2.76 1.53-.7-.36.69-1.4-.74.38-.14-.83-.68 1.4-.7-.36.82-1.7-.17-.08.53-.64.73.38.14.74.68-.32.72.37-1.18 2.42Zm2.1-.53v-.9l-.4.8.4.1Zm.85 1.3-.84-.2v-.37l-.72-.17-.16.33-.83-.2.95-1.72-.2-.04.38-.75 1.28.31.14 2.81Zm2.5-.08c-.12.09-.26.16-.4.21a1.33 1.33 0 0 1-1.67-.9 1.43 1.43 0 0 1 .09-1.08 1.33 1.33 0 0 1 .75-.68c.16-.06.33-.09.5-.07l.15.02.1.04.06-.09.63.3-.45.84a1 1 0 0 0-.22-.2.56.56 0 0 0-.66.05c-.06.04-.1.1-.14.17a.63.63 0 0 0-.04.46.58.58 0 0 0 .28.32c.06.04.14.06.21.06.1.01.2 0 .27-.05.09-.05.17-.1.25-.18l.3.78Zm1.98-1.28a.64.64 0 0 0-.19-.38.48.48 0 0 0-.4-.13.54.54 0 0 0-.48.43.66.66 0 0 0 .05.44.52.52 0 0 0 .7.24l.1-.08a.61.61 0 0 0 .19-.23.56.56 0 0 0 .03-.29Zm.8-.1a1.4 1.4 0 0 1-.68 1.39 1.33 1.33 0 0 1-1.83-.53 1.41 1.41 0 0 1-.09-1.17c.2-.54.57-.85 1.12-.91.19-.03.36 0 .53.05a1.38 1.38 0 0 1 .79.66c.08.16.14.34.16.52Zm3.82-.06-.63.3-1.23-.88.53 1.2-.7.33-.76-1.73-.19.09-.14-.83.75-.35 1 .73-.43-1 .71-.32 1.09 2.46Zm.96-1.73a.27.27 0 0 0-.19-.14.3.3 0 0 0-.22.05.32.32 0 0 0-.14.18.29.29 0 0 0 .04.24c.05.08.11.12.2.14a.3.3 0 0 0 .22-.05c.06-.04.1-.1.13-.19a.29.29 0 0 0-.04-.23Zm.6-.4a1.01 1.01 0 0 1 .13.76c-.03.13-.08.25-.16.36a.98.98 0 0 1-.29.3.97.97 0 0 1-1.13-.03.97.97 0 0 1-.39-.64 1.03 1.03 0 0 1 .17-.76 1 1 0 0 1 1.4-.27c.1.07.2.17.26.28Zm1-1-.34-.54.17-.17c.05-.06.08-.1.1-.15a.1.1 0 0 0-.03-.12.15.15 0 0 0-.14-.04.32.32 0 0 0-.18.1.87.87 0 0 0-.13.19l-.08.2-.43-.73a2.84 2.84 0 0 1 .23-.33c.2-.2.4-.32.6-.34.2-.02.38.04.53.2.16.16.23.36.2.62.16-.05.3-.06.42-.04.12.02.23.08.33.18.1.09.16.18.2.29.04.1.06.2.05.32a.9.9 0 0 1-.08.34 1.3 1.3 0 0 1-.24.34c-.17.18-.38.34-.64.48l-.42-.68c.1-.02.17-.06.25-.1.07-.04.14-.1.2-.16.05-.05.07-.1.08-.15.01-.06 0-.1-.05-.14-.07-.08-.17-.04-.3.09l-.3.33Z" fill="#fff"/></svg>