<!-- by TradingView --><svg width="56" height="56" viewBox="0 0 56 56" xmlns="http://www.w3.org/2000/svg"><path fill="#F0F3FA" d="M0 0h56v56H0z"/><path d="M28.83 11.16A1.7 1.7 0 0 0 28 11c-.35 0-.63.05-.82.16-3.16 1.8-7.37 4.23-12.64 7.3a.78.78 0 0 0-.37.81c.1.46.37.86.84 1.2.58.4 2.34 1.43 5.28 3.08.13.07.25.07.37 0 2.99-1.72 5.4-3.11 7.23-4.18l.12-.01h.1c1.84 1.08 4.26 2.47 7.24 4.19.12.07.24.07.37 0A90.99 90.99 0 0 0 41 20.46c.47-.33.75-.73.84-1.2a.78.78 0 0 0-.37-.81c-5.27-3.07-9.49-5.5-12.64-7.29Zm-4.27 17.57c.3-.17.44-.4.44-.73a.79.79 0 0 0-.44-.72 7961.55 7961.55 0 0 0-9.5-5.33c-.73-.4-1.4-.77-1.71-1.54-.23-.57-.34-.54-.35.06v15.06c0 .6.12.63.34.06.32-.77.99-1.14 1.7-1.54.1-.04.18-.1.27-.14l9.25-5.18ZM43 28v7.53c0 .6-.12.62-.34.06-.32-.77-.99-1.14-1.7-1.54-.1-.04-.18-.09-.27-.14l-9.25-5.18A.79.79 0 0 1 31 28c0-.32.15-.56.44-.72 3.08-1.74 6.17-3.46 9.25-5.19l.26-.14c.72-.4 1.39-.76 1.7-1.54.23-.57.34-.54.35.06V28Zm-14.88 8.63c-.02.01-.06.02-.13.02-.05 0-.09 0-.1-.02l-7.23-4.17a.35.35 0 0 0-.37 0 90.29 90.29 0 0 0-5.28 3.08c-.47.33-.75.73-.84 1.2a.78.78 0 0 0 .37.81c5.27 3.07 9.48 5.5 12.64 7.29.19.1.46.16.82.16.36 0 .63-.05.82-.16 3.16-1.8 7.37-4.22 12.64-7.29a.78.78 0 0 0 .37-.82 1.92 1.92 0 0 0-.84-1.2c-.58-.4-2.34-1.42-5.28-3.07a.35.35 0 0 0-.37 0c-2.98 1.71-5.4 3.1-7.22 4.17Z" fill="#91131C"/></svg>