<!-- by TradingView --><svg width="56" height="56" viewBox="0 0 56 56" xmlns="http://www.w3.org/2000/svg"><path fill="#F0F3FA" d="M0 0h56v56H0z"/><path d="M48.58 25.2c-.6 1.97-4.15 5.22-14.15 5.22-6.27 0-9.97-.87-12.94-1.56-1.99-.47-3.65-.86-5.54-.86-3.22 0-6.82.76-8.85 1.37A9.5 9.5 0 0 1 7 28c0-7.73 9.4-14 21-14 10.16 0 18.64 4.81 20.58 11.2Z" fill="#E7118B"/><path d="M47.94 32.4C45.18 37.97 37.3 42 28 42c-7.7 0-14.43-2.76-18.09-6.88.9-1.42 3.33-3.66 7.5-3.66 2.19 0 3.36.27 4.95.63 2.57.59 6.22 1.42 17.03 1.76 2.58 0 6.2-.81 8.55-1.45Z" fill="#23AAE2"/><path d="M49 28.38a9.49 9.49 0 0 0-.03-1.11C46.9 29.3 41.75 31 37.67 31h-.53c-3.76 0-5.32 0-9.66-.62-1.77-.25-3.31-.6-4.78-.92-2.32-.52-4.45-1.15-6.93-1.15-4.12 0-7.22 1.65-8.36 2.47.1.32.22.64.35.96 1.4-.91 4.82-2.74 8.29-2.74 1.72 0 3.88.65 6.4 1.23 3.54.8 7.8 1.78 12.55 1.77 4.53-.01 10.35-.66 14-3.62Z" fill="#23AAE2"/><path d="M8.91 33.84c-.18-.27-.36-.54-.52-.82A13.08 13.08 0 0 1 16.36 30c1.94 0 3.82.28 6.12.78 3.3.7 7.46 1.51 13.84 1.64 5.44.11 9.67-1.13 12.5-2.56-.08.38-.17.75-.3 1.1C47.25 31.69 43.1 33 36.7 33c-6.87 0-11.2-.85-14.57-1.58a26.66 26.66 0 0 0-5.77-.73c-3.08 0-5.9 1.74-7.45 3.15Z" fill="#23AAE2"/><path d="m40 34.61 1.45-.23v.19l-.25.04c-.08 0-.13.03-.16.06s-.04.07-.04.12v1.31l1.03-1.28c.06-.07.09-.14.09-.2 0-.04-.02-.07-.05-.09a.32.32 0 0 0-.2-.02l-.08.01v-.18l1.21-.2v.2h-.08a.61.61 0 0 0-.28.14c-.14.1-.28.24-.42.42l-.38.5.73 1.38a.3.3 0 0 0 .31.14l.12-.02v.19l-1.3.22v-.18l.15-.02a.4.4 0 0 0 .18-.06c.03-.03.05-.06.05-.09l-.01-.04-.65-1-.42.5v.65c0 .06.01.1.04.12.03.02.07.02.12.02l.27-.05v.2l-1.43.21v-.18l.17-.03c.06-.01.1-.03.14-.07a.17.17 0 0 0 .05-.12v-2.3c0-.04-.02-.07-.05-.1-.03-.01-.07-.02-.14 0l-.17.03v-.19ZM36.56 35.1l1.64-.31c.27-.06.49-.06.65-.02.17.03.3.1.38.21.08.1.12.23.12.38 0 .23-.1.44-.3.63-.16.14-.4.26-.73.35.16 0 .29.02.37.06.1.04.17.12.24.22.09.14.16.31.22.52.04.13.07.21.1.25.02.03.05.04.09.03.09-.02.15-.15.16-.4l.2-.04a1.1 1.1 0 0 1-.19.6.7.7 0 0 1-.43.26.52.52 0 0 1-.33-.02.4.4 0 0 1-.19-.2c-.02-.07-.06-.2-.1-.43-.05-.25-.1-.42-.14-.5a.36.36 0 0 0-.17-.18.4.4 0 0 0-.24-.02l-.23.04v1.18c0 .05.01.09.04.11.04.03.1.04.15.03l.28-.06v.2l-1.59.3v-.2l.25-.04a.24.24 0 0 0 .14-.08c.03-.04.05-.09.05-.15V35.4c0-.07-.01-.11-.04-.14-.03-.02-.08-.03-.13-.02l-.27.05v-.2Zm1.11 1.24.27-.05a.98.98 0 0 0 .56-.3c.1-.1.15-.28.15-.5 0-.2-.05-.34-.15-.42-.1-.07-.27-.09-.52-.04-.14.03-.22.06-.25.1-.04.03-.05.1-.05.2v1ZM34.93 35.15l1.08 2.97c.03.09.06.14.1.17.04.03.1.04.16.03h.11v.2l-1.47.15v-.22l.14-.01c.1-.01.18-.03.23-.06.04-.03.06-.07.06-.11 0-.04 0-.08-.02-.12l-.22-.61-1.17.1-.12.3a.93.93 0 0 0-.08.28c0 .1.02.18.09.24.07.06.16.08.27.07l.1-.01v.22l-1.19.1v-.2l.07-.01c.08-.01.15-.04.2-.1a.88.88 0 0 0 .2-.3l1.23-3.06.23-.02Zm-.37.9-.54 1.36 1-.1-.46-1.26ZM30 35h1.92c.62 0 1.08.48 1.08 1.1 0 .68-.55 1.15-1.2 1.15h-.61v1.27c0 .07.01.13.05.17.03.04.08.06.13.06h.38V39H30v-.25h.3c.06 0 .1-.02.14-.06.03-.04.05-.1.05-.17v-3.05a.24.24 0 0 0-.05-.16.16.16 0 0 0-.13-.06H30V35Zm1.19 2h.4c.5 0 .69-.48.69-.92 0-.52-.22-.83-.76-.83-.14 0-.23.01-.27.04-.04.03-.06.08-.06.16V37ZM26 34l1.57.44c.26.08.47.18.63.32.16.14.28.3.36.48.08.18.12.37.12.57 0 .31-.1.54-.3.68-.15.1-.38.13-.7.09a1.1 1.1 0 0 1 .6.7c.08.23.15.5.2.8.04.2.07.32.1.38.02.05.05.08.08.1.09.02.14-.14.16-.47l.18.05c-.01.36-.07.6-.17.73-.1.12-.24.16-.42.1a.6.6 0 0 1-.31-.2 1 1 0 0 1-.18-.37c-.02-.09-.06-.3-.1-.61-.05-.37-.1-.63-.14-.76a.9.9 0 0 0-.15-.32c-.07-.08-.21-.13-.3-.15l-.23-.07v1.57c0 .07.01.13.04.17.04.06.1.1.15.12l.34.07v.27L26 38.26V38l.17.07c.06.02.1 0 .14-.03.03-.03.04-.1.04-.17v-3.22a.4.4 0 0 0-.04-.2.2.2 0 0 0-.12-.1l-.19-.07V34Zm1 2.23.25.08c.23.06.48.03.6-.1.1-.1.15-.3.15-.59 0-.27-.04-.48-.14-.63a.82.82 0 0 0-.5-.34c-.13-.03-.28-.03-.31 0-.03.03-.05.1-.05.24v1.34ZM23 33.46l2.8.6.07 1.42-.2-.04a3.1 3.1 0 0 0-.16-.75c-.07-.17-.16-.3-.27-.4a.93.93 0 0 0-.43-.2l-.44-.08c-.07-.02-.12-.01-.15.02-.03.02-.04.07-.04.13v1.4l.15.03c.17.04.3 0 .4-.1.1-.1.15-.3.17-.56l.2.04v1.88l-.2-.04a1.41 1.41 0 0 0-.16-.7.65.65 0 0 0-.44-.28l-.12-.03v1.5c0 .07.01.12.04.15.05.05.12.08.2.1l.4.08c.26.06.47 0 .64-.18.17-.18.28-.48.32-.9l.2.04-.06 1.53-2.92-.61v-.26l.29.06c.06.02.11 0 .15-.03.03-.03.05-.09.05-.16v-3.1a.22.22 0 0 0-.05-.16c-.04-.04-.1-.07-.19-.09l-.25-.05v-.26Z" fill="#FDFEFF"/><path d="m20.07 33 2.86.35.07 1.42-.2-.02c-.05-.31-.1-.55-.18-.73-.08-.18-.17-.31-.26-.4a.58.58 0 0 0-.32-.14c-.06 0-.11 0-.14.03-.04.03-.05.07-.05.13v2.87c0 .06.01.1.04.14.03.04.07.07.11.07l.37.05V37l-1.74-.21v-.24l.35.05c.05 0 .1 0 .13-.04a.18.18 0 0 0 .04-.13v-2.86c0-.07-.01-.12-.05-.16-.03-.03-.08-.05-.14-.06-.38-.05-.63.31-.77 1.08L20 34.4l.07-1.4ZM18.64 33l1.12 3.39c.07.18.05.22.24.22v.22l-1.17-.16v-.22h.12c.1 0 .17-.01.2-.04a.12.12 0 0 0 .06-.1c0-.04 0-.08-.02-.12l-.33-.78H17.8l-.1.29a.93.93 0 0 0-.06.27c0 .1.03.18.09.25.06.06.14.09.25.09h.09v.21H17v-.21h.06c.07 0 .13-.03.18-.08a.75.75 0 0 0 .17-.29L18.43 33h.21Zm-.3.87-.46 1.31h.9l-.45-1.31ZM13 33h1.11v.19h-.1c-.07 0-.12 0-.14.02-.02.02-.03.04-.03.07l.01.09.55 1.74.48-1.52-.09-.26c-.01-.05-.04-.09-.07-.1a.3.3 0 0 0-.16-.04h-.13V33h1.27v.19h-.11c-.09 0-.15 0-.18.03a.1.1 0 0 0-.04.1v.05l.55 1.74.46-1.54.02-.13c0-.08-.02-.15-.06-.19a.2.2 0 0 0-.16-.06h-.08V33h.9v.19c-.1 0-.18.02-.24.07a.4.4 0 0 0-.13.21L15.87 36h-.23l-.65-2.07-.65 2.07h-.23l-.84-2.67a.22.22 0 0 0-.07-.11.17.17 0 0 0-.11-.03H13V33Z" fill="#FDFEFF"/><path d="M17.36 24.61c0-.05-.02-.06-.05-.01-.14.18-.37.43-.69.75-.62.64-1.57.92-2.48 1.19a.12.12 0 0 1-.12-.03l-1.76-1.42a.04.04 0 0 1 0-.05h.01l.59-.3a.13.13 0 0 0 .07-.12l-.03-.79a.03.03 0 0 0-.02-.03c-.34-.1-.87-.4-.88-.8-.02-.57.56-.6.95-.59l.04-.01a.06.06 0 0 0 .02-.04l.1-.95a.15.15 0 0 0-.04-.11l-.68-.75a.07.07 0 0 1-.01-.09l.44-1.08c0-.02.02-.03.04-.02l.79.26c.02.01.04 0 .05-.03l.03-.1.05-.02c1.26.37 2.58.96 3.5 1.93.2.22.34.45.42.71.03.08.05.08.07 0 .14-.63.3-1.3.49-2.04.05-.19.44-.5.68-.72.13-.12.1-.18-.08-.18h-.51a.04.04 0 0 1-.05-.04l-.12-.77a.6.6 0 0 1 .03-.3 3.5 3.5 0 0 1 1.24-1.64c.37-.27 1 0 1.39.14.02.01.04 0 .06-.01.46-.52 1.08-.55 1.74-.55.38 0 .53.14.77.44.13.16.26.31.4.45.12.13.2.24.23.33a5.32 5.32 0 0 1 .12.57c-.26.56-.67.49-1.24.4-.23-.03-.44-.06-.61-.1-.03 0-.04.01-.04.04-.01.34-.33.84-.7.87-.04 0-.05.02-.04.05.07.28.11.58.13.9a22.27 22.27 0 0 1 .04 1.74c.2.06.31.15.35.27.15.4.02.95-.08 1.42a.54.54 0 0 1-.11.24c-.14.16-.32.28-.35.54l-.12.84c0 .04-.03.07-.06.09-.21.16-.4.3-.59.42-.1.06-.1.12-.08.23l.01.3c0 .02 0 .03-.03.04-.18.07-.29.1-.33.13a1.63 1.63 0 0 1-.72.12v-.02c-.01-.44 0-.9.03-1.4 0-.07 0-.16-.03-.27 0-.02-.02-.03-.04-.02l-.83.15a.08.08 0 0 0-.07.06c-.09.4-.18.75-.28 1.05-.07.24-.25.43-.4.66-.14.22-.57.13-.85.06-.02 0-.03-.02-.03-.04a4.45 4.45 0 0 1 .24-1.81l.03-.14Z" fill="#FEFEFE"/><path d="M28.5 21.95c.22-1.16.84-2.33 1.93-2.89a5.85 5.85 0 0 1 2.07-.69l.03.04c.07.34.17.65.28.92.09.23.24.34.45.43a.06.06 0 0 1 .03.06l-.41 2.92c0 .03-.02.04-.05.04l-.75-.15c-.02 0-.03-.02-.04-.04l-.06-.87c0-.06-.02-.07-.07-.05-.5.29-1.13.78-1.37 1.32-.05.1 0 .22.07.28.3.26.62.48.98.66.35.19.77.44.9.85.14.45.2.9.18 1.37 0 .4-.46.8-.75 1.02-.52.38-1.09.64-1.7.8-.85.2-1.41-.56-1.76-1.23l-.05-.07a.12.12 0 0 1-.01-.13c.11-.23.22-.46.31-.69a.05.05 0 0 1 .08-.01l.28.2c.16.12.29.04.48-.05.2-.1.4-.25.57-.38-.72-.39-1.41-.97-1.65-1.8v-.04c-.03 0-.04 0-.05.02-.03.34-.04.7-.04 1.05 0 .34-.47 1.03-.73 1.26a6.12 6.12 0 0 0-1.34 1.63c-.01.02-.03.03-.05.01l-.65-.38a.06.06 0 0 1-.03-.06 29.33 29.33 0 0 0 .35-3.11c0-.03 0-.04-.03-.01-.3.32-.6.97-1.14 1.05-.43.07-.69-.09-.96-.4-.05-.05-.07-.04-.07.04l.07 2.12-.01.02-1.17.48c-.1-.92-.2-1.82-.27-2.68-.05-.72-.07-1.47-.1-2.33-.02-.94.04-1.91.08-2.84a.1.1 0 0 1 .06-.09l.57-.28a.1.1 0 0 0 .05-.06l.08-.24c0-.02.02-.04.05-.05l1.36-.42c.01 0 .03 0 .04.02a20.31 20.31 0 0 0 .62 3.43l.01.01a.03.03 0 0 0 .05 0c.3-.5.48-1 .74-1.77a2.82 2.82 0 0 1 .43-.78 3.52 3.52 0 0 1 1.7.5c.28.16.32.63.32 1 0 .58.01.93.02 1.04 0 .18.03.18.06 0Z" fill="#FEFEFE"/><path d="M21.2 16.88c-.03-.05-.02-.09.02-.12.2-.16.4-.26.64-.3.22-.03.59-.07.87-.04.14.01.22.07.31.18.16.2.33.41.53.61.13.14.16.26.2.42a.15.15 0 0 1-.07.15.43.43 0 0 1-.28.06 7.73 7.73 0 0 1-1.6-.36c-.39-.13-.48-.25-.63-.6ZM20.02 18.07a34.59 34.59 0 0 1-.79.57c-.18.14-.37.1-.59.1-.03 0-.04 0-.05-.04-.02-.22-.08-.41.01-.63.22-.5.55-.92 1-1.27a.45.45 0 0 1 .41-.06c.28.07.62.15.9.35.37.25.68.54.92.85.15.2.01.4-.13.56-.1.11-.17.1-.29.02-.3-.2-.99-.52-1.39-.45ZM17.63 22.98l.26-.05c.02 0 .04-.02.05-.04l.12-.42c.1-.47.25-1.11.46-1.92.03-.13.03-.3.15-.4.15-.16.39-.38.72-.67a.05.05 0 0 0 .02-.05l-.05-.3c0-.03 0-.04.02-.06.35-.2.72-.3 1.1-.3.11 0 .15.07.21.15a.11.11 0 0 0 .11.04l.19-.03a.07.07 0 0 1 .08.04c.17.33.2.58.23 1.1.02.5.03 1.17.02 2.01 0 .03.03.05.05.05h.29c.05-.01.1.03.1.1 0 .24-.03.49-.08.74-.06.26-.04.33-.2.5a.95.95 0 0 0-.33.58c0 .1-.03.32-.08.68a.1.1 0 0 1-.04.07l-.7.54a.1.1 0 0 0-.05.08l.01.26c0 .06-.02.1-.07.12l-.2.1a.05.05 0 0 1-.07-.04c0-.14 0-.38.02-.73.02-.27 0-.6-.06-.96 0-.03-.02-.04-.04-.03l-1.46.27a.04.04 0 0 0-.03.03l-.3 1.18c-.06.2-.15.33-.26.38a.07.07 0 0 0-.04.06l-.02.12c0 .05-.04.08-.09.08h-.17c-.05 0-.07-.02-.06-.06.04-.58.2-1.1.29-1.62a.73.73 0 0 0-.08-.52l-.2-.36c0-.03-.02-.03-.04 0-.06.09-.12.26-.19.36-.3.44-.65.82-1.03 1.15-.2.17-.38.29-.56.37a11.08 11.08 0 0 1-1.48.51.1.1 0 0 1-.05-.02l-1.1-.89a.05.05 0 0 1-.02-.05.05.05 0 0 1 .03-.04l.26-.13s.02 0 .02-.02l.01-.03a7.99 7.99 0 0 1-.02-1.43.07.07 0 0 0-.05-.03 1.2 1.2 0 0 1-.84-.4.13.13 0 0 1-.03-.1c0-.06.05-.1.13-.1a5.16 5.16 0 0 1 .82-.04l.01-.02.17-1.54a.12.12 0 0 0-.03-.1l-.6-.67a.1.1 0 0 1-.03-.1l.15-.48a.06.06 0 0 1 .07-.04l.82.27h.02c.02 0 .03-.01.04-.03v-.07c0-.04.05-.07.09-.06 1.03.34 2.1.84 2.9 1.62.17.17.3.33.36.47.12.25.2.57.27.94l.08-.02ZM32.2 21.18a.4.4 0 0 0-.23.02c-.73.36-1.28.82-1.65 1.4-.26.4-.2.77.17 1.08.29.24.5.4.65.47.43.22.95.44 1.05.92.05.21.09.45.12.7.02.24.03.31-.08.5-.14.25-.38.48-.71.69-.46.28-.9.48-1.3.57-.22.05-.39.06-.5.02-.35-.1-.71-.57-.87-.87-.1-.2-.05-.27.16-.2.18.05.26.08.5-.03a4.4 4.4 0 0 0 1.3-.9.07.07 0 0 0-.04-.1 37.6 37.6 0 0 0-.67-.33 4 4 0 0 1-.65-.47 1.99 1.99 0 0 1-.63-.95 2.8 2.8 0 0 1-.06-1.1c.07-.7.25-1.41.6-2.02a5.94 5.94 0 0 1 .89-.95 7.46 7.46 0 0 1 1.99-.81.07.07 0 0 1 .03.04c.04.17.1.36.19.6.08.24.22.42.4.55.03 0 .03.03.03.05l-.31 2.19c0 .04-.03.06-.07.05h-.05a.08.08 0 0 1-.06-.07l-.14-1c0-.03-.02-.05-.06-.05ZM26.33 22.49c0-.05 0-.05-.03 0-.12.23-.24.47-.35.74-.23.54-.56 1.1-.99 1.47-.24.2-.56.17-.8-.03-.07-.07-.17-.21-.3-.43-.13-.23-.27-.47-.4-.73-.01-.03-.02-.03-.03.01 0 .23-.03.6-.05 1.13-.02.64.02 1.23.05 2 0 .05-.02.08-.06.1l-.39.16c-.04.02-.06 0-.06-.04a45.94 45.94 0 0 1-.3-4.13c-.03-1.01 0-1.82.06-2.81 0-.04.02-.08.06-.1l.54-.3c.02 0 .03-.01.03-.02l.06-.2c0-.02.02-.03.04-.04l.76-.23c.02-.01.05 0 .06.04.09.78.22 1.55.39 2.3.09.4.2.87.44 1.15a.14.14 0 0 0 .1.04.13.13 0 0 0 .1-.03c.1-.1.18-.2.25-.33.38-.7.6-1.33.9-2.17a.45.45 0 0 1 .14-.21.1.1 0 0 1 .06-.02 4 4 0 0 1 1.07.32c.38.14.35.36.36.77.03.93.06 1.85.02 2.79l-.04 1.04c0 .04-.02.08-.05.11a2.9 2.9 0 0 0-.5.83.88.88 0 0 1-.22.26c-.39.36-.73.78-1.03 1.26l-.06.03a.32.32 0 0 1-.16-.1.07.07 0 0 1-.02-.07c.25-1.53.37-3.05.35-4.56Z" fill="#F0202B"/><path d="M35.69 22.27a.05.05 0 0 0 0 .04.05.05 0 0 0 .04.02c.23 0 .73.03.95.2a118.06 118.06 0 0 0 .84.66v.04l-.24 1.28c0 .02-.02.03-.04.03-.2 0-.42 0-.63.06-.58.16-1.25.49-1.63.98a.2.2 0 0 0-.04.16.12.12 0 0 0 .1.1.9.9 0 0 0 .45-.08 3.8 3.8 0 0 0 1.26-.83.05.05 0 0 1 .05.03l.36.74a.06.06 0 0 1 0 .06c-.32.43-.56.8-.73 1.33-.11.35-.98.72-1.3.83-.55.18-1.03.05-1.45-.4a.17.17 0 0 0-.13-.05l-.36.01a.06.06 0 0 1-.06-.04 8.9 8.9 0 0 1-.08-2.69c.14-1.64.45-3.23.92-4.75.06-.2.11-.3.16-.35.08-.07.2-.14.33-.21.27-.13.56-.23.9-.32.3-.08.6-.12.93-.12.6 0 1.13.06 1.6.16.03 0 .04.02.04.05l.07.97v.07l-.41 1.24a.06.06 0 0 1-.06.04 4.35 4.35 0 0 0-1.74.23v.02l-.1.5Z" fill="#FEFEFE"/><path d="m33.63 26.94-.02.08c0 .02-.01.03-.03.05a.14.14 0 0 1-.13.01.05.05 0 0 1-.03-.05 7.96 7.96 0 0 1-.07-1.36c.08-1.92.4-3.8.98-5.64.03-.09.07-.12.14-.15.37-.2 1-.47 1.49-.49.55-.02 1.08.02 1.6.12.03 0 .05.02.05.04 0 .24.07.5 0 .73a50.65 50.65 0 0 0-.3.84.1.1 0 0 1-.06.02c-.57-.03-1.1.05-1.6.25-.1.03-.14.09-.16.17l-.28 1.2c.36-.07.74-.04 1.12.04.05.01.1.03.14.06a12.1 12.1 0 0 1 .66.51.1.1 0 0 1 0 .05l-.13.7-.01.01-.02.01c-.78.07-1.58.47-2.1 1-.25.25-.32.46-.24.8.04.2.18.3.43.3.57.03 1.15-.36 1.58-.7.02-.02.04-.01.05 0 .05.08.05.15 0 .23-.26.35-.45.73-.58 1.15 0 .03-.02.06-.05.07-.33.24-.67.42-1.02.53-.63.22-1.02-.1-1.38-.59-.02-.02-.02-.02-.03 0Z" fill="#F0202B"/><path d="m41.92 23.2.12-.49.53-2.37a.77.77 0 0 1 .09-.23l.63-1.1a.02.02 0 0 1 .03 0l.65.4c.03 0 .03.03.03.05-.3 1.49-.38 3.01-.67 4.5-.15.75-.28 1.57-.49 2.35a3.9 3.9 0 0 1-.71 1.51c-.13.16-.37.14-.55.05-.35-.17-.65-.28-.78-.66l-.7-1.96c-.03-.11-.06-.1-.08 0l-.43 2.08c-.08.38-.24.44-.54.66-.02.02-.04.01-.06 0l-.94-1.33a.28.28 0 0 1-.05-.16c0-.24 0-.51.03-.8a48.97 48.97 0 0 1 .98-5.94c.07-.3.4-.44.63-.6a.09.09 0 0 1 .08-.02l1.6.7c.01 0 .02 0 .03.02v.04l-.15.65c0 .03 0 .05.02.07l.26.29c.14.15.15.45.17.66l.14 1.62c.02.23.06.23.13.02Z" fill="#FEFEFE"/><path d="M41.69 24.65c0 .05.03.06.05 0 .32-.68.55-1.39.71-2.12l.45-2.04a.68.68 0 0 1 .07-.2l.41-.7c.02-.03.04-.04.06-.03.05 0 .09.03.12.06.02.02.03.07.02.13l-.18 1.23c-.16 1.31-.24 2.03-.45 3.08l-.3 1.5a4.56 4.56 0 0 1-.78 1.95.1.1 0 0 1-.06 0c-.21-.08-.4-.17-.56-.29-.07-.04-.13-.14-.18-.29-.3-.88-.65-1.87-1.06-2.97-.02-.08-.05-.08-.06 0-.18.76-.4 1.83-.69 3.23a.5.5 0 0 1-.11.24.05.05 0 0 1-.04.02h-.03l-.01-.02-.69-.96a.25.25 0 0 1-.04-.16c.02-.47.07-1 .15-1.6.19-1.37.32-2.27.4-2.71.06-.38.2-1.02.4-1.92.06-.25.21-.34.4-.47a.07.07 0 0 1 .06 0l1.15.49.03.03v.04l-.12.52c0 .02 0 .04.02.06l.36.41a.4.4 0 0 1 .1.23c.06.7.1 1.4.2 2.1l.2 1.16Z" fill="#F0202B"/><path d="m19.62 20.77.23 1.68c0 .03-.01.04-.04.05l-.9.17-.02-.02c.16-.7.37-1.33.62-1.9.03-.05.1-.03.1.02ZM15.32 23.39a.06.06 0 0 0 .03-.08l-.19-.45a.07.07 0 0 0-.06-.04l-.32-.02a.04.04 0 0 1-.02-.01l-.01-.02v-.01l.06-1.28c0-.03.01-.04.04-.03l1.13.28c.02 0 .04.02.04.05.16.54-.02 1.01-.33 1.46-.29.42-.65.78-1.09 1.07-.1.07-.2.1-.3.14l.3-.94c.01-.04.04-.05.08-.05.19 0 .48.02.64-.07Z" fill="#FEFEFE"/></svg>