<!-- by TradingView --><svg width="56" height="56" viewBox="0 0 56 56" xmlns="http://www.w3.org/2000/svg"><path fill="#F0F3FA" d="M0 0h56v56H0z"/><path d="M29 28.01c-1.34-.46-2.73-2.2-3.26-3.01-1.25 2.04-6.53 3.25-9.76 3.25-2.59 0-5.07-.35-5.98-.53 2.13 1.1 6.07 2.28 10.95 2.28 3.9 0 7-1.33 8.05-1.99Z" fill="#F8CD17"/><path d="M36 30.62A13.3 13.3 0 0 1 30.17 29c-.96 1-4.07 3-9.17 3s-9.49-1.77-11-2.67A22.12 22.12 0 0 0 23.83 34c5.89 0 10.57-2.26 12.17-3.38Z" fill="#BE2026"/><path d="M39 30.68c3.79.2 6.91-1.04 8-1.68-1.14 2.88-5.3 10-18.56 10-10.62 0-16.72-5.25-18.44-7.88 2.07 1.5 7.97 4.5 14.96 4.5 7 0 12.27-3.3 14.04-4.94Z" fill="#BB772A"/><path fill-rule="evenodd" d="M30.57 20.76c.3.45.7.96 1.17 1.49a11.1 11.1 0 0 1 5.89-2.7c-2.62-.6-5.3.17-7.06 1.2Zm7.43-.94c-.83.12-2.26.42-3.47.98-.87.41-1.76.96-2.57 1.69.86.9 1.96 1.85 3.26 2.6A10.41 10.41 0 0 1 38 19.82Zm-2.83 5.62c-.06.43-.1.87-.1 1.33h.3c.01-.4.04-.8.09-1.17 1.6.86 3.46 1.44 5.53 1.4 0 .32-.02.63-.05.95l.3.04c.04-.34.06-.67.06-1 .97-.04 1.99-.21 3.04-.56l-.1-.32c-1.01.34-2 .51-2.94.55a11.43 11.43 0 0 0-2.3-6.69 10.1 10.1 0 0 1 4.85 3.49A9.72 9.72 0 0 1 45.69 28l.31-.06c-.25-1.55-.75-3.2-1.91-4.7A10.87 10.87 0 0 0 35.46 19c-2.01 0-3.8.72-5.19 1.56-1 .6-1.78 1.28-2.27 1.83l.22.23c.45-.5 1.17-1.13 2.08-1.7.31.48.72 1 1.2 1.55-.46.44-.9.94-1.28 1.5l.25.2c.38-.55.8-1.04 1.25-1.47.9.97 2.07 1.95 3.45 2.74Zm3.28-5.61c-.82.76-2.51 2.69-2.94 5.43a11 11 0 0 0 5.48 1.41c-.1-3.2-1.52-5.79-2.54-6.84Z" fill="#A1CDEB"/><path fill-rule="evenodd" d="M42.52 36.65c3.7-2.28 5.85-5.36 5.85-8.65s-2.15-6.37-5.85-8.65c-3.69-2.29-8.82-3.72-14.52-3.72-5.7 0-10.83 1.43-14.52 3.72-3.7 2.28-5.85 5.36-5.85 8.65s2.15 6.37 5.85 8.65c3.69 2.29 8.82 3.72 14.52 3.72 5.7 0 10.83-1.43 14.52-3.72ZM28 41c11.6 0 21-5.82 21-13s-9.4-13-21-13S7 20.82 7 28s9.4 13 21 13Z" fill="#AC9171"/><path d="M21.73 19.78c-.02.06.02.13.08.12l.44-.07c.01 0 .02 0 .02.02l.01.04c.01.04 0 .06-.04.08l-1.2.4c-.03.01-.04 0-.04-.02v-.04c0-.05.02-.07.04-.09.17-.1.3-.25.37-.44.42-1.13.77-2 1.03-2.62.07-.18.17-.2.3-.1l2.02 1.73c.05.04.21.09.49.14.04 0 .05.03.02.07-.04.08-.1.13-.17.14a5.7 5.7 0 0 0-1.54.46.86.86 0 0 1-.25.04c-.02 0-.03-.01-.04-.03v-.05c0-.01.01-.03.03-.03l.25-.09c.13-.04.17-.25.06-.35l-.24-.23a.14.14 0 0 0-.08-.04c-.03 0-.05 0-.08.02-.4.22-.8.35-1.22.38-.04 0-.07.03-.09.07l-.17.5Zm.38-.73.88-.3c.07-.02.1-.13.04-.18l-.49-.47c-.1-.1-.17-.07-.22.07l-.28.78c-.02.06.02.12.07.1ZM16.44 19.25c-.2.08-.4.18-.57.32-.11.09-.33.2-.33.38 0 .1-.02.2-.03.27-.03.09-.16.12-.22.05-.1-.1-.2-.26-.28-.46-.02-.04 0-.06.03-.09l.53-.29 3.27-1.41c.08-.04.14-.02.18.05l.25.45c.03.03.02.06-.03.09-.26.12-.4-.2-.65-.16-.36.07-.66.13-.88.2-.08.02-.12.1-.08.17l.82 1.45c.04.06.1.1.16.13a.3.3 0 0 0 .21-.02l.32-.14h.02c.08 0 .03.13-.01.15l-2.21.98c-.06.02-.1-.04-.1-.08 0-.01 0-.02.02-.03l.38-.2c.12-.05.17-.19.1-.3l-.86-1.5c0-.02-.02-.02-.04-.02ZM11.47 23.7a1.1 1.1 0 0 0-.39.29c-.05.05-.07-.05-.08-.07v-.03c0-.01 0-.02.02-.03.32-.35.65-.7.97-1.07.59-.7 1.39-1.56 2.3-1.76a.75.75 0 0 1 .47.02c1.25.53-.06 2.38-.6 2.93a21.92 21.92 0 0 0-1.39 1.5l-.08.02c-.02 0-.04-.01-.04-.03v-.02c.14-.16.22-.28.26-.37.03-.08 0-.18-.13-.3l-1.16-1.05a.13.13 0 0 0-.15-.02Zm.92-.83L13.6 24a.17.17 0 0 0 .24 0l.38-.4c.47-.5.38-1.08-.1-1.51-.4-.37-1.03-.19-1.37.17l-.38.4a.16.16 0 0 0 0 .22Z" fill="#BE1B25"/></svg>