<!-- by TradingView --><svg width="56" height="56" viewBox="0 0 56 56" xmlns="http://www.w3.org/2000/svg"><path fill="#0072BD" d="M0 0h56v56H0z"/><path d="M43.77 29.78h-3.62l-3.49.35-3.56.35-2.72.27-.74-2.12-2.44-6.97-.84-2.4a27.57 27.57 0 0 1 3.28-1.46c1.14-.42 2.3-.78 3.46-1.08l.11-.03a43.88 43.88 0 0 1 10.56-1.37v14.46Z" fill="#fff"/><path fill-rule="evenodd" d="M40.2 15.17c1.5-.14 2.68-.18 3.58-.17H44v15.02h-3.76l-9.88.98-4.28-11.86.17-.1a36.32 36.32 0 0 1 6.92-2.55l.12-.03c1.18-.3 2.33-.63 3.44-.82 1.25-.21 2.41-.37 3.48-.47Zm.26 14.38h3.08v-11.3c-.62-.08-1.6-.1-3.08.07v11.23Zm0-11.7c1.05-.11 1.82-.14 2.46-.12l-2.46-1.88v2Zm.42-2.27 2.66 2.02v-2.13c-.72 0-1.57.03-2.66.11Zm-.88.08v2.04L37.42 16c.92-.14 1.77-.25 2.58-.34Zm-3.46.49c-.84.15-1.7.42-2.58.63l2.58 1.53v-2.16Zm-.4 2.47-2.68-1.6v2.3c.96-.28 1.84-.51 2.68-.7Zm-3.14.63v-2.23c-.88.24-1.77.51-2.65.82l2.65 1.4Zm-3.46-1.12c-.94.37-2 .78-2.9 1.24l.7 1.98c.71-.27 1.53-.53 2.2-.77v-2.45Zm.46 2.79c1.06-.37 2.06-.7 3-.98v10.33l-2.2.23-.8-1.91v-7.67Zm-.46.16c-.62.22-1.39.46-2.05.71l2.05 5.5v-6.21Zm3.92 9.14V19.81c1.12-.33 2.13-.6 3.08-.8v10.9l-3.08.31Zm3.54-.35 3-.3v-11.2c-.88.12-1.86.29-3 .53v10.97Zm0-11.45c.95-.2 1.78-.35 2.55-.45L37 16.29v2.13Zm-7 2v-2.24l2.62 1.39c-.83.25-1.7.53-2.62.85Z" fill="#0514A5"/><path d="M12 16.24 15 15v17.49L12 35V16.24ZM21 19.19 24 18v11h-3v-9.81ZM28 21.6l2-.6v9h-2v-8.4Z" fill="#FF001B"/><path d="m24 18 4 2.05V30h-4V18ZM15 15l6 2.1V29h-6V15ZM30 21l3 1.54V30h-3v-9Z" fill="#FF8526"/><path d="M43.77 34.85v1.93H22.58a22.2 22.2 0 0 1 6.24-3.59c2.06-.83 4.55-1.6 7.44-2.15 2.26-.43 4.77-.72 7.51-.78v4.59Z" fill="#fff"/><path fill-rule="evenodd" d="M44 30.04V37H22l.42-.38c1.06-.97 3.2-2.37 6.32-3.63a39.31 39.31 0 0 1 7.47-2.17c2.28-.43 4.8-.72 7.56-.78H44Zm-7.07 1.1c.25.1.56.23.94.35.75-.3 1.52-.57 2.32-.8-1.13.12-2.22.27-3.26.45Zm5.6-.5c-.65.36-1.4.84-2.14 1.42-.7-.1-1.3-.23-1.82-.37 1.26-.46 2.6-.84 3.96-1.05Zm-5.28 1.1c-.46-.16-.8-.33-1.04-.47-2.58.5-4.84 1.17-6.75 1.9.32.1.72.2 1.18.28.75.14 1.65.27 2.64.39 1.16-.74 2.5-1.47 3.97-2.1Zm-3.26 2.18c1.16-.7 2.48-1.39 3.9-1.96.56.17 1.24.33 2.03.47-.65.54-1.29 1.16-1.86 1.86-1.37-.1-2.78-.23-4.07-.37Zm-1.3.29a38.2 38.2 0 0 1-2.13-.33 9.86 9.86 0 0 1-1.74-.45 23.8 23.8 0 0 0-5.64 3.13h6.48c.69-.64 1.73-1.48 3.04-2.35Zm-2.36 2.35a25.5 25.5 0 0 1 3.06-2.27c1.35.16 2.86.3 4.34.41-.43.58-.81 1.2-1.11 1.86h-6.3Zm6.78 0h6.44v-1.5c-1.42-.06-3.31-.17-5.29-.31a9.76 9.76 0 0 0-1.15 1.8Zm1.5-2.23c1.85.13 3.6.23 4.94.29v-1.85a25.43 25.43 0 0 1-3.04-.24c-.65.52-1.3 1.12-1.9 1.8Zm2.4-2.18c.76.09 1.6.16 2.54.18V30.6c-.68.32-1.6.84-2.54 1.54Z" fill="#0514A5"/><path d="M12.26 37c1.38-1.04 4-2.42 8.02-3.73A85.54 85.54 0 0 1 40.47 29H44c-10.88 1.6-15.08 2.57-22.44 8h-9.3Zm-.26-.38V29h24.25a89.18 89.18 0 0 0-16.11 3.84c-4 1.3-6.69 2.7-8.14 3.78Z" fill="#FF001C"/><path d="M42.12 41v-2.5H41V38h3v.5h-1.12V41h-.76ZM41 41h-.88l-.34-.68h-1.6l-.33.68H37l1.55-3h.85l1.6 3Zm-1.48-1.19-.55-1.11-.54 1.11h1.09ZM34 38h1.32c.3 0 .53.02.68.06a1.25 1.25 0 0 1 .88.76c.08.2.12.43.12.7 0 .26-.04.47-.11.65-.09.22-.22.4-.38.53-.13.1-.3.18-.51.24-.16.04-.37.06-.64.06H34v-3Zm.72.5v2h.54c.2 0 .35-.02.44-.03a.71.71 0 0 0 .29-.13.61.61 0 0 0 .19-.29c.05-.13.07-.32.07-.55 0-.23-.02-.4-.07-.53a.67.67 0 0 0-.2-.3.74.74 0 0 0-.34-.13 3.9 3.9 0 0 0-.6-.03h-.32ZM28 41v-3h.76v1.18h1.48V38H31v3h-.76v-1.31h-1.48V41H28ZM24 41v-3h.74l1.51 2v-2H27v3h-.77l-1.48-1.96V41H24ZM23 41h-.66l-.26-.68h-1.2l-.24.68H20l1.16-3h.64l1.2 3Zm-1.11-1.19-.41-1.11-.4 1.11h.8ZM16 41v-3h.76v1.18h1.48V38H19v3h-.76v-1.31h-1.48V41H16ZM13.12 41v-2.5H12V38h3v.5h-1.12V41h-.76Z" fill="#FF8526"/></svg>