<!-- by TradingView --><svg width="56" height="56" viewBox="0 0 56 56" xmlns="http://www.w3.org/2000/svg"><path fill="#F0F3FA" d="M0 0h56v56H0z"/><path d="M22.84 19c1.87 0 3.76 1.58 4.46 2.38-.85 1.12-2.56 3.8-2.56 5.46 0 1.67.5 2.82.76 3.16-1.12-1.08-3.46-3.41-3.98-3.88A4.56 4.56 0 0 1 20 22.9c0-1.16.68-2.43 1-2.89-.59.37-2 1.64-2 3.46s.68 2.68 1.05 2.88a1088 1088 0 0 0 9.96 9.07c1.1.93 1.76 1.73 3.67 1.73a3.74 3.74 0 0 0 3.44-2.02c-.63.4-2.1 1.22-2.93 1.22-.82 0-1.76-.43-2.12-.64l-3.15-2.74.66-.5c-.12.86.48.98.8.93 2.7-.92 3.83-4 4.12-5.39 1.12.84 3.5 3.15 3.5 5.4 0 2.8-2.56 4.6-4.69 4.6a5 5 0 0 1-3.3-1.15c-3.24-2.98-9.84-9.01-10.25-9.36-.51-.43-1.76-1.36-1.76-3.16 0-3.17 2.5-5.33 4.84-5.33Z" fill="url(#a)"/><path d="M19.4 39.4a8.75 8.75 0 0 1 5.98-2.4c1.77 0 3.31.55 4.61 1 .85.31 1.6.58 2.25.63 1.32.12 1.98.14 2.15.14-.07.66-.74 1.96-2.86 1.96-.58 0-1.26-.25-1.92-.5-.64-.24-1.27-.48-1.8-.48-.86 0-.81.42-.81.7 0 .28.95 1.55 3.81 1.55 1.88 0 4.56-1.3 6.68-2.18 1.1-.47 1.95-.82 2.22-.82.79 0 1.29.05 1.29.33 0 .1-.34.4-.8.76A16.57 16.57 0 0 1 28.38 45C18.78 45 11 37.39 11 28s7.78-17 17.38-17C36.2 11 42.82 16.05 45 23h-1a15.43 15.43 0 0 0-14.57-10C20.9 13 14 19.72 14 28c0 4.57 2.1 8.65 5.41 11.4Z" fill="#4F622D"/><path d="M34 25.51c0-4.59-4.29-6.92-6.43-7.51.43.39 1.43 1.24 1.43 2 0 2.12-3 3.87-3 6.47 0 2.07 1.8 4.14 2.71 4.92 2.35-3.5 1.74-8.43 1.29-10.39.55.93 2 3.4 2 5.2 0 2.5-1.05 4.91-1.5 5.8a7.7 7.7 0 0 0 3.5-6.49Z" fill="url(#b)"/><defs><linearGradient id="a" x1="21.3" y1="19.86" x2="35.06" y2="37.45" gradientUnits="userSpaceOnUse"><stop stop-color="#FC532E"/><stop offset=".69" stop-color="#F6882D"/><stop offset="1" stop-color="#FE6728"/></linearGradient><linearGradient id="b" x1="26" y1="18.68" x2="32.77" y2="29.48" gradientUnits="userSpaceOnUse"><stop stop-color="#B1C75C"/><stop offset="1" stop-color="#4F6833"/></linearGradient></defs></svg>