<!-- by TradingView --><svg width="56" height="56" viewBox="0 0 56 56" xmlns="http://www.w3.org/2000/svg"><path fill="#F0F3FA" d="M0 0h56v56H0z"/><path d="M21 21.42A8.7 8.7 0 0 0 15 19H8v5h2v2h5v-2.8a5.51 5.51 0 0 1 3.4 2.8h5.29a9.7 9.7 0 0 0-1.35-3H26v3h5v-3h3.66a9.7 9.7 0 0 0-1.35 3h5.18c.75-1.78 2.26-3 4.01-3 .94 0 1.78.4 2.5 1l3-2.48A9.24 9.24 0 0 0 42 19c-2.3 0-4.4.91-6 2.42V19H21v2.42ZM38.17 27H33.1c-.05.33-.08.66-.1 1h5c.03-.34.08-.68.16-1Zm-.15 2h-5c0 .34.04.67.1 1h5.05a6.6 6.6 0 0 1-.15-1Zm.47 2h-5.18c1.04 4.03 4.54 7 8.69 7 2.2 0 4.44-.61 6-2l-3-3c-.7.55-1.6 1-2.5 1-1.75 0-3.26-1.22-4-3ZM31 30v-1h-5v1h5Zm-5 1h5v7h-5v-7Zm-2.11-1c.05-.33.08-.66.1-1h-5.01c-.03.34-.1.68-.19 1h5.1Zm-5.49 1h5.29c-1.04 4.03-4.54 7-8.69 7h-5v-7h5v2.8a5.51 5.51 0 0 0 3.4-2.8ZM15 30v-1h-5v1h5Zm-5-2h5v-1h-5v1Zm8.8-1c.08.32.15.66.18 1h5c0-.34-.04-.67-.1-1H18.8Zm7.2 0v1h5v-1h-5Z" fill="#005399"/></svg>