<!-- by TradingView --><svg width="56" height="56" viewBox="0 0 56 56" xmlns="http://www.w3.org/2000/svg"><path fill="#F0F3FA" d="M0 0h56v56H0z"/><path d="M38.01 19.06c-.85.51-1.77.96-2.76 1.36a11.86 11.86 0 0 0-4.5-4c2.74.5 5.21 1.42 7.26 2.64ZM38.58 19.41c-.9.6-1.9 1.12-2.97 1.57a13.54 13.54 0 0 1 1.9 6.5H44c-.2-3.16-2.24-6-5.41-8.07ZM44 28.24h-6.48c-.04 2.49-.73 4.8-1.89 6.74 1.08.46 2.08.99 2.99 1.58 3.24-2.12 5.28-5.06 5.38-8.32ZM38.06 36.91c-.86-.51-1.79-.97-2.78-1.37a11.87 11.87 0 0 1-4.53 4.04c2.76-.5 5.25-1.43 7.3-2.67ZM26.01 40H26c-1.3-.02-2.44-2.43-3.05-6a26.99 26.99 0 0 1 6.12 0c-.6 3.57-1.74 5.98-3.05 6ZM21.25 39.58a21.8 21.8 0 0 1-7.3-2.67c.85-.51 1.78-.97 2.77-1.37a11.87 11.87 0 0 0 4.53 4.04ZM13.38 36.56c.9-.6 1.91-1.12 2.99-1.58a13.57 13.57 0 0 1-1.9-6.74H8c.1 3.26 2.14 6.2 5.38 8.32ZM8.01 27.49h6.47c.1-2.4.78-4.63 1.91-6.51a18.9 18.9 0 0 1-2.97-1.57c-3.17 2.07-5.2 4.91-5.4 8.08ZM13.99 19.06c.85.51 1.77.96 2.76 1.36 1.16-1.72 2.7-3.1 4.5-4-2.74.5-5.21 1.42-7.26 2.64ZM17 34.73a12.8 12.8 0 0 1-1.88-6.49h6.75c.01 1.84.15 3.58.39 5.14-1.88.26-3.65.72-5.27 1.35ZM15.13 27.49h6.74c.03-1.76.16-3.42.4-4.92a23.94 23.94 0 0 1-5.25-1.34 12.78 12.78 0 0 0-1.89 6.26ZM22.83 33.3a37.02 37.02 0 0 1-.36-5.06h7.07a37.02 37.02 0 0 1-.37 5.07 26.96 26.96 0 0 0-6.34 0ZM22.47 27.49h7.06a36.68 36.68 0 0 0-.37-4.85 26.98 26.98 0 0 1-6.32 0c-.22 1.47-.35 3.11-.37 4.85ZM29.74 33.38c.24-1.57.38-3.3.39-5.14h6.75A12.8 12.8 0 0 1 35 34.73a23.93 23.93 0 0 0-5.27-1.35ZM30.13 27.49h6.74a12.78 12.78 0 0 0-1.89-6.26c-1.6.62-3.37 1.07-5.25 1.34.24 1.5.37 3.16.4 4.92Z" fill="#9FD1F2"/><path d="M17.36 35.3c1.55-.57 3.23-.99 5.01-1.23.47 2.66 1.24 4.74 2.18 5.82a10.71 10.71 0 0 1-7.19-4.6ZM29.63 34.07c1.78.24 3.46.66 5 1.22a10.71 10.71 0 0 1-7.18 4.6c.94-1.08 1.7-3.16 2.18-5.82ZM27.45 16.1a10.7 10.7 0 0 1 7.16 4.56c-1.54.56-3.22.98-4.99 1.22-.47-2.64-1.24-4.7-2.17-5.77Z" fill="#9FD1F2"/><path d="M26 16c1.3 0 2.44 2.4 3.05 5.95a27 27 0 0 1-6.1 0C23.55 18.39 24.7 16 26 16Z" fill="#9FD1F2"/><path d="M24.55 16.1c-.93 1.08-1.7 3.14-2.17 5.78a24.16 24.16 0 0 1-4.99-1.22 10.7 10.7 0 0 1 7.16-4.55Z" fill="#9FD1F2"/><path fill-rule="evenodd" d="M20 41.24 29.53 15C35.69 15.61 48 19.05 48 27.86 48 38.86 34.01 42 27 42c-2.5 0-5.71-.5-7-.76Zm3-1.68L30.79 17C35.37 17.5 44 20.83 44 27.87 44 36.94 33.07 40 27.85 40c-1.87 0-3.9-.24-4.85-.44Z" fill="#ED1B24"/><path d="M21.68 20h-5.24L16 22h4.97L16 36h2.32L24 20H21.68ZM28 36h6.56l.44-2h-4.97L35 20h-2.32L27 36h1Z" fill="#ED1B24"/></svg>