<!-- by TradingView --><svg width="56" height="56" viewBox="0 0 56 56" xmlns="http://www.w3.org/2000/svg"><path fill="#F0F3FA" d="M0 0h56v56H0z"/><path d="M30.67 36c-.83.42-2.13 2.42-2.67 3.36h1.4l.6-.9V43h2v-7h-1.33Z" fill="#ED1C24"/><path d="m28 9-3.73 4.82 1.93 11.24-2.64-9.1-4 3.63 4.42 6.46-4.6-4.13-3.96 3.43 4.9 2.76-3.26-1.39a2.8 2.8 0 0 0-3.31.87L11 31.14c2.36.94 7.3 2.8 8.5 2.86 4.26.36 6.92 2.17 7.5 3-.2-2.4-1.99-4-3.84-4-.54 0-1.12.1-1.66.24.92-3.7 3.3-5.24 6.5-5.24 3.27 0 5.7 1.46 6.56 5.35.18.17.8.5 1.88.5 1.08 0 6.16-1.76 8.56-2.7l-2.75-3.56a2.8 2.8 0 0 0-3.31-.87l-3.27 1.39 4.91-2.76-3.97-3.43-4.59 4.13 4.42-6.46-4-3.63-2.64 9.1 1.93-11.24L28 9Z" fill="url(#a)"/><path d="M27 41c-.27 1.12-1.3 2-2.45 2A2.54 2.54 0 0 1 22 40.5a2.52 2.52 0 0 1 5-.5h-1.1c-.19-.49-.74-1-1.37-1-.83 0-1.53.55-1.53 1.49S23.76 42 24.54 42c.7 0 1.13-.54 1.36-1H27ZM16 41c-.27 1.12-1.3 2-2.45 2A2.54 2.54 0 0 1 11 40.5a2.52 2.52 0 0 1 5-.5h-1.1c-.19-.49-.74-1-1.37-1-.83 0-1.53.55-1.53 1.49S12.76 42 13.54 42c.7 0 1.13-.54 1.36-1H16ZM18 40h1.03c.47 0 .97 0 .97-.5s-.56-.5-1.03-.5H18v1Zm-1-2h1.83c1.26 0 2.17.14 2.17 1.5 0 1.24-.74 1.5-2 1.5h-1v2h-1v-5ZM40 38h1l2 3v-3h1v5h-1l-2-3v3h-1v-5ZM35 38h1v2h2v-2h1v5h-1v-2h-2v2h-1v-5Z" fill="#005E9D"/><defs><linearGradient id="a" x1="28" y1="9" x2="28" y2="37" gradientUnits="userSpaceOnUse"><stop offset=".48" stop-color="#ED1C24"/><stop offset=".77" stop-color="#C6161D"/></linearGradient></defs></svg>