<!-- by TradingView --><svg width="56" height="56" viewBox="0 0 56 56" xmlns="http://www.w3.org/2000/svg"><path fill="#F0F3FA" d="M0 0h56v56H0z"/><path fill-rule="evenodd" d="M28 24a7 7 0 1 0 0-14 7 7 0 0 0 0 14Zm0-1a6 6 0 1 0 0-12 6 6 0 0 0 0 12Z" fill="#FE0000"/><path fill-rule="evenodd" d="M35 36a7 7 0 1 0 0-14 7 7 0 0 0 0 14Zm0-1a6 6 0 1 0 0-12 6 6 0 0 0 0 12Z" fill="#FE0000"/><path fill-rule="evenodd" d="M21 36a7 7 0 1 0 0-14 7 7 0 0 0 0 14Zm0-1a6 6 0 1 0 0-12 6 6 0 0 0 0 12Z" fill="#FE0000"/><path d="M33 39v-1h6v1h-2.32v6h-1.36v-6H33ZM25 39v-1h6v1h-2.32v6h-1.36v-6H25ZM20.47 45H18v-7h2.52C22.6 38 24 39.42 24 41.5c0 2.1-1.43 3.5-3.53 3.5Zm-.97-1h.9c1.5 0 2.1-1.05 2.1-2.5 0-1.43-.59-2.5-2.06-2.5h-.94v5Z" fill="#FE0000"/></svg>