<!-- by TradingView --><svg width="56" height="56" viewBox="0 0 56 56" xmlns="http://www.w3.org/2000/svg"><path fill="#F0F3FA" d="M0 0h56v56H0z"/><path d="M49.5 24v.5h-2.02V24h2.02ZM48 23h.5v3.97c0 .29.3.53.61.53.12 0 .22-.02.27-.03l.12.45a1.3 1.3 0 0 1-.47.08c-.62.01-1.03-.46-1.03-1.06V23ZM24.42 32v.5h-1.94V32h1.94ZM23 31h.5v3.97c0 .29.3.53.61.53.12 0 .2-.02.25-.03l.12.45c-.08.03-.23.08-.45.08-.62.01-1.03-.46-1.03-1.06V31ZM45 28v-4h.5v.69c.14-.43.76-.69 1.2-.69a2.97 2.97 0 0 1 .3.02v.53a1.7 1.7 0 0 0-.38-.05c-.5 0-1.12.6-1.12 1.1V28H45ZM39 36v-4h.5v.69c.14-.43.76-.69 1.2-.69a2.97 2.97 0 0 1 .3.02v.53a1.7 1.7 0 0 0-.38-.05c-.5 0-1.12.6-1.12 1.1V36H39ZM26 36v-4h.5v.69c.14-.43.76-.69 1.2-.69a2.97 2.97 0 0 1 .3.02v.53a1.7 1.7 0 0 0-.38-.05c-.5 0-1.12.6-1.12 1.1V36H26ZM34.52 30c-.64 0-1.19-.18-1.4-.8l.55-.3c.17.37.45.6.86.6.56 0 .97-.6.97-1.12v-1.1c-.17.42-.66.72-1.13.72-.78 0-1.37-.63-1.37-1.99 0-.84.3-2.01 1.38-2.01.48 0 .94.33 1.12.75V24h.5v4.4c0 .91-.54 1.6-1.48 1.6Zm0-2.5c.7 0 .98-.95.98-1.5 0-.86-.43-1.5-.99-1.5-.7 0-1.01.95-1.01 1.5s.3 1.5 1.01 1.5ZM29.5 25.49V28H29v-4h.5v.7c.17-.43.74-.7 1.28-.7.84 0 1.22.73 1.22 1.49V28h-.5v-2.58c0-.58-.49-.92-.96-.92-.48 0-1.04.35-1.04.99Z" fill="#0C71B6"/><path fill-rule="evenodd" d="M25 26c0 .92.44 2 1.5 2s1.5-1.08 1.5-2c0-.91-.43-2-1.5-2S25 25.09 25 26Zm.48 0c0 .7.3 1.53 1.02 1.53s1.02-.83 1.02-1.53c0-.7-.3-1.53-1.02-1.53s-1.02.83-1.02 1.53ZM41 26c0 .92.44 2 1.5 2s1.5-1.08 1.5-2c0-.91-.43-2-1.5-2S41 25.09 41 26Zm.48 0c0 .7.3 1.53 1.02 1.53s1.02-.83 1.02-1.53c0-.7-.3-1.53-1.02-1.53s-1.02.83-1.02 1.53ZM46 34c0 .92.44 2 1.5 2s1.5-1.08 1.5-2c0-.91-.43-2-1.5-2S46 33.09 46 34Zm.48 0c0 .7.3 1.53 1.02 1.53s1.02-.83 1.02-1.53c0-.7-.3-1.53-1.02-1.53s-1.02.83-1.02 1.53Z" fill="#0C71B6"/><path d="M21.5 25.63V28H21v-6h.5v2.8c.17-.5.73-.8 1.28-.8.92 0 1.22.92 1.22 1.7V28h-.5v-2.46c0-.66-.48-1.04-.95-1.04-.5 0-1.05.4-1.05 1.13ZM37 30v-6h.5v.76c.17-.42.64-.76 1.12-.76 1.1 0 1.38 1.16 1.38 2 0 .85-.28 2-1.37 2-.49 0-.96-.34-1.13-.76V30H37Zm.5-4c0 .91.43 1.5.98 1.5.73 0 1.02-.95 1.02-1.5s-.29-1.5-1.02-1.5c-.55 0-.98.6-.98 1.5ZM17 30v-6h.5v.76c.17-.42.64-.76 1.12-.76 1.1 0 1.38 1.16 1.38 2 0 .85-.28 2-1.37 2-.49 0-.96-.34-1.13-.76V30H17Zm.5-4c0 .91.43 1.5.98 1.5.73 0 1.02-.95 1.02-1.5s-.29-1.5-1.02-1.5c-.55 0-.98.6-.98 1.5ZM15.25 23c-.07 0-.13-.05-.18-.15a.8.8 0 0 1-.07-.35c0-.14.02-.25.07-.35.05-.1.11-.15.18-.15.07 0 .13.05.18.15.05.1.07.21.07.35 0 .14-.02.26-.07.35-.05.1-.11.15-.18.15ZM12.81 28c-.6 0-.81-.68-.81-1.18 0-.63.3-1.03.92-1.15.44-.08.58-.08.58-.35v-.02c0-.44-.12-.8-.43-.8-.3 0-.49.37-.56.65l-.44-.16c.11-.5.43-.99 1-.99.7 0 .93.75.93 1.35V28h-.5v-.51c-.1.32-.33.51-.69.51Zm.1-.5c.4 0 .59-.53.59-.98v-.5c-.05.08-.23.14-.4.18l-.15.03c-.31.06-.45.28-.45.6 0 .37.15.67.41.67ZM29.81 36c-.6 0-.81-.68-.81-1.18 0-.63.3-1.03.92-1.15.44-.08.58-.08.58-.35v-.02c0-.44-.12-.8-.43-.8-.3 0-.49.37-.56.65l-.44-.16c.11-.5.43-.99 1-.99.7 0 .93.75.93 1.35V36h-.5v-.51c-.1.32-.33.51-.69.51Zm.1-.5c.4 0 .59-.53.59-.98v-.5c-.05.08-.23.14-.4.18l-.15.03c-.31.06-.45.28-.45.6 0 .37.15.67.41.67ZM7 28v-8h.75v3.5h2.5V20H11v8h-.76v-3.46H7.75V28H7ZM36.58 36c-1.1 0-1.58-1.02-1.58-1.99 0-.93.46-2.01 1.53-2.01C37.6 32 38 33.03 38 33.95V34h-2.64v-.51h2.14c0-.5-.41-1-.96-1-.58 0-1.04.7-1.04 1.22v.44c0 .59.41 1.34 1.08 1.34.37 0 .7-.28.8-.63L38 35c-.15.66-.76 1-1.42 1ZM34 33l-.43.12c-.06-.26-.24-.62-.54-.62-.2 0-.57.24-.57.6 0 .27.2.41.48.51l.39.14c.45.17.67.5.67 1.05 0 .8-.53 1.2-1 1.2-.56 0-.92-.39-1-1.07l.46-.11c.06.38.24.68.53.68.32 0 .51-.34.51-.64 0-.24-.1-.4-.34-.5l-.42-.14a1.07 1.07 0 0 1-.74-1.07c0-.77.57-1.15 1.02-1.15.53 0 .88.39.98 1Z" fill="#0C71B6"/><path d="M10.76 30.9c-.38.16-.64.3-.8.43a2.1 2.1 0 0 1-.75.47c-.4.08-.76.1-1.1.04-.1 0-.13-.07-.1-.18l.01-.06c0-.06.03-.11.07-.15a.2.2 0 0 1 .14-.06c.67 0 1.27-.25 1.8-.78.34-.33.55-.53.65-.57a.65.65 0 0 1 .21-.04c.47-.01.82.6 1.23 1.2.03.05.08.09.13.1.56.16 1.3-.5 1.98-1.11.14-.13.28-.19.4-.19.3 0 .57.3.8.67.27.4.75.76 1.21.55.39-.17.62-.3.69-.36.45-.43.78-.86 1.2-.85.08 0 .16.01.25.05.34.13.6.77.87 1.03.39.37.74.36 1.06-.03.02-.03.05-.06.08-.06.21 0 .2.12.21.26 0 .22-.14.53-.33.57-.29.06-.62.19-.92.17a.4.4 0 0 1-.27-.16c-.17-.2-.35-.5-.56-.65a.9.9 0 0 0-.52-.19c-.47 0-.87.35-1.3.63-.68.45-1.27.37-1.76-.23a1 1 0 0 0-.8-.4c-.28 0-.52.05-.75.31-.35.41-.68.69-1.07.69-.19 0-.38-.06-.6-.2-.36-.22-.6-.66-.98-.9-.11-.06-.24-.06-.38 0Z" fill="#0579B8"/><path d="M18.93 33.1c.15-.1.34-.14.55-.12.04 0 .09 0 .13-.03l.15-.1c.21-.21.28-.1.22.3-.1.62-.35.9-.75.84-.32-.05-.47-.17-.7-.56-.24-.4-.5-.68-.76-.82-.34-.18-.61.35-.87.73-.07.12-.2.21-.38.3-.33.14-.66.37-.95.36-.19 0-.36-.12-.5-.36-.33-.52-.6-1.01-1-1.08-.05-.01-.1 0-.14.04-.3.3-.5.75-.82.93-.34.2-.69.48-.99.47-.17 0-.32-.13-.45-.37-.24-.46-.9-1.43-1.3-.94-.2.24-.36.65-.63.82a3.1 3.1 0 0 1-1.56.49c-.16 0-.21-.1-.16-.34l.09-.37c.05-.22.15-.3.3-.29.48 0 .75-.02.81-.06.65-.51 1.15-.97 1.79-.93.23.02.39.26.57.55.28.43.58.63.88.6.24-.02.47-.57.62-.74.65-.7 1.27-.45 1.89.18.57.6 1.1.41 1.65-.05.4-.33.8-.51 1.2-.54.57-.05.68.58 1 1.05.02.02.04.04.06.04h.05Z" fill="#017B51"/><path d="M12.93 34.86c-.43.27-.82.58-1.16.88-.2.2-.4.26-.56.26-.76-.01-1.15-1.64-2.04-1-.44.33-.97 1.01-1.57 1a.94.94 0 0 1-.46-.19.3.3 0 0 1-.12-.16.38.38 0 0 1 0-.22c.04-.16.14-.25.3-.25.57 0 .83-.01 1.26-.35A52.35 52.35 0 0 1 9.73 34l.07.01c.42.17.58.64.86.97.34.4 1.09.16 1.41-.11.12-.1.35-.36.69-.7.1-.11.22-.17.33-.17.12 0 .24.07.36.21.43.5.66.82.7.85.04.04.09.06.13.06.43 0 .77.1 1.16-.2l1.08-.84a.35.35 0 0 1 .24-.08c.08 0 .16.04.23.1.17.17.32.36.45.57.36.57.88.65 1.37.28.13-.1.19-.06.19.12v.16a.6.6 0 0 1-.15.42c-.24.26-.44.35-.62.35-.75 0-1.17-1.65-2.08-.97-.22.16-.6.46-1.12.88a.48.48 0 0 1-.31.09h-.06c-.33-.02-.98-.77-1.24-1.06-.15-.16-.31-.19-.5-.08Z" fill="#0579B8"/><path d="M15 24v4h.5v-4H15ZM43.6 36c-1.14 0-1.6-1.08-1.6-2 0-.91.46-2 1.6-2 .72 0 1.17.44 1.4 1h-.56c-.18-.3-.45-.53-.84-.53-.77 0-1.1.83-1.1 1.53 0 .7.33 1.53 1.1 1.53.39 0 .66-.22.84-.53H45c-.23.56-.68 1-1.4 1Z" fill="#0C71B6"/></svg>