<!-- by TradingView --><svg width="56" height="56" viewBox="0 0 56 56" xmlns="http://www.w3.org/2000/svg"><path fill="#F0F3FA" d="M0 0h56v56H0z"/><path fill="#F80500" d="M20 24h16v17H20zM15 42h27v1H15zM15 17h26v6H15v-6ZM15 24v17h3V24h-3ZM38 24v17h3V24h-3Z"/><circle cx="28" cy="33" r="7" fill="#0129E0"/><path d="M32.26 27.76c-.31.07-.57.03-.78-.13l-.49-.36a5.16 5.16 0 0 0-.67-.3c-.21-.06-.28-.25-.2-.55a5.1 5.1 0 0 1 2.14 1.34ZM31.52 28.12l-.58-.23a.17.17 0 0 0-.23.1c-.05.13-.08.28-.08.44 0 .05-.02.09-.04.11a.26.26 0 0 1-.1.06.12.12 0 0 1-.09 0 .13.13 0 0 1-.07-.06c-.23-.55-.82-.55-1.07-1.05a.17.17 0 0 0-.15-.1h-.5a.3.3 0 0 1-.18-.05c-.18-.12-.27-.19-.5-.2l-1.48-.16c.7-.13 1.42-.15 2.16-.06.07 0 .14 0 .2-.05.34-.23.65-.2.94.1.05.05.1.09.17.11.61.22 1.14.57 1.6 1.04Z" fill="#B0BBC1"/><path d="m26.45 26.98 1.49.15c.23.02.31.1.49.2a.3.3 0 0 0 .18.06h.5a.17.17 0 0 1 .15.1c.25.5.84.5 1.08 1.04 0 .04.03.06.06.07h.1a.26.26 0 0 0 .09-.06c.02-.02.04-.06.04-.1 0-.17.03-.32.08-.46a.17.17 0 0 1 .23-.1l.58.24c.3.18.55.44.72.77.05.1.04.18-.05.25-.5.4-.9.9-1.21 1.52-.17.13-.5.18-1.02.13-.31-.03-.51.06-.59.3-.16.44-.04.76.35.96a.27.27 0 0 0 .33-.08c.2-.26.34-.3.45-.14-.13.18-.14.36-.02.52a.13.13 0 0 0 .11.06h.14c.09 0 .14.04.16.14.1.46.21.8.32 1.06.23.52.35.5.37-.07l.01-.41c0-.07.04-.12.1-.14 1.01-.3 1.77.4 2.14 1.33.02.08.07.14.14.18.11.07.2.15.25.26a.2.2 0 0 1 .01.17c-.3.76-.53 1.2-.67 1.35l-.71.7c-.55.53-.98.77-1.86 1.35-.3.2-.51.53-.77.7-.33.23-.38.18-.15-.15l.22-.38a7.82 7.82 0 0 0 1.4-1.89.46.46 0 0 0 0-.4l-.57-1.32c-.02-.1.07-.2.27-.3.07-.04.1-.1.09-.19-.01-.07-.05-.11-.13-.1-.17 0-.28-.04-.33-.12a5.03 5.03 0 0 0-.77-1.15c-.08-.05-.11-.18-.1-.42a2.5 2.5 0 0 0-1.05-.4c-.58-.1-.67-.64-.95-.92-.2-.2-.4-.37-.64-.52l-.8-.76a.36.36 0 0 1-.1-.17c-.04-.19-.04-.38.02-.57a.3.3 0 0 0 0-.2c-.35-.91-.98-1.28-1.9-1.12a.21.21 0 0 1-.16-.05.15.15 0 0 1-.06-.15l.04-.26 1.9-.51Z" fill="#FDFCFA"/><path d="m24.55 27.5-.04.25c-.01.06 0 .12.06.15.06.04.11.06.17.05.9-.16 1.54.21 1.88 1.12a.3.3 0 0 1 .01.2c-.06.2-.06.38-.02.57.02.06.05.12.1.17l.8.76c-1.16-.77-2.45-.62-3.74-.64-.07 0-.11-.04-.13-.11-.19-.84.11-1.68.9-2.53Z" fill="#34B4EF"/><path d="M22.81 30.3c-.13.51-.31 1.16-.83 1.18-.08 0-.12-.03-.13-.1-.05-.69.24-1.07.9-1.15.05 0 .08.02.06.08Z" fill="#47D5F3"/><path d="m24.84 34.88-.16.27a.07.07 0 0 0 0 .06.07.07 0 0 0 .04.04l.1.02c.02.01.05 0 .07-.02l.46-.56c.1.09.25.14.42.16.08 0 .13.04.17.1.65 1 1.59 1.48 2.81 1.44a1.8 1.8 0 0 0 1.46-.8c.24-.35.46-.61.67-.78.05-.03.1-.05.13-.04.05.02.08.06.1.12l.59 1.33a.46.46 0 0 1-.02.4c-.37.7-.84 1.33-1.4 1.88a.5.5 0 0 0 .01-.28c-.02-.08-.06-.1-.13-.05-.8.45-1.79.36-2.8.33a4.3 4.3 0 0 1-1.77-.39 7.28 7.28 0 0 1-2.87-2.33 5.47 5.47 0 0 1-.92-3.39c0-.08.03-.16.09-.22.07-.08.15-.12.22-.12.17 0 .25.1.24.26-.06 1.05.1 2 .5 2.83a.22.22 0 0 0 .26.13l1.73-.39Z" fill="#0055EF"/><path d="M30.15 32.61c-.01.24.02.37.1.42l-.1.09c.01.1 0 .16-.06.2a.17.17 0 0 1-.18.02c-.86-.45-1.49-.37-1.88.23-.3.03-.5.12-.62.27-.04.04-.08.06-.14.04l-.84-.25a.4.4 0 0 0-.45.15l-.63.91-.46.56a.07.07 0 0 1-.08.02l-.09-.02a.07.07 0 0 1-.04-.04.07.07 0 0 1 0-.06l.16-.27a4.4 4.4 0 0 0 .92-1.78c.06-.26.2-.32.44-.19l.4.24a.4.4 0 0 0 .47-.05c.25-.23.57-.34.96-.33.07 0 .13-.02.2-.05.2-.12.37-.16.52-.1.44.15.87.26 1.27.32.08.02.12-.1.13-.33Z" fill="#D8B8B2"/><path d="m30.16 33.12.14.62c-.34.03-.54.13-.58.31-.03.02-.09 0-.17-.04 0-.05-.06-.11-.17-.17-.3-.4-.64-.42-1.01-.1l-.15.26c-.13.34-.31.48-.55.45a.18.18 0 0 1-.14-.14c-.04-.14-.05-.3-.03-.44a.17.17 0 0 1 .12-.14l.41-.16c.4-.6 1.02-.68 1.88-.23a.17.17 0 0 0 .18-.02c.05-.04.08-.1.07-.2Z" fill="#743329"/><path d="M30.25 33.03c.23.22.48.6.77 1.15.05.08.16.12.33.11.08 0 .12.04.12.11.01.09-.01.15-.08.18-.2.1-.29.21-.27.31-.03-.06-.06-.1-.1-.12-.05 0-.09 0-.14.04-.2.17-.43.43-.67.78-.33.49-.85.78-1.46.8a3.02 3.02 0 0 1-2.8-1.44.22.22 0 0 0-.17-.1.82.82 0 0 1-.43-.16l.63-.9a.4.4 0 0 1 .45-.16l.84.25c.06.02.1 0 .14-.04.12-.15.32-.24.62-.27l-.41.16a.17.17 0 0 0-.12.14c-.02.15 0 .3.03.44a.18.18 0 0 0 .14.14c.24.03.42-.11.55-.45-.28.44-.2.76.25.98.12.05.21.07.27.04.07-.04.13-.12.16-.24l.05-.08a.15.15 0 0 1 .1-.03h.32a.11.11 0 0 0 .1-.07.11.11 0 0 0-.01-.12.86.86 0 0 1-.16-.28c-.03-.08 0-.13.08-.16.05-.02.1-.03.17-.03.08.04.14.06.17.04l.5.37c.27.2.36.14.28-.19-.03-.12-.1-.28-.2-.49l-.14-.62.1-.1Z" fill="#4D1E15"/><path d="M29.38 33.84c-.6.17-.94.14-1.01-.1.37-.33.7-.3 1.01.1Z" fill="#FDFCFA"/><path d="M28.37 33.75c.07.23.4.26 1.01.09.11.06.17.12.17.17-.07 0-.12 0-.17.03-.08.03-.1.08-.08.16.03.1.08.2.16.28a.11.11 0 0 1-.09.19h-.33a.15.15 0 0 0-.14.1c-.03.13-.09.21-.16.25-.06.03-.15.02-.27-.04-.45-.21-.53-.54-.25-.98l.15-.25Z" fill="#916959"/><path d="M30.3 33.74c.1.2.17.37.2.49.08.33-.01.4-.29.2l-.5-.38c.05-.18.25-.28.58-.31Z" fill="#D8B8B2"/><path fill-rule="evenodd" d="M24.74 12.2c.33-.34 1.04-.56 1.64-.67l.65-.09c-.06-.04-.18-.21-.2-.54a1.78 1.78 0 0 1 0-.06c0-.38.27-.6.58-.71.2-.08.42-.12.58-.13H28c.16.01.38.05.58.13.3.12.58.33.58.7v.07c-.02.33-.14.5-.2.54.17.02.4.05.65.1.6.1 1.31.32 1.64.67-.07.12-.34.38-.86.51-.35.12-.65.26-.65.7 0 .44.45 1.2 1.6 1.2 1.16 0 1.74-.67 1.74-1.36a1.29 1.29 0 0 0-.53-1.05L44 16H12l11.44-3.8a1.3 1.3 0 0 0-.53 1.06c0 .7.58 1.37 1.73 1.37 1.16 0 1.61-.77 1.61-1.21 0-.44-.3-.58-.65-.7-.52-.13-.79-.4-.86-.51Zm2.82-1.52c.13-.07.3-.1.44-.12.14.01.31.05.44.12.06.03.09.06.1.08.01.01.03.03.03.08 0 .1-.02.17-.03.2l-.54.38-.54-.38a.63.63 0 0 1-.03-.2c0-.05.02-.07.03-.08a.32.32 0 0 1 .1-.08ZM27.1 12l.91-.08.91.08a6.14 6.14 0 0 1 1.2.23c-.18.06-.4.15-.58.31l-.17.18h-2.72l-.17-.18c-.18-.16-.4-.25-.58-.31l.13-.04c.4-.11.81-.17 1.07-.2Zm-.25 1.19.02.23c0 .73-.7 1.77-2.22 1.77-.7 0-1.3-.21-1.71-.58a1.8 1.8 0 0 1-.62-1.43l-6.84 2.26h25.06l-6.84-2.26v.08c0 .49-.2.98-.62 1.35-.41.37-1 .58-1.71.58-1.51 0-2.22-1.04-2.22-1.77l.02-.23h-2.32Z" fill="#F80500"/><path d="M34.18 18.7V18h2.2v.7h-.82V22H35v-3.3h-.82ZM32 22v-4h2v.7h-1.37v.95h1.36v.7h-1.36v.95H34v.7h-2ZM31 18v4h-.65v-4H31ZM27.73 18l.76 3.04h.02l.76-3.04H30l-1.07 4h-.85L27 18h.73ZM26 18v4h-.65v-4H26ZM22.7 22H22l1.08-4h.85L25 22h-.7l-.79-3.09h-.02L22.7 22Zm-.04-1.57h1.67v.66h-1.67v-.66ZM19.35 22h1.2c1.1 0 1.5-1.06 1.5-2s-.4-2-1.48-2h-1.22v1.7H19v.6h.35V22Zm1.18-.72H20v-.97h.77v-.62H20v-.97h.53c.71 0 .88.68.88 1.28s-.16 1.28-.88 1.28Z" fill="#fff"/></svg>