<!-- by TradingView --><svg width="56" height="56" viewBox="0 0 56 56" xmlns="http://www.w3.org/2000/svg"><path fill="#F0F3FA" d="M0 0h56v56H0z"/><circle cx="28" cy="28" r="16" fill="#0360AE"/><path fill-rule="evenodd" d="M27.33 31.76c-.16.16-.23.12-.2-.1.02-.29-.02-.62-.12-1a9.17 9.17 0 0 0-3.76-5.5c-.77-.54-1.82-.96-2.82-1.36-.63-.25-1.24-.5-1.75-.75a10.23 10.23 0 0 1-2.53-1.77.22.22 0 0 0-.2.03.22.22 0 0 0-.06.07c-.96 1.64-1.02 3.93-.75 5.74.3 1.96 1.57 3.14 2.99 4.44a3.82 3.82 0 0 1 1.26 2.34c.12.8.21 1.3.3 1.5a8.05 8.05 0 0 0 3.69 3.88.2.2 0 0 1 .1.21l-.23 2.39c-.01.1.03.14.12.15l.46.05a.22.22 0 0 0 .17-.05.23.23 0 0 0 .08-.16l.11-1.07a.3.3 0 0 1 .18-.25c.5-.24.97-.29 1.4-.15 5.24 1.7 10.01-1.07 12.88-5.47 2.23-3.42 2.04-8.67.47-12.22-.42-.95-1.13-2.1-1.83-3.21a40 40 0 0 1-1.48-2.44.27.27 0 0 0-.32 0c-3.33 2.39-5.05 6.1-5.96 10.2-.45 2-.88 3.19-2.2 4.5ZM24.8 38.9c-.3.1-.47.32-.52.64-.02.12.03.17.14.16a1 1 0 0 0 .45-.14c.11-.07.17-.15.18-.24 0-.1 0-.2-.03-.3-.03-.12-.1-.16-.22-.12Z" fill="#fff"/><path d="M35.5 19.55c-.03.24-.03.53-.02.85.13 2.3.2 3.72.2 4.26.13 6.86-3.96 12.25-10.16 14.66a.15.15 0 0 1-.2-.12 9.18 9.18 0 0 1 .21-4.5c.38-1.24 2.1-2.86 2.72-3.54 1.29-1.4 1.63-4.2 2.06-5.75a15.42 15.42 0 0 1 5.17-8.01.24.24 0 0 1 .28.11c1.14 2.03 2.7 4.1 3.46 6.18 1.29 3.58 1.2 8.37-1.17 11.62-2.87 3.92-7.11 6.38-11.95 4.89a.12.12 0 0 1-.09-.12.13.13 0 0 1 .08-.12c6.2-2.39 10.12-7.45 10.14-14.25 0-.72-.1-1.75-.28-3.08l-.42-3.08c-.01-.11-.03-.11-.04 0Z" fill="#41B649"/><path d="M16.93 23.37c4.69 4.03 6.88 9.21 6.58 15.54a.08.08 0 0 1-.04.06.07.07 0 0 1-.07 0c-2.08-1.11-3.75-3.12-3.8-5.53 0-.54-.65-1.47-1.17-1.96-1.4-1.35-2.54-2.28-2.91-4.03-.4-1.88-.29-3.7.34-5.43.12-.34.3-.39.57-.14 1.99 1.86 4.69 2.11 6.82 3.63a8.71 8.71 0 0 1 3.67 6.44.35.35 0 0 1-.1.28 7.15 7.15 0 0 0-2 5.58c0 .16 0 .3-.04.45a.85.85 0 0 1-.3.47.1.1 0 0 1-.15-.07c.01-.39-.02-1-.08-1.84A18.21 18.21 0 0 0 17.1 23.3c-.03-.02-.06-.02-.1 0l-.07.06Z" fill="#41B649"/></svg>