<!-- by TradingView --><svg width="56" height="56" viewBox="0 0 56 56" xmlns="http://www.w3.org/2000/svg"><path fill="#F0F3FA" d="M0 0h56v56H0z"/><path d="M13 28.23c0-8.16 6.72-14.77 15-14.77v10.07a4.5 4.5 0 0 0 0 8.94V43c-8.28 0-15-6.61-15-14.77Z" fill="#0093DD"/><path d="m25 10.69 2.77-1.39c.77-.3 2.5-.65 3.23.46l2.77 4.81A15 15 0 0 0 29 13.48v1.89l-.5-1.16-.73-1.68c-.3-.77-1.3-2.21-2.77-1.84Zm15.84 9.87a14.57 14.57 0 0 1 2.15 6.94H25.04A3.5 3.5 0 0 1 29 24.54v-9.17c2.23 5.12 5.27 11.93 6.62 11.93.92 0 2.28-2.24 3.46-4.17.7-1.14 1.33-2.17 1.76-2.57Zm0 0c-.25-.4-.51-.79-.8-1.16l2.04-2.25c.61-.77 2.03-2.03 2.77-.92l.2.3c.91 1.39 2.23 3.39 3.95 3.39-1.08 1.23-3.5 3.7-4.62 3.7-.76 0-1.38-.99-1.94-1.87-.46-.72-.87-1.37-1.29-1.37-.08 0-.2.06-.31.18Zm-.8-1.16-2.12 2.37-4.15-7.2c2.51 1.03 4.68 2.71 6.28 4.83Zm-15 9.1H43c-.02 1.2-.19 2.38-.48 3.5H29v-.54a3.5 3.5 0 0 1-3.96-2.96ZM29 33h13.21c-.24.7-.53 1.36-.86 2H29v-2Zm0 3h11.77c-.44.7-.94 1.38-1.5 2H29v-2Zm0 4h8.1a14.97 14.97 0 0 1-8.1 2.97V40Z" fill="#28166F"/></svg>