<!-- by TradingView --><svg width="56" height="56" viewBox="0 0 56 56" xmlns="http://www.w3.org/2000/svg"><path fill="#F0F3FA" d="M0 0h56v56H0z"/><path d="M43 13H13v24h4.28a14 14 0 1 1 21.45 0H43V13Z" fill="#0097B2"/><path d="M28 34h-9.5c-1.2-1.6-1.5-4.67-1.5-6 0-8 6-11 11-11-.83 1.17-2.5 4-2.5 6 0 2.5 4.5 3.5 4.5 6 0 1.6-1.33 4.17-2 5Z" fill="#FCC59A"/><path d="M17.28 37H13v6h30v-6h-4.28a13.97 13.97 0 0 1-21.44 0Z" fill="#2A2A2A"/><path fill-rule="evenodd" d="M37.22 34a11 11 0 0 0-8.96-17c-.44.65-1.14 1.8-1.6 2.7a7.14 7.14 0 0 0-.91 2.8c0 1.61 1.02 2.42 2.15 3.23l.15.12c1.06.75 2.2 1.58 2.2 3.15 0 2-.89 3.9-1.6 5h8.57Zm-9.16 0h-9.28a11 11 0 0 1 8.88-17c-.45.68-1.04 1.67-1.45 2.47a7.57 7.57 0 0 0-.96 3.03c0 1.89 1.23 2.83 2.35 3.64l.1.07c1.11.8 2.05 1.48 2.05 2.79 0 2.05-1 4.01-1.7 5Zm8.43 1H40.13a14 14 0 1 0-24.25 0h20.61Z" fill="#1679B3"/><path d="M17.28 37c-.27-.32-.53-.66-.77-1h22.98c-.24.34-.5.68-.77 1H17.28Zm2.06 2c-.4-.31-.78-.65-1.14-1h19.6c-.36.35-.74.69-1.14 1H19.34Zm3.45 2c-.7-.28-1.37-.62-2-1h14.43c-.64.38-1.31.72-2.01 1H22.79Z" fill="#1679B3"/><path d="M33.5 24v1H33v.5h.5v1H33v.5h.5v3.53a7.37 7.37 0 0 0-4 1.97l1 1a5.72 5.72 0 0 1 2.71-2.37c.35.24.79.72.79 1.37h2a3.74 3.74 0 0 0-1.42-1.46 5.66 5.66 0 0 1 2.92 1.46 3.86 3.86 0 0 0-1.8-1.64L37 30l-1 .5-.53.26c-.3-.1-.62-.19-.97-.23V27h.5v-.5h-.5v-1l.5-.5v-1l-1 .5V24h-.5Z" fill="#80292F"/><path d="M22.5 24a2.5 2.5 0 0 1 2.46 2.04A2.5 2.5 0 0 1 24.5 31H24c-.33 0-1 .2-1 1s.67 1.33 1 1.5h-3c.33-.17 1-.7 1-1.5s-.67-1-1-1h-.5a2.5 2.5 0 0 1-.46-4.96A2.5 2.5 0 0 1 22.5 24Z" fill="#72BE42"/></svg>