<!-- by TradingView --><svg xmlns="http://www.w3.org/2000/svg" width="56" height="56" viewBox="0 0 56 56"><path fill="#00A8EC" d="M0 0h56v56H0z"/><path d="M28 11l17.5 28h-35L28 11z" fill="#fff"/><path d="M38.63 30.15c-1.14 1.69-3.37 3.3-6.52 4.3-3.02.96-13.79 2.7-19.46 3.55H43.5l-4.87-7.85z" fill="#EC870E"/><path d="M33.81 22.38c-.5 1.99-2.07 4.26-4.7 6.2-2.43 1.8-11.53 6.62-16.45 9.14l-.16.26c5.07-1.08 15.15-3.36 19.33-4.74 3.2-1.06 5.16-2.8 6.17-4.11l-4.19-6.75z" fill="#00A8EC"/><path d="M33.07 21.18L28 13 12.73 37.62c4.35-2.6 12.48-7.6 15.78-10.1 2.92-2.23 4.16-4.8 4.56-6.34z" fill="#205AA7"/></svg>