<!-- by TradingView --><svg width="56" height="56" viewBox="0 0 56 56" xmlns="http://www.w3.org/2000/svg"><path fill="#F0F3FA" d="M0 0h56v56H0z"/><path d="m35.26 31-3.47-.01.44-3 3.14.01c1.2 0 2.2-.09 2.37-1.3.16-1-.25-1.64-1.37-1.7l-2.24-.01L32.2 36H29l2.36-14 5.12.01c2.64.06 4.71 1.94 4.5 4.66-.23 3-2.92 4.33-5.72 4.33Z" fill="#2D3D96"/><path d="m46 26 3 6 3-6h-6Z" fill="#F6ED08"/><path d="m43 20 3 6 3-6h-6Z" fill="#6ECFF6"/><path d="m43 32 3-6 3 6h-6Z" fill="#71BF44"/><path d="m46 26 3-6 3 6h-6Z" fill="#273896"/><path d="m20.52 22 2.26 4.72L26.21 22H30l-5.72 7.09L27.82 36h-3.54L22 32.5 19 36h-4l5.52-6.91L17 22h3.52ZM8.6 36H5.4l.47-3.02 2.84.02c2.33 0 3.51-1.66 3.81-3.73l.07-.6c.22-1.6.05-3.6-2.05-3.67l-3.21-.01.45-2.99 2.86.01c3.61.07 5.7 3.34 5.3 6.67l-.06.6a8.36 8.36 0 0 1-.8 2.64A7.19 7.19 0 0 1 8.62 36Zm1.14-14L7.3 36H4l2.43-14h3.3Z" fill="#2D3D96"/></svg>