<!-- by TradingView --><svg width="56" height="56" fill="none" xmlns="http://www.w3.org/2000/svg"><path fill="#F0F3FA" d="M0 0h56v56H0z"/><path fill-rule="evenodd" clip-rule="evenodd" d="M13.583 15 12 39h6.583l3.738-3.915A10.48 10.48 0 0 0 30.5 39c3.233 0 6.126-1.462 8.052-3.76a351.968 351.968 0 0 1 3.68 3.76H48l-7.422-7.543a10.506 10.506 0 0 0 .41-3.457h-5.01a5.5 5.5 0 1 1-4.504-4.914l1.702-4.742A10.513 10.513 0 0 0 30.5 18C24.701 18 20 22.701 20 28.5c0 .934.122 1.84.351 2.702l-2.684 2.562L16.75 15h-3.167ZM33 31a2 2 0 1 0 0-4 2 2 0 0 0 0 4Z" fill="#BC9F6E"/></svg>