<!-- by TradingView --><svg width="56" height="56" viewBox="0 0 56 56" xmlns="http://www.w3.org/2000/svg"><path fill="#F0F3FA" d="M0 0h56v56H0z"/><path d="M28 25h-2.5l-.5 1h1l-.5 1.5H25l-.5 1h1L25 30h-1l-1 3h4.5l.5-8ZM30 25h-1l-.5 8h2l-.5-8ZM31 25l.5 3.5H33l.5 1.5h-2l.5 3h4l-2-8h-3Zm1.5 1h1l.5 1.5h-1.5V26ZM30 20l.47 1.53H32l-1.24.94.48 1.53-1.24-.94-1.24.94.48-1.53-1.24-.94h1.53L30 20Z" fill="#ED1B24"/><path d="M23 25c-1.6.4-4.67 1.5-6 2v-1c1.2-.4 4.5-.83 6-1Z" fill="#008FD5"/><path d="M48 22c0-2.53-10.83-.17-15.5 1 4.5-.5 13.5-2 14-1 .91 1.82-6.83 5-10.5 6l.5 2c4-1.5 11.5-5 11.5-8Z" fill="#008ED5"/><path d="M30 17c4 0 8.83 2.5 10 3.5-1.17-.83-4.8-2.5-10-2.5-6.5 0-13 4.5-13 10s6 10.08 13 10a21.6 21.6 0 0 0 12-4c-1 1.67-4.8 5-12 5-9 0-16-4-16-11s9-11 16-11Z" fill="#0060AD"/><path d="M7 31c0-2 4.67-3.5 7-4v1c-1.83.5-5.5 1.8-5.5 3s8.67.5 13 0l-.5 2c-6 .5-14 .5-14-2Z" fill="#008FD5"/></svg>