<!-- by TradingView --><svg width="56" height="56" viewBox="0 0 56 56" xmlns="http://www.w3.org/2000/svg"><path fill="#F0F3FA" d="M0 0h56v56H0z"/><path d="M28.34 31.42c.11.34.17.66.17.95a17.6 17.6 0 0 0 5.24 12.58.04.04 0 0 1-.02.04l-.02.01H30.1a.22.22 0 0 1-.21-.12c-1.75-3.02-2.48-6.01-2.2-8.96.02-.13.01-.73-.02-1.8-.02-.58-.09-.58-.21-.02-.68 3.13-1.65 6.36-5.46 6.59-2.9.18-4.53-1.1-4.87-3.81-.02-.2-.13-.3-.32-.34-2.35-.42-3.93-2.15-3.78-4.54.2-2.95 3.28-4.02 5.77-4.56.67-.14.66-.25-.02-.33-2.48-.3-5.64-1.37-5.77-4.18-.11-2.42 1.11-3.98 3.68-4.67.25-.07.4-.24.44-.5.64-4.07 5.72-5.74 7.97-1.89a16.37 16.37 0 0 1 2.07 6.75h.15c.08 0 .13-.05.12-.13a19.7 19.7 0 0 1 .84-6.25c1.4-4.63 7.38-4.12 8.48.4.05.18.16.27.36.28 2.79.04 5.1 2.48 4.35 5.17-.7 2.44-3.55 3.4-5.74 4.05-.27.08-.27.15.02.2.54.09 1.13.14 1.75.16 3.05.1 6.06 1.6 5.41 5.12-.3 1.62-1.33 2.72-3.1 3.32a.36.36 0 0 0-.28.37c0 2.36-.97 3.88-2.9 4.54-4.73 1.6-6.94-4.75-7.86-8.05a.96.96 0 0 0-.28-.47c-.16-.15-.2-.12-.15.09Z" fill="#46B24E"/></svg>