<!-- by TradingView --><svg width="56" height="56" viewBox="0 0 56 56" xmlns="http://www.w3.org/2000/svg"><path fill="#2E3092" d="M0 0h56v56H0z"/><path d="M35.47 38c-2.16.59-4.5.95-6.97 1v-1h6.97Zm3-1H28.5V17c10.81.2 19.5 7.06 19.5 11 0 .94-.39 1.96-1.1 3h-6.13A4.6 4.6 0 0 0 42 28c0-3.1-4.6-5.83-9-7.15V36h7.68c-.7.36-1.43.7-2.2 1Zm3.98-2c.51-.32 1-.66 1.45-1h-7.4v-.04c-.9.4-1.83.75-2.76 1.04h8.7Zm-4.13-2h6.79c.36-.33.7-.66 1-1h-6.37c-.43.36-.91.69-1.42 1ZM27.5 37v-8H23v7h-8c.7.36 1.44.7 2.22 1H27.5Zm-7.23 1c2.24.6 4.67.95 7.23 1v-1h-7.23Zm-7.03-3h9.07a24.1 24.1 0 0 1-2.76-1h-7.73c.44.34.92.68 1.42 1Zm-2.59-2h6.95c-.51-.3-1-.64-1.42-1H9.7c.29.34.6.67.94 1Zm-1.67-2h6.19A4.64 4.64 0 0 1 14 28c0-4.82 9.02-7.78 13.5-8v-3C16.69 17.2 8 23.57 8 28c0 .98.34 2 .98 3Z" fill="#fff"/></svg>