<!-- by TradingView --><svg width="56" height="56" fill="none" xmlns="http://www.w3.org/2000/svg"><path fill="#005F92" d="M0 0h56v56H0z"/><path d="M26 12v16h-9.76c-2.552 0-3.627 1.614-3.845 2.665-.304-1.34-.39-2.408-.395-2.775C12 17.23 21.276 12.855 26 12ZM30 44V28h9.76c2.552 0 3.627-1.614 3.845-2.665.304 1.34.39 2.408.395 2.775C44 38.77 34.724 43.145 30 44Z" fill="#fff"/><path d="M27.951 43.897c-9.823 0-14.342-8.267-15.374-12.4.485-.986 1.357-1.546 1.732-1.703 2.093 9.964 11.21 11.962 12.816 11.962 1.283 0 1.818-.777 1.875-1.165v3.306h-1.049Z" fill="url(#a)"/><path d="M28.002 12c9.823 0 14.575 7.768 15.655 12.665-.484.986-1.637 1.28-2.012 1.438-2.093-9.964-11.211-11.962-12.816-11.962-1.284 0-1.772.777-1.829 1.165V12h1.002Z" fill="url(#b)"/><path d="M29 15v24.91l-2 .648v-24.91L29 15Z" fill="url(#c)"/><defs><linearGradient id="a" x1="27.084" y1="43.075" x2="13.323" y2="30.012" gradientUnits="userSpaceOnUse"><stop offset=".705" stop-color="#fff"/><stop offset=".946" stop-color="#fff" stop-opacity="0"/></linearGradient><linearGradient id="b" x1="28.931" y1="13.352" x2="41.368" y2="26.377" gradientUnits="userSpaceOnUse"><stop offset=".768" stop-color="#fff"/><stop offset=".953" stop-color="#fff" stop-opacity="0"/></linearGradient><linearGradient id="c" x1="28" y1="15" x2="28" y2="40.558" gradientUnits="userSpaceOnUse"><stop offset=".021" stop-color="#fff" stop-opacity=".061"/><stop offset=".291" stop-color="#fff"/><stop offset=".686" stop-color="#fff" stop-opacity=".957"/><stop offset="1" stop-color="#fff" stop-opacity="0"/></linearGradient></defs></svg>