<!-- by TradingView --><svg width="56" height="56" viewBox="0 0 56 56" xmlns="http://www.w3.org/2000/svg"><path fill="#F0F3FA" d="M0 0h56v56H0z"/><path fill-rule="evenodd" d="M42 13.5H14a.5.5 0 0 0-.5.5v28c0 .28.22.5.5.5h28a.5.5 0 0 0 .5-.5V14a.5.5 0 0 0-.5-.5ZM14 13a1 1 0 0 0-1 1v28a1 1 0 0 0 1 1h28a1 1 0 0 0 1-1V14a1 1 0 0 0-1-1H14Z" fill="#004DFF"/><path d="M14 15a1 1 0 0 1 1-1h12a1 1 0 0 1 1 1v5a7 7 0 0 0-2 .29V15h-3v4h-4v-4h-3v11h3v-4h4v.1a6.98 6.98 0 0 0-1.93 5.9H15a1 1 0 0 1-1-1V15ZM28 34v7a1 1 0 0 0 1 1h12a1 1 0 0 0 1-1V29a1 1 0 0 0-1-1h-6.07c-.05.34-.12.68-.22 1H35c3.6 0 5 1 5 3v3c0 3.6-3.33 4.17-5 4h-5v-5.29a7 7 0 0 1-2 .29Zm5-2.1V37h2c1.6 0 2-1.33 2-2v-2c0-1.6-1.33-2-2-2h-1.25c-.23.32-.48.62-.75.9Z" fill="#004DFF"/><path d="M21.07 28H15a1 1 0 0 0-1 1v12a1 1 0 0 0 1 1h12a1 1 0 0 0 1-1v-7a6.97 6.97 0 0 1-4-1.25V39h-5V29h2.29c-.1-.32-.17-.66-.22-1ZM28 15a1 1 0 0 1 1-1h12a1 1 0 0 1 1 1v12a1 1 0 0 1-1 1h-6.07a7.06 7.06 0 0 0 0-2H40v-2h-5.67A7.02 7.02 0 0 0 33 22.1v-.6h7v-2h-7V17h7v-2H30v5.29a7 7 0 0 0-2-.29v-5Z" fill="#7DA7FD"/><path d="M25 25c0-1.5 1.08-2.74 2.5-2.98V21a4.02 4.02 0 0 0-3.5 4 4.02 4.02 0 0 0 3.5 4v-4h-1v2.62c-.9-.52-1.5-1.5-1.5-2.62Zm3.5-3.53V21a4.02 4.02 0 0 1 3.5 4 4.02 4.02 0 0 1-3.5 4v-7.53Zm1 .91v5.24a3.03 3.03 0 0 0 0-5.24ZM26.5 30H25l-1 2a5.5 5.5 0 0 1 2.5-.5c1.2 0 1.5.5 1.5.5s.7-.5 1.5-.5 2 .33 2.5.5l-1-2h-1.5c-.8 0-1.33.33-1.5.5-.4-.4-1.17-.5-1.5-.5Z" fill="#004DFF"/><path d="M28 33c-.4-.8-1.83-1-2.5-1 1.2-.4 2.17.17 2.5.5.8-.8 2-.67 2.5-.5-2 0-2.52.97-2.5 1Z" fill="#004DFF"/></svg>