<!-- by TradingView --><svg width="56" height="56" viewBox="0 0 56 56" xmlns="http://www.w3.org/2000/svg"><path fill="#F0F3FA" d="M0 0h56v56H0z"/><path fill-rule="evenodd" d="M21.83 21 19 12l-2.83 9H7l7.42 5.21L11.58 35 19 29.57 26.42 35l-2.84-8.79L31 21h-9.17Zm7.16.66h-7.63L19 14.13l-2.36 7.53H9.01l6.17 4.3-2.36 7.32L19 28.76l6.18 4.52-2.36-7.32 6.17-4.3Z" fill="#DC8840"/><path fill="#2A348D" d="M28 23h3v12h-3z"/><path fill-rule="evenodd" d="M21 23h-1v12h3v-4h2a4 4 0 0 0 0-8h-4Zm2 3v2h2a1 1 0 1 0 0-2h-2Z" fill="#2A348D"/><path d="M46 26v-3h-7v3h2v9h3v-9h2Z" fill="#2A348D"/><path d="M35.52 35c-2.46 0-4.44-1.42-4.52-4h3.07c.07.9.64 1.28 1.5 1.28s1.29-.27 1.29-.8c0-.7-.85-.84-1.4-.93l-1.18-.19a3.7 3.7 0 0 1-2.25-1.14 3.62 3.62 0 0 1-.8-2.47c0-2.5 1.8-3.75 4.18-3.75 2.7 0 4.14 1.26 4.31 3.79h-2.88c-.07-.77-.45-1.1-1.32-1.1-.79 0-1.18.25-1.18.74 0 .42.3.68.92.77l1.18.2c2 .33 3.56 1.36 3.56 3.54 0 2.63-1.98 4.06-4.48 4.06Z" fill="#2A348D"/><path fill="#DC8840" d="M28 36h16v1H28zM23 38h17v1H23zM17 40h17v1H17z"/></svg>