<!-- by TradingView --><svg width="56" height="56" viewBox="0 0 56 56" xmlns="http://www.w3.org/2000/svg"><path fill="#F0F3FA" d="M0 0h56v56H0z"/><path d="M26.92 27h15.4l1.85-2H28.75l-1.83 2Zm2.74-3H45.1l2.77-3H32.41l-2.75 3Zm3.67-4h15.46l1.08-1.16a.5.5 0 0 0-.37-.84H35.38a.5.5 0 0 0-.37.16L33.33 20Zm8.07 8H26l-1.83 2h15.38l1.85-2Zm-2.77 3-6.32 6.84a.5.5 0 0 1-.37.16h-13.6a.5.5 0 0 1-.3-.09L6.44 29.86a1 1 0 0 1 .04-1.67l7.93-5.01a.5.5 0 0 1 .55.01L23 29v2h15.63Zm-20.2-2h-6.86c-.55 0-.78.67-.34.98l6.86 4.91c.37.27.91.01.91-.44v-4.9c0-.3-.26-.55-.57-.55Z" fill="#FDB930"/></svg>