<!-- by TradingView --><svg width="56" height="56" viewBox="0 0 56 56" xmlns="http://www.w3.org/2000/svg"><path fill="#F0F3FA" d="M0 0h56v56H0z"/><path d="M43 38H13v7h30v-7Z" fill="#F3C727"/><path d="M13 11v25h10a43.73 43.73 0 0 1 4.84-10.87 7.67 7.67 0 0 1-5.08 2.05c-.49 0-.89-.09-1.3-.09 2.36-1.19 6.57-2.84 7.83-5.39.82-1.66 1.87-3 2.5-4.9h2.66v.08l-1.61 2.13c-.08.08-.16.16-.16.32a5.1 5.1 0 0 1 2.74-.73 5.61 5.61 0 0 1 5.56 5.64c0 3.1-2.5 5.63-5.56 5.63-.32 0-.57 0-.89-.08a4.96 4.96 0 0 1-3.87-2.78c-.32-.65-.32-1.06-.32-1.06 0 1.57 2.56 2.62 3.7 2.62h.33a4.2 4.2 0 0 0 4.2-4.25c0-2.06-1.33-3.65-3.47-4.09-.16 0-.4-.08-.57-.08-1.2 0-2.34.57-3.06 1.39A47.2 47.2 0 0 0 25.67 36H43V11H13Zm9.76 14.87c-2.42.98-4.52.4-5.49.08-1.04-.35-2.5-2.58-2.5-3.68 0-.98.4-1.87.97-2.53 0 0 .24-.4.89-.9-.8-1.22-.9-1.23-.9-2.8 0-.76 1.6-1.84 1.98-2.02a7.47 7.47 0 0 1 5.13-.32 7.24 7.24 0 0 1 3.22 1.55c-.7-.54-1.4-.65-2.17-.98a6.5 6.5 0 0 0-2.83 0c-1.1.23-3.46 1.08-3.46 2.7 0 .48.16.81.32 1.06 1.05-.66 2.34-1.47 4.27-1.47.95 0 2.1.28 2.1 1.47 0 .4-.24.81-.48 1.06a5.9 5.9 0 0 1-3.31 1.06c-.65 0-1.21-.08-1.77-.33l-.49-.16-.48.74a2.5 2.5 0 0 0-.08 2.04 2.87 2.87 0 0 0 2.58 2.04c2.9.33 4.84-.98 7.01-2.86 1.13-.9 2.02-2.12 2.67-3.19a10.64 10.64 0 0 0 1.04-1.87 15.42 15.42 0 0 1-8.22 9.3Z" fill="#94948B"/><path d="M21.28 18.7c.25-.15.17-.4.17-.4-.08-.24-.17-.24-.33-.32h-.32c-.82 0-1.55.4-2.04.97.33.16.65.25 1.06.25a3.9 3.9 0 0 0 1.46-.5Z" fill="#94948B"/><path d="M36.84 42.53c-.34.23-.55.36-.64.4a1.1 1.1 0 0 1-.41.07.81.81 0 0 1-.57-.2.7.7 0 0 1-.22-.54c0-.14.04-.26.1-.36.1-.14.28-.27.52-.4.25-.12.65-.27 1.22-.45v-.11c0-.29-.05-.48-.16-.6-.1-.1-.25-.15-.45-.15a.56.56 0 0 0-.36.1c-.1.08-.14.16-.14.25v.18c0 .1-.02.17-.08.22a.3.3 0 0 1-.22.08.3.3 0 0 1-.22-.08.3.3 0 0 1-.08-.22c0-.18.1-.35.31-.5.22-.15.51-.22.9-.22.29 0 .53.04.72.13.14.06.24.16.3.3.05.09.07.27.07.55v.97c0 .27.01.44.02.5s.03.1.06.12c.03.02.06.03.1.03.04 0 .07 0 .1-.02.05-.02.15-.1.29-.23v.18c-.27.31-.53.47-.77.47a.38.38 0 0 1-.28-.1c-.07-.08-.1-.2-.11-.37Zm0-.2v-1.1c-.36.13-.6.22-.7.27-.2.1-.33.19-.41.29a.5.5 0 0 0-.12.33.5.5 0 0 0 .51.52c.18 0 .42-.1.72-.31ZM33.77 38.79c.19 0 .33.15.33.35 0 .2-.14.36-.33.36-.18 0-.33-.16-.33-.36 0-.2.15-.35.33-.35Zm.28 1.21v2.27c0 .2 0 .34.04.4.02.07.06.12.12.15.05.04.15.05.29.05V43h-1.45v-.13c.14 0 .24-.01.29-.04a.3.3 0 0 0 .12-.15c.03-.07.04-.2.04-.4v-1.25c0-.35 0-.26-.03-.36-.01-.08-.04-.13-.07-.16a.19.19 0 0 0-.13-.04.61.61 0 0 0-.22.05l-.05-.13.9-.39h.15ZM29.02 40.34l.88-.33H30v.62c.15-.23.3-.4.45-.49.15-.1.3-.14.47-.14.29 0 .53.1.72.31.23.26.35.59.35 1 0 .46-.14.84-.42 1.13-.24.25-.53.37-.88.37-.16 0-.3-.02-.4-.06a.95.95 0 0 1-.29-.17v.8c0 .19.02.3.04.35.02.05.07.09.12.12.06.03.17.04.33.04V44H29v-.1h.08a.6.6 0 0 0 .3-.07.2.2 0 0 0 .08-.1c.02-.05.04-.17.04-.36v-2.51c0-.17-.01-.28-.03-.33a.2.2 0 0 0-.08-.1.27.27 0 0 0-.15-.04.6.6 0 0 0-.19.04l-.03-.09Zm1 .46v1c0 .2 0 .35.02.42.03.1.1.2.21.3a.7.7 0 0 0 .44.12c.2 0 .37-.08.5-.23.17-.2.25-.47.25-.83 0-.4-.1-.72-.28-.93a.61.61 0 0 0-.48-.23c-.1 0-.2.02-.3.07-.07.03-.2.14-.37.31ZM26.94 40v.66c.22-.44.45-.66.69-.66.1 0 .2.04.26.1a.33.33 0 0 1 .03.46.24.24 0 0 1-.18.09c-.07 0-.14-.04-.23-.1-.08-.08-.15-.12-.19-.12-.03 0-.07.02-.11.06-.09.09-.18.23-.27.43v1.4c0 .16.01.28.05.37.03.05.07.1.14.14.06.04.15.06.27.06V43h-1.37v-.11c.14 0 .24-.03.3-.07a.27.27 0 0 0 .1-.17c.02-.03.02-.14.02-.3v-1.13c0-.34 0-.55-.02-.6a.23.23 0 0 0-.07-.15.18.18 0 0 0-.13-.05.54.54 0 0 0-.2.05l-.03-.11.81-.36h.13ZM23.37 41.15c0 .42.08.75.25.99.17.24.38.36.6.36.16 0 .3-.05.41-.15.12-.1.21-.28.29-.53l.08.06c-.04.28-.14.54-.31.77a.79.79 0 0 1-.66.35c-.28 0-.53-.13-.73-.4-.2-.26-.3-.62-.3-1.06 0-.49.1-.86.31-1.13.2-.27.47-.41.78-.41.27 0 .48.1.65.31.17.21.26.5.26.84h-1.63Zm0-.18h1.1l-.06-.38a.6.6 0 0 0-.2-.27.43.43 0 0 0-.26-.1c-.15 0-.27.07-.39.2a.95.95 0 0 0-.2.55ZM19.5 40h1.3v.12h-.08c-.08 0-.14.02-.18.06a.22.22 0 0 0-.06.16c0 .07.02.16.06.26l.65 1.61.65-1.67c.05-.12.07-.2.07-.27a.1.1 0 0 0-.02-.07.16.16 0 0 0-.09-.06.73.73 0 0 0-.2-.02V40h.9v.12c-.1 0-.18.03-.22.06a.82.82 0 0 0-.19.32L21.1 43h-.12l-1-2.46a.93.93 0 0 0-.12-.24.5.5 0 0 0-.16-.13.73.73 0 0 0-.2-.05V40ZM17.37 41.15c0 .42.08.75.25.99.17.24.38.36.6.36.16 0 .3-.05.41-.15.12-.1.21-.28.29-.53l.08.06c-.04.28-.14.54-.31.77a.79.79 0 0 1-.66.35c-.28 0-.53-.13-.73-.4-.2-.26-.3-.62-.3-1.06 0-.49.1-.86.31-1.13.2-.27.47-.41.78-.41.27 0 .48.1.65.31.17.21.26.5.26.84h-1.63Zm0-.18h1.1l-.06-.38a.6.6 0 0 0-.2-.27.43.43 0 0 0-.26-.1c-.15 0-.27.07-.39.2a.95.95 0 0 0-.2.55Z"/></svg>