<!-- by TradingView --><svg width="56" height="56" viewBox="0 0 56 56" xmlns="http://www.w3.org/2000/svg"><path fill="#F0F3FA" d="M0 0h56v56H0z"/><path d="M19 26v5h-1.29l-2.17-2.89h-.04V31H14v-5h1.3l2.15 2.88h.05V26H19ZM10 26l1.12 3.66h.04L12.3 26h1.35l-1.69 5h-1.61l-1.7-5H10ZM4 31v-5h4v1H5.5v1H8v1H5.5v1H8v1H4Z" fill="#291EA0"/><path d="m47 31 .96-5H52l-.2.98h-2.63l-.2 1.03h2.44l-.2.98h-2.43l-.19 1.03h2.64l-.2.98H47ZM47 27.83h-1.28c.01-.12 0-.23-.04-.33a.63.63 0 0 0-.15-.25.67.67 0 0 0-.26-.16 1.45 1.45 0 0 0-1.63.66c-.15.22-.25.5-.31.82-.05.3-.05.57 0 .78.06.2.16.36.32.46.15.1.34.16.58.16.15 0 .3-.02.42-.05.13-.04.25-.09.36-.15a1.12 1.12 0 0 0 .46-.55h1.28a2.56 2.56 0 0 1-1.62 1.62c-.3.1-.62.16-.97.16-.49 0-.9-.1-1.26-.3-.35-.2-.6-.5-.76-.88a2.53 2.53 0 0 1-.08-1.39 2.73 2.73 0 0 1 1.58-2.15 3.03 3.03 0 0 1 2.17-.16c.26.08.48.2.67.36.18.16.32.35.4.57.1.23.13.49.12.78ZM42 26l-.82 5h-1l-1.49-2.89h-.03L38.2 31H37l.82-5h1.02l1.47 2.88h.04L40.8 26H42ZM32.3 31H31l2.53-5h1.61l.86 5h-1.3l-.55-3.74h-.04L32.3 31Zm.16-2h2.72l-.15 1H32.3l.16-1ZM31 26l-.82 5h-1l-1.49-2.89h-.03L27.2 31H26l.82-5h1.02l1.47 2.88h.04L29.8 26H31ZM26 26l-.81 5H24l.81-5H26ZM20 31l.78-5H24l-.16.98h-2.07l-.16 1.03h1.87l-.15.98h-1.88L21.14 31H20Z" fill="#DA251C"/></svg>