<!-- by TradingView --><svg width="56" height="56" viewBox="0 0 56 56" xmlns="http://www.w3.org/2000/svg"><path fill="#F0F3FA" d="M0 0h56v56H0z"/><path d="m18.51 22.84-3.95 1.58 1.58-8.29L28 11l11.86 5.13 1.19 6.32L28 16.53l-9.1 3.94-.39 2.37Z" fill="url(#a)"/><path d="m17.33 30.34-4.35 1.98L11.4 41 28 33.5 45 41l-1.58-6.32L28 27.58 16.54 33.1l.79-2.77Z" fill="url(#b)"/><path d="m11.4 31.13-.4 1.58 17-7.1 14.63 6.31-.4-1.58L28 24.03l-16.6 7.1Z" fill="url(#c)"/><path d="m11.8 28.76-.4 1.58 16.6-7.1 13.84 6.31-.4-1.58L28 21.66l-16.2 7.1Z" fill="url(#d)"/><path d="m12.19 26.4-.4 1.57L28 20.87l13.44 6.31-.4-1.57L28 19.29l-15.81 7.1Z" fill="url(#e)"/><defs><linearGradient id="a" x1="14.56" y1="20.87" x2="40.26" y2="20.08" gradientUnits="userSpaceOnUse"><stop stop-color="#14528F"/><stop offset="1" stop-color="#1B8FCA"/></linearGradient><linearGradient id="b" x1="12.58" y1="37.05" x2="43.81" y2="37.84" gradientUnits="userSpaceOnUse"><stop stop-color="#144F8C"/><stop offset="1" stop-color="#1DA1DB"/></linearGradient><linearGradient id="c" x1="11" y1="32.32" x2="42.63" y2="31.13" gradientUnits="userSpaceOnUse"><stop stop-color="#F15E24"/><stop offset="1" stop-color="#FCB416"/></linearGradient><linearGradient id="d" x1="11" y1="29.16" x2="42.63" y2="27.97" gradientUnits="userSpaceOnUse"><stop stop-color="#F15E24"/><stop offset="1" stop-color="#FCB416"/></linearGradient><linearGradient id="e" x1="11" y1="26.79" x2="42.63" y2="25.6" gradientUnits="userSpaceOnUse"><stop stop-color="#F15E24"/><stop offset="1" stop-color="#FCB416"/></linearGradient></defs></svg>