<!-- by TradingView --><svg width="56" height="56" fill="none" xmlns="http://www.w3.org/2000/svg"><path fill="#F0F3FA" d="M0 0h56v56H0z"/><path d="M14.055 25.666 9.263 30.57c-.438 1.187 1.184 2.086 2.05 2.387l4.759-4.952-2.017-2.34Z" fill="url(#a)"/><path fill-rule="evenodd" clip-rule="evenodd" d="M18.998 29.679a6.5 6.5 0 1 1-1.013-3.668l-2.187 2.314A3.501 3.501 0 0 0 9 29.5a3.5 3.5 0 0 0 6.964.5c.252-.181.57-.321.933-.321h2.1Z" fill="url(#b)"/><path fill="#9A328F" d="M10.896 29.887h.699v.698h-.699z"/><path fill="#AE3491" d="M12.424 29.763h.651v.651h-.651z"/><path fill="#BC3493" d="M11.935 28.555h.74v.74h-.74z"/><path fill="#DD3B96" d="M13.534 26.832h.74v.74h-.74zM14.932 27.203h.74v.74h-.74z"/><path fill="#E73E97" d="M14.848 25.504h1.208v1.208h-1.208z"/><path fill="#CE3894" d="M13.369 28.185h.974v.974h-.974z"/><path fill="#82308D" d="M10.6 30.99h.484v.484H10.6z"/><path d="M28.515 34.41 33 23.626c-.222-.208-.882-.625-1.743-.625-1.394 0-2.238 1.112-2.485 1.667l-4.46 10.76c.154.19.749.573 1.897.573 1.148 0 2.016-1.06 2.306-1.59Z" fill="url(#c)"/><path d="M23.485 34.41 19 23.626c.222-.208.881-.625 1.743-.625 1.394 0 2.238 1.112 2.485 1.667l4.46 10.76c-.155.19-.324.573-1.772.573-1.449 0-2.141-1.06-2.431-1.59Z" fill="url(#d)"/><path d="M35.029 31.2 33 32.013l.008.014C33.47 32.862 35.207 36 39.51 36c3.463 0 5.434-2.13 5.987-3.195l-3.032-1.323c-.46.44-1.694 1.323-2.955 1.323-1.575 0-2.46-.896-3.106-1.323-.517-.343-1.132-.33-1.376-.282Z" fill="url(#e)"/><path d="M43.988 27.8 46 26.987l-.008-.014c-.458-.835-2.18-3.973-6.45-3.973-3.434 0-5.39 2.13-5.938 3.195l3.008 1.323c.456-.44 1.68-1.323 2.93-1.323 1.563 0 2.44.896 3.082 1.323.513.342 1.123.33 1.364.282Z" fill="url(#f)"/><path d="m43.917 29.555-10.089-3.86c-1.207 2.087.248 3.331 1.126 3.693l10.202 3.984c1.46-2.002-.218-3.38-1.239-3.817Z" fill="url(#g)"/><path d="M45 21.909c0 1.281.958 2.285 1.436 2.627-1.785-2.417 0-4.707 1.41-4.707 1.127 0 1.382.759 1.369 1.138 0 1.731-1.235 2.295-1.853 2.36-.022.141.067.422.604.422.672 0 1.96-.885 1.96-2.178 0-1.292-.497-2.571-2.08-2.571C46.262 19 45 20.307 45 21.909Z" fill="url(#h)"/><path d="M51 22.091c0-1.281-.958-2.285-1.436-2.627 1.785 2.417 0 4.707-1.41 4.707-1.127 0-1.382-.759-1.369-1.138 0-1.731 1.235-2.295 1.852-2.36.023-.141-.067-.422-.604-.422-.67 0-1.96.885-1.96 2.177 0 1.293.497 2.572 2.081 2.572S51 23.693 51 22.091Z" fill="url(#i)"/><defs><linearGradient id="a" x1="14.458" y1="27.569" x2="9.829" y2="31.635" gradientUnits="userSpaceOnUse"><stop stop-color="#D23B95"/><stop offset="1" stop-color="#532E83"/></linearGradient><linearGradient id="b" x1="15.362" y1="25.23" x2="8.523" y2="33.813" gradientUnits="userSpaceOnUse"><stop offset=".186" stop-color="#D23B95"/><stop offset="1" stop-color="#682F86"/></linearGradient><linearGradient id="c" x1="32.282" y1="23.886" x2="25.791" y2="35.414" gradientUnits="userSpaceOnUse"><stop stop-color="#4D2E83"/><stop offset=".497" stop-color="#C53994"/><stop offset="1" stop-color="#642F86"/></linearGradient><linearGradient id="d" x1="19.589" y1="23.599" x2="25.874" y2="35.341" gradientUnits="userSpaceOnUse"><stop stop-color="#AC3690"/><stop offset=".358" stop-color="#522F83"/><stop offset="1" stop-color="#D53A96"/></linearGradient><linearGradient id="e" x1="43.953" y1="32.813" x2="35.124" y2="32.813" gradientUnits="userSpaceOnUse"><stop stop-color="#632F85"/><stop offset="1" stop-color="#D53A96"/></linearGradient><linearGradient id="f" x1="35.136" y1="26.187" x2="43.893" y2="26.187" gradientUnits="userSpaceOnUse"><stop stop-color="#632F85"/><stop offset="1" stop-color="#D53A96"/></linearGradient><linearGradient id="g" x1="34.031" y1="27.072" x2="44.916" y2="32.641" gradientUnits="userSpaceOnUse"><stop stop-color="#D53A96"/><stop offset=".519" stop-color="#753188"/><stop offset="1" stop-color="#D53A96"/></linearGradient><linearGradient id="h" x1="47.463" y1="19" x2="47.463" y2="24.536" gradientUnits="userSpaceOnUse"><stop stop-color="#D33B95"/><stop offset=".871" stop-color="#743188"/></linearGradient><linearGradient id="i" x1="49.268" y1="23.946" x2="46.485" y2="21.207" gradientUnits="userSpaceOnUse"><stop stop-color="#BB3892"/><stop offset="1" stop-color="#5C2F84"/></linearGradient></defs></svg>