<!-- by TradingView --><svg width="56" height="56" viewBox="0 0 56 56" xmlns="http://www.w3.org/2000/svg"><path fill="#F0F3FA" d="M0 0h56v56H0z"/><path d="M11 23H4v11h3v-4h3v-3H7v-1h4v-3ZM19 23h-7v11h7v-3h-4v-1h4v-3h-4v-1h4v-3ZM27.6 30.08a2.57 2.57 0 0 1-4.54-1.58c0-1.38 1.15-2.5 2.56-2.5.8 0 1.52.37 1.99.94L30 25.06A5.65 5.65 0 0 0 25.62 23 5.56 5.56 0 0 0 20 28.5c0 3.04 2.51 5.5 5.62 5.5 1.75 0 3.31-.79 4.34-2.02l-2.37-1.9ZM46 34h-3V23h3l3 5.5V23h3v11h-3l-3-5v5ZM38.5 33.63a5.5 5.5 0 1 0-4 0V28.5l2-2.5 2 2.5v5.13Z" fill="#F0682E"/><path d="M35 30v-.5h3v.5h-3ZM35 31v-.5h3v.5h-3ZM35 32v-.5h3v.5h-3ZM35 33v-.5h3v.5h-3ZM35 34v-.5h3v.5h-3Z" fill="#F0682E"/></svg>