<!-- by TradingView --><svg width="56" height="56" viewBox="0 0 56 56" xmlns="http://www.w3.org/2000/svg"><path fill="#F0F3FA" d="M0 0h56v56H0z"/><path fill-rule="evenodd" d="M50 26h-3a1 1 0 0 0-1 1v3a1 1 0 0 0 1 1h3a1 1 0 0 0 1-1v-3a1 1 0 0 0-1-1Zm-3-1a2 2 0 0 0-2 2v3c0 1.1.9 2 2 2h3a2 2 0 0 0 2-2v-3a2 2 0 0 0-2-2h-3Z" fill="#0049B4"/><path d="M39 26h3a1 1 0 0 1 1 1v.5h1V27a2 2 0 0 0-2-2h-3a2 2 0 0 0-2 2v3c0 1.1.9 2 2 2h3a2 2 0 0 0 2-2v-1h-1v1a1 1 0 0 1-1 1h-3a1 1 0 0 1-1-1v-3a1 1 0 0 1 1-1ZM35 25h-6v7h6v-1h-5v-2h4v-1h-4v-2h5v-1ZM21 25h4.5c.25 0 .6.07.92.3.33.24.58.64.58 1.2v4c0 .25-.07.6-.3.92-.24.33-.64.58-1.2.58H21v-7Zm1 1v5h3.5c.24 0 .34-.09.4-.17.07-.1.1-.24.1-.33v-4c0-.24-.09-.34-.17-.4a.62.62 0 0 0-.33-.1H22ZM15 26h-3v-1h7v1h-3v5h3v1h-7v-1h3v-5ZM4 25h7v1H5v6H4v-7Zm3 3h4v1H8v3H7v-4Z" fill="#0049B4"/></svg>