<!-- by TradingView --><svg width="56" height="56" viewBox="0 0 56 56" xmlns="http://www.w3.org/2000/svg"><path fill="#F0F3FA" d="M0 0h56v56H0z"/><path d="M5 24a1 1 0 0 0-1 1v7a1 1 0 0 0 1 1h5a1 1 0 0 0 1-1v-7a1 1 0 0 0-1-1H5Zm0 1.5c0-.17.1-.5.5-.5H10v1H7v2h2v1H7v2.5c0 .17-.1.5-.5.5h-1c-.17 0-.5-.1-.5-.5v-6ZM21 24a1 1 0 0 0-1 1v7a1 1 0 0 0 1 1h5a1 1 0 0 0 1-1v-7a1 1 0 0 0-1-1h-5Zm0 1.5c0-.17.1-.5.5-.5h1c.17 0 .5.1.5.5V28h1v-2.5c0-.17.1-.5.5-.5h1c.17 0 .5.1.5.5v6c0 .17-.1.5-.5.5h-1c-.17 0-.5-.1-.5-.5V29h-1v2.5c0 .17-.1.5-.5.5h-1c-.17 0-.5-.1-.5-.5v-6Z" fill="#E81E25"/><path fill-rule="evenodd" d="M37 24a1 1 0 0 0-1 1v7a1 1 0 0 0 1 1h5a1 1 0 0 0 1-1v-7a1 1 0 0 0-1-1h-5Zm2.23 3c-.16-.38-.09-.64.22-.77a.12.12 0 0 1 .1 0c.13.05.22.12.27.2l.07.13c.3.5.57.98 1.27.84a.7.7 0 0 0 .6-.58c.14-.67-.1-1.18-.74-1.53a3.32 3.32 0 0 0-1.8-.28c-1.2.07-2.1.76-2.11 2.06 0 .5.18.97.54 1.38.14.16.43.35.86.57l.23.11c.56.27 1.37.65 1.06 1.22-.17.3-.52.22-.66-.04l-.35-.54c-.23-.35-.53-.52-.9-.5-.93.03-1.08 1.05-.7 1.72.52.9 1.78 1.07 2.77 1 .98-.09 1.78-.61 1.98-1.62.22-1.12-.14-1.93-1.09-2.44l-1.23-.62c-.21-.11-.34-.21-.39-.32Z" fill="#E81E25"/><path d="M13 24a1 1 0 0 0-1 1v7a1 1 0 0 0 1 1h5a1 1 0 0 0 1-1v-7a1 1 0 0 0-1-1h-5Zm1.63 6.9h-.02l-.02.03-.16.68c-.07.28-.16.37-.39.38a9.25 9.25 0 0 1-.98-.02.13.13 0 0 1-.04-.05.18.18 0 0 1-.01-.13l1.83-6.58a.31.31 0 0 1 .09-.15c.04-.04.1-.06.15-.06h.83c.06 0 .1.02.15.06a.3.3 0 0 1 .1.15l1.8 6.23c.12.38-.09.55-.38.56h-1.24a.18.18 0 0 1-.12-.06.26.26 0 0 1-.07-.13l-.18-.82c-.02-.07-.05-.1-.1-.1h-1.24Zm.26-1.2.35-1.42.01-.02.03-.01h.02l.02.04.33 1.42v.05l-.02.01h-.72l-.02-.02v-.04ZM29 24a1 1 0 0 0-1 1v7a1 1 0 0 0 1 1h5a1 1 0 0 0 1-1v-7a1 1 0 0 0-1-1h-5Zm1.63 6.9h-.02l-.02.03-.16.68c-.07.28-.16.37-.39.38a9.25 9.25 0 0 1-.98-.02.13.13 0 0 1-.04-.05.18.18 0 0 1-.01-.13l1.83-6.58a.31.31 0 0 1 .09-.15c.04-.04.1-.06.15-.06h.83c.06 0 .1.02.15.06a.3.3 0 0 1 .1.15l1.8 6.23c.12.38-.09.55-.38.56h-1.24a.18.18 0 0 1-.12-.06.26.26 0 0 1-.07-.13l-.18-.82c-.02-.07-.05-.1-.1-.1h-1.24Zm.26-1.2.35-1.42.01-.02.03-.01h.02l.02.04.33 1.42v.05l-.02.01h-.72l-.02-.02v-.04ZM45 24a1 1 0 0 0-1 1v7a1 1 0 0 0 1 1h5a1 1 0 0 0 1-1v-7a1 1 0 0 0-1-1h-5Zm1.63 6.9h-.02l-.02.03-.16.68c-.07.28-.16.37-.39.38a9.25 9.25 0 0 1-.98-.02.13.13 0 0 1-.04-.05.18.18 0 0 1-.01-.13l1.83-6.58a.31.31 0 0 1 .09-.15c.04-.04.1-.06.15-.06h.83c.06 0 .1.02.15.06a.3.3 0 0 1 .1.15l1.8 6.23c.12.38-.09.55-.38.56h-1.24a.18.18 0 0 1-.12-.06.26.26 0 0 1-.07-.13l-.18-.82c-.02-.07-.05-.1-.1-.1h-1.24Zm.26-1.2.35-1.42.01-.02.03-.01h.02l.02.04.33 1.42v.05l-.02.01h-.72l-.02-.02v-.04Z" fill="#E81E25"/></svg>