<!-- by TradingView --><svg width="56" height="56" viewBox="0 0 56 56" xmlns="http://www.w3.org/2000/svg"><path fill="#F0F3FA" d="M0 0h56v56H0z"/><path fill="#00388A" d="M17 26h4v9h-4zM7 25.38C7 22.96 8.82 21 11.06 21H15v4h-3a1 1 0 0 0-1 1v1h4v4h-4v4H7v-9.62Z"/><circle cx="19" cy="23" r="2" fill="#FF3733"/><path fill-rule="evenodd" d="M41.5 35c4.14 0 7.5-3.13 7.5-7s-3.36-7-7.5-7c-4.14 0-7.5 3.13-7.5 7s3.36 7 7.5 7Zm0-4c1.93 0 3.5-1.34 3.5-3s-1.57-3-3.5-3-3.5 1.34-3.5 3 1.57 3 3.5 3Z" fill="#00388A"/><path d="M34 22.4a7.83 7.83 0 0 0-4.5-1.4c-4.14 0-7.5 3.13-7.5 7s3.36 7 7.5 7c1.68 0 3.22-.51 4.47-1.37l-2.31-3.27c-.6.4-1.35.64-2.16.64-1.93 0-3.5-1.34-3.5-3s1.57-3 3.5-3c.83 0 1.59.25 2.19.66L34 22.39Z" fill="#00388A"/></svg>