<!-- by TradingView --><svg width="56" height="56" viewBox="0 0 56 56" xmlns="http://www.w3.org/2000/svg"><path fill="#F0F3FA" d="M0 0h56v56H0z"/><path d="M8.57 22H5l4.17 11h3.66L17 22h-3.57L11 28.41 8.57 22ZM46 22h3v11h-3zM17 22h3l4 5.85V22h3v11h-3l-4-5.85V33h-3V22Z" fill="#DE6B3F"/><path d="M36.45 34c-.5 0-.98-.03-1.45-.1v-.32l.42.01c3.01 0 4.76-1.72 5.35-4.1h3.83C43.5 32.1 40.26 34 36.45 34ZM44.77 29c.05-.17.1-.34.13-.52h-3.95l-.08.51h3.9ZM40.99 28h3.99l.02-.51h-4l-.01.5ZM41 27c-.17-3.13-1.98-5.6-5.58-5.6l-.42.02v-.33c.47-.06.96-.09 1.45-.09 4.5 0 8.19 2.64 8.52 6H41ZM28.54 27c.94-1.66 3-2.85 5.46-3v3h-5.46Zm-.25.51c-.06.16-.12.32-.16.49H34v-.49h-5.7Zm5.71 1h-5.97c-.02.16-.03.32-.03.49h6v-.49Zm0 1h-5.97c.32 2.4 2.83 4.3 5.97 4.49v-4.49ZM9 34h40l-.41 1H9.37L9 34Z" fill="#00A5E8"/></svg>