<!-- by TradingView --><svg width="56" height="56" viewBox="0 0 56 56" xmlns="http://www.w3.org/2000/svg"><path fill="#F0F3FA" d="M0 0h56v56H0z"/><path fill-rule="evenodd" d="m34.82 11.02-16.75 9.83a.13.13 0 0 0-.05.06.2.2 0 0 0-.02.09l.02.1.05.05 16.75 9.83.05.02.06-.02a.15.15 0 0 0 .05-.05c0-.01.02-.04.02-.1V11.17a.17.17 0 0 0-.02-.09.15.15 0 0 0-.05-.05.11.11 0 0 0-.06-.02l-.05.02Zm-17.76 8.11a2.18 2.18 0 0 0 0 3.74l16.75 9.84c1.42.83 3.19-.21 3.19-1.87V11.16c0-1.66-1.77-2.7-3.19-1.87l-16.75 9.84Z" fill="#67696A"/><path d="M34.93 37.38 22.2 30.02l-.07-.02c-.01 0-.04 0-.06.02a.15.15 0 0 0-.06.05l-.01.07v14.72l.01.07.06.05.06.02.07-.02 12.73-7.36c.04-.02.05-.04.05-.05l.02-.07c0-.03 0-.06-.02-.07 0-.01-.01-.03-.05-.05Zm1-1.73a2.14 2.14 0 0 1 0 3.7L23.2 46.7c-1.42.82-3.2-.2-3.2-1.85V30.14a2.13 2.13 0 0 1 3.2-1.85l12.73 7.36Z" fill="#67696A"/></svg>