<!-- by TradingView --><svg xmlns="http://www.w3.org/2000/svg" width="56" height="56" viewBox="0 0 56 56"><path fill="#F0F3FA" d="M0 0h56v56H0z"/><path fill-rule="evenodd" d="M11.62 31.91a5.53 5.53 0 0 1 0-7.82l12.47-12.47a5.53 5.53 0 0 1 7.82 0l12.47 12.47a5.53 5.53 0 0 1 0 7.82L31.91 44.38a5.53 5.53 0 0 1-7.82 0L11.62 31.91ZM42 28a14 14 0 1 1-28 0 14 14 0 0 1 28 0Zm-22.86 5H16v-.5h.72l1.82-9h-.67V23h6.75l-.76 2.41h-.41l-.6-1.91h-2.56l-.7 3.5h2.07l.62-1.03h.59L22.16 29h-.62l-.18-1H19.4l-.9 4.5h.64v.5Zm5.26 0H28v-.5h-.55l1.79-9H30V23h-3.62v.5h.7l-1.94 9h-.74v.5Zm7.65-10-.4 1.9.96.55.05-.8c.03-.58.51-1.2 1.1-1.2h1.4l-1.93 9.05h-.62v.5h3.09v-.5H35l1.86-9.04h.76c.6 0 1.1.65 1.1 1.26v.73h.63L40 23h-7.95Zm-1.8 10a.75.75 0 1 0 0-1.5.75.75 0 0 0 0 1.5ZM23 32.25a.75.75 0 1 1-1.5 0 .75.75 0 0 1 1.5 0Z" fill="red"/></svg>