<!-- by TradingView --><svg width="56" height="56" fill="none" xmlns="http://www.w3.org/2000/svg"><path fill="#F0F3FA" d="M0 0h56v56H0z"/><path fill-rule="evenodd" clip-rule="evenodd" d="M28 10 10 28l18 18 18-18-18-18Zm0 2.956-5.536 5.537A10.949 10.949 0 0 1 28 17c2.019 0 3.91.544 5.537 1.493L28 12.956ZM12.956 28l5.537-5.536A10.949 10.949 0 0 0 17 28c0 2.019.544 3.91 1.493 5.536L12.956 28ZM28 43.044l-5.536-5.537A10.949 10.949 0 0 0 28 39c2.019 0 3.91-.544 5.537-1.493L28 43.044ZM43.044 28l-5.537 5.537A10.95 10.95 0 0 0 39 28c0-2.019-.544-3.91-1.493-5.537L43.044 28ZM28 37a9 9 0 1 0 0-18 9 9 0 0 0 0 18Zm-5.347-6.603c-1.015 0-1.602-1.016-1.769-1.524-.234.624-.87 1.276-1.159 1.524.22.61 1.113 1.83 2.928 1.83s2.724-4.09 2.952-6.136c.114.009.224.015.331.02a1.126 1.126 0 0 0 1.996-.243c1.031-.377 1.273-1.096 1.223-1.545-.354.234-.844.405-1.35.527a1.126 1.126 0 0 0-1.998.265h-.202c.004-.337.034-1.192.122-1.915.106-.872.532-.502.637-.41l.01.008c.068.058.971.894 1.415 1.305-.009-.256-.003-.83.085-1.073.088-.244.41-.663.561-.842-.732-.264-1.395-.907-1.635-1.195h-.878l-1.183 1.28v3.11c-2.108 0-2.716 1.22-2.757 1.83 1.23-.702 2.35-.813 2.757-.78-.273 1.321-1.071 3.964-2.086 3.964Zm4.22-4.123a.791.791 0 1 0 0-1.583.791.791 0 0 0 0 1.583ZM26 27v2.967h1V27h-1Zm1.3 0v2.967h.7V27h-.7Zm.9 2.967V27h.154c.357 0 .646.364.646.814v2.153h-.8Zm1-2.967v2.967h.8v-2.153c0-.45-.29-.814-.646-.814H29.2Zm4.783 2.265.429.735h.895l-.877-1.5.877-1.5h-.895l-.43.735-.429-.735h-.895l.877 1.5-.572.98H31v-.683h1v-.555h-1v-.554h1.326v-.663h-2.068v2.968h2.404l-.004.007h.895l.43-.735ZM31 32.696v-1.39c0-.169.103-.305.23-.305h.486c.03 0 .06.008.087.022L34 32.25v-.945c0-.169.19-.305.317-.305h.453c.127 0 .23.136.23.305v1.39c0 .169-.103.305-.23.305h-.552a.182.182 0 0 1-.088-.023L32 31.782v.913c0 .169-.147.305-.274.305h-.496c-.127 0-.23-.136-.23-.305Zm-3.02.059c-.586-.618-1.451-1.52-1.508-1.544.119-.07.406-.21.602-.21.196 0 .434.22.529.329l1.014 1.03c.217-.228.71-.754.955-1.03.244-.277.48-.334.568-.329.389 0 .586.14.636.21l-1.534 1.557a.729.729 0 0 1-.518.233h-.212a.735.735 0 0 1-.532-.246Z" fill="#00ABF3"/></svg>