<!-- by TradingView --><svg xmlns="http://www.w3.org/2000/svg" width="56" height="56" viewBox="0 0 56 56"><path fill="#F0F3FA" d="M0 0h56v56H0z"/><path d="M10.82 24.66A6 6 0 0 1 16.67 20H23l-2.74 12.3a6 6 0 0 1-5.85 4.7H8l2.82-12.34z" fill="#1169B0"/><path d="M35.82 24.66A6 6 0 0 1 41.67 20H48l-2.74 12.3a6 6 0 0 1-5.85 4.7H33l2.82-12.34z" fill="#16B14B"/><path d="M24.3 20.63A6 6 0 0 1 30.12 16h6.37l-4.49 20.3a6 6 0 0 1-5.86 4.7H19.5l4.8-20.37z" fill="#F27227"/><path d="M37 24.02a2.6 2.6 0 0 0 2.51 1.96h.35c-.07.14-.12.29-.16.44L38 33a2.78 2.78 0 0 0 2.66-2.13l1.18-4.89L46 26c-.3-1.18-1.36-2-2.58-2l-6.42.02zM18.48 26c1.2 0 2.25-.83 2.52-2l-5.77-.03c-1.23-.01-2.3.83-2.6 2.03h.02l-.04.15L11 33a2.63 2.63 0 0 0 2.5-2.03l.45-1.97h2.64c1.18 0 2.2-.84 2.41-2h-4.3c-.1 0-.2 0-.28.02l.23-1.02h3.83zM27.18 24h-2L23 33a2.64 2.64 0 0 0 2.54-2.03L26 29h3.36a3.45 3.45 0 0 0 3.33-2.56A1.94 1.94 0 0 0 30.82 24h-3.64zm-.7 2.99l.08-.35.19-.65h3.3a.5.5 0 1 1 0 1h-3.57z" fill="#fff"/></svg>