<!-- by TradingView --><svg width="56" height="56" viewBox="0 0 56 56" xmlns="http://www.w3.org/2000/svg"><path fill="#89C342" d="M0 0h56v56H0z"/><path d="M38.2 15.24C36.56 11.58 32.6 9 28 9c-4.61 0-8.56 2.58-10.2 6.24a10 10 0 0 0-4.47 17.2 10.01 10.01 0 0 0 15.05 10.99A9.12 9.12 0 0 0 33.5 45c5.25 0 9.5-4.48 9.5-10 0-.89-.1-1.74-.31-2.56a10 10 0 0 0-4.49-17.2Z" fill="#00863C"/><circle cx="28" cy="28" r="16" fill="#fff"/><circle cx="18" cy="15" r="1" fill="#fff"/><circle cx="38" cy="15" r="1" fill="#fff"/><circle cx="43" cy="33" r="1" fill="#fff"/><circle cx="28" cy="44" r="1" fill="#fff"/><circle cx="13" cy="33" r="1" fill="#fff"/><path d="M28 15c-1.12 0-2.14.87-2.32 2a2.39 2.39 0 0 0-1.95 2.42c0 .26.04.51.11.75a2.5 2.5 0 0 0-.84 1.9c0 1.34 1.02 2.43 2.28 2.43.42 0 .8-.12 1.15-.34V26h3.14v-1.84c.34.22.73.34 1.15.34 1.26 0 2.28-1.1 2.28-2.44a2.5 2.5 0 0 0-.84-1.89c.07-.24.11-.49.11-.75 0-1.23-.85-2.24-1.95-2.41C30.14 15.87 29.12 15 28 15Z" fill="#00863C"/><path d="M15 31c0-.58.56-1 1.26-1h1.24v1H16v.5h.5v1.17H16V34h-1v-3Z" fill="#E62F25"/><path fill-rule="evenodd" d="M20 34a2 2 0 1 0 0-4 2 2 0 0 0 0 4Zm0-1a1 1 0 1 0 0-2 1 1 0 0 0 0 2ZM40 34a2 2 0 1 0 0-4 2 2 0 0 0 0 4Zm0-1a1 1 0 1 0 0-2 1 1 0 0 0 0 2Z" fill="#E62F25"/><path d="M24.67 30c.72 0 1.33.56 1.33 1.25 0 .43-.24.8-.6 1.03L26 34h-1.23l-.38-1.1v-1.16h.1c.18 0 .33-.14.33-.32s-.15-.42-.34-.42H24v3h-1v-4h1.67ZM27 30.94c0-.52.4-.94.9-.94H29v1h-.74a.26.26 0 1 0 0 .52H29v.96h-.74a.26.26 0 1 0 0 .52H29v1h-1.1c-.5 0-.9-.42-.9-.94v-2.12ZM37 32.2a2 2 0 1 1 0-.4h-1c-.1-.46-.52-.8-1-.8a1 1 0 1 0 0 2c.48 0 .9-.34 1-.8h1Z" fill="#E62F25"/><path d="M31.81 30H33l-.9 2 .9 2h-1.19l-.31-.69-.31.69H30l.9-2-.9-2h1.19l.31.69.31-.69Z" fill="#E62F25"/><path fill="#E42F28" fill-opacity=".6" d="M19 35h18v2H19z"/></svg>