<!-- by TradingView --><svg width="56" height="56" viewBox="0 0 56 56" xmlns="http://www.w3.org/2000/svg"><path fill="#B52D28" d="M0 0h56v56H0z"/><path d="M12 23c1.83-5.66 6.88-9.92 13-11v1.37A15.1 15.1 0 0 0 13.75 23H12ZM12 32c1.9 6.9 8.29 12 16 12 7.71 0 14.1-5.1 16-12h-1.63A14.9 14.9 0 0 1 28 43a14.9 14.9 0 0 1-14.37-11H12ZM42.25 23H44c-1.83-5.66-6.88-9.92-13-11v1.37A15.1 15.1 0 0 1 42.25 23Z" fill="#fff"/><path fill-rule="evenodd" d="m12 24-2.27 8h34.53l2.24-8H12Zm-1.08-1L8 33h37.08L48 23H10.92Z" fill="#fff"/><path fill="#fff" d="M27 12h2v11h-2zM27 33h2v5h-2z"/><path fill="#fff" d="M35 37v2H21v-2zM27 26l.21-1H32l-.21 1h-1.92l-1.03 5H27.8l1.04-5H27ZM39 25l-1.02 3.96c-.18.72-.5 1.25-.92 1.57-.42.31-1.01.47-1.78.47h-1.51c-.77 0-1.28-.16-1.54-.47-.26-.32-.3-.85-.11-1.57L33.13 25h1.27l-1.01 3.96c-.1.38-.09.65.04.8.13.16.37.24.73.24h1.25c.7 0 1.13-.35 1.3-1.04L37.74 25H39ZM26 25l-1.02 3.96c-.18.72-.5 1.25-.92 1.57-.42.31-1.01.47-1.78.47h-1.51c-.77 0-1.28-.16-1.54-.47-.26-.32-.3-.85-.11-1.57L20.13 25h1.27l-1.01 3.96c-.1.38-.09.65.04.8.13.16.37.24.73.24h1.25c.7 0 1.13-.35 1.3-1.04L24.73 25H26ZM14.21 31H13l1.46-6H19l-.25 1h-3.33l-.37 1.54H18l-.25 1H14.8L14.21 31ZM42.68 25c-.28.28-1.22 1.02-2.68 1.7v.8a9.94 9.94 0 0 0 2.26-1.04L40.96 31h1.32L44 25h-1.32Z"/></svg>