<!-- by TradingView --><svg width="56" height="56" viewBox="0 0 56 56" xmlns="http://www.w3.org/2000/svg"><path fill="#F0F3FA" d="M0 0h56v56H0z"/><path fill="url(#a)" d="M4 22h48v12H4z"/><path d="m43.19 25 1.3 2.2 1.33-2.2H47l-1.8 3 1.8 3h-1.2l-1.3-2.18L43.2 31H42l1.81-3L42 25h1.19ZM36 31v-6h4v1h-3v1.54h2.5v.91H37V30h3v1h-4ZM29 26v-1h5v1h-2v5h-1v-5h-2ZM23 31v-6h2.7c1.18 0 2.3.61 2.3 1.92 0 1.32-1.14 2.08-2.32 2.08h-1.99v-1h2.04c.64 0 1.27-.34 1.27-1.08s-.62-.92-1.28-.92H24v5h-1Zm3.38-2.72L28 31h-1.32l-1.6-2.72h1.3ZM9 31v-6h4v1h-3v1h2.73v1H10v3H9Z" fill="#fff"/><path fill-rule="evenodd" d="M18 31a3 3 0 1 0 0-6 3 3 0 0 0 0 6Zm0-1a2 2 0 1 0 0-4 2 2 0 0 0 0 4Z" fill="#fff"/><defs><linearGradient id="a" x1="28" y1="22" x2="28" y2="34" gradientUnits="userSpaceOnUse"><stop stop-color="#091B51"/><stop offset="1" stop-color="#2163A6"/></linearGradient></defs></svg>