<!-- by TradingView --><svg width="56" height="56" viewBox="0 0 56 56" xmlns="http://www.w3.org/2000/svg"><path fill="#F0F3FA" d="M0 0h56v56H0z"/><path d="M44 25v1.5h-3.5v1.25h3v1.4h-3v1.35H44V32h-5v-7h5ZM35.44 25H38v7h-1.5v-5.44L34.7 32h-1.4l-1.8-5.43V32H30v-7h2.56c.5 1.58 1.01 3.15 1.45 4.75.42-1.6.93-3.17 1.43-4.75ZM25.5 32a3.38 3.38 0 0 1-3.5-3.5c0-2.03 1.47-3.5 3.5-3.5 2.03 0 3.5 1.47 3.5 3.5 0 2.03-1.47 3.5-3.5 3.5Zm0-1.5c1.2 0 2-.9 2-2s-.8-2-2-2-2 .9-2 2 .8 2 2 2ZM19.5 27.5V25H21v7h-1.5v-3h-3v3H15v-7h1.5v2.5h3Z" fill="#D60022"/><path d="M9 29.36V28h3v4h-1.16l-.2-1.03C10.17 31.66 9.4 32 8.36 32 6.34 32 5 30.48 5 28.5 5 26.4 6.48 25 8.56 25c1.52 0 3.2.76 3.44 2.4h-1.7c-.2-.64-.88-.9-1.73-.9-1.23 0-2.07.87-2.07 2 0 1.17.9 2 2.15 2 .77 0 1.55-.33 1.67-1.14H9Z" fill="#436EB3"/><circle cx="13.5" cy="31.5" r=".5" fill="#436EB3"/><path d="m48.49 21-1.06.77v1.47h.45l.61-.44.6.44h.46v-1.47L48.5 21Z" fill="url(#a)"/><path d="m50.66 28 .47-1.25a5088 5088 0 0 1-.8-1.21l-.37.26-.27.72-.74-.01-.37.26.79 1.23h1.3Z" fill="url(#b)"/><path d="m46.4 28-.46-1.25.8-1.21.37.26.27.72.74-.01.37.26L47.7 28h-1.3Z" fill="url(#c)"/><path d="m45 23.79 1.04-.79 1.34.48-.15.45-.6.45.2.74-.15.45-1.34-.48-.34-1.3Z" fill="url(#d)"/><path d="M52 23.79 50.96 23l-1.34.48.15.45.6.45-.2.74.15.45 1.34-.48.34-1.3Z" fill="url(#e)"/><defs><linearGradient id="a" x1="48.49" y1="21" x2="48.49" y2="23.24" gradientUnits="userSpaceOnUse"><stop stop-color="#F1AA17"/><stop offset="1" stop-color="#FBD698"/></linearGradient><linearGradient id="b" x1="49.55" y1="26.18" x2="50.75" y2="27.98" gradientUnits="userSpaceOnUse"><stop stop-color="#FBD698"/><stop offset="1" stop-color="#F1AA17"/></linearGradient><linearGradient id="c" x1="47.52" y1="26.18" x2="46.32" y2="27.98" gradientUnits="userSpaceOnUse"><stop stop-color="#FBD698"/><stop offset="1" stop-color="#F1AA17"/></linearGradient><linearGradient id="d" x1="44.97" y1="23.82" x2="47.05" y2="24.31" gradientUnits="userSpaceOnUse"><stop stop-color="#F1AA17"/><stop offset="1" stop-color="#FBD698"/></linearGradient><linearGradient id="e" x1="52.03" y1="23.82" x2="49.95" y2="24.31" gradientUnits="userSpaceOnUse"><stop stop-color="#F1AA17"/><stop offset="1" stop-color="#FBD698"/></linearGradient></defs></svg>