<!-- by TradingView --><svg width="56" height="56" viewBox="0 0 56 56" xmlns="http://www.w3.org/2000/svg"><path fill="#F0F3FA" d="M0 0h56v56H0z"/><path d="M15 14.7V44h26V11l-12 3.35V11l-14 3.7Z" fill="#ED1D24"/><path d="M28 12.5v3.15l12-3.15V43H16V15.77l12-3.27Zm11.55.58-12 3.15V13.1l-11.1 3.02v26.44h23.1V13.08Z" fill="#FFF200"/><path d="m26.96 20.72.92-2.72.8 2.35 3.32-.69-2.7 1.99.95 2.35-2.37-1.06L25.36 25l1.01-2.77L24 21.4l2.96-.68Z" fill="#FFF200"/><path d="M18 25.42c0-1.4 2.59-2.87 3.88-3.42-2.65 1.96-3.13 2.77-3.13 3.29 0 .51.78 1.2 2.98 1.2s6.43-.71 8.27-1.07c-1.65.8-5.54 1.58-8.27 1.58C19 27 18 26.16 18 25.42ZM38 17.22c0 1.1-2.29 2.35-3.38 2.78 2.24-1.52 2.75-2.27 2.75-2.67 0-.4-.66-.93-2.51-.93-1.86 0-3.31.1-4.86.37 1.4-.62 2.56-.77 4.86-.77 2.3 0 3.14.65 3.14 1.22Z" fill="#fff"/><path d="M24.27 34.87c.98.36 1.73 1.23 1.73 2.28 0 1.93-2.19 2.85-3.89 2.85-2.13 0-4.07-1.27-4.11-3.5h3.19c.03.46.29.9.8.9.39 0 .73-.26.73-.65 0-.54-.66-.75-1.1-.75H21v-2h.6c.52 0 1.05-.32 1.05-.88 0-.34-.24-.62-.61-.62-.59 0-.8.58-.83 1.06h-2.94c.09-2.12 1.7-3.56 3.86-3.56 1.59 0 3.55.91 3.55 2.7 0 .9-.58 1.76-1.4 2.16Z" fill="#FFF200"/><path fill-rule="evenodd" d="M37 36.1c0-1.73-1.23-3.24-2.9-3.24l-.28.01L36.87 30H33l-3.33 3.78A4.9 4.9 0 0 0 29 36.2c0 2.36 1.92 3.81 4 3.81 2.12 0 4-1.51 4-3.9Zm-4 .9a1 1 0 1 0 0-2 1 1 0 0 0 0 2Z" fill="#FFF200"/></svg>