<!-- by TradingView --><svg width="56" height="56" viewBox="0 0 56 56" xmlns="http://www.w3.org/2000/svg"><path fill="#F0F3FA" d="M0 0h56v56H0z"/><path d="M36.18 28c5.06 0 7.99-3.4 8.82-5.1-.46-.18-2.32-1.2-6.1-3.72C34.18 16.03 29.75 13 27.74 13c-2 0-3.46.85-7.48 3.73-3.21 2.3-7.51 6.58-9.26 8.43l1.82.67a4.21 4.21 0 0 0 3.67-.62l5.93-4.24c1.96-1.4 5.02-1.98 7.24-1.11l1.34.52c-6.6.9-11.56 4.47-13 6.14C26.3 26.3 29.86 28 36.18 28Z" fill="#1389C9"/><path d="M19.82 28A9.95 9.95 0 0 0 11 33.1c.46.18 2.32 1.2 6.1 3.72C21.82 39.97 26.25 43 28.26 43c2 0 3.46-.85 7.48-3.73 3.21-2.3 7.51-6.58 9.26-8.43l-1.82-.67a4.21 4.21 0 0 0-3.67.62l-5.93 4.24c-1.96 1.4-5.02 1.98-7.24 1.11L25 35.62c6.6-.9 11.56-4.47 13-6.14C29.7 29.7 26.14 28 19.82 28Z" fill="#8CC540"/></svg>