<!-- by TradingView --><svg width="56" height="56" viewBox="0 0 56 56" xmlns="http://www.w3.org/2000/svg"><path fill="#F0F3FA" d="M0 0h56v56H0z"/><path d="M28.98 11.03a16.95 16.95 0 0 0-13.05 5l13.05-5ZM13.87 18.54c-.59.88-1.1 1.83-1.52 2.82l8.26-3.17c.6-1.13 1.35-2.17 2.22-3.08l-8.96 3.43ZM19.86 20.26l-8.22 3.09c-.22.79-.39 1.6-.5 2.42l8.09-3.03c.14-.86.36-1.69.63-2.48ZM19.03 24.54 11 27.55a17.2 17.2 0 0 0 .08 2.2l7.96-2.99a15.88 15.88 0 0 1-.02-2.22ZM19.27 28.4l-7.93 2.98c.14.7.32 1.37.54 2.03l7.92-2.98c-.22-.66-.4-1.34-.53-2.03ZM20.23 31.93l-7.77 2.98c.29.64.61 1.26.97 1.86l7.79-2.99c-.37-.59-.7-1.2-1-1.85ZM22.17 35.14l-7.82 3c.44.6.92 1.15 1.43 1.68l7.89-3.02a15.79 15.79 0 0 1-1.5-1.66ZM25.06 38l-7.96 3.04c.63.54 1.31 1.02 2.02 1.46l8.13-3.11c-.77-.4-1.5-.87-2.19-1.4ZM29.36 40.3 21 43.5c.98.45 2.02.8 3.09 1.05l8.98-3.44c-1.3-.12-2.54-.4-3.72-.8ZM39.45 40.4l-12 4.6H28c4.55 0 8.69-1.79 11.74-4.7l-.29.1Z" fill="#282F7E"/><path d="M23.94 14.8c-.86.91-1.6 1.95-2.2 3.08l13.6-5.28a16.5 16.5 0 0 0-2.97-1.08l-8.43 3.28Zm13.23-1.19-16.32 6.34c-.27.8-.48 1.62-.62 2.48l18.9-7.35a16.83 16.83 0 0 0-1.96-1.47Zm3.24 2.7-20.38 7.92a17.3 17.3 0 0 0 .02 2.22l21.75-8.44c-.43-.6-.9-1.17-1.4-1.7Zm2.28 3.07L20.27 28.1c.12.7.3 1.38.51 2.03l22.85-8.87c-.28-.64-.6-1.27-.94-1.87Zm1.5 3.38-22.83 8.86c.29.65.61 1.27.98 1.86L44.7 24.8c-.13-.7-.3-1.38-.51-2.04Zm.74 3.67-21.65 8.4c.45.6.94 1.15 1.47 1.67L45 28.64a17.42 17.42 0 0 0-.06-2.2Zm-.1 3.99-18.7 7.27c.67.52 1.4.99 2.15 1.4l16.03-6.23c.23-.8.4-1.6.52-2.44Zm-1.25 4.44L30.36 40c1.16.41 2.4.69 3.66.8L42 37.72c.61-.89 1.14-1.84 1.58-2.85Z" fill="#F58220"/></svg>