<!-- by TradingView --><svg width="56" height="56" viewBox="0 0 56 56" xmlns="http://www.w3.org/2000/svg"><path fill="#F0F3FA" d="M0 0h56v56H0z"/><path d="M26.75 18H12.7l-.12.41 10.41.34-10.65.52-.14.49 9.94.32-10.17.5-.16.52 9.48.31-9.7.47-.1.33 9.2.3-9.4.45-.12.41 9.03.3-9.24.44-.12.42 9 .3-9.21.44-.19.64 9.28.3-9.5.46-.1.4 9.23.3-9.45.45-.15.52 9.24.3-9.46.45-.08.3 8.81.29-9.02.43-.15.55 9.05.29-9.26.45-.16.54 8.7.28-8.9.43-.13.43 9.15.3-9.36.45-.15.53 8.9.29-9.1.44-.13.43 8.87.28-9.08.44-.15.55 8.86.29-9.07.43L7 38h15.62C26.75 38 31 27.91 31 23.68c0-3.38-2.84-5.2-4.25-5.68ZM21 33.86 25.18 22c3.7 0 .83 6.87-.55 9.81-1.1 2.35-2.88 2.35-3.63 2.05Z" fill="#009C4B"/><path fill-rule="evenodd" d="M26.02 18H49l-1.92 8H44.8l.84-4h-1.32l-3.36 12h1.44l-1.08 4H22l.22-.33 11.36-.6-10.5-.37.23-.33 10.6-.57-10-.35.17-.26 10.16-.54-9.59-.34.26-.41 9.88-.52-9.32-.34.23-.34 8.98-.48-8.48-.3.07-.49 9.08-.48-8.96-.32.08-.48 8.99-.47-8.88-.32.04-.22 9.5-.5-9.38-.34.07-.42 9.64-.52-9.52-.33.05-.3 9.8-.52-9.67-.35.08-.52 9.7-.52-9.57-.34.04-.3 9.86-.52-9.73-.34.04-.27 10.13-.54-10-.36.03-.18 10.53-.56-10.39-.37.05-.32-.03-.05 11.14-.59-11.83-.42L26.02 18Zm.72.29 13.02.46-11.97.64-1.05-1.1Z" fill="#009C4B"/></svg>