<!-- by TradingView --><svg width="56" height="56" viewBox="0 0 56 56" xmlns="http://www.w3.org/2000/svg"><path fill="#F0F3FA" d="M0 0h56v56H0z"/><path fill-rule="evenodd" d="M28 45a17 17 0 1 0 0-34 17 17 0 0 0 0 34Zm0-4a13 13 0 1 0 0-26 13 13 0 0 0 0 26Zm-12.14-6.25c.23.06.4.2.55.42.18.27.23.54.15.81-.07.27-.27.5-.58.7-.33.22-.64.3-.94.23a.95.95 0 0 1-.61-.44c-.21-.32-.26-.62-.14-.9a.81.81 0 0 1 .27-.37l.26.4a.64.64 0 0 0-.15.23c-.03.13 0 .26.09.4.09.15.22.23.4.23a1 1 0 0 0 .57-.19c.21-.13.35-.28.4-.44a.5.5 0 0 0-.06-.44c-.09-.14-.2-.21-.34-.23a.7.7 0 0 0-.29.04l-.25-.4c.23-.09.45-.11.67-.05Zm-.76-2.32c.1.31.1.57-.01.8-.13.28-.4.49-.78.62-.39.13-.72.12-1-.03-.21-.1-.38-.31-.48-.62-.1-.3-.1-.57.01-.78.12-.29.38-.5.78-.63.38-.13.71-.12 1 .03.22.1.38.3.48.61Zm-.72-.22a.93.93 0 0 0-.61.03.93.93 0 0 0-.5.34.54.54 0 0 0-.06.5c.06.17.17.29.34.35s.37.05.61-.03.41-.2.5-.35c.1-.15.12-.31.06-.49a.54.54 0 0 0-.34-.35Zm-.13-3.67.06.47-1.48 1.12 1.6-.2.05.43-2.25.29-.06-.5 1.46-1.09-1.57.2-.06-.43 2.25-.29Zm.12-2.56c.06.13.08.3.06.47a.96.96 0 0 1-.4.7 1.2 1.2 0 0 1-.9.18 1.26 1.26 0 0 1-.83-.4c-.2-.24-.27-.51-.23-.84.04-.29.14-.5.3-.66a.82.82 0 0 1 .59-.23l-.06.46a.44.44 0 0 0-.36.22.65.65 0 0 0-.08.25c-.02.18.03.34.15.47.12.13.32.22.6.25.27.04.47 0 .6-.11.14-.11.21-.25.23-.4a.56.56 0 0 0-.42-.64l-.07.52-.37-.05.12-.94 1.2.16-.03.3-.3.02c.1.1.17.2.2.27Zm-.82-4.93.38.14-.25.63 1.73.69-.17.44-1.74-.68-.25.63-.37-.15.67-1.7Zm1.7-2.8.8 1.4.7.46-.25.4-.71-.46-1.62-.1.3-.47 1.09.13-.59-.9.29-.46Zm4.27-1.28a.92.92 0 0 1-.34.6c-.24.21-.5.3-.78.27-.28-.04-.54-.2-.78-.47-.26-.3-.38-.6-.36-.9a.95.95 0 0 1 .35-.67c.29-.25.58-.34.88-.27.16.05.3.12.4.22l-.37.3a.64.64 0 0 0-.25-.1c-.13-.02-.25.03-.38.14a.47.47 0 0 0-.17.42 1 1 0 0 0 .27.55c.17.19.33.3.5.32a.5.5 0 0 0 .42-.11c.13-.11.19-.24.18-.38a.7.7 0 0 0-.08-.27l.35-.3c.13.2.19.42.16.65Zm2.18-1.09c-.29.15-.55.18-.78.1-.3-.08-.55-.3-.73-.67-.2-.37-.23-.7-.12-.99.07-.23.25-.42.54-.57.29-.15.55-.18.78-.1.3.08.54.3.73.67.19.36.23.7.12.99-.07.23-.25.42-.54.57Zm.12-.74a.93.93 0 0 0-.12-.6.93.93 0 0 0-.42-.45.54.54 0 0 0-.49.02.55.55 0 0 0-.3.38c-.04.18 0 .38.12.6.11.23.25.38.42.45.16.08.32.07.49-.02a.54.54 0 0 0 .3-.38Zm3.5-1.42-.48.08.14.8-.46.09-.4-2.23.97-.17a.8.8 0 0 1 .57.07c.15.1.25.26.3.5.04.26 0 .46-.1.6a.9.9 0 0 1-.55.26Zm.13-.5c.05-.07.06-.16.04-.27-.02-.12-.06-.2-.13-.24a.4.4 0 0 0-.27-.02l-.44.07.12.66.43-.08c.11-.02.2-.06.25-.12Zm3.21 1.08.03-1.01-.89-.03-.02 1.01h-.47l.05-2.27.47.01-.02.86.89.03.02-.87.47.02-.06 2.26-.47-.01Zm3.05 0-.82-.2-.25.43-.49-.11 1.3-2.03.52.12.28 2.39-.5-.12-.04-.48Zm-.04-.41-.08-.93-.48.8.56.13Zm3.17 2.2-.42-.22-.1-1.85-.73 1.43-.39-.2 1.04-2.02.44.23.08 1.81.72-1.4.4.2-1.04 2.01Zm3.01 2.06a.92.92 0 0 1-.64-.25.97.97 0 0 1-.37-.74c0-.28.11-.56.35-.83.26-.3.54-.46.84-.49.26-.02.5.07.72.25.28.25.41.53.38.83a.81.81 0 0 1-.16.43l-.35-.31c.04-.1.07-.2.07-.27 0-.13-.07-.25-.2-.36a.48.48 0 0 0-.44-.1 1 1 0 0 0-.5.34c-.17.2-.25.37-.25.53 0 .17.05.3.17.4.13.12.26.16.4.13a.7.7 0 0 0 .26-.12l.36.31c-.2.16-.4.24-.64.25Zm1.98 1.99-.48-.68-.48.14-.28-.4 2.31-.65.32.43-1.39 1.97-.3-.42.3-.4Zm.24-.33.56-.75-.9.28.34.47Zm1.36 2.59-.2-.44-.74.33-.2-.42 2.07-.94.41.9c.1.2.12.4.07.57-.06.17-.2.3-.42.4-.24.12-.44.13-.6.06a.9.9 0 0 1-.39-.46Zm.52 0c.08.04.17.03.28-.02.1-.05.17-.11.19-.19a.4.4 0 0 0-.04-.26l-.18-.4-.61.27.18.4c.05.1.1.17.18.2Zm-.23 4.7-.06-.46 1.49-1.12-1.6.2-.06-.44 2.25-.28.06.5-1.45 1.08 1.57-.2.05.44-2.25.29Zm.79 2.58 1.39.1-.04.48-1.39-.1a1.17 1.17 0 0 1-.55-.16c-.24-.15-.34-.43-.3-.82.02-.39.16-.65.42-.77.14-.06.33-.08.57-.07l1.39.11-.04.48-1.39-.1a.79.79 0 0 0-.34.02c-.13.05-.2.17-.22.36-.01.2.04.32.16.39.07.04.18.07.34.08Zm-1.52 2.5c.1-.3.27-.5.5-.61.27-.15.6-.16.99-.03.4.13.65.34.77.63.12.21.12.48.02.78-.1.3-.27.52-.5.62-.26.15-.6.16-.99.03-.38-.13-.64-.34-.77-.63-.12-.22-.12-.48-.02-.78Zm.44.62c.1.15.26.27.5.35.24.08.45.09.62.03a.54.54 0 0 0 .34-.36.55.55 0 0 0-.06-.49.92.92 0 0 0-.5-.34.92.92 0 0 0-.62-.03.55.55 0 0 0-.34.35.54.54 0 0 0 .06.5Zm-1.85 2.88a.92.92 0 0 1 .12-.67.98.98 0 0 1 .66-.51c.27-.06.57 0 .89.19.34.2.55.44.63.73.07.25.03.5-.1.75-.2.33-.45.5-.75.53a.82.82 0 0 1-.45-.07l.24-.41c.11.03.2.03.27.02.13-.03.24-.11.32-.26.09-.15.1-.3.02-.46a1 1 0 0 0-.43-.42c-.22-.13-.41-.18-.58-.15a.5.5 0 0 0-.36.26c-.08.14-.1.28-.05.4a.7.7 0 0 0 .17.24l-.23.4c-.2-.15-.32-.34-.37-.57Zm-20.66 5.56c.14.1.3.16.44.17.08.01.2 0 .33-.04l-.12.26.25.18.7-.99-.76-.54-.22.3.43.3a.56.56 0 0 1-.76.07.62.62 0 0 1-.26-.39c-.03-.16.03-.36.2-.59.15-.22.32-.36.5-.4a.57.57 0 0 1 .48.1c.08.05.14.11.19.18.07.13.08.27.02.42l.38.27c.1-.2.13-.4.07-.62-.05-.22-.2-.41-.43-.58-.27-.2-.56-.26-.85-.2-.3.07-.55.25-.76.55-.21.3-.3.58-.25.87.03.28.17.5.42.68Zm3.78-.58-.43-.2-.92 2.07.43.2.92-2.07Zm1.26 2.33.82.19.03.48.5.12-.26-2.39-.52-.12-1.3 2.02.48.12.25-.42Zm.7-1.15.08.93-.56-.13.48-.8ZM27.62 44l.98-.03c.34-.01.6-.16.75-.45a1.74 1.74 0 0 0 .1-1.14 1 1 0 0 0-.18-.36.75.75 0 0 0-.4-.28 1.2 1.2 0 0 0-.35-.03l-.97.03.07 2.26Zm.84-1.9c.21 0 .36.05.44.17.07.12.11.3.12.53 0 .17-.01.31-.06.43-.08.23-.23.34-.45.35l-.44.01-.05-1.47.44-.02Zm2.6-.73-.46.11.51 2.2.46-.1-.51-2.2Zm3.43 1.26.44-.17-.82-2.1-.41.15.57 1.47-1.41-1.15-.47.18.82 2.11.41-.16-.58-1.5 1.45 1.17Zm2.45-2.6.6.83.38-.28-1.33-1.83-.38.27.5.7-.72.52-.5-.7-.38.27 1.32 1.84.38-.28-.59-.82.72-.51Zm-19.38-1.45a.7.7 0 1 1-1.39 0 .7.7 0 0 1 1.39 0Zm21.2.7a.7.7 0 1 0 0-1.4.7.7 0 0 0 0 1.4Z" fill="#223F9B"/><path d="m16 28 11 12V29h-5v2h3v4l-6-7 6-7v6h2V16L16 28Zm24 0L29 16v11h5v-2h-3v-4l6 7-6 7v-6h-2v11l11-12Z" fill="#223F9B"/><path d="M28.02 27.01c.58.16 1.9.46 2.85.46.97 0 1.7-.25 1.92-.36l.21.48c-.3.15-1.1.41-2.13.41-.95 0-2.23-.28-2.87-.45-.64.17-1.92.45-2.87.45a5.26 5.26 0 0 1-2.13-.41l.21-.48c.23.11.95.36 1.92.36.94 0 2.27-.3 2.85-.46V27a3.83 3.83 0 0 0 .04 0v.01Z" fill="#223F9B"/><path d="M28.02 28.01c.58.16 1.9.46 2.85.46.97 0 1.7-.25 1.92-.36l.21.48c-.3.15-1.1.41-2.13.41-.95 0-2.23-.28-2.87-.45-.64.17-1.92.45-2.87.45a5.26 5.26 0 0 1-2.13-.41l.21-.48c.23.11.95.36 1.92.36.94 0 2.27-.3 2.85-.46V28a3.83 3.83 0 0 0 .04 0v.01Z" fill="#223F9B"/></svg>