<!-- by TradingView --><svg width="56" height="56" viewBox="0 0 56 56" xmlns="http://www.w3.org/2000/svg"><path fill="#F0F3FA" d="M0 0h56v56H0z"/><path fill="#E83752" d="M17 22h2v12h-2zM33 22h2v12h-2zM38 22h3.25L51 34h-3.25L38 22Z"/><path d="M51 22h-3.25L38 34h3.25L51 22ZM26 22v2h-9v-2zM23 27v2h-6v-2z" fill="#E83752"/><path fill="#E83752" d="M25 22h2v12h-2zM40 22v2h-7v-2z"/><path fill="#E83752" d="M40 32v2H18v-2zM40 27v2h-7v-2z"/><path d="M28 22h4l-4 8v-8Z" fill="#B2B4B6"/><path d="M11 34a6 6 0 0 0 5.92-7H10v2h4.87a4 4 0 1 1-.65-3.37l1.43-1.43A5.99 5.99 0 0 0 5 28a6 6 0 0 0 6 6Z" fill="#E83752"/></svg>