<!-- by TradingView --><svg width="56" height="56" fill="none" xmlns="http://www.w3.org/2000/svg"><path fill="#F0F3FA" d="M0 0h56v56H0z"/><path fill-rule="evenodd" clip-rule="evenodd" d="M28 44c8.837 0 16-7.163 16-16s-7.163-16-16-16-16 7.163-16 16 7.163 16 16 16Zm0 1c9.389 0 17-7.611 17-17s-7.611-17-17-17-17 7.611-17 17 7.611 17 17 17Z" fill="#EE1C25"/><path d="M41.731 34.01c-3.03-3.928-6.914-3.94-8.425-3.49l-.228.069-.17-.167c-.907-.894-3.465-2.686-6.351-2.686-1.425 0-2.811.5-3.977 1.145-1.165.643-2.081 1.414-2.56 1.916l-.119.125h-2.904c-.766 0-1.493.31-2.105.722-.5.338-.903.732-1.16 1.037C15.698 38.673 21.336 43 27.984 43c6.146 0 11.428-3.697 13.746-8.99Z" fill="#011049"/><path fill-rule="evenodd" clip-rule="evenodd" d="M20.075 30.74c3.44 1.87 11.026 5.218 16.656 5.101 2.27-.047 3.82-.87 4.856-2.014-3.008-3.746-6.794-3.75-8.28-3.306l-.229.068-.17-.167c-.907-.894-3.465-2.686-6.351-2.686-1.425 0-2.811.5-3.977 1.145-1.122.62-2.014 1.358-2.505 1.86Z" fill="#025"/><path fill-rule="evenodd" clip-rule="evenodd" d="M33.044 30.556c-3.884 1.829-9.756 4.026-14.335 3.93-2.247-.046-3.788-.854-4.824-1.979a5.91 5.91 0 0 1 1.007-.863c.612-.413 1.339-.722 2.105-.722H19.9l.12-.125c.478-.502 1.394-1.273 2.559-1.916 1.166-.644 2.551-1.145 3.977-1.145 2.886 0 5.444 1.792 6.351 2.686l.136.134Z" fill="#00376D"/><path fill-rule="evenodd" clip-rule="evenodd" d="m33.044 30.556-.136-.134c-.907-.894-3.465-2.686-6.351-2.686-1.426 0-2.811.5-3.977 1.145-1.122.62-2.014 1.358-2.505 1.86a52.618 52.618 0 0 0 5.678 2.616c2.662-.778 5.25-1.84 7.291-2.801Z" fill="#145887"/><path fill-rule="evenodd" clip-rule="evenodd" d="M33.59 30.448c1.672-.364 5.285-.14 8.141 3.563a14.6 14.6 0 0 1-.13.288c-.732.057-1.706-.03-2.955-.402-2.533-.755-4.275-2.423-5.055-3.449Zm-19.785 2.148a5.883 5.883 0 0 1 1.087-.952c.612-.412 1.339-.722 2.105-.722h2.175c-.631.647-1.75 1.487-3.198 1.756-1.002.187-1.705.096-2.169-.082Z" fill="url(#a)"/><path fill-rule="evenodd" clip-rule="evenodd" d="M43 28.005c0 1.812-.321 3.55-.91 5.158-1.958-2.354-4.225-3.295-6.09-3.555v-7.896l4.227 2.074-4.168-2.955.535-4.76-1.314 4.76-5.346.881 5.29-.188-.434 8.004a6.581 6.581 0 0 0-1.471.17c-1.108-1.012-3.735-2.757-6.748-2.757-1.607 0-3.129.561-4.366 1.244-1.149.635-2.077 1.388-2.631 1.94H17.01c-.98 0-1.864.395-2.555.861a6.718 6.718 0 0 0-.975.805A15.038 15.038 0 0 1 13 28.005C13 19.718 19.716 13 28 13c8.284 0 15 6.718 15 15.005Z" fill="#EE1C25"/><path fill-rule="evenodd" clip-rule="evenodd" d="m23.643 15.19 8.218-2.145 3.97 1.495-12.112 1.081c.04.294.064.615.051.954 5.565.537 16.232 1.543 16.453 1.47.224-.076 1.526 2.864 2.149 4.344l-18.718-4.931c-.06.25-.142.505-.255.76l20.234 9.823-.514 4.859-20.082-14.03a4.8 4.8 0 0 1-.664.783L40.27 37.758l-2.85 2.944-15.628-20.565c-.275.199-.551.356-.826.48l10.427 22.42-4.017.608-7.093-22.79c-.29.073-.576.113-.854.125l2.294 21.17-1.681-.748-2.383-1.775.99-18.681a5.167 5.167 0 0 1-.787-.166l-3.917 14.31-.816-2.828-.353-2.012 4.173-9.822c-.639-.307-1.08-.652-1.21-.78 1.097-1.478 4.15-4.666 7.585-5.601 0 .031.027.113.068.237.066.202.168.516.25.905Z" fill="#E7EAF2" fill-opacity=".3"/><defs><linearGradient id="a" x1="16.586" y1="32.319" x2="40.839" y2="32.319" gradientUnits="userSpaceOnUse"><stop stop-color="#1F78B0"/><stop offset="1" stop-color="#225082"/></linearGradient></defs></svg>