<!-- by TradingView --><svg width="56" height="56" viewBox="0 0 56 56" xmlns="http://www.w3.org/2000/svg"><path fill="#F0F3FA" d="M0 0h56v56H0z"/><path d="M41.8 28 39 31h-4v-2h4v-2h-4v-2h4l2.8 3ZM24 31h-4v-2h3v-2h-3v-2h4v6Zm26-9h-3.27l-3.34 4.08L40.04 22H32v9h-5v-9H17v5h-7v2h4.5a3.36 3.36 0 0 1-3.29 2.4c-2.1 0-3.27-1.36-3.21-3.4.05-1.91 1.3-3.5 3.21-3.5a4.99 4.99 0 0 1 3.3 1.38l1.87-1.77C15.13 23.05 13.7 22 11.2 22a6.13 6.13 0 0 0-6.2 6c-.1 2.63 1.58 6 6.2 6A5.84 5.84 0 0 0 17 29.83V34h23.24l3.23-3.77L46.55 34H50l-4.75-6.05L50 22Z" fill="#E3405C"/><path d="M31.46 22H28v8l3.46-8Z" fill="#BBBDBF"/></svg>