<!-- by TradingView --><svg width="56" height="56" viewBox="0 0 56 56" xmlns="http://www.w3.org/2000/svg"><path fill="#0071B7" d="M0 0h56v56H0z"/><circle cx="28" cy="28" r="17" fill="#1D1917"/><path fill-rule="evenodd" d="M28 44a16 16 0 1 0 0-32 16 16 0 0 0 0 32Zm0-.72a15.28 15.28 0 1 0 0-30.56 15.28 15.28 0 0 0 0 30.56Z" fill="#fff"/><circle cx="28" cy="28" r="10" fill="#fff"/><path d="M25.04 36.56c-1-.65-2.4-2.02-2.4-3.97 0-2.85 2.38-4.52 4.76-4.52h.13A4.54 4.54 0 0 0 32 23.46a4.61 4.61 0 0 0-2.99-4.36 8.5 8.5 0 0 0-1.3-.1C22.9 19 19 23.03 19 28c0 4 2.54 7.4 6.04 8.56Z" fill="#0071B7"/><path d="M37.47 20.73c-.18.12-.4.21-.65.27a1.85 1.85 0 0 1-1.68-.5c-.3-.28-.5-.59-.6-.93-.1-.34-.1-.7.01-1.07.12-.38.36-.75.7-1.13.36-.38.72-.63 1.09-.77a1.8 1.8 0 0 1 1.07-.09c.35.09.67.27.97.55.27.26.45.53.54.8.08.29.1.55.05.8-.04.24-.12.45-.24.64l-.86-.38c.06-.1.11-.2.14-.33a.86.86 0 0 0-.28-.85.92.92 0 0 0-1.11-.15c-.2.1-.41.26-.62.48-.2.22-.35.43-.44.64-.08.22-.1.42-.07.6.04.2.14.36.3.51.21.2.43.29.64.26.2-.02.4-.1.6-.21l.44.86ZM29.17 13.78 28.41 17h-.9l-.74-3.22V17H26v-4h1.34l.66 2.92.66-2.92H30v4h-.83v-3.22ZM19.46 19l-.6-.65 1.39-1.27 1.33 1.45v.32a2.41 2.41 0 0 1-.8 1.46c-.32.28-.65.46-1 .54-.34.07-.7.04-1.04-.1-.35-.15-.7-.4-1.02-.75a2.77 2.77 0 0 1-.64-1.08c-.1-.37-.1-.72 0-1.06.11-.34.32-.65.63-.94.28-.26.55-.42.81-.5.26-.08.49-.1.67-.07.18.03.32.07.43.13l-.31.9a.83.83 0 0 0-.46-.07.93.93 0 0 0-.54.27 1 1 0 0 0-.3.47c-.05.18-.04.38.03.6.07.2.21.43.43.67.32.35.63.54.92.58.29.03.56-.06.8-.28.13-.12.23-.23.3-.34.05-.1.1-.2.1-.27.02-.07.03-.1.02-.11l-.47-.52-.68.63Z" fill="#fff"/></svg>