<!-- by TradingView --><svg width="56" height="56" viewBox="0 0 56 56" xmlns="http://www.w3.org/2000/svg"><path fill="#F0F3FA" d="M0 0h56v56H0z"/><path fill-rule="evenodd" d="M27.76 30H43v10.64c0 1.3-1.1 2.36-2.46 2.36H15.46A2.41 2.41 0 0 1 13 40.64V20h7.13c.67 0 1.27.36 1.57.93l4.5 8.14c.3.57.9.93 1.56.93ZM26 34h-2v8h2v-3h4v3h2v-8h-2v3h-4v-3Zm8 1.62c0-.9.8-1.62 1.79-1.62h4.42c.99 0 1.79.72 1.79 1.62v1.32l-2 .4V36h-4v4h4v-1.42l2 .4v1.4c0 .9-.8 1.62-1.79 1.62H35.8c-.99 0-1.79-.72-1.79-1.62v-4.76ZM15.67 34c-.92 0-1.67.72-1.67 1.62v4.76c0 .9.75 1.62 1.67 1.62h4.68c.92 0 1.65-.72 1.65-1.62V37h-4v2h2v1h-4v-4h4v.54h2v-.92c0-.9-.73-1.62-1.65-1.62h-4.68Z" fill="#00AAE7"/><path d="M21.26 19H13v-1h8.26c.74 0 1.42.37 1.78.96l5.12 8.66c.14.24.4.38.7.38H43v1H28.86c-.74 0-1.43-.37-1.78-.96l-5.13-8.66a.81.81 0 0 0-.7-.38Z" fill="#B3DEF8"/><path d="M22.47 17H13v-1h9.47c.75 0 1.43.37 1.79.96l5.12 8.66c.14.24.4.38.7.38H43v1H30.08c-.74 0-1.43-.37-1.78-.96l-5.13-8.66a.81.81 0 0 0-.7-.38Z" fill="#B3DEF8"/><path d="M13 15v-.02c0-.93.8-1.98 1.78-1.98h26.44c.99 0 1.78.75 1.78 1.68V25H30.95c-.61 0-1.17-.32-1.46-.84l-4.71-8.32a1.66 1.66 0 0 0-1.46-.84H13Zm23 7a3 3 0 1 0 0-6 3 3 0 0 0 0 6Z" fill="#B3DEF8"/></svg>