<!-- by TradingView --><svg width="56" height="56" viewBox="0 0 56 56" xmlns="http://www.w3.org/2000/svg"><path fill="#F0F3FA" d="M0 0h56v56H0z"/><path d="M28 44h-2.3l.7.7L28 44Z" fill="#018F41"/><path d="M28 44h2.3l-.7.7L28 44Z" fill="#9EC62C"/><path d="m25.7 44-.7.7h1.4l-.7-.7Z" fill="#007C38"/><path d="m30.3 44-.7.7H31l-.7-.7Z" fill="#BAD02D"/><path d="m28 44-1.6.7h3.2L28 44Z" fill="#40AC36"/><path d="m25 44.7 3 2.3-1.5-2.3H25Z" fill="#00662E"/><path d="M31 44.7 28 47l1.5-2.3H31Z" fill="#40AC36"/><path d="M29.5 44.7h-3L28 47l1.5-2.3Z" fill="#008E40"/><path d="m12 18.9 8-4.9v5.1l-4 2.45V34.4l5 2.98v-8.58l-2-1.1V23l6 3.32V45l-13-7.76V18.9Z" fill="#004594"/><path d="M44 18.73 36 14v5.27l4 2.37V24h4v-5.27Zm0 18.51L31 45V17l4 2.56v17.81l5-2.98V32h4v5.24Z" fill="#40AC36"/><path d="M21 13.29 28 9l7 4.29v5.15l-5-3.02V43h-4V15.42l-5 3.02V13.3Z" fill="#00853C"/></svg>