<!-- by TradingView --><svg width="56" height="56" fill="none" xmlns="http://www.w3.org/2000/svg"><path fill="#F0F3FA" d="M0 0h56v56H0z"/><path fill-rule="evenodd" clip-rule="evenodd" d="M47.968 32.151C45.082 36.733 37.556 40 28.728 40 17.405 40 8 34.627 8 28s9.406-12 20.727-12c6.981 0 13.147 2.043 16.85 5.162H41.27C38.077 19.216 33.537 18 28.5 18 18.835 18 11 22.477 11 28s7.835 10 17.5 10c7.176 0 13.343-2.468 16.044-6H25.482L23 29h10.352v-3H34v3h.671v-3h.635v2.527h1.498V29h.561v-3H38v3h.59v-3h.827l.918 2.238.916-2.238H42v3h.726v-3h2.221v.477H43.36v.77h1.36v.422h-1.36v.858h1.593V29h.189l1.022-1.511L45.168 26h.732l.671 1.082.674-1.082h.73l-.997 1.489L48 29v3h-.032v.151ZM47.264 29l-.693-1.1-.69 1.1h1.383Zm-5.819 0v-2.14l-.89 2.14h.89Zm-1.331 0-.889-2.139V29h.889Zm-8.671 0c.246 0 .453-.023.623-.068.169-.047.306-.102.41-.166.107-.065.184-.124.234-.179v-1.136h-1.302v.403h.667v.547a.54.54 0 0 1-.11.074.806.806 0 0 1-.192.066 1.41 1.41 0 0 1-.298.026.96.96 0 0 1-.356-.062.69.69 0 0 1-.26-.186.863.863 0 0 1-.16-.305 1.435 1.435 0 0 1-.055-.417v-.196c0-.155.016-.293.048-.413a.854.854 0 0 1 .148-.303.63.63 0 0 1 .24-.186.8.8 0 0 1 .33-.064.84.84 0 0 1 .36.066.5.5 0 0 1 .217.18c.051.076.085.165.102.267h.618a1.096 1.096 0 0 0-.184-.49.98.98 0 0 0-.425-.336c-.183-.081-.417-.122-.702-.122-.212 0-.404.031-.577.094a1.23 1.23 0 0 0-.44.275c-.122.12-.216.267-.282.44a1.7 1.7 0 0 0-.097.596v.192c0 .223.035.422.104.595a1.213 1.213 0 0 0 .752.716c.177.061.373.092.586.092Z" fill="#1D44AD"/></svg>