<!-- by TradingView --><svg width="56" height="56" viewBox="0 0 56 56" xmlns="http://www.w3.org/2000/svg"><path fill="#F0F3FA" d="M0 0h56v56H0z"/><path fill-rule="evenodd" d="M15.26 12A3.26 3.26 0 0 0 12 15.26v25.48c0 1.8 1.46 3.26 3.26 3.26h25.48c1.8 0 3.26-1.46 3.26-3.26V15.26c0-1.8-1.46-3.26-3.26-3.26H15.26Zm-.13 1c-1.18 0-2.13.95-2.13 2.13v25.74c0 1.18.95 2.13 2.13 2.13h25.74c1.18 0 2.13-.95 2.13-2.13V15.13c0-1.18-.95-2.13-2.13-2.13H15.13Z" fill="#1D9FBF"/><path d="M24.88 31H18c5.82-13.9 14.61-15 16.88-15 1.81 0 2.84.36 3.12.54-5.5-.2-11.04 9.56-13.12 14.46Z" fill="#1D9FBF"/><path d="M29.88 25H38c-5.82 13.9-14.61 15-16.88 15-1.82 0-2.84-.36-3.12-.54 4.99.19 10-7.8 12.45-12.96.25-.53-.07-1.18-.57-1.5Z" fill="#1D9FBF"/></svg>