<!-- by TradingView --><svg width="56" height="56" fill="none" xmlns="http://www.w3.org/2000/svg"><path fill="#F0F3FA" d="M0 0h56v56H0z"/><path fill-rule="evenodd" clip-rule="evenodd" d="M15.163 22.992c-1.707 1.007-3.199 2.086-4.423 3.196.135.042.276.082.421.12A2.096 2.096 0 0 1 12.243 26c.606 0 1.085.157 1.4.317.753-1.092 1.749-2.148 2.945-3.125-.49-.05-.965-.117-1.425-.2ZM14 26.707v-.156a1.329 1.329 0 0 0-.197-.145c.407-.587.886-1.166 1.433-1.729.488-.502 1.027-.99 1.614-1.46.644.058 1.31.086 1.995.084A10.336 10.336 0 0 0 17.453 26H15v.738a23.97 23.97 0 0 1-1-.03Zm-.643.394c.208.07.426.171.643.319v-.525c.323.017.656.027 1 .03V31h2.228l.006.024-4.86 1.356a5.703 5.703 0 0 1-.177-1.38h.046c.778 0 1.495-.452 1.757-.678V28h-1.112c.137-.3.294-.6.47-.9Zm-2.4-.654a8.253 8.253 0 0 1-.375-.114c-2.701 2.502-4.04 5.149-3.441 7.468l.01.037 5.049-1.41a5.9 5.9 0 0 1-.183-1.447C11.085 30.831 10 29.79 10 28.458c0-.867.392-1.58.957-2.011Zm1.15 3.45c-.448-.113-1.107-.477-1.107-1.44 0-1.228 1.056-1.504 1.411-1.504.192 0 .463.015.767.095a9.86 9.86 0 0 0-.49.952H12v1h.316c-.09.3-.16.599-.21.897Zm.177.035c.049.006.092.009.127.009.255 0 .455-.127.57-.2l.019-.012V29h-.495c-.096.311-.17.622-.221.932ZM18 30.81V30h-.78a8.364 8.364 0 0 1-.072-1H18v-1h-.804c.036-.336.091-.67.165-1H18v-.197a40.06 40.06 0 0 0 1-.098v3.826l-1 .28Zm1-.086V31h1v-.554l2.93-.817.07.25V31h.36c.202.56.428 1.096.675 1.605a39.771 39.771 0 0 0-4.511 2.12 8.3 8.3 0 0 1-2.068-3.569l1.544-.43Zm4.553.275c.196.536.414 1.05.652 1.537a46.451 46.451 0 0 1 4.392-1.473L28.58 31h-.233l-.365-1h-1.99l-.404 1H24.5l.812-2.036L24 29.33V31h-.447ZM24 29.136l1.4-.39L26.494 26h.764l-.234-.888-.021.006a55.942 55.942 0 0 1-3.63.882H24v3.136Zm-1.09-3.042-.366.071c.008.128.017.257.028.387l.337-.458Zm-.26 2.32c.068.35.146.695.233 1.034L20 30.252v-2.255l1.507 1.779 1.143-1.362Zm-.24-1.643a15.99 15.99 0 0 1-.044-.572 48.54 48.54 0 0 1-1.99.33l1.13 1.468.904-1.226Zm-2.166-.413a47.94 47.94 0 0 0 2.111-.348c-.051-1.08.015-2.09.184-2.996-1.192.177-2.353.27-3.467.285A10.2 10.2 0 0 0 17.645 26H18v.615c.328-.028.661-.06 1-.099V26h.968l.276.358Zm2.556 1.878.2-.239v1.173a17.656 17.656 0 0 1-.2-.934Zm5.58-.322L27.687 26h-.24l-.247-.937a55.152 55.152 0 0 0 4.502-1.477c.458.94.844 1.98 1.132 3.086L31 27.183V26h-1v1.462l-1.62.452ZM28.768 31l.004.015.053-.015h-.057Zm.673-.166-.995-2.744L30 27.656v3.035c-.186.046-.373.094-.56.143Zm.56.05V31h3.365v-.768h-.332c.112-.02.223-.04.334-.058.052 1.188-.04 2.286-.257 3.247-1.132.192-2.305.45-3.499.776l-.793-3.002c.396-.11.79-.213 1.182-.311Zm2.034-.652H31v-2.855l1.879-.524c.097.393.183.795.254 1.202.116.663.19 1.308.225 1.93-.438.075-.88.157-1.324.247Zm-4.706-2.024-.29-.794-.398.986.688-.192Zm-.776.41-.155.382h1.22l-.224-.616-.841.234ZM17.175 27H16v1h1.014c.035-.336.088-.67.16-1Zm-.208 2H16v1h1.037a8.58 8.58 0 0 1-.07-1ZM41.77 17.414c-1.677-.315-3.581-.454-5.643-.404-.332.3-.684.595-1.055.883 1.762.226 3.35.682 4.678 1.346.838-.619 1.519-1.233 2.02-1.825Zm-16.181 1.242c3.607-1.003 7.106-1.537 10.252-1.638-.325.286-.67.568-1.031.843-2.774-.317-5.96-.069-9.228.835l-.041.011-.018.005-.01-.035.076-.021Zm-.24.105-.01-.035c-3.73 1.058-7.111 2.491-9.925 4.12.447.075.909.135 1.383.179 2.26-1.793 5.198-3.305 8.552-4.264ZM48.859 22.2c-.616-2.386-3.174-4.008-6.885-4.746-.503.614-1.193 1.246-2.042 1.88 1.928 1.011 3.276 2.473 3.764 4.308l5.163-1.441v-.001Zm-5.118 1.623 5.161-1.44c.505 2.372-.97 5.068-3.826 7.595-.401-.095-.818-.177-1.25-.248l-.842-1.118c.108-.21.207-.42.296-.63L44.782 26h-.946a6.068 6.068 0 0 0-.095-2.178Zm-.098 2.248a5.9 5.9 0 0 0-.077-2.2l-4.859 1.357a8.655 8.655 0 0 1 .076 3.65l.217.346V26h1v3.42c.339.003.672.012 1 .026V26h1v2.274l1.643-2.204ZM41 29.634a29.028 29.028 0 0 0-1-.027V31h-1.008l-.544-.856a10.394 10.394 0 0 1-1.53 2.873 21.867 21.867 0 0 1 1.98.012c.65-.508 1.243-1.039 1.774-1.586.143-.147.28-.294.414-.443H41v-1.366Zm1 .23v-.168l.112.01-.112.158ZM41.33 31H42v-.826c.111-.15.218-.299.32-.45.135.014.269.027.401.042L43.695 31h.137a30.216 30.216 0 0 1-3.315 2.194 15.723 15.723 0 0 0-1.343-.148A16.884 16.884 0 0 0 41.33 31Zm3.097-.471c.162-.133.32-.267.475-.4-.295-.067-.6-.128-.913-.183l.438.583Zm-1.868-.969-.071-.09-.05.078.12.012Zm-.19-.241c-.045.07-.09.14-.137.21a27.095 27.095 0 0 0-.232-.02v-.657l.368.466Zm-4.24.325.193.302a10.208 10.208 0 0 1-1.64 3.081c-1.067.05-2.2.17-3.38.362.21-.967.298-2.065.245-3.246.151-.025.302-.05.453-.073V31h1v-1.073c.336-.044.67-.084 1-.119V31h1v-1.284c.381-.03.758-.055 1.13-.072Zm.51-.995a8.444 8.444 0 0 0-.106-3.374L35 26.261v3.477c.336-.044.67-.083 1-.118V26h.977l1.663 2.649ZM37 29.528v-1.66l1.014 1.594c-.334.017-.672.039-1.014.066Zm-3 .353v-3.34l-.947.263c.099.399.185.805.258 1.218.116.662.19 1.309.226 1.933l.463-.074Zm1-3.814V26h-1v.346l-.993.277a16.816 16.816 0 0 0-1.135-3.101 43.222 43.222 0 0 0 4.588-2.047 8.289 8.289 0 0 1 2.027 3.619L35 26.067ZM14.355 38.61c1.536.28 3.26.411 5.116.389.334-.273.697-.542 1.085-.809-1.573-.226-3-.639-4.219-1.221-.293.216-.577.434-.848.654a19.93 19.93 0 0 0-1.134.987Zm25.393-5.325c.172.018.34.038.506.06-2.186 1.234-4.698 2.35-7.44 3.266 2.348-.895 4.431-2.063 6.14-3.39.272.016.537.037.794.064Zm-19.975 5.709c2.46-.052 5.147-.373 7.939-.98-2.442.425-4.785.483-6.882.214a17.93 17.93 0 0 0-1.057.766Zm-12.57-4.976c.718 2.29 3.274 3.844 6.929 4.55a21.16 21.16 0 0 1 2.018-1.691c-1.974-.99-3.37-2.438-3.901-4.267l-5.046 1.408ZM43.52 23.69c-.477-1.795-1.815-3.238-3.755-4.233a26.098 26.098 0 0 1-3.136 1.93 8.47 8.47 0 0 1 2.032 3.66l4.86-1.357ZM12.423 32.56l4.86-1.355a8.48 8.48 0 0 0 2.074 3.612 30.066 30.066 0 0 0-3.038 1.935c-1.988-.973-3.374-2.403-3.896-4.192ZM39.58 19.363c-.68-.332-1.43-.611-2.24-.833a16.908 16.908 0 0 0-2.48-.475 21.69 21.69 0 0 1-1.536 1.057 9.7 9.7 0 0 1 3.173 2.134c.808-.426 1.553-.86 2.226-1.297.3-.196.587-.391.857-.586Zm-3.254 1.973a9.57 9.57 0 0 0-3.196-2.103 25.702 25.702 0 0 1-2.999 1.573c.61.714 1.173 1.576 1.66 2.548a43.164 43.164 0 0 0 4.535-2.018Zm-4.707 2.082c-.36-.714-.76-1.368-1.19-1.945a10.476 10.476 0 0 0-.473-.59c-1.11.486-2.289.915-3.523 1.274l.72 2.726a55.008 55.008 0 0 0 4.466-1.465Zm-4.64 1.514-.72-2.724-.183.051c-1.131.315-2.251.555-3.347.726-.174.9-.243 1.909-.193 2.992a55.15 55.15 0 0 0 4.422-1.04l.02-.005Zm9.55 8.29c-1.034.055-2.13.176-3.27.364-.355 1.486-1.005 2.646-1.884 3.304 2.111-.789 3.878-2.088 5.153-3.668Zm-3.464.397c-1.103.189-2.244.441-3.405.76l.741 2.806c1.01-.312 1.82-1.212 2.344-2.55a8.19 8.19 0 0 0 .32-1.016Zm-4.42-2.375.793 3.002a36.485 36.485 0 0 0-3.373 1.116c-.201-.224-.399-.465-.591-.723a13.081 13.081 0 0 1-1.185-1.934 46.303 46.303 0 0 1 4.356-1.46Zm.84 3.182c-1.146.32-2.246.685-3.284 1.084 1.08 1.148 2.268 1.804 3.404 1.796a2.76 2.76 0 0 0 .622-.073l-.741-2.807Zm-5.366-1.654c.515 1.025 1.114 1.927 1.764 2.662a30.552 30.552 0 0 0-3.139 1.438 9.585 9.585 0 0 1-3.083-2.011 39.68 39.68 0 0 1 4.458-2.089Zm1.898 2.81a30.63 30.63 0 0 0-3.046 1.38c1.883.723 4.064.937 6.297.516-1.113-.112-2.24-.8-3.251-1.897Zm-6.524-.628a9.71 9.71 0 0 0 3.04 2.031c-.624.34-1.207.69-1.744 1.047a16.688 16.688 0 0 1-2.218-.442c-.74-.203-1.43-.453-2.061-.747.9-.652 1.9-1.285 2.983-1.889Zm3.261 2.123c-.599.321-1.161.653-1.681.99 1.949.228 4.108.174 6.359-.196a11.47 11.47 0 0 1-4.678-.794Zm10.38-.792c2.098-.836 3.97-1.891 5.535-3.079a22.26 22.26 0 0 0-1.898.005 11.973 11.973 0 0 1-3.636 3.074Zm1.457-18.26c-1.884-.195-3.956-.13-6.112.224a11.48 11.48 0 0 1 4.633.777 21.823 21.823 0 0 0 1.479-1Zm-1.678 1.123c-1.87-.712-4.03-.924-6.245-.51 1.146.126 2.304.862 3.335 2.022a25.676 25.676 0 0 0 2.91-1.512Zm-3.087 1.59c-1.112-1.233-2.349-1.94-3.529-1.933-.25.002-.492.035-.723.1l.811 3.072a29.035 29.035 0 0 0 3.441-1.24Zm-3.615 1.289-.81-3.068c-.963.34-1.738 1.224-2.243 2.517a8.475 8.475 0 0 0-.389 1.313 29.189 29.189 0 0 0 3.442-.762Zm-3.633.792c.332-1.609.999-2.869 1.918-3.574-2.187.825-4.002 2.198-5.28 3.864a25.882 25.882 0 0 0 3.362-.29Zm-3.594.293a21.847 21.847 0 0 1-1.917-.064c1.6-1.242 3.532-2.345 5.708-3.213a11.933 11.933 0 0 0-3.791 3.277Z" fill="#0671B7"/></svg>