<!-- by TradingView --><svg width="56" height="56" viewBox="0 0 56 56" xmlns="http://www.w3.org/2000/svg"><path fill="#F0F3FA" d="M0 0h56v56H0z"/><path fill-rule="evenodd" d="M19.44 19.7c2.63-.45 5.52-.7 8.56-.7 4.99 0 9.31.68 13 1.82-2.1 1.3-5.64 2.18-10 2.18-5.51 0-10.16-1.4-11.56-3.3ZM31 24c5.04 0 9.45-1.05 11.92-2.61 4.35 1.64 7.08 4 7.08 6.61 0 4.1-6.71 7.57-15.9 8.65C32.12 34.52 27 33 21 33c-3.34 0-6.4.47-8.81 1.26C8.36 32.64 6 30.43 6 28c0-3.43 4.76-6.48 11.65-8 1.72 2.27 7 4 13.35 4Zm1 12.84c-1.34.1-2.59.16-4 .16-5.55 0-10.62-.84-14.5-2.23 2-.49 4.4-.77 7-.77 5.28 0 9.67 1.18 11.5 2.84ZM18 31l.38-5h1.65l.44 3 .4-3H22l-.84 5h-1.38l-.34-2.48-.47 2.48H18Zm19.47-5L37 31h1.21l.59-2.48.43 2.48h1.72L42 26h-1.4l-.51 3-.55-3h-2.07ZM11 31l.44-5h1.86l.18 2.97.79-2.97H16l-.75 5h-1.1l.21-2.46-.72 2.46h-1.07l-.12-2.28-.41 2.28H11Zm5.58-5H18l-.71 5H16l.58-5ZM42 29.3c0 .9.5 1.5.74 1.7h2.59l.46-3H44.3l-.3 2.88c-.2-.22-.44-.72-.44-1.58 0-1.37 1.63-2.77 2.44-3.3h-2.3c-.6.72-1.7 2.21-1.7 3.3ZM36.3 31l.7-5h-1.42l-.55 4.82c-.3-.03-.7-.31-.7-1.27 0-.29.3-2.56.51-3.55h-1.38l-.37 2.9c-.14.7-.21 2.1.57 2.1h2.63ZM26 26l-.7 5h-1.28l.2-2h-.78l-.16 2H22l.3-5h1.41l-.2 2h.8l.28-2H26Zm7 0-.7 5h-1.28l.2-2h-.78l-.16 2H29l.3-5h1.41l-.2 2h.8l.28-2H33Z" fill="#3F4097"/></svg>