<!-- by TradingView --><svg width="56" height="56" viewBox="0 0 56 56" xmlns="http://www.w3.org/2000/svg"><path fill="#F0F3FA" d="M0 0h56v56H0z"/><path d="M31.17 30.89c-.1-.31.15-.68.29-.83 1.15-.05 3.46-.1 3.46 0 0 .12.18 1.4 0 1.9-.17.52 0 .84-.23 1.48-.24.63.23.82.23 1.08 0 .25 0 .32-.12.83-.11.5-1.23 1.4-1.4 1.6-.18.18-1.18.5-1.53.63-.35.13-.41.38-.7.45-.3.06-.3-.39-.47-.32-.18.06-.3.89-.42 1.14-.11.26-.29.45-.52.64-.24.2-.53.32-.88.51-.36.2-.53.07-.83.2-.29.12-.23.57-.47.76-.23.19-1.17-.32-1.11-.58.06-.25.35-1.84.23-2.23-.17 0-.7-.38-.7-.7 0-.32.94-.57 1.06-.7.11-.13.52-.32.76-.32.23 0 .47.07.65 0 .17-.06.23-.44.29-.64.06-.19.47-.38.64-.44.18-.07.24-.38.6-.64.34-.25.46-.06.7-.2.23-.12.23-.37.35-.37.12 0 .4.12.7 0 .3-.13 0-.51 0-.7 0-.2-.3-.58-.3-.9 0-.32.36-.5.3-.89-.06-.38-.47-.38-.58-.76Z" fill="#EF2A33"/><path fill-rule="evenodd" d="M28 42c8.84 0 16-6.27 16-14s-7.16-14-16-14h-.5c-8.6.24-15.5 6.41-15.5 14s6.9 13.76 15.5 14h.5Zm0-27.13h-.08c-1.65.01-3.14 1.57-4.2 4.06a19.17 19.17 0 0 0 8.42-.03c-1.05-2.46-2.51-4-4.14-4.03Zm-7.5 3.04c1.37-1.3 3-2.24 4.79-2.7-.87.82-1.64 2.05-2.26 3.56-.87-.23-1.72-.52-2.52-.86Zm-.48.49c.89.38 1.82.7 2.78.96a21.6 21.6 0 0 0-.93 3.5 30.12 30.12 0 0 1-4.16-1.05c.6-1.28 1.39-2.43 2.31-3.41Zm-2.57 4c1.36.45 2.8.8 4.31 1.07-.1.6-.17 1.22-.23 1.85h.7c.06-.6.14-1.17.22-1.73a36.13 36.13 0 0 0 10.98 0c.09.56.16 1.14.21 1.73h.71c-.06-.63-.13-1.25-.23-1.85 1.47-.25 2.88-.6 4.21-1.03.7 1.69 1.08 3.57 1.08 5.56 0 2-.4 3.91-1.1 5.61-1.33-.44-2.73-.8-4.2-1.06.1-.6.18-1.23.24-1.87h-.7c-.06.6-.13 1.18-.23 1.75a34.73 34.73 0 0 0-10.96 0c-.1-.57-.17-1.15-.22-1.75h-.7c.05.64.13 1.26.22 1.87-1.5.27-2.93.64-4.29 1.1A14.6 14.6 0 0 1 16.35 28c0-2 .4-3.9 1.1-5.6Zm.3 11.87c1.3-.45 2.68-.81 4.12-1.08.3 1.63.75 3.12 1.3 4.38-.82.2-1.62.46-2.4.77a12.91 12.91 0 0 1-3.02-4.07Zm4.82-1.2c.3 1.64.75 3.12 1.31 4.34a19.98 19.98 0 0 1 8.12 0c.56-1.22 1.01-2.7 1.32-4.34a33.18 33.18 0 0 0-10.75 0Zm-1.23 5.74c.68-.26 1.38-.48 2.1-.65a9.32 9.32 0 0 0 1.85 2.63 10.83 10.83 0 0 1-3.95-1.98Zm2.83-.81c1 1.94 2.32 3.12 3.75 3.13H28c1.42-.03 2.71-1.2 3.72-3.13a19.12 19.12 0 0 0-7.55 0Zm10.3.78c-1.15.9-2.44 1.58-3.83 1.97a9.41 9.41 0 0 0 1.8-2.6c.7.18 1.37.39 2.03.63Zm.56-.47c-.75-.3-1.52-.54-2.32-.74.55-1.26 1-2.75 1.3-4.38 1.4.26 2.75.62 4.02 1.05a12.92 12.92 0 0 1-3 4.07Zm3.04-16.47c-1.28.42-2.64.76-4.05 1.02a21.54 21.54 0 0 0-.96-3.55c.93-.25 1.81-.56 2.66-.94.94 1 1.74 2.17 2.35 3.47ZM27.84 20c1.57 0 3.1-.18 4.53-.51.4 1.03.72 2.2.95 3.48a34.5 34.5 0 0 1-10.76 0c.23-1.26.55-2.42.93-3.44 1.4.3 2.85.47 4.35.47Zm7.4-2.12c-.77.33-1.58.62-2.4.84a10.39 10.39 0 0 0-2.2-3.47c1.71.48 3.28 1.4 4.6 2.63ZM33.3 40.55c.94-.3 1.82-.68 2.66-1.13l-.65-.3c-.63.55-1.3 1.03-2 1.43Zm2.52-1.9.82.38a14.52 14.52 0 0 0 4.13-3.68c-.66-.31-1.34-.6-2.05-.86a13.9 13.9 0 0 1-2.9 4.15Zm3.17-4.8A15.66 15.66 0 0 0 40.12 28c0-2.07-.4-4.03-1.1-5.79.78-.27 1.52-.57 2.23-.89A12.06 12.06 0 0 1 43.3 28c0 2.47-.76 4.78-2.09 6.76a26.4 26.4 0 0 0-2.2-.9Zm-.23-12.25c.72-.26 1.42-.55 2.08-.85a14.3 14.3 0 0 0-3.4-3.26c-.31.18-.65.36-.98.53a14.1 14.1 0 0 1 2.3 3.58ZM17 21.56a14.1 14.1 0 0 1 2.27-3.51c-.3-.15-.6-.3-.88-.47-1.28.9-2.4 2-3.28 3.2.6.29 1.24.54 1.9.78Zm19-4.03.84-.44a16.1 16.1 0 0 0-3.54-1.64 12.3 12.3 0 0 1 2.7 2.08Zm-13.89-1.88a12.4 12.4 0 0 0-2.38 1.9c-.25-.12-.5-.24-.73-.37a16 16 0 0 1 3.11-1.53Zm-5.34 18.24A15.65 15.65 0 0 1 15.65 28c0-2.08.4-4.05 1.1-5.83-.7-.24-1.38-.52-2.03-.8A12.06 12.06 0 0 0 12.7 28c0 2.45.75 4.75 2.06 6.72.65-.3 1.32-.57 2.01-.83Zm.27.63c-.64.24-1.26.5-1.86.79a14.5 14.5 0 0 0 4.1 3.7c.23-.12.45-.23.68-.33a13.9 13.9 0 0 1-2.92-4.16Zm3.44 4.64-.51.23c.68.37 1.4.7 2.14.96-.57-.35-1.12-.75-1.63-1.2Z" fill="#EF2A33"/><path d="m52 31-5.87-4-.55.48L47 29h-4.5v2H52ZM23.23 17.55c-.42-.47-.17-1.16 0-1.44 1.53-.29 4.65-.9 4.88-1.05.3-.2.53.13.82.2.29.06.23.32.52.65.29.33.81-.2.93-.33s-.12 1.44 0 1.84c.12.39 1.05.84 1.34.84.21 0 .66-.25.97-.26.1 0 .19.03.25.1.04.06.06.12.06.16.01.23-.33.38-.47.6-.17.25-1.16.71-1.28.78-.12.06 1.28.2 1.1.39-.17.2-1.91.46-2.09.52a7.72 7.72 0 0 0-1.33 1.5c-.24.4-.3.86-.47 1.44-.14.48 1.38 1.81 2.15 2.42-.68.07-2.06.16-2.15 0-.11-.2-1.1-.85-1.04-1.04.05-.2.29-.26.23-.66-.06-.39-2.21-1.3-2.21-1.5 0-.2.06-.24.44-.55l.02-.02c.13-.1.25-.14.36-.14.16 0 .28.08.34.14l.4-.67c-.35-.55-1-1.64-1.1-1.64-.11 0-.87.46-1.1.46-.23 0-.58-.65-.76-1.11a1.41 1.41 0 0 1 0-.91c-.1-.05-.39-.25-.8-.72ZM28 30h1v12h-1z" fill="#EF2A33"/><path fill-rule="evenodd" d="M43.46 25H12.54L12 28l.18 1H10.9l-.98-1H4l2.96 3h36.5l.54-3-.54-3Zm-11.12 5 1.16-1.45L34.56 30H36l-1.66-2.09L36 26h-1.32l-1.18 1.37L32.42 26H31l1.66 1.91L31 30h1.34ZM29 27l-1.37 3h-1.35L25 27v3h-1v-4h1.5l1.5 3 1.5-3H30v4h-1v-3Zm-8 1v.78h1V29c0 .19-.74.22-.84.22-.68 0-1.16-.38-1.16-1.21 0-.68.44-1.22 1.15-1.22.35 0 .75.11.91.46l.88-.4c-.28-.66-1.15-.84-1.79-.84-1.21 0-2.15.74-2.15 2s.91 2 2.13 2a2.7 2.7 0 0 0 1.65-.47c.15-.12.22-.19.22-.2V28h-2Z" fill="#EF2A33"/></svg>