<!-- by TradingView --><svg width="56" height="56" viewBox="0 0 56 56" xmlns="http://www.w3.org/2000/svg"><path fill="#F0F3FA" d="M0 0h56v56H0z"/><path fill-rule="evenodd" d="M28 45a17 17 0 1 0 0-34 17 17 0 0 0 0 34Zm.68-26H24v2.55L22.53 20H18v16h4V23.74l2 2.05V37h4.68a3.38 3.38 0 0 0 3.29-3.02L33.94 36H38V20h-4v12.12L32 30v-7.5c0-1.93-1.49-3.5-3.32-3.5ZM27 35v-6.12l2 2.05v3.2c0 .48-.51.87-1.14.87H27Zm0-10.28 2 2.11v-4.95c0-.49-.51-.88-1.14-.88H27v3.72Z" fill="#FE2530"/><path d="M43.97 27a16 16 0 0 0-31.94 0h1a15 15 0 0 1 29.94 0h1ZM43.97 28a16 16 0 0 1-31.94 0h1a15 15 0 0 0 29.94 0h1Z" fill="#fff" fill-opacity=".5"/></svg>