<!-- by TradingView --><svg width="56" height="56" viewBox="0 0 56 56" xmlns="http://www.w3.org/2000/svg"><path fill="#F0F3FA" d="M0 0h56v56H0z"/><path d="M46.42 25v-4c-.47.33-1.42 1.25-1.42 2.27 0 1.01.95 1.57 1.42 1.73ZM46.58 25v-4c.47.33 1.42 1.25 1.42 2.27 0 1.01-.95 1.57-1.42 1.73ZM46.42 26v4c-.47-.33-1.42-1.25-1.42-2.27 0-1.01.95-1.57 1.42-1.73ZM46.58 26v4c.47-.33 1.42-1.25 1.42-2.27 0-1.01-.95-1.57-1.42-1.73ZM48 25.42h4c-.33-.47-1.25-1.42-2.27-1.42-1.01 0-1.57.95-1.73 1.42ZM48 25.58h4c-.33.47-1.25 1.42-2.27 1.42-1.01 0-1.57-.95-1.73-1.42ZM45 25.42h-4c.33-.47 1.25-1.42 2.27-1.42 1.01 0 1.57.95 1.73 1.42ZM45 25.58h-4c.33.47 1.25 1.42 2.27 1.42 1.01 0 1.57-.95 1.73-1.42ZM34 26.56c.65-.2 1.3-.43 1.97-.53l.24-.03c.17 0 .27.11.29.33v.43c.52-.21 1.09-.4 1.56-.53A4.3 4.3 0 0 1 39.2 26c1.25 0 1.8 1.09 1.8 2.25v4.38c0 .15-.07.24-.2.26-.36.07-.78.11-1.14.11-.13 0-.2-.08-.2-.23l.04-3.63V29c0-.98-.3-2-1.42-2a4 4 0 0 0-1.58.45v5.18c0 .15-.05.24-.19.26-.36.07-.74.11-1.1.11-.14 0-.21-.08-.21-.23V27.8c0-.43-.06-.8-.56-.8H34v-.44ZM27 32c-.54.28-1.16.57-1.74.74-.56.16-1.08.26-1.41.26-1.8 0-2.85-1.63-2.85-3.3 0-2 1.58-3.7 3.64-3.7 1.22 0 2.01.92 2.01 2.1 0 .27-.05.6-.14 1l-4 .23c.09 1.5 1.08 2.67 2.6 2.67a4.5 4.5 0 0 0 1.7-.41L27 32Zm-2.04-3.42c.03-.17.04-.32.04-.5 0-.63-.32-1.08-1-1.08-1.07 0-1.48.82-1.5 1.78l2.46-.2ZM34 32c-.54.28-1.16.57-1.74.74-.56.16-1.08.26-1.41.26-1.8 0-2.85-1.63-2.85-3.3 0-2 1.58-3.7 3.64-3.7 1.22 0 2.01.92 2.01 2.1 0 .27-.05.6-.14 1l-4 .23c.09 1.5 1.08 2.67 2.6 2.67a4.5 4.5 0 0 0 1.7-.41L34 32Zm-2.04-3.42c.03-.17.04-.32.04-.5 0-.63-.32-1.08-1-1.08-1.07 0-1.48.82-1.5 1.78l2.46-.2ZM14 26.52c.76-.21 1.42-.52 2.22-.52.19 0 .28.11.28.33v.51c.2-.12.59-.31.8-.41.67-.33 1.3-.43 1.71-.43.66 0 .99.52.99 1.02 0 .63-.5.98-1.1.98h-.28a3 3 0 0 1-.1-.02v-.2c0-.38-.15-.78-.59-.78-.35 0-1 .26-1.43.5v5.13c0 .15-.07.24-.21.26-.38.07-.7.11-1.08.11-.14 0-.21-.08-.21-.23V27.8c0-.44-.02-.8-.53-.8H14v-.48ZM13 32.41c0 .07-.03.12-.1.15a11.18 11.18 0 0 1-3.07.44C6.56 33 4 30.9 4 27.5 4 24.05 6.67 22 9.98 22c.98 0 1.82.13 2.66.33.06 0 .1.03.13.08.03.03.04.07.05.11.05.73.18 1.75.18 2.48h-.43c-.18-1.43-1.66-2-2.95-2C7.1 23 6 24.68 6 27.05 6 29.96 7.54 32 10.56 32h.85v-2.56c0-.3-.01-.72-.37-.79a1.1 1.1 0 0 0-.45-.03h-.13l-.04-.5.86-.06c.48-.03.96-.06 1.44-.06.19 0 .28.1.28.29v4.12Z" fill="#008547"/></svg>