<!-- by TradingView --><svg width="56" height="56" viewBox="0 0 56 56" xmlns="http://www.w3.org/2000/svg"><path fill="#F0F3FA" d="M0 0h56v56H0z"/><path fill-rule="evenodd" d="M28 38a10 10 0 1 0 0-20 10 10 0 0 0 0 20Zm0-.83a9.17 9.17 0 1 0 0-18.34 9.17 9.17 0 0 0 0 18.34Z" fill="#DA251C"/><path d="M44.34 29h-5.69A10.82 10.82 0 0 1 28 38.6c-5.48 0-10-4.18-10.65-9.6h-5.78l.57 4.03 2.41-.28c.47 1.29 1.11 2.49 1.9 3.58l-1.46 1.62 3.29 3.09 1.34-1.5a14.1 14.1 0 0 0 6.1 2.57V44h4.46v-1.87a14.08 14.08 0 0 0 5.9-2.38l1.51 1.68 3.3-3.09-1.55-1.72c.88-1.16 1.6-2.46 2.1-3.86l2.33.27.57-4.03Z" fill="#D82717"/><path d="M33.55 39.91a1 1 0 0 1-.77.06 1.02 1.02 0 0 1-.58-.53.93.93 0 0 1-.07-.76.94.94 0 0 1 .52-.54c.15-.08.3-.11.43-.1.13 0 .22.04.25.1.03.05.03.1.01.15a.18.18 0 0 1-.1.11.93.93 0 0 1-.18.05.88.88 0 0 0-.22.06.43.43 0 0 0-.25.3.61.61 0 0 0 .07.43c.08.16.18.26.31.31a.5.5 0 0 0 .41-.02.75.75 0 0 0 .2-.14.7.7 0 0 1 .15-.13.18.18 0 0 1 .14 0c.05.02.09.05.11.1.04.07.02.17-.06.28-.08.1-.2.2-.37.27ZM31.62 39.92c.05.18.02.34-.09.5a.89.89 0 0 1-.5.3c-.18.05-.34.07-.48.04-.15-.02-.23-.07-.25-.15-.02-.05-.01-.1.02-.15a.25.25 0 0 1 .15-.09l.23-.01c.11 0 .2 0 .28-.03a.25.25 0 0 0 .14-.1c.04-.04.04-.09.03-.14a.17.17 0 0 0-.1-.12.96.96 0 0 0-.32-.03c-.22 0-.39-.03-.5-.08a.43.43 0 0 1-.21-.28.5.5 0 0 1 .08-.46c.1-.14.26-.24.47-.3a.9.9 0 0 1 .42-.02c.11.02.18.07.2.14.02.06.01.1-.01.14a.22.22 0 0 1-.14.1.84.84 0 0 1-.18 0 .8.8 0 0 0-.2.02.28.28 0 0 0-.14.09.13.13 0 0 0-.03.13c.02.07.13.1.32.1h.1c.2.01.37.05.48.11.12.07.2.16.23.3ZM28.84 40.2l-.07-.87c0-.1.01-.18.04-.23.04-.05.1-.08.17-.09.07 0 .13.02.17.07.04.04.07.12.08.22l.07 1.01c.01.2-.03.36-.12.47-.09.11-.23.17-.42.18a.71.71 0 0 1-.37-.06c-.1-.05-.16-.12-.16-.2 0-.06 0-.11.04-.15a.2.2 0 0 1 .15-.07c.04 0 .1.01.15.04l.14.04c.06 0 .1-.03.11-.08a.73.73 0 0 0 .02-.27ZM26.86 40.75a.27.27 0 0 1 .27-.25c.07 0 .14.02.19.07.05.05.08.1.08.18 0 .07-.03.13-.08.18a.26.26 0 0 1-.19.07.27.27 0 0 1-.19-.07.24.24 0 0 1-.08-.18ZM25.03 40.4c-.02.1-.06.18-.1.22-.05.04-.12.05-.2.04-.07-.02-.13-.05-.15-.11-.03-.06-.03-.14 0-.24l.29-1.28c.02-.1.06-.18.12-.21.06-.04.14-.04.26-.02l.42.09c.23.05.4.14.5.28.1.14.14.3.1.5a.62.62 0 0 1-.3.43.78.78 0 0 1-.55.05l-.31-.06-.08.32Zm.16-.7.2.05c.1.02.19.02.25-.01s.1-.09.12-.17c.02-.08.01-.15-.03-.2-.04-.05-.12-.09-.23-.1l-.2-.05-.1.49ZM22.69 39.15l-.23.42a.4.4 0 0 1-.16.19c-.05.02-.11.02-.18-.01-.07-.03-.1-.08-.12-.14 0-.06.01-.14.06-.23l.62-1.18a.4.4 0 0 1 .16-.18c.06-.03.12-.03.19 0 .06.04.1.09.11.15.01.06 0 .13-.06.22l-.2.4.73.36.21-.4a.4.4 0 0 1 .16-.18c.06-.03.12-.03.19 0s.1.08.11.14c.01.06 0 .14-.05.23l-.63 1.18a.4.4 0 0 1-.15.18c-.06.03-.12.03-.19 0-.07-.04-.1-.08-.12-.14 0-.06.01-.14.06-.23l.23-.43-.74-.35Z" fill="#fff"/><path d="M15.29 27.5h.2c.2 0 .26.04.26.13 0 .08-.05.1-.22.1l-1.07-.03c-.17 0-.2-.02-.2-.11 0-.1.06-.12.27-.11h.14v-.26l-.15-.01c-.34-.01-.51.11-.52.37 0 .25.15.39.46.4l1.07.02c.3 0 .47-.12.47-.37.01-.26-.16-.39-.5-.4h-.2l-.01.27Zm-.62-1.68c-.23-.03-.28-.03-.37.01a.38.38 0 0 0-.2.3c-.01.14.03.26.12.34.08.06.12.07.35.1l.95.12c.23.03.28.03.37-.01.1-.05.18-.17.2-.3a.37.37 0 0 0-.12-.34c-.07-.06-.12-.07-.35-.1l-.95-.12Zm1.03.4c.1.01.15.05.14.13-.01.08-.06.1-.17.1l-1.17-.16c-.11-.01-.16-.05-.15-.13.01-.08.06-.1.18-.09l1.17.15Zm-1.2-1.98-.07.26 1.12.26-1.2.09-.05.22 1.9.44.06-.26-1-.23 1.07-.08.06-.26-1.9-.44Zm1.35-1.08-.12.37.22.07.03-.11.27.09.15.06c.05.03.07.08.05.13-.01.05-.06.07-.11.07-.04 0-.04 0-.16-.05l-.98-.32c-.16-.06-.2-.1-.17-.18.04-.09.1-.1.3-.02l.13.04.09-.25-.15-.05c-.32-.11-.52-.04-.6.2-.09.24.02.41.31.5l.98.34c.16.05.24.06.33.05.12-.02.22-.1.26-.2.03-.1 0-.19-.08-.3l.14.01.05-.13-.94-.32Zm1.43-.74.13-.23-1.5-.77.11-.23-.22-.11-.36.7.22.1.12-.22 1.5.76Zm-.05-1.5.68.43.15-.23-.68-.43-.8-.86-.15.24.52.5-.68-.25-.16.24 1.12.36Zm1.38-1.59.16.13c.16.13.18.2.12.26-.06.07-.1.06-.23-.05l-.81-.7c-.13-.1-.15-.15-.1-.22.07-.07.13-.05.3.09l.1.1.17-.21c-.05-.06-.08-.08-.11-.1-.26-.23-.47-.24-.64-.04-.17.19-.13.39.1.59l.81.69c.23.2.44.2.6.02.18-.2.13-.4-.13-.63l-.16-.13-.18.2Zm.7-1.69c-.16-.17-.2-.2-.3-.23a.39.39 0 0 0-.34.1.38.38 0 0 0-.14.32c.01.1.04.14.19.31l.63.72c.15.17.19.2.28.23.11.03.25 0 .35-.1.1-.08.16-.2.14-.32-.02-.1-.04-.14-.2-.31l-.62-.72Zm.49.98c.07.08.07.14.01.19-.06.05-.11.04-.18-.04l-.78-.89c-.07-.08-.07-.14-.02-.19.07-.05.12-.04.2.05l.77.88Zm.2-2.13 1.04 1.62.23-.15-.42-.66.03-.02c.13-.08.21-.18.23-.29.02-.12-.02-.21-.16-.43-.12-.18-.18-.24-.29-.3-.14-.07-.23-.05-.45.1l-.22.13Zm.71.6-.35-.54.03-.02c.08-.05.15-.05.2-.01l.14.18c.05.08.1.17.1.2.03.07 0 .12-.09.18l-.03.02Zm1.41-.64.4.78.25-.12-.89-1.71-.24.12.37.7-.2.1-.37-.7-.24.12.89 1.71.24-.12-.4-.78.2-.1Zm1.2-.05.23-.1.2.4.26-.1-.95-1.7-.33.13.47 1.88.24-.1-.12-.41Zm.11-.32-.17.07-.25-.86.42.8Zm1.33-1.71-.27.07.32 1.1-.66-1-.22.06.53 1.85.26-.07-.28-.97.59.88.26-.07-.53-1.85Zm1.68 1.66.27-.03-.21-1.66.26-.04-.03-.25-.78.1.03.25.25-.03.21 1.66Zm1.42-.98.02.88h.28L28.1 14h-.28l.03.8h-.23l-.02-.79h-.27l.05 1.93h.27l-.02-.89h.22Zm1.22-1-.27-.02-.1 1.43c-.02.23-.02.28.03.36.05.1.17.17.3.18.14.01.27-.04.34-.13.06-.08.07-.13.1-.35l.1-1.44-.27-.02-.12 1.55c0 .1-.04.15-.12.14-.08 0-.11-.05-.1-.16l.11-1.54Zm1.22 1.28-.14.79.27.05.14-.79.5-1.05-.28-.05-.28.67-.02-.73-.29-.05.1 1.16Zm1.95-.68-.62 1.82.27.1c.18.05.27.06.37 0 .1-.04.18-.14.23-.27l.34-.98c.04-.14.04-.26-.01-.36-.05-.1-.13-.16-.3-.22l-.28-.09Zm-.29 1.67.47-1.35.03.02c.14.04.17.1.12.24l-.34.98c-.05.14-.1.17-.24.12h-.04Zm1.91-1.04-.25-.12-.8 1.76.25.1.8-1.74Zm.63.3-.97 1.66.6.33.12-.21-.36-.2.32-.55.24.13.12-.22-.23-.13.27-.47.34.2.12-.22-.57-.33Zm1.85 1.15-.22-.16-.67.93.37-1.13-.19-.14-1.12 1.57.22.16.59-.83-.33 1 .22.16 1.13-1.56Zm.63 1.9-.61.63.2.19 1.33-1.4-.2-.18-.54.57-.16-.15.55-.57-.2-.19-1.34 1.4.2.18.61-.64.16.15Zm1.58.13-.18-.2-1.1.94c-.17.14-.2.18-.23.28-.03.1 0 .24.1.34.08.1.2.16.32.14.1-.01.15-.04.32-.19l1.1-.94-.18-.2-1.18 1.01c-.09.07-.14.08-.2.02-.05-.06-.03-.12.05-.19l1.18-1.01Zm.79 1.82c.19-.13.22-.17.26-.26a.38.38 0 0 0-.06-.35.39.39 0 0 0-.31-.17c-.1 0-.15.03-.34.16l-.78.55c-.18.13-.22.17-.26.26-.04.1-.02.24.06.35.08.11.2.17.32.17.1 0 .14-.03.33-.16l.78-.55Zm-1.03.4c-.09.06-.15.06-.2 0-.04-.07-.02-.12.07-.19l.96-.67c.1-.07.15-.07.2 0 .04.06.02.11-.07.18l-.96.68Zm2.24.74-.13-.24-1.02.52.86-.83-.1-.2-1.74.87.13.24.9-.46-.76.74.13.24 1.73-.88Zm-.31 1.68-.14-.36-.22.08.05.11-.27.1-.15.06a.11.11 0 0 1-.13-.07c-.02-.04 0-.1.05-.12.03-.03.03-.03.15-.07l.96-.38c.16-.06.2-.05.24.03.03.09-.01.13-.21.21l-.13.04.1.25.15-.05c.31-.12.42-.3.32-.54-.09-.24-.28-.3-.57-.19l-.96.38c-.16.06-.23.1-.29.17a.32.32 0 0 0-.06.31c.04.1.11.15.25.18l-.11.08.05.14.92-.36Zm-.07 1.15-.1.02c-.17.04-.24.08-.32.16-.08.1-.1.2-.07.34.06.25.23.35.49.3.16-.04.34-.16.49-.32l.16-.17c.22-.24.25-.25.36-.28.12-.03.19 0 .2.07.02.06-.01.1-.09.14l-.17.04.09.25a.93.93 0 0 0 .23-.07.34.34 0 0 0 .2-.4c-.06-.23-.25-.35-.5-.3-.17.05-.29.13-.5.34l-.16.18c-.14.17-.2.21-.33.24s-.2 0-.22-.07c-.02-.1.03-.15.23-.2l.08-.01-.07-.26Zm1.25 1.92c.23-.03.28-.05.36-.1.09-.08.13-.21.11-.35a.38.38 0 0 0-.2-.3c-.08-.04-.13-.04-.36 0l-.95.11c-.23.03-.28.04-.36.1a.37.37 0 0 0-.11.34c.01.14.09.25.2.3.09.04.13.04.36.02l.95-.12Zm-1.1-.14c-.1.02-.15-.01-.16-.09-.01-.08.03-.12.14-.13l1.17-.15c.11-.01.16.02.17.1.01.08-.03.11-.14.13l-1.17.14ZM42 27.95v-.27l-1.15.03 1.13-.38v-.23l-1.95.04.01.27 1.02-.02-1.01.34V28l1.95-.05ZM28 37a9 9 0 1 0-8.3-5.52H27V31h-7.08l-.02-.02c-.13-.15-.4-.43-.46-1.43-.08-1.05-.1-2.53-.1-3.15.05-.25.38-.77 1.3-.77.4 0 .78.1.92.14v1.6h.2l.14.63h2.23l1.5-8.47.63.1.14 6.39h.6V28h-1v2.66h.79l2.56-2.7V27H29v-.98l7-1.4V27h-1c-.13 0-.6.32-1.53 3H33v1h-5.1l1.12 1.5-1.12.24c.4.36 1.22 1.29 1.26 2.18-.01.11-.35.34-1.55.34v-.78H21.75A8.97 8.97 0 0 0 28 37Zm-.92-6.34L29.5 28h.29l-1.55 2.66h-1.16Zm1.94 0h.82c.23-.93.87-1.9 1.16-2.27-.81-.24-1.66 1.42-1.98 2.27Zm5.13-2.9-.78 2.08h-.58l-.1.82h-.82c.28-.76.98-2.4 1.6-2.9h.68Zm-3.05 2.9h-.49a6.83 6.83 0 0 1 1.3-2.6.1.1 0 0 1 .13 0l.17.12c.05.03.06.1.02.14-.55.62-.98 1.8-1.13 2.34Z" fill="#0193DE"/><path fill="#D82717" d="M20.74 32H27v2h-6.26z"/><path fill-rule="evenodd" d="M28 45a17 17 0 1 0 0-34 17 17 0 0 0 0 34Zm0-1a16 16 0 1 0 0-32 16 16 0 0 0 0 32Z" fill="#0193DE"/></svg>