<!-- by TradingView --><svg width="56" height="56" viewBox="0 0 56 56" xmlns="http://www.w3.org/2000/svg"><path fill="#F0F3FA" d="M0 0h56v56H0z"/><path d="M20.17 22.77 19.1 22c-.28.2-1.11 1.18-1.11 1.7 0 1.36 4 1.4 6 1.24-3.39-.16-4.61-.83-4.61-1.34 0-.42.52-.72.78-.83ZM36.17 18.22l.8.78c.23-.17.99-.99 1.03-1.46.1-1.23-2.33-1.69-4-1.5 2.53.42 2.9 1.02 2.86 1.49-.03.37-.47.61-.69.69ZM19.12 20.38l8.17-9.17c.35-.4.96-.2 1.04.35.23 1.75.07 2.95-1 5.31-1.05 2.31-3.51 3.43-4.5 3.7 3.43.33 6.7-4.57 7.9-7.05l1.63 1.9a12.27 12.27 0 0 1-11.53 5.9c.37.16 1.51.47 3.15.47 4.14 0 8.22-3.28 9.74-4.92l2.06 2.24c.35.38.27 1.03-.18 1.26-2.12 1.09-5.93 2.63-9.32 2.63a12.8 12.8 0 0 1-7.1-1.96c-.22-.15-.24-.47-.06-.66Z" fill="#4DB648"/><path d="m18.39 21.42-.33-.42C16.47 22.02 15 23.91 15 25.18c0 1.26.71 2.82 5.03 2.82 6.77 0 14.16-3.4 17.91-6.55C40.36 19.42 41 17.51 41 16.7c0-2.2-2.9-2.7-4.75-2.7-1.49 0-3.06.2-3.66.3l.82.7c2.95-.54 5.59.5 5.59 1.88 0 1.98-3.27 5-7.34 6.85a24.5 24.5 0 0 1-10.1 2.05c-3.45 0-4.56-1.27-4.56-2.29 0-.81.9-1.67 1.39-2.07Z" fill="#004D7C"/><path d="M27.88 31 25 28.44c5-1.55 9.42-4.27 11-5.44l-8.12 8ZM10 36c0-2.2 1.86-4 4.16-4H23c-1.08.77-1.2 1.12-1.31 2h-7.8C12.83 34 12 35 12 36s.73 2 1.77 2H20v-1h-6l2.33-2H22v5h-7.84c-2.3 0-4.16-1.8-4.16-4ZM23 34.52c0-1.4 1.14-2.52 2.56-2.52H34l-2 2h-6.56c-.24 0-.44.28-.44.52s.2.48.44.48h6A2.5 2.5 0 0 1 34 37.48c0 1.4-1.14 2.52-2.56 2.52H23l2-2h6.5a.5.5 0 0 0 0-1h-5.94A2.5 2.5 0 0 1 23 34.52Z" fill="#004D7C"/><path d="M44 35.01c0-.57-.46-1.01-1.04-1.01H33l2-2h8a3 3 0 0 1 3 3.01A2.99 2.99 0 0 1 43 38h-6v2h-2v-4h7.96c.58 0 1.04-.41 1.04-.99Z" fill="#004D7C"/></svg>