<!-- by TradingView --><svg width="56" height="56" viewBox="0 0 56 56" xmlns="http://www.w3.org/2000/svg"><path fill="#F0F3FA" d="M0 0h56v56H0z"/><path d="m37.15 10-6.38 5H40v2h-9v1h9v8h-4v2h9v-6.59l-2-1.4V18h2v-1h-2v-2h1.74l-7.59-5Z" fill="#0072BC"/><path fill-rule="evenodd" d="M44.88 30H31v-8l-3.34 3H15c.61-3.37 4.09-9.77 13.1-10h1.24l4.01-3.14a17 17 0 0 0-16.96 28.56L27 29l-8.8 12.9c2.3 1.62 5.03 2.79 7.99 3.1l.33-3h2.97l.33 3a17.03 17.03 0 0 0 7.98-3.1L29 29l10.6 11.42A16.96 16.96 0 0 0 44.89 30Zm-15.5 11-.46-4h-1.83l-.46 4h2.74Zm-.8-7 .22 2h-1.6l.23-2h1.14Zm-.12-1-.11-1h-.69l-.11 1h.9ZM28 29l.23 2h-.45l.22-2Z" fill="#0072BC"/><path d="M38 21.5a2.5 2.5 0 1 1-5 0 2.5 2.5 0 0 1 5 0Z" fill="#0072BC"/></svg>