<!-- by TradingView --><svg width="56" height="56" viewBox="0 0 56 56" xmlns="http://www.w3.org/2000/svg"><path fill="#F0F3FA" d="M0 0h56v56H0z"/><circle cx="28" cy="28" r="15.51" fill="#4B98D3"/><path d="M27.93 29.37 36 15l-8.07 17L23 25.67l1.3-2.24 3.63 5.94Z" fill="#EF3933"/><path d="M26.5 17c2.22 0 4.06.68 4.5 1-7.62.96-10 5.76-10 9.31 0 2.84 2.56 4.94 3.92 5.69h5.7c1.27 0 2.07-2.37 2.38-3.61V28h-2.39l.83-2H39l-1 2h-2v8h-3v-1.53A7.5 7.5 0 0 1 31.65 36H18.37L16 33h2.45A9.77 9.77 0 0 1 17 27.7c0-7.84 6.7-10.7 9.5-10.7Z" fill="#EF3933"/><path fill="#FFFFFD" d="M14 36h27v1H14zM16 38h24l-.6 1H16.82L16 38ZM18 40h20l-.64 1h-18.5L18 40Z"/><circle cx="28" cy="27" r="1" fill="#FFFFFD"/><path d="m30 14 .35.6.65.16-.43.54.05.7-.62-.26-.62.26.05-.7-.43-.54.65-.16.35-.6Z" fill="#EF3933"/><path fill-rule="evenodd" d="M28 45a17 17 0 1 0 0-34 17 17 0 0 0 0 34Zm0-2a15 15 0 1 0 0-30 15 15 0 0 0 0 30Z" fill="#EEE23E"/></svg>