<!-- by TradingView --><svg width="56" height="56" viewBox="0 0 56 56" xmlns="http://www.w3.org/2000/svg"><path fill="#F0F3FA" d="M0 0h56v56H0z"/><path d="M46.47 19.4c.1 0 .18-.09.18-.2 0-.11-.08-.2-.18-.2-.1 0-.18.09-.18.2 0 .11.08.2.18.2Zm-.74.51c-.21.12-.64.45-.67.86.23.04.67-.08.67-.86Zm.22.83c-.27.05-.32.63-.3.92.27.08.54-.35.57-.46.04-.11.07-.51-.27-.46Zm1.06 0c.27.05.31.63.3.92-.27.08-.55-.35-.58-.46-.03-.11-.06-.51.28-.46Zm-1.28 1.95c-.21-.12-.64-.45-.67-.86.23-.04.67.08.67.86Zm1.54-2.78c.21.12.64.45.67.86-.23.04-.67-.08-.67-.86Zm0 2.78c.21-.12.64-.45.67-.86-.23-.04-.67.08-.67.86Zm-1.23-.38c0-.4.29-.78.43-.91.14.13.43.5.43.91 0 .42-.29.63-.43.69a.74.74 0 0 1-.43-.69Zm.74-2c0 .23-.14.4-.31.4-.17 0-.3-.17-.3-.4 0-.22.13-.4.3-.4.17 0 .3.18.3.4Zm-1.35.92c0 .16-.1.28-.22.28-.11 0-.21-.12-.21-.28 0-.16.1-.29.21-.29.12 0 .22.13.22.29Zm.44-1.34c.1.06.25.01.35-.11.1-.13.1-.29 0-.35-.09-.07-.25-.02-.35.11-.1.13-.1.28 0 .35Zm.92-.11c.1.12.26.17.36.11.09-.07.09-.22-.01-.35-.1-.13-.26-.18-.36-.11-.1.06-.09.22.01.35Zm1 1.73c.11 0 .21-.12.21-.28 0-.16-.1-.29-.21-.29-.12 0-.22.13-.22.29 0 .16.1.28.22.28ZM50.88 22.41c-.16-.17-.6-.48-1.02-.4.02.22.25.61 1.02.4Zm-.76.47c-.11-.24-.7-.13-.99-.04-.02.28.48.42.6.42s.53-.08.39-.38Zm1.48.14c-.03-.1.04-.2.15-.23.1-.03.22.03.24.12.03.1-.04.2-.15.23-.1.03-.22-.03-.24-.12Zm-.33.82c-.07.23-.29.73-.7.86-.09-.2-.08-.65.7-.86Zm-1.72.56c.29-.07.86-.27.83-.53-.02-.33-.41-.2-.52-.14-.1.06-.47.43-.31.67Zm-1.05.19c.16.17.6.48 1.02.4-.02-.22-.25-.61-1.02-.4Zm-.38-1.43c.06-.23.28-.73.68-.86.1.2.1.65-.68.86Zm.67 1.04c.41-.11.71-.48.8-.64-.16-.1-.6-.27-1.01-.16a.77.77 0 0 0-.58.58c.1.12.38.33.8.22Zm1.5-.83c-.05-.16.1-.33.32-.4.22-.05.43.03.47.19.04.16-.1.33-.32.39s-.44-.02-.48-.18Zm-.26 1.11c-.16.04-.26.17-.23.28.03.1.18.16.34.12.15-.04.26-.16.23-.28-.03-.1-.18-.16-.34-.12Zm1.25-1.13c-.1.13-.11.3-.02.36.09.08.24.03.34-.1.1-.12.12-.28.03-.36-.1-.07-.25-.02-.35.1Zm-.14-.53c-.15-.06-.24-.2-.2-.3.04-.1.2-.15.35-.09.15.06.24.2.2.3-.04.11-.2.15-.35.09Zm-1.75-.74c-.16.04-.26.17-.23.28.02.1.18.16.33.12.16-.04.27-.17.24-.28-.03-.1-.19-.16-.34-.12Zm-7.27.33c.16-.17.6-.48 1.02-.4-.02.22-.25.61-1.02.4Zm.76.47c.11-.24.7-.13.99-.04.02.28-.48.42-.6.42s-.53-.08-.39-.38Zm-1.48.14c.03-.1-.04-.2-.15-.23-.1-.03-.22.03-.24.12-.03.1.04.2.15.23.1.03.22-.03.24-.12Zm.33.82c.07.23.29.73.7.86.09-.2.08-.65-.7-.86Zm1.72.56c-.29-.07-.86-.27-.83-.53.02-.33.41-.2.52-.14.1.06.47.43.31.67Zm1.05.19c-.16.17-.6.48-1.02.4.02-.22.25-.61 1.02-.4Zm.38-1.43c-.06-.23-.28-.73-.68-.86-.1.2-.1.65.68.86Zm-.67 1.04c-.41-.11-.71-.48-.8-.64.16-.1.6-.27 1.01-.16.41.11.56.44.58.58a.76.76 0 0 1-.8.22Zm-1.5-.83c.05-.16-.1-.33-.32-.4-.22-.05-.43.03-.47.19-.04.16.1.33.32.39s.44-.02.48-.18Zm.26 1.11c.16.04.26.17.23.28-.03.1-.18.16-.34.12-.15-.04-.26-.16-.23-.28.03-.1.18-.16.34-.12Zm-1.25-1.13c.1.13.11.3.02.36-.09.08-.24.03-.34-.1-.1-.12-.12-.28-.03-.36.1-.07.25-.02.35.1Zm.14-.53c.15-.06.24-.2.2-.3-.04-.1-.2-.15-.35-.09-.15.06-.24.2-.2.3.04.11.2.15.35.09Zm1.75-.74c.16.04.26.17.23.28-.02.1-.18.16-.33.12-.16-.04-.27-.17-.24-.28.03-.1.19-.16.34-.12ZM48.16 25c.27 0 .87.1 1.13.48-.18.15-.67.27-1.13-.48Zm-1.43.8c-.14.22-.35.77-.14 1.18.23-.08.59-.43.14-1.18ZM49.05 27c.23-.18-.07-.77-.24-1.04-.31.06-.32.62-.28.74.03.13.24.53.52.3Zm-1.81-.17c.15.28.54.82.82.72.35-.12.08-.49-.01-.58-.1-.1-.6-.37-.81-.14Zm1.1 1.64c-.27 0-.87-.1-1.13-.48.18-.16.67-.27 1.13.48Zm.98.11c.1-.05.23 0 .3.1.06.1.03.23-.06.29-.1.05-.23 0-.3-.1-.06-.1-.03-.24.07-.29Zm.45-.91c.14-.22.35-.77.14-1.18-.23.08-.59.43-.14 1.18ZM47.23 26c.24.4.72.6.93.66.06-.2.11-.71-.13-1.11a.87.87 0 0 0-.8-.44.8.8 0 0 0 0 .89Zm1.33 1.32c.16-.09.4.01.52.23.13.21.1.46-.05.54-.16.1-.4-.01-.52-.22-.13-.22-.1-.46.05-.55Zm-1.27.05c-.1-.16-.26-.23-.37-.17-.11.06-.13.24-.04.39.1.15.26.22.37.16.11-.06.13-.23.04-.38Zm1.58.99c-.17-.07-.34-.04-.4.07-.05.11.05.26.21.34.17.07.35.03.4-.08.05-.11-.04-.26-.2-.33Zm.54-.3c.02-.18.14-.3.27-.3.12.02.21.17.19.35-.02.17-.14.3-.27.29-.12-.01-.21-.17-.2-.34Zm.29-2.03c-.1-.16-.26-.23-.37-.17-.1.06-.12.24-.03.39.09.15.25.23.36.16.12-.06.13-.23.04-.38ZM44.84 25c-.27 0-.87.1-1.13.48.18.15.67.27 1.13-.48Zm1.43.8c.14.22.35.77.14 1.18-.23-.08-.59-.43-.14-1.18ZM43.95 27c-.23-.18.07-.77.24-1.04.31.06.32.62.28.74-.03.13-.24.53-.52.3Zm1.81-.17c-.15.28-.54.82-.82.72-.35-.12-.08-.49.01-.58.1-.1.6-.37.81-.14Zm-1.1 1.64c.27 0 .87-.1 1.13-.48-.18-.16-.67-.27-1.13.48Zm-.98.11c-.1-.05-.23 0-.3.1-.06.1-.03.23.06.29.1.05.23 0 .3-.1.06-.1.03-.24-.07-.29Zm-.45-.91c-.14-.22-.35-.77-.14-1.18.23.08.59.43.14 1.18ZM45.77 26c-.24.4-.72.6-.93.66-.06-.2-.11-.71.13-1.11.23-.4.63-.46.8-.44a.8.8 0 0 1 0 .89Zm-1.33 1.32c-.16-.09-.4.01-.52.23-.13.21-.1.46.05.54.16.1.4-.01.52-.22.13-.22.1-.46-.05-.55Zm1.27.05c.1-.16.26-.23.37-.17.11.06.13.24.04.39-.1.15-.26.22-.37.16-.11-.06-.13-.23-.04-.38Zm-1.58.99c.17-.07.34-.04.4.07.05.11-.05.26-.21.34-.17.07-.35.03-.4-.08-.05-.11.04-.26.2-.33Zm-.54-.3c-.02-.18-.14-.3-.27-.3-.12.02-.21.17-.19.35.02.17.14.3.27.29.12-.01.21-.17.2-.34Zm-.29-2.03c.1-.16.26-.23.37-.17.1.06.12.24.03.39-.09.15-.25.23-.36.16-.12-.06-.13-.23-.04-.38Z" fill="#AD872D"/><path d="M10 26h1.5v6H10v-6ZM25 26v6h5l-.47-1.5H26.5v-3h3.03L30 26h-5Z" fill="#004B26"/><path d="M29.65 29.66v-1.32H27v1.32h2.65ZM6.5 26H5v6h1.5v-2.34H9v-1.32H6.5V26Z" fill="#004B26"/><path fill-rule="evenodd" d="M22.42 26H19v6h3.42c.87 0 1.58-.77 1.58-1.71 0-.52-.2-.98-.53-1.29.32-.31.53-.77.53-1.29 0-.94-.7-1.71-1.58-1.71Zm-.16 1.35H20.5v3.2h1.76c.3 0 .53-.27.53-.58 0-.32-.24-.57-.53-.57H21v-.9h1.26c.3 0 .53-.26.53-.58 0-.31-.24-.57-.53-.57ZM39 32a3 3 0 1 0 0-6 3 3 0 0 0 0 6Zm0-1.51a1.49 1.49 0 1 0 0-2.98 1.49 1.49 0 0 0 0 2.98Z" fill="#004B26"/><path d="M14.8 26h1.43L19 32h-1.56l-1.94-4.14-.77 1.64h1l.54 1.5h-2.24l-.47 1H12l2.8-6ZM35 26.17a3 3 0 1 0 0 5.66V30.1a1.49 1.49 0 1 1 0-2.2v-1.73Z" fill="#004B26"/></svg>