<!-- by TradingView --><svg width="56" height="56" viewBox="0 0 56 56" xmlns="http://www.w3.org/2000/svg"><path fill="#F0F3FA" d="M0 0h56v56H0z"/><path d="M25 16.48V41a32.7 32.7 0 0 0 4-.9V19c3.6 0 6.48 1.35 6.48 5.05 0 2.96-2.8 5.52-4.1 6.54L32 31c2.74-1.4 7-3.82 7-9.17S34.3 15 31.26 15c-2.44 0-5.2.99-6.26 1.48Z" fill="#009145"/><path d="M23 41V17a18.73 18.73 0 0 0-4 2.8v20.13c.7.33 2.96.85 4 1.07Z" fill="#F8502A"/><path d="M10.52 31.83C10.52 20.53 23.5 15.3 30 14.1 13.93 12.88 8 23.1 8 28.07c0 4 2.33 6.95 3.5 7.93-.33-1-.98-3.25-.98-4.17Z" fill="#F8502A"/><path d="M45.45 24.16c0 11.29-13.88 16.5-20.45 17.7 17 1.47 23-8.97 23-13.95 0-3.98-2.35-6.93-3.53-7.91.33 1 .98 3.25.98 4.16Z" fill="#009145"/></svg>