<!-- by TradingView --><svg width="56" height="56" fill="none" xmlns="http://www.w3.org/2000/svg"><path fill="#F0F3FA" d="M0 0h56v56H0z"/><path fill-rule="evenodd" clip-rule="evenodd" d="M19 20v-2h-4.985c-.01.552-.014 1.262-.015 2h5Zm0 .5h-5c0 .338 0 .675.002 1H19v-1Zm-4.985 3.491-.004-.491h2.525c.723-.16 1.543-.297 2.439-.378V23h-4.967l-.005-1H19v1.12c.556-.05 1.141-.079 1.75-.079.74 0 1.491.028 2.251.077-.002-.322-.001-.704 0-1.118H28v1.685c.406.06.812.124 1.218.19l.116-.375h4.176l-.337 1.042c.635.109 1.264.215 1.887.316l-.443-1.358h4.471c.282.822.521 1.528.668 1.978.9.08 1.774.125 2.611.125 4.514 0 5.472-.488 5.916-.714.048-.025.09-.046.129-.063-.956.884-3.873 2.653-7.889 2.653-2.393 0-6.254-.811-10.294-1.66-4.433-.931-9.082-1.908-12.244-1.908-1.722 0-3.689.396-4.457.594.268-.142.69-.325 1.242-.514h-.755ZM29.489 23l.31-1h4.194l-.322 1h-4.182Zm9.427 0a603.71 603.71 0 0 0-.345-1h-4.445l.327 1h4.463Zm-8.962-1.5h8.444l-.348-1h-7.786l-.31 1Zm-6.95 0H28v-1h-4.987l-.009 1ZM28 20h-4.982c.008-.73.018-1.435.026-2H28v2Zm9.876 0h-7.457l.62-2h6.137l.7 2Z" fill="#0095DA"/><path fill-rule="evenodd" clip-rule="evenodd" d="M5 26.646c1.269-.75 5.032-2.25 9.938-2.25 2.807 0 7.475.825 12.538 1.72 5.995 1.06 12.542 2.219 17.203 2.219 1.732 0 2.927.01 3.762.016 1.629.014 1.887.016 2.092-.088.04-.02.076-.043.12-.07.077-.05.177-.113.347-.193-1.316 1.36-3.332 3.219-8.858 3.219-3.293 0-8.605-1.248-14.164-2.553-6.099-1.432-12.495-2.934-16.846-2.934-2.368 0-5.075.61-6.132.914ZM14 33v-6.6c1.226.096 3.942.345 5 .576V33h-5Zm9 0v-5c1.392.26 6.58 1.708 9 2.4-.413.58-.843 1.975-1.006 2.6H23Zm14.77 0-.538-1.5 4.577.238L42.32 33h-4.55Z" fill="#2E3192"/><path fill-rule="evenodd" clip-rule="evenodd" d="M17.248 34h3.42l-.668.423v3.127l.667.45h-3.419l.752-.45v-1.072h-2v1.072l1 .45h-4l1-.45v-3.127L13 34h4l-1 .423V36h2v-1.577L17.248 34Zm6.822 4h-1.999l.454-.333L25.41 34l2.975 3.667.801.333h-2.933l.595-.333-.573-.667h-2.687l-.533.667 1.017.333Zm.813-2.622.962 1.122h-1.859l.896-1.122ZM29.742 34v1.436h.225c0-.706.682-.923 1.023-.944H32v3.036L31 38h4l-1-.472v-3.036h1.064c.77 0 .976.63.983.944h.368V34h-6.673Zm11.74 0H42v1.405c-.298-.343-1.188-1.03-2.347-1.03-1.158 0-1.407.31-1.387.465.04.114.394.386 1.483.565 1.361.225 2.514.832 2.514 1.331S41.622 38 39.575 38c-1.637 0-2.098-.305-2.124-.457L37 38v-1.414h.26c.064.341.616 1.023 2.315 1.023.362-.003 1.159-.116 1.457-.549.067-.122-.097-.412-1.283-.599-1.483-.232-2.68-.532-2.68-1.496 0-.772 1.723-.965 2.584-.965a4.174 4.174 0 0 1 1.648.374l.182.108V34Z" fill="#2D3091"/></svg>