<!-- by TradingView --><svg width="56" height="56" viewBox="0 0 56 56" xmlns="http://www.w3.org/2000/svg"><path fill="#F0F3FA" d="M0 0h56v56H0z"/><path d="m28 9 19 19-19 19L9 28 28 9Z" fill="#414199"/><circle cx="28" cy="28" r="13" fill="#FFD566"/><path d="M31 18h5v2h-2v18h-2V20h-1.61L25 37.64V38h-2V27h-3v-2h5v6.2L28.88 18H31Z" fill="#414199"/><path d="M25 19.95c0-2.08-1.78-2.83-2.66-2.95.36.12 1.1.57 1.1 1.4 0 1.02-1.1 1.55-1.9 1.63-.8.08-1.54.62-1.54 1.33 0 .71.47 1.64 1.66 1.64C23.2 23 25 21.75 25 19.95Z" fill="#EE313A"/></svg>