<!-- by TradingView --><svg width="56" height="56" viewBox="0 0 56 56" xmlns="http://www.w3.org/2000/svg"><path fill="#F0F3FA" d="M0 0h56v56H0z"/><path d="m38 13 6 3.56V43h-6V13ZM17 13l6 3.55V33.2L17 36V13Z" fill="#D1231B"/><path d="m33 33 6 3.47V43h-6V33ZM22 33l6 3.47V43h-6V33Z" fill="#D1231B"/><path d="m28 25 6 3.73v3.9L28 36V25ZM17 34h1v9h-1zM18.5 33h1v10h-1V33ZM20 33h1v10h-1z" fill="#D1231B"/><path fill="#D1231B" d="M28 34h1v9h-1zM29.5 33h1v10h-1V33ZM31 33h1v10h-1zM12 16.75l1-.75v27h-1V16.75ZM13.5 15.87l1-.87v28h-1V15.87ZM15 14.7l1-.7v29h-1V14.7ZM33 16.75l1-.75v27h-1V16.75ZM34.5 15.87l1-.87v28h-1V15.87ZM36 14.7l1-.7v29h-1V14.7ZM23 28.77l1-.77v13h-1V28.77ZM24.5 27.87l1-.87v15h-1V27.87ZM26 26.7l1-.7v16h-1V26.7Z"/></svg>