<!-- by TradingView --><svg width="56" height="56" viewBox="0 0 56 56" xmlns="http://www.w3.org/2000/svg"><path fill="#F0F3FA" d="M0 0h56v56H0z"/><path d="M44 29H33v1h-1c0-3.33-2.56-3.88-4-3.7V24h-5v6h-5v4h-5V22c1.66-1.14 4.56-1.3 5.04-1.3.47 0 3.96-.23 3.96 1.3 0 1.54-2.44 2-3.96 2-1.53 0-2.6-.77-2.6-1.19 0-.42.73-.81 1.68-.81.94 0 .63 1.23 1.52 1.23.9 0 1.87-.63 1.87-1.15 0-.52-1.03-1.08-2.76-1.08-1.74 0-3.31 1.08-3.31 1.81s.7 2.19 3.6 2.19c2.89 0 4.96-1.5 4.96-3 0-.88-2.47-2-4.96-2C14.09 20 6 22.68 6 29.13c0 5.16 4.84 6.73 7.25 6.87H23v-2h10v1h4v-1c4-1.19 6.4-3.73 7-5Z" fill="#0085D4"/><path fill-rule="evenodd" d="M26.54 16h1.8l.09.04c1.41.76 2.64 1.71 3.7 2.76a23.4 23.4 0 0 0 5.02-1.5l.32.62c-.86.4-2.6 1.04-4.75 1.48 1.39 1.5 2.44 2.99 3.19 4.42.6-.05 1.2-.12 1.78-.2 1.52-.2 2.96-.35 4.15-.75 1.2-.4 2.09-.91 2.57-1.5l.59.42a6.3 6.3 0 0 1-2.91 1.74c-1.26.42-2.75.58-4.3.79-.5.07-1.03.13-1.54.18.4.84.57 1.73.75 2.3l-.71.2c-.18-.6-.38-1.53-.83-2.44-2.35.19-4.85.2-6.46.14l.03-.7c1.52.06 3.87.05 6.08-.11a19.86 19.86 0 0 0-3.24-4.33c-1.12.2-2.63.42-3.87.44v2h-1v-2c-1.42-.03-2.27-.22-3.45-.46l-.42.36-.5-.52.04-.04A15.5 15.5 0 0 1 19 17.9l.37-.6c.68.36 2.06 1.03 3.96 1.46L26.54 16Zm-2.31 2.95c1 .18 1.6.24 2.77.26v-2.5h-.17l-2.6 2.24ZM28 16.8c1.1.6 2.38 1.35 3.25 2.16-.94.15-2.24.24-3.25.26V16.8Z" fill="#0085D4"/><path d="M49 28c0 7.18-9.58 13-21.53 13-6.2 0-11.8-1.57-15.75-4.09a8.88 8.88 0 0 0 4.53.08A30.7 30.7 0 0 0 27.5 39C38.27 39 47 34.08 47 28s-8.73-11-19.5-11c-4.75 0-9.1.96-12.48 2.55a8.96 8.96 0 0 0-5.66 1.34C13.22 17.34 19.89 15 27.47 15 39.42 15 49 20.82 49 28Z" fill="#0085D4"/><path d="m23 37-.34 3-2.66-.48L21.26 37H23ZM39.64 36c.66 0 .27.97 0 1.5l-1.63.24c-.7-.69-2.3-.18-2.12-.24-2.26.77-6.2.48-7.89.24 1.42-.74 4.9-1 6.47-1.05-3.86-.65-5.02-1.4-5.12-1.69 6.21.27 8.36 1.94 8.66 2.74.27-.6.97-1.74 1.63-1.74ZM45 28h3v1h-3z" fill="#0085D4"/></svg>