<!-- by TradingView --><svg width="56" height="56" viewBox="0 0 56 56" xmlns="http://www.w3.org/2000/svg"><path fill="#F0F3FA" d="M0 0h56v56H0z"/><path fill-rule="evenodd" d="M42.43 30h-2.65c-.98 0-1.78.8-1.78 1.8V40h3.97L45 37.5v-5.06L42.43 30Zm-2.05 2c-.21 0-.38.19-.38.42v5.16c0 .23.17.42.38.42h2.24c.21 0 .38-.19.38-.42v-5.16c0-.23-.17-.42-.38-.42h-2.24ZM24.43 30h-2.65c-.98 0-1.78.8-1.78 1.8V40h3.97L27 37.5v-5.06L24.43 30Zm-2.05 2c-.21 0-.38.19-.38.42v5.16c0 .23.17.42.38.42h2.25c.2 0 .37-.19.37-.42v-5.16c0-.23-.17-.42-.38-.42h-2.25Z" fill="#322824"/><path d="M29 30a1 1 0 1 0 0 2h2v7a1 1 0 1 0 2 0v-7h2a1 1 0 1 0 0-2h-6ZM13.86 30.26a.9.9 0 0 1 1.28 0l.19.19 1.75 1.66c.45.43.92.87.92 1.4v5.25c0 .68-.37 1.24-1 1.24s-1-.56-1-1.24V37l-2-2h2v-3h-3v6.76c0 .68-.37 1.24-1 1.24s-1-.56-1-1.24v-5.24c0-.54.47-.98.92-1.4l1.75-1.67.2-.19Z" fill="#322824"/><path fill-rule="evenodd" d="M25.87 10.03a5.98 5.98 0 0 0-3.64 3.75c-2 .5-3.58 1.95-4.23 3.8.58-.4 1.39-.35 1.91.15l.74.7c.57.55.57 1.44 0 1.99l-.74.7c-.52.5-1.33.55-1.91.14a6.02 6.02 0 0 0 4.18 3.8 5.97 5.97 0 0 0 3.71 3.9 1.36 1.36 0 0 1 .38-1.38l.73-.7c.58-.55 1.51-.55 2.09 0l.73.7c.4.39.53.94.37 1.42a5.97 5.97 0 0 0 3.8-3.98 6.02 6.02 0 0 0 4.01-3.7c-.57.34-1.33.27-1.82-.2l-.74-.7a1.36 1.36 0 0 1 0-2l.74-.7c.5-.47 1.25-.53 1.82-.2a6.02 6.02 0 0 0-4.05-3.7A5.98 5.98 0 0 0 30.21 10c.12.46 0 .97-.39 1.34l-.73.7c-.58.55-1.51.55-2.09 0l-.73-.7c-.37-.36-.5-.85-.4-1.3Zm-2.77 2.34a1.36 1.36 0 0 0 0 2l.73.7c.58.55 1.51.55 2.09 0l.73-.7c.58-.56.58-1.45 0-2l-.73-.7a1.52 1.52 0 0 0-2.09 0l-.73.7Zm-2.18 2.33c.58-.55 1.51-.55 2.09 0l.73.7c.58.55.58 1.44 0 2l-.73.7c-.58.54-1.51.54-2.09 0l-.73-.7a1.36 1.36 0 0 1 0-2l.73-.7Zm0 6.05c.58-.55 1.51-.55 2.09 0l.73.7c.58.56.58 1.45 0 2l-.73.7c-.58.55-1.51.55-2.09 0l-.73-.7a1.36 1.36 0 0 1 0-2l.73-.7Zm6-.33c.57-.55.57-1.44 0-2l-.74-.7a1.52 1.52 0 0 0-2.09 0l-.73.7a1.36 1.36 0 0 0 0 2l.73.7c.58.55 1.51.55 2.09 0l.73-.7Zm8.17-5.72a1.52 1.52 0 0 0-2.08 0l-.74.7a1.36 1.36 0 0 0 0 2l.74.7c.58.54 1.5.54 2.08 0l.74-.7c.58-.56.58-1.45 0-2l-.74-.7Zm-2.08 6.05c.58-.55 1.5-.55 2.08 0l.74.7c.58.56.58 1.45 0 2l-.74.7c-.57.55-1.5.55-2.08 0l-.74-.7a1.36 1.36 0 0 1 0-2l.74-.7Zm-.28-2.32c.58.55.58 1.44 0 1.99l-.73.7c-.58.55-1.51.55-2.09 0l-.73-.7a1.36 1.36 0 0 1 0-2l.73-.7c.58-.54 1.51-.54 2.09 0l.73.7Zm-9.63 6.2a1.36 1.36 0 0 0 0 1.99l.73.7c.58.55 1.51.55 2.09 0l.73-.7c.58-.55.58-1.45 0-2l-.73-.7a1.52 1.52 0 0 0-2.09 0l-.73.7Zm6.34 1.99a1.36 1.36 0 0 1 0-2l.73-.7c.58-.55 1.51-.55 2.09 0l.73.7c.58.55.58 1.45 0 2l-.73.7c-.58.55-1.51.55-2.09 0l-.73-.7Zm-.35-5.73a1.52 1.52 0 0 0-2.09 0l-.73.7a1.36 1.36 0 0 0 0 2l.73.7c.58.55 1.51.55 2.09 0l.73-.7c.58-.55.58-1.44 0-2l-.73-.7Zm.35-6.53a1.36 1.36 0 0 1 0-1.99l.73-.7c.58-.55 1.51-.55 2.09 0l.73.7c.58.55.58 1.44 0 2l-.73.7c-.58.55-1.51.55-2.09 0l-.73-.7Zm-2.44.27c.58-.55 1.51-.55 2.09 0l.73.7c.58.55.58 1.44 0 2l-.73.7c-.58.54-1.51.54-2.09 0l-.73-.7a1.36 1.36 0 0 1 0-2l.73-.7Z" fill="#DA3D58"/></svg>