<!-- by TradingView --><svg width="56" height="56" viewBox="0 0 56 56" xmlns="http://www.w3.org/2000/svg"><path fill="#F0F3FA" d="M0 0h56v56H0z"/><path d="M15.56 31.8A13.12 13.12 0 0 1 26 15.04V11a17.12 17.12 0 0 0-14.44 21.33l4-.53ZM30 41v3.88a17 17 0 0 0 13.25-24.4l-2.87 3.54A13.16 13.16 0 0 1 30 41Z" fill="#00549B"/><path d="M23 20.69A9.7 9.7 0 0 1 26 19v9.28L23 30v-9.31Z" fill="#F51D2C"/><path fill-rule="evenodd" d="M12 34.69c5.56.19 20-4.07 33-20.69-1.79 3.39-6 9.37-12 14.58v7.58A9.52 9.52 0 0 1 30 38v-7c-1.27.94-2.6 1.83-4 2.65V45a17.42 17.42 0 0 1-14-10.31Zm6.64 2.3c1.5-.48 2.96-1.06 4.36-1.74v4.81l-.63-.3A13.29 13.29 0 0 1 18.64 37Z" fill="#F51D2C"/><path d="M33 11.91a5.65 5.65 0 0 0-3-.91v15l3-2.2V11.9ZM38 12l.7 2H41l-1.85 1.7.7 2.3L38 16.58 36.15 18l.7-2.3L35 14h2.3l.7-2Z" fill="#F51D2C"/></svg>