<!-- by TradingView --><svg width="56" height="56" viewBox="0 0 56 56" xmlns="http://www.w3.org/2000/svg"><path fill="#F0F3FA" d="M0 0h56v56H0z"/><path d="M33 28c.38 0 .64-.3.64-.9 0-.28-.05-.65-.14-1.12-.08-.42-.2-.86-.34-1.32C32.8 23.54 32.43 23 32 23c-.89 0-.6 1.45-.5 1.98.1.47.22.92.36 1.34.36 1.13.64 1.68 1.14 1.68Zm-3-2.07c0-1.67.98-3.93 2.92-3.93 1.52 0 2.08 1.72 2.08 3 0 1.64-.9 4-2.85 4-1.59 0-2.15-1.76-2.15-3.07ZM26.76 29H25v-7h2v2.77c.25-.77.65-2.77 1.7-2.77.8 0 1.08 1.24 1.3 1.81L28.45 25c-.05-.23-.12-1-.4-1-.92 0-1.26 4.39-1.3 5ZM20.67 26.9c.48.7.98 1.1 1.51 1.1.55 0 .63-.52.63-.97 0-1.06-.15-2.09-.4-2.9-.09-.36-.22-.54-.38-.54-.3 0-.44.5-.53.7-.27.64-.55 1.5-.83 2.6ZM19 32V22h2v2.16c.2-.56.39-1 .56-1.29.35-.62.7-.87 1.2-.87C24 22 24 23.67 24 24.61c0 1.4-.52 4.39-2.25 4.39-.3 0-.5-.1-.75-.49V32h-2ZM16.64 24c-.48-.65-.98-1-1.5-1-.24 0-.4.07-.5.2-.09.13-.14.37-.14.7 0 .96.13 2.06.4 2.98.1.36.22.54.4.54.18 0 .33-.25.51-.7.31-.76.59-1.72.83-2.72ZM18 22v7h-2v-1.5c-.3.8-.4 1.5-1.45 1.5-1.21 0-1.55-1.67-1.55-2.59 0-1.3.85-4.41 2.62-4.41.24 0 .45.07.64.2.2.16.41.45.65.8l.09-1h1ZM12 19v10h-2v-4.41a.65.65 0 0 0-1.03-.54l-.97.68V29H6V19h2v4.53a4.77 4.77 0 0 1 2-1.03V19h2Z" fill="#2E2E6C"/><path d="m42.84 33.74-1.24.72-.56 1.18 1.52-1.06-.6 1.42h.24l1.72-.4.2-.63-.76-.83 1.4-.83.54-1.31h-1.8l-.66 1.74Z" fill="#C52C2E"/><path d="M18.24 35H41.5l-.25.5-.25.5H18l.24-1ZM42.5 35H51l-.25 1H42l.5-1Z" fill="#C52C2E"/><path d="M23.68 32h1.82l-.68 2.14c-.13.54.1.79.27.87l1.1-3.01H28l-1.29 3.55H25.5l-.98.08-1.52-1.5.68-2.13ZM41.52 30h1.94L41 36l-1.66-.44L41.52 30ZM29.18 32.72c.15-.44.52-.72.94-.72h3.37c.36 0 .6.42.47.8L32.81 36H30.8l1.15-3h-.76l-1.15 3H28l1.18-3.28ZM40.71 30h-1.94L38 32h-2.06c-.4 0-.75.24-.9.6l-1.28 2.96h1.94L36.77 33h.73l-1.07 2.56h1.94L40.7 30ZM50.59 32c.29 0 .49.33.38.64L49.77 36h-2l.51-1.6h-.75l-.52 1.6H45l.54-1.64a1 1 0 0 1 .93-.68h2.13l.18-.68h-2.64l.35-1h4.1Z" fill="#C52C2E"/></svg>