<!-- by TradingView --><svg width="56" height="56" viewBox="0 0 56 56" xmlns="http://www.w3.org/2000/svg"><path fill="#F0F3FA" d="M0 0h56v56H0z"/><path d="M18 21h9v2h-1.07a.93.93 0 0 0-.93.93V26h6v-2.07a.93.93 0 0 0-.93-.93H29v-2h9v2h-1.07a.93.93 0 0 0-.93.93v7.14c0 .51.42.93.93.93H38v2h-9v-2h1.07c.51 0 .93-.42.93-.93V29h-6v2.07c0 .51.42.93.93.93H27v2h-9v-2h1.07c.51 0 .93-.42.93-.93v-7.14a.93.93 0 0 0-.93-.93H18v-2Z" fill="#D8261C"/><path d="M43.28 35.47a17 17 0 0 1-30.56 0l2.78.99 1.2-2.04a13 13 0 0 0 22.6 0l1.2 2.04 2.78-1Z" fill="#2A166F"/><path fill-rule="evenodd" d="M28 40.42a12.42 12.42 0 1 0 0-24.84 12.42 12.42 0 0 0 0 24.84Zm0 .58a13 13 0 1 0 0-26 13 13 0 0 0 0 26Z" fill="#2A166F"/><path fill-rule="evenodd" d="M28 41.42a13.42 13.42 0 1 0 0-26.84 13.42 13.42 0 0 0 0 26.84Zm0 .58a14 14 0 1 0 0-28 14 14 0 0 0 0 28Z" fill="#2A166F"/><path fill-rule="evenodd" d="M28 42.42a14.42 14.42 0 1 0 0-28.84 14.42 14.42 0 0 0 0 28.84Zm0 .58a15 15 0 1 0 0-30 15 15 0 0 0 0 30Z" fill="#2A166F"/><path fill-rule="evenodd" d="M28 43.42a15.42 15.42 0 1 0 0-30.84 15.42 15.42 0 0 0 0 30.84Zm0 .58a16 16 0 1 0 0-32 16 16 0 0 0 0 32Z" fill="#2A166F"/><path fill-rule="evenodd" d="M28 44.42a16.42 16.42 0 1 0 0-32.84 16.42 16.42 0 0 0 0 32.84Zm0 .58a17 17 0 1 0 0-34 17 17 0 0 0 0 34Z" fill="#2A166F"/><path d="M36.86 39.93 36 39.1a.77.77 0 0 0-.23-.17c-.08-.03-.15 0-.22.06s-.09.13-.06.2a.7.7 0 0 0 .17.23l.84.84c.2.2.36.24.47.13.07-.07.09-.14.05-.21a.85.85 0 0 0-.17-.24Zm-.4-1.32.83.83c.13.12.22.23.28.34.06.1.1.2.11.32a.6.6 0 0 1-.07.32c-.05.1-.14.21-.26.33a1.1 1.1 0 0 1-.46.28.68.68 0 0 1-.44-.04c-.15-.06-.3-.17-.46-.33l-.83-.83c-.2-.2-.3-.4-.29-.6 0-.22.11-.43.32-.62.21-.2.43-.3.64-.3.22 0 .43.1.63.3ZM34 40.54l-.6.38-.12-.15a.57.57 0 0 0-.2-.21c-.08-.03-.15-.03-.2 0-.1.06-.14.12-.15.19 0 .06.02.13.08.22l.82 1.24c.05.07.1.12.17.14.06.01.13 0 .2-.05.1-.06.14-.13.12-.22a.79.79 0 0 0-.13-.28l-.15-.23.61-.38.2.3c.1.15.16.3.17.44a.7.7 0 0 1-.12.44c-.09.14-.24.28-.44.4-.18.12-.35.18-.51.2a.7.7 0 0 1-.44-.11 1.35 1.35 0 0 1-.37-.4l-.69-1.02c-.12-.18-.19-.35-.2-.5a.64.64 0 0 1 .08-.43c.09-.14.22-.26.41-.38.56-.35 1-.28 1.32.2l.15.21ZM26.76 40.88l.18.94.45-.85.68.1-.83 1.38.4 1.55-.67-.1-.2-.92-.53.82-.65-.1.88-1.36-.39-1.56.68.1ZM22.64 42.78l-.67-.28 1.86-2.46.79.33-.63 2.99-.66-.29.14-.56-.51-.22-.32.5Zm.99-.78.37-1.3-.75 1.14.38.16ZM30.18 43.83l-.7.14.02-3.04.84-.18 1.29 2.79-.71.14-.23-.55-.55.12.04.58Zm.34-1.2-.48-1.26h-.01l.08 1.35.4-.09ZM19.55 41.1l-.55-.42 1.8-2.23.54.41-.68.86.38.28.69-.85.55.4-1.8 2.24-.54-.41.74-.93-.38-.28-.75.92Z" fill="#F0F3FA"/></svg>