<!-- by TradingView --><svg xmlns="http://www.w3.org/2000/svg" width="56" height="56" viewBox="0 0 56 56"><path fill="#012D45" d="M0 0h56v56H0z"/><path d="M26 24.5V11c0 2.45-2 3.05-3 3.04-2.27 0-2.95 1.94-3 2.91v7.55h6Zm-7.55.5h9.05v6.01l-9-.01c-.52 0-1 .48-1 1s.4 1 .91 1h.06c.56 0 1.03-.44 1.03-1v-.5l6-.02v.47A7 7 0 1 1 18.46 25ZM28 36.02V23.98A6.99 6.99 0 1 1 42 24c0 2.33-1.13 4.4-2.88 5.68a7.02 7.02 0 0 0-4.17-1.18h-.45V25h.5a1 1 0 0 0 1-1v-.06c0-.52-.48-.94-1-.94s-1 .48-1 1v12.06c0 .52.48.94 1 .94s1-.42 1-.94V36c0-.55-.55-1-1.1-1h-.4v-6h.45A7 7 0 1 1 28 36.02Z" fill="#00A0E3"/></svg>