<!-- by TradingView --><svg width="56" height="56" viewBox="0 0 56 56" xmlns="http://www.w3.org/2000/svg"><path fill="#F0F3FA" d="M0 0h56v56H0z"/><ellipse cx="28" cy="28" rx="20" ry="13" fill="#00ADE6"/><ellipse cx="28" cy="28" rx="13" ry="10" fill="#7BC5F7"/><circle cx="28" cy="28" r="8" fill="#A5DEF7"/><circle cx="28" cy="28" r="4" fill="#E6EFF7"/><path d="M15.47 17.94c-.2.1-.4.22-.59.33 3.46 2.09 8.06 3.36 13.12 3.36 5.06 0 9.66-1.27 13.12-3.36l-.6-.33C37.22 19.9 32.82 21 28 21c-4.83 0-9.21-1.11-12.53-3.06Zm25.7 19.92c-3.46-2.13-8.09-3.44-13.17-3.44s-9.7 1.3-13.17 3.44l.64.35A24.79 24.79 0 0 1 28 35c4.83 0 9.21 1.25 12.53 3.21l.64-.35Z" fill="#E6EF29"/><path fill="#E6EF29" d="M28 34.81h.65V41H28zM28 15h.65v6.19H28zM14 28v.63H8V28h6ZM48 28v.63h-6V28h6Z"/><path d="M41 25.42h-.95a.75.75 0 0 0-.31-.5.96.96 0 0 0-.3-.14c-.1-.04-.22-.05-.35-.05-.23 0-.43.05-.6.15a1 1 0 0 0-.4.43c-.09.2-.14.42-.14.69 0 .28.05.51.14.7.1.19.23.33.4.43.17.1.37.14.6.14.12 0 .24-.01.35-.04.1-.03.2-.07.28-.13a.78.78 0 0 0 .33-.48H41c-.02.18-.09.35-.18.52-.1.16-.23.3-.4.44-.16.13-.36.23-.58.3-.23.08-.48.12-.77.12-.4 0-.75-.08-1.06-.24a1.8 1.8 0 0 1-.74-.68c-.18-.3-.27-.66-.27-1.08 0-.42.1-.79.27-1.08.19-.3.43-.53.75-.68a2.58 2.58 0 0 1 1.77-.14c.22.06.41.15.58.27a1.49 1.49 0 0 1 .63 1.05ZM29 28l.88-4h1.77c.34 0 .62.06.83.17.22.12.37.28.45.48.08.2.1.44.03.7-.05.27-.17.5-.34.7-.18.21-.4.37-.67.48-.27.12-.57.17-.92.17H29.9l.15-.67h.98c.18 0 .34-.03.47-.09a.82.82 0 0 0 .49-.58.6.6 0 0 0-.02-.35.42.42 0 0 0-.21-.23.95.95 0 0 0-.44-.09h-.64L29.95 28H29ZM28 24l-.96 4H26l.96-4H28ZM21.1 28H20l2.96-4h1.32l.72 4h-1.1l-.48-3.09h-.04L21.1 28Zm.64-1.57h2.6l-.16.66h-2.6l.16-.66ZM33.1 28H32l2.96-4h1.32l.72 4h-1.1l-.48-3.09h-.04L33.1 28Zm.64-1.57h2.6l-.16.66h-2.6l.16-.66ZM15 28l.94-4h1l-.38 1.65h2.05l.38-1.65H20l-.94 4h-1l.38-1.65H16.4L16 28h-1ZM41.33 30.98a.48.48 0 0 0-.03-.18.34.34 0 0 0-.1-.14.42.42 0 0 0-.16-.08.95.95 0 0 0-.66.08c-.14.07-.27.18-.38.32a1.6 1.6 0 0 0-.31 1.04c.02.14.08.25.17.32.1.08.22.11.39.11.14 0 .27-.02.4-.07a.85.85 0 0 0 .48-.54l.13.02h-.8l.15-.46h1.28l-.11.37a1.7 1.7 0 0 1-.98 1.08c-.22.1-.47.15-.72.15-.3 0-.52-.06-.7-.18a.83.83 0 0 1-.35-.52c-.05-.22-.03-.49.06-.8a2.27 2.27 0 0 1 .75-1.1 1.96 1.96 0 0 1 1.14-.4c.17 0 .33.02.46.07.14.05.25.12.34.2.09.1.15.2.19.32.03.12.04.25.02.4h-.66ZM39 30l-1.04 3h-.64l-.9-1.89h-.02L35.75 33H35l1.04-3h.65l.88 1.89h.03l.65-1.89H39ZM34.91 31.5c-.1.32-.24.59-.43.81-.2.23-.41.4-.66.51-.25.12-.5.18-.77.18s-.5-.06-.67-.18a.83.83 0 0 1-.35-.5c-.05-.23-.04-.5.06-.82.1-.32.24-.59.43-.81.2-.23.41-.4.66-.51.25-.12.5-.18.77-.18s.49.06.67.18c.17.11.3.28.35.5.06.23.04.5-.06.82Zm-.65 0c.07-.2.09-.38.07-.52a.48.48 0 0 0-.17-.32.58.58 0 0 0-.37-.11c-.16 0-.3.03-.44.1-.13.08-.26.19-.36.33a1.68 1.68 0 0 0-.32 1.04c.02.14.08.25.17.32.1.08.22.11.37.11.16 0 .3-.03.44-.1.14-.08.26-.19.36-.33.1-.14.2-.31.25-.52ZM31.39 30H32l-.55 1.92c-.06.22-.17.4-.31.57-.15.16-.33.29-.53.38-.2.09-.43.13-.67.13-.24 0-.44-.04-.6-.13a.67.67 0 0 1-.3-.38.95.95 0 0 1 .01-.57L29.6 30h.61l-.53 1.87a.57.57 0 0 0-.02.3c.03.09.08.15.15.2a.5.5 0 0 0 .29.08.79.79 0 0 0 .6-.28.8.8 0 0 0 .15-.3L31.4 30ZM27.04 33H26l.86-3h1.05c.3 0 .54.06.72.18.18.12.3.3.34.51.05.23.03.5-.05.8-.1.32-.23.59-.41.81a1.83 1.83 0 0 1-1.47.7Zm-.26-.54h.4c.18 0 .34-.04.49-.1a.96.96 0 0 0 .37-.32c.1-.14.19-.32.25-.54.07-.22.09-.4.06-.55a.43.43 0 0 0-.19-.3.82.82 0 0 0-.44-.1h-.4l-.54 1.9ZM21 33l.77-3h.55L22 31.24h1.13l.32-1.24H24l-.77 3h-.55l.32-1.24h-1.13L21.55 33H21ZM21 30l-.78 3h-.48l-.67-1.89h-.02L18.56 33H18l.78-3h.49l.66 1.89h.02l.5-1.89H21ZM17.82 29l-.2.56H17l.2-.56h.62ZM17.5 30l-.87 3H16l.87-3h.64ZM13 33l.91-3h1.25c.23 0 .41.03.55.1a.5.5 0 0 1 .26.27c.04.12.04.25 0 .4a.85.85 0 0 1-.17.3.96.96 0 0 1-.27.22c-.1.06-.21.1-.33.12v.03c.11 0 .21.04.3.1.09.06.15.14.18.25.03.1.02.23-.02.38-.05.16-.13.3-.25.43-.12.12-.27.22-.45.3-.19.06-.4.1-.63.1H13Zm.82-.52h.54a.8.8 0 0 0 .43-.1c.1-.07.17-.16.2-.27a.35.35 0 0 0 .01-.22.27.27 0 0 0-.13-.15.53.53 0 0 0-.26-.06h-.55l-.24.8Zm.37-1.22h.49a.7.7 0 0 0 .25-.05.6.6 0 0 0 .21-.13c.06-.06.1-.13.13-.2.03-.11.02-.2-.04-.27-.06-.06-.17-.1-.31-.1h-.5l-.23.75Z" fill="#DE2119"/></svg>