<!-- by TradingView --><svg width="56" height="56" viewBox="0 0 56 56" xmlns="http://www.w3.org/2000/svg"><path fill="#F0F3FA" d="M0 0h56v56H0z"/><path d="M16.21 26.76a9.7 9.7 0 0 1 .63-4.12l.24.12a9.44 9.44 0 0 0-.6 3.99h-.27ZM12.77 25.76c0-2.09.91-4.13 1.18-4.64l.24.13a10.9 10.9 0 0 0-1.15 4.5h-.27ZM24.37 13.27c-2.72.44-5 1.8-5.78 2.42l-.17-.22c.82-.64 3.14-2.03 5.9-2.47l.05.27Zm.28.59a22.83 22.83 0 0 0-4.25 1.57l-.12-.25c.86-.41 2.94-1.32 4.31-1.6l.06.28Zm.4.79c-1.5.3-3.31 1.14-4.03 1.53l-.13-.24c.73-.4 2.57-1.26 4.11-1.56l.05.27Zm1.37.9c-3.06.1-4.66 1.12-4.75 1.17l-.15-.23c.12-.08 1.78-1.12 4.9-1.22v.27Zm-6.2 2.94-.08.06-.14-.23.08-.06c.49-.32 2.47-1.65 5.43-2.16l.05.27c-2.9.5-4.85 1.8-5.33 2.12ZM15.73 24.42c.08-1.28.45-2.13.74-2.41l.23.1c-.26.26-.62 1.09-.7 2.33l-.27-.02ZM14.85 23.82c.08-1.27.46-2.13.74-2.4l.23.1c-.26.25-.62 1.08-.7 2.33l-.27-.03ZM13.83 24.3c.08-1.27.46-2.13.74-2.4l.23.1c-.26.25-.62 1.08-.7 2.33l-.27-.03Z" fill="#FCA138"/><path d="M19.29 16.27v1.34h.98l.85-1.62c-1-.11-1.64.14-1.83.28ZM18.68 15.44c-.55.2-.91.6-1.02.8.4.78.27 1.57.54 1.57s.48-.17.48-.48v-1.89ZM16.03 17.88c.43-.77.97-1.2 1.19-1.3.21 1.12.18 2.3.13 2.75-.24.02-.69.2-.88.27a2.9 2.9 0 0 0-.44-1.72ZM18.88 19.91c-1.6-.14-2.3.33-2.45.59l.17.48c.14-.03 1.06-.1 1.5-.14.19-.33.6-.76.78-.93ZM18.03 19.22v-.82c.95-.25 1.98-.1 2.38 0-.38.14-.9.72-1.12 1a2.53 2.53 0 0 0-1.26-.18Z" fill="#FCA138"/><path d="M13.92 21.15a25.9 25.9 0 0 1 1.67-2.82c.46.9.37 2.74.27 3.54a3.4 3.4 0 0 1 2-.45c-.38.22-.7 1.04-.81 1.41-.3-.19-.83.18-1.06.38.06-.25-.54-.35-.85-.38-.02-.24-.48-.42-.71-.48.08-.36-.3-.95-.5-1.2ZM20.68 34.11a7.61 7.61 0 0 0 6.11 3.37c.44.4.47.94-2.95 0a15.78 15.78 0 0 1-7.07-4.4c-2.47-.82-3.2-2.57-3.26-3.33 1.04.35 2.47 1.34 3.06 1.78.16-.8.72-1.4.99-1.61.9 1.37.26 2.5-.17 2.89a18.56 18.56 0 0 0 3.95 3.08c-.43-.27-1.63-1.97-2.19-2.8l.65-.56c1.41 1.6 4.03 2.45 5.16 2.68a9.27 9.27 0 0 1-4.28-1.1Z" fill="#FCA138"/><path d="M17.25 29.2a5.02 5.02 0 0 1-.44-1.07c-.63.38-1.03 1.44-1.16 1.93l.68.48c.22-.5.7-1.1.92-1.34ZM16.62 27.4a4.74 4.74 0 0 1-.19-1.03c-.6.24-1.13 1.12-1.32 1.53l.5.54c.27-.4.79-.86 1.01-1.04ZM15.86 25.76l-.99-1.28-.95 1.28c.22 0 .95.55 1.3.82l.64-.82ZM13.14 29.02c.04-.2-.12-.84-.2-1.13.85 0 1.9.68 2.3 1.02l-.38.77a7.73 7.73 0 0 0-1.72-.66ZM12.77 26.85c.08-.2.03-.85 0-1.15.84.15 1.75 1.01 2.1 1.42l-.52.69c-.45-.4-1.24-.8-1.58-.96ZM16.54 34.25c-.93-.44-4.08-4.29-5.54-6.15.65 1.01 3.03 4.52 4.14 6.15.35.2 1.12.5 1.4 0ZM39.79 26.76a9.7 9.7 0 0 0-.63-4.12l-.24.12c.23.47.68 1.94.6 3.99h.27ZM43.23 25.76c0-2.09-.91-4.13-1.18-4.64l-.24.13a10.9 10.9 0 0 1 1.15 4.5h.27ZM31.63 13.27c2.72.44 5 1.8 5.78 2.42l.17-.22a14.18 14.18 0 0 0-5.9-2.47l-.05.27Zm-.28.59c1.34.27 3.4 1.15 4.25 1.57l.12-.25a23.06 23.06 0 0 0-4.31-1.6l-.06.28Zm-.4.79c1.5.3 3.31 1.14 4.03 1.53l.13-.24c-.73-.4-2.57-1.26-4.11-1.56l-.05.27Zm-1.37.9c3.06.1 4.66 1.12 4.75 1.17l.15-.23c-.12-.08-1.78-1.12-4.9-1.22v.27Zm6.2 2.94.08.06.14-.23-.08-.06c-.49-.32-2.47-1.65-5.43-2.16l-.05.27c2.9.5 4.85 1.8 5.33 2.12ZM40.27 24.42c-.08-1.28-.45-2.13-.74-2.41l-.23.1c.26.26.62 1.09.7 2.33l.27-.02ZM41.15 23.82c-.08-1.27-.45-2.13-.74-2.4l-.23.1c.26.25.62 1.08.7 2.33l.27-.03ZM42.17 24.3c-.08-1.27-.46-2.13-.74-2.4l-.23.1c.26.25.62 1.08.7 2.33l.27-.03Z" fill="#FCA138"/><path d="M36.71 16.27v1.34h-.98l-.85-1.62c1-.11 1.64.14 1.83.28ZM37.32 15.44c.55.2.91.6 1.02.8-.4.78-.27 1.57-.54 1.57s-.48-.17-.48-.48v-1.89ZM39.97 17.88a3.52 3.52 0 0 0-1.18-1.3c-.22 1.12-.19 2.3-.14 2.75.24.02.69.2.88.27a2.9 2.9 0 0 1 .44-1.72ZM37.12 19.91c1.6-.14 2.3.33 2.45.59l-.17.48c-.14-.03-1.06-.1-1.5-.14-.19-.33-.6-.76-.78-.93ZM37.97 19.22v-.82a5.27 5.27 0 0 0-2.38 0c.38.14.9.72 1.12 1 .55-.22 1.07-.21 1.26-.18Z" fill="#FCA138"/><path d="M42.08 21.15a25.9 25.9 0 0 0-1.67-2.82c-.46.9-.37 2.74-.27 3.54a3.4 3.4 0 0 0-2-.45c.38.22.7 1.04.81 1.41.3-.19.83.18 1.06.38-.06-.25.54-.35.85-.38.02-.24.48-.42.71-.48-.08-.36.3-.95.5-1.2ZM35.32 34.11a7.6 7.6 0 0 1-6.11 3.37c-.44.4-.47.94 2.95 0a15.78 15.78 0 0 0 7.07-4.4c2.47-.82 3.2-2.57 3.26-3.33a13.86 13.86 0 0 0-3.06 1.78 3.03 3.03 0 0 0-.99-1.61c-.9 1.37-.26 2.5.17 2.89a18.56 18.56 0 0 1-3.95 3.08c.43-.27 1.63-1.97 2.19-2.8l-.65-.56c-1.41 1.6-4.03 2.45-5.16 2.68a9.27 9.27 0 0 0 4.28-1.1Z" fill="#FCA138"/><path d="M38.75 29.2c.14-.17.35-.78.44-1.07.63.38 1.03 1.44 1.16 1.93l-.68.48c-.22-.5-.7-1.1-.92-1.34ZM39.38 27.4c.09-.17.16-.76.19-1.03.6.24 1.13 1.12 1.32 1.53l-.5.54c-.27-.4-.79-.86-1.01-1.04ZM40.14 25.76l.99-1.28.95 1.28c-.22 0-.95.55-1.3.82l-.64-.82ZM42.86 29.02c-.04-.2.12-.84.2-1.13-.85 0-1.9.68-2.3 1.02l.38.77c.51-.3 1.36-.56 1.72-.66ZM43.23 26.85c-.08-.2-.03-.85 0-1.15-.84.15-1.75 1.01-2.1 1.42l.52.69c.45-.4 1.24-.8 1.58-.96ZM39.46 34.25c.93-.44 4.08-4.29 5.54-6.15-.65 1.01-3.03 4.52-4.14 6.15-.35.2-1.12.5-1.4 0Z" fill="#FCA138"/><path fill-rule="evenodd" d="M26.21 23.86a.1.1 0 0 1 .04.04c.1.23-.18.4-.37.51l-.11.07c-1.05.73-2.2 1-3.47.82-.45-.06-.7-.25-1.03-.57-.17-.16-.17-.36-.16-.56 0-.1 0-.2-.03-.3-.09-.3-.44-.34-.68-.24a.49.49 0 0 0-.24.22c-.11.18-.24.41-.1.61.37.56.86 1.22 1.42 1.45.13.06.18.15.18.29a71.04 71.04 0 0 0-.03 1.8.2.2 0 0 1-.1.1.18.18 0 0 1-.08 0l-.46-.02c-.2-.01-.3.08-.32.29l-.02.11c-.01.2.08.3.27.31l.22.01c.26.01.48.02.63.12a.1.1 0 0 1 .05.06c.03.15.03.43-.08.57-.08.1-.2.14-.3.17-.15.04-.29.08-.33.3-.04.2-.09.78.16.87.12.05.25.09.4.13.17.04.22.14.32.3l.05.08c.1.16.23.2.39.12a.78.78 0 0 0 .2-.2c.15-.17.31-.36.52-.07l.68.9c.25.3.55.56.86.78.35.25.72.3 1.14.35.1 0 .2.02.3.04.23.03.23.25.21.47-.03.44-.04.78-.04 1.04 0 .11.06.17.17.17h2.45a.06.06 0 0 0 .05-.02.06.06 0 0 0 .01-.04l-.04-1.4c0-.04.01-.09.04-.12a.19.19 0 0 1 .11-.07l.06-.01a2.76 2.76 0 0 0 2.28-1.64l.32-.75c.07-.17.18-.2.33-.1.14.08.27.2.42.34a.16.16 0 0 0 .13.05.16.16 0 0 0 .12-.07c.12-.2.31-.28.56-.37l.07-.03a.17.17 0 0 0 .08-.07.19.19 0 0 0 .03-.1l-.02-.8a.15.15 0 0 0-.05-.1.14.14 0 0 0-.1-.04h-.44a.22.22 0 0 1-.13-.04.23.23 0 0 1-.08-.1c-.07-.2-.08-.41-.05-.66 0-.04.03-.07.06-.1a.16.16 0 0 1 .1-.04l.74-.03c.13 0 .2-.08.17-.22l-.02-.16c-.01-.13-.08-.2-.2-.2l-.72-.04a.15.15 0 0 1-.1-.05.16.16 0 0 1-.05-.11v-2.32c0-.03.01-.06.03-.08a.1.1 0 0 1 .08-.03c.51 0 .93-.03 1.26-.07.68-.1 1.01-.74 1.03-1.4 0-.43-.08-1.05-.63-1.05-.36 0-.3.3-.24.62.05.3.1.6-.16.7-.25.09-.53.09-.77.09h-.27c-.4.04-.83.02-1.25.01-.27 0-.54-.02-.77-.01l-2.23.04a1.3 1.3 0 0 1-.69-.15 3 3 0 0 1-1.56-1.56c-.12-.3-.15-.6-.11-.9 0-.03.02-.06.04-.09a.15.15 0 0 1 .09-.04c.18-.04.3-.05.35-.05 1.17 0 2.23 0 3.19-.02.09 0 .16.04.2.12.13.26.23.47.29.63.2.51.45.85.78 1.18.35.34.95.6 1.43.48.07-.02.1-.07.1-.14a.13.13 0 0 0-.1-.13 4.2 4.2 0 0 1-.37-.15c-.4-.22-.75-.5-1.05-.86-.21-.25-.3-.52-.32-.84l-.02-1.2c0-.25-.05-.44-.25-.55a.07.07 0 0 0-.1.05c-.03.17-.11.46-.24.57a.08.08 0 0 1-.07.02 3 3 0 0 0-.53-.05c-.35 0-.59-.16-.83-.33-.1-.07-.18-.07-.28 0a4.4 4.4 0 0 0-.39.31.73.73 0 0 1-.56.18c-.28 0-.58-.02-.9-.04-.16 0-.3 0-.44.02s-.27.03-.41.02c-.02 0-.05 0-.07-.02a.15.15 0 0 1-.05-.18l.22-.5a.1.1 0 0 0-.02-.1 6.95 6.95 0 0 1-.1-.03h-.01c-.25-.05-.58-.12-.76.04-.2.17-.44.48-.3.74l.03.06c.14.28.36.72.25.92a4.16 4.16 0 0 1-1.83 1.79c-.16.08-.45.22-.87.4a.22.22 0 0 0-.1.1.13.13 0 0 0 .03.17c.1.08.23.13.38.14.75.08 1.48.02 2.2-.16.17-.05.35-.12.53-.2.25-.1.49-.21.7-.22a.1.1 0 0 1 .05.02ZM28 27.9v-2.14c0-.32-.6-.6-.88-.74-.09-.04-.12-.02-.12.08v2.8c0 .06.02.1.08.1h.82a.1.1 0 0 0 .1-.1Zm-4-.69c0 .04.02.08.05.1.02.02.05.04.08.04h.77a.1.1 0 0 0 .07-.04.16.16 0 0 0 .03-.1v-1.54c0-.25.1-.3.23-.36.02 0 .03-.02.05-.03l.6-.27c.06-.03.12.03.12.11v2.74c0 .03-.01.07-.03.1a.1.1 0 0 1-.08.04h-2.64c-.17-.01-.25-.1-.25-.32v-1.5c0-.1.06-.17.12-.18h.78c.07.01.1.1.1.18v1.03Zm6.95.1a.2.2 0 0 0 .05-.1v-1.03c0-.09.03-.17.1-.18h.78c.06.01.12.09.12.18v1.5c0 .23-.08.3-.25.32H29.1a.1.1 0 0 1-.08-.04.18.18 0 0 1-.03-.1v-2.74c0-.08.06-.14.12-.11l.6.27.05.03c.13.06.23.11.23.36v1.54c0 .04.01.07.03.1a.1.1 0 0 0 .07.04h.77c.03 0 .06-.02.08-.04Zm-7.17 1.7-.55-.01c-.13 0-.23.1-.23.24v.52c0 .13.1.24.22.24h.55c.13 0 .23-.1.23-.24v-.52c0-.13-.1-.24-.22-.24Zm1.45-.01h.55c.12 0 .22.11.22.24v.52c0 .13-.1.24-.23.24h-.55c-.12 0-.22-.11-.22-.24v-.52c0-.13.1-.24.23-.24Zm2.55 0h-.55c-.13 0-.23.1-.23.24v.52c0 .13.1.24.22.24h.55c.13 0 .23-.1.23-.24v-.52c0-.13-.1-.24-.22-.24Zm1.45 0h.55c.12 0 .22.11.22.24v.52c0 .13-.1.24-.23.24h-.55c-.12 0-.22-.11-.22-.24v-.52c0-.13.1-.24.23-.24Zm.02 2h1.51c.07 0 .12.06.12.12 0 .13-.02.21-.11.31a3.3 3.3 0 0 1-1.69 1c-.04.02-.08-.05-.08-.05V31.2c.01-.19.08-.2.25-.2Zm-4.04 0h.54c.17 0 .24.01.25.2v1.18s-.04.07-.08.06a3.3 3.3 0 0 1-1.69-1 .41.41 0 0 1-.11-.32c0-.06.05-.12.12-.12h.97Z" fill="#C21F28"/><path d="M28.12 13.36c.28.05.52.24.63.51.83-.26 1.83-.72 1.42-1.78.52.03 1.6.26 1.8.97v.01l.01.02c.16.72-.65 1.5-1.08 1.81-.16-1.14-1.25-.98-2.08-.76v.1c0 .23-.08.45-.22.6.5.75 1.25 1.66 2.07.88.15.53.29 1.68-.27 2.13h-.01l-.01.01c-.59.4-1.56-.16-1.97-.49.97-.53.46-1.59-.02-2.35a.8.8 0 0 1-.74.03c-.47.76-.96 1.8 0 2.32-.42.33-1.38.89-1.97.5l-.01-.02h-.01c-.56-.45-.42-1.6-.27-2.13.8.76 1.53-.09 2.03-.82a.91.91 0 0 1-.27-.76c-.83-.22-1.9-.37-2.05.76-.43-.3-1.24-1.1-1.08-1.81v-.03c.22-.7 1.3-.94 1.81-.97-.41 1.05.58 1.51 1.4 1.77a.85.85 0 0 1 .63-.5c-.01-.86-.11-2.04-1.25-1.9.17-.48.67-1.43 1.36-1.46H28c.7.03 1.2.98 1.36 1.46-1.13-.14-1.23 1.04-1.24 1.9Z" fill="#F31625"/><path d="M12.1 35.85c-.12.07-.27.13-.45.16-.33-.14-.61-.35-.85-.61-.1-.25-.35-.18-.38-.53.11-.34.3-.6.58-.78.47-.31 1.28.27 1.6.62.06.07.07.15.02.23l-.53.91ZM45.57 35.18l-1.3.86a.73.73 0 0 1-.4-.1l-.54-.93a.3.3 0 0 1 .05-.35c.29-.3.83-.68 1.3-.64.5.04.83.71.89 1.16Z" fill="#010101"/><path d="m15 34.65 1.14.04.75.27c.46.16.77.36.93.57.31.41.53.66.64.75.16.13.44.25.83.36.58.17 1.17.29 1.76.35 1.77.4 3.49.55 5.3.64 2.9.58 6-.23 8.87-.66.69-.15 1.47-.28 2.1-.62.36-.2.5-.63.87-.91.46-.35.98-.59 1.57-.73.47-.07.97-.08 1.5-.04l1.12.24a.3.3 0 0 1 .2.17l.38.68c.1.18.23.3.36.33.19.05.37 0 .55-.14.08.06 1.5-.77 1.67-.77.51 1.35.47 1.82 1.43 4.46.06.17.03.34-.08.49a3.33 3.33 0 0 1-2.33 1.32c-1.09.13-1.6-.45-1.95-1.37a.12.12 0 0 0-.06-.07.12.12 0 0 0-.1 0c-.89.43-1.67.77-2.34 1.03A30.94 30.94 0 0 1 29.46 43c-2.67 0-4.26 0-4.78-.02a28.27 28.27 0 0 1-8.7-1.96 9.05 9.05 0 0 1-1.36-.72 2.57 2.57 0 0 0-1.25-.24c-.05 0-.07.02-.09.05-.22.6-.45 1.08-1.12 1.26-.67.18-1.04.09-1.77-.2a2.45 2.45 0 0 1-1.32-1.04c-.1-.15-.1-.38 0-.67l1.2-3.92c.04-.14.1-.36.15-.67.03.35.28.28.38.53-.9.45 2.07 2.43.85.62.18-.04.33-.1.44-.17.13.3.33.36.62.17.13-.08.22-.2.3-.34.23-.5.3-.79.92-.89.47-.07.82-.12 1.07-.14Z" fill="#4C0F11"/><path d="m45.07 35.55.75 1.67c.12.28.23.56.32.84.05.16.22.45.26.69.06.35.18.69.3 1.02a.18.18 0 0 1-.05.19c-.4.44-1.06.98-1.66 1.1-.24.04-.46.12-.68.12-.37-.01-.68-.13-.93-.37a2.04 2.04 0 0 1-.42-.82 192.66 192.66 0 0 1-1.08-3.48.13.13 0 0 1 .16-.1c.14.03.3.03.46 0 .1-.02.25-.03.47-.02.46.01.9-.1 1.3-.35l.8-.49ZM10.8 35.4c.24.26.52.47.85.62a2 2 0 0 0 .8.33c.52.09.99.09 1.42 0a.16.16 0 0 1 .15.05.16.16 0 0 1 .03.15 28.2 28.2 0 0 0-.64 2.07c-.12.46-.3 1-.52 1.6-.1.28-.23.54-.5.72-.37.21-.75.29-1.15.22a2.88 2.88 0 0 1-1.76-.95c-.18-.2-.23-.28-.18-.55.12-.63.38-1.27.53-1.8.14-.5.25-.88.34-1.1l.17-.65c.06-.24.17-.46.32-.67a.11.11 0 0 1 .1-.04h.04Z" fill="#B0121D"/><path d="M16.25 35.85c-.12.43-.37.91-.5 1.25l-.9 2.37c-.06.14-.14.28-.25.42a.12.12 0 0 1-.12.04l-.98-.16a.11.11 0 0 1-.08-.05.1.1 0 0 1 0-.1l.14-.39.76-2.4c.2-.63.01-1.09-.57-1.36a.18.18 0 0 1-.1-.15.17.17 0 0 1 .1-.16c.32-.2.65-.3 1.04-.23.3.06.64.01.97.09l.96.2c.49.1.84.34 1.05.72.15.28.08.36-.21.22-.32-.14-.73-.42-1.18-.4a.14.14 0 0 0-.13.09ZM39.37 35.75a.7.7 0 0 0-.17.03l-.94.42c-.05.02-.09.01-.13-.03a.12.12 0 0 1-.02-.13c.22-.47.78-.79 1.3-.88l1.44-.21c.45-.06.86.01 1.25.22a.2.2 0 0 1 .1.16.2.2 0 0 1-.08.17c-.28.19-.74.58-.62.97.34 1.13.64 2.18.9 3.18a.15.15 0 0 1-.1.18l-1.03.34a.08.08 0 0 1-.1-.06 3.35 3.35 0 0 0-.17-.7c-.42-1.17-.8-2.18-1.13-3.03-.1-.26-.08-.68-.5-.63Z" fill="#B0121D"/><path d="M42.23 35.6a.13.13 0 0 1 .17-.03h.01c.1.07.19.17.22.27.04.1.03.2-.02.27a.3.3 0 0 1-.25.13.57.57 0 0 1-.33-.1.13.13 0 0 1-.06-.09.12.12 0 0 1 .02-.09l.24-.36ZM13.38 35.61a.12.12 0 0 1 .08-.05c.03 0 .06 0 .09.02a1.55 1.55 0 0 1 .44.44.06.06 0 0 1-.03.05l-.02.02-.5.1a.18.18 0 0 1-.16-.04.18.18 0 0 1-.06-.14c.01-.12.06-.26.16-.4ZM28.34 42.8a46.9 46.9 0 0 1-4.38-.16c-2.68-.2-5.52-.87-7.97-1.95a4.4 4.4 0 0 1-.87-.49.15.15 0 0 1-.04-.18l.12-.3a117.95 117.95 0 0 1 1.28-3.37c.08-.26.23-.27.46-.16.2.1.43.17.66.23.27.07.5.14.66.2 1.6.63 3.4.8 5.08 1.18.39.09.74.14 1.06.16 2.18.1 3.6.14 4.24.13 1.68-.05 2.78-.12 3.3-.21 2.48-.43 4.86-.93 7.25-1.7.23-.07.36-.05.43.17l.06.2c.27.91.68 2.13 1.23 3.64a.15.15 0 0 1-.06.18c-.34.24-.8.34-1.13.51-.16.08-.35.16-.59.23a41.1 41.1 0 0 1-8.83 1.64c-.68.06-1.41.03-1.96.04Z" fill="#B0121D"/><path d="m37.8 40.89-.73-2.78c.15-.08.37-.18.67-.27.33-.1.59-.1.8 0 .19.1.35.3.42.58.07.28.05.53-.06.73a1.1 1.1 0 0 1-.67.51 1.8 1.8 0 0 1-.16.05l.26 1.01-.54.17Zm-.08-2.5.22.84.16-.04c.28-.08.4-.3.32-.59-.06-.25-.24-.38-.51-.3a.73.73 0 0 0-.2.08ZM32.34 40.36l1.35-.17.06.6-1.35.17-.06-.6ZM30.23 39.13c.82-.03 1.24.63 1.26 1.36.03.95-.47 1.48-1.22 1.5-.8.03-1.24-.59-1.26-1.37-.02-.82.44-1.47 1.22-1.5Zm0 .49c-.38.01-.58.4-.56.97.01.57.24.93.61.92.38-.02.57-.43.55-.98-.01-.5-.22-.92-.6-.91ZM28.7 41.41l.08.49c-.1.05-.32.1-.59.1-.83 0-1.26-.6-1.26-1.4 0-.98.61-1.47 1.32-1.47.27 0 .47.05.56.1l-.11.5a.93.93 0 0 0-.42-.1c-.41 0-.75.3-.75.94 0 .6.29.91.75.91.15 0 .32-.02.42-.07ZM26.31 40.18l-.04.48-.78-.08-.06.66.87.09-.04.48-1.4-.14.24-2.68 1.35.14-.04.49-.83-.09-.05.57.78.08ZM22.3 41.34l.4-2.7c.17 0 .45.02.73.07.32.05.55.13.72.3.15.13.23.34.2.57a.6.6 0 0 1-.5.52h-.01a.7.7 0 0 1 .4.76.74.74 0 0 1-.33.53c-.2.14-.53.18-1.02.1l-.59-.15Zm.91-2.2-.1.66.17.03c.28.05.45-.07.49-.28.03-.2-.09-.35-.34-.4a.83.83 0 0 0-.22-.01Zm-.16 1.1-.12.78c.04.02.1.03.19.04.25.05.49-.03.53-.32.04-.27-.16-.43-.43-.48l-.17-.03ZM21.08 40.4l-.64-.2-.34.65-.56-.17L21 38.1l.7.22-.05 3-.57-.19.01-.74Zm-.45-.62.5.15.02-.63.04-.6c-.09.15-.19.38-.27.53l-.29.55ZM17.96 37l.55.22-.37 1.07.82.33.37-1.07.55.23-.96 2.73-.55-.23.4-1.14-.82-.33-.4 1.14-.55-.22.96-2.73ZM34.5 38.78l.57-.15.25 1.1.85-.21-.25-1.11.57-.15.64 2.84-.57.15-.27-1.2-.85.23.27 1.19-.57.14-.64-2.83Z" fill="#EDBD7B"/></svg>