<!-- by TradingView --><svg width="56" height="56" viewBox="0 0 56 56" xmlns="http://www.w3.org/2000/svg"><path fill="#D92A2C" d="M0 0h56v56H0z"/><path d="M7 22h4v5h3v-5h4v13h-4v-5h-3v5H7V22Z" fill="#fff"/><path fill-rule="evenodd" d="M20 22h7.33a3.18 3.18 0 0 1 .7 6.29 3.37 3.37 0 0 1-.4 6.71H20V22Zm4 10h1.5a1.5 1.5 0 0 0 0-3H24v3Zm0-5v-3h1.01a1.5 1.5 0 1 1 0 3H24Z" fill="#fff"/><path d="M36.91 36a9.48 9.48 0 0 1-3.26-7.13c0-5.35 4.54-9.69 10.13-9.69 1.91 0 3.7.5 5.22 1.39A10.35 10.35 0 0 0 42.13 18C36.53 18 32 22.34 32 27.7a9.61 9.61 0 0 0 4.91 8.3Z" fill="#fff"/><path d="M47.62 24.73 45 25.84a2.27 2.27 0 0 0-1.92-1.46c-.44 0-1.08.35-1.08.98 0 .94 1.26 1.45 2.68 1.95 2.63.99 3.32 2.1 3.32 3.5 0 2.04-1.68 4.19-4.92 4.19-3.33 0-4.77-1.9-5.08-2.94L41 31c.61 1.32 1.29 1.6 2.26 1.6.96 0 1.42-.53 1.42-1.17 0-.86-1.37-1.54-3.06-2.12-2.42-.84-3.08-2.02-3.08-3.57 0-1.54 1.3-3.74 4.54-3.74 2.59 0 4.1 1.82 4.54 2.73Z" fill="#fff"/></svg>