<!-- by TradingView --><svg width="56" height="56" viewBox="0 0 56 56" xmlns="http://www.w3.org/2000/svg"><path fill="#F0F3FA" d="M0 0h56v56H0z"/><path d="M27.97 8.32 46.55 40H9.39L27.97 8.32Z" fill="url(#a)"/><path d="M39 31h2.55L43 34h-2.54L39 31Z" fill="#7F878A"/><path d="M29.75 11.35 16 34h2.64l11.22-18.38L33.38 22H36l-6.25-10.65Z" fill="url(#b)"/><path d="M29.21 10.45 28 8 12.47 34h2.64l14.1-23.55ZM13.41 37H10.8L9 40h2.62l1.8-3Zm.74 0h2.63l-.59 1h27.02l-.59-1h2.63L47 40H12.4l1.75-3Z" fill="url(#c)"/><path d="M32 23h8.15l.85 2h-8.15L32 23ZM33 26h8.15l.85 2h-8.15L33 26ZM34 29h8.15l.85 2h-8.15L34 29Z" fill="#D41017"/><path d="M9.7 36.84a4.7 4.7 0 0 1-.7.05V37h3.66v-.11c-.3 0-.5-.02-.64-.05-.21-.04-.32-.13-.32-.26v-1.03h2.58v1.03c0 .12-.1.2-.3.26-.13.03-.36.04-.67.05V37H17v-.11a4.3 4.3 0 0 1-.68-.05c-.21-.05-.32-.13-.32-.26v-2.15c0-.13.1-.22.3-.26.1-.03.38-.05.7-.06V34h-3.69v.11c.33.01.56.03.68.06.19.04.29.13.29.26v.92H11.7v-.92c0-.13.1-.22.3-.27.13-.02.35-.04.66-.05V34H9v.11c.32.02.62.04.73.06.18.05.27.13.27.26v2.15c0 .12-.1.21-.3.26ZM21.86 36l-.99-1h-.08l-.93 1h2Zm-3.86.89c.25 0 .45-.05.6-.14.1-.06.23-.18.41-.37L21.3 34h.29l2.29 2.29c.26.25.45.42.58.5.12.07.3.1.54.1V37h-3.33v-.11c.34 0 .55-.02.66-.04.1-.02.16-.06.16-.14 0-.03-.03-.08-.08-.15l-.14-.15-.26-.24h-2.3l-.22.23-.08.08c-.09.12-.13.2-.13.25 0 .06.1.1.3.13.1.02.28.03.52.03V37H18v-.11Zm13.23-2.8c-.47-.06-.93-.09-1.39-.09-.91 0-3.84.08-3.84 1.52S29.04 37 29.94 37c.7 0 1.35-.07 1.93-.22.32-.08.7-.22 1.13-.4l-.33-.1a6.5 6.5 0 0 1-2.56.52c-1.41 0-2.11-.44-2.11-1.3 0-1.12 1.07-1.36 1.98-1.36a3.7 3.7 0 0 1 2.56.85h.27V34h-.3c-.02.05-.08.1-.16.13a.75.75 0 0 1-.34.07l-.78-.1Zm6.27 2.77c.74 0 1.25-.19 1.53-.56.14-.2.22-.47.22-.8 0-.45-.16-.79-.47-1.02a2.1 2.1 0 0 0-1.28-.34c-.74 0-1.25.2-1.53.57-.14.2-.21.47-.21.79 0 .33.07.6.22.8.27.37.78.56 1.52.56Zm0-2.86c1 0 1.83.14 2.48.41.68.28 1.02.65 1.02 1.09 0 .44-.34.8-1.02 1.09a6.5 6.5 0 0 1-2.48.41 6.29 6.29 0 0 1-2.57-.45c-.62-.28-.93-.63-.93-1.03 0-.44.32-.8.97-1.09.66-.29 1.5-.43 2.53-.43Zm5.23 2.36c.33 0 .68.07 1.03.21.36.14.65.21.88.21.4 0 .68-.05.85-.15.17-.1.26-.22.26-.36 0-.24-.27-.44-.8-.6-.3-.08-.78-.17-1.43-.26v-.07c.04 0 .09 0 .15-.02.43-.04 1.33-.13 1.33-.54 0-.44-.93-.44-1.2-.44h-.01c-.32 0-.6.05-.86.13-.15.05-.3.13-.46.23l-.23-.05c.17-.14.42-.27.74-.38a5.44 5.44 0 0 1 3.02-.12c.35.1.54.24.58.4 0 .13-.07.23-.2.33-.14.09-.36.16-.66.22v.03c.44.07.77.18.97.31.2.14.31.28.31.44 0 .3-.3.56-.92.78a7.3 7.3 0 0 1-2.42.34c-.47 0-.87-.03-1.18-.1-.32-.07-.48-.17-.48-.28 0-.06.06-.12.17-.17.11-.06.3-.09.56-.09Z" fill="url(#d)"/><defs><linearGradient id="a" x1="38.57" y1="27.06" x2="10.98" y2="39.49" gradientUnits="userSpaceOnUse"><stop stop-color="#274A17"/><stop offset="1" stop-color="#597148"/></linearGradient><linearGradient id="b" x1="30.85" y1="13.15" x2="18.25" y2="32.65" gradientUnits="userSpaceOnUse"><stop stop-color="#7F7B80"/><stop offset="1" stop-color="#FDFBF8"/></linearGradient><linearGradient id="c" x1="28" y1="8" x2="15.31" y2="40.14" gradientUnits="userSpaceOnUse"><stop stop-color="#AD0F13"/><stop offset="1" stop-color="#FF141C"/></linearGradient><linearGradient id="d" x1="9" y1="35.5" x2="47" y2="35.5" gradientUnits="userSpaceOnUse"><stop stop-color="#FFFCFE"/><stop offset="1" stop-color="#828F84"/></linearGradient></defs></svg>