<!-- by TradingView --><svg width="56" height="56" viewBox="0 0 56 56" xmlns="http://www.w3.org/2000/svg"><path fill="#F0F3FA" d="M0 0h56v56H0z"/><path fill-rule="evenodd" d="M13.66 17H14v2a8 8 0 0 1 8 8h2v.34H14V37h-.34v-2a8 8 0 0 1-7.65-7.66H4V27h2a8 8 0 0 1 7.66-8v-2ZM7.01 27.34a7 7 0 0 0 6.65 6.65v-6.65H7.01Zm6.65-.34H7a7 7 0 0 1 6.66-7v7Zm.34 0h7a7 7 0 0 0-7-7v7Z" fill="#2A176F"/><path d="m18 28 3 5h-6l3-5ZM22 32h5v1h-5zM28 32h4v1h-4zM33 32h3v1h-3zM37 32h1v1h-1z" fill="#DB261F"/><path d="M22 28h1.5v1h1v-1H26v3h-1.5v-1h-1v1H22v-3ZM34.75 28c-1.13 0-1.75.67-1.75 1.5V31h1.5v-1.85c0-.2.32-.36.5-.36s.5.16.5.36v.09H35V30h.5v1H37v-1.5c0-.83-.7-1.5-1.67-1.5h-.58ZM43.75 28c-1.13 0-1.75.67-1.75 1.5V31h1.5v-1.85c0-.2.32-.36.5-.36s.5.16.5.36v.09H44V30h.5v1H46v-1.5c0-.83-.7-1.5-1.67-1.5h-.58Z" fill="#2A176F"/><path fill-rule="evenodd" d="M29.5 31c1.38 0 2.5-.67 2.5-1.5S30.88 28 29.5 28s-2.5.67-2.5 1.5 1.12 1.5 2.5 1.5Zm0-.8c.57 0 1.02-.31 1.02-.7 0-.39-.45-.7-1.02-.7-.57 0-1.02.31-1.02.7 0 .39.45.7 1.02.7Z" fill="#2A176F"/><path d="M41 28h-.56c-1.35 0-2.44.67-2.44 1.5s1.1 1.5 2.44 1.5H41v-.8h-.56c-.55 0-.94-.31-.94-.7 0-.39.39-.7.94-.7H41V28ZM47 29.24c0-.95.69-1.24 1.53-1.24.37 0 .7.14.97.39.26-.25.6-.39.97-.39.84 0 1.53.29 1.53 1.24V31h-1.27v-1.6c0-.22-.17-.4-.37-.4-.2 0-.36.18-.36.4V31h-1v-1.6c0-.22-.16-.4-.36-.4-.2 0-.37.18-.37.4V31H47v-1.76Z" fill="#2A176F"/></svg>