<!-- by TradingView --><svg width="56" height="56" viewBox="0 0 56 56" xmlns="http://www.w3.org/2000/svg"><path fill="#F0F3FA" d="M0 0h56v56H0z"/><path d="M28 11 9 40h38L28 11Z" fill="#0E5AFD"/><path d="m42.52 35-15-23.27L12.27 35H24v3H10.3l-.65 1H45.1l-.64-1H32v-3h10.52Z" fill="#62D3FD"/><path d="M21 25h2.5v3.5h2V25H28v4.23l-2.4.77h-2.1v4H21v-9Z" fill="#fff"/><path fill-rule="evenodd" d="M29 23v9h4.06c1.07 0 1.94-.96 1.94-2.13v-4.74c0-1.17-.87-2.13-1.94-2.13H29Zm3.02 7c.26 0 .48-.24.48-.53v-3.94c0-.3-.22-.53-.48-.53h-.52v5h.52Z" fill="#fff"/><path d="M25 30.8c0-1 .74-1.8 1.65-1.8h2.7c.91 0 1.65.8 1.65 1.8V33h-2.5v-1.48c0-.29-.2-.52-.43-.52h-.14c-.24 0-.43.23-.43.52v3.97c0 .28.2.51.43.51h.14c.24 0 .43-.23.43-.51V34H31v2.2c0 1-.74 1.8-1.65 1.8h-2.7c-.91 0-1.65-.8-1.65-1.8v-5.4Z" fill="#0E5AFD"/></svg>