<!-- by TradingView --><svg width="56" height="56" viewBox="0 0 56 56" xmlns="http://www.w3.org/2000/svg"><path fill="#F0F3FA" d="M0 0h56v56H0z"/><ellipse cx="28" cy="28" rx="21" ry="13" fill="#FFF98B"/><path fill-rule="evenodd" d="M43 34H29v1h4v5.34l1-.34v-2h2v1.4l.65-.18c2.04-.57 3.86-1.08 6.35-2.39V34Zm-9 1v2h2v-2h-2Zm8 0h-2v2h2v-2Zm-5 0h2v2h-2v-2Zm-10-1H13v2.83c2.49 1.31 4.31 1.82 6.35 2.4l.65.17V38h2v2l1 .34V35h4v-1Zm-11 1h-2v2h2v-2Zm1 0h2v2h-2v-2Zm5 0h-2v2h2v-2Z" fill="#0000FA"/><path fill-rule="evenodd" d="M28 41c11.6 0 21-5.82 21-13s-9.4-13-21-13S7 20.82 7 28s9.4 13 21 13Zm0-1c11.05 0 20-5.37 20-12s-8.95-12-20-12S8 21.37 8 28s8.95 12 20 12Z" fill="#0585D2"/><path d="M41.42 38c-3.64-1.87-8.32-3-13.42-3s-9.78 1.13-13.42 3c.36.19.74.37 1.12.54A29.33 29.33 0 0 1 28 36c4.64 0 8.9.95 12.3 2.54.38-.17.76-.35 1.12-.54Zm0-20c-3.64 1.87-8.32 3-13.42 3s-9.78-1.13-13.42-3c.36-.19.74-.37 1.12-.54A29.33 29.33 0 0 0 28 20c4.64 0 8.9-.95 12.3-2.54.38.17.76.35 1.12.54Z" fill="#0585D2"/><path d="M27.62 15.28h.76V21h-.76v-5.72ZM48 27v1h-3v-1zM12 27v1H8v-1z" fill="#0585D2"/><path d="M28 38.53v.6c0 .52-.51.87-1 .87s-1-.35-1-.88v-2.24c0-.53.51-.88 1-.88.5 0 1 .35 1 .88v.6h-.67v-.49c0-.13-.13-.25-.29-.25-.15 0-.28.11-.28.25v2.02c0 .13.13.25.28.25.17 0 .29-.12.29-.25v-.48H28ZM25 36v3.11c0 .53-.5.89-1 .89s-1-.36-1-.89v-.47h.67V39c0 .14.13.26.29.26.16 0 .28-.12.28-.26V36H25ZM29.87 39.37H32V40h-3l.02-.3c.04-.73.4-1.24 1.08-1.54l.4-.2c.48-.21.71-.41.71-.75 0-.36-.3-.58-.72-.58-.48 0-.71.23-.71.71h-.76c0-.85.53-1.34 1.5-1.34.7 0 1.48.36 1.48 1.15 0 .6-.37.98-1.14 1.34l-.38.2c-.3.14-.57.32-.6.68Z" fill="#DF2123"/><path d="M34 25v-2h5.5c3.01 0 5.5 1.83 5.5 5 0 3.13-2.5 5-5.5 5H34v-2c.65 0 1-.06 1-.8v-4.48c0-.76-.35-.72-1-.72Zm5 0v5.5c0 .26-.02.5.26.5 1.6 0 1.74-2.05 1.74-3.25 0-1.43-.45-2.61-2-2.75Z" fill="#731217"/><path d="M35.5 30.2v-4.65c0-.97-.13-1.19-1.05-1.19v-.89h5.05c3 0 5 1.6 5 4.53 0 2.9-2 4.5-5 4.5h-5.05v-1.12c.92 0 1.05-.21 1.05-1.19Zm3-5.6v5.82c0 .73.24.96.73.96 1.35 0 2.33-.96 2.33-3.63 0-2.05-.82-3.16-3.06-3.16Z" fill="#DF2123"/><path d="M22.87 23h11.49v1.98c-.86 0-1.36 0-1.36.7v3.82c0 2.51-2.2 3.5-4.37 3.5-2.18 0-4.63-.99-4.63-3.47v-3.84c0-.79-.48-.7-1.13-.7V23Zm6.68 1.98c-.64 0-1.05-.03-1.05.7v3.9c0 .78 0 1.3.83 1.3 1.02 0 1.17-1.06 1.17-1.85v-3.34c0-.72-.29-.7-.95-.71Z" fill="#731217"/><path d="M23.34 23.47H29v.92c-.97 0-1 .21-1 1.17v4.01c0 1.32.37 1.77 1.33 1.77 1.15 0 1.67-.67 1.67-2.32v-3.46c0-.77-.36-1.14-1.26-1.17v-.92H34v.92c-.97 0-1.5.21-1.5 1.17v3.94c0 2.08-1.54 3-3.87 3-2.28 0-4.13-.85-4.13-2.97v-3.97c0-.96-.2-1.17-1.16-1.17v-.92Z" fill="#DF2123"/><path fill-rule="evenodd" d="M18.5 27v-1.26c0-.7-.43-.72-1.04-.73-.59.01-.96.06-.96.73V27h2ZM11 23v2c.73 0 1.5 0 1.5.73v4.3c0 .45-.1.56-.14.6-.28.23-1 .13-1.36.13V33h13v-2.24c-.73 0-1.43.18-1.43-.73v-4.3c0-.9.7-.72 1.43-.72V23H11Zm6.46 7.77c.6-.02 1.04-.03 1.04-.74v-1.4h-2v1.4c0 .67.37.72.96.74Z" fill="#731217"/><path d="M19 28h-3v2.03c0 .88.26 1.17 1.1 1.2v1.3h-5.63v-1.3c.97 0 1.53-.22 1.53-1.2V25.6c0-.98-.57-1.2-1.53-1.2v-.94h5.64v.94c-.85.03-1.11.32-1.11 1.2v1.78h3V25.6c0-.88-.34-1.17-1.19-1.2v-.94h5.64v.94c-.97 0-1.45.22-1.45 1.2v4.42c0 .98.48 1.2 1.45 1.2v1.3H17.8v-1.3c.85-.03 1.19-.32 1.19-1.2V28Z" fill="#DF2123"/></svg>