<!-- by TradingView --><svg width="56" height="56" viewBox="0 0 56 56" xmlns="http://www.w3.org/2000/svg"><path fill="#F0F3FA" d="M0 0h56v56H0z"/><path d="m28 21 7 7-7 7-7-7 7-7Z" fill="#2C4FA1"/><path d="m35 30-6 6.02V39h-2v-2.98L21 30v13c.82.14 1.5.3 2.14.46 1.18.28 2.24.54 3.86.54v-2h2v2c1.62 0 2.68-.26 3.86-.54.64-.16 1.32-.32 2.14-.46V30Z" fill="#2C4FA1"/><path d="M27 45a17.03 17.03 0 0 1 1-34 17.03 17.03 0 0 1 1 34v-1.03a16 16 0 1 0-2 0V45Z" fill="#2C4FA1"/><path d="M40.49 25.95c-.09-.15-.15-.3-.2-.46a1.3 1.3 0 0 1-.04-.49 1 1 0 0 1 .17-.45 1.6 1.6 0 0 1 1-.6 1.17 1.17 0 0 1 .97.28c.14.12.26.27.37.46.11.2.18.38.22.56.03.18.03.35-.01.5a.7.7 0 0 1-.22.35l-.32-.55c.07-.08.1-.18.1-.3a.75.75 0 0 0-.11-.36.73.73 0 0 0-.49-.39.93.93 0 0 0-.64.14v.02c.1.02.19.05.28.1.1.05.18.12.26.2a1.5 1.5 0 0 1 .41.84c.02.18 0 .35-.05.5a.65.65 0 0 1-.3.33.68.68 0 0 1-.47.09c-.17-.03-.33-.11-.5-.24-.16-.13-.3-.3-.43-.53Zm.32-.19c.06.11.14.2.23.26.08.07.18.1.27.12.1.02.18 0 .26-.05.08-.04.13-.1.17-.2a.56.56 0 0 0 .03-.28.85.85 0 0 0-.11-.33.88.88 0 0 0-.17-.2.7.7 0 0 0-.2-.14.52.52 0 0 0-.2-.04.38.38 0 0 0-.2.05.4.4 0 0 0-.16.2.6.6 0 0 0-.03.28c0 .11.05.22.1.33ZM41.02 21.84c-.2.17-.44.26-.7.26-.25 0-.5-.08-.76-.22-.25-.15-.5-.36-.72-.63a2.72 2.72 0 0 1-.49-.83c-.1-.28-.12-.54-.08-.79.05-.24.18-.45.39-.63.2-.17.44-.26.69-.26.25 0 .5.08.76.23.26.15.5.35.73.63.22.27.39.54.48.82.1.28.13.54.08.79-.04.25-.17.46-.38.63Zm-.47-.56a.8.8 0 0 0 .26-.91 1.52 1.52 0 0 0-.29-.51c-.14-.17-.29-.3-.45-.38a.88.88 0 0 0-.48-.11.81.81 0 0 0-.47.2.81.81 0 0 0-.28.41.88.88 0 0 0 .02.5c.06.17.16.34.3.5.14.17.28.3.44.39.16.08.32.12.49.1a.81.81 0 0 0 .46-.2ZM37.53 17.21l-.56-.45a.46.46 0 0 0 .04-.23.7.7 0 0 0-.06-.24 1.09 1.09 0 0 0-.16-.25 1.67 1.67 0 0 0-.75-.52.87.87 0 0 0-.5-.01.81.81 0 0 0-.4.28.82.82 0 0 0-.2.47c-.02.16.02.32.1.47a1.75 1.75 0 0 0 .65.62c.1.05.2.09.28.11.09.02.17.03.25.02.09 0 .16-.03.22-.08l.56.46a.79.79 0 0 1-.35.15c-.14.03-.29.02-.45 0a1.96 1.96 0 0 1-.5-.18 2.85 2.85 0 0 1-1.17-1.05c-.14-.26-.21-.5-.21-.75s.09-.48.26-.69c.17-.21.38-.34.62-.39.25-.05.5-.03.79.06a2.99 2.99 0 0 1 1.25.9c.12.15.21.3.28.45.06.15.1.3.1.44a.8.8 0 0 1-.1.41ZM32.34 13.34l-.67 2.43-1-.27.68-2.43 1 .27ZM26.94 15.52l-1.4.08-.15-2.51 1.43-.08c.4-.03.76 0 1.06.09.3.08.54.21.7.4.18.17.27.39.28.65.02.26-.05.5-.2.69-.14.2-.36.35-.66.47-.29.12-.65.2-1.06.21Zm-.68-.35.62-.04c.28-.01.52-.06.71-.13a.87.87 0 0 0 .42-.32c.09-.13.12-.3.11-.49a.77.77 0 0 0-.17-.47.86.86 0 0 0-.44-.26 2.2 2.2 0 0 0-.71-.06l-.64.04.1 1.73ZM22.44 14l1.3 2.16-.6.35-2.6-.46-.02.02.88 1.47-.66.4-1.3-2.17.6-.35 2.6.46.03-.02-.88-1.48.65-.39ZM17.17 21.96l-.38.66-1.5-2.46.45-.76 2.88.06-.38.66-2.27-.1-.01.04 1.21 1.9Zm-.84-.51 1.04-1.8.32.19-1.04 1.8-.32-.2ZM15.53 27 13 26.88l.03-.67 1.07.05.09-1.7-1.07-.06.03-.66 2.53.12-.04.67-1.07-.06-.08 1.71 1.07.05-.03.67Z" fill="#2C4FA1"/></svg>