<!-- by TradingView --><svg width="56" height="56" viewBox="0 0 56 56" xmlns="http://www.w3.org/2000/svg"><path fill="#F0F3FA" d="M0 0h56v56H0z"/><path fill-rule="evenodd" d="M10 38.38V16.42A8.6 8.6 0 0 0 16.27 19c2.54 0 5.02-.8 7.76-1.67 3.42-1.1 7.27-2.33 12.2-2.33 6.14 0 9.07 1.93 9.77 2.9v21.46c-.34-.6-2.94-2.36-6.56-2.36-4.42 0-6.87.91-9.42 1.87A28.37 28.37 0 0 1 18.53 41c-6.28 0-8.3-1.75-8.53-2.62ZM22.79 21A2.25 2.25 0 0 1 25 23.29V32h1.58C28.7 32 30 30.57 30 28.5c0-2.07-1.3-3.5-3.42-3.5H26v-4h.36A7.57 7.57 0 0 1 34 28.5c0 4.14-3.42 7.5-7.64 7.5H21v-8.5L15.34 36H11l9.62-14.03c.41-.61 1.45-.97 2.17-.97ZM34 28.5V36h4V25.5a1.5 1.5 0 1 1 1 1.41v4.07l.5.02a5.5 5.5 0 1 0-5.5-5.5v3Z" fill="#ED1C24"/></svg>