<!-- by TradingView --><svg xmlns="http://www.w3.org/2000/svg" width="56" height="56" viewBox="0 0 56 56"><path fill="#F0F3FA" d="M0 0h56v56H0z"/><path d="M50.77 22.14a26.6 26.6 0 0 1-8.03 1.65c.14 2.01 1.5 4.21 2.61 4.21 2.82 0 5.09-4.55 5.56-5.52.19-.36.05-.42-.14-.34Z" fill="url(#a5yzairoo)"/><path d="M44.28 22.95c-1.35-.47-1.08-2.71-1.1-2.86-.14-.5-2.18 1.24-2.18 2.42 0 .49.33.64.87.66a14.82 14.82 0 0 0 2.4-.22Z" fill="url(#b5yzairoo)"/><path d="M6 25.73V32h1.5v-3h2.99v3H12v-7h-1.51v2.5h-3V25h-.73a.76.76 0 0 0-.54.21.72.72 0 0 0-.22.52Zm6.5 0V32l2.04-.01c.48.02.96-.03 1.43-.14.34-.1.66-.26.95-.48.36-.31.65-.72.82-1.18.18-.54.27-1.12.26-1.7 0-1.16-.24-2.04-.76-2.64-.51-.57-1.28-.85-2.32-.85h-1.71a.68.68 0 0 0-.5.21.73.73 0 0 0-.21.52ZM14.73 31H14v-5h.91c.25 0 .47.03.7.12.85.37.89 1.55.89 2.37 0 1.25-.33 2.51-1.77 2.51Z" fill="#BE1128"/><path d="M19 32v-6.26a.68.68 0 0 1 .22-.52.77.77 0 0 1 .54-.22h2.68c.59 0 1.21.12 1.72.45.2.17.35.37.45.6.1.23.16.47.15.72 0 .32-.08.63-.24.9-.16.23-.4.42-.66.54.34.13.64.35.85.63.2.3.3.66.29 1.02a1.9 1.9 0 0 1-.68 1.58c-.57.4-1.2.56-1.99.56H19Zm1.5-4.29h1.66c1.38.1 1.27-1.84-.02-1.71H20.5v1.71Zm0 3.29h1.73c.55.03 1.28-.33 1.2-1 .06-.67-.65-1.05-1.22-1H20.5v2ZM36 32h-.76a.7.7 0 0 1-.73-.73V28.2a.9.9 0 0 0-.31-.76 1.14 1.14 0 0 0-1.39 0 .9.9 0 0 0-.3.76V32H31v-3.5c0-.98.26-1.63.77-1.96.5-.33 1.09-.52 1.69-.54.61 0 1.22.17 1.74.5.53.33.8 1 .8 2V32ZM29.42 26.42c-.37-.29-.93-.41-1.68-.41-.54-.04-1.09.13-1.53.49-.16.13-.29.3-.38.49-.1.19-.16.4-.18.61h1.33a.6.6 0 0 1 .13-.2c.06-.06.12-.1.2-.13.16-.06.33-.1.5-.09.2 0 .38.04.57.1.09.01.17.07.23.14.05.08.08.18.08.28 0 .28-.3.47-.88.57l-.32.05a2.7 2.7 0 0 0-1.49.55c-.33.26-.5.7-.5 1.3 0 .6.18 1.1.54 1.39a2 2 0 0 0 1.27.42c.54.04 1.09-.1 1.56-.4.02.08.06.15.11.22.06.06.12.12.2.15a.5.5 0 0 0 .22.05h.6v-4.38c0-.24-.04-.48-.15-.69-.1-.21-.25-.39-.43-.51Zm-.72 3.1a1.4 1.4 0 0 1-.32.95 1.2 1.2 0 0 1-.4.27c-.16.06-.32.08-.48.07a.73.73 0 0 1-.5-.17.77.77 0 0 1-.18-.52c0-.16.05-.33.14-.47.15-.14.33-.24.52-.28l.44-.11c.27-.07.53-.16.78-.29v.55ZM38.46 26.59v1.9l1.76-2.17h1.75L40 28.66 42 32h-1.75l-1.01-1.83c-.21-.37-.4-.53-.55-.47-.15.05-.22.14-.22.24V32H37v-7h.75c.18 0 .36.07.5.2.12.12.2.3.2.47v.92Z" fill="#464646"/><defs><linearGradient id="a5yzairoo" x1="41.77" y1="24.4" x2="51.48" y2="26.17" gradientUnits="userSpaceOnUse"><stop stop-color="#F9A51A"/><stop offset=".5" stop-color="#FFDC00"/></linearGradient><linearGradient id="b5yzairoo" x1="43.82" y1="23.69" x2="41.95" y2="19.53" gradientUnits="userSpaceOnUse"><stop stop-color="#F9A51A"/><stop offset=".2" stop-color="#FFC10E"/><stop offset=".45" stop-color="#FFDC00"/></linearGradient></defs></svg>