<!-- by TradingView --><svg width="56" height="56" fill="none" xmlns="http://www.w3.org/2000/svg"><path fill="#F0F3FA" d="M0 0h56v56H0z"/><path fill-rule="evenodd" clip-rule="evenodd" d="M15 20.912v1.49c4.58-2.616 13.788-7.879 13.988-8.007A7.9 7.9 0 0 1 29.75 14h-2.223c-.354 0-.7.093-1.005.268L15 20.913Zm14.674-6.711-1.044.641 7.6 6.874h1.303c.194 0 .323-.112.323-.278a.306.306 0 0 0-.124-.247 4232.378 4232.378 0 0 1-7.589-6.877c-.2-.19-.396-.154-.47-.113ZM21 22.991V22h16.669a.51.51 0 0 0 .33-.284v.982c-.016.1-.125.302-.432.302L21 22.992ZM21.073 24H35.96v1H21.073v-1Zm14.887 2H21.073v1H35.96v-1Z" fill="#EC2127"/><path fill-rule="evenodd" clip-rule="evenodd" d="M18 29.418V28c.283.303 1.125.908 2.231.908 1.107 0 1.907-.605 2.169-.908.283.303 1.125.908 2.231.908 1.107 0 1.907-.605 2.169-.908v1.419c-.194.193-.867.581-2.011.581-1.144 0-2.07-.388-2.389-.581-.194.193-.867.581-2.011.581-1.144 0-2.07-.388-2.389-.582ZM26.8 28v1.419c.32.193 1.245.581 2.389.581 1.144 0 1.817-.388 2.011-.581.32.193 1.245.581 2.389.581 1.144 0 1.817-.388 2.011-.581.32.193 1.245.581 2.389.581 1.144 0 1.817-.388 2.011-.581V28c-.262.303-1.062.908-2.169.908-1.106 0-1.948-.605-2.23-.908H35.6c-.262.303-1.062.908-2.169.908-1.106 0-1.948-.605-2.23-.908-.263.303-1.063.908-2.17.908-1.106 0-1.948-.605-2.23-.908ZM12 39v-6h1.5v2.447h2V33H17v6h-1.5v-2.447h-2V39H12Zm11.5-3a3 3 0 1 1-6 0 3 3 0 0 1 6 0Zm-1.191 0a1.809 1.809 0 1 1-3.618 0 1.809 1.809 0 0 1 3.618 0Zm17.427 1.955A2.778 2.778 0 0 1 37.579 39c-1.57 0-2.843-1.343-2.843-3s1.273-3 2.843-3c.834 0 1.584.379 2.104.982l-.745.941c-.277-.41-.708-.673-1.191-.673-.835 0-1.511.783-1.511 1.75s.676 1.75 1.51 1.75c.494 0 .932-.274 1.208-.697l.782.902ZM46 36a3 3 0 1 1-6 0 3 3 0 0 1 6 0Zm-1.191 0a1.809 1.809 0 1 1-3.618 0 1.809 1.809 0 0 1 3.618 0ZM24 39v-6h2.581c1.612 0 2.919 1.343 2.919 3s-1.307 3-2.919 3H24Zm1.5-1v-4h1.173c.733 0 1.327.895 1.327 2s-.594 2-1.327 2H25.5Zm8.5 1h-4v-6h4v1h-2.5v1.448H34v1.115h-2.5V38H34v1Z" fill="#0C4F9E"/></svg>