<!-- by TradingView --><svg width="56" height="56" viewBox="0 0 56 56" xmlns="http://www.w3.org/2000/svg"><path fill="#F0F3FA" d="M0 0h56v56H0z"/><path fill-rule="evenodd" d="M6 28c0-4.42 3.6-8 8.04-8h27.92A8.02 8.02 0 0 1 50 28c0 4.42-3.6 8-8.04 8H14.04A8.02 8.02 0 0 1 6 28Zm1 0c0-3.87 3.44-7 7.68-7h26.64c4.24 0 7.68 3.13 7.68 7s-3.44 7-7.68 7H14.68C10.44 35 7 31.87 7 28Z" fill="#02B0EF"/><path d="M41.97 28 41 29.67c.53.25 1.65.6 1.94 0 .29-.61-.53-1.37-.97-1.67ZM13 23h3v2.31c.31.18.65.33 1 .43v4.52c-.35.1-.69.25-1 .43V33h-3V23Zm4.35 7.16v-4.33l.3.06v4.22l-.3.05Zm.65-.1v-4.13l.37.02v4.1c-.12 0-.25 0-.37.02Zm.72 0v-4.13c.1 0 .19-.01.28-.03v4.2l-.28-.03Zm.63.1v-4.32l.3-.07v4.46l-.3-.08Zm.65.18v-4.68c.35-.13.69-.3 1-.51V23h3v3.27a2 2 0 0 0 0 3.46V33h-3v-2.15c-.31-.2-.65-.38-1-.5Z" fill="#02B0EF"/><path d="M25 23h1.46c.94 0 1.81.38 2.53.98.56.43 1.3 1.08 1.72 1.74A13.8 13.8 0 0 0 33 28.5V23h2.8c.71.18 2.4 1.09 3.35 3.3.18.4.33.78.47 1.13.82 2.03 1.24 3.07 3.38 3.07l-.62 1.16c-.2.45-.82 1.34-1.64 1.34-1.01 0-2.2-1.88-3-3.26l-.4-.7c-.52-.94-.86-1.56-1.34-1.7V33h-3.13c-.75-.36-2.22-1.3-2.7-2.4-.79 1.37-2.16 2.4-3.71 2.4H25v-3a2 2 0 1 0 0-4v-3Z" fill="#02B0EF"/></svg>