<!-- by TradingView --><svg width="56" height="56" viewBox="0 0 56 56" xmlns="http://www.w3.org/2000/svg"><path fill="#F0F3FA" d="M0 0h56v56H0z"/><path d="M28 16c-8.3 0-17.53 1.71-20 7 1.7-1.67 8.1-5 20-5s18.3 3.33 20 5c-2.47-5.29-11.7-7-20-7ZM28 40c-8.3 0-17.53-1.71-20-7 1.7 1.67 8.1 5 20 5s18.3-3.33 20-5c-2.47 5.29-11.7 7-20 7Z" fill="#0267FF"/><path d="M8 28.68c0-1.75.12-3.05.19-3.68.09 1.23 2.3 4 9.74 4s9.76-2.6 10.07-3.75v5.92c0 .94-2 3.83-9.77 3.83-7.75 0-9.58-2.89-9.76-3.03-.19-.15-.47-1.8-.47-3.29Z" fill="url(#a)"/><path d="M48 27.32c0 1.75-.12 3.05-.19 3.68-.09-1.23-2.14-4-9.58-4-7.44 0-9.92 2.6-10.23 3.75v-5.92c0-.94 2-3.83 9.77-3.83 7.75 0 9.58 2.89 9.76 3.03.19.15.47 1.8.47 3.29Z" fill="url(#b)"/><defs><linearGradient id="a" x1="28" y1="30" x2="8" y2="30" gradientUnits="userSpaceOnUse"><stop offset=".48" stop-color="#FE6507"/><stop offset="1" stop-color="#B82601"/></linearGradient><linearGradient id="b" x1="28" y1="26" x2="48" y2="26" gradientUnits="userSpaceOnUse"><stop stop-color="#CC1900"/><stop offset=".6" stop-color="#FE6507"/><stop offset="1" stop-color="#B82601"/></linearGradient></defs></svg>