<!-- by TradingView --><svg width="56" height="56" viewBox="0 0 56 56" xmlns="http://www.w3.org/2000/svg"><path fill="#F0F3FA" d="M0 0h56v56H0z"/><path d="M20 14c-5.93 2.6-10 7.8-10 14.06C10 36.86 18.06 44 28 44s18-7.14 18-15.94C46 21.8 41.93 16.6 36 14v13H20V14ZM20 9v5l2-1-2-4Z" fill="#223874"/><path d="M20 27V14l2-1 6.8 14H20Z" fill="#DEE0F5"/><path fill="#D6DBEE" d="M29 29h7v1h-7zM29 31h7v1h-7zM29 33h7v1h-7zM29 35h7v1h-7zM29 37h7v1h-7zM34 39h2v3l-2-3Z"/><path d="M20 42V27h8.76L36 42c-2.1-1.45-6.5-4-10-4s-5.68 2.65-6 4Z" fill="#8A9DC5"/><path d="m26.5 33 1.77 2.05a3.24 3.24 0 0 1 0 4.1 2.26 2.26 0 0 1-3.54 0 3.24 3.24 0 0 1 0-4.1L26.5 33Z" fill="#DEE0F5"/><path d="M28.69 38.5a9.7 9.7 0 0 0-2.84-.5c-.6 0-1.16.09-1.65.24a3.25 3.25 0 0 1 .53-3.19L26.5 33l1.77 2.05c.8.94.94 2.35.42 3.45Z" fill="#223874"/></svg>