<!-- by TradingView --><svg width="56" height="56" viewBox="0 0 56 56" xmlns="http://www.w3.org/2000/svg"><path fill="#F0F3FA" d="M0 0h56v56H0z"/><path d="M24 20.32c0-3.59 2.58-6.37 4-7.32 1.42.95 4 3.73 4 7.32 0 3.6-1.93 6.1-3.02 6.9.21.12.83.34 1.58.34 1.66 0 4.44-1.27 4.44-4.49 0-2.57-2-4.12-3-4.57 2.73-.67 5.35-3.34 6.23-4.5.92.9 2.77 3.55 2.77 6.15A8.73 8.73 0 0 1 32.56 29c-2.56 0-4.1-.6-4.56-1-.45.4-2 1-4.56 1-3.2 0-8.44-2.7-8.44-8.85 0-2.6 1.85-5.25 2.77-6.15.88 1.16 3.5 3.83 6.23 4.5-1 .45-3 2-3 4.57 0 3.22 2.78 4.5 4.44 4.5.75 0 1.37-.23 1.58-.35-1.1-.8-3.02-3.3-3.02-6.9Zm4 6.44c.65-.36 2-1.76 2-3.69 0-2.6-1.35-3.8-2-4.07-.65.27-2 1.47-2 4.07a4.51 4.51 0 0 0 2 3.69ZM10 32h4v4h3v-4h4v9h-4v-3h-3v3h-4v-9ZM26 32h-3v9h10v-2h-6v-1h6v-2h-6v-2h6v-2h-7ZM35 33.06c0-.59.47-1.06 1.04-1.06h8.92c.57 0 1.04.47 1.04 1.06V35h-4v-1h-3v5h3v-1h4v1.94c0 .59-.47 1.06-1.04 1.06h-8.92c-.57 0-1.04-.47-1.04-1.06v-6.88Z" fill="#00F"/></svg>