<!-- by TradingView --><svg width="56" height="56" viewBox="0 0 56 56" xmlns="http://www.w3.org/2000/svg"><path fill="#F0F3FA" d="M0 0h56v56H0z"/><path fill-rule="evenodd" d="M28 45a17 17 0 1 0 0-34 17 17 0 0 0 0 34Zm0-2a15 15 0 1 0 0-30 15 15 0 0 0 0 30Z" fill="#00873D"/><path d="M28 14c-5.92 0-10.98 3.32-13 8h3.24c2.3-4.88 6.86-6.5 8.86-6.71-4.83 1.38-7.26 4.99-7.91 6.71h3.51c1.12-3.41 4.64-5.9 8.8-5.9 4.16 0 7.67 2.49 8.8 5.9h.7c-2.02-4.68-7.08-8-13-8Z" fill="#00873D"/><path d="M36.17 18.5a9.29 9.29 0 0 0-1.74-.87V22l1.74-3.5ZM31 17h.05c.78 0 1.53.1 2.25.26L31 22v-5ZM33.56 17.35l.44.14V22h-2.6l2.16-4.65ZM37.2 19.3V22H39c-.37-1-1-1.94-1.8-2.7ZM36.71 18.96V22H34.9l1.6-3.28c.02.08.13.16.22.24ZM13 33h20v1H13zM14 35h20v1H14zM16 37h18v1H16zM17 39h19v1H17z" fill="#00873D"/><path d="M38 24.64V24c1.46.98 4 3.87 4 7.62C42 38.6 36.14 41 33.87 41 31.6 41 29 39.6 29 36.6c0-3.69 3.6-4.6 4.2-4.6.61 0 1.6.23 2.6.23 2.1 0 4.2-1.37 4.2-3.83a4.6 4.6 0 0 0-2-3.76ZM15 25h1v2h2v-2h1v5h-1v-2h-2v2h-1v-5Z" fill="#00873D"/><path fill-rule="evenodd" d="M25 25h-1v5h1v-2h.54c.8 0 1.46-.67 1.46-1.5s-.65-1.5-1.46-1.5H25Zm0 2h.51a.5.5 0 0 0 .49-.5.5.5 0 0 0-.49-.5H25v1Z" fill="#00873D"/><path d="M20 26v4h3v-1h-2v-1h2v-1h-2v-1h2v-1h-3v1Z" fill="#00873D"/><path fill-rule="evenodd" d="M34.5 30a2.5 2.5 0 1 0 0-5 2.5 2.5 0 0 0 0 5Zm0-1a1.5 1.5 0 1 0 0-3 1.5 1.5 0 0 0 0 3Z" fill="#00873D"/><path d="M31.8 28.5a2.5 2.5 0 1 1 0-2h-1.18a1.5 1.5 0 0 0-2.62 1 1.5 1.5 0 0 0 2.62 1h1.17Z" fill="#00873D"/></svg>