<!-- by TradingView --><svg width="56" height="56" viewBox="0 0 56 56" xmlns="http://www.w3.org/2000/svg"><path fill="url(#a)" d="M0 0h56v56H0z"/><ellipse cx="28" cy="28" rx="21" ry="13" fill="#026701"/><path fill-rule="evenodd" d="M28 40c11.05 0 20-5.37 20-12s-8.95-12-20-12S8 21.37 8 28s8.95 12 20 12Zm0-1c10.5 0 19-4.92 19-11s-8.5-11-19-11S9 21.92 9 28s8.5 11 19 11Z" fill="#FFFF02"/><path d="M17 23a1 1 0 1 1 2 0v2h5v-2a1 1 0 1 1 2 0v6a1 1 0 1 1-2 0v-2h-5v2a1 1 0 1 1-2 0v-6Z" fill="#FFFF02"/><path fill-rule="evenodd" d="M30 22a1 1 0 0 0-1 1v6a1 1 0 0 0 2 0v-2h5.5a2.5 2.5 0 0 0 0-5H30Zm1 2v1h5.5a.5.5 0 0 0 0-1H31Z" fill="#FFFF02"/><path d="M42 33c0 .2-.04.39-.13.54a.89.89 0 0 1-.36.34c-.15.08-.32.12-.5.12-.2 0-.37-.04-.52-.12a.89.89 0 0 1-.36-.34A1.05 1.05 0 0 1 40 33c0-.2.04-.39.13-.54.09-.14.2-.26.36-.34.15-.08.32-.12.51-.12.2 0 .36.04.51.12.15.08.27.2.36.34.09.15.13.33.13.54Zm-.33 0c0-.16-.03-.3-.09-.4a.59.59 0 0 0-.24-.25.69.69 0 0 0-.34-.08.69.69 0 0 0-.34.08.6.6 0 0 0-.24.25.84.84 0 0 0-.09.4c0 .16.03.3.09.4.06.11.14.2.24.25.1.05.21.08.34.08a.7.7 0 0 0 .34-.08.6.6 0 0 0 .24-.25c.06-.1.09-.24.09-.4ZM37 34v-2h.96c.21 0 .39.03.52.08.14.05.25.13.31.22.07.1.1.2.1.33 0 .12-.03.23-.1.32a.66.66 0 0 1-.3.22 1.5 1.5 0 0 1-.53.07h-.73v-.26h.7c.13 0 .23-.01.32-.04a.36.36 0 0 0 .18-.12.32.32 0 0 0 .06-.2.33.33 0 0 0-.06-.19.36.36 0 0 0-.19-.13.98.98 0 0 0-.32-.04h-.51V34H37Zm1.33-.9.67.9h-.46l-.66-.9h.45ZM34 32.26V32h2v.26h-.8V34h-.4v-1.74H34ZM31 34v-2h1.98v.26h-1.5v.6h1.4v.27h-1.4v.61H33V34h-2ZM28 34v-2h1.01c.23 0 .4.03.55.09.15.05.26.13.33.23s.11.2.11.33c0 .12-.04.23-.11.33a.72.72 0 0 1-.33.23c-.14.06-.33.09-.55.09h-.7v-.26h.66c.14 0 .26-.02.34-.05a.4.4 0 0 0 .2-.14.35.35 0 0 0 .06-.2.34.34 0 0 0-.06-.2.4.4 0 0 0-.2-.14.99.99 0 0 0-.34-.05h-.54V34H28ZM26 32v2h-.38v-2H26ZM25 33c0 .2-.04.39-.13.54a.89.89 0 0 1-.36.34c-.15.08-.32.12-.51.12-.2 0-.36-.04-.51-.12a.89.89 0 0 1-.36-.34A1.05 1.05 0 0 1 23 33c0-.2.04-.39.13-.54.09-.14.2-.26.36-.34.15-.08.32-.12.51-.12.2 0 .36.04.51.12.15.08.27.2.36.34.09.15.13.33.13.54Zm-.33 0c0-.16-.03-.3-.09-.4a.59.59 0 0 0-.24-.25.69.69 0 0 0-.34-.08.69.69 0 0 0-.34.08.6.6 0 0 0-.24.25.84.84 0 0 0-.09.4c0 .16.03.3.09.4.06.11.14.2.24.25.1.05.21.08.34.08a.7.7 0 0 0 .34-.08.6.6 0 0 0 .24-.25c.06-.1.09-.24.09-.4ZM22 32v2h-.34l-1.26-1.47h-.03V34H20v-2h.35l1.26 1.47h.02V32H22ZM17.86 34h-.36l.8-2h.4l.8 2h-.36l-.64-1.64-.64 1.64Zm.06-.78h1.16v.25h-1.16v-.25ZM15 34v-2h.38v.87h1.24V32H17v2h-.38v-.87h-1.24V34H15Z" fill="#FAF2FF"/><defs><linearGradient id="a" x1="56" y1="28" x2="0" y2="28" gradientUnits="userSpaceOnUse"><stop stop-color="#0B521A"/><stop offset="1" stop-color="#1C8D3B"/></linearGradient></defs></svg>