<!-- by TradingView --><svg width="56" height="56" viewBox="0 0 56 56" xmlns="http://www.w3.org/2000/svg"><path fill="#00C0FB" d="M0 0h56v56H0z"/><path d="M24.44 33 21 36h14l-3.44-3h-7.12ZM15 40l2.7-3h6.6l2.7 3H15Zm14 0 2.7-3h6.6l2.7 3H29Z" fill="#FF4"/><path d="M31 29.39c0-.2.11-.33.34-.41l.12-.05c.06-.03.11-.19.15-.48a23.06 23.06 0 0 0 .02-2.9c-.03-.3-.07-.47-.12-.51a.82.82 0 0 0-.13-.06c-.22-.09-.38-.21-.38-.38 0-.2.14-.35.42-.45.28-.1.74-.15 1.3-.15.58 0 .99.04 1.22.12.24.09.36.22.36.42 0 .17-.1.31-.3.43a.58.58 0 0 0-.07.03.33.33 0 0 0-.15.19c-.03.08-.04.25-.04.5v.24c0 .19.04.3.12.34.07.04.25.07.52.07.4 0 .65-.03.74-.07.1-.04.15-.16.15-.37v-.14c0-.19-.01-.35-.05-.48-.03-.13-.07-.22-.12-.26a1.04 1.04 0 0 0-.11-.06c-.18-.1-.27-.22-.27-.38 0-.21.13-.36.38-.45.24-.09.7-.13 1.34-.13.56 0 .96.04 1.2.13.24.08.36.22.36.42 0 .16-.11.3-.33.42l-.17.1c-.06.04-.1.17-.12.4-.02.22-.03.7-.03 1.46 0 .68 0 1.17.03 1.48.02.3.15.48.2.52l.12.07c.2.1.3.23.3.4 0 .21-.13.36-.38.46-.25.1-.75.14-1.3.14-.57 0-.99-.05-1.25-.14-.26-.09-.39-.24-.39-.44 0-.18.12-.35.36-.48l.02-.02c.09-.04.14-.13.17-.25.02-.12.04-.39.04-.81v-.03c0-.2-.04-.33-.12-.38a1.32 1.32 0 0 0-.52-.06c-.4 0-.66.02-.78.07s-.18.2-.18.44c0 .28.02.5.05.7.03.18.07.28.12.32l.09.05c.2.12.3.26.3.41 0 .2-.13.38-.4.48-.28.1-.7.14-1.28.14-.52 0-.91-.05-1.17-.14-.25-.1-.38-.27-.38-.47ZM20.82 27.46h1.45a7.17 7.17 0 0 0-.45-.86c-.13-.2-.23-.29-.3-.29-.07 0-.15.08-.25.24-.1.16-.24.46-.45.9ZM18 29.48c0-.19.14-.32.43-.4l.11-.04c.2-.07.48-.48.85-1.24a49.98 49.98 0 0 1 .56-1.14c.54-1.08.84-1.8.9-2.15.05-.2.13-.33.24-.4.1-.07.3-.11.55-.11.3 0 .53.03.71.1.2.07.36.18.52.34.17.18.37.46.6.85a30.65 30.65 0 0 1 1.34 2.62c.29.6.5.95.63 1.04l.15.06c.27.08.4.21.4.38 0 .2-.14.36-.45.46-.3.1-.78.14-1.45.14-.75 0-1.27-.04-1.57-.11-.3-.08-.44-.22-.44-.4 0-.1.03-.16.07-.23.05-.06.12-.1.21-.14.13-.04.21-.08.25-.11a.16.16 0 0 0 .06-.13c0-.12-.11-.2-.33-.25a5.14 5.14 0 0 0-1.07-.08c-.4 0-.67.02-.82.07-.14.05-.2.14-.2.27 0 .06.01.11.05.15.04.04.13.07.26.1.09 0 .16.05.21.1.05.07.08.14.08.23 0 .19-.12.33-.36.41-.23.09-.6.13-1.1.13-.47 0-.81-.04-1.04-.13-.24-.08-.35-.22-.35-.39ZM27.65 27H30l-.65 2H27l.65-2Z" fill="#FF4B47"/><path d="M13.98 16.47a20.15 20.15 0 0 1 6.43-4.05l.56 2.1c1.22-.56 2.51-.97 3.86-1.23l-.53-1.96a21.08 21.08 0 0 1 7.47 0l-.52 1.98c1.35.26 2.64.68 3.85 1.23l.56-2.1c2.37.95 4.52 2.3 6.33 4l-1.76 1.75c.95.98 1.78 2.07 2.47 3.25l1.95-1.95A18.95 18.95 0 0 1 48 27h-3.26a16.93 16.93 0 0 1 .23 4H48c-.13 2.8-.9 5.83-2.16 8.18l-2.33-1.8c-.41.9-1.05 1.78-1.6 2.6L39 36c1.18-1.88 2-4.16 2-6.52C41 22.58 35.18 17 28 17s-13 5.59-13 12.48c0 2.37.81 4.64 2 6.52l-2.9 4c-.57-.83-1.2-1.7-1.61-2.63l-2.33 1.81A20.12 20.12 0 0 1 8 31h3.03a17.8 17.8 0 0 1 .23-4H8a18.95 18.95 0 0 1 3.32-7.47l1.95 1.96a17.05 17.05 0 0 1 2.46-3.26l-1.75-1.76Z" fill="#4E3C93"/><path d="m13.87 33.15.22-.07c.22-.07.3-.06.32.05.03.1 0 .13-.2.19l-1.16.34c-.18.06-.24.05-.27-.05-.03-.1.03-.15.26-.22l.15-.04-.09-.3-.17.04c-.36.11-.5.31-.42.6.08.28.3.37.63.27l1.16-.34c.34-.1.47-.3.39-.58-.08-.29-.31-.37-.69-.26l-.22.07.09.3Zm.47-1.73-.04-.3-1.9.24-.05-.3-.28.04.11.9.29-.04-.04-.3 1.9-.24Zm-1.04-1.93.92.03v-.32l-.91-.02-1.28-.38-.01.32.8.2-.81.14-.01.34 1.3-.31Zm.47-2.9.23.05c.23.05.28.1.26.2-.02.1-.08.11-.27.07l-1.18-.29c-.18-.04-.23-.08-.2-.18.02-.1.1-.12.33-.06l.15.04.07-.3a1.86 1.86 0 0 0-.17-.05c-.37-.09-.6.01-.66.3-.07.29.07.47.41.55l1.18.3c.34.07.55-.03.62-.31.07-.3-.08-.48-.47-.58l-.22-.05-.08.3Zm-.95-1.86 2.08.74.1-.3-.84-.3.01-.04c.06-.17.06-.32 0-.43-.06-.12-.16-.18-.45-.28-.23-.08-.33-.1-.46-.07-.17.03-.25.12-.34.4l-.1.28Zm1.07.05-.7-.25.02-.04c.04-.1.09-.16.16-.15.04 0 .15.03.26.07.1.03.2.08.24.1.06.05.07.12.03.23l-.01.04Zm1.08-2.87-.5-.63-.15.27.55.7-.7-.44-.17.27 1.9 1.14.16-.26-.59-.36-.24-.3 1.01.34.17-.27-1.44-.46Zm1.6-1.42.78.65.2-.24-1.72-1.41-.2.24.7.58-.15.2-.7-.58-.2.24 1.71 1.4.2-.23-.79-.65.16-.2Zm.43-2.2-.22.22 1.5 1.64.22-.22L17 18.3Zm3.5-.28a.32.32 0 0 1-.2-.02 1.44 1.44 0 0 0-.18-.58l-.23.13c.08.17.1.23.13.37a1.8 1.8 0 0 1-.44-.23c.01-.36-.03-.58-.14-.76-.13-.19-.35-.24-.53-.11-.19.13-.22.36-.07.58.1.14.3.33.48.43 0 .27.06.5.17.66.17.25.42.34.6.21.14-.1.2-.2.23-.4.15.03.27.02.36 0L20.5 18Zm-.9-.02c.07.06.34.19.46.23 0 .12-.03.18-.09.22-.08.05-.18 0-.27-.13a.64.64 0 0 1-.1-.32Zm-.28-.49c-.14-.11-.23-.2-.27-.26-.07-.1-.06-.18 0-.23.06-.04.13-.01.18.06.06.1.09.21.1.43Zm2.8-1.6-.04-.8-.28.13.05.89-.33-.77-.28.12.87 2.05.29-.13-.28-.63-.02-.39.63.88.3-.13-.9-1.22Zm2.1-.21.27.98.3-.08-.58-2.15-.3.08.24.88-.24.07-.24-.88-.3.08.58 2.15.3-.08-.27-.99.25-.06Zm2.26-1.05c-.03-.26-.04-.32-.12-.4a.44.44 0 0 0-.38-.14.44.44 0 0 0-.35.22c-.04.1-.05.16-.01.42l.13 1.1c.03.25.04.3.12.4.08.1.23.16.38.14.16-.02.29-.1.35-.23.04-.1.05-.16.01-.42l-.13-1.1Zm-.16 1.25c.02.13-.01.19-.1.2-.1 0-.14-.04-.15-.17l-.16-1.34c-.02-.13.01-.18.1-.2.1 0 .14.04.15.17l.16 1.34Zm1.72-.16h.27l.05.5.3.02-.23-2.24-.4-.01-.36 2.22h.3l.07-.5Zm.25-.29h-.21l.13-1.03.08 1.03Zm2.7-1.16-.3-.06-.22 1.3-.18-1.37-.26-.04-.37 2.2.3.05.2-1.15.16 1.21.3.05.38-2.2Zm1.8 1.57-.44-.12-.07.25.13.04-.08.3a.74.74 0 0 1-.06.19.13.13 0 0 1-.15.06c-.05 0-.08-.06-.08-.12l.04-.2.31-1.13c.05-.19.1-.23.19-.2.1.03.11.1.05.34l-.05.15.3.08.05-.17c.1-.37.01-.6-.28-.68-.27-.08-.46.06-.55.4l-.32 1.14c-.05.19-.06.28-.04.38.03.13.13.24.25.28.1.03.21 0 .33-.1v.15l.16.05.3-1.1Zm1.43 1.1a1.5 1.5 0 0 0-.05.1c-.09.18-.1.28-.09.4.03.14.11.24.26.32.26.13.47.05.6-.22.09-.17.12-.4.08-.66l-.04-.27c-.04-.37-.04-.4.02-.53.06-.12.13-.17.2-.13.07.03.09.1.06.19l-.08.18.28.1c.08-.16.09-.17.11-.25a.4.4 0 0 0-.22-.47c-.25-.12-.49-.04-.62.23-.08.18-.1.34-.05.68l.03.28c.05.25.05.34-.02.47-.06.13-.14.18-.22.14-.11-.06-.11-.14 0-.35l.03-.08-.28-.13Zm1.94 1.27.23.16-.24.44.25.18 1.01-2-.33-.24-1.5 1.67.25.17.33-.38Zm.36-.1-.17-.12.66-.8-.49.92Zm2.88.54-.23-.21-.88.96.59-1.24-.2-.18-1.5 1.64.23.2.79-.85-.52 1.1.22.22 1.5-1.64Zm.73 2.7-.82.61.19.25 1.77-1.33-.18-.25-.73.55-.15-.2.73-.55-.18-.25-1.78 1.33.18.25.82-.61.15.2Zm.5 1.79.14.24-.41.3.14.26 1.81-1.3-.18-.36-2.1.78.15.27.46-.2Zm.38.08-.1-.2.95-.38-.85.58Zm1.42 2.7-.12-.42-.25.07.03.14-.3.09-.18.04a.13.13 0 0 1-.14-.1c-.01-.04.01-.1.06-.13l.19-.06 1.12-.34c.18-.05.24-.04.26.06.04.1-.02.15-.26.22a1.3 1.3 0 0 1-.14.04l.08.3.17-.05c.37-.1.52-.3.43-.6-.08-.27-.3-.36-.63-.27l-1.12.34c-.2.05-.27.1-.35.17-.1.09-.13.23-.1.35.03.1.12.18.26.23l-.13.09.04.16 1.08-.32Zm1.38 1.25-.06-.3-2.17.4.06.31 2.17-.4Zm-1.53 1.75v.28l-.49.07.01.3 2.2-.34-.01-.4-2.22-.25.01.3.5.04Zm.3.24-.01-.21 1.02.08-1.02.13Zm1.27 2.7.04-.31-1.3-.17 1.35-.24.04-.26-2.2-.29-.03.3 1.15.16-1.2.21-.04.31 2.19.29Zm-1.54 1.91.13-.43-.25-.07-.04.13-.3-.09-.18-.06a.13.13 0 0 1-.07-.15c.02-.06.07-.09.13-.08.04 0 .05 0 .19.04l1.12.33c.18.06.22.1.2.2-.03.1-.1.1-.34.04l-.15-.05-.08.3.16.05c.37.11.6.02.68-.27.08-.28-.05-.47-.38-.57L42 32.77c-.19-.05-.28-.07-.38-.05a.37.37 0 0 0-.27.25c-.03.1 0 .21.1.33h-.17l-.04.16 1.07.32Z" fill="#fff"/></svg>