<!-- by TradingView --><svg width="56" height="56" viewBox="0 0 56 56" xmlns="http://www.w3.org/2000/svg"><path fill="#F0F3FA" d="M0 0h56v56H0z"/><path d="m26.98 12 .52-1 .5 1h-1.02Zm-.51 1-.52 1H29l-.5-1h-2.03Zm2.04 2h-3.08l-.51 1h3.1l.5-1Zm-.97 2H24.4l-.52 1h3.17l.5-1ZM29 18c.28-.38.62-.72 1-1h6c.38.28.72.62 1 1h-8Zm-2.43 1h-3.2l-.52 1h3.23l.49-1Zm1.53 1c.07-.35.18-.68.32-1h9.16c.14.32.25.65.32 1h-9.8Zm-2.5 1h-3.27l-.51 1h3.29l.48-1Zm2.5 1c-.07-.32-.1-.66-.1-1h10c0 .34-.03.68-.1 1h-9.8Zm-3.48 1H21.3l-.52 1h3.36l.48-1ZM29 24a5 5 0 0 1-.58-1h9.16a5 5 0 0 1-.58 1h-8Zm-5.35 1h-3.38l-.52 1h3.41l.49-1Zm-.97 2h-3.45l-.51 1h3.47l.49-1Zm-.98 2h-3.5l-.52 1h3.54l.48-1Zm2.43 1c.64-.36 1.3-.7 1.99-1h9.38l.54 1h-11.9Zm-3.4 1h-3.56l-.52 1h3.6l.48-1Zm.12 1 1.1-.68.5-.32h14.13l.55 1H20.84Zm16.82 1H16.13l-.51 1H38.2l-.53-1Zm1.08 2h-4.82c.73.29 1.43.63 2.1 1h3.26l-.54-1Zm1.08 2h-2.2c.47.33.92.66 1.34 1h1.4l-.54-1Zm1.09 2h-.8c.8.74 1.44 1.44 1.88 2l-1.08-2Zm-24.17-1c.61-.34 1.25-.67 1.91-1h-4.6l-.51 1h3.2Zm-3.72 1h1.99A41.1 41.1 0 0 0 12 41l1.03-2Zm1.55-3h6.26a32.6 32.6 0 0 1 2.66-1h-8.4l-.52 1ZM32 28a10.9 10.9 0 0 0-2.2 0H32Zm1-2c1.13 0 2.16-.37 3-1h-6c.84.63 1.87 1 3 1Z" fill="url(#a)"/><circle cx="34" cy="21" r="5" fill="#068A58"/><path d="m30 14-1.5-3L13 41c2.83-2.33 11-7 17-7s11 4.67 13 7l-5.5-12c-1.2-.8-2.83-1-3.5-1-5.2 0-11.83 4.33-14.5 6.5L30 14Z" fill="#068A58"/><defs><linearGradient id="a" x1="19.5" y1="24.5" x2="38.5" y2="24" gradientUnits="userSpaceOnUse"><stop stop-color="#827D7D"/><stop offset=".24" stop-color="#3B3637"/><stop offset=".42" stop-color="#736D6E"/><stop offset=".56" stop-color="#332F30"/><stop offset="1" stop-color="#383334"/></linearGradient></defs></svg>