<!-- by TradingView --><svg width="56" height="56" viewBox="0 0 56 56" xmlns="http://www.w3.org/2000/svg"><path fill="#F0F3FA" d="M0 0h56v56H0z"/><path d="M45.5 32.56A12.68 12.68 0 0 0 48 25C48 17.82 41.99 12 34.58 12c-5 0-9.27 2.64-11.58 6.55 17.74 1.2 20 2.38 20 3.65 0 1.29-1.92 2.33-5.63 4.1-3.7 1.75-6.37 3.85-6.37 5.14 0 1.29 1.69 1.56 5.4 1.56 2.77 0 7-.28 9.1-.44Z" fill="#007CC2"/><path d="M22.74 19C21.3 21.6 21 24 21 25c3.36-1.08 10-2.43 10-3.25 0-.8-5.39-2.14-8.26-2.75ZM43 39v-3h1v.5c.18-.46.5-.5 1-.5v.96c-.06 0-.14-.07-.25-.07-.51 0-.75.4-.75.89V39h-1ZM41.05 37.13a.6.6 0 0 0-.18-.38.51.51 0 0 0-.37-.15.53.53 0 0 0-.38.14.69.69 0 0 0-.19.39h1.12Zm.95.56h-2.09c0 .21.06.38.17.5.1.12.25.17.45.17.15 0 .27-.02.37-.08.1-.06.18-.14.23-.25l.73.3a.96.96 0 0 1-.46.5c-.22.11-.5.17-.82.17-.47 0-.86-.14-1.15-.4a1.4 1.4 0 0 1-.43-1.08A1.48 1.48 0 0 1 40.53 36c.45 0 .81.15 1.08.44.26.3.39.7.39 1.2v.05ZM36 37.45c0 .43.07.78.45.78s.55-.36.55-.78c0-.42-.17-.68-.55-.68s-.45.26-.45.68ZM35 40v-4h1v.54c.24-.36.4-.54.77-.54.82 0 1.23.7 1.23 1.45 0 .72-.4 1.55-1.2 1.55-.45 0-.58-.15-.8-.54V40h-1ZM33 37.49c0-.44-.07-.71-.45-.71s-.55.26-.55.7c0 .44.17.71.55.71s.45-.27.45-.7ZM34 36v3h-1v-.56c-.25.38-.4.56-.83.56-.82 0-1.17-.79-1.17-1.5 0-.76.4-1.5 1.24-1.5.4 0 .55.18.76.55V36h1ZM29 39h-1v-4h1.16c1.02 0 1.84.22 1.84 1.36 0 1-.6 1.64-1.56 1.64H29v1Zm0-2h.25c.38 0 .6-.12.6-.54 0-.4-.22-.46-.58-.46H29v1Z" fill="#E67817"/><path d="M24.5 32c0-.8-.51-1.57-1.38-1.57-1.66 0-1.62 2.19-1.62 3.37 0 1.26-.13 3.77 1.64 3.77.82 0 1.36-.73 1.36-1.54V35H23v-1.5h4V39h-2v-1c-.58.75-1.22 1-2.4 1-3.06 0-3.6-2.62-3.6-5.1 0-2.81 1.01-4.9 4.09-4.9 2 0 3.91.76 3.91 3h-2.5ZM10.25 33.52h1c.45 0 .8-.12 1.08-.36s.42-.62.42-1.13c0-.5-.12-.9-.36-1.15-.24-.26-.64-.4-1.2-.4h-.94v3.04ZM8 29h3.94c.57 0 1.05.09 1.44.27.4.16.7.39.95.67.24.28.41.6.51.96a3.86 3.86 0 0 1-.1 2.46c-.17.37-.41.68-.72.92-.3.24-.68.42-1.11.55-.44.12-.93.18-1.46.18h-1.2V39H8V29Z" fill="#007CC2"/><path fill-rule="evenodd" d="M16.5 34a2.5 2.5 0 0 0 0 5H19v-2.5a2.5 2.5 0 0 0-2.5-2.5Zm-.06.59a1.91 1.91 0 0 0 0 3.82h2.03v-1.85c0-1.09-.88-1.97-1.97-1.97h-.06Z" fill="#007CC2"/><path fill-rule="evenodd" d="M16.5 38c.83 0 1.5-.66 1.5-1.49a1.5 1.5 0 0 0-1.5-1.48c-.83 0-1.5.66-1.5 1.48 0 .83.67 1.49 1.5 1.49Zm0-.6c.48 0 .87-.4.87-.89s-.39-.89-.87-.89-.88.4-.88.9c0 .49.4.89.88.89Z" fill="#007CC2"/></svg>