<!-- by TradingView --><svg width="56" height="56" viewBox="0 0 56 56" xmlns="http://www.w3.org/2000/svg"><path fill="#F0F3FA" d="M0 0h56v56H0z"/><path fill-rule="evenodd" d="M28 44a16 16 0 1 0 0-32 16 16 0 0 0 0 32Zm0 1a17 17 0 1 0 0-34 17 17 0 0 0 0 34Z" fill="#00457D"/><path fill-rule="evenodd" d="M43 28c0 1.39-.19 2.73-.54 4H13.54A15.02 15.02 0 0 1 28 13a15 15 0 0 1 15 15ZM22.5 15.5c3.6 2.4 4.83 11.33 5 15.5 2.8-6.8 1.5-14.17.5-17-1.2 1.6-4.17 1.67-5.5 1.5Zm12 1c-1.6 0-4-1.67-5-2.5 2 4.4 0 13.5-1.5 17 4-3.2 6.17-11 6.5-14.5Zm-6 14.5c2.33-1.17 7.5-4.9 9.5-10.5a5.16 5.16 0 0 1-3-3.5c-.17 3.17-1.7 10.4-6.5 14Zm12-6.5c-1.6-.4-1.67-2.5-1.5-3.5-1.6 4.4-7 8.5-9.5 10 4.8-.4 9.33-4.5 11-6.5Zm0 1c-.33.67-.7 2.2.5 3-1.5.83-5.6 2.5-10 2.5 2.17-.67 7.1-2.7 9.5-5.5Z" fill="#ED1C2E"/><path fill-rule="evenodd" d="M28 43a15 15 0 0 0 14.46-11H13.54A15 15 0 0 0 28 43Zm-1-10c.5 2.17 1.5 7 1.5 9-.83 0-2.8-.1-4-.5 1-1.67 2.9-5.7 2.5-8.5Zm4.5 8.5a45.12 45.12 0 0 0-4-8.5c.4 1.2 1.17 6.5 1.5 9l2.5-.5ZM28 33h.5c1.33 1 4.2 3.6 5 6-.5.33-1.5 1.2-1.5 2-1-2.5-3.2-7.6-4-8Zm7 4c-1-1.5-3-3.5-5-4h-1c1.2 0 4 4 5 5.5 0-1.2.67-1.5 1-1.5Zm-4.5-4Zm5 3.5c-1.04-1.04-3.24-3-4.56-3.42 1.18.22 3.31.72 5.06 1.42-.33.17-.9.8-.5 2Z" fill="#00457D"/></svg>