<!-- by TradingView --><svg width="56" height="56" viewBox="0 0 56 56" xmlns="http://www.w3.org/2000/svg"><path fill="#F0F3FA" d="M0 0h56v56H0z"/><path d="M10 33.43V19h1.99c.83 0 1.51.7 1.51 1.57v4.24A5.32 5.32 0 0 1 17.3 23c2.52 0 3.2 2.1 3.2 3.74v6.35c0 .38.54.7.92.7s.58-.32.58-.7v-9.03c.64.37 2.26.73 3.5-.74V33c0 .43.4.77.83.77.29 0 .54-.16.67-.4V23h3.5v1.68A5 5 0 0 1 34 23h5.5v-3h2.24c.7 0 1.26.57 1.26 1.27V23h3v3h-3v4.94c0 1.26.96 1.58 1.66 1.58a3 3 0 0 0 1.34-.37v2.49c-.37.12-1.4.36-2.53.36-3.14 0-3.95-2.27-3.97-3.4V26h-1.63c.4 1.3.46 2.8.46 4.01a4.98 4.98 0 0 1-7.83 4.09V39h-1.9c-.89 0-1.6-.77-1.6-1.71V35h-8.33c-.86 0-1.67-.7-1.67-1.57v-5.68c.02-.57-.14-1.71-1.44-1.71a3.3 3.3 0 0 0-2.06.73V35h-1.99c-.83 0-1.51-.7-1.51-1.57Zm20.5-6.89v5.64c.37.16.9.24 1.63.24 1.38 0 2.5-1 2.5-3.34 0-1.85-.38-3.35-1.93-3.35-.98 0-1.7.3-2.2.81Z" fill="#15489F"/><circle cx="23.75" cy="19.75" r="2.75" fill="#ED1C24"/></svg>