<!-- by TradingView --><svg width="56" height="56" viewBox="0 0 56 56" xmlns="http://www.w3.org/2000/svg"><path fill="#F0F3FA" d="M0 0h56v56H0z"/><path d="M21.58 12.99 11.46 30.55l.51 1.45h9.63l6.5-11-4.27-8.23-1.25-.1-1 .32Z" fill="url(#a)"/><path d="M17.4 41h7.4c.49 0 1.2-.4 1.2-.89V32H12.96c-1.43 0-1.42-1.36-1.24-1.9l-.4.6c-.4.57-.42 1.31-.07 1.91l4.48 7.44c.35.59.99.95 1.68.95Z" fill="url(#b)"/><path d="M37.86 41H31.2c-.49 0-1.2-.4-1.2-.89V32h12.31c1.43 0 1.42-1.36 1.24-1.9l.4.6c.4.57.42 1.31.07 1.91l-4.48 7.44c-.35.59-.99.95-1.68.95Z" fill="url(#c)"/><path d="m21.82 12.59-.45.72c.09-.14.43-.42 1.12-.42.68 0 1.12.67 1.25 1l14.55 25.15c.57 1.3-.33 1.84-.84 1.95h1.21a1.6 1.6 0 0 0 1.36-.76l4.77-7.69c.27-.44.28-1 .02-1.45L34.26 12.71a1.42 1.42 0 0 0-1.24-.71H22.88c-.43 0-.83.22-1.06.59Z" fill="url(#d)"/><defs><linearGradient id="a" x1="27.56" y1="20.05" x2="14.36" y2="33.12" gradientUnits="userSpaceOnUse"><stop stop-color="#0086C6"/><stop offset="1" stop-color="#0055A7"/></linearGradient><linearGradient id="b" x1="13.72" y1="33.79" x2="25.69" y2="33.79" gradientUnits="userSpaceOnUse"><stop stop-color="#0E9057"/><stop offset="1" stop-color="#55BA47"/></linearGradient><linearGradient id="c" x1="42.28" y1="33.79" x2="30.31" y2="33.79" gradientUnits="userSpaceOnUse"><stop stop-color="#0054A6"/><stop offset="1" stop-color="#0084C4"/></linearGradient><linearGradient id="d" x1="23.26" y1="14.23" x2="43.81" y2="31.67" gradientUnits="userSpaceOnUse"><stop offset=".2" stop-color="#55BA47"/><stop offset="1" stop-color="#0E9057"/></linearGradient></defs></svg>