<!-- by TradingView --><svg width="56" height="56" viewBox="0 0 56 56" xmlns="http://www.w3.org/2000/svg"><path fill="#F0F3FA" d="M0 0h56v56H0z"/><path d="M30.75 13.37c-.78-.08-1.47-.1-2.06-.06-.73.06-1.4.21-2 .47a5.1 5.1 0 0 0-1.94 1.46 8.32 8.32 0 0 0-1.22 2.11l-.44-.16c-.02-.01-.03-.02-.02-.04a11.9 11.9 0 0 1 2.17-3.76c.41-.45.84-.8 1.3-1.04a2.83 2.83 0 0 1 1.57-.34c.47.04.94.2 1.43.46.41.23.82.53 1.2.9Z" fill="#E97421"/><path d="M30.75 13.37c.41.4.8.83 1.14 1.3a9.2 9.2 0 0 0-1.24-.5 5.48 5.48 0 0 0-3.32.03 4.9 4.9 0 0 0-2.59 2.05c-.24.4-.47.83-.67 1.32l-.54-.22c.36-.86.76-1.57 1.21-2.11a5.1 5.1 0 0 1 1.95-1.46c.6-.26 1.26-.41 2-.47.6-.05 1.28-.03 2.06.06Z" fill="#EF8C19"/><path d="M31.9 14.67c.85 1.18 1.5 2.46 1.97 3.84a12.5 12.5 0 0 1-.28 1.45c-.23.87-.7 1.67-1.41 2.4l-.46-.37c.38-.45.67-.88.87-1.29a4.18 4.18 0 0 0-.32-4.2c-.3-.42-.67-.76-1.11-1.02a4.13 4.13 0 0 0-3.51-.35c-.65.23-1.2.6-1.65 1.1-.37.43-.72 1-1.03 1.73l-.9-.4c.2-.48.43-.92.67-1.3a4.9 4.9 0 0 1 4.22-2.34c.58 0 1.14.08 1.7.25.37.12.79.28 1.24.5Z" fill="#F29914"/><path d="m31.72 22-.5-.38c.2-.25.38-.5.54-.75.34-.52.54-1.08.6-1.67a3.4 3.4 0 0 0-1.09-2.86 3.16 3.16 0 0 0-1.24-.67 3.65 3.65 0 0 0-1.85-.03c-.66.16-1.2.46-1.61.9-.36.38-.7.94-1.04 1.68l-.56-.26c.31-.73.66-1.3 1.03-1.73.45-.5 1-.87 1.65-1.1a4.15 4.15 0 0 1 4.61 1.37 4.2 4.2 0 0 1 .32 4.2c-.19.4-.48.84-.86 1.3Z" fill="#F5A70F"/><path d="m31.21 21.62-1.02-.72c.28-.3.49-.57.63-.83.18-.32.29-.64.32-.98.05-.46-.03-.88-.22-1.26-.2-.4-.5-.7-.9-.89-.34-.15-.7-.23-1.09-.21-.39.01-.74.12-1.06.3-.3.17-.55.43-.76.76-.15.24-.31.57-.47.98l-1.1-.55c.32-.74.67-1.3 1.03-1.68.42-.44.95-.74 1.6-.9a3.65 3.65 0 0 1 1.86.03 3.16 3.16 0 0 1 2.07 1.8c.23.55.32 1.13.26 1.73-.06.6-.26 1.15-.6 1.67-.16.25-.35.5-.55.75Z" fill="#F7B10B"/><path d="M30.19 20.9a38.1 38.1 0 0 0-3.55-2.13c.16-.41.32-.74.47-.98.21-.33.47-.59.76-.76.32-.18.67-.29 1.06-.3.39-.02.75.06 1.09.21.4.2.7.49.9.89.2.38.27.8.22 1.26-.03.34-.14.66-.32.98-.14.26-.35.53-.63.83Z" fill="#FECD02"/><path d="M42.08 20.31a5.86 5.86 0 0 0-5.55-1.13c-.48.14-1 .37-1.56.67-.16-.82-.35-1.63-.57-2.42-.01-.03 0-.05.03-.05a12.35 12.35 0 0 1 3.81-.5c.67 0 1.27.1 1.8.3.62.22 1.1.57 1.44 1.03a3 3 0 0 1 .46 1c.1.35.14.72.14 1.1Z" fill="#E97421"/><path d="M18.64 17.27c-.52.26-.99.54-1.4.83-.89.62-1.5 1.44-1.83 2.46a5 5 0 0 0 0 3.07c.15.5.36 1 .63 1.51l-.72.42c-.18-.33-.34-.66-.49-1a5.89 5.89 0 0 1 1.04-6.4c.3-.32.54-.58.76-.78.65-.1 1.32-.14 2-.11Z" fill="#EF8C19"/><path d="M23.13 18.19a6.44 6.44 0 0 1 1.89 3.48l-.63.14a6.61 6.61 0 0 0-.96-2.22 4 4 0 0 0-1.74-1.33 4.39 4.39 0 0 0-4.1.43c-.63.43-1.1 1-1.4 1.7-.3.7-.4 1.46-.3 2.25.09.68.32 1.4.72 2.19l-.57.31a8.76 8.76 0 0 1-.63-1.5 5 5 0 0 1 0-3.08 4.72 4.72 0 0 1 1.83-2.46c.41-.3.88-.57 1.4-.83 1.53.07 3.03.38 4.5.92Z" fill="#F29914"/><path d="M16.63 17.38c-.22.2-.47.46-.76.78a5.89 5.89 0 0 0-1.04 6.4c.15.34.31.67.49 1l-.21.13-.04-.01c-.45-.72-.84-1.47-1.17-2.25a6.66 6.66 0 0 1-.6-3.05c.08-1.16.65-1.99 1.68-2.48a5.8 5.8 0 0 1 1.65-.52Z" fill="#E97421"/><path d="m24.4 21.81-.65.18c-.15-.56-.3-1.01-.47-1.36a3.46 3.46 0 0 0-2.18-1.87 3.77 3.77 0 0 0-2.9.33 3.29 3.29 0 0 0-1.68 2.68c-.05.58.04 1.17.25 1.75.14.38.29.72.43 1l-.6.3c-.39-.77-.62-1.5-.7-2.18-.1-.79 0-1.54.3-2.25.3-.7.76-1.27 1.38-1.7a4.39 4.39 0 0 1 4.1-.43 4 4 0 0 1 1.75 1.33c.38.5.7 1.23.96 2.22Z" fill="#F5A70F"/><path d="M25.41 19.17c.3.76.52 1.53.7 2.32l-1.09.18a6.44 6.44 0 0 0-1.89-3.48c.79.27 1.55.6 2.28.98Z" fill="#EF8C19"/><path d="m23.75 21.99-1.73.53a3.44 3.44 0 0 0-.73-1.57 1.66 1.66 0 0 0-.92-.5 1.78 1.78 0 0 0-1.76.69c-.2.29-.3.62-.28 1 0 .27.08.54.21.81.1.21.25.45.46.72l-1.8.85a9.04 9.04 0 0 1-.43-1 4.07 4.07 0 0 1-.25-1.75 3.4 3.4 0 0 1 3.09-3.14 3.77 3.77 0 0 1 2.81.84c.35.3.63.68.86 1.16.17.35.33.8.47 1.36Z" fill="#F7B10B"/><path d="M33.87 18.5c.3.85.52 1.7.68 2.57a15 15 0 0 1-1.47 2.1l-.9-.82a5.34 5.34 0 0 0 1.4-2.4c.11-.39.2-.87.29-1.44ZM42.08 20.31c0 .34-.02.68-.07 1.03-.25-.2-.55-.42-.9-.66a5.17 5.17 0 0 0-2.26-.84c-.83-.1-1.63 0-2.39.3-.42.16-.87.4-1.32.7l-.17-.99c.56-.3 1.08-.53 1.55-.67a5.86 5.86 0 0 1 5.56 1.13Z" fill="#EF8C19"/><path d="M26.1 21.5c-.17-.8-.4-1.57-.69-2.33 1.3.67 2.5 1.46 3.61 2.37.06.05.06.07-.02.05-.4-.11-.88-.17-1.41-.17a18.6 18.6 0 0 0-1.49.07Z" fill="#E97421"/><path d="m42.01 21.34-.13.71c-.23-.21-.52-.46-.85-.73a4.38 4.38 0 0 0-4.88-.46 9.7 9.7 0 0 0-.92.56l-.1-.58c.46-.3.9-.54 1.33-.7.76-.3 1.56-.4 2.39-.3.8.1 1.56.38 2.25.84.36.24.66.46.91.66Z" fill="#F29914"/><path d="M22.02 22.52c-1.02.34-2.03.72-3.02 1.15-.2-.27-.36-.5-.46-.72-.13-.27-.2-.54-.21-.81-.02-.38.08-.71.28-1a1.77 1.77 0 0 1 1.76-.69c.36.07.66.23.92.5.3.32.55.85.73 1.57Z" fill="#FECD02"/><path d="m41.88 22.05-.22.83c-.23-.27-.51-.55-.83-.86A3.74 3.74 0 0 0 38.64 21c-.84-.1-1.62.09-2.34.54-.32.2-.64.44-.97.73l-.1-.84c.3-.2.6-.4.92-.56a4.36 4.36 0 0 1 4.88.46c.34.27.62.52.85.73Z" fill="#F5A70F"/><path d="M41.66 22.88a15.4 15.4 0 0 1-2.85 5.03 8.07 8.07 0 0 1-1.33-.22 4.15 4.15 0 0 1-1.92-1.07L35.53 25c0-.64-.08-1.55-.2-2.73.33-.29.65-.53.97-.73.72-.45 1.5-.63 2.34-.54.83.1 1.56.44 2.19 1.03.32.3.6.6.83.86Z" fill="#F7B10B"/><path d="M34.55 21.07c.3 1.48.4 2.97.33 4.5 0 .05-.01.05-.04 0-.16-.4-.42-.83-.77-1.27-.21-.28-.54-.66-.99-1.13a15 15 0 0 0 1.47-2.1Z" fill="#E97421"/><path d="M38.26 26.13c.98 0 1.78-.79 1.78-1.76s-.8-1.76-1.78-1.76-1.78.79-1.78 1.76.8 1.76 1.78 1.76Z" fill="#FECD02"/><path d="M20.99 25.52c-.56-.44-1.17-.82-1.82-1.14a19.91 19.91 0 0 1 3.75-1.06c.02 0 .03.02 0 .04-.47.34-.88.73-1.22 1.2-.24.31-.48.63-.71.96Z" fill="#E97421"/><path d="M19.17 24.38c.65.32 1.26.7 1.82 1.14l-.56.94a8.14 8.14 0 0 0-2.83-1.38c.52-.26 1.05-.5 1.57-.7Z" fill="#EF8C19"/><path d="M28.53 24.53c-.35.31-.62.6-.81.89a2.53 2.53 0 0 0-.33 2.18A2.17 2.17 0 0 0 28.76 29c.34.11.7.14 1.08.1.55-.08 1.02-.3 1.4-.7.29-.31.56-.77.8-1.37.15.31.27.63.34.96-.4.5-.78.89-1.13 1.14-.45.32-.95.5-1.5.54-.71.06-1.35-.11-1.9-.5-.57-.4-.93-.95-1.09-1.65-.11-.5-.1-1.02.05-1.55.11-.4.32-.87.64-1.43a4.5 4.5 0 0 1 1.08 0Z" fill="#F5A70F"/><path d="M27.44 24.53a6.54 6.54 0 0 0-.63 1.43 3.14 3.14 0 0 0-.05 1.55c.16.7.52 1.25 1.09 1.65.55.39 1.19.56 1.9.5a2.95 2.95 0 0 0 1.5-.54c.35-.25.73-.63 1.13-1.14.07.29.1.58.12.87-.52.43-.98.75-1.4.95-.52.25-1.06.37-1.61.36-.73 0-1.38-.2-1.93-.6a3 3 0 0 1-1.18-1.63 3.77 3.77 0 0 1-.1-1.66c.06-.49.23-1.02.5-1.6.21-.06.44-.1.66-.14Z" fill="#F29914"/><path d="M32.04 27.02c-.24.6-.51 1.06-.8 1.37-.38.4-.85.62-1.4.7-.38.04-.74.01-1.08-.1a2.16 2.16 0 0 1-1.37-1.39 2.53 2.53 0 0 1 .33-2.18c.18-.28.45-.58.8-.89a4.47 4.47 0 0 1 3.52 2.5Z" fill="#F7B10B"/><path d="M26.77 24.67a6.07 6.07 0 0 0-.5 1.6c-.08.58-.05 1.13.11 1.66a3 3 0 0 0 1.18 1.64c.55.39 1.2.59 1.93.6.55 0 1.1-.12 1.61-.37.42-.2.88-.52 1.4-.95.01.46-.04.9-.16 1.35-.64.3-1.21.52-1.72.64a4.54 4.54 0 0 1-3.41-.57 3.92 3.92 0 0 1-1.74-2.65c-.1-.56-.1-1.13.03-1.7.05-.26.12-.52.19-.78.34-.2.7-.36 1.08-.47Z" fill="#EF8C19"/><path d="m25.69 25.14-.2.78a4.39 4.39 0 0 0 .58 3.2c.3.46.68.85 1.14 1.15a4.54 4.54 0 0 0 3.42.57c.5-.12 1.07-.33 1.7-.64a4.45 4.45 0 0 1-2.24 2.78 4.44 4.44 0 0 1-4.68-.3 4.46 4.46 0 0 1-1.74-2.49 4.4 4.4 0 0 1 .84-4.02c.33-.41.72-.76 1.18-1.03Z" fill="#E97421"/><path d="M17.6 25.08c1.08.3 2.03.76 2.83 1.38l-.27.52a7.1 7.1 0 0 0-3.69-1.29l1.12-.6Z" fill="#F29914"/><path d="M28.76 26.13c-.33.36-.32.9.02 1.22.35.32.9.29 1.24-.07a.86.86 0 0 0-.02-1.22.88.88 0 0 0-1.24.07Z" fill="#FECD02"/><path d="M16.47 25.69a7.1 7.1 0 0 1 3.7 1.3l-.32.7a6.17 6.17 0 0 0-1.7-.97 3.7 3.7 0 0 0-1.93-.13 3.3 3.3 0 0 0-2.47 2.08 3.69 3.69 0 0 0-.08 2.36A3.24 3.24 0 0 0 16 33.3c.46.14 1.06.22 1.82.26l-.07.32c-1.3 0-2.3-.26-3.02-.77a3.62 3.62 0 0 1-1.37-1.82 4.12 4.12 0 0 1-.2-1.77c.06-.5.22-1.07.48-1.74a15.3 15.3 0 0 1 2.83-2.09Z" fill="#F5A70F"/><path d="M43.15 34.4a11 11 0 0 0 .44-1.4 6 6 0 0 0-.31-3.63 5.76 5.76 0 0 0-1.04-1.58 9.79 9.79 0 0 0-1.45-1.27l.14-.2h.04c1.16.78 2.1 1.6 2.83 2.46.6.72.98 1.42 1.13 2.1.21.97-.05 1.86-.78 2.66a5.6 5.6 0 0 1-1 .87Z" fill="#E97421"/><path d="m19.85 27.68-.46 1.1c-.36-.31-.68-.54-.97-.7-.37-.2-.74-.33-1.12-.37a2.35 2.35 0 0 0-1.77.48c-.5.39-.78.93-.82 1.6a2.22 2.22 0 0 0 1.47 2.33c.48.18 1.15.22 2 .12l-.36 1.32a8.26 8.26 0 0 1-1.81-.26 3.24 3.24 0 0 1-2.33-2.28c-.24-.78-.21-1.57.07-2.35a3.3 3.3 0 0 1 2.47-2.08 3.7 3.7 0 0 1 1.94.13c.5.17 1.07.5 1.69.96Z" fill="#F7B10B"/><path d="M40.8 26.52c.58.43 1.06.85 1.44 1.27a5.76 5.76 0 0 1 1.48 3.38A6 6 0 0 1 43.6 33c-.1.43-.25.9-.44 1.4-.34.24-.71.46-1.11.66.21-.39.4-.78.58-1.18a5.46 5.46 0 0 0-1.56-6.45l-.6-.46.33-.46Z" fill="#EF8C19"/><path d="m38.81 27.9-.47.56a7.86 7.86 0 0 1-1.47-.38 4.89 4.89 0 0 1-1.32-.75l.01-.7c.27.22.5.4.7.53.36.23.76.41 1.22.53.36.1.8.17 1.33.22Z" fill="#F5A70F"/><path d="M42.04 35.07c-.63.31-1.28.56-1.96.76-1.5.43-3.01.64-4.54.64a9.22 9.22 0 0 1-2.26-2.26l1.03-.77c.47.6.94 1.06 1.39 1.37a4.15 4.15 0 0 0 4.62-.01 3.67 3.67 0 0 0 1.52-2.41 4 4 0 0 0-.36-2.53 3.73 3.73 0 0 0-.77-1.04 7.4 7.4 0 0 0-1.03-.8l.79-1.04.6.46a5.47 5.47 0 0 1 1.56 6.45c-.18.4-.38.8-.6 1.18ZM38.34 28.46l-.48.52c-.82-.23-1.6-.52-2.36-.88l.05-.77c.4.31.83.57 1.32.75.4.16.9.29 1.47.38Z" fill="#F29914"/><path d="M19.39 28.77a37.59 37.59 0 0 0-1.2 3.47c-.87.1-1.53.06-2.01-.12a2.22 2.22 0 0 1-1.48-2.32c.05-.68.33-1.22.83-1.61.5-.4 1.08-.55 1.77-.48.38.04.75.16 1.12.37.3.16.61.39.97.7Z" fill="#FECD02"/><path d="M13.64 27.78a7.02 7.02 0 0 0-.47 1.74c-.07.6 0 1.19.2 1.77.23.73.7 1.34 1.37 1.82.7.5 1.7.76 3 .77l-.22 1.06c-.57-.05-1.1-.13-1.6-.25a4.72 4.72 0 0 1-3.5-3.07c-.18-.46-.31-1.1-.42-1.94a11.2 11.2 0 0 1 1.64-1.9Z" fill="#F29914"/><path d="M39.68 28.03c.43.28.77.55 1.03.8a4.01 4.01 0 0 1 .6 4.95A3.9 3.9 0 0 1 39 35.4a4.15 4.15 0 0 1-3.31-.59 6.64 6.64 0 0 1-1.4-1.37l.57-.47c.3.37.58.67.85.91.77.69 1.7.97 2.75.83a3.05 3.05 0 0 0 2.46-1.91c.22-.6.26-1.21.13-1.83a3.45 3.45 0 0 0-.86-1.63 6.86 6.86 0 0 0-.92-.81l.4-.5Z" fill="#F5A70F"/><path d="M35.5 28.1c.76.36 1.54.65 2.36.88l-.94.91-1.58-.72.16-1.07Z" fill="#EF8C19"/><path d="M21.09 31.35c-.75.4-1.5.8-2.22 1.25.4-1.45.97-2.82 1.7-4.13a5.73 5.73 0 0 0 .14 1.4c.06.36.19.85.38 1.48Z" fill="#E97421"/><path d="M39.28 28.53c.37.28.68.55.92.81.44.48.72 1.02.86 1.63.13.62.09 1.23-.13 1.83a3.05 3.05 0 0 1-2.46 1.91 3.33 3.33 0 0 1-2.75-.83 7.3 7.3 0 0 1-.85-.91l.54-.47c.38.49.75.85 1.11 1.09.45.3.94.44 1.47.45a2.2 2.2 0 0 0 2.3-1.97 2.52 2.52 0 0 0-.95-2.4 6.91 6.91 0 0 0-.64-.46l.58-.68Z" fill="#F7B10B"/><path d="M36.92 29.9c-.77.7-1.57 1.32-2.4 1.87-.08.05-.1.03-.05-.04.22-.35.4-.76.54-1.24.1-.3.2-.75.33-1.32l1.58.72Z" fill="#E97421"/><path d="M38.7 29.2c.27.18.48.33.64.47.76.64 1.08 1.44.95 2.4a2.2 2.2 0 0 1-2.3 1.97c-.53 0-1.02-.15-1.47-.45-.36-.24-.73-.6-1.11-1.09a37.27 37.27 0 0 0 3.29-3.3Z" fill="#FECD02"/><path d="M12 29.68c.1.83.24 1.48.41 1.94a4.72 4.72 0 0 0 3.5 3.07c.5.12 1.04.2 1.6.25l-.09.5c-.62-.04-1.1-.1-1.43-.16a5.26 5.26 0 0 1-3.92-2.95 9.28 9.28 0 0 1-.6-1.69l.53-.96Z" fill="#EF8C19"/><path d="m17.42 35.44-.17 1.12c0 .01 0 .02-.02.02-.68-.1-1.33-.22-1.96-.39-.8-.21-1.5-.48-2.1-.8-1.58-.82-2.3-1.9-2.15-3.25.05-.51.2-1 .44-1.5.18.67.38 1.23.61 1.7.8 1.6 2.1 2.58 3.92 2.94.34.06.81.12 1.43.16Z" fill="#E97421"/><path d="m21.09 31.35.3.84c-.56.31-1.04.62-1.42.92a6.63 6.63 0 0 0-1.58 1.68c.11-.74.27-1.47.48-2.2.73-.43 1.47-.85 2.22-1.24Z" fill="#EF8C19"/><path d="M21.74 32.94c-.31.16-.65.35-1.02.58a4.28 4.28 0 0 0-2 4.45 3.97 3.97 0 0 0 3.16 3.26c.53.12 1.08.14 1.65.06a5.9 5.9 0 0 0 2.81-1.32l.4.45c-.45.36-.87.64-1.25.86a5.19 5.19 0 0 1-6.46-1.08c-.23-.27-.46-.55-.68-.85-.23-1.5-.21-3.03.04-4.56l.38-.5c.33-.43.73-.82 1.2-1.18.38-.3.86-.6 1.43-.92l.34.75Z" fill="#F29914"/><path d="m21.74 32.94.42.82c-.7.36-1.25.74-1.62 1.13a3.43 3.43 0 0 0-.33 4.1 2.98 2.98 0 0 0 2.03 1.3c.62.1 1.24.05 1.85-.16.52-.18 1.06-.49 1.62-.93l.63.77a5.9 5.9 0 0 1-2.81 1.32 4.66 4.66 0 0 1-3.1-.67 3.87 3.87 0 0 1-1.7-2.65 4.34 4.34 0 0 1 1.99-4.45c.37-.23.71-.42 1.02-.58Z" fill="#F5A70F"/><path d="m22.16 33.76.7 1.24c-.3.13-.59.28-.86.45-.37.24-.65.53-.82.9a1.9 1.9 0 0 0 .31 2.07c.2.22.47.38.77.47a2.11 2.11 0 0 0 1.82-.28c.24-.16.48-.37.71-.62l.91 1.21c-.55.44-1.1.75-1.62.93-.6.21-1.22.26-1.84.15a2.98 2.98 0 0 1-2.5-2.38 3.43 3.43 0 0 1 .8-3c.37-.4.91-.78 1.62-1.14Z" fill="#F7B10B"/><path d="M33.28 34.21c.61.87 1.36 1.63 2.26 2.26l-1.21-.02c-.64-.54-1.2-1.16-1.7-1.83l.65-.4Z" fill="#EF8C19"/><path d="M26.85 35.95c-.24.8-.4 1.63-.48 2.49a19.83 19.83 0 0 1-2.3-3.88c-.03-.07-.02-.08.04-.04.34.3.77.58 1.3.83.35.17.83.37 1.44.6ZM32.64 34.62c.49.67 1.05 1.29 1.69 1.83-1.5-.07-2.98-.3-4.4-.7-.05-.02-.05-.03 0-.03.43-.08.9-.22 1.4-.44.3-.13.74-.35 1.3-.66Z" fill="#E97421"/><path d="M22.86 35c.6 1.03 1.24 2.03 1.93 3-.23.24-.47.45-.71.61a2.11 2.11 0 0 1-1.82.28 1.72 1.72 0 0 1-1.2-1.33 1.9 1.9 0 0 1 .13-1.21c.16-.37.44-.66.8-.9.28-.17.57-.32.87-.45Z" fill="#FECD02"/><path d="m26.85 35.95 1 .3a6.39 6.39 0 0 0 .15 4.08 17.8 17.8 0 0 1-1.63-1.9c.08-.85.25-1.67.48-2.48Z" fill="#EF8C19"/><path d="M28.55 36.4c-.12.59-.19 1.1-.2 1.54-.01.57.07 1.08.23 1.54a3.74 3.74 0 0 0 2.1 2.26c.64.28 1.35.4 2.1.33.77-.06 1.44-.3 2.03-.7a3.74 3.74 0 0 0 1.43-1.9c.22-.6.34-1.4.38-2.4l.81-.03c0 .56-.03 1.03-.08 1.43-.07.51-.17.97-.32 1.37-.3.8-.77 1.48-1.43 2.01-.64.53-1.4.87-2.26 1.04-.53.1-1.06.17-1.6.21A13.98 13.98 0 0 1 28 40.33l-.2-.74a6.39 6.39 0 0 1 .06-3.35l.7.16Z" fill="#F29914"/><path d="M29.22 36.52a5.1 5.1 0 0 0-.12 2.39 3.18 3.18 0 0 0 2.25 2.38 3.8 3.8 0 0 0 2.84-.3 3.1 3.1 0 0 0 1.26-1.33c.26-.52.4-1.13.42-1.8.01-.35.02-.6.01-.77l.74-.01a8.24 8.24 0 0 1-.38 2.4c-.29.8-.76 1.44-1.44 1.9-.58.4-1.25.63-2.01.7a4.28 4.28 0 0 1-2.12-.34 3.74 3.74 0 0 1-2.09-2.26 4.27 4.27 0 0 1-.23-1.54c.01-.44.08-.95.2-1.54l.67.12Z" fill="#F5A70F"/><path d="M30.6 36.74c-.15.38-.24.72-.28 1.02-.05.37-.02.71.09 1.04.14.42.4.75.75 1 .33.23.7.36 1.13.38.42.03.8-.06 1.16-.25.38-.2.67-.5.86-.9.24-.5.3-1.15.16-1.95l1.41.01v.76a4.27 4.27 0 0 1-.43 1.8A3.1 3.1 0 0 1 34.19 41a3.8 3.8 0 0 1-2.84.3 3.18 3.18 0 0 1-2.25-2.38 5.1 5.1 0 0 1 .12-2.4l1.39.23Z" fill="#F7B10B"/><path d="M30.6 36.74c1.3.18 2.58.3 3.87.34.13.8.08 1.44-.16 1.94-.2.4-.48.7-.86.91-.36.2-.75.28-1.17.25-.42-.02-.8-.15-1.12-.38-.36-.25-.61-.58-.75-1a2.25 2.25 0 0 1-.1-1.04c.04-.3.14-.64.3-1.02Z" fill="#FECD02"/><path d="M38.5 38.63c-.08.33-.19.75-.35 1.25a5.93 5.93 0 0 1-3.21 3.64l-.85.4a8.3 8.3 0 0 1-2.36-.82c.55-.04 1.08-.1 1.61-.2a5.05 5.05 0 0 0 2.26-1.05 4.59 4.59 0 0 0 1.43-2c.15-.41.25-.87.32-1.38.05-.4.07-.87.08-1.43l.96-.08c.02 0 .03 0 .03.03.06.55.09 1.1.08 1.64Z" fill="#EF8C19"/><path d="M38.5 38.63c0 .88-.1 1.72-.31 2.54-.12.48-.32.95-.59 1.4a2.8 2.8 0 0 1-1.51 1.25c-.58.2-1.24.23-2 .1l.85-.4a5.93 5.93 0 0 0 3.21-3.64c.16-.5.27-.92.34-1.25Z" fill="#E97421"/><path d="m26.73 40.42.68.73v.04c-.43.4-.88.77-1.35 1.12a6.74 6.74 0 0 1-6.13.09 43 43 0 0 1-.74-.35 8.68 8.68 0 0 1-.84-2.7c.22.3.45.58.67.85a5.19 5.19 0 0 0 6.46 1.09c.4-.23.8-.51 1.25-.87Z" fill="#EF8C19"/><path d="M26.06 42.31a8.4 8.4 0 0 1-3.28 1.6c-.45.1-.93.1-1.41 0-.46-.08-.9-.31-1.29-.68a4.31 4.31 0 0 1-.88-1.18l.73.35a6.74 6.74 0 0 0 6.13-.09Z" fill="#E97421"/></svg>