<!-- by TradingView --><svg width="56" height="56" viewBox="0 0 56 56" xmlns="http://www.w3.org/2000/svg"><path fill="#F0F3FA" d="M0 0h56v56H0z"/><path d="M11.01 36.93c.06-7.62.06-13.6-.01-17.92-.01-.75.28-1.31.88-1.7a3.2 3.2 0 0 1 1.65-.31c5.19.01 13.57.02 25.15.01l3.92.03c.14 0 .21.08.21.21v.01c.03.14-.04.2-.2.22-.34.02-.7.03-1.06.03H13.34c-.94 0-1.52.33-1.74 1-.07.2-.11.78-.11 1.73-.02 5.38-.03 10.95 0 16.7 0 .12-.06.18-.18.18h-.12c-.12 0-.18-.06-.18-.19Z" fill="#2B33AF"/><path d="M29.07 25.59c-.61.8-1.24 1.6-1.88 2.39a.93.93 0 0 0-.14.32c-.71.74-2.15 2.13-2.8 2.78l-3.11 2.76c-.04.03-.14.08-.14.13v.7c0 .09-.01.13-.09.12h-.1c-.55-.06-.96.02-1.23.22-.3.22-.82.56-1.57 1.02-1.34.82-2.44 1.2-3.3 1.16-.7-.04-.95-.52-.77-1.46a6 6 0 0 1 .73-1.9c.01-.04.04-.05.07-.03.02 0 .04.03.03.06-.2 1.03.23 1.41 1.3 1.16.67-.16 1.39-.48 2.17-.98a33.23 33.23 0 0 0 6.31-5.3 31.33 31.33 0 0 0 3.68-4.69l.9-1.8c.19-.55.22-1 .1-1.33-.16-.43-.56-.56-1.18-.42-.26.06-.27.03-.03-.09.57-.3 1.13-.52 1.66-.65.83-.2 1.36-.12 1.6.26.27.43.13 1.33-.44 2.68-.26.65-1.15 1.95-1.77 2.89Z" fill="#19196E"/><path d="M21 29.77v.34c0 .44-.15.75-.35.92-.89.73-1.71 1.38-2.48 1.95a.1.1 0 0 1-.11 0 .1.1 0 0 1-.06-.09V22.1c0-.06.03-.09.1-.09h2.67c.08 0 .23.04.23.12v7.65Z" fill="#4782B3"/><path d="M26.95 22c0 .02.05.04.05.06-.02.52 0 1.03 0 1.52 0 .32-.18.6-.32.85-.34.6-.71 1.15-1.11 1.63l-1.57.37V22.1c0-.07.04-.11.1-.11h2.85Z" fill="#19196E"/><path d="m29.26 22-1.02 2.05-1.2-2V22h2.22Z" fill="#4782B3"/><path d="M32.66 31.96 34.34 29l3.8-6.85c.06-.1.13-.14.24-.14h3.07c.03 0 .05.01.07.04.02.03.02.06 0 .09l-7.1 12.81c-.04.08-.08.08-.12 0l-1.64-2.98Z" fill="#19196E"/><path d="m30.8 22.83 3.58 6.13-1.7 3.02-3.6-6.4c.17-.27 1.5-2.32 1.71-2.75Z" fill="#4782B3"/><path d="M25.57 26.03a23.52 23.52 0 0 1-3 3.56c-.34.3-.86.46-1.56.48L21 27.22l3.05-.85 1.52-.34Z" fill="#4BCECC"/><path d="M27 28.3v6.6c0 .07-.03.1-.1.1h-2.77c-.09 0-.13-.04-.13-.12l.01-3.6c1.23-1.19 2.99-3.07 2.99-2.99Z" fill="#4782B3"/><path d="M44.46 37.5a.67.67 0 0 0 .06-.26v-5.6c0-.1.04-.15.14-.15h.14c.1 0 .16.06.16.16l.04 4.97c0 .64-.1 1.1-.28 1.42-.38.64-1.01.96-1.9.96l-6.65-.01c-.1 0-.14-.05-.14-.15v-.2c0-.08.05-.13.13-.13l6.52.01c.44 0 .77-.05.99-.16.36-.17.63-.46.8-.86Z" fill="#2B33AF"/></svg>