<!-- by TradingView --><svg width="56" height="56" viewBox="0 0 56 56" xmlns="http://www.w3.org/2000/svg"><path fill="#F0F3FA" d="M0 0h56v56H0z"/><path d="M28 20c.07 0 .14.01.19.04.58.3 1.17.59 1.75.87.05.03.07.07.05.12l-1.29 3.92c0 .02-.02.03-.04.04a18.45 18.45 0 0 1-1.32 0c-.02 0-.03-.02-.04-.03L26 21.04c-.01-.06 0-.1.05-.12l1.76-.88A.41.41 0 0 1 28 20Zm-2.97 1.95.63-.33c.03-.01.05 0 .06.03l1.08 3.27c.02.04 0 .06-.04.06h-.74c-.02 0-.04 0-.04-.03L25 22c0-.02 0-.04.03-.05Zm5.94-.02-.64-.28c-.03-.02-.05 0-.06.02l-1.07 3.26c-.01.04 0 .06.04.06h.74c.02 0 .03-.01.04-.03l.98-2.97c0-.03 0-.05-.03-.06Z" fill="#FDB813"/><path d="M23.25 28h.7c.03 0 .05 0 .05-.03v-1.93c0-.03 0-.04.03-.04h1.44c.02 0 .03.01.03.03v5.95c0 .01 0 .02-.02.02h-1.44c-.03 0-.04-.02-.04-.04v-2.17c0-.03-.02-.04-.04-.04a21.98 21.98 0 0 0-1.3 0c-.03 0-.04.01-.04.04v2.17c0 .03-.01.04-.04.04h-1.56c-.01 0-.02 0-.02-.02v-5.95c0-.02.01-.03.03-.03h1.55c.03 0 .04.01.04.04v1.93c0 .03.02.03.04.03h.59Zm4.28.73c0 .08.02.09.05.01l1.04-2.7c.01-.03.03-.04.05-.04h1.7c.03 0 .04.02.03.05l-1.27 2.8a.08.08 0 0 0 0 .08l1.36 3.03c.02.03 0 .04-.03.04h-1.72c-.04 0-.07-.02-.08-.06l-1.08-2.88c-.03-.09-.05-.09-.05 0v2.91c0 .02 0 .03-.03.03h-1.47c-.02 0-.03-.01-.03-.03v-5.94c0-.02.01-.03.03-.03h1.47c.02 0 .03.01.03.04v2.7Zm6.54.15a.02.02 0 0 0-.01.02l.01.02c.3.13.53.33.7.62.15.27.23.57.23.9 0 .33-.08.63-.24.89-.17.28-.4.47-.7.57-.2.07-.61.1-1.22.1h-2.31c-.02 0-.03 0-.03-.03v-5.93c0-.02.01-.04.03-.04h2.7c.69.01 1.15.29 1.41.84.16.35.2.73.11 1.14-.1.45-.32.75-.68.9Zm-1.84-1.47c-.04 0-.06.02-.06.06v.66c0 .04 0 .05.05.05l.52.01c.1 0 .17-.03.24-.1.07-.06.1-.14.1-.23v-.1c0-.1-.02-.17-.09-.24a.34.34 0 0 0-.24-.1h-.52Zm-.02 2.2c-.03 0-.04 0-.04.04v.82c0 .03.01.04.04.04h.63a.42.42 0 0 0 .43-.43v-.04a.42.42 0 0 0-.12-.3.41.41 0 0 0-.3-.13h-.64Z" fill="#129748"/><path d="M34.98 32.5H21.02c-.01 0-.02 0-.02.02v.46c0 .01 0 .02.02.02h13.96c.01 0 .02 0 .02-.02v-.46c0-.01 0-.02-.02-.02Z"/><path fill-rule="evenodd" d="M21.14 35.94h-.1c-.04 0-.05-.01-.03-.05l.8-1.87c0-.01.01-.02.03-.02.01 0 .02 0 .03.02l.8 1.87c0 .03 0 .05-.04.05h-.21c-.02 0-.03 0-.04-.02l-.24-.7-.03-.01h-.65c-.01 0-.03 0-.03.02l-.25.69c0 .02-.02.02-.04.02Zm.37-.9.25-.6.02-.01c.01 0 .02 0 .03.02l.25.6c0 .02 0 .03-.03.03h-.5c-.02 0-.03-.01-.02-.04Zm8.55.96a.78.78 0 0 1-.6-.32c-.16-.2-.23-.44-.22-.72.02-.27.11-.5.29-.69a.78.78 0 0 1 1.21.06c.16.2.23.44.22.71-.01.28-.1.51-.28.7a.77.77 0 0 1-.62.26Zm-.59-1.02c-.02.5.25.9.6.91.35.01.64-.38.66-.87.02-.49-.25-.9-.6-.9-.35-.02-.64.37-.66.86Zm-5.01.77c0 .03-.02.05-.05.05-.23.07-.43.08-.62.03a.65.65 0 0 1-.46-.4 1.07 1.07 0 0 1-.03-.79c.1-.28.3-.44.57-.48.28-.04.52.03.71.2.04.03.07.03.1-.03l.02-.07c.02-.06 0-.1-.05-.12a1.42 1.42 0 0 0-1.08-.04c-.38.15-.57.44-.58.89-.01.61.31.95.97 1 .1.02.35-.03.71-.13.03 0 .04-.02.04-.05v-.7c0-.03-.02-.05-.05-.05h-.17c-.02 0-.03.02-.03.04v.65Zm2.66-1.69h.18c.02 0 .03.02.03.04v1.8c0 .03-.01.04-.03.04h-.18a.04.04 0 0 1-.03-.03V34.1c0-.02.01-.04.03-.04Zm1.13.82h.6c.02 0 .03.01.03.03V35c0 .01-.01.02-.03.02h-.6c-.02 0-.03.01-.03.03v.88c0 .01 0 .02-.02.02H28c-.02 0-.03 0-.03-.02v-1.83c0-.02.01-.03.03-.03h.9c.02 0 .03.01.02.03v.1c0 .02 0 .03-.03.03l-.65-.03c-.01 0-.02 0-.02.03v.64c0 .02 0 .02.02.02Zm3.13.79a.78.78 0 0 0 1.22.07c.18-.18.27-.41.29-.69.01-.27-.06-.5-.21-.71a.78.78 0 0 0-1.22-.08c-.18.19-.28.42-.3.7 0 .27.06.5.22.7Zm.62.22c-.35-.01-.62-.42-.6-.91.02-.49.3-.88.66-.87.34.02.61.42.6.91-.02.5-.31.88-.66.87Zm-6.42-.87c-.03-.01-.05 0-.05.03v.86c0 .02-.01.04-.03.04l-.17-.01c-.03 0-.04-.02-.04-.05V34.1c0-.02.01-.03.04-.04h.1c.28-.02.5-.01.63.01.24.05.37.16.4.34a.45.45 0 0 1-.12.39c-.09.1-.2.16-.36.2-.05 0-.05.02-.03.06l.67.85c.02.02.01.03-.02.03h-.22a.09.09 0 0 1-.08-.04l-.55-.74a.42.42 0 0 0-.17-.14Zm-.05-.82c0-.02 0-.03.03-.03h.23c.12-.01.22.02.3.1.1.06.14.15.14.25v.02c0 .1-.04.19-.12.26a.46.46 0 0 1-.3.11h-.24c-.02 0-.03 0-.03-.03l-.01-.68Zm7.83-.16c-.02 0-.02.01-.02.02v1.85l.01.02h.8a.8.8 0 0 0 .6-.25.85.85 0 0 0 .25-.62v-.14a.85.85 0 0 0-.25-.62.8.8 0 0 0-.59-.25h-.8Zm.28.13c-.04 0-.06.02-.06.06v1.52c0 .04.02.07.06.07h.4c.2 0 .36-.07.5-.21.13-.14.2-.3.2-.5v-.24c0-.2-.07-.36-.2-.5a.67.67 0 0 0-.5-.2h-.4Z" fill="#129748"/><path d="m13.83 26.19-.08.02a.82.82 0 0 0-.15.08.45.45 0 0 0-.13.14l-.13.27c-.12.27-.22.45-.3.54-.19.22-.43.37-.72.45-.04.01-.06 0-.07-.05l-.18-2.13a9.2 9.2 0 0 1-.07-1.08c.06-.4.26-.72.61-.97a.08.08 0 0 0 .04-.06c.12-.92.2-1.46.23-1.6a1.5 1.5 0 0 1 .78-1.04c.11-.05.18-.1.2-.15.26-.6.5-1.2.73-1.77.18-.44.48-.74.9-.92l.2-.05.17-.04c.03-.01.04-.03.06-.05l1.25-1.7c.19-.25.36-.44.52-.56.19-.14.41-.23.67-.27a3 3 0 0 1 .75 0 .1.1 0 0 0 .1-.04l.43-.67c.2-.3.38-.5.52-.62.3-.21.62-.33.98-.34.07 0 .17.01.3.04l.2.04a102.32 102.32 0 0 1 1.17-.7c.41-.25.72-.4.93-.43.36-.07.72-.03 1.07.13.05.02.1.03.15.01l1.73-.56c.6-.2 1.14-.12 1.62.24a.1.1 0 0 0 .07.02c.03 0 .09 0 .18-.03l.08-.01.89-.1c.48-.05.78-.07.88-.07.47.03.86.23 1.17.6l.06.04 1.53.13c.29.02.5.06.64.1.41.12.72.36.91.71l.11.2.04.02c.86.23 1.44.4 1.74.49.62.2.99.6 1.11 1.22a484.49 484.49 0 0 1 2.38 1.61c.48.32.72.76.72 1.33 0 .04.02.07.05.1L42.06 20c.32.34.51.6.6.78.14.34.16.7.04 1.1 0 .02 0 .05.02.07l.9 1.29c.15.24.23.53.24.87a2 2 0 0 1-.22.78 150.7 150.7 0 0 0-1.13 2.75v.84l-.01.01h-.29c-.01 0-.02 0-.02-.02v-.98c0-.03-.01-.05-.03-.06a69.1 69.1 0 0 1-.98-.85 2.1 2.1 0 0 1-.43-.5c-.17-.28-.32-.58-.44-.91a16.26 16.26 0 0 1-.4-1.35 2.39 2.39 0 0 0-.23-.49 387.85 387.85 0 0 0-1.1-2.37c-.02-.06-.1-.1-.22-.16-.13-.05-.3-.2-.55-.48l-1.56-1.82a.33.33 0 0 0-.14-.09 4.1 4.1 0 0 1-.75-.38l-1.45-.93c-.2-.13-.42-.23-.65-.32a46.9 46.9 0 0 1-1.75-.68 1.65 1.65 0 0 0-.56-.09c-.16 0-.29-.01-.37-.03l-1.8-.33a1.54 1.54 0 0 0-.47-.01 156.32 156.32 0 0 1-2.34.12c-.07 0-.2.04-.42.12l-.27.09-1.5.4a.4.4 0 0 0-.15.09c-.43.4-.87.7-1.32.9a186.19 186.19 0 0 0-2.3 1.07l-1.32 1.05A160 160 0 0 0 17 21.73a.38.38 0 0 0-.07.13 3.3 3.3 0 0 1-.21.55l-.94 1.98c-.05.1-.07.2-.07.3v.1c0 .15-.02.25-.04.32l-.73 2.44c-.03.1-.08.17-.13.21a.38.38 0 0 1-.23.07c-.1 0-.17-.04-.21-.12a1.73 1.73 0 0 1-.16-.44l-.25-1.01a.1.1 0 0 0-.05-.07.1.1 0 0 0-.1 0Z" fill="#026533"/><path d="M28.16 12.42c.66.53 1.28 1 1.86 1.45.06.05.05.06-.02.05-.86-.1-1.72-.14-2.59-.1a.46.46 0 0 1-.17-.05 112.45 112.45 0 0 1-2.15-.96c-.02-.02-.02-.03 0-.04l1.67-.54c.25-.09.49-.11.73-.08.25.03.48.12.67.27ZM29.31 12.4l.19-.03c.34-.04.6-.06.77-.06.28 0 .53.06.74.16.15.08.32.23.51.46l1.37 1.64c.05.06.03.07-.04.05-.78-.27-1.57-.47-2.36-.6a.48.48 0 0 1-.2-.1 374.3 374.3 0 0 0-1.79-1.41l.02-.02.79-.1ZM22.7 13.2l.19-.1c.28-.19.5-.3.64-.36.23-.1.45-.13.67-.11.16.01.4.1.74.26l1.96.89c.07.03.07.05-.01.06-.92.07-1.86.23-2.81.48l-.17-.02a127.43 127.43 0 0 1-2.05-.57 503.89 503.89 0 0 0 .84-.53ZM35.84 15.98a.4.4 0 0 1 .02.03c.01.04 0 .05-.04.03-.83-.5-1.67-.93-2.53-1.26a.36.36 0 0 1-.15-.11 2997.03 2997.03 0 0 0-1.4-1.7c0-.01 0-.02.01-.01l1.6.13c.38.03.69.15.92.34.13.1.27.28.42.56.3.55.69 1.22 1.15 1.99ZM23.68 14.43a16.33 16.33 0 0 0-2.37.93l-1.9-.08c-.05 0-.06-.02-.04-.06l.4-.61c.21-.31.43-.54.66-.68.27-.15.58-.21.92-.18l.42.1.27.08c.6.15 1.14.3 1.64.44.06.02.06.04 0 .06ZM26.02 15.5c-.21.14-.46.25-.73.32a147.3 147.3 0 0 0-1.42.36v-.03l.72-1.63c.01-.02.03-.04.05-.04.84-.19 1.68-.31 2.53-.36.03 0 .04 0 .03.03 0 .02-.02.04-.04.06a655.62 655.62 0 0 0-.89 1c-.1.14-.18.23-.25.28ZM27.96 15.54a94.03 94.03 0 0 0-1.81.05v-.03c.05-.04.1-.12.19-.23l.18-.22.88-.96a.1.1 0 0 1 .08-.04c.9-.03 1.81.02 2.72.15.06.01.06.03.01.07a38.49 38.49 0 0 1-1.14.8l-.05.05c-.11.1-.2.17-.27.2-.25.1-.52.15-.8.16ZM37.79 17.53c-.53-.48-1.05-.88-1.55-1.21a.71.71 0 0 1-.2-.24 256.32 256.32 0 0 1-1.1-1.94c.01-.01.03-.02.04-.01l1.55.44c.3.08.55.24.74.47.11.13.22.34.3.64a122.92 122.92 0 0 1 .66 2.23 6.65 6.65 0 0 1-.44-.38ZM30.66 15.85a99.43 99.43 0 0 0-1.82-.34l.01-.03.23-.19.23-.18 1.1-.77a.1.1 0 0 1 .09-.03 15 15 0 0 1 2.68.74c.06.03.06.05 0 .08a41.75 41.75 0 0 1-1.32.56l-.06.03c-.14.08-.24.12-.3.13a2.4 2.4 0 0 1-.84 0ZM23.5 16.37c-.38.35-.75.61-1.1.78l-1.7.78c-.16.07-.17.05-.04-.07.1-.1.22-.25.33-.44a.98.98 0 0 0 .09-.3l.04-.2.4-1.22c.01-.07.07-.12.15-.17.85-.4 1.75-.74 2.7-.98.02 0 .03 0 .03.03l-.01.1-.62 1.34c-.06.12-.15.23-.27.35ZM33.28 16.65a92.21 92.21 0 0 0-1.65-.68l.01-.02.26-.14.26-.13c.43-.17.83-.34 1.2-.51a.1.1 0 0 1 .09 0c.83.33 1.63.75 2.39 1.23.05.04.04.06-.02.07a40.98 40.98 0 0 1-1.37.27l-.06.02c-.14.05-.25.07-.32.07a2.33 2.33 0 0 1-.79-.18ZM17.36 16.09c.23-.33.5-.55.8-.64.16-.06.39-.07.7-.06.52.03 1.22.06 2.1.07.11 0 .12.03.02.09a14.4 14.4 0 0 0-2.56 1.76.29.29 0 0 1-.14.07l-2.08.4c-.07.02-.08 0-.04-.05l1.2-1.64Z" fill="#FFDE00"/><path d="M20.2 18.08a151.38 151.38 0 0 0-1.5 1.2.04.04 0 0 1-.05 0l-.02-.04.13-1.8a14.3 14.3 0 0 1 2.6-1.74c.01 0 .02.01.01.02l-.33 1.03-.1.4c-.06.29-.3.6-.74.93ZM40.47 20.74a15.9 15.9 0 0 0-1.91-2.5.45.45 0 0 1-.1-.15c-.22-.67-.43-1.36-.64-2.09-.02-.06 0-.08.05-.04L40 17.38c.3.2.5.45.61.77.06.18.07.48.03.9l-.11 1.68c0 .07-.02.07-.06.01ZM34.96 16.76l1.02-.2c.05-.01.12.02.21.08l.03.02c.64.45 1.27.97 1.87 1.56.06.05.05.07-.03.07-.69-.01-1.16 0-1.4.01-.22.02-.4 0-.54-.05-.2-.07-.36-.15-.5-.23-.73-.46-1.26-.8-1.6-1-.06-.05-.06-.07.03-.07.13 0 .24-.02.32-.05.09-.03.29-.08.59-.14ZM15.75 18.01l2.3-.46c.08-.02.09 0 .03.05-.63.57-1.2 1.2-1.74 1.87a111.24 111.24 0 0 1-2.26 1.1c-.02 0-.03-.01-.02-.04l.64-1.6c.1-.23.23-.43.4-.59.2-.17.4-.28.65-.33ZM18.11 20.1A94.48 94.48 0 0 0 17 21.5a.02.02 0 0 1-.02-.02l-.07-.29a2.76 2.76 0 0 1-.06-.28c-.05-.46-.11-.9-.18-1.29 0-.03 0-.06.02-.08a14.4 14.4 0 0 1 1.87-1.96c.04-.04.06-.03.06.03a41.22 41.22 0 0 1-.1 1.39v.06a1 1 0 0 1-.02.32c-.09.26-.21.5-.39.71ZM40.37 21.2c0 .02-.01.03-.03.03a35.37 35.37 0 0 1-1.46-.41 1.16 1.16 0 0 1-.38-.11 3.04 3.04 0 0 1-.7-.62l-1.36-1.59c-.02-.02-.01-.03.01-.03a8.89 8.89 0 0 1 1.85-.04 13.43 13.43 0 0 1 2.07 2.77ZM42.47 22.12 42 23.98c-.02.1-.05.1-.08 0-.29-.99-.7-1.96-1.23-2.9a.22.22 0 0 1-.03-.12 100.27 100.27 0 0 1 .16-2.06l.03.01 1.26 1.34c.47.5.63 1.03.46 1.58l-.09.29ZM12.99 22.05c.04-.34.17-.63.38-.87.11-.12.3-.25.56-.37a1284.06 1284.06 0 0 0 2.15-1.01c-.08.13-.2.34-.4.62-.39.6-.73 1.24-1.04 1.94a.2.2 0 0 1-.08.1 53.62 53.62 0 0 1-1.75.9v-.03l.18-1.28ZM15.05 22.36c-.02-.06-.02-.1 0-.14.39-.84.86-1.65 1.43-2.41.05-.07.08-.06.09.02l.06.45c.06.44.11.75.16.93.05.18.05.36.02.54-.03.15-.09.32-.18.53l-.9 1.9c-.03.06-.06.06-.07-.01a205.6 205.6 0 0 1-.6-1.8ZM38.97 21.46l-.2-.44c-.03-.08 0-.1.08-.08a115.96 115.96 0 0 1 1.46.42c.13.02.22.06.26.14.53 1 .93 2.03 1.2 3.09.02.08 0 .1-.07.05l-1.02-.66a2.64 2.64 0 0 0-.25-.14 1.33 1.33 0 0 1-.33-.2 2.13 2.13 0 0 1-.42-.62l-.71-1.56ZM43.71 24.1c0 .15-.02.29-.08.42a331.15 331.15 0 0 0-1.1 2.66c-.03.04-.05.03-.05-.01-.05-.93-.2-1.85-.44-2.75-.01-.07.01-.2.07-.4l.02-.08a113.3 113.3 0 0 1 .5-1.84l.03.01c.45.65.73 1.04.82 1.19.15.24.23.5.23.8ZM13.97 26.03c-.04-.06-.05-.14-.03-.25v-.06c.2-1.11.51-2.2.97-3.24 0-.01.02-.02.03 0l.02.04c.15.46.31.92.5 1.38.09.26.13.55.11.85 0 .18-.07.46-.18.83l-.57 1.92c-.03.12-.1.18-.23.17a.11.11 0 0 1-.11-.08 9.25 9.25 0 0 1-.3-1.15 1 1 0 0 0-.2-.41ZM12.73 23.57l1.7-.9c.06-.02.07 0 .05.05a13.95 13.95 0 0 0-.91 3.31c-.16.19-.3.41-.4.68-.15.37-.4.63-.73.8-.03 0-.04 0-.05-.03l-.24-2.57c-.06-.63.13-1.07.58-1.34ZM42.15 27.23l-.72-.63a3 3 0 0 1-.98-1.48 14.94 14.94 0 0 1-.37-1.3h.02l.14.07c.15.07.26.13.33.18.41.28.83.54 1.25.79.02 0 .03.03.04.05a13.29 13.29 0 0 1 .32 2.31c-.01.01-.02.02-.03 0Z" fill="#FFDE00"/><path d="M42.04 29.77c.01.03.04.05.07.03l.32-.11a.1.1 0 0 0 .05-.04c.06-.1.13-.25.22-.46.2-.47.53-.76.97-.89.03 0 .05 0 .05.04a207.02 207.02 0 0 1 .28 3.1 1.46 1.46 0 0 1-.5 1l-.12.11a332.37 332.37 0 0 0-.25 1.5c-.09.6-.4 1.01-.96 1.27l-.06.08-.03.09-.7 1.7c-.23.54-.64.87-1.24.97a.13.13 0 0 0-.08.06c-.51.69-.9 1.2-1.14 1.56a3 3 0 0 1-.7.74c-.26.18-.58.26-.95.24H37a.07.07 0 0 0-.06.03l-.18.28c-.3.46-.5.76-.65.9-.45.43-1.01.56-1.7.38a.23.23 0 0 0-.18.03l-1.1.67c-.41.26-.72.4-.92.43-.38.07-.73.01-1.06-.15a.15.15 0 0 0-.12-.01c-.74.25-1.36.45-1.89.61-.37.12-.76.09-1.17-.09-.04-.01-.1-.05-.17-.1a1.58 1.58 0 0 0-.16-.1 120.39 120.39 0 0 1-1.75.17 1.63 1.63 0 0 1-1.5-.57.13.13 0 0 0-.08-.04l-1.47-.13a2.97 2.97 0 0 1-.85-.17 1.5 1.5 0 0 1-.64-.49 1.13 1.13 0 0 1-.08-.14c-.05-.1-.1-.16-.13-.2a146.31 146.31 0 0 1-1.77-.52c-.6-.17-.97-.57-1.11-1.2 0-.03-.03-.06-.08-.09l-2.28-1.52c-.5-.33-.75-.8-.75-1.39 0-.02 0-.04-.02-.06l-1.4-1.48c-.23-.24-.38-.5-.47-.78-.09-.3-.09-.58.01-.86.02-.05.02-.1-.01-.13l-.86-1.21c-.2-.29-.29-.6-.29-.95 0-.19.07-.43.21-.73.05-.1.4-.93 1.04-2.5a.93.93 0 0 0 .09-.38v-.73c0-.04 0-.05.04-.05h.22c.03 0 .05.02.05.05v.94c0 .03.01.05.04.07l1.15 1c.16.15.32.38.47.69.13.26.24.52.32.8l.34 1.18c.03.12.1.28.23.5.09.13.15.24.18.31a130.72 130.72 0 0 0 .95 2.07c.3.16.53.34.7.54l1.62 1.89.08.05c.23.08.46.2.68.33l1.57 1c.19.12.39.22.6.3.32.1.92.34 1.81.7.12.05.3.08.53.07h.1l.32.04 1.72.32c.17.03.34.04.5.02.56-.06 1.24-.1 2.03-.1.2 0 .39-.03.57-.1l.5-.15 1.6-.42c.1-.03.18-.07.26-.14.3-.26.5-.41.6-.46l2.26-1.08a1.52 1.52 0 0 0 .28-.2c.17-.12.66-.5 1.47-1.15a.66.66 0 0 0 .18-.24 3 3 0 0 1 .35-.57l1.18-1.44a.56.56 0 0 0 .1-.2c.06-.21.14-.41.24-.62l.88-1.84a.67.67 0 0 0 .08-.3c0-.19 0-.33.04-.44l.76-2.54c.03-.1.11-.16.23-.19.18-.04.3.03.36.2.12.34.22.71.3 1.1 0 .04.03.14.09.29Z" fill="#026533"/><path d="M42 29.96c.05.05.06.14.04.25v.05c-.2 1.1-.52 2.18-.98 3.22 0 .02-.02.02-.03 0a2.03 2.03 0 0 1-.62-2.27 4 4 0 0 1 .18-.81l.58-1.9c.03-.13.1-.19.23-.18.06 0 .1.03.11.08.12.37.22.75.3 1.14a1 1 0 0 0 .2.42ZM43.83 31.1c.06.63-.14 1.08-.6 1.34-.12.08-.7.37-1.72.9-.06.02-.07 0-.05-.05a14.08 14.08 0 0 0 .95-3.34c.16-.18.3-.4.41-.68.15-.37.4-.63.74-.79.03-.01.04 0 .05.03l.22 2.59ZM13.81 28.75l.73.62a3.03 3.03 0 0 1 1 1.5 15.6 15.6 0 0 1 .37 1.3h-.02a18.57 18.57 0 0 0-1.74-1.04.08.08 0 0 1-.04-.05 13.41 13.41 0 0 1-.33-2.33h.03ZM12.28 31.92c0-.15.02-.29.08-.42a337.3 337.3 0 0 0 1.08-2.64c.03-.03.04-.03.04.01.06.92.21 1.83.45 2.73.02.06 0 .19-.06.39l-.02.08a112.82 112.82 0 0 1-.49 1.82l-.03-.01a38.5 38.5 0 0 1-.81-1.17 1.5 1.5 0 0 1-.24-.8ZM17.01 34.54l.2.44c.03.08 0 .1-.08.08a121.24 121.24 0 0 1-1.46-.42c-.14-.02-.22-.06-.26-.14-.54-1-.95-2.04-1.23-3.1-.02-.09 0-.1.08-.06l1.03.66c.05.04.13.09.25.14.16.08.27.15.33.2.17.18.32.39.43.63l.71 1.57Z" fill="#FFDE00"/><path d="M40.92 33.62c.02.06.03.1.01.14-.4.84-.87 1.63-1.43 2.4-.05.06-.08.05-.09-.03l-.06-.45c-.06-.44-.1-.75-.15-.92a1.17 1.17 0 0 1-.02-.54c.03-.14.09-.32.18-.52l.9-1.88c.03-.06.06-.06.07 0l.06.21.53 1.6ZM13.43 34.2l.09-.29.46-1.85c.03-.1.05-.1.08 0 .3.98.71 1.94 1.24 2.87l.03.12a95.64 95.64 0 0 1-.14 2.05l-.04-.01-1.26-1.33c-.47-.5-.62-1.02-.46-1.56ZM43 33.96a1.6 1.6 0 0 1-.4.87c-.11.13-.3.25-.56.37a1631.66 1631.66 0 0 0-2.18 1.01l.4-.62c.4-.6.76-1.25 1.06-1.96a.2.2 0 0 1 .1-.1 54.47 54.47 0 0 1 1.76-.9l.01.03-.2 1.3ZM37.88 35.88A94.16 94.16 0 0 0 39 34.5l.02.02c0 .07.03.16.06.29l.06.28c.05.46.11.89.17 1.28a.1.1 0 0 1-.02.08 14.3 14.3 0 0 1-1.87 1.94c-.04.04-.06.03-.06-.03a41.03 41.03 0 0 1 .12-1.38v-.06a1 1 0 0 1 .01-.32c.09-.26.22-.5.39-.7ZM15.63 34.77a34.89 34.89 0 0 1 1.46.4c.19.03.31.07.38.11.24.15.48.36.71.63l1.37 1.58c.02.02.02.04-.01.04a9.02 9.02 0 0 1-1.86.04 13.53 13.53 0 0 1-2.08-2.78c0-.02 0-.03.03-.02ZM17.42 37.76c.06.06.1.11.1.16.22.65.43 1.34.65 2.06.02.07 0 .08-.06.04L16 38.62c-.3-.19-.5-.44-.6-.76a2.4 2.4 0 0 1-.04-.9c.03-.36.07-.91.1-1.65 0-.07.03-.08.07-.02.47.78 1.1 1.6 1.9 2.47ZM41.28 37.06c-.1.24-.24.44-.41.6-.2.17-.4.28-.65.33l-2.33.46c-.07.02-.08 0-.03-.05.64-.57 1.23-1.2 1.76-1.88a.45.45 0 0 1 .15-.1 110.6 110.6 0 0 1 2.14-1c.02 0 .03.01.02.04l-.65 1.6ZM37.29 36.72a.04.04 0 0 1 .04 0c.02 0 .03.01.03.03l-.14 1.8-.03.04a14.18 14.18 0 0 1-2.56 1.68v-.03l.33-1.02.1-.39c.06-.29.3-.6.73-.93a122.17 122.17 0 0 0 1.5-1.18ZM21.03 39.23l-1.03.21c-.05.01-.12-.02-.21-.08l-.03-.02c-.65-.45-1.27-.97-1.88-1.56-.05-.05-.04-.08.03-.07.7 0 1.16 0 1.4-.02.23-.01.4 0 .55.05.2.07.36.15.5.24l1.6 1c.07.05.06.07-.02.07a.93.93 0 0 0-.33.04c-.09.04-.28.08-.58.14ZM19.74 39.68a.7.7 0 0 1 .2.24 272.04 272.04 0 0 1 1.1 1.93H21l-1.54-.42c-.3-.09-.55-.24-.74-.47a1.9 1.9 0 0 1-.3-.64 122.95 122.95 0 0 1-.66-2.21c.04.02.19.15.44.38.53.47 1.04.87 1.54 1.2ZM32.87 39.46c.22-.2.43-.33.62-.42l1.68-.82c.09-.04.1-.02.03.04-.13.15-.24.4-.33.75l-.06.24-.35 1.1-.05.05c-.8.39-1.62.7-2.46.94-.05.02-.06 0-.04-.04l.15-.37c.16-.36.27-.63.33-.8a1.18 1.18 0 0 1 .48-.67ZM38.62 39.92c-.24.33-.51.54-.82.64-.16.05-.39.07-.7.05-.53-.03-1.24-.06-2.12-.08-.12 0-.12-.03-.02-.08.94-.5 1.8-1.1 2.6-1.77a.3.3 0 0 1 .14-.07l2.1-.4c.06-.02.08 0 .04.05-.44.58-.84 1.14-1.22 1.66ZM22.7 39.35a97.32 97.32 0 0 0 1.66.67l-.01.03-.27.13c-.11.07-.2.11-.25.13l-1.2.52a.1.1 0 0 1-.09 0c-.83-.33-1.63-.74-2.4-1.23-.04-.04-.04-.06.02-.07a42.19 42.19 0 0 1 1.37-.27l.06-.02c.15-.05.26-.07.32-.07.27.01.54.07.8.18ZM28.78 41.83l.75-.81c0-.02.1-.12.25-.32.19-.25.53-.43 1.02-.55a65.69 65.69 0 0 0 1.55-.39v.04l-.6 1.56c0 .02-.02.04-.04.05a13.88 13.88 0 0 1-2.93.44v-.02ZM20.16 40.03a.35.35 0 0 1-.02-.03c-.02-.04 0-.05.03-.03.83.5 1.67.92 2.53 1.25.06.03.1.06.15.11a1703.16 1703.16 0 0 0 1.4 1.7l-.02.01-1.6-.13a1.68 1.68 0 0 1-.91-.34c-.12-.1-.26-.28-.42-.56-.3-.55-.69-1.21-1.14-1.98ZM25.33 40.15a108.32 108.32 0 0 0 1.81.34l-.01.02-.23.2-.23.18-1.1.77a.1.1 0 0 1-.08.02c-.91-.16-1.8-.4-2.68-.74-.06-.02-.06-.04 0-.07a43.85 43.85 0 0 1 1.32-.56l.06-.03c.13-.08.24-.12.3-.14.28-.04.56-.04.84.01ZM28.03 40.46a98.34 98.34 0 0 0 1.8-.05v.03l-.18.23-.18.22c-.32.34-.62.66-.88.96a.1.1 0 0 1-.08.04c-.9.03-1.81-.02-2.72-.16-.06 0-.06-.03-.01-.07a41.23 41.23 0 0 1 1.14-.8l.05-.04c.11-.1.2-.17.27-.2.25-.1.51-.15.8-.16ZM36.78 40.77l-.58.87c-.25.35-.57.55-.94.62-.2.03-.55 0-1.06-.1-1.04-.2-1.8-.35-2.3-.43-.1-.02-.1-.04 0-.07.93-.25 1.82-.59 2.65-1a.21.21 0 0 1 .1-.02l2.1.09c.04 0 .05.01.03.04ZM26.68 43.6l-.19.03a6 6 0 0 1-.78.06c-.28 0-.52-.06-.74-.16a1.71 1.71 0 0 1-.5-.47l-1.37-1.63c-.05-.06-.04-.08.03-.05.79.26 1.58.47 2.37.6.06.01.13.05.2.1a366.98 366.98 0 0 0 1.79 1.4c0 .02-.01.02-.02.02l-.8.1ZM33.83 42.22c.09 0 .16.02.23.05l.01.03-.01.02-1.39.83c-.44.27-.89.3-1.35.08a187.9 187.9 0 0 0-2.27-1.03l-.01-.01c-.02-.03-.02-.04.01-.04.78-.06 1.55-.18 2.31-.35a.6.6 0 0 1 .26 0l2.21.42ZM27.82 43.57l-1.87-1.46c-.06-.04-.05-.06.03-.05.85.1 1.72.14 2.59.11a108.5 108.5 0 0 1 2.33 1.01c.02.02.01.04-.01.04l-1.67.55c-.25.08-.5.1-.73.07a1.32 1.32 0 0 1-.67-.27Z" fill="#FFDE00"/></svg>