<!-- by TradingView --><svg width="56" height="56" viewBox="0 0 56 56" xmlns="http://www.w3.org/2000/svg"><path fill="#F0F3FA" d="M0 0h56v56H0z"/><path d="M28.02 46.97V47l-.02-.01-.02.01v-.03c-.77-.62-3.46-2.24-8.39-4C13.35 40.71 11 36.71 11 30.1V14.64c3.78.07 12.46-.16 17-1.64 4.54 1.48 13.22 1.71 17 1.64V30.1c0 6.61-2.35 10.61-8.6 12.85-4.92 1.77-7.61 3.4-8.38 4.01Z" fill="url(#a)"/><path d="M28 47c.22-.17.61-.4 1.07-.67 1.34-.8 3.75-2.02 7.34-3.3C42.65 40.76 45 36.76 45 30.13v-15.5l-1.17.01c-4.19.01-11.71-.3-15.83-1.65-4.12 1.35-11.64 1.66-15.83 1.65H11v15.5c0 6.62 2.35 10.62 8.6 12.87 3.58 1.3 5.99 2.5 7.33 3.3.46.29.86.51 1.08.68Zm0-1.52c-1.34-.86-4-2.22-8.04-3.67-5.2-1.87-7.96-5.77-7.96-11.67V15.93c1.9 0 4.65-.06 7.3-.25 3.07-.23 6.32-.63 8.7-1.35 2.38.72 5.63 1.12 8.7 1.35 2.65.19 5.4.25 7.3.25v14.21c0 5.9-2.77 9.8-7.96 11.67A42.38 42.38 0 0 0 28 45.48Z" fill="#FFD54F"/><path d="m23.76 35.39.16-.02.02.01c0 .01 0 .02-.02.02-.13.03-.3.09-.46.1a4.71 4.71 0 0 1-3.49-.89 18.4 18.4 0 0 0-.33-.21 5.02 5.02 0 0 0 3.76 1.56 2.86 2.86 0 0 0 .97-.2.04.04 0 0 0-.01-.05.82.82 0 0 1-.2-.2c-.03-.04-.02-.04.02-.02l.13.13a.6.6 0 0 0 .22.1.04.04 0 0 1 .03.05c0 .04-.03.07-.07.08-.13.03-.21.06-.25.08-2.39.77-4.56-.82-5.76-2.72a.26.26 0 0 1-.04-.13v-.06a.06.06 0 0 1 .04-.02h.02v.01a5.75 5.75 0 0 0 3.13 2.21h.02l.01-.01v-.04a.65.65 0 0 1-.1-.25.09.09 0 0 0-.05-.05c-.1-.08-.23-.1-.31-.17a.52.52 0 0 1-.16-.29.05.05 0 0 1 .02-.05.05.05 0 0 1 .06 0l.12.04c.12.01.2-.01.23-.07a.09.09 0 0 1 .07-.05.09.09 0 0 1 .08.04c.08.13.2.16.36.09.02-.02.04-.01.04.02.05.19-.2.34-.36.39-.02 0-.03.02-.02.05.03.1.09.21.16.33.05.06.14.11.27.14.56.11 1.12.13 1.69.05ZM28 33.98a5.3 5.3 0 0 0-.05 1.03c.01.15-.03.17-.12.06-.03-.04-.09-.06-.17-.08-.07-.01-.08 0-.03.04l.23.2h.05c.05.14.06.3.03.47 0 .04-.02.05-.05.02-.06-.04-.11-.11-.18-.13-.1-.03-.2-.07-.28-.12-.02 0-.04 0-.04.02l-.01.03v.02l.02.02c.06.04.15.08.27.13.1.05.16.1.2.19 0 .02.02.03.04.03h.02c.02.01.02.03.02.04v.36c0 .03-.01.04-.04.04-.06 0-.08.01-.08.06 0 .03-.01.04-.04.05a.8.8 0 0 1-.7-.06c-.15-.1-.26-.2-.44-.22a7.6 7.6 0 0 0-.3-.01l-.01.02v.02l.32.39a.09.09 0 0 0 .07.03c.2 0 .36.08.47.24l.01.04-.02.16h-.01c-.06-.1-.2-.11-.29-.03l-.08.08c-.04.03-.07.05-.1.05-.04 0-.07 0-.08-.03a.08.08 0 0 0-.05-.04c-.11-.04-.2-.04-.24 0-.1.09-.15.07-.13-.07a.46.46 0 0 1 .28-.35.06.06 0 0 0 .03-.04v-.05c-.1-.12-.25-.33-.4-.4-.27-.12-.75-.03-1.01.09-.69.31-.92.84-.71 1.58.1.36.62.5.95.46.26-.04.63-.18.7-.45.04-.1.03-.2-.02-.28-.03-.05-.06-.05-.07.02-.02.06-.01.18-.09.23-.36.25-.58-.36-.14-.52.08-.03.16-.02.25.03.26.14.36.43.19.68-.48.67-1.77.6-1.97-.28-.13-.58.04-1.06.5-1.42.51-.4 1.32-.42 1.95-.3h.01l.01-.01V36c-.12-.22-.2-.46-.24-.73-.01-.05.01-.07.06-.06l.3.09h.03l.02-.02a.05.05 0 0 0 .01-.04c-.1-.35-.15-.6.07-.93l.01-.02a.05.05 0 0 1 .05 0H27l.2.2.03.02h.03l.02-.02.01-.03a2.45 2.45 0 0 1 .6-1.13l.04-.02c.07-.01.1 0 .1.06.02.21.01.42-.03.61Z" fill="#fff"/><path d="M24.2 35.04a.26.26 0 0 1 .1-.04l.18-.03a.04.04 0 0 0 .03-.02.03.03 0 0 0-.01-.04c-.12-.09-.16-.22-.11-.38.01-.05.04-.06.08-.05l.2.05c.03.01.05 0 .05-.02 0-.04 0-.06-.02-.1a.1.1 0 0 1 0-.06c.05-.2.14-.38.26-.53a.06.06 0 0 1 .08 0 1.29 1.29 0 0 1 .45.56h.03c.06-.07.11-.1.16-.1.04.01.08.04.1.1.03.1.05.22.04.36 0 .04.02.05.05.03l.12-.04c.04-.01.05 0 .05.03.02.32-.08.55-.28.7-.4.3-.65-.28-.24-.42l.02-.01v-.04c0-.01 0-.02-.02-.01-.15.07-.26.13-.3.17-.1.08-.2.1-.32.07-.02 0-.03 0-.02.02v.04l.01.01.27.05a.1.1 0 0 1 .07.06.1.1 0 0 1 0 .1c-.14.2-.37.22-.58.12a.85.85 0 0 1-.44-.58ZM23.12 37.33c.16.05.25.16.12.31a.52.52 0 0 1-.24.16c-.03.01-.03.02 0 .03.05 0 .09-.01.13-.06l.03-.02a.06.06 0 0 1 .06.02l.01.02a.5.5 0 0 1 0 .18c0 .02-.02.04-.05.03-.04 0-.06 0-.08.03-.02.03-.01.05.02.07h.01c.02.02.03.01.04 0 .02-.02.05-.02.1 0a.05.05 0 0 0 .05 0 .05.05 0 0 0 .02-.04l-.04-.24a.07.07 0 0 1 .02-.05.07.07 0 0 1 .05-.03c.08 0 .16.02.23.07h.03v-.03a.4.4 0 0 0-.2-.15c-.02-.01-.03-.03-.03-.05.02-.09.05-.17.14-.18.2-.02.33.03.42.15.12.17.19.36.2.57a.06.06 0 0 1-.03.05l-.02.01h-.03l-.2-.02h-.02l-.01.02v.03c.04.1.04.2.01.28-.03.1-.1.12-.18.06l-.1-.06c-.03-.02-.05-.01-.06.02a.9.9 0 0 1-.44.48c-.02.02-.04.01-.06 0a.98.98 0 0 1-.2-.59v-.02l-.03-.02-.2-.02c-.02 0-.04-.01-.04-.04a.7.7 0 0 1 .1-.34v-.03l-.02-.02c-.02-.02-.05-.03-.1-.03l-.05-.03c-.02 0-.03-.03-.02-.05.13-.27.34-.52.66-.47ZM21.13 34.27c-.06-.15-.03-.27.08-.35a.06.06 0 0 0 .03-.06l.01-.1c.01-.03.03-.04.05-.05.12-.04.22-.1.28-.2a.05.05 0 0 1 .06-.02c.05.02.08.07.1.15a.07.07 0 0 0 .07.06c.1 0 .14.07.14.2 0 .02-.02.04-.04.04-.07.01-.12-.01-.14-.07a.5.5 0 0 1-.02-.13.06.06 0 0 0-.05-.05l-.2-.02c-.03 0-.04 0-.03.04.01.09-.03.14-.15.17a.07.07 0 0 0-.05.05.07.07 0 0 0 0 .07l.14.16a.07.07 0 0 1 .01.09.08.08 0 0 1-.07.04l-.22-.02Z" fill="#fff"/><path d="m21.7 34.13-.01.01-.01.02a.05.05 0 0 1-.04 0h-.05a.2.2 0 0 1-.06 0 .17.17 0 0 1-.05-.04.12.12 0 0 1-.03-.04v-.12a.1.1 0 0 1 .05-.08.19.19 0 0 1 .11-.02h.06a.05.05 0 0 1 .04.05l-.02.22ZM21.78 34.14c.04-.08.1-.1.2-.1l.03.01.02.03c.02.06.02.13 0 .19 0 .02-.02.03-.05.04a.42.42 0 0 1-.26-.03c-.02 0-.03-.03-.02-.05 0-.01.01-.03.04-.04a.12.12 0 0 0 .04-.05ZM27.21 37.39v.01h-.06a.58.58 0 0 1-.11-.02.4.4 0 0 1-.1-.05.2.2 0 0 1-.05-.05.08.08 0 0 1-.01-.06c0-.04.04-.07.1-.1a.5.5 0 0 1 .2 0h.05l.01.01v.02l-.03.24ZM26.43 37.53l-.02.02h-.03v-.01a.25.25 0 0 1-.1-.14c-.02-.05-.01-.1.02-.14v-.01a.15.15 0 0 1 .06-.05.19.19 0 0 1 .08-.02c.02 0 .05 0 .08.02.03 0 .05.02.08.03v.01l.02.02v.03l-.19.24ZM26.64 37.36a.05.05 0 0 1 .04-.06h.11c.02 0 .04 0 .05.02l.03.04.02.05.01.05a.16.16 0 0 1-.02.1.13.13 0 0 1-.04.04.12.12 0 0 1-.04.02H26.69a.05.05 0 0 1-.02-.03l-.03-.23ZM26.95 37.82c0 .04 0 .08-.03.1-.07.1-.17.05-.2-.04-.02-.03-.01-.05 0-.07.05-.03.1-.05.18-.04.02 0 .03 0 .04-.03 0-.06.02-.11.04-.16.01-.04.04-.06.07-.07l.1.01.02.06c0 .1-.07.17-.18.2-.02 0-.04.01-.04.04ZM26.64 37.62c.03.02.03.07.02.15 0 .03-.01.04-.04.05-.05 0-.09-.02-.12-.06-.04-.04-.06-.08-.05-.12 0-.03.01-.04.04-.04.08 0 .13 0 .15.02Z" fill="#fff"/><path fill-rule="evenodd" d="M22.3 37.14c.24.01.5.02.73 0 .52-.05.94-.27 1.25-.67a.6.6 0 0 0 .1-.2.42.42 0 0 1 .12-.18v-.04l-.02-.02h-.02a.4.4 0 0 1-.18.12l-.23.1c-.1.05-.21.1-.33.14-.69.2-1.19.2-1.98.2l-.34-.01c-.38 0-.75.09-1.1.26a.57.57 0 0 0-.13.1l-.12.1a.88.88 0 0 0-.18.15c-.21.24-.53.66-.54.97a.05.05 0 0 0 .01.03l.02.01h.02a.4.4 0 0 0 .28-.11 3.1 3.1 0 0 1 2.64-.95Zm1.97-.92a.1.1 0 0 0-.09.03.81.81 0 0 1-.27.17c-.53.23-1.09.34-1.69.3a9.07 9.07 0 0 0-1.27 0c-.85.12-1.17.58-1.52 1.27v.05c.04.06.08.05.13 0a3.06 3.06 0 0 1 2.81-1.07l.4.02c.65.02 1.16-.2 1.54-.66a.07.07 0 0 0 .01-.07.07.07 0 0 0-.05-.04ZM18.8 35.56l.5.25c.06.03.06.05 0 .06h-.07c-.09.01-.16.02-.2.06-.1.09-.1.2 0 .3.34.25.64.4 1.05.18.02-.01.04 0 .05.02v.05a1.6 1.6 0 0 0-.03.1c-.03.12.02.18.15.15.34-.06.68-.43.84-.72a.13.13 0 0 0-.06-.18 6 6 0 0 1-1.58-1.09 2.07 2.07 0 0 0-.33-.27c-.3-.18-.7-.16-1.02-.14a.1.1 0 0 0-.1.11 4.22 4.22 0 0 0 .85.91v.03a.06.06 0 0 1-.02.05.14.14 0 0 0-.05.07c0 .03 0 .05.03.06Zm.59-.33c-.06.09-.33.03-.6-.14-.26-.17-.43-.38-.37-.47.06-.1.33-.03.6.14.26.17.43.38.37.47Zm-.09.18c.06-.12.16-.15.3-.08.15.08.36.2.65.4.03.02.02.03-.01.03-.27.02-.55 0-.84-.07-.1-.02-.2-.06-.2-.17 0-.02.02-.04.06-.06a.13.13 0 0 0 .04-.05Zm1.5.63c-.23-.2-.54-.18-.82-.07-.03 0-.05 0-.06-.02a.09.09 0 0 1-.02-.06c0-.03 0-.04-.03-.04-.02 0-.03 0-.04.02a.09.09 0 0 1-.06.03c-.15.02-.29.07-.4.14a.06.06 0 0 0-.03.06.06.06 0 0 0 .03.05c.18.1.36.06.6.02l.2-.04c.08-.01.16 0 .24.02a.1.1 0 0 1 .07.08.1.1 0 0 1-.04.1l-.18.14a.08.08 0 0 0-.02.05.07.07 0 0 0 .01.06l.03.02a.03.03 0 0 0 .02.01h.02l.12-.1c.15-.11.28-.2.38-.42.01-.02 0-.03-.01-.05Z" fill="#fff"/><path d="m32.24 35.39-.16-.02-.02.01c0 .01 0 .02.02.02.13.03.3.09.46.1a4.71 4.71 0 0 0 3.49-.89 18.4 18.4 0 0 1 .33-.21 5.02 5.02 0 0 1-3.76 1.56 2.86 2.86 0 0 1-.97-.2.04.04 0 0 1 .01-.05.82.82 0 0 0 .2-.2c.03-.04.02-.04-.02-.02l-.13.13a.6.6 0 0 1-.22.1.04.04 0 0 0-.03.05c0 .04.03.07.07.08.13.03.21.06.25.08 2.39.77 4.56-.82 5.76-2.72a.26.26 0 0 0 .04-.13v-.06a.06.06 0 0 0-.04-.02h-.02v.01a5.75 5.75 0 0 1-3.13 2.21h-.02l-.01-.01v-.04a.65.65 0 0 0 .1-.25l.05-.05c.1-.08.23-.1.31-.17a.52.52 0 0 0 .16-.29.05.05 0 0 0-.02-.05.05.05 0 0 0-.06 0 .37.37 0 0 1-.12.04c-.12.01-.2-.01-.23-.07a.09.09 0 0 0-.07-.05.09.09 0 0 0-.08.04c-.08.13-.2.16-.36.09-.02-.02-.04-.01-.04.02-.05.19.2.34.36.39.02 0 .03.02.02.05-.03.1-.09.21-.16.33-.05.06-.14.11-.27.14-.56.11-1.12.13-1.69.05ZM28 33.98c.05.35.07.7.05 1.03-.01.15.03.17.12.06.03-.04.09-.06.17-.08.07-.01.08 0 .03.04l-.23.2h-.05c-.05.14-.06.3-.03.47 0 .04.02.05.05.02.06-.04.11-.11.18-.13.1-.03.2-.07.28-.12.02 0 .04 0 .04.02l.01.03v.02l-.02.02c-.06.04-.15.08-.27.13a.4.4 0 0 0-.2.19c0 .02-.02.03-.04.03h-.02a.04.04 0 0 0-.02.04v.36c0 .03.01.04.04.04.06 0 .08.01.08.06 0 .03.01.04.04.05.23.08.5.07.7-.06.15-.1.26-.2.44-.22a7.6 7.6 0 0 1 .3-.01l.01.02v.02l-.32.39a.09.09 0 0 1-.07.03c-.2 0-.36.08-.47.24l-.01.04.02.16h.01c.06-.1.2-.11.29-.03l.08.08c.04.03.07.05.1.05.04 0 .07 0 .08-.03a.08.08 0 0 1 .05-.04c.11-.04.2-.04.24 0 .1.09.15.07.13-.07a.46.46 0 0 0-.28-.35.06.06 0 0 1-.03-.04v-.05c.1-.12.25-.33.4-.4.27-.12.75-.03 1.01.09.69.31.92.84.71 1.58-.1.36-.62.5-.95.46-.26-.04-.63-.18-.7-.45a.33.33 0 0 1 .02-.28c.03-.05.06-.05.07.02.02.06.01.18.09.23.36.25.58-.36.14-.52-.08-.03-.16-.02-.25.03-.26.14-.36.43-.19.68.48.67 1.77.6 1.97-.28a1.31 1.31 0 0 0-.5-1.42c-.51-.4-1.32-.42-1.95-.3h-.01l-.01-.01V36c.12-.22.2-.46.24-.73.01-.05-.01-.07-.06-.06l-.3.09h-.03l-.02-.02a.05.05 0 0 1-.01-.04c.1-.35.15-.6-.07-.93l-.01-.02a.05.05 0 0 0-.05 0H29l-.2.2-.03.02h-.03l-.02-.02-.01-.03a2.45 2.45 0 0 0-.6-1.13.09.09 0 0 1-.04-.02c-.07-.01-.1 0-.1.06-.02.21-.01.42.03.61Z" fill="#fff"/><path d="M31.8 35.04a.26.26 0 0 0-.1-.04l-.18-.03a.04.04 0 0 1-.03-.02.03.03 0 0 1 .01-.04c.12-.09.16-.22.11-.38-.01-.05-.04-.06-.08-.05l-.2.05c-.03.01-.05 0-.05-.02 0-.04 0-.06.02-.1a.1.1 0 0 0 0-.06 1.3 1.3 0 0 0-.26-.53.06.06 0 0 0-.08 0 1.29 1.29 0 0 0-.45.56h-.03c-.06-.07-.11-.1-.16-.1-.04.01-.08.04-.1.1a.94.94 0 0 0-.04.36c0 .04-.02.05-.05.03l-.12-.04c-.04-.01-.05 0-.05.03-.02.32.08.55.28.7.4.3.65-.28.24-.42l-.02-.01v-.04c0-.01 0-.02.02-.01.15.07.26.13.3.17.1.08.2.1.32.07.02 0 .03 0 .02.02v.04l-.01.01-.27.05a.1.1 0 0 0-.07.06.1.1 0 0 0 0 .1c.14.2.37.22.58.12.23-.12.38-.3.44-.58ZM32.88 37.33c-.16.05-.25.16-.12.31.07.08.15.13.24.16.03.01.03.02 0 .03-.05 0-.09-.01-.13-.06l-.03-.02a.06.06 0 0 0-.06.02l-.01.02a.5.5 0 0 0 0 .18c0 .02.02.04.04.03.05 0 .07 0 .09.03.02.03.01.05-.02.07h-.01c-.02.02-.03.01-.04 0-.02-.02-.05-.02-.1 0a.05.05 0 0 1-.05 0 .05.05 0 0 1-.02-.04l.04-.24a.07.07 0 0 0-.02-.05.07.07 0 0 0-.05-.03.32.32 0 0 0-.23.07h-.03v-.03a.4.4 0 0 1 .2-.15c.02-.01.03-.03.03-.05-.02-.09-.05-.17-.14-.18-.2-.02-.33.03-.42.15a.99.99 0 0 0-.2.57.06.06 0 0 0 .03.05l.02.01h.03l.2-.02h.02l.01.02v.03c-.04.1-.04.2-.01.28.03.1.1.12.18.06l.1-.06c.03-.02.05-.01.06.02.06.19.21.35.44.48.02.02.04.01.06 0 .13-.2.2-.39.2-.59v-.02l.03-.02.2-.02c.02 0 .04-.01.04-.04a.7.7 0 0 0-.1-.34v-.03l.02-.02c.02-.02.05-.03.1-.03l.05-.03c.02 0 .03-.03.02-.05-.13-.27-.34-.52-.66-.47ZM34.87 34.27c.06-.15.03-.27-.08-.35a.06.06 0 0 1-.03-.06.3.3 0 0 0-.01-.1.07.07 0 0 0-.05-.05.51.51 0 0 1-.28-.2.05.05 0 0 0-.06-.02c-.05.02-.08.07-.1.15a.07.07 0 0 1-.07.06c-.1 0-.14.07-.14.2 0 .02.02.04.04.04.07.01.12-.01.14-.07a.5.5 0 0 0 .02-.13.06.06 0 0 1 .05-.05l.2-.02c.03 0 .04 0 .03.04-.01.09.03.14.15.17a.07.07 0 0 1 .05.05.07.07 0 0 1 0 .07l-.14.16a.07.07 0 0 0-.01.09.08.08 0 0 0 .07.04l.22-.02Z" fill="#fff"/><path d="m34.3 34.13.01.01.01.02a.05.05 0 0 0 .04 0h.05a.2.2 0 0 0 .06 0l.05-.04a.12.12 0 0 0 .03-.04v-.12a.1.1 0 0 0-.05-.08.19.19 0 0 0-.11-.02h-.06a.05.05 0 0 0-.04.05l.02.22ZM34.22 34.14c-.04-.08-.1-.1-.2-.1l-.03.01-.02.03a.33.33 0 0 0 0 .19c0 .02.02.03.05.04.1.02.18 0 .26-.03.02 0 .03-.03.02-.05 0-.01-.01-.03-.04-.04a.12.12 0 0 1-.04-.05ZM28.79 37.39v.01h.06l.11-.02a.4.4 0 0 0 .1-.05.2.2 0 0 0 .05-.05.08.08 0 0 0 .01-.06c0-.04-.04-.07-.1-.1a.5.5 0 0 0-.2 0h-.05l-.01.01v.02l.03.24ZM29.57 37.53l.02.02h.03v-.01a.25.25 0 0 0 .1-.14c.02-.05.01-.1-.02-.14v-.01a.15.15 0 0 0-.06-.05.19.19 0 0 0-.08-.02c-.02 0-.05 0-.08.02a.28.28 0 0 0-.08.03v.01l-.02.02v.03l.19.24ZM29.36 37.36a.05.05 0 0 0-.04-.06h-.11a.13.13 0 0 0-.05.02.15.15 0 0 0-.05.1l-.01.04a.16.16 0 0 0 .02.1c0 .02.02.03.04.04l.04.02H29.31l.02-.03.03-.23ZM29.05 37.82c0 .04 0 .08.03.1.07.1.17.05.2-.04.02-.03.01-.05 0-.07-.05-.03-.1-.05-.18-.04-.02 0-.03 0-.04-.03a.67.67 0 0 0-.04-.16c-.01-.04-.04-.06-.07-.07l-.1.01a.06.06 0 0 0-.02.06c0 .1.07.17.18.2.02 0 .04.01.04.04ZM29.36 37.62c-.03.02-.03.07-.02.15 0 .03.01.04.04.05.05 0 .09-.02.12-.06.04-.04.06-.08.05-.12 0-.03-.01-.04-.04-.04-.08 0-.13 0-.15.02Z" fill="#fff"/><path fill-rule="evenodd" d="M33.7 37.14c-.24.01-.5.02-.73 0a1.76 1.76 0 0 1-1.25-.67.6.6 0 0 1-.1-.2.42.42 0 0 0-.12-.18v-.04l.02-.02h.02c.05.06.11.1.18.12l.23.1c.1.05.21.1.33.14.69.2 1.19.2 1.98.2l.34-.01c.38 0 .75.09 1.1.26l.13.1.12.1c.06.03.12.07.18.15.21.24.53.66.54.97a.05.05 0 0 1-.01.03l-.02.01h-.02a.4.4 0 0 1-.28-.11 3.1 3.1 0 0 0-2.64-.95Zm-1.97-.92a.1.1 0 0 1 .09.03c.08.08.16.12.27.17.53.23 1.09.34 1.69.3a9.07 9.07 0 0 1 1.27 0c.85.12 1.17.58 1.52 1.27a.06.06 0 0 1 0 .05c-.04.06-.08.05-.13 0a3.06 3.06 0 0 0-2.81-1.07l-.4.02c-.65.02-1.16-.2-1.54-.66a.07.07 0 0 1 .01-.1l.03-.01ZM37.2 35.56l-.5.25c-.06.03-.06.05 0 .06h.07c.09.01.16.02.2.06.1.09.1.2 0 .3-.34.25-.64.4-1.05.18-.02-.01-.04 0-.05.02v.05l.03.1c.03.12-.02.18-.15.15-.34-.06-.68-.43-.84-.72a.13.13 0 0 1 .06-.18 6 6 0 0 0 1.58-1.09c.15-.13.26-.23.33-.27.3-.18.7-.16 1.02-.14a.1.1 0 0 1 .1.11 4.22 4.22 0 0 1-.85.91v.03a.06.06 0 0 0 .02.05c.03.02.05.05.05.07 0 .03 0 .05-.03.06Zm-.59-.33c.06.09.33.03.6-.14.26-.17.43-.38.37-.47-.06-.1-.33-.03-.6.14-.26.17-.43.38-.37.47Zm.09.18c-.06-.12-.16-.15-.3-.08-.15.08-.36.2-.65.4-.03.02-.02.03.01.03.27.02.55 0 .84-.07.1-.02.2-.06.2-.17 0-.02-.02-.04-.06-.06a.13.13 0 0 1-.04-.05Zm-1.51.63c.25-.2.55-.18.83-.07.03 0 .05 0 .06-.02a.09.09 0 0 0 .02-.06c0-.03 0-.04.03-.04.02 0 .03 0 .04.02l.06.03c.15.02.29.07.4.14.02 0 .03.02.03.03v.03a.06.06 0 0 1-.03.05c-.18.1-.36.06-.6.02a7.1 7.1 0 0 0-.2-.04.52.52 0 0 0-.24.02.1.1 0 0 0-.07.08.1.1 0 0 0 .04.1l.18.14a.08.08 0 0 1 .02.05.07.07 0 0 1-.01.06l-.03.02a.03.03 0 0 1-.02.01h-.02l-.12-.1a1.08 1.08 0 0 1-.38-.42c-.01-.02 0-.03.01-.05ZM32.8 17.48h-9.6a.77.77 0 0 0-.75.79v7.46c0 .44.34.8.75.8h9.6c.41 0 .75-.36.75-.8v-7.46c0-.44-.34-.8-.75-.8ZM23.2 17c-.66 0-1.2.57-1.2 1.27v7.46c0 .7.54 1.27 1.2 1.27h9.6c.66 0 1.2-.57 1.2-1.27v-7.46c0-.7-.54-1.27-1.2-1.27h-9.6Z" fill="#fff"/><path d="m29.5 15 .35 1.15H31l-.93.7.36 1.15-.93-.7-.93.7.36-1.15-.93-.7h1.15L29.5 15ZM27.1 24.83a.47.47 0 0 0-.1.12l-.03.02a.28.28 0 0 1-.13.03c-.59-.04-1.18-.02-1.77-.02a97.89 97.89 0 0 0-.78 0 14.86 14.86 0 0 1-.53-.25 2.36 2.36 0 0 1-.67-.55.56.56 0 0 1-.09-.28 1.4 1.4 0 0 1 .13-.6c.2-.4.45-.7.68-1.04a.7.7 0 0 0 .1-.25c.05-.31.07-.43.12-.64a.6.6 0 0 1 .08-.19l.29-.43.74-.95c.06-.08.1-.17.13-.26.08-.31.1-.55.22-.8.09-.19.18-.35.27-.5.21-.33.8-.25 1.1-.17.14.05.29.14.43.28l.35.38c.03.04.06.1.07.2.06.28.02.5-.03.81-.01.1.01.17.05.26.16.36.1.7.01 1.08a.88.88 0 0 0 0 .34l.26 1.93a.4.4 0 0 1-.09.27l-.43.65-.38.56ZM28.8 24.87l-.2-.12a.44.44 0 0 1-.25-.3l-.18-.73a.8.8 0 0 1-.02-.32c.06-.44.04-.86-.05-1.25-.04-.18-.12-.38-.1-.56l.12-1c0-.04.06-.1.1-.13l.34-.26c.09-.07.24-.15.36-.18.32-.07.53.03.66.3a3.81 3.81 0 0 0 1.17 1.54c.36.26.87.6 1.12.79.14.1.3.2.48.3.32.17.54.4.63.74.06.2-.02.34-.22.43l-.45.18c-.14.05-.3.1-.4.2l-.14.13a.67.67 0 0 1-.19.17.87.87 0 0 1-.26.07l-.47.05-1.64.08c-.08 0-.16 0-.22-.02a.69.69 0 0 1-.2-.1ZM41.19 29.23l.06.02h.05c.1 0 .16-.03.2-.1a.64.64 0 0 0 .07-.33c0-.12-.02-.2-.07-.26-.04-.06-.1-.09-.2-.09-.05 0-.08.02-.1.06-.01.03-.02.13-.02.3v.15a3.4 3.4 0 0 0 0 .25Zm.01.5a8.4 8.4 0 0 1 0 .29v.12l.01.27.07.1s.02 0 .03.02c.1.06.14.12.14.2 0 .1-.06.17-.16.21-.1.04-.29.06-.55.06-.27 0-.46-.02-.57-.07-.11-.04-.17-.11-.17-.2 0-.09.05-.16.15-.21l.04-.03c.03-.01.05-.13.07-.32a11.36 11.36 0 0 0 .01-1.46c0-.12-.02-.19-.04-.21a.38.38 0 0 0-.08-.05c-.1-.06-.15-.12-.15-.2 0-.08.04-.14.12-.18.09-.04.2-.07.37-.07h1.1c.32 0 .56.07.73.2.17.13.25.32.25.56a.7.7 0 0 1-.06.31.6.6 0 0 1-.27.28c-.06.03-.09.06-.09.08 0 .03.04.06.11.08l.13.06c.07.03.13.1.18.2.06.09.1.2.12.32 0 .03 0 .08.02.13.02.15.04.24.08.25l.05.02c.1.05.16.1.16.18 0 .1-.06.18-.17.24a.97.97 0 0 1-.45.09c-.22 0-.38-.05-.49-.14-.1-.09-.19-.28-.25-.55v-.04c-.1-.37-.2-.55-.34-.55h-.05l-.05.01ZM39.22 30.93h-1.07a.13.13 0 0 1-.11-.05.24.24 0 0 1-.04-.15c0-.07.03-.13.08-.17a.43.43 0 0 0 .1-.1c.02-.05.04-.17.05-.35a12.66 12.66 0 0 0 0-1.38c0-.12-.02-.2-.04-.23a.52.52 0 0 0-.1-.07c-.05-.04-.07-.1-.07-.18 0-.07.02-.12.06-.16.04-.04.1-.06.18-.06a25.74 25.74 0 0 1 .74.02 3.57 3.57 0 0 0 .66-.05c.07 0 .13.05.17.16.05.1.07.25.07.42 0 .1-.01.2-.04.25-.03.06-.07.1-.12.1a.12.12 0 0 1-.09-.04.62.62 0 0 1-.09-.16.34.34 0 0 0-.14-.16.42.42 0 0 0-.22-.05h-.06c-.11 0-.18.02-.2.07-.03.04-.04.18-.04.41 0 .11 0 .18.02.2.02.03.05.04.11.04.05 0 .08-.01.1-.03.02-.03.03-.08.04-.16.02-.17.07-.25.13-.25s.11.05.15.14c.03.1.05.25.05.45 0 .24-.02.42-.06.54-.03.12-.08.18-.15.18-.04 0-.06 0-.08-.03a.55.55 0 0 1-.04-.2.48.48 0 0 0-.04-.17c-.02-.03-.05-.04-.1-.04s-.08.02-.1.05a.62.62 0 0 0-.02.22v.05c0 .22.02.35.04.4.03.03.11.05.25.05.1 0 .19-.02.26-.06.07-.03.12-.1.17-.17l.06-.13c.04-.1.1-.16.15-.16.05 0 .1.02.12.07.03.04.04.1.04.2a1.58 1.58 0 0 1-.21.77.1.1 0 0 1-.08.04l-.04-.01c-.14-.04-.29-.06-.45-.06ZM37.22 30.93h-1.07a.13.13 0 0 1-.11-.05.24.24 0 0 1-.04-.15c0-.07.03-.13.08-.17a.43.43 0 0 0 .1-.1c.02-.05.04-.17.05-.35a12.66 12.66 0 0 0 0-1.38c0-.12-.02-.2-.04-.23a.52.52 0 0 0-.1-.07c-.05-.04-.07-.1-.07-.18 0-.07.02-.12.06-.16.04-.04.1-.06.18-.06a25.74 25.74 0 0 1 .74.02 3.57 3.57 0 0 0 .66-.05c.07 0 .13.05.17.16.05.1.07.25.07.42 0 .1-.01.2-.04.25-.03.06-.07.1-.12.1a.12.12 0 0 1-.09-.04.62.62 0 0 1-.09-.16.34.34 0 0 0-.14-.16.42.42 0 0 0-.22-.05h-.06c-.11 0-.18.02-.2.07-.03.04-.04.18-.04.41 0 .11 0 .18.02.2.02.03.05.04.11.04.05 0 .08-.01.1-.03.02-.03.03-.08.04-.16.02-.17.07-.25.13-.25s.11.05.15.14c.03.1.05.25.05.45 0 .24-.02.42-.06.54-.03.12-.08.18-.15.18-.04 0-.06 0-.08-.03a.55.55 0 0 1-.04-.2.48.48 0 0 0-.04-.17c-.02-.03-.05-.04-.1-.04s-.08.02-.1.05a.62.62 0 0 0-.02.22v.05c0 .22.02.35.04.4.03.03.11.05.25.05.1 0 .19-.02.26-.06.07-.03.12-.1.17-.17l.06-.13c.04-.1.1-.16.15-.16.05 0 .1.02.12.07.03.04.04.1.04.2a1.58 1.58 0 0 1-.21.77.1.1 0 0 1-.08.04l-.04-.01c-.14-.04-.29-.06-.45-.06ZM33.36 31h-.1a.3.3 0 0 1-.18-.06.19.19 0 0 1-.08-.15c0-.08.05-.15.14-.2a2 2 0 0 0 .04-.02c.06-.04.1-.14.12-.3.02-.16.03-.5.03-.99v-.32c0-.18 0-.3-.02-.37 0-.06-.02-.1-.05-.12a.46.46 0 0 0-.08-.04c-.12-.04-.18-.1-.18-.2 0-.08.03-.13.1-.17a.59.59 0 0 1 .29-.06h1.33c.36 0 .62.06.79.17.17.12.25.3.25.54 0 .48-.34.46-.34.63 0 .02.03.05.1.07.32.07.48.34.48.66 0 .28-.1.5-.28.68-.18.17-.42.25-.73.25h-1.63Zm.98-1.16v.2c0 .23.01.37.03.42.02.05.07.08.14.08a.3.3 0 0 0 .25-.11.52.52 0 0 0 .09-.33c0-.13-.03-.23-.1-.3-.06-.06-.16-.09-.29-.09-.05 0-.08 0-.1.02l-.02.1Zm0-.67v.02c0 .06.02.07.08.07.22 0 .3-.1.3-.38 0-.16-.02-.27-.07-.32-.04-.06-.13-.09-.25-.09l-.06.01c-.02.02 0 .05 0 .07v.62ZM28 29.48a1.5 1.5 0 0 1 .9-1.38 1.47 1.47 0 0 1 1.07 0l.1.03.11-.04a.28.28 0 0 1 .12-.04c.1 0 .19.07.26.2.08.13.12.29.12.47 0 .13-.03.23-.09.3a.29.29 0 0 1-.24.1.33.33 0 0 1-.19-.05.7.7 0 0 1-.17-.2.78.78 0 0 0-.22-.23.46.46 0 0 0-.25-.08c-.37 0-.52.37-.52.68 0 .34.05.61.19.83.13.22.3.33.48.33.06 0 .1-.02.14-.06.03-.05.05-.1.05-.19 0-.08-.05-.13-.14-.13l-.07-.01a.2.2 0 0 1-.13-.07.22.22 0 0 1-.05-.15c0-.11.06-.2.2-.26.12-.06.31-.08.57-.08.25 0 .44.02.57.08.13.06.19.14.19.25 0 .12-.07.2-.21.24a.46.46 0 0 0-.06.02l-.06.17a1.03 1.03 0 0 1-.56.67c-.17.08-.4.12-.65.12a1.4 1.4 0 0 1-1.06-.42c-.27-.28-.4-.65-.4-1.1ZM25.33 29.6c0-.32 0-.57-.02-.72a.92.92 0 0 0-.08-.33.7.7 0 0 0-.12-.09c-.07-.05-.11-.1-.11-.18 0-.1.05-.17.14-.21.1-.05.26-.07.5-.07h.16l.1.03.12.1a32.12 32.12 0 0 1 .46.5c.36.4.57.59.63.59.03 0 .05-.02.06-.05a7.16 7.16 0 0 1 .02-.36v-.03c0-.1 0-.16-.02-.2a.21.21 0 0 0-.1-.11l-.02-.01c-.07-.04-.1-.1-.1-.2s.03-.16.1-.2c.08-.04.22-.06.44-.06.2 0 .32.02.4.06.07.04.11.1.11.2 0 .05-.01.1-.03.13a.27.27 0 0 1-.11.1.2.2 0 0 0-.1.1 7.57 7.57 0 0 0-.08 1.2v.05a12.26 12.26 0 0 1-.03.85.54.54 0 0 1-.07.23c-.04.05-.08.08-.14.08-.05 0-.12-.04-.22-.12a7.79 7.79 0 0 1-.86-.9c-.22-.26-.35-.38-.4-.38-.03 0-.06.03-.08.08a2.15 2.15 0 0 0 0 .61c0 .1.02.15.04.17l.08.06c.07.05.11.11.11.19 0 .1-.04.17-.13.22a.82.82 0 0 1-.39.07.93.93 0 0 1-.4-.07c-.09-.04-.13-.11-.13-.2 0-.08.04-.14.11-.2a.6.6 0 0 0 .07-.06c.03-.04.06-.12.07-.24l.02-.63ZM22 29.49a1.58 1.58 0 0 1 .37-1c.14-.16.3-.28.5-.36.2-.09.42-.13.67-.13.43 0 .78.14 1.05.42.27.28.41.64.41 1.08 0 .43-.14.8-.42 1.08-.28.28-.64.42-1.07.42a1.46 1.46 0 0 1-1.36-.86c-.1-.2-.15-.42-.15-.65Zm1.02-.4a2.38 2.38 0 0 0 .19.82c.07.13.14.25.22.33.08.07.17.11.26.11.1 0 .16-.04.22-.12a.58.58 0 0 0 .08-.32 2.42 2.42 0 0 0-.18-.77c-.07-.18-.15-.3-.23-.39a.35.35 0 0 0-.25-.11c-.1 0-.17.04-.22.12a.57.57 0 0 0-.09.32ZM21.26 30.94H20.2a.17.17 0 0 1-.14-.06.3.3 0 0 1-.05-.19c0-.08.04-.15.1-.2a.5.5 0 0 0 .07-.07c.03-.04.05-.1.06-.2.02-.08.02-.27.02-.56v-.52a5.47 5.47 0 0 0-.05-.6.24.24 0 0 0-.06-.03c-.09-.04-.13-.1-.13-.2s.05-.18.17-.23c.11-.05.27-.08.48-.08.21 0 .37.02.47.07.11.05.16.12.16.22 0 .08-.04.15-.12.2a.49.49 0 0 0-.05.03.21.21 0 0 0-.06.07l-.02.08a5.84 5.84 0 0 0-.01.8v.58c0 .17.01.28.04.32.03.04.09.06.18.06.11 0 .2-.02.26-.06.05-.04.1-.1.13-.2 0-.02 0-.05.02-.08.03-.12.07-.18.13-.18s.1.03.15.1c.04.06.06.13.06.23 0 .08-.02.19-.05.31-.03.12-.06.22-.1.3a.36.36 0 0 1-.1.11.15.15 0 0 1-.09.04h-.03c-.11-.04-.23-.06-.37-.06ZM17.06 29.73h.54a4.09 4.09 0 0 0-.17-.43c-.05-.1-.08-.14-.11-.14-.02 0-.06.04-.1.12l-.16.45ZM16 30.74c0-.1.05-.16.16-.2l.04-.02c.08-.03.18-.24.32-.62a28.3 28.3 0 0 1 .21-.57c.2-.54.32-.9.34-1.07.02-.1.05-.17.09-.2.04-.04.11-.06.2-.06.12 0 .2.02.27.05.07.03.14.1.2.17a17.44 17.44 0 0 1 .73 1.73c.1.3.18.48.23.53l.06.02c.1.05.15.11.15.2 0 .1-.06.18-.17.22-.11.05-.3.08-.54.08a2 2 0 0 1-.6-.06c-.1-.04-.16-.1-.16-.2 0-.05.01-.08.03-.11a.18.18 0 0 1 .08-.07.27.27 0 0 0 .09-.06.1.1 0 0 0 .02-.07c0-.05-.04-.1-.12-.12a1.46 1.46 0 0 0-.4-.04.84.84 0 0 0-.3.04c-.06.02-.09.07-.09.13 0 .03 0 .06.02.08l.1.04c.03 0 .06.03.08.06a.2.2 0 0 1 .03.11c0 .1-.05.16-.13.2a1 1 0 0 1-.42.07.91.91 0 0 1-.39-.06c-.09-.05-.13-.11-.13-.2ZM13 30.7c0-.09.05-.16.15-.2a.69.69 0 0 0 .04-.02c.03-.02.06-.1.07-.25.02-.14.02-.37.02-.65l-.01-.8c-.01-.16-.03-.24-.05-.26a.32.32 0 0 0-.06-.03c-.1-.04-.14-.1-.14-.2s.06-.17.18-.21c.12-.05.3-.08.54-.08.24 0 .42.02.52.06.1.04.15.11.15.2 0 .1-.04.17-.13.22a.25.25 0 0 0-.02.02.16.16 0 0 0-.07.1c-.01.03-.02.12-.02.25v.12c0 .09.02.14.05.17.04.02.11.03.23.03.17 0 .27-.01.32-.03.04-.03.06-.09.06-.19v-.07c0-.1 0-.17-.02-.24-.01-.07-.03-.11-.05-.13l-.05-.03c-.08-.05-.11-.11-.11-.2 0-.1.05-.17.16-.21.1-.05.3-.07.57-.07.24 0 .41.02.52.06.1.05.15.12.15.21s-.05.16-.14.21a.63.63 0 0 0-.08.06c-.02.02-.04.08-.05.2a11.3 11.3 0 0 0 .05 1.73l.05.03c.09.05.13.11.13.2 0 .1-.06.18-.16.23-.11.05-.28.07-.52.07s-.42-.02-.54-.07c-.1-.04-.16-.12-.16-.22s.05-.17.15-.24h.01c.04-.03.06-.07.07-.13.01-.06.02-.2.02-.41v-.01c0-.1-.02-.17-.05-.2-.04-.02-.11-.03-.23-.03a.92.92 0 0 0-.33.04c-.05.03-.07.1-.07.22 0 .14 0 .27.02.36 0 .09.02.14.04.16l.04.03c.1.06.13.13.13.2 0 .1-.05.18-.17.23-.12.05-.3.07-.55.07-.22 0-.39-.02-.5-.07-.1-.05-.16-.12-.16-.22Z" fill="#fff"/><defs><linearGradient id="a" x1="45" y1="30" x2="11" y2="30" gradientUnits="userSpaceOnUse"><stop stop-color="#0177B2"/><stop offset=".5" stop-color="#1F95CF"/><stop offset="1" stop-color="#0172AE"/></linearGradient></defs></svg>