<!-- by TradingView --><svg width="56" height="56" viewBox="0 0 56 56" xmlns="http://www.w3.org/2000/svg"><path fill="#F0F3FA" d="M0 0h56v56H0z"/><path d="M43 33.16v.09L35.06 42h-14.6L13 33.28v-.09l14.72-22.1c.08-.12.16-.12.23 0L43 33.15Z" fill="#008DCD"/><path d="M34.6 41.13H20.93a.12.12 0 0 1-.1-.05l-6.7-7.84c-.03-.05-.04-.1 0-.15l13.62-20.47c.06-.1.13-.1.2 0l13.88 20.42c.04.06.04.11 0 .16l-7.14 7.88a.12.12 0 0 1-.1.05Z" fill="#FFF012"/><path d="m17.21 32.06 10.36-3.58c.05-.01.07-.04.07-.09V15.1c0-.06.03-.09.1-.09h.38c.06 0 .1.03.1.1v13.72c0 .05-.03.08-.07.1L16.89 32.8a.1.1 0 0 1-.1-.03c-.04-.04-.04-.08-.01-.12l.38-.55a.1.1 0 0 1 .05-.04Z" fill="#AB5186"/><path d="M26.48 27.95c.1-.04.16-.11.16-.22a505.7 505.7 0 0 1-.01-10.45c-.03-.47.14-.85.5-1.15a.08.08 0 0 1 .09-.01c.03.01.05.04.05.07v11.9c0 .09-.04.14-.13.17l-9.49 3.28c-.16.05-.2 0-.14-.15l.08-.2a.5.5 0 0 1 .32-.28l8.57-2.96Z" fill="#AB5186"/><path d="M28.59 28.92v-12.7c0-.04.02-.07.06-.08.04-.02.08 0 .1.03l.76 1.07c.15.21.2.45.14.7a9.5 9.5 0 0 0-.16 2.1c.06 4.01.09 7.15.09 9.41 0 .2-.1.33-.28.4l-13.12 4.52c-.17.06-.22 0-.14-.16l.34-.7a.6.6 0 0 1 .36-.33l11.68-4.03c.1-.04.17-.11.17-.23Z" fill="#AB5186"/><path d="M24.18 26.8v-6.82c0-.02 0-.04.02-.06l2.03-2.95c.03-.05.07-.06.12-.04.05.01.07.04.07.1v10.09c0 .04-.02.08-.06.1l-6.54 2.42c-.1.03-.14 0-.14-.1v-3.3c0-.01 0-.03.02-.05l3.06-4.45c.03-.04.07-.05.12-.04.05.02.12.05.12.1v5.38c0 .1 0 .14.1.1l1.01-.38c.05-.01.07-.05.07-.1ZM35.18 32.56H28.1c-.07 0-.1-.03-.1-.1v-1.7c0-.06.02-.09.07-.1l1.56-.54c.04-.02.07-.05.07-.1V18.34c0-.05.02-.09.07-.1.05-.02.09 0 .12.04L31.1 20a.1.1 0 0 1 .02.06v11.53c0 .07.04.1.1.1h3.5a.1.1 0 0 1 .08.04l.47.67a.1.1 0 0 1 0 .1.1.1 0 0 1-.09.06Z" fill="#0086CA"/><path d="M27.73 35h9.4c.16 0 .3.01.39.15l.42.6c.11.16.07.24-.13.24H24.13c-.1 0-.13-.05-.13-.15V33.1c0-.1-.06-.13-.15-.1l-.7.3c-.16.06-.15.18-.15.35v2.22c0 .09-.13.13-.22.13H19.9c-.11 0-.17-.06-.17-.17v-1.9c0-.14.07-.23.2-.28l7.4-2.55c.13-.05.2 0 .2.15 0 .37-.1 3.75.2 3.75Z" fill="#0086CA"/><path d="M27.68 33.55c0-.14-.05-.3-.13-.5l8.18-.05c.1 0 .15.04.19.13l.1.28c.03.09 0 .13-.1.13h-8.24ZM27.6 34.54a.8.8 0 0 1-.02-.53l8.7-.01c.16 0 .24.08.24.23v.14c0 .1-.06.16-.18.16l-8.74.01Z" fill="#AB5186"/></svg>