<!-- by TradingView --><svg width="56" height="56" viewBox="0 0 56 56" xmlns="http://www.w3.org/2000/svg"><path fill="#F0F3FA" d="M0 0h56v56H0z"/><path d="M21.1 15.98c-2.25.5-4.36 1.33-6.34 2.47-1.68.95-3.1 2.15-4.3 3.58a8.91 8.91 0 0 0-2.07 4.74c-.21 1.8.14 3.48 1.03 5.06a13.1 13.1 0 0 0 2.9 3.44c1.1.95 2.35 1.75 3.73 2.4a24.48 24.48 0 0 0 7.33 2.22c.07 0 .1.05.1.12v.05c0 .04-.02.06-.06.06-3.14-.42-6.1-1.4-8.9-2.97a14.87 14.87 0 0 1-3.52-2.7 11.62 11.62 0 0 1-2.45-3.73A7.8 7.8 0 0 1 8 27.34a9.44 9.44 0 0 1 2.5-5.8c1.4-1.56 3.04-2.8 4.92-3.75a24 24 0 0 1 5.53-2.03 30 30 0 0 1 5.25-.72c1.45-.05 2.65-.05 3.6 0 .8.04 1.9.16 3.28.36 1.38.2 2.8.54 4.24 1.04 2.92 1 5.33 2.37 7.23 4.1a10.75 10.75 0 0 1 2.66 3.64c.62 1.42.87 2.9.75 4.43-.01.1-.07.15-.17.15h-.04c-.09-.01-.13-.05-.12-.14.2-2.66-.62-5-2.47-7.04a17.11 17.11 0 0 0-5.37-3.9 24.22 24.22 0 0 0-6.36-2 31.2 31.2 0 0 0-12.35.3Z" fill="#15145B"/><path d="M45.3 27.72A7.4 7.4 0 0 1 44 31.86a12.08 12.08 0 0 1-3.75 3.51 19.97 19.97 0 0 1-5.62 2.35c-2.12.55-4.32.82-6.62.82-2.29 0-4.5-.27-6.61-.82a19.97 19.97 0 0 1-5.62-2.35 12.08 12.08 0 0 1-3.75-3.5 7.4 7.4 0 0 1-1.31-4.15 7.4 7.4 0 0 1 1.31-4.14c.88-1.32 2.13-2.5 3.75-3.5 1.63-1.02 3.5-1.8 5.62-2.35 2.11-.55 4.32-.82 6.61-.82 2.3 0 4.5.27 6.62.82 2.12.55 4 1.33 5.62 2.34a12.08 12.08 0 0 1 3.75 3.51 7.4 7.4 0 0 1 1.31 4.14Z" fill="#1C95D1"/><path d="m27.78 19.49-.01 1.95c0 .07-.04.1-.11.1A26 26 0 0 1 18 19.59c-.05-.02-.08-.05-.08-.08 0-.05.03-.09.08-.1a26.02 26.02 0 0 1 9.66-1.97c.07 0 .11.03.11.1v1.96ZM38.04 19.5c0 .04-.02.06-.07.08a25.94 25.94 0 0 1-9.65 1.96c-.07 0-.1-.03-.1-.1a179.44 179.44 0 0 1 0-3.9c0-.07.03-.11.1-.1 3.36.04 6.58.7 9.65 1.96.05.02.07.06.07.1Z" fill="#E4FA76"/><path d="M42.53 27.73v.14c.01.1.06.14.16.14h2.09c.1 0 .14.05.13.15a7.86 7.86 0 0 1-2.2 4.61 14.55 14.55 0 0 1-3.88 2.86.27.27 0 0 1-.25 0 18 18 0 0 0-2.39-.98 26.6 26.6 0 0 0-9.47-1.27c-3.34.15-6.44.9-9.31 2.24a.35.35 0 0 1-.2.02.57.57 0 0 1-.18-.07c-1.6-.86-2.9-1.87-3.9-3a7.7 7.7 0 0 1-2-4.46c-.01-.07.02-.1.1-.1 1.08.02 2.01.02 2.8 0 .09 0 .15-.02.19-.06.05-.04.07-.12.07-.22s-.02-.18-.07-.22c-.04-.04-.1-.06-.2-.06-.78-.02-1.71-.02-2.8 0-.07 0-.1-.03-.1-.1a7.7 7.7 0 0 1 2-4.46c1-1.14 2.3-2.14 3.9-3a.57.57 0 0 1 .2-.07c.07-.01.14 0 .19.02a24.22 24.22 0 0 0 9.31 2.24c3.24.15 6.4-.28 9.47-1.28.77-.25 1.57-.57 2.39-.98a.27.27 0 0 1 .25 0c1.47.76 2.76 1.71 3.87 2.86a7.86 7.86 0 0 1 2.2 4.62c.02.1-.02.14-.12.14h-2.1c-.09 0-.14.05-.14.14v.15Z" fill="#E4FA76"/><path d="M17.75 27.6v2.09c0 .06.03.1.09.1.3.02.53.02.65-.02.14-.04.2.02.18.18-.05.3-.05.57-.01.82.02.15-.04.22-.18.22h-4.32c-.1 0-.16-.05-.16-.16v-.94c0-.1.05-.15.15-.14.34.06.57.05.68-.02.05-.03.08-.2.08-.53v-4.84c0-.11-.06-.17-.17-.17h-.62c-.08 0-.12-.04-.12-.13v-.88c0-.12.05-.18.16-.18h4.46c.02 0 .03.01.03.03v1.1c0 .04-.02.06-.06.05-.4-.05-.65-.03-.77.06a.13.13 0 0 0-.06.11v1.87c0 .06.02.1.08.1h1.97c.04 0 .07-.03.07-.08v-1.9c0-.1-.05-.16-.14-.16h-.66c-.1 0-.14-.05-.14-.14v-.9c0-.1.05-.14.13-.14h4.37c.13 0 .2.07.2.2V24c0 .13-.06.2-.18.2h-.57c-.08 0-.13.04-.13.12-.09 1.73-.1 3.51-.02 5.34 0 .1.05.14.14.14h.56c.13 0 .19.07.19.2v.8c0 .14-.07.21-.2.21h-4.45c-.02 0-.04-.02-.04-.05v-1.14c0-.03.01-.04.04-.04.55.05.84.02.85-.08.07-.6.09-1.3.05-2.1 0-.06-.04-.1-.1-.1h-1.94c-.06 0-.1.03-.1.1Z" fill="#661519"/><path d="M14.44 30.14a.8.8 0 0 0 .49-.05c.18-.08.28-.22.27-.42v-5.42c0-.1-.04-.18-.1-.24a.3.3 0 0 0-.23-.1h-.46c-.08 0-.12-.05-.12-.14v-.36c0-.08.03-.12.1-.12h3.93c.08 0 .13.05.13.14v.34c0 .08-.04.12-.12.12h-.49c-.1 0-.18.04-.25.12a.39.39 0 0 0-.1.27v2.13c0 .11.05.17.15.17h2.37c.08 0 .12-.04.13-.13.03-.64.03-1.36 0-2.15-.02-.2-.08-.32-.19-.36a.75.75 0 0 0-.35 0 .93.93 0 0 1-.27 0c-.07 0-.1-.04-.12-.09a1.4 1.4 0 0 1-.03-.5c0-.05.03-.08.08-.08l3.88.02c.2 0 .3.1.3.29v.04c.01.2-.08.3-.27.3a1.1 1.1 0 0 0-.53.06c-.1.05-.16.2-.17.45-.07 1.74-.06 3.54.03 5.38 0 .17.09.25.24.25h.5c.11 0 .17.07.17.2v.23c0 .16-.07.23-.21.23h-3.9c-.09 0-.13-.05-.13-.15v-.38c0-.08.03-.12.11-.12h.52c.1 0 .18-.04.25-.12.06-.07.1-.16.1-.27v-2.31c0-.12-.06-.18-.17-.17-.76.05-1.53.03-2.32-.08-.1-.01-.16.04-.16.15v2.62c0 .12.06.18.17.18h.73c.02 0 .04.02.04.05v.57c0 .03-.02.04-.04.04l-1.35-.01c-.86-.02-1.55-.03-2.08-.01-.21 0-.4-.02-.56-.08a.17.17 0 0 1-.1-.1c-.06-.13-.06-.24 0-.34.04-.04.08-.06.13-.05Z" fill="#E92E38"/><path d="M24.9 24.17h-.62c-.13 0-.2-.06-.2-.2v-.78c0-.13.07-.19.18-.19h4.32c.1 0 .16.06.16.18V24c0 .15-.06.21-.2.18a1.57 1.57 0 0 0-.62.04c-.05 0-.07.04-.07.09V29c0 .44.2.7.6.76.36.05.71.05 1.07-.01.3-.05.5-.2.6-.42a2.57 2.57 0 0 0 .08-.93c.02-1.34.02-2.7 0-4.1 0-.09-.05-.14-.13-.14h-.6c-.11 0-.17-.06-.17-.17v-.8c0-.12.06-.19.18-.19h3.28c.11 0 .17.06.17.18v.85c0 .1-.05.14-.13.14h-.57c-.14 0-.21.08-.21.24.02 1.44.03 2.89.01 4.35 0 1.07-.63 1.75-1.85 2.04a7.14 7.14 0 0 1-3.96-.17c-.56-.19-.93-.51-1.1-.98a5.7 5.7 0 0 1-.14-1.95l-.01-3.45c0-.05-.03-.08-.08-.08Z" fill="#661519"/><path d="M29.79 23.9c-.11 0-.18-.06-.2-.18l-.06-.28c-.02-.1.01-.14.1-.14h2.84c.16 0 .24.08.24.25v.13c0 .13-.06.2-.18.2h-.44a.28.28 0 0 0-.21.09.32.32 0 0 0-.09.23v4.24c0 .6-.13 1.05-.36 1.37-.23.32-.6.54-1.14.66-.6.15-1.25.23-1.92.25-.22 0-.44-.02-.68-.08-.1-.03-.25-.06-.47-.08a3.02 3.02 0 0 1-1.34-.44 1.08 1.08 0 0 1-.52-.65 3.21 3.21 0 0 1-.12-.94v-4.37a.26.26 0 0 0-.09-.2.22.22 0 0 0-.2-.05 1.3 1.3 0 0 1-.52 0c-.08-.02-.12-.07-.12-.16v-.35c0-.07.03-.1.09-.1h3.95c.12 0 .18.06.18.2v.21c0 .12-.05.17-.16.17h-.47c-.2 0-.31.12-.3.35.01 1.59.01 3.14-.01 4.67-.01.73.3 1.11.94 1.15.44.03.77.02 1-.02.4-.06.66-.22.79-.47.07-.15.11-.4.11-.75l.02-4.64a.28.28 0 0 0-.08-.2.24.24 0 0 0-.18-.07h-.4Z" fill="#E92E38"/><path d="M41.99 27v.07c.05.9-.11 1.69-.47 2.36-.4.74-1 1.2-1.77 1.38a8.3 8.3 0 0 1-2.03.19h-4.04c-.12 0-.18-.07-.18-.2v-.82c0-.12.05-.18.16-.18h.61c.09 0 .13-.05.13-.14a604.33 604.33 0 0 1 0-5.32c0-.1-.04-.14-.12-.14h-.61c-.11 0-.16-.06-.16-.18v-.82c0-.13.06-.2.18-.2 2.35.01 3.7.02 4.04.01.78 0 1.45.05 2.03.2.77.18 1.36.64 1.76 1.38A4.38 4.38 0 0 1 42 27Z" fill="#661519"/><path d="M34.45 30.04c.13-.03.2-.11.2-.26v-5.56a.3.3 0 0 0-.09-.2.25.25 0 0 0-.19-.1h-.5c-.08 0-.12-.03-.12-.12v-.42c0-.07.03-.1.09-.1 1.2.06 2.44.06 3.74.01.28 0 .56 0 .85.03l.85.08c1.17.12 1.92.8 2.27 2.06.18.66.23 1.38.16 2.17a3.8 3.8 0 0 1-.68 2.03c-.39.5-.9.79-1.51.88-1 .14-1.85.2-2.55.2l-2.96-.02c-.18 0-.27-.1-.27-.29v-.17c0-.15.07-.21.2-.2.2.03.36.02.51-.02Z" fill="#E92E38"/><path d="M37.01 23.98c0-.05.03-.08.08-.08h.7c.45 0 .82.17 1.13.52.31.35.47.76.47 1.25v2.64c0 .49-.16.9-.48 1.25-.3.35-.68.52-1.12.52h-.7c-.06 0-.09-.03-.09-.09l.01-6Z" fill="#661519"/><path d="M37.27 24.27c0-.06.03-.09.09-.09h.45c.37 0 .68.16.94.48.26.32.39.71.39 1.16v2.36c0 .46-.14.84-.4 1.16-.26.32-.57.48-.94.48h-.45c-.06 0-.09-.03-.09-.1v-5.45Z" fill="#E4FA76"/><path d="M47.15 32.87c-.2.43-.4.76-.6 1-.27.28-.6.48-.98.58-.37.1-.57-.02-.61-.37-.04-.28.02-.56.16-.84.28-.54.62-.97 1.03-1.3a.4.4 0 0 0 .12-.22c.02-.05.05-.07.1-.06.15.02.25.07.3.16.03.04.02.07-.04.1a.49.49 0 0 1-.12.01c-.1 0-.17.02-.22.05-.5.28-.84.7-1.01 1.25a.66.66 0 0 0-.01.45.7.7 0 0 0 .31.39c.15.07.3.06.47-.04.3-.18.52-.35.65-.5.1-.1.23-.3.4-.6l.04-.07c.05-.09.05-.08.01 0Z" fill="#E92E38"/><path d="M20.06 34.07c-.1 0-.15.05-.13.16.04.23 0 .38-.13.42-.85.32-1.52.6-2.03.85a.42.42 0 0 1-.42-.02l-1.2-.7a.27.27 0 0 1-.15-.24v-1.46c0-.05.03-.08.08-.08h11.8c.08 0 .12.04.12.11v.06c0 .05-.03.07-.08.08l-1.1.07a23.78 23.78 0 0 0-5.7.92c-.05.02-.08 0-.11-.04a.21.21 0 0 0-.2-.12l-.75-.01ZM35.94 34.07l-.76.01a.21.21 0 0 0-.19.12c-.03.04-.06.06-.11.04a23.83 23.83 0 0 0-5.69-.93 49 49 0 0 1-1.11-.06c-.05 0-.08-.03-.08-.08v-.06c0-.07.04-.1.11-.1L39.92 33c.05 0 .08.03.08.08v1.46c0 .1-.05.19-.14.24l-1.21.7a.42.42 0 0 1-.42.02c-.5-.25-1.18-.53-2.03-.85-.13-.04-.17-.19-.13-.42.02-.1-.02-.16-.13-.16Z" fill="#3B326B"/><path d="M28.19 35.97V34c0-.08.04-.11.11-.11 3.38.04 6.62.69 9.72 1.96.05.02.07.06.07.1 0 .04-.02.06-.07.08a26.1 26.1 0 0 1-9.71 2c-.07 0-.1-.04-.1-.11-.02-.6-.02-1.26-.02-1.96ZM27.79 35.97l-.01 1.95c0 .08-.04.11-.11.11-3.37-.04-6.6-.7-9.69-1.98-.04-.02-.07-.06-.07-.1 0-.04.03-.06.07-.08a26.07 26.07 0 0 1 9.7-1.97c.06 0 .1.04.1.11v1.96ZM17.81 34l-.79-.02a.13.13 0 0 0-.13.13v.7c0 .07.05.13.12.13l.79.01c.07 0 .12-.05.12-.12l.01-.7a.13.13 0 0 0-.12-.14ZM38.97 33.98h-.8a.14.14 0 0 0-.13.14v.7c0 .07.06.14.13.14h.8c.07 0 .14-.06.14-.14v-.7a.14.14 0 0 0-.14-.14Z" fill="#E7EA9C"/><path d="M30.32 34.86c0 .07.03.1.1.1h.85c.07 0 .1-.03.1-.1v-.44c0-.1.05-.14.15-.13l1.13.2c.08.01.12.06.12.15v.23c0 .06.03.1.1.1a7.14 7.14 0 0 0 .7 0 .3.3 0 0 0 .3-.18c.02-.04.06-.05.1-.04 1.3.32 2.46.69 3.47 1.1.18.08.18.15 0 .22a24.68 24.68 0 0 1-8.84 1.74c-.1 0-.14-.05-.14-.14v-3.43c0-.08.04-.13.12-.13h1.57c.11 0 .17.06.17.18v.57ZM25.66 34.86v-.57c0-.12.06-.17.17-.17h1.57c.08 0 .12.04.12.13v3.42c0 .1-.05.14-.14.14a24.7 24.7 0 0 1-8.84-1.74c-.18-.08-.18-.15 0-.22 1-.42 2.16-.79 3.46-1.1.05-.02.09 0 .1.04a.3.3 0 0 0 .3.17 8.48 8.48 0 0 1 .71 0c.06 0 .1-.03.1-.1v-.22c0-.1.04-.14.12-.16l1.13-.19c.1-.01.14.03.14.13v.44c0 .07.04.1.1.1h.86c.06 0 .1-.03.1-.1Z" fill="#3B326B"/><path d="M44.66 35.17c-.08 0-.15.01-.22.04l-1.44.6a.11.11 0 0 1-.13-.01c-.16-.14-.17-.3-.04-.48.1-.14.31-.36.64-.68.04-.04.12-.1.23-.15.17-.1.27-.18.3-.26.03-.06.07-.08.13-.05.1.04.18.12.24.25v.06a.05.05 0 0 1-.05.02c-.57-.05-1 .2-1.28.75a.14.14 0 0 0 0 .14c.04.07.09.09.16.06.38-.15.8-.33 1.24-.54a.82.82 0 0 1 .43-.07c.07 0 .12.04.16.1a.2.2 0 0 1 0 .18c-.08.2-.2.38-.36.56-.1.12-.32.3-.63.5-.22.15-.36.26-.44.33-.04.04-.08.04-.13.02-.08-.05-.13-.13-.16-.24-.01-.06.02-.08.1-.05.04.02.1.02.2 0 .49-.09.87-.38 1.15-.88.07-.13.03-.19-.1-.2ZM42 35.75c.02 0 .03 0 .04.02l.01.02c.42.84.6 1.27.56 1.3l-.28.14c-.06.03-.3-.38-.71-1.21l-.01-.03v-.03l.4-.2Z" fill="#E92E38"/><path d="m23.13 35.9-.87-.01a.1.1 0 0 0-.1.1v.79c0 .05.04.1.1.1h.86a.1.1 0 0 0 .1-.1V36a.1.1 0 0 0-.09-.1ZM25.55 35.9h-.83a.12.12 0 0 0-.12.11v.74c0 .07.04.12.11.12l.83.02c.06 0 .12-.06.12-.12v-.74a.12.12 0 0 0-.1-.13ZM31.29 35.9h-.85a.1.1 0 0 0-.1.1l-.01.77c0 .06.04.1.1.1l.85.01a.1.1 0 0 0 .1-.1v-.77a.1.1 0 0 0-.1-.1ZM33.71 35.9h-.83a.1.1 0 0 0-.1.1v.78c0 .06.05.1.1.1h.84a.1.1 0 0 0 .1-.1L33.8 36a.1.1 0 0 0-.1-.1Z" fill="#E7EA9C"/><path d="M41.85 37.68c.14-.04.24-.14.22-.2-.02-.08-.15-.1-.3-.05-.14.05-.24.14-.22.21.02.07.15.09.3.04ZM35.9 39.46c0-.34-.1-.66-.29-.95-.03-.04-.02-.07.04-.08l.2-.05c.06 0 .1.02.1.08l.26 1.24c.04.2-.04.28-.23.22l-2.12-.65c-.1-.02-.14.01-.12.11l.2.97c.01.07-.02.1-.08.12l-.06.01c-.06.02-.1-.01-.1-.07l-.23-1.11a.16.16 0 0 0-.1-.13l-.16-.07c-.07-.04-.07-.07 0-.1.27-.08.47-.1.62-.05.57.16 1.22.36 1.95.6.08.02.12-.01.12-.1ZM38.73 39.04l-.9.34-.04-.12.91-.27a6 6 0 0 1 .13-.1c.22-.17.37-.31.45-.42.13-.18.15-.36.06-.53a.4.4 0 0 0-.26-.21 2.08 2.08 0 0 0-1.65.29c-.04.03-.05.06-.03.1l.39 1.14.04.12-.43.19c-.07.03-.1 0-.11-.07a2.76 2.76 0 0 0-.52-1.34c-.02-.02-.02-.03.01-.04l.6-.21a6.1 6.1 0 0 1 1.85-.45c.25 0 .44.07.56.22.13.16.14.35.01.58-.17.32-.53.58-1.07.78ZM30.93 39.67l-.82 1.2a.19.19 0 0 1-.11.08l-.2.04c-.05.01-.06 0-.02-.05l1.24-1.67c.05-.06.11-.07.17-.02l1.57 1.32c.03.03.03.04-.01.05l-.53.06c-.04 0-.07 0-.1-.04l-.98-1c-.07-.07-.15-.07-.21.03ZM26.91 39.4h.5c.04 0 .06.02.04.07-.1.32-.14.73-.1 1.2 0 .06.02.1.06.13l.04.03c.07.06.06.09-.03.09h-.53c-.1 0-.13-.03-.07-.1a.36.36 0 0 0 .05-.1 3.55 3.55 0 0 0 0-1.28c0-.03.02-.04.04-.04ZM28.24 40.87l.24.01c.12.02.3-.04.55-.16l.1-.04c.12-.06.15-.03.07.08-.12.19-.41.27-.86.23h-.1c-.28-.02-.29-.06 0-.12Z" fill="#E92E38"/></svg>