<!-- by TradingView --><svg width="56" height="56" viewBox="0 0 56 56" xmlns="http://www.w3.org/2000/svg"><path fill="#F0F3FA" d="M0 0h56v56H0z"/><path d="M28 39.14c8.88 0 16.08-4.2 16.08-9.38 0-2.66-1.89-5.05-4.92-6.76 4.17 1.85 6.84 4.7 6.84 7.91C46 36.48 37.94 41 28 41s-18-4.52-18-10.09c0-3.2 2.67-6.06 6.84-7.91-3.03 1.7-4.92 4.1-4.92 6.76 0 5.18 7.2 9.38 16.08 9.38Z" fill="#0C3D82"/><path d="M19 14h8v4.92l-4.69 2.39L27 23.44V28h-8V14Zm10 10.36V28h8V14h-8v3.9l6.98-3.56-6.98 5.2v3l6.98 5L29 24.36Z" fill="#0C3D82"/><path d="m27 21.08 2-1.53v2.95l-2-1.42ZM17 29h2v2h2v-2h2v5h-2v-2h-2v2h-2v-5Zm8.92 5H24l1-5h2.45l1.07 3.18 1.1-3.18h2.46l.92 5h-1.88l-.51-4.01-1.4 4.01H27.8l-1.34-4.01-.53 4.01ZM39 32.7v1.09c-.2.07-.78.21-1.63.21-1.06 0-3.37-.36-3.37-2.51S36.33 29 37.18 29c.78 0 1.05.08 1.67.26.05 0 .1.02.15.04v1c-.17-.09-.74-.27-1.63-.27-1.11 0-1.37.46-1.37 1.47 0 1 .71 1.45 1.56 1.45.67 0 1.24-.17 1.44-.26Z" fill="#CE0002"/></svg>