<!-- by TradingView --><svg width="56" height="56" viewBox="0 0 56 56" xmlns="http://www.w3.org/2000/svg"><path fill="#F0F3FA" d="M0 0h56v56H0z"/><path d="M28.37 39.16c.03-.04.08-.03.16.03l1.45 1.32c.63.57 1.13.94 1.52 1.11a4.12 4.12 0 0 0 4.84-1.11c.42-.48 3.14-3.73 8.18-9.76a7.6 7.6 0 0 0 1.13-1.63c.27-.64.38-1.32.34-2.05a4.48 4.48 0 0 0-1.82-3.4l-9.25-8.4A4.41 4.41 0 0 0 31.85 14a4.03 4.03 0 0 0-2.99 1.38l-1.23 1.47c-.04.05-.08.05-.12 0l-1.52-1.39a6.29 6.29 0 0 0-1.37-1.02 4.17 4.17 0 0 0-2.66-.34c-.9.2-1.67.65-2.28 1.39l-8.2 9.74c-.59.72-.97 1.3-1.15 1.71a4.48 4.48 0 0 0-.23 2.66c.2.95.6 1.7 1.23 2.28l9.45 8.58c.6.55 1.12.93 1.53 1.14.51.27 1.1.4 1.73.4 1.32 0 2.46-.58 3.43-1.76l.9-1.08Zm6.47-13.21-3.88 4.62c-1.3 1.58-3.2 3.84-5.7 6.8-.33.39-.62.63-.85.71-.47.17-.96.01-1.48-.46l-8.24-7.48a3.92 3.92 0 0 1-.9-1.01c-.22-.5-.11-1 .31-1.52l7.5-8.96c.32-.38.59-.6.8-.7.5-.18.96-.07 1.4.33l1.43 1.29c.04.04.05.09 0 .14l-6.38 7.63c-.38.45-.6.8-.68 1.07-.14.47-.08.92.17 1.38.3.55.75.85 1.34.9.58.06 1.08-.15 1.48-.63l3.88-4.62c1.3-1.58 3.21-3.84 5.7-6.8.34-.4.62-.63.85-.71.47-.17.96-.02 1.48.45l8.24 7.49c.49.44.79.78.9 1 .22.51.12 1.02-.31 1.53l-7.5 8.95c-.32.38-.59.61-.8.7-.5.19-.96.08-1.4-.32l-1.42-1.3c-.05-.03-.06-.08-.01-.13l6.38-7.64c.38-.44.6-.8.68-1.07.14-.46.08-.92-.17-1.37-.3-.55-.75-.85-1.34-.9a1.65 1.65 0 0 0-1.48.63Zm-6.71-.22 2.02 1.85c.69.63.75 1.72.15 2.44l-.1.1a1.6 1.6 0 0 1-2.33.16l-2.02-1.86A1.77 1.77 0 0 1 25.7 26l.1-.11a1.6 1.6 0 0 1 2.33-.15Z" fill="#ED1C24"/></svg>