<!-- by TradingView --><svg width="56" height="56" viewBox="0 0 56 56" xmlns="http://www.w3.org/2000/svg"><path fill="#F0F3FA" d="M0 0h56v56H0z"/><path d="M8 24v-2h8.9c2.26 0 4.1 1.94 4.1 4.34v.28a3.96 3.96 0 0 1-3.85 4.06L21 34h-5.22L12 30.68V28h4.87c1.11 0 2.13-.83 2.13-2s-1.02-2-2.13-2H8Zm0 4H7l.85-3h3.21v9H8v-6Zm27 2.5V34h-7.34C24.53 34 22 31.31 22 28s2.53-6 5.66-6H35v2h-7.44c-1.78 0-3.06 1.27-3.06 3.15 0 1.9 1.28 3.35 3.06 3.35H35ZM49 34v-3.5h-7.61A3.37 3.37 0 0 1 38 27.16c0-1.88 1.57-3.16 3.39-3.16H49v-1.99h-7.51a5.9 5.9 0 0 0-5.79 6c0 3.3 2.6 5.99 5.79 5.99H49Z" fill="#D71D24"/></svg>