<!-- by TradingView --><svg width="56" height="56" viewBox="0 0 56 56" xmlns="http://www.w3.org/2000/svg"><path fill="#F0F3FA" d="M0 0h56v56H0z"/><path d="m15.82 16.53-.72.45V41h.72V16.53ZM16.63 41h.72V15.57l-.72.45V41Zm1.43-25.87V41h.63v-6.2l.7-.46V41h.73v-7.13l.8-.53V41h.73v-8.13l.7-.46V41h4.95V26.03l-.65.33v8.7l-.7-.45v-7.9l-.73.38v7.05l-.8-.53V27.5l-.73.36v5.28l-.7-.46V25.9H23v-7.73L18.26 15l-.2.13ZM28 25.68V41h.65v-6.2l.71-.46V41h.72v-7.13l.81-.53V41h.72v-8.13l.71-.46V41H42V18.18L36.93 15l-.26.16v19.9l-.67-.43V15.56l-.76.46v18.12l-.81-.53V16.5l-.72.43v16.2l-.71-.46v-15.3l-.5.3V28.2l-4.46-2.55-.04.02ZM14.4 41V17.43l-.4.24V41h.4Z" fill="#FE0000"/></svg>