<!-- by TradingView --><svg width="56" height="56" viewBox="0 0 56 56" xmlns="http://www.w3.org/2000/svg"><path fill="#F0F3FA" d="M0 0h56v56H0z"/><path d="M39.1 23.86c.3.28.76.66 1.38 1.14.9.7 1.55 1.28 1.92 1.72a6.23 6.23 0 0 1 1.3 2.58c.04.2.02.36-.06.48a1 1 0 0 1-.43.32c-.46-1.53-1.8-2.78-4.01-3.74a.5.5 0 0 1-.31-.37 3.32 3.32 0 0 1 .21-2.13Z" fill="#102B70"/><path d="m29.45 22-2.74-.02.46-4.49c.02-.2.12-.32.31-.39.41-.14.83-.13 1.25.01.18.06.28.2.3.39l.42 4.5ZM25.12 22.04c-1.1.05-2 .24-2.68.58l-2.04-4.47c-.1-.2-.03-.33.18-.39.38-.11.77-.16 1.16-.14.18.01.32.1.43.24l2.95 4.18ZM33.66 22.32l-2.78-.39 2.83-4.1c.1-.16.25-.24.44-.24.43-.01.85.06 1.26.2.2.08.25.2.16.4l-1.91 4.13ZM20.62 22.7l-2.71.9-2.62-3.75c-.13-.18-.1-.33.07-.45.54-.4 1.06-.4 1.57 0 1.26 1 2.5 2.1 3.69 3.3ZM38.15 23.7c-1.1-.57-2.03-.78-2.78-.6v-.2c0-.16.06-.29.17-.4a54.33 54.33 0 0 1 3.3-2.95c.68-.56 1.3-.6 1.85-.1.15.14.17.29.06.45l-2.6 3.8Z" fill="#02B9EF"/><path d="M16.93 24.06c-.75.38-1.56.92-2.45 1.6-1.62 1.23-2.22 2.62-1.8 4.18.02.94.37 1.77 1.03 2.5A10.72 10.72 0 0 0 18 35.2a28.66 28.66 0 0 0 18.97.39c1.24-.4 2.56-1.1 3.95-2.1 1.76-1.28 2.52-2.42 2.28-3.4 0-2.14-.27-2.74-.81-3.38A13.6 13.6 0 0 0 40.48 25c-.62-.48-1.07-.86-1.38-1.14l3.2-3.2c.18-.17.38-.2.6-.08 1.33.7 2.46 1.6 3.4 2.72a6.3 6.3 0 0 1 1.7 3.87c.08 3.32-2.08 6-6.5 8.05A31.27 31.27 0 0 1 28.64 38a34.3 34.3 0 0 1-12.82-2.21 15.94 15.94 0 0 1-5.34-3.23c-1.72-1.63-2.55-3.4-2.48-5.3.05-1.33.6-2.63 1.66-3.9a10.94 10.94 0 0 1 3.4-2.74c.14-.06.25-.04.36.06l3.51 3.38Z" fill="#02B9EF"/><path d="M29.45 22.02v3.12c0 .26-.14.39-.4.39h-1.96c-.26 0-.39-.13-.39-.38V22l2.75.02ZM25.12 22.04l.06 3.08c0 .29-.14.43-.43.43h-1.98c-.24 0-.36-.12-.36-.36l.04-2.57a6.64 6.64 0 0 1 2.67-.58ZM33.65 22.32l-.05 2.85c0 .26-.14.4-.4.4h-1.83c-.34 0-.5-.17-.5-.5l.01-3.14 2.77.4ZM17.91 23.6l2.7-.9.05 2.85c0 .3-.15.45-.46.45h-1.93c-.25 0-.37-.11-.37-.35l.01-2.05ZM38.15 23.7l-.05 1.93c0 .26-.14.38-.4.38h-1.84c-.33 0-.5-.15-.5-.47V23.1c.76-.17 1.69.04 2.79.62ZM16.93 24.06l.12 1.9a.4.4 0 0 1-.23.43l-.52.28c-.91.5-1.56.9-1.95 1.21a7.61 7.61 0 0 0-1.67 1.96c-.42-1.56.18-2.95 1.8-4.19.89-.67 1.7-1.2 2.45-1.6Z" fill="#102B70"/><path fill-rule="evenodd" d="M20.52 29.79h1.37c.28-.02.42-.13.41-.31V28.3c0-.2.1-.3.32-.3h1.12c.16 0 .25.13.28.37l.02 2.12v2.12c-.04.25-.13.37-.28.37l-1.13.01c-.21 0-.32-.1-.32-.3v-1.17c0-.19-.14-.3-.42-.31h-2.74c-.28.02-.42.13-.42.31v1.18c0 .2-.1.3-.31.3h-1.13c-.15 0-.24-.13-.28-.38a165.98 165.98 0 0 1 0-4.23c.03-.25.12-.37.27-.37L18.4 28c.21 0 .32.1.32.3v1.17c0 .19.13.3.42.31h1.37Zm8.16.36c.34.48.67.92 1 1.3.04.05.08.06.14.04.05-.01.08-.05.08-.1v-3.05c0-.23.12-.34.36-.34h.72c.32 0 .48.15.48.44v4.27c0 .19-.1.28-.31.28h-1.98a.61.61 0 0 1-.5-.23c-.3-.36-.76-1-1.4-1.9-.33-.5-.67-.93-.99-1.32-.04-.04-.08-.05-.14-.03-.05.01-.08.05-.08.1v3.05c0 .23-.12.34-.36.34h-.72c-.32 0-.48-.15-.48-.44V28.3c0-.19.1-.28.31-.28h1.98c.21 0 .38.07.5.23.3.36.76 1 1.4 1.9Zm9.92.45c.52.63.53 1.38.03 2.23a.33.33 0 0 1-.3.17h-6.14c-.13 0-.19-.06-.19-.17v-4.68c0-.1.06-.15.17-.15h5.84c.26 0 .43.1.53.32.3.64.3 1.24.01 1.82a.4.4 0 0 0 .05.46Zm-4.62-1.4 2.69.01c.21 0 .39.16.39.36v.03c0 .2-.18.36-.4.36l-2.68-.01c-.22 0-.4-.17-.39-.36v-.03c0-.2.18-.36.4-.36Zm-.07 1.8 2.96.02c.22 0 .4.17.4.37v.04c-.01.2-.19.36-.4.36l-2.97-.02c-.22 0-.4-.17-.4-.37v-.04c.01-.2.19-.36.4-.36Z" fill="#102B70"/></svg>