<!-- by TradingView --><svg width="56" height="56" viewBox="0 0 56 56" xmlns="http://www.w3.org/2000/svg"><path fill="#F0F3FA" d="M0 0h56v56H0z"/><path fill-rule="evenodd" d="M30 19.03v.01l-1.22.04a16.89 16.89 0 0 0-1.6.12 49.33 49.33 0 0 0-5.28.9 33.2 33.2 0 0 0-8.08 3.02c-1.2.64-2.33 1.45-3.4 2.41-.9.8-1.6 1.7-2.11 2.72-.1.2-.18.45-.23.73 0 .02-.02.03-.04.02a.13.13 0 0 1-.06-.1 13.9 13.9 0 0 0-.05-.43c-.05-.38-.04-.77.05-1.17.2-.89.58-1.67 1.16-2.34a8.85 8.85 0 0 1 1.63-1.49c.9-.62 1.86-1.18 2.91-1.66a28.24 28.24 0 0 1 5.25-1.75 30.5 30.5 0 0 1 3.17-.62 45.3 45.3 0 0 1 7.5-.43 3.47 3.47 0 0 1 .4 0v.02Zm18.07 5.08a13.27 13.27 0 0 0-4.12-2.6c-.75-.3-1.64-.62-2.66-.97-.03-.01-.03-.03-.02-.05v-.02h.02c1.81.45 3.51 1.03 5.11 1.73.9.39 1.78.86 2.62 1.43 1.16.78 2 1.62 2.5 2.54.62 1.15.64 2.3.05 3.43-.26.5-.6.97-1 1.39-.38.4-.78.76-1.2 1.05-.72.53-1.38.93-1.96 1.22a28.04 28.04 0 0 1-4.75 1.8v-.01A23.11 23.11 0 0 0 45.19 34c.9-.44 1.77-1 2.57-1.7a7.6 7.6 0 0 0 1.15-1.2c.35-.47.62-.95.81-1.44.4-1 .41-2 .05-3.02a6.75 6.75 0 0 0-1.7-2.54ZM4.25 29.24c.22.56.53 1.05.92 1.5.6.67 1.3 1.25 2.08 1.74.97.6 1.86 1.06 2.68 1.4.95.38 1.68.66 2.18.81a58.52 58.52 0 0 0 3.34.92v-.02l-.01-.02c-.9-.27-1.63-.5-2.2-.7-.76-.27-1.47-.56-2.1-.85a13.54 13.54 0 0 1-2.56-1.6 7.45 7.45 0 0 1-2.31-2.98 4.22 4.22 0 0 1 .21-3.52c.34-.68.8-1.3 1.37-1.84.57-.54 1.1-.97 1.59-1.3.83-.54 1.76-1.01 2.79-1.42a5.87 5.87 0 0 0 .49-.24l-.02-.03h-.03c-1.39.42-2.7.94-3.9 1.54-.84.42-1.62.9-2.35 1.46a6.74 6.74 0 0 0-1.98 2.26c-.51 1-.58 1.96-.2 2.9Zm40.39-4.86a.76.76 0 0 0 .25-1.04.74.74 0 0 0-1.03-.22.76.76 0 0 0-.25 1.04c.21.34.68.44 1.03.22ZM15.69 25.8l-.8.04c-.02 0-.03-.01-.02-.03l.51-1.36c.02-.04.06-.06.13-.07.07 0 .11-.04.14-.1l.05-.16c.01-.03.01-.05 0-.07a.07.07 0 0 0-.06-.04H13.7c-.08 0-.13.04-.16.11l-.04.1c-.02.09 0 .12.08.1a.4.4 0 0 1 .24.04c.01.01.02.02.01.04l-.92 2.55c-.07.2-.2.36-.36.48-.1.06-.11.04-.05-.05a1 1 0 0 0 .19-.56c0-.22-.09-.4-.26-.52a.7.7 0 0 0-.73-.07c-.25.1-.42.3-.5.57-.1.3-.06.55.12.77.15.18.38.3.69.37a2.5 2.5 0 0 0 2.05-.44c.3-.21.53-.64.67-1.28 0-.03.02-.04.04-.04h.75c.03 0 .03.01.03.03l-.43 1.22a.52.52 0 0 1-.14.18.07.07 0 0 1-.05.02h-.23c-.07 0-.11.03-.13.1l-.03.14c0 .06.02.1.08.1h2.18c.06 0 .1-.03.12-.09l.05-.14a.08.08 0 0 0 0-.08.07.07 0 0 0-.07-.03h-.16c-.02 0-.04-.01-.05-.03a.06.06 0 0 1 0-.06l1.1-2.94a.7.7 0 0 1 .16-.2.11.11 0 0 1 .05-.02c.17-.04.25-.15.26-.34 0-.03-.01-.04-.04-.04h-2.18c-.1 0-.14.08-.15.22 0 .06.02.1.07.1l.2.05.04.04v.06l-.47 1.3c0 .02-.02.03-.05.03Zm4.55-1.76c.4.09.7.1.9.05.04 0 .12-.03.26-.07l.06.01.02.05c-.05.33-.25.58-.6.75a.95.95 0 0 1-.81.01 1.31 1.31 0 0 0-.56-.1.88.88 0 0 0-.29.11.7.7 0 0 1-.44.11c-.03 0-.05-.03-.03-.06.08-.22.21-.42.4-.6.3-.27.66-.36 1.09-.26Zm12.14 3.62-.16-.06c-.02 0-.03-.02 0-.04a.87.87 0 0 0 .09-.14 27.11 27.11 0 0 0 1.05-2.87c.02-.07.1-.14.2-.2a.58.58 0 0 0 .15-.11.24.24 0 0 0 .05-.19c0-.02-.02-.03-.04-.03l-.74-.02c-.14 0-.2.07-.2.24 0 .02.02.03.03.04l.24.1c.05.01.06.04.05.09l-.05.17-.8 2.15c-.04.11-.1.2-.16.28-.02.03-.03.02-.04 0a4.45 4.45 0 0 1-.02-.2 59.42 59.42 0 0 1-.73-2.85h-1.71c-.02 0-.04 0-.05.02a.42.42 0 0 0-.05.2c0 .03 0 .05.03.06l.18.07c.03.01.06.04.07.07.02.04.02.07 0 .11 0 .05-.04.1-.08.19a28.07 28.07 0 0 1-.77 2.1 1 1 0 0 1-.17.27c-.1.1-.18.17-.26.18-.02 0-.03 0-.05-.02a.04.04 0 0 1 0-.04c.08-.23.11-.41.1-.56-.03-.19-.14-.32-.34-.4a.7.7 0 0 0-.53-.03.82.82 0 0 0-.4.36l-.14.28a.8.8 0 0 0 .06.62c.1.2.26.33.47.42.13.05.3.08.5.08.3 0 .54-.13.74-.4.14-.16.27-.43.4-.8a14.78 14.78 0 0 0 .52-1.63l.03.01c.03.06.06.13.07.2.14.84.33 1.7.57 2.59 0 .02.02.03.04.03h1.77c.02 0 .04 0 .05-.03a.37.37 0 0 0 .06-.26.05.05 0 0 0-.03-.05Zm7.52-2.14a.6.6 0 0 1 .2-.16l.08-.05c.3-.14.53-.2.68-.25.25-.06.5-.07.75-.02.1.02.2.08.29.18l.01.01c.05.06.11.13.18.26l.03.07-.71 2c-.02.05 0 .08.04.08l.1.03a.1.1 0 0 1 .08.05c.01.03.02.06.01.09a.42.42 0 0 1-.06.15c-.02.02-.03.04-.06.04h-1.86l-.03-.03v-.03l.1-.23.13-.27c.23-.57.42-1.1.59-1.58a.1.1 0 0 0 0-.07c-.04-.09-.1-.14-.18-.15-.08-.01-.16.01-.24.07a.94.94 0 0 0-.35.43 103.14 103.14 0 0 0-.52 1.48c0 .02.02.03.04.04l.1.02c.02 0 .04.02.04.05 0 .17-.08.26-.23.26l-1.88.01c-.04 0-.06-.02-.06-.06 0-.05 0-.1.04-.15a.23.23 0 0 1 .15-.1c.13-.03.22-.1.28-.2.04-.06.07-.17.1-.32l.05-.2c.36-1.01.65-1.82.88-2.42.04-.1.04-.16 0-.18a.53.53 0 0 0-.22-.06c-.1 0-.14-.06-.1-.16v-.01c.01-.1.08-.14.2-.14l1.84.02c.02 0 .03 0 .03.02v.04a7.9 7.9 0 0 0-.38 1.12.47.47 0 0 1-.16.25v.07c0 .02 0 .02.02 0Zm-15.6-.28h-1.6c-.02 0-.03 0-.01-.03.09-.1.13-.2.14-.3 0-.09-.02-.17-.07-.24a.42.42 0 0 0-.23-.15.55.55 0 0 0-.63.27c-.08.15-.07.28.01.4v.03l-.02.01h-1.66a.1.1 0 0 0-.1.07l-.06.15c-.02.05 0 .07.05.08l.18.04c.03.01.04.03.03.06l-.55 1.38a.76.76 0 0 1-.21.31.5.5 0 0 1-.25.1c-.12.02-.2 0-.24-.08a.06.06 0 0 1 0-.06 6 6 0 0 1 .19-.4c.18-.51.37-1.02.57-1.52a.07.07 0 0 0-.01-.07.07.07 0 0 0-.07-.04 132.22 132.22 0 0 0-1.1 0 4.3 4.3 0 0 0-.54-.01.28.28 0 0 0-.26.18v.06l.05.03.32.07c.02 0 .03.02.02.05-.25.6-.45 1.1-.58 1.49-.11.35-.02.61.28.77.21.12.53.13.95.02.1-.02.24-.07.41-.15l.18-.08c.02 0 .04 0 .05.03l.05.23c0 .02.02.03.04.03h1.72c.07 0 .11-.03.13-.1l.02-.12c.01-.04 0-.06-.04-.06a.63.63 0 0 1-.24-.07c-.04-.01-.05-.05-.04-.09a10.83 10.83 0 0 1 .7-1.74c.2-.13.43-.21.66-.25.13-.02.18.02.13.13l-.04.15-.05.2-.43 1.12c-.08.22-.07.41.03.56.1.15.26.24.49.28.46.08.94-.05 1.44-.4h.03l.01.03a.72.72 0 0 1-.1.26.06.06 0 0 0 0 .07c.01.02.03.03.06.03h1.77c.03 0 .05 0 .07-.02.04-.05.07-.1.08-.19 0-.04-.02-.06-.06-.07l-.29-.06c-.03-.01-.04-.03-.03-.06l.86-2.25-.01-.05a239.93 239.93 0 0 1-1.63-.03.6.6 0 0 0-.24.02c-.06.03-.09.1-.09.21 0 .04.02.06.05.07l.2.04c.03 0 .04.02.03.05-.06.2-.18.51-.35.96l-.02.05c-.1.28-.2.46-.27.55-.12.15-.3.23-.53.24-.03 0-.05-.01-.06-.03a.07.07 0 0 1-.01-.07 14.2 14.2 0 0 0 .54-1.42c.11-.27.18-.47.22-.61 0-.04 0-.06-.04-.06Zm22.64-.08c.12.11.22.22.3.33a4.28 4.28 0 0 1-.06 5.07c-.86 1.2-2.1 2.22-3.7 3.1a22.65 22.65 0 0 1-3.75 1.59c-1.8.58-3.58 1-5.37 1.25l-1.66.23a40.17 40.17 0 0 1-6.21.23v-.04a11.03 11.03 0 0 0 1.3-.09c1.23-.09 2.66-.31 4.3-.67 3.2-.71 6.12-1.8 8.77-3.28a16.36 16.36 0 0 0 5-4.04c.34-.44.62-.9.82-1.4a4.3 4.3 0 0 0 .35-1.6c0-.1-.02-.23-.07-.42l-.05-.25c0-.02 0-.03.03-.01Zm-3.23 2.42c-.04-.01-.05-.04-.04-.09.2-.56.42-1.19.64-1.88.06-.17.12-.33.2-.48a.08.08 0 0 0 0-.08c-.02-.02-.04-.05-.07-.05H42.79c-.09 0-.15 0-.19.02-.05.03-.09.09-.1.18 0 .03 0 .05.02.07.02.02.05.02.07 0 .07-.04.15-.01.24.1v.05l-.68 1.97c-.06.18-.17.28-.32.28-.03 0-.05.02-.05.06v.21c0 .04.02.06.05.06h1.99c.05 0 .08-.01.1-.03a.18.18 0 0 0 .1-.15.15.15 0 0 0-.1-.16 1.92 1.92 0 0 0-.2-.08Zm-8.7.3.26-.16c.03-.01.04 0 .03.03l-.04.06a19.04 19.04 0 0 1-.53 1.44c-.1.26-.28.39-.54.4-.06 0-.06-.03-.02-.07a.93.93 0 0 0 .31-.53.65.65 0 0 0-.56-.8.58.58 0 0 0-.44.15c-.22.2-.34.41-.34.65 0 .48.25.78.77.9.35.07.77.07 1.24-.03a2 2 0 0 0 .64-.25c.18-.1.35-.28.5-.52.13-.2.24-.44.32-.69.47-1.48.78-2.43.94-2.86.06-.18.13-.33.2-.44a.09.09 0 0 0 0-.08c-.02-.03-.04-.05-.07-.05H36.3c-.01 0-.03 0-.04.02l-.09.05a.06.06 0 0 1-.06.01l-.1-.03a.89.89 0 0 0-.28-.08c-.55-.01-1.02.1-1.42.36-.43.28-.74.69-.94 1.23-.07.2-.1.4-.08.59.02.2.1.38.22.52.15.17.34.28.58.34.24.07.46.06.67 0l.26-.16Zm.77-1.74.15-.43c.06-.16.01-.25-.15-.25h-.01c-.15-.04-.26.03-.36.22a8.1 8.1 0 0 0-.6 1.61c-.02.05-.01.09.02.12.02.04.06.05.1.05a.64.64 0 0 0 .47-.34c.11-.2.24-.52.38-.98Zm7.55 2.23c.22.3.13.73-.2.96-.32.23-.77.17-.98-.13-.22-.3-.14-.73.19-.96.33-.23.77-.17.99.13ZM23.9 31.34a.5.5 0 0 0 .44-.21c.07-.1.14-.13.21-.12.06.01.08.05.07.1-.03.14-.09.33-.18.58a.57.57 0 0 1-.25.3c-.01.02-.03.02-.04 0a.05.05 0 0 1-.03-.03c-.03-.18-.11-.3-.24-.37a.08.08 0 0 0-.07 0 .1.1 0 0 0-.06.06l-.31.95c-.02.03 0 .06.03.07l.14.06c.03.01.04.03.03.06a.35.35 0 0 1-.06.16c-.03.03-.08.05-.15.05h-1.28c-.04 0-.07-.02-.1-.06a.12.12 0 0 1 0-.12c.03-.05.1-.1.19-.13.12-.05.2-.12.23-.22a57.87 57.87 0 0 1 .73-2.18c-.01-.02-.03-.03-.05-.03h-.2c-.06 0-.08-.04-.05-.1l.02-.07c.02-.06.06-.09.11-.09h2.29c.02 0 .03 0 .04.03.01.02.02.04 0 .06l-.15.54a.64.64 0 0 1-.07.18c-.03.04-.06.06-.1.05-.06 0-.09-.03-.1-.08-.03-.09-.07-.2-.1-.35-.03-.08-.1-.14-.2-.16a1.25 1.25 0 0 0-.3-.02h-.07c-.03 0-.06.03-.07.06l-.33.99c0 .02 0 .04.03.04Zm6.15.15c.1.24.05.5-.13.76-.17.27-.44.47-.8.61a1.7 1.7 0 0 1-1 .1c-.32-.06-.53-.22-.63-.45-.1-.24-.05-.5.12-.76.18-.27.45-.47.8-.61a1.7 1.7 0 0 1 1-.1c.33.06.54.22.64.45Zm-.91-.24.02.12v.06c-.09.36-.25.79-.47 1.27-.05.11-.13.16-.25.13-.13-.04-.17-.11-.13-.23.1-.34.23-.68.38-1.04.04-.09.12-.19.24-.31l.09-.1a.09.09 0 0 1 .06-.03.1.1 0 0 1 .07.03c.02.01.01.04 0 .07-.01.01-.02.02-.01.03Zm-3.62 1.73c.31.05.6.02.89-.1.27-.1.5-.29.7-.54.2-.28.27-.56.2-.83-.07-.28-.3-.45-.7-.5a1.85 1.85 0 0 0-1.69.68c-.24.3-.3.58-.14.84.14.24.39.39.74.45Zm.44-.28a7.6 7.6 0 0 0 .5-1.32c.01-.13-.03-.21-.13-.25h-.06c-.1.08-.2.2-.26.36-.2.41-.34.8-.45 1.18-.03.12.02.18.13.18h.01c.12.01.2-.04.26-.15Zm6.6-.08c.04.04.1.06.16.08.08.01.1.05.05.12l-.03.06c-.04.07-.1.12-.17.12h-.96c-.12 0-.18-.08-.18-.2 0-.02 0-.04.02-.05l.13-.1c.02-.1 0-.12-.07-.04-.09.1-.18.2-.28.28-.12.1-.28.14-.47.08a.94.94 0 0 1-.44-.25.68.68 0 0 1-.19-.41.93.93 0 0 1 .08-.48 1.3 1.3 0 0 1 1.2-.82c.3 0 .42.01.59.2 0 .02.02.02.03.02.02 0 .03-.02.03-.03l.27-.81a.1.1 0 0 0 0-.07.08.08 0 0 0-.05-.05l-.14-.03c-.02 0-.03-.02-.03-.04 0-.12.06-.17.2-.17.32.02.64.01.96-.03.04 0 .06 0 .09.04a.1.1 0 0 1 0 .1l-.82 2.44.01.04Zm-1.26-.66c.06-.16.13-.32.22-.47.03-.06.08-.1.14-.14a.24.24 0 0 1 .18-.01c.14.01.18.08.13.21l-.28.67c-.04.1-.1.18-.18.26-.1.1-.2.13-.27.09-.07-.04-.1-.1-.09-.17a2.16 2.16 0 0 1 .15-.44Z" fill="#406AAC"/></svg>