<!-- by TradingView --><svg xmlns="http://www.w3.org/2000/svg" width="56" height="56" viewBox="0 0 56 56"><path fill="#F0F3FA" d="M0 0h56v56H0z"/><path d="m28.48 45.72.23-.13.24-.12.23-.1.24-.1.23-.1.24-.08.23-.07.24-.08.23-.06.24-.06.23-.05.24-.06.24-.04.23-.05.24-.04.24-.04.24-.04.24-.04.24-.04.24-.04.24-.04.25-.05.24-.05.24-.05.25-.05.24-.06.25-.07.25-.07.24-.08.25-.09.25-.1.28-.11.28-.13.28-.14.28-.14.28-.15.28-.16.28-.16.27-.18.27-.18.27-.2.27-.19.26-.2.26-.23.25-.22.24-.24.24-.24.23-.26.23-.26.21-.28.2-.28.2-.3.19-.3.17-.32.17-.32.15-.34.14-.34.12-.36.11-.37.1-.38.08-.39.06-.4.06-.43-.02-.52-.04-.47-.06-.45-.07-.43-.09-.41-.1-.4-.1-.38-.12-.37-.12-.36-.12-.34-.24-.67-.12-.32-.1-.33-.1-.32-.1-.31-.07-.32-.06-.33-.04-.33-.03-.34v-.35l.01-.36.04-.38.07-.4.1-.41.12-.44.16-.47.2-.5.23-.51.27-.55.32-.58.56-.94-.37-.37-.1-.1-.1-.11-.1-.11-.09-.12-.09-.11-.09-.12-.08-.12-.09-.12-.08-.12-.08-.13-.07-.13-.07-.13-.07-.13-.07-.14-.06-.14-.06-.14-.06-.14-.05-.15-.05-.15-.05-.15-.04-.16-.04-.16-.04-.16-.03-.16-.03-.17-.02-.17-.02-.17-.02-.17-.01-.18v-.18l-.02-.67-.97.02-.49-.01-.47-.02-.47-.04-.46-.04-.44-.06-.44-.07-.43-.08-.43-.09-.41-.1-.4-.11-.4-.13-.4-.13-.38-.14-.38-.16-.37-.16-.37-.17-.35-.18-.35-.2-.35-.2-.34-.2-.33-.22-.33-.22-.33-.24-.32-.24-.31-.25-.31-.25-.3-.26-.3-.27-.3-.28-.3-.28-.62-.63-.62.63-.3.28-.3.28-.3.27-.3.26-.3.25-.32.25-.32.24-.33.24-.32.22-.34.22-.34.2-.34.2-.36.2-.35.18-.37.17-.37.16-.38.16-.38.14-.4.13-.4.13-.4.11-.41.1-.42.1-.44.07-.44.07-.44.06-.46.04-.47.04-.47.02h-1.46l-.01.66v.18l-.02.18-.02.17-.02.17-.02.17-.03.17-.03.16-.04.16-.04.16-.04.16-.05.15-.05.15-.05.15-.06.14-.06.14-.06.14-.07.14-.07.13-.07.13-.07.13-.08.13-.08.12-.09.12-.08.12-.1.12-.08.11-.1.12-.1.1-.1.12-.1.1-.36.37.56.94.32.58.27.55.24.52.2.5.15.46.13.44.1.41.06.4.04.38.01.36v.35l-.03.34-.04.33-.06.33-.08.32-.08.31-.1.32-.11.33-.11.32-.12.33-.13.34-.12.34-.12.36-.11.37-.11.38-.1.4-.09.4-.07.44-.06.45-.04.47-.01.52.05.43.06.4.08.4.1.37.11.37.12.36.14.34.15.34.17.32.17.32.19.3.2.3.2.28.21.28.23.26.23.26.24.24.24.24.25.22.26.22.26.21.27.2.27.19.27.18.27.18.28.16.28.16.28.15.28.14.28.14.28.13.28.12.25.1.25.08.24.08.25.07.25.07.24.06.25.05.24.05.24.05.25.05.24.04.24.04.24.04.24.04.24.04.24.04.24.04.23.05.24.04.24.06.23.05.24.06.23.06.24.08.23.07.24.09.23.09.24.1.23.1.24.12.23.13.48.28.48-.28Z" fill="#008F33"/><path d="M28 45.45c2.67-1.62 5.24-1.2 7.73-2.21 2.87-1.21 6-3.57 6.41-7.8-.03-4.12-2.67-5.4-1.45-9.44H15.3c1.21 4.04-1.42 5.32-1.45 9.45.4 4.22 3.54 6.58 6.41 7.79 2.49 1 5.07.59 7.73 2.21Z" fill="#F0F3FA"/><path d="M28 45.45c2.54-1.54 5-1.24 7.37-2.08v-.96h-.8a6.8 6.8 0 0 0-1.09-2.6l.61-.62-1.76-1.77-.62.63a6.68 6.68 0 0 0-2.54-1.06V36H26.7v1c-.92.17-1.77.52-2.52 1.03l-.67-.68-1.76 1.77.66.66a6.8 6.8 0 0 0-1.08 2.53h-.93v.97c2.45.95 4.99.57 7.61 2.17Z" fill="#191717"/><path d="M28 45.45c1.74-1.06 3.44-1.25 5.1-1.53a5.22 5.22 0 0 0-5.17-5.46 5.2 5.2 0 0 0-5.17 5.43c1.7.3 3.45.47 5.24 1.56Z" fill="#F0F3FA"/><path d="m32.04 44.1.25-.05.02-.37a4.42 4.42 0 0 0-4.38-4.41 4.42 4.42 0 0 0-4.38 4.41c0 .12 0 .23.02.35l.25.04a4.16 4.16 0 0 1 4.11-4.55 4.17 4.17 0 0 1 4.13 4.16c0 .14 0 .28-.02.41Z" fill="#191717"/><path d="M28 45.45a9.98 9.98 0 0 1 3.4-1.24 3.53 3.53 0 0 0-3.48-4.07 3.53 3.53 0 0 0-3.47 4.04c1.17.22 2.35.54 3.55 1.27Z" fill="#191717"/><path d="M40.77 25.7H15.22c-.29-.99-.8-2.1-1.63-3.45a6.66 6.66 0 0 0 2.02-4.87c5.47.13 9.27-2.04 12.39-5.22 3.13 3.18 6.92 5.35 12.39 5.22.01 2.11.83 3.7 2.02 4.87a14.77 14.77 0 0 0-1.63 3.44Z" fill="#7AD1F0"/><path d="M22.36 25.71c2.53-3.17 4.4-5.69 6.05-8.97 4.08 1.97 8.96 4.34 13.15 7.01-.3.6-.45 1.14-.71 1.96H22.36Z" fill="#008F33"/><path d="M15.21 25.74c2.62-1.3 5.29-3.1 6.26-5.81l3.22 2.95-2.25 2.86h-7.23Z" fill="#008F33"/><path d="M17.5 19a1.5 1.5 0 1 1 0 3 1.5 1.5 0 0 1 0-3ZM35.39 10l.56 1.74h1.81L36.3 12.8l.56 1.74-1.46-1.08-1.47 1.08.57-1.74-1.47-1.07h1.81L35.4 10ZM20.61 10l.56 1.74h1.81l-1.47 1.07.57 1.74-1.47-1.08-1.47 1.08.57-1.74-1.47-1.07h1.81l.56-1.74Z" fill="#E30014"/><path d="M24.3 34.13v.08c-.1 0-.17.02-.2.05-.04.03-.06.1-.06.2v.36c-.07.05-.18.09-.34.13-.16.03-.31.05-.44.05-.35 0-.61-.1-.8-.3a.96.96 0 0 1-.26-.69.98.98 0 0 1 1.03-1.01c.09 0 .18.01.27.04l.3.1a.1.1 0 0 0 .08-.04l.05-.1H24v.67h-.08a1.05 1.05 0 0 0-.25-.38.6.6 0 0 0-.42-.2c-.2 0-.35.1-.44.28-.07.15-.1.36-.1.64s.04.5.14.66c.1.16.24.23.42.23.13 0 .2-.01.25-.05.04-.03.06-.08.06-.15v-.3c0-.08-.02-.13-.07-.16a.53.53 0 0 0-.23-.03v-.08h1Zm1.18.8V35h-1.02v-.07c.1 0 .16-.01.2-.03.05-.03.08-.09.08-.17v-1.45c0-.08-.03-.14-.09-.16a.58.58 0 0 0-.19-.04V33h1.02v.08a.45.45 0 0 0-.19.03c-.05.03-.08.08-.08.17v1.45c0 .06.01.11.04.14.04.04.11.06.23.06Zm2.08 0V35h-.95v-.07c.1 0 .15 0 .19-.02.03-.01.04-.04.04-.09 0-.03-.01-.1-.04-.18l-.09-.2h-.66a12.14 12.14 0 0 0-.13.37c0 .04.02.07.06.1l.18.02V35h-.59v-.07a.26.26 0 0 0 .17-.1c.03-.03.07-.1.12-.23l.65-1.6h.08l.65 1.54a2 2 0 0 0 .15.3c.04.06.1.1.15.1h.02Zm-1.46-.6h.56l-.29-.73-.27.74Zm4.17.03-.12.64h-1.69v-.07l.2-.04c.03-.03.06-.08.06-.16v-1.45c0-.09-.03-.14-.08-.17a.48.48 0 0 0-.18-.04V33h1.02v.07c-.11 0-.19.01-.22.04-.05.03-.07.1-.07.22v1.42c0 .07.01.11.05.13.03.02.1.03.2.03.2 0 .37-.05.49-.15.1-.08.18-.22.25-.4h.09Zm2.09.57V35h-.95v-.07c.1 0 .16 0 .19-.02.03-.01.05-.04.05-.09l-.05-.18-.09-.2h-.66a11 11 0 0 0-.12.37c0 .04.01.07.05.1l.18.02V35h-.58v-.07a.26.26 0 0 0 .16-.1c.03-.03.07-.1.12-.23l.65-1.6h.08l.65 1.54.15.3c.04.06.1.1.16.1Zm-1.46-.6h.57l-.3-.73-.27.74Zm2.66.6V35h-1.02v-.07c.1 0 .16-.01.2-.03.05-.03.07-.09.07-.17v-1.45c0-.09-.03-.14-.08-.17a.57.57 0 0 0-.2-.04V33h1.03v.07c-.09 0-.15.01-.19.03-.06.03-.09.09-.09.17v1.46c0 .06.02.11.05.14.03.04.11.06.23.06Z" fill="#009CDE"/><path d="M21 29.18v2.78l-.84.23v-1.16c-.09.02-.24.04-.32.07v1.17l-.84.28v-2.79l.84-.27v1l.32-.08v-1l.84-.23Zm2.14 1.17c0 .27-.01.47-.03.6a.7.7 0 0 1-.14.33c-.08.11-.2.2-.33.28a1.65 1.65 0 0 1-.93.2.58.58 0 0 1-.34-.15.46.46 0 0 1-.15-.28l-.02-.6v-.47c0-.27 0-.47.02-.6a.79.79 0 0 1 .15-.34c.08-.12.18-.22.32-.3a1.52 1.52 0 0 1 .94-.2c.14.03.25.09.33.17a.5.5 0 0 1 .15.3c.02.1.03.3.03.59v.47Zm-.84-.76a.7.7 0 0 0-.03-.25c-.01-.03-.05-.04-.1-.03a.15.15 0 0 0-.1.07c-.02.03-.03.12-.03.26v1.29c0 .16 0 .26.02.3.01.03.05.04.1.03.06-.01.1-.04.12-.09.01-.05.02-.15.02-.31v-1.27Zm2.59-1.08.24 1.36.24 1.36-.86.07-.04-.49-.3.04-.05.5-.87.12.22-1.41.2-1.4 1.22-.15Zm-.44 1.82a12 12 0 0 1-.07-.5l-.06-.65a26.33 26.33 0 0 0-.16 1.18c.1 0 .2-.02.29-.03Zm2.97-1.95v2.75l-.73.02-.22-.62-.22-.61v1.25l-.7.04v-2.75l.7-.05.24.61.23.62v-1.25l.7-.01Zm2.26 1.05-.84-.03V28.94c-.01-.1-.06-.14-.13-.15-.07 0-.12.04-.13.12V30.61c.02.08.06.12.13.12.08 0 .13-.04.15-.12v-.53h-.16v-.42c.33 0 .65.02.98.04v1.47l-.53-.02a8.5 8.5 0 0 1-.07-.2c-.12.17-.3.25-.53.24a.97.97 0 0 1-.38-.08.72.72 0 0 1-.29-.23.72.72 0 0 1-.13-.34l-.02-.35v-.82c0-.26.02-.42.04-.5.04-.17.14-.3.3-.4.16-.1.36-.15.6-.14.21 0 .4.04.56.11.19.09.32.2.38.35.05.12.07.3.07.52v.12Zm2.53-.77.23 1.41.24 1.42a35.2 35.2 0 0 0-.85-.13l-.05-.5-.3-.03-.04.49-.87-.09.21-1.36.21-1.35c.4.04.81.08 1.22.14Zm-.45 1.71a13.17 13.17 0 0 1-.12-1.17 18.72 18.72 0 0 0-.16 1.14l.28.03Zm2.98-1.23V31.91l-.74-.17-.21-.67-.22-.68v1.26l-.7-.13v-2.76l.7.12.23.67.24.68v-1.25l.7.16Zm2.26.68v2.79l-.84-.29v-1.17l-.3-.1v1.17l-.86-.24V29.2c.28.07.57.15.85.24v.99l.31.1v-.99l.84.28Z" fill="#E30014"/><path d="M15.16 25.7a17.1 17.1 0 0 0 3.9-2.64 8.17 8.17 0 0 0 2.22-3.33l.08-.23.17.17 3.24 3.08-.21.24-3.07-2.92a8.59 8.59 0 0 1-2.23 3.24A17.4 17.4 0 0 1 15.3 26l-.14-.3Z" fill="#F0F3FA"/><path d="M22.05 25.79a46.09 46.09 0 0 0 3.35-4.4 38.37 38.37 0 0 0 2.78-4.93l.07-.14.14.07c2.4 1.16 4.7 2.38 6.92 3.61 2.2 1.23 4.25 2.49 6.28 3.71l-.16.28c-2.03-1.22-4.07-2.48-6.27-3.7a131.1 131.1 0 0 0-6.76-3.54c-.81 1.7-1.74 3.3-2.75 4.82A46.4 46.4 0 0 1 22.3 26l-.24-.21Z" fill="#F0F3FA"/><path d="M28.47 25.74a12 12 0 0 0 2.06-2.05 10 10 0 0 0 1.34-2.27l.06-.15.14.06 8.84 3.96-.12.3-8.7-3.9c-.33.77-.77 1.5-1.32 2.2-.57.75-1.27 1.45-2.1 2.11l-.2-.26Z" fill="#F0F3FA"/></svg>