<!-- by TradingView --><svg width="56" height="56" viewBox="0 0 56 56" xmlns="http://www.w3.org/2000/svg"><path fill="#F0F3FA" d="M0 0h56v56H0z"/><path fill-rule="evenodd" d="M32.38 37.57a.15.15 0 0 1-.13 0c-.07-.02-.07-.05 0-.09 4.37-2.27 9.34-6.54 10.28-11.67a7.22 7.22 0 0 0-3.19-7.72c-.98-.65-1.82-1.1-2.52-1.32a15.64 15.64 0 0 0-3.32-.69c-.03 0-.04-.02-.03-.05 0-.02.01-.03.04-.03 2.96.16 5.36.84 7.22 2.03a6.67 6.67 0 0 1 3.25 6.47 8.94 8.94 0 0 1-1.01 3.6c-.78 1.49-1.6 2.71-2.44 3.68a23.8 23.8 0 0 1-8.2 6.07c-.02.01-.03 0-.04-.01v-.05c.1-.06.14-.11.15-.17 0-.06-.01-.07-.06-.05Zm-7.49-19.96c.01.02.03.05.07.07.03.02.06.02.1.01l1.17-.42c.03 0 .05 0 .05.03v.07c-2.19.74-4.2 1.64-6.02 2.7a20.76 20.76 0 0 0-5.6 4.73c-1.8 2.18-2.77 4.38-2.92 6.6-.08 1.2.06 2.27.43 3.2a7.55 7.55 0 0 0 2.95 3.56c1.3.88 2.76 1.45 4.37 1.71.04 0 .06.03.05.07l-.01.05-.02.01a14.4 14.4 0 0 1-2.76-.5l-1.23-.44a8.44 8.44 0 0 1-4.54-3.61c-2.62-4.21.53-9.07 3.45-11.97 1.7-1.68 3.66-3.1 5.88-4.27 2.1-1.11 4.25-1.94 6.41-2.5.02 0 .04 0 .05.03l.02.06-1.86.72c-.05.02-.06.05-.04.09Zm.02 18.65-1.77.74c-.03 0-.14 0-.14-.04V30.1c0-.19-.02-.33-.2-.24-.62.3-1.22.56-1.8.77-.1.03-.17.08-.19.14a.24.24 0 0 0 0 .18c.03.07.04.13.04.2l-.07 2.61c0 .15-.1.24-.27.27l-.31.07c-.15.03-.2-.04-.2-.19v-2.48c0-.1-.07-.18-.15-.24a.26.26 0 0 0-.26-.04l-3.38 1.24c-.09.04-.14 0-.17-.08a.9.9 0 0 1 0-.58.23.23 0 0 1 .15-.13l3.62-1.33c.08-.03.19-.1.19-.18v-2.3c0-.28.06-.47.32-.57l.23-.08c.18-.07.28 0 .28.2v2.3c0 .05.01.09.05.12.04.02.08.03.13.01l1.93-.7c.08-.04.08-.09.07-.16l-.01-.1v-.6c.02-2 .03-3.98 0-5.94l.03-.06c.03-.04.06-.1.07-.16a.28.28 0 0 0-.05-.2.22.22 0 0 1-.04-.2.22.22 0 0 1 .14-.15l1.66-.7c.05-.02.1-.01.13.02.05.03.06.07.06.12v7.13c0 .07.04.1.1.07l1.47-.45c.03-.01.05-.03.05-.07.08-2.54 1.09-4.57 3.6-5.78.83-.4 1.63-.45 2.42-.16.8.28 1.37.85 1.72 1.7.02.06 0 .1-.05.14a.69.69 0 0 1-.35.13.17.17 0 0 1-.16-.09c-2.66-4.17-6.53 1.56-6.2 3.59 0 .03.01.06.04.08.02.03.05.03.08.02l9.1-3.37c.12-.04.18 0 .18.12v.46c0 .14-.06.23-.2.28l-2.26.83c-.15.05-.22.16-.22.33v3.69c0 .25-.13.4-.37.43-.76.1-1.25.44-1.76.8-.35.24-.7.49-1.16.66-.4.16-.84.25-1.32.27a2.3 2.3 0 0 1-1.34-.26 3.3 3.3 0 0 1-1.7-2.58c-.02-.25-.14-.33-.37-.25l-.96.27c-.18.07-.34.21-.34.4v6.8c0 .06-.03.1-.1.13Zm2.77-8.06-.04-.04c-.05-.03-.05-.08-.02-.15.03-.06.08-.1.16-.13L32.86 26c.1-.03.14 0 .14.1v2.4c0 .12-.04.22-.13.3-.18.15-.34.32-.5.51a3.43 3.43 0 0 1-1.87 1.21 2 2 0 0 1-2.04-.59 2.74 2.74 0 0 1-.75-1.66c0-.04-.01-.07-.03-.08Z" fill="#7F0503"/></svg>