<!-- by TradingView --><svg width="56" height="56" viewBox="0 0 56 56" xmlns="http://www.w3.org/2000/svg"><path fill="#F0F3FA" d="M0 0h56v56H0z"/><path d="M20.75 23.94c.11-1-.12-1.09-.7-.27-3.05 4.34-3.42 8.76-1.1 13.28.84 1.65 2.1 3.1 3.76 4.33 1.6 1.18 3.32 2 5.2 2.48.02.01.03.03.02.06a.27.27 0 0 1-.06.13.16.16 0 0 1-.12.05c-2.41-.1-4.6-.73-6.6-1.92a12.57 12.57 0 0 1-4.5-4.52A11.8 11.8 0 0 1 15 31.45c0-2.32.65-4.55 1.94-6.7.5-.83 1.4-1.95 2.72-3.36l1.42-1.48a59.5 59.5 0 0 0 4-4.44 14.13 14.13 0 0 0 2.67-4.96c.18-.67.38-.68.61-.03a20.52 20.52 0 0 0 3.2 5.64c.91 1.17 2.5 2.94 4.77 5.32L38 23.2c1.8 1.91 2.78 4.22 2.96 6.92.37 5.55-2 9.28-7.12 11.18a11.42 11.42 0 0 1-8.41.02c-4.38-1.73-6.76-5.16-7.13-10.29-.04-.55.05-1.17.27-1.85.05-.15.11-.2.2-.15 0 .02.05.04.1.09.04.03.06.07.06.12-.06 2.85.94 5.4 3 7.62.4.43.78.41 1.14-.05 2.13-2.7 1.82-5.75-.94-9.13-1.05-1.29-1.5-2.54-1.38-3.74Z" fill="#036EB7"/></svg>