<!-- by TradingView --><svg width="56" height="56" viewBox="0 0 56 56" xmlns="http://www.w3.org/2000/svg"><path fill="#F0F3FA" d="M0 0h56v56H0z"/><path d="M29.31 14c.16.07.26.09.3.05.05-.05.06-.1.04-.17a.15.15 0 0 0-.14-.1c-1.5-.14-2.8-.07-3.9.2-.42.1-.8.27-1.13.51-.09.07-.17.06-.22-.04l-.05-.08c-.03-.05-.02-.1.04-.13l2.01-1.28c.02 0 .02-.02.01-.04l-.03-.06-.03-.01c-.38.14-.77.24-1.16.28-.38.05-.78.26-1.21.63-.2.18-.24.15-.1-.09.11-.18.3-.33.58-.45 1.5-.67 2.4-1.04 2.7-1.1 1.48-.32 3.02.01 4.63 1 .62.38.83.96.63 1.75a.1.1 0 0 1-.07.08.1.1 0 0 1-.1-.03 3.06 3.06 0 0 0-.34-.34c-.32-.27-.45-.22-.38.12.02.06-.02.1-.11.15a.25.25 0 0 1-.22 0L29.3 14Z" fill="#E98024"/><path d="M29.31 14a1.9 1.9 0 0 0-.3.1c-.12.05-.1.1.07.14.1.03.18.09.23.17.05.07.03.12-.06.13l-3.42.46c-.13.01-.2-.04-.22-.17a.65.65 0 0 1 .06-.38.29.29 0 0 0 .02-.2l-.09-.27c1.12-.27 2.42-.34 3.9-.2.08 0 .12.04.15.1.02.07 0 .12-.04.17-.04.04-.14.02-.3-.05Z" fill="#FFCB06"/><path d="m20.37 19.1-.69 1.13a6.02 6.02 0 0 0-2.23 2.86c-.28.89-.5 1.78-.64 2.7a8.1 8.1 0 0 0 1.23 6.02c.17.16.4.5.68 1.03.77 1.41 1.9 2.63 3.42 3.66.4.27.8.52 1.22.76l-.27.14c-.08.04-.09.1-.02.15a3.05 3.05 0 0 0 1.25.39c.22.06.21.12-.01.16-.84.18-1.65.14-2.44-.11a11.2 11.2 0 0 1-5.48-3.67 10.8 10.8 0 0 1-2.38-7.26 10.7 10.7 0 0 1 3.68-7.95c.34-.3.95-.67 1.85-1.12.27-.14.45-.23.55-.3.45-.24.98-.45 1.6-.62.43-.1.98-.28 1.67-.5a.44.44 0 0 1 .23-.02c.42.08.82.08 1.21-.02.1-.03.12 0 .06.09a.3.3 0 0 1-.2.1c-1.39.23-2.73.73-4.03 1.49-.38.22-.8.55-1.26.97l-.32.3a7.6 7.6 0 0 0-1.68 1.86c-.04.08-.02.1.07.07.1-.05.3-.23.6-.54.5-.53 1.27-1.12 2.33-1.76Z" fill="#81B43B"/><path d="m26.12 20.7.48.43c-.45.19-.83.44-1.13.74-.27-.02-.48.04-.63.16a8.24 8.24 0 0 0-1.6 1.9 5.47 5.47 0 0 0-.85 3.05c0 1.04.2 2.08.63 3.13.27.66.5 1.14.67 1.46.28.48.58.83.9 1.04.88.58 1.74.98 2.6 1.19.25.06.26.15.04.29-.53.32-1.22.57-2.07.75a.08.08 0 0 0-.06.05l-.02.05c-.02.07 0 .1.07.1.43.03.73.15.92.38-.12.24-.24.34-.36.3-.44-.14-.5-.06-.16.26.24.25.59.43 1.04.55.1.03.18.1.2.21.03.11 0 .2-.1.28-1 .84-2.1.92-3.33.24a16.5 16.5 0 0 1-1.22-.76 10.48 10.48 0 0 1-3.42-3.66 4.3 4.3 0 0 0-.68-1.03l-.14-1.25c-.01-.12.03-.14.14-.05l.34.3c.22.18.29.13.21-.16-1.09-4-.73-7.47 1.1-10.42l.68-1.12 2.9-1.66a.5.5 0 0 1 .22-.07 3.73 3.73 0 0 0 1.84-.59c.1-.06.19-.06.28 0 .09.08.1.16.05.25l-.06.1a.22.22 0 0 1-.12.1l-1.04.38c-.03.02-.03.04-.02.06l.04.06c.02.04.04.05.08.04l.53-.2c.72-.3 1.23-.4 1.53-.3.33.11.33.23 0 .34l-.54.17c-.72.22-1.19.44-1.39.64-.17.18-.45.42-.83.71a7.4 7.4 0 0 0-.96.85c-.03.03-.03.06 0 .1.02.04.05.05.1.03l.23-.09c.05-.02.1 0 .14.03.04.04.06.08.05.13 0 .03-.01.06-.04.09-.43.5-.74 1.05-.93 1.65-.15.5 0 .61.45.36.25-.14.63-.52 1.13-1.13.17-.2.34-.23.5-.06.05.06.11.09.19.1.53.01 1-.15 1.42-.5Z" fill="#0170BF"/><path d="M33.86 17.4c1.31.11 2.53.6 3.64 1.45a10.96 10.96 0 0 1 3.8 12.74 12.08 12.08 0 0 1-3.04 4.54c-.29.27-1 .85-2.13 1.73-.78.6-1.6 1.09-2.48 1.46a.41.41 0 0 1-.23.03l-.39-.05c-.02 0-.03-.02-.02-.03v-.02h.04c.26.02.43 0 .5-.04a16.96 16.96 0 0 0 3.7-2.75c.34-.36.95-1.13 1.84-2.33a.06.06 0 0 0 0-.07l-.04-.08c-.03-.05-.06-.05-.1 0a8.95 8.95 0 0 1-1.77 1.97c-.42.33-1.08.84-1.98 1.5-.65.5-1.36.93-2.13 1.3-.04.01-.07 0-.08-.03l-.03-.06a15.96 15.96 0 0 0 5.22-4.23 10.57 10.57 0 0 0 2.23-5.34c.01-.05-.01-.07-.06-.06h-.07v.02a9.95 9.95 0 0 1-3 5.43c-.24.23-.57.47-.97.71l-.72.47c-.55.36-1 .62-1.35.78-.29.12-.62.3-1 .55a.5.5 0 0 1-.2.07l-1.02.14c-.1.01-.12-.02-.08-.1.04-.11.14-.18.29-.21a.5.5 0 0 0 .2-.1 28.7 28.7 0 0 0 2.76-2.2 7.22 7.22 0 0 0 1.44-2.68 15.47 15.47 0 0 0 1.08-5.63c0-1.33-.3-2.98-.9-4.95a3.91 3.91 0 0 0-.93-1.72 16.2 16.2 0 0 0-2.16-1.7.14.14 0 0 1-.07-.13c0-.05.02-.09.07-.1.08-.04.12-.13.14-.28Z" fill="#FFCB06"/><path fill-rule="evenodd" d="M25.15 35.05c.43.02.73.14.92.37.22-.1.55-.18.98-.25a4.32 4.32 0 0 0 1.28-.38 4.93 4.93 0 0 0 1.48-.8 8.16 8.16 0 0 0 2.04-4.71c.11-1.23 0-2.64-.36-4.24l-.07-.3A5.44 5.44 0 0 0 30.8 23a7.75 7.75 0 0 0-2.58-2.52c-.72-.43-1.42-.35-2.1.22l.5.43c.19 0 .33.08.42.24.05.08.02.12-.06.14l-1.5.36c-.27-.02-.47.04-.63.16a8.24 8.24 0 0 0-1.6 1.9 5.47 5.47 0 0 0-.85 3.05c0 1.04.2 2.08.63 3.13.27.66.5 1.14.67 1.46.28.48.58.83.9 1.04.88.58 1.74.98 2.6 1.19.25.06.26.15.04.29-.53.32-1.22.57-2.07.75a.08.08 0 0 0-.06.05l-.02.05c-.02.07 0 .1.07.1Zm.6-10.3c-.06.07-.19.07-.28-.01-.1-.08-.12-.2-.06-.27s.18-.07.28.01c.09.08.12.2.06.27Zm1.46 3.17c0-.48-.05-.93-.18-1.35-.02-.08-.05-.2-.06-.36a1.5 1.5 0 0 0-.1-.46c-.05-.1-.09-.1-.1.02-.01.07 0 .18.06.33.1.3.18.76.24 1.4a16.28 16.28 0 0 0 .04.42l.06.03c.03.01.04 0 .04-.03Zm1.36 3.93c.01-.02.03-.02.05 0 .14.14.1.32-.13.55l-.06.07c-.23.23-.41.28-.55.15v-.01c-.03-.02-.03-.04 0-.05l.69-.71Z" fill="#A82024"/><path fill-rule="evenodd" d="M33.72 17.67c.07-.03.12-.12.14-.27a7.5 7.5 0 0 0-1.98-1.14 3.2 3.2 0 0 0-2.3-.1c-.5.18-.48.35.02.48.31.09.71.25 1.18.48.06.03.06.05 0 .07-.87.24-1.93.42-3.2.52-.13.01-.2.08-.2.2 0 .08.03.15.1.2l.49.33c.77.49 1.22.92 1.36 1.29.03.07.08.13.14.17l.23.13c.78.46 1.34.81 1.66 1.06.53.41.89.84 1.08 1.27.54 1.21.84 2.25.9 3.11.13 1.57.02 3.2-.3 4.9-.14.74-.67 1.64-1.6 2.7-.25.28-.42.49-.5.6-.4.53-.91.99-1.56 1.37-.4.24-1.02.53-1.86.89l-.76.32c-.03.02-.04.04-.02.08l.03.05c.01.03.04.03.06.02.87-.34 1.7-.59 2.48-.73.2-.04.48-.14.83-.3.25-.12.45-.2.58-.25.06-.02.1 0 .1.06l.02.1c0 .02-.01.05-.04.06-.4.24-.74.5-.99.74-.3.3-.78.62-1.46.95l-.74.39c-.37.2-.96.44-1.77.7l-.84.3c-.15.06-.22.13-.22.22 0 .1.04.12.11.05.19-.19.56-.32 1.12-.4l.42-.08c.14-.03.15 0 .05.1-.11.1-.2.16-.24.17-.63.25-1.04.47-1.25.65-.33.3-.28.44.17.44h.92c.08 0 .14.04.19.1.23.3.55.45.95.45.1-.07.26-.08.48-.04.21-.08.4-.1.59-.04.07.02.11.08.12.15a18 18 0 0 1-.27 4.07c-.08.57-.14.98-.16 1.22-.05.46-.13.88-.25 1.25-.18.6-.3 1-.38 1.22 0 .02 0 .04.02.05.02 0 .03 0 .04-.02a13.58 13.58 0 0 0 1.47-5.18c0-.01.01-.03.04-.03.02-.02.04 0 .04.03.02 1.14-.1 2.26-.4 3.36 0 .03 0 .05.03.06l.07.02.02-.01c.66-2.1.76-4.2.3-6.27-.02-.1.02-.15.11-.17l1.95-.26c.08 0 .12-.05.12-.14-.01-.42-.14-.74-.38-.95a3.04 3.04 0 0 0-.9-.44l-.28-.1c-.25-.1-.25-.18 0-.24.1-.02.24.02.43.11a.2.2 0 0 0 .2 0c.51-.3.92-.52 1.23-.65.51-.2 1.17-.64 1.97-1.32.34-.29.6-.5.8-.65a6.2 6.2 0 0 0 1.19-1.45l1.2-1.8a15.47 15.47 0 0 0 1.08-5.62c0-1.33-.3-2.98-.89-4.95a3.91 3.91 0 0 0-.94-1.72 16.2 16.2 0 0 0-2.15-1.7.14.14 0 0 1-.07-.13c0-.05.02-.09.07-.1ZM30.5 37.33c.3-.15.54-.3.52-.34-.02-.04-.28.05-.59.2-.3.16-.54.32-.52.35.02.04.29-.05.6-.2Zm-1.07.08c-.33.27-.7.32-1.1.16-.04-.02-.06-.05-.06-.09a2 2 0 0 1 .01-.06c0-.02.02-.04.04-.03.47.03.95-.05 1.46-.24.1-.04.12-.02.04.06a.38.38 0 0 1-.22.12.37.37 0 0 0-.17.08Z" fill="#E98024"/><path d="m27.7 40.08-.03.92c-.17-.05-.25.04-.27.28-.13-.01-.2.04-.22.16-.2.97-.58 1.85-1.17 2.65-.07.1-.11.1-.13-.03a.43.43 0 0 1 .1-.32c.07-.1.1-.2.1-.3a.18.18 0 0 1 .08-.18c.1-.06.17-.18.2-.35.04-.2.07-.32.1-.37.32-.76.58-1.57.76-2.42.1-.07.26-.08.48-.04Z" fill="#FFCB06"/><path d="M27.67 41c.2.87.1 1.77-.3 2.7-.64 1.53-1.3 2.56-1.95 3.1a.07.07 0 0 1-.08.01.07.07 0 0 1-.05-.07c.02-.39.14-.78.37-1.18.56-.95.94-1.66 1.14-2.13a8.3 8.3 0 0 0 .6-2.15c.02-.24.1-.33.27-.28Z" fill="#E98024"/></svg>