<!-- by TradingView --><svg width="56" height="56" viewBox="0 0 56 56" xmlns="http://www.w3.org/2000/svg"><path fill="#F0F3FA" d="M0 0h56v56H0z"/><path d="M27.87 18.14v3.11c0 .03 0 .04-.03.04a29.77 29.77 0 0 1-6.5-.75 25.55 25.55 0 0 1-6.27-2.32c-.05-.03-.07-.05-.07-.07 0-.03.02-.06.07-.08a25.57 25.57 0 0 1 6.28-2.32c2.1-.49 4.26-.74 6.49-.75.02 0 .04.01.04.04l-.01 3.1ZM40.99 18.13c0 .02-.02.04-.07.07a25.52 25.52 0 0 1-6.27 2.33c-2.1.49-4.26.74-6.48.76-.03 0-.04-.01-.04-.04a343.52 343.52 0 0 0-.01-6.2c0-.03 0-.04.03-.04 2.23 0 4.39.25 6.49.73 2.24.51 4.33 1.28 6.28 2.31.05.03.07.05.07.08Z" fill="#00BFF3"/><path d="M10.2 28.16c-1.13 4.61 1.9-7.76.08-.3H8.03c-.02 0-.03-.01-.03-.03l.02-.33a7.12 7.12 0 0 1 .17-1.25 7.46 7.46 0 0 1 .72-2.07 7.14 7.14 0 0 1 .91-1.61 22.97 22.97 0 0 1 1.3-1.53l.43-.44a18.1 18.1 0 0 1 2.55-1.95l.6-.3a.09.09 0 0 1 .08 0 25.36 25.36 0 0 0 7.64 2.71c2.69.49 5.36.62 8.03.4 2.74-.22 5.35-.8 7.83-1.75 1.02-.4 2-.85 2.94-1.37.05-.03.1-.03.15 0 1.05.6 2.02 1.3 2.92 2.12a12.14 12.14 0 0 1 2.75 3.58 8.36 8.36 0 0 1 .94 3.5l.02.26c0 .04-.02.06-.06.06h-5.56c-.05 0-.08.02-.08.08v.12c0 .05.03.08.08.08h5.57c.03 0 .05.01.05.05a9.15 9.15 0 0 1-1.33 4.46 9.07 9.07 0 0 1-1.3 1.77c-.19.22-.3.34-.3.36-.6.63-1.3 1.24-2.09 1.83-.22.16-.41.28-.58.36-.13.06-.26.14-.39.25a4.3 4.3 0 0 1-.64.43.15.15 0 0 1-.15 0 25.88 25.88 0 0 0-7.63-2.69c-3.53-.67-7.07-.7-10.63-.11a24.9 24.9 0 0 0-8.23 2.83.05.05 0 0 1-.06 0 15.36 15.36 0 0 1-4.4-3.69 10.5 10.5 0 0 1-1.68-2.83A9.23 9.23 0 0 1 8 28.17c0-.02.01-.03.04-.03h2.04c.03 0 .07 0 .12.02Z" fill="#00BFF3"/><path fill-rule="evenodd" d="m30.96 28.75-.51 2.2c0 .04-.03.05-.05.05h-1.56c-.04 0-.05-.02-.04-.05l1.37-5.92c0-.02.01-.02.03-.03l1.92.01c.32 0 .66.06 1.01.15.52.14.85.45 1 .95.19.69.08 1.31-.33 1.86-.2.26-.45.45-.74.57-.24.1-.55.15-.92.15-.47.01-.85.02-1.13.01-.02 0-.04.02-.05.05Zm.2-.87.48-2.07c0-.03.03-.05.06-.05l.39.03c.53.07.82.38.87.94.03.29-.06.54-.25.75-.2.2-.44.34-.71.4-.17.03-.44.05-.81.04-.03 0-.04-.02-.03-.04Zm-20.88-.06-.08.32-.65 2.81c0 .03 0 .05.04.05h1.56c.03 0 .05-.02.06-.05l.57-2.52c.01-.04.05-.07.09-.07h2.77l.01.02-.6 2.56c0 .04 0 .06.04.06h1.54c.04 0 .07-.02.08-.07l1.36-5.88c0-.03 0-.05-.03-.05h-1.56c-.03 0-.06.02-.06.05l-.43 1.88c-.01.05-.04.07-.08.07h-2.74c-.03 0-.04-.02-.03-.05l.43-1.9c0-.03 0-.05-.04-.05h-1.55c-.03 0-.06.02-.06.06l-.64 2.76ZM46 26.94l-.01-.05a2.93 2.93 0 0 0-2.34-1.84c-.8-.13-1.53 0-2.2.4a2.9 2.9 0 0 0-1.36 1.82c-.18.69-.1 1.37.24 2.03.32.64.8 1.11 1.43 1.4a3.14 3.14 0 0 0 2.76-.04c.31-.15.6-.38.85-.7.23-.27.43-.52.58-.88v-.05A663.47 663.47 0 0 1 44.5 29c-.08 0-.13 0-.15.03a2 2 0 0 1-.9.46c-.37.11-.7.1-1.02-.02a1.5 1.5 0 0 1-.98-1.25c-.08-.5.06-.94.42-1.32a1.69 1.69 0 0 1 1.27-.5c.47.01.88.12 1.23.52.03.04.07.07.12.07h1.46c.03 0 .04-.03.04-.06ZM25.9 31h-1.56c-.04 0-.05-.02-.04-.05l1.37-5.92c0-.02.01-.03.04-.03h1.56c.04 0 .05.02.04.05l-1.36 5.92c0 .02-.02.03-.04.03Zm-7.85-1h3.9c.03 0 .05.01.05.04l.23.9c.01.04.03.06.07.06h1.55c.03 0 .05-.02.04-.05l-1.36-5.87c-.01-.05-.04-.08-.1-.08h-1.51a.14.14 0 0 0-.11.06l-4.67 5.89v.03c0 .01.01.02.03.02h.86c.05 0 .08-.02.1-.05l.8-.89a.16.16 0 0 1 .12-.06Zm1.06-1.43h2.53c.02 0 .04-.02.03-.05l-.57-2.44a.03.03 0 0 0-.03-.03c-.01 0-.02 0-.03.02l-1.96 2.44v.04l.03.02ZM33.27 31h-.9c-.02 0-.03 0-.03-.02v-.04l4.7-5.93.02-.01h1.62c.02 0 .03 0 .03.03l1.37 5.92c.01.03 0 .05-.03.05h-1.58c-.02 0-.03-.01-.03-.03l-.25-.94c0-.02-.02-.03-.03-.03h-3.97l-.03.01-.86.98-.03.01Zm4.58-2.46h-2.57l-.02-.01v-.03l1.99-2.5c0-.01.01-.02.02-.01l.02.01.58 2.51c0 .02 0 .03-.02.03Z" fill="#ED1C24"/><path d="M14.98 37.85c0-.02.03-.05.07-.07a25.58 25.58 0 0 1 6.29-2.33c2.1-.48 4.27-.73 6.5-.75.02 0 .03.02.03.04a328.92 328.92 0 0 0 0 6.22c0 .03 0 .04-.03.04-2.23-.02-4.4-.27-6.5-.75a25.57 25.57 0 0 1-6.29-2.32c-.04-.03-.07-.05-.07-.08ZM41 37.86c0 .03-.03.05-.07.08a25.53 25.53 0 0 1-6.29 2.32c-2.1.48-4.26.73-6.48.74-.03 0-.04-.01-.04-.04a324.73 324.73 0 0 0 0-6.21c0-.03.02-.04.04-.04 2.23.02 4.39.27 6.49.75 2.24.52 4.33 1.3 6.28 2.33.04.02.07.05.07.07Z" fill="#00BFF3"/></svg>