<!-- by TradingView --><svg width="56" height="56" viewBox="0 0 56 56" xmlns="http://www.w3.org/2000/svg"><path fill="#F0F3FA" d="M0 0h56v56H0z"/><path d="M31 19.8a8.87 8.87 0 0 1-1.53 1.06c-.22.1-.38.14-.47.14-.28 0-.4-.1-.65-.35v-.02c-.26-.25-.64-.63-1.35-.63-.3 0-.6.1-.86.2a5.04 5.04 0 0 0-1.03.62c-.06-.2-.1-.4-.11-.61.24-.22.56-.5.91-.73.22-.15.43-.27.63-.36.2-.09.35-.12.46-.12.28 0 .4.1.65.35v.02c.26.25.64.63 1.35.63.53 0 1.04-.22 1.43-.44.18-.1.34-.21.48-.32.05.18.08.36.09.55Zm-.28 1.48c-.26.18-.54.36-.82.49a2.2 2.2 0 0 1-.9.23c-.7 0-1.09-.38-1.34-.63l-.01-.02c-.25-.24-.37-.35-.65-.35-.1 0-.26.03-.46.12a4.05 4.05 0 0 0-.99.62 3 3 0 0 0 5.17-.46Zm-.24-2.98a3 3 0 0 0-5.18.39 6.77 6.77 0 0 1 .84-.48c.26-.12.56-.21.86-.21.7 0 1.09.38 1.34.63l.01.02c.25.24.37.35.65.35s.6-.12.93-.3c.21-.13.4-.27.55-.4Z" fill="#0000FE"/><path d="M21.05 31H15l1.1-2h4.4c1.1 0 1.1 0 1.1-.5S19.4 26 19.4 25c0-.8 1.1-1 1.65-1H26l-1.1 2h-2.75c-.55 0-1.1-.2-1.1.5 0 .5 2.2 2.5 2.2 3.5 0 .8-1.47 1-2.2 1Z" fill="#FE0000"/><path d="M23.55 27 23 28h1.66L23 31h4.43a2 2 0 0 0 1.65-1c.19-.33.78-1.5 1.66-3.5.89-2-.73-2.5-1.66-2.5h-2.76l-1.1 2h2.2c.56 0 1.11 1 .56 2a2 2 0 0 1-1.66 1h-1.1l.55-1h.55l.55-1h-3.32Z" fill="#FE0000"/><path fill-rule="evenodd" d="m35.98 22.54-6.1-10.39a2.16 2.16 0 0 0-3.75 0L12.38 35.53c-.09.15-.16.31-.2.47H27l-1.5 3h16.25c1.68 0 2.76-1.96 1.87-3.47L43.3 35H32l.67-1H29l6.98-11.46Zm1.19 2.02-3.67 6.17.68 1L38 26l.12.17-.95-1.61Zm-6.39-12.95a3.21 3.21 0 0 0-5.56 0L11.47 34.98c-1.3 2.21.26 5.02 2.78 5.02h27.5c2.52 0 4.08-2.8 2.78-5.02L30.78 11.61Z" fill="#0000FE"/></svg>