<!-- by TradingView --><svg xmlns="http://www.w3.org/2000/svg" width="56" height="56"><path fill="#F0F3FA" d="M0 0h56v56H0z"/><path d="M10.26 36l-2.02-2h6.66l2.02 2h-6.66zm7.83 0l2.02-2h6.65l-2.02 2h-6.65zm13.17 0l-2.02-2h6.65l2.03 2h-6.66zm7.82 0l2.03-2h6.64l-2.01 2h-6.66z" fill="#1598D0"/><path d="M28 13.5L18.5 23h6.88L28 20.4l2.63 2.6h6.87L28 13.5zM20.76 26l-2.02-2h6.66l2.02 2h-6.66zm7.83 0l2.02-2h6.65l-2.02 2h-6.65zM8 33l9.5-9.42L27 33h-6.87l-2.63-2.6-2.62 2.6H8zm21 0l9.5-9.42L48 33h-6.87l-2.63-2.6-2.63 2.6H29z" fill="#08488B"/></svg>