<!-- by TradingView --><svg width="56" height="56" viewBox="0 0 56 56" xmlns="http://www.w3.org/2000/svg"><path fill="#F0F3FA" d="M0 0h56v56H0z"/><path d="M15 38v-5h2c.8 0 3.67-.33 5-.5V38c0 .8-.67 1-1 1h-5c-.8 0-1-.67-1-1ZM28 38v-7h2.5c.8 0 3 0 4.5 1v6c0 .8-.67 1-1 1h-5c-.8 0-1-.67-1-1Z" fill="#014F97"/><path d="M16 32c-2.8 0-4.5-1.33-5-2 .83.33 3 1 5 1 2.5 0 10-3 14-3 3.2 0 6.67 2.67 8 4-1.83-.83-5-2.5-8-2.5S19.5 32 16 32Z" fill="#014F97"/><path d="M15 18v7.5c-.8.4-2.33.17-3 0 .17.5 1.2 1.5 4 1.5 3.5 0 9.5-3 13-3 2.8 0 6.83 1.67 8.5 2.5-.4-1.2-1.5-2.5-2.5-3V19h2c6.5 0 7 2.5 7 5s-2 5-4.5 5-8-4-11.5-4-10.5 3.5-12.5 3.5c-1.6 0-3.33-.33-4-.5.33.5 1.6 1.5 4 1.5 3 0 8-3 12.5-3s8.5 3 11.5 3C41 29.5 45 29 45 23c0-4.8-5.33-6-8-6h-9c-.8 0-1 .67-1 1v4c-1.6 0-4 1-5 1.5V18c0-.8-.67-1-1-1h-5c-.8 0-1 .67-1 1Z" fill="#014F97"/></svg>