<!-- by TradingView --><svg width="56" height="56" viewBox="0 0 56 56" xmlns="http://www.w3.org/2000/svg"><path fill="#2B4494" d="M0 0h56v56H0z"/><path d="M40.68 31.56c-.42.44-.97.82-1.5 1.23-.2.16-.35.33-.45.51-.2.36-.3.78-.3 1.25 0 .68-.48.7-1.05.72-.25 0-.5 0-.75-.02-.45-.04-.89 0-1.22.02-.33.02-.72.14-1.01.29a266.16 266.16 0 0 1-5.08 2.33 23.37 23.37 0 0 1-8.67 1.05c-4.04-.5-9.06-2-11-5.74a5.35 5.35 0 0 1 .23-5.5.35.35 0 0 0 .03-.28 4.64 4.64 0 0 1 .21-3.39c1.4-3.12 5.26-4.47 8.5-4.5 3.03-.02 6.25 1.09 8.07 3.58a4.96 4.96 0 0 1-.27 6.2 8.72 8.72 0 0 1-4.3 2.72c-3.68 1.1-8.08.47-10.86-2.32a3.62 3.62 0 0 1-.62-.8.08.08 0 0 0-.07 0 .08.08 0 0 0-.03.02.66.66 0 0 0-.13.32c-.1.63-.08 1.23.16 1.82.29.7.71 1.28 1.27 1.77 2.59 2.2 6.74 2.18 9.84 1.3a9.26 9.26 0 0 0 6.1-5.26c.8-1.86 1.05-4.62-.37-6.29a.13.13 0 0 1 .03-.19 5.66 5.66 0 0 1 4.32 2.23.2.2 0 0 0 .23-.04c2.41-2.3 5.18-4.41 8.48-5.26 1.54-.4 3.3-.44 4.85-.1 1.12.25 1.65.98 1.57 2.2a6.07 6.07 0 0 1-.51 2.05.22.22 0 0 0 .03.22.22.22 0 0 0 .2.08c.12 0 .22 0 .3.04a.14.14 0 0 1 .09.13c0 .02 0 .04-.02.06A21.82 21.82 0 0 1 45 27.1a30.24 30.24 0 0 1-4.04 4.27.6.6 0 0 1-.18.12.24.24 0 0 0-.1.06Z" fill="#CF000C"/><path d="M18.42 19.98v2.99a.05.05 0 0 1-.02.03.04.04 0 0 1-.03.01 9.14 9.14 0 0 1-3.58-.87.06.06 0 0 1 0-.05 4.6 4.6 0 0 1 3.6-2.15l.02.02v.02ZM19.18 19.94a4.7 4.7 0 0 1 3.33 2.1h-.01a6.88 6.88 0 0 1-3.32.97c-.05 0-.07-.02-.07-.06V20c0-.05.03-.07.07-.06ZM21.5 20.44l-.23-.16c-.06-.05-.06-.07.03-.05a9.56 9.56 0 0 1 2.53.94v.03a.06.06 0 0 1-.02.05l-.85.52c-.05.03-.1.02-.13-.03a5.54 5.54 0 0 0-1.33-1.3ZM39.64 23.89c.08-.24 0-.3-.21-.16-1.1.66-3.06.93-3.12-.97a.38.38 0 0 1 .16-.32l.07-.05c.12-.09.18-.06.18.08.04.75.24 1.17.6 1.29.94.28 1.75-.26 2.39-.9.98-.97 1.72-1.84 2.96-2.26.7-.23 1.36-.37 1.98-.4 1.22-.07 2.04.9 1.72 2.05a2.9 2.9 0 0 1-.62 1.12.33.33 0 0 0-.1.14.17.17 0 0 1-.08.1.23.23 0 0 1-.15.02 11.25 11.25 0 0 0-5.73.64.08.08 0 0 1-.06-.05l-.01-.03c0-.19.01-.29.02-.3Z" fill="#FDFDFD"/><path d="M39.18 21.23c.1-.22-.02-.48-.25-.58-.23-.1-.24-.18-.04-.27a.47.47 0 0 1 .48.05c.4.26.35.75.07 1.1-.3.36-.74.58-1.3.66-.45.06-.85-.1-.83-.6.02-.36.23-.63.63-.82.14-.07.22-.03.23.13.02.36-.06.86.44.73.28-.07.47-.2.57-.4Z" fill="#FDFDFD"/><path d="M42.87 22.1c-.03-.24-.1-.48-.24-.73-.02-.03-.01-.05.01-.07h.04l.04.01a1.44 1.44 0 0 1 .18 1.57.06.06 0 0 1-.07.03c-.03 0-.04-.03-.03-.07.07-.27.1-.52.07-.75Z" fill="#CF000C"/><path d="m23.24 22.17.93-.67a.17.17 0 0 1 .2 0 5.68 5.68 0 0 1 2.87 4.24.08.08 0 0 1-.05.04l-.03.01h-2.85a.08.08 0 0 1-.08-.07 7.27 7.27 0 0 0-1.02-3.5c0-.02.01-.04.03-.05Z" fill="#FDFDFD"/><path d="M42.53 22.16c-.03-.2-.1-.42-.23-.64-.02-.03-.01-.05 0-.06a.05.05 0 0 1 .08 0 1.31 1.31 0 0 1 .2 1.42l-.04.03h-.03c-.03-.01-.03-.03-.03-.07.06-.24.08-.47.05-.68Z" fill="#CF000C"/><path d="M42.21 22.35c-.03-.2-.1-.4-.23-.62-.02-.03-.02-.05 0-.07a.05.05 0 0 1 .07.01 1.28 1.28 0 0 1 .22 1.38l-.03.02h-.04c-.02 0-.03-.02-.02-.06.05-.24.06-.46.03-.66ZM42 22.43c.05.21.05.43-.02.65l-.02.03h-.04a.03.03 0 0 1-.02-.04 1.83 1.83 0 0 0-.27-1.17v-.04l.03-.01c.01 0 .03 0 .04.02.15.16.26.35.3.56ZM41.55 22.65a1.47 1.47 0 0 0-.23-.49c-.02-.02-.02-.04 0-.05l.03-.01.02.01a1.05 1.05 0 0 1 .27 1.1.04.04 0 0 1-.05.03c-.02 0-.02-.02-.02-.05.03-.2.02-.38-.02-.54ZM41.33 22.75c.05.15.06.3.03.45-.01.02-.02.03-.04.03-.03 0-.05-.02-.05-.05a2.42 2.42 0 0 0-.05-.4 2.37 2.37 0 0 0-.2-.35c-.01-.02 0-.04.01-.06.02-.02.03-.02.05 0 .12.1.2.22.25.38Z" fill="#CF000C"/><path d="M23.72 25.78h-4.59l-.02-.04v-2.1c0-.06.03-.08.07-.09a8.28 8.28 0 0 0 3.53-1.07.15.15 0 0 1 .15.08c.54 1 .83 2.06.9 3.2l-.04.02Z" fill="#FDFDFD"/><path d="M40.93 22.98a2.25 2.25 0 0 0-.2-.31c-.01-.03 0-.05 0-.07h.06c.1.09.2.2.25.34.06.14.07.28.05.42 0 .02-.02.03-.04.03s-.04-.02-.04-.04c-.03-.2-.06-.32-.08-.37Z" fill="#CF000C"/><path d="M14.52 22.63c1.24.57 2.52.88 3.83.93.04 0 .07.03.07.07v2.1l-.02.04a.06.06 0 0 1-.04.01h-4.59a.1.1 0 0 1-.08-.03.1.1 0 0 1-.03-.08c.07-1.07.33-2.08.79-3.01.01-.03.04-.04.07-.03Z" fill="#FDFDFD"/><path d="m40.63 23.12-.22-.28c-.02-.02-.02-.04 0-.06h.04c.11.07.2.16.27.29.07.13.1.25.1.38 0 .03-.01.04-.03.04-.03 0-.04-.01-.05-.04a2.09 2.09 0 0 0-.11-.33ZM40.4 23.3c.05.09.08.19.1.3 0 .02 0 .03-.02.04h-.03l-.02-.01a1.42 1.42 0 0 0-.33-.53l.01-.03h.04c.1.06.18.14.24.23Z" fill="#CF000C"/><path d="M29.93 33.77c.13-.3-.25-.48-.5-.5-1.37-.06-2.77.18-4.14.38-.12.02-.14-.01-.05-.1.67-.66 1.47-.85 2.5-.97l2.3-.22a6.28 6.28 0 0 0 3.55-1.44c.99-.81 1.6-1.66 2.64-2.88.97-1.15 2.1-2.02 3.36-2.71a9.87 9.87 0 0 1 5.74-1.17c.25.02.6.04.71.24.07.13.13.24.09.36-.06.18-.17.4-.34.66a24.62 24.62 0 0 1-6.39 6.68c-.86.65-1.26 1.03-1.24 2.09 0 .53-.27.77-.82.72l-1.44-.07c-.52-.02-1.1.15-1.66.45a29.5 29.5 0 0 1-7.04 2.67c-2.68.6-5.53.67-8.2.2a1.85 1.85 0 0 1-.82-.4.1.1 0 0 1-.03-.09l.01-.04a.1.1 0 0 1 .04-.03c.2-.09.4-.13.59-.13 2.29.03 4.4-.23 6.35-.76a9.8 9.8 0 0 0 3.72-1.8c.5-.43.9-.73 1.07-1.14Z" fill="#FDFDFD"/><path d="M32.3 32.24a3.4 3.4 0 0 0 2.37-1.28l2.75-3.19a8 8 0 0 1 3.54-2.36.25.25 0 0 1 .27.08c.02.02.03.04.03.07.02.08-.02.13-.1.15-1.6.43-2.72 1.44-3.75 2.66-.88 1.05-1.6 1.88-2.13 2.5-.77.92-1.66 1.61-2.93 1.67-.1 0-.15-.04-.15-.14v-.04a.11.11 0 0 1 .06-.1c.02-.02.03-.02.05-.02Z" fill="#CF000C"/><path d="M13.2 26.04v.17a.13.13 0 0 1-.1.12l-2.82.87a.13.13 0 0 1-.11-.02.13.13 0 0 1-.06-.1l-.12-1.03a.13.13 0 0 1 .07-.13h3c.04 0 .07 0 .1.03.02.02.03.06.03.09ZM17.7 28.4c-1.12.13-2.19.43-3.22.9-.04.02-.07.01-.1-.03a7.47 7.47 0 0 1-.7-2.9.12.12 0 0 1 .1-.09h4.58c.04 0 .06.02.06.06v1.96c0 .04-.02.06-.06.06l-.66.04ZM19.13 28.36h-.01v-2.01c0-.04.01-.07.06-.07h4.5c.05 0 .07.03.06.07a7.6 7.6 0 0 1-.73 2.87c-.02.04-.05.05-.09.03a9.9 9.9 0 0 0-3.8-.9ZM27.23 26.32a5.41 5.41 0 0 1-2.42 3.96l-.03-.01-1.29-.73a.12.12 0 0 1-.04-.16c.48-.96.74-1.96.78-3.02 0-.05.03-.07.08-.07h2.89a.04.04 0 0 1 .02 0 .04.04 0 0 1 .01.03ZM14.84 30.04a5 5 0 0 1-.1-.16c-.06-.1-.05-.16 0-.18a9.35 9.35 0 0 1 3.62-1.03.08.08 0 0 1 .05.04v3.24c0 .15-.07.21-.22.19a4.65 4.65 0 0 1-3.35-2.1ZM19.16 28.66c1.2.07 2.38.4 3.54 1 .04.02.04.05.02.08a4.8 4.8 0 0 1-3.54 2.38.1.1 0 0 1-.07-.09V28.7c0-.03.02-.05.05-.04ZM21.56 31.59a6.6 6.6 0 0 0 1.54-1.6c.04-.06.09-.07.15-.03l1.02.58a.07.07 0 0 1 .03.06v.03l-.03.03c-.92.53-1.9.93-2.94 1.19-.1.02-.1 0-.03-.06l.26-.2Z" fill="#FDFDFD"/></svg>