<!-- by TradingView --><svg width="56" height="56" viewBox="0 0 56 56" xmlns="http://www.w3.org/2000/svg"><path fill="#F0F3FA" d="M0 0h56v56H0z"/><path d="M10 28.48H8c.03 1 .14 1.97.33 2.9h2c-.2-.93-.3-1.9-.33-2.9Zm.55 3.87h-2c.17.67.39 1.32.64 1.94h2c-.25-.62-.46-1.27-.64-1.94Zm1.64 1.94c-.25-.62-.46-1.27-.64-1.94h2c.18.67.39 1.32.64 1.94h-2Zm-.57.97h-2c.32.68.7 1.32 1.1 1.93h2c-.4-.6-.78-1.25-1.1-1.93Zm2.1 1.93c-.4-.6-.78-1.25-1.1-1.93h2c.32.68.7 1.32 1.1 1.93h-2Zm-.29.97h-2c.57.71 1.2 1.36 1.88 1.94h2c-.68-.58-1.3-1.23-1.88-1.94Zm2.88 1.94c-.68-.58-1.3-1.23-1.88-1.94h2c.57.71 1.2 1.36 1.88 1.94h-2Zm.3.96h-2a11.64 11.64 0 0 0 7.39 1.9 11.72 11.72 0 0 1-5.4-1.9Zm1 0h2a11.72 11.72 0 0 0 5.39 1.9 11.47 11.47 0 0 1-7.4-1.9Zm-4.28-9.67h-2c-.19-.94-.3-1.91-.33-2.9h2c.03.99.14 1.96.33 2.9ZM13 27.52c.03-1 .14-1.97.33-2.9h-2c-.19.93-.3 1.9-.33 2.9h2Zm-3 0c.03-1 .14-1.97.33-2.9h-2c-.2.93-.3 1.9-.33 2.9h2Zm-1.45-3.87h2c.18-.67.39-1.32.64-1.94h-2c-.25.62-.47 1.27-.64 1.94Zm1.06-2.9h2c.16-.34.33-.66.51-.98h-2c-.18.32-.35.64-.5.97Zm1.11-1.94h2c.47-.7 1-1.35 1.56-1.94h-2c-.57.6-1.09 1.24-1.56 1.94Zm2.59-2.9h2c1.9-1.62 4.2-2.65 6.69-2.87a11.84 11.84 0 0 0-8.7 2.86Zm1.97.96c-.57.6-1.09 1.24-1.56 1.94h2c.47-.7 1-1.35 1.56-1.94h-2Zm3.03-.97h-2A11.84 11.84 0 0 1 25 13.04c-2.5.22-4.79 1.25-6.7 2.86Zm-3.19 3.87h-2c-.18.32-.35.64-.5.97h2c.15-.33.32-.65.5-.97Zm-.93 1.94h-2c-.25.62-.46 1.27-.64 1.94h2c.18-.67.39-1.32.64-1.94ZM46 28.48h2c-.03 1-.14 1.97-.33 2.9h-2c.2-.93.3-1.9.33-2.9Zm-.55 3.87h2c-.17.67-.39 1.32-.64 1.94h-2c.25-.62.46-1.27.64-1.94Zm-1.64 1.94c.25-.62.46-1.27.64-1.94h-2c-.18.67-.39 1.32-.64 1.94h2Zm.57.97h2c-.32.68-.7 1.32-1.1 1.93h-2c.4-.6.78-1.25 1.1-1.93Zm-2.1 1.93c.4-.6.78-1.25 1.1-1.93h-2c-.32.68-.7 1.32-1.1 1.93h2Zm.29.97h2c-.57.71-1.2 1.36-1.88 1.94h-2c.68-.58 1.3-1.23 1.88-1.94Zm-2.88 1.94c.68-.58 1.3-1.23 1.88-1.94h-2c-.57.71-1.2 1.36-1.88 1.94h2Zm-.3.96h2a11.64 11.64 0 0 1-7.39 1.9c1.95-.17 3.78-.84 5.4-1.9Zm-1 0h-2a11.72 11.72 0 0 1-5.39 1.9 11.47 11.47 0 0 0 7.4-1.9Zm4.28-9.67h2c.19-.94.3-1.91.33-2.9h-2c-.03.99-.14 1.96-.33 2.9Zm.33-3.87c-.03-1-.14-1.97-.33-2.9h2c.19.93.3 1.9.33 2.9h-2Zm3 0c-.03-1-.14-1.97-.33-2.9h2c.2.93.3 1.9.33 2.9h-2Zm1.45-3.87h-2c-.18-.67-.39-1.32-.64-1.94h2c.25.62.47 1.27.64 1.94Zm-1.06-2.9h-2c-.16-.34-.33-.66-.51-.98h2c.18.32.35.64.5.97Zm-1.11-1.94h-2c-.47-.7-1-1.35-1.56-1.94h2c.57.6 1.09 1.24 1.56 1.94Zm-2.59-2.9h-2A11.95 11.95 0 0 0 34 13.03a11.84 11.84 0 0 1 8.7 2.86Zm-1.97.96c.57.6 1.09 1.24 1.56 1.94h-2c-.47-.7-1-1.35-1.56-1.94h2Zm-3.03-.97h2A11.84 11.84 0 0 0 31 13.04c2.5.22 4.79 1.25 6.7 2.86Zm3.19 3.87h2c.18.32.35.64.5.97h-2c-.15-.33-.32-.65-.5-.97Zm.93 1.94h2c.25.62.46 1.27.64 1.94h-2c-.18-.67-.39-1.32-.64-1.94Z" fill="#09AFEC"/><path fill="#EB3037" fill-opacity=".6" d="M14 29h28v2H14z"/><path d="M22 18h-2l-1.5 8h2l1-4s.2-1 1-1 .5 1.5.5 1.5l-.5 3.5h2l.5-4c0-1.5-.5-2-1.5-2-.8 0-1.67.33-2 .5L22 18ZM28.5 20h-2L25 28h2l1.5-8Z" fill="#EB3037"/><path d="M30 20c-.8 0-1.67.67-2 1l-.5 1c.17-.33.7-1 1.5-1 1 0 1.5.5 1 2-.47 1.42-1 2-1.5 2-.4 0-1.17-.17-1.5-.5v.5c.33.33 1.2 1 2 1 1 0 2-.5 2.5-3s-.5-3-1.5-3ZM33.5 19h2l-.27 1H37l-.5 1h-1.55L34 24.5c0 .17.2.5 1 .5s1.33-.33 1.5-.5l-.5 1c-.17.17-1.31.5-2 .5-.5 0-2 0-2-1.5l.95-3.5H32l.5-1h.73l.27-1Z" fill="#EB3037"/></svg>