<!-- by TradingView --><svg width="56" height="56" viewBox="0 0 56 56" xmlns="http://www.w3.org/2000/svg"><path fill="#F0F3FA" d="M0 0h56v56H0z"/><path d="M16.45 17.11c5.86-.16 10.1 8.22 11.49 12.43-3.77-3.4-11.49-4.6-12.68-4.6-1.18 0-1.98 1.8-2.97 0-.79-1.45.2-2.35.8-2.61-.16-4.34 2.17-5.28 3.36-5.22Z" fill="url(#a)"/><path d="M13.09 37.96c3.16-4.8 10.95-5.2 14.45-4.8-.4.4-4.16 3.2-7.13 4.6-2.97 1.4-1.78 2.81-1.78 3.61 0 .65-1.85.67-2.77.6-2.85.17-3.04-2.6-2.77-4Z" fill="url(#b)"/><path d="M28.92 40.57c-.95-.48 0-4.48.6-6.41 2.37 2.6 3.36 6.41 2.57 7.41s-1.98-.4-3.17-1Z" fill="url(#c)"/><path d="M27.93 34.76c-3.16 1.73-9.22 5.25-8.11 5.41 1.38.2 7.92-5.01 8.11-5.41Z" fill="url(#d)"/><path d="M40.21 33.95c-2.22.17-5.41-1.4-6.73-2.2 2.53.16 7.79.07 10.1 0-.2.67-1.15 2.04-3.37 2.2Z" fill="url(#e)"/><path d="M35.26 18.11c-.63.49-3.83 7.16-5.34 10.43-.6 0-1.59-3-2.58-7.02-.99-4-1.58-1.8-3.17-3.4-1.58-1.61.4-1.4 1.98-2.01 1.59-.6 1.98-1.4 2.97-2 1-.6 1.79 1.6 3.96 1.4 2.18-.2 2.97 2 2.18 2.6Z" fill="url(#f)"/><path d="M35.86 21.52c-.6 1.2-1.4 6.42-1.59 7.02 4.56 1.2 8.32-5.81 9.1-7.62.8-1.8.8-4.2.2-5.41-.59-1.2-2.37 3-4.15 3.8-1.78.81-2.97 1.01-3.56 2.21Z" fill="url(#g)"/><path d="M23.38 29.34a12.4 12.4 0 0 1 5.15 2c0-.4-5.94-3.8-8.12-4.4-2.18-.6-2.57 0-4.16 1.2-1.58 1.2 4.16.8 7.13 1.2Z" fill="url(#h)"/><path d="M25.16 25.93c.64.8 2.9 3.55 3.96 4.82-1.58-1.6-4.9-5.02-5.54-5.82-.8-1-1.78-.4-2.57-.6-.8-.2 0-1.2 1.38-1.2 1.39 0 1.98 1.8 2.77 2.8Z" fill="url(#i)"/><path d="M27.54 26.34c.32.96 1.85 3.07 2.57 4 .2-.2-.2-1.4-1.38-3-1.19-1.6-1.59-3.01-1.98-4.01-.4-1-2.58-3.81-3.17-3.81-.6 0 0 1.6 1 1.8.98.2 2.56 3.81 2.96 5.02Z" fill="url(#j)"/><path d="M28.73 22.93c.47.8.72 3.4.79 4.6 0-1.4-.08-4.4-.4-5.2-.4-1-1.78-3.61-2.37-3.21-.6.4 1.38 2.8 1.98 3.8Z" fill="url(#k)"/><path d="M31.7 21.52c0 .8-1.06 3.55-1.59 4.82.14-.74.48-2.57.8-4.01.4-1.8-.8-2.21-.6-3.41.2-1.2 1.39 1.6 1.39 2.6Z" fill="url(#l)"/><defs><linearGradient id="a" x1="13.28" y1="20.92" x2="27.22" y2="28" gradientUnits="userSpaceOnUse"><stop stop-color="#D72618"/><stop offset="1" stop-color="#E26327"/></linearGradient><linearGradient id="b" x1="13.68" y1="40.77" x2="27.49" y2="36.16" gradientUnits="userSpaceOnUse"><stop stop-color="#D72618"/><stop offset="1" stop-color="#E26327"/></linearGradient><linearGradient id="c" x1="28.7" y1="40.86" x2="32.71" y2="40.45" gradientUnits="userSpaceOnUse"><stop stop-color="#D72618"/><stop offset="1" stop-color="#E26327"/></linearGradient><linearGradient id="d" x1="20.07" y1="39.43" x2="28" y2="36.94" gradientUnits="userSpaceOnUse"><stop stop-color="#D72618"/><stop offset="1" stop-color="#E26327"/></linearGradient><linearGradient id="e" x1="44.17" y1="28.14" x2="38.87" y2="35" gradientUnits="userSpaceOnUse"><stop stop-color="#D72618"/><stop offset="1" stop-color="#E26327"/></linearGradient><linearGradient id="f" x1="44.17" y1="28.14" x2="38.87" y2="35" gradientUnits="userSpaceOnUse"><stop stop-color="#D72618"/><stop offset="1" stop-color="#E26327"/></linearGradient><linearGradient id="g" x1="44.17" y1="28.14" x2="38.87" y2="35" gradientUnits="userSpaceOnUse"><stop stop-color="#D72618"/><stop offset="1" stop-color="#E26327"/></linearGradient><linearGradient id="h" x1="28.33" y1="30.95" x2="25.25" y2="34.75" gradientUnits="userSpaceOnUse"><stop stop-color="#DBF271"/><stop offset="1" stop-color="#D32805"/></linearGradient><linearGradient id="i" x1="28.73" y1="29.94" x2="24.7" y2="31.97" gradientUnits="userSpaceOnUse"><stop stop-color="#F9DF1E"/><stop offset="1" stop-color="#D32805"/></linearGradient><linearGradient id="j" x1="29.72" y1="29.74" x2="25.3" y2="30.19" gradientUnits="userSpaceOnUse"><stop stop-color="#F9DF1E"/><stop offset="1" stop-color="#D32805"/></linearGradient><linearGradient id="k" x1="29.33" y1="27.07" x2="27.45" y2="27.17" gradientUnits="userSpaceOnUse"><stop stop-color="#F9DF1E"/><stop offset="1" stop-color="#D32805"/></linearGradient><linearGradient id="l" x1="30.31" y1="26.13" x2="29.26" y2="25.73" gradientUnits="userSpaceOnUse"><stop stop-color="#F9DF1E"/><stop offset="1" stop-color="#D32805"/></linearGradient></defs></svg>