<!-- by TradingView --><svg width="56" height="56" viewBox="0 0 56 56" xmlns="http://www.w3.org/2000/svg"><path fill="#00A7E9" d="M0 0h56v56H0z"/><path fill-rule="evenodd" d="M32.5 20.68c-.46-.48-.96-.56-1.47-.25-.07.04-.12.03-.15-.04-.14-.26-.16-.5-.06-.7.3-.57.48-1 .53-1.28.08-.47-.07-.83-.45-1.1l-.05.01c-.02 0-.02.03.01.05.28.26.4.55.36.87-.03.2-.14.48-.35.86-.2.36-.3.62-.32.8-.02.27.1.5.4.7.07.04.07.1.01.16a.69.69 0 0 1-.25.15.16.16 0 0 0-.12.13c0 .07.01.12.07.16h.06c.04.01.04.02 0 .04-.08.04-.1.12-.06.23a.2.2 0 0 0 .13.13l.11.04c.23-.05.26 0 .1.18-.5.49-.77.81-.83.97a.46.46 0 0 0 .03.38c.04.07.09.08.16.05.38-.17.7-.09.94.26.02.03.02.05 0 .06h-.06c-.21-.23-.47-.3-.78-.19-.11.04-.11.08 0 .1.3.08.48.19.55.33.15.28.35.47.59.57.25.11.5.11.76 0 .2-.1.35-.15.46-.16l.49-.01c.1 0 .15-.03.18-.08.05-.08.03-.1-.06-.07-.1.03-.2.02-.26-.05a.78.78 0 0 1-.1-.26 1.24 1.24 0 0 0-.14-.3c-.04-.07-.08-.07-.1 0l-.1.3c-.02.06-.07.09-.13.08-.05-.01-.1-.06-.13-.13a.24.24 0 0 1 0-.2.24.24 0 0 1 .15-.14c.31-.09.63-.1.97-.02.2.04.36.16.46.35.06.1.13.3.19.57.07.31.15.52.23.63.14.18.36.25.66.22.59-.08 1.06.02 1.42.29.27.2.32.16.13-.12-.17-.26-.53-.5-1.05-.69l-.3-.12c-.2-.09-.26-.2-.2-.35a.3.3 0 0 1 .24-.19c.11-.01.2.02.28.12.22.27.49.49.8.65.4.21.72.24.96.1.2-.13.38-.26.56-.41.12-.1.25-.14.4-.14.14 0 .27.06.38.16.25.22.31.51.2.87a1.7 1.7 0 0 1-1.31 1.22c-.42.1-1.05.19-1.9.27-.87.07-1.51.17-1.92.28-.13.04-.47.09-1 .14-.36.03-.78.28-1.28.75-.24.22-.42.38-.55.47a.11.11 0 0 1-.13 0 .12.12 0 0 1-.06-.12c.03-.24.1-.55.22-.94.03-.07.05-.2.07-.36.03-.24.07-.4.13-.5.1-.17.27-.26.52-.3a.28.28 0 0 0 .19-.1c.13-.17.19-.33.15-.47a.54.54 0 0 0-.08-.23l-.6-.61c-.19-.18-.27-.18-.24.01.07.47.04.76-.09.9-.05.05-.08.04-.1-.03-.03-.1 0-.19.1-.28a.17.17 0 0 0 .02-.2c-.16-.36-.39-.5-.69-.42-.11.02-.13.08-.03.15.24.19.33.44.28.76 0 .04-.02.06-.05.06l-.06-.02c.04-.24-.04-.42-.23-.55a.34.34 0 0 0-.4 0l-.19.1c-.13.08-.12.14.03.18.28.07.52.27.71.6.1.16.01.32-.27.47-.12.07-.23.05-.33-.05l-.4-.4c-.05-.06-.09-.05-.1.03-.1.48.01.82.35 1.02a.2.2 0 0 0 .21 0l.32-.19c.1-.06.2-.05.3.03.08.08.1.18.06.3l-.14.3a4.3 4.3 0 0 0-.3.81c-.07.32-.06.65.03 1 .02.09.07.13.15.14.1 0 .2-.01.3-.06.25-.12.3-.06.18.19-.82 1.64-.72 3.38.3 5.22.17.3.3.75.41 1.36l.1.52c0 .06-.01.1-.06.13-.06.03-.1.02-.14-.02l-1.13-1.14a.26.26 0 0 1-.08-.2v-.4c0-.21-.07-.37-.22-.49-.15-.11-.3-.12-.44-.01-.03.02-.1.03-.2.03-.24.01-.4.06-.48.16-.06.06-.05.11.03.14l.65.28-.07.08c-.04.05-.08.04-.11-.02-.06-.11-.16-.17-.3-.17-.26 0-.43.1-.53.3-.04.09-.02.13.07.13h.75c.05 0 .07.02.06.07l-.03.06c-.05.06-.1.08-.18.05-.31-.15-.53-.03-.63.36-.08.27 0 .32.22.16.19-.14.44-.2.76-.19.14 0 .2.08.2.22v.24c0 .1-.05.17-.15.2l-.5.09c-.1.02-.12.06-.04.14.19.17.4.25.65.23.27-.02.4-.19.38-.5a.2.2 0 0 1 .09-.18.23.23 0 0 1 .21-.05c.07.02.14.08.21.19l.08.11c.22.34.4.58.53.7.2.2.45.33.72.37.08.01.13-.01.16-.09.16-.32.24-.65.26-.98 0-.04.02-.07.06-.09a.08.08 0 0 1 .1.02c.52.5 1.07.85 1.66 1.04.25.08.25.15-.01.2l-2.35.44a.6.6 0 0 1-.53-.15c-.67-.62-1.75-.93-3.26-.94-1.5-.01-2.6.3-3.3.9a.81.81 0 0 1-.71.19l-2.08-.39c-.24-.05-.24-.1-.02-.19a4.8 4.8 0 0 0 1.62-1.03.09.09 0 0 1 .09-.02c.03.02.05.04.06.07l.16.9c.03.15.12.22.27.19.28-.05.54-.2.77-.43a5.61 5.61 0 0 0 .64-.86.2.2 0 0 1 .18-.1.2.2 0 0 1 .18.12c.06.13.1.27.11.43.01.08.06.13.14.14.36.07.63.01.8-.16.13-.13.1-.2-.09-.2-.1.01-.26-.03-.48-.1-.1-.04-.12-.1-.1-.2l.12-.34a.12.12 0 0 1 .12-.08c.34 0 .63.1.87.3.06.05.09.03.09-.05v-.28c0-.1-.04-.17-.11-.23-.16-.11-.37-.14-.6-.09h-.04a.1.1 0 0 1-.04-.07c0-.04.01-.06.05-.06h.67c.11 0 .14-.05.1-.14a.67.67 0 0 0-.39-.35c-.09-.03-.15-.01-.2.07-.03.06-.1.1-.18.14-.03.01-.05 0-.06-.03 0-.03.01-.04.04-.05.16-.08.31-.2.46-.35.04-.04.03-.06-.02-.08l-.78-.27a.21.21 0 0 0-.23.05c-.3.26-.38.53-.26.82.05.11.03.21-.06.3l-1.02 1.03c-.22.23-.33.18-.31-.14a4.35 4.35 0 0 1 .57-1.96c.15-.3.26-.51.32-.66a5.2 5.2 0 0 0-.18-4.38c-.07-.15-.03-.2.13-.15l.34.12c.08.02.14 0 .17-.08.14-.33.16-.68.08-1.04-.06-.23-.2-.57-.43-1.04l-.02-.05a.25.25 0 0 1 .04-.3.24.24 0 0 1 .27-.07l.44.15c.06.02.11.02.16-.02.33-.23.44-.54.32-.94-.02-.1-.07-.1-.14-.04l-.4.41a.16.16 0 0 1-.18.04c-.1-.03-.22-.1-.33-.2a.19.19 0 0 1-.06-.2c.1-.37.27-.58.52-.64.36-.08.38-.2.06-.35-.35-.18-.61.02-.77.58-.01.04-.03.05-.06.03l-.09-.05c-.02-.02-.03-.04-.01-.06l.44-.78c.04-.07.02-.11-.06-.13-.3-.04-.5.09-.63.4-.06.13-.09.12-.1-.02 0-.1.01-.23.04-.38.02-.09-.01-.11-.09-.07-.15.08-.43.36-.82.84-.05.06-.07.13-.05.21.07.32.25.5.55.53.26.04.4.19.4.45 0 .34.11.79.32 1.34.06.14.07.24.04.28a.2.2 0 0 1-.17.1.27.27 0 0 1-.2-.09c-.36-.38-.72-.7-1.1-.96-.14-.1-.44-.18-.9-.22a3.82 3.82 0 0 1-.53-.08c-.69-.18-1.6-.3-2.75-.36-.93-.05-1.6-.28-2-.71-.3-.32-.41-.68-.33-1.07.08-.42.34-.63.8-.65.5-.02.9-.04 1.16-.07.11-.01.14.03.07.12a.52.52 0 0 1-.44.22.82.82 0 0 1-.5-.15c-.04-.03-.07-.03-.1 0l-.05.05c-.03.03-.03.05 0 .08.6.6 1.35.41 2.23-.55a.21.21 0 0 1 .2-.08c.08.02.14.06.18.14l.03.05v.1c-.02.16-.1.29-.24.36-.1.05-.25.09-.48.13-.45.08-.73.22-.83.44-.05.1-.02.13.08.1.34-.12.56-.15.68-.1.87.38 1.48-.03 1.81-1.2.12-.4.37-.62.77-.65.34-.03.68.07 1.02.3.06.04.06.08 0 .12-.16.1-.27.05-.34-.13-.03-.08-.1-.1-.17-.07-.08.03-.1.14-.09.33.01.07-.02.13-.08.17l-.46.27c-.06.03-.06.05 0 .07.59.14 1.02-.01 1.29-.45.04-.08.07-.07.08.01.01.06 0 .12-.04.2-.12.19-.22.3-.31.32-.14.04-.13.06 0 .06.3.01.65-.18 1.04-.58.12-.13.15-.11.1.03l-.1.16a.1.1 0 0 0 0 .1.1.1 0 0 0 .1.05c.05 0 .1-.03.15-.07.11-.11.24-.28.38-.51.04-.08.1-.1.18-.06a1 1 0 0 0 .2.08c.14.02.15-.01.04-.1l-.05-.05a.08.08 0 0 1-.03-.1l.2-.6a.17.17 0 0 0-.02-.16l-.4-.56a.4.4 0 0 1-.08-.29c.02-.1.06-.18.14-.24h.1c.05 0 .1-.01.12-.06l.22-.38a.15.15 0 0 0 0-.15.58.58 0 0 0-.39-.28c-.09-.02-.1-.07-.04-.15.21-.27.3-.52.28-.75a2.26 2.26 0 0 0-.32-.72l-.09-.16c-.35-.62-.37-1.1-.05-1.43.24-.24.22-.26-.05-.06-.35.27-.42.65-.23 1.15.21.56.4 1 .55 1.3.05.1.04.18-.03.26a.21.21 0 0 1-.24.07c-.34-.1-.6-.13-.76-.07-.12.04-.28.17-.48.4l-.22.22c-.14-.39-.2-.69-.15-.9.24-1.18.15-1.95-.24-2.31-.34-.3-.77-.59-1.32-.86-.04-.02-.06-.01-.06.03 0 .03 0 .06.04.07.54.28.92.55 1.15.8.33.36.45.78.36 1.25l-.02.12c-.1.48-.15.84-.14 1.07 0 .41.13.71.38.9.06.05.1.1.12.14.04.07.02.12-.06.14l-1.17.4a.2.2 0 0 1-.15-.01c-.16-.09-.2-.22-.13-.38.03-.07.07-.08.13-.05.18.09.39.08.62 0 .06-.04.1-.09.1-.16a.94.94 0 0 0-.65-.9.2.2 0 0 0-.17.02.2.2 0 0 1-.2 0 .97.97 0 0 0-.76-.11.16.16 0 0 1-.17-.07 8.9 8.9 0 0 0-.94-1.03.97.97 0 0 1-.27-.4c-.02-.08-.03-.24-.02-.46 0-.14-.04-.23-.14-.28-.09-.04-.15-.02-.2.06l-.03.06c-.03.06-.08.07-.13.04l-.48-.28c-.1-.06-.15-.03-.17.08-.02.15.05.29.2.42.52.45.95.95 1.3 1.5.02.02.01.04 0 .05-.02.02-.03.02-.05 0l-1.33-.77a.49.49 0 0 1-.23-.28l-.15-.45a.12.12 0 0 0-.1-.08c-.05-.01-.09 0-.12.05a.65.65 0 0 1-.2.17.2.2 0 0 1-.2 0l-.38-.22c-.1-.06-.18-.04-.24.06-.06.12-.05.22.04.32.15.15.42.34.83.54a4.97 4.97 0 0 1 1.06.7c.21.16.2.19-.05.06a3.22 3.22 0 0 0-1.39-.35 6 6 0 0 0-1.56.22c-.29.07-.73.02-1.33-.15-.06-.02-.08 0-.06.06.07.21.34.37.8.47.33.08.7.12 1.12.12.2 0 .57.07 1.09.22.07.02.1.07.07.15l-.03.09c-.03.09-.09.11-.17.07a3.67 3.67 0 0 0-2.42-.32c-.24.04-.6.18-1.08.41-.64.3-1.1.45-1.4.44-.33 0-.36.08-.1.28.2.16.47.22.77.18a255 255 0 0 1 1.3-.2c.24-.04.41 0 .5.09.07.06.06.1-.03.09-.35-.02-.8.07-1.37.26-.42.15-.73.2-.94.18a1.5 1.5 0 0 1-.79-.44c-.1-.09-.13-.07-.11.07.05.33.2.59.42.77.14.1.36.22.67.33.43.16.67.34.73.56.02.07 0 .12-.09.14a2.1 2.1 0 0 1-1.8-.35c-.1-.07-.13-.05-.11.06.11.8.58 1.27 1.4 1.4.18.03.32.21.43.55.02.07 0 .1-.07.05-.66-.4-1.23-.38-1.73.06-.1.1-.08.12.05.09.84-.2 1.5.25 2 1.37.13.33.38.5.73.54l.43.04c.31.03.38-.08.19-.33a3.8 3.8 0 0 1-.84-2.4c0-.99.4-1.7 1.18-2.15h.04c.02.04.02.06 0 .07-.6.46-.94.95-1 1.45a3.7 3.7 0 0 0 1.11 3.32c.23.22.18.34-.13.34a7.15 7.15 0 0 0-1.07.09c-.28.07-.52.24-.72.5-.08.11-.06.14.06.09.46-.2.8-.25 1.01-.17l.35.14c.42.16.74.27.96.32.35.08.73.09 1.13.04.09 0 .1.01.02.06-.38.26-1.03.37-1.95.31-.3-.02-.52-.02-.65-.02a.77.77 0 0 0-.43.2c-.1.06-.17.15-.25.27-.08.14-.05.19.1.14.43-.14.9-.08 1.42.16.56.27 1.1.35 1.6.25.37-.07.9-.3 1.56-.67.35-.2.83-.32 1.46-.39 1.3-.12 2.16.42 2.56 1.63 0 .03 0 .04-.04.03l-.06-.02a.04.04 0 0 1-.03-.03c-.52-.97-1.24-1.43-2.16-1.37-.62.04-1.46.35-2.51.94-.52.29-1.25.41-2.17.37a.34.34 0 0 1-.2-.08c-.06-.04-.1-.05-.14 0-.05.04-.04.08.02.1.76.34 1.54.46 2.33.37.33-.04.78-.2 1.36-.47.51-.24.9-.38 1.17-.42a2 2 0 0 1 1.32.26c.84.45 1.15 1.2.92 2.24a.94.94 0 0 1-.14.37.54.54 0 0 0-.12.24.58.58 0 0 1-.1.23c-1.37 1.81-3.27 2.59-5.7 2.33-.7-.08-1.3-.34-1.78-.8a9.8 9.8 0 0 1-3.45-3.54c-.2-.36-.28-.33-.23.07a5.77 5.77 0 0 0 2.04 3.8 16.38 16.38 0 0 0 5 2.86c1.82.7 3.71 1.17 5.68 1.43 3.18.41 6.24.34 9.2-.2 3.2-.58 6-1.68 8.41-3.3a8.54 8.54 0 0 0 2.28-2.11c.59-.84.9-1.78.92-2.82 0-.28-.05-.3-.18-.05a9.92 9.92 0 0 1-3.53 3.81c-.08-.07-.14-.1-.18-.07-.67.33-1.3.5-1.9.51a6.63 6.63 0 0 1-3.1-.72 4.04 4.04 0 0 1-2.2-2.28c-.2-.6-.04-1.15.5-1.65-.32.02-.56.24-.71.66-.16.45-.12.94.12 1.48.22.47.52.88.93 1.21a7.73 7.73 0 0 0 4.55 1.7c-1.81.1-3.38-.45-4.71-1.65-.4-.37-.74-.86-1-1.48a1.72 1.72 0 0 1 .03-1.52c.33-.65.9-1.02 1.69-1.13.54.06 1.07.2 1.59.43.72.31 1.19.48 1.4.51.93.13 1.66 0 2.19-.37.1-.07.09-.1-.03-.08-1 .17-1.94-.02-2.84-.57a4.06 4.06 0 0 0-2.07-.66c-.8 0-1.42.32-1.85.99-.13.2-.23.38-.3.53-.04.06-.05.06-.04-.02.16-.84.61-1.39 1.38-1.65a3.17 3.17 0 0 1 2.22.14l1.67.73c.32.14.65.19 1 .13.2-.03.48-.13.85-.28.6-.25 1.04-.31 1.34-.2.22.1.28.03.16-.19-.1-.2-.3-.32-.59-.37a4.61 4.61 0 0 0-.9-.01c-.8.04-1.36-.03-1.67-.23-.12-.07-.11-.1.02-.06.58.13 1.11.1 1.6-.08.52-.19.95-.26 1.3-.22.36.05.75.22 1.2.54.06.05.09.03.06-.05a1.63 1.63 0 0 0-.86-1.1 1.9 1.9 0 0 0-.81-.1c-.42 0-.72-.05-.92-.13a.2.2 0 0 1-.12-.15.19.19 0 0 1 .06-.18c.74-.7 1.1-1.55 1.1-2.54 0-.37-.02-.63-.05-.8-.09-.44-.43-.91-1.03-1.4-.1-.09-.1-.12.03-.09.16.03.3.12.45.25.61.59.89 1.32.83 2.22a4.1 4.1 0 0 1-.9 2.27.1.1 0 0 0-.02.11.1.1 0 0 0 .1.06c.3.01.57-.04.8-.17.17-.09.4-.28.67-.57.82-.84 1.54-1.14 2.15-.88.24.1.28.05.11-.15-.52-.6-1.2-.71-2.07-.31-.11.05-.14.02-.1-.1.15-.31.39-.5.7-.58.67-.14 1.06-.6 1.17-1.35.02-.1-.01-.1-.08-.05-.52.4-1.12.54-1.8.4a.18.18 0 0 1-.15-.16.18.18 0 0 1 .08-.2c.14-.1.37-.21.68-.34.31-.14.53-.25.66-.35.21-.17.34-.39.4-.67.06-.25 0-.28-.18-.1-.23.25-.48.37-.75.37-.18 0-.48-.06-.9-.2-.43-.13-.87-.2-1.32-.22-.07 0-.1-.04-.07-.11l.02-.06.02-.02c.34-.04.7-.07 1.07-.08.39 0 .66-.07.8-.2.2-.17.4-.4.57-.7.05-.09.03-.11-.07-.07l-.31.18c-.2.12-.34.18-.44.2-.17.02-.36-.04-.57-.19-.87-.6-1.8-.61-2.78-.04a.14.14 0 0 1-.15 0 .15.15 0 0 1-.08-.14c0-.16.1-.25.27-.27l.18-.01c1.1-.09 1.73-.26 1.88-.52.06-.1.04-.13-.07-.1-.62.13-1.33.1-2.13-.07-.7-.16-1.35-.1-1.98.16-.2.08-.23.05-.06-.1.55-.5 1.18-.99 1.89-1.43a.17.17 0 0 0 .08-.16v-.07c0-.1-.04-.13-.14-.08-.44.25-.7.31-.78.17-.17-.29-.3-.27-.36.06-.04.24-.19.47-.44.72-.15.14-.43.37-.83.67l-.6.45c-.14.12-.17.1-.08-.07.4-.78.9-1.41 1.47-1.9.04-.04.07-.12.08-.23 0-.06-.02-.1-.06-.13a.13.13 0 0 0-.15 0l-.4.23c-.08.05-.14.03-.2-.04-.04-.07-.1-.1-.17-.12-.08-.01-.13.03-.13.12v.07c-.03.5-.13.85-.31 1.06-.41.49-.71.89-.9 1.19-.03.07-.1.1-.17.07a1.38 1.38 0 0 0-.85.11.36.36 0 0 1-.22.02c-.3-.06-.58.06-.82.36.18-.44.22-.81.12-1.13-.22-.69-.2-1.24.08-1.67.2-.32.66-.68 1.37-1.06.01 0 .02-.02.01-.04 0-.03-.02-.03-.04-.03-.34.14-.73.38-1.16.7a1.4 1.4 0 0 0-.56 1.47c.13.65.12 1.26-.02 1.82Zm-2.94 14.5c.1-.04.13-.1.11-.18a.93.93 0 0 0-.05-.17c-.04-.1-.02-.11.06-.05.2.15.31.34.36.56.01.05 0 .08-.03.12a.1.1 0 0 1-.06.03c-.02 0-.03 0-.03-.02-.1-.2-.22-.3-.36-.29Zm3.12-14.25c0-.11-.07-.17-.18-.18v.5c0 .07.04.13.11.16.51.22 1.02.24 1.53.07.4-.13.39-.2-.03-.22-.03 0-.14.06-.33.18-.05.04-.1.02-.12-.04l-.04-.08c-.03-.08-.09-.12-.17-.1h-.01c-.29.04-.52-.03-.69-.2a.84.84 0 0 1-.07-.09Zm7.57 14.45c.3-.1.57-.26.79-.5H41c-.4.12-.66.28-.76.5Zm-15.62-14.7c-.1-.03-.15-.02-.17.03-.02.06 0 .1.06.14.1.05.16.03.17-.08 0-.05-.02-.08-.06-.1Zm-4.18.21 1.17.36c.07.02.12.06.16.13.07.12.18.17.34.16.07 0 .1-.04.08-.11v-.06c-.02-.05-.04-.08-.09-.08l-.25-.02c-.14-.01-.15-.05-.04-.12.15-.1.33-.13.53-.1.03 0 .04 0 .04-.04l-.01-.07-.03-.02h-.43c-.65 0-1.13-.06-1.45-.2-.04-.02-.07 0-.07.05v.06c0 .03.02.06.05.06Zm-1.14.32c-.2.03-.33-.07-.43-.3 0-.04 0-.07.03-.1.02-.03.05-.03.09-.02l.89.37c.13.05.13.08 0 .08-.06 0-.19-.01-.37-.04h-.2Zm.32.29c-.23 0-.46.09-.7.26-.21-.1-.43-.15-.66-.15-.11 0-.13.03-.05.11.09.1.2.18.36.23l1.07.39c.05.02.08 0 .1-.05l.03-.08c.02-.07 0-.1-.07-.12l-.61-.11a.17.17 0 0 1-.13-.12l-.04-.1.78-.04c.05 0 .07-.03.07-.08 0-.04-.01-.07-.06-.1a.14.14 0 0 0-.09-.04Zm5.63.99c0-.25-.06-.48-.19-.69-.06-.1-.11-.1-.15.02l-.17.49c-.02.1 0 .15.1.19l.27.09c.09.03.13 0 .14-.1Zm-.9.3c-.04-.03-.1-.03-.18 0a.43.43 0 0 1-.22 0 2.45 2.45 0 0 0-1.27-.06c-.38.12-.71.15-.98.08a.06.06 0 0 1-.05-.04l-.03-.1c-.02-.06 0-.09.06-.08.46.03.9-.01 1.34-.13l.34-.13c.42-.19.75-.24.98-.18.18.06.29.18.32.38.02.19-.04.34-.2.44-.27.17-.6.18-.98.03-.03-.01-.04-.03-.03-.06 0-.03.03-.04.06-.03.28.08.55.08.82-.03.05-.02.06-.05.02-.09Zm-5.21.01c.21 0 .43.06.64.17.07.04.13.03.2 0l.2-.15c.08-.06.07-.09-.03-.08a1.4 1.4 0 0 1-.75-.18.5.5 0 0 0-.18-.06c-.1-.02-.17-.01-.2.01-.2.2-.17.29.12.3Zm-3.63 2.31c-.07-.4.04-.82.33-1.22.27-.38.6-.65 1-.81.3-.14.7-.15 1.17-.05.44.1.99.13 1.63.1.17 0 .17.02.01.07-.32.12-.77.14-1.34.07l-.6-.06c-1.11-.07-1.8.45-2.06 1.55-.05.24.05.63.3 1.15a3.3 3.3 0 0 0 2.23 1.86 144.95 144.95 0 0 1 1.68.47c-1-.04-1.93-.32-2.77-.84a3.53 3.53 0 0 1-1.58-2.29Zm9.5.3c-.05-.08-.09-.07-.12 0a.25.25 0 0 0 0 .2c.04.08.1.09.15.02.05-.05.04-.13-.03-.23Zm-.45.54c.12.15.27.23.32.18.05-.05 0-.2-.13-.35-.13-.14-.27-.22-.32-.17-.06.04 0 .2.13.34Zm7.19-5.02c.09-.06.14-.08.16-.06.04.03.05.07.04.11-.01.05-.04.07-.09.07a.16.16 0 0 1-.12-.06c-.02-.03-.02-.05.01-.06Zm3.43.09-.18.06c-.23.08-.4.1-.52.06a3.4 3.4 0 0 0-.81-.09c-.1 0-.1-.03-.04-.09.07-.06.13-.1.18-.09a27 27 0 0 0 1.35.05c.25 0 .25.03.02.1Zm1.96.93c-.04-.06-.14-.01-.3.13a.26.26 0 0 1-.18.07l-.91-.03c-.06.14-.06.14 0 0 .09-.02.23-.04.41-.05.28-.02.48-.05.6-.1a.8.8 0 0 0 .46-.4c.03-.06.05-.1.08-.1a.1.1 0 0 1 .07 0c.06.01.08.05.08.1 0 .56-.22.96-.63 1.22a.73.73 0 0 0-.27.29.52.52 0 0 0-.07.27c0 .1.06.13.15.07l.37-.23c.43-.28.76-.45.99-.5.37-.08.75.02 1.13.28.05.04.1.08.12.12.03.05.03.06-.01.04a.33.33 0 0 1-.11-.1.3.3 0 0 0-.17-.13c-.72-.23-1.37-.05-1.94.53-.1.1-.2.15-.3.17-.18.04-.3 0-.37-.13-.11-.22-.02-.48.28-.77l.5-.49c.08-.07.08-.16.02-.26Zm-5.94.34-.14.26a.1.1 0 0 1-.1.05.11.11 0 0 1-.1-.05c-.08-.14-.07-.26.03-.35.22-.22.36-.35.43-.39a.18.18 0 0 1 .11-.04c.03 0 .05 0 .08.02s.04.04.02.08c-.15.18-.11.38.1.58.05.06.1.05.15-.02l.1-.17c.01-.03.04-.04.08-.02.02 0 .03.02.04.05 0 .06.03.1.09.12l.07.01c.02 0 .04-.02.06-.04l.08-.15c.03-.05.07-.06.13-.04.7.4 1.38.48 2.02.26.11-.04.13 0 .07.09-.15.23-.33.32-.55.28a5.38 5.38 0 0 0-1.68-.12c-.06 0-.08.04-.06.1l.05.05c.1.05.16.08.19.08.21-.02.22.01.01.08-.67.24-1.06 0-1.18-.7-.02-.1-.05-.1-.1-.02Zm.91 1.87c-.03.03-.15-.06-.33-.26-.1-.1-.11-.2-.02-.25.08-.06.16-.03.23.1.12.25.16.38.12.41Zm.1-.04c.03-.02.07-.02.12-.01.14.02.14.06.02.1-.03.02-.08.02-.14-.02-.04-.02-.04-.05 0-.07Zm4.68 3.36c-.1 0-.17.02-.23.05a7.37 7.37 0 0 0-3.59.92 3.93 3.93 0 0 0-2 3c-.05.35 0 .8.12 1.34.12.52.4 1.02.85 1.5.4.42.85.76 1.37 1.02a9.46 9.46 0 0 0 4.62.99c.03 0 .04 0 .04.03v.01c0 .02 0 .03-.04.03a8.55 8.55 0 0 1-5.11-1.14c-1.52-.87-2.17-2.1-1.96-3.67a4.4 4.4 0 0 1 1.96-3.23 7.01 7.01 0 0 1 3.3-1.02c1-.04 1.76-.2 2.3-.5.74-.37 1.16-.99 1.26-1.85 0-.03.02-.04.05-.04.03 0 .04.02.04.05-.04.78-.37 1.4-.97 1.84-.52.4-1.2.62-2 .67Zm-5.27-2.1.02-.05c.03-.07.04-.07.03.01-.01.27-.1.5-.28.66a.19.19 0 0 1-.13.05c-.02 0-.05 0-.07-.02-.05-.03-.06-.08-.03-.13.1-.13.2-.25.33-.34.07-.04.1-.1.13-.17Zm-5.54 9.96c0-.04.06-.13.15-.25.06-.08.11-.07.15.02.02.03.02.08.01.13a.2.2 0 0 1-.1.15.67.67 0 0 1-.11.03c-.07.02-.1 0-.1-.08Zm2.74 3.08a.37.37 0 0 1 .33.05c.09.07.08.12-.03.14-.65.12-1.37.13-2.15.02a2.6 2.6 0 0 0-.5 0c-.25.02-.43 0-.56-.03-.15-.04-.15-.06 0-.06h.59c.07 0 .14-.02.2-.06a.4.4 0 0 1 .37-.07c.07.02.14.01.2-.03.33-.22.78-.21 1.35.02.06.03.13.03.2.02Z" fill="#FFDE00"/><path fill-rule="evenodd" d="M28 40.2c2.52 0 5.01-.3 7.49-.91 1.17-.3 2.33-.7 3.46-1.2 1.35-.59 2.51-1.27 3.47-2.03 2.46-1.96 3.33-4.19 2.61-6.69a2.72 2.72 0 0 1-.14-.95c.04-.4.2-.71.48-.96.25-.23.55-.36.9-.4.36-.03.69.04.98.21.33.19.55.47.68.84.08.25.1.63.02 1.14a10.37 10.37 0 0 1-3.48 6.26 18.64 18.64 0 0 1-6.24 3.71A29.07 29.07 0 0 1 28 41c-3.64 0-7.05-.6-10.23-1.78a18.61 18.61 0 0 1-6.24-3.71c-2-1.86-3.16-3.94-3.48-6.26-.07-.51-.06-.89.02-1.14.13-.37.35-.65.68-.84.3-.17.62-.24.97-.2.36.03.66.16.91.39.28.25.44.57.48.96.03.2-.02.52-.14.95-.72 2.5.15 4.73 2.61 6.69.96.76 2.12 1.44 3.47 2.04 1.13.5 2.29.9 3.46 1.19 2.48.6 4.97.91 7.49.91ZM9.6 29.85c0 .06-.01.07-.05.02-.23-.24-.32-.65-.27-1.23 0-.06.03-.11.07-.15.21-.22.37-.2.47.07.03.07.02.16-.03.27-.13.3-.19.64-.18 1.02Zm36.87.01c0-.38-.05-.72-.18-1.02-.05-.12-.06-.2-.03-.28.1-.26.27-.28.48-.06.04.04.06.09.07.15.04.58-.05.99-.28 1.23-.04.05-.06.04-.06-.02Z" fill="#FFDE00"/><path d="M16.13 35.35c2.22.3 4.08-.28 5.57-1.74.65-.63.88-1.4.68-2.28.1-.13.18-.1.22.11.1.55.08 1.03-.06 1.44-.13.36-.4.73-.81 1.1a6.13 6.13 0 0 1-3.02 1.57c-.84.15-1.7.08-2.58-.2ZM30 18a2 2 0 1 1-4 0 2 2 0 0 1 4 0Z" fill="#FFDE00"/></svg>