<!-- by TradingView --><svg width="56" height="56" viewBox="0 0 56 56" xmlns="http://www.w3.org/2000/svg"><path fill="#F0F3FA" d="M0 0h56v56H0z"/><path d="M48 28c0 1.6-.5 3.12-1.52 4.6a13.7 13.7 0 0 1-4.34 3.88c-1.87 1.13-4.04 2-6.49 2.6-2.45.62-5 .92-7.65.92-2.65 0-5.2-.3-7.65-.91a23.58 23.58 0 0 1-6.5-2.6 13.7 13.7 0 0 1-4.33-3.9A7.97 7.97 0 0 1 8 28c0-1.6.5-3.12 1.52-4.6a13.7 13.7 0 0 1 4.34-3.88c1.87-1.13 4.04-2 6.49-2.6 2.45-.62 5-.92 7.65-.92 2.65 0 5.2.3 7.65.91 2.45.61 4.62 1.48 6.5 2.6a13.7 13.7 0 0 1 4.33 3.9A7.97 7.97 0 0 1 48 28Z" fill="#EDF23C"/><path d="M47.19 28c0 1.5-.49 2.94-1.46 4.33a13.15 13.15 0 0 1-4.17 3.66 22.9 22.9 0 0 1-6.23 2.46c-2.36.57-4.8.86-7.36.86-2.54 0-5-.29-7.35-.86a22.9 22.9 0 0 1-6.23-2.46 13.15 13.15 0 0 1-4.17-3.66A7.43 7.43 0 0 1 8.76 28c0-1.5.49-2.95 1.46-4.33.98-1.39 2.36-2.61 4.17-3.67a22.9 22.9 0 0 1 6.23-2.46c2.35-.57 4.8-.86 7.35-.86s5 .29 7.36.86A22.9 22.9 0 0 1 41.56 20a13.15 13.15 0 0 1 4.17 3.67A7.43 7.43 0 0 1 47.19 28Z" fill="#017CC1"/><path d="M22.07 33.87c-.1.26-.04.3.18.14a5.8 5.8 0 0 0 1.68-1.96c.34-.61.64-1.43.93-2.44.43-1.57.75-2.73.97-3.48.4-1.37.85-2.34 1.36-2.92a4.97 4.97 0 0 1 4.6-1.66c.22.03.23.08.02.16a6.19 6.19 0 0 0-3.89 4.2c-.31 1.03-.74 2.54-1.28 4.52a5.5 5.5 0 0 1-1.97 2.98 5.07 5.07 0 0 1-3.4 1.08c-.66-.03-1.07-.25-1.25-.65a1.17 1.17 0 0 1-.01-1.04c.14-.28.37-.47.69-.58.32-.1.62-.08.9.06.3.17.5.46.59.88.04.18 0 .38-.08.62l-.04.09Z" fill="#FFF708"/><path d="M23.23 23.76c-.13-.01-.32-.15-.58-.42a.79.79 0 0 1-.2-.8c.08-.28.26-.52.53-.7.29-.2.59-.27.9-.22.35.06.64.28.87.66.56.9.35 1.62-.61 2.14-.6.33-1.45.56-2.53.7a.28.28 0 0 0-.22.13.28.28 0 0 0-.03.25c.16.51.54.82 1.15.9.78.13 1.56.19 2.34.2.11 0 .15.05.12.15l-.8 2.56a.25.25 0 0 1-.23.19c-2.11.23-3.73-.73-4.86-2.89a1.38 1.38 0 0 0-.36-.49 1.76 1.76 0 0 0-.56-.17 74.42 74.42 0 0 0-6.04-.98l-.03-.08c-.02-.06 0-.08.05-.08 3.25.02 6.36-.12 9.36-.42a9.66 9.66 0 0 0 1.76-.33c.57-.17.56-.27-.03-.3ZM33.73 22.6c.1-.25.02-.31-.22-.17a6.57 6.57 0 0 0-3.13 4.1 74.8 74.8 0 0 1-1.3 4.43 5.4 5.4 0 0 1-1.9 2.65c-.89.66-1.91.96-3.06.9-.33-.02-.34-.07-.02-.17 1.38-.42 2.4-1.63 3.05-3.62.24-.72.65-2.13 1.23-4.23a6.46 6.46 0 0 1 2.3-3.68 5.26 5.26 0 0 1 4.33-.72c.24.05.42.2.52.47.17.45.15.8-.06 1.08-.18.24-.45.35-.8.35-.35 0-.62-.12-.82-.35-.23-.27-.27-.61-.12-1.03Z" fill="#FFF708"/><path d="M43.1 28.6c.01.02.03.06.03.12.07.61-.21.92-.85.93l-11.82-.01c-.1 0-.14-.05-.11-.15l.72-2.85a.33.33 0 0 1 .3-.27 11101.4 11101.4 0 0 1 10.99-1.41c.4-.06.7-.08.9-.06.3.03.58.14.83.33.19.15.26.33.2.54 0 .06-.1.2-.25.44a1.6 1.6 0 0 0-.24 1.2c.01.08 0 .16-.02.24-.12.35-.35.6-.68.76-.07.03-.07.1 0 .18Z" fill="#FFF708"/><path d="M20 25.92a.35.35 0 1 0 0-.7.35.35 0 0 0 0 .7Z" fill="#017CC1"/><path d="M36.9 32.18v-.9c0-.11.05-.16.15-.16h.08c.1 0 .15.05.15.15v1.47c0 .72-.2.79-.6.19-.1-.15-.27-.4-.48-.78-.11-.2-.18-.18-.2.05-.03.26-.02.56.01.9.01.1-.04.15-.14.15h-.11c-.1 0-.14-.05-.14-.14a64.09 64.09 0 0 1 0-1.9.29.29 0 0 1 .02-.06.25.25 0 0 1 .22-.07c.1.01.16.06.21.14l.64 1.01c.12.2.18.18.18-.05ZM31.35 31.96h.28c.1-.02.15-.08.15-.17v-.53c0-.12.06-.18.18-.18h.1c.1 0 .16.06.16.17v1.89c0 .08-.05.12-.13.12h-.13c-.13 0-.19-.06-.19-.19l.03-.62c0-.08-.05-.13-.15-.16a3.77 3.77 0 0 0-.59.01c-.1.03-.15.08-.15.16l.04.61c0 .13-.06.2-.19.2h-.13c-.08 0-.12-.04-.13-.12l-.02-1.9c0-.1.05-.16.16-.16h.1c.11 0 .17.06.17.18l.01.53c0 .09.06.14.16.15h.27ZM33.06 32.9a.61.61 0 0 1-.36.4.14.14 0 0 1-.17-.04.14.14 0 0 1-.03-.16l.72-1.8c.04-.1.1-.17.19-.2.2-.1.35-.03.44.18l.7 1.83c.03.1 0 .14-.1.14h-.11a.2.2 0 0 1-.2-.14c-.12-.32-.43-.43-.93-.34a.19.19 0 0 0-.15.13ZM39.77 32.34c0 .26-.09.48-.27.67a.91.91 0 0 1-.68.28h-.19a.92.92 0 0 1-.67-.28.91.91 0 0 1-.28-.67v-.32c0-.26.09-.48.27-.67.19-.19.41-.28.68-.28h.2c.25 0 .48.1.66.28.19.18.28.4.28.67v.32ZM40.33 31.08h-.03a.2.2 0 0 0-.2.2l-.02 1.77c0 .12.1.21.2.21h.04c.11 0 .2-.09.2-.2l.02-1.77a.2.2 0 0 0-.2-.2Z" fill="#EDF23C"/><path d="M38.82 31.44h-.17c-.27-.01-.5.2-.5.47l-.01.48c0 .27.2.5.48.5h.17c.27 0 .5-.2.5-.48l.01-.47c0-.27-.2-.5-.48-.5ZM33.3 32.35c-.05-.02-.07-.05-.06-.1.05-.17.12-.33.23-.48.07-.1.12-.08.15.03l.15.53c.03.1 0 .13-.1.1l-.37-.08Z" fill="#017CC1"/></svg>