<!-- by TradingView --><svg width="56" height="56" viewBox="0 0 56 56" xmlns="http://www.w3.org/2000/svg"><path fill="#F0F3FA" d="M0 0h56v56H0z"/><path d="M44 33H12.28c-.6-.69-.24-2.7 1.06-2.7 1.04 0 1.88.76 2.17 1.14.32-.53 1.14-1.6 1.85-1.6.72 0 1.76.54 2.2.81.46-1.06 1.52-.98 2-.81-.07-.62.23-1.84 1.95-1.84 1.71 0 2.85 1.77 3.2 2.65.13-.22.62-.66 1.59-.66.96 0 1.73.78 2 1.17.24-.58 1.01-1.76 2.19-1.76a3.2 3.2 0 0 1 2.38 1.25c.4-.88 1.41-2.65 2.34-2.65.92 0 1.57.94 1.78 1.4 1.83-.76 1.87 1.08 1.78 1.07 1.72.09 2.87 1.72 3.23 2.53Z" fill="#0C3380"/><path fill-rule="evenodd" d="M28 45a17 17 0 1 0 0-34 17 17 0 0 0 0 34Zm0-1a16 16 0 1 0 0-32 16 16 0 0 0 0 32Z" fill="#1F3252"/><ellipse cx="28" cy="38.5" rx="8" ry="3.5" fill="#153580"/><ellipse cx="28" cy="38.5" rx="7" ry="2.5" fill="#F87E7E"/><path d="M26.44 27.83a.27.27 0 0 0-.06-.2.13.13 0 0 0-.13-.05c-.09.02-.17 0-.25-.02l-.22-.08c-.55-.1-1.1-.15-1.66-.13-.4 0-.73-.02-.98-.08-.41-.1-.75-.32-1.02-.65a.94.94 0 0 1-.2-.59c0-.06-.03-.1-.08-.13a1 1 0 0 0-.49-.16.15.15 0 0 1-.12-.08c-.37-.66.22-1.35.82-1.48.05 0 .09-.03.12-.08a.5.5 0 0 0 .07-.41.12.12 0 0 0-.18-.08.13.13 0 0 0-.05.05c-.17.32-.42.53-.77.63-.36.1-.38.16-.58.5-.1.16-.3.24-.58.21a.14.14 0 0 1-.13-.08.73.73 0 0 1-.08-.26c0-.06-.04-.08-.1-.05-.04.02-.06.05-.07.08a6.6 6.6 0 0 1-.63 1.92c-.03.06-.06.06-.09 0a2.35 2.35 0 0 1-.13-1.2c0-.05-.01-.07-.05-.07h-.1c-.06-.01-.1.01-.1.07l-.14.59a.18.18 0 0 1-.26.1.18.18 0 0 1-.07-.08l-.2-.55a.14.14 0 0 0-.13-.1c-.1 0-.18.08-.22.23-.2.76-.33 1.24-.4 1.45a.19.19 0 0 1-.1.1c-.22.14-.4.17-.53.43l-.2.45a.23.23 0 0 1-.17.13.23.23 0 0 1-.2-.06l-.32-.3a.16.16 0 0 0-.2-.02.16.16 0 0 0-.05.07c-.18.46-.43.92-.9 1.14a.14.14 0 0 1-.17-.05 20.75 20.75 0 0 1-.15-2.34c-.01-1.5.09-2.46-.17-3.12a.21.21 0 0 1 0-.15c.23-.78.44-1.15.9-1.91.7-1.17 1.8-2.2 3.19-2.33 1-.1 2.13-.02 3.37.22a.28.28 0 0 0 .33-.33c-.06-.35-.19-.89-.13-1.22.25-1.53 1.6-2.41 2.88-1.17.27.27 1.03.62 1.05 1.1a.2.2 0 0 1-.25.21l-.65-.15a.14.14 0 0 0-.17.13c0 .33.14.57.43.75.5.3 1 .33 1.52.1l1.62-.71c2.3-1 4.68-1.25 7.15-.73 2.7.56 4.36 2.4 5.45 4.82.52 1.14 1.16 2.22 1.29 3.38.01.14-.03.16-.13.06l-1.2-1.18a.3.3 0 0 0-.1-.07.25.25 0 0 0-.12-.01.16.16 0 0 0-.1.04.12.12 0 0 0-.03.08l-.15 1.94c0 .04-.02.05-.06.04a.16.16 0 0 1-.03-.02.08.08 0 0 1-.04-.05c-.09-.52-.4-.76-.52-1.18-.1-.37-.27-.57-.45-.9a.16.16 0 0 0-.13-.08.16.16 0 0 0-.14.06.7.7 0 0 0-.1.24.17.17 0 0 1-.23.12.17.17 0 0 1-.08-.07 1.65 1.65 0 0 0-.52-.48.2.2 0 0 0-.31.18v.32c0 .28-.09.3-.26.08-.39-.52-.88-.8-1.45-.85a.25.25 0 0 1-.14-.06.28.28 0 0 0-.15-.08c-.18-.01-.43 0-.76.06-.05 0-.1 0-.14-.03-.48-.34-1.24-.26-1.74-.07a1.6 1.6 0 0 1-.68.14c-.26-.02-.57.03-.93.16a2.8 2.8 0 0 1-.92.14c-.43 0-1.07-.05-1.9-.13a.4.4 0 0 0-.2.03.11.11 0 0 0-.07.1.11.11 0 0 0 .06.1l1.15.69c.72.43 1.72.93 2.53 1.5.11.08.14.15.09.23a.1.1 0 0 1-.09.04h-.78a.2.2 0 0 0-.2.16c-.06.36-.27.67-.62.92a.32.32 0 0 0-.1.11c-.09.17-.19.29-.3.36a.25.25 0 0 1-.15.03 3.07 3.07 0 0 0-1.11.05c-.23.06-.47.06-.7 0-.07-.03-.3-.07-.72-.13-.18-.03-.33 0-.54.03-.15.02-.25-.07-.3-.28Z" fill="#733937"/><path d="M34.64 18.74a28.05 28.05 0 0 1 1.36.55c.06-.01.07-.04.04-.09l-.07-.1c-.18-.1-.28-.2-.28-.32 0-.06.03-.09.09-.08.87.08 1.65.9 2.18 1.45.3.31.23.42-.18.32a27 27 0 0 0-2.69-.5.1.1 0 0 0-.11.07c-.12.23-.31.3-.58.22-.13-.41-.44-.62-.92-.6a.14.14 0 0 0-.13.1c-.06.19-.06.39.02.6.05.18-.1.2-.44.05l-.03-.55c0-.06-.03-.1-.07-.13a4.05 4.05 0 0 0-2.1-.81c-.05-1.08 1.8-.83 2.56-.79.6.04 1.04.24 1.35.61Z" fill="#2E1E15"/><path d="m35.97 19.1.07.1c.03.05.02.08-.04.09-.02 0-.05 0-.09-.02a28 28 0 0 0-1.27-.53c-.04-.12.07-.16.32-.11.34.06.58.35 1.01.48Z" fill="#A08E1E"/><path d="M30.73 18.92c.73.05 1.43.32 2.1.8.04.04.06.08.07.14l.03.55c.06.22 0 .35-.15.38a.1.1 0 0 1-.1-.02l-1.53-1.13a.22.22 0 0 0-.14-.04c-.44.02-.89-.02-1.34-.12-.95-.23-1.8.7-2.64.52-.45-.09-.45-.21-.03-.36.28-.09.72-.2 1.34-.32.16-.03.3-.08.45-.15l.44-.19c.48-.2.98-.23 1.5-.06ZM34.4 20.26c.13.5.28 1 .43 1.48.06.18.08.32.06.43-.04.18-.1.2-.21.05l-1.31-1.87a.85.85 0 0 1-.02-.6l.05-.07a.14.14 0 0 1 .08-.03c.48 0 .79.2.92.6Z" fill="#FDE13C"/><path d="m24.25 22-.07.04c-.36.13-.59.03-.7-.3-.1-.28-.16-.6-.2-.94l-.05-.15a.68.68 0 0 1-.1-.49c0-.05.04-.08.1-.09.56-.03 1.07.64 1.26 1.13.13.32.05.59-.24.8Z" fill="#270C1A"/><path d="M35.38 21.28c.24.63.51 1.12.6 1.08.1-.03-.01-.58-.25-1.22-.25-.63-.52-1.12-.61-1.08-.1.03.02.58.26 1.22ZM19.67 20.97c-.17.03-.33.03-.5 0a109.65 109.65 0 0 0-1.16-.28.11.11 0 0 1 .01-.17c.14-.1.27-.19.44-.22.54-.1.88-.14 1.03-.13.8.02 1.55-.2 2.4 0 .27.07.43.24.48.5l.04.2c.05.27-.06.36-.32.28l-.53-.18a3.74 3.74 0 0 0-1.89 0Z" fill="#FDE13C"/><path d="M37 21.67a1.1 1.1 0 0 1-.37-.32c-.1-.12-.25-.4-.46-.85-.17-.35-.08-.43.25-.24.34.19.82.5 1.45.92.62.42.83.71 1.24 1.28a.06.06 0 0 1-.02.1h-.04c-.25-.03-.49-.35-.8-.61-.15-.13-.31-.29-.47-.46-.28-.3-.5-.47-.66-.52-.5-.16-.56-.07-.18.26.06.05.15.17.27.34.03.04.04.08.04.1l-.05.07c-.03.02-.06.02-.08 0a.38.38 0 0 0-.12-.07Z" fill="#E7853C"/><path d="M29.87 21.51c.41.47.81.78.9.7.08-.07-.18-.5-.6-.97-.4-.47-.8-.78-.89-.7-.08.07.18.5.59.97ZM16.01 21.96c-.12.18-.37.32-.44.5-.15.42-.2.76-.5 1.16a.12.12 0 0 1-.11.05.12.12 0 0 1-.1-.09.32.32 0 0 1 .02-.19c.23-.7.5-2.23 1.27-2.39a.22.22 0 0 1 .26.15c.01.03.02.07.01.1-.04.31-.27.52-.4.71Z" fill="#EDB051"/><path d="M17.15 22.7c-.26.57-.53 1.33-.98 1.62-.23.16-.3.1-.17-.15.32-.67.57-1.22.57-1.9a262.15 262.15 0 0 1 .05-1 .13.13 0 0 1 .15-.07c.25.07.47.2.67.4.04.04.09.05.14.05.27 0 .84-.05 1.71-.11.2-.02.39-.06.57-.12.59-.2 1-.1 1.48.24.11.08.11.15 0 .22-.14.09-.25.14-.42.11-.51-.07-.92.08-1.38.07-.5-.02-.98.02-1.45.12a.29.29 0 0 0-.22.22l-.11.49a.14.14 0 0 1-.18.1.14.14 0 0 1-.06-.03l-.28-.28c-.04-.04-.07-.04-.1.01Z" fill="#2E1E15"/><path d="M21.63 22.37c-.05.05-.1.15-.15.3a.12.12 0 0 1-.1.1.65.65 0 0 1-.46-.04c-.06-.03-.07-.08-.04-.13.31-.62.79-.79 1.43-.51.2.08.3.25.3.5a.1.1 0 0 1-.03.07.1.1 0 0 1-.06.04c-.36.05-.6-.05-.75-.3a.1.1 0 0 0-.1-.05.1.1 0 0 0-.04.02Z" fill="#EDB051"/><path d="M28.91 22.8a.1.1 0 0 1-.12-.1v-.01a.4.4 0 0 1 .07-.3.42.42 0 0 1 .27-.18h.04a.42.42 0 0 1 .31.06.41.41 0 0 1 .17.27v.01a.1.1 0 0 1-.08.12l-.66.12Z" fill="#270C1A"/><path d="m26.57 22.9-.09.37a.2.2 0 0 1-.25.15c-.2-.06-.37-.16-.52-.29a.19.19 0 0 1-.05-.2.2.2 0 0 1 .04-.07c.29-.32.67-.65 1.09-.54a.18.18 0 0 1 .13.12.18.18 0 0 1-.04.17.86.86 0 0 1-.24.2.15.15 0 0 0-.07.1ZM27.5 25.99c.35.4.7.66.8.58.1-.08-.1-.48-.45-.88-.34-.4-.7-.67-.8-.58-.1.08.11.47.46.88Z" fill="#FDE13C"/><path d="M32.52 18.7c.09.31.46.23.61.05a.31.31 0 0 1 .13-.1c.33-.1.63-.03.92.25.08.09.06.12-.05.1-.34-.05-.6-.14-.87 0a1.46 1.46 0 0 1-.37.12l-1.02-.23c-.08-.02-.11-.07-.1-.14v-.1c0-.07.05-.1.13-.1l.49.04c.03 0 .06.01.08.03.03.02.05.05.05.08Z" fill="#A08E1E"/></svg>