<!-- by TradingView --><svg width="56" height="56" viewBox="0 0 56 56" xmlns="http://www.w3.org/2000/svg"><path fill="#F0F3FA" d="M0 0h56v56H0z"/><path d="M45 28a16.84 16.84 0 0 1-4.98 12.02A16.84 16.84 0 0 1 28 45a16.84 16.84 0 0 1-12.02-4.98A16.84 16.84 0 0 1 11 28a16.84 16.84 0 0 1 4.98-12.02A16.84 16.84 0 0 1 28 11a16.84 16.84 0 0 1 12.02 4.98A16.84 16.84 0 0 1 45 28Zm-.14 0a16.7 16.7 0 0 0-4.94-11.92A16.7 16.7 0 0 0 28 11.14a16.7 16.7 0 0 0-11.92 4.94 16.7 16.7 0 0 0-3.65 18.37 16.7 16.7 0 0 0 3.65 5.47A16.7 16.7 0 0 0 28 44.86a16.7 16.7 0 0 0 11.92-4.94A16.7 16.7 0 0 0 44.86 28Z" fill="#0F1E9A"/><path d="M44.21 28a16.02 16.02 0 0 1-4.74 11.44 16.02 16.02 0 0 1-11.43 4.74 16.02 16.02 0 0 1-11.44-4.74A16.02 16.02 0 0 1 11.86 28a16.02 16.02 0 0 1 4.74-11.44 16.02 16.02 0 0 1 11.43-4.74 16.02 16.02 0 0 1 11.44 4.74A16.02 16.02 0 0 1 44.21 28Zm-.14 0a15.88 15.88 0 0 0-4.7-11.34 15.88 15.88 0 0 0-11.33-4.7 15.88 15.88 0 0 0-11.34 4.7A15.88 15.88 0 0 0 12 28a15.88 15.88 0 0 0 4.7 11.33 15.88 15.88 0 0 0 11.34 4.7 15.88 15.88 0 0 0 11.33-4.7A15.88 15.88 0 0 0 44.07 28Z" fill="#0F1E9A"/><path fill-rule="evenodd" d="M30.85 16.1a2.05 2.05 0 0 0-.66-.03c-.02 0-.02 0-.02-.02v-1.77c0-.03-.02-.05-.05-.05h-4.26c-.03 0-.04.02-.04.05v1.75c0 .02-.01.03-.04.03-.16 0-.33 0-.51.04-.28.05-.53.11-.75.17-.02 0-.04 0-.05-.02l-.78-1.44c0-.01-.02-.02-.04-.01-.53.14-1.06.35-1.6.61-.8.4-1.57.84-2.3 1.32v.04l.87 1.5c.01.04 0 .06-.02.07-.35.2-.64.48-.89.8-.02.04-.05.06-.06.06-.04.02-.09.01-.15 0a257.15 257.15 0 0 0-1.36-.97c-.01-.02-.03-.02-.04 0l-2.5 3.27v.05l1.4 1.1c.02.02.02.05.01.07-.17.44-.3.86-.4 1.29 0 .02-.01.02-.03.02l-1.77-.37c-.02 0-.03 0-.03.02l-.66 4.3.02.02 1.7.31c.04 0 .05.02.05.05.03 1.18.21 2.3.53 3.37a9.7 9.7 0 0 0 1.5 3.04l.54.74c.67.94 1.5 1.77 2.51 2.48a11.68 11.68 0 0 0 3.7 1.74c.72.24 1.44.38 2.14.42 1.43.08 3.03-.1 4.78-.55 1-.26 2-.7 2.97-1.33.89-.58 1.73-1.28 2.5-2.1.97-1.03 1.71-2.24 2.24-3.64.5-1.31.78-2.72.84-4.21 0-.03.02-.04.05-.05l1.65-.27a12.7 12.7 0 0 0-.64-4.17c-.02-.04-.04-.05-.08-.05l-1.54.26c-.02 0-.04 0-.05-.03l-.46-1.22a.06.06 0 0 1 .01-.07l1.19-1.02v-.04l-2.4-3.4h-.02l-1.44.94c-.02.02-.04.01-.05 0-.08-.11-.17-.21-.26-.3-.2-.2-.42-.4-.63-.58-.03-.03-.03-.05-.02-.08l.7-1.39c.01-.02 0-.03-.01-.04l-3.75-2.13-.03.01-.79 1.56c-.01.02-.03.03-.06.02-.28-.08-.5-.14-.66-.17ZM23.2 23v12h-.02l-.63-.5a.07.07 0 0 1-.02-.06v-.92s0-.02.02-.02h.41c.02 0 .03 0 .03-.03v-2.85h-4.75c-.05 0-.07.02-.06.07a10.06 10.06 0 0 0 4.03 5.64 10.15 10.15 0 0 0 9.1 1.26 10.18 10.18 0 0 0 6.53-6.92c0-.03 0-.04-.03-.04h-4.77c-.02 0-.03.01-.03.03v2.82c0 .02 0 .02.03.02h.42a29.47 29.47 0 0 1 .01.94c0 .05-.03.1-.08.17l-.3.34a.25.25 0 0 1-.13.08c-.03 0-.08.01-.14 0h-.03c-.02 0-.03 0-.03-.03V22.98c0-.02 0-.03.03-.03h.18c.03 0 .04 0 .04.04v.33c0 .01 0 .02.02.02h.26c.02 0 .03 0 .03.03 0 .11.01.19.05.23l4.57 5.29c.07.08.12.12.17.12.01 0 .03-.01.03-.03a10.17 10.17 0 0 0-10.8-11.21 10.14 10.14 0 0 0-7.24 3.72 10.15 10.15 0 0 0-2.23 7.49l.03.03c.14.03.28.04.42.02.01 0 .03 0 .04-.02l4.47-5.58a.05.05 0 0 1 .04-.02h.1c.02 0 .03 0 .03-.02v-.4c0-.03.01-.05.04-.05h.1c.04 0 .06.02.06.05Z" fill="#30318E"/><path d="M25.84 25.72v2.09a.54.54 0 0 0 0 .24v.97c0 .02.01.03.03.03h.43a.3.3 0 0 0 .18 0h3.56c.02-.01.03-.02.03-.04v-.77a.76.76 0 0 0 0-.33v-1.73c.02-.12.01-.2-.02-.23a.24.24 0 0 0 .02-.09v-3.25c0-.03.01-.04.04-.04h.5c.04 0 .05 0 .05-.04v-.5c0-.02.01-.03.03-.03h1.73c.03 0 .05.02.05.05V34.9l-.01.02-2.15.97h-.03l-.01-.03v-5.18c0-.02-.01-.03-.03-.03h-4.4c-.03 0-.04.02-.04.04l-.06 5.3-.01.02h-.03l-2.11-1.08a.06.06 0 0 1-.04-.06V22.03c0-.02.01-.03.03-.03h1.73c.03 0 .04.01.04.04v.25c0 .02 0 .02.02.02h.43c.02 0 .03.02.03.05l.01 3.36Z" fill="#DE3A31"/><path d="M18.55 29.02a1435.84 1435.84 0 0 1 4.23-5.28l.03.01v.03l-2.88 5.24-.04.02h-1.35v-.02ZM37.9 29.13h-1.73c-.02 0-.04-.01-.05-.03a793.92 793.92 0 0 1-2.8-5.13.21.21 0 0 1-.02-.14c0-.03.02-.04.05 0l4.56 5.28-.01.02ZM33.02 24.14l.04.01c.01 0 .02 0 .02.02l1.28 4.94-.01.02H33L33 29.1v-4.95c0-.02 0-.02.02-.02ZM34.56 29.12c-.02 0-.04 0-.04-.03l-1.27-4.87c-.02-.08-.01-.09.03-.01l2.66 4.88v.02l-.03.02h-1.35ZM22.99 24.36a5886.56 5886.56 0 0 1-.03 4.68H21.7c-.03 0-.04-.01-.03-.04l1.28-4.78c.02-.08.04-.08.04 0v.14ZM21.46 29.04a94.15 94.15 0 0 1-1.34-.02V29l2.61-4.75c.04-.07.05-.07.03.01l-1.26 4.75c0 .02-.02.03-.04.03Z" fill="#F0F3FA"/><path d="M25.84 26.15 28 28.94c.02.02.03.02.05 0l2-2.56c.04.02.05.1.02.22l-1.95 2.48a.57.57 0 0 1-.2 0l-2.07-2.7v-.23Z" fill="#0F1E9A"/><path d="m25.85 28.2.63.88a.3.3 0 0 1-.18 0l-.46-.63a.53.53 0 0 1 0-.24Z" fill="#30318E"/><path d="M30.06 28.31c.03.1.03.2 0 .32l-.21.45a.24.24 0 0 1-.16 0l.37-.77Z" fill="#0F1E9A"/><path d="M30.06 28.63v.42c0 .01 0 .03-.02.03a.39.39 0 0 1-.2 0l.22-.45Z" fill="#F0F3FA"/><path d="M21.9 29.43h-2.92a.05.05 0 0 0-.05.05v.65c0 .03.02.06.05.06h2.92c.03 0 .05-.03.05-.06v-.65a.05.05 0 0 0-.05-.05ZM36.89 29.43h-2.95a.04.04 0 0 0-.04.04v.68c0 .02.02.04.04.04h2.95c.02 0 .04-.02.04-.04v-.68a.04.04 0 0 0-.04-.04Z" fill="#DE3A31"/><path d="M29.39 29.65h-2.87a.04.04 0 0 0-.04.05v.6c0 .03.02.04.04.04h2.87c.02 0 .04-.01.04-.04v-.6a.04.04 0 0 0-.04-.05Z" fill="#30318E"/><path d="M39.47 35.7v-.03a.64.64 0 0 0-.17-.15c-.01-.01-.02 0 0 .01.03.06.08.12.14.17h.03v.06l1.09 1.55c.03.04.03.08 0 .12l-.23.28c-.02.02-.03.03-.06.02-.52-.22-1.03-.44-1.53-.67a.17.17 0 0 0-.1-.01v-.03h-.02a11.29 11.29 0 0 1-.42-.2v.02a10.14 10.14 0 0 1 .41.26v.02l.01.01 1.27 1.02c.03.02.03.05.01.08l-.24.3c-.03.04-.06.04-.1.01l-1.96-1.57c-.01-.02-.02-.03 0-.05l.48-.6c.01-.02.03-.02.04-.02l1.66.72c.03.01.04 0 .05-.02a41.02 41.02 0 0 1-1.02-1.54l.47-.6c.01-.02.03-.02.05 0l2 1.6v.03l-.3.36c0 .02-.02.02-.04.01-.48-.37-.96-.75-1.43-1.14l-.09-.02ZM18.35 38.13l.66-.67c.02-.02.04-.02.06 0l.33.32c.02.02.03.04 0 .06l-1.76 1.81c-.02.02-.04.02-.06 0l-.35-.33c-.02-.02-.02-.05 0-.07l.73-.74c.02-.02.02-.04 0-.06l-.7-.68c-.02-.02-.04-.02-.06 0l-.74.76c-.02.02-.04.02-.06 0l-.34-.33c-.02-.02-.02-.04 0-.06l1.77-1.8c.02-.03.04-.03.06 0l.35.33c.02.02.02.04 0 .06l-.65.66c-.02.02-.02.04 0 .06l.7.68c.02.03.04.03.06 0Z" fill="#DE3A31"/><path d="M38.64 37.05a.11.11 0 0 0-.03.05h-.04a10.14 10.14 0 0 0-.37-.27h.02a11.65 11.65 0 0 0 .42.22ZM39.84 37.06c.02.02.05.03.06.02.01-.01 0-.04-.02-.06-.02-.02-.04-.03-.05-.02-.01.01 0 .04.01.06Z" fill="#F0F3FA"/><path d="m37.36 39.71.21.55v.04l-.38.3c-.03.02-.04.02-.06-.02l-.95-2.49c0-.01 0-.03.02-.04l.51-.4a.03.03 0 0 1 .04-.01l2.33 1.38.02.03-.01.03-.4.32a.03.03 0 0 1-.05 0l-.51-.3h-.04l-.72.57v.04Z" fill="#DE3A31"/><path d="m37.15 39.24-.41-1v-.02h.03l.91.58c.02 0 .02.02 0 .03l-.5.42h-.03Z" fill="#F0F3FA"/><path d="M19.8 39.11a.58.58 0 0 0 .16.23c.2.23.35.41.43.54.13.23.17.42.1.6a.84.84 0 0 1-.41.46c-.2.1-.4.1-.62.01-.34-.13-.6-.3-.77-.53a.83.83 0 0 1-.1-.88c0-.03.02-.03.04-.02l.4.26c.03.02.04.04.03.08-.04.16-.02.29.07.39.1.12.2.2.34.26.16.06.3.03.39-.08.07-.1.08-.2.03-.33-.04-.07-.1-.17-.22-.29a3.13 3.13 0 0 1-.31-.38.93.93 0 0 1-.17-.43.75.75 0 0 1 .4-.62c.2-.1.43-.1.69 0 .21.09.4.22.57.4.22.27.27.55.15.87-.02.04-.04.04-.07.02l-.4-.25c-.02-.02-.03-.04-.02-.06.08-.24-.03-.42-.33-.56-.08-.04-.15-.04-.2-.02a.31.31 0 0 0-.17.13.22.22 0 0 0 0 .2ZM35.7 40.5c0 .05.02.08.05.08.02 0 .03 0 .02-.03 0-.02-.02-.04-.06-.06 0-.03 0-.05-.02-.07l-.8-1.43c0-.03 0-.05.03-.06l.36-.2c.03-.02.05-.01.07.02l1.2 2.22c.02.02.01.03 0 .04l-.53.29h-.05l-1.76-1.14h-.03c-.03.01-.03.04-.01.08.32.56.6 1.07.84 1.53.02.02.01.04-.01.05l-.38.2c-.03.02-.05.01-.06-.01l-1.2-2.21c-.02-.03-.01-.04.01-.06l.55-.3h.05l1.66 1.05c.02.02.04.02.06.01ZM23.23 39.95l.5.22v.03l-1.92 1.96h-.01l-.6-.26v-.01l.2-2.7c0-.02.01-.03.03-.02l.53.23v.01l-.24 2.12.01.01h.02l1.46-1.58h.02ZM31.67 42.93l-.52-1.99c0-.03-.03-.04-.06-.03l-.69.18c-.03 0-.05 0-.05-.03l-.1-.35c0-.03 0-.05.04-.05l2.01-.53c.03 0 .05 0 .06.03l.1.37c0 .03-.01.04-.04.05l-.69.18c-.03 0-.04.03-.03.05l.51 1.98c.01.03 0 .05-.03.05l-.46.12c-.03.01-.05 0-.05-.03ZM25.3 42.57c.01.05.03.06.06 0l1-1.85h.04l.5.08s.02 0 .02.02v.03l-1.36 2.33a.05.05 0 0 1-.05.02l-.6-.1c-.01 0-.03-.02-.03-.04l-.45-2.64c0-.02.01-.03.04-.03l.51.09c.04 0 .05.02.06.05l.27 2.04Z" fill="#DE3A31"/><path d="M35.7 40.5v-.01c.05.02.07.04.07.06 0 .02 0 .03-.02.03-.03 0-.05-.03-.06-.08Z" fill="#F0F3FA"/><path d="m30.13 41.73.03.37c0 .03-.01.05-.04.05l-1.17.1c-.03 0-.05.01-.05.04l.05.57c0 .03.02.04.05.04l1.3-.1c.03 0 .05 0 .04.04l-.03.38c0 .02-.01.04-.04.04l-1.79.14c-.03 0-.04 0-.04-.04l-.2-2.5c-.01-.03 0-.05.03-.05l1.78-.14c.03 0 .04.01.05.04l.03.37c0 .03-.01.05-.04.05l-1.23.1c-.03 0-.05.02-.04.05l.03.46c0 .03.02.04.05.04l1.18-.1c.03 0 .04.02.05.05ZM27.67 40.79l-.47-.03a.05.05 0 0 0-.05.05l-.11 2.5c0 .02.02.05.04.05l.48.02c.02 0 .05-.02.05-.05l.1-2.5a.05.05 0 0 0-.04-.04Z" fill="#DE3A31"/></svg>