<!-- by TradingView --><svg width="56" height="56" viewBox="0 0 56 56" xmlns="http://www.w3.org/2000/svg"><path fill="#F0F3FA" d="M0 0h56v56H0z"/><ellipse cx="16.25" cy="27.5" rx="4.75" ry="5.5" fill="#F3EC18"/><path fill-rule="evenodd" d="M18.5 24h10.68c1.02 0 1.85.93 1.85 2.08 0 1.12-.78 1.87-1.76 1.92l2.15 2.91L34.09 24H36.08l2.71 7h-1.75l-1.95-5.29L33.13 31h-3.58l-2.13-3H27v3h-2v-5.7h-2V31h-2v-5.7h-2.5V24Zm9.78 1H27v2h1.28c.4 0 .72-.45.72-1s-.32-1-.72-1ZM8 24H6v4.06c-1.1.26-1.75.62-2 .85.29-.13.9-.3 2-.42V31h2v-2.61h.56c.41 0 .9.07 1.44.2V31h2v-1.79l2.5.96c2.3.91 4.63 1.83 6.1 1.83 2.35 0 3.56-.83 3.87-1.24-2.26 1-4.22.37-6.1-.23l-.45-.14c-.4-.12-.84-.3-1.32-.5.81-.32 1.4-1.27 1.4-2.39 0-1.38-.9-2.5-2-2.5s-2 1.12-2 2.5c0 .54.14 1.04.37 1.45-.74-.3-1.53-.57-2.37-.79V24h-2v3.8a10.75 10.75 0 0 0-2-.02V24Zm36 .62v1.59a2.71 2.71 0 0 0-2-.96c-1.77 0-1.98 1.5-2 2.26-.02.9.44 2.24 2 2.24 1.21 0 2.39-1.27 3-2.25 0-1.93 1.08-3.5 3.5-3.5s3.5 1.57 3.5 3.5-1.1 3.5-3.5 3.5c-1.67 0-2.7-.76-3.19-1.87A3.95 3.95 0 0 1 42 31c-1.9 0-3.88-.92-3.88-3.32S39.63 24 41.54 24c1.53 0 2.24.42 2.46.62Zm6 2.88c0 1.38-.47 2.5-1.5 2.5S47 28.88 47 27.5s.46-2.5 1.5-2.5 1.5 1.12 1.5 2.5Z" fill="#272974"/><path d="M12.5 30.43c-2.86 0-4.97.75-5.66 1.12 5.87-.91 8.45.21 13.94 2.5 4.4 1.82 7.68.62 8.77-.22-2.67.93-6.54-.2-8.14-.87-1.77-.85-6.04-2.53-8.9-2.53Z" fill="#48C1D4"/></svg>