<!-- by TradingView --><svg width="56" height="56" viewBox="0 0 56 56" xmlns="http://www.w3.org/2000/svg"><path fill="#F0F3FA" d="M0 0h56v56H0z"/><path d="M45 28a16.84 16.84 0 0 1-4.98 12.02A16.84 16.84 0 0 1 28 45a16.84 16.84 0 0 1-12.02-4.98A16.84 16.84 0 0 1 11 28a16.84 16.84 0 0 1 4.98-12.02A16.84 16.84 0 0 1 28 11a16.84 16.84 0 0 1 12.02 4.98A16.84 16.84 0 0 1 45 28Z" fill="#0B81BE"/><path d="M27.35 12.9v1.87c0 .05-.02.07-.07.07h-.7c-.07 0-.1-.04-.1-.11V11.9c0-.05.02-.08.07-.08h1.15c.07 0 .11.04.14.1l.53 1.52c.03.1.07.1.1 0l.58-1.48a.12.12 0 0 1 .13-.08h1.11c.06 0 .08.02.08.08v2.85c0 .08-.03.11-.11.11h-.64c-.07 0-.1-.03-.1-.1v-1.8c0-.1-.03-.09-.08.03l-.67 1.62a.1.1 0 0 1-.1.07h-.48a.14.14 0 0 1-.14-.1c-.4-1.11-.6-1.69-.63-1.74-.05-.08-.07-.07-.07 0ZM21.03 14.99l-.35-.91a.5.5 0 0 1 0-.4.5.5 0 0 1 .31-.28l2-.7a.42.42 0 0 1 .33.03c.1.05.18.13.22.24l.19.56c.02.06 0 .1-.06.12l-.5.17c-.08.03-.13 0-.17-.07a.46.46 0 0 0-.14-.16c-.03-.03-.07-.04-.1-.03l-1.05.36c-.14.05-.19.14-.15.28a6.53 6.53 0 0 0 .4 1c.06.14.16.17.29.11l1.02-.44c.03-.01.05-.04.06-.08a.45.45 0 0 0 0-.22c-.04-.08-.01-.13.06-.16l.5-.22c.05-.02.1 0 .12.05l.23.54c.05.11.05.22 0 .33a.42.42 0 0 1-.22.24l-1.94.84a.5.5 0 0 1-.41 0 .5.5 0 0 1-.29-.3l-.35-.9ZM33.37 15l-.3.61c-.03.07-.08.09-.15.06l-.5-.24c-.07-.04-.1-.1-.06-.17l1.2-2.47c.02-.05.06-.06.1-.04.69.34 1.34.66 1.97.95.18.09.27.3.25.66-.01.2-.14.5-.4.9-.18.28-.46.38-.85.28a4.18 4.18 0 0 1-1.14-.57c-.05-.04-.1-.02-.12.04Z" fill="#F0F3FA"/><path d="M33.99 13.7c.02-.06.06-.07.11-.05l.76.38c.08.04.13.1.15.19.03.08.02.17-.02.25l-.08.16a.32.32 0 0 1-.19.17.29.29 0 0 1-.24-.02l-.75-.38c-.06-.02-.07-.06-.04-.12l.3-.59Z" fill="#0B81BE"/><path d="m18.82 16.5.96.96c.07.06.07.12 0 .18l-.4.4c-.06.06-.12.06-.18 0l-.68-.66c-.02-.02-.06 0-.11.04a19.36 19.36 0 0 0-.94.95c-.04.05-.05.1-.03.11l.66.67c.06.07.06.13 0 .19l-.4.4c-.06.07-.12.07-.18 0a240.03 240.03 0 0 1-1.93-1.9c-.06-.06-.06-.12 0-.18l.4-.4c.06-.07.12-.07.18 0l.68.65c.02.02.06 0 .12-.04a25.15 25.15 0 0 0 .93-.95c.05-.05.06-.09.04-.11l-.66-.67c-.07-.06-.07-.12 0-.19l.39-.4c.06-.06.12-.06.18 0l.97.95Z" fill="#F0F3FA"/><path d="M38.79 21.97c-.5.2-1.04.3-1.62.32-.38.01-.93-.02-1.65-.1a6.94 6.94 0 0 0-1.48.04c-.46.05-.82.08-1.08.08l-4.84.02c-.5 0-.96.16-1.35.46l-1.25-3.26a.22.22 0 0 0-.15-.14l-2.05-.54c-.43.34-.81.73-1.13 1.18-.03.1-.13.2-.3.3a.24.24 0 0 0-.11.11l-.53 1.15c-.46.44-1.1.68-1.9.72a6.37 6.37 0 0 1-2.06-.26 12.52 12.52 0 0 1 6.11-5.42 12.17 12.17 0 0 1 8.18-.4 12.26 12.26 0 0 1 7.2 5.74Z" fill="#B7D3E1"/><path d="m38.21 17.19-.39.37c-.1.11-.09.22.01.32l.79.78c.02.03.06.03.1.03a.45.45 0 0 0 .2-.1c.06-.04.12-.04.18.01l.38.39c.04.04.04.08 0 .13l-.42.41a.41.41 0 0 1-.3.13.42.42 0 0 1-.3-.13l-1.5-1.5a.5.5 0 0 1-.16-.37.5.5 0 0 1 .17-.38 230.93 230.93 0 0 0 1.43-1.32.5.5 0 0 1 .39-.14.5.5 0 0 1 .37.18l1.37 1.6c.08.1.11.2.1.32a.42.42 0 0 1-.15.3l-.44.38c-.05.04-.1.04-.13-.01l-.35-.41c-.05-.06-.05-.12 0-.18.05-.04.08-.1.1-.19.02-.04.01-.08 0-.1l-.73-.85c-.1-.1-.2-.12-.31-.03l-.4.36Z" fill="#F0F3FA"/><path d="m26.77 22.8 1.67 4.33c.02.06.06.08.12.06l.57-.18c-.02.06-.02.1 0 .13.04.02.06.03.08 0l-.62.22c-.05.02-.06.05-.04.1l.59 1.5.03.03h.05l.04.14a.11.11 0 0 0-.04.05l.01.05a61.95 61.95 0 0 1 .57 1.45h.04c0 .05.03.1.05.16l3.13 8.3c-.39.25-.81.4-1.26.47l-6.38-19.88a.4.4 0 0 0-.26-.26l-1.8-.62 2.05.54c.07.02.12.07.15.14l1.25 3.26Z" fill="#2C2B63"/><path d="m23.32 18.85 1.8.62a.4.4 0 0 1 .26.26l6.38 19.88c-.17.17-.33.23-.49.19l-6.13-20.05a.11.11 0 0 0-.1-.08l-.08-.01c-.04 0-.05.02-.04.06l5.2 20.36a10.8 10.8 0 0 1-4.04 0l-.15-1.96c0-.06-.03-.1-.09-.12l-3.33-1.2c-.05-.01-.08 0-.08.06l-.07 1.94c-.04 0-.08 0-.11-.02-.9-.47-1.72-1.05-2.45-1.73l3.34-17.58c0-.06-.01-.07-.05-.04l-.9.6c.32-.45.7-.84 1.13-1.18Z" fill="#F0F3FA"/><path d="M19.8 37.05a12.4 12.4 0 0 1-3.24-4.77c.06-.01.1-.05.1-.1 0-.04 0-.07-.04-.09-.02-.01-.06-.02-.1-.01a.38.38 0 0 1-.1-.15l.29-.02a.1.1 0 0 0 .09-.06l.46-1.08c.02-.03 0-.05-.03-.05l-1.14.03a.33.33 0 0 1-.05-.21h1.23c.06 0 .1-.02.12-.07l.55-1.23v-.03l-.04-.02c.02-.02.03-.07.01-.17.03.02.06.02.1 0a23030.67 23030.67 0 0 1 3.24-7.43l.53-1.15a.24.24 0 0 1 .1-.12c.18-.1.28-.2.3-.3l.9-.59c.05-.03.07-.02.06.04L19.8 37.05ZM24.43 19.92l.04.31c.02.09-.02.11-.1.08l-.63-.25c-.05-.02-.07-.05-.07-.1l.03-.37c0-.03.02-.05.05-.03l.57.22c.06.03.1.07.1.14ZM31.27 39.8l-1.16.28-5.2-20.36c0-.04.01-.06.05-.06h.07c.06.01.1.04.11.1l6.13 20.04Z" fill="#2C2B63"/><path d="M22.4 21a10.43 10.43 0 0 0-.4.1c-.05.03-.08 0-.08-.06a.56.56 0 0 1 .15-.37.56.56 0 0 1 .37-.15c.07 0 .1.03.08.1a13.3 13.3 0 0 0-.11.39Z" fill="#F0F3FA"/><path d="M21.25 21.59a25541.55 25541.55 0 0 0-3.24 7.43c-.04.02-.07.02-.1 0l-2.1.08c-.21-2.5.28-4.85 1.48-7.05.74.21 1.42.3 2.06.26a2.85 2.85 0 0 0 1.9-.72Z" fill="#CADEE9"/><path d="m23.6 21.56.95.3c.04.01.06.03.06.07l.04.57c0 .04-.02.05-.06.04l-1.05-.33c-.03-.01-.04-.03-.04-.06l.04-.56c0-.03.02-.04.05-.03Z" fill="#2C2B63"/><path d="M38.79 21.97a11.72 11.72 0 0 1 1.55 6l-.05.1a38.16 38.16 0 0 1-4.59-1.25.25.25 0 0 1-.18-.25l-.06-.95c0-.12.05-.17.16-.17l.42.02c.36.02.4-.08.1-.3l-.59-.43a.19.19 0 0 1-.07-.15l-.14-2.33c0-.04-.03-.07-.08-.06l-.55.03c-.05 0-.07.03-.07.07l-.18 2.3c0 .07-.04.11-.1.13l-1.54.53a.15.15 0 0 0-.1.11.73.73 0 0 1-.43.51c-1.04.43-2.1.8-3.16 1.13l-.57.18c-.06.02-.1 0-.12-.06l-1.67-4.34c.39-.3.84-.46 1.35-.46l4.84-.02c.26 0 .62-.03 1.08-.08a6.94 6.94 0 0 1 1.48-.05c.72.09 1.27.12 1.65.11a4.71 4.71 0 0 0 1.62-.32Z" fill="#CADEE9"/><path d="m22 22.88-.02.02-.58.07c-.07.01-.1-.02-.08-.1a2.25 2.25 0 0 1 .2-.5l.03-.02c.18-.08.35-.13.49-.15.08-.02.1.01.1.08l-.12.58-.01.01Z" fill="#F0F3FA"/><path d="M40.3 28.07c.04.02.04.07.01.16l-3.3-.82c-.06-.02-.1 0-.1.06l-.03.1c-.02.05-.05.08-.1.08h-1.29c-.04.03-.11.02-.2-.03-.04-.02-.08-.01-.11.02a.1.1 0 0 0-.02.06c0 .04 0 .08.04.11.08.07.18.08.32.03v.92c0 .08.03.14.1.16 1.48.5 2.97.86 4.48 1.09.04.04.03.09-.04.15a20.18 20.18 0 0 1-3.87-.89l-.02.02c-.02.02-.01.04.03.07.07.04.1.1.09.18-.02.06-.05.09-.12.08l-.52-.04c-.1 0-.14.04-.13.14l.1.73c.02.11.09.18.2.2l4.01.93c.01 0 0 .05-.06.14a35.46 35.46 0 0 1-4-.9c-.05-.02-.07 0-.07.05l.72 6.03c-.01.1-.05.14-.13.13l-.16-.97c-.01-.04-.03-.05-.07-.03l-.83.48c-.06.03-.06.07 0 .1l.95.56c.02.06-.02.1-.14.14l-.89-.54a.28.28 0 0 0-.31 0l-.95.61c-.09.06-.09.12 0 .18l.93.53c-.03.07-.07.1-.13.1l-.91-.54c-.06-.03-.08-.01-.1.04l-.15 1.29c-.06.05-.12.06-.18.03l.97-8.57c0-.05-.01-.09-.06-.1l-1.34-.48a.29.29 0 0 0-.19 0l-2.84.98a.47.47 0 0 1-.04-.15l2.4-.81c.25-.1.4-.22.44-.39.01-.06.05-.1.1-.11l1.42-.43c.3-.1.31-.2.01-.32l-1.58-.62a.21.21 0 0 0-.14 0l-3.24 1.12-.04-.14 2.9-1.03c.05-.02.1-.05.12-.1.07-.1.1-.22.11-.34a.1.1 0 0 1 .08-.1l1.91-.51c.05-.02.07-.04.08-.09l.01-.2c0-.06-.02-.1-.08-.13l-1.24-.5c-.22-.1-.38-.12-.5-.07-1.1.48-2.24.89-3.4 1.23-.02.02-.04.01-.07-.01-.03-.03-.03-.07-.01-.13 1.07-.32 2.12-.7 3.16-1.13.22-.09.36-.26.43-.5.02-.07.05-.1.1-.12l1.54-.53a.13.13 0 0 0 .1-.12l.18-2.3c0-.05.03-.08.07-.08l.55-.03c.05 0 .08.02.08.06l.14 2.33c0 .06.03.1.07.15l.6.43c.29.22.25.32-.11.3l-.42-.02c-.11 0-.17.05-.16.17l.06.95c0 .13.07.2.18.25 1.48.5 3 .92 4.6 1.25Z" fill="#0E0B0B"/><path d="M34.94 22.4c0-.05.02-.05.05-.02l.03.03c.01.02.01.03-.01.04-.05.04-.08.02-.07-.05ZM35.13 22.56l.02.08c0 .02 0 .04-.02.05l-.02.03c-.03.02-.04.02-.04-.02v-.12c0-.09.02-.1.06-.02ZM34.78 22.61c.03-.04.05-.03.08.04l-.01.03c-.03.03-.05.02-.07-.02v-.05ZM35.01 22.84c.07.06.1.13.08.19-.01.06-.04.07-.09.02-.06-.06-.09-.12-.08-.17 0-.02.01-.04.03-.05l.06.01Z" fill="#B7D3E1"/><path d="M34.79 23.24c.04-.04.06-.03.07.02.01.06 0 .1 0 .14-.05.11-.1.11-.12 0-.01-.07 0-.12.05-.16Z" fill="#CADEE9"/><path d="M35.12 23.31c.02-.06.06-.07.1-.02.07.08.07.13-.01.15-.02 0-.04 0-.06-.02-.04-.03-.05-.07-.03-.1Z" fill="#B7D3E1"/><path d="M34.93 23.8c-.09-.01-.13-.07-.12-.18 0-.01.03-.03.09-.05.05-.02.1-.02.15.01.06.03.09.08.1.14 0 .06-.03.1-.1.09l-.12-.01Z" fill="#CADEE9"/><path d="m23.31 24.62.08-.97c0-.03.01-.04.04-.03l1.3.4c.04.02.06.04.06.08l.06.98c0 .04-.02.05-.06.04l-1.45-.45c-.02 0-.03-.03-.03-.05Z" fill="#2C2B63"/><path d="M35.18 24.12c.04.02.08.04.12.08.03.04.04.08.03.13a.12.12 0 0 1-.1.08h-.05c-.04-.02-.06-.05-.06-.09.02-.14-.06-.22-.23-.26-.04-.01-.05-.03-.03-.07l.02-.04.02-.01c.08 0 .15.04.19.1.02.04.05.06.09.08Z" fill="#B7D3E1"/><path d="m21.45 25.02-.85.2c-.04 0-.05-.01-.04-.06l.26-.84c.02-.06.06-.1.12-.11l.75-.18c.06-.01.08.01.07.07l-.27.87c0 .03-.02.04-.04.05Z" fill="#F0F3FA"/><path d="M34.6 24.24c-.03.09 0 .18.05.2.05.02.12-.04.16-.13.03-.1.01-.19-.04-.2-.06-.02-.13.03-.16.13Z" fill="#B7D3E1"/><path d="M34.88 24.66c-.06 0-.08-.02-.06-.08l.02-.07a.1.1 0 0 1 .08-.08c.1-.01.17.04.21.17v.06a.05.05 0 0 1-.07.01.58.58 0 0 0-.18 0Z" fill="#DEEBF1"/><path d="M34.96 24.85c.02 0 .02.02 0 .03-.03.04-.07.04-.13-.02a.05.05 0 0 1 0-.06c0-.02.02-.03.04-.04l.1.09Z" fill="#B7D3E1"/><path d="M34.46 25.02c-.02.09-.03.14-.02.17.03.06 0 .09-.08.1l-.9.01c-.16 0-.17-.02-.01-.07l.9-.31c.1-.04.13 0 .11.1Z" fill="#CADEE9"/><path d="M34.8 25.1c.05.04.1.05.13.04.13-.02.15.02.06.12l-.04.02a.1.1 0 0 1-.1-.06.9.9 0 0 0-.06-.09h-.11a.1.1 0 0 1-.1-.05c-.01-.02-.02-.03-.01-.04.04-.13.08-.14.13-.02.02.03.05.06.1.09ZM35.23 25.15h-.04c-.1-.03-.1-.07-.04-.14l.06-.06a.08.08 0 0 1 .08-.02c.03.01.05.03.05.06.01.04 0 .08-.01.12-.02.04-.05.05-.1.04Z" fill="#B7D3E1"/><path d="m35.63 25 .35.25c.04.03.03.05-.03.05-.18.02-.3.01-.38-.03-.08-.04-.1-.09-.1-.15l.02-.06c.02-.1.07-.12.14-.06ZM34.43 25.55v.67c0 .08-.04.1-.11.08l-.51-.2a3.3 3.3 0 0 1-.84-.41.12.12 0 0 1-.03-.15.12.12 0 0 1 .12-.07h1.28c.06 0 .09.02.09.08Z" fill="#CADEE9"/><path d="M34.59 25.6c0-.08.04-.1.1-.05.07.04.1.1.09.15 0 .04-.03.07-.07.08a.2.2 0 0 1-.07 0c-.04 0-.06-.02-.06-.07l.01-.11ZM35.25 25.76a.1.1 0 1 0 0-.2.1.1 0 0 0 0 .2Z" fill="#B7D3E1"/><path d="M34.78 26.15c-.08.12-.15.17-.2.15-.06-.02-.06-.05-.02-.08.17-.12.26-.24.27-.33 0-.07.04-.1.1-.1.1 0 .2.07.27.19v.07a.06.06 0 0 1-.06.03h-.21c-.06 0-.11.02-.15.07ZM29.22 28.99h-.05a.04.04 0 0 1-.03-.03l-.6-1.5c-.01-.05 0-.08.05-.1l.62-.21c1.16-.34 2.3-.75 3.4-1.23.12-.05.28-.03.5.06l1.24.51c.06.03.09.07.08.14l-.01.19c0 .05-.03.07-.08.09l-1.9.51a.1.1 0 0 0-.09.1c0 .12-.04.23-.1.34a.23.23 0 0 1-.13.1L29.22 29Z" fill="#CADEE9"/><path d="M35.3 26.2c.04.01.08 0 .1-.02 0-.02-.02-.06-.07-.07-.04-.02-.08-.01-.1.01 0 .03.03.06.07.08Z" fill="#B7D3E1"/><path d="M23.15 27.5c-.03 0-.05-.03-.05-.06l.1-1.17c0-.04.01-.05.04-.04l1.73.54c.03.01.05.03.05.07l.07 1.26-.01.01-1.93-.6Z" fill="#2C2B63"/><path d="M35 26.56c.1-.03.18-.11.16-.17-.02-.06-.12-.09-.23-.05-.11.03-.19.11-.17.17.02.06.12.09.24.05Z" fill="#CADEE9"/><path d="m19.7 27.66.4-1.1a.07.07 0 0 1 .06-.04l1-.14c.04-.01.06 0 .05.04l-.26 1.1c0 .01-.02.03-.04.03l-1.17.16c-.04 0-.05 0-.04-.05Z" fill="#F0F3FA"/><path d="M35.22 26.63c.1-.03.14 0 .13.1 0 .03-.02.06-.06.07-.09.04-.13 0-.14-.08 0-.05.02-.08.07-.1Z" fill="#CADEE9"/><path d="M34.57 26.72c.02-.1.06-.1.11-.02v.05c-.03.03-.05.03-.08.02-.02-.01-.04-.03-.03-.05ZM34.86 26.86c.06-.02.12 0 .17.03.08.07.07.1-.04.11-.04 0-.09-.02-.14-.06-.05-.03-.04-.06.01-.08Z" fill="#B7D3E1"/><path d="M34.44 27.37c0 .03 0 .04-.03.05h-.03c-.82.12-1.24.12-1.25.03-.01-.1.39-.2 1.21-.32h.03c.02 0 .04 0 .04.03l.03.2Z" fill="#CADEE9"/><path d="M34.75 27.2c.03.04.03.07 0 .1a.13.13 0 0 1-.05.03c-.05.02-.09.01-.1-.03a.15.15 0 0 1-.02-.1c.02-.1.06-.1.12-.04l.05.04ZM35.19 27.28c-.02-.03-.03-.05-.01-.08.02-.03.05-.05.08-.06a.1.1 0 0 1 .08.02.1.1 0 0 1 .05.08c0 .08-.04.1-.1.08a.27.27 0 0 1-.1-.04Z" fill="#B7D3E1"/><path d="M36.05 27.43c-.28.05-.46.03-.52-.06-.04-.05-.05-.1-.04-.15l.02-.04c.02-.03.05-.04.08-.03l.56.13c.02 0 .04.02.04.04 0 .03 0 .05-.02.07a.24.24 0 0 1-.12.04Z" fill="#CADEE9"/><path d="M34.93 27.4a.2.2 0 0 1 0-.06c0-.08.04-.12.1-.11h.05c.06-.02.07 0 .02.04-.09.1-.13.21-.13.35 0 .03-.02.04-.05.02a.11.11 0 0 1-.04-.03v-.02l.05-.1a.15.15 0 0 0 0-.1ZM36.58 27.33c0-.03.02-.05.05-.04.04 0 .06.01.06.03 0 .08-.04.1-.1.07l-.01-.06Z" fill="#B7D3E1"/><path d="M40.3 28.23c.04 0 .06.03.06.07l-.12 1.6c0 .04-.01.07-.03.09a.23.23 0 0 1-.11.02c-1.5-.23-3-.6-4.48-1.09-.07-.02-.1-.08-.1-.16v-.92l-.03-.19h1.28c.06 0 .1-.03.1-.08l.03-.1c.01-.06.05-.08.1-.06l3.3.82ZM32.62 27.82c-.02 0-.04-.03-.03-.05 0-.06.02-.1.05-.13.02-.02.05-.03.1-.03h1.6c.04 0 .07.03.07.07v.76c0 .05-.03.07-.09.05l-1.7-.67Z" fill="#DEEBF1"/><path d="m35.5 27.65.02.2c-.14.04-.24.03-.32-.04a.12.12 0 0 1-.04-.1c0-.03 0-.05.02-.07.03-.03.07-.04.11-.02.09.05.16.06.2.03Z" fill="#2C2B63"/><path d="M34.57 27.68c.03-.05.06-.06.11-.04.05.03.06.07.05.12a.17.17 0 0 1-.08.1c-.04.03-.07.02-.09-.03-.02-.04-.02-.1.01-.15Z" fill="#B7D3E1"/><path d="M34.94 28.07c.08 0 .15-.03.15-.08 0-.04-.07-.08-.16-.07-.08 0-.15.03-.15.08 0 .04.07.07.16.07Z" fill="#2C2B63"/><path d="m29.85 30.69-.05-.01a61.6 61.6 0 0 0-.58-1.5l.04-.05 3.24-1.12c.05-.02.1-.02.14 0l1.58.62c.3.12.3.23-.01.32l-1.43.43c-.04.01-.08.05-.1.11-.03.17-.18.3-.43.39-.8.28-1.6.55-2.4.8Z" fill="#DEEBF1"/><path d="M34.77 28.34c-.1.05-.17.03-.2-.07a.21.21 0 0 1 .02-.13c.02-.03.04-.03.07 0l.12.11c.03.04.08.05.13.02.04-.03.08-.03.13 0 .03 0 .03.02.02.04l-.07.18c0 .02-.02.03-.04.03s-.03-.01-.04-.03l-.03-.1c-.02-.06-.06-.08-.1-.05Z" fill="#2C2B63"/><path d="M35.43 28.28c.01.06-.01.08-.07.07l-.13-.03c-.04 0-.06-.03-.06-.07 0-.04.01-.07.05-.08.12-.05.19-.01.2.11ZM35.2 28.62c.1-.04.18-.02.23.07.03.06.01.09-.06.1a.34.34 0 0 1-.19-.05.06.06 0 0 1-.03-.07c0-.03.02-.05.05-.05ZM34.58 28.68c0-.05.01-.08.07-.08.03 0 .06.02.09.05.02.03.02.06 0 .08-.03.03-.06.03-.1.02-.04-.01-.06-.04-.06-.07Z" fill="#B7D3E1"/><path d="m18.82 30.4.37-1.2a.3.3 0 0 1 .24-.22l1.08-.23c.12-.02.17.03.14.14l-.3 1.29a.23.23 0 0 1-.2.19l-1.2.17c-.13.01-.17-.04-.13-.15Z" fill="#F0F3FA"/><path d="M34.86 28.94c.05-.04.1-.04.14-.02.04.02.04.04 0 .07a.13.13 0 0 1-.13.02c-.05-.02-.05-.04-.01-.07Z" fill="#B7D3E1"/><path d="M17.91 29.02c.02.1.01.15-.01.17l-2.03.07c-.02.03-.03-.02-.06-.16l2.1-.08Z" fill="#0E0B0B"/><path d="m22.87 30.63.12-1.48c0-.05.02-.06.06-.05l2.19.69c.02 0 .03.02.03.04l.1 1.55c0 .05-.02.06-.07.05l-2.4-.75c-.02 0-.03-.03-.03-.05Z" fill="#2C2B63"/><path d="M34.33 29.06c.1-.03.13 0 .1.11l-.02.16c.03.07 0 .1-.08.1h-.9c-.16 0-.17-.03-.01-.08l.91-.29Z" fill="#DEEBF1"/><path d="M34.59 29.16c0-.03.01-.05.04-.05.05 0 .07.02.08.06v.1c-.03.1-.07.1-.11 0a.34.34 0 0 1-.01-.1Z" fill="#B7D3E1"/><path d="M35.94 29.41c-.01.05-.15.04-.41-.04a.09.09 0 0 1-.07-.09.1.1 0 0 1 .01-.04.1.1 0 0 1 .03-.04c.03-.03.06-.04.1-.03.25.11.36.2.34.24ZM17.9 29.19l.04.02v.03l-.55 1.23a.11.11 0 0 1-.12.08l-1.23-.01-.17-1.28 2.03-.07Z" fill="#DEEBF1"/><path d="M34.92 29.26c.02-.01.04-.02.07-.01.02 0 .03 0 .04.02a.2.2 0 0 1 .03.04c0 .03 0 .04-.03.04h-.1c-.09 0-.1-.03 0-.1Z" fill="#B7D3E1"/><path d="M40.06 30.16c.02-.02.04-.02.06 0 .03.02.04.05.03.1l-.32 1.32-4.01-.92a.23.23 0 0 1-.2-.21l-.1-.73c-.01-.1.03-.15.13-.14l.52.04c.07 0 .1-.02.11-.08.02-.08-.01-.14-.08-.18-.04-.03-.05-.05-.03-.07l.02-.02h.04c1.25.42 2.53.72 3.83.89ZM34.4 29.64l-.03.47c0 .03-.02.04-.06.04a4.64 4.64 0 0 1-1.3-.47c-.12-.08-.11-.11.05-.1l1.33.04s.02 0 .01.02ZM34.94 29.71c.07.02.13-.01.13-.05.01-.05-.04-.1-.1-.1-.07-.01-.13.01-.14.06 0 .04.04.08.11.1ZM34.58 30.11c-.04.03-.06.02-.07-.03-.02-.13-.01-.21.02-.25.17-.18.25-.15.23.1 0 .04-.06.1-.18.18ZM35.2 29.73c.06-.06.1-.05.13.03a.7.7 0 0 1 .06.27c0 .06-.04.08-.1.05a.26.26 0 0 1-.12-.12c-.04-.08-.03-.16.03-.23ZM33.35 39.01c0 .14-.1.18-.33.13l-3.13-8.3 2.84-.98a.29.29 0 0 1 .2 0l1.33.48c.05.01.07.05.06.1l-.97 8.57ZM35 30.05c.1.06.21.16.31.3.03.03.05.06.05.1 0 .05-.03.07-.1.05l-.41-.16c-.07-.03-.1-.08-.08-.15.04-.15.11-.2.22-.14ZM34.8 30.58a.35.35 0 0 1-.07-.07c-.02-.07 0-.09.05-.06.12.05.22.12.3.2.05.05.04.08-.03.08-.09 0-.15-.03-.18-.08a1.3 1.3 0 0 0-.07-.07Z" fill="#DEEBF1"/><path d="m14.34 30.7.6-.16c.05-.01.07 0 .09.04l.72 2.68c.01.04 0 .07-.05.08l-.53.15c-.04 0-.07 0-.08-.05l-.23-.82c0-.05-.03-.06-.08-.05l-2.14.58c-.05.01-.07 0-.08-.05l-.2-.7c0-.05 0-.08.05-.09l2.07-.56c.05-.01.06-.04.05-.08l-.24-.89c-.01-.04 0-.07.05-.08Z" fill="#F0F3FA"/><path d="m34.56 30.62.2.11c.06.04.07.1.02.15-.08.11-.2.21-.34.3-.07.05-.1.03-.08-.06l.12-.47c0-.04.03-.06.08-.03ZM35.48 31.2l-.29-.3c-.08-.07-.06-.13.04-.16l.11-.05c.06-.02.1 0 .13.05.07.17.1.32.07.44 0 .04-.03.05-.06.02ZM16.41 31.93l-.32-1.18 1.13-.03c.04 0 .06.02.04.05l-.46 1.08a.1.1 0 0 1-.1.06l-.29.02ZM39.77 31.72c-.62 1.98-1.7 3.7-3.24 5.13a.19.19 0 0 1-.11.05l-.72-6.03c0-.05.02-.07.07-.06 1.31.38 2.65.68 4 .91ZM34.99 31h.03a11.43 11.43 0 0 0 .44.39v.06l-.02.02a13.16 13.16 0 0 0-.47.35l-.04-.01a11.57 11.57 0 0 0-.43-.38.37.37 0 0 1-.01-.03l.01-.03.01-.02A11.31 11.31 0 0 0 35 31ZM34.6 31.73l.14.12c.04.04.03.08-.01.11-.26.19-.4.27-.44.25-.03-.03-.01-.19.06-.5 0-.05.04-.07.1-.05.05.01.1.04.15.07ZM35.6 32.19l-.32-.18c-.08-.05-.08-.1-.02-.17l.2-.19c.07-.08.12-.06.14.05l.08.43c.01.08-.02.1-.08.06Z" fill="#DEEBF1"/><path d="m19.35 34.25-1.56-.6c-.04-.03-.06-.06-.04-.1l.58-1.64a.07.07 0 0 1 .06-.04l1.56-.22c.07-.01.1.02.08.08l-.59 2.47c-.01.06-.04.07-.1.05Z" fill="#F0F3FA"/><path d="M34.97 32.01H35l.03.01.49.3c.03.01.04.04.04.07 0 .03 0 .06-.03.08a17.36 17.36 0 0 1-.53.32h-.03l-.5-.3a.09.09 0 0 1-.05-.07c0-.03.01-.06.04-.07a7.84 7.84 0 0 0 .52-.34Z" fill="#DEEBF1"/><path d="M16.56 32.28c-.06-.08-.08-.14-.05-.2l.11.01c.03.02.05.05.04.09-.01.05-.04.09-.1.1Z" fill="#B7D3E1"/><path d="m22.62 34.2.14-1.85c0-.05.03-.06.07-.05l2.69.84c.02 0 .04.03.04.05l.13 2.17c0 .06-.03.07-.08.05l-2.96-1.16c-.02 0-.03-.03-.03-.05Z" fill="#2C2B63"/><path d="m35.44 33.1-.3-.16c-.06-.03-.06-.06 0-.08a11.48 11.48 0 0 0 .56-.28l.02.03.09.59c0 .05-.01.07-.06.05l-.31-.16ZM34.16 33.18l.04-.5c0-.08.04-.1.11-.07l.42.25c.06.04.06.07 0 .1l-.48.28c-.07.04-.1.02-.1-.06Z" fill="#DEEBF1"/><path d="m41.81 35.23.61.28c.07.03.1.08.06.15l-.23.5c-.04.08-.1.1-.17.06l-2.49-1.15c-.04-.02-.05-.05-.03-.1.33-.69.63-1.35.9-1.98.1-.18.3-.27.66-.26.2 0 .5.13.9.37.3.18.4.47.3.86a4.16 4.16 0 0 1-.55 1.14c-.03.06-.01.1.04.13Z" fill="#F0F3FA"/><path d="M34.97 33.04h.04a7.23 7.23 0 0 1 .66.4.1.1 0 0 1-.01.07 7.06 7.06 0 0 1-.68.38h-.04a7.21 7.21 0 0 1-.66-.4.11.11 0 0 1 0-.04l.02-.03a7.24 7.24 0 0 1 .67-.38Z" fill="#DEEBF1"/><path d="M40.5 34.63c-.05-.02-.06-.05-.04-.1l.35-.76c.04-.08.1-.13.17-.17a.25.25 0 0 1 .21 0l.26.12c.07.03.11.09.14.16.02.08.01.16-.03.24l-.35.76c-.02.05-.06.06-.1.04l-.61-.29Z" fill="#0B81BE"/><path d="M34.46 33.8c.08.05.17.1.27.18.04.03.04.06 0 .08l-.62.36h-.03l-.02-.01v-.03l.04-.7c0-.06.03-.08.08-.05l.28.17ZM35.52 34.23l-.37-.19c-.06-.03-.06-.06 0-.09l.64-.32h.05l.02.03.1.7c0 .08-.02.1-.08.06l-.36-.19Z" fill="#DEEBF1"/><path d="m15.7 36.77-.43 1.2c0 .03-.01.03-.02.01l-.48-.7c-.02-.02-.02-.04 0-.08.21-.54.37-.93.48-1.16.06-.16.02-.29-.14-.4a.11.11 0 0 0-.14-.01l-.83.48c-.06.03-.11.02-.15-.04l-.35-.6c-.03-.06-.02-.11.04-.14l2.46-1.42c.02-.02.04-.01.06 0 .05.1.44.7 1.15 1.83.1.16.14.33.1.52a.69.69 0 0 1-.28.47c-.28.2-.5.32-.66.34-.24.04-.47-.07-.7-.32-.04-.06-.08-.05-.1.02Z" fill="#F0F3FA"/><path d="M34.95 34.12H35l.8.47c.05.04.05.07 0 .1l-.68.39a.17.17 0 0 1-.18 0l-.77-.45c-.04-.02-.04-.05 0-.07l.77-.44Z" fill="#DEEBF1"/><path d="M34.86 35.2v.01c-.3.17-.58.32-.87.45-.04.02-.06 0-.06-.04a25.54 25.54 0 0 0 0-.83c0-.04.02-.06.06-.04a10.89 10.89 0 0 1 .87.45ZM35.99 34.83a12.6 12.6 0 0 0 .12.75c0 .06-.02.08-.08.05l-.37-.2-.36-.19c-.06-.03-.06-.06 0-.1l.64-.32h.05Z" fill="#F0F3FA"/><path d="m16 34.98-.29.18a.1.1 0 0 0-.03.14l.56.9c.04.05.1.07.15.04l.29-.18a.1.1 0 0 0 .03-.15l-.56-.9a.1.1 0 0 0-.15-.03Z" fill="#0B81BE"/><path d="m34.94 36.46-.9-.52c-.04-.02-.04-.05 0-.08l.91-.52a.2.2 0 0 1 .2 0l.8.46c.02.01.03.03.03.06 0 .02 0 .04-.03.05l-.94.55c-.03.01-.05.01-.07 0ZM40.1 37.32l1.28.05c.02 0 .03 0 .01.02l-.52.67c-.01.02-.04.02-.08.02l-1.25-.1c-.17-.02-.28.06-.34.25-.02.05-.01.1.03.13l.71.65c.05.05.05.1.01.15l-.47.51c-.05.05-.1.06-.15.01l-2.1-1.92v-.06l1.4-1.64a.74.74 0 0 1 .46-.26c.2-.03.37.01.53.13.28.2.45.38.52.53.12.22.08.47-.1.76-.04.06-.02.1.06.1ZM36.3 37.03c0 .08-.04.13-.12.14l-.95-.55c-.06-.04-.06-.08 0-.11l.83-.48c.04-.02.06-.01.07.03l.16.97ZM34.33 36.3l.42.25c.04.03.04.06 0 .1a12.89 12.89 0 0 1-1 .57c.01-.4.04-.77.08-1.14 0-.05.03-.07.08-.04.14.1.27.18.42.26Z" fill="#F0F3FA"/><path d="m39.38 36.83-.27-.23a.1.1 0 0 0-.13.01l-.7.83a.1.1 0 0 0 .02.13l.27.23c.04.03.1.03.13-.01l.7-.83a.1.1 0 0 0-.02-.13Z" fill="#0B81BE"/><path d="M36.04 37.3c-.33.3-.67.57-1.03.8-.03.03-.06.04-.1.04a.16.16 0 0 1-.09-.05l-.92-.53c-.1-.06-.1-.12 0-.18l.94-.6c.1-.07.2-.07.31 0l.9.53Z" fill="#F0F3FA"/><path d="M26.08 40.07c-1.25-.21-2.43-.6-3.56-1.14a.39.39 0 0 1-.16-.13l.07-1.94c0-.05.03-.07.08-.05L25.84 38c.06.02.09.06.1.11l.14 1.96Z" fill="#2C2B63"/><path d="m19.33 37.9.43.4c.05.05.06.1.03.18l-1.16 2.71c-.04.1-.1.11-.18.04l-.46-.46c-.06-.07-.07-.14-.03-.22l.17-.34c.02-.04 0-.08-.03-.14a7.14 7.14 0 0 0-.87-.82c-.06-.04-.1-.05-.14-.03l-.34.2c-.07.04-.15.04-.21-.02l-.49-.44c-.08-.07-.07-.13.02-.17l2.65-1.33a.14.14 0 0 1 .18.03l.43.4ZM34.69 38.19l.03.04c.03.04.02.08-.02.1l-1.17.65.16-1.29c0-.05.03-.07.09-.04l.9.54Z" fill="#F0F3FA"/><path d="M18.86 38.4c.04.03.04.08 0 .15l-.38.86c-.02.06-.06.07-.1.03a8.03 8.03 0 0 1-.52-.49c-.04-.04-.04-.08.01-.1l.84-.45c.06-.04.11-.04.15 0Z" fill="#0B81BE"/><path d="M38 40.1c.11.18.14.39.1.6a.78.78 0 0 1-.37.51l-1.27.79c-.2.12-.4.15-.62.1a.78.78 0 0 1-.5-.36l-.79-1.27a.78.78 0 0 1-.1-.62.78.78 0 0 1 .36-.5l1.28-.8c.19-.1.39-.14.6-.1.23.06.4.18.51.37l.8 1.27ZM21 39.28c.03-.07.08-.09.15-.05l1.97.96c.21.1.36.27.43.5a.9.9 0 0 1-.06.7l-.56 1.14a.9.9 0 0 1-.5.47.8.8 0 0 1-.67-.03l-1.97-.96c-.07-.04-.09-.09-.05-.16l1.25-2.57Z" fill="#F0F3FA"/><path d="m36.18 39.44-.6.38a.4.4 0 0 0-.14.55l.37.6a.4.4 0 0 0 .55.14l.61-.37a.4.4 0 0 0 .13-.56l-.37-.6a.4.4 0 0 0-.55-.14ZM21.34 40.32c.03-.06.08-.07.14-.04l.94.45c.1.05.16.13.2.25.03.12.02.23-.04.35l-.26.53a.48.48 0 0 1-.25.24.38.38 0 0 1-.32 0l-.93-.46c-.06-.03-.08-.07-.05-.13l.57-1.19Z" fill="#0B81BE"/><path d="m31.08 42.46-.29-.93a.5.5 0 0 1 .04-.41.5.5 0 0 1 .33-.25l2.04-.54a.42.42 0 0 1 .33.05c.1.06.17.15.2.26l.15.57c.01.06-.01.1-.07.11l-.52.14c-.08.02-.13 0-.15-.08a.46.46 0 0 0-.13-.18c-.04-.03-.07-.04-.1-.03l-1.08.28c-.14.03-.2.12-.16.27a7.06 7.06 0 0 0 .3 1.03c.06.13.16.17.3.13l1.04-.37c.04 0 .06-.04.07-.08a.45.45 0 0 0 .01-.22c-.02-.07 0-.13.08-.15l.51-.18c.06-.02.1 0 .12.06l.2.55c.03.12.02.23-.03.33a.42.42 0 0 1-.24.22l-2 .7a.5.5 0 0 1-.41-.03.5.5 0 0 1-.26-.32l-.28-.93ZM24.6 41.44l-.06-.03a.12.12 0 0 1-.04-.1c0-.15.04-.32.12-.49.02-.04.05-.06.1-.05l1.11.26c.07.02.1.06.08.13l-.11.49c-.02.06-.05.08-.11.08l-.15-.01c-.05 0-.08.01-.09.06l-.32 1.36c-.01.04 0 .08.04.1l.13.07c.06.03.07.08.06.14l-.11.48c-.02.06-.06.08-.12.07l-1.2-.28c-.05-.02-.07-.05-.06-.1l.12-.48c.01-.05.04-.08.1-.08h.16c.05 0 .09-.02.1-.08l.34-1.42c.02-.08-.01-.12-.1-.12ZM29.28 41.08h.7c.04 0 .05.02.05.05v2.9c0 .03-.01.05-.05.05h-1.22c-.02 0-.04 0-.05-.02L27.6 42.1c-.01-.02-.03-.03-.06-.02-.02 0-.03.02-.03.05v1.95c0 .04-.02.05-.06.05h-.68c-.03 0-.05-.01-.05-.05v-2.87c0-.04.02-.05.05-.05h1.21c.02 0 .04 0 .05.02l1.1 1.93c.02.02.04.03.07.02.02 0 .03-.02.03-.05v-1.96c0-.03.02-.05.06-.05Z" fill="#F0F3FA"/></svg>