<!-- by TradingView --><svg width="56" height="56" viewBox="0 0 56 56" xmlns="http://www.w3.org/2000/svg"><path fill="#F0F3FA" d="M0 0h56v56H0z"/><path d="M34.52 25.2c.95-2.62 1.88-5.23 2.8-7.85a3.5 3.5 0 0 1 1.71-2c.55-.29 1.67-.4 3.36-.33l.47.02c.13 0 .17.06.12.18L38.83 26.8c-.94 2.6-1.88 5.22-2.8 7.84a3.5 3.5 0 0 1-1.71 2c-.54.29-1.66.4-3.36.33l-.46-.02c-.13 0-.17-.06-.13-.18l4.15-11.59Z" fill="#23408E"/><path d="M33.74 22.78a2.39 2.39 0 1 0 0-4.78 2.39 2.39 0 0 0 0 4.78Z" fill="#E92127"/><path d="m22.15 32.72.24-.62 3.27-8.97c.35-.97 1-1.6 1.92-1.9a9.73 9.73 0 0 1 2.76-.23l.7.01c.06 0 .1.03.14.08.04.05.04.1.02.17-1.89 5.23-3.55 9.8-4.98 13.68a2.87 2.87 0 0 1-2.06 1.87 10.97 10.97 0 0 1-3.3.16c-.16 0-.21-.08-.16-.23l1.45-4.02ZM18.2 30.36l-.44 1.26a183.4 183.4 0 0 0-1.1 3.04 3.13 3.13 0 0 1-2 2.1 9.9 9.9 0 0 1-2.98.23h-.54c-.12-.01-.17-.07-.12-.19l2.37-6.54a3.07 3.07 0 0 1 1.98-2.02 9.73 9.73 0 0 1 2.9-.23h.6c.12.01.15.07.12.17l-.8 2.18Z" fill="#23408E"/><path d="m22.39 32.12-.24.61c-.33.5-.75.86-1.24 1.05-.45.18-.91.21-1.38.08-.46-.13-.85-.4-1.16-.78a2.8 2.8 0 0 1-.58-1.54l.44-1.27c.59-.7 1.24-1 1.97-.94 1.58.14 2.3 1.08 2.19 2.8Z" fill="#E92127"/></svg>