<!-- by TradingView --><svg width="56" height="56" viewBox="0 0 56 56" xmlns="http://www.w3.org/2000/svg"><path fill="#F0F3FA" d="M0 0h56v56H0z"/><path fill-rule="evenodd" d="M46 33a5 5 0 1 0 0-10 5 5 0 0 0 0 10Zm0-.86c1.31 0 2.37-1.85 2.37-4.14 0-2.29-1.06-4.14-2.37-4.14s-2.37 1.85-2.37 4.14c0 2.29 1.06 4.14 2.37 4.14ZM10.45 33H5v-.79h.33c.6 0 1.1-.47 1.1-1.05v-6.4c0-.58-.5-1.05-1.1-1.05H5V23h5.45v.7h-.2c-.6 0-1.25.47-1.25 1.05v6.4c0 .58.65 1.05 1.25 1.05h.2V33Zm18.5 0H23.5v-.79h.33c.6 0 1.17-.47 1.17-1.05v-6.4c0-.58-.57-1.05-1.17-1.05h-.33V23h5.46v.7h-.2c-.6 0-1.1.47-1.1 1.05v6.4c0 .58.5 1.05 1.1 1.05h.2V33Zm-11.92-9.97h-5.32v.67h.16c.6 0 1.13.47 1.13 1.06v6.4c0 .58-.52 1.05-1.13 1.05h-.16v.74h5.32c2.62 0 4.97-2.05 4.97-4.58v-.76c0-2.53-2.35-4.58-4.97-4.58Zm-1.59 8.25v-6.89c0-.21.19-.65 1.13-.65S19 24.86 19 27.9c0 3.05-1.4 4.21-2.43 4.21-.83 0-1.1-.55-1.13-.83ZM38.45 23h1.05v3.61h-1.05c-.12-.95-.87-2.85-2.9-2.85-2.53 0-2.55 2.67-2.55 3.1v2.25c.13 1.06.72 3.18 2.56 3.18a3.6 3.6 0 0 0 3.2-2.16h1.07A4.64 4.64 0 0 1 35.56 33C32.37 33 30 31.24 30 27.88 30 24.5 32.47 23 35.56 23c1.19 0 2 .43 2.24.65.53 0 .66-.43.65-.65Z" fill="url(#a)"/><defs><linearGradient id="a" x1="22.21" y1="19.37" x2="22.21" y2="34.77" gradientUnits="userSpaceOnUse"><stop offset=".04" stop-color="#F87576"/><stop offset=".43" stop-color="#FF2019"/><stop offset="1" stop-color="#99130F"/></linearGradient></defs></svg>