<!-- by TradingView --><svg width="56" height="56" viewBox="0 0 56 56" xmlns="http://www.w3.org/2000/svg"><path fill="#F0F3FA" d="M0 0h56v56H0z"/><path d="m38.35 18.6-.2 1a9.75 9.75 0 0 1-.96 2.5 3.2 3.2 0 0 1-1.62 1.45 5.2 5.2 0 0 1-2.23.27l-3.13-.56-1.25-.17c-.07 0-.1.02-.13.08l-2.9 9.47-2.97-.54 2.86-9.28c.04-.1 0-.16-.12-.18a25.42 25.42 0 0 0-9.45.07 9.8 9.8 0 0 0-3.92 1.6c-1.21.88-2 2-2.36 3.38a3.5 3.5 0 0 0 .24 2.47c.32.67.64 1.17.96 1.51a19.6 19.6 0 0 0 6.7 4.7c-.04.35-.14.68-.31 1a20.92 20.92 0 0 1-5.11-2.46 12.17 12.17 0 0 1-2.92-2.7 7.19 7.19 0 0 1-1.48-3.48c-.15-1.2.05-2.38.61-3.54a9.69 9.69 0 0 1 2.47-3.11 17.32 17.32 0 0 1 4.36-2.67c1.7-.75 3.57-1.33 5.61-1.74 2.49-.5 5.05-.72 7.7-.66a33.76 33.76 0 0 1 9.55 1.58Z" fill="#EC3237"/><path d="M17.56 37.38c.17-.33.27-.66.3-1.02a8.2 8.2 0 0 1 1.23-2.9c.7-.93 1.6-1.4 2.73-1.41.39 0 .77.01 1.14.05l2.98.54 1.02.18c.1.02.17-.02.2-.12l3.05-9.44 3.13.56-3.22 9.32c-.01.06 0 .1.07.1 3.35.58 6.66.5 9.91-.21a9.77 9.77 0 0 0 3.57-1.55 5.64 5.64 0 0 0 2.16-2.84 3.9 3.9 0 0 0-.32-3.42c-1.28-2.12-3.73-3.99-7.35-5.61l.2-1.02c1.7.57 3.2 1.26 4.53 2.07 1.46.9 2.61 1.9 3.48 3 1 1.27 1.54 2.6 1.62 3.99a6.6 6.6 0 0 1-1.14 4.04 11.35 11.35 0 0 1-3.04 3.05 19.96 19.96 0 0 1-4.77 2.44 28.5 28.5 0 0 1-3.95 1.1 34.78 34.78 0 0 1-14.16 0c-1.18-.24-2.3-.54-3.37-.9Z" fill="#3F3F95"/></svg>