<!-- by TradingView --><svg width="56" height="56" viewBox="0 0 56 56" xmlns="http://www.w3.org/2000/svg"><path fill="#008B44" d="M0 0h56v56H0z"/><path fill-rule="evenodd" d="M14 27.39c0-.43-.2-.6-.64-.5l-.74.17c-.45.1-.62.37-.62.8v5.01c0 .09 0 .13-.1.13H9.09c-.05 0-.08-.02-.08-.08V20.08c0-.05.02-.07.07-.07h2.87c.06 0 .06.03.06.08V25.56c0 .07.09.1.15.05a5.5 5.5 0 0 1 1.82-.82c.04-.02.04-.04.03-.07V21.6c0-.73.29-1.21.8-1.43.31-.14.88-.2 1.72-.18h.36c.08 0 .12.05.12.12v12.76c0 .08-.04.12-.13.12h-2.76c-.05 0-.11-.02-.11-.07v-5.54Zm23.5.56.03-.01c.38-1.1.77-1.93 1.19-2.47.28-.36.6-.52.98-.46.35.06.64.28.86.66.25.42.45.86.6 1.32.03.06 0 .12-.05.16l-1.67 1.1c-.09.05-.15.03-.18-.05l-.22-.66c-.14-.4-.3-.41-.49-.04a14.05 14.05 0 0 0-1.34 5.43c0 .05-.03.07-.08.07H35.1c-.07 0-.1-.03-.1-.09v-7.66c0-.1.05-.25.15-.25h2.17c.1 0 .15.16.15.25l-.02 2.67c0 .02.01.03.04.03Zm5.9 4.98a2.8 2.8 0 0 1-2.02-1.65c-.43-.9-.5-1.9-.2-2.98.31-1.09.9-1.95 1.76-2.58a3.24 3.24 0 0 1 2.66-.65c.92.2 1.59.74 2.02 1.65.43.9.5 1.9.2 2.98a4.63 4.63 0 0 1-1.76 2.58c-.86.63-1.75.85-2.66.65Zm-.08-3.65c.53 1.6 1.48 2.78 2.13 2.61.64-.16.73-1.59.2-3.2-.53-1.6-1.48-2.77-2.12-2.6-.64.15-.74 1.59-.2 3.19Zm-20.76 1.44h.02c.04-.02.05 0 .05.05v2.02c0 .05.03.21.08.21h2.2c.06 0 .09-.16.09-.21v-7.46c0-.14-.08-.33-.23-.33h-.9c-.2 0-.3.2-.3.37v.57c0 .04-.02.07-.07.08-.05.02-.08 0-.11-.03-1.03-1.2-2.13-1.31-3.29-.3-.43.37-.83.87-1.2 1.49a6.71 6.71 0 0 0-.69 1.49 4.34 4.34 0 0 0 .07 2.88c.27.69.71 1.14 1.35 1.35.68.23 1.31.06 1.9-.51a4.3 4.3 0 0 0 1-1.65c0-.02.01-.02.03-.02Zm-.14-1.34c.33-.8.54-1.41.63-1.86a.21.21 0 0 0-.06-.19c-.28-.33-.61-.6-.99-.79a1.9 1.9 0 0 0-1.24-.23c-.6.11-.8.83-.6 2.15.14.95.37 1.79.69 2.5.04.1.12.17.24.2.12.02.22 0 .32-.06.28-.2.62-.77 1-1.72Zm6.95 3.24v4.34c0 .03-.01.04-.04.04h-2.27c-.04 0-.06-.02-.06-.05V25.16c0-.04.02-.16.07-.16h2.24c.05 0 .08.12.08.17l-.04 2.18c0 .03.02.05.04.05l.06-.01c.02-.01.03-.02.03-.04.54-1.36 1.15-2.12 1.84-2.28a1.77 1.77 0 0 1 1.78.47c.39.4.66.96.8 1.7.22 1.05.07 1.72-.46 2.89a5.8 5.8 0 0 1-2.33 2.71c-.2.12-.4.16-.6.16-.33 0-.68-.13-1.03-.43-.07-.05-.1-.04-.1.05Zm1.2-5.61c.1-.07.21-.1.33-.06.12.03.2.1.24.2.32.77.54 1.65.68 2.66.19 1.4-.02 2.16-.62 2.28-.39.08-.8 0-1.25-.25-.37-.21-.7-.5-.98-.85a.23.23 0 0 1-.05-.2c.1-.47.3-1.13.64-1.97.4-1 .74-1.6 1.02-1.81Z" fill="#fff"/></svg>