<!-- by TradingView --><svg width="56" height="56" fill="none" xmlns="http://www.w3.org/2000/svg"><path fill="#F0F3FA" d="M0 0h56v56H0z"/><path d="m20 28.97-7-5.201v-6.524l7 5.201v6.524Z" fill="#603813"/><path d="m20.5 28.97 7.2-5.201v-6.524l-7.2 5.201v6.524Z" fill="#F7941E"/><path d="m20 36.595-7-5.2V24.87l7 5.2v6.524ZM27.5 41.885l-7-5.202V30.16l7 5.201v6.524ZM35.5 28.97l-7.219-5.201v-6.524l7.22 5.201v6.524ZM20 44 13 38.8v-6.523l7 5.2V44Z" fill="#603813"/><path d="m36 28.97 7-5.201v-6.524l-7 5.201v6.524ZM36 36.595l7-5.2V24.87l-7 5.2v6.524ZM28.5 41.885l7-5.202V30.16l-7 5.201v6.524ZM36 44l7-5.201v-6.523l-7 5.2V44Z" fill="#F7941E"/><path d="M35.5 37.477V44l-4.522-3.394 4.522-3.13Z" fill="#603813"/><path d="M20.5 37.477V44l4.522-3.394-4.522-3.13Z" fill="#F7941E"/><path d="m20.012 21.52-6.403-4.804L20.012 12l6.883 4.716-6.883 4.805ZM35.557 21.52 29 16.717 35.557 12l7.048 4.716-7.048 4.805ZM28.047 34.391 21 29.548l7.047-4.677L35 29.587l-6.953 4.804Z" fill="#A97B50"/></svg>