<!-- by TradingView --><svg width="56" height="56" fill="none" xmlns="http://www.w3.org/2000/svg"><path fill="#F0F3FA" d="M0 0h56v56H0z"/><path d="M7 36V20h4v6h6v-6h4.004v16H17v-6h-6v6H7Z" fill="url(#a)"/><path d="M22 20.01V24h5v12h4V24h4.8l1.253-3.99H22Z" fill="url(#b)"/><path d="m37.639 20-1.273 4h7.953c.921 0 1.668.67 1.668 1.567 0 .896-.747 1.433-1.668 1.433h-6.26c-.935 0-2.059.927-2.059 1.837V36h4v-5h4.421C47.502 31 50 28.476 50 25.478S47.502 20 44.42 20H37.64Z" fill="url(#c)"/><path d="M39.786 29.747c.628-1.596-.473-2.497-1.102-2.747h5.887l-4.785 2.747Z" fill="#F0F3FA"/><path d="M40.015 29.39c.574-1.42-.576-2.167-1.151-2.39h5.384l-4.233 2.39Z" fill="#FF6803"/><defs><linearGradient id="a" x1="6.431" y1="35.207" x2="20.735" y2="23.735" gradientUnits="userSpaceOnUse"><stop stop-color="#038AE4"/><stop offset="1" stop-color="#084EA3"/></linearGradient><linearGradient id="b" x1="26.607" y1="35.43" x2="36.029" y2="21.627" gradientUnits="userSpaceOnUse"><stop stop-color="#094DA2"/><stop offset="1" stop-color="#0099F0"/></linearGradient><linearGradient id="c" x1="37.707" y1="33.156" x2="50.207" y2="24.405" gradientUnits="userSpaceOnUse"><stop stop-color="#094DA2"/><stop offset="1" stop-color="#0096F4"/></linearGradient></defs></svg>