<!-- by TradingView --><svg width="56" height="56" viewBox="0 0 56 56" xmlns="http://www.w3.org/2000/svg"><path fill="#F0F3FA" d="M0 0h56v56H0z"/><path d="M37 13v21h-5V15.56L37 13Zm1.03.48h-.86V34h.86V13.48Zm.46.74h.86V34h-.86V14.22Zm2.19.97h-.87V34h.87V15.19ZM42 16h-.87v18H42V16Zm-23-3v21h5V15.56L19 13Zm-1.03.48h.87V34h-.87V13.48Zm-.45.74h-.87V34h.87V14.22Zm-2.2.97h.87V34h-.86V15.19ZM14 16h.87v18H14V16Zm28 19H14v.59h28V35Zm0 4.5H14v.5h28v-.5Zm-28 1.2h28v.3H14v-.3Zm1-4.7h-1v3h1v-1.32h3V39h1v-3h-1v1h-3v-1Zm10 0H29.94v.68H28V39h-1v-2.32h-2V36Zm12 0h5v.68h-2V39h-1v-2.32h-2V36Z" fill="#0169A0"/></svg>