<!-- by TradingView --><svg width="56" height="56" viewBox="0 0 56 56" xmlns="http://www.w3.org/2000/svg"><path fill="#F0F3FA" d="M0 0h56v56H0z"/><path fill-rule="evenodd" d="M42.24 28.62a7.74 7.74 0 0 0 1.17-4.05c0-1.4-.39-2.75-1.17-4.04a11.2 11.2 0 0 0-3.32-3.43c-1.44-1-3.1-1.76-4.98-2.3a21.3 21.3 0 0 0-5.87-.8c-2.04 0-4 .27-5.87.8-1.88.54-3.54 1.3-4.98 2.3a11.2 11.2 0 0 0-3.33 3.43 7.74 7.74 0 0 0-1.17 4.04c0 1.4.4 2.75 1.17 4.05a11.2 11.2 0 0 0 3.33 3.42c1.44 1 3.1 1.76 4.98 2.3 1.88.53 3.83.8 5.87.8 2.03 0 3.99-.27 5.87-.8 1.88-.54 3.54-1.3 4.98-2.3a11.2 11.2 0 0 0 3.32-3.42ZM29.72 14.96c-.01.63.13 1.26.41 1.89l3.1-.7c.2-.04.2-.1.04-.2-3.53-2.04-7-2.03-10.42.02-.16.1-.15.16.04.2l3.25.69.4-.08c.07-.02.1.01.07.07a5.1 5.1 0 0 0 .47 4.3c.31.53.71 1.19 1.2 1.96.3.5.42 1.06.36 1.72a2.83 2.83 0 0 1-.65 1.6 3 3 0 0 1-2.05 1.05 3.17 3.17 0 0 1-2.25-.6 3.49 3.49 0 0 1-1.35-2.1l-4.05-.01c-.05 0-.08.02-.07.08.1 1.74.54 3.3 1.3 4.7.03.06.07.07.12.06a30.2 30.2 0 0 1 4.31-.99c.09 0 .12-.02.1-.04l-1.26-1.74c-.16-.22-.14-.29.06-.22.08.04.22.15.41.35l.31.34c.27.3.47.5.6.6.22.17.45.29.7.36.55.14 1.18.26 1.88.36.23.03.46.1.7.22.29.14.44.31.45.5.02.59.03 1.37.03 2.35 0 .14-.06.23-.2.26l-1.27.34c-.05.02-.1 0-.14-.04a.5.5 0 0 0-.46-.15c-.99.2-2.01.48-3.08.88a.07.07 0 0 0-.05.06c0 .03.01.06.04.07 3.53 2.14 7.08 2.13 10.63-.03a.06.06 0 0 0 .03-.06c0-.03-.01-.04-.04-.05-.97-.39-1.97-.68-2.99-.87-.29-.06-.5-.01-.63.14a.14.14 0 0 1-.15.05l-1.27-.32c-.16-.04-.23-.14-.23-.31.03-.59.05-1.3.06-2.11.01-.5.35-.78 1-.88l.26-.04c.66-.1 1.15-.18 1.46-.26.55-.15.93-.33 1.13-.55.4-.44.8-.85 1.22-1.24a.1.1 0 0 1 .1-.03l.05.01c.05.02.06.04.03.08l-1.32 1.8a.08.08 0 0 0-.01.08c0 .03.03.05.06.05 1.46.2 2.9.53 4.3.97.08.03.14 0 .18-.07.79-1.43 1.2-2.98 1.25-4.65 0-.04-.02-.07-.07-.07h-3.76l-.35.63a4.33 4.33 0 0 1-2.23 1.98c-.82.37-1.8.61-2.92.73-.22.02-.24-.04-.06-.18a4.04 4.04 0 0 0 1.47-2.4.77.77 0 0 0 0-.42c-.07-.19-.2-.26-.38-.22l-.72.15c-.05.01-.1 0-.13-.04a.14.14 0 0 1-.04-.13c.07-.46.01-.92-.18-1.38-.12-.3-.35-.7-.7-1.23a.24.24 0 0 1-.05-.16c.02-.25.17-.43.44-.55.21-.09.45-.12.73-.11.02 0 .04-.01.05-.03a.05.05 0 0 0 0-.06 5.44 5.44 0 0 1-1.14-2.04c-.2-.75-.1-1.52.26-2.3.36-.78.8-1.5 1.33-2.14.19-.23.28-.2.28.1Zm-5.84-.17-2.49.67c-.14.04-.14.09-.01.15l.6.3c.1.04.2.03.3-.04.42-.3.97-.62 1.65-.95.02-.01.03-.03.03-.06 0-.06-.03-.08-.08-.07Zm10.8.66c.14.04.14.09.01.15l-.58.28c-.1.05-.2.04-.3-.02-.4-.3-.95-.62-1.62-.95-.02-.01-.03-.03-.03-.06 0-.05.03-.07.08-.06l2.44.66Zm-18.6 3.12.07.04c.92.33 1.86.65 2.84.95.05.02.1 0 .12-.05a10.74 10.74 0 0 1 2.54-3.14c.06-.06.06-.1-.02-.14l-.88-.43a.23.23 0 0 0-.2-.01 16.79 16.79 0 0 0-4.45 2.68.09.09 0 0 0-.02.1Zm23.86 0c-.9.33-1.85.64-2.82.95-.05.01-.09 0-.12-.05a10.65 10.65 0 0 0-2.52-3.11c-.07-.06-.06-.1 0-.14l.88-.43a.23.23 0 0 1 .2 0c1.61.65 3.09 1.53 4.43 2.63.03.03.04.07.02.1l-.07.05Zm-8.75-.05 1.93 1.94 3.4-.77c.09-.02.1-.07.06-.15-.69-1.2-1.58-2.23-2.65-3.1a.15.15 0 0 0-.16-.02c-1.1.38-2.25.65-3.47.8.28.55.58.99.89 1.3Zm-5.39-1.3a10.94 10.94 0 0 0-2.71 3.31l-3.53-.78c-.08-.01-.1-.06-.06-.13a10.03 10.03 0 0 1 2.7-3.16c.05-.03.1-.04.15-.02 1.08.35 2.23.61 3.45.78Zm14.45 1.67-2.93 1.04c-.05.02-.06.05-.04.1.62 1.35.94 2.76.97 4.26 0 .05.03.08.08.08h4.58c.08 0 .11-.04.1-.12a8.18 8.18 0 0 0-2.54-5.32c-.06-.06-.14-.07-.22-.04Zm-21.46 1.07c.05.02.07.06.04.1a10.56 10.56 0 0 0-.97 4.25c0 .05-.03.08-.09.08h-4.56c-.08-.01-.12-.05-.1-.13a8.16 8.16 0 0 1 2.54-5.3c.06-.06.14-.08.23-.04l2.91 1.04Zm3.47 4.42a7.8 7.8 0 0 1 .63-3.44l-3.5-.82c-.1-.02-.17.01-.21.12-.59 1.4-.9 2.73-.94 4.02 0 .08.03.12.11.12h3.9Zm11.87 0c0 .03-.01.03-.03 0a.07.07 0 0 1 0-.06 3.87 3.87 0 0 0-.69-3.5l3.28-.75c.1-.02.17.01.21.1.6 1.3.93 2.65 1 4.07 0 .1-.04.16-.14.16l-3.63-.02Zm-15 5.3a10.63 10.63 0 0 1-1.26-4.81c0-.06-.03-.1-.09-.1h-4.57c-.06 0-.1.04-.09.1.1 2.19 1.13 4.14 3.08 5.86.03.04.07.04.12.03l2.78-1c.05 0 .06-.04.03-.09Zm17.89-.04c.79-1.46 1.2-3.06 1.26-4.77 0-.07.03-.1.09-.1h4.55c.06 0 .08.04.08.1-.1 2.18-1.12 4.12-3.07 5.83a.11.11 0 0 1-.11.03l-2.77-1c-.05 0-.06-.04-.03-.09Zm-7.2 1.9c0 .03 0 .04.03.05 1.46.22 2.77.6 3.93 1.1.06.03.12.02.17-.02.92-.72 1.71-1.6 2.38-2.63.04-.06.03-.1-.04-.11a32.34 32.34 0 0 0-3.81-.87l-.2-.03c-.44-.09-.78-.06-1.01.08-.65.38-1.09.65-1.32.8-.14.1-.2.23-.2.4l.07 1.24Zm-3.57.07c-1.44.23-2.74.6-3.89 1.1a.16.16 0 0 1-.17-.03c-.9-.7-1.7-1.57-2.37-2.6-.03-.05-.02-.09.05-.1a31.94 31.94 0 0 1 3.97-.9c.44-.09.77-.06 1 .07.65.38 1.08.65 1.3.8.15.1.21.23.2.4l-.05 1.22c0 .02-.02.03-.04.04Zm13.19-.54-.07-.03c-.8-.33-1.63-.65-2.5-.95-.04-.02-.07 0-.1.04a9.49 9.49 0 0 1-2.36 2.7c-.06.05-.06.1 0 .13l.78.41a.2.2 0 0 0 .17.02 14.9 14.9 0 0 0 4.05-2.23c.03-.02.04-.05.03-.09Zm-22.63 0c.8-.33 1.63-.64 2.49-.95.04-.01.08 0 .1.04a9.52 9.52 0 0 0 2.36 2.7c.06.04.06.08 0 .12l-.78.41a.2.2 0 0 1-.17.02 14.88 14.88 0 0 1-4.04-2.21.08.08 0 0 1-.02-.1l.06-.03Zm15.5 3.26 2.33-.65c.14-.03.14-.08.02-.14l-.57-.27a.25.25 0 0 0-.28.03c-.4.29-.92.6-1.56.92l-.02.06c0 .05.03.06.07.05Zm-10.77-.63c-.13-.03-.14-.08-.01-.14l.55-.27c.1-.04.19-.03.28.03.4.28.91.59 1.55.9.02.01.02.03.02.06 0 .05-.02.07-.07.05l-2.32-.63Z" fill="#171578"/><path d="M30.13 16.85a5.3 5.3 0 0 0 1.06 1.68l1.93 1.93c.07.16.17.29.3.37a3.87 3.87 0 0 1 .67 3.49v.05c.03.04.04.04.04.01-.16.17-.19.3-.07.39-.12.18-.23.4-.35.62a4.33 4.33 0 0 1-2.23 1.98c-.82.37-1.8.61-2.92.73-.22.02-.24-.04-.06-.18a4.04 4.04 0 0 0 1.48-2.4.77.77 0 0 0 0-.42c-.08-.19-.2-.26-.4-.22l-.7.15c-.06.01-.1 0-.14-.04a.14.14 0 0 1-.04-.13c.07-.46.01-.92-.18-1.38-.12-.3-.35-.7-.7-1.23a.24.24 0 0 1-.05-.16c.02-.25.17-.43.44-.55.21-.09.46-.12.73-.11.02 0 .04-.01.05-.03a.05.05 0 0 0 0-.06 5.44 5.44 0 0 1-1.14-2.04c-.2-.75-.1-1.52.26-2.3.36-.78.8-1.5 1.33-2.15.19-.22.28-.19.28.1-.01.64.13 1.27.41 1.9Z" fill="#E52328"/><path d="M22.34 24.77c.07-.06.04-.2-.08-.4a7.81 7.81 0 0 1 .63-3.43c.17-.1.24-.24.2-.41a10.94 10.94 0 0 1 2.71-3.31c.23-.08.34-.2.34-.36l.4-.08c.07-.02.1.01.07.07a5.1 5.1 0 0 0 .47 4.3c.31.53.71 1.19 1.2 1.96.3.5.42 1.06.36 1.72a2.83 2.83 0 0 1-.65 1.6 3 3 0 0 1-2.05 1.05 3.17 3.17 0 0 1-2.25-.6 3.49 3.49 0 0 1-1.35-2.1ZM20.13 39.17c.49.29.91.39 1.27.3.05-.02.1 0 .14.05.14.19.53.3 1.17.35.07 0 .12-.03.15-.09a.22.22 0 0 0 .02-.2 3.75 3.75 0 0 1-.23-1.48 2.16 2.16 0 0 1 .3-.84.16.16 0 0 0 0-.13c-.02-.04-.05-.07-.08-.08l-.8-.23c-.06-.02-.1 0-.14.04a.19.19 0 0 0-.04.17l.1.47c.02.08 0 .12-.08.13a.87.87 0 0 1-.49-.14c-.07-.04-.08-.1-.03-.18l.19-.3c.03-.04.04-.1.03-.16a.19.19 0 0 0-.1-.13 1.45 1.45 0 0 0-.85-.22c-.06.01-.1.04-.12.1a.19.19 0 0 0 0 .17c.13.24.13.57 0 1-.1.39-.27.7-.47.95a.3.3 0 0 0-.07.25c.02.1.06.16.13.2Zm1.4.13c-.13 0-.2-.3-.19-.66.02-.36.13-.65.25-.64.12 0 .2.3.19.67-.02.36-.13.64-.26.63Zm12.48.01c.23.3.5.45.82.45.32 0 .6-.15.83-.45.22-.3.34-.65.34-1.07 0-.42-.11-.78-.34-1.07-.23-.3-.5-.45-.82-.45-.32 0-.6.15-.83.44-.22.3-.34.66-.34 1.08 0 .42.11.77.34 1.07Zm1-.94c-.16.1-.39-.1-.51-.41-.13-.32-.1-.65.04-.74.16-.08.38.1.51.42.13.32.1.65-.05.73Zm-10.27.64c-.15.04-.33 0-.54-.14a.22.22 0 0 1-.1-.15c-.07-.44 0-.82.23-1.12.03-.05.04-.1.03-.16-.02-.06-.05-.1-.1-.12l-.82-.23c-.05-.02-.1 0-.15.05a.2.2 0 0 0-.02.19c.12.42.13.87.04 1.36-.1.55-.02.95.24 1.21.13.13.32.22.59.28.24.05.45.06.62.02.26-.05.48-.24.66-.55.08-.14.12-.4.12-.82 0-.47.09-.87.27-1.2.03-.07.02-.12-.04-.16-.18-.12-.44-.15-.78-.1-.12.03-.16.1-.12.24.1.3.14.59.14.88 0 .3-.1.47-.27.52Zm8.38-.4c-.35.28-.58.32-.7.13-.15-.26-.17-.5-.03-.74.16-.3.4-.3.7.01.05.05.1.06.15.04.06-.02.1-.06.12-.12.06-.21.08-.39.05-.53 0-.06-.04-.1-.1-.13-.86-.28-1.45-.03-1.77.75-.15.34-.2.67-.15.98.05.3.16.53.35.72.19.2.41.3.67.34.28.04.54-.02.8-.17.32-.17.43-.45.34-.84l-.06-.28c-.06-.26-.18-.32-.37-.17Zm-5.68.03a.84.84 0 0 0-.07.3c0 .06-.03.1-.09.1-.28-.01-.5-.16-.64-.44a.27.27 0 0 1-.02-.2c.08-.27.22-.42.42-.45a.2.2 0 0 1 .18.06l.35.31c.02.03.06.03.09.01.2-.14.28-.38.22-.7-.02-.1-.07-.15-.16-.14-.16.03-.32.02-.49 0-.32-.07-.6-.02-.84.14-.25.16-.43.41-.53.76-.1.31-.12.62-.07.93.05.3.15.54.31.75.37.47.84.55 1.4.26.16-.08.35-.21.57-.38.1-.07.13-.17.1-.3l-.1-.46a.2.2 0 0 1 .04-.18c.1-.1.14-.22.16-.34 0-.09-.03-.13-.1-.13h-.6c-.05 0-.1.03-.13.1Zm1.94 1.01.2.32c.05.07.06.15.03.23-.02.08-.07.13-.14.15-.34.12-.68.13-1 .03-.09-.02-.13-.08-.15-.17-.02-.1 0-.17.07-.23.26-.25.46-.59.6-1.02.18-.5.17-.9-.03-1.2a.14.14 0 0 1-.01-.13c.01-.04.04-.07.08-.08a5.1 5.1 0 0 1 .82-.12c.3.03.49.18.58.46l.11.33c.23.68.48 1.19.75 1.52.05.06.07.13.06.22a.23.23 0 0 1-.12.17 1.9 1.9 0 0 1-1.12.21.21.21 0 0 1-.17-.11.3.3 0 0 1-.03-.22l.13-.67a.17.17 0 0 0-.04-.15c-.16-.18-.33-.22-.5-.11a.35.35 0 0 0-.18.25c-.02.12 0 .23.06.32Zm.31-1.07c.11-.01.2-.11.19-.22a.2.2 0 0 0-.21-.18c-.11 0-.2.1-.19.21.01.11.1.2.21.19Z" fill="#E52328"/><path fill-rule="evenodd" d="M18.46 40.27A35.5 35.5 0 0 0 28 41.7c2.95 0 6.13-.48 9.55-1.44.05-.02.08 0 .08.07v1.18c0 .05.02.1.05.14.36.49 1.2.45 2.51-.13 1.13-.5 2.38-1.1 3.76-1.8.06-.04.07-.07.01-.12a8.97 8.97 0 0 1-.82-.8 2.3 2.3 0 0 0-1.17-.7c-.12-.02-.17-.1-.15-.22.04-.34.16-.69.37-1.04.27-.48.47-.98.58-1.52 0-.03 0-.06-.03-.07a.06.06 0 0 0-.07-.01l-3.33 1.64c-.04.01-.06 0-.07-.04l-.47-2a.35.35 0 0 0-.17-.23.33.33 0 0 0-.29-.04c-3.97 1.3-7.42 1.93-10.34 1.94-2.92 0-6.37-.64-10.35-1.92a.33.33 0 0 0-.28.03.35.35 0 0 0-.18.23l-.46 2c-.01.04-.04.05-.07.04l-3.34-1.64a.06.06 0 0 0-.07.01.07.07 0 0 0-.02.07c.11.54.3 1.05.58 1.52.2.36.33.7.37 1.05.01.12-.04.2-.15.22-.48.12-.87.35-1.17.7-.26.28-.54.55-.82.8-.06.04-.05.08 0 .11 1.4.71 2.65 1.31 3.77 1.8 1.31.58 2.15.62 2.51.13.04-.04.05-.09.05-.14v-1.18c0-.06.03-.09.09-.07Zm-1.83-.96c4.11 1.32 7.9 1.98 11.37 1.97 3.46 0 7.25-.66 11.36-1.98.04-.02.06-.05.05-.1l-.97-4.12c-.02-.07-.06-.1-.12-.07A33.24 33.24 0 0 1 28 36.93a33.2 33.2 0 0 1-10.33-1.9c-.06-.03-.1 0-.11.06l-.97 4.13c0 .05 0 .08.05.1Zm-2.21-2.13c.12.35.16.7.12 1.04a.23.23 0 0 1-.16.2l-.28.1c-.34.1-.57.21-.68.32l-.67.67c-.04.05-.04.08.02.11l.2.1c2.8 1.47 4.43 2.08 4.92 1.83.07-.03.1-.1.11-.17a.19.19 0 0 0-.1-.19c-.59-.3-1.04-.57-1.36-.78-.37-.25-.51-.55-.43-.93l.5-2.1c.01-.05 0-.08-.03-.1L14 36.08c-.15-.08-.2-.05-.12.08l.08.13c.23.39.38.69.46.9Zm27.04 1.03c.01.1.06.16.15.2l.28.1c.34.1.57.2.68.32l.66.66c.05.04.04.08-.01.1l-.2.11c-2.77 1.46-4.4 2.07-4.88 1.83a.19.19 0 0 1-.11-.17c0-.08.03-.14.1-.18.58-.31 1.03-.57 1.35-.79.36-.24.5-.55.42-.92a98.96 98.96 0 0 0-.5-2.09c-.02-.04-.01-.07.02-.09l2.56-1.22c.16-.07.2-.05.12.08a5.97 5.97 0 0 0-.53 1.02c-.12.35-.16.7-.11 1.04ZM18.03 40.4c.01-.14-.04-.23-.17-.27l-1.3-.43c-.03 0-.05 0-.07.03a.06.06 0 0 0 0 .07l.1.14.07.08 1.15.68c.12.07.19.04.2-.1l.02-.2Zm20.13-.3 1.28-.39c.03 0 .05 0 .06.02.02.03.02.05 0 .08l-.09.14a.25.25 0 0 1-.07.06l-1.14.66c-.11.07-.18.03-.19-.1l-.01-.2c-.02-.13.04-.22.16-.26Z" fill="#171578"/></svg>