<!-- by TradingView --><svg width="56" height="56" fill="none" xmlns="http://www.w3.org/2000/svg"><path fill="#F0F3FA" d="M0 0h56v56H0z"/><path fill-rule="evenodd" clip-rule="evenodd" d="M5.087 27 4 25h10l-1.123 2H10v5H8v-5H5.087Zm6.809 4.99 4.093-6.973h2.534l4.145 6.973h-2.312l-.72-1.19h-4.803l-.711 1.19h-2.226ZM15.91 29h2.638l-1.326-2.194L15.91 29Zm15.048-2 .95-2h-6.756c-1.225 0-2.218.978-2.218 2.184 0 1.207.993 2.316 2.218 2.316h4.428c.233-.003.42-.005.42.232 0 .261-.227.268-.491.268h-5.205l-1.01 2h6.413c1.216 0 2.201-.97 2.201-2.168 0-1.197-.985-2.332-2.2-2.332h-4.245c-.238.002-.463.004-.463-.23 0-.258.27-.27.53-.27h5.428Zm10.38-2-1.037 2h-4.797c-.245 0-.504.079-.504.318v2.295c0 .239.259.387.504.387H40.3l1.038 1.952h-6.122c-1.224 0-2.217-.97-2.217-2.165v-2.622c0-1.196.993-2.165 2.217-2.165h6.122ZM42 27.156v2.718c0 1.174.932 2.126 2.082 2.126h4.836c1.15 0 2.082-.952 2.082-2.126v-2.718c0-1.174-.932-2.125-2.082-2.125h-4.836c-1.15 0-2.082.951-2.082 2.125Zm2 .22c0-.207.185-.376.414-.376h4.172c.229 0 .414.169.414.377v2.247c0 .207-.185.376-.414.376h-4.172c-.229 0-.414-.169-.414-.377v-2.247Z" fill="#1F3368"/></svg>