<!-- by TradingView --><svg width="56" height="56" viewBox="0 0 56 56" xmlns="http://www.w3.org/2000/svg"><path fill="#F0F3FA" d="M0 0h56v56H0z"/><path d="M32.55 20.23c.08.15.13.31.15.47 0 .06 0 .07-.04.02a3.12 3.12 0 0 0-1.03-1 3.36 3.36 0 0 0-.6-.26c-.22-.08-.39-.14-.5-.2-.05-.02-.07-.01-.06.04.07.73.37 1.32.9 1.76.04.04.38.24 1.02.6.8.46 1.4 1.13 1.8 2.03.13.26.1.27-.07.04-.23-.3-.5-.59-.78-.84-.18-.16-.22-.13-.13.1a4.87 4.87 0 0 1-.85 5.11 5.13 5.13 0 0 1-3.83 1.61c-.26 0-.69-.07-1.29-.21a6.12 6.12 0 0 0-5 .87c-.02 0-.06.05-.13.13-.05.04-.04.05.02.02a6.37 6.37 0 0 1 4.12-.78 6.09 6.09 0 0 1 1.17.32 4.94 4.94 0 0 0 5.57-1.7c.25-.35.5-.8.76-1.37.31-.68.8-1.18 1.44-1.5a3.3 3.3 0 0 1 2.09-.25c.44.09.72.12.84.11.3-.03.57-.14.8-.35.06-.07.09-.14.08-.23a.25.25 0 0 0-.13-.2 14.34 14.34 0 0 1-5.1-5.06c-.54-.91-.88-1.46-1.03-1.65a9.97 9.97 0 0 0-5.26-3.48 6.5 6.5 0 0 1-4.86-4.35c0-.03-.01-.03-.03-.03-.02 0-.03.02-.02.04a6.72 6.72 0 0 0 3.13 4.26c.12.08.64.3 1.56.7a9.94 9.94 0 0 1 4.45 3.63c.15.22.34.57.56 1.03l.28.57Zm5.11 17.97c.33.07.5-.06.53-.4a6.3 6.3 0 0 0-.83-3.75 6.24 6.24 0 0 0-2.91-2.54c-.08-.04-.11-.1-.1-.18a12.01 12.01 0 0 1 1.49-4.12h-.03c-.15.18-.28.36-.39.54a10.9 10.9 0 0 0-1.38 3.52c-.01.06-.05.09-.12.07-1.34-.37-2.78-.5-4.3-.38a18.83 18.83 0 0 0-6.2 1.74 15.4 15.4 0 0 0-2.56 1.55c-.97.8-1.9 1.25-2.77 1.33-.05 0-.1.02-.12.06a18.94 18.94 0 0 1-3.51 3.13c-.86.59-1.63 1.01-2.32 1.26-.47.17-.78.3-.94.37-.19.09-.24.22-.16.4l.01.03c.09.18.21.22.38.11 1.52-.97 3.04-1.9 4.57-2.77.76-.43 1.63-.87 2.6-1.3a184.2 184.2 0 0 1 3.56-1.55c1.6-.68 3.08-1.2 4.44-1.6l3.76-1.05c1.09-.3 2.21-.4 3.37-.34.05 0 .08.03.08.08 0 .26-.02.55-.04.88a9.86 9.86 0 0 0 .62 4.16l.1.37c.02.12.07.24.14.35.07.12.17.15.3.08l.06-.03c.12-.07.15-.17.09-.3a6.96 6.96 0 0 1-.2-.39 14.27 14.27 0 0 1-.65-5c0-.07.03-.1.1-.08 1.64.55 2.7 1.6 3.18 3.16.18.88.2 1.6.06 2.18-.04.18-.01.32.1.41Zm-18.94-6.88c.93.04 1.8-.11 2.61-.45.12-.06.15-.03.07.08a3.1 3.1 0 0 1-4.23.91 3.09 3.09 0 0 1-1.08-1.14c-.07-.12-.04-.14.08-.08.78.41 1.63.64 2.55.68Z" fill="#EAB028"/></svg>