<!-- by TradingView --><svg xmlns="http://www.w3.org/2000/svg" width="56" height="56" viewBox="0 0 56 56"><path fill="#006886" d="M0 0h56v56H0z"/><path d="M46.97 35.75c-.61-1.67-2.65-4.31-6.97-4.18-1.12 1.48-4.1 4.27-7.14 3.53 1.58-.04 5.46-1.3 8.35-6.06.8-1.7 2.64-5.19 3.59-5.64.15-.11.44-.38.44-.6 0-.26-.68-.56-1.95-.56-1.28 0-5.87.71-7.5 3.09a8.13 8.13 0 0 1-4.65 8.64 9.94 9.94 0 0 0 4.15-8.2 13 13 0 0 0-1.33-5.9c-.55-1.24-1.01-2.3-.82-3.92 0-.07.02-.14.04-.2a.87.87 0 0 0 .04-.39.45.45 0 0 0-.25-.31.43.43 0 0 0-.5.08c-1.52 1.59-4.17 5.4-4.17 9.97 0 .83.12 2.66.7 3.3.25.26.59.44.94.63.69.37 1.4.76 1.4 1.8 0 1.55-1.64 1.8-2.67 1.8.71-.09 2.14-.58 2.14-1.8 0-1.24-1.88-1.64-2.81-1.7-.94.06-2.8.46-2.8 1.7 0 1.22 1.42 1.71 2.13 1.8-1.04 0-2.67-.25-2.67-1.8 0-1.04.7-1.43 1.4-1.8.35-.19.7-.37.94-.64.57-.63.7-2.46.7-3.3 0-4.56-2.65-8.37-4.17-9.96a.43.43 0 0 0-.5-.08.45.45 0 0 0-.25.31c-.02.13 0 .25.04.38l.04.2c.2 1.63-.28 2.7-.83 3.94-.6 1.39-1.32 3.01-1.32 5.9 0 4.49 2.76 7.33 4.14 8.2a8.13 8.13 0 0 1-4.65-8.65c-1.63-2.38-6.22-3.09-7.49-3.09-1.27 0-1.96.3-1.96.56 0 .22.3.49.45.6.95.45 2.78 3.95 3.58 5.64 2.9 4.76 6.78 6.02 8.36 6.06-3.04.74-6.03-2.05-7.14-3.53-4.33-.13-6.36 2.5-6.98 4.18-.08.23.07.47.3.52.1.02.2 0 .3-.04 1.17-.49 2.86.02 4.84.62 1.78.54 3.8 1.15 5.9 1.15 3.59 0 6.59-1.53 7.64-2.3 1.05.77 4.05 2.3 7.64 2.3 2.1 0 4.11-.61 5.9-1.15 1.98-.6 3.67-1.11 4.85-.62.09.04.19.06.28.04.24-.05.39-.3.3-.52Z" fill="#DBA510"/></svg>