<!-- by TradingView --><svg width="56" height="56" viewBox="0 0 56 56" xmlns="http://www.w3.org/2000/svg"><path fill="#F0F3FA" d="M0 0h56v56H0z"/><path d="m17.3 28.17-4.25-2.41a.09.09 0 0 1-.05-.09v-6.1c0-.04.02-.07.05-.09l14.91-8.47a.09.09 0 0 1 .1 0l14.9 8.46c.02.02.04.04.04.08v7.93c0 .1-.05.13-.14.08l-4.25-2.4a.09.09 0 0 1-.04-.1v-3a.09.09 0 0 0-.05-.08l-10.47-5.95a.09.09 0 0 0-.1 0L17.5 21.98a.09.09 0 0 0-.05.08v6.03c0 .1-.04.13-.14.08Z" fill="#00923F"/><path d="M28 18.5c.03 0 .07 0 .1.02.1.02.14.07.14.14l.12 3.83c.02.47.1.48.24.03l1.17-3.64c.03-.1.1-.14.2-.14h.13c.14 0 .2.07.16.2l-1.03 3.94c-.07.3-.02.31.14.06l2.27-3.37c.08-.13.2-.16.34-.1H32c.14.07.17.16.1.29L30 23.3c-.14.25-.1.28.12.08l3.2-2.79c.1-.07.18-.07.26 0l.09.05c.11.08.12.17.03.26l-2.86 2.76c-.35.34-.3.4.15.17l3.66-1.8c.09-.05.16-.03.22.05l.06.07c.1.11.08.2-.05.27l-3.59 2c-.42.24-.4.3.1.2l4.08-.89c.14-.03.21.02.23.15l.02.09c.01.1-.03.17-.15.2l-4.1 1.13c-.39.1-.38.16.02.16l4.27.09c.1 0 .16.04.19.12l.04.13c.04.12-.01.18-.15.18a1559 1559 0 0 1-15.68 0c-.14 0-.19-.06-.15-.18l.04-.13c.03-.08.1-.12.19-.13l4.27-.08c.4 0 .4-.06.03-.16l-4.11-1.13c-.12-.03-.16-.1-.15-.2l.02-.1c.02-.12.1-.17.23-.14l4.09.9c.48.1.51.03.09-.2l-3.6-2c-.12-.07-.13-.17-.04-.28l.06-.07c.06-.08.13-.1.22-.05l3.66 1.8c.45.22.5.17.15-.17L22.3 20.9c-.1-.09-.08-.18.03-.26l.09-.06c.08-.06.17-.06.25.01l3.2 2.8c.23.19.27.16.13-.09l-2.1-3.54c-.07-.13-.04-.22.1-.28l.02-.01c.14-.06.26-.03.34.1l2.27 3.37c.16.25.21.23.14-.06l-1.03-3.95c-.03-.12.02-.19.16-.19h.14c.1 0 .16.05.2.14l1.16 3.64c.15.45.22.44.24-.03l.12-3.83c0-.07.05-.12.13-.14a.49.49 0 0 1 .1-.02Z" fill="#DA251C"/><path d="M28 27c4.55 0 7.14 0 7.77.02.2 0 .27.1.21.28a12.75 12.75 0 0 1-3.35 5.52 53.75 53.75 0 0 0-2.64 3 15.92 15.92 0 0 0-1.93 3.12c-.01.04-.04.06-.06.06-.03 0-.05-.02-.07-.06A15.88 15.88 0 0 0 26 35.82a55.7 55.7 0 0 0-3.15-3.57 12.75 12.75 0 0 1-2.83-4.96c-.06-.18.01-.27.2-.28L28 27Z" fill="#00923F"/><path d="M38.44 34.07c.08-.04.12-.1.12-.2v-5.93c0-.09.03-.1.1-.07l4.21 2.29c.09.05.13.12.13.21v6a.2.2 0 0 1-.12.2l-14.8 8.4a.16.16 0 0 1-.18 0l-14.74-8.36a.29.29 0 0 1-.16-.27v-7.8c0-.07.04-.1.12-.05l4.2 2.3c.08.03.12.1.12.18v2.9c0 .1.03.16.1.2l10.34 5.87a.2.2 0 0 0 .23 0l10.33-5.87Z" fill="#DA251C"/></svg>