<!-- by TradingView --><svg width="56" height="56" viewBox="0 0 56 56" xmlns="http://www.w3.org/2000/svg"><path fill="#F0F3FA" d="M0 0h56v56H0z"/><path d="M25.4 12.19c-.02 0-.05.03-.1.08a.6.6 0 0 1-.07.07.17.17 0 0 1-.06.04c-.06 0-.08-.01-.04-.07.07-.1.16-.2.26-.3h.03l.29.22c.02.02.02.04 0 .06l-.05.02a.07.07 0 0 1-.08-.01l-.13-.1a.05.05 0 0 0-.04-.01ZM31.26 12.2h.04c.01 0 .02 0 .02.02 0 .05-.02.1-.06.14a.19.19 0 0 1-.11.06l-.13.02c-.08 0-.08-.01-.02-.06.05-.04.1-.1.15-.2h.03c.02-.01.03 0 .05.01l.03.01ZM28.63 12.98v-.65c0-.02 0-.03.02-.03h.2c.02 0 .03.02.03.03l-.04 1.12c0 .02 0 .02-.02.02h-.2l-.02-.02a1.82 1.82 0 0 1-.1-.12c-.1-.23-.23-.46-.36-.7-.04-.06-.05-.05-.06.02l-.02.77-.02.01H27.83l.04-1.13c0-.02 0-.03.02-.03l.28.01c.03 0 .06.02.08.05a76.9 76.9 0 0 0 .35.66h.02v-.01ZM30.17 12.75l-.05.36c-.03.24-.11.39-.26.44a.68.68 0 0 1-.48-.02c-.17-.08-.25-.2-.24-.38l.08-.78c0-.02 0-.03.03-.03l.2.01c.03 0 .04.02.04.04a5.9 5.9 0 0 0-.09.78c0 .1.04.17.12.2.08.05.16.05.22 0a.31.31 0 0 0 .1-.22 46.33 46.33 0 0 1 .13-.72l.38.03c.01 0 .03 0 .03.02v.05c0 .02-.04.05-.1.07a.36.36 0 0 0-.07.04c-.02.02-.03.06-.04.1Z" fill="#1B0347"/><path fill-rule="evenodd" d="m26.56 13.5-.03-.38.01-.03a3.9 3.9 0 0 1 .26-.03.59.59 0 0 0 .17-.08c.1-.07.15-.17.15-.3 0-.21-.11-.32-.32-.34-.13 0-.32 0-.57.03-.02 0-.03.01-.02.03l.08 1.11.02.01.24-.02Zm-.06-.98c-.01 0-.02.01-.02.03l.02.34c0 .02.02.03.04.02h.1c.07 0 .12-.03.16-.07a.16.16 0 0 0 .06-.14v-.02c0-.05-.03-.1-.08-.13a.26.26 0 0 0-.17-.04h-.1Z" fill="#1B0347"/><path d="M24.79 12.89a.45.45 0 0 0-.4-.07c-.15.05-.22.15-.23.32 0 .16.05.3.15.4.07.09.17.12.3.09.11-.03.2-.1.27-.2.03-.05.05-.04.05.02l.02.2-.01.03a1.02 1.02 0 0 1-.33.14c-.21.05-.38.01-.51-.11a.66.66 0 0 1-.2-.49c-.01-.23.07-.4.26-.51.16-.1.35-.13.58-.09.02 0 .03.02.03.03l.04.22v.02h-.02Z" fill="#1B0347"/><path fill-rule="evenodd" d="m25.3 13.62.04-.2c0-.02.01-.03.02-.03l.39-.07.02.01.1.2c0 .02.02.03.04.03l.22-.02.02-.01v-.03l-.55-1.04c0-.02-.02-.02-.04-.02a.6.6 0 0 1-.23.02c-.03 0-.04.01-.05.04a227.83 227.83 0 0 1-.22 1.2l.2-.03c.02 0 .03-.02.04-.05Zm.15-.86-.08.42c0 .02 0 .03.03.02l.27-.04c.01 0 .02 0 0-.02l-.19-.39h-.03Z" fill="#1B0347"/><path d="M31.31 13.72a.5.5 0 0 0 .22-.34l.03-.17a.5.5 0 0 0-.1-.4.5.5 0 0 0-.33-.2l-.1-.03a.5.5 0 0 0-.38.1.5.5 0 0 0-.22.33l-.03.18a.5.5 0 0 0 .1.39c.08.11.19.19.33.21l.1.02a.5.5 0 0 0 .38-.1Zm-.4-.09c-.17-.03-.28-.24-.24-.48.04-.24.2-.41.38-.38.18.02.28.24.25.48-.04.24-.22.41-.39.38ZM31.85 12.81c.02.01.02.02.01.04l-.06.11a.45.45 0 0 1-.08.1c-.02.03-.04.04-.05.03h-.01c-.01-.01-.02-.04 0-.07 0-.04.01-.07.04-.12l.06-.11c0-.01.02-.02.03 0l.06.02ZM32.28 13.95c.11.04.23.01.35-.07.04-.02.05-.02.04.03l-.06.2s0 .02-.02.02a.75.75 0 0 1-.41-.01c-.37-.13-.5-.38-.38-.77a.64.64 0 0 1 .22-.34.48.48 0 0 1 .4-.1c.17.04.32.11.45.23v.04l-.06.18c-.01.03-.03.03-.04 0a.53.53 0 0 0-.21-.2c-.1-.06-.2-.07-.28-.03a.35.35 0 0 0-.18.2.7.7 0 0 0-.06.27c0 .19.08.3.24.35ZM23.04 13l.34 1.08-.01.03-.24.08h-.03l-.65-.67h-.03l-.01.02.25.8-.01.03-.16.06-.03-.01-.38-1.07.01-.03.3-.11h.03l.58.53h.03v-.02l-.22-.64.01-.03.2-.06s.02 0 .02.02ZM21.22 13.36c-.02 0-.03 0-.04.02l-.2.25-.03.01s-.02 0-.02-.02l-.01-.01a.06.06 0 0 1 0-.06l.2-.3.03-.02a.5.5 0 0 1 .32.08c.03.02.03.03.02.06-.03.04-.1.04-.25 0h-.02ZM33.42 13.45l.07-.13c0-.01.01-.02.02-.01l.9.36c.02 0 .02.02.01.03l-.06.13c0 .02-.02.02-.03.01l-.3-.12c-.02 0-.03 0-.03.02l-.32.87c0 .01-.02.02-.03.01l-.22-.08v-.03l.34-.87-.01-.03-.33-.13c-.01-.01-.02-.02 0-.03ZM34.64 14.49c-.02-.01-.04 0-.05.01l-.21.43c-.01.01-.02.02-.03.01l-.2-.1c-.01 0-.02-.02 0-.04l.5-1v-.01l.23.11-.18.36c0 .03 0 .05.02.06l.35.17h.04l.19-.38h.02l.2.1v.03l-.5 1.01h-.03l-.2-.09v-.03l.2-.4c.02-.03 0-.06-.03-.08l-.32-.16Z" fill="#1B0347"/><path fill-rule="evenodd" d="m21.3 14.95.2-.1V14.55l.37-.18h.02l.19.2c0 .01 0 .02.02.01l.23-.08c.01 0 .02-.02 0-.03l-.8-.9-.02-.01-.29.1-.01.02.05 1.24.01.02h.02Zm.13-1.04.04.42.01.03h.03l.25-.11.02-.02-.01-.03-.29-.32h-.03c-.02 0-.02.01-.02.03Z" fill="#1B0347"/><path d="m20.42 14.05.19-.1.03.01.51 1.03v.03l-.2.1-.03-.01-.23-.46h-.03l-.37.18c-.01 0-.02.02-.01.03l.23.46-.01.03-.2.1-.03-.01-.5-1.02v-.03l.2-.1h.04l.17.36c0 .01.02.02.03.01l.38-.2v-.02l-.18-.36.01-.03ZM36.36 14.27c.05.05.12.08.21.1.04 0 .04.01.02.04l-.03.03a.07.07 0 0 1-.07.03l-.26-.07c-.03-.01-.04-.03 0-.06l.06-.07c.03-.02.05-.02.07 0ZM35.85 15.54c.08.02.18-.06.3-.25l.3-.5c.01-.03.03-.04.05-.02.1.08.2.14.32.17l.02.03s0 .02-.02.02a.5.5 0 0 1-.1.05.37.37 0 0 0-.15.08 3.6 3.6 0 0 1-.31.48c-.13.18-.32.2-.57.07a.55.55 0 0 1-.29-.36c-.01-.07 0-.15.06-.26a21.84 21.84 0 0 1 .4-.65l.2.1v.04l-.33.55c-.09.15-.1.26-.06.32.05.07.11.11.18.13Z" fill="#1B0347"/><path fill-rule="evenodd" d="m19.58 15.86-.18-.3.01-.03.12-.08c.14-.1.22-.2.25-.34.04-.14-.02-.26-.16-.36a.34.34 0 0 0-.37-.03 4.92 4.92 0 0 0-.48.29l.57.99c0 .02.02.02.05.01l.18-.1c.02-.02.02-.03.01-.05ZM19.1 15c-.02.01-.02.03-.01.05l.18.3c.01.02.03.02.05.01l.06-.04c.06-.03.1-.08.13-.14.02-.05.02-.1 0-.15l-.03-.05c-.03-.04-.07-.06-.13-.07a.31.31 0 0 0-.19.05l-.06.04Z" fill="#1B0347"/><path d="M17.8 15.32a.15.15 0 0 1-.1.07l-.03-.01a.03.03 0 0 1 0-.04l.07-.13c0-.02.01-.02.03-.02l.26.05.02.02c0 .02 0 .04-.03.04a.52.52 0 0 1-.19 0l-.03.02ZM17.53 15.52a.3.3 0 0 1 .12-.05l.02.01c0 .05 0 .1-.02.15-.02.07-.05.1-.08.1l-.03-.03v-.1c-.02-.05-.03-.05-.05 0l-.15.3h-.04v-.02c0-.06.02-.13.04-.2.03-.1.07-.16.12-.18h.04v.02h.03Z" fill="#1B0347"/><path fill-rule="evenodd" d="M36.63 15.97h.03l.31.25c.02 0 .02.02.02.04l-.06.2c0 .02 0 .04.02.05l.18.14c.01.01.02 0 .02-.01l.32-1.17c0-.02 0-.03-.02-.04l-.2-.16h-.04l-.03.02a42.94 42.94 0 0 1-.96.7l.19.14h.02a.72.72 0 0 1 .2-.16Zm.52-.37-.35.24v.02l.23.16h.03l.01-.02a61 61 0 0 0 .1-.4h-.02ZM18.63 16.37a.52.52 0 0 0-.12-.39l-.1-.13a.51.51 0 0 0-.36-.2.5.5 0 0 0-.39.12l-.06.06a.51.51 0 0 0-.2.35c0 .15.03.28.12.4l.1.13c.1.11.22.18.37.19a.5.5 0 0 0 .38-.12l.07-.05c.11-.1.18-.21.2-.36Zm-.25-.03a.64.64 0 0 0-.12-.24.65.65 0 0 0-.2-.2.3.3 0 0 0-.26 0c-.12.04-.17.13-.16.25 0 .1.05.2.12.3.08.11.16.19.25.22.12.05.22.02.3-.07a.3.3 0 0 0 .07-.26Z" fill="#1B0347"/><path d="m38.24 16.05.78.66v.03l-.11.1h-.03l-.26-.22h-.03l-.6.72h-.03l-.16-.14v-.03l.6-.72v-.03l-.28-.23v-.03l.09-.11h.03ZM16.96 16.62c-.12.09-.18.19-.18.3 0 .12.06.23.18.33.14.14.29.17.42.1.13-.05.2-.17.22-.33 0-.01 0-.02.02-.03h.03l.13.11c.02.02.02.03 0 .05 0 .03-.06.1-.16.24a.71.71 0 0 1-.24.2.4.4 0 0 1-.32.02.71.71 0 0 1-.29-.16.71.71 0 0 1-.2-.33.47.47 0 0 1 .03-.38.86.86 0 0 1 .46-.37c.04-.01.07 0 .09.03l.08.12c.02.03.01.05-.03.05h-.06c-.08 0-.14.02-.18.05ZM38.9 17.55l-.35.36h-.03l-.16-.17v-.02l.83-.83h.02l.16.16v.03l-.32.32v.02l.31.31h.03l.3-.3h.01l.16.17v.02l-.8.8h-.02l-.16-.16v-.02l.35-.35v-.02l-.3-.32h-.03ZM15.88 18.16c.01 0 .02 0 .01-.02l-.16-.5.01-.05.14-.12c.01-.02.02-.01.03 0l.21.69c.02.08.13.2.33.36v.03l-.15.15h-.04a6.24 6.24 0 0 0-.26-.24.35.35 0 0 0-.14-.08l-.13-.03a2.98 2.98 0 0 0-.53-.12v-.03l.17-.17h.02l.5.13ZM40.04 18.1c.01-.02.02-.03 0-.04l-.09-.12c-.01-.02-.01-.03.01-.04l.1-.06h.03l.35.4v.02l-.1.1h-.01l-.11-.09a26.17 26.17 0 0 1-.6.52v.05l.13.13-.17.1-.37-.42c-.02-.02-.02-.03 0-.04l.1-.1h.04l.06.08c.02.03.05.03.08 0 .17-.18.35-.34.55-.5ZM15.03 18.7v.03l.74.58v.02l-.14.18h-.01l-.7-.54c-.03-.03-.05-.02-.08 0l-.2.27h-.01l-.12-.12v-.02l.6-.78h.02c.04.05.09.08.14.1v.03l-.24.24ZM41.16 18.32h.01c.02.02.03.06.02.1 0 .04-.02.08-.06.12l-.03.03a.24.24 0 0 1-.11.07c-.04.02-.08.01-.1-.01l.27-.3ZM40.05 19.36l.3.38c.02.02.01.03 0 .04l-.13.06h-.04l-.44-.56v-.04l.86-.69h.04l.49.58v.04l-.12.1-.04-.01-.32-.4c-.01-.02-.02-.02-.04-.01l-.14.12c-.02 0-.02.02 0 .04l.26.34v.04l-.1.08h-.03l-.28-.34h-.04l-.22.2c-.02 0-.02.02 0 .03ZM41.28 18.63h.01v.11a.12.12 0 0 1-.08.07.12.12 0 0 1-.1 0 .13.13 0 0 1-.07-.08v-.02l.24-.08ZM41.12 20.41c0 .02 0 .03.02.01l.57-.38h.03l.1.16-.01.03-.97.64h-.03l-.1-.16v-.03l.43-.88a5.04 5.04 0 0 0-.7.44l-.12-.18v-.02l.95-.63c.02-.02.04-.01.05 0l.15.26v.03c-.14.2-.26.43-.37.71ZM14.8 20.5c.03-.03.02-.05 0-.07l-.17-.13c-.03-.03-.06-.02-.07.02l-.07.16c-.01.03-.03.04-.06.03a.3.3 0 0 1-.14-.14l.01-.03c.07-.06.15-.15.24-.3l.04-.07h.03l.44.34c.02.01.02.03 0 .05l-.05.1c-.1.2-.2.33-.27.4-.13.13-.28.18-.44.15a.68.68 0 0 1-.41-.24.63.63 0 0 1 .02-.8c.08-.1.17-.19.28-.26h.03l.14.15c.04.04.03.06-.03.06-.1 0-.2.05-.28.15a.33.33 0 0 0-.06.39c.06.13.17.22.31.28.14.05.26.02.38-.08a.49.49 0 0 0 .07-.09.52.52 0 0 1 .06-.07ZM13.4 21.65l-.01.02v.02l.7.37c.02.02.02.03 0 .05l-.1.14h-.02l-.95-.52c-.02 0-.02-.02-.01-.04l.12-.24c0-.02.02-.02.04-.02.03.01.06.02.09.01a7.26 7.26 0 0 0 .57-.05.09.09 0 0 0-.02-.04c-.15-.13-.31-.22-.48-.3-.02 0-.02-.01-.02-.03l.1-.17c0-.01.02-.02.03 0 .05.04.15.1.28.16.07.04.13.06.16.09l.53.29c.02.01.02.03.01.04l-.16.2c0 .02-.02.03-.03.02-.11-.02-.23-.02-.36-.01a3.54 3.54 0 0 1-.47.01ZM41.8 21.53l-.43.21h-.03l-.1-.2c0-.01 0-.03.02-.03l.97-.5c.02 0 .03 0 .04.02l.08.16c.02.03.01.05-.02.06l-.35.18v.02l.17.36c.02.03.04.04.08.02l.35-.18.03.01.06.18-.01.03a56.34 56.34 0 0 1-.94.52l-.01.02h-.05l-.1-.22c0-.01 0-.02.02-.03l.41-.21c.02-.01.02-.02.01-.04l-.19-.38h-.02ZM42.05 23l.09.15c.03.04.12.04.26-.01a7.15 7.15 0 0 0 .7-.28l.09.2-.01.02a8.88 8.88 0 0 1-.9.34c-.1.01-.17-.02-.23-.08a.75.75 0 0 1-.19-.57c.01-.06.05-.13.14-.19a.83.83 0 0 1 .21-.11l.6-.25c.02-.02.04 0 .05.02l.07.17c.01.03 0 .05-.02.06l-.68.27a.39.39 0 0 0-.13.1c-.05.07-.06.12-.05.16ZM12.27 22.43l-.02.02.01.02.1.08c.03.04.02.06-.02.07l-.02.01a.07.07 0 0 1-.08-.02l-.11-.12a.04.04 0 0 1-.01-.04c0-.01 0-.02.02-.03l.35-.18c.03-.02.05 0 .05.03v.02c0 .04-.02.06-.05.07l-.22.07Z" fill="#1B0347"/><path fill-rule="evenodd" d="M13.42 23.32a.49.49 0 0 0 .28-.27l.03-.08a.5.5 0 0 0 0-.4.49.49 0 0 0-.27-.27l-.2-.08a.48.48 0 0 0-.38 0 .49.49 0 0 0-.28.27l-.03.08a.5.5 0 0 0 0 .39c.05.13.14.22.27.28l.2.08c.13.05.26.05.38 0Zm-.63-.46c.05.08.14.14.26.19.11.05.22.06.31.05.12-.02.19-.1.2-.22a.29.29 0 0 0-.07-.25.63.63 0 0 0-.22-.13.62.62 0 0 0-.26-.06c-.09 0-.16.05-.22.13-.07.1-.07.2 0 .3Z" fill="#1B0347"/><path d="M12.37 23.73c-.02.1 0 .19.08.27.07.08.17.13.28.17.12.03.22.02.31-.02.1-.04.16-.13.17-.26v-.19l-.01-.07c0-.02 0-.03.02-.02l.12.02c.02 0 .04.02.04.04.02.2 0 .36-.07.5a.5.5 0 0 1-.39.27.65.65 0 0 1-.37-.05.72.72 0 0 1-.3-.23.52.52 0 0 1-.08-.46c.04-.17.13-.3.25-.4.03-.03.06-.03.08 0l.12.08c.03.02.02.04-.01.06a.42.42 0 0 0-.24.3ZM42.97 23.87l.14.48c0 .01 0 .02-.02.03l-.1.03h-.02l-.17-.48c0-.02-.02-.02-.03-.02l-.3.1c-.02 0-.03.02-.02.03l.15.48-.16.06h-.02l-.22-.77c0-.01 0-.02.02-.02l.15-.03a1195.24 1195.24 0 0 0 .96-.25l.24.76-.01.02-.12.04c-.02 0-.03 0-.04-.02l-.16-.51c0-.02-.02-.02-.03-.02l-.23.07v.02ZM43.58 23.5l.15.08c.07.05.1.11.1.2-.01.06-.04.13-.1.2h-.02l-.04-.03c-.01 0-.02-.02 0-.03l.05-.12c.02-.03.01-.06-.02-.08l-.09-.08a.16.16 0 0 1-.05-.08l-.02-.03c0-.04 0-.05.04-.03ZM43.84 24.25c.05.06.1.1.12.09.02-.02 0-.08-.04-.14-.04-.07-.1-.1-.11-.1-.03.02 0 .08.03.15Z" fill="#1B0347"/><path d="M39.41 20.45a13.87 13.87 0 0 1 1.98 5.04 15.19 15.19 0 0 1-.3 6.76 19.26 19.26 0 0 1-.6 1.68 7.06 7.06 0 0 0-1.24-.57 13.82 13.82 0 0 0-2.5-.6 11.8 11.8 0 0 0-4.66.39 8.5 8.5 0 0 0-.83.24 48.14 48.14 0 0 0-1.34.54 10.08 10.08 0 0 0-.9-2.7 20.3 20.3 0 0 0-1.54-2.62l-.6-.88a311.26 311.26 0 0 1-2.74-3.83 20.95 20.95 0 0 1-1.84-3.18c-.25-.55-.45-1.11-.6-1.7-.13-.48-.2-.91-.22-1.29a2.91 2.91 0 0 1 1.17-2.5 3.77 3.77 0 0 1 .9-.5 12.4 12.4 0 0 1 3.31-.7c.95-.06 1.91-.02 2.88.13a13.65 13.65 0 0 1 9.67 6.3Z" fill="#2D015D"/><path fill-rule="evenodd" d="M23.98 27.96c.01-.8-.12-1.59-.38-2.33-.14-.4-.33-.84-.58-1.33-.16-.31-.4-.75-.72-1.31a12.35 12.35 0 0 1-1.22-3.27 11.03 11.03 0 0 1-.1-3.65.06.06 0 0 0-.04-.03h-.04a12.34 12.34 0 0 0-4.12 3.45 13.9 13.9 0 0 0-2.86 7.28c-.11 1.42.06 2.65.52 3.7a4.68 4.68 0 0 0 1.9 2.15c.71.44 1.5.7 2.33.78a4.57 4.57 0 0 0 4.02-1.66 6.55 6.55 0 0 0 .84-1.45c.3-.72.45-1.5.45-2.33ZM21.2 24.9c.17-.44.23-.94.18-1.5a6.15 6.15 0 0 0-.08-.64 5.33 5.33 0 0 0-.18-.61 16.6 16.6 0 0 1-.52-1.78 9.29 9.29 0 0 1-.16-3.04 6.8 6.8 0 0 0-1.04.78c-.6.56-1.1 1.05-1.46 1.48-.3.36-.6.83-.88 1.4a7.46 7.46 0 0 0-.62 1.66c-.08.38-.11.76-.09 1.14.03.4.11.77.26 1.11.14.35.37.65.67.9.3.25.63.42 1 .5.71.18 1.37.1 1.96-.27.45-.26.77-.64.96-1.13Z" fill="#0F5ABA"/><path d="M35.93 21.84a3.63 3.63 0 0 0-1.26-2.07 3.47 3.47 0 0 0-4.78.41 3.52 3.52 0 0 0 1.05 5.47c.4.2.85.31 1.3.34.02 0 .03 0 .03-.02v-1.39c0-.01 0-.02-.02-.03l-2.03-2.05c-.02-.01-.02-.03 0-.05l2.27-2.29h.02l1.13 1.16.52.51.64.63v.01l-2.08 2.1-.01.03v1.38c0 .01 0 .02.02.02a3.42 3.42 0 0 0 2.35-1.12 3.42 3.42 0 0 0 .85-3.04Zm-1.35-1.64a3.03 3.03 0 0 1 1.02 2.18c.03.56-.07 1.07-.3 1.52a3.1 3.1 0 0 1-2.18 1.67c-.02 0-.03 0-.03-.02v-.77c0-.03 0-.06.03-.08l2.18-2.2c.02-.01.02-.03 0-.05l-2.8-2.81h-.02l-2.79 2.81v.05l.74.74 1.41 1.42c.04.04.06.08.06.13v.76c0 .02 0 .03-.03.02a3.13 3.13 0 1 1 1.5-6.05c.41.13.76.3 1.04.53l.17.15Z" fill="#F0F3FA"/><path d="m40.49 33.93-.09.2c-.28.64-.6 1.24-.96 1.81-.07-.01-.11-.03-.13-.05a3.43 3.43 0 0 0-.55-.53 5.78 5.78 0 0 0-1.48-.85 7 7 0 0 0-3.97-.3c-.53.1-1.11.22-1.73.37l-1.6.42c-.45.1-.9.17-1.34.25a15.4 15.4 0 0 1-3.55.15 15.6 15.6 0 0 1-2-.32v-.04l.02-.01a27.6 27.6 0 0 0 3.78-.34c.75-.12 1.52-.29 2.3-.51a5.75 5.75 0 0 0 .9-.34l1.17-.45a22.34 22.34 0 0 1 2.55-.6 8.55 8.55 0 0 0 .6-.08 11.78 11.78 0 0 1 3.11.16 13.83 13.83 0 0 1 1.73.49l.47.2c.26.1.52.23.77.37Z" fill="#0F5ABA"/><path d="M13.83 33.57a14.35 14.35 0 0 1-.81-8.16c0-.03 0-.04-.03-.05l-.68-.13c-.03 0-.04 0-.05.04a13.87 13.87 0 0 0-.23 3.78A16.05 16.05 0 0 0 27.4 44a15.83 15.83 0 0 0 13.2-6.42 15.87 15.87 0 0 0 2.88-12.33l-.73.13c-.02 0-.03.01-.03.04a15.2 15.2 0 0 1-.67 7.84 14.97 14.97 0 0 1-5.3 7.03 15.08 15.08 0 0 1-9.45 2.9c-2.52-.11-4.84-.79-6.95-2.04a15.33 15.33 0 0 1-6.5-7.58Z" fill="#2D015D"/><path d="m39.44 35.94-.2.33a.49.49 0 0 0-.1-.1 7.75 7.75 0 0 0-3.96-1.01c-.54 0-.94.02-1.2.04a13.97 13.97 0 0 0-2.44.49l-.48.16c-.42.16-.85.3-1.28.43a2.88 2.88 0 0 0 .03-.11c.1-.38.15-.77.17-1.17l1.6-.42a20.91 20.91 0 0 1 2.74-.48 6.38 6.38 0 0 1 4.54 1.34c.12.09.26.24.45.45.02.02.06.04.13.05Z" fill="#2D015D"/><path d="M39.24 36.27c-.33.5-.68.97-1.07 1.42-.03-.01-.05-.02-.07 0-.03 0-.04 0-.06-.02a4.45 4.45 0 0 0-2.01-1.11 5.55 5.55 0 0 0-.88-.15c-.85-.05-1.73.01-2.64.2l-1.4.28a24.06 24.06 0 0 1-1.93.3c-.85.08-1.69.1-2.53.04a10.58 10.58 0 0 1-1.64-.27c-.04-.06-.03-.08.04-.09.92 0 1.8-.06 2.65-.16a13.5 13.5 0 0 0 3.36-.86 7.06 7.06 0 0 1 .72-.23 13.97 13.97 0 0 1 2.2-.42c.26-.02.66-.04 1.2-.04 1.45 0 2.77.33 3.96 1.01l.1.1Z" fill="#0F5ABA"/><path d="m38.17 37.69-.1.12a2.76 2.76 0 0 0-.96-.38c-.32-.1-.56-.15-.72-.18a9.87 9.87 0 0 0-2.78-.03c-.82.12-1.5.26-2.07.44a23.9 23.9 0 0 1-3.05.76l-.01-.02c.33-.36.62-.77.84-1.22l.47-.07c.5-.07.94-.15 1.32-.22l1.4-.29c.9-.18 1.8-.24 2.64-.2.21.02.5.07.88.16a4.44 4.44 0 0 1 2.06 1.12h.08Z" fill="#2D015D"/><path d="m38.07 37.8-1.06 1.1-.28-.16a5.66 5.66 0 0 0-1.93-.6 9.11 9.11 0 0 0-2.06.07l-1.07.17-1.14.24c-.7.13-1.35.22-1.94.26a9.86 9.86 0 0 1-2.1-.14v-.03l.02-.02.15-.01c.67-.04 1.25-.12 1.72-.23.03 0 .06-.02.1-.05l.01.02c0 .01.01.02.03.02a22.31 22.31 0 0 1 1.43-.33c.43-.1.96-.25 1.59-.45a13.12 13.12 0 0 1 2.72-.5 9.87 9.87 0 0 1 2.13.1 6.48 6.48 0 0 1 1.07.27c.14.03.34.13.61.28Z" fill="#0F5ABA"/><path d="M37.01 38.9a13.68 13.68 0 0 1-3.62 2.39 12.68 12.68 0 0 1-5.92 1.13c-.96-.05-1.88-.2-2.76-.48a23.69 23.69 0 0 1-1.54-.55l.01-.04a14.42 14.42 0 0 0 4.57-2.47h.84c.59-.04 1.23-.13 1.94-.26l1.14-.24a14.06 14.06 0 0 1 3.13-.23 5.66 5.66 0 0 1 1.93.59l.28.16Z" fill="#2D015D"/></svg>