<!-- by TradingView --><svg width="56" height="56" viewBox="0 0 56 56" xmlns="http://www.w3.org/2000/svg"><path fill="#F0F3FA" d="M0 0h56v56H0z"/><path d="M25.48 36.02v-2.09l-2.11 1.27 1.84-14.86L26.9 19l.85.2-.85.7.85 15.1H33l-3.43-16.18L26.9 18l-5.25 3.9L17 37.43 21.32 39l4.16-2.98Z" fill="#015198"/><path d="M21.78 39C13.78 37.46 8 33.02 8 27.8 8 21.27 16.95 16 28 16s20 5.28 20 11.8c0 2.57-1.4 4.95-3.78 6.9h-1.56c2.57-1.9 4.1-4.3 4.1-6.9 0-6.12-8.4-11.07-18.76-11.07-10.36 0-18.76 4.95-18.76 11.06 0 5 5.63 9.23 13.35 10.6l-.8.61Z" fill="#E15517"/><path d="M37.7 34h-3.9l-.8-5.92L36.17 26l3.2 1.67L42 34h-2.3l-1.07 1-.94-1Z" fill="#E15517"/><path d="M38.93 36.63c.7-1.51 4.34-1.7 6.07-1.61-4.02 0-4.64 1.18-5.2 2.94-.65 2-3.47 2.16-4.8 1.99 3.03-.5 3.06-1.43 3.93-3.32Z" fill="#015198"/><path d="M39 35h-2.8l-.18.62h.88c-.23.61-.83 2.1-1.36 3.11C35.01 39.75 34.3 40 34 40c2.18 0 3.26-1.3 3.53-1.96l1-2.42H39V35Z" fill="#015198"/><path d="M26 36h3v.76h-.51v2.48H26.5v-2.48H26V36Zm0 3.24h3V40h-3v-.76ZM45 36.04a8.43 8.43 0 0 0-.87-.04c-2.28 0-4.13.9-4.13 2s1.85 2 4.13 2c.3 0 .59-.02.87-.04v-1.24c-.29.13-.65.2-1.04.2-.92 0-1.67-.41-1.67-.92 0-.5.75-.92 1.67-.92.4 0 .75.07 1.04.2v-1.24ZM34 36.04a8.43 8.43 0 0 0-.87-.04c-2.28 0-4.13.9-4.13 2s1.85 2 4.13 2c.3 0 .59-.02.87-.04v-1.24c-.29.13-.65.2-1.04.2-.92 0-1.67-.41-1.67-.92 0-.5.75-.92 1.67-.92.4 0 .75.07 1.04.2v-1.24Z" fill="#E15517"/></svg>