<!-- by TradingView --><svg width="56" height="56" viewBox="0 0 56 56" xmlns="http://www.w3.org/2000/svg"><path fill="#F0F3FA" d="M0 0h56v56H0z"/><path fill-rule="evenodd" d="m28.14 13 .65 1.95c.03.08.1.13.18.13 2.96.1 5.79.7 8.5 1.85 1.87.79 3.5 1.81 4.88 3.08a11.15 11.15 0 0 1 3.21 4.77c.45 1.36.55 2.75.32 4.17a9.49 9.49 0 0 1-1.59 3.89 15.35 15.35 0 0 1-6.68 5.27 22.37 22.37 0 0 1-8.27 1.86c-.57.02-1.16.03-1.77.03-3.17 0-6.16-.6-8.98-1.8-3.2-1.36-5.57-3.27-7.14-5.73a9.1 9.1 0 0 1 .07-9.98c1.56-2.38 3.87-4.23 6.95-5.55 2.7-1.17 5.6-1.79 8.7-1.86.1 0 .15-.04.18-.13l.67-1.95h.12Zm-5.67 16.17c1.52-4.47 2.94-8.6 4.27-12.43.01-.03 0-.05-.03-.05-2.43.16-4.69.74-6.78 1.76a12.42 12.42 0 0 0-5.29 4.59 8.28 8.28 0 0 0-1.2 5.85 6.1 6.1 0 0 0 1.07 2.75c.68.9 1.51 1.15 2.5.76.22-.09.6-.35 1.12-.8a9.76 9.76 0 0 1 3.95-2c.17-.05.3-.2.39-.43Zm14.58-10.18a17.57 17.57 0 0 0-7.53-2.27c-.07-.01-.1.02-.07.09a536486.56 536486.56 0 0 0 4.17 12.46c.08.22.18.35.3.39 1.12.34 2.1.78 2.91 1.31.1.07.4.3.9.72.6.48 1.17.77 1.72.86.67.1 1.25-.1 1.74-.6.35-.38.59-.7.71-.97a7.99 7.99 0 0 0-.02-6.93 10.4 10.4 0 0 0-1.99-2.86 12.7 12.7 0 0 0-2.84-2.2Zm-9.02 3.99.03.01a1203.18 1203.18 0 0 0 3.5 6.06c0 .02-.02.02-.03.02a22.71 22.71 0 0 0-7.03-.02c-.02 0-.03 0-.04-.02a1043.75 1043.75 0 0 0 3.57-6.05Zm7.58 13.21c.07-.06.08-.13.04-.2-.45-.8-1.41-2.43-2.88-4.91a.76.76 0 0 0-.47-.37 16.5 16.5 0 0 0-8.48-.1c-.24.06-.4.16-.47.28l-3.11 5.26c-.03.05-.02.1.02.14.8.74 1.75 1.25 2.88 1.53 2.8.7 5.63.79 8.47.27a8.98 8.98 0 0 0 2.17-.65c.66-.3 1.27-.72 1.83-1.25Zm-13.98-4.51c-.21.5-.7 1.93-1.48 4.26-.05.12-.1.14-.19.03-.68-.87-.8-1.75-.37-2.62a4.51 4.51 0 0 1 1.98-1.85c.05-.03.07-.01.08.03 0 .05 0 .1-.02.15Zm14.2 4.14-1.35-4c-.04-.13 0-.16.1-.09.83.5 1.38 1.09 1.66 1.76.31.76.21 1.54-.3 2.34a.06.06 0 0 1-.07.03.06.06 0 0 1-.05-.04Z" fill="#EBC586"/><path d="m28.08 18.33-.02 1.73c0 .1.02.11.08.02l.35-.62c.4-.24.79-.43 1.18-.58.17-.07.2-.04.07.1l-.08.07a18.04 18.04 0 0 0-1.5 1.25l-.02.1c-.03.1-.02.1.04.02.03-.05.11-.06.23-.03a74 74 0 0 1 1.6.36l.2.12c.09.06.08.09-.03.1l-1.3.03-.55-.45c-.15-.12-.18-.09-.1.08l.77 1.6.03.09c0 .06-.02.07-.06.02l-.92-1.05c.04-.24.02-.45-.05-.62-.01-.05-.04-.06-.06 0l-.92 1.74.3-1.5.55-.5a.18.18 0 0 0 .06-.14c0-.06-.02-.11-.07-.15L26.36 19c.09.03.08 0-.03-.1-.04-.04-.03-.06.01-.06a.1.1 0 0 0 .04 0h.03c.38.2.75.36 1.1.5.08.02.12 0 .15-.08l.28-1.06.05-.04c.03 0 .04 0 .06.02.03.04.03.1.03.16Z" fill="#fff"/><path d="m28.5 19.46-.36.62c-.06.09-.08.08-.08-.02l.02-1.73a.24.24 0 0 0 .06-.12c0-.02.02-.03.04-.02l.04.02.01.03c.1.41.18.82.26 1.22ZM26.35 19l1.5 1.12c.06.04.08.09.08.15s-.02.1-.06.15l-.55.48c-.43.01-.85.03-1.26.06-.05 0-.08-.04-.09-.14a18.04 18.04 0 0 1 1.75-.4c.26-.12.25-.19-.03-.2a2.14 2.14 0 0 1-.56-.15c-.36-.3-.62-.67-.78-1.08ZM29.66 19.05h.06c.04.03.05.07.02.1l-.53.76c-.08.11-.06.2.06.26l.8.44c.07.03.07.08.02.13l-.09.01c-.52-.12-1.06-.25-1.6-.36-.11-.03-.18-.02-.22.03-.06.08-.07.08-.04-.01l.03-.11c0-.03.02-.05.04-.07.46-.42.95-.81 1.45-1.18Z" fill="#DF8431"/><path d="M27.13 20.07c.22.08.4.13.56.14.28.02.29.09.03.2l-.16.04a18 18 0 0 0-1.58.37.13.13 0 0 1-.1-.04c-.04-.03-.03-.06 0-.08l1.25-.63Z" fill="#fff"/><path d="M28.87 21c.04.26.12.64.23 1.12.02.07-.02.1-.1.1l-.77-1.59c-.08-.17-.05-.2.1-.08l.54.45ZM28.05 21.29c-.25.35-.52.69-.8 1a.26.26 0 0 1-.11.08 5.4 5.4 0 0 1-.12.04l.92-1.75c.02-.05.05-.04.06 0 .07.18.09.4.05.63Z" fill="#DF8431"/><path d="M27.3 29.23c.02.05.03.1.01.15l-.14.5c0 .02-.01.03-.03.03l-.05-.02c-.02 0-.03-.02-.02-.04l.03-.12a.12.12 0 0 0-.03-.12c-.17-.18-.19-.38-.05-.6a.1.1 0 0 1 .12-.06c.05 0 .08.04.1.08l.07.2ZM28.5 29.27c-.04-.04-.06-.08-.04-.13.04-.11.11-.16.2-.16.07 0 .09.04.06.1-.05.1-.04.23.01.37.02.05.02.1 0 .17l-.14.3c-.01.02-.03.03-.05.03a.08.08 0 0 1-.04-.03c-.02-.01-.02-.03-.01-.04l.06-.1a.14.14 0 0 0 0-.15c-.06-.1-.07-.18-.03-.25.03-.05.02-.08-.02-.11Z" fill="#fff"/><path d="M27.1 29.28c-.02.09.01.17.06.17.04.01.09-.06.1-.15.02-.1-.01-.17-.06-.18-.04 0-.09.06-.1.16Z" fill="#EBC586"/><path d="M25.55 29.6c.02.26.08.47.11.46.04 0 .05-.21.03-.47-.03-.26-.08-.47-.12-.47-.04 0-.05.22-.02.48ZM30 29.62c-.02.26 0 .47.04.47.05 0 .1-.2.1-.46.02-.26 0-.47-.04-.47-.05 0-.1.2-.1.46ZM35.58 37.8c-.12-.08-.38-.1-.78-.07.17-.24.4-.3.67-.18.05.02.08.01.1-.04 0-.02 0-.05-.03-.07a.34.34 0 0 1-.1-.28c0-.07.04-.08.1-.04l.12.1a.1.1 0 0 0 .11.01l.24-.08c.05-.02.08 0 .07.06 0 .04-.03.08-.1.12a.6.6 0 0 0-.28.36.24.24 0 0 0 0 .15c.05.16.04.32-.04.46-.01.02-.03.03-.06.01a.07.07 0 0 1-.03-.03v-.19l.01-.29ZM20.02 38.23c.23-.1.4-.2.51-.3.04-.04.04-.08 0-.12l-.38-.33a.2.2 0 0 1 0-.06c0-.05.02-.07.06-.05.17.06.32.17.44.31.03.05.07.05.11.01a.31.31 0 0 0 .08-.14c.03-.1.06-.11.08-.04l.01.08c0 .05.03.08.08.1l.33.15v.01l-.01.04h-.01l-.57-.01c-.02 0-.04 0-.05.02-.03.04-.03.08.01.13a.1.1 0 0 0 .05.03c.16.06.2.2.12.41-.02.07-.05.07-.08 0l-.16-.35c-.02-.04-.06-.05-.11-.03-.04.02-.08.07-.12.14a.16.16 0 0 1-.12.09c-.08.01-.17-.02-.27-.1Z" fill="#fff"/><path d="m20.15 37.48.38.33c.04.04.04.08 0 .12-.1.1-.28.2-.51.3.15-.26.17-.5.06-.7-.02-.03-.01-.05.02-.06h.05Z" fill="#DF8431"/><path d="M35.99 37.9c.1.08.22.1.25.06.02-.04-.04-.13-.15-.21-.11-.08-.22-.1-.25-.06-.03.04.04.13.15.2Z" fill="#fff"/><path d="M35.58 37.8c0 .21-.03.35-.06.43-.03.05-.06.05-.1 0a.77.77 0 0 0-.16-.22.72.72 0 0 0-.26-.1c-.11-.03-.18-.09-.2-.18.4-.04.66-.01.78.07Z" fill="#DF8431"/><path d="M31.97 38.57a.47.47 0 0 1 .15-.03c.17.02.18.07 0 .15-.16.08-.26.16-.29.25 0 .04 0 .06.04.07.21.04.32.11.32.22 0 .02-.02.03-.04.04h-.04a.05.05 0 0 1-.02-.03.56.56 0 0 0-.1-.1c-.03-.05-.07-.04-.1 0l-.19.35c-.02.03-.04.04-.07.03l-.07-.02c-.01 0-.02-.02-.01-.03a.87.87 0 0 1 .22-.37c.02-.02.03-.05.02-.08a.07.07 0 0 0-.05-.05l-.46-.13c-.06-.02-.06-.04 0-.07.1-.05.2-.03.34.06.02.01.04.01.07 0a.06.06 0 0 0 .03-.06v-.23c0-.03.02-.05.05-.06.03-.01.05 0 .07.02l.05.07h.08ZM24.33 38.87l-.31-.15c-.04-.05-.05-.1-.05-.13.01-.05.04-.08.1-.07.13.03.22.11.27.25.01.02.03.04.06.05.03 0 .06-.01.08-.05l.01-.04v-.1c0-.08.04-.1.12-.06l.32.2c.04.02.04.03 0 .04a.6.6 0 0 1-.24.01c-.08-.01-.13.02-.16.1-.03.07-.02.13.05.17l.16.12c.02.01.02.03 0 .04l-.02.05c-.01.02-.03.03-.05.01a.88.88 0 0 1-.34-.44Z" fill="#fff"/><path d="m24.02 38.72.3.15c0 .2-.05.29-.16.27a.33.33 0 0 1-.22-.14.35.35 0 0 1-.06-.25c0-.04.05-.05.14-.03ZM27.84 39.5l-.08-.26c-.02-.04 0-.06.04-.06.03 0 .08 0 .15.02.05.01.08.04.08.1 0 .1-.03.17-.1.22-.04.03-.07.02-.09-.03Z" fill="#DF8431"/></svg>