<!-- by TradingView --><svg width="56" height="56" viewBox="0 0 56 56" xmlns="http://www.w3.org/2000/svg"><path fill="#F0F3FA" d="M0 0h56v56H0z"/><path d="M28.63 12.79c.47-.26.74-.52.8-.79h-1.08c-.99.41-1.9.97-2.74 1.68-.3.25-.66.47-1.09.64-.3.12-.54.05-.73-.2-.17-.24-.16-.48.05-.74.04-.06.28-.27.72-.63.25-.21.2-.3-.11-.26-.67.07-1.26.34-1.78.8-.31.29-.71.77-1.2 1.47a6.38 6.38 0 0 1-1.6 1.72c-.14.09-.25.1-.33.05a.21.21 0 0 1-.1-.24c.03-.2.02-.31-.05-.36-.1-.06-.18-.05-.24.05a6.89 6.89 0 0 0-1.38 4.39c.01.37.1.39.26.06a7.68 7.68 0 0 1 2.54-2.97 13.85 13.85 0 0 1 6.8-2.29 7.1 7.1 0 0 1 3.23.55v.02c0 .01 0 .02-.02.01a12.7 12.7 0 0 0-9.36 2.02c-.78.52-1.46 1.11-2.05 1.79a5.93 5.93 0 0 0-1.32 2.28.88.88 0 0 0-.02.5 8.46 8.46 0 0 0 2.9 4.27c.37.28.45.21.23-.2a3.97 3.97 0 0 1-.15-3.45c.45-1.12 1.23-2 2.36-2.64a6.54 6.54 0 0 1 3.59-.82c1.25.05 2.43.4 3.53 1.04a6.84 6.84 0 0 1 2.58 2.53 5.8 5.8 0 0 1 .74 3.65c-.03.27.03.52.18.75l.29.43c.16.25.26.23.29-.07a9.26 9.26 0 0 0-.5-4.18 6.66 6.66 0 0 0-2.5-3.35c-.02-.01-.02-.04-.01-.09.01-.05.05-.07.1-.05a5.72 5.72 0 0 1 3.38 3.53c.6 1.55.8 3.23.6 5.06-.02.09.02.15.1.18l.6.2c.1.02.16 0 .22-.07.34-.5.96-.92 1.84-1.26a.3.3 0 0 0 .19-.2c.85-2.9.4-5.56-1.35-7.98-.35-.48-1-1.17-1.98-2.07a.36.36 0 0 1-.12-.22c-.02-.13.01-.23.08-.3.1-.08.2-.1.32-.06l.53.18c.5.16.57.06.21-.33a7.45 7.45 0 0 0-2.5-1.4c-.48-.18-.81-.33-1-.42-.15-.08-.17-.18-.06-.31.37-.46.83-.57 1.37-.35.12.04.16 0 .14-.11-.01-.07-.06-.14-.15-.2a2.48 2.48 0 0 0-1.28-.4 8.8 8.8 0 0 0-1.4.1c-1.12.13-1.95.1-2.5-.1a.43.43 0 0 1-.3-.4.43.43 0 0 1 .23-.44Zm-3.97 11.3c-.1.3-.02.72.24 1.24.04.08.02.13-.08.14-.12.02-.25-.04-.38-.15-.49-.44-.79-1-.9-1.64-.06-.4-.2-.43-.39-.07-.18.35-.17.85.03 1.5.04.1 0 .15-.1.14-.08 0-.17-.05-.25-.15a3.58 3.58 0 0 1-.83-1.98c-.04-.28-.12-.3-.25-.05a2.9 2.9 0 0 0-.08 2.4c.29.8.76 1.47 1.41 2.01a.2.2 0 0 0 .22.03 7.5 7.5 0 0 1 5.79-.14c.09.04.12 0 .08-.08a.77.77 0 0 0-.38-.4l-.55-.26c-.9-.43-1.54-.77-1.9-1.03-.6-.44-.98-.92-1.12-1.46-.16-.65-.35-.67-.56-.06Zm4.18-.13c-.22.8 0 1.45.63 1.9.05.04.06.09.05.15-.02.07-.06.1-.12.07a9.1 9.1 0 0 1-1.06-.53.48.48 0 0 0-.28-.06c-.19.02-.32-.03-.39-.14-.04-.07-.03-.2.03-.38.18-.5.53-.85 1.07-1.07.06-.02.08 0 .07.06Zm-13.4-.04c.14-1.56.54-3.07 1.17-4.54a.12.12 0 0 1 .1-.08c.05 0 .1 0 .13.04.02.03.04.06.03.1a9.73 9.73 0 0 0 1.42 6.01c.54.9 1.24 1.61 2.1 2.14.96.6 1.92.82 2.88.67.38-.06 1.17-.2 2.37-.43.86-.16 1.9-.1 3.1.15 1.36.3 2.3 1.05 2.82 2.26.08.2.17.2.24-.01.2-.58.01-1.21-.55-1.89-.41-.5-.94-.95-1.59-1.33a.21.21 0 0 1-.1-.16c-.02-.12.02-.16.14-.13 1 .36 1.72.66 2.16.9.67.39 1.2.9 1.6 1.53.05.06.04.12-.01.17l-.66.62a.47.47 0 0 0-.15.38c0 .15.06.27.18.37.28.22.64.35 1.07.39.1 0 .19-.03.26-.1.26-.26.54-.38.85-.37.2.01.49.1.9.26l.51.2c.17.04.32.02.47-.07a.56.56 0 0 0 .27-.38l.22-1.1c.02-.1.08-.16.17-.2a.9.9 0 0 1 .5-.03c.12.03.14.1.07.2l-.35.54c-.07.1-.04.16.06.2l.1.03c.13.05.23.02.32-.08.14-.17.29-.27.45-.29.12-.02.24.05.37.19.92 1 1.24 2.2.95 3.61-.01.07-.05.1-.12.1h-.08c-.02-.01-.03-.03-.04-.06l-.5-1.62c-.13-.46-.36-.52-.68-.17-.39.43-.9.8-1.54 1.12-.09.04-.12.1-.08.2.25.69.24 1.45-.04 2.26-.04.1-.1.12-.2.07a.25.25 0 0 1-.14-.25c.01-.7-.26-1.28-.82-1.74a.18.18 0 0 0-.22-.02c-.51.27-.86.42-1.06.44-1.21.13-2.21.23-2.98.29-1.45.12-2.52.63-3.19 1.53-.07.1-.05.15.06.18.25.05.6.07 1.07.05.8-.03 1.6.22 2.37.75.45.31 1.05.87 1.8 1.66.38.4.66.69.84.85.8.73 1.63.92 2.47.57.61-.24.85-.72.7-1.42-.02-.15.04-.23.19-.23h.1c.1 0 .16.05.18.15.14.47.17.82.1 1.04a.2.2 0 0 0 .06.22.2.2 0 0 0 .21.04 3.3 3.3 0 0 0 1.54-1c.13-.15.11-.29-.04-.41-.38-.32-.87-.51-1.46-.57-.35-.04-.9-.03-1.66.03-.94.07-1.61.06-2.02-.04a2.2 2.2 0 0 1-1.5-1.29c-.04-.06-.04-.1-.03-.14.04-.06.07-.07.12-.01.44.57 1.01.9 1.7 1.01a7.7 7.7 0 0 0 1.96-.08 8.6 8.6 0 0 1 1.73-.1c.62.06 1.13.3 1.53.69.1.1.18.08.23-.06l.26-.8c.04-.1.1-.13.19-.07l.07.05a.1.1 0 0 1 .04.08v.63c-.01.55.05.95.18 1.21a5 5 0 0 1 .62 3.31A4.8 4.8 0 0 1 40.19 45c-.02.02-.02.01-.03 0a3.58 3.58 0 0 1 0-.12 6.8 6.8 0 0 0 1.3-2.76c.12-.66-.02-.73-.45-.2a5 5 0 0 1-2.45 1.64c-.03 0-.05 0-.05-.03l-.04-.1c-.03-.11 0-.19.1-.23 1-.4 1.7-1.05 2.12-1.96.26-.55.31-1.12.15-1.7-.04-.13-.1-.15-.2-.06a7.93 7.93 0 0 1-3.54 1.74A4.33 4.33 0 0 1 32.94 40l-2.4-2.26c-.16-.16-.32-.16-.49.01a5.1 5.1 0 0 1-2.13 1.29c-.52.16-1.33.32-2.45.48l-.77.12a7.2 7.2 0 0 0-1.2.4c-1.03.74-1.1.65-.23-.28.2-.21.63-.38 1.3-.5 1.42-.27 2.24-.43 2.44-.48a4.58 4.58 0 0 0 1.74-.89c.08-.06.08-.13.01-.21-.12-.13-.28-.17-.47-.12-.2.05-.66.22-1.4.5a5.6 5.6 0 0 1-3.39.05l.03-.09c.02-.05.06-.08.11-.07.96.08 1.88.01 2.74-.2.42-.11.43-.25.02-.4-.8-.3-1.47-.86-2-1.67-.58-.92-.67-1.76-.28-2.55.05-.1.02-.15-.09-.15a.2.2 0 0 0-.16.07c-.86.98-.89 2.02-.08 3.11.04.05.04.1.01.15a.13.13 0 0 1-.13.08l-.4-.04a2.18 2.18 0 0 0-1.08.05c-.74.35-1.3.71-1.67 1.09-.45.46-.56.39-.33-.2l.12-.37c.15-.57.33-.93.54-1.08.47-.37.4-.53-.18-.5a3.9 3.9 0 0 0-2.7 1.32c-.38.4-.5.32-.4-.2.15-.67.55-1.2 1.21-1.61.48-.3.44-.46-.12-.5-1.44-.09-2.54.39-3.31 1.44-.32.42-.42.38-.3-.14a4.8 4.8 0 0 1 .99-2.04c1.03-1.26 2.28-1.77 3.75-1.52.05 0 .08-.01.1-.06.02-.04 0-.08-.03-.1-3.04-2.11-4.53-4.8-4.5-8.07 0-.22.02-.22.05 0l.02.07c0 .01 0 .01 0 0Zm19.27 8.6v-.25c-.01-.1.02-.18.1-.25l.53-.5c.07-.07.09-.15.04-.24-.04-.1-.11-.13-.21-.12-.54.09-.95.36-1.23.84a.32.32 0 0 0-.03.28c.1.26.29.4.6.43.14.02.21-.05.2-.2Zm-4.73-1.14c-.31-.11-.72-.17-1.22-.18-.5 0-.91.04-1.22.15a.2.2 0 0 0-.15.17.2.2 0 0 0 .1.21c.47.3.88.44 1.26.45.36 0 .79-.13 1.26-.41a.2.2 0 0 0 .1-.2.2.2 0 0 0-.13-.19Z" fill="#026938"/></svg>