<!-- by TradingView --><svg width="56" height="56" viewBox="0 0 56 56" xmlns="http://www.w3.org/2000/svg"><path fill="#F0F3FA" d="M0 0h56v56H0z"/><path fill-rule="evenodd" d="M28.18 10.15c-.05-.1-.1-.15-.16-.15-.05 0-.1.05-.15.15l-12 23.69a.1.1 0 0 0 0 .1.1.1 0 0 0 .1.06l8.17-.02c.18 0 .32-.06.44-.19l3.22-3.51c.09-.1.17-.15.24-.15.08 0 .16.05.25.15a956.3 956.3 0 0 0 3.23 3.5c.12.13.26.2.43.2h8.18a.1.1 0 0 0 .1-.06.1.1 0 0 0 0-.1c-5.2-10.2-9.2-18.1-12.05-23.67Zm.43 18.22V14.21c0-.04.02-.07.05-.07.04-.01.07 0 .09.04l9.2 18c.02.04.02.07 0 .1a.07.07 0 0 1-.1.02l-9.2-3.86a.07.07 0 0 1-.04-.07Zm-1.23.1-9.14 3.79c-.03.01-.06 0-.08-.02a.07.07 0 0 1 0-.08l9.13-17.82c.02-.04.05-.05.08-.04.04.01.06.03.06.07v14.04c0 .03-.02.05-.05.07Zm-3.57 4.19 1.94-1.93c.03-.03.03-.06.01-.1-.02-.03-.05-.04-.09-.03l-4.66 1.89c-.04.01-.05.04-.05.08.01.04.04.06.08.06l2.72.05c.02 0 .04 0 .05-.02Zm11.45 0-2.9-.03a.26.26 0 0 1-.2-.08l-1.8-1.82c-.12-.12-.1-.16.06-.1.98.35 2.58 1 4.8 1.94.05.03.08.05.07.08h-.03ZM28 39.26l.05-.01.04-.03c1.16-1.2 2.5-2.56 4.02-4.09.09-.09.2-.13.32-.13h8.32c.17 0 .25.08.25.25v1.5c0 .14-.07.21-.2.21h-7.35a.87.87 0 0 0-.65.27 4134 4134 0 0 0-4.52 4.6c-.11.11-.2.17-.28.17-.08 0-.17-.06-.28-.17a4134 4134 0 0 0-4.52-4.6.87.87 0 0 0-.65-.27H15.2c-.13 0-.2-.07-.2-.2v-1.5c0-.18.08-.26.25-.26h8.32c.13 0 .23.04.32.13a457.86 457.86 0 0 1 4.06 4.12H28Zm12.96-.97v-.42c0-.1-.05-.15-.15-.15h-7.45a.14.14 0 0 0-.1.04L28.12 43c-.07.07-.14.07-.22 0l-5.11-5.22a.14.14 0 0 0-.1-.05h-7.55c-.1 0-.15.06-.15.16v.4c0 .1.05.16.15.16h7.32c.04 0 .08.01.1.04l5.37 5.46c.07.08.14.08.21 0l5.35-5.45a.14.14 0 0 1 .1-.05h7.21c.1 0 .15-.05.15-.15Z" fill="#F20403"/></svg>