<!-- by TradingView --><svg width="56" height="56" viewBox="0 0 56 56" xmlns="http://www.w3.org/2000/svg"><path fill="#F0F3FA" d="M0 0h56v56H0z"/><path fill-rule="evenodd" d="M8 23h2.5v10H8V23Zm13 0h2.5v10H21V23Zm-10 0h4.55a4.82 4.82 0 0 1 4.85 4.8v.4c0 2.65-2.17 4.8-4.85 4.8H11V23Zm2.5 2h2.18c1.28 0 2.32 1.29 2.32 2.88v.24c0 1.6-1.04 2.88-2.32 2.88H13.5v-6Zm19.14 6.6A5.14 5.14 0 0 1 24 28a5.14 5.14 0 0 1 8.5-3.73l-1.47 1.88A2.74 2.74 0 0 0 26.25 28a2.75 2.75 0 0 0 4.85 1.77l1.54 1.83ZM42 28a5 5 0 1 1-10 0 5 5 0 0 1 10 0Zm-2.25 0a2.75 2.75 0 1 1-5.5 0 2.75 2.75 0 0 1 5.5 0Z" fill="#104747"/><path fill-rule="evenodd" d="m46.8 22.36-.02-.01v-1.33c0-.01 0-.02-.02-.02h-1.33c-.01 0-.02 0-.02.02l.03 1.26c0 .02-.01.02-.02 0l-.94-.93h-.05l-.92.96v.06l.82.77c.04.03.03.05-.01.05l-1.31.04-.01.02.02 1.37c0 .02.01.02.02.02l1.25-.13c.07 0 .08.02.03.07l-.95.94v.04l.93.97c0 .02.02.02.03 0l.87-.9c.01-.02.03-.02.04-.02l.02.03v1.33c0 .02.01.03.04.03l.14-.02a18.48 18.48 0 0 1 1.19-.01v-1.2c0-.03 0-.04.03-.02l.91.87c.02.02.04.02.06 0a235.33 235.33 0 0 1 .92-.94l-.89-.89v-.02c0-.01 0-.02.02-.02h1.29c.02 0 .03 0 .03-.03v-1.34c0-.02 0-.03-.03-.03a70.25 70.25 0 0 0-1.24.08c-.02-.01-.02-.02 0-.04l.9-.94v-.05l-.9-.93c-.02-.03-.05-.03-.07 0l-.85.89Zm-.06.16-.6.29a.11.11 0 0 1-.12-.01l-.47-.34h-.03a.03.03 0 0 0-.03.02l-.26.64c0 .02-.02.03-.04.03l-.65.05-.02.01v.03l.35.6c.02.02.01.05 0 .07l-.35.56v.02a9.76 9.76 0 0 0 .63.29c.02.02.04.05.04.1l.06.54c0 .02 0 .02.03.02l.65-.32H46l.53.4.03-.01c.06-.19.12-.38.2-.57.02-.05.06-.09.12-.1a4.03 4.03 0 0 1 .63-.1v-.02c-.14-.2-.25-.4-.34-.6v-.06l.26-.41a.6.6 0 0 1 .06-.08.42.42 0 0 0 .06-.09v-.03c-.2-.07-.38-.15-.58-.24-.05-.02-.09-.05-.1-.09a7.47 7.47 0 0 1-.08-.58c0-.02-.02-.03-.04-.02Z" fill="#DD352D"/></svg>