<!-- by TradingView --><svg width="56" height="56" viewBox="0 0 56 56" xmlns="http://www.w3.org/2000/svg"><path fill="#F0F3FA" d="M0 0h56v56H0z"/><path d="M23.03 13.05c0 .03.02.05.03.07a41.3 41.3 0 0 0 11 14.16c.02.02.05.02.08 0a33.49 33.49 0 0 1 2.28-1.72c0-.01 0-.02-.02-.03-4.29-3.44-7.7-7.6-10.21-12.48a.09.09 0 0 0-.08-.05l-3.06.02c-.02 0-.03.01-.02.03Zm5.66 2.23a38.8 38.8 0 0 0 1.7 2.5c.01.02.02.02.03 0a40.5 40.5 0 0 0 2.62-4.74c.01-.02 0-.03-.02-.03h-3.07a.07.07 0 0 0-.07.04c-.36.7-.76 1.43-1.2 2.16a.06.06 0 0 0 0 .07ZM35.05 21a12.55 12.55 0 0 1-2.76-4.18.1.1 0 0 1 0-.1 43.72 43.72 0 0 0 1.88-3.6c.03-.06.04-.06.05 0a9.8 9.8 0 0 0 5.51 7.85c1.01.48 2.08.79 3.2.91.06.01.06.03 0 .05a43.68 43.68 0 0 0-3.62 1.85.1.1 0 0 1-.1 0A12.54 12.54 0 0 1 35.05 21Zm-17.19 2.33a12.58 12.58 0 0 0 5.9-6.58 43.9 43.9 0 0 1-1.86-3.62c-.02-.06-.04-.06-.04 0A9.81 9.81 0 0 1 16.3 21a9.8 9.8 0 0 1-3.2.91c-.06.01-.07.02-.01.05a43.84 43.84 0 0 1 3.63 1.86.1.1 0 0 0 .1.01c.3-.12.65-.28 1.03-.48ZM13.1 32.9a1.9 1.9 0 0 1-.07.03c-.02.01-.03 0-.03-.02v-3.05c0-.04.02-.06.05-.08a38.32 38.32 0 0 0 12.56-10.12 33.43 33.43 0 0 0 1.7 2.29c.02.02.02.05 0 .08a41.21 41.21 0 0 1-14.2 10.87Zm29.86-9.8-.06.03A41.13 41.13 0 0 0 28.72 34c-.02.03-.02.05 0 .08a33.25 33.25 0 0 1 1.7 2.28l.03-.01a38.25 38.25 0 0 1 12.5-10.1.08.08 0 0 0 .05-.08v-3.04c0-.03-.02-.03-.04-.03ZM17.7 25.7l-.68.48a31.33 31.33 0 0 1-1.82 1.2.08.08 0 0 1-.1 0c-.67-.4-1.35-.77-2.04-1.12-.03-.02-.05-.06-.05-.13v-3.01c0-.02.01-.03.03-.02 1.61.75 3.16 1.59 4.66 2.53.03.02.03.04 0 .06Zm21.24 4.21-.6.43c-.02 0-.02.02 0 .03A42.43 42.43 0 0 0 43 32.89v-3.1c0-.01 0-.02-.02-.03l-2.05-1.11a.1.1 0 0 0-.1 0l-1.16.74-.74.51Zm-5.96 12.98.03.07c.01.02 0 .03-.02.03l-3.05.02a.09.09 0 0 1-.09-.05 38.4 38.4 0 0 0-10.23-12.51l.02-.03c.8-.54 1.55-1.1 2.26-1.69.03-.02.06-.02.08 0a41.3 41.3 0 0 1 11 14.16Zm-9.7-4.8a12.54 12.54 0 0 0-6.45-5.89.1.1 0 0 0-.1 0 43.68 43.68 0 0 1-3.6 1.87c-.06.02-.06.04 0 .05a9.76 9.76 0 0 1 7.82 5.52c.48 1 .79 2.07.9 3.19.01.06.03.06.05 0 .18-.42.39-.85.6-1.29.5-.98.93-1.76 1.26-2.32a.1.1 0 0 0 0-.1c-.11-.3-.27-.65-.47-1.03Zm13.76-1.12a9.83 9.83 0 0 0-2.82 5.95c0 .06-.02.07-.05.01a43.88 43.88 0 0 0-1.89-3.63.1.1 0 0 1 0-.1 12.62 12.62 0 0 1 7.05-7 43.62 43.62 0 0 0 3.64 1.87c.06.02.05.03 0 .04a9.82 9.82 0 0 0-5.93 2.86Zm-9.69 3.76a38.77 38.77 0 0 0-1.7-2.5c-.01-.02-.02-.02-.03 0a40.41 40.41 0 0 0-2.62 4.74c0 .02 0 .03.02.03h3.08c.03 0 .05-.02.06-.05.36-.7.76-1.42 1.2-2.15a.06.06 0 0 0 0-.07Z" fill="#EC911B"/></svg>