<!-- by TradingView --><svg width="56" height="56" fill="none" xmlns="http://www.w3.org/2000/svg"><path fill="#F0F3FA" d="M0 0h56v56H0z"/><path fill-rule="evenodd" clip-rule="evenodd" d="M9.5 22H4.499v.305h.524c.497 0 .977.506.977 1.131v9.052c0 .624-.48 1.131-.977 1.131h-.524V34H9.5v-.381h-.373C8.63 33.619 8 33.112 8 32.488v-9.052c0-.625.63-1.131 1.127-1.131H9.5V22Zm18 0h-5v.305h.524c.497 0 .977.506.977 1.131v9.052c0 .624-.48 1.131-.977 1.131h-.525V34h5.002v-.381h-.373c-.497 0-1.127-.507-1.127-1.131v-9.052c0-.625.63-1.131 1.127-1.131h.373V22Zm-17 0v.326h.4c.564 0 1.1.503 1.1 1.124v9.091c0 .62-.536 1.124-1.1 1.124h-.4v.332h5.42c1.768.07 5.08-1.012 5.08-5.89 0-4.877-3.312-6.103-5.08-6.107H10.5ZM14 32.96V22.53h1.436c1.188.012 3.564 1.078 3.564 5.234 0 5.37-2.762 5.668-3.68 5.668-.734 0-1.186-.315-1.32-.472Zm25-6.95h-.259c0-.264-.865-3.347-3.462-3.347-2.596 0-4.268 2.45-4.279 5.048-.011 2.599 1.12 5.506 3.977 5.506 2.287 0 3.462-1.277 3.764-1.915v.892C38.225 32.796 36.75 34 34.977 34 32.764 34 29 33.02 29 28.19S32.837 22 34.754 22c1.174 0 1.849.334 2.371.594.33.163.6.297.897.297.614 0 .735-.594.72-.891H39v4.01ZM52 28a6 6 0 1 1-12 0 6 6 0 0 1 12 0Zm-2 0c0 3.038-1.79 5.5-4 5.5s-4-2.462-4-5.5 1.79-5.5 4-5.5 4 2.462 4 5.5Z" fill="#DB0008"/></svg>