<!-- by TradingView --><svg width="56" height="56" fill="none" xmlns="http://www.w3.org/2000/svg"><path fill="#F0F3FA" d="M0 0h56v56H0z"/><path fill-rule="evenodd" clip-rule="evenodd" d="M18.208 16.923c.04-.294-.29-.727-.46-.907.945-.368 3.323-1.105 5.282-1.105-.479.315-.439.727-.417.946.004.037.007.068.007.093 0 .062.001.11.003.154.002.077.005.14-.003.24-.008.103-.127.15-.233.192a.504.504 0 0 0-.14.072.519.519 0 0 0-.162.46c.016.146.112.192.18.224.042.02.074.035.069.065-.013.079-1.081.276-1.392.29-.233.01-.459.315-.641.561-.061.083-.117.158-.167.214-.141.159-.226.052-.263.006-.015-.02-.023-.029-.023-.006v.017c.001.108.004.466-.136.614-.063.067-.118.106-.163.138-.062.044-.107.076-.136.152-.05.131-.174.04-.323-.132-.08-.093-.195-.096-.295-.1-.083-.002-.155-.004-.19-.058-.026-.042-.026-.099-.025-.167.001-.12.003-.279-.148-.464-.19-.231-.228-.36-.224-.394.46-.513.31-.881.224-.96-.033-.03-.08-.006-.123.016-.071.037-.132.069-.101-.16ZM16.61 37.04l-.874-.986c0-.496-.01-1.53-.05-1.7-.014-.061-.011-.3-.007-.618.01-.777.026-2.028-.192-2.34-.082-.117-.225-.268-.391-.445-.466-.493-1.116-1.181-1.116-1.836 0-.426.153-.646.272-.817.13-.187.219-.317.028-.592l-.166-.167h-.6a1.657 1.657 0 0 0-.574-.723c-.246-.165-.295-.166-.398-.168-.067-.001-.158-.003-.342-.052l-.189-.046c-.465-.112-1.098-.264-1.484-.834a18.355 18.355 0 0 1-.37-.574c-.216-.346-.358-.574-.47-.597-.086-.019-.027.146.045.348.069.191.15.417.13.55-.034.218-.098.138-.126.07-.136-.34-.577-1.23-1.256-2.07-.064-.076-.192-.258-.192-.378 0-.063.041-.118.09-.183a.657.657 0 0 0 .16-.38c.013-.247-.072-.637-.117-.802.34-.531 1.298-1.779 2.4-2.518a92.874 92.874 0 0 1 2.796-1.794c.03.222.118.68.227.74.044.024.1.038.153.05.113.029.207.053.117.153-.073.08-.245.107-.37.125-.104.016-.175.026-.127.06a.746.746 0 0 0 .152.07c.104.04.211.08.211.152 0 .075-.146.124-.286.171a1.389 1.389 0 0 0-.18.07c-.141.073-.464.314-.574.536-.11.221.223.48.45.573.047.02.095.038.141.056.178.069.344.133.45.221.133.111.299.333.299.537 0 .203.141.517.316.258.03-.045.058-.085.084-.12.122-.173.183-.26.125-.397l.065-.08c.18-.217.255-.309.302-.475.013-.046.028-.081.042-.113.04-.095.064-.15-.042-.33-.14-.241 0-.556 0-.556.024-.037.095-.07.193.093.083.14.11.133.18.115.032-.008.074-.02.134-.02.472 0 .524.053.577.367.022.13.013.207.007.261-.008.076-.012.107.08.183.08.066.106-.016.142-.13.034-.11.078-.25.19-.314.227-.13.454.019.49.296.019.152.033.204.05.269.014.053.03.115.054.249.014.076.018.137.022.189.01.15.015.223.223.347.24.143.39.354.472.47a2.098 2.098 0 0 0 .04.053 3.085 3.085 0 0 0-.198-.005c-.301 0-.328-.038-.366-.09-.032-.044-.072-.1-.298-.15a.681.681 0 0 1-.406-.24c-.069-.079-.107-.122-.24-.038-.067.07-.122.122-.165.162-.125.115-.14.13-.01.226.408.337.602.409.718.452.043.016.075.027.103.048.105.073.35.295 0 .295-.151 0-.277-.034-.391-.066-.15-.042-.282-.078-.43-.026-.096.034-.168.046-.237.058-.12.021-.228.04-.427.164-.179.11-.194.197-.209.285-.011.067-.023.134-.105.214-.154.148-.507.234-.665.26-.055.117-.022.225.006.314.024.078.043.14-.005.184-.036.031-.03.035-.022.04.015.01.035.022-.258.256-.13.104-.257.184-.365.251-.256.16-.401.251-.212.434.084.08.154.13.207.167.12.085.155.11.063.276-.113.204-.14.168-.22.062a2.295 2.295 0 0 1-.141-.186c-.106-.147-.23-.32-.363-.32-.072 0-.079-.024-.087-.055-.013-.044-.029-.1-.245-.111-.367-.019-1.457.155-1.457.61 0 .455.134 1.487.598 1.108.123-.1.248-.21.364-.312.326-.287.582-.51.495-.27-.032.087-.075.17-.115.248-.11.21-.2.386-.003.526.125.089.186.031.249-.027.073-.07.147-.14.325.027.15.14.17.232.187.315.02.1.038.188.28.328.073.043.132.079.181.11.248.152.266.163.735.163h2.481l4.143 1.443c-.157.219-.555.737-.897 1.062-.087.083-.17.153-.246.218-.301.254-.509.43-.493.979.019.622-.28.788-.727 1.036l-.147.083c-.317.18-.39.469-.46.75-.047.188-.093.373-.212.52-.294.365-.508.624-.752.71-.244.086-.874.506-.925.656-.052.15.142.301.223.194.082-.108.285-.237.204-.118-.036.051-.112.142-.191.236-.102.12-.208.247-.236.301-.052.097.04.183.132.183.091 0 .213.054.152.205-.049.12-.21.311-.285.392-.023.052-.056.17 0 .221.034.03.066.032.09.034.026.001.043.002.043.042 0 .06-.177.14-.265.172v.086c0 .097.173.15.265.108.038-.019.055-.075.069-.12.018-.06.03-.1.083.012.05.105.129.159.195.204.055.038.101.069.11.119.02.108-.479.216-.64.108Zm5.227-18.748c.012-.158.05-.224.236-.184.142.03.32.014.424.005.033-.003.058-.005.073-.005.022 0 .027-.03.032-.065.01-.063.023-.145.142-.12.149.032.203.189.211.263.02.106.035.316-.074.316a.967.967 0 0 1-.145-.015c-.093-.015-.183-.028-.24.015-.039.029-.046.067-.052.102-.008.045-.015.082-.085.082-.08 0-.118-.037-.171-.088a.815.815 0 0 0-.115-.096 1.283 1.283 0 0 1-.236-.21Zm2.58 1.539a.944.944 0 0 0 .116.33l.028.055a.777.777 0 0 1 .257.13c.145.106.167.206.133.318-.033.112.14.378.179.41.015.013.083-.067.176-.173.153-.176.37-.427.516-.462.22-.053.228-.131.235-.21l.002-.014c.008-.083.005-.19 0-.266-.003-.04-.031-.048-.061-.057-.027-.009-.056-.017-.068-.05a.313.313 0 0 0-.02-.044c-.023-.041-.035-.062.072-.059.09.003.147.025.198.046.028.01.054.02.083.027.082.017.099.152.068.27a1.13 1.13 0 0 1-.041.123.272.272 0 0 0-.027.11c.004.055.076.048.177 0 .102-.049.396-.1.644-.1.249 0 .405-.134.497-.445.067-.228.085-.217.122-.194.014.008.03.018.053.018.083 0 .537-.32.488-.418-.05-.098-.267-.273-.34-.175-.075.097-.286.048-.415-.283-.085-.22.024-.229.174-.242a.705.705 0 0 0 .24-.05c.23-.107-.018-.222-.23-.222-.135 0-.214.107-.3.222a1.027 1.027 0 0 1-.16.185c-.175.146-.11.34-.064.438.046.098.101.421.064.545-.037.125-.377.4-.497.487-.12.088-.322-.33-.377-.487-.055-.155-.23-.262-.303-.194-.012.01-.028.026-.046.044-.09.091-.245.247-.368.247-.148 0-.148-.221-.148-.36 0-.138.11-.467.221-.613.067-.088.103-.087.195-.086.06.001.143.002.274-.02.213-.038.312-.273.43-.556.067-.158.14-.33.242-.492.265-.417.995-.503 1.24-.532l.048-.005c.175-.024.416.046.723.213.173.094.357.142.535.19.137.035.271.07.393.125.28.125.057.264-.38.459-.326.145-.245.161-.186.174.02.004.039.008.036.016-.008.033-.008.051.202.134.118.047.13.01.149-.051.015-.048.035-.11.114-.157.147-.088.245-.203.374-.358l.09-.106c.118-.136.09-.18.058-.232a.186.186 0 0 1-.036-.106c0-.104.04-.076.152.005.038.027.085.06.142.097.143.092.115.169.096.22-.01.03-.018.051.009.063.045.02.054-.002.085-.064.02-.042.049-.102.103-.182.083-.122.29-.109.544-.093.162.01.344.022.525 0 .36-.043.137-.095-.056-.14a2.239 2.239 0 0 1-.145-.036.601.601 0 0 0-.142-.029 1.16 1.16 0 0 1-.288-.068c-.195-.065-.165-.11-.124-.171.021-.031.045-.067.045-.112a.735.735 0 0 0-.01-.114.918.918 0 0 1 .01-.359c.04-.212.394-.389.653-.519.08-.04.152-.076.202-.107.21-.13.534-.292.7-.255.167.037-.306.501-.657.654-.29.127-.4.27-.536.447l-.09.114c-.133.163.028.212.18.257.063.019.124.037.162.063.057.04.177.057.31.076.163.023.347.05.465.123.215.135.434.098.618 0 .099-.052.014-.103-.094-.168-.093-.057-.204-.124-.23-.212-.057-.19.503-.56.749-.51.153.032.137.2.108.517-.018.192-.04.437-.034.74.013.57.056.526.156.424a.447.447 0 0 1 .151-.114c.113-.043.094-.132.075-.225-.017-.08-.035-.162.03-.22.067-.06.174-.006.275.043.112.055.214.106.242-.006.025-.103-.113-.179-.27-.265-.168-.092-.358-.195-.387-.356a1.901 1.901 0 0 0-.206-.561c.305.03.978.079 1.227.023.31-.07.31-.074.306-.278-.001-.08-.031-.124-.048-.149-.007-.011-.012-.018-.01-.023.003-.008.027-.008.092-.008h.093c.256-.005.612-.329.757-.49 3.603.441 7.232 2.596 8.596 3.618-.302-.068-1.031-.164-1.525 0-.619.204-.792.593-.232.713.43.092.438.272.446.412.002.043.004.081.017.113.058.134.136.587.136.936 0 .232-.308.482-.588.71a3.026 3.026 0 0 0-.36.323c-.25.294-.212.513.58.513.792 0 1.16-.407 1.16-.513 0-.03.011-.065.025-.106.036-.109.086-.258-.026-.444-.087-.146-.069-.218-.04-.33.021-.084.049-.191.04-.37-.019-.417-.25-.696-.405-.854-.155-.158-.039-.611.154-.39l.02.021c.192.22.468.533.599 1.42.07.397.237.327.389.263a.432.432 0 0 1 .151-.044c.174 0-.038.264-.367.284-.233.015-.213.081-.188.159.01.032.02.065.014.098-.019.113.097.399.174.52.078.121-.154.286-.637.49-.386.164-1.088.208-1.39.21-.098.08-.326.252-.465.302-.121.042-.13-.225-.136-.46-.004-.1-.007-.194-.018-.256-.039-.204-.522-.407-1.005-.407-.328 0-.227.17-.117.355.051.087.105.178.117.256.021.133.178.32.342.515.139.166.283.337.354.487.083.175.038.192-.072.233a.81.81 0 0 0-.392.278c-.294.366-.65.42-.984.472l-.117.019c-.294.049-.406.333-.425.47 1.066.866.444 1.288 0 1.39-.11.013-.36.032-.483 0-.123-.033-2.396-1.233-3.046-2.174-1.505-.189-3.619-1.3-3.799-1.48-.225-.227-.81-.786-1-.821-.153-.029-1.555-.278-2.237-.4-.012-.176-.077-.53-.248-.54-.17-.01-.638.552-.85.834l-3.558-.293c-.097-.26-.307-.773-.363-.74-.07.042-.136.015-.18-.02-.029-.023 0-.028.044-.036a.502.502 0 0 0 .09-.021c.08-.03.034-.102 0-.14-.033-.04-.036-.084.017-.132.03-.026.036-.1.043-.175a.51.51 0 0 1 .03-.165c.03-.055.002-.084-.047-.134a.905.905 0 0 1-.079-.09c-.058-.076-.12-.102-.166-.122a.183.183 0 0 1-.062-.036c-.04-.041-.06-.068-.085-.211-.015-.087.007-.097.043-.114a.18.18 0 0 0 .081-.065 2.24 2.24 0 0 0 .036-.055c.063-.097.136-.208.206-.166.063.037.066.134.068.243.001.038.002.078.006.118Zm15.561 8.907c.132-.065.203-.07.31-.035.047.016.067.006.094-.008.034-.017.078-.04.203-.022.222.03.38.065.61.161.202.084.629.098.784.103l.05.002c.074.004-.47.131-.722.114a2.003 2.003 0 0 0-.229-.001c-.122.005-.209.008-.27-.052a.586.586 0 0 0-.372-.166c-.038 0-.066-.005-.088-.008-.05-.009-.066-.011-.097.065-.045.107-.062.096-.136.051l-.005-.003a.61.61 0 0 1-.103-.089c-.036-.036-.068-.068-.09-.068-.034 0 .027-.03.061-.044Zm.58-1.155c.154-.085.368-.311.491-.44.039-.042.068-.073.084-.087l.958.182c-.179.331-.544 1.024-.575 1.145-.038.152-.153.142-.258.06a.516.516 0 0 1-.083-.084c-.051-.063-.1-.121-.224-.128-.107-.006-.1-.055-.092-.125a.3.3 0 0 0-.013-.169c-.027-.062-.114-.114-.194-.162-.114-.068-.212-.127-.093-.192Zm3.506.314c-.01-.051.124-.203.248-.102.041.034.096.093.155.158.12.13.257.281.334.268.053-.01.117-.076.18-.14.07-.074.138-.145.184-.123.042.02.081.082.119.142.04.062.076.12.11.12.017 0 .032-.012.053-.03.063-.055.177-.155.532-.04a7.3 7.3 0 0 1 .879.356l.04.019c.027.012.021.047.013.09-.01.063-.025.144.054.204.06.044.124.063.184.081.077.023.147.043.19.111.076.122-.01.274-.192.203a1.118 1.118 0 0 0-.388-.042c-.068.004-.085.005-.053-.05.067-.11.02-.374-.162-.303-.048.018-.097.046-.146.073-.137.077-.278.155-.42.059-.075-.053-.198-.09-.323-.126-.19-.056-.383-.113-.423-.23a2.067 2.067 0 0 1-.021-.064c-.013-.042-.021-.067-.038-.083-.024-.023-.067-.027-.174-.036a8.505 8.505 0 0 1-.102-.009c-.326-.03-.68-.253-.833-.506Zm1.972 5.279c.276-.049 1.015-.649 1.35-.943.077-.151.288-.699.259-.83-.022-.101-.162-.196-.287-.28-.038-.027-.074-.051-.106-.075-.098-.074-.124-.181-.157-.316a2.58 2.58 0 0 0-.044-.16c-.043-.139-.095-.149-.16-.16-.035-.007-.074-.015-.117-.043-.095-.061-.167-.146-.3-.302l-.15-.174c-.186-.212-.188-.217-.206-.275a.832.832 0 0 0-.024-.07 2.117 2.117 0 0 1-.043-.122c-.048-.144-.102-.309-.168-.263-.086.061-.067.578 0 .73.067.152-.125.223-.43.202-.212-.014-.228-.032-.277-.093-.022-.027-.05-.062-.107-.11a.325.325 0 0 1-.115-.344 12.668 12.668 0 0 0-.641-.131c-.048 0-.7.04-.814.131-.06.048.05.122.154.192.095.064.183.124.123.153-.045.022-.056.012-.077-.007-.038-.033-.107-.093-.45-.054a.736.736 0 0 0-.718.405c-.656.638-.782.602-.934.558-.063-.018-.131-.037-.243-.01-.358.085-.315.497-.269.939l.01.094c.024.24.002.434-.015.581-.016.145-.028.245.015.3.086.112.25.092.536 0 .154-.048.25-.053.374-.06.107-.006.236-.013.44-.05.166-.031.265-.089.368-.149.173-.1.357-.207.877-.207.562 0 .597.175.63.342.017.08.033.16.108.216.163.122.326-.102.43-.247.043-.06.077-.105.096-.108.067-.01-.067.355-.115.476-.036.093.157.15.353.209.06.018.12.036.174.055.224.079.32.062.643.005l.027-.005ZM23.558 20.363c.028-.018.335-.213.446-.183.112.03.128.253.09.365-.04.112-.302.236-.419.283-.117.047-.267.012-.267-.041v-.005c0-.07-.001-.42.15-.42Z" fill="#3AACE2"/><path d="M18 34v8h3v-8h-3ZM36 34v8h3v-8h-3Z" fill="#1D4182"/><path fill-rule="evenodd" clip-rule="evenodd" d="M25 41.996V34h3.536c1.488-.008 4.464.797 4.464 4.083s-3.123 3.978-4.685 3.913H25Zm3-2.498V36.5h.884c.372-.003 1.116.299 1.116 1.531s-.78 1.492-1.171 1.468H28Z" fill="#1D4182"/><path d="m20.723 22.534-3.591-.443c-.804 2.335-.933 3.348-.933 4.799 0 1.16.265 2.68.397 3.293h1.042l.182-.597 1.918.956.414-.956 2.514.393 5.094 2.97 1.026-.922.777.716 4.697-2.764 2.233-.393.43 1.331 1.869-.768.281.632h1.059c.187-.518.562-2.079.562-4.181 0-2.103-.662-3.687-.992-4.216l-3.854.683.198.238-1.786.257L32.18 22h-8.517l-1.351 1.305-1.7-.41.111-.361Z" fill="#1C4187"/><path fill-rule="evenodd" clip-rule="evenodd" d="M18.447 33.01A13.288 13.288 0 0 1 17.03 27c0-6.73 4.9-12.217 11.038-12.49V33h.479V14.504c.212.003.424.008.635.015 6.065.358 10.882 5.809 10.882 12.481 0 2.178-.514 4.227-1.416 6.01h.522a13.802 13.802 0 0 0 1.346-5.51h8.987c-.216 3.141-2.468 6.062-6.183 8.257a23.598 23.598 0 0 1-3.754 1.773v.53c6.038-2.21 10.131-6.097 10.417-10.56H50V27c0-6.941-9.207-12.612-20.798-12.98-.216-.014-.435-.02-.654-.02H28C15.85 14 6 19.82 6 27c0 4.945 4.672 9.245 11.55 11.443v-.523c-1.798-.585-3.437-1.316-4.871-2.163-3.715-2.195-5.967-5.116-6.184-8.257H16.58c.069 1.982.547 3.851 1.345 5.51h.523Zm6.393-18.375c-4.8 1.694-8.27 6.59-8.27 12.365H6.478c0-3.33 2.29-6.446 6.201-8.757 3.2-1.891 7.425-3.2 12.161-3.608ZM49.522 27c0-3.33-2.29-6.446-6.201-8.757-2.85-1.684-6.513-2.907-10.626-3.442 4.571 1.83 7.83 6.602 7.83 12.199h8.997Z" fill="#1C4187"/><path fill-rule="evenodd" clip-rule="evenodd" d="m18.158 29.142 1.498.53 1.986-6.059-1.178-.188-2.306 5.717Zm20.276.53-1.498.53-1.986-6.059 1.178-.187 2.306 5.717Z" fill="#FDFEF9"/><path fill-rule="evenodd" clip-rule="evenodd" d="m20.555 28.852 1.511-4.642h.239l1.48-1.71h3.006l-3.007 2.94 2.561 1.28 1.416-1.28 5.472 4.06-.445.36-3.198-2.288-.35.41 2.704 2.27-.397.307-2.736-2.133-.43.426 2.466 2.065-.43.376-2.322-2.014-.493.46 2.131 1.86-.413.274-4.772-4.113-1.639 1.417-2.354-.325Zm3.976-3.584 1.246.615 1.767-1.331 6.413 4.607 1.935-.324-1.532-4.505-.482.075-2.116-1.905h-4.218l-3.013 2.768Zm-.45 3.488-1.11 1.14.546.378 1.124-1.088-.56-.43Zm.14 1.83.982-.976.496.368-.996.931-.483-.324Zm2.083-.163-.84.91.565.316.786-.824-.51-.402Zm.426 1.573.692-.749.42.331-.647.679-.465-.261Z" fill="#F18626"/></svg>