<!-- by TradingView --><svg width="56" height="56" viewBox="0 0 56 56" xmlns="http://www.w3.org/2000/svg"><path fill="#F0F3FA" d="M0 0h56v56H0z"/><path fill="#0065B3" d="M13 21h3v16h-3z"/><path fill-rule="evenodd" d="M26.8 21H18v16h8.8c3.98 0 7.2-3 7.2-6.72v-2.56c0-3.71-3.22-6.72-7.2-6.72Zm-1.26 2H21v12h4.54c3.02 0 5.46-2.08 5.46-4.65v-2.7c0-2.57-2.44-4.65-5.46-4.65Z" fill="#0065B3"/><path d="M34 22v-2h4v12.04c0 3.64-3.2 4.83-4.79 4.96l-.21-.52c2.57-.38 3.02-2.85 3-4.04V22h-2Z" fill="#A8A9AD"/><path fill="#2B2A87" d="M34 15h4v4h-4z"/><path fill="#0065B3" d="M39 15h4v4h-4z"/><path fill="#00B6F0" d="M39 20h4v4h-4z"/></svg>