<!-- by TradingView --><svg width="56" height="56" viewBox="0 0 56 56" xmlns="http://www.w3.org/2000/svg"><path fill="#F0F3FA" d="M0 0h56v56H0z"/><path fill-rule="evenodd" d="M45 28a17 17 0 1 1-34 0 17 17 0 0 1 34 0ZM28 43.5a15.5 15.5 0 1 0 0-31 15.5 15.5 0 0 0 0 31Zm0-.5a15 15 0 1 0 0-30 15 15 0 0 0 0 30Zm-7-21h-4v12h4V22Zm1 0h6.79C30 22 31 22.96 31 24.14v7.72c0 1.18-.99 2.14-2.21 2.14H22V22Zm4 2 .44.09c.32.06.56.4.56.8v6.22c0 .4-.24.74-.56.8L26 32v-8Zm6 10V22.01h5.79c1.22 0 2.21 1 2.21 2.24v2.68c0 1.24-1 2.07-2.21 2.07H36v5h-4Zm4.4-9.96L36 24v3l.46-.09c.31-.06.54-.39.54-.77v-1.32c0-.4-.26-.75-.6-.78Z" fill="#015AAC"/></svg>