<!-- by TradingView --><svg width="56" height="56" viewBox="0 0 56 56" xmlns="http://www.w3.org/2000/svg"><path fill="#F0F3FA" d="M0 0h56v56H0z"/><path d="M18 26h1.5a1.3 1.3 0 0 1 .86 2.27A1.5 1.5 0 0 1 19.5 31H18v-5Zm1 4h.5a.5.5 0 0 0 0-1H19v1Zm0-2h.3a.5.5 0 0 0 0-1H19v1ZM22 26h-.5v5H24v-1h-1.5v-1h1v-1h-1v-1H24v-1h-2ZM36 26h-.5v5H38v-1h-1.5v-1h1v-1h-1v-1H38v-1h-2ZM27.42 29c-.15 1.14-.8 2-1.57 2-.88 0-1.6-1.12-1.6-2.5s.72-2.5 1.6-2.5c.77 0 1.42.86 1.57 2h-.91c-.1-.58-.36-1-.66-1-.39 0-.7.67-.7 1.5s.31 1.5.7 1.5c.3 0 .56-.42.66-1h.9ZM52 29c-.15 1.14-.8 2-1.57 2-.88 0-1.6-1.12-1.6-2.5s.72-2.5 1.6-2.5c.78 0 1.42.86 1.57 2h-.9c-.1-.58-.36-1-.67-1-.38 0-.7.67-.7 1.5s.32 1.5.7 1.5c.3 0 .57-.42.66-1H52Z" fill="#EC1B1B"/><path fill-rule="evenodd" d="m28.26 26-.86 5h1.02l.17-1h.82l.17 1h1.02l-.86-5h-1.48Zm.98 3L29 27.61 28.76 29h.48Z" fill="#EC1B1B"/><path d="M31 31v-5h1.5l.5 3 .5-3H35v5h-1v-2.5l-.6 2.5h-.9l-.5-2.5V31h-1ZM39.38 28.52 38.3 26h1.09l.54 1.25.54-1.25h1.09l-1.09 2.52L41.54 31h-1.09l-.52-1.22L39.4 31h-1.09l1.07-2.48ZM44 26h1v5h-1v-5ZM46.5 29h-1v.5a1.5 1.5 0 0 0 3 0V26h-1v3.5a.5.5 0 0 1-1 0V29Z" fill="#EC1B1B"/><path d="M9 23v6h3.3l.7-.7V19l-4 4Z" fill="#EC1729"/><path d="M7.5 31 9 29.5h3.5l1-1V23l3.5 3.5v3L15.5 31h-8Z" fill="#0173BC"/><path d="m8.5 25.78-3.86 3.75A2 2 0 0 0 6 33h46l-1-1H6a1 1 0 0 1-.68-1.73l3.18-3.12v-1.37Z" fill="#0173BA"/></svg>