<!-- by TradingView --><svg width="56" height="56" viewBox="0 0 56 56" xmlns="http://www.w3.org/2000/svg"><path fill="#F0F3FA" d="M0 0h56v56H0z"/><path d="m32.5 19.5.24.76h.76l-.62.48.24.76-.62-.47-.62.47.24-.76-.62-.48h.76l.24-.76Z" fill="#FE0000"/><path fill-rule="evenodd" d="M41.6 36.35c1.1-.71 2.05-1.5 2.83-2.35h-8.5a8.26 8.26 0 0 1-3.65 5.7 23.46 23.46 0 0 0 9.32-3.35ZM10.75 33h34.5a8.55 8.55 0 0 0 1.73-4.5H9.02c.1 1.57.7 3.1 1.73 4.5Zm29.38-5.5h6.85c-.1-1.57-.7-3.1-1.73-4.5h-8.64c.22.26.39.6.39 1h4l-.88 3.5Zm-26.63 0L12 26h2v-1h2.5l2-2h-7.75a8.55 8.55 0 0 0-1.73 4.5h4.48ZM21 23v3h3.5v-2H24l-.33-1H21Zm3.25 0 .25.5h1l.25-.5h-1.5Zm2.08 0L26 24h-.5v2h6v-2H31l-.33-1h-4.34Zm4.92 0 .25.5h1l.25-.5h-1.5Zm2.08 0L33 24h-.5v2H36a4.8 4.8 0 0 0-.28-3h-2.39Zm2.57-1h8.53a14.84 14.84 0 0 0-2.83-2.35A23.58 23.58 0 0 0 32 16.27 9.14 9.14 0 0 1 35.9 22Zm-16.75 0a11.08 11.08 0 0 1 4.61-5.7 23.48 23.48 0 0 0-9.36 3.35c-1.1.71-2.05 1.5-2.83 2.35h7.58ZM48 28c0-7.18-8.95-13-20-13S8 20.82 8 28s8.95 13 20 13 20-5.82 20-13ZM21.47 38.22c.47.5 1.01.97 1.63 1.37a23.15 23.15 0 0 1-8.7-3.24c-1.1-.71-2.05-1.5-2.83-2.35h7.54a10.37 10.37 0 0 0 2.36 4.22ZM20.23 22h7.27v-5.97c-1.92.2-5.42 1.57-7.27 5.97Zm8.27-5.97V22h6.36c-1.19-4.4-4.47-5.77-6.36-5.97ZM20.15 34a9.42 9.42 0 0 0 2.05 3.53A7.6 7.6 0 0 0 27.5 40V34h-7.35Zm8.35 0v5.98A7.22 7.22 0 0 0 34.9 34h-6.4Z" fill="#000065"/><path d="M38 32v-3h1c.23 0 .42.04.56.13.15.08.26.2.33.34s.11.3.11.48-.04.34-.1.48a.8.8 0 0 1-.33.35c-.15.08-.34.12-.57.12h-.71v-.32h.7c.16 0 .29-.03.38-.08a.5.5 0 0 0 .21-.23c.05-.1.07-.2.07-.32a.75.75 0 0 0-.07-.32.48.48 0 0 0-.2-.23.79.79 0 0 0-.4-.08h-.62V32H38ZM35 32v-3h.39v1.34h1.72V29h.39v3h-.39v-1.34h-1.72V32H35ZM32.76 30.34v.32H31.4v-.32h1.37ZM29.6 30.5c0 .3-.05.57-.17.8-.12.22-.29.4-.5.52-.2.12-.44.18-.71.18a1.29 1.29 0 0 1-1.2-.7c-.13-.23-.19-.5-.19-.8 0-.3.06-.57.18-.8.12-.22.28-.4.5-.52.2-.12.44-.18.7-.18a1.29 1.29 0 0 1 1.2.7c.14.23.2.5.2.8Zm-.36 0c0-.25-.05-.47-.14-.64a.94.94 0 0 0-.88-.53c-.2 0-.36.05-.52.13a.96.96 0 0 0-.37.4c-.09.17-.13.39-.13.64s.04.47.13.64a.96.96 0 0 0 .89.53.94.94 0 0 0 .88-.53c.1-.17.14-.39.14-.64ZM26.34 29.95h-.38a.76.76 0 0 0-.32-.46.89.89 0 0 0-.27-.12 1.12 1.12 0 0 0-.82.1.96.96 0 0 0-.36.39c-.1.17-.14.39-.14.64s.05.47.14.64a.96.96 0 0 0 .88.53c.1 0 .2-.01.3-.04.1-.03.19-.07.27-.12a.72.72 0 0 0 .32-.46h.38a1.13 1.13 0 0 1-.82.89 1.51 1.51 0 0 1-1.16-.12c-.21-.12-.38-.3-.5-.52-.12-.23-.18-.5-.18-.8 0-.3.06-.57.18-.8.12-.22.29-.4.5-.52a1.51 1.51 0 0 1 1.16-.12c.14.05.27.11.38.2a1.1 1.1 0 0 1 .44.7ZM20.87 32h-.37l1.07-3h.36L23 32h-.37l-.87-2.53h-.02L20.87 32Zm.14-1.17h1.48v.32h-1.48v-.32ZM18 32v-3h.38v2.68h1.46V32H18ZM17.5 29v3h-.37l-1.72-2.36h-.03V32H15v-3h.37l1.72 2.36h.03V29h.37ZM14.38 29.04v3H14v-3h.38Z"/></svg>