<!-- by TradingView --><svg width="56" height="56" viewBox="0 0 56 56" xmlns="http://www.w3.org/2000/svg"><path fill="#F0F3FA" d="M0 0h56v56H0z"/><path fill-rule="evenodd" d="M8 28c0 6.12 5.6 11.31 13.4 13.22 2.14.7 4.35.78 6.6.78 3.31 0 6.15-.45 9.23-1.58h.01C43.64 38.08 48 33.4 48 28c0-5.8-5.02-10.76-12.19-12.9 0 0-.02 0-.03-.02l-.01.02A25.4 25.4 0 0 0 28 14c-8.3 0-20 4.1-20 14Zm33.69 9-.12.08c-.84.59-1.76 1.12-2.76 1.6.75-.75 1.38-1.54 1.91-2.35.37.24.7.46.97.66Zm.83-.63c-.34-.27-.77-.57-1.28-.9.95-1.66 1.47-3.3 1.69-4.47h3.56a12.2 12.2 0 0 1-3.97 5.37ZM46.77 30H9.23a8.97 8.97 0 0 1 0-4h37.54a8.97 8.97 0 0 1 0 4Zm-.28-5h-2.63a17.95 17.95 0 0 0-2.65-4.7c.43-.22.86-.45 1.27-.7a12.21 12.21 0 0 1 4 5.4ZM9.5 25h2.61c.4-1.29 1.37-3.3 3.11-5.36l-1.09-.51A12.57 12.57 0 0 0 9.51 25Zm5.59-6.52.83.38a20.3 20.3 0 0 1 2.03-1.89c-1.02.44-1.98.95-2.86 1.5Zm6.1-2.62.05.07-.59.35.68.17c.3-.31.6-.59.9-.84l-1.03.25Zm3.45-.66c-.56.29-1.23.71-1.91 1.3h1.05l.5-.5h1.56l1.49-1c-.92.03-1.81.1-2.69.2Zm2.97-.2.78.4.38-.39a27.79 27.79 0 0 0-1.16 0Zm1.53.02 2.05.69-.7 1.4v.08l.54-.27.83.56c.45-.06.98-.2 1.55-.39-.67-.75-1.3-1.38-1.84-1.86-.8-.1-1.6-.17-2.43-.2Zm4.17.5c.35.36.72.76 1.1 1.19.4-.17.8-.36 1.17-.54l-.2-.15c-.68-.19-1.36-.36-2.07-.5Zm4.92 1.54a26.3 26.3 0 0 1 2.32 2.43c.36-.17.71-.35 1.05-.54l-.04-.03c-1-.7-2.12-1.32-3.33-1.86Zm-2.72 22.87.36-.2c-.42-.19-.88-.37-1.38-.54-.43.48-.88.93-1.36 1.33.82-.16 1.62-.36 2.38-.59Zm-4.78.94a8.68 8.68 0 0 0 2.68-1.99c-.47-.1-.95-.19-1.43-.22l-1.42.89-1.07-.36v1.12l-1.38.69c.89 0 1.76-.05 2.62-.13Zm-5.24.02V39.2l-.7-.7c-.7.16-1.46.36-2.24.6.66.71 1.36 1.3 2.12 1.7l.82.08Zm-3.03-.45c-.33-.3-.64-.63-.94-.97-.31.1-.62.23-.92.35.34.17.7.32 1.07.44l.79.18Zm-5.28-1.76a16.8 16.8 0 0 1-1.8-1.94l-.01-.01c-.27.17-.52.33-.74.5.79.53 1.64 1.01 2.55 1.45Zm-3.4-2.07c.29-.22.61-.45.98-.68A21.28 21.28 0 0 1 12.14 31H9.51c.73 2.09 2.2 4 4.28 5.6Zm8.3-18.31-.57-.58a12.1 12.1 0 0 0-1.75 2.7c1.68.61 3.38 1.1 4.73 1.28V21h1.38l-.25-.13-.38-.76-1.39.46-1.27-1.27-.5-1Zm-1.51-1a13.1 13.1 0 0 0-1.75 2.77c-.67-.26-1.32-.52-1.93-.78.75-.77 1.62-1.53 2.62-2.25l1.06.25ZM18.44 21c-.8-.31-1.55-.63-2.25-.93A16.01 16.01 0 0 0 13.17 25h4.37c.13-1.5.45-2.83.9-4Zm.93.34c-.4 1.08-.7 2.3-.83 3.66h9.25l-1.5-1.5H24.5v-.8c-1.5-.17-3.36-.72-5.13-1.36ZM29.85 25h-.64l-2.5-2.5H25.5V22h1.2l1.14-1.14-1.47-.73-.62-1.24-1.61.54-.73-.73-.5-1-.2-.2h1.5l.5-.5h1.44l1.39-.92 1.06.53.54-.54.66.22-.3.6v1.92l1.46-.73.54.35v.07h.1l.26.17-.08.16-.92-.46-2.32 2.9-.61 2.45L29.85 25Zm3.3-6.67-.12-.08c.36-.1.72-.21 1.08-.35a25.22 25.22 0 0 1 2.15 3.1 33.96 33.96 0 0 1-6.87.99l.07-.26 1.68-2.1 1.08.54.92-1.84Zm2.7.2a26 26 0 0 0-.77-1.02c.5-.22.98-.45 1.4-.66a25.02 25.02 0 0 1 3.13 3.06c-.76.32-1.55.59-2.35.82-.43-.78-.91-1.51-1.4-2.2Zm1.88 3.1c.86-.26 1.71-.56 2.54-.9 1 1.27 1.9 2.72 2.52 4.27h-3.87a14.3 14.3 0 0 0-1.19-3.37Zm-.98.28c.5 1 .9 2.04 1.14 3.09h-6.24l-2.58-1.72.07-.28a34.47 34.47 0 0 0 7.61-1.1ZM15.63 35.4A20.55 20.55 0 0 1 13.21 31h3.91c.27.88.66 1.98 1.17 3.14-1 .41-1.9.84-2.66 1.27Zm3.6-1.63c-.45-1.01-.8-1.98-1.06-2.78H28v1.03c-3.45.2-6.4.9-8.77 1.75Zm9.77-1.8V31h2v.98c-.68-.02-1.35-.02-2 0Zm3 2.79V31h2v5.22l-3.57 2.23-1.43-.48v-1.2l3-2Zm3-1.7V31h2.83c-.23.72-.55 1.58-.95 2.48a13.7 13.7 0 0 0-1.88-.42Zm2.83.73c.46-1.04.8-2 1.05-2.8h3.03c-.22 1.06-.7 2.5-1.53 3.97-.75-.42-1.61-.83-2.55-1.17Zm-.42.9c.9.33 1.73.72 2.45 1.12a13.1 13.1 0 0 1-3.02 3.25 16.3 16.3 0 0 0-1.66-.7 23.83 23.83 0 0 0 2.23-3.66Zm-2 1.56c-.38.62-.8 1.23-1.25 1.78-.28-.08-.56-.15-.85-.2L35 36.78v-2.7c.5.07.97.18 1.44.32-.3.62-.65 1.25-1.03 1.86ZM31 34.23l-2 1.34v-2.59c.65-.02 1.32-.02 2 0v1.25Zm-11.35.46c2.25-.8 5.06-1.46 8.35-1.66V37h-.56c-1.06.12-3.25.52-5.58 1.3a17.9 17.9 0 0 1-1.37-2.03 24 24 0 0 1-.84-1.58Zm-.02 2.09c.37.64.79 1.27 1.23 1.87-.45.17-.9.35-1.36.56a13.96 13.96 0 0 1-3.25-3c.7-.38 1.53-.78 2.46-1.16.28.58.59 1.16.92 1.73Zm6.87 2.01-.16-.15 1.28-.64h.88v1.7l-.62.3h-1l-.38.2v-1.4Z" fill="#004790"/><path d="M44 30a2.02 2.02 0 0 1-1.73-.97c-.18-.3-.27-.65-.27-1.03a1.97 1.97 0 0 1 2-2 2 2 0 0 1 1.01.26A1.97 1.97 0 0 1 46 28c0 .38-.09.73-.27 1.03-.17.3-.41.54-.72.71-.3.17-.64.26-1 .26Zm0-.7a1.11 1.11 0 0 0 1.04-.62c.1-.2.15-.42.15-.68 0-.26-.05-.5-.15-.69-.1-.2-.24-.34-.42-.45-.18-.1-.38-.16-.62-.16-.23 0-.44.06-.62.16s-.32.26-.42.45c-.1.2-.15.43-.15.69 0 .26.05.49.15.69.1.2.24.35.42.45.18.1.39.16.62.16ZM37.5 28a1.9 1.9 0 0 1 1.01-1.74c.32-.17.68-.26 1.07-.26.45 0 .85.11 1.2.34.34.22.58.53.72.93h-.94a.95.95 0 0 0-.4-.42c-.17-.1-.37-.14-.59-.14-.24 0-.45.05-.64.16-.18.1-.33.25-.43.45-.1.2-.16.42-.16.68 0 .26.06.49.16.69.1.2.25.34.43.45.19.1.4.16.64.16.22 0 .42-.05.59-.14.17-.1.3-.24.4-.43h.94c-.14.4-.38.71-.72.94-.34.22-.74.33-1.2.33-.4 0-.75-.08-1.07-.25-.3-.17-.56-.41-.74-.71-.18-.3-.27-.65-.27-1.04ZM36.07 30l-.89-1.56H35V30h-1v-4h1.5c.74 0 1.45.42 1.45 1.23 0 .56-.37 1-.91 1.15L37 30h-.93ZM35 27.84h.48c.44 0 .56-.24.56-.61s-.13-.57-.56-.57H35v1.18ZM25.57 30l-.89-1.56h-.18V30h-1v-4H25c.74 0 1.45.42 1.45 1.23 0 .56-.37 1-.91 1.15L26.5 30h-.93Zm-1.07-2.16h.48c.44 0 .56-.24.56-.61s-.13-.57-.56-.57h-.48v1.18ZM31.5 26.65v1h1.78v.64H31.5v1.06h2V30h-3v-4h3v.65h-2ZM28.54 30c-.3 0-.55-.05-.79-.14-.23-.1-.4-.23-.54-.4-.14-.18-.2-.38-.21-.62h.89c.01.16.07.28.18.38.1.09.26.14.45.14.2 0 .34-.05.45-.13.12-.1.17-.2.17-.35a.39.39 0 0 0-.11-.28.76.76 0 0 0-.29-.18c-.1-.04-.26-.1-.46-.14a5.76 5.76 0 0 1-.66-.22 1.21 1.21 0 0 1-.43-.33.93.93 0 0 1-.18-.6c0-.23.06-.43.19-.6.12-.17.29-.3.51-.39.22-.1.48-.14.76-.14.43 0 .77.1 1.04.3.27.19.41.46.44.81h-.91a.43.43 0 0 0-.18-.33.69.69 0 0 0-.45-.13c-.16 0-.3.04-.39.12-.1.07-.14.19-.14.34 0 .1.03.19.1.26.08.07.17.12.28.17.1.04.26.09.46.14.27.08.49.15.66.23.17.07.31.18.44.33a.9.9 0 0 1 .18.6c0 .2-.06.4-.17.57-.12.18-.28.33-.5.43-.23.1-.49.16-.8.16ZM21 26.65v1h1.78v.64H21v1.06h2V30h-3v-4h3v.65h-2ZM19 26v.65h-1V30h-.91v-3.35H16V26h3ZM15.5 30h-1l-2-2.74V30h-1v-4h1l2 2.75V26h1v4ZM11 26v4h-1v-4h1ZM28.38 18l.24.76h.76l-.62.48.24.76-.62-.47-.62.47.24-.76-.62-.48h.77l.23-.76Z" fill="#EA3021"/></svg>