<!-- by TradingView --><svg width="56" height="56" fill="none" xmlns="http://www.w3.org/2000/svg"><path fill="#F0F3FA" d="M0 0h56v56H0z"/><path fill-rule="evenodd" clip-rule="evenodd" d="M28 28.79v3.3c-3.258 0-7.742-3.275-7.742-6.992S25.419 16.772 28 14.932v-.83c2.112 1.576 6.335 5.52 6.335 8.702 0 3.182-3.67 5.985-6.335 5.985ZM28 36v-3.864c1.854 0 9-1.457 9-7.757 0-5.04-6-9.686-9-11.379v.644c-3.667 1.978-11 7.406-11 13.294 0 1.449.338 2.678.9 3.719-3.713.526-10.9 2.092-10.9 4.31C7 37.77 22.022 39 28.689 39S49 37.967 49 34.967c0-3-13.422-4.967-13.422-4.967v.64c3.11.36 9.333 1.622 9.333 3.786 0 2.705-14 3.689-16.222 3.689-2.222 0-17.956-1.548-17.956-3.689 0-1.712 4.86-2.713 7.29-3v-.55C20.394 34.94 26.211 36 28 36Z" fill="#8DC342"/></svg>