<!-- by TradingView --><svg width="56" height="56" viewBox="0 0 56 56" xmlns="http://www.w3.org/2000/svg"><path fill="#F0F3FA" d="M0 0h56v56H0z"/><path fill-rule="evenodd" d="M13 20.75v15.4c0 .77.42 1.47 1.08 1.81l13 6.81c.58.3 1.26.3 1.84 0l13-6.8A2.04 2.04 0 0 0 43 36.15v-15.4c0-.73-.38-1.4-1-1.76l-13-7.72a1.97 1.97 0 0 0-2 0L14 19c-.62.36-1 1.03-1 1.75Zm10.6-.26A1.5 1.5 0 0 0 21 21.5v12a1.5 1.5 0 0 0 3 0v-8.14l8.4 9.15A1.5 1.5 0 0 0 35 33.5v-12a1.5 1.5 0 0 0-3 0v8.14l-8.4-9.15Z" fill="#009639"/></svg>