<!-- by TradingView --><svg width="56" height="56" fill="none" xmlns="http://www.w3.org/2000/svg"><path fill="#F0F3FA" d="M0 0h56v56H0z"/><path fill-rule="evenodd" clip-rule="evenodd" d="M15 13a2 2 0 0 0-2 2v26a2 2 0 0 0 2 2h26a2 2 0 0 0 2-2V15a2 2 0 0 0-2-2H15Zm24 15c0 3.033-1.08 5.689-2.901 7.631a18.248 18.248 0 0 1-1.792-.796c1.51-1.873 2.593-4.177 2.593-6.885 0-2.696-1.072-4.985-2.572-6.845.61-.306 1.204-.561 1.744-.765C37.91 22.285 39 24.953 39 28Zm-8.35 6.384c.38.3.773.58 1.173.84l-.202.19a19.279 19.279 0 0 1-3.53 2.54c-1.207-.661-2.487-1.512-3.642-2.54-.08-.071-.158-.143-.234-.215.386-.253.768-.525 1.136-.815 1.021-.806 1.974-1.78 2.649-2.918.675 1.138 1.628 2.112 2.65 2.918Zm1.033-1.208c.392.309.801.595 1.217.859 1.335-1.704 2.1-3.74 2.1-6.085 0-2.337-.76-4.36-2.086-6.05-.421.263-.837.551-1.233.862C29.909 24.149 29 25.895 29 27.959s.91 3.819 2.683 5.217Zm3.079-14.005c-.49.207-1.004.448-1.525.723-.184-.184-.37-.362-.56-.535a20.083 20.083 0 0 0-2.9-2.185l.081-.034c1.853.284 3.518.992 4.904 2.031Zm-3.139 1.342a19.098 19.098 0 0 0-3.531-2.52c-1.208.655-2.49 1.498-3.645 2.52-.083.073-.164.147-.244.222.39.253.774.525 1.145.815 1.023.801 1.976 1.771 2.652 2.906.676-1.135 1.63-2.105 2.652-2.906.383-.3.78-.58 1.183-.84-.07-.066-.14-.132-.212-.197Zm-5.226-3.366-.076-.033c-1.925.265-3.653.985-5.083 2.057.493.209 1.012.452 1.537.729.191-.186.386-.366.584-.541a20.724 20.724 0 0 1 3.038-2.212Zm6.282 19.417a20.274 20.274 0 0 1-2.917 2.214l.166.071c1.84-.293 3.494-1.006 4.87-2.047a20.114 20.114 0 0 1-1.58-.756c-.176.178-.356.35-.539.518Zm-6.428 2.313.162-.072a20.91 20.91 0 0 1-3.056-2.241c-.19-.17-.379-.345-.563-.524a20.08 20.08 0 0 1-1.592.761c1.42 1.075 3.136 1.8 5.05 2.075Zm-4.57-4.036c-.623.317-1.23.581-1.78.79C18.08 33.689 17 31.033 17 28c0-3.047 1.09-5.715 2.928-7.66.537.202 1.126.456 1.732.76C20.11 22.96 19 25.25 19 27.95c0 2.71 1.12 5.016 2.681 6.89Zm1.441-.82C21.762 32.319 21 30.288 21 27.95c0-2.33.757-4.35 2.108-6.037.414.26.822.543 1.211.849C26.091 24.149 27 25.895 27 27.959s-.91 3.819-2.683 5.217c-.384.303-.786.585-1.195.845Zm7.331-18.79A13.071 13.071 0 0 0 28 15c-7.18 0-13 5.82-13 13s5.82 13 13 13 13-5.82 13-13c0-6.337-4.534-11.615-10.535-12.767l-.002-.005-.01.003Z" fill="#7D8286"/></svg>