<!-- by TradingView --><svg width="56" height="56" viewBox="0 0 56 56" xmlns="http://www.w3.org/2000/svg"><path fill="#F0F3FA" d="M0 0h56v56H0z"/><path d="M34.7 23.51h4.85a11.3 11.3 0 0 0-4.1-4.13 16.83 16.83 0 0 1-2.31.56c.63.92 1.18 2.1 1.55 3.57Zm5.45 0h5.18A6.31 6.31 0 0 1 47 27.97c0 .8-.18 1.26-.52 2.03H9.52A4.33 4.33 0 0 1 9 27.97c0-1.55.4-3.08 1.67-4.46h5.2c.58-1.21 1.88-2.94 4-4.33a6.53 6.53 0 0 1-1.36-.65l.22-.33c-2.95.85-5.46 2.1-7.31 3.6-.66.54-1.23 1.11-1.71 1.71A7.1 7.1 0 0 0 8 27.97c0 .82.16 1.6.46 2.37 1.95 4.93 9.9 8.63 19.41 8.66H28c9.5 0 17.44-3.65 19.49-8.54.33-.8.51-1.63.51-2.49 0-1.58-.6-3.1-1.7-4.46-1.86-2.3-5.11-4.2-9.17-5.35l.25.37c-.27.18-.7.4-1.29.62a11.47 11.47 0 0 1 4.06 4.36ZM37 18.13c-2.15-.6-4.53-1-7.04-1.13 2.21.26 4.05.94 5.54 1.8a7.3 7.3 0 0 0 1.5-.67ZM26.05 17a32.9 32.9 0 0 0-7.15 1.15c.3.19.82.43 1.55.67a14.3 14.3 0 0 1 5.6-1.82Zm-9.6 6.51h4.86c.38-1.46.92-2.63 1.55-3.54a21.15 21.15 0 0 1-2.34-.57 11.28 11.28 0 0 0-4.06 4.11Zm5.41 0h12.29c-.4-1.46-.96-2.6-1.6-3.47a30.82 30.82 0 0 1-9.12.02c-.63.87-1.18 2-1.57 3.45Zm10.92-4.04a20.92 20.92 0 0 0 2.02-.45 13.71 13.71 0 0 0-4.14-1.38c.72.4 1.46 1 2.12 1.83Zm-.6.1c-1.12.15-2.4.27-3.87.29v-2.43c.99.07 2.54.6 3.86 2.13Zm-4.4-2.15v2.44c-1.5-.01-2.83-.12-3.96-.28a5.85 5.85 0 0 1 3.96-2.16ZM23.2 19.5a7.3 7.3 0 0 1 2.13-1.85c-1.61.27-3 .77-4.18 1.4a17.64 17.64 0 0 0 2.05.45Z" fill="#017DC5"/><path d="M28.02 32.67h-.04c-1.93-.45-5.7-3.1-5.7-10.29 1.18.3 3.97.3 5.72-1.94 1.74 2.24 4.54 2.24 5.72 1.94 0 7.18-3.77 9.84-5.7 10.29Z" fill="#fff"/><path d="m28 20 .23.29a5.48 5.48 0 0 0 5.42 1.84l.35-.08v.33c0 7.03-3.58 9.87-5.7 10.48V33l-.3-.07-.3.07v-.14c-2.12-.61-5.7-3.45-5.7-10.48v-.33l.35.08c1.11.29 3.77.28 5.42-1.84L28 20Zm0 12.4c1.77-.43 5.33-2.9 5.44-9.7A6.09 6.09 0 0 1 28 20.86a6.09 6.09 0 0 1-5.44 1.84c.1 6.8 3.67 9.27 5.44 9.7Z" fill="#017DC5"/><path d="M29 23h1v1h-1v5h1v1h-4v-1h1v-5h-1v-1h3Z" fill="#017DC5"/><path fill="#F0F3FA" fill-opacity=".5" d="M16 33h24v3H16z"/></svg>