<!-- by TradingView --><svg width="56" height="56" viewBox="0 0 56 56" xmlns="http://www.w3.org/2000/svg"><path fill="#F0F3FA" d="M0 0h56v56H0z"/><path d="M28 36c0 .8 1 0 1.5-.5 1-1 1 0 2.5 0s0 1 .5 2 1-.5 2-1.5 1-.5 1-2-1.5-1.5-2-1.5-1-1-2-.5-1.5.5-3 1.5S28 35 28 36ZM21 16c-1.6.4-3.67 2.83-4.5 4-.17.33-.7 1.3-1.5 2.5-1 1.5 1 1.5 1 2s.5 1.5-.5 1.5-.5 3-.5 4 .5 0 1.5-1 1-2 2-3 .5-1.5 1.5-4.5 3-1.5 6-1.5 2-.5 7-1 1-1.5 0-2-3 0-6 0-4-1.5-6-1Z" fill="#7ACEEA"/><path d="m17 22 6 9.5c1-1.17 4-3.2 8-2 4 1.2 8.33 1.17 10 1-.33-1.5-1.4-4.9-3-6.5-1.6-1.6-2.33-5-2.5-6.5-1.17.33-4 1-6 1-2.5 0-5.5-1.5-8.5-1-2.4.4-3.67 3.17-4 4.5Z" fill="#EC3226"/><path d="M22.19 21.12c.24-.08.52-.12.81-.12.9 0 1.5.4 1.5 1h-1c0 .08.03.11.03.11l-.02-.01c-.03-.03-.17-.1-.51-.1-.21 0-.37.03-.47.06a.4.4 0 0 0-.07.04s0 .03.02.05c.04.1.15.27.37.5.18.17.41.3.71.4a7.86 7.86 0 0 0 1 .28c.7.2 1.58.5 1.91 1.51.28.84.21 1.64-.44 2.08-.58.38-1.4.32-2.19.05l.32-.94c.7.23 1.14.17 1.31.05.1-.06.28-.26.06-.92-.17-.49-.55-.68-1.22-.87l-.29-.07-.79-.22a2.8 2.8 0 0 1-1.68-1.46c-.11-.28-.14-.6 0-.89.14-.28.4-.44.64-.53Zm.27.95ZM25.09 21.79l.72-.68 4.86 3.82-1.6-2.67.86-.52 3 5-.74.65-4.35-3.41 1.57 2.23-.82.58-3.5-5Z" fill="#F2DE1F"/><path fill-rule="evenodd" d="m32.79 22.78 1.36 2.04c.1-.13.19-.27.26-.43.19-.37.26-.79.12-1.23-.1-.3-.37-.47-.88-.49-.28 0-.59.04-.86.1Zm1.93 2.9c.21-.22.43-.51.6-.85.26-.54.4-1.23.15-1.99-.3-.9-1.1-1.15-1.8-1.16-.68-.02-1.4.17-1.86.36l-.57.22 3.34 5.02.84-.56-.7-1.04Z" fill="#F2DE1F"/><path fill-rule="evenodd" d="M28 39.5a13 13 0 1 0 0-26 13 13 0 0 0 0 26Zm0 1a14 14 0 1 0 0-28 14 14 0 0 0 0 28Z" fill="#034DC8"/><path d="M28.5 10.5a.5.5 0 1 1-1 0 .5.5 0 0 1 1 0Zm0 1.41a1.5 1.5 0 1 0-1 0V13h1v-1.09ZM13 39.5v-7l4.5 4-1.5.5c.33.67 1.7 2.3 4.5 3.5 2.8 1.2 4.5.17 5-.5h5c0 .5 2 2 4.5.5 2-1.2 4.5-2.83 5-3.5l-1-.5 4-3.5v6.5L42 38c0 1-5.5 5.5-9.5 6-3.2.4-4.33 2.33-4.5 3 0-1-2-2.5-5-3-2.4-.4-7-4.17-9-6l-1 1.5Z" fill="#034DC8"/><path d="M14.5 20.5 14 18l2 2v.5l12.5 20H28L16 21l-1.5-.5Z" fill="#034DC8"/></svg>