<!-- by TradingView --><svg width="56" height="56" viewBox="0 0 56 56" xmlns="http://www.w3.org/2000/svg"><path fill="#F0F3FA" d="M0 0h56v56H0z"/><path d="M35 39c-.33 0-.58-.1-.75-.28-.18-.2-.26-.47-.26-.83v-1.86c0-.34.08-.6.25-.77.17-.17.43-.26.75-.26.33 0 .58.09.75.26.17.18.26.43.26.77v1.86c0 .36-.09.64-.26.83-.17.19-.42.28-.75.28Zm0-.72c.13 0 .19-.12.19-.35v-1.92c0-.19-.06-.29-.18-.29-.14 0-.2.1-.2.3v1.92c0 .12 0 .2.04.26.03.05.08.08.15.08ZM32.72 39a.98.98 0 0 1-.72-.27 1 1 0 0 1-.27-.74v-1.81c0-.38.08-.67.24-.88.16-.2.41-.3.77-.3.19 0 .36.03.51.1a.8.8 0 0 1 .36.31c.08.14.13.3.13.51v.68h-.81v-.58c0-.12-.02-.2-.05-.23-.03-.05-.08-.07-.14-.07-.08 0-.13.03-.16.08a.47.47 0 0 0-.04.21v1.97c0 .1.02.19.05.23.04.04.08.07.15.07.07 0 .11-.03.14-.09a.46.46 0 0 0 .05-.21v-.7h.82v.74c0 .34-.1.6-.27.75-.19.15-.44.23-.76.23ZM30.54 39c-.37 0-.64-.09-.8-.27-.17-.18-.25-.46-.25-.85v-.38h.8v.49c0 .09.02.16.05.21.03.05.08.08.15.08.07 0 .12-.02.15-.07.03-.04.05-.1.05-.2 0-.12-.02-.22-.04-.3a.65.65 0 0 0-.13-.23 2.45 2.45 0 0 0-.25-.26l-.37-.34a1.13 1.13 0 0 1-.41-.85c0-.34.08-.6.24-.77.16-.17.4-.26.7-.26.38 0 .64.1.8.29.16.19.24.48.24.87h-.83v-.27c0-.05-.02-.1-.05-.12a.18.18 0 0 0-.13-.05c-.07 0-.11.02-.14.06a.2.2 0 0 0-.05.13c0 .06.02.12.05.18.03.06.09.14.18.22l.47.44c.1.08.18.17.26.27a1.15 1.15 0 0 1 .26.8c0 .37-.07.66-.21.87-.14.2-.39.31-.74.31ZM27.62 38.96v-3.92h1.63v.75h-.8v.77h.77v.74h-.77v.9h.85v.76h-1.68ZM25.36 38.96v-3.92h1.25c.2 0 .36.04.47.13.1.1.18.22.21.39.04.16.06.35.06.58 0 .21-.03.38-.09.51a.48.48 0 0 1-.31.27c.12.02.21.08.26.18.06.1.08.22.08.38v1.48h-.8v-1.53c0-.12-.03-.19-.08-.22a.48.48 0 0 0-.23-.04v1.8h-.82Zm.83-2.47h.2c.1 0 .16-.12.16-.35a.78.78 0 0 0-.04-.3c-.02-.05-.07-.08-.13-.08h-.2v.73ZM23.83 38.96V35.8h-.49v-.75h1.79v.75h-.49v3.17h-.81ZM21.11 38.96v-3.92h.84l.38 1.88v-1.88h.79v3.92h-.8l-.4-1.96v1.96h-.8ZM20 38.96v-3.92h.79v3.92H20Z" fill="#DC2F29"/><path d="M42.93 29A14.93 14.93 0 1 1 40 20.11v-1.7a16 16 0 1 0 1 1.25v1.99A14.87 14.87 0 0 1 42.93 29Z" fill="#375379"/><path fill="#375379" d="M41 12h2v20h-2z"/><path fill-rule="evenodd" d="M40 12h-4v3h4v-3Zm-.5.5h-2v1h2v-1ZM40 16h-4v3h4v-3Zm-.5.5h-2v1h2v-1ZM40 20h-4v3h4v-3Zm-.5.5h-2v1h2v-1ZM40 24h-4v4l4 3v-7Zm-.5.5h-2v1h2v-1Z" fill="#375379"/><path d="M17 33.5v.5h24.5v-.5H17ZM30 24l11 9h-2l-11-6 2-3ZM29 24h-3l-4 9h2.5l4.5-9ZM25.5 24h-2L19 33h2l4.5-9ZM18.5 33h-1l4.5-9h1l-4.5 9ZM28 28l-.5 1H30l-2-1ZM27 30.5V30h5v.5h-5ZM26 31v.5h9V31h-9ZM26 32v1h11v-1H26Z" fill="#375379"/></svg>