<!-- by TradingView --><svg width="56" height="56" viewBox="0 0 56 56" xmlns="http://www.w3.org/2000/svg"><path fill="#F0F3FA" d="M0 0h56v56H0z"/><path d="M39 22h-8v3h2v11h4V25h2v-3Z" fill="url(#a)"/><path d="M29 26v10h-3v-8.9c0-.6.44-1.1.99-1.1H29Z" fill="#EE1E29"/><path fill-rule="evenodd" d="M40 36V22h6.02A2.96 2.96 0 0 1 49 24.95v8.1A2.96 2.96 0 0 1 46.02 36H40Zm4-2V24h.5c.52 0 .5.42.5.94v8.12c0 .52.02.94-.5.94H44Z" fill="#24307F"/><circle cx="27.5" cy="23.5" r="1.5" fill="#EE1E29"/><circle cx="27.02" cy="22.91" r=".62" fill="#FED7D7"/><path d="M25 33.78A9.68 9.68 0 0 1 17.8 37 9.9 9.9 0 0 1 8 27a9.9 9.9 0 0 1 9.8-10 9.75 9.75 0 0 1 8.26 4.63l-.35.36A8.5 8.5 0 1 0 25 32v1.78Z" fill="url(#b)"/><path d="M5.12 30.74c.37.86 1.64 1.27 3.47 1.26 2.67-.02 6.53-.94 10.6-2.65 1.09-.47 2.13-.84 3.1-1.35h-3.63l-.1.04c-6.22 2.63-11.78 3.34-12.49 1.72a.9.9 0 0 1-.07-.35c0-.73.7-1.7 2-2.78l.03-.53c-1.93 1.53-3.06 3-3.03 4.12 0 .18.04.36.12.52Z" fill="url(#c)"/><path d="M15.82 21.65c-2.12.9-4.05 1.91-5.67 2.94l-.1.57A40.4 40.4 0 0 1 16 22.08c6.22-2.64 11.84-3.46 12.54-1.84.11.25.1.54-.03.87.34.25.79.67.98 1.18.49-.77.64-1.47.4-2.03-.93-2.12-7.23-1.5-14.07 1.4Z" fill="url(#d)"/><defs><linearGradient id="a" x1="29.65" y1="22.03" x2="33.04" y2="26.64" gradientUnits="userSpaceOnUse"><stop stop-color="#3E91C1"/><stop offset="1" stop-color="#24307F"/></linearGradient><linearGradient id="b" x1="26.02" y1="21.43" x2="11.49" y2="26.19" gradientUnits="userSpaceOnUse"><stop stop-color="#47AAD2"/><stop offset="1" stop-color="#1F3A86"/></linearGradient><linearGradient id="c" x1="19.36" y1="25.47" x2="5.05" y2="30.52" gradientUnits="userSpaceOnUse"><stop stop-color="#EE1E29"/><stop offset="1" stop-color="#962129"/></linearGradient><linearGradient id="d" x1="19.36" y1="25.47" x2="5.05" y2="30.52" gradientUnits="userSpaceOnUse"><stop stop-color="#EE1E29"/><stop offset="1" stop-color="#962129"/></linearGradient></defs></svg>