<!-- by TradingView --><svg width="56" height="56" viewBox="0 0 56 56" xmlns="http://www.w3.org/2000/svg"><path fill="#F0F3FA" d="M0 0h56v56H0z"/><path d="M29 18H11l-1 4h6.97L14 38h5.03L22 22h6l1-4Z" fill="#00AEEF"/><path d="m23.08 33.49 1.48-7.5a3.62 3.62 0 0 1 3.5-2.99h9.37c2.26 0 3.96 2.19 3.5 4.51l-1.5 7.5A3.62 3.62 0 0 1 35.95 38h-9.37c-2.26 0-3.96-2.19-3.5-4.51ZM29.43 36h2.07c.67 0 1.25-.45 1.4-1.09l2.07-8.25a1.39 1.39 0 0 0-1.4-1.66H31.5c-.67 0-1.25.45-1.4 1.09l-2.07 8.25c-.19.85.49 1.66 1.4 1.66Z" fill="#00AEEF"/><path d="M37.27 38.33 30 33.44 36.67 42 50 31l-12.73 7.33ZM31.6 18H44l-1 4H30.5l1.1-4Z" fill="#EC2028"/></svg>