<!-- by TradingView --><svg width="56" height="56" viewBox="0 0 56 56" xmlns="http://www.w3.org/2000/svg"><path fill="#F0F3FA" d="M0 0h56v56H0z"/><path fill-rule="evenodd" d="M41.63 35.63C45.09 33.55 47 30.83 47 28c0-2.82-1.91-5.55-5.37-7.63C38.19 18.31 33.37 17 28 17c-5.37 0-10.19 1.3-13.63 3.37C10.91 22.45 9 25.17 9 28c0 2.82 1.91 5.55 5.37 7.63C17.81 37.69 22.63 39 28 39c5.37 0 10.19-1.3 13.63-3.37ZM28 40c11.05 0 20-5.37 20-12s-8.95-12-20-12S8 21.37 8 28s8.95 12 20 12Z" fill="#0184D3"/><path fill-rule="evenodd" d="M28 39c5.44 0 10-4.84 10-11s-4.56-11-10-11-10 4.84-10 11 4.56 11 10 11Zm0 1c6.08 0 11-5.37 11-12s-4.92-12-11-12-11 5.37-11 12 4.92 12 11 12Z" fill="#0184D3"/><path fill-rule="evenodd" d="M32.22 36C33.3 34.02 34 31.19 34 28c0-3.18-.7-6.01-1.78-8-1.1-2.05-2.47-3-3.72-3s-2.61.95-3.72 3C23.7 21.98 23 24.81 23 28c0 3.18.7 6.01 1.78 8 1.1 2.05 2.47 3 3.72 3s2.61-.95 3.72-3Zm-3.72 4c3.59 0 6.5-5.37 6.5-12s-2.91-12-6.5-12S22 21.37 22 28s2.91 12 6.5 12Z" fill="#0184D3"/><ellipse cx="28" cy="28" rx="14" ry="9" fill="#F8C301"/><path d="M18 26.5V26h4v.5h-1.5V29h-1v-2.5H18Z" fill="#A17C07"/><path fill-rule="evenodd" d="M22 29h1l.25-.5h1.5l.25.5h1l-1.5-3h-1L22 29Zm2.5-1-.5-1-.5 1h1Z" fill="#A17C07"/><path d="M30 26.5V26h-1.5c-1 0-1.5 0-1.5 1 0 .8.67 1 1 1 0 0 1 0 1 .25s-.33.25-.5.25H27v.5h2c1 0 1-.5 1-1 0-.4-.67-.5-1-.5h-.5c-.17 0-.5-.1-.5-.5s.33-.5.5-.5H30Z" fill="#A17C07"/><path fill-rule="evenodd" d="M37.36 33.52C39.72 32.01 41 30.03 41 28c0-2.03-1.28-4-3.64-5.52A17.55 17.55 0 0 0 28 20c-3.7 0-7 .97-9.36 2.48C16.28 23.99 15 25.97 15 28c0 2.03 1.28 4 3.64 5.52A17.55 17.55 0 0 0 28 36c3.7 0 7-.97 9.36-2.48ZM28 37c7.73 0 14-4.03 14-9s-6.27-9-14-9-14 4.03-14 9 6.27 9 14 9Z" fill="#0184D3"/><path fill-rule="evenodd" d="M38 27.5c0-.7-.44-1-1-1s-1 .3-1 1 .44 1 1 1 1-.3 1-1ZM37 29c1.1 0 2-.67 2-1.5s-.9-1.5-2-1.5-2 .67-2 1.5.9 1.5 2 1.5Z" fill="#A17C07"/><path d="M34.5 26v.5H33c-.17 0-1 .2-1 1s.67 1 1 1h1.5v.5h-2c-.5 0-1.5-.3-1.5-1.5s1-1.5 1.5-1.5h2Z" fill="#A17C07"/></svg>