<!-- by TradingView --><svg width="56" height="56" viewBox="0 0 56 56" xmlns="http://www.w3.org/2000/svg"><path fill="#F0F3FA" d="M0 0h56v56H0z"/><path fill-rule="evenodd" d="M28 44a16 16 0 1 0 0-32 16 16 0 0 0 0 32Zm1.6-29.88a14.19 14.19 0 0 1 8.83 4.93c.4.63.34.68-.17.16a18.99 18.99 0 0 0-4.02-3.12 11.8 11.8 0 0 0-5.6-1.67c-.3-.01-.33.06-.06.23l3.37 2.08c.3.2.35.15.14-.14a.93.93 0 0 1-.13-.5c0-.1.04-.12.12-.06l3.36 2.38a7.92 7.92 0 0 1 2.68 3.27c.07.15.05.33-.06.54-.61 1.17-1.8 2.37-3.2 2.2a3.05 3.05 0 0 1-2.22-1.22 19.15 19.15 0 0 1-2.16-3.34l-1.06-2.08C28.45 16 27.9 15 27.76 14.74a.86.86 0 0 1 0-.73.28.28 0 0 1 .14-.15c.3-.13.71-.2 1.24-.19 1.74.02 3.43.34 5.1.97a11.28 11.28 0 0 1 5.11 3.9.03.03 0 0 1-.02.02H39.27a16.06 16.06 0 0 0-8.16-4.41c-.5-.11-1-.13-1.5-.07-.1.01-.1.03-.01.04Zm2.9 4.38a.5.5 0 1 0 0-1 .5.5 0 0 0 0 1Zm-9.24 5.22c.03.07.2.38.54.93a.3.3 0 0 1 .04.2c-.07.43-.37.74-.65 1.02l-.2.23c-.14.15-.24.42-.3.8a8.32 8.32 0 0 1-1.36 3.3.26.26 0 0 1-.32.09l-1.04-.5a.24.24 0 0 0-.28.04.24.24 0 0 0-.05.08c-.92 2.23-1.94 6.23.77 7.78 1.8 1.02 4.94.62 7.14.09a.12.12 0 0 1 .13.16l-1.25 2.58a.4.4 0 0 0 .04.42l2.05 2.63a.05.05 0 0 1 .01.05.05.05 0 0 1-.05.03 16.9 16.9 0 0 1-7.02-2.39 15.39 15.39 0 0 1-6.8-9.9.3.3 0 0 0-.27-.24l-.93-.06c-.09-.01-.14-.06-.15-.15-.25-2.35-.1-4.51.43-6.5.18-.69 1.22-.97 1.84-1.09a.53.53 0 0 0 .36-.25c2.21-3.74 6.5-4.69 10.6-4.5.4.02.67.08.83.19.63.41.38 1.4.08 1.98a9.24 9.24 0 0 1-3.09 3.45c-.2.14-.38.12-.55-.06a6.63 6.63 0 0 0-.49-.47c-.08-.07-.1-.05-.06.06ZM24.5 21a.5.5 0 1 0 0-1 .5.5 0 0 0 0 1Zm11.75 3.54a4.52 4.52 0 0 0 2.21-2.4.11.11 0 0 1 .13 0c1.5.86 2.41 2.27 2.17 4.03-.17 1.3-3.18 1.51-4.16 1.43-.38-.04-.64-.13-.76-.3a5.16 5.16 0 0 1-.96-1.68c-.13-.5.4-.7.95-.91l.42-.17Zm-.49 3.32v.04c.03.78-.12 1.53-.44 2.23-.03.07-.01.13.06.17 1.32.7 2.71 1.32 4.2 1.2a.48.48 0 0 0 .37-.23 6 6 0 0 0 .86-4.12c0-.04-.03-.05-.07-.03a6.74 6.74 0 0 1-4.92.7.08.08 0 0 0-.06.04Zm-1.46 6.65.64.81a.28.28 0 0 1-.09.42l-.12.07c-.93.48-2.22 1.15-3.06.45-.18-.15-.23-.12-.15.1.03.08.02.16-.02.24-.04.06-.1.1-.16.11a8.8 8.8 0 0 1-3.1-.09c-.34-.07-.34-.14 0-.2l.47-.06c.05 0 .08-.02.1-.04a.11.11 0 0 0 .02-.06c0-.04 0-.06-.05-.07a3.05 3.05 0 0 1-2.32-1.94.83.83 0 0 1 .05-.66.27.27 0 0 1 .3-.16l3.92.74a.2.2 0 0 0 .2-.06c.1-.14.18-.19.38-.18 1.3.03 2.08-.7 2.79-1.82.36-.55.68-1.02.98-1.4a.16.16 0 0 1 .21-.05 9.92 9.92 0 0 0 3.85 1.47.1.1 0 0 1 .02.13c-.67.99-1.77 2.27-2.87 2.56-.64.17-1.28.05-1.94-.37-.12-.08-.14-.06-.05.06Z" fill="#0280D6"/><path d="M28.5 33a4.5 4.5 0 1 0 0-9 4.5 4.5 0 0 0 0 9Z" fill="url(#a)"/><defs><linearGradient id="a" x1="28.5" y1="24" x2="28.5" y2="33" gradientUnits="userSpaceOnUse"><stop stop-color="#FCE617"/><stop offset="1" stop-color="#F9B224"/></linearGradient></defs></svg>