<!-- by TradingView --><svg width="56" height="56" viewBox="0 0 56 56" xmlns="http://www.w3.org/2000/svg"><path fill="#F0F3FA" d="M0 0h56v56H0z"/><path d="M28 9c.24 0 .47.13.67.4a1061.91 1061.91 0 0 1 3.96 5.28.08.08 0 0 1-.03.08.08.08 0 0 1-.03.01l-2.55.44c-.26.05-.5.2-.65.4l-1.32 1.8h-.06s.01 0 0 0h-.03l-1.33-1.8a1.02 1.02 0 0 0-.65-.4l-2.55-.43a.08.08 0 0 1-.07-.09l.02-.04 3.94-5.25c.2-.27.43-.4.68-.4Z" fill="#33B5AA"/><path d="M18.98 15.42a.11.11 0 0 1 .08-.02c1.78.26 3.9.54 6.35.87a.64.64 0 0 1 .42.25l1.38 1.87.03.09c0 .03 0 .06-.03.08-.49.7-1.1 1.32-1.03 1.9.07.5.4 2.45 1 5.85.04.15.02.25-.03.29-.04.03-.13 0-.28-.07a255 255 0 0 0-5.3-2.76c-.53-.25-1.32.13-2.14.38a.14.14 0 0 1-.16-.05l-1.37-1.88a.62.62 0 0 1-.11-.48c.45-2.41.83-4.5 1.14-6.25a.1.1 0 0 1 .05-.07ZM37.02 15.42a.1.1 0 0 1 .05.07c.3 1.76.68 3.84 1.13 6.25a.62.62 0 0 1-.1.48l-1.38 1.88a.15.15 0 0 1-.16.05c-.82-.25-1.61-.63-2.14-.39-.46.22-2.23 1.14-5.3 2.76-.15.08-.24.1-.28.07-.06-.04-.07-.14-.04-.3.6-3.39.95-5.34 1.01-5.84.08-.57-.54-1.2-1.03-1.9a.14.14 0 0 1 0-.17l1.38-1.87a.63.63 0 0 1 .43-.25c2.45-.32 4.57-.6 6.35-.86a.1.1 0 0 1 .08.02Z" fill="#7CC4C3"/><path d="M18.1 24.55c0-.01 0-.01 0 0a.35.35 0 0 1-.01.03l-2.13.7c-.25.08-.46.25-.58.48l-1.2 2.26a.08.08 0 0 1-.08.05.09.09 0 0 1-.07-.04 1026.3 1026.3 0 0 1-3.82-5.33c-.2-.27-.25-.52-.18-.76.08-.23.28-.4.6-.5a1115.8 1115.8 0 0 1 6.29-2.1l.04.01a.08.08 0 0 1 .03.08l-.37 2.53a1 1 0 0 0 .18.73l1.32 1.8-.01.04v.02ZM37.9 24.53l-.01-.04 1.3-1.8a1 1 0 0 0 .19-.73L39 19.43a.08.08 0 0 1 .03-.08.09.09 0 0 1 .08-.02l6.26 2.1c.31.1.51.27.59.5.08.24.02.49-.18.76a926.03 926.03 0 0 1-3.84 5.36.09.09 0 0 1-.08 0 .08.08 0 0 1-.03-.03l-1.21-2.27c-.12-.23-.33-.4-.58-.48l-2.13-.7a.39.39 0 0 0-.03-.04Z" fill="#33B5AA"/><path d="m28.1 19.49.54.93v.06l-.56 3.27c0 .02-.01.04-.03.05a.08.08 0 0 1-.13-.05l-.6-3.34a.08.08 0 0 1 .02-.06l.61-.87.03-.03a.08.08 0 0 1 .11.04ZM22.16 26.3c-.41-.05-.78-.1-1.1-.17-.5-.1-.68-.43-.9-.83-.03-.07-.01-.12.06-.15.47-.2.77-.4 1.33-.12l2.55 1.33c.2.1.19.16-.04.16-.63.03-1.34-.16-1.9-.22ZM33.82 26.29c-.55.06-1.26.25-1.9.23-.23-.01-.24-.07-.04-.17l2.56-1.33c.56-.28.86-.09 1.33.12.07.04.1.09.05.15-.21.4-.4.74-.89.83-.32.07-.7.12-1.1.17ZM42.61 32.42a.11.11 0 0 1-.05.07c-1.6.83-3.48 1.83-5.66 3a.64.64 0 0 1-.5.04l-2.22-.71a.15.15 0 0 1-.07-.05.14.14 0 0 1-.03-.09c-.01-.84.1-1.71-.3-2.13-.35-.37-1.78-1.75-4.29-4.14-.11-.11-.16-.2-.15-.24.02-.07.11-.1.27-.13 3.45-.48 5.43-.76 5.94-.86.57-.1.99-.88 1.5-1.55a.14.14 0 0 1 .07-.06h.09l2.23.72a.63.63 0 0 1 .37.33c1.07 2.21 2 4.12 2.8 5.71v.09ZM13.4 32.43a.1.1 0 0 1 0-.08c.8-1.6 1.72-3.5 2.79-5.72a.63.63 0 0 1 .37-.32l2.23-.72h.1c.02 0 .05.02.07.05.5.68.92 1.45 1.5 1.55.5.1 2.48.38 5.94.86.15.02.24.06.26.13.02.05-.03.13-.14.24a261 261 0 0 0-4.3 4.15c-.4.42-.28 1.29-.29 2.13 0 .03 0 .06-.03.09a.15.15 0 0 1-.07.05l-2.23.71a.63.63 0 0 1-.5-.04 553.29 553.29 0 0 0-5.65-3 .11.11 0 0 1-.06-.08ZM28 29.13c.07 0 .13.07.2.21 1.53 3.1 2.42 4.88 2.67 5.33.27.5 1.15.66 1.95.93a.14.14 0 0 1 .1.13v2.33a.62.62 0 0 1-.2.45c-1.79 1.69-3.33 3.15-4.62 4.4a.1.1 0 0 1-.07.03.11.11 0 0 1-.09-.03c-1.29-1.24-2.83-2.7-4.63-4.4a.62.62 0 0 1-.2-.45v-2.32a.14.14 0 0 1 .1-.14c.8-.27 1.68-.42 1.95-.93.25-.45 1.13-2.22 2.66-5.33.07-.14.13-.2.18-.2Z" fill="#7CC4C3"/><path d="M22.53 34.24v-.91a.09.09 0 0 1 .03-.06l2.77-2.42a.09.09 0 0 1 .15.05c0 .02 0 .04-.02.06l-1.7 3.14a.09.09 0 0 1-.07.04l-1.06.19a.09.09 0 0 1-.07-.02.09.09 0 0 1-.03-.07ZM32.91 33.34v.96a.1.1 0 0 1-.03.08.1.1 0 0 1-.09.01l-1-.33a.1.1 0 0 1-.05-.05l-1.4-3a.1.1 0 0 1 .04-.11.1.1 0 0 1 .12 0l2.39 2.37a.1.1 0 0 1 .02.07Z" fill="#7CC4C3"/><path d="M34.12 36.06a.32.32 0 0 1 .03-.02l2.13.68c.25.08.52.06.76-.05l2.32-1.13a.08.08 0 0 1 .1.04l.02.04-.08 6.52c-.01.34-.11.57-.32.72-.2.14-.45.16-.77.07a1010.87 1010.87 0 0 1-6.33-1.98.08.08 0 0 1-.02-.07l.02-.04 1.8-1.83a1 1 0 0 0 .29-.7v-2.22l.04-.02v-.01ZM21.89 36.06s-.01 0 0 0l.02.03.01 2.22c0 .26.1.51.29.7l1.8 1.84a.08.08 0 0 1 0 .11 1040.65 1040.65 0 0 1-6.34 1.98c-.32.1-.58.07-.79-.07-.2-.14-.3-.38-.3-.71a876.12 876.12 0 0 1-.07-6.59.09.09 0 0 1 .06-.04h.05l2.32 1.13c.24.12.5.14.76.06l2.14-.68a.32.32 0 0 1 .05.02Z" fill="#33B5AA"/></svg>