<!-- by TradingView --><svg xmlns="http://www.w3.org/2000/svg" width="56" height="56" viewBox="0 0 56 56"><path fill="#F0F3FA" d="M0 0h56v56H0z"/><path d="M15.82 31.93V30.3l-3.01.07a2.7 2.7 0 0 0-1.23 2.19 2.5 2.5 0 0 0 2.6 2.45 2.32 2.32 0 0 0 1.89-1.08l-.32-.24a1.6 1.6 0 0 1-1.56.89c-1.14-.06-1.3-1.29-1.32-1.85-.02-.57.08-2.54 1.32-2.27a2.01 2.01 0 0 1 1.5 1.48h.13zM25 30.5h-2.28v.23l.66.32v3.44l-.66.25V35H25v-.26l-.62-.25v-3.44l.62-.32v-.23zM36 30.5h-4V32h.19s.34-1.27 1.35-1.27v3.76l-.54.25V35h2v-.26l-.45-.25v-3.76c1.11 0 1.21 1.27 1.21 1.27H36v-1.5zM47 30.77v-.27h-1.54v.27h.34l-.93 1.5-.86-1.5h.66v-.27H42.5v.27h.27l1.4 2.48v1.11l-.61.37V35h2.24v-.27l-.58-.37v-1.1l1.45-2.49H47z"/><path fill="#1E8ECE" d="M16 24h2v6.5h-2zM32 24h3.91a1.62 1.62 0 0 1 .85 3 1.87 1.87 0 0 1-.9 3.5H32V24zm2 5h1.22a.66.66 0 1 0 0-1.32H34V29zm0-3.55v1.18h1.01a.6.6 0 0 0 0-1.18H34zM25 24h2v2.34h2.5V24h2v6.5h-2V28H27v2.5h-2V24zM9 24h2v1.98L12.96 24h2.77l-2.55 2.35 2.78 3.96h-2.84l-1.56-2.47-.56.52v2.14H9V24zM18.6 24v6.5h2v-3.19l2.13 3.19h1.88V24h-2v3.4L20.49 24h-1.88z"/><path fill-rule="evenodd" d="M37.63 30.5l2.42-6.5h2.18l2.45 6.5H42.5l-.26-.9h-2.18l-.27.9h-2.15zm2.83-2.24l.65-2.17.7 2.17h-1.35z" fill="#1E8ECE"/><path d="M51 28c-.31 1.44-1.54 2.5-3.46 2.5-2.24-.01-3.54-1.46-3.54-3.25 0-1.8 1.32-3.25 3.54-3.25 1.88 0 3.11 1.04 3.45 2.45h-2.25c-.18-.6-.57-1-1.2-.99-.88.02-1.3.8-1.3 1.8 0 .99.48 1.8 1.3 1.8.6 0 1.02-.44 1.2-1.06H51z" fill="#1E8ECE"/><path d="M4.01 32.26c-.28-1.16 3.88-3.83 6.12-5.24-1.67 1.7-1.89 2.38-1.76 2.6 1.15 1.96 13.69-2.22 18.98-5.04-3.62 2.78-11.74 5.84-15.92 7.12-4.17 1.28-7.12 1.76-7.42.56z" fill="#EC2028"/><path d="M17 23.83A2.42 2.42 0 1 0 17 19a2.42 2.42 0 0 0 0 4.83zm1.34-4.04c.79.65 1.04 1.91.4 2.84l-1.62-1.34-1.62-1.34c.75-.79 2.03-.82 2.84-.16z" fill="#1E8ECE"/></svg>