<!-- by TradingView --><svg width="56" height="56" viewBox="0 0 56 56" xmlns="http://www.w3.org/2000/svg"><path fill="#F0F3FA" d="M0 0h56v56H0z"/><path d="M32.44 11h-8.88L12 35.41v5.23L20 45h15.11L44 40.64v-5.23L32.44 11Z" fill="#993400"/><path d="M16.86 31 16 33h24l-.86-2H16.86ZM14 36l.44-2h27.12l.44 2H14Z" fill="#FDFF00"/><circle cx="28" cy="23" r="8" fill="#FC0600"/><path fill="#D9D9D9" d="M13 37h30v2H13z"/><path fill="#F6D636" d="M19 40h18v3H19z"/><path fill-rule="evenodd" d="M26.16 18.45h-2.85c-.04 0-.18.04-.4.2-.2.17-.43.42-.65.77-.43.7-.8 1.3-.8 2.67 0 1.7.65 3.07 1.5 4.02a4.3 4.3 0 0 0 2.27 1.4l.3-1.83c-.5-.08-1.06-.29-1.54-.7-.68-.58-1.14-1.5-1.14-2.89v-.03c0-.36 0-.56.27-1.13.15-.3.38-.6.73-.8.35-.2.78-.31 1.3-.31h1.29l-.28-1.37Zm.38-.45H23.3c-.77 0-2.31 1.18-2.31 4.1 0 3.63 2.77 5.9 4.62 5.9l.46-2.73c-.15 0-.3 0-.46-.03-1.04-.17-2.31-.95-2.31-3.15 0-.76 0-1.82 1.84-1.82H27L26.54 18Z" fill="#FDFF00"/><path d="M29.63 19.82h-2.1l.27-1.37h4.01c.3 0 .75.1 1.11.37.35.26.64.7.64 1.45 0 .25-.05.66-.22 1.04-.17.37-.42.67-.8.8l-.84.3.74.51c.32.22 1.12 1.14 1.12 2.8 0 .8-.25 1.24-.5 1.49-.28.25-.61.34-.81.34h-3.94v-7.28h.88v5.91h1.31c.44 0 .88 0 .88-1.36 0-.83-.69-1.37-1.27-1.64a2.9 2.9 0 0 0-.48-.18l.4-.34c.6-.54 1.34-1.35 1.34-1.93 0-.73-.58-.91-.87-.91h-.88ZM27.43 18 27 20.27h.88V28h4.37c.58 0 1.75-.45 1.75-2.27 0-1.4-.51-2.34-.95-2.85a2.05 2.05 0 0 0-.36-.33c.16-.06.3-.14.43-.23.7-.52.88-1.53.88-2.05 0-1.82-1.46-2.27-2.19-2.27h-4.37Zm3.07 7.73h-.88v-2.26c.24.08.56.23.83.44.3.25.49.55.49.9 0 .68-.12.85-.15.88-.01.02-.04.04-.29.04Zm-.1-4.07a7.7 7.7 0 0 1-.77.76v-2.15h.87c.08 0 .2.03.3.1.06.05.14.14.14.36 0 .06-.03.18-.13.37-.1.17-.25.36-.42.56Z" fill="#FDFF00"/></svg>