<!-- by TradingView --><svg width="56" height="56" viewBox="0 0 56 56" xmlns="http://www.w3.org/2000/svg"><path fill="#F0F3FA" d="M0 0h56v56H0z"/><path d="M6.45 22H4.49a.5.5 0 0 0-.49.5v11c0 .28.22.5.49.5h1.96c.27 0 .55-.22.55-.5v-4l4.7 4.37c.1.08.2.13.33.13h2.48c.45 0 .66-.56.33-.87L9.4 28l5.45-5.13c.33-.31.12-.87-.33-.87H12a.48.48 0 0 0-.3.11L7 26v-3.5c0-.28-.28-.5-.55-.5ZM18 30.84V22h11c2.25 0 2.92 1.76 3 2.8a9.6 9.6 0 0 1-3.64 2.72L25 25l-4 3h1v1.24c-1.27.42-2.4.91-3.23 1.27-.3.14-.56.25-.77.33Z" fill="red"/><path d="M32 24.8a9.6 9.6 0 0 1-3.64 2.72L29 28h-1v3h-2v-2h-1v2h-3v-1.76c-1.27.42-2.4.92-3.23 1.27-.3.14-.56.25-.77.33V34h11c1 0 3-.6 3-3v-6.2ZM37.5 34h-2a.5.5 0 0 1-.5-.5v-11c0-.28.22-.5.5-.5h4.2c.18 0 .35.1.44.28L43.5 29l3.36-6.72a.5.5 0 0 1 .45-.28h4.19c.28 0 .5.22.5.5v11a.5.5 0 0 1-.5.5h-2a.5.5 0 0 1-.5-.5v-8l-3.86 8.21a.5.5 0 0 1-.46.29h-2.36a.5.5 0 0 1-.46-.29L38 25.5v8a.5.5 0 0 1-.5.5Z" fill="#003193"/></svg>