<!-- by TradingView --><svg width="56" height="56" viewBox="0 0 56 56" xmlns="http://www.w3.org/2000/svg"><path fill="#F0F3FA" d="M0 0h56v56H0z"/><path d="M34.68 13.03c-1.72.8-1.8 2.31-1.61 2.97 1.6 0 1.07 0 3.22-.99 2.15-.99 2.86-2.14 2.68-2.47-1.07-.99-2.14-.5-4.3.5ZM34.68 17.03c-1.72.8-1.8 2.31-1.61 2.97 1.6 0 1.07 0 3.22-.99 2.15-.99 2.86-2.14 2.68-2.47-1.07-.99-2.14-.5-4.3.5ZM34.68 21.03c-1.72.8-1.8 2.31-1.61 2.97 1.6 0 1.07 0 3.22-.99 2.15-.99 2.86-2.14 2.68-2.47-1.07-.99-2.14-.5-4.3.5ZM34.68 25.03c-1.72.8-1.8 2.31-1.61 2.97 1.6 0 1.07 0 3.22-.99 2.15-.99 2.86-2.14 2.68-2.47-1.07-.99-2.14-.5-4.3.5ZM34.68 29.03c-1.72.8-1.8 2.31-1.61 2.97 1.6 0 1.07 0 3.22-.99 2.15-.99 2.86-2.14 2.68-2.47-1.07-.99-2.14-.5-4.3.5ZM34.68 33.03c-1.72.8-1.8 2.31-1.61 2.97 1.6 0 1.07 0 3.22-.99 2.15-.99 2.86-2.14 2.68-2.47-1.07-.99-2.14-.5-4.3.5ZM34.68 37.03c-1.72.8-1.8 2.31-1.61 2.97 1.6 0 1.07 0 3.22-.99 2.15-.99 2.86-2.14 2.68-2.47-1.07-.99-2.14-.5-4.3.5ZM34.68 41.03c-1.72.8-1.8 2.31-1.61 2.97 1.6 0 1.07 0 3.22-.99 2.15-.99 2.86-2.14 2.68-2.47-1.07-.99-2.14-.5-4.3.5Z" fill="#E2D938"/><path d="M31.32 13.03c1.34.62 1.68 1.67 1.68 2.42V12l-4.34.03c.69.1 1.53.48 2.66 1ZM33 19.45v-4c0 .22-.03.4-.07.55-.68 0-.97 0-1.25-.07a4.3 4.3 0 0 1-.79-.35l-1.18-.57c-2.15-.99-2.86-2.14-2.68-2.47.3-.29.62-.45.95-.51L17 12.09V44h15.93c-.68 0-.97 0-1.25-.07-.38-.1-.73-.35-1.97-.92-2.15-.99-2.86-2.14-2.68-2.47 1.07-.99 2.14-.5 4.3.5 1.33.6 1.67 1.66 1.67 2.41v-4c0 .22-.03.4-.07.55-.68 0-.97 0-1.25-.07a4.3 4.3 0 0 1-.79-.35l-1.18-.57c-2.15-.99-2.86-2.14-2.68-2.47 1.07-.99 2.14-.5 4.3.5 1.33.6 1.67 1.66 1.67 2.41v-4c0 .22-.03.4-.07.55-.68 0-.97 0-1.25-.07a4.3 4.3 0 0 1-.79-.35l-1.18-.57c-2.15-.99-2.86-2.14-2.68-2.47 1.07-.99 2.14-.5 4.3.5 1.33.6 1.67 1.66 1.67 2.41v-4c0 .22-.03.4-.07.55-.68 0-.97 0-1.25-.07a4.3 4.3 0 0 1-.79-.35l-1.18-.57c-2.15-.99-2.86-2.14-2.68-2.47 1.07-.99 2.14-.5 4.3.5 1.33.6 1.67 1.66 1.67 2.41v-4c0 .22-.03.4-.07.55-.68 0-.97 0-1.25-.07a4.3 4.3 0 0 1-.79-.35 35.3 35.3 0 0 0-1.18-.57c-2.15-.99-2.86-2.14-2.68-2.47 1.07-.99 2.14-.5 4.3.5 1.33.6 1.67 1.66 1.67 2.41v-4c0 .22-.03.4-.07.55-.68 0-.97 0-1.25-.07a4.3 4.3 0 0 1-.79-.35l-1.18-.57c-2.15-.99-2.86-2.14-2.68-2.47 1.07-.99 2.14-.5 4.3.5 1.33.6 1.67 1.66 1.67 2.41v-4c0 .22-.03.4-.07.55-.68 0-.97 0-1.25-.07a4.3 4.3 0 0 1-.79-.35l-1.18-.57c-2.15-.99-2.86-2.14-2.68-2.47 1.07-.99 2.14-.5 4.3.5 1.33.6 1.67 1.66 1.67 2.41Zm0 24c0 .22-.03.4-.07.55H33v-.54Z" fill="#E2D938"/></svg>