<!-- by TradingView --><svg width="56" height="56" fill="none" xmlns="http://www.w3.org/2000/svg"><path fill="#F0F3FA" d="M0 0h56v56H0z"/><path d="M16.754 18H9l5.81 9.543L9 37h7.754l2.698-4.914v-9.041L16.754 18ZM21 18h7v19h-7V18Z" fill="#0873B8"/><path d="M36.502 18H42v13h7v6H36.502V18Z" fill="#0673BA"/><path d="M26 18h-6.973L19 37h7v-7h4v7h7V18h-7v6h-4v-6Z" fill="#fff"/><path fill-rule="evenodd" clip-rule="evenodd" d="M26 30h4v7h7V18h-7v6h-4v-6h-6.973L19 37h7v-7Zm-.3 6.7v-7h4.6v7h6.4V18.3h-6.4v6h-4.6v-6h-6.373L19.3 36.7h6.4Z" fill="#000"/></svg>