<!-- by TradingView --><svg width="56" height="56" viewBox="0 0 56 56" xmlns="http://www.w3.org/2000/svg"><path fill="#F0F3FA" d="M0 0h56v56H0z"/><path d="M37 36v-6h1.96c1.14 0 1.85.8 1.85 1.92 0 1.12-.73 2.08-1.86 2.08h-1.4v-1h1.27c.63 0 1.02-.25 1.02-1.08 0-.64-.4-.92-1.02-.92H38v5h-1Zm2.7-2.52L41 36h-1.06l-1.27-2.52h1.03ZM32 36v-6h4v1h-3v1.5h3v1h-3V35h3v1h-4ZM25.48 36 24 30h1.02l.95 4.4h.05l1.01-4.4h.94l1.01 4.41h.05l.95-4.41H31l-1.48 6h-.95l-1.05-4.21h-.04L26.43 36h-.95ZM23 33c0 .63-.11 1.17-.33 1.62A2.34 2.34 0 0 1 20.5 36a2.35 2.35 0 0 1-2.17-1.39A3.66 3.66 0 0 1 18 33c0-.63.1-1.17.33-1.61A2.35 2.35 0 0 1 20.5 30a2.34 2.34 0 0 1 2.17 1.39c.22.44.33.98.33 1.61Zm-1 0c0-.44-.06-.82-.18-1.12-.13-.3-.3-.54-.54-.7a1.34 1.34 0 0 0-.78-.23c-.3 0-.56.08-.78.24-.23.15-.4.38-.54.69-.13.3-.19.68-.19 1.12 0 .44.06.82.2 1.12a1.35 1.35 0 0 0 1.32.93c.29 0 .55-.08.77-.23.23-.16.4-.4.54-.7.12-.3.19-.68.19-1.12ZM13 36v-6h2.06c1.17 0 1.94.84 1.94 1.99 0 1.16-.78 2.01-1.95 2.01h-1.37v-1h1.23c.66 0 1.08-.36 1.08-1.01 0-.66-.42-.99-1.08-.99H14v5h-1ZM48.04 28H47l1.9-6h1.2l1.9 6h-1.04l-1.44-4.77h-.04L48.04 28Zm.04-2.35h2.84v.87h-2.84v-.87ZM47 25c0 .63-.11 1.17-.33 1.62A2.34 2.34 0 0 1 44.5 28a2.35 2.35 0 0 1-2.17-1.39A3.66 3.66 0 0 1 42 25c0-.63.1-1.17.33-1.61A2.35 2.35 0 0 1 44.5 22a2.34 2.34 0 0 1 2.17 1.39c.22.44.33.98.33 1.61Zm-1 0c0-.44-.06-.82-.18-1.12-.13-.3-.3-.54-.54-.7a1.34 1.34 0 0 0-.78-.23c-.3 0-.56.08-.78.24-.23.15-.4.38-.54.69-.13.3-.19.68-.19 1.12 0 .44.06.82.2 1.12a1.35 1.35 0 0 0 1.32.93c.29 0 .55-.08.77-.23.23-.16.4-.4.54-.7.12-.3.19-.68.19-1.12ZM36 28v-6h1v2.54h3V22h1v6h-1v-2.55h-3V28h-1ZM28 28v-6h1v2.54h3V22h1v6h-1v-2.55h-3V28h-1ZM27 22v6h-.88l-3.07-4.09H23V28h-1v-6h.88l3.07 4.09H26V22h1ZM17.04 28H16l1.9-6h1.2l1.9 6h-1.04l-1.44-4.77h-.04L17.04 28Zm.04-2.35h2.84v.87h-2.84v-.87ZM10 28v-6h1v2.54h3V22h1v6h-1v-2.55h-3V28h-1ZM4 28v-6h1v2.76h.08L7.6 22h1.37l-2.4 2.7L9 28H7.65l-1.84-2.57-.81.78V28H4Z"/></svg>