<!-- by TradingView --><svg width="56" height="56" viewBox="0 0 56 56" xmlns="http://www.w3.org/2000/svg"><path fill="#F0F3FA" d="M0 0h56v56H0z"/><path d="M34.29 23H21.7L28 12l6.29 11Z" fill="#E30016"/><path fill-rule="evenodd" d="M44 40 28 12 12 40h32Zm-31.14-.5h30.28L28 13 12.86 39.5Z" fill="#1B437B"/><path d="m12 40 4.57-8h22.86L44 40H12Zm26-6H18v4h20v-4Z" fill="#1B437B"/><path d="M34.07 35h.48l1.08 1.48v-1.14c0-.12 0-.2-.03-.22-.03-.05-.09-.07-.15-.07h-.07V35H36v.05h-.06c-.08 0-.13.03-.16.08-.02.03-.03.1-.03.21V37h-.05l-1.17-1.58v1.24c0 .12.02.2.04.23.03.04.08.06.15.06h.07V37h-.62v-.05h.06c.08 0 .13-.03.16-.08.02-.03.03-.1.03-.21v-1.4a.83.83 0 0 0-.12-.13.4.4 0 0 0-.11-.06.37.37 0 0 0-.12-.02V35ZM33.88 35v.05a.27.27 0 0 0-.15.07.61.61 0 0 0-.12.22L32.99 37h-.05l-.66-1.69a.97.97 0 0 0-.07-.15.23.23 0 0 0-.08-.07.33.33 0 0 0-.13-.04V35h.72v.05c-.08.01-.13.03-.16.05a.11.11 0 0 0-.03.08c0 .05.02.13.06.23l.45 1.15.42-1.14a.82.82 0 0 0 .06-.23.11.11 0 0 0-.04-.08c-.03-.02-.07-.04-.13-.05h-.02V35h.55ZM30.82 36.35h-.68l-.12.3a.53.53 0 0 0-.05.17c0 .03.01.06.04.08.03.03.08.04.17.05V37h-.56v-.05c.07-.02.12-.04.14-.06a.9.9 0 0 0 .15-.28l.62-1.61h.05l.62 1.63c.05.13.09.21.13.25.04.04.1.06.17.07V37h-.7v-.05c.07 0 .12-.02.14-.04a.1.1 0 0 0 .04-.08c0-.05-.02-.11-.05-.2l-.1-.28Zm-.03-.11-.3-.8-.31.8h.6ZM28.7 35.11v.79h.38c.1 0 .17-.02.2-.05.05-.05.08-.13.08-.24h.05v.7h-.05a.84.84 0 0 0-.04-.2.17.17 0 0 0-.07-.07.35.35 0 0 0-.17-.03h-.39v.66l.01.16.04.05.1.01h.3c.1 0 .17 0 .22-.02a.32.32 0 0 0 .13-.1c.05-.06.1-.15.16-.27h.06l-.16.5H28.2v-.05h.06c.04 0 .08-.02.12-.04a.12.12 0 0 0 .06-.07l.01-.2v-1.3c0-.12 0-.2-.03-.23-.03-.04-.08-.05-.16-.05h-.06V35h1.36l.02.44h-.05a.74.74 0 0 0-.06-.22.21.21 0 0 0-.1-.09.53.53 0 0 0-.18-.02h-.49ZM27.88 35v.66h-.05a.86.86 0 0 0-.08-.3.45.45 0 0 0-.17-.18.45.45 0 0 0-.24-.07.3.3 0 0 0-.22.1.28.28 0 0 0-.09.2c0 .05.02.1.06.16.05.07.18.16.38.28l.34.22a.51.51 0 0 1 .19.4c0 .14-.05.27-.16.37-.1.1-.23.16-.4.16a.78.78 0 0 1-.31-.06.69.69 0 0 0-.16-.05c-.02 0-.04 0-.05.02-.02.02-.03.04-.03.09h-.05v-.66h.05c.02.14.05.24.09.31.04.07.1.13.18.17.07.05.16.07.25.07.11 0 .2-.03.26-.1a.3.3 0 0 0 .06-.36.4.4 0 0 0-.11-.13 3.13 3.13 0 0 0-.28-.18c-.15-.1-.26-.16-.32-.22a.58.58 0 0 1-.15-.18.48.48 0 0 1-.05-.22c0-.13.05-.25.15-.35a.5.5 0 0 1 .37-.15c.1 0 .2.02.3.07l.1.04c.03 0 .05 0 .06-.02.01-.02.03-.05.03-.09h.05ZM25.99 35.05V35h.63v.05h-.07a.18.18 0 0 0-.16.1c-.02.03-.03.1-.03.2v.8c0 .2-.02.35-.05.46-.04.1-.1.2-.21.28a.69.69 0 0 1-.42.11.73.73 0 0 1-.44-.11.6.6 0 0 1-.21-.3 1.82 1.82 0 0 1-.05-.48v-.76c0-.12-.01-.2-.04-.24-.03-.04-.08-.06-.15-.06h-.06V35h.76v.05h-.07c-.07 0-.12.03-.15.08-.02.03-.04.1-.04.22v.85l.02.26c.02.1.04.17.07.23.04.05.08.1.14.13.07.04.14.06.23.06.12 0 .22-.03.32-.09.09-.05.15-.12.18-.21.04-.09.05-.24.05-.44v-.8c0-.12 0-.2-.03-.22-.04-.05-.09-.07-.16-.07H26ZM23.33 35.93h.82v-.57l-.01-.2a.13.13 0 0 0-.06-.07.22.22 0 0 0-.12-.03h-.06V35h.76v.06h-.07a.23.23 0 0 0-.12.03.12.12 0 0 0-.05.07.82.82 0 0 0-.02.2v1.29c0 .1 0 .16.02.2 0 .02.03.04.05.06.04.02.08.04.12.04h.07V37h-.76v-.05h.06c.07 0 .13-.03.16-.08.02-.03.03-.1.03-.22v-.61h-.82v.6c0 .1 0 .17.02.2 0 .03.02.05.05.07.04.02.08.04.12.04h.06V37h-.75v-.05h.06c.07 0 .12-.03.16-.08.02-.03.03-.1.03-.22v-1.3c0-.1 0-.16-.02-.2a.13.13 0 0 0-.05-.06.23.23 0 0 0-.12-.03h-.06V35h.75v.06h-.06a.23.23 0 0 0-.12.03.12.12 0 0 0-.05.07.76.76 0 0 0-.02.2v.57ZM22.71 36.95V37h-.75v-.05h.06c.07 0 .12-.03.16-.08.02-.03.03-.1.03-.22v-1.3c0-.1 0-.16-.02-.2a.13.13 0 0 0-.05-.06.23.23 0 0 0-.12-.03h-.06V35h.75v.06h-.06c-.07 0-.13.02-.16.07-.02.03-.03.1-.03.22v1.3c0 .1 0 .16.02.2 0 .02.02.04.05.06.04.02.08.04.12.04h.06Z" fill="#E30016"/><path d="m20.8 35.9.67.72c.12.12.21.2.3.25.07.04.15.07.23.08V37h-.88v-.05c.05 0 .09-.01.11-.03.02-.02.04-.04.04-.07 0-.02 0-.04-.02-.06a.52.52 0 0 0-.08-.1l-.64-.69v.65c0 .1 0 .16.02.2 0 .02.02.04.05.06.04.02.08.04.13.04h.06V37H20v-.05h.07c.07 0 .13-.03.16-.08.02-.03.04-.1.04-.22v-1.3l-.02-.2a.13.13 0 0 0-.06-.06.24.24 0 0 0-.12-.04H20V35h.8v.05h-.07a.25.25 0 0 0-.13.04.12.12 0 0 0-.06.07.72.72 0 0 0-.01.2v.6l.19-.18c.27-.27.43-.45.49-.54a.2.2 0 0 0 .03-.1.08.08 0 0 0-.03-.06c-.01-.02-.05-.03-.1-.03h-.03V35h.68v.05a.38.38 0 0 0-.23.09l-.18.14-.28.3-.28.31Z" fill="#E30016"/></svg>