<!-- by TradingView --><svg width="56" height="56" viewBox="0 0 56 56" xmlns="http://www.w3.org/2000/svg"><path fill="#F0F3FA" d="M0 0h56v56H0z"/><path d="M44.15 23.47h-32.3l13.27-13.28a4.07 4.07 0 0 1 5.76 0l13.27 13.28Z" fill="#0099CB"/><path d="m39.69 37-8.81 8.8a4.07 4.07 0 0 1-5.76 0l-8.8-8.8h23.37Z" fill="#32CCFE"/><path d="m16.31 37-6.12-6.12a4.07 4.07 0 0 1 0-5.76l1.65-1.65h32.32l1.65 1.65a4.07 4.07 0 0 1 0 5.76L39.69 37H16.31Z" fill="#09F"/><circle cx="25" cy="18" r="2" fill="#FF0"/><path d="m19.7 40.3-6.42-6.47-.08-.64c-.83-8.07 5.85-12.03 9.35-13.19C20.93 21.05 17 25.18 17 30.61c0 4.35 2.26 7.95 3.41 9.4-.21.1-.46.21-.71.3Z" fill="#fff"/><path d="M29 46.46c-.25-.15-.53.2-.8 0-7.08-5.3-10.65-11.52-10.65-16.96 0-4.35 3.34-8.15 5-9.5-.95.98-2.85 3.85-2.85 7.47 0 7.39 9.6 12.42 14.42 14.02l.07.86-3.64 3.67c-.46.46-.98.25-1.56.44Z" fill="#fff"/><path d="m39.74 36.76-3.18 3.2c-.4.2-.8.32-1.21.35-12.54-4-15.33-10.2-15.33-13.81 0-2.88 1.69-5.43 2.53-6.43-.4.76-1.23 2.88-1.23 5.24 0 8.43 13.12 9.63 19.68 9.17-.28.61-.71 1.44-1.26 2.28Z" fill="#fff"/><path fill-rule="evenodd" d="M45.16 25.77 30.23 10.84a3.15 3.15 0 0 0-4.46 0L10.84 25.77a3.15 3.15 0 0 0 0 4.46l14.93 14.93a3.15 3.15 0 0 0 4.46 0l14.93-14.93a3.15 3.15 0 0 0 0-4.46ZM30.88 10.2a4.07 4.07 0 0 0-5.76 0L10.2 25.12a4.07 4.07 0 0 0 0 5.76L25.12 45.8a4.07 4.07 0 0 0 5.76 0L45.8 30.88a4.07 4.07 0 0 0 0-5.76L30.88 10.2Z" fill="#FDCD00"/><path fill="#069" fill-opacity=".7" d="M24 26h21v4H24z"/></svg>