<!-- by TradingView --><svg width="56" height="56" viewBox="0 0 56 56" xmlns="http://www.w3.org/2000/svg"><path fill="#F0F3FA" d="M0 0h56v56H0z"/><path d="M12 21H8v14h4v-4l1-1 3.5 5H22l-6-8 5-6h-5.5L12 25v-4ZM26 21h4v14h-4z" fill="#EE1F3F"/><path fill-rule="evenodd" d="M39 21h-3v14h4v-4h3.5c3.2 0 4.5-3 4.5-5 0-3-2.5-5-4.5-5H39Zm1 3v4h2c1 0 2-.8 2-2s-1-2-2-2h-2Z" fill="#EE1F3F"/><path d="M31 28.5c1-.5 1.5-1.5 2-2.5.5 1 1 2 2 2.5-1 .5-1.5 1.5-2 2.5-.5-1-1-2-2-2.5ZM20 28.5c1-.5 1.5-1.5 2-2.5.5 1 1 2 2 2.5-1 .5-1.5 1.5-2 2.5-.5-1-1-2-2-2.5Z" fill="#6C6E70"/></svg>