<!-- by TradingView --><svg width="56" height="56" viewBox="0 0 56 56" xmlns="http://www.w3.org/2000/svg"><path fill="#F0F3FA" d="M0 0h56v56H0z"/><path d="M31 24h-2v8h2v-4.2l4.1 4.2H38l-4.1-4.2 4.06-3.8h-2.89L31 27.8V24ZM21 24h-2v8h2v-4.2l4.1 4.2H28l-4.1-4.2 4.06-3.8h-2.89L21 27.8V24ZM41.19 24A2.24 2.24 0 0 0 39 26.29v3.42c0 1.27.98 2.29 2.19 2.29H48v-2h-6.23a.77.77 0 0 1-.77-.77v-2.46c0-.43.34-.77.77-.77H48v-2h-6.81Z" fill="#363A5F"/><path d="M27.24 17h-3.76l3.76 6H31l-3.76-6Z" fill="url(#a)"/><path d="M17.71 24h-2.73l-4.56 7.75L14.49 39h3.76l-4.65-8.04L17.7 24Z" fill="url(#b)"/><path d="m14.35 17-1.83 3h9.3l1.89 3h2.82l-3.76-6h-8.42Z" fill="url(#c)"/><path d="M12.3 21 8 28.04l1.88 3.18L14.65 23H23l-1.39-2h-9.3Z" fill="url(#d)"/><path d="m18.92 39-4.66-7.96 1.4-2.38L19.83 36H29l-1.85 3h-8.23Z" fill="url(#e)"/><path d="m20.13 35-1.39-2h12.17l-1.39 2h-9.4Z" fill="url(#f)"/><defs><linearGradient id="a" x1="11.09" y1="22.92" x2="30.88" y2="33.69" gradientUnits="userSpaceOnUse"><stop offset=".31" stop-color="#E8E5DE"/><stop offset=".59" stop-color="#655B59"/><stop offset="1" stop-color="#D3CCC4"/></linearGradient><linearGradient id="b" x1="11.09" y1="22.92" x2="30.88" y2="33.69" gradientUnits="userSpaceOnUse"><stop stop-color="#414141"/><stop offset=".31" stop-color="#E8E5DE"/><stop offset=".59" stop-color="#655B59"/><stop offset="1" stop-color="#D3CCC4"/></linearGradient><linearGradient id="c" x1="11.09" y1="22.92" x2="30.88" y2="33.69" gradientUnits="userSpaceOnUse"><stop stop-color="#414141"/><stop offset=".31" stop-color="#E8E5DE"/><stop offset=".59" stop-color="#655B59"/></linearGradient><linearGradient id="d" x1="11.09" y1="22.92" x2="30.88" y2="33.69" gradientUnits="userSpaceOnUse"><stop stop-color="#414141"/><stop offset=".31" stop-color="#E8E5DE"/><stop offset=".59" stop-color="#655B59"/></linearGradient><linearGradient id="e" x1="11.09" y1="22.92" x2="30.88" y2="33.69" gradientUnits="userSpaceOnUse"><stop stop-color="#414141"/><stop offset=".31" stop-color="#E8E5DE"/><stop offset=".59" stop-color="#655B59"/><stop offset="1" stop-color="#D3CCC4"/></linearGradient><linearGradient id="f" x1="11.09" y1="22.92" x2="30.88" y2="33.69" gradientUnits="userSpaceOnUse"><stop offset=".31" stop-color="#E8E5DE"/><stop offset=".59" stop-color="#655B59"/><stop offset="1" stop-color="#D3CCC4"/></linearGradient></defs></svg>