<!-- by TradingView --><svg width="56" height="56" viewBox="0 0 56 56" xmlns="http://www.w3.org/2000/svg"><path fill="#F0F3FA" d="M0 0h56v56H0z"/><path d="M18 28a3.5 3.5 0 1 1-7 0 3.5 3.5 0 0 1 7 0ZM45 28a3.5 3.5 0 1 1-7 0 3.5 3.5 0 0 1 7 0Z" fill="#268BCB"/><path d="M31.47 17.07c-.34-.34-.37-.87-.2-1.32a3.5 3.5 0 1 0-6.54 0c.17.45.14.98-.2 1.32l-.83.83c-.31.31-.8.36-1.22.24a3.5 3.5 0 1 0 .32 6.61c.45-.18 1-.15 1.34.2l6.92 6.9c.34.35.37.9.19 1.35a3.5 3.5 0 0 0 .13 2.89c.24.47.25 1.08-.13 1.46l-.54.54c-.35.35-.9.37-1.36.18a3.49 3.49 0 0 0-2.7 0c-.46.2-1.01.17-1.36-.18l-.54-.54c-.38-.38-.37-.99-.13-1.46a3.5 3.5 0 1 0-2.14 1.77c.43-.12.9-.07 1.22.24l.83.83c.34.34.37.87.2 1.32A3.5 3.5 0 0 0 28 45a3.5 3.5 0 0 0 3.27-4.75c-.17-.45-.14-.98.2-1.32l.83-.83c.31-.31.8-.36 1.22-.24a3.5 3.5 0 1 0-.32-6.61c-.45.18-1 .15-1.34-.2l-6.92-6.9c-.34-.35-.37-.9-.19-1.35a3.5 3.5 0 0 0-.13-2.89c-.24-.47-.25-1.08.13-1.46l.54-.54c.35-.35.9-.37 1.36-.18a3.49 3.49 0 0 0 2.7 0c.46-.2 1.01-.17 1.36.18l.54.54c.38.38.37.99.13 1.46a3.5 3.5 0 1 0 2.14-1.77c-.43.12-.9.07-1.22-.24l-.83-.83Z" fill="#F04E25"/></svg>