<!-- by TradingView --><svg width="56" height="56" viewBox="0 0 56 56" xmlns="http://www.w3.org/2000/svg"><path fill="#F0F3FA" d="M0 0h56v56H0z"/><path d="M43 22.44v3.16h1.53c.4 0 .67-.07.8-.2.18-.19.28-.5.3-.96h.2v2.78h-.2c-.05-.39-.1-.64-.14-.75a.7.7 0 0 0-.3-.32 1.38 1.38 0 0 0-.66-.12H43v2.64c0 .35 0 .57.03.65.03.07.08.13.15.18.07.04.2.06.4.06h1.18c.4 0 .68-.03.86-.1.18-.05.35-.18.52-.36.21-.25.43-.61.65-1.1H47l-.6 2H41v-.22h.25c.16 0 .32-.04.47-.13a.47.47 0 0 0 .22-.29c.04-.12.06-.38.06-.77v-5.2c0-.5-.04-.82-.13-.94-.13-.15-.33-.23-.62-.23H41V22h5.4l.07 1.75h-.2a2.97 2.97 0 0 0-.24-.86.84.84 0 0 0-.39-.36 2.06 2.06 0 0 0-.73-.1H43ZM37.26 27.38h-3.28l-.58 1.24c-.14.3-.21.53-.21.68 0 .12.06.22.18.31.12.1.39.15.8.18V30H31.5v-.21c.35-.06.58-.14.69-.23.21-.18.45-.56.7-1.12L35.87 22h.22l2.95 6.5a3 3 0 0 0 .65 1.03c.2.15.46.24.81.26V30h-3.34v-.21c.33-.02.56-.07.68-.16s.18-.2.18-.32c0-.17-.08-.44-.25-.8l-.51-1.13Zm-.18-.38-1.44-3.2-1.47 3.2h2.91ZM31 30h-1.88l-2.38-3.74-.43.01h-.15l-.16-.01v2.32c0 .5.05.82.15.94.13.18.33.26.59.26h.27V30H24v-.22h.26c.3 0 .51-.1.64-.33.08-.12.1-.41.1-.87v-5.16c0-.5-.04-.82-.13-.94-.14-.18-.34-.26-.6-.26H24V22h2.56c.75 0 1.3.06 1.65.19.36.12.66.35.9.68.26.33.38.73.38 1.19 0 .5-.14.92-.43 1.28a2.3 2.3 0 0 1-1.3.77l1.45 2.3c.33.52.62.87.86 1.04.23.17.55.28.93.33V30Zm-5-4.11H26.3c.67 0 1.18-.16 1.52-.5.34-.32.51-.74.51-1.25 0-.5-.14-.9-.41-1.22a1.37 1.37 0 0 0-1.1-.47c-.2 0-.46.04-.8.11v3.33ZM23 29.78V30h-3v-.22h.25c.29 0 .5-.1.63-.29.08-.12.12-.43.12-.9v-5.17c0-.4-.02-.68-.07-.8a.5.5 0 0 0-.2-.26.89.89 0 0 0-.48-.14H20V22h3v.22h-.25c-.29 0-.5.1-.63.29-.08.12-.12.43-.12.9v5.17c0 .4.02.68.06.8.03.1.1.19.22.26.15.1.3.14.47.14H23ZM13.61 30l-3.11-6.73v5.34c0 .64.19 1.17.93 1.17h.28V30H9v-.22h.28c.73 0 .72-.55.72-1.17V23.4c0-.8-.18-1.17-1-1.17V22h2.2l2.82 6.26L16.9 22H19v.22h-.17c-.74 0-.83.55-.83 1.17v5.22c0 .64-.01 1.17.73 1.17H19V30h-3.3v-.22h.27c.74 0 1.03-.55 1.03-1.17v-5.34L13.8 30h-.19Z" fill="#1855A5"/><path d="M52 35H4c3.91-1 14.3-3 24.51-3S48.43 34 52 35Z" fill="#009E58"/></svg>