<!-- by TradingView --><svg width="56" height="56" fill="none" xmlns="http://www.w3.org/2000/svg"><path fill="#F0F3FA" d="M0 0h56v56H0z"/><path d="M6 34V22h3v4.58L12.703 22H16l-4.602 5.583L15.596 34h-3.122L9 28.668V34H6ZM40.548 27.82c-.506-.477-1.288-.797-2.326-.944l-1.397-.212c-.431-.055-.752-.186-.969-.389-.188-.181-.279-.42-.279-.71 0-.37.125-.662.389-.892.278-.264.694-.39 1.236-.39 1.02 0 1.766.24 2.275.74l.117.117 1.683-1.637-.125-.116C40.186 22.47 38.876 22 37.264 22c-1.288 0-2.332.34-3.099 1.012-.754.656-1.136 1.544-1.136 2.635 0 1.017.294 1.816.885 2.379.54.511 1.33.844 2.354.994l1.402.21c.443.058.778.18.951.34.215.209.315.473.315.837 0 .855-.626 1.27-1.916 1.27-1.164 0-2.068-.31-2.69-.917l-.12-.117-1.71 1.682.116.113C33.657 33.478 35.134 34 37.003 34c1.292 0 2.335-.302 3.183-.934.872-.655 1.314-1.564 1.314-2.71 0-1.109-.324-1.963-.952-2.536Z" fill="#144E8C"/><path d="M17.953 29.188c0-3.462 2.665-6.188 5.95-6.188 3.29 0 5.95 2.726 5.95 6.188 0 .213-.01.43-.03.64l2.042 3.12a9.522 9.522 0 0 0 .765-3.76c0-5.077-3.905-9.188-8.728-9.188-4.817 0-8.726 4.111-8.726 9.188 0 1.336.276 2.609.765 3.753l2.042-3.12c-.02-.21-.03-.42-.03-.634Z" fill="#F15A22"/><path d="m27.265 27.321-1.945 2.46 1.145 2.625L21.39 26l-5.144 8H31.56l-4.295-6.679Z" fill="#14B1E7"/><path d="M40.853 22 45 28.445V34h3.001v-5.598L52 22h-3.122l-2.449 3.926L43.973 22h-3.12Z" fill="#144E8C"/></svg>