<!-- by TradingView --><svg width="56" height="56" viewBox="0 0 56 56" xmlns="http://www.w3.org/2000/svg"><path fill="#F0F3FA" d="M0 0h56v56H0z"/><path d="M12.14 21H24l-4.13 14H8l4.14-14Zm3 11h3.32l.06-.22a.9.9 0 0 1-.63-.29 6.07 6.07 0 0 1-.68-1.72l-.9-2.95 1.2-1.14.53-.5c.25-.21.49-.39.72-.54.24-.15.45-.26.64-.32.14-.05.32-.08.54-.1L20 24h-2.88l-.07.22c.2.03.34.08.42.17.08.09.13.19.13.3 0 .12-.03.22-.1.32-.04.07-.26.3-.64.67l-2 1.91.52-1.9c.13-.48.23-.78.3-.91.1-.2.24-.35.41-.45.13-.07.31-.11.55-.11l.06-.22h-3.6l-.06.22c.33.01.56.07.67.16.12.1.18.22.18.35 0 .15-.07.49-.22 1.02l-1.28 4.66c-.12.44-.23.74-.31.9a.82.82 0 0 1-.35.35c-.15.07-.37.11-.67.12L11 32h3.72l.06-.22c-.32 0-.55-.05-.67-.15a.5.5 0 0 1-.19-.4c0-.15.05-.38.14-.71l.8-2.92.82 2.72c.11.39.17.67.17.85a.6.6 0 0 1-.16.42c-.1.1-.26.17-.48.2l-.06.21Z" fill="#0077BF"/><path d="m20 35 4.14-14H36l-4.14 14H20Zm10.36-8.4L31 24h-.25c-.12.14-.22.23-.3.28a.63.63 0 0 1-.3.07c-.12 0-.34-.04-.66-.13A5.15 5.15 0 0 0 28.2 24c-.72 0-1.3.2-1.76.62-.44.41-.67.9-.67 1.47 0 .33.07.64.21.93.2.39.54.83 1.04 1.33.5.5.83.87.97 1.13.14.26.21.53.21.82 0 .33-.13.62-.38.86-.25.25-.56.37-.93.37-.38 0-.71-.1-1-.3-.3-.2-.52-.48-.68-.84-.16-.36-.26-.8-.31-1.3h-.22L24 32h.22c.15-.11.28-.19.38-.23a.9.9 0 0 1 .34-.06c.16 0 .49.05.98.14.5.1.9.15 1.22.15.53 0 1-.1 1.42-.28a2.08 2.08 0 0 0 1.28-1.94c0-.37-.08-.7-.24-1.02a4.37 4.37 0 0 0-.91-1.12 6.7 6.7 0 0 1-1.09-1.2 1.68 1.68 0 0 1-.22-.83c0-.28.1-.54.32-.76.23-.22.48-.34.78-.34.3 0 .58.1.84.3.27.18.48.46.64.8.1.25.17.58.22.99h.18Z" fill="#EF4036"/><path d="m32.01 35 4.08-14H48l-4.07 14h-11.9Zm8.26-11h-3.12l-.06.22c.39.01.63.07.75.16.11.09.17.2.17.34 0 .17-.07.5-.21 1l-1.41 4.92c-.12.4-.22.66-.3.78a.73.73 0 0 1-.33.27c-.14.06-.37.1-.68.1L35 32h3.29c1.23 0 2.07-.09 2.54-.27.46-.19.83-.48 1.1-.87.29-.4.43-.8.43-1.2 0-.43-.14-.81-.43-1.14-.28-.33-.79-.6-1.52-.8.7-.16 1.23-.34 1.56-.53.35-.2.6-.43.77-.73.17-.3.26-.58.26-.87 0-.34-.1-.65-.33-.92a1.57 1.57 0 0 0-.9-.56 6.9 6.9 0 0 0-1.5-.11Zm-.08 3.28c-.3.16-.72.25-1.25.25l.89-3.1.32-.01c.32 0 .57.08.76.28.2.19.29.44.29.75 0 .32-.1.67-.28 1.04-.18.37-.43.63-.73.79Zm-2.4 4.25 1-3.55c.5 0 .85.04 1.05.12a1 1 0 0 1 .5.43c.13.2.2.44.2.7 0 .57-.17 1.1-.5 1.58-.34.5-.95.74-1.81.74-.1 0-.25 0-.44-.02Z" fill="#77BD4E"/></svg>