<!-- by TradingView --><svg width="56" height="56" viewBox="0 0 56 56" xmlns="http://www.w3.org/2000/svg"><path fill="#F0F3FA" d="M0 0h56v56H0z"/><path d="M21 23v-3c-5.67 1.33-17 5.2-17 10s18.67 8 28 9v-.5C24 37.17 8 33.6 8 30c0-3.6 8.67-6.17 13-7Z" fill="#0C4AC4"/><path d="M35 33v3c5.67-1.33 17-5.2 17-10s-18.67-8-28-9v.5c8 1.33 24 4.9 24 8.5 0 3.6-8.67 6.17-13 7Z" fill="#E40403"/><path d="M28.36 22.01 28 22a5 5 0 0 0-4.2 2.3L28.36 22Zm-5.2 3.72a5 5 0 0 0-.1.45l7.43-3.52a5 5 0 0 0-.6-.3l-6.73 3.37Zm8.24-2.4-8.39 3.98c.04.67.21 1.3.49 1.87l8.85-4.64a5.02 5.02 0 0 0-.95-1.2Zm1.36 2.12-8.74 4.58a5 5 0 0 0 8.74-4.58Z" fill="#0C4AC4"/></svg>