<!-- by TradingView --><svg width="56" height="56" viewBox="0 0 56 56" xmlns="http://www.w3.org/2000/svg"><path fill="#F0F3FA" d="M0 0h56v56H0z"/><path fill-rule="evenodd" d="M39.94 27.83c0 6.53-5.34 11.83-11.93 11.83-2.58 0-4.98-.82-6.94-2.2-4.12 2.16-11.78 5.69-12.93 4.17-1.18-1.56 5.34-6.8 8.85-9.3-.58-1.38-.9-2.9-.9-4.5C16.09 21.3 21.43 16 28.01 16c3.95 0 7.45 1.9 9.62 4.83 3.7-1.98 11.07-5.3 12.25-3.35 1.14 1.9-5.87 7.27-9.95 10.02v.33Zm-.16-1.92c2.4-1.32 5.85-3.72 5.13-5.47-.8-1.95-4.89-.2-6.9.95a11.7 11.7 0 0 1 1.77 4.52ZM17 32.32l8.53-8.93-2.98-1.47h4.97l4.47-3.46v2.47l4.97.5-4.97 2.95v4.44L28 25.86l-10.5 7.58a11.9 11.9 0 0 0 2.66 3.3l-.1-.04c-2.16 1.15-6.66 3.16-7.46 1.97-.8-1.18 2.98-4.1 4.97-5.42l-.5-.98-.08.05Z" fill="url(#a)"/><defs><linearGradient id="a" x1="46.5" y1="18" x2="10.5" y2="40" gradientUnits="userSpaceOnUse"><stop stop-color="#F6E7AD"/><stop offset=".5" stop-color="#F4D98B"/><stop offset="1" stop-color="#C49441"/></linearGradient></defs></svg>