<!-- by TradingView --><svg width="56" height="56" viewBox="0 0 56 56" xmlns="http://www.w3.org/2000/svg"><path fill="#F0F3FA" d="M0 0h56v56H0z"/><path d="M43 21c2 0 4.17 1 5 1.5V26c-.83-.67-3-2-5-2-2.5 0-3 2.5-3 4s.5 4 3 4c2 0 4.17-1.33 5-2v3.5c-1 1-4 1.5-5 1.5s-7-1-7-7c0-6.02 4.5-7 7-7ZM15 21c2 0 4.17 1 5 1.5V26c-.83-.67-3-2-5-2-2.5 0-3 2.5-3 4s.5 4 3 4c2 0 4.17-1.33 5-2v3.5c-1 1-4 1.5-5 1.5s-7-1-7-7c0-6.02 4.5-7 7-7Z" fill="#164883"/><path d="M22 21v14h3v-9l6 9h3V21h-3v7.5L26 21h-4Z" fill="#B97800"/></svg>