<!-- by TradingView --><svg width="56" height="56" viewBox="0 0 56 56" xmlns="http://www.w3.org/2000/svg"><path fill="#D2B744" d="M0 0h56v56H0z"/><circle cx="28" cy="28" r="17" fill="#F4FFFF"/><path fill-rule="evenodd" d="M28 43a15 15 0 1 0 0-30 15 15 0 0 0 0 30Zm0 1a16 16 0 1 0 0-32 16 16 0 0 0 0 32Z" fill="#D1291C"/><path d="M23 17h-4v9h8v2.5h-8V38h4v-6c.8 5.2 7.67 6.83 11 7-5.2-1.2-7.5-7.17-8-10h1.5v-3.5H26c0-4.8 5.33-8.33 8-9.5-6.4-.4-10 3.83-11 6v-5Z" fill="#D1291C"/><path d="M34.53 34.1a8.98 8.98 0 0 0-.26-14.4l.59-.8a9.99 9.99 0 0 1 .28 16l-.61-.8Zm-1.85-2.36a5.99 5.99 0 0 0-.17-9.6l-.58.8a5 5 0 0 1 .14 8l.61.8Zm-1.84-2.37a3 3 0 0 0-.08-4.8l-.59.8a2 2 0 0 1 .06 3.2l.61.8Z" fill="#D1291C"/></svg>