<!-- by TradingView --><svg width="56" height="56" viewBox="0 0 56 56" xmlns="http://www.w3.org/2000/svg"><path fill="#F0F3FA" d="M0 0h56v56H0z"/><path d="m33 14.5 1.5 1.5C21 16 8.01 19 8.51 28s9 13 20.5 13c9.2 0 16.15-4.19 18.99-6a31 31 0 0 1-19 7c-2.5 0-21.49-1-20.99-14s20.5-14 22-14c1.2 0 2.5.33 3 .5Z" fill="#005BAA"/><path d="M24 32H14l5-7 5 7Z" fill="#23A538"/><path d="M24.5 17.5 20 24l6 8h9L24.5 17.5Z" fill="#E40613"/><path d="m36 32-5.5-8 5-7L46 32H36Z" fill="#E8AC00"/><path d="M46 35c0 1.52-1.77 2-3 2s-3-.48-3-2 1.76-2 3-2c1.23 0 3 .48 3 2Zm-1.5 0c0-.9-.7-1.27-1.5-1.27s-1.5.37-1.5 1.27.7 1.27 1.5 1.27 1.5-.37 1.5-1.27ZM39 34.42h-1.5c-.1-.53-.42-.7-.88-.7-.78 0-1.12.46-1.12 1.28 0 .82.33 1.27 1.1 1.27.47 0 .88-.14 1-.65H39c-.18 1.05-1.52 1.38-2.41 1.38-1.22 0-2.59-.6-2.59-2s1.37-2 2.59-2c.94 0 2.23.33 2.41 1.42ZM33.5 33v4H32v-4h1.5ZM24 33h1.86l1.6 2.69h.08l1.6-2.69H31v4h-1.5v-2.6h-.05L28 37h-1l-1.45-2.61h-.05V37H24v-4ZM23 33v4h-1.5v-4H23ZM16.46 33l1.51 3.04h.06l1.5-3.04H21l-2.15 4h-1.7L15 33h1.46Z" fill="#005BAA"/></svg>