<!-- by TradingView --><svg width="56" height="56" viewBox="0 0 56 56" xmlns="http://www.w3.org/2000/svg"><path fill="#F0F3FA" d="M0 0h56v56H0z"/><path d="M22 31c-.17-.17-.3-.7.5-1.5.17.17.3.7-.5 1.5Z" fill="#039145"/><path d="M26.5 25.5h1v-1h-1l.5.5-.5.5ZM29.5 25.5h-1v-1h1l-.5.5.5.5ZM27.5 26.5v-1h1v1L28 26l-.5.5ZM27.5 23.5v1h1v-1l-.5.5-.5-.5Z" fill="#2C215E"/><path fill-rule="evenodd" d="M28 44a16 16 0 1 0 0-32 16 16 0 0 0 0 32Zm0 1a17 17 0 1 0 0-34 17 17 0 0 0 0 34Z" fill="#29156C"/><path d="M35.53 43.25a7.1 7.1 0 0 0-1.04-1.27l-.35.36a7.67 7.67 0 0 0-1.52-1.15l.25-.43c-.57-.33-1.2-.6-1.86-.81l-.15.48a9.48 9.48 0 0 0-1.9-.38l.06-.5a10.4 10.4 0 0 0-2.04 0l.05.5c-.65.06-1.29.2-1.89.38l-.15-.48c-.66.2-1.28.48-1.86.81l.25.43c-.56.33-1.08.71-1.52 1.15l-.35-.36c-.4.39-.75.81-1.04 1.27.3.15.61.29.92.42 1.25-1.86 3.7-3.17 6.61-3.17s5.36 1.3 6.6 3.17c.32-.13.63-.27.93-.42Zm-2.37.95C32.11 42.88 30.2 42 28 42s-4.11.88-5.16 2.2l.52.16c.2-.23.43-.44.7-.64A6.6 6.6 0 0 1 28 42.5a6.6 6.6 0 0 1 3.94 1.22c.27.2.5.41.7.64l.52-.16Zm-1.05.3c-.9-.9-2.4-1.5-4.1-1.5-1.7 0-3.21.6-4.11 1.5l.59.14.26-.2A5.72 5.72 0 0 1 28 43.5a5.72 5.72 0 0 1 3.51 1.14l.6-.14Z" fill="#29156C"/><path fill-rule="evenodd" d="M28 38.5a10.5 10.5 0 1 0 0-21 10.5 10.5 0 0 0 0 21Zm0 .5a11 11 0 1 0 0-22 11 11 0 0 0 0 22Z" fill="#29156C"/><path fill-rule="evenodd" d="M38 28v.42l-5.5-3.92-2 1.5-.5-3v-2h-4v1.5l-1 3-1.5-1.5-5.5 3.93A10 10 0 0 1 38 28Zm-.8 3h.34a10 10 0 0 1-2.5 4.1c-.09-.44-.37-.88-1.04-1.1-.53-.18-1.42-.29-2.34-.4-1.7-.22-3.49-.45-3.16-1.1.5-1 2-1.5 3-1.5h3l-.24.06c.2.78.23 1.34.2 1.71a1.73 1.73 0 0 1-.12.52c0 .02-.02.03-.02.03l.27.41c.44-.17 1.1-.54 1.65-1.08.44-.43.83-.98.96-1.65Zm-.51 0h-.85c.05.62-.08 1.15-.28 1.58l.33-.28c.37-.37.67-.8.8-1.3Zm-1.36 0h-.57c.16.69.22 1.22.21 1.63.25-.4.43-.95.36-1.63ZM22 36l3.21 1.6a10.02 10.02 0 0 1-6.75-6.6H28c-1.17.33-3.4 1.2-3 2 .24.47.58.61.89.73.33.13.61.24.61.77 0 .8-3 1.33-4.5 1.5Zm1.64-2.8a3.01 3.01 0 0 0-1.39 2.3h-.5c0-.48-.07-1.23-.29-1.9-.22-.68-.56-1.2-1.04-1.36l.16-.48c.55.19.92.66 1.17 1.2V32h.5v1.94c.25-.4.6-.81 1.11-1.15l.28.42Z" fill="#2B176E"/><path d="M20.5 32c-.33-.33-1-1.2-1-2 .33.17 1 .8 1 2Z" fill="#039145"/><path d="M20.5 32a2.4 2.4 0 0 1 0-2c.17.5.4 1.6 0 2ZM23.5 30.5c-1.2 0-1.5 1-1.5 1.5.8-1.2 2.33-.83 3-.5 0-.33-.3-1-1.5-1Z" fill="#039145"/><path d="M22.06 30.25c-.8-.9-1.74-.45-2.12-.12 1.43-.2 2.18 1.19 2.37 1.9.25-.21.55-.88-.25-1.78ZM25 32.64c-1.09-.51-1.79.26-2 .72 1.23-.75 2.47.24 2.93.82.14-.3.15-1.03-.93-1.54Z" fill="#039145"/><path d="M24.3 31.42c-1.17.31-1.2 1.36-1.07 1.84.46-1.37 2.04-1.4 2.77-1.26-.09-.32-.55-.89-1.7-.58Z" fill="#039145"/><path d="M22.5 31.5c-1.09-.5-1.78.27-2 .72 1.24-.74 2.47.24 2.93.82.15-.3.16-1.03-.93-1.54Z" fill="#039145"/><path d="m31 26.5.5 1.5.5 2h.5v-1c0-.17.2-.5 1-.5s1 .33 1 .5l.5-1v1c.4-.4.83-.5 1-.5l1.5.5v1h.5v-1l-5.5-4-1.5 1.5Z" fill="#019342"/><path d="M23.5 29.5H23l-.5-1-2-.5-.5 1.5c-.4-.8-.83-.67-1-.5v1c-.4-.8-.83-1-1-1v1h-.5v-1l6-4 1 1.5L24 28h-.5v1.5Z" fill="#039145"/><path d="M25 30v1h1v-.5h1.5V30H25ZM28.5 30v.5h1v.5h1v-1h-2Z" fill="#2B176E"/><path fill-rule="evenodd" d="m26.5 22.5-2 7h7l-2-7v-1h-3v1Zm.5-.5v.57L25.16 29h5.72L29 22.55V22h-2Z" fill="#2C215E"/><path d="M31 28h-6l-.5 1.5H31V28Z" fill="#2C215E"/><path d="M34.88 39.03a13 13 0 1 0-14.05-.19l-.9 1.8A14.99 14.99 0 0 1 28 13a15 15 0 0 1 8.5 27.36l-1.62-1.33Z" fill="#E22115" fill-opacity=".6"/><path d="M34.5 31.5c-.42-.42-.49-.86-.42-1.22-.33.44-.79.93-1.08 1.22-.4-1.6.83-2 1.5-2-.4 0-1.17-.33-1.5-.5 1.2 0 1.5.33 1.5.5.8.4.33 1.5 0 2ZM35 29.5c.17-.17.7-.5 1.5-.5-.03.25-.38.69-1.5.5ZM37 31c0-.5.5-1-.5-1.5 0 .33.1 1.1.5 1.5Z" fill="#019342"/><path d="M36.5 31c0-.33-.3-1-1.5-1 0 .33.3 1 1.5 1Z" fill="#019342"/></svg>