<!-- by TradingView --><svg width="56" height="56" fill="none" xmlns="http://www.w3.org/2000/svg"><path fill="#F0F3FA" d="M0 0h56v56H0z"/><path fill-rule="evenodd" clip-rule="evenodd" d="M16.034 36 27.982 9 39.93 36h-7.945l-4.003-4.98-4.14 4.98h-7.808ZM27 15v14.145L19.157 33 27 15Zm-3.773 19H20.14l4.979-2-1.892 2ZM29 29.145V15l8 18-8-3.855ZM32.624 34h3.087l-4.978-2 1.891 2ZM15 37v2h8.276l4.475 5 4.582-5H41v-2h-8.971l-4.278 4.54L23.847 37H15Zm0 4v-1h8.053l4.698 5 4.665-5H41v1h-8.383l-4.866 5-4.945-5H15Z" fill="#E02A1D"/></svg>