<!-- by TradingView --><svg width="56" height="56" viewBox="0 0 56 56" xmlns="http://www.w3.org/2000/svg"><path fill="#A2D8F1" d="M0 0h56v56H0z"/><ellipse cx="28" cy="28" rx="20" ry="13" fill="#2A3B97"/><path d="m10 33 10-20h10l-4.5 11H51l-3 9H10Z" fill="#fff"/><path d="M26 15h-4l-8 16h7.5l1-3h-3L26 15ZM43.88 31h-1.45l2.81-5h1.8l.96 5h-1.45l-.62-3.74h-.04l-2 3.74Zm.18-1.97h3.03l-.17.97h-3.04l.18-.97ZM36.5 26h1.68l.85 3.1h.06l2-3.1h1.67l-.93 5h-1.32l.58-3.07h-.05l-1.9 3.04h-.84l-.78-3.06h-.05L36.9 31h-1.32l.93-5ZM30.86 31H29.4l2.81-5h1.8l.96 5h-1.46l-.6-3.74h-.05L30.86 31Zm.17-1.97h3.04l-.18.97h-3.03l.17-.97ZM25.2 31l.93-5h1.35l-.74 4.02h2.32l-.18.98H25.2ZM25.28 26l-.93 5H23l.93-5h1.35Z" fill="#ED3338"/></svg>