<!-- by TradingView --><svg width="56" height="56" viewBox="0 0 56 56" xmlns="http://www.w3.org/2000/svg"><path fill="#F0F3FA" d="M0 0h56v56H0z"/><path d="M7 24H6v8h7v-1H7v-7Z" fill="#F99D32"/><path d="M9.04 30H8l1.9-5h1.2l1.9 5h-1.04l-1.44-3.97h-.04L9.04 30Zm.04-2h2.84v.77H9.08V28ZM16 32h-1v-7h4v1h-3v2h3v1h-3v3Z" fill="#F99D32"/><path fill-rule="evenodd" d="M24.5 31a2.5 2.5 0 1 0 0-5 2.5 2.5 0 0 0 0 5Zm0 1a3.5 3.5 0 1 0 0-7 3.5 3.5 0 0 0 0 7ZM33.5 31a2.5 2.5 0 1 0 0-5 2.5 2.5 0 0 0 0 5Zm0 1a3.5 3.5 0 1 0 0-7 3.5 3.5 0 0 0 0 7Z" fill="#F99D32"/><path d="M43 25.34a3.5 3.5 0 1 0 0 6.33V30.5a2.5 2.5 0 1 1 0-4v-1.16ZM47.5 32a3.5 3.5 0 1 0 0-7 3.5 3.5 0 0 0 0 7Zm0-1.5c-1-.67-2.8-2.2-2-3 .8-.8 1.67 0 2 .5.33-.5 1.2-1.3 2-.5s-1 2.33-2 3Z" fill="#F99D32"/></svg>