<!-- by TradingView --><svg width="56" height="56" viewBox="0 0 56 56" xmlns="http://www.w3.org/2000/svg"><path fill="#F0F3FA" d="M0 0h56v56H0z"/><path fill-rule="evenodd" d="M46 28c0 8.28-8.06 15-18 15s-18-6.72-18-15c0-8.28 8.06-15 18-15s18 6.72 18 15ZM28 42c7.73 0 15-6.27 15-14s-7.27-14-15-14-15 6.27-15 14 7.27 14 15 14Zm0-.5c7.18 0 13-5.77 13-13.5s-5.82-13.5-13-13.5S15 20.27 15 28s5.82 13.5 13 13.5ZM35 21a2 2 0 1 1-4 0 2 2 0 0 1 4 0Zm-11 2v4l1-1v-4h-4l-1 1v10h7l1-1h3v1h5l1-1-8-7.5-6 5V31l1.5-.5V29l3.5-3 6.5 6H32v-2h-3v-1l-1 1v2h-7v-9h3Z" fill="#33359C"/></svg>