<!-- by TradingView --><svg width="56" height="56" viewBox="0 0 56 56" xmlns="http://www.w3.org/2000/svg"><path fill="#F0F3FA" d="M0 0h56v56H0z"/><path d="M20.04 17a14.32 14.32 0 0 0-4.1 3.95l.83.59c1-1.46 2.28-2.7 3.78-3.66l-.5-.88Zm15.76 1.38.51-.88a14.3 14.3 0 0 1 3.44 3.55l-1.04.29a13.28 13.28 0 0 0-2.91-2.96Zm4.08 16.04A13.33 13.33 0 0 1 27.8 42c-5.17 0-9.65-2.9-11.85-7.13l-.96.37A14.36 14.36 0 0 0 27.8 43c5.93 0 11.01-3.53 13.2-8.58h-1.12Z" fill="#026D34"/><path fill-rule="evenodd" d="M29.83 25.77A6.5 6.5 0 0 0 28.11 13a6.5 6.5 0 0 0-1.72 12.77l.72-1.77h.5v10.68c-.36-.95-.83-1.92-1.41-2.83-1.48-2.26-3.76-4.15-7.09-4.33.56-.35 1.48-.7 2.75-.97-.82-2.62-3.79-4.55-7.32-4.55C10.38 22 7 24.69 7 28s3.38 6 7.54 6c3.09 0 5.74-1.48 6.9-3.6a3.05 3.05 0 0 0-1.14-1.72c2.27.5 3.9 1.95 5.05 3.72 1.34 2.05 2 4.5 2.22 6.25l-.87.29-2.3-1.83-.62.78 2.72 2.17 1.61-.53 1.61.53 2.73-2.17-.63-.78-2.3 1.83-.86-.29c.23-1.58.91-3.83 2.3-5.81 1.12-1.6 2.35-3.02 4.33-3.8-.4.44-.62.93-.74 1.37 1.17 2.11 3.82 3.59 6.91 3.59 4.16 0 7.54-2.69 7.54-6s-3.38-6-7.54-6c-3.53 0-6.5 1.93-7.32 4.55 1.34.28 2.28.65 2.83 1.02-3.44.54-5.28 2.48-6.83 4.7-.64.9-1.14 1.87-1.53 2.8V24h.5l.72 1.77ZM28.61 23a.5.5 0 0 1-.5.5.5.5 0 0 1-.5-.5c0-.28.22-.5.5-.5s.5.22.5.5Zm-12.06 6c.83 0 1.5-.45 1.5-1s-.67-1-1.5-1-1.5.45-1.5 1 .67 1 1.5 1Zm21.4-1c0 .55.67 1 1.5 1s1.5-.45 1.5-1-.67-1-1.5-1-1.5.45-1.5 1Z" fill="#026D34"/></svg>