<!-- by TradingView --><svg width="56" height="56" viewBox="0 0 56 56" xmlns="http://www.w3.org/2000/svg"><path fill="#F0F3FA" d="M0 0h56v56H0z"/><path fill-rule="evenodd" d="M28 38c8.28 0 15-6.5 15-14.5S36.28 9 28 9c-8.28 0-15 6.5-15 14.5S19.72 38 28 38Zm-2-27c-6.23.94-11 6.18-11 12.5S19.77 35.06 26 36V22h-6v3h3v6.93a9.68 9.68 0 0 1-5-8.43 9.8 9.8 0 0 1 8-9.54V11Zm5 1.8v-1.61c5.73 1.32 10 6.33 10 12.31s-4.27 11-10 12.31V12.8Zm7 10.7c0 3.18-1.57 6-4 7.78V15.72c2.43 1.77 4 4.6 4 7.78Z" fill="#56C7F3"/><path fill-rule="evenodd" d="M28 37.5c8.02 0 14.5-6.28 14.5-14s-6.48-14-14.5-14-14.5 6.28-14.5 14 6.48 14 14.5 14Zm0 .5c8.28 0 15-6.5 15-14.5S36.28 9 28 9c-8.28 0-15 6.5-15 14.5S19.72 38 28 38Z" fill="#393B8F"/><path fill-rule="evenodd" d="M15.5 35h3.7l.15.15c.24.23.66.48 1.25.74.57.26 1.26.5 2 .7 1.44.43 3 .75 3.98.92l.42.07V44h2v-6.42l.42-.07a36.5 36.5 0 0 0 3.99-.91c.73-.22 1.42-.45 2-.7a4.27 4.27 0 0 0 1.24-.75l.14-.15h3.71v1H42v1h2v8H12v-8h2v-1h1.5v-1Zm0 2H15v6.52l.5.03V37ZM26 43.99v-5.57c-1-.18-2.38-.48-3.7-.87-.74-.22-1.47-.47-2.1-.74a5.8 5.8 0 0 1-1.4-.81h-2.3v7.06c2.73.32 7.33.85 9.5.93ZM14 44v-6h-1v6h1Zm26.5-7h.5v6.52l-.5.03V37ZM30 43.99v-5.57c1-.18 2.38-.48 3.7-.87.74-.22 1.47-.47 2.1-.74a5.8 5.8 0 0 0 1.4-.81h2.3v7.06c-2.73.32-7.33.85-9.5.93ZM42 44v-6h1v6h-1Z" fill="#393B8F"/><path d="M28.5 14c.32 0 .59.07.81.2.23.13.4.32.51.55.12.23.18.49.18.77 0 .3-.06.55-.18.78-.11.23-.29.41-.5.54-.23.14-.5.2-.82.2-.32 0-.59-.06-.81-.2-.23-.13-.4-.31-.51-.54a1.68 1.68 0 0 1-.18-.78c0-.28.06-.54.18-.77.11-.23.28-.42.5-.55.23-.13.5-.2.82-.2Zm0 .7c-.2 0-.38.03-.52.1a.73.73 0 0 0-.32.29.84.84 0 0 0-.11.43c0 .17.03.31.1.44.08.12.19.22.33.29.14.06.31.1.52.1.2 0 .38-.04.52-.1a.74.74 0 0 0 .32-.3.84.84 0 0 0 .11-.43.84.84 0 0 0-.1-.43.73.73 0 0 0-.33-.29c-.14-.07-.31-.1-.52-.1ZM28.06 17.48v.7a.57.57 0 0 0-.38.22.69.69 0 0 0-.1.22.9.9 0 0 0-.03.25c0 .17.03.32.1.44.08.13.2.23.33.3.15.06.32.1.52.1s.38-.04.52-.1a.73.73 0 0 0 .33-.3c.07-.12.1-.27.1-.43 0-.1 0-.18-.03-.26a.7.7 0 0 0-.1-.2.57.57 0 0 0-.36-.25v-.7c.14.03.27.07.4.14a1.4 1.4 0 0 1 .56.72c.05.17.08.35.08.56 0 .29-.06.55-.18.78-.11.23-.29.4-.5.54-.23.13-.5.2-.82.2-.32 0-.59-.07-.81-.2-.23-.14-.4-.32-.51-.55a1.84 1.84 0 0 1-.1-1.3c.04-.16.1-.3.2-.42a1.1 1.1 0 0 1 .78-.46ZM29.96 23.08h-2.92V20.9h.5v1.5h.7v-1.38h.51v1.39h.7v-1.51h.5v2.2ZM29.96 26.04h-2.92v-1.3c0-.24.03-.44.1-.6a.78.78 0 0 1 .26-.36.65.65 0 0 1 .39-.12.58.58 0 0 1 .5.28c.06.1.1.2.13.3h.02c0-.12.04-.23.1-.34a.7.7 0 0 1 .24-.27c.1-.07.23-.1.37-.1.16 0 .3.04.42.13.12.08.21.2.28.38.07.16.1.37.1.61v1.39Zm-.5-.69v-.56c0-.2-.04-.33-.1-.42a.32.32 0 0 0-.27-.13.36.36 0 0 0-.21.07.43.43 0 0 0-.15.18.7.7 0 0 0-.05.29v.57h.77Zm-1.2 0v-.5c0-.1-.01-.19-.04-.26a.41.41 0 0 0-.13-.17.31.31 0 0 0-.2-.07.3.3 0 0 0-.25.13c-.07.08-.1.2-.1.35v.52h.72ZM29.96 28.82v.74l-2.92-1.12v-.89l2.92-1.12v.74l-2.25.81v.03l2.25.81Zm-1.15.05v-1.74h.48v1.74h-.48ZM29.96 32h-2.92v-.69h2.41v-1.4h.5V32Z" fill="#393B8F"/></svg>