<!-- by TradingView --><svg width="56" height="56" viewBox="0 0 56 56" xmlns="http://www.w3.org/2000/svg"><path fill="#F0F3FA" d="M0 0h56v56H0z"/><path d="M43.88 26a16.16 16.16 0 0 1-1.49 9H42v-7H29v7h-1v-2h-4v-3h4v-2h-7v7h-1v-2h-3v-5h-3v7-7h-2c0-.68.04-1.34.12-2H20c-.5-.67-1.2-2.2 0-3-.17.83-.2 2.6 1 3h8c-1.67-.67-5.5-2-7.5-2 .33-.33 1.2-1 2-1 .38 0 .62.07.82.14.33.1.56.17 1.18-.14-.5-.17-1.5-.8-1.5-2-.5 0-1.5-.2-1.5-1s1.33-1.33 2-1.5c-.17.5-.4 1.6 0 2 .15.15.4.3.66.47.61.38 1.34.83 1.34 1.53 0 .5.63.63 1.25.75.63.13 1.25.25 1.25.75 0 1 2 2 2.5 2 .4 0 .83-.67 1-1l1.5 1h6l.5-.5 1 .5h2.38Zm-.3-1.67a16 16 0 0 0-31.1-.23L15 22l1.5 1.5c1-2 3-4 4.5-4.5 1.2-.4 2.83-2.5 3.5-3.5.33.67 1.2 2.2 2 3 .8.8 1.33 1.67 1.5 2 1.2 0 6.83 3.33 9.5 5 .5-.83 1.8-2.5 3-2.5.86 0 2.13.7 3.08 1.33ZM32 35h2v-5h-2v5Zm5 0h2v-5h-2v5Z" fill="#E19E11"/><path d="M42.4 35A16 16 0 0 1 12 28h2v7h28.4Z" fill="#69392D"/></svg>