<!-- by TradingView --><svg xmlns="http://www.w3.org/2000/svg" width="56" height="56" viewBox="0 0 56 56"><path fill="url(#atlt5f3v5)" d="M0 0h56v56H0z"/><path d="M19.48 31h-2.9c-.34 0-.58-.29-.58-.65v-7.73c0-1.45 1.1-2.62 2.51-2.62h8.47a7.59 7.59 0 0 1 7.48 7.67A4.29 4.29 0 0 0 38.73 32H45v-3h-5.22c-.35 0-.78-.2-.78-.57v-2.77c0-.36.43-.65.78-.65l7.87-.01c.7 0 1.35.6 1.35 1.32v7.03a2.65 2.65 0 0 1-2.64 2.62h-8.78a7.4 7.4 0 0 1-7.31-7.46c0-2.36-1.87-4.51-4.18-4.51H20v6.35c0 .36-.17.65-.52.65Z" fill="#DC8250"/><path d="M30.05 28.35c-.56 1.8-1.91 3.65-4.74 3.65H12.65a.65.65 0 0 1-.65-.66V20.67a.65.65 0 0 0-.63-.67H8.64c-.35 0-.64.3-.64.67v14.67c0 .37.29.66.64.66h18.24c1.35-.17 3.5-.83 5.16-2.29a7.75 7.75 0 0 1-1.99-5.36Zm4.6-1.25a7.96 7.96 0 0 0-2.12-4.89 8.09 8.09 0 0 1 5.73-2.18h10.1c.35 0 .64.3.64.65v2.81c0 .37-.29.51-.64.51h-9.41c-2.76 0-3.91 1.61-4.3 3.1Z" fill="#E82138"/><defs><linearGradient id="atlt5f3v5" x1="28" y1="0" x2="28" y2="56" gradientUnits="userSpaceOnUse"><stop stop-color="#F4E39E"/><stop offset=".82" stop-color="#C79033"/></linearGradient></defs></svg>