<!-- by TradingView --><svg width="56" height="56" viewBox="0 0 56 56" xmlns="http://www.w3.org/2000/svg"><path fill="#F0F3FA" d="M0 0h56v56H0z"/><path d="M35.47 13.85a3.3 3.3 0 0 0-4.08.95 31.65 31.65 0 0 0-2.54 3.49C30.28 20.49 33 24.98 33 27a5 5 0 0 1-4 4.9v1.02a5.2 5.2 0 0 0 3.1-1.71l.8.6a6.2 6.2 0 0 1-3.9 2.13v1.03a8.08 8.08 0 0 0 4.65-1.81l.7.7c-.68.69-2.57 1.87-5.35 2.11v1.98a10.48 10.48 0 0 0 6.12-3.26l.76.65A11.45 11.45 0 0 1 29 38.97v2c1.71-.18 3.3-.8 4.65-1.57 1.61-.9 2.85-2 3.48-2.7l.74.66c-.7.79-2.02 1.95-3.72 2.91A13.12 13.12 0 0 1 29 41.98V44a16.01 16.01 0 0 0 6.47-30.15Z" fill="#899064"/><path d="M31.25 12.33C28.82 15.89 23 22.67 23 27.01a5 5 0 0 0 4 4.9v1.02a5.2 5.2 0 0 1-3.1-1.71l-.8.6a6.2 6.2 0 0 0 3.9 2.13v1.03a8.08 8.08 0 0 1-4.65-1.81l-.7.7c.68.69 2.57 1.87 5.35 2.11v1.98a12.7 12.7 0 0 1-6.65-3.3l-.7.72c.62.62 1.76 1.52 3.2 2.28A11.9 11.9 0 0 0 27 38.97v2c-1.74-.18-3.4-.8-4.85-1.57a16.86 16.86 0 0 1-3.8-2.73l-.7.7c.78.8 2.22 1.95 4.03 2.91a14.4 14.4 0 0 0 5.32 1.7V44a16.01 16.01 0 1 1 4.25-31.67Z" fill="#BC9B60"/></svg>