<!-- by TradingView --><svg width="56" height="56" viewBox="0 0 56 56" xmlns="http://www.w3.org/2000/svg"><path fill="#F0F3FA" d="M0 0h56v56H0z"/><path fill-rule="evenodd" d="M28 44a16 16 0 1 0 0-32 16 16 0 0 0 0 32Zm0 1a17 17 0 1 0 0-34 17 17 0 0 0 0 34Z" fill="#339967"/><path d="M22.5 16.5c.4.8 2.5 2 3.5 2.5a6.2 6.2 0 0 1-3-1c-1.6 6.4 2.67 9.67 5 10.5-7.6-1.2-6.83-8.5-5.5-12Z" fill="#FD0100"/><path d="M22.5 32c3.2 0 5-2.33 5.5-3.5-5.2 4-9.5 1.33-11-.5a6.7 6.7 0 0 0 2-2 8.76 8.76 0 0 1-4 2c1.17 1.33 4.3 4 7.5 4Z" fill="#FD0100"/><path d="M34 32c-3.2 0-5.33-2.33-6-3.5 1.33-.33 4-1.6 4-4s-1-4-1.5-4.5c2 0 3.17-2.33 3.5-3.5.4 2 3.17 3.17 4.5 3.5-.4.8-1.5 1.33-2 1.5 1.2 1.6 3.17 2 4 2-.4 1.2-2.17 2.17-3 2.5.4 1.2 2.83 1.83 4 2-1.17 1.33-4.3 4-7.5 4Z" fill="#339967"/><path d="M17 21c.76.48 3.17.42 4.29.34a6.2 6.2 0 0 1-3.09.69 9 9 0 0 0 10.07 6.63C21.14 31.56 17.67 24.7 17 21Z" fill="#FD0100"/><path d="M31 24.73c0 1.8-1.34 3.27-3 3.27s-3-1.47-3-3.27c0-3.28 2.5-7.1 3-8.73.5 1.64 3 5.45 3 8.73Z" fill="url(#a)"/><path d="M38 31.5c1.2 0 2.17.33 2.5.5-4 0-8.6 5-14.5 5-2 0-7.83-2.67-10.5-4C19 33 22 36 26 36s10.5-4.5 12-4.5Z" fill="#0000F4"/><path d="M22 34c-1.6-.8-4-1-5-1 1.5 0 3 1 5 2 1.6.8 4.33.67 5.5.5C26 35.5 24 35 22 34Z" fill="#0000F4"/><path d="M23.5 33.5c-1.6-.8-4-1-5-1 1.5 0 3 1 5 2 1.6.8 4.33.67 5.5.5-1.5 0-3.5-.5-5.5-1.5Z" fill="#0000F4"/><path d="M25.5 33c-1.6-.8-4-1-5-1 1.5 0 3 1 5 2 1.6.8 4.33.67 5.5.5-1.5 0-3.5-.5-5.5-1.5Z" fill="#0000F4"/><defs><linearGradient id="a" x1="28" y1="16" x2="28" y2="28" gradientUnits="userSpaceOnUse"><stop stop-color="#5E87FC"/><stop offset=".61" stop-color="#ADEFFD"/><stop offset="1" stop-color="#5172FF"/></linearGradient></defs></svg>