<!-- by TradingView --><svg width="56" height="56" viewBox="0 0 56 56" xmlns="http://www.w3.org/2000/svg"><path fill="#F0F3FA" d="M0 0h56v56H0z"/><path fill-rule="evenodd" d="M38.9 37.22a16 16 0 1 0-22.93-.11c-2 .91-4.04 2.23-4.97 2.89l1.5 5c.83-.83 2.7-2.1 3.5-2.5.62-.3 1.43.15 2.55.77.69.4 1.5.85 2.45 1.23 1.23.5 2.33.14 3.67-.29 1.4-.44 3.04-.96 5.33-.71 1.98.22 3.28.44 4.33.62 1.34.22 2.27.38 3.67.38 2 0 5.83-2.33 7-3.5a13.13 13.13 0 0 0-6.1-3.78ZM36.29 28h-.78v-5h.8c.18 0 .35.05.5.14.14.09.27.22.37.4.1.18.19.4.24.66.06.26.09.56.09.9v.8c0 .34-.03.64-.09.9a2.2 2.2 0 0 1-.24.66c-.1.18-.23.31-.38.4a.95.95 0 0 1-.51.14Zm0-.7h-.25v-3.6h.27c.12 0 .22.03.31.08.09.06.16.14.2.25.06.11.1.25.13.43.02.17.03.38.03.63v.82c0 .32-.02.58-.06.79a.9.9 0 0 1-.22.46c-.1.1-.24.14-.41.14ZM35 25.93v-.83c0-.35-.02-.65-.07-.91a2.45 2.45 0 0 0-.2-.66c-.1-.17-.2-.3-.32-.4A.68.68 0 0 0 34 23a.68.68 0 0 0-.4.13c-.13.1-.24.23-.33.4-.08.18-.15.4-.2.66-.05.26-.07.56-.07.91v.83c0 .34.02.65.07.9.05.26.12.48.2.65.1.17.2.3.32.39A.7.7 0 0 0 34 28a.7.7 0 0 0 .41-.13c.13-.09.23-.22.32-.39s.15-.39.2-.65c.05-.25.07-.56.07-.9Zm-.47-.83v.83c0 .24-.02.45-.04.63-.02.17-.05.32-.1.43-.04.1-.1.19-.16.24a.35.35 0 0 1-.23.08.34.34 0 0 1-.22-.08.62.62 0 0 1-.17-.24 1.84 1.84 0 0 1-.1-.43 4.8 4.8 0 0 1-.04-.63v-.83c0-.25.02-.46.04-.64s.06-.32.1-.43c.05-.12.1-.2.17-.25a.34.34 0 0 1 .22-.09c.08 0 .16.03.22.09a.6.6 0 0 1 .17.25c.04.1.08.25.1.43.02.18.04.39.04.64Zm-2.03 0v.83c0 .34-.02.65-.07.9-.05.26-.11.48-.2.65-.09.17-.2.3-.32.39a.69.69 0 0 1-.4.13.7.7 0 0 1-.42-.13 1.07 1.07 0 0 1-.31-.39 2.44 2.44 0 0 1-.2-.65 5.07 5.07 0 0 1-.08-.9v-.83c0-.35.02-.65.07-.91s.12-.48.2-.66c.1-.17.2-.3.32-.4a.68.68 0 0 1 .4-.13c.16 0 .3.04.42.13.12.1.23.23.32.4.08.18.15.4.2.66.05.26.07.56.07.91Zm-.47.83v-.83c0-.25-.02-.46-.04-.64a1.8 1.8 0 0 0-.1-.43.6.6 0 0 0-.17-.25.33.33 0 0 0-.22-.09.33.33 0 0 0-.22.09.62.62 0 0 0-.17.25c-.04.1-.08.25-.1.43-.02.18-.04.39-.04.64v.83c0 .24.02.45.04.63.02.17.06.32.1.43.05.1.1.19.17.24a.35.35 0 0 0 .45 0 .58.58 0 0 0 .16-.24c.05-.11.08-.26.1-.43.02-.18.04-.39.04-.63Zm-3-.75V23.7h1.15V23H28.5v5h.52v-2.12h1.01v-.7h-1Zm-1.53-.08v.83c0 .34-.02.65-.07.9-.05.26-.11.48-.2.65-.09.17-.2.3-.32.39a.69.69 0 0 1-.4.13.7.7 0 0 1-.42-.13 1.07 1.07 0 0 1-.31-.39 2.44 2.44 0 0 1-.2-.65 5.07 5.07 0 0 1-.08-.9v-.83c0-.35.02-.65.07-.91s.12-.48.2-.66c.1-.17.2-.3.32-.4a.68.68 0 0 1 .4-.13c.16 0 .3.04.42.13.12.1.23.23.32.4.08.18.15.4.2.66.05.26.07.56.07.91Zm-.47.83v-.83c0-.25-.02-.46-.04-.64a1.8 1.8 0 0 0-.1-.43.6.6 0 0 0-.17-.25.33.33 0 0 0-.22-.09.33.33 0 0 0-.22.09.62.62 0 0 0-.17.25c-.04.1-.08.25-.1.43-.02.18-.04.39-.04.64v.83c0 .24.02.45.04.63.02.17.06.32.1.43.05.1.1.19.17.24a.35.35 0 0 0 .45 0 .58.58 0 0 0 .16-.24c.05-.11.08-.26.1-.43.02-.18.04-.39.04-.63Zm-2.03.42h-.5c0 .24-.02.43-.06.58a.56.56 0 0 1-.15.3.41.41 0 0 1-.28.1.35.35 0 0 1-.25-.1.65.65 0 0 1-.16-.27 2.13 2.13 0 0 1-.08-.44 5.86 5.86 0 0 1-.03-.59v-.87c0-.23.01-.43.03-.6.03-.18.06-.32.1-.43.04-.12.1-.2.16-.26a.36.36 0 0 1 .25-.1c.1 0 .2.04.27.1.06.07.11.18.15.32.03.15.05.34.06.58H25a3.59 3.59 0 0 0-.13-.9 1.25 1.25 0 0 0-.33-.58.73.73 0 0 0-.51-.19c-.16 0-.3.05-.44.14-.12.1-.23.23-.32.4-.09.18-.15.4-.2.66-.05.25-.07.54-.07.87v.86c0 .33.02.62.07.87.04.26.11.48.2.66.08.17.19.3.31.4.13.1.27.14.43.14.2 0 .38-.06.52-.2.15-.12.26-.31.34-.56.07-.24.12-.54.13-.9Zm-2.5.95v.7H20.76v-5h1.72v.7h-1.2v1.38h1.04v.69h-1.04v1.53h1.22ZM18.15 23H17.5v5h.5v-1.82l-.03-1.71.7 3.53h.4l.7-3.67-.04 1.85V28h.5v-5h-.64l-.72 3.72-.72-3.72Z" fill="#019541"/><path d="M16.49 19.03a.14.14 0 0 0-.06-.19 9.28 9.28 0 0 1-.62-.33c-.2-.14-.23-.32-.06-.54.34-.44.68-.84 1.03-1.2a.22.22 0 0 1 .3-.03l.7.58a.2.2 0 0 0 .26-.02l.87-.86a.12.12 0 0 0 .04-.09.13.13 0 0 0-.03-.09l-.5-.56a.33.33 0 0 1 .07-.49c.45-.3.87-.66 1.36-.89a.18.18 0 0 1 .22.06l.53.72c.04.05.09.07.14.04l1.28-.6a.2.2 0 0 0 .1-.13.19.19 0 0 0-.03-.16 2.4 2.4 0 0 1-.38-.78.16.16 0 0 1 .1-.19l1.88-.61a.05.05 0 0 1 .06.03l.33 1c0 .02.03.05.05.06.02.01.05.02.08.01l1.33-.29a.16.16 0 0 0 .12-.2l-.17-.78a.22.22 0 0 1 .13-.25.23.23 0 0 1 .1-.02h1.7c.02 0 .04 0 .05.02l.02.05v2.93c0 .03 0 .05-.02.06a105.74 105.74 0 0 0-1.85.2c-.37.04-.67.1-.9.18-.4.14-.76.17-1.18.33a11.3 11.3 0 0 0-6.03 5.24c-.16.32-.34.57-.43.9-.1.39-.37.92-.45 1.35-.13.67-.21 1.34-.26 2.02-.04.63.14 1.5.18 2.15.03.32.08.6.17.84.4 1.17.78 2.02 1.14 2.55.44.63.9 1.25 1.4 1.83a4.36 4.36 0 0 0 .62.62.12.12 0 0 1-.02.13l-2.11 2.11a.09.09 0 0 1-.07.03.1.1 0 0 1-.06-.03l-1.3-1.3a.14.14 0 0 1-.05-.11.14.14 0 0 1 .06-.1l.74-.55a.15.15 0 0 0 .03-.2l-.72-1a.18.18 0 0 0-.1-.06c-.05 0-.1 0-.14.02l-.77.44a.16.16 0 0 1-.11.02.15.15 0 0 1-.1-.07l-.9-1.56a.17.17 0 0 1 .08-.23l.9-.44a.13.13 0 0 0 .06-.06.13.13 0 0 0 0-.1l-.38-1.18a.15.15 0 0 0-.16-.1l-1 .12c-.08.01-.13-.02-.16-.1a6.92 6.92 0 0 1-.34-1.83.09.09 0 0 1 .06-.03l1.05-.13a.13.13 0 0 0 .12-.14l-.16-1.26a.15.15 0 0 0-.14-.14l-.9-.04a.12.12 0 0 1-.11-.13l.1-1.83a.13.13 0 0 1 .13-.13l1.1.06c.02 0 .04 0 .05-.02a.07.07 0 0 0 .03-.04l.32-1.22c.01-.03 0-.07-.02-.1a.19.19 0 0 0-.08-.08l-.94-.39a.08.08 0 0 1-.04-.04v-.06l.65-1.55c.07-.16.18-.2.34-.14l.77.32a.2.2 0 0 0 .24-.08l.66-1.15ZM34.43 15.21l.02.01a.03.03 0 0 0 .04-.03v-.82c0-.05-.02-.1-.05-.13a.74.74 0 0 0-.23-.18c-.29-.13-.8-.34-1.56-.64a8.88 8.88 0 0 0-1.17-.4l-1.2-.3a9.03 9.03 0 0 0-2.33-.25.12.12 0 0 1-.05-.05l-.03-.05c-.04-.07-.02-.1.06-.1.74 0 1.46.13 2.46.28.4.07.74.15 1.01.26.45.18.88.23 1.34.44.43.2.81.36 1.15.49.33.13.7.33 1.09.6a21.2 21.2 0 0 1 2.4 1.86c.2.17.55.55 1.07 1.12a85.3 85.3 0 0 1 1.07 1.45c.6.85.08 1.32-.3 2.08a.2.2 0 0 0-.02.15l.35 1.05c0 .03 0 .05-.04.05h-.03c-.02 0-.04 0-.05-.02l-.45-.95a.17.17 0 0 0-.15-.1c-.62 0-1.33.03-1.75-.5-.38-.5-.91-1.44-1.56-2.02l-.62-.57a5.89 5.89 0 0 0-.76-.6 10.94 10.94 0 0 0-6.2-2.12.06.06 0 0 1 0-.05v-.04c0-.05.02-.07.06-.07.6-.03 1.1.01 1.48.12.54.14.96.25 1.27.3.39.08.71.26 1.17.4.55.19 1.13.86 1.81.22a.08.08 0 0 0 0-.12 2.54 2.54 0 0 1-1.51-1.18.28.28 0 0 0-.15-.1 32.59 32.59 0 0 0-2.22-.66 9.79 9.79 0 0 0-1.86-.17.07.07 0 0 1-.02-.05v-.06a.04.04 0 0 1 0-.03.04.04 0 0 1 .03-.01c.23-.02.38-.03.46-.02.62.07 1.25.16 1.86.28.25.04.5.1.75.2.48.17.84.36 1.3.3.5-.08.93-.04 1.3.1.19.08.44.29.76.63Z" fill="#fff"/><path d="M17.86 17.6a.05.05 0 0 0 .06 0l1.16-1.01a.26.26 0 0 0 .05-.33c-.12-.2-.26-.37-.44-.53-.17-.16-.17-.3 0-.43a49.23 49.23 0 0 0 1.13-.8.13.13 0 0 1 .14.04l.61.83a.1.1 0 0 0 .13.02c.2-.14.42-.28.7-.37.32-.1.61-.23.86-.38a.14.14 0 0 0 .07-.15 2.24 2.24 0 0 0-.41-.88.12.12 0 0 1 .02-.1l.03-.03c.53-.32.97-.36 1.55-.55h.06a.16.16 0 0 1 .14.12l.18.81a.15.15 0 0 0 .07.1.16.16 0 0 0 .11.02l1.72-.37c.05-.01.07-.04.07-.08 0-.26-.05-.55-.15-.87a.13.13 0 0 1 .1-.17l1.38-.1a.1.1 0 0 1 .1.1v2.53c0 .02 0 .04-.02.05a21 21 0 0 0-3.35.62c-.36.12-.64.2-.92.32a11.46 11.46 0 0 0-6.2 6.3c-.25.64-.34 1.22-.53 2a9.03 9.03 0 0 0 .18 3.81c.13.65.32 1.22.56 1.73a14 14 0 0 0 2.55 3.64.12.12 0 0 1 0 .17l-1.8 1.78a.1.1 0 0 1-.13.01c-.16-.12-.32-.21-.41-.33a6.06 6.06 0 0 0-.67-.72.13.13 0 0 1 .04-.15l.77-.57a.1.1 0 0 0 .04-.06.1.1 0 0 0-.02-.07l-1.03-1.4c-.02-.03-.04-.03-.07-.02l-.9.53a.1.1 0 0 1-.14-.04l-.77-1.33a.15.15 0 0 1 .04-.18.15.15 0 0 1 .06-.03c.33-.09.66-.23.98-.45a.13.13 0 0 0 .05-.07c0-.04 0-.07-.02-.1a3.97 3.97 0 0 1-.52-1.43c0-.04-.03-.06-.08-.05l-1.03.13c-.12.01-.2-.04-.22-.16l-.3-1.32a.14.14 0 0 1 .07-.15.14.14 0 0 1 .06-.02l1-.13c.08 0 .12-.05.11-.13l-.13-1.66a.1.1 0 0 0-.09-.08l-1.05-.06a.13.13 0 0 1-.1-.08l-.01-.05.14-1.44c.01-.12.08-.17.21-.15l.99.16.06-.01a.08.08 0 0 0 .03-.05l.42-1.56a.16.16 0 0 0-.02-.11.16.16 0 0 0-.08-.08l-.93-.4c-.05-.01-.06-.05-.04-.1l.56-1.33c.03-.08.08-.1.16-.07l.96.4h.05c.02 0 .03-.02.04-.03l.84-1.47a.2.2 0 0 0-.07-.26l-.74-.43a.13.13 0 0 1-.06-.14c0-.02.02-.04.03-.05l1-1.23a.1.1 0 0 1 .07-.04.12.12 0 0 1 .08.03l.86.7Z" fill="#166C3D"/><path d="M35.34 15.49h-.06c-.03 0-.05.01-.05.04l-.02.4c0 .07-.04.1-.1.08-.45-.15-.55-.32-.45-.8.04-.23.01-.41.02-.6a.1.1 0 0 1 .04-.09.1.1 0 0 1 .1 0l1.07.63a.36.36 0 0 1 .18.37l-.17.95a.14.14 0 0 1-.07.1.13.13 0 0 1-.06.01l-.06-.01a.94.94 0 0 1-.39-.37.13.13 0 0 1 0-.13c.07-.15.11-.3.12-.48 0-.07-.03-.1-.1-.1ZM33.4 15.17c0 .14.39.3.74.48a.12.12 0 0 1 .06.09v.05c0 .02-.02.03-.03.05-.02 0-.03.01-.03.02a.21.21 0 0 1-.1.04.3.3 0 0 1-.14-.01 2.68 2.68 0 0 1-1.48-1.15.07.07 0 0 1 .02-.06l.03-.02c.53-.15 1.07 0 1.63.46l.08.1.07.17v.1a.07.07 0 0 1-.07.03h-.03l-.67-.4c-.07-.03-.1-.02-.09.05ZM36.85 16.66a.06.06 0 0 0-.03-.07h-.02l-.06-.01a.1.1 0 0 0-.1.07c-.04.22-.12.4-.23.52-.03.03-.06.03-.09 0l-.25-.35a.17.17 0 0 1-.03-.13l.14-1.07a.08.08 0 0 1 .05-.06h.08c.42.27.81.6 1.16 1.02a.2.2 0 0 1 .03.2l-.4.98c-.04.08-.08.08-.13.01l-.2-.28a.33.33 0 0 1-.06-.3l.14-.53ZM34.36 16.77c.02.03.06.03.11.02.18-.06.37-.18.57-.36a.12.12 0 0 1 .12-.03c.2.06.39.19.54.37a.08.08 0 0 1-.03.12l-1 .33a.48.48 0 0 1-.4-.04l-.81-.48c-.12-.07-.12-.14 0-.2l.91-.53a.27.27 0 0 1 .32.01l.24.18c.1.07.1.13 0 .2l-.55.3c-.05.03-.05.07-.02.1ZM37.88 18l-.1.36c-.03.14-.1.15-.2.04l-.15-.18a.42.42 0 0 1-.1-.4l.26-1a.05.05 0 0 1 .04-.03h.02l.02.01c.42.34.77.76 1.04 1.24.04.06.03.12-.02.17-.21.22-.35.51-.4.87-.02.14-.08.16-.18.06l-.24-.24c-.1-.11-.12-.23-.05-.36l.25-.44c.03-.04.02-.08-.02-.1l-.04-.04c-.07-.06-.11-.04-.13.04ZM35.64 17.65c-.06 0-.07.04-.05.09l.03.04.02.01c.3-.03.51-.08.65-.15a.33.33 0 0 1 .4.05l.21.18a.1.1 0 0 1 .04.1.11.11 0 0 1-.08.1l-.98.2a.47.47 0 0 1-.44-.1l-.66-.59c-.14-.13-.12-.22.06-.27l1-.27h.11l.34.15a.1.1 0 0 1 .06.14.1.1 0 0 1-.04.05c-.21.13-.43.22-.67.27ZM37.64 18.84l.35.48a.04.04 0 0 1 0 .04v.02h-.02l-1.36.11h-.02l-.02-.01-.76-1.03a.04.04 0 0 1 0-.04.04.04 0 0 1 .03-.02l1.35-.17h.02l.01.01.32.32a.04.04 0 0 1-.02.06l-.83.18-.02.01v.02a.04.04 0 0 0 0 .04l.06.06a.04.04 0 0 0 .04 0l.83-.1a.04.04 0 0 1 .04.02Z" fill="#EEB16E"/><path d="M37.75 20.24c.3.02.52.03.7.02.04 0 .09.01.12.05l.28.32h.03a.1.1 0 0 0 .03 0l.01-.03-.1-.48v-.11l.21-.5v-.02a.05.05 0 0 0-.03-.05l-.05-.01h-.04a.06.06 0 0 0-.02.03l-.16.37c-.03.07-.07.08-.13.04-.68-.46.06-1.06.2-1.57a.06.06 0 0 1 .04-.04.06.06 0 0 1 .06.01c.28.3.83.99.7 1.4-.1.33-.4 1-.8 1.1-.26.05-.98.01-1.24-.11a1.4 1.4 0 0 1-.73-.94c-.02-.06 0-.1.07-.1H38c.15 0 .26.07.33.2l.07.11c.09.16.04.23-.13.23h-.52c-.02 0-.03.01-.03.03v.05h.03Z" fill="#EEB16E"/><path d="M39.28 28c-.02-.07-.07-.14-.07-.24 0-.61.19-1.16.56-1.63.06-.08.09-.22.08-.41-.05-.9-.09-1.74-.24-2.62 0-.03.01-.05.04-.05h.05c.02 0 .03.02.04.04.19.85.3 1.72.33 2.62 0 .17.04.32.1.45.29.68.55 1.3.1 1.91-.12.18-.08.24.14.18.18-.05.36-.12.56-.21.1-.05.15-.13.16-.23.23-1.82.14-3.6-.27-5.34-.13-.54-.38-.93-.53-1.37-.02-.04 0-.06.03-.06h.06c.05-.01.1.01.12.06.42.86.59 1.68.76 2.77.2 1.22.25 2.23.16 3.04a15.04 15.04 0 0 1-.83 3.61c-.19.5-.6 1.3-1.24 2.4-.15.25-.42.49-.5.69-.13.25-.32.4-.5.65-.41.56-1.3.33-1.9.2a.23.23 0 0 0-.2.04 15.12 15.12 0 0 1-1.12.89c-.21.04-.23 0-.06-.14l.89-.7c.11-.1.16-.21.12-.35-.06-.27-.16-.63-.29-1.1-.04-.17.02-.37.19-.6.76-1.05 1.3-1.72 1.67-2.76l.38-1.04c.14-.38.24-.73.28-1.06.18-1.37.16-2.7-.07-4-.09-.45-.28-.82-.4-1.2-.18-.6-.12-.63.2-.1l.16.5c.47 1.51.58 3.05.33 4.6 0 .05.01.09.05.12l.6.5c.07.07.1.05.06-.05Z" fill="#fff"/><path d="M40.01 27.83a.1.1 0 0 0-.01-.07.1.1 0 0 0-.05-.04c-.1-.03-.15.02-.16.13l-.03.35c0 .06-.03.08-.07.07a.76.76 0 0 1-.19-.1c-.04-.02-.06-.08-.07-.16a2.53 2.53 0 0 1 .44-1.72.09.09 0 0 1 .12.03c.38.58.42 1.17.11 1.77-.03.07-.06.07-.08 0a.53.53 0 0 1 0-.26ZM38.87 28.81l-.01.15c0 .05.01.08.05.1l.37.21c.11.07.15.17.1.31l-.12.37c-.04.13-.1.14-.2.04l-.78-.9a.15.15 0 0 1-.04-.15l.3-1.08v-.02l.02-.02h.03l.02.01.95.77a.11.11 0 0 1 .04.1l-.02.39c0 .05-.03.08-.09.08-.17-.02-.35-.15-.53-.38a.05.05 0 0 0-.08 0l-.01.02ZM40.4 29.2c.01-.04 0-.06-.03-.08a.1.1 0 0 0-.08-.02l-.36.08c-.12.03-.18-.02-.2-.15v-.08c-.02-.17.06-.29.23-.34l.92-.3a.1.1 0 0 1 .1.01.1.1 0 0 1 .03.1l-.2.97c-.05.27-.2.41-.45.41a.3.3 0 0 0-.13.03c-.23.12-.45.19-.65.2-.15.02-.2-.04-.14-.17l.1-.24a.4.4 0 0 1 .3-.25l.5-.1c.03-.01.06-.03.06-.07ZM38.34 30.26c0 .05 0 .11.04.17.1.17.21.31.34.42.07.06.08.13.03.2l-.22.4c-.06.09-.12.1-.18 0l-.7-.95a.15.15 0 0 1-.02-.15l.46-1.09a.09.09 0 0 1 .07-.05.09.09 0 0 1 .08.05c.19.35.47.53.7.86.15.2.09.32-.02.54-.03.05-.07.06-.11 0l-.39-.43c-.05-.06-.08-.05-.08.03ZM39.7 30.98c.06 0 .08-.03.07-.09l-.01-.05c-.01-.04-.04-.06-.07-.05l-.48.03c-.13.01-.16-.04-.1-.15l.18-.3c.06-.1.15-.16.26-.19l.87-.19a.12.12 0 0 1 .13.16l-.48 1.14a.28.28 0 0 1-.24.18l-.93.07c-.13.01-.17-.04-.12-.16l.06-.13a.36.36 0 0 1 .3-.22l.56-.05ZM37.4 31.56c-.03.2.21.57.33.73.08.1.09.2.02.3l-.16.3c-.07.11-.13.1-.19-.01l-.51-1.08a.13.13 0 0 1 0-.12l.61-1.05c.03-.06.06-.06.1 0 .2.33.33.64.66.92.04.03.05.07.04.12-.02.18-.1.37-.25.55a.14.14 0 0 1-.05.04.12.12 0 0 1-.05.01.1.1 0 0 1-.05 0 .08.08 0 0 1-.03-.04l-.37-.67c-.06-.1-.1-.1-.1 0ZM38.93 32.43h-.57a.13.13 0 0 1-.1-.04.13.13 0 0 1-.03-.1c.06-.3.22-.45.49-.5a39.39 39.39 0 0 0 1.03-.13c.08.05.08.14 0 .27-.2.35-.4.68-.61 1a.26.26 0 0 1-.23.12L37.88 33c-.09 0-.12-.05-.08-.13l.09-.21a.14.14 0 0 1 .13-.1h.89a.06.06 0 0 0 .05-.05v-.04c0-.02 0-.04-.03-.04ZM36.5 32.95c-.03.04-.03.1 0 .19l.25.4c.07.09.06.17-.02.25l-.24.25c-.1.1-.16.08-.2-.05l-.23-.76a.69.69 0 0 1 .11-.65l.39-.51c.15-.2.26-.19.33.05.12.4.24.7.36.87.09.13.07.24-.05.36l-.06.07c-.1.1-.19.08-.25-.06a1 1 0 0 0-.32-.43.07.07 0 0 0-.05 0l-.02.02ZM37.83 33.9a.05.05 0 0 0 .04-.03.05.05 0 0 0 .01-.03v-.06c0-.04-.03-.06-.08-.07l-.47-.02c-.12 0-.14-.05-.07-.15l.2-.24a.32.32 0 0 1 .27-.12l.98.05a.12.12 0 0 1 .09.18 3 3 0 0 1-.26.34c-.35.4-.38.73-1.06.68a3.52 3.52 0 0 1-.82-.14c-.1-.03-.1-.07-.03-.14l.33-.28a.25.25 0 0 1 .25-.06c.21.07.42.1.62.08Z" fill="#EEB16E"/><path d="M30.7 35.14c-.63.18-1.26.37-1.88.57-.19.06-.32-.01-.54.05-.2.05-.4.08-.6.09-.03 0-.06 0-.09.02l-.1.05a.05.05 0 0 0-.02.02v.04l.01.03.03.01a5.22 5.22 0 0 1 2.04.66l.06-.08v-.03c-.27-.12-.64-.22-.68-.5a.34.34 0 0 1 .02-.2.32.32 0 0 1 .13-.14c.51-.3 1.04-.36 1.58-.2.86.32 1.63.76 2.31 1.33.1.08.08.12-.04.14-.99.1-2.02.02-3.09-.28a.12.12 0 0 0-.12.03c-.6.52-1.38.54-2.13.55-.5 0-1.55-.06-1.88-.48a.23.23 0 0 1-.04-.19c0-.03.02-.06.04-.09a.21.21 0 0 1 .07-.06l1.99-1a.16.16 0 0 0 .08-.1c.13-.39.25-.48.55-.77.1-.1.23-.19.36-.24 1.12-.44 2.11-.55 3.22 0 .14.07.26.08.33.24a.07.07 0 0 1 0 .06l-.02.02-.03.02a5.7 5.7 0 0 0-1.57.43Z" fill="#FFF908"/><path d="M22.73 38.71c-.33.16-.54.23-.64.22a2.3 2.3 0 0 0-.72.04c-.06.01-.06.03 0 .05.2.08.5.05.77.12l.42.1c.43.23.74.44.93.6.57.55 1.1 1.15 1.57 1.82.07.09.05.13-.06.13-1.1.02-2.07-.3-2.93-.95-.54-.42-.95-.8-.95-1.53v-.02l-.01-.02a.05.05 0 0 0-.04 0l-1.44.22c-.11.02-.18 0-.2-.05-.02-.04 0-.07.04-.1l.43-.2 1.19-.17c.02 0 .02-.01.01-.02l-.17-.31c0-.02-.03-.03-.05-.03-.37.04-.71.2-1.02.45-.33.1-.64.3-.95.34a1.7 1.7 0 0 1-.72-.05c-.14-.31-.15-.57-.02-.77a6.27 6.27 0 0 1 2.97-2.28.12.12 0 0 1 .1.06l.02.06c.11.76-.19 1.24-.53 1.86a.05.05 0 0 0 0 .05l.01.02h.03l.07.01c.08 0 .12-.03.14-.1.21-.78.4-.99 1.1-1.32.6-.29 1.34-.56 2.14-.52.05 0 .08.03.1.07.05.07.04.13-.03.2a.05.05 0 0 0 .01.07h.03c.12 0 .21-.05.28-.13.03-.04.02-.07 0-.1-.1-.1-.16-.16-.16-.21-.11-.9 1.06-1.4 1.68-1.7a3.73 3.73 0 0 1 2.23-.23l.01.03a.07.07 0 0 1-.01.07l-.46.47c-.22.23-.55.46-.79.7-.1.1-.2.17-.33.23-.61.3-1 .52-1.16.65-.17.14-.38.22-.63.27-.08.01-.3.1-.65.27-.16.07-.3.2-.42.39-.23.37-.44.67-.64.88-.12.14-.3.26-.55.36ZM30.76 35.46a.36.36 0 0 1-.17-.08c-.04-.03-.04-.07 0-.1l.16-.05.57-.04a.2.2 0 0 0 .12-.05c1.03-.86 2.94.6 3.72 1.35.1.1.19.22.24.32.03.08.01.1-.06.09l-2.85-.64a2.02 2.02 0 0 1-.93-.54.83.83 0 0 0-.37-.2 2.03 2.03 0 0 0-.43-.06Z" fill="#FFF908"/><path d="M25.52 38.77c-.59.2-1.2.21-1.82.06-.03 0-.05 0-.05.04v.05c0 .04.01.06.05.07l1.4.24a7.7 7.7 0 0 1 2.52 2.36.07.07 0 0 1-.02.07 5.45 5.45 0 0 1-2.81-.69 9.94 9.94 0 0 1-.98-.95c-.21-.24-.3-.5-.28-.8 0-.04-.02-.07-.06-.07l-.92.01c-.06.03-.11 0-.16-.05a.09.09 0 0 1 0-.11l.03-.02.4-.18.6-.06c.04 0 .06-.03.05-.07a.85.85 0 0 1-.03-.3c0-.05.02-.1.05-.13.66-.97 2-1.2 3.05-.97l.75.17c.18.03.2.1.04.2-.6.38-1.04.88-1.8 1.13Z" fill="#FFF908"/><path d="m28.16 39.25-1.37-.1c-.02 0-.03.02-.03.04v.05c.58.16 1.16.2 1.74.12l1.19.2c.12.02.14-.02.06-.11a.45.45 0 0 1-.06-.14.2.2 0 0 1 0-.13c.12-.26.26-.44.44-.54 1.08-.61 2.92-.96 4.01-.41l.03.02a.07.07 0 0 1 0 .07l-.02.03c-.41.24-.84.5-1.29.8-.07.04-.46.2-1.16.47-.1.04-.27.02-.4.1a.18.18 0 0 1-.1.04l-1.15-.06c-.02 0-.03 0-.03.02v.04c0 .02-.02.03-.03.03-.5.11-1.06-.02-1.54-.11-.03 0-.04 0-.04.02s0 .03.02.04c.92.29 1.38 1.09 1.84 1.95a.05.05 0 0 1 0 .05l-.02.01h-.02a8.18 8.18 0 0 1-1.48-.27c-.3-.08-.64-.25-.94-.36-.55-.2-1.63-.87-1.18-1.64l.01-.04a.08.08 0 0 0-.02-.06l-.04-.01-1.38-.23a.27.27 0 0 1-.13-.04c-.04-.04-.04-.07 0-.1.14-.08.3-.13.45-.15l.98.2a.05.05 0 0 0 .05-.01l.01-.03V39a.68.68 0 0 1 .2-.82c.22-.18.6-.39.9-.46a5.26 5.26 0 0 1 3.21.25.11.11 0 0 1 .01.11 12.31 12.31 0 0 1-1.62.88c-.34.15-.72.22-1.1.3Z" fill="#FFF908"/><path d="M34.3 39.86c-.38-.04-.79-.02-1.1-.08a.15.15 0 0 1-.1-.06c-.31-.44.32-.88.67-1.01a5.76 5.76 0 0 1 3.79-.12l.03.06-.01.07-.05.05c-.69.48-1.45.79-2.29.93-.35.07-.62.2-.94.16Z" fill="#FFF908"/><path d="M22.73 38.71c.01.04.04.07.08.09l-.4.18a.08.08 0 0 0-.02.02.09.09 0 0 0-.02.07c0 .02 0 .03.02.04.05.06.1.08.16.05v.07a3.3 3.3 0 0 1-.41-.09c-.27-.07-.58-.04-.77-.12-.06-.02-.06-.04 0-.05.25-.05.49-.07.72-.04.1 0 .3-.06.64-.22ZM25.52 38.77v.08c-.16.02-.3.07-.45.15-.04.03-.05.06 0 .1.02.02.07.03.13.04l-.1.09-1.4-.24c-.04 0-.06-.03-.05-.07v-.05c0-.03.02-.05.05-.04.62.15 1.23.13 1.82-.06ZM19.86 39.06l.04.08-.44.2c-.04.03-.05.06-.03.1.02.05.09.07.2.05a.4.4 0 0 1 .01.15l-.87-.01c-.19-.01-.32.05-.39.19-.03.06-.04.18-.03.35.01.14 0 .26-.05.36l-.2-.27c-.04-.04-.07-.05-.11-.04a6.49 6.49 0 0 0-2.65 1.41c-.1.1-.23.12-.36.09l-.36-.1c-.13-.04-.15-.11-.07-.22a5.96 5.96 0 0 1 2.19-1.52c.12-.06.37-.13.74-.21a2 2 0 0 0 .71-.32c.23.07.47.08.72.05.31-.05.62-.24.95-.34ZM28.16 39.25c0 .05.12.1.34.11a4.32 4.32 0 0 1-1.75-.13v-.04c0-.02.02-.03.04-.03l1.37.09Z" fill="#EEB16E"/><path d="M35.1 40.11c-.09.02-.2 0-.32-.05a.08.08 0 0 1-.04-.03.1.1 0 0 1 0-.1l.02-.03c.13-.09.27-.1.42-.03.04.02.08.02.11 0 1.3-.5 2.65-.53 4.06-.1.39.12.93.34 1.14.73.02.05.01.07-.04.08-.85.05-1.77.17-2.76.36-.2.04-.4.06-.59.07-.7.03-1.69.08-1.9-.83-.01-.05-.04-.07-.1-.07ZM19.64 39.64c.37.04.72.14 1.05.28.32.14.62.35.9.63.36.37.7.8 1.05 1.33.03.05.02.08-.04.08-.2.04-.42.05-.63.03a7.24 7.24 0 0 1-3.1-.92 2.12 2.12 0 0 1-.57-.54c.04-.1.06-.22.05-.36-.01-.17 0-.3.03-.35.07-.14.2-.2.4-.2.28.02.57.02.86.02ZM32.59 40.11a.06.06 0 0 0 0-.05l-.03-.02h-.02c-.37.01-.74 0-1.12-.07-.18-.03-.2-.1-.04-.22l.17-.02c.59-.03 1.08 0 1.47.1.19.04.49.08.91.13.2.02.41.07.63.14.2.06.38.17.54.34a77.94 77.94 0 0 1 1.25 1.33v.06a.1.1 0 0 1-.04.05.1.1 0 0 1-.05.02c-1.05.17-3.08-.1-3.67-1.22-.12-.22-.09-.35 0-.57Z" fill="#FFF908"/><path d="m31.29 40.03.26.1c.26.09.5.31.66.43a6.35 6.35 0 0 1 1.2 1.31v.04l-.02.02-.03.01a6.02 6.02 0 0 1-2.48-.34c-.62-.22-1.56-1-.93-1.74a.15.15 0 0 1 .1-.06c.37-.02.78.05 1.24.23Z" fill="#FFF908"/></svg>