<!-- by TradingView --><svg width="56" height="56" fill="none" xmlns="http://www.w3.org/2000/svg"><path fill="#F0F3FA" d="M0 0h56v56H0z"/><path fill-rule="evenodd" clip-rule="evenodd" d="M48 28c0 7.18-8.954 13-20 13S8 35.18 8 28s8.954-13 20-13 20 5.82 20 13Zm-29.5-3v3h-3.364c-.62 0-1.123.451-1.123 1.108s.502.892 1.123.892H18.5l-2.547 3h-1.175C12.692 33 11 31.21 11 29s1.692-4 3.778-4H18.5Zm.5 8v-5l3-2.5v5L19 33Zm4-4.993V33l3-2.497V25.51l-3 2.497ZM27 25h4.732c.587.03 1.761.462 1.761 1.942.029.347-.144 1.166-1.06 1.665.445.177 1.336.87 1.336 2.22 0 1.687-1.591 2.173-2.589 2.173H29v-2h1.968c.293 0 .53-.432.53-.751 0-.32-.237-.578-.53-.578H29v1.156L27 33v-8Zm2 3v-1h1.446c.306 0 .554.224.554.5s-.248.5-.554.5H29Zm9-3v8l2-1.821V30h.388c.783.148 1.673 1.963 2.02 3H45c-.539-2.084-1.762-3.19-2.306-3.481.564-.062 1.694-.622 1.694-2.375 0-1.752-1.13-2.159-1.694-2.144H38Zm3.7 2H40v1h1.7c.442 0 .628-.224.628-.5s-.186-.5-.628-.5Zm-6.566 1.875a2.128 2.128 0 0 1-.26-.476 1.061 1.061 0 0 1-.072-.384c0-.203.04-.38.118-.532a.852.852 0 0 1 .331-.355.956.956 0 0 1 .502-.128c.18 0 .337.042.47.125.133.082.235.191.307.326.074.136.11.284.11.446 0 .121-.02.233-.06.337-.04.101-.094.195-.165.283a1.64 1.64 0 0 1-.242.237l-.227.18.612.813c.022-.048.043-.099.061-.151a1.96 1.96 0 0 0 .087-.596h.585c0 .2-.017.437-.053.617a1.887 1.887 0 0 1-.17.496c-.031.06-.066.118-.105.172L37.5 31h-.785l-.206-.274a1.549 1.549 0 0 1-.315.175 1.5 1.5 0 0 1-.556.099 1.24 1.24 0 0 1-.608-.142.997.997 0 0 1-.393-.39 1.159 1.159 0 0 1-.137-.568c0-.157.027-.293.082-.409.056-.117.132-.226.23-.325.094-.096.201-.193.322-.291Zm.32.448-.047.037a.76.76 0 0 0-.134.18.665.665 0 0 0-.08.317c0 .103.02.196.06.278a.456.456 0 0 0 .42.262.817.817 0 0 0 .475-.151l-.694-.922Zm.18-.81.186-.133a.636.636 0 0 0 .2-.21.503.503 0 0 0 .05-.227.368.368 0 0 0-.084-.233.28.28 0 0 0-.236-.11.294.294 0 0 0-.182.057.332.332 0 0 0-.113.144.546.546 0 0 0-.036.203c0 .08.02.162.058.246a1.722 1.722 0 0 0 .158.264Z" fill="#0F3486"/><path fill-rule="evenodd" clip-rule="evenodd" d="M19 27.42v-.525L21.34 25H22l-3 2.42Zm0-.879v-.49L20.26 25h.515L19 26.541Zm0-1.194v.307L19.75 25h-.344l-.405.347Zm4 2.073v-.525L25.34 25H26l-3 2.42Zm0-.879v-.49L24.26 25h.515L23 26.541Zm0-1.194v.307L23.75 25h-.344l-.405.347Z" fill="#FF9147"/></svg>