<!-- by TradingView --><svg width="56" height="56" viewBox="0 0 56 56" xmlns="http://www.w3.org/2000/svg"><path fill="#F0F3FA" d="M0 0h56v56H0z"/><circle cx="28" cy="28" r="16" fill="#0092DF"/><path d="M27.9 36H13.97L27.9 12l13.93 24H27.9Z" fill="#fff"/><path d="M13.97 36h27.86l-2.9-5H16.87l-2.9 5Z" fill="#C72C2A"/><path d="M31 18c-4.81.35-8 3.77-9 5.53l1.5-.37a9.97 9.97 0 0 1 6.09-3.88v4.42c.63.14 1.2.45 1.41.59V18Z" fill="#0597E4"/><path d="M29.84 31c-1.3-5.51-5.77-7.28-7.84-7.47 8.1-2.41 14.7 3.98 17 7.47h-9.16Z" fill="url(#a)"/><path d="M25.49 31.5H24v.5h.32v2H24v.5h2.3l.44-1.2h-.34L26 34H25v-2h.49v-.5Zm1.31 0h1.63v.5H28v.64h1.3V32h-.42v-.5h1.62v.5H30v2h.5v.5h-1.62V34h.42v-1H28v1h.43v.5H26.8V34h.43v-2h-.43v-.5Zm6.36 1.95.34.24c-.14.27-.64.8-1.47.8A1.5 1.5 0 0 1 30.5 33c0-.62.4-1.49 1.53-1.49.26 0 .36.05.44.1.05.02.1.04.17.05.16 0 .26-.06.28-.1l.52.97-.28.17c-.1-.27-.47-.82-1.13-.82-.67 0-.77.8-.73 1.2.03.3.26.94.86.94.61 0 .92-.37 1-.56Z" fill="#F9F700"/><path opacity=".5" fill="#F9F700" d="M25 35h6v1h-6z"/><defs><linearGradient id="a" x1="22.93" y1="23.89" x2="34.51" y2="30.57" gradientUnits="userSpaceOnUse"><stop stop-color="#85C8F2"/><stop offset="1" stop-color="#E0F3F9"/></linearGradient></defs></svg>