<!-- by TradingView --><svg width="56" height="56" viewBox="0 0 56 56" xmlns="http://www.w3.org/2000/svg"><path fill="#F0F3FA" d="M0 0h56v56H0z"/><path d="M23 23h-4v11h8v-3h-4v-8ZM4 24.4A2.4 2.4 0 0 1 6.4 22h7.2a2.4 2.4 0 0 1 2.4 2.4v7.2a2.4 2.4 0 0 1-2.4 2.4H6.4A2.4 2.4 0 0 1 4 31.6v-7.2Z" fill="#0C8442"/><path d="M7.22 22.98a1.97 1.97 0 0 1 2.68-.72l5.12 2.96c.94.54 1.26 1.74.72 2.68l-2.96 5.12a1.97 1.97 0 0 1-2.68.72l-5.12-2.96a1.97 1.97 0 0 1-.72-2.68l2.96-5.12Z" fill="#49A948"/><path d="M10.08 23.15c.8-.46 1.82-.2 2.28.6l2.5 4.33c.45.8.18 1.82-.62 2.28l-4.32 2.5c-.8.45-1.82.18-2.28-.62l-2.5-4.32c-.45-.8-.18-1.82.62-2.28l4.32-2.5Z" fill="#9FCF68"/><path d="M29 23h4v3.5a5.9 5.9 0 0 0-3.22 1.21c-.28.2-.54.4-.78.6V23Zm0 6.7v-.73c1.05-.95 2.57-1.97 4-1.97v2c-1.2 0-2.83.37-4 .7Zm0 .52V34h4v-4.5c-1.18 0-2.85.39-4 .72Zm6 .24V34h4v-3.34l-3.26.93-.19-.37c-.1-.2-.28-.48-.55-.76Zm4-.82v.5L36 31c-.16-.33-.5-.82-1-1.23v-2.32c1.44.54 2.97 1.47 3.98 2.18l.02.01Zm0-.6V23h-4v3.91c.58.21 1.17.48 1.73.77.84.43 1.63.92 2.27 1.35Z" fill="#0C8442"/><path d="M33 27c-2 0-4.17 2-5 3 1-.33 3.4-1 5-1s2.67 1.33 3 2l3.5-1c-1.33-1-4.5-3-6.5-3Z" fill="#9FCF68"/><path d="M52 27h-4c-.17-.5-.3-1.5-1.5-1.5-1 0-1.5 1.5-1.5 3s.3 3 1.5 3 1.33-1 1.5-1.5h4c-.17 1.33-1.1 4-5.5 4-5.5 0-5.5-5-5.5-5.5s0-5.5 5.5-5.5c4.4 0 5.33 2.5 5.5 4Z" fill="#0C8442"/></svg>