<!-- by TradingView --><svg width="56" height="56" viewBox="0 0 56 56" xmlns="http://www.w3.org/2000/svg"><path fill="#F0F3FA" d="M0 0h56v56H0z"/><path fill-rule="evenodd" d="M23.08 36h-9c-.08 0-.1-.03-.06-.1l13.93-25.87c0-.02.03-.03.06-.03s.05.01.06.03l13.91 25.88c.04.06.02.09-.06.09h-9.4c-.03 0-.05 0-.06-.02l-4.4-5.1c-.03-.04-.07-.04-.1 0l-4.83 5.1a.07.07 0 0 1-.05.02Zm16.63-1.42c.12.05.14.02.09-.08L28.63 13.6c-.07-.13-.1-.13-.1.02v16.06c0 .08.03.13.1.16l11.08 4.74Zm-12.37-20.9L16.2 34.56c-.05.1-.02.14.1.09l11.05-4.74c.07-.03.1-.08.1-.16V13.71c0-.15-.03-.15-.1-.02Zm3.09 18.15 7.5 3.2c.15.07.15.1-.02.1h-4.6c-.11 0-.2-.03-.26-.11l-2.68-3.13c-.09-.1-.07-.12.06-.06Zm-7.48 2.8.18-.2 2.28-2.42c.1-.1.08-.12-.04-.07l-7.27 3.12c-.13.05-.12.08.01.08h4.1c.21 0 .46-.18.74-.5Zm5.06 6.62 3.65-3.7c.19-.18.38-.34.58-.48.04-.03.1-.05.15-.05h9.53c.05 0 .08.03.08.07v1.31c0 .04-.02.06-.06.06h-8.57c-.17 0-.3.02-.4.08a1.5 1.5 0 0 0-.35.3c-.4.42-1.92 1.94-4.55 4.55-.06.07-.13.07-.2 0l-4.94-4.77a.58.58 0 0 0-.42-.17h-8.46c-.03 0-.05-.02-.05-.05v-1.32c0-.04.02-.05.05-.05 2.95 0 5.99 0 9.1-.03.24 0 .45.08.63.26a561.9 561.9 0 0 0 4.17 3.99c.02.02.04.02.06 0Zm-.06 3.02c.03.03.06.03.09 0l4.86-4.9a.94.94 0 0 1 .41-.27c.09-.02.23-.03.44-.02h.22l7.95.02c.05 0 .08.02.08.07v.26c0 .06-.03.09-.09.09h-8.19a.57.57 0 0 0-.42.17l-5.2 5.26c-.07.06-.13.07-.19 0l-5.48-5.3a.48.48 0 0 0-.35-.14h-8.03c-.03 0-.04 0-.04-.03v-.35c0-.03.01-.04.04-.04h8.36c.11 0 .21.04.3.12l5.24 5.06Z" fill="#D82429"/></svg>