<!-- by TradingView --><svg width="56" height="56" viewBox="0 0 56 56" xmlns="http://www.w3.org/2000/svg"><path fill="#F0F3FA" d="M0 0h56v56H0z"/><path d="M8.73 25c-.02 0-.03-.05-.04-.07a6.95 6.95 0 0 1 .37-.85 16.99 16.99 0 0 1 .96-1.5l.56-.72a12.1 12.1 0 0 1 3.77-2.83A10.4 10.4 0 0 1 18.83 18c.83.05 1.65.17 2.45.36a8.55 8.55 0 0 1 2.4 1.07c.81.52 1.5 1.13 2.03 1.83a8.58 8.58 0 0 1 1.65 3.66c0 .02 0 .08-.03.08H8.73Z" fill="#A4A4A6"/><path d="m23.73 25-1.1 5.72c0 .02 0 .03.02.03h3.03c.04 0 .05.02.05.07l-.2 1.13-.01.02c0 .02-.02.03-.03.03h-4.44a.05.05 0 0 1-.05-.03L22.36 25h1.37Zm13.18.8c.46-.36.97-.6 1.53-.72.57-.12 1.14-.1 1.69.06.66.2 1.1.62 1.3 1.25.05.17.09.43.1.78.01.04 0 .07-.05.07l-1.34.06c-.02 0-.02 0-.03-.03v-.19a.96.96 0 0 0-.3-.67 1.27 1.27 0 0 0-.68-.27c-.54-.08-1.03.1-1.45.5-.29.27-.5.59-.65.95-.18.43-.3.86-.34 1.29-.05.5 0 .92.14 1.29.15.36.43.57.86.64.72.1 1.28-.13 1.69-.7.07-.1.16-.28.27-.53 0-.02.02-.03.03-.04.05-.02.1-.03.18-.03H41c.03 0 .04.02.03.05-.16.42-.37.8-.64 1.14a3.53 3.53 0 0 1-2.05 1.24c-.41.08-.84.08-1.26.01-.4-.07-.76-.22-1.07-.46a1.9 1.9 0 0 1-.64-1.01 3.7 3.7 0 0 1-.12-1.24c.04-.67.2-1.3.48-1.9.3-.64.7-1.15 1.18-1.54ZM26.43 32h1.33c.03 0 .04-.01.05-.04l1.34-6.93c0-.02 0-.03-.02-.03h-1.3c-.03 0-.05.02-.05.05l-1.35 6.94Zm6.02-4.8c0 .02.02.03.03.03.02 0 .04 0 .05-.02.5-.71 1.03-1.44 1.6-2.17a.1.1 0 0 1 .09-.04h1.49v.02l-2.68 3.37a.09.09 0 0 0-.01.1l1.38 3.46v.03c0 .01-.01.02-.03.02h-1.5c-.02 0-.03 0-.04-.02l-.86-2.4h-.01l-1.75 2.38a.07.07 0 0 1-.06.04h-1.44c-.02 0-.03-.01-.04-.03v-.04l2.74-3.43a.2.2 0 0 0 .03-.2l-1.3-3.24.01-.04.03-.02h1.56a55.2 55.2 0 0 1 .67 2.02c.01.08.02.14.04.18ZM44.9 25c-.66.04-1.27.24-1.81.6-.6.4-1.06.9-1.38 1.53-.03.06-.01.08.05.05.27-.12.54-.17.8-.16.13 0 .26.03.4.08l.36.17c.2.1.44.15.69.11a3.76 3.76 0 0 0 .91-.28c.25-.08.53-.09.85-.02.07.02.17.06.31.14.15.07.25.12.32.13a1.52 1.52 0 0 0 1.01-.09l.43-.14c.04-.01.06-.04.04-.09a2.8 2.8 0 0 0-2.98-2.02Zm-3.33 2.46-.08.25c.17-.07.36-.12.58-.17.2-.03.38-.03.55 0 .15.03.32.1.5.2.22.1.45.15.7.13.18-.01.41-.08.68-.18.13-.05.31-.1.55-.15.28-.05.62.02 1 .22.16.07.33.11.52.12a1.67 1.67 0 0 0 .8-.15c.22-.1.4-.14.52-.15.07 0 .1-.03.08-.1l-.01-.07c-.02-.07-.05-.1-.11-.07l-.04.02c-.32.12-.55.2-.7.23-.25.05-.49.06-.71.01-.08-.01-.2-.06-.34-.14l-.03-.01a1.47 1.47 0 0 0-1.05-.13c-.13.03-.34.1-.6.2-.31.1-.6.13-.9.06a1.66 1.66 0 0 1-.32-.13c-.13-.07-.22-.1-.28-.12a1.63 1.63 0 0 0-.77-.02 9.41 9.41 0 0 1-.54.15Zm-.21.72.06-.2c0-.02.01-.02.02-.02.41-.18.78-.24 1.13-.2.1.01.24.06.43.15l.23.1c.3.1.61.12.93.03l.26-.09.49-.15c.2-.04.37-.06.53-.04.1.01.26.07.47.16l.22.1c.24.1.5.12.77.08.16-.03.4-.1.74-.23l.1-.04a.78.78 0 0 1 .22-.03c.02 0 .03 0 .03.03V28c0 .02-.01.03-.03.03-.23.02-.37.05-.43.08a2 2 0 0 1-1.32.23c-.08-.02-.21-.07-.39-.15l-.25-.1c-.2-.07-.41-.09-.63-.05a3.96 3.96 0 0 0-.67.19c-.22.07-.37.11-.46.12-.17.02-.34 0-.5-.03a2.96 2.96 0 0 1-.47-.18c-.3-.14-.62-.18-.96-.1-.24.05-.4.1-.51.15h-.01Zm-.05.32v.17c0 .01 0 .02.03.01.41-.17.8-.22 1.14-.15.08.02.2.06.35.14l.16.07c.21.09.44.12.67.1.15 0 .36-.06.65-.17l.19-.07c.28-.09.56-.1.83-.06.08.02.22.07.4.16.19.09.32.14.4.15.18.03.34.04.47.02.14-.02.33-.07.57-.17.31-.12.56-.18.74-.18.03 0 .05-.02.05-.05v-.16c0-.03-.01-.04-.04-.04-.12 0-.2.02-.26.04l-.57.2a1.55 1.55 0 0 1-1.34-.12 4.3 4.3 0 0 0-.16-.07c-.29-.13-.67-.1-1.13.07-.26.1-.42.15-.49.16a1.62 1.62 0 0 1-1.07-.15c-.12-.07-.21-.1-.27-.12a1.77 1.77 0 0 0-1.29.17.06.06 0 0 0-.03.05Zm-.04.47c0-.04.02-.06.05-.07l.07-.02c.23-.07.4-.12.5-.13.18-.03.34-.03.5 0 .1.02.24.07.42.14.23.1.37.16.41.16.33.05.6.03.81-.05h.04c.34-.13.59-.2.76-.24a1.3 1.3 0 0 1 .87.16l.3.12c.09.04.2.06.3.06.18.01.36 0 .54-.05a5.78 5.78 0 0 0 .7-.25 1.14 1.14 0 0 1 .3-.05c.03 0 .05.01.05.05v.13a.1.1 0 0 1-.03.07.09.09 0 0 1-.06.03 1.3 1.3 0 0 0-.5.08c-.32.12-.55.2-.7.22-.23.05-.46.04-.68-.02a1.85 1.85 0 0 1-.27-.11l-.27-.12c-.35-.1-.68-.1-1.01.02l-.1.03c-.3.1-.52.17-.67.2-.26.03-.5 0-.71-.1l-.04-.02c-.3-.13-.53-.2-.7-.22a2 2 0 0 0-.85.17c-.02 0-.03 0-.03-.03v-.16Zm0 .47v.05l.01.09c.01.01.02.02.05.02l.25-.08c.33-.1.72-.04 1.15.19.22.1.46.14.73.1a4 4 0 0 0 .72-.2l.1-.03c.23-.08.46-.1.67-.08.2.02.4.09.63.2.24.13.51.17.8.13.18-.02.45-.1.81-.23l.12-.05a.95.95 0 0 1 .34-.03c.03 0 .05-.01.06-.05l.06-.18c.01-.03 0-.05-.04-.04a3.1 3.1 0 0 0-.88.25c-.42.14-.81.12-1.2-.06-.2-.09-.31-.14-.36-.15-.2-.06-.41-.07-.64-.03a2.87 2.87 0 0 0-.65.2c-.32.11-.64.13-.96.06a2.05 2.05 0 0 1-.31-.13 1.5 1.5 0 0 0-.98-.15c-.06.01-.21.07-.46.16-.02 0-.03.02-.02.04Zm1.34 2.13c-.5-.3-.84-.72-1.06-1.23l-.2-.49c0-.02 0-.03.02-.04.2-.06.39-.1.54-.1a1.14 1.14 0 0 1 .66.16c.13.07.23.12.3.13a1.65 1.65 0 0 0 1.15-.1c.23-.1.39-.14.48-.16.28-.04.5-.02.68.04l.25.12c.39.19.79.23 1.21.1l.3-.09a3.82 3.82 0 0 1 .68-.16v.02c-.17.33-.38.64-.61.92A3.65 3.65 0 0 1 44 32c-.54-.04-1-.18-1.38-.42Z" fill="#E80F23"/><path d="M26.4 32c-.14.39-.3.72-.48.96l-.58.81a10.19 10.19 0 0 1-2.82 2.54c-.77.47-1.53.83-2.28 1.07-1.03.34-2.07.54-3.12.6a13.4 13.4 0 0 1-2.86-.2l-.14-.04a9.08 9.08 0 0 1-.82-.21 9.41 9.41 0 0 1-2.91-1.64A7.02 7.02 0 0 1 8.8 34a8.6 8.6 0 0 1-.8-1.92c0-.02 0-.08.03-.08H26.4Z" fill="#A4A4A6"/></svg>