<!-- by TradingView --><svg width="56" height="56" viewBox="0 0 56 56" xmlns="http://www.w3.org/2000/svg"><path fill="#F0F3FA" d="M0 0h56v56H0z"/><path fill-rule="evenodd" d="M42.9 26.16c-.6-.19-1.08-.12-1.44.21-.32.3-.46.67-.42 1.12.03.47.25.79.63.95.45.19 1.03.08 1.73-.31.4-.23.54-.1.4.4l-.82 2.9c0 .03-.03.05-.06.05l-.07.01-.02-.01c.05-.3.05-.58.01-.81 0-.08-.05-.13-.11-.15-.07-.03-.13-.02-.18.04a4.55 4.55 0 0 1-2.52 1.4c-1.07.18-1.9-.2-2.48-1.17a4.1 4.1 0 0 1-.4-3.16 4.55 4.55 0 0 1 2.38-3.16 3.37 3.37 0 0 1 3.64.13c.1.07.2.05.27-.08l.1-.18c.17-.31.26-.28.26.09v2.43c0 .1-.03.12-.1.06a3.25 3.25 0 0 1-.25-.29c-.22-.27-.4-.43-.56-.47Zm-17.57 2.48.76-3.28c.03-.18-.02-.3-.16-.37a2.45 2.45 0 0 1-.46-.3c-.23-.2-.2-.3.1-.28l3.79.3c.36.02.37.14.05.35l-.52.33a.64.64 0 0 0-.23.28l-2.23 4.96c-.07.15-.03.24.12.27.25.04.43.09.54.14.39.17.38.3 0 .36l-3.14.6c-.14.02-.21-.05-.23-.2l-.33-2.28c-.04-.28-.13-.3-.25-.05L22 31.6c-.06.11-.14.16-.26.16-.7-.05-1.41-.11-2.14-.19-.13-.01-.3.01-.54.06-.23.06-.42.07-.55.05-.88-.13-1.77-.25-2.66-.35-.1-.01-.16-.04-.19-.09a.22.22 0 0 1-.03-.1c0-.1.03-.16.1-.2.2-.08.32-.15.36-.22.04-.1.04-.2-.02-.28l-1.36-1.96c-.12-.17-.18-.14-.18.07v2.1c0 .15.04.28.11.4l.46.74c.02.04.02.09 0 .13-.02.05-.05.07-.1.06l-4.03-.5c-.28-.03-.3-.14-.08-.32l.53-.43c.09-.07.15-.17.18-.3l1.16-5.06c.03-.15 0-.25-.1-.3l-.46-.28c-.1-.05-.13-.13-.11-.24.02-.12.08-.18.18-.2l3.32-.35c.25-.03.27.04.07.2l-.74.6a.6.6 0 0 0-.23.5v1.17c0 .27.09.3.25.12l1.29-1.48c.08-.09.1-.2.09-.32a.5.5 0 0 0-.07-.21c-.18-.25-.12-.37.17-.36l2.63.13c.38.01.41.15.1.4l-2.12 1.72c-.1.09-.13.2-.07.34l1.93 4.44c.05.11.13.15.23.12l.79-.25c.13-.04.2-.14.2-.3l.22-5.55c0-.15-.05-.25-.18-.3-.34-.12-.45-.25-.35-.4a.12.12 0 0 1 .08-.04l4.32-.48c.14-.01.17.05.09.18a.58.58 0 0 1-.2.2c-.38.23-.63.4-.77.51a.62.62 0 0 0-.19.3l-.89 3c-.16.53-.08.58.23.16l1.87-2.53c.03-.05.08-.07.14-.06.05.02.09.06.1.12l.66 2.7c.03.12.06.12.08 0Zm-16.98.78c-.19.11-.28.05-.28-.2V25.2c0-.19.07-.3.2-.36.37-.14.67-.36.9-.66.1-.13.08-.2-.07-.18l-4.1.46c-.1.01-.14.08-.12.2 0 .05.05.1.12.12l.66.17c.18.05.25.17.2.38-.3 1.47-.61 3.12-.94 4.93-.05.28-.15.5-.3.65-.09.1-.27.22-.54.37-.07.03-.09.09-.08.17.01.04.02.07.05.1.03.03.08.05.15.05 1.93-.07 3.77-.18 5.53-.33.25-.03.39.1.43.39.03.18.1.3.2.33.13.04.2-.02.2-.17v-3.78c0-.68-.16-.73-.46-.15l-.33.6a.58.58 0 0 1-.22.24l-1.2.7Zm43.44-.92c.34-1.1.27-2.08-.23-2.95a2.95 2.95 0 0 0-2.3-1.51 4.26 4.26 0 0 0-3.05.8 4.98 4.98 0 0 0-2 2.66 3.57 3.57 0 0 0 .23 2.95c.5.87 1.26 1.38 2.3 1.51a4.26 4.26 0 0 0 3.05-.8 4.98 4.98 0 0 0 2-2.66Zm-1.67-1.74c.14-.21.11-.4-.08-.55l-.94-.75c-.2-.15-.36-.12-.5.1l-.05.07c-.18.27-.26.57-.24.88.01.3.12.54.33.7l.04.04c.2.16.44.2.71.12.27-.08.5-.26.68-.54l.05-.07Zm-16.47 2.63c-.8-.18-1.35.19-1.66 1.1-.03.1-.03.2 0 .31.04.15.07.24.11.27.3.23.26.36-.1.39l-3.25.25c-.8.06-.82-.1-.07-.46a2.16 2.16 0 0 0 .68-.89L31.38 25c.1-.27 0-.53-.32-.78a.16.16 0 0 1-.06-.1c0-.03 0-.06.03-.1a.05.05 0 0 1 .05-.02l4.4.17c.47.02.48.13.05.35-.1.05-.27.1-.49.18-.14.04-.2.15-.16.33l1.2 5.06a.3.3 0 0 0 .19.23l.28.11c.36.15.36.28 0 .4l-3.56 1.14c-.22.07-.25.01-.1-.19l.88-1.1c.19-.23.27-.5.24-.78-.02-.29-.15-.46-.36-.5Zm-1-1.68c.32-.89.5-1.36.53-1.41.23-.44.36-.41.4.1l.08.96c.01.2-.06.32-.22.37l-.62.2c-.06.02-.1 0-.15-.05a.18.18 0 0 1-.02-.17Z" fill="#2196F3"/></svg>