<!-- by TradingView --><svg width="56" height="56" viewBox="0 0 56 56" xmlns="http://www.w3.org/2000/svg"><path fill="#F0F3FA" d="M0 0h56v56H0z"/><path d="m28.75 13 .98.07c1.74.11 3.44.42 5.11.9.58.18 1.11.38 1.61.62 1.24.6 2.16 1.4 2.78 2.43.56.91.85 1.99.9 3.22.03 1.08-.13 2.26-.5 3.51a17.1 17.1 0 0 1-1.38 3.33c-.18.34-.45.82-.83 1.46a22.12 22.12 0 0 1-7.15 7.47c-.02.02-.05.02-.08 0a8.13 8.13 0 0 1-2.28-3.12 9.2 9.2 0 0 1-.7-4.08c0-.03.02-.05.04-.06l.06-.04.24-.12a12.7 12.7 0 0 0 3.96-2.3c.05 1.14.1 2.87.13 5.17l.06 3.16c0 .03.01.04.04.02a20.27 20.27 0 0 0 4.66-4.99c.23-.35.52-.88.85-1.57.2-.4.32-.76.36-1.05a5.4 5.4 0 0 0-.27-2.58 7.15 7.15 0 0 0-1.29-2.27c-.37-.44-.68-.8-.95-1.06-.22-.22-.46-.4-.74-.56a4.33 4.33 0 0 0-.95-.63 21.55 21.55 0 0 0-2.97-1.3 21.76 21.76 0 0 0-10.1-.85 22.28 22.28 0 0 0-8.25 3c-.06.05-.1.03-.09-.05l.11-2.54c0-.03.02-.05.04-.07 2.81-2.2 6-3.7 9.57-4.48 1.6-.35 3.21-.57 4.84-.64h2.2Z" fill="#E01A22"/><path d="M41.9 17.09c-.25 2.63-.8 5.16-1.65 7.57a27.23 27.23 0 0 1-3.56 6.87c-.01.03 0 .04.02.06l3.88 2.23a27.68 27.68 0 0 1-3.8 5.34 57.81 57.81 0 0 1-3.08-1.73 38 38 0 0 0-2.1-1.1.08.08 0 0 0-.08 0 9.14 9.14 0 0 1-3.93 1.2 7.7 7.7 0 0 1-4.36-1.06 6.08 6.08 0 0 0-.7-.38 22.6 22.6 0 0 1-3.23-10.87c0-.02.03-.04.05-.06a6.03 6.03 0 0 1 3.94-.56c1.28.21 2.54.69 3.79 1.44.02.02.03.04.03.07l-.01.06-.21-.07a11.7 11.7 0 0 0-5.38-1.3 4.4 4.4 0 0 0-1.85.46.07.07 0 0 0-.04.08l.1 1.42c0 .03.02.05.04.07.38.33.74.53 1.1.6.46.08.81.12 1.06.13l4.97.14c-.14 1.14-.12 2.27.06 3.39l-6.27.06c-.03 0-.04.02-.03.04.38 1.29.93 2.52 1.64 3.7.32.54.55.88.7 1.01.56.53 1.25.91 2.07 1.14.74.21 1.53.28 2.37.22a9.94 9.94 0 0 0 3.4-.92c.65-.38 1.31-.81 2-1.3.42-.31.83-.68 1.25-1.12 2.96-3.1 5.1-6.89 6.44-11.39.57-1.9.94-3.75 1.13-5.55 0-.03.02-.03.04-.02l.2.13Z" fill="#188DBB"/><path d="M40.59 33.82 36.7 31.6c-.03-.02-.03-.03-.02-.06a27.23 27.23 0 0 0 3.56-6.87c.85-2.41 1.4-4.94 1.64-7.57.63.42 1.25.84 1.87 1.28.07.05.1.1.1.13.21 2.02.18 4.03-.1 6.03-.45 3.2-1.5 6.3-3.17 9.3Z" fill="url(#a)"/><path d="m23.18 18.36-1.18.75a7.3 7.3 0 0 0-2.18 2.24c-.5.8-.86 1.66-1.09 2.57-.65.43-1.15.74-1.48.92L12.9 27.3a7.98 7.98 0 0 1 .03-3.6c.32-1.2.94-2.21 1.89-3.03a8.06 8.06 0 0 1 2.26-1.34c.8-.32 1.64-.56 2.56-.72a16.9 16.9 0 0 1 3.54-.24Z" fill="#FEBC11"/><path d="M29.17 27.23a9.97 9.97 0 0 0 4.59-6c0-.03 0-.06-.03-.07l-1.11-.54c-.03-.02-.06-.01-.08.01-.67.76-1.35 1.7-2.03 2.8a49.92 49.92 0 0 0-1.86 3.26c-.64-.53-1.3-.99-2.02-1.39a46.49 46.49 0 0 1 1.96-3.54c.41-.71.72-1.47.91-2.26.01-.03 0-.04-.03-.05-.69-.2-1.39-.36-2.1-.47a14.3 14.3 0 0 0-3.77-.2c-.32.02-.62.1-.9.22a5.66 5.66 0 0 0-2.55 2.27 9.72 9.72 0 0 0-1.32 3.72c-.05.43-.07.93-.05 1.47.01.36.05.85.11 1.48.05.54.15 1.07.28 1.58.67 2.49 1.7 4.84 3.09 7.05a30.8 30.8 0 0 0 7.53 8.22c.02.01.02.03 0 .04l-.18.13a31.02 31.02 0 0 1-6.9-6.9 30.2 30.2 0 0 1-2.26-3.72 1.98 1.98 0 0 0-1.12-.16c-.3.05-.66.18-1.08.4-.68.36-1.36.74-2.04 1.14a28.2 28.2 0 0 1-1.9-3.79c.53-.26 1.29-.67 2.3-1.22a7.9 7.9 0 0 0 2.05-1.6.08.08 0 0 0 .02-.08c-.35-1.7-.33-3.41.05-5.11.22-.91.59-1.77 1.09-2.57A7.3 7.3 0 0 1 22 19.1c.38-.26.77-.5 1.17-.75 1.89-.05 3.74.14 5.57.56 1.87.44 3.62 1.1 5.22 2 .04.01.05.05.04.09a9.3 9.3 0 0 1-1.64 3.66c-.8 1.08-1.79 2-2.96 2.73-.03.01-.05.01-.07 0l-.16-.17Z" fill="#FAA61B"/><path d="m27.38 18.98-2.46 4.07c-.18.3-.4.74-.67 1.29a7.64 7.64 0 0 0-2.78-.2c-.95.1-1.83.39-2.64.85.03-.17.05-.34.09-.5a9.72 9.72 0 0 1 1.23-3.22A5.66 5.66 0 0 1 22.7 19c.27-.13.57-.2.9-.22a14.3 14.3 0 0 1 3.78.2Z" fill="#F7921E"/><path d="M26.64 25.3a9.9 9.9 0 0 0-2.4-.96c.27-.55.5-.98.68-1.29l2.46-4.07c.7.1 1.4.26 2.1.47.02 0 .03.02.02.05a8.62 8.62 0 0 1-1.2 2.77 46.54 46.54 0 0 0-1.66 3.03Z" fill="url(#b)"/><path d="m29.17 27.23-.52-.54c.5-.98 1.12-2.07 1.86-3.26.68-1.1 1.36-2.04 2.03-2.8.02-.02.05-.02.08-.01l1.1.54c.04.01.05.04.04.07a9.97 9.97 0 0 1-4.59 6Z" fill="url(#c)"/><path d="M31.5 26.3a8.6 8.6 0 0 0 2.03-2.58c.5-1 .78-2.05.83-3.16.28.16.52.34.74.56.27.27.59.62.95 1.06.57.69 1 1.45 1.29 2.27.3.9.4 1.76.27 2.58-.04.3-.16.64-.36 1.05-.33.7-.62 1.22-.85 1.57a20.27 20.27 0 0 1-4.66 4.99c-.02.02-.04.01-.04-.02l-.06-3.16c-.03-2.3-.08-4.03-.13-5.17Z" fill="url(#d)"/><path d="M18.73 23.92c-.38 1.7-.4 3.4-.05 5.1 0 .04 0 .06-.02.08a7.9 7.9 0 0 1-2.06 1.6c-1 .56-1.76.97-2.29 1.23-.63-1.5-1.1-3.04-1.41-4.64l4.35-2.45c.33-.18.83-.5 1.48-.92Z" fill="url(#e)"/><path d="m27.11 26.17-.21 1.53-4.97-.14c-.25 0-.6-.05-1.06-.14a2.4 2.4 0 0 1-1.1-.59.1.1 0 0 1-.04-.07l-.1-1.42c0-.04 0-.06.04-.08a4.4 4.4 0 0 1 1.85-.47 11.7 11.7 0 0 1 5.38 1.31l.21.07Z" fill="url(#f)"/><path d="M26.96 31.09c.17 1.1.54 2.14 1.1 3.1s1.3 1.75 2.26 2.4c-.93.36-1.9.59-2.88.67-.84.06-1.63 0-2.37-.22-.82-.23-1.5-.6-2.07-1.14a5.58 5.58 0 0 1-.7-1 16.14 16.14 0 0 1-1.64-3.7c-.01-.03 0-.05.03-.05l6.27-.06Z" fill="url(#g)"/><path d="M22.71 38.05a40.27 40.27 0 0 0-3.45 1.87 27.12 27.12 0 0 1-3.05-4.2c.68-.4 1.36-.78 2.04-1.14a3.6 3.6 0 0 1 1.08-.4c.37-.06.75 0 1.12.16a30.21 30.21 0 0 0 2.26 3.71Z" fill="url(#h)"/><path d="M36.83 39.06c-.57.64-1.31 1.27-1.95 1.82a6.92 6.92 0 0 1-3.5 1.72 5.9 5.9 0 0 1-4.36-1.17c-.9-.64-1.76-1.46-2.57-2.47a17.6 17.6 0 0 1-1.92-2.99c.16.07.4.2.7.39a7.2 7.2 0 0 0 4.33 1.07 9.56 9.56 0 0 0 4.05-1.24.07.07 0 0 1 .08 0c1.06.54 1.76.92 2.08 1.11 1 .62 2.02 1.2 3.06 1.76Z" fill="url(#i)"/><path d="M22.71 38.05a31.03 31.03 0 0 0 6.9 6.9l-2.07 1.03a.18.18 0 0 1-.15 0 23.92 23.92 0 0 1-8.13-6.06c1.12-.68 2.27-1.3 3.45-1.87Z" fill="#F7921E"/><defs><linearGradient id="a" x1="44" y1="18.62" x2="38.69" y2="31.87" gradientUnits="userSpaceOnUse"><stop stop-color="#0B739E"/><stop offset="1" stop-color="#188DBB"/></linearGradient><linearGradient id="b" x1="26.17" y1="21.71" x2="27.78" y2="22.45" gradientUnits="userSpaceOnUse"><stop stop-color="#F7921E"/><stop offset="1" stop-color="#FAA61B"/></linearGradient><linearGradient id="c" x1="29.86" y1="23.92" x2="32.65" y2="25.95" gradientUnits="userSpaceOnUse"><stop stop-color="#FAA61B"/><stop offset="1" stop-color="#FEBC11"/></linearGradient><linearGradient id="d" x1="32.46" y1="27.61" x2="36.6" y2="24.72" gradientUnits="userSpaceOnUse"><stop stop-color="#E01A22"/><stop offset="1" stop-color="#C91D23"/></linearGradient><linearGradient id="e" x1="13.93" y1="27.12" x2="15.42" y2="30.64" gradientUnits="userSpaceOnUse"><stop stop-color="#FEBC11"/><stop offset="1" stop-color="#FAA61B"/></linearGradient><linearGradient id="f" x1="23.37" y1="24.79" x2="23.37" y2="27.7" gradientUnits="userSpaceOnUse"><stop stop-color="#1E9BCE"/><stop offset="1" stop-color="#188DBB"/></linearGradient><linearGradient id="g" x1="29.29" y1="36.81" x2="28.39" y2="31.45" gradientUnits="userSpaceOnUse"><stop stop-color="#0B739E"/><stop offset="1" stop-color="#188DBB"/></linearGradient><linearGradient id="h" x1="17.29" y1="35.86" x2="19.46" y2="39.02" gradientUnits="userSpaceOnUse"><stop stop-color="#FAA61B"/><stop offset="1" stop-color="#F7921E"/></linearGradient><linearGradient id="i" x1="26.42" y1="43.05" x2="34.48" y2="36.77" gradientUnits="userSpaceOnUse"><stop stop-color="#1E9BCE"/><stop offset=".76" stop-color="#188DBB"/></linearGradient></defs></svg>