<!-- by TradingView --><svg width="56" height="56" viewBox="0 0 56 56" xmlns="http://www.w3.org/2000/svg"><path fill="#F0F3FA" d="M0 0h56v56H0z"/><path d="m10.61 24.98-4.59-3.86a.06.06 0 0 1-.01-.08c0-.03.03-.04.06-.04H33.2c.01 0 .03 0 .04.02l4.73 3.86c.03.02.04.05.02.08 0 .03-.03.04-.06.04H10.66c-.02 0-.04 0-.05-.02ZM42.77 29.2l.86.6a11.47 11.47 0 0 0 .95.6 21.74 21.74 0 0 1 .93.63 42.44 42.44 0 0 0 1.03.67l.53.35.84.55a23.74 23.74 0 0 0 1.47.93 9.73 9.73 0 0 1 .62.44l-.03.02a37.6 37.6 0 0 0-.57 0 14770.02 14770.02 0 0 0-26.96-.02.6.6 0 0 1-.2-.1 17.43 17.43 0 0 0-1.03-.72 144.89 144.89 0 0 1-1.6-1.07c-.39-.23-.88-.48-1.48-.9-.07-.05-.1 0-.13-.05-.04-.1.01-.13.1-.13 7.61-.03 15.79-.03 23.41 0 .52 0 1.15-.4 1.35-.9.1-.24.05-.47-.14-.68a10.02 10.02 0 0 0-.2-.24.38.38 0 0 1-.07-.17h.02l.3.2Z" fill="#FFC72A"/><path fill-rule="evenodd" d="M29.82 29.37c.15.3.42.53.8.68a2.5 2.5 0 0 0 2.32-.5l.22-.17c.07-.05.1-.04.1.04v.16c0 .08-.04.14-.1.2a2.7 2.7 0 0 1-.76.47 3.59 3.59 0 0 1-1.86.22 3.68 3.68 0 0 1-1.56-.55 2.3 2.3 0 0 1-.71-.82 2.1 2.1 0 0 1 .1-2.23c.21-.32.47-.59.8-.82.1-.07.25-.14.42-.22a5.54 5.54 0 0 1 .92-.28 3.7 3.7 0 0 1 1.32.04l.91.24c.1.03.19.01.27-.04a.32.32 0 0 0 .14-.21c0-.04.03-.06.08-.06h.04c.04 0 .07.02.07.06v1.52l-.02.02c-.04.03-.08.04-.14.02a.04.04 0 0 1-.02-.03 2.23 2.23 0 0 0-.23-.5c-.11-.18-.25-.31-.42-.41a5.07 5.07 0 0 0-.3-.16 1.85 1.85 0 0 0-.8-.2c-.27 0-.55.05-.81.16-.33.13-.6.35-.77.66a2.76 2.76 0 0 0-.32 1.57c.05.44.15.82.31 1.14Zm-4.66 1c.04 0 .1 0 .17-.04a.5.5 0 0 0 .17-.1c.06-.06.1-.15.12-.25v-.32a1637.79 1637.79 0 0 1 0-3.6.45.45 0 0 0-.05-.23.3.3 0 0 0-.2-.15 2.4 2.4 0 0 0-.49-.06c-.04 0-.06-.02-.06-.06v-.01c0-.03.02-.05.05-.05h2.89c.03 0 .04.01.04.04v.03c0 .03-.01.05-.05.05h-.12c-.16.01-.28.03-.35.05a.34.34 0 0 0-.23.23.86.86 0 0 0-.05.25v3.71c0 .31.17.48.51.51l.23.01c.03 0 .04.02.05.04v.03c-.01.03-.04.05-.08.05a7 7 0 0 0-.75 0 265.78 265.78 0 0 0-2.12-.02.04.04 0 0 1-.03-.03v-.04c.02-.02.05-.03.1-.03h.25Zm-7.45.13h-2.89c-.02 0-.04-.01-.04-.03v-.04c0-.03.02-.04.05-.04h.04c.17 0 .29 0 .35-.03a.48.48 0 0 0 .29-.25c.03-.08.05-.2.05-.37l-.01-3.53v-.17c0-.12-.05-.2-.13-.28a.5.5 0 0 0-.3-.12l-.3-.01c-.03 0-.05-.02-.05-.05v-.02c0-.03.01-.04.04-.04a40.07 40.07 0 0 1 2.91 0c.05 0 .06.02.04.06v.01a.07.07 0 0 1-.07.04l-.36.02c-.26.03-.33.2-.33.5v3.74c0 .3.1.45.42.48h.27c.05 0 .07.02.07.07v.01c0 .03-.02.05-.05.05Zm21.68-.99c-.3.37-.68.63-1.12.78a4.65 4.65 0 0 1-1.77.2 5.6 5.6 0 0 1-.75-.18c-.1-.04-.27-.11-.49-.22a2.36 2.36 0 0 1-1.21-1.65c-.11-.57-.03-1.1.23-1.6a2.66 2.66 0 0 1 .88-.89 2.95 2.95 0 0 1 1.9-.45 3.74 3.74 0 0 1 1.16.17 2.8 2.8 0 0 1 1.38 1.03l.05.07c.1.16.17.28.2.37.17.47.2.95.08 1.43-.04.15-.11.3-.21.47-.12.19-.23.35-.33.47Zm-1.17-.05c-.12.22-.25.4-.39.5-.16.15-.37.24-.62.3h-.27a1.22 1.22 0 0 1-.98-.47 2 2 0 0 1-.38-.94 5.67 5.67 0 0 1-.01-1.62c.03-.27.1-.52.22-.74.14-.28.32-.48.55-.6.23-.12.49-.17.78-.15.17.01.34.06.5.13.17.08.3.18.38.3.12.17.2.3.26.41.07.15.12.3.14.43.08.49.1.98.07 1.48-.03.4-.11.72-.25.97Zm-19.55-3.8c.1.01.17.04.22.08.1.08.11.2.11.33V29.69c0 .31 0 .62-.38.68h-.29c-.03 0-.04.01-.04.04v.04c0 .03.01.05.04.05h.87a102.5 102.5 0 0 1 1.8 0 3.42 3.42 0 0 0 .92-.11C23.1 30.15 24 29.2 24 28c0-1.24-.94-2.25-2.2-2.42l-.2-.03a3.7 3.7 0 0 0-.45-.05 28.28 28.28 0 0 0-1.27 0h-1.56c-.03 0-.05 0-.05.04v.03c0 .02.02.04.05.04h.07l.28.03Zm3.01 4.38c.27-.2.45-.42.55-.67a4.77 4.77 0 0 0 .1-2.34c-.1-.44-.35-.8-.74-1.07a.88.88 0 0 0-.3-.13c-.28-.07-.55-.1-.82-.09-.04 0-.07.02-.07.07a2.67 2.67 0 0 0 0 .39v3.7c0 .08.02.15.04.2.02.04.08.08.15.11a1.35 1.35 0 0 0 1.09-.17Z" fill="red"/></svg>