<!-- by TradingView --><svg xmlns="http://www.w3.org/2000/svg" width="56" height="56" viewBox="0 0 56 56"><path fill="#F0F3FA" d="M0 0h56v56H0z"/><path d="M39.64 25v-.23c0-6.47-5.2-11.72-11.64-11.72A11.69 11.69 0 0 0 16.36 25h6.14l-.02-.01A14.86 14.86 0 0 0 28 19c1.37 2.78 4.7 5.15 6.02 5.99L34 25h5.64Zm-23.29 0H10c.1 10.54 8.12 19.05 18 19.05S45.9 35.54 46 25h-6.35A11.7 11.7 0 0 1 28 36.57 11.7 11.7 0 0 1 16.35 25Zm11.63 6c-1.35-2.52-4.13-5.03-5.5-5.97 0 0 11.64-.07 11.52 0-1.6 1.01-4.79 4.4-6.02 5.97Z" fill="#F17525"/></svg>