<!-- by TradingView --><svg width="56" height="56" viewBox="0 0 56 56" xmlns="http://www.w3.org/2000/svg"><path fill="#00AFF0" d="M0 0h56v56H0z"/><path d="M29.2 34.73c-12.13 2.39-22.5 1.3-23.17-2.41-.66-3.72 8.64-8.67 20.77-11.05 12.13-2.39 22.5-1.3 23.17 2.41.66 3.72-8.64 8.67-20.77 11.05Z" fill="url(#a)"/><path fill-rule="evenodd" d="M13 29v-3h.77v2.15h1V29H13Zm1.9 0 .5-3h1.19l.51 3h-.78L16 26.79 15.67 29h-.78Zm23.87-3-.51 3h.78l.32-2.21.33 2.21h.78l-.51-3h-1.19Zm-21.53 2.96v-2.94h1.2c.34 0 .56.3.56.68v.53c0 .37-.22.68-.57.68H18v1.05h-.76Zm.91-2.42c-.08 0-.14.07-.14.15v.53c0 .09.06.16.14.16h.08c.08 0 .15-.07.15-.16v-.53c0-.08-.07-.15-.15-.15h-.08ZM20 26v3h.77v-1.08h.43c.35 0 .63-.3.63-.69v-.54c0-.38-.28-.69-.63-.69H20Zm.77.69c0-.09.07-.16.15-.16H21c.07 0 .14.07.14.16v.54c0 .08-.07.15-.14.15h-.08c-.08 0-.15-.07-.15-.15v-.54Zm1.23-.67h.77v1.08h.46v.79h-.46v1.07H22v-2.94Zm1.23 0H24v2.94h-.77v-2.94ZM36.77 26H36v3h.77v-1.1h.46v-.8h-.46V26ZM38 26h-.77v3H38v-3Zm-4 0h1.96v.8h-.6V29h-.75v-2.2H34V26Zm-5.34 3v-2.98h.88l.76 1.82v-1.82h.7V29h-.88l-.78-1.84V29h-.68Zm11.97 0v-3h.88l.76 1.84V26h.68v3h-.86l-.78-1.85V29h-.68Zm2.44-3h.74v1.1h.45v.8h-.45V29h-.74v-3Zm1.19 0H45v3h-.74v-3ZM25 26.02h-.75v2.17c0 .43.32.77.72.77h.5c.4 0 .71-.34.71-.77v-2.17h-.74v2.16c0 .13-.1.24-.22.24-.13 0-.22-.1-.22-.24v-2.16Zm1.51.77c0-.44.32-.79.72-.79h.5c.4 0 .71.35.71.79v1.42c0 .44-.32.79-.72.79h-.49c-.4 0-.72-.35-.72-.79V26.8Zm1.2.01v1.4c0 .14-.1.25-.23.25s-.23-.11-.23-.25v-1.4c0-.14.1-.25.23-.25.12 0 .22.11.22.25Zm4.2-.8c-.36 0-.58.35-.58.79v1.42c0 .44.17.79.54.79h.68c.37 0 .57-.35.57-.79v-.87h-.96v.42h.23v.47c0 .13-.07.25-.19.25-.11 0-.2-.12-.2-.25v-1.54c0-.14.09-.25.2-.25.12 0 .2.11.2.25v.37h.72v-.27c0-.44-.2-.79-.57-.79h-.63Z" fill="#00AFF0"/><defs><linearGradient id="a" x1="28" y1="20" x2="28" y2="36" gradientUnits="userSpaceOnUse"><stop stop-color="#F5BF05"/><stop offset=".46" stop-color="#FEF601"/><stop offset="1" stop-color="#F5BE05"/></linearGradient></defs></svg>