<!-- by TradingView --><svg width="56" height="56" viewBox="0 0 56 56" xmlns="http://www.w3.org/2000/svg"><path fill="#F0F3FA" d="M0 0h56v56H0z"/><path d="M28.4 29.64c.22-.06.42-.17.58-.33l3.66-3.7c.5-.5.95-.47 1.36.1l.83 1.13c.2.29.3.6.27.96a1.4 1.4 0 0 1-.41.9l-6.22 6.28c-.2.2-.4.2-.61 0l-4.77-4.8-.63-.64a21.35 21.35 0 0 1-3.12-3.66 6.92 6.92 0 0 1-.78-4.42 6.42 6.42 0 0 1 1.06-2.87c.38-.54 1.12-1.37 2.23-2.48l.49-.5 5.39-5.42a.6.6 0 0 1 .45-.19c.17 0 .32.06.44.19l2.35 2.37c.07.07.09.14.06.23a.23.23 0 0 1-.17.17c-.67.15-1.2.42-1.58.8l-5.47 5.5a6.2 6.2 0 0 0-1.63 2.36c-.38 1.3.08 2.6 1.37 3.89 1.9 1.9 3.23 3.22 3.99 3.95.2.2.5.26.86.18Z" fill="#211C32"/><path d="M28.05 42.79c.08.32.15.32.23 0a12.36 12.36 0 0 1 3.36-5.95l5.79-5.8c.99-1.01 1.58-1.81 1.76-2.4.4-1.32-.02-2.62-1.28-3.9l-3.4-3.43c-.84-.85-1.64-.9-2.4-.15l-3.54 3.54c-.16.16-.35.19-.55.07a4.3 4.3 0 0 1-1-.86c-.36-.4-.58-.76-.67-1.1-.14-.55.1-1.16.75-1.82 1.44-1.48 3.32-3.36 5.63-5.65.36-.35.7-.35 1.06 0l6.86 6.93a7.9 7.9 0 0 1 2.17 3.84c.34 1.48.2 2.93-.43 4.34-.4.9-1.34 2.1-2.83 3.6-3.17 3.21-6.68 6.74-10.53 10.6-.24.23-.52.35-.85.35-.34 0-.62-.12-.85-.36-3.9-3.89-7.18-7.2-9.87-9.96a12.18 12.18 0 0 1-2.86-4.7 9.85 9.85 0 0 1-.36-5.5.5.5 0 0 1 .35-.4c.2-.06.38-.04.5.08.08.07.14.2.17.4.18 1.1.4 1.98.67 2.64.34.84.83 1.6 1.49 2.26l7.36 7.44a11.87 11.87 0 0 1 3.27 5.89Z" fill="#41AB2E"/></svg>