<!-- by TradingView --><svg width="56" height="56" viewBox="0 0 56 56" xmlns="http://www.w3.org/2000/svg"><path fill="#F0F3FA" d="M0 0h56v56H0z"/><path d="m19.5 33.15-.47 1.79c-.01.04-.04.06-.08.06H8.09c-.08 0-.1-.03-.08-.1l3.82-13.84c.01-.04.04-.06.08-.06h4.85c.07 0 .1.03.08.1l-3.3 11.84c-.03.07 0 .06.07.06h5.8c.07 0 .1.08.08.15ZM22.02 22.93l.44-1.88c0-.03.03-.05.07-.05h12.45c.06 0 .09.03.07.09l-.44 1.89c0 .03-.03.02-.07.02h-3.67c-.03 0-.06.05-.07.08l-3.36 11.87c-.01.03-.04.05-.08.05h-4.9c-.06 0-.08-.03-.07-.09l3.35-11.8c.02-.06 0-.11-.07-.11H22.1c-.06 0-.08 0-.07-.07ZM43.5 21.17l-.07.1c-.19.02-.33.06-.42.12-.7.45-1.3 1.03-1.78 1.73a7.2 7.2 0 0 0-.85 2.25c-.26 1.06-.95 3.58-1.86 7.02a.45.45 0 0 0 .09.4c.1.13.22.21.38.21h4.83c.03 0 .04 0 .03.02l-.48 1.9c-.01.05-.05.08-.1.08h-7.55c-.62 0-1.05-.06-1.3-.18-.49-.25-.79-.7-.9-1.39a4.1 4.1 0 0 1 .13-1.71c.82-3.05 1.5-5.5 2.01-7.38.22-.78.47-1.4.76-1.84.36-.55.84-.96 1.44-1.2.5-.22 1.38-.31 2.67-.3h2.72c.08 0 .16.06.26.17Z" fill="#272561"/><path d="m43.43 21.28.08-.11c.26-.11.44-.17.52-.17h3.89c.03 0 .06.02.07.05.02.03.01.06 0 .09-.13.18-.27.41-.42.7-.37.69-.98 1.2-1.83 1.52a4.3 4.3 0 0 1-1.55.15c-.59-.02-1.01 0-1.28.08a4.83 4.83 0 0 0-1.95 1.3c-.2.17-.24.14-.15-.1.1-.28.26-.66.47-1.14a4.7 4.7 0 0 1 2.15-2.37Z" fill="#0C7AB7"/></svg>