<!-- by TradingView --><svg width="56" height="56" viewBox="0 0 56 56" xmlns="http://www.w3.org/2000/svg"><path fill="#0E4520" d="M0 0h56v56H0z"/><path d="M33.8 33.77a6.88 6.88 0 0 0 .76-5.6 6.86 6.86 0 0 0-8.6-4.65 7.06 7.06 0 0 0-4.68 5.08 6.7 6.7 0 0 0 .9 5.18l-1.52.24c-.1.01-.1 0-.03-.06l.96-.7c.07-.04.06-.08-.01-.1-.06-.02-.14 0-.25.03a1935.46 1935.46 0 0 1-10.6 2.97A16857.58 16857.58 0 0 0 21 31.76a.25.25 0 0 0 .11-.08c.04-.04.02-.06-.03-.06l-11.03.55c-.03 0-.05 0-.05-.03 0-.01.02-.03.05-.03l10.77-1.94c.19-.04.19-.08.01-.13a894.04 894.04 0 0 0-10.79-1.9v-.05c.01-.02.02-.03.04-.03l11 .51h.01c.06-.01.08-.04.06-.08l-.03-.02a3013.79 3013.79 0 0 0-10.4-4.4c0-.02.02-.02.03-.02L21.3 27c.4.11.43.05.1-.19l-8.86-6.38c-.02 0-.02-.02-.02-.03h.03a15047.43 15047.43 0 0 1 9.72 5.24c.23.1.26.06.1-.13l-7.22-8.19c-.19-.21-.17-.22.04-.04l8.27 7.27c.04.03.07.04.1.03.02 0 .03-.02.04-.04v-.03l-5.38-9.9v-.03l.03.01 6.44 8.92c.23.33.3.3.19-.09l-2.97-10.57.01-.02c.01 0 .02 0 .03.02l4.36 10.27c.1.24.15.24.13-.02l-.54-11.04c0-.02 0-.04.02-.04s.03 0 .03.03l1.96 10.92c0 .03.02.04.04.05h.05a.07.07 0 0 0 .03-.05l1.93-10.94c0-.02.01-.02.03-.02h.04v.02l-.52 10.93c-.02.35.04.36.18.04l4.27-10.17c0-.02.02-.02.03-.02v.03l-3 10.82c0 .05 0 .07.05.05a.23.23 0 0 0 .11-.08c.09-.1 2.24-3.1 6.46-8.98.13-.2.15-.19.03.03l-5.28 9.8a.06.06 0 0 0 0 .06l.06.03c.03 0 .05-.02.07-.04l8.26-7.3c.2-.18.21-.17.04.03l-7.27 8.31c-.03.03-.03.06 0 .09l.02.03h.04l9.8-5.35h.03l-.01.04-9.02 6.54c-.08.06-.07.09.03.1a.7.7 0 0 0 .23-.04c3.39-.94 6.9-1.94 10.55-2.98.03-.01.04 0 .04.02l-.03.03-10.35 4.4c-.03.02-.04.04-.03.06 0 .03.01.04.04.04H35L45.88 28c.02 0 .04 0 .04.02l.02.05c0 .01 0 .02-.02.02a778.04 778.04 0 0 0-10.77 1.93c-.16.05-.16.1 0 .12l10.83 1.92c.02 0 .03 0 .01.02l-.03.03-11.05-.51c-.05 0-.06.01-.03.05.02.04.05.07.1.09l10.28 4.35c.13.06.13.07 0 .03l-10.57-2.94c-.43-.12-.46-.05-.1.2l.8.57c.04.04.03.05-.02.04l-1.57-.22Z" fill="#FECA06"/><path d="M33.8 33.77a41.98 41.98 0 0 0-11.61.01 6.7 6.7 0 0 1-.9-5.18 7.06 7.06 0 0 1 4.67-5.08 6.86 6.86 0 0 1 8.6 4.65c.55 1.94.3 3.81-.76 5.6Z" fill="#ED1B24"/><path d="M31.72 31.17c-.36.38-.7.63-1 .74-1.71.63-3.11.23-4.2-1.2-.18-.24-.14-.29.12-.16.62.3 1.27.38 1.95.25a3.2 3.2 0 0 0 1.77-.94c.48-.5.77-1.1.87-1.8.1-.7 0-1.35-.32-1.95-.14-.25-.08-.3.15-.13 1.48 1.04 1.93 2.43 1.36 4.16-.1.31-.33.66-.7 1.03Z" fill="#FECA06"/><path d="M28.01 33.9a41.14 41.14 0 0 1 16.93 3.72h-.02A56.27 56.27 0 0 0 28 35.05a56.3 56.3 0 0 0-16.93 2.56 41.14 41.14 0 0 1 16.93-3.7Z" fill="#16893A"/><path d="M28 35.42c5.7 0 11.21.84 16.52 2.52.2.06.2.08-.01.04a87.77 87.77 0 0 0-33.03 0c-.2.04-.2.02-.01-.04a54.37 54.37 0 0 1 16.52-2.52Z" fill="#FECA06"/></svg>