<!-- by TradingView --><svg width="56" height="56" viewBox="0 0 56 56" xmlns="http://www.w3.org/2000/svg"><path fill="#F0F3FA" d="M0 0h56v56H0z"/><path d="M17.84 36h25.33c.05 0 .1.02.12.07l1.7 2.82c.01.03.01.05 0 .07a.07.07 0 0 1-.06.04h-33.8c-.13 0-.16-.06-.1-.18L27.9 10.06A.12.12 0 0 1 28 10c.05 0 .09.02.11.06l2.25 3.9c.08.13.08.26 0 .39L18.27 34.98c-.23.4-.4.71-.48.94-.02.05 0 .08.05.08Z" fill="#EC1B24"/><path d="m27.5 20.54 3.2-5.5c.04-.06.08-.06.12 0l3.21 5.48c.02.03.02.05 0 .07a.06.06 0 0 1-.05.03l-6.42.01a.06.06 0 0 1-.05-.03.06.06 0 0 1 0-.06ZM25.67 23.23l1.12-1.84a.08.08 0 0 1 .08-.04h7.8c.04 0 .06.01.08.04l1.1 1.84c.02.02.02.05 0 .08a.08.08 0 0 1-.07.04H25.74a.08.08 0 0 1-.07-.04.07.07 0 0 1 0-.08ZM23.51 26.86l1.43-2.31a.1.1 0 0 1 .08-.05h11.5a.1.1 0 0 1 .1.05l1.4 2.31c.02.03.02.06 0 .1a.1.1 0 0 1-.09.04H23.6a.1.1 0 0 1-.09-.05.08.08 0 0 1 0-.09ZM38.77 28.54l1.46 2.35c.01.03.01.05 0 .07a.08.08 0 0 1-.07.04H21.37a.07.07 0 0 1-.07-.04.06.06 0 0 1 0-.07l1.48-2.35a.07.07 0 0 1 .07-.04H38.7c.03 0 .05.01.07.04Z" fill="#2E3092"/><path fill-rule="evenodd" d="M23.38 35.46v-.08c0-.03-.01-.04-.04-.04h-1.37c-.03 0-.04-.01-.04-.04v-3.26c0-.03-.01-.04-.04-.04h-1.35c-.03 0-.04.01-.04.04v3.42c0 .03.01.04.04.04h2.8c.03 0 .04-.01.04-.04Zm12.1-3.21c0-.05.03-.08.08-.08.54-.03 1 .2 1.35.66l.02.01h.09c.06 0 .08-.02.04-.08-.3-.39-.67-.63-1.1-.72-.46-.1-.87 0-1.25.29-.35.27-.56.56-.64.88-.1.38-.1.75 0 1.09.09.32.25.59.48.8.24.2.51.34.83.38.34.05.69 0 1.04-.15.31-.13.55-.38.72-.76v-.06a.11.11 0 0 0-.03-.03c-.03-.02-.06-.01-.08.02-.25.34-.45.56-.6.66-.2.14-.47.2-.8.19-.1 0-.15-.06-.15-.16v-2.94ZM25 34.88c0 .38.15.52.48.42l.37-.1c.37-.11.56-.38.57-.8l.06-2.37c0-.02.01-.03.03-.03h.05c.02 0 .03.01.03.03.02.44.03 1.17.04 2.2 0 .64-.27 1.02-.8 1.16a2.6 2.6 0 0 1-1.38.03c-.5-.14-.77-.5-.8-1.05-.02-.26-.02-1-.02-2.24 0-.08.03-.12.1-.12h1.15c.07 0 .12.04.12.1v2.77ZM30.23 32H27.2c-.06 0-.09.03-.09.1v.05c0 .03.01.04.03.04h.73c.08 0 .12.04.12.13v3.07c0 .08.03.11.1.11a35.42 35.42 0 0 1 1.23 0c.07 0 .1-.03.1-.11v-3.07c0-.09.05-.13.13-.13h.72c.02 0 .03-.01.03-.04v-.06c0-.06-.03-.1-.08-.09Zm10.26 2.99c.34-.34.51-.76.51-1.24s-.17-.9-.5-1.24a1.68 1.68 0 0 0-1.25-.51c-.48 0-.9.17-1.23.51-.35.34-.52.76-.52 1.24s.17.9.52 1.24c.34.34.75.51 1.23.51.49 0 .9-.17 1.24-.51Zm-1.25-2.83c-.11 0-.24.06-.24.18v2.83c0 .11.14.17.25.17h.04c.42 0 .79-.15 1.09-.46.3-.3.44-.66.44-1.09v-.1c0-.42-.15-.78-.45-1.08-.3-.3-.67-.45-1.1-.45h-.03Zm-8.37 2.88-.22.44c0 .02-.02.03-.05.01l-.07-.04c-.02 0-.03-.03-.02-.05l1.63-3.36c.02-.05.05-.05.07 0l1.62 3.38c.02.04 0 .06-.03.06h-1.33c-.02 0-.03 0-.04-.02l-.23-.43-.03-.02H30.9l-.03.02Zm1.1-.16h-.9a.09.09 0 0 1-.07-.05.1.1 0 0 1 0-.1l.48-1a.07.07 0 0 1 .06-.04c.03 0 .06.02.07.05l.48 1.04a.1.1 0 0 1 0 .05c0 .08-.03.1-.09.06a.05.05 0 0 0-.03-.01Z" fill="#2E3092"/></svg>