<!-- by TradingView --><svg width="56" height="56" viewBox="0 0 56 56" xmlns="http://www.w3.org/2000/svg"><path fill="#F0F3FA" d="M0 0h56v56H0z"/><path d="m28.63 16 1.9.13c2.17.16 4.2.51 6.12 1.06 1.07.31 2.12.69 3.15 1.13a16.9 16.9 0 0 1 5.44 3.6A8.84 8.84 0 0 1 48 27.64v.71a8.78 8.78 0 0 1-2.75 5.74 16.9 16.9 0 0 1-5.46 3.6A29.43 29.43 0 0 1 28.75 40h-1.44c-4-.08-7.7-.85-11.09-2.3a15.92 15.92 0 0 1-6.25-4.5A8.69 8.69 0 0 1 8 28.32v-.6c.1-1.36.48-2.59 1.13-3.68.8-1.33 1.87-2.49 3.2-3.48a20.84 20.84 0 0 1 5.96-3.04 30.1 30.1 0 0 1 7.3-1.4l1.78-.12h1.26Zm-2.42.83c.08-.08.07-.12-.05-.11-2.5.11-4.88.52-7.1 1.22-2.42.75-4.55 1.8-6.42 3.17-.13.1-.11.14.04.14h11.08c.07 0 .1-.03.12-.1.53-1.98 1.3-3.42 2.33-4.32Zm1.22 3.35c.05.07.11.12.18.16.06.02.08 0 .08-.05V16.8a.12.12 0 0 0-.05-.1.12.12 0 0 0-.12 0c-.76.35-1.4.98-1.93 1.88-.38.66-.73 1.52-1.05 2.58-.02.06 0 .1.06.1h3c.07 0 .08-.03.02-.09l-.64-.55c-.04-.04-.04-.07 0-.11l.3-.34c.05-.06.1-.06.15.01Zm1.02-3.48c-.08-.03-.12 0-.12.09v3.97a.48.48 0 0 0 .5.48h2.6c.06 0 .09-.03.07-.1l-.08-.2c-.39-1.1-.74-1.93-1.05-2.46a3.82 3.82 0 0 0-1.92-1.78Zm8.85 4.17a.85.85 0 0 0-.3.29c-.03.06-.02.1.06.1h6.3c.15 0 .16-.05.04-.14A22.03 22.03 0 0 0 37 17.94c-2.24-.7-4.61-1.1-7.11-1.22-.13 0-.15.03-.05.12.45.4.84.88 1.14 1.44.54.98.88 1.8 1.03 2.44.04.2.08.36.13.47.03.05.07.07.12.05.05-.02.07-.06.06-.12l-.1-1.76c0-.06.03-.09.09-.09h.51c.07 0 .1.03.1.1v1.77c0 .07.04.11.1.11h2.95c.04 0 .08-.02.12-.05l.74-.77c.04-.05.1-.05.14 0l.35.32c.05.04.05.08-.01.12Zm-8.98 4.65c0 .04.02.06.07.06l3.8-.35c.02 0 .04-.02.05-.04 0-.02 0-.04-.02-.06l-3.8-3.27a.05.05 0 0 0-.06-.01.05.05 0 0 0-.04.05v3.62Zm3.39-3.61c0-.03-.02-.04-.05-.04h-2.13c-.03 0-.04 0-.05.03l.01.06 2.56 2.2c.02.01.04.02.06 0 .02 0 .03-.03.03-.05l-.43-2.2Zm1.35 2.29c0 .02.01.04.03.05.03 0 .05 0 .06-.02l2.22-2.28c.02-.02.02-.04.01-.06a.05.05 0 0 0-.05-.03l-2.3.02c-.04 0-.06.02-.06.06l.09 2.26Zm-19.96-.53h1.47c.09 0 .13-.04.14-.11l.1-1.23c0-.08.04-.11.1-.11h3.78c.09 0 .15.04.18.12l1.74 3.87c.02.06.07.08.13.08l2.2-.2c.08-.01.12-.05.12-.12.09-1.38.3-2.73.62-4.05.01-.03 0-.05-.04-.05H11.9a.3.3 0 0 0-.21.08 9.28 9.28 0 0 0-2.65 3.85c-.18.5-.3 1.19-.37 2.04 0 .07.03.1.1.1h.23c.07 0 .1-.03.1-.09v-.14c0-.07.03-.1.1-.1l1.1.08c.04 0 .05-.01.03-.05l-1.1-1.69a.07.07 0 0 1 0-.07.07.07 0 0 1 .06-.04h3.46c.07 0 .1-.03.11-.1l.15-1.98c0-.06.04-.09.1-.09Zm11.26-1.8c-.06 0-.1.03-.1.09l-.6 3.92c0 .1.03.13.12.12l3.82-.35c.06 0 .1-.04.1-.1v-3.58c0-.06-.04-.1-.11-.1h-3.23Zm20.28.52-2.43 4.67a.24.24 0 0 0-.02.15l.1.64c0 .06.04.1.1.1h4.91c.04 0 .06-.02.06-.06-.08-2.2-1.08-4.18-3-5.94a.3.3 0 0 0-.2-.08H36.4a.2.2 0 0 0-.15.06l-3 3.13c-.05.04-.04.06.02.06l5.63-.52c.08 0 .13-.05.17-.12l.61-1.4a.1.1 0 0 1 .09-.07l4.8-.7c.03 0 .05 0 .06.02.02.02.02.04 0 .06ZM28 32.84h17.44c.04 0 .07-.02.1-.05a7.82 7.82 0 0 0 1.79-4.15c0-.04-.02-.06-.06-.06a19332.54 19332.54 0 0 0-38.54 0c-.04 0-.06.02-.05.06a7.82 7.82 0 0 0 1.79 4.15c.02.03.05.05.1.05H28Zm-4.45.71c-.01-.05-.04-.08-.1-.08H11.2c-.12 0-.13.04-.06.12 1.8 1.79 4.11 3.18 6.94 4.17 2.47.88 5.16 1.4 8.07 1.55.1.01.12-.02.05-.1-1.28-1.26-2.16-3.14-2.64-5.66Zm8.9 0c-.48 2.52-1.36 4.4-2.64 5.66-.07.08-.06.11.05.1a28.9 28.9 0 0 0 8.07-1.55c2.83-1 5.14-2.38 6.93-4.17.08-.08.06-.12-.05-.12H32.56c-.06 0-.09.03-.1.08Zm-7.3 3.03c.59 1.4 1.38 2.32 2.4 2.74a.1.1 0 0 0 .09 0 .1.1 0 0 0 .04-.08v-5.7c0-.05-.02-.07-.07-.07h-3.37c-.05 0-.08.03-.06.08.24 1.03.56 2.04.97 3.03Zm5.7 0c.4-.98.73-2 .98-3.03 0-.05-.02-.08-.07-.08H28.4c-.05 0-.08.02-.08.07v5.7c0 .03.02.06.05.08a.1.1 0 0 0 .09 0c1.01-.41 1.81-1.33 2.4-2.74Z" fill="#2D2F91"/><path d="M24.44 29.9a.2.2 0 0 0 .14.1l.29.07c.44.1.74.2.91.29.3.16.45.38.46.66.02.4-.15.68-.52.84-.3.14-.66.17-1.09.1-.5-.08-.81-.38-.93-.88-.01-.05.01-.08.07-.09l.42-.04c.06 0 .1.02.12.07.2.48.59.6 1.13.37a.3.3 0 0 0 .18-.19.26.26 0 0 0-.03-.24c-.04-.06-.14-.12-.28-.15l-.11-.03c-.46-.1-.78-.22-.98-.32-.34-.2-.47-.45-.4-.76.06-.23.21-.41.45-.54.22-.12.47-.17.75-.16.29.01.54.09.75.22.23.15.37.35.41.6.01.04-.01.07-.06.07l-.44.04a.13.13 0 0 1-.13-.07c-.23-.38-.56-.47-1.01-.26-.14.06-.17.16-.1.3Zm9.33-.23c-.24.18-.35.5-.32.95.03.47.2.74.5.82.48.14.8-.03.97-.5.01-.03.03-.04.07-.03l.52.12c.03 0 .04.02.03.05-.1.32-.3.56-.57.72-.25.15-.53.22-.84.2a1.44 1.44 0 0 1-.81-.31c-.25-.2-.4-.46-.47-.78a1.7 1.7 0 0 1 .23-1.33c.27-.39.69-.57 1.26-.56.6.02 1 .29 1.2.82 0 .02 0 .03-.03.04l-.54.1c-.03 0-.05 0-.06-.04a.72.72 0 0 0-.5-.41.74.74 0 0 0-.64.14Zm4.83 1.93c.27-.26.4-.56.4-.92v-.35c0-.36-.13-.67-.4-.92s-.6-.38-.98-.38h-.27c-.38 0-.7.13-.97.38s-.4.56-.4.92v.35c0 .36.13.66.4.92.27.25.59.38.97.38h.27c.38 0 .7-.13.98-.38Zm-.48-.39a.81.81 0 0 1-1.26 0c-.18-.2-.26-.43-.26-.71 0-.28.09-.51.26-.71a.81.81 0 0 1 1.26 0c.18.2.27.44.27.71 0 .28-.1.51-.27.71Zm-19.6-.28c.04 0 .06-.01.06-.04.13-.54.3-1.12.5-1.75.01-.05.05-.08.1-.08h.78c.06 0 .09.03.09.08v2.72c0 .06-.03.08-.09.08h-.43c-.06 0-.08-.02-.08-.08l.05-1.95c0-.01 0-.02-.02-.02l-.05-.01c-.03-.01-.05 0-.06.03l-.5 1.92c-.02.05-.06.09-.12.1l-.23.02c-.1 0-.17 0-.22-.02-.06-.01-.1-.05-.12-.1l-.5-1.92c0-.03-.03-.04-.06-.04l-.05.02c-.02 0-.02 0-.02.02l.05 1.95c0 .06-.03.08-.08.08h-.44c-.05 0-.08-.03-.08-.08v-2.72c0-.05.03-.08.09-.08h.77c.06 0 .1.03.11.08.2.63.36 1.21.5 1.75 0 .03.02.04.05.04Zm3.63-1.86a2.66 2.66 0 0 0-.46 0 .1.1 0 0 0-.1.07l-1.23 2.7c-.03.08 0 .11.08.11h.49c.07 0 .11-.03.14-.1l.2-.5c.02-.04.06-.06.13-.07h1.06c.07 0 .1.03.12.06l.21.51c.03.06.08.1.15.1h.48c.09 0 .12-.04.09-.11l-1.26-2.7a.1.1 0 0 0-.1-.07Zm-.58 1.74c-.06 0-.08-.02-.06-.08l.34-.9c.01-.02.03-.03.06-.03s.05 0 .06.03l.36.9c.02.05 0 .08-.06.08h-.7Zm5.92-.62h1.47c.04 0 .07.02.07.06v.36c0 .04-.03.06-.07.06H27.5c-.05 0-.07.02-.07.06v.66c0 .04.02.06.07.06h1.63c.05 0 .07.02.07.06v.37c0 .04-.02.06-.07.06h-2.25c-.05 0-.07-.02-.07-.06v-2.75c0-.05.02-.07.07-.07h2.2c.04 0 .06.02.06.07v.36c0 .04-.02.06-.07.06H27.5c-.05 0-.07.02-.07.06v.52c0 .04.02.06.07.06Zm4.91 1.5c-.3-.47-.56-.77-.78-.9-.13-.07-.12-.12.02-.16a.88.88 0 0 0 .54-.34c.1-.15.15-.32.12-.51a.75.75 0 0 0-.25-.48.93.93 0 0 0-.6-.22c-.56-.03-1.1-.03-1.63-.01-.06 0-.08.03-.08.08v2.71c0 .06.02.08.08.08h.47c.05 0 .07-.02.07-.07v-1.05c0-.06.03-.09.09-.09.3 0 .52.08.64.24l.7.94c.02.02.04.04.07.04h.68c.02 0 .02-.01.01-.03a10.1 10.1 0 0 1-.15-.23Zm-2.04-1.47v-.6c0-.04.02-.06.07-.06h.7a.7.7 0 0 1 .38.1c.1.06.16.14.16.23v.05c0 .09-.05.17-.16.24-.1.06-.23.1-.37.1h-.71c-.05 0-.07-.02-.07-.06Z" fill="#ED141D"/></svg>