<!-- by TradingView --><svg width="56" height="56" viewBox="0 0 56 56" xmlns="http://www.w3.org/2000/svg"><path fill="#F0F3FA" d="M0 0h56v56H0z"/><path d="M28.98 26.43A20.07 20.07 0 0 1 29 27h-1.14a.94.94 0 0 1-.26-.04l-.28-.08a5.3 5.3 0 0 0-.48-.1c-.22-.03-.39-.07-.5-.1a9.47 9.47 0 0 1-3.15-1.7c-.48-.4-1.01-.85-1.58-1.39a59.85 59.85 0 0 1-2-1.96c-1.06-.95-2.12-1.71-3.19-2.3a12.02 12.02 0 0 0-3.72-1.3c-1.1-.18-2.4-.3-3.9-.32a155.78 155.78 0 0 0-2.52-.04L6 17.01l.01-.01a65.87 65.87 0 0 1 1.65.19 73.22 73.22 0 0 0 3.74.2c1.13.04 2.09.1 2.86.2 1.03.12 1.96.31 2.8.56 1.18.36 2.27.9 3.29 1.59.16.11.3.22.4.33.41.39.83.82 1.27 1.3l1.47 1.62c.47.52.9.97 1.3 1.34.49.46.96.85 1.42 1.18.37.25.77.47 1.2.64.5.21 1.02.3 1.57.28Z" fill="#0C4DA2"/><path d="M28.29 28.13c-.25.1-.5.18-.79.25a3.03 3.03 0 0 1-.65.08l-.48.03a7.36 7.36 0 0 1-3.08-.8c-.6-.3-1.18-.64-1.77-1.01a3.19 3.19 0 0 1-.54-.49 7.84 7.84 0 0 0-.77-.65c-.1-.08-.19-.16-.27-.25a51.49 51.49 0 0 0-2.44-2.51 23.05 23.05 0 0 0-3.33-2.62L13.9 20a12.67 12.67 0 0 0-3.83-1.2 20.48 20.48 0 0 0-3.4-.2l-.03-.01-.28-.55.01-.03.11.01.76.03c2.34.03 4.38.27 6.13.73a8.37 8.37 0 0 1 1.03.35 13.55 13.55 0 0 1 1.86.89l.67.46c.19.12.34.24.46.34l.44.38.5.47a311.27 311.27 0 0 0 3.19 3.17c.1.1.27.24.5.4l1.05.78c.13.1.26.18.4.26l.68.36c.22.13.68.34 1.36.65.11.05.22.08.33.1l1.24.27c.09.02.18.02.28.02a171.66 171.66 0 0 1 .9-.01l.04.45-.01.01Z" fill="#0C4DA2"/><path d="M13.18 29.62 11.91 33l-.03.01H9.25c-.02 0-.02 0 0-.02l1.33-1 .02-.04 1.4-4.09h-1.31c-.02 0-.02-.01-.02-.03l.1-.7.01-.12h4.87c.02 0 .03.17.03.19l.85 3.3c0 .03.01.03.02 0L19 27.27v-.01l-1.58-1.38a6.85 6.85 0 0 1-.49-.47 31.3 31.3 0 0 0-4.14-3.7 16.3 16.3 0 0 0-1.66-1.07 8.81 8.81 0 0 0-2.7-1.01c-.18-.04-.41-.06-.7-.08a437.48 437.48 0 0 0-.82-.05l-.14-.47.01-.02 1.53.07a13.16 13.16 0 0 1 6.05 2.18 25.91 25.91 0 0 1 3.37 2.93l1.04 1.01c.36.35.71.66 1.04.94l1.32 1.13c.1.08.19.14.3.2.46.26.88.52 1.26.77.12.08.25.15.39.2.38.17.8.33 1.24.49.2.07.35.11.48.13l.33.05c.08.01.2.02.33.01a65.33 65.33 0 0 0 .65 0l-.1.35c0 .02 0 .03-.02.04a2.8 2.8 0 0 0-.11.05 1.21 1.21 0 0 1-.6.18c-.24.03-.42.04-.54.04h-.94a1.6 1.6 0 0 1-.35-.06 123.94 123.94 0 0 1-.4-.1l-1.52 3.37-.03.02h-3.46c-.01 0-.02-.02-.01-.03l.78-2.66c0-.03 0-.03-.01-.01l-1.84 2.68-.03.02H14c-.02 0-.02-.02-.03-.03l-.76-3.34c0-.03-.02-.03-.03 0Z" fill="#0C4DA2"/><path d="M29.02 27.01a31.26 31.26 0 0 0-.02-.7v-.98c0-.02 0-.02.02-.02l9.5-.53c.02 0 .02 0 .02-.02l-.46-2.7h.01l.96-.06c.01 0 .02 0 .03.02L40 24.4c0 .02.01.02.02.02l6.67-.79c.02 0 .03 0 .05.02l4.23 3.82c.03.02.02.03 0 .03l-21.96-.49Z" fill="#FFCB16"/><path fill-rule="evenodd" d="M35.34 30.88c-.2.4-.37.7-.5.9-.07.08-.13.17-.18.26-.32.49-.62.93-1.23.96H30.1l-.13-.01-.12-.02c-.02 0-.03 0-.04-.02a9.26 9.26 0 0 0-.07-.08c-.04-.04-.07-.1-.08-.2v-.02a32.8 32.8 0 0 0 .65-1.3h.87l.02.01V32h1.76s.78-.03.96-.53l.03-.08c.02-.04.02-.39-.06-.39h-2.08l-.2.01c-.25.02-.5.04-.69-.14a.21.21 0 0 1-.06-.14c-.02-.17 0-.3.06-.4l1-1.68a1.05 1.05 0 0 1 .49-.48c.07-.04.17-.08.3-.12a.77.77 0 0 1 .24-.03l3.23-.02c.06 0 .16.02.3.06.04 0 .07.02.09.04l.03.03.05.07.04.21c-.01.05-.04.13-.1.24a.34.34 0 0 0-.04.08l-.03.06-.03.05-.36.76a.05.05 0 0 1-.05.03l-.97.03-.01-.02.05-.4v-.03c-.02 0-.06-.06-.1-.1l-.08-.11a388.48 388.48 0 0 1-1.92 0c-.18 0-.37.19-.47.33a2.99 2.99 0 0 0-.23.49l.05.14.03.02h.08l.13.02h1.83c.82-.01 1.17-.01.9.83v.03c-.02 0-.02.01-.03.02Zm.88-.38-.01.01-.03.05-.02.05-.85 1.57a.4.4 0 0 0-.05.18c0 .29.07.5.24.63h3.28c.45 0 .87-.2 1.25-.62a4.6 4.6 0 0 0 .81-1.37h-1.26c-.02 0-.02.01-.03.02l-.13.26a.47.47 0 0 1-.12.15c-.04.03-.13.14-.22.26-.13.15-.26.3-.3.31l-1.5-.01c-.1 0-.59-.15-.47-.36.2-.39.43-.8.64-1.15l.4-.7c.16-.32.49-.77.82-.78h1.61l.02.02c.02.1.02.19.02.28a12.72 12.72 0 0 1-.1.66l.01.04h1.25l.02-.06v-.02l.45-1.22c.03-.1.04-.17.04-.23-.02-.2-.1-.33-.26-.4a.82.82 0 0 0-.34-.06H39c-.33-.01-.56 0-.7.02-.28.05-.53.16-.74.3-.16.12-.27.23-.34.34l-1 1.83Zm7.02-2.07c-.25.2-.45.44-.62.75-.9 1.66-1.4 2.57-1.48 2.74-.11.2-.17.41-.17.63 0 .15.04.26.14.34.09.07.2.1.34.1l2.89.01a1.79 1.79 0 0 0 1.52-.87l1.82-3.09c.06-.1.1-.2.11-.28.09-.5-.09-.76-.53-.76H44.8c-.33 0-.56.02-.7.04-.32.06-.6.2-.86.4Zm2.1 2.6-.2.34c-.1.19-.2.31-.29.39a.94.94 0 0 1-.62.24h-1.48c-.15 0-.24-.09-.26-.21-.01-.1.01-.22.08-.35l.24-.44c.21-.35.51-.87.8-1.4.15-.28.36-.46.63-.54.12-.04.3-.06.56-.06h1.29c.06 0 .1.03.16.07.05.05.08.12.08.22a.5.5 0 0 1-.07.23l-.19.3a31.87 31.87 0 0 0-.72 1.2Zm-19.17.63L24.55 33h-1.91l-.01-.04v-.02L28.9 28h2.36c.01 0 .02 0 0 .02L28.16 33H26.7c-.02 0-.02-.02-.01-.03l.8-1.3v-.02h-1.33Zm1.24-1.04 1.81-1.42c.02-.01.03-.01.01.01l-.94 1.5c0 .02-.02.02-.03.02l-.85-.1c-.02 0-.02 0 0-.01Z" fill="#0C4DA2"/></svg>