<!-- by TradingView --><svg width="56" height="56" viewBox="0 0 56 56" xmlns="http://www.w3.org/2000/svg"><path fill="#F0F3FA" d="M0 0h56v56H0z"/><path fill-rule="evenodd" d="M19.19 29.05c-.2-.36-.3-.71-.3-1.05 0-.34.1-.69.3-1.04l1.8-3.28a.06.06 0 0 0 0-.07l-1.33-2.42-.07-.13c-.22-.4-.4-.66-.53-.78a1.2 1.2 0 0 0-.83-.28h-7.35c-.27 0-.5.08-.68.24-.15.12-.3.33-.47.64l-3.6 6.54A1.2 1.2 0 0 0 6 28c0 .22.04.42.13.58l3.6 6.55c.17.3.32.51.47.63.18.16.41.24.68.24h7.35c.35 0 .63-.1.83-.28.13-.12.3-.38.53-.78l.07-.13 1.33-2.42a.06.06 0 0 0 0-.07l-1.8-3.27Zm-5.66-.56-.03.02-.02-.02-1.6-3.45a.06.06 0 0 0-.06-.04h-2.8l-.01.02L9 30.96c0 .02.01.03.03.03h1.63c.02 0 .03 0 .03-.02l.01-4.18c0-.16.03-.16.1-.03l2.07 4.2c0 .02.02.03.04.03a30.33 30.33 0 0 0 1.22-.02l2.07-4.2c.07-.14.1-.13.1.02v4.18c0 .02.02.03.04.03h1.63c.02 0 .03-.01.03-.04v-5.94l-.02-.01h-2.8a.06.06 0 0 0-.05.04l-1.6 3.44ZM49.87 28.58c.09-.17.13-.36.13-.58 0-.23-.05-.42-.13-.58l-3.6-6.55c-.17-.3-.32-.51-.47-.64a1.02 1.02 0 0 0-.68-.23h-7.35c-.36 0-.63.1-.83.28-.13.12-.31.38-.53.78l-.07.13-1.33 2.43a.06.06 0 0 0 0 .06l1.8 3.28c.2.36.3.7.3 1.04 0 .34-.1.69-.3 1.05l-1.8 3.27a.06.06 0 0 0 0 .07 923.26 923.26 0 0 0 1.4 2.55c.23.4.4.67.53.79.2.18.48.27.84.27h7.34c.27 0 .5-.08.69-.24.14-.12.3-.33.46-.63l3.6-6.55Zm-7.43-.1h2c.03 0 .05.02.05.05v.63c0 .1-.04.19-.11.26a.36.36 0 0 1-.25.09h-3.32c-.14 0-.23-.05-.27-.14a.97.97 0 0 1-.04-.33v-.08l.01-2.15c0-.15.08-.25.23-.3.08-.03.22-.04.4-.04h4.81c.02 0 .02-.01.02-.03v-1.4c0-.02-.01-.04-.04-.04h-5.09c-1.2.01-1.82.57-1.83 1.67L39 28.7c0 .65.01 1.02.03 1.12.09.43.33.74.72.93.29.14.68.21 1.17.22a82.78 82.78 0 0 0 2.67.02c.64 0 1.1-.05 1.4-.14.52-.16.84-.47.94-.93a3 3 0 0 0 .06-.64l.01-1.9c0-.02-.01-.03-.03-.03h-3.53c-.02 0-.03.01-.03.03v1.06c0 .02 0 .03.03.03Z" fill="#FD1723"/><path d="M31.34 20a983.47 983.47 0 0 0-6.68 0c-.42 0-.69.04-.8.09-.18.07-.32.17-.43.32a3.88 3.88 0 0 0-.37.6l-3.53 6.46c-.07.14-.1.31-.1.53 0 .22.03.4.1.54a2113.69 2113.69 0 0 0 3.58 6.55c.14.24.24.41.31.5.12.15.26.26.43.33.12.05.4.08.8.08a943.97 943.97 0 0 0 6.69 0c.41 0 .68-.03.8-.08.17-.07.31-.18.43-.33a4 4 0 0 0 .37-.6l3.52-6.45c.08-.14.12-.32.12-.54 0-.21-.04-.4-.12-.53a2147.87 2147.87 0 0 0-3.58-6.55 3.87 3.87 0 0 0-.3-.5 1.06 1.06 0 0 0-.43-.33 2.6 2.6 0 0 0-.81-.08ZM31 27.89c-.16.02-.16.04 0 .07.21.05.37.1.45.15.28.17.45.45.52.85.05.33.03.68-.06 1.05-.11.4-.35.67-.73.83-.27.11-.63.17-1.1.17a1293.64 1293.64 0 0 0-5.06-.01c-.01 0-.02-.01-.02-.03v-5.91c0-.03.01-.05.04-.05h5.14c.44.01.78.1 1.03.25.23.14.39.34.48.59a2.24 2.24 0 0 1-.1 1.6c-.14.26-.34.41-.6.44Zm-4.32-1.53c-.02 0-.03.01-.03.03v.96c0 .03.01.04.03.04h2.96c.14 0 .25-.06.34-.15.1-.1.15-.22.15-.36v-.03a.48.48 0 0 0-.15-.35.47.47 0 0 0-.34-.14h-2.96Zm.03 2.22c-.03 0-.04.02-.04.05v.93c0 .03.01.05.04.05h3.1c.14 0 .25-.04.34-.14.1-.1.14-.21.14-.35v-.04a.49.49 0 0 0-.47-.49h-3.1Z" fill="#003382"/></svg>