<!-- by TradingView --><svg width="56" height="56" viewBox="0 0 56 56" xmlns="http://www.w3.org/2000/svg"><path fill="#F0F3FA" d="M0 0h56v56H0z"/><path fill-rule="evenodd" d="M41.85 36.87c-.77-.53-1.63-.99-2.57-1.38-.09-.04-.1-.09-.03-.15a11.35 11.35 0 0 0 2.81-3.68 13.54 13.54 0 0 0 .32-10.55 13.96 13.96 0 0 0-4.9-6.14 16.47 16.47 0 0 0-7.53-2.86c-1.46-.2-3-.13-4.62.2-1.52.31-2.97.82-4.33 1.52a14.57 14.57 0 0 0-4.9 4.06 13.31 13.31 0 0 0-2.6 5.71c-.39 2.05-.36 4.02.08 5.93a9.53 9.53 0 0 0 2.88 5.12l.97.87c.08.07.07.12-.03.16-1.03.45-2.05.92-3.06 1.42-.49.23-.9.56-1.24.98a.39.39 0 0 0-.04.47c.19.36.37.91.54 1.65l.13.49.28 1.01a4.59 4.59 0 0 0 .57 1.2c.03.06.08.1.14.1.07 0 .12-.01.17-.06a12.2 12.2 0 0 1 1.81-1.5c.94-.6 1.65-.78 2.13-.5l.37.21c.86.51 1.52.85 1.97 1.03.74.28 1.48.41 2.23.38.93-.05 1.59-.1 1.97-.18 1.08-.22 2.75-.46 5.02-.75.57-.07 1.2-.1 1.88-.11.87 0 1.99.09 3.34.29l1.03.14c.61.08 1.12.09 1.52.02.46-.08.93-.27 1.42-.57l.65-.4c.76-.48 1.33-.82 1.7-1 .6-.31 1.18-.53 1.76-.66.32-.06.4-.23.22-.5a7.23 7.23 0 0 0-2.06-1.97Zm-3.5-1.22c-.07-.03-.07-.06-.03-.1a13.6 13.6 0 0 0 3.81-5.93 12.22 12.22 0 0 0-1.57-10.61 13.5 13.5 0 0 0-3.59-3.63 14.29 14.29 0 0 0-4.72-2.17c-3.6-.91-7.02-.63-10.25.85a13.68 13.68 0 0 0-7.58 8.42 13.63 13.63 0 0 0 .38 8.53 10.92 10.92 0 0 0 3.58 4.66.1.1 0 0 1 .04.1.1.1 0 0 1-.06.07 54.77 54.77 0 0 0-3.26 1.48c-.52.28-.94.6-1.26.94a.5.5 0 0 0-.11.52 40 40 0 0 1 .83 2.84c.12.25.3.37.57.33.07 0 .13-.03.18-.08a9.4 9.4 0 0 1 1.6-1.2c.78-.46 1.38-.56 1.78-.31 1.4.86 2.58 1.38 3.56 1.55 1.1.2 2.46.1 4.08-.26.66-.15 2.07-.34 4.23-.56.78-.08 1.57-.1 2.37-.08a17.52 17.52 0 0 1 2.5.23c.7.13 1.2.2 1.5.22.5.04.92-.01 1.23-.15.5-.22 1.2-.62 2.12-1.21l.56-.36c.39-.24.96-.48 1.71-.73l.38-.13a.15.15 0 0 0 .11-.1c.02-.06 0-.11-.03-.15-.42-.5-.9-.93-1.43-1.27a23.61 23.61 0 0 0-3.24-1.71Z" fill="#019540"/><path d="M18.85 35.62a10.75 10.75 0 0 1-4.37-6.97c-.17-.98-.26-1.9-.24-2.8 0-.58.12-1.42.33-2.52.16-.79.43-1.59.81-2.4a13.75 13.75 0 0 1 8.03-7.11 16.5 16.5 0 0 1 2.42-.57 13.1 13.1 0 0 1 2.46-.24c2.86.05 5.4.76 7.65 2.12a13.65 13.65 0 0 1 4.58 4.46 11.7 11.7 0 0 1 1.82 5.98 12.71 12.71 0 0 1-4.65 10.04c-.06.05-.05.1.02.12 2.09.87 3.7 1.8 4.82 2.79.04.03.05.08.03.13-.01.05-.05.08-.1.1-.64.11-1.23.34-1.76.68a36.8 36.8 0 0 1-2.37 1.44 2.1 2.1 0 0 1-.92.25c-.45.03-.78.02-.98-.03a19.37 19.37 0 0 0-6.07-.36c-.5.05-2.1.29-4.83.72-.2.04-.62.09-1.25.16a6.63 6.63 0 0 1-3.41-.5 88.28 88.28 0 0 1-2.46-1.17c-.74-.2-1.83.35-3.26 1.63a.17.17 0 0 1-.16.04.16.16 0 0 1-.12-.12l-.78-2.8a.3.3 0 0 1 .11-.35c.58-.5 1.6-1.05 3.06-1.66l.88-.38c.29-.13.53-.3.73-.52.05-.06.05-.11-.02-.16Z" fill="#019540"/><path d="M17.87 19.8c.08-.13.05-.23-.1-.3l-.43-.17a.35.35 0 0 1-.22-.26.34.34 0 0 1 .08-.31l.94-1.08c.07-.07.15-.1.25-.05.27.1.49.26.66.45.14.15.28.15.42.01l.66-.63c.13-.13.14-.25.03-.36l-.43-.4c-.15-.15-.14-.29.04-.41l1.17-.83c.16-.12.3-.1.43.06l.42.55c.06.08.13.1.22.06l1.14-.52c.1-.04.13-.12.07-.21-.18-.3-.29-.52-.31-.69-.03-.18.04-.3.23-.34l1.45-.38c.16-.04.26.02.3.17l.15.53c.05.19.17.24.36.18.3-.1.63-.15.97-.13.19 0 .26-.08.2-.25-.08-.31-.1-.55-.09-.72.02-.13.1-.2.24-.22l1.4-.09c.16 0 .23.06.23.2v2.5c0 .12-.07.2-.2.2-3.76.14-6.71 1.7-8.87 4.7-.2.27-.47.83-.83 1.68a8 8 0 0 0-.47 4.87 9.4 9.4 0 0 0 2.25 4.4l.79.84c.1.12.1.23-.01.34l-1.8 1.74c-.1.1-.2.1-.3 0l-1.06-1.02c-.1-.1-.1-.2-.03-.3.08-.11.26-.25.55-.4.17-.1.2-.21.08-.36l-.6-.78c-.1-.14-.22-.16-.36-.06l-.49.34c-.16.12-.3.1-.4-.08l-.73-1.25c-.1-.17-.06-.3.13-.38l.62-.28c.13-.06.18-.17.13-.33l-.2-.74c-.06-.2-.2-.3-.43-.27l-.68.08c-.18.03-.29-.05-.32-.21l-.28-1.33c-.04-.18.04-.27.22-.29l.76-.04c.16-.01.23-.1.2-.25l-.12-.91c-.03-.17-.13-.26-.3-.27l-.6-.05c-.19-.02-.27-.11-.26-.3l.12-1.36c.01-.2.12-.28.32-.26l.81.06c.06 0 .1-.02.12-.08l.32-1.1c.03-.11-.01-.18-.13-.2l-.7-.2c-.18-.05-.24-.15-.16-.32l.6-1.33a.26.26 0 0 1 .16-.14.27.27 0 0 1 .22.02l.52.3c.16.08.28.05.37-.1l.56-.93ZM34.75 16.08c.04.05.08.05.1-.02.16-.37.11-.65-.13-.82l-.68-.28c-1.17-.5-2.33-.86-3.46-1.08a8.74 8.74 0 0 0-1.8-.1c-.07 0-.12-.04-.14-.1l-.01-.07c-.02-.05 0-.08.06-.07 4.83.23 8.55 2.29 11.17 6.16.15.23.17.5.05.83-.07.2-.22.46-.45.79a.24.24 0 0 0-.03.21l.3 1c0 .03 0 .04-.03.04l-.05.02c-.02 0-.03 0-.04-.02l-.36-.87a.18.18 0 0 0-.16-.11c-.08 0-.2 0-.34-.02-.4 0-.68-.04-.84-.1-.24-.1-.47-.29-.67-.58a10.38 10.38 0 0 0-8.38-4.61c-.06 0-.09-.04-.09-.09v-.07c0-.05.03-.07.07-.07.95 0 2.17.27 3.68.8.31.1.57.22.76.35.17.12.34.14.52.08l.3-.1c.2-.07.2-.15.01-.22a3.1 3.1 0 0 1-1.25-.97c-.15-.2-.29-.3-.41-.34l-.34-.06c-.18-.03-.3-.06-.4-.09a8.17 8.17 0 0 0-2.81-.46c-.06 0-.1-.02-.12-.08l-.01-.07c-.02-.04 0-.06.04-.05 1.33.08 2.24.2 2.74.38a3.94 3.94 0 0 0 1.88.3c.52-.01.96.17 1.32.56Z" fill="#fff"/><path d="M26.7 14.77c.06-.01.09-.05.08-.1l-.05-.72c0-.12.06-.2.19-.2l1.03-.07c.15 0 .22.06.22.2V16c0 .12-.06.17-.17.18a11.12 11.12 0 0 0-8 3.7 8.74 8.74 0 0 0-2.06 3.77l-.14.5c-.1.32-.15.57-.17.72a9.63 9.63 0 0 0 3.1 7.94c.14.13.14.25 0 .38l-1.49 1.44c-.13.13-.27.13-.4 0l-.74-.7c-.13-.13-.12-.25.03-.36l.59-.41c.08-.06.1-.13.03-.2l-.9-1.19c-.03-.04-.08-.05-.13-.03l-.82.37c-.13.06-.23.03-.29-.1l-.48-1c-.06-.12-.03-.2.1-.26l.63-.3c.12-.04.16-.13.13-.24l-.33-1.17c-.04-.16-.15-.23-.31-.2l-.7.1c-.17.03-.28-.04-.33-.2l-.27-.99c-.06-.2.02-.32.25-.33l.64-.04c.2-.01.28-.12.27-.31l-.08-1.18c-.01-.17-.11-.27-.29-.28l-.7-.06c-.16-.01-.24-.1-.23-.27l.09-1.05c.01-.15.1-.22.25-.2l.84.06c.11 0 .19-.04.22-.15l.34-1.18c.04-.14-.02-.25-.16-.3l-.7-.3c-.12-.05-.16-.14-.1-.26l.44-.98c.07-.15.18-.19.33-.12l.62.26c.14.05.25.02.33-.1l.68-1.15c.08-.14.05-.25-.1-.34l-.51-.28c-.18-.1-.2-.24-.07-.4l.75-.85c.12-.14.25-.15.39-.04l.6.5c.07.04.13.04.2 0l.96-.82c.18-.15.2-.32.04-.5l-.43-.49c-.07-.08-.06-.14.03-.2l1-.71c.12-.09.23-.07.32.05l.48.63c.04.05.09.07.15.04l1.5-.68c.09-.03.1-.1.07-.18l-.35-.72c-.07-.14-.02-.23.13-.27l1.26-.32c.14-.04.23.01.27.15l.18.68c.03.1.1.14.21.12l1.54-.4Z" fill="#136C3A"/><path d="M35.91 17.35c-.15-.22-.16-.42-.03-.62.04-.06.03-.1-.03-.14l-.08-.05c-.09-.04-.14-.02-.15.07l-.01.18c0 .09-.06.12-.14.1a.72.72 0 0 1-.25-.11c-.06-.04-.09-.1-.07-.18a.44.44 0 0 0-.08-.4c-.05-.06-.05-.13 0-.2a.4.4 0 0 0 .07-.27c0-.09.04-.11.12-.07.54.28.9.5 1.1.68.24.2.43.35.56.43.25.15.44.3.55.43.26.3.69.76 1.28 1.37.2.2.2.39 0 .56l-.08.07a.25.25 0 0 0-.1.19c0 .13-.03.24-.1.33-.04.07-.09.07-.14.02-.23-.2-.23-.42.01-.65a.14.14 0 0 0 .04-.06c.02-.07 0-.13-.05-.17-.07-.06-.13-.05-.17.03l-.04.06c-.06.1-.16.14-.28.1-.12-.03-.18-.11-.17-.24l.07-.76c0-.04-.02-.06-.05-.06h-.07c-.02 0-.04 0-.04.03l-.04.22c-.01.08-.05.14-.1.17a.19.19 0 0 1-.16.03.18.18 0 0 1-.14-.14c-.04-.2-.02-.42.07-.63.02-.06 0-.08-.05-.09h-.09c-.05 0-.09.01-.1.06-.18.43-.48.7-.9.78-.1.02-.11.07-.04.14.1.11.23.13.38.05.32-.16.56-.17.75-.04.07.05.07.1 0 .16-.17.13-.3.2-.41.18-.28-.02-.3.05-.08.2.07.06.22.04.45-.05a.35.35 0 0 1 .23-.02l.31.1c.1.02.12.07.07.14l-.03.05c-.06.09-.13.12-.21.1a.97.97 0 0 0-.37-.04c-.11.01-.14.07-.1.16l.04.07c.03.08.1.11.18.1l.62-.04c.07 0 .12.02.16.07l.1.1a.1.1 0 0 1 .02.11.1.1 0 0 1-.1.07l-.92.06a.31.31 0 0 1-.3-.14 3.35 3.35 0 0 0-.92-1.06c-.25-.17-.5-.39-.76-.65-.06-.06-.05-.1.04-.1l.55-.08c.05 0 .13-.03.23-.06.19-.07.36-.08.5-.03.12.04.16 0 .1-.12a1.82 1.82 0 0 1-.12-.96c0-.03-.02-.04-.05-.04h-.08c-.03 0-.04.02-.04.05-.02.36-.13.61-.33.75-.24.17-.58.3-1.03.37a.32.32 0 0 1-.22-.03l-.7-.4c-.11-.06-.1-.11.01-.17l.95-.43a.23.23 0 0 1 .2 0c.08.03.13.09.14.18.02.06-.01.1-.08.13-.26.08-.43.17-.51.28-.09.12-.06.17.09.16l.27-.02c.11 0 .2-.06.23-.17.06-.16.25-.2.58-.14.06 0 .08-.01.04-.06Z" fill="#EEAE6A"/><path d="M34 16.45c.14.06.27.1.4.1.06 0 .1.04.12.1l.05.16c.02.08-.01.1-.09.08-.5-.18-.97-.5-1.4-.96-.06-.05-.05-.1.03-.11.58-.18 1.03-.05 1.37.4.05.08.03.11-.07.1l-.36-.02c-.02 0-.04 0-.05.03l-.02.05c-.02.03 0 .06.03.07ZM39.24 20.23a.14.14 0 0 0-.05-.03l-.07.01a.5.5 0 0 0-.12.14c-.04.07-.1.08-.17.05a.48.48 0 0 1-.25-.24.23.23 0 0 1 0-.2l.34-.73c.08-.18.18-.2.3-.04l.46.61c.13.16.15.34.06.52l-.34.77c-.04.08-.1.1-.16.02-.22-.25-.22-.51 0-.8.03-.02.03-.05 0-.08ZM38.7 20.87l.32.27c.07.06.06.1-.03.12-.87.19-1.45-.05-1.73-.73a.14.14 0 0 1 .02-.15.16.16 0 0 1 .14-.07h.7c.3 0 .45.13.48.37 0 .08.03.14.1.19Z" fill="#EEAE6A"/><path d="M39.44 27.87c-.1-.6.06-1.16.49-1.65l.09-.1-.19-2.68c0-.05 0-.08.03-.08s.04.01.05.04c.2.87.3 1.68.32 2.43 0 .2.08.47.23.8.12.28.2.5.2.64a.97.97 0 0 1-.23.69c-.13.16-.09.22.12.18.5-.09.74-.27.74-.55v-1.33c.02-1.02 0-1.73-.05-2.13a10.2 10.2 0 0 0-.76-2.48c0-.04 0-.07.02-.07.08-.06.15-.04.2.06.94 2.3 1.12 4.64.54 7.05a11.74 11.74 0 0 1-2.44 4.77c-.24.28-.48.45-.73.5-.15.03-.4.02-.75-.04-.22-.04-.4-.06-.53-.07-.05 0-.12.01-.18.07l-1.04.82h-.06l-.08-.07c-.03-.02-.03-.05 0-.07l.89-.63c.15-.1.2-.25.14-.42l-.06-.18c-.22-.65-.22-1.1 0-1.37a9.32 9.32 0 0 0 2.14-7.94 5.99 5.99 0 0 0-.27-.89l-.22-.63c-.01-.04 0-.06.05-.06h.07a8.43 8.43 0 0 1 .65 4.89c-.01.07 0 .13.06.18l.47.37c.07.06.1.05.09-.05Z" fill="#fff"/><path fill-rule="evenodd" d="M20.8 25.92v.01l-.02 2.83c0 .14.06.24.2.24h.14c.13 0 .2-.1.2-.24V23.1c0-.08-.04-.1-.1-.1h-.63c-.05 0-.08.12-.09.17l-.27 3.61c-.02.26-.06.26-.12.01-.05-.2-.08-.34-.08-.42-.05-1.1-.1-2.16-.18-3.19 0-.1-.06-.18-.15-.18h-.58c-.08 0-.12.08-.12.17v5.62c0 .11.05.2.16.21h.18c.1 0 .15-.05.16-.16l.01-2.8h.06l.01.04.32 2.78c.01.1.07.15.16.14h.3c.06 0 .1-.1.1-.16l.23-2.9c0-.02 0-.03.03-.03h.08Zm3.95 1.58c-.1-.42-.15-.92-.15-1.5 0-.6.05-1.1.15-1.52.06-.24.22-.37.5-.37.06 0 .12.06.16.18.08.21.12.43.12.65 0 .14.07.21.21.21h.24c.14 0 .2-.07.18-.2-.1-.84-.25-1.36-.42-1.57-.35-.42-.7-.48-1.03-.19-.28.25-.46.6-.55 1.09a9.53 9.53 0 0 0 0 3.43c.1.48.27.84.55 1.08.34.3.68.23 1.02-.18.18-.21.32-.74.43-1.58.01-.13-.04-.2-.18-.2h-.24c-.14 0-.21.08-.21.22 0 .22-.04.43-.12.65-.04.12-.1.18-.17.18-.27 0-.43-.13-.5-.38Zm-1.05-2.09v.9c0 .1-.05.15-.14.15h-.88c-.08 0-.13.05-.13.14v1.19c0 .1.05.22.14.21h1c.1 0 .14.04.15.13l.01.72c0 .1-.04.15-.13.15h-1.59c-.09 0-.13-.05-.13-.14v-5.72c0-.1.04-.14.13-.14h1.53c.08 0 .13.05.13.14v.74c0 .1-.05.12-.13.12h-.98c-.09 0-.13.08-.13.17v.95c0 .1.04.15.13.15h.88c.1 0 .14.05.14.14ZM29.1 29h.33c.08 0 .11-.04.11-.12v-2.21c0-.08.04-.12.12-.12h.82c.08 0 .12-.04.12-.12v-.92c0-.08-.04-.12-.12-.12h-.82c-.08 0-.12-.04-.12-.11v-1.15c0-.08.04-.13.12-.13h1c.07 0 .11-.03.11-.11v-.77c0-.08-.04-.12-.11-.12H29.1c-.07 0-.11.04-.11.12v5.76c0 .08.04.12.11.12Zm-2.45-.88c.23.59.51.88.84.88.34 0 .62-.3.85-.88.24-.58.36-1.29.36-2.12a5.7 5.7 0 0 0-.35-2.12c-.23-.59-.51-.88-.85-.88-.33 0-.61.3-.85.88-.23.58-.35 1.29-.35 2.12 0 .83.11 1.53.35 2.12Zm.85-.18c-.33 0-.6-.86-.6-1.93 0-1.06.26-1.92.6-1.92.32 0 .6.86.6 1.92s-.27 1.93-.6 1.93ZM32.05 29c-.33 0-.61-.3-.85-.88a5.7 5.7 0 0 1-.34-2.12c0-.83.12-1.53.35-2.12.24-.58.52-.87.85-.87.33 0 .62.3.85.88.23.58.35 1.29.35 2.12a5.7 5.7 0 0 1-.36 2.11c-.23.59-.52.88-.85.88Zm-.57-2.98c-.01 1.05.25 1.91.57 1.92.32 0 .58-.86.59-1.92 0-1.06-.25-1.92-.57-1.92-.32 0-.59.86-.6 1.92Zm2.2 2.1c.24.59.52.88.85.88.33 0 .62-.3.85-.88.23-.58.35-1.3.35-2.12 0-.83-.12-1.54-.35-2.12-.23-.59-.52-.88-.85-.88-.33 0-.61.3-.85.88-.23.58-.35 1.3-.35 2.12 0 .83.12 1.54.35 2.12Zm.85-.21c-.34 0-.61-.85-.62-1.9 0-1.04.27-1.89.61-1.89.34 0 .61.85.61 1.9 0 1.04-.27 1.89-.6 1.89ZM36 23.14c0-.1.04-.14.12-.14h.8c.29 0 .55.2.76.6a3 3 0 0 1 .32 1.43v1.94c0 .56-.1 1.04-.31 1.43-.21.4-.47.6-.77.6h-.79c-.08 0-.12-.04-.12-.13L36 23.14Zm.56 1.16c0-.13.06-.2.18-.2h.06c.18 0 .32.1.44.3.12.2.18.45.18.74v1.77c0 .29-.06.53-.18.73-.12.2-.27.3-.44.3h-.06c-.12 0-.18-.06-.18-.19V24.3Z" fill="#fff"/><path d="M40.04 27.63a.49.49 0 0 0-.06.02.08.08 0 0 0-.04.06l-.06.33c0 .05-.04.07-.09.06-.01 0-.03 0-.05-.02a.1.1 0 0 1-.05-.07c-.06-.6.07-1.12.39-1.57.03-.04.05-.04.06 0l.27.98c.02.06 0 .11-.05.16a.3.3 0 0 0-.1.23c-.01.07-.03.07-.07 0l-.06-.14c-.02-.04-.05-.05-.1-.04ZM39.13 29.53c-.1-.15-.27-.33-.51-.54a.18.18 0 0 1-.07-.2c.11-.41.18-.73.2-.97.01-.08.05-.07.12.03.03.05.24.2.62.44.25.16.27.37.07.65a.3.3 0 0 0-.05.19v.3c-.05.4-.18.43-.38.1Z" fill="#EEAE6A"/><path d="M37.78 31.6c.15.1.21.27.18.52-.02.09.02.11.1.08.34-.13.64-.13.9-.01.1.04.14 0 .14-.08v-.08c0-.05-.03-.09-.08-.1a.88.88 0 0 0-.42 0c-.03.02-.06 0-.09-.02a.08.08 0 0 1-.01-.08.6.6 0 0 1 .33-.38c.1-.04.28-.07.54-.1l.33-.04c.06 0 .08-.04.06-.1l-.01-.07c-.03-.08-.08-.1-.17-.09l-.36.1a.16.16 0 0 1-.17-.05.14.14 0 0 1-.03-.16c.04-.1.14-.2.3-.27a.2.2 0 0 1 .2.02c.14.08.29.07.45-.05a.05.05 0 0 0 .03-.05v-.07c0-.03-.02-.04-.05-.04h-.46c-.08 0-.11-.04-.1-.12.02-.2.13-.34.3-.4.08-.03.1-.08.08-.15-.07-.21-.04-.37.1-.48a.5.5 0 0 1 .2-.1l.36-.1c.04 0 .06-.03.05-.07l-.03-.1c-.01-.04-.04-.05-.08-.04l-.32.08c-.1.02-.16-.01-.18-.11-.03-.16.01-.27.12-.32.1-.04.3-.1.64-.17.05-.01.1-.04.13-.07.08-.08.17-.1.27-.06.07.03.09.07.07.14-.22.6-.36 1.01-.43 1.25a11.94 11.94 0 0 1-1.26 2.65.45.45 0 0 1-.39.24 2.2 2.2 0 0 1-1.1-.2c-.15-.07-.31-.24-.49-.53a4.6 4.6 0 0 0-.16-.24.2.2 0 0 1-.03-.19c.1-.3.29-.6.57-.9.07-.08.12-.06.14.03l.13.45c.02.08.08.13.17.13h.15c.09 0 .13.04.12.13-.03.2-.1.35-.2.44a.12.12 0 0 1-.11.03.12.12 0 0 1-.1-.08c-.07-.2-.19-.37-.34-.52a.08.08 0 0 0-.1-.02c-.02.01-.04.04-.04.07v.19c0 .11.05.2.15.26Z" fill="#EEAE6A"/><path d="M38.04 30.37a.13.13 0 0 1-.06.03c-.1.03-.12 0-.09-.1l.5-1.25c.05-.14.1-.14.14.01l.05.2c.02.05.05.1.1.14.23.19.39.36.47.52.18.34.08.45-.31.33-.05-.01-.08-.11-.08-.3 0-.09-.04-.12-.12-.1a.39.39 0 0 0-.2.16c-.06.09-.04.15.06.2l.22.09c.05.02.08.05.1.1.1.27.08.47-.1.61a.16.16 0 0 1-.14.04c-.1-.02-.14-.09-.15-.19a.3.3 0 0 0-.08-.2.58.58 0 0 1-.14-.24c-.03-.11-.09-.13-.17-.05ZM37.07 32.3c-.05-.18-.1-.18-.15 0a.73.73 0 0 0 .14.7c.06.08.06.16 0 .23l-.18.2c-.09.1-.16.1-.22-.02-.34-.66-.22-1.25.35-1.75.04-.04.07-.03.1.01l.42.88c.05.1.02.16-.08.2l-.06.04c-.11.05-.18.02-.2-.1l-.12-.4ZM38.16 33.1l-.45-.03c-.07 0-.09-.04-.06-.1l.07-.16c.03-.07.09-.1.17-.1l1 .08c.12 0 .14.06.07.14l-.6.7c-.1.1-.22.15-.37.14l-.8-.06c-.14-.02-.17-.07-.07-.18l.07-.09a.36.36 0 0 1 .28-.12h.62l.1-.13c.05-.05.04-.08-.03-.09Z" fill="#EEAE6A"/><path d="m22.2 37.54.78.16a9.4 9.4 0 0 1 2.38 2.16c.02.02.03.05.01.08a.08.08 0 0 1-.07.04 4.98 4.98 0 0 1-2.27-.49c-.87-.4-1.39-.94-1.55-1.62-.02-.07-.07-.1-.14-.1l-1.2.17a.27.27 0 0 0-.13-.02c-.12.02-.17 0-.16-.03a.22.22 0 0 0 .01-.09c0-.06-.03-.09-.1-.07-.4.11-.8.16-1.15.14-.14-.4-.14-.68.01-.84l.2-.23c.26-.3.47-.52.63-.63.64-.45 1.27-.82 1.9-1.1a.2.2 0 0 1 .17 0c.06.03.1.08.1.14.03.26.03.49-.02.67-.03.13-.14.32-.33.58-.16.2-.26.42-.32.65a29.7 29.7 0 0 0-1 .58c.44-.1.88-.18 1.3-.22.07-.01.1-.05.1-.12.01-.14-.04-.2-.15-.22.12-.17.2-.34.25-.52.07-.25.15-.42.23-.5.38-.4 1.13-.72 2.24-.95.31-.07.56-.02.73.14.2.18.26.14.16-.13-.13-.35 0-.67.36-.96a4.68 4.68 0 0 1 3.14-.98c.1 0 .2.04.28.1.05.05.1.05.16.03 1.52-.6 2.74-.57 3.65.09.18.13.16.2-.06.2-.29 0-.59.05-.9.12-.24.05-.38.1-.44.16s-.04.1.04.1a3.55 3.55 0 0 0 .62-.08c.57-.18.92-.26 1.04-.22 1 .33 1.92.87 2.77 1.62.06.06.08.11.06.16-.03.04-.06.06-.11.05-1.01-.2-2.02-.4-3.04-.63-.1-.02-.32-.17-.65-.44a.96.96 0 0 0-.7-.21.27.27 0 0 1-.2-.07c-.14-.12-.35-.13-.65-.04-.12.03-.12.06.01.07l.68.05c.07 0 .13.03.17.08.07.06.13.1.2.13.58.22 1.14.52 1.67.9.25.17.22.27-.08.3a8.3 8.3 0 0 1-2.77-.29.18.18 0 0 0-.2.06l-.1.13a.34.34 0 0 1-.17.1 5.9 5.9 0 0 1-3.12.06.68.68 0 0 1-.46-.35c-.04-.07-.1-.1-.17-.07-.67.18-1.1.32-1.26.43-.17.1-.45.4-.83.9-.39.49-.78.73-1.2.73-.8 0-.92.05-.35.14Z" fill="#FFF512"/><path d="M29.24 34.59c-.1.31.01.53.34.66l.02.04c0 .03-.01.04-.05.02-.58-.34-1.2-.5-1.85-.5-.13 0-.13-.03-.01-.07.43-.16.92-.25 1.46-.26.08 0 .11.04.09.1Z" fill="#136C3A"/><path d="m30.1 38.31 1.25-.02c.04 0 .06-.03.05-.07l-.02-.06c0-.02-.02-.03-.04-.03-.47-.04-.94 0-1.39.13l-.94-.07c-.13-.02-.14.01-.03.08.4.24.79.61 1.14 1.12l.33.45c.01.02.01.05 0 .07-.01.02-.03.03-.06.03a5.82 5.82 0 0 1-3.42-1.24.32.32 0 0 1-.12-.17c-.05-.2-.04-.4.04-.62.03-.08 0-.12-.08-.12a6.1 6.1 0 0 1-1-.18c-.36-.1-.4-.02-.11.21.08.07.2.15.39.25.24.14.41.26.5.37.07.09.2.22.42.42.44.4.72.71.85.95.03.06.01.09-.06.1a4.51 4.51 0 0 1-3.5-1.35 1.47 1.47 0 0 1-.46-.84c-.01-.07-.05-.11-.13-.12-.26-.01-.5.02-.73.1l-.78-.16 1.51-.28c.08-.01.1-.06.1-.13-.07-.3-.03-.5.1-.6a4.02 4.02 0 0 1 3.23-.6c.61.16.62.37.02.62-.17.07-.34.17-.5.3a2.8 2.8 0 0 1-.85.4c-.11.04-.11.06 0 .08l.77.13c.1.02.15.08.16.18 0 .02.02.05.06.09.07.05.09.03.07-.04-.06-.28-.06-.54.03-.8a.24.24 0 0 1 .13-.15c.16-.08.3-.16.4-.25.13-.09.26-.15.4-.18a6.5 6.5 0 0 1 3.04.1c.31.1.32.21.02.35a3.06 3.06 0 0 1-2.82.94 3.46 3.46 0 0 0-.78.06c1.04.05 1.89.13 2.53.23.07.02.11-.01.11-.08.01-.25.05-.43.12-.55a.8.8 0 0 1 .45-.35 7.17 7.17 0 0 1 3.45-.4c.38.05.4.18.1.38-.55.36-1.22.7-2 1.01-.12.05-.12.08.01.1l1 .12c.07.01.1-.02.1-.08.02-.47.24-.76.64-.9 1.3-.45 2.56-.5 3.8-.17.05.01.08.05.1.1 0 .06-.02.1-.07.13-.21.13-.42.24-.64.32-.41.15-1.1.38-2.09.67a.36.36 0 0 1-.2 0 3.2 3.2 0 0 0-1.24-.1c-.04 0-.05.01-.02.04l.04.04c.3 0 .65.03 1.06.12.28.06.56.24.81.53.2.23.53.52.98.87.23.18.2.29-.1.31a4.97 4.97 0 0 1-3.18-.73c-.17-.1-.28-.36-.34-.77 0-.08-.04-.12-.12-.14a2.58 2.58 0 0 0-.9-.06c-.09.01-.1.04 0 .08.76.37 1.38.9 1.84 1.56.03.05.02.07-.03.08a5.1 5.1 0 0 1-2.64-.4 1.71 1.71 0 0 1-.74-.56c-.2-.29-.21-.57-.01-.85Z" fill="#FFF512"/><path d="m25.37 37.43-1.25-.1a.08.08 0 0 0-.09.06v.02c0 .04.03.08.07.08l1.26.11c.04 0 .08-.02.08-.06v-.02a.08.08 0 0 0-.07-.09ZM20.15 37.94v.15l-1.06-.03a.23.23 0 0 0-.18.08c-.13.13-.24.32-.34.56-.95 0-1.91.4-2.9 1.22a.2.2 0 0 1-.18.04c-.19-.04-.35-.1-.48-.21-.07-.05-.07-.1-.01-.16 1-.89 2.2-1.47 3.61-1.72.36.02.74-.03 1.15-.14.07-.02.1 0 .1.07v.09c-.02.04.03.05.15.03.04 0 .09 0 .14.02Z" fill="#EEAE6A"/><path d="M35.46 38.24a6.7 6.7 0 0 1 2.58-.31c1.04.06 1.84.3 2.39.74.15.12.13.2-.07.21-.9.08-1.86.2-2.86.37-.49.08-.92.08-1.3 0-.53-.11-.83-.37-.89-.77-.01-.12.04-.2.15-.24ZM20.15 38.1c.53.03.98.18 1.36.43.23.16.54.46.92.89.22.25.4.44.53.56a.1.1 0 0 1 .02.14.12.12 0 0 1-.1.07 5.82 5.82 0 0 1-4.31-1.49c.1-.24.2-.43.33-.56a.23.23 0 0 1 .19-.08l1.06.03Z" fill="#FFF512"/><path d="M30.1 38.31a.26.26 0 0 1-.15-.05c.45-.13.91-.17 1.39-.13.02 0 .03.01.04.03l.02.06c0 .04 0 .07-.05.07l-1.25.02Z" fill="#EEAE6A"/></svg>