<!-- by TradingView --><svg width="56" height="56" viewBox="0 0 56 56" xmlns="http://www.w3.org/2000/svg"><path fill="#D71921" d="M0 0h56v56H0z"/><path d="M4 33h2.69c.75-2.07 3.56-6.6 8.81-8.21v1.25A17.24 17.24 0 0 0 11 33h2.69c.29-.8.88-1.96 1.81-3.18V33H18v-5.78c1.23-1 2.73-1.89 4.5-2.43V33H25V22c-1.74 0-4.38.57-7 2.16V22c-3.54 0-10.9 2.36-14 11Zm33-11v2.5h-5.16a3.03 3.03 0 0 0-3.12 3c0 1.69 1.4 3 3.12 3H37V33h-5.4a5.55 5.55 0 0 1-5.6-5.5c0-3.04 2.5-5.5 5.6-5.5H37Zm11 0v2.5h-5.16c-1.72 0-3.34 1.3-3.34 3 0 1.69 1.62 3 3.34 3h2.66V29H42v-2.5h6V33h-5.4a5.55 5.55 0 0 1-5.6-5.5c0-3.04 2.5-5.5 5.6-5.5H48Z" fill="#fff"/></svg>