<!-- by TradingView --><svg width="56" height="56" viewBox="0 0 56 56" xmlns="http://www.w3.org/2000/svg"><path fill="#F0F3FA" d="M0 0h56v56H0z"/><path d="m43.75 25.43.88-.31a.41.41 0 0 1 .46.1l5.52 5.46c.6.6.51.68-.28.22-4.03-2.3-8.18-4.65-12.45-7.05-.71-.4-1.96-.08-3.73.97-.1.06-.19.1-.23.14-.3.16-.56.13-.8-.1l-.86-.84c-.23-.22-.22-.43.02-.63l4.44-3.6c.32-.25.62-.24.91.04l5.73 5.52c.11.1.25.13.4.08Z" fill="#78C242"/><path d="M16.44 25.87a5.8 5.8 0 0 1 1.66 1.85c1.72-.7 3.43-1.45 5.11-2.23a5.32 5.32 0 0 1 4.9.03c3.1 1.6 6.2 3.22 9.3 4.87.17.09.3.12.4.1.16-.03.18-.1.06-.22L26.47 19.3c-.38-.37-.79-.4-1.21-.08l-8.82 6.65Z" fill="url(#a)"/><path d="M18.1 27.72a5.8 5.8 0 0 0-1.66-1.85 6.39 6.39 0 0 0-1.62-.26c-.5-.02-.98.17-1.47.56l-8.14 6.5c-.32.24-.28.35.12.33.27-.03.61-.12 1.02-.3 3.91-1.67 7.83-3.33 11.75-4.98Z" fill="url(#b)"/><path d="M23.05 30.07c.28.1.47.15.57.13 2.7-.4 5.39-.25 8.04.46a32.5 32.5 0 0 1 4.78 1.66l.05-.12c.03-.07.01-.12-.05-.15a25.45 25.45 0 0 0-11.69-3.3c-4.06-.16-8 .59-11.81 2.23-.49.21-.47.28.05.2.37-.06.93-.19 1.69-.4.62-.18 1.08-.3 1.38-.35 2.06-.37 4.15-.66 6.27-.85.07 0 .11.03.12.1l.02.16c0 .08-.03.13-.1.14-.96.17-1.81.51-2.56 1.02-.2.14-.19.2.06.2 2.51-.14 4.78-.16 6.8-.07a8.28 8.28 0 0 1 2.39.57c.02.01.04 0 .05-.03l.02-.13c.01-.03 0-.06-.04-.07-.6-.26-1.2-.47-1.83-.66-.42-.12-1.13-.22-2.12-.29-.88-.06-1.53-.13-1.95-.22a.68.68 0 0 0-.14-.23Z" fill="#93CA97"/><defs><linearGradient id="a" x1="1.83" y1="33" x2="25.71" y2="32.44" gradientUnits="userSpaceOnUse"><stop stop-color="#2D6C28"/><stop offset="1" stop-color="#58D24E"/></linearGradient><linearGradient id="b" x1="1.83" y1="33" x2="25.71" y2="32.44" gradientUnits="userSpaceOnUse"><stop stop-color="#2D6C28"/><stop offset="1" stop-color="#58D24E"/></linearGradient></defs></svg>