<!-- by TradingView --><svg width="56" height="56" viewBox="0 0 56 56" xmlns="http://www.w3.org/2000/svg"><path fill="#F0F3FA" d="M0 0h56v56H0z"/><path d="m16.32 29.4-.52-4.74c0-.05-.03-.08-.08-.08s-.09.02-.1.06l-1.63 5.3c-.02.04-.05.06-.1.06h-3.72c-.08 0-.11-.04-.09-.12l3.64-11.81c.02-.05.05-.07.1-.07h3.91c.06 0 .09.03.1.08l.65 4.34c0 .04.03.07.07.08a.1.1 0 0 0 .1-.03l3.52-4.43a.09.09 0 0 1 .07-.04h3.86c.08 0 .11.04.09.12L22.55 29.9c-.01.04-.04.06-.08.06h-3.74c-.09 0-.12-.04-.1-.12l1.62-5.2c.01-.05 0-.1-.05-.11-.05-.03-.08-.02-.12.02l-3.6 4.9a.09.09 0 0 1-.1.02c-.04 0-.06-.03-.06-.08Z" fill="#0155A6"/><path d="M31.67 20.94a3.98 3.98 0 0 0-1.32.02.3.3 0 0 0-.19.12c-.1.13-.17.27-.22.42-.2.6-.73 2.3-1.58 5.1-.1.32.02.49.35.49h.88c.33 0 .54-.16.64-.48l.27-.86c.03-.1.09-.14.18-.14h3.34c.1 0 .12.04.1.13l-.08.32a11.38 11.38 0 0 1-.76 2.2c-.4.74-.93 1.23-1.6 1.46-.43.15-1.07.23-1.94.24l-.4.01c-1.66.06-2.95.03-3.88-.1-.64-.07-1.02-.38-1.14-.9-.09-.38-.04-.91.14-1.6l1.88-5.97a7.34 7.34 0 0 1 1.02-2.3 3.2 3.2 0 0 1 2.45-1.07c1.48-.04 2.77-.04 3.88 0 .7.01 1.23.1 1.55.26.5.24.73.67.7 1.3-.04.5-.29 1.38-.75 2.65a.17.17 0 0 1-.17.12h-3.28a.13.13 0 0 1-.12-.06.14.14 0 0 1 0-.15c.16-.35.22-.7.2-1.05-.01-.09-.06-.14-.15-.16Z" fill="#CB010C"/><path fill-rule="evenodd" d="M44.16 25.95a175.34 175.34 0 0 1 1.56-5.1c.27-.85.34-1.49.23-1.9-.16-.55-.67-.84-1.54-.88a49.1 49.1 0 0 0-4.18-.04c-1.32.05-2.27.43-2.85 1.14-.24.3-.47.72-.66 1.24a23.69 23.69 0 0 0-.7 2.27 172.33 172.33 0 0 1-1.37 4.46c-.27.86-.34 1.5-.23 1.9.16.55.67.85 1.54.9 1.51.07 2.9.08 4.18.03 1.32-.05 2.27-.43 2.85-1.14.24-.3.47-.72.66-1.24.12-.32.3-.87.51-1.64ZM41.56 21h-1.1c-.17 0-.27.07-.32.23l-1.66 5.4c-.04.1-.02.2.05.3.06.09.15.13.26.13h1.1c.17 0 .27-.08.32-.23l1.66-5.4c.04-.1.02-.2-.04-.3a.3.3 0 0 0-.27-.14Z" fill="#83BD1C"/><path fill="#83BD1C" d="M10 32h34v2H10z"/><path fill="#CB010C" d="M10 34h34v2H10z"/><path fill="#0155A6" d="M10 36h34v2H10z"/></svg>