<!-- by TradingView --><svg width="56" height="56" viewBox="0 0 56 56" xmlns="http://www.w3.org/2000/svg"><path fill="#F0F3FA" d="M0 0h56v56H0z"/><path d="M29.7 14.04a2.2 2.2 0 0 0-1.42-.32c-.1 0-.15-.03-.17-.12-.22-1.23.24-2.06 1.4-2.52.29-.11.87-.1 1.75.01 1.36.19 2.69.53 3.96 1.02 1.67.64 2.74 1.37 3.2 2.21.19.33.14.74-.14 1.25-.21.4-.5.77-.86 1.1-1.12.99-2.55 1.8-4.3 2.41a34.2 34.2 0 0 1-4.94 1.23c-.07.01-.1-.02-.1-.1v-2.5c0-.1.03-.17.1-.23a4.37 4.37 0 0 0 1.78-2.87.53.53 0 0 0-.25-.57Z" fill="#0437FA"/><path d="M28.07 14.32c0-.28.14-.4.43-.35l.7.12c.39.06.54.28.48.64a3.8 3.8 0 0 1-1.46 2.4.1.1 0 0 1-.1 0 .09.09 0 0 1-.05-.08v-2.73Z" fill="#0437FA"/><path d="M17 40.07v-10a5.6 5.6 0 0 1 1.7-4.23c1.52-1.55 3.9-2.87 7.12-3.94.72-.24 3.3-1 7.74-2.28 2.47-.72 4.16-1.93 5.09-3.66.08-.14.34-.13.34.03v9.8c0 1.98-.85 3.3-2.68 3.98-4.24 1.58-8 3.04-11.28 4.38a20.69 20.69 0 0 0-4.5 2.43 12.8 12.8 0 0 0-3.35 3.71c-.1.17-.16.16-.18-.04v-.18Z" fill="#FF0205"/><path d="M34.47 22.94c-.35-.18-.7-.08-1.06.29-.29.3-.48.66-.57 1.05-.1.4-.14.82-.14 1.27 0 .55.08.98.23 1.28a.6.6 0 0 0 .39.31c.18.05.34.03.5-.06.63-.38.97-.99 1.01-1.82 0-.05.03-.07.08-.07h1.38c.03 0 .04.01.04.04a4.45 4.45 0 0 1-1.57 2.98c-.6.5-1.25.77-1.93.79-.81.03-1.34-.37-1.58-1.19a6.1 6.1 0 0 1 .22-4.1c.6-1.5 1.63-2.4 3.08-2.68.44-.08.81 0 1.13.28.28.24.48.58.59 1.01.02.07 0 .13-.06.18l-1.22.95c-.09.06-.16.05-.22-.05l-.13-.24c-.07-.13-.13-.2-.17-.22ZM27.7 28.62v2.6a.1.1 0 0 1-.06.1l-1.58.67c-.04.02-.06 0-.06-.04v-7.36c0-.09.04-.15.12-.19l2.78-1.23c.5-.23.91-.23 1.22 0 .29.2.46.6.5 1.14a3.84 3.84 0 0 1-1.08 3.2c-.18.18-.75.48-1.7.9a.21.21 0 0 0-.13.21Z" fill="#fff"/><path d="m27.65 24.9.84-.28a.7.7 0 0 1 .63.07c.2.12.27.28.23.48-.16.86-.72 1.4-1.68 1.6-.12.02-.17-.01-.17-.1V25.1c0-.1.05-.16.15-.2Z" fill="#FF0205"/><path d="M20.37 28.99v5.09l-.02.02-1.32.55c-.02.01-.03 0-.03-.02V27.5l.01-.03 2.15-.9c.02 0 .03 0 .03.02l.79 3.85c.01.1.03.1.05 0l.8-4.61.02-.02 2.11-.89c.02 0 .04 0 .04.03v7.12s0 .02-.02.02l-1.28.54c-.02 0-.03 0-.03-.03v-4.98c0-.02-.01-.02-.03-.02h-.04c-.01 0-.02 0-.02.02l-.96 5.48-.02.02-1.19.5c-.02 0-.03 0-.03-.02l-.95-4.62c0-.02-.01-.03-.03-.02h-.02a.03.03 0 0 0-.01.03Z" fill="#fff"/><path d="M28.51 33.77v9.13c0 .09-.05.13-.14.13-1.8-.04-3.45-.21-4.93-.52-2.24-.47-3.6-1.19-4.1-2.15-.65-1.25.15-2.5 2.4-3.74a39.33 39.33 0 0 1 6.67-2.92c.07-.02.1 0 .1.07Z" fill="#0437FA"/><path d="M18.5 40.4c.92 1.25 2.37 2.16 4.36 2.7 1.52.42 3.28.62 5.29.6.39 0 .47.14.25.46l-.14.18c-.2.3-.5.48-.86.55-1.4.27-3.38.04-5.91-.67a7.27 7.27 0 0 1-2.65-1.33c-.93-.76-1.24-1.57-.92-2.42.05-.12.14-.19.27-.2.13-.02.24.02.32.13Z" fill="#0437FA"/></svg>