<!-- by TradingView --><svg width="56" height="56" viewBox="0 0 56 56" xmlns="http://www.w3.org/2000/svg"><path fill="#F0F3FA" d="M0 0h56v56H0z"/><path fill-rule="evenodd" d="M44.63 32.97A9.86 9.86 0 0 0 46 28c0-1.72-.46-3.38-1.37-4.97-.91-1.6-2.21-3-3.9-4.22a19.35 19.35 0 0 0-5.84-2.82A23.9 23.9 0 0 0 28 15c-2.39 0-4.68.33-6.89.99-2.2.66-4.15 1.6-5.84 2.82a13.5 13.5 0 0 0-3.9 4.22A9.86 9.86 0 0 0 10 28c0 1.72.46 3.38 1.37 4.97.91 1.6 2.21 3 3.9 4.22a19.35 19.35 0 0 0 5.84 2.82c2.2.66 4.5.99 6.89.99 2.39 0 4.68-.33 6.89-.99 2.2-.66 4.15-1.6 5.84-2.82a13.5 13.5 0 0 0 3.9-4.22Zm-4.44-4.62H34a.06.06 0 0 1-.05-.03.06.06 0 0 1 0-.06l.43-.66a.23.23 0 0 1 .2-.11h5.57c.07 0 .1-.04.1-.12a9.68 9.68 0 0 0-2.28-4.6c-.06-.06-.06-.14-.01-.21l.13-.21c.06-.09.12-.1.2-.03a7.58 7.58 0 0 1 2.66 5.1c0 .03.01.04.03.04h4.16c.06 0 .1-.03.09-.1a9.78 9.78 0 0 0-2.98-6.38 16.18 16.18 0 0 0-5.97-3.76 23.06 23.06 0 0 0-6.87-1.43c-2.36-.13-4.67.07-6.96.6-1.38.33-2.71.79-3.99 1.38a16.91 16.91 0 0 0-3.68 2.3c-2.5 2.08-3.84 4.55-4.04 7.41 0 .04.01.06.05.06h4.16c.05 0 .07-.02.08-.07.17-2.16 1.29-4.08 3.35-5.76.08-.06.15-.05.2.04l.13.18c.06.1.05.18-.03.26-.84.83-1.5 1.64-1.96 2.43-.55.93-.9 1.88-1.03 2.87-.01.06.02.1.08.1l6.17.05a.4.4 0 0 1 .36.2l.23.34c.07.11.04.17-.09.17h-6.7c-.04 0-.06.02-.06.06.06.84.32 1.7.76 2.59.4.8.92 1.53 1.55 2.2.1.1.08.17-.05.2l-.26.05c-.11.03-.2 0-.29-.08a7.86 7.86 0 0 1-2.38-4.99c0-.02-.02-.03-.04-.03H10.8c-.03 0-.04.02-.04.05a9.32 9.32 0 0 0 1.69 4.9 13.33 13.33 0 0 0 3.7 3.58 19.75 19.75 0 0 0 6.82 2.84A24.03 24.03 0 0 0 35.56 39a18.76 18.76 0 0 0 4.72-2.42 12.93 12.93 0 0 0 3.41-3.5 9.27 9.27 0 0 0 1.55-4.68c0-.04-.01-.06-.05-.06h-4.2c-.02 0-.03.02-.03.04-.06.91-.3 1.8-.7 2.68-.4.84-.93 1.58-1.58 2.24a.3.3 0 0 1-.3.08l-.25-.06c-.12-.04-.14-.1-.06-.2a8.52 8.52 0 0 0 2.2-4.7c0-.05-.03-.08-.08-.08Z" fill="#08C5F3"/><path d="m36.44 18.03 2.1 2.86c.02.03.02.05 0 .07a.06.06 0 0 1-.05.04H18c-.02 0-.04-.18-.05-.2a.06.06 0 0 1 0-.08l2.2-2.7a.06.06 0 0 1 .05-.02H36.4c.02 0 .04 0 .05.03Z" fill="#FD0100"/><path d="M24.13 18.99c.02-.03.01-.04-.02-.04h-.07c-.02 0-.04 0-.05.03l-.23.33a.2.2 0 0 1-.17.1l-.67-.01c-.06 0-.07-.03-.04-.08l.42-.74a.15.15 0 0 1 .14-.08l3.23.03c.01 0 .02 0 .01.02l-.46.8c-.02.03-.04.05-.07.05h-.75c-.02 0-.03-.02-.04-.03v-.05l.16-.28c.02-.03 0-.06-.02-.08l-.03-.01c-.04-.02-.06-.02-.08.02l-.05.06-.38.63c-.1.21-.16.41-.18.6 0 .07-.04.13-.09.17a.25.25 0 0 1-.17.07h-1.17c-.2-.01-.23-.08-.07-.22l.04-.04c.17-.15.3-.3.36-.42l.45-.83Zm4.95.61v-.04h-.05l-.94.87c-.07.05-.18.07-.35.05-.03 0-.05-.02-.05-.05v-.84c0-.05-.02-.05-.05-.01-.16.2-.25.43-.26.71 0 .13-.07.2-.2.2h-.96c-.2 0-.22-.07-.08-.2l.1-.1c.12-.1.2-.19.24-.26l.1-.17c.27-.44.42-.79.44-1.04.01-.14.09-.2.23-.2h1.39c.03 0 .04 0 .04.04v.59c0 .09.04.1.1.04l.62-.58c.07-.06.15-.1.24-.1h1.32c.04 0 .04.02.03.05-.05.09-.13.2-.25.32a1.73 1.73 0 0 0-.27.35c-.3.44-.44.8-.45 1.04 0 .06-.03.12-.07.16a.22.22 0 0 1-.16.06h-1.1c-.24 0-.28-.08-.1-.24.2-.19.36-.4.49-.65Zm2.13-.42a.88.88 0 0 0 .07-.3c.01-.15.04-.26.09-.31a.12.12 0 0 1 .1-.05 35.2 35.2 0 0 1 1.72 0c.32-.01.61.02.89.1.12.04.18.12.17.25 0 .13-.08.32-.23.56l-.01.03c-.23.4-.38.61-.43.67-.18.15-.4.25-.7.3a6.46 6.46 0 0 1-1.05.06l-1.46-.01c-.05 0-.06-.02-.04-.06a.7.7 0 0 1 .22-.26c.16-.12.35-.38.56-.78l.1-.2Zm1.64-.23-.02-.02a.18.18 0 0 0-.24.06l-.54.89c-.05.08-.02.2.06.24l.02.02c.08.05.2.02.24-.06l.54-.89a.18.18 0 0 0-.06-.24Z" fill="#fff"/><path d="M19.11 21.5h6.3c.02 0 .12.06.13.08l-.01.04c-1 1.07-1.08 2.01-.25 2.82.27.27.73.69 1.4 1.26.21.18.42.46.62.84a.1.1 0 0 1 0 .1.09.09 0 0 1-.09.04h-5.03a.16.16 0 0 1-.15-.08l-3-4.94c-.07-.1-.04-.16.08-.16Z" fill="#029833"/><path d="M28.73 26.85c.2-.32.1-.72-.31-1.21a9.04 9.04 0 0 0-1.24-1.1l-.4-.33a3.1 3.1 0 0 1-.54-.67 2.06 2.06 0 0 1-.31-.81c-.05-.38.07-.7.35-.95.23-.21.54-.36.94-.47.13-.03.15 0 .08.11-.6.82-.32 1.6.81 2.37l1.59 1c.3.2.57.4.8.65.53.6.38 1.3-.44 2.12a5.88 5.88 0 0 0-1.26 1.71c-.3.7-.32 1.38-.04 2.06.2.5.6 1.02 1.2 1.56.04.04.05.07.02.11l-2.03 2.65c-.05.06-.1.06-.13 0l-4.53-6.9c-.04-.06-.03-.12.04-.16.34-.2.7-.33 1.11-.4 1.34-.25 2.23-.42 2.67-.52.84-.19 1.38-.46 1.62-.82Z" fill="#191919"/><path d="M30.97 24.11c-.25-.2-.82-.64-1.7-1.3a3.22 3.22 0 0 1-1-1.21.06.06 0 0 1 .01-.07.06.06 0 0 1 .06-.03h9.64c.03 0 .1.1.1.12.02.02.01.05 0 .07l-5.94 8.52c-.2.3-.38.47-.54.52-.32.1-.61 0-.87-.3-.14-.18-.15-.36-.02-.55a7.67 7.67 0 0 0 1.38-2.91 2.92 2.92 0 0 0-1.12-2.86Z" fill="#029833"/><path d="M31.96 36.95c0-.06-.03-.09-.1-.07a12 12 0 0 1-2.37.38c-.04 0-.05.02-.04.05l.3 1.38c0 .06-.02.09-.07.09l-2.54.1c-.06 0-.08-.02-.07-.09l.23-1.4c.01-.06-.01-.1-.08-.1-.8-.01-1.57-.1-2.32-.24-.04-.01-.06 0-.06.05v1.27c0 .05-.04.08-.09.07L22.3 38c-.06 0-.08-.04-.06-.1l.57-1.31c.02-.05 0-.08-.04-.09a9.67 9.67 0 0 1-1.93-.76c-.04-.02-.07-.01-.09.03l-.7 1.24c-.02.04-.05.05-.08.02l-1.93-1.33c-.04-.02-.04-.05-.01-.08l.89-.91c.05-.06.05-.1-.02-.15l-.51-.36c-.09-.06-.08-.1.01-.13l.39-.11a.22.22 0 0 1 .2.04 13.8 13.8 0 0 0 6.3 2.58c2.22.34 4.48.26 6.8-.26 1.77-.4 3.38-1.14 4.85-2.23a.24.24 0 0 1 .19-.05l.48.09c.03 0 .05.02.05.05 0 .03 0 .05-.02.06l-.47.33c-.06.04-.06.08 0 .12l1.2.97c.04.03.03.07-.01.1l-1.74 1.2c-.04.03-.07.03-.09 0l-.86-1.32c-.04-.06-.08-.07-.14-.05l-1.6.71c-.04.02-.05.04-.03.07l.6 1.46c.02.04.01.07-.03.09l-2.33.7c-.08.01-.12-.02-.12-.1l-.06-1.57Z" fill="#940201"/></svg>