<!-- by TradingView --><svg width="56" height="56" viewBox="0 0 56 56" xmlns="http://www.w3.org/2000/svg"><path fill="#F0F3FA" d="M0 0h56v56H0z"/><path d="M45 37H11v-4.98c0-.02 0-.02.02-.02h33.97v.01L45 37Z" fill="#1B6099"/><path fill-rule="evenodd" d="M36.98 35.02v-.01a.82.82 0 0 1-.73-.28.96.96 0 0 1-.2-.35 1.1 1.1 0 0 1-.05-.41c.02-.28.12-.5.3-.69A.94.94 0 0 1 37 33c.24 0 .45.07.63.22.19.15.3.34.36.58.05.25.02.5-.09.73a260.18 260.18 0 0 1-.94 1.47h-.59v-.01l.62-.97Zm-.46-1c0 .28.21.5.48.51a.5.5 0 0 0 .48-.5.5.5 0 0 0-.47-.51.5.5 0 0 0-.49.5Zm-23.13-.5h.02V36h.57l.02-.01V33l-.01-.01h-.97l-.02.01v.49l.01.01h.38Zm21 0h.02V36h.57l.02-.01V33l-.01-.01h-.97l-.02.01v.49l.01.01h.38ZM27 33.5v-.49l.01-.01H28l.01.01V36l-.01.01h-.57l-.01-.01v-2.47H27L27 33.5Zm-10.07 1.94a.88.88 0 0 0 .07-.35V33.9a.87.87 0 0 0-.28-.64.93.93 0 0 0-.67-.27h-.11a.96.96 0 0 0-.67.27.9.9 0 0 0-.27.64v1.18a.87.87 0 0 0 .28.64.93.93 0 0 0 .66.27h.12a.96.96 0 0 0 .66-.27.9.9 0 0 0 .2-.3Zm-.96-1.93h.04c.25 0 .44.18.44.42v1.14c0 .23-.19.42-.43.42h-.04a.43.43 0 0 1-.44-.42v-1.14c0-.24.2-.42.43-.42ZM25 33a1 1 0 0 1 .25.03c.4.1.65.34.72.71a3.23 3.23 0 0 1 .03.76v.17c0 .28 0 .48-.03.59-.07.37-.31.6-.72.71A1 1 0 0 1 25 36a1 1 0 0 1-.25-.03c-.4-.1-.65-.34-.72-.71a3.23 3.23 0 0 1-.03-.76v-.17c0-.28 0-.48.03-.59.07-.37.31-.6.72-.71A1 1 0 0 1 25 33Zm0 .5c.14 0 .25.05.33.14.08.08.12.19.13.32a29.7 29.7 0 0 1 0 1.08c0 .13-.05.24-.13.32a.44.44 0 0 1-.33.13.43.43 0 0 1-.33-.13.47.47 0 0 1-.13-.32 28.24 28.24 0 0 1 0-1.08c.01-.13.05-.24.13-.32.09-.1.2-.13.33-.13Zm-4.01 1h-1.98l-.01.01v.48l.01.01h1.98l.01-.01v-.48l-.01-.01Zm9.02 0h1.98l.01.01V35h-2v-.5Zm12.02-.5c-.02 0-.02-.01-.01-.02l.62-.97V33h-.6l-.01.01a275.86 275.86 0 0 0-.93 1.46c-.1.23-.13.48-.08.73.05.24.17.43.36.58.18.15.4.22.63.22.27 0 .5-.1.69-.28.18-.18.28-.41.3-.69 0-.14 0-.28-.05-.42a.96.96 0 0 0-.2-.34.82.82 0 0 0-.72-.28Zm.02 1.49a.5.5 0 0 1-.53-.46.5.5 0 0 1 .42-.56.5.5 0 0 1 .53.46.5.5 0 0 1-.42.56ZM39.5 33c.25 0 .45.09.6.26a.8.8 0 0 1 .2.62.6.6 0 0 1-.16.37 3.37 3.37 0 0 0-.06.09c.24.12.38.32.41.6a.94.94 0 0 1-.57.97 1.06 1.06 0 0 1-.85 0 .96.96 0 0 1-.52-.57.94.94 0 0 1-.04-.4.74.74 0 0 1 .4-.6c.02 0 .02-.01.01-.02l-.06-.07a.6.6 0 0 1-.16-.37.8.8 0 0 1 .2-.62.77.77 0 0 1 .6-.26Zm.32.8a.3.3 0 0 1-.32.3.3.3 0 0 1-.31-.3c0-.16.14-.3.31-.3a.3.3 0 0 1 .32.3Zm.14 1.25c0 .25-.2.45-.46.45a.45.45 0 0 1-.47-.45c0-.24.21-.44.47-.44.25 0 .46.2.46.44Z" fill="#F0F3FA"/><path d="M46 21H10l17.94-7L46 21Z" fill="#ED3237"/><path d="M11 31v-9h.75A5.92 5.92 0 0 1 17 25.23 5.92 5.92 0 0 1 22.25 22H23v9h-2.5v-5.32c-2 1.4-2.8 3.31-2.95 4.1h-1.1a7.21 7.21 0 0 0-2.95-4.1V31H11Z" fill="#1B6099"/><path fill-rule="evenodd" d="M29.3 22H24v9h5.3c2.6 0 4.7-1.96 4.7-4.39v-.22c0-2.43-2.1-4.39-4.7-4.39Zm-.2 2.5h-2.6v4h2.6c1.32 0 2.4-.9 2.4-2s-1.08-2-2.4-2Z" fill="#1B6099"/><path d="M45.5 22h-6.38a4.51 4.51 0 0 0-4.62 4.39v.22A4.51 4.51 0 0 0 39.12 31h6.38a7.8 7.8 0 0 1-.96-2.5h-5.35c-1.2 0-2.19-.9-2.19-2s.98-2 2.19-2h5.35c.2-.95.53-1.8.96-2.5Z" fill="#1B6099"/></svg>