<!-- by TradingView --><svg width="56" height="56" viewBox="0 0 56 56" xmlns="http://www.w3.org/2000/svg"><path fill="#F0F3FA" d="M0 0h56v56H0z"/><path d="M13.85 35.73A6.93 6.93 0 0 1 12 33.56L12 20.51c0-.05.02-.1.06-.12l11.85-9.37c.04-.03.08-.03.11 0l13.92 9.2c.04.04.06.07.06.12v3.6c0 .03-.02.06-.05.06h-1.4c-.04 0-.05-.03-.05-.06v-2.66a.1.1 0 0 0-.05-.1l-12.41-7.8a.11.11 0 0 0-.14 0l-10.35 7.89a.1.1 0 0 0-.05.08v12.22c0 .72.12 1.44.35 2.16Z" fill="#024DA0"/><path d="M36 41h-3.4l-.01-3.41c0-.27-.05-.28-.14-.03A2.76 2.76 0 0 1 31 39.08c-.53.27-1.1.3-1.68.08a2.5 2.5 0 0 1-1.33-1.12 4.4 4.4 0 0 1-.56-2.28 2729.5 2729.5 0 0 1 0-5.76l-1.72 7.54c-.01.04-.04.06-.08.06h-2.4c-.05 0-.09-.02-.1-.07l-1.96-7.23c-.1-.43-.17-.42-.16.02.02 1.19.01 2.74 0 4.65a4.35 4.35 0 0 1-4.25 4.32 4.23 4.23 0 0 1-4.16-2.73 7.66 7.66 0 0 1-.59-3.02c.5.9 1.12 1.62 1.87 2.18.55.44 1.11.7 1.67.74.75.08 1.32-.16 1.7-.7.32-.45.48-1.07.48-1.86V21.06c0-.04.02-.06.05-.06h3.66c.05 0 .08.03.1.07.37 1.57 1.18 4.9 2.42 10.15.03.16.08.27.15.35.1.11.24.15.4.1a.37.37 0 0 0 .29-.29l2.25-10.3c.02-.05.05-.08.1-.08h3.8c.05 0 .06.05.06.1v13.7c0 .83.12 1.25.66 1.28a.8.8 0 0 0 .67-.26 1 1 0 0 0 .26-.71v-9.02c0-.06.02-.09.07-.09h3.27c.04 0 .07.03.07.08V41ZM37.04 29.3h4.47c.04 0 .07.02.07.06.04.26.15.44.34.56.2.12.41.12.63-.01a.61.61 0 0 0 .3-.6c0-.26-.12-.45-.35-.54-.1-.05-.3-.07-.56-.07h-4.86c-.05 0-.08-.03-.08-.08v-2.54c0-.05.02-.07.07-.07l3.2-.01c.73 0 1.26.06 1.6.18a4.3 4.3 0 0 1 2.43 2.18c.53 1 .76 2.1.69 3.3-.07 1-.35 1.86-.86 2.59A3.93 3.93 0 0 1 40.71 36h-3.64c-.05 0-.07-.02-.07-.07v-6.6c0-.02.01-.04.04-.04Z" fill="#EB1B23"/></svg>