<!-- by TradingView --><svg width="56" height="56" viewBox="0 0 56 56" xmlns="http://www.w3.org/2000/svg"><path fill="#F0F3FA" d="M0 0h56v56H0z"/><path fill-rule="evenodd" d="M21.65 34.46c1.4 2.16 3.1 3.77 5.1 4.8.25.14.24.23-.05.26-.2.02-.49.08-.88.18A12.15 12.15 0 0 1 11 28.3c-.05-1.74.28-3.41.98-5.01a12.13 12.13 0 0 1 17.58-5.44 12.4 12.4 0 0 1 3.78 3.6.1.1 0 0 1 0 .12.1.1 0 0 1-.08.05c-2.07-.08-3.8.6-5.2 2.05-.06.07-.12.07-.18 0a5.75 5.75 0 0 0-3.18-1.86 6.56 6.56 0 0 0-6.1 1.64 6.29 6.29 0 0 0-1.9 5c.07.97.35 1.89.84 2.74.78 1.35 2.01 2.33 3.7 2.94.17.06.3.17.4.33Zm7.69-17.65a12.4 12.4 0 0 1 4.98 4.74c.1.17.23.28.41.34a6.83 6.83 0 0 1 3.03 2.03 6.28 6.28 0 0 1 1.13 6.31 6.51 6.51 0 0 1-5.46 4.1 6.72 6.72 0 0 1-3.85-.83c-1.1-.64-1.98-2.02-2.65-3.3-.07-.15-.2-.2-.36-.2h-5.49c-.1 0-.15.03-.12.13.66 2.9 2.18 5.67 4.55 7.46a12.29 12.29 0 0 0 9.4 2.23c1.64-.28 3.15-.86 4.53-1.74 1.43-.9 2.61-2.06 3.54-3.47 1.79-2.72 2.39-5.65 1.8-8.79a11.93 11.93 0 0 0-10.22-9.68 12.92 12.92 0 0 0-5.18.34c-.3.08-.3.19-.04.33ZM25.94 31h-3.95c-.08 0-.1.09-.08.17a12 12 0 0 0 2.86 4.64 11.41 11.41 0 0 0 9.33 3.32c1.8-.2 3.48-.82 5.02-1.86a11.18 11.18 0 0 0 4.3-5.34c.86-2.22.98-4.48.35-6.77a10.86 10.86 0 0 0-4.6-6.4 11.32 11.32 0 0 0-7.76-1.84c-.08 0-.1.04-.04.1.14.17.3.33.51.5 1.16.9 2.16 2.01 2.99 3.32.1.16.24.28.42.35.35.15.71.32 1.09.52a6.82 6.82 0 0 1 3.35 3.92 7.1 7.1 0 0 1-2.29 7.96 7.2 7.2 0 0 1-3.28 1.5 7.29 7.29 0 0 1-4.47-.58 7.58 7.58 0 0 1-3.4-3.25c-.07-.14-.2-.26-.35-.26Zm7.87 2.47c.1-.02.18-.08.22-.18.44-.99.77-2.02.99-3.1.02-.12-.03-.19-.15-.19H29.3a.17.17 0 0 0-.16.1l-.56 1.07c-.07.13-.06.24.03.35a5.26 5.26 0 0 0 5.2 1.95Z" fill="#E57818"/></svg>