<!-- by TradingView --><svg width="56" height="56" viewBox="0 0 56 56" xmlns="http://www.w3.org/2000/svg"><path fill="#F0F3FA" d="M0 0h56v56H0z"/><path d="M21.97 25.34c0 .03.01.04.03.03 1.14-.4 2.3-.43 3.45-.1.48.14.85.4 1.12.78.22.31.35.8.4 1.46.05.5.04.7-.02 1.28-.12 1.11-.64 1.79-1.58 2.02-.96.24-1.92.25-2.9.03-.18-.05-.32-.1-.42-.18H22c-.02 0-.03.02-.03.05v.16c0 .04-.01.06-.05.06h-.85c-.05 0-.07-.03-.07-.08v-8.8c0-.03.01-.05.04-.05h.9c.02 0 .03.01.03.03v3.31ZM26 27.45c0-.48-.6-1.45-1.14-1.45h-1.82c-.6 0-1.06.95-1.06 1.45v1.15c0 .52.45 1.4 1.06 1.4h1.82c.56 0 1.14-.9 1.14-1.4v-1.15Z" fill="#0060AF"/><path d="M29.3 26v-1h.9c.03 0 .05 0 .05-.04-.04-.66.03-.72.2-1.08.2-.45.6-.72 1.18-.8.54-.07 1.14-.1 1.78-.07.08 0 .09.03.03.09l-.62.66a.3.3 0 0 1-.23.1h-.08c-.5 0-.84.09-1.04.27-.2.18-.3.16-.29.82 0 .05.02.07.06.07l2.1-.02c.02 0 .03.03.01.04l-.84.94-.03.02h-1.24c-.05 0-.07.02-.07.07v4.8c0 .02-.01.04-.04.04h-.85c-.03 0-.04-.02-.04-.04v-4.8c0-.04-.02-.06-.06-.06h-.88ZM28.96 23h-.92a.04.04 0 0 0-.04.04v.9c0 .03.02.05.04.05h.92c.02 0 .04-.02.04-.04v-.91a.04.04 0 0 0-.04-.04Z" fill="#EE1B24"/><path d="M17.5 25c1.68 0 2.63.54 2.86 1.61a6.48 6.48 0 0 1 0 2.78c-.24 1.08-1.2 1.61-2.86 1.61-1.68 0-2.63-.54-2.86-1.61a6.56 6.56 0 0 1 0-2.79c.24-1.07 1.2-1.6 2.86-1.6Zm2 2.29c0-.33-.14-.61-.34-.84-.2-.23-.44-.45-.72-.45h-1.88c-.28 0-.52.21-.72.45-.2.23-.34.5-.34.84v1.42c0 .33.14.6.34.84.2.23.44.45.72.45h1.88c.28 0 .52-.22.72-.45.2-.23.34-.51.34-.84v-1.42Z" fill="#0060AF"/><path d="M39 28c0 .51-.05.98-.14 1.39C38.63 30.46 37.67 31 36 31s-2.63-.54-2.86-1.61a6.47 6.47 0 0 1 0-2.78C33.37 25.54 34.33 25 36 25s2.63.54 2.86 1.61c.1.42.14.88.14 1.39Zm-1.03-.72c0-.33-.1-.6-.3-.84a.92.92 0 0 0-.72-.35h-1.9a.92.92 0 0 0-.72.35c-.2.23-.3.51-.3.84v1.44c0 .33.1.61.3.84.2.24.44.35.72.35h1.9c.29 0 .53-.11.72-.35.2-.23.3-.5.3-.84v-1.44ZM47.03 28.5c0 .32.03.59.13.81.1.28.29.44.53.5.81.18 1.7.18 2.68 0 .05-.02.17-.1.36-.25a.18.18 0 0 1 .1-.04h.97c.04 0 .06.02.04.07-.4.99-1.4 1.46-2.99 1.4a4.3 4.3 0 0 1-1.72-.33c-.6-.3-.95-.8-1.05-1.5a8.26 8.26 0 0 1-.03-2.07c.1-1 .58-1.62 1.42-1.86a5.5 5.5 0 0 1 2.55-.14c1.1.2 1.73.78 1.88 1.71.1.57.12 1.1.08 1.55 0 .05-.03.08-.07.08h-4.8c-.05 0-.07.02-.08.08Zm.07-1.08h3.8c.04 0 .06-.02.06-.07v-.03c0-.33-.1-.61-.32-.85a1 1 0 0 0-.76-.35h-1.76c-.3 0-.55.11-.76.35-.21.23-.32.51-.32.84v.04c0 .05.02.07.06.07Z" fill="#EE1B24"/><path d="M4.98 25.48c.25-.22.54-.36.88-.42.16-.03.47-.05.91-.05h.02c.58 0 1 .03 1.27.1.44.1.8.32 1.07.67.02.03.05.03.07 0 .26-.4.68-.64 1.26-.73a7.07 7.07 0 0 1 1.53-.02c1.3.08 1.96.76 1.99 2.03.02.94.02 2.23.02 3.89 0 .03-.02.05-.04.05h-.86c-.02 0-.03-.01-.03-.04v-3.5c0-.26-.02-.46-.08-.6-.16-.37-.48-.61-.94-.72a4.97 4.97 0 0 0-1.22-.05c-.37.01-.68.12-.93.32-.3.23-.45.56-.45.97v3.55c0 .05-.02.07-.06.07h-.78c-.04 0-.06-.03-.06-.08v-3.54c0-.38-.14-.69-.41-.93-.24-.2-.53-.32-.87-.36-1.58-.16-2.37.32-2.37 1.44v3.4c0 .05-.02.07-.06.07h-.79c-.03 0-.05-.02-.05-.06v-5.55c0-.06.02-.08.07-.08h.72c.05 0 .08.03.1.09l.01.05c.01.06.04.07.08.03ZM29 25v5.96c0 .03-.01.04-.03.04h-.92c-.03 0-.05-.02-.05-.05v-5.87c0-.05.02-.07.06-.08H29Z" fill="#0060AF"/><path d="M40.49 25.49c0 .02 0 .04.03.05l.06-.01c.22-.2.47-.34.75-.4a6.63 6.63 0 0 1 2.84.04c.55.14.95.49 1.18 1.06.1.23.14.73.14 1.5l.01 3.22c0 .03-.01.05-.04.05h-.9c-.02 0-.04-.02-.04-.05v-3.09c0-.43-.02-.73-.07-.9a1.05 1.05 0 0 0-.52-.62c-.3-.17-.65-.27-1.05-.3-1.16-.06-1.9.18-2.22.72-.12.2-.18.52-.18.95 0 1.72.01 2.8.02 3.24 0 .03-.02.05-.05.05h-.9c-.03 0-.05-.02-.05-.06V25.4c0-.06.03-.1.1-.1h.8c.06 0 .09.03.09.1v.1Z" fill="#EE1B24"/></svg>