<!-- by TradingView --><svg width="56" height="56" fill="none" xmlns="http://www.w3.org/2000/svg"><path fill="#F0F3FA" d="M0 0h56v56H0z"/><path fill-rule="evenodd" clip-rule="evenodd" d="M23.502 19h-6.98L28.17 36.473l3.574-5.123c-.137.027-.28.042-.429.042-.973 0-1.761-.622-1.761-1.388 0-.767.788-1.388 1.761-1.388.78 0 1.44.399 1.673.95l1.373-1.967H26V27h2.17l-4.668-8Zm4.82 8 4.917-8h6.799l-5.494 8h-6.221Z" fill="#D82418"/><path d="m27.964 36.663-6.347-9.025L15.98 37h24.37l-5.574-9.362-6.441 9.024h-.372Z" fill="#70211E"/><path d="m27.918 16.51.72 2.216h2.326l-1.882 1.37.719 2.215-1.883-1.37-1.882 1.37.719-2.216-1.883-1.37H27.2l.72-2.215Z" fill="#F5C202"/><path fill-rule="evenodd" clip-rule="evenodd" d="M41.201 37.766C45.37 35.383 48 31.89 48 28c0-4.01-2.794-7.597-7.186-9.982l-.488.85c3.708 1.998 6.184 4.881 6.609 8.132h-2.932c-.344-2.475-2.168-4.69-4.925-6.308l-.427.97c2.32 1.405 3.876 3.265 4.257 5.338H35.45l-.477.566.477.434H43c0 2.318-1.46 4.43-3.858 6.026l.447.68C42.31 32.96 44.001 30.6 44.061 28H47c0 3.53-2.413 6.703-6.253 8.899l.454.867Zm-.42.234h-2.275c-3.01 1.264-6.622 2-10.506 2-3.884 0-7.497-.736-10.506-2H15.22c3.465 1.873 7.92 3 12.78 3 4.86 0 9.315-1.127 12.78-3Zm-25.674-.062C10.76 35.554 8 31.986 8 28c0-3.99 2.765-7.56 7.117-9.944l.628.773c-3.747 2-6.253 4.9-6.68 8.171h2.932c.346-2.491 2.192-4.719 4.978-6.339l.552.896c-2.419 1.416-4.044 3.318-4.435 5.443h7.846l.477.566-.477.434H13c0 2.41 1.58 4.6 4.151 6.215l-.42.69c-2.907-1.763-4.73-4.203-4.792-6.905H9c0 3.594 2.502 6.82 6.467 9.019l-.36.92ZM28 15c4.809 0 9.221 1.103 12.671 2.941h-2.306C35.386 16.714 31.825 16 28 16c-3.824 0-7.385.714-10.366 1.941H15.33C18.779 16.103 23.19 15 28 15Z" fill="#0A92CD"/></svg>