<!-- by TradingView --><svg width="56" height="56" viewBox="0 0 56 56" xmlns="http://www.w3.org/2000/svg"><path fill="#F0F3FA" d="M0 0h56v56H0z"/><path d="M28 12c.4 0 .68 0 .85.02.8.06 1.46.13 1.98.2.39.06.76.16 1.11.3.14.07.17.14.07.22l-.02.01c-.06.04-.15.08-.28.13l-.42.21-.43.25-.65.39a17.96 17.96 0 0 0-1.78 1.33c-.2.16-.33.25-.43.25-.1 0-.24-.09-.43-.25l-.04-.04a17.97 17.97 0 0 0-2.83-1.92c-.09-.06-.23-.13-.41-.21a6.17 6.17 0 0 1-.3-.14c-.1-.09-.08-.16.06-.22a4.4 4.4 0 0 1 1.11-.3c.52-.08 1.18-.15 1.99-.21L28 12Zm-4.22 9.2c-.07.12-.16.15-.27.1a.48.48 0 0 1-.2-.25c-.24-.52-.51-1-.83-1.44a19.09 19.09 0 0 0-2.15-2.5c-.5-.47-1.14-.98-1.92-1.5-.21-.15-.14-.34.21-.58.6-.4 1.18-.77 1.76-1.1.16-.1.3-.13.45-.12.1.01.26.07.46.17l.8.4c.86.4 1.6.86 2.24 1.36.5.38 1 .8 1.5 1.25.12.1.2.18.22.24.04.1.03.19-.05.29-.52.68-1.02 1.42-1.47 2.2-.1.16-.21.4-.36.72l-.39.76Zm6.46-3.36a15.38 15.38 0 0 1 1.88 3.25l.01.03a.5.5 0 0 0 .17.2c.06.04.12.03.18-.01.1-.1.22-.27.35-.54a7.77 7.77 0 0 1 .46-.82 15 15 0 0 1 4.32-4.4c.07-.06.1-.13.07-.23a.33.33 0 0 0-.14-.2c-.73-.48-1.38-.89-1.97-1.22a.6.6 0 0 0-.36-.1l-.37.12-1.05.5c-.97.48-1.89 1.1-2.76 1.84-.32.26-.65.55-1 .86-.1.1-.14.2-.1.31.02.07.09.16.2.28.05.06.1.1.11.13Zm-14.5 20.44A15.96 15.96 0 0 1 12.29 25c.46-2.39 1.4-4.54 2.81-6.45.32-.43.68-.9 1.1-1.4a.7.7 0 0 1 .18-.16c.07-.04.14-.03.22.01l.31.21a13.61 13.61 0 0 1 4.27 5.4c.79 1.8 1.15 3.7 1.1 5.7a13.19 13.19 0 0 1-5.38 10.46c-.23.18-.4.25-.51.22a.44.44 0 0 1-.18-.15l-.47-.56Zm24.05.56.47-.55A15.96 15.96 0 0 0 43.7 25a15.79 15.79 0 0 0-2.8-6.44l-1.1-1.4a.7.7 0 0 0-.18-.16c-.07-.04-.15-.04-.22 0l-.32.22a13.61 13.61 0 0 0-4.26 5.4c-.8 1.79-1.16 3.69-1.12 5.7a13.14 13.14 0 0 0 5.38 10.46c.24.17.4.24.52.2a.44.44 0 0 0 .18-.14ZM28 19.82c.14 0 .27.11.39.34l.67 1.37A14.8 14.8 0 0 1 30.5 28a15.33 15.33 0 0 1-2.12 7.84c-.11.23-.24.35-.38.35s-.27-.12-.39-.34l-.67-1.37A14.82 14.82 0 0 1 25.5 28a15.24 15.24 0 0 1 2.12-7.84c.11-.23.24-.34.38-.34Zm-4.86 15.5c-.15.32-.4.71-.74 1.2a16.14 16.14 0 0 1-3.77 3.72l-.28.19c-.1.07-.13.15-.08.24a.73.73 0 0 0 .22.2c.69.51 1.42.96 2.2 1.37.04.02.09.02.13 0a11 11 0 0 1 .89-.4 4.14 4.14 0 0 0 .66-.34l.5-.25c.78-.46 1.53-1 2.24-1.6l.79-.68c.2-.17.2-.38 0-.65a15.06 15.06 0 0 1-2.07-3.49c-.04-.09-.1-.14-.18-.16-.08-.02-.15.01-.2.1-.1.14-.2.32-.31.56Zm10.47 1.2a16.15 16.15 0 0 0 3.76 3.72l.28.19c.1.07.13.16.08.25a.75.75 0 0 1-.2.19h-.02v.01c-.69.5-1.42.95-2.2 1.35a.14.14 0 0 1-.14 0l-.88-.4a4.03 4.03 0 0 1-.66-.33l-.49-.26c-.79-.45-1.53-.99-2.24-1.6l-.8-.68c-.2-.16-.2-.38.01-.65a15.06 15.06 0 0 0 2.07-3.48c.04-.1.1-.14.18-.16.08-.02.15 0 .2.1.1.13.2.32.31.56.15.3.4.7.74 1.18Zm-2.16 7.1.47-.07a.11.11 0 0 0 .08-.08.11.11 0 0 0-.01-.1.9.9 0 0 0-.37-.32l-.29-.14a9.02 9.02 0 0 1-.85-.45A19.1 19.1 0 0 1 28.5 41a1.58 1.58 0 0 0-.3-.25c-.12-.06-.23-.07-.34-.01-.1.06-.26.17-.44.34l-.15.13c-.6.47-1.2.9-1.81 1.28l-.6.32c-.36.18-.62.32-.77.43-.06.04-.08.09-.08.15.01.06.05.1.11.13l.1.02 1.48.28A14.94 14.94 0 0 0 31 43.7c.16-.04.3-.07.46-.09Z" fill="#C03B4C"/></svg>