<!-- by TradingView --><svg width="56" height="56" viewBox="0 0 56 56" xmlns="http://www.w3.org/2000/svg"><path fill="#F0F3FA" d="M0 0h56v56H0z"/><path d="M28 21.08a5.72 5.72 0 0 1 4.14-1.36c1.03.1 1.97.45 2.81 1.06 1.57 1.14 2.05 2.9 2.05 4.77v3.76c0 1 .91 1.77 1.9 1.87.23.02.45.01.67-.03.47-.09.85-.3 1.15-.65.16-.19.28-.4.36-.66.07-.2.11-.44.13-.73A13.32 13.32 0 0 0 27.6 14.7a13.17 13.17 0 0 0-10.18 5.3l-.34.48a13.35 13.35 0 0 0-1 13.28A13.18 13.18 0 0 0 28 41.27a13.36 13.36 0 0 0 8.62-3.17 3.28 3.28 0 0 1 1.53-.73c.3-.05.57-.04.84 0 .29.07.54.19.77.36.2.16.34.35.43.6.09.23.12.48.09.74-.04.37-.2.74-.49 1.1-.2.26-.5.54-.88.85a17.53 17.53 0 0 1-4.45 2.72c-1.28.53-2.58.9-3.9 1.08-1.25.18-2.5.22-3.77.13a16.72 16.72 0 0 1-9.82-4.07 17.32 17.32 0 0 1-2.84-3.15 16.76 16.76 0 0 1-2.92-7.37c-.09-.65-.16-1.32-.2-2.02v-.57a96.05 96.05 0 0 1 .1-1.17A16.94 16.94 0 0 1 27.78 11a16.98 16.98 0 0 1 8.29 2.06 17.2 17.2 0 0 1 8.35 10.7c.2.76.32 1.46.39 2.09.09.81.14 1.36.16 1.64.03.44.02.95-.03 1.51a7.49 7.49 0 0 1-1.33 3.68 5.26 5.26 0 0 1-4.3 2.2 5.77 5.77 0 0 1-2.86-.6 5.4 5.4 0 0 1-2.14-1.98 5.47 5.47 0 0 1-.84-2.94v-4.1a1.76 1.76 0 0 0-.38-1.13 1.9 1.9 0 0 0-.99-.66c-.2-.05-.4-.07-.6-.05a1.78 1.78 0 0 0-1.63 1.44c-.02.11-.03.28-.03.5a257.97 257.97 0 0 1 0 1.28 651.38 651.38 0 0 1 0 5.59l-.05.25c-.08.3-.24.58-.48.82s-.51.4-.83.48c-.3.08-.6.09-.9.02a1.7 1.7 0 0 1-.8-.42 1.87 1.87 0 0 1-.63-1.44v-6.38c0-.27 0-.46-.02-.57a1.9 1.9 0 0 0-.66-1.16 1.77 1.77 0 0 0-1.26-.4 1.74 1.74 0 0 0-1.66 1.45c-.03.12-.04.31-.04.57v6.53a1.85 1.85 0 0 1-2.34 1.8c-.73-.2-1-.82-1.14-1.53-.02-.11-.04-.27-.04-.49v-6.42c0-.25.02-.45.03-.58a5.32 5.32 0 0 1 5.57-5.05 5.57 5.57 0 0 1 3.4 1.37Z" fill="#EA262A"/></svg>