<!-- by TradingView --><svg width="56" height="56" viewBox="0 0 56 56" xmlns="http://www.w3.org/2000/svg"><path fill="#F0F3FA" d="M0 0h56v56H0z"/><path d="m29.03 17-8.58 18.26c-.02.05 0 .07.04.07h11.36c.08 0 .12.04.12.12v.43c0 .08-.04.12-.12.12H17.98a.08.08 0 0 1-.08-.04.08.08 0 0 1 0-.09l9-18.74a.2.2 0 0 1 .2-.12l1.7-.01h.23Z" fill="#009149"/><path d="M30.24 18.49a.75.75 0 1 0 0-1.49.75.75 0 0 0-.75.74c0 .41.34.75.75.75Z" fill="#EA1A22"/><path fill-rule="evenodd" d="M48 36v-.27l-5.84-.02a.25.25 0 0 1-.24-.16l-3.37-7.24c-.02-.05 0-.3.05-.31a17 17 0 0 1 1.15.04c1.92.1 4.23.24 4.13-2.31a9.79 9.79 0 0 0-1.07-3.57 11.79 11.79 0 0 0-2.88-3.89 4.7 4.7 0 0 0-1.95-1.03 9.41 9.41 0 0 0-2.37-.24l-4.09.03a.07.07 0 0 0-.06.04.08.08 0 0 0 0 .07L40 35.58c.04.08.01.13-.08.13h-.92a.21.21 0 0 1-.2-.14l-7.6-16.54c-.01-.02-.03-.03-.06-.03H29.8c-.03 0-.04 0-.02.03l7.75 16.9a.1.1 0 0 0 .1.07H48Zm-7.52-15.2c-.8-1.14-1.65-1.73-2.56-1.77-.83-.04-1.96-.08-3.39-.03-.07 0-.09.08-.06.14l3.04 6.79c.02.05.06.07.1.07h.79c.52.02 1.15.03 1.87 0 1.02-.04 1.56-.48 1.64-1.18.03-.36.02-.69-.05-.98a8.83 8.83 0 0 0-1.38-3.05Z" fill="#281857"/><path d="M20.63 27.28c0-.64-.18-1.13-.57-1.47-.04-.04-.03-.07.01-.1a9.55 9.55 0 0 0 3.06-2.99 7.45 7.45 0 0 0 1.48-3.98c.02-1.07-.58-1.7-1.81-1.74 0 0-1.87.03-4.34 0a.11.11 0 0 0-.1.06L8.02 35.92c-.04.06-.02.08.04.08l4.21-.1A6.56 6.56 0 0 0 16.8 34a14.42 14.42 0 0 0 3.5-5.14c.22-.56.33-1.1.34-1.58Zm-1.4-8.23a.08.08 0 0 1 .07-.05c.69 0 1.34.01 1.95.03.65.01 1.07.13 1.27.34.28.3.27.86-.03 1.69-.66 1.82-1.6 3.03-2.85 3.64-.34.17-.82.27-1.42.28-.92.02-1.58.02-2 .02-.05 0-.07-.03-.04-.08l3.04-5.87Zm-3.24 14.1c-.6.52-1.38.79-2.34.8l-2.34.05c-.04 0-.04-.01-.03-.05l3.5-6.82c.04-.07.1-.1.18-.1.81-.03 1.66-.04 2.52-.02.28 0 .53.06.74.16.27.13.44.32.5.58.1.36.08.75-.04 1.16a8.77 8.77 0 0 1-2.7 4.24Z" fill="#009149"/><path d="M27.94 21.8h1c.03 0 .04-.01.04-.05v-.68c0-.05-.02-.07-.07-.07h-.58c-.1 0-.17.05-.22.14l-.26.53c-.04.09-.01.13.09.13Zm1.05 1.5v-.66c0-.05-.02-.07-.07-.07h-1.41a.07.07 0 0 0-.07.04l-.32.67a.07.07 0 0 0 0 .07l.06.03h1.74c.05 0 .07-.02.07-.07Zm.01.8v.66c0 .05-.02.07-.07.07h-2.4c-.08 0-.1-.03-.07-.1l.32-.66a.07.07 0 0 1 .06-.04h2.09c.05 0 .07.02.07.07Zm0 2.13v-.7c0-.03-.02-.04-.06-.04H26.2a.05.05 0 0 0-.05.03l-.34.69c-.02.05 0 .07.05.07h3.1c.03 0 .04-.02.04-.05Zm0 .76v.7c0 .03-.02.04-.06.04H25.2c-.05 0-.07-.02-.05-.06l.34-.7c.01-.02.02-.03.04-.03h3.41c.04 0 .05.02.05.05Zm-.01 2.15v-.68c0-.04-.02-.06-.05-.06h-4.07c-.02 0-.03.01-.04.03l-.33.68c-.03.05-.01.08.04.08h4.4c.03 0 .05-.02.05-.05Zm0 .77v.68c0 .04-.02.06-.05.06h-5.05c-.06 0-.08-.03-.05-.08l.33-.68a.05.05 0 0 1 .04-.03h4.73c.03 0 .05.02.05.05Zm0 2.15v-.7c0-.04-.01-.05-.04-.05h-5.4c-.02 0-.03 0-.04.02l-.34.7c-.02.05 0 .07.04.07h5.74c.03 0 .04-.02.04-.04Zm0 .78v.65c0 .04-.03.06-.08.06h-6.3c-.08 0-.1-.03-.07-.1l.32-.64a.07.07 0 0 1 .06-.04h6c.04 0 .07.02.07.07Zm-6.95 1.39h6.9c.02 0 .04.01.04.03v.7c0 .02-.02.04-.04.04h-6.9a.04.04 0 0 1-.04-.04v-.7c0-.02.02-.03.04-.03Z" fill="#EA1A22"/></svg>