<!-- by TradingView --><svg width="56" height="56" viewBox="0 0 56 56" xmlns="http://www.w3.org/2000/svg"><path fill="#F0F3FA" d="M0 0h56v56H0z"/><path fill-rule="evenodd" d="M41.5 31.98c-.89.64-2 1.02-3.2 1.02-2.93 0-5.3-2.24-5.3-5s2.37-5 5.3-5c1.2 0 2.31.38 3.2 1.02v2.37A3.26 3.26 0 0 0 38.8 25c-1.77 0-2.8 1.34-2.8 3s1.03 3 2.8 3c1.13 0 2.13-.55 2.7-1.39v2.37ZM4 33V23h2.66L9 27.77 11.34 23H14v10h-2.5v-6.53L9.79 30.5H8.2L6.5 26.46V33H4Zm12-10h5.5v2H20v6h1.5v2H16v-2h1.5v-6H16v-2Zm7 10V23h3.13l3.37 5.7V23H32v10h-2.49l-4.01-6.81V33H23Zm29-5a5 5 0 1 1-10 0 5 5 0 0 1 10 0Zm-2.5 0c0 1.66-1.12 3-2.5 3s-2.5-1.34-2.5-3 1.12-3 2.5-3 2.5 1.34 2.5 3Z" fill="#21B04B"/></svg>