<!-- by TradingView --><svg width="56" height="56" fill="none" xmlns="http://www.w3.org/2000/svg"><path fill="#F0F3FA" d="M0 0h56v56H0z"/><path fill-rule="evenodd" clip-rule="evenodd" d="M27.04 18.23a1.44 1.44 0 0 1 .223-.593h-.003l2.969-4.734a1.91 1.91 0 0 1 1.062-.81 2.02 2.02 0 0 1 1.496.114c.23.113.433.268.6.458.168.19.295.409.374.646.102.325.115.67.037 1.002a1.942 1.942 0 0 1-.48.89l-3.713 4.171a1.483 1.483 0 0 1-.643.406 1.525 1.525 0 0 1-1.45-.298 1.427 1.427 0 0 1-.416-.623 1.424 1.424 0 0 1-.056-.629Zm-.843 5.997-5.94-2.498a1.343 1.343 0 0 1-.52-.393 1.248 1.248 0 0 1-.207-1.214c.074-.202.197-.383.36-.527a1.373 1.373 0 0 1 1.228-.296l6.354 1.365c.445.097.841.341 1.12.69.279.35.423.782.407 1.224-.016.44-.19.863-.494 1.192-.303.33-.715.547-1.166.614-.389.055-.785.001-1.142-.157Zm11.73.293a1.567 1.567 0 0 0-1.25.234c-.21.148-.377.347-.483.577a1.39 1.39 0 0 0 .158 1.426c.154.203.36.363.598.465l5.25 2.12a2.086 2.086 0 0 0 1.996-.18c.42-.296.7-.741.78-1.238a1.85 1.85 0 0 0-.352-1.41 1.925 1.925 0 0 0-1.125-.725l-5.564-1.26-.007-.01ZM34.29 35.837c.105.187.166.394.18.606l-.01-.002.07.781c.134 1.5.414 4.646.414 4.737.04.45-.09.897-.367 1.26a1.97 1.97 0 0 1-1.277.758 2.011 2.011 0 0 1-1.457-.337c-.28-.205-.5-.477-.64-.79a1.902 1.902 0 0 1-.151-.992l.224-2.625.002-.017.001-.02.003-.032.002-.025.001-.013.001-.011v-.005l.235-2.74c.026-.25.12-.489.273-.693a1.47 1.47 0 0 1 .595-.468 1.522 1.522 0 0 1 1.474.15c.176.128.322.29.427.478Zm-12.373 1.13c.204-.078.389-.198.54-.353.152-.154.267-.339.338-.54.08-.24.094-.495.04-.741a1.416 1.416 0 0 0-.348-.661 1.486 1.486 0 0 0-.642-.404 1.528 1.528 0 0 0-.765-.04l-5.541 1.265a2.05 2.05 0 0 0-.93.445 1.955 1.955 0 0 0-.58.833 1.84 1.84 0 0 0 .117 1.447c.235.448.645.787 1.139.943a1.98 1.98 0 0 0 1.352-.049l5.28-2.137v-.007Zm-4.195-11.25a1.513 1.513 0 0 1-.515-.387l-3.738-4.193a1.838 1.838 0 0 1-.469-1.23c0-.502.207-.984.574-1.34a1.994 1.994 0 0 1 1.386-.555c.351.006.694.1.996.274.303.174.553.42.726.716.01.012 2.955 4.694 2.955 4.706a1.396 1.396 0 0 1 .004 1.434c-.13.219-.317.4-.543.526a1.517 1.517 0 0 1-1.376.049Zm13.637-3.493-.002.013-.308 3.107c-.045.377.024.76.198 1.1.207.391.549.7.965.876a2.02 2.02 0 0 0 1.32.082 1.958 1.958 0 0 0 1.073-.746 1.85 1.85 0 0 0 .34-1.237c0-.014-.618-6.256-.62-6.268a1.244 1.244 0 0 0-.143-.503 1.322 1.322 0 0 0-.775-.641 1.373 1.373 0 0 0-1.018.077c-.199.099-.37.244-.496.423a1.278 1.278 0 0 0-.23.6l.005-.002c0 .007-.154 1.563-.31 3.119Zm.176 8.154 6.322-1.363h.003c.218-.045.445-.038.66.023.214.06.41.172.569.323.25.242.39.57.39.912 0 .342-.14.67-.39.912a1.321 1.321 0 0 1-.45.286l-5.969 2.512a2.018 2.018 0 0 1-1.324.078 1.955 1.955 0 0 1-1.071-.757 1.847 1.847 0 0 1 .242-2.404c.28-.266.634-.447 1.018-.522Zm-1.512 7.402-3.288-5.398c-.192-.331-.48-.601-.827-.778-.405-.2-.87-.256-1.314-.161-.444.095-.84.337-1.12.684-.28.346-.426.776-.414 1.216.012.44.181.862.48 1.195l4.308 4.72c.14.164.322.292.526.373a1.374 1.374 0 0 0 1.258-.133c.181-.122.33-.285.43-.475a1.27 1.27 0 0 0-.039-1.238v-.005Zm-6.488-9.184-4.292 4.682.005.003c-.15.16-.339.284-.55.356a1.39 1.39 0 0 1-.66.06 1.356 1.356 0 0 1-.6-.248c-.175-.13-.314-.3-.405-.495a1.253 1.253 0 0 1 .089-1.221l3.31-5.413c.235-.375.597-.66 1.025-.805a2.022 2.022 0 0 1 1.32.007c.427.15.786.439 1.017.817.23.378.319.821.25 1.255a1.934 1.934 0 0 1-.509 1.002Z" fill="#EB2E4A"/></svg>