<!-- by TradingView --><svg width="56" height="56" viewBox="0 0 56 56" xmlns="http://www.w3.org/2000/svg"><path fill="#F0F3FA" d="M0 0h56v56H0z"/><path fill-rule="evenodd" d="M36.48 16.5a32.36 32.36 0 0 0-3.28-3.81c-2.65-2.58-4.96-3.3-6.94-2.17-1.23.7-2.55 1.77-3.96 3.2a40.8 40.8 0 0 0-5.9 7.55l-.74 1.55a48.25 48.25 0 0 0-1.58 3.49 36.97 36.97 0 0 0-1.77 6.35 16.47 16.47 0 0 0-.3 3.4c.01.81.13 1.47.35 1.98.25.57.67 1.06 1.26 1.46 1.08.75 2.33 1.37 3.73 1.88a31.07 31.07 0 0 0 7.57 1.61c.55.02 2.22 0 5.02-.07 1.48-.04 3.29-.3 5.43-.79l2.1-.48c1.62-.41 3.09-1 4.4-1.74a5.09 5.09 0 0 0 1.44-1.15c.4-.5.62-1.07.66-1.74.13-1.94-.18-4.4-.93-7.4a38.23 38.23 0 0 0-2.08-5.94c-.46-1.08-1-2.08-1.6-3.01a80.62 80.62 0 0 0-2.88-4.17Zm-17.8 2.68.18-.47a18.33 18.33 0 0 0-2 3.15c-.2.45-.52 1.15-.97 2.1a33.76 33.76 0 0 0-3.06 9.73c-.1.66-.15 1.46-.14 2.42 0 .64.1 1.17.28 1.58.19.43.5.83.97 1.2.89.7 2.01 1.3 3.38 1.76 3.34 1.14 6.23 1.7 8.66 1.66l2.36-.02c3.05 0 6.34-.52 9.88-1.58a14.07 14.07 0 0 0 3.97-1.77c.55-.39.9-.9 1.06-1.55.1-.43.13-1.08.09-1.95a23.18 23.18 0 0 0-.35-2.97c-.88-4.74-2.4-8.75-4.55-12.04-2.43-3.73-4.67-6.46-6.73-8.21-1.87-1.59-3.58-1.96-5.12-1.1a20.4 20.4 0 0 0-3.74 2.94c-.8.76-1.96 2.06-3.47 3.92l.05.03.86-.5c.17-.1.3-.06.41.11.41.64.73 1.31.96 2 .25.79.35 1.5.3 2.17-.02.17.02.18.11.04.67-.99 1.71-1.86 3.12-2.6 1.2-.63 1.71.1 1.53 2.22 0 .03-.02.05-.05.06a.06.06 0 0 1-.07-.01c-.33-.35-.66-.53-1-.55-.38-.03-.66.19-.84.65-.21.55-.33 1.1-.37 1.64-.07 1.26-.14 2.24-.19 2.93a42.1 42.1 0 0 0-.02 4.82c.05 1.07.25 1.83.6 2.31.16.22.38.24.68.08.1-.05.13-.03.13.07v2.45a.1.1 0 0 1-.04.09.1.1 0 0 1-.1 0c-1.22-.54-2-1.24-2.37-2.1a9.31 9.31 0 0 1-.66-2.63c-.07-.59-.1-1.5-.1-2.74v-.08c0-.59.08-1.55.22-2.88.13-1.17.19-1.97.18-2.4 0-.21-.06-.23-.18-.05-.16.25-.3.5-.42.76a44.42 44.42 0 0 0-2.84 8.9.41.41 0 0 1-.18.26l-1.9 1.25c-.14.1-.2.06-.14-.1a294.9 294.9 0 0 0 2.67-9.56c.06-.26.12-.56.17-.9.08-.54.07-.9 0-1.07-.05-.09-.08-.09-.11.01l-.2.7c-.3.97-.52 1.69-.7 2.13a80.7 80.7 0 0 1-2.04 4.94c-.45 1-.93 1.77-1.44 2.32-.32.33-.76.47-1.33.43-.23-.02-.4-.1-.48-.26-.15-.24-.2-.5-.16-.8.03-.2.11-.47.26-.8.03-.08.07-.09.13-.04.27.26.57.3.9.14.25-.14.48-.38.7-.73a42.03 42.03 0 0 0 3.3-6.86c.4-1 .67-1.88.84-2.64.26-1.22 0-1.84-.78-1.86a.1.1 0 0 1-.09-.05.11.11 0 0 1-.01-.1Z" fill="#B6312A"/><path d="m33.86 18.52-.09.76a6.82 6.82 0 0 1-1.03 2.78 17 17 0 0 1-2.3 2.47c-.5.45-1.09.83-1.79 1.14-.04.02-.06.05-.04.1.3.89.75 1.85 1.37 2.88a49.54 49.54 0 0 0 1.86 2.77c.22.31.47.55.75.71.38.23.64.16.8-.19a.2.2 0 0 1 .12-.1c.02 0 .04 0 .07.02.05.02.07.06.07.11v4.97c0 .04-.02.06-.05.08a.08.08 0 0 1-.1-.02 19.54 19.54 0 0 1-4.97-7.94c-.04-.14-.11-.22-.2-.24-.11-.02-.17.02-.18.13-.05.58-.1 1.47-.16 2.66-.09 1.78.14 3.7.7 5.73.03.1-.01.16-.12.16l-.16.01a7.05 7.05 0 0 1-2.35-.19.14.14 0 0 1-.1-.12 5.71 5.71 0 0 1-.04-.78c.01-1.74.15-3.55.4-5.43.41-3.05.62-4.8.64-5.22.08-2.83.12-4.53.12-5.1 0-1.26-.1-2.45-.29-3.56a3.04 3.04 0 0 0-.52-1.25c-.21-.3-.51-.42-.9-.36-.08.01-.11-.02-.07-.1l.03-.07c.5-1.04.89-1.73 1.19-2.07.33-.37.66-.44 1-.19.26.2.47.5.64.95.5 1.3.74 2.68.75 4.17 0 1.93-.1 3.8-.3 5.59a.72.72 0 0 0 0 .24c.03.1.1.14.2.1a4.77 4.77 0 0 0 1.95-1.68c.46-.68.8-1.47 1-2.38.07-.35.08-.65.01-.9-.06-.25-.2-.5-.43-.75a.12.12 0 0 1-.02-.13.11.11 0 0 1 .11-.07c.79-.03 1.6.07 2.43.31Z" fill="#CD2B1E"/><path d="M18.86 18.7c.12-.1.23-.27.31-.47.1-.05.18-.12.26-.22l.86-.5c.17-.1.3-.06.41.11.41.64.73 1.31.96 2 .25.79.35 1.5.3 2.17-.02.17.02.18.11.04.67-.99 1.71-1.86 3.12-2.6 1.2-.63 1.71.1 1.53 2.22 0 .03-.02.05-.05.06a.06.06 0 0 1-.07-.01c-.33-.35-.66-.53-1-.55-.38-.03-.66.19-.84.65-.21.55-.33 1.1-.37 1.64-.07 1.26-.14 2.24-.19 2.93a42.1 42.1 0 0 0-.02 4.82c.05 1.07.25 1.84.6 2.31.16.22.38.24.68.08.1-.05.13-.03.13.07v2.45a.1.1 0 0 1-.04.09.1.1 0 0 1-.1 0c-1.22-.54-2-1.24-2.37-2.1a9.31 9.31 0 0 1-.66-2.63c-.07-.59-.1-1.5-.1-2.74v-.08c0-.59.08-1.55.22-2.88.13-1.17.19-1.97.18-2.4 0-.21-.06-.23-.18-.05-.16.25-.3.5-.42.76a44.42 44.42 0 0 0-2.84 8.9.41.41 0 0 1-.18.26l-1.9 1.25c-.14.1-.2.06-.14-.1a294.9 294.9 0 0 0 2.67-9.56c.06-.26.12-.56.17-.9.08-.54.07-.9 0-1.07-.05-.09-.08-.09-.11.01l-.2.7c-.3.97-.52 1.69-.7 2.13a80.76 80.76 0 0 1-2.04 4.94c-.45 1-.93 1.77-1.44 2.32-.32.33-.76.47-1.33.43-.23-.02-.4-.1-.48-.26-.14-.24-.2-.5-.16-.8.03-.2.11-.47.26-.8.03-.08.07-.09.13-.04.27.26.57.3.9.14.25-.14.48-.38.7-.73a42.03 42.03 0 0 0 3.3-6.86c.4-1 .67-1.88.84-2.64.26-1.22 0-1.84-.78-1.86a.1.1 0 0 1-.09-.05.11.11 0 0 1-.01-.1l.17-.47Z" fill="#271769"/><path d="m19.38 17.98.05.03a.72.72 0 0 1-.26.22c0-.1.06-.18.2-.25Z" fill="#CD2B1E"/><path fill-rule="evenodd" d="m33.86 18.52-.09.76c.77 5.4 1.11 10.79 1.02 16.16 0 .05.03.08.08.08.94.03 1.83-.22 2.65-.76.05-.03.06-.07.03-.12a9.48 9.48 0 0 1-.97-2.35c-.18-.7-.33-1.61-.45-2.75 0-.06.02-.1.08-.13a6.43 6.43 0 0 0 2.65-2.27c.7-1.07.96-2.2.78-3.38a5.83 5.83 0 0 0-3.89-4.87 4.35 4.35 0 0 0-1.89-.37Zm2.42 9.84c.54-.4.97-1.17 1.28-2.3.25-.9.35-1.71.3-2.44a5.03 5.03 0 0 0-.78-2.33 2.02 2.02 0 0 0-.6-.62c-.14-.09-.26-.07-.37.05-.15.16-.23.38-.25.66-.01.36-.04.88-.09 1.58a38.23 38.23 0 0 0-.08 4.56c.02.21.08.45.18.72.04.08.1.14.18.16.08.02.16.01.23-.04Z" fill="#271769"/><path d="M14.71 37.61c-.06-.13-.09-.13-.09.02v1.1c0 .18-.08.24-.25.17l-.1-.04a.28.28 0 0 1-.19-.29v-2.22c0-.05.02-.08.06-.11a.13.13 0 0 1 .12-.02c.27.08.46.23.59.47.22.42.52 1.12.92 2.07.02.06.05.06.08.02l.94-1.17a.14.14 0 0 1 .14-.06c.43.05.66.28.66.68v1.93c0 .15-.08.2-.22.17l-.2-.05c-.16-.04-.24-.15-.24-.33v-1.4c0-.08-.03-.09-.08-.02l-.77.95a.31.31 0 0 1-.3.12.32.32 0 0 1-.27-.2l-.8-1.79Z" fill="#B6312A"/><path fill-rule="evenodd" d="M40.18 38.41c0-.06.03-.09.1-.08.09.02.24.1.45.22.24.15.41.23.54.26.2.04.38-.01.53-.16.05-.05.06-.1.05-.17a.19.19 0 0 0-.11-.14l-.45-.2c-.06-.04-.07-.08-.02-.13a4 4 0 0 1 .09-.1c.45-.49.63-.88.54-1.18-.15-.48-.84-.4-2.07.23l-.13.06a.3.3 0 0 0-.17.3v2.17c0 .12.05.16.17.12l.3-.09c.12-.03.18-.11.18-.24v-.87Zm.04-.38c.66-.24 1.04-.58 1.13-1.03 0-.03 0-.05-.02-.07a.07.07 0 0 0-.07-.02l-1 .3c-.04.02-.06.05-.06.1v.7c0 .02 0 .03.02.02Z" fill="#B6312A"/><path d="M18.83 39.63c-.06-.01-.08 0-.08.07v.37c0 .06.03.1.08.12l2 .52c.13.04.19.12.18.26V41c0 .07-.04.12-.1.16a.22.22 0 0 1-.18.02l-2.55-.68c-.06-.02-.1-.06-.1-.12v-2.34c0-.11.06-.16.17-.13l2.62.7c.12.03.17.1.14.23l-.03.1c-.03.13-.12.18-.25.14l-1.87-.5c-.08-.01-.12.02-.12.1v.24c0 .12.06.2.18.23 1.04.26 1.66.43 1.86.5.15.05.22.14.22.27 0 .07-.03.13-.09.17a.2.2 0 0 1-.18.04l-1.9-.5ZM34.62 39.35v-.78c0-.08.04-.13.11-.14l.38-.07c.11-.03.17.02.17.13v2.35c0 .1-.05.15-.14.15h-.38c-.1 0-.14-.05-.14-.15v-.72c0-.11-.06-.16-.17-.13l-1.51.3c-.08.01-.12.06-.12.14v.89c0 .09-.05.14-.14.14h-.37c-.1 0-.15-.05-.15-.14v-2.28c0-.08.04-.12.12-.14l.38-.07c.1-.03.16.02.16.14v.68c0 .12.06.16.17.14l1.51-.3c.08-.01.12-.06.12-.14Z" fill="#B6312A"/><path fill-rule="evenodd" d="m36.78 39.8 1.42-.43c.07-.02.13 0 .17.05l.3.36c.1.14.24.18.41.13l.15-.05c.16-.05.18-.13.08-.26l-1.38-1.69a.44.44 0 0 0-.4-.17.44.44 0 0 0-.37.23l-1.53 2.68c-.08.14-.04.21.13.21.1 0 .18-.01.24-.04a.77.77 0 0 0 .34-.34l.3-.57c.04-.05.08-.09.14-.1Zm1.08-.9a.93.93 0 0 0-.12-.2.9.9 0 0 0-.17-.18c-.04-.03-.08-.02-.1.02-.3.41-.44.64-.42.68.03.04.29-.03.77-.22.04-.02.06-.05.04-.1Z" fill="#CD2B1E"/><path d="m22.21 40.05 1.43-.83c.16-.1.33-.12.51-.08l.23.06c.06.01.09.05.1.1 0 .06-.01.1-.06.13l-1.3.76c-.06.03-.07.07-.02.12l1.32 1.24c.04.04.05.08.03.13a.18.18 0 0 1-.1.11.8.8 0 0 1-.6-.16c-.4-.3-.71-.58-.96-.84-.1-.11-.2-.17-.3-.18-.23-.03-.37.19-.41.65v.06c-.01.06-.05.1-.1.1-.34.04-.52-.1-.53-.4-.02-.35-.02-1.04 0-2.08 0-.1.05-.15.15-.15h.34c.1 0 .16.06.16.17v1.03c0 .08.04.1.11.06Z" fill="#B6312A"/><path fill-rule="evenodd" d="M29.6 41.58v-.68c0-.06.03-.1.1-.1.36-.01.83-.1 1.4-.23a.97.97 0 0 0 .57-.34.67.67 0 0 0 .15-.5.67.67 0 0 0-.25-.45.96.96 0 0 0-.61-.22c-.53-.01-1.17.05-1.94.18-.06.01-.09.05-.09.1v2.28c0 .13.07.2.2.2h.23c.16 0 .23-.08.23-.24Zm.01-1.97c-.03 0-.04.02-.04.05l.05.6c0 .02.01.04.04.03l.23-.01c.36-.03.66-.08.9-.15.25-.07.37-.14.37-.22l-.01-.15c0-.07-.14-.12-.4-.16a4.75 4.75 0 0 0-.91 0l-.23.01Z" fill="#B6312A"/><path d="M28 41.44c.42-.27.62-.59.62-.96-.01-.37-.23-.68-.66-.93a2.85 2.85 0 0 0-1.53-.36c-.6.01-1.1.16-1.52.43-.42.26-.62.58-.61.95 0 .37.22.68.65.93.42.26.94.38 1.53.36.6 0 1.1-.15 1.52-.42Zm-.03-.94c0 .47-.66.85-1.48.87-.82 0-1.5-.36-1.5-.82 0-.46.65-.85 1.48-.86.82-.01 1.5.35 1.5.81Z" fill="#B6312A"/></svg>