<!-- by TradingView --><svg width="56" height="56" viewBox="0 0 56 56" xmlns="http://www.w3.org/2000/svg"><path fill="#F0F3FA" d="M0 0h56v56H0z"/><path fill-rule="evenodd" d="M32.86 13.7a7 7 0 0 0-4.43-3.7h-.68c-.98.21-1.88.67-2.7 1.37a8.13 8.13 0 0 0-1.89 2.4c-2.28 4.3-6 11.42-11.18 21.34-.46.88-.79 1.86-.98 2.96v.85a3.05 3.05 0 0 0 1.98 2.41c1.06.44 2.2.65 3.39.66 7.97.02 15.95.01 23.93 0 1.1-.01 2.06-.2 2.88-.57 1.04-.48 1.65-1.2 1.82-2.16V37.9a10.57 10.57 0 0 0-1.1-3.14A9980.1 9980.1 0 0 0 32.86 13.7Zm-.96.53c-1.12-1.96-2.43-2.94-3.9-2.93-1.49 0-2.78 1-3.88 2.98-.7 1.28-1.56 2.9-2.55 4.9-.03.05-.02.06.03.04l2.26-1.15a.17.17 0 0 0 .06-.07l1.62-3.03c.77-1.43 1.6-2.15 2.46-2.16.87 0 1.7.7 2.5 2.13l1.65 3c.01.03.04.05.07.07l2.26 1.12c.05.03.07.01.04-.04-1.02-1.97-1.9-3.6-2.62-4.86Zm-10.35 8.7a9.24 9.24 0 0 1 4.87-2.52c2.54-.47 4.85 0 6.92 1.4.98.67 1.82 1.51 2.51 2.52.7 1.03 1.22 2.34 1.54 3.6 0 .05.03.07.07.07h1.31c.03 0 .04-.02.03-.05a11.76 11.76 0 0 0-4.44-7.1 10.5 10.5 0 0 0-12.27-.16 11.33 11.33 0 0 0-4.82 8.28 11.5 11.5 0 0 0 3.34 9.27 10.73 10.73 0 0 0 11.1 2.48c2.16-.79 3.93-2.17 5.3-4.14a.08.08 0 0 0 .02-.08.07.07 0 0 0-.07-.05h-1.53c-.1 0-.18.05-.25.13-.21.31-.56.67-1.04 1.08a8.73 8.73 0 0 1-6 2.27 9.56 9.56 0 0 1-8.1-4.64 9.78 9.78 0 0 1-1.35-6.45 9.59 9.59 0 0 1 2.86-5.91ZM36.6 28h-2.27c-.08 0-.13-.05-.16-.13-.97-2.4-2.68-3.97-5.11-4.4a5.82 5.82 0 0 0-4.01.77c-1.44.82-2.42 2-2.96 3.53a6.83 6.83 0 0 0 .04 4.67 6.34 6.34 0 0 0 2.72 3.35 5.88 5.88 0 0 0 4.63.78c.44-.08.79-.12 1.03-.12l3.67-.02c.04 0 .07.02.09.06a.1.1 0 0 1-.02.11 8.04 8.04 0 0 1-4.26 2.42 8.32 8.32 0 0 1-4.86-.35 9.11 9.11 0 0 1-5.69-6.94 9.34 9.34 0 0 1 2.9-8.58A8.38 8.38 0 0 1 27.1 21a8.3 8.3 0 0 1 5.2 1.02 9.42 9.42 0 0 1 4.34 5.8.2.2 0 0 1 0 .13c0 .03-.03.06-.05.06Zm.27 7.95.25-.55c.05-.09.02-.13-.08-.13h-9.95c-.06 0-.08-.03-.08-.1V24.1c0-.06-.05-.09-.1-.09h-.8c-.07 0-.1.03-.1.1v11.8c0 .07.03.1.1.1h10.68c.03 0 .06-.02.08-.05Zm1.6-2.8-.73 1.58a.08.08 0 0 1-.08.04h-9.57c-.05 0-.08-.02-.08-.08V24.1c0-.06.03-.09.08-.09h1.83c.05 0 .1.03.1.08v8.87c0 .05 0 .05.05.05h8.34c.08 0 .1.07.07.15Zm3.05 3.07c.74 1.5.77 2.44.08 2.83-.39.21-.86.33-1.41.36-1.05.04-2.26.06-3.63.04a.14.14 0 0 0-.09.03l-1.9 1.43c-.06.04-.05.06.02.06 3.62.05 5.72.04 6.27-.04.75-.1 1.32-.24 1.72-.44.55-.27.94-.7 1.15-1.28.13-.38.14-.86.03-1.45-.1-.48-.25-.94-.47-1.38-.7-1.42-1.94-3.86-3.73-7.33a.08.08 0 0 0-.08-.05h-1.65c-.03 0-.04.01-.03.04 1.8 3.4 3.03 5.79 3.72 7.18Zm-27.03.34c-.55 1.2-.45 2.03.3 2.47.46.28 1.34.43 2.65.47.76.02 1.5.02 2.23.01a.5.5 0 0 1 .31.1l1.75 1.31c.07.05.06.08-.03.08-2.43 0-4.26 0-5.47-.02a6 6 0 0 1-1.65-.24 3.35 3.35 0 0 1-1.43-.77c-.58-.58-.81-1.35-.67-2.32.1-.68.38-1.5.87-2.47.88-1.75 1.67-3.27 2.36-4.57.08-.15.12-.14.14.02l.28 2.47c0 .06 0 .11-.02.16-.68 1.3-1.22 2.4-1.62 3.3Z" fill="#322372"/></svg>