<!-- by TradingView --><svg width="56" height="56" viewBox="0 0 56 56" xmlns="http://www.w3.org/2000/svg"><path fill="#F0F3FA" d="M0 0h56v56H0z"/><path d="M6 28v-7h2.16l1.34 5.2 1.34-5.2H13v7h-1.32v-5.72L10.06 28H8.94l-1.62-5.72V28H6Zm10.43 0H15l2.61-7H19.39L22 28h-1.43l-.74-2h-2.66l-.74 2Zm1.11-3h1.92l-.96-2.58-.96 2.58ZM32 28h1.43l.74-2h2.66l.74 2H39l-2.61-7H34.61L32 28Zm3.5-5.58.96 2.58h-1.92l.96-2.58ZM26.2 28c-1.65 0-2.15-1.45-2.2-2.18h1.3c.19 1.18.9 1.23 1.2 1.23.29 0 1.15-.15 1.15-.85 0-.56-.43-.71-1.28-1.01l-.72-.28c-1.32-.51-1.44-1.4-1.44-1.7 0-.28.07-2.21 2.37-2.21a2.18 2.18 0 0 1 2.33 2.15h-1.38c-.06-.52-.33-1.07-.95-1.07-.63 0-1.04.45-1.04.89s.41.67 1.19.96l.33.11c.81.27 1.94.65 1.94 1.72 0 1.23-.74 2.24-2.8 2.24ZM42 28h1.4v-5.77l2.56 5.67H48V21h-1.43v5.5L44.1 21H42v7Z" fill="#004984"/><path fill-rule="evenodd" d="M29.24 39.7c1.9.45 3.72.4 5.45-.16a6.65 6.65 0 0 0 3.46-2.47 10.4 10.4 0 0 0 1.64-4.04c.16-.8.23-1.38.2-1.76a2.33 2.33 0 0 0-.72-1.57 2.15 2.15 0 0 0-2.57-.46c-1.4.63-2.72 1.04-3.95 1.22-1.34.2-2.74.16-4.2-.12a9.04 9.04 0 0 0-1.82-.12 4.99 4.99 0 0 0-1.83.41c-.62.35-1.1.8-1.42 1.35-.3.52-.46 1.09-.48 1.71-.01.6.1 1.2.36 1.8.26.6.62 1.13 1.1 1.6a9.91 9.91 0 0 0 4.78 2.6Zm-.8-.54c1.48.48 3.03.62 4.66.42a7.11 7.11 0 0 0 3.1-1.1 6.13 6.13 0 0 0 2.13-2.43c.48-.97.86-2.13 1.14-3.48a3.9 3.9 0 0 0 .07-1.77 2.22 2.22 0 0 0-.94-1.27c-.5-.33-1.01-.37-1.52-.14-.71.31-1.37.59-1.98.82-2.09.79-4.22.92-6.4.39a6 6 0 0 0-2.01-.14c-.77.07-1.41.28-1.94.6-.63.4-1.05 1-1.25 1.8a3.6 3.6 0 0 0 .12 2.27c.25.65.55 1.17.9 1.55a8.94 8.94 0 0 0 3.92 2.48Zm.45-8.26c1.9.4 3.74.34 5.5-.16.76-.22 1.7-.56 2.84-1.04.08-.03.2-.05.38-.05.17 0 .3 0 .4.02 1.17.29 1.58 1.3 1.21 3.05-.48 2.28-1.27 3.92-2.37 4.92A6.26 6.26 0 0 1 34.37 39c-.78.23-1.73.34-2.84.35a9.23 9.23 0 0 1-6.74-2.91 4.18 4.18 0 0 1-1-2.04 3.1 3.1 0 0 1 .37-2.18 2.98 2.98 0 0 1 2.1-1.4 6.62 6.62 0 0 1 2.63.07ZM26 36v-3l1.8 1.85L29.63 33v3h-.84v-.97l-.97.97-.97-.97V36H26Zm4 0v-3h2.36v.75h-1.6v.47h1.17v.71h-1.17v.37h1.6v.7H30Zm3.34 0h-.82l1.77-3 1.67 3h-.94l-.18-.4h-1.27l-.23.4Zm.95-1.66.27.62h-.62l.35-.62ZM38 33h-2.72v.82h.9V36h.91v-2.18H38V33Z" fill="#F32740"/><path d="M41 37v-4h.79v3.36h1.18V37H41ZM43.01 34h.82v3h-.82z"/><circle cx="43.42" cy="33.07" fill="#9E4B55" r=".41"/><path d="M44.4 34v-.62c.02-.3.25-.88.97-.88.35 0 .5.26.54.39v.5c-.03-.07-.16-.2-.4-.2-.27 0-.27.26-.27.34V34h.5v.65h-.5V37h-.84v-2.35H44V34h.4Z"/><path fill-rule="evenodd" d="m48.98 35.75.02-.25a1.5 1.5 0 1 0-.33.93l-.47-.45a.84.84 0 0 1-1.5-.23H48.97Zm-1.48-1.1c-.33 0-.62.2-.76.48h1.52a.84.84 0 0 0-.76-.47Z"/></svg>