<!-- by TradingView --><svg width="56" height="56" viewBox="0 0 56 56" xmlns="http://www.w3.org/2000/svg"><path fill="#F0F3FA" d="M0 0h56v56H0z"/><path d="M48 19v3c-1.48 0-2.96-.02-4.44 0a6.05 6.05 0 0 0-3.79 1.3 5.14 5.14 0 0 0-2.05 4.28 5.07 5.07 0 0 0 2.1 4.18 6.81 6.81 0 0 0 4.3 1.24h3.69c.1 0 .14.07.15.17l.04 2.35v.11l-.05.24c-.02.09-.07.13-.16.13-2.3-.02-3.76-.03-4.42-.02-1.37.02-2.68-.22-3.92-.7a8.97 8.97 0 0 1-3.15-2.05 7.83 7.83 0 0 1-1.93-3.16 8.4 8.4 0 0 1-.23-4.04 7.85 7.85 0 0 1 3.22-5.18 9.56 9.56 0 0 1 5.85-1.81c1.8 0 3.23 0 4.3-.04H48ZM29.58 29.86c.73-.61 1.43-1.43 2.1-2.46 2.13 2.01 2.55 4.17 1.25 6.48-.5.9-1.16 1.58-1.97 2.05-.8.46-1.72.77-2.75.93-3.9.6-7.4-.76-10.52-4.1a48.01 48.01 0 0 1-6.05-8.07c-.03-.04-.07-.06-.11-.04-.05.01-.07.04-.07.09v11.15c0 .07-.04.1-.11.1H8.2c-.09 0-.14-.03-.15-.12L8 35.53V19.12c.05-.08.1-.12.14-.12h3.68c.12 0 .2.05.26.15 1.86 3.06 3.67 5.85 5.44 8.36 1.6 2.3 3.1 4 4.47 5.07 2.09 1.64 4.15 2.14 6.16 1.52a2.79 2.79 0 0 0 1.9-1.75 2.3 2.3 0 0 0-.47-2.49Z" fill="#063061"/><path d="M23.5 22.23v9.68c0 .04-.02.07-.06.08-.03.02-.06.01-.1-.02l-3.19-3.27a.52.52 0 0 1-.15-.38v-9.15c0-.1.05-.15.15-.15 2.16-.02 4.45-.03 6.85 0 1.05 0 1.72.03 2.02.07 1.06.16 1.93.55 2.62 1.16a4.05 4.05 0 0 1 1.31 2.56c.27 2-.57 3.53-2.54 4.6-.79.44-1.7.76-2.73.96-.93.18-1.72.25-2.6.2-.05 0-.08-.03-.08-.09V26.1c0-.06.04-.1.1-.1h.47c1.62.03 2.6-.13 3.18-.46.41-.24.69-.55.83-.93.14-.36.15-.73.04-1.1a1.9 1.9 0 0 0-.63-.95c-.32-.27-.7-.43-1.14-.46a49.9 49.9 0 0 0-4.18-.05c-.12 0-.18.06-.18.18Z" fill="#063061"/><path d="M32.14 27.43a11.01 11.01 0 0 1-2.1 2.45 8.3 8.3 0 0 1-4.96 1.79c-.05 0-.08-.03-.08-.08v-2.2c0-.05.02-.08.07-.08 3.67-.1 6.17-1.26 7.5-3.48.34-.56.4-.54.16.08-.2.56-.4 1.07-.59 1.52Z" fill="#E50001"/></svg>