<!-- by TradingView --><svg width="56" height="56" fill="none" xmlns="http://www.w3.org/2000/svg"><path fill="#F7E23B" d="M0 0h56v56H0z"/><path fill-rule="evenodd" clip-rule="evenodd" d="M37 29.31v-3.544c0-.234-.008-.423-.244-.423h-.301V25h2.553c.534-.005 1.602.265 1.602 1.385s-1.068 1.395-1.602 1.393H38v1.532c0 .234.118.424.353.424h.287V30h-2.262v-.266h.378c.236 0 .244-.19.244-.424Zm1-1.882v-1.979c.083-.038.289-.114.45-.114.2 0 1.05.084 1.05 1.065 0 .786-.7 1.013-1.05 1.028H38Zm-22.743-2.2a.5.5 0 0 1 .5.5V29.2a.5.5 0 0 1-.5.5H15V30h1.713v-.3H16.5a.5.5 0 0 1-.5-.5v-3.303L18.112 30 20 25.897v3.304a.5.5 0 0 1-.5.5h-.075V30h2.312v-.3h-.228a.5.5 0 0 1-.5-.5v-3.472a.5.5 0 0 1 .5-.5h.228V25h-1.613l-1.713 3.547L16.713 25H15v.228h.257Zm7.182.772v.263h.144a.42.42 0 0 1 .427.414v2.646a.42.42 0 0 1-.427.414h-.144V30h2.027v-.263h-.158c-.236 0-.308-.185-.308-.414v-2.646c0-.229.072-.414.308-.414h.158V26h-2.027Zm2.659.237V26h1.074l2.508 2.787v-2.134a.425.425 0 0 0-.434-.416h-.154V26h1.527v.237h-.195a.416.416 0 0 0-.424.416V30h-.237L26 26.919v2.43c0 .23.221.416.461.416h.123V30h-1.486v-.235h.175c.24 0 .434-.186.434-.416v-2.47c0-.17-.07-.334-.196-.454l-.043-.041a.536.536 0 0 0-.37-.147Zm5.262-.242v.263h.153c.25 0 .487.186.487.414v2.646c0 .229-.238.414-.487.414h-.153v.263h2.145v-.263h-.167c-.25 0-.338-.185-.338-.414V28h1.998v1.318c0 .229-.202.414-.451.414h-.153v.263h2.145v-.263h-.167c-.25 0-.372-.185-.372-.414v-2.646c0-.228.122-.414.372-.414h.167v-.263h-2.145v.263h.153c.25 0 .452.186.452.414V27.7H32v-1.028c0-.228.088-.414.338-.414h.167v-.263H30.36Zm10.98.263v-.263h2.144v.263h-.167c-.25 0-.317.186-.317.414v1.024h2v-1.024c0-.228-.225-.414-.474-.414h-.153v-.263h2.145v.263h-.167c-.25 0-.351.186-.351.414v2.646c0 .229.101.414.35.414h.168v.263h-2.145v-.263h.153c.25 0 .474-.185.474-.414v-1.322h-2v1.322c0 .229.067.414.317.414h.167v.263H41.34v-.263h.153c.25 0 .508-.185.508-.414v-2.646c0-.228-.259-.414-.508-.414h-.153ZM47.53 26v.26h.154c.245 0 .316.185.316.414v1.807c0 .84.854 1.522 1.75 1.522h.222c.897 0 1.623-.681 1.623-1.522v-1.843c0-.21.182-.379.405-.379V26h-1.426v.26h.154c.245 0 .443.185.443.414v1.936c0 .57-.494 1.033-1.102 1.033-.609 0-1.069-.463-1.069-1.033v-1.936a.4.4 0 0 1 .41-.415h.244V26h-2.123Z" fill="#313B94"/><path fill-rule="evenodd" clip-rule="evenodd" d="M9.26 27.426c1.056-1.298 3.822-4.02 6.439-4.526-.546-.675-2.212-2-4.517-1.894-.736.666-2.15 2.884-1.921 6.42Zm-.415 1.895c-.25-1.983-.26-6.42 1.713-8.315-.709.044-2.46.484-3.79 1.894-.147.86.063 3.347 2.077 6.42Zm.805 1.526c-2.658-2.21-3.358-5.815-3.375-7.341-.45.5-1.334 1.93-1.272 3.657.666 1.009 2.529 3.157 4.647 3.684Zm-4.543-2.605c.086.745.498 2.457 1.454 3.341.7.193 2.6.521 4.595.29-2.95-.253-5.262-2.526-6.05-3.631Zm5.378 5.471c-1.698-.21-2.763-.985-3.083-1.347 1.293.275 4.243.42 6.148-1.197-1.3 1.571-2.585 2.351-3.065 2.544Zm1.02.09c.748-.522 2.414-1.884 3.095-3.153l1.356 1.075c-.504.634-2.1 1.938-4.45 2.079Zm4.155-.845c-.278.31-1.645.822-2.294 1.04.457.082 1.627.246 2.642.246-.028-.493-.243-1.063-.348-1.286Zm-4.197 1.365c.712-.027 2.333.035 3.126.502-.202.566-.59 1.004-.759 1.175-.655-.738-1.851-1.41-2.367-1.677Z" fill="#FB4938"/></svg>