<!-- by TradingView --><svg width="56" height="56" viewBox="0 0 56 56" xmlns="http://www.w3.org/2000/svg"><path fill="#F0F3FA" d="M0 0h56v56H0z"/><path d="M27.95 11c.02 0 .04.01.06.04l3.82 6.37a.5.5 0 0 1 .06.25 10289.22 10289.22 0 0 1 0 12.68.5.5 0 0 1-.06.26A1470.6 1470.6 0 0 1 28 36.96c-.02.03-.04.04-.06.04-.02 0-.04-.01-.06-.04a1470.6 1470.6 0 0 1-3.82-6.36.5.5 0 0 1-.07-.26 1663707.39 1663707.39 0 0 1 0-12.68c0-.1.03-.18.07-.25 1.26-2.12 2.53-4.24 3.82-6.37.02-.03.03-.04.06-.04Z" fill="#ED1D24"/><path d="m22.06 30.78 3.77 6.07c.1.17.08.2-.08.08l-9.22-6.77c-.06-.04-.07-.1-.03-.16l5.35-8.88c.1-.17.15-.16.15.04v9.43c0 .07.03.13.06.19ZM34 31v-9.84c0-.2.06-.21.16-.04l5.36 8.87c.04.07.03.12-.04.17l-9.21 6.77c-.16.12-.2.09-.09-.08l3.77-6.07c.04-.06.06.29.06.22Z" fill="#ED1D24"/><path d="M28 39.56c.2 0 .49-.09.84-.27l9.66-5.09a5.3 5.3 0 0 1 1.88-.7c1.05-.06 1.91.4 2.6 1.39.04.06.03.1-.03.15L29.1 44.66c-.32.23-.69.34-1.1.34-.4 0-.77-.11-1.1-.34l-13.85-9.6c-.06-.05-.07-.1-.02-.16.68-.98 1.54-1.44 2.59-1.38.42.02 1.05.25 1.88.7l9.67 5.07c.34.18.62.27.83.27Z" fill="#1D5732"/></svg>