<!-- by TradingView --><svg width="56" height="56" viewBox="0 0 56 56" xmlns="http://www.w3.org/2000/svg"><path fill="#F0F3FA" d="M0 0h56v56H0z"/><path fill-rule="evenodd" d="M43.72 34.1a15.03 15.03 0 0 0-.02-12.25 15.82 15.82 0 0 0-3.7-5.19 16.94 16.94 0 0 0-5.52-3.45 17.75 17.75 0 0 0-6.5-1.21c-2.26 0-4.43.41-6.51 1.23a16.95 16.95 0 0 0-5.51 3.48 15.83 15.83 0 0 0-3.68 5.2 15.03 15.03 0 0 0 .02 12.24c.87 1.96 2.1 3.69 3.7 5.19A17.75 17.75 0 0 0 28.03 44c2.25 0 4.42-.41 6.5-1.23a16.95 16.95 0 0 0 5.51-3.48c1.6-1.5 2.82-3.23 3.68-5.2Zm-.26-.05A14.8 14.8 0 0 0 43.48 22a15.58 15.58 0 0 0-3.62-5.12 16.72 16.72 0 0 0-5.43-3.42 17.5 17.5 0 0 0-6.4-1.21c-2.22 0-4.36.4-6.41 1.19a16.7 16.7 0 0 0-5.44 3.4 15.57 15.57 0 0 0-3.63 5.1A14.8 14.8 0 0 0 12.53 34a15.58 15.58 0 0 0 3.62 5.12 16.72 16.72 0 0 0 5.42 3.42c2.05.8 4.19 1.2 6.4 1.2 2.23.01 4.36-.38 6.41-1.18a16.7 16.7 0 0 0 5.44-3.4 15.57 15.57 0 0 0 3.64-5.1Z" fill="#10A243"/><path d="M40.22 32.55a.4.4 0 0 1 .21.14 11.82 11.82 0 0 0-.1-9.64c-1.16-2.55-3-4.53-5.55-5.93a14.06 14.06 0 0 0-14.9.83 12.84 12.84 0 0 0-3.22 3.31 11.88 11.88 0 0 0-1.34 10.8l.03-.16c0-.05.04-.07.08-.07h.09a11.51 11.51 0 0 1-.11-7.31c.73-2.36 2.1-4.34 4.12-5.96a13.76 13.76 0 0 1 18.16 1.1 12.02 12.02 0 0 1 3.17 5.86c.51 2.31.3 4.66-.64 7.03Z" fill="#10A243"/><path d="M28.02 18.89a.14.14 0 0 1-.05 0l-.02-.01c-.39-.38-.93-.52-1.63-.43-.22.03-.26.13-.1.3.31.33.67.31 1.05-.04.06-.05.11-.06.18-.04.3.1.45.3.47.59 0 .22-.01.55-.06.98a9 9 0 0 0-.04.54c-.05 1.5-.09 2.92-.11 4.27 0 .08.04.12.12.11a1.24 1.24 0 0 1 .32 0c.09.01.13-.03.13-.11-.02-1.35-.06-2.77-.1-4.27a9 9 0 0 0-.05-.54 6.67 6.67 0 0 1-.05-.98c.01-.29.17-.48.47-.59a.16.16 0 0 1 .17.04c.39.36.74.37 1.06.04.15-.17.12-.27-.1-.3-.7-.09-1.25.05-1.63.43h-.03Zm1.32-.07c-.08.03-.14.03-.18 0-.08-.07-.08-.12 0-.15a.2.2 0 0 1 .19.01c.02.02.03.04.03.07 0 .03-.02.05-.04.07Zm-2.69.02c-.01 0-.03 0-.04-.02l-.04-.03c-.04-.05-.04-.09.02-.11.04-.02.1-.03.18-.02.1 0 .12.04.05.12a.2.2 0 0 1-.17.06Z" fill="#10A243"/><path fill-rule="evenodd" d="M40.1 31.39V29.9a9.04 9.04 0 0 0-2.56-4.95 14.52 14.52 0 0 0-4.65-3.18 4.26 4.26 0 0 0-1.2-.37.23.23 0 0 0-.18.06 11.67 11.67 0 0 0-3.07 3.7.15.15 0 0 1-.14.08h-.58a.15.15 0 0 1-.15-.09 11.88 11.88 0 0 0-3.09-3.7.26.26 0 0 0-.23-.05c-.47.1-.92.25-1.36.46-2.23 1.04-4 2.41-5.3 4.13-1.6 2.08-2.09 4.23-1.46 6.44.24.84.58 1.65 1.01 2.43v.04h-.05a12.69 12.69 0 0 1-1.58-3.07h-.08c-.04 0-.07.02-.08.07l-.04.15c.55 1.5 1.37 2.86 2.46 4.08a13.8 13.8 0 0 0 6.74 4.02 14.11 14.11 0 0 0 10.1-1.2 13.07 13.07 0 0 0 5.82-6.26.4.4 0 0 0-.21-.14l-1.3 2.35c-.02.02-.03.02-.05 0-.02 0-.03-.02-.02-.04a10.46 10.46 0 0 0 1.25-3.47ZM27.3 32.7c.17-.05.2 0 .1.14-1.22 1.84-3.13 3-5.7 3.44-.08.01-.12.06-.12.14v.08c0 .08.04.11.1.1 2.78-.47 4.85-1.76 6.21-3.88a.12.12 0 0 1 .11-.06c.05 0 .08.02.11.06 1.33 2.05 3.37 3.35 6.14 3.87.06.01.1 0 .12-.06l.06-.1c.05-.07.02-.12-.07-.14-2.58-.44-4.52-1.6-5.82-3.5a.08.08 0 0 1 0-.1c.03-.02.06-.03.1-.02 3.17 1.1 6.58.98 10.2-.34.08-.03.12-.09.12-.17v-.06c0-.08-.04-.11-.11-.09-1.85.63-3.57.98-5.14 1.05-1.75.09-3.46-.15-5.13-.72-.12-.04-.12-.1-.01-.15 2.43-1.26 4.71-3.47 6.84-6.62.04-.05.03-.1-.03-.13l-.05-.03c-.1-.05-.17-.04-.23.05-2.05 3.01-4.3 5.18-6.73 6.5a.16.16 0 0 1-.17 0 .16.16 0 0 1-.08-.15v-5.28c0-.08-.03-.11-.11-.11h-.1c-.07 0-.11.03-.11.11v5.36c0 .03-.02.06-.04.07a.08.08 0 0 1-.09 0c-1.34-.7-2.6-1.63-3.77-2.8a26.27 26.27 0 0 1-3-3.71c-.06-.08-.13-.1-.2-.05l-.07.03c-.07.05-.08.1-.03.17 2.16 3.16 4.45 5.36 6.87 6.62.03.01.04.03.03.05 0 .03-.01.05-.03.05-2.6.9-5.26 1.02-7.97.37a22.2 22.2 0 0 1-2.33-.68c-.04-.01-.07 0-.1.03l-.03.08c-.05.1-.03.16.07.2 3.63 1.3 7.02 1.44 10.2.38Z" fill="#00923F"/><path d="M14.18 34.35c.34 0 .6-.28.6-.62a.61.61 0 0 0-.6-.62c-.33 0-.6.28-.6.62 0 .34.27.62.6.62ZM41.85 33.16c.16.02.3.08.41.19.12.12.18.26.17.43a.51.51 0 0 1-.22.4.63.63 0 0 1-.44.12.64.64 0 0 1-.41-.18.52.52 0 0 1-.17-.43c.01-.17.09-.3.22-.4.13-.1.28-.14.44-.13Z" fill="#00923F"/><path fill-rule="evenodd" d="m24.4 13.33-.21.2c-.26.1-.29.04-.11-.16.08-.1.2-.2.36-.35.05-.04.1-.05.15-.03.06.02.09.06.1.12 0 .08-.03.12-.12.13a.26.26 0 0 0-.16.09Zm6.49-.28c.1.05.16.12.17.22l-.01.07c-.03.04-.07.04-.1 0a.63.63 0 0 0-.13-.12.59.59 0 0 0-.19-.02c-.04 0-.07-.03-.06-.08 0-.02.02-.04.05-.06.08-.05.17-.05.27 0Zm-2.1 1.62c.09-.17.16-.44.2-.8.03-.17.05-.17.07 0 .05.3.05.56.01.76-.01.08.02.12.1.12h.08c.1 0 .14-.04.14-.14v-1.18c0-.09-.04-.13-.13-.13h-.16c-.1 0-.17.05-.2.15l-.2.7c-.02.12-.06.12-.09 0l-.2-.71a.18.18 0 0 0-.12-.13.7.7 0 0 0-.29-.04c-.08 0-.12.05-.12.14v1.21c0 .09.04.13.13.13h.06c.09 0 .13-.04.13-.13V14c0-.02 0-.03.03-.04l.07-.03c.02-.01.04 0 .04.02.04.2.06.4.07.59 0 .08.02.14.05.17.05.04.1.06.17.06s.12-.04.15-.1Zm-2.58-.63.16.2c.08.06.1.04.1-.05l-.1-.74c0-.08.03-.11.1-.11h.06c.09 0 .14.04.15.13l.11.87c.08.61-.07.69-.46.23a22.3 22.3 0 0 1-.28-.36l-.16-.2c-.07-.05-.1-.04-.1.05l.1.75c0 .07-.02.1-.1.1h-.06c-.09 0-.14-.04-.15-.12l-.11-.87c-.08-.62.07-.7.46-.23l.28.35Zm5.69-.36h.02c.07.02.12.1.1.18l-.27 1.2a.14.14 0 0 1-.17.1h-.01a.14.14 0 0 1-.1-.18l.26-1.2c.02-.07.1-.12.17-.1Zm-.82 1.07a.75.75 0 0 0 .22-.55c0-.21-.08-.4-.22-.54a.72.72 0 0 0-.54-.23c-.2 0-.38.08-.53.23a.75.75 0 0 0-.22.54c0 .22.08.4.22.55.15.15.33.23.53.23.21 0 .39-.08.54-.23Zm-.66-.03c-.23-.06-.35-.34-.28-.63.07-.28.31-.46.54-.4.23.06.36.34.3.62-.08.29-.33.47-.56.41Zm2.73-.45.22.1c.07.03.09.08.06.15l-.42.96c-.03.06-.01.1.04.12l.07.03c.06.03.11.01.14-.06l.43-.97c.03-.08.09-.1.16-.07l.22.1c.04.02.07 0 .1-.04l.03-.07c.01-.03 0-.06-.03-.07l-.87-.4c-.07-.04-.14-.02-.2.05a.12.12 0 0 0-.02.08c0 .04.03.07.07.09Zm-10.12.3c-.06-.09-.11-.2-.15-.34-.02-.05 0-.09.04-.1l.08-.04c.07-.03.13 0 .16.07l.46 1.14c.03.07.01.11-.05.14l-.06.02c-.08.04-.14.02-.17-.06l-.16-.39c-.03-.09-.1-.11-.18-.08l-.33.14c-.08.04-.1.1-.07.18l.17.43c.02.04 0 .07-.03.09l-.07.02c-.1.04-.16.02-.2-.08L22 14.55c-.02-.06 0-.1.05-.12l.08-.04c.08-.03.13 0 .17.07l.12.3c.04.1.1.13.2.09l.38-.16c.06-.03.07-.07.03-.13Zm1.5.31a.96.96 0 0 0-.2.06c-.06.04-.1.1-.1.16-.03.15-.1.23-.2.25-.08.01-.12-.02-.11-.1l.13-1.28a.2.2 0 0 1 .1-.16.45.45 0 0 1 .21-.05c.07 0 .13.03.17.09l.68 1.07c.05.06.04.11-.04.14-.1.04-.2 0-.28-.12a.21.21 0 0 0-.18-.1.89.89 0 0 0-.19.04Zm-.2-.72c.07-.02.16.08.27.31.03.06.01.1-.05.14a.58.58 0 0 1-.18.05c-.07 0-.1-.02-.1-.1-.03-.24 0-.38.06-.4Zm10.6 1.54c.07.04.09.1.04.17a.98.98 0 0 0-.14.35c0 .03 0 .06.04.08l.04.03c.09.05.15.03.2-.05.07-.12.13-.28.17-.48a.22.22 0 0 1 .1-.15.54.54 0 0 0 .27-.38.18.18 0 0 0-.06-.17 2.24 2.24 0 0 0-.84-.47c-.06-.01-.1 0-.14.06l-.61 1.1c-.03.05-.02.1.03.13l.07.04c.07.04.12.02.16-.05l.18-.31c.05-.1.13-.12.23-.06l.26.16Zm.42-.35c-.04.12-.23.16-.42.09-.18-.07-.3-.23-.26-.34.04-.12.23-.16.42-.1.18.08.3.23.26.35Zm-16.67 0h.26c.07 0 .09-.03.06-.09l-.04-.1c-.03-.08-.09-.1-.16-.06a.45.45 0 0 0-.18.14c-.05.08-.03.11.06.11Zm2.58.66c-.1-.1-.08-.18.05-.23.15-.05.3-.15.44-.3.05-.04.07-.1.07-.17a.56.56 0 0 0-.13-.35c-.18-.21-.55-.16-1.12.15-.06.04-.08.09-.04.16l.59 1.04c.04.08.1.1.18.08.15-.05.13-.17-.04-.38Zm-.31-.8c-.05.04-.07.08-.04.13l.14.25c.02.05.06.06.11.03l.08-.04c.25-.14.34-.28.28-.4l-.02-.03c-.07-.13-.22-.12-.47.02l-.08.05Zm14.97 1.36a.2.2 0 0 1 .01-.18l.49-.86c.02-.04.01-.07-.03-.1l-.05-.02c-.09-.04-.15-.04-.18.02l-.45.7c-.18.27-.16.5.06.7.2.17.42.23.68.17a.3.3 0 0 0 .16-.1c.12-.14.25-.33.4-.58a.7.7 0 0 1 .36-.28l.12-.04c.03-.02.06-.04.06-.07.01-.05 0-.08-.06-.08h-.44a.2.2 0 0 0-.2.11l-.38.69c-.06.1-.16.14-.3.1l-.12-.05a.2.2 0 0 1-.13-.13Zm-17.13-.73a.9.9 0 0 0-.1.08c-.14.15-.19.12-.15-.07 0-.06.05-.12.13-.17.08-.06.15-.08.2-.07.2.03.2.08.02.16a.74.74 0 0 0-.1.07ZM20 17.03a.65.65 0 0 1-.4.37.77.77 0 0 1-.59-.04.8.8 0 0 1-.42-.41.67.67 0 0 1 .4-.93c.19-.06.38-.05.58.04.2.08.33.22.42.41.08.2.09.38 0 .56Zm-1 0c.22.2.52.22.68.04.16-.19.11-.5-.1-.7-.22-.2-.53-.2-.69-.03-.15.19-.1.5.11.7Zm19.37-.74c0-.02.02-.04.04-.05.02 0 .04 0 .05.03.08.1.09.2.05.3-.06.14-.1.14-.16 0l.02-.28Zm.15.75a.36.36 0 0 1 .2-.15h.1c.02.02.04.04.04.06 0 .03 0 .05-.03.07-.11.08-.25.23-.4.45-.16.22-.28.36-.38.41a.73.73 0 0 1-.84-.03c-.28-.2-.35-.47-.19-.8.21-.47.55-.63 1-.5.22.07.35.22.4.46 0 .03.02.04.04.05.02 0 .04 0 .06-.02Zm-.54.55c.23-.19.3-.5.15-.68-.14-.19-.45-.19-.68 0-.23.19-.3.5-.15.68.15.2.45.2.68 0Zm-19.52.03c0-.03.02-.05.04-.06.03-.01.05 0 .07.01l.12.12c.04.05.05.1.04.15-.07.31-.21.51-.44.6-.19.07-.4.05-.62-.07a.89.89 0 0 1-.45-.47.63.63 0 0 1 .12-.65c.18-.23.44-.3.78-.22.04.01.07.04.07.09v.05c0 .07-.04.1-.1.1a.66.66 0 0 0-.56.13.18.18 0 0 0-.07.17c.07.43.29.65.66.65.22.01.33-.2.34-.6Zm20.51.43a119.58 119.58 0 0 1-.24.89c-.03.13 0 .22.11.27.07.03.13.01.19-.04l.89-.92c.03-.03.03-.06 0-.08l-.04-.04c-.05-.06-.11-.06-.17 0l-.57.54c-.1.1-.13.08-.1-.06l.08-.26.17-.64c.03-.13 0-.22-.11-.26a.15.15 0 0 0-.19.03l-.9.92c-.02.03-.02.06 0 .09l.04.04c.06.05.12.05.18 0l.57-.55c.1-.1.13-.07.1.07Zm-22.82 1.23c.15.04.18 0 .1-.14l-.22-.4c-.05-.09-.03-.15.05-.2a.35.35 0 0 1 .08-.03c.05 0 .09 0 .11.06l.12.28c.15.39.34.64.56.75.07.04.08.1.04.16l-.03.07c-.03.06-.07.07-.12.03-.36-.28-.8-.42-1.29-.4-.06 0-.09-.03-.1-.1v-.06c-.02-.06 0-.09.06-.1.23 0 .45.02.64.08Zm23.98.4c-.03.1-.04.15-.03.16.15.26.08.33-.19.2-.3-.12-.36-.34-.2-.64.14-.23.35-.33.62-.27.28.05.4.25.38.6 0 .05.01.09.05.11.03.02.06.02.07 0 .17-.18.19-.38.05-.58-.36-.5-.77-.55-1.26-.15-.28.23-.35.5-.2.8.04.08.13.17.27.28.11.08.2.14.23.2.06.08.13.1.21.04l.35-.28a.16.16 0 0 0 .07-.13c0-.06-.03-.1-.07-.13a.67.67 0 0 1-.22-.23c-.05-.09-.1-.08-.13.02Zm-24.91.53.89.53c.05.03.06.07.03.12l-.04.06c-.03.07-.08.08-.15.05l-.9-.54c-.07-.04-.13-.03-.17.05l-.12.2c-.02.05-.06.06-.1.03l-.06-.03c-.04-.02-.04-.05-.02-.08l.47-.85c.04-.07.1-.1.2-.08.02.01.04.03.05.06.02.04.02.07 0 .11l-.12.22c-.04.06-.03.12.04.15Zm26.53.5c.08-.04.15-.02.2.07l.2.42c.07.16.08.32.02.49a.62.62 0 0 1-.32.37l-.24.12a.6.6 0 0 1-.48.03.6.6 0 0 1-.35-.32l-.2-.42c-.05-.09-.03-.16.06-.2l1.1-.56Zm-.2.8a.7.7 0 0 0-.04-.28c-.02-.07 0-.12.07-.14.11-.02.19 0 .24.06.14.16.2.28.17.34a.53.53 0 0 1-.3.35c-.38.17-.64.1-.79-.21-.04-.1-.01-.17.09-.2l.12-.05c.1-.04.19 0 .24.1.02.07.05.1.1.1.05.02.08 0 .1-.06Zm-26.35.9c-.04.39-.2.63-.5.72-.29.09-.58.02-.87-.2-.24-.17-.32-.4-.22-.68.09-.27.27-.44.56-.5.24-.06.27.02.09.22-.03.03-.1.06-.19.09a.3.3 0 0 0-.22.22.32.32 0 0 0 .07.32c.2.23.45.33.75.27.12-.02.2-.1.23-.21l.07-.24c.02-.06 0-.1-.04-.14a.11.11 0 0 0-.14-.01c-.37.2-.5.22-.4.05l.22-.33c.04-.06.08-.07.14-.05l.51.15c.1.02.11.07.04.15l-.05.05a.18.18 0 0 0-.05.12Zm28 .33a.71.71 0 0 0-.13-.1c-.08-.06-.07-.09.03-.1.1 0 .18.06.26.2.03.07.01.12-.05.16l-.22.15a.23.23 0 0 0-.07.08c-.23.44-.56.64-1 .62-.46-.03-.67-.3-.63-.8.02-.31.28-.51.78-.58.46-.06.7.16.74.65 0 .05.03.06.07.02l.22-.23c.02-.02.02-.04 0-.07Zm-.91.72c.3-.08.49-.33.43-.55-.06-.23-.35-.33-.65-.25-.3.09-.49.34-.43.56.06.22.35.33.65.24Zm-28.24.38c.08-.02.08-.04 0-.07l-.83-.24c-.04-.02-.05-.04-.04-.09l.01-.06c.02-.05.05-.07.1-.06.43.08.84.2 1.26.34.17.06.15.17-.07.32a24.1 24.1 0 0 1-1.04.23c-.1.02-.1.05 0 .08l.94.25c.05.02.07.05.06.1l-.02.07c-.01.03-.03.05-.07.04-.5-.07-.85-.14-1.08-.22-.54-.18-.54-.34.01-.49l.77-.2Zm29.2.62.06.25c.01.08-.02.13-.1.14l-1.04.22c-.06.02-.08.05-.07.11l.01.08c.02.07.06.1.14.09l1.06-.22c.09-.02.14.01.16.1l.05.24c0 .06.04.08.09.07l.08-.02c.03 0 .05-.03.04-.07l-.2-1c-.01-.08-.07-.13-.17-.14a.12.12 0 0 0-.07.03.12.12 0 0 0-.03.12Zm-30.96.85-.06.15c-.03.07-.06.07-.1.01-.07-.08-.07-.18-.01-.27.06-.1.14-.13.24-.11.07.02.08.05.03.1l-.1.12Zm1.86.3a.62.62 0 0 1-.27.48.87.87 0 0 1-.58.17.86.86 0 0 1-.57-.23.61.61 0 0 1 .05-.97.87.87 0 0 1 .59-.17c.22 0 .4.09.56.23.15.14.23.3.22.5Zm-.86.38c.32.03.59-.13.6-.36.03-.23-.2-.44-.52-.48-.3-.03-.58.14-.6.37-.02.23.21.44.52.47Zm30.02.54.02.16c.01.1.05.14.11.13l.38-.04c.08 0 .12.03.12.1v.1c0 .1-.04.14-.13.14h-1.34c-.04 0-.06-.03-.06-.07v-.06c0-.08.03-.11.1-.11h.46c.07 0 .11-.04.1-.12a6.34 6.34 0 0 0-.02-.4c-.02-.09-.06-.12-.13-.1l-.45.07c-.07.02-.11-.01-.13-.09v-.06c-.01-.04 0-.07.04-.08l1.33-.23c.08-.02.13.02.15.1l.01.1c.01.08-.02.12-.1.13l-.38.02c-.06 0-.1.06-.1.15l.02.16Zm-29.82.99a1.03 1.03 0 0 1-.73-.04c-.16-.07-.21-.19-.17-.35.03-.11.1-.2.24-.3.14-.1.13-.18-.04-.23-.06-.02-.14.02-.24.12-.24.26-.3.52-.15.76.13.22.37.34.7.36.34.02.58-.07.74-.28.17-.22.15-.48-.07-.77-.08-.1-.15-.16-.22-.14-.18.03-.2.1-.06.22.12.1.18.21.2.32.03.17-.04.28-.2.33Zm30.38.01-1.73.05a.1.1 0 0 0-.1.1v.06c0 .06.05.1.11.1l1.73-.05a.1.1 0 0 0 .1-.1v-.06a.1.1 0 0 0-.1-.1Zm-10.85 12.9a.23.23 0 0 0-.08.05.4.4 0 0 1-.17.09c-.17.04-.26.1-.26.2s.05.12.13.09c.19-.09.33-.19.44-.31.1-.1.07-.14-.06-.12Zm1.02.02-.02.01a.15.15 0 0 0-.07.2l.54 1.07c.03.07.11.1.18.06l.02-.01c.07-.04.1-.12.07-.2l-.54-1.07a.14.14 0 0 0-.18-.06Zm-11.53 1.78c-.04.02-.11-.02-.22-.1a.35.35 0 0 0-.16-.08c-.46-.09-.7-.3-.7-.63-.02-.43.15-.7.5-.83s.65-.03.9.3c.21.27.16.59-.14.96a.38.38 0 0 0-.08.16c-.03.13-.06.2-.1.22Zm-.36-.58-.07.07c-.06.06-.11.06-.18.02-.17-.13-.21-.32-.12-.56.08-.23.24-.36.46-.38.19-.01.31.07.37.25.05.15.02.3-.07.46-.06.1-.14.13-.24.1a.14.14 0 0 0-.15.04Zm3.27-.59c-.04.13-.14.14-.3.05-.17-.1-.24-.19-.21-.26.02-.07.14-.08.33-.03.17.03.23.12.18.24Zm-1.85 1.23-.07-.02c-.16-.05-.22-.16-.17-.32l.24-.86c.01-.04 0-.07-.05-.08l-.1-.03c-.1-.03-.16 0-.19.11l-.26.94c-.03.08-.01.15.04.22.21.26.48.35.8.29.22-.04.4-.37.56-.97l.06-.2c.02-.08 0-.13-.08-.15l-.08-.02c-.1-.03-.15 0-.18.1l-.23.83c-.05.15-.14.2-.29.16Zm8.85.15-.15.08a.9.9 0 0 1-.31.15.63.63 0 0 1-.57-.16.79.79 0 0 1-.25-.52.7.7 0 0 1 .16-.55c.14-.17.36-.26.66-.26.22 0 .35.08.4.26.03.09 0 .12-.1.1l-.3-.1a.42.42 0 0 0-.19 0c-.24.04-.36.19-.34.46.02.25.12.42.32.5.1.05.2.05.32 0 .11-.05.2-.13.26-.25.01-.02 0-.04-.04-.07a.15.15 0 0 0-.13-.04.32.32 0 0 1-.18 0 .08.08 0 0 1-.06-.08c0-.04.02-.07.05-.08l.39-.17c.06-.02.1 0 .13.06l.22.55c.03.08 0 .12-.07.13-.04 0-.08 0-.1-.02-.04-.02-.08-.01-.12 0Zm.79-.28c.02.14-.04.24-.18.28-.08.02-.12 0-.12-.1v-1.36c0-.08.04-.14.11-.18a.17.17 0 0 1 .21.05l1.01 1.03c.04.04.04.07-.01.1l-.12.03c-.04.01-.08.01-.1-.01-.23-.2-.47-.2-.73-.01a.17.17 0 0 0-.07.17Zm.2-.76.14.12c.05.05.04.1-.03.12-.17.05-.28.07-.32.03-.04-.04-.05-.15-.02-.33 0-.08.04-.1.1-.05l.14.11Zm-3 .73.16.2c.08.05.1.04.1-.06l-.1-.72c-.02-.08.02-.11.09-.11h.06c.08 0 .13.04.15.13l.12.84c.08.6-.07.69-.46.24a21.34 21.34 0 0 1-.43-.54c-.07-.06-.1-.04-.1.05l.1.73c.02.07-.01.1-.08.1h-.07c-.08 0-.13-.04-.14-.12l-.12-.85c-.09-.6.06-.68.45-.23l.28.34Zm-4.2.74.04-.68c0-.12.04-.13.1-.03.16.25.26.43.3.53.25.6.43.57.54-.06.03-.16.05-.46.08-.88 0-.07-.03-.1-.1-.1h-.07c-.08 0-.12.03-.13.1l-.1.69c0 .1-.04.1-.09.01a2.82 2.82 0 0 1-.13-.3c-.16-.41-.34-.6-.55-.57-.1.01-.14.07-.14.17v1.21c0 .04.02.06.05.06h.06c.1 0 .14-.05.15-.15Zm2.46.19c-.02-.02-.06-.03-.11-.02a.88.88 0 0 0-.17.04.9.9 0 0 1-.34.06.65.65 0 0 1-.51-.31.8.8 0 0 1-.12-.57.69.69 0 0 1 .3-.5c.18-.12.41-.15.7-.08.22.05.33.17.34.36 0 .1-.04.12-.12.07l-.28-.17a.42.42 0 0 0-.18-.06c-.25-.02-.4.1-.45.36-.05.26.01.45.18.59.09.07.2.1.31.08a.53.53 0 0 0 .32-.18c.02-.01.01-.04-.02-.08a.15.15 0 0 0-.12-.07.32.32 0 0 1-.17-.05.08.08 0 0 1-.04-.1c.01-.03.04-.05.07-.06l.42-.06c.07 0 .1.02.12.09l.07.6c.02.08-.02.12-.1.1a.22.22 0 0 1-.1-.04Zm-3.47-1.65c.04 0 .07.02.1.03.07.04.1.09.12.16l.17 1.28c0 .08-.03.12-.1.1-.12 0-.19-.08-.21-.23a.22.22 0 0 0-.12-.16 1.02 1.02 0 0 0-.19-.05l-.2-.03a.22.22 0 0 0-.16.1c-.09.12-.18.16-.3.12-.07-.02-.08-.07-.04-.14l.66-1.1c.04-.06.1-.1.16-.1l.11.02Zm-.02.52v.3c0 .07-.04.1-.1.07l-.16-.04c-.05-.02-.07-.05-.05-.1.04-.1.1-.2.2-.28a.06.06 0 0 1 .07-.02c.03.02.04.04.04.07Z" fill="#D40501"/></svg>