<!-- by TradingView --><svg width="56" height="56" fill="none" xmlns="http://www.w3.org/2000/svg"><path fill="#F0F3FA" d="M0 0h56v56H0z"/><path fill-rule="evenodd" clip-rule="evenodd" d="M48.154 30.002c-2.55 0-3.165 1.766-3.154 2.65C45 34.864 47.467 35 48.268 35c.64 0 1.422-.19 1.732-.286V32.38h-1.03l.295.271v1.596c-.077.096-.383.286-.997.286-.768 0-2.418-.361-2.418-1.972 0-1.61 1.225-2.123 2.222-2.123.797 0 1.247.332 1.372.497v-.722a3.577 3.577 0 0 0-1.29-.211ZM9.39 31.006v-.68C9.255 30.217 8.802 30 8.066 30 7.146 30 6 30.468 6 31.317c0 .752 1.023 1.216 1.583 1.47.073.033.139.062.193.088l.06.03c.46.222 1.037.5 1.037.934 0 .453-.484.75-1.307.75-.659 0-1.318-.444-1.566-.666l.194.907c.102.057.52.17 1.372.17 1.065 0 2.195-.368 2.195-1.388 0-.796-.698-1.1-1.35-1.384-.184-.08-.363-.158-.522-.245-.152-.083-.282-.149-.392-.205-.42-.213-.56-.286-.56-.588 0-.383.451-.666 1.13-.666.542 0 1.108.321 1.323.482Zm6.732 1.494c0 1.38-1.377 2.5-3.074 2.5-1.697 0-3.074-1.12-3.074-2.5s1.377-2.5 3.074-2.5c1.697 0 3.074 1.12 3.074 2.5Zm-.989 0a2.097 2.097 0 0 1-2.085 2.108 2.097 2.097 0 0 1-2.085-2.108c0-1.164.933-2.108 2.085-2.108s2.085.944 2.085 2.108ZM36.515 35c1.697 0 3.073-1.12 3.073-2.5S38.212 30 36.515 30c-1.698 0-3.074 1.12-3.074 2.5s1.376 2.5 3.074 2.5Zm0-.392A2.097 2.097 0 0 0 38.6 32.5a2.097 2.097 0 0 0-2.086-2.108A2.097 2.097 0 0 0 34.43 32.5c0 1.164.934 2.108 2.085 2.108Zm-19.084.391L17 34.656v-3.458L21 36v-5.692l.23-.308h-1.056l.299.308v3.937L17.125 30h-1.09l.458.51v4.146l-.332.343h1.27Zm23.083-.311.346.312h-1.229l.369-.312V30.51l-.5-.51h1.134L44 34.245v-3.937L43.713 30h1.098l-.31.308V36l-3.987-4.802v3.49ZM22 32.65c-.01-.883.605-2.65 3.154-2.65.223-.01.794.019 1.29.212v.722c-.125-.165-.575-.497-1.372-.497-.997 0-2.222.512-2.222 2.123 0 1.611 1.65 1.972 2.418 1.972.614 0 .92-.19.997-.286v-1.596l-.294-.27H27v2.333c-.31.095-1.091.286-1.732.286-.8 0-3.268-.136-3.268-2.349ZM28 30l.283.282v4.436L28 35h1.307L29 34.718V32.5h3v2.218l-.271.282h1.307l-.283-.282v-4.436l.283-.282h-1.307l.27.282V32H29v-1.718l.307-.282H28Z" fill="#EA088C"/><path d="M27.496 26.75c-4.41-2.6-7.719-.512-8.821.857 3.841-2.028 7.173-.583 8.358.393.261-.345 1.26-1.036 3.166-1.036 2.383 0 3.699 1.036 5.797 1.036 1.68 0 3.616-1.643 4.375-2.464-.854.69-3.343 1.835-6.473.893-3.13-.943-5.573-.179-6.402.321Z" fill="#E54F9C"/><path d="M28.242 25.143c-4.268-2.629-8.607-1.357-10.243-.393.533-3.964 3.663-8.75 9.639-8.75 4.78 0 7.865 3.413 8.81 5.12-.52-.324-1.87-.453-2.48-.477-2.19-2.829-5.133-3.464-6.33-3.429-5.264 0-7.481 4.024-7.932 6.036 3.529-2.143 7.398-.726 8.892.25 1.85-1.25 3.272-1.571 7.612-.536 3.471.829 6.639-.345 7.789-1.035-.854 1.392-2.988 3.535-8.252 2.25-4.211-1.029-6.758.214-7.505.964Z" fill="#EA088C"/></svg>