<!-- by TradingView --><svg width="56" height="56" viewBox="0 0 56 56" xmlns="http://www.w3.org/2000/svg"><path fill="#F0F3FA" d="M0 0h56v56H0z"/><path d="M22.2 28.59h20.2l.14.02.27.05c.11.02.24.05.38.1.36.13.62.38.76.73a.94.94 0 0 1 .02.55c-.1.33-.3.56-.6.72l-.3.11a5.54 5.54 0 0 1-.78.13 1189136.17 1189136.17 0 0 1-27.25 0 3.22 3.22 0 0 1-2.84-1.94 1.77 1.77 0 0 1-.1-.3 2.86 2.86 0 0 1 0-1.51 2.78 2.78 0 0 1 .67-1.27 195.08 195.08 0 0 1 7.62-7.65 906.6 906.6 0 0 0 2.6-2.4 108.8 108.8 0 0 1 2.7-2.37 682.08 682.08 0 0 0 .66-.56 13.4 13.4 0 0 1 1.43.02 58.5 58.5 0 0 1 1.08.09 4.44 4.44 0 0 1 .8.12 10.38 10.38 0 0 1 2.13.73c.05.04.1.1.12.16.03.09.03.17 0 .25a.7.7 0 0 1-.15.18A254473.84 254473.84 0 0 0 19.7 26.26c-.12.15-.2.25-.2.27-.12.2-.22.38-.29.57a1 1 0 0 0 .32 1.05c.12.1.24.16.37.2a33.75 33.75 0 0 0 .66.14 10.92 10.92 0 0 0 1.08.1c.13.02.31.02.54 0ZM44 38.99l-.02.01H12.01l-.01-.01V32l.01-.01h31.97l.02.01V39Z" fill="#DD1F22"/><path d="M23.31 34a211.47 211.47 0 0 1 1.16.01v.5h-.86V37l-.01.01H23v-2.48c.01 0 .01 0 0 0h-.84V34l1.15-.01Zm13.39 1.92a.48.48 0 0 0-.17-.1 14.54 14.54 0 0 1-.69-.2 1.15 1.15 0 0 1-.54-.3.76.76 0 0 1 .04-1.06.9.9 0 0 1 .38-.2c.14-.04.28-.06.44-.06.27 0 .48.04.63.12.3.14.47.4.49.75v.01l-.58.02a2.67 2.67 0 0 0-.03-.1c-.06-.2-.2-.3-.41-.31a.98.98 0 0 0-.36.03c-.15.04-.23.12-.23.24 0 .11.06.2.2.25.11.04.22.08.32.1l.48.13c.18.06.33.14.44.23.12.11.2.26.23.43a.9.9 0 0 1-.04.52c-.17.42-.58.61-1.23.58a1.27 1.27 0 0 1-.6-.17.91.91 0 0 1-.33-.35c-.08-.14-.12-.3-.14-.47l.56-.06.01.01c.03.16.09.29.19.38.1.1.23.15.4.16.12 0 .22 0 .3-.03.1-.03.18-.09.24-.17a.32.32 0 0 0 .07-.2.25.25 0 0 0-.07-.18Zm-15.76 0a.48.48 0 0 0-.16-.1 14.54 14.54 0 0 1-.69-.2 1.15 1.15 0 0 1-.55-.3.77.77 0 0 1-.2-.54.75.75 0 0 1 .25-.52.9.9 0 0 1 .38-.2c.13-.04.28-.06.44-.06.26 0 .47.04.63.12.3.14.46.4.48.75v.01l-.58.02a2.3 2.3 0 0 0-.03-.1c-.06-.2-.2-.3-.4-.31a.97.97 0 0 0-.37.03c-.15.04-.22.12-.23.24 0 .11.07.2.21.25.1.04.21.08.31.1.19.04.34.09.48.13.19.06.33.14.44.23.12.11.2.26.24.43a.9.9 0 0 1-.05.52c-.16.42-.57.61-1.23.58a1.27 1.27 0 0 1-.6-.17.9.9 0 0 1-.33-.35c-.07-.14-.12-.3-.14-.47l.57-.06v.01c.03.16.1.29.2.38.1.1.22.15.39.16.12 0 .22 0 .3-.03.1-.03.19-.09.25-.17a.32.32 0 0 0 .07-.2.25.25 0 0 0-.08-.18Zm-3.43.1-.01.01a949.97 949.97 0 0 0-.57-2.03h-.92v.01L16 36.99l.58.01.01-2.33c0-.01 0-.01 0 0l.6 2.32h.61l.6-2.32h.01v2.32l.01.01H19V34H18.06c-.2.75-.4 1.42-.55 2.02ZM25 34h.59v3H25v-3Zm2.01 1.06H27V37h-.6v-3h.64l1.33 1.98h.01v-1.97l.01-.01H29v3h-.67l-1.31-1.94ZM32.17 34h-.61l-.7 2.2h-.01L30.1 34h-.63l1.03 3h.63l1.04-3Zm2.3 1.18v.5H33v.8l.01.01h1.62V37h-2.21v-3h2.15v.51H33v.65l.01.01h1.45ZM38.43 37H39V34.5h.87V34a191 191 0 0 0-2.3 0v.5h.85V37Z" fill="#F0F3FA"/></svg>