<!-- by TradingView --><svg width="56" height="56" viewBox="0 0 56 56" xmlns="http://www.w3.org/2000/svg"><path fill="#F0F3FA" d="M0 0h56v56H0z"/><path d="M29.15 44h-2.26l-.82-.1a16.24 16.24 0 0 1-13.03-9.73 3.66 3.66 0 0 0-.18-.46c-.25-.48-.73-1.12-1.45-1.94a2.5 2.5 0 0 0-.68-.6c-.12-.06-.2-.12-.21-.2a.3.3 0 0 1-.01-.16c.02-.08.08-.12.16-.12h1.23c.08 0 .12-.04.1-.12a15.91 15.91 0 0 1 4.34-13.66 16.21 16.21 0 0 1 12.79-4.86 16 16 0 0 1 11.1 5.45A15.84 15.84 0 0 1 44.2 27c0 .09.05.13.13.13h2.5c.17 0 .2.07.1.22-.95 1.37-1.91 2.8-2.87 4.28a6.78 6.78 0 0 0-.77 1.64 17 17 0 0 1-.65 1.64 16.06 16.06 0 0 1-5.53 6.33A16.44 16.44 0 0 1 29.15 44Z" fill="#EE3237"/><path d="m43.51 27.26-2.44-3.32a12.03 12.03 0 0 0-7.1-8.26 14.48 14.48 0 0 0-7.44-1.2 13.58 13.58 0 0 0-11.07 7.84 11.64 11.64 0 0 0-1.06 6.46l-1.6 1.63a.44.44 0 0 0-.11.2c-.03.1-.09.15-.2.17-.06 0-.1-.01-.13-.05a15.63 15.63 0 0 1 9.76-17.3 16.23 16.23 0 0 1 12.83.42 15.62 15.62 0 0 1 7.6 7.78 15.77 15.77 0 0 1 1.36 5.5c0 .1-.04.14-.13.16a.62.62 0 0 1-.27-.03Z" fill="#6FD6F6"/><path d="m41.07 23.94-5.3-6.6c-.05-.07-.11-.08-.18-.04a2.2 2.2 0 0 0-.66.65 13.21 13.21 0 0 0-6.38-2.06 11.98 11.98 0 0 0-10.59 5.24c-1.25 1.82-2 3.89-2.22 6.21l-1.34 1.44c-.28-2.17.07-4.32 1.05-6.46a13.58 13.58 0 0 1 11.08-7.84c2.57-.26 5.05.14 7.44 1.2a12.03 12.03 0 0 1 7.1 8.26Z" fill="#ACE5F9"/><path d="m34.93 17.95-5.6 6.1c-.06.05-.11.06-.17.01l-3.3-2.49c-.08-.05-.15-.05-.2.01l-3.4 3.38c-.1.09-.2.1-.3.03l-2.34-1.45c-.07-.04-.13-.04-.18.02l-3.7 3.78c.23-2.32.97-4.4 2.22-6.21a11.98 11.98 0 0 1 10.59-5.24c2.23.11 4.35.8 6.38 2.06Z" fill="#E4F4FC"/><path d="m41.07 23.94 2.44 3.32h-.28c.04-.1 0-.24-.16-.37l-3.82-4.76a.24.24 0 0 0-.2-.09l-7.53.18c-.1 0-.17.04-.23.1l-4.7 5.06a.8.8 0 0 1-.41.34.26.26 0 0 1-.23-.03l-2.57-1.53-3.58-2.2c-.17-.1-.32-.09-.45.05l-2.38 2.41-4.32 4.38-.24-.02c-.07-.01-.1-.05-.1-.12v-.1c0 .07.02.13.05.17.03.04.07.05.13.05.1-.02.17-.07.2-.17a.44.44 0 0 1 .11-.2l1.6-1.63 1.34-1.44 3.7-3.78c.05-.06.11-.06.18-.02l2.34 1.45c.1.07.2.06.3-.03l3.39-3.38c.06-.06.13-.06.2 0l3.3 2.48c.07.05.12.04.17-.01l5.61-6.1c.2-.29.42-.5.66-.65.07-.04.13-.03.18.03l5.3 6.61Z" fill="#2FB665"/><path d="m43.07 26.89-16.48.49 4.7-5.05c.06-.07.14-.1.23-.11l7.53-.18c.08 0 .15.03.2.1l3.82 4.75ZM28.98 24.4l-2.79 3.08c-.05.06-.1.06-.17.02l-3.54-2.2c-.1-.06-.1-.13-.02-.2l1.8-1.79a.13.13 0 0 1 .09-.04h3.34c.03 0 .06.01.08.03l1.2.9c.07.06.08.12.01.2ZM23.38 26.16l-6.4.26 2.37-2.41c.13-.14.28-.16.45-.06l3.58 2.2Z" fill="#83D17B"/><path d="m23.38 26.16 2.57 1.53c.07.05.15.06.23.03a.8.8 0 0 0 .41-.34l16.49-.5c.14.14.2.27.15.38l-1.86 1.88a.32.32 0 0 1-.21.1l-28.5 1.56 4.32-4.38 6.4-.26Z" fill="#D8EB91"/><path d="M41.49 36.35 40.1 38.2a15.46 15.46 0 0 1-10.73 5.46c-5.32.4-9.82-1.43-13.5-5.5l-1.5-2.07-.93-1.76a.12.12 0 0 1 0-.1.1.1 0 0 1 .1-.06c6.1.02 12.2 0 18.31 0l10.58-.01c.06 0 .1.02.13.07s.03.1 0 .15l-1.07 1.97Z" fill="url(#a)"/><path d="m22.3 36.49 11.86-.03c.08-.28.04-.43-.1-.43-3.93-.03-7.84-.04-11.76-.02-.15.04-.2.15-.16.34.02.1.08.14.17.14Zm.91 1.78c2.87-.01 5.75.02 8.65.09l1.15-.07c.1 0 .15-.05.16-.14v-.1c.03-.14-.03-.21-.17-.21l-9.95.03c-.06.27 0 .4.16.4Zm9.3.45h-8.78c-.12 0-.21.1-.21.23s.1.23.21.23h8.78c.11 0 .2-.1.2-.22v-.01c0-.13-.09-.23-.2-.23Zm-8.34.93h7.9c.08 0 .14.07.14.15v.15c0 .08-.06.15-.14.15h-7.9c-.08 0-.14-.07-.14-.15v-.15c0-.08.06-.15.14-.15Zm7.38.9h-6.92c-.08 0-.15.08-.15.17v.11c0 .1.07.17.15.17h6.92c.09 0 .16-.08.16-.17v-.11c0-.1-.07-.17-.16-.17Zm-8.73-3.7 10.64-.01c.13 0 .23.11.23.25v.06c0 .14-.1.25-.23.25l-10.64.02c-.13 0-.23-.1-.23-.25v-.06c0-.14.1-.25.23-.25Z" fill="#2867B0"/><path fill-rule="evenodd" d="M29.03 32a.92.92 0 0 1-.14-.03c-.08-.03-.08-.05 0-.08a.78.78 0 0 0 .3-.17c.07-.08.08-.2.04-.34-.04-.17-.2-.28-.44-.34a2.89 2.89 0 0 0-.6-.04h-1.16c-.02.01-.03.02-.03.04v1.93c0 .02.01.03.03.03h.89c.02 0 .03-.01.03-.03v-.8c0-.05.02-.07.07-.07l.25.02c.07 0 .1.04.1.1v.74c0 .02.01.04.04.04h.84c.02 0 .04-.02.04-.04l-.01-.68c0-.11-.03-.2-.07-.23-.03-.03-.1-.04-.18-.06Zm-1.05-.65c-.02 0-.03 0-.03.03v.36c0 .02 0 .02.03.02h.16c.07 0 .12-.02.17-.05a.17.17 0 0 0 .07-.14v-.03c0-.05-.02-.1-.07-.14a.27.27 0 0 0-.17-.05h-.16Zm-6.33.54c.02 0 .04-.01.05-.04.05-.22.13-.49.23-.82 0-.02.02-.03.04-.03h1.3c.03 0 .03 0 .03.03v1.92c0 .03-.01.04-.04.04h-.79c-.01 0-.02 0-.02-.02l-.01-1.02c0-.25-.05-.26-.14-.02-.11.3-.21.64-.3 1.01 0 .03-.02.04-.05.05a3.21 3.21 0 0 1-.58 0c-.03 0-.05-.02-.05-.05-.1-.36-.2-.7-.31-1.01-.1-.23-.14-.22-.14.03v1.01c0 .02-.01.03-.03.03h-.79c-.03 0-.04-.02-.04-.05L20 31.03c0-.01 0-.02.03-.02h1.3c.02 0 .04 0 .04.02.1.33.19.6.24.82.01.03.02.04.04.04Zm11.67-.52a.34.34 0 0 0-.23-.03c-.1 0-.16.05-.17.14-.01.11 0 .45.01 1.03 0 .09.05.14.14.14h.16c.09 0 .13-.05.13-.13l.02-.34c0-.03.02-.04.05-.04h.87c.02 0 .04.01.04.04 0 .17-.02.3-.07.41a.54.54 0 0 1-.3.27c-.4.15-.84.18-1.35.09a.8.8 0 0 1-.52-.3c-.1-.12-.12-.5-.08-1.12.01-.17.13-.3.36-.4.2-.09.46-.13.76-.13s.55.04.77.12c.25.1.38.21.42.36l.02.29-.02.01h-.9c-.03 0-.04 0-.04-.03v-.05c0-.18-.02-.3-.07-.33ZM23.54 33h.92c.03 0 .04-.01.04-.04v-1.92c0-.03-.01-.04-.04-.04h-.92c-.03 0-.04.01-.04.04v1.92c0 .03.01.04.04.04Zm2.29-2a187.5 187.5 0 0 1 1.08.02v.34c0 .02 0 .02-.02.02h-.55c-.02 0-.04.02-.04.04v1.54c0 .02 0 .03-.03.03a10.1 10.1 0 0 1-.87 0c-.03 0-.04 0-.04-.03v-1.54c0-.02-.01-.04-.04-.04h-.55l-.02-.01v-.35l.01-.01 1.07-.01Zm10.02 0c.73 0 1.1.2 1.14.62a6.85 6.85 0 0 1 0 .74c-.02.42-.4.63-1.12.64-.73.01-1.11-.2-1.14-.61a6.92 6.92 0 0 1-.01-.74c.02-.42.4-.64 1.13-.65Zm.09.35h-.14a.16.16 0 0 0-.15.15v1c0 .09.06.16.15.16h.13c.09 0 .16-.07.16-.16v-1a.16.16 0 0 0-.15-.15Zm-5.6 1.6h-.87c-.02 0-.02 0-.02-.02l.6-1.87.03-.01h1.27l.02.01.66 1.88c0 .02 0 .02-.02.02h-.93l-.02-.01-.06-.32-.02-.02h-.5c-.02 0-.02 0-.03.02l-.1.31c0 .01 0 .02-.02.02Zm.2-.79.14-.67c0-.02.02-.02.03-.02.02 0 .03 0 .04.02l.16.67c0 .02 0 .03-.03.03h-.31c-.03 0-.04 0-.03-.03Z" fill="#F9FAF5"/><defs><linearGradient id="a" x1="25.59" y1="34.16" x2="25.59" y2="42.89" gradientUnits="userSpaceOnUse"><stop stop-color="#E4F4FC"/><stop offset="1" stop-color="#6FD6F6"/></linearGradient></defs></svg>