<!-- by TradingView --><svg width="56" height="56" viewBox="0 0 56 56" xmlns="http://www.w3.org/2000/svg"><path fill="#F0F3FA" d="M0 0h56v56H0z"/><path d="M31.71 27c1.82 0 2.54 1.2 2.67 1.81l-1.83.1c0-.2-.22-.63-1.06-.63-1.06 0-1.6 1.44-1.6 2.05 0 .6.1 1.39 1.06 1.39.76 0 1.12-.27 1.2-.41l.14-.56h-1.18l.25-1.2h2.65l-.64 2.77c-.36.22-1.35.68-2.42.68-1.34 0-2.75-.72-2.75-2.4 0-1.67 1.24-3.6 3.51-3.6ZM36.63 29.93c.01-.19.17-.57.7-.57.69 0 .77.63.52.83-1.05-.07-3.14.14-3.14 1.54A1.5 1.5 0 0 0 36.25 33c.7 0 1.2-.5 1.35-.76l-.21.76h1.97c-.13-.07-.37-.31-.28-.76l.38-2.23c.08-.5-.22-1.51-2-1.51-1.5 0-2.08.77-2.18 1.16l1.35.27ZM37.85 31c-.02.35-.27 1.03-1.06 1.03-.99 0-.73-1.14 1.06-1.03ZM41.55 31.53l-1.55.14c.13.8.98 1.33 2.37 1.33 1.4 0 2.38-1.02 2.38-1.7 0-.68-.85-1-1.39-1.05-.54-.06-1.21-.33-1.21-.53s.22-.41.82-.41c.48 0 .69.28.74.41l1.29-.26c-.13-.32-.7-.96-1.96-.96-1.77 0-2.28.9-2.32 1.35 0 1.03 1.23 1.13 1.8 1.23.56.1.74.26.74.48 0 .22-.1.46-.92.46-.66 0-.8-.33-.79-.5Z" fill="#CA3404"/><path d="m36.09 24 1.93 3.1 2.05-3.1h5.9c.57 0 1.03.45 1.03 1v9c0 .55-.46 1-1.03 1H9.03C8.46 35 8 34.55 8 34v-9c0-.55.46-1 1.03-1h27.06Zm-26.6.52c-.55 0-1 .4-1 .9v8.16c0 .5.45.9 1 .9H45.5c.56 0 1-.4 1-.9v-8.16c0-.5-.44-.9-1-.9h-4.99l-2.5 3.72-2.38-3.72H9.5Z" fill="#CA3404"/><path d="M35.93 17.56c.04.68-.64 1.37-.64 3.24 0 1.5 1.8 3.82 2.7 4.81 1.08-1.38 3.25-4.45 3.25-5.6 0-1.43-.43-1.96-.92-2.94a9.33 9.33 0 0 1-.57-3.07c-.71.32-2.14 1.4-2.14 3.07 0 2.08.9 2.24.9 4.57 0 1.87-.5 2.62-.76 2.76-.78-2.46 0-1.72 0-3.6 0-1.5-1.21-2.79-1.82-3.24Z" fill="#CA3404"/><path d="M11 33v-7h3.2l1.8 4.65L17.8 26H21v7h-2v-5.56L16.89 33H15.1L13 27.44V33h-2ZM30.5 26h-9v1.1H25V33h2v-5.9h3.5V26Z"/></svg>