<!-- by TradingView --><svg width="56" height="56" viewBox="0 0 56 56" xmlns="http://www.w3.org/2000/svg"><path fill="url(#a)" d="M0 0h56v56H0z"/><circle cx="28" cy="28" r="17" fill="#fff"/><path fill-rule="evenodd" d="M28 44.54a16.54 16.54 0 1 0 0-33.08 16.54 16.54 0 0 0 0 33.08Zm0-.37a16.17 16.17 0 1 0 0-32.34 16.17 16.17 0 0 0 0 32.34Z" fill="#09833A"/><path d="M38.67 32.05a8.85 8.85 0 0 1-.81-2.52 32.72 32.72 0 0 1-.35-5.48c0-.1-.04-.13-.13-.1-.11.04-.19.16-.23.35-.08.41-.14 1-.2 1.75-.17 2.37-.3 4.74-.42 7.1-.26.05-.48.25-.65.61-.1.2-.25.27-.46.2a6.55 6.55 0 0 0-2.93-.14c-.16.03-.38-.04-.66-.21-.16-.1-.34-.25-.53-.43-.7-.67-1.43-1.43-2.2-2.27-.27-2.84-.52-5.72-.74-8.66-.04-.5-.07-1.24-.1-2.24a48.11 48.11 0 0 0-.1-2.42c-.02-.19-.04-.19-.07 0-.08.5-.16 1.25-.25 2.24-.09 1.04-.18 1.83-.26 2.37-.06.42-.13 1.1-.2 2.05a26.6 26.6 0 0 1-.32 2.77c-.3 1.54-.67 3.03-1.1 4.46-.4.38-.75.83-1.03 1.33-.2.35-.36.54-.5.6-.29.1-.53.14-.75.11a3.83 3.83 0 0 1-.88-.27.27.27 0 0 0-.22.01c-.19.09-.36.23-.53.43A20.99 20.99 0 0 1 21 29.85a19.7 19.7 0 0 1-.24-3.34c0-1.11-.02-2.23-.07-3.35 0-.4-.1-.42-.28-.06a2.5 2.5 0 0 0-.16.7l-.93 7.84c-.93.53-1.7 1.12-2.31 1.77-.1.1-.21.15-.35.15a.45.45 0 0 1-.35-.18c-.2-.24-.47-.4-.81-.48-.37-.08-.6-.16-.72-.25-.63-.54-.59-1.12.13-1.75l.13-.11c.46-.39.71-.76.76-1.13.14-1.12.52-1.94 1.15-2.45A.17.17 0 0 0 17 27c-.06-.2-.16-.4-.31-.6-.1-.14-.09-.27.05-.38.41-.35.64-.77.66-1.27 0-.08.04-.16.09-.23.4-.49.62-.88.68-1.16.2-.97.39-1.9.55-2.79.08-.4.17-.7.28-.92.15-.31.4-.41.73-.3 1.09.38 2 1 2.72 1.88.05.05.1.06.17.02.34-.21.62-.47.86-.78.2-.27.3-.73.28-1.38-.01-.37 0-.65.04-.82.06-.3.2-.53.43-.72.58-.48.94-.88 1.08-1.2.4-.9.8-1.77 1.2-2.59.21-.42.49-.77.83-1.05.43-.35.84-.44 1.22-.27.53.22.99.72 1.4 1.5.31.61.55 1.3.7 2.03.1.57.23 1 .38 1.27.1.2.25.51.42.94.36.92.75 1.55 1.16 1.91.5.44.83.8 1 1.07.22.36.33.82.33 1.36 0 .16.07.23.23.21.32-.03.7-.2 1.12-.5.36-.28.64-.55.82-.83.23-.32.48-.84.76-1.53.1-.26.27-.4.5-.4.2 0 .4.09.61.27.4.33.7.83.91 1.5.13.4.25 1.05.39 1.96.07.52.13.9.18 1.15.02.1-.02.16-.13.16h-.27c-.1 0-.13.04-.1.13.08.3.26.54.55.71.13.08.23.14.3.2.06.04.1.1.1.18.12.58.4 1.05.87 1.43.07.05.1.13.1.24l.01.66c0 .09.03.16.08.22l.29.3c.36.35.61.71.76 1.07.06.14.17.27.33.4a1.08 1.08 0 0 1 .38 1.15c-.05.19-.2.47-.42.83-.17.28-.64.53-1.4.74l-.12.04a.34.34 0 0 1-.22-.01l-1.91-.76Z" fill="#058E4A"/><path d="M29.1 30.91c.25 1.45.61 2.78 1.09 3.99l1.23 3.03c.08.18.11.35.12.51 0 .06-.03.1-.08.13a.13.13 0 0 1-.15-.01c-.22-.16-.52-.42-.9-.77-.23-.2-.48-.24-.78-.1a.32.32 0 0 0-.17.2l-.35.97a.82.82 0 0 1-.27.37c-.23.18-.4.23-.5.16-.06-.04-.09-.13-.09-.27 0-.6-.01-1.07-.03-1.4a.2.2 0 0 0-.1-.19.23.23 0 0 0-.24 0c-.11.06-.23.17-.35.31a.72.72 0 0 1-.69.27.34.34 0 0 0-.23.05l-2.18 1.35c-.16.1-.36.04-.6-.16-.3-.28-.42-.65-.34-1.13a5.32 5.32 0 0 1 .47-1.27l.66-1.2c.7-1.28 1.15-2.7 1.34-4.27.43-1.43.8-2.92 1.1-4.46.12-.59.22-1.5.32-2.77.07-.94.14-1.63.2-2.05.08-.54.17-1.33.26-2.37.1-1 .17-1.74.25-2.25.03-.18.05-.18.06 0 .05.55.08 1.35.11 2.43.03 1 .06 1.75.1 2.24.22 2.94.47 5.82.73 8.66ZM22.05 33.69l.44 1.7c.02.04 0 .08-.03.12a.12.12 0 0 1-.13.02l-1.08-.38c-.16-.06-.26 0-.3.16-.06.31-.11.53-.15.65-.2.69-.36.67-.44-.04 0-.05-.05-.23-.14-.54a.16.16 0 0 0-.13-.12.16.16 0 0 0-.17.07c-.33.43-.75.76-1.27.99a.14.14 0 0 1-.15-.02.14.14 0 0 1-.05-.15l.86-4.51.93-7.84c.04-.34.1-.57.16-.7.18-.36.27-.33.28.06.05 1.12.07 2.24.07 3.36 0 1.31.08 2.42.24 3.33.23 1.3.58 2.58 1.06 3.84ZM38.67 32.05l1.36 3.35c.03.08.02.14-.04.2a.18.18 0 0 1-.2.05l-.97-.35c-.17-.06-.26-.01-.28.14-.06.39-.12.65-.19.78-.2.41-.35.39-.43-.07l-.06-.3c-.06-.37-.21-.4-.44-.12-.34.41-.7.7-1.08.89-.1.05-.2.04-.28-.03a.25.25 0 0 1-.1-.26l.57-3.17c.11-2.37.25-4.74.42-7.1.06-.76.12-1.35.2-1.76.04-.2.12-.3.23-.35.09-.03.13 0 .13.1-.02 2.14.1 3.97.35 5.48.15.9.42 1.73.8 2.52Z" fill="#925A41"/><path fill-rule="evenodd" d="M34.9 39.55c-.02-.02-.01-.03.02-.02l2.08.67h.03v-.04a.68.68 0 0 0-.07-.19 119 119 0 0 1-.84-1.37.33.33 0 0 1-.01-.22c.01-.04.04-.1.1-.18l.03-.05c0-.02.02-.03.04-.03s.03 0 .04.02l.3.32c.32.33.55.6.72.8.1.13.12.27.04.42 0 .03 0 .05.02.06h.05l.43-.32a.26.26 0 0 0 .1-.13c0-.02 0-.03-.02-.03-.1-.02-.17-.04-.2-.07a5.15 5.15 0 0 1-.48-.52c-.01-.02-.01-.05.01-.07l.77-.7h.02l.42.5.02.04c0 .14 0 .23-.03.27-.1.22-.06.24.1.07l.48-.47c.03-.03.03-.05.02-.07 0-.02-.02-.03-.04-.02l-.13.05c-.05.02-.1 0-.13-.03-.16-.16-.31-.34-.46-.52a5.55 5.55 0 0 0-.25-.28 5.12 5.12 0 0 1-.28-.32c-.06-.08-.07-.15-.04-.22l.11-.2c.02-.02.01-.04-.01-.05h-.03a5.36 5.36 0 0 1-.66.64v.05c.01.03.03.04.06.02l.2-.1.05.01.44.44c.03.03.03.06 0 .1l-.69.68c-.03.03-.07.03-.1 0l-.42-.46c-.05-.05-.06-.11-.05-.17a.53.53 0 0 1 .1-.15l.03-.03c.02-.03.01-.05-.02-.05h-.04a.16.16 0 0 0-.1.05l-.23.22a.48.48 0 0 1-.13.08.44.44 0 0 0-.13.1 5.6 5.6 0 0 0-.06.05.98.98 0 0 1-.23.2l-.23.13c-.05.03-.07.07-.05.12 0 .03.02.04.05.04H35.87l.1.1c.22.31.44.63.65.96v.03h-.04a262.66 262.66 0 0 1-1.91-.6l-.48.35a.03.03 0 0 0-.01.03c0 .02 0 .03.02.03l.05.01h.04c.17-.07.31-.04.42.07.3.32.57.72.83 1.19.06.1.04.18-.06.25l-.01.03c0 .01 0 .02.02.02l.03.01c.04.02.07 0 .1-.02l.16-.16a.16.16 0 0 1 .05-.03l.2-.1c.02 0 .03-.02.02-.03v-.03c-.02-.02-.03-.03-.05-.02-.11.05-.2.04-.26-.03-.07-.07-.17-.2-.3-.4a21.18 21.18 0 0 1-.53-.72Zm-14-1.31a1.72 1.72 0 0 0-.06-.18.18.18 0 0 0-.2-.1h-.03c-.1.02-.12.07-.08.15.06.12.15.25.25.4.04.05.1.1.16.14H21a.1.1 0 0 0 .04-.08c0-.03 0-.06-.02-.1a1.93 1.93 0 0 1-.1-.23Zm-1.95.27c-.01.01-.02.02-.03 0l-.82-.63a65.56 65.56 0 0 1 .48-.65c.04-.05.12 0 .26.12.03.02.05.02.08-.01.02-.04.01-.06 0-.08l-.6-.5c-.1-.1-.14-.08-.11.06 0 .02.02.04.04.06.07.05.07.1.02.17-.29.4-.64.84-1.06 1.3a.11.11 0 0 1-.13.03.83.83 0 0 0-.09-.03c-.1-.03-.12 0-.04.08.02.03.07.07.14.11l.13.1a61.37 61.37 0 0 0 .38.33c.01 0 .03-.01.03-.03v-.04l-.16-.2c-.02-.03-.02-.06 0-.1l.42-.53a.1.1 0 0 1 .07-.04.1.1 0 0 1 .07.02l.78.62-.49.63c-.02.04-.06.05-.1.03l-.1-.05c-.1-.05-.12-.02-.06.08.02.02.05.06.11.1a21.6 21.6 0 0 0 .6.49c.02.05.06.1.1.12.08.03.14.08.19.15h.03c.02 0 .03 0 .03-.02.02-.14.18-.31.48-.52a.08.08 0 0 1 .09 0l.55.31c.02.01.03.03.02.06-.02.21-.07.4-.15.58-.02.04-.06.06-.1.05l-.16-.03h-.03v.06c0 .02.01.03.03.05a17.2 17.2 0 0 1 .78.4l.01-.01c.02-.02.02-.03 0-.04v-.01a.8.8 0 0 1-.15-.13.2.2 0 0 1-.05-.17 86.42 86.42 0 0 0 .38-1.98.3.3 0 0 0-.17-.1h-.05l-.22.15-1.11.82-.31.2c-.06.03-.11.02-.16-.02l-.25-.25c-.02-.03-.02-.05 0-.07l.96-1.2a.57.57 0 0 1 .18-.16h.05c.1.06.16.1.2.1.03 0 .04 0 .05-.02.01-.05 0-.08-.03-.1a5.72 5.72 0 0 1-.65-.51c-.12-.03-.14.01-.06.1l.08.1.02.04c0 .1-.12.28-.35.55l-.05.06Zm1.39 1.3.15-.69c0-.02 0-.05-.03-.06a.06.06 0 0 0-.07 0l-.6.43a.06.06 0 0 0-.02.06c0 .02.02.04.04.05l.44.25h.05c.02 0 .04-.02.04-.04Zm12.9-.07c.06-.03.18-.15.35-.36.03-.04.03-.07-.02-.08l-.09-.03c-.04-.01-.08 0-.1.05l-.18.38v.03h.04Zm-11.48.99.11.04c.03 0 .04.02.03.04-.04.24-.13.46-.26.66a.06.06 0 0 1-.04.03.5.5 0 0 1-.15 0h-.05c-.01.02-.02.04-.01.06a663.6 663.6 0 0 0 .91.37c.43.17.8.15 1.09-.06.24-.17.4-.5.47-.96a.72.72 0 0 0-.18-.6 1.22 1.22 0 0 0-.52-.36c-.4-.15-.7-.28-.93-.4-.05-.03-.08-.02-.1.04v.01c-.01.05 0 .09.05.1.1.05.13.13.09.24l-.2.5c-.03.07-.09.11-.17.13a.4.4 0 0 0-.12.04c-.04.02-.06.05-.05.1l.03.02Zm.8.2V41c0 .02-.02.02-.04.02a.47.47 0 0 1-.23-.1.04.04 0 0 0-.04 0 .04.04 0 0 0-.02.03l-.2.6c-.01.05 0 .08.04.1.31.22.57.29.78.2.23-.1.4-.26.52-.48.18-.34.21-.64.09-.9-.12-.27-.37-.43-.75-.5-.06-.01-.1 0-.12.07l-.23.6c0 .02 0 .04.02.05l.2.06c.02 0 .03.02.03.04l-.04.1a.1.1 0 0 0 0 .06Zm2.18-.7.4-.17c.04-.02.09 0 .1.03.02.05 0 .09-.03.1l-.41.19a.07.07 0 1 1-.06-.14Zm.6.18c-.03.01-.05 0-.06-.03v-.02c-.02-.03-.01-.07.02-.12a.25.25 0 0 1 .13-.09h.02c.05-.02.1-.03.15-.01.05 0 .08.04.1.07v.02c.01.03 0 .05-.02.06l-.34.12Zm7.03-.13c-.1.02-.16.01-.2-.03a.06.06 0 0 1-.01-.06c0-.03.03-.04.05-.05.17-.02.34-.06.5-.13l.15.02c.02 0 .03.02.03.04 0 .04-.02.06-.04.07a.5.5 0 0 0-.33.32l-.24.66a.1.1 0 0 0 .03.1l.65.63.22.12c.07.04.14.04.2 0 .07-.04.1-.1.1-.19 0-.41-.03-.9-.08-1.46v-.02a2.04 2.04 0 0 1-.02-.32c.01-.1.04-.19.1-.25a.1.1 0 0 1 .07-.04.1.1 0 0 1 .09.03L35 41.1a.1.1 0 0 0 .08.03l.23.01c.08.01.09.04 0 .08l-.08.04-.17.09c-.15.1-.28.16-.4.2h-.06c-.02-.02-.02-.04 0-.06l.12-.12c.02-.02.02-.03 0-.05l-.42-.46a.03.03 0 0 0-.04 0l-.64.23c-.02 0-.02.02-.02.04l.1.63c0 .03.01.04.04.04l.22-.01c.02 0 .03 0 .03.03s0 .04-.02.05c-.16.05-.32.12-.49.2a.74.74 0 0 1-.33.07c-.02 0-.04 0-.06.02l-.25.23a.04.04 0 0 1-.04.01.04.04 0 0 1-.02-.03.73.73 0 0 0-.2-.41 9.73 9.73 0 0 0-.4-.38c-.02-.01-.04-.01-.05.01-.1.24-.18.5-.24.77 0 .02 0 .04.02.05.02.03.06.05.1.06h.02c.03.02.03.04.03.06l-.03.02c-.16.01-.3.04-.45.08-.1.02-.12 0-.07-.1.08-.13.18-.35.3-.65l.15-.35a.1.1 0 0 0-.03-.12 7.7 7.7 0 0 0-.78-.65.54.54 0 0 0-.29-.07c-.02 0-.03 0-.04-.02v-.06a.17.17 0 0 1 .05-.03c.28-.06.53-.14.74-.24h.05c.03.02.04.05.01.09a.64.64 0 0 1-.12.14.07.07 0 0 0-.02.05c0 .02 0 .04.02.05l.53.41h.03c.01 0 .02 0 .02-.02l.24-.75v-.02Zm1.23.62-.06-.72c0-.02.01-.03.03-.04h.05l.5.53.01.03c0 .02-.01.03-.02.03l-.45.2h-.04a.04.04 0 0 1-.02-.03Zm-9.46 1.55c.22.22.48.32.79.32.3 0 .57-.13.78-.35.2-.23.31-.5.3-.82 0-.32-.12-.58-.34-.8a1.05 1.05 0 0 0-.79-.32c-.3 0-.56.12-.77.35-.22.23-.32.5-.31.82 0 .31.12.58.34.8Zm1.29-1.58a.61.61 0 0 0-.4-.21.61.61 0 0 0-.45.1.82.82 0 0 0-.28.37c-.08.2-.13.4-.14.6 0 .24.04.43.15.58.12.15.28.24.47.27.2.02.37-.03.53-.15a.87.87 0 0 0 .28-.52c.04-.2.05-.4.02-.62a.81.81 0 0 0-.18-.42Zm4.3 1.14c.06 0 .11 0 .16.02.02 0 .03.02.04.04v.06c.03.18.04.3.03.39 0 .14-.04.22-.1.24-.37.12-.66.08-.88-.11a.98.98 0 0 1-.32-.73c-.01-.31.06-.57.23-.77.18-.22.43-.3.74-.24.11.03.2.07.27.14.04.04.1.1.16.22l.08.13c.02.02.04.03.07.01l.03-.02c.02-.04.03-.07.02-.09a.6.6 0 0 1-.04-.48c0-.02 0-.03-.02-.03-.05 0-.1.02-.14.05a.05.05 0 0 1-.05 0c-.3-.1-.56-.12-.8-.07a1.13 1.13 0 0 0-.8 1.62c.16.35.45.54.84.58.33.04.68-.03 1.06-.2l.01-.02a1.53 1.53 0 0 1-.03-.67c0-.02.01-.03.03-.04l.14-.08c.02 0 .04-.02.05-.03.01-.03 0-.05 0-.07a.04.04 0 0 0-.04-.02l-.76.03c-.03 0-.05.02-.05.06v.02c0 .04.03.06.07.06Zm-6.98-1.23c.1.01.17.07.2.17.02.02.01.03 0 .05-.05.06-.12.07-.21.04a.06.06 0 0 1-.04-.03.3.3 0 0 1 0-.2c0-.03.02-.04.05-.03Zm3.76 1.78c.02-.52.02-.93 0-1.24 0-.05.02-.06.05-.02.33.41.69.91 1.1 1.5.05.08.11.16.2.25.08.1.13.07.13-.06a16.73 16.73 0 0 0 .03-1l.02-.68c0-.17.09-.27.24-.31.03-.01.05-.03.05-.06v-.03c0-.02-.01-.03-.04-.03-.23.03-.44.03-.63 0-.04 0-.06 0-.08.04v.02c-.01.03 0 .04.02.04.17.04.25.11.26.22.02.26.02.53 0 .8a4.68 4.68 0 0 0-.03.41h-.03a1.53 1.53 0 0 1-.2-.24 55 55 0 0 0-1-1.35c-.08-.02-.2-.04-.36-.04h-.1c-.03 0-.05 0-.06.02a.06.06 0 0 0 0 .07c0 .02.02.03.04.04.18.04.26.16.25.36l-.04 1.3c0 .06-.02.13-.05.2l-.03.02-.15.05-.03.01v.04c0 .02.02.03.04.04l.62.03c.02 0 .02 0 .03-.02.02-.02.02-.04 0-.06a3.41 3.41 0 0 0-.16-.07.08.08 0 0 1-.04-.04.45.45 0 0 1-.05-.21Z" fill="#038352"/><defs><linearGradient id="a" x1="28" y1="0" x2="28" y2="56" gradientUnits="userSpaceOnUse"><stop stop-color="#378501"/><stop offset="1" stop-color="#53AF01"/></linearGradient></defs></svg>