<!-- by TradingView --><svg width="56" height="56" viewBox="0 0 56 56" xmlns="http://www.w3.org/2000/svg"><path fill="#F0F3FA" d="M0 0h56v56H0z"/><path d="M13.63 19.03c.18.07.3.2.37.4-.04.2-.05.38-.04.57l.02.45a20904.87 20904.87 0 0 1-.04 7.58c-.02.35-.18.55-.49.6-.3.06-.52.02-.65-.1-.13-.1-.2-.33-.2-.64a4015.98 4015.98 0 0 0 0-8.22c.02-.2.06-.35.13-.42.19-.22.49-.3.9-.22ZM16.07 19h-.18a.6.6 0 0 0-.59.63v8.42c0 .34.27.62.6.62h.17a.6.6 0 0 0 .59-.62v-8.42a.6.6 0 0 0-.59-.62Z" fill="#FE9020"/><path d="M24.74 19.02h-.07a.69.69 0 0 0-.67.7v8.26c0 .4.3.7.67.7h.07c.37 0 .67-.3.67-.7v-8.26c0-.39-.3-.7-.67-.7Z" fill="#72CE52"/><path d="M39.35 19.35c.05.2.07.4.07.6-.02.7-.02 1.38-.01 2.05l.03 5.89-.08.46a.1.1 0 0 1-.05.07c-.22.15-.4.23-.56.24-.18.02-.36-.05-.53-.2a.56.56 0 0 1-.18-.27 1.48 1.48 0 0 1-.02-.42c-.03-2.88-.02-5.5 0-7.84.01-.3.07-.53.17-.67.12-.16.32-.24.6-.26.14 0 .52.21.56.35Z" fill="#01B2F6"/><path d="M27.4 19.06h-.19a.63.63 0 0 0-.61.65v8.34c0 .35.27.64.61.64h.18c.34 0 .61-.29.61-.64V19.7a.63.63 0 0 0-.6-.65Z" fill="#72CE52"/><path d="M35.72 19h-.05a.69.69 0 0 0-.67.7v8.24c0 .4.3.7.67.7h.05c.37 0 .66-.3.66-.7V19.7c0-.39-.3-.7-.66-.7Z" fill="#01B2F6"/><path d="m22.48 31.8-1.32 1.42h-.1a.1.1 0 0 1-.06-.1l.02-10.5c0-.84.02-1.45.05-1.83.02-.16.1-.3.24-.41.22-.17.45-.2.71-.1.26.1.4.3.42.6l.01.3c-.04 3.15-.03 7.5.03 10.63ZM29.77 20.24h-.13c-.35 0-.64.3-.64.68l.01 7.07c0 .37.3.68.65.68h.13c.35 0 .64-.3.64-.68l-.01-7.08a.66.66 0 0 0-.65-.67Z" fill="#72CE52"/><path d="M33.96 20.7c.02.05.03.16.03.31v9.4a.1.1 0 0 1-.03.08l-1.14 1.18c-.09.1-.15.08-.16-.06-.03-.2-.03-.5-.02-.9v-.58c-.02-.39-.02-.87 0-1.45.01-.7 0-1.48-.01-2.32-.02-.62-.03-1.58-.02-2.86V21.2c-.02-.34.01-.56.08-.68.13-.23.37-.32.7-.28.28.03.47.18.57.45Z" fill="#01B2F6"/><path d="m18.98 20.36.07.05c.11.07.19.15.22.22.1.23.14.5.15.8a62.17 62.17 0 0 1 0 3.1l.01 2.87c0 .33-.03.66-.12.97 0 .02-.02.05-.05.07a.95.95 0 0 1-.6.23.63.63 0 0 1-.57-.26c-.06-.09-.09-.22-.09-.41l.01-3.18a299.52 299.52 0 0 0 0-3.6c0-.28.02-.47.06-.57.05-.16.17-.27.36-.34a.75.75 0 0 1 .29-.05c.07 0 .16.04.26.1Z" fill="#FE9020"/><path d="M41.38 20h-.16a.62.62 0 0 0-.62.62l.01 7.14c0 .35.28.62.62.62h.17c.34 0 .61-.28.61-.62v-7.14a.62.62 0 0 0-.63-.62Z" fill="#01B2F6"/><path d="m21.64 33.95.01-.06.9-1.31c.25.68.68 1.56 1.06 1.95.2.2.48.38.85.55a5.7 5.7 0 0 0 2.8.53 7.12 7.12 0 0 0 2.13-.53c.1-.03.3-.16.6-.38.18-.13.37-.28.55-.47a67.1 67.1 0 0 0 1.93-2.01c.36-.4.6-.65.74-.77.35-.33.7-.66 1.03-1 .38-.37.69-.7.93-.99.22-.25.38-.4.5-.46.19-.1.39-.07.6.06.16.1.27.24.33.43.11.32.01.62-.29.89-.44.4-1.18 1.14-2.2 2.23l-.44.45c-.06.05-.14.15-.25.27-.14.16-.24.27-.32.34-.56.52-1.09 1.04-1.57 1.55-.33.34-.66.6-.99.8-.46.26-.87.46-1.22.6-.4.14-.83.24-1.26.3-.72.07-1.4.07-2.06 0-.46-.04-1-.16-1.6-.36a4.53 4.53 0 0 1-1.95-1.32c-.18-.2-.42-.53-.71-.99a.55.55 0 0 1-.1-.3Z" fill="#72CE52"/><path d="m33.08 33.87.47-.4c.06-.05.13-.13.21-.25.07-.1.15-.17.24-.23.02-.01.04 0 .07.01l.12.28.1.26.12.26c.02.05.1.16.23.34a4.48 4.48 0 0 0 1.14.94c.6.3 1.17.48 1.74.54a5.43 5.43 0 0 0 4.9-1.78c1.09-1.17 2.17-2.58 3.42-3.56.11-.1.29-.28.51-.56l.41-.46a.73.73 0 0 1 .42-.23.7.7 0 0 1 .62.23c.18.19.24.4.17.64a.9.9 0 0 1-.31.42c-.2.16-.44.4-.73.72l-.7.74c-.97.98-2.04 1.97-2.94 3.02a4.77 4.77 0 0 1-.63.64 4.86 4.86 0 0 1-1.15.83c-.53.25-.99.43-1.38.52-.73.16-1.5.23-2.32.2a8.52 8.52 0 0 1-1.13-.15c-.47-.08-1-.27-1.6-.57a5.85 5.85 0 0 1-1.43-1.2 5.09 5.09 0 0 1-.58-1 .2.2 0 0 1 .01-.2Z" fill="#01B2F6"/><path d="M11.45 20.64c-.03 3.73-.04 7.44-.03 11.15v.47c-.02.48.07.91.26 1.3.14.26.36.57.67.93.12.14.29.28.5.41.3.19.5.3.62.34.88.35 1.79.47 2.72.36 1.14-.09 2.11-.52 2.93-1.3a87.1 87.1 0 0 0 2.3-2.3l1.32-1.4c.52-.47.84-.77.96-.93.42-.54 1.36-1.29 1.7-.21.07.2.07.4 0 .55-.06.13-.17.28-.35.45-1.64 1.6-3.1 3.17-4.68 4.78-.45.46-1.09.8-1.65 1.07-.65.32-1.21.5-1.69.58a8.7 8.7 0 0 1-3.07-.06A5.27 5.27 0 0 1 11 35.05a3.18 3.18 0 0 1-.46-.71 9.4 9.4 0 0 1-.31-.8l-.02-.05c-.1-.3-.17-.6-.19-.94a33.63 33.63 0 0 1 0-2.9 1032.85 1032.85 0 0 1 0-7.02c-.02-.87-.02-1.48 0-1.83.02-.16.1-.3.27-.42.12-.1.38-.15.76-.18.22.1.35.25.4.44Z" fill="#FE9020"/></svg>