<!-- by TradingView --><svg width="56" height="56" viewBox="0 0 56 56" xmlns="http://www.w3.org/2000/svg"><path fill="#F0F3FA" d="M0 0h56v56H0z"/><path d="M36 35c-1.9 1.85-4.56 3-7.5 3C22.7 38 18 33.52 18 28s4.7-10 10.5-10c2.95 0 5.62 1.16 7.52 3.03l-.72.69A9.74 9.74 0 0 0 28.5 19c-5.25 0-9.5 4.03-9.5 9s4.25 9 9.5 9a9.74 9.74 0 0 0 6.78-2.7l.72.7Z" fill="#0000C7"/><path fill-rule="evenodd" d="M47 28 28 9 9 28l19 19 19-19Zm-7 6V22h-1.6a12 12 0 1 0 0 12H40Z" fill="#0000C7"/><path d="M28 31v-7h2.1c1.3 0 1.9 1.33 1.9 2.5 0 1.18-.62 2.5-1.93 2.5h-1.34v-1h1.31c.67 0 .96-.9.96-1.5s-.3-1.5-.96-1.5H29v6h-1ZM21 24h1.44L24 28.7l1.56-4.7H27v7h-1v-5l-1.61 4.97h-.78L22 25.98V31h-1v-7ZM37.97 25.82l-.97.47c-.1-.63-.67-1.29-1.34-1.29-1.14 0-1.66 1.59-1.66 2.5 0 .91.5 2.5 1.65 2.5.68 0 1.25-.78 1.35-1.42l1 .5c-.3 1.1-1.2 1.92-2.36 1.92-1.88 0-2.64-1.89-2.64-3.5 0-1.6.77-3.5 2.64-3.5 1.12 0 2.02.75 2.33 1.82Z" fill="red"/></svg>