<!-- by TradingView --><svg width="56" height="56" viewBox="0 0 56 56" xmlns="http://www.w3.org/2000/svg"><path fill="#F0F3FA" d="M0 0h56v56H0z"/><path d="M37.58 33.28c-.18.15-.33.3-.45.42a12.68 12.68 0 0 1-17.85.4l-.77-.72-.5-.62a13.36 13.36 0 0 1-3-9.23c0-.08.04-.1.11-.08h.04c.03 0 .05 0 .06-.03l.02-.1c.01-.04.04-.07.1-.06.04 0 .08.04.12.11a.1.1 0 0 1 0 .12l-.06.08a.1.1 0 0 0 0 .1c.04.1.11.16.2.21.04.03.06.02.06-.04v-.16c0-.19-.01-.31-.06-.37v-.01c-.14-.19-.26-.28-.36-.27a.28.28 0 0 0-.12.06c-.04.02-.06.01-.06-.04a13.4 13.4 0 0 1 3.53-7.95 12.7 12.7 0 0 1 9.98-4.09c1.82.07 3.55.51 5.18 1.34a13.4 13.4 0 0 1 7.18 13.27 13.2 13.2 0 0 1-3.35 7.66Z" fill="#2122A3"/><path d="M28.1 11.31c.06.09.07.17.04.24-.02.05-.05.05-.09.02a.65.65 0 0 1-.2-.3c-.01-.06 0-.08.06-.08.08 0 .14.04.2.12ZM27.28 13.5l-.07-1.69c0-.05.03-.07.08-.07l.14-.01c.07 0 .08-.03.04-.08l-.07-.1a.78.78 0 0 0-.01-.02c-.03-.09 0-.14.11-.15.06 0 .11.01.15.06.04.05.05.1.03.16l-.04.16c-.06.16-.08.3-.07.42l.07 1.23c.02.26-.1.4-.35.42h-.02c-.25.03-.39-.09-.41-.36l-.14-1.6c0-.07.03-.1.09-.11l.14-.02c.07 0 .11.03.12.1l.13 1.66c0 .02 0 .02.02.03h.04c.02 0 .02 0 .02-.02Z" fill="#F0F3FA"/><path d="m28.46 11.62-.07-.1c-.05-.05-.04-.1.03-.12.04-.01.1-.02.17-.01.06 0 .09.04.09.1 0 .13-.03.25-.09.36l-.02.14-.03 1.46c0 .25-.13.38-.4.36h-.03c-.24 0-.37-.13-.38-.38-.03-.63-.04-1.07-.03-1.32.01-.26.14-.4.39-.45.05 0 .1 0 .14.02.1.04.17.05.22.01.04-.02.04-.04.01-.07ZM29.56 13.26c.08-.21.13-.46.14-.73.02-.47.16-.7.4-.7.15 0 .27.04.37.13.03.04.05.08.05.13.02.19 0 .36-.04.51 0 .05-.03.07-.08.06l-.18-.03c-.06-.01-.08-.05-.07-.1l.05-.34-.01-.02h-.06c-.02 0-.03.01-.03.03l-.1.6c0 .06.01.09.06.1l.3.02c.05 0 .07.04.06.1l-.14.88c-.02.07-.05.09-.1.06a.15.15 0 0 1-.05-.03.1.1 0 0 0-.1-.02.53.53 0 0 1-.47-.07.14.14 0 0 0-.12-.02.6.6 0 0 1-.26.01c-.07 0-.11-.05-.12-.13-.01-.42-.02-.72-.04-.89-.01-.18-.03-.18-.06 0l-.1.93c0 .03-.02.06-.04.07a.08.08 0 0 1-.09 0l-.06-.02c-.06-.03-.08-.08-.08-.14l.18-1.86c0-.05.03-.07.07-.06l.37.03c.03 0 .04.02.04.05l.04.9h.02l.08-.85c0-.07.05-.1.11-.1l.04.01c.1.01.14.06.13.15l-.13 1.34c0 .05 0 .05.02 0ZM26.53 12.8a.2.2 0 0 0 .06.02c.06.02.1.06.1.11l.13.82c0 .07-.02.11-.09.12l-.09.02c-.1.01-.15-.03-.17-.13l-.1-.72-.03-.02-.06-.03c-.02 0-.03 0-.03.03l.13.8c0 .07-.02.11-.1.12l-.11.02c-.08.01-.13-.02-.14-.1l-.28-1.83c0-.06.02-.1.07-.12.16-.05.35-.06.57-.03.05 0 .09.04.11.08.1.2.14.42.11.66 0 .02-.01.04-.04.07a.32.32 0 0 1-.04.04c-.03.02-.02.05 0 .07Z" fill="#F0F3FA"/><path d="M28.13 11.98a.07.07 0 0 0-.07.07l-.01 1.37c0 .04.03.07.06.07h.01c.04 0 .07-.03.07-.07v-1.37a.07.07 0 0 0-.06-.07Z" fill="#2122A3"/><path d="M25.08 12.44c-.17-.02-.25-.1-.24-.24 0-.04.02-.07.06-.07l.6-.12c.06 0 .1.01.14.07.03.06.02.1-.02.16a.65.65 0 0 1-.1.07.1.1 0 0 0-.03.12l.35 1.5c.01.08-.02.13-.09.14l-.14.03c-.09.01-.14-.02-.15-.1l-.27-1.46c-.01-.06-.05-.1-.1-.1Z" fill="#F0F3FA"/><path d="M26.16 12.4c.01.15.05.27.09.26.03 0 .05-.12.03-.27-.02-.14-.06-.25-.1-.25-.03 0-.04.13-.02.27Z" fill="#2122A3"/><path d="M31.45 13.22c-.02.02-.02.04 0 .06l.03.04c.01.02.03.02.05 0 .09-.08.17-.11.25-.1.06 0 .08.03.05.1-.14.37-.21.66-.2.86 0 .13-.05.18-.17.15l-.52-.14c-.14-.03-.2-.13-.2-.27.03-.41.14-.72.33-.94a.17.17 0 0 0 .04-.12c0-.23.05-.43.18-.6a.2.2 0 0 1 .1-.08c.24-.06.4 0 .47.18.06.17.03.35-.07.54a.69.69 0 0 1-.18.18c-.08.06-.13.1-.16.14ZM23.43 12.57c.05-.03.05-.05 0-.08l-.03-.02c-.04-.02-.08-.01-.1.03a.6.6 0 0 1-.18.16c-.04.03-.06.02-.06-.04 0-.17.06-.29.15-.36a.12.12 0 0 1 .13-.02c.13.05.2.13.23.23.01.05.04.07.08.09.12.03.2.08.23.13.18.3.37.77.57 1.37.09.25 0 .43-.23.52l-.02.01c-.23.1-.4.03-.51-.22-.22-.5-.39-.9-.5-1.2-.05-.13-.06-.24-.02-.32.05-.12.14-.21.26-.28ZM24.2 12.34l-.13.04a.1.1 0 0 0-.06.14l.6 1.77a.1.1 0 0 0 .13.06l.13-.04a.1.1 0 0 0 .06-.14l-.6-1.77a.1.1 0 0 0-.13-.06Z" fill="#F0F3FA"/><path d="M31.45 12.64c-.05.1-.06.2-.03.21.03.02.09-.06.13-.16.05-.11.06-.2.03-.22-.03-.01-.09.06-.13.17Z" fill="#2122A3"/><path d="M33.03 14.22c-.07.04-.16.17-.25.37-.09.2-.23.24-.42.15l-.11-.05c-.2-.1-.26-.25-.17-.47l.6-1.3c.04-.1.12-.16.22-.19.1-.02.19 0 .27.05l.11.08c.14.1.18.23.1.39l-.15.34c-.02.04-.04.05-.08.03l-.18-.09c-.05-.02-.06-.05-.04-.1l.14-.3c.02-.05 0-.06-.03-.04l-.07.03-.02.02-.55 1.21c-.04.08-.02.1.06.06.08-.04.12-.11.13-.22 0-.07.03-.12.09-.15a.16.16 0 0 1 .17 0c.05.04.12.1.18.18ZM34.2 12.83c.12.07.15.2.09.39-.01.02-.02.03-.04.03s-.04 0-.05-.02a1.07 1.07 0 0 0-.13-.18 1 1 0 0 0-.21-.04.04.04 0 0 1-.04-.03v-.05c.14-.14.27-.18.38-.1Z" fill="#F0F3FA"/><path d="M23.53 12.89a.06.06 0 0 0-.03.08l.5 1.23c0 .03.04.04.07.03a.06.06 0 0 0 .04-.08l-.5-1.23a.06.06 0 0 0-.08-.03Z" fill="#2122A3"/><path d="M23.23 15.04a.3.3 0 0 1-.07.03c-.05 0-.09 0-.1-.03l-.56-.8-.03-.01c-.01 0-.02 0 0 .02.1.24.23.52.4.82.04.07.02.13-.04.18l-.04.03c-.06.03-.1.02-.13-.03l-.92-1.63c-.03-.05-.02-.1.02-.13.1-.08.2-.14.32-.18.05 0 .08 0 .11.04l.63.89s-.1-.35-.35-1.03a.1.1 0 0 1 .03-.12c.1-.08.2-.13.33-.17.05-.02.09 0 .11.05l.8 1.7c.02.06 0 .1-.06.13l-.04.01c-.08.03-.14.01-.17-.06a10.44 10.44 0 0 0-.46-.81v.03l.33.91c.01.04 0 .08-.04.12a.29.29 0 0 1-.07.04Z" fill="#F0F3FA"/><path d="M29.88 13.38c-.02.14 0 .26.03.27.03 0 .08-.11.1-.25.02-.15.01-.27-.03-.27-.03 0-.08.1-.1.25Z" fill="#2122A3"/><path d="m33.03 14.22.46-.84c.13-.24.31-.29.54-.16l.04.01c.23.13.28.31.16.55-.14.3-.34.67-.57 1.1-.17.31-.39.38-.67.2-.13-.1-.19-.21-.17-.37.01-.08.07-.22.16-.4l.05-.1Z" fill="#F0F3FA"/><path d="M31.08 13.73c0 .13.04.24.1.24.04 0 .09-.1.09-.24 0-.12-.04-.23-.09-.23-.05 0-.1.1-.1.23ZM33.93 13.5v-.01a.06.06 0 0 0-.08.02l-.69 1.23c-.01.02 0 .06.02.08.03.01.07 0 .08-.02l.69-1.23a.06.06 0 0 0-.02-.08Z" fill="#2122A3"/><path d="m34.53 14.86.51-.8c.06-.1.13-.1.2-.04l.07.04c.04.03.04.07.01.11a9.2 9.2 0 0 0-.8 1.27c.26-.4.53-.76.8-1.05.1-.13.24-.14.39-.05.12.07.21.19.27.33.01.05 0 .1-.02.14l-.24.37c-.03.05-.08.06-.13.03l-.17-.11c-.04-.03-.04-.06-.01-.1l.21-.3v-.02l-.05-.02c-.02-.02-.05-.01-.06.01l-.36.5c-.04.04-.03.08.02.1l.18.1c.1.04.1.1.05.18l-.52.7c-.04.06-.07.06-.11 0l-.04-.06a.16.16 0 0 0-.1-.08.4.4 0 0 1-.3-.22l-.06-.06-.32-.2c-.05-.03-.06-.07-.04-.11l.54-1.18c.03-.06.02-.07-.02 0l-.68 1.03c-.03.05-.07.07-.13.04l-.09-.04c-.05-.03-.06-.07-.03-.12l1.06-1.63c.02-.03.04-.04.06-.02l.35.23c.02.02.03.04.02.07l-.5.95v.02c.01.01.02 0 .04-.01ZM22.04 15.85c-.22.16-.4.15-.56-.05l-.97-1.3c-.03-.04-.02-.08.01-.12.06-.05.12-.1.2-.13.04-.03.08-.02.1.03.64.91.98 1.35 1.03 1.31.05-.04-.26-.5-.93-1.39-.03-.04-.03-.08 0-.11a.68.68 0 0 1 .2-.15c.04-.03.08-.02.1.03l.93 1.32c.15.2.1.4-.11.56ZM21.31 16.39l-.1.09c-.04.02-.07.02-.1 0l-1.38-1.28c-.03-.03-.04-.07-.02-.11.07-.16.16-.19.27-.08.57.54.85.81.86.8l-.66-.98c-.08-.13-.04-.22.12-.26.05-.02.08 0 .1.04l1.03 1.58c.02.03.02.07-.01.1a2.3 2.3 0 0 1-.1.1ZM35.83 29.94c-.06-.01-.1-.06-.11-.15.18-.3.35-.61.51-.93a9.63 9.63 0 0 0-.8-10.35 9.26 9.26 0 0 0-3.98-3.03 9.02 9.02 0 0 0-9.71 1.86 9.46 9.46 0 0 0-2.89 5.47 9.44 9.44 0 0 0 1.08 6.17l.5.88c0 .09-.04.13-.11.14a9.72 9.72 0 0 1-1.72-6.87 9.83 9.83 0 0 1 2.97-5.92 9.46 9.46 0 0 1 9.05-2.24 9.35 9.35 0 0 1 5.39 4.02 9.76 9.76 0 0 1 1.38 7.25 9.74 9.74 0 0 1-1.56 3.7Z" fill="#F0F3FA"/><path d="M36.8 26.84a4.35 4.35 0 0 0-2.38.29l-6.28-11.89a.1.1 0 0 0-.09-.05.1.1 0 0 0-.09.05l-1.61 3.1-1.63-1.07c-.03-.02-.05-.02-.07.01v.04c0 .04-.02.07-.04.1-.29.35-.6.38-.93.1-.08-.06-.1-.04-.06.05l1.28 3.51c-.02.1-.04.15-.07.15l-2.57 4.96-.02-7.94a.5.5 0 0 1 .12-.34c.57-.65 1.3-.94 2.16-.86.01 0 .02 0 .01-.01V17l-.03-.03c-.96-.1-1.72.23-2.3 1-.08.1-.12.25-.11.45v8.24c-.14.2-.26.28-.35.27-.8-.23-1.6-.21-2.4.04a9.28 9.28 0 0 1 1.3-7.98 9.1 9.1 0 0 1 5.72-3.75 8.8 8.8 0 0 1 6.58 1.3 9.1 9.1 0 0 1 3.87 5.35 9.37 9.37 0 0 1-.01 4.95ZM36.57 15.8l-.97 1.09c-.05.07-.11.07-.18 0l-.1-.09c-.06-.05-.06-.1-.01-.16l1.07-1.1a.1.1 0 0 0 .03-.11.72.72 0 0 1-.04-.12c-.01-.06 0-.11.06-.14.06-.04.11-.03.16.01l.45.42c.03.03.03.06.01.1-.06.12-.18.15-.33.07-.06-.03-.1-.02-.15.03Z" fill="#F0F3FA"/><path d="m34.43 27.13-.99.32a.17.17 0 0 0-.1.1l-.33.72c-.03.05-.01.08.05.08.17 0 .28-.01.34-.04.45-.18.92-.33 1.4-.46-.03.14.01.21.12.21l-2.11.7a.18.18 0 0 0-.06.03l-.88.77c-.04.04-.03.05.02.06.4.04.79 0 1.13-.12.89-.3 1.66-.53 2.33-.68l.1.34c-.8.1-1.56.3-2.3.61l-.83.21c-.18.05-.45.06-.83.05-.3-.02-.62.02-.96.1-.13.04-.31.04-.55.01a1.63 1.63 0 0 0-.3-.01c-.01 0-.02 0-.02.02v.04l.04.03c.18.06.38.14.6.25.9.42 1.88.45 2.92.08l.45-.16a7.2 7.2 0 0 1 1.64-.46 9.03 9.03 0 0 1-6.9 3.69l-.03-2.27c0-.09-.04-.13-.12-.14l-.38-.04c-.1 0-.14.04-.15.14l-.05 2.3A8.89 8.89 0 0 1 21 30.2c.25.03.5.1.75.23l.69.34c.54.17 1.1.21 1.69.13.4-.06.97-.22 1.69-.49a7.1 7.1 0 0 1 2.75-.45c.2.01.2-.02.02-.09a2.53 2.53 0 0 1-.92-.58.14.14 0 0 0-.12-.04c-.98.13-1.6.26-1.87.38a4.81 4.81 0 0 1-2.65.49 3.8 3.8 0 0 1-.91-.34c-.47-.22-.94-.42-1.43-.6.1-.08.14-.19.1-.34.46.04.8.12 1 .26.66.44 1.37.65 2.12.64.61 0 1.34-.18 2.18-.52.11-.04.3-.1.57-.16l.44-.12c.1-.03.13-.1.08-.2-.2-.43-.48-.57-.85-.42-.43.17-.9.33-1.42.49-.56.17-1.09.2-1.58.12-.2-.04-.56-.18-1.05-.43a8.3 8.3 0 0 0-1.05-.43c.12-.07.19-.2.2-.37.42.14.83.3 1.23.5.47.24.9.35 1.3.35a5.9 5.9 0 0 0 2.72-.67c.04-.02.06-.05.04-.1-.06-.14-.1-.25-.11-.33-.04-.22-.15-.3-.35-.2-.7.3-1.3.47-1.85.5-.65.05-1.27-.1-1.85-.42-.14-.08-.41-.21-.83-.4.1.01.2-.08.35-.27 0 .08 0 .15.02.21.01.03.03.05.06.04.02 0 .03 0 .04-.02l.02-.07c0-.25.01-.46.03-.63l2.57-4.96c.15.04.25.12.29.24.15.45.33.93.54 1.45l.14.43c.1.33.2.58.28.73.02.04.05.05.08.02a19.4 19.4 0 0 0 3.1-3.77c.02-.04 0-.07-.03-.1l-1.98-1.26-.9-.63 1.61-3.1a.1.1 0 0 1 .1-.05.1.1 0 0 1 .08.05l6.29 11.89Z" fill="#9A9B9D"/><path d="M34.78 15.6c-.08.12-.13.23-.1.25.02.02.11-.06.2-.17.08-.12.13-.23.1-.25-.02-.02-.11.06-.2.18Z" fill="#2122A3"/><path d="M20.09 17.57c0 .25-.12.42-.34.5a.16.16 0 0 1-.12 0c-.1-.04-.21-.1-.32-.2l-.76-.59c-.42-.3-.43-.6-.02-.86a.14.14 0 0 1 .13-.02 1 1 0 0 1 .42.3c.06.06.06.13-.01.2a.27.27 0 0 1-.16.07.12.12 0 0 1-.12-.05 1.2 1.2 0 0 0-.12-.16c-.06-.02-.09 0-.1.06 0 .04.02.07.06.1.35.25.7.52 1.04.8.02.02.03.02.05 0l.02-.03v-.03l-.3-.28c-.03-.03-.03-.07-.01-.11a.9.9 0 0 1 .17-.2c.03-.02.03-.05 0-.07l-.83-.77c-.04-.04-.04-.09 0-.13l.12-.14c.03-.04.06-.04.1 0l.46.42.02.01c.02 0 .03 0 .04-.02v-.03a1.5 1.5 0 0 0-.4-.38c-.06-.04-.07-.1-.04-.17l.06-.14c.04-.08.09-.1.16-.03l1.38 1.28c.04.04.04.08 0 .12l-.13.15c-.03.03-.05.03-.08 0l-.65-.59c-.01-.02-.03-.01-.05 0l-.03.04v.02l.6.55c.03.03.05.07.04.12-.01.11-.08.18-.2.18-.05 0-.08.03-.08.08ZM37.65 17.6l-1 .66c-.03.02-.05.02-.07 0l-.6-.71c-.04-.05-.03-.1.01-.13l.59-.52c.01-.01.02-.03 0-.04l-.02-.05h-.04l-.61.54c-.04.03-.08.03-.1-.01l-.11-.14c-.04-.06-.04-.1.02-.15l1.38-1.21c.03-.04.07-.04.1 0 .17.13.28.3.36.5.02.05.01.09-.01.13-.16.25-.35.4-.58.43a.1.1 0 0 0-.09.07c-.04.17-.18.33-.42.5l-.19.14v.03l.03.03 1.4-1.1c.05-.03.09-.02.12.02l.12.13c.04.06.04.1-.02.15l-1.37 1.06v.03h.03l1.47-1c.04-.03.07-.02.1.02l.18.28c.03.05.03.08-.01.12l-.74.65v.03h.03l.8-.57c.02-.02.04-.01.06.01l.12.16c.01.02 0 .04-.02.06l-1.17.8v.01c0 .02.01.02.02.02l1.13-.67c.08-.05.14-.03.2.06l.03.07c.04.07.03.13-.04.17l-.56.34v.02l.03.04h.04l.57-.33c.03-.02.06-.01.09.02l.1.17c.03.04.03.08-.02.1l-1.64.97c-.04.02-.08.01-.1-.03l-.1-.16c-.03-.06-.02-.1.04-.14l.73-.42c.01 0 .02-.01 0-.02l-.02-.05c-.01-.01-.03-.02-.05 0l-.64.38c-.08.04-.14.03-.2-.05l-.25-.4c-.06-.08-.05-.16.03-.23l.87-.77c.11-.1.1-.1-.01-.02ZM22.05 16.32c.1 0 .17-.08.17-.18 0-.1-.08-.18-.17-.18-.1 0-.18.08-.18.18 0 .1.08.18.18.18Z" fill="#F0F3FA"/><path d="M37.06 16.48c.12-.1.2-.2.18-.23-.02-.02-.13.05-.25.15-.12.1-.2.2-.18.23.02.02.13-.04.25-.15Z" fill="#2122A3"/><path d="M38.25 16.5c-.03.07-.08.11-.16.13-.06 0-.09-.01-.1-.06-.01-.03 0-.08.02-.16.02-.07.05-.12.07-.13.04-.04.08-.03.12 0 .05.07.07.14.05.21Z" fill="#F0F3FA"/><path d="M22.26 26.19a6.56 6.56 0 0 0-.05.7.07.07 0 0 1-.04.02c-.03 0-.05 0-.06-.04a.59.59 0 0 1-.03-.2c.02-4.03.02-6.77 0-8.25 0-.2.04-.36.12-.46a2.42 2.42 0 0 1 2.3-1l.02.04.01.04h-.01a2.43 2.43 0 0 0-2.16.87.5.5 0 0 0-.12.34c0 2.61 0 5.26.02 7.94Z" fill="#1A1515"/><path d="m18.86 17.63.73.51a.1.1 0 0 1 .05.11c0 .04-.02.08-.05.11a.27.27 0 0 1-.08.08c-.04.03-.08.03-.12 0a435.6 435.6 0 0 1-1.47-1.02.1.1 0 0 1-.04-.12c0-.03.02-.07.04-.1a.26.26 0 0 1 .08-.08.1.1 0 0 1 .12 0c.33.23.57.4.74.5Z" fill="#F0F3FA"/><path d="M24.49 17.16c.01 0 .02 0 .02.02v.01c0 .1-.04.19-.12.26a.42.42 0 0 1-.3.1h-.03a.42.42 0 0 1-.29-.1.34.34 0 0 1-.12-.26c0-.02 0-.03.02-.03h.82Z" fill="#1A1515"/><path d="M20.06 17.5a1.84 1.84 0 0 1-.17-.19c-.14-.18-.12-.17.08.02l.12.14v.03h-.03Z" fill="#2122A3"/><path d="m26.35 18.34.9.63c-.37.48-.86 1.02-1.47 1.62-.29.28-.58.44-.88.5l-1.28-3.52c-.04-.1-.02-.1.06-.04.33.27.64.24.93-.11a.13.13 0 0 0 .03-.1v-.04c.03-.03.05-.03.07-.01l1.64 1.07Z" fill="#FBBB18"/><path d="M17.41 18.18c-.04-.02-.05-.05-.02-.1l.17-.29c.06-.1.14-.15.26-.18.11-.02.22 0 .33.07l.97.6c.1.06.18.15.21.26.04.12.03.22-.03.32l-.17.3c-.03.03-.06.04-.1.02l-1.62-1Z" fill="#F0F3FA"/><path d="m19 18.63-1.13-.71a.05.05 0 0 0-.07.02c-.02.03-.02.06 0 .07l1.13.72c.03.01.06 0 .07-.02a.05.05 0 0 0 0-.08Z" fill="#2122A3"/><path d="m19.95 18.42-.08-.06a.12.12 0 0 0-.17.02l-.05.07a.13.13 0 0 0 .02.18l.08.06c.05.04.13.03.17-.02l.05-.07a.13.13 0 0 0-.02-.18ZM16.99 19.01c0 .06.02.09.05.1a14.22 14.22 0 0 0 .8.22 30.62 30.62 0 0 0-.8-.35.09.09 0 0 0-.05.03c0-.1.02-.18.07-.27.02-.05.06-.07.11-.04l1.66.79c.06.03.08.07.06.12l-.1.22c-.02.05-.06.06-.11.05l-1.04-.27c-.05-.02-.05-.01 0 0l.99.48c.03.02.04.05.03.09l-.2.42c-.02.04-.05.05-.1.04l-.36-.1c-.08-.02-.11.01-.11.1 0 .02 0 .04.02.05l.13.13c.1.03.18.06.24.1.04.02.05.06.04.1l-.25.99c-.01.04-.04.06-.08.05l-1.83-.48c-.05-.02-.07-.05-.05-.1l.03-.14c.02-.08.07-.1.14-.09l.56.15c.02 0 .04 0 .04-.03l.02-.04c0-.02 0-.03-.02-.03l-.56-.15c-.08-.02-.11-.08-.09-.16l.03-.1c.02-.08.07-.11.14-.1l1.51.4c.23.07.24.04.03-.07l-1.43-.75c-.04-.02-.05-.05-.04-.1l.06-.26c.02-.05.05-.08.1-.06l1.6.32v-.04c0-.01 0-.02-.02-.02l-1.41-.66c-.05-.02-.06-.05-.05-.1.05-.16.13-.31.24-.44Z" fill="#F0F3FA"/><path d="M24.83 21.23c.02 0 .05-.05.07-.15.3-.05.6-.21.88-.49.61-.6 1.1-1.14 1.46-1.62l1.99 1.27c.04.02.04.05.02.1a19.4 19.4 0 0 1-3.1 3.76c-.03.03-.05.02-.08-.02-.08-.15-.17-.4-.27-.73-.06-.2-.11-.35-.15-.43-.2-.52-.38-1-.53-1.45-.04-.12-.14-.2-.3-.24Z" fill="#C3A59C"/><path d="M16.99 19.01a.09.09 0 0 1 .06-.03h.06a30.6 30.6 0 0 1 .73.37c-.24-.06-.5-.14-.8-.24-.03-.01-.05-.04-.05-.1Z" fill="#2122A3"/><path d="M38.61 19.44c.19 0 .4-.08.62-.2.07-.04.13-.03.16.05l.18.43c.03.06.03.11 0 .17a.22.22 0 0 1-.11.13l-1.39.62a.26.26 0 0 1-.21 0 .27.27 0 0 1-.15-.15l-.17-.4c-.05-.1-.02-.18.1-.2.28-.07.56-.2.84-.41a.24.24 0 0 1 .13-.04ZM16.21 19.66c.03.05.02.1-.03.16a.21.21 0 0 1-.13.05c-.1.01-.15 0-.17-.04-.02-.03 0-.09.07-.16a.2.2 0 0 1 .12-.07c.07 0 .12.01.14.06Z" fill="#F0F3FA"/><path d="M39.02 19.86c.14-.06.24-.14.23-.18-.02-.03-.15-.01-.29.05-.14.07-.24.15-.22.18.01.04.14.01.28-.05Z" fill="#2122A3"/><path d="M16.28 19.87h.14c.08 0 .09.03.02.08-.13.11-.18.22-.15.32.04.12 0 .15-.1.08-.16-.1-.19-.23-.08-.4.04-.05.1-.08.17-.08Z" fill="#F0F3FA"/><path d="M38.3 20.17c.2-.09.35-.18.33-.22-.01-.04-.18 0-.38.07-.2.09-.34.18-.33.22.02.04.19 0 .39-.07Z" fill="#2122A3"/><path d="M39.94 20.57c.02.05.05.06.08 0l.02-.03c.03-.04.02-.08-.02-.1a.62.62 0 0 1-.14-.2c-.02-.05 0-.07.05-.06.16.03.27.09.33.19.03.04.04.09.01.14-.06.12-.14.2-.25.2a.1.1 0 0 0-.09.08c-.04.12-.1.2-.15.23-.32.15-.78.3-1.4.45-.25.06-.41-.04-.48-.29l-.01-.01c-.08-.26.01-.43.26-.51.5-.18.92-.3 1.23-.4.13-.04.23-.03.31.01.11.06.2.16.25.3Z" fill="#F0F3FA"/><path d="M17.63 20.54c-.02.04-.05.05-.11.02-.39-.16-.57-.25-.56-.28 0-.03.21.03.6.18.06.02.08.05.07.08ZM39.56 20.6l-1.32.4a.06.06 0 0 0-.04.08v.01c.02.03.05.05.08.04l1.31-.41c.03-.01.05-.04.04-.07v-.02a.06.06 0 0 0-.07-.04Z" fill="#2122A3"/><path d="M31.6 23.38c-.4.57-.94.85-1.63.84-.68 0-1.23-.27-1.65-.8-.02-.09 0-.17.06-.25.08-.09.13-.15.14-.18.44-.8.9-1.55 1.4-2.27a.07.07 0 0 1 .06-.03c.03 0 .05.01.06.03l1.56 2.66Z" fill="#029ED0"/><path d="M17.64 21.61c.25.06.45.08.46.05 0-.04-.19-.11-.43-.17-.25-.06-.46-.08-.47-.05 0 .04.2.11.44.17Z" fill="#2122A3"/><path d="M39.92 22.29c-.03-.06-.08-.08-.14-.07l-1.4.34c-.08.02-.13 0-.15-.1l-.04-.14c-.01-.07.01-.12.09-.13l1.48-.28a.1.1 0 0 0 .1-.09.64.64 0 0 1 .03-.11c.02-.06.07-.09.13-.09.06.01.1.05.12.1l.13.61c.01.04 0 .07-.04.09-.12.06-.23.02-.31-.13ZM17.34 22.38l.51.09c.08.01.12.06.12.13v.07c0 .05-.01.08-.04.12a.14.14 0 0 1-.13.03l-1.7-.3c-.1-.01-.15-.07-.13-.18l.06-.4c.03-.14.1-.2.24-.2h.03c.28.02.48.05.6.1.2.08.32.22.33.42 0 .07.04.1.1.12Z" fill="#F0F3FA"/><path d="M16.58 22.26c.17.02.31 0 .32-.03 0-.04-.13-.09-.3-.1-.18-.02-.32 0-.32.03 0 .04.13.09.3.1Z" fill="#2122A3"/><path d="M29.96 23.8c.34 0 .62-.29.62-.64a.63.63 0 0 0-.62-.63.63.63 0 0 0-.62.63c0 .35.28.63.62.63Z" fill="#1A1515"/><path d="m38.73 23.56 1.53-.06c.08 0 .12.03.13.11l.01.14c.01.07-.02.1-.09.11l-1.88.08c-.03 0-.05-.01-.05-.05l-.03-.62c0-.04.02-.07.06-.07l.83-.09c.01 0 .02 0 .02-.02l.03-.06c0-.01 0-.02-.02-.02l-.85.1c-.08 0-.12-.03-.12-.1l-.02-.15c0-.07.02-.1.09-.11l1.87-.2c.03 0 .05.01.05.05l.08.72c0 .03-.01.04-.03.05l-1.61.17c-.22.02-.22.03 0 .02ZM28.22 23.4l-.16.4c-.03.05-.06.07-.09.08-.04.02-.07 0-.07-.05-.02-.32.02-.64.12-.96 0-.02.02-.04.04-.04s.04 0 .05.03c.09.14.13.32.11.54Z" fill="#F0F3FA"/><path d="m39.91 23.07-.23-.01c-.03 0-.05-.02-.06-.04-.01-.03 0-.05.03-.05a11.1 11.1 0 0 0 .52-.02c.03 0 .04.02.03.05 0 .02-.03.04-.06.04-.07.02-.15.03-.23.03Z" fill="#2122A3"/><path d="m17.32 24.1-.02-.02-.04-.02c-.36 0-.71 0-1.07-.03-.27-.02-.4-.16-.4-.43v-.02c-.02-.28.11-.42.4-.42.46 0 .92.02 1.38.08.12.02.21.06.26.13.04.06.06.16.06.3 0 .2-.07.32-.2.37a.3.3 0 0 1-.14.02h-.08c-.02 0-.03 0-.02.03.01.02.03.03.05.03.32.04.43.23.35.58-.03.13-.11.2-.24.2l-.33.03c-.56.06-.96.06-1.2.02a.35.35 0 0 1-.26-.2.43.43 0 0 1-.03-.33c.07-.2.27-.3.62-.28.07 0 .1.04.1.12v.15c0 .07-.02.1-.09.1h-.28c-.05 0-.07.02-.04.07l.02.04.03.01 1.3-.03h.04l.05-.06c.03-.04.02-.06-.02-.06h-.38c-.05 0-.07-.02-.08-.07-.02-.1 0-.2.06-.28.03-.03.06-.04.1-.03h.1Z" fill="#F0F3FA"/><path d="M28.32 23.42c.42.53.97.8 1.65.8.69.01 1.23-.27 1.63-.84.15.2.24.37.25.48A4.1 4.1 0 0 0 30.33 27l-.07 2.61-.6.02v-.69c.01-1.3-.05-2.24-.18-2.82-.22-.95-.7-1.7-1.43-2.27v-.04l.17-.41.1.02Z" fill="#1A1515"/><path d="m17.52 23.6-1.37-.08a.06.06 0 0 0-.07.05c0 .04.03.07.06.07l1.37.08c.03 0 .06-.03.06-.06a.06.06 0 0 0-.05-.07Z" fill="#2122A3"/><path d="m38.1 23.59-.1.01c-.05.01-.1.07-.09.13l.02.11c0 .06.06.1.12.1l.1-.02c.06 0 .1-.06.1-.12l-.02-.11c0-.06-.06-.1-.12-.1Z" fill="#F0F3FA"/><path d="M29.66 29.63a2.97 2.97 0 0 1-2.48-2.16c-.3-.92-.02-2.13.87-3.62a3.87 3.87 0 0 1 1.43 2.27c.13.58.2 1.52.18 2.82v.69ZM31.85 23.86c.42.74.7 1.35.85 1.84a2.94 2.94 0 0 1-.7 3.05c-.47.51-1.05.8-1.74.86l.07-2.61a4.1 4.1 0 0 1 1.52-3.14Z" fill="#029ED0"/><path d="M39.14 24.79c-.12 0-.13.02 0 .05.26.06.63.12 1.1.16.09 0 .14.06.14.16v.05c.01.1-.04.14-.14.13l-1.8-.32c-.04 0-.05-.02-.05-.06l-.02-.33c0-.06.03-.1.1-.1l1.83-.08c.07 0 .11.03.11.1v.05c.01.11-.04.17-.15.17l-1.12.02ZM38.57 25.72c0 .07.53.17 1.63.3.05 0 .07.03.08.08a.7.7 0 0 1-.03.25c-.01.04-.05.07-.1.06l-1.58-.25c-.24-.05-.35-.2-.31-.48.04-.27.18-.4.43-.37l1.58.2c.06 0 .08.04.08.09 0 .08-.01.16-.04.24-.01.05-.05.07-.1.06-1.08-.18-1.63-.24-1.64-.18ZM16.48 25.92a1.3 1.3 0 0 0-.47-.02c-.05.01-.08 0-.1-.05a.61.61 0 0 1-.05-.21c0-.06.03-.08.08-.07.72.12 1.35.13 1.9.02.05-.02.08 0 .09.06l.03.22c0 .05-.02.09-.08.1l-.18.02c-.35.05-.62.11-.81.19l-.8.3c-.08.03-.11 0-.12-.08v-.17c0-.07.02-.1.08-.12l.43-.12c.1-.02.1-.05 0-.07ZM40.54 25.77l-.02-.05c-.03-.08-.01-.1.07-.08.06.02.13.08.19.16.03.05.03.08-.01.12-.06.05-.09.16-.1.33 0 .11-.05.13-.13.04-.1-.1-.1-.24 0-.4a.14.14 0 0 0 0-.12ZM39.36 26.68l-1.13-.24c-.06-.01-.08-.05-.06-.11l.05-.13c.02-.06.06-.08.12-.07l1.8.48c.05.01.06.04.05.08l-.08.3c0 .04-.03.05-.07.05l-.82-.08c-.13-.01-.13 0 0 .04.26.1.52.16.78.2.03 0 .04.02.04.04l-.02.22c0 .02-.02.03-.04.02l-1.5-.35c-.01 0-.02 0-.02.02l.03.02 1.31.44c.04.02.07.05.1.11.05.19 0 .37-.14.55a.16.16 0 0 1-.1.06c-.16.02-.32 0-.49-.07-.08-.03-.11-.1-.1-.19l.04-.1c.02-.12.08-.14.17-.07.09.06.15.09.2.1.14.02.15-.01.04-.1a1.4 1.4 0 0 0-.54-.2c-.05 0-.08.01-.1.07a.72.72 0 0 1-.13.32c-.03.03-.06.04-.1.02l-.77-.3c-.05-.02-.06-.05-.04-.09l.04-.09c.03-.04.03-.1.02-.15-.05-.2.05-.32.3-.35.03 0 .04-.01.04-.03 0-.02-.01-.03-.04-.04h-.1c-.05-.01-.07-.04-.06-.08l.07-.28c.02-.05.05-.07.1-.07l1.14.07c.07 0 .07 0 0-.02ZM16.39 26.76c.03.06.07.07.13.06l1.4-.4c.08-.02.13.01.15.1l.04.14c.02.07 0 .12-.08.14l-1.47.33a.1.1 0 0 0-.09.1c0 .04-.02.08-.03.11-.02.06-.06.09-.13.09-.06 0-.1-.04-.12-.1l-.16-.6c0-.04 0-.07.04-.09.12-.07.23-.03.32.12Z" fill="#F0F3FA"/><path d="M21.74 26.93c.41.19.7.32.83.4.58.33 1.2.47 1.85.43a5.6 5.6 0 0 0 1.85-.51c.2-.1.31-.02.34.2.02.08.05.2.11.34.02.04.01.07-.03.1a5.9 5.9 0 0 1-2.72.66c-.4 0-.84-.11-1.3-.34-.4-.2-.81-.37-1.23-.51a2.6 2.6 0 0 0-.57-.1c-.42-.02-.84.03-1.27.14-.1-.25-.19-.5-.26-.77.8-.25 1.6-.27 2.4-.04ZM36.8 26.84c-.07.26-.15.5-.24.75a4.59 4.59 0 0 0-1.77.26c-.47.13-.94.28-1.4.46-.05.03-.16.04-.33.04-.06 0-.08-.03-.05-.08l.33-.72a.17.17 0 0 1 .1-.1l.98-.32c.8-.32 1.59-.42 2.38-.29Z" fill="#029ED0"/><path d="M17.44 28.05a.53.53 0 0 1-.1-.27c-.01-.07.02-.13.08-.15l.78-.28c.07-.02.1 0 .08.08-.01.08.04.18.15.3.07.06.09.14.07.23a.25.25 0 0 1-.16.2l-1.3.48c-.34.13-.55.02-.61-.33-.03-.17.03-.3.2-.37l.31-.14c.06-.03.1-.01.12.04l.07.17c.02.04.01.07-.03.09l-.33.15c-.02 0-.03.02-.02.05 0 .02.02.03.04.04h.04l.58-.2c.05-.02.06-.05.03-.1Z" fill="#F0F3FA"/><path d="M38.4 27.63c.14.05.26.06.27.03.01-.04-.1-.1-.23-.14-.15-.05-.27-.06-.28-.03 0 .03.1.1.24.14Z" fill="#2122A3"/><path d="M36.56 27.6c-.05.13-.1.27-.17.41-.5-.06-.98-.04-1.47.05-.1 0-.15-.06-.13-.2.56-.2 1.15-.3 1.77-.27ZM21.44 27.7c-.01.18-.08.3-.2.37-.49-.11-1-.13-1.53-.06a9.56 9.56 0 0 1-.11-.27c.43-.11.85-.16 1.27-.14.2.01.38.05.57.1Z" fill="#F0F3FA"/><path d="M17.93 27.95c.13-.06.22-.13.2-.16 0-.02-.12 0-.24.06-.13.06-.22.13-.2.15 0 .03.12 0 .24-.05Z" fill="#2122A3"/><path d="M21.24 28.07c.36.12.71.27 1.05.43.5.25.84.39 1.05.43.5.09 1.02.05 1.58-.12.52-.16 1-.32 1.42-.5.37-.14.65 0 .85.42.05.1.02.18-.08.21l-.44.12c-.27.06-.46.12-.57.16-.84.34-1.57.51-2.18.52-.75.01-1.46-.2-2.12-.64-.2-.14-.54-.22-1-.26a2.13 2.13 0 0 0-.72-.05 9.25 9.25 0 0 1-.37-.78 4.26 4.26 0 0 1 1.53.06ZM36.4 28.01c-.12.27-.25.54-.39.8h-.66c-.67.16-1.44.4-2.33.7-.34.11-.72.15-1.13.1-.05 0-.06-.01-.02-.05l.88-.77a.18.18 0 0 1 .06-.03l2.11-.7c.49-.1.98-.1 1.47-.05Z" fill="#029ED0"/><path d="M17.72 29.15c.27-.1.58-.24.95-.44.07-.03.12-.02.15.05l.04.1c.02.06.01.1-.04.12l-1.7.76c-.02.01-.05 0-.07-.03l-.19-.3c-.03-.03-.02-.07.02-.1l.83-.52-.02-.03h-.02l-.78.37c-.06.03-.1.02-.13-.03l-.04-.05c-.05-.07-.04-.12.03-.15l1.68-.75c.05-.02.08 0 .1.03l.14.2c.04.06.03.11-.03.15l-.93.59c-.1.05-.09.06.01.03ZM39.14 29.02c.12-.13.24-.15.34-.06.03.03.04.06.02.1l-.27.55c-.03.06-.08.08-.14.07-.06 0-.1-.05-.11-.11v-.12a.1.1 0 0 0-.07-.1l-1.39-.63c-.06-.03-.08-.08-.05-.15l.07-.13c.04-.08.1-.1.17-.06l1.29.66c.06.03.1.02.14-.02ZM20.8 28.84c.04.15 0 .26-.1.34l-.38.03a9.63 9.63 0 0 1-.24-.42c.26-.02.5 0 .73.05ZM36.01 28.8l-.22.4-.35-.04-.1-.34.67-.01ZM37.04 29.84c.49.3.96.6 1.43.94.07.05.08.12.03.2l-.04.07c-.06.08-.12.1-.2.05L37 30.24c-.04-.02-.06-.02-.07.02l-.02.05v.02l1.37.92c.03.02.04.05.01.08l-.15.21c-.02.03-.05.04-.08.02l-1.38-.93c-.14-.1-.18-.22-.12-.38a.84.84 0 0 1 .36-.44.1.1 0 0 0 .05-.1c0-.1.02-.17.06-.21.03-.04.07-.05.12-.02.11.07.2.11.27.14.05.02.1.02.13 0a.13.13 0 0 0 .07-.06c.02-.06.01-.1-.04-.13l-.26-.18c-.09-.06-.1-.12-.05-.21l.02-.05a.1.1 0 0 1 .07-.08.1.1 0 0 1 .1.02l1.49 1.13c.03.03.04.07.03.12a.7.7 0 0 1-.15.26.11.11 0 0 1-.12.02l-1.63-.64-.04-.01c-.01 0-.01.02.01.03ZM17.2 30.37l-.02.04c-.02.04 0 .08.03.1.08.04.14.1.18.16.04.04.03.06-.03.07-.16 0-.29-.03-.37-.12a.13.13 0 0 1-.03-.13c.03-.14.1-.22.2-.26a.11.11 0 0 0 .07-.1c.02-.12.06-.2.11-.24.28-.21.7-.46 1.28-.73.23-.11.4-.05.53.18l.01.01c.13.23.07.42-.16.55-.46.28-.83.5-1.12.65-.12.06-.22.08-.31.05a.55.55 0 0 1-.3-.24c-.03-.05-.06-.05-.08.01Z" fill="#F0F3FA"/><path d="M20.7 29.18c.48.18.96.38 1.43.6.38.19.68.3.91.34.7.12 1.59-.04 2.64-.5.28-.1.9-.24 1.88-.38.05 0 .09.01.12.05.26.25.56.45.92.58.19.07.18.1-.02.1a7.1 7.1 0 0 0-2.75.44c-.72.27-1.29.43-1.7.49-.58.08-1.14.04-1.68-.13a13.2 13.2 0 0 1-.7-.34c-.24-.13-.49-.2-.74-.23a9.24 9.24 0 0 1-.7-1l.39-.02ZM35.45 29.16l.34.04a9 9 0 0 1-.48.73l-.56.12c-.25.05-.61.16-1.08.34l-.45.16a3.72 3.72 0 0 1-2.93-.08 5.75 5.75 0 0 0-.63-.28v-.04c0-.01 0-.02.02-.02l.3.01c.24.03.42.03.55 0 .34-.1.66-.13.96-.11.38.01.65 0 .83-.05l.83-.2a8.1 8.1 0 0 1 2.3-.62Z" fill="#029ED0"/><path d="m18.8 29.45-1.2.69a.06.06 0 0 0-.02.08c.02.03.05.04.08.03l1.2-.7a.06.06 0 0 0 .02-.07.06.06 0 0 0-.09-.03ZM38.46 30.06c-.01.03-.2-.05-.56-.26-.06-.03-.07-.06-.05-.1.01-.03.05-.03.1 0 .36.22.53.34.51.36Z" fill="#2122A3"/><path d="M35.72 29.8c.01.08.05.13.1.14a9.51 9.51 0 0 1-9.1 4.02 9.49 9.49 0 0 1-6.4-3.96c.06 0 .1-.05.11-.14l.37.46.38.47a9.2 9.2 0 0 0 14.22-.6l.32-.4Z" fill="#AAAE91"/><path d="M18.05 31.05c-.02.02-.02.03.01.03l.07.01h.03l1.13-.76.01-.03v-.06c0-.05-.02-.06-.05-.03l-.26.17c-.08.06-.15.05-.2-.03l-.06-.07c-.05-.07-.04-.12.03-.16l.47-.28a.11.11 0 0 1 .1 0c.17.07.27.19.31.35.04.18-.02.32-.18.43-.6.41-.98.67-1.14.76-.17.1-.32.06-.47-.12-.2-.28-.1-.52.3-.73.06-.03.1-.02.14.04l.1.12c.03.04.02.08-.01.1l-.33.26ZM39.23 30.26l.16-.02c.06.03.07.06.03.1-.05.07-.1.11-.15.12-.05.01-.11 0-.2-.05-.04-.02-.04-.06 0-.1a.5.5 0 0 1 .16-.05ZM28.4 33.62h-.73l.06-2.31c0-.1.05-.15.15-.14l.38.04c.08 0 .12.05.12.14l.02 2.27Z" fill="#F0F3FA"/><path d="m36.11 32.23.6.06c.05 0 .06.04.02.08l-.13.15a.23.23 0 0 1-.27.07c-.27-.1-.5.1-.68.59a.2.2 0 0 1-.14.13l-.05.01c-.06.02-.08 0-.06-.06l.12-.5c.02-.05 0-.09-.04-.11a1.63 1.63 0 0 1-.32-.23c-.1-.1-.09-.15.05-.15h.38a.1.1 0 0 0 .1-.06l.22-.48a.05.05 0 0 1 .05-.03c.02 0 .04.02.04.04.05.17.06.3.04.4 0 .06.02.09.07.1ZM20.42 33.2c.02-.12-.02-.25-.14-.4-.14-.16-.33-.19-.57-.08l-.27-.16c-.04-.03-.06-.06-.05-.1 0-.06.03-.09.09-.09l.54-.02c.06 0 .09-.03.08-.1-.01-.17 0-.3.03-.39.05-.12.1-.12.14 0l.18.41c.02.05.05.07.09.09.09.03.24.03.45.02.15-.01.16.03.05.12l-.38.3c-.05.03-.06.09-.04.15l.19.44c.01.03 0 .05-.02.08-.02.02-.05.02-.08.01-.16-.07-.26-.17-.3-.29Z" fill="#FBBB18"/><path d="M36.15 33.06a.41.41 0 0 0-.1-.3.1.1 0 0 1-.03-.07v-.05c.13-.03.21 0 .27.1.08.17.13.34.15.53 0 .08-.03.1-.1.04l-.11-.09a.19.19 0 0 1-.08-.16Z" fill="#FBBB18"/><path d="M20.42 33.2c-.12-.07-.26-.06-.42.02a.3.3 0 0 1 .04-.3.06.06 0 0 0 .01-.08.06.06 0 0 0-.05-.04c-.09 0-.15.03-.18.1a.27.27 0 0 0-.1-.18c.23-.1.42-.08.56.08.12.15.16.28.14.4Z" fill="#1A1515"/><path d="M20 33.22c-.06.11-.13.18-.22.2-.05.03-.07 0-.06-.05l.1-.47c.03-.07.1-.1.18-.1.02 0 .04.02.05.04.01.03 0 .05 0 .07a.3.3 0 0 0-.05.3ZM35.88 32.91c0 .05.02.1.06.1.04 0 .07-.02.08-.07 0-.05-.02-.1-.05-.1-.04 0-.08.03-.09.07Z" fill="#FBBB18"/><path d="m37.58 33.28 2.6 4.64c.04.05.02.07-.04.07H16.2c-.1 0-.12-.04-.08-.13l2.39-4.48.77.73a12.68 12.68 0 0 0 17.85-.4c.12-.13.27-.28.45-.43Z" fill="#9A9B9D"/><path d="m32.7 34.86.11.07c.05.02.08.05.1.1l.12.5c0 .02 0 .04-.02.05-.01.01-.03.02-.05 0a.58.58 0 0 1-.23-.34.63.63 0 0 0-.15-.28c-.04-.03-.07-.03-.1 0l-.16.22c-.1.13-.08.15.06.08.02 0 .05-.04.1-.1.02-.02.04-.02.07.01l.02.03v.03l-.47.32c-.1.07-.14.04-.1-.08l.1-.45c.02-.06 0-.1-.05-.14l-.29-.2c-.17-.1-.15-.16.05-.16h.32c.13 0 .2-.06.22-.18.01-.1.06-.23.14-.38.03-.06.06-.06.08.01.05.13.07.28.07.43 0 .05.03.08.08.09l.58.05c.02 0 .03.02.04.04v.05a.6.6 0 0 1-.33.21c-.02 0-.07 0-.13-.02a.71.71 0 0 0-.15-.02c-.07 0-.08.02-.03.06ZM23.5 34.58a.1.1 0 0 0 .1-.06.1.1 0 0 0 0-.1.37.37 0 0 1 .05-.36c.04-.06.08-.06.1.01l.19.43c.02.04.05.07.1.08.13.04.27.04.43.02.13-.02.15.02.06.12-.07.07-.2.18-.39.3-.05.05-.06.1-.04.15l.2.47c.01.03.01.05-.01.07a.06.06 0 0 1-.07.02.5.5 0 0 1-.28-.33c-.1-.36-.31-.52-.66-.48a.38.38 0 0 1-.29-.08l-.14-.1c-.02-.03-.03-.05-.02-.09 0-.03.03-.05.06-.05l.61-.02Z" fill="#FBBB18"/><path d="M23.6 35.13c-.08.1-.12.16-.12.22 0 .05.02.06.06.02.04-.05.1-.07.17-.07.01 0 .02 0 .03.02l.02.04c.01.03 0 .05-.03.04-.12-.01-.27.09-.48.3-.08.08-.1.06-.08-.05l.14-.53c.02-.07.06-.1.14-.1l.1.01c.03 0 .04.02.05.04v.06ZM27.92 35.51c-.02-.1 0-.22.04-.4 0-.02.02-.03.04-.03s.04 0 .05.03l.22.47a.1.1 0 0 0 .09.06h.38c.13 0 .15.05.05.14-.09.08-.2.16-.32.23-.04.03-.06.06-.04.1l.12.5c.01.06 0 .08-.06.07l-.05-.02a.2.2 0 0 1-.14-.13c-.17-.48-.4-.67-.67-.57a.23.23 0 0 1-.26-.07l-.13-.15c-.04-.05-.03-.07.03-.08l.58-.06c.05 0 .08-.03.07-.09Z" fill="#FBBB18"/><path d="M27.81 36.42c.04.1-.04.18-.22.25-.07.02-.09 0-.07-.06l.12-.5c.02-.07.06-.09.11-.07l.09.02c.06.02.08.05.05.11l-.07.16a.12.12 0 0 0 0 .1ZM28.01 36.23l.13.12c.06.06.05.08-.04.08a.3.3 0 0 1-.11-.03c-.05-.03-.06-.08-.04-.15.01-.04.04-.04.06-.02Z" fill="#FBBB18"/><path d="M40.2 41.93c0 .05-.03.07-.08.07h-24c-.04 0-.06-.02-.06-.07v-3.42c0-.04.02-.07.07-.07h24c.04 0 .06.03.06.07v3.42Z" fill="#9A9B9D"/><path d="M27.55 39.47a.27.27 0 0 0-.13.1c-.07.08-.05.14.05.18.06.02.18.06.38.1.34.06.59.13.75.2.27.11.44.26.5.45.08.28 0 .52-.23.7-.2.17-.44.26-.75.3-.96.09-1.52-.16-1.67-.77-.01-.04 0-.06.05-.06l.65-.03c.04 0 .07 0 .1.03.05.04.1.11.16.21.02.05.05.08.1.1.27.1.49.1.63-.02.1-.09.13-.19.07-.3a.15.15 0 0 0-.1-.09 3.86 3.86 0 0 1-1.2-.35c-.33-.18-.43-.43-.3-.74.18-.4.71-.55 1.6-.45.4.04.67.24.81.6.02.05 0 .07-.05.07l-.65.03a.15.15 0 0 1-.12-.05.85.85 0 0 0-.3-.23c-.08-.04-.2-.03-.35.02ZM32.6 39.78a.22.22 0 0 0-.13-.13c-.4-.15-.67-.1-.84.12-.15.2-.18.5-.08.86.06.24.24.35.52.35.29 0 .47-.12.56-.33.04-.1.12-.14.23-.11l.49.13c.1.02.13.09.07.19-.15.25-.26.4-.33.43-.42.21-.88.28-1.38.2-.7-.1-1.07-.5-1.11-1.21-.04-.57.23-.96.8-1.15.48-.18.96-.17 1.44.01.24.1.42.24.53.42.03.06.04.1.01.16a.15.15 0 0 1-.13.1l-.55.05c-.04 0-.07 0-.08-.05l-.02-.04ZM19.5 40.73c.02 0 .03 0 .04-.03.2-.57.4-1.13.61-1.66.01-.03.03-.04.06-.04h.84c.03 0 .04.01.03.04l-1.03 2.26a.13.13 0 0 1-.1.08 2.56 2.56 0 0 1-.9 0 .13.13 0 0 1-.1-.07l-1.04-2.26c-.01-.03 0-.04.03-.04h.84c.03 0 .05 0 .06.03a62.43 62.43 0 0 1 .66 1.7ZM24.98 40.96v.36c0 .05-.02.08-.08.08H22.6c-.06 0-.09-.03-.09-.08v-2.24c0-.05.03-.08.09-.08h2.29c.05 0 .08.03.08.08v.34c0 .06-.03.08-.08.08h-1.4c-.04 0-.06.03-.07.07l-.04.22c0 .07.02.1.08.1h1.31c.06 0 .09.03.09.08v.32c0 .05-.03.08-.09.08h-1.28c-.05 0-.08.03-.08.09v.33c0 .06.03.08.08.08h1.42c.06 0 .08.03.08.09ZM37.68 41.12c.22-.22.32-.5.32-.8v-.2c0-.3-.11-.57-.33-.8a1.04 1.04 0 0 0-.77-.32h-.8c-.31 0-.57.12-.78.34a1.1 1.1 0 0 0-.32.8v.2c0 .3.11.57.33.79.21.22.47.33.77.33h.8c.31 0 .57-.12.78-.34Zm-1.25-1.6h.13c.31 0 .57.26.57.58v.24c0 .32-.25.58-.56.59h-.13a.57.57 0 0 1-.57-.58v-.24c0-.32.25-.58.56-.59Z" fill="#2122A3"/></svg>