<!-- by TradingView --><svg width="56" height="56" viewBox="0 0 56 56" xmlns="http://www.w3.org/2000/svg"><path fill="#F0F3FA" d="M0 0h56v56H0z"/><path d="M18.53 19.17h.03v-.02l5.41-4.68.03-.02A393.15 393.15 0 0 1 27.98 11c.04 0 .08.03.12.08l.06.07a7.97 7.97 0 0 1 .8.68 2113.68 2113.68 0 0 1 13.96 12.03c.13.11.1.15-.07.12h-.37l-.23.01h-1.52a334.51 334.51 0 0 1-5.13 0h-2.37c-.05 0-.07-.03-.07-.08v-1.26c0-.05.02-.07.08-.07l.87.04c.07 0 .12-.02.15-.06.02-.04.01-.07-.03-.1A127.7 127.7 0 0 1 28 17.15a1194.64 1194.64 0 0 1-6.2 5.34h-.02c-.06.05-.05.08.02.1.12.02.35.03.66.01h.27c.03 0 .05 0 .07.04l.02.16c-.01.14-.02.53-.02 1.16 0 .03-.02.04-.05.04h-9.7c-.03 0-.04 0-.04-.02 0-.03 0-.05.04-.08l.08-.06.11-.08a103.15 103.15 0 0 1 2.62-2.27.43.43 0 0 1 .09-.07l.06-.05a553.13 553.13 0 0 0 2.54-2.18Z" fill="#009700"/><path fill-rule="evenodd" d="m34.88 26.76-.02-.9c0-.08.01-.08.04-.01l.47.96c.03.09.07.14.11.17l.04.02H36l.01-.02v-1.95c0-.02-.01-.03-.04-.03h-.43c-.03 0-.05.02-.05.05v1c0 .07-.01.07-.04.01l-.46-.97c-.02-.04-.05-.09-.1-.09h-.49l-.02.05v1.9c0 .03.01.05.04.05h.48c.01 0 .02 0 .01-.02v-.06a1.14 1.14 0 0 1-.02-.16ZM20.9 26.3c.02.04.03.04.04 0l.32-1.26c0-.02.02-.03.04-.03h.55c.02 0 .02.03.01.05a9.08 9.08 0 0 0-.36 1.08l-.27.84c0 .02-.02.03-.04.03h-.58c-.02 0-.03-.01-.04-.04l-.58-1.9v-.04l.03-.02h.54c.02 0 .04.01.05.04l.3 1.25Zm6.62-.85c-.1.18-.12.47-.08.88 0 .1.05.18.12.25.08.07.16.07.24 0 .1-.09.13-.19.13-.31 0-.04.02-.06.05-.06h.52c.02 0 .03 0 .05.02l.01.05c-.01.22-.1.4-.26.53a.88.88 0 0 1-.54.2.98.98 0 0 1-.66-.18.78.78 0 0 1-.3-.63c0-.27 0-.47.04-.6a.7.7 0 0 1 .33-.45c.2-.12.44-.16.72-.12.43.06.65.3.66.72 0 .03 0 .04-.04.03H28c-.02 0-.04 0-.05-.03a.77.77 0 0 0-.1-.3c-.05-.04-.14-.05-.28-.03a.05.05 0 0 0-.03.03ZM22.55 25H22l-.01.01V27h.54l.01-.01V25Zm1.56 1.09c0 .1-.01.1-.05.01a12.42 12.42 0 0 0-.5-1.07l-.04-.03h-.46c-.04 0-.06.03-.06.07v1.88c0 .04.01.05.04.05h.47c.01 0 .02 0 .02-.02l-.04-1.1c0-.09.02-.1.05-.02l.53 1.12s0 .02.02.02h.54v-1.97l-.02-.03h-.48l-.02.04v1.05Zm7.19-.51c-.02-.07-.03-.07-.03 0a33.74 33.74 0 0 1 .06 1.31v.09l-.01.02h-.53c-.04 0-.05-.03-.05-.07v-1.91l.01-.02h.83c.02 0 .04.01.04.03l.35 1.16c.01.02.02.02.02 0l.37-1.14c0-.03.03-.05.06-.05h.8c.01 0 .02 0 .02.02v1.95c0 .02-.01.03-.03.03h-.53c-.02 0-.03-.02-.03-.04l.03-1.3c0-.15-.02-.15-.06-.02l-.43 1.32c0 .03-.02.04-.04.04h-.33c-.03 0-.05-.02-.06-.05l-.46-1.37Zm2.18-.58h.5c.01 0 .02 0 .02.02v1.97l-.02.01h-.5l-.02-.01V25l.02-.01Zm-3.18 1.73a.82.82 0 0 0 .21-.6l-.01-.34a.82.82 0 0 0-.25-.57.72.72 0 0 0-.55-.22h-.2a.82.82 0 0 0-.74.85v.36c0 .22.09.41.25.57.15.15.34.23.55.22l.2-.01c.22 0 .4-.1.54-.26Zm-.4-.73c0-.42-.09-.62-.27-.62-.19 0-.28.2-.28.62 0 .41.09.62.27.62.19 0 .28-.2.28-.62Zm-4.4.63c-.03 0-.04.02-.05.06l-.03.26c0 .04-.02.05-.05.04h-.47c-.05.02-.06 0-.05-.05l.58-1.9c0-.03.02-.04.05-.04h.57c.04 0 .07.02.08.07l.6 1.89c.01.02 0 .03-.02.03l-.48.01c-.05 0-.08-.05-.09-.1l-.11-.24c0-.02-.02-.03-.04-.03h-.48Zm.39-.38h-.28c-.04 0-.06-.02-.05-.07l.17-.62c.02-.07.04-.07.06 0 .09.25.14.46.16.6 0 .06-.01.09-.06.09Z" fill="#0B0A09"/><path d="M42.99 28H13l-.01.01v.28l.01.01H43l.01-.01v-.28l-.01-.01Z" fill="#5F5F5F"/><path fill-rule="evenodd" d="M31.06 30.41c.21.1.33.24.37.43.02.15.02.3 0 .45-.02.2-.08.34-.17.42-.11.11-.24.19-.4.25-.09.03-.25.04-.47.04h-1.35c-.03 0-.04-.01-.04-.04V29.1c0-.06.03-.09.1-.09h1.15c.2 0 .35.01.45.03.3.06.5.18.58.36.1.21.12.42.06.63a.52.52 0 0 1-.29.32l-.02.04c0 .01 0 .02.03.03Zm-1-.88c-.04 0-.06.01-.06.04v.55c0 .04.02.05.05.05h.02c.06 0 .12-.02.17-.06a.2.2 0 0 0 .07-.15v-.22a.2.2 0 0 0-.07-.15.25.25 0 0 0-.17-.06h-.01Zm-.03 1.12c-.01 0-.02 0-.02.02l-.01.75c0 .01 0 .02.02.02.12 0 .2-.04.29-.1a.33.33 0 0 0 .12-.25V31c0-.1-.04-.18-.11-.25a.4.4 0 0 0-.28-.1Zm-5.74-.93c0-.02.02-.03.05-.03h1.04l.01-.01v-.6c0-.02 0-.04-.02-.06a.1.1 0 0 0-.07-.02h-1.95c-.04 0-.06.02-.06.05v2.94l.02.01h2.12c.02 0 .04-.01.04-.03v-.64c0-.03-.02-.04-.04-.04h-1.1c-.04 0-.06-.01-.06-.04l-.02-.44c0-.02 0-.03.02-.04h.04l.26.02h.7c.03 0 .05-.01.05-.05v-.44a.49.49 0 0 0-.04-.19l-.04-.02-.85.03c-.06 0-.1-.02-.1-.08a.75.75 0 0 1 0-.32Zm11.6-.14a.3.3 0 0 0-.18.01c-.1.03-.14.14-.14.31v1.17c0 .17.03.28.1.33.1.08.18.07.26-.03.07-.08.1-.16.1-.26s0-.2.02-.29c0-.04.03-.06.09-.06l.76.01c.06 0 .09.03.1.08 0 .13 0 .26-.02.4a.76.76 0 0 1-.14.38c-.17.22-.44.34-.8.36-.34.02-.6 0-.78-.04-.38-.1-.6-.33-.68-.69-.1-.41-.1-.9-.03-1.43.01-.1.04-.19.08-.28.05-.12.11-.2.19-.26.16-.12.3-.2.43-.23a2.16 2.16 0 0 1 1 0c.38.09.6.27.68.55.04.16.05.32.05.49 0 .05-.03.07-.09.07h-.8c-.02 0-.04 0-.05-.02a.06.06 0 0 1-.02-.05.79.79 0 0 0-.09-.49.06.06 0 0 0-.03-.03Zm-15.54 1.27.36-1.76c0-.05.05-.08.11-.08a5 5 0 0 1 .61 0c.18.01.25.1.22.24A57.37 57.37 0 0 1 20.9 32h-1.1c-.03 0-.04-.01-.05-.03L19 29.16a.1.1 0 0 1 .03-.1.14.14 0 0 1 .11-.05h.75c.05 0 .08.02.1.06.04.11.08.21.1.32a11.54 11.54 0 0 1 .26 1.46Zm5.79-1.12c.02 0 .03 0 .03.03v2.2c0 .03.02.04.05.04h.9c.03 0 .04-.01.04-.03v-2.19c0-.04.03-.06.08-.06h.58l.01-.02v-.48c.01-.1-.01-.15-.07-.19-.04-.02-.12-.03-.23-.03a60.36 60.36 0 0 1-1.94.01c-.05 0-.07.02-.07.05v.63c0 .03.02.04.04.04h.58ZM22.92 29h-.84c-.05 0-.08.03-.08.06v2.88c0 .03.03.06.07.06h.84c.04 0 .08-.03.08-.06v-2.87c0-.04-.03-.07-.07-.07Zm9.9 2.43h.46c.03 0 .06.02.06.05l.13.49c0 .02.02.03.05.03h.95c.02 0 .03 0 .02-.02a1.9 1.9 0 0 1-.17-.45c-.05-.25-.13-.54-.24-.9a37.82 37.82 0 0 1-.34-1.29c-.03-.1-.06-.2-.1-.27-.02-.05-.06-.07-.12-.07h-.96c-.04 0-.07.02-.09.05a.66.66 0 0 0-.07.18 91.5 91.5 0 0 1-.7 2.7c-.01.04.01.07.07.07h.8c.07 0 .11-.03.12-.1l.06-.4c0-.05.03-.07.08-.07Zm.32-1.44c-.02-.19-.04-.28-.07-.28-.03 0-.05.1-.06.28l-.04.27-.1.55c0 .02.01.04.04.04h.32c.03 0 .04-.02.04-.04a14.98 14.98 0 0 0-.13-.82Z" fill="#5F5F5F"/><path d="M28 33.01a44951 44951 0 0 0 15 .01c0 .03 0 .05-.02.06-.36.26-.8.62-1.3 1.07a735.91 735.91 0 0 1-5.27 4.56l-8.32 7.25a.13.13 0 0 1-.1.04.13.13 0 0 1-.08-.04 10444.34 10444.34 0 0 0-13.59-11.82c-.5-.44-.94-.8-1.3-1.06-.02-.01-.02-.03-.02-.06.01-.02.02-.02.04-.02h.1l14.86.01Z" fill="#5F5F5F"/></svg>