<!-- by TradingView --><svg width="56" height="56" viewBox="0 0 56 56" xmlns="http://www.w3.org/2000/svg"><path fill="#F0F3FA" d="M0 0h56v56H0z"/><path fill-rule="evenodd" d="M20.55 43.28a16.86 16.86 0 0 0 18.72-2.55 16.82 16.82 0 0 0 4-5.28 16.83 16.83 0 0 0 1.7-6.41c.14-2.25-.16-4.44-.9-6.58a16.82 16.82 0 0 0-3.34-5.73 16.83 16.83 0 0 0-5.28-4.01 16.86 16.86 0 0 0-18.72 2.55 16.82 16.82 0 0 0-4 5.28 16.83 16.83 0 0 0-1.7 6.41c-.14 2.25.16 4.44.9 6.58a16.82 16.82 0 0 0 3.34 5.73 16.83 16.83 0 0 0 5.28 4.01ZM22 41.92a14.69 14.69 0 0 0 11.35-.02 14.67 14.67 0 0 0 8.01-8.04 14.68 14.68 0 0 0-.02-11.34 14.69 14.69 0 0 0-8.04-8.01 14.69 14.69 0 0 0-11.35.02 14.67 14.67 0 0 0-8 8.04 14.68 14.68 0 0 0 .01 11.34 14.69 14.69 0 0 0 8.04 8.01Z" fill="#0F61AB"/><path fill-rule="evenodd" d="M22.8 41.6a14.12 14.12 0 0 0 10.88-.47 14.12 14.12 0 0 0 7.37-8.04 14.12 14.12 0 0 0-.48-10.89 14.12 14.12 0 0 0-8.04-7.36 14.12 14.12 0 0 0-10.89.47 14.12 14.12 0 0 0-7.36 8.04 14.12 14.12 0 0 0 .48 10.89 14.12 14.12 0 0 0 8.03 7.36Zm15.7-11.93c.3-.16.34-.1.14.17l-4.07 5.51a.08.08 0 0 0 0 .1c0 .02.03.04.07.04h4.61c.09 0 .15-.04.2-.1.9-1.44 1.49-2.96 1.77-4.57.37-2.13.3-4.17-.2-6.15a13.92 13.92 0 0 0-8.25-9.32 13.36 13.36 0 0 0-5.8-.96c-2 .1-3.88.61-5.6 1.52a14.02 14.02 0 0 0-6.99 8.5 13.95 13.95 0 0 0 1.43 10.92c.06.08.13.12.22.12h4.37c.03 0 .06-.01.08-.05a.08.08 0 0 0-.01-.09l-4.09-5.62c-.14-.2-.1-.24.11-.13 5.67 3.04 9.24 4.96 10.7 5.78.22.12.47.1.75-.04l10.56-5.63Z" fill="#ED3338"/><path d="M26.62 15.71a.28.28 0 0 1-.07.03c-.06.02-.09 0-.1-.07 0-.08.02-.13.05-.17.03-.03.08-.04.14-.02.06.01.09.05.1.12 0 .03-.01.06-.03.08a.12.12 0 0 1-.09.03ZM29.22 17.17l-.08.07c-.13.11-.2.08-.2-.08-.02-.1.02-.21.11-.35.04-.05.05-.1.05-.16 0-.25.03-.46.1-.64.03-.06.07-.1.13-.13.1-.05.14-.16.12-.32 0-.03 0-.04.03-.05h.05c.04-.01.06 0 .06.04l.07 1.73c0 .06-.04.08-.12.08-.1 0-.17-.06-.2-.16-.03-.08-.07-.09-.12-.03ZM27.54 16.87v-1.04c0-.06.03-.1.08-.1l.07-.01c.04-.01.06 0 .06.05v1.2c0 .15-.07.23-.23.23h-.15c-.18 0-.27-.09-.27-.27v-1.08c0-.05.02-.07.07-.08l.06-.01c.09-.02.13.02.13.1v1.02c0 .03.02.05.05.05h.07c.04 0 .06-.02.06-.06ZM28.68 16.22c.04-.1.05-.2.03-.29 0-.04 0-.07.03-.1a.11.11 0 0 1 .1-.03c.06 0 .1.03.12.06.02.03.02.06 0 .11-.13.31-.21.69-.24 1.13-.01.09-.06.13-.15.13h-.06c-.11 0-.17-.05-.18-.16L28.27 16c-.02-.37.08-.4.3-.12.03.04.04.15.04.32 0 .11.02.12.07.02ZM26.56 17.26c-.12-.05-.18-.15-.18-.27.02-.24-.02-.54-.1-.9a.18.18 0 0 1 .04-.18c.1-.11.26-.13.47-.07.07.03.1.07.08.14-.01.03-.07.06-.18.1-.06.02-.1.06-.1.12 0 .08.06.14.16.19.1.04.12.1.07.2l-.12.14c-.05.06-.04.11.01.16l.19.18c.05.04.04.08 0 .12-.11.07-.15.18-.11.32 0 .05-.01.07-.06.07h-.06c-.02 0-.03-.01-.03-.03v-.17c0-.05-.02-.1-.08-.12ZM25.75 17.2l.09.02c.09.02.12-.02.11-.1l-.13-1.16c0-.07.03-.1.1-.08l.14.04c.06 0 .08.04.09.1l.1 1.17c0 .03-.02.05-.04.06l-.8.22c-.03 0-.05 0-.06-.04l-.24-1.32c0-.04 0-.07.03-.1a.1.1 0 0 1 .1-.02l.05.01c.03 0 .05.03.06.07l.16.88c.03.13.1.22.24.25ZM23.88 17.6a.43.43 0 0 0-.02.13c0 .17.1.25.29.26.04 0 .05.02.05.06v.05c-.07.08-.14.09-.2.02-.1-.1-.2-.17-.3-.22-.06-.03-.1-.08-.11-.14l-.2-1.33v-.1c-.04-.07-.03-.14.02-.21a.12.12 0 0 1 .14-.04c.05.02.08.06.08.11v.15c0 .05.02.1.07.12.1.06.17.17.2.34 0 .06.03.1.06.16.17.22.27.43.31.62.05.22 0 .26-.18.12l-.1-.12c-.05-.06-.09-.05-.11.02ZM31.03 17.63c-.17.06-.34 0-.5-.19-.04-.04-.08-.05-.14-.03l-.13.04c-.23.07-.28 0-.15-.2.22-.34.3-.69.22-1.02-.06-.23 0-.26.15-.08.05.05.15.06.32.02.06-.01.1-.02.13-.01a.1.1 0 0 1 .07.05c.03.05.02.1-.02.13-.21.23-.33.53-.36.9-.01.09.03.14.13.15.12 0 .2-.05.25-.18.17-.46.33-.77.46-.94.26-.33.34-.29.26.12-.08.35-.15.8-.21 1.36 0 .06-.04.09-.1.08a.34.34 0 0 1-.26-.16c-.03-.04-.07-.05-.12-.04ZM24.09 16.54c-.07-.05-.11-.08-.12-.11-.03-.07-.02-.12.03-.13l.48-.15c.03 0 .06 0 .08.03.02.02.02.05 0 .08-.09.2-.06.5.1.94.06.16.1.27.11.34 0 .03 0 .05-.04.06l-.06.03c-.1.03-.16 0-.2-.1l-.27-.86a.26.26 0 0 0-.11-.13ZM32.28 16.7c.1 0 .18.03.26.1.05.05.05.1 0 .13-.3.27-.5.6-.57 1.02-.01.05-.04.07-.1.06L31.8 18c-.07-.01-.1-.06-.08-.13l.27-1.18c.02-.06.05-.08.11-.06.02 0 .04.02.05.03a.2.2 0 0 0 .13.04ZM23.29 18.13c-.09.03-.15.02-.18-.03a11.9 11.9 0 0 1-.65-1.06c-.09-.18-.04-.23.15-.17.03.01.07 0 .13-.02s.1-.05.11-.08c.09-.18.16-.18.22.01.12.38.23.77.32 1.2.01.06-.02.11-.1.15Z" fill="#0F61AB"/><path d="M22.79 17.16c.05.1.11.18.14.17.03-.01.01-.11-.04-.22-.04-.1-.1-.18-.14-.17-.03.01-.01.11.04.22Z" fill="#F0F3FA"/><path d="M33.1 17.16c.03-.08.1-.1.18-.06l.1.05c.1.05.16.14.2.25.02.1 0 .22-.05.32l-.28.55a.45.45 0 0 1-.25.22.37.37 0 0 1-.3-.02l-.11-.05c-.08-.05-.1-.1-.06-.19l.56-1.07ZM20.5 19.04c.07.14.14.25.24.33.04.04.06.08.06.14 0 .06-.02.1-.07.13-.08.06-.16.02-.23-.11a2.6 2.6 0 0 0-.61-.77c-.05-.04-.05-.1-.01-.17l.02-.05a.09.09 0 0 1 .08-.05.1.1 0 0 1 .09.05c.08.11.18.2.29.27.06.04.08.02.06-.05a.5.5 0 0 0-.19-.28.19.19 0 0 1-.08-.13c0-.06.01-.1.05-.14.06-.05.13-.04.18.04.14.2.37.48.7.85 0 .01.02.02.04 0 .02 0 .03-.02.02-.04-.06-.2-.18-.5-.36-.89-.14-.3-.16-.6-.05-.86.02-.07.07-.09.13-.07l.07.01c.06.01.07.05.04.1l-.14.27c-.04.07-.02.12.04.15.26.15.49.4.68.76.04.06.09.08.16.07l.1-.02c.05 0 .06-.03.03-.07a3.14 3.14 0 0 1-.57-.92c-.03-.09 0-.13.1-.12.22.01.38.13.5.36h.03c.03 0 .04-.01.03-.03-.08-.14-.15-.3-.22-.45-.02-.04-.02-.08 0-.11a.1.1 0 0 1 .09-.05c.07 0 .13.03.17.1l.61 1.13c.03.05.02.08-.04.1l-.13.01a.15.15 0 0 1-.16-.06l-.24-.33c-.04-.06-.06-.05-.07.02 0 .09.05.2.16.35.04.05.04.1 0 .14-.2.26-.42.33-.63.2-.04-.02-.07 0-.08.04-.03.18-.15.35-.36.53-.05.04-.08.03-.1-.03-.1-.22-.2-.36-.35-.43-.1-.04-.12-.01-.08.08Z" fill="#0F61AB"/><path d="m33.32 17.44-.07-.03a.05.05 0 0 0-.06.02l-.33.74c-.01.03 0 .05.02.06l.07.03c.02.02.05 0 .06-.02l.33-.74a.05.05 0 0 0-.02-.06Z" fill="#F0F3FA"/><path d="M33.52 18.46c-.04.05-.03.09.03.12l.06.03c.05.03.09.02.12-.03l.4-.74a.2.2 0 0 1 .11-.1l.35-.11c.04-.02.06 0 .07.05l-.02.06c0 .02-.02.03-.03.04a2 2 0 0 0-.65.86.22.22 0 0 1-.11.12c-.21.1-.4.24-.55.4-.01.02-.02.02-.04.01l-.05-.03c-.03-.01-.03-.03 0-.05.17-.14.2-.3.12-.5a.18.18 0 0 1 0-.16l.49-.9c.04-.07.09-.08.16-.03l.06.04c.07.05.08.1.03.17l-.55.75ZM34.72 17.96h.02c.06.05.08.13.06.24a.66.66 0 0 1-.15.31l-.29.34a.64.64 0 0 1-.28.21c-.1.04-.18.03-.24-.02v-.02l.88-1.06ZM34.76 18.62c.09-.06.16-.16.22-.3.03-.09.09-.1.16-.05l.05.04c.06.04.07.09.02.15l-.72.98c-.03.04-.07.05-.12.03a.2.2 0 0 1-.07-.05.15.15 0 0 1-.03-.16c.1-.28.26-.49.49-.64Z" fill="#0F61AB"/><path d="M21.14 18.46c.05.08.11.12.13.1.02-.01 0-.08-.05-.16-.06-.07-.12-.11-.14-.1-.02.02 0 .1.06.16Z" fill="#F0F3FA"/><path d="m34.57 19.47.15-.04c.04-.01.08-.05.11-.11.12-.2.27-.4.48-.59.1-.1.23-.12.36-.07l.11.05c.11.13.12.25.04.36l-.64.82c-.07.1-.15.1-.25.03a1.66 1.66 0 0 1-.38-.4c-.02-.02-.01-.04.02-.05Z" fill="#0F61AB"/><path d="M21.21 28.69h-3.24a9.29 9.29 0 0 1 3-7.3 9.56 9.56 0 0 1 6.23-2.63 9.62 9.62 0 0 1 8.62 4.39 10.28 10.28 0 0 1 1.61 5.22c0 .17-.08.26-.26.26h-3.16a.34.34 0 0 1-.32-.19l-.5-.91a.12.12 0 0 0-.1-.07h-5.56a.25.25 0 0 1-.23-.14l-.2-.34c-.03-.08-.01-.11.07-.11h5.48c.12 0 .15-.06.1-.16l-.4-.72a.29.29 0 0 0-.27-.16H26.5c-.06 0-.1-.03-.11-.09l-.11-.33a.15.15 0 0 0-.13-.1c-.4-.1-.81-.1-1.24-.05-.08.01-.1-.02-.07-.1.17-.4.42-.7.73-.9.01 0 .02-.02 0-.04l-.9-1.66c-.02-.04-.04-.04-.06 0l-3.4 6.13Z" fill="#ED3338"/><path d="m19.97 19.72.26.28c.06.07.05.12-.03.16l-.05.03c-.03.02-.06.01-.09-.01l-.88-.95c-.08-.09-.06-.16.04-.21l.35-.2c.07-.03.14-.02.2.04l.26.28c.04.05.05.1.04.15a.48.48 0 0 1-.1.25c-.05.07-.05.12 0 .18Z" fill="#0F61AB"/><path d="m35.16 19.44-.11.15c-.01.02-.02.02-.03 0l-.04-.02c-.02-.01-.02-.03 0-.04l.41-.57c.05-.06.1-.06.13 0 .03.07.03.14.01.23-.01.08-.1.13-.23.16a.21.21 0 0 0-.14.09ZM28.11 19.54c-.03 0-.04-.01-.04-.04v-.04c0-.13.04-.24.11-.33.07-.1.15-.13.23-.13.1 0 .17.05.23.15.06.1.09.2.08.34v.03c0 .03-.02.05-.05.04l-.56-.02ZM19.6 19.3c.07.1.16.14.21.11.05-.03.04-.14-.03-.23-.06-.1-.16-.14-.2-.1-.05.03-.04.13.02.22Z" fill="#F0F3FA"/><path d="M18.55 19.68c.04-.06.15-.03.32.1.57.4.8.73.71.97a.3.3 0 0 1-.28.21.32.32 0 0 1-.32-.16 1.5 1.5 0 0 0-.25-.28 1.16 1.16 0 0 1-.32-.37l-.18-.46a.17.17 0 0 1 .02-.14c.06-.1.04-.2-.04-.27-.03-.03-.03-.06 0-.1a.09.09 0 0 1 .04-.04c.03 0 .06 0 .09.02.1.06.14.22.1.48-.03.2 0 .22.11.04ZM36.71 19.7c.08.08.08.16 0 .23l-.78.73c-.08.07-.16.07-.24-.01l-.18-.2c-.08-.08-.08-.16 0-.24l.77-.72c.09-.08.17-.08.25 0l.18.2Z" fill="#0F61AB"/><path d="m36.2 19.92.1-.12c.1-.07.13-.05.09.07-.03.07-.08.1-.15.1-.05 0-.06-.02-.03-.05Z" fill="#F0F3FA"/><path d="m37.2 19.8-1.17 1.05a.05.05 0 0 0 0 .07l.1.11c.01.02.04.02.06 0L37.37 20a.05.05 0 0 0 0-.06l-.1-.12a.05.05 0 0 0-.06 0Z" fill="#0F61AB"/><path d="m28.91 19.84-1.05.01a.1.1 0 0 0-.1.1V20c0 .06.05.1.1.1h1.06a.1.1 0 0 0 .1-.12v-.02a.1.1 0 0 0-.1-.11ZM18.95 20.4c.2.17.38.28.4.25.04-.04-.1-.2-.29-.38-.2-.18-.38-.3-.41-.26-.03.04.1.2.3.38ZM35.86 20.24c-.06.09-.08.18-.04.21s.12-.01.19-.1c.06-.09.08-.18.04-.21s-.13.01-.19.1ZM27.47 20.6c-.02 0-.03-.01-.02-.03 0-.16.1-.24.31-.24l1.25.01c.21 0 .31.08.31.23v.02c0 .01 0 .02-.02.02l-1.83-.01Z" fill="#F0F3FA"/><path d="M18.73 21.32c.01.02.03.02.05 0 .02 0 .03-.03.02-.05l-.1-.29c-.06-.16 0-.2.17-.1.1.07.16.18.18.33.02.2-.07.3-.27.33-.14.01-.32-.07-.55-.26-.16-.13-.3-.28-.42-.44a.25.25 0 0 1-.04-.2.24.24 0 0 1 .12-.18c.16-.1.3-.1.42-.04.1.07.13.16.07.28-.03.06-.07.07-.13.03l-.1-.07c-.04-.02-.06-.02-.07.01l-.03.06c-.02.03-.01.06.02.07.22.1.43.28.66.52ZM36.8 21.14c-.1.03-.2.1-.3.23-.05.07-.1.07-.16 0l-.04-.06c-.04-.05-.03-.1.02-.15l.98-.73c.04-.03.08-.03.13 0l.05.07c.03.06.02.11-.02.16-.17.24-.39.4-.65.48ZM37.22 21.07c.1-.03.2-.1.3-.22.05-.07.1-.07.16 0l.04.05c.04.06.03.1-.02.15l-.96.71c-.05.04-.09.04-.13 0a.2.2 0 0 1-.05-.07.15.15 0 0 1 .02-.16c.16-.23.38-.38.64-.46Z" fill="#0F61AB"/><path d="M26.98 21.45h-.01v-.01c0-.13.05-.24.14-.33a.5.5 0 0 1 .36-.14h1.81a.5.5 0 0 1 .36.14c.1.1.14.2.14.33v.01h-2.8Z" fill="#F0F3FA"/><path d="M37.38 21.86c-.12.03-.25.09-.4.18-.06.03-.1.02-.14-.03l-.02-.03c-.03-.04-.02-.08.02-.1l.98-.72c.04-.03.08-.03.12.02l.04.06c.04.06.04.1-.02.15l-.32.23c-.02.01-.02.03-.01.05 0 .03.02.04.05.03.1-.01.21-.07.32-.18.06-.06.13-.07.2-.01l.05.03c.06.05.06.1 0 .14l-1.05.76a.1.1 0 0 1-.11.01.1.1 0 0 1-.07-.08l-.01-.06c-.01-.05 0-.09.05-.11.21-.12.33-.21.36-.28.02-.05 0-.07-.04-.06ZM17.09 22.2l.9.49c.1.05.1.11.05.2l-.05.06c-.05.06-.1.07-.15.02l-.15-.1c-.44-.33-.73-.46-.88-.42-.22.07-.27 0-.14-.2l.58-.89c.06-.09.12-.1.2-.01.24.3.54.56.9.78.08.04.1.1.06.17l-.04.06c-.02.05-.06.06-.11.04l-.97-.53c-.09-.04-.15-.02-.2.06l-.05.1c-.04.08-.02.13.05.17Z" fill="#0F61AB"/><path d="m26.45 22.3.22-.4a.09.09 0 0 1 .08-.06h3.28c.04 0 .06.02.08.05l.22.41c.02.03.02.06 0 .1a.08.08 0 0 1-.08.03h-3.73a.08.08 0 0 1-.07-.04.08.08 0 0 1 0-.09Z" fill="#F0F3FA"/><path d="M38.84 22.58c.08.17.04.3-.12.37l-.83.41c-.17.08-.3.04-.37-.13l-.05-.1c-.09-.17-.04-.29.12-.37l.83-.4c.17-.09.29-.04.37.12l.05.1Z" fill="#0F61AB"/><path d="M38.18 22.96c.25-.12.43-.25.41-.3-.02-.04-.24.02-.49.14-.25.11-.43.24-.41.29.02.04.24-.01.49-.13ZM30.7 22.98l.34.62c.02.03.02.06 0 .1a.09.09 0 0 1-.08.04h-5.14a.09.09 0 0 1-.08-.05.09.09 0 0 1 0-.09l.33-.62a.09.09 0 0 1 .08-.05h4.47c.04 0 .07.02.09.05Z" fill="#F0F3FA"/><path d="M16.6 23.3c-.2.07-.2.13.02.19.1.02.18-.04.27-.17.03-.05.07-.07.12-.05l.49.1c.06.03.1.07.1.14a.85.85 0 0 1-.17.45c-.04.05-.09.07-.15.05h-.04c-.6-.17-.95-.35-1.05-.52-.09-.15-.07-.27.05-.39.12-.11.25-.14.38-.09a.2.2 0 0 1 .13.14c.01.06 0 .1-.06.11l-.08.03ZM39.16 23.75c.02-.02.02-.03 0-.02l-1.04.34a.23.23 0 0 1-.26-.07.22.22 0 0 1-.04-.26c.1-.24.22-.37.36-.37a.3.3 0 0 0 .12-.03l.64-.27c.07-.03.11 0 .13.06.05.2.16.34.32.44.05.03.07.07.05.13-.1.25 0 .45.3.6.01.01.02.02.01.04 0 .02 0 .02-.02.03-.29.02-.62.13-1 .32-.29.14-.5.1-.65-.1-.04-.05-.04-.1 0-.15.17-.23.3-.36.4-.37.26-.05.49-.15.68-.32Z" fill="#0F61AB"/><path d="M38.57 23.7c.28-.12.49-.26.47-.3-.02-.06-.26 0-.54.11-.28.12-.49.25-.47.3.02.05.27 0 .54-.12ZM16.89 23.55a.84.84 0 0 1 .33 0c.04.02.06.04.06.08v.1c0 .07-.03.09-.09.06l-.31-.17c-.02-.01-.03-.02-.02-.04 0-.02.01-.03.03-.03Z" fill="#F0F3FA"/><path d="M16.52 24.36c.26.15.43.26.52.33.03.03.04.07 0 .1-.04.06-.08.07-.14.05l-1.08-.45c-.07-.02-.09-.07-.04-.13l.05-.06c.04-.06.1-.08.16-.05.1.05.24.06.4.05.07 0 .07-.03.02-.08a.56.56 0 0 0-.33-.11c-.07 0-.1-.04-.09-.11 0-.03.02-.06.04-.1.05-.05.1-.06.17-.03l1.05.43c.03.01.05.03.05.06 0 .05-.01.1-.05.14-.03.02-.07.03-.12.03a1.25 1.25 0 0 1-.56-.13l-.04.01c-.04.01-.04.03 0 .05Z" fill="#0F61AB"/><path d="M38.85 24.39c.23-.11.4-.24.39-.28-.02-.05-.23 0-.47.12-.23.1-.4.23-.39.27.02.05.23 0 .47-.11ZM31.46 24.36l.45.82c.03.05.01.08-.05.08h-5.57c-.02 0-.04 0-.05-.02l-.6-.82a.05.05 0 0 1 0-.06.05.05 0 0 1 .05-.03h5.72c.03 0 .04 0 .05.03Z" fill="#F0F3FA"/><path d="M39.28 25.26c.02.02.05.02.09 0 .05-.02.14-.08.27-.18.06-.05.1-.03.13.03a.5.5 0 0 1 .02.18c0 .06-.03.1-.09.1l-.62.11a.92.92 0 0 0-.25.1.7.7 0 0 1-.24.1c-.06 0-.1-.02-.13-.07a.48.48 0 0 1-.04-.22c0-.07.04-.1.1-.09.23.02.37-.04.43-.2.03-.07 0-.1-.07-.07l-.4.13c-.07.03-.11 0-.11-.09v-.08c0-.08.04-.13.12-.15l1.16-.2c.02-.01.03 0 .04.02v.04c0 .03 0 .06-.02.08l-.4.36c-.04.04-.03.07.01.1ZM15.69 24.82a.33.33 0 0 1 .11-.07.3.3 0 0 1 .13 0c.3.06.59.15.86.27.19.08.24.22.16.41v.02c-.09.19-.23.25-.43.18a23.9 23.9 0 0 1-.73-.26c-.14-.05-.23-.14-.26-.26a.22.22 0 0 0-.12-.14l-.12-.07c-.04-.02-.05-.05-.04-.09 0-.05.05-.08.12-.07.04 0 .1.03.17.08.05.04.1.03.15 0Z" fill="#0F61AB"/><path d="M16.2 25.3c.26.07.47.09.5.03.01-.06-.18-.17-.43-.25-.25-.07-.47-.1-.49-.03-.01.05.17.16.43.24Z" fill="#F0F3FA"/><path d="m16.45 26.03-.15-.16c-.03-.02-.03-.05-.02-.08.02-.03.05-.04.08-.04.28.05.44.16.46.35 0 .07-.02.14-.08.2a.35.35 0 0 1-.24.09 1.9 1.9 0 0 1-1.02-.24.28.28 0 0 1-.15-.23.28.28 0 0 1 .1-.26c.1-.08.25-.12.42-.12.07 0 .09.04.06.1-.03.09-.11.15-.23.2-.06 0-.07.04-.05.1.02.02.04.04.06.04.31.05.54.1.67.15.03.01.06 0 .08-.02a.1.1 0 0 0 .02-.05l-.01-.03ZM38.9 25.8c.03-.06.06-.09.1-.1.2-.02.4-.06.6-.12.2-.06.31 0 .35.2l.01.1c.03.17-.04.28-.21.33l-.96.24c-.06.02-.1 0-.14-.06a.74.74 0 0 1-.13-.4c0-.07.03-.1.1-.12l.23-.04c.02 0 .03-.02.05-.04Z" fill="#0F61AB"/><path d="m26.53 25.85.49.91c.03.06.01.08-.05.08h-2.95c-.06 0-.08-.02-.05-.08l.5-.91a.05.05 0 0 1 .04-.03h1.97c.02 0 .03 0 .05.03Z" fill="#ED3338"/><path d="M39.46 26.13a.11.11 0 0 1-.11-.05.11.11 0 0 1 0-.13c.05-.07.11-.12.2-.16a.08.08 0 0 1 .09.01c.02.03.03.05.03.09-.03.16-.1.24-.21.24ZM39.09 26.11l-.15.03c-.06 0-.09-.02-.09-.08V26c0-.06.03-.09.08-.08.12 0 .2.03.21.08.03.06.01.1-.05.11Z" fill="#F0F3FA"/><path d="M16.56 28.15c.07.08.09.17.04.25-.03.06-.08.07-.14.04l-.37-.2a.23.23 0 0 0-.17-.03.6.6 0 0 0-.35.24c-.05.06-.08.05-.1-.01-.03-.09-.02-.2.03-.36a.24.24 0 0 0 0-.16.86.86 0 0 0-.32-.33.18.18 0 0 1-.07-.1v-.1c.04-.03.08-.05.12-.05.4.05.61-.1.64-.44.01-.06.04-.1.1-.13.04 0 .07 0 .12.02.06.02.09.07.1.13.01.35.2.48.58.42.04 0 .08 0 .12.03.04.04.06.08.05.13a6.22 6.22 0 0 1-.33.28c-.07.04-.1.1-.11.17 0 .08.01.14.06.2ZM39.37 26.76c.1 0 .15.04.15.13.02.28.14.43.36.44.11 0 .17.01.19.02.3.06.31.16.05.3-.25.13-.3.35-.15.66a.1.1 0 0 1 0 .08c0 .02-.03.04-.05.04-.02.01-.05 0-.06-.01a.8.8 0 0 0-.48-.2.8.8 0 0 0-.48.2.07.07 0 0 1-.06.02.07.07 0 0 1-.05-.04.09.09 0 0 1 0-.09c.14-.3.1-.52-.16-.65-.26-.14-.24-.25.05-.31l.2-.02c.2-.01.33-.16.34-.44.01-.09.06-.13.15-.13Z" fill="#ED3338"/><path d="M39.4 27.29c.07.12.15.2.26.22.06.02.09.06.07.12l-.05.24a.11.11 0 0 1-.1.09l-.4.07c-.06.01-.1-.01-.11-.06l-.09-.26c-.02-.07 0-.12.07-.14a.59.59 0 0 0 .3-.28c.01-.04.03-.04.05 0ZM16.1 27.42c.24.08.3.23.21.47a.14.14 0 0 1-.11.1c-.29.04-.46-.02-.52-.18a.28.28 0 0 1 .08-.32c.1-.09.22-.11.35-.07Z" fill="#F0F3FA"/><path d="m28 28.68-5.03.01.6-1.14a.12.12 0 0 1 .1-.07h3.65c.07 0 .12.04.15.1l.53 1.1Z" fill="#ED3338"/><path d="M17.97 28.69h5l5.03-.01h11.46c.2 0 .22.04.04.14l-11.7 6.33a.43.43 0 0 1-.44 0l-11.7-6.31c-.2-.1-.18-.15.03-.15h2.28Z" fill="#0F61AB"/><path d="M32.24 29.94a.37.37 0 0 0-.25-.22.4.4 0 0 0-.34.04l-1 .6c-.32.19-.47.45-.45.79l.02.25c.02.34.2.45.5.31.34-.15.85-.43 1.55-.84.07-.04.16-.11.28-.22.15-.14.28-.23.37-.27.35-.14.7-.32 1.03-.53a.09.09 0 0 1 .1 0c.03.01.05.04.05.08v.9c0 .07-.03.12-.1.15-.59.28-1.92.98-4 2.08-.2.1-.43.2-.71.28-.18.05-.3-.02-.35-.2a7.41 7.41 0 0 1-.07-1.65l.01-.73v-.16c0-.5.04-.83.12-1 .13-.29.41-.43.84-.43l4.03-.04c.18 0 .19.04.03.12l-1.49.8c-.03.02-.07.02-.1 0a.32.32 0 0 1-.07-.11ZM24.35 31.3l-.61 1.03c-.03.04-.06.06-.11.04a2.9 2.9 0 0 1-.72-.38 1.5 1.5 0 0 1-.47-.64 2.74 2.74 0 0 0-.3-.55c-.14-.2-.21-.18-.21.07v.44c0 .06-.02.07-.07.05l-1.14-.62a.15.15 0 0 1-.09-.14v-1.29c0-.07.04-.1.11-.1.35.04.77.04 1.27 0 .2-.01.34.02.45.08.1.06.18.18.26.35.15.28.29.53.43.75.04.08.09.08.13 0l.56-1.04c.03-.06.09-.09.17-.09h1.67c.06 0 .09.03.09.08v4.15c0 .01-.01.02-.03.01l-1.23-.66a.1.1 0 0 1-.05-.09v-1.43c0-.15-.04-.16-.11-.03ZM21.97 35.46 18 31.2c-.03-.03-.03-.06 0-.09.01-.03.04-.04.08-.02l7.93 4.27c.03.02.04.05.03.08 0 .04-.03.05-.07.05h-3.96c-.02 0-.04 0-.05-.02ZM33 35.48h-3.93c-.04 0-.06-.01-.07-.05-.01-.03 0-.06.03-.08l7.98-4.3c.03-.03.06-.02.09.01.02.03.02.06 0 .1l-4.05 4.3a.07.07 0 0 1-.05.02ZM27.67 32.99a.4.4 0 0 1 .22-.17c.08-.02.11.01.1.1l-.1.36c0 .06 0 .1.04.15a.5.5 0 0 1 .1.12c.02.06 0 .1-.07.09-.2-.03-.36-.03-.5-.01-.43.05-.65-.1-.65-.45 0-.04.02-.07.05-.1l.1-.12c.05-.04.06-.1.06-.15v-.41l.03-.06c.11-.12.28-.16.5-.1.05.01.1.05.11.1.06.16.05.29-.04.4-.05.06-.08.1-.08.13 0 .04 0 .08.02.1.03.07.07.08.1.02Z" fill="#F0F3FA"/><path d="M27.33 32.68a.13.13 0 1 0 0-.26.13.13 0 0 0 0 .26Z" fill="#0F61AB"/><path d="M21.25 33.62c-.01.02-.03.02-.05.01l-.02-.01c-.5-.35-.73-.55-.7-.6l.03-.04c.03-.05.3.1.8.44l.03.02c.02 0 .02.02 0 .04l-.09.14ZM34.13 33.44c.22-.15.37-.32.34-.37-.04-.05-.25.03-.47.17-.22.15-.37.32-.34.37.04.05.25-.03.47-.17Z" fill="#ED3338"/><path d="M27.15 33.37c.07.1.19.12.27.06.07-.06.07-.18 0-.27-.07-.1-.2-.12-.27-.06s-.08.18 0 .27Z" fill="#0F61AB"/><path d="M21.52 33.91c.3-.01.59.04.86.15.17.07.42.21.73.41.25.16.45.28.59.35.2.11.2.17-.04.2-.14 0-.55 0-1.23-.03a.21.21 0 0 1-.15-.07l-.81-.87a.07.07 0 0 1-.02-.09c.01-.03.04-.05.07-.05ZM31.35 34.82a8 8 0 0 0 .58-.34c.31-.2.55-.34.72-.4.28-.12.57-.17.86-.15.03 0 .06.02.07.05.01.03 0 .06-.02.08l-.8.87a.21.21 0 0 1-.16.06c-.67.03-1.08.03-1.22.02-.23-.02-.24-.08-.03-.19Z" fill="#ED3338"/><path d="m27.67 35.77 11.44-.01c.04 0 .06 0 .07.04.02.02.02.05 0 .08-.41.6-.9 1.19-1.46 1.79a13.62 13.62 0 0 1-10.78 4.36c-3.7-.24-6.8-1.7-9.33-4.36-.56-.6-1.05-1.2-1.46-1.79a.07.07 0 0 1 0-.08.07.07 0 0 1 .07-.04h11.45Z" fill="#F0F3FA"/><path d="M21.32 36.34v1.25c0 .08-.04.11-.11.11h-3.05a.1.1 0 0 1-.08-.03L16.9 36.4a.1.1 0 0 1-.02-.12.1.1 0 0 1 .1-.06h4.22c.07 0 .1.03.1.1ZM27.05 36.23h-5.23a.08.08 0 0 0-.08.08v1.32c0 .04.03.08.08.08h5.23c.05 0 .08-.04.08-.08V36.3a.08.08 0 0 0-.08-.08ZM32.89 36.23H27.7a.1.1 0 0 0-.1.1v1.28c0 .05.04.1.1.1h5.18a.1.1 0 0 0 .1-.1v-1.28a.1.1 0 0 0-.1-.1ZM33.43 37.6v-1.27c0-.07.03-.1.1-.1h4.84c.04 0 .07.02.09.06.02.04.01.07-.02.1l-1.2 1.28a.1.1 0 0 1-.07.03h-3.65c-.06 0-.1-.03-.1-.1ZM24.09 38.23v1.4c0 .07-.04.1-.11.1h-3.36a.1.1 0 0 1-.07-.02l-1.88-1.39c-.05-.03-.06-.07-.04-.12.02-.05.05-.07.1-.07h5.25c.07 0 .1.03.1.1ZM29.83 38.12l-5.2.01a.1.1 0 0 0-.09.1v1.41c0 .06.05.1.1.1l5.2-.01a.1.1 0 0 0 .09-.1v-1.41a.1.1 0 0 0-.1-.1ZM30.38 39.6v-1.33c0-.1.05-.14.14-.14h5.98c.06 0 .1.03.13.1.02.06 0 .11-.05.15l-1.83 1.33a.14.14 0 0 1-.08.02h-4.15c-.1 0-.14-.04-.14-.14ZM26.99 41.7c-1.8-.09-3.53-.54-5.2-1.35-.18-.1-.17-.14.04-.14h5.16c.06 0 .09.02.09.08v1.32c0 .06-.03.09-.1.08ZM27.72 40.2h5.68c.32 0 .33.07.05.2a13.2 13.2 0 0 1-5.72 1.3c-.08 0-.11-.03-.11-.1V40.3c0-.07.03-.1.1-.1Z" fill="#ED3338"/></svg>