<!-- by TradingView --><svg width="56" height="56" viewBox="0 0 56 56" xmlns="http://www.w3.org/2000/svg"><path fill="#F0F3FA" d="M0 0h56v56H0z"/><path fill-rule="evenodd" d="m10 34.67.01 1.73c0 .3.02.51.04.64.08.5.3.92.68 1.28.38.36.82.58 1.33.66l.66.02a72162.8 72162.8 0 0 0 31.17-.02 2.4 2.4 0 0 0 1.95-1.42c.1-.26.16-.54.16-.82v-17.3a2.34 2.34 0 0 0-.76-1.84c-.44-.4-.93-.6-1.46-.6a16583.43 16583.43 0 0 0-31.49 0c-.31 0-.6.06-.86.19-.75.37-1.2.96-1.38 1.77-.03.17-.05.4-.05.71v14.99Zm2.63 3.32h3.01a34028.48 34028.48 0 0 1 27.49 0c.32 0 .54-.02.68-.05.5-.15.87-.45 1.08-.92.07-.18.11-.38.11-.6a4202.75 4202.75 0 0 1 0-16.53v-.02c0-.23 0-.39-.02-.48a1.22 1.22 0 0 0-.13-.42 1.8 1.8 0 0 0-1.5-.97 242321.15 242321.15 0 0 0-30.92.01c-.2.03-.41.1-.61.23-.19.12-.35.26-.48.43-.2.26-.32.55-.33.89L11 20V36.16c0 .29.02.5.05.63.1.34.28.63.58.86.3.23.63.34 1 .34Z" fill="#013EA4"/><path d="M32.13 22.29a249.85 249.85 0 0 0-1.67 2c-1.68 2.08-3.4 4.12-5.09 6.2a74.07 74.07 0 0 1-1 1.23 2247.45 2247.45 0 0 1-2.54 3.14c-.04.05-.1.1-.15.13h-.03a1661.55 1661.55 0 0 1-3.3-8.79.43.43 0 0 0-.1-.15.13.13 0 0 0-.1-.03l-.89-.02H13c-.08 0-.13 0-.15-.07a366.97 366.97 0 0 1-.82-2.64v-.03L12 23.2l.01-.06a.06.06 0 0 1 .05-.03 55.36 55.36 0 0 0 1.37 0 3965.38 3965.38 0 0 0 4.62-.03c.03 0 .05.01.06.04a85.99 85.99 0 0 0 .9 2.65 377.3 377.3 0 0 0 2.85 7.94h.02c.15-.18.29-.34.4-.5a428.11 428.11 0 0 0 2.04-2.53c1.15-1.41 2.33-2.84 3.4-4.32l.04-.06a1.92 1.92 0 0 1 .25-.33 62.13 62.13 0 0 1 1.39-1.75 533.42 533.42 0 0 1 4.06-5.17.09.09 0 0 1 .07-.04 1213.2 1213.2 0 0 1 8.38-.01c.04 0 .06.01.08.05.02.03.01.06 0 .09l-.02.02-.17.24a1332.5 1332.5 0 0 1-2.31 2.83l-.04.02H33.4l-.88.03h-.38Z" fill="#013EA4"/><path d="M32.63 22.8a2.96 2.96 0 0 1 .14.46l.08.25c.24.8.42 1.3.54 1.68.09.26.15.44.2.54.03.09.07.16.12.21.04.04.1.06.22.06h.02a814.84 814.84 0 0 0 7.76 0c.17 0 .3.02.38 0 .05 0 0 .05 0 .05-.04.04-.06.05-.12.08l-.23.1a393.1 393.1 0 0 0-2.12 1.01c-1.15.56-2.74 1.43-4.76 2.4-.06.03-.08.08-.06.14a111.17 111.17 0 0 0 1.22 4.07v.02h-.03a9.22 9.22 0 0 1-.5-.16 367.95 367.95 0 0 1-5.08-1.7.44.44 0 0 0-.25-.02 24.46 24.46 0 0 1-1.6.37 104.11 104.11 0 0 1-3.75.85l-.64.13-.22.05c-.08.03-.16.04-.24.04a.1.1 0 0 0 .05-.07l.02-.03a.26.26 0 0 0 .04-.07 24.67 24.67 0 0 1 8.66-10.3c.06-.03.1-.09.15-.16ZM26.5 28h-.13l-.18-.17a154.41 154.41 0 0 0-1.63-1.51.68.68 0 0 1-.18-.21.28.28 0 0 0-.06-.1H27.96l.03.01v.02l-.06.08L26.49 28Z" fill="#FD0000"/><path d="M24.7 33.9c.18-.12.25-.3.18-.4-.07-.1-.27-.1-.44 0-.17.11-.24.29-.17.4.07.1.27.1.44 0ZM33.59 33.56c.01.08-.03.17-.12.26a.51.51 0 0 1-.25.15.26.26 0 0 1-.18-.01.19.19 0 0 1-.1-.11.25.25 0 0 1 0-.15c.01-.06.04-.1.09-.15.11-.1.27-.13.46-.1.05 0 .09.04.1.1ZM39.44 35.47a1.1 1.1 0 0 1-.4.13c-.04 0-.05 0-.01-.03l.23-.18c.11-.09.2-.19.29-.3.06-.1.1-.17.1-.21-.02-.23-.06-.45-.14-.66a.42.42 0 0 0-.1-.16.24.24 0 0 0-.17-.06 16.04 16.04 0 0 1-.91.81c-.33.29-.66.5-.98.65-.12.06-.26.09-.42.1-.11 0-.2-.03-.26-.08-.06-.06-.1-.14-.1-.25 0-.01.01-.02.03-.02l.18-.03a3.52 3.52 0 0 0 .84-.4.93.93 0 0 0 .22-.24.34.34 0 0 0 .05-.17.25.25 0 0 0-.05-.17c-.06-.07-.12-.11-.2-.11-.12-.01-.26 0-.4.04a2.74 2.74 0 0 0-.6.3c-.09.07-.17.14-.24.23l-.04.05-.14.17a.94.94 0 0 1-.17.14l-.12.08c-.28.18-.5.3-.65.37-.06.03-.12.02-.15-.02-.04-.05-.02-.13.05-.24.04-.07.1-.13.17-.2l.3-.3c.1-.1.12-.2.08-.29l-.1-.21a.1.1 0 0 0-.05-.06.1.1 0 0 0-.07 0c-.15.07-.28.14-.4.23a9.8 9.8 0 0 0-1.07.83c-.03-.01-.05-.04-.07-.08v-.03a.6.6 0 0 0 .06-.06 10.3 10.3 0 0 1 .52-.53c.04-.04.05-.1.03-.14-.02-.04-.06-.06-.13-.07-.22-.01-.35.01-.4.07-.14.14-.26.3-.36.46a.97.97 0 0 1-.28.29c-.19.13-.38.25-.59.35a.43.43 0 0 1-.22.05c-.16 0-.24-.11-.25-.31 0-.03 0-.05.02-.06l.3-.2c.06-.04.16-.13.3-.28.08-.1.13-.2.15-.33 0-.03 0-.05-.04-.07a.32.32 0 0 0-.18-.03.88.88 0 0 0-.35.12 1.95 1.95 0 0 0-.53.51.86.86 0 0 0-.13.33c-.05.29 0 .5.14.63.14.15.36.18.64.09a.92.92 0 0 0 .28-.17l.5-.4c.03 0 .04 0 .03.03a.88.88 0 0 0 0 .26c.01.12.05.2.12.23.04.03.1.02.19-.02a.72.72 0 0 0 .17-.11l.31-.3a3.61 3.61 0 0 1 .65-.49c.08-.06.09-.05.02.03l-.16.2c-.1.1-.17.23-.22.36-.08.19-.07.32.03.4.07.05.21.06.4.02a.85.85 0 0 0 .29-.16 17.4 17.4 0 0 1 .84-.57.78.78 0 0 0-.02.37c.03.13.1.23.2.31.1.07.22.1.4.09.14-.02.28-.06.4-.12a8.63 8.63 0 0 0 .86-.47.3.3 0 0 0 .1.3 1 1 0 0 0 .6.27c.22.02.44-.03.64-.15.25-.14.48-.3.71-.48a.35.35 0 0 0 .1-.11c.02-.05.03-.1 0-.13a.05.05 0 0 0-.03-.03h-.04l-.6.39Zm-2.02-.95a.77.77 0 0 1-.24.23l-.31.16a.22.22 0 0 1-.13.01.05.05 0 0 1-.04-.02v-.05a1.82 1.82 0 0 1 .37-.35c.14-.08.25-.1.33-.04.03.02.03.04.02.06Zm1.3.95-.4-.28-.02-.02a5.84 5.84 0 0 1 .71-.57l.02.02.01.12c.02.17.02.29 0 .35a.55.55 0 0 1-.27.39.04.04 0 0 1-.05 0Z" fill="#013EA4"/><path d="M32.63 22.8a.57.57 0 0 1-.15.17 204.43 204.43 0 0 0-8.15 9.78c-.07.1-.16.2-.26.3a3 3 0 0 0-.36.5 16.75 16.75 0 0 0-1.12 1.34c-.1.12-.18.2-.22.27-.05.06-.07.11-.07.16 0 .07.01.13.04.18.01.04.04.05.07.04a.9.9 0 0 0 .17-.07l.55-.3a.22.22 0 0 0 .11-.1c.1-.23.23-.43.4-.6.2-.2.42-.3.64-.3.03 0 .06 0 .1.02.05.02.07.04.08.07 0 .04-.01.1-.05.17a.75.75 0 0 1-.1.16c-.16.18-.35.34-.59.46-.02.02-.03.06-.03.12.01.06.02.1.04.13.04.08.1.12.17.13a.5.5 0 0 0 .23-.06c.23-.1.45-.23.67-.38a.6.6 0 0 0 .2-.21c.07-.12.15-.24.25-.36.13-.17.24-.24.32-.21.06.01.13.02.21.01.02 0 .04 0 .07.02.1.05.09.13-.01.22l-.57.56v.03l.1.06h.04a12.63 12.63 0 0 1 1.26-.97c.14-.08.24-.11.29-.09.03.02.07.08.1.19l.02.2c0 .04-.02.08-.06.12-.18.15-.35.31-.5.49a.3.3 0 0 0-.05.34c.01.02.03.03.06.02l.03-.02a9.93 9.93 0 0 1 .84-.47.65.65 0 0 0 .14-.12 3.48 3.48 0 0 1 1.35-.72c.23-.06.44-.05.62.01.06.03.09.07.08.15 0 .07-.05.11-.12.12h-.03l-.01.01c-.08.02-.08.04-.02.08.05.03.1.07.11.13.03.07.02.12-.02.17a.8.8 0 0 1-.13.12.6.6 0 0 0-.21.27.33.33 0 0 0-.02.23c0 .02.02.03.04.05a.1.1 0 0 0 .07 0 45.14 45.14 0 0 0 .85-.47.11.11 0 0 0 .05-.06v-.03l.11-.28c.24-.46.55-.85.94-1.18.15-.13.3-.23.47-.32.09-.04.15-.03.2.02.03.05.04.13.03.24a.8.8 0 0 1-.07.24 3.14 3.14 0 0 1-.83 1l-.42.36c-.05.04-.07.1-.07.2 0 .07.03.14.07.2.02.03.06.05.11.07.14.04.29.02.44-.06.18-.1.32-.2.43-.3.04-.04.09-.03.13.04.02.06 0 .1-.04.14-.3.3-.58.49-.83.6a.76.76 0 0 1-.33.05.32.32 0 0 1-.2-.07.38.38 0 0 1-.13-.2c-.05-.16-.06-.29-.04-.36.01-.04 0-.05-.04-.02l-.87.58a.95.95 0 0 1-.2.09c-.12.04-.2.05-.24.03a.2.2 0 0 1-.14-.18.69.69 0 0 1 .16-.52v-.02h-.03a11.56 11.56 0 0 0-.85.56c-.08.04-.16.04-.24-.02l-.05-.03a.45.45 0 0 1-.13-.1.44.44 0 0 1-.09-.38l.01-.05c0-.04-.02-.05-.04-.03-.3.23-.58.43-.82.59a.9.9 0 0 1-.3.12c-.12.03-.22.02-.3-.03-.08-.06-.11-.16-.1-.29.03-.2.13-.38.3-.53l.14-.16v-.02h-.04c-.08.08-.16.14-.22.17a1.5 1.5 0 0 0-.27.18c-.14.15-.3.29-.45.43-.2.17-.34.21-.43.11-.06-.06-.08-.21-.06-.45v-.01h-.02c-.26.15-.48.31-.66.48-.08.08-.21.11-.4.11a.43.43 0 0 1-.33-.13.53.53 0 0 1-.14-.32c0-.01 0-.02-.02-.02h-.02a55.1 55.1 0 0 0-.9.67c-.09.05-.15.07-.2.06-.08 0-.15-.06-.19-.14a.3.3 0 0 1 0-.24c.01-.04 0-.05-.04-.03a3.82 3.82 0 0 0-.43.56l-.02-.01c-.03-.05-.06-.1-.08-.18a947 947 0 0 0-3.65-9.47v-.04l.04-.01h.36l.02.01a2076.69 2076.69 0 0 0 3.41 8.96l.02.02.03-.01.19-.23.02-.03.03-.04a60.38 60.38 0 0 1 2.01-2.44c2.36-2.86 4.75-5.69 7.1-8.56a65.89 65.89 0 0 1 1.4-1.66c.02-.03.15-.1.2-.06.02.02.04.04.04.07l.02.07v.05l.02.1Zm-1.36 10.94-.01.01c-.1.1-.23.27-.38.5l-.03.03a12 12 0 0 1-.02.04.26.26 0 0 0-.05.14c0 .01 0 .02.02 0a.65.65 0 0 0 .17-.12 2.2 2.2 0 0 0 .49-.76h-.01c-.04 0-.09.05-.15.13l-.03.03Zm-2.34.96a.3.3 0 0 0 .1-.15l-.01-.01h-.04c-.52.15-.92.34-1.2.57a.44.44 0 0 0-.15.2c-.02.05 0 .1.05.16.02.03.05.03.1.01a1.93 1.93 0 0 0 .43-.25l.26-.18a80 80 0 0 1 .46-.35Z" fill="#013EA4"/></svg>