<!-- by TradingView --><svg width="56" height="56" viewBox="0 0 56 56" xmlns="http://www.w3.org/2000/svg"><path fill="#F0F3FA" d="M0 0h56v56H0z"/><path d="M27.02 24c1.38-.01 2.49-.92 2.48-2.02-.01-1.1-1.14-2-2.52-1.98-1.38.01-2.49.92-2.48 2.02.01 1.1 1.14 2 2.52 1.98ZM30 30.3l-.04.48c-.51.7-1.13 1.18-1.84 1.22h-3.45c-.68 0-1.22-.21-1.56-.85-.06-.1-.12-.11-.19-.02-.4.5-1.02.88-1.88.87h-3.08c-.73 0-1.33-.31-1.6-1.04-.1-.27.01-.9.33-1.88l.16-.5c.08-.25.02-.29-.17-.11a104.8 104.8 0 0 1-3.03 2.7c-.61.54-1.2.81-1.76.83-.8.02-1.2-.32-1.18-1.04 0-.4.2-1.05.55-1.94.1-.22.15-.38.18-.47.08-.21.03-.24-.12-.1l-3.5 3.25c-.22.2-.48.3-.76.3h-1.9c-.14 0-.19-.07-.14-.22l2.15-6.6c.03-.09.09-.18.18-.18h2.98c.1 0 .14.1.1.2l-.96 2.9c-.05.12-.02.14.08.06.88-.71 1.74-1.45 2.58-2.2.7-.6 1.46-.92 2.32-.96.77-.03 1.13.33 1.06 1.09a6.59 6.59 0 0 1-.65 1.97c-.02.05-.01.1.03.13s.09.03.13 0c.33-.32 1.14-1.06 2.42-2.24.8-.72 1.63-1.02 2.5-.9.8.1 1.06.63.77 1.58a56.9 56.9 0 0 1-1.16 3.5c-.04.1-.01.15.09.15h3.3c.11 0 .2-.06.24-.18l1.58-4.97c.03-.08.08-.13.17-.13h3.03c.1 0 .13.05.1.15l-1.61 5.02c-.03.09 0 .13.1.13H30Z" fill="#ED1C24"/><path d="m30 30.63.04-.5 2.87-3.28c.15-.18.12-.27-.1-.27h-2.56c-.12 0-.17-.07-.12-.2l.37-1.18c.04-.13.12-.2.25-.2h7.17c.04 0 .06.03.08.07a.1.1 0 0 1-.02.1l-3.96 5a.1.1 0 0 0-.02.1c.02.04.04.06.08.06h5.14c.11 0 .16-.06.15-.18a4.61 4.61 0 0 1 1.05-3.77 4.4 4.4 0 0 1 3.23-1.35c1.67-.03 3.4-.04 5.2-.02.1 0 .12.05.1.15l-1.56 5.03c-.04.11 0 .17.1.17h3.08c.48 0 .56.2.24.58l-.28.15c-.33.4-.75.86-1.24.88-1.8.05-3.22.03-4.25 0-.38-.02-.73-.51-1.05-1.01-.06-.08-.11-.09-.17-.02a2.57 2.57 0 0 1-2.22 1.02 2.5 2.5 0 0 1-2.07-1.33c-.04-.07-.08-.07-.11 0-.3.5-.66.83-1.1.98-.28.09-.79.36-1.51.36h-5.17c-1.04.01-1.59-.56-1.64-1.34Zm12.7-1.69c-.14.52.02.86.48 1.04l.3.11c.41.17.7.02.84-.45l.87-2.73c.07-.23 0-.34-.21-.34h-1.33c-.22 0-.36.12-.42.35l-.53 2.02Z" fill="#283891"/></svg>