<!-- by TradingView --><svg width="56" height="56" fill="none" xmlns="http://www.w3.org/2000/svg"><path fill="#FD0" d="M0 0h56v56H0z"/><path fill-rule="evenodd" clip-rule="evenodd" d="M4 31v-5h1.819l1.924 3.296V26H9v5H7.058L5.21 27.862V31H4Zm37 0v-5h1.819l1.924 3.296V26H46v5h-1.942l-1.849-3.138V31H41ZM9.367 31l1.85-5h1.692l1.958 5h-1.436l-.34-.844h-1.929l-.309.844H9.367Zm2.22-2h1.04l-.544-1.354L11.586 29Zm13.54-3-1.849 5h1.486l.367-1h1.809l.402 1h1.436l-1.958-5h-1.692Zm1.411 3h-1.04l.496-1.354.544 1.354Zm8.745 2 1.875-5h1.716l1.986 5h-1.457l-.407-1H37.16l-.372 1h-1.506Zm2.25-2h1.055l-.552-1.354L37.533 29ZM15 31v-5h1.843L18 28.983 19.118 26H21v5h-1.274v-2.939L18.587 31h-1.216l-1.15-2.939V31H15Zm15 0v-5h3.34c.413.019 1.237.287 1.237 1.208s-.259 1.183-.388 1.2c.172.056.514.38.514 1.217 0 1.047-.713 1.375-1.462 1.375H30Zm1.445-4h1.49c.179 0 .324.224.324.5s-.145.5-.325.5h-1.489v-1Zm0 2h1.49c.179 0 .324.224.324.5s-.145.5-.325.5h-1.489v-1ZM47 31v-5h1.303v2.067L50.24 26H52l-2.34 2.496L52 31h-1.76l-1.938-2.073V31H47Z" fill="#0772BA"/></svg>