<!-- by TradingView --><svg width="56" height="56" viewBox="0 0 56 56" xmlns="http://www.w3.org/2000/svg"><path fill="#F0F3FA" d="M0 0h56v56H0z"/><path d="M24.3 12a9.2 9.2 0 0 1 2.31 2.23c.28.41.39 1 .33 1.8a6.8 6.8 0 0 1-.4 1.83L25 22.07c-.46 1.25-.31 2.4.44 3.46l1.97 2.67c.37.51.44 1.19.18 2.03-.25.84-.77 2.33-1.55 4.44-.3.8-.43 1.37-.4 1.73a2.41 2.41 0 0 0 2.94 2.2c.47-.13.87-.4 1.2-.8.59-.72.73-1.51.43-2.37-.97-2.73-1.58-4.49-1.84-5.29-.25-.8-.06-1.63.58-2.45.58-.75 1.1-1.45 1.57-2.11.8-1.14.95-2.35.46-3.64-.12-.3-.6-1.65-1.48-4.07-.61-1.7-.59-3 .07-3.87a9.03 9.03 0 0 1 2.11-1.95c.12-.08.16-.05.11.09-.36 1.1-.3 2.33.2 3.7.76 2.1 1.27 3.56 1.53 4.35.21.64.15 1.26-.18 1.86l-2.24 3.92c-.43.75-.45 1.7-.03 2.85.46 1.26 1.02 2.8 1.67 4.65.29.82.3 1.6.05 2.32-.2.58-.63 1.25-1.28 1.99a4.47 4.47 0 0 1-3.94 1.58 4.35 4.35 0 0 1-2.22-.8 7.38 7.38 0 0 1-1.63-1.75 3.46 3.46 0 0 1-.48-3.28c.4-1.15 1.03-2.92 1.9-5.32.27-.76.13-1.6-.41-2.54-.92-1.58-1.58-2.73-1.97-3.44a2.81 2.81 0 0 1-.4-1.21 4 4 0 0 1 .28-1.31c.65-1.9 1.12-3.2 1.38-3.88.5-1.3.54-2.57.15-3.83h.11ZM12 32.9v-1c.41-1.58.92-3.13 1.52-4.66.29-.75.3-1.42 0-2.02-.15-.3-.23-.52-.26-.64-.02-.06 0-.1.05-.14.05-.03.1-.03.15 0a9.4 9.4 0 0 1 2.17 1.89c.63.85.78 1.76.45 2.73-.09.27-.24.69-.46 1.26-.65 1.7-.98 2.96-.97 3.76.01 1.35.72 2.36 2.12 3.05 1.02.5 1.94.5 2.75-.02s1.18-1.36 1.1-2.52c-.04-.5-.24-1.1-.62-1.8l-2.38-4.37a3.42 3.42 0 0 1-.48-1.67c0-.42.13-1 .4-1.75l1.15-3.26c.22-.62.33-1.15.35-1.57.01-.5-.1-1-.33-1.51-.15-.3-.08-.37.2-.2 1.67 1.04 2.53 2.25 2.58 3.63a6.9 6.9 0 0 1-.5 2.22l-1.38 3.95a3.38 3.38 0 0 0 .22 2.9l2.76 4.9c.32.55.4 1.16.27 1.82a2.81 2.81 0 0 1-.93 1.56c-.55.47-1.25.65-2.1.52a4.03 4.03 0 0 1-2.03-.93 261.85 261.85 0 0 1-3.56-3.06A7.4 7.4 0 0 1 12 32.89Zm26.32 4.55c-1.17.22-2.05-.2-2.63-1.26a2.77 2.77 0 0 1-.3-1.62c.06-.58.21-1.1.47-1.57l2.58-4.62c.5-.92.6-1.85.25-2.78l-1.5-4.23a3.6 3.6 0 0 1-.13-2.05c.01-.09.07-.22.16-.41.1-.21.16-.37.18-.48a.07.07 0 0 0-.1-.07c-2.4 1.39-3.23 3.11-2.52 5.17a3497.44 3497.44 0 0 1 1.25 3.64c.36 1.03.55 1.76.58 2.2.04.67-.15 1.36-.58 2.08a92.93 92.93 0 0 0-1.85 3.24 8.26 8.26 0 0 0-1.06 2.42c-.12.8.2 1.56.94 2.28.5.48 1.15.68 1.96.59a4.06 4.06 0 0 0 1.98-.8c.3-.21.95-.76 1.95-1.63.9-.8 1.62-1.42 2.14-1.86a6.65 6.65 0 0 0 1.58-1.95c.44-.8.44-1.84 0-3.13l-1.26-3.64c-.26-.72-.13-1.52.38-2.4l-.02-.06-.03-.07c-.02-.06-.06-.08-.1-.05-1.1.78-1.86 1.43-2.27 1.95-.66.84-.82 1.7-.5 2.57.56 1.5 1 2.76 1.32 3.77.37 1.17.27 2.17-.3 3a3.9 3.9 0 0 1-2.57 1.77Z" fill="#E00037"/></svg>