<!-- by TradingView --><svg width="56" height="56" viewBox="0 0 56 56" xmlns="http://www.w3.org/2000/svg"><path fill="#F0F3FA" d="M0 0h56v56H0z"/><path fill-rule="evenodd" d="M29.64 26.48c-.02-.01-.03-.02-.03-.04v-3.25c0-.1-.06-.16-.17-.17a6.2 6.2 0 0 0-.95 0c-.32.01-.49.2-.49.53v6.17c0 .08.03.14.09.2a.3.3 0 0 0 .21.07h1.02c.08 0 .15-.02.2-.07a.24.24 0 0 0 .08-.18v-1.5c0-.12.18-.3.51-.53l.06-.03c.03-.03.07-.02.1.02.43.7.88 1.4 1.34 2.1.08.12.2.19.35.2h.95c.42-.01.5-.2.27-.55-.1-.13-.67-1-1.73-2.6-.03-.06-.03-.11.02-.15l.54-.46c.6-.52.9-.77.91-.8.09-.07.12-.17.08-.27-.03-.1-.11-.16-.24-.16a5.27 5.27 0 0 0-.95.02c-.32.05-.6.18-.84.38l-1.28 1.06a.05.05 0 0 1-.05 0ZM8.32 23.54v3.53c0 .08-.02.08-.07.02l-2.64-3.96a.24.24 0 0 0-.2-.11 5.33 5.33 0 0 0-.93 0c-.32.03-.48.18-.48.45v6.1c0 .13.02.23.05.29.04.09.13.13.25.13h1.05c.22 0 .34-.11.34-.32v-3.72c0-.03.01-.03.04-.02a2469.08 2469.08 0 0 0 2.63 3.86c.1.15.24.22.42.21a13.23 13.23 0 0 1 .86 0c.24 0 .36-.11.36-.33v-6.4c0-.16-.09-.25-.26-.26h-.68c-.25 0-.42.03-.53.09-.14.08-.2.22-.2.44Zm33.04 4.15.03-.03.78-2.47c.03-.1.1-.14.21-.15a20.01 20.01 0 0 1 1.16.03c.07.03.12.09.15.19.2.7.45 1.5.73 2.38 0 .03.02.04.04.04.04 0 .06-.02.07-.06l.5-2.2c.04-.16.11-.27.22-.33.1-.06.23-.09.41-.09h.82c.09.01.16.04.21.1.05.07.07.15.04.22l-1.42 4.47c-.04.14-.15.2-.3.2h-1c-.14 0-.24-.02-.29-.07a.6.6 0 0 1-.1-.24 497.91 497.91 0 0 1-.69-2.32c-.04-.13-.07-.13-.11 0l-.8 2.47c-.03.11-.1.17-.24.17h-1.11c-.12 0-.2-.05-.23-.16a1198 1198 0 0 0-1.4-4.4.56.56 0 0 1-.03-.28c.02-.09.08-.14.18-.15h.75c.26 0 .44.01.53.04.15.06.24.18.29.37a734.83 734.83 0 0 0 .53 2.26c.02.01.04.02.07 0ZM20.2 29.53a2.5 2.5 0 0 1-2.05.4 1.93 1.93 0 0 1-1.46-1.17 3.16 3.16 0 0 1-.2-1.83c.11-.62.39-1.1.84-1.45a2.41 2.41 0 0 1 1.73-.47c.43.03.8.17 1.13.42h.05c.02 0 .03-.02.04-.04.02-.17.13-.25.33-.25l1 .01c.07 0 .13.03.18.07.05.05.07.1.07.16v4.05a2.8 2.8 0 0 1-.51 1.77c-.4.5-.98.76-1.76.8a4.89 4.89 0 0 1-1.8-.2c-.57-.2-.93-.6-1.06-1.17-.04-.17-.02-.28.05-.33.05-.05.17-.07.35-.07h1.06c.04.02.08.06.11.11l.09.14c.05.1.1.16.14.2.07.04.17.08.32.1.52.07.89 0 1.1-.22.2-.2.29-.54.29-1.02l-.02-.02h-.02Zm-.9-3.28h-.16c-.53 0-.96.38-.96.86v.77c-.01.48.41.87.94.87h.15c.52.01.95-.38.96-.85v-.77c.01-.48-.41-.87-.94-.88Zm-4.88.57c0 .03-.02.04-.05.04-.1.02-.35.03-.77.05-.62.02-1.14.12-1.56.27-.57.22-.9.55-1 1-.1.43-.04.8.17 1.12.22.33.57.54 1.06.64.77.15 1.45.02 2.05-.39.06-.04.1-.03.12.04.03.12.07.2.12.23.05.04.14.06.28.06a13.43 13.43 0 0 0 .61 0c.19 0 .31-.02.38-.04.1-.05.15-.13.15-.27V27.2c0-.35 0-.6-.03-.75a1.62 1.62 0 0 0-.24-.63c-.24-.37-.63-.62-1.2-.74a4.3 4.3 0 0 0-1.5-.03c-.82.11-1.36.44-1.6.99-.08.14-.1.25-.1.33.02.11.12.17.29.2l.89.07c.1 0 .18-.01.24-.04a.13.13 0 0 0 .05-.06c.08-.18.2-.3.34-.35.17-.07.38-.1.6-.08.26.02.45.09.56.21.1.12.15.29.14.5Zm-.06.87-.35.07c-.07.02-.2.03-.39.05-.3.01-.5.05-.63.09-.2.07-.33.2-.37.4-.05.26.05.45.31.57.18.09.4.09.63 0 .22-.07.39-.18.52-.34.2-.23.3-.5.33-.8 0-.04-.02-.05-.05-.04Zm11.51-.83c.03 0 .04-.01.05-.04.01-.21-.04-.38-.14-.5-.11-.12-.3-.2-.55-.21-.23-.02-.44 0-.6.08a.67.67 0 0 0-.35.35.13.13 0 0 1-.06.06.42.42 0 0 1-.24.04l-.88-.08c-.18-.01-.27-.08-.29-.2 0-.07.02-.18.1-.32.24-.55.78-.87 1.6-.99a4.3 4.3 0 0 1 1.5.03c.57.12.96.37 1.2.74.12.19.2.4.24.64a5.6 5.6 0 0 1 .04.85v2.38c0 .14-.06.22-.17.27a1.21 1.21 0 0 1-.44.04h-.54c-.14 0-.23-.02-.28-.06-.05-.04-.1-.11-.12-.23-.02-.07-.06-.2-.12-.16-.6.41-1.28.54-2.05.39-.49-.1-.84-.31-1.06-.64a1.4 1.4 0 0 1-.17-1.13c.1-.44.43-.77 1-.99.42-.15.94-.25 1.56-.27.42-.02.67-.03.77-.05Zm-.36.9.35-.08c.03 0 .05 0 .05.04-.03.3-.14.57-.33.8-.13.16-.3.28-.51.35a.8.8 0 0 1-.64 0c-.25-.12-.36-.31-.31-.57.04-.2.16-.33.37-.4.13-.05.34-.08.63-.1.19 0 .32-.02.39-.04Zm11.4-.94c0 .03-.01.04-.04.04-.1.02-.35.03-.77.05-.62.02-1.14.12-1.56.27-.57.22-.9.55-1 1-.1.43-.04.8.17 1.12.22.33.57.54 1.06.64.77.15 1.45.02 2.05-.4.06-.04.1-.02.12.05v.02c.03.11.07.28.12.31.05.04.14.08.28.08H37.96c.19 0 .31-.03.38-.06.1-.04.15-.24.15-.37a112.45 112.45 0 0 0 0-2.37c0-.35 0-.6-.03-.75a1.62 1.62 0 0 0-.24-.63c-.24-.37-.64-.62-1.2-.74a4.3 4.3 0 0 0-1.5-.03c-.82.12-1.36.44-1.6.99-.08.14-.1.26-.1.33.02.11.11.18.29.2l.88.07c.11 0 .19-.01.24-.04a.13.13 0 0 0 .05-.06c.1-.18.2-.3.35-.35.17-.07.38-.1.6-.08.26.02.44.09.56.21.1.12.15.29.13.5Zm-.06.87a2.74 2.74 0 0 1-.74.12c-.29.02-.5.05-.62.1-.21.07-.34.2-.37.4-.05.25.05.44.31.56.18.09.4.09.63 0 .22-.07.39-.18.51-.34.2-.23.3-.5.33-.8 0-.04-.01-.05-.05-.04Zm13.57-.87c.01-.21-.03-.38-.14-.5-.11-.12-.3-.2-.55-.21-.23-.02-.43 0-.6.08a.67.67 0 0 0-.35.35.13.13 0 0 1-.05.06.42.42 0 0 1-.24.04l-.89-.08c-.17-.02-.27-.08-.28-.2-.01-.07.02-.18.08-.33.26-.54.8-.87 1.61-.98a4.3 4.3 0 0 1 1.51.03c.56.12.95.37 1.2.74.11.19.2.4.23.64a5.77 5.77 0 0 1 .04.85v2.26c0 .14-.06.34-.17.38a1.21 1.21 0 0 1-.44.05h-.54c-.14 0-.23-.03-.28-.06-.05-.04-.09-.2-.11-.31l-.01-.04c-.02-.07-.06-.08-.12-.04-.6.41-1.28.54-2.05.39-.49-.1-.84-.31-1.06-.64a1.4 1.4 0 0 1-.17-1.13c.1-.44.43-.77 1-.99.42-.15.94-.25 1.56-.27.42-.02.67-.03.77-.05.03 0 .04-.01.05-.04Zm-.41.94.35-.08c.03 0 .05 0 .05.04-.03.3-.14.57-.33.8-.13.17-.3.28-.51.36a.8.8 0 0 1-.64-.01c-.25-.12-.36-.31-.31-.57.04-.19.16-.32.37-.4.13-.04.34-.08.63-.1.19 0 .32-.02.39-.04Z" fill="#BE1F24"/></svg>