<!-- by TradingView --><svg width="56" height="56" viewBox="0 0 56 56" xmlns="http://www.w3.org/2000/svg"><path fill="#F0F3FA" d="M0 0h56v56H0z"/><path d="M30 14.02v2.58l-2.93 1.32c-.05.02-.07 0-.07-.05V15.4c0-.06.03-.1.08-.13l2.55-1.2c.16-.07.29-.09.37-.05Z" fill="#0F74BC"/><path d="M30 16.6v-2.58l.25.02c.04 0 .07.02.1.03l2.58 1.21c.05.02.07.06.07.11v2.47c0 .03-.01.06-.04.07a.1.1 0 0 1-.1 0L30 16.6Z" fill="#F7941F"/><path d="M30 17.13v5.97L24.1 26c-.07.03-.1.01-.1-.06V20.1c0-.09.04-.16.13-.2l5.52-2.72c.2-.1.3-.11.35-.05Z" fill="#0F74BC"/><path d="M30 23.1v-5.97c.19.02.32.05.38.08l5.48 2.68c.1.04.14.11.14.21v5.8c0 .03-.01.06-.04.07a.09.09 0 0 1-.09 0L30 23.1Z" fill="#F7941F"/><path d="M30 23.61v1.61l-.46.87a.28.28 0 0 1-.22.18l-.84.14a.06.06 0 0 0-.04.04c-.01.03 0 .05.01.07l.63.65c.04.05.06.1.05.16l-.16.9c0 .03 0 .05.03.07.03.02.05.02.08 0l.92-.41V29h-.24a79.02 79.02 0 0 0-2.48.02l-.08.08a.08.08 0 0 0-.01.1c.01.04.04.05.07.05h2.06c.06 0 .09.03.09.1v7.17c0 .06-.03.08-.08.07a4.34 4.34 0 0 1-3.34-2.35.1.1 0 0 1 0-.1.1.1 0 0 1 .09-.05h.6c.16 0 .18-.06.08-.17l-1.02-1.06c-.04-.04-.07-.04-.1 0l-1.05 1.09c-.1.09-.07.14.05.14h.82c.05 0 .09.03.1.09.14 1.45.8 2.6 1.94 3.41.02.01.02.02 0 .03a.25.25 0 0 1-.04.03h-.03l-1.29-.51-1.25-.6a22.82 22.82 0 0 0-2.18-1.02c-.46-.17-.94-.3-1.42-.42a.25.25 0 0 1-.18-.16L19 29.58c-.03-.07 0-.13.06-.17 2.57-1.4 6.14-3.33 10.72-5.77.08-.04.15-.05.21-.03Z" fill="#0F74BC"/><path d="M30 29v-1.11l.9.4c.09.05.12.02.1-.08l-.13-.88c-.01-.06 0-.1.04-.14l.62-.66a.07.07 0 0 0 .02-.07.06.06 0 0 0-.05-.04l-.82-.15a.27.27 0 0 1-.21-.17l-.47-.88v-1.6l10.94 5.79c.06.03.07.08.05.14l-3.52 8.94a.23.23 0 0 1-.2.15c-2.38.32-4.73.24-7.05-.25-.17-.03-.17-.06 0-.08 2.43-.21 3.84-1.6 4.23-4.18 0-.04.02-.05.05-.05h.81c.04 0 .06-.02.07-.05.01-.03 0-.06-.01-.09l-1.02-1.06c-.05-.05-.1-.05-.14 0-.38.45-.68.77-.9.96-.19.17-.16.25.1.24l.5-.03c.08 0 .11.04.08.11-.25.66-.7 1.2-1.35 1.66-.6.4-1.24.67-1.96.78-.06 0-.09-.02-.09-.08v-7.15c0-.1.05-.14.14-.14h2.04c.05 0 .08-.03.08-.08v-.08c0-.04-.02-.07-.06-.07H30Z" fill="#F7941F"/><path d="M18.25 29.24c-.04.02-.05.05-.03.09l2.21 5.6c.02.03 0 .05-.02.04-2.3-.3-4.57.03-6.81.96a48.02 48.02 0 0 0-3.81 1.78c-.2.1-.42.16-.7.2-.05 0-.09-.03-.09-.1 0-.17.04-.37.16-.58.99-1.85 2.27-4.28 3.84-7.29.42-.8.8-1.33 1.13-1.56a.31.31 0 0 1 .25-.05c.09.02.16.07.21.15l.48.7c.14.2.28.22.42.03l.15-.2c.7-1.24 1.5-2.43 2.38-3.55.5-.63.93-.94 1.3-.94.53.01.97.3 1.34.85.2.32.45.86.72 1.63l.12.33c.04.1 0 .17-.09.22l-3.16 1.69Z" fill="#0F74BC"/><path d="M9.15 39.16c2-1.52 4.07-2.54 6.2-3.06 2.34-.57 4.6-.5 6.8.23.43.15 1.14.46 2.11.96l.98.48a21.27 21.27 0 0 0 19.71-1.16H45c0 .02 0 .04-.02.05a21.8 21.8 0 0 1-8.76 3.93c-3.2.64-6.39.53-9.54-.35-.56-.15-1.55-.48-2.98-1-.71-.26-1.76-.55-3.14-.88-4.3-1.02-7.74-.9-10.33.38-.47.23-.82.4-1.05.49-.18.07-.19.05-.03-.07Z" fill="#0F74BC"/></svg>