<!-- by TradingView --><svg width="56" height="56" viewBox="0 0 56 56" xmlns="http://www.w3.org/2000/svg"><path fill="#F0F3FA" d="M0 0h56v56H0z"/><path d="M13 27.85c0 8.1 5.22 12.75 7.83 14.06A25.76 25.76 0 0 1 24 27.3l-4.3-11.11c-2.43.59-6.7 3.57-6.7 11.66Z" fill="url(#a)"/><path d="M43 28.27c0-8.09-5.22-12.74-7.83-14.05A25.76 25.76 0 0 1 32 28.82l4.79 10.22C39.2 38.45 43 36.36 43 28.27Z" fill="url(#b)"/><path d="M21.53 14.01c-2.37.32-5.34 3.97-6.52 5.76 3.17-2.54 8.16 6.86 10.18 11.08 2.02 4.22 7.36 11.19 9.7 11.15 1.86-.03 5.14-4.33 6.55-6.47-3.28 3.93-6.7-3.5-8.9-7.86S24.5 13.62 21.54 14Z" fill="url(#c)"/><defs><linearGradient id="a" x1="20.56" y1="20.48" x2="18.39" y2="41.9" gradientUnits="userSpaceOnUse"><stop stop-color="#95004B"/><stop offset=".82" stop-color="#F8A61C"/></linearGradient><linearGradient id="b" x1="34.54" y1="14.54" x2="29.98" y2="42.11" gradientUnits="userSpaceOnUse"><stop stop-color="#95004B"/><stop offset=".82" stop-color="#F8A61C"/></linearGradient><linearGradient id="c" x1="16.52" y1="17.98" x2="35.61" y2="41.54" gradientUnits="userSpaceOnUse"><stop stop-color="#F7A619"/><stop offset="1" stop-color="#98074B"/></linearGradient></defs></svg>