<!-- by TradingView --><svg width="56" height="56" viewBox="0 0 56 56" xmlns="http://www.w3.org/2000/svg"><path fill="#F0F3FA" d="M0 0h56v56H0z"/><path fill-rule="evenodd" d="M43.88 32.67c.32.46.55.82.68 1.07.14.29.25.53.31.73a2.78 2.78 0 0 1 .13.82c.02.67-.07 1.25-.26 1.75-.67 1.78-2.38 2.01-4.06 1.95H14.83c-1.85.1-3.3-.93-3.78-2.76a3.97 3.97 0 0 1-.05-.74c0-.47.07-.86.23-1.18 1.96-3.06 3.81-6.04 5.63-8.96 2.79-4.48 5.5-8.83 8.37-13.16.04-.05.08-.1.13-.13l.2-.15a4.25 4.25 0 0 1 3.51-.85c.08.03.25.07.53.13.12.03.22.07.3.12.36.24.71.52 1.06.84.16.15.3.3.4.46a69.25 69.25 0 0 0 .62.96c.12.2.21.36.28.44 2.17 3.07 4.08 6.33 5.99 9.59 1.8 3.07 3.6 6.15 5.63 9.07Zm-.48 1.55a29754.41 29754.41 0 0 0-9.56-15.4l-3.16-5.14a5.13 5.13 0 0 0-.7-.95 2.8 2.8 0 0 0-3.67-.08c-.18.16-.42.48-.73.96a1330.75 1330.75 0 0 0-4.74 7.5 2889.68 2889.68 0 0 0-8.43 13.36 3.7 3.7 0 0 0-.29.56c-.16.47-.16.9 0 1.3a2.61 2.61 0 0 0 2.18 1.66l26.74.01c.39 0 .65-.01.78-.04.48-.1.91-.28 1.3-.57.33-.26.57-.57.73-.95.16-.4.2-.79.1-1.17a4.7 4.7 0 0 0-.55-1.05ZM22.93 19.1a4477.6 4477.6 0 0 0-7.35 11.8c-.03.06-.02.09.05.09h24.9s.02 0 .03-.02v-.04a922.29 922.29 0 0 0-10.62-17.39 2.1 2.1 0 0 0-1.86-1.05c-.7.02-1.23.33-1.6.93l-3.55 5.68Zm5.11 2.36h.5c.02 0 .04.01.05.04.21.8.71 1.36 1.49 1.66.02 0 .03.02.02.05-.1.76.12 1.4.67 1.93a2.13 2.13 0 0 0 2.69.24c.27-.2.5-.43.67-.73.17-.3.26-.64.26-1.02a2.17 2.17 0 0 0-1.48-2.1c-.03 0-.04-.03-.04-.05a2.17 2.17 0 0 0-1.42-2.36c-.3-.11-.61-.16-.92-.13-.03 0-.05-.01-.06-.04a2.2 2.2 0 0 0-4.3.03c0 .01-.01.02-.03.02a2.22 2.22 0 0 0-2.4 1.55c-.08.3-.1.6-.05.9 0 .02 0 .05-.04.06a2.2 2.2 0 0 0-1.42 2.85c.15.39.41.7.78.96.24.17.44.27.62.32a2.17 2.17 0 0 0 2.53-1.02c.22-.42.3-.9.24-1.4 0-.03 0-.04.02-.05a.58.58 0 0 1 .13-.05c.04 0 .06-.02.07-.02.73-.3 1.2-.84 1.39-1.61 0-.02.01-.03.03-.03Zm.99-1.63c.25-.32.57-.55.96-.71.06-.03.09-.07.07-.14a1.8 1.8 0 0 0-1.73-1.34 1.81 1.81 0 0 0-1.4.66c-.18.22-.3.47-.34.75 0 .04 0 .06.04.07.4.17.71.4.96.72.25.32.4.69.44 1.1 0 .07.04.1.1.1h.33c.08 0 .12-.04.13-.12.03-.4.18-.77.44-1.1Zm-4.95 1.56c0 .02.02.04.05.03.45-.02.87.09 1.23.31.4.25.7.59.9 1.02 0 .03.03.04.06.03.67-.22 1.1-.67 1.29-1.36 0-.03 0-.06-.04-.07-.89-.36-1.37-1-1.44-1.91 0-.03-.01-.05-.04-.05-.4-.05-.77.03-1.12.24-.67.39-.96.97-.89 1.76Zm6.1-.95c.2-.28.3-.62.31-1 0-.04.02-.07.07-.06.74 0 1.29.28 1.65.82.24.37.32.76.24 1.17 0 .04-.02.05-.06.05-.46-.03-.89.07-1.28.3a2.2 2.2 0 0 0-.87 1c-.02.03-.04.04-.08.03a1.85 1.85 0 0 1-1.19-1.33c0-.03 0-.05.03-.06.28-.13.5-.25.66-.36.2-.14.37-.33.53-.56Zm-.1-.85c0-.02 0-.04-.02-.05h-.05a1.87 1.87 0 0 0-1 1.31v.05h.06a1.87 1.87 0 0 0 1-1.3Zm-3.17.8a2.07 2.07 0 0 1-.35-.8c0-.01 0-.03.02-.04l.04.01c.27.13.48.3.65.53.17.22.28.48.35.79l-.01.04h-.04c-.27-.13-.49-.31-.66-.53Zm5.41 1.46v-.01h-.01l-.01-.01c-.34-.02-.65.07-.95.25a1.66 1.66 0 0 0-.66.72v.01l.01.01h.01c.33.02.65-.07.95-.24a1.66 1.66 0 0 0 .66-.73Zm-7.16.25c.28.17.5.38.64.63v.05c0 .02-.02.03-.04.03-.28 0-.57-.08-.87-.26-.3-.19-.52-.4-.64-.65v-.05a.05.05 0 0 1 .05-.02c.3.01.58.1.86.27Zm.82 1.12c-.48.03-.92-.08-1.3-.3a2.2 2.2 0 0 1-.88-1.01c0-.03-.02-.03-.04-.02-.67.26-1.08.7-1.22 1.33a1.72 1.72 0 0 0 .8 1.85c.33.2.67.28 1.05.26a1.8 1.8 0 0 0 1.64-2.07c0-.03-.02-.04-.05-.04Zm4.57.01c.5.03.93-.07 1.32-.3.38-.22.67-.56.86-1 .01-.04.04-.05.06-.03.5.2.84.51 1.05.96.22.46.23.93.02 1.42-.14.34-.36.6-.66.79-.28.17-.59.26-.93.26a1.77 1.77 0 0 1-1.61-1.01c-.15-.32-.2-.67-.15-1.06 0-.02.02-.03.04-.03Zm-2.6.93c0-.03 0-.05-.03-.05l-.1-.02a2.8 2.8 0 0 1-.87-.28.09.09 0 0 1-.04-.07c0-.02 0-.05.03-.07a.28.28 0 0 1 .12-.07l1.77-.58c.25-.08.4 0 .43.27.19 1.65.44 3.6.75 5.84 0 .04.02.07.06.09.4.14.87.28 1.38.43.1.03.15.09.13.18-.02.1-.07.15-.16.15l-5.5.01a.24.24 0 0 1-.17-.07.09.09 0 0 1-.03-.05c-.02-.14.04-.23.18-.26.3-.06.73-.2 1.31-.4a.1.1 0 0 0 .08-.09l.66-4.96Z" fill="#5C4C9C"/><path d="M28 31.5h12.97a.1.1 0 0 1 .1.05 278.2 278.2 0 0 1 2.1 3.66c.15.3.2.58.17.87-.03.26-.14.5-.3.72-.18.22-.39.38-.64.5a1.8 1.8 0 0 1-.8.2 18266.05 18266.05 0 0 1-27.13 0 1.81 1.81 0 0 1-1.43-.7 1.45 1.45 0 0 1-.15-1.59l.3-.55c.55-.94 1.15-1.98 1.82-3.1a.1.1 0 0 1 .1-.06H28Z" fill="#5C4C9C"/><path fill-rule="evenodd" d="M37.7 35.74a.8.8 0 0 0 .3-.62v-1.24a.8.8 0 0 0-.3-.62c-.2-.18-.44-.26-.71-.26h-.45c-.27 0-.51.09-.7.26a.8.8 0 0 0-.3.62v1.24c0 .25.1.45.3.62.2.18.44.26.72.26H37c.28 0 .51-.09.7-.26Zm-.93-2.32h.06c.26 0 .47.18.47.4l.01 1.36c0 .22-.2.4-.46.4h-.06c-.26 0-.47-.18-.47-.4v-1.35c-.01-.23.2-.41.45-.41Zm-7.33 1.17c-.02 0-.03.01-.03.03v1.13c0 .12-.04.2-.14.22-.11.03-.24.04-.37.02-.17-.01-.25-.07-.25-.17V33.2c0-.13.06-.2.2-.2h1.66c.14 0 .2.06.19.19v.02c-.06.12-.14.17-.26.18h-.98c-.04 0-.06.01-.06.05v.7c0 .02.02.03.05.03a14.3 14.3 0 0 1 .96.03l.04.05c.04.2-.04.31-.24.33a4.25 4.25 0 0 1-.77 0Zm4.81.8a.34.34 0 0 1-.3.2c-.21.03-.36-.02-.44-.14-.06-.09-.1-.23-.1-.44l.01-1.09c0-.13.02-.22.05-.27.08-.14.2-.22.35-.24.15-.02.29.03.4.15a.7.7 0 0 1 .12.24v.01c.01.02.02.03.05.03.2.05.35.06.41.04.14-.04.19-.14.14-.28a.75.75 0 0 0-.51-.51c-.3-.1-.6-.11-.9-.06-.34.06-.58.2-.71.44-.07.12-.1.32-.1.61-.02.53-.01.88 0 1.05.05.53.37.81.98.86.54.04.92-.08 1.13-.38a.7.7 0 0 0 .14-.57c-.03-.15-.2-.2-.54-.14-.06 0-.1.04-.1.1v.04c-.02.17-.04.28-.08.35ZM27.21 33h.36c.11 0 .2.09.2.2v2.6c0 .12-.1.2-.21.2h-.35c-.12 0-.22-.09-.22-.2l.01-2.6c0-.11.1-.2.21-.2Zm4.27 0h.34c.1 0 .18.08.18.17v2.66c0 .1-.08.17-.18.17h-.34c-.1 0-.18-.08-.18-.17v-2.66c0-.1.08-.17.18-.17Zm-12.75 1.08a.05.05 0 0 0-.03.05l.02 1.63c0 .08-.02.13-.04.17-.03.03-.09.05-.17.06h-.26c-.12-.01-.2-.05-.23-.1a219.79 219.79 0 0 0 0-2.8l.04-.05.16-.03a5.3 5.3 0 0 1 .42 0c.13.02.22.08.27.16a134.6 134.6 0 0 1 .8 1.56c.04.02.05 0 .05-.06v-1.45c0-.12.07-.2.19-.2.3-.05.46 0 .46.14v2.43c0 .12-.01.21-.03.28 0 .02-.02.03-.04.04-.08.06-.27.07-.56.04a.1.1 0 0 1-.06-.02.65.65 0 0 1-.13-.18 121.38 121.38 0 0 1-.86-1.67Zm6.57 1.08c-.01.03-.02.03-.04 0a47.05 47.05 0 0 1-.57-2.03c-.02-.06-.06-.13-.14-.13H24c-.08 0-.1.07-.09.14.22.68.46 1.45.71 2.31l.14.4c.03.08.09.12.16.13.16.02.37.03.64.01.02 0 .04 0 .05-.02.06-.07.1-.16.14-.27a1677.57 1677.57 0 0 0 .78-2.6c.01-.05-.01-.08-.07-.08a2 2 0 0 0-.38-.02c-.13 0-.22.09-.26.25-.2.67-.37 1.3-.52 1.9Zm-3.4.08c-.02 0-.03 0-.04.03l-.18.54c-.03.09-.08.14-.14.16a.73.73 0 0 1-.23 0h-.08c-.11 0-.18-.02-.22-.07-.04-.04-.04-.11-.01-.21a184.7 184.7 0 0 1 .96-2.61c.02-.05.07-.08.13-.08h.5c.03 0 .05 0 .07.02.07.04.12.14.17.28.3.83.59 1.68.88 2.56.02.04 0 .07-.03.1a.25.25 0 0 1-.15.04h-.13a1 1 0 0 1-.25-.01.22.22 0 0 1-.15-.14 8.62 8.62 0 0 1-.21-.55c-.02-.04-.05-.06-.1-.06h-.79Zm.1-.45.31-1.02.03-.02c.02 0 .03.01.03.02l.3 1.03c0 .02-.01.03-.04.03h-.6c-.02 0-.03-.01-.02-.04Z" fill="#fff"/></svg>