<!-- by TradingView --><svg width="56" height="56" viewBox="0 0 56 56" xmlns="http://www.w3.org/2000/svg"><path fill="#F0F3FA" d="M0 0h56v56H0z"/><path d="m15.43 17.9 1-4.84.02-.04a.07.07 0 0 1 .05-.02H35a.07.07 0 0 1 .07.06v.03l-4.71 21.85a.07.07 0 0 1-.07.06h-5.3a.07.07 0 0 1-.05-.03.07.07 0 0 1-.02-.06l3.68-16.83a.07.07 0 0 0-.04-.08H15.5l-.03-.02a.07.07 0 0 1-.04-.05v-.03Z" fill="#023865"/><path d="M18.96 31.25c.04-.17-.03-.25-.2-.25h-5.74c-.23 0-.32-.12-.27-.35l2.37-11.53c0-.03.03-.06.05-.09a.15.15 0 0 1 .1-.03h11.3c.03 0 .05 0 .08.02.02 0 .04.03.05.05a.18.18 0 0 1 .04.15l-.96 4.65c0 .04-.02.07-.05.1a.15.15 0 0 1-.1.03h-5.98c-.12 0-.19.06-.21.18l-.33 1.44a.23.23 0 0 0 .05.18.2.2 0 0 0 .07.06.2.2 0 0 0 .1.02c.87-.06 1.52-.07 1.93-.03 2.4.23 3.63 2.42 3.13 4.76a619.1 619.1 0 0 0-1.72 8.19c-.18.94-.4 1.65-.67 2.1a4.08 4.08 0 0 1-3.66 2.1c-.57 0-1.62 0-3.15-.02a6.57 6.57 0 0 1-2.04-.25c-1.63-.65-2.42-2.57-2.06-4.33.44-2.18.9-3.79 1.38-6.16a.3.3 0 0 1 .1-.18.28.28 0 0 1 .18-.06h4.99a.14.14 0 0 1 .11.05.15.15 0 0 1 .03.13l-1.36 5.73c-.05.21.04.3.24.25l.23-.05a.57.57 0 0 0 .4-.41l1.57-6.45Z" fill="#FEC627"/><path d="m34.11 23.9 1.04-4.83a.1.1 0 0 1 .03-.05.1.1 0 0 1 .06-.02h9.67a.1.1 0 0 1 .09.07.1.1 0 0 1 0 .04l-3.41 15.82a.1.1 0 0 1-.03.05.1.1 0 0 1-.06.02h-5.23a.1.1 0 0 1-.07-.03.1.1 0 0 1-.02-.08l2.32-10.77a.1.1 0 0 0-.02-.08.1.1 0 0 0-.03-.02L38.4 24h-4.25a.1.1 0 0 1-.05-.1Z" fill="#023865"/><path d="m24.64 36.62.12-.54.04-.06a.1.1 0 0 1 .07-.02h16.46a.1.1 0 0 1 .09.04.11.11 0 0 1 .02.1l-.13.53c0 .02-.02.05-.04.06a.1.1 0 0 1-.06.02H24.74a.1.1 0 0 1-.08-.04.11.11 0 0 1-.02-.1ZM41.15 37.45l-.1.43c0 .03-.02.06-.05.09a.15.15 0 0 1-.1.03H24.56a.15.15 0 0 1-.13-.06.17.17 0 0 1-.03-.13l.1-.43c0-.04.02-.07.05-.1a.15.15 0 0 1 .1-.03h16.34a.15.15 0 0 1 .13.06.16.16 0 0 1 .03.14ZM24.16 39.09l.1-.5c0-.02.02-.04.04-.06a.12.12 0 0 1 .08-.03h16.41a.12.12 0 0 1 .1.05l.02.05v.05l-.1.5c0 .02-.02.05-.05.07a.12.12 0 0 1-.07.02H24.22a.12.12 0 0 1-.04-.04.13.13 0 0 1-.02-.11ZM23.88 40.34l.1-.44c0-.03.02-.06.04-.08a.14.14 0 0 1 .1-.03H40.5a.14.14 0 0 1 .11.05.15.15 0 0 1 .03.13l-.09.43c0 .04-.02.07-.05.09a.14.14 0 0 1-.1.03H24.03a.14.14 0 0 1-.11-.06.15.15 0 0 1-.03-.12ZM23.62 41.53l.1-.4c0-.04.03-.07.05-.1a.15.15 0 0 1 .1-.03H40.2c.03 0 .05 0 .07.02.02 0 .04.02.05.04a.16.16 0 0 1 .03.14l-.1.41c0 .04-.02.07-.05.09a.15.15 0 0 1-.1.03H23.78a.15.15 0 0 1-.12-.06.16.16 0 0 1-.03-.14ZM40.1 42.38l-.11.53a.1.1 0 0 1-.04.07.1.1 0 0 1-.06.02H23.46a.1.1 0 0 1-.09-.04.11.11 0 0 1-.02-.1l.12-.53a.1.1 0 0 1 .03-.06.1.1 0 0 1 .07-.02H40a.1.1 0 0 1 .08.04.11.11 0 0 1 .02.09Z" fill="#68686A"/></svg>