<!-- by TradingView --><svg width="56" height="56" viewBox="0 0 56 56" xmlns="http://www.w3.org/2000/svg"><path fill="#F0F3FA" d="M0 0h56v56H0z"/><path d="m40.79 17 .18.21H9.37a.15.15 0 0 0-.11.04.14.14 0 0 0-.04.1v14.1c0 .25.08.28.26.12l3.08-2.93a.22.22 0 0 1 .3 0l.48.44a.17.17 0 0 0 .22.01l2.38-1.98c.21-.18.43-.18.64-.01.48.38 1.05.82 1.72 1.3.1.08.28.16.52.24a.5.5 0 0 1-.05.22c.02.18-.03.17-.14-.03a.25.25 0 0 0-.14-.12c-.34-.1-.52-.4-.74-.56l-1.15-.81a.57.57 0 0 0-.68.02c-.58.45-1.23.99-1.96 1.6-.4.35-.75.34-1.05-.08a.27.27 0 0 0-.31-.09.27.27 0 0 0-.1.06L9.5 31.84a.23.23 0 0 0-.08.16l-.18 6.12c0-.09-.01-.16-.03-.21-.04-.08-.07-.08-.12-.01a.68.68 0 0 0-.08.37V17.25c0-.17.09-.25.25-.25H40.8Z" fill="#151628"/><path d="M9 38.27c0-.16.03-.28.08-.37.05-.07.08-.07.12 0 .02.06.03.13.03.22l-.02.54a.19.19 0 0 0 .06.13.2.2 0 0 0 .14.06h37.28a.12.12 0 0 0 .12-.12v-6.4a.25.25 0 0 0-.08-.18 348.57 348.57 0 0 0-4.6-4.34 1.62 1.62 0 0 0-.72-.43.25.25 0 0 0-.18.02c-.86.46-1.42.78-1.7.97-.75.53-1.79.97-2.54 1.51-.27.2-.63.26-.97.43a.16.16 0 0 1-.2-.05.15.15 0 0 1-.02-.07l-.02-.27c.24.04.4.04.47 0 1.7-.93 3.34-1.84 4.91-2.73a.48.48 0 0 1 .57.06l4.97 4.68c.08.08.12.06.12-.05V17.41c0-.16-.08-.24-.23-.24l-5.7.03-.1-.2h6.04c.04 0 .09.05.12.08s.05.07.05.12v21.74c0 .02 0 .03-.02.04a.06.06 0 0 1-.04.02H9.24c-.08 0-.12-.03-.15-.1-.07-.16-.1-.38-.09-.63Z" fill="#151628"/><path d="m40.89 17.2 5.7-.03c.15 0 .23.08.23.24v14.47c0 .11-.04.13-.12.05l-4.97-4.68a.48.48 0 0 0-.57-.06c-1.57.89-3.21 1.8-4.9 2.73-.08.04-.24.04-.48 0a.82.82 0 0 0-.05-.02c.01-.9-.43-1.52-1.31-1.86 1.02-3.03.61-5.67-1.22-7.91a5.96 5.96 0 0 0-4.9-2.4 6.26 6.26 0 0 0-4.01 1.77 7.87 7.87 0 0 0-2.25 5.72c0 .3.05.7.15 1.2.08.4.14.8.19 1.2l-3.37.04a.21.21 0 0 0-.15.07.2.2 0 0 0-.06.14l.02.77a2.04 2.04 0 0 1-.52-.24c-.67-.48-1.24-.92-1.72-1.3-.21-.17-.43-.17-.64 0l-2.38 1.99a.17.17 0 0 1-.22 0l-.48-.45a.22.22 0 0 0-.3 0l-3.08 2.93c-.18.16-.26.13-.26-.11v-14.1c0-.04.01-.08.04-.1a.15.15 0 0 1 .1-.05l31.53-.01Z" fill="#3398CC"/><path d="m34.42 28.04-.2-.08c-.06-.03-.08-.07-.06-.13 1.09-3.01.4-6.6-2.2-8.63a5.63 5.63 0 0 0-6-.6c-.73.38-1.27.76-1.6 1.15a7.8 7.8 0 0 0-1.69 7.77c.02.07 0 .11-.06.14-.06.03-.14.01-.23-.03-.05-.4-.11-.8-.2-1.2a7.87 7.87 0 0 1 2.1-6.93 6.26 6.26 0 0 1 4.03-1.77c2-.05 3.62.84 4.89 2.4 1.83 2.24 2.24 4.88 1.22 7.9Z" fill="#151628"/><path d="M33.53 27.8h-.06c-.05-.02-.05-.05-.02-.09.07-.09.11-.15.12-.19a6.85 6.85 0 0 0-.48-6.2 5.35 5.35 0 0 0-4.4-2.66c-3.17-.07-5.37 2.43-5.7 5.38a8.06 8.06 0 0 0 .3 3.14.2.2 0 0 0 .26.03l4.66-3.24a.24.24 0 0 1 .3 0l3.87 3.1c0 .05-.03.09-.06.1a.25.25 0 0 1-.1.01.15.15 0 0 1-.08-.03l-3.66-2.9a.2.2 0 0 0-.13-.05c-.04 0-.09.02-.13.05-1.18.85-2.42 1.72-3.71 2.6l-.63.37c-.29.17-.48.36-.6.58-.12-.2-.25-.56-.38-1.1a6.92 6.92 0 0 1 .66-5.22c1.26-2.27 3.87-3.7 6.47-2.88 3.79 1.22 5.27 5.7 3.75 9.14a.15.15 0 0 1-.14.1.14.14 0 0 1-.1-.04Z" fill="#653C56"/><path d="M33.53 27.8c-.24.01-.38-.02-.42-.08a1.65 1.65 0 0 0-.73-.65l-3.87-3.1a.24.24 0 0 0-.3 0l-4.66 3.24a.2.2 0 0 1-.31-.11 8.06 8.06 0 0 1-.25-3.06c.33-2.95 2.53-5.45 5.7-5.38a5.35 5.35 0 0 1 4.4 2.66 6.85 6.85 0 0 1 .48 6.2c-.01.04-.05.1-.12.2-.03.03-.03.06.02.07l.06.01Z" fill="#CC6698"/><path d="M32.38 27.07c.36.18.6.4.73.65l-7-.05c-.07 0-.1.04-.1.1v4.31c0 .28-.08.3-.22.06l-2.5-4.34c.1-.22.3-.41.59-.58l.63-.37a179 179 0 0 0 3.71-2.6.22.22 0 0 1 .13-.04.2.2 0 0 1 .13.04l3.66 2.9c.02.02.05.03.08.03l.1-.01c.03-.01.05-.05.06-.1Z" fill="#663398"/><path d="M18.77 28.86h.05v.02l.02 7.87c0 .15.08.23.23.23h3.6a.2.2 0 0 0 .14-.06.19.19 0 0 0 .06-.13v-4.47c0-.26.06-.27.19-.04l2.48 4.5a.47.47 0 0 0 .42.24c.89 0 3-.01 6.33-.05a5.52 5.52 0 0 0 2.59-.63c1.63-.87 1.8-3.4-.07-4.16a.89.89 0 0 1-.23-.14c-.05-.04-.04-.07.02-.1.84-.4 1.21-1.07 1.13-2.04l.05.02.02.27a.15.15 0 0 0 .08.12.16.16 0 0 0 .14 0c.34-.17.7-.22.97-.43.75-.54 1.8-.98 2.54-1.5.28-.2.84-.52 1.7-.98a.25.25 0 0 1 .18-.02c.26.07.5.22.72.43a347.62 347.62 0 0 1 4.6 4.33c.06.06.08.12.08.2v6.39a.13.13 0 0 1-.12.12H9.4a.2.2 0 0 1-.14-.06.19.19 0 0 1-.06-.13l.02-.54L9.4 32c0-.07.03-.12.08-.16l3.01-2.99a.27.27 0 0 1 .21-.08.27.27 0 0 1 .2.11c.3.42.66.43 1.06.09.72-.62 1.37-1.16 1.95-1.62a.57.57 0 0 1 .68-.01l1.15.8c.22.17.4.46.74.57.06.02.1.06.14.12.11.2.16.2.14.03Z" fill="#663398"/><path d="M22.77 31.17c-.13-.02-.2.04-.21.17-.01.14-.04 1.84-.07 5.1 0 .07-.04.11-.11.11h-3.02a.18.18 0 0 1-.18-.17v-8.21c0-.02 0-.03.02-.04a.06.06 0 0 1 .04-.02h3.61a.33.33 0 0 1 .3.16l2.87 4.94a.5.5 0 0 1 .07.24l.02 2.6c0 .67-.15.71-.49.12l-2.72-4.91a.18.18 0 0 0-.13-.1ZM33.55 32.27c.75.21 1.35.21 1.91.81.32.34.34.9.3 1.36-.21 1.94-2.66 2.12-4.2 2.11a374.1 374.1 0 0 0-4.99-.01.18.18 0 0 1-.11-.18V28.2a.08.08 0 0 1 .07-.08c2.48-.02 4.44-.01 5.9 0 1.26.01 3.01.32 2.95 1.97-.05 1.35-.79 1.33-1.82 1.77-.07.04-.12.08-.13.13a.27.27 0 0 0 0 .15.18.18 0 0 0 .12.13Zm-3.69-2.94.01 2.14a.13.13 0 0 0 .14.14h1.04c.31-.01.6-.12.83-.32.22-.2.34-.47.34-.76v-.28a.98.98 0 0 0-.1-.4 1.06 1.06 0 0 0-.25-.35c-.11-.1-.24-.18-.38-.23-.14-.05-.3-.08-.45-.08h-1.05a.14.14 0 0 0-.1.05.13.13 0 0 0-.03.1Zm.01 3.43-.01 2.58c0 .03 0 .06.03.08.02.02.05.03.08.03l1.15.01a1.33 1.33 0 0 0 .87-.32c.12-.1.2-.23.27-.36.06-.14.1-.28.1-.43v-.58c0-.29-.13-.57-.36-.78a1.29 1.29 0 0 0-.86-.33l-1.15-.01a.12.12 0 0 0-.08.03.11.11 0 0 0-.04.08Z" fill="#CB3434"/><path d="M30.23 29.74c0-.04.02-.08.05-.1a.15.15 0 0 1 .1-.05h.68c.21 0 .41.07.56.2.14.13.22.3.22.48v.24a.6.6 0 0 1-.06.26.68.68 0 0 1-.17.22.8.8 0 0 1-.25.14c-.1.04-.2.05-.3.05h-.68a.15.15 0 0 1-.1-.04.15.15 0 0 1-.05-.1v-1.3ZM30.24 33.2a.14.14 0 0 1 .14-.14h.81c.1 0 .21.03.31.06.1.04.2.1.27.16s.13.14.17.23c.04.09.06.18.06.27v.57c0 .2-.09.37-.24.5a.88.88 0 0 1-.58.21h-.81a.14.14 0 0 1-.13-.09.14.14 0 0 1 0-.05V33.2Z" fill="#663398"/></svg>