<!-- by TradingView --><svg width="56" height="56" viewBox="0 0 56 56" xmlns="http://www.w3.org/2000/svg"><path fill="#F0F3FA" d="M0 0h56v56H0z"/><path d="M28 18.9v15.76c-.3.06-.6.2-.82.4a1.06 1.06 0 0 0 .23 1.73c.24.14.39.22.39.48v7.34c0 .12-.01.24-.06.36l-.01.02h-.06l-.02-.01c-.12-.17-.14-.4-.23-.56-.46-.86-.76-1.38-.89-1.57-.47-.7-.85-1.23-1.15-1.6l-.84-.93c-.85-.93-1.73-1.7-2.78-2.48-.2-.15-.62-.44-.71-.67-.04-.09-.05-.28-.05-.56V11.33c0-.1 0-.19.02-.27 0 0 0-.02.02-.03l.03-.03a.09.09 0 0 1 .09.02c.28.22.5.38.65.48a18.55 18.55 0 0 1 3.48 3.08 17.84 17.84 0 0 1 2.48 3.94c.06.14.13.26.23.37Z" fill="#0093DD"/><path d="M28 34.7V18.9c.05-.3.18-.56.31-.8.61-1.1 1.13-2 1.84-2.91 1-1.27 2.2-2.38 3.55-3.38.27-.2.64-.43 1.04-.72a.41.41 0 0 1 .17-.08h.04l.02.04c.02.1.03.19.03.29v25.38c0 .3-.03.5-.26.72-.5.45-1.2.9-1.67 1.31-.6.52-1.07.95-1.38 1.3-.42.45-.82.9-1.18 1.32-.44.51-.9 1.15-1.37 1.91-.19.3-.37.65-.53 1.04a.3.3 0 0 1-.16.14.06.06 0 0 1-.05 0s-.02 0-.02-.02v-1.28l.01-5.72c0-.29.02-.4.29-.56.17-.1.38-.23.46-.39.32-.61.2-1.13-.35-1.56-.2-.16-.47-.24-.79-.24Z" fill="#183883"/><path d="M19.23 38.65a23.97 23.97 0 0 1 6.76 5.3c.03.1 0 .12-.08.07a3.3 3.3 0 0 1-.26-.17c-2.4-1.67-6.41-3.86-9.58-3.94l-.05-.02A41493.53 41493.53 0 0 0 16 13.45c0-.06.01-.12.04-.18.02-.04.04-.05.08-.02.4.3.7.52.88.68.48.38.87.73 1.37 1.15.16.13.34.25.5.35a.3.3 0 0 1 .1.11c.03.04.03.1.03.14v22.76c0 .09.18.16.23.2Z" fill="#0093DD"/><path d="M36.77 38.64a.48.48 0 0 1-.14.1 23.98 23.98 0 0 0-6.61 5.21c-.04.1-.02.11.07.07l.26-.17c2.4-1.68 6.41-3.87 9.58-3.95.02 0 .04 0 .05-.02A41493.21 41493.21 0 0 1 40 13.44a.45.45 0 0 0-.04-.17c-.02-.04-.04-.05-.08-.02-.4.3-.7.52-.88.68-.48.38-.87.73-1.37 1.14-.16.14-.34.25-.5.36a.3.3 0 0 0-.1.1c-.03.05-.03.1-.03.15v22.76c0 .08-.18.15-.23.2Z" fill="#183883"/><path d="M14 41.12c0 .02.32.05.33.06.02.02.04.03.07.03 2.61.01 5.38.72 7.64 2.05a5.57 5.57 0 0 0 .9.41c.09.06.08.08-.02.05-3.05-.95-5.88-1.57-9.12-1.4-.42.02-.67.07-1.2.17-.17.04-.35.06-.54.05-.01 0-.03 0-.04-.02a.06.06 0 0 1-.02-.04V17.3l.01-.05.03-.03c.02-.01.05 0 .09.03.54.42 1.06.85 1.63 1.24.18.12.24.27.24.51v22.12Z" fill="#0093DD"/><path d="M42 41.12c0 .02-.33.05-.35.06a.09.09 0 0 1-.06.03 15.6 15.6 0 0 0-7.64 2.05 5.56 5.56 0 0 1-.9.41c-.09.06-.08.08.02.05 3.04-.95 5.88-1.57 9.12-1.4.42.02.67.07 1.2.17.17.04.35.06.54.05.01 0 .03 0 .04-.02.01 0 .03-.02.03-.04V17.3l-.02-.05a.09.09 0 0 0-.03-.03c-.02-.01-.05 0-.09.03-.54.42-1.06.85-1.63 1.24-.18.12-.23.27-.23.51v22.12Z" fill="#183883"/><path d="M26.02 27.53c.07.02.1 0 .06-.07a.53.53 0 0 1-.08-.25v-3.13a.06.06 0 0 1 .02-.05l.02-.01.03-.02h1.34c.02 0 .03.02.04.03.02.01.02.03.02.04v5.28c0 .08-.04.12-.12.1-.51-.1-.9-.18-1.15-.26a5.42 5.42 0 0 1-3.7-6.46 5.61 5.61 0 0 1 3.82-3.94l.82-.24a.5.5 0 0 1 .18-.03c.03 0 .05.01.06.03a.4.4 0 0 1 .09.21 9.5 9.5 0 0 1-.04 1.21.11.11 0 0 1-.07.04c-.34.03-.68.07-.97.22-.16.09-.4.17-.59.28-1.46.84-2.03 2.28-2 3.87.03 1.03.67 2.01 1.4 2.69.22.2.5.36.82.46Z" fill="#fff"/><path fill-rule="evenodd" d="m28.4 19.21.01 5.28c.02 1.77.01 3.39-.01 4.86 0 .07.03.1.1.11l.19-.01a19.35 19.35 0 0 0 1.29-.31l.33-.15.45-.21a5.56 5.56 0 0 0 2.82-5.48 5.6 5.6 0 0 0-4.37-4.64c-.18-.06-.38-.12-.59-.14a.18.18 0 0 0-.18.13c-.03.1-.04.28-.04.56Zm3.78 4.82a.22.22 0 0 0 0-.05c-.2-1.54-.68-2.64-2.05-3.54a.05.05 0 0 0-.07.01l-.01.03a1.5 1.5 0 0 0-.05.36v6.33a1.47 1.47 0 0 0 .06.38.05.05 0 0 0 .04.02h.03c1.37-.9 1.85-2 2.05-3.54Z" fill="#fff"/></svg>