<!-- by TradingView --><svg width="56" height="56" viewBox="0 0 56 56" xmlns="http://www.w3.org/2000/svg"><path fill="#F0F3FA" d="M0 0h56v56H0z"/><path fill-rule="evenodd" d="M43.97 34.61A17.28 17.28 0 1 0 12.04 21.4 17.28 17.28 0 0 0 43.97 34.6Zm-4.39-1.81a12.53 12.53 0 1 0-23.15-9.6 12.53 12.53 0 0 0 23.15 9.6Z" fill="#018ED4"/><path fill-rule="evenodd" d="M44.63 34.89A18 18 0 1 0 11.37 21.1 18 18 0 0 0 44.63 34.9Zm-.34-.15a17.63 17.63 0 1 0-32.57-13.5 17.63 17.63 0 0 0 32.57 13.5Z" fill="#1188BF"/><path d="M26.29 14.32a11.5 11.5 0 0 0-.25.02.1.1 0 0 1-.07-.05.1.1 0 0 1 0-.04c-.03-.35 0-.63-.28-.93l-.68-.74c-.08-.08-.07-.13.04-.15l.3-.07c.12-.02.23.01.3.12.14.17.27.36.4.57.03.04.06.06.1.06.03 0 .05-.03.07-.08.08-.23.17-.45.26-.65a.29.29 0 0 1 .28-.18h.3c.1 0 .13.04.08.13l-.5.88c-.2.36-.11.62-.05.97a.1.1 0 0 1-.1.12c-.12 0-.19.01-.2.02ZM33.21 12.73l.2-.14c.05-.04.06-.08.02-.13-.02-.02-.12-.03-.3-.03-.06 0-.07-.02-.04-.06.11-.16.31-.16.61 0a.2.2 0 0 1 .08.27.2.2 0 0 1-.07.08.89.89 0 0 1-.43.08.17.17 0 0 0-.1.04c-.1.08-.25.03-.42-.14-.07-.08-.15-.09-.24-.03-.05.04-.14.03-.26-.03a.07.07 0 0 1-.04-.06.07.07 0 0 1 .03-.07c.24-.17.5-.16.76.04l.05.08c0 .04.02.07.05.1.03.03.07.03.1 0ZM28.6 13.22c.1-1 1.32-1 2.09-.78.07.03.1.07.07.14l-.03.1c-.02.08-.08.11-.16.1-.83-.19-1.28-.02-1.34.5-.04.54.36.8 1.2.78.1 0 .14.04.15.13l.01.1c0 .07-.03.11-.1.12-.8.06-2-.18-1.9-1.19ZM24.03 14.83l-.23.04c-.07.01-.1-.01-.12-.07l-.36-1.35a.14.14 0 0 0-.16-.1l-.48.14c-.1.02-.17-.01-.2-.12l-.01-.05a.15.15 0 0 1 .01-.12.16.16 0 0 1 .1-.07 219.83 219.83 0 0 1 1.73-.52.16.16 0 0 1 .19.1l.02.05c.03.1 0 .17-.1.2l-.47.16a.14.14 0 0 0-.08.06.13.13 0 0 0 0 .1l.44 1.33c.02.05 0 .1-.05.12l-.23.1ZM33.56 14.2a.98.98 0 0 1-.57.62c-.3.13-.65.15-.98.05-.34-.1-.63-.29-.82-.55a.98.98 0 0 1-.17-.83c.08-.27.28-.5.58-.62.29-.13.64-.15.98-.06.33.1.63.3.81.55.19.26.25.56.17.84Z" fill="#fff"/><path d="M31.67 13.6c-.14.36.02.76.36.9.34.13.73-.05.88-.41a.68.68 0 0 0-.36-.9.68.68 0 0 0-.88.4Z" fill="#018ED4"/><path d="M21.3 15.17c-.09-.08-.2-.06-.35.04-.08.05-.14.04-.2-.05-.06-.13-.04-.21.03-.26l.68-.39c.06-.04.1-.02.14.04l.44.76c.03.05.02.09-.01.12-.49.48-1.54 1.13-2.18.68-.55-.38-.53-1.02-.1-1.5a2.57 2.57 0 0 1 1.28-.76.11.11 0 0 1 .1.1V14c.03.1-.01.17-.11.21-.4.15-1.14.55-.98 1.1.17.6.83.56 1.25.25a.24.24 0 0 0 .1-.19.25.25 0 0 0-.1-.2ZM35.35 15.5c-.06-.05-.12-.04-.15.02l-.27.46c-.03.06-.08.07-.14.04l-.34-.2c-.06-.03-.07-.08-.04-.14l.92-1.57c.03-.06.08-.08.14-.05.5.24 1.54.75 1.33 1.39-.22.66-1.03.33-1.45.04Z" fill="#fff"/><path d="M35.7 14.7a.13.13 0 0 1 .18-.03l.11.06.14.12c.04.04.08.09.1.14.02.04.03.09.03.13a.2.2 0 0 1-.03.12l-.02.04a.2.2 0 0 1-.1.08.33.33 0 0 1-.13.02c-.05 0-.1 0-.17-.02a.71.71 0 0 1-.16-.08l-.11-.07a.13.13 0 0 1-.04-.18l.2-.32Z" fill="#1188BF"/><path d="m18.43 15.41 1.28 1.46a.05.05 0 0 1 0 .07l-.43.37a.05.05 0 0 1-.04.01L17.68 17a.05.05 0 0 0-.05.03.05.05 0 0 0 0 .06l.8.9a.05.05 0 0 1 0 .07l-.34.3a.05.05 0 0 1-.07 0l-1.29-1.46a.05.05 0 0 1 .01-.07l.45-.4a.05.05 0 0 1 .05-.01l1.5.3a.05.05 0 0 0 .04-.08l-.76-.87a.05.05 0 0 1 0-.07l.34-.3a.05.05 0 0 1 .07.01ZM37.98 16.8a13.78 13.78 0 0 0 .36.29c.02 0 .04-.01.05-.03l.47-.47c.04-.04.08-.04.12 0l.33.29c.03.02.01.07-.04.13a30.13 30.13 0 0 1-1.2 1.34c-.05.06-.1.07-.12.05l-.33-.3c-.04-.03-.04-.07 0-.11l.41-.52a.08.08 0 0 0-.01-.1 17.36 17.36 0 0 0-.67-.58c-.02 0-.04 0-.05.02l-.48.48c-.03.03-.07.03-.1 0l-.34-.3c-.03-.02-.02-.06.04-.13a25.44 25.44 0 0 1 1.2-1.33c.05-.06.1-.08.12-.05l.33.3c.04.03.04.07 0 .1l-.41.53a.08.08 0 0 0 0 .1c.1.1.2.19.32.28Z" fill="#fff"/><path fill-rule="evenodd" d="M40.24 28a12.24 12.24 0 1 1-24.47 0 12.24 12.24 0 0 1 24.47 0Zm-.97-.55.51.35c.04.03.07.07.07.12.02 1.11-.11 2.2-.42 3.25a.25.25 0 0 1-.08.12l-.06.06a.22.22 0 0 0-.07.14c-.03.13-.03.26-.04.39-.02.3-.03.6-.25.95a22.93 22.93 0 0 0-.85 1.41.37.37 0 0 1-.13.07c-1.52.48-3.11.84-4.71 1.02l-.9.1c-.8.1-1.47.19-2.23.19a30.22 30.22 0 0 0-1.7.06l.58.02c.9.03 1.59.06 2.4-.02 2.2-.2 4.3-.48 6.35-1.11.11-.04.14 0 .07.1a11.87 11.87 0 0 1-12.45 4.9 11.9 11.9 0 0 1-7.53-5.47c-.06-.1-.03-.14.08-.1 2.08.78 4.42 1.1 6.62 1.25.74.01 1.47.07 2.2.16.14.02.28 0 .4-.03.08-.01.07-.03 0-.03l-1.66-.2c-2.6-.2-5.12-.65-7.58-1.37a.58.58 0 0 1-.27-.15 1.2 1.2 0 0 1-.2-.28c-.37-.71-.65-1.45-.86-2.23-.02-.06 0-.08.06-.04l.98.56c.13.08.19.04.19-.1v-.1a.32.32 0 0 0-.19-.3c-.32-.16-1.2-.67-1.29-1.15v-.05a4.16 4.16 0 0 1-.09-1.76c.02-.06 0-.1-.03-.14a.16.16 0 0 1-.05-.13.12.12 0 0 1 .06-.09c2.2-1.4 4.9-2.01 7.53-2.27l.9-.07a.16.16 0 0 1 .16.1l.07.18c.03.08 0 .12-.07.13-1.48.13-2.95.4-4.4.82-.9.25-1.67.58-2.34.98a1.1 1.1 0 0 0-.32.28v.01a.02.02 0 0 0 .03 0c.53-.35 1.1-.63 1.7-.84 1.72-.58 3.54-.94 5.46-1.05.03 0 .06 0 .09.03l.06.1v.04c.01.02.01.04 0 .07 0 .02 0 .04-.02.06a.2.2 0 0 1-.06.05 6.54 6.54 0 0 0-2.91 1.1c-.42.3-.69.87-.34 1.36.15.21.4.43.77.66.2.13.51.19.92.17.27-.02.59-.01.93 0h1.1c.18 0 .5.01.98.05.12 0 .23 0 .34-.02a576.6 576.6 0 0 0-2-.51c-.56-.15-1.55-.57-1.57-1.23-.01-.59 1-.98 1.54-1.2l.14-.05a.07.07 0 0 0 .04-.04.07.07 0 0 0 0-.05l-.02-.05c-.02-.04 0-.07.02-.1.13-.1.23-.1.32.02.7.97 1.67 1.44 2.9 1.4a3.18 3.18 0 0 0 2.88-1.76.13.13 0 0 1 .13-.07c1.98.27 3.92.63 5.58 1.38.44.2.87.47 1.3.84.6.5.77 1.1.52 1.8-.02.05-.01.1.02.14l.3.39c.04.04.08.05.13 0 .9-.83.66-1.81-.17-2.56a5.93 5.93 0 0 0-1.96-1.07l-.03.02c-.02.02-.02.03 0 .04.88.3 1.56.84 2.05 1.6.1.15.13.42.08.81 0 .03-.02.04-.04.03-.03 0-.04-.01-.04-.03.08-.78-.63-1.43-1.21-1.78-1.84-1.1-4.34-1.58-6.46-1.81-.07-.01-.1-.05-.07-.11l.06-.25c.02-.07.07-.1.14-.1 2.28.14 4.5.6 6.63 1.37.34.12.76.33 1.28.62Zm-7.85-2.17c2.75.25 5.54.8 7.9 2.13l.42.24c.1.06.14.03.13-.08a11.89 11.89 0 0 0-4.1-8.52 11.55 11.55 0 0 0-7.72-2.9 11.7 11.7 0 0 0-8.92 3.99 11.73 11.73 0 0 0-2.98 7.24c0 .06.02.08.07.05 2.23-1.27 4.78-1.8 7.34-2.09l1.04-.1a.1.1 0 0 0 .03-.01.09.09 0 0 0 .04-.06v-.03c-.08-.46-.07-.93.04-1.4.15-.63.38-1.23.72-1.8a357.96 357.96 0 0 1 2.53-4.28.1.1 0 0 1 .1 0l.02.03 2.3 3.87c.66 1.13 1.16 2.29.93 3.57-.01.1.02.14.1.15Z" fill="#1188BF"/><path d="M31.31 25.13c-.41-1.42-.65-2.62-2.3-2.93.17-.44.14-.87-.08-1.27a56.54 56.54 0 0 0-.9-1.52.06.06 0 0 0-.05 0l-.02.02c-.31.51-.61 1.03-.9 1.55-.18.3-.22.65-.13 1.04a8.9 8.9 0 0 0-1.79 1.81c-.15.22-.24.41-.24.59a8.48 8.48 0 0 1-.08.7h-.04c-.02 0-.03-.02-.04-.04l-.03-1.35c.15-.62.38-1.22.72-1.8a358.05 358.05 0 0 1 2.53-4.27.09.09 0 0 1 .1 0l.02.03 2.3 3.87c.66 1.13 1.16 2.29.93 3.57Z" fill="#018ED4"/><path d="M15.42 20.18a.9.9 0 0 1-.27-.32c-.07-.13-.1-.27-.11-.43-.01-.16.01-.32.06-.48a1.6 1.6 0 0 1 1.03-1.04c.3-.08.6-.03.84.13.11.09.2.2.27.32.07.13.1.28.11.44.01.16 0 .32-.06.48a1.6 1.6 0 0 1-1.03 1.03c-.3.09-.6.04-.84-.13Z" fill="#fff"/><path d="M40.37 18.1c.1-.23.28-.24.54-.03.2.16.24.36.12.61l-.02.03a.07.07 0 0 1-.07 0 .07.07 0 0 1-.03-.01c-.08-.1-.1-.21-.07-.32.02-.05 0-.1-.06-.11l-.41-.17Z" fill="#EEFEFD"/><path d="M15.19 18.36c-.09.1-.13.33-.17.42-.06.13-.1.12-.14 0a.61.61 0 0 1 .1-.57c.14-.17.3-.25.52-.25.14 0 .15.05.05.13-.08.06-.29.17-.36.27ZM40.37 18.1l.43.6a.1.1 0 0 1 0 .1l-1 1.76c-.05.07-.1.07-.14.01l-.25-.32a.15.15 0 0 1-.02-.19l.2-.35a.11.11 0 0 0 0-.13l-.4-.49c-.03-.05-.08-.07-.14-.04l-.28.1c-.09.04-.17.02-.23-.06l-.24-.3c-.06-.08-.04-.13.05-.15l2.02-.54Z" fill="#fff"/><path d="M16.2 19.8a.68.68 0 1 0 0-1.37.68.68 0 0 0 0 1.37Z" fill="#018ED4"/><path d="m39.58 18.86.6-.2c.1-.02.11 0 .07.08l-.33.56a.07.07 0 0 1-.05.03h-.04a.08.08 0 0 1-.03-.02l-.25-.33c-.05-.06-.04-.1.03-.12Z" fill="#1188BF"/><path d="M29 22.2c-.46.87-1.74.78-2.07-.18a1.4 1.4 0 0 1 .12-1.04 65.86 65.86 0 0 1 .93-1.57.06.06 0 0 1 .08.02c.3.49.58.99.87 1.5.22.4.25.83.08 1.27ZM14.6 21.77c.5.22.88-.08 1.16-.88.03-.09.09-.12.17-.1l.1.03c.07.02.1.07.08.14-.22.78-.87 1.83-1.78 1.38-.92-.44-.5-1.6-.01-2.25.04-.06.1-.07.16-.03l.08.07c.07.05.08.11.03.18-.46.73-.46 1.2.02 1.46ZM41.33 22.19l1-.54a.14.14 0 0 1 .1 0 .13.13 0 0 1 .08.06l.14.27c.04.08.02.14-.06.18l-1.65.8c-.05.03-.09.02-.11-.03l-.22-.46a.16.16 0 0 1 0-.14l.73-1.34c.07-.12.04-.15-.09-.09l-1.02.54a.11.11 0 0 1-.15-.05l-.16-.3c-.04-.07-.02-.12.05-.16l1.65-.8c.06-.04.11-.02.14.04l.23.47c.02.06.02.1 0 .15l-.72 1.32c-.06.1-.04.13.06.08Z" fill="#fff"/><path d="M26.93 22.02c.33.96 1.61 1.05 2.08.18 1.65.31 1.89 1.51 2.3 2.93-.01.1.02.14.1.15 2.76.25 5.55.8 7.9 2.13l-.04.04a8.4 8.4 0 0 0-1.28-.62 24.14 24.14 0 0 0-6.63-1.37c-.07 0-.12.03-.14.1l-.06.25c-.02.06 0 .1.07.1 2.12.24 4.62.73 6.46 1.82.58.35 1.3 1 1.21 1.78 0 .02.01.03.04.04.02 0 .04-.01.04-.04.05-.39.02-.66-.08-.81a3.91 3.91 0 0 0-2.04-1.6c-.03 0-.03-.02 0-.04l.02-.02h.02c.83.3 1.48.66 1.94 1.07.83.75 1.08 1.73.17 2.57-.05.04-.09.03-.13-.01l-.3-.39a.14.14 0 0 1-.02-.14c.25-.7.08-1.3-.51-1.8a5.63 5.63 0 0 0-1.3-.84 20.25 20.25 0 0 0-5.67-1.36.13.13 0 0 0-.05.05 3.18 3.18 0 0 1-2.89 1.76 3.26 3.26 0 0 1-2.9-1.4c-.08-.12-.18-.12-.3-.02-.04.03-.05.06-.03.1l.02.05a.07.07 0 0 1-.04.09c-.48.2-1.7.6-1.68 1.25.02.66 1.01 1.08 1.58 1.22a559.07 559.07 0 0 1 2 .52c-.12.02-.23.03-.35.02-.47-.04-.8-.05-.99-.05-.75.03-1.5-.03-2.02 0-.4.02-.71-.04-.92-.17a2.68 2.68 0 0 1-.77-.66c-.35-.49-.08-1.07.34-1.37a6.54 6.54 0 0 1 2.91-1.1.2.2 0 0 0 .06-.04.16.16 0 0 0 .03-.06v-.07l-.01-.04a.21.21 0 0 0-.06-.1.13.13 0 0 0-.1-.03c-1.91.11-3.73.47-5.45 1.05a7.39 7.39 0 0 0-1.73.84v-.02c.09-.1.19-.2.32-.27.67-.4 1.45-.73 2.34-.98 1.45-.42 2.92-.7 4.4-.82.08-.01.1-.05.07-.13l-.07-.18a.16.16 0 0 0-.16-.1l-.9.07c-.03-.12-.09-.19-.17-.21l1.04-.1a.09.09 0 0 0 .08-.1c-.09-.46-.08-.93.03-1.4l.03 1.34c0 .03.02.04.05.04h.03c.01 0 .02 0 .02-.02.03-.23.05-.45.06-.68 0-.18.09-.37.24-.59a8.9 8.9 0 0 1 1.8-1.81Z" fill="#04A9E3"/><path d="M13.75 24.6h.79a.05.05 0 0 1 .05.08l-.02.02-.64.47a.05.05 0 0 0-.02.06l.24.76a.05.05 0 0 1-.02.06.05.05 0 0 1-.06 0l-.65-.46a.05.05 0 0 0-.06 0l-.64.46a.05.05 0 0 1-.09-.06l.24-.76a.05.05 0 0 0-.02-.06l-.63-.47a.05.05 0 0 1-.02-.06.05.05 0 0 1 .05-.03l.79-.01.03-.01.02-.03.25-.75a.05.05 0 0 1 .05-.03.05.05 0 0 1 .05.03l.26.75a.05.05 0 0 0 .05.04ZM42.88 24.6h.8a.05.05 0 0 1 .02.1l-.63.47-.02.03v.03l.23.76a.05.05 0 0 1-.04.07l-.03-.01-.65-.46a.05.05 0 0 0-.06 0l-.65.46a.05.05 0 0 1-.06 0 .05.05 0 0 1-.02-.06l.23-.76a.05.05 0 0 0-.02-.06l-.63-.47a.05.05 0 0 1 0-.08l.02-.01.8-.02a.05.05 0 0 0 .05-.03l.25-.75a.05.05 0 0 1 .1 0l.26.75s0 .02.02.02l.03.01Z" fill="#fff"/><path d="M13.6 24.8h.34a.05.05 0 0 1 .03.1l-.27.2c-.01 0-.02 0-.02.02v.03l.1.32a.05.05 0 0 1-.02.06h-.06l-.27-.2a.05.05 0 0 0-.06 0l-.28.2a.05.05 0 0 1-.08-.06l.11-.32a.05.05 0 0 0-.02-.06l-.27-.2a.05.05 0 0 1-.02-.06.05.05 0 0 1 .05-.03h.34a.05.05 0 0 0 .05-.04l.1-.32.02-.02a.05.05 0 0 1 .06 0l.02.02.1.33a.05.05 0 0 0 .05.03ZM42.52 24.43c.04 0 .08.09.13.27 0 .06.05.1.1.1l.28.01c.1 0 .1.04.03.09-.23.16-.3.3-.23.44.14.22.1.26-.12.11a4.4 4.4 0 0 1-.2-.13h-.01l-.02.01-.15.12c-.22.14-.26.1-.13-.12.08-.13 0-.28-.22-.44-.07-.05-.06-.08.03-.08l.27-.02c.07 0 .1-.03.12-.1.04-.17.08-.26.12-.26Z" fill="#CE282F"/><path d="M27.24 27.17c1.43 0 2.76-.61 3.36-1.96.02-.03.04-.04.06-.02.02.02.02.03.02.05-.29 1-.8 1.65-1.83 1.96a3.3 3.3 0 0 1-1.63.06c-.03-.01-.04-.03-.04-.06l.03-.03h.03Z" fill="#EEFEFD"/><path d="M31.32 27.05h-.01l-.01-.01h-.01v.01c.16.03.4.1.64.13.58.06 2.96.66 2.02 1.67-.16.18-.32.29-.48.34-.14.04-.15.01-.04-.08.3-.26.36-.58.2-.95-.23-.55-1.4-.88-1.94-.95a.81.81 0 0 1-.37-.16Z" fill="#018ED4"/><path d="M17.78 29.8v.3c-.02.2-.08.2-.16.04-.72-1.37.72-2.35 1.82-2.77.02-.01.04 0 .04.02l.01.05c-.32.15-.61.37-.9.68-.42.46-.5.97-.25 1.52a.09.09 0 0 1-.1.13l-.35-.08a.1.1 0 0 0-.11.1Z" fill="#04A9E3"/><path d="M32.83 28.78c-.01-.38-.08-.6-.44-.83a2.42 2.42 0 0 0-1.44-.36.02.02 0 0 1 0-.03l.01-.01c.72-.13 1.44-.01 2.15.35.19.1.3.24.35.42 0 .05 0 .1-.02.14a.83.83 0 0 1-.51.39c-.06.02-.1 0-.1-.07Z" fill="#018ED4"/><path d="M12.91 27.9c.95-.08 1.16 1.06 1.08 1.82 0 .07-.04.1-.11.1l-.1-.02c-.08 0-.12-.05-.11-.14.03-.8-.21-1.19-.71-1.16-.5.05-.67.47-.52 1.26.02.08-.01.13-.1.15l-.08.03c-.07.02-.11 0-.13-.07-.2-.74-.17-1.9.78-1.97ZM42.92 28.36l.21.01a.07.07 0 0 1 .07.08l-.05.81a.07.07 0 0 0 .06.08l.34.02a.07.07 0 0 0 .05-.02.07.07 0 0 0 .02-.05l.06-.91a.07.07 0 0 1 .07-.07l.2.01a.07.07 0 0 1 .07.08l-.1 1.5a.07.07 0 0 1-.07.06l-1.79-.11a.07.07 0 0 1-.06-.08l.09-1.46a.07.07 0 0 1 .07-.07l.22.02a.07.07 0 0 1 .06.07l-.05.87a.07.07 0 0 0 .05.07l.27.06a.07.07 0 0 0 .06-.02.07.07 0 0 0 .02-.05l.06-.84a.07.07 0 0 1 .07-.06Z" fill="#fff"/><path d="M27.63 28.65c.79.05 1.65 0 2.58-.18.04-.01.05 0 .03.02v.01c0 .01 0 .02-.02.03-1.38.53-3.14.3-4.52-.06a.02.02 0 0 1-.02-.02.02.02 0 0 1 .03-.02c.7.1 1.35.18 1.92.22Z" fill="#04A9E3"/><path d="M28.47 29.17c.75.05 1.57-.01 2.45-.18.05 0 .06 0 .04.02v.01c0 .01-.01.02-.03.02-1.3.52-2.98.32-4.3-.02V29l-.01-.02a.02.02 0 0 1 .02-.01c.68.1 1.29.16 1.83.2Z" fill="#1188BF"/><path d="M23.06 31.49v.58a.09.09 0 0 1-.09.08h-.85a.09.09 0 0 0-.1.1v.43a.09.09 0 0 0 .1.09H23a.09.09 0 0 1 .09.09v.53a.09.09 0 0 1-.1.1h-1.66a.09.09 0 0 1-.09-.1v-3.2a.09.09 0 0 1 .09-.09h1.67a.09.09 0 0 1 .09.1v.58a.09.09 0 0 1-.09.08h-.89a.09.09 0 0 0-.09.1v.35a.09.09 0 0 0 .1.1h.84a.09.09 0 0 1 .1.08ZM25.66 30.1a.8.8 0 0 1 .26.04c.05.01.09.05.1.1l.4 1.9c.04.2.09.2.13 0l.4-1.96c.01-.06.04-.08.1-.08h.68c.06 0 .08.03.07.08l-.85 3.21c-.01.06-.05.1-.11.1h-.56c-.06 0-.1-.03-.1-.1l-.48-1.99c0-.02-.02-.03-.04-.03s-.03 0-.04.03l-.48 2c0 .06-.04.08-.1.08h-.56c-.06 0-.1-.03-.12-.09l-.84-3.2c-.01-.07 0-.1.07-.1h.68c.06 0 .09.03.1.09l.4 1.95c.04.22.08.22.13 0l.4-1.88c.01-.06.05-.1.1-.11a.8.8 0 0 1 .26-.05ZM32.29 31.8c-.01 1.04 1.22 1.45 1.75.49a.1.1 0 0 1 .08-.05l.76.05h.01l.01.01a.03.03 0 0 1 0 .03c-.28.7-.74 1.1-1.37 1.2-1.1.15-2.09-.63-2.08-1.74.02-1.12 1.03-1.87 2.12-1.69.63.1 1.08.51 1.35 1.22a.03.03 0 0 1 0 .03.03.03 0 0 1-.03.01l-.76.03a.1.1 0 0 1-.08-.05c-.51-.97-1.75-.58-1.76.46Z" fill="#018ED4"/><path d="M42.86 30.8c.04 0 .07-.03.1-.07a.1.1 0 0 1 .06-.03l.71-.15c.09-.02.12.01.1.1l-.1.4a.16.16 0 0 1-.14.11c-.32.04-.8.02-.78.48 0 .06.03.1.09.1l.57.12a.07.07 0 0 1 .05.09l-.08.38c0 .07-.05.1-.12.08l-1.69-.35c-.06 0-.08-.04-.08-.1.08-.58.17-1.2.5-1.54a.4.4 0 0 1 .47-.07c.14.08.22.2.25.4 0 .05.04.07.1.06ZM14.32 30.7c.02-.04.06-.05.11-.03.28.1.4.31.36.66a.13.13 0 0 0 .08.13c.22.1.34.26.35.5 0 .06-.02.07-.06.03a2 2 0 0 1-.44-.5c-.04-.08-.09-.08-.13 0l-.02.03c0 .02-.02.02-.03.03h-.04c-.08-.03-.1-.08-.06-.16a.44.44 0 0 1 .09-.17c.06-.04.08-.07.06-.09l-.21-.26c-.1-.11-.13-.11-.11.01l.08.56a.14.14 0 0 1-.06.13l-1.47 1.05c-.09.07-.15.05-.17-.07l-.07-.3a.2.2 0 0 1 .1-.23l.25-.18a.11.11 0 0 0 .04-.12l-.11-.56c-.01-.05-.04-.07-.08-.08l-.39-.08c-.06-.01-.1-.05-.11-.1l-.08-.36c-.02-.08.01-.11.1-.1l1.9.31a.1.1 0 0 0 .12-.05Z" fill="#fff"/><path d="M38.34 33.05a1.76 1.76 0 1 0-2.49-2.48 1.76 1.76 0 0 0 2.49 2.48Zm-1.22-.22c-.52.02-.96-.43-.97-1-.02-.57.4-1.04.91-1.05.53-.01.96.43.98 1 .01.57-.4 1.04-.92 1.05Z" fill="#018ED4"/><path d="M42.05 31.55a.12.12 0 0 1-.09-.14l.05-.19.05-.14a.47.47 0 0 1 .09-.11.28.28 0 0 1 .1-.07.17.17 0 0 1 .1 0l.05.01c.03 0 .06.03.09.05l.05.1c.02.05.02.1.02.14 0 .05 0 .1-.02.16l-.04.18a.12.12 0 0 1-.14.08l-.31-.07ZM13.85 31.27l-.47.32c-.06.04-.1.02-.11-.05l-.1-.36a.07.07 0 0 1 .02-.06.07.07 0 0 1 .06-.02l.58.08c.08.01.09.04.02.09Z" fill="#1188BF"/><path fill-rule="evenodd" d="M29.8 30.13a1.14 1.14 0 0 0-.5 0 .16.16 0 0 0-.12.1l-1.23 3.11c-.04.1 0 .14.1.14h.6c.1 0 .15-.04.18-.12l.09-.28c0-.03.05-.06.13-.07a8.76 8.76 0 0 1 1 0c.08.02.13.04.14.07l.09.28c.02.08.08.13.17.13h.61c.1 0 .13-.05.1-.14l-1.23-3.12a.16.16 0 0 0-.12-.1Zm-.3 1.12-.3 1a.06.06 0 0 0 0 .06.06.06 0 0 0 .06.02h.6a.06.06 0 0 0 .05-.02.06.06 0 0 0 0-.05l-.29-1a.06.06 0 0 0-.02-.04.06.06 0 0 0-.1.03ZM20.22 31.75c.4.17.55.53.44.95-.12.47-.44.73-.97.77-.34.02-.8.02-1.37.01-.05 0-.08-.03-.08-.08v-3.2a.09.09 0 0 1 .1-.1h.34c.59-.01 1.11-.02 1.48.23.5.33.47.92.04 1.31-.05.05-.04.09.02.11Zm-1.2-.82a.1.1 0 0 1 .1-.06h.35l.1.01.09.05.06.07.02.09v.09a.2.2 0 0 1-.08.15.3.3 0 0 1-.19.07h-.35a.1.1 0 0 1-.07-.03.1.1 0 0 1-.03-.07v-.33a.1.1 0 0 1 0-.04Zm.04 1.22a.12.12 0 0 0-.04.08v.42a.12.12 0 0 0 .12.12h.4c.1 0 .19-.04.26-.09.06-.05.1-.13.1-.2v-.08a.23.23 0 0 0-.03-.11.29.29 0 0 0-.08-.1.38.38 0 0 0-.11-.05.44.44 0 0 0-.14-.03h-.4a.12.12 0 0 0-.08.04Z" fill="#018ED4"/><path d="m42.87 33.9-.1.21c-.04.05-.08.06-.13.04l-1.21-.52a.13.13 0 0 0-.14.03.13.13 0 0 0-.03.04l-.19.43c-.04.09-.1.11-.2.07l-.04-.02a.14.14 0 0 1-.08-.19 91.8 91.8 0 0 1 .7-1.67.14.14 0 0 1 .11 0l.06.01c.09.03.12.1.09.2l-.16.43a.13.13 0 0 0 .07.16l1.24.45c.06.02.08.06.07.11l-.06.22ZM13.78 33.65c-.02-.07-.07-.1-.14-.06l-.45.2c-.06.02-.1 0-.13-.05l-.15-.35c-.03-.05 0-.1.05-.12l1.58-.7c.06-.02.1 0 .13.05.26.47.75 1.44.24 1.81-.53.38-.97-.32-1.13-.78Z" fill="#fff"/><path d="M14.48 33.26a.12.12 0 0 1 .1 0 .13.13 0 0 1 .06.06l.05.11a.7.7 0 0 1 .05.17v.16c0 .05-.02.09-.05.12a.2.2 0 0 1-.08.08l-.04.01c-.07.03-.15.02-.24-.04a.62.62 0 0 1-.2-.26l-.04-.11a.13.13 0 0 1 .06-.17l.33-.13ZM36.16 33.95c-.13.04-.38.1-.76.16-1.23.2-1.98.32-2.26.38-.64.1-2.01.2-4.1.27-1.57.05-3.02 0-4.38-.16a34.22 34.22 0 0 0-1.64-.17l-.01-.04c0-.02 0-.03.03-.03.35-.02.7-.01 1.04.02 1.74.16 3.52.12 5.26.14.21 0 1.14-.05 2.78-.14 1.04-.06 2.18-.23 3.29-.32l.46-.12a.98.98 0 0 1 .49-.02c.1.03.1.04 0 .04l-.07-.01a.23.23 0 0 0-.13 0Z" fill="#1188BF"/><path d="m41 35.98-.92-.56a.13.13 0 0 1-.05-.08.12.12 0 0 1 .01-.1l.16-.24c.05-.07.1-.08.17-.04l1.45.98c.04.03.05.06.02.1l-.27.4a.15.15 0 0 1-.12.07l-1.44.03c-.14 0-.15.04-.03.12l.92.58a.1.1 0 0 1 .03.14l-.17.28c-.03.07-.09.08-.15.03l-1.45-.97c-.05-.03-.06-.08-.02-.13l.28-.41a.15.15 0 0 1 .12-.07l1.42-.04c.11 0 .12-.03.03-.09ZM16.3 35.78l.47.71c.02.04.03.07.03.11-.01.04-.03.07-.06.1l-.05.03c-.08.06-.15.04-.2-.04l-.28-.38a.13.13 0 0 0-.18-.03l-1.07.76c-.05.04-.1.03-.13 0a1.36 1.36 0 0 1-.26-.4c-.02-.05 0-.09.04-.12l1.12-.7a.13.13 0 0 0 .04-.17l-.25-.4c-.05-.08-.03-.15.05-.2l.05-.03a.14.14 0 0 1 .11-.02c.04 0 .07.03.1.06l.47.72ZM38.4 37.06l.07.03c.05.04.06.08.03.13a.2.2 0 0 1-.12.07c-.22.03-.33.16-.33.4a.1.1 0 0 1-.02.05.1.1 0 0 1-.05.03l-.06.03c-.03.01-.05 0-.06-.04-.06-.33.05-.56.35-.69.05-.02.07-.05.06-.1-.06-.26 0-.46.22-.6.05-.04.07-.02.07.04-.02.2-.08.39-.18.55-.02.04-.02.07.02.1ZM16.3 37.45l.62-.56c.07-.05.11-.07.13-.04l.28.31c.04.04.04.07 0 .1l-.44.46a.07.07 0 0 0 0 .1 19.41 19.41 0 0 0 .58.6c.01 0 .03 0 .05-.02L18 38c.03-.03.07-.03.1 0l.29.31c.02.03 0 .07-.05.13a31.04 31.04 0 0 1-1.24 1.14c-.07.05-.11.07-.14.04l-.28-.31c-.03-.04-.03-.07 0-.1l.45-.46a.07.07 0 0 0 0-.1 20.27 20.27 0 0 0-.58-.6c-.02 0-.03 0-.05.02l-.49.4c-.04.03-.07.03-.1 0l-.3-.31c-.01-.03 0-.07.06-.13l.62-.58ZM39.52 37.67a.2.2 0 0 1 .06.1c.02.05 0 .1-.04.15l-.44.44a.18.18 0 0 0 0 .26l.07.08c.08.07.15.07.23 0l.57-.57c.05-.06.1-.06.16 0l.07.08c.07.06.07.13 0 .19l-.97.97a.09.09 0 0 1-.11 0 36.19 36.19 0 0 1-1.29-1.2c0-.02 0-.04.02-.05l.88-1.06c.05-.07.12-.08.19-.02l.09.07c.05.05.06.1.01.16l-.51.62c-.07.08-.06.16.02.22l.08.07a.19.19 0 0 0 .14.04.18.18 0 0 0 .12-.06l.4-.49a.15.15 0 0 1 .15-.05.2.2 0 0 1 .1.05ZM37.76 39.24c-.01.07.02.1.1.1.6-.09.73.44.4.84a3.99 3.99 0 0 1-1.06.88.07.07 0 0 1-.04-.03l-1.05-1.33c-.06-.07-.05-.14.02-.2.25-.25 1.31-1.21 1.63-.63.03.06.03.18 0 .37ZM20.13 40.87a.92.92 0 0 1-.72.36c-.3.02-.62-.08-.89-.27-.13-.1-.25-.22-.34-.35a1.3 1.3 0 0 1-.2-.41 1.03 1.03 0 0 1-.03-.43.84.84 0 0 1 .15-.37.92.92 0 0 1 .71-.36 1.52 1.52 0 0 1 1.23.62c.1.13.17.27.2.41.05.15.06.3.04.43a.84.84 0 0 1-.15.37Z" fill="#fff"/><path d="M36.71 39.56a.1.1 0 0 1 .01-.15l.08-.07.15-.11.14-.07a.31.31 0 0 1 .12-.01c.04 0 .07.01.08.03l.04.04c.03.04.03.11 0 .2a.83.83 0 0 1-.2.27l-.1.07a.1.1 0 0 1-.14 0l-.18-.2Z" fill="#1188BF"/><path d="M18.61 39.73c-.23.3-.2.7.08.92.27.22.68.17.91-.12.24-.29.2-.7-.07-.92a.65.65 0 0 0-.92.12Z" fill="#018ED4"/><path d="M37.2 40.16a.12.12 0 0 1 .02-.16l.01-.02c.13-.1.27-.17.4-.2.12-.04.21-.03.25.03l.02.02c.02.03.03.07.03.11a.4.4 0 0 1-.05.15 1.35 1.35 0 0 1-.3.33l-.01.02a.12.12 0 0 1-.13.01.12.12 0 0 1-.04-.03l-.2-.26Z" fill="#1188BF"/><path d="M22.04 40.58c.24.02.44-.02.45-.1 0-.08-.18-.16-.41-.19-.24-.02-.44.02-.45.1 0 .08.18.16.41.19ZM33.68 41.93c-.42-.86.57-1.47 1.3-1.68.07-.02.12 0 .13.08l.03.09c.02.08-.01.13-.09.16-.76.27-1.04.63-.83 1.09.23.44.69.45 1.37.01.07-.04.13-.03.18.04l.06.07c.04.06.03.1-.02.15-.62.45-1.71.85-2.13 0ZM21.77 40.61l.27.15c.05.02.07.06.07.12l-.12 1.89c0 .05-.03.07-.09.06-.1-.02-.24-.1-.43-.23a.13.13 0 0 1-.04-.15c.07-.17.06-.32-.05-.44a6.63 6.63 0 0 0-.47-.23c-.16 0-.28.07-.37.23a.13.13 0 0 1-.15.06 1.4 1.4 0 0 1-.44-.2c-.05-.04-.05-.07 0-.1l1.41-1.26a.12.12 0 0 1 .14-.02l.27.12ZM32.1 41.28c.17-.13.27-.3.21-.36-.05-.07-.23-.02-.4.1-.17.13-.27.3-.22.36.06.07.24.02.4-.1Z" fill="#fff"/><path d="M32.84 41.3a.48.48 0 0 0-.01-.21.11.11 0 0 1 .06-.14l.15-.06c.06-.02.12 0 .16.05.12.15.1.34-.09.56a.11.11 0 0 0 0 .14c.4.56.36 1.05-.15 1.47-.42.34-1.2.47-1.65.13-.47-.34-.47-1.02-.07-1.41.48-.47.88-.43 1.5-.45.06 0 .1-.03.1-.08Z" fill="#fff"/><path d="M21.52 40.99c.06-.06.1-.05.08.04l-.05.6a.07.07 0 0 1-.03.06.07.07 0 0 1-.07 0l-.35-.18c-.06-.03-.07-.07-.01-.12l.43-.4Z" fill="#1188BF"/><path d="M22.99 43.22a1.35 1.35 0 0 1-.2-.09c-.06-.02-.08-.07-.06-.12l.46-1.24a.13.13 0 0 0-.08-.17l-.44-.15c-.1-.04-.13-.1-.1-.2l.03-.05a.15.15 0 0 1 .18-.09 123.8 123.8 0 0 1 1.64.54c.03.01.06.04.08.07.02.04.02.07.01.11l-.01.05c-.03.1-.1.13-.19.1l-.45-.13a.13.13 0 0 0-.16.09l-.37 1.27c-.02.05-.05.08-.11.07a1.37 1.37 0 0 1-.23-.06ZM30.24 41.75a.25.25 0 0 1-.03-.08.27.27 0 0 1 .07-.11.26.26 0 0 1 .12-.07.22.22 0 0 1 .12 0 .2.2 0 0 1 .1.07c.2.26-.1.43-.3.53a.11.11 0 0 0-.07.12c.05.5.21 1.18-.23 1.47-.5.33-1.52.45-1.74-.3-.06-.16-.1-.55-.13-1.17-.01-.1.04-.16.14-.17l.22-.02c.11 0 .17.04.19.16l.1 1c.04.28.2.42.5.41h.03c.3-.04.45-.2.42-.5l-.1-1.06a.13.13 0 0 1 .15-.14c.14.02.28 0 .4-.06.04-.01.05-.04.04-.08Z" fill="#fff"/><path d="M32.17 43.06a.66.66 0 1 0 0-1.3.66.66 0 0 0 0 1.3Z" fill="#018ED4"/><path d="m27.09 43.23.05-1.07a.13.13 0 0 1 .09-.11h.04l.3.01c.08 0 .12.05.11.13l-.15 1.75c0 .05-.03.07-.09.07l-.48-.05a.15.15 0 0 1-.12-.07l-.72-1.25c-.07-.12-.1-.11-.11.02l-.07 1.1a.1.1 0 0 1-.11.1l-.33-.02c-.07 0-.1-.04-.1-.12l.15-1.74c.01-.06.05-.1.1-.09l.5.05c.06 0 .1.03.13.08l.71 1.23c.06.1.1.09.1-.02Z" fill="#fff"/></svg>