<!-- by TradingView --><svg width="56" height="56" viewBox="0 0 56 56" xmlns="http://www.w3.org/2000/svg"><path fill="#F0F3FA" d="M0 0h56v56H0z"/><path d="M28.95 11c8.92.63 15.6 7.28 16.05 15.9v1.18l-.28 2.39a17.33 17.33 0 0 1-3.78 2.67c1.46-3.3 1.65-6.59.57-9.84-2.12-6.44-8.84-10.47-15.75-9.4-3.5.54-6.77 2.4-8.95 5.14a13.36 13.36 0 0 0-2.37 12.49 13.93 13.93 0 0 0 4.19 6.3l-2.33 1.63a16.18 16.18 0 0 1 .1-24.04A16.95 16.95 0 0 1 27.02 11h1.92Z" fill="#F7941C"/><path d="m24.64 12.16.72 1.2c.03.05.01.09-.05.1l-.42.14a.17.17 0 0 1-.18-.04l-.16-.16c-.05-.04-.08-.03-.1.03a.34.34 0 0 0-.02.18c.02.07-.02.12-.1.13l-.5.09c-.07 0-.1-.02-.1-.08v-1.57c0-.05.02-.09.06-.12a.89.89 0 0 1 .28-.16c.05-.01.1-.04.13-.08.2-.2.43-.23.69-.07.06.04.06.08 0 .12l-.2.11c-.08.04-.1.1-.05.18ZM31.59 12.15v1.46c0 .05-.03.07-.07.06l-.44-.07c-.1-.02-.14-.07-.13-.16.02-.08-.01-.13-.08-.17-.06-.04-.1-.02-.12.05a.24.24 0 0 1-.05.12.13.13 0 0 1-.13.05l-.52-.09a.05.05 0 0 1-.04-.04v-.03l.63-1.45a.2.2 0 0 1 .1-.1c.24-.12.5-.08.74.1.05.02.1.02.13-.01.19-.15.41-.16.68-.03l.03.02a.05.05 0 0 1-.01.06l-.03.01-.58.1a.14.14 0 0 0-.08.04.13.13 0 0 0-.03.08ZM29.14 12.96v-.16c0-.04.02-.07.06-.07h.52c.06 0 .1.03.1.1.06.62-.86.54-1.25.43-.43-.13-.32-.65-.26-1.03.08-.58.88-.5 1.27-.34.3.12.33.29.28.56 0 .04-.04.07-.08.07h-.5c-.06 0-.09-.03-.09-.1v-.26c0-.04-.02-.07-.07-.07h-.08l-.05.02a.07.07 0 0 0-.02.05v.8c0 .03 0 .05.03.05.01.02.04.02.08.02.04-.01.06-.03.06-.07ZM26.46 12.33c.04.06.07.05.08-.03a2.44 2.44 0 0 0-.05-.4.1.1 0 0 1 .05-.05.1.1 0 0 1 .04-.01l.38-.04a.1.1 0 0 1 .08.02.1.1 0 0 1 .03.07l.13 1.3c0 .06-.03.1-.1.1l-.39.04a.14.14 0 0 1-.14-.07 3.8 3.8 0 0 0-.24-.37c-.06-.06-.09-.05-.08.02l.05.36c.02.06-.02.1-.09.1l-.37.04c-.07 0-.11-.02-.12-.1l-.12-1.3c0-.05.02-.08.08-.09l.4-.03c.06 0 .1.01.14.06l.24.38Z" fill="#fff"/><path d="m31.28 12.11-.4-.06c-.12-.02-.12-.04 0-.07.15-.04.3-.02.43.07l.01.02v.02l-.01.02h-.03ZM24.2 12.23c.13-.03.24-.08.23-.11-.01-.03-.13-.02-.26.01-.13.04-.23.09-.23.12.01.03.13.02.26-.02Z" fill="#F7941C"/><path d="M32.92 13.47c-.07-.03-.11 0-.13.06l-.1.32c-.03.1-.1.13-.2.1l-.3-.09c-.12-.03-.16-.1-.13-.22l.36-1.16c.02-.05.05-.07.11-.07.17.02.34.07.53.15.24.1.7.18.66.52-.03.28-.15.44-.36.48h-.13l-.31-.1ZM22.6 13.6c-.06.03-.03.2.11.53.03.05 0 .1-.05.12l-.45.17c-.06.02-.1 0-.12-.05l-.47-1.19c-.04-.08 0-.15.08-.18l.38-.14c.1-.03.15 0 .18.1.07.24.14.35.21.32.08-.02.06-.15-.07-.38-.05-.09-.02-.15.08-.19l.37-.14c.09-.03.15 0 .19.09l.47 1.18c.02.05 0 .09-.05.11l-.45.17c-.06.02-.1 0-.13-.06-.12-.33-.21-.48-.28-.46Z" fill="#fff"/><path d="M31.01 12.61c0 .06 0 .19-.02.37 0 .02-.02.04-.05.03h-.06c-.06-.02-.07-.05-.05-.1l.13-.3c.03-.07.04-.06.05 0ZM24.4 12.8l.1.25c.01.05 0 .08-.06.1h-.07c-.06-.05-.08-.16-.05-.35 0-.1.03-.1.07 0ZM33.02 12.95c.14-.07.19-.03.14.12 0 .04-.06.07-.15.08-.06.02-.1-.01-.09-.08 0-.05.04-.09.1-.12Z" fill="#F7941C"/><path d="M35.02 14.48c0-.08-.02-.08-.07-.02a2.53 2.53 0 0 0-.2.35.1.1 0 0 1-.07.03.1.1 0 0 1-.04-.01l-.34-.18a.1.1 0 0 1-.05-.05.1.1 0 0 1 0-.08l.65-1.15c.03-.06.07-.07.13-.04l.35.17c.05.03.08.08.08.14v.44c.01.08.04.08.07.02l.16-.33c.03-.06.08-.08.14-.04l.33.17c.06.03.08.08.05.14l-.64 1.16c-.03.05-.07.06-.12.04l-.36-.19a.13.13 0 0 1-.08-.12l.01-.45ZM20.97 14.45l.17.29c.06.09.04.16-.05.2l-.28.16c-.1.06-.2.04-.26-.07L19.93 14c-.03-.05-.02-.1.02-.13.13-.1.29-.2.48-.27.24-.1.61-.37.84-.1.2.2.23.4.12.58a.25.25 0 0 1-.1.08l-.28.16c-.06.04-.07.08-.04.14Z" fill="#fff"/><path d="M20.72 13.98c.06.07.14.1.18.08.03-.03.02-.1-.04-.18-.05-.08-.13-.12-.17-.09-.04.03-.03.11.03.19Z" fill="#F7941C"/><path d="M18.23 14.38a.73.73 0 0 1-.21.16c-.06.04-.1.02-.08-.05.02-.15.13-.27.35-.37a.15.15 0 0 1 .16.02l.05.06v.08l-.07.41a.13.13 0 0 1-.1.1c-.27.1-.48.25-.6.45-.04.05-.07.05-.09-.02-.04-.17.01-.3.16-.4a14.75 14.75 0 0 0 .52-.4l-.03-.03c-.02-.03-.04-.04-.06-.01ZM36.53 15.53c-.03.04-.02.07.03.1l.07.02.05-.01.64-.88a.11.11 0 0 1 .04-.03l.05-.01a.15.15 0 0 1 .1.03l.29.22a.1.1 0 0 0 .06.02l.06-.02a.18.18 0 0 0 .05-.07.13.13 0 0 1 .13-.06.3.3 0 0 1 .2.14.15.15 0 0 1-.06.22.17.17 0 0 1-.08.02h-.24c-.05 0-.1.02-.13.06l-.52.63c-.17.2-.37.24-.6.12a2.4 2.4 0 0 1-.5-.35c-.25-.22-.26-.46-.06-.71l.57-.69c.04-.05.08-.06.12-.03l.4.32a.1.1 0 0 1 .02.13l-.69.83ZM19.35 15.4a.46.46 0 0 1-.07.66l-.43.33a.5.5 0 0 1-.68-.07l-.38-.45a.46.46 0 0 1 .08-.66l.42-.33a.49.49 0 0 1 .35-.1.5.5 0 0 1 .33.17l.38.45Z" fill="#fff"/><path d="M28.2 14.9c2.85 4.28 3.75 9.42 1.83 14.23-.04.08-.05.08-.06 0-.16-4.14-2.06-7.31-5.71-9.52a.03.03 0 0 1-.02-.02l.01-.02 3.84-4.67c.04-.05.08-.05.11 0Z" fill="#0C4DA2"/><path d="M18.28 15.25h-.01a.07.07 0 0 0-.02.11l.5.63c.02.04.07.04.1.02h.01a.07.07 0 0 0 .02-.12l-.5-.62a.08.08 0 0 0-.1-.02Z" fill="#F7941C"/><path d="M39.43 15.9a1.42 1.42 0 0 1-.44-.16c-.17-.13-.15-.19.07-.17.34.02.53.24.56.65a.1.1 0 0 1-.01.07.1.1 0 0 1-.06.03l-.15.02a.18.18 0 0 0-.12.08c-.37.53-.77 1.14-1.35.65-.38-.32-.67-.6-.27-1.03.25-.28.42-.44.5-.48.06-.03.11-.04.17-.03.3.05.55.22.76.52a.1.1 0 0 0 .13.03l.22-.12c.05-.03.05-.05-.01-.06Z" fill="#fff"/><path d="M29.3 15.98a22.21 22.21 0 0 1 7.06 15.88c.03 2.41-.31 4.9-1.23 7.14a.13.13 0 0 1-.11.08 9.2 9.2 0 0 1-2.73-.01l-3.3-.5c-2.58-.37-4.14-.62-6.28-.06-.17.04-.18.01-.04-.09 5.21-3.69 9.23-9.23 8.68-15.76-.2-2.38-.9-4.6-2.1-6.64-.07-.12-.05-.13.04-.04Z" fill="#00A1E4"/><path d="m17.07 16.92.3.3c.03.02.06.02.1 0a.08.08 0 0 0 .03-.05v-.05a.62.62 0 0 0-.12-.18c-.06-.05-.06-.1 0-.16l.3-.3c.07-.06.12-.06.18 0 .57.5-.5 1.47-.96 1.19a2.11 2.11 0 0 1-.32-.3 2.02 2.02 0 0 1-.29-.32c-.27-.46.77-1.44 1.27-.88.06.06.05.12 0 .17l-.33.29c-.06.05-.12.05-.17 0a.61.61 0 0 0-.17-.13.08.08 0 0 0-.1.02c-.03.04-.03.07-.01.1.04.05.14.16.29.3Z" fill="#fff"/><path d="M38.7 16.04v-.01a.08.08 0 0 0-.11 0l-.57.6a.07.07 0 0 0 0 .1l.01.01c.03.03.08.03.1 0l.58-.6a.07.07 0 0 0 0-.1Z" fill="#F7941C"/><path d="M39.41 18.15c.06.04.15.01.27-.09a.1.1 0 0 1 .13.01l.33.32a.1.1 0 0 1 0 .14c-.5.5-1.08-.24-1.25-.62a.33.33 0 0 1 .08-.37l.51-.44c.5-.4 1.04.24 1.18.64.09.26-.04.4-.21.55-.04.04-.08.04-.12 0l-.34-.32c-.05-.05-.05-.1 0-.16l.2-.18a.06.06 0 0 0 0-.04v-.04l-.04-.03c-.04-.04-.08-.04-.12 0l-.62.5c-.05.04-.05.08 0 .13ZM16.05 19.23l-.13.16c-.04.05-.08.05-.12.02-.36-.24-.8-.37-1.33-.4-.12 0-.15-.05-.07-.14l.26-.32c.04-.04.09-.06.14-.03.2.07.31.1.33.07.02-.02-.04-.12-.18-.28-.04-.04-.04-.09 0-.14l.22-.34c.07-.1.13-.09.17.02.19.48.46.84.8 1.09.05.03.06.07.03.12 0 .02-.05.07-.12.17ZM40.98 19.93a2.65 2.65 0 0 0-.35.2.1.1 0 0 1-.08-.01.1.1 0 0 1-.02-.03l-.2-.32a.1.1 0 0 1 0-.11.1.1 0 0 1 .04-.03l1.17-.65c.06-.03.1-.02.14.04l.2.32c.03.06.02.1-.01.16l-.24.37c-.03.08-.01.1.05.06l.31-.2c.06-.04.1-.03.14.03l.19.32c.04.06.02.1-.04.14l-1.17.66c-.05.02-.1.01-.12-.03l-.2-.34a.13.13 0 0 1 0-.15l.25-.37c.04-.07.02-.08-.06-.06ZM15.17 20.59l-.13.2a.12.12 0 0 1-.14.02l-.89-.47c-.06-.03-.1-.02-.14.03a.3.3 0 0 0-.04.12.11.11 0 0 1-.05.08c-.07.04-.15.02-.24-.07a.11.11 0 0 1-.02-.13 53.87 53.87 0 0 0 .59-1.02.12.12 0 0 1 .05-.05.12.12 0 0 1 .08 0c.12.02.18.07.18.16a.1.1 0 0 1 0 .04l-.04.04a.32.32 0 0 0-.08.1c-.03.05-.02.1.04.13l.88.48a.11.11 0 0 1 .06.13c0 .03-.04.1-.1.21ZM42.4 21.5c.04.07.17.05.4-.08.1-.05.16-.03.2.06l.16.36c.04.08.01.15-.08.19l-1.21.5c-.06.02-.1 0-.12-.05l-.2-.43c-.02-.06 0-.1.06-.12.34-.13.5-.23.47-.29-.03-.06-.21-.02-.54.12-.06.03-.1.02-.13-.04l-.2-.43c-.02-.05 0-.1.06-.12l1.2-.5c.1-.04.16-.01.2.07l.16.36c.04.1.01.15-.09.18-.25.08-.37.15-.33.22ZM13 22.35c.04.05.1.09.17.1l.52.17c.22.09.26.03.14-.17l-.18.03a.28.28 0 0 1-.14.01.16.16 0 0 1-.07-.05.12.12 0 0 1-.02-.14l.19-.44c.03-.08.1-.1.18-.08l.53.18c.1.03.11.1.06.18-.07.13-.17.3-.19.5a.8.8 0 0 1-.4.62.18.18 0 0 1-.15.03 4.49 4.49 0 0 1-.84-.3c-.49-.23-.02-1.62.65-1.32.06.03.08.07.05.13l-.16.39a.1.1 0 0 1-.1.06h-.18c-.08 0-.1.03-.05.1ZM43.76 22.55a.27.27 0 0 1 .03-.06.07.07 0 0 1 .05-.03l.02.01.02.02c.1.28.09.49-.06.63-.05.04-.08.03-.1-.02-.07-.13-.06-.27 0-.43l.04-.12ZM43.57 23.11c.04.14.08.24.12.31.03.08.01.13-.06.17l-1.2.68c-.06.03-.1.01-.12-.04l-.15-.46c-.01-.05 0-.08.05-.1.14-.1.2-.16.18-.22-.02-.05-.1-.08-.27-.08-.05 0-.08-.01-.1-.06l-.14-.46c-.02-.06 0-.09.07-.1l1.4-.08c.08 0 .13.04.14.12l.08.32Z" fill="#fff"/><path d="M43.06 23.26a.94.94 0 0 1-.35.19c-.05 0-.08 0-.1-.05-.02-.07 0-.11.08-.13l.35-.05h.02l.01.01v.02Z" fill="#F7941C"/><path d="M13.16 24.37c-.07.02-.07.05 0 .08a2.72 2.72 0 0 0 .4.09.1.1 0 0 1 .03.02.1.1 0 0 1 .02.08l-.09.36a.1.1 0 0 1-.04.06.1.1 0 0 1-.08.01l-1.32-.3c-.06 0-.08-.05-.07-.1l.09-.38c.01-.06.05-.1.11-.1.27-.07.41-.1.44-.12.08-.03.08-.06 0-.07l-.36-.07c-.07 0-.1-.04-.08-.11l.08-.35c.02-.07.06-.1.14-.08l1.31.3c.06 0 .08.04.07.1l-.1.38a.13.13 0 0 1-.1.1l-.45.1ZM43.45 26.58c-.08.15-.24.21-.47.2-.19-.02-.3-.13-.32-.33l-.11-.88c-.03-.17.06-.27.26-.28l1.2-.1c.08 0 .12.03.12.1v1.05c0 .06-.02.13-.06.18-.04.05-.1.1-.16.12-.16.06-.27.04-.33-.06-.05-.06-.09-.06-.13 0ZM13.37 26.48a.48.48 0 0 1-.17.34.5.5 0 0 1-.37.11l-.57-.04a.51.51 0 0 1-.34-.17.48.48 0 0 1-.13-.35l.04-.49a.47.47 0 0 1 .17-.33.51.51 0 0 1 .37-.12l.57.04c.14.01.26.07.35.17.09.1.13.22.12.35l-.04.5Z" fill="#fff"/><path d="M20.37 26.07c.02-.15.01-.31-.01-.48-.01-.05.01-.07.06-.07h.37c.05 0 .08.02.08.07v1.44c0 .05-.03.08-.09.08h-.36c-.05 0-.1-.02-.11-.07l-.22-.48c-.06-.13-.09-.13-.09.02v.46c0 .05-.02.07-.07.07h-.35c-.05 0-.07-.02-.07-.07v-1.42c0-.07.03-.1.1-.1h.34c.03 0 .05 0 .07.02l.05.05.22.5c.04.1.07.1.08-.02ZM21.95 26.09c.1.01.13-.15.1-.48a.08.08 0 0 1 .01-.07.09.09 0 0 1 .07-.02h.42c.06 0 .1.03.1.1v1.4c0 .03-.01.05-.03.06a.1.1 0 0 1-.06.03h-.41c-.07 0-.1-.03-.1-.1.03-.4 0-.6-.1-.6-.09 0-.12.2-.1.6 0 .07-.03.1-.1.1h-.4a.1.1 0 0 1-.07-.03.08.08 0 0 1-.02-.05v-1.41c0-.07.03-.1.1-.1h.42a.09.09 0 0 1 .06.02.08.08 0 0 1 .02.07c-.04.33 0 .5.1.48ZM27.68 26.31v.05c-.01.06-.05.1-.11.1h-.3a.08.08 0 0 0-.06.02.08.08 0 0 0-.02.05v.17c0 .07.03.1.1.1h.43c.03 0 .05.01.08.03a.1.1 0 0 1 .03.07v.1c0 .07-.04.1-.1.1h-1.08a.08.08 0 0 1-.05-.02.07.07 0 0 1-.03-.05 19.72 19.72 0 0 0 0-1.46.07.07 0 0 1 .04-.04h.03l1.07-.02c.07 0 .1.04.1.1v.1a.1.1 0 0 1-.07.1l-.03.01h-.42c-.07 0-.1.04-.1.1v.17a.08.08 0 0 0 .05.08H27.57c.06 0 .1.03.1.09v.05Z" fill="#0C4DA2"/><path d="m11.68 26.12.07.43c.02.1 0 .11-.08.04-.27-.27-.32-.56-.13-.85.18-.27.26-.25.26.07 0 .02-.03.07-.1.17a.2.2 0 0 0-.02.14Z" fill="#fff"/><path d="M43.58 25.88c.05-.06.12-.06.2-.03a.1.1 0 0 1 .05.05.1.1 0 0 1-.01.11.1.1 0 0 1-.05.03h-.13a.1.1 0 0 1-.07-.07v-.05l.01-.04Z" fill="#F7941C"/><path fill-rule="evenodd" d="M24.06 25.54a2.35 2.35 0 0 0-.74 0c-.07.02-.11.06-.12.13l-.22 1.38c0 .05.02.07.07.07l.42-.01c.06 0 .09-.03.1-.08.01-.15.06-.23.13-.23s.12.07.14.23c0 .05.04.08.1.08h.42c.05 0 .07-.03.06-.07l-.23-1.38c-.02-.07-.06-.1-.13-.12Zm-.26.9c-.04-.13-.04-.22 0-.27v-.03c0-.01-.01-.02-.03-.02h-.04a.09.09 0 0 0-.04.02c-.08.07-.1.2-.07.36 0 .04.03.06.07.06h.05a.1.1 0 0 0 .05-.05.09.09 0 0 0 .01-.07Z" fill="#0C4DA2"/><path d="m13 26.13-.82-.07c-.05 0-.1.03-.1.08v.01c0 .05.04.1.08.1l.83.06c.05 0 .1-.03.1-.08a.09.09 0 0 0-.08-.1Z" fill="#F7941C"/><path fill-rule="evenodd" d="M26.03 26.33c.16.1.2.3.1.6a.25.25 0 0 1-.1.12.26.26 0 0 1-.15.05h-1.03c-.05 0-.08-.02-.08-.07v-1.44c0-.04.03-.07.07-.07h.93c.07 0 .13.02.19.06.05.04.1.09.12.15.07.17.05.33-.07.48-.03.05-.03.09.02.12Zm-.65-.48c.02-.04.06-.04.12-.02.09.05.1.14.05.26a.06.06 0 0 1-.04.03h-.01c-.14 0-.18-.1-.12-.27Zm.02.58c-.03.04-.04.16-.02.34 0 .01 0 .02.02.03l.03.03c.05.01.08 0 .1-.04.07-.14.07-.26 0-.37a.06.06 0 0 0-.03-.02h-.07a.1.1 0 0 0-.03.03Z" fill="#0C4DA2"/><path d="M43.01 27.92v.45c0 .07-.03.1-.1.1h-.08a.16.16 0 0 1-.1-.04.15.15 0 0 1-.05-.1v-.95c0-.16.08-.24.25-.24l1.13.03c.17 0 .23.1.19.26-.04.14-.05.41-.03.81 0 .1-.04.17-.13.2a.2.2 0 0 1-.1.01c-.07 0-.1-.04-.1-.1v-.43a.11.11 0 0 0-.11-.12h-.07c-.05 0-.07.03-.07.07v.31c0 .1-.05.14-.15.14h-.08c-.06 0-.1-.03-.1-.1v-.32c0-.07-.03-.1-.1-.1h-.06c-.1 0-.14.04-.14.12ZM44.55 27.25l.01-.01h.02l.07.05.03.09v.1a.5.5 0 0 1-.03.13l-.02.05a.46.46 0 0 1-.14.2c-.06.04-.12.05-.17.03l-.01-.01v-.02l.24-.61ZM12.55 28.12h.31c.2 0 .24-.06.1-.22h-.16c-.1.03-.14-.01-.14-.1v-.42c0-.08.04-.12.13-.12.65-.02.63.8.5 1.2-.11.36-.44.3-.74.3s-.63.06-.74-.29c-.14-.4-.17-1.22.5-1.21.07 0 .11.04.11.12v.42c0 .1-.04.13-.13.11-.1-.02-.15-.02-.16 0-.14.15-.1.22.1.22a8 8 0 0 1 .32 0Z" fill="#fff"/><path d="M21.87 28.66a.09.09 0 0 0 .06.05.1.1 0 0 0 .08 0c.07-.06.09-.13.05-.22-.02-.04-.07-.08-.13-.12-.35-.18-.85-.3-.63-.8.11-.27.7-.24.94-.2.23.04.35.16.35.38 0 .06-.02.09-.08.1-.26.05-.43.01-.5-.11-.12-.18-.18-.17-.2.03 0 .03.05.07.15.13.23.12.55.21.63.41.1.25.09.54-.24.62-.4.1-1.12.12-1.07-.45a.1.1 0 0 1 .03-.06.1.1 0 0 1 .06-.03h.36c.07 0 .1.03.1.1 0 .06.02.12.04.17ZM25.34 28.17a4.05 4.05 0 0 0 0 .48.1.1 0 0 0 .07.05.1.1 0 0 0 .04 0h.05c.02 0 .03-.02.05-.03a.08.08 0 0 0 .02-.06v-.21c0-.06.03-.09.09-.09h.41c.07 0 .1.03.1.1.03.66-.8.71-1.23.48-.26-.14-.2-.45-.19-.73 0-.27-.05-.58.21-.71.44-.22 1.28-.15 1.22.52 0 .06-.04.1-.1.09l-.42-.01c-.06 0-.09-.04-.09-.1l.01-.21a.08.08 0 0 0-.07-.08l-.05-.01a.1.1 0 0 0-.1.04v.04c-.02.14-.02.29-.02.44ZM18.62 28.18c.06-.26.08-.5.06-.75 0-.03 0-.05.05-.05h.56c.02 0 .03 0 .03.03l-.26 1.47c0 .06-.04.09-.1.09h-.56c-.06 0-.1-.03-.12-.09a3.27 3.27 0 0 0-.15-.5c-.03-.07-.06-.06-.07.01l-.1.55c0 .02-.01.03-.03.03h-.67c-.03 0-.05-.02-.06-.04l-.26-1.51c0-.03.01-.04.04-.04h.52c.05 0 .07.02.07.06v.72c0 .11.02.12.06.02a2 2 0 0 0 .16-.72c0-.02 0-.04.03-.06a.1.1 0 0 1 .06-.03h.48c.05 0 .08.03.09.08l.12.73c.02.07.03.07.05 0ZM23.67 28.7c.1.02.14-.4.1-1.25 0-.05.02-.08.07-.08h.46c.03 0 .05.02.05.05v1.16c0 .08-.02.16-.07.22a.38.38 0 0 1-.2.13c-.14.04-.28.06-.4.06-.14 0-.27-.02-.42-.06a.38.38 0 0 1-.2-.13.36.36 0 0 1-.07-.22v-1.16c0-.03.03-.05.06-.05h.46c.06 0 .08.03.08.08-.05.85-.02 1.27.08 1.25ZM27.86 28.68a.48.48 0 0 0 .04-.19v-.64a.48.48 0 0 0-.14-.35.51.51 0 0 0-.36-.15h-.38a.53.53 0 0 0-.36.14.5.5 0 0 0-.16.35v.64a.48.48 0 0 0 .15.36.51.51 0 0 0 .36.14h.38a.53.53 0 0 0 .36-.14.5.5 0 0 0 .11-.16Zm-.66-1.05h.01c.06 0 .1.04.1.1v.89a.1.1 0 0 1-.1.1h-.01a.1.1 0 0 1-.1-.1v-.9c0-.05.05-.09.1-.09Z" fill="#0C4DA2"/><path fill-rule="evenodd" d="M19.59 28.95c.35.1.56.01.62-.25.02-.06.05-.08.11-.04.05.04.07.1.07.2 0 .07.03.1.1.1h.44c.04 0 .05-.01.05-.05l-.25-1.44c-.01-.07-.06-.1-.13-.1h-.71c-.07 0-.1.03-.12.1l-.24 1.4c0 .04.01.07.06.08Zm.75-.64c-.02-.27-.06-.4-.1-.4-.04 0-.07.13-.07.4 0 .04.01.06.05.07h.08c.03-.01.05-.04.04-.07Z" fill="#0C4DA2"/><path d="M25.35 30.52a.09.09 0 0 0 .06.05.1.1 0 0 0 .08-.01c.07-.05.09-.12.05-.21-.02-.05-.06-.09-.13-.12-.34-.19-.84-.3-.62-.81.11-.27.7-.23.94-.2.23.05.35.17.35.39 0 .06-.03.09-.09.1-.25.04-.42 0-.5-.11-.1-.18-.17-.17-.2.03 0 .03.06.07.16.12.23.12.54.22.62.42.1.25.09.54-.24.62-.4.1-1.12.11-1.07-.46a.1.1 0 0 1 .03-.06.1.1 0 0 1 .06-.03h.37c.06 0 .1.04.1.1 0 .06 0 .12.03.18ZM26.46 30.02c0-.28-.05-.59.21-.72.44-.22 1.28-.14 1.22.52 0 .06-.04.1-.1.1l-.42-.02c-.06 0-.09-.03-.09-.1l.01-.2c0-.03 0-.05-.02-.06a.08.08 0 0 0-.05-.03l-.05-.01a.1.1 0 0 0-.11.08l-.01.45a4.1 4.1 0 0 0 0 .48.1.1 0 0 0 .1.05h.06l.05-.04a.08.08 0 0 0 .02-.05v-.22c0-.06.03-.08.09-.08h.41c.07 0 .1.03.1.09.04.67-.8.72-1.23.49-.26-.15-.2-.45-.19-.73ZM23.8 30.41v-1.1c0-.05.02-.07.07-.07h.47l.04.01.01.04v1.3c0 .04 0 .07-.02.1a.16.16 0 0 1-.08.05c-.23.08-.45.1-.66.07a.14.14 0 0 1-.07-.03.13.13 0 0 1-.04-.13c0-.03.02-.05.04-.07a.38.38 0 0 1 .16-.07c.05-.02.08-.05.08-.1Z" fill="#0C4DA2"/><path d="M13.09 30.68c.03.02.07.03.12.03.22 0 .35.02.36.07.02.06-.06.14-.25.27a.19.19 0 0 0-.08.1.18.18 0 0 0 0 .11c.08.21.1.33.05.36-.05.04-.16-.02-.34-.15a.2.2 0 0 0-.12-.04.2.2 0 0 0-.12.04c-.18.13-.29.18-.34.15-.04-.03-.03-.15.05-.36a.17.17 0 0 0-.07-.21c-.2-.13-.28-.22-.26-.27.02-.05.14-.08.37-.07.05 0 .09 0 .12-.03a.18.18 0 0 0 .07-.1c.07-.21.13-.32.18-.32.06 0 .12.1.18.32.02.04.04.08.08.1Z" fill="#fff"/><path d="M44.72 30.47c-.17.88-.4 1.73-.7 2.56-.1.26-.25.5-.45.69a20.46 20.46 0 0 1-5.75 3.78c-.1.05-.12.03-.04-.05l.57-.6a14.86 14.86 0 0 0 2.6-3.71 17.33 17.33 0 0 0 3.77-2.67Z" fill="#0C4DA2"/><path d="M13.8 34a.19.19 0 0 0 .08-.1c.06-.2.12-.3.18-.3.05 0 .11.1.18.3.01.05.03.08.07.1a.2.2 0 0 0 .12.04c.22-.01.34.01.36.06.02.06-.07.14-.25.27a.19.19 0 0 0-.08.1.17.17 0 0 0 0 .1c.08.21.1.33.05.36-.04.04-.16-.01-.33-.15a.19.19 0 0 0-.23 0c-.18.14-.3.19-.34.15-.05-.03-.03-.15.04-.35a.18.18 0 0 0-.07-.21c-.18-.12-.27-.21-.25-.26.02-.06.14-.08.36-.07.05 0 .08-.01.12-.03Z" fill="#fff"/><path d="M18.48 41a.32.32 0 0 1-.08.05v-.01a10.42 10.42 0 0 1 6.1-2.44c.91-.06 2 0 3.24.2l4.06.67c1.03.17 2.3.17 3.83 0a12.43 12.43 0 0 0 7.82-4.21h.02l.02.02v.02a8.42 8.42 0 0 1-4.6 5.12c-1.25.6-2.55.89-3.9.88-2.23-.02-4.4-.62-6.65-1.36-.68-.23-1.5-.4-2.44-.53-2.48-.33-5.45.09-7.42 1.59Z" fill="#00A1E4"/><path d="M15.71 36.73a.2.2 0 0 0 .08-.1c.06-.21.12-.31.18-.31.05 0 .11.1.18.31.01.05.03.08.07.1.03.03.07.04.12.04.22 0 .35.02.36.07.02.05-.06.14-.25.26a.19.19 0 0 0-.08.1.18.18 0 0 0 0 .12c.08.2.1.32.05.35-.05.04-.16-.01-.34-.15a.2.2 0 0 0-.12-.04.19.19 0 0 0-.12.04c-.18.13-.29.18-.34.15-.04-.03-.03-.15.05-.36a.17.17 0 0 0-.07-.21c-.19-.13-.27-.22-.25-.27.01-.05.14-.07.36-.07.05 0 .09 0 .12-.03Z" fill="#fff"/><path d="m16.3 39.46 2.33-1.64 1.66 1.25c.04.03.04.06 0 .08-.85.43-1.6.98-2.23 1.64-.04.04-.08.04-.13 0l-1.63-1.33Z" fill="#0C4DA2"/><path d="M19.8 40.46a9.6 9.6 0 0 1 3.82-.8c2.35.08 4.29.8 6.77 1.6 1.06.35 1.92.57 2.57.67 2.28.35 4.47 0 6.57-1.04a6.89 6.89 0 0 0 2.26-1.82c.1-.13.12-.12.05.03-.76 1.53-1.85 3.01-3.45 3.72-1.54.68-3.1.96-4.81.63-2.17-.42-3.9-1.27-6.15-2.32-.74-.35-1.7-.63-2.91-.85a10.14 10.14 0 0 0-4.04.06c-.22.04-.53.17-.8.2-.1 0-.11-.01-.02-.04a.2.2 0 0 1 .05-.02.3.3 0 0 0 .08-.02Z" fill="#00A1E4"/><path d="M38.55 43.96c-.7 1.04-1.84 1.96-3.15 2.03-1 .06-1.9-.14-2.73-.6a22.82 22.82 0 0 1-3.02-2c-1-.76-2-1.4-3.03-1.93a9.41 9.41 0 0 0-3.72-1.04c-.03-.05-.03-.05 0 0 1.95-.1 3.8.69 5.5 1.54 2.17 1.08 3.56 1.9 5.16 2.35a7.6 7.6 0 0 0 4.94-.41c.1-.04.1-.02.05.06Z" fill="#00A1E4"/></svg>