<!-- by TradingView --><svg width="56" height="56" viewBox="0 0 56 56" xmlns="http://www.w3.org/2000/svg"><path fill="#F0F3FA" d="M0 0h56v56H0z"/><path d="M5.35 25.04h-.02v6.94l-.01.02H4v-8h2.15a.04.04 0 0 1 .02.01L12.65 31c.01.02.02.01.02 0V24H14v7.98l-.01.01h-2.14a14485.88 14485.88 0 0 0-6.5-6.96ZM37.38 31c.2-.42.4-.88.64-1.3l.87-1.63.08-.14L41.1 24V24h1.44l.01.01L38.33 32l-.03.01H36.4l-4.27-7.98.01-.02h1.4c.03 0 .04 0 .05.02l.14.28a8694.03 8694.03 0 0 1 3.12 5.66 27.98 27.98 0 0 1 .53 1.06l.01-.01ZM42.73 32H41.3l4.35-8h1.9L52 32h-1.41l-.93-1.68h-6.01L42.73 32Zm3.9-7.23-2.59 4.6h5.21l-2.61-4.6Z" fill="#072B60"/><path d="M26.64 21.7a.19.19 0 0 0-.13-.05h-6.19c-.06 0-.1.04-.15.09a196.74 196.74 0 0 1-1.27 1.12l-1.44-1.12v-.02l6-4.71a.03.03 0 0 1 .04 0l6.05 4.7v.03l-1.47 1.15a.02.02 0 0 1-.03 0l-1.41-1.19Zm-4.7-1.35h3.16l.02-.01.01-.03c0-.06-.02-.1-.07-.13l-1.43-1.1c-.06-.05-.1-.09-.17-.08a1402.8 1402.8 0 0 1-1.55 1.18.13.13 0 0 0-.05.09c-.01.04.02.07.08.08Z" fill="#8DC63F"/><path d="m22.17 20.19 1.31-1.03h.01l1.32 1.03v.01h-2.64v-.01ZM27.54 23.3h-.01l-.68-.51a.08.08 0 0 0-.05-.02h-6.7a171.27 171.27 0 0 0-.63.54l-.43-.33v-.01l1.28-1.15a12242.65 12242.65 0 0 0 6.11-.02c.05 0 .1.01.12.03l1.36 1.15v.04l-.37.28Z" fill="#5F9E45"/><path d="m29.7 21.83 1.22.96v.03l-7.43 6.02-7.39-6c-.03-.03-.03-.05 0-.07l1.19-.93h.05l6 4.68c.05.05.1.1.19.08l.08-.06a11929.52 11929.52 0 0 0 6.08-4.7ZM21.85 31.41v-3.67h.01v-.01h.01l1.48 1.2a.07.07 0 0 1 .02.05v3.74l.01.2a10434.62 10434.62 0 0 1-.02 3.08 674.71 674.71 0 0 0-1.58-1.26l-4.07-7.21c-.03-.05-.08-.08-.14-.05-.02.02-.02.06-.02.1a915.8 915.8 0 0 0-.02 3.88l-1.51-1.18-.02-.01v-7.3h.01l1.55 1.25c.07.05.1.09.15.16a73945.5 73945.5 0 0 1 4.02 7.06c.04.02.1.02.12-.03ZM27.17 26.06A647.3 647.3 0 0 1 31 23v7.16a.06.06 0 0 1-.02.05L23.6 36a.02.02 0 0 1-.02 0l-.01-.02V29l.02-.02c1.63-1.32 2.82-2.3 3.58-2.9Zm2.28.27c0-.02 0-.03-.02-.05a.09.09 0 0 0-.04-.03.1.1 0 0 0-.1.01l-4.14 3.23a.09.09 0 0 0-.03.07v3.07l.01.04a.09.09 0 0 0 .09.04.1.1 0 0 0 .05-.01l4.14-3.24a.09.09 0 0 0 .04-.06v-3.07Z" fill="#8DC63F"/><path d="m20.92 26.95.78 1.34v2.75c0 .02 0 .02-.02 0l-3.64-6.4c-.02-.04-.02-.04.01-.02l2.87 2.33ZM25.28 31.08l2.81-2.19a.04.04 0 0 0 .02-.03v-1.47l1.15-.9c.02-.01.03 0 .03.02v2.82a.05.05 0 0 1-.02.04l-3.97 3.1a.01.01 0 0 1-.01 0v-1.39ZM19.28 30.64l-1.58.93V27.9c0-.03.01-.03.03 0l1.55 2.75Z" fill="#5F9E45"/></svg>