<!-- by TradingView --><svg width="56" height="56" viewBox="0 0 56 56" xmlns="http://www.w3.org/2000/svg"><path fill="#F0F3FA" d="M0 0h56v56H0z"/><circle cx="28" cy="28" r="17" fill="#7AAD37"/><path d="M15 22v12h.5c.7 0 1.5-.53 1.5-1.19v-7.36l5.74 7.59c.48.6 1.24.96 2.04.96H25V22h-.7c-.7 0-1.3.53-1.3 1.19v6.79l-5.47-7.01a2.6 2.6 0 0 0-2.04-.97H15ZM36.7 22c2.97.05 3.8 1.46 3.85 2.16-4.13-1.48-5.95-.5-6.09.49-.1.78.86 1.35 1.36 1.54 3.46 1.03 4.8 1.84 5.2 3.07.62 1.91-.47 4.74-4.33 4.74-4.27 0-4.89-1.89-4.66-2.83 5.61 3.14 6.76 0 6.76-.43s.14-1.42-1.76-1.9c-1.9-.5-4.6-1.14-5-3.2-.35-1.81.95-3.7 4.66-3.64Z" fill="#fff"/><path d="M41.27 38.93a11.08 11.08 0 0 1-2.9-21.98h-.42a11.29 11.29 0 0 0-11.34 11.23 11.29 11.29 0 0 0 14.66 10.75Z" fill="url(#a)"/><defs><linearGradient id="a" x1="33.94" y1="16.95" x2="33.94" y2="39.42" gradientUnits="userSpaceOnUse"><stop stop-color="#F8FBF3"/><stop offset="1" stop-color="#93BC5C"/></linearGradient></defs></svg>