<!-- by TradingView --><svg width="56" height="56" viewBox="0 0 56 56" xmlns="http://www.w3.org/2000/svg"><path fill="#F0F3FA" d="M0 0h56v56H0z"/><path d="m34.27 15.19-6.22 4.22a.1.1 0 0 1-.1 0l-6.22-4.21a.1.1 0 0 1 0-.15L27.94 11a.1.1 0 0 1 .1 0l6.23 4.03a.1.1 0 0 1 .03.12.1.1 0 0 1-.03.03ZM19.05 25.36 12.6 21.2a.14.14 0 0 1 0-.23l8.33-5.41a.14.14 0 0 1 .16 0l6.13 4.15a.14.14 0 0 1 0 .23l-8.02 5.42a.14.14 0 0 1-.15 0ZM28.7 19.76l6.23-4.22a.09.09 0 0 1 .1 0l8.42 5.45a.09.09 0 0 1 .03.11l-.03.03-6.7 4.26a.09.09 0 0 1-.1 0L28.7 19.9a.08.08 0 0 1-.04-.07.09.09 0 0 1 .04-.07Z" fill="#DCAD69"/><path d="m28.05 20.26 8.18 5.53a.14.14 0 0 1 .04.18.14.14 0 0 1-.04.05l-8.2 5.55a.14.14 0 0 1-.15 0l-8.18-5.53a.14.14 0 0 1-.04-.17.14.14 0 0 1 .04-.05l8.2-5.56a.14.14 0 0 1 .15 0Z" fill="#4E7CA5"/><path d="M44 21.71v6.68l-.01.04-.03.03-6.83 4.34a.1.1 0 0 1-.08 0 .08.08 0 0 1-.04-.03.08.08 0 0 1-.01-.04v-6.68l.01-.03c0-.02.02-.03.03-.03l6.83-4.35a.09.09 0 0 1 .12.03l.01.04ZM19 26.36v6.5a.08.08 0 0 1-.05.07.09.09 0 0 1-.08 0l-6.83-4.46a.08.08 0 0 1-.03-.03.08.08 0 0 1-.01-.04v-6.5l.01-.04.04-.03a.09.09 0 0 1 .08 0l6.83 4.47.03.03.01.03Z" fill="#D3951A"/><path d="M36.58 26.56v6.74l-.03.03-8.07 5.59a.07.07 0 0 1-.07 0 .07.07 0 0 1-.04-.06v-6.71a.07.07 0 0 1 .04-.06l8.07-5.6a.07.07 0 0 1 .1.03v.04ZM19.41 33.4v-6.63a.06.06 0 0 1 .03-.05h.06l8.19 5.54a.06.06 0 0 1 .03.05v6.63a.06.06 0 0 1-.04.06h-.06l-8.18-5.55a.06.06 0 0 1-.03-.04Z" fill="#015785"/><path d="M12 34.34v-4.97l.01-.04.03-.02a.07.07 0 0 1 .07 0l6.86 4.48.02.02.01.03v5.01a.07.07 0 0 1-.07.03h-.04l-6.85-4.48a.07.07 0 0 1-.03-.06ZM44 29.38v4.94l-.01.04-.03.03-6.83 4.34a.09.09 0 0 1-.12-.02.07.07 0 0 1-.01-.04v-4.95l.01-.03.03-.03 6.83-4.35a.09.09 0 0 1 .12.03l.01.04ZM36.58 34.23v5.05a.07.07 0 0 1-.03.06l-8.08 5.6a.07.07 0 0 1-.1-.02v-5.09a.07.07 0 0 1 .03-.06l8.08-5.6h.03a.07.07 0 0 1 .06.02v.04ZM19.4 39.4v-5.05a.07.07 0 0 1 .1-.05l8.18 5.53a.06.06 0 0 1 .03.05v5.05a.07.07 0 0 1-.1.06l-8.17-5.53a.06.06 0 0 1-.03-.05Z" fill="#D3951A"/></svg>