<!-- by TradingView --><svg width="56" height="56" viewBox="0 0 56 56" xmlns="http://www.w3.org/2000/svg"><path fill="#F0F3FA" d="M0 0h56v56H0z"/><path d="M12.05 21.39 21.19 12s.01 0 0 0c0 0 .01 0 0 0h13.48a.1.1 0 0 1 .08.03l9.14 9.16c.02.02.04.05.04.09L44 34.35c0 .04-.02.09-.05.12L34.75 44H21.4l-9.28-9.3a.17.17 0 0 1-.06-.12L12 21.5c0-.04.02-.08.05-.11Zm1.02.43a.15.15 0 0 0-.04.1l.07 12.24a.16.16 0 0 0 .05.11l8.68 8.7V43H34.3l8.61-8.95a.16.16 0 0 0 .05-.11l-.07-12.23a.11.11 0 0 0-.03-.08l-8.56-8.56c-.02-.02-.04-.07-.07-.07h-12.6c-.02 0 .01-.01 0 0l-8.56 8.82Z" fill="#CF1E25"/><path d="m14.04 22.21 8-8.12c.02-.01.03-.09.05-.09h11.74a.1.1 0 0 1 .07.03l8 8.01c.02.02.1.05.1.08v11.44c0 .03-.02.07-.04.1l-7.93 8.21c-.03.04-.08.13-.13.13H22.23l-8.12-8.13a.15.15 0 0 1-.03-.05c-.01-.02-.08-.04-.08-.06V22.3c0-.04.01-.07.04-.1Zm12.42-2.53c.86.03 1.3.93 1.37 1.7a4.93 4.93 0 0 1-.69 3.05c-.15.27-.42.65-.81 1.13a7.3 7.3 0 0 0-1.47 3.26 6.66 6.66 0 0 0 1.73 5.32 4.34 4.34 0 0 0 4.22 1.41c.44-.08.82-.27 1.16-.57 1.12-1.01 1.39-2.23.8-3.67a8.05 8.05 0 0 0-1.04-1.9l-.03.02c-.02 0-.02.01-.01.03.77 1.26.84 3.66-.68 4.44-.64.33-1.62.45-2.15-.14-.78-.9-.29-2.46.3-3.34.5-.77.83-1.3.98-1.61.8-1.67 1.07-3.4.8-5.2-.42-2.83-2.68-5.02-5.6-4.55-.76.12-1.47.39-2.14.8a11.8 11.8 0 0 0-3.48 3.22c-1.99 2.85-1.94 6.27-.46 9.33a8.42 8.42 0 0 0 2.7 3.26c2.09 1.5 4.63 2.29 7.1 2.2a9.4 9.4 0 0 0 6.16-2.5c3.58-3.24 3.11-8.27.81-12.07-.26-.43-.82-1.16-1.11-1.73-.57-1.09-.65-2.37.36-3.18.13-.1.12-.12-.03-.05-1.93.94-3.98 2.43-3.81 4.9.03.47.08.82.15 1.04.44 1.36.9 2.46 1.37 3.3 1.25 2.18 2.6 4.6.7 6.94-1.18 1.44-3.18 2.69-5.08 2.72a4.72 4.72 0 0 1-3.97-1.94 10.71 10.71 0 0 1-2.35-7.92c.22-2.15.88-4.17 2-6.06.44-.74 1.3-1.67 2.2-1.64Z" fill="#CF1E25"/></svg>