<!-- by TradingView --><svg width="56" height="56" viewBox="0 0 56 56" xmlns="http://www.w3.org/2000/svg"><path fill="#F0F3FA" d="M0 0h56v56H0z"/><path fill-rule="evenodd" d="M44.63 34.89A18 18 0 1 0 11.37 21.1 18 18 0 0 0 44.63 34.9Zm-4.68 6.01a17.67 17.67 0 0 0 5.62-12.24 17.64 17.64 0 0 0-2.99-10.5 17.78 17.78 0 0 0-9.49-7 17.63 17.63 0 0 0-22.36 13.46A17.6 17.6 0 0 0 39.95 40.9Z" fill="#010166"/><path d="M41.51 28.08a.71.71 0 0 0-.3 0c-.01 0-.02 0-.02-.02l-.01-.35c-.02-1.12-.17-2.2-.44-3.23a12.98 12.98 0 0 0-3.84-6.39 13.2 13.2 0 0 0-11.44-3.28c-2.1.4-4.07 1.35-5.73 2.7a13 13 0 0 0-2.93 3.3c-.44.74-.82 1.48-1.12 2.24a13.9 13.9 0 0 0-.85 6.03c.08 1.11.32 2.21.7 3.3l.2.58-.12.55a13.92 13.92 0 0 1 .52-12.23 13.77 13.77 0 0 1 7.58-6.37 13.53 13.53 0 0 1 13.87 3.34 13.63 13.63 0 0 1 3.93 9.83Z" fill="#02206A"/><path d="M41.18 27.7v.44l-.02.02-.01.02-5.9 3.87a.06.06 0 0 1-.08 0l-.79-.86a.5.5 0 0 1-.1-.18 1 1 0 0 0 .06-.34l.02-.1a.3.3 0 0 1 .07-.08.07.07 0 0 0 .02-.04.8.8 0 0 0-.05-.46c-.06-.12-.09-.24-.03-.34a.68.68 0 0 0-.03-.7.08.08 0 0 1-.01-.05c.02-.28.18-.56.07-.87-.06-.16-.08-.24-.02-.39.05-.11.07-.18.07-.21v-.3a.44.44 0 0 0-.05-.14c-.07-.15.01-.31.05-.46.05-.22-.03-.34-.1-.53-.04-.08-.02-.12.01-.2.08-.22.06-.46-.02-.73-.06-.2.09-.33.1-.5a.96.96 0 0 0-.09-.48c-.03-.07-.05-.13-.04-.2.05-.17.1-.29.1-.44-.01-.1 0-.24.01-.41.02-.18 0-.38-.1-.48l-.55-.47a.09.09 0 0 1-.02-.03l-.1-.22a11.89 11.89 0 0 1-1.41-.78l-.5-.28a1.84 1.84 0 0 1-.2-.14c-.2-.18-.34-.02-.54.08a7.5 7.5 0 0 1-.58.29c-.11.05-.24.11-.37.2a1.5 1.5 0 0 1-.4.17c-.06.02-.16.1-.17.17-.03.64 0 1.3-.02 1.9-.02.35-.03.65-.02.9v1.82c0 .23.03.44.01.65-.03.43 0 .87-.02 1.37-.02.37-.02.73 0 1.1a.9.9 0 0 1-.34.2.9.9 0 0 1-.1-.28c-.01-.06 0-.13.02-.23a.99.99 0 0 0 .03-.44 44.4 44.4 0 0 1-.05-.32l.01-.35c.07-.2.08-.43.04-.66 0-.02-.02-.08-.07-.18-.08-.19.08-.44.08-.58 0-.2-.03-.43-.08-.71-.02-.1-.02-.15-.01-.18.1-.22.12-.4.07-.65-.03-.19-.04-.31-.03-.37.04-.24.05-.5.02-.77-.02-.12-.07-.23-.09-.34 0-.05 0-.14.04-.26.06-.18.07-.37.04-.55a.98.98 0 0 1-.01-.28c.04-.34.06-.76-.02-1.12-.03-.16 0-.31 0-.47a20.91 20.91 0 0 1 .01-1.2.19.19 0 0 0-.05-.06c-.34-.25-.5-.42-.92-.83a.96.96 0 0 0-.21-.15l-.99-.51a2.61 2.61 0 0 0-.2-.1c-.25-.1-.63-.4-.97-.55a1.21 1.21 0 0 1-.33-.21c-.1-.09-.2-.13-.31-.08-.35.15-.85.4-1.52.75l-.62.3a.14.14 0 0 0-.07.1c-.04.22-.06.43-.06.63v1.68c0 .13-.01.25-.05.4-.09.3.06.54.06.79.01.26 0 .64-.05 1.12-.03.36-.02.6.01.96.03.24.01.56-.03.94a1.3 1.3 0 0 0 0 .33c.07.4.03.85-.01 1.22a2 2 0 0 0 0 .47v.78c-.01.16-.07.42-.06.63.03.38.05.74 0 1.09-.02.15-.09.35-.05.46.12.35.1.8.05 1.12-.03.2-.08.35-.16.49l-1.57-1.64a.09.09 0 0 0-.1 0l-5.06 3.28-.19-.57a13.17 13.17 0 0 1-.72-5.42 13.92 13.92 0 0 1 .87-3.92 15.4 15.4 0 0 1 1.59-2.91 13 13 0 0 1 2.46-2.63 12.88 12.88 0 0 1 5.73-2.7 13.2 13.2 0 0 1 15.72 12.9Z" fill="#008AD2"/><path d="m29.09 29.5-.15.1c-.32-.16-.65-.3-1-.42-.02-.01-.03 0-.03.02l.02.6c0 .01 0 .02.02.03.18.1.34.14.5.13l-.14.12-.37.26-2.35 1.57-.23.16-.08.03c0-.03-.01-.05-.05-.06v-.47c0-.02 0-.04-.03-.04h-1.17a4.36 4.36 0 0 0-.43-.01v-.03h.04c.02 0 .03 0 .02-.03l-.01-.03h2.15a.03.03 0 0 0 .03-.03v-.74h-2.17c-.02 0-.03 0-.04.02v.1c0 .03-.01.04-.02.04l-.02.01h-.03l-.02-.02-.01-.03-.07-.8.01-.04.03-.03c.06 0 .1 0 .13.05V30.54l.03.01h1.57a.04.04 0 0 0 .02-.04l-.01-.5-.01-.03h-.02a421.49 421.49 0 0 0-1.55-.04v-.07h2.16a.02.02 0 0 0 .02-.02v-.74h-.02l-2.12-.01V29l1.52.01h.02l.01-.03v-.5c0-.03-.01-.04-.04-.04h-1.58v-.05l.08-.06h2.12l.01-.03v-.69a.02.02 0 0 0-.02-.02l-2.18-.01a.13.13 0 0 0 0-.1h1.59l.01-.02v-.55l-.03-.01h-1.57v-.1h2.17c.02 0 .03-.02.03-.04v-.7c0-.02 0-.03-.02-.03h-2.18a.25.25 0 0 0 .02-.1h1.58l.01-.03v-.56h-.03l-1.52-.01.08-.1 2.04-.02h.02v-.71a.03.03 0 0 0-.03-.03l-2.17-.02a.09.09 0 0 1 .02-.1h1.57a.03.03 0 0 0 .02-.02v-.53a.03.03 0 0 0-.02-.03h-1.55a.23.23 0 0 1-.05-.1h2.18a.03.03 0 0 0 .03-.04v-.7c0-.02 0-.03-.02-.03h-1.67c-.2 0-.38-.01-.52-.03l.02-.08h1.59v-.54h-.03l-1.57-.01.04-.1h2.12c.03 0 .04 0 .04-.04v-.76h-.02a1673.55 1673.55 0 0 1-2.15-.04v-.08l1.54.01c.03 0 .05-.01.05-.05v-.77a.04.04 0 0 0-.04-.04h-1.54c-.02-.03-.01-.07.02-.11h3.35l.2-.03s.02.01.02.03V30.64a.03.03 0 0 0 .03.01l.45-.3a.15.15 0 0 0 .07-.11V20.7a48.85 48.85 0 0 1 .04-2 .1.1 0 0 0-.04-.04l-2.2-1.13a.03.03 0 0 0-.03 0 .03.03 0 0 0-.01.02v.64c0 .03 0 .05-.04.05h-.28a.06.06 0 0 1-.03-.03v-.86a.24.24 0 0 0-.04-.12.06.06 0 0 0-.04-.03.23.23 0 0 0-.14.01c-.3.13-.75.35-1.36.65l-.15-.05c.67-.35 1.17-.6 1.52-.75.1-.05.22 0 .3.08.11.09.22.16.34.21.34.15.72.44.96.55l.21.1.99.5c.07.04.13.1.2.16.44.41.6.58.93.83a.18.18 0 0 1 .07.16c-.02.34-.02.71-.02 1.1 0 .16-.04.31 0 .47.07.36.05.78.01 1.12a.98.98 0 0 0 0 .28c.04.18.03.37-.03.55a.65.65 0 0 0-.04.26c.02.11.07.22.09.34.03.27.02.53-.02.77-.01.06 0 .18.03.37.05.25.02.43-.07.65v.18c.06.28.1.52.1.71 0 .14-.17.39-.09.58.05.1.07.16.07.18.04.23.03.45-.04.66v.35s0 .11.04.32c.03.15.02.3-.03.44a.54.54 0 0 0-.02.23c.01.1.05.2.1.29Z" fill="#E95A03"/><path d="m23.49 17.81.15.05v2.37c0 .04.02.05.05.03-.03.04-.04.08-.02.1-.02.01-.04.02-.04.04a20.44 20.44 0 0 1 .01.8l.02.02v.09a16.51 16.51 0 0 0 0 .84l-.03.09v.54l.01.01-.02.08v.8l.05.1c-.04 0-.05 0-.05.02a6.4 6.4 0 0 1 .02.56h.01a.09.09 0 0 0-.02.1v.75c0 .01.01.02.03.02h.1l-.07.1h-.05l-.02.05v.52l.01.03h.02c0 .04 0 .08-.02.1v2.29l.03.02h.04l-.08.06a.03.03 0 0 0 0 .03v.02a19.2 19.2 0 0 1 .02.55l.05.01v.1h-.04l-.01.03v.72l.02.02v.07l-.04.02c-.03-.04-.07-.06-.13-.05a.05.05 0 0 0-.03.03v.05l.06.79v.03l.03.02h.05l.02-.05v.62c0 .02.01.03.03.03l.01.03c0 .02 0 .03-.02.02l-.04.01v.03h.43-.4a.03.03 0 0 0-.02.02v.59a.03.03 0 0 0 .03.03c.35 0 .73.01 1.12 0 .14 0 .31 0 .43-.04.03 0 .04-.03.04-.08.04.01.05.03.05.06l-.29.18c0-.03-.03-.05-.1-.03a51.49 51.49 0 0 0-1.26.02l-.01.02v.02l.02.28-.15-.13a10.1 10.1 0 0 1-1.04-1.14c.08-.14.13-.3.16-.5.04-.3.07-.76-.05-1.1-.04-.12.03-.32.05-.47.05-.35.03-.7 0-1.09-.01-.21.05-.47.06-.63v-.78a2 2 0 0 1 0-.47c.04-.37.08-.82.01-1.22a1.3 1.3 0 0 1 0-.33c.04-.38.06-.7.03-.94-.03-.37-.04-.6 0-.96.03-.48.05-.86.04-1.12 0-.25-.15-.49-.06-.79.04-.15.05-.27.05-.4v-1.68a3.94 3.94 0 0 1 .08-.68.14.14 0 0 1 .05-.05l.62-.3Z" fill="#FF7601"/><path d="M25.52 18.73h-.26a.05.05 0 0 0-.05.04v1.1c0 .02.02.04.05.04h.26c.03 0 .05-.02.05-.05v-1.09a.05.05 0 0 0-.05-.04Z" fill="#E95A03"/><path d="m23.67 20.36 1.54.01.03.01v.8c0 .04 0 .05-.04.05h-1.54l-.02-.03v-.8c0-.02 0-.03.03-.04ZM26.75 29.7v.52a.05.05 0 0 0 .01.04.05.05 0 0 0 .04.02l.28-.01h.02l.02.01a.04.04 0 0 1 0 .03l.02.32v.01a.1.1 0 0 1 .04.06l-.01.04-1.19.78a.03.03 0 0 1-.03 0 .03.03 0 0 1-.02-.03v-.93a.04.04 0 0 0-.03-.02h-.31a.04.04 0 0 1-.03 0 .04.04 0 0 1 0-.04V30a.04.04 0 0 1 .03-.02l.3.01a.04.04 0 0 0 .05-.02v-.92a.06.06 0 0 0-.03-.05h-.32a.04.04 0 0 1-.03 0 .03.03 0 0 1 0-.03v-.49a.06.06 0 0 1 .02-.05.06.06 0 0 1 .05-.01c.08.02.17.02.25 0a.07.07 0 0 0 .06-.06v-.83a.06.06 0 0 0-.06-.06h-.3c-.01 0-.02 0-.02-.03l-.01-.5a.03.03 0 0 1 .03-.04l.29.01a.07.07 0 0 0 .08-.07v-.9l-.01-.02H25.58a.02.02 0 0 1-.02-.02v-.54a.03.03 0 0 1 .04-.04l.3.02a.04.04 0 0 0 .03-.01.04.04 0 0 0 .01-.03v-.89a.07.07 0 0 0-.07-.06h-.3a.03.03 0 0 1-.02-.03v-.49a.06.06 0 0 1 .06-.05h.3l.03-.01V22.8a.05.05 0 0 0-.04-.02l-.3-.01c-.02 0-.03-.01-.03-.03v-.45c0-.02.01-.04.03-.04h.3a.04.04 0 0 0 .04-.05v-.93a.05.05 0 0 0-.05-.06h-.3a.04.04 0 0 1-.03-.03V20.37h1.55s.02 0 .02.02v.48l-.01.02-.03.01h-.3a.04.04 0 0 0-.03.05v.52a.05.05 0 0 0 .01.04.05.05 0 0 0 .04.01h.27a.07.07 0 0 1 .05.01.07.07 0 0 1 .02.06v.72l-.01.04a.05.05 0 0 1-.04.01h-.31a.04.04 0 0 0-.04.04v.5a.06.06 0 0 0 .06.06h.24a.1.1 0 0 1 .1.1v.67c.01.05-.01.08-.06.08h-.34a.03.03 0 0 0 0 .03v.52a.04.04 0 0 0 .05.04h.3a.05.05 0 0 1 .04.03V25.25c0 .04 0 .05-.04.05h-.32c-.02 0-.03.01-.03.03v.54l.01.03h.36a.03.03 0 0 1 .03.04v.8c0 .04-.03.06-.07.06l-.3-.02a.03.03 0 0 0-.03.02v.55a.05.05 0 0 0 .01.04.05.05 0 0 0 .04.01h.34v.77c0 .04-.02.06-.05.06h-.3a.04.04 0 0 0-.04.04v.54l.03.01.33.02a.03.03 0 0 1 .03.03v.75a.06.06 0 0 1-.06.06h-.3c-.02 0-.03 0-.03.03Z" fill="#fff"/><path d="m34.29 31.01-.16-.12-.04-.07c.13-.08.07-.26.07-.36 0-.03.01-.04.04-.03l.1.03h.02a.04.04 0 0 0 .03-.04l-.01-.36a.07.07 0 0 0-.05-.06l-.71-.24a.04.04 0 0 0-.05.02v.02l.04.24c.04.17.14.2.27.26.01 0 .03.02.03.04.04.07.04.15 0 .25a.6.6 0 0 0-.18-.17l-.15-.2-.07-.1v-.14a82.9 82.9 0 0 0 .02-2.71c-.01-1.16.03-2.37.02-4a11.71 11.71 0 0 1 .05-1.36l-.02-.01a3.83 3.83 0 0 1-.5-.25 59.06 59.06 0 0 0-1.32-.7.05.05 0 0 0-.02.04v.53c0 .03-.02.05-.06.05h-.16a.06.06 0 0 1-.06-.06v-.76a.07.07 0 0 0-.1-.06l-1.06.53a.13.13 0 0 0-.08.12v1.89a.03.03 0 0 0 .03.02h2.8a.04.04 0 0 1 .02.02.04.04 0 0 1 .02.03l-.02 6.34c-.06-.05-.1-.08-.1-.11l.03-.35v-.01a.03.03 0 0 0-.02-.02h-.23a.08.08 0 0 1-.08-.09l.02-.36c0-.05.02-.06.07-.05.04 0 .1 0 .19-.02.02 0 .03-.01.03-.03v-.65a.02.02 0 0 0-.01-.01.02.02 0 0 0-.01 0h-.24l-.02-.02c-.01 0-.02-.01-.02-.03v-.4a.07.07 0 0 1 .01-.06.07.07 0 0 1 .05-.02h.2c.03 0 .04-.01.04-.03v-.66c0-.02-.02-.03-.04-.03a.4.4 0 0 0-.21 0 .03.03 0 0 1-.05-.02v-.4a.07.07 0 0 1 .08-.08h.21V25.5h-.23c-.04 0-.06-.02-.06-.07v-.4c0-.04.02-.06.05-.06h.23a.04.04 0 0 0 .02-.02v-.67c0-.02 0-.03-.02-.03h-.22c-.05 0-.07-.02-.07-.07l.02-.36c0-.04.03-.07.08-.07l.16.01c.04 0 .06-.01.06-.05v-.3c0-.03-.02-.05-.06-.05h-1.15a.05.05 0 0 0-.05.05v.68l.03.01h.21a.04.04 0 0 1 .04.04v.76c0 .03-.01.04-.04.04h-.22c-.02 0-.03.02-.03.03v.36c0 .02.01.03.03.03l.22.01c.02 0 .03.01.03.03v.76a.06.06 0 0 1-.06.06h-.19c-.03 0-.04.02-.04.04v.39l.04.01.24.02c.01 0 .02 0 .02.02v.73a.09.09 0 0 1-.08.08h-.19c-.02 0-.03.02-.03.04v.38c0 .03.02.05.05.05h.24a.04.04 0 0 1 .03.03c.03.15.03.3-.01.46-.04-.03-.06-.06-.06-.08l-.01-.28c0-.02-.01-.03-.03-.03a.43.43 0 0 0-.22.03l-.25-.16v-.4a.04.04 0 0 0-.02-.03H30.2a.03.03 0 0 0-.03.03v.4c0 .02 0 .03.03.03l1.11-.02-.1.12h-1a.04.04 0 0 0-.04.01.04.04 0 0 0 0 .03v.64l-.76.53c-.01-.37 0-.73.01-1.1.02-.5 0-.94.02-1.37.02-.21-.02-.42-.01-.65v-1.83c0-.24 0-.54.02-.9.03-.59-.01-1.25.02-1.9.01-.07.11-.14.18-.16.14-.04.27-.1.39-.17.13-.09.26-.15.37-.2l.58-.29c.2-.1.33-.26.55-.08l.18.14c.16.09.35.18.5.28a11.91 11.91 0 0 0 1.42.78l.1.22.02.03.55.47c.1.1.12.3.1.48l-.02.41c.01.15-.04.27-.09.45-.01.06.01.12.04.19.07.14.1.3.09.48 0 .17-.16.3-.1.5.08.27.1.51.02.74-.03.07-.05.11-.02.2.08.18.16.3.1.52-.03.15-.11.3-.04.46.03.06.05.1.05.14v.3c0 .03-.02.1-.07.21-.06.15-.04.23.02.4.1.3-.05.58-.07.86l.01.04c.14.23.15.46.03.7-.06.11-.03.23.03.35a.8.8 0 0 1 .05.46c0 .02 0 .03-.02.04a.3.3 0 0 0-.06.08.22.22 0 0 0-.03.1 1 1 0 0 1-.05.34Z" fill="#FF7601"/><path d="m33.47 30.12-.44-.48.02-6.34v-.02a.04.04 0 0 0-.05-.03h-2.79a.03.03 0 0 1-.03-.02v-1.9a.13.13 0 0 1 .08-.11l1.06-.53a.07.07 0 0 1 .07 0 .07.07 0 0 1 .03.06v.76a.06.06 0 0 0 .06.06h.16c.04 0 .06-.02.06-.05v-.53a.05.05 0 0 1 .02-.04.05.05 0 0 1 .05 0l1.26.7a3.84 3.84 0 0 0 .54.26v.03c-.05.43-.07.88-.06 1.33.01 1.63-.03 2.84-.03 4a82.9 82.9 0 0 1-.01 2.85ZM23.66 21.3l.19.03a1674.16 1674.16 0 0 0 1.98.03v.74c0 .03-.01.05-.04.05h-2.12l-.02-.02-.01-.01v-.78c0-.02 0-.03.02-.04Z" fill="#fff"/><path d="M31.64 21.96h-.17a.05.05 0 0 0-.05.05v.92c0 .02.02.04.05.04h.17c.03 0 .05-.02.05-.04V22a.05.05 0 0 0-.05-.05Z" fill="#E95A03"/><path d="M23.62 23.67v-.8a122.33 122.33 0 0 0 2.21.06v.72l-.03.01h-2.18ZM31.46 23.36H30.2l-.01.01v.74h1.26l.01-.02v-.72l-.01-.01ZM32.93 29.53l-.05-.01-.9-1.05c.04-.16.04-.31.01-.46a.04.04 0 0 0-.03-.03h-.24c-.03 0-.05-.02-.05-.05v-.38c0-.02.01-.03.03-.03h.19a.08.08 0 0 0 .08-.1v-.72c0-.01 0-.02-.02-.02l-.24-.02a.04.04 0 0 1-.04-.04v-.36c0-.02.01-.04.04-.04h.2a.06.06 0 0 0 .05-.06v-.76c0-.02 0-.03-.03-.03l-.22-.01c-.02 0-.03-.01-.03-.03v-.36c0-.01 0-.02.03-.02l.22-.01c.03 0 .04-.01.04-.04v-.78a.04.04 0 0 0-.02-.02H31.7l-.01-.03v-.66a.05.05 0 0 1 .05-.05h1.15c.04 0 .06.02.06.06v.29c0 .04-.02.06-.06.05h-.16c-.05 0-.07.02-.08.06l-.02.36c0 .05.02.08.07.08l.22-.01c.02 0 .03 0 .03.03v.67a.04.04 0 0 1-.03.02h-.23c-.03 0-.05.02-.05.05v.41c0 .05.02.07.07.07h.19a.04.04 0 0 1 .02 0l.01.02v.64a.03.03 0 0 1-.02.03h-.2a.07.07 0 0 0-.05.02.07.07 0 0 0-.02.05v.41a.03.03 0 0 0 .03.03h.02a.4.4 0 0 1 .21-.01c.02 0 .04.01.04.03v.66c0 .02-.01.03-.03.03h-.2a.07.07 0 0 0-.07.05V27.89a.04.04 0 0 0 .04.04h.24a.02.02 0 0 1 .01.02v.65c0 .02 0 .03-.02.03a.46.46 0 0 1-.2.02c-.04-.01-.06 0-.06.05l-.02.36a.09.09 0 0 0 .05.08l.03.01h.22a.03.03 0 0 1 .02 0 .03.03 0 0 1 0 .03l-.02.35Z" fill="#fff"/><path d="M31.87 24.2h-1.66l-.01.01v.62l.01.01h1.66l.02-.01v-.62l-.02-.01ZM23.63 24.45l2.17.02h.02l.01.03v.7l-.02.01-2.04.02h-.11c-.02 0-.03-.02-.03-.03v-.75ZM30.2 24.94a.02.02 0 0 1 .02-.02h1.14a.17.17 0 0 1 .06.02l.02.02.01.02v.33c0 .02-.01.03-.03.04a.15.15 0 0 1-.07.01h-1.13a.02.02 0 0 1-.02-.03v-.39ZM23.69 25.33h1.52l.02.01.01.03v.55l-.03.01h-1.58a.03.03 0 0 1-.01-.04v-.52c0-.02 0-.03.02-.04h.05ZM31.82 25.45l-1.57-.01a.05.05 0 0 0-.05.05v.57c0 .02.02.05.04.05h1.57c.03 0 .05-.01.05-.04v-.57a.05.05 0 0 0-.04-.05ZM30.19 26.63v-.38l.01-.03.03-.02h1.14c.01 0 .02 0 .03.02l.02.03v.38a.04.04 0 0 1-.05.04h-1.14l-.03-.01-.01-.03ZM31.83 26.76h-1.6a.05.05 0 0 0-.04.05v.55c0 .03.02.05.05.05h1.6c.02 0 .04-.02.04-.05v-.55a.05.05 0 0 0-.05-.05ZM31.4 27.95c-.02-.01-.05 0-.08.02h-1.1c-.03.01-.04 0-.04-.02v-.4a.03.03 0 0 1 .03-.03h1.16a.04.04 0 0 1 .03 0v.02l.01.02v.4Z" fill="#fff"/><path d="M41.51 28.08c0 .6-.07 1.23-.18 1.9-.01.07-.03.1-.07.13a1021.88 1021.88 0 0 0-6.23 4.06l-.03-.01L31.3 30c-.02-.02-.03-.02-.05 0l-7.51 5.03c-.05.03-.08.03-.12-.01l-3.01-3.24-.03-.02-.03.01-4.35 2.85c-.01.01-.03 0-.04-.01l-.54-1.1.11-.56 5.05-3.29a.09.09 0 0 1 .11.01l1.57 1.64c.32.4.66.78 1.04 1.14l.3.4c.08.1.17.14.26.13a.1.1 0 0 0 .04-.02c.33-.23.56-.35.85-.58a5 5 0 0 1 .42-.3v-.02l.23-.16h.08a69.32 69.32 0 0 0 2.27-1.57l.37-.26a1.43 1.43 0 0 0 .55-.35c.03-.01.03-.04.01-.08.03 0 .05-.02.07-.05l.15-.1a.9.9 0 0 0 .33-.21l.77-.53 1.02-.68.11-.12c.03-.02.06-.02.09 0l.25.15c.07.11.16.2.26.28 0 .02.02.05.06.08l.9 1.05a3.48 3.48 0 0 0 .64.7h.02l.15.2c.07.14.15.26.25.37.06.07.12.1.19.1l.16.12a.5.5 0 0 0 .1.18 662.1 662.1 0 0 0 .81.87h.04l5.9-3.88a.05.05 0 0 0 .03-.04l.01-.43.01.35c0 .02.01.03.03.02.1-.02.2-.02.3 0Z" fill="#06347D"/><path d="m31.21 28.08-1.02.68-.02-.64v-.01l.01-.02a.04.04 0 0 1 .04-.01h1ZM31.92 28.39c-.1-.08-.19-.17-.26-.28a.43.43 0 0 1 .22-.03c.02 0 .03.01.03.03v.28ZM23.69 29l-.05-.01-.02-.04v-.51h1.58c.03 0 .04 0 .04.03v.5a.03.03 0 0 1-.03.04h-1.52Z" fill="#fff"/><path d="M32.93 29.53c0 .03.04.06.1.1l.44.49.07.1h-.02l-.04-.01c-.23-.2-.43-.44-.6-.7l.05.02ZM28.87 29.65c.02.04.02.07 0 .08a1.43 1.43 0 0 1-.55.35l.12-.12.43-.31Z" fill="#02206A"/><path d="m23.65 29.94.06.03a421.38 421.38 0 0 1 1.51.01l.01.03.01.5a.04.04 0 0 1 0 .03h-.02l-.01.01h-1.56l-.02-.01-.01-.02v-.56l.03-.02Z" fill="#fff"/><path d="m33.87 30.59.22.23.04.07c-.07 0-.13-.03-.2-.1-.09-.11-.17-.23-.24-.37.07.05.13.1.18.17Z" fill="#02206A"/><path d="M34.86 34.78a.05.05 0 0 0 .07.01l6.25-4.1h.02a.02.02 0 0 1 .02.01v.04a13.64 13.64 0 0 1-6.98 9.31 13.37 13.37 0 0 1-12.87-.22 14.05 14.05 0 0 1-4.94-4.82l.01-.02 4.03-2.64h.04l3.03 3.35 7.56-5.07c.04-.02.08-.02.11.02l3.65 4.13Z" fill="#06347D"/><path d="M24.03 31.53h1.17c.03 0 .04.02.04.04v.47c0 .05-.02.07-.05.08-.12.03-.29.05-.43.05a61.89 61.89 0 0 1-1.14-.02l-.01-.02v-.57a.03.03 0 0 1 .03-.04h.4ZM25.63 31.78c-.05.03-.07.02-.08-.03v-.14c-.01-.06.01-.09.07-.09h.23a.05.05 0 0 1 .04.02v.06l-.03.03-.23.15Z" fill="#fff"/><path d="m13.68 33 1.08-.02h.01a.02.02 0 0 1 0 .03l-.89.62v.02l.35 1.03v.02a.02.02 0 0 1-.02 0l-.87-.66a.02.02 0 0 0-.02 0l-.86.66h-.02a.02.02 0 0 1 0-.02l.35-1.02v-.02l-.9-.62V33a.02.02 0 0 1 .01-.01l1.08.02H13L13 33l.31-1.04v-.01h.04l.31 1.05h.02ZM43.01 33l1.08-.02a.02.02 0 0 1 .03.02V33l-.01.01-.9.62v.02l.36 1.02v.02a.02.02 0 0 1-.04 0l-.86-.65a.02.02 0 0 0-.03 0l-.86.66a.02.02 0 0 1-.03-.03l.36-1.02v-.02l-.9-.62-.01-.01a.02.02 0 0 1 0-.03h.02l1.09.03a.02.02 0 0 0 .02-.02l.3-1.04a.02.02 0 0 1 .03-.01h.01l.01.01.3 1.04a.02.02 0 0 0 .03.02Z" fill="#06347D"/><path d="M25.36 32.07v.03l-.02.02-.4.27c-.29.23-.52.35-.85.58a.1.1 0 0 1-.04.02c-.1.01-.18-.03-.26-.13a3.87 3.87 0 0 1-.3-.4l.15.13.28.32c.02.05.06.06.13.03.1-.04.27-.16.52-.38l.42-.28.29-.18.08-.03Z" fill="#02206A"/><path d="m23.78 38.41-.52-.6c-.04-.04-.06-.03-.06.03l.03 1.72c0 .03 0 .04-.03.04h-.75a.04.04 0 0 1-.04-.04v-2.73a.02.02 0 0 1 .02-.02h.75a.1.1 0 0 1 .07.03 44.42 44.42 0 0 1 1.56 1.75c.04.05.06.04.06-.02l-.03-1.73c0-.02.01-.03.03-.03h.75a.04.04 0 0 1 .04.04V39.59h-.01l-.01.01h-.75a.1.1 0 0 1-.07-.03l-1.04-1.16ZM33.09 38.58l-.01-.03a.26.26 0 0 1-.02-.03v-.02l-.02-1.66c0-.02.01-.03.03-.03h.76c.02 0 .03 0 .03.02v2.74a.02.02 0 0 1-.03.03h-.78a.04.04 0 0 1-.03-.02l-1.6-1.8a.03.03 0 0 0-.04 0v.02l.04 1.78v.01h-.79a.03.03 0 0 1-.03-.02v-2.75l.02-.01h.72a.22.22 0 0 1 .16.07l1.53 1.7c.02.04.04.04.06 0Z" fill="#fff"/><path d="M40.6 38.21c.05 0 .06 0 .02-.04l-.74-.72c-.04-.04-.08-.04-.12 0l-.14.1c-.04.03-.07.03-.1 0l-.01-.01c-.04-.04-.04-.06-.01-.1l.49-.5c.04-.04.08-.04.12 0l.03.03c.03.03.03.06 0 .1l-.15.15-.01.03.01.04 1.27 1.22a.05.05 0 0 1 .01.05.05.05 0 0 1-.03.03c-.12.05-.36.03-.58 0a566.3 566.3 0 0 0-1.55-.09c.34.32.68.65 1.04.91h.05l.14-.12c.05-.05.09-.04.12.01l.02.02c.02.03.01.06-.01.09l-.52.51c-.04.04-.07.03-.1-.01v-.06c-.02-.05 0-.1.05-.13a.33.33 0 0 0 .09-.08.07.07 0 0 0-.01-.08l-1.12-1.02c-.02-.02-.04-.02-.07-.01a.43.43 0 0 0-.15.13.05.05 0 0 1-.04.02.05.05 0 0 1-.03 0l-.1-.09c-.03-.02-.03-.04 0-.06.1-.1.25-.23.42-.42.13-.14.2-.06.34-.05l1.37.15ZM16.24 39.25c0 .05 0 .06.05.02.39-.36.69-.6.79-.78v-.05l-.18-.17c-.03-.03-.03-.05 0-.08l.02-.02c.04-.04.08-.04.12 0l.49.47a.03.03 0 0 1 0 .02.03.03 0 0 1 0 .02l-.09.08c-.02.02-.05.02-.07 0l-.07-.07c-.04-.04-.08-.04-.12 0l-1.23 1.09a.06.06 0 0 1-.08 0c-.05-.05-.08-.11-.07-.2.06-.65.13-1.25.22-1.79.01-.05 0-.06-.05-.02a36.08 36.08 0 0 0-.87.82.1.1 0 0 0 .01.14l.12.1a.05.05 0 0 1 0 .07l-.05.05a.06.06 0 0 1-.07.01s-.02 0-.02-.02l-.45-.57c-.01-.02 0-.04.01-.06l.05-.03c.04-.03.08-.03.1.01l.08.1a.08.08 0 0 0 .11.01 12.84 12.84 0 0 0 1.05-1l-.01-.04-.16-.2v-.04l.08-.08.03-.02.03.01.44.43a.13.13 0 0 1 .04.11l-.25 1.68Z" fill="#06347D"/><path fill-rule="evenodd" d="m26.47 36.83.01 2.75a.02.02 0 0 0 0 .01.02.02 0 0 0 .02 0h1.8c.45 0 .87-.15 1.18-.4.3-.24.48-.58.47-.92v-.17c0-.17-.04-.34-.13-.5-.08-.15-.2-.3-.36-.42a1.74 1.74 0 0 0-.54-.28c-.2-.06-.41-.1-.63-.1l-1.81.02h-.01Zm.86.46-.01.01v1.8a.02.02 0 0 0 0 .01l.02.01h.85a.91.91 0 0 0 .62-.24.82.82 0 0 0 .26-.58v-.19a.8.8 0 0 0-.26-.59.9.9 0 0 0-.61-.24h-.87Z" fill="#fff"/><path d="m17.68 39.09-.14-.13c-.04-.04-.04-.08-.01-.12l.01-.01c.03-.05.07-.05.11-.01l.67.6a.07.07 0 0 1 .01.1l-.01.01c-.02.03-.04.03-.07.02l-.16-.1a.05.05 0 0 0-.04-.01l-.03.01c-.22.24-.52.6-.9 1.07a.4.4 0 0 0-.09.15.04.04 0 0 0 .02.04l.1.1c.04.03.05.06.04.1v.06a.07.07 0 0 1-.09.02l-.02-.02-.73-.67c-.03-.03-.03-.06 0-.09l.02-.02c.03-.02.06-.02.1 0l.1.1a.09.09 0 0 0 .13 0l.99-1.16v-.04ZM19.72 39.75h.01a.01.01 0 0 0 .01 0c0-.19-.03-.35-.1-.48l.01-.05c.15-.1.26.08.34.19.1.15-.03.28-.18.35a.05.05 0 0 0-.03.04c-.02.14-.13.28-.28.21a.06.06 0 0 1-.03-.03.39.39 0 0 0-.14-.2.07.07 0 0 0-.08 0l-.02.02-.02.03a.07.07 0 0 1-.1.02c-.13-.12-.13-.23.01-.32.05-.04.1-.04.17-.01.16.06.3.14.43.23ZM18.14 41.5c.14.17.3.3.5.37.19.07.42-.06.58-.16.07-.04.14-.04.2 0a.04.04 0 0 1 0 .04v.02l-.45.46a.07.07 0 0 1-.04.02l-.05-.01-1.39-.95a.1.1 0 0 1-.03-.1v-.02c.02-.05.05-.06.09-.03l.14.08h.04l.02-.01.87-1.27a.04.04 0 0 0 0-.06l-.19-.17c-.03-.03-.03-.06 0-.09l.01-.02c.03-.04.06-.04.1-.02l1.37 1.01a.07.07 0 0 1 .02.1 2 2 0 0 1-.31.4c-.03.04-.06.04-.09.02-.01-.02-.02-.03 0-.05a.43.43 0 0 0-.01-.4c-.1-.17-.27-.42-.47-.5a.05.05 0 0 0-.06.02l-.37.54c-.02.03-.01.05.01.07l.24.12c.04.02.06.01.09-.01.13-.12.22-.18.3-.19a.06.06 0 0 1 .05.1l-.39.67a.04.04 0 0 1-.05 0c-.13-.1-.07-.21-.06-.36 0-.03 0-.05-.03-.07l-.22-.14a.05.05 0 0 0-.07.01l-.35.52v.06Z" fill="#06347D"/><path fill-rule="evenodd" d="M38.2 40.58c.16-.1.3-.24.45-.41.01-.02.03-.02.05 0l.38.23a.05.05 0 0 1 .02.04.05.05 0 0 1-.02.05l-.11.09a.1.1 0 0 0-.03.14l.03.03c.02.03.04.03.06 0l.65-.63c.05-.04.07-.08.06-.13a.09.09 0 0 0-.06-.05.1.1 0 0 0-.08 0l-.14.09h-.05c-.65-.35-1.15-.62-1.5-.83-.13-.08-.23-.05-.3.07v.05l.06.23c.2.65.3 1.03.42 1.55v.04c.03.1.05.17-.07.23l-.02.02-.01.03a.06.06 0 0 0 .03.05c.04.02.08.02.11 0a9.2 9.2 0 0 1 .54-.5v-.03l-.01-.02-.02-.01c-.04-.04-.1-.05-.14 0l-.14.1c-.04.03-.07.02-.09-.03l-.1-.27c-.02-.06-.01-.1.04-.13Zm-.3-.82.21.68a.02.02 0 0 0 .01.01h.01l.42-.33a.02.02 0 0 0 0-.02.02.02 0 0 0 0-.01l-.63-.35h-.02v.02Z" fill="#06347D"/><path d="M21.68 41.78h-.02l-.38.4a15.95 15.95 0 0 0-.87.84.06.06 0 0 1-.06-.01l-.02-.03a.65.65 0 0 1-.03-.23l.03-1.45c0-.1-.01-.1-.05-.01l-.5 1.16a.09.09 0 0 0 .03.1l.17.13a.07.07 0 0 1 .03.08v.03c-.02.05-.05.06-.09.04l-.7-.37a.04.04 0 0 1-.03-.04v-.02c.06-.08.2-.01.3.02a.08.08 0 0 0 .1-.04l.63-1.32.01-.05a.08.08 0 0 0-.02-.05l-.15-.15a.06.06 0 0 1-.02-.05c0-.03.01-.05.03-.06l.06.01a21.43 21.43 0 0 0 .65.32c.01.01.02.03.01.04l-.07 1.39c0 .03 0 .04.03.01l.94-.93a.06.06 0 0 1 .07-.02l.65.3c.05.04.06.07.02.12l-.01.01c-.03.04-.07.05-.11.02a.46.46 0 0 0-.17-.07c-.02 0-.04 0-.05.02l-.65 1.36c-.01.05 0 .08.03.1l.18.14c.04.02.04.05.03.09l-.01.02c-.01.03-.03.03-.05.02l-.9-.4c-.03-.01-.04-.04-.02-.08v-.02c.03-.04.05-.06.08-.04l.14.04a.08.08 0 0 0 .1-.04l.67-1.3-.01-.03Z" fill="#06347D"/><path fill-rule="evenodd" d="M37.07 40.97c-.03.04-.02.05.03.04.18-.06.46-.11.62.02.26.2.18.56-.03.77-.13.13-.27.24-.4.33l-.7.48c-.04.03-.07.02-.1-.02l-.02-.03c-.03-.04-.02-.08.02-.1l.15-.1v-.05l-.87-1.3a.06.06 0 0 0-.09-.02l-.17.12c-.03.01-.05.01-.07-.02l-.02-.04c-.03-.03-.02-.06.01-.09l.27-.18.5-.35c.24-.17.43-.31.71-.27.23.03.35.23.33.46a.61.61 0 0 1-.17.35Zm-.55.31-.38-.56c-.02-.02-.01-.03 0-.05.13-.1.24-.16.36-.2.09-.03.18.02.22.08.22.3.17.55-.14.75-.02.01-.05.01-.06-.02Zm.11.13v.03l.07.12c.11.2.2.35.37.48a.04.04 0 0 0 .03.01h.01c.18-.08.3-.19.34-.32.07-.2.03-.35-.11-.45-.22-.16-.4-.04-.58.06l-.13.07Z" fill="#06347D"/><path d="m31.54 41.76.01.13c0 .04-.01.06-.05.06h-.18c-.05 0-.09-.03-.1-.08-.04-.11-.03-.2.04-.24a.07.07 0 0 1 .05-.01c.12.02.22 0 .31-.07l.03-.02c.1-.01.18.02.27.11.12.14.09.37 0 .51a.06.06 0 0 1-.1.01l-.02-.03c-.03-.13-.07-.34-.22-.4a.03.03 0 0 0-.04.02v.01ZM31.62 42.6l.27 1.07c.06.23.18.35.37.38a.6.6 0 0 0 .44-.12c.17-.12.22-.3.16-.54-.06-.28-.15-.67-.28-.97a.14.14 0 0 0-.16-.08c-.08.02-.17.05-.22.03-.03-.02-.04-.04-.05-.06a.06.06 0 0 1 .02-.05.38.38 0 0 1 .2-.1l.58-.19c.05-.02.09 0 .1.05h.01a.07.07 0 0 1 0 .07.07.07 0 0 1-.05.04c-.15.04-.22.13-.2.26.05.3.12.58.2.87.05.17.09.39.02.55-.16.37-.6.51-.98.5-.31-.02-.5-.18-.58-.49-.1-.43-.18-.75-.25-.96a.43.43 0 0 0-.07-.14.06.06 0 0 0-.04-.03h-.17a.06.06 0 0 1-.06-.04c0-.06 0-.1.06-.1a5.97 5.97 0 0 0 .88-.26.05.05 0 0 1 .04.03v.03l-.01.05a.12.12 0 0 1-.08.08l-.1.04a.06.06 0 0 0-.05.08ZM24.13 42.49c-.14.5-.27.99-.38 1.46-.04.15.12.17.24.21.04.02.05.05.04.1h-.01c-.02.04-.05.05-.08.04l-.96-.25c-.04-.01-.06-.04-.05-.08v-.02c.01-.04.04-.05.07-.05l.17.04c.07.02.11 0 .13-.07l.39-1.48a.04.04 0 0 0-.03-.06c-.27-.09-.37.04-.54.2a1 1 0 0 0-.1.12c-.1.15-.16.13-.16-.05l.04-.12a17.57 17.57 0 0 0 .2-.46h.03c.5.17.99.27 1.66.43a.05.05 0 0 1 .03.06l-.1.65a.07.07 0 0 1-.03.05.07.07 0 0 1-.06 0c-.03 0-.05-.03-.06-.07l-.09-.4c-.03-.17-.14-.27-.3-.29l-.03.01-.02.03Z" fill="#06347D"/><path fill-rule="evenodd" d="M34.17 43.49a.62.62 0 0 1-.25.04c-.03 0-.04-.02-.04-.04l-.01-.33a.09.09 0 0 1 .06-.08l.56-.22c.04-.02.07-.01.1.02l.2.26c.03.04.02.07-.03.1l-.11.05a.07.07 0 0 0-.04.04v.06l.03.04c.01.03.04.04.08.03l.8-.35c.04-.01.05-.04.04-.07v-.01c-.02-.05-.05-.07-.1-.05-.14.04-.2-.01-.27-.09l-.03-.03a36.85 36.85 0 0 1-1.16-1.2l-.12-.1c-.12.03-.16.1-.16.22l-.03 1.75c0 .07-.04.12-.13.16-.05.02-.06.06-.04.1l.01.04c.02.04.05.05.1.04l.58-.24c.02 0 .04-.02.04-.04.01-.01.02-.03 0-.05v-.01c-.01-.05-.04-.06-.08-.04Zm-.3-1.29v.72a.02.02 0 0 0 .02.01h.01l.44-.17a.04.04 0 0 0 .02-.04v-.02l-.46-.5c-.02-.03-.03-.02-.03 0Z" fill="#06347D"/><path d="m25.47 42.6.44.07c.04 0 .06.02.05.06v.05c0 .04-.03.06-.07.06-.13-.01-.22-.04-.25.12-.1.53-.16.97-.21 1.32-.01.06 0 .1.01.15a.05.05 0 0 0 .04.03l.18.05a.06.06 0 0 1 .04.03.07.07 0 0 1 0 .06c-.01.04-.04.05-.08.05a44.71 44.71 0 0 0-.95-.16c-.05-.01-.07-.04-.07-.08a.07.07 0 0 1 .05-.06h.02l.19.01a.05.05 0 0 0 .04-.02.3.3 0 0 0 .07-.14l.23-1.31c.02-.17-.07-.17-.2-.2-.04 0-.06-.03-.05-.07l.01-.05c0-.04.03-.06.07-.05l.44.09ZM30.6 42.66a.2.2 0 0 1 .08-.12.06.06 0 0 1 .1.04l.13.68a.08.08 0 0 1-.01.06.08.08 0 0 1-.06.03c-.04 0-.07-.02-.1-.07 0-.02-.07-.1-.16-.26-.15-.22-.32-.33-.57-.27-.26.07-.37.37-.39.6-.02.3.02.57.15.8.21.41.77.41 1.02.04l.1-.23c.02-.05.06-.07.1-.05h.03c.04.02.06.05.04.09-.12.32-.33.6-.67.66-.7.15-1.26-.27-1.26-1 0-.47.2-.8.57-.98.28-.13.6-.13.87 0 .02 0 .03 0 .04-.02ZM26.55 43.24h-.01l-.06 1.19c-.01.16.15.16.26.19.05 0 .07.03.07.08v.02a.04.04 0 0 1-.05.04l-.7-.04c-.06 0-.09-.03-.08-.09v-.04c0-.05.03-.07.07-.06.07.02.12.02.16.01.02 0 .03-.01.04-.03a.48.48 0 0 0 .06-.19l.05-1.1c0-.2 0-.33-.23-.35-.03 0-.05-.02-.05-.05v-.06a.03.03 0 0 1 0-.03h.02l.63.03a.1.1 0 0 1 .07.04l.96 1.38a54.13 54.13 0 0 0 .07-.92c0-.08 0-.27-.12-.28l-.15-.02c-.06 0-.08-.04-.07-.1 0-.04.03-.07.09-.06l.75.06c.02 0 .03 0 .03.02.02.04.02.07.01.1l-.01.03h-.02c-.06.02-.15.01-.2.05a.29.29 0 0 0-.11.2 18.32 18.32 0 0 0-.13 1.57l-.04.02c-.15.03-.18-.06-.25-.16l-1.06-1.45Z" fill="#06347D"/><path d="M28.11 12.87a15.06 15.06 0 0 0-15.06 15.06h-1.1a16.16 16.16 0 0 1 32.32 0h-1.1c0-8.31-6.74-15.06-15.06-15.06Z" fill="#02206A" fill-opacity=".7"/><path d="M27.97 30.08v-11.2l.9.74v9.96l-.9.5ZM33.66 30.23v-8.07l.6.54v8.16l-.6-.63Z" fill="#fff"/></svg>