<!-- by TradingView --><svg width="56" height="56" viewBox="0 0 56 56" xmlns="http://www.w3.org/2000/svg"><path fill="#F0F3FA" d="M0 0h56v56H0z"/><path d="M14 36.42v-.99l.06-.04a.1.1 0 0 1 .03-.04l27.74-20.6a.1.1 0 0 1 .15.03l.02.06v.98l-.02.05a.1.1 0 0 1-.03.03L14.21 36.5a.1.1 0 0 1-.15-.03c0-.02-.06-.03-.06-.05ZM42 20.31 25.27 32.72a7.92 7.92 0 0 1-3.08-1.64.22.22 0 0 1 .07-.26l19.59-14.54a.1.1 0 0 1 .1-.01.1.1 0 0 1 .05.08v3.96Z" fill="#D9251C"/><path d="M30.72 18.43 14 30.83v-4.2c0-.14.06-.24.16-.33 3.46-2.55 6.9-5.12 10.35-7.7.6-.44 1.63-.56 2.47-.63 1.23-.11 2.48.05 3.74.46Z" fill="#29156E"/><path d="m14 30.83 16.72-12.4a7.05 7.05 0 0 1 2.9 1.8.26.26 0 0 1-.08.29l-19.39 14.4a.1.1 0 0 1-.15-.08v-4Z" fill="#D9251C"/><path d="M42 20.24v4.37c0 .1-.08.18-.16.24-3.25 2.4-6.49 4.81-9.71 7.23a5.1 5.1 0 0 1-1.83.93c-1.62.4-3.3.3-5.03-.29L42 20.24Z" fill="#29156E"/><path d="M17.62 39.96c-.14-.24-.25-.4-.33-.5-.09-.1-.14-.08-.14.06v1.75c0 .07-.02.14-.07.19a.26.26 0 0 1-.19.08h-.11c-.19 0-.28-.1-.28-.29v-3c0-.11.06-.19.17-.22a.7.7 0 0 1 .39 0c.28.07.65.83 1.1 1.57.14.24.25.4.33.5.09.1.13.08.13-.06v-1.75c0-.07.03-.14.08-.19a.26.26 0 0 1 .18-.08H19c.18 0 .27.1.27.29v3c0 .11-.05.2-.16.22a.7.7 0 0 1-.4 0c-.27-.07-.64-.83-1.09-1.57ZM21.4 38c.1 0 .19.02.29.05.1.04.16.1.2.21l1.18 3c.08.2.02.29-.17.29h-.26c-.16 0-.27-.08-.32-.24l-.15-.43a.19.19 0 0 0-.08-.1.47.47 0 0 0-.17-.05 15.7 15.7 0 0 0-1 0 .47.47 0 0 0-.17.06.19.19 0 0 0-.09.1l-.14.43c-.05.15-.16.24-.32.24h-.25c-.2 0-.25-.09-.18-.28l1.15-3.01c.04-.1.1-.18.2-.22a.8.8 0 0 1 .28-.05Zm.02 2.16.24-.03c.1-.03.14-.1.11-.2-.14-.6-.27-.9-.38-.89-.12 0-.23.3-.34.91-.02.1.02.17.13.2l.24.01ZM24.68 38.01l1.2-.01c.15 0 .22.07.22.22v.11c0 .2-.1.3-.29.3h-.6c-.11 0-.17.07-.17.2v2.49c0 .11-.06.18-.16.22a.58.58 0 0 1-.2.02c-.08 0-.14 0-.19-.02-.1-.04-.15-.11-.15-.22v-2.5c0-.12-.07-.18-.2-.18h-.59c-.19 0-.29-.1-.29-.3v-.11c0-.15.07-.22.22-.22h1.2ZM29.2 41.12v.33c0 .03-.02.06-.04.08a.1.1 0 0 1-.07.03h-2.48a.1.1 0 0 1-.07-.03.11.11 0 0 1-.03-.08v-3.34c0-.03.01-.06.03-.08a.1.1 0 0 1 .07-.03h2.42a.1.1 0 0 1 .07.03c.02.02.03.05.03.08v.42c0 .03-.01.06-.03.08a.1.1 0 0 1-.07.03h-1.7a.1.1 0 0 0-.07.03.1.1 0 0 0-.03.08v.56c0 .03.01.06.03.08a.1.1 0 0 0 .07.03h1.57a.1.1 0 0 1 .08.03l.02.08v.37c0 .03 0 .06-.02.08a.1.1 0 0 1-.08.03h-1.59a.1.1 0 0 0-.07.03.11.11 0 0 0-.03.07V40.94a.1.1 0 0 0 .06.06.1.1 0 0 0 .04 0h1.78a.1.1 0 0 1 .07.04c.02.02.03.05.03.08ZM31.08 39.06h.04c.05 0 .08-.02.08-.03l.37-.7a.54.54 0 0 1 .5-.32h.26c.14 0 .18.06.1.2l-.83 1.5a.2.2 0 0 0 .01.22l.94 1.33c.14.2.1.3-.15.3h-.24c-.2 0-.36-.09-.47-.27l-.54-.86c0-.02-.02-.03-.05-.03h-.04c-.03 0-.04.01-.05.03l-.54.85a.53.53 0 0 1-.48.27h-.24c-.24 0-.29-.1-.14-.3l.94-1.32a.2.2 0 0 0 .02-.22l-.83-1.52c-.07-.13-.04-.19.1-.19h.26c.22 0 .4.11.5.32l.37.7c0 .02.03.03.08.04h.03ZM33.68 39.8c0 .45.1.94.54 1.11.43.16.75.05.98-.34.12-.2.28-.26.5-.2l.09.02c.15.1.2.2.13.34-.2.44-.54.7-.98.8-1.2.21-1.95-.51-1.98-1.71-.02-1.2.69-1.96 1.9-1.8.44.06.78.3 1.02.74.07.13.03.25-.12.34l-.09.03c-.21.08-.38.02-.5-.17-.25-.38-.58-.47-1-.3-.43.2-.5.7-.5 1.14ZM39.76 40.06a1.6 1.6 0 0 1-.49 1.08 1.51 1.51 0 0 1-1.09.42l-.31-.01a1.5 1.5 0 0 1-1.06-.5c-.27-.3-.42-.7-.4-1.12l.01-.43a1.6 1.6 0 0 1 .49-1.08 1.51 1.51 0 0 1 1.08-.42l.32.01c.4.02.78.2 1.06.5.27.3.42.7.4 1.12l-.01.43Zm-1.7.94a.9.9 0 0 0 .7-.33c.2-.22.31-.52.32-.85.01-.32-.08-.63-.26-.86a.9.9 0 0 0-.68-.39.9.9 0 0 0-.71.33c-.2.22-.31.53-.32.85-.01.32.08.63.26.87a.9.9 0 0 0 .68.38Z" fill="#D9251C"/><path fill-rule="evenodd" d="M43 13H13v30h30V13Zm-31-1v32h32V12H12Z" fill="#29156E"/></svg>