<!-- by TradingView --><svg width="56" height="56" viewBox="0 0 56 56" xmlns="http://www.w3.org/2000/svg"><path fill="#F0F3FA" d="M0 0h56v56H0z"/><path d="m27.76 11-4.44 3h8.87l-4.43-3ZM17.4 18l4.44-3h11.83l4.44 3H17.4Zm-1.48 1L10 23h35.51l-5.92-4H15.92ZM10 38h36v2H10z" fill="#4B9755"/><path d="M12 24v12h2v-8.46L18.74 36H21V24h-2v8.58L14.15 24H12Z" fill="#101FF5"/><path fill-rule="evenodd" d="M28 24h-5v12h5c2.76 0 5-2.27 5-5.07v-1.86c0-2.8-2.24-5.07-5-5.07Zm-.04 2H25v8h2.96c1.68 0 3.04-1.16 3.04-2.6v-2.8c0-1.44-1.36-2.6-3.04-2.6Z" fill="#101FF5"/><path d="M42.48 24H45l-4.23 5.97L45 36h-2.56l-2.96-4.2L36.5 36H34l4.23-5.99L34 24h2.58l2.94 4.2 2.96-4.2Z" fill="#101FF5"/></svg>