<!-- by TradingView --><svg width="56" height="56" viewBox="0 0 56 56" xmlns="http://www.w3.org/2000/svg"><path fill="#F0F3FA" d="M0 0h56v56H0z"/><path d="M36.26 27.98c-1.18-2.7-2.97-4.48-5.38-5.3-4.18-1.45-8.4.24-10.66 4.2a6.61 6.61 0 0 0-.7 1.76c-.09-.27-.08-.55.03-.85a.5.5 0 0 0 .02-.28c-.23-.9.14-1.55.26-2.33.05-.37-.03-.4-.24-.1a8.34 8.34 0 0 0-1.52 4.11c0 .07-.04.1-.1.08a.14.14 0 0 1-.08-.05.43.43 0 0 1-.06-.08 8.68 8.68 0 0 1 .36-4.32c.17-.47.1-.51-.21-.13a8.62 8.62 0 0 0-1.9 5.3c0 .05-.02.07-.05.04l-.07-.04c-.18-2.07.1-4.02.84-5.86.13-.32.1-.35-.1-.06a14.18 14.18 0 0 0-2.62 6.97c0 .1-.03.1-.05 0a3.9 3.9 0 0 1-.1-1.32c.19-2.13.54-3.95 1.25-5.69.1-.25.17-.5.21-.73.02-.12-.01-.13-.1-.04a16.09 16.09 0 0 0-4.02 8.99c0 .03-.02.04-.05.05-.03 0-.05-.01-.05-.05.07-1.3.16-2.38.27-3.23a13.85 13.85 0 0 1 2.45-6.33l-.03-.07c-.01-.05-.03-.05-.07-.02-.67.68-1.12 1.2-1.34 1.55a35.72 35.72 0 0 0-4.3 9.75c-.02.04-.04.05-.08.03l-.08-.05a.07.07 0 0 1-.04-.07 24.72 24.72 0 0 1 3.46-10.2c4.72-7.7 13.4-11.33 21.94-8.82 8.39 2.46 13.58 10.35 14.66 19l-.01.04c0 .02-.02.03-.04.04l-.08.05c-.03.02-.06 0-.07-.03-1.16-4.06-2.84-8.1-5.59-11.3a.32.32 0 0 0-.16-.13c-.08-.02-.1 0-.05.08a15.55 15.55 0 0 1 2.68 9.72c0 .03-.02.05-.05.04-.03 0-.04-.02-.05-.04a14.64 14.64 0 0 0-.68-3.54c-.8-2.13-1.9-3.97-3.26-5.5-.2-.22-.24-.19-.12.1a20.27 20.27 0 0 1 1.51 8.08l-.01-.03-.03-.04c-.47-2.73-1.14-4.97-2.64-7.13-.27-.4-.33-.37-.15.09a13.7 13.7 0 0 1 .83 5.74.06.06 0 0 1-.08 0 .06.06 0 0 1-.03-.04c-.26-2.1-.8-4.03-2.15-5.59-.1-.11-.13-.1-.1.06.45 1.65.65 2.88.6 3.7-.07 1.3-.26 1.31-.55.04a7.33 7.33 0 0 0-1.05-2.7c-.74-.96-.86-.9-.36.2.26.58.24 1.35-.06 2.28Z" fill="#F4D875"/><path d="M36.26 27.98a9.45 9.45 0 0 1-.06 6.53l-16.37-.06a.68.68 0 0 1-.18-.26 8.9 8.9 0 0 1-.12-5.55c.14-.62.38-1.2.69-1.75 2.26-3.97 6.48-5.66 10.66-4.22 2.41.83 4.2 2.6 5.38 5.31Z" fill="red"/><path fill="#44386F" d="M6 34h44v1H6z"/></svg>