<!-- by TradingView --><svg width="56" height="56" viewBox="0 0 56 56" xmlns="http://www.w3.org/2000/svg"><path fill="#F0F3FA" d="M0 0h56v56H0z"/><path d="M37.19 42.3a17.09 17.09 0 0 1-17.05.8c-.74-.37-1.62-.98-2.3-1.48A16.86 16.86 0 0 1 12 22.4a18.81 18.81 0 0 1 2.04-3.9 16.44 16.44 0 0 1 4.87-4.74 16.35 16.35 0 0 1 6.33-2.47c1.63-.27 3.09-.35 4.37-.25a16.8 16.8 0 0 1 15 13.33c.17.82.36 1.87.39 2.7.2 6.1-2.57 11.86-7.8 15.23Zm2.5-10.24-.26-.1c-.06-.02-.12 0-.17.05-.09.09-.09.2 0 .35.09.16.23.37.43.64a.4.4 0 0 0 .52.09.17.17 0 0 0 .06-.24.17.17 0 0 0-.07-.06.4.4 0 0 1-.16-.14c-.03-.05-.02-.1.02-.14l.16-.16c.05-.05.06-.1.03-.16-.08-.2-.04-.33.14-.4.06-.03.08-.07.07-.13-.07-.3.03-.56.3-.78.07-.05.12-.04.17.03l.29.4c.03.04.05.1.05.15v1.5c0 .08.03.13.1.17l.19.12c.09.07.11.15.07.23a.13.13 0 0 1-.13.08c-.27 0-.45.09-.54.28-.03.06-.02.11.04.15.32.25.54.51.65.8.02.07.07.1.14.1.04 0 .09-.02.15-.05a.15.15 0 0 0 .08-.14c0-.16 0-.3.04-.4.3-.97.77-1.97.98-3 .35-1.66.45-3.24.3-4.71A16.85 16.85 0 0 0 41 19.76c-.4-.68-.9-1.37-1.53-2.06a14.54 14.54 0 0 0-4.5-3.53c-.86-.4-1.89-.9-2.87-1.17a15.31 15.31 0 0 0-15.25 4.29 14.99 14.99 0 0 0-3.8 7.07c-.75 3.24-.49 6.47.78 9.7.03.07.07.08.13.04.15-.11.29-.26.42-.44.04-.06.03-.11-.04-.15-.16-.07-.21-.23-.16-.45a.16.16 0 0 0-.04-.16.28.28 0 0 1-.08-.1c-.03-.06-.02-.11.03-.16.07-.06.11-.1.13-.1.27-.1.27-.18 0-.26a1.13 1.13 0 0 0-.34 0 .08.08 0 0 1-.09-.05.16.16 0 0 1-.02-.05c-.01-.06.01-.1.07-.1.14-.05.25-.1.34-.16.27-.18.25-.3-.06-.37-.06-.01-.19 0-.38.03-.05 0-.08-.01-.1-.07a.1.1 0 0 1 .01-.06c.01-.03.04-.06.09-.08l.52-.22c.1-.04.11-.09 0-.15l-.34-.2c-.06-.04-.07-.08-.05-.14.2-.4.62-.52.76-.94.02-.06.06-.08.13-.06.5.18.7.55.63 1.09a.11.11 0 0 0 .03.09.11.11 0 0 0 .1.03c.22-.03.4-.12.54-.29a.26.26 0 0 0-.03-.36c-.2-.18-.2-.34.03-.46.17-.09.17-.16 0-.22l-.13-.06c-.3-.12-.3-.24 0-.35l.22-.12a.2.2 0 0 0 .08-.1.23.23 0 0 0 .02-.1.12.12 0 0 0-.11-.1c-.16-.02-.25-.04-.29-.08-.04-.05-.03-.09.02-.12l.29-.17c.06-.04.07-.08.02-.14l-.26-.25c-.06-.07-.05-.12.04-.15.39-.15.7-.43.95-.86a.12.12 0 0 1 .08-.06.12.12 0 0 1 .1.03l.86.86c.02.03.04.06.04.1 0 .2.01.32.02.37.03.15.11.23.24.23.07 0 .12-.04.14-.1l.18-.53c.02-.07 0-.12-.08-.14a.42.42 0 0 1-.16-.08c-.05-.05-.06-.1-.03-.17l.3-.53a.16.16 0 0 0 0-.15l-.21-.38c-.05-.08-.03-.13.06-.15a.84.84 0 0 0 .62-.54.12.12 0 0 1 .14-.08c.02 0 .03.02.05.03l.58.59a.15.15 0 0 1 .04.12c-.01.17.02.34.1.51.02.07.01.13-.04.18l-.18.18c-.05.06-.06.12-.02.18l.15.27c.03.06.04.13.03.2l-.2.79a.05.05 0 0 0 .01.03.04.04 0 0 0 .04.02l.05.01c.02 0 .03 0 .04-.03.01-.19.05-.3.1-.37.25-.3.73-.85 1.05-1.3 1.4-2 2.78-4 4.11-5.97.15-.22.39-.33.71-.34.12 0 .26.05.44.18.17.12.3.2.42.24.06.02.11.01.16-.03l.63-.5a.19.19 0 0 1 .12-.04c.24.01.46.14.67.39a.14.14 0 0 0 .16.04l.85-.31a.31.31 0 0 1 .38.13 55.24 55.24 0 0 0 3.81 5.65c.47.6.97 1.07 1.43 1.63a.13.13 0 0 0 .1.05.14.14 0 0 0 .1-.04l.19-.18a.13.13 0 0 0 .03-.11.13.13 0 0 0-.06-.1l-.25-.15a.18.18 0 0 1-.06-.26.18.18 0 0 1 .08-.06l.23-.08.02-.01a.06.06 0 0 0 .02-.06v-.02l-.04-.06c-.02-.03-.04-.04-.08-.03-.13.03-.23.01-.3-.04a.1.1 0 0 1-.04-.09.1.1 0 0 1 .05-.08c.47-.24.85-.59 1.14-1.03.03-.06.08-.07.13-.02.6.46.91 1.01.95 1.65 0 .07.03.12.1.15.09.06.2.16.33.32a.1.1 0 0 1 .02.1.1.1 0 0 1-.1.06l-.32-.02c-.25-.02-.27.05-.06.2.14.1.2.27.21.53 0 .05.02.1.06.15.08.1.12.18.13.23.01.06-.01.1-.07.12l-.33.12a.1.1 0 0 0 0 .2c.34.12.48.36.44.73-.03.23-.04.37-.03.44.01.06.04.12.09.16.22.2.38.4.49.61a.25.25 0 0 0 .22.15h.07c.08 0 .11-.04.1-.12-.05-.2-.23-.22-.3-.4-.05-.1-.04-.18.02-.22.23-.16.2-.23-.07-.22-.02 0-.05-.02-.1-.06-.06-.04-.08-.1-.05-.16.07-.19.2-.34.38-.46a.1.1 0 0 0 .04-.14.39.39 0 0 0-.16-.16.17.17 0 0 1-.05-.24.17.17 0 0 1 .07-.06c.31-.13.53-.36.64-.68a.13.13 0 0 1 .17-.08c.03 0 .05.02.06.04l.64.77a.23.23 0 0 1 .06.18l-.07.57c-.01.08.02.13.08.17l.27.15c.05.04.08.08.08.15 0 .05-.05.11-.16.18a.26.26 0 0 0-.1.14c-.12.35-.17.69-.14 1.01 0 .08-.03.1-.1.07Zm-10.22-9.5c.14.11.25.25.35.43a44 44 0 0 0 1.1 1.93c.21.37.59.73.83 1 .2.22.4.49.62.8a17 17 0 0 0 1.9 2.23c.24.24.41.56.65.86.02.02.04.02.06 0l.06-.03c.06-.03.08-.08.04-.14-.15-.26-.26-.6-.33-1.04a1.19 1.19 0 0 0-.29-.6c-.95-.89-1.77-2-2.36-2.78-.95-1.24-1.92-2.7-2.87-3.92a.28.28 0 0 0-.36-.08l-.33.2a.42.42 0 0 1-.5-.07l-.27-.26a.18.18 0 0 0-.18-.05c-.08.03-.19.14-.33.34a.26.26 0 0 1-.15.1c-.6.16-.83-.08-1.26-.35a.23.23 0 0 0-.31.07c-1 1.56-2.05 3.06-3.16 4.5-.53.69-1.38 1.92-2.27 2.89-.18.2-.14.27.12.23a.88.88 0 0 0 .58-.37c.73-.98 1.43-1.89 2.09-2.74.07-.09.12-.12.15-.1a.29.29 0 0 1 .05.37c-.86 1.4-1.45 2.36-1.76 2.9-.58.99-1.48 2-2.02 2.92-.06.1-.12.33-.18.69-.02.07.01.1.08.08a.6.6 0 0 0 .37-.26c.84-1.29 1.85-2.42 2.57-3.77.15-.27.17-.53.35-.77a47.95 47.95 0 0 0 2.27-3.38h.03a.07.07 0 0 1 .05.01l.05.05v.03c-.29.6-.57 1.22-.86 1.88-.22.5-.51 1.11-.9 1.85-.46.9-.85 1.9-1.16 2.98-.06.2-.01.23.14.1.46-.4.95-1.35 1.64-2.5.49-.81.85-1.57 1.1-2.26l1.05-2.98c.05-.14.15-.28.3-.42a.07.07 0 0 1 .07-.01.07.07 0 0 1 .04.06c0 .42.01 1.08-.1 1.56-.25 1.18-.35 2.12-.65 3.26l-1.7 6.43c0 .03 0 .05.04.05l.08.01a.11.11 0 0 0 .12-.07c.43-1.09.82-2.19 1.15-3.3.18-.58.58-1.05.7-1.65l.46-1.99c.04-.18.12-.28.24-.3.1-.02.15.02.14.12-.1 1.41-.16 2.58-.4 4.16-.12.76-.25 1.75-.4 2.98-.02.15-.01.42 0 .8a.11.11 0 0 0 .12.1c.08 0 .13-.03.15-.1.1-.32.1-.74.06-1.27-.01-.1.02-.12.1-.06l.12.08c.17.13.25.1.23-.12-.15-1.3-.1-2.63.13-3.98.16-.92.26-2.59.31-5.01 0-.11.05-.21.12-.28l.1-.11c.08-.07.12-.06.12.04.02.96.07 2.45.17 4.48.07 1.3.04 2.78.05 3.94 0 .76.15 1.46.19 2.15 0 .02 0 .04.02.05 0 .02.02.03.04.03h.04c.02 0 .03 0 .04-.02l.07-.08a.46.46 0 0 0 .03-.04c0-.97.04-1.72.11-2.24.09-.7.1-1.38.05-2.03-.07-.7-.05-1.95.04-3.76.01-.22.07-.24.18-.04.27.51.5.85.6 1.44.15 1.06.53 2.02.73 3.05.3 1.43.59 2.8.88 4.1.07.31.21.73.44 1.25.03.09.08.1.16.06l.07-.04c.03-.02.04-.05.03-.09a6.64 6.64 0 0 1-.48-1.52 70.66 70.66 0 0 0-2.46-10.05 16 16 0 0 1-.32-2.55c0-.07.01-.07.04-.02.44.7.73 1.26.89 1.68.46 1.25 1.13 3.26 2.03 6.03.03.09.1.12.2.08l.04-.02c.02 0 .03-.02.04-.04a5.63 5.63 0 0 1-.14-2.03.16.16 0 0 0-.04-.05c-.2-.24-.55-.4-.63-.7-.32-1.12-.75-2.78-1.28-4.95-.02-.08 0-.1.07-.04Zm3.58 5.73a.08.08 0 0 0-.11-.01l-.1.07a.08.08 0 0 0-.02.1l.02.02 1.58 1.92a.08.08 0 0 0 .11 0l.1-.07a.08.08 0 0 0 0-.12l-1.58-1.91Zm-14.72.88.18-.3a.18.18 0 0 0 0-.17.18.18 0 0 0-.11-.1c-.23-.07-.39-.08-.48-.03-.07.04-.07.09-.02.14.12.15.2.35.27.62 0 .06 0 .1-.03.16l-.13.22a.14.14 0 0 0 0 .13c.12.25.08.47-.12.66-.06.05-.06.1 0 .17l.05.05h.02c.43-.39.78-.78 1.07-1.17.24-.33.15-.46-.25-.4a1 1 0 0 0-.3.15c-.24.15-.28.1-.15-.13Zm14.9 1.56c.03-.17.03-.27-.08-.43a14.4 14.4 0 0 1-.85-1.47.07.07 0 0 0-.07-.01.08.08 0 0 0-.03.02l-.06.05-.01.03v.02c.42.74.75 1.54 1 2.38.01.06.05.1.12.1.07.02.15 0 .22-.06a.14.14 0 0 0 .06-.1.14.14 0 0 0-.03-.1l-.22-.23a.2.2 0 0 1-.06-.2ZM16.54 33.3c.86-.92 1.98-2.08 3.37-3.48.16-.16.12-.24-.1-.24-.32 0-.6.18-.85.51-.35.47-1.17 1.53-2.47 3.17v.04c0 .03.02.03.05 0Zm20.94-1.37a.08.08 0 0 0 .14-.03l.03-.2a.15.15 0 0 0-.04-.13l-1.04-1.04c-.02-.03-.05-.03-.08 0l-.05.05a.1.1 0 0 0-.01.11l.02.03c.43.36.77.76 1.03 1.21Zm-2.36-1.23a.15.15 0 0 0-.21-.02.16.16 0 0 0-.03.22l1.61 1.96a.15.15 0 0 0 .22.02.16.16 0 0 0 .02-.22l-1.6-1.96Zm3.1 1.36a.14.14 0 0 0-.2-.01l-.02.01a.15.15 0 0 0-.01.2l.95 1.08a.14.14 0 0 0 .2.01l.02-.01a.15.15 0 0 0 .05-.1.14.14 0 0 0-.04-.1l-.95-1.08ZM21.3 34.82h.29c.07 0 .11-.03.14-.1.26-.6.6-1.2 1-1.77.12-.18.09-.3-.1-.36a.22.22 0 0 0-.22.04c-.43.37-.88.75-1.26 1.23-.55.68-1.1 1.22-1.17 1.6-.02.08.02.11.1.08.43-.15.77-.52 1.06-.68.05-.03.1-.04.16-.04Zm4.97 4.6h.6c.08 0 .12.04.13.1.06.38-.01.69-.22.91a.21.21 0 0 0-.06.14v.8a.24.24 0 0 0 .25.24h1.61c.06 0 .12-.02.16-.06.38-.34.34-.85.01-1.25-.12-.15-.15-.4-.1-.76a.14.14 0 0 1 .13-.12c.08-.01.15.01.22.06.03.03.06.1.07.24.13 1.19.76 1.84 1.9 1.95.7.08 1.32-.19 1.84-.79.05-.04.09-.04.13 0a2.12 2.12 0 0 0 3.28.05c.82-1 .51-2.82-.75-3.33a2.2 2.2 0 0 0-2.2.28c-.06.04-.1.02-.13-.04a.52.52 0 0 1-.02-.38.19.19 0 0 0-.02-.17c-.25-.35-.68-.9-.79-1.44a32.61 32.61 0 0 0-.46-1.79.08.08 0 0 0-.12 0l-.07.08a.16.16 0 0 0-.05.17l.87 2.7c.05.15.16.27.26.38a.05.05 0 0 1 0 .06l-.01.02h-.03c-.5.05-.95.05-1.35 0-.66-.07-1.21.1-1.67.5-.06.06-.1.04-.11-.04-.06-.33-.18-.43-.55-.43h-7.4c-.2 0-.38.09-.63.05-.36-.05-.8-.06-1.35-.05-.24 0-.37.15-.38.39-.01.38-.05.71.2 1 .05.04.07.1.08.16v.76c0 .15-.06.36-.19.64-.14.33-.15.66-.03 1a.23.23 0 0 0 .21.16h1.67a.19.19 0 0 0 .15-.07c.09-.1.18-.11.27-.02.05.05.1.08.18.08h4.37a.41.41 0 0 0 .41-.4V40c0-.14-.12-.3-.34-.49-.07-.06-.06-.09.03-.09Z" fill="#064FA2"/><path d="M31.24 40.5c.31-.07.52-.3.7-.42.06-.04.11-.06.16-.06h.57a.15.15 0 0 1 .12.06.14.14 0 0 1 .02.13c-.57 1.67-3.23 1.53-3.37-.36-.05-.6.07-1.2.54-1.6a1.7 1.7 0 0 1 1.51-.36c.46.1.8.05 1.2 0a.1.1 0 0 1 .08.03.1.1 0 0 1 .03.08v1.05c0 .07-.04.12-.1.14-.37.1-.65.06-.84-.1l-.36-.29c-.43-.22-.76-.13-.99.26-.28.5-.18.97.3 1.4.1.07.24.09.43.04ZM36.38 39.6a1.78 1.78 0 0 1-1.77 1.78 1.77 1.77 0 0 1-1.77-1.78 1.78 1.78 0 0 1 1.77-1.78 1.77 1.77 0 0 1 1.77 1.78Zm-1.74.94c.1 0 .2-.03.3-.08.09-.05.17-.12.24-.2.07-.1.13-.2.16-.3a1.1 1.1 0 0 0-.18-1.02.78.78 0 0 0-.25-.2.66.66 0 0 0-.6 0 .78.78 0 0 0-.24.21.96.96 0 0 0-.16.3 1.1 1.1 0 0 0 .18 1.02c.07.09.16.16.25.2.1.05.2.07.3.07ZM20.93 39.84c-.05.1-.06.24-.03.42.07.33.4.45.29.91-.02.08-.07.11-.15.11H19.7c-.06 0-.09-.03-.1-.08-.03-.33.04-.55.22-.68.06-.03.08-.09.08-.16-.02-.38-.02-.83-.01-1.36 0-.1-.01-.18-.05-.24-.05-.07-.1-.12-.14-.14a.14.14 0 0 1-.1-.14v-.45c0-.08.05-.12.13-.12h1.04a.22.22 0 0 1 .19.1c.27.45.48.82.62 1.13.13.3.21.28.24-.04.02-.16-.09-.33-.32-.5a.2.2 0 0 1-.08-.16v-.4c0-.08.04-.12.13-.12h1.34c.07 0 .1.03.1.1v.46c0 .03 0 .06-.03.09a.14.14 0 0 1-.08.04.42.42 0 0 0-.15.06.17.17 0 0 0-.08.15v2.36c0 .07-.03.1-.1.1h-.58a.2.2 0 0 1-.18-.1L21 39.84c-.02-.05-.05-.05-.07 0ZM24.61 39.12c.05.03.15.01.32-.04.1-.03.16 0 .16.12v.56a.1.1 0 0 1-.07.1l-.4.15a.1.1 0 0 0-.08.1v.37c0 .1.05.14.14.13l.4-.02c.14 0 .23-.04.27-.1a.68.68 0 0 0 .1-.34c0-.12.07-.18.2-.18h.42c.1 0 .15.05.15.16v.99c0 .1-.05.16-.16.16H23.3c-.1 0-.14-.04-.14-.14v-.42c0-.08.03-.11.11-.1.06 0 .13-.02.23-.06.05-.01.08-.05.08-.1v-1.62c0-.06-.03-.1-.08-.14a.47.47 0 0 0-.2-.08.12.12 0 0 1-.07-.04.13.13 0 0 1-.03-.08v-.4a.17.17 0 0 1 .17-.17h2.77c.05 0 .08.02.08.08v.97c0 .1-.05.15-.15.15h-.51c-.05 0-.08-.02-.1-.06l-.12-.33a.13.13 0 0 0-.11-.09 1.49 1.49 0 0 0-.54.03.24.24 0 0 0-.18.2.25.25 0 0 0 .1.24ZM27.2 38.7a.97.97 0 0 0-.09.26c-.02.1-.1.16-.21.16h-.35c-.1 0-.14-.05-.14-.14v-.94c0-.07.04-.11.12-.11h2.53a.14.14 0 0 1 .14.14V39c0 .07-.03.1-.09.12-.34.1-.6-.01-.75-.3-.05-.11-.08-.1-.08.02v1.55c0 .07.04.12.1.14.26.08.33.3.23.67-.02.06-.06.1-.13.1h-1.3c-.07 0-.1-.03-.12-.1-.08-.3-.01-.51.2-.64.07-.04.11-.08.11-.13l-.03-1.67c0-.2-.05-.23-.14-.05Z" fill="#DA2626"/><path d="M23.05 38.88a.08.08 0 0 0-.1.09v1.22c0 .05.04.08.09.08.05 0 .09-.03.09-.08v-1.22a.08.08 0 0 0-.08-.09ZM31.64 39.41l.08.05c.07.03.08.08.02.14l-.42.42a.34.34 0 0 1-.55-.1.94.94 0 0 1 .02-.74c.02-.07.06-.1.13-.13.26-.1.46-.03.6.22.02.06.07.1.12.14ZM34.16 39.55c0 .31.2.56.43.56.25 0 .45-.24.45-.54 0-.31-.19-.56-.43-.57-.24 0-.44.25-.45.55Z" fill="#064FA2"/></svg>