<!-- by TradingView --><svg width="56" height="56" viewBox="0 0 56 56" xmlns="http://www.w3.org/2000/svg"><path fill="#F0F3FA" d="M0 0h56v56H0z"/><path d="m28.77 11 .45.05A17.05 17.05 0 0 1 45 27.2v1.59A17.02 17.02 0 0 1 28.8 45h-1.58A17.06 17.06 0 0 1 11 28.78v-1.51l.1-1.1a17.04 17.04 0 0 1 15.62-15.11c.18-.02.37-.03.54-.06h1.51Zm15.5 17.01a16.25 16.25 0 1 0-32.51 0 16.25 16.25 0 0 0 32.5 0Zm-16.23-12.1h.01v.02c.25.62.7 1.66 1.36 3.12 1 2.23 1.2 4.53.6 6.9-.36 1.39-.85 2.77-1.48 4.14a5.64 5.64 0 0 1-.5.87h-.01a5.67 5.67 0 0 1-.5-.88 24.33 24.33 0 0 1-1.47-4.14c-.6-2.37-.4-4.67.6-6.9a63.23 63.23 0 0 0 1.39-3.13Zm0 4.3c-.03 0-.13-.5-.31-1.47-.02-.08-.04-.09-.09-.01a9.49 9.49 0 0 0-1.24 4.95c.05 1.84.77 3.81 1.61 5.56l.01.01h.02l.01-.01c.85-1.75 1.56-3.72 1.6-5.56a9.5 9.5 0 0 0-1.23-4.95c-.04-.08-.07-.07-.09.01-.18.97-.28 1.46-.3 1.46Zm-10.48.34c-.05-.02-.07 0-.05.04.25.7.44 1.28.56 1.71l.57 1.94a8.6 8.6 0 0 0 3.52 4.73c1.3.86 2.95 1.61 4.53 2.02.12.03.17-.02.15-.14l-.1-.55a21.1 21.1 0 0 0-2.19-5.4 7.98 7.98 0 0 0-3.5-3.06c-.27-.13-.8-.31-1.58-.56-.54-.17-1.1-.4-1.58-.6l-.33-.13Zm2.55 2.94c.09.06.1.04.05-.05l-.7-1.2a.05.05 0 0 1 .03-.07h.02a7.3 7.3 0 0 1 4.6 3.35 16.38 16.38 0 0 1 1.69 4.28h-.01c-1.68-.53-3.45-1.34-4.6-2.55a9 9 0 0 1-2.2-4.45c-.02-.08.01-.1.08-.05l1.04.74Zm18.5-2.88c-.25.7-.44 1.27-.56 1.71a87.8 87.8 0 0 1-.57 1.93A8.6 8.6 0 0 1 33.94 29c-1.3.86-2.96 1.6-4.54 2.01-.12.03-.17-.01-.15-.14.03-.2.06-.38.1-.54a21.13 21.13 0 0 1 2.2-5.4 8 8 0 0 1 3.5-3.07c.29-.13.82-.31 1.6-.56.53-.16 1.09-.4 1.58-.6l.34-.13c.05-.02.07 0 .05.05Zm-2.66 2.85.7-1.2a.05.05 0 0 0-.02-.07h-.03a7.32 7.32 0 0 0-4.6 3.34 16.42 16.42 0 0 0-1.71 4.28l.01.01h.01c1.67-.53 3.45-1.34 4.6-2.55a9.03 9.03 0 0 0 2.22-4.45c.01-.08-.01-.1-.08-.05l-1.05.74c-.08.06-.1.04-.05-.05ZM17.11 34.13l.48.64L19 36.7c.11.15.29.31.49.3.4-.03.51-.43.51-.78l-.01-3.67a.58.58 0 0 0-.15-.37.46.46 0 0 0-.16-.1.42.42 0 0 0-.19-.04h-.05c-.34 0-.44.16-.44.5v2.33c0 .04-.08.03-.11 0l-.48-.64L17 32.3c-.11-.15-.29-.31-.49-.3-.4.03-.51.43-.51.78l.01 3.67a.58.58 0 0 0 .15.37c.05.05.1.08.16.1.06.03.13.04.19.04h.05c.34 0 .44-.16.44-.5v-2.33c0-.05.08-.04.11 0ZM37.78 37a1.7 1.7 0 0 1-.77-.21 2.07 2.07 0 0 1-.64-.57 2.62 2.62 0 0 1-.42-.82c-.1-.3-.14-.63-.13-.96.02-.66.25-1.3.64-1.75.39-.46.91-.7 1.45-.69.26 0 .52.08.76.21.25.14.46.33.65.57.18.23.32.51.41.82.1.3.14.63.13.96-.01.66-.24 1.3-.64 1.75-.39.46-.9.7-1.44.69Zm.06-.96c.14 0 .27-.04.4-.12.11-.08.22-.2.32-.33.1-.15.16-.32.22-.5a2.25 2.25 0 0 0 0-1.18 1.74 1.74 0 0 0-.23-.5 1.1 1.1 0 0 0-.32-.33.72.72 0 0 0-.39-.11.72.72 0 0 0-.39.12c-.12.07-.23.19-.32.33-.1.14-.17.31-.22.5a2.25 2.25 0 0 0 0 1.17c.05.19.13.36.22.5.1.14.2.25.33.33.12.08.25.12.38.12ZM21.5 32h.02a.5.5 0 0 1 .49.5v4a.5.5 0 0 1-.49.5h-.02a.5.5 0 0 1-.49-.5v-4c0-.28.22-.5.49-.5Zm2.54 1-.02.04v.02l-.01.02V34c0 .03 0 .04.04.04.3-.06.85-.1 1.12.1.22.16.23.53.05.73-.22.25-.83.2-1.14.15-.04 0-.06.01-.06.05l.01.3c.04.53.1 1.4-.33 1.59-.39.18-.67-.18-.67-.6L23 33.12c0-.7.1-1.11.83-1.12H25c.3.02.46.2.5.54v.02c-.06.33-.22.44-.48.44h-.99Zm3.08 2c.5.08 1.24.08 1.24-.5 0-.59-.75-.59-1.24-.5-.08 0-.11-.03-.11-.11v-.7c0-.07.02-.19.08-.19h.9c.3 0 .45-.1.47-.47v-.02c-.05-.32-.22-.49-.49-.5a7.88 7.88 0 0 0-1.37.04c-.48.06-.58.38-.59.87a259.91 259.91 0 0 0 0 3.15c0 .5.1.81.59.88.35.05.8.06 1.37.03.27 0 .44-.17.49-.5v-.02c-.02-.36-.18-.46-.47-.46h-.9c-.06 0-.08-.13-.08-.19v-.7c0-.09.03-.12.1-.11Zm4.06-.12c-.1.03-.1.07-.03.13.37.33 1.27 1.24.88 1.8-.19.28-.64.18-.78-.04-.44-.69-.68-1.06-.72-1.1a.83.83 0 0 1-.2-.5 15.02 15.02 0 0 1 .04-.94.14.14 0 0 1 .08-.07h.05c.66.07.85-.75.3-1.04a1.83 1.83 0 0 0-.72-.07c-.05 0-.07.02-.07.06v2.84c.02.46-.11 1.34-.76.95-.2-.12-.24-.35-.24-.6v-3.58c0-.27.16-.46.49-.59.54-.2 1.1-.17 1.68.1.69.32.98.86.87 1.64-.08.53-.37.87-.87 1.01Zm2.42.3c-.08-.19-.12-.41-.12-.67 0-.25.03-.47.1-.67.27-.7.79-.9 1.56-.6.28.1.45-.03.53-.4v-.02c-.05-.35-.2-.57-.43-.66-1.6-.62-2.79.64-2.77 2.37.02 1.72 1.23 2.95 2.83 2.28.23-.1.37-.32.41-.66v-.03c-.09-.36-.27-.49-.54-.38-.77.32-1.3.14-1.57-.56Z" fill="#45B649"/></svg>