<!-- by TradingView --><svg width="56" height="56" viewBox="0 0 56 56" xmlns="http://www.w3.org/2000/svg"><path fill="#F0F3FA" d="M0 0h56v56H0z"/><path d="M47.9 26.69c2.59 20.4-42.36 20.42-39.8.03 2.1-16.68 37.61-17.23 39.8-.03Zm-35.78-3.82c-3.14 4.95-1.25 10.7 3.25 13.86 7.58 5.31 19.06 5.23 26.16-.93a10.1 10.1 0 0 0 3.67-9.27c-.24-2.03-1.4-4.06-3.5-6.09a.7.7 0 0 1-.22-.52v-1.6c0-.18-.08-.28-.24-.34-1.04-.33-1.23 1.03-2.43.33-8.22-4.78-21.34-3.88-26.7 4.56Z" fill="#00F"/><path d="m22.07 24.46 16.41-5.55a.59.59 0 0 1 .52.05c.87.52 2.03 1.23 2 2.54v4.46c0 .2-.1.32-.29.35l-18.53 3.42c-.12.03-.18-.02-.18-.15v-5.02c0-.05.02-.08.07-.1Z" fill="red"/><path d="m14.35 31.98 15.5-2.31a.13.13 0 0 1 .13.07l.02.05v6.12a.12.12 0 0 1-.07.06c-.01.01-.03.03-.05.03H14.2c-.03 0-.07-.1-.09-.13-.02-.02-.11-.05-.11-.08v-8.77c0-.03.06-.05.08-.07a.13.13 0 0 1 .06-.05l7.1-2.24a.13.13 0 0 1 .13.05.12.12 0 0 1 0 .14l-.35.43c-.02.02-.02.05-.02.07v4.47c0 .03-.03.05-.05.08a.13.13 0 0 1-.07.04L14.48 31a.13.13 0 0 0-.07.03.12.12 0 0 0-.03.06l-.17.73a.12.12 0 0 0 .03.11.13.13 0 0 0 .11.04ZM31.17 29.4l9.6-1.46a.2.2 0 0 1 .21.12.2.2 0 0 1 .02.08v7.66a.2.2 0 0 1-.06.14.2.2 0 0 1-.14.06h-9.6a.2.2 0 0 1-.18-.12.2.2 0 0 1-.02-.08v-6.2c0-.05.02-.1.05-.13a.2.2 0 0 1 .12-.07Z" fill="red"/></svg>