<!-- by TradingView --><svg width="56" height="56" viewBox="0 0 56 56" xmlns="http://www.w3.org/2000/svg"><path fill="#F0F3FA" d="M0 0h56v56H0z"/><path d="M30.87 42h8.25c.7 0 1.34-.37 1.7-.96l4.72-7.6c.3-.47.04-1.44-.53-1.44h-15v9.12c0 .48.39.88.86.88Z" fill="url(#a)"/><path d="m14.73 40.36-4.52-7.28a1.37 1.37 0 0 1-.02-1.42L21.56 12.5c.2-.32.53-.5.89-.5h11.1L16.72 40.34c-.45.74-1.54.76-2 .02Z" fill="url(#b)"/><path d="M12.08 32c-.74-.02-1.33-.23-1.33-.94 0-.22.06-.43.16-.61l-.72 1.21c-.27.44-.25.98.02 1.42l.38.6 4.58 7.38c.36.57 1 .94 1.7.94h8.26c.49 0 .87-.39.87-.85V32H12.08Z" fill="url(#c)"/><path d="M45.8 31.66 34.43 12.5c-.2-.32-.53-.5-.89-.5H22.45c-.36 0-.7.18-.89.5l-.6 1a1.36 1.36 0 0 1 2.28-.15l15.87 26.72c.09.18.15.38.15.59 0 .71-.6 1.3-1.34 1.3h1.22c.7 0 1.34-.35 1.7-.93l.43-.7 4.53-7.29c.27-.4.27-.94 0-1.38Z" fill="url(#d)"/><defs><linearGradient id="a" x1="36.65" y1="37.18" x2="30.65" y2="37.18" gradientUnits="userSpaceOnUse"><stop stop-color="#0054A6"/><stop offset="1" stop-color="#0087C5"/></linearGradient><linearGradient id="b" x1="16.2" y1="31.99" x2="23.59" y2="18.07" gradientUnits="userSpaceOnUse"><stop stop-color="#0054A6"/><stop offset="1" stop-color="#0087C5"/></linearGradient><linearGradient id="c" x1="14.03" y1="36.21" x2="23.98" y2="36.21" gradientUnits="userSpaceOnUse"><stop stop-color="#118E55"/><stop offset="1" stop-color="#58B947"/></linearGradient><linearGradient id="d" x1="39.77" y1="33.05" x2="31.09" y2="18.32" gradientUnits="userSpaceOnUse"><stop stop-color="#118E55"/><stop offset="1" stop-color="#58B947"/></linearGradient></defs></svg>