<!-- by TradingView --><svg width="56" height="56" viewBox="0 0 56 56" xmlns="http://www.w3.org/2000/svg"><path fill="#F0F3FA" d="M0 0h56v56H0z"/><path d="M46.23 28c0 .8-.3 1.56-.86 2.12a2.92 2.92 0 0 1-4.17 0 3.03 3.03 0 0 1 0-4.24 2.92 2.92 0 0 1 4.17 0c.55.56.86 1.32.86 2.12Zm-3.77 1.64c.14.07.3.1.46.08.17-.01.34-.08.52-.18.17-.1.34-.24.49-.41a2.75 2.75 0 0 0 .67-1.9c-.04-.42-.22-.72-.5-.87a.8.8 0 0 0-.46-.08c-.16.02-.34.08-.51.18-.17.1-.34.25-.5.42a2.75 2.75 0 0 0-.66 1.9c.04.4.22.72.5.86ZM23.42 25.07v5.86a.07.07 0 0 1-.02.05l-.03.01-.02.01h-1.47a.07.07 0 0 1-.02-.03l-1.43-2.08a.07.07 0 0 0-.03-.03h-.04a.07.07 0 0 0-.04.03l-.01.04v2a.07.07 0 0 1-.02.05l-.02.01-.03.01h-1.68c-.02 0-.04 0-.05-.02a.07.07 0 0 1-.02-.05v-5.86c0-.02 0-.04.02-.05a.07.07 0 0 1 .05-.02h1.46l.03.03 1.42 2.08a.07.07 0 0 0 .08.03l.03-.02.02-.05v-2c0-.02 0-.04.02-.05a.07.07 0 0 1 .04-.02h1.69a.07.07 0 0 1 .06.04v.03ZM32.14 27.22h.04l1.32-2.13a.17.17 0 0 1 .15-.09h1.23c.08 0 .12.05.12.14v5.8c0 .04-.02.06-.05.06H33.3c-.02 0-.03 0-.04-.02l-.01-.03v-1.86c0-.16-.04-.17-.12-.04a101.4 101.4 0 0 1-1 1.55h-.01l-.02-.01c-.3-.47-.64-.98-.98-1.54-.08-.13-.12-.12-.12.04v1.86c0 .01 0 .02-.02.03l-.03.02h-1.63c-.03 0-.05-.02-.05-.06v-5.8c0-.1.04-.14.12-.14h1.24c.06 0 .11.03.15.09l1.31 2.12h.05ZM37.52 27h.39c.06-.01.09-.05.09-.12v-1.83c0-.03.02-.05.05-.05h1.85c.04 0 .1.03.1.08v5.86c0 .04-.05.06-.09.06h-1.85c-.04 0-.06-.02-.06-.06v-2.02c0-.08-.03-.12-.1-.13h-.56c-.07 0-.1.05-.1.13v2.02c0 .04-.02.06-.06.06h-1.8c-.04 0-.06-.02-.06-.06v-5.86c0-.05.02-.08.07-.08h1.8c.03 0 .04.02.04.05v1.83c0 .07.04.1.1.12h.2Z" fill="#0975D0"/><path fill-rule="evenodd" d="M19.09 23.55 9.54 21h-.15L4 29.57v.05L10.89 35h.07l4.94-3.4c.06-.04.1-.1.12-.16l3.12-7.78a.08.08 0 0 0-.05-.11ZM11.3 30.9l.59-1.79c.08-.2.11-.19.11.02v1.81c0 .04.02.06.06.06h1.84c.05 0 .08-.03.08-.08v-5.79c0-.08-.04-.13-.13-.13H11.9c-1.11 0-1.83.74-2.18 1.73a.25.25 0 0 1-.13.14c-.7.32-1.05.84-1.06 1.56-.05 1.62 1.11 2.48 2.62 2.57.08 0 .13-.03.16-.1Zm.69-2.08-.04.03c-1.33.67-2.5-.29-2.3-1.74 0-.03.02-.06.05-.08a.12.12 0 0 1 .08-.03h2.1c.09 0 .12.05.12.13v1.64l-.01.05Z" fill="#FC5200"/><path d="m49.9 29.11-.58 1.79a.15.15 0 0 1-.16.1c-1.5-.09-2.67-.95-2.62-2.57.02-.72.37-1.24 1.06-1.56.06-.03.1-.08.13-.14.35-1 1.07-1.72 2.19-1.73h1.95c.09 0 .13.05.13.13v5.8c0 .04-.03.07-.08.07h-1.84c-.03 0-.06-.02-.06-.06v-1.8c0-.22-.03-.23-.11-.03Zm.07-.26a.09.09 0 0 0 .05-.08v-1.64c0-.08-.03-.13-.12-.13h-2.1a.12.12 0 0 0-.08.03.13.13 0 0 0-.05.08c-.2 1.45.97 2.41 2.3 1.74ZM26.9 29.11l-.58 1.79a.15.15 0 0 1-.16.1c-1.5-.09-2.67-.95-2.63-2.57.02-.72.38-1.24 1.06-1.56.07-.03.11-.08.13-.14.36-1 1.08-1.72 2.2-1.73h1.95c.09 0 .13.05.13.13v5.8c0 .04-.03.07-.08.07h-1.84c-.04 0-.06-.02-.06-.06v-1.8c0-.22-.03-.23-.11-.03Zm.07-.26a.09.09 0 0 0 .05-.08v-1.64c0-.08-.04-.13-.12-.13h-2.1a.12.12 0 0 0-.09.03.13.13 0 0 0-.04.08c-.2 1.45.97 2.41 2.3 1.74Z" fill="#0975D0"/></svg>