<!-- by TradingView --><svg width="56" height="56" viewBox="0 0 56 56" xmlns="http://www.w3.org/2000/svg"><path fill="#F0F3FA" d="M0 0h56v56H0z"/><path d="M50 14c-.01.37-.1.8-.23 1.26-.22.72-.42 1.3-.6 1.75a5.43 5.43 0 0 1-3.41 3.3c-1.5.45-2.93.34-4.28-.34a9.25 9.25 0 0 1-4.12-3.89c-.02-.03-.01-.08.03-.08h1.33c.03 0 .05.04.07.06a7.12 7.12 0 0 0 4.07 3.16c2.9.82 4.94-1.21 5.61-3.74.01-.03 0-.05-.04-.04-1.76.19-3.54.66-4.45 2.25-.02.05-.01.07.04.08a4.8 4.8 0 0 0 3.24-.7l.31-.19c.03 0 .04 0 .03.03a3.8 3.8 0 0 1-3.44 1.93c-.63 0-1.2-.1-1.75-.3-.1-.03-.12-.09-.08-.17.25-.63.6-1.26 1.05-1.89a4.55 4.55 0 0 1 1.91-1.5 9.14 9.14 0 0 1 2.06-.58l2.6-.4H50ZM20 33.43V16h1.96c.03 0 .04.01.04.04v23.91c0 .03-.02.05-.05.05h-1.93c-.02 0-.03 0-.04-.03l-6.42-16.59c-.05-.11-.09-.11-.13 0-.06.2-.11.41-.15.66-.1.72-.25 1.48-.28 2.28V40h-1.95c-.03 0-.05-.02-.05-.05V25.51c0-.57.08-1.3.23-2.18.25-1.47.99-2.88 1.91-3.99.22-.26.53-.54.77-.78a.03.03 0 0 1 .03 0h.02v.01L20 33.43ZM25 29.1V40h-1.96c-.03 0-.04-.01-.04-.04V16.01l.02-.01H25v10.84c0 .04.19.05.22.06 1.36.12 2.65.5 3.87 1.13.73.38 1.3.78 1.7 1.19l1.21 1.2V16h1.99l.01.03v23.92c0 .03-.02.05-.05.05H32v-4.4c0-.72-.43-1.56-.72-2.33a6.55 6.55 0 0 0-6.06-4.2c-.03 0-.22 0-.22.04Z" fill="#004C44"/><path d="m37 33.34 4.88-12.7a4.99 4.99 0 0 0 2.25.43v.02l-7.28 18.88-.02.02h-1.82V16.01l.02-.01H37v17.34Z" fill="#004C44"/></svg>