<!-- by TradingView --><svg width="56" height="56" viewBox="0 0 56 56" xmlns="http://www.w3.org/2000/svg"><path fill="#F0F3FA" d="M0 0h56v56H0z"/><path d="M18.37 19.91 35 26.06v-8.48l-9.45-3.44c-6.22-.98-7.38 3.44-7.18 5.77Z" fill="url(#a)"/><path d="M10 24.34v9.33l8 3.44V25.32c-.2-3.05 1.49-4.46 2.29-4.8C12.82 16.8 10 21.35 10 24.35Z" fill="url(#b)"/><path d="M37.63 36.09 21 29.94v8.48l9.45 3.44c6.22.98 7.38-3.44 7.18-5.77Z" fill="url(#c)"/><path d="M46 31.66v-9.33l-8-3.44v11.79c.2 3.05-1.49 4.46-2.29 4.8C43.18 39.2 46 34.65 46 31.65Z" fill="url(#d)"/><defs><linearGradient id="a" x1="18.82" y1="17.37" x2="35.06" y2="21.82" gradientUnits="userSpaceOnUse"><stop stop-color="#B6D032"/><stop offset="1" stop-color="#34853B"/></linearGradient><linearGradient id="b" x1="15.14" y1="19.12" x2="15.14" y2="37.11" gradientUnits="userSpaceOnUse"><stop stop-color="#38863C"/><stop offset="1" stop-color="#B0CD33"/></linearGradient><linearGradient id="c" x1="37.18" y1="38.63" x2="20.94" y2="34.18" gradientUnits="userSpaceOnUse"><stop stop-color="#23A3DD"/><stop offset="1" stop-color="#1B549E"/></linearGradient><linearGradient id="d" x1="40.86" y1="36.88" x2="40.86" y2="18.89" gradientUnits="userSpaceOnUse"><stop stop-color="#0C56A7"/><stop offset="1" stop-color="#209FD9"/></linearGradient></defs></svg>