<!-- by TradingView --><svg width="56" height="56" viewBox="0 0 56 56" xmlns="http://www.w3.org/2000/svg"><path fill="#F0F3FA" d="M0 0h56v56H0z"/><path d="m31.61 31.95-9.93-12.06a1.23 1.23 0 0 1 0-1.57l4.29-5.13a.51.51 0 0 1 .79 0l15.64 19a.4.4 0 0 0 .6 0l.2-.23c.08-.1.08-.2 0-.3l-6.79-8.24a1.44 1.44 0 0 1 0-1.83l.91-1.09c.5-.6 1-.6 1.5 0 4.62 5.51 7.78 9.32 9.48 11.42.69.84.87 2 .54 3.46a.78.78 0 0 1-.76.62H7.78c-.38 0-.6-.18-.66-.56-.35-2.09.05-3.25 1.55-5.06a7450.7 7450.7 0 0 0 9.76-11.76.7.7 0 0 1 1.07 0l11.32 13.74c.05.06.1.07.17.06l.5-.13c.23-.05.27-.17.12-.34Z" fill="#00F"/></svg>