<!-- by TradingView --><svg width="56" height="56" viewBox="0 0 56 56" xmlns="http://www.w3.org/2000/svg"><path fill="#F0F3FA" d="M0 0h56v56H0z"/><path d="M46 27.76c0 4.7-1.85 9.23-5.15 12.56a17.5 17.5 0 0 1-24.87 0 17.85 17.85 0 0 1 0-25.12 17.5 17.5 0 0 1 28.68 5.76 17.91 17.91 0 0 1 1.34 6.8Zm-.3 0c0-4.63-1.83-9.07-5.07-12.34a17.19 17.19 0 0 0-24.42 0 17.53 17.53 0 0 0 0 24.67 17.19 17.19 0 0 0 24.42 0 17.53 17.53 0 0 0 5.06-12.33Z" fill="#1491CE"/><path d="M27.82 11.12h.04a2.49 2.49 0 0 1 .3.4c.02.01.02.02.01.03a.13.13 0 0 1-.02.03h-.05a2.45 2.45 0 0 0-.23-.2l-.05-.02h-.06l-.25.2h-.04l-.02-.03v-.03a2.34 2.34 0 0 1 .33-.38h.04ZM29.67 12.89c-.06 0-.1.02-.1.08l-.01.47c0 .06.02.1.08.14l.17.07c.02.01.03.03.03.06l-.02.04-.04.01-.7-.06c-.13-.02-.14-.05-.03-.12l.18-.1a.13.13 0 0 0 .07-.12l.03-1.35a.1.1 0 0 0-.04-.08 1.02 1.02 0 0 0-.09-.06c-.2-.1-.2-.14.03-.13.52.03.83.05.94.07.7.12.73.95.03 1.09-.09.02-.26.01-.53-.01Zm-.01-.88-.05.62c0 .03 0 .06.03.09.02.02.05.04.08.04l.12.01.21-.01a.56.56 0 0 0 .18-.08c.05-.04.1-.08.13-.13s.05-.1.05-.16v-.02a.38.38 0 0 0-.13-.31.62.62 0 0 0-.37-.16h-.12a.12.12 0 0 0-.13.1ZM27.99 13.1a.12.12 0 0 0-.06-.03h-.07c-.11.04-.26.06-.45.04-.06 0-.1.02-.12.07a.57.57 0 0 0-.09.28c0 .05.02.09.06.11l.13.09c.1.06.1.1-.03.11l-.49.03h-.04a.07.07 0 0 1-.03-.04.07.07 0 0 1 .03-.08c.1-.07.18-.14.22-.26.14-.53.3-1.05.49-1.57.02-.07.06-.09.12-.07a.09.09 0 0 1 .06.05l.73 1.52c.05.1.15.16.21.21a.07.07 0 0 1 .02.08.08.08 0 0 1-.07.05h-.6c-.04 0-.06-.02-.04-.06 0-.04.06-.07.14-.1a.08.08 0 0 0 .06-.1.85.85 0 0 0-.18-.32Zm-.36-.13h.19c.08-.02.12-.05.1-.1l-.28-.61c-.01-.02-.02-.03-.04-.03h-.01c-.03 0-.04.01-.04.03l-.21.64c-.01.05.02.08.1.08h.2ZM25.94 12.04c.05 0 .09 0 .13-.02l.09-.05c.06-.03.1 0 .11.05.05.2.09.38.1.51.03.2-.02.23-.15.07a2.22 2.22 0 0 1-.16-.27.32.32 0 0 0-.24-.16c-.96-.1-.7 1.18-.35 1.61a.2.2 0 0 0 .11.08c.47.1.74-.1.81-.58 0-.04.03-.06.06-.07.02-.01.05 0 .07.02l.01.04c.01.53-.43.85-.92.77-1.17-.19-1.02-2.29.33-2ZM32.5 12.67v-.01l-.03-.01h-.02v.03l-.28 1.18a.1.1 0 0 0 0 .05c0 .02 0 .03.02.05l.15.18c.07.09.05.11-.05.09l-.5-.14c-.23-.06-.24-.1-.01-.15.03 0 .09-.03.16-.09a.21.21 0 0 0 .1-.13l.28-1.23a.14.14 0 0 0-.03-.13.23.23 0 0 0-.07-.07c-.18-.1-.16-.15.03-.14a.6.6 0 0 1 .5.37l.5 1.28c.05.13.1.13.13-.01l.21-.91a.14.14 0 0 0-.03-.13l-.08-.1c-.12-.15-.09-.2.09-.14l.45.13c.13.04.13.08 0 .13l-.19.06a.15.15 0 0 0-.1.11l-.36 1.53a.06.06 0 0 1-.08.05c-.07-.03-.12-.08-.14-.17-.04-.12-.25-.68-.65-1.68ZM21.88 13.72a.03.03 0 0 0-.05.02v.02l.51 1.1.03.03.05.02.23.05c.1.02.1.06 0 .1l-.46.21c-.22.1-.25.06-.1-.11a.54.54 0 0 0 .07-.17.21.21 0 0 0 0-.16l-.54-1.13a.15.15 0 0 0-.1-.09.25.25 0 0 0-.1 0c-.2.02-.22-.02-.06-.14.15-.1.42-.15.62-.02l1.16.68c.13.07.16.04.1-.09l-.4-.84a.13.13 0 0 0-.1-.08l-.13-.03c-.17-.04-.18-.1-.01-.16l.42-.18c.14-.06.16-.02.08.1l-.1.16a.15.15 0 0 0-.01.16l.66 1.4a.06.06 0 0 1-.04.09c-.06.03-.13.01-.2-.04l-1.53-.9ZM34.96 13.34l-.41.97c-.14.32-.06.54.25.67l.1.04c.22.1.4.04.5-.18l.5-.91c.02-.05.02-.1 0-.16a.6.6 0 0 0-.14-.27c-.01-.01-.02-.04 0-.06l.03-.03h.03l.24.13c.05.03.08.01.1-.04l.1-.18a.17.17 0 0 1 .13-.09.17.17 0 0 1 .15.05c.08.08.09.17.03.27a.16.16 0 0 1-.1.07l-.25.07a.16.16 0 0 0-.11.1l-.48 1.04a.63.63 0 0 1-.81.31l-.22-.1c-.4-.16-.5-.44-.33-.84l.43-.96a.14.14 0 0 0-.02-.14l-.05-.07c-.13-.18-.1-.22.1-.1.13.07.3.14.51.22a.1.1 0 0 1 .06.05v.04c0 .03-.01.04-.04.04h-.2c-.04 0-.08.01-.1.06ZM19.88 13.57c.1-.04.21-.01.37.08.19.12.17.17-.04.15a9.36 9.36 0 0 1-.23-.01 6.06 6.06 0 0 1-.14.18c-.13.17-.17.15-.14-.07.04-.18.1-.3.18-.33ZM19.08 16.25l-.55.42c-.05.04-.06.09-.02.14l.34.46c.04.04.08.05.12.04a.97.97 0 0 1 .14-.04c.16-.01.18.03.05.14l-.44.35c-.2.16-.25.14-.11-.09a.7.7 0 0 0 .03-.13v-.05a.12.12 0 0 0-.03-.05l-.83-1a.23.23 0 0 0-.12-.08.14.14 0 0 0-.12.02.17.17 0 0 1-.13.04c-.11-.01-.12-.05-.04-.12l.62-.47c.03-.03.05-.02.06.02l.01.04v.04c-.13.1-.15.2-.05.3a18.35 18.35 0 0 0 .33.35l.05-.01.56-.43c.05-.04.05-.08.02-.13l-.3-.38a.13.13 0 0 0-.14-.05l-.15.03c-.13.04-.15 0-.05-.09.16-.15.31-.29.46-.4.17-.13.21-.1.13.1l-.04.06a.1.1 0 0 0 .01.1l.85 1.12a.12.12 0 0 0 .12.04c.3-.07.45-.3.38-.61a17.17 17.17 0 0 1-.26-1.66.07.07 0 0 1 .1-.03c.39.26.84.6 1.38 1 .1.08.22.08.33.13.05.02.06.04.01.07-.29.21-.47.33-.54.35-.09.03-.1 0-.07-.07l.08-.18c.02-.04.01-.08-.02-.1a.58.58 0 0 0-.3-.16c-.05 0-.1.01-.14.06-.16.16-.57.22-.4.6l.05.05c.02.02.04.02.07.02h.15c.15.02.16.06.04.14-.32.18-.68.47-1.1.85-.04.04-.07.06-.1.06-.07 0-.09-.02-.06-.07l.08-.16a.11.11 0 0 0 0-.13l-.33-.43a.1.1 0 0 0-.06-.04c-.03 0-.05 0-.07.02Zm1.5-.95a.5.5 0 0 0 .13-.12c.03-.04.03-.08-.01-.12-.3-.25-.46-.36-.5-.34-.03.03 0 .23.12.6.01.05.05.07.1.05a.47.47 0 0 0 .16-.07ZM38.12 14.98c.04-.01.06-.07.08-.16a.15.15 0 0 1 .09-.1c.08-.04.16-.04.22 0 .04.04.06.08.06.13 0 .16-.07.24-.22.25h-.18c-.05 0-.09.03-.1.09-.07.61-.4.99-.98 1.13-.14.03-.29 0-.44-.08-1.45-.8.47-3.01 1.37-1.3.02.04.05.05.1.04Zm-1.54 1.08c.13.09.31.1.5.02.18-.07.36-.23.5-.42.13-.2.2-.42.2-.62.01-.2-.06-.37-.19-.46-.13-.09-.3-.1-.5-.02-.18.07-.36.22-.49.42-.13.2-.21.42-.21.62s.07.37.2.46Z" fill="#CF231B"/><path d="M41.42 27.75a13.26 13.26 0 0 1-3.8 9.3 13 13 0 0 1-9.21 3.84c-3.45 0-6.76-1.38-9.2-3.85a13.21 13.21 0 0 1 0-18.59 12.95 12.95 0 0 1 21.22 4.27c.66 1.6 1 3.3 1 5.03Zm-19.7-10.97a13.16 13.16 0 0 0-5.99 9.49c-.01.1.02.12.1.05 1-1.03 1.96-1 2.9.1h.05l.01-.02c.26-.8.78-1.34 1.53-1.62a3.83 3.83 0 0 1 4.02.6c.3.26.53.65.67 1.18.01.05.05.07.1.05a1.9 1.9 0 0 1 1.25.05.37.37 0 0 0 0 .16 2.11 2.11 0 0 0-1.47.11.1.1 0 0 1-.08-.04.1.1 0 0 1-.01-.04c-.22-1.76-2.16-2.29-3.66-2.04-1.19.2-1.93.85-2.23 1.98a.12.12 0 0 1-.16.08.12.12 0 0 1-.05-.04c-.79-1.29-1.9-1.3-2.83-.23-.12.14-.19.36-.2.66a12.8 12.8 0 0 0 1.16 5.88c3.3 7.11 12.61 9.86 19.18 4.91.1-.11.13-.19.1-.21.1.02.17 0 .22-.04a12.73 12.73 0 0 0 4.84-10.17c-.01-.27-.23-.4-.46-.56a1 1 0 0 0-1.03-.1.11.11 0 0 1-.15-.04c-.85-1.42-2.74-1.83-4.23-1.53-.98.2-1.6.74-1.85 1.62a.05.05 0 0 1-.03.04.05.05 0 0 1-.05-.02c-.66-.7-1.58-.93-2.44-.44-.12.06-.24.12-.36.16l-.04-.17c.92-.64 1.83-.64 2.72 0 .04.03.07.02.1-.02a2.5 2.5 0 0 1 1.86-1.39 4.95 4.95 0 0 1 3.77.72c.13.09.36.33.68.74.03.04.07.05.12.04.5-.1.9.03 1.25.36.08.09.12.07.11-.05-.1-2.24-.77-4.3-1.98-6.17a12.42 12.42 0 0 0-4.86-4.48 4.54 4.54 0 0 0-2.44-.66 271.8 271.8 0 0 0-6.49 0c-.68.02-1.35.1-2 .26-.24.06-.53.18-.85.37l-.8.47Z" fill="#1491CE"/><path d="m34.3 16.34-4.57.1-.03-.03-.03-.01a5 5 0 0 0-1.84-.04c-.9.18-1.52.28-2.54.26-1.2-.03-2.4.02-3.57.16l.8-.47c.32-.2.6-.31.85-.37a9.03 9.03 0 0 1 2-.25c2.21-.03 4.38-.03 6.49-.01.96 0 1.77.23 2.44.66Z" fill="#40AEE6"/><path d="M39.83 16.32c.02.04.05.07.09.09l.1.04c.05.03.06.07.02.12-.13.17-.24.3-.34.4-.15.14-.2.12-.14-.08 0-.05.04-.15.1-.3a.33.33 0 0 0-.01-.3c-.5-.83-1.36.16-1.5.7 0 .05 0 .1.02.14.21.44.53.54.95.3a.08.08 0 0 1 .1 0l.02.07-.02.04c-.42.33-.94.16-1.17-.28-.56-1.05 1.19-2.2 1.78-.94Z" fill="#CF231B"/><path d="m29.73 16.45-2.26-.02a.09.09 0 0 0-.08.1v1.55c0 .01 0 .03-.02.04a.06.06 0 0 1-.04.02c-.25.01-.5.08-.72.21-.51.3-1.02.58-1.54.85-.73.2-1.4.5-2.12.62a28 28 0 0 0-1.25.22c-.7.16-1.4.15-2.2.24-1.04.11-1.4.21-2.08.97a13.17 13.17 0 0 1 4.3-4.47c1.18-.14 2.37-.2 3.57-.16a9.93 9.93 0 0 0 2.54-.26 5 5 0 0 1 1.87.05l.03.04ZM34.3 16.34a12.42 12.42 0 0 1 4.87 4.48 2.13 2.13 0 0 0-1.22-.54c-.88-.02-1.68-.04-2.55-.23-.52-.11-1.1-.22-1.72-.33-.66-.12-1.2-.5-2.4-1.1-.22-.11-.44-.2-.66-.28l-.68-.22c-.08.04-.14.05-.18.02-.03-.01-.04-.06-.04-.13l.01-1.56 4.57-.11Z" fill="#82CAEE"/><path d="M29.73 16.45V18c-.01.07 0 .12.03.13.04.03.1.02.18-.02 1.09.54 2.16 1.12 3.23 1.73.36.2.63.3.8.28.29-.02.6-.01.95 0a.4.4 0 0 1 .38.33l.03.15c.04.2-.04.3-.24.3-.29.01-.5.06-.6.15-1.72 1.29-2.88 2.16-3.47 2.62-.16.12-.2.27-.14.45a.1.1 0 0 0 .08.07c.05 0 .09.04.12.1v.15l-.25.85a.2.2 0 0 1-.1.13l-.15.08a.1.1 0 0 0-.05.09v.99l.04.17a.26.26 0 0 0-.06.15v10.05l.02.04H35.3l.07.04a.1.1 0 0 1 .02.07v.6c0 .03.02.06.04.08.02.03.05.04.08.04h.6c.03.03 0 .05-.1.17H20.72c.02-.06 0-.08-.13-.14.13.04.2.03.19-.04l.65-.02a.1.1 0 0 0 .07-.03.1.1 0 0 0 .02-.06v-.6a.1.1 0 0 1 .03-.07c.02-.02.04-.04.06-.04h4.69c.04 0 .07-.01.07-.06l.01-3.78-.02-6.34a.37.37 0 0 1 0-.16v-1.04a.16.16 0 0 0-.06-.12c-.24-.22-.3-.72-.38-.94-.1-.23-.08-.36.07-.39a.2.2 0 0 0 .16-.15.2.2 0 0 0-.07-.2l-3.56-2.83a.2.2 0 0 0-.13-.05h-.49c-.14 0-.21-.07-.21-.21 0-.13.03-.26.1-.39a.37.37 0 0 1 .35-.21h1.02c.18 0 .38-.07.59-.2.43-.25.87-.5 1.32-.73.51-.27 1.03-.55 1.54-.85.23-.13.47-.2.72-.2l.04-.03a.06.06 0 0 0 .02-.04v-1.56c0-.02 0-.04.02-.06a.09.09 0 0 1 .06-.03l2.26.02Zm-.22.3a.11.11 0 0 0-.07-.1.1.1 0 0 0-.04 0h-1.68a.11.11 0 0 0-.08.03.11.11 0 0 0-.03.08v.06a.11.11 0 0 0 .03.08.11.11 0 0 0 .08.03h1.68a.11.11 0 0 0 .07-.04.11.11 0 0 0 .04-.08v-.05Zm-.02.5v-.03a.07.07 0 0 0-.04-.03h-1.77a.07.07 0 0 0-.04.02.07.07 0 0 0-.02.04v.79a.07.07 0 0 0 .02.05.07.07 0 0 0 .05.02h1.74a.06.06 0 0 0 .05-.03.07.07 0 0 0 .02-.04v-.79Zm-5.45 2.78-.02.03v.03a.05.05 0 0 0 .04.04h8.97c.02 0 .03 0 .03-.02a.05.05 0 0 0 0-.08l-3.01-1.62-.02-.01H27.06l-3.02 1.63Zm10.98.38a.12.12 0 0 0-.1-.04H22.1a.11.11 0 0 0-.09.04l-.08.1a.12.12 0 0 0 .03.17l.06.02H35a.11.11 0 0 0 .1-.07.12.12 0 0 0 0-.12l-.08-.1Zm-.9.63.01-.03a.05.05 0 0 0-.02-.06H22.96l-.02.03a.05.05 0 0 0 .02.06l3.24 2.57.03.02h4.5c.02 0 .03 0 .04-.02l3.34-2.57ZM30.6 24a.13.13 0 0 0-.04-.1.13.13 0 0 0-.09-.03h-4.02a.13.13 0 0 0-.12.14.13.13 0 0 0 .12.14l4.02-.01a.13.13 0 0 0 .12-.08l.01-.05V24Zm-4.04.56a.13.13 0 0 0-.02-.1.13.13 0 0 0-.09-.05l-.14-.02a.13.13 0 0 0-.14.1l-.01.07a.13.13 0 0 0 .1.15l.15.02c.03 0 .06 0 .1-.02a.13.13 0 0 0 .04-.09l.01-.06Zm.72-.02a.11.11 0 0 0-.1-.11l-.27-.02a.1.1 0 0 0-.1.06l-.01.04v.08c-.01.03 0 .06.02.08a.1.1 0 0 0 .07.04l.27.01a.1.1 0 0 0 .12-.1v-.08Zm.77-.02a.1.1 0 0 0-.1-.1h-.33a.1.1 0 0 0-.07.02.1.1 0 0 0-.03.07v.1c0 .03 0 .05.02.07a.1.1 0 0 0 .07.03l.34.01a.1.1 0 0 0 .07-.02.1.1 0 0 0 .03-.07v-.1Zm.7.01a.11.11 0 0 0-.11-.11h-.25a.11.11 0 0 0-.08.04.11.11 0 0 0-.03.08v.07a.11.11 0 0 0 .11.12h.25a.11.11 0 0 0 .11-.12v-.08Zm.75.01a.13.13 0 0 0-.13-.12h-.29a.12.12 0 0 0-.09.04.13.13 0 0 0-.03.1v.04a.13.13 0 0 0 .04.09.12.12 0 0 0 .09.03h.28a.13.13 0 0 0 .13-.13v-.05Zm1.3.02a.16.16 0 0 0-.04-.11.15.15 0 0 0-.26.1.16.16 0 0 0 .05.12.15.15 0 0 0 .1.04c.05 0 .09-.01.11-.04a.16.16 0 0 0 .05-.11Zm-.54-.02a.12.12 0 0 0-.12-.12h-.32a.12.12 0 0 0-.08.04.12.12 0 0 0-.04.09v.05c0 .03.02.06.04.08.02.02.05.04.08.04l.33-.01c.03 0 .06-.02.08-.04a.12.12 0 0 0 .04-.08v-.05Zm.39.53a.13.13 0 0 0-.13-.13h-4.08a.13.13 0 0 0-.13.13v.03l.03.09c.03.02.06.04.1.04h4.08c.03 0 .07-.02.1-.04a.13.13 0 0 0 .03-.1v-.02Zm-.38.5a.08.08 0 0 0-.08-.09h-3.5c-.03 0-.05.01-.06.03a.08.08 0 0 0-.03.05v11.37c0 .02.01.04.03.05.01.02.03.02.05.02h3.51c.02 0 .04 0 .06-.02a.08.08 0 0 0 .02-.05V25.56ZM17.2 18.33l.37.3c.05.03.1.04.16 0l.17-.08h.06l.02.04-.01.04-.48.54c-.09.1-.12.08-.1-.05l.02-.2c0-.06-.02-.1-.06-.13l-1.06-.84a.1.1 0 0 0-.09-.02l-.1.04c-.2.11-.23.08-.08-.1.33-.4.53-.65.61-.73.52-.5 1.2-.02.9.63-.04.08-.15.22-.33.43-.05.05-.04.1 0 .13Zm-.68-.6.43.33a.13.13 0 0 0 .1.03.13.13 0 0 0 .09-.05l.13-.16.07-.14c.02-.06.03-.1.02-.16l-.03-.15a.32.32 0 0 0-.1-.1l-.06-.06a.32.32 0 0 0-.13-.06.36.36 0 0 0-.15 0 .42.42 0 0 0-.14.06.47.47 0 0 0-.12.1l-.13.17a.14.14 0 0 0 .02.19ZM41.1 18.3a.03.03 0 0 0-.01-.03.03.03 0 0 0-.04 0l-.95.73a.1.1 0 0 0-.03.04l-.01.05v.24c0 .1-.03.12-.1.03l-.3-.42c-.13-.2-.1-.23.1-.12.02.01.08.03.18.04a.2.2 0 0 0 .15-.05l.98-.76a.14.14 0 0 0 .06-.11l-.01-.1c-.07-.2-.04-.22.11-.09a.6.6 0 0 1 .15.6l-.41 1.3c-.04.13 0 .15.1.07l.73-.57a.14.14 0 0 0 .06-.11v-.13c0-.19.05-.2.15-.05l.27.38c.08.12.05.15-.09.1l-.17-.07a.15.15 0 0 0-.16.02l-1.22.94a.06.06 0 0 1-.04.01.06.06 0 0 1-.04-.02c-.05-.06-.05-.14-.01-.22.04-.11.23-.67.55-1.7Z" fill="#CF231B"/><path d="M39.17 20.82a12.32 12.32 0 0 1 1.97 6.17c.01.12-.03.14-.11.05a1.32 1.32 0 0 0-1.25-.36c-.05.01-.1 0-.12-.04a3.9 3.9 0 0 0-.68-.74 4.95 4.95 0 0 0-3.77-.71 2.5 2.5 0 0 0-1.86 1.38c-.03.04-.06.05-.1.02-.9-.64-1.8-.64-2.72 0v-1a.1.1 0 0 1 .05-.08l.15-.08a.2.2 0 0 0 .1-.13c.09-.26.16-.54.24-.85.02-.07.02-.13 0-.16-.02-.05-.06-.08-.11-.1a.1.1 0 0 1-.08-.06c-.06-.18-.02-.33.14-.45l3.46-2.62c.12-.1.32-.14.61-.15.2 0 .28-.1.24-.3l-.03-.15a.42.42 0 0 0-.38-.33 8.1 8.1 0 0 0-.94 0c-.18.01-.45-.08-.8-.28a69.78 69.78 0 0 0-3.24-1.73l.68.22c.22.08.44.17.66.28 1.2.6 1.74.98 2.4 1.1.63.1 1.2.22 1.72.33.87.2 1.67.2 2.55.23.36 0 .77.19 1.22.54Z" fill="#A1D7F2"/><path d="M14.12 19.02c-.07-.02-.07-.07 0-.14a.17.17 0 0 1 .12-.06.16.16 0 0 1 .13.06c.06.07.09.15.09.24 0 .05-.03.08-.09.06a.4.4 0 0 1-.17-.11.19.19 0 0 0-.08-.05ZM14.06 19.2v.08c0 .07-.02.1-.07.06-.03-.02-.05-.08-.05-.16 0-.07.03-.09.1-.05.01 0 .02.02.01.04v.04Z" fill="#CF231B"/><path d="M25.07 19.2c-.45.24-.89.48-1.32.74-.21.12-.4.18-.59.18h-1.02a.37.37 0 0 0-.35.22.87.87 0 0 0-.1.39c0 .14.07.21.21.21h.49c.05 0 .1.02.13.05l3.56 2.83a.2.2 0 0 1 .07.2.2.2 0 0 1-.16.15c-.15.03-.17.16-.07.4.09.21.14.71.38.93.03.03.05.07.05.12v1.04a1.9 1.9 0 0 0-1.25-.05c-.04.02-.08 0-.09-.05a2.2 2.2 0 0 0-.67-1.17 3.83 3.83 0 0 0-4.02-.61 2.48 2.48 0 0 0-1.54 1.64.03.03 0 0 1-.03 0h-.02c-.94-1.1-1.9-1.13-2.9-.1-.08.07-.11.06-.1-.05.2-1.8.77-3.48 1.7-5.02.67-.76 1.03-.86 2.07-.97.8-.1 1.5-.08 2.2-.24a28 28 0 0 1 1.25-.22c.73-.12 1.4-.42 2.12-.62Z" fill="#A1D7F2"/><path d="m14.28 19.81-.02.18-.03.02h-.07l-.02-.03a.55.55 0 0 1-.07-.35c0-.05.04-.09.09-.1l.35-.14c.03-.01.05 0 .07.02l.02.05c.02.04.01.07-.03.09a.69.69 0 0 0-.22.13.2.2 0 0 0-.07.13ZM16.27 21.1a.87.87 0 0 1-.6.38 1.1 1.1 0 0 1-1.22-.8.9.9 0 0 1 .1-.72c.13-.2.35-.34.6-.38a1.1 1.1 0 0 1 1.22.8.9.9 0 0 1-.1.72Zm-.08-.14c.07-.13.06-.3-.03-.48-.1-.18-.26-.35-.47-.46-.2-.12-.43-.17-.63-.16-.2.01-.35.1-.42.23-.08.14-.07.31.03.5.09.17.26.33.46.45.2.11.43.17.63.16.2-.02.35-.1.43-.24ZM42.92 21.65c.07-.1.05-.14-.07-.1l-1 .39a.14.14 0 0 0-.1.12l-.03.25a.04.04 0 0 1-.02.03l-.07-.01a5.85 5.85 0 0 0-.78-1.6l.03-.05h.02l.21.16a.1.1 0 0 0 .11 0l1.22-.65a.14.14 0 0 0 .08-.13v-.07c0-.19.05-.2.14-.03l.29.55v.05l-.04.02h-.02l-.18-.14a.1.1 0 0 0-.12-.01l-1.06.56c-.24.13-.3.31-.15.55v.02c.14.21.33.27.59.17l1.03-.39a.12.12 0 0 0 .08-.1l.02-.23c.01-.08.04-.09.08-.02.13.22.2.4.05.65l-.68 1.13c-.1.16-.06.2.11.13l.79-.34a.15.15 0 0 0 .1-.13l.02-.16c0-.04.02-.06.05-.06h.05l.03.04.21.57v.03l-.04.02c-.02 0-.03 0-.04-.02-.12-.16-.27-.19-.47-.1-.55.26-1 .43-1.34.5-.08.03-.1 0-.06-.07l.96-1.53ZM13.81 21.72a.18.18 0 0 0 .06-.12v-.1c.01-.07.05-.09.1-.07.2.06.37.12.5.18.18.08.17.14-.03.16h-.31a.32.32 0 0 0-.27.12c-.6.77.63 1.23 1.18 1.16a.2.2 0 0 0 .12-.06c.33-.36.31-.7-.06-1a.09.09 0 0 1-.03-.1c0-.02.03-.03.06-.04h.04c.45.28.48.83.16 1.2-.77.91-2.46-.32-1.52-1.33ZM43.45 24.52l.09.37c.01.05.04.07.1.06l.48-.12a.12.12 0 0 0 .1-.1l.02-.1c.08-.2.13-.18.14.02 0 .17.06.37.15.59.01.02.01.04-.01.06l-.04.01c-.02 0-.03 0-.04-.02l-.13-.16c-.03-.03-.07-.05-.12-.03l-1.3.32a.13.13 0 0 0-.1.1l-.04.1c-.06.19-.1.19-.14-.01a5.22 5.22 0 0 0-.14-.6l.02-.02h.05l.2.16a.1.1 0 0 0 .08.01l.52-.14c.04 0 .06-.05.04-.12a20.25 20.25 0 0 0-.17-.68c-.01-.07-.05-.1-.1-.08l-.52.12a.1.1 0 0 0-.06.05l-.1.23-.02.03h-.06v-.03c-.06-.24-.1-.43-.15-.57-.06-.2-.02-.22.12-.08l.08.08c.04.03.08.04.13.03l1.3-.34a.1.1 0 0 0 .09-.09 11.3 11.3 0 0 0 .06-.23c.02-.01.03-.02.05-.01.02 0 .04.02.04.04.02.24.07.44.14.6.09.18.05.21-.11.08a2 2 0 0 1-.08-.08.12.12 0 0 0-.12-.04l-.49.13c-.05.01-.07.04-.06.1l.1.36ZM13.66 25.46a.08.08 0 0 0 .05-.06.08.08 0 0 0-.02-.07c-.16-.16-.35-.3-.59-.4-.05-.03-.08-.02-.1.03-.05.1-.09.14-.13.16-.06.02-.08 0-.07-.08l.11-.52c.03-.14.08-.15.13-.03.04.08.05.19.15.26.27.2.47.37.6.48.2.17.51.2.71.2.06 0 .1-.02.1-.09l.03-.15c0-.02 0-.03.03-.03l.07.01c.03 0 .04.01.04.04l-.1.79c0 .03-.02.04-.05.05l-.04-.01-.02-.02-.04-.22a.11.11 0 0 0-.1-.1c-.16-.03-.42-.08-.6 0a5.2 5.2 0 0 0-1.13.58l-.02-.01a.04.04 0 0 1-.02-.04l.12-.61c.01-.09.04-.09.08-.01.02.05.05.09.09.1.04.03.09.03.13.01l.6-.26Z" fill="#CF231B"/><path d="m26.36 26.82.02 6.34c-3.18.41-6.36.4-9.55-.02a12.8 12.8 0 0 1-1.16-5.88c.01-.3.08-.52.2-.66.94-1.07 2.04-1.06 2.83.23a.12.12 0 0 0 .11.05.12.12 0 0 0 .1-.09 2.55 2.55 0 0 1 2.23-1.98c1.5-.25 3.44.28 3.66 2.04a.1.1 0 0 0 .05.07.1.1 0 0 0 .08 0c.43-.2.91-.23 1.43-.1Zm-7.14 1.43c-.4-.25-.76-.22-1.1.1v.03a.05.05 0 0 0 .01.05l.05.04c.05.04.1.04.14 0 .37-.33.6-.14.94.05.04.03.09.03.14 0a.95.95 0 0 1 .97 0 .06.06 0 0 0 .08-.01l.01-.03.02-.05a.1.1 0 0 0-.05-.12c-.43-.25-.65-.1-1.06-.03a.2.2 0 0 1-.15-.03Zm3.34 1c-.4-.25-.76-.21-1.1.11a.05.05 0 0 0 0 .08l.06.03c.04.04.09.04.14 0 .37-.32.6-.13.94.06.04.02.1.02.14 0a.95.95 0 0 1 .97 0 .06.06 0 0 0 .08-.02l.01-.02.02-.05a.1.1 0 0 0-.05-.12c-.42-.25-.65-.1-1.06-.03a.2.2 0 0 1-.15-.03ZM40.67 31.3c-3.38.12-6.77.05-10.16-.2V26.9c0-.06.03-.1.06-.15.12-.04.24-.1.36-.16.86-.49 1.78-.26 2.44.44a.05.05 0 0 0 .05.02.05.05 0 0 0 .03-.04c.26-.88.87-1.42 1.85-1.62 1.5-.3 3.38.11 4.23 1.53a.11.11 0 0 0 .15.04 1 1 0 0 1 1.03.1c.23.16.45.3.46.56.03 1.2-.13 2.43-.5 3.68Z" fill="#C2E5F7"/><path d="m14.56 27.54.01.41c0 .02 0 .03-.03.04-.04.02-.06 0-.07-.03l-.06-.2c-.03-.07-.08-.1-.15-.1h-1.42a.1.1 0 0 0-.06.02.1.1 0 0 0-.03.05c-.07.3.3.46.55.53h.01l.02.03c.01.03 0 .06-.04.08a.13.13 0 0 1-.1.01l-.48-.11a.12.12 0 0 1-.1-.13 46.02 46.02 0 0 0 .05-1.32c0-.03 0-.05.03-.08a.12.12 0 0 1 .07-.04l.48-.08c.04-.01.07 0 .1.02.04.02.05.05.04.08a.32.32 0 0 1-.03.03c-.26.05-.63.18-.58.49 0 .02 0 .04.02.06a.1.1 0 0 0 .06.02l1.42.1c.07 0 .12-.03.15-.1l.08-.2c.01-.03.03-.04.07-.03.02.02.03.03.03.05-.02.13-.04.27-.04.4ZM44.67 27.65l.03.66a.12.12 0 0 1-.1.12l-.47.12c-.04.01-.07 0-.1-.01-.05-.03-.06-.05-.04-.08a.29.29 0 0 1 .02-.03c.26-.07.62-.23.55-.53a.1.1 0 0 0-.03-.06.1.1 0 0 0-.06-.02h-1.41c-.08 0-.13.04-.15.11l-.07.2c0 .04-.03.05-.07.03-.02 0-.03-.02-.03-.04a3.76 3.76 0 0 0-.03-.82l.03-.04c.04-.01.06 0 .07.03l.08.2c.03.07.08.1.16.1l1.41-.1a.1.1 0 0 0 .06-.03.1.1 0 0 0 .03-.06c.04-.3-.32-.43-.58-.48l-.02-.01a.3.3 0 0 1-.01-.03c-.02-.02-.01-.05.03-.07a.13.13 0 0 1 .1-.03l.48.09c.03 0 .06.02.08.04.02.02.03.05.03.08l.01.66Z" fill="#CF231B"/><path d="M19.37 28.28c.41-.06.63-.22 1.06.03a.1.1 0 0 1 .05.12l-.02.05a.06.06 0 0 1-.04.04.06.06 0 0 1-.05 0 .95.95 0 0 0-.97 0 .13.13 0 0 1-.14 0c-.33-.19-.57-.38-.94-.05-.05.04-.1.04-.14 0l-.05-.04a.05.05 0 0 1-.01-.05v-.02c.34-.33.7-.36 1.1-.1.05.02.1.03.15.02Z" fill="#030202"/><path d="m43.5 29.9.03-.35c.01-.07 0-.11-.05-.12l-.54-.07a.1.1 0 0 0-.08.03l-.18.18a.05.05 0 0 1-.07-.02v-.03l.07-.58c0-.2.05-.2.14-.03l.04.1c.02.05.06.08.11.08l1.35.16a.1.1 0 0 0 .11-.05 5.26 5.26 0 0 0 .15-.2h.04c.02.02.03.04.02.07-.06.23-.1.43-.08.6.02.21-.03.22-.14.05l-.03-.11a.12.12 0 0 0-.1-.08l-.51-.06c-.05 0-.08.02-.09.07a19.39 19.39 0 0 1-.1.76c0 .05.02.08.08.09l.5.06c.05 0 .1 0 .12-.05l.06-.1c.15-.14.19-.12.13.08a1.8 1.8 0 0 0-.07.61c0 .03-.01.04-.04.05h-.04L44.3 31a6.64 6.64 0 0 0-.06-.2.1.1 0 0 0-.1-.08l-1.35-.17c-.05 0-.09 0-.12.05l-.07.08c-.12.16-.17.14-.13-.06a5.44 5.44 0 0 0 .08-.6.05.05 0 0 1 .06-.02l.02.02.12.21a.1.1 0 0 0 .07.05l.55.06c.04 0 .07-.03.08-.1l.04-.35Z" fill="#CF231B"/><path d="M22.56 29.26c.05.03.1.04.15.03.41-.07.64-.22 1.06.03a.1.1 0 0 1 .05.12l-.02.05a.06.06 0 0 1-.03.04h-.05a.95.95 0 0 0-.98 0 .13.13 0 0 1-.14 0c-.34-.2-.57-.38-.94-.06-.05.04-.1.04-.14 0l-.05-.03a.05.05 0 0 1-.02-.06l.02-.02c.33-.32.7-.36 1.1-.1Z" fill="#030202"/><path d="M14.61 29.96c.21.31.3.54.26.68-.15.6-.53.89-1.14.86-.47-.03-.96-.43-.9-.97.02-.2.02-.35-.02-.44-.01-.04 0-.07.05-.08l.5-.13c.06-.01.09.01.1.06 0 .04 0 .06-.04.08-.17.11-.3.2-.36.29-.26.33-.02.78.38.84.4.06.72 0 .98-.17.38-.25.42-.55.1-.88a.31.31 0 0 0-.51.09l-.04.1c-.08.12-.12.1-.12-.04 0-.21-.03-.42-.11-.62-.01-.03 0-.05.01-.07l.05-.01.04.02.13.17a.1.1 0 0 0 .11.04l.5-.13c.07-.01.1.01.08.09a.39.39 0 0 1-.05.09.11.11 0 0 0 0 .13Z" fill="#CF231B"/><path d="M40.67 31.3a12.73 12.73 0 0 1-4.34 6.5c-.05.05-.12.06-.22.04h-.6a.12.12 0 0 1-.08-.05.12.12 0 0 1-.03-.08v-.61a.1.1 0 0 0-.1-.1h-4.74a.05.05 0 0 1-.04-.05v-5.86c3.38.26 6.77.33 10.15.22Z" fill="#DBEFF9"/><path d="m43.98 31.75.2-.16c.04-.02.06-.02.07.03l-.01.05c-.1.22-.19.44-.23.67-.01.03-.03.04-.06.04l-.04-.01-.02-.02-.03-.21a.12.12 0 0 0-.08-.1l-.96-.32c-.33-.1-.54 0-.64.35l-.01.02c-.1.33.02.55.35.66l.9.3c.06.02.1 0 .15-.03l.2-.15h.04c0 .02.01.03.03.04-.08.17-.15.36-.2.58l-.05.05-.04.01c-.01 0-.02-.01-.02-.03l-.07-.26a.1.1 0 0 0-.06-.07l-.97-.31c-.37-.12-.51-.38-.42-.76l.08-.28c.15-.38.4-.52.73-.4l1.04.33c.05.01.08 0 .12-.02ZM14.05 33.5v.01a.03.03 0 0 0 .02.03h.02l1.13-.4a.1.1 0 0 0 .04-.03.12.12 0 0 0 .03-.04l.07-.23c.03-.1.07-.1.1 0l.16.5c.07.22.03.25-.12.09a.52.52 0 0 0-.17-.1.2.2 0 0 0-.15 0l-1.18.41a.15.15 0 0 0-.1.1.27.27 0 0 0-.01.1c0 .2-.04.22-.14.05a.61.61 0 0 1 .04-.63l.8-1.1c.08-.13.05-.16-.08-.11l-.88.3a.14.14 0 0 0-.09.1l-.04.13c-.05.17-.1.17-.16 0l-.13-.45c-.05-.14 0-.17.1-.07l.15.12c.05.04.1.05.16.03l1.46-.52h.02a.06.06 0 0 1 .05.02v.02c.03.07.01.14-.05.21l-1.05 1.45ZM41.75 34.4a.12.12 0 0 0 .1-.09c.02-.12.09-.25.2-.41a.13.13 0 0 0 0-.14.6.6 0 0 0-.2-.22c-.03-.03-.07-.03-.12-.01l-.14.07c-.1.06-.14.03-.08-.08l.23-.45a.07.07 0 0 1 .07-.03l.04.02.02.05c0 .11.02.23.1.32.38.4.74.81 1.09 1.24.04.05.04.1 0 .14a.09.09 0 0 1-.08.03l-1.68-.16c-.1-.01-.2.05-.29.08a.07.07 0 0 1-.1-.07c0-.01 0-.03.02-.04l.3-.52c.03-.05.06-.05.09-.01.02.03.02.09 0 .18v.06l.06.03c.1.04.23.04.37.02Zm.9.13a.03.03 0 0 0 .03 0 .03.03 0 0 0 0-.04c-.07-.15-.2-.3-.39-.48-.04-.03-.08-.03-.12 0-.07.05-.13.18-.2.37 0 .04.01.07.06.08l.62.07Z" fill="#CF231B"/><path d="m26.38 33.16-.01 3.77c0 .05-.03.07-.07.07H21.6l-.06.03a.1.1 0 0 0-.03.07v.6a.1.1 0 0 1-.1.1l-.64.02-.23.01a12.76 12.76 0 0 1-3.72-4.69c3.19.42 6.37.43 9.55.02Z" fill="#DBEFF9"/><path d="M41.09 33.9c.09-.02.14-.11.11-.19-.02-.08-.11-.12-.2-.09-.09.03-.14.11-.12.2.03.07.12.11.2.08ZM16.2 34.44a.9.9 0 0 1 .06.72c-.08.25-.26.46-.5.6-.24.13-.51.17-.76.11a.88.88 0 0 1-.58-.43.9.9 0 0 1-.06-.72c.08-.25.26-.46.5-.6.23-.13.51-.17.76-.11.25.06.46.21.58.43Zm-.1.07a.42.42 0 0 0-.17-.17.63.63 0 0 0-.26-.08 1 1 0 0 0-.31.03 1.3 1.3 0 0 0-.8.57.65.65 0 0 0-.08.27c0 .08 0 .16.04.23s.1.12.17.16c.07.05.16.07.26.08.1 0 .2 0 .32-.03a1.3 1.3 0 0 0 .8-.57.65.65 0 0 0 .07-.26.42.42 0 0 0-.04-.23ZM43.38 34.98c.02-.06.04-.1.03-.12-.06-.3-.02-.31.13-.05.05.09.07.18.06.28a.15.15 0 0 1-.07.12.78.78 0 0 1-.41.11c-.09 0-.1-.03-.03-.08l.2-.15a.3.3 0 0 0 .09-.11ZM41.91 36.2l.02-.01a.03.03 0 0 0 0-.04v-.01l-1-.67a.1.1 0 0 0-.05-.02h-.05l-.22.08c-.1.04-.12.01-.06-.08l.3-.42c.13-.2.18-.19.14.04 0 .03 0 .1.02.19.02.05.05.1.1.13l1.03.7c.04.02.08.03.13.01a.25.25 0 0 0 .09-.04c.16-.13.2-.1.12.08a.6.6 0 0 1-.52.35l-1.35.02c-.14 0-.16.04-.04.12l.78.52c.03.03.08.03.12.02l.13-.04c.17-.07.2-.02.1.13l-.28.37c-.09.12-.13.1-.12-.04v-.2c.01-.05-.01-.1-.06-.14l-1.3-.86a.07.07 0 0 1-.02-.04.07.07 0 0 1 .01-.05c.05-.06.11-.09.2-.08.12.01.72 0 1.78-.02ZM14.07 35.47l.17.17c.06.06.04.08-.04.08a.75.75 0 0 1-.38-.17.14.14 0 0 1-.05-.12c0-.1.04-.19.1-.27.17-.22.21-.2.11.07l.02.12a.3.3 0 0 0 .07.12ZM15.35 36.8l-.09-.06c-.05-.04-.05-.08 0-.12l.42-.32c.17-.1.21-.07.12.11l-.17.27a.33.33 0 0 0-.04.3c.3.92 1.36.13 1.6-.37.03-.05.03-.1.02-.14-.11-.48-.4-.64-.87-.5a.08.08 0 0 1-.09-.02c-.01-.02-.02-.05 0-.08 0 0 0-.02.02-.03.48-.23.96.04 1.1.52.32 1.16-1.63 1.92-1.96.56a.19.19 0 0 0-.06-.11ZM19.21 39.1c.02.08.09.14.16.12.07-.02.11-.1.1-.17-.02-.08-.1-.13-.17-.12-.07.02-.1.1-.09.17ZM37.69 38.93a.1.1 0 0 1 .1.03c.07.08.06.16-.03.24a.1.1 0 0 1-.1.02.1.1 0 0 1-.08-.08c-.03-.12 0-.19.1-.21ZM18.8 39.25a.08.08 0 0 1 .05-.06.08.08 0 0 1 .07 0c.17.08.24.14.23.17a.1.1 0 0 1-.11.05c-.18-.02-.26-.08-.23-.16ZM19.5 39.5l.01.08c.01.02.03.04.06.03.14 0 .23 0 .24.04.11.2.05.27-.18.19-.03-.01-.06-.06-.11-.13a.14.14 0 0 0-.11-.07c-.17 0-.3.05-.4.19a.13.13 0 0 1-.1.05.13.13 0 0 1-.11-.06c-.04-.07-.02-.12.07-.16l.2-.08c.04 0 .08-.03.1-.09.04-.05.09-.07.17-.08.05 0 .1-.02.13-.05l.16-.13c.24-.12.3-.07.19.17-.02.04-.11.05-.28.05-.04 0-.05.02-.04.06ZM37.94 39.62c.15 0 .23 0 .25.03.1.21.04.28-.2.2l-.1-.14a.14.14 0 0 0-.1-.07.44.44 0 0 0-.4.19.13.13 0 0 1-.21-.01c-.04-.07-.02-.12.06-.16l.2-.08c.05 0 .08-.03.12-.08.02-.05.08-.08.16-.08.05 0 .1-.02.13-.05.08-.08.14-.12.16-.13.23-.12.3-.07.18.17-.02.03-.1.05-.27.05-.04 0-.06.02-.05.05l.02.07c0 .03.02.04.05.04ZM37.28 39.4c.09.06.18.05.21 0 .03-.06-.01-.14-.1-.2-.1-.04-.19-.04-.22.02-.03.05.02.14.1.19Z" fill="#CF231B"/><path d="M19.2 39.96c-.01.08.04.16.12.16.07 0 .14-.06.14-.14 0-.09-.05-.16-.12-.17-.07 0-.14.06-.15.15ZM37.7 40.11c.07 0 .13-.06.13-.13a.13.13 0 0 0-.14-.14.13.13 0 0 0-.13.14c0 .07.06.13.13.13ZM22.86 41.3a.03.03 0 0 0-.03-.03.03.03 0 0 0-.03.02l-.4 1.14a.1.1 0 0 0 0 .05v.04l.14.2c.06.1.04.12-.06.08l-.48-.18c-.22-.1-.22-.14 0-.16.04 0 .1-.02.18-.07a.21.21 0 0 0 .1-.12l.42-1.18a.14.14 0 0 0-.02-.13.27.27 0 0 0-.06-.07c-.16-.12-.15-.17.05-.14.17.03.4.19.45.42l.35 1.31c.04.14.08.14.13.01l.3-.88a.14.14 0 0 0 0-.13l-.08-.1c-.1-.16-.06-.2.1-.13l.43.17c.14.06.13.1-.02.13l-.18.04a.15.15 0 0 0-.12.1l-.51 1.47-.02.02a.06.06 0 0 1-.04.02h-.02c-.07-.03-.11-.1-.13-.18-.02-.12-.17-.7-.45-1.73ZM34.6 42.75a.83.83 0 0 1-.36.04.91.91 0 0 1-.35-.11 1.14 1.14 0 0 1-.49-1.38.93.93 0 0 1 .2-.31.83.83 0 0 1 1.03-.13c.1.06.2.15.3.25a1.14 1.14 0 0 1 .18 1.13.93.93 0 0 1-.2.31.84.84 0 0 1-.31.2Zm-.02-.15a.43.43 0 0 0 .19-.14.65.65 0 0 0 .1-.26 1 1 0 0 0 .02-.31 1.29 1.29 0 0 0-.24-.64 1 1 0 0 0-.23-.22.64.64 0 0 0-.25-.1.43.43 0 0 0-.23.01.43.43 0 0 0-.19.15.65.65 0 0 0-.1.25c-.03.1-.04.2-.02.32a1.29 1.29 0 0 0 .24.63 1 1 0 0 0 .23.22c.08.06.16.1.25.11.08.02.16.01.23-.02ZM32.3 41.48c.04 0 .08 0 .12-.02l.1-.05c.05-.04.09-.02.1.04.07.2.1.37.13.51.04.2-.01.23-.15.08l-.17-.27a.32.32 0 0 0-.25-.15c-.97-.07-.66 1.22-.29 1.64a.2.2 0 0 0 .12.07c.48.08.74-.13.8-.62 0-.04.01-.06.05-.07.02-.01.04 0 .07.01l.01.04c.03.54-.4.88-.9.82-1.17-.14-1.11-2.26.26-2.03ZM25.22 41.63l.37.08c.03 0 .04.02.04.05l-.02.04-.03.01-.19.05c-.05.01-.08.04-.1.09-.1.53-.19.93-.25 1.17-.06.2 0 .33.16.39a.07.07 0 0 1 .05.08l-.02.02c-.01.02-.03.03-.06.02a5.96 5.96 0 0 0-.78-.2.07.07 0 0 1 .07-.09c.17.02.28-.07.3-.28.05-.25.13-.64.26-1.17.01-.05 0-.1-.05-.13l-.15-.12-.02-.02v-.04c0-.03.03-.04.06-.03l.36.08ZM26.68 43.03c.05.26.12.26.21.02l.2-.46c.13-.3.13-.44-.16-.62-.04-.02-.04-.05 0-.09a.07.07 0 0 1 .05-.01c.23.05.44.07.62.08.03 0 .05.02.06.05v.04l-.03.03-.13.05c-.06.02-.08.06-.06.12l.24.98c.03.14.08.14.13 0l.33-.92c.02-.05 0-.1-.05-.13l-.13-.09c-.07-.04-.06-.07.01-.09a1.54 1.54 0 0 1 .58.03.04.04 0 0 1 .01.05l-.01.02a.76.76 0 0 0-.3.37l-.5 1.34c-.1.21-.16.2-.22-.02l-.24-.99c-.04-.16-.1-.17-.15 0l-.37 1.04c0 .02-.02.03-.03.04a.06.06 0 0 1-.04 0c-.06 0-.1-.03-.11-.11l-.4-1.61a.2.2 0 0 0-.08-.12.28.28 0 0 1-.1-.1c-.03-.07 0-.1.07-.1l.6.04c.03 0 .04.02.04.04v.04h-.03a.24.24 0 0 0-.18.09c-.02.03-.02.08 0 .17l.17.82ZM29.98 43.2c-.11.04-.27.06-.46.04-.05 0-.1.02-.12.07a.6.6 0 0 0-.09.28c0 .05.02.1.06.12l.13.08c.1.07.1.1-.02.12l-.5.03-.04-.01a.07.07 0 0 1-.03-.04.07.07 0 0 1 .03-.08c.1-.07.18-.14.22-.26.15-.53.31-1.06.5-1.58.02-.07.06-.1.12-.07a.09.09 0 0 1 .06.05l.73 1.54c.05.1.15.15.22.21a.07.07 0 0 1 .02.08.07.07 0 0 1-.07.05h-.6c-.06 0-.07-.02-.05-.07 0-.03.06-.07.14-.1.02 0 .04-.01.05-.03a.08.08 0 0 0 .01-.06.86.86 0 0 0-.18-.33.12.12 0 0 0-.13-.04Zm-.25-.14h.17c.08-.02.11-.05.1-.1l-.27-.55c0-.02-.01-.02-.03-.02h-.01c-.02 0-.03 0-.04.02l-.18.6c-.02.04.02.06.1.06h.16Z" fill="#CF231B"/></svg>