<!-- by TradingView --><svg width="56" height="56" viewBox="0 0 56 56" xmlns="http://www.w3.org/2000/svg"><path fill="#F0F3FA" d="M0 0h56v56H0z"/><path d="M15.69 21.1a15.41 15.41 0 0 0 3.68 19.14 15.45 15.45 0 0 0 9.82 3.65c.02 0 .03.01.03.03 0 .02-.02.03-.03.03a17.5 17.5 0 0 1-5.94-.55A16.47 16.47 0 0 1 13 19.67a16.71 16.71 0 0 1 29.34.12c-.01.01-.03 0-.04-.01a15.68 15.68 0 0 0-26.62 1.33Z" fill="#C20102"/><path d="M25.05 28.8c0-.13-.04-.14-.13-.06-.95.86-2 1.08-3.17.67a3.22 3.22 0 0 1-2-4.1c.63-2.07 2.75-2.5 4.74-2.24 1 .13 1.8.56 2.38 1.28 1.2 1.46 1.24 4.3.67 6a3.55 3.55 0 0 1-2.61 2.45 5.6 5.6 0 0 1-3.1-.04 2.83 2.83 0 0 1-1.95-1.9c-.04-.1 0-.15.1-.16l2.42-.3.08.01.05.05c.18.35.2.62.62.85.6.3 1.33-.09 1.54-.63.24-.61.36-1.24.36-1.89Zm-1.4-.77c.19 0 .37-.05.53-.15.17-.09.32-.22.45-.38a2.03 2.03 0 0 0-.1-2.42c-.14-.16-.3-.27-.48-.35a1.2 1.2 0 0 0-1.08.04c-.16.09-.31.22-.44.39-.12.16-.22.35-.28.56a2.03 2.03 0 0 0 .38 1.85c.14.16.3.28.48.35.17.08.36.12.54.11ZM32 26.56c0-.11.04-.14-.06-.07a10.01 10.01 0 0 1-2.87 1.32h-.04a.08.08 0 0 1-.02-.04l-.01-.03v-1.99c0-.03.01-.06.03-.08a.15.15 0 0 1 .08-.05 5.23 5.23 0 0 0 3.5-2.55.14.14 0 0 1 .12-.07h2.15c.08 0 .12.04.12.1v9.8c0 .07-.03.1-.1.1h-2.66a.16.16 0 0 1-.1-.04c-.04-.03-.14-.07-.14-.1v-6.3ZM40 26.56c0-.11.04-.14-.06-.07a10.01 10.01 0 0 1-2.87 1.32h-.04a.08.08 0 0 1-.02-.04l-.01-.03v-1.99c0-.03.01-.06.03-.08a.15.15 0 0 1 .08-.05 5.23 5.23 0 0 0 3.5-2.55.14.14 0 0 1 .12-.07h2.15c.08 0 .12.04.12.1v9.8c0 .07-.03.1-.1.1h-2.66a.16.16 0 0 1-.1-.04c-.04-.03-.14-.07-.14-.1v-6.3ZM22.45 37.5h-.47c-.12 0-.18-.07-.18-.2v-.2c0-.13.06-.2.18-.2h1.33a.1.1 0 0 1 .07.04c.02.02.04.05.04.08v1.3a.18.18 0 0 1-.07.14c-.85.71-2.47.82-3.11-.26-.45-.75-.45-1.93.15-2.6.77-.86 2.48-.85 2.92.42.02.06 0 .1-.04.14a.72.72 0 0 1-.52.1.17.17 0 0 1-.13-.08c-.35-.59-.96-.72-1.5-.33-.78.55-.6 2.32.45 2.5.39.07.74-.03 1.07-.32a.32.32 0 0 0 .09-.34.3.3 0 0 0-.11-.14.28.28 0 0 0-.17-.06ZM33.57 37.28c0 .46-.18.9-.48 1.22-.31.32-.73.5-1.16.5h-.3a1.56 1.56 0 0 1-1.16-.51 1.73 1.73 0 0 1-.47-1.22v-.55c0-.46.18-.9.48-1.22.31-.32.73-.5 1.16-.5h.3a1.56 1.56 0 0 1 1.16.51 1.73 1.73 0 0 1 .47 1.22v.55Zm-1.8 1.13a1 1 0 0 0 .78-.4 1.77 1.77 0 0 0 .26-1.54 1.5 1.5 0 0 0-.23-.46c-.1-.13-.22-.24-.35-.31a.9.9 0 0 0-.42-.12 1 1 0 0 0-.79.4 1.77 1.77 0 0 0-.26 1.54c.05.17.13.33.23.46s.22.24.35.31a.9.9 0 0 0 .42.12ZM27.17 37.2l-.02.02a.06.06 0 0 0 0 .07 6.61 6.61 0 0 1 1.1 1.7V39h-.75c-.04 0-.07-.03-.09-.07-.41-.71-.69-1.16-.82-1.35-.18-.23-.44-.31-.8-.24-.05 0-.08.05-.08.1v1.39a.18.18 0 0 1-.04.12.15.15 0 0 1-.11.05h-.41c-.1 0-.15-.05-.15-.16V35.1c0-.02 0-.04.02-.06a52.54 52.54 0 0 1 1.74-.03c.35.01.6.06.76.15.34.2.54.59.5 1.02-.03.5-.32.85-.85 1.03Zm-1.45-1.53-.01.89a.12.12 0 0 0 .02.08l.04.02a.1.1 0 0 0 .04.01l.95.01a.59.59 0 0 0 .4-.15.53.53 0 0 0 .17-.37v-.05a.52.52 0 0 0-.16-.38.58.58 0 0 0-.4-.16l-.95-.01a.1.1 0 0 0-.07.03.12.12 0 0 0-.03.08ZM36.5 38.44c.5 0 .76-.32.76-.84a966.19 966.19 0 0 1 .03-2.58.07.07 0 0 1 .05-.02h.55c.07 0 .1.04.1.11.01 1.26 0 2.14-.01 2.63-.03.95-.68 1.26-1.48 1.26-.8 0-1.45-.3-1.48-1.26A90.9 90.9 0 0 1 35 35.1c0-.07.04-.11.1-.11h.56c.02 0 .04 0 .05.02l.03.06v2.52c0 .52.26.84.76.84ZM40.88 37.42a.11.11 0 0 0-.11.11v1.3c0 .12-.06.17-.16.17h-.49c-.08 0-.12-.04-.12-.12v-3.8c0-.05.03-.07.08-.07h1.56c.4 0 .69.06.86.17.67.46.65 1.55.05 2.02-.4.3-1.12.24-1.67.22Zm-.11-1.73v1.04c0 .03.01.06.03.08a.1.1 0 0 0 .08.03h.65a.8.8 0 0 0 .5-.17c.13-.11.2-.26.2-.42v-.08a.5.5 0 0 0-.05-.23.6.6 0 0 0-.15-.2.73.73 0 0 0-.23-.12.84.84 0 0 0-.28-.04h-.65a.1.1 0 0 0-.1.07v.04Z" fill="#0070AC"/></svg>