<!-- by TradingView --><svg width="56" height="56" viewBox="0 0 56 56" xmlns="http://www.w3.org/2000/svg"><path fill="#F0F3FA" d="M0 0h56v56H0z"/><path d="M48 28c0 3.71-2.1 7.27-5.86 9.9C38.4 40.53 33.3 42 28 42c-5.3 0-10.4-1.48-14.14-4.1C10.1 35.27 8 31.71 8 28s2.1-7.27 5.86-9.9C17.6 15.47 22.7 14 28 14c5.3 0 10.4 1.47 14.14 4.1C45.9 20.73 48 24.3 48 28Zm-19.82-9.1c-.2.08-.41.11-.64.11v-4.05c0-.08-.03-.1-.1-.1-2.4.37-4.17 2.43-5.13 4.44-.32.09-.63.1-.92.02a11.07 11.07 0 0 1 2.84-3.86c.16-.14.13-.17-.07-.12-2.18.62-4.12 1.7-5.8 3.27-.06.05-.06.1 0 .15.05.04.14.07.26.08l-.34.56a1.3 1.3 0 0 0-.5-.14.23.23 0 0 0-.18.08 13.2 13.2 0 0 0-3.42 8.28.1.1 0 0 0 .06.07.1.1 0 0 0 .05 0h1.1c-.02.25-.1.47-.23.65h-.84c-.08 0-.12.03-.11.11l.23 1.97c-.07.51-.24.94-.51 1.28a9.93 9.93 0 0 1-.57-3.35.07.07 0 0 0-.05-.02H9c-.11 0-.17.05-.16.16a10.5 10.5 0 0 0 2.87 6.4 16.66 16.66 0 0 0 3.4 2.82l.05-.01 1.48-.71c.06-.03.08-.07.04-.13l-1.22-1.7a.9.9 0 0 1 .85-.15l1.16 1.49a.15.15 0 0 0 .17.05l3.16-1.07a.09.09 0 0 0 .05-.04.09.09 0 0 0 0-.07l-.5-1.5c.29-.13.55-.2.8-.21l.48 1.52c0 .03.03.06.06.07.02.02.05.02.08.01 1.86-.45 3.74-.7 5.64-.73.04 0 .07-.02.1-.04a.14.14 0 0 0 .04-.1v-2.2c.28-.07.49-.09.63-.04l.05 2.24c0 .02 0 .05.02.07a.1.1 0 0 0 .07.03c2.02.04 4 .3 5.94.75a.12.12 0 0 0 .15-.08l.59-1.99c.17-.1.43-.03.79.24l-.6 1.93c-.01.07.01.1.08.13l3.29.94a.1.1 0 0 0 .1-.03 12.91 12.91 0 0 0 3.16-8 .09.09 0 0 0-.05-.05.1.1 0 0 0-.03 0h-1.74c.04-.27.14-.49.29-.65l1.4-.02c.07 0 .1-.04.1-.11l-.28-2.35c.11-.42.3-.8.56-1.11.37 1.18.56 2.35.57 3.5 0 .02.01.05.03.07a.1.1 0 0 0 .08.03h4.3a.15.15 0 0 0 .1-.05.14.14 0 0 0 .04-.1 10.84 10.84 0 0 0-3.33-6.9c.16-.35.1-.59-.16-.7-.48-.22-.92-.43-1.31-.63l-1.33-.94a.2.2 0 0 0-.19-.03l-.7.27-1.07-.03c-.08 0-.1-.03-.05-.1a.23.23 0 0 1 .06-.05l1.13-.46.02-.02.01-.04a.06.06 0 0 0-.03-.05 24.67 24.67 0 0 0-4.87-2v.02c0 .02 0 .04.02.05 1.16.62 2.24 1.44 3.24 2.44-.51.02-.98-.03-1.41-.16-1.6-1.35-3.4-2.3-5.4-2.88-.2-.05-.22-.02-.06.12.88.73 1.64 1.65 2.28 2.74-.34.12-.65.14-.94.06-1.14-1.82-2.65-3.15-4.76-3.42a.13.13 0 0 0-.1.03.13.13 0 0 0-.04.1l-.01 3.95Zm-7.87-2.95a23.48 23.48 0 0 0-4.22 1.76.07.07 0 0 0 0 .08l.04.03 1.16.52c.03.02.06.02.09.02l.07-.04c.9-.94 1.93-1.72 3.07-2.34.12-.06.11-.09-.03-.08l-.18.05Zm-3.45 3a.08.08 0 0 0 0-.12.09.09 0 0 0-.03-.02l-1.45-.63a.13.13 0 0 0-.12 0c-3.48 2.1-6.15 5.37-6.42 9.4 0 .07.03.1.1.1h4.37c.03 0 .05-.01.05-.04.11-3.3 1.28-6.2 3.5-8.7Zm22.6 17.75a.09.09 0 0 0 0 .11l.04.02 1.57.7a.15.15 0 0 0 .14-.02c3.25-2.05 5.67-5.23 5.95-9.04 0-.1-.04-.14-.13-.14h-4.3c-.02 0-.04 0-.06.02a.08.08 0 0 0-.02.06 13.6 13.6 0 0 1-3.19 8.29Zm-17.4-.78c-.08.01-.1.05-.07.11.99 2.3 2.78 4.63 5.42 5.12a.12.12 0 0 0 .1-.03.11.11 0 0 0 .03-.08v-5.7a.1.1 0 0 0-.03-.07.11.11 0 0 0-.08-.03c-1.67.05-3.46.27-5.38.68Zm12-.03a.04.04 0 0 0 0-.03.04.04 0 0 0-.02-.02 32.67 32.67 0 0 0-5.83-.6.05.05 0 0 0-.02.04v5.8a.09.09 0 0 0 .03.08.1.1 0 0 0 .08.02c2.88-.37 4.75-2.82 5.77-5.29Zm.8.23c-.64 1.57-1.79 3.48-3.16 4.45a.06.06 0 0 0-.01.08l.03.03h.04a14.5 14.5 0 0 0 6.3-3.67.09.09 0 0 0-.03-.1.1.1 0 0 0-.04-.01L35 36.05h-.09a.12.12 0 0 0-.06.07Zm-13.66.12a.12.12 0 0 0-.06-.06.13.13 0 0 0-.1-.01l-2.9.85a.1.1 0 0 0-.04.02.09.09 0 0 0-.02.09l.03.04a14.22 14.22 0 0 0 6.2 3.51l.03-.03v-.04a.06.06 0 0 0-.02-.04c-1.35-.94-2.48-2.8-3.12-4.33Zm14.49 3.84a26.85 26.85 0 0 0 4.78-2.1.09.09 0 0 0-.04-.11l-1.34-.58a.17.17 0 0 0-.1-.02.16.16 0 0 0-.08.05c-1.02 1.1-2.17 2-3.47 2.73-.14.07-.13.1.04.1l.2-.07Zm-15.34 0c.1.04.16.06.2.06.15 0 .16-.02.03-.1a13.47 13.47 0 0 1-3.28-2.52.15.15 0 0 0-.08-.05l-.1.01-1.25.56a.08.08 0 0 0-.04.03l-.01.04a.08.08 0 0 0 .04.08c1.33.73 2.83 1.36 4.49 1.9Z" fill="#271767"/><path d="M34.03 18.2h3.18c.43.14.9.19 1.4.17l.5.06a.23.23 0 0 0-.07.06c-.04.06-.03.09.05.09l1.06.03 2.23.7 1.3.62c.28.12.33.36.17.7l-1.8 3.46c-.25.32-.44.69-.55 1.11l-1.22 2.48c-.15.16-.25.38-.3.66a31.76 31.76 0 0 0-2.08 6.2.06.06 0 0 1-.05.03c-.01 0-.02 0-.03-.02a8.87 8.87 0 0 0-2.04-1.14c-.36-.27-.62-.35-.8-.24.05-.09.01-.16-.1-.2a14.97 14.97 0 0 0-6.7-.82 1.15 1.15 0 0 0-.63.05c-1.43.17-2.84.44-4.22.82-.74.2-1.47.41-2.2.64-.24 0-.5.08-.78.2l-4.05 1.15a.9.9 0 0 0-.85.15 12.28 12.28 0 0 1-3 .28.14.14 0 0 1-.07-.12c0-.03 0-.05.02-.07a16.6 16.6 0 0 0 1.53-3.55c.27-.34.44-.77.5-1.28l.73-2.08c.14-.18.21-.4.23-.64.55-1.76 1.12-3.5 1.7-5.26.16-.5.36-1 .57-1.53l.62-1.51.34-.56c.03-.1.1-.2.2-.25a.19.19 0 0 1 .18-.01 7 7 0 0 0 2.4.74c.28.07.59.07.91-.02-.04.04-.04.08 0 .12.03.02.06.03.1.03 1.73 0 3.44-.15 5.13-.44.23 0 .44-.03.64-.1l4.91-.66c.29.08.6.06.94-.06Zm-7.08 7.4c.14 1.03.32 2.73.54 4.3 0 .06.05.1.12.1h2.93c.03 0 .05-.01.07-.03a.1.1 0 0 0 .04-.05l2.45-8.86v-.02a.04.04 0 0 0-.02-.03H31.1a.07.07 0 0 0-.02.05l-1.76 6.17c-.08.25-.14.24-.18-.01a55 55 0 0 1-.27-1.86c-.13-1.02-.31-2.7-.53-4.26-.01-.07-.05-.1-.12-.1h-2.94a.1.1 0 0 0-.06.02.1.1 0 0 0-.04.05l-2.45 8.86a.04.04 0 0 0 .02.06l.02.01h1.9c.02 0 .04-.02.05-.03a.07.07 0 0 0 .03-.03l1.76-6.2c.08-.25.14-.25.18.01.06.39.15 1 .26 1.86Z" fill="#0093DD"/></svg>