<!-- by TradingView --><svg width="56" height="56" viewBox="0 0 56 56" xmlns="http://www.w3.org/2000/svg"><path fill="#F0F3FA" d="M0 0h56v56H0z"/><path d="M28.16 10a22.13 22.13 0 0 1 4.25.54c1.04.31 2.1.62 3.08 1.08.93.44 1.84.96 2.74 1.57.36.24.69.51 1 .75.2.14.44.34.72.6a85.48 85.48 0 0 0 .98.94l.35.36a18.38 18.38 0 0 1 1.47 1.85c.25.37.47.62.65.98.12.23.37.6.5.92.16.36.42.73.57 1.11l.23.58.39.97.43 1.54c.14.5.18 1.01.27 1.53.12.73.17 1.53.21 2.3v.8c-.02.4-.05.79-.09 1.19-.05.72-.18 1.46-.29 2.19-.02.13-.12.5-.3 1.1l-.15.53c-.15.6-.43 1.16-.65 1.73-.08.21-.18.42-.29.62l-.32.61c-.14.34-.3.57-.52.95-.14.26-.29.49-.44.7-.38.54-.78 1.07-1.19 1.58-.18.23-.37.43-.57.62-.22.2-.37.44-.58.6-.12.1-.27.24-.46.44a17.27 17.27 0 0 1-3.8 2.67c-.37.18-.74.4-1.11.55-.18.06-.48.18-.9.36-.25.11-.55.21-.9.32l-1.34.37c-.44.12-.92.15-1.33.22-.3.06-.63.1-1 .13-.53.04-1.06.08-1.59.1h-.32a33.3 33.3 0 0 1-2.15-.15l-.38-.06c-.4-.08-.88-.11-1.18-.18l-1.5-.41c-.71-.2-1.33-.5-2.12-.8-.24-.1-.59-.32-.86-.45a17.88 17.88 0 0 1-5.47-4.38c-.33-.4-.72-.93-1.17-1.56-.22-.31-.36-.63-.6-.96a7.06 7.06 0 0 1-.4-.76c-.14-.29-.42-.75-.56-1.15-.16-.44-.4-.88-.5-1.3-.07-.28-.2-.69-.38-1.22a3.3 3.3 0 0 1-.08-.32c-.07-.27-.13-.5-.18-.8l-.19-1.27c-.05-.33-.1-1-.14-2.03v-.37c.02-.49.05-.97.09-1.46.02-.3.07-.66.13-1.05.1-.63.15-1.16.35-1.85l.25-.79c.13-.38.2-.75.35-1.08l.3-.74c.15-.45.43-.86.62-1.26.1-.23.22-.44.34-.64l.37-.58a14.1 14.1 0 0 1 2.1-2.71c.18-.16.29-.33.49-.51l1.17-1.06c.7-.6 1.43-1.07 2.3-1.6.4-.25.84-.46 1.17-.64l.57-.3c.55-.2 1.1-.44 1.63-.6.43-.13 1.13-.36 1.81-.54.43-.11.88-.13 1.34-.21.25-.05.54-.09.87-.11l1.37-.1h.54Zm17.26 18a17.42 17.42 0 1 0-34.83 0 17.42 17.42 0 0 0 34.83 0Z" fill="#0093DD"/><path d="M44.59 28.66a16.63 16.63 0 1 1-33.27 0 16.63 16.63 0 0 1 33.27 0Zm-2.84 1.54a13.83 13.83 0 1 0-27.66 0 13.83 13.83 0 0 0 27.66 0Z" fill="#0093DD"/><path d="M28.42 14.62a.02.02 0 0 1-.02-.02v-.02a5.85 5.85 0 0 1 .13-.72c.01-.04.03-.06.04-.06h.02c.02 0 .04.1.05.24 0 .15 0 .35-.02.56v.03h-.02l-.18-.01ZM34.53 15.13l-.04-.01a.1.1 0 0 0-.14.05l-.42 1.02a.1.1 0 0 0 .05.13l.05.02a.1.1 0 0 0 .13-.05l.42-1.02a.1.1 0 0 0-.05-.13ZM24.1 17.53l.79-.2c2.1-.56 4.16-.56 6.17-.02.66.18 1.08.26 1.53.43a.06.06 0 0 1 .04.07c0 .04-.03.06-.08.06l-.07-.01h-8.03a12.95 12.95 0 0 0-1.16 0 .04.04 0 0 1 0-.03.15.15 0 0 1 .08-.07l.73-.23ZM26.11 24.57c.03-.04.01-.06-.03-.06H16a.05.05 0 0 1-.04-.03.05.05 0 0 1 0-.04c.15-.3.35-.73.58-1.1.1-.16.19-.32.25-.45.08-.16.2-.27.32-.42a.24.24 0 0 1 .19-.1h9.6c.23 0 .23-.11.3-.27a4.16 4.16 0 0 0 .34-1.05.06.06 0 0 0-.06-.05h-9.11a.02.02 0 0 1-.02-.01.02.02 0 0 1 0-.02c.36-.56 1.65-1.97 2.33-1.97h7.39c.04 0 .06 0 .06-.05l.01-.23c.02-.12.05-.12.09 0l.07.21c.01.03.03.05.05.06l.07.01h6.79c.91.25 2.07 1.65 2.39 2h-8.39a.06.06 0 0 0-.05.03l-.01.03v.03c.19.48.28.82.53 1.25l.03.02.03.01h9.05a.1.1 0 0 1 .1.05c.25.48.56.87.8 1.36a9.15 9.15 0 0 0 .34.67.05.05 0 0 1-.02.05H30.7c-.05 0-.07.03-.05.08l.57 1.35c.02.03.04.06.07.07.02.02.06 0 .09 0h9.13c.04 0 .08.05.11.07.04.03.06.06.07.1l.33 1.5c.08.4.15.9.25 1.25a.07.07 0 0 1-.01.06.06.06 0 0 1-.05.02H32.7a.05.05 0 0 0-.04.02l-.01.03v.02l.6 1.4a.1.1 0 0 0 .1.07h7.86c.02 0 .03.01.04.03.04.44-.05.8-.12 1.3-.03.23-.08.49-.14.76a519.01 519.01 0 0 0-.28 1.16.07.07 0 0 1-.05.02H34.3c-.04 0-.06.02-.06.06l.09.87c0 .02 0 .04.02.05l.05.02h5.93a.03.03 0 0 1 .02.01v.03a5 5 0 0 1-.46 1.14c-.25.43-.43.83-.74 1.25-.1.12-.18.25-.23.38-.03.07-.09.1-.16.1a259.32 259.32 0 0 1-4.5.06 4.69 4.69 0 0 1-.4 1.2.04.04 0 0 0 .02.02h4.07c.1-.03.1-.02.05.05-.78.91-1.78 1.58-2.71 2.32-.2.16-.44.25-.74.26-.26.02-1.2.02-2.8.01a1 1 0 0 0-.35.1c-.35.17-.59.27-.7.29-.84.15-1.65.22-2.42.21-.4 0-.81-.09-1.2-.12a4.22 4.22 0 0 1-1.59-.48 1.14 1.14 0 0 0-.52-.11h-3.64c-.1 0-.2-.04-.29-.1a23.78 23.78 0 0 1-2.62-1.98c-.12-.1-.22-.23-.3-.4-.03-.06-.02-.08.05-.06.03.02.07.01.13.01h4.08c.53 0-.16-.57-.23-1.14a.13.13 0 0 0-.12-.1h-4.74l-.05-.02a13.66 13.66 0 0 1-1.4-2.35 2.35 2.35 0 0 1-.22-.54.04.04 0 0 1 .04-.04h6.15c.02 0 .03 0 .03-.03l.16-.87a.09.09 0 0 0-.02-.07.09.09 0 0 0-.07-.03h-6.57a.06.06 0 0 1-.06-.04c-.32-.89-.41-1.8-.52-2.76v-.4c.02-.05.04-.07.08-.07h7.97a.12.12 0 0 0 .1-.07l.64-1.4a.05.05 0 0 0 0-.05.04.04 0 0 0-.04-.02h-8.7c.04-.2.07-.66.1-.95a7.05 7.05 0 0 1 .52-2c.01-.01.03-.05.05-.05h9.81c.03 0 .05.02.08.01a.14.14 0 0 0 .05-.05l.7-1.4ZM16.1 20.74l-.87-.7a.08.08 0 0 0-.12.02l-.05.07a.08.08 0 0 0 0 .12l.87.7c.04.03.09.02.12-.02l.06-.07a.08.08 0 0 0-.02-.12ZM40.98 20.61l-.85.62a.12.12 0 0 0-.02.16l.01.03c.04.05.12.06.17.02l.85-.61a.12.12 0 0 0 .02-.17l-.02-.02a.12.12 0 0 0-.16-.03ZM27.05 43.41a8.7 8.7 0 0 1-2.55-.44l-1.04-.31a.59.59 0 0 1-.22-.1c-.09-.08-.07-.12.05-.12 1.27.05 2.71.09 4.1.09 1.36 0 2.88.03 4.56.09.2 0 .38 0 .57-.03.03 0 .04 0 .03.03l-.01.05h-.01l-.9.3c-.8.25-1.6.4-2.38.43-.8.04-1.52.04-2.2.01Z" fill="#0093DD"/></svg>