<!-- by TradingView --><svg width="56" height="56" viewBox="0 0 56 56" xmlns="http://www.w3.org/2000/svg"><path fill="#F0F3FA" d="M0 0h56v56H0z"/><path d="M23.08 22.73c-.22-5.43-2.97-8.67-8.25-9.73h-1.79c-.35 5.82 3.98 9.99 9.75 10.03.13 0 .2.07.2.2.01 5.8 4.22 10.09 10.03 9.74.08-5.84-3.8-10-9.73-10.03-.13 0-.2-.07-.21-.21Z" fill="#005B36"/><path d="M33.06 22.76c-.21-5.44-2.96-8.7-8.24-9.76h-1.8c-.4 5.82 4.01 9.98 9.76 10.03.13 0 .2.07.2.2a9.33 9.33 0 0 0 2.12 6.4c1.9 2.28 4.46 3.4 7.68 3.37.14 0 .2-.08.2-.22.07-5.73-4-9.91-9.7-9.8-.15 0-.22-.08-.22-.22Z" fill="#005B36"/><path d="M34.74 13c5.06.71 8.33 4.69 8.26 9.8 0 .15-.08.22-.22.22-5.77.01-10.15-4.2-9.78-10.02h1.74ZM23.15 32.97c-.03 0-.06-.01-.08-.04-.04-.03-.05-.06-.05-.09.31-5.74-4.2-10.07-9.9-9.85l-.05.03c-.02.02-.03.03-.03.05-.22 5.7 4.11 10.22 9.85 9.9.02 0 .05.02.08.05.03.03.04.06.04.08-.3 5.75 4.21 10.08 9.9 9.86.02 0 .04-.01.05-.03.02-.02.03-.03.03-.05.22-5.7-4.1-10.22-9.84-9.91Z" fill="#005B36"/><path d="M20.32 35.67c1.79 1.78 2.7 4.13 2.73 7.02 0 .1-.02.18-.07.23-.06.06-.13.08-.23.08-2.9-.03-5.23-.94-7.02-2.73-1.79-1.79-2.7-4.13-2.73-7.03 0-.1.03-.17.08-.23.05-.05.12-.08.22-.07 2.9.03 5.24.94 7.02 2.73ZM41.03 36.63a9.1 9.1 0 0 0-8.01-3.66c-.4 5.81 4.05 10.1 9.74 10.02.14 0 .21-.08.22-.22a8.89 8.89 0 0 0-1.95-6.14Z" fill="#005B36"/></svg>