<!-- by TradingView --><svg width="56" height="56" viewBox="0 0 56 56" xmlns="http://www.w3.org/2000/svg"><path fill="#F0F3FA" d="M0 0h56v56H0z"/><path d="M14.02 19.6v11.74c1.98-.9 3.86-1.57 5.59-2.06v1.63h1.19v-1.96a37.1 37.1 0 0 1 3.53-.71 8.4 8.4 0 0 0 3.41 1.4l-.33 1.7 6.8-.8c-.16-.44-.55-1.27-1.1-2.09.77.13 1.57.29 2.38.47v1.99h1.19v-1.7c1.93.52 3.82 1.21 5.32 2.13V19.59L28.01 11l-13.99 8.6Z" fill="#303094"/><path d="M14 31.4v5.02L28.04 45 42 36.42V31.4a52.47 52.47 0 0 0-13.6-1.85c-6.02 0-12.1 1.24-14.39 1.86Z" fill="#ED1B24"/><path d="M17 21h6.02v.27h-.41c-.93 0-1.61.84-1.61 1.88v9.66c0 1.04.68 1.88 1.61 1.88h.49V35h-6.06v-.31h.21c.94 0 1.75-.84 1.75-1.88v-9.66c0-1.04-.81-1.88-1.75-1.88H17V21Zm3 .7c-.14 0-.25.15-.25.33v11.91c0 .18.11.33.25.33s.25-.15.25-.33V22.03c0-.18-.11-.33-.25-.33ZM33 21h6v.27h-.43c-.94 0-1.57.84-1.57 1.88v9.66c0 1.04.63 1.88 1.57 1.88H39V35h-6v-.31h.49c.93 0 1.51-.84 1.51-1.88v-9.66c0-1.04-.58-1.88-1.51-1.88H33V21Zm3 .7c-.14 0-.25.15-.25.33v11.91c0 .18.11.33.25.33s.25-.15.25-.33V22.03c0-.18-.11-.33-.25-.33Z" fill="#F0F3FA"/><path d="m31.9 24.08 1.68-2.15c-.44-.97-2.11-2.93-5.3-2.93-3.05 0-4.04 1.77-4.34 2.91a3.96 3.96 0 0 0-1.04 2.64c0 1.66.54 3.31 4.2 4.34 3.67 1.02 4.58 2.37 4.58 4.1 0 1.73-1.49 3.15-3.44 3.15s-3.3-1.5-3.63-4.22l-1.68 2.15c.44.97 2.11 2.93 5.31 2.93 3.04 0 4.03-1.77 4.33-2.91a3.96 3.96 0 0 0 1.04-2.64c0-1.66-.54-3.31-4.2-4.34-3.67-1.02-4.57-2.37-4.57-4.1 0-1.73 1.48-3.15 3.43-3.15 1.95 0 3.3 1.5 3.63 4.22Zm.77 9.5.02-.32c.23-1.1-.11-3.57-3.28-4.6l-1.06-.32c-3.26-1.02-5.54-1.72-4.5-5.91l-.03.3c-.22 1.11.11 3.58 3.28 4.6l1.06.33c3.26 1.02 5.54 1.72 4.5 5.91ZM28.03 17.73c0 .05.03.08.08.08h.37c.05 0 .08-.03.08-.08v-3.05a.31.31 0 0 0-.08-.22.24.24 0 0 0-.37 0 .32.32 0 0 0-.07.22v3.05Zm-1.36.08-.46-1.86c-.04-.14-.12-.18-.25-.14l-.05.02c-.09.04-.12.11-.1.22l.55 2.03c.01.03.03.05.07.04l.75-.22.01-.02a326.16 326.16 0 0 0-.33-3.16.36.36 0 0 0-.12-.18c-.1-.07-.2-.07-.3.02-.09.07-.12.2-.1.4l.36 2.83v.01h-.03Zm2.66.16c-.01 0-.02-.01-.02-.03l.35-3.17c.01-.09.05-.16.1-.21a.23.23 0 0 1 .37.04c.05.07.06.15.05.23l-.35 3.18c0 .01-.01.02-.03.02l-.47-.06Zm-3.62.47c0 .02.02.02.04.01l.34-.2.01-.03-.84-3.05c-.05-.18-.17-.25-.34-.2a.26.26 0 0 0-.07.03c-.12.07-.16.18-.12.32l.98 3.12Zm5.06.09-.35-.22-.01-.02.86-3.1c.05-.2.16-.26.35-.22l.07.03c.12.08.16.19.12.33l-1 3.18c-.01.02-.02.03-.04.02Zm-3.31-2.98h.13c.07 0 .13.05.13.12l.08 2.04c0 .07-.05.13-.12.14h-.13a.13.13 0 0 1-.13-.12l-.08-2.04c0-.07.05-.13.12-.14Zm1.36 2.31c-.06 0-.09-.03-.09-.1l.1-1.98c0-.06.03-.1.07-.14a.18.18 0 0 1 .14-.05c.05 0 .1.02.13.06a.2.2 0 0 1 .05.15l-.1 1.99c0 .06-.03.09-.1.08l-.2-.01Zm1.1.2.01.04.28.12.03-.01.48-2.17c.04-.14-.02-.22-.15-.25h-.01c-.15-.01-.23.05-.25.17l-.4 2.1Zm-4.3.41c.03.06.01.1-.04.12l-.08.04c-.13.05-.2.05-.22 0l-.9-2.18c-.03-.06.02-.11.15-.17l.08-.03c.05-.03.09-.01.11.05l.9 2.17Zm5.3.15.24.2c.02.01.04 0 .05-.02l.92-2.3c.04-.1 0-.16-.11-.2H32c-.14-.04-.23 0-.28.14l-.81 2.14v.04Z" fill="#F0F3FA"/></svg>