<!-- by TradingView --><svg width="56" height="56" viewBox="0 0 56 56" xmlns="http://www.w3.org/2000/svg"><path fill="#F0F3FA" d="M0 0h56v56H0z"/><path d="M48 28c0 1.72-.5 3.38-1.52 4.98-1.02 1.59-2.46 3-4.34 4.21a22.6 22.6 0 0 1-6.49 2.82c-2.45.66-5 .99-7.65.99-2.65 0-5.2-.33-7.65-.99a22.6 22.6 0 0 1-6.5-2.82 14.18 14.18 0 0 1-4.33-4.21A9.13 9.13 0 0 1 8 28c0-1.72.5-3.38 1.52-4.98 1.02-1.59 2.46-3 4.34-4.21a22.6 22.6 0 0 1 6.49-2.82c2.45-.66 5-.99 7.65-.99 2.65 0 5.2.33 7.65.99a22.6 22.6 0 0 1 6.5 2.82 14.18 14.18 0 0 1 4.33 4.21A9.13 9.13 0 0 1 48 28Z" fill="#2C0C71"/><path d="M47.06 28a8.7 8.7 0 0 1-1.45 4.74 13.51 13.51 0 0 1-4.13 4.02 21.53 21.53 0 0 1-6.19 2.69c-2.33.62-4.76.94-7.29.94-2.53 0-4.96-.32-7.3-.95a21.53 21.53 0 0 1-6.18-2.68 13.5 13.5 0 0 1-4.13-4.02A8.7 8.7 0 0 1 8.94 28a8.7 8.7 0 0 1 1.45-4.74 13.51 13.51 0 0 1 4.13-4.02 21.53 21.53 0 0 1 6.19-2.68c2.33-.63 4.76-.95 7.29-.95 2.53 0 4.96.32 7.3.95 2.33.62 4.39 1.52 6.18 2.68a13.51 13.51 0 0 1 4.13 4.02A8.7 8.7 0 0 1 47.06 28Z" fill="#F0F3FA"/><path d="M25.92 16.9v-.01c-.04-.07-.02-.15.04-.24a.65.65 0 0 1 .28-.21l.05-.02a.64.64 0 0 1 .34-.06c.1.01.17.06.2.13l-.9.4ZM24.43 17.03c-.02 0-.04-.01-.07 0-.03 0-.05-.02-.07-.04a.2.2 0 0 1-.02-.13c0-.06.04-.1.1-.1.16-.04.33-.04.51 0 .06 0 .1.04.12.1.02.05.01.1-.03.15-.08.1-.2.19-.37.28-.04.02-.06.06-.05.11l.22 1c.06.3-.02.5-.24.62-.36.2-.72.28-1.08.27-.44-.01-.73-.2-.84-.58a8.46 8.46 0 0 0-.4-1.04c-.04-.08-.02-.14.07-.15l.66-.14c.05-.01.09.01.11.06l.5 1.29c.05.14.16.2.32.15h.01c.19-.04.26-.15.2-.35l-.32-1.18c-.02-.06 0-.1.06-.1l.58-.11c.1-.02.11-.06.03-.11ZM29.4 18.33v-.06c.02-.05.05-.07.1-.07h.54a.1.1 0 0 1 .09.04.1.1 0 0 1 0 .1c-.1.3-.36.47-.78.53a2 2 0 0 1-.99-.1c-.44-.17-.64-.53-.58-1.08.05-.43.32-.7.82-.78.4-.08.81-.04 1.24.11.16.06.27.17.33.32l.05.15c.06.15 0 .21-.15.17a1.7 1.7 0 0 0-.56-.03c-.06 0-.1-.02-.1-.08-.05-.28-.24-.38-.57-.29a.18.18 0 0 0-.12.1 1.6 1.6 0 0 0-.09.93c.03.17.19.25.48.25.15 0 .25-.08.28-.21Z" fill="#17107B"/><path d="M27.35 18.42c.2-.34.15-.75-.14-1.22-.04-.06-.02-.09.04-.1.2-.05.35-.14.45-.26.04-.05.05-.1.02-.16a.14.14 0 0 0-.14-.09h-.45a.13.13 0 0 0-.13.1c-.03.06 0 .15.1.26.03.03.02.07 0 .1-.03.02-.05.02-.09 0a2.46 2.46 0 0 0-1.54 0 .82.82 0 0 0-.34.23.64.64 0 0 0-.19.33c-.07.47.06.83.4 1.08.3.22.67.3 1.1.25.43-.06.73-.23.9-.52Zm-1.28-1.14.1-.01c.2-.03.39.12.41.32l.07.57c.02.2-.12.38-.32.4l-.11.02a.36.36 0 0 1-.4-.32l-.07-.58a.36.36 0 0 1 .32-.4ZM32.87 18.9a.14.14 0 0 0 .08-.13c0-.06-.03-.1-.08-.13-.47-.24-.74-.4-.82-.45-.14-.12-.21-.25-.22-.39 0-.15.09-.27.25-.36.29-.16.63-.2 1.02-.12.37.08.67.23.9.45.11.1.1.17-.06.2l-.32.03a.42.42 0 0 1-.4-.16c-.12-.13-.22-.2-.3-.18-.33.06-.34.16-.05.32l.2.1c.31.15.52.28.61.39.16.18.15.38-.04.62-.1.12-.31.2-.62.22-.6.05-1.1-.12-1.5-.5a.09.09 0 0 1-.02-.1.09.09 0 0 1 .08-.07c.19-.04.37-.05.55-.02.05.01.1.04.13.08.19.25.39.32.6.2ZM20.7 18.96c-.12-.06-.15-.03-.09.08l.4.75c.03.06.01.1-.05.12l-.38.15c-.07.03-.13 0-.17-.07l-.92-1.59c-.02-.04-.01-.08.03-.1.35-.21.68-.23 1-.04l.88.46c.05.02.06 0 .04-.04l-.3-.8c-.02-.03 0-.06.03-.07l.46-.18c.09-.03.15 0 .18.08l.65 1.7c.02.05 0 .08-.04.1h-.03c-.15.07-.26.1-.33.1a.65.65 0 0 1-.37-.1l-1-.55ZM35.66 19.88c.6-.17.9-.58.9-1.25 0-.05.02-.07.07-.08l.45-.06c.1 0 .15-.06.18-.15.02-.1 0-.16-.08-.22a.71.71 0 0 0-.48-.1c-.07 0-.1.04-.1.12v.08c0 .2-.08.23-.22.1-.26-.23-.6-.37-1-.43-.45-.08-.8 0-1.05.22-.2.17-.32.4-.38.67-.08.3-.02.54.16.7a1.71 1.71 0 0 0 1.55.4Zm-.18-1.62.12.06c.16.09.22.29.14.45l-.33.62a.33.33 0 0 1-.44.13l-.12-.06a.33.33 0 0 1-.14-.44l.33-.62a.33.33 0 0 1 .44-.14ZM37.3 19.66l-.5.72c-.07.1-.16.12-.27.06l-.2-.12c-.1-.05-.11-.12-.06-.2l.85-1.48c.07-.12.16-.14.27-.08l.25.12c.11.04.18.08.22.13.05.06.09.19.12.37.05.3.08.56.1.79.01.04.03.04.05.01l.63-.72c.06-.08.13-.09.2-.04l.34.2c.09.04.1.1.03.19l-1.23 1.42a.1.1 0 0 1-.1.03 1.45 1.45 0 0 1-.4-.2.18.18 0 0 1-.08-.13l-.13-1.04c0-.1-.04-.1-.1-.03ZM15.2 19.41c-.1.29-.27.5-.48.64-.09.06-.14.03-.14-.08v-.12c0-.13.06-.23.17-.3l.37-.2c.08-.06.11-.04.08.06Z" fill="#17107B"/><path fill-rule="evenodd" d="M17.38 20.55c-.04-.04-.03-.07.03-.09.27-.08.5-.2.7-.37.27-.22.35-.44.23-.66-.25-.5-1.05-.36-2.37.42a6.1 6.1 0 0 0-.1.05c-.05.04-.06.08-.01.13l1.32 1.46c.03.03.07.04.1.02l.61-.35c.02-.01.02-.03.01-.04l-.52-.57Zm.12-.91c0-.04-.03-.05-.07-.04l-.55.2c-.03 0-.04.03-.03.06l.01.04c.03.09.09.15.17.2a.3.3 0 0 0 .25 0h.04a.31.31 0 0 0 .18-.18.33.33 0 0 0 .01-.25v-.03Z" fill="#17107B"/><path d="M43.48 29.73c0 1.31-.4 2.57-1.18 3.78-.78 1.2-1.9 2.27-3.35 3.2a17.64 17.64 0 0 1-5.03 2.14c-1.9.5-3.87.75-5.92.75s-4.03-.25-5.92-.75c-1.9-.5-3.57-1.22-5.02-2.14a10.9 10.9 0 0 1-3.36-3.2 6.83 6.83 0 0 1-1.18-3.78c0-1.3.4-2.56 1.18-3.77a10.9 10.9 0 0 1 3.36-3.2 17.64 17.64 0 0 1 5.02-2.14c1.9-.5 3.87-.75 5.92-.75s4.03.25 5.92.75c1.9.5 3.57 1.21 5.03 2.14 1.45.92 2.57 2 3.35 3.2a6.83 6.83 0 0 1 1.18 3.77Z" fill="#2C0C71"/><path d="M13.93 20.72a.63.63 0 0 1-.35.43.07.07 0 0 1-.08-.01.07.07 0 0 1-.02-.07c.12-.62.52-.87 1.19-.75.05 0 .06.03.02.07a.8.8 0 0 1-.45.18l-.2.04c-.07.02-.1.06-.11.1ZM41.18 22.57l-.11.2c-.03.04-.06.04-.1.02l-1.47-.86c-.06-.03-.06-.06-.02-.1l1.45-1.47c.03-.02.06-.02.09 0l.64.37c.06.03.06.07.02.11l-1.23 1.12c-.04.04-.04.08.02.11l.69.4c.04.03.04.06.02.1Z" fill="#17107B"/><path fill-rule="evenodd" d="m15.46 22.57-.14-.26c-.03-.06-.02-.1.03-.13l.47-.28c.05-.02.1-.02.13.01.23.2.44.2.62-.01l.04-.03.22-.12c.07-.03.07-.07 0-.1l-1.9-1.1a.1.1 0 0 0-.1 0l-.84.48c-.07.05-.09.1-.05.18l.97 1.68c.03.06.08.07.13.04l.39-.23c.06-.03.07-.08.03-.13Zm-.07-.97-.45-.28c-.15-.1-.2-.07-.14.1.03.07.11.22.26.43.04.07.09.07.15.02l.19-.18c.04-.03.04-.07-.01-.1Z" fill="#17107B"/><path d="m13.92 23.17-.09-.1c-.07-.07-.06-.13.02-.19l.39-.25c.07-.05.13-.04.18.03.18.28.19.52.02.75-.58.77-1.29.95-2.12.53-.35-.18-.53-.42-.54-.7 0-.26.1-.51.34-.76.23-.24.5-.4.8-.48.32-.09.6-.05.8.11.05.04.05.07 0 .11l-.43.34a.17.17 0 0 1-.15.03l-.2-.05a.37.37 0 0 0-.34.06.37.37 0 0 0-.16.29c0 .05.02.1.06.14.77.68 1.26.77 1.45.29a.13.13 0 0 0-.03-.15Z" fill="#17107B"/><path fill-rule="evenodd" d="m42.14 23.26.38.33c.03.03.04.06 0 .1l-.18.21c-.04.04-.04.09 0 .13l.42.41c.05.06.1.05.15 0l1.32-1.53c.05-.06.05-.12-.01-.17l-.68-.6a.2.2 0 0 0-.22-.03l-2.06.8a.1.1 0 0 0-.07.08c0 .04 0 .07.03.1.24.24.48.29.73.15.07-.04.13-.03.19.02Zm.79 0 .37-.43c.1-.1.07-.14-.06-.08l-.63.24c-.09.03-.1.08-.03.14l.17.15c.06.05.12.05.18-.02Z" fill="#17107B"/><ellipse cx="27.99" cy="29.77" rx="14.99" ry="9.53" fill="url(#a)"/><path d="M29 23.35a11.05 11.05 0 0 0-5.04 5.5c-.16.38-.38.93-.65 1.67-.24.64-.2 1.57.12 2.8a3.06 3.06 0 0 0 2.44 2.29 4.4 4.4 0 0 0 3.44-.55c.61-.37 1.1-.77 1.46-1.2a3.93 3.93 0 0 0 .85-3.5 14.23 14.23 0 0 0-1.82-4.96l-.4-.82c-.06-.1-.02-.14.1-.13.09.01.22.12.4.32l2.5 3.5c.55.87.9 1.9 1.02 3.12a6.43 6.43 0 0 1-.28 1.94c-.18.48-.63 1.2-1.35 2.13-.16.21-.46.44-.89.69-.23.14-.4.24-.5.32-.42.33-1.06.54-1.9.63-.84.1-1.48.02-1.93-.2-.22-.11-.44-.2-.63-.27a5.1 5.1 0 0 1-3.17-3.4 7.1 7.1 0 0 1 0-3.47c.55-1.3 1.25-2.5 2.13-3.62.84-1.07 1.4-1.83 1.7-2.3.44-.68.8-1.44 1.08-2.27.19-.56.36-.56.53.02.14.49.4 1.08.79 1.76Z" fill="#083B9A"/><path d="M29.9 24.77c-.18-.2-.31-.3-.4-.32-.12-.01-.16.03-.1.13l.4.82-.5-.64c-.02-.04-.05-.03-.07 0l-.09.16a.07.07 0 0 0 0 .08 12.3 12.3 0 0 1 1.38 7.42c-.03.2.06.29.26.26l.17-.02c.2-.02.31-.14.34-.33l.33-1.97c.27 1.36-.01 2.53-.84 3.5-.37.43-.86.83-1.47 1.2a4.4 4.4 0 0 1-3.43.55 3.06 3.06 0 0 1-2.45-2.3c-.32-1.22-.36-2.15-.12-2.8.27-.73.49-1.28.65-1.65 1.02-2.4 2.7-4.23 5.04-5.5l.9 1.41Z" fill="#2F7CB4"/><path d="M29.8 25.4a14.23 14.23 0 0 1 1.82 4.96l-.33 1.97c-.03.2-.14.3-.34.33l-.18.02c-.2.03-.28-.06-.25-.26A12.3 12.3 0 0 0 29.14 25a.07.07 0 0 1 0-.08l.09-.15c.02-.04.05-.04.08 0l.5.63Z" fill="#67CEE7"/><defs><linearGradient id="a" x1="27.99" y1="20.25" x2="27.99" y2="39.3" gradientUnits="userSpaceOnUse"><stop stop-color="#fff"/><stop offset="1" stop-color="#55C0F0"/></linearGradient></defs></svg>