<!-- by TradingView --><svg width="56" height="56" viewBox="0 0 56 56" xmlns="http://www.w3.org/2000/svg"><path fill="#F0F3FA" d="M0 0h56v56H0z"/><path d="M26.22 14.69a.19.19 0 0 1-.05-.2l1.39-4.44c0-.03.03-.05.06-.05.04 0 .07.02.09.04.03.03.04.07.04.13-.06 1.9-.06 3.79-.01 5.68 0 .27-.09.3-.27.11l-1.25-1.27Zm3.55 0-1.24 1.26c-.18.2-.27.15-.26-.11.05-1.87.05-3.74 0-5.61-.01-.07 0-.11.03-.14a.13.13 0 0 1 .09-.03c.03 0 .05.01.06.04l1.37 4.39c.02.08 0 .14-.05.2Zm-3.92.67-1.42 4.37a.1.1 0 0 0 .03.11l3.05 3.12a.1.1 0 0 0 .12.03.1.1 0 0 0 .07-.1v-5.82a.1.1 0 0 0-.03-.08l-1.63-1.67c-.09-.09-.15-.07-.19.04Zm4.29.01 1.42 4.35c.02.05.01.09-.02.12l-3.05 3.12a.1.1 0 0 1-.13.02c-.05-.02-.07-.05-.07-.1v-5.81c0-.03.01-.06.03-.08l1.63-1.66c.08-.1.15-.08.19.04Zm-6 5.2-1.42 4.38a.1.1 0 0 0 .03.1l4.78 4.89c.03.03.07.04.1.02a.1.1 0 0 0 .07-.1v-5.83a.1.1 0 0 0-.03-.07l-3.35-3.42c-.08-.08-.14-.07-.17.04Zm7.7.03 1.43 4.35a.1.1 0 0 1-.03.11l-4.76 4.86c-.03.04-.07.05-.12.03a.11.11 0 0 1-.07-.1v-5.81c0-.03.01-.06.03-.08l3.34-3.4c.08-.1.14-.08.18.04Zm-9.4 5.22L21 30.22c-.02.04 0 .08.02.12l6.47 6.6a.1.1 0 0 0 .13.03c.05-.02.07-.06.07-.1V31a.12.12 0 0 0-.03-.09l-5.04-5.14c-.09-.1-.15-.08-.2.04Zm11.1 0 1.45 4.4a.1.1 0 0 1-.02.12l-6.49 6.63a.1.1 0 0 1-.12.02.1.1 0 0 1-.07-.1V31a.1.1 0 0 1 .03-.07l5.05-5.15c.08-.09.14-.08.18.04Zm-5.5 14.03h-.07l-.04-.04a568.16 568.16 0 0 0-9.43-9.18 1.16 1.16 0 0 0-1-.33c-.4.06-.7.25-.9.59l-2.57 4.35c-.05.09-.04.18.04.25l3.45 3.37c.09.08.16.07.22-.03l1.57-2.65c.04-.08.1-.09.16-.02 2.73 2.68 5.31 5.2 7.75 7.54.21.2.47.3.78.3.3 0 .57-.1.78-.3 2.44-2.34 5.02-4.86 7.75-7.54.06-.07.12-.06.16.02l1.57 2.65c.06.1.13.11.22.03l3.45-3.37c.08-.07.1-.16.04-.25l-2.58-4.35c-.2-.34-.49-.53-.88-.58-.4-.06-.73.05-1.01.32-3.3 3.14-6.44 6.2-9.43 9.18l-.04.04Z" fill="#D6AF70"/></svg>