<!-- by TradingView --><svg width="56" height="56" viewBox="0 0 56 56" xmlns="http://www.w3.org/2000/svg"><path fill="#F0F3FA" d="M0 0h56v56H0z"/><path fill-rule="evenodd" d="M42.78 34.12a15.85 15.85 0 0 0 0-12.24 15.82 15.82 0 0 0-3.47-5.2 15.85 15.85 0 0 0-17.44-3.47c-1.95.82-3.68 1.98-5.18 3.48a15.85 15.85 0 0 0-3.47 17.44c.81 1.95 1.97 3.68 3.47 5.18a15.85 15.85 0 0 0 17.44 3.47c1.95-.81 3.68-1.97 5.18-3.47 1.5-1.5 2.66-3.23 3.47-5.19Zm-.35-.14a15.46 15.46 0 0 0 0-11.95 15.48 15.48 0 0 0-8.45-8.45 15.46 15.46 0 0 0-11.95 0 15.48 15.48 0 0 0-8.44 8.45 15.46 15.46 0 0 0 0 11.95 15.48 15.48 0 0 0 8.44 8.44 15.46 15.46 0 0 0 11.95 0 15.48 15.48 0 0 0 8.45-8.44Z" fill="#28166F"/><path d="M27.17 15.26c0 .13.05.27.14.42.02.04.02.09 0 .13a.12.12 0 0 1-.11.06l-.5.02c-.1 0-.12-.05-.1-.14.2-.58.19-1.1-.04-1.59-.04-.07-.01-.11.07-.12l1.02-.02c.3 0 .48.14.53.44.05.25-.03.44-.24.55a1.2 1.2 0 0 1-.63.12c-.1 0-.14.04-.14.13ZM30.66 14.7l-.2.91c-.01.07 0 .14.04.2l.12.24a.1.1 0 0 1-.02.13c-.03.03-.07.04-.12.03l-.76-.31c-.06-.02-.06-.05-.01-.08l.18-.12a.14.14 0 0 0 .06-.07c.14-.43.22-.76.22-.99.01-.22-.07-.27-.26-.15l-.23.14c-.09.06-.13.04-.14-.06 0-.16.07-.3.22-.41a.2.2 0 0 1 .16-.03l1.14.22c.1.02.16.06.19.14.08.2.09.35.01.44-.05.07-.1.07-.14 0-.12-.18-.2-.28-.27-.3-.1-.05-.17-.03-.2.06ZM25.3 14.48a.3.3 0 0 0-.22.08.65.65 0 0 0-.22.52c0 .2.06.38.17.54.12.17.26.25.43.24.2-.02.39-.15.57-.42.05-.07.1-.07.17-.02l.05.06a.1.1 0 0 1-.01.07c-.12.24-.28.42-.5.52a.9.9 0 0 1-.6.08c-.5-.1-.76-.44-.77-1 0-.22.08-.42.23-.6.14-.15.31-.26.52-.33a.8.8 0 0 1 .57.02c.19.09.31.25.37.48.01.05 0 .09-.06.1l-.07.01a.15.15 0 0 1-.1-.05c-.18-.2-.36-.3-.54-.3Z" fill="#DD2219"/><path d="M27.12 14.56c0 .18.11.32.26.32.14 0 .26-.14.26-.3 0-.18-.1-.32-.25-.32s-.27.13-.27.3Z" fill="#F0F3FA"/><path d="M32.52 15.58c.12.04.22.05.28.02.06-.03.1-.08.13-.17a.88.88 0 0 0-.04-.35c-.03-.11.02-.15.14-.1l.6.2c.1.04.11.1.02.17-.43.35-.62.84-.56 1.47.01.09-.03.12-.11.1a1.9 1.9 0 0 1-.64-.27c-.1-.05-.09-.1.01-.15a.64.64 0 0 0 .3-.23c.08-.13.08-.24.01-.35a.44.44 0 0 0-.21-.14.45.45 0 0 0-.26-.03c-.12.03-.2.12-.22.26-.01.13 0 .25.07.37.05.1.02.14-.1.12a1.9 1.9 0 0 1-.65-.21c-.08-.05-.08-.1-.02-.16.47-.43.65-.92.56-1.47-.02-.12.02-.15.13-.1l.59.23c.12.05.13.1.03.18a.87.87 0 0 0-.26.23c-.04.08-.05.15-.02.21.03.06.1.12.22.17ZM22.13 15.96c.08.06.13.04.16-.05.07-.25.01-.43-.17-.53-.1-.06-.1-.1 0-.15l.62-.27c.04-.02.07 0 .1.02.03.03.04.07.02.1-.42.92-.42 1.45.02 1.57.26.07.27.17.04.28l-.57.29c-.14.07-.19.03-.14-.13.16-.52-.2-.92-1.1-1.19-.1-.03-.1-.07-.02-.14.22-.17.45-.27.7-.3.08-.02.12.02.13.1.02.18.09.32.2.4ZM35.32 15.4c-.05-.03-.08-.05-.08-.07-.04-.07-.02-.1.05-.1.2.04.35.1.47.2.06.06.08.12.04.2-.05.1-.11.16-.2.16-.07 0-.12-.04-.13-.12l-.03-.1a.25.25 0 0 0-.12-.17ZM34.1 17c-.03.1-.01.2.06.27.17.17.33.18.48.03.36-.38.54-.78.56-1.21 0-.1.05-.13.13-.1.12.06.23.16.32.31.05.07.03.13-.04.18-.1.06-.24.24-.4.51-.17.28-.31.46-.43.55-.19.14-.41.14-.67.02-.36-.17-.5-.4-.44-.7a2.38 2.38 0 0 1 .47-.84c.04-.05.06-.1.05-.17v-.26c0-.1.05-.14.15-.1.18.06.35.17.52.32.05.05.05.1-.01.13-.35.27-.6.62-.75 1.06ZM19.8 16.98c-.05.05-.09.18-.13.39-.01.08-.05.1-.12.05-.11-.06-.16-.2-.16-.4 0-.1.04-.16.11-.21l.96-.65a.2.2 0 0 1 .15-.03c.19.04.31.14.37.28.03.1 0 .14-.1.12l-.27-.04c-.21-.04-.27.05-.18.24.1.2.3.48.59.82.02.02.05.04.08.04l.21.04c.06 0 .07.03.03.07l-.58.58a.1.1 0 0 1-.13.03.1.1 0 0 1-.06-.11l.02-.27a.3.3 0 0 0-.05-.2l-.54-.77c-.05-.07-.12-.07-.2.02ZM36.92 17.25l.6.53c.19.16.16.23-.08.22a2.1 2.1 0 0 0-.86.13c-.33.13-.48.34-.45.64.02.23-.04.26-.2.1a3.6 3.6 0 0 0-.48-.43c-.19-.14-.17-.2.06-.21.3 0 .49-.19.58-.54.06-.26.07-.54.01-.86-.04-.24.03-.28.2-.12l.62.54Z" fill="#DD2219"/><path fill-rule="evenodd" d="M38.65 28.3c.09.02.16.13.22.34a10.8 10.8 0 0 0-2.7-7.83 10.75 10.75 0 0 0-4.15-2.92 10.75 10.75 0 0 0-7.9-.06 10.75 10.75 0 0 0-4.2 2.87 10.76 10.76 0 0 0-2.78 8 10.77 10.77 0 0 0 3.77 7.56c.44.38.9.72 1.4 1.03l.2-.13a10.96 10.96 0 0 1-3.6-3.5c-.18-.28-.47-.9-.9-1.86a9.49 9.49 0 0 1-.68-3.19c0-.03 0-.06.04-.08a.08.08 0 0 1 .06 0l.02.01 1 2.82c.02.09.08.13.18.13a5.05 5.05 0 0 0 4.4-2.5c.05-.07.09-.06.1.02.2.78.54 1.47 1.03 2.08.07.08.05.12-.06.11h-.07c-.07 0-.15 0-.22.03l-4.71 2.03c-.19.08-.2.18-.06.31l2.26 2.04c.06.06.14.07.22.02a5.28 5.28 0 0 0 2.69-4.24c.02-.19.08-.2.19-.05.32.47.84.85 1.54 1.16.62.26 1.23.4 1.86.45.08 0 .13.05.14.12.06.23.08.46.06.7l.3-.08c-.02-.2-.01-.37.03-.53a.23.23 0 0 1 .14-.16c.15-.06.38-.13.68-.19.33-.07.58-.14.73-.22.39-.19.78-.34 1.17-.47-.01-.1 0-.14.02-.15.44-.4.79-.8 1.05-1.2.04-.05.1-.09.22-.12.05-.07.06-.1.02-.08l.58-1.49c.07.07.07.03 0-.11-.07-.2-.06-.47.05-.8 0-.1 0-.2-.03-.29-.09-.3-.1-.6-.05-.91.02-.08.06-.12.14-.12l5.39-.13c.07 0 .12.03.14.1.1.32.1.68 0 1.09.03.02.04.1.03.22.03.05.04.1.04.16Zm-5.95-.74a4.34 4.34 0 0 1-.06-1.04c0-.04.03-.06.07-.05h.12l.08-.07.08-.15c.28-.5.52-.85.73-1.05a5.93 5.93 0 0 1 3.13-1.57c.18-.03.3.03.38.2l1.13 2.39c.06.11.1.1.15-.03 0-.01 0-.07-.03-.17a10.87 10.87 0 0 0-4.2-6.67 10.65 10.65 0 0 0-14.23 1.53 10.84 10.84 0 0 0-2.75 7.07c0 .2.09.3.28.32l5.42.43c.08.01.12-.03.1-.1-.1-.73-.06-1.37.14-1.93.08-.23.02-.27-.18-.13-.66.47-1.46.7-2.38.68a6.15 6.15 0 0 1-2.49-.59c-.13-.06-.19-.17-.17-.32l.46-2.9a.23.23 0 0 1 .14-.19.23.23 0 0 1 .23.02l4.39 3c.05.04.1.03.12-.03.26-.6.6-1.15 1.04-1.64.18-.2.13-.29-.13-.26-.79.1-1.58-.09-2.4-.55a5.67 5.67 0 0 1-1.84-1.69c-.07-.1-.07-.2 0-.31l1.82-2.34c.04-.05.1-.08.17-.07.07 0 .12.04.15.1l2.37 4.43c.04.07.05.14.05.21l-.02.17c0 .03.01.06.04.07.03.02.06.01.09 0 .44-.4.93-.72 1.47-.96.13-.06.3-.1.54-.13.2-.02.35-.05.45-.1.43-.18 1.12-.17 2.09.04.03 0 .05 0 .07-.03a.06.06 0 0 0 0-.07 4.47 4.47 0 0 1-.79-2.46c-.02-.85.16-1.7.55-2.55.03-.06.07-.09.14-.09l2.97.24c.1.01.18.06.23.16.05.1.05.2-.01.28l-2.81 4.49c-.05.06-.03.11.04.14l.17.09c.88.4 1.43.79 1.66 1.15l.05.05.06.02c.06.03.1.07.15.12l.05.05c.5.65.77 1.17.81 1.57 0 .02 0 .04-.03.05l-.14.08a.1.1 0 0 0-.04.04l-.5 1.06a.25.25 0 0 0 0 .24l.6 1.12c.07.14.13.13.17-.02.1-.41.12-.87.05-1.35Z" fill="#28166F"/><path d="m36.72 17.37.19.02c.09.02.12.07.1.16-.03.12-.14.22-.34.3a.1.1 0 0 1-.1-.02.1.1 0 0 1-.05-.1l.04-.24c.01-.1.07-.14.16-.12Z" fill="#F0F3FA"/><path d="M26.99 17.45c.05-.02.1-.01.14.02.04.03.07.07.06.12l-.17 5.21c0 .09-.04.15-.11.2a.23.23 0 0 1-.23.01 4.21 4.21 0 0 1-1.86-1.7 5.72 5.72 0 0 1-.8-2.4c-.02-.15.05-.26.2-.32l2.77-1.14Z" fill="#28166F"/><path d="M19.04 19.7c-.12.33-.31.56-.56.68a.84.84 0 0 1-.68.03 1 1 0 0 1-.53-.45 1 1 0 0 1-.12-.74c.08-.4.34-.65.77-.77.1-.03.19-.01.27.05l.12.1c.03.02.04.04.03.08 0 .03-.02.05-.06.05-.71.16-.94.44-.67.83.14.2.3.36.5.45.17.09.32.06.46-.07.1-.1.15-.22.15-.36 0-.09-.03-.14-.12-.16a.8.8 0 0 0-.29-.03c-.04 0-.07 0-.1-.04a.09.09 0 0 1 .02-.1l.36-.48a.11.11 0 0 1 .11-.05c.05 0 .08.03.1.07.08.2.23.38.45.57.06.05.06.11.01.17a.14.14 0 0 1-.08.05.18.18 0 0 0-.14.12ZM39.11 20.99c-.57.47-1.19.2-1.86-.83-.06-.1-.03-.14.08-.15h.12a.3.3 0 0 0 .2-.1 5.12 5.12 0 0 1 .7-.55.3.3 0 0 0 .12-.2l.03-.1c.02-.12.08-.13.16-.05.87.85 1.02 1.51.45 1.98Z" fill="#DD2219"/><path d="M38.54 20.16a.97.97 0 0 1 .1-.47c.06-.08.12-.08.2-.03.27.23.32.47.14.73a.86.86 0 0 1-.71.39.35.35 0 0 1-.32-.16c-.08-.11-.09-.22-.02-.33.09-.17.25-.19.5-.07.07.04.1.01.11-.06Z" fill="#F0F3FA"/><path d="m34.16 19.95 2.37 1.83c.04.03.06.08.06.13s-.03.1-.08.12l-4.58 2.45a.23.23 0 0 1-.23 0 .23.23 0 0 1-.12-.19c-.08-.83.1-1.65.53-2.45.4-.73.96-1.37 1.68-1.9.12-.09.25-.09.37.01Z" fill="#28166F"/><path d="M16.98 20.83a.72.72 0 0 0-.64-.18c-.1.02-.13-.02-.13-.11.02-.16.08-.3.2-.43.06-.09.12-.08.17.02.1.21.31.4.63.54l.25.13c.69.42.63.62-.18.6-.15-.01-.45.02-.91.09-.08.01-.09.04-.02.1.35.27.69.38 1 .33.1-.02.14.02.1.12-.05.16-.12.3-.2.4-.05.07-.1.07-.15.01-.38-.45-.83-.7-1.36-.77-.16-.02-.2-.1-.1-.23l.2-.3a.38.38 0 0 1 .32-.17l.76-.02c.13 0 .15-.04.06-.13ZM41.04 23.2c.01.03.03.04.07.05.03 0 .06 0 .08-.04l.06-.1c.03-.05.04-.09.03-.12l-.06-.2c-.18-.27-.12-.33.17-.19.18.1.25.25.2.46a.25.25 0 0 1-.12.17c-.19.1-.35.26-.5.47-.13.2-.22.19-.26-.06a1.5 1.5 0 0 1 .04-.58c.05-.2-.02-.28-.22-.27-.16 0-.25.05-.27.13-.03.09 0 .16.08.2a.3.3 0 0 1 .12.11c.04.07.03.13-.01.18a.48.48 0 0 1-.32.15c-.09 0-.13-.03-.13-.12l-.01-.3c0-.1-.05-.12-.13-.08l-.26.1a.27.27 0 0 0-.17.28c0 .12.07.21.19.26.2.07.4.2.56.36.06.05.05.1-.02.12-.37.16-.64.04-.8-.36-.03-.07-.09-.1-.16-.08a.79.79 0 0 1-.29.04.08.08 0 0 1-.06-.05c-.01-.03 0-.05.02-.07l.2-.15c.06-.04.08-.1.06-.18a3.8 3.8 0 0 0-.56-1.23c-.16-.23-.1-.36.18-.38.49-.04.88-.28 1.17-.7.06-.1.12-.1.17 0l.32.56c.03.04.03.08 0 .11a.1.1 0 0 1-.11.04l-.16-.04a.29.29 0 0 0-.22.03l-.7.4c-.23.14-.28.32-.16.56.07.14.22.16.46.06.51-.21.84-.4.98-.58.08-.1.14-.1.19.03l.35 1ZM14.65 23.1c-.18-.04-.23-.2-.17-.45.04-.22.18-.32.4-.3.04.01.06.04.07.09.02.07 0 .13-.06.17-.1.07-.14.16-.14.28 0 .26.06.28.18.05.3-.57.77-.67 1.41-.31.27.15.41.4.42.76 0 .36-.14.61-.43.74a.98.98 0 0 1-.97-.05c-.3-.18-.48-.46-.57-.84a.19.19 0 0 0-.14-.14Z" fill="#DD2219"/><path d="M15.7 23.73c.37.12.72.04.79-.18.06-.22-.18-.49-.54-.6-.37-.12-.72-.04-.79.18-.07.22.17.48.54.6ZM27.38 25.24c-.3-.12-.69-.2-1.15-.25-.12-.01-.16-.08-.12-.2.4-1 .92-1.52 1.56-1.52.6 0 1.17.46 1.67 1.4.03.06.02.1-.05.13-.08.02-.22.07-.43.16-.7.3-1.2.39-1.48.28ZM30.05 23.72c.52.25.91.54 1.2.84.02.03.02.06 0 .1a.08.08 0 0 1-.08.03 4.1 4.1 0 0 0-1.5 0c-.02 0-.06 0-.1-.02a.15.15 0 0 1-.07-.06 4.07 4.07 0 0 0-.9-1.2c-.03-.02-.04-.05-.02-.09.01-.03.04-.05.08-.05.41.04.88.2 1.4.45ZM25.29 24.09c.41-.3.8-.5 1.17-.6.03 0 .05 0 .07.03.02.03.02.06 0 .09-.27.34-.48.74-.63 1.19 0 .02-.02.05-.05.07a.15.15 0 0 1-.09.03c-.47 0-.91.07-1.32.22-.04.01-.06 0-.08-.02-.02-.03-.03-.06 0-.09.2-.31.5-.62.93-.92Z" fill="#F0F3FA"/><path d="M14.56 25.2c.05.18.18.32.38.41a.9.9 0 0 0 .56.08c.2-.04.34-.14.4-.3.07-.17.02-.4-.14-.69-.04-.07-.03-.12.05-.16a.15.15 0 0 1 .07-.01.1.1 0 0 1 .06.03c.17.2.26.43.27.67a.9.9 0 0 1-.18.59c-.3.4-.72.5-1.24.26a.86.86 0 0 1-.43-.45c-.09-.19-.12-.4-.09-.6a.8.8 0 0 1 .26-.52.65.65 0 0 1 .58-.13c.06 0 .08.04.07.1a.2.2 0 0 1-.02.06.14.14 0 0 1-.1.08c-.24.07-.4.19-.48.35a.32.32 0 0 0-.02.23ZM40.94 25.67c-.09.08-.07.13.05.13a.7.7 0 0 0 .58-.3c.05-.07.1-.07.16 0 .1.12.15.26.15.43.01.1-.04.14-.14.1-.21-.08-.48-.07-.82.03l-.25.08c-.78.16-.87-.02-.27-.54.1-.1.3-.33.59-.68.05-.06.03-.1-.05-.08-.44.04-.75.18-.94.43-.06.08-.11.07-.16-.02a1.4 1.4 0 0 1-.12-.43c0-.08.03-.12.1-.1.57.06 1.07-.06 1.5-.36.12-.1.2-.06.22.1l.05.35a.37.37 0 0 1-.12.34l-.53.52Z" fill="#DD2219"/><path d="M30.58 26.77c-.26-.15-.5-.59-.72-1.3-.07-.22-.11-.36-.15-.44-.03-.06 0-.1.07-.12 1.03-.2 1.74-.07 2.12.4.4.48.34 1.2-.18 2.14-.06.12-.13.13-.23.04a4.49 4.49 0 0 0-.9-.72ZM28.28 25.5c-.04-.02-.06-.06-.06-.1 0-.05.03-.08.08-.1l1.08-.29c.1-.02.15 0 .18.1l.26.95c0 .02 0 .04-.02.06a.06.06 0 0 1-.07 0l-1.45-.62ZM25.27 27.07c-.23.2-.48.49-.73.85-.08.1-.15.11-.23.01-.67-.8-.86-1.48-.57-2.02.28-.52.94-.78 1.96-.77.07 0 .1.04.08.1l-.06.44c-.07.73-.22 1.2-.45 1.39ZM27.42 25.6l-1.5.86a.06.06 0 0 1-.07 0 .06.06 0 0 1-.03-.06l.16-1.07c.02-.1.08-.14.18-.13l1.22.2c.05 0 .08.03.09.08a.1.1 0 0 1-.05.12ZM27.85 25.58c.13 0 .5.14 1.12.44.62.3.97.51 1.04.62.07.1.13.5.18 1.2a3.8 3.8 0 0 1-.02 1.2c-.06.11-.37.36-.94.75-.57.38-.93.58-1.06.59-.13 0-.5-.14-1.12-.45-.61-.3-.96-.5-1.03-.61a3.8 3.8 0 0 1-.18-1.2 3.8 3.8 0 0 1 .02-1.2c.05-.12.37-.37.94-.75s.92-.58 1.05-.59ZM30.48 26.87l.92.79c.06.04.06.1.02.15l-.79.93a.1.1 0 0 1-.12.03.1.1 0 0 1-.08-.1l-.13-1.7a.1.1 0 0 1 .06-.12.1.1 0 0 1 .12.02ZM23.24 28.3c-.03-.53 0-.97.11-1.34.01-.03.04-.05.07-.05.04 0 .06.01.07.05.15.42.39.82.7 1.18.02.02.02.05.03.09 0 .04 0 .06-.02.08-.26.41-.43.83-.52 1.27 0 .04-.03.06-.06.06-.04 0-.06 0-.08-.04a3.75 3.75 0 0 1-.3-1.3ZM25.6 27.22l.06 1.75c0 .03-.01.05-.04.06a.07.07 0 0 1-.07 0l-.88-.65c-.08-.07-.09-.14-.03-.22l.75-1c.03-.05.07-.06.12-.05a.1.1 0 0 1 .08.1Z" fill="#F0F3FA"/><path d="m15.01 29.24.1.08c.06.04.08.1.06.16l-.35 1.35c-.08.3-.15.3-.2 0-.1-.41-.08-.86.03-1.33 0-.04 0-.07-.04-.1a.08.08 0 0 0-.09 0 .33.33 0 0 0-.07.07.18.18 0 0 1-.2.06c-.57-.13-.99-.24-1.25-.34-.3-.1-.28-.17.03-.19.36-.02.78.02 1.26.11.05.01.08 0 .11-.02.06-.04.07-.08.01-.12l-.05-.05a.17.17 0 0 1-.07-.2l.36-1.38c.05-.2.1-.2.15 0 .08.37.11.7.1.98 0 .07-.02.13-.07.16l-.06.03a.1.1 0 0 0-.06.07.37.37 0 0 0 0 .16c.02.08.07.1.14.05.14-.1.27-.13.4-.08.49.16.85.25 1.1.28.38.05.38.12 0 .22-.33.08-.64.07-.94-.03a1.18 1.18 0 0 0-.35-.06c-.13 0-.15.04-.05.12ZM41.6 28.89l1.45.05c.06 0 .1.04.1.1 0 .07-.03.1-.1.11l-1.44.18c-.06 0-.09.04-.09.1l-.05 1.46c0 .06-.04.1-.1.1-.07 0-.1-.03-.12-.1l-.18-1.44c0-.06-.04-.09-.1-.1l-1.45-.04c-.07 0-.1-.04-.1-.1 0-.07.02-.11.09-.12l1.44-.18c.06 0 .1-.04.1-.1l.05-1.45c0-.07.04-.1.1-.1.07 0 .1.02.11.09l.18 1.44c.01.06.04.1.1.1Z" fill="#28166F"/><path d="M38.58 27.9c.03.03.04.1.03.23l-2.18.05c-.2 0-.3.11-.3.32v.16c.01.22.12.32.33.32l1.95-.05c.06 0 .1-.03.13-.08.07-.16.1-.35.1-.56.1.03.17.14.23.35A10.71 10.71 0 0 1 37.08 34a10.77 10.77 0 0 1-6.7 4.62 10.82 10.82 0 0 1-8.07-1.34l.2-.13c.77.45 1.61.8 2.54 1.05.7.2 1.6.37 2.7.52.17.03.25-.04.25-.2v-4.75l.3-.09c-.14.4-.16.82-.05 1.27.03.09.09.14.18.13l1.2-.02c.04 0 .06-.03.06-.07l-.02-1.2c0-.05-.03-.07-.08-.07l-1.11.02c-.05 0-.08-.02-.08-.07v-.08c0-.02.01-.03.03-.03l2.71-.07c.07 0 .1-.03.1-.1 0-.36 0-.74-.02-1.12 0-.06-.06-.11-.17-.16-.01-.1 0-.14.02-.15l1.62-.1c.08-.01.13-.06.12-.14l-.02-.87c0-.07-.03-.12-.1-.13l-.35-.08c.05-.07.06-.1.02-.08l1.87-.08c.1 0 .15-.05.14-.15l-.02-1.02c0-.09-.05-.14-.14-.13-.3 0-.64 0-1.01.02-.07 0-.16-.04-.26-.13.07.07.07.03 0-.11l2.85-.02c.13 0 .2-.07.2-.2l-.01-.42c0-.1-.06-.17-.18-.17H33c0-.1 0-.19-.03-.28l5.62.03Z" fill="#583867"/><path d="M30.75 28.9c.24-.2.48-.48.74-.84.07-.1.15-.1.22 0 .65.8.83 1.47.53 2-.28.5-.93.75-1.94.73-.07 0-.1-.04-.08-.1l.06-.43c.09-.73.24-1.18.47-1.37Z" fill="#F0F3FA"/><path d="M32.95 28.97c-.08-.2-.07-.47.04-.8h2.81c.12 0 .18.05.18.16v.41c.01.14-.06.21-.2.21l-2.83.02ZM38.6 28.13c.04.05.05.1.05.16 0 .21-.05.4-.12.56a.13.13 0 0 1-.12.08l-1.95.05c-.21 0-.32-.1-.32-.32v-.16c-.01-.2.09-.31.3-.32l2.17-.05Z" fill="#E77743"/><path d="M25.42 29.2c.26.15.5.58.7 1.29l.15.42c.02.06 0 .1-.07.12-1 .2-1.7.06-2.08-.4-.39-.48-.33-1.18.18-2.1.06-.12.14-.13.23-.04.32.31.62.55.9.7Z" fill="#F0F3FA"/><path d="m32.36 30.57.58-1.49c.1.09.19.13.25.13l1.02-.02c.09 0 .14.04.14.13l.02 1.02c0 .1-.04.15-.14.15l-1.87.08ZM37.27 29.2h-2.64a.1.1 0 0 0-.1.1v1.15c0 .06.04.1.1.1h2.64a.1.1 0 0 0 .1-.1V29.3a.1.1 0 0 0-.1-.1Z" fill="#E77743"/><path d="m37.97 30.58-.24-.06c-.08-.01-.12-.06-.12-.13l-.02-1.02c0-.11.05-.17.17-.18h.61c.08-.01.12.03.13.1.01.25-.03.57-.14.95-.08.27-.12.47-.14.62-.04.3-.08.48-.13.58-.18.34-.34.7-.47 1.06a2.3 2.3 0 0 1-.44.7l-.16.2a.24.24 0 0 1-.2.1l-2.11.04c-.1 0-.16-.04-.16-.15l-.02-1.13c0-.07.03-.1.1-.1l2.2-.06c.13 0 .2.06.2.18l.01.7c0 .05.02.06.05.04l.1-.06a.07.07 0 0 0 .03-.06.79.79 0 0 1 .2-.67c.05-.05.04-.1-.02-.15-.23-.2-.65-.28-1.24-.21-.04 0-.06-.01-.07-.05l-.02-.96c0-.05.03-.08.08-.1.16-.02.44-.04.82-.04.44 0 .77-.02.99-.07.11-.02.12-.04 0-.07Z" fill="#E77743"/><path d="m28.6 30.37 1.5-.88a.06.06 0 0 1 .07 0c.03.02.04.04.03.07l-.16 1.07c-.01.1-.07.14-.17.13l-1.23-.18c-.05 0-.08-.04-.09-.09 0-.05.01-.1.06-.12ZM26.22 29.72l1.44.74c.02.01.03.03.03.06 0 .02-.01.04-.04.05l-.91.41c-.1.04-.15.01-.2-.08l-.46-1.04a.1.1 0 0 1 .02-.12.1.1 0 0 1 .12-.02Z" fill="#F0F3FA"/><path d="m32.34 30.65.34.08c.07.01.11.06.11.13l.02.87c0 .08-.04.13-.12.14l-1.62.1c.44-.4.79-.8 1.05-1.2.03-.05.1-.09.22-.12Z" fill="#E77743"/><path d="M28.64 30.74c.3.12.67.2 1.12.25.13.01.17.08.12.2-.4.99-.91 1.48-1.53 1.48-.6 0-1.15-.46-1.64-1.38-.03-.06-.01-.1.05-.12l.42-.16c.7-.29 1.18-.38 1.46-.27Z" fill="#F0F3FA"/><path d="m33.12 32.1 1.17-.02c.02 0 .03 0 .03.03l.03 1.35c0 .01-.01.02-.03.02l-2.81.07c-.02 0-.03 0-.03-.03l-.03-1.35c0-.02 0-.02.02-.02l1.48-.04c.01 0 .02 0 .02-.02l.1-1.29c0-.02.02-.03.03-.03l2.72-.06c.01 0 .02.01.02.03l.03 1.12c0 .01 0 .02-.03.02l-2.76.07c-.03 0-.04 0-.03.03l.04.11c0 .01.01.02.03.02Z" fill="#E77743"/><path d="M30.74 31.86c-.42.3-.82.51-1.18.61-.04.01-.07 0-.09-.03-.02-.03-.01-.05 0-.08.29-.36.5-.76.64-1.22 0-.03.02-.05.05-.07.04-.03.07-.04.1-.04.47 0 .92-.07 1.34-.23.04-.01.06 0 .09.02.02.03.02.06 0 .09-.2.32-.52.63-.95.95ZM26.4 31.25c.05.02.07.04.08.07.25.48.56.89.94 1.23.02.02.03.05.02.09-.02.04-.05.05-.09.05-.42-.04-.9-.2-1.43-.45a4.16 4.16 0 0 1-1.23-.87c-.03-.03-.03-.06-.01-.1a.08.08 0 0 1 .09-.04c.5.1 1 .1 1.54 0 .02 0 .06 0 .1.02Z" fill="#F0F3FA"/><path d="M28.3 33.7c-.02-.2-.01-.38.03-.54a.23.23 0 0 1 .14-.16c.15-.06.38-.13.68-.19.33-.07.58-.14.73-.22.39-.19.78-.34 1.17-.47.11.05.17.1.17.16.02.38.03.76.02 1.12 0 .07-.03.1-.1.1l-2.7.07c-.03 0-.04 0-.04.03v.08c0 .05.03.08.08.07l1.1-.02c.06 0 .09.02.09.07l.02 1.2c0 .04-.02.06-.06.07l-1.2.02c-.1 0-.15-.04-.18-.13a2.1 2.1 0 0 1 .05-1.27Z" fill="#E77743"/><path d="M16.33 34.32c-.15.21-.24.35-.27.43-.08.16-.03.2.12.12l1.29-.67c.14-.08.26-.04.34.1l.05.1c.05.1.02.18-.1.24l-2.17 1.17a.18.18 0 0 1-.2 0c-.2-.14-.23-.36-.11-.66.07-.18.24-.45.5-.81a12.7 12.7 0 0 0 .44-.67c.07-.17.03-.2-.13-.12l-1.28.66c-.15.08-.26.05-.34-.1l-.05-.1c-.05-.1-.02-.18.1-.24l2.17-1.17a.17.17 0 0 1 .2.01c.2.14.23.35.1.66a4.52 4.52 0 0 1-.66 1.05ZM41.4 34.14c.01.55-.17.94-.54 1.17-.32.2-.7.23-1.15.1a1.65 1.65 0 0 1-.98-.7 1.28 1.28 0 0 1-.07-1.27 1.3 1.3 0 0 1 1.08-.83c.36-.04.42.09.2.4a.58.58 0 0 1-.34.21c-.36.1-.56.28-.59.54-.02.23.08.46.3.7.22.24.47.4.74.45.3.07.55-.01.73-.23a.8.8 0 0 0 .15-.76c-.1-.37-.23-.38-.39-.05-.01.03-.07.1-.18.22-.06.07-.13.08-.2.02-.15-.13-.17-.28-.08-.45l.38-.66c.06-.09.14-.1.23-.05l1.04.65c.06.04.08.1.04.16-.03.05-.12.12-.27.2-.06.04-.1.1-.1.18Z" fill="#DD2219"/><path d="M22.71 37.13a.14.14 0 0 1-.1-.1c-.02-.05-.01-.1.02-.14l3.23-4.07c.05-.06.12-.1.2-.09.1.01.15.05.2.13.4.73.56 1.55.48 2.46a5.73 5.73 0 0 1-.78 2.4c-.08.13-.2.18-.35.14l-2.9-.73Z" fill="#28166F"/><path d="M35.45 33.75h-2.52a.1.1 0 0 0-.11.1v1.13c0 .06.05.11.11.11h2.52a.1.1 0 0 0 .1-.1v-1.14a.1.1 0 0 0-.1-.1ZM35.98 35.08a.1.1 0 0 1-.11.03c-.04-.01-.07-.04-.07-.09l-.04-1.12c0-.1.04-.14.14-.15l.97-.03c.03 0 .05.01.06.03.01.03.01.05 0 .07l-.95 1.26ZM32.49 33.75h-2.46a.11.11 0 0 0-.11.1v1.12c0 .06.05.1.1.1l2.47.01c.06 0 .1-.05.1-.1l.01-1.12a.11.11 0 0 0-.11-.11ZM30.86 35.3h-2.25a.15.15 0 0 0-.15.15v.91c0 .08.07.15.15.15h2.25c.08 0 .15-.07.15-.15v-.92a.15.15 0 0 0-.15-.14ZM33.62 35.3h-2.27a.12.12 0 0 0-.12.13v.96c0 .07.06.12.12.12h2.28c.06 0 .12-.06.12-.13v-.96a.12.12 0 0 0-.13-.12ZM34.77 36.25c-.27.24-.5.32-.7.25a.14.14 0 0 1-.1-.14l-.02-.88c0-.1.04-.16.15-.16l1.42-.03c.12 0 .14.04.07.13-.19.23-.46.51-.82.83Z" fill="#E77743"/><path d="M38.07 36.79c.25.06.42.1.5.1.17.01.2-.04.06-.16l-1.07-.97c-.12-.1-.13-.22-.02-.35l.08-.09c.07-.08.15-.08.25.01l1.86 1.63c.05.05.07.11.05.18-.05.24-.24.35-.56.34a4.49 4.49 0 0 1-1.23-.26c-.25-.06-.41-.1-.5-.1-.17-.02-.19.04-.06.15l1.08.97c.12.11.12.23.01.36l-.07.09c-.07.08-.16.07-.26-.01l-1.85-1.64a.17.17 0 0 1-.06-.18c.06-.23.25-.34.57-.33a4.49 4.49 0 0 1 1.22.26ZM20.02 36.97a.5.5 0 0 0 .14-.14c.07-.1.15-.1.24-.04l.07.04c.05.04.07.1.05.16-.1.26-.32.36-.66.32a.27.27 0 0 0-.21.06l-.4.36c-.45.46-.79.72-.99.78-.64.2-1.13-.08-1.47-.84-.15-.35-.09-.67.19-.95.4-.4.84-.81 1.31-1.22.12-.1.23-.09.33.02l.1.09c.1.1.1.2 0 .3l-1.25 1.2c-.23.22-.24.46-.01.71l.01.02c.23.25.47.27.72.04l1.25-1.14c.07-.07.14-.07.2-.02.07.05.13.12.18.2.05.08.11.1.2.05Z" fill="#DD2219"/><path d="M29.59 36.77h-1.02a.08.08 0 0 0-.08.07v1.1c0 .04.03.07.07.07h1.02c.04 0 .08-.03.08-.07v-1.1a.08.08 0 0 0-.07-.07ZM33.18 36.75l.6-.02c.03 0 .05.02.07.05 0 .03 0 .06-.02.08-.25.23-.5.39-.74.47-.07.02-.1 0-.1-.08l.07-.4c.01-.07.05-.1.12-.1ZM29.92 37.89l-.02-.95c0-.1.04-.14.14-.15l2.62-.06c.1 0 .16.05.16.16l.01.46c0 .08-.03.14-.1.18-.8.45-1.71.6-2.72.45-.06 0-.09-.04-.09-.1Z" fill="#E77743"/><path d="M21.79 38.18c-.03 0-.05 0-.06-.03v-.03c-.06-.2.04-.33.28-.4h.06c.25-.07.4 0 .45.2v.03c.01.02 0 .04-.03.05l-.7.18ZM35.98 40.68c-.34.18-.69.2-1.06.07a1.52 1.52 0 0 1-.86-.75c-.2-.37-.24-.75-.14-1.13.1-.39.32-.67.65-.85.34-.17.69-.2 1.07-.06.37.13.65.38.85.75.2.37.24.75.14 1.13-.1.38-.32.67-.65.84Z" fill="#DD2219"/><path d="M22.4 38.91c.07-.07.1-.14.12-.23.06-.3.18-.34.37-.1.03.04.03.13-.02.24-.04.11-.17.23-.4.35l-.06.04a.2.2 0 0 0-.11.18 1.62 1.62 0 0 1-.9 1.47c-.6.32-1.14.21-1.63-.32-.48-.52-.45-1.15.07-1.88.47-.64 1.08-.77 1.84-.38.1.05.23.18.38.4l.18.23c.06.06.1.06.16 0Z" fill="#DD2219"/><path d="M28.43 38.33c0-.04.01-.06.05-.06h.05c1.17-.11 1.76-.1 1.77.03v.03c.01.13-.56.25-1.73.35h-.05c-.04.01-.06 0-.06-.05l-.03-.3Z" fill="#E77743"/><path d="M34.6 39.76c.29.48.82.69 1.2.46.37-.22.44-.8.15-1.27-.29-.48-.83-.7-1.2-.47-.37.23-.44.8-.15 1.28ZM20.18 39.16c-.28.49-.2 1.06.18 1.28.38.21.91-.02 1.19-.5.28-.5.2-1.08-.17-1.3-.38-.2-.91.02-1.2.52Z" fill="#F0F3FA"/><path d="M32.98 40.72c.18.2.35.54.5.98.05.13 0 .23-.12.28l-.1.05c-.15.06-.24.02-.3-.12l-.33-.77c-.05-.11-.13-.15-.24-.1l-.72.24c-.06.03-.08.07-.06.13l.24.69c.05.14 0 .25-.14.3l-.07.04c-.13.06-.22.02-.27-.11l-.74-2.11c-.1-.3 0-.48.3-.55l1.28-.28c.35-.08.6.05.75.38.12.28.12.52 0 .74-.04.08-.03.15.02.21ZM24.23 42a.6.6 0 0 0 .65-.19c.14-.15.29-.2.44-.13l.08.04c.1.05.12.11.05.2-.36.54-.78.73-1.28.6-.48-.14-.79-.4-.93-.79-.13-.37-.1-.8.1-1.3.13-.29.32-.51.57-.67a1.24 1.24 0 0 1 1.47.11c.22.2.36.45.43.77.02.08-.01.13-.08.16a.3.3 0 0 1-.35-.06c-.04-.03-.1-.12-.18-.25-.16-.26-.31-.4-.45-.44a.65.65 0 0 0-.6.18 1.3 1.3 0 0 0-.37.61c-.07.26-.07.5 0 .71.07.24.22.39.45.45Z" fill="#DD2219"/><path d="M31.27 40.25c-.02-.1.01-.15.1-.18l.54-.15a.64.64 0 0 1 .38 0c.11.03.18.1.21.2l.02.07c.03.1 0 .19-.07.28a.63.63 0 0 1-.33.2l-.53.16c-.1.02-.15 0-.18-.1l-.14-.48Z" fill="#F0F3FA"/><path d="M28.95 42.89c-.22.02-.33-.14-.34-.47 0-.15-.06-.74-.17-1.77-.01-.1-.06-.13-.16-.11l-.52.11c-.1.03-.15-.01-.18-.1a.73.73 0 0 1-.02-.29c.01-.08.06-.12.14-.13a31.97 31.97 0 0 0 1.97-.18c.08 0 .13.02.16.1a.7.7 0 0 1 .03.28c0 .1-.05.14-.15.14l-.54-.01c-.1 0-.14.04-.13.14.08 1.03.13 1.62.16 1.76.05.33-.03.5-.25.53Z" fill="#DD2219"/></svg>