<!-- by TradingView --><svg width="56" height="56" viewBox="0 0 56 56" xmlns="http://www.w3.org/2000/svg"><path fill="#F0F3FA" d="M0 0h56v56H0z"/><path d="M28 24.3v-8.27l-3.84 5.72L28 24.3Zm0 1.2-4.4-2.92-2.75 4.11L28 31.45V25.5Zm0 7.15-7.7-5.13-2.86 4.26L28 38.8v-6.15Zm0 7.36-11.12-7.4L15 35.4l6.31 5.93L28 42.5v-2.5Z" fill="#ED1B24"/><path d="M29 24.3v-8.27l3.69 5.72L29 24.3Zm0 1.2 4.22-2.92 2.65 4.11L29 31.45V25.5Zm0 7.15 7.41-5.13 2.74 4.26L29 38.8v-6.15Zm0 7.36 10.69-7.4 1.81 2.8-6.07 5.93L29 42.5v-2.5Z" fill="#0064B2"/><path d="M19 12c-4.82 3.1-8 8.48-8 14.6C11 36.22 18.84 44 28.5 44a17.45 17.45 0 0 0 17.4-19.33l-.32-.15a16.4 16.4 0 0 1-16.43 17.15 16.4 16.4 0 0 1-16.44-16.35 16.3 16.3 0 0 1 6.66-13.14l-.38-.18Z" fill="#ED1B24"/></svg>