<!-- by TradingView --><svg width="56" height="56" fill="none" xmlns="http://www.w3.org/2000/svg"><path fill="#F0F3FA" d="M0 0h56v56H0z"/><path fill-rule="evenodd" clip-rule="evenodd" d="M17.693 18.46c2.966-.908 6.397-1.437 10.056-1.46v1.003a9.95 9.95 0 0 0-5.502 1.817c-2.005-.4-3.58-.937-4.554-1.36Zm10.768-1.458v1.008a9.948 9.948 0 0 1 5.284 1.804 27.413 27.413 0 0 0 4.604-1.34c-2.92-.9-6.29-1.43-9.888-1.472Zm-6.235 19.164a9.95 9.95 0 0 0 5.523 1.83V39c-3.669-.023-7.108-.554-10.08-1.468.97-.423 2.546-.962 4.557-1.366Zm6.235 1.824v1.008c3.608-.042 6.988-.575 9.913-1.479-1.122-.448-2.712-.962-4.608-1.347a9.948 9.948 0 0 1-5.305 1.818Zm10.922-.803c4.085-1.435 7.157-3.62 8.522-6.187H37.542a10.01 10.01 0 0 1-3.056 4.612c2.124.473 3.833 1.092 4.897 1.575Zm-17.877-1.582A10.01 10.01 0 0 1 18.458 31H8.095c1.378 2.59 4.495 4.793 8.64 6.227l-.013-.02c.822-.435 2.504-1.097 4.784-1.602ZM47.905 25H37.542a10.01 10.01 0 0 0-3.074-4.626c2.118-.471 3.824-1.086 4.892-1.568 4.097 1.434 7.178 3.623 8.545 6.194Zm-26.381-4.62c-2.288-.505-3.975-1.168-4.8-1.604C12.585 20.21 9.472 22.411 8.095 25h10.363a10.01 10.01 0 0 1 3.066-4.62Zm6.548 14.512c2.246 0 4.342.277 6.153.664-.26.195-.532.377-.812.547a28.663 28.663 0 0 0-5.341-.515c-2.034 0-3.891.21-5.492.51-.281-.17-.552-.353-.813-.548a30.572 30.572 0 0 1 6.305-.658Zm.016-14.474c-2.043 0-3.908-.21-5.513-.514-.28.17-.551.354-.812.549 1.796.382 3.945.662 6.325.662 2.243 0 4.338-.277 6.148-.663-.26-.195-.531-.378-.811-.548a28.664 28.664 0 0 1-5.337.514Z" fill="#76BE43"/><path fill-rule="evenodd" clip-rule="evenodd" d="M13 30v-4h1v4h-1Zm-3 0v-3.004H9v-.975h3v.975h-1V30h-1Zm5-4v4h3v-1h-2v-.672h1.796v-.776H16V27h2v-1h-3Zm4 4v-4h1.156L22 28.426V26h1v4h-1.174L20 27.546V30h-1Zm20.156-4H38v4h1v-2.454L40.826 30H42v-4h-1v2.426L39.156 26ZM25 26v4h1v-1h.871c.624 0 1.129-.8 1.129-1.498S27.495 26 26.871 26H25Zm1 1v1h.553c.247 0 .447-.224.447-.5s-.2-.5-.447-.5H26Zm3-1v4h1v-1.5h1V30h1v-4h-1v1.5h-1V26h-1Zm8 2a2 2 0 1 1-4 0 2 2 0 0 1 4 0Zm-1 0c0 .673-.448 1.22-1 1.22s-1-.547-1-1.22c0-.673.448-1.22 1-1.22s1 .547 1 1.22Zm9.736 1.87a2.03 2.03 0 0 1-.718.13A2.01 2.01 0 0 1 43 28c0-1.105.904-2 2.018-2 1.14 0 1.659.403 1.877 1.003l-1.057.315c-.178-.342-.487-.568-.838-.568-.552 0-1 .56-1 1.25s.448 1.25 1 1.25c.294 0 .558-.159.741-.41l.087-.249H45v-.899h2v1.629c-.413.271-.902.449-1.264.549ZM22.998 34l.275-2h.715c.122 0 .226.055.31.112a.472.472 0 0 1 .181.24.761.761 0 0 1 .026.363.873.873 0 0 1-.13.364.688.688 0 0 1-.598.316h-.245l-.084.605h-.45Zm.747-1.015h-.155l.074-.536h.159c.053 0 .096.01.13.032.034.02.059.051.073.091.014.04.018.087.01.143a.359.359 0 0 1-.05.144.266.266 0 0 1-.24.126ZM24.492 34l.275-2h.45l-.214 1.547h.67L25.61 34h-1.119Zm1.245 0h.485l.157-.4h.536l.044.4h.486l-.272-1.973h-.614L25.737 34Zm1.133-.795-.072-.642h-.013l-.252.642h.337Zm1.75-.57c.004-.063-.009-.112-.04-.147-.03-.036-.082-.054-.155-.054a.31.31 0 0 0-.116.019.17.17 0 0 0-.072.052.166.166 0 0 0-.031.077.129.129 0 0 0 0 .063.12.12 0 0 0 .033.05.244.244 0 0 0 .066.04c.027.013.06.024.098.033l.129.034a.791.791 0 0 1 .222.09.429.429 0 0 1 .21.301.64.64 0 0 1 .001.206.7.7 0 0 1-.127.325.63.63 0 0 1-.26.203.923.923 0 0 1-.37.07.81.81 0 0 1-.365-.076.454.454 0 0 1-.216-.232.762.762 0 0 1-.033-.4h.427a.3.3 0 0 0 .016.15c.018.04.045.072.084.092.038.021.086.032.143.032a.33.33 0 0 0 .124-.021.197.197 0 0 0 .082-.058.17.17 0 0 0 .036-.085.118.118 0 0 0-.013-.078.172.172 0 0 0-.07-.061.629.629 0 0 0-.14-.05l-.158-.043a.6.6 0 0 1-.319-.188c-.072-.087-.097-.207-.076-.36a.688.688 0 0 1 .397-.541.822.822 0 0 1 .36-.078c.133 0 .245.026.335.079.09.053.156.126.195.221.04.095.05.207.032.335h-.43Zm.665-.635-.061.453h.497L29.508 34h.443l.213-1.547h.498l.062-.453h-1.44Zm2.057 0-.275 2h-.449l.275-2h.45Zm1.204.757h.45a.912.912 0 0 0-.03-.323.567.567 0 0 0-.348-.384.792.792 0 0 0-.292-.05.803.803 0 0 0-.405.11.924.924 0 0 0-.325.324 1.378 1.378 0 0 0-.178.536c-.03.22-.02.407.03.56.05.154.132.27.244.35.112.08.246.12.401.12a.747.747 0 0 0 .32-.066.841.841 0 0 0 .248-.174.993.993 0 0 0 .263-.49h-.452a.406.406 0 0 1-.05.111.33.33 0 0 1-.179.14.388.388 0 0 1-.124.019.242.242 0 0 1-.165-.056.293.293 0 0 1-.085-.17.931.931 0 0 1 .001-.284c.018-.117.047-.219.088-.304a.514.514 0 0 1 .154-.197.343.343 0 0 1 .211-.069c.041 0 .076.007.106.021.03.014.054.034.072.06a.247.247 0 0 1 .039.094c.007.036.01.077.006.122Z" fill="#ED1C24"/></svg>