<!-- by TradingView --><svg width="56" height="56" viewBox="0 0 56 56" xmlns="http://www.w3.org/2000/svg"><path fill="#F0F3FA" d="M0 0h56v56H0z"/><path d="M33.64 19.2c-1.08.62-1.84 2.08-2.3 4.37a87.4 87.4 0 0 0-.95 5.86c-.2 1.52-.52 2.97-.99 4.34a4.75 4.75 0 0 1-2.2 2.88c-.37.2-.9.3-1.57.33-.85.03-1.78.03-2.77 0-.35-.01-.36-.08-.03-.2.83-.3 1.5-1.17 2-2.58.3-.83.55-1.96.77-3.4.44-2.89.71-4.66.82-5.3.19-1.18.38-2.1.57-2.75.28-.98.67-1.82 1.15-2.5.38-.52.82-.87 1.33-1.03.32-.1.84-.17 1.56-.18l.7-.02c.68-.04 1.3 0 1.9.11.06.01.06.03 0 .07Z" fill="#AB2327"/><path d="M28.29 36.77c1.32-.4 2.25-2.3 2.78-5.73l.77-5.16c.23-1.57.5-2.8.8-3.69.53-1.5 1.24-2.48 2.14-2.93.33-.16.85-.25 1.55-.26 1.01 0 1.96 0 2.83.02.31 0 .32.07.03.17-.47.17-.9.56-1.32 1.17-.36.54-.61 1.1-.75 1.7-.34 1.4-.6 2.83-.79 4.27a95.68 95.68 0 0 1-.54 3.75 19.8 19.8 0 0 1-1.04 4.37c-.7 1.65-1.7 2.49-3.03 2.53-1.2.03-2.33.03-3.4-.01-.41-.02-.42-.08-.03-.2Z" fill="#AB2327"/><path d="M21.28 23.59c.02-.09-.02-.13-.1-.12-1.06.04-1.67.61-1.83 1.7-.33 2.2-.6 4.06-.85 5.59-.5 3.16-1.48 5.12-2.94 5.87-.38.2-.91.3-1.6.34-.93.05-1.83.04-2.7-.02-.34-.02-.35-.1-.03-.21.86-.32 1.55-1.3 2.07-2.92.28-.9.54-2.18.77-3.8.27-1.91.53-3.6.78-5.06.28-1.7.65-2.98 1.1-3.85.7-1.42 1.72-2.12 3.02-2.11l9.28.01c.1 0 .1.03.02.07-.69.37-1.24 1-1.67 1.89-.29.61-.55 1.45-.78 2.5-.25 1.16-.62 3.44-1.1 6.84a14.83 14.83 0 0 1-1.3 4.5 3.61 3.61 0 0 1-3.46 2.17c-1.2.01-2.08 0-2.64-.03-.22-.01-.23-.07-.03-.16.82-.37 1.46-1.13 1.92-2.28.3-.73.55-1.76.77-3.08l.47-3.04c.37-2.38.65-3.98.83-4.8ZM41.5 26a3.5 3.5 0 1 0 0-7 3.5 3.5 0 0 0 0 7Z" fill="#22396B"/></svg>