<!-- by TradingView --><svg width="56" height="56" viewBox="0 0 56 56" xmlns="http://www.w3.org/2000/svg"><path fill="#F0F3FA" d="M0 0h56v56H0z"/><path d="M38.74 13c.95.15 1.73.64 2.33 1.5.53.75.84 1.63.93 2.64V38.9c-.1.9-.38 1.72-.85 2.47A3.22 3.22 0 0 1 38.6 43H17.41a3.31 3.31 0 0 1-2.55-1.6 5.31 5.31 0 0 1-.86-2.96V17.22c.08-1.03.38-1.92.9-2.67A3.51 3.51 0 0 1 17.22 13h21.52Z" fill="#D1291C"/><path d="M40.21 41.5c-.58.37-1.04.62-1.38.75-.43.18-.89.26-1.35.25-2.2-.05-4.9-.06-8.06-.04l-11.05-.01a6 6 0 0 1-1.46-.12c-.35-.1-.68-.3-.99-.6a7.51 7.51 0 0 1-.72-.87l-.31-.42a4.37 4.37 0 0 1-.38-1.66V18.45c0-.94.04-1.6.13-1.98.3-1.3.98-2.22 2.04-2.74.28-.14.75-.2 1.4-.2l1.71-.01c6.02-.03 12.03-.03 18.04 0 .7 0 1.18.07 1.47.19.54.23 1 .62 1.38 1.16.34.5.58 1.05.71 1.68.08.33.11.94.11 1.82v19.64c0 1.28-.43 2.45-1.29 3.49Z" fill="#7CBEDE"/><path d="m21.4 17.09 1.8-.95c.13-.03.34-.1.62-.21l.38-.14c.95-.3 1.81-.49 2.58-.56.27-.03.86-.03 1.78 0 2.98.06 5.57 1.09 7.77 3.07.13.12.29.29.47.5a9.6 9.6 0 0 1 1.32 1.84 8.5 8.5 0 0 1-.28 8.9c-.51.8-1.11 1.5-1.8 2.1a11.3 11.3 0 0 1-2.69 1.71 12.78 12.78 0 0 1-3.17 1.02c-.13.05-.24.06-.33.02a.13.13 0 0 0-.14.02.14.14 0 0 1-.13.03.62.62 0 0 0-.28.03 12.75 12.75 0 0 1-8.22-2.13 9.58 9.58 0 0 1-3.53-4.36 8.59 8.59 0 0 1 1.72-9.06c.64-.7 1.35-1.3 2.14-1.83Z" fill="#F9EC32"/><path d="M38.88 24.82c0 1.23-.27 2.42-.81 3.56a9.25 9.25 0 0 1-2.33 3.02 10.95 10.95 0 0 1-3.5 2.03 12.18 12.18 0 0 1-8.25.01 10.93 10.93 0 0 1-3.5-2.01 9.26 9.26 0 0 1-2.35-3.02 8.13 8.13 0 0 1-.01-7.12 9.25 9.25 0 0 1 2.33-3.02 10.95 10.95 0 0 1 3.5-2.03 12.18 12.18 0 0 1 8.25-.01c1.32.47 2.49 1.14 3.5 2a9.26 9.26 0 0 1 2.35 3.02c.55 1.14.82 2.33.82 3.57Z" fill="#D1291C"/><path d="M29.62 15.92c-.04-.01-.05-.04-.03-.1.01-.05.05-.07.1-.04a.4.4 0 0 1 .04.02c.03.02.04.05.02.1l-.02.04.01.03c.12.06.21.15.28.26 0 .02.02.03.04.03s.03-.01.04-.03a.1.1 0 0 0 .01-.05c0-.04.01-.07.05-.08.05-.02.09 0 .13.03.04.03.04.07.01.11-.11.15-.19.27-.21.36-.05.18-.14.3-.26.36-.13.07-.28.06-.44-.03-.16-.08-.24-.22-.25-.41 0-.2.07-.34.2-.44a.22.22 0 0 1 .13-.04c.06 0 .12-.02.16-.04.04-.03.04-.06-.01-.08ZM27.7 16.43c-.04.03-.04.07 0 .1l.22.28c.03.04.02.06-.03.06h-.1a.12.12 0 0 1-.12-.05c-.07-.1-.14-.18-.2-.23-.15-.16-.22-.13-.2.1l.01.15c0 .05-.01.07-.05.07l-.08.01c-.04 0-.06-.01-.06-.05l-.08-.8c0-.06.02-.1.08-.1l.53-.05c.04 0 .07.01.1.04.15.17.14.32-.02.47ZM28.84 16.21l-.02.38c0 .1-.04.16-.1.22a.32.32 0 0 1-.23.1h-.14c-.21 0-.32-.11-.32-.33v-.55c0-.06.03-.1.1-.1h.04c.05 0 .07.03.07.07v.6c0 .1.05.14.15.14h.09c.09 0 .13-.04.13-.12v-.6c0-.03.02-.05.05-.05h.39c.04 0 .06.02.06.06v.17c0 .04-.02.07-.07.07-.03 0-.07-.02-.12-.08-.05-.07-.08-.06-.08.02ZM26.6 17h-.04c-.03 0-.05 0-.05-.04l-.14-.65c0-.05-.04-.07-.08-.07h-.16c-.03.01-.05 0-.06-.02l-.01-.04c0-.03.02-.06.08-.08l.31-.06c.2-.02.3-.04.33-.03.05 0 .09.02.1.05v.04c-.01.03-.03.04-.06.05l-.15.04c-.04 0-.06.04-.06.09l.06.66c0 .03-.01.05-.04.06h-.03Z" fill="#fff"/><path d="M27.43 16.33c.12-.01.2-.07.2-.12 0-.06-.1-.1-.22-.09-.1.01-.2.07-.2.12.01.06.11.1.22.09Z" fill="#D1291C"/><path d="m23.2 16.14-1.8.95a3.4 3.4 0 0 1 1.8-.95Z" fill="#A6AFB2"/><path d="M24.63 16.37c-.02.01-.05.01-.07 0a.07.07 0 0 1-.05-.04c0-.03 0-.05.02-.07.07-.08.17-.1.28-.06.06.03.07.06.01.1a2.94 2.94 0 0 0-.19.07ZM25.45 16.2h-.01a.1.1 0 0 0-.08.11l.17.77a.1.1 0 0 0 .12.08.1.1 0 0 0 .09-.12l-.17-.77a.1.1 0 0 0-.12-.08Z" fill="#fff"/><path d="M29.36 16.45c-.04.18.05.34.2.37.15.03.3-.09.34-.27.03-.17-.06-.34-.21-.37-.15-.03-.3.1-.33.27Z" fill="#D1291C"/><path d="M30.84 16.76c.02.1.05.09.07 0l.12-.43c.01-.03.04-.05.08-.04h.04c.04 0 .06.03.05.07l-.16.68c-.07.3-.17.3-.28.02l-.14-.38c-.04-.1-.07-.09-.1 0l-.1.37c0 .04-.03.06-.08.05h-.05c-.03-.01-.05-.03-.04-.06l.16-.69c.07-.29.16-.3.29-.02l.14.43ZM25.08 17.32a.46.46 0 0 1-.37.01.51.51 0 0 1-.3-.26.5.5 0 0 1-.02-.38.45.45 0 0 1 .24-.28.46.46 0 0 1 .37-.02c.13.05.22.14.29.26a.5.5 0 0 1 .03.39.45.45 0 0 1-.24.28ZM31.61 17.3c.09.03.17.03.26 0 .05-.01.06-.04.02-.08a2.28 2.28 0 0 1-.14-.14c-.03-.06 0-.1.1-.09.07 0 .15.02.23.06a.1.1 0 0 1 .05.11c-.02.27-.16.38-.41.34-.22-.04-.36-.14-.42-.3a.5.5 0 0 1 .04-.44.5.5 0 0 1 .35-.27c.17-.04.33.03.48.2.04.05.05.1.02.15l-.03.04c-.02.04-.05.04-.08.01l-.16-.16a.23.23 0 0 0-.22-.06.23.23 0 0 0-.17.14.56.56 0 0 0-.05.33.2.2 0 0 0 .13.15Z" fill="#fff"/><path d="M24.6 16.95c.05.17.2.27.35.23.15-.04.22-.22.17-.4-.06-.16-.22-.27-.36-.23-.15.05-.22.22-.17.4Z" fill="#D1291C"/><path d="M23.63 17.32c-.01-.03-.03-.03-.05 0l-.03.05v.01c.08.12.12.24.13.38 0 .05-.02.07-.07.07a.1.1 0 0 1-.04 0 6.17 6.17 0 0 1-.37-.8c-.02-.05 0-.09.04-.11.12-.08.23-.05.33.09.08.11.14.18.17.2.05.04.07.02.06-.04l-.03-.34c0-.06.02-.11.08-.15l.06-.03c.08-.05.13-.03.17.05l.31.73c.02.04.01.08-.04.1l-.06.03c-.03 0-.04 0-.06-.03l-.19-.43c0-.02-.02-.02-.03-.01l-.05.02c-.02.01-.02.02-.01.03.1.16.13.33.08.5a.1.1 0 0 1-.1.07.1.1 0 0 1-.1-.05l-.2-.34ZM32.84 16.98c.03-.06.07-.07.13-.04l.27.13c.1.06.17.14.21.25.04.1.03.2-.02.3l-.07.14a.39.39 0 0 1-.25.2.43.43 0 0 1-.32-.03l-.26-.14c-.06-.03-.08-.07-.05-.13l.36-.68Z" fill="#fff"/><path d="M36.87 24.63c0 .99-.22 1.94-.66 2.86a7.45 7.45 0 0 1-1.9 2.44 8.92 8.92 0 0 1-2.83 1.63 9.98 9.98 0 0 1-6.72.02 8.91 8.91 0 0 1-2.85-1.61 7.44 7.44 0 0 1-1.9-2.42 6.48 6.48 0 0 1-.03-5.73 7.45 7.45 0 0 1 1.9-2.43 8.91 8.91 0 0 1 2.84-1.63 9.98 9.98 0 0 1 6.7-.02c1.08.37 2.03.91 2.86 1.6.82.7 1.46 1.51 1.9 2.43.46.91.68 1.87.69 2.86Z" fill="#709BCE"/><path d="M33.22 17.6c-.07.15-.16.22-.28.22a.17.17 0 0 1-.15-.08c-.06-.1-.07-.16-.01-.2a.14.14 0 0 1 .12-.01c.06.02.1 0 .1-.03.03-.04.01-.07-.04-.1a.14.14 0 0 1-.06-.1c0-.07.05-.1.17-.12.05 0 .1.02.14.07.08.09.09.2.01.35Z" fill="#D1291C"/><path d="M22.4 17.92c-.08-.03-.1-.02-.05.05l.21.34c.03.04.02.08-.02.1l-.04.02c-.03.02-.06.02-.08-.01l-.35-.54c-.2-.34-.12-.41.23-.22.06.04.17.08.33.14.06.02.08 0 .04-.05l-.22-.36c-.02-.05-.01-.08.03-.1l.06-.02c.03-.02.05-.01.07.02l.44.71c.02.04.02.08-.02.1-.06.06-.14.06-.23 0a8.64 8.64 0 0 0-.4-.18ZM34.36 17.44l.05.05c.03.03.03.07 0 .1-.03.08-.03.16 0 .27.07.2 0 .4-.18.54-.2.15-.38.16-.58.02-.2-.14-.25-.32-.17-.55.09-.22.25-.34.47-.34.11 0 .2-.03.25-.1.03-.02.06-.03.1-.01l.06.02Z" fill="#fff"/><path d="M33.7 17.87c-.1.15-.08.35.04.43.13.09.32.03.43-.12.1-.16.08-.35-.04-.44-.13-.08-.32-.03-.43.13Z" fill="#D1291C"/><path d="M21.18 19.02c-.06-.05-.12-.05-.17 0l-.11.12c-.06.05-.06.1.01.15.1.06.15.1.15.14.03.22-.03.26-.2.1l-.51-.51c-.04-.04-.04-.08 0-.12l.04-.04c.03-.03.05-.03.08 0l.17.16c.02.02.05.03.08.02a.5.5 0 0 0 .22-.18c.02-.02.02-.04 0-.06l-.17-.17c-.04-.04-.04-.07 0-.11l.04-.04c.03-.03.07-.03.1 0l.52.52c.11.1.15.09.1-.06l-.22-.77a.25.25 0 0 0-.07-.11l-.09-.1c-.04-.03-.04-.07.01-.1.04-.03.09-.03.14 0 .47.3.8.48.98.58.05.03.05.06.01.1l-.03.02a.09.09 0 0 1-.1.02c-.15-.07-.28-.05-.38.06a.18.18 0 0 0-.05.12v.12c-.01.05-.03.08-.06.11l-.21.21c-.04.04-.07.04-.1 0l-.18-.18ZM35.31 18.45l.23.21c.03.05.04.08.02.1l-.03.03c-.02.02-.05.01-.07 0l-.12-.1c-.04-.02-.07-.02-.1.02l-.48.46c-.02.02-.04.02-.06 0a.17.17 0 0 1-.06-.05v-.06l.42-.5c.03-.04.02-.08 0-.11l-.1-.11c-.03-.02-.03-.05-.02-.07 0-.01 0-.02.02-.03.02-.02.06-.02.1 0 .03.01.11.08.25.2Z" fill="#fff"/><path d="M21.76 18.38c.02.03.02.06 0 .09a.11.11 0 0 1-.06.04c-.04.02-.08 0-.11-.05a.3.3 0 0 1-.04-.12c0-.06.02-.08.08-.06.04.02.09.05.13.1Z" fill="#D1291C"/><path d="m35.74 19.33.1.1c.03.02.07.02.1-.02l.17-.16c.03-.03.06-.03.09 0l.02.03c.04.03.04.06 0 .1l-.59.58c-.03.03-.06.03-.1 0l-.05-.05c-.03-.03-.03-.07 0-.1l.2-.19c.03-.02.03-.05 0-.1a.93.93 0 0 0-.14-.15c-.04-.03-.08-.04-.1-.02l-.21.18c-.04.04-.07.03-.1 0l-.04-.06c-.03-.03-.03-.07 0-.1l.65-.52c.04-.03.07-.02.1.01l.02.03c.03.03.03.06 0 .09l-.18.14c-.04.03-.05.07-.02.11a.7.7 0 0 0 .08.1ZM20.32 19.96l.18.14c.03.02.03.05 0 .07l-.03.04c-.04.05-.08.05-.13.01l-.61-.5c-.04-.03-.05-.06-.02-.1.1-.16.2-.26.28-.32.12-.08.25-.09.39 0 .07.03.1.1.12.17.02.08 0 .15-.05.2l-.14.17c-.04.05-.03.08 0 .12Z" fill="#fff"/><path d="M20.23 19.66a.83.83 0 0 1-.06.1c-.05.03-.09.03-.12 0-.08-.09-.1-.17-.05-.25.06-.08.14-.1.24-.06.05.02.07.06.05.11l-.06.1Z" fill="#D1291C"/><path d="m36.43 19.58-.93.7a.04.04 0 0 0 0 .04l.05.08c.01.02.03.02.05 0l.93-.69a.04.04 0 0 0 0-.05l-.05-.08a.04.04 0 0 0-.05 0Z" fill="#fff"/><path d="m28.15 21.5-.98.66c-.03.02-.03.04 0 .07l.35.24c.18.38.1.72-.24 1.02-.46.42-.98.8-1.56 1.14-.44.25-1.01.54-1.73.86-.2.1-.22.07-.04-.07l1.52-1.3c.4-.35.67-.68.8-.98-.04-.17-.09-.27-.16-.32-.2-.1-.52 0-.97.3l-.06.05a14.75 14.75 0 0 1-3.96 1.3v-.01l.01-.02c.72-.3 1.42-.63 2.1-1 .1-.06.15-.1.16-.14.03-.14-.03-.2-.18-.2a12.9 12.9 0 0 1-3.35-.15v-.01l.01-.01 2.99-.22a6.4 6.4 0 0 0 1.38-.26c.67-.2 1.02-.45 1.05-.74.06-.6-.2-.9-.8-.93h-.24c-.82-.04-1.43-.03-1.86.03-.28.03-.29 0-.02-.1a8.21 8.21 0 0 1 2.73-.57c.74-.02 1.15.28 1.24.9.02.08.06.1.14.08l1.04-.3c.07-.01.12.01.14.08l.05.18c.01.05.04.06.09.04a.27.27 0 0 0 .09-.1.11.11 0 0 1 .11-.05c.15.02.24.09.3.2.02.05.02.09 0 .12l-.15.21Z" fill="#373434"/><path d="m36.6 20.6-.35.2c-.04.02-.07.01-.1-.03l-.02-.04c-.02-.03-.01-.05.02-.07.25-.17.44-.28.55-.34.35-.19.42-.11.21.23-.04.06-.08.17-.14.32-.03.06-.01.08.05.05l.36-.21c.05-.03.08-.02.1.03l.03.05c.01.03 0 .06-.03.07l-.73.42c-.04.02-.07.02-.1-.02-.06-.06-.06-.14 0-.22l.2-.4c.04-.07.02-.08-.05-.05ZM19.15 20.4c.3-.13.55-.08.74.14.14.17.15.35.02.53-.13.19-.3.25-.51.2-.35-.1-.5-.36-.44-.77 0-.05.03-.08.08-.08l.06-.01.05-.02Z" fill="#fff"/><path d="M19.36 21.04c.17.08.35.03.42-.1.06-.13-.02-.3-.18-.38-.17-.07-.35-.03-.42.1-.06.13.02.3.18.38Z" fill="#D1291C"/><path d="M37.13 21.62a.47.47 0 0 0-.05-.1c-.04-.04-.07-.05-.1-.03l-.28.11c-.03.01-.05 0-.07-.03l-.02-.04c-.02-.05 0-.09.04-.1l.78-.35c.04-.01.06 0 .08.04l.02.03c.02.06 0 .1-.05.12l-.2.09c-.04.01-.06.05-.05.1l.04.1.05.1c.03.04.06.05.1.03l.2-.08c.07-.03.1-.01.13.05l.01.03c.02.04 0 .07-.03.08l-.78.33c-.05.02-.09 0-.1-.04l-.03-.05c-.01-.03 0-.05.03-.07l.27-.12c.04-.01.05-.05.04-.1a.61.61 0 0 0-.03-.1ZM19.34 21.76a.5.5 0 0 0-.07-.24c-.02-.03 0-.06.03-.07l.05-.02c.04-.02.06 0 .09.02.08.1.1.22.07.33a.45.45 0 0 1-.26.3.52.52 0 0 1-.37.02.51.51 0 0 1-.3-.22.43.43 0 0 1-.03-.38c.06-.19.18-.27.35-.25.13.02.14.07.03.14l-.18.1a.17.17 0 0 0-.08.14c0 .05.02.1.06.14.18.17.36.21.54.1a.12.12 0 0 0 .07-.11ZM28.15 21.5l-.63.97-.35-.24c-.03-.03-.03-.05 0-.07l.98-.66ZM37.25 22.46a.13.13 0 0 0-.12-.07c-.1 0-.15-.03-.17-.1-.02-.06 0-.1.07-.1l.87.07c.05 0 .09.03.1.08.02.05.01.1-.03.13l-.7.6c-.01.02-.04.02-.06 0l-.05-.06c-.02-.03-.02-.06.01-.1.16-.11.19-.27.08-.45ZM18.37 22.9c.04 0 .06-.03.06-.06 0-.04 0-.07-.04-.09-.15-.09-.22-.19-.19-.3.01-.03.04-.05.07-.05.03 0 .06 0 .07.04.16.27.38.42.67.46.05 0 .07.04.06.09v.05c-.02.04-.04.05-.08.04-.3-.09-.58-.05-.85.1-.05.02-.06.06-.04.11.03.1.04.19.03.27 0 .07.03.1.1.1h.62c.05 0 .07.02.07.07v.08c0 .06-.03.09-.1.08l-.66-.09c-.06 0-.09.02-.09.08v.11c0 .04-.02.06-.06.06h-.07c-.05 0-.07-.02-.06-.07l.16-.9c.01-.06.04-.1.1-.1l.23-.08Z" fill="#fff"/><path d="M37.58 22.41h.06c.06-.01.08.01.05.07-.02.04-.08.08-.17.1-.03.01-.05.01-.07 0a.11.11 0 0 1-.04-.1c0-.05.04-.07.09-.07h.08Z" fill="#D1291C"/><path d="M26.27 23.14c-.43.08-.82.1-1.19.03l.07-.04c.44-.32.76-.42.96-.3.07.04.13.14.16.3Z" fill="#fff"/><path d="m34.73 24.16-.92.63c-.03.02-.03.04 0 .07l.3.24c.14.27.16.5.05.72-.07.14-.24.32-.5.54-.94.76-1.97 1.35-3.1 1.77-.14.06-.15.04-.03-.06.71-.56 1.37-1.13 1.97-1.7.2-.2.32-.39.36-.58.01-.14-.02-.24-.11-.31-.1-.07-.2-.09-.33-.05-.25.09-.5.21-.73.39-1.2.6-2.5 1.02-3.86 1.3-.15.02-.16 0-.02-.05l1.42-.66c.28-.13.48-.24.6-.32.31-.25.27-.36-.14-.33-.96.07-1.94.04-2.92-.1-.39-.06-.38-.1 0-.12l.96-.05c.98-.04 1.69-.1 2.13-.17a5.5 5.5 0 0 0 1.85-.6c.15-.09.22-.26.22-.5a.88.88 0 0 0-.19-.56c-.22-.27-1.1-.35-2.6-.23l-.18.01c-.2.02-.2-.01-.02-.08a9.47 9.47 0 0 1 2.24-.55 2.7 2.7 0 0 1 1.14.04c.37.13.6.4.65.84.01.07.05.1.12.08l1.06-.3c.06-.02.1 0 .12.06l.05.18c.02.05.05.06.1.04.04-.02.1-.06.13-.11.06-.07.12-.08.18-.01l.18.18c.05.04.05.08 0 .12a.75.75 0 0 0-.18.23Z" fill="#373434"/><path d="M37.31 23.75v-.04c0-.02.02-.04.05-.05l.67-.14c.05 0 .07-.04.07-.09v-.15c-.01-.03 0-.05.03-.07h.03c.04 0 .07.02.09.07l.06.32.04.33c0 .05-.03.09-.06.1h-.04c-.03 0-.04-.03-.05-.06l-.04-.15c-.01-.04-.04-.06-.1-.06l-.68.06c-.03 0-.05 0-.06-.03v-.04ZM34.73 24.16c-.13.35-.34.67-.61.94l-.31-.24c-.03-.03-.03-.05 0-.07l.92-.63ZM37.62 24.38h-.14c-.05 0-.07-.01-.09-.05v-.05c-.03-.06 0-.1.07-.1h.84c.06 0 .09.03.09.09v.44c0 .15-.08.23-.23.24-.12.01-.2-.02-.24-.1-.02-.05-.06-.06-.1-.04-.13.05-.21.1-.26.16-.03.03-.03.06.02.09l.72.4c.03.03.05.06.06.1 0 .04 0 .07-.03.1a.34.34 0 0 1-.2.09c-.3.05-.53.12-.7.2-.06.02-.09 0-.08-.06 0-.1.07-.17.18-.2.05-.01.07-.04.07-.1v-.15c0-.05-.02-.1-.06-.13-.13-.1-.16-.26-.1-.47a.17.17 0 0 1 .08-.1c.1-.05.16-.1.2-.13.18-.15.15-.23-.1-.23Z" fill="#fff"/><path d="M37.98 24.54c0 .12.06.2.12.21.07 0 .12-.1.13-.2 0-.12-.06-.21-.12-.21-.07 0-.12.09-.13.2Z" fill="#D1291C"/><path d="M18.67 25.03a.37.37 0 0 0-.06-.24c-.04-.05-.07-.05-.1 0l-.09.18c-.05.05-.08.03-.11-.06a.5.5 0 0 1-.01-.24c0-.05.04-.08.08-.09.27-.06.42.03.46.29.03.22-.02.38-.16.49a.53.53 0 0 1-.44.1c-.17-.04-.3-.12-.37-.25-.08-.15-.06-.32.05-.52.03-.05.08-.07.13-.06l.06.02c.04 0 .05.03.03.07l-.1.2a.22.22 0 0 0 0 .22c.05.07.11.11.2.12.14 0 .25 0 .32-.05a.2.2 0 0 0 .11-.18ZM32.86 25.79l-1.17.03c.23-.18.48-.3.73-.39.13-.04.24-.02.33.05.09.07.13.17.1.3Z" fill="#fff"/><path d="M37.88 25.43c.12.03.18.06.17.08-.01.06-.05.1-.11.1a.16.16 0 0 1-.16-.04c-.03-.04-.03-.07 0-.1a.1.1 0 0 1 .1-.04Z" fill="#D1291C"/><path d="M18.43 25.91c.06-.05.05-.07-.02-.06l-.4.06c-.05 0-.08-.01-.08-.06v-.04c-.01-.04 0-.06.03-.06.3-.06.5-.1.63-.11.4-.05.43.04.12.28l-.25.25c-.05.05-.04.07.03.06l.4-.06c.06-.01.09.01.1.06v.06c0 .03-.02.05-.05.05l-.83.13c-.05 0-.08-.02-.1-.06-.02-.08.01-.15.1-.2l.32-.3ZM37.66 26.62c-.08.02-.08.05 0 .07l.39.1c.05 0 .06.04.05.08l-.01.05c0 .03-.03.04-.06.03l-.63-.13c-.38-.11-.38-.22 0-.32.08-.01.19-.06.34-.12.06-.03.06-.05 0-.07l-.41-.1c-.05-.02-.07-.05-.05-.1l.02-.05c.01-.03.03-.04.06-.03l.82.2c.04.02.06.05.06.1 0 .07-.06.13-.16.15l-.42.14ZM18.2 27.34a.22.22 0 0 1-.07.03c-.03 0-.06-.01-.07-.05l-.04-.07a.1.1 0 0 1 .02-.13c.07-.07.13-.16.18-.25a.6.6 0 0 1 .57-.33c.25 0 .4.14.43.4.03.23-.07.4-.3.47a.64.64 0 0 1-.6-.06.1.1 0 0 0-.12-.01Z" fill="#fff"/><path d="M18.78 27.25c.18-.04.3-.2.27-.33-.04-.14-.22-.22-.4-.18-.18.05-.3.2-.27.34.04.14.22.22.4.17Z" fill="#D1291C"/><path d="M37.08 27.3a.37.37 0 0 0-.04.24c.01.06.04.07.09.04l.15-.12c.07-.03.1 0 .08.1a.5.5 0 0 1-.1.22.1.1 0 0 1-.1.04c-.27-.05-.37-.2-.3-.44.07-.21.18-.34.35-.38.15-.04.3 0 .44.09.15.1.22.22.23.37.02.17-.07.32-.26.45-.05.03-.1.03-.14 0l-.05-.03c-.03-.03-.03-.05 0-.08l.18-.14c.07-.05.1-.12.09-.2a.22.22 0 0 0-.13-.2.58.58 0 0 0-.31-.08.2.2 0 0 0-.18.11ZM18.82 28.04c0 .05.04.08.08.1.2.08.37.02.53-.19.03-.04.04-.09.02-.14a.16.16 0 0 0-.1-.12l-.18-.08c-.12-.05-.12-.1 0-.13.17-.05.3.01.4.18.06.13.07.26.01.39a.5.5 0 0 1-.25.25.52.52 0 0 1-.37.04.46.46 0 0 1-.3-.25c-.05-.1-.05-.22.02-.34.01-.03.04-.05.08-.04l.05.02c.04 0 .05.03.04.06a.49.49 0 0 0-.03.25ZM23.46 28.81a6.31 6.31 0 0 1-.62.09V28.84c.8-.23 1.62-.3 2.44-.2l1.16.3a4.93 4.93 0 0 0 2.67 0 9.8 9.8 0 0 1 2.15-.28c.72 0 1.42.16 2.1.46.03 0 .04.02.02.04l-.03.04h-.02a5.4 5.4 0 0 0-3.09-.4c-.28.05-.87.17-1.76.37-.28.06-.8.06-1.53-.02l-.9-.24a5.33 5.33 0 0 0-2.6-.1ZM27.55 29.82c.32.1.88 0 1.69-.26l.28-.1c.35-.1.69-.15 1.03-.15a6.2 6.2 0 0 1 1.32.18v.04c0 .02-.02.02-.04.02a5.42 5.42 0 0 0-1.56-.14c-.28.02-.67.1-1.16.27-.39.12-.69.2-.9.23a2.4 2.4 0 0 1-1.02-.09l-1.31-.37a3.87 3.87 0 0 0-1.4.08c-.01 0-.02 0-.02-.02l-.01-.04a3.37 3.37 0 0 1 1.45-.11l1.65.46Z" fill="#fff"/><path d="M28.4 30.5c.21-.06.6-.2 1.15-.42.41-.16.86-.18 1.34-.06.01 0 .02.01.01.02l-.02.04c0 .02-.01.03-.02.02a2.14 2.14 0 0 0-1.01 0 7.27 7.27 0 0 0-1.3.44c-.26.1-.54.12-.85.06a5.7 5.7 0 0 1-1.18-.41c-.4-.16-.82-.21-1.24-.17-.02 0-.03 0-.03-.03v-.05a3.25 3.25 0 0 1 1.67.3c.33.13.57.22.73.26.26.06.51.06.76 0ZM21.59 31.1l.27-.36c.02-.03.05-.04.09-.02l.04.03c.04.02.04.05.02.08l-.4.6c-.19.26-.28.23-.28-.09v-.41c0-.1-.03-.11-.09-.03l-.23.31c-.02.04-.06.05-.1.02l-.04-.02c-.03-.02-.04-.04-.02-.07l.4-.6c.17-.26.27-.23.29.08 0 .08 0 .23-.03.47 0 .09.02.1.08.02ZM34.47 30.92c-.07.2.01.37.24.51.05.03.1.04.15.02.06-.02.1-.05.11-.1l.08-.2c.04-.13.09-.13.14 0 .06.16 0 .3-.17.4a.45.45 0 0 1-.4.05.53.53 0 0 1-.28-.24.51.51 0 0 1-.08-.37c.03-.14.11-.25.25-.33.1-.06.22-.06.35 0 .04 0 .05.03.05.07l-.01.06c-.01.04-.03.05-.07.04a.52.52 0 0 0-.25 0 .13.13 0 0 0-.11.09ZM22.3 31.42l.1.06c.05.01.08 0 .1-.04l.12-.2c.03-.05.07-.06.13-.03l.03.02c.04.02.05.05.03.09l-.44.75c-.03.05-.07.06-.12.03l-.05-.02c-.03-.02-.03-.05-.02-.08l.15-.26c.02-.04.01-.08-.02-.11a.68.68 0 0 0-.1-.07.56.56 0 0 0-.1-.05c-.05 0-.1 0-.11.04l-.16.26c-.02.03-.04.04-.07.02l-.05-.02c-.05-.03-.06-.07-.03-.12l.43-.76c.02-.04.05-.05.09-.02l.03.02c.06.03.07.07.04.12l-.11.2c-.03.04-.02.08.02.1a.9.9 0 0 0 .1.07ZM33.64 31.43a.07.07 0 0 0 .01.09c.02.02.05.03.08.03l.37-.08c.05 0 .1 0 .13.03.19.13.22.28.1.43-.18.25-.4.29-.66.1-.03-.02-.03-.04 0-.06l.05-.03a.12.12 0 0 1 .12 0c.08.04.16.04.25 0a.16.16 0 0 0 .1-.1.13.13 0 0 0-.02-.12c-.02-.04-.06-.06-.11-.04l-.25.06c-.13.04-.23 0-.3-.08-.08-.1-.08-.2-.02-.3.12-.2.29-.28.5-.22.06.02.09.06.08.12v.05c0 .06-.03.08-.08.05-.16-.08-.28-.06-.35.07Z" fill="#fff"/><path d="M22.81 40.2a12.82 12.82 0 0 1-4.74-3.6 14.21 14.21 0 0 1-2.74-5.3c0-.03 0-.04.02-.04h.66c.03 0 .05.02.05.04a13.57 13.57 0 0 0 2.91 5.39 12.84 12.84 0 0 0 13.38 3.43 11.72 11.72 0 0 0 6.37-5.2c.6-1.04 1.04-2.24 1.33-3.59.02-.07.06-.1.14-.1h.48c.09 0 .12.04.1.12-.55 2.63-1.7 4.8-3.42 6.53a12.04 12.04 0 0 1-6.57 3.32c-2.71.48-5.37.15-7.97-1Z" fill="#027ABF"/><path d="M33.25 32.32a.1.1 0 0 0 .1-.04.1.1 0 0 0 0-.1l-.26-.61c-.02-.05-.01-.08.03-.1l.05-.01c.04-.02.07 0 .09.03l.23.52c.07.14.08.26.03.35-.05.1-.15.16-.3.17-.13 0-.2-.05-.24-.17 0-.06.01-.08.07-.07l.2.03ZM22.74 32.21c-.07.07-.14.09-.2.06-.07-.03-.07-.07-.03-.12l.64-.62a.12.12 0 0 1 .14-.03c.05.02.08.06.08.12v.94c0 .03-.02.04-.05.04h-.08c-.04 0-.06-.02-.06-.06.01-.21-.1-.33-.31-.37-.05-.01-.1 0-.13.04Z" fill="#fff"/><path d="M39.05 31.83c-.1.02-.2.1-.28.23-.08.14-.15.24-.2.3a21.7 21.7 0 0 1-4.34 3.28c-1.3.78-2.36 1.42-3.16 1.92a14.2 14.2 0 0 0-2.96 2.3c-.04.03-.08.1-.12.2-.05-.03-.1-.02-.13 0 .02-.07 0-.13-.03-.18a11.5 11.5 0 0 0-3.81-3.15l-3.13-1.64A11.56 11.56 0 0 1 18 32.93a3.76 3.76 0 0 1-.8-1.15l.76.32c.65.28 1.14.48 1.47.6 1.61.53 2.78.92 3.5 1.18.82.29 1.48.57 1.97.83.62.34 1.18.75 1.66 1.23.46.46.8 1 1.02 1.63.19.53.3 1.17.36 1.93.01.2.05.2.12.02l.36-1.05a6.33 6.33 0 0 1 1.49-2.63 7.2 7.2 0 0 1 2.58-1.64c1.15-.45 2.53-.97 4.15-1.55A24.4 24.4 0 0 0 39 31.62c.05-.02.08-.01.1.03.02.04 0 .1-.05.18Z" fill="#5BB538"/><path d="M17.21 31.78c.17.4.44.78.8 1.15.87.89 1.83 1.6 2.88 2.16l3.13 1.64c1.52.8 2.8 1.85 3.8 3.15.04.05.05.1.04.18-1.55-.1-3.03-.45-4.43-1.03a10.62 10.62 0 0 1-6.4-7.26c-.01-.05 0-.07.05-.07.1 0 .15.03.13.08Z" fill="#019240"/><path d="M23.16 31.78c.03-.02.04-.01.05.02.02.1 0 .19-.03.25-.03.05-.07.06-.12.04l-.05-.03c-.04-.03-.05-.06-.02-.1.04-.06.1-.12.17-.18Z" fill="#D1291C"/><path d="M39.05 31.83a15.06 15.06 0 0 1-2.7 4.73 9.62 9.62 0 0 1-8.36 3.5c.04-.1.08-.17.12-.2l.76-.7c.47-.45 1.2-.98 2.2-1.6.8-.5 1.85-1.14 3.16-1.92a21.7 21.7 0 0 0 4.33-3.29c.06-.05.12-.15.2-.29.09-.13.18-.2.29-.23Z" fill="#019240"/><path d="M24.77 32.25c0-.02 0-.04-.04-.04h-.3c-.03 0-.04.01-.05.03l-.23.64c-.01.04-.04.05-.08.04h-.04c-.05-.02-.07-.06-.05-.11l.21-.63c.02-.03 0-.06-.04-.08a.44.44 0 0 1-.14-.07c-.1-.17-.06-.22.13-.14.4.16.75.28 1.06.35.16.04.26.12.3.23.05.12 0 .22-.15.32-.09.05-.12.12-.09.2l.09.24c.03.1.08.1.14.01l.45-.78c.03-.05.07-.07.13-.06.06 0 .09.04.1.1l.2.97c0 .04 0 .05-.04.05l-.1-.02c-.04 0-.07-.04-.07-.08-.02-.17-.13-.24-.34-.21-.05 0-.1.02-.13.06a.31.31 0 0 1-.32.08.37.37 0 0 1-.26-.24l-.08-.21c-.03-.08-.07-.12-.13-.11-.06 0-.1.04-.11.1l-.04.21c0 .04-.02.05-.06.05l-.07-.02c-.05 0-.07-.03-.05-.08l.2-.8ZM32.24 32.35l-.1-.36c-.02-.05 0-.08.05-.1l.04-.02.04.01c.12.3.2.55.27.78.07.25 0 .3-.22.15l-.37-.31c-.07-.06-.1-.05-.07.04l.12.42c.01.04 0 .07-.04.08l-.05.01c-.05.02-.07 0-.09-.04l-.2-.69c-.01-.06-.05-.08-.1-.05l-.5.2c-.04.02-.05.06-.04.1l.03.06a.1.1 0 0 0 .1.03l.33-.1c.02 0 .04.01.05.04l.02.04c.02.05 0 .08-.05.1l-.3.08c-.07.02-.1.07-.08.13l.03.09c.01.05.05.07.1.06l.4-.11c.02-.01.04 0 .05.02l.04.08c0 .02 0 .04-.03.05l-.52.15c-.1.03-.18-.01-.21-.12l-.19-.65c-.03-.1.01-.16.12-.2l.8-.22c.04-.01.08 0 .11.02l.35.3c.12.1.15.08.11-.07Z" fill="#fff"/><path d="M25.06 32.67c.11.03.22-.01.24-.09.02-.07-.05-.16-.16-.2-.12-.02-.22.01-.25.09-.02.08.06.17.17.2Z" fill="#D1291C"/><path d="m30.55 33.04.25.26c.04.03.03.06-.02.07l-.1.01c-.04.02-.09 0-.12-.04-.09-.1-.16-.17-.23-.22-.18-.14-.25-.1-.2.12l.03.17c.01.04 0 .06-.05.07l-.08.02c-.03 0-.05 0-.06-.04l-.17-.82c-.01-.06.01-.1.07-.1l.53-.11c.04-.01.08 0 .1.03.18.15.19.3.04.48-.03.03-.03.07 0 .1ZM26.83 33.08c-.04-.07-.06-.07-.07.01l-.05.4c0 .06-.03.08-.08.07h-.05c-.03 0-.05-.03-.05-.06l.06-.65c.06-.4.17-.41.33-.03.02.06.08.17.17.3.04.07.06.06.07 0l.05-.43c0-.05.04-.07.1-.06l.05.01c.03.01.05.03.04.06l-.1.86c0 .04-.03.07-.08.07-.09 0-.15-.05-.18-.15l-.21-.4ZM29.38 33.6c-.21.03-.35-.05-.42-.23-.04-.1-.06-.3-.06-.58v-.11c0-.03.01-.05.04-.06H29c.06-.02.1 0 .1.07.02.3.04.52.08.63.02.1.09.14.19.13.1-.01.15-.07.16-.17 0-.11-.01-.33-.06-.63 0-.06.02-.1.08-.1h.05c.03 0 .05.02.06.05 0 .02 0 .06.02.11.06.27.08.46.06.58-.03.19-.15.3-.35.32Z" fill="#fff"/><path d="M30.26 32.88c.12-.03.19-.11.17-.19-.02-.07-.13-.1-.24-.08-.11.03-.19.12-.17.2.02.07.13.1.24.07Z" fill="#D1291C"/><path d="M27.92 33.5c.1 0 .18-.01.26-.06.05-.03.05-.06 0-.1l-.18-.1c-.05-.05-.03-.09.07-.11a.53.53 0 0 1 .25 0 .1.1 0 0 1 .09.09c.05.27-.06.42-.32.45-.24.02-.4-.04-.51-.18a.52.52 0 0 1-.08-.46.5.5 0 0 1 .27-.36c.16-.08.34-.06.55.07.05.04.06.08.05.14l-.02.05c0 .05-.03.06-.07.04l-.2-.12a.24.24 0 0 0-.24 0 .23.23 0 0 0-.14.19c-.01.14 0 .26.04.33.04.08.1.12.18.12Z" fill="#fff"/><path d="m26.05 32.8.03.17c0 .04-.01.07-.05.08l-.08.01c-.07.02-.1 0-.09-.07 0-.07.04-.14.1-.2a.05.05 0 0 1 .05-.03c.02.01.03.02.04.05Z" fill="#D1291C"/></svg>