<!-- by TradingView --><svg width="56" height="56" fill="none" xmlns="http://www.w3.org/2000/svg"><path fill="#F0F3FA" d="M0 0h56v56H0z"/><ellipse cx="28" cy="38.665" rx="17" ry="3.335" fill="#0C2A46"/><ellipse cx="28" cy="38.25" rx="17" ry="3.335" fill="url(#a)"/><path d="m15.135 38.665-.335-2.462c2.696-.684 4.79-1.288 13.158-1.288 8.042 0 10.303.724 13.041 1.154l-.441 2.596H15.135Z" fill="url(#b)"/><rect x="14" y="38" width="27" height="1" rx=".5" fill="#fff"/><path d="M17.465 18.015c-1.305 2.258-1.498 5.05-1.431 6.162l.902 3.368 2.82 2.594 5.74 1.29 2.79-3.067-4.552-4.543-6.269-5.804Z" fill="url(#c)"/><path d="M22.837 29.987c-5.25-.322-6.736-4.689-6.823-6.831C15.67 31.611 21.793 36 28.634 36c5.472 0 8.882-4.103 9.902-6.154.343-.954.596-3.273-1.127-4.917-1.723-1.644-4.019-1.196-4.951-.766-1.53.846-3.663 3.446-3.824 3.446-1.804 2.273-4.616 2.532-5.797 2.378Z" fill="url(#d)"/><path d="M39.986 24.604c.148 1.857-.924 4.296-1.479 5.283l-3.092-3.08-2.94-2.405-4.605-4.678-.235-.235 1.966-2.22 7.848.622 2.235 4.223.302 2.49Z" fill="url(#e)"/><path d="M33.153 18.013c5.249.322 6.736 4.689 6.823 6.831C40.319 16.387 34.196 12 27.356 12c-5.473 0-8.882 4.103-9.903 6.154-.342.954-.595 3.273 1.128 4.917 1.722 1.644 4.018 1.196 4.95.766 1.53-.846 3.664-3.446 3.825-3.446 1.803-2.273 4.616-2.532 5.797-2.378Z" fill="url(#f)"/><defs><linearGradient id="a" x1="28" y1="34.915" x2="28" y2="41.585" gradientUnits="userSpaceOnUse"><stop stop-color="#203A70"/><stop offset="1" stop-color="#11559F"/></linearGradient><linearGradient id="b" x1="15.805" y1="37.52" x2="40.474" y2="37.52" gradientUnits="userSpaceOnUse"><stop stop-color="#6B6E97"/><stop offset=".52" stop-color="#F4F3F7"/><stop offset="1" stop-color="#6E729A"/></linearGradient><linearGradient id="c" x1="16.997" y1="20.633" x2="25.789" y2="30.079" gradientUnits="userSpaceOnUse"><stop stop-color="#0061B4"/><stop offset="1" stop-color="#0B1D58"/></linearGradient><linearGradient id="d" x1="21.35" y1="35.508" x2="35.901" y2="23.409" gradientUnits="userSpaceOnUse"><stop offset=".415" stop-color="#0061AF"/><stop offset="1" stop-color="#022662"/></linearGradient><linearGradient id="e" x1="29.505" y1="17.861" x2="41.92" y2="27.086" gradientUnits="userSpaceOnUse"><stop stop-color="#700E10"/><stop offset=".529" stop-color="#E52429"/></linearGradient><linearGradient id="f" x1="24.345" y1="24.567" x2="28.607" y2="12.003" gradientUnits="userSpaceOnUse"><stop stop-color="#730506"/><stop offset="1" stop-color="#EC2024"/></linearGradient></defs></svg>