<!-- by TradingView --><svg width="56" height="56" fill="none" xmlns="http://www.w3.org/2000/svg"><path fill="#F0F3FA" d="M0 0h56v56H0z"/><path fill-rule="evenodd" clip-rule="evenodd" d="m19.334 17.498 1.367 1.041 1.268-1.153h5.9l1.353 1.153 1.376-1.056L25 13l-5.668 4.498Zm4.056-1.346h3.166l-1.59-1.265-1.576 1.265Zm-5.308 2.365 6.886 5.707 6.869-5.707-1.092-.926-5.777 4.552-5.76-4.552-1.126.926ZM18 25.575v-6.858l1.534 1.185 3.88 6.945v-3.712l1.417 1.187v6.673l-1.417-1.197-4.004-7.033v3.94L18 25.575Zm14-.17L25.037 31v-6.614L32 18.68v6.724Zm-1.481-3.711-4.037 3.122v3.167l4.037-3.237v-3.052Z" fill="#A0C043"/><path fill-rule="evenodd" clip-rule="evenodd" d="M23.702 16h2.546l-1.29-1-1.256 1Zm-2.511 2.99-.392-.348 1.207-1.091h5.807l1.288 1.091-.352.349-.696-.542H21.79l-.6.541Zm2.148 7.395-3.48-6.178 2.659 2.148.82 1.41v2.62Zm3.292 1.323v-1.316l2.641-2.154v-1.414l1.13-.855v2.721l-3.771 3.018Z" fill="#60A040"/><path fill-rule="evenodd" clip-rule="evenodd" d="M9 27h-.976v-6h1.502L14 26.497V21h1v6h-1.526L9 21.67V27Zm25.306-6h-1l2.944 6h1.296l2.91-6h-.978l-2.536 5.47L34.306 21Zm7.18 6h-1.03l3.036-6h1.336l3.002 6h-1.008l-.718-1.5h-3.872l-.745 1.5Zm2.72-5.47 1.66 3.47H42.48l1.725-3.47ZM8.002 29.3V29h14.117l.117.3H8.002Zm39.935 0V29H27.75l-.208.3h20.394Z" fill="#004441"/><path fill-rule="evenodd" clip-rule="evenodd" d="M40.959 32v5.986h4.552c2.001 0 2.493-1.696 2.489-2.544v-1.136c0-1.887-1.66-2.314-2.489-2.306H40.96Zm1.044 1v4h3.233c1.42 0 1.77-.832 1.767-1.396v-1.277c0-1.255-1.178-1.332-1.767-1.327h-3.233ZM8 32h1v5.38h4V38H8v-6Zm10.01 6h-1.031l3.035-6h1.337l3.002 6h-1.008l-.718-1.5h-3.872l-.746 1.5Zm2.718-5.47 1.66 3.47h-3.385l1.725-3.47ZM29 38h1v-5.33L34.399 38H36v-6h-1v5.497L30.43 32H29v6Z" fill="#C86100"/></svg>