<!-- by TradingView --><svg width="56" height="56" viewBox="0 0 56 56" xmlns="http://www.w3.org/2000/svg"><path fill="#F7F5EF" d="M0 0h56v56H0z"/><path d="m27.98 15 .13.05c.04.01.07.04.08.06a5.46 5.46 0 0 0 1.87 1.82c.15.08.15.18.02.3-.06.06-.2.11-.42.17a.76.76 0 0 0-.37.23l-1.14 1.31c-.05.06-.08.1-.1.1h-.11c-.02 0-.05-.04-.1-.1l-1.15-1.3a.76.76 0 0 0-.37-.23 1.15 1.15 0 0 1-.43-.17c-.12-.12-.12-.22.02-.3.82-.5 1.44-1.11 1.86-1.83a.17.17 0 0 1 .09-.06l.12-.05ZM27.93 25.31c.04.08.1.1.18.1.09-.01.14-.06.16-.14.53-2.16 1.48-3.75 2.86-4.77 1.63-1.2 3.4-1.12 5.33.26.07.05.1.12.08.2a.2.2 0 0 1-.17.16.77.77 0 0 1-.44-.04c-2.25-.82-4.2.7-5.82 4.55a434.4 434.4 0 0 1-1.75 4.13c-.94 2.11-2.2 3.79-3.76 5.03-.2.17-.25.37-.13.61.4.79.87 1.45 1.41 2 .71.73 1.4 1.09 2.1 1.08.7-.01 1.32-.26 1.86-.74a9.92 9.92 0 0 0 1.48-1.9c.26-.39.55-.42.88-.09l.17.16c.15.15.16.32.02.49-1.09 1.29-2.02 2.06-2.8 2.32-2.59.85-4.8-.25-6.67-3.31a51.58 51.58 0 0 1-2.94-5.9 17.4 17.4 0 0 0-2.79-4.56c-1.13-1.3-2.5-1.6-4.1-.95-.1.05-.19.01-.23-.1-.03-.08-.01-.15.06-.2 1.57-1.31 3.1-1.65 4.58-1.02 1.3.56 2.37 1.74 3.2 3.56.93 2 1.9 4.5 2.94 7.5.04.11.12.18.25.2.12.01.21-.02.29-.12.68-.9 1.3-1.86 1.83-2.88.76-1.46 1.03-2.5.8-3.11-1.08-2.81-2.2-4.81-3.38-6-.92-.93-2.15-1.17-3.7-.72-.16.05-.23-.01-.2-.19.04-.15.14-.29.31-.4a4.64 4.64 0 0 1 3.34-.73c1.09.2 2.03.8 2.83 1.8.36.47.8 1.27 1.3 2.42.27.61.48 1.05.62 1.3Z" fill="#C2A779"/><path d="m32.4 33.6.1-.32c.64-2 1.58-4.42 2.83-7.25a7.85 7.85 0 0 1 2.01-2.72 3.64 3.64 0 0 1 2.78-.86c1.08.07 2 .45 2.75 1.13.57.52.5.63-.23.33-1.48-.61-2.81-.2-4 1.22a16 16 0 0 0-2.3 3.67c-.77 1.72-1.7 3.66-2.76 5.81-.12.24-.08.45.12.63.4.36.95.41 1.63.14a7.12 7.12 0 0 0 2.77-2.07c.5-.59 1.2-1.6 2.08-3.05.4-.65.7-1.15.92-1.48.82-1.26 1.89-2 3.2-2.22 1.38-.22 2.6.2 3.65 1.27.05.05.06.1.04.16a.17.17 0 0 1-.08.11h-.03a3.63 3.63 0 0 0-3.04-.11c-.73.32-1.5.98-2.3 1.98-1.33 1.65-2.2 2.7-2.63 3.17a8.75 8.75 0 0 1-3.12 2.32c-1.32.56-2.57.6-3.77.14a8.4 8.4 0 0 1-4.38-3.9 1.25 1.25 0 0 1-.09-1.06c.12-.31.24-.57.4-.77.27-.4.49-.36.64.09.43 1.25 1.15 2.5 2.16 3.78.1.12.22.17.37.13a.34.34 0 0 0 .28-.27ZM20.5 35.32c.24.1.66.13 1.27.1l.28-.02c.13 0 .2.06.22.18l.01.11c.01.1-.02.15-.09.17-1.02.3-2.22.08-3.58-.67a8.75 8.75 0 0 1-2.84-2.4 30.07 30.07 0 0 0-3.62-4.17c-1.15-1.03-2.46-1.21-3.93-.56-.21.1-.27.03-.18-.17a.82.82 0 0 1 .24-.31c1.3-1 2.6-1.3 3.88-.9 1.15.36 2.17 1.24 3.06 2.65l.58.93a27.77 27.77 0 0 0 2.04 2.97 7.45 7.45 0 0 0 2.67 2.1Z" fill="#C2A779"/></svg>