<!-- by TradingView --><svg width="56" height="56" viewBox="0 0 56 56" xmlns="http://www.w3.org/2000/svg"><path fill="#F0F3FA" d="M0 0h56v56H0z"/><path d="M43 42h-9.94c.06-2.7-.32-5.27-1.14-7.7a10.4 10.4 0 0 0-3.1-4.7 9.57 9.57 0 0 0-5.16-2.22 9.02 9.02 0 0 0-7.4 2.16 6.8 6.8 0 0 0-2.27 5.9 7.42 7.42 0 0 0 3.83 6.29c.06.04.2.08.44.12.02 0 .03.01.02.03l-.02.02h-.28c-.28 0-.88-.34-1.8-1.04a7.71 7.71 0 0 1-1.83-13.43c1.46-1.46 3.57-2.63 5.54-3.5.08-.04.12.16.12.07L20 13.17c0-.06.04-.1.09-.12l6.9-3.04c.04-.02.01 0 .01.04v1.33c0 .03.04.05.01.07L21.21 14c-.1.04-.21.12-.21.22v.66c0 .1.11.12.2.08l5.76-2.64c.06-.03.04-.01.04.06v10.6c0 .05.08.09.13.11.04.03.08.02.12 0l9.39-7.4c.09-.06.1-.05.07.06L33.05 25c-.01.04 0 .07.03.08a17.28 17.28 0 0 1 7.15 7.09A22.6 22.6 0 0 1 43 42Z" fill="#EF3F42"/><path d="M27 42h-7V28.5c0-.05.02-.08.07-.1a8.55 8.55 0 0 1 3.42-.36c1.11.09 2.23.36 3.35.82.1.04.16.12.16.23V42Z" fill="#0F3458"/></svg>