<!-- by TradingView --><svg xmlns="http://www.w3.org/2000/svg" width="56" height="56" viewBox="0 0 56 56"><path fill="#F0F3FA" d="M0 0h56v56H0z"/><path d="M12.4 24.44c2.2-2.99 6.1-4.69 13.3-2.66 12.68 3.56 16.76-4.64 9.54-8.08A16.05 16.05 0 0 0 12.4 24.44Zm26.82-7.9c2.65 2.58 4.32 6 4.73 9.67.5 4.06-2.57 9.35-10.95 7.94v-10.9c3.24-.46 5.91-2.04 6.41-4.3a4.1 4.1 0 0 0-.19-2.41Zm-22.4 22.94a16.13 16.13 0 0 1-4.77-9.7c-.45-4.05 2.57-9.36 10.95-7.95v10.95c-3.23.44-5.84 2.03-6.36 4.3-.17.8-.1 1.63.19 2.4Zm13.51-5.28c7.23 2.03 11.13.33 13.32-2.66A16 16 0 0 1 27.82 44a16.05 16.05 0 0 1-7-1.7c-7.23-3.39-3.15-11.65 9.51-8.1Z" fill="#E49F15"/></svg>