<!-- by TradingView --><svg width="56" height="56" viewBox="0 0 56 56" xmlns="http://www.w3.org/2000/svg"><path fill="#F0F3FA" d="M0 0h56v56H0z"/><path fill-rule="evenodd" d="M28 44a16 16 0 1 0 0-32 16 16 0 0 0 0 32Zm0-4a12 12 0 0 0 11.96-13H33.92a6.04 6.04 0 0 1 0 2h4.03a10 10 0 1 1-.4-4h2.07A12 12 0 1 0 28 40Zm0-20a8 8 0 0 1 7.42 5H33.2a6 6 0 1 0 0 6h2.22A8 8 0 1 1 28 20Z" fill="url(#a)"/><defs><linearGradient id="a" x1="19.32" y1="15.18" x2="39.05" y2="38.4" gradientUnits="userSpaceOnUse"><stop stop-color="#08B4FF"/><stop offset="1" stop-color="#3D7AFC"/></linearGradient></defs></svg>