<!-- by TradingView --><svg width="56" height="56" viewBox="0 0 56 56" xmlns="http://www.w3.org/2000/svg"><path fill="#F0F3FA" d="M0 0h56v56H0z"/><path d="M31.34 22.02a1981.92 1981.92 0 0 1-3.72-.02 2.16 2.16 0 0 0-1.67.77c-.29.36-.44.78-.45 1.26a67.53 67.53 0 0 0 .02.98 7.29 7.29 0 0 1 0 7.34 1547.59 1547.59 0 0 0 0 3.65h5.59a8.89 8.89 0 0 0 4.28-1.08 6.03 6.03 0 0 0 2.53-2.85c.25-.59.42-1.21.5-1.87a9.2 9.2 0 0 0-.07-2.87 6.42 6.42 0 0 0-1.9-3.46 6.24 6.24 0 0 0-1.8-1.16 9.47 9.47 0 0 0-3.31-.7ZM30.67 25l.5.04c1.9.1 3.41 1.31 3.62 3.3a5.7 5.7 0 0 1-.1 1.9c-.05.23-.13.45-.23.66-.27.61-.72 1.07-1.33 1.39-.62.32-1.43.7-2.43.71h-.8c-.6-.05-.9-.73-.9-1.25V25h1.67Z" fill="#EE2B24"/><path d="M41 30.3V33h6.99l.01 2.2a.79.79 0 0 1-.61.78l-.22.02a13820.99 13820.99 0 0 0-9.17-.01 13296.72 13296.72 0 0 0 0-2.97c.44-.72.73-1.5.88-2.35.14-.83.18-1.68.1-2.54a7.2 7.2 0 0 0-.98-3.19v-.88a2.1 2.1 0 0 1 .81-1.68 1.86 1.86 0 0 1 1.25-.38 52365.27 52365.27 0 0 1 7.94.01v2.3c0 .62-.39.69-.99.69H41v2.49h5.79l.21.02v1.83c0 .5-.45.95-1 .95h-5Z" fill="#EE2B24"/><path d="M6 26.55v-.48c.01-.04.04-.07.08-.07a13.5 13.5 0 0 1 .5.02c.02.02.03.04.03.08a21.12 21.12 0 0 1-.02.5 16.53 16.53 0 0 1-.5.02c-.05 0-.08-.03-.09-.07ZM14.85 17h-.7a.15.15 0 0 0-.15.15v.7c0 .08.07.15.15.15h.7c.09 0 .15-.07.15-.15v-.7a.15.15 0 0 0-.15-.15ZM13.7 19h-1.4a.3.3 0 0 0-.3.3v1.4c0 .17.13.3.3.3h1.4a.3.3 0 0 0 .3-.3v-1.4a.3.3 0 0 0-.3-.3ZM10.11 22H9.2a.2.2 0 0 0-.19.2v.92c0 .1.09.2.2.2h.91c.11 0 .2-.1.2-.2v-.92a.2.2 0 0 0-.2-.2ZM6.84 22h-.68a.16.16 0 0 0-.16.16v.68c0 .09.07.16.16.16h.69c.08 0 .15-.07.15-.16v-.69a.16.16 0 0 0-.16-.15ZM9.51 29.52a.19.19 0 0 1-.14.06h-.96c-.1 0-.16-.03-.2-.1a.48.48 0 0 1-.02-.2 108.4 108.4 0 0 0 0-.88l-.04-.14a9.37 9.37 0 0 0-.27-.3.33.33 0 0 0-.24-.09h-.46c-.06 0-.1 0-.13-.02S7 27.8 7 27.73v-.62c0-.03.01-.05.04-.07A.11.11 0 0 1 7.1 27h.61c.06 0 .1.02.13.05l.02.13v.46c0 .1.03.18.1.24a8.85 8.85 0 0 0 .29.27c.04.02.08.04.13.04h.88c.1 0 .16.01.2.03.06.04.1.1.1.2v.96a.2.2 0 0 1-.06.14Z" fill="#F05123"/><path fill-rule="evenodd" d="m19.64 20.88.28.05a7.5 7.5 0 0 1 4.1 2.36 7.53 7.53 0 0 1 1.94 5.94 7.4 7.4 0 0 1-1.84 4.18 7.6 7.6 0 0 1-11.54-.14c-.27-.25-.59-.26-.95-.29-.04 0-.16.02-.36.02h-1c-.38 0-.58-.32-.57-.7v-1.93c0-.25.18-.37.42-.37h1.77c.5 0 .9-.42 1.02-.9.05-.24.05-.48-.01-.71a1.1 1.1 0 0 0-.38-.6.95.95 0 0 0-.6-.2H9.67a.31.31 0 0 1-.17-.14.4.4 0 0 1-.06-.22v-1.49a.63.63 0 0 0-.15-.44c-.09-.1-.16-.16-.21-.2a.48.48 0 0 0-.26-.08H8a.4.4 0 0 1-.17-.03.2.2 0 0 1-.1-.1.39.39 0 0 1-.01-.14v-.95c0-.1.03-.17.1-.2a.5.5 0 0 1 .21-.03 141.84 141.84 0 0 0 1 .02c.08.03.12.1.12.22a272.01 272.01 0 0 1 .02 1.01c.04.12.14.25.31.38.09.07.2.1.36.11a8.84 8.84 0 0 0 .78 0 2178.9 2178.9 0 0 1 1.71.01c.1.02.17.06.2.14.02.04.02.13.02.26v.04c0 .06.01.1.04.14.04.04.08.06.14.06h.71c.1 0 .16 0 .19-.02.06-.02.1-.08.1-.17v-.75a.3.3 0 0 0-.03-.16.17.17 0 0 0-.16-.08h-.27c-.05 0-.1 0-.12-.02a.26.26 0 0 1-.1-.1 211.24 211.24 0 0 1-.02-.76c0-.1-.01-.16-.03-.2a.23.23 0 0 0-.14-.13.52.52 0 0 0-.17-.03H12.1a.5.5 0 0 1-.14-.01.43.43 0 0 1-.13-.07.41.41 0 0 1-.16-.24l-.01-.27v-.85c0-.28-.08-.5-.24-.65-.07-.07-.54-.4-1.4-1.27a1.37 1.37 0 0 0-.18-.15.65.65 0 0 0-.22-.1 1.16 1.16 0 0 0-.25-.02H8.3a.27.27 0 0 1-.2-.08.27.27 0 0 1-.08-.2V18.4c0-.13.01-.21.03-.25.03-.07.08-.11.15-.14l.19-.02h1.16c.1 0 .17.01.21.03.07.03.11.08.14.14a207.31 207.31 0 0 0 .03 1.28c0 .11.02.21.06.3.04.08.1.16.19.24l.06.06.1.1 1.29 1.16c.09.09.2.15.35.18.1.02.23.03.4.03h3.5c.25 0 .46-.03.65-.1a.87.87 0 0 0 .47-.43.87.87 0 0 0 .08-.28 2.83 2.83 0 0 0 .01-.4v-.28a.44.44 0 0 0-.12-.24l-.32-.32a.42.42 0 0 0-.18-.11 218.03 218.03 0 0 1-.7-.02h-.03l-.14-.01a.15.15 0 0 1-.1-.08.22.22 0 0 1-.02-.11V18.28a.14.14 0 0 1 .1-.1 166.8 166.8 0 0 1 .85-.02c.1 0 .17.05.2.13v.77c0 .1.05.2.14.3l.32.31c.05.05.12.08.2.1.06.02.14.02.23.02h1.1c.14 0 .24.06.28.18.02.05.03.14.02.27v.05c0 .12.05.23.16.33a1 1 0 0 0 .32.2l.24.06Zm-1.31 11.73a4.23 4.23 0 0 0 2.95-1.08 4.14 4.14 0 0 0 1.38-3.24 4.19 4.19 0 0 0-1.3-2.93c-1.08-1.04-1.66-1.16-2.88-1.16a4.14 4.14 0 0 0-3.6 2.07 4.17 4.17 0 0 0-.35 3.52 4.18 4.18 0 0 0 3.8 2.82Zm-1-11.1h.74c.08 0 .15.07.15.15v.75c0 .09-.07.16-.15.16h-.75a.15.15 0 0 1-.15-.16v-.75c0-.08.07-.15.15-.15Zm-4.05.62h.86c.1 0 .17.08.17.17v.87c0 .1-.08.17-.17.17h-.86a.18.18 0 0 1-.17-.17v-.87c0-.1.08-.17.17-.17Zm1.86 1.43h-.52a.1.1 0 0 0-.11.1v.54c0 .06.05.1.1.1h.53a.1.1 0 0 0 .1-.1v-.53a.1.1 0 0 0-.1-.1Zm-2.79 6.67h1.06c.12 0 .22.1.22.22v1.07c0 .12-.1.22-.22.22h-1.06a.22.22 0 0 1-.22-.22v-1.07c0-.12.1-.22.22-.22Z" fill="#F05123"/></svg>