<!-- by TradingView --><svg width="56" height="56" fill="none" xmlns="http://www.w3.org/2000/svg"><path fill="#F0F3FA" d="M0 0h56v56H0z"/><path fill-rule="evenodd" clip-rule="evenodd" d="M44 28c0 8.837-7.163 16-16 16s-16-7.163-16-16 7.163-16 16-16 16 7.163 16 16ZM28 41c7.18 0 13-5.82 13-13h-7c0 .701-.12 1.375-.342 2H37.8c-.927 4.565-4.962 8-9.8 8-5.523 0-10-4.477-10-10s4.477-10 10-10c4.838 0 8.873 3.436 9.8 8h3.047C39.885 19.77 34.5 15 28 15c-7.18 0-13 5.82-13 13s5.82 13 13 13Zm0-21c3.728 0 6.86 2.55 7.748 6h-2.09A6.002 6.002 0 0 0 22 28a6 6 0 0 0 10.472 4h2.458A8 8 0 1 1 28 20Z" fill="url(#a)"/><defs><linearGradient id="a" x1="15.977" y1="17.083" x2="44" y2="33.446" gradientUnits="userSpaceOnUse"><stop stop-color="#07B4FF"/><stop offset="1" stop-color="#3A7CFC"/></linearGradient></defs></svg>