<!-- by TradingView --><svg width="56" height="56" viewBox="0 0 56 56" xmlns="http://www.w3.org/2000/svg"><path fill="#F0F3FA" d="M0 0h56v56H0z"/><path fill-rule="evenodd" d="M43 19.5 28 11l-15 8.5v17L28 45l15-8.5v-17Zm-2 1L28 13l-13 7.5v15L28 43l13-7.5v-15ZM22.5 36a5.5 5.5 0 0 0 5.5-5.5V41l4.07-2h-2.1v-4.28a5.5 5.5 0 1 0 1.85-9.46 5.51 5.51 0 0 0 1.68-2.42l-1.9-.63a3.4 3.4 0 0 1-3.2 2.25A3.43 3.43 0 0 1 25 21a3.39 3.39 0 0 1 6.34-1.74l1.7-1.1A5.38 5.38 0 0 0 23 21c0 2.9 2.2 5.27 5 5.48v4.02a5.5 5.5 0 1 0-5.5 5.5Zm6.12-9.5.63.5c.23-.27.48-.52.75-.74-.44.13-.9.22-1.38.24Zm-6.12 7.46a3.46 3.46 0 1 0 0-6.92 3.46 3.46 0 0 0 0 6.92Zm14.46-3.46a3.46 3.46 0 1 1-6.92 0 3.46 3.46 0 0 1 6.92 0Z" fill="#EE1821"/></svg>