<!-- by TradingView --><svg width="56" height="56" fill="none" xmlns="http://www.w3.org/2000/svg"><path fill="#5E2E86" d="M0 0h56v56H0z"/><path d="m9.483 23.685 1.423 11.383-6.78-11.674A.93.93 0 0 1 4.94 22h.552l3.992 1.685Z" fill="url(#a)"/><path d="M16.129 26.47 5.473 22l13.589.017a.93.93 0 0 1 .811 1.394l-.276.474-3.468 2.585Z" fill="url(#b)"/><path d="m10.36 30.718 9.239-6.84-6.81 11.658a.942.942 0 0 1-1.623 0l-.276-.475-.53-4.343Z" fill="url(#c)"/><path d="M24 24v12h3V24h3v-2h-9v2h3Z" fill="#FFFFFE"/><path fill-rule="evenodd" clip-rule="evenodd" d="M31 36V22.87c.418-.29 1.888-.87 4.422-.87C38.591 22 41 23.072 41 26.187 41 29.3 38.756 31 36.017 31H34v5h-3Zm3-7h1.496C36.602 29 38 28.612 38 26.433c0-2.724-3.05-2.624-4-2.218V29Z" fill="#FFFFFE"/><path d="M42.866 33.022 42 35.255c.43.249 1.748.745 3.584.745C49.168 36 51 34.158 51 31.846s-1.57-3.409-3.12-3.997c-1.551-.587-2.296-1.195-2.296-2.096s.765-1.548 1.852-1.548c.87 0 1.88.366 2.275.549l.766-1.9c-3.906-2.117-8.316-.02-8.316 3.252 0 2.617 2.282 3.82 3.423 4.095.57.209 1.711.854 1.711 1.763 0 1.136-.845 1.705-2.033 1.705-.95 0-1.993-.432-2.396-.647Z" fill="#FFFFFE"/><path fill-rule="evenodd" clip-rule="evenodd" d="m49.713 24.749.764-1.896c-2.583-1.398-5.385-.956-6.987.449a7.066 7.066 0 0 1 1.832-.253c1.451 0 3.23.794 4.391 1.7Zm.042 9.939c-.905.81-2.299 1.312-4.171 1.312-1.836 0-3.155-.496-3.584-.745l.866-2.233.052.027c.785 1.042 2.95 2.416 6.837 1.639Z" fill="url(#d)"/><defs><linearGradient id="a" x1="5.018" y1="23.26" x2="10.685" y2="34.438" gradientUnits="userSpaceOnUse"><stop stop-color="#CC5A36"/><stop offset="1" stop-color="#E7A53C"/></linearGradient><linearGradient id="b" x1="19.263" y1="24.688" x2="6.867" y2="22.389" gradientUnits="userSpaceOnUse"><stop stop-color="#CC5B35"/><stop offset="1" stop-color="#E7A43C"/></linearGradient><linearGradient id="c" x1="11.821" y1="33.133" x2="19.525" y2="24.639" gradientUnits="userSpaceOnUse"><stop stop-color="#CD5B36"/><stop offset="1" stop-color="#E7A43C"/></linearGradient><linearGradient id="d" x1="50.034" y1="23.147" x2="42.087" y2="35.416" gradientUnits="userSpaceOnUse"><stop stop-color="#D17C4D"/><stop offset="1" stop-color="#E6AE4B"/></linearGradient></defs></svg>