<!-- by TradingView --><svg width="56" height="56" viewBox="0 0 56 56" xmlns="http://www.w3.org/2000/svg"><path fill="#F0F3FA" d="M0 0h56v56H0z"/><path fill-rule="evenodd" d="M42 14H14v28h28V14Zm-.5.5h-27v27h27v-27Z" fill="#0F62AC"/><path d="M27 15H15v12h6.08A6 6 0 0 1 27 22v-.5h-6.5V18H27v-3Zm2 6.5v.84l.5.2V21.5H29Zm.5-3.5H29v-3h12v12h-4.5v-.5h4v-11h-11V18ZM29 33.66a6.02 6.02 0 0 0 3.5-3.26V34s2.6-.06 4 0v-5H41v12H29v-7.34ZM21.08 29H15v12h12v-7c-.17 0-.34 0-.5-.02v6.52h-11v-11h5.69a5.94 5.94 0 0 1-.1-.5Z" fill="#0F62AC"/><path d="M21 18.63h13.64c.74 0 1.34.6 1.34 1.34V33.5H34.5v-13a.9.9 0 0 0-.9-.9H21v-.97Zm0 1.42V21h12v12.5h1v-13c0-.25-.14-.45-.4-.45H21Z" fill="#0F62AC"/><path d="M28 25.77v1.73h1.42A2.39 2.39 0 0 0 28 25.77Zm-1-.19v1.92h-2.26A2.39 2.39 0 0 1 27 25.58Zm-2.25 2.92A2.39 2.39 0 0 0 27 30.35V28.5h-2.25ZM28 30.17c.7-.3 1.23-.92 1.4-1.67H28v1.67Z" fill="#0F62AC"/><path d="M27 33.43c3.04 0 5.5-2.44 5.5-5.46A5.48 5.48 0 0 0 27 22.5a5.49 5.49 0 0 0-5.5 5.2V38h1V27.7h.01a4.5 4.5 0 1 1 1.99 4.04v1.1c.75.38 1.6.6 2.5.6ZM24 38h-1V28a4 4 0 1 1 1.5 3.12v-1.46a3 3 0 1 0-.49-1.96H24V38Z" fill="#0F62AC"/></svg>