<!-- by TradingView --><svg width="56" height="56" fill="none" xmlns="http://www.w3.org/2000/svg"><path fill="#00683D" d="M0 0h56v56H0z"/><path d="m28.032 12 1.094 11.164 5.785-9.58-3.815 10.538 9.33-6.098-7.966 7.824 11.028-1.408L32.947 28l10.54 3.56-11.027-1.408 7.966 7.824-9.33-6.098 3.815 10.538-5.785-9.58L28.032 44 26.94 32.836l-5.785 9.58 3.814-10.538-9.33 6.098 7.967-7.824-11.028 1.408L23.118 28l-10.541-3.56 11.028 1.408-7.967-7.824 9.33 6.098-3.814-10.537 5.785 9.58L28.032 12Z" fill="#BB9642"/><path fill-rule="evenodd" clip-rule="evenodd" d="m23.02 12.8-.76.396 3.575 4.843 1.126-6.004h-.906l-.71 3.83L23.02 12.8Zm2.274-.717-1.536.376 1.212 1.8.324-2.176Zm7.687 31.15.758-.394-3.574-4.844L29.04 44h.906l.71-3.83 2.326 3.064Zm-2.275.719 1.536-.376-1.212-1.8-.324 2.175ZM16.883 16.576l-.509.692 5.324 2.757-1.612-5.89-.813.402 1.036 3.754-3.426-1.715Zm1.728-1.657-1.215 1.021 1.874 1.077-.66-2.098Zm20.506 24.54.509-.693-5.324-2.756 1.612 5.89.813-.402-1.036-3.754 3.426 1.715Zm-1.728 1.656 1.215-1.02-1.874-1.077.66 2.097ZM13.088 22.512l-.164.846 5.981.178-3.965-4.618-.562.717 2.534 2.939-3.824-.062Zm.855-2.245-.662 1.449 2.15.159-1.488-1.608Zm28.969 13.255.164-.846-5.981-.178 3.965 4.619.562-.717-2.534-2.94 3.824.062Zm-.855 2.245.662-1.448-2.15-.16 1.488 1.608ZM12.205 29.65l.219.833 5.455-2.48-5.567-2.403-.195.893 3.553 1.524-3.465 1.633ZM12 27.254l.033 1.594 2.003-.806L12 27.253Zm31.795-.87-.219-.832-5.455 2.48 5.567 2.403.195-.893-3.553-1.525 3.465-1.632ZM44 28.782l-.033-1.595-2.003.807L44 28.78ZM14.534 36.509l.56.65 3.815-4.653-6.047.32.215.888 3.855-.212-2.398 3.007Zm-1.23-2.06.726 1.417 1.446-1.615-2.172.198Zm28.162-14.923-.56-.65-3.815 4.652 6.047-.319-.215-.888-3.855.212 2.398-3.007Zm1.23 2.06-.726-1.417-1.446 1.615 2.172-.198ZM19.623 41.631l.787.334 1.39-5.873-5.287 2.977.581.702 3.367-1.906-.838 3.766Zm-2.004-1.302 1.27.95.593-2.094-1.863 1.144Zm18.758-25.925-.787-.335-1.391 5.874 5.288-2.977-.581-.702-3.367 1.906.838-3.766Zm2.004 1.302-1.27-.95-.593 2.094 1.863-1.144ZM26.237 43.944l.853-.04-1.247-5.907-3.505 4.983.823.382 2.229-3.182.847 3.764Zm-2.364-.306 1.551.306-.357-2.147-1.194 1.841Zm5.89-31.547-.853.04 1.247 5.906 3.505-4.982-.823-.382-2.229 3.182-.847-3.764Zm2.364.306-1.551-.306.357 2.147 1.194-1.841Z" fill="#BB9642"/></svg>