<!-- by TradingView --><svg width="56" height="56" viewBox="0 0 56 56" xmlns="http://www.w3.org/2000/svg"><path fill="#F0F3FA" d="M0 0h56v56H0z"/><path d="M22 24.46V43h5V9h-.45v7.67a11.37 11.37 0 0 0-4.55 7.8Z" fill="url(#a)"/><path d="M27.38 15c-7.72 0-12.8 5.96-14.38 8.94 7.46-8.87 18.53-8.47 22.37-4.01 3.85 4.46 2.05 9-1.82 13.46-3.1 3.56-10.12 4.5-13.24 4.52C36.31 39.06 40 29.27 40 25.4 40 21.53 37.02 15 27.38 15Z" fill="#FF7F26"/><path d="M28 43V22.84a13.9 13.9 0 0 0-6-3.22V19c8.2 2.02 10.75 8.2 11 11.05V43h-5Z" fill="url(#b)"/><defs><linearGradient id="a" x1="24.5" y1="9" x2="24.5" y2="43" gradientUnits="userSpaceOnUse"><stop stop-color="#2896D3"/><stop offset="1" stop-color="#19519F"/></linearGradient><linearGradient id="b" x1="27.5" y1="19" x2="27.5" y2="43" gradientUnits="userSpaceOnUse"><stop stop-color="#2A9BD7"/><stop offset="1" stop-color="#19509F"/></linearGradient></defs></svg>