<!-- by TradingView --><svg width="56" height="56" viewBox="0 0 56 56" xmlns="http://www.w3.org/2000/svg"><path fill="#F0F3FA" d="M0 0h56v56H0z"/><path fill-rule="evenodd" d="M28.15 12.02a.17.17 0 0 0-.08-.02c-.03 0-.06 0-.09.02L14.2 19.65l-.03.01c-.07.04-.17.1-.17.17V35.7c0 .12.05.21.15.27L27.92 44h.11l13.82-7.94c.1-.06.15-.15.15-.27V19.91a.2.2 0 0 0-.1-.18l-13.75-7.7Zm-.23 28.48H28l10.85-6.19a.23.23 0 0 0 .12-.2L39 21.68c0-.06-.03-.1-.08-.14a4110.78 4110.78 0 0 1-10.85-6.05 4770.33 4770.33 0 0 1-10.9 5.96.14.14 0 0 0-.08.14L17 34c0 .1.04.16.12.21l10.8 6.28Z" fill="#21A64E"/><path fill-rule="evenodd" d="M34 27.99c-.01 1.12.4 3.63 2.02 3.6.51 0 1.05-.28 1.62-.82.11-.11.24-.14.4-.1.14.05.23.15.27.3.27 1.2.1 2-.5 2.4-.76.5-1.57.7-2.42.6-2.8-.33-3.4-3.7-3.39-6 .02-2.3.7-5.66 3.5-5.95a3.5 3.5 0 0 1 2.4.65c.6.41.75 1.21.46 2.4a.37.37 0 0 1-.28.3.37.37 0 0 1-.4-.1c-.55-.56-1.09-.84-1.6-.86C34.46 24.36 34 26.86 34 28Zm-14 5.28v-3.1c0-.13.15-.18.27-.18 1.93.09 3.12-.85 3.56-2.82a5.58 5.58 0 0 0-.08-3.04 2.88 2.88 0 0 0-2.01-1.99 9.78 9.78 0 0 0-2.46-.13l-.5.01c-.22 0-.4.09-.55.25a.8.8 0 0 0-.23.57v10.43c0 .49.23.73.7.73h.69c.47 0 .61-.24.61-.73Zm.17-9.27c-.09 0-.13.04-.13.13L20 27.86c0 .09.04.13.13.13l.4.01c.4 0 .74-.15 1.03-.45.28-.3.43-.66.43-1.1l.01-.87c0-.43-.13-.8-.41-1.1-.28-.32-.62-.47-1.02-.47l-.4-.01Zm6.02 7c-.13 0-.2.08-.22.2l-.3 2.03c-.1.5-.4.74-.9.74h-.74c-.56 0-.77-.26-.63-.8.84-3.3 1.74-6.76 2.7-10.38.07-.27.16-.47.28-.6a.41.41 0 0 1 .26-.12l.1-.02c1.34-.15 2.09.03 2.22.54 1.06 4.1 1.96 7.63 2.7 10.63.1.46-.1.7-.6.73l-.94.05c-.5.02-.8-.2-.88-.68l-.33-2.08c-.02-.15-.11-.24-.27-.24H26.2Zm1.27-5.3c.03 0 .05.02.05.05l.76 3.07c.02.1-.02.15-.11.16a7.06 7.06 0 0 1-1.43 0c-.1-.02-.13-.07-.1-.16l.78-3.07c.01-.03.03-.05.05-.05Z" fill="#E92A46"/></svg>