<!-- by TradingView --><svg width="56" height="56" viewBox="0 0 56 56" xmlns="http://www.w3.org/2000/svg"><path fill="#F0F3FA" d="M0 0h56v56H0z"/><path fill-rule="evenodd" d="M35.5 15.23A637.55 637.55 0 0 0 28 11l-7.5 4.23a592.8 592.8 0 0 0-7.48 4.27c-.01.02-.02 2.85-.02 8.5 0 5.64 0 8.47.02 8.5.02.02 2.5 1.45 7.48 4.27C25.47 43.59 27.97 45 28 45c.03 0 2.53-1.4 7.5-4.23 4.97-2.82 7.46-4.24 7.48-4.27.01-.02.02-2.85.02-8.5 0-5.64 0-8.47-.02-8.5-.01-.02-2.5-1.44-7.48-4.27ZM28 12l-7 3.98-6.98 4.01c0 .03-.02 2.7-.02 8 0 5.31 0 7.98.02 8 .01.03 2.34 1.37 6.97 4.02 4.64 2.66 6.97 3.99 7 3.99.03 0 2.36-1.33 7-3.98 4.64-2.65 6.97-4 6.99-4.02 0-.02.02-2.68.02-8 0-5.3 0-7.97-.02-8-.01-.02-2.34-1.36-6.97-4.01A585.66 585.66 0 0 0 28 12Zm2 18.1c-.02 1.34-.01 3.63 0 6.89 0 .4.32.67.67.84.24.1.22.16-.06.16h-4.54c-.06 0-.07-.03-.07-.08l-.01-7.75c0-.1-.06-.15-.16-.16-.92-.03-1.74-.01-2.22.05-.7.1-1.2.36-1.54.79-.35.45-.44 1-.27 1.66.08.35.26.64.54.87.3.26.64.42 1.04.5.25.05.63.13 1.14.13h.5l-.02.06v3.82l.01.06c.01.02.02.04-.02.04-1.36.09-2.6-.1-3.73-.56a5.73 5.73 0 0 1-2.78-2.32 5.8 5.8 0 0 1-.98-3.56 6.1 6.1 0 0 1 1.55-3.37 6.14 6.14 0 0 1 4.56-2.15c.54-.03 1.37-.04 2.27-.02.07 0 .12-.03.12-.1v-6.76c0-.4-.31-.73-.67-.98-.15-.1-.13-.15.05-.15h4.5c.08 0 .12.03.12.1v7.76c0 .06.16.1.22.1 1.06.07 1.95.01 2.68-.18.68-.18 1.12-.6 1.31-1.28.18-.65.08-1.24-.32-1.79-.38-.51-1.26-.78-2.65-.72-.14 0-.2-.01-.2-.15v-3.72c0-.07.03-.1.1-.11 1.39-.09 2.62.12 3.7.6a6.07 6.07 0 0 1 2.68 2.32c.6.95 1 1.99.98 3.1a6.04 6.04 0 0 1-2.63 4.8c-.78.53-1.67.87-2.67 1.03-.64.1-1.62.14-2.95.13-.07 0-.25.03-.25.1Zm2.69 4.7c-.14.18-.34.35-.61.52a.15.15 0 0 0-.08.13v2.45c0 .07.03.1.1.1h2.82c.05 0 .08-.03.08-.08v-3.8c0-.08-.04-.12-.12-.12h-1.7a.14.14 0 0 0-.14.1c-.12.31-.24.55-.35.7Z" fill="#004B8C"/></svg>