<!-- by TradingView --><svg width="56" height="56" fill="none" xmlns="http://www.w3.org/2000/svg"><path fill="#F0F3FA" d="M0 0h56v56H0z"/><path fill-rule="evenodd" clip-rule="evenodd" d="M6 25.023 12.488 19l6.488 6.023-2.655 2.465-3.833-3.558-3.833 3.558L6 25.023Zm0 5.954L12.488 37l6.488-6.023-2.655-2.465-3.833 3.558-3.833-3.558L6 30.977Zm6.368-6.052 3.166 2.94-3.166 2.939-3.167-2.94 3.167-2.94ZM20 35V21h6.499c2.55 0 4.678 1.754 5.168 4.086C32.832 22.675 35.397 21 38.374 21c1.724 0 3.31.561 4.565 1.502l-2.265 3.503A3.363 3.363 0 0 0 38.248 25C36.454 25 35 26.343 35 28s1.454 3 3.248 3c.965 0 1.832-.389 2.427-1.006L43 33.452A7.59 7.59 0 0 1 38.374 35c-3.6 0-6.599-2.45-7.245-5.69A5.303 5.303 0 0 1 26.5 32H25v-4h1.184c1.12 0 1.816-.465 1.816-1.55 0-1.086-.696-1.45-1.816-1.45H24v10h-4Zm24.636-14-3.186 5H44v8h4V21h-3.364Z" fill="#19A19D"/></svg>