<!-- by TradingView --><svg width="56" height="56" viewBox="0 0 56 56" xmlns="http://www.w3.org/2000/svg"><path fill="#F0F3FA" d="M0 0h56v56H0z"/><path d="M42 14v22.62a5.88 5.88 0 0 1-3.42 4.93 5.4 5.4 0 0 1-2.05.45H14.11l-.11-.01V19.54l.02-.21a5.88 5.88 0 0 1 3.16-4.75 5.4 5.4 0 0 1 2.18-.58H42Z" fill="#0D5CAB"/><path d="M30.79 39h-9.76c-.01 0-.02 0-.02-.02l-.01-.27V18.84c0-.4.02-.67.06-.81A1.4 1.4 0 0 1 22.5 17h6.62c.74 0 1.38.17 1.94.5.67.4 1.18.96 1.52 1.66a4.19 4.19 0 0 1-.81 4.8 3.8 3.8 0 0 1-2.5 1.04 4.07 4.07 0 0 0-3.31 1.42 4.48 4.48 0 0 0-1.13 3.55 4.6 4.6 0 0 0 1.84 3.2c.76.55 1.6.8 2.54.77.03 0 .04.01.04.04a7.9 7.9 0 0 0 1.56 5.01l-.01.01Z" fill="#F68026"/><path d="M26.6 27.16a27.2 27.2 0 0 1 .9 1.26 4.77 4.77 0 0 0 2.08 1.72c.84.36 1.72.46 2.63.3a4.6 4.6 0 0 0 3.5-2.8 5.07 5.07 0 0 0-.67-5.19l-.95-1.23a5.44 5.44 0 0 0-.81-3.01c-.02-.04-.02-.05.02-.03a7.71 7.71 0 0 1 3.28 4.27c.3.97.44 2 .42 3.1-.02.78-.2 1.6-.52 2.42a8.47 8.47 0 0 1-3.22 3.94 6.99 6.99 0 0 1-4.02 1.1 3.49 3.49 0 0 1-3.04-1.82 3.57 3.57 0 0 1-.28-2.75c.14-.47.37-.9.68-1.28Z" fill="#F58920"/><path d="M26.6 27.16c.26-.3.56-.56.9-.76.26.53.49.94.68 1.23a3.64 3.64 0 0 0 4.6 1.58c.51-.2.96-.51 1.33-.93a4.13 4.13 0 0 0 .6-4.59c-.21-.4-.48-.8-.8-1.2a.29.29 0 0 0-.02-.08c.11-.39.18-.78.2-1.19l.95 1.23a5.07 5.07 0 0 1 .68 5.19 4.7 4.7 0 0 1-6.14 2.5 4.77 4.77 0 0 1-2.07-1.72l-.11-.16c-.35-.5-.6-.86-.8-1.1Z" fill="#F8A62F"/><path d="m33.89 22.4.03.1-.04.1a6.28 6.28 0 0 1-.96 1.79c.12.4.18.76.18 1.08 0 .38-.09.74-.26 1.05a1.62 1.62 0 0 1-1.15.82 1.83 1.83 0 0 1-1.36-.36 3.9 3.9 0 0 1-.51-.48l-.45-.55a4.67 4.67 0 0 0 4.52-3.54Z" fill="#FFEB65"/><path d="M33.92 22.5c.31.39.58.79.78 1.19a4.13 4.13 0 0 1-.6 4.59 3.6 3.6 0 0 1-3.23 1.16 3.63 3.63 0 0 1-1.78-.77c-.33-.26-.63-.6-.92-1.04-.18-.29-.4-.7-.67-1.23.29-.17.6-.29.92-.36.13.28.26.56.4.82.28.5.61.88 1 1.16.43.3.9.46 1.41.49a2.7 2.7 0 0 0 1.84-.57c.54-.41.89-.95 1.04-1.63a3.16 3.16 0 0 0-.18-1.96 5.7 5.7 0 0 0-.45-.86 6.29 6.29 0 0 0 .44-1Z" fill="#FAC144"/><path d="M33.48 23.5c.2.3.34.58.45.85a3.41 3.41 0 0 1 .18 1.96c-.15.68-.5 1.22-1.03 1.63a2.7 2.7 0 0 1-1.85.57 2.63 2.63 0 0 1-1.4-.49c-.4-.28-.73-.66-1-1.16-.15-.26-.28-.54-.41-.82.31-.07.63-.1.95-.09l.45.55c.17.19.34.35.51.48a1.83 1.83 0 0 0 1.36.36 1.55 1.55 0 0 0 1.15-.82c.17-.31.26-.67.26-1.05a3.9 3.9 0 0 0-.17-1.12l.19-.28a4.01 4.01 0 0 0 .36-.58Z" fill="#FDD856"/></svg>