<!-- by TradingView --><svg width="56" height="56" viewBox="0 0 56 56" xmlns="http://www.w3.org/2000/svg"><path fill="#F0F3FA" d="M0 0h56v56H0z"/><path d="M5.45 23c.07.03.12.03.17 0h3.52c.7.08 1.2.37 1.53.87.32.5.4 1.1.27 1.8a2.3 2.3 0 0 1-1.35 1.74c-.66.3-1.4.37-2.22.2-.03 0-.06-.03-.07-.07l-.2-1.06.02-.01c.34.09.68.1 1.02.05.4-.06.7-.21.88-.46.31-.4.4-.8.26-1.2-.14-.43-.47-.64-1-.65-.43 0-.89 0-1.36.02-.05 0-.07.03-.07.08l-.2 6.6c0 .05-.02.07-.06.07L5 31v-.32c.18-2.56.29-5.12.32-7.68h.13ZM13 23.73a.8.8 0 0 1-.28.6.73.73 0 0 1-.54.17.73.73 0 0 1-.5-.24.74.74 0 0 1-.17-.62c.1-.9 1.55-.83 1.49.09ZM44.17 25a2 2 0 0 0-.83.78l-.24.72a.26.26 0 0 0-.18 0 .11.11 0 0 0-.09.1l-.13 4.33c0 .05-.02.07-.07.07h-1.4c-.06 0-.08-.03-.08-.09l.13-4.35c0-.04-.02-.06-.06-.06h-.62c-.1 0-.14-.05-.13-.15l.03-1.17c0-.1.06-.18.17-.18h.63c.05 0 .08 0 .08-.05v-.57c0-.05.02-.09.08-.1l1.4-.28c.04 0 .07.01.07.07l-.03.87c0 .05.02.06.08.06h1.19ZM26.58 25.93c.46-.68 1.16-.98 2.08-.91.7.04 1.2.36 1.46.94.03.06.06.06.1 0 .33-.52.8-.83 1.4-.92.5-.07.95-.04 1.36.1.5.17.81.47.94.9.06.2.08.52.05.97-.1 1.68-.15 2.98-.17 3.91 0 .05-.03.08-.08.08h-1.47c-.06 0-.08-.03-.08-.09l.17-2.97c.02-.56 0-.95-.07-1.16-.11-.35-.37-.51-.78-.5-.5.02-.87.27-1.07.75-.14.31-.22.8-.25 1.47-.04.69-.06 1.5-.08 2.42 0 .05-.02.08-.07.08h-1.48c-.06 0-.09-.03-.08-.09.1-1.75.17-2.97.18-3.65 0-.3-.07-.53-.22-.7a.79.79 0 0 0-.54-.28 1.16 1.16 0 0 0-1.11.64c-.16.32-.25.73-.3 1.26-.05.88-.1 1.8-.1 2.74 0 .05-.03.08-.08.08h-1.47c-.05 0-.07-.02-.06-.07l.25-5.85c0-.05.03-.08.07-.08h1.4c.05 0 .08.03.07.08l-.02.83c0 .06.01.06.05.02ZM36.87 31h-.99a1.89 1.89 0 0 1-1.2-.52c-.3-.3-.44-.7-.42-1.22.03-.57.38-1.03 1.07-1.37a9.1 9.1 0 0 1 2.3-.67c.2-.04.37-.13.5-.25.17-.14.24-.3.21-.49-.06-.47-.54-.65-1.46-.55-.64.08-1.24.23-1.82.46-.03.01-.04 0-.03-.03l.16-1c0-.02.02-.03.04-.04.9-.23 1.76-.34 2.59-.32 1.22.03 1.93.37 2.12 1.03.04.16.06.45.03.85-.09 1.6-.16 3.04-.18 4.05 0 .05-.03.07-.07.07h-1.47c-.05 0-.07-.03-.07-.08l.18-2.92c0-.06-.02-.08-.08-.05-.33.19-.85.37-1.56.56-.2.05-.39.14-.6.3-.25.18-.36.4-.32.69.04.28.21.46.51.54.41.1.84.08 1.28-.07.08-.03.1 0 .09.08l-.22.75a.17.17 0 0 1-.15.13l-.44.07ZM14.9 28.08c-.04.85.28 1.39.96 1.62.56.19 1.25.14 2.05-.15.03-.01.04 0 .04.03l-.2 1.18c0 .02-.01.04-.04.04-1.02.25-1.9.26-2.66.04a2.3 2.3 0 0 1-1.7-1.93 3.9 3.9 0 0 1 .25-2.37 2.4 2.4 0 0 1 1.76-1.43c.82-.18 1.7-.14 2.64.1.03.01.05.03.05.07l.08 1.14c0 .03-.01.04-.04.03-.9-.3-1.61-.35-2.15-.15-.65.25-1 .84-1.04 1.78Z" fill="#004158"/><path d="M21.04 25a3.3 3.3 0 0 1 2.4.71c.52.44.83 1.05.9 1.84a3.2 3.2 0 0 1-.42 2.02c-.52.88-1.39 1.35-2.6 1.42a3.3 3.3 0 0 1-2.4-.7 2.62 2.62 0 0 1-.9-1.84 3.2 3.2 0 0 1 .42-2.02c.52-.88 1.4-1.35 2.6-1.42Zm1.7 2.83a1.4 1.4 0 0 0-.27-1.05c-.23-.32-.54-.5-.92-.56l-.24-.03c-.38-.06-.73.03-1.03.27-.31.24-.5.55-.55.94l-.1.8c-.06.38.03.74.26 1.05.24.32.54.5.92.56l.24.03c.38.05.73-.04 1.04-.27.3-.24.49-.55.54-.94l.1-.8ZM12.72 31H11.2c-.03 0-.04-.02-.04-.05l.17-5.9c0-.03.02-.05.05-.05h1.5c.04 0 .06.02.06.05l-.17 5.9c0 .03-.02.05-.05.05Z" fill="#004158"/><path d="M52 25v.23c-.3.77-.84 1.2-1.63 1.26-.4.04-1.33.04-2.77.01l-.79-1.09a.14.14 0 0 0-.11-.06 9 9 0 0 0-2.82.3.84.84 0 0 0-.23.14c-.15.1-.25.1-.3-.03.16-.3.43-.55.82-.76H52Z" fill="#F89C49"/><path d="M47.6 26.5h-4.5l.24-.74c.06.13.16.14.3.03.1-.08.18-.13.24-.15a9 9 0 0 1 2.82-.3c.05.01.08.03.11.07l.8 1.1Z" fill="#F48045"/><path d="M49.91 27.25a15 15 0 0 1-3.02.17c-.05 0-.09.02-.1.06-.1.38-.06.75.15 1.12H43.2c-.12 0-.18-.05-.18-.16l.05-1.36c0-.05.03-.07.1-.08h6.63c.08 0 .12.03.12.08 0 .04 0 .1-.02.17Z" fill="#F68F47"/><path d="M49.91 27.25c.03.18-.04.37-.2.55-.58.6-1.5.88-2.77.8-.2-.37-.26-.74-.15-1.12.01-.04.04-.06.1-.06a15 15 0 0 0 3.02-.17ZM42.96 30.88v-1.51c0-.05.02-.07.07-.07h4.04c.1 0 .13.04.12.13v.06c-.06.33-.12.57-.19.7-.28.55-.78.81-1.49.81l-2.43-.01c-.08 0-.12-.04-.12-.11Z" fill="#F89C49"/></svg>