<!-- by TradingView --><svg width="56" height="56" viewBox="0 0 56 56" xmlns="http://www.w3.org/2000/svg"><path fill="url(#a)" d="M0 0h56v56H0z"/><path d="M26.49 20.02c3.89-.1 7.7.19 11.45.83 2.72.47 5.1 1.16 7.15 2.07 3.05 1.35 4.68 2.97 4.9 4.85.07.66-.15 1.39-.66 2.2-.92 1.3-2.6 2.46-5.04 3.46-2.11.77-4.2 1.34-6.25 1.7a58.17 58.17 0 0 1-15.3.63c-4.3-.4-8.02-1.19-11.15-2.4-2.25-.86-3.86-1.93-4.83-3.2a3.5 3.5 0 0 1-.7-2.77c.16-.9.66-1.72 1.51-2.45 1.78-1.56 4.61-2.79 8.5-3.7 3.42-.72 6.9-1.13 10.42-1.22Z" fill="#fff"/><path d="M49.28 28c0 .98-.55 1.92-1.63 2.82-1.08.9-2.62 1.69-4.61 2.38-2 .69-4.3 1.22-6.92 1.6-2.6.36-5.32.55-8.15.55-2.82 0-5.54-.19-8.15-.56a37.5 37.5 0 0 1-6.91-1.6c-2-.68-3.54-1.47-4.62-2.37-1.08-.9-1.62-1.84-1.62-2.81 0-.98.54-1.91 1.62-2.81 1.08-.9 2.62-1.7 4.62-2.39 2-.68 4.3-1.22 6.91-1.59 2.61-.37 5.33-.56 8.15-.56 2.83 0 5.54.19 8.15.56 2.61.37 4.92.9 6.92 1.6 2 .68 3.53 1.48 4.61 2.38 1.08.9 1.63 1.83 1.63 2.8Z" fill="#005498"/><path d="M32.75 23.44c.66 0 1.2-.45 1.2-1 0-.56-.54-1.01-1.2-1.01-.67 0-1.2.45-1.2 1 0 .56.53 1.01 1.2 1.01ZM24.05 21.79c.99-.1 2.45-.17 4.38-.2l2.32-.07c.11 0 .17.05.17.17l-.01.17c0 .11-.06.17-.17.16l-6.68-.22h-.02v-.02ZM30.93 22.5c0 .07-.02.13-.05.16-.04.05-.1.07-.19.06a109.78 109.78 0 0 1-7.04-.22 109.96 109.96 0 0 1 7.04-.23c.1-.01.15 0 .2.05.02.04.04.1.04.17ZM30.9 23.34c0 .04-.01.07-.06.07h-.03c-4.48.01-6.72-.05-6.72-.18v-.02c0-.13 2.24-.2 6.72-.22h.03c.05 0 .07.02.07.06v.3Z" fill="#fff"/><path fill-rule="evenodd" d="M17.74 30.58v1.08c.01.21-.1.34-.31.34h-3.21c-.06 0-.12-.03-.17-.07L11.5 29.9a.18.18 0 0 1-.08-.15V24.3c0-.1.05-.14.15-.14l4.82-.03c1.11 0 2.08.1 2.91.3 1.35.35 2 .94 1.97 1.78-.02.22.04.24.16.05.48-.76 1.2-1.3 2.14-1.59 2.13-.66 4.29-.83 6.47-.51.1.01.16.07.2.16l.73 2c.02.08.02.15-.01.22l-.4.81c-.04.1-.02.15.07.18l.23.09c.08.03.1.08.08.17l-1.12 3.84c-.04.12-.12.17-.24.17h-.89c-1.5.02-2.62-.06-3.36-.22a6.36 6.36 0 0 1-1.91-.67 2.8 2.8 0 0 1-1.18-1.51.13.13 0 0 0-.1-.09.13.13 0 0 0-.13.03c-.54.53-1.22.84-2.03.92-.56.06-1.24.12-2.1.18-.08 0-.13.05-.13.14Zm7.7-4.19c.25-.3.6-.5 1.04-.61.38-.1.99-.21 1.8-.32.25-.04.78.04 1.62.22.06.01.12 0 .16-.06a.16.16 0 0 0 .03-.17l-.2-.57a.4.4 0 0 0-.36-.27c-2.08-.22-4.06 0-5.94.62-.37.12-.76.32-1.16.6-.46.33-.67.73-.63 1.2.03.46.29.84.76 1.13.62.38 1.3.66 2.03.82 1.56.34 3.27.45 5.1.32.13 0 .22-.07.26-.2l.27-.77a.12.12 0 0 0-.02-.12.11.11 0 0 0-.12-.04c-.78.18-1.59.22-2.43.15-1.04-.1-1.78-.39-2.21-.87-.32-.35-.32-.7 0-1.06Zm-9.91 1.37.04 1.14c0 .15-.07.23-.22.23l-3.23.12c-.08 0-.12-.04-.12-.12v-4.4c0-.08.05-.13.14-.13h1.48c1.35-.02 2.37 0 3.08.03a14 14 0 0 1 3.08.49c.52.15.88.4 1.1.73.26.41.1.76-.5 1.06-.67.33-1.4.54-2.2.64-.57.07-1.4.1-2.53.08-.08 0-.13.04-.12.13Zm-.1-2.35c0-.07.02-.1.09-.1h.27c.47 0 .88.08 1.2.23.34.14.5.32.5.53v.18c0 .2-.16.38-.5.53-.33.14-.73.21-1.2.21h-.28c-.06 0-.1-.03-.1-.1l.01-1.48Zm23.32 4.76c-.02-.4-.16-.45-.4-.13l-1.47 1.88c-.09.1-.17.1-.25 0l-1.34-1.82a.19.19 0 0 0-.2-.08.2.2 0 0 0-.15.14l-.13.42c-.1.35-.2.68-.28.88-.09.2-.16.33-.22.39a.59.59 0 0 1-.41.15c-.88-.01-2.05-.02-3.5 0-.06 0-.1-.04-.12-.08a.14.14 0 0 1-.02-.13l2.59-7.62c.04-.11.12-.17.23-.17h3.42c.24 0 .43.1.57.3l1.15 1.56c.03.05.09.08.15.07.06 0 .11-.02.15-.08l1.1-1.6a.53.53 0 0 1 .46-.25h3.36c.23 0 .37.11.44.34l1.49 5.17c.03.1 0 .18-.08.24l-2.56 2.11a.43.43 0 0 0-.05.06c-.04.04-.08.08-.12.08h-3.25c-.21 0-.34-.13-.38-.35-.12-.6-.16-1.18-.18-1.48Zm-2.97-3.7c-.04 0-.06 0-.06.04l-.58 2.56c-.01.07-.06.1-.13.1h-3.03a.2.2 0 0 1-.17-.08.2.2 0 0 1-.03-.2l1.44-4.16c.06-.17.17-.26.35-.26h2.77c.15 0 .27.06.36.18l1.51 2.07c.05.06.1.09.18.09a.2.2 0 0 0 .17-.1l1.4-2.04c.1-.13.21-.19.36-.19h2.83c.14 0 .23.07.27.2l1.21 4.2c.02.08.01.15-.03.21-.05.06-.11.1-.19.1h-2.9c-.15 0-.23-.08-.26-.22l-.48-2.38a.13.13 0 0 0-.1-.1.12.12 0 0 0-.12.04l-2.19 2.59c-.09.1-.18.1-.26 0a118 118 0 0 1-2.03-2.46.5.5 0 0 0-.3-.2Z" fill="#fff"/><defs><linearGradient id="a" x1="0" y1="23.65" x2="56" y2="23.65" gradientUnits="userSpaceOnUse"><stop stop-color="#0A3C65"/><stop offset="1" stop-color="#126098"/></linearGradient></defs></svg>