<!-- by TradingView --><svg width="56" height="56" viewBox="0 0 56 56" xmlns="http://www.w3.org/2000/svg"><path fill="#F0F3FA" d="M0 0h56v56H0z"/><path d="M5 32.69V35h3c.55 0 1-.46 1-1.02V33h7.94c1.86 0 2.48-.47 2.56-.7a5.63 5.63 0 0 1-2.25-3.3H9c-2.01 0-4 1.65-4 3.69Z" fill="url(#a)"/><path d="M37 23c-.55 0-1 .5-1 1.13V27h6v6h2.87c.62 0 1.13-.49 1.13-1.09V27h4c.55 0 1-.5 1-1.13V23H37Z" fill="url(#b)"/><path d="M35 27.5h-4V27h-8.3c0-1.17-1.2-3-2.2-3.42a2.87 2.87 0 0 1 1.7-.58h9.62A3.17 3.17 0 0 1 35 26.15v1.35Z" fill="url(#c)"/><path d="M22 27.9v-.58C22 25.4 19.54 23 17.66 23H5.96c-.53 0-.96.46-.96 1.03v6.66c1.24-1.58 2.16-2.22 4-2.22V27h7.92c.35 0 .88.3 1.08 1.1v.58C18 30.6 20.46 33 22.34 33h9.62c1.68 0 3.04-1.45 3.04-3.25V28.5h-4v.5h-7.92c-.35 0-.88-.3-1.08-1.1Z" fill="url(#d)"/><defs><linearGradient id="a" x1="5" y1="29" x2="19" y2="29" gradientUnits="userSpaceOnUse"><stop stop-color="#59BF86"/><stop offset=".68" stop-color="#00934D"/></linearGradient><linearGradient id="b" x1="36.1" y1="23" x2="51.94" y2="23" gradientUnits="userSpaceOnUse"><stop stop-color="#59BF86"/><stop offset=".68" stop-color="#00934D"/></linearGradient><linearGradient id="c" x1="21" y1="23" x2="35" y2="23" gradientUnits="userSpaceOnUse"><stop offset=".32" stop-color="#00934D"/><stop offset="1" stop-color="#59BF86"/></linearGradient><linearGradient id="d" x1="5" y1="23" x2="35" y2="23" gradientUnits="userSpaceOnUse"><stop stop-color="#00914D"/><stop offset=".48" stop-color="#00994E"/><stop offset="1" stop-color="#3CB97A"/></linearGradient></defs></svg>