<!-- by TradingView --><svg width="56" height="56" viewBox="0 0 56 56" xmlns="http://www.w3.org/2000/svg"><path fill="#F0F3FA" d="M0 0h56v56H0z"/><path d="m41.77 23 2.65 5.52a5.91 5.91 0 0 1-2.82 7.9 5.98 5.98 0 0 1-7.95-2.8L31 28.1 41.77 23ZM29 13.61l5.8-.58a5.67 5.67 0 0 1 6.17 5.13 5.7 5.7 0 0 1-5.06 6.26l-5.8.58L29 13.61ZM15 22.55l1.28-5.91a5.93 5.93 0 0 1 11.59 2.45L26.59 25 15 22.55ZM19.9 39l-5.66-2.95a5.7 5.7 0 0 1-2.45-8.01 6.5 6.5 0 0 1 8.54-2.3L26 28.7 19.9 39ZM37 39.1l-4.7 4.29a6.15 6.15 0 1 1-8.3-9.1L28.7 30l8.3 9.1Z" fill="#ED1B24"/></svg>