<!-- by TradingView --><svg width="56" height="56" viewBox="0 0 56 56" xmlns="http://www.w3.org/2000/svg"><path fill="#F0F3FA" d="M0 0h56v56H0z"/><path d="M11.05 35A9.94 9.94 0 0 1 9 29.38c-.18-7 7.29-13.62 17.31-15.1 1.25-.18 2.49-.27 3.69-.28 6.39-.03 11.98 2.34 15 5.99h-1.47c-2.89-3.11-7.87-5-13.53-5-1.17 0-2.36.08-3.57.26C17.1 16.62 9.97 22.95 10 29.5c0 1.86.5 3.74 1.05 5.5Z" fill="#F0721B"/><path d="M46.98 26C47.62 36.72 35.04 42 26 42c-6.4 0-11.97-2.3-15-6h1.5c2.9 3.15 7.85 4.97 13.5 5 9.33.04 18.83-5.42 20.98-15Z" fill="#0A94DC"/><path d="m24 24 22.46-3c.18-.02.54.06.54.58 0 .53-.29.72-.93 1.13l-.45.3c-.96.64-8.62 6.53-8.62 11.81v2.88c-2-.09-6.68-.27-9.17-.27-2.48 0-6.92.38-8.83.57v-2.64a36.1 36.1 0 0 1 10.5-7.48c5.24-2.47 9.14-4.28 10.43-4.88L24 24.91V24Zm12 12.8V35c-3.01.13-9.83.7-13 2 2.57-.26 8.77-.65 13-.2Z" fill="#0A94DC"/><path d="M19 22.03 23 21v5.47L19 27v-4.97Z" fill="#F0721B"/><path d="m16 24.51 2-.51v2.73L16 27v-2.49Z" fill="#0A94DC"/><path d="M18 31.84 16 32v-3.78l2-.22v3.84Z" fill="#F0721B"/><path d="m19 27.48 4-.48v3.13A12.01 12.01 0 0 0 19 34v-6.52Z" fill="#0A94DC"/></svg>