<!-- by TradingView --><svg width="56" height="56" fill="none" xmlns="http://www.w3.org/2000/svg"><path fill="#F0F3FA" d="M0 0h56v56H0z"/><path d="M13 19.607v9.575l3 1.745v-9.46l12.028-6.67L40 21.467v5.655L28.169 33.82 23 30.927V25.35l5.028-2.944 2.976 1.745-6.068 3.518 3.233 1.877 9.646-5.395-9.787-5.55L20 23.39v9.466l8.028 4.708L43 29.181v-9.575L28.028 11 13 19.607Z" fill="#DA2128"/><path d="M13 36.118V32.25l15 8.758V45l-15-8.882Z" fill="#FCAF17"/><path d="M43 36.118V32.25l-15 8.758V45l15-8.882Z" fill="#0067AC"/></svg>