<!-- by TradingView --><svg width="56" height="56" viewBox="0 0 56 56" xmlns="http://www.w3.org/2000/svg"><path fill="#F0F3FA" d="M0 0h56v56H0z"/><path d="M17.79 12H38.2A2.83 2.83 0 0 1 41 14.87v26.26A2.83 2.83 0 0 1 38.21 44H33v1h5.54c1.9 0 3.46-1.6 3.46-3.57V14.57A3.52 3.52 0 0 0 38.54 11H17.46A3.52 3.52 0 0 0 14 14.57v26.86A3.52 3.52 0 0 0 17.46 45H23v-1h-5.21A2.83 2.83 0 0 1 15 41.13V14.87A2.83 2.83 0 0 1 17.79 12Z" fill="#0B34C0"/><path d="M37.98 15.14c-.37.63-1.2.86-1.9.86-.86 0-2.08-.46-2.08-1.5s1.22-1.5 2.09-1.5c.7 0 1.54.24 1.91.88h-1a1.3 1.3 0 0 0-.94-.38c-.56 0-1.06.33-1.06.98 0 .7.52 1.02 1.11 1.02.38 0 .63-.14.87-.36h1ZM27 16v-2.48h-1V13h3v.52h-1V16h-1ZM22 16v-3h3v.52h-2v.74h1.9v.51H23v.71h2V16h-3ZM30 16v-3h3v.52h-2v.74h1.9v.51H31v.71h2V16h-3ZM18 16v-3h1.24c1.12 0 1.76.43 1.76 1 0 .64-.6 1-1.76 1H19v1h-1Zm1-1.52h.24c.6 0 .89-.07.89-.48 0-.27-.3-.48-.89-.48H19v.96Z" fill="#0B34C0"/><path d="M18 18v.22c3.52.69 6 5.36 6 11.37V45h3V18h-9Z" fill="#C60001"/><path d="M38 18v.22c-3.52.69-6 5.36-6 11.37V45h-3V18h9Z" fill="#0B34C0"/></svg>