<!-- by TradingView --><svg width="56" height="56" viewBox="0 0 56 56" xmlns="http://www.w3.org/2000/svg"><path fill="#F0F3FA" d="M0 0h56v56H0z"/><path d="m28 10 16 9.11V22h-6.2a11 11 0 0 0-19.6 0H12v-2.89L28 10ZM28 46l16-9.11V34h-6.2a11 11 0 0 1-19.6 0H12v2.89L28 46Z" fill="red"/><path d="M44 24v8h-3v-2.36l-4-2.7V32h-3v-8h3l4 2.72V24h3ZM30 30v-1.5h-1V27h4v5h-2.54C27.52 32 23 30.77 23 27.13c0-2.47 2.78-3.13 4.78-3.13H32l1 2h-4.49c-1.02 0-2.51.03-2.51 1.32 0 1.85 2.4 2.62 4 2.68ZM16 30.23V32h-3v-5.5h3v1.66c.67-.22 3-.64 3-1.55 0-.7-1.17-.6-1.62-.61H12l.77-2h5.1c1.4 0 4.13.25 4.13 2.2 0 1.6-1.97 2.52-3.19 3.05-.78.34-1.66.66-2.81.98Z" fill="#0054A6"/></svg>