<!-- by TradingView --><svg width="56" height="56" viewBox="0 0 56 56" xmlns="http://www.w3.org/2000/svg"><path fill="#F0F3FA" d="M0 0h56v56H0z"/><path d="m48 17.02-6.47 4.76c1.64-2.38 3.87-5.44 4.63-5.44 1.16 0 1.71.46 1.84.68ZM44.89 14.78l-3.81 6.78c.48-2.76 1.21-6.36 1.89-6.66 1.03-.46 1.7-.28 1.92-.12ZM41.37 14.01l-.85 7.37c-.61-2.61-1.32-6.05-.83-6.56.75-.78 1.43-.86 1.68-.8ZM37.89 14.66l2.17 6.66c-1.56-1.96-3.47-4.72-3.26-5.34.32-.95.86-1.28 1.09-1.32ZM34.93 16.61l4.79 5c-2.25-1.13-5.15-2.7-5.22-3.35-.1-1 .24-1.51.43-1.65ZM33.4 19.56l5.94 2.52c-2.36-.12-5.3-.37-5.62-.9-.5-.84-.43-1.43-.32-1.62ZM33 22.72l6.06-.02c-2.08.76-4.69 1.63-5.17 1.28-.75-.52-.9-1.06-.89-1.26ZM34.1 25.6l5.15-2.44c-1.46 1.48-3.33 3.26-3.88 3.16-.85-.15-1.2-.55-1.28-.73ZM45.82 21.22l-4 1.07c1.23-.87 2.8-1.9 3.19-1.75.58.21.78.54.8.68ZM46.2 23.64l-4.3-.81c1.58-.26 3.56-.51 3.85-.2.46.47.49.87.45 1.01ZM45.46 25.82l-3.68-2.53c1.58.41 3.54.98 3.69 1.39.22.63.08 1.02-.01 1.14ZM43.81 27.92l-2.48-4.21c1.39 1.13 3.08 2.6 3.03 3.07-.07.74-.4 1.06-.55 1.14ZM41.43 28.97l-.63-5.06c.87 1.66 1.88 3.75 1.63 4.19-.38.67-.82.86-1 .87ZM38.58 28.97l1.49-5.16c.17 1.96.3 4.4-.13 4.73-.66.5-1.18.5-1.36.43ZM36.1 27.76l3.48-4.21c-.63 1.9-1.5 4.22-2.03 4.36-.82.2-1.3-.01-1.45-.15Z" fill="#FD872E"/><path fill-rule="evenodd" d="M17.56 31c-.59 0-1.1.41-1.26 1L15 37h4.44c.59 0 1.1-.41 1.26-1l1.3-5h-4.44Zm.8 1.5c-.5 0-.94.37-1.07.9l-.58 2.1h1.92c.5 0 .95-.37 1.08-.9l.58-2.1h-1.92Z" fill="#008742"/><path d="M25 31h-1.44L22 37h4.44c.59 0 1.1-.41 1.26-1l1.3-5h-1.5l-.87 3.6c-.14.53-.58.9-1.08.9H23.9L25 31ZM41.54 37h-1.59l.61-2.5H38.2l-.33 1.38A1.41 1.41 0 0 1 36.52 37H36l1.46-6h1.59l-.5 2h2.38l.21-.88c.16-.66.71-1.12 1.34-1.12H43l-1.46 6ZM30.44 31 30 32.5h2.06L30.95 37h.52c.65 0 1.2-.46 1.37-1.12l.84-3.38h1.03c.5 0 .96-.35 1.11-.87L36 31h-5.56ZM26.3 23c.16-.59.67-1 1.26-1H32l-.36 1.5h-3.27c-.48 0-.9.42-1.06.9h4.11L30.7 27c-.16.59-.67 1-1.26 1H25l.46-1.5h3.17c.5 0 .94-.26 1.08-.78H25.6l.7-2.72ZM9.3 32c.16-.59.67-1 1.26-1H15l-.36 1.5h-3.27c-.48 0-.9.42-1.06.9h4.11L13.7 36c-.16.59-.67 1-1.26 1H8l.46-1.5h3.17c.5 0 .94-.26 1.08-.78H8.6L9.3 32Z" fill="#008742"/><path fill-rule="evenodd" d="M23.44 28H22l.36-1.5H20l-.36 1.5H18l1.3-5c.16-.59.67-1 1.26-1H25l-1.56 6Zm-3.08-2.98.15-.62c.13-.53.57-.9 1.07-.9h1.5l-.36 1.52h-2.36Z" fill="#008742"/><path d="M13.56 22c-.59 0-1.1.41-1.26 1L11 28h4.44c.59 0 1.1-.41 1.26-1l.7-2.5H15v1.14h.73l-.02.07c-.13.53-.53.79-1.03.79h-1.92l.53-2.2c.13-.54.57-.8 1.08-.8h3.27L18 22h-4.44Z" fill="#008742"/></svg>