<!-- by TradingView --><svg width="56" height="56" viewBox="0 0 56 56" xmlns="http://www.w3.org/2000/svg"><path fill="#F0F3FA" d="M0 0h56v56H0z"/><path d="M23.07 35H10c15.4-8.24 24.76-9.58 30-9.63l-.07.5C30.46 26.98 25.77 31.9 23.07 35Z" fill="#FD6813"/><path d="M18.09 35H5c15.41-7.9 29.76-9.96 35-10l-.07.47c-11 .52-19.14 6.57-21.84 9.53Z" fill="#1FA4E5"/><path d="M28 21v2.5h.53c.08-.74.2-1.25.52-1.63.25-.29.67-.36 1.07-.36H32v7.76c0 1.21-1.02 1.35-2 1.35V31h6v-.38c-1.06 0-2-.05-2-1.35v-7.76c.75 0 1.5.02 2.24 0 .28.04.55.16.72.36.33.38.44.89.53 1.64H38V21H28ZM16 26.04c0-3.01 2.76-5.04 5.86-5.04 1.17 0 2.07.25 3.4 1.21l.39-1.2H26V24h-.42a3.87 3.87 0 0 0-3.52-2.65c-2.6 0-4.06 2.19-4.06 4.65 0 2.88 1.63 4.54 4.31 4.54.89 0 2.69-.68 2.69-1.66v-.54c0-.43-.16-.71-.47-.84-.2-.09-.92-.13-1.53-.14V27h5v.36c-.58.02-.96.12-1.15.3-.19.17-.28.5-.28.99v1.67c-.43 0-.97.02-1.8.22-.82.2-1.75.46-2.77.46-3.14 0-6-1.85-6-4.96ZM9 26c2.05-.03 5 .25 5-2.25 0-1.32-1.34-2.44-2.83-2.44-.38 0-1.76-.07-1.93 0-.16.07-.24.26-.24.46V26Zm-4 4.62c1.08-.05 2-.08 2-1.35v-6.54c0-1.28-.9-1.26-2-1.35V21h6.07c2.02 0 4.93.3 4.93 2.75 0 1.85-2.17 2.6-3.83 2.7-.57.04-2.05.06-3.17.06v2.76c0 1.38 1.14 1.32 2.28 1.35V31H5v-.38Z" fill="#1B319C"/><circle cx="45.5" cy="25.5" r="5.5" fill="#1FA4E5" fill-opacity=".5"/><path d="M43.2 27.8a4.97 4.97 0 0 1-2.2-.36l.06-.14c.3-.71.73-1.32 1.26-1.8a4.97 4.97 0 0 1-1.26-1.8l-.06-.14c.72-.3 1.47-.41 2.2-.37-.05-.72.07-1.47.36-2.19l.14.06c.71.3 1.32.73 1.8 1.26a4.97 4.97 0 0 1 1.8-1.26l.14-.06c.3.72.41 1.47.37 2.2.72-.05 1.47.07 2.19.36l-.06.14c-.3.71-.73 1.32-1.26 1.8.53.48.97 1.09 1.26 1.8l.06.14c-.72.3-1.47.41-2.2.37.05.72-.07 1.47-.36 2.19l-.14-.06c-.71-.3-1.32-.73-1.8-1.26-.48.53-1.09.97-1.8 1.26l-.14.06a4.97 4.97 0 0 1-.37-2.2Z" fill="#FD6813"/><path fill="#1B319C" fill-opacity=".5" d="M25 33h26v2H25z"/></svg>