<!-- by TradingView --><svg width="56" height="56" viewBox="0 0 56 56" xmlns="http://www.w3.org/2000/svg"><path fill="#F0F3FA" d="M0 0h56v56H0z"/><path d="m28 9 18 31H10L28 9Z" fill="#00873A"/><path d="m28 19 .7 2H31l-1.85 1.7.7 2.3L28 23.58 26.15 25l.7-2.3L25 21h2.3l.7-2ZM43 37v1.8c-.23.09-.69.2-1.11.2-1.16 0-1.9-.8-1.89-1.96 0-1.34.88-2.04 1.98-2.04.42 0 .75.09.91.17l-.16.7a1.6 1.6 0 0 0-.74-.15c-.64 0-.99.4-.99 1.3 0 .85.3 1.28.89 1.28.15 0 .28-.02.33-.04v-.59h-.5V37H43ZM37 39h-1v-4h.94L38 37v-2h1v4h-.87L37 37v2ZM26.83 38.18l.12.68c-.15.06-.5.14-.94.14-1.33 0-2.01-.83-2.01-1.94 0-1.37.98-2.06 2.1-2.06.43 0 .76.08.9.15l-.18.68a1.67 1.67 0 0 0-.67-.12c-.66 0-1.15.4-1.15 1.3 0 .82.42 1.27 1.16 1.27.24 0 .5-.04.67-.1ZM20 35h1v2.05c0 .65.1.95.5.95s.5-.28.5-.95V35h1v2.27c0 1.16-.55 1.73-1.53 1.73-.96 0-1.47-.56-1.47-1.73V35ZM32 35h1v2.05c0 .65.1.95.5.95s.5-.28.5-.95V35h1v2.27c0 1.16-.55 1.73-1.53 1.73-.96 0-1.47-.56-1.47-1.73V35ZM16.5 35h1v1.56h1V35h1v4h-1v-1.67h-1V39h-1v-4ZM28 35h1v1.56h1V35h1v4h-1v-1.67h-1V39h-1v-4ZM13 39v-3.92c.3-.04.7-.08 1.23-.08.59 0 1.02.1 1.32.32.28.2.45.53.45.9 0 .4-.15.73-.4.95-.33.27-.82.4-1.35.4H14V39h-1Zm1-3.3v1.19l.24.01c.5 0 .76-.24.76-.64 0-.36-.2-.6-.69-.6-.16 0-.24.02-.31.04Z" fill="#FFD600"/></svg>