<!-- by TradingView --><svg width="56" height="56" fill="none" xmlns="http://www.w3.org/2000/svg"><path fill="#F0F3FA" d="M0 0h56v56H0z"/><path fill-rule="evenodd" clip-rule="evenodd" d="M42.294 37.067C45.916 34.653 48 31.427 48 28c0-3.428-2.084-6.653-5.706-9.067C38.68 16.523 33.63 15 28 15c-5.63 0-10.68 1.523-14.294 3.933C10.084 21.347 8 24.573 8 28c0 3.428 2.084 6.653 5.706 9.067C17.32 39.477 22.37 41 28 41c5.63 0 10.68-1.523 14.294-3.933ZM28 42c11.598 0 21-6.268 21-14s-9.402-14-21-14S7 20.268 7 28s9.402 14 21 14Z" fill="#3B68B1"/><path fill-rule="evenodd" clip-rule="evenodd" d="M42.162 36C45.171 33.877 47 31.073 47 28c0-6.627-8.507-12-19-12-1.577 0-3.11.121-4.576.35v4.612l.576.294v2.409L21.546 25h-3.76L15 23.665v-2.409l.59-.266h-.015v-2.069C11.548 21.121 9 24.373 9 28c0 3.073 1.83 5.877 4.838 8h28.324Zm-1.594 1H15.432c3.35 1.867 7.75 3 12.568 3 4.819 0 9.218-1.133 12.568-3ZM16 18.696v1.292l.942-.69.058-.044h1V18h3v1.254h.857l1.143.69V16.42c-2.597.446-4.972 1.231-7 2.276Zm5.73.96 1.27.766v.323L21.546 20h-3.76L16 20.806v-.308l1.148-.842h4.582ZM34 26l.437-6.359a.685.685 0 0 1 .68-.641c.369 0 .67.295.682.667L36 26h-2Zm-16.394 9H23v-2h-2.945c-.87 0-2.055-.36-2.055-2 0-1.342 1.186-2 2.055-2H23v-3h-3v1h-2.394C15.062 27 13 28.62 13 30.89S15.062 35 17.606 35ZM24 27v8h4v-3h1v3h4v-8h-4v3h-1v-3h-4Zm10 0h11l-4.85 6.077L41.362 35H34v-8Zm4.937 3.304c.558 0 1.01-.422 1.01-.942s-.452-.942-1.01-.942-1.01.421-1.01.942c0 .52.452.942 1.01.942ZM27 19.834v1.56l6.317-.753L27 19.833Zm9.906.78L42 20.398v1.346l-5.094-1.13ZM21.5 22.5a2 2 0 1 1-4 0 2 2 0 0 1 4 0Zm-.5 0a1.5 1.5 0 1 1-3 0 1.5 1.5 0 0 1 3 0Z" fill="#3B68B1"/></svg>