<!-- by TradingView --><svg width="56" height="56" viewBox="0 0 56 56" xmlns="http://www.w3.org/2000/svg"><path fill="#F0F3FA" d="M0 0h56v56H0z"/><path fill-rule="evenodd" d="M37 36.06a8.06 8.06 0 1 0 0-16.12 8.06 8.06 0 0 0 0 16.12ZM37 38a10 10 0 1 0 0-20 10 10 0 0 0 0 20Z" fill="#9C7531"/><path fill-rule="evenodd" d="M19 36.06a8.06 8.06 0 1 0 0-16.12 8.06 8.06 0 0 0 0 16.12ZM19 38a10 10 0 1 0 0-20 10 10 0 0 0 0 20Z" fill="#9C7531"/><path fill-rule="evenodd" d="M36.06 19a8.06 8.06 0 1 0-16.12 0 8.06 8.06 0 0 0 16.12 0ZM38 19a10 10 0 1 0-20 0 10 10 0 0 0 20 0Z" fill="#9C7531"/><path fill-rule="evenodd" d="M36.06 37a8.06 8.06 0 1 0-16.12 0 8.06 8.06 0 0 0 16.12 0ZM38 37a10 10 0 1 0-20 0 10 10 0 0 0 20 0Z" fill="#9C7531"/><path d="M18 18.7v.07A8.28 8.28 0 0 1 10.06 27v2a8.28 8.28 0 0 1 7.92 7.7h2a10.22 10.22 0 0 0-5.87-8.7A10.21 10.21 0 0 0 20 18.7h-2ZM38.06 18.92v.07A8.17 8.17 0 0 0 46 27.03v1.95a8.2 8.2 0 0 0-7.92 7.52h-2.01a9.99 9.99 0 0 1 5.87-8.5 9.97 9.97 0 0 1-5.88-9.08h2Z" fill="#9C7531"/><path d="M18.7 38h.07A8.28 8.28 0 0 1 27 45.94h2a8.28 8.28 0 0 1 7.7-7.92v-2c-3.85.2-7.13 2.54-8.7 5.87A10.21 10.21 0 0 0 18.7 36v2ZM18.7 18h.07A8.28 8.28 0 0 0 27 10.06h2a8.28 8.28 0 0 0 7.7 7.92v2a10.22 10.22 0 0 1-8.7-5.87A10.21 10.21 0 0 1 18.7 20v-2Z" fill="#9C7531"/></svg>