<!-- by TradingView --><svg width="56" height="56" viewBox="0 0 56 56" xmlns="http://www.w3.org/2000/svg"><path fill="#F0F3FA" d="M0 0h56v56H0z"/><path d="M12.04 41 10 39.26C15.46 34.58 21.2 31 30.5 31c7.44 0 12.77 2.21 14.5 3.32-2.1-.6-7.3-1.82-11.2-1.82-10.28 0-18.79 5.67-21.76 8.5Z" fill="#1A75BB"/><path d="M35.06 33c6.36 0 12.61 2.41 14.94 3.62-3.22-.95-8.31-2.62-14.19-2.62-10.95 0-18.36 5.25-20.7 8L14 41.13C19.45 35.96 27.1 33 35.06 33Z" fill="#1A75BB"/><path d="M42.81 36H44l-2.5 7h-2L37 36h1.2l2.3 6.5 2.31-6.5ZM36 36v7h-1v-7h1Z" fill="#1A75BB"/><path d="M28 43v-7h3.03c1.7 0 2.97.07 2.97 2 0 1.8-.88 2-2.6 2H29v3h-1Zm1-4h2.5c.98 0 1.5.08 1.5-.97 0-1.06-.3-1.03-1.35-1.03H29v2ZM29 29.97a33.56 33.56 0 0 1 3 .04V14.17l-3-4.14v19.94Z" fill="#FFD33F"/><path d="M23 30.62c1.71-.35 3.56-.57 5.57-.64V10L23 15.54v15.08ZM19.6 31.75a25.5 25.5 0 0 1 2.4-.77V19.45l-2.4-3.4v15.7Z" fill="#1A75BB"/><path d="M15 34a27.53 27.53 0 0 1 4.33-2.15v-15.8L15 20.57V34ZM36 17v13.44c-.96-.16-1.91-.29-3-.38v-9.74L36 17Z" fill="#FFD33F"/><path d="M36.3 17v13.48c.6.1 1.16.22 1.7.35V19.48L36.3 17Z" fill="#1A75BB"/></svg>