<!-- by TradingView --><svg width="56" height="56" viewBox="0 0 56 56" xmlns="http://www.w3.org/2000/svg"><path fill="#F0F3FA" d="M0 0h56v56H0z"/><path d="M48 39H8v-1h40v1ZM17.4 15 34 21.82 33.61 23l-16.07-6.6-8.92 6.54L8 21.88 17.4 15Z" fill="#173875"/><path d="M31.4 15 48 20.97 47.61 22l-16.07-5.77-8.92 5.71-.62-.92L31.4 15ZM44 25v4h.3c.34 0 .57-.06.63-.42.06-.36.11-.4.14-.48a.2.2 0 0 1 .18-.1c.4 0 .62.02.67.05.05.03.08.16.08.37v2.2c0 .16-.02.26-.07.31-.05.05-.2.07-.47.07-.17 0-.28-.03-.34-.09s-.11-.24-.16-.53c-.06-.27-.32-.38-.6-.38H44v5c.96 0 1.19-.97 1.3-1.34.1-.27.18-.45.27-.53.09-.09.24-.13.47-.13.3 0 .46.1.46.3l-.03.26-.28 1.8c-.05.3-.09.49-.12.55-.03.06-.13.09-.3.09h-4.98c-.12 0-.2-.03-.24-.08a1.34 1.34 0 0 1-.05-.5c0-.41.5-.39.5-.85V25.3c0-.1.02-.19-.2-.28-.14-.07-.23-.13-.26-.19s-.04-.2-.04-.43c0-.2.02-.3.04-.34.03-.04.12-.06.27-.06h4.9c.11 0 .2.02.25.06.06.04.1.13.13.28l.38 1.92.03.2c0 .13-.12.2-.36.2-.27 0-.45-.03-.54-.09-.09-.06-.17-.22-.26-.47-.1-.3-.34-1.1-.55-1.1H44ZM37 35h.4c.22 0 .38-.09.49-.26.1-.17.24-.59.42-1.22.06-.24.13-.39.22-.44a.86.86 0 0 1 .43-.08c.23 0 .38.02.44.06.07.03.1.1.1.2 0 .07-.01.18-.04.33l-.26 1.96a.82.82 0 0 1-.12.36c-.05.06-.14.09-.29.09h-4.97c-.21 0-.32-.13-.32-.39 0-.2.01-.32.04-.38s.09-.1.18-.13c.29-.09.28-.35.28-.78v-8.83c0-.43-.31-.3-.45-.61a1.05 1.05 0 0 1-.05-.4c0-.21.02-.35.05-.4.03-.05.1-.08.24-.08h3.37c.13 0 .22.03.26.1.05.06.08.22.08.5 0 .16-.02.27-.05.33-.18.32-.45.13-.45.64V35ZM29.67 33.44h-1.84c-.04.35-.16.77-.16 1.13 0 .18.12.33.35.46.12.06.2.13.23.2s.04.18.04.34c0 .2-.01.33-.04.37-.01.04-.07.06-.15.06h-1.94c-.1 0-.16-.11-.16-.34 0-.27.09-.5.26-.66a.84.84 0 0 0 .28-.5l1.36-8.75.03-.34c0-.16-.07-.3-.28-.41-.1-.06-.15-.2-.15-.4 0-.27.01-.44.04-.5.03-.07.11-.1.24-.1h2.77c.18 0 .3.08.36.25.07.16.14.52.21 1.07.4 2.93.86 5.87 1.3 8.8.05.4.2.7.43.9.06.06.1.1.12.14.02.03.03.13.03.29 0 .25-.02.4-.05.47-.04.05-.1.08-.22.08h-3.08c-.1 0-.15-.1-.15-.28 0-.24.01-.39.04-.45.02-.06.1-.13.21-.2.3-.2-.05-1.4-.08-1.63Zm-.89-6.64-.81 5.78h1.61l-.8-5.78ZM21 29h1.5v-3.6c0-.28-.12-.25-.33-.38-.11-.06-.17-.2-.17-.42 0-.28.01-.44.04-.5.02-.07.1-.1.2-.1h3.45c.15 0 .23.03.26.08.04.05.05.22.05.5 0 .18-.02.29-.05.32-.27.26-.45.18-.45.63v8.9c0 .23.02.42.24.56.17.1.26.2.26.3v.46c0 .1-.02.17-.05.2-.03.04-.11.05-.26.05h-3.45c-.11 0-.18-.02-.2-.06a1.94 1.94 0 0 1-.04-.55c0-.16.07-.3.2-.39.16-.1.3-.23.3-.38V30H21v4.67c0 .16.17.28.3.38.13.1.2.25.2.44 0 .26-.02.41-.05.45-.03.04-.09.06-.18.06h-3.54c-.1 0-.17-.02-.2-.07a1.86 1.86 0 0 1-.03-.52c0-.15.01-.24.04-.29.02-.04.1-.1.2-.16.22-.11.26-.26.26-.44v-8.99c0-.14-.04-.28-.22-.4a.66.66 0 0 1-.28-.58c0-.26.02-.42.06-.47.05-.05.14-.08.29-.08h3.3c.13 0 .22.02.27.07.05.05.08.16.08.33v.35c-.01.09-.07.17-.19.24-.15.08-.31.22-.31.42V29ZM13 32v2.39c0 .52.23.41.42.75.05.07.08.21.08.42 0 .2-.03.32-.08.37-.06.05-.17.07-.34.07h-3.3c-.19 0-.28-.16-.28-.47 0-.25.01-.4.04-.45.13-.3.46-.1.46-.53v-8.98c0-.21 0-.39-.27-.51a.38.38 0 0 1-.22-.35l-.01-.35c0-.14.02-.24.05-.29.05-.05.13-.07.27-.07h3.8c2.32 0 3.38 1.73 3.38 3.96 0 2.1-.75 4.04-2.93 4.04H13Zm0-7v6h.5c.61 0 .5-.82.5-1.27V26.3c0-.83-.14-1.3-.72-1.3H13Z" fill="#173875"/></svg>