<!-- by TradingView --><svg width="56" height="56" viewBox="0 0 56 56" xmlns="http://www.w3.org/2000/svg"><path fill="#F0F3FA" d="M0 0h56v56H0z"/><path d="M13 20a6 6 0 0 1 6-6h24v22a6 6 0 0 1-6 6H13V20Z" fill="#0D5CAB"/><path d="M21.03 28.6 21 19.36A2.34 2.34 0 0 1 23.35 17H28c1.64 0 2.83.09 3.8.83.96.72 1.61 1.94 1.72 3.17.2 2.21-1.8 4-4.02 4a4.59 4.59 0 0 0-4.5 4.59A4.4 4.4 0 0 0 29.25 34c.42 0 .44.03.44.76 0 1.55.31 3.24 1.55 4.24H21l.03-10.4Z" fill="#F58026"/><path d="M28.06 32.7c-2.33-1.06-2.8-3.95-.93-5.6.74-.67 1.13-.81 2.65-.97 2.08-.21 3.3-1.02 4.2-2.8.58-1.13.61-2.78.08-3.95a2.7 2.7 0 0 1-.27-.82c.17-.19 1.83 2.07 2.28 2.9A8.2 8.2 0 0 1 37 25.4c-.03 2.73-1.16 5.43-3.66 6.69-1.2.6-2.56.92-3.71.91-.6 0-1.14-.1-1.57-.3Z" fill="#F58026"/><path d="M36.34 22.02c.45 1.05.67 2.22.66 3.38a8.73 8.73 0 0 1-1.53 5c-.57.63-1.27 1.19-1.43 1.08-.11-.06-.14-.04-.1.05.05.08-.12.27-.4.42l-.49.28.77-.68-.38.09c-1 .25-2.13.26-2.78.08l-.27-.08-.58-.16c-.77-.09-2.27-1.26-2.84-2.22-.21-.34-.44-.6-.5-.54-.07.04-.14.48-.16.96l-.03.89-.05-.77A3.36 3.36 0 0 1 28 26.52c.3-.14 1.1-.3 1.8-.39l.4-.05c1-.15 1.8-.46 2.44-.99a5.15 5.15 0 0 0 1.89-3.76c.06-.66.12-1.06.13-.9 0 .15.17.34.38.41.41.18.87.58 1.24 1.1l.07.08Z" fill="#F99523"/><path d="M31.01 30.02a4.1 4.1 0 0 1-2.9-2.2 3.6 3.6 0 0 1-.38-.99c0-.34.63-.54 2.1-.7 2.06-.21 3.3-1.04 4.16-2.8l.42-.84.57.66a4.31 4.31 0 0 1 .74 4.35 4.36 4.36 0 0 1-4.7 2.52Z" fill="#FECD49"/></svg>