<!-- by TradingView --><svg width="56" height="56" viewBox="0 0 56 56" xmlns="http://www.w3.org/2000/svg"><path fill="#F0F3FA" d="M0 0h56v56H0z"/><path fill="#ED1B24" d="M12 12h32v32H12z"/><path fill="#fff" d="M13 13h30v30H13z"/><path d="m42 28-2 2h2v-2Zm-3 3-2 2h2v3h-3v-2l-2 2h2v3h-3v-2l-2 2h2v3h3v-3h3v3h3v-3h-3v-3h3v-3h-3v-2Zm-9 9-2 2h2v-2Zm-2 2-2-2v2h2Zm-3-3-2-2v2h-3v-3h2l-2-2v2h-3v-3h2l-2-2v2h-3v3h3v3h-3v3h3v-3h3v3h3v-3h2Zm-9-9-2-2v2h2Zm12-16h-2v2l2-2Zm-3 3h-2v-3h-3v3h-3v-3h-3v3h3v3h-3v3h3v2l2-2h-2v-3h3v2l2-2h-2v-3h3v2l2-2Zm-9 9h-2v2l2-2ZM30 21.07A4.54 4.54 0 0 1 34.48 17C36.8 17 39 19.29 39 21.64A4.45 4.45 0 0 1 34.48 26c-.87 0-1.74-.56-2.48-1v2.33c.72.37 1.17.67 2.48.67 3.76 0 6.52-2.6 6.52-6.36 0-3.67-2.9-6.64-6.52-6.64A6.53 6.53 0 0 0 28 21.3V40l2-2.33v-16.6Z" fill="#ED1B24"/></svg>