<!-- by TradingView --><svg width="56" height="56" viewBox="0 0 56 56" xmlns="http://www.w3.org/2000/svg"><path fill="#F0F3FA" d="M0 0h56v56H0z"/><path fill-rule="evenodd" d="M28 6c-.7 4.43-3.9 7.06-7.24 9.81-4.25 3.5-8.76 7.22-8.76 15.13C12 42.74 22.67 45.9 28 46c5.33-.1 16-3.26 16-15.06 0-7.9-4.51-11.62-8.76-15.13C31.89 13.06 28.7 10.43 28 6Zm0 38a13 13 0 1 0 0-26 13 13 0 0 0 0 26Z" fill="#F58220"/><path d="M36 36v-6l-1.5 6h-3L30 30v6h-3V26h4.15l1.87 6.96L34.85 26H39v10h-3ZM26 29c0 2.27-1.68 3-3.69 3H21v4h-3V26h4.16c2.08 0 3.84.65 3.84 3Zm-3 0c0-.98-.55-1-1.44-1H21v2h.5c.88 0 1.5 0 1.5-1ZM31.52 41c-.97 0-1.51-.5-1.52-1.34h.8c0 .47.25.63.75.63.4 0 .45-.15.45-.44 0-.33-.22-.4-.48-.46l-.28-.06c-.78-.14-1.24-.54-1.24-1.2 0-.75.77-1.13 1.43-1.13.93 0 1.54.44 1.57 1.25h-1c-.02-.37-.1-.54-.55-.54-.36 0-.45.13-.45.39s.07.37.5.46l.3.06c.84.17 1.2.52 1.2 1.17 0 .78-.55 1.21-1.48 1.21ZM30 41h-.98l-.23-.7h-1.62l-.22.7H26l1.43-4h1.1L30 41Zm-2.35-2.17-.22.68h1.1l-.23-.68a52 52 0 0 1-.32-1.02l-.33 1.02ZM24 39.5V39h2v2h-.66l-.12-.6c-.27.4-.7.6-1.3.6-1.16 0-1.92-.87-1.92-2 0-1.2.84-2 2.03-2 .87 0 1.84.44 1.97 1.38h-.97c-.12-.38-.5-.6-1-.6-.7 0-1.03.57-1.03 1.22 0 .67.37 1.22 1.08 1.22.45 0 .85-.26.92-.72h-1Z" fill="#F58220"/></svg>