<!-- by TradingView --><svg width="56" height="56" viewBox="0 0 56 56" xmlns="http://www.w3.org/2000/svg"><path fill="#F0F3FA" d="M0 0h56v56H0z"/><path d="M13.16 16c-1.2 0-2.16.98-2.16 2.2v19.6c0 1.22.97 2.2 2.16 2.2H16V26.3l.01-.08c.41-3 3.55-8.22 12.09-8.22 8.3 0 11.9 5.77 11.9 8.89 0 1.4-.64 2.79-.95 3.32l-1.7-1.12a5.1 5.1 0 0 0 .65-2.2c0-1.73-2.5-6.89-9.9-6.89-7.52 0-9.8 4.54-10.1 6.46V40h2V26.54c.4-3.9 4.58-5.54 8-5.54 3.25 0 8 2.16 8 6.01a5.2 5.2 0 0 1-.42 2c2.42.16 6.37 1.67 8.18 10.78A2.2 2.2 0 0 0 45 37.8V18.2c0-1.22-.97-2.2-2.16-2.2H13.16ZM33 29.37c.35-.5 1-1.6 1-2.36 0-2.67-3.94-4.01-6-4.01-4.81 0-5.87 2.71-6 3.66V40h4.41c.07-2.94-.5-7.95-3.41-8.4.3-.2 1.14-.6 2.18-.6 1.3 0 4.72 1.04 6.06 8.02-.08-2.76-.98-8.24-3.89-8.04.17-.32.91-.98 2.55-.98 2.05 0 5.57 2.17 6.9 9.02.03-3.09-.86-9.2-4.68-9 .1-.17.38-.43.88-.65Z" fill="#1794FE"/></svg>