<!-- by TradingView --><svg width="56" height="56" viewBox="0 0 56 56" xmlns="http://www.w3.org/2000/svg"><path fill="#F0F3FA" d="M0 0h56v56H0z"/><path d="M37 25c0-1.66 1.16-3 2.6-3H50v2H39.65c-.36 0-.65.33-.65.75v6.5c0 .42.29.75.65.75H46v2h-6.4c-1.44 0-2.6-1.34-2.6-3v-6Z" fill="#3B4A8B"/><path fill="#3BA540" d="M47 32h3v2h-3z"/><path d="M21 23.46c0-.8.6-1.46 1.35-1.46h.96c.37 0 .72.16.98.44L33 32V22h2v10.54c0 .8-.6 1.46-1.35 1.46h-1c-.38 0-.73-.16-1-.44L23 24v10h-2V23.46ZM6 22v12h2V24h9.17c.46 0 .83.4.83.9v1.2c0 .5-.37.9-.83.9H9v2h8.17c1.56 0 2.83-1.37 2.83-3.07v-.86c0-1.7-1.27-3.07-2.83-3.07H6Z" fill="#3B4A8B"/></svg>