<!-- by TradingView --><svg width="56" height="56" viewBox="0 0 56 56" xmlns="http://www.w3.org/2000/svg"><path fill="#F0F3FA" d="M0 0h56v56H0z"/><path d="M30.58 13.37a7.32 7.32 0 0 0-1.61-1.9l.57-.71c.38.3 1.25 1.13 1.83 2.16l-.8.45ZM28 46c-1.3-1.66-3.27-2.28-5.36-2.92-.83-.27-1.7-.53-2.54-.88-2.37-.96-4.78-3.81-5.68-5.12l-.77 1.49L13 32l5.45 3.96-1.9.39c2.07 2.4 5.56 4.2 6.52 4.2.76 0 1.6-.75 1.93-1.12l3 .38 3-.38c.32.37 1.17 1.12 1.93 1.12.96 0 4.45-1.8 6.52-4.2l-1.9-.39L43 32l-.65 6.57-.77-1.49c-.9 1.3-3.31 4.16-5.68 5.12-.85.35-1.7.61-2.54.88-2.09.64-4.05 1.26-5.36 2.92Z" fill="#0054A6"/><path d="M28.86 11.78a1.5 1.5 0 1 0-1.61 0v1.41h1.61v-1.41Zm0-1.27a.8.8 0 1 1-1.61 0 .8.8 0 0 1 1.61 0Z" fill="#0054A6"/><path d="M37.88 38.5a15.66 15.66 0 0 1-9.83 3.5c-3.7 0-7.1-1.33-9.78-3.47l-1.02.97c2.94 2.4 6.7 3.85 10.8 3.85 4.1 0 7.85-1.44 10.8-3.84l-.97-1.01Z" fill="#fff" fill-opacity=".7"/><circle cx="28" cy="26" r="14" fill="#fff"/><path d="m29.02 35.66-.02-.03.02.03c.07.07.2.02.25-.63.09-.91.15-1.51.28-1.75.12-.24.99-.58 1.79-1.1.8-.53 1.64-1.18 2-1.18.36 0-.31 1.17 0 1.17.32 0 .7-.28 1.27 0 .56.3 1.45 1.16 1.39 1.54-.05.3-.2 1-.28 1.32L34.3 36.2c-.37.33-1.1.94-1.16.77-.05-.17-.9-1.37-1.3-1.94-.3.2-1 .6-1.35.6-.44 0-1.02.58-1.46.03ZM32.75 16.51c.57-.13 2.4-.7 3.25-.96a44.42 44.42 0 0 0-4.6-.43c-.35 0-2.08-.39-2.63-.39h-2.34c-1.4 0-1.49-.43-1.99-.43s-2.18-.3-3.09-.3c-2.94 1.3-4.73 4.93-5.35 6-.62 1.07-1.68 2.78-1.68 3.36 0 1.03 1.03 1.5 1.43 2.03.41.53-1.53.25-1.72 1.08-.15.65.3 1.96.55 2.53.34-.33 1.06-1.04 1.17-1.26.12-.21.77-.94 1.08-1.27-.25-.21-.77-.66-.77-.83 0-.2 1.27-.52 1.82-.77s.31-1.03 0-1.08c-.3-.04-1.89-.9-1.82-1.25.08-.34 2.18.14 3.45 0S29.6 17.29 30.26 17c.67-.27 1.77-.34 2.49-.5Z" fill="#79C5E5"/><path fill-rule="evenodd" d="M28 40a14 14 0 1 0 0-28 14 14 0 0 0 0 28Zm0-1a13 13 0 1 0 0-26 13 13 0 0 0 0 26Z" fill="#0054A6"/><path d="M29.27 28.45c-3.66 0-5.46 1.84-5.9 2.77L16.64 20c.64-1.22 2.55-3.65 4.99-3.65 3.05 0 5.92 1.6 9.43 1.6 2.8 0 4.67-1.27 5.25-1.9.37 3.16 1.68 5.22 3.16 7.68a47.33 47.33 0 0 1 2.62 5.13c-.35.35-1.58 1.05-3.69 1.05-3.42 0-5.7-1.46-9.13-1.46Z" fill="url(#a)"/><path d="M29.74 25.4c-.46-.01-1.4-.02-1.5 0a3 3 0 0 0-.11-.94A50.2 50.2 0 0 0 25.48 21c-.58-.63-1.11-.75-1.3-.73L24 20h2.1l4.9 3.92L28.78 21c-.03-.13-.06-.38 0-.38.05 0 1.18.25 1.74.38 0 .05-.03.17-.22.25a.42.42 0 0 0-.27.31L33 26h-.64l-5.18-3.8 2.56 3.2ZM23.64 20l1.26 1.67-.4.17-.86-.95c-.17-.17-.33-.13-.64.17-.3.3-.28.72 0 .98.29.25.54.4 1.24.4s.87.19 1.43.49c.56.3 1.33.93 1.33 1.6 0 1-.33 1.47-1.33 1.47-.8 0-1.58-.92-1.87-1.38l.44-.3c.17.11.92 1.07 1.43.98.47-.08.44-.42 0-.97-.7-.87-1.66-.6-2.27-.68-.6-.09-1.4-.83-1.4-1.72 0-1.26 1.09-1.83 1.64-1.93ZM31 21h3c.28.06.92.45 1.29 1.52.45 1.33.43 1.8.21 1.91-.17.1-.73.34-1 .45.45.67 1.36 2.05 1.5 2.12h-2a3.38 3.38 0 0 0-.27-1.54C33.4 24.88 31.5 21.5 31 21Zm3.54 3.36c.3-.15.25-.97-.12-1.82-.38-.85-.92-1.42-1.23-1.26-.3.15-.24.97.13 1.82.37.85.92 1.42 1.22 1.26Z" fill="#FFF702" fill-opacity=".7"/><path d="M16.33 19.28c.13-.21-.05-.91-1.74-2.03.09.78.41 2.34 1 2.38h.07l12.36 20.44.63-.38L16.33 19.3v-.03Z" fill="#0054A6"/><defs><linearGradient id="a" x1="38.25" y1="21.92" x2="22.55" y2="30.32" gradientUnits="userSpaceOnUse"><stop stop-color="#E31A22"/><stop offset=".27" stop-color="#D21820"/><stop offset=".65" stop-color="#F0543C"/><stop offset="1" stop-color="#E31D23"/></linearGradient></defs></svg>