<!-- by TradingView --><svg width="56" height="56" viewBox="0 0 56 56" xmlns="http://www.w3.org/2000/svg"><path fill="#F0F3FA" d="M0 0h56v56H0z"/><path d="M19 25.46V23c-3.51 0-6 1.39-6 4.41 0 3.02 2.33 5.59 6.3 5.59 5.66 0 6.7-3.77 6.7-5.21 0-1.45-1.12-3.4-2.74-3.4-1.3 0-2.33.66-2.69.99 1.12-.08 3.43.08 3.43 2.7S21.15 32 19.3 32c-1.83 0-4.3-1.6-4.3-3.92 0-2.33 2.58-2.7 3.05-2.7.37 0 .68.05.95.08Z" fill="#02549D"/><path d="M26 24.36V22c-4.3 0-5.79 2-6 3a5.05 5.05 0 0 1 3.38-1.59c1.2 0 2.25.63 2.62.95ZM19.78 29.45c0 .73-.4 1.34-.6 1.55 2.57 0 3.82-1.84 3.82-2.82 0-.97-.9-2.18-1.94-2.18-1.03 0-2.06.9-2.06 1.6 0 .73.78 1.19.78 1.85Z" fill="#EE1A26"/><path d="M50.14 32c-.05-.13-.08-.37-.1-.5a6.35 6.35 0 0 1-.04-.4c-.45.64-1.16.9-1.94.9-1.08 0-2.06-.6-2.06-1.75 0-1.73 2.1-1.94 3.46-1.94H50v-.21c0-.58-.24-.87-.95-.87-.57 0-1.05.22-1.05.77h-1.6c.03-1.37 1.43-2 2.63-2 1.56 0 2.47.6 2.47 2.22 0 .9-.02 1.79 0 2.68 0 .32.22.82.5 1.1h-1.86ZM50 29h-.5c-.7 0-2 .26-2 1.16 0 .52.63.85 1.14.85 1.1 0 1.36-1.15 1.36-2.01ZM43.5 32v-3.28c0-.77-.09-1.72-.93-1.72-.86 0-1.07 1.07-1.07 1.87V32H40v-6h1.5v1c.42-.64.94-1 1.64-1 1.17 0 1.86.84 1.86 2.18V32h-1.5ZM37 25v-1h1.5v1H37ZM37 26v6h1.5v-6H37ZM34.5 32v-3.42c0-.74-.21-1.56-1.1-1.56-.9 0-1.1.86-1.1 1.62V32h-1.58v-3.41c0-.7-.16-1.57-1-1.57-.86 0-1.22.85-1.22 1.58V32H27v-6h1.5v1.02A2.1 2.1 0 0 1 30.39 26c.78 0 1.44.37 1.71 1.14A2.12 2.12 0 0 1 34.05 26C35.4 26 36 27.07 36 28.33V32h-1.5ZM12 26.5c0 1.78-1.79 2.5-3.31 2.5H7v3H5v-8h3.37C10 24 12 24.49 12 26.5Zm-2 0c0-1.01-1.06-1-1.87-1H7v2h1c.83 0 2 .07 2-1Z" fill="#02549D"/></svg>