<!-- by TradingView --><svg width="56" height="56" viewBox="0 0 56 56" xmlns="http://www.w3.org/2000/svg"><path fill="#F0F3FA" d="M0 0h56v56H0z"/><path d="m27.1 21 .4-2H28.5l.4 2H27.1Zm-1.4 0 .41-2h-1.05l-1.18 2h1.82Zm-3.42 0 1.18-2h-.62l-1.98 2h1.42Zm-4.4 3 1.99-2h1.82l-1.18 2h-2.62Zm-5.94 6 3.97-4h3.41l-2.36 4h-5.02ZM6 36l3.96-4h5.82l-2.37 4H6Zm16.65 0h-7.64l2.36-4h6.1l-.82 4Zm5.03 0h-3.63l.81-4H31.14l.81 4h-4.27Zm-1.6-10H29.92l.81 4h-5.46l.81-4Zm.82-4h2.2l.4 2H26.5l.4-2Zm-1.4 0h-2.21l-1.19 2h3l.4-2Zm-.81 4h-3.77l-2.36 4h5.31l.82-4Zm5.6-5-.4-2h1.05l1.18 2H30.3Zm3.43 0-1.18-2h.62l1.98 2h-1.42Zm4.4 3-1.99-2h-1.82l1.18 2h2.62Zm5.94 6-3.97-4h-3.41l2.36 4h5.02ZM50 36l-3.96-4h-5.82l2.37 4H50Zm-16.65 0h7.64l-2.36-4h-6.1l.82 4ZM30.5 22h2.21l1.19 2h-3l-.4-2Zm.81 4h3.77l2.36 4h-5.31l-.82-4ZM29.41 16.8c-.13.7-.66 1.2-1.4 1.2-1.15 0-1.6-1.13-1.6-2.11 0-1.16.6-1.89 1.59-1.89.7 0 1.3.53 1.38 1.23l-.73.22c-.04-.35-.25-.7-.64-.7-.57 0-.59.68-.6 1.14 0 .5.1 1.34.58 1.34.38 0 .6-.34.66-.68l.76.25ZM33 16.8c-.14.7-.67 1.2-1.4 1.2-1.15 0-1.6-1.13-1.6-2.11 0-1.16.6-1.89 1.58-1.89.7 0 1.31.53 1.39 1.23l-.74.22c-.03-.35-.24-.7-.63-.7-.58 0-.6.68-.6 1.14 0 .5.1 1.34.58 1.34.37 0 .6-.34.66-.68l.76.25ZM23 14h1.65c.73 0 1.35.5 1.35 1.24 0 .76-.55 1.18-1.34 1.18H24V18h-1v-4Zm1.48 1.66c.34 0 .52-.16.52-.43 0-.23-.2-.47-.52-.47H24v.9h.48Z" fill="#3DBBD8"/></svg>