<!-- by TradingView --><svg width="56" height="56" viewBox="0 0 56 56" xmlns="http://www.w3.org/2000/svg"><path fill="#F0F3FA" d="M0 0h56v56H0z"/><path d="M36 15h-6.54c-1.52.18-4.73 2.92-5.47 12.39C23.06 39.23 20.29 43 18 43h6.54c2.29 0 5.07-3.77 6-15.61.73-9.47 3.95-12.2 5.46-12.39Z" fill="#777"/><path d="M28 15h-6.54c-1.52.18-4.73 2.92-5.47 12.39C15.06 39.23 12.29 43 10 43h6.54c2.29 0 5.07-3.77 6-15.61.73-9.47 3.95-12.2 5.46-12.39Z" fill="#777"/><circle cx="39.5" cy="21.5" r="6.5" fill="#CD3333"/></svg>