<!-- by TradingView --><svg width="56" height="56" viewBox="0 0 56 56" xmlns="http://www.w3.org/2000/svg"><path fill="#F0F3FA" d="M0 0h56v56H0z"/><path d="M17 27.48c0-2.11.43-3.87.64-4.48.64 3.6 3.68 7.77 6.92 10.6 3.24 2.84 6.44 6.47 6.44 9 0 2.88-3.08 4.13-4.68 4.4.26-.72.37-1.42.37-2.09-.01-3.05-2.61-5.6-5.37-8.17C17.96 33.6 17 30.12 17 27.48Z" fill="#EC3237"/><path d="M24 14.5c0-3.37 2.5-6.4 3.75-7.5-.2.36-.54 1.52-.54 3.25 0 2.15 1.02 3.66 5.4 8.3 4.4 4.64 6.39 8.49 6.39 11.54 0 2.45-.4 4.3-.6 4.91-.36-2.72-2.91-6.42-6.7-9.25S24 18.74 24 14.51Z" fill="#159244"/><path d="M19 19.9a7.46 7.46 0 0 1 2.89-5.9c.41 6.1 3.34 8.6 7.68 12.71C33.9 30.83 37 33.63 37 37.13c0 3.7-2.53 5.46-3.8 5.87.7-3.46-2.48-7.39-6.73-11.5C22.22 27.36 19 23.83 19 19.9Z" fill="#FFCC2A"/></svg>