<!-- by TradingView --><svg width="56" height="56" viewBox="0 0 56 56" xmlns="http://www.w3.org/2000/svg"><path fill="#F0F3FA" d="M0 0h56v56H0z"/><path d="M13 34h30.63l.37-1H25.12L28 28h3.15l8.35-11.84-1.08-1.12L29.35 26H26l-5.05 7h-2.13l6.3-8h3.72l8.89-10.27-1.11-.73-8.63 9h-5.17L13 34Z" fill="#007C29"/><path fill-rule="evenodd" d="M28 45a17 17 0 1 0 0-34 17 17 0 0 0 0 34Zm0-.57a16.43 16.43 0 1 0 0-32.86 16.43 16.43 0 0 0 0 32.86Z" fill="#0E2D96"/><path d="M15.96 40a17.1 17.1 0 0 1-.92-1h25.92c-.3.35-.6.68-.92 1H15.96Zm2.4 2c-.46-.31-.9-.65-1.31-1h21.9c-.41.35-.85.69-1.3 1h-19.3Zm3.88 2A16.9 16.9 0 0 1 20 43h16.02c-.72.39-1.47.72-2.25 1H22.24Z" fill="#0E2D96"/><path d="m22 14 .7 2H25l-1.85 1.7.7 2.3L22 18.58 20.15 20l.7-2.3L19 16h2.3l.7-2Z" fill="#FC3"/><path fill="#940505" fill-opacity=".6" d="M15 35h26v3H15z"/></svg>