<!-- by TradingView --><svg width="56" height="56" viewBox="0 0 56 56" xmlns="http://www.w3.org/2000/svg"><path fill="#F0F3FA" d="M0 0h56v56H0z"/><path fill-rule="evenodd" d="M24.5 32a2.5 2.5 0 1 0 0-5 2.5 2.5 0 0 0 0 5Zm0-.96a1.54 1.54 0 1 0 0-3.08 1.54 1.54 0 0 0 0 3.08Z" fill="#183665"/><path fill-rule="evenodd" d="M39.5 32c1.02 0 1.9-.6 2.28-1.48l-.86-.53a1.5 1.5 0 0 1-2.32.71l2.4-1.25v.02l.94-.5A2.5 2.5 0 1 0 39.5 32Zm-1.42-2.03 2.62-1.37a1.5 1.5 0 0 0-2.62 1.37Z" fill="#E31F26"/><path fill-rule="evenodd" d="M15 31.5a2.5 2.5 0 1 1 0-4V27h1v5h-1v-.5Zm0-2a1.5 1.5 0 1 1-3 0 1.5 1.5 0 0 1 3 0Z" fill="#183665"/><path fill="#183665" d="M28 27h1v5h-1z"/><path fill-rule="evenodd" d="M31 25h3a2 2 0 0 1 .75 3.85A2.58 2.58 0 0 1 36 31.07V32h-1v-.93c0-1.3-1.22-2.07-2.51-2.07-.17 0-.33.02-.49.05V32h-1v-7Zm1 3v-2h2a1 1 0 1 1 0 2h-2Z" fill="#E31F26"/><path d="M5 25h1v3h3v-3h1v7H9v-3H6v3H5v-7ZM18 27h-1v5h1v-3a1 1 0 1 1 2 0v3h1v-3a2 2 0 0 0-3-1.73V27Z" fill="#183665"/><circle cx="28.5" cy="25.5" r=".5" fill="#183665"/><path fill-rule="evenodd" d="M45.44 21.5a4.5 4.5 0 0 0-.37.21l.88 2.24-2.24-.88a4.5 4.5 0 0 0-.21.37l1.88 1.5-2.38.34a4.65 4.65 0 0 0 0 .44l2.38.35-1.88 1.5.21.36 2.24-.88-.88 2.24.37.21 1.5-1.88.34 2.37a4.52 4.52 0 0 0 .44 0l.35-2.37 1.5 1.88.36-.21-.88-2.24 2.24.88c.07-.12.15-.24.21-.37l-1.88-1.5 2.38-.34a4.65 4.65 0 0 0 0-.44l-2.38-.35 1.88-1.5a4.5 4.5 0 0 0-.21-.36l-2.24.88.88-2.24a4.5 4.5 0 0 0-.37-.21l-1.5 1.88-.34-2.37a4.52 4.52 0 0 0-.44 0l-.35 2.37-1.5-1.88Zm2.06.81-.3 2.05-1.3-1.62.77 1.93-1.93-.76 1.62 1.28-2.05.31 2.05.3-1.62 1.3 1.93-.77-.76 1.93 1.28-1.62.31 2.05.3-2.05 1.3 1.62-.77-1.93 1.93.76-1.62-1.28 2.05-.31-2.05-.3 1.62-1.3-1.93.77.76-1.93-1.28 1.62-.31-2.05Z" fill="#E31F26"/></svg>