<!-- by TradingView --><svg width="56" height="56" viewBox="0 0 56 56" xmlns="http://www.w3.org/2000/svg"><path fill="#F0F3FA" d="M0 0h56v56H0z"/><ellipse cx="28" cy="28" rx="23" ry="11" fill="#004B92"/><path fill-rule="evenodd" d="M15.75 35 14 32.77v-2.4L20.2 21h2c.63 0 1.18.4 1.36.98L25 26.5l4.7-5.5h8.76L40 22.35V25h-6v1h4.46L40 27.94V30h-6v5h-2l-2-2v-5.06L24 35h-8.25Zm14.48-13H38v2h-6.93l-7.9 9H15v-2h7.34l7.9-9Zm.77 3h2v2h5v2h-5v4h-2v-8Zm-7 3.25-1 1.25-2.04-5.48L16.83 30H15l5.71-8h1.17L24 28.25ZM17.5 30h5l-1.7-5-3.3 5Z" fill="#FFFCFF"/></svg>