<!-- by TradingView --><svg width="56" height="56" viewBox="0 0 56 56" xmlns="http://www.w3.org/2000/svg"><path fill="#F0F3FA" d="M0 0h56v56H0z"/><path d="M44.24 25.24 28 41.48 11.76 25.24 9 28l19 19 19-19-2.76-2.76Z" fill="#1D2A90"/><path d="m11.4 25.6 8.44-8.44L28 41.7 11.4 25.6Z" fill="#039CC6"/><path d="M18.41 18.59 28.01 9v32.7l-9.6-23.11Z" fill="#E9027E"/><path d="m44.6 25.6-8.44-8.44L28 41.7l16.6-16.1Z" fill="#000007"/><path d="M37.6 18.59 28 9v32.7l9.6-23.11Z" fill="#F6FF00"/><path d="m19.01 36.2.01.43 4.43 3.62c-.9-.88-1.43-2.01-1.43-3.25 0-2.76 2.69-5 6-5 3.32 0 6.01 2.24 6.01 5 0 1.56-.86 2.96-2.21 3.88h.23l4.92-4.16.02-.51C37 31.68 32.97 28 28 28c-4.96 0-8.99 3.68-8.99 8.2Zm5.22 4.68-.01-.01Z" fill="#1D2A90"/><path d="M30 16h-4v1h-3v7h3v1h4v-1h3v-7h-3v-1Z" fill="#1C3496"/></svg>