<!-- by TradingView --><svg width="56" height="56" viewBox="0 0 56 56" xmlns="http://www.w3.org/2000/svg"><path fill="#F0F3FA" d="M0 0h56v56H0z"/><path d="M23 9c2.92 0 5.72 1.1 7.78 3.08A10.26 10.26 0 0 1 34 19.5c0 2.78-1.16 5.46-3.22 7.42A11.27 11.27 0 0 1 23 30V9Z" fill="#EDA900"/><path d="M12 27.48c0-1.64.76-3.18 2.04-4.17L21 18v4.52c0 1.64-.76 3.18-2.04 4.17L12 32v-4.52Z" fill="#86888A"/><path d="M12 37.48c0-1.64.76-3.18 2.04-4.17L21 28v4.52c0 1.64-.76 3.18-2.04 4.17L12 42v-4.52Z" fill="#555255"/><path d="M39 33h1.62c2.56 0 3.38.76 3.38 3.17v3.16c0 1.7-.33 2.67-2.28 2.67H39v-9Zm2 1.5v6c1 0 1-.4 1-1.3v-3.58c0-.9-.04-1.12-1-1.12ZM38 36h-2v-.84c0-.27-.19-.7-.55-.7-.26 0-.45.22-.45.67 0 .29.04.5.11.65.08.15.33.32.67.53.97.6 1.59 1.08 1.84 1.46.25.38.38 1 .38 1.84 0 1.55-.84 2.39-2.43 2.39C33.8 42 33 40.95 33 39.29V39h2v.78c0 .3.08.76.49.76.3 0 .51-.24.51-.7 0-.5-.07-.84-.2-1-.14-.15-.56-.42-1.1-.78-.55-.37-.91-.64-1.09-.8-.35-.34-.61-.91-.61-1.83 0-1.56.78-2.43 2.38-2.43 1.69 0 2.62.82 2.62 2.45V36ZM27 33h2c1.86 0 3 .42 3 2.52v1.24c0 1.41-.61 2.24-2.06 2.24H29v3h-2v-9Zm2 1.5v3c.67 0 1-.04 1-.81v-1.45c0-.71-.3-.74-1-.74Z" fill="#006AA5"/></svg>