<!-- by TradingView --><svg width="56" height="56" viewBox="0 0 56 56" xmlns="http://www.w3.org/2000/svg"><path fill="#00CD34" d="M0 0h56v56H0z"/><path d="M21 16h-3v19.4c0 2 1.68 3.6 3.75 3.6H42v-3H21.84a.82.82 0 0 1-.84-.8V16Z" fill="#0F0"/><path d="M42 15.85A20.72 20.72 0 0 0 29.78 12C19.41 12 11 19.16 11 28s8.4 16 18.78 16c4.67 0 8.94-1.45 12.22-3.85V36.5a16.9 16.9 0 0 1-12.22 4.94c-8.7 0-15.76-6.01-15.76-13.43s7.05-13.43 15.76-13.43A16.9 16.9 0 0 1 42 19.5v-3.66Z" fill="#FE0000"/><path d="M25 26.23V32h12c.74 0 1.13-.8.61-1.3l-4.63-4.33a2.97 2.97 0 0 1-.98-2.15c-.01-1.64 1.32-3.22 3.45-3.22H41v3h-5.24c-.58 0-.87.62-.48 1l4.69 4.33c.7.66 1.02 1.46 1.03 2.25.02 1.74-1.47 3.42-3.72 3.42H22v-8.77c0-2.68 2.3-5.23 5.02-5.23 3 0 4.98 2.45 4.98 5.23 0 2.99-3.2 4.77-6 4.77v-2.6c1.35 0 3-.7 3-2.17 0-1.18-.55-2.23-1.98-2.23-1.23 0-2.02 1.11-2.02 2.23Z" fill="#FE0000"/></svg>