<!-- by TradingView --><svg width="56" height="56" fill="none" xmlns="http://www.w3.org/2000/svg"><path fill="#F0F3FA" d="M0 0h56v56H0z"/><path fill-rule="evenodd" clip-rule="evenodd" d="M8 31v-6h4.375c1.169 0 2.116.887 2.116 1.98S13.544 29 12.375 29H10v2H8Zm2-3.5v-1h1.696c.444 0 .804.224.804.5s-.36.5-.804.5H10Z" fill="#FDCB2C"/><path fill-rule="evenodd" clip-rule="evenodd" d="M9.5 28.5h2.875c.911 0 1.616-.721 1.616-1.52 0-.787-.691-1.48-1.616-1.48H8.5v5h1v-2ZM10 31H8v-6h4.375c1.169 0 2.116.887 2.116 1.98S13.544 29 12.375 29H10v2Zm-.5-5h2.196c.3 0 .596.075.833.222.229.142.471.404.471.778s-.242.635-.471.778a1.589 1.589 0 0 1-.833.222H9.5v-2Zm.5 1.5v-1h1.696c.444 0 .804.224.804.5s-.36.5-.804.5H10ZM15 28.5V31h1.5v-2.5h3V31H21v-6h-1.5v2h-3v-2H15v3.5Z" fill="#03348F"/><path fill-rule="evenodd" clip-rule="evenodd" d="M34 27h-2v-2h6v2h-2v4h-2v-4Z" fill="#FDCB2C"/><path fill-rule="evenodd" clip-rule="evenodd" d="M34.5 26.5v4h1v-4h2v-1h-5v1h2ZM32 25h6v2h-2v4h-2v-4h-2v-2Z" fill="#03348F"/><path d="M23 28.746V25h1.5l.04 3.81c0 .67.537 1.19 1.201 1.19h.538c.663 0 1.221-.52 1.221-1.19V25H29v3.746A2.243 2.243 0 0 1 26.769 31H25.23A2.243 2.243 0 0 1 23 28.746Z" fill="#03348F"/><path fill-rule="evenodd" clip-rule="evenodd" d="m38.769 31 2.583-6h1.766l2.431 6h-1.52l-.6-1.5h-2.545l-.577 1.5H38.77Zm2.691-3h1.368l-.698-1.743L41.46 28Z" fill="#03348F"/><path d="M46.5 25v6H48v-6h-1.5Z" fill="#03348F"/><path d="M31.652 16.07c-8.711 0-13.24 5.085-14.416 7.627h-.662C16.971 21.066 22.13 15 32.534 15c8.324 0 10.64 5.833 10.758 9h-2.028c-1.693-6.815-7.113-7.96-9.612-7.93Z" fill="url(#a)"/><path d="M14.359 31.578v5.29c.83 1.377 3.878 4.132 9.42 4.132 9.607 0 15.107-5.994 16.657-9h-1.218c-1.07 1.827-5.081 7.968-13.585 7.968-6.802 0-10.35-5.593-11.274-8.39Z" fill="url(#b)"/><path d="m28.664 17.971.647 2.013h2.092l-1.692 1.244.646 2.013-1.693-1.244-1.692 1.244.646-2.013-1.693-1.244h2.093l.646-2.013Z" fill="#FBC647"/><defs><linearGradient id="a" x1="43.292" y1="23.735" x2="16.574" y2="23.735" gradientUnits="userSpaceOnUse"><stop stop-color="#F06A20"/><stop offset=".458" stop-color="#F89942"/><stop offset="1" stop-color="#F87E3F" stop-opacity="0"/></linearGradient><linearGradient id="b" x1="40.436" y1="33.055" x2="14.068" y2="33.055" gradientUnits="userSpaceOnUse"><stop stop-color="#F0631E"/><stop offset=".469" stop-color="#F9AA5E"/><stop offset="1" stop-color="#F37F3C" stop-opacity="0"/></linearGradient></defs></svg>