<!-- by TradingView --><svg width="56" height="56" viewBox="0 0 56 56" xmlns="http://www.w3.org/2000/svg"><path fill="#F0F3FA" d="M0 0h56v56H0z"/><path d="M21.76 31.25 18.99 38 6 25.87 26.32 20 33 26.3l-6.68 1.95-4.11-3.68-5.83 1.72 5.38 4.96Z" fill="#ACADAD"/><path d="M34.24 26.75 37.01 20 50 32.13 29.68 38 23 31.7l6.68-1.95 4.11 3.68 5.83-1.72-5.38-4.96Z" fill="#ACADAD"/><path d="M22 29.25 19 36 6 23.87 26.32 18 33 24.04 26.32 26l-4.11-3.43-5.59 1.72L22 29.25Z" fill="#D8312B"/><path d="M34 24.75 37 18l13 12.13L29.68 36 23 29.96 29.68 28l4.11 3.43 5.59-1.72L34 24.75Z" fill="#263B67"/></svg>