<!-- by TradingView --><svg width="56" height="56" fill="none" xmlns="http://www.w3.org/2000/svg"><path fill="#F0F3FA" d="M0 0h56v56H0z"/><path fill-rule="evenodd" clip-rule="evenodd" d="M37.498 17c1.379 0 2.497-1.12 2.497-2.5S38.877 12 37.498 12A2.499 2.499 0 0 0 35 14.5c0 1.38 1.118 2.5 2.498 2.5Zm-16.435 4.398C22.24 19.6 25.83 16 30.774 16c6.18 0 12.666 6.194 10.323 15.33.226-2.03-.829-6.99-6.86-10.589-6.03-3.599-11.295-1.061-13.174.657Z" fill="#017DC7"/><path fill-rule="evenodd" clip-rule="evenodd" d="M19.272 29.725c-1.675-1.404-4.554-5.246-2.663-9.386 2.357-5.16 6.143-5.047 8.3-4.983h.019c-1.446.333-4.734 1.923-6.314 5.626-1.58 3.703-.22 7.372.658 8.743ZM36.804 26c1.631 1.366 4.433 5.106 2.592 9.135-2.294 5.022-5.978 4.912-8.078 4.85l-.018-.001c1.408-.324 4.607-1.871 6.145-5.475 1.538-3.604.213-7.174-.64-8.509ZM25.407 40c5.014 0 8.654-3.757 9.848-5.636-1.905 1.795-7.245 4.444-13.36.687-6.115-3.757-7.184-8.935-6.955-11.055C12.564 33.533 19.14 40 25.407 40ZM15.5 19a1.5 1.5 0 1 0 0-3 1.5 1.5 0 0 0 0 3ZM42 38.5a1.5 1.5 0 1 1-3 0 1.5 1.5 0 0 1 3 0ZM18.5 44a2.5 2.5 0 1 0 0-5 2.5 2.5 0 0 0 0 5Z" fill="#F48221"/></svg>