<!-- by TradingView --><svg width="56" height="56" viewBox="0 0 56 56" xmlns="http://www.w3.org/2000/svg"><path fill="url(#a)" d="M0 0h56v56H0z"/><ellipse cx="28" cy="28" rx="24" ry="9" fill="#fff"/><ellipse cx="28" cy="28" rx="23" ry="8" fill="#005498"/><path d="M10 30.65v-6.6h6.23c3.2 0 4.26 1.79 4.4 2.68 1.03-2.64 6.57-2.88 9.21-2.67L31 26.73l-.68 1.2.54.26L29.5 33H25.7c-2.74 0-4-1.99-4.3-2.98-.77 1.38-3.15 1.52-4.39 1.41V33h-4.1L10 30.65Z" fill="#fff"/><path d="m29.47 30 .53-1.2c-.24.07-.97.2-1.97.2-1.25 0-4.03-.4-4.03-1.5 0-1.11 3-1.5 4.03-1.5.57 0 1.42.05 1.78.15l-.53-1.1c-4.33-.3-8.28 1-8.28 2.44 0 2.12 5.65 2.55 8.47 2.5Z" fill="#005498"/><circle cx="33" cy="22" r="1" fill="#fff"/><path d="m31 21-8.52.32 8.52.32V21Zm0 .73-8.52.32 8.52.31-9 .32 9 .32v-1.27Z" fill="#fff"/><path fill-rule="evenodd" d="M13.11 25H11v5h3v-2h1.5c.81 0 4.5-.14 4.5-1.5 0-1.36-3.69-1.5-4.5-1.5h-2.39Zm.89 1v1h1.04c.35 0 1.96-.05 1.96-.5s-1.6-.5-1.96-.5H14Z" fill="#005498"/><path d="M34.48 33H30l2.95-9h4.23L39 26.24 40.69 24h4.27L47 30.39 43.8 33h-3.93l-.66-2.13L37.18 33l-1.84-2.13-.86 2.13Z" fill="#fff"/><path d="M35.49 30H32l1.96-5h3.15l2.06 2.47L41.2 25h3.39L46 30h-3.44l-.88-3.03-2.7 3.03-2.66-3.03L35.5 30Z" fill="#005498"/><defs><linearGradient id="a" x1="56" y1="28" x2="0" y2="28" gradientUnits="userSpaceOnUse"><stop stop-color="#15669E"/><stop offset="1" stop-color="#083A63"/></linearGradient></defs></svg>