<!-- by TradingView --><svg width="56" height="56" viewBox="0 0 56 56" xmlns="http://www.w3.org/2000/svg"><path fill="#F0F3FA" d="M0 0h56v56H0z"/><path d="M13 19.69A5.77 5.77 0 0 1 18.85 14H43v22.31A5.77 5.77 0 0 1 37.15 42H13V19.69Z" fill="#0D60AE"/><path d="M22.2 17c-.66 0-1.2.52-1.2 1.17V39h10.68a7.65 7.65 0 0 1-1.76-5h-.14A4.83 4.83 0 0 1 25 29.37v-.18C25 26.8 27.15 25 29.59 25h.36A4.1 4.1 0 0 0 34 20.95 4 4 0 0 0 29.95 17H22.2Z" fill="#F47B2A"/><path d="M34.97 21.17c0-1.37-.6-2.63-.9-3.08A8.19 8.19 0 0 1 38 25.24c0 5.09-4.81 7.76-8 7.76-2.78 0-3.98-1.5-3.98-3.57 0-2.09 1.57-3.43 4.25-3.43 2.68 0 4.7-3.1 4.7-4.83Z" fill="url(#ach50wdbr)"/><defs><linearGradient id="ach50wdbr" x1="36.28" y1="18.97" x2="30.01" y2="32.05" gradientUnits="userSpaceOnUse"><stop stop-color="#F27B2A"/><stop offset=".48" stop-color="#FAE15C"/><stop offset="1" stop-color="#F37F28"/></linearGradient></defs></svg>