<!-- by TradingView --><svg width="56" height="56" viewBox="0 0 56 56" xmlns="http://www.w3.org/2000/svg"><path fill="#F0F3FA" d="M0 0h56v56H0z"/><path d="M22.22 24c2.16 0 4.09 1.19 4.78 1.73-3.75 0-7.07 2.02-8.73 7.8C16.95 38.15 14.2 39.77 13 40c1.33-1.49 1.35-3.65 1.55-6.47.15-2.26 3.1-5.26 4.45-6.53-1.74.31-3.77 1.8-4.45 2.56-.03-1.5.76-2.8 1.17-3.27A4.45 4.45 0 0 1 13.53 22c2.55 2.56 5.98 2 8.69 2Z" fill="url(#a)"/><path d="M31 23.93c0 3.16-1.65 4.7-2.3 5.07 3.95-1.24 6.3-4.64 6.3-8.04A6.05 6.05 0 0 0 32.47 16c.37.8.51 1.8.53 2.5a5.4 5.4 0 0 1-.35 2.46c-.63-5.93-4.24-7.16-5.78-8.02A7.34 7.34 0 0 1 24.3 10a6.23 6.23 0 0 0 1.93 6.7C28.4 18.43 31 20 31 23.94Z" fill="url(#b)"/><path d="M32.57 28.93A8.32 8.32 0 0 1 28.42 30c-.67 0-1.15-.12-1.42-.25A10 10 0 0 0 33.1 32c2.94.03 7.42-1.84 7.47-5.3a6.2 6.2 0 0 1-4.3 2.34c5.06-3.44 4.36-6.9 4.37-8.55 0-1.31.88-2.9 1.36-3.49-2.25.5-4.63 2.3-5.1 4.85-.47 2.57-.76 5.12-4.33 7.08Z" fill="url(#c)"/><path d="M29.7 33.09c-2.76-1.53-3.52-3.36-3.56-4.09a8.76 8.76 0 0 0 4.21 9.18c2.38 1.31 4.46.76 5.2.32a5.73 5.73 0 0 1-4.15-2.3c4.65 1.98 8.21.48 9.65-.4 1.16-.69 3.2-.67 3.95-.6-1.53-1.59-4.53-3.3-7-2.32-1.51.6-3 1.14-4.7 1.12a7.22 7.22 0 0 1-3.6-.91Z" fill="url(#d)"/><path d="M24 32.25c-.08-3.23 1-4.85 1.6-5.25a8.81 8.81 0 0 0-5.6 8.42c.07 2.78 1.27 4.14 2 4.58a5.36 5.36 0 0 1 .16-4.64c.64 5.15 3.64 7.57 5.08 8.42 1.15.68 2.13 2.5 2.44 3.22.2-.74.32-1.63.32-2.56 0-1.8-.47-3.74-1.82-4.87-2.03-1.71-4.08-3.27-4.18-7.32Z" fill="url(#e)"/><defs><linearGradient id="a" x1="25.76" y1="24.96" x2="11.37" y2="30.88" gradientUnits="userSpaceOnUse"><stop stop-color="#8B222C"/><stop offset="1" stop-color="#EA9F4F"/></linearGradient><linearGradient id="b" x1="23.99" y1="11.26" x2="31.03" y2="26.9" gradientUnits="userSpaceOnUse"><stop stop-color="#EA9F4F"/><stop offset="1" stop-color="#8B222C"/></linearGradient><linearGradient id="c" x1="42" y1="18.9" x2="27.97" y2="31.71" gradientUnits="userSpaceOnUse"><stop stop-color="#EA9F4F"/><stop offset="1" stop-color="#8B222C"/></linearGradient><linearGradient id="d" x1="44.26" y1="34.73" x2="25.97" y2="31.15" gradientUnits="userSpaceOnUse"><stop stop-color="#EA9F4F"/><stop offset="1" stop-color="#8B222C"/></linearGradient><linearGradient id="e" x1="28.51" y1="45.61" x2="23.43" y2="28.35" gradientUnits="userSpaceOnUse"><stop stop-color="#EA9F4F"/><stop offset="1" stop-color="#8B222C"/></linearGradient></defs></svg>