<!-- by TradingView --><svg width="56" height="56" viewBox="0 0 56 56" xmlns="http://www.w3.org/2000/svg"><path fill="#F0F3FA" d="M0 0h56v56H0z"/><path d="M10 21.87a1.68 1.68 0 0 1 2.94 0l1.13 2.05c.25.45.7.77 1.2.85l2.26.38c.1.01.18.03.26.06-.3.54-1.02 1.67-2.64 1.63l-2.1-.34-1.58-2.87-1.58 2.87-3.35.55 2.37 2.33-.49 3.22 3.05-1.44 3.04 1.44-.48-3.22 1.35-1.33c.7-.44 1.93-.6 3.13-.13l-.08.09-1.5 1.48c-.39.38-.57.92-.49 1.45l.32 2.12a1.68 1.68 0 0 1-2.37 1.78l-2.2-1.04a1.68 1.68 0 0 0-1.43 0l-2.21 1.04a1.68 1.68 0 0 1-2.38-1.78l.32-2.12c.08-.53-.1-1.07-.48-1.45l-1.5-1.48a1.68 1.68 0 0 1 .9-2.86l2.26-.38c.5-.08.95-.4 1.2-.85L10 21.87Z" fill="#E31E27"/><path d="M21.3 23h8.63c1.7 0 3.07 1.36 3.07 3.04v1.82A3.15 3.15 0 0 1 29.93 31H24v2h-3v-4.6h8.28c.48 0 .72-.4.72-.87v-1.16c0-.48-.24-.87-.72-.87H21v-2.21a.3.3 0 0 1 .3-.3ZM38.11 33l-5.2-10h3.35l3.63 7.53c.1.22.41.22.52 0L44 23h3.26l-5.14 10H38.1ZM48 23h3v10h-3z" fill="#153564"/></svg>