<!-- by TradingView --><svg width="56" height="56" viewBox="0 0 56 56" xmlns="http://www.w3.org/2000/svg"><path fill="#2BA1D3" d="M0 0h56v56H0z"/><path d="M39.01 39.58V14.65L29.91 9l-4.18 2.3.86.89v.57L25 14v2l-2.5-3-5 3 .85.53v.73l-.35.47v16.1l-2.02.26v5.44h9.4v.05H39Z" fill="#FFFFFE"/><path fill-rule="evenodd" d="M29 40h-3V14.64l1.58-1.46v-.58H27v-.41L31 10v1.93l9 4.06V40h-2v-4.9l-6-.88V40h-1v-6.98l-2 .63V40Zm2.55-7V13.23l.92.42V33h-.92ZM33 14.06V33h.48V19H34v14h1V19l1.03.52v3.5l.5.47V33H37v-9h1v9h1V16.67l-6-2.6Z" fill="#ED1314"/><path d="M33 40h4v-4.27l-4-.5V40ZM24 34v6l-7-.56V35l7-1ZM19 33V16.45h-.44v-.63L23 14v2.24l3 1.4v14.59l-1 .12V18.01l-2-1v15.62l-1 .08V16.65l-2-.74V33h-1Z" fill="#ED1314"/><path fill="#FFFFFE" d="M13 39h30v5H13z"/><path d="M36 40.69V43h-2v-2.31h-1.5V40h5v.69H36ZM30 43v-3h2v3h-2ZM28.12 43h-2.24L24 40h2l1 2 1-2h2l-1.88 3ZM24 41c0 .86-1.08 1-1.74 1H21v1h-2v-3h3.08c.64 0 1.92.11 1.92 1Zm-2 0c0-.26-.25-.38-.75-.38H21v.78h.25c.54 0 .75-.11.75-.4Z" fill="#ED1314"/></svg>