<!-- by TradingView --><svg width="56" height="56" viewBox="0 0 56 56" xmlns="http://www.w3.org/2000/svg"><path fill="#F0F3FA" d="M0 0h56v56H0z"/><path d="M19.01 28A8.51 8.51 0 0 1 27 20v2.02A6.5 6.5 0 0 0 21.02 28h-2ZM19.01 30A8.65 8.65 0 0 0 27 37v-2a6.66 6.66 0 0 1-5.94-5H19ZM32 24a6.16 6.16 0 0 0-3-1.96V20c2.4.43 4.27 2 5.52 4H32Z" fill="#00AEED"/><path d="M21 24H4l2.1 2H21v-2ZM9.25 29l-2.1-2h5.9l2.1 2h-5.9Zm1.05 1 2.1 2h5.92l-2.1-2H10.3ZM42 32h1.6l2.1-2H42v2Zm0-3h4.75l2.1-2H42v2Zm0-3h7.9l2.1-2H42v2Z" fill="#00AEED"/><path fill-rule="evenodd" d="M33 24h4.08a2.33 2.33 0 0 1 1.59 4.03A2.66 2.66 0 0 1 37.34 33H33v-9Zm2 2h1.53c.43 0 .78.57.78 1 0 .43-.35 1-.78 1H35v-2Zm0 3h1.7c.48 0 .88.51.88 1s-.4 1-.89 1H35v-2Z" fill="#BE1E2C"/><path d="M29.53 32.52A4.5 4.5 0 1 1 31.24 31H32v2h-.96c-.58 0-1.08-.2-1.51-.48Zm-.1-2.43a2.5 2.5 0 1 0-4.38-2.1h1.12c1.15.01 2.2.79 3.08 1.9.04.07.1.13.18.2Zm-4-.2a2.5 2.5 0 0 0 2.53 1.07l-.06-.09c-.76-.97-1.38-.97-1.73-.97h-.74Z" fill="#BE1E2C"/></svg>