<!-- by TradingView --><svg width="56" height="56" viewBox="0 0 56 56" xmlns="http://www.w3.org/2000/svg"><path fill="#F0F3FA" d="M0 0h56v56H0z"/><path d="M11 27.22c.5-6.49 4.24-11.8 10-14.22L11 27.22ZM14.97 39.48c-.61-.72-1.17-1.5-1.65-2.31L28 17l14.68 20.17c-.48.81-1.04 1.59-1.65 2.31L28 21.6 14.97 39.48Z" fill="#FE0000"/><path d="M18.91 42.9a17.1 17.1 0 0 1-2.16-1.6L28 26l11.25 15.3c-.68.58-1.4 1.12-2.16 1.6L28 30.6l-9.09 12.3Z" fill="#FE0000"/><path d="M23.81 45c-.92-.23-1.81-.54-2.66-.91L28 35l6.85 9.09c-.85.37-1.74.68-2.66.91L28 39.6 23.81 45ZM45 27.22 35 13c5.76 2.41 9.5 7.73 10 14.22ZM11.17 31.26 28 8l16.83 23.26c-.19 1.16-.5 2.28-.9 3.35L28 12.6l-15.92 22a16.83 16.83 0 0 1-.9-3.34Z" fill="#FE0000"/></svg>