<!-- by TradingView --><svg width="56" height="56" viewBox="0 0 56 56" xmlns="http://www.w3.org/2000/svg"><path fill="#F0F3FA" d="M0 0h56v56H0z"/><path fill-rule="evenodd" d="M42.32 36.34C45.96 34.1 48 31.12 48 28s-2.04-6.1-5.68-8.34C38.7 17.42 33.64 16 28 16c-5.64 0-10.7 1.42-14.32 3.66C10.04 21.9 8 24.88 8 28s2.04 6.1 5.68 8.34C17.3 38.58 22.36 40 28 40c5.64 0 10.7-1.42 14.32-3.66ZM28 41c11.6 0 21-5.82 21-13s-9.4-13-21-13S7 20.82 7 28s9.4 13 21 13Z" fill="#046536"/><path d="M25.06 21.58a2.59 2.59 0 0 1 3.42.13l6.52 6.2L30.38 32l-1.47-1.76 2.66-2.44-4.86-4.6-8.37 6.8 2.26 2.43L18.93 34 15 29.76l10.06-8.18Z" fill="#FD7B39"/><path d="M30.94 37.42a2.59 2.59 0 0 1-3.42-.13L21 31.09 25.62 27l1.47 1.76-2.66 2.44 4.86 4.6 8.37-6.8-2.26-2.43L37.07 25 41 29.24l-10.06 8.18ZM11.83 26.21c.3.13.56.16.75.1a.6.6 0 0 0 .4-.36.62.62 0 0 0-.03-.54c-.1-.18-.3-.34-.6-.47-.33-.13-.58-.16-.77-.1a.61.61 0 0 0-.35.9c.1.19.3.35.6.47Zm-.13.34a1.08 1.08 0 0 1-.63-.61c-.1-.25-.1-.51.01-.78a1 1 0 0 1 .52-.56c.27-.13.56-.12.88 0 .24.11.43.26.55.46a1 1 0 0 1 .11.74c.22-.05.4-.15.53-.29.08-.08.16-.2.25-.35l.05.02-.05.13c-.06.16-.13.3-.2.4-.08.12-.17.21-.26.3-.09.07-.2.14-.32.19l-.2.08-.04.03c-.14.13-.27.23-.4.28-.25.09-.51.08-.8-.04Zm1.05-3.98.04.04c-.07.1-.11.17-.11.21 0 .05.04.12.13.2l.74.69c.12.1.23.18.33.2.18.06.35 0 .5-.18.18-.2.23-.38.16-.56-.04-.1-.13-.23-.28-.36l-.6-.56c-.13-.12-.22-.18-.28-.18-.06 0-.13.04-.22.12l-.04-.04.49-.55.04.04c-.07.1-.1.18-.1.24.01.06.08.15.2.26l.6.56c.17.15.27.3.31.42.09.25.01.5-.22.76s-.46.35-.7.3a.96.96 0 0 1-.42-.25l-.73-.67c-.08-.08-.15-.12-.2-.11-.04 0-.11.04-.2.13l-.04-.04.6-.67Zm2.45-.87c.18.28.37.46.56.52a.62.62 0 0 0 .8-.52c.03-.21-.05-.46-.23-.75-.19-.29-.38-.46-.57-.52a.6.6 0 0 0-.8.54c-.02.2.06.45.24.73Zm-.3.2a1.1 1.1 0 0 1-.17-.87 1 1 0 0 1 .45-.63.98.98 0 0 1 .75-.16c.28.06.52.23.7.52.18.29.24.58.17.87-.07.26-.21.47-.44.62a.97.97 0 0 1-.78.15c-.28-.06-.5-.23-.68-.5ZM17.72 19c.1-.04.21-.08.34-.1l.2-.03a.16.16 0 0 0 .07-.06.13.13 0 0 0 .02-.1l.06-.02.31.65-.07.02c-.1-.1-.19-.2-.28-.24a.62.62 0 0 0-.58-.01c-.2.09-.33.24-.38.46-.06.22-.03.47.1.76a1 1 0 0 0 .47.53c.2.1.4.1.61 0a.9.9 0 0 0 .36-.3c.06-.06.11-.16.16-.28l.08.03a1.09 1.09 0 0 1-.6.71c-.31.14-.6.15-.87.03-.24-.1-.43-.3-.55-.58a1.13 1.13 0 0 1-.05-.84c.1-.28.3-.5.6-.63ZM21 17.86c.1-.03.22-.04.35-.04h.2c.03 0 .06-.02.08-.04a.13.13 0 0 0 .03-.1h.07l.2.68-.07.02a1.04 1.04 0 0 0-.24-.3.62.62 0 0 0-.56-.1.66.66 0 0 0-.46.39c-.1.2-.1.46-.03.76a1 1 0 0 0 .38.6.7.7 0 0 0 .6.11c.16-.04.3-.11.41-.23.07-.06.13-.15.2-.26l.07.05a1.08 1.08 0 0 1-.7.6 1.02 1.02 0 0 1-1.31-.78c-.08-.3-.05-.58.09-.83.14-.27.37-.45.69-.53Zm2.26-.45v.06c-.11.03-.19.06-.22.1-.03.04-.03.11-.02.23l.16 1.01c.03.17.07.3.13.38.11.15.28.21.51.17.25-.04.41-.15.47-.34.03-.1.03-.26 0-.46l-.13-.82c-.02-.17-.06-.28-.1-.31-.05-.04-.14-.06-.25-.05v-.06l.7-.11.02.05c-.12.04-.2.08-.22.13-.03.05-.04.16-.01.33l.13.82c.03.22.03.4-.02.53-.08.24-.3.4-.64.45-.33.05-.58-.02-.73-.23a.99.99 0 0 1-.18-.45l-.15-.99c-.02-.11-.05-.18-.09-.21-.04-.03-.12-.04-.24-.03v-.05l.88-.15Zm2.26.78c.02.33.1.58.24.73a.6.6 0 0 0 .96-.06c.12-.17.16-.43.14-.77-.03-.35-.1-.6-.25-.74a.6.6 0 0 0-.49-.2.6.6 0 0 0-.46.28c-.12.17-.17.42-.14.76Zm-.36.03a1.1 1.1 0 0 1 .26-.85c.18-.2.4-.31.7-.33.27-.02.52.06.72.23.23.19.35.45.38.8.02.34-.07.62-.27.84-.18.2-.4.3-.68.33a.97.97 0 0 1-.76-.25 1.1 1.1 0 0 1-.35-.77Zm2.53.84c.13-.01.21-.04.25-.08.04-.05.06-.15.07-.32l.06-1.41-.04-.05a.34.34 0 0 0-.11-.11.46.46 0 0 0-.15-.03V17l.55.02 1.14 1.6.04-1.07c.01-.18 0-.3-.06-.35-.03-.04-.1-.06-.22-.08v-.06l.74.04v.06c-.12 0-.2.03-.24.07-.05.05-.07.16-.08.32l-.07 1.68h-.05l-1.32-1.81-.05 1.24c0 .18.01.3.06.35.03.03.1.06.22.08v.06l-.74-.04v-.05Zm3.9-1.82c.12.02.23.05.35.1l.19.08c.04 0 .08 0 .1-.02a.21.21 0 0 0 .06-.07l.06.01-.06.67h-.07c-.04-.17-.1-.3-.15-.38a.63.63 0 0 0-.46-.26.72.72 0 0 0-.55.16c-.17.14-.28.38-.33.74-.03.29.01.53.14.71a.74.74 0 0 0 .66.33.78.78 0 0 0 .3-.06l.04-.08.06-.5c.02-.13.01-.2-.02-.24-.03-.04-.1-.06-.22-.09l.01-.06.8.11-.01.06c-.08 0-.13 0-.16.02-.05.02-.08.09-.09.2l-.08.62c0 .03-.1.07-.29.11a1.6 1.6 0 0 1-.53.02c-.3-.04-.54-.16-.73-.37-.2-.23-.29-.51-.24-.85.03-.3.16-.53.37-.72.23-.2.51-.28.85-.24Zm3.54.73c.12.03.23.08.33.15.1.07.16.1.18.1.04.02.08.02.1 0a.21.21 0 0 0 .07-.05l.06.02-.16.65-.07-.02c-.02-.17-.05-.3-.1-.39a.64.64 0 0 0-.4-.33.72.72 0 0 0-.58.08c-.18.1-.33.33-.43.67a.99.99 0 0 0 .03.73.74.74 0 0 0 .61.42.78.78 0 0 0 .3-.01c.02-.01.04-.04.05-.07l.14-.5c.03-.1.04-.19.01-.23-.02-.03-.09-.07-.2-.11l.02-.06.77.23-.02.05c-.08-.01-.13-.02-.16 0-.05.02-.09.08-.12.18l-.17.6c0 .04-.11.06-.3.07-.19 0-.37-.01-.53-.06-.29-.09-.51-.25-.67-.48-.16-.26-.2-.55-.1-.88.07-.28.23-.5.47-.65.26-.17.55-.2.87-.11Zm.76 2.44c.13.04.21.05.26.03.04-.01.09-.08.13-.2l.47-1.33c.04-.11.05-.2.03-.24-.03-.04-.1-.09-.22-.14l.02-.05.88.32-.02.05c-.13-.04-.21-.05-.26-.03-.04.02-.09.09-.13.2l-.47 1.34c-.04.11-.05.19-.03.23.03.04.1.09.22.14l-.02.06-.88-.33.02-.05Zm2.76.38.05-.95-.7.63.65.32Zm-1.57.13.02-.05c.08.03.15.03.2 0 .06-.03.19-.13.38-.3l1.26-1.11.06.03-.08 1.97.01.26a.3.3 0 0 0 .12.12l-.02.06-.72-.36.02-.05.18.05c.03 0 .05-.02.07-.06a.94.94 0 0 0 .04-.21l.01-.34-.74-.37a13.78 13.78 0 0 0-.36.37c-.02.05-.02.1 0 .13l.13.1-.02.04-.56-.28Zm2.78 1.47c.09.07.16.1.2.1.05 0 .11-.04.19-.13l.92-1.06c.08-.09.11-.16.11-.2 0-.05-.04-.12-.13-.2l.04-.05.67.6-.04.04c-.1-.07-.16-.1-.21-.11-.05 0-.11.04-.18.12l-1 1.15a.16.16 0 0 0-.04.07c0 .03 0 .05.03.08l.05.06.11.1c.21.19.37.3.47.33.1.03.26 0 .45-.08l.06.05-.47.32-1.27-1.14.04-.05Zm3.03 2.18.5-.81-.91.2.41.6Zm-1.44-.66.05-.04c.05.07.11.1.18.1.06 0 .22-.02.47-.07l1.63-.36.04.06-1.01 1.69a.8.8 0 0 0-.11.23c0 .04 0 .1.04.16l-.04.04-.46-.67.04-.03.13.13c.03.01.06 0 .1-.02a.95.95 0 0 0 .13-.17l.17-.28-.47-.69a13.46 13.46 0 0 0-.5.14c-.04.03-.06.07-.05.12 0 .03.03.08.07.14l-.05.04-.36-.52Zm1.34 2.17c.05.12.1.2.13.22.04.03.12.03.23-.01l1.34-.43c.1-.04.17-.08.2-.13.01-.04 0-.13-.03-.25l.06-.02.28.9-.06.02c-.04-.12-.08-.2-.13-.23-.04-.02-.12-.02-.23.02l-1.33.43c-.11.04-.18.08-.2.12-.01.05 0 .14.02.26l-.05.02-.28-.9.05-.02Z" fill="#046536"/></svg>