<!-- by TradingView --><svg width="56" height="56" viewBox="0 0 56 56" xmlns="http://www.w3.org/2000/svg"><path fill="#F0F3FA" d="M0 0h56v56H0z"/><path d="M12.16 30c-.1-.74-.16-1.5-.16-2.26C12 19.04 19.16 12 28 12s16 7.05 16 15.74c0 .77-.06 1.52-.16 2.26h-.68A15.2 15.2 0 0 0 28 12.66 15.2 15.2 0 0 0 12.84 30h-.68Z" fill="#004789"/><path d="M15.01 26.9c.37.18.63.27.79.27.6.01 1.25.1 1.93.29a28.96 28.96 0 0 0 13.24.32c3.9-.79 7.41-2.08 10.98-3.78.02 0 .03 0 .04.02v.03l-2.82 1.48c-1.02.56-1.99.99-2.9 1.3a47.23 47.23 0 0 1-6.01 1.64c-3.3.65-6.65.7-10.05.15a18.81 18.81 0 0 1-5.2-1.64l-.01-.06.01-.01Z" fill="#E00E15"/><path d="M28.45 14.68c0-.12-.05-.14-.13-.05a35.35 35.35 0 0 0-4.46 5.32 16.37 16.37 0 0 0-2.46 5.61c0 .02.01.04.03.05l.05.04h.07c.96-.08 1.74-.16 2.33-.22 1.63-.16 3.38.09 5.04.19.05 0 .08.03.08.07v.07c0 .02-.01.04-.04.03a26.18 26.18 0 0 0-4.93.11c-.28.04-.5.04-.64.02-.8-.13-1.45.06-2.2.08a.2.2 0 0 1-.14-.05.16.16 0 0 1-.04-.06.15.15 0 0 1 0-.07c.22-2.11 1.27-4.23 2.45-5.97a36.87 36.87 0 0 1 4.86-5.71.5.5 0 0 1 .26-.13c.1-.02.16 0 .2.05.03.04.05.1.05.2a417.01 417.01 0 0 1-.21 7.87l-.17-7.45Z" fill="#004789"/><path d="M27.62 23.98c-.17-.27-.3-.56-.38-.88-.43-1.86-.22-3.92.14-5.87.07-.4.21-.8.4-1.18.03-.05.06-.06.1-.04a.2.2 0 0 1 .1.09l.02.08v.08l-.05.22a26.66 26.66 0 0 0-.64 4.8 8.22 8.22 0 0 0 .31 2.7ZM30.26 19.28c.05 1.24-.09 2.38-.41 3.42-.12.36-.16.35-.14-.02.02-.2-.22-.5-.2-.87.07-1.69.09-2.65.04-2.88a8.57 8.57 0 0 0-.53-1.57.22.22 0 0 1-.02-.13c0-.04.03-.08.05-.11a.3.3 0 0 1 .11-.09c.04-.02.1-.03.14-.03.08 0 .15 0 .24.03.05.01.1.07.18.17 1.84 2.63 3.91 5.44 5.26 8.32.03.07.03.14 0 .2a.32.32 0 0 1-.16.17c-.24.12-.5.14-.8.06a13.6 13.6 0 0 0-3.59-.53v-.02h.02a18.52 18.52 0 0 1 3.97.36c.02 0 .04-.02.05-.03a.09.09 0 0 0 .03-.04v-.05c-.24-.59-.63-1.3-1.17-2.15a68.98 68.98 0 0 0-2.97-4.24c-.07-.09-.1-.08-.1.03ZM24.02 26.98c.48-.26.94-.45 1.4-.58a9.7 9.7 0 0 1 3.63-.36c.57.06 1.22.24 1.92.54.02 0 .03.02.03.04l-.01.04-.04.02c-.15 0-.48-.1-1.02-.25a4.28 4.28 0 0 0-1.01-.19c-.96-.04-1.61-.04-1.96 0a16.47 16.47 0 0 0-2.95.75l-.01-.01h.02ZM22.33 33.7c.64-.04 1.33-.21 1.9-.25 2.92-.22 5.9.13 8.76.81.9.22 1.69.47 2.35.74l2.27.93c.2.09.2.1-.02.02-1.56-.5-3.07-.95-4.54-1.34-.58-.15-1.74-.34-3.48-.57-3.28-.45-6.4-.22-9.38.66-1.35.4-2.28.65-2.8.74-.1.02-.11 0-.06-.08a.48.48 0 0 1 .2-.15c.94-.36 1.86-.93 2.51-1.27.56-.29 1.02-.57 1.55-.74a45.57 45.57 0 0 1 6.78-1.7c1.5-.24 2.96-.27 4.64-.32-.78-.14-1.67-.16-3.38-.28-2.5-.18-4.72-.06-7.2.23-2.34.28-4.77.9-6.82 1.67-.36.13-1.18.46-2.45.97-.78.32-1.3.94-2.16 1.16.74-.3 1.09-.97 1.77-1.32a33.23 33.23 0 0 1 5.86-2.38c2.25-.59 4.18-.94 5.79-1.08a46.8 46.8 0 0 1 11.1.43c1.34.2 2.22.39 2.65.55l2.3.83c.36.13.6.3.7.5.03.05.07.09.13.12l.51.22c.26.1.25.18-.03.21-.11.02-.26 0-.44-.04-.68-.18-1.11-.3-1.28-.33-.1-.03-.17-.02-.22 0-.07.05-.06.1 0 .14.07.03.1.07.13.11.02.06 0 .1-.08.09a.55.55 0 0 1-.24-.07.56.56 0 0 0-.18-.05c-2.3-.35-3.67-.56-4.14-.6a27.6 27.6 0 0 0-5.56-.07 35.42 35.42 0 0 0-7.44 1.5Z" fill="#004789"/><path d="M12.96 39.12a.3.3 0 0 1-.05-.17l.01-.62-.14-.2-.47-.72c-.42-.65-.42-1.12.03-1.4l1.06-.65c.43-.27.86-.08 1.28.56l.49.75c.42.65.4 1.1-.02 1.37l-1.06.66a.68.68 0 0 1-.78 0l-.02.35c0 .09-.02.16-.06.18-.1.06-.2.02-.27-.1Zm.08-1.18c.28.43.55.56.8.4l1.06-.65c.25-.16.24-.44-.02-.85l-.48-.74c-.26-.4-.52-.53-.77-.37l-1.06.65c-.25.16-.25.45.03.88l.44.68ZM17.28 41.83c-.37.37-.85.29-1.42-.25l-.67-.63c-.57-.54-.68-1-.3-1.37l1.29-1.32c.08-.08.17-.07.28.03.1.1.12.19.04.27l-1.3 1.3c-.21.23-.14.52.24.87l.64.6c.37.35.66.41.88.19l1.3-1.31c.07-.08.17-.07.27.03s.12.19.04.27l-1.3 1.32ZM20.76 44.65a.23.23 0 0 1-.13-.2l-.08-.76-1.84-.9-.67.39a.25.25 0 0 1-.25 0c-.12-.05-.17-.14-.12-.24.02-.03.04-.06.1-.09l2.54-1.43c.08-.05.17-.04.25 0 .08.04.14.1.15.19l.34 2.85c.01.07 0 .1-.01.14-.05.1-.16.1-.28.05Zm-.25-1.32-.16-1.49-1.32.77 1.48.72ZM22.73 42.62c.03-.11.12-.15.27-.11a.3.3 0 0 1 .19.13l1.9 2.6.47-1.98c.03-.1.11-.14.26-.11.14.03.2.1.17.2l-.57 2.4c-.03.12-.12.15-.27.12-.08-.02-.13-.06-.19-.14l-1.9-2.6-.47 1.98c-.02.11-.11.15-.26.12-.14-.04-.2-.1-.17-.21l.57-2.4ZM30.35 45.15c.02.52-.37.8-1.17.82l-.92.03c-.8.02-1.2-.22-1.22-.74L27 44.02c-.02-.5.37-.75 1.15-.78l.56-.01c.14 0 .2.04.21.15 0 .1-.06.17-.2.17l-.55.02c-.5.02-.74.17-.73.45l.04 1.21c.01.31.27.46.8.44l.87-.03c.52-.01.77-.18.76-.49l-.02-.48-.47.05a.17.17 0 0 1-.18-.14l-.01-.08a.17.17 0 0 1 .14-.18l.61-.07a.35.35 0 0 1 .12-.03c.15 0 .22.05.23.16l.02.77ZM32 42.9c-.04-.1.01-.18.15-.24a.3.3 0 0 1 .23.01l3.08 1.12-.75-1.91c-.04-.1 0-.18.14-.23.14-.05.23-.03.27.07l.9 2.3c.05.11 0 .19-.15.24-.08.04-.15.03-.24 0l-3.07-1.12.75 1.9c.05.1 0 .19-.14.24-.14.05-.23.02-.27-.08l-.9-2.3ZM37.47 43.33c-.12.07-.21.06-.27-.03l-1.35-2.08c-.06-.1-.03-.18.1-.26.11-.07.2-.06.27.03l1.35 2.08c.06.1.03.18-.1.26ZM37.03 40.62c-.08-.08-.06-.18.05-.28a.3.3 0 0 1 .21-.08l3.28-.14-1.45-1.47c-.08-.08-.06-.17.04-.27s.2-.1.28-.03l1.75 1.78c.08.08.06.17-.05.28-.07.06-.13.07-.22.08l-3.28.13 1.45 1.48c.08.08.07.17-.04.27-.1.1-.2.1-.27.02l-1.75-1.77ZM43.95 36.63c-.08.12-.17.15-.27.09l-.9-.57-1.34 2.04.9.57c.1.06.11.15.03.27-.08.12-.16.15-.26.1l-2.12-1.34c-.1-.06-.1-.15-.02-.27.07-.12.16-.15.26-.09l.93.59 1.34-2.04-.94-.59c-.1-.06-.1-.15-.03-.27.08-.12.17-.15.27-.1l2.12 1.34c.1.06.1.15.03.27Z" fill="#E00E15"/><path d="M10.14 29.84c0 .1.05.14.12.14l1.6-.12c.07 0 .1-.06.1-.15-.01-.09-.05-.14-.13-.13l-1.32.1 1.25-1.64c.04-.05.06-.09.05-.14 0-.1-.04-.15-.12-.14l-1.6.12c-.06 0-.1.05-.09.15 0 .09.05.13.12.13l1.32-.1-1.25 1.64a.19.19 0 0 0-.05.14Zm1.85-4.2c.06-.5-.08-.77-.41-.81l-1.18-.15c-.07 0-.12.04-.13.13 0 .09.02.14.1.15l1.16.15c.2.02.28.2.24.52l-.07.55c-.04.32-.16.47-.36.45l-1.17-.15c-.07 0-.11.03-.12.12-.02.1.01.15.09.16l1.17.14c.34.04.54-.18.6-.68l.08-.58Zm.26-3.35c.19.06.24.23.15.54l-.15.53c-.09.3-.22.43-.41.37l-.76-.2c-.18-.06-.23-.24-.15-.54l.16-.54c.08-.3.22-.42.4-.37l.76.21Zm.36.6c.13-.48.04-.77-.28-.86l-.77-.22c-.31-.09-.54.1-.67.58l-.16.55c-.14.48-.05.76.27.85l.77.21c.32.1.55-.1.69-.59l.15-.52Zm1.3-2.97c.04-.07.03-.13-.04-.16-.06-.03-.11 0-.15.07l-.44.85c-.15.3-.3.39-.48.3l-.7-.36c-.18-.08-.19-.26-.04-.54l.44-.87c.04-.07.03-.13-.03-.16s-.12 0-.15.06l-.46.88c-.22.44-.19.73.1.88l.72.36c.3.15.56 0 .79-.44l.44-.87Zm1.98-2.8a.19.19 0 0 0 .1-.07c.05-.07.05-.14 0-.18-.04-.03-.07-.03-.14 0l-1.39.62.28-1.45c.01-.06 0-.1-.03-.12-.06-.04-.12-.02-.17.04a.22.22 0 0 0-.04.1l-.26 1.47-.5-.39c-.06-.04-.12-.02-.17.05-.06.07-.06.13 0 .17l1.25.98c.06.05.12.03.18-.04.05-.07.05-.13 0-.18l-.52-.4 1.41-.6Zm2.03-1.98c.04.06.1.05.17 0 .07-.07.08-.13.04-.18l-1.05-1.2c-.05-.05-.11-.05-.18.01-.07.06-.08.12-.03.17l.46.53-1.19 1.02-.46-.52c-.05-.06-.1-.06-.17 0-.08.06-.09.12-.04.18l1.05 1.2c.04.05.1.05.17-.01.07-.06.08-.12.04-.18l-.45-.5 1.19-1.03.45.51Zm2.2-1.9c.09.16 0 .33-.28.48l-.48.28c-.27.16-.46.15-.56-.01l-.39-.68c-.1-.17 0-.33.27-.48l.49-.28c.27-.16.45-.15.55.01l.4.68Zm-.17.67c.44-.25.57-.52.4-.8l-.4-.7c-.16-.27-.45-.3-.88-.05l-.5.29c-.44.25-.57.51-.4.8l.4.68c.16.28.46.3.9.05l.48-.27Zm3.13-1.47c.05.03.1.04.15.02.08-.03.12-.09.09-.15 0-.02-.02-.04-.06-.06l-1.53-1.07a.16.16 0 0 0-.15-.02c-.05.03-.1.07-.1.12l-.4 1.81.01.09c.03.06.1.07.17.04a.15.15 0 0 0 .1-.11l.1-.49 1.21-.47.4.29Zm-1.39-1 .8.57-.99.38.2-.94Zm2.15-1c-.1.02-.14.07-.12.14l.28 1.56c.01.07.06.1.15.08.1-.02.14-.06.12-.13l-.23-1.3 1.78 1.07c.05.03.09.05.14.04.1-.02.14-.06.13-.13l-.29-1.57c0-.07-.06-.1-.15-.08-.1.02-.13.06-.12.13l.23 1.3-1.78-1.07a.2.2 0 0 0-.14-.03Zm4.4 1.33c.5-.01.75-.19.74-.52l-.02-.5c0-.07-.05-.1-.14-.1-.1 0-.14.04-.14.11l.02.49c0 .2-.16.3-.49.3l-.55.02c-.34.01-.5-.08-.5-.28l-.03-.79c0-.18.16-.27.47-.28l.35-.01c.09 0 .13-.04.13-.1 0-.08-.05-.11-.14-.11h-.35c-.5.02-.74.19-.74.5l.03.8c0 .34.26.5.77.48l.58-.01Zm3.2.28c-.01.07.02.11.12.13.08.02.14 0 .15-.07l.34-1.43.68.15c.09.02.14 0 .16-.07.01-.07-.02-.11-.1-.13l-1.65-.38c-.09-.02-.14 0-.15.07-.02.07.01.12.1.14l.69.15-.34 1.44Zm3.46 1.12c-.02.07 0 .12.1.15.08.04.14.02.16-.05l.6-1.47c.02-.07-.01-.12-.1-.15-.09-.04-.14-.02-.17.05l-.26.65-1.46-.58.26-.65c.02-.06 0-.11-.09-.15-.09-.03-.15-.01-.17.05l-.59 1.48c-.03.06 0 .11.09.15.09.03.14.02.17-.05l.25-.63 1.46.57-.25.63Zm.96.52c-.04.06-.02.11.06.16.08.04.14.04.18-.03l.8-1.37c.03-.06.01-.12-.07-.16-.08-.05-.14-.04-.18.02l-.8 1.38Zm2.35 1.65c.07.05.13.05.17-.01.04-.06.03-.11-.05-.16l-.85-.6c-.27-.2-.35-.37-.23-.52l.17-.24 1.26.88c.06.05.12.05.16 0 .04-.06.02-.11-.05-.16l-1.25-.89.17-.23c.1-.16.29-.14.54.04l.3.2c.07.06.13.05.17 0 .04-.06.02-.11-.05-.16l-.3-.22c-.4-.28-.7-.3-.89-.03l-.47.65c-.19.27-.08.55.33.84l.87.61Zm2.08-.57c-.07-.07-.13-.08-.18-.03l-1.16 1.09c-.05.05-.05.1.02.17.06.07.12.08.17.03l.96-.9.08 2.05c0 .06.01.1.05.14.07.07.13.08.18.03l1.16-1.1c.05-.04.05-.1-.02-.16-.06-.07-.12-.08-.17-.03l-.96.9-.08-2.06c0-.05-.02-.1-.05-.13Zm2.77 3.26c-.05-.08-.1-.1-.17-.07l-1.38.8c-.07.03-.07.09-.03.16.05.08.1.1.17.07l1.15-.65-.42 2.02c-.01.05-.01.1.02.14.05.09.1.11.17.08l1.38-.8c.07-.03.07-.09.03-.17-.05-.08-.1-.1-.16-.07l-1.16.66.42-2.02c.01-.06 0-.1-.02-.15Zm.48 5c-.07.03-.09.08-.06.17.03.09.08.12.15.1l1.52-.52c.06-.02.08-.08.05-.16-.03-.09-.08-.12-.14-.1l-.67.23-.51-1.48.67-.22c.06-.03.09-.08.06-.16-.04-.1-.09-.13-.15-.1l-1.52.5c-.07.03-.09.08-.06.17.03.09.08.12.15.1l.65-.22.5 1.48-.64.21Zm.28 1.04c-.07.01-.1.07-.08.16.02.09.07.12.14.1l1.56-.35c.07-.01.1-.07.08-.15-.03-.1-.07-.13-.14-.12l-1.56.36Zm.36 2.84c0 .08.05.12.12.11.07 0 .1-.05.09-.14l-.13-1.03c-.04-.33.03-.5.23-.52l.3-.04.18 1.52c.01.08.05.12.12.1.07 0 .1-.04.08-.13l-.19-1.51.3-.04c.18-.02.3.12.33.43l.05.36c0 .08.05.12.12.11.07 0 .1-.05.09-.14l-.05-.36c-.06-.5-.26-.72-.58-.68l-.8.1c-.33.05-.46.32-.4.81l.14 1.05ZM46 28.05c0-.1-.03-.14-.1-.15l-1.6-.12c-.07 0-.1.04-.11.13 0 .09.02.14.1.15l1.32.1-1.5 1.43c-.03.04-.06.08-.06.13 0 .1.02.15.1.16l1.6.12c.06 0 .1-.04.1-.13.02-.1-.02-.14-.09-.15l-1.32-.1 1.5-1.44a.19.19 0 0 0 .06-.13Z" fill="#004789"/></svg>