<!-- by TradingView --><svg width="56" height="56" viewBox="0 0 56 56" xmlns="http://www.w3.org/2000/svg"><path fill="#181B1E" d="M0 0h56v56H0z"/><path d="M12.21 32H37c-9.68 10.97-15.32 12-20.38 12-5.06 0-6.62-2.47-6.62-5.2 0-2.17 1.48-5.44 2.21-6.8Z" fill="url(#a)"/><path fill-rule="evenodd" d="M12.77 33c-.9 1.78-1.77 3.77-1.77 5.8 0 3.34 2.74 4.2 5.62 4.2C24.3 43 29.96 38.46 35 33H12.77Zm-.56-1c-.73 1.36-2.21 4.63-2.21 6.8 0 2.73 1.56 5.2 6.62 5.2 5.06 0 10.7-1.03 20.38-12H12.21Z" fill="url(#b)"/><path d="M42.79 24H18c9.68-10.97 15.32-12 20.38-12 5.06 0 6.62 2.47 6.62 5.2 0 2.17-1.48 5.44-2.21 6.8Z" fill="url(#c)"/><path fill-rule="evenodd" d="M42.23 23c.92-1.82 1.77-3.72 1.77-5.8 0-1.22-.24-2.26-1.04-3.01S40.76 13 38.38 13C30.7 13 25.04 17.54 20 23h22.23Zm.56 1c.73-1.36 2.21-4.63 2.21-6.8 0-2.73-1.56-5.2-6.62-5.2-5.06 0-10.7 1.03-20.38 12h24.79Z" fill="url(#d)"/><path d="M44 25.02H15v-.52h29v.52ZM45 26.52H16V26h29v.52ZM46 28H17v-.52h29V28ZM43.25 29.52H14V29h29.25v.52ZM41.25 31.52H12V31h29.25v.52Z" fill="#FBFFFE"/><path d="M41 27h-.98c0-.67-.48-1-1.09-1-1.1 0-1.74 1.02-1.9 2.06-.15.93.1 1.94 1.15 1.94.66 0 1.28-.32 1.51-1h1a2.7 2.7 0 0 1-2.56 2c-1.63 0-2.32-1.5-2.08-3.06.24-1.58 1.32-2.94 2.9-2.94 1.15 0 2.08.71 2.05 2ZM35 27h-.98c0-.67-.48-1-1.09-1-1.1 0-1.74 1.02-1.9 2.06-.15.93.1 1.94 1.15 1.94.66 0 1.28-.32 1.51-1h1a2.7 2.7 0 0 1-2.56 2c-1.63 0-2.32-1.5-2.08-3.06.24-1.58 1.32-2.94 2.9-2.94 1.15 0 2.08.71 2.05 2ZM29 25l-.84 6h-.82l-1.8-4.09h-.05L24.92 31H24l.84-6h.82l1.81 4.09h.05l.57-4.09H29ZM22.96 28.07C22.72 29.64 21.65 31 20.1 31c-1.6 0-2.3-1.48-2.06-3.06.24-1.58 1.3-2.94 2.86-2.94 1.55 0 2.29 1.5 2.05 3.07Zm-.96-.13c.14-.92-.1-1.94-1.13-1.94-1.08 0-1.71 1.01-1.87 2.07-.14.93.11 1.93 1.14 1.93 1.07 0 1.7-1 1.86-2.06Z" fill="#F14C28"/><defs><linearGradient id="a" x1="11.16" y1="40.57" x2="34.64" y2="32.35" gradientUnits="userSpaceOnUse"><stop offset=".19" stop-color="#FDFFF2"/><stop offset=".7" stop-color="#0B47AE"/></linearGradient><linearGradient id="b" x1="10" y1="40.57" x2="36.75" y2="31.28" gradientUnits="userSpaceOnUse"><stop stop-color="#5378BC"/><stop offset=".49" stop-color="#9E9EAA"/><stop offset="1" stop-color="#EFFEFA"/></linearGradient><linearGradient id="c" x1="43.84" y1="15.43" x2="20.36" y2="23.65" gradientUnits="userSpaceOnUse"><stop offset=".19" stop-color="#FDFFF2"/><stop offset=".7" stop-color="#0B47AE"/></linearGradient><linearGradient id="d" x1="45" y1="15.43" x2="18.25" y2="24.72" gradientUnits="userSpaceOnUse"><stop stop-color="#5378BC"/><stop offset=".49" stop-color="#9E9EAA"/><stop offset="1" stop-color="#EFFEFA"/></linearGradient></defs></svg>