<!-- by TradingView --><svg width="56" height="56" fill="none" xmlns="http://www.w3.org/2000/svg"><path fill="#F0F3FA" d="M0 0h56v56H0z"/><path fill-rule="evenodd" clip-rule="evenodd" d="M31.368 11.903c-1.468-2.537-5.268-2.537-6.736 0L11.584 34.45c-.904 1.563-.701 3.316.213 4.615l10.415-5.123a9.87 9.87 0 0 1-3.964-7.923c0-5.449 4.393-9.866 9.812-9.866 5.418 0 9.811 4.417 9.811 9.866a9.87 9.87 0 0 1-3.975 7.932l10.305 5.117c.916-1.3 1.12-3.054.215-4.618L31.367 11.903Zm9.73 29.049-12.002-8.637L35.555 41h4.848c.238 0 .47-.017.694-.048ZM30.463 41l-2.302-9.285L25.45 41h5.014Zm-10.343 0 7.211-8.914-12.845 8.788c.352.082.723.126 1.11.126h4.524Z" fill="#0082C8"/><path fill-rule="evenodd" clip-rule="evenodd" d="M21.082 26.253c0 .795.124 1.412.352 1.89.466 1.794 2.313 3.747 3.355 4.503l3.322-1.625 3.245 1.625c2.453-1.372 3.322-3.694 3.503-4.993.12-.391.185-.854.185-1.4 0-3.912-3.126-7.083-6.98-7.083-3.856 0-6.982 3.17-6.982 7.083Zm13.718 0c0 .323-.023.612-.067.87L33 25.72V27l-2.555-1.723V23H30v4l-3-1.435V27h-5.63a5.992 5.992 0 0 1-.044-.747c0-3.776 3.016-6.836 6.737-6.836 3.72 0 6.737 3.06 6.737 6.836Zm-5.197-3.261h.352l.26-.262.26.262h.323l-.583-.587-.612.587Z" fill="#005299"/><path fill-rule="evenodd" clip-rule="evenodd" d="M22.214 24.284c.023-.11.118-.313.316-.249.198.065.152.259.104.347.08-.106.275-.254.408 0 .039.074.076.137.11.196.115.193.2.338.218.666-.111-.15-.403-.41-.679-.243-.345.208.587 1.076.57 1.053-.017-.023-.575-.816-.414-.89.16-.076.586.265.586.82v.683c-.061-.178-.272-.574-.627-.74.257.242.768.96.754 1.885-.014.925-.006 1.87 0 2.227.023.077.136.232.402.237-.011.085.06.253.438.249.015.19.107.572.35.572.294 0 .182-.423.097-.748l-.01-.038c-.087-.33-.196-2.76-.15-3.118.046-.358.351-1.081.673-.931.258.12.407.717.449 1 .028-.578-.114-1.588-.915-1 .044-.203.147-.612.207-.63.06-.019.167.188.213.294l-.075-.497c.094-.152.365-.39.696-.127-.088-.168-.367-.414-.776-.058.12-.239.429-.746.696-.862-.202.03-.66.17-.886.62l.046-.793-.12.63h-.242l-.03-.457.346-.347-.316.174c-.008-.135-.077-.444-.294-.602.058.178.165.561.133.677-.051.028-.19.274-.254.393l-.132-.231.253-.312-.316.248.063-.688-.172.636-.138-.121v-.336l.788-1.18-.869 1.001-.316-.324.241.445v.243l-.27-.289c-.042-.21-.101-.73 0-1.128-.079.18-.223.597-.172.833l-.599-.642.552.81v.341l-.109.052c-.29-.221-.86-.482-.828.249Zm1.34.332.127-.25.064.175-.039.383-.153-.308Zm.511 1.677c-.062.303-.002.56.036.65 0-.28.077-.452.143-.598.05-.112.094-.21.091-.331-.007-.279-.192-.1-.27.279Zm.427-1.766-.185.333.135.175.096-.175-.046-.333Zm.138 1.33c-.017.014-.007-.58 0-.88h.157c-.045.288-.14.865-.157.88Z" fill="url(#a)"/><path opacity=".5" d="m25.519 31-.37-.33L28.057 28h2.12l2.895 2.67-.308.33H25.52Z" fill="#B0DCFF"/><path fill-rule="evenodd" clip-rule="evenodd" d="m24.007 17.475.37.138.229-.16-.33-.182-.269.204Zm.087.569a1.384 1.384 0 0 1-.21.102c-.054-.074-.109-.255.109-.387.217-.13.458-.025.551.044l-.207.12c-.047-.04-.161-.11-.243-.058-.08.053-.034.141 0 .179Zm.312.046-.079.036-.13.059-.076.035.195 1.668.325-.148-.05-.305.414-.189.196.24.325-.149-1.12-1.247Zm.405.918-.27.122-.094-.569.364.447Zm2.01-.077-.313-1.47-.33.072.195.914-.68-.809-.331.072.314 1.469.33-.072-.195-.914.68.81.33-.072Zm7.03 2.462.501-.478-.37-.393-.202.193.152.16-.19.181a.203.203 0 0 1-.11-.029.318.318 0 0 1-.067-.056.246.246 0 0 1-.064-.113.251.251 0 0 1 .009-.129.552.552 0 0 1 .08-.146c.039-.052.088-.107.15-.165l.069-.066c.062-.06.12-.106.173-.141a.572.572 0 0 1 .149-.072.246.246 0 0 1 .123-.008.184.184 0 0 1 .094.054.21.21 0 0 1 .06.109.19.19 0 0 1-.017.113.488.488 0 0 1-.078.122l.209.223a.872.872 0 0 0 .167-.258.465.465 0 0 0 .028-.266.538.538 0 0 0-.15-.267.476.476 0 0 0-.433-.147.785.785 0 0 0-.267.093c-.092.05-.186.12-.282.21l-.068.065c-.095.091-.17.181-.225.272a.799.799 0 0 0-.106.263.527.527 0 0 0 .011.243.528.528 0 0 0 .125.21c.065.07.131.121.198.154a.634.634 0 0 0 .185.064c.059.009.107.01.145.005Zm2.76 2.325.097.303-.974.317a.68.68 0 0 1-.315.035.44.44 0 0 1-.237-.113.551.551 0 0 1-.145-.24.56.56 0 0 1-.022-.28.454.454 0 0 1 .125-.234.673.673 0 0 1 .276-.158l.974-.317.098.304-.975.317a.447.447 0 0 0-.143.072.174.174 0 0 0-.063.093.205.205 0 0 0 .007.113.201.201 0 0 0 .06.096.17.17 0 0 0 .105.036.465.465 0 0 0 .157-.027l.975-.317Zm-15.928-.099.083-.324c.103.031.187.08.255.147a.503.503 0 0 1 .135.241.624.624 0 0 1-.009.306.578.578 0 0 1-.112.229.511.511 0 0 1-.19.142.691.691 0 0 1-.257.053 1.14 1.14 0 0 1-.311-.04l-.08-.021a1.095 1.095 0 0 1-.292-.119.71.71 0 0 1-.2-.174.522.522 0 0 1-.09-.463.607.607 0 0 1 .147-.279.499.499 0 0 1 .239-.138.691.691 0 0 1 .295-.008l-.083.325a.392.392 0 0 0-.147-.01.176.176 0 0 0-.105.053.294.294 0 0 0-.064.13.22.22 0 0 0-.002.111.2.2 0 0 0 .058.095c.03.029.073.055.127.08.053.024.12.046.199.066l.082.022c.08.02.148.034.206.04a.44.44 0 0 0 .148-.007.197.197 0 0 0 .098-.053.246.246 0 0 0 .053-.107.286.286 0 0 0 .007-.132.19.19 0 0 0-.06-.1.33.33 0 0 0-.13-.065Zm-.79 2.426-.666.257-.002.368.983-.45.55.002.002-.346-.55-.003-.98-.46-.001.368.663.264Zm-.629 1.385-.076-.443.282-.05.076.444 1.233-.215.062.355-1.233.216.075.433-.282.05-.075-.434-.062-.356Zm3.536 4.928.236.237a.329.329 0 0 1 .122-.08.187.187 0 0 1 .115 0 .284.284 0 0 1 .11.072.245.245 0 0 1 .064.1.2.2 0 0 1-.004.112.445.445 0 0 1-.07.131c-.034.048-.08.1-.138.158l-.06.061a1.31 1.31 0 0 1-.158.139.458.458 0 0 1-.133.069.197.197 0 0 1-.11.003.218.218 0 0 1-.095-.059.294.294 0 0 1-.079-.122.177.177 0 0 1 .008-.118.396.396 0 0 1 .083-.122l-.235-.237a.7.7 0 0 0-.144.26.506.506 0 0 0-.003.277c.025.094.08.183.165.269a.516.516 0 0 0 .442.158.707.707 0 0 0 .25-.085c.085-.046.168-.11.25-.193l.059-.059a1.15 1.15 0 0 0 .192-.25.7.7 0 0 0 .085-.248.515.515 0 0 0-.025-.237.575.575 0 0 0-.139-.214.617.617 0 0 0-.257-.163.499.499 0 0 0-.275-.004.603.603 0 0 0-.256.145Zm-2.6-3.47.6-.348a.506.506 0 0 1 .139.039.637.637 0 0 1 .166.105c.057.048.109.113.156.195a.53.53 0 0 1 .073.234.527.527 0 0 1-.045.24.797.797 0 0 1-.164.231 1.359 1.359 0 0 1-.282.211l-.081.047a1.327 1.327 0 0 1-.323.14.786.786 0 0 1-.281.027.48.48 0 0 1-.387-.244.54.54 0 0 1-.084-.295.463.463 0 0 1 .089-.252.868.868 0 0 1 .222-.211l.152.265a.488.488 0 0 0-.105.1.19.19 0 0 0-.042.107.21.21 0 0 0 .033.12.185.185 0 0 0 .079.074.246.246 0 0 0 .121.021.574.574 0 0 0 .162-.035c.06-.022.127-.054.2-.097l.084-.048c.072-.042.133-.084.183-.125a.551.551 0 0 0 .112-.124.253.253 0 0 0 .038-.123.247.247 0 0 0-.035-.125.32.32 0 0 0-.053-.07.201.201 0 0 0-.1-.054l-.227.13.11.193-.24.14-.27-.468Zm15.233-.437.683.11.085-.534-.275-.044-.035.219-.258-.042a.199.199 0 0 1-.044-.105.323.323 0 0 1 .003-.088.248.248 0 0 1 .05-.12.25.25 0 0 1 .108-.07.55.55 0 0 1 .165-.026c.064 0 .137.006.22.02l.095.014c.084.014.156.031.217.053a.57.57 0 0 1 .147.075c.038.029.065.06.081.093.016.035.02.07.014.108a.21.21 0 0 1-.05.114.189.189 0 0 1-.099.056.48.48 0 0 1-.144.011l-.049.303a.86.86 0 0 0 .305-.024.459.459 0 0 0 .227-.139c.061-.067.101-.161.12-.281a.482.482 0 0 0-.147-.436.792.792 0 0 0-.235-.156 1.328 1.328 0 0 0-.338-.097l-.093-.015a1.352 1.352 0 0 0-.35-.015.79.79 0 0 0-.273.075.522.522 0 0 0-.185.157.53.53 0 0 0-.09.228.73.73 0 0 0-.002.25.643.643 0 0 0 .063.188.51.51 0 0 0 .084.118Zm-1.197 3.292-.502-.479a.516.516 0 0 1-.003-.145.647.647 0 0 1 .054-.19.723.723 0 0 1 .142-.206.525.525 0 0 1 .202-.137.518.518 0 0 1 .242-.024.792.792 0 0 1 .267.092c.092.05.186.122.28.212l.069.065c.095.091.17.182.224.272.055.091.09.179.106.263a.48.48 0 0 1-.123.443.533.533 0 0 1-.257.164.456.456 0 0 1-.266-.014.864.864 0 0 1-.264-.154l.21-.222a.48.48 0 0 0 .125.073c.04.015.078.018.113.01a.209.209 0 0 0 .105-.065.185.185 0 0 0 .05-.098.25.25 0 0 0-.015-.123.58.58 0 0 0-.08-.146 1.268 1.268 0 0 0-.149-.166l-.07-.066a1.322 1.322 0 0 0-.17-.141.554.554 0 0 0-.15-.073.25.25 0 0 0-.129-.003.244.244 0 0 0-.11.07.319.319 0 0 0-.051.07.202.202 0 0 0-.023.112l.19.182.151-.16.202.192-.37.392Zm2.789-4.573H35.53v-.34l.93-.499h-.93v-.34h1.495v.34l-.93.5h.93v.338Zm-2.62 3.124 1.314.716.16-.298-.817-.446 1.054.007.161-.3-1.314-.715-.16.299.817.445-1.054-.006-.161.298Zm-14.148.217 1.294-.752.169.294-.557.9.805-.468.169.295-1.294.751-.17-.294.558-.9-.806.468-.168-.294Zm12.535-9.898.802-1.268-.284-.182-.5.79.081-1.058-.285-.182-.803 1.268.286.182.5-.789-.081 1.057.284.182Zm-9.892-1.63.434.483-.353.32-.434-.483-.24.218L23.4 20.74l.24-.219-.456-.508.353-.321.457.509.24-.218-1.094-1.218-.24.217Zm-.661 1.953.169-.182a.754.754 0 0 0 .174-.282.496.496 0 0 0 .011-.279.506.506 0 0 0-.15-.241.508.508 0 0 0-.542-.12.689.689 0 0 0-.272.188l-.428.46 1.18 1.11.258-.277-.4-.377Zm-.22-.207.17-.181a.266.266 0 0 0 .068-.114.169.169 0 0 0-.007-.106.26.26 0 0 0-.066-.094.317.317 0 0 0-.106-.068.198.198 0 0 0-.116-.01.217.217 0 0 0-.114.071l-.169.182.34.32Zm14.894 4.475-.007-.087-.011-.142-.007-.085-1.627-.381.028.357.303.057.036.456-.29.103.028.359 1.547-.637Zm-.996.072-.023-.297.564.104-.541.193Zm1.201-.203c.005-.076.02-.231.035-.24.204.224.343.209.343.12 0-.072-.065-.133-.097-.155l.039-.151c.32.216.15.554 0 .573-.12.015-.263-.092-.32-.147Zm-8.93-6.16h.123a.631.631 0 0 0 .485-.21.71.71 0 0 0 .14-.241.893.893 0 0 0 .05-.307v-.066a.888.888 0 0 0-.05-.306.701.701 0 0 0-.141-.24.611.611 0 0 0-.216-.157.662.662 0 0 0-.273-.055h-.472v.695h-.087v.133h.087v.754h.354Zm0-.294h.123a.276.276 0 0 0 .17-.052.317.317 0 0 0 .107-.155.767.767 0 0 0 .037-.257v-.068a.842.842 0 0 0-.02-.2.413.413 0 0 0-.061-.145.258.258 0 0 0-.101-.088.307.307 0 0 0-.137-.029h-.118v.401h.272v.133h-.272v.46Zm2.59-.991c-.04.065-.114.059-.148.055l.002-.01-.297-.066-.216.968a.454.454 0 0 1-.054.145.165.165 0 0 1-.082.069.191.191 0 0 1-.108.003.194.194 0 0 1-.097-.05.168.168 0 0 1-.045-.097.438.438 0 0 1 .01-.155l.216-.968-.298-.067-.216.968a.659.659 0 0 0-.004.307.436.436 0 0 0 .131.219.532.532 0 0 0 .242.118c.097.022.187.021.268-.003a.425.425 0 0 0 .21-.143.664.664 0 0 0 .125-.28l.202-.907c.257.005.366-.077.366-.2 0-.101-.09-.156-.135-.17-.063-.003-.19.02-.19.123 0 .13.114.148.119.141Zm1.046-.118c-.02.088.011.312.31.51.141-.31-.148-.469-.31-.51Zm.253 1.54-.021.057a.968.968 0 0 1-.15.272.675.675 0 0 1-.2.172.56.56 0 0 1-.482.029.576.576 0 0 1-.347-.342.696.696 0 0 1-.038-.262.99.99 0 0 1 .066-.304l.021-.057a.991.991 0 0 1 .15-.272.686.686 0 0 1 .2-.172.545.545 0 0 1 .232-.069.596.596 0 0 1 .251.04.589.589 0 0 1 .327.298h.002c.03.005.112.016.155-.053-.005.007-.118-.011-.118-.14 0-.105.126-.127.19-.125.044.015.134.07.134.171 0 .12-.102.2-.342.2a.687.687 0 0 1 .035.253.971.971 0 0 1-.065.304Zm-.343-.065.022-.058a.919.919 0 0 0 .05-.19.449.449 0 0 0 .002-.151.237.237 0 0 0-.05-.111.222.222 0 0 0-.097-.069.226.226 0 0 0-.121-.014.229.229 0 0 0-.109.051.463.463 0 0 0-.098.116c-.03.048-.057.107-.083.176l-.022.059a1.044 1.044 0 0 0-.053.188.482.482 0 0 0-.002.152.247.247 0 0 0 .049.113c.024.03.058.053.1.07.04.015.08.019.118.012a.238.238 0 0 0 .11-.053.459.459 0 0 0 .098-.115.929.929 0 0 0 .086-.176Zm3.836 3.792-.052.03a.959.959 0 0 1-.288.116.671.671 0 0 1-.263.006.562.562 0 0 1-.207-.084c-.08.084-.039.288-.004.39l-.312.086c-.059-.352.076-.544.173-.615a.682.682 0 0 1-.122-.304.578.578 0 0 1 .028-.244.693.693 0 0 1 .136-.227.982.982 0 0 1 .242-.193l.052-.03a.976.976 0 0 1 .288-.116.68.68 0 0 1 .263-.006.543.543 0 0 1 .223.095.6.6 0 0 1 .17.191.594.594 0 0 1 .079.241.55.55 0 0 1-.029.243.68.68 0 0 1-.135.227.964.964 0 0 1-.242.194Zm-.225-.268.054-.032a.92.92 0 0 0 .159-.114.446.446 0 0 0 .096-.116.237.237 0 0 0 .031-.118.225.225 0 0 0-.032-.115.227.227 0 0 0-.084-.088.229.229 0 0 0-.117-.03.457.457 0 0 0-.148.027 1.019 1.019 0 0 0-.176.084l-.054.031a1.028 1.028 0 0 0-.16.112.475.475 0 0 0-.096.116.247.247 0 0 0-.034.118c0 .04.012.08.034.119.022.037.05.066.084.085.033.019.073.028.117.028a.453.453 0 0 0 .15-.026.919.919 0 0 0 .176-.081ZM34.302 32.96l-.057.066-1.54-.65.231-.273.278.133.296-.348-.175-.255.232-.273.882 1.427-.055.064-.092.109Zm-.293-.343-.325-.475-.193.227.518.248Zm.756.506a3.377 3.377 0 0 1-.029-.261l-.512.443.043.279.498-.461Zm-2.614-.504.294-.253.961 1.24-.287.217-.968-1.204ZM19.694 21.63c-.017-.062-.063-.231.082-.43.165-.226.417.039.4.417h-.145c.008-.1-.01-.299-.153-.287-.143.011-.117.196-.086.287l-.093.033c0-.005-.002-.011-.005-.02Zm.336.543-.117.201c-.297-.608.148-.668.407-.62l-.136.18-.219.03.065.209Zm1.025-.197.057.02a.96.96 0 0 1 .275.143.678.678 0 0 1 .176.196.569.569 0 0 1 .041.484.57.57 0 0 1-.33.358.683.683 0 0 1-.26.045.978.978 0 0 1-.303-.059l-.057-.02a.98.98 0 0 1-.275-.142.687.687 0 0 1-.177-.196.552.552 0 0 1-.074-.232.605.605 0 0 1 .033-.254.591.591 0 0 1 .129-.218.543.543 0 0 1 .201-.138.672.672 0 0 1 .26-.045c.095.001.197.02.304.058Zm-.055.346-.059-.02a.91.91 0 0 0-.19-.047.44.44 0 0 0-.15.003.235.235 0 0 0-.11.054.224.224 0 0 0-.065.1.23.23 0 0 0-.01.12.233.233 0 0 0 .053.109.464.464 0 0 0 .117.095c.05.029.109.055.178.08l.06.02c.068.024.13.04.188.048a.467.467 0 0 0 .15-.002.244.244 0 0 0 .111-.052.234.234 0 0 0 .067-.103.224.224 0 0 0 .01-.12.239.239 0 0 0-.056-.108.456.456 0 0 0-.117-.096.914.914 0 0 0-.177-.081Zm.301 10.197.116.204c-.673-.047-.502-.463-.332-.666l.087.208-.082.207.211.047Zm.343-.991.046-.04a.962.962 0 0 1 .26-.167.67.67 0 0 1 .258-.056.56.56 0 0 1 .437.207.577.577 0 0 1 .143.466.695.695 0 0 1-.09.249.987.987 0 0 1-.203.235l-.046.04a.982.982 0 0 1-.26.168.682.682 0 0 1-.257.056.544.544 0 0 1-.237-.052.598.598 0 0 1-.202-.155.591.591 0 0 1-.123-.222.55.55 0 0 1-.018-.244.683.683 0 0 1 .09-.249.968.968 0 0 1 .202-.236Zm.27.222-.046.04a.915.915 0 0 0-.134.142.446.446 0 0 0-.074.133.239.239 0 0 0-.008.122.225.225 0 0 0 .053.107c.03.034.063.057.1.07a.23.23 0 0 0 .12.007.455.455 0 0 0 .14-.054c.05-.029.102-.067.157-.116l.047-.04c.055-.049.1-.095.136-.14a.475.475 0 0 0 .073-.133.246.246 0 0 0 .011-.123.235.235 0 0 0-.055-.11.223.223 0 0 0-.098-.067.237.237 0 0 0-.121-.006.456.456 0 0 0-.142.054.926.926 0 0 0-.158.114Z" fill="#CC2215"/><defs><linearGradient id="a" x1="24.074" y1="22.641" x2="24.074" y2="31.097" gradientUnits="userSpaceOnUse"><stop stop-color="#1DA759"/><stop offset="1" stop-color="#60CB91"/></linearGradient></defs></svg>