<!-- by TradingView --><svg width="56" height="56" viewBox="0 0 56 56" xmlns="http://www.w3.org/2000/svg"><path fill="#F0F3FA" d="M0 0h56v56H0z"/><path d="M34.55 27H45l-9.05 2.6 1.41 3.4-6.59-2.44-7.77 2.1L33.45 24l1.1 3ZM23 27h5.14l-2.28 1.78L23 27Z" fill="red"/><path d="M16.73 27H16l4.51 8L33.5 24.2V24H33l-12.38 9.87L16.73 27Z" fill="#0641FE"/><path fill-rule="evenodd" d="M47.57 20H8.43c-.24 0-.43.2-.43.46v15.08c0 .25.2.46.43.46h39.14c.24 0 .43-.2.43-.46V20.46c0-.25-.19-.46-.43-.46ZM8.43 19C7.64 19 7 19.69 7 20.53v14.94C7 36.3 7.64 37 8.43 37h39.14c.79 0 1.43-.69 1.43-1.53V20.53c0-.84-.64-1.53-1.43-1.53H8.43Z" fill="#0641FE"/><path d="m21.4 31.88-4.28-7.84H10L11.14 26H17l4.17 7 12.26-10H42l2-2h-9.35L21.39 31.88Z" fill="#0641FE"/><path fill="#0641FE" fill-opacity=".7" d="M22 33h20v2H22z"/></svg>