<!-- by TradingView --><svg width="56" height="56" viewBox="0 0 56 56" xmlns="http://www.w3.org/2000/svg"><path fill="#F0F3FA" d="M0 0h56v56H0z"/><path fill-rule="evenodd" d="M22 38.36 28 30l6 8.37a11.76 11.76 0 0 1-12-.01ZM30 36a2 2 0 1 1-4 0 2 2 0 0 1 4 0Z" fill="#FF6000"/><path fill-rule="evenodd" d="M28 45a17 17 0 1 0 0-34 17 17 0 0 0 0 34Zm0-.49a16.51 16.51 0 1 0 0-33.02 16.51 16.51 0 0 0 0 33.02Z" fill="#00427F"/><path fill-rule="evenodd" d="M28 40a12 12 0 1 0 0-24 12 12 0 0 0 0 24Zm0-.35a11.65 11.65 0 1 0 0-23.3 11.65 11.65 0 0 0 0 23.3Z" fill="#00427F"/><path d="M17.25 33c-.42-.94-.71-1.95-.87-3h23.24a11.66 11.66 0 0 1-.87 3h-21.5ZM39.7 40.03 36 36.5l.26-.27 3.7 3.53-.26.27ZM16.28 40.03 20 36.5l-.26-.27-3.72 3.53.26.27ZM37.03 25c-1.35-3.92-4.82-6.7-8.88-6.7-4.06 0-7.52 2.78-8.87 6.7h1.04c1.3-3.32 4.32-5.65 7.83-5.65 3.52 0 6.54 2.33 7.84 5.65h1.04Z" fill="#00427F"/><path fill="#00427F" d="M18.84 24.54h18.29V25H18.84z"/><path d="M18 25h1.4l1.4-2.06-1.27-1.02A12.21 12.21 0 0 0 18 25ZM38 25h-1.4l-1.4-2.06 1.27-1.02C37.25 23 37.8 24.42 38 25ZM21.34 19.74l.72 1.16 2.1-1.53-.6-1.14c-.9.4-1.85 1.17-2.22 1.51ZM29.45 17.17l-.18 1.34-1.36-.04-1.37.04-.17-1.34c.5-.09 1.02-.17 1.54-.17.51 0 1.03.08 1.54.17ZM34.44 19.73l-.72 1.16-2.1-1.53.6-1.14c.9.4 1.86 1.17 2.22 1.51Z" fill="#00427F"/><path fill-rule="evenodd" d="M20 27h-2v1h-1.82v.23H18v.54h-1.82V29H18v1h2v-1h2v1h2v-1h3v1h2v-1h2v1h2v-1h3v1h2v-1h2v-1h-2v-1h-2v1h-3v-1h-2v1h-2v-1h-2v1h-3v-1h-2v1h-2v-1Zm18 1.23v.54h1.79v-.54h-1.8Zm-2 .54h-3v-.54h3v.54Zm-7-.54v.54h2v-.54h-2Zm-2 .54h-3v-.54h3v.54Zm-7-.54v.54h2v-.54h-2Zm-1.8 1.54v-2.54h1.59v2.54h-1.58Zm4 0v-2.54h1.59v2.54h-1.58Zm5-2.54v2.54h1.59v-2.54h-1.58Zm4 2.54v-2.54h1.59v2.54h-1.58Zm5-2.54v2.54h1.59v-2.54h-1.58Z" fill="#00427F"/><path d="M17 34.92c.19.04.35.15.47.32.16.22.21.44.16.66-.05.22-.2.42-.45.59-.27.18-.52.26-.77.22a.79.79 0 0 1-.52-.34c-.19-.25-.24-.49-.15-.72a.66.66 0 0 1 .2-.3l.23.3a.52.52 0 0 0-.1.2c-.03.1 0 .21.08.32.08.12.2.17.33.17.15 0 .3-.05.47-.17.18-.12.28-.25.31-.38a.4.4 0 0 0-.06-.35.38.38 0 0 0-.3-.17.6.6 0 0 0-.23.04l-.22-.31a.86.86 0 0 1 .55-.08Zm-.44-1.09c.13.23.17.44.11.63-.06.25-.23.46-.53.62-.3.17-.57.22-.8.14-.2-.05-.37-.19-.5-.42-.14-.22-.18-.43-.12-.63.05-.24.23-.45.53-.61.29-.17.56-.21.8-.14.2.05.37.19.5.41Zm-.63-.06a.78.78 0 0 0-.49.12c-.18.1-.3.22-.35.35a.43.43 0 0 0 .03.4c.08.13.2.21.34.23.14.03.3-.01.49-.12.18-.1.3-.22.35-.35a.44.44 0 0 0-.03-.4.45.45 0 0 0-.34-.23Zm-.43-2.15.14.36-.95 1.17 1.24-.47.13.33-1.74.67-.16-.37.95-1.15-1.22.47-.13-.34 1.74-.67Zm-.35-1.23c.08.08.14.2.18.34.05.24.01.45-.12.64a.99.99 0 0 1-.63.4c-.3.06-.56.04-.77-.08a.84.84 0 0 1-.42-.57.83.83 0 0 1 .05-.6.67.67 0 0 1 .38-.33l.09.37a.36.36 0 0 0-.21.27.52.52 0 0 0 0 .21c.04.14.12.25.26.32.13.06.3.07.53.02.22-.05.37-.13.44-.26a.5.5 0 0 0 .06-.37.45.45 0 0 0-.18-.28.5.5 0 0 0-.33-.09l.1.42-.3.07-.18-.75.98-.22.06.25-.22.09c.1.05.18.1.23.15ZM13 27.85l.33-.03.04.55 1.54-.11.03.38-1.54.11.05.56-.33.02-.12-1.48Zm.07-1.69 1.15.64.7.02v.39l-.71-.02-1.19.6.02-.45.82-.36-.8-.38v-.44Zm2.16-1.92c.1.17.11.35.06.56a.8.8 0 0 1-.4.55c-.2.1-.45.13-.74.06-.32-.07-.55-.2-.68-.42a.76.76 0 0 1-.1-.6c.08-.3.23-.5.46-.6a.69.69 0 0 1 .37-.04l-.08.37c-.1 0-.17.02-.22.05-.1.05-.16.14-.2.28-.03.13 0 .25.1.36.1.1.24.18.45.22.2.05.36.04.49-.02a.4.4 0 0 0 .22-.28c.03-.13.01-.24-.06-.33a.58.58 0 0 0-.19-.14l.09-.37c.2.07.33.2.43.35Zm.55-1.04c-.1.25-.24.4-.43.48-.23.11-.5.1-.82-.02-.32-.12-.52-.3-.61-.53-.09-.18-.08-.4.02-.64.1-.25.24-.4.43-.48.23-.11.5-.1.82.02.31.12.52.3.62.53.08.18.07.4-.03.64Zm-.33-.52a.77.77 0 0 0-.4-.3.78.78 0 0 0-.5-.05.44.44 0 0 0-.3.28.44.44 0 0 0 .02.4c.07.12.2.22.4.3.2.08.37.1.5.05a.45.45 0 0 0 .3-.28.43.43 0 0 0-.02-.4Zm.8-2.03-.2.34.58.33-.2.33-1.62-.92.41-.69c.1-.16.21-.26.35-.31.14-.05.3-.02.47.07.2.11.3.24.33.38.02.14-.02.3-.12.47ZM16 20.3c-.01-.06-.06-.12-.15-.16-.08-.05-.16-.06-.22-.04a.33.33 0 0 0-.16.15l-.18.31.48.27.18-.3a.3.3 0 0 0 .05-.23Zm1.9-.79-.65-.5-.46.56.66.5-.24.3-1.47-1.13.24-.3.56.43.45-.56-.56-.43.24-.3 1.48 1.13-.25.3Zm.87-1.45-.5.47.17.36-.3.28-.8-1.78.32-.3 1.77.88-.3.28-.36-.19Zm-.3-.15-.68-.37.33.69.35-.32Zm2.17-.88-.3.24-1.43-.56.82 1.03-.29.22-1.15-1.45.32-.25 1.4.56-.81-1 .28-.23 1.16 1.44Zm1.86-1.16a.75.75 0 0 1-.39.4.82.82 0 0 1-.68.07c-.22-.09-.4-.26-.53-.52-.15-.29-.19-.55-.11-.78.06-.2.2-.36.41-.46.28-.14.53-.16.76-.04.12.06.21.15.27.25l-.35.17a.53.53 0 0 0-.18-.13c-.1-.04-.2-.03-.33.03a.38.38 0 0 0-.22.3.8.8 0 0 0 .1.48c.1.19.21.3.34.36.12.05.25.05.37-.01.12-.07.2-.15.21-.26a.56.56 0 0 0 0-.24l.34-.17c.06.2.06.38 0 .55Zm1.18-.25c-.25.09-.47.08-.65 0-.24-.11-.41-.32-.52-.64-.11-.31-.1-.58.02-.8.09-.18.26-.31.51-.4.26-.08.48-.08.66.01.23.1.4.31.51.63.11.31.1.58-.02.8-.09.19-.26.32-.51.4Zm.19-.58a.74.74 0 0 0-.03-.5.75.75 0 0 0-.28-.4.46.46 0 0 0-.41-.05.45.45 0 0 0-.3.28c-.05.13-.04.3.03.5.07.19.16.32.29.4.12.08.26.1.4.04a.44.44 0 0 0 .3-.27Zm2.2-.1-.37.1-1.05-1.1.3 1.26-.36.08-.42-1.79.4-.09 1.02 1.09-.29-1.25.36-.08.42 1.79Zm1.3-.12a.73.73 0 0 1-.37.12.8.8 0 0 1-.62-.2.96.96 0 0 1-.3-.68 1 1 0 0 1 .19-.74c.15-.19.37-.3.64-.31.24-.02.43.02.59.13.15.1.24.25.28.42l-.39.03a.36.36 0 0 0-.23-.24.55.55 0 0 0-.22-.03.47.47 0 0 0-.36.2c-.09.11-.12.29-.1.51.01.23.08.38.19.47.11.08.23.12.37.11a.47.47 0 0 0 .31-.14.48.48 0 0 0 .13-.3l-.43.03-.02-.3.78-.06.07.98-.26.02-.05-.22a.9.9 0 0 1-.2.2Zm2.99-1.63-.04.32-.56-.07-.2 1.5-.39-.05.2-1.5-.56-.07.04-.32 1.5.19Zm.72 1.28-.4-.1-.16.7-.37-.08.42-1.78.9.2c.13.03.22.07.28.11.07.04.11.1.15.17a.5.5 0 0 1 .05.37.54.54 0 0 1-.13.23.38.38 0 0 1-.25.12c.07.06.12.12.14.19a.6.6 0 0 1-.01.29l-.03.12a.92.92 0 0 0-.03.17c0 .05.01.08.05.11l-.02.05-.42-.1v-.1l.02-.16.04-.16c.02-.12.02-.2-.01-.24-.03-.05-.1-.09-.22-.11Zm.31-.28c.09-.01.14-.07.16-.17.03-.11 0-.2-.06-.25a.43.43 0 0 0-.17-.07l-.45-.1-.11.48.43.1a.5.5 0 0 0 .2.01Zm.95-.56.36.12-.6 1.74-.37-.12.6-1.74Zm1.32 2.44-.36-.14-.23-1.5-.48 1.22-.34-.13.68-1.7.39.14.21 1.46.48-1.2.34.14-.69 1.7Zm1.1.62.43-.72-.64-.35-.42.7-.33-.18.93-1.6.34.2-.36.6.64.36.35-.6.34.18-.93 1.6-.34-.2Zm1.99 1.37a.72.72 0 0 1-.35-.18.77.77 0 0 1-.3-.58.96.96 0 0 1 .28-.68c.2-.23.42-.35.67-.38.24-.03.47.04.68.22.18.15.28.32.31.5.03.18 0 .35-.1.5l-.3-.25a.35.35 0 0 0 .02-.34.52.52 0 0 0-.14-.17.47.47 0 0 0-.4-.11c-.14.02-.29.12-.44.29-.15.17-.22.32-.2.46a.5.5 0 0 0 .18.34.47.47 0 0 0 .63 0l-.33-.28.2-.23.6.5-.66.75-.2-.17.12-.2a.92.92 0 0 1-.27 0Zm2.75.17-.24.23-.39-.4-1.11 1.04-.27-.28 1.11-1.04-.39-.4.24-.23 1.05 1.08Zm.1.1.25.34-.93 1.14 1.4-.48.24.32-1.9.55-.22-.3 1.16-1.56Zm1.75 2.64-.29.16-.28-.47-1.34.75-.2-.33 1.34-.76-.28-.48.3-.16.75 1.3Zm-.93 2.61a.93.93 0 0 1-.14-.26.83.83 0 0 1 .02-.63c.1-.24.31-.41.64-.52.32-.1.6-.1.83.04.18.1.32.27.4.49.07.22.07.44-.03.64-.1.23-.3.4-.6.5-.16.05-.3.07-.42.07a.71.71 0 0 1-.3-.05l-.12.26-.27-.12.13-.28a.92.92 0 0 1-.14-.14Zm.3-.18.1-.23.27.12-.11.23h.17c.07 0 .15-.01.24-.04a.8.8 0 0 0 .42-.28c.08-.11.1-.25.04-.4a.45.45 0 0 0-.28-.3c-.13-.04-.3-.03-.51.03-.24.09-.4.2-.46.36-.04.1-.04.21 0 .32a.48.48 0 0 0 .11.19Zm.88 1.72 1.12-.26.09.38-1.12.26a.99.99 0 0 1-.48.01c-.22-.06-.37-.25-.44-.56-.08-.31-.03-.54.15-.7.09-.08.23-.15.43-.2l1.12-.24.1.38-1.13.25a.66.66 0 0 0-.27.1c-.09.07-.12.18-.08.34.03.15.1.23.22.26.07.01.16 0 .29-.02Zm-.12 1.74-.06-.67-.4-.1-.02-.4 1.92.51.03.43-1.82.8-.03-.42.38-.15Zm.3-.13.73-.28-.76-.19.04.47Zm-.7 2.2.02-.38 1.35-.72-1.33-.03v-.36l1.88.05-.01.4-1.33.7 1.31.03v.36l-1.88-.05Zm-.17 1.27a.69.69 0 0 1-.02-.38.78.78 0 0 1 .36-.55 1 1 0 0 1 .74-.12c.3.06.53.18.68.37.15.2.2.42.15.69a.84.84 0 0 1-.28.52.68.68 0 0 1-.49.16l.07-.37c.13 0 .23-.06.3-.16a.52.52 0 0 0 .08-.2.45.45 0 0 0-.1-.39c-.1-.11-.26-.19-.48-.23-.23-.04-.4-.02-.51.07a.5.5 0 0 0-.2.32c-.03.13-.01.24.05.33.06.1.15.16.26.2l.08-.42.3.06-.13.75-.99-.17.05-.25h.23a.88.88 0 0 1-.15-.23Zm-.9 2.7.14-.35 1.52-.22-1.24-.48.13-.33 1.75.67-.15.37-1.5.21 1.22.47-.13.34L40 32.9Zm-.22 1.27.31-.6-.28-.29.18-.36 1.37 1.43-.2.38-1.98-.26.2-.37.4.07Zm.33.05.77.12-.55-.54-.22.42Zm-1.16.55.2-.29 1.53 1.07-.33.45-1.4-.56 1.01 1.1-.33.45-1.52-1.06.2-.3 1.04.73a12.17 12.17 0 0 1 .25.17l-1.08-1.17.22-.3 1.49.6a11.84 11.84 0 0 0-.25-.17l-1.03-.72ZM21.55 41.44a.78.78 0 0 1-.57-.07.8.8 0 0 1-.45-.5 1 1 0 0 1 .11-.73c.15-.29.34-.47.58-.55a.8.8 0 0 1 .62.05c.28.14.44.34.48.58.02.14 0 .26-.04.36l-.35-.17a.51.51 0 0 0 0-.22c-.02-.1-.1-.18-.22-.25a.4.4 0 0 0-.38 0 .82.82 0 0 0-.33.38c-.1.18-.13.34-.1.47.03.13.1.22.23.28.12.06.23.07.34.02a.58.58 0 0 0 .18-.14l.35.17a.85.85 0 0 1-.45.32Zm1.97-.34c.06.17.05.35-.03.53a.8.8 0 0 1-.36.41c-.16.1-.35.1-.57 0-.22-.08-.36-.21-.41-.39a.77.77 0 0 1 .03-.54.8.8 0 0 1 .36-.4c.16-.1.35-.1.57 0 .22.08.36.21.41.39Zm-.52-.12a.3.3 0 0 0-.27.01.51.51 0 0 0-.2.26.5.5 0 0 0-.04.33c.02.09.08.15.18.19.1.04.19.03.27-.01a.52.52 0 0 0 .2-.27.5.5 0 0 0 .04-.32.29.29 0 0 0-.18-.2Zm.5.93.36.1-.1.36-.37-.1.1-.36Zm2.28-.95-.08.32-.54-.12-.36 1.47-.38-.09.35-1.47-.55-.13.08-.31 1.48.33Zm.4.87c-.13-.02-.24 0-.3.09a.54.54 0 0 0-.1.23l-.11.64-.36-.07.25-1.33.34.06-.04.23a.75.75 0 0 1 .18-.16.4.4 0 0 1 .29-.03l.03.01-.07.36a.97.97 0 0 0-.1-.03Zm.18-.18c.1-.1.27-.16.5-.14a.9.9 0 0 1 .4.12c.12.07.17.18.15.35l-.05.62a6.2 6.2 0 0 0 .01.25l.05.05v.05l-.4-.03a.37.37 0 0 1-.01-.08v-.08a.75.75 0 0 1-.2.12.53.53 0 0 1-.26.05.46.46 0 0 1-.3-.13.37.37 0 0 1-.1-.3c.01-.18.09-.3.22-.36a.89.89 0 0 1 .33-.06h.12c.07 0 .12-.01.15-.03.05-.01.08-.04.08-.09 0-.06-.01-.1-.05-.12a.37.37 0 0 0-.17-.04c-.08-.01-.15 0-.18.04a.26.26 0 0 0-.06.13l-.35-.03a.52.52 0 0 1 .12-.29Zm.2.98c.03.03.07.04.12.05.07 0 .15-.01.22-.05s.1-.12.12-.24v-.13a.42.42 0 0 1-.16.04l-.08.01a.53.53 0 0 0-.17.04.16.16 0 0 0-.1.14c0 .06.01.1.05.14Zm2.35.16a.77.77 0 0 1-.53.2.82.82 0 0 1-.65-.22 1 1 0 0 1-.25-.7c-.01-.32.06-.57.23-.75a.8.8 0 0 1 .58-.24c.31-.01.55.08.7.28.08.11.13.22.14.34l-.39.01a.52.52 0 0 0-.1-.2c-.08-.07-.19-.1-.33-.1a.4.4 0 0 0-.33.18.8.8 0 0 0-.1.48c0 .2.05.36.14.46.1.1.2.14.34.14s.24-.05.3-.14a.57.57 0 0 0 .1-.22l.39-.01c-.03.2-.11.36-.24.5Zm1.43-1.2c.14.13.21.3.24.49.02.2-.01.37-.11.53-.1.15-.27.24-.5.27-.24.03-.43-.02-.56-.15a.78.78 0 0 1-.24-.49.78.78 0 0 1 .11-.52c.1-.16.27-.25.5-.28.24-.03.43.02.56.15Zm-.52.15a.3.3 0 0 0-.23.14.5.5 0 0 0-.04.32.5.5 0 0 0 .12.3c.06.07.15.1.26.08.1 0 .18-.05.22-.13a.5.5 0 0 0 .05-.33.5.5 0 0 0-.12-.3.3.3 0 0 0-.26-.08Zm.92.6.38-.07.07.37-.38.07-.07-.37Zm1.8-.03a.96.96 0 0 1-.27.12.88.88 0 0 1-.65-.05c-.23-.11-.4-.33-.48-.65-.1-.33-.07-.6.08-.82.11-.17.29-.3.52-.36a.88.88 0 0 1 .65.06c.23.11.39.32.47.62.05.15.06.3.05.4 0 .12-.02.22-.06.3l.26.13-.14.26-.28-.14-.14.13Zm-.17-.3-.23-.12.14-.25.23.12a.87.87 0 0 0 .02-.17.89.89 0 0 0-.04-.23.78.78 0 0 0-.25-.43.45.45 0 0 0-.41-.06.46.46 0 0 0-.32.25c-.06.13-.06.3 0 .5.07.25.18.4.34.47.1.05.21.05.33.02a.5.5 0 0 0 .2-.1Zm1.1-1.2c-.1.04-.17.11-.17.23 0 .05.01.12.04.2l.27.69-.34.12-.5-1.26.33-.12.07.18a.6.6 0 0 1 .07-.19.46.46 0 0 1 .24-.17.55.55 0 0 1 .37-.02c.1.03.2.13.26.29l.33.85-.34.13-.3-.77a.38.38 0 0 0-.1-.14c-.05-.05-.13-.06-.22-.03Zm.68-.42c.03-.14.15-.27.36-.37a.9.9 0 0 1 .4-.1c.13 0 .23.08.3.23l.3.55a5.6 5.6 0 0 0 .13.22l.06.01.03.05-.36.17a.39.39 0 0 1-.05-.06.91.91 0 0 1-.05-.07.73.73 0 0 1-.1.2.51.51 0 0 1-.2.17.46.46 0 0 1-.32.04.38.38 0 0 1-.25-.21c-.08-.15-.07-.29.01-.41a.86.86 0 0 1 .25-.22l.1-.06c.06-.04.1-.07.12-.1.03-.04.04-.08.02-.12-.03-.05-.06-.07-.1-.08-.05 0-.1.02-.18.05-.07.04-.12.08-.13.14l.01.13-.31.15a.51.51 0 0 1-.04-.3Zm.67.74a.2.2 0 0 0 .13-.01.37.37 0 0 0 .16-.16c.04-.07.04-.16-.02-.26l-.06-.12a.42.42 0 0 1-.12.12l-.06.05a.52.52 0 0 0-.13.12.16.16 0 0 0 0 .17c.02.05.06.08.1.1Z" fill="#FF6000"/></svg>