<!-- by TradingView --><svg width="56" height="56" fill="none" xmlns="http://www.w3.org/2000/svg"><path fill="#F0F3FA" d="M0 0h56v56H0z"/><path fill-rule="evenodd" clip-rule="evenodd" d="M44 30H12v-3.548l9.328.652-8.693-3.234 1.322-3.47 8.566 4.122-7.117-6.418 2.516-2.713 6.329 6.966-3.99-8.427 3.202-1.46 3.304 9.026L26.233 12h3.534l-.382 9.496 3-9.026 3.355 1.46-3.89 8.427 6.152-6.966 2.567 2.713-6.863 6.418L41.84 20.4l1.55 3.47-8.794 3.234L44 26.452V30Zm-3.431 8h-25.29c.94 1.592 4.6 6 12.785 6 6.547 0 11.064-4 12.505-6Zm-26.176-1.5h11.75l.164-.5h-2.852l.555-1.996a.293.293 0 0 0-.285-.377h-.497L22.492 36h-5.057l-1.04-2.768h-.392L15.369 35h.253l-.253 1H14l.24-1h.343l1.128-3.182h-.342L15.71 31h3.448c.032.068.097.32.097.791 0 .588-.324 1.441-1.224 1.441h-.814L17.863 35h1.027l.366-1.057A1.36 1.36 0 0 1 20.535 33h1.455l-.758 2h.73l.71-2h1.742c.304 0 .52.316.424.599L24.334 35h.501l.668-1.438a.917.917 0 0 1 .825-.562h1.74l-.727 2h2.667l.558-1.495h-.494l.291-.819h.507l.355-.992h-.545l.418-.694h2.65c.42 0 .708.413.555.796L33.013 35h.747l.733-2h1.891c.209 0 .353.23.279.42L35.927 35h.76l.839-1.975h1.596c.306 0 .507.034.41.317L38.957 35h.773l.457-1.495a.744.744 0 0 1 .7-.48h1.917L41.418 37H29.407l.262-.5h11.156l.186-.5h-2.895l.681-2.304a.146.146 0 0 0-.141-.191h-.701L37.172 36H27.015l-.34 1H14.921l-.53-.5Zm16.937-3.01L30.862 35h1.451l1.043-2.901a.292.292 0 0 0-.281-.389h-1.038l-.377.954h.277l-.23.827h-.377ZM16.576 31.73l-.305.826h1.611c.18 0 .442-.132.54-.464.078-.266-.166-.352-.298-.362h-1.548Zm4.028 3.264h-.944c.03-.06.107-.299.23-.687l.092-.29c.178-.558.463-.608.576-.593h.537l-.491 1.57Zm5.006 0h.99l.492-1.57h-.537c-.113-.015-.505.118-.619.585a19.14 19.14 0 0 1-.326.985Zm8.86-.023c.019-.066.34-1.019.5-1.487h.663c.1 0 .172.097.141.19l-.428 1.297h-.875Zm6.304-1.194-.376 1.232h.852l.6-1.615h-.492c-.307 0-.517.255-.584.383ZM36.292 32.4h-1.058a.64.64 0 0 1 .56-.333.51.51 0 0 1 .498.333Z" fill="#FE0D26"/></svg>