<!-- by TradingView --><svg width="56" height="56" viewBox="0 0 56 56" xmlns="http://www.w3.org/2000/svg"><path fill="#F0F3FA" d="M0 0h56v56H0z"/><path d="M45 28A17 17 0 0 1 11 28a17 17 0 0 1 34 .02Zm-33.62-.87a16.65 16.65 0 0 0 33.24 1.74 16.63 16.63 0 1 0-33.24-1.74Z" fill="#008720"/><path d="M31.6 23.87c-.63-2.14-1.64-3.08-3.64-4.09a6.4 6.4 0 0 1-3.36-3.88 8.29 8.29 0 0 1-.24-2.11c0-.15.04-.16.11-.03.92 1.74 1.92 2.54 3.86 3.64.56.32 1.15.81 1.76 1.48 1.1 1.19 1.47 3.41 1.54 4.98 0 .12 0 .12-.04.01Z" fill="#00923F"/><path d="M27.96 23.35a6.4 6.4 0 0 1-3.37-3.88 8.28 8.28 0 0 1-.23-2.1c0-.16.04-.16.1-.03.93 1.73 1.92 2.53 3.86 3.63.57.32 1.15.8 1.76 1.48 1.1 1.18 1.47 3.4 1.54 4.98 0 .12 0 .12-.04 0-.61-2.13-1.62-3.07-3.62-4.08Z" fill="#00923F"/><path d="M27.97 26.94a6.39 6.39 0 0 1-3.36-3.88 8.26 8.26 0 0 1-.24-2.1c0-.15.04-.16.11-.03.92 1.73 1.92 2.54 3.85 3.63.56.31 1.15.8 1.76 1.47 1.09 1.19 1.47 3.4 1.54 4.98 0 .11 0 .12-.04 0-.62-2.13-1.63-3.07-3.62-4.07Z" fill="#00923F"/><path d="M14.82 34.74c.04 0 .2-1.21.49-3.64 0-.1.05-.15.12-.17a.11.11 0 0 1 .13.05l.01.04c.04.28.04.55 0 .83l-.48 3.58c-.05.41-.14.62-.27.62s-.22-.2-.27-.62c-.14-1.2-.3-2.39-.46-3.58a3.2 3.2 0 0 1 .01-.88.11.11 0 0 1 .08-.05.1.1 0 0 1 .05 0c.07.03.11.08.12.18.28 2.43.43 3.64.47 3.64ZM35.83 34.08h-.22c-.08 0-.13-.04-.13-.13v-.44c0-.08.05-.13.13-.13h.44a.24.24 0 0 1 .24.23c.03.7.24 2.25-.75 2.44a.28.28 0 0 1-.2-.03.96.96 0 0 1-.48-.57c-.39-1.36-.38-2.69.02-4 .1-.35.57-.76.95-.42.35.31.45 1.06.38 1.46-.01.06-.05.1-.12.1h-.08c-.08 0-.12-.04-.11-.12 0-.32-.06-.55-.2-.7a.3.3 0 0 0-.3-.1.31.31 0 0 0-.22.2 4.84 4.84 0 0 0 0 3.2.34.34 0 0 0 .2.2.35.35 0 0 0 .3-.02c.31-.19.4-.54.28-1.07-.02-.07-.06-.1-.13-.1ZM15.9 31.39c0 .25.06.45.15.45.08 0 .14-.2.15-.45 0-.25-.07-.46-.15-.46-.08 0-.15.2-.15.46ZM28.6 32.63c.04-.1.1-.18.17-.25a.3.3 0 0 1 .48.12c.3.95.33 1.95.1 2.99-.06.27-.17.45-.33.54a.15.15 0 0 1-.18-.02 1.18 1.18 0 0 1-.27-.38c-.06-.11-.1-.1-.1.02l-.02.32c0 .03-.02.04-.05.04h-.1a.1.1 0 0 1-.07-.03.1.1 0 0 1-.03-.07v-4.88c0-.05.04-.08.1-.08h.1c.06 0 .09.03.09.09v1.57c0 .17.03.18.1.02Zm.25 2.74c.05 0 .1-.03.14-.1a.91.91 0 0 0 .11-.25 3.94 3.94 0 0 0 0-1.72c-.05-.23-.14-.36-.24-.36-.04 0-.09.04-.13.1a.91.91 0 0 0-.12.26 3.94 3.94 0 0 0 0 1.72c.06.22.15.35.24.35ZM30.2 32.63c.04-.1.1-.18.17-.24a.28.28 0 0 1 .27-.08.29.29 0 0 1 .2.2c.3.94.34 1.93.11 2.97-.06.27-.17.45-.33.54a.15.15 0 0 1-.18-.01 1.2 1.2 0 0 1-.27-.39c-.06-.1-.1-.1-.1.02l-.02.32c0 .03-.01.04-.04.04h-.1a.1.1 0 0 1-.08-.03.1.1 0 0 1-.03-.07v-4.86c0-.06.04-.09.1-.09h.1c.05 0 .08.03.08.1v1.56c0 .17.04.18.12.02Zm.24 2.73c.04 0 .09-.03.13-.09a.92.92 0 0 0 .11-.26 4 4 0 0 0 0-1.71.92.92 0 0 0-.1-.26c-.04-.07-.09-.1-.13-.1-.05 0-.1.03-.13.1a.92.92 0 0 0-.12.26 3.99 3.99 0 0 0 0 1.71c.03.11.06.2.1.26.05.06.09.1.14.1ZM25.32 33.8a.08.08 0 0 0-.1.08v1.98c0 .1-.06.14-.16.14H25c-.08 0-.11-.03-.11-.1v-4.64a.27.27 0 0 1 .27-.27h.65a.33.33 0 0 1 .3.2c.38.9.34 1.74-.13 2.5a.2.2 0 0 0-.02.19c.27.67.4 1.36.42 2.05 0 .05-.03.07-.07.08h-.07c-.03.01-.07 0-.1-.02a.17.17 0 0 1-.07-.1l-.37-1.68c-.05-.22-.17-.35-.37-.4Zm-.1-2.03v1.28c0 .02 0 .04.02.06l.05.02h.24c.12 0 .24-.06.33-.15.08-.1.13-.22.13-.36v-.42a.53.53 0 0 0-.13-.35.44.44 0 0 0-.33-.15h-.24c-.02 0-.04 0-.05.02a.07.07 0 0 0-.02.05ZM18.55 35.33c.2.02.27.12.24.3-.1.49-.3.55-.63.17a.2.2 0 0 1-.04-.12v-2.43a.33.33 0 0 0-.07-.2c-.18-.25-.19-.48 0-.68a.28.28 0 0 0 .07-.19v-1.01c0-.06.03-.1.09-.1h.1a.13.13 0 0 1 .12.13v1c0 .06.03.12.09.17.23.18.23.4-.01.67a.27.27 0 0 0-.08.18v1.98a.13.13 0 0 0 .12.13ZM16.82 34.48c0 .4.1.72.25.95a.13.13 0 0 0 .22 0l.3-.5c.08-.15.13-.14.14.03.04.45-.09.8-.38 1.05a.2.2 0 0 1-.19.04c-.87-.23-.66-2.5-.5-3.16a1 1 0 0 1 .36-.57.23.23 0 0 1 .31.02c.45.46.47 1.32.41 1.9 0 .03-.02.06-.04.09a.15.15 0 0 1-.1.03h-.66a.12.12 0 0 0-.08.04.11.11 0 0 0-.04.08Zm.1-.6h.46a.07.07 0 0 0 .07-.04v-.05c0-.24-.02-.47-.07-.64-.06-.17-.13-.26-.2-.26h-.04c-.04 0-.08.02-.11.06a.65.65 0 0 0-.1.2 2.62 2.62 0 0 0-.1.64v.02l.03.05.05.02ZM19.35 32.68c.03-.03.08-.13.15-.28.03-.07.08-.1.15-.11.11-.02.2.05.28.18.11.23.17.5.18.85 0 .9 0 1.77-.02 2.62 0 .05-.02.07-.07.07h-.07a.11.11 0 0 1-.1-.1l-.07-2.71c0-.18-.1-.24-.26-.18-.04.02-.1.09-.18.23a.52.52 0 0 0-.08.27v2.38a.1.1 0 0 1-.03.08.11.11 0 0 1-.08.03h-.1a.1.1 0 0 1-.07-.03.1.1 0 0 1-.03-.07v-3.54c0-.01 0-.03.02-.04a.07.07 0 0 1 .05-.02h.05c.08 0 .12.04.13.1l.03.25c.01.1.05.1.12.02ZM21.2 35.69l-.1.2a.3.3 0 0 1-.16.13.26.26 0 0 1-.23 0c-.45-.24-.28-1.5-.15-1.83a.19.19 0 0 1 .06-.08l.63-.44a.18.18 0 0 0 .07-.14c0-.3-.05-.5-.17-.62a.15.15 0 0 0-.1-.04c-.03 0-.07 0-.1.03-.15.1-.23.3-.24.55a.2.2 0 0 1-.02.08c-.04.08-.09.1-.14.07l-.04-.04c-.11-.47-.02-.87.26-1.18a.36.36 0 0 1 .5-.04.8.8 0 0 1 .32.66c.01.99.03 1.91.06 2.77.01.33-.07.35-.24.08l-.07-.16c-.04-.08-.08-.08-.13 0ZM21 34.37c-.35.37-.39.73-.11 1.09a.1.1 0 0 0 .08.04.1.1 0 0 0 .09-.05c.2-.3.3-.62.27-.96-.02-.29-.13-.33-.33-.12ZM33.35 32.64l.04-.21c.02-.2.1-.23.23-.07a.8.8 0 0 1 .17.68c-.01.08-.05.1-.13.1a.34.34 0 0 1-.11-.04.19.19 0 0 0-.1-.02.2.2 0 0 0-.1.03.24.24 0 0 0-.1.19l-.06 2.63c0 .06-.03.08-.09.08h-.06c-.08 0-.11-.03-.12-.1a70.93 70.93 0 0 1 0-3.37c0-.1.03-.17.08-.2.08-.05.13-.04.16.05l.07.22c.04.12.08.13.12.03ZM36.98 32.6c.04.13.08.14.12.03l.04-.2c.02-.2.1-.23.24-.08a.8.8 0 0 1 .16.7c0 .06-.05.1-.13.09a.34.34 0 0 1-.11-.04.19.19 0 0 0-.1-.02.2.2 0 0 0-.1.03.23.23 0 0 0-.08.08.24.24 0 0 0-.03.1l-.05 2.65c0 .05-.03.08-.1.08h-.06c-.07 0-.1-.04-.11-.11a71.6 71.6 0 0 1 0-3.37c0-.1.03-.17.08-.2.08-.06.13-.04.16.05l.07.21ZM16.04 32.31a.14.14 0 0 0-.14.14v3.43c0 .08.06.15.14.15.08 0 .15-.07.15-.15v-3.43a.14.14 0 0 0-.15-.14ZM22.31 32.68c.14-.23.23-.35.3-.38a.21.21 0 0 1 .1-.02c.03 0 .06.01.08.03.08.1.17.23.25.41 0 .02.02.03.04.04h.06a.05.05 0 0 0 .02-.05c0-.42.19-.5.56-.24a.34.34 0 0 1 .14.28v3.23c0 .02-.01.04-.04.04h-.13a.13.13 0 0 1-.13-.13v-2.72c0-.14-.07-.19-.2-.16a.19.19 0 0 0-.12.1.9.9 0 0 0-.15.4l-.03 2.37c0 .04-.01.07-.04.1a.13.13 0 0 1-.1.04h-.07a.08.08 0 0 1-.08-.09c0-1.4 0-2.3-.03-2.7 0-.14-.08-.2-.23-.21-.12-.01-.18.03-.18.11l-.09 2.8c0 .06-.03.08-.09.08h-.05c-.09 0-.13-.04-.13-.12v-3.53a.07.07 0 0 1 .08-.08l.04.02c.06.05.1.17.14.36 0 .09.04.1.08.02ZM27.56 35.67c-.01-.09-.05-.1-.12-.02-.03.03-.08.13-.15.29a.18.18 0 0 1-.15.1c-.11.02-.2-.05-.28-.18-.11-.23-.17-.5-.17-.85 0-.9 0-1.77.02-2.62 0-.05.03-.08.08-.08h.06c.03 0 .06.02.08.04.02.02.03.05.03.08l.05 2.7c0 .18.1.24.27.18.03-.01.09-.09.17-.22a.52.52 0 0 0 .08-.27l.02-2.39a.1.1 0 0 1 .03-.07.1.1 0 0 1 .07-.03h.1a.1.1 0 0 1 .08.03.1.1 0 0 1 .02.06l-.01 3.55v.02l-.02.02a.07.07 0 0 1-.05.01h-.06c-.07 0-.11-.04-.12-.1l-.03-.25ZM31.75 34.37a.12.12 0 0 0-.1.07l-.02.04c.01.41.1.73.26.96a.13.13 0 0 0 .22-.01l.28-.5c.09-.14.14-.13.16.04.03.44-.1.8-.39 1.05a.2.2 0 0 1-.19.04c-.87-.23-.66-2.5-.5-3.17a1 1 0 0 1 .36-.57c.05-.04.1-.06.16-.05.06 0 .11.03.15.07.46.46.47 1.32.42 1.9 0 .03-.02.06-.05.09a.15.15 0 0 1-.1.04h-.66Zm-.02-.48h.49l.03-.01a.07.07 0 0 0 .04-.07v-.03a2.58 2.58 0 0 0-.1-.63.63.63 0 0 0-.1-.19c-.04-.04-.07-.07-.11-.06h-.04c-.08 0-.15.1-.2.26-.06.17-.08.4-.08.64v.02a.07.07 0 0 0 .02.05.07.07 0 0 0 .05.02ZM38.34 36.07c-.09 0-.17-.05-.26-.15-.08-.1-.15-.23-.21-.4a5.06 5.06 0 0 1 0-2.69c.05-.18.13-.32.2-.42.09-.1.18-.14.26-.14.1 0 .18.05.26.14.08.1.16.24.22.41a5.09 5.09 0 0 1 0 2.69c-.06.18-.13.32-.21.41-.08.1-.17.15-.26.15Zm0-.67c.04 0 .09-.04.13-.1a.93.93 0 0 0 .12-.27l.08-.4a4 4 0 0 0-.08-1.34c-.06-.24-.15-.37-.25-.37-.05 0-.1.04-.14.1a.93.93 0 0 0-.11.27 4 4 0 0 0 0 1.75c.06.22.15.35.25.36ZM40.06 35.66c0-.1-.05-.1-.11-.02-.03.03-.08.13-.15.28a.18.18 0 0 1-.15.11c-.11.02-.2-.05-.28-.18-.12-.23-.17-.5-.18-.84 0-.9 0-1.77.02-2.62 0-.05.03-.07.08-.07h.06a.11.11 0 0 1 .12.1l.05 2.7c0 .18.1.24.26.18.04-.01.1-.09.18-.22a.54.54 0 0 0 .08-.27v-2.38a.1.1 0 0 1 .04-.07.11.11 0 0 1 .07-.03h.1a.1.1 0 0 1 .07.03.1.1 0 0 1 .03.06v3.53l-.01.02-.02.02-.02.01h-.08c-.07 0-.11-.03-.12-.1l-.04-.24ZM41.1 35.7c-.07-.15-.1-.14-.1.03v1.57c0 .06-.04.1-.1.1h-.1c-.06 0-.09-.04-.09-.1v-4.88a.1.1 0 0 1 .1-.1h.1c.04 0 .05.02.05.05l.02.32c0 .12.04.13.1.02.1-.2.2-.33.28-.39a.15.15 0 0 1 .18-.01c.15.09.26.27.32.54a5.6 5.6 0 0 1-.1 2.99.29.29 0 0 1-.35.19.3.3 0 0 1-.13-.07.86.86 0 0 1-.18-.25Zm.26-.33c.05 0 .1-.03.13-.1a.93.93 0 0 0 .11-.26 4.06 4.06 0 0 0 0-1.72.93.93 0 0 0-.1-.26c-.04-.06-.08-.1-.13-.1-.04 0-.09.04-.13.1a.93.93 0 0 0-.11.26 4.07 4.07 0 0 0 0 1.72c.02.11.06.2.1.27.04.06.09.09.13.09Z" fill="#008720"/></svg>