<!-- by TradingView --><svg width="56" height="56" fill="none" xmlns="http://www.w3.org/2000/svg"><path fill="#F0F3FA" d="M0 0h56v56H0z"/><path fill-rule="evenodd" clip-rule="evenodd" d="M44 28c0 8.837-7.163 16-16 16s-16-7.163-16-16 7.163-16 16-16 16 7.163 16 16Zm1 0c0 9.389-7.611 17-17 17s-17-7.611-17-17 7.611-17 17-17 17 7.611 17 17Zm-20.05-5.745c-2.767-2.11-3.091-5.716-2.908-7.255 1.112 2.3 4.019 4.083 6.542 5.63 1.667 1.023 3.166 1.942 3.869 2.84 1.414 1.805 1.61 5.195 1.532 6.665-.436-3.012-2.955-4.368-5.611-5.798-1.17-.63-2.367-1.275-3.425-2.082Zm-2.908-1.91c-.184 1.54.141 5.145 2.907 7.256 1.057.807 2.255 1.451 3.425 2.081 2.656 1.43 5.175 2.787 5.611 5.799.079-1.47-.118-4.86-1.532-6.665-.703-.898-2.202-1.817-3.869-2.84-2.523-1.547-5.43-3.33-6.542-5.63Zm0 5.52c-.184 1.54.141 5.145 2.907 7.255 1.057.807 2.255 1.452 3.425 2.082 2.656 1.43 5.175 2.786 5.611 5.798.079-1.47-.118-4.86-1.532-6.665-.703-.897-2.202-1.817-3.869-2.84-2.523-1.547-5.43-3.33-6.542-5.63Z" fill="#00923F"/></svg>