<!-- by TradingView --><svg width="56" height="56" viewBox="0 0 56 56" xmlns="http://www.w3.org/2000/svg"><path fill="#F0F3FA" d="M0 0h56v56H0z"/><path d="M28.6 13.06C24.97 22.53 13.85 34.22 8 39c9.62-1.74 25-22.85 25-23.96 0-1.1-.39-3.04-2.22-3.04-1.47 0-2.07.7-2.18 1.06Z" fill="#DF2023"/><path d="M33.83 15.75C31.23 22.4 23.21 30.64 19 34c6.93-1.22 18-16.08 18-16.86 0-.78-.28-2.14-1.6-2.14-1.06 0-1.49.5-1.57.75Z" fill="#DF2023"/><path d="M31.4 17.05C33.3 24.64 39.24 31.41 42 34c-10.84-6.32-15-13.88-15-14.98 0-1.1.39-3.02 2.23-3.02 1.47 0 2.06.7 2.17 1.05Z" fill="#231560"/><path d="M36.23 17.82C37.62 23.72 41.98 28.99 44 31c-7.95-4.91-11-10.8-11-11.65 0-.86.28-2.35 1.63-2.35 1.08 0 1.52.55 1.6.82Z" fill="#231560"/><path d="M46.15 36.22c-.03-.28-.27-.44-.61-.44-.24 0-.54.09-.54.37-.02.37.6.43.87.5.18.04.35.1.48.17.4.2.65.55.65 1 0 .82-.73 1.18-1.46 1.18-.85 0-1.53-.45-1.54-1.35h.85c.02.38.29.57.68.57.25 0 .47-.1.47-.4 0-.22-.09-.34-.5-.44l-.38-.1c-.64-.15-1.03-.48-1.02-1.07 0-.79.72-1.21 1.44-1.21.73 0 1.45.44 1.46 1.22h-.85Z" fill="#DF2023"/><path d="M41 39v-4h3v.79h-2v.82h1.85v.78H42v.82h2V39h-3ZM38 39v-4h1.53c.79 0 1.34.54 1.34 1.33 0 .83-.52 1.3-1.37 1.3h-.97v-.76h.8c.35 0 .67-.16.67-.54 0-.37-.32-.55-.67-.55H39V39h-1Zm2.08-1.83L41 39h-.97l-.9-1.83h.95Z" fill="#DF2023"/><path d="M38 35v4h-.96L35 36.7V39h-1v-4h.98L37 37.3V35h1ZM27 39v-4h1v3.21h2V39h-3ZM27 37c0 1.16-.84 2-2 2-1.17 0-2-.84-2-2 0-1.16.83-2 2-2 1.16 0 2 .84 2 2Zm-1 0c0-.6-.33-1.17-1-1.17-.67 0-1 .56-1 1.17 0 .6.33 1.17 1 1.17.6 0 1-.41 1-1.17ZM34 37c0 1.16-.84 2-2 2-1.17 0-2-.84-2-2 0-1.16.83-2 2-2 1.16 0 2 .84 2 2Zm-1 0c0-.6-.33-1.17-1-1.17-.67 0-1 .56-1 1.17 0 .6.33 1.17 1 1.17.6 0 1-.41 1-1.17ZM19 39v-4h1v1.6h2V35h1v4h-1v-1.6h-2V39h-1ZM19 36.46h-1c-.06-.42-.5-.63-.9-.63-.69 0-1.1.54-1.1 1.17 0 .63.4 1.17 1.09 1.17.39 0 .83-.18.91-.6l1 .01c-.1.95-1.08 1.42-1.94 1.42-1.17 0-2.06-.8-2.06-2s.9-2 2.06-2c.92 0 1.83.48 1.94 1.46Z" fill="#231560"/></svg>