<!-- by TradingView --><svg width="56" height="56" viewBox="0 0 56 56" xmlns="http://www.w3.org/2000/svg"><path fill="#F0F3FA" d="M0 0h56v56H0z"/><path fill-rule="evenodd" d="M42 28c0 10.5-6.27 19-14 19s-14-8.5-14-19S20.27 9 28 9s14 8.5 14 19Zm-6.97 9.96C33.23 40.46 30.74 42 28 42c-2.72 0-5.2-1.53-7-4h8v-1.5L26 35v-6h2.7l2.88 5.8c.36.98 1.53 2.86 3.45 3.16Zm2.37-5.16c.39-1.5.6-3.12.6-4.8 0-7.73-4.48-14-10-14-3.03 0-5.74 1.89-7.58 4.86.55.54 1.26 1.14 2.17 1.14.71 0 1.51-.42 2.37-.87.98-.52 2.04-1.08 3.14-1.08 1.64 0 3.37.91 4.04 1.48l3.83 3.63c-.19 1-2.45 4.07-3.55 5.48 0 .77 1.68 1.83 2.58 2.36-.45 1-.12 3.57.56 3.57.36 0 .77-.52 1.16-1.02.24-.31.47-.61.68-.75ZM18.85 22.34A18.82 18.82 0 0 0 18 28a18 18 0 0 0 1.83 8.08L22 35V23.5a8.9 8.9 0 0 1-3.15-1.16ZM31 23.5c0 1.93-1.34 3.5-3 3.5s-3-1.57-3-3.5 1.34-3.5 3-3.5 3 1.57 3 3.5Zm-2.23-12.75c0 .4-.34.74-.77.74a.76.76 0 0 1-.77-.74c0-.42.34-.75.77-.75s.77.33.77.75Zm-3 1.04c.43 0 .78-.33.78-.75a.76.76 0 0 0-.78-.74.76.76 0 0 0-.77.74c0 .42.35.75.77.75Zm-1.52.26c0 .41-.35.74-.78.74a.76.76 0 0 1-.77-.74c0-.41.35-.75.77-.75.43 0 .78.34.78.75Zm-3.06 2.44c.43 0 .77-.33.77-.74a.76.76 0 0 0-.77-.75.76.76 0 0 0-.77.75c0 .4.34.74.77.74Zm-1 1.26c0 .4-.35.74-.78.74a.76.76 0 0 1-.77-.74c0-.42.34-.75.77-.75s.77.33.77.75Zm-2.6 3.12c.43 0 .78-.33.78-.75a.76.76 0 0 0-.78-.74.76.76 0 0 0-.77.74c0 .42.34.75.77.75Zm-.11 2.31c0 .41-.35.75-.78.75a.76.76 0 0 1-.77-.75c0-.41.34-.75.77-.75s.78.34.78.75Zm-1.44 4.31c.43 0 .78-.33.78-.74a.76.76 0 0 0-.78-.75.76.76 0 0 0-.77.75c0 .4.35.74.77.74Zm12.73 19.76a.76.76 0 0 0-.77-.74.76.76 0 0 0-.77.74c0 .42.34.75.77.75s.77-.33.77-.75Zm-3-1.04c.43 0 .78.34.78.75 0 .4-.35.74-.78.74a.76.76 0 0 1-.77-.74c0-.41.35-.75.77-.75Zm-1.52-.26a.76.76 0 0 0-.78-.75.76.76 0 0 0-.77.75c0 .41.35.75.77.75.43 0 .78-.34.78-.75Zm-3.06-2.24c.43 0 .77.34.77.75s-.34.74-.77.74a.76.76 0 0 1-.77-.74c0-.41.34-.75.77-.75Zm-1-1.46a.76.76 0 0 0-.78-.74.76.76 0 0 0-.77.74c0 .42.34.75.77.75s.77-.33.77-.75ZM17.76 37c.43 0 .78.33.78.75 0 .4-.35.74-.78.74a.76.76 0 0 1-.77-.74c0-.42.35-.75.77-.75Zm-.22-2.25a.76.76 0 0 0-.78-.75.76.76 0 0 0-.77.75c0 .4.35.74.77.74.43 0 .78-.33.78-.74Zm-1.5-4.1c.42 0 .77.33.77.74s-.35.75-.78.75a.76.76 0 0 1-.77-.75c0-.41.35-.74.77-.74Zm.5-2.8c0 .41-.35.75-.78.75a.76.76 0 0 1-.77-.75c0-.41.35-.74.77-.74.43 0 .78.33.78.74ZM30.23 11.8a.76.76 0 0 1-.78-.75c0-.4.35-.74.78-.74.42 0 .77.33.77.74s-.35.75-.77.75Zm1.52.26c0 .41.35.74.78.74.42 0 .77-.33.77-.74a.76.76 0 0 0-.77-.75.76.76 0 0 0-.78.75Zm3.06 2.44a.76.76 0 0 1-.77-.74c0-.42.34-.75.77-.75s.77.33.77.75c0 .4-.34.74-.77.74Zm1 1.26c0 .4.35.74.78.74.43 0 .77-.33.77-.74a.76.76 0 0 0-.77-.75.76.76 0 0 0-.77.75Zm2.6 3.12a.76.76 0 0 1-.78-.75c0-.4.35-.74.78-.74.43 0 .77.33.77.74 0 .42-.34.75-.77.75Zm.11 2.31c0 .41.35.75.78.75.43 0 .77-.34.77-.75a.76.76 0 0 0-.77-.75.76.76 0 0 0-.78.75Zm1.44 4.31a.76.76 0 0 1-.78-.74c0-.42.35-.75.78-.75.42 0 .77.33.77.75 0 .4-.35.74-.77.74Zm-10.5 19.47c0-.41.34-.75.77-.75.42 0 .77.34.77.75 0 .4-.35.74-.77.74a.76.76 0 0 1-.78-.74Zm3.07-1.76a.76.76 0 0 0-.78.75c0 .41.35.75.78.75.42 0 .77-.34.77-.75a.76.76 0 0 0-.77-.75Zm1.5-.74c0-.41.35-.75.78-.75.43 0 .77.34.77.75s-.34.74-.77.74a.76.76 0 0 1-.77-.74Zm2.56-2.95a.76.76 0 0 0-.77.74c0 .42.34.75.77.75s.77-.33.77-.75a.76.76 0 0 0-.77-.74Zm.86-1.76c0-.42.35-.75.78-.75.42 0 .77.33.77.75 0 .4-.35.74-.77.74a.76.76 0 0 1-.78-.74ZM39.23 34a.76.76 0 0 0-.78.75c0 .4.35.74.78.74.42 0 .77-.33.77-.74a.76.76 0 0 0-.77-.75Zm-.05-2.6c0-.42.35-.75.78-.75.42 0 .77.33.77.74s-.35.75-.77.75a.76.76 0 0 1-.78-.75Zm1.05-2.8a.76.76 0 0 1-.78-.75c0-.41.35-.74.78-.74.42 0 .77.33.77.74s-.35.75-.77.75Z" fill="#005A29"/><path fill-rule="evenodd" d="M28 25.56c.79 0 1.57-.83 1.57-2.06s-.78-2.06-1.57-2.06-1.57.83-1.57 2.06.78 2.06 1.57 2.06Zm0 .44c1.1 0 2-1.12 2-2.5s-.9-2.5-2-2.5-2 1.12-2 2.5.9 2.5 2 2.5Z" fill="#005A29"/></svg>