<!-- by TradingView --><svg width="56" height="56" viewBox="0 0 56 56" xmlns="http://www.w3.org/2000/svg"><path fill="#F0F3FA" d="M0 0h56v56H0z"/><path d="m29.06 11.03-1.03 1.22-1.02-1.22a17.23 17.23 0 0 1 2.05 0Zm1.14.11-2.17 2.58-2.17-2.59-.93.15 2.54 3.02a13.75 13.75 0 0 1 1.13 0l2.53-3.01c-.3-.06-.62-.1-.93-.15Zm1.56.28-2.42 2.93c.34.03.69.08 1.02.14l1.95-2.36.58 3.06c.33.12.66.26.97.41l-.72-3.8c-.45-.15-.91-.28-1.38-.38Zm1.94.56.69 3.89c.32.17.64.36.95.55l3.7-1.34-.73-.59-3.15 1.14-.59-3.3a16.8 16.8 0 0 0-.87-.35Zm1.92.83.28 1.55 1.47-.54c-.56-.37-1.15-.7-1.75-1.01Zm3.96 2.77L36 16.87c.28.2.55.41.82.64l2.7-.98-.98 2.72c.22.27.44.55.64.83l1.3-3.6c-.3-.32-.59-.62-.9-.9Zm1.35 1.4-1.34 3.71c.19.3.37.62.54.94l3.87.7c-.1-.3-.22-.6-.34-.88l-3.28-.59 1.13-3.14-.58-.74Zm1.25 1.68-.53 1.46 1.53.28a17 17 0 0 0-1-1.74ZM44 33.68l-3.87.69c-.17.32-.35.63-.54.94l1.34 3.7c.2-.23.4-.48.58-.73l-1.13-3.14 3.28-.59c.12-.28.24-.58.34-.87Zm-.82 1.92-1.53.28.53 1.46a17 17 0 0 0 1-1.74Zm-2.72 3.94-1.3-3.6c-.2.28-.4.55-.63.82l.99 2.75-2.74-.99c-.26.22-.54.44-.82.64l3.6 1.3c.3-.3.61-.6.9-.92Zm-1.43 1.38-3.69-1.34c-.3.2-.63.38-.95.55l-.7 3.89c.3-.1.6-.22.88-.34l.6-3.31 3.14 1.14c.24-.2.49-.39.72-.6Zm-1.66 1.26-1.47-.54-.28 1.55c.6-.3 1.19-.64 1.75-1.01Zm-4.22 2.02.72-3.8-.97.41-.6 3.1-1.97-2.4c-.33.06-.68.1-1.02.14l2.42 2.94c.48-.11.95-.24 1.42-.39Zm-2.02.51-2.53-3a13.9 13.9 0 0 1-1.13 0l-2.54 3.01.93.15 2.17-2.59 2.17 2.58.93-.15Zm-2.07.26-1.03-1.22-1.02 1.22a17.23 17.23 0 0 0 2.05 0Zm-4.64-.35 2.44-2.95c-.35-.03-.7-.07-1.03-.13l-1.96 2.37-.57-3.03c-.33-.12-.66-.25-.97-.4l.72 3.78c.45.14.9.26 1.37.36Zm-2.04-.58-.7-3.87a13.7 13.7 0 0 1-1-.58L17 40.93l.73.6 3.19-1.16.6 3.34c.28.12.57.23.87.33Zm-1.92-.81-.29-1.59-1.51.55c.57.38 1.17.73 1.8 1.04Zm-3.98-2.75 3.6-1.3c-.28-.2-.56-.41-.83-.63l-2.66.96.95-2.66c-.22-.27-.43-.54-.63-.82l-1.3 3.59c.28.3.57.58.87.86Zm-1.36-1.41 1.34-3.7c-.21-.33-.4-.67-.59-1.01l-3.87-.7c.1.3.22.6.34.88l3.35.6-1.16 3.2.6.73Zm-1.25-1.66.55-1.53-1.6-.29a17 17 0 0 0 1.05 1.81ZM12 22.33l3.87-.69c.18-.34.38-.68.59-1.01l-1.34-3.7-.59.73 1.16 3.2-3.35.6c-.12.29-.24.58-.34.87Zm.82-1.92 1.6-.29-.55-1.53c-.39.59-.74 1.2-1.05 1.82Zm2.79-4.02L16.9 20c.2-.29.41-.56.63-.83l-.94-2.63 2.63.95.82-.64-3.59-1.3c-.3.28-.57.56-.84.85Zm1.38-1.32 3.7 1.34c.32-.2.66-.4 1-.58l.69-3.87c-.3.1-.59.21-.88.33l-.6 3.34-3.18-1.15a17 17 0 0 0-.73.59Zm3.47-2.3c-.63.31-1.23.66-1.8 1.04l1.51.55.29-1.59Zm3.93-1.38c-.45.1-.9.21-1.33.34l-.72 3.78c.31-.14.63-.27.96-.4l.57-2.98 1.93 2.33c.34-.05.68-.1 1.03-.12l-2.44-2.95Z" fill="#FBB116"/><path d="m10.56 24.5 2.43-.23c.83-.02 2.49.43 2.49 2.37 0 1.39-.83 2.24-1.24 2.49l2.14 3.18-1.92.29-1.8-2.95.16 3.06-1.7.29-.56-8.5Zm1.87 1.45.17 2.14c.4-.04 1.18-.35 1.18-1.27 0-.93-.9-.97-1.35-.87Z" fill="url(#a)"/><path d="m44.57 24.16-2.32-.24-.62 8.5 4.8.4v-1.84l-2.37-.23.51-6.6Z" fill="url(#b)"/><path fill-rule="evenodd" d="M20.28 32.36c2.18 0 3.95-2.04 3.95-4.56 0-2.52-1.77-4.57-3.95-4.57s-3.95 2.05-3.95 4.57c0 2.52 1.77 4.56 3.95 4.56Zm0-2.08c1.12 0 2.03-1.11 2.03-2.48 0-1.38-.9-2.49-2.03-2.49-1.12 0-2.03 1.11-2.03 2.49 0 1.37.9 2.48 2.03 2.48Z" fill="url(#c)"/><path fill-rule="evenodd" d="M32.26 31.96h2.2l.54-1.37 2.94.17.36 1.43h2.26l-2.54-8.67-2.43-.06-3.33 8.5ZM37.5 29l-.73-2.88-1.1 2.77 1.83.11Z" fill="url(#d)"/><path d="M28.42 24.97 30.23 23h4.06l-3.95 5.06v4.07H26.5v-4.07L22.54 23h4.06l1.82 1.97Z" fill="url(#e)"/><path d="M28.42 25.43 30.49 23h3.35l-4.18 4.9v4.23h-2.49V27.9L23 23h3.35l2.08 2.43ZM45.14 23.98l-2.32-.23-.62 8.5 4.8.4V30.8l-2.37-.23.5-6.59Z" fill="#EC2028"/><path fill-rule="evenodd" d="M32.93 31.79h2.2l.55-1.37 2.94.17.36 1.43h2.26l-2.54-8.67-2.43-.06-3.34 8.5Zm5.25-2.96-.73-2.88-1.1 2.77 1.83.1ZM19.72 32.13c2.18 0 3.95-2.04 3.95-4.56 0-2.53-1.77-4.57-3.95-4.57-2.19 0-3.96 2.04-3.96 4.57 0 2.52 1.77 4.56 3.96 4.56Zm0-2.08c1.12 0 2.03-1.11 2.03-2.48 0-1.38-.91-2.49-2.03-2.49-1.13 0-2.04 1.11-2.04 2.49 0 1.37.91 2.48 2.04 2.48Z" fill="#EC2028"/><path d="m10 24.27 2.43-.23c.83-.02 2.48.43 2.48 2.37 0 1.39-.82 2.24-1.24 2.49l2.15 3.18-1.92.28-1.81-2.94.17 3.06-1.7.29-.56-8.5Zm1.86 1.45.17 2.14c.4-.04 1.19-.35 1.19-1.28 0-.92-.9-.96-1.36-.86Z" fill="#EC2028"/><defs><linearGradient id="a" x1="10.85" y1="26.93" x2="15.93" y2="27.48" gradientUnits="userSpaceOnUse"><stop stop-color="#DB212A"/><stop offset="1" stop-color="#B41F27"/></linearGradient><linearGradient id="b" x1="41.87" y1="26.64" x2="46.08" y2="27.01" gradientUnits="userSpaceOnUse"><stop stop-color="#DB212A"/><stop offset="1" stop-color="#B41F27"/></linearGradient><linearGradient id="c" x1="16.71" y1="26.01" x2="23.57" y2="26.98" gradientUnits="userSpaceOnUse"><stop stop-color="#DB212A"/><stop offset="1" stop-color="#B41F27"/></linearGradient><linearGradient id="d" x1="32.66" y1="26.12" x2="39.83" y2="27.23" gradientUnits="userSpaceOnUse"><stop stop-color="#DB212A"/><stop offset="1" stop-color="#B41F27"/></linearGradient><linearGradient id="e" x1="23.11" y1="25.78" x2="33.07" y2="27.87" gradientUnits="userSpaceOnUse"><stop stop-color="#DB212A"/><stop offset="1" stop-color="#B41F27"/></linearGradient></defs></svg>