<!-- by TradingView --><svg width="56" height="56" viewBox="0 0 56 56" xmlns="http://www.w3.org/2000/svg"><path fill="#F0F3FA" d="M0 0h56v56H0z"/><path d="M21 12h14v.42C35 22.5 37.75 33.34 43 42H13c5.25-8.66 8-19.5 8-29.58V12Zm1 1c-.1 12.45-4.5 23.5-7 28h26c-2.5-4.5-6.9-15.55-7-28H22Z" fill="#242D80"/><path d="m28 14 1.9 10.9 5.1 1.6-5.1 1.6L28 39l-1.9-10.9-5.1-1.6 5.1-1.6L28 14Z" fill="#242D80"/><path d="m28 18 1.36 7.41L33 26.5l-3.64 1.09L28 35l-1.36-7.41L23 26.5l3.64-1.09L28 18Z" fill="#EA090D"/><path d="m28 23 .81 2.6 2.19.87-2.19.87L28 30l-.81-2.66-2.19-.87 2.19-.87L28 23Z" fill="#FAFF01"/></svg>