<!-- by TradingView --><svg width="56" height="56" viewBox="0 0 56 56" xmlns="http://www.w3.org/2000/svg"><path fill="#F0F3FA" d="M0 0h56v56H0z"/><path fill-rule="evenodd" d="M29 39c-7.18 0-13-4.03-13-9s5.82-9 13-9 13 4.03 13 9-5.82 9-13 9Zm11.12-5a9.74 9.74 0 0 1-2.18 2.02c-.24.17-.48.36-.74.51h-2.98A9.27 9.27 0 0 0 35.76 34h4.36Zm.34-.47h-4.52c.38-1.07.6-2.26.6-3.5h5.03c0 1.23-.4 2.43-1.11 3.5Zm-4.56-7.06c.37.98.59 1.96.63 3.09h5.02a6.14 6.14 0 0 0-1.16-3.09H35.9Zm-6.6 3.09h6.8a9.39 9.39 0 0 0-.65-3.09H29.3v3.09Zm-.54 0v-3.09h-6.2c-.38.97-.61 1.95-.66 3.09h6.86ZM29.3 26h5.95a8.32 8.32 0 0 0-1.76-2.53h-4.2V26Zm-.54-2.53V26h-6a8.32 8.32 0 0 1 1.75-2.53h4.25Zm.54-.47h3.66a6.47 6.47 0 0 0-3.66-1.58V23Zm-.54-1.58V23h-3.72a6.46 6.46 0 0 1 3.72-1.58Zm0 8.6v3.51H22.5a10.1 10.1 0 0 1-.62-3.5h6.87Zm.54 3.51v-3.5h6.8c0 1.25-.22 2.44-.61 3.5h-6.2Zm-.54.47H22.7c.42.96.99 1.83 1.66 2.53h4.4V34Zm.54 2.53V34h6a8.66 8.66 0 0 1-1.66 2.53H29.3Zm-.54.47h-3.9a6.31 6.31 0 0 0 3.9 1.58V37Zm.54 1.58V37h3.85a6.32 6.32 0 0 1-3.85 1.58Zm-7.2-12.11a9.8 9.8 0 0 0-.63 3.09h-5.02c.08-1.13.49-2.1 1.16-3.09h4.49Zm-.64 3.56h-5.03c0 1.23.4 2.43 1.11 3.5h4.52c-.38-1.07-.6-2.26-.6-3.5ZM17.88 34h4.36c.39.94.91 1.81 1.54 2.53H20.8c-.26-.15-.5-.34-.74-.5A9.74 9.74 0 0 1 17.88 34Zm3.79 3h2.55c.6.58 1.28 1.03 2 1.37A15.77 15.77 0 0 1 21.68 37Zm12.1 0h2.56a15.77 15.77 0 0 1-4.56 1.37c.73-.34 1.4-.79 2-1.37Zm6.27-11h-4.32a8.9 8.9 0 0 0-1.64-2.53h2.85c.35.2.7.28 1.01.5.83.58 1.54 1.32 2.1 2.03Zm-8.27-4.37c.67.31 1.28.86 1.84 1.37h2.4a16.06 16.06 0 0 0-4.24-1.37Zm-5.54 0c-.67.31-1.28.86-1.84 1.37h-2.4c1.27-.58 2.7-1.14 4.24-1.37Zm-5.16 1.84h2.85A8.9 8.9 0 0 0 22.28 26h-4.32c.56-.7 1.27-1.45 2.1-2.02.32-.23.66-.31 1-.51Z" fill="#193A84"/><path d="M11.55 27.3h5.38l-.6 1.7h-4.1l-.68-1.7ZM10.64 25h7.82l-1 1.7h-6.15l-.67-1.7ZM9.78 22.6h12.4l-2.68 1.7h-9.05l-.67-1.7ZM46.22 26.32h-5.38l-1.45-1.7h6.16l.67 1.7ZM45.34 24h-6.78l-2.9-1.7h9l.68 1.7ZM47 28.7h-5.27l-.59-1.7h5.19l.67 1.7ZM48 31h-6.32l.12-1.7h5.53L48 31ZM8.86 20l.67 1.7H23.8c.39-.05 1.12 0 1.21-.2-.58-.85-2.72-1.4-3.71-1.5H8.86Z" fill="#193A84"/><path d="M8.6 19.54 8 18h11.62c.94 0 2.7.34 4.04 1.22 1.07.7 2.26.8 2.71.78H44l.62 1.48H33.74l-3.63-.18-4.61.2c-.54-1.53-3.55-2-5-1.96H8.6ZM28.03 28.28c-.13.38-.74.82-1.03.99.6-.06 1.89-.18 2.15-.18.33 0 .7 0 .87.18.16.18.6.3 1.03.2.44-.08.52-.38.68-.38.17 0 1.45-.03 2.02 0 .57.03 2.1.75 2.23.87.14.12.6-.03.84-.12.2-.08.48-.41.6-.57v-.54c-.14-.15-.42-.48-.38-.63.04-.14.4.06.57.18.24-.17.7-.55.65-.72-.05-.2-.65-.32-.32-.6.32-.26 1.09 0 1.06-.3-.03-.3-1.12-.17-1.39-.17h-1.77c-.38 0-.87-.24-1.17-.42-.3-.18-.38.03-.76.18s-.43.24-.73.24h-1.1c-.16 0-.26-.3-.5-.24-.25.06-.96.24-1.34.24-.38 0 .32.2.38.48.05.27-.38.03-.6 0-.22-.03-.33-.24-.68-.48-.35-.24-.03.63 0 .92.02.24.24.34.35.36.09.03.34.07.71 0 .46-.09.46.21.65.51.2.3.22.33 0 .45-.21.12-.49-.21-.65-.3-.16-.09-.54 0-.7-.15-.17-.15-.41-.54-.55-.87-.14-.32-.46-.12-.74 0-.27.12-.21.4-.38.87Z" fill="#193A84"/><path d="M34 36v-.63c-.44.4-1.18.63-1.95.63-1.35 0-2.05-.71-2.05-2.1v-2.8c0-1.4 1.02-2.1 3-2.1 2 0 3 .7 3 2.1v.32h-2v-.57c0-.42-.5-.64-1-.64s-1 .22-1 .64v3.3c0 .42.5.63 1 .63s1-.2 1-.63v-.77h-1V32h3v4h-2Z" fill="#193A84"/><path d="M26 33.55h2v.55c0 .46.07.68.49.68.38 0 .51-.22.51-.55 0-.29-.1-.57-.53-.85-.65-.42-1.25-.77-1.7-1.15a1.79 1.79 0 0 1-.67-1.42c0-1.13.9-1.81 2.46-1.81 1.55 0 2.34.58 2.34 1.74v.56H29v-.47c0-.44-.07-.64-.49-.64-.33 0-.51.2-.51.5 0 .4.43.7 1.25 1.25.7.48 1.23.82 1.46 1.17.19.28.29.63.29 1.03 0 1.15-.92 1.86-2.55 1.86-1.6 0-2.45-.67-2.45-1.94v-.51Z" fill="#193A84"/><path d="M27 33.9c0 1.4-1 2.1-3 2.1-1.98 0-3-.71-3-2.1v-2.8c0-1.4 1.02-2.1 3-2.1 2 0 3 .7 3 2.1v.52h-2v-.77c0-.42-.5-.64-1-.64s-1 .22-1 .64v3.3c0 .42.5.63 1 .63s1-.2 1-.63V33h2v.9ZM44.16 35.38c.17.25.25.53.21.81a1.8 1.8 0 0 1-.37.86c-.21.28-.5.54-.84.77-.35.24-.7.4-1.04.5-.34.1-.65.1-.94.04a1.17 1.17 0 0 1-.7-.49 1.13 1.13 0 0 1-.22-.8c.04-.3.16-.58.37-.86s.5-.54.84-.78c.35-.23.7-.4 1.04-.5.34-.09.66-.1.94-.03.3.06.53.23.7.48Zm-.85.57a.86.86 0 0 0-.94-.35c-.2.04-.39.13-.59.27-.2.13-.35.28-.46.44a.9.9 0 0 0-.17.5c0 .16.06.33.17.5.12.16.26.27.42.33.16.05.34.06.53.02.19-.05.38-.14.59-.27.2-.14.35-.29.46-.45.1-.16.16-.32.16-.49a.83.83 0 0 0-.17-.5ZM39.81 38.63l-.92.35a.47.47 0 0 0-.18-.16.72.72 0 0 0-.26-.07c-.1-.01-.2 0-.32.01a1.83 1.83 0 0 0-.9.42.89.89 0 0 0-.26.44.84.84 0 0 0 .04.52c.08.19.18.33.33.42.14.1.3.14.5.15a1.91 1.91 0 0 0 .94-.28c.1-.06.17-.12.24-.19a.72.72 0 0 0 .15-.22.47.47 0 0 0 .04-.23l.92-.34c.02.13.01.27-.04.42-.05.14-.14.3-.26.44-.13.15-.29.29-.49.42-.2.14-.44.26-.71.36a3.3 3.3 0 0 1-1.1.23 1.8 1.8 0 0 1-.9-.2 1.19 1.19 0 0 1-.54-.63 1.15 1.15 0 0 1-.02-.84c.1-.27.27-.51.53-.73a3.75 3.75 0 0 1 1.68-.74c.23-.04.45-.05.65-.03.2.02.37.07.52.15.15.08.27.19.36.33ZM32.01 42.9l-.64-2.32 3.12-.83.11.4-2.14.57.16.56 1.97-.53.11.4-1.97.53.15.55 2.15-.57.1.4-3.12.84ZM26.51 40.88v-.44h3.4v.44h-1.27V43h-.86v-2.12H26.5ZM16.64 39.37l-.85-.55 2.95-.9 1.02.66-.36 2.57-.85-.55.42-1.9-.03-.02-2.3.69Zm.45-.8 2.01 1.3-.21.32-2.01-1.3.21-.31ZM15.8 36.02c.08-.09.1-.2.06-.34-.03-.14-.12-.3-.27-.48l-.28-.27a.62.62 0 0 0-.25-.12.22.22 0 0 0-.18.04.17.17 0 0 0-.08.12c0 .06 0 .12.03.19l.09.22c.04.07.08.16.14.24l.2.35c.11.17.2.33.26.48.07.16.12.3.14.44.03.13.02.25 0 .36a.53.53 0 0 1-.19.28c-.14.1-.3.15-.49.12-.19-.02-.4-.11-.61-.27a3.66 3.66 0 0 1-.69-.65c-.23-.28-.4-.54-.52-.8a1.43 1.43 0 0 1-.16-.68.7.7 0 0 1 .26-.5l.59.7a.35.35 0 0 0-.1.26c0 .1.02.2.08.32a1.86 1.86 0 0 0 .55.67c.1.07.19.11.27.13.09.02.15 0 .2-.04.06-.04.08-.1.08-.17a.76.76 0 0 0-.08-.27l-.2-.37-.25-.42c-.2-.33-.32-.62-.36-.86-.05-.25.01-.44.18-.57a.6.6 0 0 1 .5-.12c.2.03.4.12.62.28.22.15.44.35.65.6.21.26.37.5.47.74.1.24.15.45.14.64a.61.61 0 0 1-.21.45l-.59-.7ZM24.03 40.72c0-.11-.05-.22-.17-.3a1.33 1.33 0 0 0-.51-.22 1.63 1.63 0 0 0-.4-.04c-.11 0-.2.02-.27.05-.06.04-.1.08-.12.14-.01.05 0 .1.02.14.03.05.08.1.13.13l.21.12.26.11.39.15c.19.07.36.15.5.23.16.08.28.17.39.26.1.1.17.19.22.3.04.1.05.2.03.32a.6.6 0 0 1-.31.4c-.17.09-.39.14-.66.15-.27.01-.59-.03-.95-.1a3.85 3.85 0 0 1-.9-.32 1.47 1.47 0 0 1-.56-.44.7.7 0 0 1-.11-.56l.9.2c0 .1.02.2.08.27a.8.8 0 0 0 .27.2 1.92 1.92 0 0 0 .85.2c.13 0 .23-.02.3-.06.08-.03.13-.09.14-.15.02-.06 0-.12-.05-.18a.79.79 0 0 0-.23-.16c-.1-.06-.23-.12-.39-.18l-.47-.18c-.36-.14-.63-.3-.82-.47-.19-.17-.26-.35-.2-.56.03-.16.14-.3.31-.39.18-.09.4-.14.67-.15.27-.02.57.01.89.09.33.07.6.17.84.3.23.12.4.26.5.42.11.15.15.32.11.48l-.9-.2Z" fill="#193A84"/><path d="M22.48 28.02c-.35.45-.14.97 0 1.18l-1.26.8a3.66 3.66 0 0 0-.74-.8c-.26-.14 0-.66-.39-.57-.39.1-.43-.1-.65-.42-.22-.33-.3-.66-.3-.99 0-.33.43-.24.52-.52.08-.28-.4-.33-.52-.33-.13 0-1.05.19-1.13 0-.09-.19.6-.56.78-.56.17 0 1.43-.15 1.7-.15.25 0 .17.48.34.71.17.24.22-.56.4-.7.17-.15.51.47.56.89.04.42.21.14.47 0 .21-.11.38-.33.44-.42.16-.22.5-.73.56-1 .09-.32.83 0 1.05 0 .17 0 .53.45.69.67-.1.14-.38.45-.7.56-.39.14-1.17-.05-.69.33s.09.33 0 .52-.7.24-1.13.8Z" fill="#193A84"/></svg>