<!-- by TradingView --><svg width="56" height="56" viewBox="0 0 56 56" xmlns="http://www.w3.org/2000/svg"><path fill="#E91A2B" d="M0 0h56v56H0z"/><path d="M43.1 34.88C46.99 32.95 49 30.45 49 28s-2.02-4.95-5.9-6.88C39.3 19.2 33.96 18 28 18c-5.95 0-11.3 1.2-15.1 3.12C9.01 23.05 7 25.55 7 28s2.02 4.95 5.9 6.88C16.7 36.8 22.04 38 28 38c5.95 0 11.3-1.2 15.1-3.12ZM50 28c0 6.08-9.85 11-22 11S6 34.08 6 28s9.85-11 22-11 22 4.92 22 11Z" fill="#fff"/><path d="M45 25.5c0 3.59-7.61 6.5-17 6.5s-17-2.91-17-6.5S18.61 19 28 19s17 2.91 17 6.5Z" fill="#2B3F90"/><path d="m21.29 32.57-.93.9.93.89h2.65l.93-.9-.93-.89h-2.65ZM34.7 32.79l-.68.67.68.68h1.96l.68-.68-.68-.67H34.7Z" fill="#FDEDA0"/><path d="m26.63 32.57.8.9-.8.89h-2.18l.8-.9-.8-.89h2.18Z" fill="#FDEDA0"/><path d="m29.27 32.57.8.9-.8.89h-2.19l.8-.9-.8-.89h2.19Z" fill="#FDEDA0"/><path d="m31.9 32.57.8.9-.8.89h-2.18l.8-.9-.8-.89h2.18ZM21.96 31h2.65l-.97 1H21l.96-1ZM25.29 31h2.64l-.97 1h-2.64l.97-1ZM28.36 31H31l-.96 1h-2.65l.97-1ZM31.36 31H34l-.96 1h-2.65l.97-1ZM33.64 32h1.2l-.93 1.21H32.7l.94-1.21ZM33.64 35h1.2l-.93-1.21H32.7l.94 1.21ZM21.96 36h2.65l-.97-1H21l.96 1ZM25.29 36h2.64l-.97-1h-2.64l.97 1ZM28.36 36H31l-.96-1h-2.65l.97 1ZM31.36 36H34l-.96-1h-2.65l.97 1Z" fill="#FDEDA0"/><path d="M33.25 31h2.98v.43h-2.98V31ZM33.25 35.57h2.98V36h-2.98v-.43ZM35.89 33.29H44v.42h-8.11v-.42ZM34.02 32h6.58v.43h-6.58V32ZM11 33.29h10.2v.42H11v-.42Z" fill="#FDEDA0"/><path d="M40.7 24c.74 0 1.3.18 1.68.54.47.44.67 1.09.61 1.96-.06.87-.34 1.52-.86 1.96a2.1 2.1 0 0 1-.9.45c-.28.06-.58.09-.9.09-.52 0-.93-.07-1.23-.22-.43-.2-.73-.5-.9-.94a2.97 2.97 0 0 1-.2-1.33c.07-.87.35-1.53.87-1.97.28-.23.58-.38.9-.45.29-.06.6-.09.93-.09Zm-.07.53c-.1 0-.17.06-.22.18-.11.3-.2.9-.25 1.8a7.4 7.4 0 0 0 .01 1.77c.03.13.1.2.2.2s.18-.07.23-.2c.1-.3.19-.86.24-1.7.05-.71.06-1.2.05-1.45-.02-.29-.06-.47-.13-.55a.18.18 0 0 0-.13-.05Z" fill="#fff"/><path d="m37 26.7 1 .25v.17c-.1 1.32-1.28 1.88-2.5 1.88-.62 0-1.15-.11-1.6-.34a1.45 1.45 0 0 1-.66-.67 2.5 2.5 0 0 1-.23-1.32c.07-.97.45-1.68 1.15-2.11a3.7 3.7 0 0 1 2-.56c.46 0 .85.09 1.18.26.48.25.67.72.66 1.21l-1.18.5c.05-.46.23-1.42-.47-1.42-.35 0-.62.3-.7.63a7.83 7.83 0 0 0-.18 2.89c.1.26.3.4.56.4.67 0 .91-.65.96-1.24l.01-.52ZM30.7 24c.74 0 1.3.18 1.68.54.47.44.67 1.09.61 1.96-.06.87-.34 1.52-.86 1.96a2.1 2.1 0 0 1-.9.45c-.28.06-.58.09-.9.09-.52 0-.93-.07-1.23-.22-.43-.2-.73-.5-.9-.94a2.97 2.97 0 0 1-.2-1.33c.07-.87.36-1.53.87-1.97.28-.23.58-.38.9-.45.29-.06.6-.09.93-.09Zm-.07.53c-.1 0-.17.06-.22.18-.11.3-.2.9-.25 1.8a7.4 7.4 0 0 0 .01 1.77c.03.13.1.2.2.2s.18-.07.22-.2c.11-.3.2-.86.25-1.7.05-.71.06-1.2.05-1.45-.02-.29-.06-.47-.13-.55a.18.18 0 0 0-.13-.05ZM27.59 24l-.05.7h-.65l-.3 4.3h-2.3l.3-4.3H24l.05-.7h.59l.02-.39c.07-1.04 1-1.61 1.98-1.61.67 0 1.4.26 1.36 1.03l-.02.22-1.08.36c.06-.16.1-.29.1-.38.01-.17 0-.53-.25-.53-.17 0-.28.21-.29.36-.01.23.14.6.47.94h.66ZM24 28.66c-.48.23-.98.34-1.5.34-.4 0-.76-.09-.97-.45-.3.33-.67.45-1.12.45-.86 0-1.46-.53-1.4-1.4.05-.86.64-1.27 1.39-1.53.36-.12.59-.2.7-.26.32-.16.5-.39.51-.68.03-.34-.16-.62-.52-.62-.39 0-.72.29-.74.68-.01.12.01.31.07.57l-.93-.2v-.42c.04-.76.75-1.14 2.13-1.14.6 0 1.04.06 1.33.17.46.19.68.48.65.9l-.18 2.84c-.01.2.05.3.19.3a.6.6 0 0 0 .22-.06l.17.51Zm-2.47-2.49c-.07.09-.16.18-.28.27a.56.56 0 0 0-.19.3c-.04.16-.06.32-.07.48-.04.52-.03.81.02.87.03.04.06.06.11.06.07 0 .13-.04.19-.13.08-.13.13-.33.14-.6l.08-1.25ZM19 24.07l-1.09.17c.05-.2.08-.36.09-.49 0-.75-.69-1.1-1.32-1.1-.39 0-.92.17-.95.63-.04.56.74.76 1.12.9.78.29 1.35.63 1.71 1.03.36.38.47 1 .43 1.5-.09 1.43-1.2 2.29-2.6 2.29-1.18 0-2.47-.57-2.39-1.94l.05-.49 1.06-.21c-.08.3-.1.58-.11.8-.05.72.48 1.19 1.16 1.19.44 0 .84-.25.84-.72 0-.63-.37-.81-.82-.98-1.14-.42-1.98-1.2-1.9-2.48.1-1.36 1.18-2.17 2.5-2.17.87 0 2.08.4 2.22 1.38v.69Z" fill="#fff"/></svg>