<!-- by TradingView --><svg width="56" height="56" fill="none" xmlns="http://www.w3.org/2000/svg"><path fill="#F0F3FA" d="M0 0h56v56H0z"/><path d="M16.438 25.084 18.181 23H8.457a2.987 2.987 0 0 0-2.983 2.991 2.987 2.987 0 0 0 2.983 2.992h6.547a.7.7 0 0 1 .7.702c0 .387-.313.815-.7.815h-7.2c-.518 0-1.007.13-1.32.543L5 33h10.446a3.041 3.041 0 0 0 3.036-3.045c0-1.682-1.36-2.955-3.036-2.955H8.8c-.339 0-.613-.366-.613-.706 0-.34.274-.794.613-.794h6.366c.49 0 .956-.04 1.271-.416Z" fill="#0074C8"/><path d="M24.13 23.976 18 33h2.592a1.66 1.66 0 0 0 1.355-.701l4.075-5.757L28.76 30.5h-3.17c-.658 0-1.272.352-1.628.907L22.938 33H34l-6.194-9.032a2.226 2.226 0 0 0-3.676.008Z" fill="#C30E2E"/><path d="M36.647 24.216 34 33h1.448c.917 0 1.714-.615 1.925-1.486l1.12-4.63 2.838 5.12c.34.614.998.996 1.713.996.753 0 1.44-.424 1.76-1.088l2.434-5.027 1.46 4.74A1.973 1.973 0 0 0 50.592 33H52l-2.802-8.9a1.592 1.592 0 0 0-1.526-1.1c-.583 0-1.12.31-1.4.81l-3.259 5.804-3.166-5.723A1.747 1.747 0 0 0 38.316 23c-.772 0-1.451.493-1.669 1.216Z" fill="#0074C8"/></svg>