<!-- by TradingView --><svg width="56" height="56" viewBox="0 0 56 56" xmlns="http://www.w3.org/2000/svg"><path fill="#F0F3FA" d="M0 0h56v56H0z"/><path d="M43 18.56c-9.88-2.5-13.45 3.92-14 7.44 4.53-3.49 10.05-1.65 12.25-.3L43 18.56Z" fill="#0067B2"/><path d="M15 17.3c.15 10.4 7.4 12.1 11 11.63-4.62-3.45-4.27-9.4-3.52-11.93l-7.48.3Z" fill="#01B5CC"/><path d="M35.59 45c4.04-9.8-1.55-14.75-4.85-16 2.61 5.39-.07 10.78-1.74 12.8l6.59 3.2Z" fill="#0067B2"/><path d="M11 33.54c8.73 5.6 14.3.35 16-2.97-5.54 2.03-10.27-1.53-11.95-3.57L11 33.54Z" fill="#01B5CC"/><path d="M45 31.9c-4.92-9.38-12.05-7.2-15-4.94 5.65.77 8.07 6.35 8.58 9.04L45 31.9Z" fill="#0067B2"/><path d="M34 16.72 28.93 11c-2.9 2.69-4.96 5.48-4.96 9.5 0 4.04 3.93 7.87 3.93 10.01 0 4.54-5.93 6.84-8.9 7.42L21.33 45c5.27-1.64 9.3-5.23 9.3-10.9 0-5.68-2.53-5.83-2.53-9.76 0-3.14 3.93-6.22 5.9-7.62Z" fill="#0067B2"/></svg>