<!-- by TradingView --><svg width="56" height="56" viewBox="0 0 56 56" xmlns="http://www.w3.org/2000/svg"><path fill="#F0F3FA" d="M0 0h56v56H0z"/><path fill-rule="evenodd" d="M42.76 15H13.24c-.69 0-1.24.55-1.24 1.24v22.52c0 .69.55 1.24 1.24 1.24h29.52c.69 0 1.24-.55 1.24-1.24V16.24c0-.69-.55-1.24-1.24-1.24Zm-29.52-1C12 14 11 15 11 16.24v22.52C11 40 12 41 13.24 41h29.52C44 41 45 40 45 38.76V16.24C45 15 44 14 42.76 14H13.24Z" fill="#29166F"/><path d="M18.6 21.74c-.54-.57-.13-1.74.67-1.74h12.47c.7 0 1.26.8 1.26 1.48 0 .68-.57 1.52-1.26 1.52H29v2h2.07c2.07 0 3.93-1.52 3.93-3.52S33.14 18 31.07 18h-11.8a3.16 3.16 0 0 0-2.36 5.37l5.35 5.74a1 1 0 0 1 .26.6c.05.62-.36 1.29-1 1.29H18v2h3.53A3.36 3.36 0 0 0 25 29.72c0-.77-.29-1.57-.93-2.24l-5.47-5.74ZM37.24 18H36v2h.98c.47 0 .73.93.42 1.28L28.95 31H28v-8h-2v10h4.07l9.21-10.34c.5-.55.71-1.18.72-1.8.01-1.47-1.01-2.86-2.76-2.86Z" fill="#29166F"/><path d="M16.14 23.95C13.62 21.3 15.55 17 19.27 17h11.8c1.67 0 3.13.86 3.94 2.14V17h2.23a3.76 3.76 0 0 1 2.86 6.22L30.47 34H25v-1.75A4.26 4.26 0 0 1 21.52 34H17v-4h4.52c.1 0 .16-.12.09-.2l-5.47-5.85Zm3.13-6.6c-3.4 0-5.18 3.94-2.87 6.36l5.47 5.86c.28.3.07.78-.35.78h-4.16v3.3h4.16a3.9 3.9 0 0 0 3.5-2.09l.34.08v2.01h4.95L39.83 23c.6-.67.83-1.47.81-2.25a3.41 3.41 0 0 0-3.4-3.4h-1.88v2.53l-.34.07a4.25 4.25 0 0 0-3.95-2.6h-11.8Zm.63 4c-.04 0-.06.04-.03.06l4.8 5.21c.13.13.23.25.33.38v-5.35h6.25c.23 0 .4.02.4-.17 0-.21-.18-.13-.4-.13H19.9Zm-.3.3a.37.37 0 0 1-.1-.3.4.4 0 0 1 .4-.35h11.35c.42 0 .75.08.75.48 0 .41-.35.52-.75.52h-5.9v5.6l-.33.08a4 4 0 0 0-.6-.82l-4.82-5.21ZM35.22 21H37l-1.55 1.74-.31-.16a4.03 4.03 0 0 0 .1-1.39l-.02-.19Zm.4.35a4.4 4.4 0 0 1-.02.69l.61-.7h-.6Zm-3.44 4.52c-.35.08-.72.13-1.1.13h-1.72v3.11l2.82-3.24Zm-1.1-.22c.56 0 1.1-.1 1.6-.3l.2.27L29 30.04v-4.39h2.07ZM40.13 37.25l.58 1.25c.08.17.2.32.48.4l-.04.1h-1.92l.03-.1.2-.03c.05-.01.12-.03.14-.1.01-.03 0-.08-.03-.15l-.37-.81-1.02.8c-.07.05-.1.1-.12.15-.02.05 0 .08.04.1.06.03.19.04.19.04l-.04.1h-1.17l.04-.1c.3-.06.54-.18.84-.4l1.14-.9-.46-1.08c-.14-.36-.31-.37-.5-.42l.04-.1h1.85l-.03.1-.19.03c-.07.02-.13.06-.15.11 0 .03 0 .06.02.1l.34.69.89-.64c.08-.07.13-.12.14-.16.02-.04-.01-.07-.07-.1l-.16-.03.04-.1H42l-.04.1c-.3.06-.6.22-.83.4l-1 .75ZM37.63 36.88h-.13a2.84 2.84 0 0 0-.1-.35c-.04-.11-.18-.33-.57-.33h-.39l-.14.02c-.16 0-.2.08-.25.24l-.3.9h.4c.22 0 .32-.08.4-.16l.18-.19h.13l-.3.89h-.13c-.01-.1-.04-.18-.04-.18-.03-.08-.1-.17-.3-.17h-.41l-.36 1.1c-.03.1.02.14.27.14h.5c.4 0 .64-.2.76-.32l.4-.4h.12l-.36.93H33.7l.03-.11s.18-.02.26-.05c.15-.03.23-.11.28-.27l.7-2.12c.07-.19.01-.26-.09-.3-.05-.02-.22-.04-.22-.04l.04-.11h3.2l-.26.88ZM31.11 37.87h.02L32.7 36h1.5l-.03.11-.26.04c-.12.04-.22.11-.29.3l-.7 2.12c-.05.15-.03.23.1.27l.22.04-.04.12h-1.9l.04-.12.25-.04c.15-.04.23-.12.28-.27l.65-1.97L30.5 39h-.25l-.46-2.4-.66 1.97c-.06.15-.04.23.09.27l.22.04-.04.12h-1.17l.04-.12.26-.04c.14-.04.22-.12.27-.27l.66-1.98c.09-.26.06-.42-.32-.49l.04-.1h1.55l.38 1.87ZM26.73 36.11l.04-.11h1.93l-.04.11-.25.04c-.1.04-.22.11-.29.3l-.7 2.12c-.05.16-.03.24.1.27.05.03.21.05.21.05l-.03.11h-1.93l.04-.11s.17-.02.26-.05c.14-.03.23-.11.28-.27l.7-2.12c.07-.19 0-.26-.1-.3a1.41 1.41 0 0 0-.22-.04ZM24.25 38.2l1.52-1.83a.24.24 0 0 0 .05-.08c.03-.1-.1-.13-.17-.14-.06-.02-.21-.03-.21-.03l.04-.12h1.2l-.05.12a.93.93 0 0 0-.64.37L23.89 39h-.56l-.54-2.52c-.05-.23-.15-.3-.35-.36l.04-.12h1.87l-.04.12-.17.03c-.07 0-.18.01-.2.11a.26.26 0 0 0-.01.13l.32 1.8ZM19.4 37.8h1l-.18-1-.82 1Zm1.02.17h-1.16l-.55.66a.38.38 0 0 0-.07.1c-.03.1.1.11.18.12l.2.03L19 39h-1.3l.04-.12s.17-.02.28-.05a.95.95 0 0 0 .48-.32l2.1-2.51h.55l.54 2.52c.02.12.06.25.25.32.08.03.23.04.23.04l-.04.12h-2l.03-.12.18-.03c.07 0 .17-.01.2-.11a.25.25 0 0 0 .02-.13l-.13-.64ZM17.8 37.35c.33.2.52.44.4.77-.16.49-.77.88-1.92.88-.46 0-.75-.14-.93-.14-.04 0-.08 0-.11.03-.08.05-.1.11-.1.11H15l.33-.96h.14c-.03.46.3.73.88.73.52 0 .7-.16.77-.36.07-.2-.15-.33-.26-.39-.21-.13-.39-.21-.78-.45-.36-.22-.4-.5-.32-.73.18-.52.86-.83 1.65-.83.43 0 .8.13.92.13a.2.2 0 0 0 .11-.03c.08-.05.1-.11.1-.11h.14l-.32.92h-.13c-.05-.4-.3-.68-.83-.68-.28 0-.58.05-.67.3-.05.14.05.23.2.3.1.07.67.38.87.5Z" fill="#29166F"/></svg>