<!-- by TradingView --><svg width="56" height="56" viewBox="0 0 56 56" xmlns="http://www.w3.org/2000/svg"><path fill="#F0F3FA" d="M0 0h56v56H0z"/><path d="M31 33a3 3 0 0 0-6 0h6Z" fill="#D7271F"/><path d="M37.63 35.05H18.05l2.75-1.7 1.72-1.08a1 1 0 0 1 1.03-.02l.78.44a1 1 0 0 0 1.04-.02l.6-.38a1 1 0 0 1 1.05-.02l.68.4a1 1 0 0 0 1.06 0l.55-.36a1 1 0 0 1 1.1.01l.54.35a1 1 0 0 0 1 .08l1.08-.53a1 1 0 0 1 1.05.12l1.17.89 2.38 1.82Z" fill="#F8C300"/><path d="M22.47 32.17c.35-.22.77-.23 1.13-.02l.78.45c.3.17.64.17.93-.02l.6-.39c.36-.23.8-.24 1.16-.02l.68.42c.3.18.66.17.95-.02l.56-.36c.38-.25.84-.24 1.21.01l.53.36c.28.19.6.22.9.07l1.09-.53c.38-.19.81-.14 1.16.13L38 35.39H18.05l-.05-.25 4.47-2.97Zm1.03.21a.88.88 0 0 0-.93.02l-1.33.85h.54c.23 0 .46.07.66.2l.42.26a1 1 0 0 0 .92.08l.88-.35c.32-.13.67-.12.98.04l.56.27a1 1 0 0 0 .93-.01l.55-.3c.37-.2.8-.2 1.18.01l.46.27a1 1 0 0 0 .96.03l.68-.34c.37-.18.8-.17 1.15.04l.35.2c.35.2.77.18 1.1-.05l.33-.23c.22-.16.46-.24.72-.24h.27l-.86-.67a.88.88 0 0 0-.95-.1l-1.08.53c-.36.18-.77.15-1.1-.08l-.53-.36a.88.88 0 0 0-1-.01l-.55.36c-.36.23-.8.24-1.16.02l-.68-.42a.88.88 0 0 0-.95.02l-.6.38c-.35.23-.78.24-1.14.03l-.78-.45Zm11.71 1.01h-.6c-.21 0-.42.07-.6.2l-.33.23c-.4.28-.9.3-1.32.06l-.35-.2a1 1 0 0 0-.96-.03l-.68.33a1.2 1.2 0 0 1-1.14-.03l-.47-.26a1 1 0 0 0-.99-.01l-.54.3c-.35.18-.76.19-1.12.01l-.56-.27a1 1 0 0 0-.82-.03l-.88.35c-.36.15-.76.1-1.1-.1l-.42-.27c-.17-.1-.36-.16-.55-.16h-.95l-2.34 1.62h18.78l-2.06-1.74Z"/><path d="M36.08 13.6c-.12.01-.19.04-.22.1-.06.07-.04.11.06.11.15 0 .29.04.4.12-.38.17-.74.35-1.04.54-.13.08-.27.2-.4.37a.12.12 0 0 1-.06.01c-.03 0-.05-.01-.06-.04l-.05-.18c.13-.13.12-.23-.03-.3a.1.1 0 0 0-.06 0 .1.1 0 0 0-.05.01l-2.15 1.37c-.2-.06-.32.13-.36.57-.06.62.3 1.27.26 1.9-.02.3-.07.72-.14 1.24a.2.2 0 0 0 .09.2.8.8 0 0 0 .4.15 10.18 10.18 0 0 1 .66.36.13.13 0 0 0 .1-.1.11.11 0 0 0-.03-.1.11.11 0 0 0-.03-.02c-.12-.05-.14-.12-.05-.21.06-.07.07-.14 0-.2a.36.36 0 0 0-.1-.09c-.09-.04-.12-.1-.1-.19a.8.8 0 0 0 .22-.32c.03-.08.08-.11.17-.1.05.01.1 0 .14-.03.08-.06.09-.13.03-.2a.4.4 0 0 0-.14-.13c-.08-.03-.1-.08-.09-.16.09 0 .16-.04.21-.11.33-.23.4-.46.19-.69a.24.24 0 0 1-.06-.17l.05-.48c0-.06.04-.09.1-.08l.28.01c.09 0 .15.05.19.14.04.09.05.19.04.3a.9.9 0 0 1-.07.6c-.02.24 0 .53.05.85.02.16.12.24.28.22a.1.1 0 0 1 .11.06c.02.03.02.06 0 .1a.1.1 0 0 1-.06.07c-.4.15-.6.45-.6.9l.01.04.03.03.06.03.76.5c.38.26.49.18.33-.24-.06-.16-.26-.23-.6-.23-.01 0-.02 0-.03-.02l-.02-.07c-.03-.07 0-.1.07-.1.51.04.98-.1 1.4-.39-.07-.48.04-.85.31-1.1.07-.05.1-.12.1-.21 0-.15.08-.25.25-.33a.1.1 0 0 0 .04-.15c-.07-.09-.2-.12-.37-.08-.07.01-.08 0-.02-.06l.28-.29a.23.23 0 0 0 .07-.2c-.04-.3-.02-.65.06-1.03a.2.2 0 0 1 .12-.14.12.12 0 0 0 .06-.08c.03-.1 0-.13-.1-.11l-.36.07c-.04 0-.06-.01-.06-.05v-.08c0-.02 0-.05.02-.07a.1.1 0 0 1 .06-.04c.24-.06.4-.2.48-.4a.37.37 0 0 0 .03-.22c-.02-.1 0-.2.04-.27.2-.3.53-.18.63-.71a.1.1 0 0 1 .09-.08c.17-.02.2.07.07.26-.14.22-.29.41-.45.58a.28.28 0 0 0-.08.25l.14.68c.02.12-.02.2-.13.24-.27.12-.3.34-.09.66a.19.19 0 0 1-.02.23c-.21.23-.25.46-.1.67.04.08.04.15-.02.22-.08.1-.2.28-.37.56-.24.37-.25.63-.17 1.02.01.09 0 .16-.06.22-.26.3-.43.65-.52 1.02-.15.63-.48 1.2-1.17 1.18-.34-.35-.7-.56-1.04-.63-.3-.07-.34.01-.13.22.25.27.61.45 1.07.55.04.03.06.07.08.12a.2.2 0 0 1-.05.18l-.43.54a.31.31 0 0 1-.17.1c-.56.12-.73-.58-1.2-.8-.19-.1-.24-.05-.15.15l.3.62a.12.12 0 0 1-.07.17c-.58.25-1.07.41-1.46.48-.71.14-.72.3-.04.48.27.07.56.32.91.3.34-.03.65-.15.92-.38a.19.19 0 0 1 .28.04.2.2 0 0 1 .03.1c.01.09.06.13.15.14a.4.4 0 0 0 .16-.04c.64-.28 1.3-.48 1.98-.58.9.04 1.73-.14 2.49-.56l.31.78c.01.03 0 .05-.02.06l-.06.04c-.06.03-.09.02-.1-.05a.35.35 0 0 0-.04-.17c-.04-.08-.11-.1-.2-.07l-.6.2c-.73.23-1.45.52-2.16.89-.28.14-.32.33-.12.57l-.83.44c-.23.12-.21.17.04.13l.97-.12c.1-.02.12.01.05.1a3.1 3.1 0 0 1-1.38.8.22.22 0 0 0-.14.27.2.2 0 0 0 .07.1c.12.09.2.18.24.28.04.08.01.12-.07.12-.4.02-.81.14-1.24.36a.25.25 0 0 1-.21.01 1.86 1.86 0 0 0-1-.12.1.1 0 0 0-.08.1 5 5 0 0 0 1.3 1.42c.22.15.2.2-.06.15a6.67 6.67 0 0 1-.63-.18c-.09-.03-.14 0-.15.1 0 .12.07.25.24.4.17.14.18.3.04.48l-.3.36c-.06.08-.13.09-.2.01-.53-.51-1.21-.65-2.05-.4a.35.35 0 0 0-.24.44c.02.06.05.1.1.15l.47.44c-.51.02-.77-.29-1.3-.11-.25.08-.5.1-.7.08-.5-.02-.51-.1-.02-.24.32-.08.65-.33 1-.74.12-.09.26-.2.4-.33.06-.04.1-.1.1-.15a.25.25 0 0 0-.02-.16c-.05-.08-.11-.1-.2-.07a.8.8 0 0 0-.28.23.13.13 0 0 1-.17.02c-.13-.1-.26-.23-.37-.39a.27.27 0 0 0-.23-.12c-.25.02-.41.18-.5.5-.18.11-.34.29-.45.51a.22.22 0 0 0 0 .22c.07.11.11.2.12.3a.14.14 0 0 1-.07.13.13.13 0 0 1-.05.02c-.17 0-.27.06-.31.15-.03.08-.09.1-.17.07a1.8 1.8 0 0 0-1.27-.03.24.24 0 0 1-.17-.01l-.13-.06c-.1-.04-.1-.1-.03-.15l.9-.76c-.06-.46 0-.9.17-1.28a.36.36 0 0 0 .03-.22l-.21-1.1a.5.5 0 0 0-.57-.4 1 1 0 0 0-.9.82c0 .04-.03.06-.05.05l-.03-.02a.05.05 0 0 1-.02-.05l.42-1.92c0-.2.19-.4.57-.6.31-.15.46-.4.43-.74a.35.35 0 0 0-.16-.26c-.1-.06-.2-.06-.3.02-.07.04-.13.03-.18-.02-.04-.04-.06-.13-.07-.27 0-.11-.07-.15-.17-.1l-1.14.47a8.17 8.17 0 0 0-.27-3.49 2.88 2.88 0 0 0-.81-1.27 8.82 8.82 0 0 0-2.05-1.4c.4.14.8.33 1.23.58a6 6 0 0 1 1.35 1.08c.48.51.96 1.37 1.43 2.58.03.24.02.5-.03.78-.02.09.02.12.1.1a.27.27 0 0 0 .18-.1c.35-.52.63-.87.83-1.06.52-.47.45-.61-.21-.41-.05.01-.15.15-.32.4a.12.12 0 0 1-.09.06.12.12 0 0 1-.1-.04.46.46 0 0 1-.07-.15l.64-.65a.28.28 0 0 1 .2-.08l.39.01c.07 0 .13-.03.17-.1.12-.25.3-.36.53-.33.3.09.38.26.25.5a.12.12 0 0 0 .01.15.13.13 0 0 0 .14.03l.38-.13c.09-.04.12-.1.11-.2l-.09-.93c.08-.28-.05-.29-.39-.02-.06.06-.13.09-.2.08-.08 0-.12-.05-.11-.13.02-.3-.12-.46-.4-.5-1.07-.1-1.78-.37-2.7-.68a6.83 6.83 0 0 1-1.5-.75c-.68-.45-1.36-.86-2.04-1.24-.5-.14-.82-.68-.97-1.62 0-.04.01-.07.06-.09h.08l.04.06c.18.55.54.73 1.07.54a.26.26 0 0 1 .23.01c.12.08.24.18.34.32.13 0 .2.1.21.34-.06.2-.05.34.06.42l1.87 1.08c.18.3.47.5.86.59.75.17 1.5.36 2.25.56.46.3.94.46 1.43.45.2 0 .24-.08.12-.24l-.6-.78a.2.2 0 0 0-.18-.08.51.51 0 0 0-.21.05.14.14 0 0 1-.17-.02.14.14 0 0 1-.03-.05c-.03-.07-.03-.12 0-.14.04-.05.1-.08.16-.08a.3.3 0 0 1 .18.03c.39.2.72.48.99.82.13.17.28.28.43.34.3.11.5.03.6-.23l.1-.01a5.7 5.7 0 0 1-.52 1.38c-.21.4-.35.73-.4.98-.19.87-.87 1.06-1.24 1.82-.2.37-.43.75-.7 1.12-.16.2-.1.3.14.29l.72-.03a.69.69 0 0 0 .57-.36c.38-.7.6-1.15.65-1.33.08-.27.23-.52.45-.74.33-.34.5-.92.84-1.35l.43-.55c.03-.08.1-.12.19-.14.2-.02.37-.15.5-.39.1-.16.13-.39.08-.68a4.25 4.25 0 0 1-.03-.85.2.2 0 0 1 .08-.16l.08-.05c.06-.05.08-.12.05-.2-.1-.28-.01-.4-.19-.79-.22-.49-.18-.98.13-1.45a3.02 3.02 0 0 1-.37-1.39c0-.1.04-.12.13-.1.06.03.1.08.13.15.06.13.1.32.11.57a.2.2 0 0 0 .12.17c.47.23.85.05 1.15-.54l1.11-.88c.18-.07.28-.25.3-.54a.33.33 0 0 0-.06-.2l-.1-.16c-.06-.07-.05-.14.01-.2l1.05-1.06a.22.22 0 0 1 .14-.06c.13-.02.2-.1.24-.25a.31.31 0 0 1 .13-.2c.44-.3.88-.78 1.31-1.44.17-.27.84-.82 1.2-.58.05.04.09.1.1.17.02.07-.01.11-.09.1h-.1c-.03 0-.05 0-.08.02-.3.2-.54.47-.73.78a.12.12 0 0 1-.06.05h-.08a.14.14 0 0 1-.09-.1c-.03-.12-.07-.14-.14-.05l-2.14 2.63a.08.08 0 0 0 .01.12l.05.04h.04c.43-.48.96-.81 1.6-.98.07-.02.25-.18.53-.48.4-.42.68-.64 1.19-.85.25-.1.27-.06.08.13a9.45 9.45 0 0 1-2.27 1.64l-.04.16c-.02.05 0 .07.05.05 1-.35 1.86-.87 2.57-1.57a.3.3 0 0 0 .08-.32c-.02-.06-.01-.1.03-.15l.64-.64a.1.1 0 0 1 .09-.03c.03 0 .06.02.1.05l.08.09c.06.07.06.13-.02.19l-.73.55a.31.31 0 0 0-.12.22c-.04.35-.22.62-.54.81-.64.38-1.26.73-1.85 1.03-.03.01-.04.03-.03.06l.02.1c0 .04.03.06.07.04.5-.23 1-.46 1.48-.7.46-.22.75-.48.86-.77.04-.08.1-.1.16-.04.04.03.07.1.07.2 0 .33-.16.5-.48.5a.42.42 0 0 0-.2.04l-2.09 1.12a.2.2 0 0 0-.11.17c-.01.08-.06.13-.15.15Z" fill="#1D1917"/><path d="m33.44 13.8-.59.64c-.05 0-.08-.03-.1-.05 0-.02 0-.05.02-.09a7.75 7.75 0 0 1 .47-.67.11.11 0 0 1 .1 0l.04.02c.03.04.05.09.06.15Z" fill="#4D4948"/><path d="M36.08 13.6c.1-.03.2 0 .26.08a.41.41 0 0 0-.02.16c-.05.07-.05.1 0 .09a.66.66 0 0 0-.4-.12c-.1 0-.12-.04-.06-.12.03-.05.1-.08.22-.1Z" fill="#807E7C"/><path d="M36.32 13.84c0-.05 0-.1.02-.16.11-.06.2-.1.26-.08.14.02.14.07.02.16a.53.53 0 0 1-.3.08Z" fill="#4C2B19"/><path d="m34.7 14.63.06.18c.01.03.03.04.06.04l.06-.01c.2.32.5.52.9.61a.19.19 0 0 0 .18-.07c.08-.11.2-.15.32-.12.06.02.1.04.11.08l.01.06c0 .06-.02.09-.08.1a.55.55 0 0 0-.4.18c-.28.05-.5.13-.69.24-.15-.13-.27-.29-.37-.48-.04-.09-.1-.12-.2-.1l-.12.02a.2.2 0 0 0-.16.14c-.05.12-.12.18-.22.18-.01-.06-.04-.1-.09-.1a.17.17 0 0 0-.12 0c-.3.13-.61.22-.94.27-.13.02-.13.05 0 .1.21.08.47.07.77-.05 0 .15.12.2.37.15l.04.04-1.17.3c-.08.01-.08.04 0 .06.22.08.47.1.76.05l.56.19a.26.26 0 0 1 .17.17c.03.1.01.22-.06.34a.67.67 0 0 0-.04-.3.2.2 0 0 0-.2-.14l-.27-.01c-.06 0-.1.02-.1.08l-.04.48c-.01.06 0 .12.05.17.2.23.14.46-.19.69.03-.14-.02-.21-.14-.22-.04 0-.1.02-.18.09-.08.06-.16.16-.23.27a.08.08 0 0 0 0 .09c.03.05.06.05.1.01.1-.08.18-.12.24-.13-.01.08.02.13.09.16-.39.18-.62.46-.72.83a.1.1 0 0 0 .03.1.1.1 0 0 0 .1.02c.05-.02.1-.08.16-.17-.01.09.02.15.12.2-.15.15-.34.27-.56.35a.8.8 0 0 1-.4-.15.2.2 0 0 1-.09-.2c.07-.52.12-.94.14-1.24.05-.63-.32-1.28-.26-1.9.04-.44.16-.63.36-.57.5-.14 1.13-.4 1.86-.74.2-.1.35-.21.43-.34Z" fill="#4D4948"/><path d="M24.02 15.99c-.15.2-.34.29-.55.28-.06 0-.1-.04-.11-.13.27-.17.41-.39.42-.63-.11 0-.18-.07-.2-.2.22-.14.42-.16.6-.05.07.04.1.1.06.18l-.22.55Z" fill="#1D1917"/><path d="M23.58 15.32c.02.12.09.19.2.19-.32.1-.63.3-.93.6-.05 0-.13.03-.23.1a.09.09 0 0 1-.07 0 .07.07 0 0 1-.04-.06v-.19c.18-.48.67-.48 1.07-.64Z" fill="#4C2B19"/><path d="M35.23 15.92c-.2.07-.37.17-.52.3-.06.05-.12.05-.18 0a.6.6 0 0 0-.38-.17c-.26.04-.38 0-.37-.15.13-.04.25-.12.38-.22.1 0 .17-.06.22-.18a.2.2 0 0 1 .16-.14l.12-.02c.1-.02.16.01.2.1.1.2.22.35.37.48Z" fill="#1D1917"/><path d="m36 15.94.26.06-1.19.86a.36.36 0 0 0-.14.18.5.5 0 0 0 .05.42c.05.08.04.15-.03.2-.1.1-.3.15-.57.14a.9.9 0 0 0 .07-.6c.07-.12.1-.24.06-.34a.26.26 0 0 0-.17-.17l-.56-.19c.32-.06.46-.2.4-.41l-.03-.04a.6.6 0 0 1 .38.17c.06.05.12.05.18 0 .15-.13.33-.23.52-.3.18-.11.41-.2.69-.24l.07.26ZM31.28 15.97a2.7 2.7 0 0 0-.6.69c-.3.85-.57 1.72-.78 2.59h-.1a4.79 4.79 0 0 1 1.01-3.07c.24-.32.39-.38.47-.2Z" fill="#807E7C"/><path d="m36.27 16-.28-.06c.1-.12.24-.16.43-.1.07.02.09.06.04.12-.04.04-.1.05-.2.04Z" fill="#4C2B19"/><path d="m22.5 15.96.01.2a.07.07 0 0 0 .04.05c.03.01.05 0 .07 0-.18.25-.37.36-.59.33 0-.23-.08-.35-.2-.34.12-.05.22-.03.28.07.04.06.09.07.15.03a.73.73 0 0 0 .24-.34Z" fill="#4D4948"/><path d="M22.85 16.11c.03.2.2.2.5.03.02.09.06.13.12.13-.04.05-.07.1-.07.13 0 .04.03.07.08.1.1.03.21.04.35.03-.46.24-1.05.39-1.74.43-.1-.08-.12-.22-.06-.42.22.03.41-.08.6-.33.1-.07.17-.1.22-.1Z" fill="#9E9E9E"/><path d="m24.37 16.34.17.01c.08 0 .1.04.05.12-.17.24-.34.37-.5.4-.38.08-.4.22-.1.42l.3.1c.07.03.12.06.16.11.05.07.04.12-.04.15-.3.12-.45.25-.45.4l-1.87-1.09c.7-.04 1.28-.19 1.74-.43.15-.1.33-.17.54-.19Z" fill="#4D4948"/><path d="M25.46 16.93c-.14.03-.21-.02-.22-.14a.6.6 0 0 1-.04-.22c0-.09.04-.14.13-.16a.59.59 0 0 1 .36-.01.32.32 0 0 1 .2.25.3.3 0 0 1-.13.3c-.03.02-.13.02-.3-.02Z" fill="#1D1917"/><path d="m25.46 16.93-.4.5a.38.38 0 0 0 .2.6l.98.29c.09.02.15.07.2.14.16.28.37.52.63.73-.75-.2-1.5-.39-2.25-.56a1.3 1.3 0 0 1-.86-.59c0-.14.15-.27.45-.39.08-.03.1-.08.04-.15a.31.31 0 0 0-.16-.1l.95-.61c0 .12.08.17.22.14Z" fill="#807E7C"/><path d="M33.66 18.17a.25.25 0 0 1-.2.1c-.08.02-.15.06-.24.14-.05.04-.08.04-.11-.01a.08.08 0 0 1 0-.1c.07-.1.15-.2.23-.26.07-.07.14-.1.18-.1.12.02.17.1.14.23ZM33.54 18.44l.14.12c.06.08.05.15-.03.21a.17.17 0 0 1-.14.03c-.09-.01-.14.02-.17.1a.8.8 0 0 1-.23.32c-.06.1-.11.15-.17.16a.1.1 0 0 1-.09-.02.1.1 0 0 1-.03-.1c.1-.36.33-.64.72-.82Z" fill="#9E9E9E"/><path d="m33.23 19.41.1.08c.06.07.05.14-.01.2-.09.1-.07.17.05.22a.11.11 0 0 1 .05.16.13.13 0 0 1-.09.06c-.01 0-.04 0-.08-.03l-.58-.33c.22-.08.4-.2.56-.36Z" fill="#fff"/><path d="M28.31 20.22c-.07.03-.12.13-.15.28.01-.18-.07-.28-.24-.3.34-.27.47-.26.4.02Z" fill="#9E9E9E"/><path d="m28.31 20.22.1.94c0 .1-.03.15-.12.19l-.38.13a.13.13 0 0 1-.14-.03.12.12 0 0 1-.01-.14c.13-.25.04-.42-.25-.51.37.02.59-.08.65-.3.03-.15.08-.25.15-.28Z" fill="#807E7C"/><path d="M25.29 22.37c.16-.07.26-.2.3-.42.02.07.04.12.07.15a.11.11 0 0 0 .1.04.12.12 0 0 0 .08-.05c.17-.26.27-.4.32-.41.66-.2.73-.06.21.4-.2.2-.48.55-.83 1.07-.04.05-.1.09-.18.1-.08.02-.12-.01-.1-.1.05-.28.06-.54.03-.78Z" fill="#9E9E9E"/><path d="M38.56 22.9c-.76.43-1.59.61-2.49.57h-.37c-.1 0-.14-.05-.11-.15l.1-.38c.02-.06.06-.1.12-.12l.68-.25c.08-.04.1 0 .09.07l-.04.13a.17.17 0 0 1-.07.1l-.62.35c-.12.07-.11.12.03.16.13.04.26.03.37-.02.4-.17.64-.47.7-.88a.12.12 0 0 1 .07-.1.12.12 0 0 1 .12.02l.11.1c.07.04.14.06.21.04.4-.09.76.03 1.1.37ZM37.85 23.7c.14.18.38.22.7.14a.07.07 0 0 1 .1.06l-.01.04-.06.13a.14.14 0 0 1-.08.08l-1.7.63a.2.2 0 0 0-.13.15.61.61 0 0 1-.3.4c-.08.04-.13.02-.17-.05-.13-.26-.34-.3-.63-.12-.2-.24-.16-.43.12-.57a12.9 12.9 0 0 1 2.16-.88Z" fill="#807E7C"/><path d="m24.38 27.14-.35.19-.08-.01a.13.13 0 0 1-.1-.1l-.02-.1.6-.58.19.14c.07.06.08.12.01.19l-.25.27Z" fill="#4C2B19"/><path d="M38.42 10.27a.04.04 0 0 1-.05 0l-.02-.01a.19.19 0 0 1-.06-.13c0-.05 0-.11.02-.19.02-.07.06-.14.1-.22l.17-.23.04-.04.2-.2c.07-.05.14-.1.2-.12a.48.48 0 0 1 .2-.05c.05 0 .1.01.12.04l.02.01.01.03v.02l-.95 1.09ZM36.18 9.98c-.63.13-.98.58-1.05 1.35 0 .02-.02.03-.04.04l-.07.01c-.05.01-.07 0-.06-.06.07-.4.23-1.06.62-1.33.15-.1.32-.27.5-.5.12-.15.2-.13.23.06.04.26 0 .4-.13.43ZM37.02 11.01c-.18.21-.27.36-.4.53-.12.15-.15.13-.09-.05.14-.46.36-.8.66-1.02.06-.04.1-.03.11.05.01.1-.08.26-.28.49ZM39.62 11.17c.21-.17.35-.34.31-.39-.04-.05-.24.04-.45.2-.2.17-.35.34-.3.39.03.05.23-.04.44-.2ZM38.07 13l.09-.24c.1-.06.16-.04.17.06.04.3-.03.51-.21.63-.09.05-.14.02-.15-.08l.01-.15a.94.94 0 0 0 .1-.22ZM37.56 13.68c.02.04-.6.4-1.86 1.08a.11.11 0 0 1-.11 0 .13.13 0 0 1-.06-.05.12.12 0 0 1-.01-.08c0-.04.03-.07.07-.09 1.29-.61 1.95-.9 1.97-.86Z" fill="#1D1917"/><path d="M26.75 17.91c.19.1.34.25.46.46.02.05 0 .08-.05.09-.03 0-.06-.02-.1-.06-.15-.18-.28-.3-.38-.34-.1-.06-.28-.1-.5-.1-.06 0-.1-.02-.12-.05-.03-.05-.01-.08.05-.09.23-.03.45 0 .64.1Z" fill="#4D4948"/><path d="M35.75 13.38c-.48.33-.81.54-1.02.65-.27.14-.32.08-.14-.16a7.29 7.29 0 0 1 1.1-1.07.13.13 0 0 1 .16.1l.03.17a.31.31 0 0 1-.13.31Z" fill="#9E9E9E"/><path d="M32.69 20.23c-.05.14.02.25.18.3l.1.06c.02.03.03.07.03.1a.16.16 0 0 1-.14.16.58.58 0 0 0-.2.04c-.12.06-.13.12 0 .16.06.02.16.03.29.03-.27.05-.41.14-.42.27-.37-.18-.55-.2-.54-.05a.62.62 0 0 1-.25-.25.23.23 0 0 1-.01-.22c.09-.21.14-.44.16-.67 0-.1.05-.15.13-.18.25-.09.48 0 .67.25Z" fill="#4D4948"/><path d="M32.95 21.08c-.14 0-.23 0-.3-.03-.12-.04-.11-.1.01-.16.04-.02.1-.03.2-.04a.16.16 0 0 0 .1-.26.26.26 0 0 0-.1-.06c-.16-.05-.22-.16-.17-.3.2.02.38.1.52.21.25.21.2.32-.11.33-.1 0-.14.1-.15.3Z" fill="#9E9E9E"/><path d="M34.56 20.63H34.68l.62.56c.04.03.04.07.01.1-.05.08-.13.1-.24.06-.5-.15-.85-.36-1.07-.65a.12.12 0 0 1 0-.14l.03-.03c.16-.11.28-.1.37.04l.07.06h.1Z" fill="#fff"/><path d="M32.53 21.35c.05.02.08.06.1.1.06.07.04.11-.05.11-.2.02-.4-.07-.59-.26 0-.15.17-.13.54.05Z" fill="#9E9E9E"/><path d="M34.26 22.1a.04.04 0 0 1 0 .05v.01c-.05.07-.14.1-.27.08a.94.94 0 0 1-.4-.17l-.19-.14a.95.95 0 0 1-.3-.31c-.05-.11-.06-.21-.01-.28v-.02a.04.04 0 0 1 .06 0l1.11.77Z" fill="#fff"/><path d="M32.05 21.91c.22.1.34.17.37.22.27.45.18.54-.27.28-.15-.09-.28-.27-.4-.55-.05-.13-.02-.15.1-.08.07.05.11.1.2.13Z" fill="#807E7C"/><path d="M33.08 16.97c.3-.08.5-.06.6.06.05.08.04.12-.07.12-.27.01-.46-.01-.55-.07-.08-.05-.08-.08.02-.1Z" fill="#9E9E9E"/><path d="M12 33h4v2h24v-2h4v8h-3v1H15v-1h-3v-8Z" fill="#F8C300"/><path d="M22.74 36c-.45 0-.87.26-1.06.67L20.5 39.2l-1.18-2.53c-.2-.4-.6-.67-1.06-.67H17l1.85 3.95a1.83 1.83 0 0 0 3.3 0L24 36h-1.26ZM24 38h1.23c.42 0 .77.35.77.78V41h-1.23a.78.78 0 0 1-.77-.78V38Z" fill="#007F3A"/><circle cx="25" cy="36.72" r=".72" fill="#007F3A"/><path d="M31.16 36H30v1.68a1.62 1.62 0 0 0-1.29-.68c-.94 0-1.71.9-1.71 2s.77 2 1.71 2c.52 0 1-.27 1.3-.7.09.4.43.7.83.7H32v-4.12a.86.86 0 0 0-.84-.88ZM30 39.01c0 .56-.35 1.01-.79 1.01-.43 0-.79-.45-.79-1.01s.36-1.01.8-1.01c.43 0 .78.45.78 1.01ZM34.7 41c-.73 0-1.7-.24-1.7-1.13 0-.99 1.15-1.2 1.92-1.24.2-.01 1.08.04 1.08-.34v-.01c0-.2-.1-.28-.43-.28-.36 0-.6.07-.64.32H33.2c.1-1.1 1.54-1.32 2.4-1.32.77 0 2.4.2 2.4 1.28V41h-2v-.6c-.35.47-.74.6-1.3.6Zm.61-.88c.33 0 .69-.15.69-.56v-.32c-.24.07-.36.11-.6.14-.43.05-.63.2-.63.4 0 .22.22.34.54.34Z" fill="#007F3A"/></svg>