<!-- by TradingView --><svg width="56" height="56" viewBox="0 0 56 56" xmlns="http://www.w3.org/2000/svg"><path fill="#F0F3FA" d="M0 0h56v56H0z"/><path d="M39 27c-5.46 0-10-4.1-10-9.57h-2C27 22.9 22.46 27 17 27v2c5.46 0 10 4.1 10 9.57h2C29 33.1 33.54 29 39 29v-2Z" fill="#0E557C"/><path d="M33 28c-2.59 0-5-2.41-5-5 0 2.59-2.41 5-5 5 2.59 0 5 2.41 5 5 0-2.59 2.41-5 5-5Z" fill="#F8EF24"/><path d="M12 33c2.08 7.08 8.52 12 16.15 12C37.45 45 45 37.31 45 27.83V27h-6.32v.83c0 5.93-4.71 10.74-10.53 10.74A10.3 10.3 0 0 1 18.78 33H12Z" fill="#0E557C"/><path d="M16.6 40.33A16.41 16.41 0 0 1 12 33h6.78a10.3 10.3 0 0 0 9.37 5.57c1.22 0 2.4-.21 3.48-.6v2.36H16.6Z" fill="#36C6F4"/><path d="M27.64 45C31.94 44.31 39 41.03 39 32.16c0-1.33-.06-2.1-.37-3.17-.5 4.5-4.67 9.4-10.18 9.56A9.95 9.95 0 0 1 23.29 40C19.77 40 15 38.13 12 33a16.68 16.68 0 0 0 15.64 12Z" fill="#1C87C9"/><path d="M44 23a16.68 16.68 0 0 0-16.15-12C18.55 11 11 18.69 11 28.17V29h6.32v-.83c0-5.93 4.71-10.74 10.53-10.74A10.3 10.3 0 0 1 37.22 23H44Z" fill="#0E557C"/><path d="M39.4 15.67A16.41 16.41 0 0 1 44 23h-6.78a10.3 10.3 0 0 0-9.37-5.57c-1.22 0-2.4.21-3.48.6v-2.36H39.4Z" fill="#36C6F4"/><path d="M28.36 11C24.06 11.69 17 14.97 17 23.84c0 1.33.05 2.1.37 3.17.5-5 4.67-9.4 10.18-9.56A9.95 9.95 0 0 1 32.71 16c3.52 0 8.3 1.87 11.29 7a16.68 16.68 0 0 0-15.64-12Z" fill="#1C87C9"/></svg>