<!-- by TradingView --><svg width="56" height="56" viewBox="0 0 56 56" xmlns="http://www.w3.org/2000/svg"><path fill="#F0F3FA" d="M0 0h56v56H0z"/><path d="M49 26c1.64 0 3 1.2 3 3.5S50.64 33 49 33s-3-1.2-3-3.5 1.36-3.5 3-3.5Zm-1.5 3.5c0 1.5.61 2.5 1.5 2.5.88 0 1.5-1 1.5-2.5S49.88 27 49 27c-.89 0-1.5 1-1.5 2.5ZM43.17 33C41.44 33 40 31.79 40 29.5c0-2.3 1.44-3.5 3.15-3.5.62 0 1.38.18 1.85.54v1.17c-.38-.48-.88-.71-1.6-.71-.88 0-1.9.99-1.9 2.5s.88 2.5 1.77 2.5c.8 0 1.18-.15 1.73-.48v1.06c-.47.37-1.22.42-1.83.42ZM38.68 27.28c-.08-.18-.65-.28-1.05-.28H36v2h1.23c.4 0 .96-.14 1.05-.33v1.66c-.09-.19-.65-.33-1.05-.33H36v2h1.95c.4 0 .96-.14 1.05-.33V33h-4.5v-5.88c0-.42-.32-1.03-.5-1.12h4.68v1.28ZM20.03 26c1.49 0 2.61.56 2.61 1.84 0 .62-.66 1.21-1.32 1.4 1.17.38 1.68.97 1.68 1.8C23 32.4 21.87 33 20.38 33H17.5v-5.88c0-.42-.32-1.03-.5-1.12h3.03ZM19 32h1.24c.55 0 1.08-.43 1.08-1.06 0-.61-.53-.94-1.08-.94H19v2Zm0-3h1.02a1 1 0 0 0 0-2H19v2ZM30.03 26c1.49 0 2.62.56 2.62 1.84 0 .62-.67 1.21-1.33 1.4 1.17.38 1.68.97 1.68 1.8C33 32.4 31.87 33 30.38 33H27.5v-5.88c0-.42-.32-1.03-.5-1.12h3.03ZM29 32h1.24c.55 0 1.08-.43 1.08-1.06 0-.61-.53-.94-1.08-.94H29v2Zm0-3h1.02a1 1 0 0 0 0-2H29v2ZM26 26v7h-1.5v-5.88c0-.42-.33-1.03-.5-1.12h2ZM16 33h-1.7l-.61-1.68-2.9.36-.52 1.32H9s1.48-3.9 2.16-5.83c.14-.4.32-1.02.15-1.17h2.09c.78 2.25 2.6 7 2.6 7Zm-4.84-2.27 1.4-.45 1.07.96-1.33-3.5-1.14 2.99ZM6.29 33c-.8 0-1.75-.13-2.29-.45V31.2c.33.48 1.1.8 2.11.8.8 0 1.39-.47 1.39-.99 0-1.23-3.44-.53-3.44-3.05 0-1.32 1.03-1.96 2.42-1.96.78 0 1.46 0 2 .33v1.09A3.04 3.04 0 0 0 6.7 27c-.61 0-1.2.41-1.2.78 0 1.17 3.5.52 3.5 3.03C9 32.31 7.83 33 6.29 33Z" fill="#007934"/><path d="M4 23h16.3l1.7 1H4v-1ZM52 23H35.7L34 24h18v-1Z" fill="#C7C7C7"/><path d="m28 13 1.51 2.67 3.49.39-2.55 2.03.64 2.91L28 19.59 24.91 21l.64-2.9L23 16.05l3.49-.4L28 13Z" fill="#CF152D"/><path d="m22.5 17 .76 1.33 1.74.2-1.27 1.02.32 1.45-1.55-.7-1.55.7.32-1.45L20 18.53l1.74-.2.76-1.33ZM33.5 17l.76 1.33 1.74.2-1.27 1.02.32 1.45-1.55-.7-1.55.7.32-1.45L31 18.53l1.74-.2.76-1.33Z" fill="#CF152D"/><path d="M25.7 25 22 22l1.2.45L25.7 25ZM24.77 21.47 27.54 26l-1.94-5-.83.47ZM30.3 25l3.7-3-1.2.45L30.3 25ZM31.23 21.47 28.46 26l1.94-5 .83.47ZM27.54 20.3 28 20l.46.3L28 26l-.46-5.7Z" fill="#C7C7C7"/></svg>