<!-- by TradingView --><svg width="56" height="56" viewBox="0 0 56 56" xmlns="http://www.w3.org/2000/svg"><path fill="#F0F3FA" d="M0 0h56v56H0z"/><path d="M36.3 15.06 38.54 25c.01.06 0 .07-.05.03-2.76-2.7-6.17-3.83-10.2-3.4-1.74.2-3.52.68-5.35 1.45-1.68.7-3.3 1.61-4.88 2.73-.08.06-.12.04-.11-.07l.06-.1a33.75 33.75 0 0 1 5.2-5.26 25.52 25.52 0 0 1 6.13-3.7c2.3-.98 4.6-1.54 6.88-1.68.04 0 .07.02.08.06Z" fill="#007DB7"/><path d="M17.93 26.86c.74 1.33 1.6 2.6 2.6 3.81a30.9 30.9 0 0 0 5.86 5.36c3.1 2.17 6.18 3.4 9.26 3.68.06 0 .09.04.09.1v.1c0 .05-.03.08-.08.08-1.63.08-3.45-.29-5.46-1.1a27.18 27.18 0 0 1-5.65-3.14 37.73 37.73 0 0 1-5.1-4.53 35.2 35.2 0 0 1-2.74-3.67c-.02-.05-.07-.07-.13-.09l.01-.06c.02-.05 0-.1-.02-.14A12.72 12.72 0 0 1 15.1 24a6.73 6.73 0 0 1-.2-3.44c.42-1.78 1.6-2.83 3.5-3.18 1.46-.27 3.13-.12 5 .45.07.02.1.07.06.14l-.03.07c-.03.07-.09.1-.16.09a8.33 8.33 0 0 0-2.59-.14c-.95.1-1.75.38-2.41.83a3.56 3.56 0 0 0-1.46 2.33c-.19.9-.16 1.85.08 2.86.25 1.02.6 1.97 1.04 2.84Z" fill="#00ADEF"/><path d="M25 24.46c2.7-.45 5.18-.5 7.41-.13 4.97.82 8.77 3.5 11.4 8.02l.13.18c.1.14.08.28-.07.42l-.14.14c-1.78 1.98-3.5 3.89-5.18 5.73-.08.08-.1.07-.08-.04.5-2.48.35-4.87-.43-7.19a9.24 9.24 0 0 0-5.1-5.5c-2.09-1-4.6-1.5-7.56-1.53-.14 0-.3-.02-.45-.04-.1-.01-.1-.03 0-.04l.07-.02Z" fill="#00ADEF"/><path d="M20.53 30.67a26.36 26.36 0 0 1-2.6-3.8 15.62 15.62 0 0 1 7.57-1.3c2.74.2 5.15 1.05 7.23 2.54a10.6 10.6 0 0 1 4.12 5.83c.04.14.02.15-.07.03l-.54-.74a12.1 12.1 0 0 0-3.83-3.44 10.1 10.1 0 0 0-4.92-1.36c-2.55-.03-4.87.71-6.96 2.24ZM16.58 27.46c.06.02.1.04.13.09.55.89 1.46 2.11 2.75 3.67l.2.25c-.98 1-1.75 2.07-2.33 3.25a9.8 9.8 0 0 0-1.02 3.83c-.01.18-.06.2-.14.03L12 30.37c-.02-.04-.01-.07.02-.1 1.4-1.1 2.92-2.04 4.55-2.8Z" fill="#007DB7"/></svg>