<!-- by TradingView --><svg width="56" height="56" viewBox="0 0 56 56" xmlns="http://www.w3.org/2000/svg"><path fill="#E42A18" d="M0 0h56v56H0z"/><path d="M25.53 21.48c1.56.72.85 2.06-.44 2.44-.33.1-1.36.1-3.12.03-.15 0-.22-.08-.22-.22V19.2c0-.12.06-.18.2-.18 1.37.02 3.72-.27 4.23.85.25.54.03 1-.66 1.39a.13.13 0 0 0-.05.04.12.12 0 0 0 0 .14l.06.04Zm-2.45-1.46.04.83c0 .06.03.12.08.16.05.05.11.07.18.07h.2a3.65 3.65 0 0 0 1.07-.22c.14-.06.25-.13.32-.2.07-.08.11-.16.1-.24v-.13c0-.16-.17-.3-.46-.4-.29-.1-.67-.15-1.07-.14l-.21.01a.26.26 0 0 0-.18.08.24.24 0 0 0-.07.18Zm0 2.06.03.89a.31.31 0 0 0 .11.23.34.34 0 0 0 .24.09l.38-.01c.36-.01.7-.1.95-.23.25-.14.39-.31.38-.5v-.16a.41.41 0 0 0-.11-.26.9.9 0 0 0-.3-.22 2.59 2.59 0 0 0-.97-.17l-.38.01a.35.35 0 0 0-.23.1.32.32 0 0 0-.1.23ZM27.53 19.12c-.02-.08.02-.12.1-.12h1.28c.05 0 .09.03.09.08v4.7c0 .06-.04.11-.08.15a.23.23 0 0 1-.16.07h-1c-.17 0-.23-.08-.2-.25.34-1.42.33-2.96-.03-4.63ZM31.83 22.5a.8.8 0 0 0-.38.15c-.1.09-.2.2-.24.32l-.29.71a.43.43 0 0 1-.4.3l-.23.02c-.2.02-.27-.07-.2-.26l1.82-4.54c.05-.13.15-.2.3-.2h.56c.07 0 .14.02.2.06.06.04.11.1.14.16l1.86 4.5c.05.12 0 .2-.13.23-.32.06-.7.04-1.13-.08-.17-.05-.26-.16-.26-.33 0-.86-.54-1.21-1.62-1.05Zm.45-.64c.1 0 .2-.03.28-.08.15-.1.2-.22.18-.39-.1-.56-.28-.83-.54-.82-.26.02-.4.31-.44.87 0 .17.06.3.22.37.08.04.18.05.3.05ZM9.5 33.57l.13-.16c.48-.56.43-1.02-.15-1.4-.63-.43-2.68-1.34-3.07-2.16-.4-.85-.55-1.6 0-2.43 1.22-1.87 3.56-1.64 5.37-.76.16.08.22.2.17.38-.17.76-.59 1.26-1.24 1.5-.2.07-.28 0-.27-.2.07-1.5-1.67-1.63-2.19-.51a.96.96 0 0 0 .39 1.22c1.9 1.1 4.75 2.3 3 4.8-1.37 2-3.32.76-5.01.86-.2.02-.3-.06-.33-.22l-.27-1.7c-.09-.52.04-.59.37-.18.47.57 1.07.99 1.8 1.25.52.2.95.1 1.3-.3ZM14.49 32.5a3.33 3.33 0 0 0-.55 2.14c.03.17-.04.35-.18.36h-1.47c-.26.01-.3-.09-.14-.3.29-.36.71-.83.92-1.4 1.12-3.19 2.2-5.63 2.3-7.08 0-.15.08-.22.22-.22h1.4a.6.6 0 0 1 .36.12c.1.07.18.18.22.3.88 2.62 1.67 4.91 2.37 6.88.18.48.6.92.84 1.36.09.17.04.34-.15.34h-2.37c-.2 0-.28-.18-.25-.38.1-.66-.05-1.34-.47-2.06a.47.47 0 0 0-.42-.25h-2.3a.37.37 0 0 0-.33.2Zm.54-1.65a.27.27 0 0 0 .03.23c.03.04.06.07.1.09.03.02.07.03.1.03l1.42.02c.04 0 .08 0 .11-.02a.25.25 0 0 0 .1-.08.27.27 0 0 0 .03-.24l-.68-2.14a.26.26 0 0 0-.08-.13.24.24 0 0 0-.3 0 .26.26 0 0 0-.09.12l-.74 2.12ZM23 26.05c.17 0 .56-.01 1.16-.05.25-.01.31.1.2.32-.52.97-.36 2.13-.36 4.18s-.16 3.2.36 4.18c.12.23.05.33-.2.32-.6-.04-.99-.05-1.16-.05-.17 0-.56.01-1.16.05-.25.01-.31-.1-.2-.32.52-.97.36-2.13.36-4.18s.16-3.2-.35-4.18c-.12-.23-.06-.33.19-.32.6.04.99.05 1.16.05ZM44.52 29.25c-.29-.35-.52-.3-.52.15v4.37c0 .17.15.34.25.47l.28.35c.14.17.1.41-.11.41h-1.56c-.28 0-.33-.27-.16-.48l.17-.22c.1-.14.13-.28.13-.44v-6.14c0-.66-.09-1.14-.34-1.45a.16.16 0 0 1-.02-.18.17.17 0 0 1 .16-.09c1.1.03 1.64-.16 2.44.84 1.08 1.35 2.13 2.69 3.14 4 .1.12.2.2.3.25a.18.18 0 0 0 .23-.07c.01-.03.09-.06.09-.09v-3.77c0-.2-.13-.38-.26-.54l-.21-.27c-.18-.22-.12-.35.17-.35h1.53c.17 0 .26.06.27.16 0 .06 0 .14-.05.23l-.38.4a.78.78 0 0 0-.07.38v6.4c0 1.7-.56 1.89-1.62.55l-3.86-4.87ZM30.21 30.9h-.6c-.3 0-.4-.15-.3-.46l.1-.29c.04-.1.11-.2.2-.26a.5.5 0 0 1 .3-.1h2.16c.12 0 .24.05.32.14.09.1.14.22.14.35v4.26c0 .11-.06.17-.16.2-2.65.42-5.42.67-6.7-2.04-2.13-4.52 2.51-8.2 6.33-6.09.28.15.3.35.08.6l-.71.79c-.3.32-.53.28-.72-.14-.45-.97-1.17-1.14-2.15-.5-2.3 1.48-1.64 6.96 1.78 6.57.17-.02.25-.12.25-.3v-2.38c0-.23-.1-.34-.32-.34ZM41.78 31.01c0 1.06-.4 2.07-1.09 2.82A3.59 3.59 0 0 1 38.07 35h-.74c-.99 0-1.93-.42-2.63-1.17a4.14 4.14 0 0 1-1.09-2.82V30c0-1.06.4-2.07 1.1-2.82A3.59 3.59 0 0 1 37.32 26h.74c.98 0 1.93.42 2.62 1.17.7.75 1.09 1.76 1.09 2.82V31Zm-4.1 3.04c.57 0 1.12-.37 1.53-1.04a5.62 5.62 0 0 0 .47-3.87c-.1-.43-.27-.83-.47-1.16-.2-.33-.43-.59-.7-.77a1.46 1.46 0 0 0-.82-.27c-.57 0-1.12.37-1.52 1.04-.4.66-.64 1.57-.64 2.51 0 .47.06.93.16 1.36.11.43.27.82.47 1.16.2.33.44.59.7.77.26.18.54.27.82.27Z" fill="#FFFEFE"/></svg>