<!-- by TradingView --><svg width="56" height="56" viewBox="0 0 56 56" xmlns="http://www.w3.org/2000/svg"><path fill="#F0F3FA" d="M0 0h56v56H0z"/><path fill-rule="evenodd" d="M40.11 38H37.5c-.6.7-1.21 1.34-1.82 1.89 1.6-.5 3.1-1.13 4.43-1.89Zm-7.23 2.57-.02-.05a5.9 5.9 0 0 0 2.08-1.32c.4-.35.81-.76 1.22-1.2h-3.8c-.31.84-.65 1.62-1.03 2.27-.11.2-.24.4-.36.57a26.5 26.5 0 0 0 1.9-.27Zm-3.2 1.38v.01l.04-.01A24.4 24.4 0 0 0 42 38c3.7-2.54 6-6.08 6-10s-2.3-7.46-6-10a22.9 22.9 0 0 0-8.17-3.4 9.24 9.24 0 0 0-.12-.05l-.01.03C31.9 14.2 29.98 14 28 14c-5.45 0-10.39 1.53-14 4-3.7 2.54-6 6.08-6 10s2.3 7.46 6 10c4.45 3.05 9.06 4 14 4 .57 0 1.13-.02 1.68-.05Zm-.22-.99c.3-.18.65-.57 1-1.19.3-.5.57-1.1.83-1.77h-6.22c.29.66.59 1.26.9 1.76.4.65.79 1.05 1.1 1.22a28.16 28.16 0 0 0 2.4-.02Zm-3.92-.07c-.15-.19-.28-.4-.42-.6-.4-.66-.79-1.45-1.14-2.29h-3.97a11.94 11.94 0 0 0 3.14 2.57c.78.14 1.58.25 2.39.32Zm-4.97-.93c-.68-.6-1.3-1.27-1.87-1.96h-2.81c1.4.8 2.97 1.46 4.68 1.96ZM14.32 37h3.6a24.65 24.65 0 0 1-2.76-5H9.93a13.27 13.27 0 0 0 4.39 5Zm-4.8-6h36.97a9.09 9.09 0 0 0 .28-5H9.23a8.97 8.97 0 0 0 .28 5Zm0-6h5.5c.17-2.16 1.39-4.26 2.83-6h-3.53a12.67 12.67 0 0 0-4.8 6Zm6.37-7h2.84c.73-.77 1.49-1.47 2.2-2.06A22.1 22.1 0 0 0 15.89 18Zm7.38-2.6v.02c-.84.56-2 1.47-3.14 2.58h3.36c.63-1.1 1.3-2.09 1.89-2.88-.72.07-1.42.17-2.1.29Zm3.44-.37c-.58.72-1.33 1.76-2.06 2.97h6.32c-.6-1.3-1.23-2.33-1.7-2.97a28 28 0 0 0-2.56 0Zm3.83.09c.47.73 1.01 1.71 1.53 2.88h4.92a15.78 15.78 0 0 0-3.48-2.44c-.96-.2-1.95-.35-2.97-.44Zm6.19 1.34c.56.45 1.14.97 1.7 1.54h1.68a21.32 21.32 0 0 0-3.38-1.54ZM46.49 25h-4.54a11.75 11.75 0 0 0-2.65-6h2.38a12.67 12.67 0 0 1 4.8 6Zm-.42 7h-4.29a48.47 48.47 0 0 1-3.45 5h3.35c2-1.43 3.5-3.13 4.4-5Zm-26.9-13h3.77v.02c-.98 1.87-1.8 4-1.92 5.98h-5c.17-1.87 1.26-3.77 2.68-5.45l.47-.55Zm13.78 6H22.02a14.86 14.86 0 0 1 2.06-6h7.33c.7 1.7 1.3 3.76 1.54 6Zm1 0c-.21-2.22-.79-4.27-1.47-6h5.5a11.14 11.14 0 0 1 2.97 6h-7ZM18.89 36.6a23.89 23.89 0 0 1-2.64-4.6h5.86c.32 1.37.84 3.25 1.5 5h-4.42l-.3-.4Zm5.78.4a42.1 42.1 0 0 1-1.53-5h9.77c-.26 1.41-.69 3.3-1.26 5h-6.98Zm8.04 0c.55-1.75.97-3.62 1.22-5h6.7a46.66 46.66 0 0 1-3.58 5H32.7Z" fill="#004588"/><path d="M23.5 21h-4l2.5 3h13l2-3h-2l-1.5 2H31v-1h-2v1h-1v-2h-1v2h-2l-1.5-2Z" fill="#FEF900"/><path d="M36.33 40.73a5.26 5.26 0 0 0-.08-.13l.82-.55a7.57 7.57 0 0 0-1.88-1.91l-.57.8c-.42-.31-.89-.58-1.4-.83l.43-.89c-.77-.37-1.62-.66-2.54-.87l-.22.97a12.8 12.8 0 0 0-1.64-.26l.1-1a14.38 14.38 0 0 0-2.7 0l.1 1c-.57.05-1.12.14-1.64.26l-.22-.97c-.92.2-1.77.5-2.54.87l.42.9c-.5.24-.97.51-1.39.81l-.57-.8c-.77.56-1.4 1.2-1.88 1.92l.82.55-.08.13 1 .3c.36-.52.87-1 1.52-1.44A10.6 10.6 0 0 1 28 38c2.32 0 4.37.63 5.8 1.59a5.7 5.7 0 0 1 1.53 1.44l1-.3Z" fill="#029141"/><path d="M40.5 30c-.45 0-.87-.06-1.26-.2-.38-.12-.68-.3-.9-.53a1.1 1.1 0 0 1-.34-.77c0-.29.11-.55.33-.77.23-.23.53-.41.91-.54.39-.13.8-.19 1.27-.19.46 0 .87.06 1.25.2.39.12.69.3.9.53.23.22.34.48.34.77 0 .28-.11.54-.33.77-.23.23-.53.41-.9.54-.39.13-.8.19-1.26.19Zm0-.65c.4 0 .7-.08.94-.23a.71.71 0 0 0 .35-.62.7.7 0 0 0-.35-.62 1.64 1.64 0 0 0-.93-.23c-.4 0-.71.07-.95.23a.71.71 0 0 0-.34.62c0 .26.11.46.34.62.24.15.55.23.95.23ZM32.5 28.5c0-.29.1-.55.33-.77.22-.23.52-.41.9-.54.4-.13.85-.19 1.34-.19.61 0 1.13.1 1.56.28.44.18.72.43.87.75h-1.37a.95.95 0 0 0-.44-.28c-.18-.06-.4-.1-.63-.1-.39 0-.7.08-.93.24a.7.7 0 0 0-.36.61c0 .26.12.46.36.62.23.15.54.23.93.23.24 0 .45-.03.63-.1a.95.95 0 0 0 .44-.28h1.37c-.15.32-.43.57-.87.76-.43.18-.95.27-1.56.27-.5 0-.94-.06-1.33-.19a2.2 2.2 0 0 1-.91-.53 1.09 1.09 0 0 1-.33-.78ZM28.8 27v1.78c0 .17.09.31.25.4.15.1.39.15.7.15.3 0 .53-.05.7-.14.16-.1.24-.24.24-.41V27H32v1.77c0 .27-.1.5-.3.68-.21.18-.49.32-.83.41-.34.1-.73.14-1.15.14-.42 0-.8-.05-1.14-.14-.33-.09-.6-.23-.79-.41a.9.9 0 0 1-.29-.68V27h1.3ZM25.77 29.97l-.96-1.13h-.27v1.13H23.4v-3h1.9c.36 0 .67.05.93.13s.45.2.58.34c.13.14.2.3.2.48a.7.7 0 0 1-.27.53c-.18.16-.43.27-.77.33l1.07 1.19h-1.28Zm-1.23-1.65h.7c.2 0 .36-.03.46-.1a.3.3 0 0 0 .16-.27.3.3 0 0 0-.16-.27.87.87 0 0 0-.46-.1h-.7v.74ZM20.5 30c-.45 0-.87-.06-1.26-.2-.38-.12-.68-.3-.9-.53a1.1 1.1 0 0 1-.34-.77c0-.29.11-.55.33-.77.23-.23.53-.41.91-.54.39-.13.8-.19 1.27-.19.46 0 .87.06 1.25.2.39.12.69.3.9.53.23.22.34.48.34.77 0 .28-.11.54-.33.77-.23.23-.53.41-.9.54-.39.13-.8.19-1.26.19Zm0-.65c.4 0 .7-.08.94-.23a.71.71 0 0 0 .35-.62.7.7 0 0 0-.35-.62 1.64 1.64 0 0 0-.93-.23c-.4 0-.71.07-.95.23a.71.71 0 0 0-.34.62c0 .26.11.46.34.62.24.15.55.23.95.23ZM15.8 30c-.33 0-.63-.03-.9-.1a1.63 1.63 0 0 1-.65-.31.67.67 0 0 1-.25-.5h1.2c.02.11.08.2.18.25.1.06.23.09.4.09.16 0 .3-.03.4-.07.09-.05.14-.12.14-.2 0-.08-.04-.14-.12-.19a1.03 1.03 0 0 0-.28-.11 6.17 6.17 0 0 0-.48-.1c-.3-.07-.54-.12-.73-.18a1.4 1.4 0 0 1-.5-.26.55.55 0 0 1-.2-.45c0-.27.16-.48.47-.64.31-.15.72-.23 1.22-.23.51 0 .93.08 1.24.23.31.16.48.37.5.65h-1.22c-.01-.1-.06-.17-.17-.22a.8.8 0 0 0-.39-.09.67.67 0 0 0-.33.07c-.08.05-.12.11-.12.2 0 .1.07.17.21.22.14.05.36.11.66.17.3.06.54.13.73.18.19.06.35.15.49.26.13.11.2.25.2.43 0 .17-.07.32-.2.45-.14.14-.33.25-.59.33-.25.08-.55.12-.9.12Z" fill="#D82218"/></svg>