<!-- by TradingView --><svg width="56" height="56" viewBox="0 0 56 56" xmlns="http://www.w3.org/2000/svg"><path fill="#0066A8" d="M0 0h56v56H0z"/><ellipse cx="28" cy="28" rx="8.5" ry="17" fill="#5DBB52"/><path d="M35.36 23.75c4.7 8.13 5.2 16.63 1.14 18.97-4.07 2.35-11.17-2.34-15.86-10.47-4.7-8.13-5.2-16.63-1.14-18.97 4.07-2.35 11.17 2.34 15.86 10.47Z" fill="#37963F"/><path d="M32.31 20.57c8.04 4.84 12.6 12.03 10.17 16.05-2.42 4.02-10.9 3.35-18.94-1.5-8.04-4.84-12.6-12.03-10.18-16.05 2.43-4.02 10.9-3.35 18.95 1.5Z" fill="#2A7739"/><ellipse cx="28" cy="28" rx="8.5" ry="17" transform="rotate(-90 28 28)" fill="#6EAF3B"/><path d="M23.75 20.64c8.13-4.7 16.63-5.2 18.97-1.14 2.35 4.07-2.34 11.17-10.47 15.86-8.13 4.7-16.63 5.2-18.97 1.14-2.35-4.07 2.34-11.17 10.47-15.86Z" fill="#2A7737"/><path d="M20.49 23.67c4.7-8.13 11.8-12.82 15.86-10.47 4.06 2.35 3.55 10.84-1.14 18.97C30.5 40.3 23.4 45 19.35 42.65c-4.07-2.35-3.56-10.85 1.14-18.98Z" fill="#65B942"/><path fill-rule="evenodd" d="M28 39a11 11 0 1 0 0-22 11 11 0 0 0 0 22Zm0 1a12 12 0 1 0 0-24 12 12 0 0 0 0 24Z" fill="#fff"/><path d="M23.08 23.76A2.94 2.94 0 0 1 25 23h8v2h-8a.94.94 0 0 0-.58.24c-.18.16-.42.5-.42 1.26s.24 1.1.42 1.26c.2.18.46.24.58.24h6c.5 0 1.21.14 1.83.59A2.85 2.85 0 0 1 34 31c0 1.13-.5 1.93-1.17 2.41-.62.45-1.34.59-1.83.59h-8v-2h8c.17 0 .46-.06.67-.21.15-.12.33-.32.33-.79 0-.47-.18-.67-.33-.79-.21-.15-.5-.21-.67-.21h-6c-.55 0-1.3-.2-1.92-.76A3.54 3.54 0 0 1 22 26.5c0-1.24.42-2.15 1.08-2.74Z" fill="#fff"/></svg>