<!-- by TradingView --><svg width="56" height="56" fill="none" xmlns="http://www.w3.org/2000/svg"><path fill="#F0F3FA" d="M0 0h56v56H0z"/><path fill-rule="evenodd" clip-rule="evenodd" d="M14 34v-9h-3v-4h20.955c-.954.519-3.022 2.194-3.658 4H26v9h-4V22.012c-.45.662-2.607 2.178-5.092 2.988H18v9h-4Zm23.249-4.713a2.5 2.5 0 1 1-.059-3.63c.712-1.393.788-3.085.692-4.21A6.494 6.494 0 0 0 35.507 21 6.503 6.503 0 0 0 29 27.5c0 3.59 2.913 6.5 6.507 6.5A6.488 6.488 0 0 0 40 32.201l-2.751-2.914Z" fill="#003768"/><path d="M32.213 10c9.034 6.566 7.618 14.435 5.78 17.549.594.137 2.165-.041 3.697-1.855 1.916-2.266 3.058-5.357 5.31-5.872-.726-1.1-2.453-.641-3.226-.275-3.146-6.813-9.018-9.204-11.56-9.547Z" fill="#007634"/><path fill-rule="evenodd" clip-rule="evenodd" d="M14.349 40.187h1.293c.017.16.135.593.472.593.471 0 .772-.48.08-.796-.092-.042-.186-.081-.28-.12-.611-.252-1.214-.5-1.214-1.622.047-.414.395-1.242 1.414-1.242 1.273 0 1.584.916 1.584 1.65h-.993c-.043-.157-.206-.469-.511-.469-.243 0-.31.163-.31.285 0 .123.1.285.701.52.602.234 1.334.784 1.334 1.619S17.337 42 16.194 42c-1.143 0-1.845-.754-1.845-1.813ZM18 37v3.284c0 .948.895 1.716 2 1.716s2-.768 2-1.716V37h-1.421v2.962c0 .27-.255.487-.569.487-.314 0-.568-.218-.568-.487V37H18Zm6.95 5a2.5 2.5 0 0 0 2.495-2.658V39h-2.84v1h1.23v.328a1.211 1.211 0 1 1 .028-1.624h1.457A2.501 2.501 0 1 0 24.95 42Zm4.459-5-1.878 5h1.498l.322-1h1.396l.35 1h1.434l-1.857-5H29.41Zm.988 3h-.723l.346-1.075.377 1.075ZM33 42v-5h2.148a1.537 1.537 0 0 1 .593 2.956L36.908 42H35.52l-1.114-1.927h-.013V42H33Zm1.334-3.815v.899h.557c.296 0 .536-.202.536-.45s-.24-.45-.536-.45h-.557Z" fill="#007634"/></svg>