<!-- by TradingView --><svg width="56" height="56" viewBox="0 0 56 56" xmlns="http://www.w3.org/2000/svg"><path fill="#F0F3FA" d="M0 0h56v56H0z"/><path d="M32.1 25.66c.15.64.17 1.27.04 1.9-.34.84-.9 1.48-1.68 1.94-.13.07-.17.18-.12.32.5 1.39.74 2.82.72 4.3 0 .54.41 1.44 1.25 2.69.1.15.2.14.25-.03l.8-2.36a.72.72 0 0 0 .02-.43 6.29 6.29 0 0 1 .42-4.39.5.5 0 0 0 .01-.42l-.32-.76c-.88-2.63-.64-4.97.72-7.02l1.51-2.31c.6-1.48.75-4.92-1.15-5.72-10.02-4.18-20.32 1.57-22.36 12-.1.54-.09.93.04 1.18a12.5 12.5 0 0 0 9.6 7.07.94.94 0 0 0 .92-.4.92.92 0 0 0 .02-1c-.35-.54-.24-1.15.3-1.85a.2.2 0 0 0-.07-.3 1 1 0 0 0-.63-.07.31.31 0 0 1-.27-.08.3.3 0 0 1-.08-.26c.16-.9.69-1.56 1.57-1.96.16-.07.2-.18.1-.33l-.26-.45a.14.14 0 0 1-.01-.05c-.29-1.1.04-2.08.97-2.9.12-.12.25-.12.4-.02l.44.29a.5.5 0 0 0 .4.09c.6-.12 1.2-.62 1.84-1.49.38-.53.52-.48.42.16-.01.1.02.34.1.74.18.94.68 1.19 1.5.76.11-.07.49-.23 1.11-.5.08-.03.11 0 .1.08l-.32 1.6a.36.36 0 0 0 .29.42c.06 0 .12 0 .18-.02.34-.12.63-.3.87-.52a.2.2 0 0 1 .2-.05.22.22 0 0 1 .16.15Z" fill="url(#a)"/><path fill-rule="evenodd" d="M37 14.85c2.3 1.76 3.54 4.8 1.53 7.42l-.92 1.18c-1.3 1.63-2.31 2.9-2.93 4.72-.06.18-.12.18-.18 0a7.57 7.57 0 0 1 0-5.28c.2-.5.6-1 .99-1.48.25-.3.5-.61.68-.91a6.22 6.22 0 0 0 .67-5.54c-.07-.2-.02-.24.16-.1Zm4.42 4.46-.01-.02h-.02l-.01-.01-.02.01h.01l.07.08c.97 2.96-.94 4.85-3.1 6.54a33.42 33.42 0 0 0-2.28 1.87 7.84 7.84 0 0 0-2.04 5.03c-.02.33.07.36.25.08 1.53-2.33 3.48-3.37 6.4-4.94l.27-.14c3.37-1.8 2.3-5.96.5-8.44l-.02-.06ZM26.97 24.5c-.44.58-.89 1-1.33 1.28-.16.1-.3.08-.41-.06l-.33-.4c-.16-.2-.27-.18-.33.06-.2.74-.13 1.35.18 1.81a.53.53 0 0 0 .63.2c1.5-.55 2.56.29 3.58 1.27.12.11.26.15.41.11 1.01-.2 1.64-.83 1.9-1.89.05-.24-.03-.3-.25-.17l-.66.38a.5.5 0 0 1-.7-.2.49.49 0 0 1-.05-.26c.03-.46.13-.88.3-1.27.07-.16.02-.2-.14-.1l-1.36.78a.81.81 0 0 1-1.1-.3.8.8 0 0 1-.11-.4v-.77c0-.24-.08-.26-.23-.07ZM23.8 36.26c.1-.28.17-.27.18.02.02.32-.06.65-.23 1.01-.07.15-.1.3-.1.45a6.72 6.72 0 0 0 2.8 5.71c.56.42 1.15.6 1.78.54.98-.1 1.63-.15 1.95-.2.16 0 .24-.1.26-.25.2-1.8.85-3.4 1.96-4.82.1-.12.09-.24-.02-.35-2.01-2.1-2.19-3.56-2.46-5.75-.04-.33-.08-.68-.14-1.05-.33-2.34-2.83-5.23-5.28-3.12a.8.8 0 0 1-.4.19c-.33.05-.53.17-.62.34-.13.24-.06.32.2.25.68-.2 1.2.1 1.54.9.37.83-.4 1.92-1.02 2.8l-.17.24c-2.33 3.35-4 8.58 1.05 10.55.4.16.45.08.15-.22-2-2.07-2.48-4.49-1.43-7.24Zm2.48-8.1a.16.16 0 0 0-.1-.02.84.84 0 0 0-.38.11c-.18.13-.16.23.05.28.15.04.28.04.39 0a.21.21 0 0 0 .11-.1c.03-.06.03-.13 0-.2a.16.16 0 0 0-.07-.08Zm12.19 3.53-.48.14c-2.79.88-4.63 2.62-4.88 5.64-.02.28.06.32.25.12 1.83-1.82 4.19-2.62 6.73-3.23 3-.71 3.86-3.07 3.91-5.86 0-.25-.05-.27-.16-.03-.91 1.83-3.36 2.6-5.37 3.22Zm-26.1-2.93c2.07 3.17 5.16 5.12 9.25 5.85.05 0 .08.04.07.1l-.25 1.2c-.01.12-.08.16-.2.15-4.26-.68-8.03-3.1-9.21-7.4-.07-.24-.01-.28.17-.12.03.02.08.1.16.22Zm12.3 2.8c.3-.83.39-1.29.24-1.37-.15-.08-.5.22-1.07.9-.3.38-.29.67.06.86.34.2.6.07.77-.39Zm-11.91.3c1.86 2.83 4.63 4.56 8.3 5.2.04 0 .06.03.05.08l-.21 1.09c-.02.1-.08.13-.18.12-3.82-.59-7.2-2.73-8.26-6.58-.06-.21-.01-.25.15-.1.03.01.07.08.15.19Zm8.3 8.46-.25-1.12a.11.11 0 0 0-.03-.05 11.48 11.48 0 0 1-6.74-3.5c-.03-.04-.07-.04-.1-.01h-.01c-.03.03-.04.06-.01.1a11.4 11.4 0 0 0 7.04 4.74.13.13 0 0 0 .1-.1v-.06Zm20.16-4.18.54-.42c.23-.14.27-.1.12.16a16.21 16.21 0 0 1-10.71 7.76.2.2 0 0 1-.13-.24 7.84 7.84 0 0 1 3.35-4.5c.99-.63 2.27-1.01 3.51-1.39 1.3-.39 2.53-.76 3.32-1.37Zm-20.08 5.23c-1.3-.32-2.6-.88-3.88-1.7-.04-.02-.07-.01-.1.03-.04.03-.04.07 0 .1a19.38 19.38 0 0 0 4.85 3.02l.03-.01v-.06l-.72-1.25a.27.27 0 0 0-.18-.13Z" fill="url(#b)"/><defs><linearGradient id="a" x1="24.13" y1="12" x2="31.57" y2="33.22" gradientUnits="userSpaceOnUse"><stop stop-color="#FCCC13"/><stop offset="1" stop-color="#F48A35"/></linearGradient><linearGradient id="b" x1="40.62" y1="24.78" x2="17.44" y2="42.22" gradientUnits="userSpaceOnUse"><stop stop-color="#007EC6"/><stop offset="1" stop-color="#0080C7"/></linearGradient></defs></svg>