<!-- by TradingView --><svg width="56" height="56" viewBox="0 0 56 56" xmlns="http://www.w3.org/2000/svg"><path fill="#F0F3FA" d="M0 0h56v56H0z"/><path fill-rule="evenodd" d="M21 22v-3h-4c-3 0-9 1.7-9 8.53C8 36.05 16 37 17 37h9V22h4c.76-.06 1.8.03 2.81.45A8.65 8.65 0 0 0 31 28c0 2.35.71 4.15 1.77 5.5-1 .4-2.02.5-2.77.5h-2v3h3c1.16 0 2.82-.34 4.33-1.32A9.9 9.9 0 0 0 40 37h6v-3h-6a7 7 0 0 1-2.48-.47A9.76 9.76 0 0 0 39 28a9 9 0 0 0-1.62-5.47A7 7 0 0 1 40 22h6v-3h-6c-1.31 0-3.2.42-4.9 1.45A10.16 10.16 0 0 0 30 19h-7v15h-6c-2 0-6-1.55-6-6.47 0-3.8 4-5.53 6-5.53h4Zm14.07 2.31A6.1 6.1 0 0 0 34 28c0 1.6.42 2.8 1.06 3.67.57-.87.94-2.06.94-3.67 0-1.6-.37-2.8-.93-3.69Z" fill="#C61D23"/></svg>