<!-- by TradingView --><svg width="56" height="56" viewBox="0 0 56 56" xmlns="http://www.w3.org/2000/svg"><path fill="#F0F3FA" d="M0 0h56v56H0z"/><path d="m11.34 35.34-.13-2.12c-.01-.15.06-.22.2-.22h.55c.14 0 .26.05.35.17 1.2 1.51 2.8 2.02 4.8 1.52 1.53-.38 2.32-1.3 2.37-2.75a2.1 2.1 0 0 0-.63-1.52 3.8 3.8 0 0 0-1.4-.94c-1.2-.47-2.37-.96-3.5-1.47-2.1-.95-3.09-2.46-2.93-4.55.15-2.15 1.33-3.53 3.53-4.13 1.72-.47 3.7-.44 5.93.09.2.05.3.18.33.4l.2 1.8c0 .12-.03.19-.12.2a2.7 2.7 0 0 1-.89.04.42.42 0 0 1-.27-.17 3.04 3.04 0 0 0-1.55-1.2 4.6 4.6 0 0 0-2.86 0c-1 .35-1.6 1.02-1.78 2.03-.24 1.28.3 2.26 1.61 2.92.27.13.79.34 1.55.62 1.26.47 2.19.87 2.78 1.2 1.02.56 1.7 1.2 2.06 1.91.54 1.1.6 2.28.19 3.53-.52 1.52-1.68 2.52-3.5 2.99-1.17.3-2.8.38-4.88.25a5.08 5.08 0 0 1-1.93-.47c-.05-.03-.08-.07-.08-.13Z" fill="url(#a)"/><path d="M43 19.08v.77c-.11.2-.28.35-.5.46a.5.5 0 0 0-.24.26c-.12.3-.26.96-.26 1.43v11.66c0 .28.12.54.26.78.06.1.15.2.26.25.2.1.37.26.48.46v.66a.45.45 0 0 1-.07.1.24.24 0 0 1-.2.09h-4.26a.45.45 0 0 1-.36-.16.41.41 0 0 1-.1-.37c.08-.4.29-.65.63-.75a.35.35 0 0 0 .25-.25c.14-.43.1-.89.11-1.36V21.45c0-.69-.14-1.12-.6-1.3a.43.43 0 0 1-.27-.25c-.1-.25-.12-.49-.06-.7.04-.14.13-.2.27-.2l4.66.08Z" fill="url(#b)"/><path d="M32.84 17.76c-2.47.4-4.97.14-7.52-.76h-.2a.92.92 0 0 0-.31.18c-.1.11-.1.2.05.26 2.8 1.21 5.7 1.59 8.65 1.12.25-.04.3-.16.14-.36l-.1-.12c-.2-.26-.44-.36-.71-.32Zm.43 18.2a6.73 6.73 0 0 0 2.8-.77.41.41 0 0 0 .23-.4v-.57c0-.18-.08-.23-.24-.15-1.1.58-2.5.78-4.18.6a6.37 6.37 0 0 1-4.83-2.69C26.02 30.51 26 28.9 26 26.58c.16-2.38.97-3.9 2.96-4.57 1.7-.58 3.68-.46 5.9.37.5.18.8.02.9-.5l.54-2.68a.15.15 0 0 0-.06-.16.17.17 0 0 0-.19-.02 7.06 7.06 0 0 1-3.48.83c-2 .08-3.43.24-4.32.5a7.2 7.2 0 0 0-3.69 2.55A7.36 7.36 0 0 0 23 27.7c.05 3.65 1.59 6.19 4.63 7.62 1.2.58 3.08.79 5.64.63Z" fill="url(#c)"/><defs><linearGradient id="a" x1="9.74" y1="26.69" x2="22" y2="26.69" gradientUnits="userSpaceOnUse"><stop stop-color="#F28800"/><stop offset="1" stop-color="#E74112"/></linearGradient><linearGradient id="b" x1="38" y1="26.19" x2="43" y2="26.19" gradientUnits="userSpaceOnUse"><stop stop-color="#EC6206"/><stop offset="1" stop-color="#E63E12"/></linearGradient><linearGradient id="c" x1="22.43" y1="26.5" x2="35.62" y2="26.5" gradientUnits="userSpaceOnUse"><stop stop-color="#F07402"/><stop offset="1" stop-color="#E63B11"/></linearGradient></defs></svg>