<!-- by TradingView --><svg width="56" height="56" viewBox="0 0 56 56" xmlns="http://www.w3.org/2000/svg"><path fill="#F0F3FA" d="M0 0h56v56H0z"/><path d="M17.62 25.13c-.01.05.01.08.06.08l2.72-.05c.1 0 .13.05.1.14l-.18.58c-.02.07-.07.11-.15.11l-3.52.01c-.08 0-.12 0-.1-.08.05-.52.2-1.13.44-1.83a11.1 11.1 0 0 1 3.42-4.79 11.2 11.2 0 0 1 4.58-2.4 12.1 12.1 0 0 1 5.18-.2c.39.06.78.17 1.19.31l.53.18c.47.14.8.26 1 .36a11.57 11.57 0 0 1 5.53 5.33c.05.09.12.11.21.07l3.95-1.62c.05-.02.07-.06.05-.12a1.98 1.98 0 0 0-.19-.48 17.35 17.35 0 0 0-4.1-5.08 16.62 16.62 0 0 0-11.6-3.74A15.48 15.48 0 0 0 22 13.05a16.13 16.13 0 0 0-10.08 16.52c.01.14.05.3.13.5.02.06.07.09.14.09l8.07-.13c.1 0 .16.05.17.16l.08.56c0 .08-.03.11-.1.11l-8.88.14c-.12 0-.19-.06-.21-.17-.5-2.38-.42-4.77.22-7.18.63-2.37 1.73-4.5 3.3-6.38a16.9 16.9 0 0 1 8.73-5.65c2.41-.66 4.82-.8 7.23-.4 2.5.4 4.72 1.3 6.68 2.74l1.05.77a14 14 0 0 1 2.99 3 20.1 20.1 0 0 1 2.2 3.75c.06.13.03.21-.1.27l-5.37 2.21c-.15.06-.25.02-.31-.13a10.93 10.93 0 0 0-19.95.03c-.2.46-.32.88-.37 1.27Z" fill="#222547"/><path d="M28.31 15.31c.13.12.25.09.34-.1l.22-.43a.14.14 0 0 1 .12-.07c.1 0 .19.01.28.06.05.02.08.06.08.11.02.3-.04.53-.17.7a.82.82 0 0 1-.7.32c-.31 0-.54-.1-.7-.31-.19-.26-.23-.94-.12-2.03a5 5 0 0 1 0-.05c.03-.3.2-.49.53-.6a1 1 0 0 1 .78.05c.29.14.43.43.42.88 0 .05-.02.09-.07.12a.44.44 0 0 1-.39.04.14.14 0 0 1-.1-.1l-.1-.36c-.05-.08-.09-.13-.14-.14-.08-.02-.15 0-.2.08a.15.15 0 0 0-.04.09l-.11 1.54c0 .08.02.15.07.2ZM30.9 15.1a.7.7 0 0 0-.06.45c0 .05.04.09.08.1.18.1.36.13.52.13.1 0 .14.05.12.15l-.06.3c-.02.1-.08.13-.18.1-.07 0-.2-.04-.36-.08l-.64-.14c-.24-.04-.32-.2-.26-.49l.55-2.37c.01-.08.06-.11.14-.1l1.14.25c.06.01.1.04.12.1.06.12.06.22 0 .32a.12.12 0 0 1-.12.06h-.01c-.53-.05-.8.06-.81.33 0 .14.06.23.2.26l.3.07c.1.02.14.08.13.18l-.02.2c-.01.12-.08.17-.2.16l-.46-.05c-.06 0-.1.01-.13.07ZM23.59 13.53c-.07.02-.1.06-.08.12l.64 2.66c.01.06.05.08.12.07l.86-.22c.2-.05.35-.16.45-.35a.8.8 0 0 0 .08-.6l-.3-1.3a.8.8 0 0 0-.35-.5.67.67 0 0 0-.56-.1l-.86.22Zm.83.32h.02c.1-.04.22.04.25.15l.34 1.43a.22.22 0 0 1-.16.27h-.01a.21.21 0 0 1-.26-.16l-.34-1.43a.22.22 0 0 1 .16-.26ZM34.08 15.37c.26-.24.46-.48.59-.72.05-.1.12-.12.2-.07l.66.31c.08.04.1.1.06.19l-1.1 2.35c-.05.13-.14.16-.26.1l-.2-.1c-.1-.05-.13-.12-.08-.22l.74-1.6a.07.07 0 0 0 0-.07c-.03-.02-.05-.03-.08-.02a.56.56 0 0 0-.31.24l-.84 1.26a.12.12 0 0 1-.12.06.2.2 0 0 1-.17-.09.14.14 0 0 1-.01-.14c0-.01 0-.03.02-.05.29-.74.4-1.26.35-1.57-.01-.06-.04-.07-.09-.03-.1.1-.17.17-.19.23l-.48 1.19c-.05.12-.14.15-.25.1l-.2-.1c-.11-.06-.15-.15-.09-.27l1.06-2.28c.07-.16.19-.2.34-.12l.46.22c.15.08.2.2.12.35-.08.2-.15.47-.18.82 0 .06.01.06.05.03ZM21.79 15.82c-.08-.05-.1-.04-.08.06.1.42.27.8.48 1.12.09.13.06.23-.08.3l-.17.08c-.13.06-.23.02-.3-.11l-1.04-2.3c-.04-.1-.02-.16.07-.2l.45-.19c.1-.04.18-.01.22.1.16.37.45.67.87.9.04.02.06 0 .05-.05-.1-.46-.24-.83-.43-1.1-.08-.1-.06-.19.06-.24l.2-.1c.13-.06.23-.02.3.12l1 2.21c.1.22.04.34-.2.37l-.16.02a.48.48 0 0 1-.52-.26c-.15-.26-.4-.5-.72-.73ZM36.65 16.96c.03.06.11.15.24.26.1.07.12.17.08.29l-.05.12c-.05.11-.12.14-.23.08l-.3-.17a.22.22 0 0 0-.26.01c-.23.17-.27.33-.12.48.1.1.2.2.32.29.1.07.12.16.05.26l-.13.19c-.06.08-.13.1-.2.03L35 18.04c-.02 0-.02-.02 0-.04l1.53-2.19c.09-.12.2-.14.32-.05l.83.61c.1.07.12.16.07.26l-.09.18a.17.17 0 0 1-.11.1c-.06.02-.1 0-.15-.03l-.4-.29a.13.13 0 0 0-.1-.02c-.11.02-.2.1-.26.25a.16.16 0 0 0 0 .14ZM20.14 18.27c-.05-.11-.03-.2.07-.28.1-.07.2-.07.28 0 .25.22.47.18.67-.11.06-.09.05-.17-.03-.24l-1.84-1.72c-.1-.08-.19-.09-.29-.03a2.5 2.5 0 0 0-.45.35.23.23 0 0 0-.05.29l1.13 2.28c.05.09.12.12.22.08.33-.12.42-.32.3-.62Zm-.24-.68c-.07.06-.29-.1-.48-.36-.2-.25-.3-.5-.22-.56.07-.06.28.1.48.35.2.26.3.5.22.57ZM38.57 19.14l-.04.13c-.03.05-.01.07.04.03.36-.22.67-.49.93-.81.09-.11.19-.12.29-.02l.16.15c.1.1.1.19 0 .28l-1.92 1.78c-.04.04-.08.04-.13 0a1.2 1.2 0 0 1-.39-.4.12.12 0 0 1 0-.14l.1-.13a4.3 4.3 0 0 0 .6-1.15c.02-.05 0-.07-.04-.03-.36.22-.67.49-.93.81-.1.11-.19.12-.3.02l-.15-.15c-.1-.1-.1-.19 0-.28l1.92-1.78c.04-.04.08-.04.13 0 .16.1.29.23.39.4.02.04.02.09 0 .14l-.1.12c-.27.39-.45.73-.56 1.03ZM18.44 19.42c.1-.02.22-.1.35-.22.12-.12.25-.13.4-.04 0 0 .01.02.06.04.1.08.11.17.02.27l-.8.89c-.03.03-.05.03-.08 0l-2-1.87c-.07-.07-.07-.14 0-.22l.29-.25c.07-.07.14-.07.2 0l1.46 1.37c.03.02.06.03.1.03ZM17.7 21.46l-.1.14c-.07.1-.16.1-.25.04l-1.7-1.13c-.07-.04-.12-.03-.16.03l-.06.1a.14.14 0 0 1-.11.07c-.19.02-.32-.05-.4-.21-.02-.04-.02-.1 0-.15a15.74 15.74 0 0 1 .65-1.02c.04-.04.09-.06.13-.06.18.01.3.1.35.28.02.05.01.1-.01.13l-.07.1c-.04.06-.03.12.04.16l1.7 1.12c.1.06.12.15.07.25l-.09.15ZM41.03 20.3l.31.52c.02.05.02.1 0 .14-.08.15-.2.22-.39.2a.15.15 0 0 1-.1-.06l-.07-.1c-.03-.06-.08-.07-.15-.04l-1.68 1.11c-.1.06-.18.05-.25-.05a4.25 4.25 0 0 1-.18-.28c-.05-.1-.03-.19.07-.25l1.69-1.1c.06-.03.07-.08.03-.15l-.06-.1a.14.14 0 0 1-.01-.12c.06-.18.18-.27.34-.28.05 0 .1.02.13.06l.32.5Z" fill="#222547"/><path d="M31.59 25h-6.65c-.3-.13-.53-.34-.68-.64a3.18 3.18 0 0 1-.3-1.13c-.01-.06.01-.08.07-.05l.07.03c.03.02.05.04.05.07.05.76.45 1.08 1.2.96.05-.01.1-.04.13-.08l1.22-1.34a.2.2 0 0 0 .05-.12c.02-.18.13-.32.31-.42.16-.08.2-.04.13.13l-.04.04a.22.22 0 0 0-.04.24c.03.09.1.14.2.15.73.07 1.48.08 2.23.01.09 0 .15-.04.2-.1a.23.23 0 0 0 .06-.2.55.55 0 0 0-.1-.17.07.07 0 0 1 0-.07.07.07 0 0 1 .04-.04c.14-.03.24 0 .33.1.04.04.08.14.1.27.02.18.07.3.15.38l.92.88c.1.11.22.18.34.21.07.02.2.03.36.03h.15c.2 0 .34-.1.43-.27a.78.78 0 0 0 .08-.54c-.02-.1-.03-.18 0-.22.02-.08.1-.12.22-.1.1.02.14.08.12.18-.06.28-.15.57-.28.88-.23.53-.59.85-1.07.94Z" fill="#010101"/><path fill-rule="evenodd" d="M15.54 23.19a.14.14 0 0 1-.1-.13c-.02-.12 0-.2.07-.24.06-.04.12-.05.2-.03.27.06.55.17.84.34.09.05.15.02.2-.07l.11-.3c.04-.1.02-.19-.08-.24a2.27 2.27 0 0 0-1.27-.35.13.13 0 0 1-.11-.06 1.19 1.19 0 0 0-.43-.36.8.8 0 0 0-.53-.09c-.17.04-.33.22-.5.56-.13.25-.22.5-.27.73-.02.08 0 .14.08.17l2.3.94c.18.08.3.02.36-.17l.05-.15c.05-.16 0-.26-.16-.31l-.76-.24Zm-1.26-.62c0 .04 0 .07.05.09l.59.21c.04.02.07 0 .08-.04v-.02a.34.34 0 0 0 0-.27.35.35 0 0 0-.21-.18l-.05-.02a.34.34 0 0 0-.27.02.34.34 0 0 0-.18.2v.01Z" fill="#222547"/><path d="M38.47 30.95c.02-.08-.01-.12-.1-.12H35.8c-.03 0-.04-.01-.04-.04l.04-.68c0-.04.03-.11.07-.11h3.6c.05 0 .07.02.06.06a11.8 11.8 0 0 1-2.76 5.79 11.78 11.78 0 0 1-11.98 3.5 8.17 8.17 0 0 1-1.33-.52l-.63-.28a7.3 7.3 0 0 1-1.11-.56c-.79-.53-1.33-.96-1.65-1.29L19 35.56c-.4-.42-.8-1-1.23-1.76-.04-.08-.1-.1-.18-.06l-3.84 1.6c-.1.05-.13.12-.08.22.38.8.85 1.57 1.41 2.28a15.7 15.7 0 0 0 4.44 3.94 21.1 21.1 0 0 0 3.75 1.73c.12.04.68.17 1.68.4a9.3 9.3 0 0 0 1.71.26c1.58.07 2.82.02 3.74-.14 3.92-.67 7.22-2.49 9.88-5.44.56-.6 1.05-1.28 1.49-2.03.54-.93.94-1.67 1.18-2.23a17.08 17.08 0 0 0 1.26-7.92v-.1c0-.3-.16-.45-.46-.45l-7.8.24a.13.13 0 0 1-.15-.1l-.25-.6c-.03-.09 0-.13.08-.13l9-.27c.11 0 .18.05.2.17.12.92.18 1.9.18 2.92 0 1.15-.07 2.11-.22 2.88A17.07 17.07 0 0 1 32.6 44.33a16.78 16.78 0 0 1-15.72-3.44 16.22 16.22 0 0 1-4.34-5.69c-.03-.07-.01-.12.06-.15l5.38-2.25c.1-.04.19-.02.24.09l.07.13c.52 1.01.98 1.71 1.37 2.11.65.66 1.22 1.18 1.7 1.57a10.48 10.48 0 0 0 4.66 2.1 10.92 10.92 0 0 0 9.74-3.06 10.33 10.33 0 0 0 2.7-4.79ZM15.56 26.3a.7.7 0 0 0 .3-.46l.07-.28a.7.7 0 0 0-.1-.55.68.68 0 0 0-.45-.3l-1.45-.31a.67.67 0 0 0-.53.1.7.7 0 0 0-.3.46l-.06.28a.7.7 0 0 0 .1.54c.1.17.26.27.45.32l1.44.3c.2.04.37 0 .53-.1Zm-1.8-1.3 1.47.34c.12.03.2.15.17.27v.01a.22.22 0 0 1-.26.17l-1.47-.33a.23.23 0 0 1-.17-.27v-.01c.03-.12.15-.2.26-.17ZM15.5 28.2l-.9.02c-.07 0-.1-.03-.12-.1l-.07-.56a.3.3 0 0 0-.2-.26c-.3-.12-.58-.16-.86-.12-.37.04-.56.23-.58.57-.03.46-.04.8-.03 1.03 0 .07.04.1.1.1l2.67-.04c.07 0 .1-.04.1-.12v-.4c0-.08-.04-.11-.11-.11Zm-1.52-.2c0 .14-.16.25-.38.26-.2 0-.38-.1-.39-.23 0-.13.16-.25.38-.26.2 0 .39.1.39.23Z" fill="#222547"/><path d="M40.94 32.1c-.04.04-.04.07.02.09l1.72.54c.07.03.1.08.07.16l-.21.6c-.04.1-.1.14-.2.1l-2.58-.96c-.06-.02-.07-.05-.06-.1l.17-.54c.14-.47.26-.8.35-1 .15-.32.34-.58.56-.76l.25-.2c.27-.23.49-.4.66-.53.22-.15.36-.26.43-.33.17-.19.12-.27-.13-.27l-1.39.05c-.1 0-.16-.05-.16-.16l-.01-.64c0-.07.03-.15.1-.15h2.82c.13 0 .18.06.18.18l-.06 1.43a.95.95 0 0 1-.41.73l-.27.2c-.83.62-1.45 1.14-1.85 1.56Z" fill="#1A2354"/><path d="m32.95 31.25.01.74c0 .03-.02.05-.05.05l-3.15.05c-.04 0-.05-.02-.05-.05l-.05-3.4c0-.03.01-.05.05-.05l2.8-.04c.04 0 .06.01.06.05l.04 2.43c0 .03 0 .04.03.05l.28.12c.02 0 .03.02.03.05ZM26.59 28.75l.04 3.3c0 .08-.03.11-.1.12l-2.98.04c-.07 0-.11-.03-.11-.11l-.01-.48c0-.05.02-.09.08-.1.13-.05.2-.2.2-.43v-2.34h2.88Z" fill="#010101"/><path d="M32.96 30.26c0-.1.05-.16.15-.16l1.12-.04c.08 0 .16.03.22.1s.1.15.1.25v.04c0 .1-.02.19-.08.26a.28.28 0 0 1-.22.11l-1.11.04c-.1 0-.16-.05-.16-.15l-.02-.45Z" fill="#222547"/><path d="m29.23 30.2-2.14.02a.08.08 0 0 0-.07.08v.58c0 .05.04.08.08.08l2.13-.01c.05 0 .08-.04.08-.08v-.58a.08.08 0 0 0-.08-.08Z" fill="#1A2354"/><path d="m23.2 31.16-1.26.01c-.06 0-.1-.02-.12-.09l-.13-.54c-.01-.04 0-.06.05-.07l1.45-.02c.08 0 .12.04.12.13v.45c0 .08-.03.12-.11.13ZM34.07 31.23c.02 0 .03.01.03.04l-.01.03c-.04.2-.1.35-.2.47-.09.12-.18.17-.27.15-.1-.01-.16-.1-.2-.25a1.11 1.11 0 0 1 0-.5v-.04c0-.02.02-.03.04-.03l.6.13Z" fill="#222547"/><path d="m29.25 31.27-2.1.02a.1.1 0 0 0-.1.1l.01.52c0 .05.05.1.1.1l2.1-.03a.1.1 0 0 0 .1-.1l-.01-.51a.1.1 0 0 0-.1-.1Z" fill="#1A2354"/><path d="M22.18 31.75c-.04-.05-.04-.1.01-.14l.01-.01c.11-.09.23-.13.36-.13.12 0 .22.04.29.13v.01c.08.09.1.2.07.32a.57.57 0 0 1-.2.32l-.02.01c-.05.04-.1.04-.14-.01l-.38-.5Z" fill="#222547"/><path d="m33.46 32.35-.5.55a.08.08 0 0 1-.05.02l-9.45.29c-.02 0-.04 0-.05-.02l-.54-.51a.07.07 0 0 1-.02-.09c0-.03.03-.05.07-.05l10.48-.32c.03 0 .06.02.07.05.01.03.01.06-.01.08ZM28.26 34.96a6.95 6.95 0 0 1-4.12-1.17c-.17-.11-.16-.18.04-.2.63-.06 1.6-.1 2.93-.14a133.35 133.35 0 0 0 2.19-.08c1.32-.06 2.3-.08 2.93-.06.2 0 .22.07.06.18a6.95 6.95 0 0 1-4.03 1.47ZM17.4 38.17l.1-.04a.21.21 0 0 0 .13-.16.22.22 0 0 0-.05-.2 9.78 9.78 0 0 1-1.26-1.61c-.08-.16-.13-.3-.14-.45 0-.05.02-.1.05-.14.18-.25.42-.45.7-.58.37-.18.65-.14.84.12a14.91 14.91 0 0 0 2.55 2.77c.09.07.1.16.04.25l-.17.23c-.06.09-.13.1-.21.04l-.16-.12c-.3-.21-.53-.4-.68-.54l-1.1-1.05a.13.13 0 0 0-.13-.03.24.24 0 0 0-.16.13.15.15 0 0 0 0 .14c.28.5.74 1.03 1.4 1.58.16.14.25.25.29.33.05.16.02.34-.1.57-.1.18-.23.33-.37.44-.28.21-.54.28-.78.19a2.52 2.52 0 0 1-.73-.56 16.12 16.12 0 0 1-2.18-2.5 4.8 4.8 0 0 1-.4-.66c-.05-.12-.02-.2.1-.26l.31-.13c.12-.05.2-.01.26.1.38.73.94 1.43 1.67 2.11.05.05.11.06.18.03Z" fill="#1A2354"/><path fill-rule="evenodd" d="M39.13 34.16c.1.04.2.12.26.23.03.05.02.07-.04.08-.41.04-.71.18-.9.42-.69.89-1.25 1.56-1.69 2.03-.25.26-.39.47-.42.63-.05.2 0 .42.16.64.09.14.25.32.49.55l.26.27c.23.26.43.4.6.44.3.05.57-.03.79-.23a17.9 17.9 0 0 0 1.95-2.15c.14-.18.32-.52.54-1 .14-.32.07-.57-.22-.76-.27-.17-.63-.37-1.1-.62-.12-.05-.15-.14-.1-.25.1-.2.17-.36.22-.5.07-.17.08-.28.02-.33a.98.98 0 0 0-.36-.2c-.15-.05-.26 0-.35.13l-.2.31c-.09.14-.06.24.09.3Zm.06 3.44.28-.32a.28.28 0 0 0 .07-.22.28.28 0 0 0-.11-.21l-.85-.63a.27.27 0 0 0-.22-.05.28.28 0 0 0-.18.12l-.17.24c-.1.14-.09.27.04.39l.73.7c.06.05.13.07.2.07.09 0 .15-.03.2-.1Z" fill="#1A2354"/><path d="m33.06 40.4.03.03c.08.1.18.12.3.08.32-.1.99-.41 2-.92.36-.19.69.08.98.8.14.35.06.62-.24.8a12.53 12.53 0 0 1-2.51 1.2c-.8.31-1.44.5-1.94.59-.06 0-.1-.02-.1-.08l-.12-.45c-.02-.08 0-.12.08-.14.85-.2 1.7-.47 2.56-.84.14-.06.2-.17.2-.34v-.01c-.07-.2-.2-.26-.35-.2-.84.36-1.63.59-2.37.67-.14.02-.23-.04-.27-.18l-.24-.97c-.05-.19.01-.32.2-.4.4-.18.87-.35 1.39-.5.42-.14 1.14-.5 2.15-1.08.15-.09.27-.07.38.06l.16.18c.13.15.11.26-.06.35l-2.18 1.08c-.14.06-.15.15-.05.27Z" fill="#1A2354"/><path fill-rule="evenodd" d="M21.96 41.6c.1.05.15.13.15.24v.4c0 .07.04.12.1.15l2.03.75c.04.01.09 0 .12-.03a.12.12 0 0 0 .05-.11l-.38-2.98c-.02-.14-.1-.23-.24-.26l-.18-.04a1.41 1.41 0 0 1-.36-.08l-1.12-.55a.37.37 0 0 0-.38.02l-2.48 1.46c-.16.1-.16.2 0 .3l.28.18c.16.1.31.1.47 0l.3-.17a.13.13 0 0 1 .14 0l1.5.73Zm-.7-1.17c-.02.04 0 .06.03.08l.57.23c.04.01.06 0 .08-.04v-.01a.68.68 0 0 0 .05-.4c-.03-.13-.1-.22-.19-.25-.1-.04-.2-.03-.3.05a.67.67 0 0 0-.24.32v.02Z" fill="#1A2354"/><path d="m26.16 40.34 1.5.17c.1.01.15.07.15.17l.04 2.74c0 .13-.06.19-.18.17l-2.1-.23c-.12-.01-.17-.08-.15-.2l.56-2.68c.02-.1.08-.15.18-.14Z" fill="#1A2354"/><path d="M25.72 25.21h1.15v1.2l2.79-.04V25.2h1.15v1.1l.03.01 1.8.94c.1.06.21.09.33.1h.18c.49.04.83.02 1.03-.05.36-.12.5-.4.4-.84-.02-.08.01-.13.1-.13.1 0 .18.02.25.07.04.04.05.11.02.22-.26 1.06-1 1.63-2.25 1.71-.05 0-.1.02-.13.05-.1.08-.23.11-.4.1l-5.33-.04-3.58.04c-.73-.1-1.23-.6-1.52-1.49a.21.21 0 0 1 .03-.2.2.2 0 0 1 .17-.08.3.3 0 0 1 .2.06c.04.03.05.07.02.12-.1.22-.09.38.04.49.48.38 1 .47 1.57.29.09-.03.24-.12.47-.26.09-.06.22-.12.4-.2.27-.1.47-.22.59-.35.07-.08.19-.16.35-.24a3.64 3.64 0 0 0 .14-.07v-1.35Z" fill="#010101"/></svg>