<!-- by TradingView --><svg width="56" height="56" viewBox="0 0 56 56" xmlns="http://www.w3.org/2000/svg"><path fill="#F0F3FA" d="M0 0h56v56H0z"/><path d="M32 22H12v4h3v9h4v-9h-2.02c2.23-.17 3.8-1.64 5.02-3.38V35h4v-9h2.6c.4-1.5 1.9-3.15 3.4-4Z" fill="#003768"/><path d="M48 20.32a3.03 3.03 0 0 0-3.31.07A18.78 18.78 0 0 0 33 11c1.59.82 3 1.91 4.14 3.23A18.02 18.02 0 0 1 43.4 24.9c.62-.85 1.28-1.8 2.07-2.67a9.15 9.15 0 0 1 2.52-1.9Z" fill="#00ADEE"/><path d="M37.14 14.26a12.75 12.75 0 0 1 3.1 8.3c0 1.95-.45 3.8-1.24 5.44.83 0 1.52-.23 2.1-.63a16.25 16.25 0 0 0-3.97-13.11Z" fill="#00ADEE"/><path d="M37.14 14.26a16.6 16.6 0 0 1 4.27 12.95 9.4 9.4 0 0 0 1.8-1.98 17.78 17.78 0 0 0-6.07-10.97ZM18 42v-4h1v3h1.54v1H18ZM24.12 42l-.2-.57h-1.5l-.23.57H21l1.73-4h.85l1.7 4h-1.16Zm-.92-2.76-.44 1.36h.89l-.45-1.36ZM28.95 42 27 39.56V42h-1v-4h1.05L29 40.5V38h1v4h-1.05ZM32.5 42H31v-4h1.56c1.21 0 2.17.7 2.17 2-.03 1.33-.78 2-2.24 2Zm.06-3H32v2h.56c.68 0 1.05-.34 1.05-1 0-.63-.4-1-1.05-1Z" fill="#00ADEE"/><path d="M37.21 30.3a2.5 2.5 0 0 1-1.7.7 2.52 2.52 0 0 1-2.5-2.54c0-1.39 1.11-2.46 2.5-2.46.72 0 1.37.25 1.82.74.54-1.35.68-2.79.68-4.23a6.47 6.47 0 0 0-9 5.99c-.01 3.6 2.88 6.5 6.44 6.5A6.3 6.3 0 0 0 40 33.08l-2.61-2.63-.18-.14Z" fill="#003768"/></svg>