<!-- by TradingView --><svg width="56" height="56" fill="none" xmlns="http://www.w3.org/2000/svg"><path fill="#F0F3FA" d="M0 0h56v56H0z"/><path fill-rule="evenodd" clip-rule="evenodd" d="M23.07 21.958c-8.392 1.684-14.475 5.25-14.049 8.488.21 1.591 1.956 2.839 4.691 3.623l.823-1.065c-2.054-.675-3.347-1.67-3.516-2.908-.357-2.61 4.401-5.467 11.17-6.999l.881-1.14Zm16.213.98.256-1.203c3.163.762 5.212 2.087 5.44 3.82.308 2.338-2.78 4.848-7.681 6.696l.246-1.155c3.539-1.513 5.68-3.41 5.437-5.192-.174-1.274-1.539-2.29-3.698-2.967Z" fill="#134E92"/><path d="m28.072 31.62 1.758 2.22-1.352 3 6.108-4.235-6.514-.984Z" fill="#134E92"/><path fill-rule="evenodd" clip-rule="evenodd" d="M13.706 34.067 9.35 40h26.22l1.817-7.782c-.659.25-1.352.49-2.074.714l-7.952 5.513 1.844-4.089c-.442.072-.89.14-1.34.2-2.908.396-5.686.518-8.175.402L17.972 38h-1.76l1.873-3.153c-1.635-.153-3.113-.417-4.379-.78Zm.786-1.07c1.132.47 2.5.842 4.044 1.09L30.466 14h-2.024l-13.95 18.997Zm5.576 1.29c2.319.232 4.943.2 7.7-.176a32.95 32.95 0 0 0 1.426-.227l-2.427-3.066 8.582 1.297a25.606 25.606 0 0 0 2.311-1.07l2.012-8.615-.017-.004.143-.627.02.005L41.64 14H31.522L20.069 34.286Z" fill="#EC9D27"/></svg>