<!-- by TradingView --><svg width="56" height="56" viewBox="0 0 56 56" xmlns="http://www.w3.org/2000/svg"><path fill="#F0F3FA" d="M0 0h56v56H0z"/><path fill-rule="evenodd" d="M45.56 32.56c.96-1.47 1.44-3 1.44-4.6 0-1.58-.49-3.11-1.45-4.58a13.29 13.29 0 0 0-4.13-3.89 21.77 21.77 0 0 0-6.17-2.59 28.6 28.6 0 0 0-7.27-.9c-2.52 0-4.94.31-7.27.93a21.82 21.82 0 0 0-6.16 2.6 13.33 13.33 0 0 0-4.11 3.9A8.26 8.26 0 0 0 9 28.04c0 1.6.49 3.12 1.45 4.6a13.29 13.29 0 0 0 4.13 3.88 21.77 21.77 0 0 0 6.17 2.59c2.33.6 4.75.9 7.27.9 2.52 0 4.94-.31 7.27-.93a21.82 21.82 0 0 0 6.16-2.6 13.33 13.33 0 0 0 4.11-3.9Zm-.45-.16a7.84 7.84 0 0 0 1.4-4.4c0-1.53-.46-3-1.4-4.41a12.88 12.88 0 0 0-4.02-3.74 21.43 21.43 0 0 0-6-2.5 28.29 28.29 0 0 0-7.1-.87c-2.45 0-4.81.29-7.08.87a21.43 21.43 0 0 0-6 2.5 12.88 12.88 0 0 0-4.02 3.74 7.84 7.84 0 0 0-1.41 4.4c0 1.53.47 3 1.4 4.41a12.88 12.88 0 0 0 4.02 3.74 21.43 21.43 0 0 0 6.01 2.5c2.27.58 4.63.87 7.09.87 2.45 0 4.82-.3 7.09-.88a21.43 21.43 0 0 0 6-2.5 12.88 12.88 0 0 0 4.02-3.73Z" fill="#098F1E"/><path fill-rule="evenodd" d="M44.94 32.33a7.68 7.68 0 0 0 1.4-4.33c0-1.5-.47-2.95-1.4-4.34a12.72 12.72 0 0 0-3.97-3.68A21.31 21.31 0 0 0 35 17.53a28.2 28.2 0 0 0-7.02-.87c-2.43 0-4.77.3-7.02.87-2.24.57-4.23 1.4-5.95 2.45a12.72 12.72 0 0 0-3.97 3.68A7.68 7.68 0 0 0 9.65 28c0 1.5.47 2.94 1.4 4.33a12.72 12.72 0 0 0 3.97 3.68 21.32 21.32 0 0 0 5.95 2.46c2.25.57 4.6.86 7.02.86 2.44 0 4.78-.29 7.02-.86 2.25-.58 4.24-1.4 5.96-2.46a12.72 12.72 0 0 0 3.97-3.68Zm-.15-.1a7.53 7.53 0 0 0 1.38-4.27c0-1.48-.47-2.9-1.4-4.27a12.58 12.58 0 0 0-3.94-3.61 21.17 21.17 0 0 0-5.9-2.4 28.04 28.04 0 0 0-6.95-.85c-2.4 0-4.72.3-6.95.87a21.13 21.13 0 0 0-5.89 2.42 12.58 12.58 0 0 0-3.93 3.63 7.54 7.54 0 0 0-1.37 4.28c0 1.48.46 2.9 1.39 4.27a12.59 12.59 0 0 0 3.94 3.61 21.17 21.17 0 0 0 5.9 2.4c2.23.57 4.54.85 6.95.85s4.73-.3 6.95-.87a21.13 21.13 0 0 0 5.9-2.43 12.58 12.58 0 0 0 3.92-3.62Z" fill="#098F1E"/><path fill-rule="evenodd" d="M21.73 29.18V27.5c0-.06-.03-.1-.1-.1h-3.12c-.9.01-1.38-.31-1.46-.98-.04-.4-.06-1.04-.04-1.93.01-.46.09-.8.23-1 .21-.3.54-.47.98-.47.97-.02 2.68-.02 5.12-.01.05 0 .09.03.09.1v1.48c0 .07-.04.1-.11.1h-4.55c-.04 0-.06.03-.06.08v.89c0 .04.01.06.05.06h3.52c.7 0 1.07.38 1.12 1.14.03.55.04 1.43.03 2.66 0 .51-.11.88-.3 1.1-.21.24-.55.35-1 .35-1.89 0-3.55 0-4.98.03-.1 0-.15-.05-.15-.16v-1.41c0-.11.05-.17.16-.17h4.5c.05 0 .07-.03.07-.08Zm13.01.03a168.92 168.92 0 0 0 0-4.42c0-.05.02-.07.06-.07l4-.01c.13 0 .2-.07.2-.2l-.01-1.31c0-.13-.06-.2-.19-.2h-4.55c-.88-.01-1.29.58-1.25 1.78a565.54 565.54 0 0 1 .01 4.44c-.04 1.2.37 1.8 1.25 1.78l4.55-.02c.13 0 .19-.06.19-.2v-1.3c0-.14-.06-.2-.19-.2h-4c-.05 0-.07-.03-.07-.07Zm-3.6-6.2 1.43-.01c.08 0 .14.06.14.14v7.72c0 .08-.05.14-.12.14h-1.45c-.07 0-.13-.06-.13-.14L31 23.14c0-.07.06-.14.13-.14Zm-1.3 3.6c.27.2.44.42.52.66.05.17.07.46.07.9a26.54 26.54 0 0 0 0 .7c.03.7-.01 1.18-.11 1.44-.16.44-.52.66-1.08.68l-5.16.01c-.05 0-.08-.03-.08-.09v-7.8c0-.06.03-.09.08-.09 1.15-.02 2.75-.02 4.78-.02.52 0 .9.08 1.14.24.3.2.44.55.44 1.06l-.04 1.36c-.02.34-.2.6-.56.82-.07.04-.08.09 0 .14Zm-4.03-1.9h2.82c.05 0 .1.04.1.1v.81c0 .06-.05.1-.1.1h-2.82c-.05 0-.09-.04-.09-.1v-.82c0-.05.04-.1.1-.1Zm-.02 2.7h2.87c.03 0 .06.02.06.06v1.75c0 .04-.02.07-.06.07H25.8c-.04 0-.06-.03-.06-.07v-1.74c0-.04.02-.07.06-.07Z" fill="#BE141E"/><path d="M17.09 32.04 38.92 32c.02 0 .04.02.04.05v.1c0 .03-.02.05-.04.05l-21.83.04a.05.05 0 0 1-.05-.05v-.1c0-.03.02-.05.05-.05Zm.04.46 21.74-.04c.07 0 .13.06.13.14v.22c0 .08-.06.14-.13.14L17.13 33c-.07 0-.13-.06-.13-.14v-.22c0-.08.06-.14.13-.14ZM36.92 34H19.08a.08.08 0 0 0-.08.08v.42c0 .05.04.09.08.09h17.84c.04 0 .08-.04.08-.09v-.42a.08.08 0 0 0-.08-.08Zm-14.8 1.66 11.75-.02c.07 0 .13.07.13.15v.13c0 .07-.06.14-.13.14l-11.74.02c-.07 0-.13-.06-.13-.14v-.13c0-.08.06-.14.13-.15Z" fill="#044693"/></svg>