<!-- by TradingView --><svg width="56" height="56" viewBox="0 0 56 56" xmlns="http://www.w3.org/2000/svg"><path fill="#F0F3FA" d="M0 0h56v56H0z"/><path d="M30.41 19.75c-.76.37-1.51.42-2.28.16-.49-.16-.92-.25-1.28-.25-.42 0-.84.1-1.24.3-.05.02-.08 0-.08-.04-.07-.5-.01-.97.18-1.4a2.47 2.47 0 0 1 3.39-1.26c.45.22.8.54 1.05.97.25.42.36.88.35 1.39 0 .06-.03.1-.09.13Zm-.1.44c.07-.02.09 0 .07.06l-.1.27a.17.17 0 0 1-.1.1 2.42 2.42 0 0 1-1.93.13 6.08 6.08 0 0 0-1.17-.27c-.41-.04-.81.04-1.2.23-.03.01-.04 0-.06-.02l-.15-.25c-.01-.03 0-.05.02-.07.4-.24.81-.36 1.21-.35.26.01.67.1 1.23.26l.37.11c.52.15 1.13.08 1.82-.2Zm-.5 1.03c.02-.02.01-.02-.01-.02a3.9 3.9 0 0 1-.91.07 4.02 4.02 0 0 1-.94-.2 3.9 3.9 0 0 0-.96-.23c-.23 0-.52.04-.85.15-.08.03-.09.07-.04.14.5.56 1.1.85 1.83.87.73.01 1.35-.24 1.88-.78Z" fill="#2E3192"/><path d="M24.12 28.23h.86c.06 0 .07.02.05.07l-2.66 4.6c-.03.07-.01.1.06.1h4.72c1.06-.02 2-.73 2.79-2.12.28-.5 1.1-1.88 2.43-4.15.35-.59.47-1.18.39-1.78a2.06 2.06 0 0 0-.99-1.5c-.28-.18-.74-.4-1.4-.45h-2.11c-.1 0-.18.04-.24.13l-1.65 2.78a.06.06 0 0 0 0 .06l.06.03h1.99c.39 0 .82.02 1.2.15.3.1.52.32.67.65.2.47.23.99.08 1.54a2 2 0 0 1-.91 1.26c-.24.14-.58.21-1.03.21h-2.57c-.16 0-.2-.07-.12-.21l.67-1.2c.08-.13.2-.2.35-.2h.68c.37 0 .66-.16.86-.47l.16-.25c.2-.32.1-.48-.27-.48H25.56c-.73 0-1.23.4-1.5 1.13-.03.07-.01.1.06.1Zm-1.75-.81c-.12-.44-.14-.78-.03-1.02.09-.22.4-.4.91-.4h2.32c.09 0 .15 0 .2-.07l1.63-2.8c.04-.09.02-.13-.08-.13h-5.45c-.48 0-.81.04-1 .1-.76.25-1 .9-.7 1.96a11.56 11.56 0 0 0 1.28 2.7c.2.36.3.69.34 1 .1.81-.52 1.24-1.2 1.24h-3.71c-.06 0-.1.03-.13.07L15 32.9c-.04.06-.02.09.05.09H20c.68 0 1.15-.04 1.43-.13.62-.2 1.08-.61 1.39-1.23.27-.58.36-1.21.26-1.9a6.35 6.35 0 0 0-.28-1.2 9.26 9.26 0 0 1-.43-1.1Z" fill="#ED1C24"/><path fill-rule="evenodd" d="m11.3 36.7 14.78-24.6a2.31 2.31 0 0 1 1.97-1.1 2.3 2.3 0 0 1 1.97 1.1L44.7 36.75a2.06 2.06 0 0 1 0 2.17A2.32 2.32 0 0 1 42.72 40l-29.46-.05a2.3 2.3 0 0 1-1.96-1.08 2.07 2.07 0 0 1 0-2.17Zm16.55-1.08c.02-.02 0-.04-.02-.04H12.84c-.03 0-.04-.01-.02-.04 4.64-7.62 9.24-15.27 13.8-22.95.16-.28.37-.5.64-.68.5-.34 1-.33 1.52.02.37.24.72.65 1.05 1.22l5.64 9.56c.05.1.05.19 0 .28l-5.98 9.9a.08.08 0 0 0 0 .08c.02.03.04.03.07.03H34.04c.07 0 .1.05.06.1l-1.45 2.4c-.02.05-.01.07.05.07h10.28c.1 0 .16.04.2.1.34.48.62.94.85 1.4.35.69.3 1.25-.13 1.68-.4.4-.97.59-1.73.58-4.75-.03-10.23-.06-16.42-.07-.06 0-.08-.03-.05-.08l2.15-3.56Zm7.47-6.21.53.87c.03.05.06.05.09 0l2.01-3.33a.05.05 0 0 0 0-.05l-.53-.88c-.03-.05-.06-.05-.09 0l-2.01 3.34a.05.05 0 0 0 0 .05Z" fill="#2E3192"/></svg>