<!-- by TradingView --><svg width="56" height="56" viewBox="0 0 56 56" xmlns="http://www.w3.org/2000/svg"><path fill="#F0F3FA" d="M0 0h56v56H0z"/><path d="M30.95 20.8a2963.82 2963.82 0 0 0 19.02 7.18c.04.01.04.03 0 .04L28.02 38c-.06.02-.1 0-.1-.05l-.17-1.36a.6.6 0 0 0-.41-.52l-2.28-.87a3031.78 3031.78 0 0 0-19.02-7.17c-.04-.01-.04-.03 0-.04L27.98 18c.06-.02.1 0 .1.05l.17 1.36a.6.6 0 0 0 .41.52l2.28.87Z" fill="#0061A5"/><path d="M28.05 20.3c.05.13.17.23.37.3a5903.33 5903.33 0 0 1 16.92 6.22c0 .02-.02.02-.04.02l-17.82-5.5a.17.17 0 0 1-.1-.09c-.12-.19-.12-.49-.02-.9a8.71 8.71 0 0 1 .4-1.18c.07-.17.1-.17.1.02.02.41.08.78.2 1.1Z" fill="#F0F3FA"/><path fill-rule="evenodd" d="M25.02 20.07c-.24-.1-.57-.05-1 .14l-.06.03c-.3.13-.5.24-.63.34-.22.18-.27.37-.15.56.16.25.29.4.38.43.23.1.56.06.99-.13l.07-.03c.3-.13.5-.25.63-.35.22-.18.26-.36.14-.55-.16-.25-.29-.4-.37-.44Zm-1.32.7a3.36 3.36 0 0 0 .23.33c.11.14.21.2.3.2.28-.03.5-.13.64-.3.03-.05.03-.08 0-.13a3.35 3.35 0 0 0-.23-.32c-.1-.14-.2-.2-.3-.2-.28.03-.5.13-.63.3-.03.05-.03.08 0 .12Z" fill="#F0F3FA"/><path d="m21.43 21.98.64-.3c.06-.03.07-.07.03-.12l-.19-.21c-.06-.07-.05-.12.03-.16l.36-.17c.07-.04.14-.02.2.05l.66.89c.03.03.02.06-.02.08l-.45.21c-.04.02-.08.01-.1-.02l-.24-.34c-.05-.07-.11-.08-.2-.04l-.6.28c-.07.04-.08.09-.02.15l.23.27c.05.06.04.1-.03.14l-.38.17c-.07.03-.12.02-.17-.04l-.65-.86c-.05-.06-.04-.1.02-.13l.4-.2c.07-.02.12 0 .15.05l.17.25c.04.07.1.08.16.05ZM19.61 22.46c-.05.03-.06.06-.02.1l.57.76c.04.04.03.07-.02.1l-.43.2c-.05.02-.1 0-.13-.04l-.57-.76c-.03-.04-.07-.05-.11-.03l-.58.27c-.06.02-.1 0-.1-.07v-.05c0-.03 0-.05.03-.06l1.8-.82c.04-.02.07-.01.1.03l.01.03c.03.05.02.08-.03.1l-.52.24ZM16.72 24.09c.17.04.35.08.53.15.07.02.08 0 .03-.05l-.56-.6c-.02-.03-.01-.05.01-.06l.52-.23c.03-.01.04 0 .06.01l.72.94c.03.05.02.08-.03.1l-.38.19c-.08.04-.21.04-.4 0l-.54-.13a6.33 6.33 0 0 1-.53-.15c-.07-.02-.08 0-.03.04l.56.61c.02.02.01.04-.01.05l-.53.24c-.02 0-.03 0-.05-.02l-.72-.94c-.03-.04-.02-.08.03-.1l.38-.18c.08-.04.21-.04.4 0l.54.13Z" fill="#F0F3FA"/><path fill-rule="evenodd" d="M14.12 25.87c-.01-.06 0-.1.05-.12l.57-.27c.03-.02.08-.01.12.02l.18.1a.2.2 0 0 0 .2.01l.43-.2c.02 0 .03-.02.03-.04a.05.05 0 0 0-.03-.05l-1.33-.64a.15.15 0 0 0-.13 0l-.66.3c-.03.03-.05.05-.05.1l.04 1.22c0 .06.03.08.08.05l.49-.23c.04-.01.06-.04.05-.08l-.04-.17Zm-.04-.36c0 .04.03.06.07.04l.34-.16c.06-.03.06-.06 0-.1l-.43-.27c-.03-.02-.05-.01-.04.03l.06.46Z" fill="#F0F3FA"/><path d="M22.37 26.58a.52.52 0 0 0-.24-.42 1 1 0 0 0-.5-.16c-.2-.02-.38 0-.54.07-.18.07-.3.18-.35.32-.14.34-.04.6.32.76.22.1.39.16.5.17.85.12 1.47.32 1.86.6.56.4.71 1 .47 1.77-.11.34-.35.62-.7.85-.33.2-.7.34-1.13.4-.76.12-1.42.05-1.98-.23-.64-.32-1-.84-1.08-1.57 0-.03.01-.04.04-.04h1.35c.04 0 .05.02.06.05.03.48.3.75.81.82.22.03.44.01.65-.05.25-.08.42-.2.5-.39.11-.26.1-.48-.06-.66a1.16 1.16 0 0 0-.62-.35 5.87 5.87 0 0 1-1.75-.58c-.5-.28-.74-.68-.71-1.2.01-.44.17-.81.47-1.1.27-.28.64-.46 1.09-.56.7-.14 1.33-.1 1.88.12.64.26 1.01.73 1.1 1.41 0 .04-.01.06-.05.06h-1.3c-.06 0-.09-.03-.1-.09ZM32.47 27.99c0 .48.17.89.52 1.22.3.3.7.5 1.15.58.81.16 1.52-.02 2.14-.54a.16.16 0 0 1 .1-.04h1.56c.02 0 .03.01.04.03v.06a3.6 3.6 0 0 1-2.52 1.64 4.7 4.7 0 0 1-2.34-.22 3.4 3.4 0 0 1-1.46-1.01 2.58 2.58 0 0 1 .02-3.45c.4-.46.88-.8 1.47-1a4.7 4.7 0 0 1 2.34-.2 3.6 3.6 0 0 1 2.5 1.67v.06c0 .03-.02.04-.04.04l-1.55-.02a.16.16 0 0 1-.1-.04 2.44 2.44 0 0 0-2.14-.57c-.46.09-.85.28-1.16.57-.35.33-.53.74-.53 1.22ZM12.5 26.5l-.02-.03c-.04-.05-.03-.08.03-.1l.43-.2c.06-.03.1-.02.12.04.08.2-.03.39-.34.57-.48.28-.88.41-1.2.4-.15 0-.29-.08-.42-.23-.1-.12-.2-.26-.26-.43a.15.15 0 0 1 .01-.13c.1-.2.37-.4.78-.57.4-.17.71-.23.93-.17.2.05.21.13.01.22l-.32.14a.13.13 0 0 1-.13 0c-.18-.13-.4-.07-.65.17-.06.06-.06.12-.01.18l.31.41c.03.04.07.07.12.07a.7.7 0 0 0 .6-.2c.04-.05.05-.1.01-.14Z" fill="#F0F3FA"/><path fill-rule="evenodd" d="M24.54 25.01c-.03 0-.04.02-.04.05l.02 5.9c0 .02.01.04.04.04l2.94-.01c.83 0 1.54-.29 2.13-.85.58-.57.87-1.25.87-2.04v-.23c0-.8-.3-1.48-.89-2.04a2.97 2.97 0 0 0-2.13-.83l-2.94.01Zm1.53 1.03c-.02 0-.07.02-.07.04v3.86c0 .03.04.04.06.04h1.23c.5 0 .92-.17 1.27-.52.35-.34.52-.77.52-1.26v-.35c0-.5-.17-.92-.52-1.27a1.73 1.73 0 0 0-1.26-.53h-1.23ZM45.01 28.87c-.24-.1-.57-.06-.99.13l-.07.03c-.3.13-.5.24-.63.34-.22.18-.28.36-.16.55.17.26.29.4.38.44.23.1.56.06.99-.13l.07-.03c.3-.13.5-.24.63-.34.22-.18.27-.36.15-.55-.16-.25-.28-.4-.37-.44Zm-.22.68c-.15-.24-.28-.37-.39-.4-.1-.03-.28.02-.54.15-.1.05-.16.1-.18.16-.01.05.01.12.07.22.16.24.29.37.4.4.1.03.28-.02.54-.15.1-.05.16-.1.18-.16.01-.05-.01-.12-.08-.22Z" fill="#F0F3FA"/><path d="M28.16 35.8c-.05-.12-.17-.22-.36-.3A5516.1 5516.1 0 0 1 11 29.34l.04-.02 17.69 5.47c.04.01.08.04.1.08.1.19.11.49.02.9a8.4 8.4 0 0 1-.4 1.16c-.07.18-.1.17-.11-.01a3.67 3.67 0 0 0-.18-1.1ZM41.91 30l.45-.2c.04-.02.06-.02.09.01l.71.94c.03.04.02.07-.03.1l-.45.2c-.03.02-.06.01-.08-.02l-.3-.39c-.02-.03-.05-.03-.08-.02l-.7.32c-.04.02-.05.05-.02.1l.27.34c.03.05.02.08-.03.1l-.45.2c-.03.02-.06.01-.08-.02l-.71-.93c-.04-.05-.03-.08.02-.1l.46-.2c.03-.02.06-.02.08.01l.24.33c.03.03.05.03.09.02l.68-.31c.05-.03.06-.06.03-.1l-.21-.29c-.04-.04-.03-.07.02-.1ZM40.15 32.2l-.5.22h-.05l-.63-.84c-.02-.02-.03-.02-.05-.01l-.64.29c-.04.01-.05 0-.06-.03l-.01-.12c0-.01 0-.03.02-.04l1.82-.82h.05l.07.1c.02.02.01.04-.02.06l-.58.26c-.03.02-.04.04-.02.06l.61.8c.02.03.02.05-.01.07ZM36.71 32.88l.53.15c.07.02.08 0 .03-.05l-.56-.6c-.02-.03-.02-.04.01-.05l.52-.24c.02-.01.04 0 .06.01l.71.94c.04.05.03.08-.02.1l-.38.19c-.08.04-.21.04-.4 0l-.54-.13a5.91 5.91 0 0 1-.53-.15c-.07-.02-.08 0-.03.05l.56.6c.02.03.01.04-.01.05l-.52.24c-.03.01-.04 0-.06-.01l-.72-.94c-.03-.05-.02-.08.03-.1l.38-.19c.08-.04.21-.04.4 0l.54.13Z" fill="#F0F3FA"/><path fill-rule="evenodd" d="m33.57 35.16.53-.24c.02 0 .03-.02.03-.04v-.3c0-.01 0-.03.02-.04l.6-.27h.04l.34.17h.04l.5-.23c.02 0 .03-.02.03-.04s-.01-.04-.03-.04l-1.38-.68h-.04l-.72.33a.04.04 0 0 0-.02.04v1.3c0 .05.02.06.06.04Zm.5-.86c0 .05.02.06.07.04l.34-.15c.06-.03.06-.06 0-.1l-.42-.27c-.04-.02-.05-.01-.05.03l.06.45Z" fill="#F0F3FA"/><path d="M32.48 35.42c.04-.04.05-.08.01-.13l-.02-.03c-.04-.05-.03-.08.02-.11l.44-.2c.06-.02.1 0 .12.05.08.2-.03.39-.34.57-.48.28-.89.41-1.2.4-.15 0-.29-.08-.42-.23-.1-.12-.2-.26-.26-.43a.15.15 0 0 1 0-.13c.12-.2.38-.4.79-.57.4-.17.71-.23.93-.17.2.05.21.13.01.22l-.32.14a.13.13 0 0 1-.13 0c-.18-.13-.4-.07-.65.17-.06.06-.06.12-.02.18l.32.41c.03.04.07.07.12.07a.7.7 0 0 0 .6-.2Z" fill="#F0F3FA"/></svg>