<!-- by TradingView --><svg width="56" height="56" viewBox="0 0 56 56" xmlns="http://www.w3.org/2000/svg"><path fill="#F0F3FA" d="M0 0h56v56H0z"/><path d="M12 24v-2.33L21.05 13h13.9L44 21.67V24h-5.41a11 11 0 0 0-21.18 0H12ZM17.35 29.96h-4.52l.44 1.41L12 32.9l1.66 2.76 1.88-.67 1.32 1.58-.27 1.69 2.04 2.03 1.72-1.35 2.26 1.35v1.75l2.88.96.99-2h2.16l1.1 2 3.12-.96.3-1.75 2.27-1.01 1.55 1.3 2.05-1.64-.4-2.37 1.45-1.58 1.65.67 1.77-2.76-1.49-1.53.83-1.4H39A11.64 11.64 0 0 1 27.7 38c-6.26 0-9.61-5.27-10.35-8.04Z" fill="#020286"/><path d="M18 26.94c0 3.4 1.66 5.56 2.5 6.22l.96-4.65h.58c.32 3.08 2.94 5.3 5.13 5.3s4.38-1.06 4.38-2.9c0-1.85-2.4-2.87-3.8-3.01-1.4-.14-6.53-.68-6.53-4.13 0-3.46 2.27-5.81 6.9-5.81 3.72 0 5.84.98 6.44 1.47A9.72 9.72 0 0 0 28.13 17C20.87 17 18 22.7 18 26.94Z" fill="#0097FF"/><path d="M27.59 34.82c-4.14 0-6.46-1.1-7.11-1.65.6 1.28 2.92 3.83 7.5 3.83A9.93 9.93 0 0 0 38 27.12c0-4.22-2.37-6.9-3.55-7.7l-.93 3.8h-.4c-.17-1.54-1.3-4.36-3.88-4.36s-4.36 1.09-4.36 2.58.89 2.01 5 3.06c4.12 1.05 5.5 2.18 5.5 4.72 0 2.54-2.63 5.6-7.8 5.6Z" fill="#F4040D"/></svg>