<!-- by TradingView --><svg width="56" height="56" viewBox="0 0 56 56" xmlns="http://www.w3.org/2000/svg"><path fill="#F0F3FA" d="M0 0h56v56H0z"/><path fill-rule="evenodd" d="M38.78 14.05a6.9 6.9 0 0 1-.3-.05h-21l-.18.03a3.81 3.81 0 0 0-3.3 3.5v20.93a3.87 3.87 0 0 0 2.23 3.2c.43.2.88.3 1.35.34h20.83a3.87 3.87 0 0 0 3.28-2.3c.2-.43.3-.9.31-1.39V17.7a3.8 3.8 0 0 0-3.22-3.65Zm-4.6 12.72c0-.03.02-.04.04-.02l.08.1A184.32 184.32 0 0 0 35 28h1.96c.03 0 .04-.05.04-.08v-6.88l-.01-.04h-2.95c-.04 0-.04.03-.04.07v.81c0 .05-.05.05-.07.01l-.53-.8c-.03-.04-.06-.09-.1-.09H22.42c-.09 0-.19 0-.3-.02-.4-.1-.82-.1-1.22-.01-.4.08-.74.25-1.04.49-.3.24-.53.54-.68.9-.16.38-.21.8-.16 1.24.06.54.3.99.71 1.34.04.03.03.04-.01.04h-.66c-.01 0-.06.01-.06.03v2.93c0 .02.05.06.06.06h2.22l.02-.03v-.02c.03-.01.04-.03.03-.05v-.02h.02c.53.2 1.06.26 1.6.18a2.4 2.4 0 0 0 1.43-.73h.03c.01 0 .02 0 .02.02v.58c0 .02 0 .07.03.07h9.7c.02 0 .03-.04.03-.06v-1.17Z" fill="#00AB4F"/><path fill-rule="evenodd" d="M33.1 23.96h-.02l.03 2.3c0 .02.01.03.03.03h.58c.02 0 .03 0 .03.03v1.14c0 .03-.01.04-.04.04h-3.85c-.07 0-.07-.02-.01-.05.48-.28.86-.66 1.16-1.14a.06.06 0 0 1 .05-.02h.5c.02 0 .03-.01.03-.03v-3.52c0-.02-.01-.03-.03-.03h-.5c-.03 0-.04 0-.05-.02-.3-.5-.7-.87-1.18-1.13-.06-.04-.06-.06.02-.06h3.23c.03 0 .05.01.06.04l1.92 3.19c.02.02.03.02.03-.01l-.03-1.98c0-.02-.01-.03-.03-.03h-.59c-.02 0-.03 0-.03-.02V21.5l.02-.01h2.13l.01.01v5.96c0 .02 0 .03-.03.03H35.3a.07.07 0 0 1-.06-.04 2201.27 2201.27 0 0 1-2.15-3.5Zm-10.3-1.9c.03.03.04.03.04-.02v-.4c0-.02 0-.03.02-.03h1.26c.02 0 .03 0 .03.03v1.8h-1.28l-.04-.01a2.88 2.88 0 0 0-.37-.49 1.06 1.06 0 0 0-.5-.3c-.27-.06-.5-.02-.68.13-.15.12-.2.26-.16.43.04.14.15.25.35.33.14.06.3.1.5.13.65.1 1.15.23 1.47.37.53.23.86.58 1 1.04.07.2.08.44.06.75-.04.43-.2.8-.49 1.09-.26.26-.6.44-1 .53-.4.09-.8.08-1.2-.02-.41-.11-.76-.3-1.03-.58-.03-.03-.04-.03-.04.01l.04.5c0 .01 0 .02-.03.02h-1.27c-.02 0-.03 0-.03-.02v-1.92l.02-.01h1.36c.02 0 .04 0 .06.03.46.64.97.9 1.53.79a.53.53 0 0 0 .39-.33c.07-.19.02-.34-.14-.47-.1-.08-.25-.14-.43-.18-.1-.03-.28-.06-.53-.09l-.1-.01c-.8-.11-1.4-.35-1.77-.72-.27-.26-.4-.61-.42-1.04-.02-.42.08-.78.31-1.09a2.07 2.07 0 0 1 1.53-.8c.7-.04 1.2.14 1.54.55ZM31 24.5c0 1.01-.36 1.79-1.07 2.33-.27.2-.58.35-.94.44-.29.07-.63.1-1.04.1h-2.92c-.02 0-.03 0-.03-.02v-1.11c0-.02 0-.03.03-.03h.52c.02 0 .03-.02.03-.04a224.86 224.86 0 0 0-.02-3.4h-.53c-.02 0-.03 0-.03-.02v-1.11c0-.02.01-.03.03-.03h2.92c.41 0 .76.04 1.05.11.35.09.67.24.94.45.7.53 1.06 1.31 1.06 2.33Zm-4-1.7c0-.01 0-.02.02-.02h.67c.45 0 .83.15 1.15.44.32.3.48.65.48 1.07v.4c0 .41-.15.77-.47 1.07-.31.3-.7.45-1.15.45h-.67c-.01 0-.02 0-.02-.02L27 22.8Z" fill="#2E3192"/><path d="M24.62 23.57v-.64l.01-.01H25l.01.01a269.83 269.83 0 0 1-.02 2.56l-.02-.45a1.9 1.9 0 0 0-.5-1.12l-.27-.27c-.02-.03-.02-.04.02-.04h.36c.02 0 .04-.01.04-.04ZM27.57 23.21l.01-.01h.2c.32 0 .6.1.82.33.22.22.33.49.34.8v.34c0 .3-.12.58-.34.8-.22.22-.5.33-.81.33h-.2l-.02-.01V23.2Z" fill="#00AB4F"/><path d="m33.84 34.58.03.25c0 .05-.02.07-.06.07h-.78c-.04 0-.06-.02-.06-.06v-1.52c0-.04.02-.05.06-.05h.8c.06 0 .11.02.15.08.12.19.24.33.35.43.15.13.32.2.49.19.2 0 .34-.1.41-.26.06-.14.05-.26-.04-.37a.58.58 0 0 0-.34-.2l-.66-.15c-.3-.06-.54-.17-.74-.33a1.19 1.19 0 0 1-.44-.65 1.9 1.9 0 0 1-.05-.79c.05-.27.15-.51.31-.72.35-.42.8-.58 1.36-.46.23.05.4.16.52.33.07.1.1.08.12-.03v-.18c0-.05.02-.07.07-.07h.75c.04 0 .07.02.07.07v1.4c0 .04-.03.07-.08.06h-.7c-.09 0-.14-.03-.17-.1a1.74 1.74 0 0 0-.26-.37.6.6 0 0 0-.47-.2c-.2 0-.33.1-.37.3-.03.16.01.28.14.38.1.08.23.13.4.17.32.06.56.12.72.18.26.09.46.2.63.36.2.18.32.41.37.7.05.25.05.52-.01.82-.06.28-.18.52-.36.71-.17.19-.38.31-.62.38-.25.07-.5.07-.74 0-.26-.07-.5-.2-.7-.41-.08-.08-.11-.06-.1.04ZM25.56 32.16c-.06-.07-.08-.06-.06.02l.02.2c0 .48 0 .99.02 1.53 0 .06.04.09.1.09h.25c.06 0 .1.03.1.09v.83c.01.05-.02.08-.07.08H24.1a.1.1 0 0 1-.07-.03.09.09 0 0 1-.03-.06v-.85c0-.04.02-.07.07-.07h.3c.05 0 .08-.02.08-.07V31.1c0-.06-.04-.1-.1-.1h-.27c-.05 0-.08-.01-.08-.06v-.87c0-.05.03-.07.08-.07h1.33c.08 0 .14.03.18.1l1.3 2.49c.01.02.02.02.04.02s.03-.02.03-.03l-.03-1.48c0-.06-.03-.1-.1-.1h-.28c-.06 0-.08-.02-.08-.07v-.86c0-.05.02-.07.08-.07h1.82c.05 0 .08.03.08.08l.01.85c0 .05-.02.07-.07.07h-.28c-.05 0-.11.03-.11.08v3.83c0 .06 0 .09-.05.09h-.76a.17.17 0 0 1-.16-.1 1180.36 1180.36 0 0 0-1.47-2.74Z" fill="#ED1C24"/><path fill-rule="evenodd" d="M40.06 30a155.94 155.94 0 0 0-2.71 0c-.05 0-.08.03-.08.08v.85c0 .05.03.08.08.08h.25c.02 0 .03 0 .04.02.01.02.02.03.01.05l-.71 2.82c-.02.06-.06.1-.12.1h-.19c-.04 0-.06.02-.06.06v.87c0 .05.02.07.07.07h1.63c.06 0 .09-.03.09-.08v-.85c0-.05-.03-.08-.08-.08h-.19a.07.07 0 0 1-.06-.03.07.07 0 0 1-.01-.06l.12-.48c.01-.06.05-.1.11-.1a30.65 30.65 0 0 1 .9 0c.07 0 .1.04.12.1l.12.48-.01.06a.07.07 0 0 1-.06.03h-.19c-.05 0-.08.03-.08.08v.85c0 .05.03.08.09.08h1.63c.04 0 .07-.02.07-.07v-.87c0-.04-.02-.06-.07-.06h-.18c-.06 0-.1-.04-.12-.1l-.71-2.82v-.05a.05.05 0 0 1 .05-.02h.25c.05 0 .08-.03.08-.08v-.85c0-.05-.03-.08-.08-.08Zm-1.39 1.02-.34 1.38c0 .02 0 .03.03.03h.7c.02 0 .02-.01.02-.04l-.35-1.37c0-.02-.01-.02-.03-.02-.01 0-.02 0-.03.02ZM18.78 33.8c.15-.36.22-.8.22-1.3s-.07-.94-.22-1.3c-.17-.4-.44-.72-.82-.98a1.3 1.3 0 0 0-.53-.17 5.17 5.17 0 0 0-.63-.04h-1.73c-.05 0-.07.02-.07.06v.86c0 .05.02.07.07.07h.26c.05 0 .07.04.07.09a889.21 889.21 0 0 0 0 2.82c0 .05-.02.08-.07.08h-.26c-.05 0-.07.03-.07.08v.86c0 .04.02.06.07.07h1.73c.27-.01.48-.02.63-.05.23-.03.4-.09.53-.17.38-.26.65-.58.82-.99Zm-2.3-2.77a.1.1 0 0 0-.03.07v2.8c0 .03 0 .05.02.07l.06.03h.24c.32 0 .6-.13.82-.37.22-.25.34-.54.34-.9v-.46c0-.35-.11-.65-.34-.9-.22-.24-.5-.36-.82-.36h-.23c-.03 0-.05 0-.07.02ZM32.65 33.99h-.21c-.04 0-.06-.02-.07-.05l-.72-2.84c0-.02 0-.04.02-.06a.07.07 0 0 1 .05-.03h.23c.05 0 .07-.02.07-.07v-.87c0-.05-.02-.07-.07-.07h-2.73c-.04 0-.07.02-.07.07v.86c0 .05.03.08.07.08h.25c.02 0 .04 0 .06.02.01.02.02.04.01.06l-.72 2.85c0 .03-.03.05-.07.05h-.21c-.05 0-.08.03-.08.07v.87c0 .05.03.07.08.07h1.64c.05 0 .07-.02.07-.07v-.87c0-.05-.02-.07-.07-.07h-.2c-.02 0-.04 0-.06-.03a.07.07 0 0 1-.01-.06l.13-.52c.01-.04.03-.05.07-.05h.98c.03 0 .06.01.07.05l.13.52c0 .02 0 .04-.02.06a.07.07 0 0 1-.05.03h-.2c-.04 0-.07.02-.07.07v.87c0 .05.03.07.07.07h1.63c.05 0 .07-.02.07-.07v-.87c0-.05-.02-.07-.07-.07Zm-2.1-2.94-.32 1.33c-.01.04 0 .05.04.05h.66c.03 0 .04-.02.04-.05l-.34-1.33c0-.02-.02-.03-.04-.03s-.03.01-.04.03Z" fill="#ED1C24"/><path d="M20.86 34.81a1.92 1.92 0 0 0 1.67 0c.26-.13.5-.31.7-.55.2-.24.36-.5.47-.81a2.8 2.8 0 0 0-.49-2.73c-.2-.23-.44-.4-.7-.53a1.92 1.92 0 0 0-1.68 0c-.26.13-.5.31-.7.55-.2.24-.36.5-.47.81a2.8 2.8 0 0 0 .49 2.73c.2.23.44.4.7.53Zm.82-.98c-.58 0-1.05-.6-1.05-1.34 0-.73.48-1.33 1.06-1.32.58 0 1.05.6 1.05 1.33 0 .74-.48 1.33-1.06 1.33Z" fill="#ED1C24"/></svg>