<!-- by TradingView --><svg width="56" height="56" viewBox="0 0 56 56" xmlns="http://www.w3.org/2000/svg"><path fill="#F0F3FA" d="M0 0h56v56H0z"/><path d="M40.68 21.98c1.1.36 2.2.66 3.29.9.02 0 .03.01.03.04 0 .02 0 .04-.02.05a.1.1 0 0 1-.07.03l-19.53-.02a.55.55 0 0 1-.38-.16l-4.96-4.66c-.07-.06-.13-.06-.2.01l-4.25 4.64a.53.53 0 0 1-.4.19h-1.05c-.16 0-.18-.07-.08-.2l5.64-6.72a.19.19 0 0 1 .2-.08l.58.19c.34.12.6.2.8.23.29.06 1.07.26 2.33.6 1.81.49 3.64.96 5.48 1.43 4.24 1.09 8.5 2.18 12.6 3.53Zm1.86 3.76c.36.18.63.38.82.61.81 1.01.85 2.09.11 3.22-.12.2-.36.42-.72.67-.33.23-.6.38-.82.45-.95.3-1.9.44-2.87.4-.24-.01-.36-.13-.36-.36V29.3c0-.25.13-.35.39-.3.37.07.8-.03 1.26-.3.53-.29.65-.64.35-1.05-.28-.4-.7-.6-1.23-.61-.83-.02-1.47.37-1.47 1.18v5.68c0 .06 0 .1-.07.1h-2.81c-.08 0-.11-.04-.11-.1v-5.72a2.88 2.88 0 0 1 1.85-2.68c1.82-.8 3.94-.6 5.68.24Zm-25.46 5.88c-.03.09-.1.15-.2.18-.32.1-.73.2-1.2.2h-3.03v1.98c0 .02.01.02.03.02H16.58c.69 0 1.32 0 1.9-.19a2.98 2.98 0 0 0 1.6-1c.37-.5.5-1.04.38-1.6-.3-1.4-1.54-1.9-2.76-2.4-.65-.26-1.3-.52-1.8-.92a.32.32 0 0 1-.13-.25c0-.1.03-.18.1-.25l.01-.02c.15-.14.4-.39.77-.37h3.01c.03.01.04.01.04-.02V25.2c0-.06-.03-.1-.1-.1h-3.43c-.86.02-1.63.2-2.3.52-.85.42-1.3 1-1.36 1.75-.05.53.1 1 .46 1.4.26.29.7.6 1.32.96a888.57 888.57 0 0 0 2.25 1.24c.25.1.42.23.51.38a.3.3 0 0 1 .03.27Zm15.32-3.95c.65 1.02.77 2.06.36 3.1a4.45 4.45 0 0 1-1.6 2c-.69.5-1.48.82-2.37.98-.83.14-1.4.23-1.71.25-.21.01-.31-.09-.31-.3v-1.6c0-.21.1-.33.3-.35.42-.05.75-.11 1.01-.2.46-.15.85-.38 1.16-.7.3-.32.5-.67.57-1.05.09-.4.03-.77-.15-1.12-.2-.39-.54-.7-1.02-.94a5.42 5.42 0 0 0-2.46-.54c-.08 0-.18.04-.18.12v6.56c0 .06 0 .1-.06.1h-2.8c-.1 0-.14-.06-.14-.16v-8.69c0-.07.03-.1.1-.1 1.91-.05 3.33-.04 4.24.03 1.87.14 4.02.98 5.06 2.61ZM9 36.91c0 .06.04.1.1.09l41.74-1.66c.09 0 .14-.04.15-.12v-.1c.02-.08-.02-.12-.11-.12H9.14c-.1 0-.14.04-.14.12v1.79Z" fill="#F4052C"/></svg>