<!-- by TradingView --><svg width="56" height="56" viewBox="0 0 56 56" xmlns="http://www.w3.org/2000/svg"><path fill="#F0F3FA" d="M0 0h56v56H0z"/><path fill-rule="evenodd" d="M30.83 20.83A3.86 3.86 0 0 0 32 18c0-1.1-.39-2.05-1.17-2.83A3.86 3.86 0 0 0 28 14c-1.1 0-2.05.39-2.83 1.17A3.86 3.86 0 0 0 24 18c0 1.1.39 2.05 1.17 2.83A3.86 3.86 0 0 0 28 22c1.1 0 2.05-.39 2.83-1.17Zm-2.98-5.37c.76-.12 1.36.1 1.8.67.02.03.04.03.07 0l.33-.58c.05-.08.03-.15-.06-.2a3.72 3.72 0 0 0-2.4-.3c-.98.18-1.57.58-1.75 1.2-.17.57.03 1.05.58 1.41.31.21.86.43 1.63.64l.56.18c.33.12.56.3.7.51.12.2.15.4.1.63-.07.22-.2.4-.4.57-.2.17-.45.28-.74.33-.92.16-1.68-.1-2.29-.76-.08-.1-.14-.08-.18.04l-.15.53c-.04.12 0 .21.12.27a4.46 4.46 0 0 0 3.29.12c.37-.14.68-.35.93-.63.27-.3.4-.64.4-1-.01-.46-.23-.82-.67-1.08a5.45 5.45 0 0 0-1.59-.55c-.86-.23-1.32-.58-1.37-1.03-.03-.27.08-.5.32-.67.2-.16.46-.26.77-.3Z" fill="#007CC2"/><path fill-rule="evenodd" d="M29.84 25a.76.76 0 0 1-.6-.3c-.16-.2-.24-.43-.24-.7 0-.28.09-.52.25-.71a.76.76 0 0 1 1.2 0c.17.2.25.44.25.71 0 .28-.09.51-.25.7a.76.76 0 0 1-.6.3Zm-.5-1c0 .38.23.69.51.68.28 0 .51-.3.5-.68 0-.38-.23-.68-.51-.68s-.51.31-.5.69Zm-6.47.17c.1 0 .15-.06.15-.17 0-.1-.05-.16-.16-.17l-.7-.01c-.11 0-.16-.06-.16-.16v-.17c0-.1.05-.16.16-.16h.74c.1 0 .16-.06.16-.16v-.07c0-.07-.04-.1-.1-.1h-1.19c-.1 0-.15.06-.16.16a29.56 29.56 0 0 0 .01 1.7c0 .1.06.14.16.14h1.18c.07 0 .1-.03.1-.1v-.07c0-.1-.05-.15-.15-.15h-.74c-.12 0-.17-.06-.17-.17v-.16c0-.1.05-.16.16-.16l.7-.02Zm-2.42-.73c-.07.15 0 .25.2.32l.47.17c.04.02.08.04.1.08.25.32.2.61-.15.87-.15.1-.44.12-.87.04-.14-.02-.2-.1-.18-.2v-.04c0-.11.06-.15.18-.12l.3.07c.1.03.2.02.28 0 .1-.03.15-.09.17-.17.02-.11-.02-.19-.13-.23l-.18-.07a1.94 1.94 0 0 1-.5-.23c-.13-.12-.17-.26-.12-.44.07-.22.21-.37.42-.44.2-.08.42-.05.65.06.06.04.1.09.1.16s-.04.12-.1.15a.16.16 0 0 1-.14 0 .93.93 0 0 0-.4-.05c-.05 0-.08.03-.1.07Zm14.9.08.25-.37c.05-.08.12-.1.2-.03l.03.03c.07.05.08.11.03.18l-.35.54a.08.08 0 0 0 0 .1l.46.7c.05.07.04.16-.03.26l-.05.02c-.07.03-.12.02-.16-.05l-.38-.56c-.04-.06-.07-.06-.11 0l-.4.6c-.04.07-.1.08-.15.03l-.03-.02c-.1-.08-.11-.17-.04-.28l.45-.68a.13.13 0 0 0 0-.15l-.37-.56c-.05-.07-.04-.13.03-.18l.06-.05c.06-.05.1-.04.14.02l.3.45c.04.06.08.06.12 0Zm-1.85 1.14h.8c.08 0 .13.04.16.11v.06c.01.11-.04.17-.16.17H33.1c-.07 0-.11-.04-.11-.11v-1.8c0-.06.03-.09.1-.09h1.22c.08 0 .11.04.11.1v.1c0 .07-.03.1-.1.1h-.82c-.1 0-.15.05-.15.15v.18c0 .11.05.16.16.16h.74c.05 0 .09.03.12.07.04.05.06.11.04.17-.02.07-.07.11-.15.11h-.78c-.08 0-.12.04-.12.13v.26c0 .09.04.13.13.13Zm-7.5.13v-.38c0-.06.02-.09.08-.1h.16a1 1 0 0 0 .24-.02c.38-.1.55-.35.5-.75-.03-.27-.2-.44-.49-.5a2.62 2.62 0 0 0-.8-.01c-.07 0-.1.04-.1.1v1.7c0 .11.06.17.2.17l.07-.02c.09-.04.14-.1.14-.2Zm.07-1.47c-.05 0-.08.02-.08.08v.5c0 .05.03.08.08.08h.23c.08 0 .15-.03.21-.08a.23.23 0 0 0 .09-.18v-.15a.23.23 0 0 0-.09-.18.32.32 0 0 0-.21-.07h-.23Zm1.8.91c-.03-.03-.06-.04-.1-.03-.04.01-.06.04-.06.08v.47c0 .12-.06.2-.18.23-.09.03-.16-.03-.22-.2V23.15c0-.1.04-.14.14-.14h.93c.06 0 .1.03.14.08.3.47.22.82-.23 1.03-.05.02-.06.06-.03.1l.39.51c.04.06.04.12 0 .18l-.03.04a.13.13 0 0 1-.1.06.13.13 0 0 1-.12-.05l-.53-.72Zm-.15-.83c0-.07.03-.1.1-.1h.2c.07 0 .14.03.2.08s.08.1.08.18v.06c0 .07-.03.13-.08.18a.3.3 0 0 1-.21.07h-.2c-.06 0-.1-.03-.1-.1v-.37Zm3.4-.4c-.08 0-.12.04-.12.12v1.77c0 .07.05.11.13.11h.64a.9.9 0 0 0 .9-.93v-.15a.9.9 0 0 0-.28-.65.85.85 0 0 0-.63-.27h-.64Zm.37.31c-.07 0-.1.03-.1.1v1.16c0 .07.04.1.1.1h.17c.16 0 .3-.06.42-.18a.56.56 0 0 0 .17-.41v-.18a.59.59 0 0 0-.6-.59h-.16ZM24.26 23c.13 0 .22.08.28.23.2.54.4 1.07.57 1.57.02.06 0 .12-.07.17a.2.2 0 0 1-.05.02c-.1.03-.17 0-.2-.09l-.11-.24c-.02-.04-.06-.06-.13-.07a3.68 3.68 0 0 0-.6 0c-.07 0-.11.03-.13.06l-.1.24c-.05.09-.11.12-.21.1a.15.15 0 0 1-.05-.03c-.07-.05-.1-.11-.07-.17.18-.5.38-1.02.6-1.57.06-.15.15-.22.27-.22Zm.03.48.23.62c.04.1 0 .16-.11.16h-.36c-.07 0-.09-.03-.07-.09l.22-.69c0-.02.02-.03.04-.03s.04 0 .05.03Z" fill="#C62017"/><path d="M38.9 12H17.18l-.1.03c-.06.02-.08.05-.08.1l.13 26.14c0 1.05.16 1.93.45 2.64.35.85.93 1.55 1.74 2.1a5.82 5.82 0 0 0 4.67.8 4.7 4.7 0 0 0 3.25-3.2c.34-1.15.44-2.35.3-3.62-.11-.97-.2-1.9-.27-2.77-.07-.83.01-1.33.24-2.07a.1.1 0 0 0-.02-.1.12.12 0 0 0-.1-.05h-3.45a.18.18 0 0 0-.16.09.16.16 0 0 0 0 .18 8.7 8.7 0 0 1 1.48 3.66c.11.9-.03 1.67-.44 2.34a2.34 2.34 0 0 1-2.03 1.16 2.92 2.92 0 0 1-2.96-2.57.13.13 0 0 1 .15-.13c.73.11 1.36.1 1.88-.06.68-.21 1.06-.64 1.14-1.28a3.9 3.9 0 0 0-.13-1.64c-.41-1.33-1-2.69-1.78-4.08-.94-1.7-1.93-3.3-2.95-4.8l-.45-.72c-.1-.18-.15-.36-.15-.56l-.02-11.07c0-.05.03-.07.08-.07h20.78c.06 0 .1.03.1.09a1088.5 1088.5 0 0 0 0 11.38l-.08.17a64.74 64.74 0 0 0-4.06 6.7 13.91 13.91 0 0 0-1.3 3.6c-.15 1.04.08 1.73.67 2.09.5.3 1.3.37 2.4.24.07-.01.1.02.09.08-.1.56-.29 1.05-.58 1.47a2.77 2.77 0 0 1-2.9 1.1 2.29 2.29 0 0 1-1.39-.9c-.62-.85-.76-1.97-.43-3.38a9.5 9.5 0 0 1 1.45-3 .05.05 0 0 0 0-.07c-.01-.02-.03-.02-.06-.02h-3.71c-.09 0-.12.03-.1.1a6.64 6.64 0 0 1 .18 3.32c-.14 1.22-.21 2.1-.22 2.63 0 .85.1 1.66.3 2.43.33 1.2 1 2.12 1.98 2.75 1 .63 2.14.87 3.45.7a5.62 5.62 0 0 0 2.84-1.14 4.48 4.48 0 0 0 1.64-2.44c.17-.68.26-1.35.27-2.01.03-5.84.06-14.62.08-26.34h-.1Zm-2.55 20.22c-.36-.08-.55-.61-.4-1.2.13-.58.54-1 .9-.91.37.07.56.61.42 1.2-.14.58-.55.99-.92.91Zm-16.65 0c-.37.09-.8-.3-.96-.9-.16-.57 0-1.12.38-1.2.36-.1.8.3.95.88.16.58 0 1.13-.37 1.22Z" fill="#007CC2"/></svg>