<!-- by TradingView --><svg width="56" height="56" viewBox="0 0 56 56" xmlns="http://www.w3.org/2000/svg"><path fill="#F0F3FA" d="M0 0h56v56H0z"/><path d="M34.67 39.16a13 13 0 1 0-18.1-17.34c1.7.09 4.45 1.1 7.01 4.62l1.65 2.3c1.5 2.1 3.03 4.25 4.53 6.07a24.07 24.07 0 0 0 3.01 3.14c.66.55 1.3.96 1.9 1.21Zm-.22.13a8.04 8.04 0 0 1-1.8-1.18c-.99-.82-2-1.92-3.04-3.17a112.5 112.5 0 0 1-4.54-6.09l-1.65-2.3c-2.59-3.55-5.33-4.48-6.96-4.54-.1.17-.17.34-.25.52.77.25 1.78.93 2.38 2.43.17.43.41 1.18.72 2.14l.49 1.5a74.81 74.81 0 0 0 2.04 5.61c.81 1.94 1.75 3.8 2.79 5.22.4.54.81 1.01 1.24 1.4a13.09 13.09 0 0 0 8.58-1.54Zm-8.94 1.47a13 13 0 0 1-9.39-18.05c.72.23 1.7.87 2.29 2.33.16.42.4 1.16.7 2.11l.5 1.52a74.93 74.93 0 0 0 2.05 5.62 26.24 26.24 0 0 0 2.8 5.25c.34.46.69.87 1.05 1.22Z" fill="#027BC2"/><path fill-rule="evenodd" d="M28 44a16 16 0 1 0 0-32 16 16 0 0 0 0 32Zm0 1a17 17 0 1 0 0-34 17 17 0 0 0 0 34Z" fill="#027BC2"/><path d="M17.64 21.94c1.56-.1 4.28.02 6.36 1.06 1.03.52 2.6 2.1 4.45 3.97 2.78 2.81 6.21 6.28 9.47 7.79a12 12 0 1 0-20.28-12.82Z" fill="#DA251C"/><path d="m31 27 1.42 5H37l-3.7 2.83L34.7 39 31 36.58 27.3 39l1.4-4.17L25 32h4.58L31 27Z" fill="#F1A456"/><path fill-rule="evenodd" d="M28 42a14 14 0 1 0 0-28 14 14 0 0 0 0 28Zm0 1a15 15 0 1 0 0-30 15 15 0 0 0 0 30Z" fill="#DA251C" fill-opacity=".6"/></svg>