<!-- by TradingView --><svg width="56" height="56" viewBox="0 0 56 56" xmlns="http://www.w3.org/2000/svg"><path fill="#F0F3FA" d="M0 0h56v56H0z"/><path d="M21 46h-1.58c-7.3-11.2-5.68-25.47-3.96-31.2l3.17 2C15.14 28.96 18.76 41.33 21 46Z" fill="#04A653"/><path d="M22.98 46H21.4c-1.06-2.8-3.25-10.08-3.57-16.8-.31-6.72 1.72-14.8 2.78-18l6.73 3.6c-1.32 1.6-4.28 6.8-5.54 14.8-1.27 8 .26 14.27 1.18 16.4Z" fill="#04A653"/><path fill-rule="evenodd" d="M23.38 46H42c-1.58-2-4.75-7.84-4.75-15.2 0-7.36 2.1-12.67 3.17-14.4L31.7 10c-2.64 3.2-8.16 11.6-9.11 19.6-.95 8 .13 14.27.79 16.4ZM29 30.5V29c-1.67 0-5 1.57-5 5.5 0 4.4 3.33 5.5 5 5.5v-6h-1.5v4.04c-.71-.14-2-1.34-2-3.54s2-4 3.5-4Zm2-1.5c1.67.26 5 1.73 5 5.5s-3.33 5.24-5 5.5V29Zm1.5 8.76a3.82 3.82 0 0 0 0-6.52v6.52ZM24 44l1.6-2.96c1.33-.12 4.4 0 4.8.74.4-.74 3.2-.74 4.8-.74L36 44c-.53-.25-2-.74-3.6-.74-1.33 0-1.55.25-1.82.55l-.18.19a2.85 2.85 0 0 0-2-.74c-.96 0-3.33.5-4.4.74Zm4.5-.5c-.64 0-1.6.33-2 .5h2c.4 0 .7.38 1 .75.3.38.6.75 1 .75.3 0 .59-.33.89-.69.33-.4.69-.81 1.11-.81h2a4.14 4.14 0 0 0-2-.5c-.76 0-1.2.6-1.52 1.04-.19.26-.33.46-.48.46-.17 0-.4-.26-.67-.56-.4-.43-.86-.94-1.33-.94Z" fill="#03A653"/></svg>