<!-- by TradingView --><svg width="56" height="56" viewBox="0 0 56 56" xmlns="http://www.w3.org/2000/svg"><path fill="#F0F3FA" d="M0 0h56v56H0z"/><path d="M19.68 26H10a39.6 39.6 0 0 0 9.68-9c.3 1.58 2.24 4.16 3.18 5.26-.2.13-.6.51-.6.96 0 .56.74.96.74 1.36 0 .9-2.21 1.32-3.32 1.42ZM45 26H23.89c.23-.18.7-.67.7-1.16 0-.6-1.59-1.29-1.59-1.61 0-.33.33-.65.89-1.11A26.7 26.7 0 0 0 29.07 15c5.5 5.62 12.91 9.68 15.93 11ZM31.18 35.48c-.1.07-.15.2-.25.27-.15.11-.3.25-.47.25a.86.86 0 0 1-.41-.11c-.73-.4-.93-1.46-.98-2.25-.11-1.7-.09-3.32.06-4.86.07-.7.46-1.63 1.2-1.75 1.53-.26 1.66 1.85 1.66 2.9 0 .02 0 .04-.02.05a.08.08 0 0 1-.06.02h-.97c-.04 0-.06-.03-.06-.08.04-.44 0-.73-.14-1.13a.23.23 0 0 0-.06-.1.22.22 0 0 0-.21-.04.22.22 0 0 0-.1.06c-.17.2-.18.8-.18 1.03-.03 1.34-.01 2.64.04 3.91 0 .25.06.45.17.63a.2.2 0 0 0 .14.09.19.19 0 0 0 .16-.05c.3-.28.26-1.1.25-1.63 0-.04-.03-.07-.07-.07h-.25a.11.11 0 0 1-.08-.04.12.12 0 0 1-.04-.08l-.03-1.44.01-.03.02-.03.03-.02a.1.1 0 0 1 .04 0l1.35.02c.05 0 .07.03.07.08l.14 4.83c0 .06-.03.1-.09.1h-.63c-.08-.01-.12-.05-.13-.13l-.03-.37c0-.06-.03-.07-.08-.03ZM20.04 29.88c.1-1.06.46-2.88 1.78-2.88 1.18 0 1.36 1.85 1.35 2.78 0 .85-.06 2-.15 3.45-.08 1.17-.4 2.8-1.71 3.03-1.31.22-1.54-1.23-1.52-2.29.02-1.4.1-2.76.25-4.1Zm1.05 1.75a723 723 0 0 1-.12 1.89c-.05.68.07 1.03.35 1.05.28.02.44-.31.48-1a1504.5 1504.5 0 0 1 .24-3.77c.04-.68-.08-1.03-.36-1.05-.28-.02-.44.31-.48 1l-.11 1.88ZM36.38 28.47c.12-.83.65-1.62 1.55-1.44.61.13 1.09.97 1.22 1.53.15.67.26 1.36.32 2.05.11 1.2.19 2.43.23 3.68.03.79-.01 2.7-1.12 2.71-1.35.01-1.93-1.55-2.06-2.8-.13-1.2-.2-2.56-.21-4.09-.01-.72.01-1.27.07-1.64Zm1.16 3.5c.04.52-.04 3.03.59 3.03.37 0 .36-.35.36-.56 0-.85-.04-1.68-.1-2.53-.05-.85-.1-1.68-.22-2.53a.96.96 0 0 0-.16-.45.26.26 0 0 0-.17-.1.25.25 0 0 0-.19.05c-.41.34-.14 2.54-.1 3.08ZM10.44 36.77c.15.01.26-.04.32-.16.5-.87.46-1.76-.09-2.57-.45-.66-.8-1.3-.8-2.12 0-1.48.24-3.3 1.17-4.5.2-.26.53-.42.84-.42.24 0 .47.1.65.3.62.68.5 2.17.34 3.08a.14.14 0 0 1-.12.11l-.89.1c-.06 0-.1-.02-.08-.09.04-.32.13-1.13-.03-1.4a.18.18 0 0 0-.15-.1.18.18 0 0 0-.16.1c-.31.54-.4 1.1-.26 1.66.11.44.52.95.77 1.37.4.68.56 1.41.48 2.2-.15 1.5-.4 3.1-1.48 4.16-.23.22-.73.5-1.15.51-.2 0-.39-.07-.5-.26a1.6 1.6 0 0 1-.27-.71 9.42 9.42 0 0 1 .21-2.85l.03-.01 1.1-.3h.02v.02c-.06.59-.11 1.03-.13 1.34-.01.14.02.3.08.47a.1.1 0 0 0 .1.07ZM25.75 31.81l.05-4.76c0-.04.01-.05.04-.05h.94c.02 0 .03.02.03.04l-.16 8.6a.1.1 0 0 1-.03.08.1.1 0 0 1-.08.03l-1.05-.02a.1.1 0 0 1-.06-.02 132 132 0 0 1-.66-4.55h-.04l-.01.02a60.39 60.39 0 0 1-.12 4.59l-1 .1c-.03 0-.04 0-.04-.03l.35-8.8c0-.02.03-.04.05-.04h1.05c.02 0 .04 0 .05.02a.1.1 0 0 1 .03.06l.61 4.74h.04ZM34.65 32.6l-.05-.03c-.19-.08-.28-.02-.27.2l.03 3.21c0 .05-.02 0-.07 0l-1.2-.03c-.06 0-.09-.04-.09-.1V27.1c0-.05.04-.1.09-.1h1.48c.55 0 .93.5 1.16 1.03.39.88.53 2.75-.1 3.65a.1.1 0 0 0 0 .12c.3.48.46.96.5 1.43l.15 2.03a3.1 3.1 0 0 0 .27 1.02v.02l-.02.02h-.02l-1.27-.16c-.05 0-.07-.03-.08-.08-.08-.6-.12-.99-.12-1.17 0-.57-.03-1.18-.09-1.83a.6.6 0 0 0-.1-.29c-.07-.08-.1-.15-.2-.2Zm-.43-3.68v1.9c0 .05.05.1.1.1h.06c.25 0 .42-.23.48-.45a.9.9 0 0 0 .04-.28l-.03-.7c0-.26-.18-.7-.5-.69-.07 0-.15.02-.15.12ZM17.45 32.94l-.32 3.44h-.01l-1.13.33h-.03l-.02-.02-.02-.02v-.03l.88-9.57c0-.05.03-.07.07-.07h1.41c1.01.01 1.27.94 1.3 1.85.05 1.45-.14 3.84-2 3.96a.13.13 0 0 0-.1.04.14.14 0 0 0-.03.09Zm.38-4.26L17.59 31v.01h.01c.1.02.19 0 .27-.03a.67.67 0 0 0 .23-.15.86.86 0 0 0 .17-.26 1 1 0 0 0 .09-.3l.07-.7a.95.95 0 0 0-.14-.6.62.62 0 0 0-.44-.3h-.02v.01ZM13.9 35.03c0 .07.02.1.08.08l1.39-.32c.06-.01.1.01.08.08l-.21 1.88-.02.04a.08.08 0 0 1-.04.03l-2.65.75a.06.06 0 0 1-.06-.02l-.02-.02v-.04l1.19-10.43c0-.04.02-.06.06-.06h2.38c.05 0 .09.02.11.07.02.04.02.08 0 .12a.27.27 0 0 0-.02.09l-.15 1.6-.02.04a.07.07 0 0 1-.04.02l-1.38.15h-.02v.02l-.2 1.67a.08.08 0 0 0 .03.06l.02.02h.04l1.24-.13h.04v.05l-.2 1.83a.2.2 0 0 1-.05.1.15.15 0 0 1-.09.05l-1.16.18c-.06 0-.1.04-.1.1l-.23 2ZM42.41 35.45c.1-.27.07-.8.04-1.26-.07-.9-.28-3.3-.63-7.14 0-.02.02-.05.04-.05h1.03c.03 0 .05.03.05.05l.68 7.14c.09.94.46 3.8-1.32 3.3-1.46-.41-1.68-2.45-1.79-3.73-.14-1.64-.3-3.88-.51-6.72 0-.02.01-.04.03-.04h1.06c.02 0 .03.02.03.04l.5 6.12c.05.6.13 1.23.24 1.9.04.2.13.36.29.47a.17.17 0 0 0 .15.03c.03 0 .05-.02.07-.04a.18.18 0 0 0 .04-.07ZM45.48 34c-.05 0-.07.02-.07.07l.6 4.93-1.22-.4c-.02 0-.03-.02-.03-.04L43.5 27.08v-.03l.02-.02.02-.02H44.94c.57.04 1 .39 1.26.95.63 1.35.8 2.98.8 4.48 0 .43-.08.78-.2 1.08-.27.65-.76.6-1.32.49Zm-.62-4.86.34 2.82v.01h.01c.18-.01.34-.14.44-.33.1-.2.15-.45.12-.7l-.12-.95a1.32 1.32 0 0 0-.09-.36c-.05-.11-.1-.21-.18-.29a.7.7 0 0 0-.24-.18.5.5 0 0 0-.26-.04h-.01v.01h-.01v.01Z" fill="#006634"/></svg>