<!-- by TradingView --><svg width="56" height="56" viewBox="0 0 56 56" xmlns="http://www.w3.org/2000/svg"><path fill="#F0F3FA" d="M0 0h56v56H0z"/><path d="M29.04 22.05a8 8 0 0 0-1.1 13.15 10 10 0 1 1 1.1-13.15Z" fill="#00612F"/><circle cx="9.5" cy="28.5" r=".5" fill="#F6351D"/><path d="M25.48 31.5C22.52 32.67 14.78 34 11 34c-2.29 0-2.93-1.28-3-2.5-.04-.73 0-1.5 1-2.5-.5 2-.1 3.13 2.5 3.5C15 33 22.69 27.67 26 25c-1.25 2-.87 5.5-.52 6.5Z" fill="#F7E017"/><path d="M12 32c-2 0-3-1.5-3-2.5.5.5.6 2 3 2s11.33-5.5 15-8l-.5 1C22.83 26.83 14 32 12 32Z" fill="#F7E017"/><path d="M48 26.83H46.4c0-.22-.02-.4-.08-.58a1.13 1.13 0 0 0-.68-.7c-.17-.06-.36-.1-.56-.1-.4 0-.77.11-1.1.32-.34.2-.63.5-.86.9-.23.4-.38.87-.47 1.43-.09.54-.08.99.01 1.35.1.36.27.63.5.82.25.18.56.27.92.27a2.04 2.04 0 0 0 1.2-.35 1.88 1.88 0 0 0 .73-.96h1.6A3.83 3.83 0 0 1 44 32a3.1 3.1 0 0 1-1.76-.49 2.7 2.7 0 0 1-1.05-1.4 4.54 4.54 0 0 1-.12-2.2c.13-.84.4-1.55.79-2.13a3.79 3.79 0 0 1 4.46-1.59c.36.13.66.31.92.56.26.24.45.53.58.88.13.35.18.75.17 1.2ZM34 32l1.2-8H40l-.21 1.4h-3.27l-.28 1.9h2.95l-.22 1.4h-2.94l-.5 3.3H34ZM31.54 26.37c.01-.32-.07-.56-.25-.74-.17-.17-.44-.25-.8-.25-.24 0-.46.03-.63.11-.18.07-.33.18-.44.3a.9.9 0 0 0-.2.46.66.66 0 0 0 .03.36c.05.1.11.2.2.27.1.07.21.14.34.2.13.05.27.1.41.13l.6.17c.3.07.57.18.8.3.24.13.44.29.6.47.17.19.28.4.35.65a2.66 2.66 0 0 1-.49 2.1c-.27.35-.62.62-1.05.81-.44.2-.95.29-1.52.29-.57 0-1.05-.1-1.44-.29-.4-.2-.68-.48-.86-.85a2.55 2.55 0 0 1-.16-1.41h1.44c-.02.26.01.47.1.65.1.17.25.3.44.4.19.08.41.12.67.12.25 0 .48-.04.68-.12.2-.08.36-.2.48-.34.13-.14.2-.31.23-.5a.62.62 0 0 0-.07-.44.89.89 0 0 0-.37-.3 3.06 3.06 0 0 0-.61-.23l-.74-.21c-.57-.16-1-.41-1.3-.75-.28-.34-.39-.8-.3-1.37.07-.47.25-.89.53-1.24s.64-.63 1.07-.82a3.4 3.4 0 0 1 2.75 0c.36.2.63.47.8.83.16.35.2.77.14 1.24h-1.43Z" fill="#00612F"/></svg>