<!-- by TradingView --><svg width="56" height="56" viewBox="0 0 56 56" xmlns="http://www.w3.org/2000/svg"><path fill="#F0F3FA" d="M0 0h56v56H0z"/><path d="M35.48 9.2c-.03 2.26-.15 5.26-1.25 7a9.5 9.5 0 0 1-2.15 2.37c-.61.49-1.04.98-1.29 1.46-.36.73-.5.7-.38-.12.09-.6.17-1.15.26-1.62.31-1.71.98-2.77 2.25-4.38.47-.6 1.06-1.65 1.75-3.15.18-.39.28-.68.3-.86.02-.31.12-.57.3-.79.14-.17.21-.14.21.08Z" fill="#FCCB0A"/><path d="M24.74 21.06c.14.21.22.19.23-.07.04-2.1.74-3.82 2.36-5.18 1-.82 1.56-1.42 1.98-2.39.26-.57.35-.55.3.08-.12 1.3-.37 3.16-1.1 4.15-.29.38-.5.6-.63.7-1.1.73-2 1.65-2.7 2.74a.95.95 0 0 1-.17.2.2.2 0 0 0-.07.23c.2.72.58 1.49 1.13 2.3.2.29.3.26.3-.09 0-1.32.5-2.09 1.49-2.96.56-.5 1-1.09 1.32-1.78a.12.12 0 0 1 .13-.07c.02 0 .05.02.06.04.02.01.03.04.04.06.16 1.05-.16 3.03-1.17 3.64-.7.42-1.27.92-1.7 1.48a.24.24 0 0 0-.03.27c1.61 3.33 1 6.65-.32 9.97-.06.13-.08.13-.08-.02 0-.33.01-.74.05-1.23.18-2.24-.99-4.67-2.2-6.62-1.28-2.02-.52-6.25.24-8.45.1-.25.14-.24.14.02 0 .58-.1 2.26.4 2.98Z" fill="#427842"/><path d="M35.8 17.85c0 2.56-1.5 4.67-3.63 5.99-.88.54-1.6 1.1-2.16 1.68-.43.46-.56.38-.38-.22.36-1.21.82-2.28 1.38-3.2.76-1.24 2.13-2.3 3.19-3.2.29-.26.77-.96 1.42-2.1.05-.09.12-.1.2-.06l.07.06.02.09c-.07.53-.11.85-.11.96Z" fill="#FCCB0A"/><path d="M20.28 43.83c-.28.1-.67.5-1.17 1.16h-.04v-.02l-.04-.2a.25.25 0 0 1 .05-.2 36.63 36.63 0 0 0 3.17-5.21c1.08-2.14.39-3.15-.67-5.55-.55-1.25-.99-2.4-1.32-3.44-.9-2.82.8-6.38 2.47-8.76.02-.03.05-.03.07 0l.03.09v.06c-.73 1.85-.96 3.96-.07 5.77a25.4 25.4 0 0 1 2.16 6.02c.27 1.3.1 1.94-.49 3.35-.17.4-.46.94-.87 1.61a27.44 27.44 0 0 0-2.44 4.8c-.03.09-.1.17-.18.22-.19.11-.4.21-.66.3Z" fill="#427842"/><path d="M33.11 28.46c-1.18.74-2.77 1.02-3.85 1.92-.45.37-.58.28-.4-.27a7.5 7.5 0 0 1 1.51-2.6c.9-1 2.2-1.7 3.65-2.65a8.45 8.45 0 0 0 2.2-2.05c.1-.13.15-.12.13.05a6.77 6.77 0 0 1-3.24 5.6ZM35.08 29.68c-.96 2.22-2.32 3.82-4.73 4.37a8.63 8.63 0 0 0-3.23 1.47c-.1.08-.17.08-.23.01a.16.16 0 0 1-.02-.17 8.74 8.74 0 0 1 3.67-4.1c.91-.52 2.21-.87 3.19-1.2.21-.08.67-.38 1.38-.9.06-.05.12-.07.18-.05a2.66 2.66 0 0 1 .13.05l.02.04a.1.1 0 0 1 0 .05l-.03.04-.2.2a.7.7 0 0 0-.13.2Z" fill="#FCCB0A"/><path d="m40.48 33.74-3.77.51a.3.3 0 0 1-.32-.17 4.71 4.71 0 0 0-1.7-1.94.28.28 0 0 1-.11-.17.27.27 0 0 1 .03-.2l1.16-2c.05-.1.13-.12.23-.08 2.02.81 3.58 2.02 4.67 3.6.18.26.12.4-.2.45ZM19.54 31.13c.06-.04.11-.03.14.04l1.06 2.62c.03.07.02.16-.02.27-.04.14-.2.49-.5 1.05-.77 1.53-.15 3.12.96 4.3a.35.35 0 0 1 .05.42L19.97 42a.23.23 0 0 1-.3.1c-1.2-.59-2.78-1.55-3.54-2.5-2.2-2.74-.93-5.36 1.62-7.24.6-.45 1.2-.86 1.79-1.22Z" fill="#F68220"/><path d="M31.76 35.44c.54-.3 1.17-.68 1.88-1.16.25-.17.33-.1.23.18a7.52 7.52 0 0 1-4.13 4.6c-.5.22-1.3.4-2.42.52-.93.1-1.88.28-2.87.54a.52.52 0 0 1-.22.03.2.2 0 0 1-.14-.13.2.2 0 0 1 .02-.18c1.22-1.76 3.16-3.28 5.06-3.65a9.72 9.72 0 0 0 2.59-.75Z" fill="#FCCB0A"/><path d="M23.3 41.12c.14-.25.34-.31.6-.2 2.03.95 4.96.86 7.15.53 2.89-.44 4.8-1.54 6.58-3.58a.43.43 0 0 1 .27-.14l2.93-.4a.15.15 0 0 1 .17.15c0 .03-.01.06-.03.08-.54.7-1.28 1.42-2.23 2.18a17.33 17.33 0 0 1-12.3 3.94c-.84-.05-2.11-.24-3.82-.56-.29-.06-.36-.21-.21-.47l.89-1.53Z" fill="#F68220"/></svg>