<!-- by TradingView --><svg width="56" height="56" viewBox="0 0 56 56" xmlns="http://www.w3.org/2000/svg"><path fill="#F0F3FA" d="M0 0h56v56H0z"/><path d="M9.13 25.46 7 26.6 30.4 39l2.12-1.13-23.4-12.4ZM25.6 17l-2.12 1.13 23.4 12.4L49 29.42 25.6 17Z" fill="#0063B2"/><path d="M9.13 31.1 7 29.41 30.4 17l2.12 1.13L9.12 31.1ZM24.54 39l-2.12-1.7L45.8 24.9l2.13 1.13L24.54 39Z" fill="#0063B2"/><path d="M34 26v4h-.59l-1.72-2.72h-.03V30H31v-4h.6l1.71 2.73h.03V26H34ZM27 30v-4h2.5v.6h-1.8v1.1h1.8v.6h-1.8V30H27ZM24.27 27.12a.52.52 0 0 0-.23-.39.87.87 0 0 0-.51-.13.98.98 0 0 0-.38.06c-.1.05-.19.1-.24.18a.44.44 0 0 0-.03.47.5.5 0 0 0 .15.16l.22.1.23.07.37.09c.15.03.3.08.43.14.13.06.26.13.36.22.11.09.2.2.26.32.07.12.1.27.1.44a1.05 1.05 0 0 1-.68 1 2 2 0 0 1-.8.15c-.3 0-.57-.05-.8-.14-.22-.1-.4-.23-.52-.41-.12-.18-.19-.4-.2-.66h.7c0 .14.05.25.12.34.08.09.17.16.3.2.11.05.24.07.4.07.15 0 .28-.02.4-.07.11-.05.2-.11.27-.2.07-.08.1-.17.1-.29 0-.1-.03-.18-.09-.25a.66.66 0 0 0-.24-.16c-.1-.05-.23-.09-.37-.13l-.45-.1a1.8 1.8 0 0 1-.76-.38.86.86 0 0 1-.28-.67 1 1 0 0 1 .19-.6c.13-.18.3-.31.51-.4.22-.1.46-.15.74-.15.28 0 .52.05.73.14.2.1.37.23.5.4.11.17.17.36.18.58h-.68Z" fill="#ED141C"/></svg>