<!-- by TradingView --><svg width="56" height="56" viewBox="0 0 56 56" xmlns="http://www.w3.org/2000/svg"><path fill="#F0F3FA" d="M0 0h56v56H0z"/><path fill-rule="evenodd" d="M44.6 27.17 28.83 11.4a1.17 1.17 0 0 0-1.66 0L11.4 27.17c-.46.46-.46 1.2 0 1.66L27.17 44.6c.46.46 1.2.46 1.66 0L44.6 28.83c.46-.46.46-1.2 0-1.66ZM29.57 10.65a2.23 2.23 0 0 0-3.14 0L10.65 26.43a2.23 2.23 0 0 0 0 3.14l15.78 15.78c.87.87 2.27.87 3.14 0l15.78-15.78c.87-.87.87-2.27 0-3.14L29.57 10.65Z" fill="#0266AE"/><path d="m25.5 31.5-1.5-2h15l-.5 1-8.5 1-2 5.5h-2.5l2-5.5h-2ZM27 28.5h-4.5c0-1.2 1-1.5 1.5-1.5h.5l.5-1 1-.5V25h-1c.4-1.2 2.17-2.17 3-2.5l2 1.5v1.5l2.5 1c.8.4 1 .83 1 1H35v1h-6V27h-2v1.5Z" fill="#0266AE"/><path d="M35 22.5V24c-1.5-1-4.1-2-7-2-2.5 0-7 1.5-7 5 0 2.8 3.33 5.17 5 6l-.5 2c-4-1-7.5-5-7.5-8s3.5-6.5 9-6.5c4.4 0 7.17 1.33 8 2ZM29.5 33.5V35c2.4 0 4.33-1 5-1.5v-2c-2 1.6-4.17 2-5 2Z" fill="#0266AE"/></svg>