<!-- by TradingView --><svg width="56" height="56" viewBox="0 0 56 56" xmlns="http://www.w3.org/2000/svg"><path fill="#F0F3FA" d="M0 0h56v56H0z"/><circle cx="28" cy="28" r="16" fill="#FFDE00"/><path d="M28.45 20.3c.09-.75-.13-1.4-1.03-1.32-.77.07-1.71.57-1.86 1.42-.37 2.2 4.67.3 4.82 2.92a2.68 2.68 0 0 1-1.11 2.43c-1.2.91-3.32 1.57-4.73.79-.35-.2-.57-.47-.64-.84-.2-1.02.48-1.63 1.53-1.44.1.02.14.08.11.18-.28 1 .49 1.52 1.4 1.35.76-.15 1.31-.56 1.67-1.24.5-.95-.53-1.4-1.28-1.45-.61-.03-1.29-.12-2.01-.27-1.44-.28-1.78-1.56-1.18-2.75.76-1.5 2.91-2.24 4.51-2.09.68.07 1.1.31 1.28.74.4.95-.21 1.93-1.28 1.81a.22.22 0 0 1-.2-.25Z" fill="#ED2329"/><path d="M34.95 18.66v.46c0 .1-.04.13-.11.05-.37-.37-.83-.5-1.37-.4-3.36.6-3.64 7.26-.31 6.36.71-.2 1.27-.63 1.67-1.3.1-.16.16-.15.2.03.07.39.32.56.75.53.68-.05 1.1-.42 1.25-1.09a.12.12 0 0 0-.03-.1.12.12 0 0 0-.11-.05c-.34.04-.53-.12-.57-.49-.02-.28-.03-1.74-.02-4.37 0-.19-.08-.26-.27-.2l-.8.21c-.19.05-.28.17-.28.36ZM33.14 24c-.73-.14-1.14-1.22-.9-2.4.22-1.18 1-2.03 1.73-1.89.73.15 1.13 1.22.9 2.4-.23 1.19-1 2.03-1.73 1.89ZM41.07 29.96c.1-.17.16-.16.16.04.01 1.04-.04 1.95-.86 2.66-.83.74-1.63.58-2.6.22a.2.2 0 0 0-.26.25c.18.5.54.82 1.09.97 1.81.5 3.1-.32 3.72-1.96.17-.46.25-.9.26-1.3V24.4c0-.18-.09-.25-.27-.2l-.83.22c-.17.05-.26.16-.26.34v.52c0 .1-.03.12-.1.05-.4-.4-.88-.54-1.47-.44-3.24.56-3.6 7.25-.22 6.34.72-.2 1.23-.64 1.64-1.27Zm-1.68.15c-.73-.15-1.14-1.22-.9-2.4.23-1.19 1.01-2.03 1.75-1.88.73.14 1.14 1.22.9 2.4-.23 1.18-1.02 2.02-1.75 1.88Z" fill="#ED2329"/><path d="M32.86 27.79c.02.1.06.1.1 0 .3-.62.73-1.09 1.3-1.4.98-.54 2-.23 2.03 1.02.02.54.02 1.49.02 2.86 0 .37.08.72.54.64a.13.13 0 0 1 .14.07l.01.06c.03 1.04-1.95 1.8-2 .36l-.07-3.24c0-.72-.61-.85-1.09-.4a3.11 3.11 0 0 0-.94 1.97c-.06.5-.08 1.5-.05 2.96a.34.34 0 0 1-.25.34l-.85.23c-.18.05-.27-.02-.27-.21.02-1.92.02-3.36 0-4.32-.01-.37-.18-.54-.5-.53a.18.18 0 0 1-.19-.2c.07-.38.27-.66.6-.85.4-.22.9-.39 1.24.02.14.16.19.42.23.62ZM23.13 28.5a.67.67 0 1 0 0-1.34.67.67 0 0 0 0 1.34ZM20.25 33.4l-.52.14c-.15.04-.22-.02-.22-.18v-.44a.49.49 0 0 1 .36-.47l1.65-.45a.13.13 0 0 1 .11.02.13.13 0 0 1 .06.1l.01 2.23a.9.9 0 0 1-.16.57 5.36 5.36 0 0 1-2.57 1.78c-1.69.56-3.36.12-3.95-1.67a5.95 5.95 0 0 1 .54-4.47 5.3 5.3 0 0 1 4.11-2.67c.5-.05 1.17.1 1.54.43.46.4.59.96.4 1.7a.82.82 0 0 1-.62.62l-.3.08c-.33.1-.49-.03-.46-.37.06-.63-.18-1.32-.9-1.34-1.43-.05-2.5 1.17-2.83 2.45-.31 1.2-.37 2.7.48 3.59.98 1.03 2.41.32 3.32-.5a.19.19 0 0 0 .06-.14v-.93c0-.08-.04-.1-.1-.08ZM28.69 28.11v.47c0 .1-.04.12-.11.04-.37-.36-.83-.5-1.37-.4-3.35.6-3.62 7.26-.3 6.35.7-.2 1.26-.63 1.66-1.3.1-.15.16-.14.2.04.07.38.33.56.75.53.68-.06 1.1-.42 1.24-1.1a.12.12 0 0 0-.13-.14c-.34.04-.53-.12-.57-.5-.02-.27-.03-1.72-.02-4.35 0-.2-.09-.26-.27-.21l-.81.22c-.18.05-.27.17-.27.35Zm-1.82 5.34c-.73-.14-1.13-1.21-.9-2.4.23-1.18 1.01-2.02 1.74-1.88.73.14 1.13 1.22.9 2.4-.23 1.18-1.01 2.03-1.74 1.88Z" fill="#ED2329"/><path d="M24.26 34.27c.05-.02.08-.03.1-.02a.2.2 0 0 1 .09.05l.06.1v.13a.4.4 0 0 1-.03.13c-.23.49-.6.78-1.08.86-.57.1-.93-.27-.93-.82v-4.93c0-.18.09-.3.27-.34l.8-.22c.2-.06.29.02.29.21v4.41c0 .21.1.36.28.44.05.02.1.02.15 0Z" fill="#ED2329"/></svg>