<!-- by TradingView --><svg width="56" height="56" viewBox="0 0 56 56" xmlns="http://www.w3.org/2000/svg"><path fill="#F0F3FA" d="M0 0h56v56H0z"/><path d="M35 35v-5h1v2.3h.06l1.83-2.3h1.1l-1.92 2.24L39 35h-1.08l-1.47-2.14-.45.65V35h-1ZM20 35v-5h2.05c.39 0 .71.06.97.17a1.18 1.18 0 0 1 .77 1.13c0 .2-.04.37-.13.52-.08.14-.2.26-.33.35-.14.09-.3.15-.48.2v.04a1.22 1.22 0 0 1 .98.58c.11.18.17.4.17.65 0 .26-.07.49-.2.7-.14.2-.34.36-.6.48-.28.12-.62.18-1.03.18H20Zm1-.76h1.02c.35 0 .6-.06.76-.18a.6.6 0 0 0 .23-.5.71.71 0 0 0-.11-.4.8.8 0 0 0-.34-.28c-.14-.07-.32-.1-.52-.1H21v1.46Zm0-2.11h.93c.17 0 .32-.03.45-.09a.75.75 0 0 0 .32-.25c.08-.1.12-.23.12-.38a.6.6 0 0 0-.22-.47c-.15-.13-.36-.2-.65-.2H21v1.39ZM50 29v-5h1v4.24h2V29h-3ZM45.83 29H45l1.52-5h.96L49 29h-.83l-1.15-3.97h-.04L45.83 29Zm.03-1.96h2.27v.73h-2.27v-.73ZM44 24v5h-.9l-2.06-3.4H41V29h-1v-5h.9l2.06 3.4H43V24h1ZM39 26.5c0 1.2-.64 2.5-2 2.5-1.36 0-2-1.3-2-2.5s.64-2.5 2-2.5c1.36 0 2 1.3 2 2.5Zm-1 0c0-.75-.1-1.7-1-1.7s-1 .95-1 1.7c0 .76.1 1.7 1 1.7s1-.94 1-1.7ZM29 32.5c0 1.2-.64 2.5-2 2.5-1.36 0-2-1.3-2-2.5s.64-2.5 2-2.5c1.36 0 2 1.3 2 2.5Zm-1 0c0-.75-.1-1.7-1-1.7s-1 .95-1 1.7c0 .76.1 1.7 1 1.7s1-.94 1-1.7ZM34 32.5c0 1.2-.64 2.5-2 2.5-1.36 0-2-1.3-2-2.5s.64-2.5 2-2.5c1.36 0 2 1.3 2 2.5Zm-1 0c0-.75-.1-1.7-1-1.7s-1 .95-1 1.7c0 .76.1 1.7 1 1.7s1-.94 1-1.7ZM34 24v5h-1v-5h1ZM28 24.76V24h4v.76h-1.5V29h-1v-4.24H28ZM24.83 29H24l1.52-5h.96L28 29h-.83l-1.15-3.97h-.04L24.83 29Zm.03-1.96h2.27v.73h-2.27v-.73ZM23 25.7h-1c-.09-.54-.35-.9-.9-.9-.93 0-1.1.92-1.1 1.7 0 .79.17 1.7 1.09 1.7.54 0 .82-.34.91-.88h1A1.91 1.91 0 0 1 21.08 29C19.7 29 19 27.75 19 26.5s.7-2.5 2.08-2.5c1.01 0 1.8.7 1.92 1.7ZM17 24h1v3.22c0 1.12-.94 1.78-2 1.78s-2-.66-2-1.78V24h1v3.14c0 .64.38 1.06 1 1.06s1-.42 1-1.06V24ZM10.64 29H9v-5h1.68c1.46 0 2.32 1.09 2.32 2.5 0 1.42-.88 2.5-2.36 2.5Zm-.64-.78h.6c1.04 0 1.4-.74 1.4-1.72 0-.96-.34-1.72-1.37-1.72H10v3.44ZM5 29v-5h3v.76H6v1.36h2v.76H6v1.36h2V29H5Z"/></svg>