<!-- by TradingView --><svg width="56" height="56" viewBox="0 0 56 56" xmlns="http://www.w3.org/2000/svg"><path fill="#F0F3FA" d="M0 0h56v56H0z"/><path d="m36.4 25 3.34 4.24V26.3c0-.4-.06-.69-.17-.83-.16-.2-.43-.29-.8-.28V25H41v.19c-.29.03-.48.08-.58.14a.58.58 0 0 0-.23.3c-.05.12-.08.35-.08.67V32h-.17l-4.58-5.7v4.5c0 .4.1.67.27.8.18.14.38.21.61.21h.16V32H34v-.19c.37 0 .63-.08.78-.23.15-.15.22-.4.22-.77v-4.99l-.15-.18c-.14-.18-.27-.3-.38-.36a1.13 1.13 0 0 0-.47-.1V25h2.4ZM25.75 25v2.36h-.17a3.01 3.01 0 0 0-.95-1.47c-.42-.33-.88-.5-1.37-.5-.48 0-.88.14-1.2.42-.31.28-.53.67-.67 1.18a6.08 6.08 0 0 0 .02 3.23c.15.48.38.84.7 1.07.32.22.7.34 1.15.34a2.33 2.33 0 0 0 .96-.2v-1.4c0-.26-.01-.47-.05-.54a.48.48 0 0 0-.21-.21.76.76 0 0 0-.4-.1h-.16V29h3.1v.18c-.24.02-.4.05-.5.1a.49.49 0 0 0-.2.26c-.03.06-.05.25-.05.5v1.38a5.96 5.96 0 0 1-2.64.58c-.6 0-1.1-.09-1.5-.26-.4-.17-.76-.4-1.07-.68a3.24 3.24 0 0 1-1.04-2.47A3.52 3.52 0 0 1 23.05 25c.32 0 .6.03.86.08.14.03.36.1.67.23.3.12.5.18.55.18.09 0 .17-.03.24-.1.08-.07.15-.2.2-.39h.18ZM19.19 31.8v.2h-3v-.2h.19c.16 0 .3-.03.4-.1a.46.46 0 0 0 .17-.25c.03-.08.05-.3.05-.65v-4.6c0-.36-.02-.58-.05-.67a.47.47 0 0 0-.2-.24.63.63 0 0 0-.37-.1h-.2V25h3v.2H19c-.17 0-.3.03-.4.1a.48.48 0 0 0-.18.25c-.03.08-.04.3-.04.65v4.6c0 .36.01.58.04.67.04.1.1.17.2.24.09.07.22.1.38.1h.19ZM12.56 30h-2.32l-.28.72c-.1.22-.14.4-.14.55 0 .19.08.33.23.42.08.06.3.1.64.12V32H8.5v-.19a.97.97 0 0 0 .58-.3c.16-.17.34-.51.57-1.04L12 25h.1l2.37 5.62c.23.54.42.87.56 1.01.11.1.27.17.47.18V32h-3.19v-.19h.13c.26 0 .44-.03.54-.1.07-.06.1-.14.1-.24a.64.64 0 0 0-.02-.19c0-.03-.06-.16-.15-.38l-.35-.9Zm-.16-.33-.98-2.36-1.01 2.36h1.99ZM8.5 25l.06 2.23h-.22c-.1-.56-.35-1-.75-1.35-.4-.34-.82-.51-1.29-.51-.35 0-.64.09-.85.27a.8.8 0 0 0-.3.62c0 .15.03.28.1.4.1.15.27.3.49.45.17.11.55.3 1.14.58.84.38 1.4.75 1.69 1.09.29.34.43.73.43 1.17 0 .56-.23 1.04-.7 1.45-.46.4-1.05.6-1.77.6-.22 0-.43-.02-.63-.06-.2-.05-.45-.13-.75-.25a1.2 1.2 0 0 0-.42-.1c-.09 0-.19.04-.29.1a.7.7 0 0 0-.25.3H4v-2.52h.2c.15.71.44 1.25.88 1.63.44.37.92.55 1.43.55.39 0 .7-.1.93-.3a.9.9 0 0 0 .36-.7.86.86 0 0 0-.14-.46 1.43 1.43 0 0 0-.4-.41c-.19-.14-.51-.31-.97-.53a8.5 8.5 0 0 1-1.4-.76c-.29-.21-.5-.45-.66-.7a1.77 1.77 0 0 1 .4-2.22c.42-.38.94-.57 1.58-.57a2.85 2.85 0 0 1 1.27.3c.24.1.4.16.5.16a.3.3 0 0 0 .22-.08c.05-.05.1-.18.14-.38h.16Z" fill="#19407D"/><circle cx="30.5" cy="28.5" r="3.5" fill="#ED1C24"/><path d="M48.04 20c-1.7 0-4.66 1.83-5.92 3.2 1.26-.91 4.06-2.38 5.07-.91 1.02 1.46-1.27 3.96-2.54 5.02v.46c3.05-.73 3.81.3 3.81.92 0 2.19-5.64 5.79-8.46 7.31 5.5-.46 11-5.03 11-7.77 0-2.2-2.26-2.44-3.38-2.29.56-.91 1.77-3.01 2.11-4.11.28-.92-.32-1.83-1.7-1.83Z" fill="#19407D"/></svg>