<!-- by TradingView --><svg width="56" height="56" viewBox="0 0 56 56" xmlns="http://www.w3.org/2000/svg"><path fill="#0F673B" d="M0 0h56v56H0z"/><path d="M22.88 19c-.15.45.08.73.32 1.08.07.1.1.22.08.34-.35 2.64.71 5.12 2.36 7.2.22.27.16.34-.17.22-2.82-1.02-4.69-2.61-5.6-4.76-2.25-5.3 1.78-11.09 7.87-11.08 3.08 0 5.56 1.4 7.42 4.18a.14.14 0 0 1-.03.2.16.16 0 0 1-.07.02c-6.53 1.25-9.2 5.05-8.38 11.21.02.15-.03.17-.13.06a9.35 9.35 0 0 1-2.74-6.74c0-.15.06-.3.16-.4.1-.12.24-.19.39-.21.82-.14 1.06-1.17.61-1.7a1.2 1.2 0 0 0-2.09.37Z" fill="#FBDA05"/><path d="M36 20.78c-.5.02-.7.3-.97.63a.53.53 0 0 1-.32.19c-2.74.53-4.86 2.29-6.4 4.44-.2.28-.3.25-.28-.09.1-2.86 1.1-5.05 2.94-6.56 4.56-3.73 11.62-1.97 13.57 3.51.98 2.78.4 5.45-1.78 8.02a.16.16 0 0 1-.06.04.17.17 0 0 1-.14 0 .15.15 0 0 1-.05-.06c-3.34-5.47-7.99-6.64-13.87-3.93-.14.06-.17.03-.1-.1a10.02 10.02 0 0 1 5.84-4.63.7.7 0 0 1 .45.01c.15.06.26.16.34.28.4.7 1.5.59 1.9.01.56-.82-.03-1.78-1.06-1.76ZM16.88 30.22c.4.28.75.17 1.18.07a.56.56 0 0 1 .37.03c2.52 1.17 5.33 1 7.93.2.34-.12.4-.04.17.23-1.92 2.2-4.1 3.37-6.55 3.5-6.01.31-10.48-5.17-8.5-10.66 1-2.77 3.18-4.55 6.55-5.33a.17.17 0 0 1 .14.03.15.15 0 0 1 .05.13c-.86 6.28 2.07 9.9 8.48 11.16.15.03.15.08.01.14a10.64 10.64 0 0 1-7.6.29.67.67 0 0 1-.35-.27.58.58 0 0 1-.09-.42c.14-.79-.81-1.33-1.5-1.1-.97.32-1.13 1.42-.3 2Z" fill="#FBDA05"/><path d="M38.45 33.16c-.17-.44-.53-.53-.94-.68a.52.52 0 0 1-.29-.22c-1.42-2.3-3.85-3.64-6.49-4.32-.35-.1-.35-.19 0-.29 2.89-.82 5.38-.64 7.49.53 5.18 2.9 5.7 9.81.87 13.34-2.44 1.78-5.3 2.11-8.56 1a.16.16 0 0 1-.06-.05.14.14 0 0 1-.04-.13c.01-.02.02-.05.04-.06 4.37-4.78 4.04-9.33-.56-13.74-.1-.11-.08-.15.07-.13 2.71.47 4.88 1.73 6.49 3.76.1.12.14.26.14.4a.6.6 0 0 1-.17.4c-.57.59-.1 1.54.6 1.7 1 .25 1.77-.58 1.41-1.5Z" fill="#FBDA05"/><path d="M26.9 39.36c.4-.3.37-.65.37-1.07 0-.13.05-.23.13-.33 1.83-2 2.39-4.63 2.22-7.23-.02-.34.07-.37.28-.09 1.75 2.33 2.38 4.63 1.89 6.9-1.22 5.6-7.94 8.3-13 5.08-2.56-1.62-3.81-4.08-3.74-7.37 0-.02 0-.05.02-.07a.15.15 0 0 1 .05-.05.16.16 0 0 1 .14-.02c6.16 2.4 10.59.63 13.5-4.92.07-.13.12-.12.14.02a9.23 9.23 0 0 1-1.64 7.05.67.67 0 0 1-.81.22c-.77-.32-1.57.4-1.51 1.1.08.97 1.16 1.4 1.97.78Z" fill="#FBDA05"/></svg>