<!-- by TradingView --><svg width="56" height="56" viewBox="0 0 56 56" xmlns="http://www.w3.org/2000/svg"><path fill="url(#a)" d="M0 0h56v56H0z"/><path d="M20.13 16c.9.13 1.58.35 2.05.67l1.57 1.07c1 .7 1.71.7 2.98.7l13.98.05c.04 0 .06.01.07.05l.42 1.7c0 .03 0 .05-.05.05h-8.87l-.02.01-.01.03v.02l.02.02c.73.36 1.26.64 1.6.85.21.13.44.19.68.18l6.85-.03c.03 0 .05.01.05.04l.42 1.53c0 .04 0 .06-.04.06H36.3a.04.04 0 0 0-.04.02v.04l.8.94.04.02h4.98c.03 0 .05.01.05.05l.44 1.84c0 .04-.02.09-.07.09h-4.29c-.06 0-.08.03-.05.08l.42.89c0 .02.02.03.04.03h4.14c.03 0 .05.02.06.05l.44 1.87a.06.06 0 0 1-.06.08h-4.1c-.04 0-.06.02-.06.05l.09.9c0 .03.02.05.05.05h4.24c.07 0 .11.03.13.1l.44 1.8c.02.07 0 .1-.07.1h-4.74c-.07 0-.11.04-.13.1-.09.47-.18 1.21-.28 1.6a11.14 11.14 0 0 1-9.6 8.25c-3.29.3-6.15-.69-8.58-2.95a11.2 11.2 0 0 1-3.52-7.21c-.06-.6 0-.93-.03-1.7 0-.06-.03-.09-.09-.09h-3.31c-.06 0-.09-.03-.1-.08l-.47-1.84a.08.08 0 0 1 .02-.06l.02-.02h4.28c.04 0 .06-.03.07-.06l.33-1.29c.02-.03 0-.05-.03-.05h-4.9c-.06 0-.1-.02-.1-.07l-.45-1.8c-.01-.05.01-.08.07-.08l6.4-.05a.1.1 0 0 0 .05-.01.1.1 0 0 0 .04-.04l.62-.84v-.02H12.16c-.04 0-.06-.02-.07-.05l-.42-1.5c-.02-.1.01-.14.1-.14h9.56a.4.4 0 0 0 .24-.08l1.08-.86c.05-.04.04-.06-.02-.06H11.49c-.05 0-.08-.02-.1-.07L10.83 19c-.03-.07 0 0 .07 0 4.81 0 8.34-.02 10.57 0 1.1.01 2.07.3 2.9 1.08.05.05.11.07.18.04l.32-.1c.05-.02.07-.06.03-.11-1.1-1.84-3-1.92-5.02-1.91h-9.33c-.06 0-.1-.02-.11-.07l-.43-1.8V16h10.13Zm7.73 5.97.03-1.75a.1.1 0 0 0-.07-.09h-.04a4.76 4.76 0 0 0-2.98 1.75c-.05.06-.03.1.04.1l2.98.03.03-.01.01-.03Zm.51-.03.01.03.03.01h2.83c.07 0 .08-.02.04-.08a4.52 4.52 0 0 0-2.84-1.7.08.08 0 0 0-.06.08v1.66Zm-4.3.01a8.95 8.95 0 0 1 1.55-1.54h-.02a11.62 11.62 0 0 0-3.43 1.5.04.04 0 0 0 0 .04l.03.01L24 22a.11.11 0 0 0 .09-.04Zm7.94 0a.12.12 0 0 0 .1.05l1.79-.04h.02a.04.04 0 0 0 0-.08 11.68 11.68 0 0 0-3.47-1.47v.02c.58.44 1.1.94 1.56 1.52Zm-10.54.53a.25.25 0 0 0-.17.06 12 12 0 0 0-2.61 3.15v.03a.05.05 0 0 0 .05.03l3.4.01c.06 0 .1-.03.12-.1.35-1.08.81-2.1 1.38-3.06.05-.08.03-.11-.05-.11l-2.12-.01Zm6.41.03v-.02l-.03-.01h-3.5a.1.1 0 0 0-.07.04c-.64.96-1.13 2-1.48 3.13-.02.07 0 .11.08.11h4.92c.05 0 .08-.03.08-.08V22.5Zm5.38 3.07a12.38 12.38 0 0 0-1.43-3.02.17.17 0 0 0-.15-.08h-3.22c-.06 0-.1.03-.1.1v3.1c0 .05.03.08.09.08h4.69c.12 0 .16-.06.12-.18Zm1.37-3.1H32.5c-.09 0-.1.03-.06.1.57.97 1.03 2 1.37 3.1.02.05.06.08.13.08h3.42l.02-.02.01-.03v-.03a12.02 12.02 0 0 0-2.6-3.14.25.25 0 0 0-.17-.06Zm-13.47 4.05c.25.35.38.55.39.6.1.45.21.45.34 0 .06-.2.11-.45.16-.73.01-.07-.02-.11-.1-.11h-3.5c-.05 0-.09.02-.11.08-.55 1.26-.87 2.59-.95 4 0 .07.03.1.1.1h3.45c.12 0 .13-.03.03-.1l-.55-.42a.2.2 0 0 1-.08-.16c0-.3-.15-.49-.44-.57a.2.2 0 0 1-.14-.13l-.26-.8a.1.1 0 0 1 .02-.1l.28-.43.01-.04-.01-.04-.38-.5a.17.17 0 0 0-.2-.08l-.41.1a.17.17 0 0 1-.2-.06l-.03-.05a.1.1 0 0 1 0-.1.1.1 0 0 1 .07-.06c.25-.03.39-.13.4-.32 0-.09.04-.13.13-.12l1.35.13c.06.01.1.04.1.1l.06.2c.01.07.06.1.12.1l.13-.02c.06 0 .09-.03.1-.09l.03-.36c0-.1.04-.1.1-.02Zm5.08 3.3 1.05-.91c.04-.05.07-.1.06-.16l-.04-.45c0-.06.03-.1.1-.1l.36-.04c.03 0 .06-.02.08-.04a.13.13 0 0 0 .04-.09v-1.63c0-.08-.05-.13-.13-.13H23.8c-.07 0-.09.03-.06.1l.08.17c.03.07 0 .12-.07.15l-.15.05c-.07.02-.08.07-.03.13.09.1.07.23-.05.39-.04.04-.07.04-.11 0l-.72-.86c-.05-.06-.09-.05-.11.02l-.11.32c-.04.1-.02.2.06.27l.53.55a.08.08 0 0 1 0 .1c0 .01 0 .02-.02.03-.2.09-.28.22-.22.39.03.07.01.12-.05.15-.32.18-.63.22-.64.67l-.1 1.14c0 .07-.03.11-.08.14a2.4 2.4 0 0 0-.75.73.17.17 0 0 1-.14.08h-3.59c-.06 0-.09.03-.09.1.04 1.4.33 2.74.88 4 .02.06.06.08.11.08h2.38c.07 0 .1.04.1.1v.33a.1.1 0 0 1-.02.07.1.1 0 0 1-.07.03h-2.15l-.02.02a.06.06 0 0 0 0 .05 11.08 11.08 0 0 0 2.5 3.16c.03.03.07.05.11.05h2.23c.12 0 .14-.05.08-.15l-.21-.3c-.05-.07-.03-.11.06-.12l.23-.02a.3.3 0 0 1 .28.13l.28.4a.13.13 0 0 0 .1.06h3.54c.06 0 .08-.03.08-.08v-.43c0-.1.05-.14.14-.15l.27-.03c.05 0 .07.03.07.08v.55a.06.06 0 0 0 .07.06h3.38c.05 0 .1-.02.12-.07l.33-.5c.06-.1.15-.14.25-.14h.25c.12 0 .14.05.08.14l-.3.45c-.04.07-.02.11.07.11h2.23c.06 0 .11-.02.16-.06 1-.9 1.83-1.95 2.46-3.12.03-.06.02-.1-.06-.1h-3a.1.1 0 0 1-.07-.03.1.1 0 0 1-.04-.07l-.02-.3c0-.07.02-.1.1-.1h3.33c.06 0 .1-.03.12-.09.55-1.29.84-2.62.88-4 0-.07-.04-.1-.1-.1H33.9l-.06-.03a.13.13 0 0 1-.05-.05 1.8 1.8 0 0 0-.98-.85 3.55 3.55 0 0 0-3.34.36c-.06.03-.1.03-.15 0a2.94 2.94 0 0 0-2.38-.62l-.68.1c-.1 0-.12-.03-.03-.1ZM29 27.15a.1.1 0 0 1-.04-.1.1.1 0 0 1 .06-.08l1.32-.45c.04-.01.09.02.13.09.03.04.05.12.06.24 0 .05.03.07.07.06l1.28-.1.16-.05c.33-.17.54-.26.96-.13a2.52 2.52 0 0 0 .51.1.08.08 0 0 0 .05-.07v-.04l-.08-.24c-.02-.07-.06-.1-.13-.1h-4.9c-.05 0-.08.02-.08.08-.03.21-.02.38-.02.66-.02.46.47.47.85.45.02 0 .04 0 .06-.02a.09.09 0 0 0 .02-.04.08.08 0 0 0-.03-.1l-.25-.16Zm7.32.3a2.08 2.08 0 0 0-1.07.03.13.13 0 0 0-.05.1v.05c.1.2.27.4.54.61.07.05.06.1-.02.13l-.43.2c-.07.04-.08.1-.05.16l.07.16c.03.06 0 .1-.06.14a.28.28 0 0 1-.2 0 .22.22 0 0 1-.14-.12.54.54 0 0 0-.05-.1c-.06-.07-.08-.05-.07.05.02.2.09.37.21.52.04.04.05.1.06.15 0 .41-.11.7-.35.87-.07.04-.06.07.02.07h3.88a.07.07 0 0 0 .06-.03.08.08 0 0 0 .02-.06c-.1-1.4-.41-2.74-.95-4.01a.13.13 0 0 0-.13-.09h-3.55c-.05 0-.06.03-.05.08l.08.35c.02.04.04.07.08.07l2.09.2c.04.01.07.04.08.08l.08.3c.02.08-.01.1-.1.09Zm-7.75 1.1.02-.23c0-.07-.02-.1-.08-.12-.05-.02-.12.03-.2.13a.32.32 0 0 0 .02.42l.26.26c.04.05.1.05.14 0l.13-.13c.05-.06.1-.05.13.02.1.2.28.29.55.3.07 0 .11-.04.12-.1v-.12c.01-.05-.01-.08-.06-.09l-.16-.01c-.07-.01-.1-.05-.09-.11l.02-.2c0-.06-.02-.1-.08-.1-.17-.04-.3 0-.39.11a.19.19 0 0 1-.14.08h-.09c-.07 0-.1-.04-.1-.12Zm-7.03.69h-.28c-.08 0-.11.04-.11.1v.43c0 .09.04.16.12.2l.13.08c.07.05.1.02.12-.06l.06-.7c0-.03 0-.05-.04-.05Zm7.87.87c.04.03.13-.04.27-.21.12-.14.14-.24.05-.3-.09-.06-.17 0-.25.16-.09.2-.11.32-.07.35Zm-5.45 9.44a.12.12 0 0 0-.1-.05h-1.92l-.03.01-.01.02v.03l.01.02a12.57 12.57 0 0 0 3.69 1.66.02.02 0 0 0 0-.03 9.7 9.7 0 0 1-1.64-1.66Zm3.92 0c0-.01 0-.02-.02-.03l-.03-.01H24.7c-.08 0-.1.03-.05.1a5.03 5.03 0 0 0 3.17 1.88.1.1 0 0 0 .06-.05.1.1 0 0 0 0-.04v-1.85Zm.46.02.02 1.77a.1.1 0 0 0 .03.07.09.09 0 0 0 .07.02 4.83 4.83 0 0 0 2.97-1.85c.05-.06.04-.1-.04-.1l-3.02.05a.04.04 0 0 0-.02.01l-.01.01v.02Zm3.75-.02a9.7 9.7 0 0 1-1.64 1.69h.02a12.61 12.61 0 0 0 3.7-1.68v-.03l-.02-.02h-.03l-1.93-.01a.12.12 0 0 0-.1.05Z" fill="#fff"/><path d="M23 34.07v2.17c0 .33.15.5.46.52h.02c.32.02.5-.13.52-.44l.08-.86c0-.06.03-.09.08-.09h1.68c.07 0 .1.04.11.1.07 1.13-.26 1.91-1 2.36-1.13.69-3.07.42-3.69-.9-.12-.27-.18-.7-.2-1.32a72.67 72.67 0 0 1 0-3.08c.02-.61.09-1.05.2-1.3.63-1.33 2.57-1.6 3.7-.9.74.44 1.07 1.23 1 2.35-.01.07-.05.1-.11.1h-1.68c-.06 0-.09-.03-.1-.08l-.06-.86c-.03-.31-.2-.46-.52-.45h-.02c-.31.02-.47.2-.47.52v2.16Z" fill="#fff"/><path d="M26.14 32.9a3.43 3.43 0 0 0-.55-2.32c-.04-.05-.03-.1.03-.14 1.06-.74 3.44-.72 3.96.73.1.28.15.74.15 1.38 0 .16-.09.24-.25.24h-1.33c-.17 0-.24-.08-.22-.25.02-.17-.01-.43-.1-.77-.06-.28-.23-.4-.51-.37l-.25.04c-.27.1-.39.29-.35.55.05.3.2.55.45.74l1.76 1.38c.84.77 1.1 1.67.77 2.7-.5 1.56-2.97 1.67-4.12.92-.05-.03-.06-.08-.02-.13.51-.77.5-1.07.6-2.16 0-.05.03-.08.08-.08h.32c.05 0 .08.03.08.08 0 .57-.04 1.45.74 1.32 1.03-.16.46-1.21-.06-1.63l-1.77-1.42c-.15-.12-.26-.31-.36-.5-.08-.15-.03-.22.13-.22h.73c.06 0 .09-.03.09-.09Z" fill="#fff"/><path d="M32.08 37.55c-.66.79-1.86.84-2.6.18-.05-.04-.06-.1-.02-.15.69-.93.74-1.92.17-2.96a3.96 3.96 0 0 0-.6-.68.23.23 0 0 1-.06-.15l-.06-.7a.11.11 0 0 1 .03-.07.1.1 0 0 1 .08-.03h.77c.06 0 .09-.04.1-.1a4.45 4.45 0 0 0-.29-2.16.2.2 0 0 1 .08-.25 3.5 3.5 0 0 1 2.62-.42c.75.16 1.24.55 1.48 1.17a6.58 6.58 0 0 1 .05 1.53.09.09 0 0 1-.06.03h-1.6c-.06 0-.1-.03-.1-.1l-.06-.82c-.02-.35-.22-.51-.59-.47h-.02c-.36.03-.54.25-.54.64l.02 4.16c0 .37.18.56.55.56h.02c.35 0 .54-.17.55-.53l.03-.95c0-.09-.04-.13-.12-.13h-.42c-.1 0-.14-.05-.14-.14v-1.2c0-.1.05-.14.14-.14h2.27c.07 0 .1.03.1.1v4.17c0 .09-.03.13-.12.13h-1.4c-.1 0-.14-.05-.14-.14v-.34c0-.13-.04-.14-.12-.04ZM36.25 32.04l.07-.06a.1.1 0 0 1 .12 0l.42.24c.05.03.07.08.07.13l-.03.32c0 .08-.04.1-.1.05-.12-.08-.26-.1-.41-.02-.1.04-.13.01-.12-.09l.02-.2c0-.06-.03-.1-.1-.11l-.34-.07c-.1-.01-.13-.07-.12-.16V32c.01-.09.05-.12.13-.08l.26.12c.04.03.09.02.13 0ZM35.54 34.4c-.12.2-.27.3-.46.31-.05 0-.09-.02-.1-.08l-.26-.8c-.02-.07 0-.12.06-.17.22-.15.37-.34.45-.58.03-.06.07-.1.14-.08h.09c.05.01.1-.01.11-.06.07-.15.2-.2.42-.14.06.02.1.06.1.13-.01.1.01.25.07.42a.1.1 0 0 0 .08.07c.1.02.16-.04.14-.2 0-.05.02-.1.07-.12a.2.2 0 0 1 .1 0c.04 0 .07.01.1.04l.04.08c.04.23.2.43.45.6a.13.13 0 0 1 .05.15l-.3.87c0 .02-.02.04-.05.06a.12.12 0 0 1-.07.02l-.45-.05c-.06 0-.1-.03-.11-.09l-.03-.07c-.02-.06-.06-.09-.12-.09a.42.42 0 0 1-.39-.22c-.04-.07-.08-.07-.13 0Z" fill="#fff"/><defs><linearGradient id="a" x1="10.42" y1="9.71" x2="68.15" y2="76.02" gradientUnits="userSpaceOnUse"><stop stop-color="#1A1E21"/><stop offset="1" stop-color="#06060A"/></linearGradient></defs></svg>