<!-- by TradingView --><svg width="56" height="56" viewBox="0 0 56 56" xmlns="http://www.w3.org/2000/svg"><path fill="#F0F3FA" d="M0 0h56v56H0z"/><path d="M28.42 11 42 19.56V23h-3v-1.73L33.76 18 27 21.69V31H14V19.55L28.42 11ZM15 20.25V30h11v-8.79L33.76 17 40 20.8V22h1v-1.98l-12.5-7.77-13.5 8Z" fill="#6E2B06"/><path d="M30 34h12v-2H30v2Zm0-3h12v-2H30v2Zm0-3h12v-2H30v2Zm0-3h12v-1H30v1Zm12 10H28.36l-3.57 2h15.33L42 35.76V35Zm-3.4 3H17.4l3.02 2h15.16l3.03-2Zm-4.54 3H21.94l3.03 2h6.06l3.03-2Zm-4.54 3h-3.04L28 45l1.52-1Zm-13.64-7h5.59l-3.06-2H14v.76L15.88 37ZM17 34h-3v-2h3v2Z" fill="#6E2B06"/></svg>