<!-- by TradingView --><svg width="56" height="56" viewBox="0 0 56 56" xmlns="http://www.w3.org/2000/svg"><path fill="#F0F3FA" d="M0 0h56v56H0z"/><path fill-rule="evenodd" d="M28 44a16 16 0 0 0 13.19-25.06c.42 1.02.66 2.14.78 3.06h-2.46c-.37-1.47-1.02-3-1.88-3-2.13 0-2.35 4.59-2.35 6.01 0 1.43.22 5.99 2.35 5.99.86 0 1.51-1.5 1.88-2.97h2.46c-.32 2.34-1.35 5.97-4.34 5.97-3.96 0-4.63-6.18-4.63-8.99 0-2.79.67-9.01 4.63-9.01.44 0 .84.08 1.2.23A16 16 0 1 0 28 44ZM15 28.57c.04 2.5 1.23 5.43 4.14 5.43 2.78 0 3.86-3.07 3.86-5.4 0-2.52-1.14-4.03-3.25-5.21-.98-.53-1.99-1.12-1.99-2.36 0-.65.32-2.03 1.13-2.03.93 0 1.15 1.28 1.17 2.03h2.8c-.08-2.4-1.15-5.03-3.97-5.03-2.79 0-3.86 2.86-3.86 5.23 0 2.54 1.05 4.15 3.26 5.28 1.03.51 2 1.14 2 2.4 0 .8-.49 2.09-1.4 2.09-.75 0-1.06-1.15-1.14-2.43H15Zm9 0c.04 2.5 1.23 5.43 4.14 5.43 2.78 0 3.86-3.07 3.86-5.4 0-2.52-1.14-4.03-3.25-5.21-.98-.53-1.99-1.12-1.99-2.36 0-.65.32-2.03 1.13-2.03.93 0 1.14 1.28 1.17 2.03h2.8c-.08-2.4-1.15-5.03-3.97-5.03-2.79 0-3.86 2.86-3.86 5.23 0 2.54 1.05 4.15 3.26 5.28 1.03.51 2 1.14 2 2.4 0 .8-.49 2.09-1.4 2.09-.75 0-1.06-1.15-1.14-2.43H24Z" fill="#2FB1EA"/><path d="m11 38-3-3h40l-3 3v1H11v-1Z" fill="#2D2722"/><path d="M38.94 39.68A15.94 15.94 0 0 1 28 44c-4.54 0-8.64-1.9-11.55-4.93l.24-.02c.23-.02.5-.05.81-.05.39 0 .93-.45 1.58-1 1.04-.87 2.39-2 3.92-2 2 0 3.17 1.33 3.5 2-.5-.17-1.5-.3-1.5.5 0 1 .5 1.5 2 1.5.62 0 1.24-.51 1.97-1.12C30 38.03 31.24 37 33 37c.83 0 2.5.3 2.5 1.5-.5 0-1.5.2-1.5 1 0 .94 2.2 1 4.94.18Z" fill="#0067AC"/></svg>