<!-- by TradingView --><svg width="56" height="56" viewBox="0 0 56 56" xmlns="http://www.w3.org/2000/svg"><path fill="#F0F3FA" d="M0 0h56v56H0z"/><path d="m34.5 21-.5 2h2l-3 11h2.5l3-11H48l-1.5 7c-.4 3.2 2.5 4 4 4H52v-2h-1.5c-2 0-1.83-2-1.5-3l2-8H34.5Z" fill="#004B88"/><path d="M43.5 24h-3a8.76 8.76 0 0 0-2 4c-.8 4 2 5.67 3.5 6h3l1-2h-2c-3.2 0-3.33-2.67-3-4h4l1-2h-4c0-.8 1-1.67 1.5-2ZM4 33v1h14.5l.5-1H4ZM4 31v1h15.5l.5-1H4ZM19.5 32l-.5 1h11l.5-1h-11ZM20.5 30l-.5 1h11l.5-1h-11ZM21.5 28l-.5 1h11l.5-1h-11ZM7.35 21.25c.4-.2.85-.25 1.15-.25h1v1h-1c-.2 0-.5.04-.72.15-.21.1-.28.21-.28.35 0 .2.1.3.53.58l.04.03c.34.23.93.62.93 1.39 0 .73-.56 1.5-1.5 1.5H5l.5-1h2c.3 0 .5-.23.5-.5 0-.2-.1-.3-.53-.58l-.04-.03c-.34-.23-.93-.62-.93-1.39 0-.66.43-1.05.85-1.25ZM4 29v1h16.5l.5-1H4Z" fill="#004B88"/><path fill-rule="evenodd" d="M13.47 23.58H11.8c.16-.38.34-.72.53-1 .32-.47.55-.58.67-.58.16 0 .23.04.28.08.05.05.11.14.16.31.07.3.08.7.03 1.19Zm-.27 1.64.11-.64h-1.9c-.13.4-.24.97-.32 1.42h-1.02c0-.05.02-.1.03-.14.12-.58.29-1.39.5-1.95.23-.67.54-1.36.9-1.89.34-.5.84-1.02 1.5-1.02.36 0 .68.1.94.33.25.22.39.51.46.81.15.58.1 1.3 0 2.01v.06L14.1 26h-1.03c.05-.23.1-.51.13-.78Z" fill="#004B88"/><path d="M16 26h-1l1.5-5h1L16 26Z" fill="#004B88"/><path fill-rule="evenodd" d="M24.62 24.92c.63.25 1.66-.08 2.16-1.02.48-.9.11-1.61-.4-1.82-.63-.25-1.66.08-2.16 1.02-.48.9-.11 1.61.4 1.82Zm-.37.92c1.2.48 2.72-.18 3.41-1.47.7-1.3.29-2.73-.9-3.21-1.2-.48-2.73.18-3.42 1.47-.7 1.3-.29 2.73.9 3.21Z" fill="#004B88"/><path d="M20.5 21c-.73 0-2.03.55-2.49 2.38a2.77 2.77 0 0 0-.04 1.41c.11.4.35.69.63.88.5.33 1.13.33 1.38.33h1.43l.4-2h-1.02l-.2 1H20c-.27 0-.62-.01-.85-.17a.52.52 0 0 1-.22-.3c-.04-.18-.06-.46.06-.9.34-1.38 1.24-1.63 1.51-1.63H22v-1h-1.5ZM31 22c.37 0 .58.01.73.1.09.06.26.23.27.87L31.57 26h1l.43-2.96V23c0-.84-.24-1.42-.73-1.73a2.23 2.23 0 0 0-1.23-.27H29.1l-1 5h1.02l.8-4H31Z" fill="#004B88"/></svg>