<!-- by TradingView --><svg width="56" height="56" viewBox="0 0 56 56" xmlns="http://www.w3.org/2000/svg"><path fill="#F0F3FA" d="M0 0h56v56H0z"/><circle cx="28" cy="28" r="4" fill="#ED2225"/><path d="M13 31.25v5.31l3.21 2.13c3 0 8.4-2.48 10.72-3.72-2.86-1.95-9.1-5.84-11.25-5.84-2.14 0-2.68 1.41-2.68 2.12Z" fill="#ED2225"/><path d="m23.18 42.4-5.9-3.18C22 39.64 30.44 34.98 34 32.5l8 5C37.9 39.8 28.75 44 27.46 44c-1.28 0-3.39-1.06-4.28-1.6Z" fill="#ED2225"/><path d="M34 27v4.44L43 37v-2.22c0-1.78-3-4.08-4.5-5L34 27Z" fill="#ED2124"/><path d="M43 24.8v-5.33l-3.21-2.14c-3 0-8.4 2.5-10.72 3.74 2.86 1.95 9.1 5.86 11.25 5.86 2.14 0 2.68-1.42 2.68-2.13Z" fill="#ED2225"/><path d="m32.82 13.6 5.9 3.2C34 16.37 25.56 21.01 22 23.5l-8-5c4.1-2.31 13.25-6.5 14.54-6.5 1.28 0 3.39 1.07 4.28 1.6Z" fill="#ED2225"/><path d="M22 29v-4.44L13 19v2.22c0 1.78 3 4.08 4.5 5L22 29Z" fill="#ED2124"/></svg>