<!-- by TradingView --><svg width="56" height="56" fill="none" xmlns="http://www.w3.org/2000/svg"><path fill="#F0F3FA" d="M0 0h56v56H0z"/><path fill-rule="evenodd" clip-rule="evenodd" d="M28.572 14c-2.074 1.69-5.325 4.779-5.325 6.606 0 2.23 1.03 3.22 2.198 4.341.148.143.299.288.45.438.27.266.67.604 1.14.998 1.862 1.566 4.797 4.033 4.797 6.57 0 2.314-5.037 6.648-8.235 9.047h-.718l4.97-4.433c.704-.607 2.113-2.38 2.113-4.613 0-2.232-2.872-5.129-4.308-6.299-1.248-.939-3.745-3.265-3.745-5.055 0-2.135 1.923-4.42 6.375-7.6h.288Zm2.226 0c-4.45 3.18-6.374 5.465-6.374 7.6 0 1.79 2.497 4.116 3.745 5.055 1.436 1.17 4.84 4.067 4.84 6.299s-1.408 4.005-2.113 4.613L25.926 42h1.376c3.198-2.399 8.236-6.733 8.236-9.046 0-2.41-3.125-4.756-5.218-6.328-.666-.5-1.227-.921-1.55-1.241-.152-.15-.302-.295-.451-.438-1.167-1.12-2.198-2.112-2.198-4.341 0-1.827 3.252-4.916 5.325-6.606h-.648Zm2.875 0c-4.451 3.18-6.375 5.465-6.375 7.6 0 1.79 2.497 4.116 3.746 5.055.204.167.466.37.764.6 1.793 1.383 4.907 3.785 4.907 5.699 0 2.232-1.409 4.005-2.113 4.613L29.632 42H43V14h-9.327Zm-7.616 0c-2.073 1.69-5.325 4.779-5.325 6.606 0 2.23 1.031 3.22 2.198 4.341.148.143.3.288.45.438.216.213.502.472.83.768 1.712 1.548 4.575 4.135 4.575 6.801 0 2.313-5.038 6.647-8.236 9.046H13V14h13.057Z" fill="#F58634"/></svg>