<!-- by TradingView --><svg width="56" height="56" viewBox="0 0 56 56" xmlns="http://www.w3.org/2000/svg"><path fill="#F0F3FA" d="M0 0h56v56H0z"/><path d="M20.1 43h-2.43L12.5 13.5 20.1 43Z" fill="#0B9645"/><path d="M16.22 15c-1.61 0-3.32.24-3.72.5 1.07 1.57 3.96 5.79 4.93 8.93.96 3.14.7 9.21.57 11.57 6.04.4 7.88 1 10.3 1 2.4 0 5.63-2.36 8.44-2.36 2.82 0 4.83 1.57 6.44 1.57 1.3 0 2.42-.52 2.82-.78-.8-.4-1.61-3.54-1.61-5.9 0-2.35-2.01-3.14-2.41-5.1-.4-1.97.8-3.14.8-4.72 0-1.25-1.07-2.61-1.6-3.14-.55.26-1.94.79-3.23.79-1.6 0-4.83-1.57-6.44-1.57-1.6 0-3.62.78-6.44.78-2.81 0-6.84-1.57-8.85-1.57Z" fill="#FFF500"/><path fill-rule="evenodd" d="M12.98 15.32c-.22.06-.39.12-.48.18l.03.04.25.37c1.23 1.81 3.76 5.62 4.65 8.52.96 3.14.7 9.21.57 11.57 3.2.2 5.22.48 6.78.68 1.37.19 2.38.32 3.51.32 1.16 0 2.51-.54 3.9-1.11 1.52-.61 3.1-1.25 4.55-1.25 1.6 0 2.95.51 4.1.95.88.33 1.65.62 2.34.62a5.79 5.79 0 0 0 2.82-.78 1.04 1.04 0 0 1-.37-.36c-.66-.98-1.24-3.54-1.24-5.53 0-1.33-.63-2.16-1.26-2.97-.5-.65-.98-1.28-1.15-2.14-.24-1.15.07-2.03.38-2.87.21-.6.42-1.2.42-1.85 0-1.25-1.07-2.61-1.6-3.14-.55.26-1.94.79-3.23.79-.8 0-2.01-.4-3.22-.79-1.2-.4-2.41-.78-3.22-.78-.7 0-1.46.14-2.33.3-1.16.23-2.5.48-4.1.48-1.53 0-3.41-.46-5.14-.88-1.46-.36-2.8-.69-3.72-.69-1.23 0-2.52.14-3.24.32Zm.3.44c.57.83 1.36 2.03 2.15 3.36a25.77 25.77 0 0 1 2.47 5.16c.51 1.65.69 4.01.73 6.22a74.5 74.5 0 0 1-.1 5.03 90.27 90.27 0 0 1 6.3.66c1.39.18 2.36.31 3.46.31a6 6 0 0 0 1.8-.34c.6-.2 1.25-.46 1.93-.74l.16-.06c1.44-.58 3.04-1.22 4.56-1.22 1.5 0 2.78.42 3.85.82l.45.17c.36.14.69.26 1 .36.45.14.82.22 1.14.22.79 0 1.5-.21 2-.42a8.82 8.82 0 0 1-.77-1.94 15.63 15.63 0 0 1-.52-3.81c0-1.02-.42-1.7-.96-2.4a29.7 29.7 0 0 0-.2-.26 5.72 5.72 0 0 1-1.24-2.35c-.23-1.11 0-2 .26-2.77l.14-.4c.22-.6.4-1.09.4-1.65 0-.5-.23-1.06-.54-1.59-.23-.37-.48-.7-.7-.95-.7.3-1.93.69-3.1.69-.47 0-1.02-.12-1.59-.27-.56-.15-1.18-.35-1.78-.54-.61-.2-1.2-.4-1.74-.54s-1-.22-1.33-.22c-.64 0-1.35.13-2.23.3l-.44.08c-1.07.2-2.31.4-3.77.4a22.07 22.07 0 0 1-5.25-.9l-1.87-.44a9.08 9.08 0 0 0-1.73-.23 17.33 17.33 0 0 0-2.93.26Z" fill="#0B9645"/><circle cx="12.5" cy="13.5" r=".5" fill="#0B9645"/><path d="M34 27c0-.58.13-1.1.4-1.55.26-.46.62-.81 1.09-1.06.47-.26 1-.39 1.6-.39.73 0 1.35.18 1.87.55.52.37.87.88 1.04 1.51h-1.64c-.13-.24-.3-.43-.53-.56-.22-.13-.47-.2-.76-.2-.46 0-.83.16-1.12.47-.29.3-.43.72-.43 1.23 0 .52.14.93.43 1.24.29.3.66.46 1.12.46.29 0 .54-.06.76-.2.23-.12.4-.31.53-.56H40a2.66 2.66 0 0 1-1.04 1.51c-.52.37-1.14.55-1.87.55-.6 0-1.13-.13-1.6-.38a2.8 2.8 0 0 1-1.1-1.06c-.26-.46-.39-.97-.39-1.56ZM33 24v6h-1.71v-2.47H28.7V30H27v-6h1.71v2.35h2.58V24H33ZM23.58 30a3.8 3.8 0 0 1-1.3-.2c-.38-.15-.69-.35-.92-.63-.23-.27-.35-.6-.36-.98h1.72c.02.22.1.38.25.5a.9.9 0 0 0 .57.17c.24 0 .43-.05.56-.15.14-.1.21-.23.21-.4a.45.45 0 0 0-.17-.36c-.1-.1-.24-.18-.4-.24a6.68 6.68 0 0 0-.68-.2 8.09 8.09 0 0 1-1.05-.36 1.9 1.9 0 0 1-.7-.51c-.2-.23-.3-.53-.3-.9 0-.54.23-.97.68-1.27a2.99 2.99 0 0 1 1.74-.47c.73 0 1.32.16 1.77.47.44.3.68.73.72 1.28h-1.75a.57.57 0 0 0-.24-.44.89.89 0 0 0-.55-.17c-.2 0-.35.05-.47.15-.12.08-.18.21-.18.39 0 .19.1.33.3.44.2.1.51.22.94.34.43.13.78.25 1.04.37.27.12.5.29.7.5.2.23.29.52.29.87 0 .33-.1.63-.3.9-.18.28-.46.5-.82.66-.37.16-.8.24-1.3.24Z" fill="#D3251A"/></svg>