<!-- by TradingView --><svg width="56" height="56" viewBox="0 0 56 56" xmlns="http://www.w3.org/2000/svg"><path fill="#F0F3FA" d="M0 0h56v56H0z"/><path d="M44 28.5H28.96l10.7 10.47A15.94 15.94 0 0 0 44 28.5Z" fill="#89191C"/><path d="m38.95 39.67-.36.33H17.4l-.37-.34 10.83-10.83 11.08 10.84Z" fill="#720C21"/><path d="M16.33 38.95 26.8 28.5H12c.12 4.04 1.75 7.7 4.33 10.45Z" fill="#89191C"/><path d="M18.67 41h18.66c-2.62 1.89-5.85 3-9.33 3-3.48 0-6.7-1.11-9.33-3Z" fill="#531520"/><path d="M44 27.5H29.2l10.47-10.45A15.94 15.94 0 0 1 44 27.5Z" fill="#B72026"/><path d="M38.59 16c-2.82-2.49-6.53-4-10.59-4s-7.77 1.51-10.59 4H38.6Z" fill="#EF3F3E"/><path d="M16.1 17.3A15.93 15.93 0 0 0 12 27.5h14.51L16.1 17.3Z" fill="#B72026"/><path d="m17.22 17 10.65 10.43L38.3 17H17.22Z" fill="#DA2128"/></svg>