<!-- by TradingView --><svg width="56" height="56" viewBox="0 0 56 56" xmlns="http://www.w3.org/2000/svg"><path fill="#24357A" d="M0 0h56v56H0z"/><path d="M41.28 20.3c.75.46 1.42 1.2 2 1.7h2.76c-3.45-4-10.37-7-18.35-7C16.26 15 7 20.6 7 27.52c0 2.08.84 3.75 2.33 5.48L38 32.94V26l-13 .06V27h8v4H10.3c-.89-1.25-1.33-2.19-1.33-3.48 0-2.55 1.71-5.15 5.13-7.22 3.38-2.04 8.18-3.37 13.59-3.37 5.4 0 10.2 1.33 13.59 3.37Z" fill="url(#a)"/><path d="M14.72 35.7c-.75-.46-1.42-1.2-2-1.7H9.95c3.45 4 10.37 7 18.35 7C39.74 41 49 35.4 49 28.48c0-2.08-.84-3.75-2.33-5.48H18v7h13v-1h-8v-4h22.7c.89 1.25 1.33 2.19 1.33 3.48 0 2.55-1.71 5.15-5.13 7.22-3.38 2.04-8.18 3.37-13.59 3.37-5.4 0-10.2-1.33-13.59-3.37Z" fill="url(#b)"/><defs><linearGradient id="a" x1="40.49" y1="17.41" x2="9.76" y2="33.38" gradientUnits="userSpaceOnUse"><stop stop-color="#FFFBF4"/><stop offset=".34" stop-color="#EEA587"/><stop offset="1" stop-color="#F2843E"/></linearGradient><linearGradient id="b" x1="15.51" y1="38.59" x2="46.24" y2="22.62" gradientUnits="userSpaceOnUse"><stop stop-color="#FFFBF4"/><stop offset=".34" stop-color="#EEA587"/><stop offset="1" stop-color="#F2843E"/></linearGradient></defs></svg>