<!-- by TradingView --><svg width="56" height="56" viewBox="0 0 56 56" xmlns="http://www.w3.org/2000/svg"><path fill="#F0F3FA" d="M0 0h56v56H0z"/><path d="M20 36V20h4v6.5h5V20h4v16h-4v-6.5h-5V36h-4ZM36 20v16h4v-9l5 9h4V20h-4v9l-5-9h-4ZM12.69 36C9.72 36 7.08 33.95 7 31h3.78c.09.94.87 2 1.9 2 .96 0 1.32-.76 1.32-1.7 0-1.33-1.4-1.61-2.48-1.95-2.44-.81-4.48-1.99-4.48-4.7 0-2.87 2.37-4.65 5.31-4.65 3.03 0 5.33 2.1 5.46 5h-3.84c-.05-.93-.6-2-1.62-2-.88 0-1.35.9-1.35 1.7 0 1.29 1.5 1.5 2.54 1.86 2.34.85 4.46 1.98 4.46 4.63 0 2.84-2.37 4.81-5.31 4.81Z" fill="#E91B34"/></svg>