<!-- by TradingView --><svg width="56" height="56" fill="none" xmlns="http://www.w3.org/2000/svg"><path fill="#F0F3FA" d="M0 0h56v56H0z"/><path fill-rule="evenodd" clip-rule="evenodd" d="M28.066 44C36.868 44 44 36.802 44 28s-7.132-16-15.934-16-16.062 7.198-16.062 16 7.26 16 16.062 16ZM28 45c9.389 0 17-7.611 17-17s-7.611-17-17-17-17 7.611-17 17 7.611 17 17 17Z" fill="#0B61A8"/><path d="M23.41 27.91c3.192-4.859 4.393-13.648 4.383-16.91.163 2.933 1.06 10.048 3.336 15.04 2.053 4.5 6.583 8.983 9.196 11.185.312.23.574.445.78.635a28.05 28.05 0 0 1-.78-.635c-2.078-1.532-6.423-3.732-12.042-3.732-6.463 0-11.742 2.67-13.574 4.006 1.712-1.521 5.508-4.728 8.7-9.588Z" fill="#075EAC"/><path d="M27.855 22.688 23.62 32.25h8.583l-4.35-9.563Z" fill="#E1221D"/><path d="m27.366 28.585-1.489.678 1.489.49.512 1.658.488-1.658 1.303-.49-1.303-.678-.488-1.844-.512 1.845Z" fill="#F4F618"/><path fill-rule="evenodd" clip-rule="evenodd" d="M23.463 35v1.724h-.311v-.057c-.11-.634-.856-1.3-1.49-1.3-.507 0-.596.215-.578.323-.062.413.619.74.967.85.582.215 1.745.89 1.745 1.874 0 1.23-1.067 1.563-1.912 1.563-.503 0-.683-.126-.828-.229-.099-.07-.181-.127-.339-.127a.385.385 0 0 0-.411.356h-.434v-1.77h.167c.49 1.172 1.423 1.414 1.779 1.414.355 0 .689 0 .689-.426 0-.309-.376-.478-.795-.667-.157-.07-.32-.145-.472-.23l-.114-.062c-.546-.3-1.254-.69-1.254-1.57 0-.942.845-1.666 1.59-1.666.456 0 .682.138.858.245.112.067.204.123.32.123.24 0 .441-.245.512-.368h.31Zm1.03.368V35h6.01v.368H30v4.215h.503V40h-6.01v-.417h.528v-4.215h-.528ZM27 37.39v-1.5c0-.2.224-.362.5-.362s.5.162.5.362v1.5h-1Zm0 .587v1.332c0 .178.224.322.5.322s.5-.144.5-.322v-1.333h-1Zm4.487 1.655V40h3.01v-.367H34v-1.636h1.306c.747 0 1.352-.67 1.352-1.498S36.053 35 35.306 35h-3.819v.34H32v4.293h-.513ZM34 35.38v2.422c.552 0 1-.24 1-.537v-1.348c0-.296-.448-.536-1-.536Z" fill="#075EAC"/></svg>