<!-- by TradingView --><svg xmlns="http://www.w3.org/2000/svg" width="56" height="56" viewBox="0 0 56 56"><path fill="#F0F3FA" d="M0 0h56v56H0z"/><path d="M28 44a16 16 0 0 0 14.74-22.23 20.06 20.06 0 0 1-1.46 2.87l-.2 1.43h-1.34l-.18.47a2.8 2.8 0 0 1 1.71 2.65c0 1.55-1.14 2.81-2.55 2.81h-8.48a18.22 18.22 0 0 0-10.03 9.98A15.93 15.93 0 0 0 28 44Zm-9.88-3.41A19 19 0 0 1 25.08 32h-2.12v-.03c-3 2.05-4.86 5.74-5.61 7.97.25.22.5.44.77.65Zm-2.58-2.56c.65-1.94 2.3-4.43 3.51-6.05h-1.42a9.94 9.94 0 0 0-2.82 5.08c.23.33.47.66.73.97Zm-2.23-3.69c.43-1.07.9-1.87 1.3-2.39h-.09l.2-2.94h2.67l-1.12-.73a2.76 2.76 0 0 1-1.54-2.54c0-1.51 1.11-2.74 2.49-2.74h9.89a15.3 15.3 0 0 0 8.64-9A16 16 0 0 0 13.3 34.34ZM37.73 15.3a15.7 15.7 0 0 1-5.47 7.7h2.1c2.06-1.87 3.61-4.95 4.36-6.88-.32-.29-.65-.56-1-.82Zm3.46 3.65A21.24 21.24 0 0 1 39.34 23h-1.6a16.76 16.76 0 0 0 2.7-5.07c.26.33.51.67.75 1.02Z" fill="#F58220"/><path d="M15.15 29.51 15 31h6.65c1 0 1.8-.84 1.8-1.88 0-.8-.49-1.51-1.2-1.78l-3.5-1.26a.28.28 0 0 1-.18-.27c0-.15.12-.28.27-.28h5.46L23.8 31h3.13l.33-3h1.63l-.27 3h10.2c1 0 1.8-.84 1.8-1.88 0-.8-.49-1.51-1.21-1.78l-3.49-1.26a.28.28 0 0 1-.18-.27c0-.15.12-.28.27-.28h4.8L41 24h-6.65c-.96 0-1.74.81-1.74 1.82 0 .74.43 1.4 1.08 1.68l3.55 1.52c.1.04.15.14.15.24 0 .14-.1.25-.24.25h-5.24l.62-5.5h-3.27L29.08 26h-1.6l.23-2H17.18c-.96 0-1.74.81-1.74 1.82 0 .74.43 1.4 1.08 1.68l3.55 1.52c.1.04.15.14.15.24 0 .14-.1.25-.24.25h-4.83Z" fill="#1C449C"/></svg>