<!-- by TradingView --><svg width="56" height="56" viewBox="0 0 56 56" xmlns="http://www.w3.org/2000/svg"><path fill="#F0F3FA" d="M0 0h56v56H0z"/><path d="m16.96 23.1-.53 2.72c-.52-.37-1.68-1.1-2.1-1.1-.53 0-1.59 0-1.59 1.1 0 1.09 4.75 1.09 4.22 4.36-.53 3.27-3.69 3.82-5.8 3.82A4.64 4.64 0 0 1 8 32.9l1.05-2.72c0 .37.43 1.1 2.11 1.1 1.69 0 2.11-.73 2.11-1.1 0-1.63-4.74-.54-4.22-4.36C9.58 22 13.27 22 14.32 22c.85 0 2.11.55 2.64 1.1ZM29 23.1l-.52 2.17a6.28 6.28 0 0 0-2.62-.54c-1.58 0-3.67 1.09-3.67 3.27 0 2.18 1.05 3.27 2.62 3.27 1.26 0 2.27-.36 2.62-.54l-.53 2.72c-.35.19-1.36.55-2.62.55-1.57 0-5.76-.55-5.23-6 .52-5.45 5.23-6 6.8-6 1.26 0 2.63.55 3.15 1.1ZM35 22h-3l-2 12h3l2-12ZM37.15 22H42.63c2.06 0 6.08 1.64 5.26 6-.82 4.36-3.71 6-7.32 6H35l2.15-12Zm1.6 9h1.82c1.03 0 3.02-.38 3.43-3 .17-.73.18-3-1.88-3h-2.29l-1.07 6Z" fill="#DF1229"/></svg>