<!-- by TradingView --><svg width="56" height="56" viewBox="0 0 56 56" xmlns="http://www.w3.org/2000/svg"><path fill="#F0F3FA" d="M0 0h56v56H0z"/><path d="M38.41 13.62A13.93 13.93 0 0 1 44 25.41c-.03.94-.11.94-.25.01a15.48 15.48 0 0 0-6.3-10.45 15.28 15.28 0 0 0-11.81-2.88c-.91.15-.93.07-.06-.24a13.7 13.7 0 0 1 12.84 1.77Z" fill="#0061B2"/><path d="M35.34 29.01a15.07 15.07 0 0 0-4.31-2.72 87.78 87.78 0 0 1-4.34-1.88c-2.74-1.35-4.48-3.06-3.92-6.1.85-4.52 7.02-4.75 10.33-3.4a13.7 13.7 0 0 1 7.3 6.86c2.5 5.05 1.67 10.14-1.5 14.61-.37.54-.7.9-1 1.1-.2.14-.26.1-.2-.14a8.75 8.75 0 0 0-.09-4.55A7.6 7.6 0 0 0 35.34 29Z" fill="#00AB4D"/><path d="M15.04 23.03a14.47 14.47 0 0 1 3.74-5.65h.05l.03.05v.05c-1.16 3.83.48 7.46 3.73 9.62a21.5 21.5 0 0 0 4.98 2.48c.98.33 1.96.83 2.94 1.5 2.29 1.54 3.18 3.6 2.7 6.15-.53 2.75-2.74 4.12-5.43 4.48-3.07.42-5.9-.46-8.5-2.63a14.44 14.44 0 0 1-4.24-16.05Z" fill="#006CB6"/><path d="M18.64 41.03a15.38 15.38 0 0 0 11.9 2.86c.91-.16.93-.08.06.24a13.78 13.78 0 0 1-12.94-1.75 14.02 14.02 0 0 1-5.65-11.84c.03-.94.11-.95.25-.02.64 4.3 2.85 7.92 6.38 10.5Z" fill="#00AB4D"/></svg>