<!-- by TradingView --><svg width="56" height="56" viewBox="0 0 56 56" xmlns="http://www.w3.org/2000/svg"><path fill="#F0F3FA" d="M0 0h56v56H0z"/><path fill-rule="evenodd" d="M28 44a16 16 0 1 0 0-32 16 16 0 0 0 0 32Zm0 1a17 17 0 1 0 0-34 17 17 0 0 0 0 34Z" fill="#008F4D"/><path d="M26.53 22.73c-4.18-2.91-4.73-7.03-4.48-8.73 0 2.18 2.2 3.17 6.72 5.82C32.51 22 33.5 27.82 34 30c-.75-1.21-3.29-4.36-7.47-7.27Z" fill="#008F4D"/><path d="M26.53 28.73c-4.18-2.91-4.73-7.03-4.48-8.73 0 2.18 2.2 3.17 6.72 5.82C32.51 28 33.5 33.82 34 36c-.75-1.21-3.29-4.36-7.47-7.27Z" fill="#008F4D"/><path d="M26.53 34.73c-4.18-2.91-4.73-7.03-4.48-8.73 0 2.18 2.2 3.17 6.72 5.82C32.51 34 33.5 39.82 34 42c-.75-1.21-3.29-4.36-7.47-7.27Z" fill="#008F4D"/></svg>