<!-- by TradingView --><svg width="56" height="56" viewBox="0 0 56 56" xmlns="http://www.w3.org/2000/svg"><path fill="#F0F3FA" d="M0 0h56v56H0z"/><path d="M24.92 11.24c.14-.3.2-.28.16.05-.3 3.66-2.46 6.34-5.32 8.37-.2.14-.28.09-.22-.16.46-1.85 1.49-2.78 2.85-4.3a15.72 15.72 0 0 0 2.53-3.96Z" fill="#8DC63F"/><path d="m19.48 18.38-.07.2c-.1.16-.16.15-.17-.04-.12-2.38.9-3.86 2.77-5.21.9-.65 1.47-1.23 2.2-2.06.35-.4.42-.36.19.13a15.63 15.63 0 0 1-3.2 4.49 6.48 6.48 0 0 0-1.72 2.49ZM36.53 18.38a6.44 6.44 0 0 0-1.7-2.48 15.5 15.5 0 0 1-3.18-4.45c-.22-.5-.16-.54.19-.14.72.83 1.3 1.4 2.19 2.05 1.85 1.34 2.86 2.81 2.75 5.18-.01.18-.07.2-.17.03a1.66 1.66 0 0 1-.08-.2Z" fill="#8DC63F"/><path d="M31.19 11.48a15.32 15.32 0 0 0 2.49 3.85c1.34 1.47 2.35 2.36 2.8 4.16.07.25 0 .3-.2.16-2.81-1.95-4.93-4.56-5.25-8.13-.03-.31.02-.33.16-.04ZM17.97 13.19c-.03-.09-.04-.14-.03-.15.12-.28.23-.27.33.02.7 2.24.58 5.2.33 7.4a9.3 9.3 0 0 1-1.52 4.32c-.1.14-.13.12-.11-.04.3-2.5.1-4.45.55-6.9.26-1.44.42-2.94.48-4.51a.5.5 0 0 0-.03-.14ZM38.01 13.35c.06 1.57.22 3.07.49 4.5.44 2.45.25 4.41.55 6.9.02.17-.01.18-.1.05a9.28 9.28 0 0 1-1.54-4.32c-.24-2.2-.36-5.16.33-7.4.1-.3.2-.3.33-.02 0 .01 0 .06-.03.14a.5.5 0 0 0-.03.15ZM17.5 15.93c-.57 2.74-.9 5.29-.98 7.65-.01.68-.12.7-.31.05-.71-2.39-.94-4.54.22-6.85.41-.84.75-1.85 1.02-3.03.11-.52.19-.51.23.02.05.63 0 1.36-.18 2.16ZM38.5 15.9a7.68 7.68 0 0 1-.17-2.16c.04-.53.12-.54.23-.02.26 1.18.6 2.19 1.03 3.03 1.15 2.32.92 4.47.22 6.86-.2.65-.3.64-.32-.04-.08-2.37-.4-4.93-.98-7.67ZM15.92 29.77c.06.27-.01.3-.2.12-2.14-2.04-2.68-3.65-3.03-6.59-.25-2.1-.1-4.07.43-5.93.13-.42.2-.41.2.03.01.39 0 .92-.03 1.59-.09 1.64.37 3.3 1 5.1a48.15 48.15 0 0 1 1.63 5.68ZM40.08 29.78c.32-1.53.87-3.4 1.65-5.64.62-1.8 1.08-3.46 1-5.1-.03-.66-.04-1.19-.03-1.57.01-.45.08-.46.2-.03.53 1.85.67 3.82.42 5.9-.36 2.93-.9 4.54-3.04 6.57-.19.18-.25.14-.2-.13Z" fill="#8DC63F"/><path d="M14.51 23.59c-.6-1.89-.98-3.62-.8-5.41.07-.72.17-.74.3-.04.3 1.73 1.22 3.75 1.63 5 .6 1.9.97 3.63.8 5.42-.07.72-.17.74-.3.04-.3-1.73-1.23-3.75-1.63-5.01ZM39.95 28.7l-.06.34c-.05.13-.1.13-.16.01-.37-.72-.16-2.5-.07-3.3.1-.78.31-1.62.66-2.53.84-2.15 1.4-3.82 1.7-5 .19-.71.3-.7.32.05.08 2.01-.32 3.62-1.03 5.79a37.96 37.96 0 0 0-1.36 4.65ZM11.26 24.94c.08-.48.14-.48.16.01.13 2.66.85 4.64 3.12 6.16a20.1 20.1 0 0 1 2.57 2.03c.1.09.08.12-.04.1-2.69-.56-6.02-1.25-6.07-4.45a21.3 21.3 0 0 1 .26-3.85ZM44.17 24.98c0 1.45-.36 2.8-1.07 4.07-.28.5-.83 1-1.65 1.5-.73.46-1.47.97-2.21 1.54-.2.15-.23.13-.07-.08a11.9 11.9 0 0 1 2.3-2.4 5.35 5.35 0 0 0 2.1-3.21c.18-.82.31-1.3.4-1.44.13-.22.2-.2.2.02Z" fill="#8DC63F"/><path d="M44.76 25c.18 1.1.26 2.38.23 3.83-.05 3.18-3.38 3.86-6.06 4.4-.12.02-.14 0-.05-.1.75-.7 1.61-1.36 2.58-2 2.27-1.51 3-3.49 3.13-6.13.03-.5.08-.5.17 0ZM12.05 25.03c.09.13.23.61.42 1.44a5.37 5.37 0 0 0 2.12 3.2c.78.57 1.56 1.37 2.33 2.4.16.2.13.22-.07.07-.74-.57-1.49-1.07-2.23-1.52a4.7 4.7 0 0 1-1.67-1.5 8.2 8.2 0 0 1-1.1-4.07c0-.23.07-.24.2-.02ZM40.2 34.77c-.83.15-2.4.69-4.72 1.6-.23.09-.26.05-.08-.13a8.09 8.09 0 0 1 4.5-2.45c1.7-.24 2.98-.46 4.41-1.33.2-.12.23-.08.1.11-.86 1.34-2.76 1.93-4.21 2.2ZM15.84 34.78c-1.44-.27-3.35-.86-4.21-2.2-.13-.18-.1-.22.1-.1 1.43.86 2.7 1.08 4.4 1.32a8.1 8.1 0 0 1 4.5 2.45c.18.17.16.22-.07.13a32.6 32.6 0 0 0-4.72-1.6Z" fill="#8DC63F"/><path d="m19.45 36.28.28.11c.05.03.06.06.02.11-.03.05-.08.07-.15.06-.84-.02-2-.08-3.45-.2-1.25-.1-2.1-.3-2.55-.62a6.65 6.65 0 0 1-1.96-2.15c-.12-.2-.09-.22.09-.08a6.38 6.38 0 0 0 2.75 1.28c1.55.31 3.2.8 4.97 1.5ZM36.63 36.27a29.74 29.74 0 0 1 4.9-1.47c1-.2 1.91-.62 2.72-1.26.17-.13.2-.1.09.09a6.52 6.52 0 0 1-1.94 2.11c-.45.31-1.29.51-2.52.6-1.43.12-2.57.19-3.4.2-.07 0-.12-.01-.15-.06-.04-.04-.03-.08.02-.1l.28-.11ZM28 43.25c.06 0 .13-.06.2-.18 2.29-4.12 6.34-6.54 10.95-5.64.72.14.72.24-.02.28-4.82.31-8.9 3.88-11 8.25l-.06.04h-.16a.2.2 0 0 1-.05-.04c-2.08-4.38-6.15-7.96-10.98-8.28-.73-.05-.74-.15-.02-.29 4.61-.88 8.66 1.55 10.94 5.68.07.12.13.18.2.18Z" fill="#8DC63F"/><path d="M17.43 38.32a.98.98 0 0 1-.08-.04c-.06-.04-.05-.05.04-.04 3.95.66 7.38 2.76 9.21 6.49.14.27.08.33-.17.17-1.72-1.04-3.6-1.66-5.07-3.52a10.1 10.1 0 0 0-3.93-3.06ZM38.4 38.3c-1.53.72-2.79 1.73-3.84 3.11-1.43 1.87-3.3 2.5-4.98 3.57-.24.15-.3.1-.18-.17 1.77-3.72 5.14-5.86 9.04-6.58.1-.01.1 0 .04.04a.97.97 0 0 1-.08.04Z" fill="#8DC63F"/><path d="M23 22.5V26c0-.4 2.33-.83 3-1v-2.5c0-.4-.33-.5-.5-.5h-2c-.4 0-.5.33-.5.5Z" fill="#0079C2"/><path d="M26 25.5c-2 0-3.5 1.67-4 2.5 2-1 6-.5 8.5-.5 2 0 2.5-1 2.5-1.5v-3.5c0-.4-.33-.5-.5-.5h-2c-.4 0-.5.33-.5.5v3h-4ZM33 33.5V29c0 .4-2.33 1.33-3 1.5v3c0 .4.33.5.5.5h2c.4 0 .5-.33.5-.5Z" fill="#47AA42"/><path d="M29 30c2 0 3.5-1.67 4-2.5-2 1-5 .5-7.5.5-2 0-2.5 1-2.5 1.5v4c0 .4.33.5.5.5h2c.4 0 .5-.33.5-.5V30h3Z" fill="#0079C2"/></svg>