<!-- by TradingView --><svg width="56" height="56" fill="none" xmlns="http://www.w3.org/2000/svg"><path fill="#F0F3FA" d="M0 0h56v56H0z"/><path d="M28.979 22.328c-.249.032-.6-.06-.97-.158-.27-.07-.547-.144-.756-.158-.256-.017-.578.12-.807.246a1.997 1.997 0 0 0 3.187-.104l-.013.005c-.205.07-.418.141-.641.17Z" fill="#2C286C"/><path d="M27.271 21.746c.234.016.524.092.805.166.33.086.673.176.87.152.196-.025.387-.09.588-.158a7 7 0 0 1 .294-.095c.056-.127.1-.262.13-.402a3.865 3.865 0 0 0-.47.137c-.205.07-.417.141-.64.17-.249.03-.6-.062-.97-.16-.27-.07-.547-.143-.756-.157-.33-.022-.768.212-.977.347.04.102.09.2.146.293.244-.137.634-.316.98-.293Z" fill="#2C286C"/><path d="M27.14 21.134c.234.015.524.092.805.165.33.087.672.177.87.152.196-.024.386-.089.588-.157.185-.063.376-.128.576-.16.005-.002.01-.002.016-.003a2 2 0 1 0-3.936.354c.224-.136.682-.378 1.08-.351Z" fill="#2C286C"/><path d="M44.67 37.848 29.84 13.027A2.14 2.14 0 0 0 27.999 12c-.76 0-1.46.392-1.84 1.027L11.284 37.92a1.994 1.994 0 0 0 0 2.053A2.14 2.14 0 0 0 13.125 41h29.75C44.047 41 45 40.08 45 38.946c0-.403-.12-.78-.33-1.098Zm-6.95-10.002-3 5.154h-.742l3.372-5.774.37.62Zm5.154 12.118H25.96L28 37H13.11L26.89 13.434c.228-.382.654-.619 1.11-.619.457 0 .882.237 1.11.62l6.32 10.576L29.558 34h4.583l-1.636 3h10.643l.801 1.27.01.015c.13.197.198.426.198.661 0 .683-.576 1.018-1.282 1.018Z" fill="#2C286C"/><path fill-rule="evenodd" clip-rule="evenodd" d="M17.178 30.667 15.25 33.97s5.367.042 5.785 0c.042-.005.09-.007.145-.01.478-.03 1.38-.085 2.142-1.295.805-1.278.252-2.555-.286-3.797l-.088-.203c-.561-1.305.23-1.333.23-1.333h3.108L28.172 24h-6.489c-2.086.596-1.079 2.567-.172 4.099.906 1.532.719 2.028.719 2.028-.1.582-.677.54-.677.54h-4.374Zm8.245-1.122-2.547 4.444s2.13.024 4.389 0c2.259-.023 2.72-1.267 2.72-1.267s1.021-1.688 2.834-4.893C34.632 24.624 30.862 24 30.862 24H28.69l-1.871 3.333h2.835c.69.015 1.525.227 1.338 1.662-.187 1.435-1.569 1.672-1.569 1.672h-3.338l.69-1.111h1.396c.72-.114.792-1.373.792-1.373h-3.44c-1.035.228-1.265 1.362-1.265 1.362h1.165Z" fill="#EC2027"/></svg>