<!-- by TradingView --><svg width="56" height="56" viewBox="0 0 56 56" xmlns="http://www.w3.org/2000/svg"><path fill="#F0F3FA" d="M0 0h56v56H0z"/><path d="M24.71 41h-1.08a36.48 36.48 0 0 1-4.4-.47c-.09-.01-.11-.06-.1-.13l.03-.07c.01-.04.04-.06.08-.05 3.37.62 6.51.61 9.44-.02a15.9 15.9 0 0 0 9.2-5.85c2.57-3.35 4.53-7.77 5.9-13.25 0-.07.05-.1.12-.07l.05.01c.04.02.06.04.05.08-1.43 5.66-3.42 10.12-5.98 13.4a15.88 15.88 0 0 1-10.73 6.19c-.55.08-1.41.15-2.58.23Z" fill="#2E3192"/><path d="M41.78 25.88c.1.47 0 .81-.33 1.05-.24.17-.53.23-.86.17a3 3 0 0 1-1.44-.61c-.47-.4-.52-.85-.15-1.35.28-.38.68-.5 1.18-.33.05.01.07.04.05.1l-.15.49c-.03.08-.08.1-.16.08l-.25-.08c-.1-.04-.19 0-.25.1-.1.16-.06.28.09.38.32.2.75.37 1.29.5.26.05.43 0 .5-.18.05-.18-.03-.33-.28-.44-.05-.03-.09-.01-.1.05l-.05.14c-.02.06-.06.09-.13.07l-.27-.1c-.07-.02-.1-.06-.07-.14l.2-.65c.03-.1.1-.13.18-.1l1.25.4c.06.02.09.06.1.12.01.06 0 .11-.05.15a.43.43 0 0 1-.24.09c-.05 0-.08.04-.06.1Z" fill="#2E3192"/><path d="M23.24 17a9.6 9.6 0 0 1 6.21 2.71c-.88.5-1.66 1.1-2.34 1.83l-3.12 3.34a.15.15 0 0 1-.13.05l-.76-.12c-1.4-.24-2.93-.28-4.6-.1-.73.08-1.46.25-2.2.54a26.7 26.7 0 0 0-2.78 1.3c-.24.13-.23.16.04.12l.7-.12c1.54-.28 2.6-.4 3.18-.37.88.04 1.78.2 2.72.5.97.32 2.17.75 3.58 1.3 1.34.5 2.4.8 3.18.89 1.55.17 2.9.21 4.07.13h.67c.21.02.24-.04.1-.2-1-.99-1.63-1.64-1.91-1.96a4.04 4.04 0 0 1-.94-1.6 2.72 2.72 0 0 1 .08-1.86c.34-.83.97-1.5 1.87-1.98a9 9 0 0 1 1.45 4.14 9.02 9.02 0 0 1-2.27 7.14 9.37 9.37 0 0 1-6.27 3.26 9.57 9.57 0 0 1-8.64-3.47A8.88 8.88 0 0 1 13 27.03v-.97c.1-1.78.61-3.36 1.57-4.75a9.56 9.56 0 0 1 7.5-4.31h1.17Z" fill="#F7B727"/><path d="M30.86 21.4c-.9.49-1.53 1.15-1.87 1.98-.24.58-.27 1.2-.08 1.85.17.58.48 1.12.94 1.61.28.32.92.97 1.9 1.96.15.16.12.22-.1.2a4.53 4.53 0 0 0-.66 0c-1.17.08-2.52.04-4.07-.13-.78-.09-1.84-.39-3.18-.9a72.35 72.35 0 0 0-3.58-1.28c-.94-.3-1.84-.47-2.72-.51-.58-.03-1.64.1-3.18.37l-.7.12c-.27.04-.28 0-.04-.12l.66-.32c.96-.48 1.67-.8 2.12-.98a8.72 8.72 0 0 1 2.2-.54 16.64 16.64 0 0 1 5.36.22c.05 0 .1-.01.13-.05l3.12-3.34a9.83 9.83 0 0 1 2.34-1.83c.94-.45 2-.77 3.18-.95.96-.15 2.1-.22 3.41-.22 1.96 0 3.91.03 5.87.07.06 0 .09.03.09.1v.05c0 .05-.03.08-.08.08-3.46.22-6.83.9-10.11 2.04-.2.07-.51.24-.95.52Z" fill="#2E3192"/><path d="M28.8 33.68a10.22 10.22 0 0 1-4.33 2.07c-.3.07-1.2.1-2.7.07-.2 0-.32 0-.37.02a.45.45 0 0 1-.38-.04c-.1-.05-.24-.1-.46-.13a1.8 1.8 0 0 1-.24-.05l-.66-.19a2.86 2.86 0 0 1-.64-.22l-1.07-.5a2.6 2.6 0 0 1-.57-.35l-.57-.45a9.16 9.16 0 0 1-3.56-6.06c0-.07.02-.13.09-.16 1.95-.94 4.42-.88 7.41.18.37.13.88.36 1.53.7.38.2.67.33.85.42.83.36 1.79.63 2.89.82a40.06 40.06 0 0 0 3.26.36 8 8 0 0 1 1.88.43c.09.03.1.09.07.16A9.13 9.13 0 0 1 29 33.55c-.05.04-.1.07-.13.07s-.06.03-.08.06Z" fill="#33C6F4"/><path d="m38.9 29.27 1.3.59c.02.01.03.03.02.06l-.18.42c-.02.04-.05.05-.1.03l-2.6-1.17c-.04-.02-.06-.06-.04-.1l.17-.38a.12.12 0 0 1 .11-.08c.76-.02 1.27-.03 1.54-.02.2 0 .21-.04.03-.12l-1.21-.55c-.03-.01-.04-.03-.02-.06l.18-.42c.02-.05.05-.07.1-.04l2.6 1.17c.05.02.07.06.04.12l-.15.35a.13.13 0 0 1-.13.09l-1.65.04c-.1 0-.11.03-.02.07ZM38.85 32.4c-.13.28-.38.45-.75.5-.37.07-.76 0-1.15-.2-.4-.19-.68-.45-.87-.78-.18-.33-.21-.64-.08-.91.13-.28.38-.44.75-.5s.76 0 1.15.2c.4.2.68.46.87.79.18.33.21.63.08.9Zm-.6-.18a.3.3 0 0 0 .04-.23.29.29 0 0 0-.13-.18L37 31.09a.28.28 0 0 0-.23-.03.29.29 0 0 0-.18.13l-.02.03a.3.3 0 0 0-.03.23c.02.08.06.14.13.18l1.15.72c.07.04.15.05.23.03a.29.29 0 0 0 .18-.13l.02-.03ZM35.72 35.9l-2.14-1.76c-.04-.03-.05-.07-.01-.11.3-.37.57-.62.83-.76.34-.19.68-.22 1.04-.1.57.2.98.58 1.21 1.14.1.26.08.52-.08.78-.1.16-.3.38-.6.67l-.12.13c-.05.04-.09.04-.13 0Zm-1.3-1.97 1.44 1.18h.04l.02-.03a.46.46 0 0 0 .08-.4.71.71 0 0 0-.25-.42l-.49-.4a.7.7 0 0 0-.45-.17.46.46 0 0 0-.38.17l-.01.02c-.02.02-.01.04 0 .05ZM33.4 36.15l1.13.78v.02l-.51.4c-.02.01-.05.01-.07 0-.3-.23-.62-.47-.92-.72-.07-.06-.13-.09-.17-.08a.17.17 0 0 0-.12.08.11.11 0 0 0 0 .14l.66.87c.02.03.02.05-.01.07l-.56.32c-.03.02-.06 0-.08-.02l-1.65-2.2c-.03-.03-.02-.06.01-.08l.18-.13c.34-.25.62-.41.82-.5.36-.15.67-.15.92 0 .38.22.5.52.33.91-.03.06-.01.1.04.14Zm-1.32-.3.29.38c.03.04.06.05.1.01l.1-.08a.44.44 0 0 0 .17-.21c.03-.08.02-.15-.02-.2l-.08-.12c-.04-.05-.1-.08-.19-.07a.44.44 0 0 0-.25.1l-.1.07c-.04.03-.05.07-.02.11ZM30.14 38.6l.95-.32c.03-.01.06 0 .07.03l.18.41c.01.04 0 .07-.04.08l-1.64.56c-.03.01-.05 0-.07-.03l-1.06-2.51c-.02-.04 0-.07.03-.08l1.65-.56c.04-.01.06 0 .07.03l.18.41c.02.04 0 .07-.04.08l-.93.32c-.04.01-.05.04-.04.08l.18.41c.01.04.04.05.07.04l.63-.22c.03 0 .06 0 .07.04l.14.42c0 .03 0 .06-.04.07l-.58.2c-.04.01-.05.04-.03.08l.18.43c.01.03.04.04.07.03ZM20.2 39.15a.37.37 0 0 0-.1-.12 4.43 4.43 0 0 0-.23-.13c-.31-.18-.5-.32-.57-.42-.18-.28-.2-.55-.06-.8.13-.25.36-.4.68-.45.23-.04.47 0 .72.13.28.14.44.32.5.55 0 .05-.01.09-.07.1l-.45.1c-.06.01-.1 0-.13-.06-.1-.26-.27-.34-.49-.25a.18.18 0 0 0-.12.17c0 .09.03.15.1.19l.06.03c.4.22.67.4.81.57.25.28.27.58.07.9-.1.16-.27.28-.52.35-.69.2-1.2-.02-1.53-.66-.03-.07-.01-.12.07-.14l.47-.1c.07-.02.12 0 .14.08.08.28.27.4.57.35.2-.04.22-.17.09-.39ZM26.64 38.98l.2.96c.01.02 0 .04-.03.05l-.6.13c-.06.02-.1 0-.11-.07l-.56-2.55c-.01-.06.01-.1.07-.1l.25-.05c.52-.1.9-.15 1.14-.13.43.03.69.22.78.55.1.35.03.63-.22.84-.21.17-.5.26-.85.27-.06 0-.09.04-.07.1Zm-.24-1.13.09.5c0 .06.04.08.1.07l.06-.01a.57.57 0 0 0 .3-.15c.08-.07.1-.15.1-.24l-.02-.05c-.01-.08-.07-.15-.17-.2a.55.55 0 0 0-.33-.03l-.06.02c-.06 0-.08.04-.07.1ZM23.56 39.8l.09-.02c.14-.04.21-.13.21-.28v-1.98c0-.02.01-.04.04-.04h.53c.03 0 .05.02.05.06v1.5c0 .45-.05.76-.16.94-.15.23-.43.34-.84.34-.63 0-.97-.31-1.01-.93-.02-.21-.02-.83-.02-1.87 0-.04.02-.06.06-.06h.63c.05 0 .07.03.07.08l.01 1.94c0 .17.12.28.34.32Z" fill="#2E3192"/></svg>