<!-- by TradingView --><svg width="56" height="56" viewBox="0 0 56 56" xmlns="http://www.w3.org/2000/svg"><path fill="#F0F3FA" d="M0 0h56v56H0z"/><path d="M27.29 12c1.38.02 2.3.06 2.77.1 1.28.14 2.55.46 3.8.96a16.07 16.07 0 0 1 7.06 24.38 16.15 16.15 0 0 1-9.59 6.21c-4.34.87-8.36.11-12.07-2.27a15.65 15.65 0 0 1-4.34-4.18 15.33 15.33 0 0 1-2.5-5.58 15.83 15.83 0 0 1 2.93-13.42 16 16 0 0 1 7.33-5.35c1.16-.42 2.12-.66 2.9-.7a33.58 33.58 0 0 0 1.71-.15Z" fill="#69E2FB"/><path d="M43.41 27.9a15.3 15.3 0 0 1-9.45 14.3 15.26 15.26 0 0 1-11.8.06 15.27 15.27 0 0 1-8.38-8.3 15.29 15.29 0 0 1-.06-11.81 15.3 15.3 0 0 1 8.3-8.4 15.26 15.26 0 0 1 11.8-.06 15.27 15.27 0 0 1 8.39 8.3c.79 1.9 1.2 3.86 1.2 5.9Z" fill="#F51328"/><path d="M42.87 28.03a14.75 14.75 0 0 1-4.4 10.51 14.73 14.73 0 0 1-10.52 4.33c-1.98 0-3.87-.4-5.69-1.16a14.73 14.73 0 0 1-8.02-8.08 14.77 14.77 0 0 1 .04-11.4 14.75 14.75 0 0 1 8.07-8.03 14.72 14.72 0 0 1 11.38.04 14.73 14.73 0 0 1 8.02 8.09 14.77 14.77 0 0 1 1.12 5.7Z" fill="#FEFA09"/><path d="M17.1 18.71c.25.2.36.45.33.73 0 .06 0 .11.04.16.16.22.35.4.57.53.13.08.14.17.04.28l-.08.08c-.12.12-.24.14-.38.05-.31-.19-.45-.42-.41-.7l-.01-.09c-.02-.05-.05-.07-.08-.05-.16.12-.2.26-.12.43.13.3.34.51.61.65.08.04.17.05.26.02a.34.34 0 0 0 .2-.16c.15-.26.3-.46.47-.61.11-.1.13-.21.06-.34-.24-.43-.55-.64-.96-.63-.05 0-.08-.02-.09-.08l-.1-.66a14.26 14.26 0 0 1 15.18-3.88 14.1 14.1 0 0 1 5.46 3.4 14.11 14.11 0 0 1 3.42 5.47 14.17 14.17 0 0 1-4.13 15.45 14.18 14.18 0 0 1-4.44 2.64c-2.4.89-4.86 1.11-7.39.68a14 14 0 0 1-6.89-3.26 14 14 0 0 1-4.46-7.07c-.49-1.8-.62-3.63-.4-5.49a14.08 14.08 0 0 1 3.3-7.55Z" fill="#70D0F6"/><path d="M28.12 15.33c.2.27.3.23.28-.12 0-.18 0-.45.03-.81.01-.06.04-.1.1-.1l.05.02c.03 0 .04.02.04.05v1.1c0 .06-.03.1-.08.12-.3.09-.5.02-.65-.2a.1.1 0 0 0-.1-.05c-.05 0-.08.02-.1.07-.07.2-.27.26-.58.2-.1-.02-.13-.08-.09-.18a.21.21 0 0 0 .01-.15c-.09-.28-.12-.57-.09-.87 0-.04.03-.05.06-.05h.08c.06 0 .1.03.1.1l.03.73c.01.29.1.31.27.08.06-.09.12-.33.17-.72l.05-.3c.03-.22.1-.23.17 0 .03.08.06.23.08.45.03.31.08.52.17.63Z" fill="#2754A3"/><path d="M26.48 15.56c.04-.01.07-.03.08-.07a.12.12 0 0 0 0-.11c-.08-.12-.1-.2-.1-.26.02-.06.06-.1.12-.1.04-.02.08 0 .12.03.03.03.05.07.05.1.01.17.04.29.07.37.03.06.01.1-.04.13-.31.2-.55.14-.7-.17-.29-.54-.16-.92.4-1.14.04-.01.08 0 .1.03.03.03.02.06-.02.11-.05.08-.14.16-.28.26a.2.2 0 0 0-.08.13c-.05.3.02.52.2.67.03.02.05.03.08.02Z" fill="#163685"/><path d="M31.49 15.38c0-.01 0-.02-.02 0l-.08.06c-.1.4-.34.53-.7.43-.06-.01-.08-.05-.07-.1.02-.15.03-.24.02-.29-.07-.37-.2-.4-.39-.07a1.2 1.2 0 0 0-.05.26c0 .05-.04.07-.09.08-.32 0-.5-.12-.54-.38-.01-.08-.05-.1-.12-.06-.07.04-.12.12-.15.26a.1.1 0 0 1-.02.05c-.05.05-.08.06-.12.03a.08.08 0 0 1-.01-.09c.12-.34.16-.69.11-1.05 0-.04.01-.06.04-.08a.08.08 0 0 1 .1 0c.03.03.06.07.07.11a.3.3 0 0 1-.04.15.38.38 0 0 0-.04.16c0 .07.04.1.1.08.08-.02.13-.11.16-.28 0-.05.04-.1.09-.12a.28.28 0 0 1 .12-.03c.08 0 .09.03.03.08a.79.79 0 0 0-.29.55c0 .22.12.38.37.46.06.02.1 0 .12-.06.1-.27.14-.57.14-.9 0-.03.02-.05.06-.05h.06c.03 0 .04.02.04.05l.01.35c0 .07.03.13.08.17.04.03.08.03.13.02.06-.01.1-.05.11-.1l.09-.4c0-.02.03-.04.06-.03l.06.02c.05.01.07.04.05.09-.1.3-.17.5-.17.6-.06.53.07.58.4.14.13-.18.25-.43.35-.75 0-.03.02-.04.05-.05l.08-.02c.05 0 .08.01.06.07-.11.44-.15.89-.1 1.37 0 .05-.02.06-.06.03l-.1-.05a.07.07 0 0 1-.03-.07l.03-.64Z" fill="#010536"/><path d="M25.27 14.77a.57.57 0 0 0-.18.54c.04.22.19.35.44.39.04 0 .07.03.09.07a.1.1 0 0 1-.03.12c-.08.08-.17.1-.24.05-.46-.26-.6-.63-.42-1.12.01-.05.05-.1.1-.14.07-.07.12-.1.15-.1.22-.03.25.03.09.19ZM24.62 15.17c.2.25.22.54.05.86a.25.25 0 0 1-.18.14.24.24 0 0 1-.21-.06c-.44-.4-.5-.83-.17-1.32.07-.1.16-.14.28-.1.11.04.17.12.17.24v.09c0 .06.02.1.06.15ZM23.6 16.05l-.28-.65c-.07-.18-.06-.3.03-.4.16-.18.23-.14.2.1v.03a.61.61 0 0 0 .01.32l.03.04c.26.56.25.89-.03.98-.14.04-.25 0-.34-.12a3.03 3.03 0 0 1-.43-.91c-.02-.07 0-.1.06-.1h.07c.06 0 .1.03.1.09.07.3.18.56.35.77.03.05.08.07.14.05a.14.14 0 0 0 .09-.08.15.15 0 0 0 0-.12Z" fill="#163685"/><path d="M24.14 15.55c.07.25.22.42.33.38.1-.03.14-.26.07-.5-.07-.25-.22-.42-.33-.38-.11.03-.14.26-.07.5Z" fill="#70D0F6"/><path d="m32.42 15.08.14.06c.13.05.13.1 0 .14a.32.32 0 0 0-.13.08.32.32 0 0 0-.07.13c-.16.54-.28.8-.36.77-.08-.03-.01-.3.2-.83l.03-.14a.35.35 0 0 0-.04-.15c-.08-.12-.06-.16.08-.11l.15.05Z" fill="#010536"/><path d="m22.96 16.48.04.05c.03.05.03.1 0 .14-.05.05-.1.06-.14.03a.65.65 0 0 1-.32-.34 2.8 2.8 0 0 1-.13-.5l-.06-.27c-.01-.05 0-.08.05-.08h.07c.03 0 .05.02.06.06.09.4.23.7.43.91Z" fill="#163685"/><path d="M33.25 15.73a.25.25 0 0 0 0 .17l.17.62c.01.02 0 .03-.02.04a.14.14 0 0 1-.04.01c-.02 0-.03 0-.04-.02a1.74 1.74 0 0 1-.24-.8c0-.06.02-.11.06-.15.15-.13.28-.16.38-.11.07.03.07.06 0 .08-.16.06-.25.1-.27.16Z" fill="#010536"/><path d="M21.8 15.79v-.01c.08-.03.16 0 .26.1.1.09.17.22.24.38l.03.09c.07.16.1.31.09.45 0 .13-.04.22-.11.25h-.02l-.5-1.26Z" fill="#163685"/><path d="M33.93 16.35a2.9 2.9 0 0 1-.23.33c-.1.14-.22.15-.33.05-.06-.05-.05-.08.02-.1.24-.06.46-.25.65-.58.07-.12.15-.18.24-.19.07 0 .1.03.07.1-.04.1-.13.34-.25.72-.04.11-.02.23.06.35a.1.1 0 0 0 .1.05.1.1 0 0 0 .09-.05l.54-.8c.02-.02.04-.02.06 0l.03.04c.03.04.04.09.01.13-.16.33-.37.6-.64.82a.14.14 0 0 1-.14.02c-.18-.06-.28-.18-.3-.37 0-.06.01-.15.04-.26.03-.1.05-.18.05-.24 0-.1-.01-.1-.07-.02Z" fill="#010536"/><path d="M21.9 17.3v.02h-.01c-.07.05-.15.02-.26-.06-.11-.08-.22-.2-.31-.36l-.05-.07c-.09-.16-.14-.3-.16-.45-.03-.14 0-.23.06-.27h.02l.7 1.2Z" fill="#163685"/><path d="M39.66 28a11.56 11.56 0 0 1-3.43 8.25 11.55 11.55 0 0 1-8.26 3.4 11.58 11.58 0 0 1-8.25-3.43 11.55 11.55 0 0 1-3.4-8.26 11.56 11.56 0 0 1 3.43-8.26A11.56 11.56 0 0 1 28 16.3a11.58 11.58 0 0 1 8.25 3.43 11.55 11.55 0 0 1 3.4 8.27Z" fill="#F51328"/><path d="m20.37 17.47.21.44c.03.05.03.1 0 .16a.16.16 0 0 1-.12.1c-.03 0-.12.08-.25.24-.03.03-.05.03-.07 0a1.8 1.8 0 0 0-.27-.27 1.06 1.06 0 0 1-.31-.37 3.11 3.11 0 0 0-.22-.36c-.03-.06-.02-.09.05-.09h.05c.06 0 .11.03.15.08.19.28.37.5.54.66.22.2.28.16.18-.12-.09-.26-.23-.62-.43-1.06a.3.3 0 0 1-.02-.2l.03-.13c.03-.09.06-.1.1-.01.32.52.56.83.72.92.44.25.52.15.25-.28l-.37-.55c-.04-.05-.03-.1.02-.13l.09-.03c.12.01.2.06.25.15l.4.84c.02.05 0 .1-.04.13l-.37.21c-.04.03-.07.02-.1 0l-.41-.39c-.01-.02-.03-.02-.04 0-.02.02-.02.04-.02.06Z" fill="#163685"/><path d="M32.92 16.65c.15.04.28.03.3-.01 0-.04-.11-.1-.26-.14-.15-.04-.28-.03-.29.01 0 .04.1.1.25.14ZM35.45 16.57l-.06-.04a.06.06 0 0 0-.08.01l-.66.91a.06.06 0 0 0 .01.09l.06.04c.02.02.06.01.08-.01l.66-.92a.06.06 0 0 0-.01-.08Z" fill="#010536"/><path d="M39.12 27.97a11.05 11.05 0 0 1-3.26 7.89A10.99 10.99 0 0 1 28 39.12a11 11 0 0 1-7.87-3.26 11.02 11.02 0 0 1-3.26-7.89 11.05 11.05 0 0 1 3.26-7.88A10.99 10.99 0 0 1 28 16.83a11 11 0 0 1 7.86 3.26 11.02 11.02 0 0 1 3.26 7.88Z" fill="#FEFA09"/><path d="m37.1 18.26-.66.76h-.02l-.06-.04c-.06-.05-.07-.1-.02-.15l.67-.68c.04-.05.05-.1.02-.15a.95.95 0 0 0-.47-.44.14.14 0 0 0-.14 0 .14.14 0 0 0-.08.13c0 .08 0 .17.02.27.04.22-.05.4-.28.54a.1.1 0 0 1-.13 0l-.82-.59c-.04-.03-.05-.07-.02-.11l.63-.91c.04-.06.1-.08.16-.04.08.04.14.1.2.17.05.06.03.08-.04.07-.2-.03-.32.05-.36.24a.25.25 0 0 1-.06.13l-.24.25c-.1.09-.09.17.02.24l.5.37a.1.1 0 0 0 .1.02c.15-.05.2-.23.12-.54-.03-.11 0-.2.09-.24a.4.4 0 0 0 .14-.15c.05-.1.12-.1.2-.03l.81.72c.12.1.1.16-.07.16 0 0-.03 0-.08-.03-.05-.02-.09 0-.12.03Z" fill="#010536"/><path d="M38.55 27.77a10.47 10.47 0 0 1-2.95 7.53 10.47 10.47 0 0 1-7.4 3.24 10.44 10.44 0 0 1-7.53-2.94 10.45 10.45 0 0 1-3.23-7.41 10.47 10.47 0 0 1 2.95-7.53 10.47 10.47 0 0 1 7.4-3.24 10.44 10.44 0 0 1 7.53 2.95 10.45 10.45 0 0 1 3.23 7.4Z" fill="#70D0F6"/><path d="m19.03 17.7-.03.02a.1.1 0 0 0-.01.15l.7.87c.04.05.1.05.15.02l.02-.03a.1.1 0 0 0 .02-.14l-.71-.88a.1.1 0 0 0-.14-.01Z" fill="#163685"/><path d="m26.58 18.7.26-.37a.21.21 0 0 1 .09-.07.26.26 0 0 1 .07-.02c.05 0 .08.01.1.06.03.04.03.08 0 .12l-.2.31c-.06.08-.06.16.01.23l.42.43c.05.05.08.04.1-.03.08-.32.09-.65.02-1.01v-.08c.07-.1.15-.12.25-.05.05.04.07.08.06.14-.04.27.1.4.4.4.04 0 .08-.03.09-.08l.1-.42c.01-.06.05-.08.1-.07l.1.02c.05.01.06.04.06.09-.06.38-.07.7-.03.95.04.2.11.21.22.03l.12-.26c.22-.47.4-.77.55-.9.2-.17.27-.12.21.14-.04.16-.02.4.05.73l.06.34c0 .06.05.12.11.19.03.02.06.03.1.02a.1.1 0 0 0 .06-.06l.28-.83a.15.15 0 0 1 .1-.1.3.3 0 0 1 .2 0c.05.02.08.06.08.12v.42c0 .05-.02.06-.06.05-.12-.03-.2.02-.25.15l-.14.35a.15.15 0 0 1-.11.1c-.32.05-.58-.1-.8-.48-.04-.07-.1-.07-.15-.02l-.24.25a.15.15 0 0 1-.16.04c-.16-.05-.3-.05-.41 0a.1.1 0 0 1-.1-.01.1.1 0 0 1-.05-.1v-.34c0-.1-.04-.15-.14-.15h-.15c-.09 0-.14.05-.16.14l-.09.36c0 .04-.03.07-.07.08-.4.12-.67.04-.8-.25-.12-.24-.2-.23-.23.03l-.03.28c-.01.06-.04.09-.1.1-.06 0-.1-.02-.14-.08a.24.24 0 0 1-.04-.12c0-.3-.05-.57-.12-.82-.09-.3 0-.36.24-.21.03.02.06.1.09.24 0 .07.03.08.07.02Z" fill="#F51328"/><path d="M18.55 18.4a.16.16 0 0 0-.02.1c0 .06.03.1.09.13.28.14.48.35.62.62.03.05 0 .1-.07.13a.1.1 0 0 1-.1-.03l-.78-.79c-.07-.07-.06-.13.01-.2l.29-.23c.09-.07.17-.07.26 0 .14.13.23.28.25.46 0 .04 0 .07-.04.09l-.08.04c-.04.03-.06.02-.06-.03 0-.23-.08-.35-.22-.37a.15.15 0 0 0-.15.08ZM17.45 18.32l.1.66c.01.06.04.08.1.08.4 0 .71.2.95.63.07.13.05.24-.06.34-.16.15-.32.35-.47.6a.34.34 0 0 1-.2.17.33.33 0 0 1-.26-.02 1.34 1.34 0 0 1-.61-.65c-.08-.17-.04-.31.12-.43.03-.02.06 0 .08.05v.09c-.03.28.1.51.42.7.14.09.26.07.38-.05l.08-.08c.1-.1.1-.2-.04-.28a1.95 1.95 0 0 1-.57-.53.2.2 0 0 1-.04-.16c.03-.28-.08-.53-.32-.73.1-.13.22-.26.34-.39Z" fill="#163685"/><path d="m24.87 19.04-.33-.08c-.05-.01-.06-.04-.03-.09l.1-.1.79-.24c.05-.02.09 0 .1.06l.02.05c.02.05 0 .08-.04.1-.15.05-.23.14-.23.27l.01.09.26.67c.02.05 0 .1-.04.12l-.04.04a.13.13 0 0 1-.13.03.14.14 0 0 1-.1-.1l-.24-.73a.13.13 0 0 0-.1-.09Z" fill="#F51328"/><path d="M29.24 18.9c-.03.12 0 .25.06.27.07.02.16-.07.2-.2.03-.13 0-.25-.07-.27-.07-.02-.15.07-.19.2Z" fill="#70D0F6"/><path d="m37.84 18.7-.85.74a.05.05 0 0 0 0 .07l.06.07c.01.02.05.02.07 0l.84-.74a.05.05 0 0 0 .01-.07l-.06-.07a.05.05 0 0 0-.07 0Z" fill="#163685"/><path d="m30.9 19.27.03-.01c.23-.36.35-.53.37-.52.05.02.09.07.1.12.02.06 0 .11-.03.16-.2.3-.3.61-.28.94 0 .03-.01.04-.04.04h-.19c-.07 0-.12-.03-.14-.1a1.19 1.19 0 0 1 0-.65c.03-.07.06-.08.11-.02l.06.04ZM24.33 19.9a.9.9 0 0 0-.26-.04c-.14 0-.22-.01-.26-.04-.24-.17-.28-.36-.13-.57.15-.19.34-.28.58-.27.07 0 .09.04.04.1a1 1 0 0 1-.3.26c-.04.03-.05.07-.03.13.01.03.04.06.08.08.05.02.09.03.12.02.34-.06.54.09.6.44 0 .06-.01.1-.06.13l-1.33.79c-.1.06-.2.04-.25-.07l-.5-.88c-.06-.1-.04-.18.04-.23l.41-.24c.06-.04.1-.03.15.03l.04.05c.05.06.03.1-.04.13a.57.57 0 0 0-.28.23c-.03.05-.02.1.03.13l.12.07c.05.03.1.02.13-.03l.09-.13c.04-.07.1-.08.16-.02l.04.05c.03.02.03.06 0 .1a.3.3 0 0 1-.18.16c-.08.03-.1.09-.09.17l.02.09c.02.08.07.1.14.06.07-.05.19-.1.34-.18.3-.14.5-.27.61-.4.05-.06.03-.1-.03-.13ZM31.85 18.93c0-.02.02-.02.03-.01h.02c.07.05.1.14.1.28-.02.15-.07.3-.16.47l-.03.07c-.09.16-.19.29-.3.37-.11.1-.2.12-.28.08l-.01-.01c-.02-.01-.02-.02-.01-.04l.64-1.21Z" fill="#F51328"/><path d="M37.48 19.52c.07-.18.22-.3.46-.36.06-.01.1-.06.1-.13.02-.06.05-.08.11-.05.04.02.06.05.09.08.03.05.02.08-.04.1-.33.11-.54.31-.62.61-.06.22.01.28.21.18.24-.12.45-.3.62-.54.04-.06.09-.07.14-.02l.04.04c.04.04.05.09.01.14-.16.23-.38.41-.64.54a.3.3 0 0 0-.13.1l-.03.05c-.03.04-.06.05-.1.02a1.08 1.08 0 0 1-.36-.44c-.04-.1-.03-.16.04-.2a.2.2 0 0 0 .1-.12Z" fill="#163685"/><path d="M17.87 19.79c.2.18.43.25.51.16.08-.09-.02-.31-.22-.5-.2-.18-.43-.25-.51-.16-.08.1.02.31.22.5Z" fill="#70D0F6"/><path d="M32.46 20.03c-.08.19-.18.37-.29.56-.03.04-.06.05-.1.03l-.07-.04c-.06-.04-.07-.08-.03-.14.14-.22.16-.42.07-.6l-.01-.04.04-.02c.2-.02.34-.15.43-.4.03-.06.07-.08.13-.05l.07.03c.05.02.06.06.04.1-.09.2-.18.4-.28.57Z" fill="#F51328"/><path d="M38.67 20.97c-.32.12-.56.03-.7-.28a.14.14 0 0 1 0-.15c.23-.35.54-.6.95-.72.04-.02.07 0 .07.04.01.06 0 .12-.05.16l-.69.54c-.04.03-.06.06-.06.1v.06c.03.04.07.06.11.05.27-.07.55-.18.87-.33a.44.44 0 0 1 .36-.02c.06.02.06.05.02.1l-.84.86a.1.1 0 0 0-.02.12c0 .02.01.03.03.04.03.03.07.04.12.01l.77-.42c.17-.09.22-.04.16.14 0 .03-.06.08-.15.18-.06.06-.2.12-.4.17-.18.06-.31.11-.38.16-.1.08-.18.06-.23-.06l-.13-.27c-.04-.08-.03-.15.04-.21l.2-.2c.08-.1.07-.12-.05-.07Z" fill="#2754A3"/><path d="m33.47 20.71-.05.02c-.19-.02-.35.08-.48.3-.03.06-.08.06-.13.03l-.06-.05c-.04-.03-.05-.06-.02-.1a7.97 7.97 0 0 1 .74-.97c.03-.04.07-.04.1 0l.06.04c.05.05.05.1 0 .14-.17.18-.22.37-.16.55v.04ZM20.98 22.7c.02.05.04.07.09.06.04 0 .06-.03.06-.08 0-.2-.1-.4-.29-.63-.17-.2-.22-.38-.16-.56a.23.23 0 0 1 .14-.14.26.26 0 0 1 .2 0l.85.42c.24.11.29.06.13-.17a3.77 3.77 0 0 0-.54-.64.18.18 0 0 1-.05-.18c.04-.17.16-.22.35-.16.14.04.3.11.48.22.04.02.08.02.11-.03.03-.06.03-.1-.01-.14a1.15 1.15 0 0 1-.24-.27c-.05-.37.05-.41.28-.12l.53.67c.09.1.09.2 0 .3-.04.04-.1.05-.2.04a.66.66 0 0 1-.29-.15.65.65 0 0 0-.2-.12c-.2-.05-.24.02-.11.22l.22.33c.03.04.02.08 0 .13-.04.06-.1.1-.2.14a.12.12 0 0 0-.09.1c-.01.08-.05.12-.13.12h-.12c-.3.04-.47-.06-.54-.3-.02-.07-.06-.1-.13-.08h-.05c-.04.02-.06.05-.06.09 0 .13.08.2.24.2.07 0 .1.04.12.1l.1.43c0 .06 0 .1-.05.13-.18.14-.3.34-.37.61-.06.22-.2.32-.41.31-.03 0-.04-.02-.04-.07 0-.04.01-.07.04-.1l.22-.33a.1.1 0 0 0 0-.12.1.1 0 0 0-.1-.06c-.12.02-.26.1-.4.23a.18.18 0 0 1-.15.05c-.2-.02-.32-.14-.35-.37-.03-.22.03-.39.18-.51.2-.16.27-.11.22.15l-.06.08a.19.19 0 0 0-.04.1c0 .06 0 .1.04.14.05.06.1.07.16.02l.22-.18a.16.16 0 0 1 .14-.04c.15.03.24.08.26.17ZM33.56 20.75h.04c.2 0 .35-.1.48-.3.04-.07.08-.08.14-.04l.05.04c.05.03.05.07.02.12a7.77 7.77 0 0 1-.73.96c-.04.04-.07.04-.11 0l-.05-.04c-.06-.04-.06-.09-.01-.14.17-.18.23-.37.17-.55v-.05Z" fill="#F51328"/><path d="M16.53 20.88c-.03-.08-.04-.15-.02-.2.01-.03.03-.05.06-.05.02 0 .04.01.06.04.18.34.45.61.81.81.03.02.04.04.02.07l-.04.08c-.03.05-.06.06-.1.03l-.5-.3a.48.48 0 0 0-.48-.01 5.3 5.3 0 0 0-.13.06c-.16.15-.14.28.05.39l.75.4c.04.03.05.06.03.1l-.04.07c-.01.03-.04.04-.07.02l-.82-.45a.14.14 0 0 0-.15 0 .54.54 0 0 0-.14.14c-.03.03-.05.03-.07 0a.07.07 0 0 1-.01-.08c.17-.45.42-.78.75-.99.04-.03.06-.07.04-.13Z" fill="#163685"/><path d="M35.18 21.04v.03c0 .14.01.28.03.4.05.32-.1.6-.46.85-.2.14-.4.09-.64-.14-.23-.23-.29-.45-.17-.65.24-.38.5-.55.82-.5h.39l.03.01Z" fill="#F51328"/><path d="M34.33 21.44c-.19.2-.23.46-.1.6.14.14.4.1.59-.1.19-.2.23-.47.1-.6-.14-.14-.4-.1-.59.1Z" fill="#70D0F6"/><path d="M39.12 22.27a.56.56 0 0 1-.05.04c-.05.04-.1.03-.14 0-.04-.04-.05-.09-.03-.14a.66.66 0 0 1 .33-.33c.1-.05.26-.1.49-.16l.26-.06c.04-.02.07 0 .07.05v.07c0 .03-.02.06-.05.06-.4.1-.69.26-.88.47ZM40.15 22.07l-.96.42a.07.07 0 0 0-.04.1l.04.08c.01.04.05.06.1.04l.95-.42a.07.07 0 0 0 .04-.1l-.03-.08a.07.07 0 0 0-.1-.04Z" fill="#163685"/><path d="M35.6 22.5c-.17.03-.28.11-.34.24a.13.13 0 0 1-.12.08c-.2 0-.33-.01-.4-.06-.17-.12-.15-.2.06-.23.24-.05.5-.14.78-.28a.33.33 0 0 1 .27-.02c.19.07.24.17.14.33-.2.37-.46.7-.77.99a.06.06 0 0 1-.07.01c-.02-.01-.03-.03-.03-.06.02-.39.16-.62.42-.71a.14.14 0 0 0 .1-.11l.02-.1c.02-.06 0-.08-.06-.07Z" fill="#F51328"/><path d="M16.4 23.22c.04-.17-.04-.26-.25-.27-.05 0-.09-.04-.1-.1-.02-.04-.02-.08-.01-.1.03-.08.08-.09.14-.04l.43.3c.05.04.07.09.04.14-.12.32-.34.43-.63.34a1 1 0 0 1-.62-.51c-.1-.17-.05-.32.12-.45h.04c.02.02.03.04.02.06a.7.7 0 0 0-.03.32c0 .07.04.12.09.16l.4.28c.06.05.13.06.2.03a.23.23 0 0 0 .15-.16Z" fill="#010536"/><path d="M40 23c.33-.16.58-.35.55-.42-.03-.07-.33 0-.67.15-.34.16-.59.34-.56.41.03.07.33 0 .67-.15ZM40.24 23.95a.15.15 0 0 0-.04-.16.14.14 0 0 0-.16-.03l-.38.13c-.04.02-.07 0-.07-.05v-.04c0-.06.03-.1.08-.11l1.06-.38c.07-.03.1 0 .1.07v.07a.11.11 0 0 1-.08.08l-.27.1c-.1.03-.12.1-.08.19.05.1.12.16.22.17.05 0 .1-.01.13-.05l.08-.1c.06-.05.1-.04.13.03a.2.2 0 0 1 0 .16.13.13 0 0 1-.1.08l-.65.15a.09.09 0 0 0-.04.03c-.08.08-.15.14-.2.15-.06 0-.1 0-.14-.03a.12.12 0 0 1-.03-.14.08.08 0 0 1 .06-.05c.21-.07.34-.15.38-.27ZM15.65 24.11c.05 0 .07-.02.07-.07v-.13c0-.06-.03-.1-.08-.1a.95.95 0 0 1-.35-.12c-.27-.17-.24-.22.07-.16.1.02.2.08.3.2.04.03.08.04.13.04a.8.8 0 0 1 .56.14l-.01.05c-.02.05-.05.07-.1.04a.5.5 0 0 0-.25-.04c-.06 0-.1.03-.14.08-.23.3-.52.33-.89.09-.02-.02-.03-.04-.02-.06l.01-.06c.02-.06.05-.08.1-.05.19.1.38.15.6.15Z" fill="#163685"/><path d="M29.25 26.94c.04-.13 0-.22-.13-.27a2.7 2.7 0 0 0-1.38-.08 7.3 7.3 0 0 0-1.37.34.36.36 0 0 1-.33-.03 3.81 3.81 0 0 1-.66-.5c-.19-.17-.15-.25.1-.22.45.06.9.06 1.35.03.54-.04.98-.15 1.31-.31.1-.05.17-.14.2-.25a.36.36 0 0 0-.08-.32 1.1 1.1 0 0 0-.66-.4c-1.27-.25-2.7-.45-4.3-.58-.05 0-.07-.03-.05-.08v-.04l.03-.02c2.42.12 4.57.2 6.43.24.98.02 1.28.46.89 1.32-.04.1-.02.17.06.23l.08.06c.28.2.48.36.58.49.2.22.23.42.11.6-.27.38-.8.6-1.57.62-1.13.04-2.3.04-3.49 0-.03 0-.04 0-.04-.04v-.06c0-.04.02-.06.05-.06.95-.06 1.8-.2 2.56-.39.17-.04.28-.13.31-.28ZM15.98 24.6c.08.01.14-.03.15-.1 0-.06-.05-.12-.12-.12-.08-.01-.14.03-.15.1 0 .06.05.12.12.12Z" fill="#2754A3"/><path d="m40.43 25.48.04.16c.03.15-.01.17-.12.07a.67.67 0 0 1-.19-.43c0-.06-.03-.1-.08-.14-.16-.11-.17-.25-.03-.4.13-.14.29-.23.47-.29.21-.06.39-.03.52.09.03.03.08.05.13.05h.13c.02 0 .04 0 .05.03.02.03.02.05 0 .07-.23.38-.52.6-.85.68-.06.01-.08.05-.07.11ZM14.54 24.91l-.05-.01a.07.07 0 0 1-.06-.06c-.01-.08.03-.12.12-.14l.03-.01c.35-.1.6-.13.74-.12.22.03.44.16.65.4.06.07.07.15 0 .23a.6.6 0 0 1-.67.22c-.24-.07-.45-.21-.62-.44-.03-.03-.08-.06-.14-.07Z" fill="#163685"/><path d="M40.68 25.1c.24-.11.4-.3.34-.42-.06-.11-.3-.11-.53 0-.24.12-.39.3-.34.42.06.12.3.12.53 0ZM15.27 25.2c.25.06.48.03.5-.09.04-.11-.14-.26-.39-.33s-.47-.04-.5.08c-.03.11.14.26.4.33Z" fill="#70D0F6"/><path d="M31.64 26.08a.5.5 0 0 0 .48-.5.5.5 0 0 0-.48-.5.5.5 0 0 0-.5.5c0 .27.23.5.5.5Z" fill="#2754A3"/><path d="M14.87 25.78c.11.1.25.16.4.18.18.01.31-.05.4-.18.05-.08.08-.13.1-.14.04-.06.07-.06.1 0 .03.07.03.13-.02.2-.19.3-.44.4-.75.31a.9.9 0 0 1-.6-.61.08.08 0 0 1 .01-.1c.03-.02.06-.02.1 0 .05.02.1.09.16.2l.1.14Z" fill="#163685"/><path d="M25.46 28.95c.08-.04.19-.13.33-.25.26-.23.49-.34.68-.34h6.3c.12 0 .17.07.13.2a8.27 8.27 0 0 1-.97 2.1 4.9 4.9 0 0 1-4.2 2.33 3.56 3.56 0 0 1-2.51-.96 5.7 5.7 0 0 1-1.45-2.38 14.25 14.25 0 0 1-.7-4.05c0-.09.02-.1.05 0 .06.13.13.36.24.66.4 1.18.78 1.98 1.15 2.42a1 1 0 0 0 .43.3c.2.06.37.06.52-.03Z" fill="#2754A3"/><path d="M40.9 25.73a.6.6 0 0 1 .46-.21c.07 0 .1.03.09.1-.02.08-.07.14-.17.17-.37.13-.66.26-.88.4-.25.14-.28.1-.1-.12.09-.1.24-.18.47-.25.05-.02.1-.05.14-.09Z" fill="#163685"/><path d="M14.77 27.64c.1-.15.14-.25.14-.3.03-.2.08-.2.16-.03l.11.25c.02.05.06.08.11.1l.36.08c.06.02.07.05.03.1a.24.24 0 0 1-.1.07c-.14.05-.2.14-.2.29.01.1.05.23.12.37.02.03.01.05-.01.08l-.04.02h-.01c-.11-.13-.24-.23-.38-.3a.12.12 0 0 0-.14.01l-.2.16c-.13.1-.18.08-.13-.1.07-.24-.02-.46-.25-.64-.06-.06-.05-.08.03-.08h.27c.06 0 .1-.03.13-.08ZM40.5 27.96a.3.3 0 0 1-.18-.14c-.03-.07-.01-.1.06-.1.32.04.48-.1.5-.41 0-.08.02-.09.08-.05l.06.05.03.04c.07.28.24.4.52.37.1-.01.1.02.03.08a.65.65 0 0 0-.2.72c.03.08.02.1-.04.07l-.33-.21c-.06-.04-.12-.04-.18 0l-.27.23h-.04l-.03-.06v-.05a.6.6 0 0 0 .09-.41.15.15 0 0 0-.1-.13Z" fill="#F51328"/><path d="M28.37 29.01c-.36.71-.8 1.21-1.3 1.5-.59.35-1.23.37-1.9.07a1.03 1.03 0 0 1-.55-.6c-.04-.1 0-.14.1-.09.66.28 1.2.25 1.62-.11.1-.1.23-.23.38-.41l.23-.28a.2.2 0 0 1 .15-.06l1.27-.02Z" fill="#70D0F6"/><path d="M29.65 29.05c0 .1-.03.21-.09.31a4.15 4.15 0 0 1-1.28 1.51c-.55.39-1.16.57-1.84.54-.18-.01-.4-.07-.64-.2l-.61-.29-.14-.21c-.03-.05-.02-.09.02-.12a.14.14 0 0 1 .1-.01c.68.3 1.31.28 1.9-.06.5-.3.94-.8 1.3-1.5l1.28.03Z" fill="#F51328"/><path d="m25.19 30.92.6.3c.26.12.47.18.65.19.67.03 1.29-.15 1.84-.54.51-.35.94-.85 1.28-1.5a.7.7 0 0 0 .1-.32l1.46-.03c.04 0 .07.02.09.05a.1.1 0 0 1 0 .09 4.49 4.49 0 0 1-2.42 2.62c-1.47.67-2.67.38-3.6-.86Z" fill="#70D0F6"/><path d="M40.5 29.69a.88.88 0 0 1-.2-.2c-.02-.03-.02-.05 0-.06h.06a2.01 2.01 0 0 0 1.06.47c.05 0 .07.04.06.09l-.02.06c0 .02-.02.04-.05.03l-.75-.18c-.05-.02-.07-.05-.07-.1 0-.01 0-.04-.02-.06a.22.22 0 0 0-.06-.05Z" fill="#010536"/><path d="M15.48 29.85a.17.17 0 0 0-.04.07.12.12 0 0 1-.1.09c-.3.04-.52.23-.65.55-.02.04-.03.04-.05 0l-.05-.15a.1.1 0 0 1 0-.08.85.85 0 0 1 .32-.35c.02-.01.03-.03.02-.06 0-.02-.02-.03-.04-.03h-.23c-.05 0-.08-.03-.09-.08l-.01-.07c-.02-.05 0-.08.06-.07.32.05.65 0 1-.15.06-.02.09 0 .07.07l-.03.18c0 .05 0 .1.02.14.12.23.19.43.2.6.01.05 0 .08-.06.1-.17.02-.28.06-.34.13a.14.14 0 0 0-.04.15c.04.1.1.16.18.17.07 0 .15-.03.25-.1.04-.03.09-.03.13 0 .03.02.04.04.04.06 0 .15-.07.22-.21.21a1.7 1.7 0 0 0-.92.2c-.05.03-.09.01-.1-.05a.24.24 0 0 1-.02-.12c.01-.06.05-.09.1-.08a.5.5 0 0 0 .25-.05c.13-.05.19-.13.18-.23 0-.07-.03-.1-.1-.1a.74.74 0 0 0-.36.09c-.05.02-.1.02-.13-.03a.2.2 0 0 1-.04-.08c-.01-.06 0-.09.06-.1l.83-.2c.06 0 .1-.04.11-.09a.16.16 0 0 0 0-.15.83.83 0 0 1-.13-.3c-.01-.1-.04-.12-.08-.09ZM40.15 30.28c0 .07.02.14.06.15.04 0 .09-.05.1-.13 0-.08-.02-.14-.06-.15-.04 0-.08.05-.1.13Z" fill="#163685"/><path d="M41.09 30.71c.14.05.26.04.27-.01.02-.05-.08-.13-.22-.17-.14-.04-.26-.03-.28.02-.01.05.09.12.23.16ZM40.24 31.05c.15.02.28.01.3-.03 0-.05-.12-.1-.27-.14-.15-.03-.28-.01-.3.03 0 .05.12.1.27.14Z" fill="#010536"/><path d="M40.95 31.2c.08.02.15.01.16-.02 0-.03-.06-.07-.14-.08-.08-.02-.15 0-.15.03s.05.06.13.08Z" fill="#163685"/><path d="M40.02 31.7c.12.04.23.02.25-.04.01-.06-.08-.13-.2-.16-.12-.03-.23-.01-.25.05-.01.05.08.13.2.16Z" fill="#010536"/><path d="M15.67 31.82a.67.67 0 0 1 .49-.27c.06 0 .1.02.1.09 0 .08-.02.14-.09.17-.4.2-.71.38-.94.54-.12.08-.15.06-.1-.08a.5.5 0 0 1 .41-.37.2.2 0 0 0 .13-.08ZM41.02 31.58c.02 0 .04 0 .05.02v.05c-.08.1-.18.12-.32.07-.12-.04-.12-.08 0-.12l.27-.02Z" fill="#163685"/><path d="m14.98 31.62.38-.01c.22-.04.25.02.08.17-.08.07-.2.1-.35.1a.14.14 0 0 1-.13-.1l-.03-.07c-.03-.06-.01-.09.05-.09Z" fill="#2754A3"/><path d="M40.63 32.18c.12.09.24.13.27.08.03-.04-.04-.15-.16-.24-.12-.08-.24-.12-.27-.08-.03.05.04.15.16.24ZM39.76 32.61l.27.07c.05.01.09-.01.1-.07.03-.1 0-.21-.08-.36-.03-.06-.01-.08.05-.05.07.03.11.06.12.08.06.28.2.48.39.61v.08c-.01.03-.03.03-.05.01a.91.91 0 0 0-.47-.19 1.19 1.19 0 0 1-.29-.07 3.4 3.4 0 0 1-.25-.13c-.06-.03-.07-.08-.06-.13a.6.6 0 0 1 .4-.4c.02 0 .04 0 .06.02l.02.05c.03.04.02.06-.03.07-.2.04-.3.14-.28.3 0 .06.04.1.1.11Z" fill="#010536"/><path d="M16.22 32.24a.38.38 0 0 1 .05-.04c.05-.02.1-.01.13.03.04.04.04.08.01.13-.1.18-.38.3-.82.34l-.25.03c-.04.01-.06 0-.05-.06v-.06c0-.03.02-.05.06-.05.37-.04.67-.15.87-.32Z" fill="#163685"/><path d="M16.47 32.78c.07-.03.1-.02.13.05v.09c-.01.04-.05.05-.1.04a.25.25 0 0 1-.1-.06c-.05-.04-.04-.07 0-.1l.07-.02Z" fill="#2754A3"/><path d="m16.04 32.79-.58.36a.05.05 0 0 0-.01.06l.06.1c0 .02.03.03.06.01l.58-.36a.05.05 0 0 0 .01-.06l-.06-.1a.04.04 0 0 0-.06-.01ZM39.5 33.22c.17.08.32.1.35.05.03-.05-.08-.16-.24-.25-.16-.08-.32-.1-.34-.06-.03.06.08.17.24.26ZM16.63 33.36c-.1.02-.2.1-.26.27-.02.05-.06.07-.11.05-.19-.08-.33-.03-.43.13-.02.04-.05.06-.1.04-.02-.02-.04-.05-.04-.1a.1.1 0 0 1 .06-.11l.94-.47c.03-.01.05 0 .06.02l.03.06c.01.03 0 .05-.02.07a.46.46 0 0 1-.13.04Z" fill="#010536"/><path d="M40.35 33.3a.05.05 0 0 1 .05-.02c.02 0 .04.02.04.04s0 .05-.02.09c0 .02-.02.03-.04.03s-.04-.01-.04-.03c-.02-.04-.02-.08 0-.11Z" fill="#163685"/><path d="M39.32 33.82c.2.12.4.18.42.14.03-.05-.11-.2-.32-.32-.2-.12-.4-.18-.43-.13-.02.05.12.19.33.31ZM16.55 33.85c.1 0 .22-.06.35-.2a.07.07 0 0 1 .06-.02c.03 0 .05.02.06.05v.12c-.02.02-.04.05-.09.07a8 8 0 0 0-1.01.49l-.05-.05c-.04-.04-.03-.08.01-.1l.56-.33a.18.18 0 0 1 .1-.03ZM38.87 34.57l.5.39V35a.1.1 0 0 1-.03.03h-.04a1.64 1.64 0 0 1-.65-.49.18.18 0 0 1-.04-.15c.05-.2.13-.3.24-.32.07-.01.09.01.04.07-.09.14-.13.23-.12.29.02.05.05.1.1.13ZM39.63 34.65a.22.22 0 0 0-.1-.13l-.5-.34v-.05a.13.13 0 0 1 .03-.03c0-.01.02-.02.04-.01.25.1.47.24.64.44.04.04.05.1.05.15-.04.18-.11.28-.22.31-.07.02-.08 0-.04-.06.08-.14.11-.23.1-.28Z" fill="#010536"/><path d="M33.9 34.59c0 .24.17.43.37.43.21 0 .38-.2.38-.43 0-.24-.17-.44-.38-.44-.2 0-.38.2-.38.44Z" fill="#FEFA09"/><path d="M40 34.2c.02 0 .03 0 .03-.02a.03.03 0 0 0-.03-.03.03.03 0 0 0-.02.03c0 .02.01.03.02.03Z" fill="#163685"/><path d="M21.72 35c.23 0 .41-.19.41-.42a.41.41 0 0 0-.4-.41c-.23 0-.41.18-.41.41 0 .23.18.42.4.42Z" fill="#FEFA09"/><path d="m17.25 34.3-.91.6a.1.1 0 0 0-.03.13c.03.04.08.06.13.03l.91-.6a.1.1 0 0 0 .03-.12.09.09 0 0 0-.13-.04Z" fill="#010536"/><path d="M38.7 35.32c.13.1.24.15.31.16.09 0 .2-.03.33-.12.06-.04.08-.02.07.05-.02.21-.14.32-.35.33a.84.84 0 0 1-.52-.2.87.87 0 0 1-.33-.45c-.06-.2 0-.35.2-.44.06-.03.09 0 .07.06-.04.16-.04.27-.01.36.03.07.1.15.24.25Z" fill="#2754A3"/><path d="m16.66 35.55-.01-.01c-.04-.05-.01-.13.07-.23.07-.1.18-.2.32-.28l.07-.04c.14-.1.27-.15.39-.18s.2-.01.23.04v.01l-1.07.69Z" fill="#010536"/><path d="m17.2 35.99.2.28c.07.1.06.12-.06.05a1.36 1.36 0 0 1-.31-.29.16.16 0 0 1-.02-.17c.09-.2.25-.38.48-.53.27-.17.48-.15.63.05.04.04.05.09.05.15-.04.35-.23.56-.57.6-.07.02-.09 0-.05-.07.04-.07.16-.17.37-.32.07-.06.1-.12.07-.21v-.05a.15.15 0 0 0-.1-.1.14.14 0 0 0-.13 0c-.2.1-.37.25-.54.46-.04.06-.05.1-.03.15Z" fill="#163685"/><path d="M38.2 36.36c.01.09.06.16.14.2.06.04.07.09.04.14l-.39.56c-.14.21-.3.23-.49.04l-.43-.44c-.18-.18-.18-.36 0-.54l.73-.75c.03-.03.06-.03.08 0 .05.08.07.16.07.23 0 .06-.02.1-.08.1l-.12.03c-.1.01-.1.05-.02.1.02.01.08 0 .16-.02a.17.17 0 0 1 .12 0l.7.25c.06.03.06.06.02.11l-.09.09c-.05.05-.1.05-.13-.01a.56.56 0 0 0-.23-.15c-.06-.03-.09-.01-.08.06Z" fill="#2754A3"/><path d="M18.2 36.51c0-.29.11-.46.32-.53.22-.06.26 0 .13.19l-.67.98c-.02.03-.04.03-.07 0l-.05-.05c-.05-.05-.05-.1 0-.15l.29-.3a.19.19 0 0 0 .05-.14Z" fill="#163685"/><path d="M24.63 36.88c.24 0 .43-.2.43-.44a.43.43 0 0 0-.43-.43c-.23 0-.42.2-.42.43 0 .24.19.44.42.44ZM31.1 36.74c.17.17.44.17.59 0 .15-.15.13-.42-.04-.6-.17-.16-.44-.17-.59 0-.15.16-.13.43.04.6Z" fill="#FEFA09"/><path d="M38.12 36.7c.07.07.07.13.02.2l-.06.07a.38.38 0 0 1-.28.14.38.38 0 0 1-.29-.1l-.14-.12a.4.4 0 0 1-.14-.28.4.4 0 0 1 .09-.3l.06-.07c.05-.07.11-.08.18-.02l.56.49Z" fill="#70D0F6"/><path d="M17.8 36.6c.13-.06.2-.15.18-.2-.03-.06-.15-.05-.27.02-.13.06-.2.16-.18.21.03.06.15.05.27-.02Z" fill="#163685"/><path d="M28 37.51c.24 0 .43-.2.43-.43a.42.42 0 0 0-.42-.43c-.23 0-.42.2-.42.43 0 .24.19.43.42.43Z" fill="#FEFA09"/><path d="M19.17 36.95c-.06 0-.1.03-.1.1v.55c0 .04-.01.06-.05.07l-.1.02c-.03.01-.05 0-.04-.05.03-.16.03-.31.01-.45-.02-.1 0-.2.06-.29a.34.34 0 0 1 .22-.15c.16-.03.32.1.5.39 0 .02 0 .03-.04.04-.03.01-.05 0-.07-.02-.13-.14-.26-.21-.4-.21Z" fill="#010536"/><path d="M36.25 37.46c-.06-.07-.11-.06-.16.02l-.03.07c-.06.1-.05.2.03.28l.58.6c.05.05.04.1-.03.13l-.05.02c-.07.03-.12.02-.16-.03l-.52-.68a.12.12 0 0 0-.15-.04.74.74 0 0 0-.34.2c-.21.27-.14.4.2.38.21-.02.36.1.45.35.02.04.02.08 0 .13-.09.2-.23.33-.42.36-.09 0-.1-.02-.05-.08l.22-.26c.03-.05.04-.1.02-.15a.15.15 0 0 0-.1-.1 1.04 1.04 0 0 0-.38-.05.16.16 0 0 1-.14-.06c-.19-.2-.2-.37-.04-.52.06-.07.39-.3.97-.7a.34.34 0 0 0 .1-.13c.07-.11.14-.2.22-.26.05-.03.1-.04.16-.03.38.08.64.31.76.7.05.16 0 .3-.16.42s-.31.1-.46-.04l-.52-.53Z" fill="#163685"/><path d="M36.69 37.63c.17.2.38.29.46.21.07-.07 0-.29-.18-.48s-.39-.28-.46-.2c-.08.07 0 .28.18.47Z" fill="#70D0F6"/><path d="M19.65 37.7c-.12.05-.2.11-.22.2-.03.1-.09.17-.18.2-.1.05-.2.05-.3.02l-.04-.08a.2.2 0 0 0-.1-.11c-.18-.08-.3-.17-.39-.26-.16-.2-.13-.24.1-.13l.3.21a.2.2 0 0 1 .08.13c.01.05.04.09.08.1.05.03.09.02.13-.01l.7-.56a.13.13 0 0 1 .1-.03c.16.03.2.1.13.22-.2.3-.37.62-.52.97-.01.03-.03.03-.05 0l-.05-.06a.1.1 0 0 1-.02-.1c.09-.22.2-.4.34-.57.03-.03.04-.07.01-.1-.02-.04-.06-.05-.1-.04ZM20.5 37.76h.04c.04.04.04.11 0 .23-.05.12-.12.24-.22.37l-.07.08c-.1.14-.2.24-.3.3-.1.07-.18.09-.22.06-.02-.02-.02-.03-.01-.04l.79-1ZM20.98 38.16l-.02-.02a.08.08 0 0 0-.11.01l-.7.86a.08.08 0 0 0 .02.11l.02.02c.04.03.09.03.12 0l.68-.86a.08.08 0 0 0 0-.12Z" fill="#010536"/><path d="m20.94 39.5.71.37c.02 0 .05-.01.1-.05.07-.08.1-.17.07-.27a.36.36 0 0 0-.13-.17.56.56 0 0 1-.09-.08c-.04-.05-.03-.1.01-.14.11-.1.17-.17.17-.19.05-.18.2-.21.43-.1l.89.46c.05.02.04.05-.01.08a.72.72 0 0 1-.22.06c-.02 0-.05.03-.07.07l-.44.79c-.03.04-.07.06-.12.05l-.07-.01c-.03-.01-.03-.04-.01-.08l.39-.76a.18.18 0 0 0 0-.17.55.55 0 0 0-.49-.35.16.16 0 0 0-.16.09.17.17 0 0 0 0 .18l.16.29c.02.05.02.1 0 .14a.67.67 0 0 1-.4.33.2.2 0 0 1-.18-.04l-.76-.54c-.07-.05-.08-.11-.03-.18l.57-.84a.1.1 0 0 1 .1-.05c.12 0 .2.05.27.14.03.05.02.09-.04.1-.2.04-.32.13-.36.29a.3.3 0 0 1-.08.12l-.24.26a.12.12 0 0 0-.04.1c0 .05.03.08.07.1ZM34.09 38.87l-.06.12a.29.29 0 0 0 .02.26l.39.7c.03.04.01.07-.04.07h-.09a.17.17 0 0 1-.14-.07c-.18-.23-.3-.55-.38-.95-.01-.07.01-.12.07-.15l.67-.4h.04c.02.02.03.03.02.05-.03.22.06.5.28.86l.15.26-.01.05-.04.04c-.05.05-.1.05-.13-.02l-.48-.79c-.06-.1-.15-.12-.27-.03ZM33.76 39.79c-.01.05 0 .1.04.13.07.05.1.14.12.28 0 .05-.03.08-.08.07l-.09-.02a.1.1 0 0 1-.08-.08c-.1-.39-.24-.68-.46-.88-.06-.07-.05-.11.03-.15l.05-.02a.11.11 0 0 1 .11.02c.3.2.42.42.36.65ZM32.9 39.31l-.06.03a.1.1 0 0 0-.05.12l.47 1.04c.02.05.07.07.12.05l.06-.03a.09.09 0 0 0 .05-.12l-.47-1.05a.09.09 0 0 0-.12-.04ZM23.89 40.46c.03.04.06.03.08-.02.09-.27.21-.46.37-.59a.28.28 0 0 1 .29-.04c.1.04.17.12.19.23.08.4-.01.72-.28.97-.15.13-.27.16-.38.1-.11-.07-.2-.23-.26-.46-.02-.1-.08-.13-.16-.06a.93.93 0 0 0-.21.21.12.12 0 0 1-.13.06c-.19-.03-.3-.1-.36-.23-.03-.08 0-.11.08-.09.21.07.36.09.43.05.1-.05.11-.12.05-.2l-.26-.33a.13.13 0 0 1 0-.14c.13-.28.31-.4.55-.37.04 0 .06.03.06.08v.06c0 .04-.02.06-.05.06a.48.48 0 0 0-.25.11.14.14 0 0 0-.05.14c.03.14.12.29.29.46ZM32.7 40.83c-.1.05-.22.02-.34-.07a.9.9 0 0 1-.3-.4.93.93 0 0 1-.06-.5c.03-.17.1-.27.2-.3.11-.05.23-.03.35.07.13.1.23.23.3.4.06.18.08.35.06.5-.03.16-.1.26-.2.3Z" fill="#163685"/><path d="M32.27 40.26c.1.24.26.4.36.36.1-.04.09-.27-.01-.5-.1-.25-.26-.41-.35-.37-.1.04-.1.27 0 .51Z" fill="#70D0F6"/><path d="M31.66 40.97c.05-.3 0-.66-.17-1.06-.02-.03-.01-.06.02-.09l.05-.04c.05-.03.08-.02.1.03l.1.27c.1.24.16.4.18.52.04.19.02.35-.06.5-.03.05-.08.07-.14.05-.06-.01-.09-.05-.09-.11a.3.3 0 0 1 0-.07ZM30.65 41.07l-.06.27c0 .03-.03.05-.06.05h-.05c-.04 0-.06-.02-.06-.07 0-.4-.06-.75-.16-1.02-.02-.06-.06-.08-.12-.07-.07.02-.1.07-.1.14 0 .35.03.64.07.87.06.35-.01.4-.23.16l-.1-.26c-.05-.17-.03-.3.06-.38a.11.11 0 0 0 .03-.13l-.09-.26c-.02-.06 0-.11.06-.14.28-.14.5-.13.64 0 .09.1.15.08.2-.04.04-.15.1-.22.17-.23.07 0 .1.03.1.1a.66.66 0 0 1-.14.35c-.08.1-.08.2.01.3l.28.32c.16.2.13.26-.1.22-.06-.02-.14-.08-.23-.2a.06.06 0 0 0-.07-.03.06.06 0 0 0-.05.05ZM25.33 40.28c-.04.08-.02.21.06.4.02.04 0 .09-.03.12a.78.78 0 0 0-.27.45c-.02.06-.06.08-.12.05a.26.26 0 0 1-.08-.07c-.04-.05-.04-.1 0-.16.14-.18.21-.48.2-.9 0-.06.02-.1.07-.15.05-.04.1-.05.16-.04l1.07.26c.04.01.05.04.03.07a.8.8 0 0 1-.19.21.22.22 0 0 0-.07.14l-.11.78c-.01.07-.05.1-.12.08h-.05c-.03-.02-.05-.04-.05-.08 0-.28.05-.57.16-.88a.16.16 0 0 0-.02-.15c-.05-.07-.13-.12-.24-.14l-.1-.04a.38.38 0 0 0-.17-.04c-.06 0-.1.04-.13.09Z" fill="#163685"/><path d="M24.2 40.38c-.09.23-.08.45.03.5.11.04.28-.1.37-.33.1-.23.08-.45-.02-.5-.11-.05-.28.1-.37.33Z" fill="#70D0F6"/><path d="M26.88 40.39c0-.11.06-.16.17-.16h.03a.67.67 0 0 1 .61.72v.06a.66.66 0 0 1-.23.47.6.6 0 0 1-.47.17h-.03c-.1-.01-.16-.07-.15-.18l.07-1.08ZM28.06 41.25c.06.14.07.25.01.33-.03.05-.06.07-.1.08a.1.1 0 0 1-.1-.05.14.14 0 0 1-.03-.1c.02-.32 0-.64-.04-.96a.26.26 0 0 1 .12-.27c.1-.06.19-.07.28-.01l.31.18c.12.07.14.16.06.27-.17.24-.14.48.1.74v.03c.02.09-.03.12-.15.11-.1 0-.19-.11-.25-.3-.02-.06-.07-.1-.15-.12-.07-.02-.1 0-.06.07Z" fill="#2754A3"/><path d="M29.55 41.2c.05.08.05.18.01.31-.01.06-.05.07-.1.04l-.07-.04a.1.1 0 0 1-.06-.1c.05-.42.01-.76-.12-1.03-.04-.08-.02-.13.08-.13h.05c.04 0 .08.02.1.06.22.3.26.56.12.75a.12.12 0 0 0 0 .14ZM28.96 40.58c.1.3.14.6.1.94 0 .06-.03.08-.09.07l-.11-.03c-.06-.01-.08-.05-.07-.1.06-.3.04-.61-.05-.96-.01-.06 0-.1.04-.15a.19.19 0 0 1 .18-.04c.07.02.09.06.05.12l-.04.05a.1.1 0 0 0-.01.1Z" fill="#163685"/><path d="M27.07 40.56c0-.03.02-.04.04-.04h.02c.08 0 .15.04.2.11.06.07.08.15.08.25l-.01.17c0 .1-.04.18-.1.24a.26.26 0 0 1-.2.1h-.03c-.02 0-.03-.02-.03-.04l.03-.8ZM28.05 40.78c.07.08.17.1.23.04.06-.05.06-.16-.01-.24-.07-.08-.17-.1-.23-.04-.06.05-.06.16.01.24Z" fill="#70D0F6"/></svg>