<!-- by TradingView --><svg width="56" height="56" viewBox="0 0 56 56" xmlns="http://www.w3.org/2000/svg"><path fill="#F0F3FA" d="M0 0h56v56H0z"/><path d="M12.53 23.92a15.06 15.06 0 0 1 1.42-3.55c.54-1 1.21-1.96 2.02-2.9l.05-.06a16.6 16.6 0 0 1 1.54-1.5 16.23 16.23 0 0 1 6.57-3.43 16.07 16.07 0 0 1 18.89 9.86c.54 1.5.86 2.98.94 4.44.05.92.05 1.8 0 2.63a15.62 15.62 0 0 1-5 10.28 16.26 16.26 0 0 1-6.87 3.79 16.07 16.07 0 0 1-18.9-9.37A15.6 15.6 0 0 1 12 27.66a16.02 16.02 0 0 1 .53-3.74Z" fill="#50AEDD"/><path fill-rule="evenodd" d="M14.83 26.83v.11l-.02.15a12.98 12.98 0 0 0 3.8 10.27 13.29 13.29 0 0 0 4.26 2.9 13.6 13.6 0 0 0 4.49 1.04 13.1 13.1 0 0 0 10.43-4.38l.1-.1a13.3 13.3 0 0 0 3.28-8.28 17.66 17.66 0 0 0-.14-2.58A11.5 11.5 0 0 0 40 22.61a13.17 13.17 0 0 0-5.3-5.87 13.4 13.4 0 0 0-9.82-1.47 12.2 12.2 0 0 0-5.09 2.47 13.98 13.98 0 0 0-3.94 5.1 12.27 12.27 0 0 0-1.03 3.99Zm.67-.51a9.38 9.38 0 0 0-.11 1.3 8.67 8.67 0 0 0 .05 1.78 12.45 12.45 0 0 0 4.04 7.96A12.6 12.6 0 0 0 29.6 40.6a5.1 5.1 0 0 0 .4-.06c.13-.02.23-.03.28-.05a12.73 12.73 0 0 0 10.28-11.53 13.88 13.88 0 0 0-.2-3.34A13 13 0 0 0 39 21.95l-.04-.07c-.08-.16-.3-.5-.67-1.04a13.09 13.09 0 0 0-4.28-3.8 12.2 12.2 0 0 0-3.15-1.2 14.8 14.8 0 0 0-2.78-.34 12.72 12.72 0 0 0-11.06 6.34 11.42 11.42 0 0 0-1.13 2.66c-.18.6-.3 1.2-.4 1.82Z" fill="#D23554"/><path d="m27.75 17.98-.56-.4v-.02h.03l.64-.01c.03 0 .05-.01.05-.04l.23-.68c0-.02 0-.02.02 0l.01.02.2.64c.02.04.05.06.1.06h.6c.04 0 .04 0 .02.03l-.53.4c-.02.02-.03.03-.02.05l.27.67c.02.05 0 .06-.04.03l-.57-.45c-.02-.02-.05-.02-.08 0a56.2 56.2 0 0 0-.57.42c-.02 0-.03 0-.02-.02l.24-.64c0-.03 0-.05-.02-.06ZM24 19.06c-.01 0-.03 0-.04.02l-.36.55c0 .01 0 .01 0 0l-.05-.6c0-.02-.01-.04-.03-.04l-.65-.07c-.05 0-.05-.02 0-.04l.58-.21c.05-.02.06-.05.05-.1l-.13-.57c-.01-.05 0-.06.03-.02l.44.44c.03.02.06.03.1.01a10 10 0 0 1 .62-.25c-.13.15-.25.33-.35.52-.01.02 0 .04.01.05l.43.4c.02.03.01.03-.01.03l-.63-.12ZM32.64 19.01l-.02.02v.62c0 .04-.02.04-.04 0l-.3-.5a.06.06 0 0 0-.04-.04h-.2l-.44.1c-.05 0-.05-.01-.02-.04l.39-.39c.02-.02.02-.04 0-.07l-.35-.46c-.06-.08-.04-.1.04-.05l.59.3c.03 0 .05 0 .07-.02l.41-.46h.02l.01.01-.08.6c0 .03.01.05.05.07l.61.25c.02.01.02.02 0 .02l-.2.03-.5.01ZM35.15 21.24c.02-.01.03-.03.03-.05a5.05 5.05 0 0 0-.15-.71c-.02-.04 0-.05.03-.02l.23.25a2.32 2.32 0 0 0 .27.3c.03.02.05.02.08 0l.61-.32c.03-.01.04 0 .03.03a.67.67 0 0 1-.07.12 10.57 10.57 0 0 1-.26.47c-.04.05-.03.1.01.14l.43.45c.03.03.02.04-.01.03l-.65-.14-.05.01-.35.6c-.02.03-.03.03-.04-.01l-.04-.65c0-.03-.02-.05-.04-.05l-.68-.13c-.02 0-.03-.02 0-.03l.62-.3ZM20.74 21.21c.2.1.42.2.66.29.02 0 .02.02.01.03v.01l-.67.12c-.03 0-.05.02-.05.05l-.05.69v.01h-.02l-.36-.63c0-.02-.02-.02-.04-.02a15.49 15.49 0 0 0-.66.15h-.01v-.02l.43-.48c.03-.03.03-.07 0-.11l-.35-.56c-.04-.05-.02-.06.03-.03l.6.3c.03.02.05.01.07 0a23.84 23.84 0 0 0 .5-.54h.01l-.12.7c0 .02 0 .03.02.04Z" fill="#ECE232"/><path d="M28.54 24.02c.04-.02.06-.07.04-.12a1.09 1.09 0 0 0-.44-.6.97.97 0 0 0-.3-.13 6.42 6.42 0 0 1-.42-.11 70.05 70.05 0 0 1-2.14-.4l-1.48-.23a15.01 15.01 0 0 0-1.33-.15c-.2-.01-.36-.04-.48-.07-.06-.01-.08-.05-.06-.1a.12.12 0 0 1 .09-.08 1022 1022 0 0 0 .72-.01 145.13 145.13 0 0 1 7.19.04c.43 0 .73 0 .89.03.33.04.6.16.84.36.16.14.27.32.31.54a1.64 1.64 0 0 1-.24 1.25l-.02.04c-.03.04-.01.07.03.1l.03.01c.21.12.37.2.47.27.16.1.3.2.42.3.16.14.26.3.3.49.05.19.03.38-.05.57a1 1 0 0 1-.41.46c-.23.14-.42.24-.56.3a1.96 1.96 0 0 1-.7.17l-.33.02c-.4.02-.8.02-1.2 0a20 20 0 0 0-1.5-.01 260.9 260.9 0 0 0-2.33.04c-.24-.01-.41-.02-.5-.04-.06 0-.1-.04-.12-.1 0-.02 0-.03.02-.03l.17-.04c.11-.02.11-.04 0-.05l-.15.01v-.02l.22-.04.14-.02 1.09-.22a11.44 11.44 0 0 1 1.22-.13c.53-.07.85-.11.97-.14.23-.04.43-.12.61-.23.05-.02.1-.08.15-.17.1-.15.03-.27-.2-.38a1.42 1.42 0 0 0-.49-.13 7.88 7.88 0 0 0-2.6.49l-.78.28c-.05.01-.1 0-.15-.06a3.45 3.45 0 0 0-.41-.39l-.8-.63a.79.79 0 0 1-.17-.16.3.3 0 0 0-.08-.07.54.54 0 0 1-.04-.03.03.03 0 0 1 0-.03l.01-.02a.99.99 0 0 1 .22-.03h.59a29.24 29.24 0 0 0 1.96-.05 4.03 4.03 0 0 0 1.52-.33c.11-.05.2-.12.26-.22Z" fill="#334393"/><path d="M33.73 23.38c.1.09.15.22.17.39.02.14.01.28-.02.43a.6.6 0 0 1-.1.2l-.05.05a.53.53 0 0 1-.21.16.78.78 0 0 1-.65.03.67.67 0 0 1-.3-.23l-.13-.22a.72.72 0 0 1-.06-.39.85.85 0 0 1 .1-.36.78.78 0 0 1 .26-.23.58.58 0 0 1 .24-.07l.11-.02a.6.6 0 0 1 .43.1c.08.04.15.1.21.16ZM21.16 23.7c.06.04.1.1.14.2a10.39 10.39 0 0 1 .42 1.08 5.49 5.49 0 0 1 .2.56l.1.27c.1.29.28.72.55 1.3.06.12.13.23.2.32l.27.28c.27.25.54.42.8.52.18.07.36.08.53.03a1 1 0 0 0 .47-.27h.01a1.82 1.82 0 0 0 .37-.46 83309.24 83309.24 0 0 1 8.88-.02c.19 0 .29.04.3.12.02.05.03.1.02.12a4.76 4.76 0 0 1-.46 1.62 6.72 6.72 0 0 1-.3.62 9.07 9.07 0 0 1-1.72 2.33 6.43 6.43 0 0 1-5.9 1.46l-.51-.18a3.99 3.99 0 0 1-.91-.52 6.55 6.55 0 0 1-1.82-2.02 6.91 6.91 0 0 1-.51-1.04 13.18 13.18 0 0 1-.2-.62c-.05-.12-.08-.2-.09-.26a.77.77 0 0 0-.06-.17c-.06-.1-.1-.22-.1-.33a.32.32 0 0 0-.05-.11 14.36 14.36 0 0 1-.46-1.75 24.04 24.04 0 0 1-.33-3.03c0-.08.04-.11.11-.12.02 0 .03.01.03.04 0 .01 0 .02.02.03Z" fill="#334393"/><path d="M12.99 28.14h-.02l-.15-.13v-.03l.01-.02.36-.06c.05 0 .1-.04.11-.09l.14-.35.02-.01h.03l.04.07.15.32c.03.05.09.07.17.08a4.86 4.86 0 0 1 .32.06l-.01.03c-.09.06-.17.15-.26.25-.04.05-.05.11-.03.18.04.1.06.21.08.32 0 0 0 .02-.02.02h-.02l-.35-.2a.07.07 0 0 0-.07 0l-.4.2h-.02v-.01l.08-.42a.1.1 0 0 0-.02-.09l-.12-.11-.02-.01ZM42.47 27.47a8.24 8.24 0 0 0 .2.37c.02.04.07.07.13.08a20.6 20.6 0 0 0 .35.06l-.01.03-.25.24a.14.14 0 0 0-.04.12l.05.4v.02h-.02c-.12-.04-.23-.1-.34-.17a.14.14 0 0 0-.08-.03l-.08.02a2.08 2.08 0 0 1-.35.18v-.02l.05-.4c.01-.05 0-.1-.04-.13L41.8 28v-.03l.01-.02.33-.04c.06 0 .11-.03.13-.07a8.68 8.68 0 0 0 .2-.37ZM30.28 28.7l-.02.01h-.53a21.82 21.82 0 0 1-1.36 0c0-.04.02-.06.09-.06h1.8c.02 0 .03 0 .04.02l-.02.03Z" fill="#D23554"/><path d="m30.28 28.7.13.03c-.27.45-.56.9-.89 1.33l-.38.43a4.68 4.68 0 0 1-1.14.96l-.1.06c-.17.1-.32.19-.44.23a3.57 3.57 0 0 1-1.53.24 3.24 3.24 0 0 1-1.29-.53.06.06 0 0 0-.07 0v.03a8.15 8.15 0 0 1-.25-.25 52.15 52.15 0 0 0-.18-.26l.02-.02v-.02a1.5 1.5 0 0 1-.4-.6v-.05h.03a5.13 5.13 0 0 0 .37.38l-.02-.04c0-.02 0-.02.02-.01l.24.17h.03v-.04c-.04-.05-.1-.11-.2-.18a1.56 1.56 0 0 1-.17-.14v-.01c.12.1.28.2.48.3.53.24 1.1.24 1.69-.02a13.9 13.9 0 0 0 .55-.28l.1-.07a4.63 4.63 0 0 0 1.32-1.6l.17-.03h1.46a4.3 4.3 0 0 0 .43 0l.02-.01Z" fill="#F02E32"/><path d="M28.2 28.73a.98.98 0 0 1-.09.18c-.06.1-.1.15-.1.17a4.74 4.74 0 0 1-.93 1.11c-.07.06-.13.11-.2.15l-.1.07c-.06.05-.12.08-.16.1-.2.1-.33.16-.4.18-.59.26-1.15.26-1.68.01a30.42 30.42 0 0 0-.68-.6c-.03-.03-.06-.04-.1-.04l-.02-.01a.88.88 0 0 1-.18-.21.35.35 0 0 1-.02-.07c0-.05.01-.06.05-.03.23.2.49.31.78.35a2.17 2.17 0 0 0 1.72-.53c.23-.2.45-.47.66-.79a.09.09 0 0 1 .07-.04 122.52 122.52 0 0 0 1.39 0Z" fill="#50AEDD"/><path d="M24.58 31.48v-.04l.06.01c.4.27.83.45 1.29.53a3.57 3.57 0 0 0 1.53-.23c.12-.05.27-.13.45-.24l.1-.06a4.68 4.68 0 0 0 1.13-.96c.16-.17.29-.3.38-.43.33-.44.63-.88.9-1.33h1.86a6.98 6.98 0 0 0-.13.37c-.1.26-.24.53-.42.8a11.8 11.8 0 0 1-.85 1.16 5.04 5.04 0 0 1-4.04 1.6 4.36 4.36 0 0 1-1.35-.47l-.19-.14a2.7 2.7 0 0 0-.19-.14l-.18-.13-.35-.3Z" fill="#50AEDD"/><path d="m22.75 37.17.12-.09c.08-.02.13-.07.15-.15 0-.05 0-.12-.03-.22l-.02-.09v-.03l.08-.17v-.02l.1-.06v-.04a2.47 2.47 0 0 0-.05-.12 1.58 1.58 0 0 1-.08-.18.96.96 0 0 1 .05-.79c.11-.21.32-.39.6-.51.38-.18.78-.2 1.21-.07.06.02.11 0 .17-.04.06-.04.14-.04.22.01a.6.6 0 0 1 .26.42c.06.22.13.44.24.65.02.04.01.11-.02.2l-.01.07c-.01.04-.04.05-.07.05l-.19-.01-.02-.01-.03-.02h-.02v.01c-.02.01-.01.02 0 .03l.25.24c.03.03.07.05.1.05h.33c.05 0 .13-.02.23-.05l.15-.03c.25-.03.49 0 .7.13l.07.02.04-.04.03-.01.62-.08c.1-.01.17.01.24.06a.1.1 0 0 0 .1.02l.2-.05c.2-.05.39-.04.59.03l.12.02.3-.04.4-.04a.47.47 0 0 1 .22.07h.03l.3-.06c.25-.05.49 0 .7.15.02.02.04.01.06-.01a.25.25 0 0 1 .1-.07.35.35 0 0 1 .12-.02c.08 0 .2-.01.35-.04l.18-.04H32c.1-.02.19-.02.24-.02.28.05.45.15.53.3.1.16.16.34.2.51.03.13.07.34.1.61a2.79 2.79 0 0 0 .08.25c.09.08.1.18.03.3a.56.56 0 0 1-.43.3c-.23.03-.39 0-.48-.08a.1.1 0 0 0-.11-.02 2.7 2.7 0 0 1-.23.08 1411.62 1411.62 0 0 0-4.81.02.62.62 0 0 1-.4-.1.04.04 0 0 0-.04-.01c-.18.07-.32.1-.42.11a.74.74 0 0 1-.68-.34.04.04 0 0 0-.04-.02c-.01 0-.02 0-.03.02-.11.11-.26.2-.46.28a2.18 2.18 0 0 1-1 .08 8.15 8.15 0 0 0-.51-.06.91.91 0 0 1-.11.17c-.06.07-.13.08-.2.03a.4.4 0 0 1-.16-.19 6.66 6.66 0 0 1-.19-.5c-.03-.1-.1-.21-.19-.34a.24.24 0 0 1-.04-.2.53.53 0 0 1 .1-.2Z" fill="#ECE232"/><path d="m25.08 34.95.08.02.07-.04.03.01c.06.14.09.27.1.4 0 .03.03.11.09.23l-.01.03-.17.07c-.02 0-.03 0-.03-.02a1.07 1.07 0 0 0-.65-.56.92.92 0 0 0-.46-.05.7.7 0 0 0-.41.2c-.05.04-.07.11-.06.2.01.17.1.27.28.32.05.02.3.1.74.22.3.09.49.16.59.23.18.12.3.3.39.52.06.2.07.4 0 .63a1.32 1.32 0 0 1-.52.72c-.13.08-.29.14-.48.17-.17.02-.34.02-.51 0l-.47-.08a.6.6 0 0 0-.22 0c-.04 0-.08.05-.12.14a4.22 4.22 0 0 1-.03.04l-.02-.01-.22-.62a1.59 1.59 0 0 0-.15-.28v-.04l.27-.21c.01-.01.02-.02.04-.01.01 0 .02 0 .03.02.08.18.18.35.3.5.06.07.12.13.2.16.14.07.28.12.43.14.16.03.3.02.43-.01.3-.09.5-.3.55-.64.08-.41-.15-.68-.67-.8l-.24-.06a4 4 0 0 1-.68-.2.6.6 0 0 1-.3-.3.74.74 0 0 1 .17-.88c.26-.23.56-.35.88-.34.25 0 .5.06.75.18Z" fill="#FEFEFE"/><path d="M25 35.79a.73.73 0 0 1-.29-.07 1.41 1.41 0 0 0-.19-.05l-.31-.08a.63.63 0 0 1-.28-.16c-.03-.04-.02-.06.01-.08a.6.6 0 0 1 .33-.1c.1 0 .21.04.34.1.18.08.31.22.4.42l-.01.02Z" fill="#50AEDD"/><path d="M27.47 38.03v.03a.75.75 0 0 1-.4.13c-.08 0-.14-.05-.19-.14v-.03l.1-.25v-.03h-.05a.86.86 0 0 1-.66.47.44.44 0 0 1-.37-.1.51.51 0 0 1-.17-.37c0-.18.08-.33.27-.44a8.36 8.36 0 0 1 .82-.42c.02-.05.02-.1-.01-.15a.27.27 0 0 0-.14-.11.23.23 0 0 0-.17-.01c-.06.02-.1.07-.13.14 0 .03-.02.03-.03 0a.4.4 0 0 1-.07-.15.1.1 0 0 1 0-.05c.02-.07.1-.12.24-.13.1-.02.21-.01.33.01.15.03.25.1.3.24.1.32.16.58.17.78v.45c0 .1.06.15.16.13ZM32.47 37.77c-.01-.05-.03-.05-.05 0l-.02.06c-.01.06-.08.13-.2.22-.2.13-.4.2-.58.17a.41.41 0 0 1-.28-.17.6.6 0 0 1-.12-.3c0-.09.03-.18.1-.28a.72.72 0 0 1 .24-.19c.28-.14.52-.26.72-.34.04-.02.06-.05.05-.09a.33.33 0 0 0-.13-.21c-.07-.05-.15-.05-.24 0a.12.12 0 0 0-.07.1v.02h-.03a.17.17 0 0 1-.07-.13c-.01-.08.01-.14.06-.17a.5.5 0 0 1 .2-.05c.29-.03.48.06.58.28a2.3 2.3 0 0 1 .16.6c.02.15.03.34.02.56 0 .13.05.2.16.2.02 0 .02.01.02.02 0 .02 0 .03-.02.03-.21.06-.36.1-.45.09-.05 0-.09-.04-.12-.1-.01-.03 0-.1.04-.19l.03-.06c0-.04.01-.06 0-.07ZM28.06 36.73c.08-.07.17-.14.27-.19a.83.83 0 0 1 .31-.1c.18 0 .3.01.36.07.07.07.12.14.14.23a.9.9 0 0 1 .03.29c-.02.44-.01.76 0 .94.01.05.04.09.1.14l.05.04c.02.02.02.03-.01.03h-.65c-.02 0-.02 0-.01-.02a.37.37 0 0 0 .08-.1.31.31 0 0 0 .03-.13v-.9a.49.49 0 0 0-.08-.28c-.07-.08-.15-.11-.27-.08-.22.06-.33.21-.33.45l-.02.82c0 .06.03.13.09.2v.03l-.02.01h-.5c-.05 0-.05-.01-.02-.04.06-.04.08-.09.09-.14v-1.15c0-.13-.02-.2-.06-.24a.08.08 0 0 0-.03-.01c-.06-.01-.1-.02-.11-.04a.03.03 0 0 1-.01-.03c0-.02.01-.02.02-.03l.43-.07.06.01.03.06v.22l.01.01h.02ZM29.97 36.72l.07-.06a.94.94 0 0 1 .2-.14 1 1 0 0 1 .43-.08c.15 0 .27.08.34.22a.6.6 0 0 1 .04.22v.36a10.41 10.41 0 0 0 .03.83l.1.02c.02 0 .03.01.04.03v.02c0 .02 0 .03-.03.03a11.72 11.72 0 0 0-.67.01l.01-.04c.08-.04.12-.11.12-.22a94.34 94.34 0 0 0-.02-1.04.29.29 0 0 0-.12-.18.2.2 0 0 0-.2-.04c-.11.05-.2.1-.26.17a.4.4 0 0 0-.1.27v.86c0 .07.02.13.08.18.02.03.02.04-.02.04h-.54v-.03c.05-.04.08-.08.08-.12l.02-.23.02-1.02c0-.11-.06-.18-.17-.2a.05.05 0 0 1-.04-.02c-.02-.04 0-.06.02-.06l.47-.07c.03 0 .05.01.05.04v.23c0 .01 0 .02.02.03h.03Z" fill="#FEFEFE"/><path d="M31.47 36.53h.01c.12.09.2.17.27.25.06.08.08.13.06.16-.02.03-.08.03-.17-.01-.1-.04-.2-.1-.31-.18v-.02l.14-.2ZM25.85 36.77v-.01l.08-.21c.02-.04.04-.04.07-.01l.3.33c.02.03 0 .05-.04.07a.2.2 0 0 1-.14-.01.77.77 0 0 1-.13-.08.54.54 0 0 0-.14-.08Z" fill="#FEFEFE"/><path d="M24.45 37.79c-.1 0-.21 0-.36-.04a.68.68 0 0 1-.41-.3c-.07-.1-.15-.25-.25-.48l-.09-.2a.38.38 0 0 1-.03-.13l.01-.04c.05-.07.12-.08.21-.05l.22.07.72.18c.12.04.2.08.27.12.08.06.13.14.14.24.03.17 0 .31-.06.42-.08.12-.2.19-.37.2ZM30.33 36.94h-.07a.07.07 0 0 0-.07.06l-.01.9c0 .05.03.08.07.08h.07c.03 0 .07-.03.07-.07v-.9a.07.07 0 0 0-.06-.07ZM28.42 36.94a.11.11 0 0 0-.12.11v.83c0 .06.04.11.1.11.07 0 .12-.05.12-.1l.01-.84a.11.11 0 0 0-.11-.1Z" fill="#50AEDD"/><path d="M26.36 37V37l-.35.17c-.02.01-.02 0 0-.01a.19.19 0 0 1 .09-.07l.26-.1Z" fill="#334393"/><path d="M31.76 37.86c-.02-.1.01-.23.1-.36.08-.1.18-.2.29-.26a.14.14 0 0 1 .07-.02c.02 0 .03.01.03.03v.03c0 .26-.02.42-.09.5a.43.43 0 0 1-.31.15c-.05 0-.08-.02-.09-.07ZM26.27 37.86c-.03-.1 0-.23.1-.36.08-.13.18-.21.3-.25.02-.01.03 0 .04.02.07.18.06.34-.04.47a.4.4 0 0 1-.3.19c-.05 0-.09-.02-.1-.07Z" fill="#ECE232"/><path d="M31.98 37.77c-.04.03-.08.02-.1 0a.03.03 0 0 1-.01-.04.86.86 0 0 1 .25-.35c.03-.02.04-.01.03.02v.05a.98.98 0 0 1-.05.19.27.27 0 0 1-.12.13Z" fill="#50AEDD"/><path d="M26.45 37.55c-.07.1-.1.2-.06.23.04.03.13-.03.2-.14.07-.1.1-.2.05-.23-.03-.03-.12.04-.2.14Z" fill="#334393"/><path opacity=".3" d="M13.02 30a14.69 14.69 0 0 0 4.26 8.51 15.17 15.17 0 0 0 4.87 3.3 15.64 15.64 0 0 0 5.14 1.17 15.1 15.1 0 0 0 13.25-6.63A15.06 15.06 0 0 0 42.98 30h-1.37a11.22 11.22 0 0 1-.27 1.33 13.94 13.94 0 0 1-2.58 5.14 13.96 13.96 0 0 1-9 5.06 13.75 13.75 0 0 1-12.11-4.61A13.45 13.45 0 0 1 14.39 30h-1.37Zm28.6-4v-.04a50.12 50.12 0 0 0-.11-.66 14.01 14.01 0 0 0-1.48-3.97l-.04-.08c-.1-.18-.34-.55-.74-1.12a12.8 12.8 0 0 0-2.6-2.76 13.37 13.37 0 0 0-5.5-2.67 16.23 16.23 0 0 0-3.04-.36 13.96 13.96 0 0 0-7.69 2.26A13.64 13.64 0 0 0 14.4 26h-1.37l.05-.33c.17-1.23.52-2.45 1.05-3.65a14.98 14.98 0 0 1 5.95-6.8 14.02 14.02 0 0 1 4.4-1.81 15.14 15.14 0 0 1 8.5.42 15.4 15.4 0 0 1 5.3 3.14 14.08 14.08 0 0 1 2.6 3.14A14.92 14.92 0 0 1 43 26h-1.37Z" fill="#334393"/></svg>