<!-- by TradingView --><svg width="56" height="56" viewBox="0 0 56 56" xmlns="http://www.w3.org/2000/svg"><path fill="#F0F3FA" d="M0 0h56v56H0z"/><path d="M44.54 24.06c.24 1.26.38 2.06.41 2.4.05.54.06 1.45.03 2.72a17.19 17.19 0 0 1-9 13.85c-1.88 1-3.86 1.62-5.94 1.85-5.01.56-9.43-.81-13.25-4.11a16.34 16.34 0 0 1-5.46-9.32c-.76-4.04-.2-7.87 1.67-11.48a17.02 17.02 0 0 1 17-8.85c2.38.27 4.58 1 6.59 2.2a16.84 16.84 0 0 1 7.95 10.74Z" fill="#FFFCD7"/><path d="M43.77 28.14a15.62 15.62 0 0 1-9.74 14.55 15.65 15.65 0 0 1-12.08 0 15.65 15.65 0 0 1-8.53-8.52 15.58 15.58 0 0 1 0-12.06 15.62 15.62 0 0 1 8.53-8.52 15.65 15.65 0 0 1 12.08 0 15.65 15.65 0 0 1 8.54 8.52c.8 1.93 1.2 3.94 1.2 6.03Z" fill="#FDC800"/><path d="M43.18 28.14a15 15 0 0 1-4.44 10.72A15.08 15.08 0 0 1 28 43.3a15.07 15.07 0 0 1-10.74-4.44 15.05 15.05 0 0 1-4.45-10.72 15 15 0 0 1 4.45-10.72A15.08 15.08 0 0 1 28 12.98a15.07 15.07 0 0 1 10.74 4.44 15.05 15.05 0 0 1 4.44 10.72Z" fill="#FFFCD7"/><path d="M39.75 28.14a11.62 11.62 0 0 1-3.44 8.31 11.7 11.7 0 0 1-8.33 3.45 11.68 11.68 0 0 1-8.33-3.45 11.68 11.68 0 0 1-3.44-8.3 11.62 11.62 0 0 1 3.44-8.32 11.7 11.7 0 0 1 8.33-3.44 11.67 11.67 0 0 1 8.33 3.44 11.68 11.68 0 0 1 3.44 8.31Z" fill="#EC081F"/><path d="M39.18 28.14a11.06 11.06 0 0 1-3.28 7.9 11.11 11.11 0 0 1-7.92 3.28 11.1 11.1 0 0 1-7.91-3.28 11.09 11.09 0 0 1-3.28-7.9 11.06 11.06 0 0 1 3.28-7.9 11.11 11.11 0 0 1 7.91-3.28 11.1 11.1 0 0 1 7.92 3.28 11.09 11.09 0 0 1 3.28 7.9Z" fill="#FDC800"/><path d="m36.22 21.43-2.17-.05c0-.32-.18-.52-.52-.6-.08-.02-.1 0-.07.08.06.12.14.2.24.25.07.04.08.09.02.14-.23.19-.5.25-.84.17-.04-.01-.06 0-.07.05v.1c-.01.06.02.1.08.1l.31.06c-.23.26-.53.44-.9.54-.04-.16-.14-.24-.3-.25-4.23.17-8.48.2-12.73.08a10.5 10.5 0 0 1 7.38-4.48 10.64 10.64 0 0 1 9.57 3.8Z" fill="#B0E2FA"/><path d="M36.22 21.43a10.31 10.31 0 0 1 2.4 6.78c-2.82-.05-5.63.02-8.44.2l-3.07-1.27a3.83 3.83 0 0 0-1.18-.34c-.34 0-.68.19-1.03.58-.04.06-.1.1-.17.13-.14.07-.23.13-.26.16-.28.33-.6.55-.96.66-1.66.07-3.34.12-5.04.14-.24 0-.6.06-1.09.18-.1-2.4.52-4.58 1.89-6.55 4.25.11 8.5.09 12.74-.08l.18.61c.02.1 0 .18-.05.26a.28.28 0 0 1-.23.11 1.8 1.8 0 0 1-.73-.14c-.08-.03-.14-.01-.17.06a.34.34 0 0 0-.01.22c.02.08.07.12.15.12H32c.07 0 .1.04.12.1.02.12-.12.35-.4.69-.08.08-.06.12.06.11.17 0 .4-.2.69-.59a.23.23 0 0 0 .04-.2c-.04-.18.05-.3.25-.35.04-.01.05-.04.05-.08s-.04-.07-.1-.09a.16.16 0 0 1-.11-.12c-.06-.24-.16-.4-.3-.46.37-.1.67-.28.9-.54.17-.12.33-.16.47-.11.08.02.1.06.06.13l-.2.35c-.05.08-.03.1.06.07.33-.13.49-.39.46-.79l2.17.05Z" fill="#CCEBFD"/><path d="m15.07 26.16.57-.01c.04 0 .06.02.08.05 0 .04 0 .06-.03.08l-.47.34c-.03.02-.04.05-.02.08l.19.54c0 .04 0 .06-.03.09-.03.02-.06.02-.09 0l-.46-.34c-.03-.02-.06-.02-.09 0l-.45.35c-.03.02-.06.02-.1 0-.02-.02-.03-.05-.02-.09l.18-.54c.01-.04 0-.06-.03-.08l-.47-.33c-.03-.02-.04-.05-.03-.08.01-.04.04-.06.07-.05h.58c.03 0 .06-.02.07-.05l.16-.55c.01-.04.04-.06.07-.06.04 0 .06.02.07.06l.18.54c0 .04.03.05.07.05ZM41.52 26.16l.58-.01c.03 0 .06.02.07.05.01.04 0 .07-.03.09l-.47.33c-.03.02-.04.05-.03.08l.2.54c0 .04 0 .07-.03.09-.03.02-.06.02-.09 0l-.46-.35c-.03-.02-.06-.02-.1 0l-.45.35c-.03.02-.06.03-.09 0-.03-.02-.04-.05-.03-.08l.2-.55c0-.03 0-.06-.04-.08l-.47-.33c-.03-.02-.04-.05-.03-.08.01-.04.04-.05.07-.05h.58c.04 0 .06-.01.07-.05l.17-.55c0-.03.03-.05.07-.05.04 0 .06.02.07.05l.17.55c.01.04.03.05.07.05Z" fill="#FDC800"/><path d="M30.18 28.42c.13.05.21.1.25.16.07.08.05.13-.06.13a.77.77 0 0 1-.52-.18c-.06-.04-.1-.03-.13.02l-.04.07c-.02.03-.02.07.02.1.25.23.55.29.88.17.07-.03.13-.02.17.01.05.05.06.1.02.17-.04.08-.03.14.03.17.3.17.62.25.97.26.11 0 .2.04.26.12.06.07.04.12-.05.14a.17.17 0 0 0-.1.06c-.03.04-.03.08 0 .12l.22.2c.03.04.05.03.06-.01.05-.2.17-.24.37-.14a.2.2 0 0 0 .2 0l.33-.24c.32-.24.57-.39.75-.44a.86.86 0 0 1 .82.17l.94.75c.05.04.05.07 0 .1a.7.7 0 0 1-.67.1c-.03-.03-.04-.06-.03-.09.01-.07.05-.08.11-.05.17.1.27.1.3-.01.02-.05.01-.1-.04-.12l-1.15-.67c-.05-.02-.07-.01-.05.04l.03.13c.01.08-.02.12-.1.12a.74.74 0 0 0-.28.08.34.34 0 0 1-.2.03.42.42 0 0 0-.43.17l-.54.13c-.06.01-.09.05-.09.1 0 .06.02.1.07.12a.7.7 0 0 1 .2.13c.03.03.02.06-.03.07l-.76.18a.46.46 0 0 1-.23-.01.52.52 0 0 0-.39.03.46.46 0 0 1-.2.04l-1.68-.01-.4.08c-.3.01-.55-.04-.72-.17-.06-.04-.06-.07.02-.1.15-.03.28-.09.4-.18l.15-.08c.05-.03.06-.06.03-.12l-.1-.18c-.05-.08-.1-.1-.18-.05-.36.2-.67.25-.94.17-.16-.04-.4-.2-.72-.45l-.25-.2a31 31 0 0 1-.49-.49 1.43 1.43 0 0 0-.71-.38c-.02-.24 0-.42.05-.55l.88-.56c.29.16.5.34.63.54.04.06.1.1.18.08.17-.02.3.03.41.16.04.05.1.08.16.09l.26.02.01.07c.02.06.05.1.11.1.35.08.67.22.96.46.06.05.13.05.19-.02l.11-.1c.02-.02.03-.03.05-.02.03.01.06.03.07.05.03.06.01.1-.06.12l-.1.02-.01.03c0 .02.01.05.03.07.04.03.08.04.12.01l.08-.05c.03-.01.05 0 .07.02.22.25.42.33.61.24a.18.18 0 0 1 .22.03l.44.44c.04.03.04.07.01.11a.32.32 0 0 1-.04.07c-.05.06-.06.12-.01.2.08.13.2.2.36.24.07.02.11 0 .14-.06l.04-.06c.04-.07.02-.1-.05-.12a.62.62 0 0 1-.31-.19c-.07-.08-.06-.11.05-.1.1 0 .16-.04.18-.14.01-.06 0-.11-.07-.15l-.66-.38a.27.27 0 0 1-.12-.15c-.02-.04-.04-.07-.06-.08-.08-.04-.13-.02-.15.06-.02.08-.05.12-.09.14-.07.03-.14.02-.19-.05l-.42-.56c-.06-.08-.12-.08-.19 0-.03.05-.09.1-.16.14-.07.04-.14.03-.2-.02-.29-.26-.6-.38-.96-.37a.65.65 0 0 0-.38-.34c-.47-.14-.9-.36-1.25-.66l-.88.35c-.27-.1-.53.06-.77.45-.31.02-.59.18-.81.5a.95.95 0 0 1-.71.38c-.07 0-.12.02-.15.05a.2.2 0 0 0-.08.15c0 .06.03.1.09.13.05.03.1.02.15-.02a2 2 0 0 1 .81-.42.17.17 0 0 0 .14-.15.48.48 0 0 1 .14-.29.2.2 0 0 1 .2-.04c.17.06.32.14.45.25a.3.3 0 0 1-.25 0c-.09-.04-.13-.01-.13.08 0 .03 0 .05-.02.08-.04.05-.1.1-.17.12-.25.1-.47.23-.66.4l-.27.13c-.26-.02-.48.13-.67.45-.08 0-.15 0-.2-.03-.1-.03-.14-.07-.13-.14 0-.06.06-.13.16-.19.12-.07.11-.12-.04-.14-.05 0-.07-.04-.1-.12l.4-.48c.05-.06.11-.1.18-.1.42-.07.56-.25.4-.54.35-.11.67-.33.95-.66.03-.03.12-.09.26-.16a.53.53 0 0 0 .17-.13c.35-.39.7-.58 1.03-.58.24 0 .63.12 1.18.34l3.07 1.28Z" fill="#025422"/><path d="m28.07 28.47-.26-.02a.23.23 0 0 1-.16-.09.42.42 0 0 0-.4-.16.18.18 0 0 1-.2-.08c-.12-.2-.33-.38-.62-.54v-.11c.37.3.79.52 1.26.66.15.05.28.16.38.34Z" fill="#A8BE72"/><path d="M25.56 27.82c-.18.25-.18.36 0 .32-.06.13-.08.31-.07.55-.02-.18-.15-.27-.4-.26-.08 0-.18-.05-.3-.16.24-.4.5-.54.77-.45Z" fill="#696868"/><path d="M38.62 28.2c0 .93-.12 1.84-.36 2.73-.6.08-1.18.06-1.75-.07-.2-.05-.4-.06-.55-.04a1.1 1.1 0 0 1-.54-.05.36.36 0 0 0-.2-.01c-.57.13-1.13.14-1.68.04l.03-.18a.2.2 0 0 1 .1.02l1.05-.1a.6.6 0 0 0 .18-.1.7.7 0 0 0 .67-.1c.05-.04.05-.07 0-.1l-.94-.76a.86.86 0 0 0-.82-.17c-.18.05-.43.2-.75.44l-.32.23a.2.2 0 0 1-.2.01c-.2-.1-.33-.06-.38.14 0 .04-.03.05-.06.02l-.21-.2c-.04-.05-.04-.09 0-.13a.17.17 0 0 1 .1-.06c.08-.02.1-.07.04-.14a.32.32 0 0 0-.26-.12c-.35-.01-.68-.1-.97-.26-.06-.03-.07-.09-.03-.17.04-.07.03-.12-.02-.17-.04-.03-.1-.04-.17-.01a.82.82 0 0 1-.88-.17c-.04-.03-.04-.07-.02-.1l.04-.07c.03-.05.07-.06.13-.02.16.13.34.19.52.18.1 0 .13-.05.06-.13a.58.58 0 0 0-.25-.16c2.8-.2 5.62-.26 8.44-.21Z" fill="#B0E2FA"/><path d="M27.78 29.28a.7.7 0 0 1-.09-.21c-.3-.37-.7-.57-1.17-.61a.4.4 0 0 1-.2-.07c-.13-.1-.28-.07-.43.06a.06.06 0 0 1-.07.02l-.15-.07c-.07-.03-.08-.06 0-.1l.32-.2a.2.2 0 0 1 .2 0c.22.12.5.2.86.25.07 0 .14.04.2.08.16.16.3.26.45.3.09.02.14.08.16.17.02.11.1.2.23.26.11.06.1.1-.02.1l-.29.02Z" fill="#A8BE72"/><path d="M23.51 28.33c.16.29.03.47-.39.54a.28.28 0 0 0-.18.1l-.4.48a.65.65 0 0 0-.2.17.2.2 0 0 0-.03.2c.01.04.01.09 0 .14a.2.2 0 0 1-.13.14.67.67 0 0 0-.37.29c-.26.03-.52.24-.79.6-.29-.02-.57.05-.83.2l-2.3.22c-.3-.9-.46-1.82-.5-2.76.47-.12.84-.18 1.08-.18 1.7-.02 3.38-.07 5.04-.14Z" fill="#B0E2FA"/><path d="M24.8 28.27c.1.11.2.17.3.16.24 0 .37.08.4.26.29.07.53.2.71.38l.5.5.24.19c.31.25.56.4.72.45.27.08.58.02.94-.17.07-.04.13-.03.18.05l.1.18c.03.06.02.1-.03.12l-.15.08v-.06c0-.04-.03-.05-.06-.04l-.72.3a.84.84 0 0 0-.31-.33c-.09-.06-.22-.1-.4-.13-.27-.04-.45-.14-.55-.28-.04-.07-.1-.08-.17-.05-.13.05-.22.07-.28.06-.3-.06-.3-.14-.02-.23.06-.02.08-.11.05-.28a.17.17 0 0 0-.13-.15 1.33 1.33 0 0 1-.76-.48c-.04-.05-.1-.06-.16-.03l-.09.05-.09-.01a1.4 1.4 0 0 0-.45-.25.2.2 0 0 0-.2.04.48.48 0 0 0-.14.3.17.17 0 0 1-.14.14 2 2 0 0 0-.8.42.14.14 0 0 1-.16.02.13.13 0 0 1-.09-.13c0-.06.03-.1.07-.15.04-.03.09-.04.16-.05.3-.03.54-.16.7-.39.23-.3.5-.47.82-.5Z" fill="#A8BE72"/><path d="M27.93 30.67a1.8 1.8 0 0 1-1.38-.25l-.79-.22a.16.16 0 0 1-.12-.13c-.02-.1.02-.2.11-.29.07-.08.08-.18.03-.29a.21.21 0 0 0-.16-.13.7.7 0 0 0-.28 0 .77.77 0 0 0-.33.02c-.16.02-.27-.01-.3-.07-.05-.07-.04-.12.03-.15a.9.9 0 0 0 .38-.34l.08-.05c.07-.03.12-.02.16.03.19.24.44.4.76.48.08.02.12.07.13.15.03.17.01.26-.05.28-.28.1-.27.17.02.23.06.01.15 0 .28-.06.07-.03.13-.02.17.05.1.14.28.24.54.28.19.03.32.07.41.13.14.08.24.2.31.33Z" fill="#025422"/><path d="M27.78 29.28c-.03.1-.01.18.07.25a.23.23 0 0 0-.07.13c-.25.04-.42 0-.5-.16a.2.2 0 0 1 0-.22.2.2 0 0 1 .2-.1c.14 0 .21-.03.21-.11a.7.7 0 0 0 .1.2ZM25.34 29.37c-.02.07-.02.11 0 .13h-.28l-.05-.12a.78.78 0 0 1 .33-.01Z" fill="#696868"/><path d="M22.55 29.45c.01.08.04.11.09.12.15.02.16.07.04.14-.1.06-.15.13-.16.19-.01.07.03.11.12.14.06.02.13.03.21.03l-.42.07a.2.2 0 0 0-.15.1c-.15.27-.3.32-.47.15.07-.13.2-.23.37-.29a.2.2 0 0 0 .13-.14.28.28 0 0 0 0-.15.2.2 0 0 1 .04-.2.65.65 0 0 1 .2-.16Z" fill="#57565B"/><path d="M23.49 29.78c.07.01.14.07.2.17.05.06.1.07.16.01.04-.03.04-.08 0-.13-.08-.13-.08-.22-.02-.26l.7-.1c.05 0 .08 0 .1.05l.01.06-.04.03-.71.56a.31.31 0 0 1-.28.07c-.1-.03-.17-.09-.19-.18-.01-.05.01-.14.07-.28Z" fill="#025422"/><path d="M34.9 30.43a.6.6 0 0 1-.18.12c-.01-.08-.09-.1-.22-.09-.06.01-.1 0-.11-.07l.01-.1c.02-.05 0-.07-.06-.06l-.11.03a.08.08 0 0 0-.06.06c-.05.15-.18.2-.42.15l.47-.39c.06-.05.11-.04.16.02.08.1.2.13.35.1.1 0 .1-.04.02-.09l-.48-.28c-.08-.04-.15-.03-.21.02-.13.1-.24.14-.32.1-.09-.02-.13 0-.14.1 0 .04.02.12.07.24.03.07 0 .11-.07.14a.31.31 0 0 1-.15 0 .08.08 0 0 1-.07-.05.08.08 0 0 1 .02-.09l.16-.15c.1-.11.09-.16-.07-.15a.7.7 0 0 0-.4.17l-.03-.1c.11-.14.25-.2.42-.17.07.01.14 0 .2-.03.12-.05.21-.08.3-.08.07 0 .1-.04.09-.12l-.03-.13c-.02-.05 0-.06.05-.04l1.15.67c.05.03.06.07.05.12-.04.1-.14.1-.3.01-.07-.03-.1-.02-.12.05 0 .03 0 .06.03.1ZM23.79 29.48l.04.09c-.06.04-.06.13.03.26.03.05.03.1-.01.13-.06.06-.11.05-.15-.01-.07-.1-.14-.16-.21-.17l.03-.16.27-.14Z" fill="#A8BE72"/><path d="M25.34 29.5c-.03.3-.2.47-.48.48a.09.09 0 0 0-.08.05.09.09 0 0 0 .01.1c.07.07.17.04.3-.08.09-.08.19-.09.3-.03.12.08.19.18.2.31 0 .08-.02.1-.09.05-.17-.13-.3-.18-.41-.15-.04 0-.06.03-.06.06v.07c0 .02-.02.04-.04.06-.06.04-.12.03-.2-.03-.05-.17-.14-.22-.3-.14-.1.07-.2.19-.28.37a.24.24 0 0 1-.16.14c-.34.1-.72.1-1.13 0-.05-.02-.06-.04-.02-.07a.6.6 0 0 1 .54-.07c.07.02.14.02.2 0 .6-.23 1.08-.6 1.42-1.12h.28Z" fill="#025422"/><path d="M25.75 29.78c-.1.1-.13.19-.11.29.01.07.05.11.12.13l.79.22c.02.1.02.16 0 .21-.03.04-.08.06-.17.07-.3 0-.58.05-.81.12-.06.01-.1 0-.15-.02l-.25-.14a.16.16 0 0 0-.18.01.65.65 0 0 1-.35.14c-.06 0-.08-.02-.08-.08 0-.03.04-.05.1-.07.06-.02.1-.06.1-.12l.03-.15c.08.06.14.07.2.03l.03-.06v-.07c0-.03.03-.05.07-.06.1-.03.24.02.41.15.07.05.1.03.09-.05-.01-.13-.08-.23-.2-.3-.11-.07-.21-.06-.3.02-.13.12-.23.15-.3.08a.09.09 0 0 1-.01-.1.09.09 0 0 1 .08-.05c.29-.01.45-.17.48-.48.13.12.27.21.41.28Z" fill="#A8BE72"/><path d="M33.75 30.47a.7.7 0 0 1 .04.05c.02.03.02.05-.02.06a.32.32 0 0 0-.1.06.2.2 0 0 0-.1-.02l-.5-.12c-.08-.01-.11-.06-.1-.14 0-.07.04-.14.11-.2a.7.7 0 0 1 .41-.17c.15 0 .18.04.07.15l-.16.15a.08.08 0 0 0-.02.09c.01.03.03.05.07.05h.15c.08-.03.1-.07.07-.14a.61.61 0 0 1-.07-.25c0-.09.05-.11.14-.08.08.03.2 0 .32-.11.06-.05.13-.06.2-.02l.49.28c.08.05.08.08-.02.1-.16.02-.27-.01-.35-.11-.05-.06-.1-.07-.17-.02l-.46.4Z" fill="#025422"/><path d="m33.06 30.06.02.1c-.07.06-.1.13-.11.2-.01.08.02.13.1.14l.5.12-.03.18-1.03.32-3.07.03c-.05-.22-.06-.33-.03-.31l1.68.01c.07 0 .14-.01.2-.04a.52.52 0 0 1 .39-.03c.07.02.15.02.23 0l.76-.17c.05-.01.06-.04.02-.07a.7.7 0 0 0-.2-.13c-.04-.02-.07-.06-.06-.12 0-.05.03-.09.09-.1l.54-.13Z" fill="#CCEBFD"/><path d="m34.72 30.55-1.04.09a.32.32 0 0 1 .1-.06c.03-.01.03-.03.01-.06a.75.75 0 0 0-.04-.05c.24.05.37 0 .42-.15 0-.03.03-.05.06-.06l.11-.03c.06-.01.07.01.06.06a.2.2 0 0 0-.01.1c.01.06.05.08.1.07.14-.02.22 0 .23.09Z" fill="#57565B"/><path d="M38.25 30.93c-.13.5-.3.99-.5 1.46-.3.17-.54.45-.73.84H20.9c-1 0-1.86-.27-2.62-.8-.15-.33-.28-.67-.39-1.02l2.3-.22c.2.05.4.04.62 0a.3.3 0 0 1 .2.02c.15.07.3.1.47.05a.38.38 0 0 1 .2 0c.44.12.61.05.52-.23.22-.03.44 0 .64.1.06.03.14.05.23.04l.64-.05c.07 0 .13-.03.19-.06l.18-.1c.04-.03.09-.02.12.02.07.09.13.14.17.16.05.02.12.02.2.01.24-.02.42-.08.55-.17.07-.04.13-.04.18.02.1.1.24.15.42.12.5-.07.98-.08 1.42-.03l-.06.13c-.04.08-.02.12.07.12h1.73c.07 0 .12-.03.13-.1.01-.06 0-.11-.05-.17.02-.02.05-.07.06-.15l.4-.08c-.03-.02-.02.09.03.31 1 .24 2.02.23 3.07-.03l1.03-.32c.55.1 1.11.09 1.68-.04a.36.36 0 0 1 .2.01c.18.06.36.08.54.05.16-.02.34-.01.55.04.57.13 1.15.15 1.74.07Z" fill="#71D0F6"/><path d="M21.03 30.99c.33.07.72.09 1.16.04.1.27-.08.35-.51.23a.38.38 0 0 0-.2 0 .62.62 0 0 1-.47-.05.3.3 0 0 0-.2-.03c-.22.05-.43.05-.62.01.26-.15.54-.22.84-.2Z" fill="#696868"/><path d="M32.51 31.12a6.48 6.48 0 0 1-3.07.03l3.07-.03Z" fill="#2BBBEE"/><path d="M37.74 32.4a10.53 10.53 0 0 1-11.1 6.3 10.46 10.46 0 0 1-4.7-1.82 10.48 10.48 0 0 1-3.35-3.78c.38.06.62.3.73.71.02.08.06.14.11.19l.54.44c.06.04.11.06.18.06.78-.08 1.42-.12 1.91-.13 3.5-.02 8.18-.02 14.05 0 .08 0 .14-.03.19-.08.3-.32.55-.67.72-1.06.19-.4.43-.67.72-.84Z" fill="#00A7E6"/><path d="M37.02 33.23c-.18.39-.42.74-.72 1.06a.24.24 0 0 1-.19.08c-5.87-.02-10.55-.02-14.05 0-.5 0-1.13.05-1.91.13a.23.23 0 0 1-.18-.06l-.54-.44a.34.34 0 0 1-.1-.19c-.12-.4-.36-.65-.74-.7a10.5 10.5 0 0 1-.32-.68c.76.53 1.63.8 2.62.8h16.13ZM32.46 36.19c.02-.04.05-.06.08-.05.04 0 .05.02.05.05 0 .05-.03.07-.08.08-.02 0-.04 0-.05-.03a.05.05 0 0 1 0-.05Z" fill="#2BBBEE"/><path d="M23.15 36.34a4.55 4.55 0 0 0 .24.12c.17.14.16.25 0 .34-.26.13-.45.15-.56.07a.16.16 0 0 1-.05-.2c.04-.15.11-.28.2-.4.03-.03.05-.03.08 0l.09.07ZM33.23 36.8c0 .03-.01.06-.05.06l-.07.01c-.39.07-.6.01-.62-.16l-.01-.05c-.03-.17.15-.3.54-.35l.07-.02c.04 0 .06.02.07.06l.07.44ZM25.18 37.49c.02-.06 0-.1-.07-.12l-.06-.01c-.02 0-.03-.02-.02-.03 0-.02 0-.03.03-.03.31-.03.56.02.75.12.07.05.08.1 0 .16a.52.52 0 0 0-.15.28c-.01.06-.05.09-.12.07l-.32-.08c-.08-.02-.11-.07-.1-.15l.06-.21Z" fill="#FDC800"/><path d="M30.88 37.3c-.02-.03-.01-.05.04-.03l.02.03c0 .03 0 .04-.03.03a.05.05 0 0 1-.03-.02Z" fill="#696868"/><path d="M30.25 37.7a2.99 2.99 0 0 1-.08-.12c-.05-.21.02-.3.21-.28.3.05.46.14.5.27.02.08 0 .14-.06.2-.13.1-.27.16-.41.2-.04.02-.07 0-.08-.04l-.02-.1a.35.35 0 0 0-.06-.13ZM27.57 37.79h-.07c-.02 0-.03-.01-.03-.03 0-.02 0-.04.02-.04.33-.11.6-.13.83-.06.1.02.11.08.06.16-.07.1-.1.2-.1.33 0 .08-.03.11-.1.11h-.37c-.1 0-.14-.04-.14-.13v-.24c0-.07-.03-.1-.1-.1Z" fill="#FDC800"/><path d="m27.76 13.83.12-.22a.06.06 0 0 1 .05-.03H28.16v.03l-.21.23a.08.08 0 0 1-.06.03h-.1c-.03 0-.04-.01-.03-.04ZM27.5 14c-.02.07-.1.1-.22.08-.03 0-.03-.02-.02-.05l.15-.2a.08.08 0 0 1 .05-.03h.16c.02 0 .03.02.05.03l.15.18c.02.03.02.05-.02.06-.1.03-.18 0-.24-.08-.02-.04-.04-.04-.05 0ZM27.92 14.9v.2c0 .03 0 .04-.03.04h-.32c-.02 0-.03.02-.03.04v.42c0 .02.02.03.04.03h.38c.02 0 .03 0 .03.02l.01.23c0 .02-.01.04-.03.04l-.72.01c-.03 0-.04 0-.04-.03l-.04-1.68c0-.02.01-.03.04-.03l.68-.02c.02 0 .03.01.03.03v.23c0 .02 0 .03-.03.03l-.35.01c-.02 0-.03.01-.03.04v.34c0 .02.02.03.04.03h.34c.02 0 .03 0 .03.02ZM28.87 15.03l.07.22c.03.12.05.11.05 0l.03-.97c0-.04.02-.06.07-.06h.18c.04 0 .06.02.06.06l-.11 1.65c0 .03-.02.04-.04.04l-.22-.02a.06.06 0 0 1-.05-.04 13.36 13.36 0 0 1-.33-1.02c-.03-.12-.05-.12-.05 0l-.03.97c0 .04-.02.06-.07.06h-.18c-.04 0-.06-.02-.06-.06l.1-1.65c.01-.03.02-.04.05-.04l.21.02c.03 0 .05.01.06.04l.26.8ZM26.48 14.97c.01.04.02.03.03 0l.07-.68c0-.03.02-.04.04-.05l.29-.04c.02 0 .03 0 .03.03l-.2.8c-.04.14-.05.29-.05.44a4.1 4.1 0 0 0 .06.46c0 .03-.01.04-.04.04l-.25.04c-.04 0-.06 0-.06-.04-.01-.2-.03-.36-.05-.47a1.62 1.62 0 0 0-.16-.46l-.33-.67c-.01-.03 0-.05.03-.05l.25-.04c.04 0 .06 0 .07.04l.27.65ZM31.76 14.3a.1.1 0 0 1 .06.06l.09.23c0 .02 0 .03-.03.03a.32.32 0 0 1-.2-.09c-.04-.03-.08-.1-.14-.2a5.54 5.54 0 0 0-.04-.1h.03l.23.07ZM24.86 15.2l.12-.67c0-.03.02-.06.06-.07l.25-.05c.04-.01.05 0 .04.05l-.17.67a.2.2 0 0 0 .03.18l.53.75c.01.03 0 .04-.02.05l-.25.06c-.03 0-.06 0-.08-.03l-.38-.56h-.03l-.02.01c-.01.07 0 .2.06.41l.05.2c0 .04 0 .06-.04.06l-.23.06c-.04 0-.06 0-.06-.04l-.37-1.6c0-.03 0-.05.03-.06l.24-.05c.03-.01.05 0 .06.04l.14.6c.01.07.03.07.04 0ZM30.14 15.82c.12.04.2.02.28-.06.06-.08.06-.17-.03-.27a5.36 5.36 0 0 0-.08-.1 1.4 1.4 0 0 1-.26-.36c-.05-.14-.02-.28.09-.43.08-.11.2-.17.34-.19.13 0 .26.02.4.08.04.02.05.05.04.1l-.07.14c-.01.04-.04.05-.08.03-.2-.1-.33-.08-.4.07 0 .05 0 .1.03.15.02.03.06.09.13.15.11.12.18.22.22.29a.5.5 0 0 1-.02.41.47.47 0 0 1-.38.3.78.78 0 0 1-.5-.1c-.04-.03-.05-.06-.03-.1l.06-.16c.02-.04.05-.05.08-.03.05.04.1.06.18.08ZM24.02 15.87c0-.02-.02-.03-.04-.03h-.1c-.02 0-.04 0-.05-.03l-.05-.16c-.01-.03 0-.05.03-.06l.37-.12c.02-.01.04 0 .05.02l.26.82c.01.02 0 .04-.02.06a.94.94 0 0 1-.51.18.59.59 0 0 1-.49-.23c-.1-.14-.19-.3-.24-.47a1.05 1.05 0 0 1-.03-.49.7.7 0 0 1 .22-.4c.13-.11.3-.18.52-.2.02 0 .02 0 .03.03l.01.27c-.3.02-.45.15-.44.4 0 .2.04.37.12.53.1.19.24.28.41.26.05 0 .07-.03.05-.07l-.1-.31Z" fill="#07479D"/><path fill-rule="evenodd" d="m31.25 15.95.12.02.11.04c.02.01.03.03.03.05l-.02.3c0 .04.01.06.04.07l.2.07c.04.02.07 0 .07-.05l.13-1.67c0-.02-.01-.04-.03-.04a23.1 23.1 0 0 0-.32-.1c-.03 0-.04 0-.05.03l-.79 1.48c-.02.04 0 .07.04.08l.2.05c.04 0 .06 0 .08-.04l.14-.27a.05.05 0 0 1 .05-.02Zm.09-.26a.51.51 0 0 0 .2.05h.02c.06-.46.09-.7.07-.7a3.35 3.35 0 0 0-.3.65Z" fill="#07479D"/><path d="m22.63 16.1.15.17c.08.08.1.07.05-.03l-.42-.88c-.02-.03 0-.06.03-.08l.17-.08c.04-.02.06-.01.08.03l.65 1.51c.01.02 0 .04-.02.05l-.2.09a.06.06 0 0 1-.06-.01l-.6-.6-.16-.17c-.08-.08-.1-.07-.05.03l.42.87c.02.04 0 .07-.03.09l-.17.08c-.03.02-.06.01-.08-.03l-.65-1.51c-.01-.03 0-.04.02-.05l.2-.09.06.01.6.6ZM32.04 16.35c.04.2.13.33.28.4.15.05.3.02.47-.1.17-.13.3-.31.4-.54.08-.24.11-.46.07-.66-.04-.2-.13-.34-.27-.4-.15-.06-.3-.02-.48.1-.17.13-.3.3-.39.54-.09.23-.12.45-.08.66Zm.4.11c-.12-.04-.1-.32.01-.64.12-.31.3-.53.41-.5.11.05.1.34-.02.65-.12.31-.3.54-.4.5ZM34.22 16.38l.52-.43a.08.08 0 0 1 .1 0l.22.11c.04.02.04.04 0 .07l-.57.4a.21.21 0 0 0-.1.15l-.09.91c0 .03-.02.04-.04.03l-.23-.12a.07.07 0 0 1-.04-.08l.07-.67v-.02h-.04c-.05.04-.13.16-.22.35l-.1.18c-.01.03-.04.04-.07.02l-.2-.1c-.04-.02-.04-.05-.03-.08l.77-1.45c.02-.03.04-.03.07-.02l.2.11c.04.02.05.04.03.07l-.29.54c-.03.07-.02.08.04.03ZM35.22 17.37a1 1 0 0 0-.13-.07c-.02-.01-.03 0-.05.01l-.34.52c-.02.03-.05.04-.08.02l-.19-.12c-.03-.03-.04-.06-.01-.09l.9-1.36c.02-.03.05-.04.08-.02l.18.12c.04.03.05.06.02.1l-.34.5v.04a1.63 1.63 0 0 0 .26.17h.04l.34-.52c.02-.04.05-.04.09-.02l.18.12c.03.02.04.05.01.08l-.9 1.36c-.02.04-.05.04-.08.02l-.19-.12c-.03-.02-.04-.05-.01-.09l.34-.51v-.05a1.01 1.01 0 0 0-.12-.09Z" fill="#07479D"/><path fill-rule="evenodd" d="m21.35 17.73-.29-.46c-.01-.03 0-.04.01-.06.33-.21.4-.49.2-.82-.2-.36-.55-.33-1.05.07-.02.02-.03.04-.01.06l.85 1.39c.02.03.04.04.08.02l.19-.12c.03-.02.04-.04.02-.08Zm-.7-1.24c-.03.02-.04.04-.02.07l.24.4c.02.02.04.03.07.01.07-.04.1-.09.12-.15a.23.23 0 0 0-.03-.18l-.04-.07a.23.23 0 0 0-.15-.11.24.24 0 0 0-.19.03Z" fill="#07479D"/><path d="M20 17.66c.1.15.22.25.33.3.14.06.27.03.39-.1.03-.04.06-.04.1 0l.1.13c.03.03.02.06 0 .09-.21.2-.43.28-.66.22a1 1 0 0 1-.55-.43 1 1 0 0 1-.23-.66c.02-.24.16-.42.42-.55.04-.01.07 0 .09.03l.08.14c.03.04.02.07-.03.1-.16.06-.23.17-.22.33.01.12.07.26.18.4ZM18.84 18.42l-.35-.6v-.05l.21-.2c.02-.02.03-.02.04 0l.32.77c.05.13.13.26.22.38.06.07.16.18.3.31l.02.02c.02.02.02.04 0 .06l-.18.18c-.03.03-.05.03-.07 0a3.7 3.7 0 0 0-.32-.34c-.13-.12-.26-.21-.4-.28-.1-.04-.31-.16-.67-.35-.03-.01-.03-.03 0-.05l.17-.19c.03-.02.06-.02.09 0l.6.36c.03.02.03.02.02-.02Z" fill="#07479D"/><path fill-rule="evenodd" d="M37.03 17.45a14.26 14.26 0 0 0-.26-.2c-.01-.02-.03-.02-.05 0l-1.32 1.04c-.03.03-.03.06 0 .09l.17.13h.08l.24-.2a.05.05 0 0 1 .06 0l.1.07.09.08v.06l-.14.27c-.02.03-.01.06.01.08l.16.14c.03.03.06.03.08-.01l.8-1.5c0-.01 0-.03-.02-.05Zm-.71.78c.24-.39.36-.6.34-.6a3.32 3.32 0 0 0-.53.47.53.53 0 0 0 .16.13h.03Z" fill="#07479D"/><path d="m37.43 18.93-.1.2c-.05.11-.04.12.04.04l.66-.71c.03-.03.06-.03.1 0l.13.12c.03.03.03.06 0 .08l-1.17 1.18h-.05l-.16-.16a.06.06 0 0 1-.01-.06 12.5 12.5 0 0 1 .43-1c.05-.1.04-.11-.04-.02l-.66.7c-.03.04-.06.04-.1 0l-.13-.12c-.03-.02-.03-.05 0-.08l1.17-1.17c.02-.02.03-.02.05 0l.15.15c.02.02.03.04.02.07l-.33.78ZM18.75 19.96a.96.96 0 0 1-.1.1h-.05l-1-.91c-.01-.02-.03-.02-.05 0l-.15.16c-.02.03-.04.03-.07 0l-.17-.15c-.02-.02-.02-.03 0-.05a68.07 68.07 0 0 0 .6-.65c.02-.02.03-.02.05 0l.17.15c.03.02.03.04 0 .07l-.14.16c-.02.02-.02.04 0 .06l.99.9c.02.02.02.04 0 .06a.95.95 0 0 1-.08.1ZM38.37 19.79l.1.1c.01.02.02.02.04.01l.47-.39c.03-.03.06-.02.1 0l.13.17c.02.04.02.06-.01.1l-1.25 1.02c-.03.03-.06.03-.09 0l-.14-.17c-.02-.04-.02-.06.01-.09l.48-.4c.01 0 .02-.02 0-.04a.94.94 0 0 0-.08-.12.95.95 0 0 0-.1-.1c-.01-.02-.03-.02-.05 0l-.47.39c-.03.03-.06.02-.09 0l-.14-.18c-.02-.03-.02-.06.01-.08l1.25-1.03c.03-.03.06-.03.09 0l.13.17c.03.03.03.06 0 .09l-.48.39v.04l.09.12ZM17.37 20.55l-.07.05c-.02.02-.04.02-.07 0l-.13-.1c-.03-.01-.03-.03-.01-.06l.22-.31c.02-.02.04-.03.06-.01l.7.5c.02.02.02.04.01.07a.94.94 0 0 1-.31.45.59.59 0 0 1-.53.1 1.3 1.3 0 0 1-.47-.24 1.05 1.05 0 0 1-.31-.39.7.7 0 0 1-.06-.45.86.86 0 0 1 .3-.47h.04l.18.22v.01c-.24.19-.28.38-.13.58.12.16.25.27.41.35.2.1.36.09.49-.03.04-.03.03-.06 0-.08l-.27-.2h-.05ZM39.17 21.43a1 1 0 0 0-.08-.12c-.02-.02-.03-.02-.05 0l-.53.32c-.03.02-.06.02-.08-.02l-.12-.19c-.02-.03-.01-.06.02-.08l1.38-.86c.04-.02.07-.01.09.02l.11.19c.02.03.02.06-.02.09l-.52.32c-.02 0-.02.02-.01.04a1.5 1.5 0 0 0 .16.25c0 .01.02.02.03 0l.53-.32c.03-.02.06-.01.09.02l.1.19c.03.03.02.06-.01.08l-1.38.86c-.04.02-.06.01-.09-.02l-.11-.19c-.02-.03-.02-.06.02-.08l.52-.33c.02 0 .03-.03.02-.05a1.05 1.05 0 0 0-.07-.12ZM16.42 21.55l.23.05c.12.02.12 0 .02-.05l-.85-.46c-.04-.02-.05-.05-.03-.1l.09-.16c.02-.03.04-.04.08-.02l1.43.84c.02.02.02.04 0 .06l-.1.18a.06.06 0 0 1-.06.03c-.15 0-.43-.05-.84-.12l-.23-.05c-.12-.02-.12 0-.02.05l.85.46c.04.02.05.05.03.1l-.09.16c-.02.03-.04.04-.08.02l-1.42-.84c-.03-.02-.03-.03-.02-.06l.11-.18a.06.06 0 0 1 .06-.03c.15.01.43.05.84.12ZM41.02 21.9a.1.1 0 0 1 0 .08l-.12.2c-.02.03-.03.03-.04.01a.31.31 0 0 1-.07-.2c0-.05.03-.13.07-.24a3.3 3.3 0 0 0 .05-.09s.02 0 .02.02l.09.22ZM14.83 22.42v.04c.04.09.03.18-.03.26 0 .02-.02.02-.04 0-.12-.14-.16-.27-.1-.38.04-.11.16-.17.35-.18.02 0 .03.01.03.03a.29.29 0 0 1-.18.2l-.03.03ZM40.68 22.6c.12-.17.14-.33.07-.47-.06-.14-.2-.22-.4-.24-.22-.03-.43.01-.66.12-.23.1-.4.25-.5.43-.12.17-.14.33-.08.47.07.14.2.22.42.25.2.02.42-.02.65-.13.22-.1.4-.25.5-.42Zm-.2-.35c.05.1-.15.31-.45.46-.3.14-.59.18-.64.07-.05-.1.15-.3.45-.45.3-.15.59-.18.64-.08ZM16.2 23.49c.22-.03.35-.11.42-.25.07-.15.04-.3-.07-.48a1.19 1.19 0 0 0-.51-.42c-.23-.1-.44-.15-.65-.12-.21.02-.35.1-.41.25-.07.14-.05.3.07.47.11.18.28.32.5.43.23.1.45.14.66.12Zm.15-.39c-.05.1-.33.08-.64-.06-.3-.14-.52-.33-.47-.44.05-.1.34-.08.64.06s.52.34.47.44ZM15.21 24.33c-.27-.1-.45-.24-.56-.43-.11-.2-.1-.43.04-.68.02-.04.05-.05.1-.03l.14.07c.05.02.06.05.03.09-.1.15-.1.28 0 .4.08.1.2.17.38.24.17.06.32.08.43.06.16-.03.25-.13.27-.3 0-.05.03-.07.08-.06l.16.05c.04.01.06.04.05.08-.06.28-.2.47-.42.55-.2.07-.43.05-.7-.04Z" fill="#07479D"/><path fill-rule="evenodd" d="m39.93 23.67.05.11.03.12c0 .02 0 .04-.02.05l-.26.16c-.03.02-.04.04-.03.08l.07.2c0 .04.04.05.08.03l1.42-.89c.02-.01.03-.03.02-.05a9.26 9.26 0 0 0-.12-.31c0-.02-.02-.03-.04-.03l-1.66.25c-.05 0-.06.03-.04.07l.08.2c.01.03.03.04.07.03l.3-.04c.02 0 .04 0 .05.02Zm.26-.08a.54.54 0 0 0 .07.2h.02c.4-.22.6-.33.6-.35a3.36 3.36 0 0 0-.7.15Z" fill="#07479D"/><path d="m41.63 28.9.02-.04c0-.01 0-.02-.02-.03l-.57-.06c-.04 0-.06-.02-.06-.06v-.2c0-.02 0-.03.03-.02l.71.21c.19.06.32.11.4.16.12.07.22.16.28.28.02.03.02.05-.02.07l-.12.04c-.04.02-.07 0-.1-.03-.08-.16-.2-.21-.33-.17l-.83.2c-.03.01-.04 0-.04-.03v-.2c0-.04.01-.06.05-.07l.6-.06ZM14.77 29.35l.52.17c.03 0 .05.02.05.05l.02.2c0 .04-.02.05-.05.04l-.51-.22a.17.17 0 0 0-.15 0l-.66.33c-.02.01-.03 0-.04-.02l-.01-.2c0-.03 0-.05.03-.06l.49-.24v-.04a.88.88 0 0 0-.34 0l-.16.01c-.03 0-.04 0-.05-.03l-.01-.2c0-.02 0-.03.04-.04l1.31-.1c.03 0 .04.01.04.04l.02.19c0 .02-.01.04-.04.04l-.5.04c-.05 0-.06.02 0 .04ZM40.96 29.84c.02-.02.03-.04.01-.06a.33.33 0 0 1-.03-.08c-.04-.13-.02-.22.07-.29.07-.05.17-.07.3-.06l.63.07c.02 0 .03.01.03.04l-.01.19c0 .02-.02.03-.04.03l-.67-.06c-.07 0-.1.03-.1.1v.04c.03.05.07.08.13.09l.6.04c.03 0 .05.02.04.04l-.01.2c0 .02-.02.03-.05.03l-.92-.07c-.02 0-.04-.02-.04-.04-.02-.09 0-.16.06-.21ZM14.97 30.2l-.01.01v.02c.12.1.16.2.1.3-.05.1-.14.17-.28.19l-.66.1c-.03 0-.04 0-.04-.03l-.03-.2c0-.02 0-.03.03-.04l.69-.1c.02 0 .04-.02.06-.04a.08.08 0 0 0 0-.08v-.03c-.03-.05-.07-.07-.13-.06l-.65.1c-.03 0-.04-.01-.04-.03l-.03-.2c0-.03 0-.04.03-.04l1.35-.2c.03 0 .05 0 .05.04l.02.17c.01.03 0 .05-.04.05l-.42.07Z" fill="#07479D"/><path fill-rule="evenodd" d="M41.78 30.67a.05.05 0 0 1 0-.07.28.28 0 0 0 .08-.2c0-.02 0-.03-.02-.03l-.6-.08c-.37-.04-.53.14-.45.56.01.04.03.06.07.05h.08c.03 0 .04-.02.04-.05v-.16c-.01-.05 0-.09.05-.12l.05-.03c.04-.02.06-.01.07.04v.13a.37.37 0 0 0 .41.36c.1-.01.17-.05.22-.12.05-.08.05-.17 0-.28Zm-.41-.1c-.03 0-.04.01-.04.04 0 .07.02.13.07.17.04.03.1.05.16.03a.1.1 0 0 0 .07-.07.1.1 0 0 0-.03-.1c-.05-.05-.13-.07-.23-.07Z" fill="#07479D"/><path d="M14.25 31.4c.02.02.02.04.01.06a.28.28 0 0 0 0 .22c.01.02.03.03.05.02l.57-.13c.37-.1.45-.32.23-.68-.03-.04-.05-.04-.09-.03l-.07.03c-.03.01-.03.04-.02.06l.07.15c.02.04.01.09-.02.13l-.03.04c-.03.04-.05.04-.08 0l-.05-.13a.37.37 0 0 0-.24-.21.36.36 0 0 0-.27.02c-.08.05-.14.1-.16.19-.02.09.02.18.1.26Zm.42-.06c.03-.01.03-.03.02-.05-.03-.06-.07-.1-.13-.12-.05-.02-.1-.01-.16.03a.09.09 0 0 0-.03.1c0 .03.02.05.06.07.06.02.15.01.24-.03ZM41.56 31.71c-.01 0-.02-.01 0-.02.13-.1.16-.22.08-.34a.7.7 0 0 0-.4-.24c-.18-.05-.33-.05-.44 0-.14.06-.18.18-.13.37l-.01.05a.34.34 0 0 0-.1.19c0 .02 0 .03.02.04l1.33.3c.02.01.03 0 .03-.01l.05-.2c0-.03 0-.04-.02-.04l-.4-.1Zm-.1-.15c-.02.07-.17.1-.34.05-.17-.03-.3-.12-.28-.19.01-.06.16-.09.33-.05.17.04.3.13.28.2ZM15.32 31.87c-.01.02 0 .04.02.06l.05.06c.1.1.1.2.05.3-.04.06-.13.12-.26.16l-.6.18c-.03 0-.05 0-.05-.03l-.06-.18c0-.02 0-.04.02-.04l.65-.2c.07-.02.09-.06.06-.13l-.03-.03a.14.14 0 0 0-.15-.04l-.58.19c-.02 0-.04 0-.05-.03l-.05-.18c-.01-.02 0-.04.02-.05l.89-.28c.02 0 .04 0 .05.02.06.07.06.14.02.22ZM40.45 32.37l-.02-.05a.26.26 0 0 1-.02-.14c.05-.2.19-.26.4-.2l.62.2c.04.02.06.05.04.09l-.04.14c-.01.03-.04.04-.07.03l-.65-.2a.08.08 0 0 0-.08.01.08.08 0 0 0-.02.08v.04a.1.1 0 0 0 .08.07l.61.2c.03.01.04.03.03.06l-.06.18c0 .02-.02.03-.05.02l-.66-.21c-.04-.02-.07 0-.1.03-.02.03-.02.07 0 .1l.06.07.03.01.6.2c.03 0 .04.03.03.07l-.05.15c-.01.03-.03.04-.07.03l-.88-.28c-.03-.01-.04-.03-.03-.06a.32.32 0 0 1 .11-.18.05.05 0 0 0 .02-.05c-.04-.17 0-.3.15-.36.02-.01.03-.03.02-.05ZM15.61 32.77l-.01.01v.02c.14.08.2.17.17.28-.03.1-.11.19-.25.24-.24.1-.45.17-.63.23-.02.01-.03 0-.04-.02l-.07-.2c0-.01 0-.03.02-.03l.66-.24a.08.08 0 0 0 .05-.06l-.01-.07-.02-.03c-.03-.04-.08-.06-.13-.04l-.62.23c-.02 0-.04 0-.04-.02l-.08-.2c0-.01 0-.02.02-.03l1.29-.47c.03-.02.05 0 .06.02l.06.16c0 .04 0 .06-.03.07l-.4.15ZM15.79 34.2a.75.75 0 0 0-.06-.1c0-.02-.02-.03-.04-.02l-.45.22c-.03.01-.05 0-.06-.02l-.08-.16c-.01-.03 0-.05.02-.07l1.19-.57c.03-.01.05 0 .07.03l.07.15c.02.03 0 .06-.02.07l-.45.22c-.01 0-.02.01-.01.02a1.43 1.43 0 0 0 .1.22c0 .02.02.02.03.01l.45-.21c.03-.02.05 0 .07.02l.07.16c.02.03.01.05-.02.06l-1.18.57c-.03.02-.06.01-.07-.02l-.08-.16c-.01-.03 0-.05.03-.06l.45-.22c.01 0 .02-.02.01-.04a.72.72 0 0 0-.04-.1ZM40.64 34.1c.13-.02.22-.08.26-.19.04-.1.03-.2-.03-.31a.62.62 0 0 0-.3-.26.62.62 0 0 0-.4-.05c-.12.03-.2.1-.25.2-.05.1-.04.2.03.32.06.11.16.2.3.26.14.05.27.07.4.04Zm.07-.27c-.03.07-.19.06-.35-.01-.17-.08-.29-.19-.26-.25.03-.06.19-.05.35.02.17.07.29.18.26.24ZM39.71 34.7a.81.81 0 0 1-.4-.4c-.07-.18-.04-.36.1-.55.02-.03.05-.03.08-.01l.11.07c.03.02.04.04.01.08-.09.1-.1.2-.04.32.05.08.14.16.28.23.13.07.24.1.34.1.13-.01.2-.09.24-.22.01-.04.04-.05.07-.04l.13.06c.03.01.04.03.03.07-.08.22-.2.35-.4.4a.81.81 0 0 1-.55-.12ZM39.3 34.85l.23.4.02.01.6.07c.03 0 .03.01.02.03l-.16.22-.03.01-.39-.09-.02.01v.03l.32.22v.03l-.1.19h-.04l-1.2-.74c-.02 0-.02-.01-.01-.03l.13-.18h.03l.67.4h.03v-.03l-.26-.31v-.02l.13-.22c.01-.02.02-.02.03 0ZM16.64 35.14c.05-.11.06-.22 0-.32-.05-.1-.14-.15-.27-.17a.62.62 0 0 0-.39.08.62.62 0 0 0-.28.28c-.05.11-.06.22 0 .32.05.1.14.15.27.17.12.02.25 0 .39-.08a.62.62 0 0 0 .28-.28Zm-.19-.23c.04.06-.06.18-.22.27-.16.1-.32.12-.35.06-.03-.06.07-.18.23-.27.15-.09.31-.12.34-.06ZM39.09 36.07c.18.13.3.11.39-.04.02-.03.05-.04.09-.02l.08.05c.03.02.04.05.02.09-.08.15-.2.24-.33.26-.12.02-.26-.02-.4-.12-.14-.1-.23-.22-.25-.34-.03-.14.02-.27.14-.4.02-.03.06-.03.09 0l.07.05c.03.03.04.06 0 .1-.1.12-.08.25.1.37ZM16.26 36.11c.03.01.04.03.04.06 0 .07.02.14.07.2.02.01.03.02.05 0l.49-.33c.31-.22.3-.46-.03-.72-.03-.02-.06-.02-.1 0l-.05.06c-.02.02-.02.05 0 .07l.12.11c.04.04.05.08.03.13l-.01.05c-.01.05-.04.06-.07.02l-.1-.1a.37.37 0 0 0-.3-.11c-.1 0-.17.05-.24.12-.07.07-.1.15-.09.23.02.1.08.16.2.21Zm.37-.27c.02.06-.04.13-.12.16-.09.03-.17 0-.2-.05-.01-.06.04-.13.12-.16.09-.03.18 0 .2.05ZM17.33 36.76v-.1c0-.18 0-.3.04-.37.04-.11.13-.18.27-.22.11-.02.22 0 .32.07.08.07.15.15.2.26.01.04 0 .06-.03.08l-.12.06c-.03.01-.05 0-.06-.03-.07-.17-.17-.22-.28-.16-.05.02-.08.11-.07.26a.9.9 0 0 1-.02.29.4.4 0 0 1-.23.24.38.38 0 0 1-.39-.02.63.63 0 0 1-.25-.33c0-.03 0-.06.04-.07l.12-.07c.03-.01.05 0 .06.03l.07.14c.05.09.12.12.2.1.08 0 .13-.06.13-.16ZM38.76 37.14c.13 0 .23-.04.3-.12.07-.09.09-.2.06-.32a.62.62 0 0 0-.23-.33.62.62 0 0 0-.36-.15c-.13 0-.23.04-.3.12-.07.09-.09.2-.06.32.04.12.11.23.22.33.12.1.24.14.37.15Zm.15-.25c-.05.05-.2 0-.34-.12-.15-.11-.23-.25-.2-.3.05-.05.2 0 .35.11.14.12.23.25.19.3ZM37.63 37.02l-.08-.07c-.03-.02-.04-.05-.02-.09l.08-.15c.02-.03.05-.04.07-.01l.13.12h.06l.07-.09c.03-.03.06-.03.1 0l.05.05c.03.03.03.06 0 .09l-.06.06c-.02.03-.02.05 0 .07l.38.35c.03.02.05.02.06 0 .08-.1.15-.1.22 0 .03.03.03.06 0 .1-.13.2-.27.23-.41.12-.14-.1-.27-.22-.4-.34a.08.08 0 0 0-.1-.01c-.06.03-.11.02-.16-.04a.05.05 0 0 1 0-.06l.02-.04-.01-.06ZM37.69 37.75l-.1.02c-.17.02-.3.02-.37 0-.11-.03-.2-.11-.25-.25a.37.37 0 0 1 .03-.31c.05-.1.13-.17.23-.24.04-.02.06-.01.09.02l.07.11c.02.03.01.05-.02.07-.16.09-.2.19-.13.3.03.04.12.05.27.03a.89.89 0 0 1 .3-.02c.1.02.2.09.26.2.08.12.1.26.03.4a.63.63 0 0 1-.3.28c-.03.02-.06 0-.08-.02l-.07-.12c-.02-.03-.02-.05.01-.06a.54.54 0 0 0 .14-.09c.07-.06.1-.13.08-.21-.02-.08-.09-.12-.19-.1ZM18.84 37.15l-.97.96a.04.04 0 0 0 0 .07l.13.13h.06l.97-.96a.04.04 0 0 0 0-.07l-.13-.13a.04.04 0 0 0-.06 0ZM17.32 37.57c.02.09.1.15.21.18.03 0 .04.02.05.05 0 .07.04.13.1.19h.05l.43-.4c.28-.28.23-.51-.14-.72-.03-.02-.06 0-.09.02l-.04.06c-.02.03-.01.05.01.07l.13.1c.04.02.06.06.05.11v.06c0 .05-.03.06-.07.03l-.11-.08a.37.37 0 0 0-.31-.07.36.36 0 0 0-.23.16c-.05.08-.07.16-.04.24Zm.54-.14c.02.06-.02.13-.1.17-.09.04-.18.02-.2-.04-.03-.05.02-.13.1-.16.08-.04.17-.03.2.03ZM36.44 38.24v-.05l-.07-.09c-.03-.02-.03-.05 0-.08l.1-.14c.02-.04.04-.04.06 0l.12.13c.01.02.03.02.05 0l.09-.07c.03-.03.06-.03.09 0l.04.06c.03.04.03.07 0 .1l-.07.05c-.02.02-.03.04 0 .07l.32.39c.02.02.04.02.06 0 .1-.08.16-.07.22.03.02.03.01.07-.01.1-.16.18-.3.2-.43.07a7.26 7.26 0 0 1-.35-.38.07.07 0 0 0-.09-.03c-.07.02-.12 0-.16-.06a.05.05 0 0 1 0-.06l.03-.04ZM19.63 38.48c0 .02.02.03.05.03l.08.02c.13.04.2.11.2.21.01.09-.02.19-.1.3l-.4.49c-.01.02-.03.02-.05 0l-.16-.11c-.01-.02-.02-.03 0-.05l.42-.54c.04-.05.03-.1-.03-.14h-.05c-.05-.01-.1 0-.13.05l-.38.49c-.01.02-.03.02-.05 0l-.15-.11c-.02-.02-.02-.04 0-.06l.55-.74c.02-.02.04-.02.06-.01.09.02.13.08.14.17ZM18.49 38.7c.02 0 .04.02.04.05.02.07.06.13.13.17h.04l.4-.44c.25-.3.18-.52-.21-.69-.04-.01-.06 0-.08.03l-.04.06c-.02.03-.01.05.01.07l.14.08c.05.02.07.06.06.11v.06c0 .05-.02.06-.06.03l-.12-.06a.36.36 0 0 0-.52.13c-.05.09-.05.17-.02.24.03.09.1.14.23.16Zm.28-.35c.03.06 0 .14-.07.19-.08.05-.17.04-.2-.01-.04-.05 0-.14.07-.18.08-.05.16-.05.2 0ZM36 38.68l.04-.08c.06-.12.15-.17.25-.15.09.02.17.07.26.18l.4.5-.01.05-.15.12c-.02.02-.04.02-.05 0l-.43-.53c-.04-.05-.09-.06-.14-.01l-.02.04c-.02.06-.02.1.02.15l.4.47-.01.06-.15.12c-.02.02-.04.01-.06 0l-.6-.72v-.06c.05-.08.12-.11.2-.1.03 0 .05-.01.05-.04ZM35.34 38.91a.15.15 0 1 0 0-.3.15.15 0 0 0 0 .3ZM35.58 38.92l-.17.13a.03.03 0 0 0 0 .04l.55.78c.01.02.03.02.05.01l.17-.12a.03.03 0 0 0 0-.05l-.56-.78a.03.03 0 0 0-.04 0ZM19.76 39.76c.05.08.13.12.25.13.03 0 .04.01.02.04a.33.33 0 0 1-.2.13l-.06-.01-.17-.16c-.02-.02-.04-.02-.06 0l-.09.1v.05c.1.15.23.23.38.25.16.02.29-.04.4-.2l.55-.77v-.06a.21.21 0 0 0-.19-.09c-.02 0-.03 0-.04-.02-.06-.15-.16-.2-.3-.18-.1.02-.2.08-.3.18-.09.1-.15.2-.2.32-.03.12-.03.21.01.29Zm.26-.04c-.05-.04-.02-.18.07-.32.1-.14.22-.22.28-.18.06.04.03.18-.07.32s-.22.22-.28.18ZM34.65 40.34l-.51-.88c-.02-.03-.01-.07.02-.09l.14-.07c.03-.03.06-.02.08.02.16.3.3.55.43.75.18.3.13.53-.15.67-.05.02-.08 0-.1-.04l-.05-.08c-.03-.04-.02-.08.03-.1a.2.2 0 0 0 .11-.1.08.08 0 0 0 0-.08ZM35.21 40.24c.12.05.23.04.32-.01.1-.06.15-.16.16-.28a.62.62 0 0 0-.1-.39.62.62 0 0 0-.3-.26c-.12-.05-.23-.04-.32.01-.1.06-.15.15-.16.28 0 .13.02.26.1.39.08.12.18.21.3.26Zm.22-.2c-.06.05-.18-.05-.28-.2-.1-.15-.14-.3-.08-.34.06-.04.19.05.28.2.1.16.14.31.08.35ZM21.82 39.93c.01.02.03.03.05.03h.09c.14.01.22.07.24.17.03.08 0 .18-.05.3l-.3.56c0 .03-.02.03-.04.02l-.18-.08c-.02-.01-.02-.03-.01-.05l.3-.6c.03-.07.02-.11-.05-.14h-.05c-.06 0-.1.03-.12.08l-.27.55c-.01.02-.03.03-.05.02l-.17-.08c-.03-.02-.03-.04-.02-.06l.4-.83a.05.05 0 0 1 .06-.03c.09.01.15.06.17.14ZM33.62 40.5l-.02-.33c0-.05.02-.08.05-.1l.15-.07c.05-.02.07 0 .07.05l-.04.38c0 .02 0 .04.02.05l.43.38c.03.03.02.05-.01.06l-.18.08c-.04.02-.07.01-.1-.02l-.17-.2c-.1-.08-.12-.07-.08.05l.1.23c.02.03.01.06-.02.07l-.14.07c-.04.02-.06 0-.08-.03l-.58-1.22c-.01-.03 0-.05.03-.06l.17-.07c.02-.02.04 0 .06.02l.3.67c.03.07.05.06.04-.01Z" fill="#07479D"/><path fill-rule="evenodd" d="M20.74 40.38c.03 0 .05.01.06.04.02.06.08.11.16.15.01 0 .03 0 .04-.02l.3-.5c.19-.34.07-.55-.34-.64-.04-.01-.07 0-.08.04l-.02.07c-.01.03 0 .05.02.06l.16.05c.04.02.07.05.08.1l.01.06c0 .05 0 .06-.06.05l-.13-.05a.37.37 0 0 0-.31.03.36.36 0 0 0-.17.2c-.03.1-.02.18.02.25.05.08.14.12.26.11Zm.05-.39c-.05.03-.08.08-.1.15 0 .03.02.06.05.09a.1.1 0 0 0 .1 0c.07-.03.12-.1.15-.2.01-.02 0-.04-.02-.04-.07-.03-.13-.03-.18 0Z" fill="#07479D"/><path d="M32 40.6a.14.14 0 1 0 0-.28.14.14 0 0 0 0 .29ZM32.59 40.59c.02 0 .04 0 .05-.02a.33.33 0 0 1 .06-.06c.1-.1.2-.12.29-.07.07.03.14.12.2.24l.22.59c0 .02 0 .04-.02.05l-.18.07c-.02 0-.04 0-.05-.02l-.25-.63c-.02-.06-.07-.08-.13-.05l-.03.04a.14.14 0 0 0-.03.15l.24.56c0 .02 0 .04-.02.05l-.18.07c-.02.01-.04 0-.05-.02l-.36-.86c0-.02 0-.04.02-.05.07-.06.14-.07.22-.04ZM24.3 41.24v-.18c-.01-.1-.03-.1-.05 0l-.18.75c-.01.04-.03.05-.07.04l-.14-.03c-.04-.01-.05-.03-.04-.06l.36-1.29c0-.02.02-.02.04-.02l.17.05c.02 0 .03.02.04.04a10.57 10.57 0 0 1 .08.87c.01.1.02.1.05 0l.18-.76c0-.03.03-.04.06-.04l.15.04c.03 0 .04.02.04.06l-.37 1.28c0 .02-.02.03-.04.02l-.16-.04a.05.05 0 0 1-.04-.05l-.07-.68Z" fill="#07479D"/><path fill-rule="evenodd" d="M22.38 40.92c-.01-.07.02-.1.08-.07l.37.16c.02 0 .03 0 .04-.02.07-.12.11-.24.11-.36 0-.15-.05-.25-.16-.3a.36.36 0 0 0-.44.07c-.1.1-.18.24-.23.42-.03.16 0 .28.1.38.1.08.22.13.39.15.02 0 .03 0 .04-.02l.02-.12c.01-.03 0-.04-.02-.05l-.15-.03a.17.17 0 0 1-.13-.14l-.02-.07Zm.12-.3c0 .03 0 .05.03.06l.15.06c.02 0 .04 0 .05-.03.02-.05.03-.1.02-.14-.01-.04-.03-.07-.06-.08-.04-.01-.07 0-.1.02a.24.24 0 0 0-.08.1v.01Z" fill="#07479D"/><path d="m23.33 40.93.03.05c.1.14.14.25.11.35-.04.15-.13.23-.27.24a.48.48 0 0 1-.36-.13c-.02-.02-.02-.05 0-.07l.07-.1c.02-.03.04-.03.06 0 .04.05.1.08.17.08.04 0 .06-.01.08-.04a.08.08 0 0 0 0-.1l-.03-.03c-.09-.12-.13-.2-.13-.27-.01-.15.04-.25.15-.3.1-.05.23-.04.37.03.06.02.08.07.05.13v.02c-.03.06-.07.07-.12.04-.1-.06-.16-.07-.2-.03-.02.03-.02.08.02.13ZM32.18 40.69l-.2.07a.03.03 0 0 0-.01.03l.3.92c0 .01.02.02.03.01l.2-.06c.02 0 .03-.02.02-.04l-.3-.91a.03.03 0 0 0-.04-.02ZM31.71 40.94c.01-.06.04-.1.09-.15.04-.02.06-.02.09.02l.06.17c0 .03-.01.04-.03.06-.1.06-.14.15-.12.24.04.17.09.34.15.5.01.03 0 .05-.04.06l-.17.05c-.03.01-.05 0-.06-.03l-.26-.88c0-.02 0-.04.02-.05.11-.08.19-.07.23.02.02.04.03.04.04 0ZM29.05 41.3c0-.31.14-.45.43-.43.02 0 .04.01.04.03.01.12-.01.18-.08.19-.06 0-.1.04-.12.1v.05c-.02.07 0 .1.07.08l.17-.03c.04 0 .05-.02.04-.06-.03-.14.04-.22.21-.24.01 0 .02 0 .03.02l.06.2c0 .03.02.04.04.04l.1-.03c.02 0 .03 0 .04.02.03.06.04.1.02.15 0 .02-.02.03-.04.03l-.12.01c-.03.01-.04.03-.03.05.03.12.05.26.06.41.01.08.05.13.13.14.07 0 .1.04.1.11-.01.09-.06.13-.16.14-.2 0-.3-.1-.33-.3l-.05-.45c0-.04-.03-.05-.06-.05l-.21.02c-.04 0-.05.02-.05.06l.08.72c0 .04-.02.06-.06.07l-.14.01c-.04 0-.06-.01-.07-.05l-.07-.69a.06.06 0 0 0-.05-.06c-.08-.02-.11-.08-.1-.16 0-.02 0-.04.03-.05l.06-.01c.02-.01.03-.03.03-.05Z" fill="#07479D"/><path fill-rule="evenodd" d="M30.45 40.75c-.05.01-.06.04-.05.08l.28 1.26c0 .04.03.06.08.05l.23-.05a.51.51 0 0 0 .33-.24c.08-.13.1-.27.07-.42l-.06-.3a.55.55 0 0 0-.65-.43l-.23.05Zm.25.15v.01l.21.98h.01c.08-.02.14-.07.18-.15a.45.45 0 0 0 .02-.29l-.05-.23a.45.45 0 0 0-.15-.25c-.07-.06-.14-.09-.22-.07Z" fill="#07479D"/><path d="M27.7 41.88a3.2 3.2 0 0 0-.07-.06c-.14-.11-.22-.2-.26-.26-.06-.1-.05-.22.01-.36.05-.1.14-.16.25-.2.1-.02.21-.01.33.02.04 0 .05.03.04.07l-.03.13c0 .03-.03.04-.06.03-.18-.05-.28-.02-.3.1-.01.07.04.14.16.23.1.08.17.14.2.2.07.1.09.2.05.33a.38.38 0 0 1-.27.28.63.63 0 0 1-.4-.01c-.04-.01-.05-.04-.04-.07l.03-.14c0-.03.02-.04.06-.03l.15.04c.1.01.17-.02.21-.09.04-.07.03-.14-.05-.2ZM26.5 41.3c.02 0 .03-.01.03-.03l.02-.11c0-.04.02-.06.06-.07l.17-.02c.04 0 .06.01.05.05l-.02.17c0 .03.01.04.03.05l.12.01c.04 0 .06.03.05.07v.07c-.01.05-.04.07-.07.06h-.1c-.03-.01-.05 0-.05.03l-.06.51c0 .03.01.04.04.05.12 0 .16.06.13.17-.02.04-.04.06-.09.06-.23 0-.35-.08-.34-.26 0-.17.02-.35.04-.52 0-.04-.01-.06-.04-.08-.06-.04-.09-.09-.07-.16.01-.02.03-.04.05-.04h.05ZM26.03 41.48c-.02.04-.01.09.04.13l.04.05c.13.1.19.21.18.3 0 .16-.08.26-.21.3a.49.49 0 0 1-.38-.05c-.03-.02-.04-.04-.03-.07l.05-.11c.02-.03.04-.04.06-.01.06.04.12.06.2.04.03 0 .05-.02.06-.06a.08.08 0 0 0-.02-.08l-.04-.04c-.1-.1-.17-.17-.18-.23-.04-.15-.01-.26.09-.33.1-.07.21-.08.36-.05.07.01.1.05.08.12v.02c-.02.06-.05.08-.11.06-.1-.04-.17-.03-.19.01Z" fill="#07479D"/><path fill-rule="evenodd" d="M25.15 41.8c-.03-.07-.01-.1.06-.08l.39.08c.02 0 .03 0 .04-.03a.72.72 0 0 0 .03-.37c-.03-.14-.1-.23-.22-.26-.17-.05-.31 0-.42.16a.86.86 0 0 0-.13.45c0 .16.05.28.18.35.1.06.23.08.4.07.02 0 .03 0 .03-.03v-.12c0-.03 0-.04-.03-.04h-.15a.17.17 0 0 1-.16-.11l-.02-.07Zm.05-.3c0 .02 0 .03.02.03l.2.04c.01 0 .02 0 .03-.02v-.02a.25.25 0 0 0 0-.14c-.02-.04-.05-.06-.08-.07-.04-.01-.07 0-.1.04a.26.26 0 0 0-.07.12v.02Z" fill="#07479D"/><path d="M28.27 42.27c.07.1.17.16.28.15.1 0 .2-.05.27-.16.07-.1.1-.23.1-.38a.63.63 0 0 0-.12-.38c-.08-.1-.17-.15-.28-.15-.1 0-.2.06-.27.16-.08.11-.11.24-.1.39 0 .14.04.27.12.37Zm.28-.05c-.07 0-.13-.15-.14-.33-.01-.18.04-.33.12-.33.07 0 .13.14.14.32 0 .18-.04.33-.12.34ZM32.16 22.88c.18-.12-.2-.94-.23-.96.08.03.26.15.4.37.13.22.4.52.52.64v.1c-.08 0-.24.04-.3.31-.05.27-.56.75-.81.95l.42-.95-1.19-.04v-.5c.34.07 1.05.17 1.2.08ZM33.24 21.45c-.18.02-.43-.06-.53-.1l-.08.42 1.05-.1-.3.63c.23-.2.69-.61.72-.79.03-.17-.47-.62-.72-.82l.35.5c-.09.08-.3.24-.49.26Z" fill="#07479D"/></svg>