<!-- by TradingView --><svg width="56" height="56" viewBox="0 0 56 56" xmlns="http://www.w3.org/2000/svg"><path fill="#F0F3FA" d="M0 0h56v56H0z"/><path d="M40.94 37.62A15.9 15.9 0 0 1 35 42.43a16.07 16.07 0 0 1-13.48.17 16.07 16.07 0 0 1-9.41-12.62 16.13 16.13 0 0 1 2.77-11.15 15.59 15.59 0 0 1 5.2-4.72 16.2 16.2 0 0 1 17.62 1.09 16.25 16.25 0 0 1 4.16 4.62 15.25 15.25 0 0 1 2.07 5.85c.05.4.07 1.2.05 2.42-.01 1.3-.03 2.07-.05 2.3-.07.78-.24 1.56-.5 2.35a16.87 16.87 0 0 1-2.5 4.88Z" fill="#367F3F"/><path d="M26.08 13.76c.1.04.17.11.18.23.06.63.12 1.13.17 1.5 0 .05-.01.07-.06.07h-.17c-.04 0-.06-.02-.07-.06l-.07-.61c-.02-.3-.05-.51-.07-.66v-.02c-.1-.61-.05-.94.18-.99.2-.05.23 0 .08.16l-.2.2a.1.1 0 0 0-.03.1c0 .04.02.06.06.08ZM27.31 13.63c.08 0 .16.07.23.21l.7 1.45c.05.09.02.13-.08.14h-.05a.21.21 0 0 1-.2-.13.76.76 0 0 0-.2-.28c-.05-.04-.16-.06-.32-.05-.15.01-.26.04-.31.09a.77.77 0 0 0-.16.3c-.03.1-.1.14-.19.15h-.04c-.1.02-.13-.02-.1-.11l.52-1.53c.05-.16.12-.24.2-.24ZM29.25 13.84c.02-.12.08-.17.2-.16l.35.05c.24.03.44.15.6.35.15.2.2.41.18.66v.04a.86.86 0 0 1-.36.6c-.2.14-.42.2-.67.17l-.34-.05c-.12-.02-.17-.08-.15-.2l.2-1.46ZM25.03 15.82c-.07.01-.12 0-.15-.05l-.61-.9c-.03-.04-.05-.04-.08 0-.03.02-.03.06-.02.1.06.3.14.58.23.85.03.1 0 .17-.1.2h-.04c-.08.02-.13 0-.15-.09l-.4-1.57c-.01-.07.01-.1.08-.13.1-.03.19-.04.25-.02s.12.08.19.17l.54.84c.03.05.07.07.12.06.05-.02.07-.05.08-.1l.06-1c0-.12.03-.2.08-.25.04-.05.12-.08.23-.1.07-.02.1 0 .13.07l.41 1.56c.03.08 0 .13-.08.15l-.04.02c-.1.02-.16-.02-.18-.12a8.58 8.58 0 0 0-.21-.85c-.02-.05-.04-.07-.07-.09-.05-.01-.07 0-.07.05l-.1 1.08c0 .06-.04.1-.1.12ZM31.18 15.45c.14.2.3.24.46.15.14-.09.24-.24.3-.45l.18-.7a.25.25 0 0 1 .16-.18c.12-.04.21-.11.28-.22a.14.14 0 0 1 .13-.06c.05 0 .1.02.12.07.06.1.05.19-.05.26l-.28.25a.9.9 0 0 0-.15.32l-.05.2c-.1.34-.18.56-.28.65-.3.3-.64.28-1-.04-.15-.12-.2-.33-.17-.63a5.17 5.17 0 0 1 .28-1c.03-.1.1-.14.19-.12l.03.01c.08.02.1.07.08.15-.17.58-.26.92-.28 1.03-.03.13-.01.24.05.31Z" fill="#F0F3FA"/><path d="M29.72 14.76c.06 0 .1-.03.1-.09.02-.05 0-.1-.04-.12l-.19-.11a.2.2 0 0 1-.1-.13.2.2 0 0 1 .03-.16c.07-.1.17-.14.3-.1.18.04.31.14.4.28.07.13.1.27.07.42a.57.57 0 0 1-.24.36.72.72 0 0 1-.52.11c-.06 0-.1-.04-.1-.1v-.26c0-.07.04-.1.1-.1h.19Z" fill="#367F3F"/><path d="M33.75 14.4c.1.14.23.23.27.2.04-.04-.01-.17-.12-.31-.11-.14-.23-.22-.27-.19-.04.03.01.17.12.3Z" fill="#F0F3FA"/><path d="M27.18 14.5c.01.12.1.2.2.19.1-.02.17-.12.15-.24-.01-.12-.1-.2-.2-.19-.1.02-.17.12-.15.24Z" fill="#367F3F"/><path d="M34.14 14.98v-.23c0-.06.02-.09.08-.09h.1c.09 0 .13.04.13.12 0 .18-.07.28-.24.3-.04 0-.06.02-.06.06l-.03.24c-.02.21-.05.36-.08.46-.06.16-.15.3-.28.43-.3.3-.63.34-.98.12a.78.78 0 0 1-.36-.54c-.04-.2 0-.42.09-.64.09-.21.22-.37.39-.48a.63.63 0 0 1 .57-.08c.08.03.22.1.4.24l.19.13h.05c.02 0 .03-.02.03-.04ZM22.51 16.08l.2.45c.02.06.01.1-.03.14l-.07.05c-.1 0-.17-.03-.2-.1l-.62-1.41c-.03-.05-.01-.1.03-.12.1-.06.23-.14.4-.22.29-.14.53-.08.71.19.15.2.17.38.06.55-.07.1-.22.23-.45.37-.04.02-.05.06-.03.1Z" fill="#F0F3FA"/><path d="M32.75 15.35c-.14.32-.01.68.27.8.3.12.63-.04.77-.37.13-.32 0-.68-.28-.8-.29-.12-.63.04-.76.37ZM22.23 15.26c-.07.15-.01.31.12.38.13.06.3-.01.36-.15.07-.15.01-.31-.12-.38-.14-.06-.3 0-.36.15Z" fill="#367F3F"/><path d="M34.95 16.46c-.05.43.04.46.28.08.1-.15.21-.36.34-.62.03-.06.08-.1.15-.1l.04.01c.05 0 .1.02.12.07.02.04.02.08 0 .13l-.8 1.37a.14.14 0 0 1-.1.08c-.05 0-.09 0-.12-.04a.37.37 0 0 1-.13-.27c-.03-.48 0-.9.06-1.23.01-.04 0-.06-.05-.04-.14.04-.31.28-.52.72l-.1.2c-.02.04-.08.07-.18.08h-.05c-.1-.05-.13-.12-.07-.22l.78-1.36a.15.15 0 0 1 .1-.08c.05 0 .1 0 .14.03.1.07.14.2.14.4 0 .39-.02.65-.03.79ZM20.62 16.79c.12.2.29.31.5.32.23.01.4-.08.54-.27l.21-.32a.1.1 0 0 1 .1-.05c.05 0 .09.03.1.09.02.05.03.08.02.1-.18.55-.53.8-1.05.75a.86.86 0 0 1-.7-.46.87.87 0 0 1-.04-.84c.22-.48.6-.66 1.16-.54.03 0 .06.03.1.07.03.04.04.09.01.13a.1.1 0 0 1-.09.06 12 12 0 0 0-.38.02.58.58 0 0 0-.5.33c-.1.2-.1.4.02.6ZM36.55 18.1a.1.1 0 0 0 .08-.08.09.09 0 0 0-.04-.1l-.4-.32c-.06-.05-.06-.1-.01-.17l.03-.04c.05-.06.1-.07.16-.02l.75.6a.1.1 0 0 1 .04.08.1.1 0 0 1-.04.1c-.5.4-.96.37-1.38-.1-.3-.33-.34-.69-.1-1.05.13-.22.3-.37.52-.45a.83.83 0 0 1 .57 0 .9.9 0 0 1 .47.35c.12.18.18.4.18.64 0 .04-.02.06-.07.06-.08 0-.14-.03-.17-.1-.1-.24-.18-.4-.26-.5a.6.6 0 0 0-.48-.18.56.56 0 0 0-.58.5c-.02.15 0 .28.07.41.07.14.18.24.33.31.12.06.23.08.33.05ZM29.62 25.4a4.16 4.16 0 0 1-3.57.03.1.1 0 0 1-.07-.07 4.71 4.71 0 0 0-2.52-3.37.11.11 0 0 1-.07-.1 4.6 4.6 0 0 1 1.89-4.45 4.47 4.47 0 0 1 5.73.51 4.54 4.54 0 0 1 1.36 3.5c0 .06-.03.1-.08.13a4.8 4.8 0 0 0-2.56 3.77c0 .03-.02.05-.05.05h-.02a.1.1 0 0 0-.04 0ZM19.72 18.7c-.08.07-.16.05-.24-.05a2.22 2.22 0 0 0-.29-.32c-.09-.07-.2-.14-.36-.2-.25-.1-.49-.21-.72-.32-.08-.04-.1-.1-.04-.2l.07-.04a.2.2 0 0 1 .2-.01l.56.28c.05.02.08.02.11 0 .03-.03.04-.07.03-.11l-.16-.61a.2.2 0 0 1 .05-.2.43.43 0 0 1 .06-.06c.1-.03.15 0 .18.08.06.25.12.51.16.78.04.16.08.29.13.39.04.09.13.2.25.35.09.1.09.18.01.25Z" fill="#F0F3FA"/><path d="m27.62 18.47-.18-.2a.12.12 0 0 1-.03-.12c.04-.18.14-.27.3-.28.15-.01.25.07.3.24.02.03.01.07 0 .1l-.04.08a.78.78 0 0 0-.1.37c.09 1.5.14 3.07.17 4.69v.18c.02.86 0 1.36-.09 1.5a.06.06 0 0 1-.06.03.06.06 0 0 1-.05-.04 2.1 2.1 0 0 1-.15-.6c-.1-.85-.14-1.81-.13-2.88.01-.73.05-1.7.12-2.91a.22.22 0 0 0-.06-.16Z" fill="#DD2171"/><path d="M18.8 19.62c-.06.07-.15.05-.28-.06l-.86-.78c-.06-.05-.12-.06-.18-.01a.53.53 0 0 1-.15.09c-.26.02-.3-.06-.13-.26a52.43 52.43 0 0 0 .46-.5c.17-.19.26-.15.26.11l-.08.16c-.04.06-.03.12.03.17l.85.8c.12.11.15.2.08.28ZM38.53 18.64c-.03-.1-.1-.14-.2-.11l-.1.02c-.1.03-.12.1-.08.2 0 .03.02.06.04.1.12.26.16.44.12.54a.69.69 0 0 1-.27.39.45.45 0 0 1-.36.05.56.56 0 0 1-.32-.22.76.76 0 0 1-.14-.44c0-.13.05-.21.15-.26.02 0 .06.01.1.07.03.02.06.1.09.23.02.1.04.18.06.21.05.12.16.14.31.08l.05-.06c.08-.1.09-.2.03-.3-.23-.46-.16-.77.21-.93.2-.09.38-.01.55.23.06.1.1.2.1.3.01.1-.02.18-.09.23a.15.15 0 0 1-.11.04.07.07 0 0 1-.07-.06l-.07-.3Z" fill="#F0F3FA"/><path d="M28.48 19.62a.3.3 0 0 0 .3-.3.3.3 0 0 0-.3-.3.3.3 0 0 0-.3.3c0 .16.14.3.3.3ZM27.1 19.66a.3.3 0 0 0 .29-.3.3.3 0 0 0-.3-.29.3.3 0 0 0-.29.3c0 .16.13.3.3.3Z" fill="#DD2171"/><path d="M39.9 20.13c.01.05.04.06.08.03l.2-.16c.04-.03.1-.04.14-.02.06.03.09.07.1.12 0 .11-.05.19-.16.22l-.3.08a.14.14 0 0 0-.1.05c-.14.2-.25.32-.31.38-.26.22-.52.31-.78.27a.74.74 0 0 1-.54-.37.82.82 0 0 1-.1-.67c.08-.27.26-.48.56-.63.28-.15.55-.16.79 0 .23.13.38.37.42.7Z" fill="#F0F3FA"/><path d="M39.38 20.61c.25-.23.28-.6.07-.83-.22-.22-.59-.2-.84.03-.24.24-.27.62-.06.84.22.22.59.2.83-.04Z" fill="#367F3F"/><path d="M17.4 20.51a.1.1 0 0 0-.07-.07.1.1 0 0 0-.1.04l-.3.43c-.04.07-.1.08-.16.03l-.05-.03c-.06-.04-.07-.1-.03-.16l.55-.8a.11.11 0 0 1 .09-.05c.03 0 .06 0 .09.04.44.48.45.95 0 1.4-.31.33-.67.4-1.05.18-.23-.12-.4-.29-.49-.5a.86.86 0 0 1-.05-.58c.06-.2.17-.37.33-.5.18-.14.39-.22.63-.23.05 0 .07.02.07.06 0 .09-.02.15-.1.18-.23.12-.39.22-.47.3a.62.62 0 0 0-.16.5.58.58 0 0 0 .56.56c.14 0 .27-.02.4-.1s.23-.2.29-.35a.54.54 0 0 0 .03-.35Z" fill="#F0F3FA"/><path d="M28.93 21a.3.3 0 0 0 .3-.3.3.3 0 0 0-.3-.3.3.3 0 0 0-.3.3c0 .17.14.3.3.3ZM26.63 21.04a.3.3 0 0 0 .3-.3.3.3 0 0 0-.3-.3.3.3 0 0 0-.3.3c0 .17.13.3.3.3Z" fill="#DD2171"/><path d="m39.85 21.69.22-.33c.02-.04.01-.07-.04-.07-.04 0-.09 0-.13.02l-.8.45c-.1.05-.17.03-.23-.07-.01-.02-.02-.04-.01-.07 0-.04.02-.07.06-.1l1.36-.78c.08-.05.14-.04.2.04.06.1.05.25-.03.44-.06.11-.16.28-.32.5l-.08.12c-.12.17-.2.28-.21.32-.03.04-.02.07.03.08.04 0 .09 0 .13-.03l.81-.45c.09-.05.16-.02.23.07v.07c0 .04-.02.08-.06.1l-1.35.79c-.08.04-.15.03-.2-.05-.07-.1-.06-.25.03-.44a3.7 3.7 0 0 1 .39-.61ZM35.46 30.2c-.03.02-.03.04-.01.07a4.46 4.46 0 0 1 1.03 4.32 4.36 4.36 0 0 1-1.75 2.53 4.63 4.63 0 0 1-3.45.76 4.48 4.48 0 0 1-2.95-1.93.11.11 0 0 0-.1-.06.11.11 0 0 0-.1.06c-.46.8-1.1 1.4-1.93 1.83-.85.44-1.7.58-2.58.43a4.73 4.73 0 0 1-2.25-1.01 4.52 4.52 0 0 1-1.59-4.1 4.9 4.9 0 0 1 .94-2.3.1.1 0 0 1 .1-.03c1.23.17 2.33-.1 3.32-.81.2-.14.45-.35.75-.62a.12.12 0 0 0 .04-.12.12.12 0 0 0-.08-.1c-.14-.04-.3-.06-.49-.06a4.71 4.71 0 0 0-3.58 1.6.11.11 0 0 1-.1.04c-.08 0-.18-.03-.3-.06a4.8 4.8 0 0 1-2.13-1.25c-.6-.6-.98-1.32-1.17-2.14a4.58 4.58 0 0 1 .89-3.9 4.44 4.44 0 0 1 2.42-1.57 4.84 4.84 0 0 1 2.91.19.1.1 0 0 1 .07.07 4.75 4.75 0 0 0 2.54 3.38.1.1 0 0 1 .06.09c.08.61.05 1.22-.1 1.82-.15.65-.41 1.2-.8 1.64a.13.13 0 0 0-.02.13c.02.05.05.08.1.1 1.19.25 2.12.88 2.82 1.9a.1.1 0 0 0 .1.05.1.1 0 0 0 .09-.06 4.5 4.5 0 0 1 2.73-2.13.11.11 0 0 0 .08-.09.11.11 0 0 0-.03-.1 4.4 4.4 0 0 1-1.15-3.26c0-.08.04-.13.1-.16a4.8 4.8 0 0 0 2.52-3.71.1.1 0 0 1 .06-.09 4.61 4.61 0 0 1 3.37-.14 4.5 4.5 0 0 1 2.97 4.14c.02.95-.21 1.82-.7 2.62a4.16 4.16 0 0 1-2 1.76c-.35.14-.56.23-.65.28ZM15.8 22.24c.21 0 .34-.01.39-.02.05 0 .06-.03.04-.07a.2.2 0 0 0-.1-.1l-.84-.4c-.09-.03-.11-.11-.07-.22 0-.02.02-.03.04-.05a.12.12 0 0 1 .12 0l1.44.65c.08.03.1.1.07.18-.04.12-.16.2-.36.24a3.68 3.68 0 0 1-.73.04l-.4.01c-.04 0-.06.03-.03.08.02.03.05.06.1.09l.83.4c.1.04.12.11.08.22 0 .02-.02.03-.05.05a.12.12 0 0 1-.12 0l-1.43-.64c-.09-.04-.11-.1-.08-.19.04-.12.17-.2.37-.23a3.66 3.66 0 0 1 .73-.04ZM40.23 23.9c.02.24.1.4.25.5.07.05.23.09.47.12.26.02.58.08.97.15.06.01.1.05.1.11.02.06 0 .11-.04.15l-1.39 1.08c-.08.06-.14.04-.19-.05a.12.12 0 0 1-.01-.05c0-.08.02-.15.06-.2l.33-.3a.09.09 0 0 0 .03-.09l-.16-.46a.11.11 0 0 0-.1-.08l-.31-.07a.12.12 0 0 1-.1-.08l-.31-.94c-.03-.08 0-.13.07-.15l1.5-.52c.08-.03.13 0 .15.08a.9.9 0 0 1 0 .05c.01.1-.03.16-.12.19l-1.08.38c-.09.03-.13.09-.12.18ZM16.04 24.32a.78.78 0 0 1-.44.49.95.95 0 0 1-.7.04.95.95 0 0 1-.56-.43.78.78 0 0 1-.1-.66.78.78 0 0 1 .44-.49c.23-.1.46-.12.7-.04.26.08.44.22.57.43.13.21.16.43.09.66ZM13.93 23.89h-.03a.21.21 0 0 1-.12-.15.34.34 0 0 1 .02-.23l.02-.03a.33.33 0 0 1 .15-.16.21.21 0 0 1 .2-.01l.01.02-.25.56Z" fill="#F0F3FA"/><path d="M14.98 24.57c.33.1.67-.06.76-.36.1-.3-.1-.62-.44-.72-.33-.1-.68.06-.76.36-.1.3.1.62.44.72Z" fill="#367F3F"/><path d="M34.51 24.74a.3.3 0 0 0 .31-.3.3.3 0 0 0-.3-.32.3.3 0 0 0-.32.31c0 .17.14.31.31.31ZM35.96 24.73a.3.3 0 0 0 .3-.3.3.3 0 0 0-.3-.29.3.3 0 0 0-.29.3c0 .16.13.3.3.3ZM36.95 24.67l.14-.24a.12.12 0 0 1 .1-.07c.18-.01.3.06.36.2.05.15.01.27-.13.37a.14.14 0 0 1-.1.03l-.09-.02a.77.77 0 0 0-.38.02c-1.4.57-2.86 1.13-4.38 1.67l-.17.07c-.82.3-1.3.42-1.45.38a.06.06 0 0 1-.05-.04c0-.03 0-.05.02-.07.15-.13.32-.24.52-.33.77-.37 1.67-.71 2.69-1.05.68-.22 1.61-.5 2.78-.82.06-.01.1-.05.14-.1ZM21.3 25.41a.3.3 0 0 0 .3-.3.3.3 0 0 0-.3-.3.3.3 0 0 0-.3.3c0 .16.14.3.3.3Z" fill="#DD2171"/><path d="M40.97 24.96c-.01-.03 0-.06.03-.07l.02-.02a.6.6 0 0 1 .25-.06c.08 0 .12.02.14.06l.01.02c.02.04 0 .09-.04.15a.6.6 0 0 1-.21.15h-.03c-.03.02-.05.01-.07-.02l-.1-.21Z" fill="#367F3F"/><path d="M19.85 25.46a.3.3 0 0 0 .3-.3.3.3 0 0 0-.3-.3.3.3 0 0 0-.3.3c0 .17.14.3.3.3Z" fill="#DD2171"/><path d="M14.52 26.7a.85.85 0 0 1-.64-.53c-.2-.49-.07-.9.4-1.23l.1-.02c.06 0 .1.03.12.08a.1.1 0 0 1-.02.1l-.25.3a.59.59 0 0 0-.1.6.6.6 0 0 0 .46.4c.23.04.43 0 .58-.17a.59.59 0 0 0 .16-.57 9.9 9.9 0 0 0-.09-.38.1.1 0 0 1 .03-.1c.04-.04.08-.05.14-.02.05.02.08.04.09.06.28.5.22.92-.17 1.28-.22.2-.5.27-.8.2Z" fill="#F0F3FA"/><path d="m18.78 25.75-.25.11a.12.12 0 0 1-.11 0c-.16-.1-.22-.22-.19-.37.04-.15.14-.23.32-.23.04 0 .07.02.1.04l.06.06c.12.11.22.18.32.2a109.38 109.38 0 0 1 4.67 1.2c.83.24 1.3.41 1.4.53.02.02.02.04.01.06 0 .03-.03.04-.05.04-.2.03-.4.02-.62-.02a23.6 23.6 0 0 1-2.77-.7c-.68-.21-1.59-.52-2.72-.93a.2.2 0 0 0-.17 0ZM36.43 26.06a.3.3 0 0 0 .3-.3.3.3 0 0 0-.3-.3.3.3 0 0 0-.3.3c0 .16.14.3.3.3ZM19.5 26.83a.3.3 0 0 0 .31-.3.3.3 0 0 0-.3-.31.3.3 0 0 0-.3.3c0 .17.13.3.3.3ZM35.27 26.94a.3.3 0 0 0 .3-.3.3.3 0 0 0-.3-.31.3.3 0 0 0-.3.3c0 .17.14.31.3.31Z" fill="#DD2171"/><path d="M28.03 29.7c.9 0 1.62-.73 1.62-1.64 0-.9-.73-1.63-1.62-1.63-.9 0-1.62.73-1.62 1.63 0 .9.72 1.64 1.62 1.64Z" fill="#F0F3FA"/><path d="M20.67 27.66a.3.3 0 0 0 .3-.3.3.3 0 0 0-.3-.3.3.3 0 0 0-.3.3c0 .16.14.3.3.3Z" fill="#DD2171"/><path d="M33.38 28.95c.7.2 1.34.56 1.9 1.1.04.03.06.07.05.11-.01.04-.05.07-.1.08a4.62 4.62 0 0 1-4.1-1.18c-.04-.04-.05-.08-.04-.12 0-.04.04-.07.1-.08a4.6 4.6 0 0 1 2.19.09Z" fill="#367F3F"/><path d="M38.32 34.73c-1.05 1.65-2.45 3-4.18 4.03a.75.75 0 0 1-.24.1c-.09.01-.14-.05-.15-.18-.01-.07.01-.12.07-.16a12.06 12.06 0 0 0 4.2-3.98 12.17 12.17 0 0 0 1.83-5.5c.01-.07.05-.12.11-.14.13-.04.2-.02.23.06.02.08.02.17.01.27-.2 2.02-.83 3.85-1.88 5.5Z" fill="#F0F3FA"/><path d="M39.2 35.25a13.3 13.3 0 0 1-4.59 4.43.16.16 0 0 1-.13.02.14.14 0 0 1-.1-.1c-.05-.09-.03-.17.08-.23a13 13 0 0 0 6.43-10.2c.01-.11.07-.17.18-.16h.02c.04 0 .08.02.1.05.04.04.05.08.05.13-.2 2.2-.88 4.23-2.04 6.06Z" fill="#F0F3FA"/><path d="M40.09 35.83a14.22 14.22 0 0 1-4.91 4.73.17.17 0 0 1-.14.02.15.15 0 0 1-.1-.1c-.07-.1-.04-.2.07-.26a13.9 13.9 0 0 0 6.89-10.88c0-.12.07-.18.2-.17.05 0 .1.01.12.05.04.04.05.08.05.13a14.33 14.33 0 0 1-2.18 6.48Z" fill="#F0F3FA"/><path d="M41.1 36.34a16.12 16.12 0 0 1-5.25 5.15c-.11.06-.19.04-.23-.05v-.02c-.08-.1-.06-.18.06-.25a15.34 15.34 0 0 0 7.43-11.84c0-.13.07-.18.2-.16.11 0 .16.06.15.18a16.22 16.22 0 0 1-2.36 6.99ZM18.34 35.58a12.7 12.7 0 0 1-2.43-5.41.78.78 0 0 1-.01-.27c.01-.08.08-.11.22-.08.07.01.11.05.12.12a12.4 12.4 0 0 0 2.38 5.41A12.29 12.29 0 0 0 23.26 39c.06.03.1.08.1.15-.01.14-.06.2-.14.2a.78.78 0 0 1-.26-.07 12.58 12.58 0 0 1-4.62-3.7Z" fill="#F0F3FA"/><path d="M17.77 35.96a13.13 13.13 0 0 0 4.95 3.9c.07.03.1.09.1.16 0 .15-.06.22-.15.21a.8.8 0 0 1-.27-.08 13.44 13.44 0 0 1-7.52-9.74.83.83 0 0 1-.01-.29c.01-.09.1-.12.24-.09.07.02.12.06.13.14.4 2.2 1.25 4.13 2.53 5.79Z" fill="#F0F3FA"/><path d="M16.63 36.8a14.52 14.52 0 0 1-2.8-6.34c0-.05 0-.1.03-.14a.15.15 0 0 1 .12-.07h.01c.12-.01.2.04.22.17a14.2 14.2 0 0 0 7.94 10.35c.12.05.16.14.1.25v.01a.15.15 0 0 1-.1.1.18.18 0 0 1-.13 0 14.4 14.4 0 0 1-5.4-4.33Z" fill="#F0F3FA"/><path d="M15.94 37.2a15.18 15.18 0 0 0 5.6 4.56c.13.06.17.15.12.27l-.01.02a.16.16 0 0 1-.1.1.18.18 0 0 1-.15 0 15.64 15.64 0 0 1-8.74-11.54c-.01-.07 0-.12.03-.16a.16.16 0 0 1 .13-.07h.01c.13-.02.2.04.23.17.45 2.5 1.4 4.72 2.88 6.66Z" fill="#F0F3FA"/><path d="m34.05 35.56.27.06c.05 0 .08.03.1.08.06.17.04.3-.08.4-.12.1-.25.1-.39 0a.14.14 0 0 1-.06-.1l-.01-.08a.79.79 0 0 0-.14-.36 113.1 113.1 0 0 1-3.07-3.82 4.5 4.5 0 0 1-.83-1.27l.03-.06a.06.06 0 0 1 .07 0c.17.1.33.23.48.4.59.62 1.2 1.37 1.84 2.24.42.6.98 1.4 1.65 2.42.03.05.08.08.14.1ZM22.94 36.23l.03.28c0 .04 0 .08-.04.1-.14.13-.27.15-.4.07-.14-.08-.18-.2-.12-.37a.14.14 0 0 1 .06-.09l.08-.04a.77.77 0 0 0 .28-.24 113.21 113.21 0 0 1 2.58-4.12c.47-.73.78-1.13.92-1.19l.06.01.03.06c-.04.2-.11.4-.22.59a24 24 0 0 1-1.5 2.44c-.41.6-.99 1.37-1.72 2.34a.21.21 0 0 0-.04.16Z" fill="#DD2171"/><path d="M28.23 35.75c-.04 0-.07-.02-.1-.07a4.72 4.72 0 0 1-.15-4.3c.02-.05.05-.08.1-.08.04 0 .07.02.1.07a4.73 4.73 0 0 1 .15 4.3c-.02.05-.06.08-.1.08Z" fill="#367F3F"/><path d="M33.5 33.46a.3.3 0 0 0 .3-.31.3.3 0 0 0-.3-.3.3.3 0 0 0-.3.3c0 .17.14.3.3.3ZM23.08 33.93c.18.02.33-.1.34-.26.02-.16-.1-.3-.28-.32-.17-.02-.32.1-.34.26-.02.16.11.3.28.32ZM33.72 34.71c.1.14.3.17.42.07s.13-.3.02-.43c-.11-.14-.3-.17-.42-.07-.13.1-.13.3-.02.43ZM31.66 34.88a.3.3 0 0 0 .3-.3.3.3 0 0 0-.3-.31.3.3 0 0 0-.3.3c0 .17.13.3.3.3ZM25 35.24a.3.3 0 0 0 .3-.3.3.3 0 0 0-.3-.3.3.3 0 0 0-.3.3c0 .16.13.3.3.3ZM22.7 35.33c.17 0 .3-.13.3-.3a.29.29 0 0 0-.3-.28.29.29 0 0 0-.28.29c0 .16.13.29.29.29ZM32.86 35.7a.3.3 0 0 0 .3-.3.3.3 0 0 0-.3-.3.3.3 0 0 0-.3.3c0 .16.14.3.3.3ZM23.86 36.1a.3.3 0 0 0 .3-.3.3.3 0 0 0-.3-.3.3.3 0 0 0-.3.3c0 .17.14.3.3.3Z" fill="#DD2171"/><path d="M30.98 41.38c.01.07.05.1.12.08a14 14 0 0 1 1.05-.16c.3-.03.43.07.42.3a4.47 4.47 0 0 1-.1.7c-.07.22-.2.35-.4.38l-2 .36c-.06.01-.1-.01-.1-.07l-.08-.47c-.01-.06.02-.1.09-.1.51 0 1.05-.1 1.62-.29.08-.02.11-.08.1-.16v-.04c-.01-.06-.04-.08-.1-.07l-1.42.23a.2.2 0 0 1-.16-.04.2.2 0 0 1-.08-.14c-.02-.15-.02-.35.02-.58.03-.2.06-.36.1-.46.04-.11.14-.19.31-.24.26-.09.9-.19 1.91-.32.07 0 .14.01.2.06.05.04.08.1.1.17l.05.33c.02.13-.03.2-.15.22l-.59.1a.14.14 0 0 1-.15-.08l-.1-.2a.11.11 0 0 0-.11-.06.98.98 0 0 0-.47.11.13.13 0 0 0-.07.09.84.84 0 0 0 0 .35ZM26.09 42.16l-.02-.05a.16.16 0 0 0-.12-.1l-1.27-.27c-.16-.03-.22-.13-.16-.28.1-.3.23-.56.38-.82.1-.16.29-.23.55-.2.51.08 1.09.18 1.73.32.07.01.13.06.17.12.05.07.06.14.04.22l-.06.3c-.02.12-.1.17-.2.15l-.57-.06c-.1-.02-.14-.07-.14-.16.01-.25-.15-.37-.5-.35-.13.01-.21.08-.24.21l-.02.1c-.03.13.03.2.16.22a7.5 7.5 0 0 1 1.03.21c.18.04.24.16.18.36-.1.3-.23.56-.4.79-.05.09-.16.12-.32.11-.22-.01-.92-.14-2.1-.36-.03 0-.05-.03-.04-.06l.11-.55c.01-.04.04-.05.08-.04.53.19 1.08.3 1.64.32.1 0 .13-.04.09-.13ZM28.54 42.64c.1.1.23.14.43.13.17 0 .32-.03.47-.1.1-.04.15 0 .14.1v.2c-.01.1-.07.16-.19.16h-1.82a.18.18 0 0 1-.15-.07.19.19 0 0 1-.04-.16l.44-2.1c0-.03.02-.04.04-.04h1.03c.02 0 .02 0 .02.02l-.33 1.14c-.05.2-.08.4-.08.62 0 .04.02.07.04.1Z" fill="#F0F3FA"/></svg>