<!-- by TradingView --><svg width="56" height="56" viewBox="0 0 56 56" xmlns="http://www.w3.org/2000/svg"><path fill="#F0F3FA" d="M0 0h56v56H0z"/><path d="m11 24.55 4 3.37v-.03l8 6.32v5.8A13.05 13.05 0 0 1 16.46 34h-4.71A17.31 17.31 0 0 0 27 45V34l-11.58-9.3A13.03 13.03 0 0 1 23 16v6h4V11a17.25 17.25 0 0 0-16 13.55ZM30 32v13a17.26 17.26 0 0 0 15-14h-9v4h2.96A13.06 13.06 0 0 1 34 39.54V32h-4ZM34 16.46A13.02 13.02 0 0 1 40.65 25H45a17.26 17.26 0 0 0-15-14v14h4v-8.54Z"/><path d="M14.2 34H12l5.36-11 1.61 2.58L20.12 23 26 34h-2.66l-2.48-4.8-1.89 3.97-2.44-3.97L14.2 34ZM25 26h20v5H25z" fill="#FF7268"/></svg>