<!-- by TradingView --><svg width="56" height="56" viewBox="0 0 56 56" xmlns="http://www.w3.org/2000/svg"><path fill="#F0F3FA" d="M0 0h56v56H0z"/><path d="M25.43 21.4c.6.22.91.62.91 1.18 0 .54-.27.93-.8 1.16-.39.18-.9.26-1.51.25l-2.25.01c-.06 0-.07-.02-.04-.07.16-.26.26-.43.26-.5V19.75c.01-.27-.05-.46-.21-.59-.12-.08-.1-.13.04-.13 1.38-.04 2.4-.04 3.05.02.3.02.59.12.83.3.24.15.4.35.5.58.08.24.07.48-.04.7-.13.24-.38.44-.74.6-.14.06-.14.12 0 .17Zm-2.24-1.7.01 1.27c0 .05.02.07.06.07l.82-.01c.26 0 .49-.07.67-.2.2-.12.28-.28.28-.45v-.12c0-.18-.1-.33-.28-.45a1.2 1.2 0 0 0-.69-.18h-.81c-.04 0-.06.02-.06.06Zm0 2.05.02 1.52c0 .05.02.08.07.07l.87-.01c.28 0 .52-.09.71-.25a.7.7 0 0 0 .29-.57v-.06c0-.22-.11-.41-.31-.57a1.1 1.1 0 0 0-.72-.22l-.87.02c-.05 0-.07.02-.07.07ZM28.4 19l.77.01c.05.01.06.04.04.09-.13.2-.22.33-.22.41v.74l.01 1.25v1.31c-.01.32-.02.55-.01.67 0 .08.09.21.2.4l.02.02c.03.04.02.07-.03.08-.05.01-.3.02-.78.02-.47 0-.73 0-.77-.02-.05 0-.06-.04-.04-.08.13-.2.2-.34.2-.42a76.16 76.16 0 0 0 0-3.96c-.01-.09-.08-.23-.2-.42-.03-.05-.02-.07.03-.08.05-.01.3-.02.78-.02Zm2.82.19.03.04a.1.1 0 0 1 .02.1c-.33.96-.8 2.27-1.4 3.9-.09.2-.25.43-.5.7-.05.05-.03.07.04.07h1c.06 0 .08-.02.06-.07l-.08-.22a.24.24 0 0 1 0-.16l.32-.9c.02-.07.06-.1.13-.1h1.5c.05 0 .1.03.12.09l.33.88v.12l-.1.3c-.02.04 0 .06.03.06h1.68c.04 0 .05-.02.02-.05a4.76 4.76 0 0 1-.72-1.4l-1.23-3.44c-.03-.07-.1-.1-.2-.1L31.3 19c-.14 0-.17.07-.08.19Zm-.16 2.72c-.05 0-.07-.03-.05-.08l.53-1.5c0-.02.03-.03.05-.03.03 0 .05.01.05.04l.51 1.5c.02.05 0 .07-.05.07h-1.04ZM8 33.66a.56.56 0 0 0-.58.2c-.08.09-.13.07-.14-.05L7 31.5c0-.07.02-.08.07-.04.23.18.46.37.67.57.58.52 1.2.8 1.87.84.31.02.59-.08.83-.32.24-.23.35-.52.34-.86-.02-.38-.21-.66-.58-.86a36.14 36.14 0 0 1-2.27-1.3c-.34-.25-.6-.6-.77-1.06a2.3 2.3 0 0 1-.1-1.36 2.68 2.68 0 0 1 2.52-2.1 5.7 5.7 0 0 1 3.1.63c.13.06.17.16.14.3-.15.76-.6 1.3-1.32 1.63a.07.07 0 0 1-.08-.01.08.08 0 0 1-.03-.07c.05-.38-.02-.7-.2-.95-.18-.23-.41-.38-.71-.44s-.56-.02-.81.12c-.27.14-.45.38-.53.7-.12.47.01.84.41 1.11.42.28 1.04.64 1.89 1.06.25.13.5.3.73.5.26.24.45.48.56.72.22.48.3.96.26 1.43-.05.44-.21.84-.49 1.2-.27.34-.62.6-1.04.8-.44.19-.9.28-1.4.26-.44-.02-1.13-.13-2.06-.34ZM15.19 31h2.51c.06 0 .1.04.12.1.4 1.05.62 2.02.64 2.22.02.2-.07.38-.26.55-.1.09-.08.13.04.13h2.95c.05 0 .05-.02.02-.06a4.76 4.76 0 0 1-.91-1.52l-2.45-7.28c-.03-.1-.09-.14-.18-.14h-1.92c-.02 0-.03.01-.04.03v.05c.18.24.22.5.13.76-.96 2.82-1.67 4.95-2.14 6.4a3.99 3.99 0 0 1-1.04 1.67c-.05.06-.04.09.03.09h1.88c.13 0 .14-.05.05-.15-.18-.18-.24-.38-.18-.6l.1-.46c.13-.55.28-1.2.45-1.63.04-.1.1-.16.2-.16Zm.3-1c-.06 0-.07-.03-.05-.08l.95-2.59c0-.02.02-.03.04-.03.03 0 .04 0 .05.03l.93 2.6c.02.05 0 .07-.04.07h-1.89Zm7.46-5h1.39c.14 0 .15.04.04.13-.32.26-.38.61-.38 1.06v.05a1364.36 1364.36 0 0 0 0 6.57c0 .45.06.8.38 1.06.11.09.1.13-.04.13a132.89 132.89 0 0 0-2.76 0c-.14 0-.15-.04-.04-.13.32-.26.47-.61.47-1.06a415.41 415.41 0 0 1-.01-6.57v-.05c0-.45-.15-.8-.47-1.06-.1-.09-.1-.13.04-.13h1.38Zm7.07 7.82c0 .02.01.04-.03.04-1.65.03-2.62-.82-2.91-2.57a4.6 4.6 0 0 1 .62-3.22c.2-.32.43-.56.7-.72.42-.25.83-.31 1.22-.2.44.15.65.5.61 1.06 0 .04.02.08.05.1a.1.1 0 0 0 .1.03c.68-.24 1.15-.7 1.41-1.37.05-.12.02-.2-.08-.27a4.34 4.34 0 0 0-6.07 1.4 4.7 4.7 0 0 0-.57 3.26 4.07 4.07 0 0 0 1.86 3.04 4.8 4.8 0 0 0 3.42.5c.4-.08 1.08-.18 2.02-.32.05 0 .06-.03.03-.07a1.38 1.38 0 0 1-.36-.96V29.1c0-.07-.04-.11-.1-.11h-2.77c-.08 0-.17.06-.17.15v1.13c0 .06.07.08.12.05.24-.14.51-.23.81-.26.08 0 .08.02.07.09v2.59c0 .03 0 .05.02.07Zm11-2.82c0 1.1-.36 2.05-1.05 2.83A3.28 3.28 0 0 1 37.43 34h-.7c-.98 0-1.83-.39-2.53-1.17A4.09 4.09 0 0 1 33.15 30v-1c0-1.1.35-2.05 1.05-2.83A3.28 3.28 0 0 1 36.73 25h.7c1 0 1.84.39 2.54 1.17.7.78 1.04 1.72 1.04 2.83v1ZM35 29.5c0 .93.24 1.71.53 2.33.35.74.86 1.17 1.54 1.17s1.2-.42 1.54-1.17c.3-.61.39-1.4.39-2.33 0-.94-.1-1.72-.38-2.33-.35-.75-.87-1.12-1.54-1.12-.68 0-1.2.37-1.54 1.11-.3.62-.54 1.4-.54 2.33Zm8 2.91a509.51 509.51 0 0 1 .02-4.43A1174.09 1174.09 0 0 0 47 33.77c.26.23.58.29.97.16.03 0 .03-.03.03-.07v-7.59a1.49 1.49 0 0 1 .27-.9c.03-.05.05-.09.1-.14.05-.04.07-.07.09-.1l.02-.04a.07.07 0 0 0 .02-.04c0-.04-.02-.05-.07-.05h-1.72c-.18 0-.2.05-.04.16.28.3.33.79.33 1.34V30.27c0 .11-.04.06-.1-.02 0-.02 0-.03-.02-.04l-3.44-5.11a.2.2 0 0 0-.17-.1h-1.75c-.14 0-.15.05-.03.13.2.14.32.3.4.5.06.16.1.39.11.68v6.35c0 .33-.05.57-.12.72-.05.13-.17.29-.36.48-.07.07-.06.14.03.14h1.75c.15 0 .16-.08.04-.18a1 1 0 0 1-.34-.57 1.53 1.53 0 0 1 0-.38V32.4Z" fill="#ED1C24"/></svg>