<!-- by TradingView --><svg width="56" height="56" viewBox="0 0 56 56" xmlns="http://www.w3.org/2000/svg"><path fill="#F0F3FA" d="M0 0h56v56H0z"/><path d="M16.67 26.72a4.73 4.73 0 0 0-1.81 1.88 3.9 3.9 0 0 0-.37 2.56c.16.9.53 1.68 1.1 2.35.62.73 1.44.99 2.44.78.64-.13 1.47-.5 2.48-1.11a35258.1 35258.1 0 0 1 16.25-9.72 6 6 0 0 1 .97-.5c.37-.13.73-.16 1.08-.08.36.07.68.3.99.66.27.33.46.68.56 1.06.3 1.1.13 2.05-.5 2.83a5.2 5.2 0 0 1-1.31 1l-16.24 9.81c-.95.57-1.64.95-2.07 1.13-1.6.66-3.05.8-4.34.42a6.23 6.23 0 0 1-1.79-.93 9.5 9.5 0 0 1-4.1-7.63 10.9 10.9 0 0 1 .73-4.56 9.81 9.81 0 0 1 2.58-3.82c.4-.36 1.14-.86 2.2-1.5 3.14-1.9 6.09-3.67 8.85-5.31.04-.03.1-.04.15-.04h9.8c.1 0 .1.03.02.08-10.83 6.5-16.72 10.05-17.67 10.64Z" fill="#005DA3"/><path d="m21.94 40-.03-.1a29 29 0 0 0 .9-.5L39.5 29.35a4.81 4.81 0 0 0 1.67-1.62c.64-1.05.78-2.2.43-3.44a5.04 5.04 0 0 0-1.11-2.02 2.45 2.45 0 0 0-2.52-.63 7 7 0 0 0-1.87.76l-16.44 9.84c-.5.3-.97.54-1.43.74-.65.27-1.25.1-1.78-.52-.22-.26-.4-.56-.54-.91a3.3 3.3 0 0 1-.24-.96c-.02-.24 0-.51.09-.81.22-.82.72-1.46 1.5-1.93 4.25-2.58 10.02-6.06 17.31-10.45.87-.53 1.71-.9 2.53-1.12.48-.13 1.07-.2 1.79-.2.59 0 1.13.1 1.63.3a9.45 9.45 0 0 1 5.47 7.66c.03.83.03 1.62 0 2.38 0 .15-.03.3-.08.46a2.1 2.1 0 0 0-.05.34l-.04.28a11 11 0 0 1-1.52 3.72 8.85 8.85 0 0 1-2.84 2.78c-3.6 2.18-6.81 4.11-9.63 5.79-.1.05-.2.2-.31.2h-9.26c-.06 0-.17-.04-.3 0Z" fill="#949BA3"/></svg>