<!-- by TradingView --><svg width="56" height="56" viewBox="0 0 56 56" xmlns="http://www.w3.org/2000/svg"><path fill="#F0F3FA" d="M0 0h56v56H0z"/><circle cx="28" cy="28" r="17" fill="#00F"/><path d="M15.32 22.05 16.55 27H25v12h-.56c-2.33 0-4.94.6-5.68.83l-.56.17-1.8-7.72 1.1-.28 1.5 6.6c.96-.23 3.21-.55 5-.6V28h-8.33L14 21.51l.43-.19a19.27 19.27 0 0 1 7-1.32c2.88 0 5.07.71 6.07 1.2 1.02-.49 3.2-1.2 6.02-1.2 2.55 0 5.13.5 7.48 1.49l-.58 3.73a5.19 5.19 0 0 1-2.17 2.6c.79.48 1.4 1.4.97 2.34L36.84 40c-.89-.75-1.61-.89-2.8-1-1.01-.1-2.03-.06-3.04 0V24h1v3h4.5c1.38 0 2.34-.9 2.84-2.12l.41-2.69c-1.2-.43-3.63-1.19-6.23-1.19-2.6 0-4.64.65-5.52 1.05V39h-1V22.05c-.85-.4-2.91-1.05-5.57-1.05-2.62 0-4.95.63-6.1 1.05ZM32 28v10c.65-.02 1.37-.07 2.15 0 .66.06 1.35.16 1.98.4l2.02-8.63c.22-.84-1.08-1.77-1.71-1.77H32Z" fill="#FF3"/></svg>