<!-- by TradingView --><svg width="56" height="56" viewBox="0 0 56 56" xmlns="http://www.w3.org/2000/svg"><path fill="#F0F3FA" d="M0 0h56v56H0z"/><path d="M22.5 14.07v.06c-.3.39-.78.96-1.48 1.72l-.51.55c-2.73 3.11-5.3 6.07-7.72 8.88-.47.55-.72 1.01-.75 1.4-.05.75-.05 1.5 0 2.29 0 .04.03.08.07.1a.1.1 0 0 0 .12-.02c4.03-3.49 7.8-6.78 11.33-9.87a43.16 43.16 0 0 0 3.42-3.25c1.06-1.17 2.1-2.35 3.13-3.55a.17.17 0 0 0 .03-.19.17.17 0 0 0-.15-.1c-3.72-.35-7.06.35-10.02 2.08a16.14 16.14 0 0 0-6.7 7.66c-.06.15-.02.18.12.1.16-.09.34-.23.53-.42l.5-.5 7.2-6.26c.26-.22.49-.47.7-.75.04-.05.08-.05.12 0l.05.07Zm-8.96 19.94L28.97 20.5c.37-.32.72-.67 1.04-1.04l4.86-5.56c.13-.15.1-.28-.07-.37-.76-.4-1.64-.73-2.61-.98-.56-.14-.99-.08-1.29.18a931.7 931.7 0 0 0-3.33 2.9 35.3 35.3 0 0 0-3.07 3.18L12.93 32.04a.81.81 0 0 0-.17.81l.3 1.02c.1.3.25.34.48.14Zm23.03-7.99 5.6-4.91c.07-.05.14-.06.22-.02.08.03.14.1.18.2l1.1 3.16a3.46 3.46 0 0 1-.7 1.1c-.66.74-1.43 1.6-2.3 2.61-.83.96-1.65 1.78-2.45 2.49-3.94 3.48-8.72 7.68-14.33 12.6a.68.68 0 0 1-.8.11l-.97-.47c-.19-.09-.21-.21-.07-.37l13.47-15.43c.03-.03.03-.06.01-.07-.04-.02-.06-.02-.07-.01l-16 14c-.28.24-.57.25-.87.02l-.3-.22a.56.56 0 0 1-.23-.4.57.57 0 0 1 .14-.44c4.58-5.23 9.24-10.59 13.99-16.07v-.06c-.01-.04-.03-.04-.07 0L16.04 37.91c-.2.18-.4.17-.58-.04l-.48-.54c-.18-.22-.18-.43 0-.65 7.53-8.64 11.67-13.4 12.42-14.28a38.24 38.24 0 0 1 3.86-3.93l4.77-4.17c.11-.1.23-.1.34 0l2.33 1.74c.15.11.17.24.04.39l-5.78 6.54c-.02.03-.03.05-.01.06.03.02.05.03.06.01l6.52-5.72c.2-.16.37-.15.52.06l1.55 2.1c.17.24.16.46-.02.67l-5.1 5.78c-.04.04-.05.08-.03.11.03.03.07.02.12-.03Zm5.14 7.72.08.07c.03.02.03.04 0 .07l-7.56 8.66c-.14.16-.11.2.1.13 3.27-1.3 5.8-3.52 7.55-6.67a16.66 16.66 0 0 0 2.03-9.97.15.15 0 0 0-.1-.13.15.15 0 0 0-.16.03c-1.01.85-2.1 1.79-3.27 2.8-.76.67-1.75 1.71-2.97 3.12L27.08 43.74a.14.14 0 0 0-.03.17c.03.06.08.09.14.09h2.52c.17 0 .32-.06.44-.17l11.53-10.1h.03Z" fill="url(#a)"/><defs><linearGradient id="a" x1="36.58" y1="16.58" x2="16.32" y2="38.88" gradientUnits="userSpaceOnUse"><stop offset=".1" stop-color="#156CBC"/><stop offset=".5" stop-color="#5C9ACD"/><stop offset="1" stop-color="#80D2F8"/></linearGradient></defs></svg>