<!-- by TradingView --><svg width="56" height="56" viewBox="0 0 56 56" xmlns="http://www.w3.org/2000/svg"><path fill="#F0F3FA" d="M0 0h56v56H0z"/><path d="M28 12c.08 0 .19.06.34.2a5.55 5.55 0 0 1 2.02 4.36c0 1.73-.67 3.19-2.03 4.36-.15.13-.26.2-.34.2-.08 0-.2-.07-.34-.2a5.55 5.55 0 0 1-2.02-4.37c0-1.73.68-3.19 2.03-4.36.15-.13.26-.19.34-.19ZM24.54 22.78c-.05.06-.18.1-.37.1a5.62 5.62 0 0 1-4.56-1.66 5.56 5.56 0 0 1-1.66-4.54c.01-.19.05-.31.1-.37.06-.06.18-.09.38-.1 1.8-.12 3.31.43 4.55 1.66a5.57 5.57 0 0 1 1.67 4.54c-.02.2-.05.32-.1.37ZM37.95 16.32c.06.05.1.18.1.37a5.56 5.56 0 0 1-1.68 4.52 5.61 5.61 0 0 1-4.55 1.65c-.2-.02-.32-.05-.38-.1-.05-.06-.09-.19-.1-.38a5.57 5.57 0 0 1 1.68-4.52 5.62 5.62 0 0 1 4.56-1.65c.19.02.31.05.37.1ZM28.59 32.07c-.09.62-.07 1.24.04 1.87.03.14.1.25.24.3.75.36 1.3.75 1.65 1.18.41.5.62 1.14.61 1.91 0 1.01-.01 1.76-.03 2.24 0 .07-.04.1-.1.1h-.95c-.08 0-.12.05-.12.13v1.45c0 .16-.08.24-.24.24h-.16c-.14 0-.2-.07-.2-.2v-1.4c0-.15-.08-.22-.24-.22h-2.33c-.08 0-.13.04-.13.13v1.58c0 .09-.04.15-.12.18-.16.06-.28.04-.37-.06-.03-.03-.05-.12-.06-.26-.02-.49-.02-.96.01-1.43 0-.09-.03-.13-.12-.13h-.89c-.15 0-.22-.08-.22-.23v-1.7c0-.74.08-1.3.25-1.66a3.44 3.44 0 0 1 1.96-1.8c.2-.08.3-.18.32-.3.1-.5.1-1.14.02-1.91.06-.01.09-.06.09-.14-.02-2.73-.02-5.35.01-7.87 0-.3.16-.46.47-.46h.1c.1 0 .2.04.27.12.08.07.12.16.12.27.05 2.5.06 5.09.02 7.75 0 .1.03.2.1.32ZM24.18 26.51c0 .08-.07.2-.2.34a5.61 5.61 0 0 1-4.41 1.98 5.61 5.61 0 0 1-4.38-2.06c-.13-.15-.19-.26-.19-.34 0-.08.07-.2.2-.34 1.2-1.34 2.66-2 4.41-1.98 1.75.01 3.2.7 4.38 2.06.13.15.19.26.19.34ZM36.4 24.1a5.62 5.62 0 0 1 4.4 2c.14.14.2.26.2.34 0 .07-.06.19-.19.33a5.62 5.62 0 0 1-4.39 2.06 5.62 5.62 0 0 1-4.41-2c-.13-.14-.2-.25-.2-.33 0-.08.07-.19.2-.34a5.62 5.62 0 0 1 4.38-2.06Z" fill="#7CA158"/><path d="M27.4 32.08c.1.77.09 1.4 0 1.9-.03.13-.14.23-.33.3-.9.35-1.55.95-1.96 1.8-.17.38-.26.93-.26 1.68v1.7c0 .14.08.22.23.22h.89c.09 0 .13.04.12.13-.03.47-.03.94 0 1.43 0 .14.02.23.05.26.09.1.21.12.37.06a.17.17 0 0 0 .12-.18V39.8c0-.09.05-.13.13-.13h2.33c.16 0 .23.07.23.22v1.4c0 .13.07.2.2.2h.17c.16 0 .24-.08.24-.24V39.8c0-.08.04-.12.12-.12h.94c.07 0 .11-.04.11-.1.02-.49.03-1.24.03-2.25 0-.77-.2-1.4-.61-1.91-.35-.43-.9-.82-1.65-1.17a.4.4 0 0 1-.24-.3 5.78 5.78 0 0 1-.04-1.88h11.53c.05 0 .08.02.1.08.03.26.04.53.01.8a12.4 12.4 0 0 1-2.08 5.72 11.97 11.97 0 0 1-4.55 4 12.48 12.48 0 0 1-12.32-.65 11.9 11.9 0 0 1-3.19-3 12.31 12.31 0 0 1-2.34-6.76c-.01-.12.05-.19.17-.19l11.49.01Z" fill="#6A6662"/></svg>