<!-- by TradingView --><svg width="56" height="56" viewBox="0 0 56 56" xmlns="http://www.w3.org/2000/svg"><path fill="#007AC4" d="M0 0h56v56H0z"/><path d="M44 28a15.86 15.86 0 0 1-4.69 11.31A15.83 15.83 0 0 1 28 44a15.86 15.86 0 0 1-11.31-4.69A15.83 15.83 0 0 1 12 28a15.86 15.86 0 0 1 4.69-11.31A15.83 15.83 0 0 1 28 12a15.86 15.86 0 0 1 11.31 4.69A15.83 15.83 0 0 1 44 28Z" fill="#fff"/><path d="M42 28c0 .8-.27 1.56-.8 2.3a7.09 7.09 0 0 1-2.28 1.94c-.98.57-2.12 1-3.4 1.3a17.4 17.4 0 0 1-8.03 0c-1.3-.3-2.43-.73-3.41-1.3a7.09 7.09 0 0 1-2.28-1.94c-.53-.74-.8-1.5-.8-2.3 0-.8.27-1.56.8-2.3a7.09 7.09 0 0 1 2.28-1.94c.98-.57 2.12-1 3.4-1.3A17.4 17.4 0 0 1 31.5 22c1.4 0 2.73.15 4.02.46 1.28.3 2.42.73 3.4 1.3a7.09 7.09 0 0 1 2.28 1.94c.53.74.8 1.5.8 2.3Z" fill="#007AC4"/><path d="M36.19 28c0 .6.07 1.03.2 1.3.2.4.57.6 1.12.57a.9.9 0 0 0 .48-.19c.17-.12.26-.25.27-.39 0-.16.1-.25.29-.25h1.22c.18 0 .25.08.22.25-.14.84-.67 1.37-1.57 1.58-.85.19-1.6.17-2.26-.05a2.18 2.18 0 0 1-1.46-1.48 4.55 4.55 0 0 1-.01-2.67c.22-.72.7-1.22 1.45-1.48a4.1 4.1 0 0 1 2.26-.06c.9.2 1.43.72 1.59 1.57.03.16-.05.24-.22.24h-1.23c-.18.01-.28-.07-.3-.24 0-.13-.1-.26-.27-.39a.88.88 0 0 0-.47-.18c-.55-.03-.93.17-1.12.58-.13.26-.2.7-.2 1.3ZM24.87 26.35c-.24.28-.17.53.21.74a5.15 5.15 0 0 0 1.35.43c.48.14.82.28 1 .43.43.35.6.83.51 1.46-.1.7-.52 1.16-1.27 1.41-.62.2-1.32.23-2.1.08-.98-.19-1.5-.76-1.57-1.7 0-.11.05-.17.16-.17h1.22c.14 0 .22.07.22.2 0 .24.12.42.35.52.2.1.43.13.7.09a.94.94 0 0 0 .58-.28c.14-.16.15-.35 0-.56-.12-.18-.54-.36-1.27-.53l-.2-.04c-1.18-.3-1.74-.88-1.67-1.78.06-.7.46-1.18 1.2-1.45.6-.22 1.29-.26 2.04-.11.9.18 1.38.69 1.44 1.52.02.14-.05.21-.2.21h-1.15c-.16 0-.25-.08-.26-.23-.01-.25-.2-.4-.54-.45-.34-.04-.59.03-.75.2ZM30.58 28.93v2c0 .04-.03.07-.08.07h-1.42c-.05 0-.08-.03-.08-.08V25.1c0-.06.03-.1.1-.1 1.4 0 2.44 0 3.1.04.6.03 1.05.26 1.35.7.28.38.39.88.33 1.48-.06.76-.45 1.25-1.15 1.48-.43.14-1.12.18-2.05.14-.07 0-.1.02-.1.1Z" fill="#fff"/><path d="M30.65 26.03c0-.02.01-.04.04-.04l.86.01c.21 0 .4.07.54.2a.6.6 0 0 1 .22.48v.2a.6.6 0 0 1-.23.46.8.8 0 0 1-.54.2l-.87-.01c-.02 0-.03-.02-.03-.04l.01-1.46Z" fill="#007AC4"/><path fill-rule="evenodd" d="M21.6 40.38c.09 0 .1.03.03.09-.12.11-.16.22-.11.31.03.07.1.13.22.18.48.21 1 .3 1.57.23.06 0 .08.02.06.09l-.16.45c-.02.07 0 .12.07.14.66.21 1.26.2 1.78-.03.16-.07.2-.02.15.13l-.09.27c-.02.07 0 .11.07.12.64.12 1.24.03 1.8-.26.06-.03.09-.01.1.06 0 .03-.01.08-.04.14-.04.1-.01.16.1.17.62.1 1.21-.03 1.77-.37.05-.03.08-.02.1.04.01.09.05.13.12.14.56.08 1.08 0 1.57-.25.05-.02.1-.04.16-.03.88.02 1.62-.23 2.21-.78.11-.1.16-.08.14.08 0 .04 0 .1.03.19.02.05.05.07.1.06 1.56-.39 2.44-1.35 2.63-2.89.14-1.1-.5-1.68-1.93-1.75a1.76 1.76 0 0 1-1-.35c-.12-.1-.17-.06-.14.1l.16.9c0 .04 0 .06-.04.05a2.54 2.54 0 0 1-1.52-.65.06.06 0 0 0-.07-.01c-.03.01-.04.03-.04.06v.92c0 .03-.02.04-.04.03l-.42-.13a3.1 3.1 0 0 1-.56-.2c-.2-.1-.37-.25-.51-.44-.15-.2-.22-.18-.2.08l.07.95c0 .05-.01.07-.05.05-.74-.26-1.22-.59-1.46-.97-.12-.2-.19-.18-.21.07-.02.3-.02.61 0 .93.01.06-.01.08-.07.06-.45-.2-.85-.41-1.2-.64-.1-.06-.22-.2-.37-.41a3.35 3.35 0 0 0-.06-.1.1.1 0 0 0-.1-.03.1.1 0 0 0-.08.07c-.04.15-.05.3-.03.47 0 .02 0 .05-.03.06-.02.02-.05.02-.07 0l-.05-.03c-.3-.18-.5-.33-.62-.44a.99.99 0 0 1-.35-.58c0-.08-.05-.1-.12-.07-.07.04-.15.21-.23.52-.02.1-.07.1-.14.04l-1.31-1.18c-.08-.08-.14-.06-.18.04l-.02.04c-.04.1-.08.1-.14.02l-.75-1.02a.07.07 0 0 1-.01-.06c.02-.1 0-.17-.06-.2-.04-.02-.07 0-.1.02l-.2.3c-.05.06-.08.06-.12 0l-.95-1.66c-.03-.06-.07-.06-.1 0l-.16.2c-.04.07-.08.07-.11 0l-.62-1.55c-.02-.05-.06-.06-.1-.02a.19.19 0 0 0-.05.08c-.05.14-.1.23-.16.28-.08.06-.13.04-.15-.06l-.3-1.69c-.01-.06-.04-.08-.1-.06-.08.03-.14.07-.16.11-.13.2-.19.18-.18-.05.02-.44-.06-.97-.23-1.6a.25.25 0 0 0-.16-.18c-.05-.02-.07-.06-.06-.11l.21-1.86-.01-.2a.57.57 0 0 1-.01-.2c.13-.43.23-.78.3-1.07a.14.14 0 0 0-.02-.12l-.03-.05a.13.13 0 0 1-.01-.16l.1-.17c.28-.55.52-.88.7-.98.2-.12.2-.2-.02-.25l-.45-.1c-.08-.02-.1-.06-.04-.11l.16-.18c.47-.54.82-.82 1.08-.86.23-.04.25-.11.03-.22a4.02 4.02 0 0 0-.33-.14c-.06-.03-.07-.06-.02-.1.45-.45.83-.73 1.14-.85.04-.02.05-.04.01-.08-.13-.13-.3-.23-.51-.3-.1-.04-.1-.08-.02-.13a5.18 5.18 0 0 1 1.53-.69c.28-.06.28-.14.01-.23-.04-.01-.1-.06-.16-.15-.03-.05-.02-.07.03-.08l1.8-.33c.04 0 .05-.03.02-.06l-.33-.46c-.04-.05-.03-.07.03-.08l1.67-.04c.13 0 .16-.06.08-.16l-.22-.3c-.05-.07-.03-.1.04-.1.48 0 .89.09 1.24.26.06.03.09.01.1-.05.02-.16-.01-.35-.09-.58a.07.07 0 0 1 .01-.08.07.07 0 0 1 .08-.03l1.5.22c.08.01.12-.02.1-.1v-.06c-.02-.06.04-.07.16-.02l1.33.57c.03.02.05 0 .04-.03l-.13-.75c-.01-.06 0-.07.06-.05l1.6.56c.06.02.1 0 .1-.05.02-.04 0-.1-.05-.18a.4.4 0 0 1-.07-.17c0-.08.02-.1.1-.06.44.22.97.32 1.58.29.08 0 .1-.04.06-.11l-.54-.94c-.05-.09-.03-.12.07-.1.64.15 1.22.1 1.72-.17.05-.03.06-.07.05-.12-.11-.4-.37-.71-.8-.95a2.6 2.6 0 0 0-1.21-.32c-.07 0-.09-.03-.06-.1l.21-.5a.2.2 0 0 0 0-.17.2.2 0 0 0-.14-.1 2.22 2.22 0 0 0-1.47.07c-.2.1-.26.04-.15-.17a.32.32 0 0 0 .03-.24.14.14 0 0 0-.12-.1 2.3 2.3 0 0 0-1.64.3c-.06.04-.1.02-.08-.05l.04-.3c.01-.07-.01-.12-.08-.14-.39-.12-.89.02-1.5.43-.1.07-.15.04-.15-.08v-.2c0-.06-.02-.09-.08-.09-.6-.03-1.15.2-1.65.7-.1.1-.17.08-.19-.07l-.04-.23c-.02-.1-.08-.15-.18-.12-.58.15-1.01.43-1.3.83-.09.11-.15.1-.2-.02l-.1-.26c-.04-.08-.1-.1-.17-.08-.6.22-1.05.61-1.36 1.18-.03.05-.05.05-.08 0-.06-.09-.14-.12-.24-.07-.6.29-1.07.77-1.42 1.46-.03.06-.07.06-.1 0l-.17-.3c-.04-.06-.09-.08-.15-.04a2.54 2.54 0 0 0-1.35 1.76c-.04.2-.1.2-.18.02-.06-.12-.12-.18-.2-.18-.04 0-.1.03-.17.1a3.2 3.2 0 0 0-.88 1.9c0 .03-.02.04-.04.05l-.06-.01c-.08-.1-.16-.14-.24-.14-.05 0-.1.05-.17.14-.29.43-.46 1.11-.5 2.05 0 .06-.04.08-.1.06a.46.46 0 0 1-.2-.17.13.13 0 0 0-.11-.06.13.13 0 0 0-.12.06c-.35.54-.43 1.24-.23 2.11 0 .03 0 .05-.02.07a.06.06 0 0 1-.07.02l-.44-.16c-.05-.02-.08 0-.09.06-.1.83-.01 1.58.24 2.25.02.06 0 .1-.07.08l-.51-.07c-.12-.02-.18.03-.17.15.06.77.28 1.47.66 2.1.03.05.02.08-.04.1-.12.02-.3.02-.53-.02-.04 0-.09 0-.12.04a.14.14 0 0 0-.04.13c.16.8.51 1.46 1.07 1.97.05.04.04.08-.02.1a.77.77 0 0 1-.36.06c-.06 0-.1.01-.14.06a.16.16 0 0 0-.03.15c.17.57.49 1.07.94 1.5.12.1.1.16-.06.18a.42.42 0 0 0-.16.05c-.05.03-.07.08-.05.14.25.6.6 1.1 1.07 1.46.06.05.06.09 0 .13-.12.07-.15.16-.1.27.28.57.66 1 1.17 1.28.07.04.07.08 0 .13l-.08.06c-.08.06-.1.14-.03.22.37.51.84.87 1.42 1.07.19.07.19.14 0 .22-.06.02-.08.08-.06.16l.08.12c.5.53 1.1.82 1.82.87.08 0 .09.04.04.1l-.27.3c-.05.05-.04.1.01.14.48.4 1.1.62 1.84.62Zm5.79-25.21a.5.5 0 0 1-.36.22l-.73.1c-.16.03-.2-.03-.11-.17l.3-.55c.13-.26.34-.48.61-.64.26-.15.54-.24.84-.27.08 0 .1.03.09.1-.06.29-.28.69-.64 1.2Zm-1.64.08c.46-.46.69-.98.52-1.16-.18-.17-.7.06-1.15.52-.46.46-.7.98-.52 1.16.18.17.69-.06 1.15-.52Zm4.03-1.16c.11.18-.22.6-.74.96-.53.35-1.04.5-1.16.32-.12-.17.21-.6.74-.95.52-.36 1.04-.5 1.16-.33Zm-5.55 1.3c-.15.56-.55.88-1.21.98-.07 0-.1-.02-.1-.09a2.2 2.2 0 0 1 1.3-1.9c.14-.08.22-.04.25.12.02.14-.02.34-.13.61-.06.13-.09.22-.1.28Zm7.12-.98a1.88 1.88 0 0 0-1.46.41c-.22.17-.36.33-.42.46-.03.05-.01.07.03.08l.96.14c.22.03.4-.04.54-.22l.46-.56c.14-.18.1-.28-.1-.3Zm-10 2.64c0-1.1.46-1.87 1.38-2.29.06-.03.1 0 .1.06 0 .53-.1 1-.3 1.4-.24.47-.57.78-1 .95-.12.05-.18 0-.18-.12Zm12-.9c-.06.23-.6.28-1.2.12-.6-.16-1.04-.47-.98-.68.05-.22.59-.27 1.2-.11.6.15 1.04.46.98.68Zm-4.34.67c-.37-.27-.68-.6-.92-1-.03-.07-.02-.1.06-.1.53-.05 1 .07 1.4.36.38.28.64.7.78 1.22.01.07-.01.1-.08.08-.45-.1-.87-.29-1.24-.56Zm.8-.9c.23.2.46.5.69.88.06.1.15.18.26.22l1.08.38c.14.05.18 0 .11-.12a2.65 2.65 0 0 0-2.07-1.52c-.22-.04-.24.01-.07.16Zm-1.85.26c.5.56.78 1 .85 1.33 0 .03 0 .05-.02.06a.06.06 0 0 1-.06.02 4.16 4.16 0 0 1-2.08-1.57c-.12-.18-.08-.27.13-.27.22 0 .44.04.65.1.2.05.39.16.53.33ZM19.8 18c0 .28.1.33.31.15l.56-.48A.9.9 0 0 0 21 17c.01-.27.04-.53.1-.78.05-.3-.03-.35-.27-.17a2.42 2.42 0 0 0-1.03 1.96Zm6.3-1.82c.45.19.8.53 1.06 1.03.03.07.01.1-.06.1a3.37 3.37 0 0 1-2.51-1.06c-.05-.06-.04-.1.03-.12a2.07 2.07 0 0 1 1.48.05Zm-1.67.52c-.19-.1-.39-.15-.6-.13-.22.01-.43.06-.63.13s-.2.16-.04.28c.7.51 1.51.77 2.43.77.03 0 .05 0 .06-.03a.06.06 0 0 0 0-.06c-.17-.29-.58-.6-1.22-.96Zm-6.12 1.57c-.25.73-.25 1.4.01 1.48.26.1.67-.42.93-1.15.25-.73.25-1.4-.01-1.49-.26-.09-.67.43-.93 1.16Zm4.57-.94c-.21-.08-.43-.1-.65-.06-.22.04-.43.11-.63.21-.2.1-.2.2 0 .3.79.45 1.66.6 2.62.5.03 0 .05-.02.05-.04a.06.06 0 0 0 0-.07 3.41 3.41 0 0 0-1.39-.84Zm-2.76 1.72c-.32-.09-.35-.23-.09-.43.23-.18.45-.32.66-.42.3-.15.6-.15.92 0l.3.13c.52.23.8.42.85.59.02.05 0 .09-.05.1-.93.22-1.8.23-2.59.03Zm-3 2.44c-.27-.03-.4-.68-.3-1.43.1-.76.4-1.34.68-1.3.26.03.4.68.3 1.43-.11.76-.41 1.34-.68 1.3Zm1.74-1.6.08-.08c.21-.2.4-.31.54-.33.57-.09 1.1 0 1.6.26.03.01.04.04.04.06 0 .03-.01.06-.04.07l-.38.2c-.5.27-.85.44-1.08.5-.35.1-.77.1-1.25.02-.06-.01-.09-.05-.08-.1.03-.14.17-.3.41-.48l.16-.12Zm-2.57 3.51c-.24.01-.45-.6-.48-1.36-.02-.77.16-1.39.4-1.4.24 0 .46.6.48 1.37.02.76-.16 1.39-.4 1.4Zm3.87-2.19c-.5.4-.92.67-1.23.8-.42.16-.9.2-1.45.11-.08 0-.1-.05-.06-.11.18-.37.36-.63.54-.76.22-.16.53-.24.94-.23h.42c.36-.01.64.02.83.1.05.02.05.05.01.1Zm-2.72 1.34c-.4.24-.68.74-.88 1.49 0 .03 0 .04.03.04a3.5 3.5 0 0 0 2.2-1.05c.2-.21.33-.34.37-.4.18-.25.12-.33-.18-.25-.45.13-.92.17-1.38.13-.06 0-.11.01-.16.04Zm-2.39 1.55c.16.74.48 1.3.7 1.25.23-.05.29-.7.13-1.43-.16-.75-.48-1.3-.7-1.26-.23.05-.29.7-.13 1.44Zm1.2 2.1c.9-.15 1.7-.84 2.4-2.06.03-.05.01-.08-.04-.08a2.3 2.3 0 0 0-.96.17c-.2.07-.35.12-.46.14-.32.08-.58.31-.78.71-.16.33-.24.67-.25 1.04 0 .07.02.1.09.08Zm-.59.96c-.01.12-.08.16-.19.1a1.91 1.91 0 0 1-.9-1.08c-.17-.44-.21-.93-.14-1.46 0-.06.04-.08.1-.04.88.53 1.26 1.36 1.13 2.48Zm.46 1.16c.3-.59.8-1.01 1.48-1.29.05-.02.09-.06.11-.11.15-.32.26-.66.32-1.01.03-.18-.02-.2-.15-.1-.44.38-.92.63-1.44.75a.26.26 0 0 0-.14.1c-.26.3-.36.86-.28 1.64.01.12.05.13.1.02Zm-1.96-1.4c.54.2.95.5 1.23.91.31.44.42.93.32 1.46-.01.06-.05.08-.1.06a1.97 1.97 0 0 1-1.13-.9c-.28-.44-.44-.9-.48-1.4-.01-.13.04-.17.16-.13Zm3.58.65c-.02-.14-.08-.17-.2-.1-.53.34-.91.75-1.13 1.25a2.01 2.01 0 0 0-.03 1.64c.02.06.06.07.12.04.45-.22.8-.63 1.02-1.22.2-.53.28-1.07.22-1.61Zm-3.6 1.65c.56.1 1 .32 1.35.66.38.37.57.82.57 1.36 0 .05-.03.07-.09.07a1.92 1.92 0 0 1-1.25-.67c-.35-.37-.58-.8-.71-1.27-.03-.12.01-.17.14-.15Zm3.83.57c-.04-.14-.1-.16-.22-.06-.47.43-.77.91-.9 1.45-.15.58-.06 1.13.26 1.64.03.05.07.06.12.02.41-.3.68-.78.81-1.4.11-.57.1-1.12-.07-1.65Zm-2.6 2.88c.58.39 1.18.51 1.34.27.15-.23-.2-.74-.77-1.13-.58-.38-1.18-.5-1.33-.27-.16.24.19.75.77 1.13Zm2.3.76c-.04.43.14.9.56 1.4.08.09.15.08.22-.02.55-.8.63-1.85.24-3.18-.04-.14-.1-.15-.16-.02-.07.15-.2.37-.35.64-.31.52-.48.9-.51 1.18ZM19.6 33l.52 1.28c.02.06.02.11.01.17l-.38 1.89c-.01.06-.04.07-.1.03a1.73 1.73 0 0 1-.63-.9c-.11-.38-.09-.74.09-1.09.15-.3.24-.69.26-1.16 0-.08.04-.16.1-.24a.07.07 0 0 1 .07-.03c.03 0 .04.02.06.05Zm-2.78.54c-.7-.18-1.2-.24-1.53-.18-.08.01-.1.06-.07.14.16.3.37.57.64.78.28.22.6.35.92.38l.7.1c.19.02.23-.05.14-.2l-.42-.74a.57.57 0 0 0-.37-.28Zm4.66 2.39a2.87 2.87 0 0 0-.1 1.83c.04.1.01.13-.08.06-.42-.3-.7-.58-.86-.83-.2-.33-.26-.72-.17-1.17l.29-1.45c0-.03.03-.06.07-.06.04 0 .06 0 .08.04l.74 1.29c.05.1.06.19.03.29Zm-2.81.17c-.1.25-.72.25-1.4-.01-.68-.26-1.16-.68-1.06-.93.09-.24.72-.24 1.4.02.68.26 1.15.67 1.06.92Zm3.38-.48.74 1c.04.06.05.11.04.17-.1.7-.03 1.36.22 1.98.07.18.02.23-.16.14a2.08 2.08 0 0 1-1.18-1.41 2.7 2.7 0 0 1 .24-1.87c.03-.06.06-.06.1 0Zm-3.57 1.92c.39.06.86 0 1.43-.16.06-.02.07-.05.03-.1a2.57 2.57 0 0 0-.59-.53 1.28 1.28 0 0 0-.76-.15h-1.23a.1.1 0 0 0-.1.07.1.1 0 0 0 0 .12c.34.42.75.67 1.22.75Zm6.22 1.19c.06.21.15.47.27.76a.1.1 0 0 1-.02.12.1.1 0 0 1-.11.03c-.7-.2-1.17-.56-1.44-1.1-.24-.5-.3-1.12-.16-1.85.01-.07.04-.08.1-.03.07.08.2.2.4.34.26.22.45.38.55.5.19.21.3.42.33.64l.08.59Zm9.5-1.46a2.82 2.82 0 0 1-.81-.16c-.04-.01-.06 0-.05.04.15.54.43.96.84 1.26.32.24.73.32 1.25.26.15-.02.23-.1.23-.26 0-.42-.23-.75-.7-.99-.16-.07-.4-.12-.76-.15Zm-7.95 1.2c.19.58.49 1.07.9 1.45.03.03.03.05.02.09a.08.08 0 0 1-.07.05c-.75.1-1.32-.13-1.7-.65a2.93 2.93 0 0 1-.47-1.84c0-.11.05-.14.13-.07l1.05.76a.4.4 0 0 1 .14.2Zm6.32-.59a2.9 2.9 0 0 1-.78-.3c-.04-.02-.05 0-.05.04.06.55.27 1.01.62 1.38.27.29.67.44 1.2.47.15 0 .23-.07.26-.22.08-.41-.1-.78-.53-1.09-.14-.1-.38-.19-.72-.28Zm-13.87.27c.47-.28.95-.41 1.42-.39.51.03.94.24 1.27.64.04.04.03.07-.01.1-.36.27-.8.38-1.35.32-.5-.05-.94-.2-1.33-.47-.1-.07-.1-.14 0-.2Zm12.81.26-1.39-.49c-.04-.01-.06 0-.05.05.1.63.35 1.12.76 1.47.47.38 1 .46 1.6.22.05-.02.05-.06 0-.1-.36-.3-.64-.66-.82-1.06a.16.16 0 0 0-.1-.09Zm-2.55 1.62v.03c-.57.22-1.1.08-1.6-.42-.44-.44-.71-.96-.82-1.57-.01-.07.01-.1.08-.05l1.44.83.11.1.8 1.08Zm.13-.42c.47.4 1 .52 1.6.34.07-.02.08-.05.03-.1a3.37 3.37 0 0 1-.53-.62l-.18-.26a.92.92 0 0 0-.4-.33 7.28 7.28 0 0 1-1.18-.6c-.05-.03-.08-.02-.07.05.04.63.29 1.14.73 1.52Zm5.18-.74.11.03c.04.01.04.04 0 .09a.34.34 0 0 1-.08.07c-.05.03-.09.02-.11-.04l-.03-.07c0-.07.05-.1.11-.08Zm-11.29.44c.03.26-.53.55-1.27.63-.73.09-1.35-.05-1.38-.32-.03-.26.54-.54 1.27-.63.73-.08 1.35.06 1.38.32Zm11.24.38c-.5.54-.75 1.12-.56 1.3.18.17.74-.13 1.23-.67.5-.54.75-1.12.56-1.3-.19-.17-.74.12-1.23.67Zm-9.76.28c.06.25-.42.6-1.09.78-.66.18-1.26.13-1.33-.12-.06-.25.42-.6 1.09-.79.66-.18 1.26-.12 1.33.13Zm9.08.02c-.4 1.01-1.11 1.54-2.1 1.59-.08 0-.1-.03-.07-.1.18-.48.44-.87.78-1.17.39-.34.81-.5 1.27-.5.13 0 .16.06.12.18Zm-2.2.16c-.9.24-1.5.74-1.83 1.5-.11.27-.03.37.25.28l.75-.24a.96.96 0 0 0 .61-.53c.12-.27.26-.5.41-.73.19-.27.12-.36-.19-.28Zm-5.33.37c-.59.88-1.36 1.24-2.31 1.08-.07-.01-.09-.05-.05-.1.27-.42.6-.74.99-.96.43-.24.86-.31 1.3-.2.11.02.14.08.07.18Zm1.72-.11c.17.22-.17.75-.75 1.18-.58.44-1.18.61-1.35.4-.16-.23.18-.76.76-1.2.58-.43 1.18-.6 1.34-.38Zm1.15 1.2c.57-.44.9-.97.74-1.18-.16-.2-.75-.01-1.33.43-.57.45-.9.98-.74 1.19.16.2.75.01 1.33-.43Z" fill="#141413"/></svg>