<!-- by TradingView --><svg width="56" height="56" viewBox="0 0 56 56" xmlns="http://www.w3.org/2000/svg"><path fill="#F0F3FA" d="M0 0h56v56H0z"/><path d="m28.73 13 .6.08c.81.1 1.4.2 1.76.28a15.23 15.23 0 0 1 5.25 2.45h-.02a14.37 14.37 0 0 0-10.57-1.22c-1.91.5-3.57 1.53-4.97 3.08a10.87 10.87 0 0 0-2.66 5.24 12.9 12.9 0 0 0-.18 4.13c.18 1.43.6 2.73 1.27 3.9.03.04.02.06-.03.06h-4.64c-.06 0-.1-.03-.12-.09-.36-1.39-.5-2.8-.38-4.25.15-1.98.64-3.87 1.45-5.68a13.71 13.71 0 0 1 10.68-7.82l1.21-.16h1.35Z" fill="#00AEEF"/><path d="M19.86 29.89c-.9-2.26-1.16-4.51-.76-6.75.15-.86.47-1.71.97-2.57a10.35 10.35 0 0 1 6.3-4.8c2.91-.8 5.75-.56 8.53.72 2.13.98 3.8 2.3 5.02 3.95a10.87 10.87 0 0 1 2.06 6.08c.07 1.5-.05 2.97-.35 4.4 0 .05-.04.08-.09.08H38.2c-.06 0-.08-.03-.07-.08.1-1.13.06-2.23-.11-3.3a10.83 10.83 0 0 0-2.2-5.02 9.48 9.48 0 0 0-4.36-3.15c-1.69-.6-3.34-.8-4.97-.59a7.06 7.06 0 0 0-4.44 2.18 8.82 8.82 0 0 0-2.37 5.61 9.58 9.58 0 0 0 .2 3.24Z" fill="#0089D0"/><path d="M36.7 26.42c.41 1.45.57 2.93.49 4.43 0 .08-.05.12-.12.12h-.97c-.06 0-.08-.03-.06-.09a10.72 10.72 0 0 0 .64-4.48c0-.03 0-.03.01 0v.02Z" fill="#00AEEF"/><path fill-rule="evenodd" d="M15.91 39h-1.5c-1.13-.1-2.25-.3-3.36-.57a.06.06 0 0 1-.05-.05c0-.02 0-.04.02-.06l1.14-.98a.07.07 0 0 1 .07-.01 8.7 8.7 0 0 0 3.95.37.84.84 0 0 0 .56-.3.3.3 0 0 0 .07-.24.3.3 0 0 0-.13-.2c-.2-.15-.47-.25-.8-.3l-.9-.13a14.94 14.94 0 0 1-2.65-.53c-.75-.26-1.06-.73-.93-1.42.05-.26.25-.51.59-.75.27-.2.56-.35.89-.46.5-.16.98-.26 1.47-.3a16.8 16.8 0 0 1 5 .32c.02.01.03.03 0 .05l-1.11.96a.06.06 0 0 1-.05.01c-.63-.13-1.26-.21-1.9-.24-.89-.03-1.46.08-1.7.33a.22.22 0 0 0-.06.18c0 .07.03.13.09.17.23.17.5.27.79.32 1.22.17 2.05.3 2.5.39.54.1 1 .25 1.37.45.55.31.78.68.7 1.13-.07.46-.33.82-.77 1.09-.3.19-.74.34-1.29.46-.66.15-1.33.25-2 .31Zm24.63-6h2.76c.03 0 .04.01.05.04L45 38.92c0 .05 0 .08-.05.08h-2.67c-.03 0-.05-.01-.05-.04l-.77-3.28c0-.02-.02-.04-.04-.04-.03 0-.04.01-.05.03l-1.3 3.3c0 .02-.02.03-.04.03H38.9c-.02 0-.03-.01-.04-.04l-1.15-3.28c0-.03-.02-.04-.04-.04-.03 0-.04.01-.05.04l-.87 3.28c0 .03-.02.04-.05.04h-2.66c-.04 0-.06-.03-.04-.08l1.85-5.88c0-.03.02-.04.04-.04h2.73c.03 0 .04.01.05.04l.77 2.76c0 .03.02.04.05.04.02 0 .04 0 .04-.03l.95-2.77c.01-.03.03-.04.05-.04ZM26 37v1.92c0 .05-.12.08-.17.08h-2.78c-.03 0-.05-.02-.05-.06v-5.86c0-.05.02-.08.07-.08h5.13c1.11 0 2.06.2 2.83.6.4.2.66.47.8.81.17.37.15.76-.04 1.19-.42.96-1.8 1.21-2.74 1.27l-.32.02c-.56.04-1.47.1-2.73.11Zm0-2.91c0-.05.02-.08.06-.08l1.46-.01c.4 0 .75.08 1.04.25.3.16.44.36.44.6v.27c0 .24-.14.44-.43.61-.29.17-.64.26-1.04.26l-1.46.01c-.04 0-.06-.03-.06-.08L26 34.1Z" fill="#0089D0"/></svg>