<!-- by TradingView --><svg width="56" height="56" viewBox="0 0 56 56" xmlns="http://www.w3.org/2000/svg"><path fill="#F0F3FA" d="M0 0h56v56H0z"/><path d="M28 45a17 17 0 0 0 .3-34c8.02.15 14.47 6.7 14.47 14.75 0 8.15-6.6 14.25-14.75 14.25C34.63 40 40 34.85 40 28.5c0-6.29-5.26-11.4-11.8-11.5 5.3.1 9.55 4.23 9.55 9.33 0 3.93-2.54 7.29-6.13 8.66A7 7 0 0 0 28.12 22a4.74 4.74 0 1 1-.12 0 7 7 0 0 0-3.7 12.95 9.34 9.34 0 0 1-6.01-8.62c0-5.15 4.35-9.32 9.72-9.33H28c-6.63 0-12 5.15-12 11.5 0 6.3 5.28 11.42 11.84 11.5-8.07-.1-14.57-6.16-14.57-14.25 0-8.14 6.6-14.74 14.74-14.75H28a17 17 0 0 0 0 34Z" fill="url(#a)"/><defs><linearGradient id="a" x1="28" y1="45" x2="28" y2="11" gradientUnits="userSpaceOnUse"><stop offset=".1" stop-color="#D8CF68"/><stop offset=".56" stop-color="#B2943C"/></linearGradient></defs></svg>