<!-- by TradingView --><svg width="56" height="56" viewBox="0 0 56 56" xmlns="http://www.w3.org/2000/svg"><path fill="#F0F3FA" d="M0 0h56v56H0z"/><path fill-rule="evenodd" d="M40 26.78V13H19.93A4.87 4.87 0 0 0 15 17.81V37h6.7c1.4-.53 3.54-1 6.46-1 6.3 0 6.97-1.31 6.97-3.35 0-1.64-1.76-4.46-2.64-5.66-1.3 1.26-3.58 4.7-2.42 8.01h-5.03a6.2 6.2 0 0 1-1.3-3.98c0-2.56 1.2-5.4 3.45-8.33 1.8-2.34 4.29-5.13 5.3-6.23 2.06 1.98 5.53 6.03 7.51 10.32Zm-20.2-6.36c-2.24 8.43 1.84 13.11 4.15 14.4-2.15-6.04 2.04-12.33 4.4-14.71l-2.03-3.42c-6.16 8.3-4.4 15.16-2.75 17.55-3.32-3.81-2.28-9.67-1.35-12.11l-2.42-1.71Z" fill="#036735"/><path d="M23.52 40.72c-5.73 0-7.95 2.19-8.35 3.28 5.82-3.38 8.35-.79 15.4-.79 5.64 0 8.67-3.69 9.47-5.53-5.86 6.01-9.36 3.04-16.52 3.04Z" fill="#036735"/><path d="M29.45 36.31c-7.86 0-10.97 3.21-11.55 4.82 4.48-1.39 6.3-1.1 8.76-.73 1.36.21 2.92.45 5.24.45 6.5 0 9.1-4.54 9.1-8.43 0-3.9-2.25-7.3-3.3-8.7-.86-1.13-3.75-4.95-5.17-6.64-.88 1.01-3.24 3.76-5 6.06-2.19 2.87-3.1 5.49-3.1 7.78 0 1.83.66 3.1.98 3.51h4.04c-.3-1.67-.12-5.63 2.9-8.06 2.92 3.66 6.92 9.94-2.9 9.94ZM21.8 22.38l-1.65-1.17c-1.54 5.28.46 9.72 1.65 11.28-.28-.75-.84-2.81-.84-5.12 0-2.3.56-4.29.84-5Zm1.12 8.84a16.4 16.4 0 0 1 4.67-11.06l-1.3-2.4c-1.7 2.12-4.77 7.78-3.37 13.46Z" fill="#DD0F7B"/></svg>