<!-- by TradingView --><svg width="56" height="56" viewBox="0 0 56 56" xmlns="http://www.w3.org/2000/svg"><path fill="#F0F3FA" d="M0 0h56v56H0z"/><path d="M14.8 36.82c0 .04 0 .05-.04.03v.02c.48.7.9 1.26 1.27 1.67a16.43 16.43 0 0 0 7.5 4.8c1.57.44 3.11.66 4.6.66a17.22 17.22 0 0 0 4.06-.58 15.58 15.58 0 0 0 4.11-1.77 16.33 16.33 0 0 0 7.4-10.59 16.01 16.01 0 0 0-.72-8.68 15.18 15.18 0 0 0-3.16-5.13 19.39 19.39 0 0 0-1.94-1.8l-.3-.24a15.97 15.97 0 0 0-11.86-3.06 16.07 16.07 0 0 0-13.07 11.37 15.78 15.78 0 0 0 .22 9.6 16.79 16.79 0 0 0 1.63 3.32h.03l.26.36v.02Z" fill="#9D0800"/><path d="M43.68 27.9A15.52 15.52 0 0 1 39.14 39a15.54 15.54 0 0 1-11.07 4.65 15.53 15.53 0 0 1-11.1-4.53 15.52 15.52 0 0 1-4.66-11.06c0-2.08.38-4.08 1.17-6a15.53 15.53 0 0 1 8.44-8.53 15.55 15.55 0 0 1 12-.07 15.53 15.53 0 0 1 8.53 8.44 15.5 15.5 0 0 1 1.23 6Z" fill="#FBCA00"/><path d="M28 14h.04c.8.03 1.6.12 2.4.27.05.01.08.04.08.1v2.37c0 .01 0 .02.02.02l3.37.13c.06 0 .09.03.09.09v3.09c0 .01 0 .02.02.02l4.9.2c.05 0 .08.02.08.08v6.98c0 .04-.02.06-.05.06h-.34a35546.72 35546.72 0 0 1-10.8-.53 27727.16 27727.16 0 0 1-10.76.52c-.03 0-.05-.02-.05-.06v-6.98c0-.06.03-.09.09-.09l4.9-.16c.02 0 .01 0 .01-.02V17c0-.06.05-.1.1-.1l3.37-.14c.02 0 .02 0 .02-.03v-2.37c0-.05.03-.08.08-.1a15.64 15.64 0 0 1 2.44-.26Z" fill="#9D0800"/><path d="M29.1 19.34 28 18.6H28l-1.08.73h-.03v-.03l.45-1.16v-.03l-1.17-.7v-.03l.01-.01h1.43c.01 0 .02 0 .02-.02l.36-1.12.02-.01h.02l.38 1.14.02.01h1.41c.01 0 .02 0 .02.02v.02l-1.17.7v.03l.46 1.18v.03h-.03ZM21.22 22.25a6.82 6.82 0 0 0 .57.7c.4.42.67.75.81.99.1.17.17.36.2.56.06.5-.04.87-.3 1.14-.25.25-.6.37-1.04.36a25 25 0 0 1-1.33-.05c-.02 0-.04-.02-.04-.04l-.2-1.02c0-.06.01-.1.07-.1h1.5c.02 0 .05 0 .07-.04a.12.12 0 0 0 .01-.1.48.48 0 0 0-.12-.22l-.2-.2c-.3-.31-.53-.54-.66-.7-.23-.28-.4-.54-.53-.8a1.4 1.4 0 0 1-.12-.65c0-.27.07-.49.19-.65.13-.18.3-.3.48-.36.12-.04.32-.06.6-.07.43 0 .85 0 1.27.03.03 0 .05.02.05.05l.19.97c0 .03 0 .04-.03.04h-1.35c-.04 0-.07.02-.09.05a.12.12 0 0 0 0 .1ZM24.75 23.25c-.01.03 0 .05.03.05h1.18c.02 0 .04-.02.04-.05v-.85c0-.08.03-.11.1-.11h1.14c.02 0 .04.01.04.04a855.35 855.35 0 0 1 0 3.27c.01.08.04.15.1.22l.05.07c.01.01.02.03 0 .06 0 .02-.02.05-.04.05h-1.43c-.04 0-.05-.04-.04-.08.04-.13.08-.27.08-.42v-1.05c0-.02-.01-.04-.04-.04h-1.33c-.04 0-.05.02-.05.06.03.4.21.86.54 1.36.01.03 0 .05-.02.06l-1.04.68c-.02.02-.05.02-.07-.01a4.11 4.11 0 0 1-.66-2.24 4 4 0 0 1 .6-2.24 2.4 2.4 0 0 1 1.83-1.06 9 9 0 0 1 1.4 0c.08 0 .13.05.15.14l.17.88c0 .04-.01.07-.05.07l-.96.03c-.25 0-.46.02-.62.06a1.56 1.56 0 0 0-1.1 1.05ZM33.5 23.29h1.18c.02 0 .03-.02.03-.04v-.86c0-.07.03-.1.09-.1h1.12c.05 0 .08.02.08.08v3.17c0 .13.02.23.09.31.06.08.04.15-.05.15h-1.39l-.02-.05v-.03a.96.96 0 0 0 .08-.4v-1.08c0-.02-.01-.04-.03-.04h-1.33c-.04 0-.06.03-.05.07.07.48.25.92.52 1.33.03.03.02.06 0 .08l-.96.7c-.02.01-.05.01-.08-.02a1.04 1.04 0 0 1-.18-.24 4.21 4.21 0 0 1-.42-3.17c.14-.54.38-.98.71-1.34.37-.39.82-.63 1.36-.73.5-.1.99-.1 1.49-.03.05 0 .09.05.12.13.08.27.17.57.25.9.01.04 0 .05-.03.05l-.9.01c-.94.01-1.5.38-1.7 1.1 0 .03 0 .05.03.05Z" fill="#FBCA00"/><path d="M30.7 23.71c-.05.04-.06.08-.02.13.56.73 1.07 1.36 1.55 1.89v.05l-.99.7c-.06.04-.11.03-.16-.03-.6-.76-1.13-1.57-1.57-2.43a2.42 2.42 0 0 0-.21-.35.1.1 0 0 1-.02-.07c0-.02.02-.04.04-.06.32-.23.52-.38.6-.46.36-.3.57-.58.64-.82a.15.15 0 0 0-.01-.12.13.13 0 0 0-.09-.06 1.1 1.1 0 0 0-.33-.04c-.92.03-1.7.04-2.35.03-.03 0-.04-.02-.04-.05l.21-.98c0-.02.02-.03.04-.03h2.79c.28 0 .53.11.75.32.22.21.33.48.34.8 0 .39-.11.72-.35.98-.16.18-.43.38-.82.6Z" fill="#FBCA00"/><path d="M27.84 25.91a.25.25 0 0 1 .08-.1c.06-.06.08-.13.08-.21 0-1.22.02-2.31 0-3.27 0-.02 0-.03.03-.03h1.16c.04 0 .06.02.06.07a639.75 639.75 0 0 0 0 3.2c.01.13.05.26.1.38.02.03.01.05-.02.05H27.9c-.02 0-.04 0-.05-.03a.07.07 0 0 1 0-.06Z" fill="#FBCA00"/><path d="M27.47 42.06a12.47 12.47 0 0 1-4.8-2.07 15.4 15.4 0 0 1-2.86-2.64c-.85-1-1.58-2.1-2.21-3.3-.23-.44-.52-1.04-.87-1.8a15.2 15.2 0 0 1-1.23-4.18c0-.04.02-.06.06-.06 3.83-.14 7.76-.33 11.77-.56.05 0 .07.03.07.08l.04 9.08.06 5.43c0 .02 0 .03-.03.02ZM28.53 42.06c-.02 0-.03 0-.03-.02l.06-5.42.03-9.09c0-.05.02-.07.07-.07 4.02.22 7.94.4 11.78.54.04 0 .06.02.06.06 0 .09 0 .18-.03.3a15.17 15.17 0 0 1-1.2 3.88c-.34.76-.63 1.36-.86 1.8-.63 1.2-1.37 2.3-2.21 3.3A15.44 15.44 0 0 1 33.33 40a12.49 12.49 0 0 1-4.8 2.07Z" fill="#9D0800"/><path d="m14.76 36.85-.27-.38v-.03h.04l.26.36v.02c.01.04 0 .05-.03.03Z" fill="#894303"/></svg>