<!-- by TradingView --><svg width="56" height="56" viewBox="0 0 56 56" xmlns="http://www.w3.org/2000/svg"><path fill="#F0F3FA" d="M0 0h56v56H0z"/><path fill-rule="evenodd" d="M44 28a16 16 0 1 1-32 0 16 16 0 0 1 32 0Zm-7.55 12.4A14.93 14.93 0 0 1 28 43c-3.13 0-6.04-.96-8.45-2.6L27 34.99v-.28l-.49-.35-6.06 4.18 2.22-6.94-.71-.52-2.91 8.96a14.98 14.98 0 0 1-5.37-16.53L20.84 29H26v1.88l-1.24-.81h-2.52L27 33.52V28h-4.8l-4.06-3H27v-2H13.85a15 15 0 0 1 13.98-10l-3.03 9h1.15l2.14-7 2.13 7h.98l-3.03-9a15 15 0 0 1 13.98 10H36v2h1.28L30 30.46V23h-1v10.52l4.9-3.55 8.42-6.46a15 15 0 0 1-5.37 16.53l-2.9-8.96-.76.55 2.2 6.91-6.03-4.16-.46.34v.27l7.45 5.4Z" fill="#ED1C24"/></svg>