<!-- by TradingView --><svg width="56" height="56" viewBox="0 0 56 56" xmlns="http://www.w3.org/2000/svg"><path fill="#F0F3FA" d="M0 0h56v56H0z"/><path fill-rule="evenodd" d="M4 30v-1h4.86l4.94-4H19v1h-4.89l-4.8 4H4Zm15-3h-5v3h5v-1h-4v-1h4v-1Zm5.56 3h-3.3l.35-1H23l-.93-2.88L20.84 30H19.6l1.66-5h1.6l1.7 5Zm.44-5v5h1v-2h.2l1.83 1.95H35V29h-6.5l-.97-1h.81c.8 0 1.45-.62 1.45-1.46A1.5 1.5 0 0 0 28.34 25H25Zm1 1h2.5c.22 0 .4.22.4.5s-.18.5-.4.5H26v-1Zm4-1h5v1h-4v1h4v1h-5v-3Zm6 0h4.5v1H37v1h3.5v1H37v2h-1v-5Zm6 0h-1v5h1v-5Zm4.98 4.12a2.55 2.55 0 0 1-4.48-1.62 2.55 2.55 0 0 1 4.5-1.6l-.73.72a1.5 1.5 0 1 0-.02 1.79l.73.71ZM52 27.5a2.5 2.5 0 1 1-5 0 2.5 2.5 0 0 1 5 0Zm-1 0a1.5 1.5 0 1 1-3 0 1.5 1.5 0 0 1 3 0Z" fill="#BF282E"/></svg>