<!-- by TradingView --><svg width="56" height="56" fill="none" xmlns="http://www.w3.org/2000/svg"><path fill="#F0F3FA" d="M0 0h56v56H0z"/><path fill-rule="evenodd" clip-rule="evenodd" d="M17 13a4 4 0 0 0-4 4v22a4 4 0 0 0 4 4h22a4 4 0 0 0 4-4V17a4 4 0 0 0-4-4H17Zm11 29c7.732 0 14-6.268 14-14s-6.268-14-14-14-14 6.268-14 14 6.268 14 14 14Zm-.8-2.026c-.389-3.54-3.022-9.716-11.139-10.752.586 5.791 5.29 10.367 11.139 10.752Zm2.205-.055c5.579-.651 9.99-5.128 10.538-10.738-3.395.291-8.99 2.697-10.538 10.738ZM39.94 26.792c-.562-5.619-5-10.095-10.6-10.718.419 3.487 2.986 9.539 10.6 10.718Zm-23.89.11c3.527-.18 9.732-2.52 10.836-10.851-5.744.529-10.315 5.105-10.836 10.851Zm11.956-6.395c.662 1.966 3.188 6.201 7.999 7.415-2.044.935-6.504 3.772-8 7.65-.622-1.85-3.035-5.968-7.706-7.65 2.277-.797 7.006-3.398 7.707-7.415Z" fill="#E40000"/></svg>