<!-- by TradingView --><svg width="56" height="56" viewBox="0 0 56 56" xmlns="http://www.w3.org/2000/svg"><path fill="#F0F3FA" d="M0 0h56v56H0z"/><path d="M19.74 22.4c-.41-1.03-.74-2.08-.99-3.17-.35-1.55-.43-3-.24-4.33.22-1.61.82-2.9 1.8-3.84.1-.1.14-.08.12.06a20.4 20.4 0 0 0 1.3 11.07c.27.66.79 1.86 1.55 3.6.7 1.59 1.07 3 1.13 4.24a7.98 7.98 0 0 1-.74 3.86 5.08 5.08 0 0 1-2.76 2.67 6.39 6.39 0 0 1-6.14-.84 4.85 4.85 0 0 1-1.74-3.53 5.6 5.6 0 0 1 .96-3.85 5.86 5.86 0 0 1 3.25-2.18c.04-.01.07 0 .09.02l1.42 1.9c.01.02 0 .03-.02.03-.92.13-1.68.44-2.29.94a3.7 3.7 0 0 0-1.27 2.09 3.75 3.75 0 0 0-.04 1.54 3.4 3.4 0 0 0 1.6 2.32c.44.25.92.4 1.45.45.63.05 1.21-.04 1.75-.27.5-.21.92-.54 1.26-.98.33-.43.55-.92.67-1.48.11-.58.1-1.17-.04-1.78a4.84 4.84 0 0 0-.96-1.9c-.67-.86-1.3-1.65-1.89-2.36a10.5 10.5 0 0 1-1.19-1.7 8.6 8.6 0 0 1-.76-4.68c.1-1.14.3-2.23.64-3.26.05-.15.07-.15.06.01a6.7 6.7 0 0 0 .5 2.85 9.62 9.62 0 0 0 1.52 2.53v-.02Z" fill="#1AA950"/><path d="M27.04 32.8c.03.54.24.92.61 1.14.35.2.8.25 1.37.12a1.2 1.2 0 0 0 .92-.95 1.3 1.3 0 0 0-.02-.66c-.07-.22-.2-.41-.37-.56a3.34 3.34 0 0 0-.91-.45l-.97-.36a2.83 2.83 0 0 1-.92-.49 1.9 1.9 0 0 1-.57-1.21c-.05-.46.01-.86.18-1.22.16-.32.4-.59.72-.79.31-.2.68-.31 1.09-.35.4-.05.83 0 1.26.1.49.14.85.42 1.08.84.21.38.3.83.26 1.36 0 .02 0 .02-.02.02h-.97c-.02 0-.03 0-.03-.03.03-.93-.36-1.41-1.17-1.43-.31 0-.57.04-.76.14-.23.13-.4.3-.51.51-.1.2-.14.41-.11.65.03.22.11.43.26.61.15.2.35.34.58.44l1.46.54c.41.15.7.3.88.46.5.46.7 1.05.6 1.78-.15 1.14-.81 1.79-2 1.95-.46.07-.91.05-1.36-.05a1.85 1.85 0 0 1-1.3-.9A3.16 3.16 0 0 1 26 32.5c0-.06.03-.09.09-.09h.86c.08 0 .1.04.1.1v.3ZM34.52 34.06a1.2 1.2 0 0 0 .92-.95 1.3 1.3 0 0 0-.02-.66c-.07-.22-.2-.41-.37-.56a3.34 3.34 0 0 0-.91-.45l-.97-.36a2.83 2.83 0 0 1-.92-.49 1.9 1.9 0 0 1-.57-1.21c-.05-.46.01-.86.18-1.22.16-.32.4-.59.72-.79.31-.2.68-.31 1.09-.35.4-.05.83 0 1.26.1.49.14.85.42 1.08.84.21.38.3.83.26 1.36 0 .02 0 .02-.02.02h-.97c-.02 0-.03 0-.03-.03.03-.93-.36-1.41-1.17-1.43-.31 0-.57.04-.76.14-.23.13-.4.3-.51.51-.1.2-.14.41-.11.65a1.35 1.35 0 0 0 .85 1.05l1.45.54c.41.15.7.3.88.46.49.46.7 1.05.6 1.78-.15 1.14-.81 1.79-2 1.95-.46.07-.91.05-1.36-.05a1.86 1.86 0 0 1-1.3-.9 3.17 3.17 0 0 1-.32-1.51c0-.06.03-.09.09-.09h.86c.08 0 .1.04.1.1v.3c.03.53.23.91.6 1.13.35.2.81.25 1.37.12ZM40.93 29.57a1.7 1.7 0 0 0-.34-1.24c-.29-.37-.69-.51-1.2-.44-.74.12-1.18.78-1.32 1.98a9.3 9.3 0 0 0 0 2.3c.18 1.28.67 1.93 1.5 1.96.49.02.87-.2 1.13-.69.2-.39.31-.84.3-1.36 0-.02.01-.03.04-.03h.94c.01 0 .02.01.02.03a3.7 3.7 0 0 1-.39 1.76c-.3.59-.77.95-1.37 1.1-.26.06-.57.07-.93.05a2.06 2.06 0 0 1-1.67-1.01 4.3 4.3 0 0 1-.58-1.9 7.7 7.7 0 0 1 .31-3.5c.5-1.28 1.45-1.78 2.86-1.5.58.1 1.02.4 1.33.9.27.45.4.99.37 1.6 0 .02-.01.02-.03.02h-.95c-.02 0-.03 0-.02-.03Z" fill="#EC1F27"/><path d="m42.34 36 1.64.94c.02.01.02.02.02.04l-.03.02H24.03c-.01 0-.02 0-.03-.02 0-.02 0-.03.02-.04l1.64-.94h16.68Z" fill="#1AA950"/></svg>