<!-- by TradingView --><svg width="56" height="56" viewBox="0 0 56 56" xmlns="http://www.w3.org/2000/svg"><path fill="#F0F3FA" d="M0 0h56v56H0z"/><path fill-rule="evenodd" d="M13.3 36.05a1.7 1.7 0 0 1-.21-.7c0-.1.04-.18.13-.24a22.27 22.27 0 0 1 4.02-2.24 11.5 11.5 0 0 1 4.93-.42 40.35 40.35 0 0 1 5.14 1.02c1.48.37 3.07.49 4.75.37 1.03-.08 2.6-.3 4.71-.7 1.04-.2 1.84-.34 2.39-.43 1.96-.32 3.75.1 5.38 1.24.4.28.54.19.42-.28-.39-1.46-.81-2.8-1.28-4-.19-.5-.64-1.43-1.35-2.8a43.92 43.92 0 0 1-1.86-3.92c-.21-.56-.31-1-.3-1.32 0-.4.18-.76.5-1.08.1-.1.1-.17-.03-.23-.57-.29-1.52-.75-2.86-1.38a7.3 7.3 0 0 0-6.01-.02c-.11.05-.27.1-.47.2-.96.38-1.66.61-2.12.7-.71.12-1.49.08-2.34-.13-.36-.1-.92-.26-1.66-.52-1.07-.36-1.88-.59-2.43-.67-3.1-.48-6.17-.46-9.18.06-.68.12-.8-.09-.37-.62l.27-.34c.07-.09.1-.2.06-.3a.32.32 0 0 0-.22-.23 3.1 3.1 0 0 0-1.13-.04c-.1 0-.16.06-.17.17-.04.32.05.64.25.96a.5.5 0 0 1 .07.26v15.34c0 .72-.07 1.56-.2 2.52-.1.77-.12 1.62-.06 2.56 0 .08.05.12.13.12l.97.04c.14 0 .2-.06.2-.2l-.04-2.58a.39.39 0 0 0-.04-.17Zm.63-12.72a88.11 88.11 0 0 1-.56-2.55c-.16-.84-.28-.83-.36.02a422.6 422.6 0 0 1 0 13.88c0 .05.03.08.07.1a.1.1 0 0 0 .12 0c.32-.23.56-.52.72-.88.72-1.62 1.02-3.38.92-5.3a34.71 34.71 0 0 0-.91-5.27Z" fill="#3266CC"/><path d="M27.31 24.74a.15.15 0 0 0-.08.04l-.06.03c-.06 0-.1-.04-.1-.1a.18.18 0 0 1 .03-.16c.83-.98 2.37-1.14 4.62-.48.09.03.15.09.17.17.02.1 0 .17-.06.24l-.5.52c-.16.17-.36.2-.6.12a6.85 6.85 0 0 0-3.42-.38Z" fill="#B3C249"/><path d="m28.98 26.55-.4.68c-.16.27-.4.37-.7.3-.6-.14-1.2-.5-1.8-1.06a.38.38 0 0 0-.25-.11l-2.75-.1c-.02 0-.03-.02-.03-.04s0-.04.03-.04l2.68-.16a.3.3 0 0 0 .2-.1l.24-.27c.24-.3.45-.48.6-.55.24-.12.54-.08.87.1.34.19.69.42 1.06.68.08.06.16.09.25.09l4.1.16c.25 0 .25.02 0 .03l-3.87.24c-.1 0-.18.06-.23.15Z" fill="#FEF901"/><path d="m28.05 27.8.06-.03c.05.01.09.05.1.1.02.06 0 .12-.04.17-.84.97-2.38 1.11-4.64.43a.23.23 0 0 1-.17-.18.23.23 0 0 1 .06-.23l.51-.52c.16-.17.37-.2.6-.11a6.9 6.9 0 0 0 3.43.42c.04 0 .06-.02.09-.04Z" fill="#B3C249"/></svg>