<!-- by TradingView --><svg width="56" height="56" viewBox="0 0 56 56" xmlns="http://www.w3.org/2000/svg"><path fill="#D1052A" d="M0 0h56v56H0z"/><path d="M25 34.32c1.3.8 3.57 2 6 2.03h.09c1.37 0 2.34-.38 2.97-.98a3 3 0 0 0 .91-2.17c-.02-2.3-2.14-3.5-4.27-4.7l-.7-.4c-2.4-1.34-4.57-2.77-4.57-5.3v-.08c.05-3.27 2.84-4.92 6.56-4.92h.06c1.78.02 3.5.43 4.49.68l.46.1v-.8l-.4-.1a20.38 20.38 0 0 0-4.54-.68h-.15c-1.9 0-3.66.39-4.99 1.26a5.27 5.27 0 0 0-2.27 4.45v.03c0 3.12 2.6 4.72 4.97 6.06l.08.05c2.37 1.31 4.5 2.5 4.5 4.25l-.01.09c-.05 1.13-.63 2.35-3.19 2.36-2.37-.02-4.8-1.37-6-2.12v.9ZM32.1 19h.01c1.73.02 3.32.58 4.42.97l.47.17v-.63l-.27-.1c-1.13-.38-2.75-.94-4.61-.96H32c-1.38 0-2.7.25-3.67.91-1 .67-1.7 1.8-1.71 3.23 0 2.48 2.28 3.78 4.51 5.05l.45.26c2.4 1.35 4.58 2.72 4.58 5v.07c-.05 2.3-1.72 4.05-5.15 4.05h-.03c-2.43-.02-5.05-1.17-5.98-1.62v.68c1.12.53 3.57 1.47 5.98 1.5h.14c1.77 0 3.18-.37 4.18-1.15a4.36 4.36 0 0 0 1.6-3.45v-.02c0-2.9-2.59-4.37-4.96-5.72-2.4-1.35-4.58-2.6-4.58-4.56v-.08c.03-2.38 2.06-3.6 4.75-3.6Zm1.44 7.12.37.2c2.38 1.36 4.95 3.12 4.95 6.38v.05c-.01 2-.87 3.8-2.28 4.8-1.38.98-3.27 1.46-5.44 1.46h-.18A23.83 23.83 0 0 1 25 37.94v-.82l.3.08c1.03.3 3.48.98 5.67 1h.06c4.28 0 7-2 7.05-5.46v-.08c0-2.73-2.18-4.3-4.55-5.65-.4-.23-.8-.46-1.2-.67-1.94-1.07-3.73-2.05-3.78-3.88 0-.97.42-1.74 1.07-2.2a3.98 3.98 0 0 1 2.34-.64h.06c1.72.02 3.22.67 4.46 1.2l.52.22v.8l-.49-.2c-1.27-.55-2.84-1.21-4.5-1.23-1.62.02-2.65.6-2.68 2.06v.08c-.02 1.25 1.95 2.33 4.2 3.56ZM9 34.32c1.3.8 3.92 2 6.34 2.03h.1c1.36 0 2.34-.38 2.97-.98a3 3 0 0 0 .9-2.17c-.02-2.3-2.13-3.5-4.27-4.7l-.7-.4c-2.39-1.34-4.56-2.77-4.56-5.3v-.08c.04-3.27 2.84-4.92 6.55-4.92h.07c1.77.02 3.49.43 4.48.68l.47.1v-.8l-.4-.1A20.38 20.38 0 0 0 16.4 17h-.15c-1.9 0-3.66.39-5 1.26A5.27 5.27 0 0 0 9 22.71v.03c0 3.12 2.59 4.72 4.97 6.06l.08.05c2.37 1.31 4.5 2.5 4.49 4.25v.09c-.06 1.13-.64 2.35-3.19 2.36-2.37-.02-5.15-1.37-6.35-2.12v.9ZM16.45 19c1.74.02 3.32.58 4.42.97l.48.17v-.63l-.27-.1c-1.13-.38-2.75-.94-4.62-.96h-.11c-1.39 0-2.7.25-3.67.91-1 .67-1.7 1.8-1.71 3.23 0 2.48 2.28 3.78 4.5 5.05l.46.26c2.4 1.35 4.58 2.72 4.57 5v.07c-.04 2.3-1.72 4.05-5.15 4.05h-.02c-2.43-.02-5.4-1.17-6.33-1.62v.68a17.8 17.8 0 0 0 6.32 1.5h.15c1.76 0 3.18-.37 4.18-1.15a4.36 4.36 0 0 0 1.6-3.45v-.02c-.01-2.9-2.6-4.37-4.96-5.72-2.4-1.35-4.59-2.6-4.58-4.56v-.08c.03-2.38 2.06-3.6 4.74-3.6Zm1.44 7.12.36.2c2.38 1.36 4.96 3.12 4.96 6.38v.05c-.02 2-.87 3.8-2.29 4.8-1.38.98-3.26 1.46-5.44 1.46h-.18c-2.41-.03-5.4-.8-6.3-1.06v-.82h.04c.84.24 3.88 1.06 6.27 1.08h.07c4.27 0 7-2 7.05-5.46v-.08c0-2.73-2.18-4.3-4.56-5.65-.4-.23-.8-.46-1.2-.67-1.94-1.07-3.73-2.05-3.78-3.88 0-.97.42-1.74 1.08-2.2a3.98 3.98 0 0 1 2.33-.64h.07c1.71.02 3.21.67 4.45 1.2l.53.22v.8c-.16-.07-.32-.14-.5-.2-1.27-.55-2.84-1.21-4.5-1.23-1.61.02-2.65.6-2.68 2.06v.08c-.01 1.25 1.96 2.33 4.22 3.56ZM42 39h1V17h-1v22Zm-2-22v22h1V17h-1Zm5 0v22h-1V17h1Z" fill="#fff"/></svg>