<!-- by TradingView --><svg width="56" height="56" viewBox="0 0 56 56" xmlns="http://www.w3.org/2000/svg"><path fill="#F0F3FA" d="M0 0h56v56H0z"/><path fill-rule="evenodd" d="M28 45a17 17 0 1 0 0-34 17 17 0 0 0 0 34Zm0-.61a16.39 16.39 0 1 0 0-32.78 16.39 16.39 0 0 0 0 32.78Z" fill="#00468E"/><path d="m16 27.68 5.02 11.82L26 27.68 21.02 16.5 16 27.68ZM28.5 27.68l5.27 11.82L39 27.68 33.77 16.5 28.5 27.68Z" fill="#00468E"/><path d="M21 27.58 28.03 43 35 27.58 28.03 13 21 27.58Z" fill="#DA251C"/></svg>