<!-- by TradingView --><svg width="56" height="56" viewBox="0 0 56 56" xmlns="http://www.w3.org/2000/svg"><path fill="#F0F3FA" d="M0 0h56v56H0z"/><path d="M17.2 36h-4.9C10.48 36 9 34.63 9 32.94V30h4.53v2.83c0 .5.43.9.97.9s.98-.4.98-.9v-1.3c0-.6-.3-1.17-.83-1.54l-4.49-3.14A2.66 2.66 0 0 1 9 24.68v-1.62c0-1.7 1.48-3.06 3.3-3.06h4.56c1.82 0 3.3 1.37 3.3 3.06V25H16v-2.13c0-.44-.7-.8-1.17-.8a.8.8 0 0 0-.83.8v.88c0 .57.23 1.12.71 1.48l4.73 3.64a2.64 2.64 0 0 1 1.06 2.09v1.98c0 1.7-1.48 3.06-3.3 3.06Zm12.5 0h-4.9c-1.82 0-3.3-1.37-3.3-3.06V30H26v2.83c0 .5.46.9 1 .9s.98-.4.98-.9v-1.3c0-.6-.3-1.17-.83-1.54l-4.49-3.14a2.66 2.66 0 0 1-1.16-2.17v-1.62c0-1.7 1.48-3.06 3.3-3.06h4.56c1.82 0 3.3 1.37 3.3 3.06v2.34H28v-2.53c0-.44-.2-.8-.67-.8-.48 0-.87.36-.87.8v.88c0 .57.27 1.12.75 1.48l4.73 3.64A2.64 2.64 0 0 1 33 30.96v1.98c0 1.7-1.48 3.06-3.3 3.06Zm4.3 0V20h5.68L43 27.03V20h4v16h-5.2L38 27.82V36h-4Z" fill="#2AC4F4"/></svg>