<!-- by TradingView --><svg width="56" height="56" viewBox="0 0 56 56" xmlns="http://www.w3.org/2000/svg"><path fill="#F0F3FA" d="M0 0h56v56H0z"/><path d="M31.39 19h-7.03c-2.08 0-4.03.47-5.28 2.35a4.72 4.72 0 0 0 .58 6c.83.85 1.8 1.33 2.93 1.44.07.01.08.04.05.1l-2.84 4.43c-.04.07-.1.09-.16.06a9.83 9.83 0 0 1-4.86-3.71 9.74 9.74 0 0 1-1.78-5.8 10 10 0 0 1 4.98-8.48c1.02-.6 2.11-1 3.27-1.2a22.6 22.6 0 0 1 3.51-.19h16.17c.07 0 .09.03.05.1l-12.6 19.74a.33.33 0 0 1-.3.16h-5.92a.07.07 0 0 1-.06-.04.07.07 0 0 1 0-.07l9.33-14.63c.04-.05.02-.26-.04-.26Z" fill="#007B4B"/><path d="M32.93 36.9a5.08 5.08 0 0 0 2.93-1.1 4.6 4.6 0 0 0 1.5-5.06 4.63 4.63 0 0 0-1.9-2.37c-.1-.07-.12-.17-.05-.28l2.68-4.02c.05-.08.11-.09.2-.04a9.75 9.75 0 0 1 4.43 5.98 9.02 9.02 0 0 1-.16 4.99 9.47 9.47 0 0 1-2.76 4.24 10.7 10.7 0 0 1-7.35 2.74 3201.28 3201.28 0 0 1-17.86 0c-.08-.01-.1-.06-.05-.12l3.2-4.82c.05-.07.12-.04.2-.04h13.44c.61 0 1.13-.08 1.55-.1Z" fill="#F4D00D"/></svg>