<!-- by TradingView --><svg width="56" height="56" viewBox="0 0 56 56" xmlns="http://www.w3.org/2000/svg"><path fill="#F0F3FA" d="M0 0h56v56H0z"/><path fill-rule="evenodd" d="M8.32 25h2.04c.05-.69-.4-2-2.59-2-2.73 0-3.11 2.05-3.11 2.36v.04c0 .32-.01.98 1.08 1.46.4.18.8.3 1.14.4.68.21 1.2.37 1.2.75 0 .47-.73.53-1.1.5-.3-.04-.94-.2-.94-.51H4c-.03.74.5 2 2.82 2 2.9 0 3.28-2.01 3.28-2.62 0-.6-.46-1.3-1.78-1.59-1.33-.28-1.46-.54-1.46-.9s.57-.4.74-.4h.05c.21 0 .67-.02.67.51Zm4 2.24h-1.56c.17-.42.9-1.24 2.37-1.24 1.48 0 1.79.66 1.76.99l-.46 2.25c-.09.44.11.73.23.76H13v-.64c-.5.49-1.1.63-1.38.64-.44.02-1.32-.13-1.32-.97 0-1.06 1-1.24 2.02-1.41 1.03-.18 1.1-.38 1.1-.43 0-.05-.05-.31-.47-.31a.74.74 0 0 0-.63.36Zm.84 1.1c-.07.26-.35.8-.87.8-.65 0-.33-.8.87-.8Zm24.66-1.1h1.56a.74.74 0 0 1 .63-.36c.42 0 .47.26.47.3 0 .06-.06.26-1.1.44-1.03.17-2.02.35-2.02 1.4 0 .85.88 1 1.32.98.27-.01.94-.15 1.45-.64V30h1.59c-.11-.03-.32-.32-.23-.76l.46-2.25c.03-.33-.28-.99-1.76-.99-1.47 0-2.2.82-2.37 1.24Zm2.4 1.1c-.07.26-.35.8-.87.8-.65 0-.33-.8.87-.8ZM22.9 26c-1.76 0-2.37 1.28-2.52 2.11-.07.3-.17 1.89 1.93 1.89 1.68 0 2.31-1.47 2.41-2.2.13-.6-.07-1.8-1.82-1.8Zm-.17.94c-.54-.04-.78.63-.85 1.07-.03.16-.12 1 .53 1.05.52.04.76-.73.82-1.12.06-.32.04-.96-.5-1ZM17.95 26c-1.76 0-2.37 1.28-2.52 2.11-.07.3-.17 1.89 1.93 1.89 1.3 0 1.96-.87 2.25-1.6h-1.45c-.13.35-.35.69-.7.66-.65-.04-.56-.9-.53-1.05.07-.44.31-1.11.85-1.07.33.02.47.28.5.54h1.52c0-.63-.37-1.48-1.85-1.48Zm7.04 4 .68-4h1.36l-.1.7a2 2 0 0 1 1.4-.7c.6 0 .91.36 1.06.75.3-.34.82-.75 1.45-.75 1.03 0 1.24 1.17 1.17 1.58a1033.5 1033.5 0 0 1-.43 2.42h-1.51l.46-2.34c.04-.14 0-.44-.46-.44-.22 0-.41.1-.56.23l-.01.13-.3 1.75-.13.67h-1.5l.46-2.34c.04-.14 0-.44-.47-.44-.36 0-.63.26-.78.49L26.45 30h-1.46Zm17.88-4h1.36l-.1.7a2 2 0 0 1 1.4-.7c1.06 0 1.24 1.17 1.17 1.58a564.34 564.34 0 0 1-.43 2.42h-1.51l.46-2.34c.04-.14 0-.44-.46-.44-.36 0-.63.26-.78.49L43.65 30h-1.46l.68-4Zm-9.12 4H32.3l1.21-6H35l-.5 2.36a1.8 1.8 0 0 1 1.13-.36c1.42 0 1.57 1.2 1.47 1.8-.08.73-.59 2.2-1.94 2.2-.67 0-1.06-.25-1.29-.56l-.12.56Zm.55-2c.06-.35.26-.9.73-.86.46.03.47.55.42.81-.05.32-.26.95-.7.91-.56-.03-.48-.72-.45-.85Zm12.68 2h1.46l.17-.81.02-.03c.23-.24.5-.51.66-.7.17.53.46 1.54.46 1.54h1.85l-1.06-2.45L52 26h-1.7L49 27.3l.68-3.3H48.2l-1.22 6Z" fill="#034693"/></svg>