<!-- by TradingView --><svg width="56" height="56" viewBox="0 0 56 56" xmlns="http://www.w3.org/2000/svg"><path fill="#F0F3FA" d="M0 0h56v56H0z"/><path d="M40 28a11.88 11.88 0 0 1-3.51 8.49A11.87 11.87 0 0 1 28 40a11.88 11.88 0 0 1-8.49-3.51A11.87 11.87 0 0 1 16 28a11.88 11.88 0 0 1 3.51-8.49A11.87 11.87 0 0 1 28 16a11.88 11.88 0 0 1 8.49 3.51A11.87 11.87 0 0 1 40 28Z" fill="#1F7FBB"/><path fill-rule="evenodd" d="M34.41 27h-3.29c-.07 0-.12-.02-.12-.09v-1.47c0-.12-.05-.18-.17-.16l-1.28.22c-.1.01-.14.07-.14.16v10.02c0 .03.02.05.06.04 1.76-.3 3.5-.21 5.23.24.1.03.17-.01.19-.12l2.5-14.4c.02-.13-.04-.2-.18-.23-1.33-.2-2.65-.26-3.95-.17-1.72.12-3.2.3-4.43.56-.5.1-.97.1-1.42.02-3.07-.6-5.92-.72-8.57-.38-.11.02-.16.08-.14.18l1.13 7c.02.12.09.18.2.18h4.54c.12 0 .17.05.17.17v4.99c0 .08-.04.13-.13.13h-1.98c-.06 0-.1-.03-.1-.1l-.38-2.31c-.02-.08-.06-.12-.15-.12h-1.47c-.06 0-.08.03-.07.09l.7 4.38c.02.07.06.1.13.08 1.73-.4 3.45-.48 5.19-.24.06.01.1-.02.1-.09v-8.46c0-.1-.05-.12-.14-.12H21.6c-.17 0-.26-.1-.29-.25l-.6-3.85c-.01-.1.03-.15.13-.17 1.49-.3 3.51-.14 6.07.48.1.02.1.08.1.16l-.01.07v11.93c0 .42.31.63.75.63h.4c.42 0 .63-.2.63-.62V23.36c0-.1.06-.17.16-.2 2.02-.58 4.07-.73 6.13-.45.13.01.18.09.16.22l-.66 3.96c-.02.09-.07.11-.16.11Zm-3.33 7h2.15c.04 0 .07-.02.08-.07l.91-5.34c.02-.06-.01-.09-.07-.09h-3.07c-.05 0-.08.03-.08.08v5.34c0 .05.03.08.08.08Z" fill="#F7EC25"/><path fill-rule="evenodd" d="M15.87 14c-1.03 0-1.87.83-1.87 1.86v24.28c0 1.03.84 1.86 1.87 1.86h24.26c1.03 0 1.87-.83 1.87-1.86V15.86c0-1.03-.84-1.86-1.87-1.86H15.87Zm.22.45c-.52 0-.99.26-1.27.66h11.5c-.63.08-1.25.2-1.86.38h-9.84c-.05.16-.08.33-.08.51v.05h8.34l-.82.38h-7.52v.7h6.32l-.55.38h-5.77v.57h5.06l-.43.38h-4.63v.6h4.02l-.35.39h-3.67V20h3.2l-.28.38h-2.92v.7h2.44l-.22.38h-2.22v.57h1.9l-.18.38h-1.72v.56H16l-.02.04-.13.34h-1.32v.56h1.12l-.12.38h-1v.7h.8l-.08.39h-.72v.56h.62l-.05.38h-.57v.6h.5l-.02.39h-.48v.56H15a15.93 15.93 0 0 0 0 .38h-.46v.7h.5c0 .13.02.26.03.38h-.53v.57h.6l.06.38h-.66v.56h.77l.1.38h-.87v.56h1.02l.13.38h-1.15v.7h1.4a14.15 14.15 0 0 0 .17.39h-1.57v.56h1.83l.2.38h-2.03v.6h2.38l.25.39h-2.63v.56h3.02l.3.38h-3.32v.7h3.92a13.62 13.62 0 0 0 .37.38h-4.3v.57h4.9l.45.38h-5.34v.56h6.1l.6.38h-6.7v.56h7.72c.25.13.5.24.76.35l.09.03h-8.57c0 .26.07.5.19.7h10.7a12.95 12.95 0 0 0 5.14 0h10.7c.12-.2.19-.44.2-.7h-8.58l.09-.03c.26-.1.51-.22.76-.35h7.72v-.56h-6.7l.6-.38h6.1v-.56h-5.34l.45-.38h4.9v-.57h-4.3l.02-.02.35-.36h3.92v-.7h-3.32l.3-.38h3.02v-.56h-2.63l.25-.38h2.38v-.61h-2.03l.2-.38h1.83v-.56H39.9a13.24 13.24 0 0 0 .16-.39h1.41v-.7h-1.15l.13-.38h1.02v-.56h-.87l.1-.38h.77v-.56h-.66l.06-.38h.6v-.57h-.53l.04-.38h.5v-.7H41a13.4 13.4 0 0 0 0-.38h.46v-.56h-.48l-.02-.38h.5v-.61h-.57l-.05-.38h.62v-.56h-.72l-.09-.39h.81v-.7h-1l-.12-.38h1.12v-.56h-1.32l-.13-.34-.02-.04h1.47v-.56h-1.72l-.19-.38h1.91v-.57h-2.22l-.22-.38h2.44v-.7h-2.92l-.28-.38h3.2v-.56H37.8a13.1 13.1 0 0 0-.35-.38h4.02v-.61h-4.63l-.43-.38h5.06v-.57H35.7l-.55-.38h6.32v-.7h-7.52l-.82-.38h8.34V16c0-.18-.03-.35-.08-.51h-9.84c-.61-.17-1.23-.3-1.85-.38h11.5c-.3-.4-.76-.66-1.28-.66H16.09Zm-1.07 26.68h25.96c-.28.26-.66.42-1.07.42H16.09c-.41 0-.79-.16-1.07-.42Z" fill="#1F7FBB"/></svg>