<!-- by TradingView --><svg width="56" height="56" fill="none" xmlns="http://www.w3.org/2000/svg"><path fill="#F0F3FA" d="M0 0h56v56H0z"/><path fill-rule="evenodd" clip-rule="evenodd" d="M5.335 28.965 18.68 39.806c.32.26.769.258 1.087-.003l6.925-5.688a.642.642 0 0 0 .051-.936.593.593 0 0 0-.807-.048l-6.712 5.508-5.341-4.313a2.352 2.352 0 0 0 1.095-.45c.498.32 1.498.645 2.499-.003a3.27 3.27 0 0 0 2.04.497l-.042-.451c-.883.087-1.62-.306-1.862-.5l-.128-.102-.133.097c-.933.686-1.889.288-2.246.005l-.134-.106-.134.107c-.533.43-1.035.511-1.444.451a1.664 1.664 0 0 1-.095-.016l-.97-.784c.203-.076.424-.2.646-.392.24.183.587.36 1.001.421.49.071 1.062-.022 1.645-.443.499.32 1.498.645 2.5-.004a3.27 3.27 0 0 0 2.04.497l-.043-.451c-.882.087-1.619-.305-1.861-.5l-.129-.102-.132.097c-.934.686-1.89.288-2.246.005l-.135-.106-.133.107c-.533.43-1.036.511-1.444.451a1.723 1.723 0 0 1-.919-.437l-.153-.149-.15.152c-.357.36-.7.474-.928.499L11.002 32h8.662s-1.065-.606-1.597-1h-4.071v-.604l1.362-2.03h-.264l-1.098 1.515v-1h.483v-.514h-.483V28h.483v-.632H13V28h.6v.367h-.967V29h.967v2h-1.596v-4H10v2h-.999l-1.186-1.95 11.41-9.69 5.677 4.678a.678.678 0 0 0 .945-.076.734.734 0 0 0-.09-1.055l-5.981-4.721a.854.854 0 0 0-1.088.02L5.32 27.552a.925.925 0 0 0 .015 1.413Zm1.917-1.437-.872.74L8 29.576v-.498l-.259-.196v-.364h.19v-.287l-.68-.703Z" fill="#083F88"/><path d="m18.808 37.443-1.616-1.404 2.922-2.368a1.387 1.387 0 0 0-.043-2.172l-5.076-3.779c-.937-.698-.976-2.127-.078-2.878l6.246-5.227 1.256 1.013-3.54 3.262a1.388 1.388 0 0 0 .109 2.118l5.407 4.016c.681.506.736 1.533.112 2.114l-5.7 5.305Z" fill="#D71921"/><path fill-rule="evenodd" clip-rule="evenodd" d="M28.5 31.5a4 4 0 1 0 0-8 4 4 0 0 0 0 8Zm0 .5a4.5 4.5 0 1 0 0-9 4.5 4.5 0 0 0 0 9Z" fill="#083F88"/><path fill-rule="evenodd" clip-rule="evenodd" d="M30.214 27.7a7.541 7.541 0 0 1-.358 2.2 3.684 3.684 0 0 0-1.325-.243c-.522 0-.987.105-1.382.257a7.526 7.526 0 0 1-.363-2.213h3.428Zm.475 0h2.054v-.474h-2.056c-.026-.875-.173-1.683-.408-2.353.423-.229.72-.501.869-.693l-.374-.292a2.354 2.354 0 0 1-.672.541c-.4-.88-.97-1.429-1.602-1.429-.63 0-1.197.545-1.596 1.418a2.645 2.645 0 0 1-.705-.538l-.36.308c.159.185.463.448.887.672-.238.673-.387 1.485-.413 2.366h-2.09v.475h2.088c.02.897.166 1.726.405 2.412-.419.223-.72.483-.877.666l.36.309a2.63 2.63 0 0 1 .693-.532c.4.888.972 1.444 1.608 1.444.638 0 1.213-.56 1.613-1.455.33.188.555.398.66.534l.375-.291c-.149-.19-.442-.46-.86-.689.236-.683.381-1.507.4-2.398Zm-3.901-.474a7.454 7.454 0 0 1 .371-2.169c.392.15.854.254 1.372.254.5 0 .941-.097 1.315-.24a7.46 7.46 0 0 1 .366 2.155h-3.424Zm1.743 2.905c.442 0 .829.087 1.153.21-.02.046-.04.09-.061.133-.375.77-.801 1.052-1.123 1.052-.322 0-.749-.283-1.123-1.052a4.205 4.205 0 0 1-.055-.118c.343-.132.75-.225 1.209-.225Zm-1.197-5.515.043-.09c.374-.77.801-1.052 1.123-1.052.322 0 .748.283 1.123 1.052l.049.104a3.213 3.213 0 0 1-1.141.206 3.36 3.36 0 0 1-1.197-.22ZM50.73 24.763l.27-.345c-.163-.219-.706-.656-1.573-.656-1.083 0-1.823 1.152-1.823 1.884 0 .586.535 1.479.802 1.852.18.205.47.595.665 1.002H34.654l-.385.5h14.978c.016.076.024.15.024.22 0 .097-.009.19-.027.28H33.736l-.385.5h15.64c-.294.32-.849.525-1.782.525H32.255l-.43.475h15.78c.73-.03 2.192-.263 2.192-1.872-.025-.326-.286-1.217-1.13-2.17-.207-.272-.621-.913-.621-1.312 0-.498.6-1.429 1.381-1.429.702 0 1.018.288 1.233.484.024.022.047.043.07.062ZM33.98 28h-.704l1.502-3.488H33l.276-.512h3.84l-.244.512h-1.43L33.98 28Zm3.474-4-1.706 4h.654l.746-1.594h.727l.815 1.573h.694l-.805-1.573h.418c.582 0 1.307-.556 1.307-1.411 0-.685-.476-.949-.715-.995h-2.135Zm1.42 1.754h-1.41l.51-1.23h1.144c.201-.014.603.069.603.514 0 .539-.565.702-.848.716ZM41.743 24l-2.135 4h.583l.812-1.5h1.318l.199 1.5h.664l-.664-4h-.776Zm.511 2h-.98l.541-1h.306l.133 1Zm1.076 2h.737l1.106-2.692.772 2.692h.299L48 24h-.685l-1.07 2.313-.65-2.313h-.702l-1.562 4Z" fill="#083F88"/></svg>