<!-- by TradingView --><svg width="56" height="56" viewBox="0 0 56 56" xmlns="http://www.w3.org/2000/svg"><path fill="#F0F3FA" d="M0 0h56v56H0z"/><path d="M42.52 28.1 39 22h2.92l3.46 6.1-3.35 5.9h-2.89l3.38-5.9Z" fill="#DCA951"/><path d="M46.13 28.1 42.62 22h2.92L49 28.1 45.65 34h-2.89l3.37-5.9ZM17.53 34H8l3.92-4h.68l-1.42 1.5h5.89c.64 0 1.16-.45 1.16-1.12 0-.66-.52-1.38-1.16-1.38H12a3.37 3.37 0 0 1-3.46-3.41A3.53 3.53 0 0 1 12 22h7.95l-4 4h-.67l1.7-1.6H12.5c-.64 0-1.16.54-1.16 1.2 0 .67.52.9 1.16.9h5.04c1.92 0 3.47 1.92 3.47 3.9 0 1.99-1.55 3.6-3.47 3.6Z" fill="#DCA951"/><path d="M29 22h-9v2.5h3V34h3v-9.5h3V22ZM30 22h3v5h3v-5h3v12h-3v-4.5h-3V34h-3V22Z" fill="#0B5548"/></svg>