<!-- by TradingView --><svg width="56" height="56" fill="none" xmlns="http://www.w3.org/2000/svg"><path fill="#F0F3FA" d="M0 0h56v56H0z"/><path fill-rule="evenodd" clip-rule="evenodd" d="m32.917 18.998-3.26 9.223 14.942-3.877L47 16H33.977l-.68 1.925H18.494C14.993 20.386 7.99 26.379 7.99 30.662c0 4.283 9.242 8.677 13.863 10.338H41.54c-5.922-1.046-17.764-4.344-17.764-9.169 0-4.258 5.454-9.788 9.142-12.833Z" fill="#6E1A13"/><path fill-rule="evenodd" clip-rule="evenodd" d="m31.943 18.056-3.278 9.602 14.944-3.876 2.4-8.782H32.986l-.683 2h-14.8C14.002 19.453 7 25.427 7 29.696S16.242 38.344 20.863 40h19.685c-5.922-1.043-17.764-4.33-17.764-9.139 0-4.25 5.47-9.773 9.159-12.805Z" fill="#E61D26"/><path fill-rule="evenodd" clip-rule="evenodd" d="M18.178 29.752c1.35 0 1.667 1.176 1.658 1.765.543-.984 0-2.517-1.658-2.517s-4.001 2.517-4.001 4.397c0 1.88.686 2.603 2.458 2.603 1.417 0 2.077-1.022 2.23-1.533-.334.241-1.173.723-1.858.723-.858 0-1.487-.231-1.487-1.562 0-1.33.972-3.876 2.658-3.876Zm2.858 4.281c.733.059 2.199-.047 2.199-.941 0-1.093-.625-1.092-1.06-1.092h-.03c-.435 0-2.258.819-2.258 2.963 0 1.715 2.041.922 3.062.312-1.071.22-2.953.28-1.913-1.242Zm.103-.448c.196-.342.709-1.026 1.19-1.026.603 0 .655.832-1.19 1.026ZM24.824 32l-.993 4h.993l.727-2.721c1.992-1.75 1.615 0 1.167 1.116-.226.513-.488 1.538.275 1.538s1.146-.679 1.242-1.018c-.155.147-.575.437-1.015.42-.242-.009-.051-.65.162-1.367.272-.916.581-1.956.07-1.956-.607 0-1.346.48-1.787.837l.227-.849h-1.068Zm5.995-1.485-1.316 1.306-.035.179h-.523c.053.086.203.226.462.319l-.444 2.318c-.288.818-.354 2.126 1.684.81-.425.18-1.188.302-.842-.653.194-.537.43-1.499.633-2.42.494-.082.968-.268 1.183-.374H30.52c.124-.578.23-1.114.3-1.485ZM33.59 32h-1.326c-.511 1.333-1.255 4-.143 4 .684 0 1.325-.352 1.8-.73-.022.46.266 1.052 1.605.52-.242.08-.68.06-.493-.657.188-.718.53-2.356.678-3.085h-.985l-.589 2.302c-1.54 1.66-1.642.869-1.496.257L33.589 32Zm4.913.37.002-.001.184-.136c.415-.301 1.125-.402 1.263.268.139.67-.294.67-1.35.502-.2-.032-.363-.02-.497.021L37.458 36h-1.021l.9-3.986h.987l-.125.577c.098-.07.202-.147.303-.221ZM41.65 32h-1.233c.42 0 .515.51.51.765l.454 3.245c-.363.464-.774.94-1.204 1.364.028-.228-.049-.682-.581-.682-.636 0-.626.684-.624.843v.02c0 .11.128.431.822.445.694.014 1.941-1.183 2.904-2.95.964-1.767 1.346-2.797.468-3.02-.878-.222-.638.85-.468 1.002.17.153.27.39 0 .974-.117.254-.381.7-.742 1.221L41.65 32Z" fill="#000"/></svg>