<!-- by TradingView --><svg width="56" height="56" viewBox="0 0 56 56" xmlns="http://www.w3.org/2000/svg"><path fill="#F0F3FA" d="M0 0h56v56H0z"/><path d="M26.42 17.77v-1.7h-.6l2.02-2.05 2.01 2.05h-.4v1.63c1.14.19 1.37.67 1.37 1 0 .33-.25.61-.38.71-.05-.21-.6-.63-2.4-.63-1.67 0-2.35.36-2.51.58-.67-.87-.16-1.36.9-1.59Zm.5-.08c.23-.03.48-.05.75-.06v-1.56h-.76v1.62Zm1.2-.07a13.95 13.95 0 0 1 .87.02v-1.57h-.87v1.55Zm-2.44 2.62c-.33-.33-.33-.98 2.3-.98 2.65 0 2.47.65 2.05.98.14-.17-.07-.52-2.04-.52s-2.36.35-2.3.52Zm-1.53 15.73 1.42-15.72h1.4l-1.1 16.16-1.72-.44Zm3.18-15.72-.95 16.15 2.51.65-.42-16.8h-1.14Zm2.27 17.09-.78-17.09h1.2l1.42 17.56-1.84-.47Zm-7.81-.93c-4.69 0-7.81 2.85-8.79 4.27a15.3 15.3 0 0 1 8.54-2.67c2.49 0 4.87.72 7.28 1.46 2.5.76 5.04 1.53 7.79 1.53 4.32 0 6.73-2.42 7.39-3.63-1.64 1.82-6.28 2.53-9.73 1.92-1.22-.21-2.4-.63-3.69-1.1-2.34-.83-5-1.78-8.8-1.78Zm-7.4 4.5c.59-.78 2.8-2.34 6.9-2.34 3.21 0 4.8.63 6.42 1.29.96.38 1.94.77 3.28 1.04a39.27 39.27 0 0 1-4.03-.72c-1.9-.4-3.8-.8-5.68-.8-2.13 0-4.28.04-6.9 1.52Z" fill="#00629F"/><ellipse cx="27.94" cy="13.16" rx=".63" ry=".64" fill="#FF9B00"/><path d="m24.66 25.69-1.08 10.36c-1.86-.4-6.16-.35-9.26 2.7a13.84 13.84 0 0 1 10.34-13.06Zm6.3-.07L32.1 37.9c.3.32 1.75.97 5.05.97 2.28 0 3.65-.3 4.39-.6-.4-6.21-4.8-11.3-10.58-12.64ZM27.7 9l.28 3.1.44-3.1h-.72Zm-1.86.6 1.86 2.45-1.26-2.85-.6.4Zm2.58 2.45 1.87-2.45-.6-.4-1.27 2.85Zm-4.3 1.33 3.02-.28-3.03-.45v.73Zm.58 1.9 2.4-1.9-2.79 1.29.39.61Zm2.4-2.63-2.4-1.9-.39.6 2.8 1.3Zm1.67.45 3.03.28v-.73l-3.03.45Zm.04.28 2.4 1.9.4-.6-2.8-1.3Zm2.4-2.64-2.4 1.9 2.8-1.28-.4-.62Z" fill="#FF9B00"/></svg>