<!-- by TradingView --><svg width="56" height="56" viewBox="0 0 56 56" xmlns="http://www.w3.org/2000/svg"><path fill="#00ADEF" d="M0 0h56v56H0z"/><path d="M27.97 25.15c.52 0 1.03-.05 1.53-.14a7.18 7.18 0 0 0 1.13 3.54 7.3 7.3 0 0 0-2.7 1.65 7.58 7.58 0 0 0-2.58-1.62 7.45 7.45 0 0 0 1.15-3.56c.48.09.97.13 1.47.13Zm-.04 16.22A8.34 8.34 0 0 1 21.85 44c-4.21-.03-7.83-3.5-7.85-7.57a8.44 8.44 0 0 1 1.79-4.78 8.94 8.94 0 0 1-1.51-.67c-4-2.23-5.45-7.02-3.26-10.7 1.8-3.02 5.52-4.36 9-3.5A8.01 8.01 0 0 1 27.97 9c4.3 0 7.8 3.47 7.95 7.8 3.5-.9 7.24.44 9.06 3.48 2.2 3.68.74 8.47-3.26 10.7-.47.26-.95.47-1.44.64a7.62 7.62 0 0 1 1.72 4.8c-.02 4.22-3.9 7.6-8 7.58a8.52 8.52 0 0 1-6.07-2.63Z" fill="#0072BB"/><path d="M35 17.34v-.07c0-3.72-3.03-7.27-6.92-7.27C24.2 10 21 13.55 21 17.27c0 3.72 3.2 6.73 7.08 6.73.54 0 1.06-.06 1.55-.16.48-.7.96-1.53 1.4-2.45A8.12 8.12 0 0 1 35 17.34Z" fill="#FFF100"/><path d="m39.95 30.9.02-.01A6.83 6.83 0 0 0 45 24.37c-.02-4.52-4.7-7.77-9.03-6.54a6.74 6.74 0 0 0-4.07 9.83c.83.24 1.78.45 2.83.6a8.28 8.28 0 0 1 5.22 2.64ZM20.49 17.9h-.02c-4.53-1.49-9.5 1.95-9.47 6.54.03 3.68 3.44 6.48 7 6.56a6.9 6.9 0 0 0 6.8-4.5c.17-.48.28-.97.33-1.46a19.4 19.4 0 0 0-1.95-2.07 7.84 7.84 0 0 1-2.7-5.07ZM16.44 32.25l-.02.02a6.48 6.48 0 0 0 1.22 9.32A7.22 7.22 0 0 0 21.98 43a7 7 0 0 0 5.5-2.62 6.43 6.43 0 0 0-1.36-9.32 7.2 7.2 0 0 0-1.33-.78c-.82.28-1.71.65-2.65 1.13a8.1 8.1 0 0 1-5.7.84Z" fill="#FFF100"/><path d="M34.8 29.25h-.02a8.1 8.1 0 0 1-4.43 3.76l-1.06.45c.18.42.5 1.45.5 2.46 0 1.14-.32 2.9-1.16 3.86A7.19 7.19 0 0 0 34.48 43 6.52 6.52 0 0 0 41 36.38c0-3.79-2.36-6.95-6.2-7.13Z" fill="#FFF100"/><path d="M36 26.5c0 4.14-3.58 7.5-8 7.5s-8-3.36-8-7.5c0-4.14 3.58-7.5 8-7.5s8 3.36 8 7.5Z" fill="#0072BB"/><path fill-rule="evenodd" d="M23.26 27.41c.22.71.57 1.37 1.03 1.94l.13-.11c-.2-.26-.37-.55-.51-.85a5.99 5.99 0 0 0 3.86 1.3v1.63h-.1a4.37 4.37 0 0 1-2.95-1.5l-1.34 1.17a5.5 5.5 0 0 0 3.71 2 5.26 5.26 0 0 0 3.98-1.34 5.65 5.65 0 0 0 1.91-3.86 5.9 5.9 0 0 0-1.27-4.14l-.13.11c.31.41.56.87.72 1.37l-.02-.02A4.71 4.71 0 0 1 30 26.56c-.71.22-1.4.29-1.85.28v-2.27a4.85 4.85 0 0 0 3.1-1.4c.01 0 .02 0 .03.02L32.62 22a5.5 5.5 0 0 0-3.71-2 5.26 5.26 0 0 0-3.98 1.34 5.65 5.65 0 0 0-1.91 3.86c-.06.74.02 1.5.24 2.2Zm7.72-4.53a4.5 4.5 0 0 0-2.83-1.2v2.5c.6-.03 1.79-.29 2.83-1.3Zm-3.21-1.2a4.35 4.35 0 0 0-2.72 1.1l-.02.01c.24.24.59.53 1 .78.5.3 1.1.55 1.74.6v-2.5Zm-3.02 1.39a4.68 4.68 0 0 0-1.16 2.14c.65.58 2.2 1.56 4.18 1.62v-2.27a4.27 4.27 0 0 1-1.93-.65 5.84 5.84 0 0 1-1.09-.84Zm-1.24 2.58a4.8 4.8 0 0 0 .16 2.13v.02l.14-.1c.31.49 1.57 1.53 3.96 1.59v-2.07a7.34 7.34 0 0 1-4.26-1.57Zm8.9-.1a5.17 5.17 0 0 1-2.3 1.4 6.5 6.5 0 0 1-1.96.28v2.06c.5 0 1.24-.1 2-.32a4.97 4.97 0 0 0 2.3-1.37 4.84 4.84 0 0 0-.03-2.05Zm-.17 2.79c-.6.48-1.3.8-1.97 1-.8.25-1.58.34-2.12.35v1.64a4.34 4.34 0 0 0 2.8-1.1 4.66 4.66 0 0 0 1.29-1.89Z" fill="#FFF100"/></svg>