<!-- by TradingView --><svg width="56" height="56" fill="none" xmlns="http://www.w3.org/2000/svg"><path fill="#F0F3FA" d="M0 0h56v56H0z"/><path fill-rule="evenodd" clip-rule="evenodd" d="M10.95 30.294a3.244 3.244 0 0 1 0-4.588L25.706 10.95a3.243 3.243 0 0 1 4.588 0L45.05 25.706a3.243 3.243 0 0 1 0 4.588L30.294 45.05a3.243 3.243 0 0 1-4.588 0L10.95 30.294Zm.967-1.286a1.425 1.425 0 0 1 0-2.016l15.075-15.075a1.425 1.425 0 0 1 2.016 0l15.075 15.075a1.425 1.425 0 0 1 0 2.016L29.008 44.083a1.425 1.425 0 0 1-2.016 0L11.917 29.008ZM36.797 24l-7.602-7.06a1.638 1.638 0 0 0-2.23-.005l-8.008 7.48a1.421 1.421 0 0 0 .014 2.101l8.623 7.842c.272.247.291.66.044.931a.697.697 0 0 1-.983.04L23.005 32h-3.668l7.63 7.065c.623.582 1.606.58 2.227-.004l7.852-7.379a1.42 1.42 0 0 0 .015-2.068l-8.625-8.333a.676.676 0 0 1 .052-1.022.719.719 0 0 1 .939.044L33.372 24h3.425ZM28 32a4 4 0 1 0 0-8 4 4 0 0 0 0 8Zm-2-6v1h1v2h-1v1h4v-1h-1v-2h1v-1h-4Z" fill="#E30613"/></svg>