<!-- by TradingView --><svg width="56" height="56" viewBox="0 0 56 56" xmlns="http://www.w3.org/2000/svg"><path fill="#F0F3FA" d="M0 0h56v56H0z"/><path d="M18 33.94 9 18h11.88l-2.96 4.88 3.1 5.46-3.02 5.6Z" fill="#FCDE0E"/><path d="m20.94 39-3.01-5.18L26.79 18h9.71c3.04 0 5.58 1.98 6.47 2.97l-2.85 4.96c-.8-1.66-2.75-2.68-3.62-2.93h-6.46l-9.1 16Z" fill="#F79521"/><path d="M32.92 39H26.9l5.75-10 3.06 5-2.79 5Z" fill="#F79521"/><path d="M36.69 39h-3.85l2.82-5A5.4 5.4 0 0 0 41 28.95c0-1.52-.64-2.65-.9-3.04l2.85-4.94c1.04.96 3.05 3.87 3.05 7.42 0 7.97-6.2 10.4-9.31 10.61Z" fill="#F36E21"/></svg>