<!-- by TradingView --><svg width="56" height="56" viewBox="0 0 56 56" xmlns="http://www.w3.org/2000/svg"><path fill="#F0F3FA" d="M0 0h56v56H0z"/><path d="M29.68 11.45a3.33 3.33 0 0 0-3.36 0l-11.69 6.83A3.29 3.29 0 0 0 13 21.12V34h17.94c.6 0 1.06-.2 1.06-.79v-2.2c0-.6-.45-1.01-1.06-1.01h-6.22C22.28 30 20 28 20 25.63V22.3c0-2.38 2.28-4.3 4.72-4.3h16.16l-11.2-6.55ZM43 22H25.15c-.61 0-1.15.43-1.15 1.02v2.07c0 .6.54.91 1.15.91h6.33A4.6 4.6 0 0 1 36 30.46v3.24c0 2.38-2.08 4.3-4.52 4.3H15.12l11.2 6.55c1.04.6 2.32.6 3.36 0l11.69-6.83A3.29 3.29 0 0 0 43 34.88V22Z" fill="#0088CB"/></svg>