<!-- by TradingView --><svg width="56" height="56" viewBox="0 0 56 56" xmlns="http://www.w3.org/2000/svg"><path fill="#F0F3FA" d="M0 0h56v56H0z"/><path fill-rule="evenodd" d="M46.48 31.06c1.01-.98 1.52-2 1.52-3.06s-.5-2.08-1.52-3.06a13.32 13.32 0 0 0-4.34-2.6 31.23 31.23 0 0 0-6.49-1.73c-2.45-.4-5-.61-7.65-.61-2.65 0-5.2.2-7.65.61-2.45.4-4.62.98-6.5 1.73a13.32 13.32 0 0 0-4.33 2.6C8.51 25.92 8 26.94 8 28s.5 2.08 1.52 3.06 2.46 1.85 4.34 2.6c1.87.75 4.04 1.33 6.49 1.73 2.45.4 5 .61 7.65.61 2.65 0 5.2-.2 7.65-.6 2.45-.41 4.62-1 6.5-1.74a13.32 13.32 0 0 0 4.33-2.6ZM20.7 20.78c1.47-.22 2.37-.33 2.7-.34.02 0 .04.02.03.04 0 .02 0 .03-.02.03-.68.2-1.3.4-1.88.6-1.79.6-3.3 1.5-4.51 2.72a.24.24 0 0 1-.22.07c-1.3-.2-2.52-.48-3.7-.84-.06-.02-.06-.05 0-.1l.06-.04a29.43 29.43 0 0 1 7.54-2.13Zm-2.3 3.38-.81-.1c-.22-.02-.25-.1-.09-.25a13.7 13.7 0 0 1 6.83-3.28c.35-.06.7-.08 1.03-.05.05 0 .05.02 0 .04-1.73.82-3.4 1.66-5.01 2.54-.56.3-1.05.63-1.45.96a.65.65 0 0 1-.5.14Zm20.7-.24c1.31-.2 2.57-.5 3.78-.88.05 0 .05-.03.01-.05-.08-.07-.19-.13-.3-.18-1.87-.8-3.8-1.38-5.78-1.77a2.34 2.34 0 0 0-.86-.03 4.32 4.32 0 0 0-.77.27c-.11.04-.11.09 0 .14 1.48.61 2.74 1.43 3.8 2.46.03.03.08.05.13.04Zm-4.82.49a9.16 9.16 0 0 0-1.3-2.12c-.05-.07-.04-.11.04-.14.56-.21 1.09-.43 1.59-.66.1-.05.2-.04.33.03l.2.1a11.8 11.8 0 0 1 3.43 2.28c.02.01.03.04.02.06-.01.03-.03.04-.05.05-1.4.24-2.79.4-4.14.47-.06 0-.1-.02-.12-.07Zm-1.61-2.03c-.03-.04-.07-.05-.1-.03a16.15 16.15 0 0 0-3.7 1.99c-.08.05-.18.16-.3.3a.06.06 0 0 0-.01.07c0 .03.03.04.06.04.69.02 1.41.01 2.18-.03l3.1-.17c.08 0 .1-.04.07-.1a9.55 9.55 0 0 0-1.3-2.07Zm-16 1.74c.03 0 .04.01.05.03l-.01.06a5.66 5.66 0 0 0-1.6 3.6c0 .07-.03.1-.1.1H8.56c-.12 0-.17-.06-.15-.17.16-.98.61-1.82 1.35-2.54.83-.81 1.77-1.46 2.8-1.96a.26.26 0 0 1 .2-.02c1.27.37 2.58.67 3.92.9Zm26.55-.91c-1.28.38-2.6.68-3.94.92a.05.05 0 0 0-.04.04v.05a5.67 5.67 0 0 1 1.63 3.61c0 .06.03.1.1.1l6.5-.05c.1 0 .15-.05.14-.16a4.48 4.48 0 0 0-1.38-2.55c-.84-.8-1.78-1.45-2.82-1.95a.26.26 0 0 0-.19-.01Zm-24.85 1.3c-.41.43-.29.96.38 1.56a9.93 9.93 0 0 0 1.92 1.26c.2.1.28.26.26.45-.01.08-.06.12-.14.12h-5.16c-.13 0-.18-.06-.17-.18.16-1.28.68-2.4 1.57-3.4.06-.06.14-.09.25-.08l1.04.13c.03 0 .06.02.07.05.01.04 0 .06-.02.09Zm16.1.23a8.72 8.72 0 0 1 .63 3.04c.01.08.06.12.15.12h5.14c.1 0 .15-.05.14-.15a6.02 6.02 0 0 0-1.61-3.46.15.15 0 0 0-.14-.05l-4.3.5Zm.29 3.08c0 .05-.03.08-.08.08h-2.96c-.13 0-.28-.03-.44-.1a8.7 8.7 0 0 1-1.64-.95c-.6-.44-1.02-.89-1.27-1.34-.07-.13-.07-.27 0-.43a.12.12 0 0 1 .11-.07l5.43-.25c.12 0 .2.05.24.15.37 1 .58 1.96.6 2.91Zm-22 4.97c1.27-.38 2.58-.69 3.92-.93a.05.05 0 0 0 .03-.09 5.65 5.65 0 0 1-1.61-3.6c0-.05-.04-.08-.1-.08l-6.47.04c-.12 0-.17.06-.15.17.17.98.63 1.82 1.37 2.53.84.8 1.78 1.45 2.82 1.94.06.03.12.04.19.02Zm8.76-1.57c0 .02 0 .03-.02.03l-4.3.51c-.05 0-.1 0-.13-.04a6 6 0 0 1-1.62-3.45c0-.1.04-.15.14-.15l5.13-.02c.09 0 .13.04.14.13.04 1.05.26 2.05.66 3Zm.4 0 3.95-.18c.06 0 .1-.04.1-.1.04-.6-.22-1.09-.76-1.46-.36-.25-.96-.54-1.81-.87l-.93-.38c-.25-.11-.63-.14-1.14-.09-.05 0-.07.04-.07.09.02 1 .22 1.98.59 2.94 0 .03.03.05.06.05Zm10.46-3.11h2.31c.05 0 .07.02.07.07v.93c0 .05-.02.08-.06.1a.13.13 0 0 1-.12.02l-2.25-.9c-.38-.14-.36-.22.05-.22Zm2.8 1.43c1.07.69 1.32 1.31.77 1.89-.04.03-.03.06.02.06l2.78.34c.04 0 .08 0 .11-.04a6.05 6.05 0 0 0 1.7-3.52c0-.1-.04-.16-.15-.16h-5.18c-.07 0-.11.04-.11.12v1.2c0 .04.02.08.06.11Zm4.1 2.39a.05.05 0 0 1-.04-.04l.01-.05a5.7 5.7 0 0 0 1.6-3.63c0-.07.04-.1.1-.1h6.51c.12 0 .17.06.15.17a4.5 4.5 0 0 1-1.36 2.56 10.8 10.8 0 0 1-2.82 1.97.26.26 0 0 1-.19.02c-1.29-.37-2.6-.67-3.96-.9Zm-17.32-.34.89 1.48c.04.08.1.1.19.06.92-.47 1.79-1.03 2.59-1.67.18-.14.15-.2-.08-.2l-3.5.16a.1.1 0 0 0-.1.06.1.1 0 0 0 .01.1Zm.63 1.65c.04.07.03.13-.04.17l-1.6.9a.2.2 0 0 1-.2 0 10.44 10.44 0 0 1-3.39-2.24.08.08 0 0 1-.02-.08.08.08 0 0 1 .07-.06l4.06-.46c.04 0 .07 0 .08.04l1.04 1.73Zm10.35.47c-.67.67-1.5 1.28-2.5 1.83-.04.03-.04.05.01.06.07.02.16.02.26 0 1.5-.21 2.9-.6 4.22-1.16 1.46-.62 2.68-1.4 3.65-2.34a.05.05 0 0 0 .02-.05.05.05 0 0 0-.05-.03l-2.7-.33a.1.1 0 0 0-.1.03 9.96 9.96 0 0 1-2.06 1.43c-.27.14-.52.32-.75.56Zm-12.33.85-.94.43a.32.32 0 0 1-.2.03 28.45 28.45 0 0 1-6.4-1.96c-.12-.05-.12-.1 0-.14 1.23-.36 2.5-.65 3.8-.86.05 0 .1 0 .13.04.93.94 2.08 1.7 3.44 2.27l.17.13c.04.02.03.04 0 .06ZM39.1 32.1c-.06-.02-.13.01-.2.08-.3.33-.65.64-1.05.9-1.42 1-3.11 1.75-5.06 2.27a.54.54 0 0 0-.18.07c-.13.11-.11.16.06.14a35.77 35.77 0 0 0 10.1-2.44c.15-.1.14-.17-.02-.2l-3.65-.82Zm-6.91 1.97c-.62.51-1.25.92-1.87 1.25-.32.16-.63.24-.94.24-.2 0-.21-.04-.03-.14a78.39 78.39 0 0 1 2.68-1.37c.06-.02.1-.03.15-.02.03.01.03.03 0 .04Z" fill="#0405B0"/></svg>