<!-- by TradingView --><svg width="56" height="56" viewBox="0 0 56 56" xmlns="http://www.w3.org/2000/svg"><path fill="#F0F3FA" d="M0 0h56v56H0z"/><path d="M35.56 31.7c.03-.02.03-.05 0-.07-.82-.62-1.95-1.5-3.38-2.66-.38-.31-.75-.43-1.1-.34-.26.06-.6.27-1.01.63a58.1 58.1 0 0 1-2.84 2.37c-.9.68-1.95.86-3.15.55a6.17 6.17 0 0 1-1.84-1.04L12.1 23.67c-.07-.05-.07-.1 0-.14l11.88-9.03a8.4 8.4 0 0 1 1.9-1.07c1.66-.67 3.44-.56 5.36.36.41.2 1 .62 1.79 1.26l.56.47c4.52 3.76 7.94 6.5 10.24 8.21.1.08.16.2.16.37v4.92c0 .03-.01.04-.03.05a.06.06 0 0 1-.06 0c-1.1-.84-3.63-2.82-7.56-5.95l-4.72-3.75a5.08 5.08 0 0 0-1.6-.92c-.6-.18-1.21-.16-1.85.05-.4.14-1.05.56-1.96 1.26a804.77 804.77 0 0 0-5.75 4.53c-.04.03-.04.06 0 .08l2.82 2.04c.6.43 1.1.6 1.49.5.23-.04.54-.2.9-.48l2.75-2.01a6 6 0 0 1 1.21-.74c1.2-.47 2.4-.27 3.61.6l3.19 2.49a229.67 229.67 0 0 0 7.45 5.55c.07.05.08.1 0 .16-6.58 4.99-10.46 7.94-11.63 8.85-2.44 1.9-4.96 2.18-7.55.85-.43-.22-.98-.61-1.68-1.18-5.77-4.7-9.4-7.64-10.91-8.84a.13.13 0 0 1-.05-.09 8.67 8.67 0 0 1-.07-1.24c.02-1.24.03-2.51.02-3.8 0-.04.01-.07.05-.08a.09.09 0 0 1 .1 0c3.4 2.63 7.27 5.7 11.63 9.21.85.7 1.5 1.13 1.96 1.3.68.28 1.41.27 2.18-.02.38-.14.94-.5 1.67-1.07l5.95-4.67Z" fill="#CE000C"/></svg>