<!-- by TradingView --><svg width="56" height="56" viewBox="0 0 56 56" xmlns="http://www.w3.org/2000/svg"><path fill="#F0F3FA" d="M0 0h56v56H0z"/><path d="m12.71 22.15-.2-.7a45.7 45.7 0 0 0-.58-2.1l-.08-.26a96.14 96.14 0 0 1-.33-1.2l-.28-.97c0-.04-.04-.07-.1-.11a.32.32 0 0 1-.06-.05.44.44 0 0 1-.08-.29c0-.22.11-.38.33-.45a.28.28 0 0 1 .2 0c.23.08.33.26.29.53-.01.08 0 .19.04.32a73.32 73.32 0 0 1 .55 1.97 157.18 157.18 0 0 1 1.14 4.07 202.47 202.47 0 0 0 .71 2.52c.07.3.16.6.25.92a154.78 154.78 0 0 1 1.04 3.67 77.12 77.12 0 0 1 .42 1.53 38.6 38.6 0 0 0 .51 1.8l.14.48a481.66 481.66 0 0 1 .7 2.51 286.53 286.53 0 0 0 .95 3.38c.01.02 0 .03-.02.04l-.52.24-.02-.01a11.74 11.74 0 0 1-.2-.72l-.08-.27a317.56 317.56 0 0 1-1.05-3.8 518.5 518.5 0 0 1-2-7.12l-.13-.47a29.84 29.84 0 0 0-.45-1.58 47.94 47.94 0 0 1-1.09-3.88Z" fill="#92D4E9"/><path d="m44.87 36.27.12.1v.01l-.01.01a.77.77 0 0 0-.14-.02h-.07a26.56 26.56 0 0 0-6.67-.26c-.87.06-1.74.15-2.6.26a32.21 32.21 0 0 1-4.08.35 31.44 31.44 0 0 1-2.28-.1 17.4 17.4 0 0 1-1.4-.17 11.45 11.45 0 0 1-1.26-.21l-.86-.16a46.98 46.98 0 0 0-2.02-.29 21.73 21.73 0 0 0-5.43.11c-.46.06-.73.1-.82.1l-.02-.01v-.11a6.03 6.03 0 0 0 .26-1.03c.11-.76.16-1.52.12-2.3a17.75 17.75 0 0 0-.43-3.45l-.13-.58a18.87 18.87 0 0 0-.46-1.67 25.22 25.22 0 0 0-.65-2 478.93 478.93 0 0 0-.48-1.3 749.84 749.84 0 0 0-.59-1.33l-.2-.4-.1-.2a13.06 13.06 0 0 0-2.3-3.18v-.01a.28.28 0 0 1-.05-.08c-.01-.04 0-.06.04-.07l.36-.12a21.04 21.04 0 0 1 1.72-.32l.73-.07a17.92 17.92 0 0 1 4.91.24l.24.04a54.6 54.6 0 0 1 3.56.75 14.95 14.95 0 0 0 1.61.3 31.1 31.1 0 0 0 2 .22c.33.02.64.03.92.02a22.46 22.46 0 0 0 2.55-.17 314.04 314.04 0 0 1 1.38-.14 24.45 24.45 0 0 1 3.35 0 76.3 76.3 0 0 1 1.72.23l.94.16h.02a3.82 3.82 0 0 0 .4.1l.31.06.1.02c.04.02.05.04.05.08l.02.62a9.94 9.94 0 0 0 .27 2 24.98 24.98 0 0 0 2.21 5.6 21.48 21.48 0 0 1 1.87 5.39c.08.4.17.8.28 1.2.08.29.19.57.32.86.1.2.2.4.34.58l.19.2.14.14Z" fill="#92D4E9"/><path d="M32.63 22.79c.04.02.04.03 0 .04a4.33 4.33 0 0 1-.6.08l-.32.03a100.33 100.33 0 0 0-3.54.49 48.28 48.28 0 0 1-1.14.2 29.45 29.45 0 0 1-.99.2 16.44 16.44 0 0 0-2.09.61c-.57.22-1.04.51-1.42.9-.44.44-.55.9-.33 1.36l.02.08v.03h-.04a6.21 6.21 0 0 1-.9-.58 2.92 2.92 0 0 1-.45-.43.98.98 0 0 1-.14-.25.53.53 0 0 1 0-.4.84.84 0 0 1 .22-.33 2.27 2.27 0 0 1 .7-.47 9.9 9.9 0 0 1 1.31-.5 14.1 14.1 0 0 1 1.55-.37 33.29 33.29 0 0 1 2.88-.4 56.53 56.53 0 0 1 5.18-.32.2.2 0 0 1 .1.03Z" fill="#0165BB"/><path fill-rule="evenodd" d="M26.87 25.99c0 .02 0 .02-.01 0a3.06 3.06 0 0 1-.06-.24l-.14-.48v-.02l-.02-.12c.01-.03.05-.04.11-.04.02 0 .02 0 .02-.02v-.03c0-.02-.01-.04-.04-.04h-.45l-.01.02c0 .03.01.05.04.07a.2.2 0 0 1 .11.13 18.3 18.3 0 0 1 .35 1.24c.02.06.05.05.07 0a5.95 5.95 0 0 1 .25-.87c.01-.04.03-.04.05 0a14.7 14.7 0 0 0 .29.91.1.1 0 0 0 .04-.07 9.46 9.46 0 0 0 .25-.87 6.36 6.36 0 0 0 .13-.4.25.25 0 0 1 .1-.09v-.03l-.01-.02h-.01l-.01-.01-.01-.01h-.28c-.03 0-.03 0-.03.03.01.03.02.04.04.04.07.01.1.05.08.12l-.03.12a62.1 62.1 0 0 0-.21.64 5.84 5.84 0 0 1-.23-.67.94.94 0 0 1-.03-.13c0-.03 0-.05.02-.06a.12.12 0 0 0 .05-.05v-.03l-.02-.01h-.36c-.02 0-.03.03-.03.05 0 .02 0 .03.02.03.05 0 .1.03.13.1.03.06.04.13.04.19 0 .05-.02.13-.07.24l-.13.38Zm4.65-.9v-.04c0-.02.01-.03.03-.03h.07v.48h-.03a.46.46 0 0 1-.07-.13.32.32 0 0 0-.18-.2.39.39 0 0 0-.21-.03c-.2.02-.31.16-.35.4a1.25 1.25 0 0 0 .05.57c.02.07.08.14.16.21.08.06.18.06.3.02a.44.44 0 0 0 .15-.1l.13-.13h.04c.03.03.03.05 0 .08-.07.1-.13.16-.18.2a.43.43 0 0 1-.23.1c-.17.02-.3 0-.36-.06a2.9 2.9 0 0 1-.1-.08.67.67 0 0 1-.16-.23.67.67 0 0 1-.06-.26c0-.36.09-.6.28-.76.1-.08.22-.11.35-.1h.06l.1.02c.07.02.12.05.17.09h.03l.01-.02Zm-6.96.01h.03l.06-.07c.05-.05.08-.04.08.03v.42c0 .01 0 .02-.02.03h-.02c-.05-.17-.1-.27-.18-.32a.32.32 0 0 0-.14-.05c-.06 0-.1.02-.13.05a.32.32 0 0 0-.04.08v.1c.02.07.07.13.15.17l.06.04c.13.07.22.12.26.16.1.1.14.22.14.35-.01.15-.08.25-.2.33a.3.3 0 0 1-.13.04h-.2a.43.43 0 0 1-.16-.06h-.03l-.01.02-.01.07-.02.01h-.03l-.01-.02-.01-.4.01-.05.01-.02h.05l.02.04c.02.1.07.18.13.23a.3.3 0 0 0 .26.07c.03-.01.06-.03.08-.06a.19.19 0 0 0 .04-.1c.02-.11-.03-.21-.15-.28a4.3 4.3 0 0 1-.24-.17.69.69 0 0 1-.2-.26.34.34 0 0 1 .08-.33.3.3 0 0 1 .2-.12c.08 0 .16 0 .23.03l.02.02.02.02Zm5.73.03h-.27l-.01.01a247.3 247.3 0 0 0 .01 1.27h.02l.09.01c.02 0 .03.01.04.03v.01c0 .03 0 .04-.03.04h-.54c-.02 0-.02-.01-.01-.04 0-.01 0-.02.02-.02l.04-.01.08-.03c.02-.01.03-.04.03-.08l.01-1.14c0-.03-.01-.05-.05-.05h-.22l-.02.01-.03.2v.02a.07.07 0 0 1-.05.01c-.02 0-.02 0-.02-.02v-.33c0-.01 0-.02.02-.02h1.01c.01 0 .02 0 .02.02v.37l-.01.02h-.03l-.02-.03a13.41 13.41 0 0 1-.08-.25Zm-5 1.26a.73.73 0 0 1-.21-.26.98.98 0 0 1-.07-.6.7.7 0 0 1 .34-.49l.16-.04a.7.7 0 0 1 .41.1c.08.04.14.1.18.2.07.12.1.26.1.41 0 .15-.02.29-.08.43a.48.48 0 0 1-.08.14.72.72 0 0 1-.2.17.52.52 0 0 1-.28.05.47.47 0 0 1-.28-.11Zm.65-.64c0 .2-.02.36-.07.49-.04.07-.1.12-.2.14-.1.02-.19 0-.24-.06a.59.59 0 0 1-.14-.26 1.29 1.29 0 0 1-.04-.3c0-.13.01-.23.03-.31.02-.1.07-.2.14-.27.05-.06.13-.08.23-.06.1.02.17.07.2.14.06.12.1.28.1.49Zm7.03.27c.03-.12.04-.26.02-.42a.7.7 0 0 0-.19-.43.52.52 0 0 0-.37-.17.55.55 0 0 0-.33.07c-.19.13-.3.3-.31.55-.02.2 0 .35.05.46l.03.08c.1.17.22.28.35.32.1.02.19.03.28.01.1-.02.18-.06.25-.12.1-.1.18-.22.22-.35Zm-.9.06c.05.15.12.25.23.29.05.02.12.02.2-.01a.29.29 0 0 0 .1-.08.42.42 0 0 0 .07-.1.7.7 0 0 0 .05-.22c.02-.17.02-.33 0-.5a.5.5 0 0 0-.08-.21.25.25 0 0 0-.19-.13c-.16-.01-.28.05-.35.2a1.25 1.25 0 0 0-.03.76Zm-3.77.3c0 .02 0 .03.02.03l.1.02c.02 0 .03.01.02.03 0 .02-.01.03-.04.03a2.7 2.7 0 0 0-.37 0c-.02 0-.03-.02-.02-.04.01-.03.03-.04.06-.05.06-.01.1-.06.13-.14a11.74 11.74 0 0 1 .48-1.26l.04.01.04.07a3.13 3.13 0 0 0 .15.45 17.29 17.29 0 0 0 .28.82c0 .02.03.04.07.05l.05.03c.02.02.02.04.01.05l-.01.01a3.2 3.2 0 0 0-.5.01c-.02 0-.04-.01-.04-.04s.01-.05.04-.04c.08 0 .12-.01.11-.04a1.1 1.1 0 0 0-.1-.37.03.03 0 0 0-.03-.01h-.37l-.03.01c-.05.13-.09.24-.1.38Zm.33-.98.05.17.08.2.01.08-.02.01h-.29v-.01a6.17 6.17 0 0 1 .18-.45Z" fill="#E73533"/><path d="M37.38 27.01a5.09 5.09 0 0 1-.38.32l-.12.1-.1.08a3.76 3.76 0 0 1-.35.27 75.8 75.8 0 0 1-.86.7 1039.77 1039.77 0 0 0-14.18.01 19.8 19.8 0 0 1-.64-.52 3.85 3.85 0 0 1-.28-.25 234.2 234.2 0 0 0-.85-.72 3.87 3.87 0 0 1 .27.01h1.27c.06 0 .1.01.13.03l.24.2c.12.1.26.22.44.34a89.25 89.25 0 0 0 1.9.05 43.3 43.3 0 0 1 1.68 0 2234.17 2234.17 0 0 1 8.46-.01h.86a245.37 245.37 0 0 0 .75-.58c.02-.02.05-.03.1-.03a84.13 84.13 0 0 0 1.66 0Z" fill="#E73533"/><path d="M33.98 27H23.02c-.01 0-.02 0-.02.02v.37c0 .01 0 .02.02.02h10.96l.02-.02v-.37l-.02-.02Z" fill="#E73533"/><path d="M33.45 29.36c.36-.05.7-.11 1.01-.2a24.05 24.05 0 0 0 1.06-.27l.01.01v.58c0 .02 0 .03-.03.03a6.61 6.61 0 0 0-.53.11 14.22 14.22 0 0 1-3.37.26 37.6 37.6 0 0 1-2.96-.27l-1.47-.14a32.44 32.44 0 0 0-5.86.04v-.57l.02-.01c.08 0 .23 0 .45-.02l.1-.01.43-.03a36.37 36.37 0 0 1 2.6.02c.82.06 1.54.13 2.16.21l.23.03 1.3.2a17.35 17.35 0 0 0 2.5.21l1.33-.06c.28-.02.62-.06 1.02-.12Z" fill="#0165BB"/><path d="M32.02 30.05h.02a14.92 14.92 0 0 0 3.52-.4v.4l-.02.02-.9.14a15.48 15.48 0 0 1-2.9.17 25.4 25.4 0 0 1-3.25-.24 29.5 29.5 0 0 1-1.07-.11h-.1a159.94 159.94 0 0 1-2.55-.11l-.34-.02h-.88a36.09 36.09 0 0 0-2.24.1v-.3c0-.02 0-.02.02-.02a2.79 2.79 0 0 0 .47-.05 11.12 11.12 0 0 0 .4-.04 46.04 46.04 0 0 0 1.04-.07 43.44 43.44 0 0 1 3.76.07 21.9 21.9 0 0 1 2.07.23 17.32 17.32 0 0 0 2.95.23Z" fill="#0165BB"/><path d="m31.1 31.9.38-.02h.08a22.64 22.64 0 0 0 2.73-.34c.2-.04.46-.12.77-.22.2-.07.4-.17.6-.29.14-.09.25-.2.35-.33.08-.1.1-.23.05-.37a.44.44 0 0 0-.08-.16.52.52 0 0 1-.1-.13V30h.02l.58.05c.41.06.81.13 1.19.23.18.05.37.12.55.2.12.06.21.12.28.18.08.08.13.17.15.28.01.14-.1.29-.34.44-.15.1-.33.18-.54.25-.34.12-.7.22-1.06.3-.68.13-1.34.23-1.98.3a36.43 36.43 0 0 1-4.76.18 38.17 38.17 0 0 1-2.92-.15 142.85 142.85 0 0 1-3.2-.34 54.1 54.1 0 0 0-1.81-.23 4.03 4.03 0 0 1-.4-.09c-.01-.02 0-.03.01-.03.31 0 .55.02.7.03l1.02.09a86.6 86.6 0 0 0 7.74.2Z" fill="#0165BB"/></svg>