<!-- by TradingView --><svg width="56" height="56" viewBox="0 0 56 56" xmlns="http://www.w3.org/2000/svg"><path fill="#F0F3FA" d="M0 0h56v56H0z"/><path d="M25.77 29c.1 0 .11-.02.01-.07-.54-.22-.8-.56-.77-1 .03-.36.22-.75.6-1.18 2.57-2.96 5.7-6.52 9.38-10.67a.04.04 0 0 0 0-.05c0-.01-.01-.02-.03-.02L21.1 16c-.05 0-.09.02-.12.05l-9.34 10.73c-.3.35-.5.7-.6 1.04-.13.46-.01.8.34 1 .18.12.48.17.9.17h13.48Zm5.21-.92c-.02.36-.22.75-.59 1.17A1564.18 1564.18 0 0 1 21 39.98l.04.02H34.9c.05 0 .1-.02.13-.05l9.33-10.74c.3-.35.5-.7.6-1.04.13-.45.01-.79-.34-1-.18-.11-.48-.17-.91-.17H30.23c-.12 0-.12.03-.02.07.54.23.8.56.77 1Z" fill="#034693"/></svg>