<!-- by TradingView --><svg width="56" height="56" viewBox="0 0 56 56" xmlns="http://www.w3.org/2000/svg"><path fill="#F0F3FA" d="M0 0h56v56H0z"/><path fill="#FD0100" d="M16 10h24v36H16z"/><path fill="#FF0" d="M17 11h22v29H17z"/><path d="M29.16 12 23 18h7v20h8V12h-8.84Z" fill="#FE0000"/><path d="M29 19v19h-7V24h-5l5-5h7Z" fill="#FE0000"/><path d="m34 14 .47 1.53H36l-1.24.94.48 1.53-1.24-.94-1.24.94.48-1.53-1.24-.94h1.53L34 14ZM28 21h-6v2h2v7h2v-7h2v-2ZM31 30l1.7-9h2.6l1.7 9h-1.73l-.33-2h-1.88l-.33 2H31Zm2.39-4h1.22L34 22.29 33.39 26Z" fill="#fff"/><path fill="#fff" fill-opacity=".5" d="M18 42h21v2H18z"/></svg>