<!-- by TradingView --><svg width="56" height="56" viewBox="0 0 56 56" xmlns="http://www.w3.org/2000/svg"><path fill="#F0F3FA" d="M0 0h56v56H0z"/><path d="M30.14 10.66 37 17.17l-3.52-1.94a7.07 7.07 0 0 0-7.58.48L9 28l17.81-17.32c.93-.9 2.4-.9 3.33-.02ZM25.86 45.34 19 38.83l3.52 1.94a7.07 7.07 0 0 0 7.58-.48L47 28 29.19 45.32c-.93.9-2.4.9-3.33.02Z" fill="#24662F"/><path d="M19 25.76V31c1.56-3.22 3.38-4.04 10.49-4.6C35.17 25.93 37 24 37 22.6V18c0 4.16-7.24 4.54-12.65 4.92-4.33.3-5.37 2.02-5.35 2.84Z" fill="#5A8F3F"/><path d="M19 31.76V37c1.56-3.22 3.38-4.04 10.49-4.6C35.17 31.93 37 30 37 28.6V24c0 4.16-7.24 4.54-12.65 4.92-4.33.3-5.37 2.02-5.35 2.84Z" fill="#5A8F3F"/></svg>