<!-- by TradingView --><svg width="56" height="56" viewBox="0 0 56 56" xmlns="http://www.w3.org/2000/svg"><path fill="#F0F3FA" d="M0 0h56v56H0z"/><path d="m4.05 25.9.4-.87c0-.02.02-.03.04-.03h7.17c.05 0 .06.02.05.07l-.29.89c0 .02-.02.04-.04.04H9.19c-.02 0-.04 0-.05.02L7.6 29.97c-.01.02-.03.03-.05.03H4.7c-.05 0-.07-.02-.05-.07l1.54-3.89c.01-.04 0-.04-.05-.04H4.09c-.02 0-.03-.04-.04-.05v-.05Z" fill="#004D73"/><path d="M10.47 28.94c-.08.05-.07.06.02.06h3.82c.03 0 .04.03.03.06l-.36.89c0 .01-.01.05-.03.05H8.22c-.1 0-.1-.1-.03-.15l6.55-4.46c.27-.18.5-.3.7-.35.2-.05.45-.06.72 0 .06 0 .1.04.14.09l3.29 4.8v.04c0 .02-.02.03-.04.03h-3.42a.1.1 0 0 1-.1-.05l-2.23-3.12c-.03-.03-.06-.04-.1-.01l-3.23 2.12Z" fill="#DA251C"/><path d="M24.7 26c-.08 0-.1.02-.03.07.61.54 1.22.98 1.81 1.54.24.22.4.38.48.5.15.2.22.38.24.57.03.5-.28.86-.91 1.08-.42.14-.92.22-1.5.22L20 30c-.01 0-.02 0-.01-.02l.3-.95c0-.03.03-.03.06-.03h3.2c.07 0 .07-.04.02-.09-.98-.84-1.56-1.15-1.72-1.3l-.03-.04a2.33 2.33 0 0 1-.6-.71c-.15-.47-.04-.86.34-1.19.28-.23.67-.41 1.2-.55.25-.06.67-.12 1.25-.12h4.13c.08 0 .1.04.08.1l-.25.77c-.03.08-.1.13-.18.13h-3.1ZM31.43 29h3.34c.01 0 .02.04.01.05l-.3.92c-.02.02-.03.03-.05.03h-4.36a7.5 7.5 0 0 1-1.36-.08c-.52-.15-.8-.6-.86-1.32a3.1 3.1 0 0 1 .78-2.16 3.7 3.7 0 0 1 1.85-1.32c.28-.08.68-.12 1.2-.12l4.69.01c.02 0 .02.01.02.03l-.31.93c-.01.02-.03.03-.05.03h-3.58c-.4 0-.7.14-.9.59-.32.8-.56 1.45-.7 1.96-.1.37.09.45.58.45ZM38.55 28.56c-.1.37.22.44.71.44h3.34c.01 0 .02.03.01.05l-.43.92c0 .02-.02.03-.05.03h-4.36c-.76 0-1.21-.03-1.36-.07-.52-.15-.8-.6-.86-1.32a3.1 3.1 0 0 1 .77-2.17 3.7 3.7 0 0 1 1.86-1.31c.28-.09.68-.13 1.2-.13h4.69c.02 0 .03.02.02.04l-.38.93c-.01.02-.03.03-.05.03h-3.5c-.42 0-.72.15-.9.6-.33.8-.57 1.45-.7 1.96Z" fill="#004D73"/><path fill-rule="evenodd" d="M50.53 25h-3.21c-.72 0-1.2.03-1.46.11a3.9 3.9 0 0 0-2.48 2.64c-.13.39-.18.75-.14 1.07.05.4.23.7.53.9.28.18.59.28.92.27a235.32 235.32 0 0 1 3.21 0c.72.02 1.2-.02 1.47-.1a3.9 3.9 0 0 0 2.47-2.64c.13-.39.18-.75.14-1.07a1.2 1.2 0 0 0-.52-.9 1.6 1.6 0 0 0-.93-.28Zm-2.14 3.04.09-.18.47-1.11c.08-.19.1-.35.05-.48-.05-.16-.17-.24-.37-.26a4.44 4.44 0 0 0-1.02.04.86.86 0 0 0-.55.32c-.09.1-.2.3-.32.59l-.08.18-.48 1.11a.68.68 0 0 0-.05.48c.05.16.17.24.37.26.33.02.67.01 1.02-.04a.86.86 0 0 0 .55-.32c.1-.1.2-.3.32-.59Z" fill="#004D73"/><path d="m35.62 27.1-.3.86c0 .03-.02.04-.05.04h-3.59c-.06 0-.07-.03-.05-.1l.29-.86c0-.03.03-.04.05-.04h3.6c.05 0 .07.03.05.1Z" fill="#004D73"/><path d="M51.9 30.82H4.1a.1.1 0 0 0 0 .18h47.8a.1.1 0 1 0 0-.18Z" fill="#DA251C"/></svg>