<!-- by TradingView --><svg width="56" height="56" viewBox="0 0 56 56" xmlns="http://www.w3.org/2000/svg"><path fill="#F0F3FA" d="M0 0h56v56H0z"/><path fill-rule="evenodd" d="M28 45a17 17 0 1 0 0-34 17 17 0 0 0 0 34Zm0-.7a16.3 16.3 0 1 0 0-32.6 16.3 16.3 0 0 0 0 32.6Z" fill="#211C19"/><path fill-rule="evenodd" d="M28 40a12 12 0 1 0 0-24 12 12 0 0 0 0 24Zm0-.67a11.33 11.33 0 1 0 0-22.66 11.33 11.33 0 0 0 0 22.66Z" fill="#211C19"/><path d="m14.5 22 .35 1.15H16l-.93.7.36 1.15-.93-.7-.93.7.36-1.15-.93-.7h1.15L14.5 22ZM13.5 26l.35 1.15H15l-.93.7.36 1.15-.93-.7-.93.7.36-1.15-.93-.7h1.15L13.5 26ZM14.5 30l.35 1.15H16l-.93.7.36 1.15-.93-.7-.93.7.36-1.15-.93-.7h1.15L14.5 30ZM41.5 22l-.35 1.15H40l.93.7-.36 1.15.93-.7.93.7-.36-1.15.93-.7h-1.15L41.5 22ZM42.5 26l-.35 1.15H41l.93.7-.36 1.15.93-.7.93.7-.36-1.15.93-.7h-1.15L42.5 26ZM41.5 30l-.35 1.15H40l.93.7-.36 1.15.93-.7.93.7-.36-1.15.93-.7h-1.15L41.5 30ZM31.95 19.44a38 38 0 0 0 1.54-.42c.15-.05.25 0 .3.15l.2.7c.03.11-.01.18-.13.22l-1.82.49a.37.37 0 0 0-.23.16l-1.02 1.7a.14.14 0 0 1-.08.07.15.15 0 0 1-.12-.02l-.66-.37a.26.26 0 0 1-.12-.15.24.24 0 0 1 .02-.2c.26-.4.58-.93.96-1.57.28-.47.44-.67 1.16-.76ZM28.06 22.69a6.67 6.67 0 0 0-3.36.74.16.16 0 0 1-.11.02s-.02 0-.02-.02a.04.04 0 0 1 0-.06c.37-.3.75-.58 1.16-.82a4.46 4.46 0 0 1 4.5.07c.33.2.68.47 1.04.8 1.07 1.01 1.24 2.34.93 3.8-.02.13-.1.17-.23.1l-.52-.3a.3.3 0 0 1-.17-.3c.03-.41.04-.68.02-.8-.13-1.22-.85-2.48-2.04-2.99a3.5 3.5 0 0 0-1.2-.24Z" fill="#211C19"/><path d="M24.41 24.25c1.73.27 3.23.2 4.72-.73a.12.12 0 0 1 .12 0 3.24 3.24 0 0 1 1.56 2.9.07.07 0 0 1-.05.04h-.03l-6.32-2.1h-.01l-.01-.03-.02-.04c0-.03 0-.04.04-.04ZM24.87 25.95a1 1 0 0 0-.09.28 1420.67 1420.67 0 0 0-1.62 7c-.03.1-.06.17-.1.2a.04.04 0 0 1-.04 0H23v-.02l.91-7.35.09-.32a.1.1 0 0 0-.01-.08.11.11 0 0 0-.05-.05l-.44-.22a.1.1 0 0 1-.03-.02.1.1 0 0 1-.02-.03.6.6 0 0 1 .02-.42.12.12 0 0 1 .08-.08c.15-.06.3-.06.45-.02 2.22.74 4.85 1.59 7.88 2.56.27.08.36.24.28.45l-.02.05c-.09.2-.24.28-.47.2l-6.7-2.18c-.05-.01-.08 0-.1.05Z" fill="#211C19"/><path d="m26.35 34.75-2.65-.86c-.11-.04-.15-.11-.12-.22.1-.39.2-.87.3-1.46.24-1.38.44-2.45.59-3.2.1-.5.23-.9.38-1.22.27-.58.73-.76 1.38-.55 1.12.39 2.4 1.13 3.77.91a.06.06 0 0 1 .05.02.05.05 0 0 1 0 .06L26.5 34.7a.13.13 0 0 1-.06.06.14.14 0 0 1-.1 0Z" fill="#211C19"/><path d="M26.51 35.28a.1.1 0 0 0 .07 0 9.69 9.69 0 0 0 .4-.6c1.14-2.08 2.3-4.14 3.48-6.2.04-.07.1-.27.12-.3.03-.04.06-.04.07 0 .03.07.03.13 0 .19l-3.5 7.48c-.07.15-.18.2-.34.1a63.65 63.65 0 0 0-3.07-1.55.98.98 0 0 1-.33-.23c-.04-.05-.03-.07.03-.04l3.07 1.15ZM32.49 13.89l.3 1.33c.04.19.15.37.21.5.02.04.02.07-.01.1-.08.07-.2.1-.37.1a.17.17 0 0 1-.1-.04.16.16 0 0 1-.06-.1l-.13-.6a.09.09 0 0 0-.03-.04.1.1 0 0 0-.05-.03l-.76-.08c-.04 0-.07 0-.1.03-.3.26-.62.54-.98.6-.03.02-.07.01-.1-.01-.29-.17-.57-.28-.85-.53a579.21 579.21 0 0 1-.77-.67h-.05a.07.07 0 0 0-.03.03l-.01.04v.45c0 .12-.06.19-.2.19h-.16c-.11 0-.16-.06-.15-.16l.16-1.33c0-.05-.02-.08-.07-.08-.16-.02-.3-.07-.44-.14a.2.2 0 0 0-.13-.01l-.83.15a.07.07 0 0 0-.04.03.06.06 0 0 0-.01.04v1.1l.01.07.05.05a.14.14 0 0 0 .13 0l.48-.27c.1-.06.17-.03.18.1l.01.06c.02.08-.01.14-.09.17-.43.22-1.22.65-1.22-.14a16.73 16.73 0 0 1 .04-1.13.1.1 0 0 0-.11-.05 1.9 1.9 0 0 1-.7.02c-.15-.01-.21-.1-.2-.23l.01-.07c.02-.12.08-.16.2-.12.27.09.57.06.9-.08a.2.2 0 0 1 .12 0c.18.03.33.07.53.05.31-.04.62-.04.93 0 .13.02.26-.02.37-.13a.11.11 0 0 1 .1-.04l.21.05c.46.13 1.94-.1 1.54.83-.1.26-.56.41-.84.48a.04.04 0 0 0-.02.02v.04c0 .02 0 .04.02.05l.05.05.9.65c.06.05.13.05.2 0l.38-.25a.05.05 0 0 0 .02-.05v-.02l-.03-.02c-.14-.06-.22-.15-.25-.25-.04-.16 0-.25.1-.28.05-.02.09-.01.13.01l.36.2a.18.18 0 0 0 .2-.02l.5-.41c.04-.03.04-.06.02-.1l-.15-.21a.1.1 0 0 1-.01-.13c.04-.07.11-.1.22-.05l.27.15h.06l.03-.03-.01-.05c-.14-.2-.2-.36-.18-.5.02-.13.1-.19.25-.18.04 0 .07.02.08.06l.23.61c0 .03 0 .06-.02.09a.26.26 0 0 1-.19.06c-.04 0-.06.02-.05.07Zm-3.77-.34-.02.33a.13.13 0 0 0 .03.1.14.14 0 0 0 .1.04l.26.02c.16 0 .32-.01.44-.06.12-.04.2-.11.2-.18v-.05a.16.16 0 0 0-.04-.1.41.41 0 0 0-.13-.1 1.33 1.33 0 0 0-.43-.1l-.26-.03a.14.14 0 0 0-.14.08l-.01.05Zm3.52 1.11-.05-.19a.06.06 0 0 0-.02-.03h-.07a.51.51 0 0 0-.2.1c-.04.03-.06.07-.05.11v.02c0 .02.02.04.04.05a.2.2 0 0 0 .07.03h.1c.04 0 .08 0 .12-.02h.02c.02 0 .03-.01.04-.03v-.04ZM22.39 14.98v.04l.02.04a.09.09 0 0 0 .1.01l1.06-.5a.17.17 0 0 1 .15 0l.05.06.03.08v.04a.3.3 0 0 1-.06.18c-.04.05-.1.1-.16.11l-1.13.39c-.04.01-.06.04-.06.09 0 .14.06.28.24.29.53.02 1.07-.36 1.51-.74.06-.05.14-.05.24 0 .01 0 .02 0 .03.02.02.09.03.14 0 .16-.5.5-1.05.83-1.66.98-.55.13-.87-.19-.87-.7 0-.19.07-.43.22-.75.22-.48.57-.8 1.06-.97.26-.08.44-.04.57.13a.14.14 0 0 1-.04.2.16.16 0 0 1-.07.04c-.59.05-1.04.22-1.23.8ZM25.83 14.74v.01l-.01.02h-.01l-.95.18a.2.2 0 0 1-.14-.02.17.17 0 0 1-.05-.05.15.15 0 0 1-.03-.06l-.01-.06c0-.04 0-.09.03-.13a.2.2 0 0 1 .12-.07l.95-.18a.03.03 0 0 1 .03.02l.07.34ZM20.24 15.82l.1.17c.06.09.12.1.2.05l.84-.56a.13.13 0 0 1 .18.03l.02.06v.08c0 .06-.02.1-.04.15a.3.3 0 0 1-.12.11l-.67.38a.12.12 0 0 0-.06.12c0 .02 0 .03.02.05l.33.46c.09.13.06.21-.09.27l-.08.02c-.15.06-.26.02-.34-.11l-.6-1.02a.2.2 0 0 0-.1-.08.21.21 0 0 0-.1-.02c-.11.01-.22 0-.32-.03-.06 0-.07-.04-.05-.08.14-.24.3-.4.49-.48l.45-.2.77-.48c.13-.08.2-.05.24.09l.02.07a.22.22 0 0 1-.11.24l-.92.51c-.09.05-.1.12-.06.2ZM34.94 15.4c-.01 0-.03 0-.04.02a.07.07 0 0 0-.01.07 16.42 16.42 0 0 0 .9.69c.52.36.1.83-.36.9-.57.07-1.51-.17-1.78-.73a.23.23 0 0 1 .02-.23l.02-.05c.08-.13.16-.13.25-.01.28.39.69.62 1.23.7.1.01.2-.03.27-.1a.16.16 0 0 0 .06-.12l-.02-.07a14.78 14.78 0 0 0-.8-.52.95.95 0 0 1-.22-.18c-.22-.25-.11-.64.22-.7.5-.09 1.86.02 1.7.82 0 .03-.01.05-.03.07a.15.15 0 0 1-.21.01 4.25 4.25 0 0 1-.28-.29.91.91 0 0 0-.92-.28ZM37.38 17.93l-.35.1c-.89.24-1.73-.3-.78-1.12l.77-.66c.14-.12.23-.13.38-.07.04.02.07.01.1-.02.21-.27.47-.2.67.04.14.17.3.31.5.44a.1.1 0 0 1 .03.05.1.1 0 0 1 0 .06.3.3 0 0 0 .14.34c.03.02.06.06.07.1.15.63-.6.46-.86.73a1.8 1.8 0 0 0-.5.9c-.04.16.03.26.18.3l.19.05c.15.04.21-.01.2-.16-.05-.36.02-.53.2-.5a.1.1 0 0 1 .09.06c.1.23.19.38.29.46.03.02.06.03.1.03l.66-.05c.04 0 .06-.02.06-.06l.04-.29c.01-.14.07-.15.17-.06.24.23.36.5.2.82-.24.46-.45.94-.63 1.44-.05.13-.14.17-.27.11l-.06-.02c-.16-.07-.2-.2-.12-.35l.2-.41a.11.11 0 0 0-.01-.13l-.46-.53a.14.14 0 0 0-.12-.05c-.44.02-.88.07-1.22-.06a.12.12 0 0 1-.08-.1l-.12-.6c-.01-.04 0-.08.02-.12l.38-.6c.02-.04 0-.06-.06-.07Zm.85-.82a.8.8 0 0 0 .25-.02c.12-.03.12-.07.01-.11a1 1 0 0 1-.53-.45.27.27 0 0 0-.3-.13.27.27 0 0 0-.12.05l-1.08.88c-.18.24-.15.37.08.4.5.06 1.1-.22 1.47-.54a.3.3 0 0 1 .22-.08Zm.86 2.5c.02.02.05.04.09.05a.1.1 0 0 0 .1-.02c.14-.12.18-.21.13-.27-.04-.07-.15-.05-.3.04a.1.1 0 0 0-.05.1l.03.1ZM18.4 18.42a.5.5 0 0 1-.59-.17.1.1 0 0 1 .03-.16.12.12 0 0 1 .06-.01c.19 0 .34-.08.46-.23a.16.16 0 0 0 .04-.12l-.08-.59c0-.07-.05-.1-.13-.1a.55.55 0 0 1-.34-.04c-.05-.02-.05-.05 0-.1l.34-.27a.18.18 0 0 1 .1-.04c.15-.02.3.01.45.07.38.17.76.32 1.15.48.12.05.36.04.45.1.04.02.05.05.04.09a.57.57 0 0 1-.26.4.1.1 0 0 1-.09 0l-.5-.29c-.04-.02-.08-.02-.12.02l-.54.5a.17.17 0 0 0-.04.12c0 .04 0 .23.03.6.02.22-.02.42-.1.6a.12.12 0 0 1-.09.07c-.25.06-.42 0-.5-.15-.07-.11-.1-.1-.12.02a2.5 2.5 0 0 1-.73 1.43c-.41.41-.85.19-1.08-.26-.23-.48-.36-1.23-.08-1.72.14-.25.26-.43.57-.45.1 0 .15.02.18.06.03.04.05.09.05.13 0 .04 0 .08-.04.1-.71.45-.8 1.01-.24 1.7.13.16.29.16.46 0 .38-.37.6-.83.64-1.37 0-.04.03-.07.07-.07.14 0 .23.07.27.22.02.08.08.1.17.06a.17.17 0 0 0 .08-.08c.07-.13.11-.3.12-.49 0-.06-.03-.08-.1-.06Zm.24-1.19.02.25c0 .01 0 .02.02.03h.05c.08 0 .16-.03.22-.06.05-.04.08-.08.07-.12v-.01a.1.1 0 0 0-.03-.06.2.2 0 0 0-.07-.05.4.4 0 0 0-.1-.02H18.68a.04.04 0 0 0-.04.02v.02ZM16 36.89l-1-1.6.35-.24 1.96.22-.64-1.04.35-.23.98 1.58-.34.21-1.98-.22.67 1.09-.36.23Zm1.57 1.03-.6-.64-.48.22-.36-.38 2.3-1.07.4.42-1.14 2.32-.37-.4.25-.47Zm.2-.39.47-.89-.9.44.43.45Zm1.65-.39.4.31-1.2 1.59.94.74-.27.35-1.32-1.05 1.45-1.94Zm1.1 3.87c-.3-.18-.48-.4-.54-.65-.1-.33-.04-.68.18-1.06.21-.39.48-.62.8-.69.25-.07.52-.02.81.16.3.17.48.39.54.65.1.31.04.67-.18 1.05-.21.38-.48.61-.8.69-.25.07-.52.02-.82-.15Zm.72-.33a.99.99 0 0 0 .46-.46c.13-.24.19-.45.16-.64a.58.58 0 0 0-.3-.44.56.56 0 0 0-.51-.05.97.97 0 0 0-.47.46c-.13.24-.18.46-.15.65.02.18.12.33.3.43.16.1.34.12.5.05Zm1.49.79-.18.46-.46-.19.18-.46.46.19Zm-.18-.88.17-.46.46.19-.18.46-.45-.19Zm2.04 2.05c-.3-.07-.47-.22-.54-.46a1.9 1.9 0 0 1 .03-.93c.08-.39.21-.67.38-.86.16-.18.39-.23.68-.16.29.07.47.22.54.46.07.24.06.55-.03.93-.1.39-.22.67-.38.85-.16.18-.4.24-.68.17Zm.4-.53c.07-.13.13-.33.2-.6.06-.28.09-.5.08-.64-.01-.14-.09-.23-.22-.26-.13-.04-.24.01-.3.14-.08.12-.15.32-.22.6-.06.27-.08.49-.07.64 0 .15.08.24.21.28.14.03.24-.02.31-.16Zm.9.58a.72.72 0 0 1-.13-.54.74.74 0 0 1 .13-.35c.07-.1.17-.17.29-.21a.56.56 0 0 1-.2-.28.71.71 0 0 1-.01-.26.6.6 0 0 1 .24-.42c.14-.1.33-.14.56-.11.23.02.4.1.51.25.12.13.16.29.14.46 0 .08-.03.16-.08.25a.47.47 0 0 1-.24.2c.1.08.18.18.23.3.04.11.06.24.04.37a.69.69 0 0 1-.28.49.83.83 0 0 1-.63.13c-.26-.03-.44-.12-.56-.28Zm.35-.51a.4.4 0 0 0 .05.28c.05.08.13.12.24.13.1.01.19 0 .25-.07.07-.05.11-.14.13-.26 0-.12-.01-.22-.06-.29a.33.33 0 0 0-.24-.12.32.32 0 0 0-.25.06c-.07.06-.11.15-.12.27Zm.21-.8c.04.06.11.1.2.11.1.01.17 0 .23-.06a.3.3 0 0 0 .1-.2c.01-.1 0-.17-.05-.23a.29.29 0 0 0-.2-.1.29.29 0 0 0-.23.05.3.3 0 0 0-.1.2.3.3 0 0 0 .05.23Zm2.87 0c.2-.02.38.04.53.17.14.13.22.31.24.54a.96.96 0 0 1-.15.6c-.12.18-.32.29-.59.3a.7.7 0 0 1-.68-.32c-.12-.19-.2-.44-.22-.75a3.51 3.51 0 0 1 0-.45c0-.2.04-.38.11-.52a.81.81 0 0 1 .24-.3.7.7 0 0 1 .38-.14c.22-.01.4.03.53.14.14.1.22.24.25.43l-.45.04a.24.24 0 0 0-.06-.12.25.25 0 0 0-.23-.1c-.15.01-.25.1-.3.28-.03.1-.04.24-.04.43a.52.52 0 0 1 .19-.17.65.65 0 0 1 .25-.07Zm-.27.47c-.09.07-.12.2-.11.35 0 .13.05.23.12.31.08.08.16.11.27.1.1 0 .18-.05.23-.13a.5.5 0 0 0 .07-.32c-.02-.14-.06-.24-.13-.31a.32.32 0 0 0-.25-.1.32.32 0 0 0-.2.1Zm2-1.13a.28.28 0 0 0-.25-.04c-.13.03-.21.1-.24.22a.82.82 0 0 0 .01.3l-.43.1c-.04-.2-.04-.37 0-.5.06-.27.25-.43.55-.5a.8.8 0 0 1 .63.07c.17.1.28.26.33.49.04.17.02.34-.05.5-.04.1-.13.23-.25.37l-.15.18-.2.23a.55.55 0 0 0-.07.15l1-.24.09.41-1.56.37a1.15 1.15 0 0 1 0-.49c.03-.17.14-.37.34-.6.17-.2.28-.34.33-.42a.5.5 0 0 0 .06-.37.38.38 0 0 0-.13-.23Zm1.62.26a.44.44 0 0 0-.13.07.3.3 0 0 0-.1.2l-.4.12-.27-1.3 1.21-.45.13.38-.9.33.1.52c.04-.07.09-.11.12-.14a.7.7 0 0 1 .21-.12.71.71 0 0 1 .55.01c.18.08.3.24.4.48.06.2.06.42-.01.63-.07.21-.24.36-.5.46a.8.8 0 0 1-.58.02.7.7 0 0 1-.4-.41l.44-.16c.05.09.1.15.17.19.07.03.15.03.24 0a.3.3 0 0 0 .2-.2c.04-.1.03-.21 0-.33a.54.54 0 0 0-.19-.27c-.08-.06-.17-.07-.29-.03Zm1.65-.71a.44.44 0 0 0-.12.08.3.3 0 0 0-.08.21l-.38.17-.43-1.26 1.16-.6.17.37-.86.43.16.51.1-.16a.7.7 0 0 1 .2-.14c.18-.1.36-.1.55-.05.18.05.33.2.44.42.1.2.12.4.07.63-.05.22-.2.39-.44.52a.8.8 0 0 1-.57.08.7.7 0 0 1-.44-.36l.4-.2c.07.08.13.13.2.16s.15.02.24-.03c.1-.05.17-.13.18-.23.02-.1 0-.2-.05-.32a.53.53 0 0 0-.21-.24c-.09-.05-.18-.05-.29 0Zm1.3-1.64c-.08-.02-.16 0-.24.06-.12.08-.16.18-.14.3a.8.8 0 0 0 .12.27l-.36.27a1.18 1.18 0 0 1-.2-.47c-.03-.27.08-.5.33-.68.2-.15.4-.21.6-.19.2.03.37.14.5.32.1.15.15.3.14.48 0 .12-.03.27-.1.45l-.07.22-.09.29a.56.56 0 0 0 0 .17l.82-.61.24.34-1.3.96c-.1-.15-.16-.3-.18-.45-.04-.17-.01-.4.08-.7.09-.25.14-.42.15-.51a.5.5 0 0 0-.08-.37.37.37 0 0 0-.21-.15Zm1.39-1.14c-.08-.01-.17.01-.24.08-.11.1-.15.2-.12.31a.8.8 0 0 0 .15.26l-.34.3c-.12-.16-.2-.31-.23-.45-.06-.26.03-.5.27-.7a.82.82 0 0 1 .58-.24c.2 0 .37.1.52.28.11.13.17.29.18.46 0 .12-.01.27-.06.46l-.05.22-.07.3v.17l.78-.68.26.31-1.21 1.07c-.11-.13-.18-.28-.22-.43-.05-.16-.04-.4.03-.7.06-.26.1-.43.1-.52a.5.5 0 0 0-.1-.36.37.37 0 0 0-.23-.14Zm1.3-.89c.14-.16.3-.24.5-.25.2-.01.37.06.54.2.16.15.27.33.3.55.05.21-.02.42-.2.64a.69.69 0 0 1-.71.25 1.5 1.5 0 0 1-.67-.37 3.36 3.36 0 0 1-.31-.32c-.13-.15-.23-.3-.27-.45a.84.84 0 0 1-.04-.39.73.73 0 0 1 .18-.37c.14-.17.3-.26.47-.29.16-.02.32.02.47.13l-.3.36a.23.23 0 0 0-.12-.05c-.09-.01-.16.02-.23.1-.1.11-.1.25-.02.41.05.1.14.2.26.34a.55.55 0 0 1 .02-.26.69.69 0 0 1 .14-.23Zm.13.54c0 .11.05.22.17.33.1.08.2.13.3.13.1 0 .2-.04.26-.12a.3.3 0 0 0 .07-.27.5.5 0 0 0-.17-.27c-.1-.09-.2-.13-.3-.13-.1 0-.18.04-.24.12a.34.34 0 0 0-.09.2Zm.7-2.26c-.09.01-.16.06-.22.15-.07.12-.08.23-.02.33.03.06.1.13.21.2l-.24.4a1.14 1.14 0 0 1-.35-.37c-.13-.24-.1-.49.07-.76.13-.21.3-.34.49-.4a.7.7 0 0 1 .58.12c.14.1.24.23.3.4.04.1.06.26.07.45v.23l.03.3c0 .06.02.12.04.17l.56-.88.34.23-.87 1.38a1.1 1.1 0 0 1-.33-.35c-.1-.15-.15-.37-.16-.68a3.7 3.7 0 0 0-.05-.54.5.5 0 0 0-.2-.31.36.36 0 0 0-.26-.07Z" fill="#211C19"/></svg>