<!-- by TradingView --><svg width="56" height="56" viewBox="0 0 56 56" xmlns="http://www.w3.org/2000/svg"><path fill="#F0F3FA" d="M0 0h56v56H0z"/><path d="m17.83 37.24-1.6 1.6h-.03l-2.48-3.56v-.04l1.75-1.22c.02-.02.03-.04.01-.07-.45-.86-.81-1.79-1.08-2.78 0-.04-.03-.05-.06-.05l-2 .14c-.03 0-.04-.01-.04-.04l-.3-4.2c0-.04.02-.06.06-.06l1.86.07c.04 0 .06-.02.06-.05.07-1.05.25-2.07.55-3.07 0-.02 0-.04-.02-.05l-1.76-.84c-.03-.01-.03-.03-.02-.06l1.96-3.88h.03l1.5 1.18c.02.02.04.01.05 0a11.92 11.92 0 0 1 1.87-2.22c.02-.02.02-.04 0-.06l-1.23-1.55c-.02-.02-.01-.04 0-.06l3.66-2.63c.03-.01.04 0 .05.02l.76 1.92c.01.03.04.04.07.02.89-.45 1.82-.8 2.8-1.05.03 0 .04-.02.03-.05l-.31-2.14c0-.01 0-.02.02-.03L26.9 12c.03 0 .05 0 .05.04l.05 4.82c0 .04-.02.06-.06.07a11.07 11.07 0 0 0-9.8 13.45 11.3 11.3 0 0 0 4 6.43 11.02 11.02 0 0 0 7.57 2.38c.03 0 .04 0 .04.03-.05.94-.07 1.64-.06 2.08l.07 2.66c0 .03-.01.04-.04.04l-2.38-.07c-.03 0-.04-.01-.04-.04l-.03-2.63c0-.02-.01-.04-.04-.04a14.2 14.2 0 0 1-2.76-.55l-.66 2.47c0 .02-.01.02-.03.01L18.9 41.2c-.01-.01-.02-.02-.01-.04l1.1-2.17-.01-.03a13.31 13.31 0 0 1-2.1-1.71h-.05Z" fill="#26225B"/><path d="M38.97 28.94c.04.19.07.19.08 0a11.39 11.39 0 0 0-1.69-6.9 11.02 11.02 0 0 0-4.2-3.88 11.06 11.06 0 0 0-5.58-1.28c-.04 0-.05-.02-.06-.05-.12-.62.05-1.14.5-1.54.02-.01.02-.03 0-.04-.2-.21-.35-.4-.43-.56a.88.88 0 0 1-.1-.62c.02-.13.1-.24.23-.36.1-.09.23-.16.37-.22.03-.01.04-.04.01-.07a1.77 1.77 0 0 1-.45-.79c-.08-.36.07-.56.46-.61h.47c2.06-.03 4.08.42 6.05 1.35a16.52 16.52 0 0 1 7.8 7.65c0 .03.02.03.03 0 .03-.17.03-.36 0-.58a15.93 15.93 0 0 1-.05-.72h.05l.43 2.19c.07.3.16.64.28 1a16.1 16.1 0 0 1-11.16 20.65 1.55 1.55 0 0 1-1.76-.48c-.2-.24-.36-.59-.48-1.03a.17.17 0 0 0-.16-.14 4.2 4.2 0 0 1-.68-.12c-.1-.03-.1-.05 0-.05.18-.02.35-.05.52-.1.08-.02.13-.05.16-.09.03-.04.04-.1.03-.18-.15-1.05.06-1.82.63-2.31.15-.14.44-.26.89-.38.2-.05.34-.1.43-.13a11.17 11.17 0 0 0 6.53-6.02c.17-.39.28-.91.32-1.57.09-1.56-.08-3.17-.51-4.83-.03-.12-.02-.12.03-.01.5 1 .83 1.94 1.01 2.82Z" fill="#007E40"/><path d="m30.14 13.3-.04.09c-.07.1-.17.15-.3.14a1.4 1.4 0 0 1-.72-.32 1.98 1.98 0 0 1-.5-.58v-.04c0-.01 0-.02.02-.02.25-.05.5-.05.77 0 .3.06.53.17.71.33.1.1.13.2.1.33l-.04.08ZM32.62 13.91a4 4 0 0 1-.04.1c-.09.14-.21.2-.38.2-.31-.03-.62-.15-.92-.38-.28-.2-.5-.44-.67-.72v-.04c0-.02.01-.03.03-.03.31-.08.64-.09.98-.03.37.06.68.2.91.4.13.1.17.24.13.4l-.04.1ZM34.7 14.97l-.08.08c-.11.1-.25.11-.4.05-.25-.12-.48-.32-.68-.62-.18-.26-.3-.54-.37-.84l.02-.04c.01-.01.02-.02.03-.01.3.03.6.12.88.28.3.17.53.38.67.63.08.14.08.27 0 .4l-.08.07ZM30.46 14.67a2.3 2.3 0 0 1-.02.11c-.06.17-.18.26-.36.28-.33.04-.68-.02-1.05-.2a2.68 2.68 0 0 1-.86-.62v-.04c0-.02 0-.03.02-.04a2.7 2.7 0 0 1 1.03-.24c.4-.01.76.06 1.04.23.16.1.24.22.23.4l-.03.12ZM32.8 15.28a3.3 3.3 0 0 1-.04.12c-.07.16-.2.23-.4.23-.33 0-.67-.1-1.02-.33-.32-.2-.58-.44-.79-.73v-.05c0-.02.02-.03.03-.03.34-.11.7-.15 1.07-.11.4.03.75.15 1.02.36.15.11.2.25.17.43l-.04.11ZM35.22 14.47h.04c.36.08.7.23 1 .46a2 2 0 0 1 .72.85c.07.18.04.34-.08.48a3.97 3.97 0 0 1-.19.16c-.15.1-.3.1-.47 0-.3-.18-.54-.46-.74-.84-.17-.34-.27-.7-.3-1.06 0-.02 0-.03.02-.05ZM30.28 15.88c.47-.24.98-.32 1.54-.24.14.02.27.06.36.14.12.09.17.2.15.34l-.02.15c-.02.15-.12.25-.3.3-.13.05-.27.07-.44.06-.53-.04-1-.22-1.42-.54a.06.06 0 0 0-.07 0c-.15.09-.35.13-.6.12a2.2 2.2 0 0 1-1.26-.43c-.03-.03-.03-.06 0-.08.45-.37.96-.53 1.53-.5.14 0 .26.05.37.12.11.09.16.2.14.33l-.02.2c0 .03.01.04.04.03ZM34.99 16.55l-.04.09c-.04.1-.12.16-.25.19a.65.65 0 0 1-.34-.01c-.3-.09-.59-.28-.86-.57a2.57 2.57 0 0 1-.57-.9v-.04l.04-.03c.34-.05.7-.02 1.06.09.39.1.69.28.9.5.08.09.14.19.16.3.04.13.02.23-.05.31a.74.74 0 0 0-.05.07ZM38.49 17.86l-.1.06c-.16.07-.31.04-.45-.08a1.88 1.88 0 0 1-.54-.89c-.1-.34-.14-.69-.11-1.03 0-.01 0-.03.03-.04h.04c.31.14.6.33.85.6.28.28.45.58.52.9.04.17-.01.32-.14.42l-.1.06ZM37.08 17.91l-.03.03a.16.16 0 0 0-.04.05c-.09.16-.23.23-.42.22a.9.9 0 0 1-.48-.18 2.6 2.6 0 0 1-1.01-1.45c-.01-.06 0-.09.06-.1.15 0 .34 0 .55.05.22.05.43.12.63.22.5.23.77.51.82.83a.4.4 0 0 1-.08.33ZM34.44 17.44l-.04.11c-.08.15-.2.22-.38.22-.31 0-.63-.11-.96-.32-.3-.19-.54-.42-.73-.69v-.04c0-.02.02-.03.03-.04.32-.1.65-.12 1-.09.38.04.7.15.95.34.14.1.2.24.16.4l-.03.11ZM40.02 19.71l-.1.05c-.17.04-.31 0-.43-.14a1.88 1.88 0 0 1-.42-.95c-.06-.36-.06-.7.02-1.03 0-.02.01-.03.03-.04h.04c.3.18.55.41.76.7.24.32.38.64.4.96.02.18-.05.32-.2.4l-.1.05ZM36.2 18.85l-.07.1c-.1.13-.23.18-.4.14-.3-.06-.6-.22-.89-.48-.25-.24-.45-.5-.58-.81v-.04c.01-.02.02-.03.04-.03.32-.04.66 0 .99.09.37.1.66.27.87.5.12.13.15.28.09.43l-.06.1Z" fill="#F6EB08"/><path d="M37.08 17.91c.2.01.48.1.8.24.27.13.5.3.71.51.26.27.36.53.31.78-.01.07-.07.15-.15.22a.82.82 0 0 0-.1.1c-.06.07-.15.1-.26.1-.1 0-.2-.01-.28-.05a1.89 1.89 0 0 1-.75-.82c-.23-.41-.32-.77-.28-1.08ZM37.81 20.38l-.06.1c-.1.12-.24.16-.41.12-.3-.07-.6-.25-.86-.53a2.57 2.57 0 0 1-.56-.84l.01-.04c.01-.02.02-.02.04-.02.33-.03.66.02.99.13.37.13.65.31.85.55.11.14.13.28.06.43l-.06.1Z" fill="#F6EB08"/><path d="M30.03 19.95c-.02 0-.03 0-.03.02v3.95c0 .06.04.08.1.08h.85c.03 0 .05.02.05.05v.91c0 .03-.02.04-.04.04h-5.9c-.03 0-.06-.01-.06-.04v-.92c0-.03.03-.04.05-.04h.85c.03 0 .1-.01.1-.04v-3.95c0-.03-.07-.04-.1-.05-.87-.08-1.53.22-1.98.9-.16.26-.3.51-.4.78a.07.07 0 0 1-.07.05l-1.42.01c-.02 0-.03-.01-.03-.03l.05-2.63c0-.03.02-.04.04-.04h11.84c.02 0 .04.01.04.04l.03 2.61c0 .02 0 .02-.02.02h-1.4c-.07 0-.13-.03-.15-.1a2.47 2.47 0 0 0-.94-1.27 2.6 2.6 0 0 0-1.46-.35Z" fill="#D0232A"/><path d="M40.72 19.47h.05c.25.2.47.47.64.8.18.33.26.65.24.95 0 .1-.03.2-.1.3-.06.11-.14.17-.24.18h-.09a.76.76 0 0 0-.08.03c-.09.04-.19.02-.3-.05a.63.63 0 0 1-.21-.23c-.14-.27-.2-.6-.18-.97.01-.37.1-.7.24-1l.03-.01ZM38.83 19.77h.04c.33.1.64.28.92.53.3.26.5.55.6.85.03.1.04.22.02.33-.03.13-.09.22-.19.26a.7.7 0 0 0-.08.04.69.69 0 0 0-.07.06c-.07.07-.18.1-.3.06a.65.65 0 0 1-.3-.15c-.24-.21-.42-.5-.54-.89a2.57 2.57 0 0 1-.13-1.05c0-.02.01-.03.03-.04ZM39.07 22.29l-.08.08c-.12.11-.27.13-.43.06a1.83 1.83 0 0 1-.77-.65c-.2-.29-.34-.6-.42-.92l.01-.04.04-.02c.33.03.66.13.97.29.34.18.6.4.75.67.1.16.1.3 0 .44l-.07.09Z" fill="#F6EB08"/><path d="M42 30.29c.16-.28.3-.5.41-.64.17-.2.35-.36.57-.48.04-.03.06-.02.08.02.15.43.17.87.05 1.33-.05.18-.12.34-.21.46a.6.6 0 0 1-.42.25c-.04 0-.1-.01-.15-.04a.36.36 0 0 0-.1-.04c-.1-.02-.2-.08-.27-.2-.01-.03-.03-.03-.04 0-.06.22-.15.39-.27.5a.54.54 0 0 1-.52.16 1.9 1.9 0 0 0-.09-.02.64.64 0 0 1-.25-.08c-.25-.2-.3-.54-.13-1.03.15-.48.4-.9.75-1.24l.19-.15c.05-.03.05-.04-.01-.04-.22.02-.37-.06-.47-.23a1 1 0 0 1-.11-.54c.02-.6.2-1.13.54-1.6.01-.03 0-.04-.02-.04-.19.02-.34-.06-.45-.23-.1-.12-.16-.29-.2-.5a3.03 3.03 0 0 1 .12-1.66c.01-.03 0-.04-.03-.04a.5.5 0 0 1-.44-.1.88.88 0 0 1-.27-.38 2.95 2.95 0 0 1-.09-1.9c.01-.06.04-.07.09-.04.52.3.89.75 1.12 1.33 0 .03.02.03.02 0 .04-.63.17-1.13.41-1.49.02-.03.04-.03.07 0 .45.46.7 1.03.7 1.68.01.28-.09.5-.3.64a.12.12 0 0 1-.07.02h-.15c-.14 0-.25 0-.3-.02-.1-.04-.18-.12-.22-.25-.03-.08-.05-.08-.06 0-.02.18-.1.31-.23.42-.02.02-.02.04 0 .05.37.33.63.71.78 1.14.02.05.03.05.04 0 .07-.45.22-.83.44-1.12.03-.04.06-.04.09 0 .41.5.58 1.07.5 1.7a.54.54 0 0 1-.31.44.1.1 0 0 1-.08 0 .45.45 0 0 0-.16 0c-.14.02-.26-.03-.36-.16-.02-.02-.03-.02-.04.01-.05.25-.18.39-.4.43-.03 0-.03.01-.01.04.27.37.43.79.48 1.26v.1c.02 0 .02 0 0 0l.09-.29c.12-.44.34-.82.66-1.12.02-.03.04-.02.06 0 .33.57.4 1.16.24 1.77a.63.63 0 0 1-.2.32c-.1.09-.22.12-.34.09l-.17-.03a.3.3 0 0 1-.18-.1.9.9 0 0 1-.12-.19c-.02-.05-.04-.05-.05.01-.06.35-.22.55-.47.6-.04 0-.05.02-.03.06.2.38.3.77.28 1.15 0 .03 0 .03.02 0Z" fill="#F6EB08"/><path d="M39.53 24.64c.32.19.6.44.84.75.28.36.4.7.39 1.03-.02.2-.15.33-.4.38a.42.42 0 0 1-.35-.05c-.25-.18-.44-.51-.55-1a2.1 2.1 0 0 1-.03-1.12c.01-.03 0-.05-.02-.06a1.8 1.8 0 0 1-.62-.9c-.14-.36-.2-.72-.18-1.06 0-.06.03-.07.07-.05.61.24 1.07.65 1.38 1.22.11.2.13.4.06.62 0 .02-.02.04-.04.05l-.3.17a.1.1 0 0 1-.07.02l-.17-.02c-.05 0-.05 0 0 .02Z" fill="#F6EB08"/><path d="M31.06 27.24c-.02 0-.06.01-.06.04v1.24c0 .03.01.04-.01.04h-5.94c-.02 0-.05-.01-.05-.04v-1.25c0-.03 0-.05-.03-.05H24.74v-.03L28 25.71h.07l3.3 1.49c.05.02.05.03 0 .03h-.3Zm-3.1.19a243.42 243.42 0 0 1 1.38.37c.14.03.23-.02.27-.14.04-.13 0-.23-.1-.31l-1.26-.97a.48.48 0 0 0-.31-.08.48.48 0 0 0-.3.1c-.4.33-.8.68-1.21 1.04-.1.09-.14.2-.09.31.05.13.14.17.27.12a246.38 246.38 0 0 1 1.36-.44Z" fill="#26225B"/><path d="M38.59 36.76c.2-.3.52-.54 1-.7.4-.12.8-.18 1.2-.15.05 0 .06.03.05.07a2.4 2.4 0 0 1-1.37 1.63.68.68 0 0 1-.4.05.47.47 0 0 1-.34-.22 1.71 1.71 0 0 0-.09-.12.7.7 0 0 1-.1-.2.45.45 0 0 1 .01-.25v-.01c-.13.34-.31.62-.55.85-.3.3-.6.39-.9.3-.03-.02-.04 0-.05.02a2.76 2.76 0 0 1-.97 1.4c-.03.02-.03.02 0 .02.37-.06.73-.06 1.08 0 .03 0 .04 0 .03-.02a.78.78 0 0 0-.12-.18.66.66 0 0 1-.1-.17.57.57 0 0 1 .05-.48c.08-.13.2-.25.36-.36.62-.4 1.3-.57 2.06-.5.04 0 .05.02.04.05-.1.4-.31.78-.62 1.14-.34.38-.7.6-1.06.66-.03 0-.04.02-.04.05 0 .04-.03.1-.08.17-.4.57-.94.93-1.62 1.06-.32.06-.59-.02-.79-.24a.13.13 0 0 1-.03-.07.8.8 0 0 0-.06-.22.44.44 0 0 1 0-.38.58.58 0 0 1 .26-.28c.04-.02.03-.03 0-.03a.6.6 0 0 1-.36-.11c-.02-.02-.04-.02-.05.01a2.65 2.65 0 0 1-1.15 1.2 3.03 3.03 0 0 1 1.78.15c.03.02.04.04.02.07-.23.38-.54.68-.94.91-.44.26-.85.34-1.24.25-.03 0-.05 0-.07.03-.46.6-1.04.95-1.72 1.04a.73.73 0 0 1-.65-.23.4.4 0 0 1-.08-.19.6.6 0 0 0-.03-.12.45.45 0 0 1-.01-.37.5.5 0 0 1 .24-.28c.03-.02.03-.03 0-.03-.27-.03-.44-.12-.51-.27a.88.88 0 0 0-.08-.13.49.49 0 0 1-.1-.23c-.02-.23.1-.44.37-.61.04-.02.04-.03 0-.03-.1.02-.2.02-.3-.01-.13-.04-.2-.1-.24-.17a.53.53 0 0 0-.12-.15c-.13-.12-.16-.29-.08-.5a.97.97 0 0 1 .32-.42 3.06 3.06 0 0 1 1.87-.65c.02 0 .04-.01.05-.03.18-.3.46-.53.84-.7.34-.17.7-.27 1.05-.28.03 0 .04-.02.05-.04.1-.3.31-.6.65-.86.33-.25.66-.4 1-.47.03 0 .04-.02.05-.04.23-.64.65-1.13 1.27-1.47a.07.07 0 0 0 .03-.05c.04-.35.19-.7.44-1.04.23-.3.5-.56.83-.76a.06.06 0 0 0 .03-.06c0-.76.27-1.42.8-1.97a.06.06 0 0 0 0-.06c-.08-.34-.07-.7.02-1.07.08-.36.23-.68.44-.97a.06.06 0 0 0 0-.07 2.31 2.31 0 0 1-.26-1.06c-.02-.44.05-.8.2-1.08.01-.03.03-.04.06-.02.5.42.82.95.96 1.6.04.17.04.32 0 .48-.05.19-.15.3-.31.32a3.6 3.6 0 0 1-.3.02c-.03 0-.04.02-.03.04.32.54.44 1.09.36 1.65a.66.66 0 0 1-.17.38c-.1.1-.23.15-.38.14a3.78 3.78 0 0 1-.28-.03c-.03 0-.04.01-.03.04.2.54.24 1.08.11 1.63-.03.17-.1.3-.2.41a.44.44 0 0 1-.43.14 2.16 2.16 0 0 1-.29-.08c-.03 0-.04 0-.04.03.1.57.02 1.1-.24 1.57-.16.32-.4.47-.69.45a.5.5 0 0 1-.15-.05.7.7 0 0 0-.17-.07c-.03 0-.04.01-.04.04.02.3-.04.62-.16.95-.01.03 0 .04.03.02.34-.24.7-.41 1.07-.5.02-.01.03-.02.02-.05-.12-.33 0-.7.38-1.13.3-.34.64-.6 1.02-.77.02-.01.02-.03 0-.05a.77.77 0 0 1-.08-.7 2.9 2.9 0 0 1 1.1-1.54.1.1 0 0 1 .1-.01.1.1 0 0 1 .08.07c.11.4.14.81.08 1.23-.07.5-.25.86-.54 1.08-.1.08-.24.09-.42.03-.02-.01-.03 0-.03.03.05.62-.08 1.18-.41 1.68-.12.19-.27.32-.45.4-.22.09-.4.06-.56-.1h-.03a.03.03 0 0 0-.03.03 2.1 2.1 0 0 1-.12.67Z" fill="#F6EB08"/><path d="m32.52 28.54 1.72-.94h.02l1.72.94c.02 0 .02.02.02.03 0 .02-.02.03-.03.03h-3.44l-.03-.03c0-.01 0-.03.02-.03ZM20.01 28.45l1.73-.95h.02l1.73.95v.03l-.01.02h-3.46s-.02 0-.02-.02l.01-.03ZM35.97 29H20.03c-.02 0-.03.01-.03.02v.96s.01.02.03.02h15.94c.02 0 .03-.01.03-.02v-.96s-.01-.02-.03-.02Z" fill="#26225B"/><path d="m28.98 36.2.01-.01-.32-.73c0-.02-.02-.03-.03-.03H26.4c-.02 0-.03.01-.03.03l-.34.72.01.02h.88c.02 0 .04.01.04.04v.74l-.02.02h-4.91c-.02 0-.03 0-.03-.03v-.75c0-.01 0-.02.02-.02h1.29c.02 0 .04-.01.05-.03l2.8-5.12c.01-.03.04-.05.07-.05h3.66c.03 0 .05.01.07.04a220.32 220.32 0 0 0 2.76 5.1c.02.04.06.06.1.06h1.16c.01 0 .02 0 .02.02v.74c0 .02 0 .02-.02.02h-6.04v-.76l.01-.02h1.03Zm-2.3-1.64c0 .02 0 .04.02.04l1.6-.02c.03 0 .04-.02.03-.04l-.82-1.59c-.01-.02-.03-.02-.04 0l-.79 1.6Z" fill="#D0232A"/><path d="M41.2 32.96c.07-.29.26-.58.58-.86.3-.28.6-.46.91-.54.03 0 .05 0 .05.03.09.71-.08 1.3-.5 1.8a.67.67 0 0 1-.5.22c-.06 0-.14-.03-.25-.1a1.13 1.13 0 0 0-.1-.06.35.35 0 0 1-.18-.2.5.5 0 0 1 0-.3ZM41.78 33.81c.02.01.02.03.02.06.03.67-.17 1.25-.61 1.74a.59.59 0 0 1-.57.2.34.34 0 0 1-.15-.1.84.84 0 0 0-.1-.07.34.34 0 0 1-.14-.12.6.6 0 0 1 .02-.6c.33-.57.82-.94 1.47-1.11h.06Z" fill="#F6EB08"/><path d="M35.51 38.14c.3-.38.47-.8.53-1.28 0-.03.01-.03.03-.01.19.17.4.26.63.26.03 0 .04.01.03.04-.1.2-.08.4.04.57.01.02 0 .03-.02.03a3.05 3.05 0 0 0-1.25.4l.01-.01ZM34.42 38.23l.13.1.17.12c.06.03.15.04.26.04.04 0 .04 0 .02.03a.66.66 0 0 0-.2.61c0 .03-.01.04-.04.04a5.09 5.09 0 0 0-1.04.12c.3-.3.53-.65.66-1.05.01-.02.03-.03.04-.01ZM31.4 40.47c.42-.31.71-.72.9-1.21a20.17 20.17 0 0 1 .2.23.5.5 0 0 0 .17.16c.05.03.13.05.22.06.03 0 .04.02.01.04a.77.77 0 0 0-.24.47c0 .02-.02.04-.05.04a3.62 3.62 0 0 0-1.22.21h.01ZM32.01 41.7a2.72 2.72 0 0 0 .93-.92c.15.08.27.12.35.12a1.1 1.1 0 0 0 .2-.01c-.4.17-.52.46-.34.87v.04h-.04c-.38-.08-.74-.1-1.09-.06-.06.01-.07 0 0-.04Z" fill="#007E40"/></svg>