<!-- by TradingView --><svg width="56" height="56" viewBox="0 0 56 56" xmlns="http://www.w3.org/2000/svg"><path fill="#F0F3FA" d="M0 0h56v56H0z"/><path d="M30.33 15 7 26l23.63-5.99L46 22.97 30.33 15ZM7 32v4l11.65-2.76L47 35.92V32H7Z" fill="#A25641"/><path fill-rule="evenodd" d="M26.5 24h-2.9v.27h.4v2.46h-.37V27h2.51v.34l.68-.65-.05.11c.16.07.64.2 1.3.2.82 0 1.27-.47 1.27-.8 0-.34-.4-.66-.88-.83-.48-.18-.79-.32-.79-.54 0-.23.23-.46.7-.46.39 0 .6.2.66.3v-.59c-1.2-.28-1.89.22-1.89.75 0 .48.31.62.84.87.05.01.1.04.14.06.61.28.72.37.72.5v.01c0 .13 0 .4-.77.4-.65 0-.99-.22-1.07-.33l-.17.35H24.4v-1.21h1.66l-.56-.42v.21h-1.1v-1h2.1V24Zm-4.38 0H20v.16l.33.16v2.38l-.33.16V27h1.11v-.14l-.35-.16v-1.04l.21-.03L22.82 27h.64v-.2l-1.83-1.29c.7-.15 1.4-.41 1.4-.8 0-.55-.6-.7-.91-.71Zm-1.25 1.45v-1.26h.83c.28 0 .73.16.73.55 0 .31-1.04.6-1.56.7Zm13.16-1.04-.51.44c-.05-.17-.4-.51-1.47-.51-1.34 0-1.84.56-1.84 1.13 0 .56.85 1.15 2.14 1.15 1.03 0 1.54-.35 1.66-.52l.49.17a3.5 3.5 0 0 1-2.31.73c-1.49 0-2.69-.67-2.69-1.5s1.2-1.5 2.69-1.5c.71 0 1.36.15 1.84.4ZM40 25.5c0 .83-1.23 1.5-2.75 1.5s-2.75-.67-2.75-1.5 1.23-1.5 2.75-1.5 2.75.67 2.75 1.5Zm-.65 0c0 .63-.94 1.14-2.1 1.14-1.16 0-2.1-.5-2.1-1.14 0-.63.94-1.14 2.1-1.14 1.16 0 2.1.5 2.1 1.14Z" fill="#00AEEF"/><path fill-rule="evenodd" d="M9.2 28H7v.56h1.35V31h.85v-2.44h1.35V28H9.2Zm4.8 3v-3h.86l2.3 2.02V28H18v3h-.84l-2.37-2v2H14Zm11.26 0v-3h.77l1.98 2.02V28h.75v3h-.75L26 29v2h-.74ZM11.4 28l-1.37 3h.7l.37-.8h1.33l.4.8h.78l-1.49-3h-.72Zm.78 1.7h-.86l.41-.9.45.9ZM20 28h2.64c.45 0 .88.36.88.8a.8.8 0 0 1-.32.64.81.81 0 0 1-.38 1.54H20V28Zm.7.6h1.73c.17 0 .32.15.32.32 0 .18-.15.32-.32.32h-1.74v-.64Zm0 1.09h1.82c.2 0 .35.15.35.35v.05c0 .2-.16.35-.35.35h-1.83v-.75ZM24.83 28H24v3h.84v-3Zm4.27 0h.9v1.2h2.1V28H33v3h-.88v-1.2H30V31h-.9v-3ZM35 31v-3h2.65c.47 0 .85.4.85.88 0 .49-.38.88-.85.88h-.04L38.64 31h-.91l-.99-1.24h-1.03V31H35Zm2.54-2.46H35.7v.65h1.84c.17 0 .32-.14.32-.32a.32.32 0 0 0-.32-.33ZM39 31v-3h3.2v.53h-2.37v.71h1.54v.57h-1.54v.61h2.37V31H39Zm3.5-.39c.13.13.66.39 1.75.39 1.37 0 1.75-.48 1.75-1 0-.53-.64-.75-1.36-.75h-.09c-.69 0-1.37 0-1.37-.34 0-.36.89-.43 1.07-.43.19 0 .7 0 1.3.43l.28-.52c-.17-.13-.72-.39-1.58-.39-1.07 0-1.75.44-1.75 1 0 .57 1.1.82 1.75.79.66-.04.96.08.96.26s-.32.44-1 .44c-.55 0-1.14-.3-1.36-.44l-.35.56Z" fill="#ED1C24"/></svg>