<!-- by TradingView --><svg width="56" height="56" fill="none" xmlns="http://www.w3.org/2000/svg"><path fill="#F0F3FA" d="M0 0h56v56H0z"/><path fill-rule="evenodd" clip-rule="evenodd" d="M28 43c10.109 0 18-6.87 18-15 0-8.13-7.891-15-18-15s-18 6.87-18 15c0 8.13 7.891 15 18 15Zm0 1c10.493 0 19-7.163 19-16s-8.507-16-19-16S9 19.163 9 28s8.507 16 19 16Z" fill="#0093DD"/><path fill-rule="evenodd" clip-rule="evenodd" d="M25.143 14.16c-4.534.574-8.475 2.637-11.072 5.568.913.555 2.482 1.29 4.597 1.909 1.403-3.792 4.038-6.181 6.475-7.477Zm-11.437 5.996c-1.374 1.678-2.32 3.617-2.706 5.707 1.151-2.102 3.054-4.426 5.404-4.407-1.17-.454-2.08-.917-2.698-1.3Zm6.144 20.24c1.056.46 2.177.831 3.35 1.1-.435-.331-.883-.726-1.328-1.194a17.645 17.645 0 0 1-1.776-.52 28.29 28.29 0 0 1-.246.615Zm4.774 1.371c.934.143 1.895.223 2.876.233v-1.018a25.662 25.662 0 0 1-4.604-.458 9.469 9.469 0 0 0 1.728 1.243Zm2.876-1.341v-7.88c-1.955-.023-4.318-.294-5.815-.494.013.985-.038 1.85-.13 2.484-.162 1.13-.473 2.324-.812 3.397.452.723.933 1.342 1.419 1.867a24.83 24.83 0 0 0 5.338.626Zm0-8.435v-8.566c-3.314-.009-6.18-.484-8.48-1.111l-.078.242c1.905 1.891 2.618 5.86 2.729 8.933 1.475.2 3.866.478 5.829.502Zm0-9.122V14c-.236.002-.47.009-.703.02-2.619.979-5.955 3.388-7.592 7.768 2.245.609 5.048 1.073 8.295 1.081Zm-7.21 16.393c.077-.208.154-.426.23-.651.228.338.46.653.698.945a15.27 15.27 0 0 1-.927-.294Z" fill="#0093DD"/><path fill-rule="evenodd" clip-rule="evenodd" d="M33.001 23.273c.324 3.283 1.555 6.503 3.497 8.062-3.049.536-6.052.723-7.945.728l.001.556c2.036-.005 5.326-.218 8.598-.84.094.054.19.104.288.15a18.85 18.85 0 0 1-2.112 5.346 15.507 15.507 0 0 1-1.919 2.616c-1.98.349-3.754.479-4.909.489V23.413c1.264 0 2.839-.014 4.501-.14Zm-4.501-.416c1.262 0 2.819-.014 4.455-.138-.145-2.149.103-4.287.797-5.968-1.335-1.361-2.701-2.222-3.616-2.626l.017-.04A20.13 20.13 0 0 0 28.5 14v8.857Zm3.065-8.588a14.39 14.39 0 0 1 2.726 2.247c1.399.418 4.133 1.676 6.497 4.201.41-.243.79-.513 1.135-.813-2.425-2.86-6.1-4.925-10.358-5.635Zm10.707 6.063a8.14 8.14 0 0 1-1.11.807c1.861 2.243 2.82 5.73 2.067 8.211.654-.316 1.25-.665 1.767-1.05.003-.1.004-.2.004-.3 0-2.83-1.003-5.465-2.728-7.668Zm2.686 8.673c-.603.405-1.286.767-2.024 1.09-.602 1.206-1.722 2.055-3.484 2.198a3.905 3.905 0 0 1-1.493-.163 19.404 19.404 0 0 1-2.159 5.43 16.632 16.632 0 0 1-1.512 2.165c2.01-.41 4.149-1.047 6.023-2 2.644-2.293 4.362-5.34 4.649-8.72Zm-6.582 10.157a28.12 28.12 0 0 1-4.065 1.124c-.211.043-.42.083-.628.12-.176.187-.352.361-.527.524-.256.24-.51.455-.761.644a18.184 18.184 0 0 0 5.98-2.412Zm-7.524 2.675c.53-.2 1.185-.625 1.887-1.273-1.701.261-3.206.363-4.239.372V42a20.017 20.017 0 0 0 2.352-.163Z" fill="#DA251D"/></svg>