<!-- by TradingView --><svg xmlns="http://www.w3.org/2000/svg" width="56" height="56" viewBox="0 0 56 56"><path fill="#F0F3FA" d="M0 0h56v56H0z"/><path fill-rule="evenodd" d="M28 44a16 16 0 1 0 0-32 16 16 0 0 0 0 32Zm0 1a17 17 0 1 0 0-34 17 17 0 0 0 0 34Z" fill="#00467F"/><circle cx="28" cy="28" r="15" fill="#ED1B2F"/><path d="M13.54 32a15 15 0 0 0 28.92 0H13.54Z" fill="#00467F"/><path d="M21.98 15.48c5.61 5.89 5.2 15.18 5.1 15.45 3.79-7.38 2.06-14.35.72-16.91-1.64 1.93-4.56 1.78-5.82 1.46Zm11.64 1.22c-2.04.03-3.92-1.69-4.6-2.55.86 3.38 1.8 11.41-1.4 16.47 1.92-1.7 5.8-6.86 6-13.92Zm.51.63c.24.97 1.24 2.95 3.36 3.19-.6 1.92-3.3 6.66-9.23 10.27 2.22-2.61 6.49-8.97 5.87-13.46Zm3.57 4.02c-1.18 4.01-5.85 7.83-8.05 9.23 2.11-.57 7.06-2.59 10-6.12-1.55-.43-1.95-2.25-1.95-3.1Zm-7.05 9.5c1.45-.55 6.24-2.41 8.83-5.66-.15.82-.22 2.57.71 3-2.6 1.6-7.72 2.56-9.96 2.85 0-.02.16-.08.42-.18ZM29.56 32.43c.06-.05 2.7.1 5.3 1.29-.2.26-.57.93-.47 1.56a18.7 18.7 0 0 0-4.83-2.85Zm4.83 3.43c-1.32-1.47-4.38-2.88-5.75-3.4 2.27 1.24 4.12 3.8 4.77 4.91.11-.62.7-1.26.98-1.5Zm-6.55-3.38c1.23.77 4.02 2.93 5.32 5.46-.39.29-1.26.96-1.62 1.41.05-.07-1.41-4.71-3.7-6.87Zm-1.05.01c1.02 1.8 2.6 6.24.82 9.61-.25-.33-1.31-.96-3.57-.8 1.16-1.44 3.34-5.23 2.75-8.8Zm.54 0c.8 1.67 2.1 5.88.97 9.4.03-.09 1.51-1.04 2.3-1.54l.5-.32c-.02 0-.05-.1-.1-.3-.2-.93-.85-3.91-3.67-7.24Z" fill="#fff"/></svg>