<!-- by TradingView --><svg width="56" height="56" fill="none" xmlns="http://www.w3.org/2000/svg"><path fill="#F0F3FA" d="M0 0h56v56H0z"/><path fill-rule="evenodd" clip-rule="evenodd" d="M9 26h5v14h6V26h4.534l2.526-5H11.527L9 26Zm13 4.5c0-1.236.226-2.417.636-3.5h2.867l3.148-5.656A8.711 8.711 0 0 1 31.079 21c5.093 0 8.012 2.966 8.836 7H33.69c-.485-1.769-1.542-2.978-3.19-2.978-1.933 0-3.5 2.462-3.5 5.5s1.208 5.5 3.5 5.5c1.736 0 2.766-1.23 3.221-3.022h6.213c-.767 4.034-3.53 7-8.855 7C25.134 40 22 35.747 22 30.5Z" fill="#224086"/><path fill="#119C4A" d="M38 18h4v4h-4z"/><path fill="#F79521" d="M43 24h4v4h-4z"/><path fill="#25AAE1" d="M41 14h6v6.002h-6z"/></svg>