<!-- by TradingView --><svg width="56" height="56" viewBox="0 0 56 56" xmlns="http://www.w3.org/2000/svg"><path fill="#F0F3FA" d="M0 0h56v56H0z"/><path d="M15 25H9.7C8.75 25 8 23.95 8 23s.76-2 1.7-2h7.9c.65 0 1.4.53 1.4 1.2v5.63c0 5.33 4 9.65 9.23 9.65h.7c4.5 0 7.7-3.51 8.1-8.09v-.6c0-1.17 1.1-1.79 1.97-1.79.92 0 1.97.72 1.97 1.94 0 .56.08 1.17-.02 1.73A12.47 12.47 0 0 1 28.75 41h-.8C20.67 41 15 34.98 15 27.56V25Z" fill="url(#a)"/><path d="M28 25.56V25h-4v1.55c0 1.66 0 5.95 4.28 5.95 2.72 0 3.87-2 4.62-3.68.39-.86 1.79-1.23 2.64-.82.72.35 1.13 1.15.9 1.92a8.75 8.75 0 0 1-8.16 6.58A8.32 8.32 0 0 1 20 28.14V22.5c0-.83.67-1.5 1.48-1.5h8.88c.82 0 1.64.67 1.64 1.5v3.06c0 .9-.89 1.44-1.79 1.44h-.52c-.9 0-1.69-.53-1.69-1.44Z" fill="url(#b)"/><circle cx="37.5" cy="21.5" r="4.5" fill="url(#c)"/><defs><linearGradient id="a" x1="18.22" y1="37.43" x2="26.04" y2="25.13" gradientUnits="userSpaceOnUse"><stop stop-color="#3E5D8E"/><stop offset="1" stop-color="#5781C1"/></linearGradient><linearGradient id="b" x1="22.78" y1="25.13" x2="28.72" y2="21.94" gradientUnits="userSpaceOnUse"><stop stop-color="#759A4E"/><stop offset="1" stop-color="#E6E85E"/></linearGradient><linearGradient id="c" x1="41.3" y1="20.7" x2="35.15" y2="25.37" gradientUnits="userSpaceOnUse"><stop stop-color="#FCE04B"/><stop offset="1" stop-color="#F37E51"/></linearGradient></defs></svg>