<!-- by TradingView --><svg width="56" height="56" viewBox="0 0 56 56" xmlns="http://www.w3.org/2000/svg"><path fill="#F0F3FA" d="M0 0h56v56H0z"/><path d="M28.04 14.93c.02.5.01 1 0 1.52 0 .2.05.34.16.4.23.11.4.16.53.13.27-.06.46-.07.57-.04l.44.15c.47.18.81.26 1.03.24.04 0 .2-.05.5-.13.36-.1.73-.09 1.1.03l.06-.01a.05.05 0 0 0 0-.06l-.83-1.75v-.01l.03-.02h.04l.85 1.8.05.04c.42.17.98.26 1.68.29.19 0 .28.1.28.3a.56.56 0 0 1-.18.11c-.25-.2-.48-.25-.68-.17-.24.08-.23.15.01.22.07.01.16.06.26.14-.58.28-1.17.47-1.77.57-.05-.3-.35-.4-.9-.33-.08.01-.1.05-.06.12l.08.14c.02.04.01.07-.03.09-.09.03-.2.02-.35-.02a1 1 0 0 0-.22-.04c-.38-.01-.73.05-1.05.18a6.51 6.51 0 0 1-1.67-.18c-.38-.08-.95-.23-1.7-.43-1.46-.4-2.53-.63-3.24-.7a5.31 5.31 0 0 0-4.79 1.9l-.7.85a9.02 9.02 0 0 1 4.37-4l.24-.13c.52.05.98.24 1.4.57.04.04.09.05.14.03a.14.14 0 0 0 .1-.1 4.62 4.62 0 0 1 .67-1.28v.03l-.62 1.26a.06.06 0 0 0 0 .08c.03.02.06.03.09.02.6-.2 1.1-.2 1.53-.04.31.12.54.19.7.2.24.04.49 0 .76-.1.3-.12.6-.14.94-.07.05.01.08-.01.08-.06l.02-1.74h.08Z" fill="#81D4F7"/><path d="m40 26.56.42.98.3 1.17c.03.09 0 .14-.08.18-.2.08-.37.2-.5.34-.2.03-.4.1-.58.24a7.11 7.11 0 0 1-2.84.22c-.33-.03-.9-.13-1.7-.29l-2.62-.63-2.3-.48-1.72-.05-1.47.2-.3.09c-.82.2-1.6.62-2.36 1.27-.22.2-.45.4-.7.66l-6.08-9.56c-.08-.12-.11-.23-.1-.31 0-.13.06-.24.17-.33.23-.3.47-.58.7-.85a5.31 5.31 0 0 1 4.79-1.9c.7.07 1.78.3 3.23.7.76.2 1.33.35 1.7.43a6.5 6.5 0 0 0 1.68.18 7.9 7.9 0 0 0 2.53-.14 6.4 6.4 0 0 0 1.77-.57l.4-.19a.56.56 0 0 0 .2-.11l.74-.48a.09.09 0 0 1 .08 0c.03 0 .05.03.06.06.45 2.33 1.37 4.5 2.74 6.49.4.57.8 1.14 1.22 1.7.09.1.22.3.38.6l.23.38Z" fill="#ED3237"/><path d="m27.13 23 .55.87a8.6 8.6 0 0 0 1.74 2.05c.04.03.03.05-.02.05h-1.23a.07.07 0 0 1-.07-.04.07.07 0 0 1 0-.08c.04-.04.1-.08.18-.11a.15.15 0 0 0 .1-.1.15.15 0 0 0-.02-.12 19.52 19.52 0 0 0-2.04-3.06 4.58 4.58 0 0 0-1.82-1.38c-.12-.05-.12-.08.01-.1l.6-.04c.05 0 .1 0 .13.04l7 5.3c.06.04.1.1.1.17l.02.24c0 .05-.01.06-.05.03l-5.14-3.76c-.09-.07-.1-.05-.04.04ZM30.71 24.47l-1.94-2.58c-.17-.23-.12-.3.16-.23.33.1.75.15 1.25.17.05 0 .08.02.1.06.04.07.02.13-.04.17-.18.1-.24.3-.18.56.04.17.14.4.3.7.32.63.9 1.42 1.71 2.36a.2.2 0 0 1 .05.1l.03.1c.1.16.06.18-.1.06l-6.52-4.88c-.05-.05-.05-.07.02-.08.3-.05.57.01.83.2a677.5 677.5 0 0 1 4.33 3.29Z" fill="#FFF511"/><path d="M38.05 21.77a8.25 8.25 0 0 1 1.17.86h-.03a15.52 15.52 0 0 0-2.43-1.51v-.02h.03c.28.1.7.33 1.26.67Z" fill="#2857A4"/><path d="m19.59 25.26-1.36.87c-.06.05-.06.07.03.07l1.8.02v.04c0 .01 0 .02-.03.02l-1.95.03c-.12 0-.27.02-.45.06a1.5 1.5 0 0 0-.36.12c-.04.03-.05.05 0 .08.17.09.4.12.7.11.18-.01.33 0 .43.01.06.01.1.04.12.1.03.05.03.1 0 .14-.4.7-.91 1.26-1.55 1.7-.2.13-.4.4-.65.81-.16-.3-.27-.72-.33-1.25-.12-1.12-.18-2-.2-2.65 0-.12.07-.25.2-.37.08.25.2.47.34.68.2.26.38.37.57.35.05-.01.07-.04.05-.08v-.02a2.5 2.5 0 0 0-.26-.62c-.2-.3-.4-.6-.62-.9-.1-.21-.1-.5.04-.87l.89-2.5c0-.02.02-.03.04-.04.02 0 .03.01.04.03l2.5 4.06Z" fill="#81D4F7"/><path d="M23.27 22.2c-.13.52.3.9 1.3 1.11.67.15 1.2.37 1.6.66.5.4.72.88.64 1.45-.04.25-.08.25-.14.01-.13-.56-.48-1-1.07-1.3a7.6 7.6 0 0 0-1.7-.53l-.15-.03c-.11-.03-.3-.13-.55-.3a1.09 1.09 0 0 1-.5-1.16.9.9 0 0 1 .57-.72c.3-.12.62-.14 1-.04.03 0 .06.03.08.06l.64 1.08c.02.03.01.05-.01.07a.14.14 0 0 1-.06.02c-.02 0-.04 0-.05-.02l-.48-.43a1.06 1.06 0 0 0-.61-.25c-.28-.03-.45.08-.5.31ZM34.61 23c.11.27.2.56.25.88.07.43.04.7-.11.83-.08.07-.11.05-.1-.05a3.1 3.1 0 0 0-1.22-2.83c-.08-.07-.07-.1.03-.11.2-.02.42.15.69.5.2.27.35.53.46.79Z" fill="#FFF511"/><path d="M33.84 24.93c-.04 0-.05.01-.02.04l1.48 1.79c.02.03.02.06 0 .1a.08.08 0 0 1-.08.04l-.62-.05a.28.28 0 0 1-.23-.15l-2.66-4.64c-.06-.1-.03-.15.09-.16l.47-.09c.63-.14 1.17.1 1.62.72.37.5.58 1.09.66 1.75.04.45-.2.67-.71.65ZM33.47 26.46c0-.27-.04-.47-.11-.62-.34-.69-.7-1.3-1.1-1.82a176.69 176.69 0 0 0-1.64-2.13c0-.03 0-.04.02-.04l.62.03c.06 0 .1.03.14.08l2.82 4.75c.01.02.01.04 0 .07a.07.07 0 0 1-.07.03h-.7c-.06 0-.08-.03-.08-.08s.02-.1.06-.14a.2.2 0 0 0 .04-.13Z" fill="#FFF511"/><path d="M32.28 22.11c.47-.05.82.08 1.06.37.4.5.68 1 .82 1.52.03.08 0 .16-.05.23a.26.26 0 0 1-.23.1.74.74 0 0 1-.56-.3c-.42-.58-.78-1.2-1.08-1.85-.01-.04 0-.06.04-.07Z" fill="#ED3237"/><path d="M26 25.68c.15-.5-.34-.88-1.47-1.12a2.42 2.42 0 0 1-1.72-1.25c-.18-.33-.14-.36.13-.09.3.3.64.54 1 .68.15.06.41.12.78.17.41.07.7.13.86.2.66.3.98.77.97 1.44 0 .35-.17.6-.5.75-.28.13-.6.16-.97.08a.19.19 0 0 1-.12-.08l-.66-1c-.02-.04-.02-.08.02-.1.03-.03.06-.02.1.02.02 0 .03.02.05.04.26.22.45.36.59.43.23.12.47.15.7.1.12-.04.2-.13.25-.27Z" fill="#FFF511"/><path fill-rule="evenodd" d="m40 26.56.42.98c.07-.42.1-.83.1-1.22a12.23 12.23 0 0 0-2.63-7.4 12.24 12.24 0 0 0-2.93-2.65 13.43 13.43 0 0 0-3.81-1.69.14.14 0 0 1-.1-.1 3.14 3.14 0 0 0-1.6-1.78c-.05-.02-.07-.06-.06-.1a1.28 1.28 0 0 0-1.08-1.58c-.3-.05-.58 0-.83.13-.39.2-.61.5-.69.9-.08.4.03.76.31 1.1.12.13.2.26.23.39.02.08.02.22.02.4v.17c0 .05-.03.07-.09.08-4.3.35-7.62 2.27-9.97 5.76-.03.05-.06.05-.07-.01a1.32 1.32 0 0 0-.5-.68l-1.12-.92c-.09-.07-.12-.05-.09.05l.44 1.58c.06.23.26.45.58.66l.21.14c.03.02.04.05.02.09a12.38 12.38 0 0 0-1.32 5.51c-.01 1.96.44 3.78 1.34 5.49.86 1.61 2 2.96 3.4 4.04a13.2 13.2 0 0 0 4.87 2.3c.06.01.07.04.02.08-.73.68-1.64.87-2.72.58a6.75 6.75 0 0 1-2.53-1.43 16.68 16.68 0 0 1-2.11-2.12l-.04.01c-.03.02-.03.03-.01.06a13.63 13.63 0 0 0 2.96 2.84c.73.5 1.46.78 2.18.86.9.09 1.72-.17 2.43-.78a.04.04 0 0 1 .04-.01h.05c.01.01.02.02 0 .03-.5.43-1.05.7-1.67.81-.53.1-1.12.04-1.78-.18-1.48-.5-2.93-1.7-4.36-3.62-.03-.05-.02-.08.04-.1l1.28-.33c.02 0 .03-.02.03-.03 0-.02 0-.04-.02-.05l-4.76-3.5c-.06-.04-.08-.02-.08.05l.51 5.9c0 .08.04.08.09.02l.73-.95c.08-.1.15-.09.21.01a17.3 17.3 0 0 0 2.5 2.96c1.05.96 2.12 1.69 3.22 2.17.17.08.47.18.89.32.55.18.94.33 1.18.45 1.58.77 3.1 1.68 4.54 2.71.08.06.15.05.21-.01a13.73 13.73 0 0 1 5.34-2.96c.88-.28 1.46-.5 1.75-.62a8.75 8.75 0 0 0 1.57-.98 16.37 16.37 0 0 0 3.77-4.1c.03-.06.06-.06.1-.01l.77 1c.06.07.1.06.1-.03l.52-5.91c0-.05-.01-.06-.05-.03L37.2 34.8c-.1.07-.08.11.03.14l1.23.3c.06.02.07.05.03.1a15.79 15.79 0 0 1-2.23 2.38 6.48 6.48 0 0 1-2.93 1.44 5.11 5.11 0 0 1-.94 0v-.03c0-.02.01-.03.03-.03h.25c.4 0 .71-.03.92-.08.72-.17 1.4-.5 2.03-.95a13.93 13.93 0 0 0 2.75-2.72l-.06-.02c-.03-.02-.05-.02-.06 0-.68.84-1.43 1.6-2.23 2.25a6.33 6.33 0 0 1-2.47 1.32 2.7 2.7 0 0 1-2.64-.62.05.05 0 0 1-.01-.05c0-.02.02-.03.04-.04a12.73 12.73 0 0 0 5.9-3.23 11.8 11.8 0 0 0 3.3-5.73c-.2.03-.4.1-.58.24-.64 2.2-1.8 4.04-3.5 5.51a12.28 12.28 0 0 1-7.6 3.04.14.14 0 0 1-.13-.06l-4.78-7.5-6.08-9.56c-.07-.12-.11-.23-.1-.31 0-.13.06-.24.17-.33a9.01 9.01 0 0 1 4.37-4l.25-.13c1.8-.95 3.7-1.43 5.74-1.45.1 0 .12.08.06.25h.08c-.02-.09-.02-.15 0-.2.01-.03.07-.05.16-.04 2.56.07 4.83.8 6.82 2.2a11.84 11.84 0 0 1 4.83 7.59c.11.68.16 1.38.14 2.08ZM27.41 37.94 19.6 25.26l-1.36.87c-.06.05-.05.07.03.07l1.8.02v.04c0 .01 0 .02-.03.02l-1.95.03c-.12 0-.27.02-.45.06a1.5 1.5 0 0 0-.36.12c-.04.03-.04.05 0 .08.17.09.4.12.7.11.18-.01.33 0 .43.01.06.01.1.04.12.1.03.05.03.1 0 .14-.4.7-.91 1.26-1.55 1.7-.2.13-.4.4-.65.81l.39.9v.03l-.02.03.02.07c.1.3.24.58.38.87l.53-.19c.02 0 .03-.02.04-.05 0-.02 0-.04-.03-.06l-.79-.56V30.42c0-.03.02-.03.05-.01l.67.49c.12.09.22.07.3-.06a.67.67 0 0 1 .1-.15c.18-.17.25-.13.22.12-.02.15-.01.3.02.43.01.04.04.08.08.1a18 18 0 0 0 6.22 2.12l-.03.04h-.01a18.32 18.32 0 0 1-6.18-2.07c-.04-.03-.08-.02-.1.02l-.19.25c-.17.2-.26.37-.29.5l-.07.27c.2.2.37.41.54.64A12 12 0 0 0 27.39 38c.05 0 .06-.02.03-.06Z" fill="#2857A4"/><path d="m30.1 28.29-.46.83a.17.17 0 0 1-.13.09c-.49.08-.86-.08-1.12-.48a.2.2 0 0 1-.03-.13l.02-.36 1.72.05Z" fill="#81D4F7"/><path d="m26.61 28.53.3-.1c.23.03.42.1.55.23.12.1.25.17.4.18.05 0 .07-.02.08-.07l.01-.4.02-.02.04-.02c.03-.01.05 0 .05.03v.43c0 .04.02.07.07.09l.21.06c.08.05.11.1.1.17a.1.1 0 0 1-.09.08c-.06.01-.14 0-.22-.06-.05-.03-.08-.02-.08.05v.3c0 .06.03.1.1.1l.74.13c.1.02.2.07.27.15l.06.06c.07.08.05.12-.05.13-.33.03-.67-.08-1.02-.3a.06.06 0 0 0-.06-.01.05.05 0 0 0-.03.05v3.79c0 .06.03.1.1.1h.46c.09 0 .13-.04.13-.13v-1.04c0-.05.02-.1.05-.14.16-.2.5-.34 1.03-.44l.26-.05a.26.26 0 0 0 .12-.06c.04-.05.1-.12.15-.22a.64.64 0 0 1 .3-.3.24.24 0 0 0 .11-.08c.12-.17.31-.23.58-.19.13.02.22.03.28.01.09-.03.16-.1.2-.23a.16.16 0 0 1 .1-.1l.4-.18a.13.13 0 0 1 .12 0c.14.07.3.12.45.15.06 0 .07.03.04.08a.56.56 0 0 0-.13.27c0 .05 0 .09.05.12.2.18.35.28.47.33.2.07.33 0 .41-.21.08-.19.14-.43.19-.73 0-.03.02-.05.05-.06.03-.01.06 0 .08.02l.06.1c.03.08.18.51.43 1.3l.08.11c.15.12.26.24.32.38.05.08.11.1.2.08 1.17-.43 2.26-.97 3.25-1.64a64.2 64.2 0 0 1 .78-.5l.03.03a16.52 16.52 0 0 1-4.1 2.2c-.04.02-.05.05-.04.1.07.32.03.64-.12.93-.17.33-.4.63-.68.9a2 2 0 0 1-.98.58c-.3.06-.59.09-.84.08-.08 0-.12-.04-.14-.1l-.14-.54a.2.2 0 0 0-.1-.12.46.46 0 0 0-.25-.07c-.06 0-.1-.02-.12-.07-.2-.46-.84-.44-1.9.06a.29.29 0 0 1-.13.03c-.34 0-.66.05-.94.16-.3.12-.37.05-.21-.22l.2-.48c.01-.02 0-.03-.02-.03h-.6c-.03 0-.05.01-.05.03v3.4l-.02.01h-.05c-.02 0-.02 0-.02-.02v-3.37c0-.05-.03-.08-.08-.08H25.8c-.03 0-.04-.01-.04-.04v-.06l.02-.02 2.08.05c.05 0 .08-.02.08-.07v-3.74a.13.13 0 0 0-.06-.1c-.48-.36-.9-.77-1.28-1.23Z" fill="#81D4F7"/><path d="m30.34 29.16-.14.42c0 .02-.02.03-.04.02a.1.1 0 0 1-.04-.02v-.85c0-.03.02-.05.05-.06l.48-.13c.03 0 .04 0 .06.03l.03.06c.02.02.01.04-.02.06-.07.02-.1.07-.1.14 0 .04.01.08.05.12l.17.21c.03.05.02.1-.03.16l-.07.07c-.07.07-.12.07-.17-.01l-.13-.23c-.04-.06-.07-.06-.1.01ZM35.02 29.4c-.04.34.04.65.25.93.09.11.06.14-.08.1a2.77 2.77 0 0 1-.71-.44c-.04-.03-.08-.03-.1 0l-.3.33c-.06.06-.1.05-.1-.02-.03-.17-.15-.24-.36-.21-.2.02-.35.04-.45.03a.05.05 0 0 1-.05-.03v-.05l.3-.36a.11.11 0 0 0 .02-.12.11.11 0 0 0-.09-.07l-.81-.2a.16.16 0 0 1-.1-.09.6.6 0 0 1-.04-.43l2.62.63Z" fill="#81D4F7"/><path d="M27.89 29.23c.03.07.05.13.05.2 0 .06-.03.06-.07.02a.22.22 0 0 1-.06-.21c.02-.07.04-.07.08-.01Z" fill="#F0F3FA"/><path d="m29.89 30.02-.18.05c-.06 0-.07-.02-.05-.07.03-.05.1-.1.18-.12.1-.03.17-.03.22 0 .05.02.05.05 0 .08l-.17.06ZM22 29.97a.03.03 0 0 0-.03-.02.03.03 0 0 0-.03.03l.27 2.32c0 .02.02.03.03.03.02 0 .03-.02.03-.04L22 29.97ZM31.28 30.13c0 .02 0 .03-.02.04l-.03.01c-.24.1-.37.12-.4.04l-.02-.02c-.03-.08.07-.17.3-.27l.03-.01c.02-.01.04 0 .05.01l.09.2ZM17.63 32.47a2.34 2.34 0 0 1-.53-1.13l.52-.19c.02 0 .04-.02.04-.05 0-.02 0-.04-.02-.06l-.8-.56V30.42c.01-.03.02-.03.05-.01l.67.49c.12.09.22.07.3-.06a.67.67 0 0 1 .1-.15c.18-.17.25-.13.22.12-.02.15-.01.3.02.43.02.04.04.08.08.1a18 18 0 0 0 6.22 2.12l-.03.04h-.01a18.32 18.32 0 0 1-6.18-2.07c-.04-.03-.08-.02-.1.02-.03.06-.1.14-.19.25-.16.2-.26.37-.29.5l-.07.27Z" fill="#81D4F7"/><path d="M22.27 32.57a.26.26 0 0 1 0-.15c.02-.12.03-.12.04 0l-.01.15c0 .04-.01.04-.03 0ZM22.42 33.42a.03.03 0 0 0-.04-.02.03.03 0 0 0-.02.03l.86 3.43.04.02c.02 0 .03-.02.02-.04l-.86-3.42ZM32.78 35.88c-.02.01-.1.04-.25.07-.06.02-.1 0-.14-.04a.12.12 0 0 1-.02-.15c.15-.26.36-.33.64-.24.04.02.08 0 .1-.03.03-.05.05-.11.05-.18.02-.18.04-.18.05 0 .02.14-.02.26-.1.34a.17.17 0 0 0-.06.12c-.02.3-.11.64-.28 1 0 .02-.02.02-.03.02-.01 0-.02-.01-.02-.03l.24-.72c.07-.22 0-.27-.18-.16Z" fill="#81D4F7"/><path d="M30.75 38.29c.08.02.15.09.22.2.04.05.03.06-.03.02a2.1 2.1 0 0 1-.24-.15c-.09-.08-.07-.1.05-.07Z" fill="#F0F3FA"/><path fill-rule="evenodd" d="m34.78 39.24.11.18c.03.04.02.05-.02.02l-.18-.14a.16.16 0 0 0-.19-.02l-.68.38c-.05.03-.06.08-.03.13l.63 1.07c.01.01.02.02.04.01l.3-.17c.03-.02.03-.04 0-.07-.1-.1-.17-.19-.18-.27-.04-.25.04-.28.24-.1.05.04.1.1.15.2.04.07.09.09.15.05l.23-.13c.05-.02.05-.06.02-.1-.14-.17-.28-.3-.43-.39-.04-.02-.05-.06-.04-.1l.04-.22c0-.02.01-.04.03-.05l.05.01.04.04c.03.04.05.02.04-.04a.57.57 0 0 1-.01-.2c.02-.07.06-.1.12-.09.05.01.1.04.12.08l.45.75c.03.06.07.06.11.02l.2-.18v-.06l-.48-.8c-.02-.04-.01-.07.01-.1a.08.08 0 0 1 .1-.02l.26.1c.03 0 .04 0 .02-.03l-.2-.34c-.03-.06-.08-.07-.15-.04l-.83.47c-.07.04-.08.09-.04.15Zm-.38.7c-.08 0-.13-.08-.11-.17 0-.09.08-.15.16-.14.07.01.13.1.11.18-.01.09-.08.15-.16.14Zm-13.97-.75.2.42a.2.2 0 0 1 .02.13.48.48 0 0 1-.17.28c-.13.11-.3.13-.47.04a1.16 1.16 0 0 1-.4-.33c-.03-.04-.03-.09 0-.13l.14-.18c.04-.05.07-.05.09.01.06.2.12.3.2.32.22.08.28.01.17-.19l-.17-.34a.16.16 0 0 1-.02-.1c.04-.17.14-.3.32-.39a.16.16 0 0 1 .13 0c.19.06.35.16.5.3.06.06.07.12.01.18l-.12.16c-.05.07-.1.07-.12-.02-.1-.3-.19-.39-.29-.28-.03.03-.04.08-.02.12Zm.85 1.24L21 40.3c-.09-.04-.15-.02-.17.07 0 .04-.02.07-.04.1h-.06l-.26-.12c-.02 0-.02-.02 0-.03l.95-.93a.1.1 0 0 1 .13-.02l.34.16c.04.02.05.05.04.1l-.32 1.25c-.01.04-.03.05-.07.03l-.26-.12c-.05-.02-.06-.06-.04-.1l.07-.15c.03-.05.02-.09-.03-.11Zm.25-.7c.04.03.01.16-.09.4a.1.1 0 0 1-.1.05c-.02 0-.04 0-.07-.02a.15.15 0 0 1-.05-.04c-.02-.05-.02-.08 0-.12.17-.2.27-.28.31-.26Zm1.2.22-.29-.14c-.02 0-.04 0-.05.02l-.57 1.18c-.01.01 0 .04.02.04l.3.14s.03 0 .04-.02l.57-1.17c.01-.02 0-.04-.01-.05Zm.5 1.23c-.14.17-.22.15-.25-.06-.01-.1.07-.27.23-.51.05-.06.1-.1.18-.09.08 0 .14.05.17.11l.06.14c.03.06.07.06.1 0l.13-.27c.02-.05.01-.09-.04-.12a2.2 2.2 0 0 0-.42-.16c-.28-.07-.5.06-.68.39a.93.93 0 0 0-.12.42c0 .16.04.28.12.38.06.07.2.13.43.19.11.02.19.05.23.07.04.02.06 0 .08-.03l.22-.54c.02-.04 0-.07-.03-.1l-.27-.11c-.06-.03-.09-.01-.09.05 0 .12-.02.2-.05.24Zm10.71-.2a.5.5 0 0 0 0-.41l-.13-.32a.52.52 0 0 0-.29-.28.54.54 0 0 0-.42 0L33 40a.52.52 0 0 0-.3.3.5.5 0 0 0 0 .4l.14.3c.05.14.15.24.29.3.14.05.28.05.42 0l.1-.04a.52.52 0 0 0 .3-.29Zm-.44.05c-.1.05-.26-.1-.36-.33-.1-.22-.1-.43 0-.47.1-.04.26.1.36.33.1.22.1.43 0 .47Zm-3.19.56v-.64c0-.05.03-.07.08-.09l.2-.05c.04-.01.07 0 .08.04l.3.6c.02.06.04.06.04 0 .03-.2.02-.42-.05-.64-.01-.04 0-.07.05-.08.2-.04.5-.14.92-.3.34-.13.55-.04.65.27.04.16-.07.32-.34.5l-.07.05c-.05.03-.07.06-.06.1.02.11.06.21.13.32.03.04.02.06-.02.08l-.28.13c-.05.02-.09 0-.1-.05-.05-.21-.15-.51-.3-.9-.04-.13-.09-.2-.15-.24a.06.06 0 0 0-.07 0 .06.06 0 0 0-.03.05v1.23c0 .04-.02.07-.07.08l-.22.06c-.08.02-.14 0-.16-.09a1.74 1.74 0 0 0-.17-.41c-.04-.06-.06-.05-.07.01-.03.14-.03.29 0 .43.01.06-.01.1-.07.14l-.2.08c-.06.03-.1.01-.13-.05l-.54-1.14c-.02-.04-.01-.07.04-.08l.3-.08c.05-.01.07 0 .08.05.01.25.08.46.2.63.02.04.03.04.03 0Zm1.6-.78c0 .1.04.17.12.18.07 0 .14-.06.15-.15 0-.1-.05-.17-.12-.18-.07 0-.14.06-.15.15Zm-5.92.74.1-.52c0-.05.03-.07.09-.06l.15.03c.04 0 .06.03.05.06l-.2 1.17c-.01.05-.04.07-.09.08a.45.45 0 0 1-.26-.02.12.12 0 0 1-.07-.09l-.17-.6c-.01-.05-.03-.05-.05 0-.06.2-.09.38-.08.55 0 .05-.02.07-.07.06l-.22-.04c-.03 0-.04-.01-.03-.04l.21-1.22c.01-.04.03-.06.07-.06.12 0 .22.02.29.05.04.02.06.05.07.09l.16.57c.02.07.04.07.05 0Zm-1.04.1a.52.52 0 0 1-.28.3.54.54 0 0 1-.42.03l-.1-.03a.53.53 0 0 1-.31-.27.5.5 0 0 1-.03-.41l.12-.32a.52.52 0 0 1 .28-.3.54.54 0 0 1 .42-.03l.1.03c.14.05.24.14.3.27a.5.5 0 0 1 .03.41l-.11.32Zm-.7-.4c-.07.23-.04.45.06.48.1.03.24-.14.31-.38s.05-.46-.06-.49c-.1-.03-.24.14-.3.38Zm4.83.6c-.06-.01-.09.01-.08.07l.01.15c0 .05.03.07.09.07.16.01.3-.07.4-.22.02-.05.05-.05.07 0 .06.12.1.23.09.33 0 .08-.05.12-.13.13l-.79.06c-.07 0-.1-.02-.1-.09l-.1-1.15c-.01-.07.02-.11.1-.12l.74-.06c.09 0 .13.03.14.12l.02.22c.01.11-.03.13-.12.07a.7.7 0 0 0-.28-.11.15.15 0 0 0-.15.05.18.18 0 0 0-.05.12c0 .06.03.08.09.09.05 0 .1-.02.17-.07.05-.04.08-.02.1.03.02.12.02.22 0 .3-.02.04-.05.05-.1.04l-.12-.03Zm-1.11-.15c0 .08-.02.08-.05.01l-.24-.53a.14.14 0 0 0-.1-.08.71.71 0 0 0-.28 0c-.03 0-.05.03-.05.06l-.03 1.24c0 .02.02.03.04.03h.22c.05 0 .07-.02.06-.06a1.48 1.48 0 0 1 0-.56c0-.05.02-.05.05 0l.25.56c.02.04.05.07.09.08.08.02.17.01.26-.02.04-.02.07-.05.07-.1l.02-1.16c0-.04-.02-.06-.06-.06h-.16c-.05 0-.08.02-.08.07l-.01.52Z" fill="#F0F3FA"/></svg>