<!-- by TradingView --><svg width="56" height="56" viewBox="0 0 56 56" xmlns="http://www.w3.org/2000/svg"><path fill="#F0F3FA" d="M0 0h56v56H0z"/><path d="M47 28c0 1.86-.48 3.64-1.45 5.36a14.46 14.46 0 0 1-4.11 4.54 20.26 20.26 0 0 1-6.17 3.03A24.77 24.77 0 0 1 28 42c-2.52 0-4.94-.36-7.27-1.07a20.26 20.26 0 0 1-6.17-3.03 14.46 14.46 0 0 1-4.11-4.54A10.79 10.79 0 0 1 9 28c0-1.86.48-3.64 1.45-5.36a14.46 14.46 0 0 1 4.11-4.54 20.26 20.26 0 0 1 6.17-3.03A24.77 24.77 0 0 1 28 14c2.52 0 4.94.36 7.27 1.07 2.33.7 4.38 1.72 6.17 3.03a14.46 14.46 0 0 1 4.11 4.54C46.52 24.36 47 26.14 47 28Zm-.74 0c0-1.78-.46-3.5-1.39-5.15a13.9 13.9 0 0 0-3.96-4.37A19.47 19.47 0 0 0 35 15.57 23.8 23.8 0 0 0 28 14.54c-2.42 0-4.75.34-6.99 1.03a19.47 19.47 0 0 0-5.92 2.91 13.9 13.9 0 0 0-3.96 4.37A10.37 10.37 0 0 0 9.73 28c0 1.78.47 3.5 1.4 5.15a13.9 13.9 0 0 0 3.96 4.37A19.47 19.47 0 0 0 21 40.43 23.8 23.8 0 0 0 28 41.46c2.42 0 4.75-.34 6.99-1.03a19.47 19.47 0 0 0 5.92-2.91 13.9 13.9 0 0 0 3.96-4.37 10.37 10.37 0 0 0 1.4-5.15Z" fill="#342D7A"/><path d="M20.58 19.4h.94l.01.01v.02l-.77.55V20l.3.9-.01.02h-.02l-.76-.56h-.01l-.77.56h-.01v-.02l.29-.9v-.02l-.77-.55v-.02h.95l.01-.01.3-.9v-.01h.02l.29.9v.02Z" fill="#F6F200"/><path d="M15.52 22.55v.01l.37.45v.01h-.37v.02l.37.45v.02h-.86c-.03 0-.03-.01-.02-.03l.38-.43v-.02h-.37c-.02 0-.02-.01-.01-.03l.38-.43v-.01l-.01-.01h-.36c-.02 0-.03 0-.01-.02l.41-.47c.01-.01.01-.03-.01-.03l-.04-.02c-.02 0-.02-.01 0-.01h9.9l.01.01v.01l-.24.04v.02l.39.46v.01h-.36c-.02 0-.02 0-.01.02l.36.44v.01h-.37v.02l.38.46h-.89v-.01l.38-.44v-.02h-.37l-.01-.01V23l.38-.43v-.02l-.02-.01h-.36v-.02l.36-.41c.03-.03.02-.04-.02-.03l-3.53.64a40.78 40.78 0 0 0 .22 1.3 5452.9 5452.9 0 0 0 1.39 8.26h12.58l.02-.01v-2.35c0-.02 0-.02.02-.01.34.36.76.6 1.27.72.47.11.96.1 1.47-.01.4-.1.74-.26 1.06-.5a1.87 1.87 0 0 0 .78-1.77 1.82 1.82 0 0 0-.27-.76 2.18 2.18 0 0 0-.57-.59c-.23-.17-.48-.3-.77-.38a2.64 2.64 0 0 1-.19-.06v-.03a1.52 1.52 0 0 0 .54-1.74 1.9 1.9 0 0 0-1.15-1.12c-.3-.1-.62-.14-.96-.11-.33.03-.63.12-.91.28-.3.16-.53.37-.7.64-.15.22-.22.47-.22.76a25006.78 25006.78 0 0 0-.02 6.33h-5.57a13820.19 13820.19 0 0 1 1.73-1.77c.16-.16.36-.43.6-.82a3.26 3.26 0 0 0 .46-2.18 3.08 3.08 0 0 0-1.1-1.95c-.35-.3-.74-.54-1.16-.72a3.96 3.96 0 0 0-2.64-.22c-.45.12-.82.33-1.1.66-.31.34-.46.73-.46 1.17v5.8l-.02.01h-.77c-.02 0-.02 0-.02-.02v-5.8c0-.58.18-1.1.55-1.54a3.26 3.26 0 0 1 1.78-1.08 6.56 6.56 0 0 1 2.61.22c.56.17 1.07.43 1.53.76a3.75 3.75 0 0 1 1.67 3.42c-.02.32-.11.67-.26 1.05a5.7 5.7 0 0 1-1 1.6 59.75 59.75 0 0 0-.55.67h2.88l.01-.02v-5.57c0-.52.17-.98.52-1.4.36-.43.8-.74 1.33-.92.52-.17 1.06-.2 1.64-.1a2.85 2.85 0 0 1 2.27 2.1c.09.46.03.9-.18 1.35v.02c.36.21.64.47.86.8a2.47 2.47 0 0 1 .36 2.08c-.1.37-.27.7-.52 1.02a3.4 3.4 0 0 1-2.2 1.25c-.63.1-1.25.04-1.85-.17-.02-.01-.03 0-.03.02v1.68l-.01.02H17.76c-.02 0-.02 0-.02-.02v-.48c-.01-.13 0-.28.03-.44a1644.55 1644.55 0 0 1 1.55-9.33l-3.8-.69c-.03 0-.04 0-.02.03l.4.47-.01.01h-.37Zm4 .3-.01-.01-.01.01-.15.96v.02l.12.09h.02l.61-.57v-.02l-.57-.49Zm1.01.48v.02l.66.61h.02l.1-.1v-.02l-.15-.99c0-.01 0-.02-.02 0l-.6.48Zm.45.84v-.03l-.65-.6h-.03l-.6.57c-.02 0-.02.02 0 .02l.64.6c.01.02.02.02.03 0l.6-.56Zm-1.49.16h-.03l-.21.2h-.01l-.16 1.05v.02l.17.15h.03l.85-.8c.02 0 .02-.02 0-.03l-.64-.6Zm2.1 1.22-.16-.98c0-.01 0-.02-.02-.03l-.2-.18h-.02l-.62.57v.03l.83.76h.02l.15-.14.01-.03Zm-1.22-.4h-.03l-.85.79v.03l.82.76h.03l.85-.8v-.03l-.82-.75Zm.2 1.8v.02l1.4 1.3.02.01.01-.02-.29-1.86v-.01l-.26-.25h-.03l-.86.8Zm-1.29-.8h-.03l-.3.28v.02l-.28 1.78.01.02h.03l1.4-1.3v-.03l-.83-.77Zm1.08 1.01h-.03l-1.4 1.3c-.02.02-.02.03 0 .04l1.4 1.31h.03l1.4-1.3c.02-.02.02-.03 0-.04l-1.4-1.31Zm-1.65 1.52h-.03l-.1.1v.01l-.47 3.07.01.02h.02l1.99-1.85V30l-1.42-1.32ZM20.56 30v.03l1.96 1.82h.02l.01-.02-.47-3.07-.01-.01-.07-.06h-.02L20.56 30Zm-2.44 2.27v.01l.01.01H22.57v-.02l-2.22-2.06h-.02l-2.2 2.06Z" fill="#342D7A"/><path d="M38.53 25.3c-.06.19-.18.36-.37.52a1.6 1.6 0 0 1-.56.3c-.15.06-.4.08-.74.08a121.11 121.11 0 0 1-1.22-.03v-1.24c0-.26.07-.5.23-.69.15-.17.35-.3.62-.4a1.9 1.9 0 0 1 1.28.02c.33.12.57.3.7.55.15.26.17.55.06.89Zm-.95-.69a.46.46 0 0 0-.28-.17.75.75 0 0 0-.36.01.67.67 0 0 0-.31.18.42.42 0 0 0-.13.3 123.64 123.64 0 0 1 .02.53h.63c.1 0 .2-.03.3-.08a.5.5 0 0 0 .2-.2.48.48 0 0 0 .05-.27c-.01-.1-.05-.2-.12-.3ZM26.4 25.02c.2-.32.45-.58.77-.76a2 2 0 0 1 1.16-.25c.75.05 1.42.27 2 .66a3 3 0 0 1 1.23 1.68c.14.51.1 1.06-.12 1.65-.18.48-.47.96-.87 1.44-.3.35-.64.71-1.04 1.09a41.9 41.9 0 0 1-1.2 1.05h-1.88c-.02.01-.03 0-.03-.02l-.03-6.5.01-.04Zm1.92 5.54.48-.44.81-.76c.3-.3.55-.6.73-.86.48-.7.64-1.37.46-2.03-.12-.48-.4-.89-.83-1.21-.4-.3-.86-.48-1.38-.56-.31-.05-.6-.02-.87.09-.3.1-.5.3-.65.56v.03l.04 5.32c0 .02 0 .03.02.03h1.01l.03-.02.15-.15ZM37.22 30.16c-.43-.09-.8-.29-1.1-.6-.31-.32-.47-.7-.48-1.13a184.79 184.79 0 0 1 0-1.77h2.01c.29 0 .55.04.78.12.29.1.55.25.77.46.24.22.4.47.47.74a1.58 1.58 0 0 1-.35 1.5c-.25.29-.57.5-.95.62-.37.11-.76.13-1.15.06Zm-.71-2.68-.01.01v.8c0 .2.01.33.04.4a.9.9 0 0 0 .35.47c.16.12.34.2.54.22a1.56 1.56 0 0 0 .98-.17c.33-.2.48-.48.45-.86a.82.82 0 0 0-.4-.65 1.32 1.32 0 0 0-.76-.22h-1.19ZM17.93 33.89v-.01h.01a10.89 10.89 0 0 1 5.25.02c.66.13 1.3.19 1.93.18.44-.01.93-.05 1.46-.12l1.65-.2a10.21 10.21 0 0 1 3.64.24l.46.1c.56.1 1.13.14 1.7.11a9.84 9.84 0 0 0 2.62-.5 3.57 3.57 0 0 1-1.13.53c-.52.15-1.04.24-1.56.28a4.09 4.09 0 0 1-1.72-.2l-.76-.2a9.52 9.52 0 0 0-2.44-.1c-.94.08-1.94.23-3 .45a4.35 4.35 0 0 1-1.95-.01 56.72 56.72 0 0 1-2.15-.52c-.28-.07-.6-.11-.93-.13a43.54 43.54 0 0 0-3.07.08Z" fill="#342D7A"/><path d="M17.91 34.6v-.01a10.9 10.9 0 0 1 5.26.03 9.16 9.16 0 0 0 3.4.06l1.65-.2a10.24 10.24 0 0 1 3.65.24l.45.09a6.8 6.8 0 0 0 1.7.12 9.87 9.87 0 0 0 2.63-.5 3.58 3.58 0 0 1-1.13.53c-.52.14-1.04.24-1.56.28a4.1 4.1 0 0 1-1.72-.21c-.35-.1-.6-.15-.76-.19a9.57 9.57 0 0 0-2.45-.1c-.94.08-1.94.23-3 .44-.42.1-.84.12-1.26.1-.16 0-.4-.04-.69-.1a57.12 57.12 0 0 1-2.16-.53c-.28-.06-.6-.1-.93-.12a43.48 43.48 0 0 0-3.07.08h-.01Z" fill="#342D7A"/><path d="M17.88 35.36a10.94 10.94 0 0 1 5.28.03 9.18 9.18 0 0 0 3.4.05l1.66-.19a10.26 10.26 0 0 1 3.65.23l.46.1c.57.1 1.14.15 1.7.12a9.9 9.9 0 0 0 2.64-.5 3.58 3.58 0 0 1-1.13.53 8.3 8.3 0 0 1-1.57.27 4.11 4.11 0 0 1-1.73-.2 6.55 6.55 0 0 0-1.5-.3 9.58 9.58 0 0 0-1.7 0c-.95.09-1.96.24-3.02.45-.42.1-.84.12-1.26.1-.17 0-.4-.04-.7-.1a59.32 59.32 0 0 1-2.16-.53c-.29-.06-.6-.1-.94-.13a43.32 43.32 0 0 0-3.08.08v-.01Z" fill="#342D7A"/><path d="M17.88 36.12v-.02a10.93 10.93 0 0 1 5.27.03 9.2 9.2 0 0 0 3.41.06l1.66-.2a10.25 10.25 0 0 1 3.65.24l.46.09c.56.11 1.13.15 1.7.12a9.88 9.88 0 0 0 2.64-.5 3.59 3.59 0 0 1-1.13.53c-.53.15-1.05.24-1.57.28a4.1 4.1 0 0 1-1.73-.21c-.35-.1-.6-.15-.76-.19a9.56 9.56 0 0 0-2.45-.1c-.94.08-1.95.23-3 .45a4.38 4.38 0 0 1-1.96-.01 56.04 56.04 0 0 1-2.17-.53c-.29-.06-.6-.1-.94-.12a43.45 43.45 0 0 0-3.08.08Z" fill="#342D7A"/><path d="M17.93 36.84v-.01h.01a10.9 10.9 0 0 1 5.26.02 9.14 9.14 0 0 0 3.39.06l1.65-.2a10.22 10.22 0 0 1 3.64.24l.46.09c.56.11 1.13.15 1.7.12a9.86 9.86 0 0 0 2.62-.5 3.56 3.56 0 0 1-1.13.53c-.52.15-1.04.24-1.56.28a4.1 4.1 0 0 1-1.72-.2l-.76-.2a9.53 9.53 0 0 0-2.44-.1c-.94.08-1.94.23-3 .45a4.33 4.33 0 0 1-1.95-.01 57.12 57.12 0 0 1-2.16-.53c-.28-.06-.6-.1-.93-.12a43.44 43.44 0 0 0-3.07.08Z" fill="#342D7A"/></svg>