<!-- by TradingView --><svg width="56" height="56" viewBox="0 0 56 56" xmlns="http://www.w3.org/2000/svg"><path fill="#F0F3FA" d="M0 0h56v56H0z"/><path fill-rule="evenodd" d="M31.13 16.17c-.51-.04-1.02-.1-1.53-.17h-3.16c-1.49.12-2.95.3-4.4.55-3.38.59-6.31 1.7-8.8 3.35-3.06 2.01-4.8 4.47-5.24 7.39v1.45c.52 3.29 2.63 5.96 6.32 8.03 3 1.67 6.4 2.68 10.2 3.03.63.05 1.26.12 1.89.2h3.03a28.87 28.87 0 0 0 11.35-2.76c4.2-2.06 6.6-4.9 7.21-8.5v-1.5c-.57-3.34-2.73-6.04-6.47-8.1a25.7 25.7 0 0 0-10.4-2.97Zm-6.62 9.06c.3-.13.4-.06.3.22l-1.7 5.45c-.34 1.05.12 2.05 1.37 3 .1.08.2.1.32.1 2.16-.16 3.93-.72 5.3-1.68a6.7 6.7 0 0 0 2.76-4.18c.34-1.5.05-2.83-.86-4-1.76-2.26-4.31-2.73-7.65-1.42a.4.4 0 0 0-.24.24l-.82 2.12c-.04.13 0 .21.13.26.31.11.68.08 1.1-.11Zm2.35-.29c.38.13.69.3.94.52.18.15.24.33.17.55l-1.33 4.68c-.03.07 0 .13.05.18a.2.2 0 0 0 .2.05c2.2-.55 3.2-1.94 2.98-4.18-.05-.57-.4-1.04-1.04-1.4a4.77 4.77 0 0 0-1.87-.57c-.04 0-.08 0-.12.03-.09.06-.08.1.02.14Zm-6.09.49c-.13-.15-.4-.33-.8-.54-.32-.16-.3-.23.08-.2l2.37.04c.66.06 1.07-.2 1.24-.79l.29-.8c.17-.63-.09-1.12-.79-1.14h-6.78c-.56-.01-.9.23-1.05.72l-.28.99c-.16.55.07.85.7.9l2.17.14c.1 0 .12.04.1.12l-2.2 7.67c-.19.63.07 1.04.76 1.2l.83.2c.76.19 1.25-.07 1.47-.76.62-1.95 1.3-4.22 2.05-6.83.11-.37.06-.68-.16-.92Zm17.28-.4c.07-.1.17-.16.3-.19.7-.13.92.23.67 1.09a.4.4 0 0 0 .08.38c.1.12.22.18.38.2.65.03 1.21-.08 1.69-.34.55-.3.83-.74.83-1.32 0-.53-.18-1.1-.55-1.74-.42-.71-.9-1.08-1.42-1.1a6.23 6.23 0 0 0-4.28 1.26 6.92 6.92 0 0 0-2.27 3.63 10 10 0 0 0-.41 4.1c.16 1.16.64 2 1.45 2.55.88.59 1.9.6 3.07.03a5.36 5.36 0 0 0 3.05-3.88c.02-.1-.02-.18-.11-.24a2.55 2.55 0 0 0-2.25-.21.41.41 0 0 0-.24.2c-.07.17-.28.48-.6.93-.41.57-.78.5-1.12-.2a.41.41 0 0 1-.04-.2 9.4 9.4 0 0 1 1.77-4.95Z" fill="#ED1B24"/></svg>