<!-- by TradingView --><svg width="56" height="56" viewBox="0 0 56 56" xmlns="http://www.w3.org/2000/svg"><path fill="#F0F3FA" d="M0 0h56v56H0z"/><path d="M35.95 11h.02c.02 0 .03 0 .03.02v8.28a7.04 7.04 0 0 1-.07 1.1 8.09 8.09 0 0 1-.24 1.5 4.41 4.41 0 0 1-.24.85 5.9 5.9 0 0 1-.84 1.57l-.57.63a9.44 9.44 0 0 1-1.86 1.5 24.67 24.67 0 0 1-2.7 1.67 69.26 69.26 0 0 1-2.5 1.3l-.15.05a10.35 10.35 0 0 0-2.84 2.12c-.1.08-.15.13-.17.16a9.5 9.5 0 0 0-2.02 3.34c-.04.13-.06.12-.06 0a261 261 0 0 0 .01-3.95 25.33 25.33 0 0 1 .13-2.7l.2-1.2a9.8 9.8 0 0 1 .56-1.98l.26-.59a5.33 5.33 0 0 1 .46-.84 5.98 5.98 0 0 1 2.25-2.13 31.77 31.77 0 0 1 1.57-1.02 1197.64 1197.64 0 0 0 2.14-1.41 23.07 23.07 0 0 1 2.06-1.29l.28-.19.3-.21.26-.22a9.6 9.6 0 0 0 3.01-3.7 7.56 7.56 0 0 0 .71-2.66ZM32.51 29.43a4.36 4.36 0 0 0 .6-.44 9.91 9.91 0 0 0 2.87-3.57l.01.02v.02c-.07.65-.18 1.33-.33 2.05-.05.23-.11.46-.19.7l-.23.68a7.4 7.4 0 0 1-.27.65 10 10 0 0 0-.17.4c-.04.1-.11.23-.22.41l-.16.28c-.05.12-.12.24-.21.35-.02.02-.1.14-.22.35a3.02 3.02 0 0 1-.43.56 9.85 9.85 0 0 1-2.31 2.12 12.35 12.35 0 0 1-1.83.9 8.46 8.46 0 0 1-1.89.52l-.24.03a18.58 18.58 0 0 1-5.17.08c0-.02 0-.03.02-.04.14-.13.25-.26.34-.4.05-.06.12-.14.23-.24.1-.1.16-.16.2-.22a.8.8 0 0 1 .22-.2l.2-.18c.1-.11.18-.19.25-.22l.17-.14a15.88 15.88 0 0 1 2.05-1.39 20.4 20.4 0 0 1 4.05-1.73 4.46 4.46 0 0 0 .85-.34 18.64 18.64 0 0 0 1.81-1.01Z" fill="#EF1923"/><path d="M32.65 38.03c.05-.06.04-.08-.04-.05l-.47.15a7.86 7.86 0 0 1-1.2.24 11.58 11.58 0 0 1-4.47-.21 12.23 12.23 0 0 1-1.69-.62 11.26 11.26 0 0 1-2.26-1.41c.17.04.45.11.82.22a13.76 13.76 0 0 0 5.59.18c.32-.06.82-.2 1.5-.43a9.39 9.39 0 0 0 1.8-.85 12.3 12.3 0 0 0 3.1-2.7c.05-.1.08-.09.1.01a10.21 10.21 0 0 1-.38 5.42l-.2.5c-.1.22-.18.39-.25.5-.04.07-.1.16-.16.3l-.22.36a8.96 8.96 0 0 1-2.94 2.8c-.7.43-1.45.78-2.23 1.06-.2.08-.4.13-.6.17l-.62.13a9.95 9.95 0 0 1-5.55-.43 9.77 9.77 0 0 1-4.14-2.95 2.26 2.26 0 0 1-.3-.35l-.13-.18a6.64 6.64 0 0 1-1.34-2.53 9.7 9.7 0 0 1 0-5.26c.16-.57.4-1.2.7-1.88.14-.31.3-.59.49-.82a14.87 14.87 0 0 1 3.46-3.09 37.05 37.05 0 0 0 .86-.48l.01.02c-.22.2-.38.32-.47.37-.06.04-.14.1-.23.2l-.23.2c-.05.03-.11.09-.18.18l-.14.15a8.73 8.73 0 0 0-1.85 2.84 9.77 9.77 0 0 0-.47 2.17 9.04 9.04 0 0 0 .49 3.7c.12.32.4.78.85 1.4a8.64 8.64 0 0 0 4.56 3.3 8.56 8.56 0 0 0 1.62.27c.71.05 1.44.02 2.16-.1.56-.07 1.1-.22 1.6-.44a8.45 8.45 0 0 0 2.87-1.85c.08-.08.15-.15.18-.2Z" fill="#25AFB1"/></svg>