<!-- by TradingView --><svg width="56" height="56" fill="none" xmlns="http://www.w3.org/2000/svg"><path fill="#F0F3FA" d="M0 0h56v56H0z"/><path d="M8.345 20H4l5.933 12.846C10.54 34.162 11.823 35 13.23 35h6.975c-1.257 0-2.731-1.191-3.707-3.057-.78-1.493-.403-3.644-.117-4.532l-1.558 2.585a.48.48 0 0 1-.86-.066l-3.608-8.565C10.007 20.535 9.218 20 8.346 20Z" fill="#183871"/><path d="M16.677 29.723c.16-4.483 3.62-7.508 5.33-8.46-2.495 2.057-1.43 4.52-.707 5.515.722.996 2.389 3.054 2.389 5.164 0 2.109-1.77 2.651-2.633 2.702-3.539-.035-4.394-3.296-4.38-4.921Z" fill="#83C238"/><path d="M51.336 20.45 52 19c-1.239 1.033-4.588 3.098-8.074 3.098-3.485 0-8.412-.498-10.44-.747 11.36 2.514 16.634.447 17.85-.9Z" fill="#88C935"/><path fill-rule="evenodd" clip-rule="evenodd" d="M24.44 32.907c.054-.072.723-1.061.723-2.212 0-1.15-.651-2.355-2.117-3.542-1.466-1.187-1.756-2.014-1.756-3.578s3.512-2.176 5.684-1.942c.342.037.86.107 1.513.198l-3.316 7.037c.173.266.52.991.52 1.766 0 .97-.737 3.462-3.425 4.366h3.425c.76.007 2.533-.631 3.556-2.75.981-2.033 3.343-7.12 4.536-9.698 3.462.437 7.557.861 10.874.861 1.485-.036 4.768-.295 6.028-1.043v-.36c-.652.39-2.77 1.148-6.028 1.061-2.512-.066-8.074-.68-12.325-1.149-2.641-.291-4.776-.527-5.358-.54l-.372-.01c-1.258-.036-1.923-.055-4.389.603.368-.276 1.835-.827 4.76-.827s6.36.551 7.711.827c2.6.257 8.236.773 9.973.773h.142c2.19.001 5.794.003 6.592-2.32-1.292.648-4.522 1.942-7.114 1.942-3.24 0-7.349-.485-10.263-.989-2.914-.503-5.737-.953-7.946-.953-2.208 0-4.524.486-5.285 2.967-.368 1.203.723 2.88 1.826 4.576 1.174 1.803 2.362 3.63 1.83 4.936ZM32.47 28l2.388-5 3.672.328c.627.029 1.88.428 1.88 1.79 0 1.703-2.19 2.882-4.8 2.882h-3.14Zm3.383-1.092 1.195-2.663c.398.08 1.101.445.73 1.266-.465 1.026-1.018 1.223-1.925 1.397ZM39.57 28l1.947-4H45v1.004l1.382-1.118c.81 0 2.716-.177 3.849-.886l-2.434 5H45.21l.84-1.561L44.48 28H43v-1.561L41.936 28h-2.367Z" fill="#183871"/><path fill-rule="evenodd" clip-rule="evenodd" d="M32.64 29s-3.55 5.93-3.64 5.986h2.767l.31-.698h1.264l-.04.698h5.037l.827-3.712h.752l1.038-1.8-1.459 5.512h4.406l.782-1.716h-2.406l.18-.53h1.715l.21-1.466H42.7l.226-.432h1.895L45.797 29h-9.549l-.511 2.274h.917l-.692 3.042L35.286 29h-2.647Zm.792 3.684h-.64l.734-1.647-.094 1.647Zm12.41-3.656L44.43 35h2.601l.24-1.828.422 1.828h2.932l-1.444-2.386c.607-.27 1.82-1.077 1.82-2.149s-.802-1.404-1.203-1.437h-3.955Zm2.196 2.735h-.497l.316-1.144c.752 0 .787.279.752.418a.722.722 0 0 1-.571.726Z" fill="#E77817"/><path fill-rule="evenodd" clip-rule="evenodd" d="M32.64 29s-2.678 4.473-3.44 5.686c-.116.184-.188.307-.2.314h2.767l.31-.712h1.264L33.3 35h5.037l.827-3.726h.752l1.038-1.8L39.496 35h4.406l.782-1.73h-2.406l.18-.53h1.715l.21-1.466H42.7l.226-.432h1.895L45.797 29h-9.549l-.511 2.274h.917l-.692 3.042L35.286 29h-2.647Zm2.382.3h-2.213l-.065.11-.404.672c-.334.557-.78 1.3-1.23 2.045a382.323 382.323 0 0 1-1.557 2.559h2.02l.31-.686h1.775l-.04.686h4.48L38.925 31h.819l.955-1.7h.606l-1.419 5.386h3.823l.509-1.116h-2.359l.385-1.13h1.669l.124-.866h-1.832l.538-1.032h1.896l.66-1.242h-8.81l-.377 1.7h.918l-.775 3.383-.59-.029-.643-5.054Zm14.427 3.179c.638-.353 1.551-1.084 1.551-2.014 0-1.072-.802-1.432-1.203-1.465h-3.955l-1.413 6h2.601l.255-1.457.407 1.457h2.932l-1.444-2.386c.08-.036.172-.081.27-.135Zm.643 2.221-1.344-2.222.31-.138a3.85 3.85 0 0 0 1.05-.715c.353-.343.592-.74.592-1.16 0-.451-.165-.72-.35-.883-.19-.168-.42-.24-.566-.254h-3.705L44.808 34.7h1.959l.46-2.141.704 2.141h2.16ZM32.33 33l1.427-2.965L33.716 33H32.33Zm14.816-1 .482-1.681h.228c.397 0 .688.07.87.232.19.168.206.378.182.519-.017.665-.548.88-.814.932L48.067 32h-.92Zm1.462-.963c.035-.14 0-.418-.752-.418l-.316 1.144h.497a.722.722 0 0 0 .571-.726Zm-15.177 1.647h-.64l.734-1.647-.094 1.647Z" fill="#183871"/></svg>