<!-- by TradingView --><svg width="56" height="56" viewBox="0 0 56 56" xmlns="http://www.w3.org/2000/svg"><path fill="#F0F3FA" d="M0 0h56v56H0z"/><path fill-rule="evenodd" d="M15.32 17A2.32 2.32 0 0 0 13 19.33v17.34A2.32 2.32 0 0 0 15.32 39h25.36A2.32 2.32 0 0 0 43 36.67V19.33A2.32 2.32 0 0 0 40.68 17H15.32Zm.2 1c-.84 0-1.52.7-1.52 1.56v16.88c0 .86.68 1.56 1.53 1.56h24.94c.85 0 1.53-.7 1.53-1.56V19.56c0-.86-.68-1.56-1.53-1.56H15.53Z" fill="#005BAC"/><path d="M29.26 24.04c-.37.48-1.4.3-2.28-.4A3.02 3.02 0 0 1 26 22.4v10.72c0 .65.36.88 1 .88h3v3H16.06c-.57 0-1.03-.68-1.03-1.26V28H18v6h5V22.85c-.18.27-.43.55-.75.8-.88.7-1.9.87-2.28.39-.37-.48.04-1.43.93-2.13.77-.6 1.64-.82 2.1-.55v-.09h3v.31a.6.6 0 0 1 .05-.07c.37-.48 1.4-.3 2.28.4.89.7 1.3 1.65.93 2.13Z" fill="#005BAC"/><path d="M37.06 25.76c-.36-.46-1.33-.29-2.17.37-.73.58-1.12 1.33-.99 1.82-.13.48.26 1.22.97 1.79.83.65 1.79.82 2.14.37.35-.45-.04-1.34-.87-2a3.5 3.5 0 0 0-.21-.15l.24-.18c.85-.66 1.24-1.56.89-2.02Z" fill="#EA2127"/><path fill-rule="evenodd" d="M15 27h3v-4.16c0-.52.15-.84.64-.84H31v15h9.36c.35 0 .64-.3.64-.66V19.79c0-.43-.34-.79-.76-.79h-24.6c-.35 0-.64.3-.64.66V27Zm19-5v12h3.53c.26 0 .47-.23.47-.5V22.37c0-.21-.16-.38-.35-.38H34Z" fill="#EA2127"/><path d="M40.2 19.82H15.76v15.8c0 .4.33.63.74.63h14.38V36H16.5c-.31 0-.51-.08-.51-.39v-15.6h24v15.8h-7.25a.55.55 0 0 1-.56-.56V21h.8v13.47c0 .4.35.73.75.73h5.8V20.81H16.8v14.4h7.42V22.05h-.18V35H17V21h15v14.25c0 .41.34.74.75.74h7.44V19.82Zm-7.01 14.65V21h6.18v14.02h-5.63a.55.55 0 0 1-.55-.55Zm-8.02-12.42V35h5.6v.2h-5.79V22.06h.19Z" fill="#F0F3FA"/></svg>