<!-- by TradingView --><svg width="56" height="56" viewBox="0 0 56 56" xmlns="http://www.w3.org/2000/svg"><path fill="#F0F3FA" d="M0 0h56v56H0z"/><path d="M8.6 20a.6.6 0 0 0-.47.98L9.76 23H14v13h3V23h5.85a.6.6 0 0 0 .49-.96L21.84 20H8.6ZM35.37 23a6.28 6.28 0 0 0-2.49-2.94.6.6 0 0 1 .27-.06h13.23l1.5 2.04c.3.4.01.96-.48.96H42v13h-3V23h-3.63Z" fill="#0C6337"/><path d="M27.98 20h-4.57l1.97 3h2.5a4.95 4.95 0 0 1 5.04 4.92A5.08 5.08 0 0 1 27.9 33H26v-.89l-3-2.67V36h4.98c4.43 0 8.02-3.6 8.02-8s-3.59-8-8.02-8Z" fill="#0C6337"/><path d="M35.79 26.17c-.16 2.64-1.67 6.35-6.8 6.65-.36.08-.73.18-1.1.18H26v-.89l-3-2.67V36h4.98a8.02 8.02 0 0 0 7.8-9.83Z" fill="#F68B1E"/><path d="M26.98 30 31 26h-1.7c-.3 0-.6.12-.82.33l-2.57 2.48L26.98 30Z" fill="#F36805"/><path d="m27 30-3-3h1.7c.3 0 .6.12.82.34l1.57 1.57L27 30Z" fill="#F8891D"/></svg>