<!-- by TradingView --><svg width="56" height="56" viewBox="0 0 56 56" xmlns="http://www.w3.org/2000/svg"><path fill="#F0F3FA" d="M0 0h56v56H0z"/><path d="m18.64 20-1.57 1.82A12.8 12.8 0 0 0 15.56 24h18.79c1.94 1.49 2.65 4.62 2.76 6H32v9.4c2.16-.79 7-3.71 7-9.1C39 23.57 32.33 20 27.94 20h-9.3Zm1.72-2h7.8C35.08 18 41 23.26 41 30v.56c0 6.74-5.91 12.2-12.85 12.2h-.2c-.59-.01-2.35-.16-3.95-.63V30H14V30.39C14 37.9 20.27 44 28 44s14-6.1 14-13.61V30c0-2.98-1.07-5.87-3.02-8.17L28.11 9l-7.75 9Z" fill="#00A7E1"/></svg>