<!-- by TradingView --><svg width="56" height="56" viewBox="0 0 56 56" xmlns="http://www.w3.org/2000/svg"><path fill="#F0F3FA" d="M0 0h56v56H0z"/><path d="M37.34 15.98c.69 1.26.84 3.46.45 6.61a2.04 2.04 0 0 1-1.01 1.61c-.6.35-1.22.38-1.87.1-2.8-1.27-4.56-2.53-5.25-3.79-.69-1.26-.84-3.47-.45-6.61.09-.73.43-1.27 1.02-1.62.6-.34 1.21-.37 1.86-.08 2.8 1.26 4.56 2.52 5.25 3.78Z" fill="#0064B2"/><path d="M25.77 30.86c-.59.35-1.2.38-1.85.09-2.81-1.27-4.56-2.53-5.25-3.79-.7-1.26-.85-3.46-.46-6.62.09-.72.43-1.26 1.01-1.6.6-.36 1.22-.4 1.87-.1 2.8 1.27 4.56 2.53 5.25 3.79.69 1.26.84 3.46.45 6.62a2.05 2.05 0 0 1-1.02 1.61Z" fill="#4BB746"/><path d="M30.24 25.26c.6-.34 1.21-.37 1.86-.08 2.8 1.27 4.55 2.53 5.24 3.8.7 1.25.84 3.46.44 6.6-.09.73-.43 1.26-1.02 1.6-.6.36-1.21.38-1.86.1-2.8-1.28-4.55-2.54-5.24-3.8-.7-1.25-.84-3.46-.45-6.6.1-.73.44-1.27 1.03-1.62Z" fill="#0064B2"/><path d="M25.77 43.71c-.59.35-1.2.38-1.85.1-2.8-1.27-4.56-2.53-5.25-3.79-.7-1.26-.85-3.47-.47-6.62.09-.73.43-1.27 1.02-1.62.6-.35 1.21-.38 1.86-.09 2.8 1.27 4.56 2.53 5.25 3.78.7 1.26.85 3.47.47 6.63a2.05 2.05 0 0 1-1.03 1.61Z" fill="#4BB746"/></svg>