<!-- by TradingView --><svg width="56" height="56" viewBox="0 0 56 56" xmlns="http://www.w3.org/2000/svg"><path fill="#F0F3FA" d="M0 0h56v56H0z"/><path d="M37 28.67v-.64L39.44 27l2.38 1.67 1.63-1.12 2.13 1.72 1.29-1 1.94 1.76L50 34h-1.5l-1.54-5.18-1.16.7L46.96 34H45l-1.35-5.82-1.6.85.82 4.97h-2.48l-.94-6.45L37 28.67ZM13 34l1.77-19 1.99 18H18v1h-5Z" fill="#0267FF"/><path d="M27.36 18C16.76 18 8.7 28 6 33c4.99-7.7 13.08-14 21.36-14 6.63 0 9.19 5.56 9.64 8.24-.42-4.62-3.32-9.24-9.64-9.24Z" fill="#0267FF"/><path d="M27.3 19.5C16.75 19.5 9.22 28.8 6.53 34c5.46-7.37 12.3-13.5 20.55-13.5 6.6 0 9.1 5.37 9.92 7.96 0-3.81-3.41-8.96-9.7-8.96Z" fill="#FC0"/><path d="M35 30.4v2.2c0 .28.06.4.27.4h.45c.22 0 .28-.12.28-.4v-2.2c0-.28-.06-.4-.28-.4h-.45c-.2 0-.27.12-.27.4Zm3 .11v1.98c0 1.04-.23 1.51-1.06 1.51h-2.88c-.83 0-1.06-.47-1.06-1.51V30.5c0-1.04.23-1.51 1.06-1.51h2.88c.83 0 1.06.47 1.06 1.51ZM30 30.51v1.98c0 .36.12.51.4.51h.62c.58 0 .78-.1.98-.24L31.87 34H29.1c-.8 0-1.1-.64-1.1-1.55v-1.9c0-.91.3-1.55 1.1-1.55h2.74l.16 1.27c-.13-.18-.4-.27-.83-.27h-.77c-.28 0-.4.15-.4.51ZM25 32.82v-4.64c0-.71-.08-.92-.18-1.18H27v5.82c0 .71.08.92.18 1.18h-2.36c.1-.26.18-.47.18-1.18ZM21 31h1v-.62c0-.28-.06-.4-.27-.4h-.46c-.2 0-.27.12-.27.4V31Zm3 1h-3v.51c0 .36.13.49.43.49h1.67c.35 0 .54-.01.84-.2L23.8 34h-3.72c-.84 0-1.08-.47-1.08-1.51V30.5c0-1.04.24-1.51 1.08-1.51h2.84c.84 0 1.08.47 1.08 1.51V32Z" fill="#0267FF"/></svg>