<!-- by TradingView --><svg width="56" height="56" viewBox="0 0 56 56" xmlns="http://www.w3.org/2000/svg"><path fill="#F0F3FA" d="M0 0h56v56H0z"/><path fill-rule="evenodd" d="m30.06 20.33.05.01a8.2 8.2 0 0 1 3.47 1.98 7.74 7.74 0 0 1 2.32 6.84 8.04 8.04 0 0 1-1.57 3.65.14.14 0 0 1-.12.06 53423.44 53423.44 0 0 1-12.43-.01.15.15 0 0 1-.11-.06 8.01 8.01 0 0 1-1.57-3.65 7.72 7.72 0 0 1 2.33-6.84 8.2 8.2 0 0 1 3.52-1.99 6.7 6.7 0 0 1 4.11 0ZM28 33.26h1.6c2.06 0 3.47.01 4.24.03.05 0 .05.02.02.05a8.05 8.05 0 0 1-2.12 1.61c-.06.04-.14.1-.24.2-.1.09-.18.15-.24.17a8.17 8.17 0 0 1-6.53 0 .94.94 0 0 1-.24-.18c-.1-.1-.17-.16-.24-.2-.8-.42-1.5-.95-2.12-1.6-.03-.04-.02-.06.03-.06a216.32 216.32 0 0 1 5.84-.02ZM26.7 21.4c-.16.17-.13.24.12.21.13 0 .28-.05.43-.1a.2.2 0 0 1 .14-.02l.37.1c.07.02.1.06.1.13v.5c0 .1-.04.14-.13.14a6.71 6.71 0 0 1-1.7-.28c-.1-.03-.13-.1-.08-.18l.4-.7c.09-.13.2-.19.37-.15.13.03.24.1.32.2.13.18.09.23-.13.14-.1-.04-.17-.03-.2.01Zm3.75.44-.27-.46c-.03-.05-.02-.09.05-.1a.77.77 0 0 0 .23-.1c.07-.04.13-.04.19 0l.47.35c.04.03.03.06 0 .08l-.5.28c-.07.04-.13.02-.17-.05Zm-1.15-.58-.56.18a.15.15 0 0 1-.13-.02l-.08-.04c-.04-.03-.08-.02-.11 0l-.17.16a.18.18 0 0 0-.07.14v.6c0 .06.03.09.09.08a6.83 6.83 0 0 0 1.83-.31c.04-.01.05-.04.04-.08a.6.6 0 0 0-.2-.32.22.22 0 0 0-.14-.05c-.2 0-.34-.1-.4-.3-.02-.04-.06-.06-.1-.04Zm2.56.34c.34 0 .62.14.84.4a1.46 1.46 0 0 0 .6.39.5.5 0 0 1 .14.13c.03.04.04.08.04.12 0 .04-.01.05-.04.03l-.16-.08-.8-.42c-.23-.14-.44-.3-.64-.5-.05-.05-.04-.07.02-.07Zm.73 2.81c-.1-.14-.06-.2.12-.16l.16.03c.01 0 .03 0 .04-.02a8.2 8.2 0 0 0-1-1.82.55.55 0 0 0-.34-.01l-.02-.01a.85.85 0 0 1-.05-.48c0-.03 0-.06-.03-.08a.08.08 0 0 0-.1 0c-.2.13-.41.21-.62.26-.1.01-.12.06-.08.15.4.91.68 1.84.83 2.8 0 .06.04.09.1.07l1.34-.3c.02 0 .03-.02.04-.04 0-.02 0-.04-.03-.05a1.3 1.3 0 0 1-.36-.34Zm-7.32-2.23c.03-.02.06-.02.09 0 .02.03.03.06.02.09l-.2.45a.22.22 0 0 1-.18.14.9.9 0 0 1-.38-.05.12.12 0 0 1-.1-.11c0-.06.02-.1.07-.13l.68-.4Zm5 .15c-.83.22-1.5.34-2.03.37-.04 0-.06.02-.06.06v2.76c0 .04.02.07.07.07.97-.02 1.93-.13 2.88-.31.05-.01.07-.04.07-.1-.13-.9-.4-1.84-.84-2.8-.01-.04-.04-.06-.09-.05Zm-4.37.07c0-.03.03-.04.05-.03.57.2 1.18.3 1.85.32.04 0 .06.02.06.06v2.72c0 .09-.05.13-.14.11a9.8 9.8 0 0 1-.72-.14c-.1-.02-.24-.02-.44.02l-.25.03c-.14 0-.61-.08-1.41-.23-.05 0-.07-.04-.06-.08.13-.82.33-1.56.6-2.23a.14.14 0 0 1 .09-.09c.14-.04.27-.2.37-.46Zm6.46 0a.07.07 0 0 1 .1.01l.53.79c.03.03.02.08-.02.1a.07.07 0 0 1-.1-.02l-.53-.78a.07.07 0 0 1 .02-.1Zm-8.71 2.38c-.1.06-.2.08-.34.06-.12-.02-.2-.08-.25-.17a.34.34 0 0 1-.02-.29l.46-.98c.14-.3.34-.53.6-.7.14-.1.18-.07.12.08v.08c.01.04.03.07.07.09.25.14.47.17.65.1H25c.01.02.02.03.01.05l-.48 1.86c0 .04-.03.05-.07.05l-.59-.04a.08.08 0 0 1-.08-.07l-.02-.09c-.02-.05-.06-.07-.11-.03Zm-1.53-.36.12-.07a.18.18 0 0 1 .12-.02l.29.03c.04 0 .06 0 .08-.04l.51-1.15v-.05a.04.04 0 0 0-.05-.01c-.34.1-.6.28-.75.55a.13.13 0 0 1-.1.06c-.28.04-.52.19-.72.46-.02.03-.01.06.02.07l.39.17a.1.1 0 0 0 .1 0Zm11.4.11.05-.22a.7.7 0 0 0 .03-.22.9.9 0 0 0-.12-.3c-.1-.17-.07-.2.09-.12.27.16.32.4.14.74-.04.08-.08.17-.1.25-.02.02-.03.03-.04 0l-.03-.05a.12.12 0 0 1-.02-.08Zm-6.07 3.26c.04.15.06.3.06.43 0 .09 0 .09-.03 0a2.02 2.02 0 0 1-.07-.48c0-.05-.02-.07-.07-.08a4.31 4.31 0 0 0-.77-.01c-.22.01-.25-.05-.08-.19 0 0 0-.07-.03-.2 0-.05-.03-.07-.07-.07h-.89a.17.17 0 0 1-.15-.08l-.56-.93c-.06-.1-.1-.09-.1.02l-.1 1.38c-.01.05-.04.07-.1.07h-.15c-.05 0-.08-.02-.07-.08l.16-2.05c0-.05-.02-.07-.08-.07a3 3 0 0 1-1.16-.24.1.1 0 0 0-.12.03.47.47 0 0 1-.27.16.1.1 0 0 0-.09.08 8.11 8.11 0 0 0-.27 2.07c0 .09-.04.13-.13.12h-.1c-.09-.01-.13-.06-.12-.16l.3-2.48c.01-.05 0-.08-.06-.1a1.27 1.27 0 0 0-.42-.06.81.81 0 0 0-.4.19l-.6.42c-.08.05-.12.14-.13.26v.07c0 .09-.06.18-.16.28-.06.06-.1.1-.12.14-.14.26-.21.5-.23.74 0 .15.01.39.06.7.02.09.07.13.15.13h.63c.05 0 .08.02.08.07v1.46c0 .1.04.14.13.14h.28c.05 0 .07.02.07.07v2.98c0 .07.03.1.1.1h4.68c.08 0 .11-.04.1-.13a.25.25 0 0 1-.01-.08c.07-.2.1-.19.09.02 0 .14.07.2.23.2.89-.03 2-.03 3.36 0 .08 0 .1-.04.08-.1-.03-.08-.02-.13 0-.18.03-.05.06-.05.1-.01.13.16.3.26.49.29.11.02.29.02.53 0a3.32 3.32 0 0 1 .7-.02c.26.02.44 0 .54-.05a.14.14 0 0 1 .12-.01c.82.25 1.42.05 1.77-.6.1-.17.17-.4.23-.67.06-.3.07-.52.02-.66-.09-.34-.11-.63-.08-.86a1.1 1.1 0 0 0 0-.25c0-.17 0-.3.05-.4.03-.06.06-.07.1 0l.24.3c.01.03.03.03.04 0l.03-.04v-.02l-.21-.65a.15.15 0 0 0-.09-.1c-.13-.06-.28-.2-.44-.43-.13-.2-.26-.33-.36-.4-.31-.18-.63-.24-.94-.16-.31.08-.58.26-.8.56-.03.03-.06.03-.08 0-.44-.63-1-.76-1.7-.4a.32.32 0 0 0-.08.09l-.1.12c-.04.04-.07.04-.08-.01a.33.33 0 0 1 0-.2.09.09 0 0 0-.02-.09.1.1 0 0 0-.08-.04h-2.63a.11.11 0 0 0-.1.05.1.1 0 0 0-.02.1Zm6.1-2.86c-.04.05-.05.1-.03.12.02.02.07 0 .11-.05.04-.04.05-.1.03-.11-.02-.02-.07 0-.11.04Zm-.85 1.94-.23-.4c-.05-.1-.03-.13.06-.1l.19.05c.03 0 .07 0 .1-.03.4-.33.55-.75.42-1.26 0-.02-.02-.04-.05-.03l-1.51.35c-.08.01-.11.06-.1.13l.17 1.25c0 .02 0 .03.03.04l.77.2c.06 0 .1 0 .14-.05.04-.05.04-.1.01-.15Zm-3.47-.26.05.39c.01.08-.01.1-.07.03l-.51-.53a.18.18 0 0 1-.05-.11.77.77 0 0 0-.16-.41c-.02-.04-.01-.06.03-.06l2.73-.36c.01 0 .02 0 .02.02l.12.88c0 .03 0 .05-.02.06a.05.05 0 0 1-.07 0 1.34 1.34 0 0 0-1.59.02.17.17 0 0 1-.12.03l-.29-.04c-.05 0-.08.02-.07.08Zm-1.9-.7-2.4-.29c-.03 0-.04 0-.03.04.15.44.36.85.6 1.22.04.05.08.06.14.05l.11-.02c.43-.09.74-.17.94-.24.33-.12.58-.27.75-.47a.16.16 0 0 0 .02-.18.17.17 0 0 0-.14-.11Zm-1.03 8.59c.28-.15.48-.31.6-.49.03-.04.06-.05.1-.02a.8.8 0 0 0 .61.12c.05 0 .08.01.1.05.13.25.18.64.16 1.17v.27a.1.1 0 0 1-.05.08.1.1 0 0 1-.09.02 2.83 2.83 0 0 1-1.46-1.1c-.03-.04-.02-.07.03-.1Zm1.88-.15v1.32c.09.01.18 0 .26-.03.55-.2 1-.55 1.33-1.05.02-.03.02-.05-.01-.07l-.5-.28a.1.1 0 0 0-.03-.02l-.8-.1c-.07 0-.13.02-.18.06a.21.21 0 0 0-.07.17Zm-1.74 1.08-.95-.54c-.03-.02-.03-.04 0-.05a.72.72 0 0 0 .24-.24c.04-.05.07-.05.1 0l.67.75c.14.15.12.18-.06.08Zm3.55-.6c-.11.17-.2.28-.28.35-.1.08-.16.14-.17.2 0 .06.01.07.07.04l.69-.4a.1.1 0 0 0 .05-.09c0-.1-.04-.2-.1-.3-.03-.04-.06-.04-.1 0-.04.02-.09.1-.16.2Zm-4.57.44a1.33 1.33 0 0 1-.37-.14.06.06 0 0 1-.04-.06l.01-.07c0-.03.02-.04.05-.03.15.09.28.17.37.25.07.05.06.07-.02.05Z" fill="#02ADF0"/><path d="m31.82 27.3.4.37c.02.02.03.04.03.07 0 .02-.02.04-.03.05h-.05c-.17-.1-.3-.24-.4-.42v-.02l.02-.04c0-.02.02-.02.03-.01Z" fill="#fff"/><path d="M25.68 28.46c-.07-.22-.18-.4-.35-.55-.08-.08-.07-.12.05-.12h.43c.06 0 .09.04.07.1l-.15.57c-.01.07-.03.07-.05 0Z" fill="#02ADF0"/><path d="M31.74 31.6c-.13.25-.31.38-.55.4-.24.01-.44-.1-.6-.32-.28-.37-.41-.9-.41-1.59 0-.47.05-.88.15-1.21.15-.52.41-.8.78-.87.35-.06.62.08.82.4.15.23.24.53.28.89 0 .04-.02.07-.07.08l-.52.06c-.06 0-.09-.02-.09-.07a.61.61 0 0 0-.16-.45.19.19 0 0 0-.16-.06.18.18 0 0 0-.14.08c-.07.09-.11.2-.13.32-.05.36-.06.7-.05 1 .02.46.12.73.3.8.04.02.08.02.12 0 .17-.06.26-.19.27-.39 0-.05-.02-.07-.08-.07h-.17c-.08 0-.12-.04-.12-.12v-.6c0-.07.04-.1.11-.1h.82c.05 0 .07.01.07.06v2c0 .05-.02.07-.07.08l-.17.02c-.06 0-.09-.02-.1-.07l-.03-.25c0-.02-.02-.04-.04-.04-.03 0-.05 0-.06.03ZM33.16 29.2c.02.06.14.14.38.24.37.15.6.31.67.47.22.49.23.98.03 1.48-.15.38-.41.58-.79.6a.88.88 0 0 1-.77-.32c-.17-.2-.26-.45-.3-.77 0-.04.02-.07.06-.09.2-.1.36-.14.48-.15.06 0 .09.02.1.07.07.23.22.36.45.37.04 0 .08-.01.11-.04.1-.1.14-.19.1-.28-.03-.08-.1-.16-.23-.21l-.06-.03a2.6 2.6 0 0 1-.6-.34.93.93 0 0 1-.3-.61c-.05-.42 0-.78.14-1.09.17-.4.48-.56.92-.49.2.04.38.15.52.33.11.15.2.33.24.55 0 .04-.01.08-.05.1l-.4.22c-.05.02-.09.01-.11-.04-.1-.22-.24-.32-.41-.32a.16.16 0 0 0-.12.06.3.3 0 0 0-.06.28ZM22.41 28.02c.27 0 .5 0 .68-.02.08 0 .12.03.12.1v.78c0 .09-.04.12-.13.11l-.26-.04c-.06-.01-.09.01-.09.07v2.93c0 .03-.01.05-.05.05a13.34 13.34 0 0 0-.53 0c-.04 0-.06-.02-.06-.05v-2.93c0-.06-.02-.08-.08-.07l-.26.04c-.09.01-.13-.02-.13-.1v-.78c0-.08.04-.12.12-.1h.67ZM29.43 30.07l-.02-2c0-.05.02-.07.06-.07h.46c.05 0 .07.03.07.07v3.86c0 .05-.02.07-.07.07h-.46c-.05 0-.09-.02-.1-.07l-.8-2.3c-.02-.05-.03-.05-.02.01l.03 2.3c0 .03-.02.05-.06.05h-.46c-.04 0-.06-.02-.06-.05v-3.9c0-.02.02-.04.05-.04h.53c.05 0 .09.03.1.08l.74 2.01c0 .02.01.01.01-.02Z" fill="#EE1821"/><path fill-rule="evenodd" d="M24.1 31.34c0-.48 0-.75.03-.82.03-.05.07-.07.12-.05.06.01.1.05.1.1l.3 1.43h.73c.03 0 .04-.01.04-.04l-.38-1.58c-.01-.05 0-.1.03-.13.26-.3.37-.69.34-1.13-.03-.52-.2-.86-.47-1-.18-.1-.53-.13-1.05-.12l-.4.01c-.04 0-.07.02-.07.07v3.88c0 .02.02.03.04.03h.61c.03 0 .04 0 .04-.03v-.62Zm.08-2.48c-.05 0-.07.02-.07.06l.01.66c0 .05.02.07.07.07h.17c.1 0 .18-.04.25-.11.07-.08.1-.16.1-.26v-.07c0-.1-.03-.19-.1-.26a.35.35 0 0 0-.27-.1h-.16Z" fill="#EE1821"/><path d="M34.65 29.37c.05.05.02.14-.1.26-.02.04-.06.04-.1.02a.17.17 0 0 1-.08-.08c-.02-.04-.02-.08.02-.1.12-.12.2-.14.26-.1Z" fill="#02ADF0"/><path fill-rule="evenodd" d="M25.64 32h.44c.03 0 .05-.01.06-.04l.12-.7c0-.03.02-.05.05-.05h.52c.03 0 .05.02.05.05l.12.68c0 .03.03.04.06.04h.59c.04 0 .06-.01.05-.05l-.68-3.84c0-.03-.02-.09-.05-.09h-.64c-.03 0-.05.01-.05.04l-.69 3.87c0 .04.01.09.05.09Zm.81-1.68c0 .02.02.04.04.04h.19c.03 0 .04-.02.04-.05v-.01c0-.66-.05-1-.13-1h-.03c-.08.01-.12.34-.1 1v.02Z" fill="#EE1821"/><path d="M33.88 33H22.16a.07.07 0 0 0-.08.06c0 .05.03.08.08.08h11.72c.04 0 .07-.03.07-.07a.07.07 0 0 0-.07-.08Z" fill="#EE1821"/><path d="M47.43 21.22c-6.51-6.1-24.3-2.15-32.39.6 14.89-3.48 27.82-3.39 29.81.82 1.6 3.36-4.76 7.34-8.14 8.91 4.78-1.61 13.62-5.94 10.72-10.33Z" fill="#FD0003"/><path d="M8.57 34.78c6.51 6.1 24.3 2.15 32.39-.6-14.89 3.48-27.82 3.39-29.81-.82-1.6-3.36 4.76-7.34 8.14-8.91-4.78 1.61-13.62 5.94-10.72 10.33Z" fill="#02ADF0"/></svg>