<!-- by TradingView --><svg width="56" height="56" viewBox="0 0 56 56" xmlns="http://www.w3.org/2000/svg"><path fill="#F0F3FA" d="M0 0h56v56H0z"/><ellipse cx="28" cy="28" rx="20" ry="13" fill="#ED1B23"/><path d="M15 19h14.75c-1.07.46-3.46 1.95-3.75 4.27V38h-5V24h-6v-5Z" fill="#FFF100"/><path d="M33 31a6 6 0 1 0-6-6v13h5v-7.08c.33.05.66.08 1 .08Z" fill="#2E3092"/><path fill="#FFF100" fill-opacity=".5" d="M32 33h10v3H32z"/><path d="m29.52 23.56.2-.26c.26-.37.64-.68.98-.97.09-.05.17-.12.26-.2.43-.36 1.05-.63 1.68-.96.11-.05.24-.1.38-.11.17-.03.34-.1.51-.03.24.08.51.25.83.49.68.52 1.3 1.2 1.88 2.06.12.19.15.43.27.59.03.05.05.04.05-.02 0-.19-.02-.32-.05-.4-.07-.2-.02-.25.14-.17.1.04.35.13.35.35 0 .33-.05.61-.17.83-.03.06-.03.14-.02.26.12.84.18 1.54-.27 2.25-.23.37-.4.73-.64.85-.42.22-1.03.2-1.46.1-.02 0-.07 0-.13.03a.35.35 0 0 0-.1.07c-.4.38-.72.79-1.2.65a.83.83 0 0 0-.32-.02c-.03 0-.06 0-.1-.03-.3-.23-.52-.47-.67-.7-.02-.04-.04-.04-.07-.02a.6.6 0 0 1-.5.12l-.83-.16c-.11-.01-.24-.1-.39-.25-.1-.12-.24-.17-.36-.24-.25-.15-.38-.39-.39-.71a.11.11 0 0 0-.04-.1c-.25-.18-.35-.44-.3-.79 0-.04.02-.06.06-.08a.52.52 0 0 1 .25-.03h.01l.01-.01.01-.02v-.04l-.02-.02a.95.95 0 0 0-.26-.06c-.05 0-.08-.04-.08-.1-.05-.47.01-.92.2-1.34l.05-.07a.21.21 0 0 0 .05-.1l.2-.64Zm3.3-1.91c0-.02.01-.03.03-.04a.1.1 0 0 1 .04-.02h.04a.1.1 0 0 1 .04.02c.16.14.27.28.32.42.09.22.17.22.24-.01a.67.67 0 0 0-.02-.3c-.04-.18-.17-.32-.28-.48a.25.25 0 0 0-.09-.09.21.21 0 0 0-.22.02.27.27 0 0 0-.08.1c-.05.09-.1.2-.13.3-.02.07 0 .12.04.16a.02.02 0 0 0 .02 0l.05-.08Zm1.15.92h-.15c-.03-.01-.06 0-.08.02-.06.07-.06.16-.01.27.18.38.44.47.77.27.03-.02.05-.05.05-.08.01-.31-.05-.6-.17-.87-.07-.17-.28-.24-.46-.34a.12.12 0 0 1-.03-.03.15.15 0 0 1-.03-.04.69.69 0 0 0-.24-.38c-.06-.04-.08-.03-.05.06L34 22.5c.01.03 0 .05-.02.06Zm-2.27 3.97c-.08-.53-.01-1.04-.5-1.33a2.82 2.82 0 0 0-.64-.28h-.1c-.24.11-.45.1-.65-.02-.14-.1-.26-.31-.36-.42-.03-.03-.04-.02-.05.02 0 .05 0 .1.03.14.2.37.47.51.8.45h.06a.1.1 0 0 1 .04.04l.03.05v.06c-.15.92.1 1.59.72 2 .23.16.54.17.75.33.03.02.06.01.08-.02.28-.35.54-.57.76-.65.1-.04.28-.05.58-.03.12.01.25.07.37.17.31.26.67.43 1.06.5.2.03.32.05.46-.15.17-.27.25-.55.25-.85a.2.2 0 0 0-.05-.13.14.14 0 0 0-.1-.05h-.39l-.02-.02v-.03l-.01-.03c.01-.13.07-.39.05-.56a.46.46 0 0 0-.06-.17 4.3 4.3 0 0 1-.44-.65.07.07 0 0 0-.04 0h-.28l-.02-.01-.03-.02-.01-.03a.1.1 0 0 1 0-.03c.01-.27.07-.49-.07-.76-.2-.4-.4-.87-.58-1.43-.05-.13-.23-.4-.53-.82-.03-.03-.05-.03-.06 0-.31.6-.66 1.18-1.05 1.73a.26.26 0 0 0-.03.24 24.5 24.5 0 0 1 .75.5c.27.15.33.3.39.62.04.25.06.5.04.77 0 .1-.02.1-.04 0-.12-.56-.07-1.02-.61-1.26l-.64-.31a.17.17 0 0 0-.2.03.12.12 0 0 0-.03.04c-.02.05 0 .09.03.11.22.13.67.36.78.66.12.3.3.9.22 1.24h-.05v-.03c-.01-.33-.19-1.13-.5-1.28-.28-.13-.5-.24-.63-.35a.13.13 0 0 0-.1-.03.14.14 0 0 0-.08.05l-.04.04c-.06.08-.05.14.03.18.2.13.39.21.5.4.25.37.31.93.29 1.36-.02.26-.05.26-.08.02Zm2.88-2.47c.03.08.02.16-.02.23l-.14.3a.17.17 0 0 0 .02.17c.4.48.75 1.04 1.07 1.68.1.2.07.53-.11.97-.03.07 0 .1.07.1h.03c.05 0 .09-.04.12-.09.51-.82.64-1.96.16-2.84-.2-.34-.64-1.15-1-1.1-.04 0-.07 0-.1-.02-.17-.12-.4-.15-.68-.1-.03.01-.05.04-.06.08-.02.2.04.38.16.53.03.03.05.04.09.03.17-.06.34-.15.4.06Zm-1.65 3.84c-.02.25-.03.49-.03.74 0 .08.02.1.06.03.16-.23.25-.47.27-.74.02-.26-.03-.52-.15-.77-.04-.08-.07-.07-.08.01l-.07.73Z" fill="#FEFEFE"/></svg>