<!-- by TradingView --><svg width="56" height="56" viewBox="0 0 56 56" xmlns="http://www.w3.org/2000/svg"><path fill="#F0F3FA" d="M0 0h56v56H0z"/><path d="M30.38 17.33c.32-.1.31-.14-.02-.1-5.7.64-12.02 2.59-16.54 6.24a.4.4 0 0 1-.2.1c-.09.01-.11-.02-.07-.1 1.84-3.68 4.12-7.09 7.84-9.02 4.48-2.33 9.47-1.65 13.98.63.08.04.16.05.25.04 3.55-.31 7.8-.23 11.34.96a.06.06 0 0 1 .04.07.06.06 0 0 1-.05.05c-8.48 1.11-17.8 4.77-23.57 11.26-2.5 2.8-5.37 7.08-4.1 10.92a6.45 6.45 0 0 0 2.66 3.42l-.03.08c-.02.03-.04.04-.08.02a15.3 15.3 0 0 1-7.86-8.65c-.06-.16-.12-.16-.2-.01-1.21 2.51-.99 5.55 1.72 6.99a.09.09 0 0 1 .01.15.09.09 0 0 1-.05.01c-.28 0-.54-.07-.77-.2-2.93-1.61-4.1-4.03-3.54-7.23.65-3.7 3.51-7.2 6.5-9.52a30.11 30.11 0 0 1 7.87-4.4c1.34-.52 2.97-1.08 4.87-1.71Z" fill="#203366"/><path d="M42.28 31.9c-.05.19.02.24.2.16.96-.46 1.83-1.05 2.63-1.79.61-.56.71-.48.31.25-2.21 4-5.63 6.45-10.25 7.35-3.88.76-7.32-.33-7.82-4.81-.21-1.88.6-3.78 1.68-5.28 2.64-3.68 7.1-6.2 11.32-7.69.1-.03.18 0 .23.07 2.29 3.41 2.57 7.84 1.7 11.73Z" fill="#327FC1"/><path d="M23.08 34.6a7.48 7.48 0 0 0 4.5 5.6c2.55 1 5.34.86 8.05.24.43-.1.46-.02.1.23-2.5 1.74-5.47 2.7-8.48 2.2-4.13-.71-5.34-4.63-4.5-8.27.12-.55.23-.55.33 0Z" fill="#203366"/></svg>