<!-- by TradingView --><svg width="56" height="56" viewBox="0 0 56 56" xmlns="http://www.w3.org/2000/svg"><path fill="#226B46" d="M0 0h56v56H0z"/><path d="M27.18 11.66c-.04-.05-.04-.1.02-.14l.36-.3c.33-.28.6-.3.82-.05l.17.19c.22.24.16.5-.17.78l-.36.3c-.06.04-.1.04-.15-.02l-.69-.76ZM27.4 12.78l-.74-.66a.15.15 0 0 0-.2 0l-.9.93a.13.13 0 0 0 .01.2l.74.65c.06.06.15.05.2 0l.9-.92a.14.14 0 0 0-.01-.2ZM29.27 12.13l-.73.66a.13.13 0 0 0 0 .2l.9.9c.06.06.15.06.2.01l.73-.66a.13.13 0 0 0 0-.2l-.9-.9a.14.14 0 0 0-.2-.01ZM27.99 13.5a8.14 8.14 0 0 1 1.1 1.13c.2.25.19.5-.02.74l-1 1.2H27.9l-1.02-1.19c-.2-.24-.21-.48-.02-.73.37-.47.7-.84 1-1.11.02-.02.07-.04.13-.04ZM32.3 15.88c.03.07.02.12-.04.16l-.36.21c-.43.25-.7.3-.8.13l-1.05-1.64c-.1-.17.05-.38.48-.63l.36-.21c.06-.05.12-.03.16.03l1.25 1.95ZM23.87 16.12c-.16-.09-.2-.21-.1-.36l.88-1.53c.17-.3.43-.36.78-.17l.08.04c.35.19.43.43.26.72l-.88 1.54c-.1.15-.22.18-.38.1l-.64-.34ZM30.08 19.7c-.08.05-.15.03-.2-.05l-1.16-1.96a.56.56 0 0 1 0-.6l.72-1.19c.17-.27.34-.27.53-.02.64.88 1 1.9 1.08 3.05a.33.33 0 0 1-.2.34l-.77.43ZM25.86 19.71l-.77-.43a.33.33 0 0 1-.19-.34A5.71 5.71 0 0 1 26 15.9c.18-.26.36-.25.52.02l.71 1.18c.12.2.12.4 0 .61l-1.17 1.95c-.05.08-.12.1-.2.05ZM23.9 18.94l-.48-.25c-.12-.06-.17-.16-.16-.29l.17-1.37c.02-.2.12-.26.31-.16l.55.27c.08.04.12.11.11.2l-.17 1.43c-.02.2-.13.26-.32.17ZM31.98 18.95c-.2.08-.31.02-.32-.2l-.08-1.45c0-.09.04-.15.12-.19l.57-.25c.2-.08.3-.02.31.18l.08 1.4c0 .13-.05.23-.18.29l-.5.22ZM27.97 18.18l.07.04c1.34 1.15 1.83 2.45 1.46 3.9-.2.89-.72 1.33-1.53 1.33-.8 0-1.3-.44-1.52-1.32-.36-1.46.13-2.76 1.47-3.91l.05-.04ZM25.66 20.36l.12 2.29c0 .06-.02.08-.06.06a5.2 5.2 0 0 1-2.46-2.95c-.06-.17.01-.25.2-.23.8.06 1.52.28 2.14.66.04.02.06.08.06.17ZM30.29 20.36c0-.1.02-.15.05-.17a4.8 4.8 0 0 1 2.16-.65c.18-.02.25.06.2.23a5.2 5.2 0 0 1-2.48 2.94c-.04.02-.06 0-.06-.06l.13-2.29ZM37.43 20.44l-1.53.37a.2.2 0 0 0-.15.23l.15.55c.02.1.13.17.24.14l1.53-.36a.2.2 0 0 0 .14-.23l-.14-.56a.2.2 0 0 0-.24-.14ZM15.44 22c-.11.02-.2 0-.24-.08l-.39-.67a.25.25 0 0 1 0-.25.28.28 0 0 1 .2-.15l2.08-.3c.24-.04.37.05.4.28l.1.6c.03.17-.05.27-.22.3l-1.93.28ZM20.07 21.75c-.02.07-.06.1-.14.09l-1.5-.32c-.21-.04-.29-.2-.23-.48l.03-.13c.06-.27.2-.39.42-.34l1.5.3c.07.02.1.07.09.15l-.17.73ZM40.53 21.93l-1.91-.27c-.17-.02-.24-.11-.22-.27l.1-.6c.03-.22.16-.32.39-.29l2.05.29c.1.01.17.06.21.14.05.09.05.17 0 .25l-.39.66c-.04.08-.12.1-.23.09ZM34.94 23.56l-2.22.82c-.06.02-.09 0-.07-.04a5.14 5.14 0 0 1 2.13-3.16c.15-.1.25-.07.3.1.18.76.2 1.48.01 2.17 0 .04-.06.07-.15.11ZM21.06 23.64c-.1-.04-.15-.07-.16-.1-.18-.71-.16-1.44.04-2.2.04-.18.14-.21.29-.1a5.19 5.19 0 0 1 2.14 3.2c.01.05-.01.06-.08.04l-2.23-.84ZM41.51 22.06l.38-.63c.1-.15.22-.2.4-.13l1 .36c.15.06.2.17.1.31l-.37.63c-.1.15-.22.2-.4.13l-1-.36c-.16-.06-.2-.17-.1-.31ZM13.13 22.84l-.48-.8c-.08-.12-.05-.2.09-.26l.9-.38c.2-.09.34-.04.45.14l.35.58c.08.13.05.25-.08.34-.33.23-.67.39-1.03.47-.09.02-.16 0-.2-.09ZM20.37 23.62c.02.1-.02.15-.1.17l-2.3.46a.61.61 0 0 1-.6-.2l-.95-1.02c-.21-.23-.17-.4.15-.48a6.3 6.3 0 0 1 3.34-.05c.15.04.24.13.27.28l.2.84ZM35.66 23.53l.18-.83a.34.34 0 0 1 .28-.28 6.3 6.3 0 0 1 3.32.07c.31.09.36.25.14.48l-.94 1a.6.6 0 0 1-.6.2l-2.28-.48c-.09-.02-.12-.07-.1-.16ZM12.13 22.48l.4.67c.06.1.04.18-.07.22l-.75.32c-.17.07-.3.03-.38-.12l-.29-.49c-.07-.1-.05-.2.06-.28.28-.19.57-.32.86-.39.08-.01.13 0 .17.07ZM44.28 23.66l-.7-.36c-.1-.06-.13-.13-.06-.23l.46-.65c.1-.14.23-.17.38-.09l.52.27c.12.05.15.14.1.27-.13.3-.3.56-.51.76-.06.05-.12.06-.19.03ZM39.4 24.49v-.02l-.01-.06.85-1.29c.17-.26.4-.35.72-.25.57.2 1.04.38 1.4.57.03.02.05.05.07.1v.1c-.17.36-.43.78-.78 1.26-.18.25-.42.33-.73.21l-1.48-.54-.03-.06a.1.1 0 0 1-.01-.02ZM16.54 24.55c0 .01 0 .03-.02.04l-.03.03c-.57.34-1.14.54-1.7.61a.3.3 0 0 1-.29-.1 5.71 5.71 0 0 1-.78-1.13c-.1-.18-.13-.3-.11-.36.02-.07.12-.14.3-.23.42-.2.86-.37 1.33-.47a.3.3 0 0 1 .3.07 4.23 4.23 0 0 1 1.01 1.5.1.1 0 0 1 0 .04ZM43.31 23.9l.89.38c.14.05.17.14.1.27l-.5.82c-.1.19-.25.23-.45.15l-.65-.27c-.15-.06-.2-.17-.14-.32.12-.38.3-.7.53-.97.06-.07.14-.09.22-.05ZM12.68 23.92l-.92.52a.1.1 0 0 0-.04.14l.7 1.16c.03.05.1.07.15.04l.92-.52a.1.1 0 0 0 .04-.14l-.7-1.16a.11.11 0 0 0-.15-.04ZM32.62 26.64c-.25-.73.02-1.33.82-1.8 1.32-.78 2.75-.74 4.3.12l.06.05-.03.05c-.71 1.58-1.84 2.43-3.38 2.56-.93.08-1.52-.25-1.77-.98ZM23.4 26.67c-.24.74-.82 1.07-1.76 1-1.54-.1-2.68-.95-3.41-2.52-.02-.03-.03-.06-.02-.07l.05-.03c1.54-.88 2.97-.94 4.3-.17.8.46 1.08 1.06.84 1.79ZM37 27.45c-.06-.06-.07-.13 0-.2l1.53-1.66a.6.6 0 0 1 .6-.2l1.37.28c.32.06.38.22.19.47a6 6 0 0 1-2.63 1.94.35.35 0 0 1-.39-.07l-.66-.56ZM19.04 27.47l-.66.57a.36.36 0 0 1-.4.07 6.02 6.02 0 0 1-2.64-1.93c-.2-.25-.14-.4.18-.47l1.38-.28a.6.6 0 0 1 .6.18l1.55 1.67c.06.06.06.13-.01.19ZM41.91 25.91c.08-.07.16-.1.25-.06l.72.3a.26.26 0 0 1 .08.44l-1.47 1.42c-.17.16-.33.16-.5 0l-.44-.43c-.13-.12-.13-.24 0-.35l1.36-1.32ZM13 26.59c-.05-.06-.05-.11.01-.17l.22-.19c.43-.37.73-.46.9-.28l1.27 1.35c.17.18.04.46-.39.83l-.22.19c-.06.05-.11.05-.17 0l-1.61-1.73ZM19.62 27.84l2.33.6c.07.01.08.04.04.07a5.56 5.56 0 0 1-3.72 1.38c-.18 0-.24-.09-.17-.25.31-.73.75-1.33 1.32-1.8.03-.03.1-.03.2 0ZM36.35 27.77c.1-.03.16-.03.18 0 .57.45 1.01 1.03 1.32 1.74.08.16.02.25-.16.25a5.45 5.45 0 0 1-3.65-1.31c-.05-.03-.03-.06.03-.08l2.28-.6ZM38.42 28.6l1.35-.58a.2.2 0 0 1 .23.04l.43.42c.15.14.13.25-.06.33l-1.3.56a.28.28 0 0 1-.33-.06l-.38-.37c-.15-.15-.13-.26.06-.34ZM17.38 29.55c-.03.06-.07.07-.13.05l-1.3-.54c-.35-.15-.46-.36-.33-.65l.02-.05c.13-.29.37-.36.72-.22l1.3.55c.06.02.08.06.05.11l-.33.75ZM34.65 33.03l-1.5-1.78c-.04-.05-.03-.08.02-.08a5.52 5.52 0 0 1 3.8.98c.15.1.14.2-.02.3a4.8 4.8 0 0 1-2.14.7c-.04 0-.1-.04-.16-.12ZM21.46 33.1c-.07.08-.12.11-.15.11a4.9 4.9 0 0 1-2.17-.7c-.15-.1-.16-.2-.01-.3a5.56 5.56 0 0 1 3.84-.98c.05 0 .05.03 0 .08l-1.51 1.8ZM25.23 31.9c.64.45.78 1.1.41 1.92-.6 1.38-1.8 2.15-3.6 2.31h-.06l-.03-.07c-.37-1.69.04-3.01 1.23-3.98.72-.59 1.4-.65 2.05-.19ZM30.88 31.86c.65-.46 1.33-.4 2.04.19 1.19.96 1.6 2.29 1.23 3.97a.25.25 0 0 1-.03.08l-.06-.01c-1.79-.16-2.98-.92-3.6-2.3-.36-.83-.22-1.47.42-1.93ZM37.39 33l-.48.27a.22.22 0 0 0-.08.3l.77 1.3c.06.1.2.13.32.07l.47-.26c.12-.07.15-.2.09-.31l-.77-1.28a.24.24 0 0 0-.32-.09ZM19.21 33.25c.22.04.27.14.15.32l-.78 1.24c-.04.08-.11.1-.2.1l-.62-.11c-.21-.04-.26-.14-.15-.32l.75-1.2c.07-.1.17-.15.3-.13l.55.1ZM21.2 33.73c.1.01.14.06.13.15l-.25 2.23a.57.57 0 0 1-.37.5l-1.29.54c-.3.12-.44.03-.43-.28.01-1.06.34-2.08.97-3.06.08-.12.2-.18.36-.17l.88.1ZM34.9 33.7l.88-.09c.15-.02.27.04.35.16.64.97.97 1.98 1 3.04 0 .31-.14.4-.44.28l-1.29-.54a.56.56 0 0 1-.37-.48l-.26-2.21c0-.1.03-.14.13-.16ZM30.91 35.63c.06.09.08.14.06.18a4.5 4.5 0 0 1-1.32 1.75c-.13.12-.23.1-.3-.07-.44-1.2-.39-2.45.16-3.77.02-.04.04-.04.08.02l1.32 1.9ZM25.2 35.68l1.32-1.91c.03-.05.06-.06.08-.01a5 5 0 0 1 .17 3.78c-.06.17-.16.19-.3.07a4.5 4.5 0 0 1-1.33-1.76c-.02-.03 0-.09.06-.17ZM18.1 37.72c-.02.1-.08.17-.16.19l-.78.15c-.1.01-.18-.01-.25-.08a.25.25 0 0 1-.08-.24l.35-1.98c.04-.22.18-.32.41-.28l.62.1c.17.03.24.13.22.3l-.33 1.84ZM38.01 37.67l-.3-1.85c-.02-.16.05-.25.22-.28l.62-.1c.24-.03.37.06.4.29l.33 1.99c.01.09-.02.17-.09.24a.27.27 0 0 1-.25.06l-.77-.15c-.09-.03-.14-.09-.16-.2ZM24.62 36.1l.36.8c.06.13.04.26-.06.38a6.07 6.07 0 0 1-2.73 1.84c-.3.1-.44 0-.41-.31l.14-1.36c.03-.23.15-.4.37-.5l2.14-.91c.08-.04.15-.02.19.07ZM31.47 36.06c.04-.08.1-.1.19-.07l2.13.9c.22.09.35.25.37.48l.16 1.36c.03.3-.1.41-.41.31a6.08 6.08 0 0 1-2.74-1.82.32.32 0 0 1-.06-.37l.36-.79ZM35.06 37.4h.01l.06-.03 1.56.35c.32.07.48.26.48.57 0 .6-.02 1.08-.1 1.47 0 .03-.03.07-.07.1a.14.14 0 0 1-.1.03c-.4-.04-.9-.13-1.5-.29-.3-.08-.46-.28-.45-.6l.04-1.53a85.23 85.23 0 0 1 .07-.06ZM21.06 37.5l.06.05.06 1.52c0 .31-.14.51-.45.6-.58.16-1.07.26-1.48.3-.04 0-.08-.02-.12-.05a.12.12 0 0 1-.05-.08 7.49 7.49 0 0 1-.11-1.45c0-.31.16-.5.47-.58l1.54-.36a.4.4 0 0 1 .08.04ZM26.15 38.28l-.58-.52a.12.12 0 0 0-.16 0l-1.18 1.21a.1.1 0 0 0 .01.16l.57.52c.05.04.12.04.17 0l1.17-1.21a.1.1 0 0 0 0-.16ZM31.85 38.87c.09.1.09.18-.01.27l-.35.32c-.18.16-.33.18-.45.05l-.99-1c-.12-.13-.1-.27.08-.43l.35-.32c.1-.09.19-.08.27 0l1.1 1.11ZM17.99 38.69l-.8.03a.2.2 0 0 0-.2.2l.05 1.19c0 .1.1.19.21.18l.8-.03c.12 0 .2-.1.2-.2l-.05-1.18c0-.11-.1-.2-.21-.19ZM39 38.72l-.86-.09a.2.2 0 0 0-.23.18l-.13 1.12a.2.2 0 0 0 .19.22l.85.09a.2.2 0 0 0 .22-.18l.13-1.12a.2.2 0 0 0-.18-.22ZM32.34 39.44c.07-.17.2-.21.37-.14l1.75.75c.27.12.33.34.19.66l-.08.16c-.15.32-.36.42-.63.3l-1.75-.74c-.17-.08-.22-.2-.14-.36l.3-.63ZM21.34 40.33c-.02-.07 0-.11.06-.14l1.8-.72c.36-.14.6-.04.75.3l.05.11c.15.34.04.58-.31.72l-1.8.71c-.08.03-.12 0-.15-.06l-.4-.92ZM19.27 41.66v-.8c0-.07.05-.12.16-.16l1.03-.32c.17-.05.27.02.3.21l.08.68c.04.25-.07.4-.3.43l-.95.18c-.21.03-.32-.04-.32-.22ZM36.83 40.62l-1.26-.24a.14.14 0 0 0-.17.11l-.2.97c-.01.07.04.15.11.16l1.27.24c.07.02.15-.03.17-.1l.2-.97a.14.14 0 0 0-.12-.17ZM18.62 41.84c.01.07-.02.1-.09.11l-.46.04c-.43.04-.66-.1-.69-.44l-.02-.2c-.03-.33.17-.51.6-.55l.46-.04c.07 0 .1.03.12.1l.08.98ZM38.6 40.87c.15.03.21.12.18.26l-.08.4c-.08.36-.28.51-.6.45l-.26-.05c-.32-.06-.45-.28-.37-.64l.08-.4c.03-.14.12-.2.26-.17l.8.15Z" fill="#C3A43F"/></svg>