<!-- by TradingView --><svg width="56" height="56" fill="none" xmlns="http://www.w3.org/2000/svg"><path fill="#F0F3FA" d="M0 0h56v56H0z"/><path fill-rule="evenodd" clip-rule="evenodd" d="M19.197 22.96a.472.472 0 0 0 .464-.48.472.472 0 0 0-.464-.48.472.472 0 0 0-.463.48c0 .265.207.48.463.48ZM5 25.24h.267c0-1.472.828-1.938 1.242-1.986H7v6.466H6V30h3v-.28H8v-6.466h.573c.877 0 1.194 1.325 1.23 1.987H10V23H5v2.24Zm5.46-1.957V23H12v1.74c.268-.373.677-.74 1.189-.74.778 0 1.032 1.121 1.062 1.682v4.09h.604V30h-2.02v-.227h.605v-4.38c.02-.363-.05-1.09-.487-1.09-.388 0-.766.563-.953 1.312v4.146h.546V30h-2.094v-.239H11v-6.478h-.54Zm18.881 0V23H31v6.761h.703V30h-2.371v-.239H30v-6.478h-.659Zm-9.102 0V23H22v1.724c.305-.367.764-.724 1.338-.724.884 0 1.172 1.121 1.205 1.682v4.09h.687V30h-2.294v-.227h.686v-4.38c.023-.363-.055-1.09-.552-1.09-.432 0-.854.542-1.07 1.27v4.188h.607V30H20.23v-.239H21v-6.478h-.76ZM38.274 24v.286H39v5.473h-.735V30h2.094v-.241H40v-4.591c.226-.516.558-.866.896-.866.484 0 .56.724.537 1.086v4.36h-.667v.226h2.183c.107.67.747 1.026 1.475 1.026.8 0 1.88-.502 1.88-1.731 0-.983-.564-1.269-.845-1.269h-1.567c-.286 0-.518-.188-.518-.47 0-.281.232-.53.518-.53H44.599l-.004-.001c.741-.034 1.332-.692 1.332-1.499 0-.314-.09-.606-.242-.846a.347.347 0 0 1 .35-.222c0 .41.189.438.285.438.097 0 .286-.043.286-.293s-.199-.51-.53-.51c-.214 0-.463.172-.619.31a1.332 1.332 0 0 0-.922-.377c-.769 0-1.392.672-1.392 1.5 0 .53.255.997.641 1.263-.35.132-.76.418-.76.932 0 .672.462 1.064.693 1.177-.258.032-.771.252-.784.876h-.605v-4.074c-.032-.558-.312-1.674-1.171-1.674-.474 0-.868.257-1.157.558V24h-1.726Zm-22.992.83c.044-.17.216-.83 1.416-.83 1.076 0 1.295 1.04 1.302 1.561v3.86c-.01.123.174.37.724.37V30h-.917c-.168.004-.684-.083-.788-.443-.256.226-.576.443-.836.443-.508 0-1.183-.161-1.183-1.703 0-1.36.524-1.468 1.072-1.58a5.24 5.24 0 0 0 .22-.05c.266-.066.513-.143.708-.21v-1.59c0-.041.003-.09.006-.143.017-.234.04-.536-.308-.536a.638.638 0 0 0-.666.607c.031.17.004.512-.357.512-.362 0-.42-.293-.405-.44a.16.16 0 0 0 .012-.038ZM17 26.78c-.443.089-1.126.283-1.126 1.448 0 1.175.279 1.48.418 1.486.298 0 .533-.21.708-.483v-2.451Zm1-2.587V24h2v7.723c2.717-.44 5.842-.723 9.355-.723 2.877 0 5.42.193 7.645.509v-7.315h-.93V24H38v7.662c6.4 1.058 9.953 3.133 11.11 4.338-2.725-1.21-10.874-3.628-21.674-3.628-10.8 0-17.65 2.36-19.724 3.54 1.493-1.097 5.326-2.927 11.288-4.017v-7.7h-1ZM29 27c0 1.657-.895 3-2 3s-2-1.343-2-3 .895-3 2-3 2 1.343 2 3Zm-1.003 0c0 1.544-.22 2.796-.997 2.796-.778 0-.997-1.252-.997-2.796 0-1.544.238-2.796.997-2.796s.997 1.252.997 2.796Zm5.793-3.717V23h1.739v6.761h.547V30H34.53v-.324c-.237.207-.504.324-.788.324C32.78 30 32 28.657 32 27s.78-3 1.741-3c.284 0 .551.117.788.324v-1.041h-.739ZM34.5 27c0 1.544-.165 2.796-.75 2.796S33 28.544 33 27c0-1.544.18-2.796.75-2.796.57 0 .75 1.252.75 2.796ZM45 25.5c0 .772-.11 1.398-.5 1.398s-.5-.626-.5-1.398c0-.772.12-1.398.5-1.398s.5.626.5 1.398Zm.832 4.252c0 .503-.552.91-1.233.91-.68 0-1.232-.407-1.232-.91 0-.502.552-.91 1.232-.91.681 0 1.233.408 1.233.91Zm1.168.01v-1.317h.303c0 .957.484 1.367 1.115 1.367s.902-.819.902-1.22-.066-.556-.902-1.187c-.836-.63-1.279-1.056-1.279-1.784 0-.729.484-1.621 1.279-1.621.636 0 1.074.17 1.213.254v1.023h-.188c0-.516-.443-1.072-1.025-1.072-.465 0-.615.627-.631.941 0 .773.514 1.19.77 1.302.481.136 1.443.674 1.443 1.735C50 29.509 49.172 30 48.418 30A4.737 4.737 0 0 1 47 29.763Zm-8.467-7.282c0 .265-.208.48-.464.48a.472.472 0 0 1-.463-.48c0-.265.207-.48.463-.48s.464.215.464.48Z" fill="#0A4595"/></svg>