<!-- by TradingView --><svg width="56" height="56" viewBox="0 0 56 56" xmlns="http://www.w3.org/2000/svg"><path fill="#F0F3FA" d="M0 0h56v56H0z"/><path d="m21.22 15.83.42.42h.04l4.74-4.74c.4-.4.72-.66.94-.74a1.7 1.7 0 0 1 1.3.01c.22.09.49.3.8.62a809.97 809.97 0 0 0 3.83 3.82l.02-.01.42-.42v-.04l-3.79-3.79a4.3 4.3 0 0 0-.74-.63 2.42 2.42 0 0 0-2.96.43 3628.24 3628.24 0 0 1-5.03 5.06Zm6.33-3.84c.22-.22.6-.29.8-.07l4.11 4.1h.04l.43-.43a.02.02 0 0 0 0-.02v-.01l-3.78-3.77a2.8 2.8 0 0 0-.64-.53 1.12 1.12 0 0 0-.86-.06c-.22.07-.5.28-.87.64a16400.01 16400.01 0 0 0-4.76 4.8l.43.42a.03.03 0 0 0 .03 0l5.07-5.07Zm1.62 8.48a.05.05 0 0 0 .06 0l5.78-5.77a.06.06 0 0 1 .08 0l1.13 1.13c.04.04.04.07 0 .11l-3.8 3.81c-.04.03-.04.06 0 .1l3.76 3.76a.05.05 0 0 0 .07 0l2.33-2.33c.02-.02.04-.02.07 0l1.16 1.17a.05.05 0 0 1 0 .06l-7.72 7.73c-.05.04-.09.04-.13 0l-1.12-1.13a.06.06 0 0 1-.02-.04c0-.02 0-.03.02-.05l4.13-4.13v-.01a.04.04 0 0 0 0-.05l-3.78-3.77-.02-.02a.06.06 0 0 0-.05 0l-.02.02-.98 1c-.4.4-.78.64-1.29.43a1.68 1.68 0 0 1-.47-.37 737.9 737.9 0 0 0-1.95-1.98.06.06 0 0 1 .01-.04l1.11-1.11c.06-.05.1-.05.16 0l1.48 1.48Zm-10.95-.9 1.5-1.5c.03-.02.05-.02.08 0l2.73 2.74a.04.04 0 0 1 0 .05l-6.98 6.98c-.2.2-.28.45-.25.74.11.8 1 .97 1.54.43l6.93-6.92c.01-.02.03-.02.04 0l5.04 5.03c.26.27.55.36.87.27.19-.05.41-.2.68-.47a307.04 307.04 0 0 0 1.38-1.4.04.04 0 0 0-.01-.04l-1.24-1.24c-.03-.03-.06-.03-.1 0l-.97.97-.03.02c-.01 0-.02 0-.03-.02l-8.78-8.78c-.21-.2-.37-.34-.5-.4-.53-.24-.87.06-1.28.46a5393.51 5393.51 0 0 1-1.86 1.9l.01.04 1.15 1.15c.03.02.06.02.08 0Zm17.91-2.36-.4.4a.04.04 0 0 0 0 .06l2.6 2.6c.02.02.04.02.06 0l.4-.4a.04.04 0 0 0 0-.06l-2.6-2.6a.04.04 0 0 0-.05 0Zm-1.2 1.2.4-.4a.04.04 0 0 1 .06 0l2.6 2.6v.06l-.41.4a.04.04 0 0 1-.06 0l-2.6-2.59a.04.04 0 0 1 0-.06ZM15.2 33.3l-.42.43h-.04l-3.7-3.7c-.45-.45-.73-.8-.84-1.04-.4-.92-.2-1.97.53-2.7a2950.28 2950.28 0 0 1 6.45-6.44h.03l.42.43v.03l-6.4 6.4c-.57.57-.76 1.32-.4 2.07.07.15.26.38.57.69l3.8 3.8v.03ZM12 28.43c-.28-.27-.27-.61 0-.88l6.44-6.44v-.04l-.43-.42h-.04l-6.03 6.03c-.35.35-.54.56-.59.63-.26.42-.3 1.1.07 1.47a7868.43 7868.43 0 0 1 4.15 4.15l.02-.02.42-.43v-.03l-4.02-4.02Zm26.5 7.15c3.02-3.03 5.15-5.17 6.4-6.4.47-.48.59-1.32.29-1.92a2.33 2.33 0 0 0-.45-.58l-3.9-3.9a.1.1 0 0 1 0-.13l.37-.36c.02-.02.04-.02.06 0l4.03 4.02c.71.72.9 1.81.48 2.7a5.6 5.6 0 0 1-1.02 1.22l-5.8 5.81h-.04l-.43-.42v-.04Zm5.54-7.99c.23.23.23.59.02.8a8087 8087 0 0 1-6.38 6.4v.02l.43.43h.03l6.18-6.19c.25-.25.4-.45.46-.6.17-.47.07-.97-.29-1.33l-4.01-4.01c-.03-.03-.06-.03-.09 0l-.39.39-.01.03.01.03 4.04 4.03Zm-20.32 8.53a.05.05 0 0 0 .01-.04.05.05 0 0 0-.01-.03l-3.8-3.79a.04.04 0 0 0-.05 0l-2.81 2.82c-.03.03-.06.03-.09 0l-1.14-1.14c-.03-.03-.03-.07 0-.1l8.23-8.23a.04.04 0 0 1 .07 0l1.15 1.16.02.04c0 .02 0 .03-.02.05l-4.11 4.11-.01.02a.05.05 0 0 0 0 .03v.02l3.79 3.78a.05.05 0 0 0 .01.01.05.05 0 0 0 .04 0h.02l1.13-1.15c.22-.22.41-.35.57-.38.38-.08.64.06.92.34a6627.02 6627.02 0 0 0 2.07 2.09s0 .02-.02.03l-1.15 1.15c-.02.02-.04.02-.07 0l-1.52-1.52c-.02-.03-.04-.03-.06 0l-5.78 5.77a.06.06 0 0 1-.04.02l-.04-.02-1.13-1.13a.06.06 0 0 1 0-.1l3.82-3.81Zm9.85-1.08.01-.02 6.93-6.93a.9.9 0 0 0 .27-.9c-.16-.7-1.02-.84-1.48-.35a3338.54 3338.54 0 0 1-6.96 6.96h-.01a.03.03 0 0 1-.02 0l-5.08-5.08a.86.86 0 0 0-.83-.24c-.19.04-.4.19-.65.44a1308.74 1308.74 0 0 1-1.42 1.44.05.05 0 0 0 .02.04l1.3 1.3a.04.04 0 0 0 .02 0 .04.04 0 0 0 .03 0l.98-.98c.03-.03.06-.03.09 0l8.9 8.9c.25.25.54.34.86.28.18-.03.4-.19.66-.45a587.87 587.87 0 0 1 2-2.03c0-.02 0-.03-.02-.05l-1.16-1.15-.03-.01h-.03l-1.58 1.59-.03.01-.03-.01-2.73-2.73v-.03Zm-12.5 2.47-2.6-2.6a.04.04 0 0 0-.06 0l-.4.4a.04.04 0 0 0 0 .06l2.6 2.6h.05l.4-.4a.04.04 0 0 0 0-.06Zm-3.4-1.79 2.58 2.59c.02.02.02.05 0 .06l-.4.4a.05.05 0 0 1-.06 0l-2.59-2.59a.05.05 0 0 1 0-.06l.4-.4a.05.05 0 0 1 .06 0Zm9.94 8.33c.2.2.58.22.79 0l5.24-5.24h.04l.43.43v.03l-4.84 4.84c-.39.39-.68.61-.87.68-.28.1-.56.1-.84-.02a2.15 2.15 0 0 1-.63-.48l-3.85-3.84v-.06l.4-.39c.02-.03.05-.03.08 0l4.05 4.05Zm.14 1.95h.52a2.53 2.53 0 0 0 1.45-.73 11506.11 11506.11 0 0 1 5.2-5.22l-.43-.43c-.01-.02-.03-.02-.04 0l-4.78 4.78c-.44.44-.76.7-.97.8-.58.28-1.4.17-1.86-.3l-4.09-4.09c-.03-.03-.06-.03-.09 0l-.36.36c-.03.04-.03.07 0 .1l4.08 4.1c.36.35.87.56 1.37.63Z" fill="#093863"/></svg>