<!-- by TradingView --><svg width="56" height="56" viewBox="0 0 56 56" xmlns="http://www.w3.org/2000/svg"><path fill="#F0F3FA" d="M0 0h56v56H0z"/><path d="M44.93 11c.08.06.1.1.03.14a.05.05 0 0 1-.05 0c-.05-.04-.05-.08 0-.14h.02ZM11 11.14v-.1c.05-.01.09-.02.11 0a.05.05 0 0 1 .02.04.05.05 0 0 1-.02.04.17.17 0 0 1-.11.02Z" fill="#E54726"/><path d="M28.59 45H27.3a16.8 16.8 0 0 1-11.75-5.5A17.06 17.06 0 0 1 11 29.06V26.9A16.98 16.98 0 1 1 28.59 45Z" fill="#02AADB"/><path d="M35.7 21.5a7.98 7.98 0 0 0-5.53-1.74 5.3 5.3 0 0 0-2.39.72c-.5.3-.73.53-.92 1.06-.08.22-.16.4-.24.55-.08.13-.05.16.09.08l1.66-.99c1-.02 1.98.04 2.93.16.07.01.12.05.14.12.03.1.08.33.21.41.3.19.55.14.74-.14.05-.07.12-.1.2-.07 2.4.8 3.51 2.5 3.65 4.92.13 2.25-.46 4.1-2.42 5.37l-.98.67c-.15 0-.19.05-.13.14a7.36 7.36 0 0 1-3.65-.53.18.18 0 0 0-.13 0 .18.18 0 0 0-.1.1c-.46 1-1.51 2.28-2.64 2.53a.04.04 0 0 1-.06-.04l.01-.03c.42-.73.65-1.48.68-2.24.01-.38-.14-.72-.45-1.02-.03-.03-.02-.05.02-.06.49-.1.89-.26 1.2-.49.36-.26.76.05 1.03.3.17.16.34.2.53.15 1.42-.33 2.45-.92 2.51-2.56.03-.74.01-1.3-.06-1.68-.02-.1-.07-.11-.14-.05l-.32.28a.2.2 0 0 0-.07.2c.14.68.12 1.34-.05 2-.3 1.19-1.73 1.59-2.72 1.12-.39-.18-.8-.21-1.1-.11-.72.24-1.55.58-2.3.54-.16 0-.19.05-.08.17.41.43 1.22.4 1.5.88.2.35.15 1.02.07 1.4-.14.67-.98 1.28-1.54 1.6l-1.73 1.02c.09.23.09.23 0 0 .96-.44 1.96-.83 3-1.16a8.3 8.3 0 0 0 1.66-.77c.7-.42 1.14-1.01 1.3-1.79.02-.06.05-.07.1-.04.63.4 1.33.66 2.12.8l-1.6.58c-.15.05-.15.09 0 .12a3.69 3.69 0 0 0 1.72-.08l.04.03.02.04v.05L29.34 39h-8.6s-.02-.08-.04-.09a.1.1 0 0 1-.05-.08.1.1 0 0 1 .01-.04l1.26-2.68c.04-.08.02-.1-.07-.11h-3.91a.07.07 0 0 1-.07-.06v-.03l4.79-11.86a.04.04 0 0 0 0-.03.04.04 0 0 0-.03-.02h-3.97l2.6-5.93c.03-.09.1-.07.2-.07h15.31a.1.1 0 0 1 .08.04.1.1 0 0 1 .01.1L35.7 21.5Z" fill="#FAF9F4"/><path d="M35.7 21.5c.53.4 1 .87 1.41 1.4.01.02.04.04.09.06a.2.2 0 0 1 .08.06c.38.5.66 1.08.82 1.72.12.52.2 1.03.26 1.54 0 .08.06.14.05.23 0 .5-.03 1.02-.07 1.54a5.62 5.62 0 0 1-4.05 4.97c-.86.22-1.74.35-2.64.37-.23.01-.35-.02-.35-.1a5.92 5.92 0 0 1-2.12-.8c-.05-.04-.08-.03-.1.03-.16.78-.6 1.37-1.3 1.79-.5.3-1.04.57-1.66.77a29.57 29.57 0 0 0-3 1.15c.09.24.09.24 0 0l1.73-1c.56-.33 1.4-.94 1.54-1.62.08-.37.13-1.04-.07-1.39-.28-.49-1.09-.45-1.5-.88-.1-.12-.08-.18.08-.17.75.04 1.58-.3 2.3-.54.3-.1.71-.07 1.1.11 1 .47 2.41.07 2.72-1.12.17-.66.19-1.32.05-2a.2.2 0 0 1 .07-.2l.32-.28c.07-.06.12-.05.14.05.07.38.1.94.06 1.68-.06 1.64-1.1 2.23-2.5 2.56-.2.04-.37 0-.54-.15-.27-.25-.67-.56-1.03-.3-.31.23-.71.4-1.2.5-.04 0-.05.02-.02.05.31.3.46.64.45 1.02a4.75 4.75 0 0 1-.69 2.27.04.04 0 0 0 .03.04h.03c1.13-.25 2.18-1.52 2.64-2.54a.18.18 0 0 1 .1-.1h.13c1.13.49 2.35.66 3.65.54a4.67 4.67 0 0 0 3.6-2.32c.38-.65.65-1.4.8-2.27a7.44 7.44 0 0 0-1.26-5.76c-.23-.32-.56-.6-.82-.87-.22-.23-.48-.32-.65-.54-.03-.03-.07-.05-.13-.06-.03 0-.12-.05-.28-.14a3.35 3.35 0 0 0-2.13-.43 6.41 6.41 0 0 0-3.47.81l-1.66 1c-.14.07-.17.04-.09-.1.08-.14.16-.32.24-.54.19-.53.42-.77.92-1.06a5.3 5.3 0 0 1 2.39-.72c2.06-.11 3.9.47 5.53 1.74Z" fill="#E54726"/><path d="M31.13 26.5a.1.1 0 0 0 .08.06.1.1 0 0 0 .1-.03c.97-1.15 1.1-2.72 1.25-4.04.03-.2.06-.21.11 0 .12.47.2.67.13 1.09-.3 1.48-.75 2.7-1.93 3.67a.07.07 0 0 1-.06 0h-.03l-.02-.03c-.18-.43-.38-.85-.6-1.25-.88-1.67-2.4-2.28-4.22-2.39-.07 0-.07-.02-.02-.06.92-.57 2.5-.1 3.33.4a4.91 4.91 0 0 1 1.88 2.57Z" fill="#E54726"/><path d="M42.87 28.44c0-.9-.08-1.8-.24-2.66l1.14-.2a15.73 15.73 0 0 1-15.4 18.66c-2.15-.01-4.18-.44-6.04-1.22l.44-1.08c1.72.72 3.6 1.12 5.59 1.12 8.01 0 14.51-6.54 14.51-14.62Z" fill="#D9D9D9"/></svg>