<!-- by TradingView --><svg width="56" height="56" viewBox="0 0 56 56" xmlns="http://www.w3.org/2000/svg"><path fill="#F0F3FA" d="M0 0h56v56H0z"/><path d="M28.55 9c.7.18 1.26.64 1.7 1.4l15.37 27.1c.18.31.25.65.38.99v.96a2 2 0 0 1-1.05 1.24c-.31.15-.81.31-1.5.31-10.52-.03-21.05 0-31.58 0A2.33 2.33 0 0 1 10 39.04v-.36c.05-.38.17-.73.36-1.05l15.98-27.59c.32-.54.83-.88 1.55-1.04h.66Zm-.46 27s.01 0 0 0c0-.01.01 0 0 0 0 0 0 .01 0 0l-2.37 4.34a.12.12 0 0 0 0 .11l.04.04a2.73 2.73 0 0 0 19.13-.33c1.46-.89.19-2.71-.56-3.97-.04-.06-.09-.19-.16-.19H33.13l1.65-2.9a.07.07 0 0 0 0-.06.07.07 0 0 0-.06-.04h-4.66a.07.07 0 0 1-.06-.03.06.06 0 0 1 0-.06l6.23-10.88a.14.14 0 0 0 0-.14c-1.38-2.39-3.46-6.06-6.25-11.02-.37-.66-.66-1.04-.89-1.14-1.07-.47-1.88-.24-2.42.7-8.46 14.6-13.38 23.09-14.76 25.5-.07.1-.04.07.09.07h16.1Zm8.34-5.78a.09.09 0 0 0 .07.02l.04-.01.03-.03 2.14-3.76a.09.09 0 0 0 0-.07l-.24-.73a.09.09 0 0 0-.07-.06.08.08 0 0 0-.09.04L36 29.7a.09.09 0 0 0 .01.1l.42.43Z" fill="#271466"/><path d="M30.2 17.57c-.13.03-.41.1-.84.24-.5.15-.9.03-1.3-.1a6.77 6.77 0 0 0-.34-.1 2.85 2.85 0 0 0-2.04.16.17.17 0 0 1-.16 0 .15.15 0 0 1-.06-.06.14.14 0 0 1-.02-.08c.06-1.48 1.22-2.77 2.92-2.62a2.62 2.62 0 0 1 2.43 2.42c0 .03 0 .06-.02.09a.16.16 0 0 1-.08.05.57.57 0 0 1-.29 0 .52.52 0 0 0-.2 0Z" fill="#271466"/><path d="M25.93 18.62a.18.18 0 0 1-.2-.05.72.72 0 0 1-.18-.4c0-.06.02-.11.09-.15.8-.47 1.86-.34 2.69.02.38.17 1.06-.01 1.61-.16.2-.05.38-.1.53-.12.17-.03.25.03.25.18v.25c0 .17-.1.26-.28.28-.2.01-.4.07-.6.13a2 2 0 0 1-.75.13c-.3-.02-.6-.07-.9-.12-.76-.13-1.52-.26-2.26.01Z" fill="#271466"/><path d="M28.25 20c.8-.02 1.52-.4 2.14-1.16.14-.17.1-.22-.12-.16l-.7.22a.87.87 0 0 1-.26.04c-.26.02-.46.04-.7-.02-.8-.17-1.8-.38-2.62-.12a.1.1 0 0 0-.03.02.08.08 0 0 0-.02.04.08.08 0 0 0 0 .07A2.66 2.66 0 0 0 28.26 20Z" fill="#271466"/><path d="M22.85 25.63a.33.33 0 0 0-.21.08.35.35 0 0 0-.12.2c-.3 1.32.87 2.59.9 3.94.04 1.47-.9 2.98-2.47 3.07-.25.01-.51.08-.72.08h-5.58v-.05a.02.02 0 0 1-.02-.02l1.9-3.41a.3.3 0 0 1 .1-.12l.15-.03c1.08.02 2.6.03 4.56.01.13 0 .27-.1.42-.31.56-.8-.96-3.39-1.47-4.37-.62-1.19-.33-2.69 1.17-2.7h6.67l.04.01.03.03a.08.08 0 0 1 0 .08l-1.9 3.4a.2.2 0 0 1-.07.08.19.19 0 0 1-.1.03h-3.28Z" fill="#D35531"/><path d="M26.16 29.37c1.36.08 2.46.09 3.32.01.84-.07 1.58-1.48 1.68-2.2.14-1.01-.56-1.58-1.46-1.6a56.61 56.61 0 0 0-2.88.01.12.12 0 0 1-.05-.05.13.13 0 0 1 0-.13l1.85-3.32a.16.16 0 0 1 .05-.06 11.34 11.34 0 0 1 2.76.16c1.21.27 1.88 1.03 1.99 2.27.03.31-.13.93-.26 1.21-1 2.17-1.6 3.45-1.81 3.85-.7 1.37-1.88 3.47-3.4 3.48h-5.22l-.06-.01a.12.12 0 0 1-.05-.05.12.12 0 0 1 0-.12l2.59-4.67a.1.1 0 0 0-.04-.14.1.1 0 0 0-.05-.01h-1l-.04-.01a.08.08 0 0 1-.04-.1c.19-.48.47-.8.9-1.06.23-.15.67-.2 1.3-.17.78.04 1.61.06 2.51.07.17 0 .21.07.13.23l-.37.66a.68.68 0 0 1-.63.38h-1.02a.24.24 0 0 0-.12.04.25.25 0 0 0-.1.1l-.58 1.04c-.06.12-.03.19.1.2Z" fill="#D35531"/></svg>