<!-- by TradingView --><svg width="56" height="56" viewBox="0 0 56 56" xmlns="http://www.w3.org/2000/svg"><path fill="#F0F3FA" d="M0 0h56v56H0z"/><path d="M39.74 34.26 28.66 45.4c-.15.25-.36.45-.63.6a.1.1 0 0 1-.05.01l-.06-.01a1.77 1.77 0 0 1-.39-.3 4848.17 4848.17 0 0 0-17.48-17.63c-.07-.09-.07-.17.01-.25l8.96-9c.7-.7 1.46-1.46 2.3-2.27A485.67 485.67 0 0 0 27.94 10a.1.1 0 0 1 .09 0 2548.15 2548.15 0 0 0 17.96 17.88.2.2 0 0 1-.05.21l-6.2 6.16ZM28.1 10.82a.14.14 0 0 0-.2 0L10.94 27.87a.14.14 0 0 0 0 .19L27.9 45.1a.14.14 0 0 0 .2 0l16.96-17.04a.14.14 0 0 0 0-.2L28.09 10.82Z" fill="#009BFD"/><path d="M20.92 24.73c-1.35.34-2.27.47-2.96.66l-.16.04c-.19.09-.2.05-.06-.1L21 21.91v-3.83c0-.06.14-.09.2-.09h4.72c.05 0 .08.03.08.08v2.57a.08.08 0 0 0 .04.07.08.08 0 0 0 .07 0l1.82-.74a.37.37 0 0 1 .27 0l1.7.75h.07a.08.08 0 0 0 .03-.07v-2.57c0-.06.03-.09.1-.09h4.8c.07 0 .1.03.1.1v3.61c0 .06.02.11.06.15l3.36 3.5c.06.07.05.1-.04.07l-3.27-.72a.09.09 0 0 0-.1.04v.04L35 35h-4v3h-6v-3h-4V24.8a.07.07 0 0 0-.05-.07h-.03Zm7.14.84h.28c.07.01.12-.01.15-.06l.98-1.43c.03-.05.08-.08.13-.08h4.79c.38 0 .72.06 1.03.17l1 .35c.06.02.1.02.13-.02v-.04l-.01-.04-1.62-1.76a.48.48 0 0 0-.34-.14H30.2c-.02 0-.04 0-.05-.02l-.15-.1v-.96c0-.06-.09-.14-.15-.14h-.38c-.05 0-.09.02-.1.1l-.2.76c-.08.3-.2.54-.35.68-.22.22-.48.33-.76.33-.29 0-.54-.1-.77-.33-.15-.14-.2-.37-.27-.68l-.2-.77c-.01-.06-.05-.1-.1-.1h-.55c-.06 0-.16.04-.17.1v1c0 .02-.11.1-.13.11a.07.07 0 0 1-.05.02l-4.28.01a.48.48 0 0 0-.34.14l-1.62 1.77a.06.06 0 0 0-.02.03v.04c.03.04.07.05.14.02.35-.11.68-.23 1-.35.3-.1.65-.18 1.03-.18h4.37c.06 0 .1.03.14.08l1.38 1.43c.04.05.1.07.16.07l.28-.01ZM30 37V25.2c0-.06.06 0 0 0-.16-.03-.65-.1-.72.03l-.5.85a.15.15 0 0 1-.13.08 15.18 15.18 0 0 1-1.18 0 .15.15 0 0 1-.13-.08c-.04-.06-.61-.34-.91-.85-.07-.12-.18-.17-.34-.14-.06.01-.09.05-.09.1V37h4Z" fill="#009BFD"/></svg>