<!-- by TradingView --><svg width="56" height="56" viewBox="0 0 56 56" xmlns="http://www.w3.org/2000/svg"><path fill="#F0F3FA" d="M0 0h56v56H0z"/><path d="M46 28a18 18 0 1 1-36 0 18 18 0 0 1 36 0Z" fill="#034F66"/><circle cx="28" cy="28" fill="#0180CA" r="13.76"/><path d="M41.44 29.84c.02.36-.06.62-.24.77-3.52-.04-6.01-.04-7.47.02-.74.03-1.27-.07-1.58-.28-.13-.09-.25-.08-.37.02-.57.45-.95.98-1.15 1.57a.18.18 0 0 0 .17.24h10.03c.1.34 0 .62-.27.82H15.65c-.53-.18-.67-.44-.44-.8l10.17-.05c.16 0 .22-.08.17-.24a3.38 3.38 0 0 0-.96-1.45.45.45 0 0 0-.41-.1c-.67.2-1.2.3-1.57.28-2.56-.09-5.14-.1-7.75 0-.14.05-.27-.24-.37-.86l6.23.06a.28.28 0 0 0 .28-.28v-8.9a.17.17 0 0 0-.1-.15.17.17 0 0 0-.17.01l-1.54 1.15a.4.4 0 0 1-.27.06l-1.42-.13a.17.17 0 0 1-.1-.29 14.47 14.47 0 0 1 9.83-4.41c.28-.01.33.08.13.29l-.96 1.02c-.1.1-.22.18-.37.21-.84.2-3.03.68-3.03 1.83V29.64a.27.27 0 0 0 .26.17c.91-.03 1.74.32 2.2 1.05.2.33.35.3.43-.08.26-1.16.8-2.1 1.62-2.78a1 1 0 0 1 1.28 0 5.6 5.6 0 0 1 1.58 2.88.2.2 0 0 0 .16.14.18.18 0 0 0 .18-.09 2.65 2.65 0 0 1 2.05-1.12c.16-.01.24-.1.24-.26V18.88c0-.17-.09-.26-.25-.27-.55-.04-1.26-.02-1.75-.34l-1.58-1.1c-.28-.2-.25-.28.1-.25l5.21.5a.3.3 0 0 1 .2.1.3.3 0 0 1 .07.2v4.7c0 .38.2.58.58.58h2.08c.34 0 .51-.17.51-.52v-1.8a.15.15 0 0 1 .28-.1l1.5 2.1a.3.3 0 0 1 .05.2v6.64c0 .13.07.2.19.24.36.09.89.12 1.25.08Z" fill="#fff"/><path d="M37.84 25h-2.68c-.09 0-.16.08-.16.17v4.66c0 .1.08.17.16.17h2.7c.08 0 .15-.08.15-.18L38 25.17c0-.1-.07-.18-.16-.18ZM26.92 32.2a.32.32 0 0 1-.32-.32v-.07c-.01-.94.13-1.84.4-2.5.27-.67.64-1.05 1.04-1.06h.13c.2 0 .39.09.57.27.18.17.35.43.5.76.13.32.25.71.33 1.14.08.43.12.9.13 1.36v.06a.32.32 0 0 1-.31.32l-2.47.03Z" fill="#0180CA"/><path d="m15.02 30.95 8.57-.01c.1 0 .18.03.25.1.07.05.11.14.13.23v.14c.03.28-.1.43-.39.43h-8.46c-.2-.07-.32-.22-.35-.45-.02-.2.07-.34.25-.44ZM41.14 30.96c.25.65.06.94-.57.86l-7.98.03c-.25 0-.37-.13-.37-.37v-.13a.33.33 0 0 1 .2-.35.33.33 0 0 1 .13-.03l8.59-.01ZM38.33 34.55c-3.2-.45-7.61.74-10.86 1.7-2.26.66-4.73.85-6.55.66a9.13 9.13 0 0 1-2.6-.88c-.06-.03-.08-.06-.06-.09l.04-.03a.11.11 0 0 1 .08 0c4.82 1.35 8.11-.18 12.73-1.91 1.95-.73 5.52-1.13 7.29.4a.08.08 0 0 1 .02.1.09.09 0 0 1-.09.05Z" fill="#ECFFFE"/><path d="M18.6 37c-.3-.08-.5-.19-.58-.33a.74.74 0 0 1 .4 0c3 .88 5.94.94 8.85.18 4.06-1.06 7.36-2.05 11.14-.7l.04.04a.1.1 0 0 1 .02.04c.02.09-.02.13-.12.12-3.42-.45-6.18.15-9.85 1.14-1.77.48-4.23.59-7.38.33-.15-.02-.26.05-.32.19-.02.05-.07.07-.14.06a.48.48 0 0 1-.18-.06c-.57-.39-1.2-.72-1.89-1Z" fill="#ECFFFE"/><path d="M37.64 37.06c.04.05 0 .11-.08.18-2.4-.17-4.67.53-6.86 1.13-1.48.4-2.62.63-3.41.67-2.13.12-4.18-.06-6.15-.55-.08-.02-.12-.07-.11-.16l.01-.13c0-.06.03-.08.09-.07 2.97.56 5.88.43 8.73-.39 2.94-.83 5.04-1.14 7.78-.68Z" fill="#ECFFFE"/><path fill-rule="evenodd" d="M28 43.88c9.45.08 15.88-7.37 15.88-15.88 0-8.51-6.43-15.94-15.88-15.88-9.45.05-15.88 7.37-15.88 15.88 0 8.51 6.43 15.8 15.88 15.88Zm0 1.06a16.94 16.94 0 1 0 0-33.88 16.94 16.94 0 0 0 0 33.88Z" fill="#fff" fill-opacity=".7"/><path d="M30.67 23.25a2.52 2.52 0 0 1-5.04 0c0-1.4 2.52-5.13 2.52-5.13s2.52 3.74 2.52 5.13Z" fill="url(#a)"/><defs><linearGradient id="a" x1="28.15" y1="18.12" x2="28.15" y2="25.77" gradientUnits="userSpaceOnUse"><stop stop-color="#12A6EE"/><stop offset="1" stop-color="#D5FBFE"/></linearGradient></defs></svg>