<!-- by TradingView --><svg width="56" height="56" viewBox="0 0 56 56" xmlns="http://www.w3.org/2000/svg"><path fill="#F0F3FA" d="M0 0h56v56H0z"/><path d="M10.5 18h2.21l-2.5 5H8l2.5-5ZM24.4 18h2.2l-2.5 5h-2.2l2.5-5ZM42.48 18h2.21l-2.5 5h-2.21l2.5-5ZM38.95 26h2.2l-2.5 5h-2.2l2.5-5ZM44.34 26h2.2l-2.5 5h-2.2l2.5-5ZM40.46 33h2.2l-2.5 5h-2.2l2.5-5ZM35.05 33h2.2l-2.5 5h-2.2l2.5-5ZM27.57 18h1.4l-2.5 5h-1.4l2.5-5ZM45.65 18h1.4l-2.5 5h-1.4l2.5-5ZM42.11 26h1.4l-2.5 5h-1.4l2.5-5ZM38.21 33h1.4l-2.5 5h-1.4l2.5-5ZM13.81 18h4.12l-2.5 5H11.3l2.5-5ZM30.92 18h4.12l-2.5 5H28.4l2.5-5ZM43.88 33H48l-2.5 5h-4.12l2.5-5ZM27.24 26h4.12l-6.09 12h-4.11l6.08-12ZM19.08 18h4.11l-9.93 20H9.15l9.93-20ZM37.33 18h4.11l-9.93 20H27.4l9.93-20Z" fill="#D71B10"/></svg>