<!-- by TradingView --><svg width="56" height="56" viewBox="0 0 56 56" xmlns="http://www.w3.org/2000/svg"><path fill="#BC2031" d="M0 0h56v56H0z"/><path d="m18.06 17.11-4.12 9.85-.03.03a.07.07 0 0 1-.04.01h-1.83l-.04-.01a.07.07 0 0 1-.03-.03L8.02 17.1a.07.07 0 0 1 0-.07c.02 0 .02-.02.03-.02L8.1 17h1.93l.04.01.03.03 2.94 7.34c0 .02.01.03.02.03a.07.07 0 0 0 .08 0l.02-.03 2.82-7.32.02-.04.04-.01h1.99l.03.03a.07.07 0 0 1 0 .07ZM20.82 17h-1.64c-.1 0-.18.1-.18.22v1.57c0 .12.08.21.18.21h1.65c.1 0 .17-.1.17-.21V17.2c0-.11-.08-.21-.18-.21ZM32 21.12v3.58c.17.77 1.12.73 1.76.68a.24.24 0 0 1 .16.06.2.2 0 0 1 .06.06l.01.08v1.21c0 .13-.07.2-.2.2-1.45 0-3.04.2-3.6-.98-.12-.27-.19-.8-.19-1.55v-6.12c0-.23.13-.34.37-.34h.95c.27 0 .4.12.42.37.01.35.05.35.13.5.04.1.24.13.6.13h1.39c.1 0 .14.08.14.16v1.73c0 .07-.04.11-.11.11h-1.57c-.08 0-.32.04-.32.12ZM43 32.12v3.58c.17.77 1.12.73 1.76.69h.09l.07.05a.2.2 0 0 1 .06.07l.01.08v1.2c0 .14-.07.2-.2.2-1.45 0-3.04.2-3.6-.97-.12-.28-.19-.8-.19-1.56v-6.12c0-.22.13-.34.37-.34h.95c.27 0 .4.13.42.37.01.36.05.35.13.5.04.1.24.14.6.13h1.39c.1 0 .14.08.14.17v1.73c0 .07-.04.1-.11.1h-1.57c-.08 0-.32.04-.32.12ZM20.84 20h-1.68c-.09 0-.16.06-.16.14l-.01 6.72c0 .08.07.14.16.14h1.68c.09 0 .16-.06.16-.13l.01-6.73c0-.07-.07-.14-.16-.14ZM23.94 24.26c.16 1.07 1.25 1.3 2.28 1.28.95-.01 1.7-.07 2.25-.16.05-.01.08 0 .08.05v1.28c0 .04-.03.06-.07.07a9 9 0 0 1-4.35-.1c-2.22-.66-2.5-3.33-1.77-5.05.65-1.53 2.61-1.8 4.23-1.54 2.14.36 2.55 2.14 2.37 3.85 0 .05-.02.1-.06.12a.21.21 0 0 1-.14.05h-4.68c-.1 0-.15.05-.14.15Zm.13-1.37 2.96-.02a.1.1 0 0 0 .06-.02.08.08 0 0 0 .03-.06v-.06c0-.35-.15-.68-.4-.93-.27-.24-.62-.38-.98-.37h-.4a1.43 1.43 0 0 0-.96.38 1.3 1.3 0 0 0-.4.93v.06c0 .03.01.05.03.06a.1.1 0 0 0 .06.03ZM23.94 35.26c.16 1.07 1.25 1.3 2.28 1.28.95-.01 1.7-.07 2.25-.16.05-.01.08 0 .08.05v1.28c0 .04-.03.06-.07.07a9 9 0 0 1-4.35-.1c-2.22-.66-2.5-3.33-1.77-5.05.65-1.53 2.61-1.8 4.23-1.54 2.14.36 2.55 2.14 2.37 3.85 0 .05-.02.1-.06.12a.21.21 0 0 1-.14.05h-4.68c-.1 0-.15.05-.14.15Zm.13-1.37 2.96-.02a.1.1 0 0 0 .06-.02.08.08 0 0 0 .03-.06v-.06c0-.35-.15-.68-.4-.93-.27-.24-.62-.38-.98-.37h-.4a1.43 1.43 0 0 0-.96.38 1.3 1.3 0 0 0-.4.93v.06c0 .03.01.05.03.06a.1.1 0 0 0 .06.03ZM46.13 26.2c.07.04.15.07.24.06a.35.35 0 0 0 .22-.12l3.83-4.35c.34-.39.75-.4 1.21-.07l.03.03c.4.36.45.77.13 1.2a356.48 356.48 0 0 1-4.94 6.58c-.4.52-.81.37-1.15-.1l-2.8-3.94c-.16-.22-.1-.66.09-.87.34-.39.77-.37 1.3.07.87.74 1.49 1.24 1.84 1.5ZM10 33.02c0 .54.05.95.13 1.24.7 2.58 3.84 2.41 5.72 1.6a.1.1 0 0 1 .1 0 .11.11 0 0 1 .05.1v1.33c0 .14-.07.23-.2.28-2.02.7-5.33.71-6.81-1.18A5.31 5.31 0 0 1 8 33.03c0-1.23.2-2.4.95-3.37 1.46-1.91 4.78-1.93 6.8-1.26.14.05.25.14.25.28v1.33c0 .02-.04.04-.05.05 0 .02-.02.03-.03.04a.1.1 0 0 1-.1.02c-1.89-.8-5.02-.94-5.7 1.65-.08.3-.12.7-.12 1.25ZM34.93 30.94c.06.02.07-.02.07-.08v-2.8c0-.04.07-.06.12-.06h1.8c.05 0 .08.03.08.08v9.35c0 .08-.04.13-.11.15-1.27.35-2.53.48-3.78.4-2.8-.2-3.38-2.58-3.01-4.84.2-1.25 1-2.09 2.24-2.35.92-.2 1.79-.14 2.6.15Zm.07 4.78v-2.84c0-.27-.14-.51-.39-.6a.7.7 0 0 0-.26-.05h-.72c-.45.01-.87.2-1.18.5-.3.32-.46.74-.45 1.18v.87c0 .43.18.85.5 1.16.32.3.74.47 1.19.46h.72a.7.7 0 0 0 .26-.06c.24-.1.33-.35.33-.62ZM39.79 28H38.2c-.11 0-.2.12-.2.27v1.46c0 .15.1.27.21.27h1.58c.11-.01.21-.13.2-.28v-1.47c0-.14-.1-.26-.21-.26ZM39.85 31h-1.7c-.08 0-.15.06-.15.13l-.01 6.74c0 .07.07.13.15.13h1.7c.08 0 .15-.06.15-.13l.01-6.73c0-.08-.07-.14-.15-.14ZM19.68 31.68c0 .03.01.06.03.08l.07.05a.17.17 0 0 0 .16-.03c.5-.41 1.07-.67 1.69-.77.25-.04.37.05.37.28v.86c0 .2-.1.3-.33.32-.42.05-.86.2-1.32.48-.25.15-.36.37-.35.68v4.25c0 .08-.01.12-.1.12h-1.8c-.06 0-.1-.03-.1-.1v-6.77c0-.08.05-.13.14-.13h1.33c.05 0 .1.03.15.07.04.03.06.08.06.14v.47Z" fill="#fff"/></svg>