<!-- by TradingView --><svg width="56" height="56" viewBox="0 0 56 56" xmlns="http://www.w3.org/2000/svg"><path fill="#F0F3FA" d="M0 0h56v56H0z"/><path d="m35.75 17.44-7.86-.03c-.06 0-.1.03-.13.08l-.28.56c-.05.1-.01.16.1.16h8.55c.1.02.2.19.3.5h-8.88c-.01-.08-.03-.13-.06-.17a.12.12 0 0 0-.19.02l-2.1 4.34-.48 1.13-4.1 8.61c-.1.23-.03.36.23.36h2.74l-1.16 2.16a.18.18 0 0 0 0 .17.18.18 0 0 0 .16.09h7.2a.6.6 0 0 0 .31-.1c.1-.05.17-.13.22-.23l.89-1.78a.47.47 0 0 1 .34-.25l.39-.06h3.31c.24 0 .3-.09.2-.29l-.7-1.27a.55.55 0 0 0-.49-.3l-1.77-.07a.72.72 0 0 0 .2-.36c.03-.15-.04-.23-.2-.23l-7.6.02c-.03-.26.03-.46.16-.6l7.8.04c.14 0 .27-.06.37-.18.17-.2.28-.48.34-.88a6.2 6.2 0 0 1 2.83-.22c.15.02.26.1.33.23l3.1 5.66a.29.29 0 0 1-.13.4l-1.92.98c-.13.07-.27.07-.41.07H22c-1.09 0-3.28.26-4.07-.2-.54-.31-1.07-.64-1.6-.98-.17-.11-.21-.26-.12-.44l9.92-19.7a.43.43 0 0 1 .41-.25h2.16a.53.53 0 0 1 .49.3l1.11 2.2c.02.05.06.07.12.07h1.38l.04-.01.02-.03v-.07l-2.17-3.67a.36.36 0 0 0-.13-.14c-.06-.03-.13-.08-.2-.08h-3.5c-.11 0-.19.08-.24.17L14.31 35.51a.33.33 0 0 0 .15.44c.94.48 1.85 1.09 2.83 1.58 1.22.61 2.69.42 4.03.48L19.9 41h-1.91a4.34 4.34 0 0 1-1.8-.5c-2.1-1.03-4.14-2.56-6.11-3.48a.12.12 0 0 1-.06-.07.11.11 0 0 1 0-.09L23.3 10.22a.4.4 0 0 1 .15-.16.42.42 0 0 1 .21-.06h7.72c.15 0 .27.07.34.2l4.03 7.24Z" fill="#EC3136"/><path d="M35.75 17.44c.15.18.27.44.38.76l-8.54.01c-.12 0-.16-.05-.1-.16l.27-.56a.14.14 0 0 1 .13-.08l7.86.03Z" fill="#FBC31F"/><path d="M27.55 18.7c-.22.14-.3.29-.25.44.02.06.05.1.1.14a.3.3 0 0 0 .18.06l9.19-.06L38.82 23h-13.7l2.18-4.43a.11.11 0 0 1 .09-.06.12.12 0 0 1 .1.03c.03.04.05.09.06.16Z" fill="#F68727"/><path d="M36.42 18.7c.07.02.19.21.35.58l-9.2.06a.3.3 0 0 1-.17-.06.28.28 0 0 1-.1-.14c-.05-.15.03-.3.25-.44h8.87Z" fill="#FBC31F"/><path d="m38.82 23 .68 1.18-3.3.05a.35.35 0 0 0-.33.2l-1.32 2.44c-.1-.29-.28-.05-.56.71h-7.63c-.02-.33.13-.6.44-.82h7.56c.15 0 .22-.07.22-.21v-.46c0-.07-.04-.1-.1-.1h-7.35c.1-.45.24-.7.44-.79l7.46.04c.2 0 .3-.1.3-.3v-.2c0-.15-.07-.23-.23-.23l-7.23-.08-3.15-.4.4-1.03h13.7Z" fill="#FFF212"/><path d="m39.4 24 6.5 11.7c.1.18.13.38.07.56a.75.75 0 0 1-.35.44l-6.58 4.15c-.09.05-.2.15-.3.15H27.5l1.37-3 9.74-.03c.16 0 .3-.04.42-.13L42 35.72a.18.18 0 0 0 .06-.24l-4.55-8.34c-.07-.12-.17-.13-.31-.14h-2.74l1.41-2.58c.07-.12.34-.42.48-.42h3.04ZM27.57 25.2c-.04-.28.06-.53.3-.77l7.23.08c.16 0 .24.08.24.23v.2c0 .2-.1.3-.31.3l-7.46-.04ZM26.8 26.76c-.06-.54.05-.8.33-.78h7.34c.07 0 .11.04.11.11v.46c0 .14-.07.22-.22.22l-7.56-.01ZM33.99 27.58c-.09.35-.24.6-.46.72h-7.58c.03-.34.17-.57.4-.72H34Z" fill="#EC3136"/><path d="M25.95 28.3h7.58c.06.32.07.51.03.58-.06.4-.17.69-.34.88a.48.48 0 0 1-.38.18l-7.8-.04.91-1.6ZM24.88 30.5l7.6-.02c.17 0 .24.08.21.23a.72.72 0 0 1-.2.36l-.81 1.26-7.82-.12 1.02-1.71Z" fill="#FFF212"/><path d="m31.68 32.33-.05.28c-.1.1-.22.14-.37.14l-6.99.03c-.23 0-.38-.08-.46-.24l.05-.33 7.82.12Z" fill="#EC3136"/><path d="M23.81 32.54c.08.16.23.24.46.24 2.33 0 4.66 0 7-.03.14 0 .26-.05.36-.14-.1.12-.1.22 0 .32.06.08.17.1.3.06l-.38.07a.48.48 0 0 0-.34.25l-.89 1.78a.58.58 0 0 1-.22.24.6.6 0 0 1-.32.09H22.6a.18.18 0 0 1-.16-.09.18.18 0 0 1 0-.17L23.59 33c.02-.27.09-.42.22-.46ZM29.87 36l-2.34 5h-7.74l2.4-5h7.68Z" fill="#FFF212"/><path d="M21.78 41.36c.22.01.32.12.32.33v.14c0 .23-.11.34-.34.34h-.68c-.17 0-.25.09-.25.26v2.27c0 .16-.08.25-.24.28l-.44.02c-.2 0-.34 0-.43-.02-.16-.02-.24-.11-.24-.27l-.02-2.27c0-.17-.1-.26-.26-.26l-.68.01c-.23 0-.35-.1-.35-.34v-.13c0-.22.1-.33.32-.34l3.3-.02ZM23.77 41.44h-.68c-.16-.01-.32.13-.33.3v2.97c0 .16.13.29.3.29h.67c.16 0 .27-.11.27-.27v-3c0-.16-.07-.29-.23-.3ZM26.76 42.88c.64 0 1.23 0 1.76.04.13.02.2.09.2.22v1.6c0 .18-.09.26-.27.26h-3.48a.23.23 0 0 1-.16-.06.22.22 0 0 1-.07-.15v-.24c0-.2.1-.3.3-.3h2.27c.15 0 .24-.06.27-.2a.52.52 0 0 0 .02-.18c-.03-.17-.13-.25-.3-.26a28.54 28.54 0 0 0-2.31-.08c-.14-.01-.2-.09-.2-.22v-1.6c0-.18.08-.27.26-.27h3.48c.06 0 .12.03.16.07.05.04.07.1.07.15v.24c0 .2-.1.3-.3.3H26.2c-.15 0-.24.07-.27.2a.52.52 0 0 0-.02.18c.03.17.13.26.3.27l.56.03ZM30.74 43.23l-.04.63a.32.32 0 0 0 .08.25.33.33 0 0 0 .25.1h2.08c.16 0 .23.08.23.23v.27c0 .2-.1.29-.29.29h-3.34a.25.25 0 0 1-.17-.07.24.24 0 0 1-.07-.17 65.3 65.3 0 0 0 0-3.13.24.24 0 0 1 .13-.13.25.25 0 0 1 .1-.02l3.33-.04c.2 0 .3.1.3.29V42c0 .15-.07.22-.22.23l-2.09.02a.34.34 0 0 0-.25.1.33.33 0 0 0-.08.25l.05.63ZM38 44.74c0 .04-.01.07-.03.1a.26.26 0 0 1-.24.16h-3.47a.27.27 0 0 1-.1-.03.26.26 0 0 1-.16-.23V41.7c0-.04.01-.07.03-.1a.26.26 0 0 1 .24-.16h3.47a.26.26 0 0 1 .24.17l.02.1v3.03Zm-1-2.3c0-.1-.15-.2-.24-.2H35.2c-.05 0-.1.01-.13.05a.19.19 0 0 0-.06.12v1.6c0 .05 0 .1.04.13s.08.05.13.05h1.6c.07 0 .23-.06.23-.16v-1.6Z" fill="#EC3136"/></svg>