<!-- by TradingView --><svg width="56" height="56" viewBox="0 0 56 56" xmlns="http://www.w3.org/2000/svg"><path fill="#F0F3FA" d="M0 0h56v56H0z"/><path d="M7 28.22c.05-.26.1-.5.13-.73.05-.29.13-.5.26-.66.18-.23.38-.41.6-.57.94-.68 2.06-1.34 2.95-1.94 1.17-.78 2.46-1.62 3.86-2.51 1.13-.72 2.2-1.42 3.19-2.11.41-.29 1.01-.67 1.8-1.15.79-.48 1.64-1.1 2.38-1.56 1.34-.85 2.69-1.73 4.03-2.65l.83-.5c.4-.24.7-.56 1.06-.75.42-.22.94-.56 1.56-1.02.07-.05.12-.04.16.04.03.05.06.05.1 0a.2.2 0 0 0 .03-.11c.18.56.26 1.13.23 1.7-.02.4.41.77.83 1.05L47.74 26.1c.75.5 1.36 1.19 1.25 2.16a1.98 1.98 0 0 1-.92 1.48c-5.77 3.84-11.7 7.7-17.77 11.6-.35.22-.8.59-1.2.84a47.1 47.1 0 0 0-2.58 1.7c-.26.2-.42.13-.47-.19a5.2 5.2 0 0 1-.02-1.44c.06-.52-.4-.86-.96-1.22-5.87-3.91-11.9-8.1-17.13-11.62-.5-.34-.81-.74-.94-1.2Zm4.1-1.7c0-.1-.06-.16-.19-.17-.17-.02-.28.05-.33.22-.03.1.01.18.12.22l17.87 12.29c.05.2.2.26.47.16.18-.07.74-.41 1.67-1.02.46-.3 1.02-.6 1.49-.92l1.09-.74c1.68-1.05 3.3-2.12 4.87-3.2.2-.14.46-.23.71-.4.98-.66 2.1-1.4 3.37-2.2.7-.45 1.46-.95 2.28-1.52a.25.25 0 0 1 .3.01c.22.18.47.25.76.2.05 0 .1-.03.14-.08.1-.11.07-.19-.06-.22l-18.32-12.3a.41.41 0 0 0-.47 0c-.35.26-.88.67-1.34.95a72.72 72.72 0 0 0-3.9 2.46 354.58 354.58 0 0 1-5.2 3.39c-.99.6-1.88 1.26-2.86 1.86-.52.31-1.1.69-1.75 1.12a.2.2 0 0 1-.15.03l-.57-.13Z" fill="#E02F1F"/><path d="M27.4 20.74a49.73 49.73 0 0 1-2 .26c-.4.04-.71.22-.96.54-.7.1-1.33.31-1.9.62-.1-.07-.3-.11-.59-.13 1.13-.58 2.26-.95 3.4-1.11.17-.02.3-.05.42-.1.17-.06.3-.09.4-.09h1.23Z" fill="#2C2C2D"/><path d="M29.67 20.72c.14.09.3.12.48.11.05 0 .1.02.13.06l.03.03a.1.1 0 0 0 .09.04c.67-.02 1.21.15 1.61.51.7.48 1.16.77 1.37.89.18.1.39.06.6-.11.1-.15.24-.17.45-.08.34.15.43.28.24.4-.25-.02-.48.03-.7.17-.04.02-.05.05-.02.09l1.1 1.26c.04.04.08.06.13.06.34.01.9-.26 1.14-.36a.44.44 0 0 1 .2-.09c.05-.01.1 0 .13.04.28.29.29.41.02.38-.45.06-.89.2-1.31.45-.05.03-.06.06-.03.11.25.39.42.78.51 1.18.03.11.1.17.22.17l1.83-.02c.19-.03.38 0 .56.11-.08.2-.33.3-.74.28-1.6-.07-3.21-.04-4.8-.05-.77-.13-1.25-.2-1.46-.21-.22-.01-.48.04-.77.15-.27-.06-.5-.09-.72-.09-1.86.02-3.7.01-5.54-.02-.97-.19-1.95-.2-2.94 0a1 1 0 0 1-.55-.01c-.29-.12-.52-.11-.68.03l-1.25.04a3.1 3.1 0 0 1-.95-.16.12.12 0 0 1-.04-.09l.01-.05a7.8 7.8 0 0 1 3.93-3.91c.3.02.49.06.58.13.1.14.24.2.44.17.1-.01.23-.07.4-.17.3-.2.65-.4 1.07-.62.25-.32.57-.5.95-.55a48.13 48.13 0 0 0 2.01-.25l2.27-.02Zm-1.63 2.4V21.1a.1.1 0 0 0-.03-.07.1.1 0 0 0-.07-.02c-.9.04-1.86 1.08-2.36 1.82a.13.13 0 0 0 .03.17l.06.03 2.27.19c.07 0 .1-.03.1-.1Zm.57 0c0 .07.03.1.1.1l2.24-.15a.12.12 0 0 0 .11-.13c0-.03 0-.05-.02-.07-.47-.73-1.4-1.78-2.3-1.84h-.04a.1.1 0 0 0-.05.06.1.1 0 0 0 0 .03l-.04 2Zm-2.17-1.79c.21-.17.19-.22-.08-.15a8.43 8.43 0 0 0-2.82 1.3v.03l.01.03.03.01 1.36.31h.1a.17.17 0 0 0 .08-.07c.39-.6.76-1.02 1.32-1.46Zm3.73.02c.55.45.91.87 1.29 1.48a.17.17 0 0 0 .17.07l1.37-.29a.05.05 0 0 0 .04-.04.05.05 0 0 0-.02-.05 8.43 8.43 0 0 0-2.78-1.32c-.26-.07-.28-.02-.07.15Zm-9.91 2.2a.29.29 0 0 0-.1.12.05.05 0 0 0 .02.06h.02l1.03.35a.18.18 0 0 0 .2-.06l1.12-1.27c.03-.03.03-.06-.02-.08-.3-.16-.54-.2-.69-.15-.34.13-.87.48-1.58 1.04Zm4.56-.24a.04.04 0 0 0-.03-.06l-1.53-.33a.44.44 0 0 0-.42.14l-.97 1.09a.1.1 0 0 0 .05.15l2.25.5h.02l.01-.02.62-1.47Zm6.9.03.58 1.49a.03.03 0 0 0 .04.02l2.27-.45a.1.1 0 0 0 .06-.15l-.96-1.12a.44.44 0 0 0-.42-.15l-1.54.3-.02.01a.04.04 0 0 0-.02.03v.02Zm-3.7.4a.11.11 0 0 0-.1-.1l-2.57-.22a.11.11 0 0 0-.12.07l-.53 1.27a.11.11 0 0 0 0 .1.11.11 0 0 0 .09.06l3.1.25a.11.11 0 0 0 .12-.1v-1.32Zm3.32-.17a.27.27 0 0 0-.3-.16c-.85.16-1.63.22-2.33.2-.09 0-.13.04-.13.13l.01 1.35a.13.13 0 0 0 .09.12h.05l2.9-.25c.16 0 .2-.09.15-.23l-.44-1.16Zm-10.2 1.03c.05-.08.03-.13-.05-.17-.08-.04-.4-.15-.97-.34-.21-.07-.37.02-.5.16a6.32 6.32 0 0 0-1 1.48.13.13 0 0 0 .07.1c.02.02.04.02.06.02l1.54-.01c.11 0 .2-.05.24-.15l.62-1.1Zm-.06 1.18a.06.06 0 0 0 0 .06.06.06 0 0 0 .05.03h2.47a.5.5 0 0 0 .48-.3l.07-.15c.08-.17.03-.28-.16-.32l-2.3-.5h-.04a.06.06 0 0 0-.03.03l-.54 1.15Zm13.94-.84a.35.35 0 0 0-.4-.22l-2.2.47c-.04.01-.06.04-.05.08l.12.57a.17.17 0 0 0 .16.13h2.59c.1 0 .14-.05.1-.16l-.32-.87Zm-10.5.43-.01.36a.12.12 0 0 0 .12.13h.02a52.06 52.06 0 0 0 2.36.06c.31 0 .56-.01.73-.03.16-.02.25-.04.25-.06v-.21c.01-.03-.07-.06-.24-.09a31.6 31.6 0 0 0-3.07-.27h-.03a.12.12 0 0 0-.08.03.12.12 0 0 0-.04.08Zm7.48.5-.02-.52v-.02a.03.03 0 0 0-.02-.01h-.05c-.89.03-1.74.07-2.38.13-.63.05-.98.1-.99.15l.01.24c0 .03.09.05.25.06a37.47 37.47 0 0 0 3.13 0h.05a.03.03 0 0 0 .02-.04Z" fill="#2C2C2D"/><path d="M38.45 26.12a.79.79 0 0 0-.56-.1 4.97 4.97 0 0 0-1.22-1.9c.27.03.26-.1-.02-.38a.15.15 0 0 0-.14-.04.44.44 0 0 0-.2.09c-.47-.5-1.02-.9-1.64-1.22.19-.12.1-.25-.25-.4-.2-.1-.34-.07-.43.08L32 21.47c-.4-.36-.94-.53-1.61-.51a.1.1 0 0 1-.09-.04l-.03-.03a.15.15 0 0 0-.13-.06.84.84 0 0 1-.48-.1c.33.02.66.07 1 .11.27.04.6.12.98.23l1.18.3c.47.1.99.32 1.54.63.85.48 1.52.91 2.02 1.3a.4.4 0 0 1 .09.11c.02.05.05.08.09.1.37.28.64.54.8.78.22.32.54.82.96 1.5.04.05.08.17.12.33ZM20.93 26.17l-.68.03c.16-.14.4-.15.68-.03ZM32.91 26.35l-2.23-.06c.29-.11.55-.16.77-.15.2 0 .7.08 1.46.21Z" fill="#2C2C2D"/><path d="m17.67 27.39-.05 1.04c-.01.3-.16.44-.45.44h-.05c-.3 0-.46-.15-.46-.45v-1.09a.15.15 0 0 0-.04-.1.15.15 0 0 0-.11-.05h-.7c-.17 0-.2-.08-.12-.23l.03-.06a.28.28 0 0 1 .12-.1c.05-.03.1-.05.17-.05h2.2c.08 0 .16.02.22.06l.31.18a.1.1 0 0 1-.05.2h-.8a.21.21 0 0 0-.22.21ZM19.37 28.9c-.03.14-.26.14-.69.01l.42-.1c.03 0 .04-.03.05-.06l-.01-.04a.05.05 0 0 0-.04-.03.51.51 0 0 0-.2 0c-.08.01-.1-.02-.05-.1.47-.72.77-1.16.9-1.33.2-.26.4-.41.59-.46.43-.11.72.06.95.44l.8 1.2c.21.3.14.41-.22.32l-.84-.2c-.72-.13-1.27-.02-1.66.35Zm.93-1.27c-.06.09-.06.2.01.3.03.05.07.08.13.09.29.02.44.03.45 0 .02-.02-.04-.16-.18-.41a.16.16 0 0 0-.13-.1c-.13 0-.22.03-.28.12ZM25.11 27.88c.04 0 .07-.03.1-.06a.15.15 0 0 0 .03-.1c-.02-.3 0-.53.05-.69a.17.17 0 0 1 .1-.11c.19-.06.38-.07.58-.02a.1.1 0 0 1 .08.1v1.47a.36.36 0 0 1-.35.36c-.64.01-.96-.34-1.39-.8a.67.67 0 0 0-.28-.19c-.17-.05-.27 0-.28.19l-.01.51c0 .07-.03.1-.1.13l-.31.12a.3.3 0 0 1-.37-.14.3.3 0 0 1-.03-.14v-1.43c0-.27.13-.37.39-.3.35.08.52.08.74.31.15.17.39.4.7.71.08.07.2.1.35.08ZM29.5 28.01v.46a.38.38 0 0 1-.1.27.34.34 0 0 1-.12.07.32.32 0 0 1-.14.02h-.07c-.26-.03-.38-.16-.38-.42v-1.28a.25.25 0 0 1 .15-.23.24.24 0 0 1 .1-.02h.9a.32.32 0 0 1 .28.19l.44.93a.1.1 0 0 0 .07.06.1.1 0 0 0 .09-.04c.29-.36.46-.7.52-1.02.01-.08.06-.11.13-.11h1.02a.09.09 0 0 1 .08.08v1.72a.29.29 0 0 1-.2.27c-.14.05-.26.02-.35-.08-.11-.14-.09-.56-.1-.9-.03-.39-.15-.42-.37-.1-.14.2-.25.45-.33.76a.21.21 0 0 1-.1.12c-.65.43-.92-.36-1.15-.8-.22-.47-.35-.45-.37.05ZM27.56 26.9h-.35a.3.3 0 0 0-.3.3v1.32c0 .17.13.3.3.3h.34a.3.3 0 0 0 .3-.3l.01-1.31a.3.3 0 0 0-.3-.31ZM38.16 28.38c-.06.02-.16.12-.3.3-.29.33-.65.43-1.08.3a.07.07 0 0 1-.05-.05.07.07 0 0 1 .01-.06c.2-.32.46-.56.75-.72a.22.22 0 0 0 .1-.27c-.1-.3-.37-.54-.79-.75-.08-.04-.08-.07.02-.09.41-.06.78 0 1.12.16a.2.2 0 0 1 .1.12c.08.2.25.29.5.23a.16.16 0 0 0 .12-.08c.25-.44.63-.58 1.14-.41.08.02.09.07.04.13-.2.21-.4.38-.63.51a.3.3 0 0 0-.16.27.3.3 0 0 0 .15.26c.26.16.51.36.74.6.13.13.1.2-.08.2h-.4a.74.74 0 0 1-.54-.23 2 2 0 0 0-.6-.41.21.21 0 0 0-.16 0ZM34.38 28.16a.39.39 0 0 0-.08.12c-.04.16.02.24.18.24h1.46a.14.14 0 0 1 .12.06.15.15 0 0 1 .02.14l-.02.06c-.04.12-.12.17-.25.14-.41-.1-.88-.08-1.4.07a3 3 0 0 1-1.03-.18c-.05-.01-.08-.05-.08-.11v-1.58a.09.09 0 0 1 .08-.08h2.6c.1 0 .14.04.14.13v.07c0 .03-.02.06-.04.08a.11.11 0 0 1-.08.03h-1.58a.13.13 0 0 0-.12.08l-.04.1a.12.12 0 0 0 .05.14l.06.02h1.46c.03 0 .05 0 .08.03l.04.08.01.05c.02.1-.02.14-.11.15l-1.19.03c-.11 0-.2.05-.28.13Z" fill="#0F88FB"/><path d="M18.68 28.91c.43.13.66.13.69 0 .41.1.74.14 1 .13 1.17-.04 2.35-.05 3.53-.03-.04 0-.06.02-.07.05a.07.07 0 0 0 .03.09h.04l5.29-.03h1.02l7.85.06a.2.2 0 0 1 .2.21c-.01.36-.43.86-.7 1.29-.19.27-.4.52-.64.73a9.34 9.34 0 0 1-2.7 1.8c-.35 0-.53-.05-.54-.17-.25-.14-.52-.12-.82.06-.37.22-.74.46-1.13.72-.3.23-.72.4-1.24.48l-.42.08c-.31-.13-.65-.09-1.01.1l-1.54.01c-.49-.14-.99-.2-1.5-.2-.21 0-.43-.04-.65-.12-.25-.09-.5-.14-.75-.17a1.11 1.11 0 0 0-.66-.58c-.29-.2-.77-.59-1.1-.64-.2-.02-.33.03-.37.16-.2.1-.45.12-.76.03a9.53 9.53 0 0 1-2.25-1.57 7.53 7.53 0 0 1-1.5-2.26l.01-.05a.1.1 0 0 1 .09-.05c.23 0 .43-.04.6-.13Zm2.4 1.64a3.2 3.2 0 0 1-.44-.98.3.3 0 0 0-.1-.16.3.3 0 0 0-.19-.06h-1.52a.18.18 0 0 0-.16.09.19.19 0 0 0 0 .18c.24.4.8 1.53 1.39 1.37l.98-.3c.07-.04.08-.08.04-.14Zm3.03-.6-.21-.48a.13.13 0 0 0-.13-.09h-2.72l-.01.02v.04l.49 1.07c0 .02.02.03.03.04h.05l2.46-.52c.05-.01.07-.04.04-.09Zm3.78-.36a.21.21 0 0 0-.21-.2l-3.04.06a.2.2 0 0 0-.2.14.21.21 0 0 0 0 .08v.02a.21.21 0 0 0 .2.2l3.05-.07a.2.2 0 0 0 .2-.13.21.21 0 0 0 0-.08v-.02Zm3.93.4.02-.49a.03.03 0 0 0-.04-.03h-.03a38.9 38.9 0 0 0-2.34-.04c-.62.02-.98.06-.98.11v.12c0 .05.34.12.96.19.62.07 1.46.12 2.34.16h.03a.03.03 0 0 0 .04-.03Zm3.42-.43.01-.03a.06.06 0 0 0-.06-.06l-2.41-.02c-.22 0-.37.1-.47.29l-.07.13c-.09.17-.04.28.15.32l2.25.52h.04l.02-.03.54-1.12Zm-.08 1.17c-.04.07-.03.13.05.17l.97.35c.2.07.37-.02.5-.16a6.33 6.33 0 0 0 1.01-1.46.13.13 0 0 0-.06-.11.13.13 0 0 0-.07-.02h-1.53c-.11 0-.2.05-.25.14l-.62 1.09Zm-10.08.94c.03.06.07.11.12.14.06.04.12.05.18.04a11.2 11.2 0 0 1 2.35-.19c.08 0 .13-.04.13-.12v-1.35a.13.13 0 0 0-.09-.13h-.05l-2.92.21c-.15.02-.2.1-.15.24l.43 1.16Zm6.08.06.45-1.13c.06-.15.02-.23-.14-.24l-2.87-.29a.13.13 0 0 0-.14.12l-.03 1.33c0 .1.04.13.13.13.7 0 1.46.07 2.3.24a.26.26 0 0 0 .3-.16Zm-7.01-1.27a.11.11 0 0 0-.13-.07l-2.15.46a.11.11 0 0 0-.08.13l.02.05 1.07 1.22a.11.11 0 0 0 .1.04l1.59-.34a.11.11 0 0 0 .08-.15l-.5-1.34Zm7.38 1.52a.04.04 0 0 0 .03.05l1.5.33a.43.43 0 0 0 .42-.14l.95-1.08a.1.1 0 0 0-.05-.15l-2.21-.48a.03.03 0 0 0-.04.02l-.6 1.45Zm-11.33-.43c.7.56 1.2.9 1.54 1.03.15.06.37.01.68-.14.04-.02.05-.05.02-.08l-1.1-1.26a.18.18 0 0 0-.19-.05l-1 .32-.03.01a.05.05 0 0 0-.02.04v.02a.3.3 0 0 0 .1.1Zm15.8.2a.28.28 0 0 0 .08-.11v-.02a.05.05 0 0 0-.01-.04l-.02-.01-1.02-.35a.18.18 0 0 0-.19.05l-1.13 1.24c-.03.04-.03.07.02.09.3.16.53.2.68.15.34-.12.86-.46 1.58-1Zm-10.63.57c.6.8 1.3 1.69 2.3 1.86a.1.1 0 0 0 .11-.06.1.1 0 0 0 .01-.04l.04-1.94a.1.1 0 0 0-.03-.08.1.1 0 0 0-.08-.02l-2.3.17a.07.07 0 0 0-.05.1Zm3.07-.18v1.9a.1.1 0 0 0 .02.07.09.09 0 0 0 .07.03c.86-.04 1.76-1.03 2.23-1.72a.12.12 0 0 0-.08-.18l-2.15-.19c-.06 0-.09.03-.09.09ZM26.2 33.8a5.22 5.22 0 0 1-1.23-1.42.16.16 0 0 0-.17-.07l-1.3.28a.05.05 0 0 0-.04.04.05.05 0 0 0 .02.05c.81.59 1.7 1 2.65 1.26.25.07.27.02.07-.14Zm3.74.05c-.2.16-.18.21.07.15a8.12 8.12 0 0 0 2.72-1.23.05.05 0 0 0-.01-.06l-.03-.01-1.3-.3a.16.16 0 0 0-.17.06c-.38.57-.74.97-1.28 1.4Z" fill="#2C2C2D"/><path d="M25.15 29.03c.28.12.56.12.83 0 1.42-.02 2.45-.03 3.12-.02.05 0 .08.03.09.1l-5.3.04a.07.07 0 0 1-.06-.1c0-.02.03-.04.07-.04l1.25.02ZM30.2 29.13l-.76-.02a.83.83 0 0 1 .77.02ZM23.96 33.42c.3.1.52.3.66.58-.05.01-.08.04-.09.07-1-.21-1.94-.58-2.8-1.1.31.09.57.07.76-.03.46.32.95.48 1.47.48ZM34.21 33.2c-.37.2-.77.44-1.16.53-.31.08-.72.2-1.22.38-.09.03-.2.06-.36.07-.1.02-.22.05-.35.1-.19.07-.4.08-.63.02.52-.09.94-.25 1.24-.48l1.95-.78c0 .12.19.18.53.17Z" fill="#2C2C2D"/></svg>