<!-- by TradingView --><svg width="56" height="56" viewBox="0 0 56 56" xmlns="http://www.w3.org/2000/svg"><path fill="#F0F3FA" d="M0 0h56v56H0z"/><path d="M28.16 12c4.22.1 7.83 1.58 10.82 4.4a16.01 16.01 0 0 1 5.01 11.96c-.12 4.2-1.7 7.87-4.77 11a.22.22 0 0 1-.15.07.21.21 0 0 1-.15-.06l-8.42-8.21a.13.13 0 0 0-.1-.04.13.13 0 0 0-.09.04l-3.4 3.48c-.04.05-.04.1.01.14l7.76 7.56a.1.1 0 0 1 .03.1.11.11 0 0 1-.06.08 15.8 15.8 0 0 1-10.22 1.06l-.17-.08c-.12-.05-.26-.1-.26-.12V20h12v-3H16.6c0-.05.31-.49.36-.53 2.98-2.8 6.52-4.3 10.62-4.47h.58ZM26 32.82a.07.07 0 0 0 .05.07.07.07 0 0 0 .08-.02l7.6-7.74a.07.07 0 0 0-.02-.11l-.04-.02h-7.6l-.04.03c-.02.01-.03.03-.03.05v7.74Zm-7.15 8.19c-6.9-4.92-8.96-13.71-4.47-20.88a.27.27 0 0 1 .1-.1.28.28 0 0 1 .14-.03h4.27c.07 0 .11.04.11.1v20.84l-.01.04a.1.1 0 0 1-.04.03.1.1 0 0 1-.1 0ZM38 34a4 4 0 1 0 0-8 4 4 0 0 0 0 8Z" fill="#D9261C"/></svg>