<!-- by TradingView --><svg width="56" height="56" viewBox="0 0 56 56" xmlns="http://www.w3.org/2000/svg"><path fill="#F0F3FA" d="M0 0h56v56H0z"/><path d="M43.8 38c-2.74-2.97-6.01-5.57-9.44-6.63a.54.54 0 0 1-.27-.2.53.53 0 0 1-.09-.32v-6.7c0-.06-.03-.1-.05-.16a.38.38 0 0 0-.22-.2.36.36 0 0 0-.15-.02l-1.58.12v-2.96c0-.14-.03-.28-.13-.38a.53.53 0 0 0-.38-.14c-4.03.05-7.43 1.4-10.2 4.02a17.66 17.66 0 0 0-4.6 7.86c-.05.16-.13.25-.26.29l-2.6.7c-.07.02-.1.06-.1.13 0 .1.04.13.14.1 5.13-1.37 9.43-.22 12.9 3.45.43.45.33 1.02-.28 1.04H8.13c-.15 0-.17-.05-.06-.16.3-.3.8-.68 1.1-1.09C17.5 26.05 23.6 17.73 28 12c6.12 7.91 13.87 18.1 20 26h-4.2Z" fill="#007CC1"/><path d="m32 23.89-2 .32v-1.73c0-.17-.1-.25-.27-.24-5.1.25-9.07 3.75-10.88 8.54-.1.25 0 .39.27.43-.03.07-.07.11-.11.13-.06.03-.08.08-.06.15l.07.14c-.6-.17-.78-.06-.53.3.02.04.05.06.08.08.03.02.07.03.1.03.87.04 2.03.02 3.47-.04 4.62-.22 8.61 1.76 12.2 4.76.48.42.93 1.1 1.3 1.24h-9.15c.61-.02.7-.59.28-1.04-3.47-3.67-7.77-4.82-12.9-3.44-.1.02-.15 0-.15-.1 0-.08.04-.12.11-.14l2.6-.7c.13-.04.21-.13.26-.29 1-3.29 2.53-5.9 4.6-7.86a14.59 14.59 0 0 1 10.2-4.02c.14 0 .28.05.38.14.1.1.12.24.13.38v2.96Z" fill="#75C5EF"/><path d="M30 24.23c-3.61.84-6.34 2.8-8.18 6.14a.68.68 0 0 1-.32.3c-.73.34-1.52.52-2.38.54-.27-.04-.36-.18-.27-.43 1.77-4.79 5.9-8.38 10.88-8.64.17 0 .27.07.27.25v1.84Z" fill="#007CC1"/><path d="M30 30.38V25.9l1.64-.26c.24-.04.36.06.36.3v4.45h-2Z" fill="#75C5EF"/><path d="M30 25.89v4.5h-6c1.4-2.24 3.53-4 6-4.5ZM37.6 38h-2.06c-.37-.13-.72-.82-1.2-1.24-3.59-3-7.59-4.98-12.2-4.76-1.44.06-2.6.08-3.47.04a.23.23 0 0 1-.1-.03.25.25 0 0 1-.08-.07c-.25-.37-.07-.48.53-.31.37 0 1.13-.07 2.3-.23 2.15-.29 4.76.02 7.82.92 3.06.9 5.95 2.84 8.46 5.68Z" fill="#007CC1"/></svg>