<!-- by TradingView --><svg width="56" height="56" viewBox="0 0 56 56" xmlns="http://www.w3.org/2000/svg"><path fill="#F0F3FA" d="M0 0h56v56H0z"/><path d="M45.84 30.54c-.07.02-.14-.02-.2-.1-3.43-4.66-6.84-9.27-10.22-13.83a.1.1 0 0 0-.14-.02c-3.3 2.38-10.17 7.37-20.63 14.97-.19.13-.7.51-1.52 1.14-.03.03-.05.06-.04.1l-4.51 2.87a.11.11 0 0 1-.12 0l-1.43-.6a.05.05 0 0 1-.01-.1l27.16-21.95a.08.08 0 0 1 .09 0s.02 0 .02.02l11.55 17.5Z"/><path d="m45.84 30.54.68 1.03v.01l-.01.03c0 .02-.02.02-.02 0L35.23 18.94a.07.07 0 0 0-.09-.01L13.1 32.8c0-.04 0-.07.04-.1l1.52-1.14c10.46-7.6 17.33-12.59 20.63-14.97a.1.1 0 0 1 .14.02c3.38 4.56 6.79 9.17 10.22 13.83.06.08.13.12.2.1Z" fill="#0367C5"/><path d="M37.36 26h1.34a.3.3 0 0 1 .3.3v1.34a.3.3 0 0 1-.3.3l-1.35-.01a.3.3 0 0 1-.29-.3V26.3c0-.16.14-.29.3-.29Zm-2.1 0h1.41c.14 0 .26.13.26.27v1.4c0 .15-.12.26-.26.26h-1.4a.26.26 0 0 1-.26-.26v-1.4c0-.15.12-.26.26-.26Zm1.39 2.07H35.3a.29.29 0 0 0-.3.28v1.35c0 .16.13.29.29.3h1.35c.16 0 .29-.13.29-.3v-1.34a.29.29 0 0 0-.28-.3Zm.73 0h1.31c.17 0 .31.14.31.3v1.32a.3.3 0 0 1-.31.31h-1.32a.3.3 0 0 1-.3-.31v-1.32c0-.17.14-.3.3-.3ZM23.14 33h.88c.02 0 .04.02.04.05v.42c0 .03-.02.05-.04.05h-.46c-.05 0-.07.02-.07.07v2.33c0 .05-.02.07-.05.07a3.83 3.83 0 0 1-.61 0c-.04 0-.06-.03-.06-.07l.01-2.34c0-.04-.02-.06-.06-.06h-.46c-.03 0-.04-.02-.04-.05v-.42c0-.03.01-.05.04-.05h.88ZM25.45 34.31a95.08 95.08 0 0 1 .54-.01l.01-.03v-1.24c0-.02.01-.03.03-.03h.66c.03 0 .04.02.04.05v2.94l-.03.01h-.67c-.02 0-.02-.01-.02-.03V34.9c0-.04-.03-.07-.07-.07a7.96 7.96 0 0 0-.9 0c-.03 0-.04.03-.04.07v1.07c0 .02-.02.03-.04.03h-.67l-.02-.01-.01-.02v-2.92c0-.03.01-.05.04-.05h.66c.02 0 .04.01.04.03v1.27l.02.01h.43ZM28.9 35.47h-.83c-.05 0-.09.03-.1.07-.07.15-.1.26-.1.34-.01.03-.02.06-.05.09a.12.12 0 0 1-.08.03h-.57c-.06 0-.09-.03-.06-.1l.95-2.83c.02-.05.04-.07.09-.07h.56c.09 0 .15.04.18.13l.91 2.78c.02.06 0 .08-.05.08h-.56a.12.12 0 0 1-.1-.05.64.64 0 0 1-.11-.38v-.04l-.03-.02-.02-.02h-.03Zm-.13-.52-.2-.73c-.07-.24-.14-.24-.2 0-.05.24-.12.47-.21.7-.02.04 0 .06.03.06h.56c.02 0 .03-.01.02-.03ZM31.12 34.7a3.94 3.94 0 0 0-.29-.39h-.02c-.05 0-.07.04-.06.09l.01 1.56c0 .03 0 .04-.03.04h-.7c-.02 0-.03-.01-.03-.03v-2.91c0-.04.02-.06.06-.06h.62c.04 0 .08.02.1.06.4.54.68.96.86 1.24a3.97 3.97 0 0 0 .3.39h.02c.04 0 .06-.04.05-.09L32 33.04c0-.03.01-.04.03-.04h.7c.02 0 .03.01.03.03v2.91c0 .04-.02.06-.05.06h-.62a.13.13 0 0 1-.11-.06c-.4-.54-.68-.96-.86-1.24ZM42.12 34.7a3.94 3.94 0 0 0-.29-.39h-.02c-.05 0-.07.04-.06.09l.01 1.56c0 .03 0 .04-.03.04h-.7c-.02 0-.03-.01-.03-.03v-2.91c0-.04.02-.06.06-.06h.62c.04 0 .08.02.1.06.4.54.68.96.86 1.24a3.97 3.97 0 0 0 .3.39h.02c.04 0 .06-.04.05-.09L43 33.04c0-.03.01-.04.03-.04h.7c.02 0 .03.01.03.03v2.91c0 .04-.02.06-.05.06h-.62a.13.13 0 0 1-.11-.06c-.4-.54-.68-.96-.86-1.24ZM35.18 33.98H35c-.28-.23-.68-.3-.98-.08-.37.29-.37.94.03 1.21.3.2.81.16 1-.23a.05.05 0 0 0 0-.04l-.02-.02H34.45c-.03 0-.04-.02-.04-.06v-.4c0-.04 0-.05.04-.05h1.24c.04 0 .05.02.05.06 0 .36 0 .58-.04.66-.25.62-.65.94-1.21.97-.46.02-.82-.12-1.09-.42a1.7 1.7 0 0 1-.23-1.78c.28-.6.77-.86 1.48-.79.43.05.74.29.95.72.01.03 0 .06-.03.07l-.39.18ZM37.53 35.53v.43l-.01.03-.03.01h-1.46l-.02-.01a.05.05 0 0 1-.01-.03V33.03l.01-.02h.02l.01-.01h.66l.03.01.01.03v2.4l.01.03.03.02h.74l.01.04ZM40.65 34.5a1.52 1.52 0 0 1-.9 1.38 1.45 1.45 0 0 1-1.6-.32 1.51 1.51 0 0 1 .46-2.44 1.45 1.45 0 0 1 1.6.32c.28.28.44.66.44 1.05Zm-.74.01a.7.7 0 0 0-.21-.5.73.73 0 0 0-.51-.22c-.2 0-.38.07-.52.2a.7.7 0 0 0 .22 1.17.74.74 0 0 0 .8-.15.7.7 0 0 0 .22-.5ZM46.17 34.81h-.5l-.01-.02v-.45c0-.02 0-.03.02-.03h1.25c.04 0 .06.02.06.06.07.8-.36 1.5-1.1 1.61-.4.06-.75-.01-1.04-.22-.59-.41-.75-1.32-.42-2 .27-.55.74-.8 1.4-.75.45.03.8.27 1.02.73.02.04.01.07-.03.09l-.46.17a.12.12 0 0 1-.1 0l-.24-.16c-.4-.18-.9-.03-1 .46-.17.83.7 1.22 1.21.69.11-.12.1-.18-.06-.18Z" fill="#0367C5"/><path d="M43.38 37.11v.1c0 .05-.03.07-.06.07l-.4-.01s-.02 0-.02.02v.37l.02.01h.44c.02 0 .03.01.03.03v.27c0 .02 0 .03-.03.03h-.83c-.04 0-.06-.02-.06-.06V36.3c0-.04.02-.06.06-.06h.83c.02 0 .03 0 .03.03v.26c0 .02 0 .03-.03.03h-.44c-.01 0-.02 0-.02.02v.36c0 .02.01.03.03.03l.39-.02c.03 0 .05.03.06.07v.1ZM40.72 36.26l.01-.02.02-.01h.58a.85.85 0 0 1 .86.84v.07a.85.85 0 0 1-.85.86h-.59a.03.03 0 0 1-.02-.03v-1.71Zm.48.31v1.1l.03.01h.03c.13 0 .25-.05.34-.15.1-.1.14-.24.14-.38v-.07a.56.56 0 0 0-.14-.38.46.46 0 0 0-.34-.16h-.03a.03.03 0 0 0-.03.03ZM44.1 37.1c0 .16.09.29.25.4.14.1.32.08.53-.05a.02.02 0 0 1 .03 0v.44c0 .02 0 .04-.03.05-.5.14-.89 0-1.16-.46a.8.8 0 0 1-.06-.37c0-.18.02-.3.06-.37.27-.45.66-.6 1.16-.46.03 0 .04.02.04.05v.43h-.04c-.21-.13-.39-.14-.53-.05-.16.12-.25.25-.25.4ZM47 37.1c0 .25-.1.47-.27.64a.94.94 0 0 1-1.3 0 .87.87 0 0 1 0-1.26.94.94 0 0 1 1.3 0c.17.17.27.4.27.63Zm-.46 0a.45.45 0 1 0-.91 0 .45.45 0 0 0 .9 0Z" fill="#4696E3"/></svg>