<!-- by TradingView --><svg width="56" height="56" fill="none" xmlns="http://www.w3.org/2000/svg"><path fill="#F0F3FA" d="M0 0h56v56H0z"/><path d="M9.674 27h12.08l-7.177 12.25c-.2.33.042.75.434.75h3.195c.77 0 1.482-.398 1.877-1.048l13.332-21.95A.662.662 0 0 0 32.838 16H16.766c-.697 0-1.345.354-1.714.937l-5.95 9.406c-.278.44.044.657.572.657Z" fill="#00ADEE"/><path d="M46.326 29h-12.08l7.177-12.25a.497.497 0 0 0-.433-.75h-3.196c-.77 0-1.482.398-1.877 1.048l-13.332 21.95A.662.662 0 0 0 23.162 40h16.073c.697 0 1.344-.354 1.713-.937l5.95-9.406c.278-.44-.044-.657-.572-.657Z" fill="#EC1C29"/></svg>