<!-- by TradingView --><svg width="56" height="56" viewBox="0 0 56 56" xmlns="http://www.w3.org/2000/svg"><path fill="#F0F3FA" d="M0 0h56v56H0z"/><path d="m11 27.74 2.68.01c.1.04.19.03.26-.04.21.1.47.11.77.03h.03l1.83-.01a9.7 9.7 0 0 0 .29 2.56c.21.54.32 1.16.53 1.66.25.57.47 1.04.68 1.42.54 1 1.26 1.9 2.15 2.7a10.84 10.84 0 0 0 4.2 2.5l.41.06c.15.03.3.09.48.19.4.22.77.27 1.11.15a5.87 5.87 0 0 0 2.9.1c1.19-.17 1.99-.35 2.4-.55a9.38 9.38 0 0 0 4.17-3.71c.05-.1.04-.16-.05-.18.07-.08.1-.16.07-.23.01.05.03.09.06.12a.09.09 0 0 0 .13-.03 17.97 17.97 0 0 0 1.44-6.73c-.04-.05-.06-.05-.05 0l.09-.26c.05-.43.07-.9.07-1.39 0-1.7-.06-3.4-.18-5.06 0-.13.01-.18.03-.17l-.3-3.1c0-.07-.04-.1-.1-.1h-1.83a.09.09 0 0 1-.08-.05.09.09 0 0 1 0-.09l2.71-3.95 2.57-3.55c.04-.05.08-.05.12 0l6.38 7.44c.06.06.04.09-.04.09h-1.8a.1.1 0 0 0-.1.07l-.03.04v10.07a21.73 21.73 0 0 1-.64 5.32 15.46 15.46 0 0 1-6.1 8.9c-1.62 1.17-3.45 2-5.5 2.51-2.69.67-5.44.7-8.26.06a17.2 17.2 0 0 1-11.9-9.63 17.21 17.21 0 0 1-1.6-7.17Z" fill="#CC0001"/><path d="m37.9 13.59-2.7 3.95a.09.09 0 0 0 .07.14h1.82c.07 0 .1.03.1.1l.31 3.1a.68.68 0 0 1-.34-.28l-.15-.26a11.52 11.52 0 0 0-11.84-3.94 11.3 11.3 0 0 0-4.95 2.8 11.49 11.49 0 0 0-3.65 8.53l-1.83.02.1-1.22c.03-.31-.11-.48-.42-.52l-.86-.1c-.32-.03-.5.12-.54.45l-.1 1.01a.2.2 0 0 0 .06.17.19.19 0 0 0 .17.04c.28-.07.46-.01.53.17l-2.67-.01c.04-1.67.2-3.04.48-4.1 1.44-5.47 4.65-9.38 9.62-11.72a15.5 15.5 0 0 1 4.79-1.31c4.4-.53 8.41.47 12 2.98Z" fill="#09F"/><path d="m26.27 13.54.07.8c0 .06-.02.1-.08.11l-1.6.34c-.19.04-.3-.03-.34-.22l-.28-1.35c-.03-.17.03-.27.2-.3l.62-.14c.12-.02.13-.07.02-.13-.17-.1-.36-.09-.58.03-.1.05-.12.02-.09-.08.06-.15.21-.26.46-.3a.2.2 0 0 1 .1 0c.03 0 .06.02.08.05l.54.46a.12.12 0 0 1 .04.13.12.12 0 0 1-.1.09l-.58.12c-.13.03-.17.1-.1.22l.04.07c.04.06.09.09.16.07l.42-.09c.1-.02.16.02.19.13v.07c.02.04 0 .09-.02.12a.17.17 0 0 1-.1.08l-.37.08a.13.13 0 0 0-.08.05.13.13 0 0 0-.02.1l.02.13a.14.14 0 0 0 .15.12c.2 0 .4-.05.6-.13.06-.03.09-.08.08-.15l-.15-1.31c0-.08.02-.11.1-.11h.5a.16.16 0 0 1 .15.07l.43.7c.1.14.12.13.1-.04l-.11-.74a.1.1 0 0 1 .08-.11l.49-.06c.05 0 .08.02.08.07l.2 1.7a.14.14 0 0 1-.14.16h-.49a.15.15 0 0 1-.14-.08l-.44-.76c-.06-.1-.1-.09-.1.03ZM31.86 13.09c.13-.08.33-.05.6.09.05.03.08.08.09.14l.03.88c.01.14.05.14.11.02.14-.24.23-.48.26-.72.01-.06.05-.09.1-.08l.38.04c.1.01.13.06.1.15l-.43 1.62c0 .03-.02.06-.05.08a.14.14 0 0 1-.09.03c-.16 0-.34-.07-.54-.2a.2.2 0 0 1-.1-.17c0-.33-.03-.62-.1-.88-.03-.12-.06-.12-.09 0l-.22.82c-.02.09-.07.11-.15.08a5.8 5.8 0 0 0-1.41-.37.61.61 0 0 1-.3-.12c-.1-.08-.15-.09-.17-.04a.07.07 0 0 1-.05.03.2.2 0 0 1-.1.02l-1.04-.16c-.1-.02-.13-.07-.12-.16l.17-1.6c0-.1.05-.13.14-.12l.38.04c.06 0 .1.05.09.11l-.15 1.35c0 .1.03.13.12.13.33-.04.54.02.61.16.05.08.08.07.09-.05.03-.34.11-.78.23-1.3.07-.27.25-.4.47-.6a.21.21 0 0 1 .18-.06c.17.02.32.1.44.25.01.03.02.05 0 .08l-.04.05c-.04.07-.09.08-.14.02a.62.62 0 0 0-.22-.14.14.14 0 0 0-.17.06l-.04.07c-.02.03-.02.05.02.06.25.06.74.1.94.27.03.02.05.04.06.07.01.06.05.08.1.05ZM23.11 13.44l-.46.4a.1.1 0 0 0-.03.06.1.1 0 0 0 .01.06l.52 1.24c.03.07 0 .12-.07.15l-.44.14c-.07.02-.1 0-.13-.06l-.36-1.12c-.03-.09-.09-.13-.18-.14-.1 0-.19.02-.26.07-.07.04-.12.03-.14-.05l-.03-.1c-.02-.06 0-.12.05-.16.43-.31.87-.48 1.33-.52.06 0 .12-.03.17-.08.13-.14.3-.22.48-.25.07-.01.11.01.13.07l.52 1.62c.03.09 0 .15-.09.18l-.37.12a.1.1 0 0 1-.08 0 .11.11 0 0 1-.06-.07l-.5-1.55a.01.01 0 0 0-.01 0Z" fill="#fff"/><path d="M31.25 13.54H31c-.11 0-.17-.06-.17-.17v-.16c0-.1.05-.13.15-.1.23.1.44.14.61.13.12-.01.16.04.13.15l-.22.82a.19.19 0 0 1-.07.1.18.18 0 0 1-.1.04h-.49c-.11 0-.17-.06-.17-.17V14a.14.14 0 0 1 .06-.12.14.14 0 0 1 .12-.02c.21.07.35.09.42.06.14-.06.19-.15.15-.27a.16.16 0 0 0-.17-.12Z" fill="#09F"/><path d="m18.92 17.93-.98-1.3a.23.23 0 0 1 .01-.29c.2-.22.44-.42.72-.62.32-.21.55-.38.7-.5.38-.3.94-.81 1.39-.24.23.3.11.62-.37.94-.14.1-.16.2-.04.34l.22.26c.06.07.06.13-.02.19l-1.63 1.22Z" fill="#fff"/><path d="M20.04 15.68c.13 0 .23-.1.23-.24 0-.13-.1-.24-.23-.24s-.24.11-.24.24.1.24.24.24Z" fill="#09F"/><path d="M18.12 15.6c-.1.13-.15.27-.1.32.06.05.2 0 .3-.11.12-.12.16-.26.1-.32-.06-.05-.2 0-.3.12Z" fill="#fff"/><path d="M19.44 16.55a.11.11 0 0 0 .04-.08c0-.03 0-.06-.03-.08l-.04-.05a.17.17 0 0 0-.21-.03l-.4.23a.1.1 0 0 1-.08.02.11.11 0 0 1-.07-.04l-.05-.06c-.05-.06-.05-.12.02-.18l.37-.33a.17.17 0 0 0 .06-.13v-.13c0-.19.05-.2.15-.05l.63.96c.05.06.04.12-.02.18l-.4.35a.15.15 0 0 1-.1.04c-.03 0-.06 0-.09-.02a.46.46 0 0 1-.13-.12.14.14 0 0 1-.03-.1c0-.03.02-.07.05-.09l.33-.3Z" fill="#09F"/><path d="M27.25 16.06c-.59.18-1.18.3-1.79.4-.46.07-.74.26-1.13.36a11.63 11.63 0 0 0-3.99 2.46.22.22 0 0 1-.11.05c-.1.02-.15.06-.17.15a.33.33 0 0 1-.08.14 11.8 11.8 0 0 0-3.11 6.25 15.8 15.8 0 0 0 0 3.62c.04.49.17.75.27 1.2a11.24 11.24 0 0 0 2.54 4.73c.2.2.38.41.54.64a9.74 9.74 0 0 1-2.15-2.7c-.2-.37-.43-.84-.68-1.4-.21-.5-.32-1.13-.53-1.67a9.69 9.69 0 0 1-.29-2.56c.04-3.4 1.26-6.25 3.65-8.53a11.3 11.3 0 0 1 7.03-3.14Z" fill="#fff"/><path d="M37.5 20.88c-.02-.01-.03.04-.03.17l-1.54-1.73a.19.19 0 0 0-.23-.03L33 20.87c-.06.04-.08.1-.06.16.67 2 1 4.12 1.02 6.34 0 .08.03.12.1.12l3.53.01-.09.26-3.4.02c-.07 0-.1.04-.11.1l-.16 1.8c-.02-.17-.06-.25-.13-.26l.04-1.53a.12.12 0 0 0-.08-.12.13.13 0 0 0-.05-.01l-.96-.03-.14-.05a.5.5 0 0 1-.07-.17l1.17-.03c.07 0 .1-.04.1-.11a21.78 21.78 0 0 0-1.04-6.32.1.1 0 0 0-.08-.04 9.31 9.31 0 0 1-2.85.93l.13-.31c.93-.2 1.8-.49 2.61-.89.05-.02.07-.06.04-.1-.66-1.58-2.12-4.39-4.14-4.25-.07 0-.1.04-.1.11l-.03 1.1a.72.72 0 0 0-.24 0l-.04-1.07c0-.07-.04-.1-.1-.12-1.2-.12-2.37 1.05-3 2.03-.06-.04-.14-.06-.27-.04.41-.74.93-1.3 1.57-1.7.18-.11.16-.15-.05-.11a11.25 11.25 0 0 0-5.6 2.9.11.11 0 0 0 .02.1l.04.03 2.53 1.48a.14.14 0 0 0 .2-.06l.84-1.88.14.23-.71 1.69c-.03.06-.01.11.05.14 1.18.54 2.5.76 3.96.66-.13.28-.28.42-.44.4a12.65 12.65 0 0 1-3.62-.74c-.06-.02-.1 0-.13.07a19.46 19.46 0 0 0-.83 5.75c0 .09.04.13.12.13h5.18c.06 0 .1-.03.1-.1l.02-3.25c.1.02.17.1.23.2l.03 3.02c0 .09.05.13.14.13l2.43.01.1.25-2.55.02c-.07 0-.1.04-.1.1v3.28c0 .08.03.11.1.12.98.04 1.92.18 2.83.44l.02.21-.08.03a.18.18 0 0 1-.13.01c-.74-.23-1.58-.38-2.52-.43-.15-.01-.23.06-.23.21l-.02 2.69c-.13.03-.21.04-.26.03v-2.8a.13.13 0 0 0-.05-.1.13.13 0 0 0-.09-.04c-1.56.05-3.08.43-4.54 1.12a.2.2 0 0 0-.1.23c.34 1.48.93 2.84 1.74 4.05a4.68 4.68 0 0 0 2.91 2.05.16.16 0 0 0 .11-.09.17.17 0 0 0 .02-.07l.04-1.07c.13-.02.21-.01.25.02v1.07a.14.14 0 0 0 .1.14h.07c1-.21 1.82-.72 2.49-1.54a8.74 8.74 0 0 0 1.4-2.42c.04-.12.17-.2.38-.24a7.87 7.87 0 0 1-3.38 4.3c-.8.19-1.69.17-2.65-.04-.03-.12-.08-.2-.15-.24-1.94-1.12-3.09-3.69-3.58-5.84-.02-.07-.06-.09-.12-.05l-.84.46-.1-.18.84-.57a.14.14 0 0 0 .06-.15c-.3-1.48-.48-3-.53-4.57 0-.07-.04-.11-.1-.11h-1.92v-.27l1.92-.03c.06 0 .1-.04.1-.1.04-2.04.33-3.99.87-5.85a.18.18 0 0 0-.01-.13.18.18 0 0 0-.1-.08c-.95-.41-1.83-.92-2.63-1.54a.13.13 0 0 0-.17.02 11.2 11.2 0 0 0-3.2 7.6c0 .06.03.1.1.1h3.12v.28H17.1c-.07 0-.1.04-.1.1a11.46 11.46 0 0 0 2.59 7.05.15.15 0 0 0 .11.01c.02 0 .04-.01.05-.03l1-.9 1.15-.83c-.02-.01.09.18.09.18-.46.26-.72.5-.84.78l-1.17.95a.2.2 0 0 0-.05.22 10.95 10.95 0 0 0 3.8 2.75c.36.15.64.27.84.37.15.07.42.14.81.22.35.08.7.18 1.05.32-.34.12-.7.07-1.1-.15-.18-.1-.34-.16-.49-.19l-.42-.07a10.84 10.84 0 0 1-4.19-2.5 5.3 5.3 0 0 0-.54-.64 11.24 11.24 0 0 1-2.54-4.73c-.1-.45-.23-.71-.28-1.2a15.78 15.78 0 0 1 0-3.62 11.8 11.8 0 0 1 3.12-6.25.33.33 0 0 0 .08-.14c.02-.09.08-.13.17-.15.04 0 .08-.02.11-.06a11.63 11.63 0 0 1 3.99-2.45c.4-.1.67-.3 1.13-.36.6-.1 1.2-.22 1.8-.4 3.99-.15 7.24 1.28 9.75 4.28l.15.26c.07.12.18.21.34.28Z" fill="#019623"/><path d="M28 17.6h-.18a.26.26 0 0 0-.17.06l-.8.71a.23.23 0 0 1-.16.06h-1.83c.63-.97 1.8-2.14 3-2.02.06.01.1.05.1.12l.04 1.06ZM30.01 16.47a12.4 12.4 0 0 1 5.31 2.36c.17.13.16.25-.02.35l-2.45 1.43a.07.07 0 0 1-.08 0l-.02-.03a8.15 8.15 0 0 0-2.88-4.05c-.1-.06-.07-.09.06-.08l.08.02Z" fill="#fff"/><path d="m24.6 18.4-.37.09c-.07.02-.1.06-.1.13l.01.54-.84 1.88a.14.14 0 0 1-.14.08c-.02 0-.04 0-.06-.02l-2.53-1.48a.11.11 0 0 1-.05-.13c0-.02.02-.04.03-.05 1.65-1.5 3.5-2.46 5.56-2.85.21-.04.23 0 .05.11-.64.4-1.16.96-1.57 1.7ZM18.92 17.93a.81.81 0 0 1-.33.46c-.06.04-.12.04-.17 0l-.5-.4c-.04-.03-.1-.03-.15 0-.1.07-.1.15-.03.23l.44.52a.05.05 0 0 1 0 .06l-.22.35c-.05.08-.12.1-.2.03a31.96 31.96 0 0 1-1.23-1.14h-.06c-.02 0-.03 0-.03.02v.04c.12.19.1.36-.04.53-.04.05-.04.09.01.12l1.03.68c.12.07.14.17.06.28l-.12.2a.2.2 0 0 1-.2.08.2.2 0 0 1-.07-.03l-1-.65a.17.17 0 0 0-.19 0l-.21.12c-.07.04-.12.03-.17-.03-.06-.07-.07-.15-.01-.23.35-.51.76-1.04 1.22-1.58a.12.12 0 0 1 .07-.04l.08.01.47.31a.1.1 0 0 0 .1 0l.06-.02c.06-.04.07-.1.04-.16a1.08 1.08 0 0 0-.33-.34.22.22 0 0 1-.07-.26.21.21 0 0 1 .05-.08l.17-.15c.1-.1.21-.1.32 0l1.2 1.07Z" fill="#fff"/><path d="M28 17.6c.08-.02.16-.02.24 0 .26.02.5.12.74.3.05.04.1.06.17.06h.99c.06 0 .1.03.1.1v1c0 .14.05.27.14.37.09.1.21.17.35.18l1.03.12c.21.02.23.09.05.2-.68.46-1.33 1.02-1.95 1.7l-.13.32c-.18.11-.4.41-.67.9-.43.8-.17 1.02.46 1.5.34.25.62.54.83.84l.67.97c.38.44.78.86 1.2 1.27.05.06.13.09.2.08a.5.5 0 0 0 .08.17l.06.12c.48.39.81.88 1 1.46.02.04.04.08.08.1l.05.06c.07 0 .11.1.13.25a32.7 32.7 0 0 0 0 3.12c0 .03.02.05.04.08a.33.33 0 0 0-.05.26l-.47 1.07a.38.38 0 0 1-.12.15l-.52.42c-.21.04-.34.12-.39.24l-1.71.15a.2.2 0 0 0-.16.11c-.24.44-.3.77-.73 1.07-.56.41-1.15.65-1.45 1.42-.04-.03-.12-.04-.25-.02a1.02 1.02 0 0 0-.54-.03.2.2 0 0 1-.2-.08.2.2 0 0 1 0-.22l.65-1.13a.4.4 0 0 0-.2-.56.38.38 0 0 0-.22-.02l-.44.1c-.33.06-.4-.04-.2-.32a3.9 3.9 0 0 1 1.11-1.02c.05.01.14 0 .26-.03.13.08.3.1.51.05.07-.01.1-.06.1-.13v-.58a.35.35 0 0 1 .14-.28.34.34 0 0 1 .3-.06l.38.1c.07.02.11 0 .11-.09v-.3c0-.08.04-.13.1-.14.23-.05.57-.13 1.03-.26.4-.11.5-.38.3-.82v-.21c.04.07.06.06.06-.04 0-1.03.02-2.06.05-3.1 0-.23-.12-.5-.4-.82l-.1-.25-2.6-3.16c-.06-.1-.14-.18-.23-.2.04-.27-.03-.45-.21-.55-.38-.19-.8-.43-1.24-.7a.2.2 0 0 1-.1-.2.2.2 0 0 1 .13-.17l.58-.24c.16.02.31-.12.44-.4a2.2 2.2 0 0 0-1.1-1.07c-.45-.23-.88-.12-1.35-.13a.15.15 0 0 1-.15-.1 4.23 4.23 0 0 0-.7-1.2l-.14-.22v-.54c-.01-.07.02-.11.09-.13l.36-.1c.13 0 .21 0 .27.05h1.83c.06 0 .11-.03.15-.07l.81-.7c.05-.05.1-.07.17-.07H28Z" fill="#CC0001"/><path d="M37.47 21.05c.12 1.67.18 3.35.18 5.06 0 .5-.02.96-.07 1.4l-3.52-.02c-.08 0-.11-.04-.11-.12a20.18 20.18 0 0 0-1.02-6.34c-.02-.07 0-.12.06-.16l2.71-1.58a.18.18 0 0 1 .23.03l1.54 1.73ZM17.11 27.5c-.07 0-.1-.04-.1-.1a11.2 11.2 0 0 1 3.2-7.6.13.13 0 0 1 .17-.02c.8.62 1.68 1.13 2.64 1.54.04.01.07.05.09.09.02.03.02.08.01.12-.54 1.86-.83 3.8-.87 5.84 0 .07-.04.11-.1.11-2.03.03-3.14.03-5.04.02Z" fill="#fff"/><path d="M40.4 20.56h-1.16c-.1 0-.15-.05-.15-.16v-.33c0-.11.06-.17.17-.17h2.6c.08 0 .13.03.15.1.1.34 0 .57-.3.75-.49.28-.86.52-1.12.7-.18.11-.16.17.05.17h1.24c.04 0 .08.02.1.05.04.03.05.07.05.11v.32c0 .1-.05.16-.16.16h-2.61c-.09 0-.14-.04-.16-.12-.06-.31-.06-.54.26-.73.38-.22.74-.44 1.1-.68.17-.11.15-.17-.06-.17Z" fill="#030404"/><path d="M15.05 22.5a2.89 2.89 0 0 0-.79-.38.24.24 0 0 1-.15-.14.24.24 0 0 1 .01-.2l.17-.3a.17.17 0 0 1 .15-.08h.89c.11 0 .12-.04.03-.1a2.17 2.17 0 0 0-.73-.33c-.06-.02-.08-.06-.05-.13l.2-.44c0-.02.02-.03.04-.04h.06l1.54.72c.08.04.1.1.06.17l-.2.45a.14.14 0 0 1-.15.1c-.5-.03-.77-.03-.81-.03-.36 0-.37.06-.01.15.22.06.42.17.6.33a.14.14 0 0 1 .04.17l-.3.67a.14.14 0 0 1-.14.1h-.09a.27.27 0 0 0-.25.16.27.27 0 0 0 .06.3c.06.06.13.1.2.11.05.01.06.04.04.09l-.22.48a.05.05 0 0 1-.03.03.05.05 0 0 1-.04 0l-1.5-1a.17.17 0 0 1-.08-.1.17.17 0 0 1 .01-.12l.25-.53a.12.12 0 0 1 .11-.08h1.07c.05 0 .05-.01.01-.04ZM32.43 27.51a.27.27 0 0 1-.22-.08c-.41-.4-.81-.83-1.19-1.27l-.67-.97c-.2-.3-.49-.59-.83-.85-.63-.47-.89-.7-.46-1.48.27-.5.49-.8.67-.91a9.31 9.31 0 0 0 2.85-.94.1.1 0 0 1 .08.04 21.78 21.78 0 0 1 1.05 6.32c0 .07-.04.1-.1.1l-1.18.04ZM27.14 22.28l-.58.24a.2.2 0 0 0-.13.17.2.2 0 0 0 .1.2c.44.27.86.51 1.24.7.18.1.25.28.21.55l-.02 3.25c0 .07-.04.1-.1.1h-5.18c-.08 0-.12-.04-.12-.13-.01-1.97.27-3.89.83-5.75.03-.07.07-.1.13-.07 1.17.43 2.38.67 3.62.74ZM13.2 23c-.1.13-.15.27-.1.31.05.05.18-.02.29-.15.1-.12.15-.26.1-.3-.05-.05-.18.02-.29.14Z" fill="#fff"/><path d="M40.47 24.92a295.36 295.36 0 0 0-1.37-.02.14.14 0 0 1-.08-.08.14.14 0 0 1-.01-.05v-1.79c0-.13.07-.2.2-.2h.13c.16 0 .23.08.23.24v.89c0 .13.07.2.2.2h.24c.16 0 .23-.08.2-.23-.06-.5.03-.72.27-.67.26-.05.34.18.26.67-.02.16.04.24.2.24h.24c.13.01.2-.05.2-.19l.03-.89c0-.16.08-.23.24-.23h.12c.14 0 .2.08.2.22l-.04 1.78a.14.14 0 0 1-.05.1.14.14 0 0 1-.1.04l-1.31-.03Z" fill="#030404"/><path d="m14.91 23.28-.03.06c-.03.04-.07.05-.12.03-.42-.17-.63-.28-.62-.31 0-.03.24-.01.7.06.04.01.07.04.08.1v.06Z" fill="#09F"/><path d="M15.09 25.33a.61.61 0 0 1-.49.46.6.6 0 0 1-.23 0l-.73-.18a.6.6 0 0 1-.38-.27.6.6 0 0 1-.07-.45l.1-.43a.61.61 0 0 1 .26-.38.6.6 0 0 1 .46-.07l.73.17a.6.6 0 0 1 .45.5c.02.07.01.15 0 .23l-.1.42Z" fill="#fff"/><path d="m14.7 24.83-.98-.21a.13.13 0 0 0-.16.1l-.02.1c-.01.07.03.15.1.16l.97.22c.08.01.15-.04.16-.1l.02-.1a.14.14 0 0 0-.1-.17Z" fill="#09F"/><path d="M41.51 25.43h.28a.1.1 0 0 1 .06.03.1.1 0 0 1 .03.07v1.78a.1.1 0 0 1-.1.1h-2.75a.1.1 0 0 1-.07-.03.1.1 0 0 1-.03-.07v-.63a.1.1 0 0 1 .03-.07.1.1 0 0 1 .07-.03h2.29a.1.1 0 0 0 .06-.03.1.1 0 0 0 .03-.07v-.95a.1.1 0 0 1 .03-.07.1.1 0 0 1 .07-.03Z" fill="#030404"/><path d="M13.89 26.75a.06.06 0 0 0-.04-.03h-.03l-.03.01c-.24.23-.4.27-.5.12a.2.2 0 0 1 0-.22.22.22 0 0 1 .2-.1l.9.08c.09 0 .13.06.12.16v.07c0 .06-.04.1-.1.1-.26.05-.44-.01-.52-.19ZM14.7 27.74c-.3.08-.55.08-.76-.03.1-.16.36-.16.77.03Z" fill="#09F"/><path d="M22.14 27.78c.07 0 .11.04.11.1.05 1.58.23 3.1.53 4.58.01.06 0 .12-.06.15-1.26.86-1.71 1.16-2.98 2.3a.15.15 0 0 1-.21-.02 11.46 11.46 0 0 1-2.54-7c0-.07.03-.1.1-.11 1.98-.09 2.85-.1 5.05 0Z" fill="#fff"/><path d="m32.64 27.73-.08.07-.06-.12.14.05Z" fill="#09F"/><path d="M22.66 27.76h5.21c.03 0 .05.01.06.03.02.01.03.03.03.06v3.35c0 .05-.03.08-.08.08-1.62 0-3.19.38-4.7 1.11-.07.03-.1.02-.12-.05a18.2 18.2 0 0 1-.5-4.48c0-.07.04-.1.1-.1ZM14.3 30.36l-1.07.13c-.07 0-.1-.02-.11-.1a9.1 9.1 0 0 1-.08-1.04c.01-.44.26-.65.69-.57.4.07.45.6.51.84.02.1.06.13.1.12l.49-.12c.1-.03.16.01.18.12l.09.82a.2.2 0 0 1-.07.18.56.56 0 0 1-.14.09.14.14 0 0 0-.07.16c.05.22.16.33.33.32.1 0 .16.05.17.16l.04.3c0 .09-.03.13-.11.13h-1.62c-.08 0-.14-.05-.17-.13l-.13-.43c-.04-.1-.08-.1-.13-.01-.07.14-.03.33.13.58a.05.05 0 0 1 0 .06l-.02.02h-.03c-.25-.06-.37-.26-.39-.6 0-.12.07-.18.22-.17.08 0 .12-.04.13-.12l.03-.1.17-.12.88-.46c.1-.05.1-.07-.02-.06Z" fill="#fff"/><path d="m40.2 29.93-1.15-.02c-.1 0-.15-.06-.14-.16v-.33c0-.12.06-.17.18-.17l2.58.06c.07 0 .12.04.14.11.09.33-.01.56-.32.73-.48.27-.86.5-1.12.66-.18.12-.17.18.05.18l1.22.03a.15.15 0 0 1 .15.1v.38c0 .1-.06.16-.17.15l-2.59-.05c-.08 0-.13-.05-.14-.13-.06-.3-.06-.53.27-.72.37-.2.74-.42 1.1-.65.17-.1.15-.17-.06-.17Z" fill="#030404"/><path d="M13.64 29.86c.13 0 .24-.11.24-.24s-.1-.24-.24-.24c-.13 0-.23.1-.23.24 0 .13.1.24.23.24Z" fill="#CC0001"/><path d="M15.4 31.19c.05.18.16.3.24.28.09-.02.11-.19.06-.37-.06-.19-.17-.32-.25-.3-.08.03-.1.2-.05.39Z" fill="#fff"/><path d="m13.8 31.36-.02-.01v-.02c.14-.18.35-.27.66-.28l.05.01.03.04.02.07c.02.07 0 .1-.06.1l-.68.09Z" fill="#CC0001"/><path d="M27.97 34.46a3.9 3.9 0 0 0-1.1 1.02c-.2.28-.14.38.2.31l.43-.09a.38.38 0 0 1 .4.16.4.4 0 0 1 .02.42l-.65 1.13a.2.2 0 0 0 .1.28.2.2 0 0 0 .1.02c.18-.04.36-.03.54.03l-.04 1.07a.17.17 0 0 1-.06.13.16.16 0 0 1-.14.03 4.68 4.68 0 0 1-2.84-2.05 12.29 12.29 0 0 1-1.74-4.05.2.2 0 0 1 .1-.22 11.32 11.32 0 0 1 4.6-1.12.13.13 0 0 1 .06.07l.01.05.01 2.8Z" fill="#fff"/><path d="M40.16 32.46c.25.01.28.25.09.71-.06.15-.01.24.13.28l.24.06c.13.04.2-.01.24-.14l.23-.86c.04-.15.13-.2.29-.16l.12.03c.13.03.17.12.14.25l-.46 1.72a.14.14 0 0 1-.06.09.14.14 0 0 1-.11.01 128.9 128.9 0 0 0-2.6-.68.14.14 0 0 1-.05-.1v-.05l.42-1.73c.03-.13.11-.18.24-.15l.13.03c.15.03.2.13.17.28l-.2.87c-.04.13 0 .2.13.24l.24.06c.15.03.23-.03.25-.18.05-.5.2-.7.42-.58Z" fill="#030404"/><path d="m15.63 32.47.07.2c.02.07 0 .12-.07.14l-1.2.4c-.07.02-.1.06-.1.13.03.16.02.27-.03.34a.16.16 0 0 1-.15.06.15.15 0 0 1-.12-.1 123.83 123.83 0 0 0-.38-1.22.16.16 0 0 1 .12-.12h.09c.07.03.15.11.22.25.03.06.08.08.15.06l1.2-.4c.07-.03.12 0 .14.07l.06.2ZM26.67 39.03a.63.63 0 0 0-.25-.06c-.35-.14-.7-.24-1.05-.32a4.5 4.5 0 0 1-.81-.22c-.2-.1-.48-.22-.84-.37a10.95 10.95 0 0 1-3.8-2.75.21.21 0 0 1 0-.16.2.2 0 0 1 .05-.06c1.6-1.54 1-1.18 2.85-2.2.06-.03.1 0 .12.06.49 2.15 1.64 4.72 3.58 5.84.07.04.12.12.15.24Z" fill="#fff"/><path d="M33.86 32.87c.76.43 1.44.94 2.05 1.53.03.07 0 .15-.07.23l-2.03-1.5c-.02-.1 0-.2.05-.26Z" fill="#019623"/><path d="m33.8 33.13 2.04 1.5c.09.02.1.09.05.18a9.38 9.38 0 0 1-4.16 3.71c-.42.2-1.22.38-2.4.55l.81-.56a7.87 7.87 0 0 0 2.56-3.74l.52-.42c.05-.04.1-.1.12-.15l.47-1.07Z" fill="#fff"/><path d="m40.8 35.13-2.49-1.08a.12.12 0 0 0-.15.07l-.23.52c-.02.06 0 .13.06.16l2.48 1.08c.06.03.13 0 .16-.06l.22-.53a.12.12 0 0 0-.06-.16Z" fill="#030404"/><path d="m16.17 35.13.4-.24c.11-.06.2-.04.25.07l.13.22c.07.11.04.2-.07.26l-1.37.8c-.06.04-.11.03-.15-.04l-.54-.94c-.12-.2-.09-.4.08-.56.57-.55.9-.12 1.13.38.03.07.08.08.14.05Z" fill="#fff"/><path d="m39.65 37.53-.16.22a.15.15 0 0 1-.2.04l-1.73-1.15a.17.17 0 0 0-.23.05l-.24.37c-.04.07-.1.1-.18.07a.36.36 0 0 1-.24-.18.17.17 0 0 1 0-.19 271.3 271.3 0 0 1 1.07-1.67c.04-.06.1-.08.17-.08.1.01.2.06.26.15.05.07.05.13 0 .2l-.23.37a.18.18 0 0 0 .05.24l1.74 1.14a.15.15 0 0 1 .05.2l-.13.22Z" fill="#030404"/><path d="M15.63 35.43a.37.37 0 0 1-.14.1c-.07.02-.13 0-.16-.08-.06-.14-.06-.24 0-.31.08-.07.18-.08.32-.01.07.03.1.09.08.16a.37.37 0 0 1-.1.14Z" fill="#CC0001"/><path d="M16.47 37.22c.05.03.1.04.16.02.16-.08.45-.3.85-.67a.12.12 0 0 0 .01-.16l-.07-.08c-.05-.05-.1-.06-.15-.01l-.16.14c-.06.05-.12.05-.17-.02l-.27-.31c-.06-.07-.06-.14.01-.2.61-.52 1.03.14 1.28.65.09.17.06.32-.09.45l-.8.7a.4.4 0 0 1-.5.02c-.41-.31-.99-1.02-.45-1.4.06-.05.12-.05.17 0 .29.25.34.47.16.68-.06.07-.06.13.02.19ZM18.46 39.15c.05-.16.01-.19-.1-.08-.24.2-.48.17-.72-.11a.13.13 0 0 1 .07-.21 2.4 2.4 0 0 0 1.38-.88c.05-.07.1-.08.17-.03l.29.18c.1.07.1.15.02.24-.33.35-.56.82-.7 1.4-.01.09.02.14.11.15l.4.04c.07.01.12-.02.16-.08l.6-.92c.08-.13.19-.16.32-.07l.11.07c.15.1.18.23.08.38l-.62.96a.17.17 0 0 0 0 .17l.14.24c.03.06.02.12-.03.17a.15.15 0 0 1-.09.04 12.1 12.1 0 0 1-1.64-1.17c-.04-.04-.06-.1-.04-.18l.1-.31ZM22.23 40.44l.04.4a.11.11 0 0 1-.04.1.1.1 0 0 1-.1.01l-.55-.25c-.1-.05-.11-.11-.06-.2.13-.22.21-.42.24-.6.04-.16.13-.21.29-.14l1.05.5a.3.3 0 0 1 .15.16.3.3 0 0 1 0 .23l-.47 1.02a.51.51 0 0 1-.6.28 2.7 2.7 0 0 1-.8-.42c-.1-.08-.13-.26-.07-.54.01-.08.06-.11.13-.1.26 0 .4.15.41.44.01.15.07.22.18.22.09 0 .14-.04.18-.12l.4-.87a.19.19 0 0 0-.05-.22.25.25 0 0 0-.22-.05c-.09.02-.12.07-.11.15ZM23.79 41.64l-.19.7a.13.13 0 0 1-.15.09l-.33-.1c-.1-.02-.14-.08-.11-.19l.43-1.63c.02-.07.07-.1.16-.07l.46.12c.08.03.13.08.13.16l.04.7c.02.46.1.47.22.03l.17-.59c.01-.03.03-.05.06-.07a.16.16 0 0 1 .09-.03c.2 0 .32.06.4.2.02.05.06.07.12.05.41-.13.81-.08 1.2.16a.47.47 0 0 1 .21.52l-.23.9a.38.38 0 0 1-.36.27h-.7c-.03 0-.04.02-.02.05l.12.21c.04.07.09.08.15.04a.53.53 0 0 1 .33-.12c.1 0 .13.05.07.14-.14.19-.35.23-.62.12a.24.24 0 0 1-.13-.13 703 703 0 0 0-.38-.8c-.04-.1-.08-.1-.1 0l-.08.3c-.02.07-.06.1-.12.08l-.46-.13a.15.15 0 0 1-.11-.12l-.18-.86c-.03-.13-.06-.13-.1 0ZM27.53 42.62c.01.1.07.13.16.1.06-.01.1-.05.1-.1.06-.18.06-.54.03-1.08a.11.11 0 0 0-.04-.08.11.11 0 0 0-.08-.03h-.1c-.07.01-.1.05-.1.12v.2c0 .09-.03.13-.1.13l-.42.02c-.09 0-.14-.04-.14-.13-.02-.8.74-.71 1.28-.6.19.04.28.16.29.35l.04 1.05a.4.4 0 0 1-.3.41c-.49.12-1.38.14-1.35-.52.01-.07.05-.12.12-.13.36-.07.57.02.61.3Z" fill="#fff"/><path d="M25.91 41.3h-.04a.16.16 0 0 0-.18.13l-.17.95c-.02.09.04.17.13.19h.03c.1.02.18-.04.2-.13l.16-.95a.16.16 0 0 0-.13-.19Z" fill="#CC0001"/></svg>