<!-- by TradingView --><svg width="56" height="56" viewBox="0 0 56 56" xmlns="http://www.w3.org/2000/svg"><path fill="#F0F3FA" d="M0 0h56v56H0z"/><path d="M32.5 29.13h-.45c-.02 0-.03 0-.04-.02-.02-.01-.01-.03-.01-.04v-1.31l-.01-.01a.03.03 0 0 1 .02-.02h2.33l.03.01.02.04v4.04c0 .02 0 .03-.02.05a.07.07 0 0 1-.05.01h-.82a.2.2 0 0 1-.15-.06l-.35-.38-.04-.01h-.03c-.42.35-.95.6-1.5.57-1.15-.07-1.78-1.46-2-2.37a6.52 6.52 0 0 1-.01-3.15c.26-1.05.88-2 1.97-2.36.23-.07.5-.11.83-.12a2.7 2.7 0 0 1 1.8.54c.04.03.06.08.05.16a85.28 85.28 0 0 0-.05 1.44.04.04 0 0 1-.04 0c-.57-.35-1.5-.76-2.12-.24-.18.15-.31.31-.4.49-.37.8-.45 1.81-.3 2.66.06.4.28 1.16.7 1.33.4.15.62-.2.65-.53a5.07 5.07 0 0 0 0-.72ZM46.06 32c-.8 0-1.58-.42-2.15-1.17A4.71 4.71 0 0 1 43 28c0-.53.09-1.05.24-1.53.15-.49.37-.93.66-1.3A2.73 2.73 0 0 1 46.06 24c.8 0 1.58.42 2.15 1.17.57.75.89 1.77.89 2.83s-.32 2.08-.9 2.83A2.73 2.73 0 0 1 46.07 32Zm.05-1.69c.31 0 .6-.24.82-.67.21-.44.33-1.03.33-1.64 0-.61-.12-1.2-.33-1.64-.22-.43-.51-.67-.82-.67-.3 0-.6.24-.8.67a3.79 3.79 0 0 0-.34 1.64c0 .61.12 1.2.33 1.64.22.43.51.67.81.67ZM6.5 24a1461 1461 0 0 1 2.5.02v1.56l-.01.03-.03.02H7.5a.04.04 0 0 0-.03 0 .05.05 0 0 0-.01.04v6.3c0 .02-.01.03-.03.03a264.8 264.8 0 0 1-1.86 0c-.02 0-.02-.01-.02-.03v-6.3a.05.05 0 0 0-.02-.03.05.05 0 0 0-.03-.01H4.04s-.02 0-.03-.02L4 25.58v-1.56a.02.02 0 0 1 0-.01.02.02 0 0 1 .02 0L6.5 24ZM13.43 27v-2.96a.04.04 0 0 1 .04-.04h1.88l.04.01.01.04V31.99l-.03.01h-1.9l-.03-.01-.01-.03v-3.28a.02.02 0 0 0-.03-.02 131.1 131.1 0 0 0-1.42 0l.02.02v3.28l-.04.03-.03.01h-1.9a.03.03 0 0 1-.03-.03v-7.92a.04.04 0 0 1 .02-.04.05.05 0 0 1 .03-.01h1.88l.03.01.04.03V27h1.43ZM19.13 24a139.57 139.57 0 0 1 .99.01l.02.03 2.04 7.93V32h-1.96l-.02-.04-.3-1.58-.01-.01a1820.6 1820.6 0 0 0-1.57.01l-.3 1.58a.05.05 0 0 1-.05.04h-1.9l-.02-.01v-.02l2.06-7.93a.05.05 0 0 1 .05-.03h.97Zm-.54 4.98V29h1.01a.02.02 0 0 0 .01-.01v-.01l-.5-2.73a.02.02 0 0 0-.04 0l-.48 2.73ZM26.56 27.95v-.03a1544.63 1544.63 0 0 1 .02-3.9c0-.02.02-.02.03-.02h1.9l.04.01.01.04V31.99l-.02.01h-1.92a.07.07 0 0 1-.07-.04l-1.54-4.31v-.01H25v.02a1549.4 1549.4 0 0 0-.01 4.33l-.03.01h-1.95l-.01-.03v-7.96l.03-.01h1.9a.1.1 0 0 1 .1.06l1.51 3.89h.02ZM43 30.3v1.66l-.01.03-.03.01h-4.92l-.03-.01-.01-.03v-7.92l.01-.03.03-.01h1.93l.03.01V30.24a.04.04 0 0 0 .03.02H42.96a.04.04 0 0 1 .03 0v.02l.01.01ZM51.96 24h-1.92a.04.04 0 0 0-.04.04v7.92c0 .02.02.04.04.04h1.92c.02 0 .04-.02.04-.04v-7.92a.04.04 0 0 0-.04-.04Z" fill="#D94540"/></svg>