<!-- by TradingView --><svg width="56" height="56" viewBox="0 0 56 56" xmlns="http://www.w3.org/2000/svg"><path fill="#F0F3FA" d="M0 0h56v56H0z"/><path d="m40.69 22.36-.54-.01a23.24 23.24 0 0 1 2.14-7.23c.02-.03.01-.05-.01-.07-.57-.4-1.05-.79-1.46-1.15-.83-.75-1.67-1.54-2.54-2.37a.26.26 0 0 0-.25-.06 9.24 9.24 0 0 1-2.48.3h-1.18c-.56-.08-1.2-.1-1.7-.17-1.04-.14-2.09-.33-3.13-.57a12.7 12.7 0 0 1-1.6-.49l.02-.54.09.02a19.11 19.11 0 0 0 4.5 1.02c.3.05.57.08.78.08.4.01.74.1 1.17.1h1.56c.32 0 .66-.07.99-.1.38-.04.73-.13 1.1-.25a.27.27 0 0 1 .27.06l2.43 2.28A16.2 16.2 0 0 0 43 14.9v.04a18.91 18.91 0 0 0-1.44 3.38 23 23 0 0 0-.87 4.03Z" fill="#D94C24"/><path d="m27.96 10-.01.54c-.94.4-1.92.68-2.94.86-2.4.42-4.77.42-7.14 0-.03 0-.06 0-.08.02a24.16 24.16 0 0 1-4.18 3.64l.01.06a22.11 22.11 0 0 1 2.15 7.23c-.09.02-.18.02-.28.01-.08 0-.15 0-.2.05A21.34 21.34 0 0 0 13 14.9a24.9 24.9 0 0 0 4.6-3.99.13.13 0 0 1 .13-.04c2.3.46 4.7.45 7.02.09 1.13-.18 2.2-.5 3.2-.97Z" fill="#24211E"/><path fill-rule="evenodd" d="m21.51 17.96.03-.02c.43-.35 1.11-.9 1.63-.9a.15.15 0 0 1 .15.14.8.8 0 0 1-.14.57c-.19.33-.44.75-.42.97a.06.06 0 0 0 .06.05h.03c.26-.17.54-.35.8-.58l1.04-.95c.34-.3.85-.43 1.54-.36.05 0 .07.04.07.09a.2.2 0 0 1 0 .06.13.13 0 0 1-.07.06.14.14 0 0 1-.08.02c-.81-.08-1.59.4-1.47 1.3a.17.17 0 0 0 .18.15c.03 0 .06-.01.08-.03.38-.25.67-.6.87-1.07a.2.2 0 0 1 .2-.13h.46c.08 0 .1.04.06.11-.2.33-.34.7-.43 1.1-.01.04 0 .05.04.05a.3.3 0 0 0 .21-.1 11.53 11.53 0 0 0 1.06-1.4.13.13 0 0 1 .05-.02c.12-.02.26 0 .43.06.36.13.08.6-.07.8a.03.03 0 0 0 0 .04.03.03 0 0 0 .04.01l.13-.05c.29-.33.52-.6.72-.79a.7.7 0 0 1 .75-.17c.2.06.2.25.12.4-.15.3-.3.55-.42.75-.06.11-.1.19-.09.23.02.13.1.16.21.08.45-.3.78-.53.98-.68.14-.1.28-.27.41-.49.34-.55.71-1.12 1.13-1.72.34-.5.72-.93 1.14-1.3l.05-.05c.36-.32.62-.56 1.06-.53a.18.18 0 0 1 .16.19c0 .2-.06.38-.15.55a7.7 7.7 0 0 1-.93 1.43c-.13.14-.32.28-.52.41-.2.13-.39.27-.52.4a4.3 4.3 0 0 0-.82 1.2c-.05.09-.03.1.05.03.4-.34.83-.62 1.26-.83a.81.81 0 0 1 .46-.06.08.08 0 0 1 .07.07c.05.28-.04.59-.16 1a38.73 38.73 0 0 0-.08.3 1.1 1.1 0 0 0-.02.48.15.15 0 0 0 .18.12c.17-.04.3-.12.43-.22.5-.43.8-.72.9-.86.13-.17.24-.43.35-.68.08-.2.17-.4.25-.54.58-.99 1.24-1.84 1.99-2.56a.45.45 0 0 1 .42-.13.2.2 0 0 1 .17.17.14.14 0 0 1 0 .03 8.95 8.95 0 0 1-1.44 2.57c-.38.35-.63.62-.74.8-.12.2-.5.93-.18 1.08.22.11.73-.13.9-.24a.12.12 0 0 0 .04-.08c.06-.66.48-1.07 1.02-1.32.27-.12.8-.24 1.04-.02.03.03.04.06.04.1 0 .15-.03.25-.1.3-.4.38-.83.67-1.28.87-.21.1-.21.17.01.24.43.12 1.14-.32 1.5-.6.08-.06.12-.04.12.06v.07c0 .1-.04.16-.1.22-.6.43-1.53 1.07-2.1.48a.1.1 0 0 0-.11-.03.1.1 0 0 0-.03.02c-.6.44-1.4.48-1.65-.38 0-.04-.03-.05-.06-.02l-.19.16c-.2.19-.46.4-.67.5a1.8 1.8 0 0 1-1.58-.02.11.11 0 0 1-.07-.08c-.07-.26.08-.6.18-.87.06-.13.1-.24.1-.3.01-.04 0-.06-.04-.04-.1.04-.22.12-.37.25-.32.29-.7.65-1.12 1.1-.18.17-.33.25-.55.1-.24-.14-.1-.43.03-.7l.08-.17c.02-.07 0-.08-.05-.04a3.37 3.37 0 0 1-.3.18c-.1.05-.18.1-.26.17-.17.11-.34.23-.56.3-.37.12-.7 0-.62-.46a3.73 3.73 0 0 1 .34-.92l-.02-.02h-.02a2068.3 2068.3 0 0 1-.67.86c-.22.28-.63.75-1.02.81a.24.24 0 0 1-.27-.17c-.06-.19.05-.36.16-.53l.02-.03c.08-.12.06-.13-.05-.04l-.17.17c-.16.16-.32.3-.5.4-.18.08-.37.14-.55.16-.14.01-.23-.05-.25-.19l-.04-.2a.1.1 0 0 0-.15-.07l-.7.37c-.2.1-.45.07-.58-.14l-.13-.21a.07.07 0 0 0-.02-.02l-.03-.02a.07.07 0 0 0-.06.02c-.42.43-.98.72-1.57.4a.13.13 0 0 1-.07-.12c.01-.34.11-.69.3-1.02.04-.06.05-.09.03-.1-.04-.05-.1-.05-.14-.01-.56.45-1.04.9-1.45 1.35-.13.14-.27.18-.42.12-.19-.07-.27-.2-.2-.4a2.67 2.67 0 0 1 .24-.5v-.01l-.01-.03c-.03-.05-.05-.05-.09 0a.4.4 0 0 1-.31.14h-.04a277.43 277.43 0 0 1-.76.4c-.78.45-1.49.34-1.57-.7-.1-1.18.55-2.15 1.46-2.85a.07.07 0 0 0 .02-.02.07.07 0 0 0 0-.07 1.78 1.78 0 0 0-1.6-.5c-.47.08-1.05.24-1.32.64-.33.47.1.93.58.81.4-.1.8-.23 1.2-.38.03 0 .05 0 .05.03v.04l-.01.01c-.34.2-.71.34-1.13.41-.39.07-1.05-.09-1.06-.58-.01-.95 1.15-1.28 1.91-1.31.7-.03 1.1.06 1.65.42.25.17.52.26.8.27.31.02.33.1.04.23-.9.42-1.7.96-2.1 1.86-.23.54-.38 1.55.32 1.8.38.12 1.09-.27 1.4-.5.08-.05.12-.12.16-.2.04-.07.08-.14.17-.2.28-.17.44-.3.48-.37.15-.25.46-.75.95-1.5a9.58 9.58 0 0 1 1.88-2.16c.21-.18.44-.26.7-.24a.2.2 0 0 1 .2.15V14c-.1.6-.69 1.43-1.02 1.83-.18.21-.42.38-.63.53l-.28.2c-.46.4-.8.85-1 1.38-.03.06-.02.07.03.03Zm11.47-3.07c-.3.38-.51.72-.46.77.05.04.34-.24.65-.62.31-.39.52-.73.47-.77-.05-.05-.35.23-.66.62Zm-10.17.92c-.05-.04.15-.39.45-.78.3-.38.6-.66.65-.62.05.04-.15.39-.46.78-.3.38-.59.66-.64.62Zm13.6-.44c-.3.38-.5.73-.45.77.05.04.34-.24.63-.62.3-.38.5-.72.45-.76-.05-.04-.34.23-.63.61Zm1.27 1.78c.04.05-.13.24-.37.43s-.47.3-.5.25c-.04-.04.13-.24.37-.43.24-.18.47-.3.5-.25Z" fill="#D94C24"/><path d="M38.78 22c-.02 2.66.25 5.62.8 8.2l.87 3.99c.16.72.28 1.4.36 2.04a4.45 4.45 0 0 1-2.35 4.72c-.97.5-2.08.78-3.18 1.04-1.07.25-2.08.5-3.03.75-1.47.4-2.98.96-4.25 1.82a.08.08 0 0 0-.04.07v2c0 .1-.02.2-.06.29a7.88 7.88 0 0 0-1.78-1.23c-.58-.32-1.3-.62-2.17-.88a66.1 66.1 0 0 0-4.3-1.11c-.98-.23-1.87-.52-2.66-.88a6.22 6.22 0 0 1-3.77-5.5c-.05-.47-.01-.8.03-1.23l.06-.49c.22-1.3.53-2.82.93-4.54a45.8 45.8 0 0 0 .88-5.25c.03-.44.1-.8.1-1.3l.07-2.1V22h1.88a37.4 37.4 0 0 1-.72 7.84l-.96 4.42c-.2.92-.32 1.63-.37 2.14a4.46 4.46 0 0 0 3.06 4.87c.66.24 1.37.45 2.12.63 1.24.3 2.27.55 3.07.76 1.6.42 3.13.97 4.53 1.86.03.02.05.01.05-.03.03-24.72-.06-8.57.02-22.49h10.81Z" fill="#D94C24"/><path d="M27.97 22c-.05 9.87-.02 22.5-.02 22.5 0 .03-.02.04-.05.02a15.8 15.8 0 0 0-4.53-1.86c-.8-.21-1.83-.47-3.07-.76-.75-.18-1.46-.39-2.12-.63a4.46 4.46 0 0 1-3.06-4.87c.05-.51.17-1.22.37-2.14l.96-4.42c.5-2.3.74-5.15.72-7.84h10.8ZM40.69 22v.36l.01 1.72c0 .33.02.6.05.8.04.35.05.7.09 1.06.27 2.69.8 4.75 1.5 8.04.17.81.3 1.56.38 2.26.1.75.03 1.56-.19 2.41A6.28 6.28 0 0 1 38.55 43c-.73.27-1.35.47-2.14.66-2.01.49-3.25.78-4.85 1.3-1.01.32-1.95.79-2.8 1.38-.27.2-.52.47-.75.64-.04.04-.08.02-.11-.06.04-.1.07-.2.07-.3v-2c0-.02 0-.04.03-.06a14.33 14.33 0 0 1 4.25-1.82c.95-.25 1.96-.5 3.03-.75 1.1-.26 2.2-.54 3.18-1.04a4.45 4.45 0 0 0 2.35-4.72c-.08-.64-.2-1.32-.36-2.04l-.87-3.99a39.26 39.26 0 0 1-.8-8.2h1.9Z" fill="#24211E"/><path d="M27.96 24.35a.92.92 0 0 0 .02.4 2.58 2.58 0 0 1-.76-.23c-.08-.04-.08-.07 0-.08l.74-.1Z" fill="#24211E"/><path d="m27.97 30.5-.03-.69a5 5 0 0 0 .29-.32c.18-.22.32-.56.46-.74.04-.04.07-.05.1-.05s.04.03.04.06l-.02.17c-.02.14.01.16.11.05.26-.3.63-.49 1.1-.59a.08.08 0 0 1 .1.08l-.01.04c-.2.33-.5.56-.87.7-.12.05-.28.2-.37.32-.22.31-.52.78-.9.97Z" fill="#D94C24"/><path fill-rule="evenodd" d="m39.74 37.99-1.63-.64c-.67-.63-1.8 1.14-2.26 1.94-.36.64-1.38.87-2.23 1.07a13 13 0 0 0-.61.15c-.45.13-.75-.13-1.13-.48-.36-.33-.8-.72-1.5-.9-.97-.26-.55.88-.23 1.74.17.45.3.82.22.9-.19.2-.63-.8-1.03-1.7l-.35-.78c-.37-.78-.3-1.15-.13-2.1l.13-.76c.26-1.56-.58-1.35-2.34.92a4.97 4.97 0 0 1-4.6 1.77c-.71.16-.31.55.14 1 .29.28.6.58.66.86.13.57-1.84-.24-2.84-.72-.5-.4-1.7-1.22-2.47-1.39-.96-.2-1.13-1.52-.92-2.1.17-.48-.23-1.75-.46-2.32l.46.63c.6-.57.25-1.92 0-2.53.7 0 1.13 1.57 1.26 2.36l.62-.46c-.26-1.18.42-3.67.8-4.76-1.34 0-1.5-.62-1.42-.93.87.47 1.78-.2 2.13-.59-1.07 0-1.23-.59-1.17-.88.73.33 2.45.14 3.22 0a8.58 8.58 0 0 1-1.6-.68c-.26-.2.48-.3.89-.34a2.01 2.01 0 0 0 2.71.34l-.83-.34c-1.5-.23-1.19-1.13-.84-1.55.13.85 1.02.87 1.55.88.17 0 .31 0 .37.04-1.3-.74-.85-1.37-.46-1.6 0 .47.71.47 1.26.47.43 0 .93.53 1.13.8l1.75-.43a2.57 2.57 0 0 1-2.05-1.3l1.42.46a5.5 5.5 0 0 1 3.6.47l1.34 1.13c.57.47-.46 1.01-1.05 1.22-.95.07-2.92.37-3.26.97-.33.61 2.04-.1 3.26-.54v.88c-1.02.96-3.1 2.77-3.26 2.4-.15-.37 1.53-1.59 2.38-2.15-.25-.1-.87-.2-1.38.34-.5.54-1.3 1.07-1.63 1.26.57-.43.24-.66 0-.71-.3.64-1.07.97-1.42 1.05v-.67l-2.09.88c.74-.57.62-1.08.46-1.26-1.38.04-3.76 2.23-3.34 5.14.33 2.32 1.64 2.29 2.26 1.98-.67-.74-.84-1.32-.84-1.52.54 0 2.04-.3 2.72-.46-.4-.45-1.08-1.66-.55-2.9.67-1.57 2.47-.26 1.89-.26-.43 0-.79.5-1.06.9-.1.15-.2.28-.28.36-.3.3.46 1.35.83 1.35.3 0 .6-1.1.71-1.64h.71c.1-.64.74-1.2 1.05-1.4h.58a2.7 2.7 0 0 1 1.64-.84l.33.55c1-.23 1.48.1 1.59.3l-.25.42c1.07.6.44 2.67 0 3.62l1-.46c.6.84-.25 2.7-.75 3.54.14.55 1.24.4 1.99.29l.3-.04c.57-.07 1.92-1.8 2.51-2.65l-.37-1.14c.7 0 1.04.53 1.13.8V33.9c.53.3.97 1.03 1.13 1.35l.5-1.35c.4.5.16 1.33 0 1.69l.62-.68c.3.84-.29 1.36-.62 1.52l.62.34-1.12.58.5.64ZM27.56 24.38c.66-.1 2.26-.14 3.44.46-.82.04-2.65 0-3.44-.46Zm2.1.73c-.71-.02-2.1.01-2.01.33-.45.48-1.01 1.4.33 1.29l.65-.13c-.03-.27.09-.77.86-.6a5.2 5.2 0 0 0 1.51.12l.4-.82-1.75-.19ZM18.4 37.27l.64-1.26 1.15 1.96v1.53l-1.8-.96v-1.27Zm9.82-10.8a.5.5 0 0 0 .49-.5.5.5 0 0 0-.5-.52.5.5 0 0 0-.48.51c0 .29.22.52.49.52Z" fill="#FDFA52"/></svg>