<!-- by TradingView --><svg width="56" height="56" viewBox="0 0 56 56" xmlns="http://www.w3.org/2000/svg"><path fill="#F0F3FA" d="M0 0h56v56H0z"/><path d="M18.43 39.38a.13.13 0 0 0-.1.06.14.14 0 0 0-.01.12l1.16 3.32a.05.05 0 0 1 0 .04l-.02.01h-.02c-.52.08-1.03.09-1.53.03-.12-.02-.2-.09-.25-.22-.9-2.41-4.05-11-9.48-25.76a2.1 2.1 0 0 1-.18-.76c.06-.58.5-1.15 1.1-1.21.65-.07 1.1.21 1.36.83.18.44.08.7-.02 1.25a.13.13 0 0 0 .04.12.12.12 0 0 0 .12.03c.9-.27 1.8-.23 2.7.12.55.22 1.23.52 2.04.91 1.12.55 2.3.84 3.55.88a3.05 3.05 0 0 0 1.24-.33c.43-.2 1.11-.57 2.03-1.1.2-.12.63-.34 1.3-.66a8.6 8.6 0 0 1 4.28-.79c1.3.12 2.48.5 3.57 1.15.9.54 1.54.92 1.9 1.12 1.1.61 2.26 1 3.46 1.14.1.01.66 0 1.69-.03a8.6 8.6 0 0 0 1.66-.21 23.58 23.58 0 0 0 2.58-.75.06.06 0 0 1 .05.02.06.06 0 0 1 0 .06c-.2.53-.23.86-.4 1.76a8.97 8.97 0 0 0 .64 5.9l.3.63c.07.17.2.38.35.64.93 1.53 1.53 2.49 1.78 2.88a15.94 15.94 0 0 1 2.46 6.22c.02.16.05.46.07.9.02.27.11.54.15.76a.1.1 0 0 1-.04.1.1.1 0 0 1-.1.02 6.6 6.6 0 0 0-.7-.23l-.91-.26a10.05 10.05 0 0 0-3.33-.31c-.48.1-1.15.15-1.6.3-.46.14-.87.23-1.3.4-.87.33-1.63.6-2.29.82-1 .32-1.92.48-2.76.48a15.52 15.52 0 0 1-3.53-.32c-.64-.09-1.22-.28-1.9-.43l-.76-.2c-.47-.13-.98-.18-1.4-.28-.28-.06-.55-.14-.83-.16-.85-.1-1.52-.12-1.99-.1-.87.06-1.6.06-2.37.22-.91.18-1.63.33-2.15.46-.6.13-1.07.36-1.6.4Zm10.95-.87c.25.07.64.16 1.18.27.2.04.42.12.58.15.8.17 1.66.3 2.56.38.9.07 1.8.03 2.68-.13 1.13-.2 2.13-.63 3.51-1.15.96-.37 1.98-.62 3.08-.76a8.1 8.1 0 0 1 2.02.07c.47.06.86.2 1.25.26.4.06.77.2 1.2.37a.06.06 0 0 0 .07 0l.01-.03v-.04c-.06-.27-.16-.74-.28-1.4a15.41 15.41 0 0 0-2.03-5.13c-1.26-2.07-2.77-4.05-3.4-6.44-.1-.36-.13-.67-.2-1.17a5.75 5.75 0 0 1-.06-.88 15.53 15.53 0 0 1 .43-3.42.1.1 0 0 0-.06-.06h-.05c-.4.07-.74.24-1.18.34-.53.12-1.4.34-2 .38-1.04.05-1.9.04-2.6-.05a9.7 9.7 0 0 1-3.81-1.48c-.48-.3-.73-.43-1.25-.72a7.22 7.22 0 0 0-3.36-1.07 7.53 7.53 0 0 0-2.4.17c-.96.25-1.87.62-2.72 1.12-.98.56-1.75.98-2.33 1.23a3.6 3.6 0 0 1-1.98.26 9.43 9.43 0 0 1-2.8-.74c-.98-.43-1.63-.71-1.96-.84-.51-.19-.9-.35-1.36-.4a5.6 5.6 0 0 0-1.57.08c-.22.05-.3.19-.2.43l2.44 6.56 5.23 14.15a.18.18 0 0 0 .21.1c.77-.21 1.63-.43 2.59-.64a19.23 19.23 0 0 1 6.79-.17c.68.15 1.14.22 1.77.4Z" fill="#F1B242"/><path d="M29.38 38.51c-.63-.18-1.09-.25-1.77-.4a5.36 5.36 0 0 0-.72-.1l-1.55-.12a19.23 19.23 0 0 0-4.52.4c-.96.2-1.82.42-2.59.64a.17.17 0 0 1-.2-.11 137112.33 137112.33 0 0 0-7.68-20.71c-.1-.24-.02-.38.2-.43a5.6 5.6 0 0 1 1.57-.08c.47.05.85.21 1.36.4.33.13.98.4 1.95.84.93.42 1.73.6 2.8.74.71.1 1.37.01 2-.26a25.3 25.3 0 0 0 2.32-1.23c.85-.5 1.76-.87 2.72-1.12.78-.2 1.58-.22 2.4-.17a7.22 7.22 0 0 1 3.36 1.07c.52.3.77.43 1.25.72a9.7 9.7 0 0 0 3.81 1.48c.7.09 1.56.1 2.6.05.6-.04 1.47-.26 2-.38.44-.1.78-.27 1.18-.34a.09.09 0 0 1 .08.02.1.1 0 0 1 .03.09c-.27 1.1-.41 2.22-.43 3.37 0 .24.02.53.06.88.07.5.1.8.2 1.17.63 2.4 2.14 4.37 3.4 6.44.95 1.57 1.7 3.32 2.03 5.13a29.47 29.47 0 0 0 .28 1.44l-.01.02a.06.06 0 0 1-.06.01c-.44-.16-.8-.3-1.2-.37-.4-.06-.79-.2-1.26-.26a8.1 8.1 0 0 0-2.02-.07c-1.1.14-2.12.4-3.08.76-1.38.52-2.38.95-3.51 1.15-.88.16-1.78.2-2.68.13-.9-.08-1.76-.2-2.56-.38-.16-.03-.38-.11-.58-.15-.54-.11-.93-.2-1.18-.27Zm.5-11.94.05.96c0 .9.06 1.8.2 2.7.02.19.12.29.31.29 1.22.02 2.2.02 2.95.01.97-.01 1.86.04 2.9 0 .17-.02.28-.08.35-.2.29-.5.57-1.05.84-1.64.04-.09.12-.2.22-.35a.07.07 0 0 0 .02-.04l-.02-.05a6.94 6.94 0 0 0-.83-.78c-.32-.26-.39-.63-.1-.93.19-.21.4-.28.62-.41a.12.12 0 0 0 .05-.08c.03-.1.01-.2-.06-.29-.43-.58-1.19-1.57-2.26-2.95-.1-.13-.22-.2-.35-.21-.57-.04-1.17-.05-1.81-.02-.69.04-1.23-.02-1.87-.01-.19 0-.34.02-.43.2-.2.38-.27.82-.38 1.12-.19.51-.29 1.11-.5 1.68a.14.14 0 0 1-.16.08.14.14 0 0 1-.06-.03c-.25-.22-.45-.58-.6-.8l-1.45-1.98c-.08-.12-.23-.28-.42-.28a28.3 28.3 0 0 0-2.16.01c-.56.03-1.1.03-1.63 0-.7-.03-1.39.05-2.18.01a21.54 21.54 0 0 0-2.12.02.2.2 0 0 0-.1.15l.01.09.94 2.62a4.3 4.3 0 0 0 .4.68l.18.1.03.02.03.05c.03.08.09.23.16.47l.91 3.08c.07.22.15.42.26.58.03.07.1.1.16.1h6.8a.3.3 0 0 0 .2-.07.3.3 0 0 0 .1-.19c.16-1.09.3-2.1.74-3.1.05-.12.07-.32.06-.61Zm-3.65 6.33a.13.13 0 0 1-.1-.1 5.15 5.15 0 0 0-.46-1.21c-.03-.06-.1-.1-.2-.14a.1.1 0 0 0-.07 0c-.09.03-.11.1-.08.18l.84 1.84c.06.12.14.2.27.22a.2.2 0 0 0 .14-.04.2.2 0 0 0 .08-.14l.23-1.88c.02-.1-.03-.15-.13-.15l-.13.01c-.1.01-.15.07-.15.17 0 .37-.02.73-.08 1.07-.02.13-.07.19-.16.17Zm3.8-.3a.83.83 0 0 0-.3-.14.1.1 0 0 1-.08-.06c-.13-.3-.26-.7-.57-.92a.22.22 0 0 0-.1-.04h-.08a.15.15 0 0 0-.07.05.13.13 0 0 0-.03.08c0 .12.06.24.08.37.11.66.2 1.16.24 1.5.02.14.07.23.2.29a.12.12 0 0 0 .1-.01.12.12 0 0 0 .05-.1c.03-.28 0-.56-.09-.83-.01-.06-.02-.1 0-.13 0-.06.05-.09.12-.09l.04.01.02.03c.07.15.24.43.52.85.09.14.22.22.38.24a.1.1 0 0 0 .07-.01.1.1 0 0 0 .04-.07.8.8 0 0 0 0-.23 39.3 39.3 0 0 1-.35-1.77c-.02-.09-.07-.13-.15-.15h-.05c-.09-.01-.12.02-.11.11l.15 1c0 .03 0 .04-.03.02Zm6.3-.54.2 1.44c.03.15.11.2.26.19l.08-.02c.1-.01.13-.07.1-.16a3.5 3.5 0 0 1-.22-1.36c.01-.23.26-.35.33-.58a.1.1 0 0 0-.01-.08.09.09 0 0 0-.08-.04h-1.12a.16.16 0 0 0-.15.14v.08c.07.18.21.27.44.26a.16.16 0 0 1 .16.13Zm-2.96 1.26a.62.62 0 0 1-.5-.45c-.1-.27-.14-.62-.01-.89.08-.18.3-.15.44-.07.2.12.36.2.48.23a.09.09 0 0 0 .08-.02.09.09 0 0 0 .03-.09.5.5 0 0 0-.15-.24c-.32-.3-.9-.55-1.2-.07-.27.44-.13 1.04.1 1.45.12.2.6.66.9.56.3-.1.48-.34.51-.7 0-.03 0-.07-.03-.1a.13.13 0 0 0-.08-.04c-.2-.02-.3.18-.43.37a.13.13 0 0 1-.14.06Z" fill="#2E6742"/><path d="M29.93 27.53c.02-.07.04-.1.05-.11h.06l.03.03v.02c.15.88.22 1.66.21 2.34 0 .3.15.44.43.43a40.78 40.78 0 0 1 2.96.03.07.07 0 0 0 .04-.05v-.03l-1.48-7.11a.28.28 0 0 0-.1-.16.27.27 0 0 0-.18-.07l-.91.03a.19.19 0 0 0-.11.04.3.3 0 0 0-.08.1 49.45 49.45 0 0 1-.84 2.65c-.05.14-.08.29-.1.45l-.03.45c.01.29 0 .5-.06.6-.43 1-.58 2.02-.74 3.11a.3.3 0 0 1-.1.19.3.3 0 0 1-.2.07h-6.8a.19.19 0 0 1-.16-.1c-.1-.16-.2-.36-.26-.58a581.7 581.7 0 0 0-1.07-3.55.29.29 0 0 0-.03-.05.1.1 0 0 0-.03-.02l-.17-.1a4.3 4.3 0 0 1-.4-.68 235.79 235.79 0 0 0-.96-2.71.2.2 0 0 1 .1-.15 21.54 21.54 0 0 1 2.12-.02c.79.04 1.48-.04 2.18 0 .53.02 1.07.02 1.63 0a28.3 28.3 0 0 1 2.16-.02c.19 0 .34.16.42.28l1.45 1.99c.15.2.35.57.6.8a.14.14 0 0 0 .22-.06c.21-.57.31-1.17.5-1.68.11-.3.18-.74.38-1.11.1-.19.25-.2.43-.21.64-.01 1.18.05 1.87.01.64-.03 1.25-.02 1.81.02.13 0 .25.08.35.21 1.07 1.38 1.83 2.37 2.26 2.95.07.1.09.19.06.3 0 .03-.02.05-.05.07-.23.13-.43.2-.63.4-.28.31-.2.68.11.94a6.94 6.94 0 0 1 .85.83c0 .01 0 .03-.02.04-.1.15-.18.26-.22.35-.27.6-.55 1.14-.84 1.65-.07.11-.18.17-.35.18-1.04.05-1.93 0-2.9.01-.74.01-1.73 0-2.95-.01-.19 0-.29-.1-.32-.3-.13-.9-.2-1.8-.2-2.7ZM20.1 25.4c0 .02.01.03.03.04a.08.08 0 0 0 .08 0c.02 0 .03-.02.03-.03l1.15-2.45a.08.08 0 0 0 0-.07.08.08 0 0 0-.07-.04h-2a.08.08 0 0 0-.06.03.08.08 0 0 0-.01.08l.85 2.44Zm9.44.83a.27.27 0 0 0-.06-.24c-.4-.47-.74-1.03-1.1-1.5-.38-.48-.68-.9-.9-1.27-.16-.24-.4-.36-.72-.36a120.45 120.45 0 0 1-2.39-.01.13.13 0 0 0-.07.14c.13.7.3 1.39.52 2.06.05.17.15.36.3.55 2.06 2.61 3.24 4.11 3.53 4.5.05.06.1.08.16.07a.1.1 0 0 0 .06-.03 8.41 8.41 0 0 1 .36-2.3c.13-.41.17-1.09.31-1.6Zm4.59-.01h-.46a.13.13 0 0 0-.1.04.13.13 0 0 0-.03.1c.02.3.16.6.2.87.07.45.17.92.28 1.41.11.5.2.99.25 1.46a.15.15 0 0 0 .15.13h1.8c.06 0 .12-.02.17-.06.05-.03.1-.08.12-.13l.81-1.73c.03-.05.02-.1-.03-.12-.55-.39-1.17-.82-.98-1.58.03-.09.1-.17.22-.27a26.26 26.26 0 0 1 .61-.46l.01-.03a.08.08 0 0 0-.02-.06c-.39-.4-.77-.87-1.15-1.43-.27-.39-.61-.74-.89-1.14-.17-.25-.43-.37-.77-.36a15.93 15.93 0 0 1-1.38 0 .16.16 0 0 0-.09.13c0 .03 0 .05.02.08l1.37 2.97a.13.13 0 0 1-.05.16.13.13 0 0 1-.06.02ZM20.63 26c.11.2.22.38.28.6l.86 3.05c.06.2.14.37.25.53a.13.13 0 0 0 .1.06c1.72 0 2.72 0 3.01.02a8.65 8.65 0 0 1 .46.03.08.08 0 0 0 .05-.06v-.04l-1.8-7.12a.26.26 0 0 0-.24-.2h-1.33c-.2 0-.35.1-.43.27a78.9 78.9 0 0 1-1.2 2.6c-.05.1-.05.2-.02.26Zm7.42 4.12-2.82-3.5a.05.05 0 0 0-.07 0c-.01 0-.02 0-.02.02a.51.51 0 0 0 .01.26c.5 1.73.76 2.64.89 3.2a.22.22 0 0 0 .24.18c.63-.07 1.2-.06 1.68.01.17.03.2-.03.1-.17Z" fill="#F8D747"/><path d="m20.1 25.41-.85-2.44a.08.08 0 0 1 0-.08.08.08 0 0 1 .07-.03h2a.08.08 0 0 1 .07.04.08.08 0 0 1 0 .07l-1.15 2.45a.08.08 0 0 1-.07.04l-.04-.01a.08.08 0 0 1-.03-.04ZM29.54 26.24c-.14.52-.18 1.2-.3 1.62a8.41 8.41 0 0 0-.37 2.29.1.1 0 0 1-.06.03c-.06.01-.11-.01-.16-.07l-3.52-4.5c-.16-.2-.26-.38-.31-.55a18.78 18.78 0 0 1-.52-2.12.13.13 0 0 1 .07-.08l.06-.02 2.33.03c.33 0 .56.12.71.36.23.36.53.79.9 1.27.37.47.71 1.03 1.11 1.5a.27.27 0 0 1 .06.24ZM29.93 27.53l-.05-.96.04-.45c0-.16.04-.3.08-.45a49.45 49.45 0 0 0 .85-2.65.3.3 0 0 1 .08-.1.19.19 0 0 1 .1-.04l.92-.03c.07 0 .13.02.18.06.05.05.09.1.1.17l1.48 7.11a.07.07 0 0 1-.01.06.07.07 0 0 1-.06.03c-.96-.05-1.94-.06-2.93-.04-.28.01-.43-.13-.43-.43a14.36 14.36 0 0 0-.24-2.39.07.07 0 0 0-.06 0l-.05.1ZM34.13 26.23a.13.13 0 0 0 .1-.06.13.13 0 0 0 .01-.12l-1.37-2.97a.16.16 0 0 1 0-.16.16.16 0 0 1 .15-.07c.4.02.84.03 1.3.02.34 0 .6.11.77.36.28.4.62.75.89 1.14a10.64 10.64 0 0 0 1.17 1.46.08.08 0 0 1-.03.09c-.16.1-.35.25-.59.43-.12.1-.2.18-.22.27-.2.76.43 1.2.98 1.58.05.03.06.07.03.12l-.8 1.73a.33.33 0 0 1-.3.19h-1.8a.15.15 0 0 1-.15-.13c-.06-.47-.14-.96-.25-1.46-.11-.49-.2-.96-.28-1.41-.04-.27-.18-.58-.2-.87a.14.14 0 0 1 .08-.13l.05-.01h.46ZM20.62 26c-.03-.06-.03-.15.03-.26.42-.87.82-1.74 1.2-2.59.07-.18.21-.27.42-.27h1.33a.25.25 0 0 1 .24.2l1.8 7.12a.08.08 0 0 1-.06.1h-.03a8.63 8.63 0 0 0-.42-.03 70.36 70.36 0 0 0-3.07-.03.13.13 0 0 1-.05-.05c-.1-.16-.19-.33-.24-.53l-.86-3.05c-.06-.22-.17-.4-.29-.6ZM25.23 26.63l2.82 3.5c.12.14.08.2-.1.17a6.67 6.67 0 0 0-1.67-.01.22.22 0 0 1-.24-.17c-.13-.57-.4-1.48-.89-3.2a.51.51 0 0 1 0-.27v-.03a.05.05 0 0 1 .06 0h.02Z" fill="#DA3832"/><path d="M26.23 32.9c.09.02.14-.04.16-.17.06-.34.09-.7.08-1.07 0-.1.05-.16.16-.17h.12c.1-.01.15.03.13.14l-.23 1.88a.2.2 0 0 1-.08.14.2.2 0 0 1-.14.04c-.13-.01-.21-.1-.27-.22a87.62 87.62 0 0 1-.84-1.84c-.03-.09 0-.15.08-.18a.1.1 0 0 1 .07 0c.1.03.17.08.2.14a5.14 5.14 0 0 1 .5 1.27c.01.02.04.03.06.04ZM30.06 32.59l-.15-1c-.01-.1.02-.13.1-.12h.06c.08.02.13.06.15.15.1.56.21 1.16.35 1.77a.8.8 0 0 1 0 .23.1.1 0 0 1-.04.07.1.1 0 0 1-.07.01.54.54 0 0 1-.38-.24 9.38 9.38 0 0 1-.54-.88.06.06 0 0 0-.04 0c-.07 0-.11.02-.13.08l.01.13c.09.27.12.55.1.83a.12.12 0 0 1-.06.1.12.12 0 0 1-.1 0c-.13-.05-.18-.14-.2-.28a45 45 0 0 0-.24-1.5c-.02-.13-.09-.25-.08-.37 0-.03 0-.06.03-.08a.15.15 0 0 1 .07-.04c.03-.01.06-.02.09-.01.03 0 .06.02.09.04.31.23.44.61.57.92a.1.1 0 0 0 .07.06c.1.02.21.07.31.14.03.02.04.01.03-.01ZM36.32 32.06a.16.16 0 0 0-.16-.13c-.23.01-.37-.08-.44-.26a.17.17 0 0 1 .02-.15.16.16 0 0 1 .13-.07H37a.09.09 0 0 1 .08.04.1.1 0 0 1 0 .08c-.06.23-.3.35-.32.58-.03.4.04.86.22 1.36.03.1 0 .15-.1.16l-.08.02c-.15.02-.23-.04-.25-.2l-.22-1.43ZM33.37 33.32a.13.13 0 0 0 .14-.06c.13-.2.23-.4.43-.37.03 0 .06.02.08.05.03.02.04.06.03.1-.03.35-.2.58-.52.7-.28.1-.77-.36-.88-.57-.24-.41-.38-1.01-.1-1.45.28-.48.87-.23 1.19.07a.5.5 0 0 1 .15.24.1.1 0 0 1-.03.09.09.09 0 0 1-.08.02 2.48 2.48 0 0 1-.48-.23c-.14-.08-.36-.11-.44.07-.13.27-.08.62.01.9.08.24.25.4.5.44Z" fill="#F8D747"/></svg>