<!-- by TradingView --><svg width="56" height="56" viewBox="0 0 56 56" xmlns="http://www.w3.org/2000/svg"><path fill="#F0F3FA" d="M0 0h56v56H0z"/><circle cx="28" cy="28" r="17" fill="#9DCFEF"/><path fill="#173472" d="M20 40h16v2H20zM22.02 39 21 40h14l-1.02-1H22.02Z"/><path fill="#E5FFFF" d="M11 27h34v1H11z"/><path fill="#E5FFFF" d="M28 19v18h-1V19z"/><path d="m16.69 16.06-.57.58c1.1.53 2.3.99 3.6 1.36-2.1 2.5-3.4 5.95-3.4 9.76 0 4.05 1.47 7.7 3.8 10.22.29-.07.57-.15.86-.21a14.14 14.14 0 0 1-3.9-10.01c0-3.8 1.34-7.17 3.46-9.54 2.25.57 4.75.89 7.37.89 2.68 0 5.22-.33 7.52-.93a14.27 14.27 0 0 1 3.5 9.58c0 4.08-1.55 7.66-3.94 10.04l.85.22a15.05 15.05 0 0 0 3.84-10.26c0-3.83-1.31-7.3-3.43-9.8 1.28-.38 2.48-.85 3.57-1.38l-.57-.58a26.85 26.85 0 0 1-11.34 2.34c-4.28 0-8.18-.86-11.22-2.28Zm22.88 23.33A27.6 27.6 0 0 0 27.9 37c-4.37 0-8.38.88-11.53 2.34.19.2.38.4.58.58 3-1.34 6.8-2.15 10.95-2.15 4.2 0 8.05.83 11.07 2.2.2-.18.4-.37.59-.57Z" fill="#E5FFFF"/><path d="M34 31.76 26.17 20 24 22.43 31.83 34 34 31.76ZM39 31.76 31.17 20 29 22.43 36.83 34 39 31.76ZM17 30.65 22.28 24 24 26.52 18.74 33 17 30.65Z" fill="#173472"/><path d="M27 32.56c0-.85.78-2.06 1.17-2.56v1.7c0 1.18 1.83 2.89 1.83 4.06 0 1.17-1 2.24-2.08 2.24A1.97 1.97 0 0 1 26 36.08c0-.96.42-1.39.58-1.5.17-.1.67-.1.42.22-.33.43 0 1.39.33 1.39.34 0 .59 0 .59-.86 0-.85-.92-1.7-.92-2.77Z" fill="#E1280F"/><path d="M14.19 33.87a15 15 0 1 1 27.62 0l-1.93-.57a13 13 0 1 0-23.75 0l-1.94.57Z" fill="#173472" fill-opacity=".5"/><path d="m28 16 .47 1.15H30l-1.24.7.48 1.15-1.24-.7-1.24.7.48-1.15-1.24-.7h1.53L28 16Z" fill="#E1280F"/><path fill-rule="evenodd" d="M28 45a17 17 0 1 0 0-34 17 17 0 0 0 0 34Zm0-1a16 16 0 1 0 0-32 16 16 0 0 0 0 32Z" fill="#14337D"/></svg>