<!-- by TradingView --><svg width="56" height="56" fill="none" xmlns="http://www.w3.org/2000/svg"><path fill="#F0F3FA" d="M0 0h56v56H0z"/><path fill-rule="evenodd" clip-rule="evenodd" d="M28.32 23.93v-2.82c.071-.037.277-.11.531-.11 1.149 0 1.458.989 1.469 1.483C30.32 23.9 29.086 24 28.85 24c-.188 0-.432-.047-.531-.07ZM26 21v3c.5-.056 1.5-.434 1.5-1.495 0-1.061-1-1.446-1.5-1.505Zm6.5 3a1.5 1.5 0 1 0 0-3 1.5 1.5 0 0 0 0 3Z" fill="#F36F4F"/><path fill-rule="evenodd" clip-rule="evenodd" d="M4 25v1.497h1.5V31h2v-4.503h1.319V25H4Zm5 0v6h2v-4.482h.969c.354 0 .64.31.64.693 0 .383-.286.789-.64.789h-.652l1.536 3h3.08l1.377-3.569L18.645 31H20v-1.509L18.182 25h-1.776l-2.052 5.118-.717-1.496c.513-.526.656-1.28.664-1.59 0-1.559-1.216-2.004-1.824-2.032H9Zm11.5 6h1.972v-2.713L24.322 31H26v-6h-2v2.695L22.143 25H20.5v6Zm9.994-4.174v-1.509c-.252-.106-.98-.317-1.878-.317-1.124 0-2.326.564-2.326 1.826 0 1.01.831 1.545 1.247 1.686.46.144 1.373.49 1.341.71-.039.276-.391.358-.788.358-.317 0-1.25-.297-1.676-.446v1.486c.283.127 1.102.38 2.114.38 1.265 0 2.24-.677 2.24-1.866 0-1.19-.877-1.602-1.383-1.742-.507-.14-1.156-.372-1.156-.636s1.134-.495 2.265.07ZM31 31h2v-6h-2v6Zm2.5 0v-1.483L35.365 25H37v2.624L38.267 25H40v6h-2v-2.264L37.264 31H36v-2.264L34.855 31H33.5ZM45 31v-1.483h-2v-.798h1.512v-1.438H43v-.82h2V25h-4v6h4Zm6.823-6h-2.31l-.853 1.22-.854-1.22h-2.32l2.008 2.888L45.32 31h2.372l.98-1.421.988 1.421H52l-2.17-3.105L51.823 25Z" fill="#636466"/></svg>