<!-- by TradingView --><svg width="56" height="56" viewBox="0 0 56 56" xmlns="http://www.w3.org/2000/svg"><path fill="#F0F3FA" d="M0 0h56v56H0z"/><path fill-rule="evenodd" d="M50 28c0 6.08-9.85 11-22 11S6 34.08 6 28s9.85-11 22-11 22 4.92 22 11Zm-3.84 0c0 5.56-8.13 10.06-18.16 10.06S9.84 33.56 9.84 28c0-5.56 8.13-10.06 18.16-10.06S46.16 22.44 46.16 28ZM14 23h8v2h-3v8h-2v-8h-3v-2Zm24 0h-3v2h3v8h2v-8h3v-2h-5ZM25 33h-2V23h2l3.5 7.22L32 23h2v10h-2v-5.58L29.14 33h-1.36L25 27.42V33Z" fill="#243B81"/></svg>