<!-- by TradingView --><svg width="56" height="56" viewBox="0 0 56 56" xmlns="http://www.w3.org/2000/svg"><path fill="#F0F3FA" d="M0 0h56v56H0z"/><path d="M40.28 13h-7.37l-6.27 7.72 3.76 2.97c1.3 0 9.88-10.69 9.88-10.69Z" fill="url(#a)"/><path d="M25.9 24c-1.54 0-9.67-11-9.67-11h6.35l7.3 8.94c.6.6 1.63.6 2.17.52A4.38 4.38 0 0 1 29.88 24H25.9Z" fill="url(#b)"/><path d="M16.23 43h7.38l6.27-7.72-3.76-2.97c-1.3 0-9.89 10.69-9.89 10.69Z" fill="url(#c)"/><path d="M30.62 32c1.53 0 9.66 11 9.66 11h-6.34l-7.3-8.94c-.6-.6-1.63-.6-2.17-.52A4.38 4.38 0 0 1 26.64 32h3.98Z" fill="url(#d)"/><path d="M13 15.83v7.42l7.72 6.3 2.97-3.78c0-1.3-10.69-9.94-10.69-9.94Z" fill="url(#e)"/><path d="M24 30.29c0 1.54-11 9.7-11 9.7v-6.37l8.94-7.33c.6-.6.6-1.64.52-2.18A4.4 4.4 0 0 1 24 26.29v4Z" fill="url(#f)"/><path d="M43 40v-7.41l-7.72-6.3-2.97 3.78C32.3 31.37 43 40 43 40Z" fill="url(#g)"/><path d="M32 25.54c0-1.54 11-9.7 11-9.7v6.37l-8.94 7.34c-.6.59-.6 1.63-.52 2.18A4.4 4.4 0 0 1 32 29.55v-4Z" fill="url(#h)"/><defs><linearGradient id="a" x1="37.26" y1="13" x2="30.54" y2="22.41" gradientUnits="userSpaceOnUse"><stop stop-color="#FFBA00"/><stop offset="1" stop-color="#FE681B"/></linearGradient><linearGradient id="b" x1="18.23" y1="13.69" x2="30.71" y2="23.04" gradientUnits="userSpaceOnUse"><stop stop-color="#FC5500"/><stop offset="1" stop-color="#FFBA00"/></linearGradient><linearGradient id="c" x1="19.26" y1="43" x2="25.98" y2="33.59" gradientUnits="userSpaceOnUse"><stop stop-color="#FFBA00"/><stop offset="1" stop-color="#FE681B"/></linearGradient><linearGradient id="d" x1="38.29" y1="42.31" x2="25.8" y2="32.96" gradientUnits="userSpaceOnUse"><stop stop-color="#FC5500"/><stop offset="1" stop-color="#FFBA00"/></linearGradient><linearGradient id="e" x1="13" y1="18.87" x2="22.44" y2="25.59" gradientUnits="userSpaceOnUse"><stop stop-color="#FFBA00"/><stop offset="1" stop-color="#FE681B"/></linearGradient><linearGradient id="f" x1="13.69" y1="38" x2="23.1" y2="25.49" gradientUnits="userSpaceOnUse"><stop stop-color="#FC5500"/><stop offset="1" stop-color="#FFBA00"/></linearGradient><linearGradient id="g" x1="43" y1="36.96" x2="33.56" y2="30.25" gradientUnits="userSpaceOnUse"><stop stop-color="#FFBA00"/><stop offset="1" stop-color="#FE681B"/></linearGradient><linearGradient id="h" x1="42.31" y1="17.84" x2="32.9" y2="30.34" gradientUnits="userSpaceOnUse"><stop stop-color="#FC5500"/><stop offset="1" stop-color="#FFBA00"/></linearGradient></defs></svg>