<!-- by TradingView --><svg width="56" height="56" viewBox="0 0 56 56" xmlns="http://www.w3.org/2000/svg"><path fill="#F0F3FA" d="M0 0h56v56H0z"/><path d="m30.38 18 .26.06.73.02c.02 0 .03 0 .05.02a4.1 4.1 0 0 1 .63.05h.01l.01.01h.02c.18 0 .32 0 .42.02l.3.03c.14 0 .24.01.28.03.12.04.24.01.36.04l.25.03c.09 0 .16 0 .21.02a.7.7 0 0 0 .2.03c.11 0 .26.05.4.06a35.01 35.01 0 0 1 6.3 1.42c1.02.32 2.03.72 3.03 1.19.88.4 1.73.89 2.54 1.43a9.4 9.4 0 0 1 2.93 3A5.39 5.39 0 0 1 50 27.4v1.12a5.82 5.82 0 0 1-1.15 2.7 11.42 11.42 0 0 1-3.29 2.8c-1.7 1.01-3.6 1.78-5.5 2.34a37.64 37.64 0 0 1-6.6 1.32c-.16.04-.3.01-.45.05-.17.05-.33 0-.5.05-.17.05-.37 0-.56.05-.07.02-.18.03-.33.02l-.33.03c-.17.02-.36.03-.59.02-.13 0-.33.05-.45.05l-.98.01c-.78.05-1.56.05-2.33.01l-.68-.02c-.3 0-.53 0-.68-.02l-.43-.03a3.1 3.1 0 0 1-.43-.02c-.22-.05-.45 0-.66-.05-.19-.04-.4 0-.57-.05-.11-.03-.2-.03-.31-.03-.03 0-.1 0-.23-.03-.13-.02-.26 0-.38-.04-.13-.04-.3-.02-.45-.05a26.67 26.67 0 0 1-9.88-2.66 16.27 16.27 0 0 1-3.8-2.39C7.2 31.5 6.14 30.04 6 28.33v-.7l.01-.02.01-.02c.01-.19.03-.36.07-.52.48-2.36 2.55-4.1 4.56-5.25a21.5 21.5 0 0 1 3.85-1.74c.01-.03.04-.04.08-.03h.03a.44.44 0 0 1 .02-.03 84.87 84.87 0 0 1 1.73-.54c1.36-.39 2.77-.7 4.22-.93 0 0 .06 0 .16-.03.1-.02.19 0 .28-.04.1-.03.23-.01.34-.05a.54.54 0 0 1 .2-.02c.04 0 .11 0 .2-.04h.16l.16-.03c.09-.03.21-.04.36-.03l.04-.01a.09.09 0 0 1 .05-.03h.23l.23-.04c.1-.02.23-.02.37-.01.02 0 .03 0 .05-.02a.07.07 0 0 1 .04-.02c.13-.02.29-.02.47-.01l.03-.02a.07.07 0 0 1 .05-.02l1.38-.08.25-.05h4.75ZM28 20.06c.93 0 1.8-.1 2.7-.28.5-.1.97-.26 1.43-.48a2.18 2.18 0 0 0 .84-.66.03.03 0 0 0-.02-.03 62.28 62.28 0 0 1-1.4-.12c-.26 0-.5-.05-.73-.05-.28 0-.6-.04-.9-.04a108.3 108.3 0 0 1-2.01-.05l-1.82.05c-.3 0-.62.05-.9.04-.23 0-.47.04-.73.05l-.3.02a59.96 59.96 0 0 1-1.12.11v.03c.2.3.53.5.84.65.46.21.94.37 1.43.48.9.19 1.77.28 2.7.28Zm-3.38-.08c-.72-.2-1.6-.6-1.98-1.3a36.53 36.53 0 0 0-6.57 1.3.03.03 0 0 0 .02.04 8.9 8.9 0 0 0 2.94 1.67c1.78-.85 3.64-1.4 5.58-1.68.06 0 .06-.02 0-.03Zm8.75-1.3c-.34.68-1.2 1.07-1.88 1.27a19.35 19.35 0 0 1 5.73 1.67 8.49 8.49 0 0 0 2.72-1.63.03.03 0 0 0-.03-.03 36.86 36.86 0 0 0-6.54-1.27Zm-17.9 9.3c0 .22-.25.18-.43.18H6.37a.02.02 0 0 0-.01.02c.1 1.98 1.53 3.6 3.05 4.7l.01.01h.01a20.06 20.06 0 0 1 4.97-2.38 35.7 35.7 0 0 1 5.82-1.4c.11-.02.19.03.22.17-.02.11-.08.17-.17.19-1.09.17-2.23.4-3.44.7a23.4 23.4 0 0 0-6.99 2.9.03.03 0 0 0 .01.02c.55.41 1.13.78 1.75 1.11a22.04 22.04 0 0 0 4.06 1.64 8.38 8.38 0 0 1 2.9-1.84 10.23 10.23 0 0 1-2.94-2.3c-.08-.1-.08-.18.01-.26.1-.08.18-.08.26.01a10.21 10.21 0 0 0 3.15 2.38 23.84 23.84 0 0 1 5.58-1.22l-.22-.74c-.03-.11.02-.18.14-.22.11-.02.18.02.22.14l.23.78a33.45 33.45 0 0 1 6 .03c.03 0 .04-.01.05-.04l.22-.73c0-.02.01-.05.03-.07a.19.19 0 0 1 .05-.04.15.15 0 0 1 .07-.03c.02 0 .04 0 .06.02h.01c.12.03.16.1.13.22l-.2.69a.02.02 0 0 0 0 .01 23.33 23.33 0 0 1 5.78 1.27 10.9 10.9 0 0 0 2.9-2.03c.07-.06.11-.1.14-.1.19-.04.28.2.15.33a10.27 10.27 0 0 1-2.72 2c-.02 0-.02 0 0 .01a8 8 0 0 1 2.73 1.75 19.63 19.63 0 0 0 5.78-2.8l-.01-.01a20.18 20.18 0 0 0-4.77-2.23 35.75 35.75 0 0 0-5.87-1.38c-.13-.02-.19-.1-.17-.21.01-.13.08-.18.19-.17 2.28.35 4.53.88 6.68 1.66a19.2 19.2 0 0 1 4.39 2.16c1.52-1.12 2.91-2.7 3.05-4.7l-.01-.01a.03.03 0 0 0-.02-.01h-8.86c-.13 0-.2-.05-.22-.17a.07.07 0 0 1 0-.03c.02-.12.1-.18.22-.18a2111.77 2111.77 0 0 0 8.88 0v-.02c-.13-2-1.52-3.58-3.04-4.7h-.04a19.2 19.2 0 0 1-4.35 2.17c-2.15.78-4.4 1.3-6.68 1.66-.11.01-.18-.04-.19-.16v-.01c-.02-.12.04-.19.17-.2 2.04-.32 4-.78 5.87-1.4a20.17 20.17 0 0 0 4.78-2.26h-.01a19.63 19.63 0 0 0-5.8-2.76 8 8 0 0 1-2.7 1.76l.56.32c.8.47 1.52 1.02 2.16 1.67.13.13.04.37-.15.33a10.9 10.9 0 0 0-3.09-2.13 23.34 23.34 0 0 1-5.73 1.28l.2.69c.03.11-.01.19-.13.22a.13.13 0 0 1-.07.01c-.02 0-.05 0-.07-.02a.19.19 0 0 1-.05-.05.21.21 0 0 1-.03-.06l-.22-.73c0-.03-.02-.04-.05-.03-1.98.17-3.97.17-5.97 0-.02 0-.03 0-.03.02l-.23.78c-.04.12-.1.16-.22.14-.12-.04-.17-.11-.14-.22l.21-.75v-.01a23.84 23.84 0 0 1-5.57-1.2H19c-1.17.6-2.24 1.38-3.11 2.38-.08.09-.16.1-.25.01h-.01c-.09-.08-.1-.17-.01-.26a10.23 10.23 0 0 1 2.94-2.33 8.38 8.38 0 0 1-2.94-1.82c-1.41.42-2.75.97-4.02 1.65a13.4 13.4 0 0 0-1.76 1.13.03.03 0 0 0 .01.02 23.4 23.4 0 0 0 6.98 2.87c1.2.3 2.36.54 3.44.71.1.01.15.08.17.19-.04.14-.1.2-.22.17a35.7 35.7 0 0 1-5.82-1.4 20.06 20.06 0 0 1-5-2.38c-1.5 1.1-2.93 2.72-3.04 4.71v.01h8.68c.18 0 .42-.03.42.2Zm15.3-7.73a.45.45 0 0 1-.13-.06h-.02l-1.02.16c-.01 0-.02 0 0 .02a6.07 6.07 0 0 1 1.67 2.58h.02a24.06 24.06 0 0 0 5.39-1.14v-.02h-.02a20.4 20.4 0 0 0-5.89-1.54Zm-4.34.1c-.19-.03-.4-.05-.61-.1a19.96 19.96 0 0 0-6.27 1.6c-.03.03-.03.04 0 .05a24.32 24.32 0 0 0 5.21 1.04c.35-.96.9-1.92 1.67-2.58Zm1.58.08a17.37 17.37 0 0 1-1.1-.01 5.43 5.43 0 0 0-1.78 2.56h.01a.02.02 0 0 0 .02.02 32.42 32.42 0 0 0 5.72-.03 5.43 5.43 0 0 0-1.67-2.44c-.05-.04-.07-.06-.1-.11a17.49 17.49 0 0 1-1.1.02Zm0 15.09a17.38 17.38 0 0 1 1.1.01 5.43 5.43 0 0 0 1.76-2.58 32.46 32.46 0 0 0-5.73.03c.35.93.88 1.84 1.68 2.44l.1.11c0 .02.02.02.04.02l1.05-.03Zm-1.57.07a6.14 6.14 0 0 1-1.7-2.6c-1.8.17-3.53.52-5.2 1.06-.02 0-.02.02 0 .04a19.97 19.97 0 0 0 5.93 1.6c.13 0 .24.02.35 0a8.68 8.68 0 0 1 .62-.1Zm4.33.1a20.38 20.38 0 0 0 5.9-1.55v-.01l-.01-.01a24.08 24.08 0 0 0-5.4-1.1 6.07 6.07 0 0 1-1.66 2.58l1.02.16h.02l.13-.06Zm-6.16.28c.06-.01.06-.03 0-.03-1.94-.27-3.8-.83-5.59-1.68-.01-.01-.04 0-.08.01a8.9 8.9 0 0 0-2.87 1.7h.01l.02.02a36.52 36.52 0 0 0 6.54 1.27c.37-.7 1.26-1.09 1.97-1.29Zm8.76 1.3.03.01a36.87 36.87 0 0 0 6.54-1.32v-.01l-.01-.02a8.5 8.5 0 0 0-2.77-1.6A19.35 19.35 0 0 1 31.5 36c.67.2 1.54.6 1.88 1.26ZM28 35.88c-.92 0-1.79.1-2.68.28-.5.1-.98.26-1.43.48a2.17 2.17 0 0 0-.85.66v.01l.01.01h.02a67.95 67.95 0 0 1 1.4.12c.25.01.5.06.72.05.28 0 .6.05.9.05a109.5 109.5 0 0 1 2.01.04l1.82-.04c.3 0 .62-.05.9-.05.23 0 .47-.04.73-.05.12 0 .21 0 .3-.02a64.3 64.3 0 0 1 1.12-.1.03.03 0 0 0 0-.03c-.22-.3-.54-.5-.85-.65a6.43 6.43 0 0 0-1.43-.48 12.8 12.8 0 0 0-2.69-.28Z" fill="#29186A"/><path d="M34.54 26.33a.03.03 0 0 0 .04 0l.28-.28a.05.05 0 0 1 .04-.01h.3a.04.04 0 0 1 .03.03v.02l-.25 1.5c0 .02 0 .04-.02.05a.06.06 0 0 1-.04.01h-.29c-.05 0-.07-.02-.08-.07-.02-.28-.1-.72-.33-.91-.4-.35-.97-.37-1.45-.21-.86.28-1.2 1.26-1.27 2.07-.05.48.13.9.62 1.03.9.24 1.87-.1 2.28-1 .03-.06.08-.08.15-.07l.23.04c.07 0 .09.05.06.11-.3.66-.83 1.08-1.52 1.26-.74.19-1.7.14-2.33-.4a1.37 1.37 0 0 1-.45-1.4c.17-.8.7-1.34 1.4-1.72.75-.41 1.86-.57 2.6-.05ZM22.82 26.44a.04.04 0 0 0 0-.03l-.02-.01-.02-.01c-.54-.08-.98.11-1.3.58l-.3.56c-.02.05-.06.08-.12.08h-.2c-.07 0-.1-.03-.07-.1l.45-1.48.01-.02.03-.01h4.12c.05 0 .07.03.07.08l-.24 1.48c0 .04-.03.06-.06.06h-.27c-.04 0-.06-.02-.06-.06.01-.21 0-.42-.05-.61-.11-.5-.6-.65-1.03-.55a.1.1 0 0 0-.05.03.11.11 0 0 0-.03.05l-.66 3.03c0 .03 0 .04.02.05.22.1.4.06.69.05.04 0 .06.02.06.07l-.04.24c0 .05-.04.08-.1.08H21.3c-.06 0-.08-.03-.07-.09l.03-.2c.01-.07.04-.1.1-.1h.63c.1 0 .15-.05.17-.15l.67-3.02ZM28.64 28c.26.1.42.38.46.67.03.28.02.6.12.75l.06.05h.08c.16-.06.26-.31.29-.46 0-.05.04-.07.08-.07l.28.02h.02l.02.02a.06.06 0 0 1 .01.05c-.12.55-.42.87-.88.95-.22.04-.42.02-.6-.05-.36-.15-.4-.51-.35-.88.02-.12.05-.29.04-.41-.02-.3-.18-.48-.49-.53-.2-.04-.44-.05-.7-.04-.02 0-.03.01-.03.03l-.3 1.37c-.01.08.02.12.1.13l.54.03c.05 0 .07.03.06.08l-.05.2c-.01.05-.04.09-.1.09h-2.24c-.06 0-.08-.04-.07-.1l.05-.2c.01-.06.05-.08.1-.08l.5-.01c.23-.02.24-.16.3-.37.18-.87.38-1.8.58-2.67a.45.45 0 0 0 .01-.1c0-.05-.02-.07-.07-.07l-.61-.04a.06.06 0 0 1-.04-.03.06.06 0 0 1-.01-.05l.04-.21c.01-.05.04-.07.08-.07h2.71c.5 0 1.51.2 1.38.96-.11.64-.8.9-1.37 1-.04.01-.04.02 0 .03Zm-1.5-.33c0 .02.01.02.02.02.3.02.61.02.95-.01.45-.05.82-.18.94-.69.07-.31-.05-.6-.38-.6a183.32 183.32 0 0 1-1.1 0c-.1 0-.15.05-.17.16-.11.47-.2.85-.25 1.12Z" fill="#D7261D"/></svg>