<!-- by TradingView --><svg width="56" height="56" viewBox="0 0 56 56" xmlns="http://www.w3.org/2000/svg"><path fill="#F0F3FA" d="M0 0h56v56H0z"/><path d="M45.93 23.64h.1c.84-.85 2.39-.63 3.31-.58.79.04.87.3.25.8-1.09.89-2.28 1.65-3.58 2.28h-.16c-1.3-.63-2.49-1.4-3.58-2.27-.62-.5-.53-.77.25-.8.92-.06 2.47-.28 3.3.57h.11ZM11.99 34c-.64 0-.88-.01-1.07-.03-.21-.03-.3-.13-.24-.29a.87.87 0 0 1 .17-.22c.1-.1.15-.23.15-.36v-7.93c0-.17-.1-.27-.27-.3a14 14 0 0 0-4.48.16c-.17.04-.25-.03-.25-.2v-1.7c0-.09.04-.13.13-.13h11.75c.08 0 .12.06.12.14v1.7c0 .18-.08.24-.25.2a13.98 13.98 0 0 0-4.48-.16c-.17.02-.26.12-.27.3v7.92c0 .14.04.26.13.36.09.1.15.18.16.23.06.16-.02.25-.23.28-.19.02-.43.03-1.07.03ZM44.12 32.95a.13.13 0 0 0-.03-.06.13.13 0 0 0-.1-.04l-.06.01a7.29 7.29 0 0 1-6.57.64c-3.28-1.2-4.38-5.32-2.31-8.2.93-1.32 2.4-2.08 4.43-2.3.11-.01.17.04.17.17v1.44c0 .03 0 .06-.02.08a.1.1 0 0 1-.07.04c-2.07.52-3.21 1.67-3.44 3.46-.59 4.68 6.43 5.41 7.68 1.93a.47.47 0 0 0-.05-.4.39.39 0 0 0-.14-.14.35.35 0 0 0-.18-.04H40v-1.38c0-.05.02-.09.05-.12a.15.15 0 0 1 .11-.04h5.56c.19 0 .28.09.28.28v5.11c0 .16-.07.25-.2.3-.95.28-1.5.03-1.68-.74ZM23 26.54v6.5c0 .16.11.3.2.43l.15.2c.17.22.12.33-.13.33h-2.34c-.33 0-.4-.13-.21-.35l.1-.11c.09-.1.23-.22.23-.34v-9.04c0-.35-.22-.58-.29-.88-.04-.2.02-.29.16-.28H23c.17 0 .31.15.42.29l5.11 7.08c.28.37.48.31.47-.16v-6.05c0-.27-.16-.56-.32-.86a.2.2 0 0 1 0-.18.17.17 0 0 1 .07-.06c.02-.02.05-.06.08-.06h2.22c.21 0 .27.14.18.34l-.08.2c-.06.13-.15.28-.15.43v8.82c0 .38.12.59.24.89.08.21 0 .32-.2.32h-1.97a.47.47 0 0 1-.4-.2l-5.32-7.37c-.19-.26-.35-.22-.35.11Z" fill="#0C082A"/></svg>