<!-- by TradingView --><svg width="56" height="56" viewBox="0 0 56 56" xmlns="http://www.w3.org/2000/svg"><path fill="#F0F3FA" d="M0 0h56v56H0z"/><path d="M46.2 14.82a7.6 7.6 0 0 1 .24 11.54 8 8 0 0 1-5 2.02h-1.42c-.16 0-.27 0-.38-.05-.33-.16-.38-.55-.15-.81.12-.14.29-.16.48-.16h1.09a7 7 0 0 0 5.16-2.28 6.52 6.52 0 0 0-.1-8.92 6.8 6.8 0 0 0-6.4-2l-.47.1a6.9 6.9 0 0 0-4.44 3.87 6.62 6.62 0 0 0-.54 2.7v1.05c0 .18-.08.33-.22.43a.54.54 0 0 1-.8-.22 1.09 1.09 0 0 1-.03-.33V20.7a7.6 7.6 0 0 1 4.3-6.87 7.87 7.87 0 0 1 2.66-.79 8.05 8.05 0 0 1 4.45.75l.64.35.25.15.69.52Z" fill="#2B6743"/><path d="m39.47 22.4-2.97.01c-.09 0-.21 0-.3-.02-.13-.04-.2-.15-.2-.31v-2.71c0-.13.01-.22.03-.26.04-.1.13-.11.26-.11h3.18l.02-.04a.04.04 0 0 0 .02-.02v-2.96c0-.13.01-.22.04-.28.05-.11.16-.17.32-.17h2.85c.3 0 .28.2.28.42v2.97c0 .03.06.08.09.08h3.37c.02 0 .03-.02.03 0s-.02.03-.06.04a16.9 16.9 0 0 0-1.98.54l-.4.16a5.5 5.5 0 0 0-2.44 1.99c-.24.36-.43.76-.58 1.18-.13.36-.25.71-.43 1.12-.21.47-.52.92-.92 1.27a.25.25 0 0 1-.13.06.04.04 0 0 1-.04-.02v-2.9l-.01-.02-.03-.01Z" fill="#E73A34"/><path d="M43.8 21.66c-.57.25-1.03.74-1.3 1.3-.13.24-.23.56-.34.85a2.66 2.66 0 0 1-.74 1.07 3.9 3.9 0 0 1-2.06.9l-.01-.01v-.02c.01-.07.14-.13.26-.21.6-.42 1-1.04 1.28-1.68.14-.33.27-.71.43-1.04a5.6 5.6 0 0 1 5.12-3.18v.01c-.1.07-.26.18-.35.27-.16.17-.3.35-.4.53-.3.49-.51 1-.66 1.54-.07.28-.11.55-.18.94a5.6 5.6 0 0 1-.23.8 3.78 3.78 0 0 1-1.1 1.66c-.68.57-1.56.77-2.45.67-.04 0-.07 0-.1-.02l-.02-.01V26a.03.03 0 0 1 .01-.02c.7-.5 1.29-1.2 1.56-2.01.1-.3.2-.67.31-.96.2-.47.43-.87.8-1.2a1.42 1.42 0 0 1 .18-.15v-.01ZM18 26.8c0 .04.02.04.03 0 .13-.9.8-1.61 1.72-1.76.14-.03.3-.04.5-.04a221.96 221.96 0 0 0 1.23.02l3.4 6.12.08.12a.03.03 0 0 0 .04-.01c.01-.04 0-.09 0-.14v-3.9c0-.23.04-.5.1-.73a2.05 2.05 0 0 1 1.65-1.44c.16-.03.36-.04.54-.04h3.26c.28 0 .45.21.45.47a720.6 720.6 0 0 0-.02 2.53H28.18l-.15.02H28l-.01.02v9.93A.03.03 0 0 1 28 38h-2.03c-.24 0-.41 0-.51-.02a2.09 2.09 0 0 1-1.66-1.23l-2.64-4.33a.69.69 0 0 0-.08-.11.03.03 0 0 0-.02 0h-.01c-.02.02-.04.04-.04.07v5.17c0 .25-.17.45-.44.45h-1.93c-.14 0-.27 0-.37-.04a.44.44 0 0 1-.26-.42v-9.53H14.6a.04.04 0 0 0-.03.03v9.52c0 .23-.18.44-.43.44a1369.68 1369.68 0 0 0-2.4-.02.42.42 0 0 1-.3-.35v-9.61a.03.03 0 0 0-.02-.02H8.46a.43.43 0 0 1-.44-.3C8 27.65 8 27.5 8 27.4a3717.43 3717.43 0 0 0 .02-2.07c.04-.2.23-.33.44-.33H18v1.8ZM34 31h-2.55a.4.4 0 0 1-.41-.28 1.13 1.13 0 0 1-.04-.36v-2.33c0-.02.01-.03.03-.03H34v-2.38c0-.43.1-.62.54-.62h2.05c.16 0 .28.08.36.23.05.1.05.28.05.4v11.82c0 .23-.05.44-.27.52a.84.84 0 0 1-.26.03H34.6c-.45 0-.6-.15-.59-.6V31Z" fill="#2B6743"/></svg>