<!-- by TradingView --><svg width="56" height="56" viewBox="0 0 56 56" xmlns="http://www.w3.org/2000/svg"><path fill="#F0F3FA" d="M0 0h56v56H0z"/><path d="M23 17.05v14.26c0 .08.08.16.12.24.04.07.1.13.17.17l2.8 1.66.06.06a.16.16 0 0 1-.06.2l-2.92 1.74c-.1.06-.2.06-.3 0l-2.53-1.5a.66.66 0 0 1-.34-.6V15.22a1.03 1.03 0 0 1 .5-.88l7.16-4.24a.68.68 0 0 1 .69 0l7.1 4.21c.17.1.31.24.4.4.1.18.15.37.15.57v6.64a.04.04 0 0 1-.04.02h-.02l-2.87-1.83a.14.14 0 0 1-.07-.13v-3.03a.32.32 0 0 0-.17-.3l-4.75-2.68a.21.21 0 0 0-.22 0l-4.6 2.72a.42.42 0 0 0-.14.15c-.04.07-.12.14-.12.21Z" fill="#0068B3"/><path d="m27.74 23.35-2.45 1.44a.2.2 0 0 1-.2 0 .19.19 0 0 1-.09-.16v-3.2a.7.7 0 0 1 .43-.68l2.5-1.17a.64.64 0 0 1 .61.05c4.87 3.05 9.8 5.97 14.8 8.75.54.3.66.61.66 1.26L43.99 38a.68.68 0 0 1-.33.59l-7.24 4.26a.8.8 0 0 1-.8 0l-5.44-3.2a.12.12 0 0 1-.06-.1.12.12 0 0 1 .06-.1l2.94-1.74a.12.12 0 0 1 .05-.01.1.1 0 0 1 .06.01l2.43 1.44c.08.04.15.04.22 0l4.9-2.63a.41.41 0 0 0 .22-.36v-5.12a.5.5 0 0 0-.24-.42l-12.63-7.27a.36.36 0 0 0-.4 0Z" fill="#782801"/><path d="M20.2 39.25a.15.15 0 0 0 .15 0l12.33-7.15a.7.7 0 0 0 .25-.26.7.7 0 0 0 .07-.35v-2.6c0-.3.15-.38.41-.23l2.21 1.44c.26.15.38.38.38.68l-.05 2.46c-.01.34-.28.66-.8.97-6.01 3.45-9.76 5.84-14.77 8.7a.65.65 0 0 1-.66 0l-7.21-4.26c-.16-.1-.29-.23-.37-.38a1.07 1.07 0 0 1-.14-.53v-8.4a1 1 0 0 1 .13-.49c.08-.15.2-.27.35-.36l5.24-3.1c.24-.13.28-.07.28.21v2.88c0 .32-.06.57-.34.73l-2.47 1.31a.4.4 0 0 0-.15.15.42.42 0 0 0-.04.21v5.18c0 .12.02.23.08.34.05.1.14.19.24.25l4.89 2.6Z" fill="#C1800F"/></svg>