<!-- by TradingView --><svg width="56" height="56" viewBox="0 0 56 56" xmlns="http://www.w3.org/2000/svg"><path fill="#F0F3FA" d="M0 0h56v56H0z"/><path d="M18.04 20h-3.59c-.29 0-.45-.16-.45-.45v-5.41c0-.04.04-.07.06-.1a.15.15 0 0 1 .1-.04h17.46c.28 0 .32.1.12.29l-13.17 13.2c-.86.87-.86 1.74 0 2.6l9.35 9.38c.52.52 1.04.52 1.56 0L39.84 29.1a.74.74 0 0 0 0-1.05l-4.7-4.71a.18.18 0 0 0-.26 0l-9.18 9.2a.34.34 0 0 1-.48 0L21.72 29a.17.17 0 0 1-.05-.1c0-.05.01-.1.04-.12l12.15-12.19c.7-.7 1.42-.7 2.13 0 3.4 3.33 6.3 6.2 8.67 8.6 2.17 2.2 1.5 4.81-.49 6.88-1.68 1.77-5.52 5.67-11.5 11.69a.8.8 0 0 1-.58.24h-7.31c-.28 0-.55-.11-.75-.3a1798.6 1798.6 0 0 1-12.48-12.45c-1.74-1.76-2.24-2.35-.32-4.26 4.2-4.15 6.5-6.29 6.93-6.7.21-.2.17-.29-.12-.29Z" fill="#D22333"/></svg>