<!-- by TradingView --><svg width="56" height="56" viewBox="0 0 56 56" xmlns="http://www.w3.org/2000/svg"><path fill="#F0F3FA" d="M0 0h56v56H0z"/><path d="m28.21 15.65-.02-.02a.08.08 0 0 0-.1.02l-.88.92a.05.05 0 0 1-.08 0l-3.26-3.28c-.02-.03-.02-.05 0-.08L27.81 9h.01l.01.02.02.03 11.5 11.69a11.3 11.3 0 0 1 .52 16.12 5173 5173 0 0 0-8.63 9.1.12.12 0 0 1-.09.03H25.1c-.06 0-.07-.02-.03-.06L35.5 34.96c.8-.84 1.26-1.35 1.4-1.53 1.93-2.47 2-6.01.19-8.62-.22-.32-.66-.8-1.3-1.47-3.38-3.41-5.9-5.98-7.57-7.7Z" fill="#0096A9"/><path d="m25.17 18.86 4.96 5c.03.02.02.04 0 .07l-2.77 2.95a.07.07 0 0 1-.05.02.07.07 0 0 1-.05-.02l-4.96-5a.07.07 0 0 0-.05-.01 38043.91 38043.91 0 0 1-2.29 2.38 7.37 7.37 0 0 0-1.33 9.3c.22.36.66.89 1.33 1.58l4.85 5c.02.03.02.05 0 .07l-2.68 2.86a.03.03 0 0 1-.04 0l-5.44-5.57a11.2 11.2 0 0 1-3.63-8.94c.1-2.64 1.21-5.2 2.96-7.04l5.68-5.99a3.3 3.3 0 0 0 .94-2.1l.02-.02h.02l.01.01 3.87 3.89v.05l-1.35 1.43c-.03.03-.03.06 0 .08Z"/></svg>