<!-- by TradingView --><svg width="56" height="56" viewBox="0 0 56 56" xmlns="http://www.w3.org/2000/svg"><path fill="#F0F3FA" d="M0 0h56v56H0z"/><path d="M32.02 17.14c-.15.32-.19.67-.11 1.05.03.16.1.18.18.03l.56-.87a15.51 15.51 0 0 1 3.9-4.37c.19-.13.25-.1.2.13-.8 3.07-.58 6.09.65 9.04.2.49.74 1.3 1.62 2.44 2.57 3.34 3.7 7.94 2.5 12.03-1.48 4.95-4.7 8.24-9.65 9.89a34.8 34.8 0 0 0-6.24-3.82c3.31-.75 5.48-2.51 6.51-5.3 1.76-2.28 1.8-4.62.13-7a20.42 20.42 0 0 0-3.92-4.21.6.6 0 0 0-.76 0 22.27 22.27 0 0 0-3.9 4.27c-.53-.4-.1-1.23.03-1.75.08-.32.12-.62.12-.9.03-2.56-.55-4.96-1.74-7.2 4.83-3.28 7-7.76 6.5-13.45-.02-.18.03-.2.15-.05a16 16 0 0 1 2.87 5.63c.18.67.13 1.32.34 1.97.23.74.13 1.69.06 2.44Z" fill="url(#a)"/><path d="M22.1 20.6a14.74 14.74 0 0 1 1.74 7.2c0 .28-.04.58-.12.9-.13.52-.56 1.35-.03 1.75-1.22 1.85-1.5 3.58-.83 5.2a5.63 5.63 0 0 0 3.38 3.22c1.95.75 3.92.26 5.9-1.47-1.03 2.78-3.2 4.54-6.5 5.29-1.78.4-3.54.27-5.28-.37-.47-.17-1.23-.59-2.26-1.26-.73-.48-1.5-.9-2.3-1.25-2.45-4.66-2.4-9.2.15-13.64a18.85 18.85 0 0 0 1.52-3.02c.73-2.3.85-4.69.34-7.14-.02-.13.02-.16.12-.08a15.55 15.55 0 0 1 4.17 4.67Z" fill="url(#b)"/><path d="M25.63 42.69a34.8 34.8 0 0 1 6.24 3.82c-6.43 1.64-12.77-.87-16.06-6.7.8.36 1.56.77 2.29 1.25 1.03.67 1.79 1.1 2.26 1.26 1.74.64 3.5.76 5.27.37Z" fill="url(#c)"/><path d="M31.96 18.31c-.02-.02-.04-.06-.05-.12.72-3.11.27-6.75-3.16-11.1-.12-.14-.17-.12-.15.06.5 5.7-1.67 10.17-6.5 13.45a14.74 14.74 0 0 1 1.74 7.2 4.05 4.05 0 0 1-.22 1.24c-.16.49-.35 1.09.07 1.41a22.2 22.2 0 0 1 3.7-4.1 26.1 26.1 0 0 0 4.57-8.04Z" fill="url(#d)"/><defs><linearGradient id="a" x1="34.06" y1="18.22" x2="32.09" y2="46.51" gradientUnits="userSpaceOnUse"><stop stop-color="#BF1F31"/><stop offset="1" stop-color="#F3682A"/></linearGradient><linearGradient id="b" x1="23.07" y1="15.89" x2="23.07" y2="42.91" gradientUnits="userSpaceOnUse"><stop stop-color="#F59624"/><stop offset="1" stop-color="#DC2328"/></linearGradient><linearGradient id="c" x1="17.18" y1="42.6" x2="28.74" y2="44.73" gradientUnits="userSpaceOnUse"><stop stop-color="#F28028"/><stop offset="1" stop-color="#EF632B"/></linearGradient><linearGradient id="d" x1="30.33" y1="10.13" x2="23.86" y2="26.05" gradientUnits="userSpaceOnUse"><stop stop-color="#F47726"/><stop offset="1" stop-color="#DA1E2A"/></linearGradient></defs></svg>