<!-- by TradingView --><svg width="56" height="56" viewBox="0 0 56 56" xmlns="http://www.w3.org/2000/svg"><path fill="#F0F3FA" d="M0 0h56v56H0z"/><path d="m31.28 12.11.13.07c-.3-.5-.6-.88-.89-1.11-.3-.26-.66-.52-1.06-.78a.32.32 0 0 1-.15-.31c.01-.22.02-.4.01-.52-.01-.48-.36-.88-.76-1.1a.98.98 0 0 1-.17-.22.15.15 0 0 0-.06-.05c-.21-.12-.8-.12-.99 0a.12.12 0 0 0-.04.05l-.03.06c-.03.08-.04.11-.14.16-.4.2-.77.64-.78 1.13v.12c0 .27-.02.56.12.78.18.33.42.55.71.67.06.03.09.07.09.14l-.01.88c.4-.14.84-.16 1.3-.07-.02-.36-.02-.7 0-1.04 0-.17.08-.25.24-.25.07 0 .17.05.31.15.5.38.91.85 1.23 1.42.13 0 .3.02.5.06.12.02.21 0 .26-.07l.12-.15c.02-.02.04-.03.06-.02ZM27.2 9.17l.11-.1a.73.73 0 0 1 1.03 0l.1.11c.29.29.29.75 0 1.04l-.1.1a.73.73 0 0 1-1.04 0l-.1-.12a.73.73 0 0 1 0-1.03Z" fill="#345EA5"/><path d="M28.55 12c0 .11.05.17.14.17l.4.03c.1 0 .23.03.4.08.29.08.57.09.85 0 .13.01.3.03.5.07.13.02.21 0 .26-.07l.12-.15c.02-.02.04-.03.06-.02l.13.07c.08.16.2.3.34.42.1.08.25.16.47.24a15.6 15.6 0 0 1 3.8 1.95 14.33 14.33 0 0 1 6.01 10.6c.03.34.03.83 0 1.45l.03.33c-.17-.23-.29-.48-.36-.76-.43-4.26-1.8-8.01-5.1-10.75a14.34 14.34 0 0 0-3.78-2.23c-.4-.16-.92-.32-1.38-.5l-.7-.14a1.35 1.35 0 0 0-.43-.07c-.14 0-.26-.05-.4-.07-.62-.1-1.25-.21-1.9-.19h-.54c-.3 0-.56 0-.8.03l-1.03.12c-.33.05-.64.13-.96.2l-.15.06a.2.2 0 0 1-.07.02l-.34.02c-.34.12-.74.23-1.03.34a13.8 13.8 0 0 0-7.48 6.26c-.08.13-.05.23.06.3l.03.02c.06.04.11.02.15-.05a9.13 9.13 0 0 1 1.89-2.5 7.79 7.79 0 0 1 1.69-1.11c.38-.17.83-.28 1.36-.3-.23.05-.46.11-.68.18a2.5 2.5 0 0 1-.38.09.85.85 0 0 0-.37.13l-.27.16-.27.14-.5.33c-.19.12-.32.28-.5.44-.18.15-.3.26-.37.35-.17.23-.35.4-.52.67-.16.25-.34.5-.53.73l-.1.24a.34.34 0 0 1-.09.15.96.96 0 0 1-.14.12.09.09 0 0 0-.05.05l-.09.3v.08l.21.34.76 1.18c.05.08.06.15.12.2.02.02.05.06.08.13.08.17.17.32.29.46.1.12.15.22.22.36.05.1.15.15.2.26l.08.2a97.64 97.64 0 0 0 2.07 3.35 11.63 11.63 0 0 1 .47.77l.1.14c.34.58.75 1.23 1.23 1.94.2.3.4.63.56.96.17.33.34.67.5 1.02l4.5 7.4.5.81.4.65c.05.07.12.1.2.08.15-.03.3-.04.44-.05l.45.02.22-.01.31-.06c.2-.05.42-.09.63-.12.16-.02.35-.07.58-.14l.58-.16 1.28-.46c1.61-.6 3.1-1.57 4.46-2.88 1-.91 1.82-1.97 2.48-3.19.5-.93.81-1.55.91-1.85.02-.06.04-.16.06-.33 0-.02 0-.04.02-.06a.37.37 0 0 0 .08-.22l.18-.49c.15-.09.3-.14.45-.15-.12.14-.2.33-.28.59-.23.83-.59 1.69-1.08 2.58a13.45 13.45 0 0 1-3 3.8c-.35.27-.78.64-1.13.89-1.2.86-2.6 1.57-4.03 2-.15.05-.29.12-.43.15l-.44.09c-.1.02-.22.07-.36.16-.45.08-.93.15-1.45.22a2.5 2.5 0 0 1-1.3-.13 7.94 7.94 0 0 0-.58-.2l-.54-.84a.03.03 0 0 0-.03-.01c-.03 0-.03.01-.02.04a47.95 47.95 0 0 1-1.09-1.74c-.12-.14-.2-.2-.27-.4a1.9 1.9 0 0 0-.29-.52.15.15 0 0 1-.03-.06c0-.06-.02-.1-.05-.1a.06.06 0 0 1-.03-.03 1.05 1.05 0 0 1-.16-.31.1.1 0 0 0-.04-.06c-.06-.04-.05-.07-.08-.12l-.98-1.58-.08-.17-.9-1.45c-.69-1.2-1.38-2.35-2.08-3.47a1.32 1.32 0 0 0-.18-.22c-.18-.18-.19-.38-.32-.6-.37-.61-.73-1.24-1.12-1.83a32.93 32.93 0 0 0-1.19-1.94l-.58-.97-1.77-2.88-.16-.28-.2-.36a.07.07 0 0 0-.1-.02.07.07 0 0 0-.02.03l-.43 1.06a13.2 13.2 0 0 0-.74 3c-.06.5-.15.97-.13 1.53v.65c-.02.26-.01.5 0 .76a16.28 16.28 0 0 0 .47 2.6v-.02l.03.18h.02l.19.57.15.49c.25.67.54 1.32.89 1.94.28.5.7 1.1 1.01 1.52a13.7 13.7 0 0 0 3.9 3.57 14.55 14.55 0 0 0 2.37 1.24c.3.12.7.21 1 .35.12.04.23.06.35.06.1 0 .28.04.56.14.16.06.35.1.58.09.15 0 .3.06.46.03l.44.08.44.14c.03 0 .03.02 0 .03-.3.2-.65.31-1 .36-.28.03-.68-.07-1.01-.08.2-.25-.2-.33-.37-.36a2.63 2.63 0 0 1-.34-.07 15.41 15.41 0 0 1-7.33-4.93 13.88 13.88 0 0 1-2.25-3.72c-.16-.4-.3-.87-.42-1.3l-.09-.38c-.03-.17-.11-.35-.12-.51-.03-.34-.15-.67-.17-1 0-.2-.04-.56-.1-1.06-.08-.71 0-1.57.05-2.35.01-.28.04-.5.07-.63.07-.28.08-.54.14-.83a16.93 16.93 0 0 1 1.2-3.69 4.99 4.99 0 0 1-1.07-1.64c-.03-.2-.11-.38-.14-.58a2.37 2.37 0 0 0-.2-.66.05.05 0 0 1 .03-.04h.03c.05 0 .1.03.15.08.35.37.72.73 1.1 1.06.1.1.18.23.25.43a36.44 36.44 0 0 0 .29.7l.07.02c.08 0 .14-.03.18-.11.34-.68.65-1.18.9-1.51.42-.51.66-.84 1.03-1.2.54-.56.87-.88.98-.98 1.55-1.29 3.4-2.29 5.37-2.77.25-.06.41-.14.62-.15.26-.02.54-.15.8-.15.21 0 .47-.04.78-.11.08-.02.23-.03.45-.03.25 0 .47-.04.66-.13.4-.14.84-.16 1.3-.07Z" fill="#0D2280"/><path d="m27.74 14.88-.06 1.36c-.01.3-.04.55-.08.73l-.03.04h-.04a.03.03 0 0 1-.02-.03c-.02-.3-.05-.53-.03-.84l.06-1.23a13.43 13.43 0 0 0 .13-2.16l.02-.07c.02-.15.06-.15.12-.01a324.75 324.75 0 0 0-.07 2.22Z" fill="#345EA5"/><path d="M31.44 12.93h-.11c-.03 0-.05.02-.05.05 0 .08.02.14.07.19.53.48.77.89 1.24 1.65.17.28.25.62.63.69.4.07.73.14 1.02.22.3.08.67.05.92.17.03.01.04.03.05.06.03.12-.01.19-.13.2-.26.02-.6-.12-.9-.1a.1.1 0 0 0-.09.07c-.01.03-.01.05 0 .07l.03.06.14.13a.13.13 0 0 1-.03.2l-.4.2a.07.07 0 0 0-.03.07l.01.04.03.02.14.06-.66.21c-.18.07-.45.12-.8.16.07-.15.16-.57-.01-.69a.13.13 0 0 0-.16.01l-.13.11a.18.18 0 0 1-.21.02c-.2-.11-.32-.2-.52-.04a.08.08 0 0 0-.04.07v.24a.13.13 0 0 1-.05.1.13.13 0 0 1-.11.03c-.2-.05-.35-.12-.55-.1a3.9 3.9 0 0 1-.67 0c-.22-.01-.33 0-.47.16-.05.06-.07.13-.05.2a16 16 0 0 1-4.22-.96c-.42-.1-.81-.24-1.25-.34a25.63 25.63 0 0 0-1.5-.28c.1-.24.22-.46.34-.68.1-.17.24-.3.26-.54a.08.08 0 0 0-.04-.07.07.07 0 0 0-.08 0 6.09 6.09 0 0 0-.67 1.27 8.85 8.85 0 0 0-1.6 0c-.53.03-.98.13-1.36.31-.54.25-1.1.62-1.7 1.1l.77-.77a.07.07 0 0 0 .02-.06c0-.06.02-.1.06-.12l.02-.03v-.03l.02-.04c.2-.18.33-.3.51-.44.41-.29.8-.64 1.21-.89.56-.35.84-.55 1.37-.62.25-.03.46.02.64.17.13.11.23.22.36.25.17.03.3-.04.4-.22A5.69 5.69 0 0 1 24.24 13a.07.07 0 0 0-.03-.07.07.07 0 0 0-.04-.02h-.05l.34-.02a.2.2 0 0 0 .07-.02l.15-.06-1.35 1.75a.1.1 0 0 0 .04.16c.37.13.65-.05 1.04-.03.18 0 .48-.04.62.09l.18.16c.2.17.28.04.47.05.32.02.59.08.86-.02.16-.06.26-.1.28-.09l.72.03-.06 1.23c-.02.31.01.55.03.84a.04.04 0 0 0 .06.03l.03-.04c.04-.18.07-.42.08-.73l.06-1.35c.43.2.93.26 1.48.2.23-.03.47.04.7.2.04.03.13.04.26.05.25.02.52.02.81 0 .21-.02.3.06.48.07a.1.1 0 0 0 .06-.02c.36-.3.73.06.98.13.1.03.16 0 .15-.11v-.04a8.77 8.77 0 0 0-.93-1.38 5.9 5.9 0 0 1-.5-.67 1.56 1.56 0 0 0-.48-.53l.69.14Z" fill="#91CAE4"/><path d="m22.58 15.88-.2-.02a6.09 6.09 0 0 1 .68-1.26.07.07 0 0 1 .1.02l.02.04c-.02.24-.16.37-.26.54-.12.22-.24.44-.34.68Z" fill="#345EA5"/><path d="M37.79 19.72c.01.1.03.16.04.18a20.76 20.76 0 0 0 1.62 3.04 360.7 360.7 0 0 1 1.51 2.35l.3.54c.12.2.27.4.44.58.07.28.2.53.36.76.25.57.44 1.17.58 1.8.02.13.09.26.13.39a.13.13 0 0 1-.06.16l-1.16.61c-.16.01-.3.06-.45.15-.16.01-.3.03-.44.06-.34.06-.61.08-.9.07a16.8 16.8 0 0 1-4.28-.54l-.19-.05-.44-.06-1.59-.41a3.36 3.36 0 0 1-.5-.07c-.29-.09-.54-.15-.75-.18-.41-.06-.83-.14-1.24-.23-.28-.05-.57-.06-.86-.09l-1.6-.07a1.95 1.95 0 0 0-.96.08c-.3-.01-.57.03-.8.12-.3.05-.53.12-.68.2l-.61.3a6.97 6.97 0 0 0-2.43 1.93l-.5-1.02a9.13 9.13 0 0 0-.57-.96 34.64 34.64 0 0 1-1.42-2.22 11.61 11.61 0 0 0-.44-.77 97.8 97.8 0 0 1-2-3.2l-.1-.21c-.04-.1-.14-.16-.19-.26-.07-.14-.12-.24-.22-.36-.12-.14-.21-.3-.29-.46a.43.43 0 0 0-.08-.14c-.06-.04-.07-.11-.12-.19a51.05 51.05 0 0 0-.96-1.52c-.01-.03-.01-.06 0-.07l.08-.3c0-.03.02-.05.05-.06a.96.96 0 0 0 .14-.12.34.34 0 0 0 .1-.15c.04-.13.07-.21.1-.24.18-.23.35-.48.52-.73.17-.28.35-.44.52-.67.07-.09.19-.2.36-.35.19-.16.32-.32.5-.44l.51-.33.27-.14.27-.16c.1-.07.22-.11.37-.13.13-.02.25-.05.38-.09.22-.07.45-.13.68-.18a8.83 8.83 0 0 1 1.6 0l.19.01.42.06c.49.09.85.16 1.08.22.44.1.83.24 1.26.34l.5.15a16 16 0 0 0 4.46.88 9.9 9.9 0 0 0 2.22-.18c.35-.04.62-.09.8-.16l.66-.21c.8-.3 1.56-.71 2.26-1.22a.14.14 0 0 1 .17 0c.06.04.1.11.13.22.24 1.1.6 2.24 1.06 3.4.06.16.12.28.19.34Z" fill="#B7313E"/><path d="M26.98 21.73c-.08-.04-.1-.02-.06.06.14.28.42.61.57.82.43.62.89 1.3 1.38 2.07.07.11.26.33.38.35.03 0 .05 0 .07.02l.41.28c.09.07.13.12.14.17.02.1-.02.14-.13.1a5.44 5.44 0 0 0-.88-.19c-.09-.01-.22 0-.4.02a.4.4 0 0 1-.2-.02.08.08 0 0 1-.04-.12l.2-.27a.14.14 0 0 0 0-.14c-.33-.72-.68-1.27-1.19-2-.42-.6-.82-1.19-1.21-1.79a1.7 1.7 0 0 0-.4-.39 13.85 13.85 0 0 0-1.27-.78c-.2-.09-.41-.12-.39-.33 0-.03.02-.06.04-.08a.11.11 0 0 1 .08-.03l.6.04c.09 0 .2.06.35.19.28.25.5.42.64.53.54.42.94.78 1.54 1.23 1.04.77 2.24 1.7 3.6 2.78.68.53 1.2.9 1.95 1.45.16.12.26.2.3.28.06.1.09.18.08.22-.02.14-.1.17-.21.08-2.4-1.88-4.09-3.18-5.06-3.89-.22-.16-.56-.49-.89-.66ZM31.35 23.87a.61.61 0 0 0-.1-.2c-.45-.61-.72-1-.82-1.2-.2-.4-.43-.8-.7-1.21a1.7 1.7 0 0 0-.54-.53c-.19-.1-.41-.21-.43-.32a.1.1 0 0 1 .02-.08.09.09 0 0 1 .03-.02h.04c.21.02.43.13.62.17.22.05.42.13.65.13a6.98 6.98 0 0 1 .57.06.1.1 0 0 1 .03.06c0 .18-.2.23-.3.32a.1.1 0 0 0-.03.06c-.02.2-.01.36.03.46.35.86.92 1.66 1.47 2.47.03.04.05.13.12.18a16.45 16.45 0 0 0 .8 1.08.1.1 0 0 1 0 .04l-.01.03-.03.02s-.03 0-.07-.03a520.5 520.5 0 0 0-3.35-2.5c-.57-.41-1.2-.9-1.88-1.47-.56-.45-1.19-.87-1.77-1.36-.15-.12-.33-.22-.47-.3a.05.05 0 0 1-.02-.05.05.05 0 0 1 .02-.04c.08-.06.2-.05.28-.05.26.01.34 0 .52.16.47.38 1.17.95 2.08 1.73.98.82 1.8 1.41 3.03 2.34.04.03.1.06.18.07.03.01.04 0 .03-.02ZM26.4 24.7c-.23-.52-.5-.92-.78-1.22a3.16 3.16 0 0 0-.47-.39c-.3-.2-.6-.24-1-.36-.13-.04-.3-.07-.49-.1-.47-.05-.88-.2-1.2-.44-.2-.14-.38-.38-.54-.7-.3-.66-.11-1.49.68-1.65.22-.05.44-.07.66-.07a.28.28 0 0 1 .25.14c.15.26.38.6.67 1.04.08.1.12.22.14.35a.07.07 0 0 1-.06.09h-.04a.53.53 0 0 1-.2-.15c-.22-.25-.4-.44-.54-.56-.5-.44-1.32-.17-1.16.6.06.27.2.48.44.62.13.09.38.16.72.2.76.1 1.49.21 2.03.8.12.15.31.25.44.42.3.4.5.8.62 1.25 0 .04 0 .08-.03.14l-.03.02c-.05.03-.08.02-.11-.03ZM34.85 24.43c.02.08.05.15.1.23.23.36.56.87 1 1.51.06.07.21.19.48.35.07.05.13.12.14.2v.04a.09.09 0 0 1-.09.06l-.76-.07c-.1-.02-.16-.08-.2-.2a5.43 5.43 0 0 0-.58-1.2c-.39-.57-.68-1.06-1.13-1.7-.44-.64-.8-1.29-1.08-1.94-.08-.2-.2-.53-.32-.79a.09.09 0 0 1 .07-.12c.29-.02.63-.07 1.03-.17.27-.07.64.13.81.32.54.6.96 1.3 1.25 2.08a4 4 0 0 1 .09.53c.03.24.01.62-.23.75a.84.84 0 0 1-.55.08c-.03 0-.04 0-.03.04Z" fill="#FEFD6B"/><path d="M35.82 23.15a.22.22 0 0 0-.02-.04 7.75 7.75 0 0 0-.58-1.34c-.17-.3-.31-.5-.43-.62a8.66 8.66 0 0 1-.47-.48v-.02l.02-.02c.03-.02.06-.02.1-.01.18.04.39.16.53.33.55.66.93 1.4 1.11 2.24.06.23.08.7-.05.9a.09.09 0 0 1-.06.04c-.05.01-.1 0-.11-.05a.15.15 0 0 1-.01-.1 1.5 1.5 0 0 0-.03-.83ZM32.12 20.94c.1.35.25.71.46 1.1A34.8 34.8 0 0 0 34.4 25c.2.3.4.65.58 1a4.58 4.58 0 0 0 .31.58l-.01.07c-.01.02-.05.03-.1.02a4.51 4.51 0 0 0-.86-.09.07.07 0 0 1-.02-.05v-.02c.06-.14.19-.35.15-.53-.04-.18-.11-.36-.22-.54a28326.37 28326.37 0 0 0-2.54-4.16c-.15-.23-.48-.28-.51-.48a.1.1 0 0 1 .03-.08.09.09 0 0 1 .08-.02c.23.06.45.09.67.1.08 0 .14.05.16.14Z" fill="#FEFD6B"/><path d="M15.64 21.02c-.29.36-.64.63-1.05.82a.83.83 0 0 0 .14-.4l.01.08.01.02a.04.04 0 0 0 .04.01l.01-.01c.2-.22.4-.41.62-.57.06-.04.08-.12.05-.23l.17.28Z" fill="#345EA5"/><path d="M33.27 21.9a40.47 40.47 0 0 1-.26-.59.15.15 0 0 1 .1-.14c.37-.13.72-.05 1.03.22.23.19.36.44.54.77.19.33.33.67.43 1 .06.19.14.35.04.53-.13.22-.44.26-.66.14a1.4 1.4 0 0 1-.47-.5c-.23-.39-.48-.87-.75-1.44Z" fill="#B7313E"/><path d="m17.41 23.9.58.96a1.2 1.2 0 0 1-.54.54c-.28.13-.44.21-.5.26-.2.18-.36.2-.63.31-.2.08-.74.17-.8.4l-.04.05c-.1.06-.15.15-.15.26 0 .07.05.1.12.1.22.01.34-.06.35-.22l.03-.06a.09.09 0 0 1 .06-.02h.36l-.14.03a.04.04 0 0 0-.03.03v.03c0 .02 0 .03.02.04a.1.1 0 0 0 .05.02l.87.04c-.12-.02-.2.02-.24.13-.15.37-.3.69-.45.95a3.2 3.2 0 0 1-.96.92c-.17.12-.3.37-.46.54-.22.26-.34.4-.38.43-.02.02-.03.02-.04 0a1.44 1.44 0 0 1-.09-.4c-.02-.44-.07-.86-.14-1.28-.07-.46-.07-.98-.13-1.47.3.03.6.05.91.06.1 0 .16-.03.22-.1a.1.1 0 0 0 .01-.07.09.09 0 0 0-.05-.06.73.73 0 0 0-.37-.06c-.25.03-.48.03-.7 0a4.27 4.27 0 0 0-.13-1 .06.06 0 0 1 .06-.05c.12 0 .21.1.26.2.1.19.14.28.27.4.09.08.22.2.39.38.04.05.13.08.26.1.02 0 .04-.01.04-.03a.35.35 0 0 0-.03-.27 6.47 6.47 0 0 1-.36-.76c-.09-.24-.42-.45-.52-.73a1.3 1.3 0 0 1 .04-.9l.19-.8c.03-.13.05-.23.08-.3.05-.14.09-.23.1-.3.05-.11.11-.2.2-.27.22-.16.49-.35.7-.1.23.27.5.57.48.9 0 .03-.01.05-.04.05a.26.26 0 0 0-.2.1.1.1 0 0 0-.02.06c0 .12.06.23.16.33.3.28.5.52.64.7.12.15.26.12.47.11.13 0 .2-.07.22-.18Z" fill="#91CAE4"/><path d="M25.72 25.03c.1-.37-.32-.9-.59-1.14a1.1 1.1 0 0 0-.66-.32 9 9 0 0 0-.88-.1c-.23-.01-.38-.03-.46-.05a2.42 2.42 0 0 1-1.46-1.68.07.07 0 0 1 .06-.05h.03c.15.06.36.37.5.57.17.23.3.37.43.44.28.16.53.24.75.24.65 0 1.19.14 1.63.38.1.06.22.17.36.34l.29.33c.08.1.15.19.2.29.23.37.29.78.19 1.22-.04.16-.14.26-.32.3-.25.06-.6.12-1.03.19a.16.16 0 0 1-.17-.07l-1.07-1.44c-.04-.05-.04-.11.01-.16 0-.01.02-.02.03-.01.09 0 .14 0 .14.02l.65.6c.3.27 1.19.8 1.37.1Z" fill="#FEFD6B"/><path d="M14.16 26.26c.2.03.44.03.7 0 .12-.01.25.01.36.06a.1.1 0 0 1 .03.14c-.05.06-.12.09-.2.09-.32-.01-.62-.03-.92-.06a.2.2 0 0 1-.12-.08c-.03-.05-.03-.09 0-.11.03-.03.08-.04.15-.04ZM17.02 26.67l-.87-.04a.1.1 0 0 1-.05-.02.07.07 0 0 1-.03-.04v-.03l.04-.03.14-.02c.1-.02.21-.04.32-.04l1.42.01c.26 0 .51.05.75.14.02 0 .03.02.03.05 0 .03-.02.04-.06.05-.12.02-.25-.05-.39-.04-.43.01-.87.02-1.3.01Z" fill="#345EA5"/><path d="m29.91 28.78-.33.74a.17.17 0 0 1-.22.1c-.2-.09-.4-.14-.63-.16a.2.2 0 0 1-.1-.03.42.42 0 0 1-.06-.06.88.88 0 0 1-.25-.66l1.6.07ZM27.34 28.8v.18l-.02-.02a.03.03 0 0 0-.02-.01h-.02v.02a.95.95 0 0 0-.1.5c0 .03-.02.05-.04.06-.08.02-.12.06-.13.1-.27-.13-.42-.37-.46-.72.23-.1.5-.13.8-.12Z" fill="#91CAE4"/><path d="M27.35 28.98c.02.1.05.19.09.28.05.12.07.21.07.28a9.77 9.77 0 0 1-.07.46c-.07.07-.1.13-.1.18 0 .18.04.42.04.63 0 1.28.04 2.54.11 3.77.01.16-.02.32.2.32l.79-.03c.03 0 .08-.02.13-.05l.03-.01a9.29 9.29 0 0 0 2.3-.15c.21-.05.5-.06.7-.1a77.4 77.4 0 0 0 2.22-.39.26.26 0 0 0 .2-.2c.05-.25.12-.5.2-.74.1-.34.12-.66.08-.98l.11-.66c.03-.16.12-.38.29-.64l.11-1.19.44.06a.61.61 0 0 0-.21.04.06.06 0 0 0-.04.05l-.07.56-.13 1.05c-.02 0-.03 0-.03.04a.1.1 0 0 0 0 .05l.04.1h-.01c-.02-.02-.03 0-.03 0 0 .06.02.11 0 .18a225 225 0 0 0-.29 1.18c-.07.28-.2.6-.25.88a.08.08 0 0 0 .06.09h.04c.4-.1.83-.24 1.3-.4a.35.35 0 0 1 .24.01.03.03 0 0 1 .02.02v.02l-.01.01c-.2.17-.35.21-.65.31-.32.11-.62.19-.9.24-.16.03-.22.07-.26.22-.2.74-.48 1.46-.82 2.17-.09.05-.14.15-.16.3 0 .08.03.12.1.13l.32.02a.05.05 0 0 1 .04.02.06.06 0 0 1 0 .05c-.04.18-.15.3-.35.35h-.14c-.13.02-.2.06-.27.19a8.92 8.92 0 0 1-1.45 1.95v.05c.04.05.12.07.25.06l-.58.16c-.23.07-.42.12-.58.14a7.82 7.82 0 0 0-.94.18c-.1 0-.16.02-.22.01l-.45-.02.61-.07c.28-.02.51-.09.76-.12a2.66 2.66 0 0 0 .78-.24 15.22 15.22 0 0 0 1.53-2.19c.07-.11.18-.24.24-.4l.11-.2.13-.19.89-2.31a.1.1 0 0 0-.01-.09.09.09 0 0 0-.09-.03 15.6 15.6 0 0 1-1.63.34c-.32.05-.63.18-.96.17-.37-.01-.77.07-1.1.08a18.58 18.58 0 0 0-1.51.1c-.04-.03-.08-.05-.11-.05l-.83-.02c-.1 0-.15.05-.15.15l.03 1.74c0 .22.03.5.06.85l.07.85c0 .05 0 .16-.03.3-.01.1 0 .2.03.3l.13.35-.49-.82.08.04a.1.1 0 0 0 .15-.12 8.65 8.65 0 0 1-.15-1.35c0-.24-.07-.52-.08-.8 0-.34 0-.78.02-1.32a.16.16 0 0 0-.16-.16l-1.36-.06-.08.03c-.09.05-.15.09-.25.03a1.99 1.99 0 0 1-.23-.16.03.03 0 0 1 0-.03l.01-.02a.45.45 0 0 1 .26-.09c.1 0 .19.08.27.08a9.86 9.86 0 0 1 1.45.06.15.15 0 0 0 .1-.14c-.03-.69-.05-1.23-.08-1.62-.07-.87-.1-1.88-.08-3.02a.82.82 0 0 0-.18-.45c.01-.04.05-.08.13-.1.02-.01.03-.03.03-.05a.95.95 0 0 1 .11-.52l.02-.01h.03l.02.03Z" fill="#345EA5"/><path d="m33.26 29.35 1.6.41-.12 1.19a.5.5 0 0 0 0-.16c-.01-.03-.02-.05-.05-.06l-.5-.22a.12.12 0 0 0-.07-.01.87.87 0 0 0-.2.05c-.12.06-.15.03-.08-.1l.1-.14a.1.1 0 0 0 .02-.07c0-.27-.48-.5-.7-.52-.14-.02-.24-.05-.27-.08a.6.6 0 0 1-.16-.29c0-.02 0-.03.03-.02.1.05.24.05.4.02ZM25.84 40.15c-.16.03-.31-.04-.47-.03-.22 0-.41-.03-.57-.09-.28-.1-.47-.15-.56-.14a.75.75 0 0 1-.34-.06c-.31-.14-.7-.23-1.01-.35-.73-.3-1.43-.65-2.11-1.07.28.12.56.24.83.38.4.2.67.34.83.4l1.3.46c.07.03.18.05.33.07.02 0 .04 0 .04-.03 0-.14-.14-.25-.28-.38a11 11 0 0 1-1.16-1.7c-.45-.86-.85-1.8-1.2-2.85-.1-.28-.02-.46-.39-.54-.44-.1-.85-.22-1.23-.36a29.4 29.4 0 0 1-2.2-.88 10.96 10.96 0 0 1-1.16-.6.1.1 0 0 0-.1.06l-.27.73a.14.14 0 0 1-.2.08.14.14 0 0 1-.05-.05c-.13-.22-.2-.5-.36-.73-.16-.2.12-.33.27-.42a.09.09 0 0 0 0-.15 4.62 4.62 0 0 0-.37-.26c-.18-.11-.36-.35-.56-.48-.06-.04-.1-.02-.13.05l-.16-.49c.07.06.13.1.18.16.06.07.12.12.17.15l.73.53c.13.12.36.35.52.2.07-.09.1-.23.19-.32a.12.12 0 0 1 .16-.02l.04.04c.08.16.08.32 0 .5a.16.16 0 0 0 .08.21l.86.46c.6.33 1.27.58 2 .84l1.54.52c.06.01.1.02.14 0 .03-.01.05-.04.04-.08-.05-.27-.1-.46-.14-.55-.04-.1-.07-.23-.09-.39-.02-.17-.12-.35-.13-.51 0-.13-.04-.28-.08-.45a4.6 4.6 0 0 1-.08-.48c-.03-.21-.1-.44-.12-.64l-.14-1.28a.42.42 0 0 1 .02-.2c.02-.07.05-.07.06 0 .17.7.27 1.21.3 1.55.04.28.15.6.17.91.01.23.12.41.14.62.01.14.04.26.09.37.09.2.07.4.16.64.07.2.04.55.28.62.24.07.53.12.87.16.22.02.37.15.59.15.24 0 .34 0 .52.18a.05.05 0 0 1 .01.04.05.05 0 0 1-.03.03c-.22.05-.42.05-.61-.01-.26-.08-.5-.07-.72-.15a2.57 2.57 0 0 0-.58-.14c-.04.02-.06.05-.04.1.35 1.13.82 2.21 1.4 3.24.3.56.68 1.1 1.11 1.62l.18.26c.07.1.16.17.26.23.07.05.18.08.33.11l.9.21ZM25.58 29.61a.05.05 0 0 0-.05.06v4.78c0 .03.02.05.05.05.03 0 .05-.02.05-.05v-4.78a.05.05 0 0 0-.05-.06ZM35.29 29.82l.19.05c-.03.16.04.33.2.53.13.16.28.29.44.4a.09.09 0 0 1 .04.09.09.09 0 0 1-.07.07c-.35.08-.46-.13-.65-.43-.11-.17-.27-.19-.47-.06l.07-.56a.06.06 0 0 1 .04-.05.61.61 0 0 1 .21-.04ZM40.92 30.77c0 .08-.03.16-.08.22a.12.12 0 0 0-.02.06c-.02.17-.04.27-.06.33-.1.3-.4.92-.9 1.85a12.21 12.21 0 0 1-2.49 3.2c-.01-.03.01-.07.07-.13l.54-.54c.13-.13.26-.27.39-.44l.37-.47c.15-.15.22-.3.36-.54a.48.48 0 0 1 .06-.07.13.13 0 0 0 .04-.06.47.47 0 0 1 .12-.23 1.11 1.11 0 0 0 .22-.3c.04-.06.1-.1.12-.16l.05-.12.37-.65c.05-.1.07-.19.13-.3a4.9 4.9 0 0 0 .43-.92c.04-.05.06-.09.05-.14 0-.03-.02-.04-.05-.02a.8.8 0 0 0-.24.13c-.31.29-.64.53-1 .75-.77.47-1.5.84-2.16 1.1l-1.06.4c-.12.04-.17.1-.17.23 0 .31-.03.55-.11.71-.14.3-.37.58-.69.84-.21.17-.42.37-.61.6-.11.12-.23.29-.44.33-.2.05-.39.14-.62.16-.1 0-.18.02-.25.05.34-.7.61-1.43.82-2.17.04-.15.1-.2.25-.22.29-.05.59-.13.9-.24.3-.1.46-.14.66-.3v-.02a.03.03 0 0 0 0-.03.35.35 0 0 0-.26-.02 15.62 15.62 0 0 1-1.33.4.08.08 0 0 1-.06-.1c.05-.28.18-.59.25-.87l.3-1.18c.02-.07-.01-.12 0-.17 0-.02 0-.03.02-.02v.01c.01-.01 0-.04-.02-.1a.1.1 0 0 1 0-.05c0-.03 0-.05.02-.04l.1.32c.12.26.15.49.2.75 0 .03.02.06.04.08.11.13.24.2.33.38.1.2.16.63.56.47a19.81 19.81 0 0 0 4.38-2.33c.2-.13.36-.27.47-.42ZM34.34 32.25c.04.32.01.64-.09.98-.07.24-.14.5-.19.74a.26.26 0 0 1-.2.2l-2.22.4c-.2.03-.49.04-.7.08a9.29 9.29 0 0 1-2.3.16l-.03.01c0-.1 0-.23-.02-.34a1.34 1.34 0 0 1-.02-.35c.04-.36 0-.54.28-.79.37-.32.74-.36 1.3-.5.33-.09.34-.5.6-.6.28-.13.4-.34.6-.51.15-.12.29.02.42.12a.19.19 0 0 0 .27-.04l.29-.4a.12.12 0 0 1 .06-.05l.4-.13h.07c.19.08.37.1.52.08h.05a.07.07 0 0 1 .04.07c0 .02 0 .03-.02.04l-.26.36a.11.11 0 0 0 .02.16l.53.4c.2.15.41.12.6-.09ZM33.02 36.82l.01-.2c0-.02 0-.04-.03-.05a.91.91 0 0 0-.3-.1.09.09 0 0 1-.08-.08l-.05-.67a.12.12 0 0 0-.06-.1.12.12 0 0 0-.1 0l-.3.13c-.02.01-.04 0-.05-.03-.07-.15-.04-.3-.22-.43-.42-.26-.76-.05-1.19 0-.33.03-.6.28-.9.33-.17.02-.37 0-.58.07-.2.08-.45.23-.71.15a.13.13 0 0 1-.1-.1.14.14 0 0 1 .05-.12c.16-.17.23-.34.2-.53l.42-.03c.5-.05.86-.07 1.09-.08.33-.01.73-.09 1.1-.08.33 0 .64-.12.96-.17a15.57 15.57 0 0 0 1.68-.34.09.09 0 0 1 .05.12l-.89 2.31Z" fill="#91CAE4"/><path d="M41.87 37.63c.07-.17.18-.19.3-.06a.68.68 0 0 1 .05.06l.74 1.47a.05.05 0 0 0 .03.03h.03a.08.08 0 0 0 .03 0 .1.1 0 0 0 .03-.03c.1-.12.11-.42.12-.58v-.01a23.94 23.94 0 0 1 .24-2.15c0-.1.03-.2.04-.32.03-.16.06-.32.06-.48l.08-.6.09-.64c.03-.21.05-.44.1-.73l.02-.05.1-.36c.04-.17.07-.35.07-.54 0-.14 0-.23-.03-.26a.08.08 0 0 0-.06-.05c-.05 0-.13.03-.22.1l-1.35 1.06-.28.22c-.18.12-.36.26-.49.38-.1.1-.21.18-.33.26-.12.08-.23.16-.34.26a3 3 0 0 1-.34.27l-.18.13-1.5 1.16c-.08.05-.15.12-.23.2-.04.04-.03.07 0 .1h.07c.29 0 .54.03.76.09.12.03.24.04.35.04l.22.02.03.01a.06.06 0 0 1 .03.07.77.77 0 0 1-.2.32 144.38 144.38 0 0 1-2.24 2.25 38.41 38.41 0 0 1-1.86 1.38c-.3.2-.78.45-1.45.72-.13.06-.3.1-.5.13l-.51.1c-.62.12-1.38.02-1.9-.38a1.93 1.93 0 0 1-.65-.83c-.45.08-.93.15-1.45.22a2.5 2.5 0 0 1-1.3-.13 7.97 7.97 0 0 0-.58-.2l-.55-.84a.03.03 0 0 0-.02-.01c-.03 0-.03.01-.02.04l.45.73a.07.07 0 0 1 0 .07.07.07 0 0 1-.06.03l-1-.07.45.14c.02 0 .03.02 0 .03-.3.2-.65.31-1 .36-.17.02-.39 0-.6-.04a4.43 4.43 0 0 0-.41-.04c-.39.37-.83.63-1.34.77a.95.95 0 0 1-.26.04c-.4 0-.81 0-1.2-.02l-.47-.14-.45-.14c-.5-.19-.8-.32-.95-.4a13.79 13.79 0 0 1-2.83-2.07c-.62-.6-1.2-1.22-1.72-1.89a.85.85 0 0 1-.13-.25.09.09 0 0 1 .08-.12h1.51a.03.03 0 0 0 .02 0 .03.03 0 0 0 .01-.04.31.31 0 0 0-.12-.17c-.9-.64-1.75-1.26-2.54-1.85l-.44-.33c-.53-.39-1.23-.9-1.77-1.35a.06.06 0 0 0-.09.02v.03L12 34.12c.1.32.13.65.13.99l.04 1.35.08 1.47.08 1.09a.04.04 0 0 0 .02.03.04.04 0 0 0 .03 0 .04.04 0 0 0 .02 0c.05-.03.1-.07.13-.14l.72-1.21a.08.08 0 0 1 .06-.04c.18-.04.3.04.33.25.45.75.93 1.4 1.43 1.96a14.27 14.27 0 0 0 6.37 4.12c.1.03.23.06.34.11.1.05.21.06.33.08l.24.05.51.1a15.8 15.8 0 0 1 3.33 1.2c.47.3.83.56 1.08.8a2.26 2.26 0 0 1 .48.65.08.08 0 0 0 .09 0l.03-.03c.08-.18.2-.36.36-.53.53-.56 1.27-1 2.06-1.4 2.29-1.14 4.8-1.17 7-2.56a13.9 13.9 0 0 0 4.23-4.14c.14-.22.24-.45.35-.69Z" fill="#2D5097"/><path d="M25.46 37.88h.01c.06 0 .12.02.17.06.04.05.06.1.06.17v1.39a.25.25 0 0 1-.06.17.23.23 0 0 1-.16.07h-.01l-.01-1.86Z" fill="#E6E5E5"/></svg>