<!-- by TradingView --><svg width="56" height="56" viewBox="0 0 56 56" xmlns="http://www.w3.org/2000/svg"><path fill="#F0F3FA" d="M0 0h56v56H0z"/><path d="M26 22.01a.01.01 0 0 1 .01-.01c.4 0 .77.15 1.05.43a1.45 1.45 0 0 1 0 2.07c-.28.27-.66.43-1.05.43a.01.01 0 0 1-.01-.01V22ZM28.42 22.22a.22.22 0 0 1 .22-.22H29a1.39 1.39 0 0 1 1 .42 1.43 1.43 0 0 1 .41 1.01v.13c0 .38-.15.74-.41 1a1.4 1.4 0 0 1-1 .42h-.37a.22.22 0 0 1-.22-.22v-2.54ZM32.5 25a1.5 1.5 0 1 0 0-3 1.5 1.5 0 0 0 0 3Z" fill="#F36F4F"/><path d="M4 27.46v-1.43a.03.03 0 0 1 .03-.03H8.8a.03.03 0 0 1 .03.03v1.43a.03.03 0 0 1-.03.03H7.53a.03.03 0 0 0-.03.03v4.46l-.03.02H5.53l-.02-.02-.01-.02v-4.44a.03.03 0 0 0-.03-.03H4.03a.03.03 0 0 1-.03-.03ZM17.34 28.5c-.02-.05-.04-.05-.06 0l-1.33 3.45a.06.06 0 0 1-.06.05h-3a.05.05 0 0 1-.05-.03l-1.5-2.92c-.01-.03 0-.05.03-.05h.58c.67 0 .9-1.08.33-1.4-.1-.05-.26-.08-.49-.08h-.75c-.03 0-.04.01-.04.04v4.38c0 .04-.02.06-.06.06H9.02a.03.03 0 0 1-.01-.02V26l.03-.01h3.37c.5.01.93.18 1.3.52.89.84.69 2.22-.05 3.08a.08.08 0 0 0-.01.1l.7 1.37h.02l2.02-5.03a.07.07 0 0 1 .06-.04h1.7c.02 0 .04.01.05.04l1.7 4.22c.07.15.1.32.1.49v1.2c0 .03-.02.05-.05.05H18.7c-.03 0-.05-.01-.06-.04l-1.3-3.46ZM23.92 28.56l.06.08c.03.02.02.02.02-.02v-2.59l.03-.02.02-.01H26l.01.02V32h-1.6a.1.1 0 0 1-.1-.05 38.69 38.69 0 0 0-1.78-2.58c-.02-.03-.03-.02-.03.01v2.6l-.01.02H20.5V26l.02-.01h1.58a.11.11 0 0 1 .1.05c.59.94 1.16 1.78 1.7 2.5ZM28.29 27.88l.05.06c.36.26.75.35 1.17.49.93.3 1.39 1.05 1.23 2.05-.15 1.02-1.15 1.5-2.13 1.52-.75 0-1.47-.11-2.15-.36-.02 0-.04-.03-.04-.05v-1.4a.04.04 0 0 1 .02-.03.04.04 0 0 1 .04 0c.53.18 1.96.73 2.38.16a.16.16 0 0 0-.02-.2c-.1-.1-.23-.19-.38-.26-.67-.3-1.57-.44-1.97-1.25-.62-1.28.31-2.4 1.58-2.57.76-.1 1.56-.02 2.39.25.03.01.04.03.04.07v1.4a.04.04 0 0 1-.05.04c-.7-.33-1.37-.4-2-.23-.18.05-.24.15-.16.3ZM32.96 26h-1.92a.04.04 0 0 0-.04.03v5.93c0 .02.04.04.04.04h1.92s.04-.02.04-.04v-5.93a.04.04 0 0 0-.04-.03ZM36 29.84c0-.07-.01-.08-.04-.02l-1.07 2.13c-.02.03-.04.05-.07.05h-1.26c-.03 0-.05-.02-.05-.06v-1.17c0-.16.03-.33.1-.5l1.74-4.23a.07.07 0 0 1 .07-.04h1.53c.04 0 .05.01.05.05v2.46c0 .07.02.08.05.01l1.2-2.5s.02 0 .03-.02h1.69a.03.03 0 0 1 .03.02v5.94l-.01.02-.02.02h-1.93l-.03-.02v-2.15c0-.07-.02-.07-.04 0l-.69 2.12c0 .03-.03.05-.06.05h-1.16c-.04 0-.06-.02-.06-.06v-2.1ZM44.51 29v.67c0 .04-.02.05-.05.05h-1.43c-.02 0-.03.01-.03.03v.75c0 .02 0 .03.03.03h1.93l.03.01.01.03v1.37c0 .04-.06.06-.06.06h-3.88s-.05-.02-.05-.05a285.83 285.83 0 0 1 0-5.9c0-.03.02-.05.05-.05h3.88c.04 0 .06.02.06.06v1.37l-.01.03-.03.01h-1.93c-.02 0-.03.01-.03.03v.75c0 .02 0 .03.03.03h1.42c.04 0 .05.02.06.05V29ZM48.68 27.2l.03-.02c.25-.38.52-.76.8-1.15a.08.08 0 0 1 .07-.03h2.21a.03.03 0 0 1 .02.05l-1.94 2.81-.01.03v.03L52 31.96a.03.03 0 0 1 0 .02l-.01.01H49.7a.08.08 0 0 1-.07-.02l-.94-1.36-.02-.01h-.01a225.72 225.72 0 0 0-.98 1.4H45.38l-.01-.01a.03.03 0 0 1 0-.03l2.12-3.04.01-.03v-.03l-1.96-2.8a.03.03 0 0 1 0-.04v-.01h2.23c.03 0 .05 0 .07.03a69.23 69.23 0 0 1 .84 1.15Z" fill="#636466"/></svg>