<!-- by TradingView --><svg width="56" height="56" viewBox="0 0 56 56" xmlns="http://www.w3.org/2000/svg"><path fill="#F0F3FA" d="M0 0h56v56H0z"/><path d="M16.03 43.49c.58 1.46 9.55 1.14 13.96.8-1.79 0-7.04 0-7.15-.8-.11-.8 3.07-.69 5.3-.69 2.24 0 5.42.17 6.43.97.8.64-2.5 1.75-4.25 2.23 3.37-.17 10.02-.86 9.67-2.23-.36-1.37-7.6-1.7-11.17-1.7-4.5-.14-13.37-.04-12.8 1.42Z" fill="#C2C3C6"/><path d="m21.67 46-4.97-1.37c2.9.27 5.3.38 6.14.4l2.51.97h-3.68Z" fill="#C2C3C6"/><path d="M23.12 17.2a69.47 69.47 0 0 0-4.83 8.23 9.75 9.75 0 0 1 5.64-2.88c3.48-7.07 4.18-13.28 4.09-15.5-.67 2-2.6 6.8-4.9 10.15Z" fill="url(#a)"/><path d="M25 23.97a8.33 8.33 0 0 1 5.24 2.13c-3.66-1.34-7.2 1.58-6.92 5.5.21 3.13 3.18 4.19 4.63 4.32 4.57-.07 5.98-4.53 6.05-6.66.07-2.13-.07-2.27-3.09-9.34C28.49 14.25 27.93 8.95 27.95 7c.47 2.27 3.23 7.28 5.04 10.3 1.82 3.03 5.97 7.9 5.92 13.68-.07 7-6.32 11.33-10.96 11.33-4.63 0-10.82-3.09-10.95-9.34-.14-6.25 4.7-9.14 8-9Z" fill="url(#b)"/><path d="M38.85 32c-.5 5.1-4.32 8.61-8.08 9.84-4.55-.26-9.2-2.82-9.2-8.18 0-3.93 1.87-5.83 3.54-6.62a5.53 5.53 0 0 0-1.8 4.55c.22 3.14 3.19 4.2 4.64 4.33.2 0 .4-.01.58-.03 3.3 1.71 7.46-.88 10.32-3.89Z" fill="url(#c)"/><path d="M30.24 26.1A8.33 8.33 0 0 0 25 23.97c-3.3-.14-8.14 2.75-8 9 .13 6.25 6.32 9.34 10.95 9.34.9 0 1.86-.16 2.82-.47-4.55-.26-9.2-2.82-9.2-8.18 0-2.72 1.34-4.5 2.65-5.6a5.02 5.02 0 0 1 6.02-1.96Z" fill="url(#d)"/><defs><linearGradient id="a" x1="26.74" y1="8.56" x2="20.75" y2="24.04" gradientUnits="userSpaceOnUse"><stop stop-color="#0077BE"/><stop offset="1" stop-color="#86BDE2"/></linearGradient><linearGradient id="b" x1="30.68" y1="35.15" x2="35.12" y2="28.62" gradientUnits="userSpaceOnUse"><stop stop-color="#22507D"/><stop offset="1" stop-color="#00AEEF"/></linearGradient><linearGradient id="c" x1="21.57" y1="33.36" x2="37.64" y2="34.39" gradientUnits="userSpaceOnUse"><stop stop-color="#264570"/><stop offset="1" stop-color="#00AEEF"/></linearGradient><linearGradient id="d" x1="23.89" y1="23.96" x2="23.89" y2="42.31" gradientUnits="userSpaceOnUse"><stop stop-color="#6CB0DB"/><stop offset=".4" stop-color="#B9D8F0"/><stop offset="1" stop-color="#2188C7"/></linearGradient></defs></svg>