<!-- by TradingView --><svg width="56" height="56" viewBox="0 0 56 56" xmlns="http://www.w3.org/2000/svg"><path fill="#F0F3FA" d="M0 0h56v56H0z"/><path d="M28.06 10c1.22.69 2.3 1.62 3.27 2.8.2.23.82 1.11 1.87 2.64l10.46 15.08 1.07 1.49c.92 1.28 2 2.76 2.27 4.34v.6c-.18.82-.75 1.34-1.7 1.58-1.7.42-3.27.5-5.37.47-8.76-.1-17.53-.03-26.3 0-2 0-5.58-.28-4.4-3.39.22-.55.53-1.15.96-1.81a2622.19 2622.19 0 0 1 12.16-18.9c.9-1.34 1.68-2.38 2.37-3.1.75-.8 1.53-1.52 2.6-1.8h.74ZM11 33.36H44.9c.09 0 .1-.04.06-.1-3.95-5.55-8-11.42-12.77-18.34-.46-.68-.87-1.24-1.22-1.67a11.42 11.42 0 0 0-2.53-2.52c-.57-.38-1.16-.37-1.75.03-1.6 1.06-2.87 2.8-3.93 4.44 0 0-11.8 18.16-11.77 18.16ZM28 34H10.77c-.06 0-.1 0-.13.04-.8 1.25-2.04 3.46.1 4.13.87.26 1.86.27 2.98.26h28.6A9.8 9.8 0 0 0 45.3 38c2.14-.69.88-2.77.06-4.01H28Z" fill="#1A0B66"/><path d="M21.33 20h12.01c.02 0 .03 0 .04.02l.02.03v1.4a.05.05 0 0 1-.05.06l-8.37.04a.05.05 0 0 0-.04.02l-2.56 4.4-.02.01h-.03l-2.16.02a.05.05 0 0 1-.05-.03v-.05l2.47-4.23a.05.05 0 0 0 0-.06.05.05 0 0 0-.05-.02h-1.76a.05.05 0 0 1-.05-.02.05.05 0 0 1 0-.05l.55-1.45.02-.02.03-.07Z" fill="#DA2624"/><path d="m34.81 25.54-1.38-3.44a.06.06 0 0 1 .05-.09l1.85-.01a.06.06 0 0 1 .06.04l3.94 9.81v.03a.06.06 0 0 1-.03.05l-.02.07h-1.84c-.02 0-.03-.06-.04-.06a.06.06 0 0 1-.02-.03l-1.49-3.7a.06.06 0 0 0-.06-.04l-3.26.12a.06.06 0 0 0-.04.02.06.06 0 0 0-.02.04l.13 3.58a.06.06 0 0 1-.04.06l-.02.01h-1.7c-.02 0-.04 0-.05-.02a.06.06 0 0 1-.02-.04l-.35-9.85a.06.06 0 0 1 .02-.04c0-.01 0-.02.02-.02l.02-.03h1.7c.02 0 .04.02.05.03l.02.05.13 3.57a.06.06 0 0 0 .04.06h.02l2.28-.08a.06.06 0 0 0 .05-.03.06.06 0 0 0 0-.06Zm.22.44a.1.1 0 0 0-.1-.1l-2.4.12a.1.1 0 0 0-.1.1l.01.08a.1.1 0 0 0 .1.1l2.4-.12a.1.1 0 0 0 .09-.1v-.08Zm-2.57.64v.22a.05.05 0 0 0 .02.04.05.05 0 0 0 .04.01l2.3-.1a2.16 2.16 0 0 0 .35-.04.44.44 0 0 0 .1-.03l.03-.04v-.13c0-.03-.05-.05-.15-.06-.09-.02-.21-.03-.34-.02l-2.3.1a.05.05 0 0 0-.04 0 .05.05 0 0 0-.01.05Zm3.1.63a.14.14 0 0 0-.15-.14l-2.81.09a.14.14 0 0 0-.13.09V27.44a.14.14 0 0 0 .14.14l2.81-.09a.14.14 0 0 0 .14-.14v-.1ZM23.45 28.63a.07.07 0 0 0-.01-.07.08.08 0 0 0-.06-.03h-.84c-.11 0-.15-.05-.1-.15l.22-.59c.04-.1.12-.16.24-.16l4.43-.02c.03 0 .05-.01.08-.03a.13.13 0 0 0 .04-.07l.02-.09c.01-.04 0-.07-.06-.07l-4.47.03a.08.08 0 0 1-.06-.03v-.12c0-.04.03-.09.07-.12a.2.2 0 0 1 .13-.05l4.28-.02a.1.1 0 0 0 .06-.03.14.14 0 0 0 .04-.07l.01-.04a.1.1 0 0 0-.02-.1.11.11 0 0 0-.09-.04l-4.13.02c-.08 0-.12-.04-.12-.11v-.06a.15.15 0 0 1 .05-.12.17.17 0 0 1 .11-.04l4.1-.02c.02 0 .03 0 .05-.02a.08.08 0 0 0 .03-.04v-.06a.1.1 0 0 0-.01-.09.1.1 0 0 0-.09-.03l-4 .01a.06.06 0 0 1-.05-.02.05.05 0 0 1 0-.05l.02-.07a.2.2 0 0 1 .2-.14l.9-.03a.14.14 0 0 0 .14-.09l1.31-3.38a.11.11 0 0 1 .11-.08c.73-.02 1.38.02 1.95.15 1.32.3 1.39 1.4 1.41 2.55.07 2.52.1 4.3.1 5.36 0 .3-.08.65-.23 1.03-.17.43-.72.52-1.2.52a463.87 463.87 0 0 0-5.8.04.08.08 0 0 1-.04-.1l1.28-3.26Zm2.5-2.77c.2.02.68.02 1.43-.01.06 0 .09-.03.09-.1-.01-.67.08-1.5-.83-1.55-.03 0-.06 0-.08.02a.14.14 0 0 0-.06.06l-.57 1.4c-.05.11-.04.17.01.18Zm-1.48 3.58v.02a.04.04 0 0 0 .02.03h2.45c.1 0 .2-.04.29-.1a.46.46 0 0 0 .16-.24l.13-.43c.05-.21-.03-.31-.25-.3l-2.4.08c-.02 0-.04.01-.04.03l-.36.91Z" fill="#DA2624"/><path d="m21.99 26.67-2.07-.04c-.05 0-.09.03-.1.08v.08c0 .05.05.1.1.1l2.06.04c.05 0 .1-.04.1-.09v-.08a.09.09 0 0 0-.1-.1ZM21.64 27.23l-2.07-.02a.14.14 0 0 0-.14.13v.07c0 .07.06.13.13.14l2.07.02c.08 0 .14-.06.14-.14v-.06a.14.14 0 0 0-.13-.14Z" fill="#D52317"/><path d="m18.78 31.99-2.03.01a.07.07 0 0 1-.05-.03.06.06 0 0 1 0-.06L19 28.04a.06.06 0 0 1 .06-.03L21.1 28h.03l.02.03a.06.06 0 0 1 0 .06l-2.31 3.87-.02.02-.04.01Z" fill="#DA2624"/><path d="M26.14 36.72h-.1a.12.12 0 0 1-.1-.06.26.26 0 0 1-.04-.18c0-.06.04-.1.1-.1h.4a.1.1 0 0 1 .12.11v.87c0 .08-.04.1-.11.07l-.12-.04a.17.17 0 0 0-.16.02c-1.11.7-1.34-1.86-.4-1.98.4-.06.67.13.78.55a.08.08 0 0 1-.06.1h-.05a.74.74 0 0 1-.34-.24.27.27 0 0 0-.44.02c-.22.33-.25.7-.1 1.1a.36.36 0 0 0 .37.22c.18-.02.3-.14.33-.37.01-.06-.02-.1-.08-.1ZM32.21 36.63c-.47-.18-.68-.4-.45-.93.2-.47 1.03-.35 1.05.17 0 .3-.08.31-.27.03a.57.57 0 0 0-.2-.16c-.06-.03-.13-.03-.21 0a.26.26 0 0 0-.13.4c.03.05.08.08.14.1l.2.06c.46.17.67.39.44.93-.2.47-1.02.35-1.04-.18-.01-.3.08-.3.27-.03.04.05.1.1.2.16.06.03.13.03.21 0a.26.26 0 0 0 .13-.39.26.26 0 0 0-.15-.1 3.19 3.19 0 0 1-.19-.06ZM35.9 37.12a.9.9 0 0 0 .21-.3.14.14 0 0 1 .14-.07l.05.01.07.04c.02.02.03.04.02.07-.17.47-.4.7-.7.65-.8-.1-.8-1.83-.18-2.05.42-.16.7.01.85.5a.11.11 0 0 1-.06.14.12.12 0 0 1-.05.01c-.11 0-.19-.07-.24-.21a.2.2 0 0 0-.1-.12c-.18-.1-.38-.04-.45.16-.14.37-.13.73.03 1.07a.27.27 0 0 0 .3.15c.04 0 .07-.02.1-.05ZM37.83 37.1v-1.49a.18.18 0 0 1 .11-.17l.06-.02a.08.08 0 0 1 .1.03l.01.04c.01.62.02 1.15 0 1.58 0 .22-.09.38-.31.42-.42.1-.57-.2-.62-.54a.26.26 0 0 1 .08-.24.13.13 0 0 1 .19.02l.02.06c0 .16.02.26.06.32.05.1.12.13.21.11a.12.12 0 0 0 .1-.11ZM39.85 37.12a.23.23 0 0 0 .06-.33.23.23 0 0 0-.1-.08c-.29-.1-.62-.18-.7-.4-.15-.37 0-.98.54-.89.34.06.51.2.52.42.02.28-.07.3-.28.1-.07-.08-.15-.2-.28-.21-.12-.02-.21.05-.27.19a.2.2 0 0 0 .06.23l.07.04c.35.11.82.24.77.7-.08.86-1.1.84-1.2.06 0-.06.03-.1.1-.1.08 0 .14.03.17.1.13.27.31.33.54.17ZM42.01 36.45c0 .2.04.49.17.63a.25.25 0 0 0 .2.09.26.26 0 0 0 .2-.1c.09-.13.18-.23.27-.3a.1.1 0 0 1 .1 0 .1.1 0 0 1 .04.08c-.01.4-.32.75-.74.65-.45-.1-.55-.66-.54-1.05 0-.39.1-.94.55-1.04.42-.1.73.26.74.66a.09.09 0 0 1-.05.08.1.1 0 0 1-.1 0 1.1 1.1 0 0 1-.26-.3.26.26 0 0 0-.4-.02c-.13.14-.18.43-.18.62ZM11.81 35.46h.5c.08 0 .12.04.12.12v.09c0 .08-.04.12-.12.12h-.27c-.05 0-.08.03-.09.09l.02 1.38c0 .15-.05.23-.16.23-.1 0-.16-.08-.15-.23.01-.8.02-1.26.01-1.38 0-.06-.03-.09-.09-.09h-.26c-.08 0-.12-.04-.12-.12v-.09c0-.08.04-.12.12-.12h.5ZM13.23 37.04a5.11 5.11 0 0 0-.23.03.14.14 0 0 0-.05.06l-.14.33c-.02.04-.05.06-.09.05l-.05-.01c-.08-.01-.12-.07-.1-.16.14-.6.29-1.17.45-1.74a.22.22 0 0 1 .07-.11.24.24 0 0 1 .14-.04c.06 0 .1.01.14.04.04.03.06.06.08.11.16.57.3 1.15.43 1.75.02.09-.01.14-.1.15l-.05.01c-.04.01-.07 0-.09-.05l-.13-.33a.14.14 0 0 0-.13-.08h-.15Zm-.1-.3h.2a.05.05 0 0 0 .05-.05v-.03c0-.18-.02-.36-.05-.5-.03-.12-.06-.2-.09-.2h-.04c-.02 0-.03.02-.05.06a2.4 2.4 0 0 0-.06.65v.03a.04.04 0 0 0 .02.03.05.05 0 0 0 .03.01ZM14.64 36.5a2.3 2.3 0 0 0-.16-.33c-.05-.07-.08-.07-.08.02l.01 1.19c0 .06-.03.1-.1.1h-.04c-.08 0-.13-.04-.13-.13v-1.8a.1.1 0 0 1 .07-.1c.11-.04.2-.01.26.08l.37.88c.07.17.12.28.16.34.05.07.07.07.07-.02v-1.19c0-.06.03-.1.1-.1h.04c.08 0 .12.05.13.13v1.8a.1.1 0 0 1-.07.1c-.12.04-.2.01-.26-.08l-.37-.88ZM16.33 35.58c0-.04.02-.07.05-.1a.14.14 0 0 1 .1-.04h.4c.09 0 .18.03.26.07.09.04.16.1.23.16.06.07.1.16.14.25.04.1.05.2.05.3v.5c0 .2-.07.4-.2.54a.66.66 0 0 1-.5.22h-.4a.14.14 0 0 1-.13-.1.14.14 0 0 1 0-.05v-1.75Zm.28.23.02 1.33v.01a.04.04 0 0 0 .04.03h.12a.47.47 0 0 0 .34-.15.5.5 0 0 0 .13-.35v-.43a.5.5 0 0 0-.15-.34.47.47 0 0 0-.34-.14h-.12l-.03.01-.01.03ZM18.44 35.45c.06 0 .1.02.14.05.04.02.06.06.08.11.15.56.3 1.14.43 1.73.02.1-.02.15-.1.16h-.05c-.05.01-.07 0-.1-.04l-.12-.33a.14.14 0 0 0-.13-.09H18.29a.15.15 0 0 0-.13.1l-.14.32c-.02.04-.04.05-.09.04h-.04c-.1-.02-.13-.07-.1-.16.13-.6.28-1.17.44-1.73a.2.2 0 0 1 .08-.11.23.23 0 0 1 .13-.05Zm-.1 1.3.2-.01a.04.04 0 0 0 .04-.01v-.02l.01-.02v-.03c0-.18-.03-.36-.06-.5-.03-.13-.07-.2-.1-.2h-.01c-.04 0-.07.08-.1.21a2.7 2.7 0 0 0-.02.5V36.73l.02.01h.02ZM19.52 35.45h-.07a.1.1 0 0 0-.1.1l-.01 1.83c0 .06.04.11.1.11h.08a.1.1 0 0 0 .1-.1l.01-1.84a.1.1 0 0 0-.1-.1ZM21.16 36.2h.18c.08 0 .12-.02.12-.07v-.58c0-.06.04-.1.1-.1h.1c.06 0 .1.04.1.1v1.82c0 .08-.04.13-.12.13h-.07c-.07 0-.1-.04-.1-.1v-.74c0-.06-.04-.1-.1-.11a5.46 5.46 0 0 0-.4 0c-.08.02-.1.05-.1.1v.75c0 .07-.04.1-.1.1h-.08c-.08 0-.13-.04-.13-.13v-1.81c0-.07.04-.1.1-.1h.1c.07 0 .1.03.1.1v.57c0 .05.04.08.12.08h.18ZM22.71 37.19c.16 0 .26-.11.28-.33.02-.24.03-.68.01-1.3 0-.08.03-.11.1-.12h.06c.1 0 .15.05.15.15.01.76 0 1.23-.03 1.43-.05.34-.24.51-.56.51-.33 0-.52-.17-.58-.5-.03-.2-.04-.68-.03-1.44 0-.1.06-.15.16-.15h.05c.07 0 .1.04.1.12-.01.62 0 1.06.02 1.3.02.22.11.33.27.33ZM24.02 36.25c-.08-.2-.12-.19-.12.02v1.09c0 .07-.03.11-.11.11h-.06a.1.1 0 0 1-.1-.1l-.02-1.78c0-.06.03-.1.09-.12.08-.04.15-.03.22 0a32.4 32.4 0 0 0 .51 1.16c.07.17.1.17.11-.01l.02-1.05c0-.08.04-.13.13-.13h.05c.05 0 .08.02.08.07a72.33 72.33 0 0 1 0 1.94.19.19 0 0 1-.1.04.2.2 0 0 1-.1 0 .22.22 0 0 1-.14-.13l-.46-1.11ZM27.78 36.8v.6c0 .06-.02.09-.08.09h-.07c-.09 0-.13-.05-.13-.13l-.01-1.8c0-.05.03-.08.08-.09.63-.07 1.1-.04 1.04.76-.04.43-.3.54-.73.48-.07-.02-.1.01-.1.08Zm0-.91.01.43a.11.11 0 0 0 .04.08.12.12 0 0 0 .08.03h.12a.32.32 0 0 0 .22-.1.3.3 0 0 0 .08-.2v-.08a.29.29 0 0 0-.1-.2.31.31 0 0 0-.22-.08h-.12a.12.12 0 0 0-.11.12ZM29.97 37.18v.22a.06.06 0 0 1-.06.05l-.9.01a.06.06 0 0 1-.06-.06v-1.88a.06.06 0 0 1 .03-.05h.19l.04.01.02.04.01 1.55c0 .02 0 .03.02.04l.04.02h.61a.06.06 0 0 1 .06.05ZM30.82 37.04h-.15a.14.14 0 0 0-.13.08l-.13.33c-.02.04-.05.05-.09.05l-.05-.01c-.09-.02-.12-.07-.1-.16.13-.59.28-1.16.44-1.72a.21.21 0 0 1 .07-.11.23.23 0 0 1 .14-.05c.05 0 .1.02.14.05a.2.2 0 0 1 .07.11c.16.56.3 1.13.44 1.72.02.1-.02.14-.1.16h-.05c-.04.01-.07 0-.09-.04l-.13-.33a.14.14 0 0 0-.13-.08h-.15Zm-.01-.3c.04 0 .08 0 .11-.02.06-.01.08-.05.07-.1-.08-.46-.13-.68-.17-.68-.03 0-.1.22-.19.67-.01.05.01.1.06.1l.12.03ZM33.67 37.49c-.11 0-.17-.08-.17-.23.02-.8.03-1.26.02-1.38 0-.06-.03-.09-.09-.09h-.26c-.08 0-.12-.04-.12-.12v-.09c0-.08.04-.12.12-.12a144.84 144.84 0 0 1 .99 0c.08 0 .12.04.12.12v.09c0 .08-.04.12-.12.12h-.27c-.05 0-.08.03-.08.09l.01 1.38c0 .15-.05.23-.15.23ZM34.69 35.45h-.07a.11.11 0 0 0-.11.11l-.01 1.82c0 .06.05.1.1.1h.08c.06 0 .1-.04.1-.1l.02-1.82a.11.11 0 0 0-.11-.1ZM43.8 37.52a.43.43 0 0 1-.21-.06.6.6 0 0 1-.18-.17.87.87 0 0 1-.12-.26 1.08 1.08 0 0 1 .13-.87c.1-.14.25-.23.4-.22.07 0 .15.02.22.06.06.04.13.1.18.17.05.08.1.16.12.26.03.1.04.2.04.3 0 .22-.06.42-.17.57-.11.14-.25.23-.4.22Zm0-.32c.08 0 .15-.05.2-.14a.7.7 0 0 0 .09-.33.7.7 0 0 0-.08-.34c-.05-.1-.12-.15-.19-.15s-.14.05-.2.14a.7.7 0 0 0-.08.34c0 .13.03.25.08.34.05.09.12.14.19.14ZM38.44 37.25c-.02.12.04.23.13.25.1.02.2-.07.22-.19.02-.12-.04-.23-.13-.25-.1-.02-.2.07-.22.19ZM40.51 37.26c0 .13.05.25.14.25.1.01.17-.09.19-.22 0-.13-.06-.24-.14-.25-.1 0-.17.1-.19.22ZM44.56 37.24c-.02.12.03.24.13.25.09.02.18-.07.2-.19.02-.12-.03-.23-.12-.25-.1-.02-.19.07-.2.2Z" fill="#D52317"/></svg>