<!-- by TradingView --><svg width="56" height="56" viewBox="0 0 56 56" xmlns="http://www.w3.org/2000/svg"><path fill="#F0F3FA" d="M0 0h56v56H0z"/><path d="M18.87 28.1c-2.62-1.36-4.6-3.3-4.86-6.38-.33-4.15 5.37-9.76 9.58-9.02l1.3.24c.07.01.11.06.11.13v1.96c0 .06-.04.09-.1.07-.2-.07-.6-.18-1.18-.34-3.66-1.02-8.45 4.5-7.57 7.72a5.5 5.5 0 0 0 4.46 4c.25.04.38.2.39.45v2.6l-.03.04a.07.07 0 0 1-.04.02c-2.23.36-4.41 2.12-4.87 4.45-.15.73.04 1.36.3 2.25.94 3.2 4.97 4.66 7.84 5.64.66.23 1.08.16 1.72-.03.22-.07.4-.2.55-.4.29-.4.46-.82.51-1.23.01-.06.02-.5.02-1.3V16.43c0-1.73.94-4.2 2.98-4.35 1.02-.08 1.46-.16 2.36.19 4.94 1.86 12.76 7.16 8.37 13.08-.92 1.24-2.2 1.96-3.51 2.75-.07.04-.07.08 0 .12 1.85 1.13 3.64 1.74 4.3 4.1 1.18 4.3-1.16 7.6-4.92 9.74-2.02 1.16-3.18 1.56-5.48 1.15-.06-.01-.1-.05-.1-.1v-2c0-.06.04-.08.1-.06 2.2.68 3.22.04 5.22-1.04 2.87-1.55 4.35-4.67 2.97-7.61a5.02 5.02 0 0 0-4.22-2.78c-.03 0-.07-.02-.07-.06V26.9c0-.1.05-.18.11-.25a.4.4 0 0 1 .24-.14 7.6 7.6 0 0 0 1.53-.45c1.76-.71 3.08-3.19 3.03-4.87-.08-2.56-2.32-3.92-4.18-5.3-1.3-.98-3.9-2.2-5.57-1.7-.97.29-1.16 1.44-1.16 2.35v22.98c0 .73-.12 1.19-.16 1.37-.37 1.53-.91 2.04-2.2 3.04a.27.27 0 0 1-.14.05c-1.95.1-2.96-.19-4.8-.8-2.81-.95-6.81-3.74-7.38-6.77-.7-3.8 1.16-6.17 4.55-8.24l.02-.02a.05.05 0 0 0 0-.04l-.02-.02Z" fill="#FE0000"/></svg>