<!-- by TradingView --><svg width="56" height="56" fill="none" xmlns="http://www.w3.org/2000/svg"><path fill="#F0F3FA" d="M0 0h56v56H0z"/><path fill-rule="evenodd" clip-rule="evenodd" d="m49.363 25-1.007-2.035a.215.215 0 0 1 .015-.215l.514-.75h1.239l.47.756c.038.06.043.137.014.202L49.68 25h-.318Zm.946-2.99.556.634a.38.38 0 0 1 .037.442l-1.15 1.904h.283l1.884-1.911a.29.29 0 0 0 .081-.203.288.288 0 0 0-.09-.212l-.715-.655h-.886Zm-2.174.634.556-.634h-.886l-.714.654a.288.288 0 0 0-.091.212c0 .077.03.15.081.203l1.884 1.911h.283l-1.15-1.904a.38.38 0 0 1 .037-.442Zm-42.4 2.88V32h1.6v-6.477h1.667V24H4v1.523h1.735Zm4.865.869c.398-.326 1.042-.547 2.047-.26-.32.194-.956.689-1.134 1.581-.47-.067-.748.08-.913.303V32H9v-6h1.6v.393ZM25.4 32v-8H27v2.89c.514-.461 1.26-.89 2.033-.89 1.565 0 1.965 1.246 1.965 2.607V32h-1.6v-3.36c0-.598-.273-1.083-.887-1.083-.547 0-1.345.386-1.511.894V32h-1.6ZM45 29.818C44.637 31.078 43.457 32 42.057 32 40.37 32 39 30.657 39 29s1.369-3 3.057-3c1.4 0 2.58.923 2.943 2.182h-1.82a1.341 1.341 0 0 0-1.078-.546c-.744 0-1.348.611-1.348 1.364 0 .753.604 1.364 1.348 1.364.441 0 .833-.215 1.079-.546H45ZM51 29a3 3 0 1 1-6 0 3 3 0 0 1 6 0Zm-1.565.033c0 .767-.633 1.39-1.413 1.39s-1.414-.623-1.414-1.39c0-.767.633-1.389 1.414-1.389.78 0 1.413.622 1.413 1.39ZM20.6 31.42c.441.365.986.58 1.576.58 1.473 0 2.667-1.343 2.667-3s-1.194-3-2.667-3c-.59 0-1.134.215-1.576.58V26H19v8h1.6v-2.58Zm0-2.32c.05.706.623 1.264 1.323 1.264.733 0 1.327-.61 1.327-1.364 0-.753-.594-1.364-1.327-1.364-.7 0-1.273.558-1.323 1.264v.2Zm15.8-2.475V26H38v6h-1.6v-.617a2.576 2.576 0 0 1-1.663.617C33.224 32 32 30.659 32 29.004c0-1.654 1.225-2.995 2.736-2.995.626 0 1.203.23 1.664.616ZM36.282 29a1.317 1.317 0 1 1-2.633 0 1.317 1.317 0 0 1 2.633 0ZM16.4 26v.625a2.576 2.576 0 0 0-1.663-.616c-1.512 0-2.737 1.34-2.737 2.995S13.225 32 14.736 32c.626 0 1.203-.23 1.664-.617V32H18v-6h-1.6Zm-1.434 4.317a1.317 1.317 0 1 0 0-2.634 1.317 1.317 0 0 0 0 2.634Z" fill="#129045"/></svg>