<!-- by TradingView --><svg width="56" height="56" viewBox="0 0 56 56" xmlns="http://www.w3.org/2000/svg"><path fill="#F0F3FA" d="M0 0h56v56H0z"/><path d="M39.36 36.97a.75.75 0 0 1-.22.2l-1.35-.87a.28.28 0 0 0-.34.03 12.63 12.63 0 0 1-3.6 2.31.23.23 0 0 0-.13.13c-.1.24-.29.3-.57.17a.87.87 0 0 1-.39-.24 1 1 0 0 0-.77-.56.22.22 0 0 0-.18.05l-1.56 1.27a8.1 8.1 0 0 1-4.55-.06l-1.6-1.3c-.07-.05-.14-.06-.2 0l-.65.52a.1.1 0 0 0-.03.08.09.09 0 0 0 .06.07l1.6.5c-.09.1-.2.19-.3.26l-1.55-.57a.25.25 0 0 0-.2.01c-.21.11-.37.07-.45-.12a.32.32 0 0 0-.15-.15 13.7 13.7 0 0 1-3.68-2.4c-.06-.06-.13-.07-.2-.02l-1.46.9-.27-.18 1.43-.92a.13.13 0 0 0 .06-.1.14.14 0 0 0-.04-.11c-1-.95-1.85-2.27-2.56-3.97a.61.61 0 0 1 0-.33c0-.06.06-.09.15-.08.05 0 .09.03.1.09.6 1.63 1.48 3.02 2.62 4.15a.18.18 0 0 0 .2.04l3.15-1.02a.1.1 0 0 0 .06-.06.1.1 0 0 0 0-.08 13.6 13.6 0 0 1-.9-3.01.11.11 0 0 1 .12-.09h.08a.16.16 0 0 1 .15.13c.2 1.06.5 2.07.9 3.02.02.02.03.04.06.05.02.01.04.02.07.01a25.26 25.26 0 0 1 5.5-.52.15.15 0 0 0 .1-.14v-2.44a.11.11 0 0 1 .04-.09.11.11 0 0 1 .1-.01l.07.02a.09.09 0 0 1 .06.08v2.44a.15.15 0 0 0 .15.15c1.82-.03 3.63.14 5.44.5h.08a.12.12 0 0 0 .06-.06c.4-.96.7-1.96.9-3a.16.16 0 0 1 .16-.14H35a.11.11 0 0 1 .1.04.12.12 0 0 1 .02.1 13.61 13.61 0 0 1-.92 3l.01.05.03.03.04.02 3.15 1.02a.2.2 0 0 0 .2-.05 11.23 11.23 0 0 0 2.61-4.14c.06-.14.13-.15.22-.03l.04.05a.2.2 0 0 1 .03.2 11.6 11.6 0 0 1-2.62 4.13.13.13 0 0 0 .01.1l.04.04 1.4.9Zm-7.63.7a.23.23 0 0 0 .27-.06 12.08 12.08 0 0 0 1.66-2.49.16.16 0 0 0-.06-.12 30.77 30.77 0 0 0-5.39-.5.16.16 0 0 0-.1.15v2.11a.16.16 0 0 0 .1.15l.06.01a8.4 8.4 0 0 1 3.46.75Zm-7.48-.02a8.3 8.3 0 0 1 3.5-.74.16.16 0 0 0 .1-.15v-2.1a.17.17 0 0 0-.04-.11.16.16 0 0 0-.12-.05 30.64 30.64 0 0 0-5.29.49.15.15 0 0 0-.04.2 12 12 0 0 0 1.62 2.4c.04.04.08.06.13.07.05.01.1 0 .14-.01Zm-.5.28c.08-.04.09-.1.03-.16a9.26 9.26 0 0 1-1.75-2.67.15.15 0 0 0-.19-.08l-2.86.93a.17.17 0 0 0-.12.13.18.18 0 0 0 .06.16 14.5 14.5 0 0 0 3.75 2.3l.06-.01 1.02-.6Zm8.51 0 1.01.59a.15.15 0 0 0 .13 0 14.46 14.46 0 0 0 3.73-2.34.17.17 0 0 0-.03-.17.17.17 0 0 0-.07-.05l-2.86-.93a.15.15 0 0 0-.18.08 9.23 9.23 0 0 1-1.75 2.65c-.06.07-.05.12.02.16Zm-7.01.75a4.72 4.72 0 0 0 2.5.87.14.14 0 0 0 .08-.13l.02-2.05a.17.17 0 0 0-.1-.16 10.12 10.12 0 0 0-3.3.68.16.16 0 0 0 .03.22l.77.57Zm5.47.01a64.03 64.03 0 0 0 .83-.63.16.16 0 0 0-.09-.2 10.21 10.21 0 0 0-3.24-.68.17.17 0 0 0-.1.1l-.01.06v2.08a.14.14 0 0 0 .14.13 4.76 4.76 0 0 0 2.47-.86Z" fill="#0664AD"/><path d="M28 15h.03c5.31-.09 10.78 1.07 15.4 3.67 1.58.88 2.96 2 4.15 3.35 1.77 2 2.84 4.73 2.27 7.32-1.2 5.4-7.12 8.77-12.13 10.13A49.13 49.13 0 0 1 28 41a49.11 49.11 0 0 1-9.73-1.53c-5-1.37-10.93-4.74-12.12-10.14-.57-2.59.5-5.32 2.27-7.32a15.85 15.85 0 0 1 4.16-3.35A30.63 30.63 0 0 1 27.98 15H28Zm-2.22 1.61-.84.17-.27-.25.07-.05.02-.02a.04.04 0 0 0-.02-.04h-.02c-.7.07-1.35.18-1.95.33a.33.33 0 0 0-.17.1c-.07.06-.07.14 0 .2l-.16.1c-.11-.2-.38-.26-.6-.2-1.8.37-3.44.91-4.96 1.62-.06.03-.09.07-.1.14l-.23.19c-.06-.07-.16-.07-.3.01a16 16 0 0 0-4.26 3.06c-2.7 2.84-3.5 6.55-1.4 9.97 6.45 10.52 32.84 10.08 35.8-2.27 1.15-4.82-2.39-8.59-6.55-10.73-.22-.11-.36-.11-.44 0a.81.81 0 0 0-.27-.14c.08.02.1-.03.06-.14a.15.15 0 0 0-.03-.06 28.1 28.1 0 0 0-5-1.68c-.25-.05-.43.02-.53.23a.4.4 0 0 0-.12-.15c0-.12-.08-.2-.23-.24a9.24 9.24 0 0 0-2.05-.33 1 1 0 0 1-.46.26 1.4 1.4 0 0 0-.56-.05 7.88 7.88 0 0 0-2.89-.37c-.25.02-.76.14-1.54.34Z" fill="#07AAEA"/><path d="m30.2 16.64 1.72 1.23c.08.05.16.05.23 0l.56-.43a.11.11 0 0 0 .03-.04.1.1 0 0 0-.02-.11.1.1 0 0 0-.05-.03l-1.9-.57a1 1 0 0 0 .46-.26c.48.22 1.07.43 1.78.62.21.06.38.04.5-.05.06.05.1.1.12.15.02.11.11.21.22.25 1.36.52 2.57 1.26 3.64 2.24.05.04.1.05.16.01l1.48-.85c.12.04.21.1.27.15l-1.43.9a.13.13 0 0 0-.06.09.13.13 0 0 0 .04.1 10.66 10.66 0 0 1 2.6 4.07.1.1 0 0 1-.03.05l-.06.05c-.1.08-.18.06-.23-.07a10.45 10.45 0 0 0-2.63-3.98.21.21 0 0 0-.22-.04 19.03 19.03 0 0 1-3.14.97.12.12 0 0 0-.04.14 12.64 12.64 0 0 1 .92 2.93l-.01.02-.03.02h-.16a.16.16 0 0 1-.1-.02.14.14 0 0 1-.05-.09 13.24 13.24 0 0 0-.96-2.93 26.56 26.56 0 0 1-5.6.49.12.12 0 0 0-.07.07v2.4a.1.1 0 0 1-.04.08.1.1 0 0 1-.09.01l-.07-.02c-.05-.02-.08-.05-.08-.1v-2.33a.11.11 0 0 0-.03-.09.12.12 0 0 0-.1-.03c-1.81.03-3.64-.14-5.46-.49a.12.12 0 0 0-.13.07c-.4.92-.7 1.88-.9 2.87 0 .03-.02.07-.05.09a.16.16 0 0 1-.1.03H21c-.1 0-.13-.04-.12-.13.2-1 .5-1.94.91-2.84.03-.06.01-.1-.05-.12l-3.16-.97a.24.24 0 0 0-.23.05 10.5 10.5 0 0 0-2.6 3.99c0 .02-.02.04-.05.05a.1.1 0 0 1-.06 0l-.1-.02a.16.16 0 0 1-.08-.08.15.15 0 0 1-.01-.12 10.75 10.75 0 0 1 2.64-4.03.12.12 0 0 0-.02-.11 5.24 5.24 0 0 1-1.53-.98l.23-.19 1.41.91a.28.28 0 0 0 .34-.02c1.03-.9 2.21-1.62 3.55-2.16.09-.04.2-.14.36-.3l.17-.08c.16.04.38.02.67-.08l1.4-.45.26.25-1.64.5a.13.13 0 0 0-.06.03.13.13 0 0 0-.02.14l.05.05.64.36c.05.03.1.02.15-.01l1.72-1.24c.78-.2 1.3-.32 1.54-.34.85-.07 1.8.05 2.89.37Zm-4.93.72a56.1 56.1 0 0 0-.82.6.15.15 0 0 0 .03.15c.01.03.04.04.06.05a10.45 10.45 0 0 0 3.22.59.17.17 0 0 0 .1-.1v-.06l-.02-1.95a.13.13 0 0 0-.05-.1.14.14 0 0 0-.1-.03c-.9.07-1.7.35-2.42.85Zm5.44-.01a4.85 4.85 0 0 0-2.5-.83.14.14 0 0 0-.07.07l-.01.05-.02 1.97a.15.15 0 0 0 .05.12.17.17 0 0 0 .13.04 10.57 10.57 0 0 0 3.23-.67.15.15 0 0 0-.03-.22l-.78-.53Zm-6.98.74-1.01-.56a.15.15 0 0 0-.13 0 14.53 14.53 0 0 0-3.7 2.24.16.16 0 0 0 .03.16l.07.05 2.84.88.11-.01a.14.14 0 0 0 .08-.07c.42-.95 1-1.79 1.73-2.54.06-.06.05-.1-.02-.15Zm8.55.01c-.08.04-.09.1-.03.15A8.78 8.78 0 0 1 34 20.78c.02.03.04.06.08.07.03.02.07.02.1 0l2.84-.89c.03 0 .06-.02.08-.05a.16.16 0 0 0 .03-.16 14.54 14.54 0 0 0-3.79-2.23l-.06.01-1 .57Zm-.55.24a8.67 8.67 0 0 1-3.5.71.16.16 0 0 0-.08.08l-.02.06v2a.15.15 0 0 0 .05.11.16.16 0 0 0 .11.05 31.94 31.94 0 0 0 5.28-.48.15.15 0 0 0 .06-.11l-.01-.07a11.5 11.5 0 0 0-1.63-2.3.24.24 0 0 0-.26-.05Zm-7.47 0a.24.24 0 0 0-.27.05 11.5 11.5 0 0 0-1.65 2.36.14.14 0 0 0 .06.12l.07.02a31.73 31.73 0 0 0 5.27.45.16.16 0 0 0 .09-.08l.01-.06v-2.06a.15.15 0 0 0-.1-.08 8.64 8.64 0 0 1-3.49-.72ZM32.12 26.07c-.36-.1-.61.06-.78.46-.26.64 1.26.98 1.45 1.06 1.96.86 1.36 3.3-.67 3.4-1.14.07-1.89-.44-2.24-1.52a.19.19 0 0 1 .04-.18.2.2 0 0 1 .16-.08h.75c.16 0 .28.08.35.22.1.22.33.5.6.53.57.04 1.13-.23 1.04-.83-.1-.66-1.14-.86-1.6-1.02-.78-.29-1.26-1.12-1-1.9.58-1.77 3.31-1.53 3.63.28 0 .03 0 .07-.02.1a.13.13 0 0 1-.09.05c-.64.14-1.1 0-1.36-.39a.45.45 0 0 0-.26-.18ZM42.76 26.07c-.35-.1-.6.06-.77.47-.26.63 1.26.96 1.45 1.05 1.96.86 1.36 3.29-.67 3.4-1.14.07-1.89-.44-2.24-1.52a.19.19 0 0 1 .03-.17.2.2 0 0 1 .17-.08h.75c.16 0 .28.07.35.21.1.22.33.5.6.53.56.04 1.13-.23 1.04-.83-.1-.66-1.15-.86-1.6-1.02-.78-.29-1.26-1.11-1-1.9.58-1.77 3.3-1.54 3.62.28 0 .03 0 .07-.02.1a.13.13 0 0 1-.08.05c-.64.14-1.1 0-1.36-.39a.45.45 0 0 0-.27-.18ZM15 25c.1 0 .16.06.16.16v.65c0 .13-.07.19-.2.19h-.8a.16.16 0 0 0-.12.05.15.15 0 0 0-.04.1v4.7a.1.1 0 0 1-.03.08.11.11 0 0 1-.06.03 3.67 3.67 0 0 1-1.08 0 .11.11 0 0 1-.07-.04.1.1 0 0 1-.02-.07v-4.7a.15.15 0 0 0-.04-.1.16.16 0 0 0-.1-.05h-.85c-.13 0-.2-.06-.2-.2v-.64c0-.1.05-.16.16-.16H15ZM16.9 28.98c-.1-.14-.15-.13-.15.05v1.84c0 .09-.04.13-.12.13h-1c-.07 0-.1-.04-.1-.12V25.2a.18.18 0 0 1 .12-.18h.07c.85.02 2.14-.14 2.86.18a1.9 1.9 0 0 1 1.11 1.94c-.1.78-.55 1.32-1.37 1.62a.17.17 0 0 0-.1.11.18.18 0 0 0 .03.16l1.34 1.7c.14.18.1.27-.12.27h-.84a.57.57 0 0 1-.48-.25l-1.25-1.77Zm-.14-2.77-.01 1.53a.13.13 0 0 0 .12.13h.52c.16 0 .3-.02.45-.06.14-.05.26-.1.37-.19a.9.9 0 0 0 .25-.28c.06-.1.1-.22.1-.33v-.05a.69.69 0 0 0-.1-.33.9.9 0 0 0-.24-.28c-.1-.08-.23-.15-.37-.2a1.48 1.48 0 0 0-.44-.06h-.52a.13.13 0 0 0-.13.12ZM23.08 25c.3 0 .48.07.61.37l2.4 5.43c.05.12.01.2-.12.2h-.92c-.14 0-.23-.08-.29-.2l-.51-1.22a.24.24 0 0 0-.23-.14 211.65 211.65 0 0 1-1.86 0 .24.24 0 0 0-.23.15l-.51 1.21a.29.29 0 0 1-.29.2h-.91c-.14 0-.18-.06-.13-.19a530 530 0 0 0 2.37-5.43c.13-.3.3-.38.62-.38Zm-.62 3.24a.1.1 0 0 0 .1.15l1.03.01a.1.1 0 0 0 .1-.09.1.1 0 0 0 0-.05l-.5-1.38a.1.1 0 0 0-.2 0l-.53 1.36ZM37.5 25c.3 0 .47.07.6.37l2.4 5.43c.06.12.02.2-.12.2h-.92c-.13 0-.23-.08-.28-.2l-.52-1.22a.24.24 0 0 0-.22-.14 211.55 211.55 0 0 1-1.87 0 .24.24 0 0 0-.23.15l-.5 1.21a.29.29 0 0 1-.29.2h-.92c-.13 0-.17-.06-.12-.19a530 530 0 0 0 2.37-5.43c.13-.3.3-.38.61-.38Zm-.62 3.24a.1.1 0 0 0 0 .1.1.1 0 0 0 .1.05l1.02.01a.1.1 0 0 0 .1-.14l-.49-1.38a.1.1 0 0 0-.1-.07.1.1 0 0 0-.1.07l-.53 1.36ZM28.86 27.67h-1.73c-.07 0-.13.07-.13.15v.64c0 .08.04.14.11.14h1.75c.07 0 .14-.04.14-.12v-.64c0-.08-.07-.16-.14-.17Z" fill="#0664AD"/></svg>