<!-- by TradingView --><svg width="56" height="56" viewBox="0 0 56 56" xmlns="http://www.w3.org/2000/svg"><path fill="#F0F3FA" d="M0 0h56v56H0z"/><path d="M28.33 16c.87.06 1.79.09 2.6.2a19.96 19.96 0 0 1 17.05 19.34c-.01 0-.02 0-.03-.02-.07-.55-.13-1.02-.2-1.4-1.44-8.04-7.38-15.3-15.8-16.5-7.28-1.02-13.74 2.84-17.36 9.01-.17.29-.3.55-.42.8-.01.02 0 .03.02.02h.03v-.01a16.92 16.92 0 0 1 5.1-5.36c6.83-4.6 15.43-3.05 20.66 3.12a19.42 19.42 0 0 1 4.5 10.54c-.16-.85-.33-1.6-.53-2.29-1.68-5.76-6.01-10.81-11.95-12.07-7.55-1.59-13.9 3.36-16.56 10.16l.01.02h.03l.58-1.03c2.68-4.54 7.65-7.4 12.98-6.3 5.63 1.15 9.44 6.32 10.48 11.73 0 .02 0 .03-.02.04-.01 0-.03 0-.03-.02a30.2 30.2 0 0 0-.3-1.01c-1.17-3.86-3.86-7.4-7.65-8.85-4.8-1.84-9.83.2-12.92 4.09a14.51 14.51 0 0 0-2.82 5.73c-.02.02-.05.06-.07.06H8v-.24l.09-1.21c.16-2.54.87-5.03 2-7.28A20.59 20.59 0 0 1 28.1 16h.24Z" fill="#FE0002"/></svg>