<!-- by TradingView --><svg width="56" height="56" viewBox="0 0 56 56" xmlns="http://www.w3.org/2000/svg"><path fill="#F0F3FA" d="M0 0h56v56H0z"/><path d="m21.11 14 2.96 5.38c0 .02 0 .04-.02.05-.02.01-.04 0-.05-.02l-2.95-4.59a.05.05 0 0 0-.04-.02.05.05 0 0 0-.05.02l-4.37 5.85a.16.16 0 0 1-.13.07l-9.22.22a.1.1 0 0 0-.08.06.1.1 0 0 0 0 .1l4.44 5.56c.09.1.09.2 0 .32l-4.27 5.52-.22.35c-.04.06-.03.13.05.13H46.6c.14.24.17.62.08 1H6.14L6 33.13c.08-.21.16-.37.23-.47 1.49-1.94 3-3.86 4.53-5.77.04-.05.05-.1.03-.17-.06-.2-.13-.33-.19-.39-1.24-1.57-2.39-3.1-3.6-4.57-.29-.36-.56-.75-.8-1.16 0-.07.05-.1.16-.1l9.62-.26a.52.52 0 0 0 .4-.2c1.2-1.56 2.63-3.44 4.29-5.64.11-.16.26-.29.44-.4Z" fill="#E5392F"/><path d="M43.85 22.03a3.06 3.06 0 0 1 2.22 2.15c.43 1.7-.61 2.75-1.64 3.68-1.02.91-2.36 2.21-3.36 3.14h4.48c.07.22.08.67.02.91 0 .03-.02.05-.04.07a.13.13 0 0 1-.08.02h-8.97c-.2 0-.3-.06-.32-.19l.02-.9a.2.2 0 0 1 .08-.16l3.7-2.85a133.9 133.9 0 0 0 2.57-2.2c.45-.5.69-1.25.7-1.84-.42-.38-.9-.58-1.45-.59a5.7 5.7 0 0 0-1.88.21c-1.75.62-3.26 1.7-4.72 2.92-1.07.9-2.2 1.95-3.37 3.15L29.38 32h-5c.02-.04 0-.17-.06-.2l4.75-4.2c.35-.3.4-.6.15-.89a.96.96 0 0 0-.72-.34c-.97-.04-1.95-.04-2.93 0-.17 0-.28-.03-.32-.1l3.44-3.04c.05-.05.25-.22.18-.23H18.1a.11.11 0 0 0-.08.04.1.1 0 0 0-.02.03v1.73c0 .08.16.2.3.2h2.8c.93-.01 1.87.3 2.56.88.84.71.04 1.55-.55 2.05l-4.64 3.88c-.08.07-.22.22-.4.19h-5.39c-.22.03-.24-.07-.08-.21 1.71-1.43 3.61-3.17 5.7-4.88.24-.2.26-.43.04-.7A8.08 8.08 0 0 0 16.1 26h-3.1l.01-3.66c0-.19 0-.34.14-.34h21.54c.07 0 .1.02.1.1l-.3.18c-1.51 1.2-2.57 2.3-2.95 2.62-.46.42-.5.57-.14.47l2.38.7a.39.39 0 0 0 .37-.1 15.56 15.56 0 0 1 5.7-3.43 9.68 9.68 0 0 1 4-.5ZM47.59 35c.33-.07.4.27.23 1H13.29c-.07 0-.11-.07-.13-.15a1.03 1.03 0 0 1-.02-.42.66.66 0 0 1 .01-.28c.02-.08.07-.15.14-.15h34.3ZM48.82 37c.17.1.22.38.15.82 0 .05-.03.1-.06.13a.16.16 0 0 1-.12.05H16.1c-.07 0-.1-.04-.1-.12V37h32.82Z" fill="#E5392F"/></svg>