<!-- by TradingView --><svg width="56" height="56" viewBox="0 0 56 56" xmlns="http://www.w3.org/2000/svg"><path fill="#1D4974" d="M0 0h56v56H0z"/><path d="M24.36 40.48c.02 0 .03 0 .05-.02a.07.07 0 0 0 .02-.04l1.52-15.32c0-.06-.02-.1-.09-.1h-7.72c-.13 0-.16-.05-.1-.16l2.03-3.64c.06-.1.14-.2.25-.2h5.6c1.05.03 1.58.64 1.59 1.71.02 1.91-.06 7.37-.23 16.39-.04 1.9.05 2.87-2.07 2.89h-5.04a.38.38 0 0 1-.33-.19l-7.8-13.6a.29.29 0 0 1 0-.3l7.89-13.75a.3.3 0 0 1 .26-.15h15.4a.67.67 0 0 1 .57.33l7.8 13.6c.05.08.05.16 0 .24L36.15 41.8a.38.38 0 0 1-.32.19l-5.42-.01c-1.1 0-1.65-.61-1.67-1.8-.06-3.91-.15-9.55-.3-16.91-.04-2.02 1.23-2.28 2.95-2.28h4.17c.08 0 .16.08.23.12.07.04.13.1.17.18l1.92 3.33c.08.15.04.37-.13.37h-7.32a.09.09 0 0 0-.05.05v.04l1.19 15.14c0 .07.04.14.09.18.05.05.12.08.19.08h2.96a.7.7 0 0 0 .6-.35l6.71-11.7a.7.7 0 0 0 0-.76l-6.84-11.94a.53.53 0 0 0-.47-.27H21.26a.64.64 0 0 0-.57.33l-6.82 11.89a.75.75 0 0 0 0 .74l6.66 11.61a.87.87 0 0 0 .75.44h3.08Z" fill="#fff"/></svg>