<!-- by TradingView --><svg width="56" height="56" viewBox="0 0 56 56" xmlns="http://www.w3.org/2000/svg"><path fill="#F0F3FA" d="M0 0h56v56H0z"/><path d="M28.1 11a17.01 17.01 0 0 1 13.08 27.74A17.08 17.08 0 0 1 27.9 45a17 17 0 0 1 .2-34Z" fill="#007C3C"/><path d="M27.94 12.19 24.8 24.43l-1.15 4.39-.34 1.4c-.01.05 0 .08.07.09h2.34c.06-.01.08.13.12.18.58.75 1.03 2.07.34 2.9-.24.29-.79.33-.89-.13a2.4 2.4 0 0 1-.04-.86c0-.06-.01-.1-.06-.13a.23.23 0 0 1-.12-.2.12.12 0 0 0-.12-.12l-1.48-.09c-.05 0-.08.04-.1.11l-.4 1.84c-.06.32-.04.62.07.9.33.86.84.86 1.76.85.56-.01 1.14 0 1.73.03l-2.39 7.86a15.75 15.75 0 0 1-10.44-8.42 15.67 15.67 0 0 1-1.6-7.73 15.78 15.78 0 0 1 4.62-10.53c3-2.98 6.65-4.55 10.96-4.7.08 0 .17.04.26.12Z" fill="#0172B8"/><path d="m31.07 12.38-2.1 10.54c0 .06.02.08.08.08h4.5a598.64 598.64 0 0 1-2.97 5.94c-.04.08-.08.18-.11.3l-.11.3c-1.4 3.53-2.78 7.07-4.12 10.63a1 1 0 0 0-.22.56l-1.18 2.85-.7-.13 2.4-7.86c.79-.18 1.36-.62 1.7-1.33.2-.4.35-.86.44-1.36.15-.8-.17-1.43-.48-2.15-.1-.22-.22-.43-.37-.65a2.73 2.73 0 0 1-.55-1.7c.02-.54.25-1.13.38-1.64.07-.26.24-.36.5-.31l.1.02c.26.05.34.2.25.43l-.28.74c-.14.3.04.6.38.58.5-.02.97 0 1.44-.03.17-.02.27-.1.3-.27.24-1.06.68-2.17 0-2.84-.32-.32-.62-.5-.9-.53a22.1 22.1 0 0 0-1.97-.03c-.46 0-.79.08-1 .22-.75.5-1.11 1.7-1.29 2.55a3.96 3.96 0 0 0 .5 2.97c.02.05 0 .08-.05.08l-1.33.02-.93-.05c-.06 0-.08-.04-.07-.1l.34-1.4c.04-.05.1-.1.2-.12a.13.13 0 0 0 .09-.1l.86-4.16 3.14-12.24a.24.24 0 0 1 .04-.08c.02-.02.05-.03.08-.03 1 0 2 .1 3 .3Z" fill="#FFF500"/><path d="M32.12 12.6 30.02 23h-1c-.06 0-.08-.03-.07-.1l2.12-10.52c.5-.08.85 0 1.05.23Z" fill="#1F1A16"/><path d="M32.12 12.6c6.34 1.79 10.9 7 11.7 13.6.43 3.5-.29 6.79-2.14 9.89.82-2.85 1.47-5.49 1.97-7.93.01-.06 0-.1-.07-.11-.05-.01-.07-.04-.06-.1.01-.12-.03-.19-.13-.19h-2.63c-.66.03-1.06.33-1.21.9-.05.2-.35 1.44-.88 3.74-.1.38-.05.67.26.9.34.26 1.34.17 1.69.17a.08.08 0 0 1 .08.06v.03c-.16 1.4-.92 2.01-2.26 1.82-.07-.01-.12.02-.14.08l-.63 1.63c-.03.07 0 .1.07.1.88.05 1.82.17 2.64-.04l.78-.22a15.5 15.5 0 0 1-4.7 4.53c-3.43 2.14-7.62 3-11.62 2.12l1.18-2.85-.75 2.65a.1.1 0 0 0 .06.12l.43.17c.06.02.1 0 .12-.06l.24-.55 3.85-9.72c.02-.05.05-.07.11-.06.19.05.32.13.52.14 1.54 0 2.44 0 2.68-.02.56-.05.47-.45.56-.84.26-1.07.47-2.07.65-2.99.17-.9-.18-1.47-1.04-1.72a.08.08 0 0 1-.02-.14.14.14 0 0 1 .1-.02c.05.01.1 0 .13-.04l1.13-1.14c.04-.04.04-.07 0-.1a.3.3 0 0 1-.04-.05c-.02-.02 0-.07.08-.12a.31.31 0 0 0 .06-.05c.05-.06.03-.09-.04-.09H33.3c-.13 0-.16-.05-.1-.16l1.35-2.8a.04.04 0 0 0-.02-.07h-.03c-.34.07-.53.05-.83-.07H30l2.1-10.4Z" fill="#0172B8"/><path d="M15.8 22.9a.08.08 0 0 0-.02-.08.09.09 0 0 0-.03-.02.1.1 0 0 0-.04-.01h-1.35a.1.1 0 0 1-.08-.04.1.1 0 0 1-.02-.08l.3-1.5a.2.2 0 0 1 .07-.12.22.22 0 0 1 .13-.05h5.57a.15.15 0 0 1 .11.05.14.14 0 0 1 .03.12c-.01.05.01.1.07.15.04.03.06.07.05.12l-.2 1a.43.43 0 0 1-.16.25.46.46 0 0 1-.28.1h-1.73a.17.17 0 0 0-.1.04.16.16 0 0 0-.07.08l-1.46 5.8a.39.39 0 0 1-.14.2.41.41 0 0 1-.25.09h-2c-.08 0-.1-.04-.09-.12l1.68-5.98Z" fill="#030101"/><path d="m14.44 22.54.33-1.31c0-.01 0-.02.02-.03l.03-.01h5.42l.02.02a.05.05 0 0 1 .01.04l-.33 1.32c0 .01 0 .02-.02.03H17.8l-.04.02-.02.03-1.55 6.14c0 .02-.01.03-.02.03l-.03.01h-1.77a.05.05 0 0 1-.03-.04v-.02l1.71-6.1a.05.05 0 0 0-.03-.06H14.5a.05.05 0 0 1-.06-.04v-.03Z" fill="#fff"/><path d="M33.55 23h1.13c-.01 0 0 0 0 0l-1.5 2.94c-.05.1-.02.16.1.16h1.57c.07 0 .09.03.04.09a.32.32 0 0 1-.06.05c-.07.05-.1.1-.08.12l.04.04c.04.04.04.08 0 .11l-1.13 1.14a.14.14 0 0 1-.12.04c-.04 0-.08 0-.11.02a.08.08 0 0 0-.03.08.08.08 0 0 0 .05.06c.86.25 1.2.82 1.04 1.72-.18.92-.4 1.92-.65 2.99-.09.39 0 .8-.56.84-.24.02-1.14.02-2.68.02-.2 0-.33-.09-.52-.14-.06-.01-.1 0-.11.06L25.8 43.73l-1.02-.24c1.35-3.57 4.17-10.42 5.57-13.94.04-.1.08-.2.1-.31l.12-.3c1.03-2 1.94-3.86 2.97-5.94ZM20.64 23.75l.04.03c.01 0 .02.02.01.04l-1.41 4.89a.4.4 0 0 1-.39.29h-1.86c-.1 0-.14-.05-.11-.15l1.51-5.23a.26.26 0 0 1 .25-.2h1.78a.1.1 0 0 1 .1.06.1.1 0 0 1-.01.11.15.15 0 0 0-.03.1c0 .01.04.04.12.06Z" fill="#030101"/><path d="M18.8 28.83h-1.6a.06.06 0 0 1-.06-.07l1.47-5.1a.06.06 0 0 1 .05-.04h1.61a.06.06 0 0 1 .06.08l-1.47 5.09a.06.06 0 0 1-.06.04Z" fill="#fff"/><path d="M26.53 35.59c-.6-.03-1.17-.04-1.73-.03-.92.01-1.43 0-1.76-.85a1.55 1.55 0 0 1-.06-.9l.39-1.84c.02-.07.05-.1.1-.1l1.48.08a.12.12 0 0 1 .12.12c0 .1.04.16.12.2.05.03.07.07.06.13-.04.26-.02.55.04.86.1.46.65.42.89.13 1.37-1.66-1.73-3.19-.99-6.1.18-.85.54-2.06 1.3-2.55a1.9 1.9 0 0 1 1-.22c.97-.01 1.63 0 1.95.03.29.03.6.2.92.53.67.67.23 1.78 0 2.84-.04.16-.14.25-.3.27-.48.03-.96 0-1.45.03-.34.02-.52-.27-.38-.58l.28-.74c.1-.24.01-.38-.24-.43l-.11-.02c-.26-.05-.43.05-.5.3-.13.52-.36 1.11-.38 1.66-.02.6.17 1.16.55 1.7.15.2.28.42.37.64.3.72.63 1.35.48 2.15-.1.5-.24.95-.43 1.36-.35.71-.92 1.15-1.72 1.33Z" fill="#030101"/><path d="M28.7 26.87c.1-.29-.03-.48-.4-.59-.1-.03-.23-.04-.4-.03a.66.66 0 0 0-.64.52c-.3 1.03-.58 1.74-.14 2.6.5.99 1.15 1.9 1.25 3.06.03.29-.13.82-.46 1.61-.2.48-.5.86-.91 1.15-.19.14-.43.2-.72.2h-2.09c-.76 0-1.22-.79-1.04-1.52.12-.52.23-1.05.33-1.6.02-.12.1-.18.22-.18h1c.14 0 .2.07.18.21-.1.7.06 1.53.92 1.48.36-.02.66-.37.76-.65.24-.73.16-1.46-.26-2.2l-.58-1.01c-.77-1.28-.44-2.83.16-4.16.62-1.34 1.53-1.01 2.72-1.05.56-.02.95.03 1.19.16.96.5.41 1.99.14 3.14 0 .03-.02.04-.05.04h-1.56a.03.03 0 0 1-.02-.01V28l.4-1.14ZM32.98 26.3a.14.14 0 0 1 .02-.02h1.54v.02l-1.3 1.3a.22.22 0 0 1-.06.05.18.18 0 0 1-.07.01h-.8c-.06 0-.08-.03-.05-.08l.72-1.27Z" fill="#fff"/><path d="m24.8 24.6-.86 4.15a.13.13 0 0 1-.1.1.32.32 0 0 0-.2.14h-2.67c-.6 0-1-.17-1.03-.8-.05-.95.26-1.67.91-2.18.27-.2.67-.32.95-.46.12-.05.11-.08-.02-.08h-1.14c-.06 0-.08-.03-.08-.08.05-.78.33-1.32.87-1.63.89-.51 1.75-.57 2.6-.17.34.16.6.5.77 1Z" fill="#030101"/><path d="M22.7 24.52h-.1a.37.37 0 0 0-.36.3l-.07.37c-.01.07-.05.1-.13.1h-1.18c-.06 0-.09-.02-.08-.09.06-.51.21-.87.44-1.07.6-.53 1.37-.7 2.33-.53.7.13.93.68.8 1.34l-.8 3.76a.12.12 0 0 1-.12.1l-2.57.02c-.87 0-.79-.69-.7-1.3.2-1.26 1.04-1.56 2.09-1.93.4-.14.63-.4.68-.8.02-.18-.06-.27-.24-.27Z" fill="#fff"/><path d="M21.6 27.62a.17.17 0 0 1-.17-.13v-.07c.08-.45.37-.7.87-.75.09 0 .1.02.06.1-.24.38-.18.83-.77.85ZM37.1 29.3c.02-.05-.01-.09-.08-.09h-.47c-.1 0-.15.05-.17.14l-.74 3.9a.37.37 0 0 1-.37.3h-1.14c-.13 0-.18-.07-.15-.2l1.05-5.48c0-.06.04-.1.08-.14.04-.04.1-.06.15-.06l2.36.01c.5.02.93.24 1.27.66.14.17.2.35.15.54-.33 1.6-.6 3.03-.81 4.32a.4.4 0 0 1-.4.33h-1.48a.05.05 0 0 1-.04-.03v-.02l.8-4.17ZM41.68 36.09l-.52.84-.78.22c-.82.21-1.76.1-2.64.05-.08 0-.1-.04-.07-.11l.63-1.63c.02-.06.07-.1.14-.08 1.34.2 2.1-.41 2.26-1.82a.09.09 0 0 0-.02-.07.09.09 0 0 0-.06-.02c-.35 0-1.35.1-1.7-.17-.3-.23-.34-.52-.25-.9.53-2.3.83-3.54.88-3.73.15-.58.55-.88 1.2-.9.34-.02 1.22-.02 2.64 0 .1 0 .14.06.13.19 0 .05.01.08.06.09.06 0 .08.05.07.1-.5 2.45-1.15 5.1-1.97 7.94Z" fill="#030101"/><path d="m36.02 29.23-.78 4.08c0 .03-.03.05-.06.05h-.97a.04.04 0 0 1-.03-.01v-.03l1.02-5.37c.01-.08.06-.11.13-.11h1.38c.7.01 2.19-.13 1.94 1.1-.33 1.62-.6 3.07-.83 4.34 0 .05-.03.08-.08.08h-1.19c-.05 0-.07-.03-.06-.08l.84-3.97a.22.22 0 0 0-.2-.26h-.87c-.14 0-.22.06-.24.18ZM32.5 28.93h-.09a.37.37 0 0 0-.36.3l-.07.37c-.02.07-.06.1-.13.1h-1.19c-.06 0-.08-.03-.08-.1.07-.5.22-.86.45-1.07.6-.52 1.37-.7 2.33-.52.7.13.93.68.8 1.34l-.81 3.77a.12.12 0 0 1-.12.09c-1.27.02-2.13.02-2.57.02-.87-.01-.79-.7-.7-1.31.2-1.26 1.05-1.55 2.1-1.92.4-.14.63-.4.68-.8.02-.18-.06-.27-.24-.27ZM40.9 33.29h-1.5a.59.59 0 0 1-.58-.73l.9-3.8c.18-.7.61-.8 1.31-.8a95.47 95.47 0 0 0 2.26.02.06.06 0 0 1 .01.05 103.8 103.8 0 0 1-1.92 7.64c-.15.54-.31.88-.48 1.03-.29.25-.68.38-1.17.39-.6 0-1.2-.01-1.77-.06-.06 0-.07-.03-.05-.07l.51-1.32a.11.11 0 0 1 .11-.08l.32.01c1.42.12 1.93-1.04 2.1-2.22a.06.06 0 0 0-.01-.04l-.02-.02h-.02Z" fill="#fff"/><path d="m41.58 30.5-.2.94c-.14.53-.42.52-.88.45-.15-.02-.21-.11-.17-.26.13-.48.24-.9.31-1.28l.2-.94c.15-.53.42-.52.88-.45.15.03.21.12.17.27-.13.48-.24.9-.31 1.28Z" fill="#030101"/><path d="m41.6 29.17-.16-.05a.11.11 0 0 0-.14.09l-.57 2.35c-.01.06.02.12.08.14l.17.04c.06.01.12-.02.13-.08l.58-2.36a.11.11 0 0 0-.09-.13ZM32.32 29.44c.02-.11.04-.18.08-.21.07-.06.1-.03.08.08 0 .03-.03.09-.1.16-.06.08-.08.07-.06-.03ZM31.48 30c.1-.04.17-.09.16-.12-.01-.03-.1-.03-.2 0-.1.04-.16.09-.15.12 0 .03.1.03.2 0Z" fill="#0172B8"/><path d="M32.18 31.17c-.24.39-.18.83-.77.85a.17.17 0 0 1-.16-.2c.08-.45.37-.7.88-.75.08 0 .1.03.05.1Z" fill="#030101"/><path d="M31.76 31.57a.28.28 0 0 1-.07.09c-.05.03-.06.03-.05-.03.02-.06.04-.1.07-.12.07-.04.1-.02.05.06Z" fill="#0172B8"/></svg>