<!-- by TradingView --><svg width="56" height="56" viewBox="0 0 56 56" xmlns="http://www.w3.org/2000/svg"><path fill="#F0F3FA" d="M0 0h56v56H0z"/><path d="M33.34 13.1a6.7 6.7 0 0 0-1.54-.23 6.9 6.9 0 0 0-5.02 2.1c-.2.18-.45.47-.78.86l-9.34 11.33c-.35.42-.58.73-.7.93a3.61 3.61 0 0 0 .8 4.87c.04.03.03.04 0 .04h-4.02c-.35 0-.71-.12-1.1-.34a3.22 3.22 0 0 1-1.4-1.72c-.62-1.67.15-3.43 1.2-4.7a32360 32360 0 0 0 11.05-13.37c.33-.4.59-.7.78-.87a7 7 0 0 1 3.5-1.88 6.41 6.41 0 0 1 4.4.7 6.98 6.98 0 0 1 2.5 2.4c-.1-.04-.24-.1-.33-.11Z" fill="#472F91"/><path d="M43.7 32.94c-.15.03-.29.05-.42.05a540.72 540.72 0 0 1-4.04-.02c.4-.32.72-.7.97-1.15.52-.9.6-1.86.26-2.86a5.4 5.4 0 0 0-1.08-1.75l-9.57-11.56a7.34 7.34 0 0 0-.89-.93 5.62 5.62 0 0 1 6.97 1.1l.42.49a10214.2 10214.2 0 0 1 8.43 10.17c.98 1.25 1.63 2.94 1 4.54a3.19 3.19 0 0 1-2.05 1.92Z" fill="#472F91"/><path d="M27.38 16.72v6.54c0 .09-.02.16-.06.22l-.03.02a.06.06 0 0 1-.06-.01l-.02-.03c-.4-.85-1.17-1.75-1.52-2.27l-.25-.37c-.58-.87-.4-1.83.23-2.6.62-.78 1.04-1.29 1.26-1.54.09-.11.2-.19.31-.24l.05.01c.07.07.1.16.09.27ZM28.6 16.73c-.01-.11.02-.2.08-.27.01-.02.03-.02.05-.01.12.05.22.13.31.23l1.26 1.54c.63.77.81 1.72.22 2.6l-.24.36c-.35.53-1.13 1.42-1.52 2.28l-.02.02-.03.01a.06.06 0 0 1-.06-.02.35.35 0 0 1-.06-.22 838.95 838.95 0 0 1 0-6.52ZM28.6 26.74c0-.25 0-.51.04-.77.09-.66.38-1.33.7-1.9.44-.8.99-1.55 1.63-2.23.5-.53.99-.84.9-1.67a152.26 152.26 0 0 0 2.1 2.49c.26.3.45.63.56.97.33.95-.45 1.75-1.07 2.28-1.02.86-2 1.8-2.83 2.86a13.5 13.5 0 0 0-1.72 3 .37.37 0 0 1-.11.15.1.1 0 0 1-.09.01.1.1 0 0 1-.06-.05.57.57 0 0 1-.06-.26v-4.88ZM27.37 26.75l.01 4.87c0 .1-.02.18-.06.26a.1.1 0 0 1-.06.06.1.1 0 0 1-.08-.02.37.37 0 0 1-.11-.15 13.5 13.5 0 0 0-1.73-3c-.82-1.05-1.81-2-2.83-2.86-.62-.53-1.4-1.33-1.08-2.27.12-.34.3-.67.57-.98.82-.97 1.5-1.8 2.06-2.5.02-.02.03-.02.03.02-.08.83.4 1.13.9 1.66.65.69 1.2 1.43 1.64 2.22.32.58.61 1.25.7 1.91.03.26.05.52.04.78ZM35.71 24.77l2.43 2.99c.33.41.55.73.65.94.31.67.35 1.46.12 2.17a3.11 3.11 0 0 1-2.52 2.07 8.2 8.2 0 0 1-1.13.06h-4.9c-.6 0-.43-.57-.29-.96a11.64 11.64 0 0 1 4.53-5.62c.11-.08.26-.21.45-.4.4-.4.56-.89.46-1.47 0-.02 0-.02.02 0l.18.22ZM20.25 24.77a5.67 5.67 0 0 1 .2-.22c-.1.58.06 1.07.46 1.47.2.19.34.32.45.4a11.65 11.65 0 0 1 4.53 5.62c.14.4.32.95-.28.96h-4.9a8.2 8.2 0 0 1-1.13-.06 3.11 3.11 0 0 1-2.52-2.07c-.24-.71-.2-1.5.11-2.16.1-.22.32-.53.66-.95l2.42-3Z" fill="#8CC63E"/><path fill-rule="evenodd" d="M46 40V34l-.02-.01H10.02a.02.02 0 0 0-.02.02v5.96a.02.02 0 0 0 .02.02h35.97Zm-18.41-1.77a2.75 2.75 0 0 1-1.28-.22v.01l-.1.79c0 .02.01.03.03.04 1.01.24 2.85.34 3.04-.92.08-.48-.1-.92-.57-1.13-.26-.12-.6-.23-1.02-.35-.5-.14-.52-.62.03-.7a2.43 2.43 0 0 1 1.28.15v-.02l.09-.72c0-.02 0-.03-.03-.03-.87-.2-2.62-.3-2.87.8-.1.45.04.84.47 1.1.24.14.54.24.8.33l.3.1a.9.9 0 0 1 .3.17c.28.33-.13.58-.47.6Zm6.45-.2.06.8v.01l-.02.01c-.23.06-.5.1-.8.13-1.64.15-2.97-.57-2.84-2.2.14-1.7 2.13-2.06 3.62-1.59l.02.02v.02l-.07.72v.01l-.02.01h-.03a2.14 2.14 0 0 0-1.18-.22c-.78.08-1.2.56-1.2 1.23 0 .38.13.7.45.96.54.42 1.37.32 1.98.08.02 0 .03 0 .03.02ZM24.99 35a351.15 351.15 0 0 0-2.99.01v.75c0 .02 0 .03.03.03h.93c.01 0 .04 0 .04.02v3.17h-.01L23 39c.32.01.68.02 1 .01v-3.19l.04-.02h.93c.02 0 .03-.01.03-.03v-.75h-.01Z" fill="#ED1B24"/></svg>