<!-- by TradingView --><svg width="56" height="56" viewBox="0 0 56 56" xmlns="http://www.w3.org/2000/svg"><path fill="#F0F3FA" d="M0 0h56v56H0z"/><path d="M5.06 22.95c-.5 2.09 2.16 4.08 3.55 4.8-1.89-2-2.17-4.1-1.89-4.8 2.18-5.48 20.18-2.25 27.3 0a41.96 41.96 0 0 0-12.38-3.55c-12.08-1.35-15.95.93-16.58 3.55Z" fill="#ED1B24"/><path d="M50.95 32.57c.5-2.1-2.62-4.08-4.02-4.81 2.86 2.89 2.19 4.24 1.7 4.8-4.56 5.33-26.5 3.3-35.13-2.59 5.12 4.7 14.92 6.4 16.98 6.6 15.99 1.54 19.83-1.38 20.47-4Z" fill="#00A652"/><path d="M14.5 21.47 14 22l8.92 2.47 1.08-.73v-2.26h-9.5Z" fill="#5FC28D"/><path d="M23 22h-9v2.46h3V33h3.3v-8.54H23V22Z" fill="#00A652"/><path d="M20 23.87h1V33h-1v-9.13Z" fill="url(#a)"/><path d="m32.63 21.47-.68.74 9.2 2.25.85-.73v-2.26h-9.37Z" fill="url(#b)"/><path d="M41.15 22h-9.3v2.46H35V33h3.45v-8.54h2.7V22Z" fill="#2E3192"/><path d="M38.42 23.87H39v8.4l-.58.72v-9.12Z" fill="url(#c)"/><path d="M27.2 21.63h5.45v2.43H28.5c-1.36.16-.58 1 0 1.24 1.72.7 4.76 1.9 4.76 4 0 2.38-2.24 3.04-3.39 3.07H22V30h5.62c.87 0 1.77-.06 1.74-.7-.05-.79-1.7-1.53-3.48-2.37-1.43-.67-1.85-1.86-1.88-2.38.14-2.37 2.2-2.93 3.2-2.92Z" fill="#FAAA8A"/><path d="M26.45 22H32v2.48h-4.27c-1.36.16-.58 1.03 0 1.27 1.72.73 4.76 1.95 4.76 4.1 0 2.44-2.24 3.11-3.39 3.15H21v-2.54h5.86c.87 0 1.78.04 1.74-.6-.05-.82-1.7-1.58-3.48-2.44A3.16 3.16 0 0 1 23.24 25c.15-2.43 2.2-3 3.2-3Z" fill="#ED1B24"/><defs><linearGradient id="a" x1="20.61" y1="23.87" x2="20.61" y2="32.73" gradientUnits="userSpaceOnUse"><stop stop-color="#00A652"/><stop offset=".51" stop-color="#FDFFFE"/><stop offset="1" stop-color="#00A652"/></linearGradient><linearGradient id="b" x1="32.96" y1="22.18" x2="41.99" y2="24.19" gradientUnits="userSpaceOnUse"><stop offset=".33" stop-color="#2E3192"/><stop offset=".51" stop-color="#B1B1CB"/><stop offset=".79" stop-color="#2E3192"/></linearGradient><linearGradient id="c" x1="38.75" y1="23.87" x2="38.75" y2="32.73" gradientUnits="userSpaceOnUse"><stop offset=".27" stop-color="#2E3192"/><stop offset=".51" stop-color="#F9F9FE"/><stop offset=".74" stop-color="#2E3192"/></linearGradient></defs></svg>