<!-- by TradingView --><svg width="56" height="56" viewBox="0 0 56 56" xmlns="http://www.w3.org/2000/svg"><path fill="#F0F3FA" d="M0 0h56v56H0z"/><path d="M48.3 23h3.68l.02.03v1.56l-.02.01h-2.2v.02l1.55 1.52v.02a.03.03 0 0 1 0 .02l-1 1.1h-.03l-1.56-1.7h-.01V28h-1.45l-.01-.02a1581.12 1581.12 0 0 1-.02-2.4 1292.23 1292.23 0 0 1-1.58 1.69l-1-1.1v-.02l1.55-1.53v-.01h-2.2c-.01 0-.02-.01-.02-.03v-1.56l.02-.02h2.2v-.01l-1.55-1.86a.02.02 0 0 1 0-.02l1-1.1h.03c.86.93 1.71 2.03 2.56 2.96l.05.03Z" fill="#4C8D22"/><path d="m28.41 28.93.01.01h.01c.06-.08.16-.2.3-.33a2.38 2.38 0 0 1 1.88-.8c.23.03.42.07.58.15.56.27.8.85.8 1.45l.01 3.56c0 .02 0 .03-.03.03h-1.36a.02.02 0 0 1-.02-.02V29.7c0-.35-.1-.7-.46-.85-.35-.15-.8-.02-1.1.2-.23.15-.43.34-.6.56a.09.09 0 0 0-.02.05V33H27.02a.02.02 0 0 1-.02-.01v-7.23c0-.23.1-.28.3-.35l1.08-.4h.01a.02.02 0 0 1 .02.01v3.92ZM41 28.86v.01h.02c.06-.08.15-.2.29-.33.5-.52 1.01-.87 1.73-.8.22.01.4.06.56.14.55.28.78.86.78 1.47v3.62c0 .02 0 .03-.02.03h-1.34l-.02-.02v-3.33c0-.36-.08-.72-.42-.87-.35-.14-.68-.02-.98.2-.22.16-.42.35-.58.58a.1.1 0 0 0-.02.05v3.37a.02.02 0 0 1-.02.02h-1.34V25.62c0-.23.08-.28.28-.35a2182.93 2182.93 0 0 1 1.08-.4v3.98ZM10.52 27.1c-.28.1-.57.2-.88.33l-.01-.01v-1.09c-.01-.14.05-.23.16-.28l.31-.12a48.4 48.4 0 0 0 .9-.32v1.09c0 .13-.06.23-.17.28l-.31.11ZM32.85 25.94a50.04 50.04 0 0 0 .9-.32v1.08c0 .14-.06.23-.18.28l-.3.11a53.09 53.09 0 0 0-.9.32v-1.08c0-.14.06-.23.17-.28l.3-.11ZM8.02 27.6l1-.34a.02.02 0 0 1 .02.01v.4a.04.04 0 0 1-.03.04l-1 .34v.01H8v3.7c0 .44.34.75.78.8l.01.01V33l-.8.01c-.16 0-.29-.01-.4-.03-.53-.1-.84-.47-.93-1-.02-.08-.03-.2-.03-.37a6527.9 6527.9 0 0 1-.02-3.02l-.6.27v-.01H6v-.44l.01-.01.6-.27h.02v-1.34c0-.1.01-.17.04-.21.05-.1.13-.12.25-.17A279.66 279.66 0 0 1 8 26v1.58l.01.01h.01ZM25.4 27.52l.88-.34h.01l.01.01v.44l-.02.02-.9.34a.01.01 0 0 0 0 .01v3.75c0 .44.22.76.67.81h.01V33l-.7.01a2.2 2.2 0 0 1-.4-.03c-.53-.1-.84-.48-.93-1-.02-.1-.03-.22-.03-.39v-3.05h-.02l-.7.26h-.01v-.44a.02.02 0 0 1 .01-.02l.71-.27.01-.01V26.7c0-.1.02-.17.04-.21.05-.1.13-.12.25-.17a336.52 336.52 0 0 1 1.08-.4v1.6h.02ZM18.02 28.85c.52-.66 1.08-1.18 1.94-1.14.75.04 1.26.52 1.37 1.29.02.1.03.29.03.53a10271.98 10271.98 0 0 1-.03 3.47H20v-3.4c0-.16-.04-.32-.1-.47-.22-.59-.85-.48-1.25-.2a2.46 2.46 0 0 0-.65.66v3.4l-.02.01h-1.35V28.42c0-.22.1-.27.28-.34a747.52 747.52 0 0 1 1.09-.4v1.15c0 .02 0 .02.02 0ZM35.43 28.85c.55-.66 1.24-1.18 2.13-1.14.77.04 1.3.52 1.41 1.29.02.1.03.29.03.53v3.44c0 .02 0 .03-.03.03h-1.36a.02.02 0 0 1-.02-.02V29.6c0-.16-.03-.32-.09-.47-.23-.59-1-.48-1.42-.2a2.5 2.5 0 0 0-.66.66v3.39l-.01.01-.02.01h-1.37a.02.02 0 0 1-.01 0v-.01H34v-4.56c0-.22.1-.27.3-.34a780.92 780.92 0 0 1 1.12-.4v1.15c0 .02 0 .02.01 0ZM9.82 28.12a69.65 69.65 0 0 1 1.17-.4V33l-.02.01H9.64l-.01-.02v-4.6c0-.13.06-.21.19-.26ZM12.98 30.97c.2.77.74 1.43 1.57 1.4.42-.03.83-.23 1.14-.52a.03.03 0 0 1 .05 0l.22.2a.04.04 0 0 1 0 .04 2.54 2.54 0 0 1-2.58.84 2.48 2.48 0 0 1-1.85-1.7c-.1-.3-.13-.63-.12-1 .06-1.8 1.69-2.87 3.33-2.48.6.15 1.15.56 1.15 1.25 0 .84-.73 1.24-1.4 1.5a13.06 13.06 0 0 1-1.51.47Zm.79-2.8c-.6.14-.86.88-.9 1.43-.03.3-.02.6.01.88 0 .02.01.02.03.02.75-.25 1.69-.71 1.69-1.65 0-.52-.34-.79-.83-.68ZM33.72 27.71h.02V33l-.02.01h-1.34V28.37c0-.13.06-.21.18-.26l1.16-.4Z" fill="#153827"/></svg>