<!-- by TradingView --><svg width="56" height="56" viewBox="0 0 56 56" xmlns="http://www.w3.org/2000/svg"><path fill="#F0F3FA" d="M0 0h56v56H0z"/><path d="m17.8 16.84-3.69-.87c-.06-.01-.1-.05-.1-.12v-.08c0-.04.02-.06.05-.07l4.15-.88a.46.46 0 0 0 .19-.09c.05-.04.1-.1.12-.16l.99-2.2c.23-.52.37-.5.42.07.05.45.21 1.18.5 2.2.05.13.13.2.27.24l3.24.76c.1.02.16.09.15.2 0 .04-.02.08-.05.11-.06.07-2.89.64-3.9.89a.43.43 0 0 0-.26.18c-.46.71-.86 1.46-1.2 2.25-.24.54-.39.52-.45-.07l-.25-2.16a.22.22 0 0 0-.18-.2Z" fill="#F1B123"/><path d="m20.92 23.6 1.01-5.32a.34.34 0 0 1 .13-.2.4.4 0 0 1 .23-.08h22.34l.16.03c.05.02.09.05.12.1.04.03.06.08.08.12v.15l-1 5.32a.34.34 0 0 1-.13.2.4.4 0 0 1-.24.08H21.3a.4.4 0 0 1-.29-.12.32.32 0 0 1-.08-.28Z" fill="#109547"/><path d="M19.28 31.85a.72.72 0 0 0-.72-.85h-7.21a.35.35 0 0 1-.27-.12.35.35 0 0 1-.07-.29l.98-5.38a.25.25 0 0 1 .25-.21H34.7a.41.41 0 0 1 .4.48l-.98 5.3a.25.25 0 0 1-.25.22h-7.52a.95.95 0 0 0-.94.78l-1.7 9.91a.37.37 0 0 1-.13.22.38.38 0 0 1-.24.09H18a.4.4 0 0 1-.4-.46l1.68-9.69Z" fill="#F1B123"/><path d="M27.22 33h6.14c.05 0 .1.01.14.03l.11.08a.3.3 0 0 1 .07.26l-1.18 6.37a.31.31 0 0 1-.12.19.35.35 0 0 1-.21.07h-6.14a.36.36 0 0 1-.26-.11.3.3 0 0 1-.07-.26l1.2-6.37a.31.31 0 0 1 .1-.19.35.35 0 0 1 .22-.07Z" fill="#109547"/></svg>