<!-- by TradingView --><svg width="56" height="56" viewBox="0 0 56 56" xmlns="http://www.w3.org/2000/svg"><path fill="#B4CEE5" d="M0 0h56v56H0z"/><path fill-rule="evenodd" d="M28 43.84a15.84 15.84 0 1 0 0-31.68 15.84 15.84 0 0 0 0 31.68ZM28 45a17 17 0 1 0 0-34 17 17 0 0 0 0 34Z" fill="#2A3B7D"/><path d="M19 23.95c3.73-.9 6.54-3.6 7.3-4.95h.81l-1.5 4.52H28V25h-2.87c-1.18 4.27-2.9 10.6-2.26 10.97.52.3 1.72-1.33 2.26-2.19l.75.54c-.54 1.24-2.26 3.72-4.83 3.68-2.58-.04-2.58-2.26-2.26-3.36L21.53 25H19v-1.05ZM29 22.95c3.73-.9 6.25-3.6 7.02-4.95h.8l-1.5 4.52H38V24h-3.16c-1.18 4.27-2.9 10.6-2.25 10.97.51.3 1.71-1.33 2.25-2.19l.75.54c-.54 1.24-2.25 3.72-4.83 3.68-2.57-.04-2.57-2.26-2.25-3.36L31.24 24H29v-1.05Z" fill="#2A3B7D"/></svg>