<!-- by TradingView --><svg width="56" height="56" viewBox="0 0 56 56" xmlns="http://www.w3.org/2000/svg"><path fill="#F0F3FA" d="M0 0h56v56H0z"/><path d="M45.99 27.4a17.89 17.89 0 0 1-6.63 14.56A18.01 18.01 0 0 1 10.02 27.3a17.99 17.99 0 0 1 35.97.1Z" fill="#F8DFA7"/><path d="M41.8 27.96a13.72 13.72 0 0 1-8.52 12.71 13.83 13.83 0 0 1-15.03-2.98A13.74 13.74 0 0 1 28 14.2a13.83 13.83 0 0 1 12.75 8.5c.7 1.66 1.05 3.45 1.05 5.26Z" fill="#00913E"/><path d="m28.08 20.84.03-.01a8.48 8.48 0 0 1 5-1.87c2.47 0 4.22 1.59 5.04 3.8.9 2.47.78 4.88-.36 7.24a14.63 14.63 0 0 1-3.8 4.66 22.9 22.9 0 0 1-5.9 3.58h-.06a22.9 22.9 0 0 1-5.85-3.58 14.63 14.63 0 0 1-3.8-4.66 8.93 8.93 0 0 1-.36-7.23c.81-2.22 2.57-3.8 5.04-3.81a8.47 8.47 0 0 1 5.02 1.88Z" fill="#F8DFA7"/><path d="m28.08 21.05.05-.01a8.64 8.64 0 0 1 4.25-1.87c2-.22 3.59.46 4.75 2.05.54.74.95 1.71 1.18 2.64a8.74 8.74 0 0 1-.79 6.26 14.8 14.8 0 0 1-3.82 4.54A23.28 23.28 0 0 1 28.24 38a.38.38 0 0 1-.16.03.38.38 0 0 1-.15-.03 23.27 23.27 0 0 1-5.46-3.35 14.8 14.8 0 0 1-3.83-4.53 8.74 8.74 0 0 1 .38-8.9 4.85 4.85 0 0 1 4.76-2.06 8.64 8.64 0 0 1 4.3 1.88Z" fill="#DA251E"/><path d="M28.12 21.82h.05a6.18 6.18 0 0 1 4.29-1.08 5.24 5.24 0 0 1 4.61 3.98c.22.96.2 1.91-.06 2.86a7.97 7.97 0 0 1-1.18 2.55 11.58 11.58 0 0 1-3.08 2.9c-.57.37-1.17.73-1.82 1.07-.96.5-1.88.92-2.75 1.28-.13.05-.2 0-.3-.05a22.7 22.7 0 0 1-5.51-3.07c-2.01-1.6-3.5-3.88-3.42-6.4a5.26 5.26 0 0 1 4.97-5.15 6.28 6.28 0 0 1 4.2 1.1Z" fill="#F8DFA7"/><path d="M31.8 33.4a1.6 1.6 0 0 1-.28.18 1.9 1.9 0 0 0-.29.16c-.17.13-.49.25-.7.37a7.87 7.87 0 0 1-1.2.59l-1.15.52a.2.2 0 0 1-.15 0 25.33 25.33 0 0 1-5.28-2.86 10.9 10.9 0 0 1-1.33-1.23l-.41-.44a2.22 2.22 0 0 1-.36-.4c-.19-.27-.38-.56-.56-.87-.1-.17-.2-.36-.3-.6l-.26-.6c-.11-.23-.17-.5-.2-.79l-.01-.07a.54.54 0 0 1-.1-.23c0-.05 0-.1-.03-.13a7.18 7.18 0 0 1-.04-1.66 4.7 4.7 0 0 1 1.9-3.35 5.99 5.99 0 0 1 7.08.02 6.6 6.6 0 0 1 4.32-1.08c.14.04.24.01.4.05.7.15 1.22.32 1.56.5a4.9 4.9 0 0 1 2.46 3.13 5.67 5.67 0 0 1 .02 2.65c-.05.22-.08.38-.14.58-.12.35-.24.68-.38 1-.12.26-.25.5-.38.7l-.45.66a9.66 9.66 0 0 1-.78.93c-.18.16-.31.35-.49.5l-.26.2a7.66 7.66 0 0 1-1.32 1.02 35 35 0 0 1-.89.55Z" fill="#FEF404"/><path d="M30.97 21.46c.02-.02.06-.03.11-.02.02 0 .04 0 .07-.02h.04a7.6 7.6 0 0 1 1.49.03c.51.1.9.2 1.18.31.1.04.27.13.51.27.63.34 1.11.8 1.46 1.4.28.47.47 1 .56 1.58l.07.7v.5c-.03.25-.04.42-.03.5.03.2-.06.4-.1.64-.06.33-.2.68-.28.93-.01.04-.04.06-.05.11-.06.19-.13.36-.24.53-.1.18-.15.36-.25.56a.2.2 0 0 1-.04.06 14.77 14.77 0 0 1-2.98 2.97c-.26.16-.47.32-.72.47-1.03.6-2.17 1.18-3.42 1.71-.15.07-.23.12-.39.07l-.43-.15c-.4-.2-.82-.39-1.24-.57a41.95 41.95 0 0 1-2.6-1.48 71.84 71.84 0 0 0-.64-.45c-.1-.03-.13-.09-.18-.13a12.25 12.25 0 0 1-2.16-2.4 8.25 8.25 0 0 1-.48-.97c0-.03-.02-.06-.06-.1a.12.12 0 0 1-.03-.05 1.9 1.9 0 0 0-.1-.3 1.7 1.7 0 0 1-.1-.3c-.08-.35-.15-.7-.21-1.06-.1-.61-.1-1.17.01-1.67l.15-.66c.08-.34.24-.7.49-1.1A4.36 4.36 0 0 1 23 21.59c.86-.21 1.7-.23 2.53-.05.32.07.71.14 1.05.27.52.2 1 .45 1.44.75.1.07.16.06.26-.02a5.8 5.8 0 0 1 1.57-.77 9.42 9.42 0 0 1 1.12-.3Z" fill="#F8DFA7"/><path d="M28.14 22.8a6.33 6.33 0 0 1 2.35-1.08c.37-.1.73-.14 1.08-.13l.73.02c.8.01 1.55.29 2.25.7.31.17.64.55.83.8.36.44.6.94.76 1.48a6.28 6.28 0 0 1-1.06 5.15c-.24.38-.51.72-.82 1.04a13 13 0 0 1-2.95 2.26 32.06 32.06 0 0 1-3.12 1.5.35.35 0 0 1-.29-.02 16.8 16.8 0 0 0-.54-.23 28.83 28.83 0 0 1-2.93-1.5c-.44-.26-1-.65-1.68-1.19-.13-.1-.21-.21-.34-.3-.05-.03-.1-.08-.16-.15-.08-.08-.18-.13-.21-.2l-.23-.26A7.43 7.43 0 0 1 20.22 28l-.18-.6c-.15-.7-.2-1.37-.15-2.02 0-.17.03-.32.07-.44.05-.18.06-.36.13-.57a4.08 4.08 0 0 1 2.95-2.64c.6-.18 1.2-.13 1.92-.11.4 0 .74.06 1.03.14.24.07.57.2.98.38a4.8 4.8 0 0 1 1.15.68l.02-.01Z" fill="#fff"/><path d="m31.68 23.11.08-.04c.54-.28 1.1-.36 1.67-.24.39.08.7.3.91.65.26.4.36.81.3 1.21a2.5 2.5 0 0 1-.28.92 4.72 4.72 0 0 1-2.2 1.8c-.2.07-.35.14-.47.2a.2.2 0 0 1-.14 0c-1.25-.37-2.56-1.27-2.95-2.58a2.97 2.97 0 0 1 0-1.04c.15-.66.57-1.05 1.28-1.18.4-.07 1.01-.04 1.38.21.08.05.17.1.27.13.06.02.11 0 .15-.04Z" fill="#F8DFA7"/><path d="m31.58 23.4.05-.03c.67-.48 1.66-.6 2.3-.08.76.62.58 1.8.05 2.53a5.42 5.42 0 0 1-2.4 1.62l-.11-.03a5.42 5.42 0 0 1-2.29-1.59c-.53-.72-.72-1.9.03-2.52.65-.53 1.64-.4 2.31.07l.06.03Z" fill="#DA251E"/><path fill-rule="evenodd" d="M27.79 42.9c8.4 0 15.2-6.7 15.2-14.96 0-8.26-6.8-14.96-15.2-14.96-8.4 0-15.21 6.7-15.21 14.96 0 8.26 6.8 14.95 15.2 14.95Zm0 1.51c9.25 0 16.75-7.37 16.75-16.47 0-9.1-7.5-16.48-16.75-16.48-9.26 0-16.76 7.38-16.76 16.48 0 9.1 7.5 16.47 16.76 16.47Z" fill="#DA251E"/><path d="M11.03 27.67v.27c0 9.1 7.5 16.47 16.76 16.47 9.25 0 16.75-7.37 16.75-16.47v-.27H43v.27c0 8.26-6.8 14.95-15.2 14.95a15.08 15.08 0 0 1-15.2-15.22h-1.56Z" fill="#24126A"/></svg>