<!-- by TradingView --><svg width="56" height="56" viewBox="0 0 56 56" xmlns="http://www.w3.org/2000/svg"><path fill="#F0F3FA" d="M0 0h56v56H0z"/><path fill-rule="evenodd" d="M20.43 19.67a.25.25 0 0 1-.28.05.26.26 0 0 1-.11-.1.28.28 0 0 1-.04-.15v-5.35c0-.22.1-.44.22-.63.1-.19.26-.34.44-.45 1.56-.9 3.62-2.1 6.17-3.6 3.12-1.84 3.5 2.63 2.97 4.41-.06.2-.26.38-.6.57a343.55 343.55 0 0 0-7.85 4.48c-.24.15-.55.4-.92.77Zm10.21-8.9a.28.28 0 0 1 .1-.28.26.26 0 0 1 .29-.02l4.35 2.62c.19.1.34.26.45.44.11.2.17.4.17.63v7.39c.04 3.73-3.55 1.95-4.81.6-.13-.14-.2-.42-.19-.82v-9.35c0-.16-.08-.37-.17-.62a6.73 6.73 0 0 1-.19-.58Zm-19.21 24.5c.05-.01.1-.04.13-.08.36-.38.65-.64.9-.79 2.54-1.59 5.11-3.15 7.7-4.67.33-.2.52-.4.58-.58.48-1.78-.05-6.15-3.1-4.24l-6.07 3.76a1.2 1.2 0 0 0-.57 1.07v5.27c0 .03.05.06.1.1l.06.05c.03.04.07.08.12.1.05.01.1.02.15 0ZM44 37.22c-.1 3.66-5.05 1.85-5-.37V26.23c0-.14 0-.17.1-.1l4.3 2.55c.18.1.32.24.41.42.1.17.19.37.19.57v7.55ZM32.75 24.25c1.47.88 1.83.8 2.88.53.17-.05.36-.1.57-.14a.58.58 0 0 1 .42.06c1.43.8 1.4 1.88 1.38 3.37v.38c-.01.73-.2 1.17-.87 1.55-1.47.83-2.85 1.64-4.23 2.45-1.43.84-2.86 1.68-4.38 2.54-.92.52-1.46 1.21-1.62 2.08a9.9 9.9 0 0 1-.28 1.34c-.97 1.82-2.94.45-4.05-.32l-.19-.13a.89.89 0 0 1-.38-.7V25.4c0-.97-.41-1.3-.97-1.75-.21-.18-.45-.37-.7-.62-1.4-1.5.15-2.65 1.4-3.56l.36-.27c.61-.46 1.23-.51 1.85-.16 1.4.78 4.34 2.52 8.81 5.2ZM28 27.7c.3.15.58.33.84.53a.24.24 0 0 1 .04.32.22.22 0 0 1-.09.07c-.58.26-1.1.58-1.56.98h-.09l-.07-.01a.19.19 0 0 1-.06-.06l-.05-.07c.04-.62 0-1.24-.15-1.88a.23.23 0 0 1 .16-.26h.12c.31.1.61.22.91.38Zm-4.12 11.99c.05.01.1.04.12.08a.27.27 0 0 1-.06.4l-4.42 2.62a1.14 1.14 0 0 1-1.18 0l-6.08-3.66c-3.07-1.83.38-4.4 2.12-4.8.18-.05.43.03.76.24 2.53 1.6 5.08 3.16 7.64 4.7.24.13.6.28 1.1.42Zm17.32.1a.26.26 0 0 0-.13-.09c-.49-.14-.86-.29-1.1-.43a380.23 380.23 0 0 1-7.72-4.74c-.33-.2-.58-.29-.77-.25-1.75.42-5.24 3.01-2.14 4.86l6.14 3.69a1.16 1.16 0 0 0 1.2 0l4.45-2.64a.27.27 0 0 0 .07-.4Z" fill="#177894"/></svg>