<!-- by TradingView --><svg width="56" height="56" viewBox="0 0 56 56" xmlns="http://www.w3.org/2000/svg"><path fill="#F0F3FA" d="M0 0h56v56H0z"/><path d="M50 19v13H6V19h44Z" fill="#ED1C24"/><path d="m10.83 29 .78-.01c.02 0 .04-.01.05-.03a.1.1 0 0 0 .02-.06v-5.42c0-.1.05-.16.15-.16h.6c.14 0 .21-.08.21-.24v-.84c0-.16-.07-.25-.22-.24h-3.2c-.15 0-.22.08-.22.25v.83c0 .17.08.25.22.25h.6c.09 0 .18.05.18.15V28.97l.06.02h.77Zm3.9-6.87a.12.12 0 0 0-.03-.08.1.1 0 0 0-.03-.02l-.04-.03H13.1l-.04.02a.1.1 0 0 0-.03.03l-.02.04v.04L13 28.88v.04l.03.04.03.02.04.01h1.52a.1.1 0 0 0 .04 0 .1.1 0 0 0 .03-.03l.02-.03v-.05l.02-6.75Zm2.42 2.53a.11.11 0 0 1-.08-.04c-.02-.02-.07-.06-.07-.1v-1.06c0-.04.05-.07.07-.1a.11.11 0 0 1 .08-.04h1.2c.04 0 .07-.01.1-.04a.14.14 0 0 0 .03-.1v-1.03a.15.15 0 0 0-.04-.1.12.12 0 0 0-.04-.03l-.04-.02h-2.92l-.04.02a.12.12 0 0 0-.04.03.15.15 0 0 0-.03.1v6.71c0 .04 0 .07.03.1.02.02.05.04.08.04h2.95c.03 0 .06-.02.08-.05a.14.14 0 0 0 .04-.09v-1.03a.14.14 0 0 0-.04-.1.11.11 0 0 0-.08-.04h-1.23a.11.11 0 0 1-.09-.03c-.02-.03-.07-.06-.07-.1v-1.43c0-.05.1-.13.16-.13h.98c.03 0 .06-.01.08-.04a.14.14 0 0 0 .04-.1V24.8a.14.14 0 0 0-.04-.09.11.11 0 0 0-.08-.04h-.99Zm4.1-.08-.74-2.41a.23.23 0 0 0-.08-.12c-.03-.02-.07-.05-.11-.05h-1.15c-.1 0-.17.07-.17.2v6.62c0 .12.06.18.17.18h1.28c.04 0 .07-.02.1-.05a.17.17 0 0 0 .04-.11v-2.87c0-.27.04-.28.13-.02l.79 2.9c.01.05.04.08.07.1.03.03.07.05.1.05h1.19c.1 0 .13-.06.13-.17v-6.71c0-.07-.02-.12-.08-.12h-1.45c-.06 0-.1.05-.1.13l.04 2.37c.02.8.07.82-.16.08ZM28.6 29c.02 0 .04-.04.06-.06a.1.1 0 0 0 .02-.06v-5.4c0-.1.04-.16.14-.16h.59c.14 0 .22-.08.22-.25v-.83c0-.16-.08-.24-.23-.24h-3.18c-.15 0-.23.09-.23.26v.82c0 .17.08.25.23.25h.6c.08 0 .17.05.17.15v5.4l.01.07c.02.01.04.05.06.05h1.54Zm5.39-.52v-6.36c0-.07-.04-.12-.1-.12h-1.55c-.06 0-.1.05-.1.12v2.59c0 .1-.04.14-.12.14h-.3a.11.11 0 0 1-.08-.04.14.14 0 0 1-.03-.09v-2.55c0-.1-.05-.17-.14-.17h-1.45c-.04 0-.07.03-.1.06-.02.03-.03.07-.03.11v6.73c0 .06.02.1.07.1h1.55c.03 0 .05-.02.07-.04a.11.11 0 0 0 .02-.07v-2.61c0-.1.05-.14.13-.14h.31c.07 0 .1.04.1.12v2.51c0 .15.07.23.2.23h3.02c.06 0 .12-.04.16-.09a.28.28 0 0 0 .07-.18v-.8c0-.14.07-.22.2-.22h.9c.14 0 .2.08.2.22v.89c0 .11.05.18.15.18h3.34c.08 0 .13-.06.13-.15v-2.9c0-.17.05-.12.17.17.22.57.32 1.46.67 2.64.02.07.06.13.1.17.06.04.12.07.19.07h1.12c.03 0 .06-.02.09-.05a.16.16 0 0 0 .04-.1v-6.73a.1.1 0 0 0-.03-.07c-.02-.02-.04-.05-.07-.05H41.5c-.07 0-.1.05-.1.13v2.78c0 .32-.05.33-.15.03l-.72-2.78a.23.23 0 0 0-.07-.1c-.04-.03-.08-.06-.12-.06h-1.19c-.1 0-.14.07-.14.19v6.28c0 .08-.1.15-.13.03l-1.36-6.33c-.01-.1-.06-.17-.16-.17h-2.21c-.1 0-.15.07-.17.17-.3 1.89-.74 4.53-.97 6.31Zm9.3-2.98-.01 3.33c0 .1.04.17.14.17h1.44c.03 0 .07-.02.1-.05a.15.15 0 0 0 .03-.1v-2.5c0-.1.13-.18.13-.18.21-.06.15 0 .15 0 .08.02.12.08.12.18v2.5c0 .03.02.07.05.1.02.03.05.05.09.05h1.32c.1 0 .14-.06.14-.17v-6.66c0-.1-.04-.17-.14-.17h-1.32c-.04 0-.07.03-.1.06a.16.16 0 0 0-.04.1v2.5c0 .1-.04.16-.12.18 0 0 .07.05-.15 0 0 0-.13-.08-.13-.18v-2.5a.15.15 0 0 0-.04-.1c-.02-.03-.06-.06-.1-.06h-1.43c-.1 0-.14.07-.14.17l.01 3.33Z" fill="#F0F3FA"/><path d="M36.3 23.99c.1 0 .24.8.4 2.42.02.09-.02.15-.1.17a.8.8 0 0 1-.48.01c-.09-.02-.13-.08-.12-.17.1-1.62.2-2.43.3-2.43ZM50 33v4H6v-4h44ZM8.64 35.1v.69c-.01.12.02.23.08.33s.15.16.25.18c.3.08.52.04.66-.11.17-.2.22-.37.16-.54-.1-.28-.24-.32-.4-.1l-.13.2c-.15.2-.2.16-.18-.1.03-.26.04-.44.04-.55l-.04-.55c-.03-.26.03-.29.17-.09l.14.18c.16.23.3.2.4-.1.05-.17 0-.34-.16-.53-.14-.16-.36-.2-.67-.11-.1.02-.18.09-.24.18-.06.1-.1.22-.09.33l.01.69Zm7.24-.69a.64.64 0 0 0-.03-.2.56.56 0 0 0-.1-.18.45.45 0 0 0-.15-.12.39.39 0 0 0-.17-.04h-.27a.42.42 0 0 0-.32.17.6.6 0 0 0-.13.38v1.38c0 .07.01.14.04.2.02.07.05.13.1.18.04.05.09.1.14.12.06.03.12.04.18.04h.26c.12 0 .24-.06.32-.16a.6.6 0 0 0 .13-.39v-1.38Zm5.55.57c.04.15.06.5.04 1.02 0 .04 0 .08.02.12a.3.3 0 0 0 .05.1l.08.06a.2.2 0 0 0 .1.02h.09c.15 0 .22-.08.22-.26 0-.22.04-.46.12-.7.09-.23.13-.22.13.04v.69c0 .15.06.23.19.23h.11c.03 0 .07-.02.09-.05a.17.17 0 0 0 .04-.1V34.2c0-.2-.09-.31-.26-.31h-.25a.24.24 0 0 0-.18.09.34.34 0 0 0-.08.2l-.03.94c0 .2-.04.2-.1.01a4.5 4.5 0 0 1-.26-1.1.15.15 0 0 0-.04-.1.1.1 0 0 0-.08-.03h-.46c-.08 0-.12.05-.12.15v2.06c0 .13.05.2.16.2h.07c.09 0 .14-.06.15-.17l.14-1.16c.01-.08.03-.08.06 0Zm6.74.98c-.05-.2.02-.32.24-.34.38-.04.52-.47.42-1.3-.03-.28-.16-.41-.38-.41h-.53c-.15 0-.22.09-.22.27v1.92c0 .14.05.2.17.2h.1c.08 0 .14-.04.17-.13.04-.1.05-.17.03-.21Zm6.15-.26c.1 0 .16.13.22.39.02.1.04.16.07.19.1.08.19.09.27.02.07-.07.1-.15.08-.26l-.27-1.93c-.01-.11-.07-.18-.17-.2a1.4 1.4 0 0 0-.4 0c-.1.02-.16.08-.17.2l-.28 1.93c-.02.1.01.2.08.26.08.07.17.06.27-.03.03-.02.05-.08.08-.18.05-.26.12-.39.22-.39Zm6.08-.44c.1.3.16.57.18.83.01.14.08.2.2.2h.3c.12 0 .18-.06.18-.2v-2.06c0-.1-.04-.16-.13-.16h-.08c-.05 0-.1.02-.13.06a.25.25 0 0 0-.07.14l-.12 1.22-.07-.03c-.03-.02-.04-.04-.04-.08.03-.38 0-.75-.09-1.12-.02-.11-.08-.16-.18-.16h-.3c-.12 0-.17.06-.17.2v1.94c0 .17.07.26.21.26h.07c.02 0 .04 0 .05-.02.02 0 .04-.02.05-.03a.17.17 0 0 0 .03-.06.2.2 0 0 0 .01-.06v-.85c0-.2.03-.2.1-.02Zm6.37 1.05c.17 0 .26-.16.24-.48-.02-.64.2-1.2.37-1.78a.16.16 0 0 0-.02-.12.12.12 0 0 0-.03-.04.1.1 0 0 0-.06-.02h-.11c-.11 0-.18.07-.21.2-.1.43-.15.63-.19.61-.03.02-.1-.18-.18-.6-.03-.14-.1-.2-.22-.2h-.11a.1.1 0 0 0-.05.01.12.12 0 0 0-.04.04.16.16 0 0 0-.02.12c.17.59.4 1.14.38 1.78-.02.32.07.48.25.48Z" fill="#ED1C24"/><path d="M15.42 35.21v.52c-.02.09-.07.12-.15.11a.13.13 0 0 1-.11-.14 10.43 10.43 0 0 0 .03-1.07.13.13 0 0 1 .08-.05c.09-.01.14.03.15.12v.51ZM28.09 34.8c0 .19.07.34.17.34s.18-.15.18-.33c0-.18-.07-.33-.17-.33s-.18.14-.18.32ZM34.2 35.05c.05-.33.13-.34.26-.05.02.05 0 .12-.07.22-.05.08-.1.08-.14-.01-.04-.07-.05-.13-.04-.16Z" fill="#ED1C24"/></svg>