<!-- by TradingView --><svg width="56" height="56" viewBox="0 0 56 56" xmlns="http://www.w3.org/2000/svg"><path fill="#F0F3FA" d="M0 0h56v56H0z"/><path d="M26.2 9.13c7 2.16 12.06 7.64 13.2 14.8a.13.13 0 0 1-.1.14h-.12l-.06-.08a15.13 15.13 0 0 0-6.64-7.91 15.1 15.1 0 0 0-10.6-1.81c-.3.06-.35-.04-.17-.27l3.51-4.73c.3-.4.58-.27.97-.14Z" fill="#2D3194"/><path d="M9.31 23.15c4.3-5.91 11.15-8.92 18.36-7.73.03 0 .06.02.08.05.02.02.03.06.03.09 0 .05-.02.1-.04.11-.02.02-.05.03-.1.03a15.33 15.33 0 0 0-9.68 3.74 14.84 14.84 0 0 0-5.1 9.4c-.03.3-.14.32-.31.08l-3.41-4.8c-.3-.41-.07-.63.17-.97Z" fill="#2D3194"/><path d="M37.26 32.07v-.04c-.02-.03-.05-.03-.08-.03H30.8c-1.18 0-2.32-.1-2.78-1.27-.14-.35-.14-.9-.01-1.64.32-1.86.71-4.03 1.25-6.97.01-.08.06-.12.14-.12h2.08c.1 0 .13.05.12.14l-1.43 7.72a.13.13 0 0 0 .07.13l.06.01h8.24l.06.02a.13.13 0 0 1 .07.1v.05c-1.4 5.37-5.96 9-11.59 8.85a11.27 11.27 0 0 1-1.93-22.3 11.43 11.43 0 0 1 12.1 5.2.03.03 0 0 1-.02 0h-.74a10.73 10.73 0 0 0-12.33-4.22 10.62 10.62 0 0 0-7.12 12.1 10.71 10.71 0 0 0 14.66 7.73 11.09 11.09 0 0 0 5.48-5.22.66.66 0 0 0 .08-.24Z" fill="#F48221"/><path d="M45 20.8c.05 7.3-3.68 13.75-10.21 17a.13.13 0 0 1-.1.02.13.13 0 0 1-.07-.06.2.2 0 0 1-.03-.12c0-.03.02-.05.05-.08a15.1 15.1 0 0 0 4.1-19.26c-.15-.26-.08-.35.2-.25l5.63 1.88c.48.16.43.47.43.88Z" fill="#2D3194"/><path d="m25.23 24.12-1.47 7.78c-.01.07-.05.1-.12.1h-2.06c-.11 0-.15-.05-.13-.15l1.44-7.68a.14.14 0 0 0-.08-.16.15.15 0 0 0-.06-.01H19.4c-.63 0-.75-.24-.36-.73l.4-.5c.41-.51.97-.77 1.65-.77H28c.05 0 .07.02.06.07l-.34 1.85c0 .05-.04.08-.09.08h-2.26c-.09 0-.14.04-.15.12ZM38.03 25.14l-1.39.8a.1.1 0 0 0-.05.09l.18 1.43a.1.1 0 0 1-.06.1.1.1 0 0 1-.11 0l-1.06-.85a.1.1 0 0 0-.12 0l-1.46.83a.1.1 0 0 1-.16-.07c0-.02 0-.04.02-.06l.77-1.33a.1.1 0 0 0-.02-.13l-1.05-.82a.1.1 0 0 1 .07-.18h1.52a.1.1 0 0 0 .09-.05l.86-1.47a.1.1 0 0 1 .1-.05.1.1 0 0 1 .08.08l.17 1.4a.1.1 0 0 0 .1.1h1.47a.1.1 0 0 1 .1.07.1.1 0 0 1-.05.11Z" fill="#F48221"/><path d="M15.77 24.8a15.02 15.02 0 0 0 8.37 17.16c.19.08.18.16-.01.22l-5.98 1.8a.25.25 0 0 1-.27-.07 17.5 17.5 0 0 1-4.1-9.72c-.09-1.33-.1-2.51-.04-3.54a16.43 16.43 0 0 1 2.2-7.2h.05l.14.01c.03 0 .03.03.02.08-.16.44-.29.86-.38 1.25Z" fill="#2D3194"/><path d="M39.29 42c-6.88 2.32-13.84.86-18.95-4.2a.13.13 0 0 1-.04-.08c0-.03 0-.06.03-.09a.2.2 0 0 1 .1-.07l.09.03a15.16 15.16 0 0 0 9.96 2.49 14.15 14.15 0 0 0 9.23-4.68c.2-.22.3-.18.29.11v5.81c0 .5-.32.55-.71.68Z" fill="#2D3194"/></svg>