<!-- by TradingView --><svg width="56" height="56" viewBox="0 0 56 56" xmlns="http://www.w3.org/2000/svg"><path fill="#F0F3FA" d="M0 0h56v56H0z"/><path d="m5.94 21.02 1.24 1.3 1.78-.25-.85 1.6.78 1.62-1.76-.32-1.29 1.25-.24-1.79-1.58-.85 1.6-.79.32-1.77Z" fill="#EA2227"/><path d="M30.9 24.5a.5.5 0 0 0 0 1h9.01a.5.5 0 0 0 0-1h-9ZM8.55 26a.5.5 0 0 0 0 1H11a.5.5 0 0 0 0-1H8.55Zm.29 2c0-.28.22-.5.5-.5h2.57a.5.5 0 1 1 0 1H9.34a.5.5 0 0 1-.5-.5Zm1.37 1a.5.5 0 0 0 0 1h5.82a.5.5 0 1 0 0-1H10.2Zm.31 2c0-.28.23-.5.5-.5h4.13a.5.5 0 0 1 0 1h-4.13a.5.5 0 0 1-.5-.5Zm.79 1.5c0-.28.22-.5.5-.5h2.53a.5.5 0 1 1 0 1h-2.53a.5.5 0 0 1-.5-.5Zm3.5-6c0-.28.22-.5.5-.5h2.45a.5.5 0 0 1 0 1H15.3a.5.5 0 0 1-.5-.5Zm5.01-.5a.5.5 0 1 0 0 1h3.81a.5.5 0 0 0 0-1h-3.8Zm-.5 2c0-.28.23-.5.5-.5h5.32a.5.5 0 0 1 0 1h-5.32a.5.5 0 0 1-.5-.5ZM41 25c0-.28.23-.5.5-.5h9.01a.5.5 0 0 1 0 1h-9a.5.5 0 0 1-.5-.5ZM30.9 26a.5.5 0 0 0 0 1h9.01a.5.5 0 0 0 0-1h-9Zm10.1.5c0-.28.22-.5.5-.5h9a.5.5 0 0 1 0 1h-9a.5.5 0 0 1-.5-.5ZM27.1 26a.5.5 0 1 0 0 1h2.45a.5.5 0 1 0 0-1H27.1Zm6.58 2c0-.28.22-.5.5-.5h2.45a.5.5 0 0 1 0 1h-2.45a.5.5 0 0 1-.5-.5Zm11.09-.5a.5.5 0 0 0 0 1h2.45a.5.5 0 0 0 0-1h-2.45Zm-11.1 2c0-.28.23-.5.5-.5h2.46a.5.5 0 0 1 0 1h-2.45a.5.5 0 0 1-.5-.5Zm11.1-.5a.5.5 0 0 0 0 1h2.45a.5.5 0 0 0 0-1h-2.45Zm-11.1 2c0-.28.23-.5.5-.5h2.46a.5.5 0 0 1 0 1h-2.45a.5.5 0 0 1-.5-.5Zm11.1-.5a.5.5 0 0 0 0 1h2.45a.5.5 0 0 0 0-1h-2.45Zm-11.1 2c0-.28.23-.5.5-.5h2.46a.5.5 0 0 1 0 1h-2.45a.5.5 0 0 1-.5-.5Zm11.1-.5a.5.5 0 0 0 0 1h2.45a.5.5 0 0 0 0-1h-2.45ZM26.6 28c0-.28.22-.5.5-.5h2.45a.5.5 0 1 1 0 1H27.1a.5.5 0 0 1-.5-.5Zm-2.42 1a.5.5 0 0 0 0 1h5.37a.5.5 0 0 0 0-1h-5.37Zm-4.86.5c0-.28.23-.5.5-.5h2.46a.5.5 0 1 1 0 1h-2.46a.5.5 0 0 1-.5-.5Zm.5 1a.5.5 0 1 0 0 1h2.46a.5.5 0 1 0 0-1h-2.46Zm-.5 2c0-.28.23-.5.5-.5h2.46a.5.5 0 1 1 0 1h-2.46a.5.5 0 0 1-.5-.5Zm7.78-.5a.5.5 0 1 0 0 1h2.45a.5.5 0 1 0 0-1H27.1Zm-2.03-1c0-.28.23-.5.5-.5h3.98a.5.5 0 1 1 0 1h-3.98a.5.5 0 0 1-.5-.5Zm-9.05-6.5a.5.5 0 0 0 0 1h2.46a.5.5 0 0 0 0-1h-2.46Zm3.3.5c0-.28.23-.5.5-.5h2.46a.5.5 0 1 1 0 1h-2.46a.5.5 0 0 1-.5-.5Zm7.78-.5a.5.5 0 1 0 0 1h2.45a.5.5 0 1 0 0-1H27.1Zm-18.4 0h1.59a.5.5 0 1 1 0 1H9.17l-.47-1Zm5.66 3a.5.5 0 0 0 0 1h2.58a.5.5 0 0 0 0-1h-2.58Z" fill="url(#a)"/><defs><linearGradient id="a" x1="8.05" y1="28.62" x2="51" y2="28.62" gradientUnits="userSpaceOnUse"><stop stop-color="#096EB6"/><stop offset=".5" stop-color="#26A4DD"/><stop offset="1" stop-color="#0969B2"/></linearGradient></defs></svg>