<!-- by TradingView --><svg width="56" height="56" viewBox="0 0 56 56" xmlns="http://www.w3.org/2000/svg"><path fill="#63C5EF" d="M0 0h56v56H0z"/><path d="M26.13 17.2c.02.51.05 1.24-.42 1.94-.24.35-.7.68-1.24.98-.55.31-1.22.6-1.93.88-1.41.54-2.97 1-3.98 1.24 1-.25 2.41-1.18 3.8-1.71.7-.27 1.35-.55 1.87-.84.37-.2.65-.4.85-.59-.22-.1-.46-.24-.68-.42-.33-.27-.65-.67-.65-1.18v-.01a.2.2 0 0 0-.07-.05 1.3 1.3 0 0 0-.46-.1 5.78 5.78 0 0 0-2.88.65c-.15.1-.2.18-.22.22 0 .01-.01.04.06.11.78.78 1.62 1.65 1.93 1.8-.35-.17-1.47-.62-2.29-1.44-.17-.18-.25-.4-.17-.63a1 1 0 0 1 .41-.48 6.26 6.26 0 0 1 3.19-.73c.24.02.47.06.65.15.18.1.35.25.35.51 0 .29.18.56.47.8.22.17.47.3.67.4.27-.5.26-.99.24-1.45v-.31c0-.29.02-.61.25-.85.23-.25.62-.59 1.12-.09-.48 0-.67.34-.76.43-.08.09-.11.23-.11.5v.27Z" fill="#38A3E0"/><path d="m11.12 30-.1-1h33.95c-.02.34-.05.67-.09 1H11.12Zm.35 2c-.08-.33-.15-.66-.2-1h33.47c-.06.34-.13.67-.21 1H11.47Zm.62 2c-.12-.33-.24-.66-.34-1h32.5c-.1.34-.22.67-.34 1H12.1Zm.9 2-.49-1h31c-.16.34-.32.67-.5 1H13Zm1.26 2c-.24-.32-.46-.66-.67-1h28.84c-.2.34-.43.68-.67 1h-27.5Zm1.7 2a17.1 17.1 0 0 1-.91-1h25.92c-.3.35-.6.68-.92 1H15.96Zm2.4 2c-.45-.31-.89-.65-1.3-1h21.9c-.41.35-.85.69-1.3 1h-19.3Zm3.9 2a16.9 16.9 0 0 1-2.26-1h16.02c-.72.39-1.47.72-2.25 1H22.24Z" fill="#0076C2"/><path fill-rule="evenodd" d="M28 44a16 16 0 1 0 0-32 16 16 0 0 0 0 32Zm0 1a17 17 0 1 0 0-34 17 17 0 0 0 0 34Z" fill="#191460"/><path d="M17 23c-.8 0-3.67 3.33-5 5h32v-1c-3.5 0-11.5-8-14-8s-7 6-9 6-3-2-4-2Z" fill="#009440"/><path d="M18.56 32.5c-.4-1.2 1.16-1.83 2-2h6.95c1.99 0 1.99 0 1.99 1s-3.48 7-4.47 7c-1 0 1.98-4 2.98-5.5.8-1.2.33-1.5 0-1.5h-1c-.5 0-4.47 7-5.46 7-1 0 2.48-5 3.48-6 .8-.8.33-1 0-1h-2c-1.48 0 0 1.5-.99 1.5-1 0-1-1.5-1.49-1.5-.5 0-.5 1.5-1 1.5-.39 0-.82-.33-.99-.5Z" fill="#D90D10"/><path d="m18.13 32.77-.04-.11c-.14-.42-.11-.81.04-1.16.15-.33.4-.6.67-.79.52-.39 1.2-.6 1.65-.7l.05-.01h7.05c.58 0 1.02 0 1.34.03.3.03.65.1.89.39.14.18.18.38.2.55.02.15.02.33.02.51v.02a1 1 0 0 1 0 .1c0-.02.01-.03.02-.03.93-.84 2.07-1.57 3.3-1.57.57 0 1.07.14 1.39.51.31.38.33.86.25 1.27a7.5 7.5 0 0 1-1.23 2.5c-.94 1.36-2.08 1.47-2.7 1.17l-.02-.01-.02-.02a1.1 1.1 0 0 1-.4-.41.99.99 0 0 1-.1-.54c.03-.33.2-.64.38-.89.36-.5.94-1.03 1.43-1.47l.02-.02.5-.45a4.7 4.7 0 0 0-.97.68c-.6.54-1.22 1.27-1.72 2.02-.5.76-.84 1.5-.95 2.03-.06.28-.04.44 0 .53.01.05.04.09.14.11.42.1.97-.02 1.61-.33.63-.3 1.26-.73 1.8-1.1l.04-.03c.36-.24.72-.5 1-.62.07-.03.15-.07.24-.09a.75.75 0 0 1 .35 0c.16.04.3.14.4.3.07.13.08.26.08.36 0 .25-.1.48-.2.67-.12.2-.28.39-.46.57-.35.37-.84.73-1.38 1.06a7.57 7.57 0 0 1-3.6 1.2c-.62 0-1.13-.2-1.51-.55-.37-.34-.56-.8-.64-1.27-.18.25-.35.48-.52.68-.24.3-.48.56-.7.76-.1.1-.23.18-.35.25a.95.95 0 0 1-.45.13.72.72 0 0 1-.4-.11.66.66 0 0 1-.27-.36 1.1 1.1 0 0 1 .03-.62c.1-.35.32-.8.58-1.24.54-.93 1.33-2.07 1.95-2.96v-.01l.67-.98a2.64 2.64 0 0 0 .35-.72h-.77a2.93 2.93 0 0 1-5.08 6.8.99.99 0 0 1-.54.2.66.66 0 0 1-.53-.25.74.74 0 0 1-.15-.47c0-.25.1-.52.2-.77A26.4 26.4 0 0 1 24.8 32h-1.77c-.1 0-.17 0-.21.02 0 .07.02.14.04.25v.01l.04.28c0 .1.01.24-.03.39a.73.73 0 0 1-.33.43.98.98 0 0 1-.5.12c-.47 0-.8-.22-1.04-.48-.2-.24-.34-.53-.43-.73l-.05.12v.02c-.06.17-.14.4-.24.58-.1.17-.31.49-.73.49a1.7 1.7 0 0 1-.84-.26c-.22-.12-.4-.28-.51-.39l-.08-.08ZM27 36.35a30.9 30.9 0 0 0 2.24-4.01c.16-.38.25-.68.25-.84 0-.39 0-.62-.12-.77-.18-.23-.65-.23-1.87-.23h-6.96c-.83.17-2.38.8-1.99 2 .17.17.6.5 1 .5.25 0 .37-.38.5-.75.12-.38.24-.75.5-.75.2 0 .32.26.46.56.2.43.44.94 1.02.94.45 0 .4-.3.33-.64-.07-.4-.15-.86.67-.86h1.99c.33 0 .8.2 0 1-1 1-4.48 6-3.48 6 .58 0 2.18-2.4 3.52-4.4.94-1.4 1.74-2.6 1.94-2.6h1c.33 0 .8.3 0 1.5l-.68.98c-1.24 1.8-3.12 4.52-2.3 4.52.39 0 1.18-.94 1.98-2.15Zm.5.17c-.05 1.06.44 1.98 1.7 1.98 2.05 0 5.13-2 5.13-3 0-.42-.54-.05-1.32.49-1.09.74-2.62 1.8-3.82 1.51-2.05-.5 2.06-6.5 4.11-6.5.97 0 .24.66-.65 1.46-1 .91-2.22 2-1.4 2.54.34.17 1.23.2 2.05-1 1.03-1.5 2.06-3.5 0-3.5-1.3 0-2.6 1-3.63 2.11-.6.65-1.13 1.34-1.5 1.89-.4.59-.65 1.33-.68 2.02Z" fill="#CEF6F8"/><path d="M33.31 30.5c2.06 0 1.03 2 0 3.5-.82 1.2-1.7 1.17-2.05 1-1.54-1 4.1-4 2.05-4s-6.16 6-4.1 6.5c2.05.5 5.13-3 5.13-2s-3.08 3-5.14 3c-2.05 0-2.05-2.5-1.02-4 1.02-1.5 3.08-4 5.13-4Z" fill="#D90D10"/></svg>