<!-- by TradingView --><svg width="56" height="56" viewBox="0 0 56 56" xmlns="http://www.w3.org/2000/svg"><path fill="#F0F3FA" d="M0 0h56v56H0z"/><path d="M14.2 31.1c-.14 0-.16.04-.06.13l7.17 6.29c.05.04.11.06.18.06h2.5l.02.02a.03.03 0 0 1 0 .03c-.15.17-.22.3-.46.39-.37.14-.57.24-.87.25-.44 0-.89.04-1.28-.1l-.46-.14c-.17-.06-.26-.19-.36-.32a.1.1 0 0 0-.15-.01c-.44.37-.98.57-1.6.58-.46 0-.76-.02-.91-.06a2.6 2.6 0 0 1-1.02-.5.1.1 0 0 0-.06-.02.1.1 0 0 0-.06.01c-.15.12-.25.23-.44.3l-.54.23c-.15.07-.25.02-.38-.06a17.69 17.69 0 0 1-3.09-2.6 11.67 11.67 0 0 1-2.71-4.7c-2.08-6.92 3.87-12.92 10.04-15.05l1.35-.46a.24.24 0 0 1 .23.04c.17.13.25.32.26.55.02 1.4.02 3.07 0 4.97-.01.27-.09.47.27.55.03 0 .06.02.09.05.06.08.08.18.05.29-.01.04-.04.06-.08.06h-.2a.08.08 0 0 0-.07.04.5.5 0 0 0-.04.31c0 .05.03.07.07.07h.2c.05 0 .1.01.13.05l.24.2c.05.05.1.04.14 0l.36-.41a.1.1 0 0 0-.03-.17c-.23-.12-.3-.28-.21-.47a.17.17 0 0 1 .07-.08c.43-.25.18-.63.18-1a221.5 221.5 0 0 0 .03-3.4l.01-.02h.02a.05.05 0 0 1 .05 0l11.85 11.73c.04.03.08.05.13.05h6.37c.08 0 .11-.04.08-.12a975.7 975.7 0 0 1-1.93-5.32.57.57 0 0 0-.15-.22 189.91 189.91 0 0 0-4.5-2.31c-.17-.08-.52-.22-.74-.34l-9.9-5.04a.4.4 0 0 0-.18-.05h-2.3a.05.05 0 0 1-.04-.03v-.08a.05.05 0 0 1 .04-.05c1.44-.2 2.84-.7 4.32-.73 1.46-.04 2.83-.04 4.1 0 7.13.21 16.2 5.11 16.63 12.73.04.64.03 1.23 0 1.78a11.1 11.1 0 0 1-2.76 6.23 17.84 17.84 0 0 1-3.27 2.86.99.99 0 0 1-.52.2c-.28 0-.54-.05-.79-.17-.13-.06-.36-.08-.44-.16a17.92 17.92 0 0 0-.32-.3.11.11 0 0 0-.1.01.11.11 0 0 0-.03.04c-.21.32-.49.34-.84.47-.13.05-.25.08-.36.08a3.76 3.76 0 0 1-1.78-.22c-.17-.03-.26-.17-.34-.28a.15.15 0 0 0-.16-.06.15.15 0 0 0-.05.02c-.96.68-1.94.61-3.03.31-.17-.05-.3-.15-.44-.26a.18.18 0 0 0-.2 0c-.3.22-.66.38-1.06.48-.15.03-.52.03-1.12 0-.3-.01-.56-.18-.81-.22-.18-.03-.31-.2-.4-.3a.16.16 0 0 0-.12-.05.17.17 0 0 0-.13.07c-.1.13-.2.22-.38.29-.29.1-.52.2-.81.22-.3.02-.63.01-1 0-.25-.02-.42-.14-.7-.21a.7.7 0 0 1-.48-.42c-.01-.03 0-.05.03-.05h6.26a.12.12 0 0 0 .12-.11v-5.71a.08.08 0 0 0-.08-.08c-2.1-.24-4.23-.03-6.34-.3a.1.1 0 0 0-.07.03.1.1 0 0 0-.04.07v3.05a.05.05 0 0 1-.05.05h-.89c-.01 0-.03 0-.04-.02a.06.06 0 0 1-.02-.04v-3.05c0-.07-.03-.1-.1-.1-2.88-.03-5.83-.2-8.7-.27Zm7.02-3.1c.02 0 .05-.01.06-.03a.09.09 0 0 0 .03-.06v-.82a.09.09 0 0 0-.1-.09H19.1c-.02 0-.04-.07-.06-.08a.09.09 0 0 1-.03-.06v-3.21a.09.09 0 0 0-.02-.07.09.09 0 0 0-.07-.02H17.1c-.03 0-.05 0-.07.02a.09.09 0 0 0-.02.07v4.26c0 .02 0 .05.02.06.02.02.04.03.07.03h4.13Zm.78-.14a.1.1 0 0 0 .1.1c1.2.01 2.54 0 3.88-.05.2 0 .4-.05.63-.12 3.17-1.04 1.32-4.2-1.48-4.23a140.12 140.12 0 0 0-3.12.02.04.04 0 0 0-.01.03v4.25Zm-.87 1.7-.17.03a.12.12 0 0 0-.08.04.56.56 0 0 0-.1.46c0 .02 0 .03.02.05l.04.03c.4.23.83.3 1.27.22.12-.02.24-.1.35-.12a.2.2 0 0 1 .1.01 2.43 2.43 0 0 0 .89.12.05.05 0 0 0 .02-.04l-.02-.03-.25-.22a.12.12 0 0 1-.03-.15l.2-.4a.08.08 0 0 0-.04-.11c-.29-.1-.48-.03-.56.2a.13.13 0 0 1-.07.06c-.07.03-.14.03-.2 0a.17.17 0 0 1-.07-.16.2.2 0 0 1 .03-.09.21.21 0 0 1 .07-.07c.1-.07.25-.12.26-.28.02-.21-.08-.33-.3-.36l-.4-.04c-.33-.05-.56.06-.88.05-.1 0-.15.05-.17.14-.05.23 0 .43.11.59.03.04.02.06-.02.07Zm13.23 1.63c0 .03.01.06.03.08.02.02.05.04.08.04l7.71.32a.12.12 0 0 0 .1-.05.12.12 0 0 0 .02-.11l-.86-2.37a.12.12 0 0 0-.12-.07h-6.84a.12.12 0 0 0-.12.11v2.05Zm-.4 2.81.03.01.01.03v3.42c0 .08.05.12.13.12h5.16a.13.13 0 0 0 .13-.12v-3.41c0-.01 0-.02.02-.03l.03-.02h2.73l.04-.01a.06.06 0 0 0 .02-.05v-1.73c0-.05-.02-.08-.07-.08-3.7-.2-7.42-.26-11.12-.37-.04 0-.07.02-.07.06v2.04c0 .1.05.14.15.14h2.81Z" fill="#000162"/><path d="M23.93 16.12c-.03.2-.25.41-.45.67a.08.08 0 0 1-.06.03.08.08 0 0 1-.06-.02l-.66-.65a.12.12 0 0 1-.02-.13.12.12 0 0 1 .1-.07h1a.15.15 0 0 1 .15.1v.07ZM22.4 16.71l-.01 3.53a.14.14 0 0 1-.1.13.14.14 0 0 1-.05 0h-.3a.14.14 0 0 1-.14-.14v-3.95a.14.14 0 0 1 .1-.13.14.14 0 0 1 .15.05l.31.43c.02.03.03.05.03.08ZM25.92 17.25l-.5.69a.08.08 0 0 1-.1.02.08.08 0 0 1-.03-.02 1.24 1.24 0 0 1-.22-.55c-.06-.3-.13-.55-.22-.76-.01-.01-.01-.04 0-.07a.05.05 0 0 1 .02-.04.05.05 0 0 1 .05 0l.94.47a.18.18 0 0 1 .1.2l-.04.06ZM24.13 16.8c.05-.07.09-.1.12-.12.05-.01.07 0 .07.05.02.24.09.49.2.76.05.1.08.31.07.42 0 .12-.05.14-.13.05l-.5-.57a.18.18 0 0 1-.04-.1c-.02-.17.1-.34.21-.5ZM28.6 18.43l-1.24 1.7-.02.01a.03.03 0 0 1-.04-.02l-.47-2.55v-.02a.03.03 0 0 1 .04-.02h.01l1.7.85.02.01v.01a.03.03 0 0 1 0 .03ZM25.46 18.82l.74-1.02.03-.02a.06.06 0 0 1 .06.01l.02.03.4 2.15-.01.04-.03.02h-.07l-1.14-1.13a.06.06 0 0 1 0-.08ZM31.36 19.83l-1.32 2.58a.03.03 0 0 1-.05 0l-.01-.01-.65-3.56a.03.03 0 0 1 .04-.04l1.97.99h.01a.03.03 0 0 1 .01.03v.01ZM27.53 20.84l1.19-1.63a.06.06 0 0 1 .06-.03l.03.02.02.03.62 3.43a.06.06 0 0 1-.03.06.06.06 0 0 1-.07 0l-1.82-1.8a.06.06 0 0 1 0-.08ZM32.7 25.05l-.66-4.84a.05.05 0 0 1 .02-.04.05.05 0 0 1 .05 0l2.5 1.24a.05.05 0 0 1 .02.03.05.05 0 0 1 0 .04l-1.84 3.59a.05.05 0 0 1-.08.01l-.01-.03ZM30.11 23.42l1.37-2.67.01-.01h.03a.04.04 0 0 1 .03.02l.63 4.65a.04.04 0 0 1-.02.04h-.02l-.02-.01-2-1.98a.04.04 0 0 1 0-.04ZM35 27.37l.24-5.52a.07.07 0 0 1 .03-.05.07.07 0 0 1 .07 0l3.13 1.56a.07.07 0 0 1 .04.05.07.07 0 0 1-.02.06l-3.37 3.95a.07.07 0 0 1-.07.02.07.07 0 0 1-.05-.07ZM34.63 22.94l-.2 4.69v.03l-.03.01a.06.06 0 0 1-.06 0l-1.46-1.45a.05.05 0 0 1-.01-.06l1.66-3.25a.06.06 0 0 1 .06-.03l.03.02.01.04ZM35.24 28.14l3.58-4.2.02-.01a.04.04 0 0 1 .04 0l.01.02 1.53 4.2a.04.04 0 0 1 0 .04.04.04 0 0 1-.04.02h-5.1a.04.04 0 0 1-.05-.03.04.04 0 0 1 .01-.04ZM24 24.6a.1.1 0 0 1 .03-.07l.02-.02h.04l.64-.01c.2 0 .39.03.57.09.19.06.35.15.5.26.13.11.25.25.32.4.08.15.12.3.12.47v.03c0 .16-.03.33-.1.48-.08.15-.2.29-.33.4-.14.12-.3.21-.49.28-.18.06-.37.1-.57.1h-.67a.08.08 0 0 1-.03-.02.1.1 0 0 1-.02-.03l-.03-.04V24.6ZM21.78 28.99c-.08.1-.08.22 0 .28.07.06.2.04.27-.05.08-.1.08-.22 0-.28-.07-.07-.2-.04-.27.05ZM21.51 29.78l.01-.03a.08.08 0 0 1 .05-.04h.07a.9.9 0 0 1 .3.08c.08.04.12.09.12.13l-.01.06c0 .02-.02.04-.04.06a.3.3 0 0 1-.1.05 1.09 1.09 0 0 1-.31.02l-.04-.01a.08.08 0 0 1-.07-.09l.02-.23ZM24.1 38.73a.08.08 0 0 0-.05-.02l-.06.02c-.78.75-2.65.78-3.45.03a.12.12 0 0 0-.15 0c-.23.16-.43.3-.66.38-.86.27-2.13.26-2.8-.4a.12.12 0 0 0-.17 0l-.14.13a.13.13 0 0 1-.22-.06c-.09-.31.14-.33.38-.36.3-.05.48.15.7.2.76.2 1.66.24 2.41-.03.13-.04.58-.28.77-.16.17.1.37.19.58.23a4.2 4.2 0 0 0 2.7-.25c.1-.04.2-.03.32.04.19.1.36.16.52.2.94.22 1.84.15 2.7-.2.16-.08.36 0 .56.08.7.32 1.73.3 2.43.13.38-.08.65-.37 1.14-.15.21.1.35.15.43.16.35.07.7.1 1.07.11.47.01.96-.1 1.46-.3.41-.18.67.1.98.17.96.23 1.87.16 2.72-.21.3-.13.69.16.95.25a.1.1 0 0 1 .07.08.1.1 0 0 1-.05.1.6.6 0 0 1-.4.12.1.1 0 0 1-.06-.02l-.25-.25a.12.12 0 0 0-.15 0c-.21.16-.44.32-.7.4-.87.26-2.07.24-2.78-.41a.1.1 0 0 0-.07-.03.1.1 0 0 0-.06.03c-.75.68-2.05.67-2.94.35a1.4 1.4 0 0 1-.5-.34.13.13 0 0 0-.18 0c-.73.7-2.15.67-3.01.3a1.1 1.1 0 0 1-.38-.28.15.15 0 0 0-.2-.01c-.73.62-1.89.65-2.75.4-.3-.1-.5-.23-.7-.43Z" fill="#000162"/><path d="M34.9 39.43c.63.34 1.33.47 2.11.37l.13.01a.04.04 0 0 1 .02.04.04.04 0 0 1-.02.04 22.2 22.2 0 0 1-2.94.97c-.24.05-.45.17-.67.19-.42.03-.75.2-1.11.22-.46.02-1.04.24-1.5.24-.32 0-.64.02-.98.06-1.15.15-2.2.18-3.14.1l-1.9-.17c-.3-.02-.55-.05-.75-.1-.3-.08-.55-.12-.75-.12-.33 0-.66-.2-1-.22-.17 0-.32-.04-.47-.1-.2-.1-.46-.12-.68-.18a36.81 36.81 0 0 1-2.4-.83c-.13-.09-.11-.13.05-.13.48 0 .98-.13 1.52-.4a.1.1 0 0 1 .1.01c1 .56 2.47.54 3.48 0a.1.1 0 0 1 .1 0 3.84 3.84 0 0 0 3.55-.03.1.1 0 0 1 .05.02c1.02.62 2.49.51 3.49.02a.1.1 0 0 1 .1 0 3.94 3.94 0 0 0 3.56-.02.1.1 0 0 1 .05.01Z" fill="#000162"/><path fill-rule="evenodd" d="M41.76 38.11c3.5-2.62 5.61-6.2 5.61-10.11 0-3.9-2.1-7.49-5.6-10.11-3.5-2.63-8.37-4.27-13.77-4.27s-10.26 1.64-13.76 4.27c-3.5 2.62-5.61 6.2-5.61 10.11 0 3.9 2.1 7.49 5.6 10.11 3.5 2.63 8.37 4.27 13.77 4.27s10.26-1.64 13.76-4.27ZM28 43c11.05 0 20-6.72 20-15 0-8.28-8.95-15-20-15S8 19.72 8 28c0 8.28 8.95 15 20 15Z" fill="#000162"/></svg>