<!-- by TradingView --><svg width="56" height="56" viewBox="0 0 56 56" xmlns="http://www.w3.org/2000/svg"><path fill="#F0F3FA" d="M0 0h56v56H0z"/><path d="M25.9 23.18c-1.97.35-2.18 1.76-3.1 3.15-.22.33-.5.63-.88.85-.4.21-.86.32-1.42.32H16V24h5.43L21 25h-4v1.5h3.5c.44 0 .72-.08.93-.2.2-.11.38-.28.54-.52 1.08-1.63 1.44-3.18 3.76-3.58 1.1-.2 2.51-.2 4.22-.2h1.02L30 23c-1.77 0-3.1 0-4.1.18ZM4 22h6c2.08 0 4 1.26 4 3.5 0 1.88-.95 3.5-3 3.5H8v-1h3c1.5 0 2-1.17 2-2.5 0-1.68-1.47-2.5-3-2.5H5v11H4V22Zm11 1h7l1-1h-9v12h9l-1-1h-7V23Zm20-1h3.5l.5 1h-4c-2.68 0-4 2.63-4 5 0 .85.21 2.14.83 3.18A3.47 3.47 0 0 0 35 33h4.5l.5 1h-5c-2 0-3.28-1.04-4.03-2.3A7.64 7.64 0 0 1 30 28c0-2.92 1.76-6 5-6Zm12 1h-5.5l.5-1h5c2.27 0 4 1.74 4 4 0 1.58-2.14 3.05-3.19 3.89L46.43 31H52l-.5 1h-7.93l3.62-2.89C47.92 28.52 50 27.15 50 26c0-1.72-1.28-3-3-3ZM6 24h4c.9 0 2 .45 2 1.5 0 1.14-1 1.5-1.98 1.5H8v-1h2c.4 0 1 .03 1-.5 0-.42-.7-.5-1-.5H7v9H6V24Zm20 0h3.5l-.5 1h-3c-1.05 0-1.5 1.74-1.5 2.5 0 .82.19 3.5 1.5 3.5h3l.5 1H26c-2.03 0-2.5-3.02-2.5-4.5 0-1.35.84-3.5 2.5-3.5Zm7 4c0 1.19.5 3 2 3h3.5l.5 1h-4c-2.08 0-3-2.23-3-4s.92-4 3-4l4-.02-.5 1.02H35c-1.5 0-2 1.81-2 3Zm8.5-4H47c1.13 0 2 .87 2 2 0 1.17-1.47 2.25-2.24 2.9a36.4 36.4 0 0 1-3.4 2.46L42.39 33H51l-.5 1h-9.88l2.01-3.36.1-.06c.9-.58 2.26-1.52 3.39-2.45.47-.4 1.88-1.35 1.88-2.13 0-.58-.42-1-1-1h-5l-.5-1ZM16 28.5h4.5c.4 0 .75.03 1.06.15.33.12.59.32.82.59 1.28 1.5 1.4 3.2 3.7 3.58 1.08.18 2.4.18 3.92.18l1 1c-1.47 0-3.92 0-5.08-.2-2.93-.48-2.73-2.08-4.3-3.91a.94.94 0 0 0-.4-.3 2.12 2.12 0 0 0-.72-.09H17V31h4l.5 1H16v-3.5Z" fill="#164397"/><path d="m40.5 32-.42-1.95-.19-.85c0-.04-.06-.1-.1-.1l-.72-.15-1.41-.3-.66-.17.36-.07 1.68-.36c.25-.05.5-.12.74-.16.09-.02.11-.06.13-.13l.6-2.76.08.31.52 2.47c0 .07.04.1.12.11l.57.11 1.39.3.81.2c-.07 0-.12.03-.19.04l-1.67.36-.93.2c-.05.02-.1.07-.1.1l-.58 2.7a.33.33 0 0 0-.02.1h-.02Zm1.05-3.53a.3.3 0 0 1-.1-.04c-.21-.06-.42-.1-.64-.17-.04 0-.1-.06-.1-.1l-.12-.42-.07-.27c-.1.23-.15.46-.21.7-.01.03-.06.08-.09.1l-.63.16-.13.04.49.12c.24.04.4.13.41.39.01.16.08.31.11.47h.05l.03-.12.14-.55c.01-.03.03-.07.07-.08l.33-.1c.14-.05.28-.08.46-.13Z" fill="#164397"/></svg>