<!-- by TradingView --><svg width="56" height="56" viewBox="0 0 56 56" xmlns="http://www.w3.org/2000/svg"><path fill="#F0F3FA" d="M0 0h56v56H0z"/><path d="M32 17H15.14a.99.99 0 0 0-.83.45l-5.14 8A1 1 0 0 0 10 27H20.1c.4 0 .63.45.41.78l-6.37 9.67a1 1 0 0 0 .82 1.55h3.56c.33 0 .64-.16.82-.44l13.49-20A1 1 0 0 0 32 17Z" fill="#0097F0"/><path d="M24 39h16.87c.33 0 .64-.17.83-.45l5.14-8A1 1 0 0 0 46 29H35.9a.5.5 0 0 1-.41-.78l6.37-9.67a1 1 0 0 0-.82-1.55h-3.56a.99.99 0 0 0-.82.44l-13.49 20A1 1 0 0 0 24 39Z" fill="#CF0515"/></svg>