<!-- by TradingView --><svg width="56" height="56" viewBox="0 0 56 56" xmlns="http://www.w3.org/2000/svg"><path fill="#3F2763" d="M0 0h56v56H0z"/><path fill-rule="evenodd" d="M16 13h24v23c0 2.01-1.59 5.06-6.5 7.87l-1.94 1.06A43 43 0 0 0 27.98 47l-5.5-3.14-.8-.47c-1.04-.6-2.28-1.3-3.28-2.2A6.68 6.68 0 0 1 16 36V13Zm2 2v21c0 1.65.7 2.77 1.73 3.7.83.74 1.81 1.3 2.83 1.89l.79.45C24.05 39.86 25 35.4 25 31h-2.5L21 25h14l-1.5 6H31c.15 2.38.67 8.13 1.63 11.06C37.13 39.45 38 36.98 38 36V15H18Zm9.98 29.5-.98-.52V29h-3l-.5-2h9l-.5 2h-3v14.91c-.37.2-.71.4-1.02.59ZM30.5 17h-5.08l.77 1.92-1.73-.42v4.54l1.6-.64-.64 1.6h5.08l-.64-1.6 1.6.64V18.5l-1.73.42.77-1.92Zm-2.77 3.08L26.9 18h2.12l-.83 2.08 2.27-.23v1.71l-2.4-.96.96 2.4H26.9l.96-2.4-2.4.96v-1.7l2.27.22Z" fill="#94C948"/></svg>