<!-- by TradingView --><svg width="56" height="56" viewBox="0 0 56 56" xmlns="http://www.w3.org/2000/svg"><path fill="#F0F3FA" d="M0 0h56v56H0z"/><ellipse cx="28" cy="28" rx="20" ry="14" fill="#00486B"/><path fill-rule="evenodd" d="M41.57 37.08C45 34.68 47 31.45 47 28s-2-6.68-5.43-9.08C38.14 16.52 33.34 15 28 15s-10.14 1.52-13.57 3.92C11 21.32 9 24.55 9 28s2 6.68 5.43 9.08C17.86 39.48 22.66 41 28 41s10.14-1.52 13.57-3.92ZM28 42c11.05 0 20-6.27 20-14s-8.95-14-20-14S8 20.27 8 28s8.95 14 20 14Z" fill="#FFCC2A"/><path d="M43 28c0 2.61-1.54 5.09-4.25 6.95C36.04 36.82 32.25 38 28 38c-4.24 0-8.04-1.18-10.75-3.05C14.54 33.1 13 30.61 13 28c0-2.61 1.54-5.09 4.25-6.95C19.96 19.18 23.75 18 28 18c3.2 0 6.14.67 8.56 1.8l.64-.8c-2.6-1.26-5.78-2-9.2-2-8.84 0-16 4.92-16 11s7.16 11 16 11 16-4.92 16-11c0-2.97-1.72-5.67-4.5-7.65l-.52.86C41.55 23.05 43 25.46 43 28Z" fill="#FFCC2A"/><path d="m15.5 26-.5 1h2v6h3v-6h2.5l4 6h3L38 20 28 30.5 24.5 26h-9Z" fill="#FFCC2A"/><path fill-rule="evenodd" d="M34 28v5h4c2.4 0 3-2 3-3v-1c0-2.4-2-3-3-3h-3l-1 2Zm2-1v5h1c.67 0 2-.4 2-2v-1c0-.67-.4-2-2-2h-1Z" fill="#FFCC2A"/><path d="m18.5 24.5-1 1H25l3 4 8-8.5-8 6.5-2-3h-7.5Z" fill="#EC3237"/><path d="m39 18 .24.76H40l-.62.48.24.76-.62-.47-.62.47.24-.76-.62-.48h.76L39 18Z" fill="#FFCC2A"/></svg>