<!-- by TradingView --><svg width="56" height="56" viewBox="0 0 56 56" xmlns="http://www.w3.org/2000/svg"><path fill="#F0F3FA" d="M0 0h56v56H0z"/><path d="M21 22.88 16.71 29 9 16h7.71L21 22.88Z" fill="#184792"/><path d="M35 33.12 39.29 27 47 40h-7.71L35 33.12Z" fill="url(#a)"/><path d="M25.5 40c-1.33 0-2.22-1.07-2.5-1.6L35.5 16H43L32.17 35.2c-2.5 4-5 4.8-6.67 4.8Z" fill="#184792"/><path d="M30.5 16c1.33 0 2.22 1.07 2.5 1.6L20.5 40H13l10.83-19.2c2.5-4 5-4.8 6.67-4.8Z" fill="url(#b)"/><defs><linearGradient id="a" x1="42.71" y1="27.76" x2="45.49" y2="37.88" gradientUnits="userSpaceOnUse"><stop stop-color="#FEDC00"/><stop offset="1" stop-color="#F5811E"/></linearGradient><linearGradient id="b" x1="34.67" y1="17.6" x2="22.93" y2="39.61" gradientUnits="userSpaceOnUse"><stop stop-color="#FEDC00"/><stop offset="1" stop-color="#F5811E"/></linearGradient></defs></svg>