<!-- by TradingView --><svg width="56" height="56" fill="none" xmlns="http://www.w3.org/2000/svg"><path fill="#F0F3FA" d="M0 0h56v56H0z"/><path fill-rule="evenodd" clip-rule="evenodd" d="M13 40h30V13H13v27Zm2-14v-5h8v5h-.3v-.06c.001-1.606.002-4.51-2.7-4.51v7.736c-.002.796-.003 1.425.802 1.425h.958V31h-5.648v-.409h.979c.84 0 .909-.685.909-1.53v-7.63c-1.105-.123-2.7.457-2.7 4.569H15Zm9-4.577V21h4.474v.423h-.606a.754.754 0 0 0-.717 1.008l2.158 5.905 1.93-5.515c.24-.685-.275-1.398-1.009-1.398H30V21h3.377v.423H32.9a.762.762 0 0 0-.714.49L28.752 31h-.278l-3.246-9.075a.762.762 0 0 0-.72-.502H24Zm12.203-.08c-1.553 0-1.904 1.07-1.886 1.604 0 1.325 2.1 1.824 3.275 2.104.145.034.275.065.386.094 1.012.263 3.022.92 3.022 2.75C41 29.724 39.572 31 37.742 31c-1.08 0-1.7-.357-2.21-.65-.355-.203-.656-.376-1.02-.376-.71 0-1.045.728-1.124 1.026H33v-4.526h.388c0 2.986 3.591 4.25 4.354 4.25.762 0 2.038-.382 2.038-1.71 0-1.064-2.542-2.04-3.813-2.396-.989-.315-2.967-1.292-2.967-2.67C33 22.223 34.386 21 36.203 21c1.18 0 1.974.344 2.53.585.3.13.53.23.714.23.422 0 .592-.556.624-.815h.25v3.4h-.25c-.665-2.132-1.927-3.058-3.868-3.058Z" fill="#94959A"/><path d="M13 41v2h30v-2H13Z" fill="#204885"/></svg>