<!-- by TradingView --><svg width="56" height="56" viewBox="0 0 56 56" xmlns="http://www.w3.org/2000/svg"><path fill="#F0F3FA" d="M0 0h56v56H0z"/><path fill-rule="evenodd" d="M28 44.5a16.5 16.5 0 1 0 0-33 16.5 16.5 0 0 0 0 33Zm0 .5a17 17 0 1 0 0-34 17 17 0 0 0 0 34Z" fill="#0C2774"/><path fill-rule="evenodd" d="M28 43.5a15.5 15.5 0 1 0 0-31 15.5 15.5 0 0 0 0 31Zm0 .5a16 16 0 1 0 0-32 16 16 0 0 0 0 32Z" fill="#0C2774"/><path fill-rule="evenodd" d="M28 42.5a14.5 14.5 0 1 0 0-29 14.5 14.5 0 0 0 0 29Zm0 .5a15 15 0 1 0 0-30 15 15 0 0 0 0 30Z" fill="#0C2774"/><path fill-rule="evenodd" d="M28 41.5a13.5 13.5 0 1 0 0-27 13.5 13.5 0 0 0 0 27Zm0 .5a14 14 0 1 0 0-28 14 14 0 0 0 0 28Z" fill="#0C2774"/><path d="m20.58 28.88-.27 2.14c.27 0 .56-.02.88-.04l.2-1.37-.43-.27a1 1 0 0 1-.38-.46Zm.12-.98a1 1 0 0 1 .98-.38l.73-5.1L28 20.9l5.6 1.52.39 4.14.59-.42L34 21.5 28 20l-6.5 1.5-.8 6.4Zm.87 1.83-.18 1.24c.55-.04 1.16-.1 1.81-.2l-1.63-1.04ZM29.5 29v-2H31a1 1 0 1 0 0-2h-1.5v-1.5a1 1 0 0 0-1.75-.66 1 1 0 0 0-1.53.04l-2 2.5A1 1 0 0 0 25 27h1v3.18l-3.96-2.52a1 1 0 0 0-.16-.09l.71-5L28 21.1l5.4 1.48.4 4.1A24.82 24.82 0 0 1 29.5 29Z" fill="#338AB7"/><path d="M23.2 30.77c-.65.1-1.26.16-1.8.2l-.29 1.95L28 34.4l6.4-1.48-.32-3.29-5.04 3.21a1 1 0 0 1-1.29-.18 1 1 0 0 1-1.29.18l-3.26-2.07Zm10.68-3.26a1 1 0 0 0-.42.15l-3.96 2.52V29c1.43-.6 2.88-1.36 4.3-2.31l.08.82Zm.39 2 .34 3.57L28 34.6l-7.12-1.52.3-2.1-.88.04L20 33.5l8 1.5 7.5-1.5-.58-4.62a1 1 0 0 1-.38.46l-.27.17Zm.53-1.61a1 1 0 0 0-.72-.4l-.1-.94.6-.42.22 1.76Z" fill="#0C2774"/><path d="M27.03 23.4a.1.1 0 0 1 .07.1v2.4h1.3v-2.4a.1.1 0 0 1 .2 0v2.4H31a.1.1 0 0 1 0 .2h-2.4v5.72l5.35-3.4a.1.1 0 0 1 .1.16l-5.5 3.5a.1.1 0 0 1-.15-.08v-5.9h-1.3V32a.1.1 0 0 1-.15.08l-5.5-3.5a.1.1 0 0 1 .1-.16l5.35 3.4V26.1H25a.1.1 0 0 1-.08-.16l2-2.5a.1.1 0 0 1 .11-.03Zm-.13 2.5v-2.11l-1.7 2.11h1.7Z"/></svg>