<!-- by TradingView --><svg width="56" height="56" viewBox="0 0 56 56" xmlns="http://www.w3.org/2000/svg"><path fill="#F0F3FA" d="M0 0h56v56H0z"/><path d="M27.04 17.04A11 11 0 0 0 22 37.22v1.17a12 12 0 0 1 5-22.35V15h2v1.04a12 12 0 0 1 5 22.35v-1.17a11 11 0 0 0-5.04-20.18l-.46.46v.51a10 10 0 0 1 5.5 18v-1.3a9 9 0 1 0-12 0V36a9.98 9.98 0 0 1 5.5-18v-.51l-.46-.46ZM33 38.5v.41a11.96 11.96 0 0 1-10 0V37.5l3-.5v-2h-3v-7h3v-3h-2v-1h8v1h-2v3h3v7h-3v2l3 .5v1Zm-6-5V36c0 .33.2 1 1 1s1-.67 1-1v-2.5c.67-.17 2-.8 2-2s-1.33-1.83-2-2V26c0-.33-.2-1-1-1s-1 .67-1 1v3.5c-.67.17-2 .8-2 2s1.33 1.83 2 2ZM7.5 31v-7H6v-1h4v1H8.5v7h-1ZM43 31v-2.82L41 23h1.15l1.36 3.86L44.84 23H46l-2 5.18V31h-1Z" fill="#F70305"/><path d="m10 31 1.9-8h1.2l1.9 8h-1.18l-.4-2.01H11.6L11.17 31H10Zm1.76-2.81h1.49l-.75-3.61-.74 3.6ZM45 31l1.9-8h1.2l1.9 8h-1.18l-.4-2.01H46.6L46.17 31H45Zm1.76-2.81h1.49l-.75-3.61-.74 3.6Z" fill="#F70305"/></svg>