<!-- by TradingView --><svg width="56" height="56" viewBox="0 0 56 56" xmlns="http://www.w3.org/2000/svg"><path fill="#F0F3FA" d="M0 0h56v56H0z"/><path fill-rule="evenodd" d="M38 14H18a4 4 0 0 0-4 4v20a4 4 0 0 0 4 4h20a4 4 0 0 0 4-4V18a4 4 0 0 0-4-4Zm-20-1a5 5 0 0 0-5 5v20a5 5 0 0 0 5 5h20a5 5 0 0 0 5-5V18a5 5 0 0 0-5-5H18Z" fill="#003365"/><path d="M17 23c-1.6 0-2-1.33-2-2 6 0 11.17-4 13-6 6.4 5.2 11.33 6.17 13 6-.17.67-.8 2-2 2s-1.83-.67-2-1H19c0 .33-.4 1-2 1Z" fill="#CC0001"/><path d="M28.59 17.59 28 17l-.59.59h-.82v.82L26 19l.59.59v.82h.82L28 21l.59-.59h.82v-.82L30 19l-.59-.59v-.82h-.82Z" fill="#2D2C55"/><path fill="#fff" d="M27 18h2v2h-2z"/><path d="M25 23h2c1.13 0 2 .87 2 2v9c0 1.13-.87 2-2 2h-2V23Zm1 1v11h1c.58 0 1-.42 1-1v-9c0-.58-.42-1-1-1h-1ZM30 23h3v1h-2v4h2v1h-2v6h2v1h-3V23Z" fill="#003264"/><path d="M17.46 37.5c-.33-.31-.46-.7-.46-1h1c0 .03.02.15.14.26.11.1.35.24.86.24h17.5c.3 0 .74-.05 1.08-.17.38-.14.42-.27.42-.33h1c0 .74-.63 1.1-1.08 1.27-.49.18-1.05.23-1.42.23H19c-.7 0-1.2-.2-1.54-.5ZM17.46 40.5c-.33.31-.46.7-.46 1h1a.4.4 0 0 1 .14-.26c.11-.1.35-.24.86-.24h17.5c.3 0 .74.05 1.08.17.38.14.42.27.42.33h1c0-.74-.63-1.1-1.08-1.27A4.46 4.46 0 0 0 36.5 40H19c-.7 0-1.2.2-1.54.5Z" fill="#CC0001"/><path d="M34.25 23.85c.2-.42.59-.85 1.25-.85s1.05.43 1.25.85c.2.4.25.85.25 1.15v2h-1v-2c0-.2-.04-.5-.15-.72-.1-.21-.21-.28-.35-.28-.14 0-.25.07-.35.28-.1.22-.15.52-.15.72v9.5c0 .09.03.23.1.33.06.08.16.17.4.17.24 0 .34-.09.4-.17.07-.1.1-.24.1-.33V31h1v3.5c0 .25-.07.6-.3.92-.24.33-.64.58-1.2.58-.56 0-.96-.25-1.2-.58-.23-.31-.3-.67-.3-.92V25c0-.3.06-.75.25-1.15Z" fill="#003264"/><path d="M20 38.5h17v1H20v-1Z" fill="#003264" fill-opacity=".6"/><path d="M20 34V23h1v11c0 .17.06.44.2.65.14.18.36.35.8.35.44 0 .66-.17.8-.35.14-.21.2-.48.2-.65V23h1v11c0 .33-.1.81-.4 1.23-.31.44-.84.77-1.6.77-.76 0-1.29-.33-1.6-.77-.3-.42-.4-.9-.4-1.23Z" fill="#003264"/></svg>