<!-- by TradingView --><svg width="56" height="56" viewBox="0 0 56 56" xmlns="http://www.w3.org/2000/svg"><path fill="#F0F3FA" d="M0 0h56v56H0z"/><path d="M17 38h-6l3.5-4h6L17 38ZM21.5 32h-6l3.5-4h6l-3.5 4ZM26 26h-6l3.5-4h6L26 26Z" fill="#DD1518"/><path d="M30.5 22 27 26.5 37 38h7.5l-14-16ZM18.5 38l3-4 3.5 4h-6.5ZM26 28l-4 4.5 5 5.5h8l-9-10Z" fill="#044885"/><path d="M45.08 38A13.9 13.9 0 0 0 47 31c0-8.69-8.35-16-19-16S9 22.31 9 31c0 2.5.69 4.87 1.92 7H9.77A14.82 14.82 0 0 1 8 31c0-9.39 8.95-17 20-17s20 7.61 20 17c0 2.5-.63 4.87-1.77 7h-1.15Z" fill="#044885"/></svg>