<!-- by TradingView --><svg width="56" height="56" viewBox="0 0 56 56" xmlns="http://www.w3.org/2000/svg"><path fill="#F0F3FA" d="M0 0h56v56H0z"/><path d="M14.07 19.5c-.12 5.38-.05 14.67-.04 16.47 0 .19.1.36.26.45l2.97 1.52c.33.18.74-.07.74-.46V25.53l10 6.97 10-6.97v11.84c0 .4.42.65.74.46l.08-.04 2.92-1.4a.34.34 0 0 0 .07-.04c.12-.1.19-.25.19-.41V19.58c0-.42-.45-.67-.78-.43L28 28.35 14.84 19.1c-.33-.23-.76 0-.77.41Z" fill="#50194E"/><path d="m21.82 30.75-2-1.64c-.33-.26-.82-.03-.82.38v8.53c0 .15.07.29.2.38l8.5 6.5a.5.5 0 0 0 .6 0l8.5-6c.12-.1.2-.25.2-.4v-9c0-.42-.5-.65-.82-.39l-2 1.64a.49.49 0 0 0-.18.38v6.14l-6 3.93-6-4.42v-5.65a.49.49 0 0 0-.18-.38ZM16.23 18.18l11.72-7.1c.16-.1.38-.1.55 0l11.27 7.1c.3.18.3.6 0 .8l-2.46 1.51c-.17.1-.4.1-.56 0l-7.97-5.11a.53.53 0 0 0-.58 0l-4 2.82a.45.45 0 0 0 0 .75l6.78 4.69c.28.19.27.59-.02.77l-2.46 1.52c-.17.1-.39.1-.55-.01l-11.72-6.95a.46.46 0 0 1 0-.79Z" fill="#FFD43B"/><path d="M32.17 23.3c.17.1.4.11.57 0l2.76-1.7c.3-.18.3-.59.01-.77l-6.7-4.3a.53.53 0 0 0-.58.01l-2.35 1.65a.45.45 0 0 0 0 .76l6.3 4.34Z" fill="#FFD43B"/></svg>