<!-- by TradingView --><svg width="56" height="56" viewBox="0 0 56 56" xmlns="http://www.w3.org/2000/svg"><path fill="#F0F3FA" d="M0 0h56v56H0z"/><path d="M16.8 15h22.4l7.8 7.8v10.4L39.2 41H16.8L9 33.2V22.8l7.8-7.8Zm.4 1L10 23.2v9.6l7.2 7.2h21.6l7.2-7.2v-9.6L38.8 16H17.2Z" fill="#1109D0"/><path d="M36 22H21.5c.8 3.6 4.83 5.83 6.5 6.5v8c0 1.2-2 1.5-3 1.5v1h7v-1c-2.4 0-3-1-3-1.5v-8c3.2-1.6 6.33-5 7-6.5Z" fill="#00CCF7"/><path d="M17 25h-1v5h-1.5C13 30 13 29 13 28c0-1.16 1-2 2-3h-1.5c-.8.8-1.5 1.75-1.5 3 0 2.4 1.33 3 2 3h3v-6ZM19 27h-1v4h1v-1c1-.33 3-1.4 3-3s-1.33-2-2-2h-1.5l-.5 1h2c.8 0 1 .67 1 1 0 1.2-1.33 1.83-2 2v-2Z" fill="#0F14F6"/><path d="M28.48 17.95c.4.38.5 1.43.5 1.9-1.5.96-2.5-1.42-3.49-1.42-1 0-4 .47-3.5 3.8.5 3.34 10.49 4.3 10.98 7.63.5 3.33-6.36 2.97-6.48 4.28-.1 1.05 3.28 2.34 4.99 2.86-1.83-.32-5.5-1.33-5.5-2.86 0-1.9 3-2.38 4.5-2.85 1.5-.48 2-1.43 1-2.39-1-.95-10.48-3.33-10.48-6.66C21 18.9 23 17 25.49 17c2.5 0 2.5.48 3 .95Z" fill="#00CCF7"/><path d="M24 25h-1v7l1-1v-2.5h3V31h1v-6h-1v2.5h-3V25ZM34 31h-1v-2h-2c0 1.2.67 2.17 1 2.5l-.5 1c-1-1.5-1.5-2-1.5-4.5 0-2 2-2.83 3-3h1l.5 1H33c-1.2 0-1.83 1.33-2 2h2v-1h1v4ZM38.5 25l.5 1h-1.5c-.8 0-1.5 1-1.5 1.5-.09 1.67 1.63 2.36 2.5 2.5h.5l-.5 1H38c-1.5-.5-3-1.5-3-3.5 0-1.6 1.5-2.5 2-2.5h1.5ZM43.5 25l.5 1h-3v1.5h2.5l-.5 1h-2V30h3l-.5 1H40v-6h3.5Z" fill="#0F14F6"/></svg>