<!-- by TradingView --><svg width="56" height="56" viewBox="0 0 56 56" xmlns="http://www.w3.org/2000/svg"><path fill="#F0F3FA" d="M0 0h56v56H0z"/><path d="M16 13a3 3 0 0 0-3 3v10.47c6.38-.37 20.28 1.28 30 10.54V16a3 3 0 0 0-3-3H16Z" fill="#009E3D"/><path d="M43 38.06c-4.98-4.44-16.43-11.5-30-10.6V40a3 3 0 0 0 3 3h2.14c.24-5.3-1.92-11.41-3.14-14 4.28 2.14 6.76 9.48 7.72 14h3.9c-.98-3.48-3.18-9.38-6.62-13.5 3.28 1.56 9.8 6.33 11.27 13.5h3.4c-1.28-3.56-4.31-9.8-8.67-12.5A20.8 20.8 0 0 1 39.65 43H40a3 3 0 0 0 3-3v-1.94Z" fill="#326DB3"/><path d="M17.86 17.22c.4-.19.86-.22 1.14-.22h2v1h-2c-.22 0-.52.03-.73.13-.1.04-.17.1-.2.15a.35.35 0 0 0-.07.22c0 .18.08.34.29.5a3.85 3.85 0 0 0 1.15.61c.29.12.6.25.84.39.28.16.72.47.72 1 0 .42-.07.81-.27 1.13-.21.34-.53.54-.88.66-.35.11-.76.16-1.22.19-.46.02-1 .02-1.62.02H17v-1c.63 0 1.15 0 1.58-.02.43-.03.73-.07.95-.14.2-.07.3-.15.35-.24.06-.1.12-.26.12-.58a.75.75 0 0 0-.22-.15 6.5 6.5 0 0 0-.68-.32l-.3-.12a4.78 4.78 0 0 1-1.15-.65c-.35-.3-.65-.71-.65-1.28a1.35 1.35 0 0 1 .86-1.28ZM22 17h2c.33 0 .81.1 1.23.4.44.31.77.84.77 1.6 0 .76-.33 1.29-.77 1.6-.42.3-.9.4-1.23.4v-1c.17 0 .44-.06.65-.2.18-.14.35-.36.35-.8 0-.44-.17-.66-.35-.8-.21-.14-.48-.2-.65-.2h-1v5h-1v-6ZM28 17h-1l2 6 1.5-4.5L32 23l2-6h-1l-1 3.5-1-3.5h-1l-1 3.5-1-3.5ZM35.92 17.63A2.44 2.44 0 0 1 37.5 17H39v1h-1.5c-.23 0-.6.09-.92.37-.3.27-.58.75-.58 1.63 0 .88.29 1.36.58 1.63.32.28.7.37.92.37H39v1h-1.5c-.44 0-1.06-.16-1.58-.63-.54-.48-.92-1.25-.92-2.37s.38-1.89.92-2.37Z" fill="#F8F500"/></svg>