<!-- by TradingView --><svg width="56" height="56" viewBox="0 0 56 56" xmlns="http://www.w3.org/2000/svg"><path fill="#F0F3FA" d="M0 0h56v56H0z"/><path d="M30.83 13.02a4.23 4.23 0 0 1 .13.03 3.01 3.01 0 0 0 .25.54l-.25-.04h-.01l-.01-.02a25.49 25.49 0 0 1-.14-.32 27.1 27.1 0 0 1-.25.27l-.25-.04v-.01a2.9 2.9 0 0 0 .42-.43l.11.02ZM28.52 15.6v.01a7.43 7.43 0 0 0 .82 0v.32h-1.36l-.01-.02.02-.5v-1.18a7.95 7.95 0 0 0 0-.64h.55l-.02.64v1.38ZM24.9 14.9l-.02.01a126.31 126.31 0 0 0 .37 1.49l-.32.09-.02-.01-.08-.43a948.09 948.09 0 0 0-.45-1.82v-.01l.41-.12a.03.03 0 0 1 .02.01l1.23 1.24h.01a271.2 271.2 0 0 0-.36-1.47l.33-.09h.01v.01l.1.47a379.32 379.32 0 0 0 .43 1.8l-.38.1a.04.04 0 0 1-.04-.01L24.9 14.9ZM22.63 14.11a4.35 4.35 0 0 1 .12-.04 2.83 2.83 0 0 0 .5.31l-.24.1-.01.01h-.01a25.68 25.68 0 0 1-.3-.2 26.14 26.14 0 0 1-.06.37l-.23.1h-.01a3.07 3.07 0 0 0 .14-.6l.1-.05ZM32.34 14.97h-.01a123.83 123.83 0 0 0-.48 1.45l-.31-.1-.01-.02.16-.4a712.85 712.85 0 0 0 .58-1.8l.4.14h.01v.02l.39 1.73h.01a314.23 314.23 0 0 0 .47-1.43l.31.11h.01v.02l-.17.44a418.78 418.78 0 0 0-.58 1.75l-.37-.12-.02-.01v-.02l-.4-1.76Z" fill="#252269"/><path fill-rule="evenodd" d="m30 15.41.63.1.01.01v.02a3.98 3.98 0 0 1 .08.6l.62.1h.01a326.3 326.3 0 0 1-.42-2.43l-.5-.09-.01.01v.12c0 .02 0 .05-.03.09a259.8 259.8 0 0 1-1.02 1.98l.36.06.02-.01a4.44 4.44 0 0 1 .25-.56Zm.5-1.03-.35.73.45.09v-.01l-.1-.8v-.01ZM23.17 16.6l.59-.27h.02a3.83 3.83 0 0 1 .37.48l.58-.26v-.01a314.99 314.99 0 0 1-1.61-1.81l-.46.2v.02l.05.1.03.09a254.43 254.43 0 0 1 .16 2.23l.34-.15v-.02a4.54 4.54 0 0 1-.07-.6Zm-.12-1.17a96.42 96.42 0 0 0 .1.83 23.65 23.65 0 0 0 .42-.2l-.52-.63Z" fill="#252269"/><path d="m21.44 17.1-.26.18a.01.01 0 0 0 0 .01c.27.42.37.6.58.87v.01l-.46.32h-.01a68.03 68.03 0 0 0-1.24-1.94l.45-.32h.01a8.59 8.59 0 0 0 .5.79 52.72 52.72 0 0 0 .51-.37 8.64 8.64 0 0 0-.51-.78l.45-.32h.01l.01.01.23.4a67.46 67.46 0 0 0 1.02 1.53l-.46.32h-.01c-.17-.3-.28-.47-.55-.88h-.01c-.1.05-.18.11-.26.17ZM35.5 16.47c0-.01 0-.01 0 0a130.87 130.87 0 0 0-.83 1.27l-.28-.19v-.01l.25-.36a769.77 769.77 0 0 0 1.02-1.56l.35.24v.02l-.06 1.78h.01a249.55 249.55 0 0 0 .81-1.25l.28.19v.02l-.27.38a407.92 407.92 0 0 0-1 1.53l-.33-.22-.01-.02v-.02l.06-1.8ZM38.84 18.35a158.73 158.73 0 0 1-1.02 1.03c-.16.18-.27.3-.47.34-.28.06-.55-.13-.75-.34a.89.89 0 0 1-.24-.5.68.68 0 0 1 .18-.55l.79-.83.31-.37h.03l.38.4v.02l-.35.33a63.23 63.23 0 0 1-.85.94c-.12.19 0 .4.16.5.17.13.34.12.49-.04a118.77 118.77 0 0 0 1.1-1.19l.24.24v.02Z" fill="#252269"/><path fill-rule="evenodd" d="m19.72 18.7.26-.27c.3-.3.35-.73.03-1.04-.32-.3-.7-.19-.99.1a319.38 319.38 0 0 0-.62.62l.32.3a1234.26 1234.26 0 0 0 1.16 1.29l.07.09h.01l.4-.4v-.01a10.71 10.71 0 0 1-.64-.68Zm-.71-.77.48.54h.02l.14-.13a.39.39 0 0 0 .11-.26c0-.04 0-.09-.02-.13a.33.33 0 0 0-.07-.12l-.04-.05a.32.32 0 0 0-.24-.1c-.04 0-.09.01-.13.03a.37.37 0 0 0-.12.07l-.13.14Z" fill="#252269"/><path d="M38.92 19.7a119.61 119.61 0 0 0-1.2.9l-.2-.28v-.02a807.47 807.47 0 0 0 1.84-1.34l.24.35a.03.03 0 0 1 0 .03l-.66 1.64c0 .01 0 .02.01 0a263.71 263.71 0 0 0 1.18-.87l.2.28a.02.02 0 0 1 0 .01v.01a378.3 378.3 0 0 0-1.83 1.33h-.01l-.23-.33a.04.04 0 0 1 0-.04l.66-1.66ZM17.66 20.72l-.53-.97v-.03l.2-.32h.01c.22.46.42.84.7 1.37l.01.02a9.03 9.03 0 0 0 .8.5l-.3.5h-.01a9.47 9.47 0 0 0-.8-.54l-.78-.06a12.22 12.22 0 0 0-.7-.04l.33-.53v-.01h.02l.33.04.72.07ZM17.93 23.02a69.9 69.9 0 0 1-.13.26l-.45-.24a467.6 467.6 0 0 0-1.3-.6 2.88 2.88 0 0 0-.2.5l-.29-.13a.01.01 0 0 1 0-.01v-.01a213.04 213.04 0 0 1 .65-1.48l.3.15a2.84 2.84 0 0 0-.23.48l1.28.6.48.2a.01.01 0 0 1 0 .02l-.11.26ZM39.5 23.08c.27-.13.51-.26.73-.39l.24.51a.01.01 0 0 1 0 .01 4.6 4.6 0 0 0-.9.44c-.28-.2-.46-.46-.56-.76-.17-.54.02-1.02.49-1.3.57-.34 1.25-.24 1.62.35a1.43 1.43 0 0 1 .22.71l-.46.23h-.01c.1-.16.15-.31.13-.47a.57.57 0 0 0-.49-.53.82.82 0 0 0-.34.04c-.39.12-1.11.45-.83 1.02a.3.3 0 0 0 .14.14h.01ZM16.84 25.41l-.02-.01a8.99 8.99 0 0 0-.82-.14l.1-.56h.01a4.52 4.52 0 0 0 .97.19c.11.33.12.65.03.95a1 1 0 0 1-1.13.76c-.66-.07-1.15-.56-1.12-1.27a1.43 1.43 0 0 1 .22-.7h.01l.5.09a.64.64 0 0 0-.37.3.6.6 0 0 0 .1.73c.06.06.16.12.3.17.38.14 1.16.32 1.25-.31a.32.32 0 0 0-.03-.2ZM40.58 26.6l-.18.2a1.1 1.1 0 0 1-.45-.78c-.06-.45.16-.84.55-1.04.6-.32 1.39-.19 1.68.52a1.44 1.44 0 0 1 .08.81h-.02l-.5.1v-.01c.25-.23.34-.56.11-.84-.15-.19-.39-.21-.62-.19-.38.04-.99.2-.96.7 0 .23.14.39.3.51a.01.01 0 0 1 .01.01v.01ZM41.48 27.97a38.86 38.86 0 0 0 0 .33 7.92 7.92 0 0 0 .9-.01l.01.56v.01h-.01a63.67 63.67 0 0 0-2.24 0v-.57c.34.02.53.01 1.02.01v-.66c-.49 0-.68 0-1.02.02v-.58h.27a64.16 64.16 0 0 0 1.98 0v.57h-.01a7.95 7.95 0 0 0-.9 0v.32ZM15.4 28.5a117.3 117.3 0 0 0 1.49 0v.35h-.01l-.42-.01a528.44 528.44 0 0 0-1.82 0v-.45l1.45-.94a295.42 295.42 0 0 0-1.45 0v-.36a.01.01 0 0 1 .01-.01l.46.02a374.3 374.3 0 0 0 1.78 0v.41a.04.04 0 0 1-.01.03l-1.48.96Z" fill="#252269"/><path fill-rule="evenodd" d="M16.13 31.3c.6-.1 1.1-.44.97-1.17-.12-.73-.7-.87-1.3-.76-.6.12-1.1.45-.98 1.18.13.73.7.87 1.3.75Zm.3-.66c.21-.07.44-.2.4-.46-.05-.27-.31-.3-.53-.3a3.32 3.32 0 0 0-.8.16c-.21.06-.44.2-.4.46.05.27.3.3.52.3a3.3 3.3 0 0 0 .82-.16ZM40.6 29.74l-.1.66h-.01l-.01.01a3.58 3.58 0 0 1-.59.06l-.1.65v.01l.45-.09a303.69 303.69 0 0 1 1.9-.3l.09-.52a.02.02 0 0 0-.01-.02h-.11a233.43 233.43 0 0 1-1.98-1.12l-.06.37v.02a4.18 4.18 0 0 1 .54.27Zm1 .53-.7-.37h-.01l-.09.47v.01h.01l.78-.1Z" fill="#252269"/><path d="M14.31 30.65a24.33 24.33 0 0 1 .33.15l.05.26v.01h-.01a2.8 2.8 0 0 0-.53-.28 4.2 4.2 0 0 1-.03-.24 2.9 2.9 0 0 0 .4-.43l.05.26a.02.02 0 0 1 0 .02 24.63 24.63 0 0 1-.26.25ZM42.39 30.62h-.03v-.01l.02-.16.01-.01.2.03h.01a.01.01 0 0 1 0 .01c-.03.15.09.26.22.2.06-.03.09-.13.05-.19a.18.18 0 0 0-.09-.08v-.01l.17-.1a.01.01 0 0 1 .01 0c.05.08.07.17.07.26 0 .23-.16.48-.41.4-.13-.05-.2-.15-.21-.32 0 0 0-.02-.02-.02ZM16.87 31.56l.14-.22h.01c.29.14.48.37.57.67.13.44-.02.87-.37 1.14-.54.42-1.33.43-1.74-.21a1.43 1.43 0 0 1-.22-.79h.02l.47-.19h.01v.01c-.2.27-.24.62.03.85.18.15.42.14.65.07.36-.1.94-.37.83-.87-.05-.22-.2-.35-.4-.44a.01.01 0 0 1 0-.02ZM40.67 32.53l.72.82v.03l-.11.36h-.01c-.31-.4-.59-.71-.98-1.17l-.02-.01a8.75 8.75 0 0 0-.88-.31l.18-.54h.02a9.22 9.22 0 0 0 .88.32 4620.84 4620.84 0 0 1 1.43-.25h.03l-.2.6v.01h-.01l-.33.04-.72.1Z" fill="#252269"/><path fill-rule="evenodd" d="m17.73 35.63-.02.01a1637.43 1637.43 0 0 1-1.7.28 1867.77 1867.77 0 0 1 1.23 1.28 3509.66 3509.66 0 0 1-.28 1.8 1871.22 1871.22 0 0 1 1.54-.84l1.54.84a1966.04 1966.04 0 0 1-.28-1.81L21 35.92v-.01a1637.3 1637.3 0 0 1-1.73-.28A1332.43 1332.43 0 0 1 18.5 34l-.76 1.63Zm.73 1.1L16.2 36l1.1 1.13 1.14-.35v.03a3317.06 3317.06 0 0 0-1.34 2.01l1.33-.74.01-.01v-.02l.04-1.24a.01.01 0 0 1 .02 0l1.4 1.98c.02.04.02.04.01 0v-.05a368.64 368.64 0 0 0-.28-1.53l-1.1-.43c-.02-.01-.02-.02 0-.03a4356.95 4356.95 0 0 1 2.24-.77l-1.5-.23h-.02l-.01.02-.73.96c-.01.02-.02.01-.02-.01v-2.47c0-.02 0-.02-.01 0l-.67 1.43v.03l.65 1.02v.01ZM36.73 35.63l-.02.01a1637.43 1637.43 0 0 1-1.7.28 1867.77 1867.77 0 0 1 1.23 1.28 3509.66 3509.66 0 0 1-.28 1.8 1871.22 1871.22 0 0 1 1.54-.84l1.54.84a1966.04 1966.04 0 0 1-.28-1.81L40 35.92v-.01a1637.3 1637.3 0 0 1-1.73-.28A1332.43 1332.43 0 0 1 37.5 34l-.76 1.63Zm.73 1.1L35.22 36c-.02 0-.02 0 0 0l1.09 1.13 1.14-.35v.03a3317.06 3317.06 0 0 0-1.34 2.01l1.33-.74.01-.01v-.02l.04-1.24a.01.01 0 0 1 .02 0l1.4 1.98c.02.04.02.04.01 0v-.05a368.64 368.64 0 0 0-.28-1.53l-1.1-.43c-.02-.01-.02-.02 0-.03a4356.95 4356.95 0 0 1 2.24-.77l-1.5-.23h-.02l-.01.02-.73.96c-.01.02-.02.01-.02-.01v-2.47c0-.02 0-.02-.01 0l-.67 1.43v.03l.65 1.02v.01Z" fill="#EB2228"/><path d="M31.76 38.75v.03l-.13.04h-.01l-.06-.2a.01.01 0 0 1 .01 0c.12-.03.17-.17.07-.26-.04-.04-.13-.02-.17.03a.17.17 0 0 0-.02.1v.01h-.01l-.15-.1v-.01c.05-.07.1-.12.17-.16.18-.09.44-.05.47.2.02.12-.04.22-.16.29v.03ZM22.9 40a3.02 3.02 0 0 0 .05-.03 238.45 238.45 0 0 0 1-1.06l.27.14v.01l-.3.3a2371.13 2371.13 0 0 1-1.08 1.14l-.03.16-.42-.21h-.01v-.02a6980.73 6980.73 0 0 0 .29-2.18l.47.24v.03l-.07.38-.16 1.1ZM32.95 39.73a116.73 116.73 0 0 0 .54 1.27l-.27.12h-.02l-.13-.37a746.39 746.39 0 0 0-.66-1.55l.34-.16a.02.02 0 0 1 .02 0l1.27.9a242.22 242.22 0 0 0-.53-1.24l.28-.13a.01.01 0 0 1 .01 0l.15.4a344.7 344.7 0 0 0 .65 1.52l-.33.16a.03.03 0 0 1-.03 0l-1.29-.92ZM25 38.94c.1.03.17.03.23-.04h.02l.18.05v.02c-.08.21-.3.25-.5.19-.18-.07-.34-.24-.28-.46l.01-.01.19.07v.01c.01.1.07.14.16.17ZM31.4 38.79a3.53 3.53 0 0 1 .1-.02 2.57 2.57 0 0 0 .41.33l-.22.07h-.02l-.23-.22a22.17 22.17 0 0 1-.1.32l-.23.07v-.01a2.72 2.72 0 0 0 .19-.51l.1-.03ZM31.76 40.61l.16.6c0 .01.01.02.02.01a6.52 6.52 0 0 0 .77-.22l.07.27v.01l-1.24.36-.01-.01-.05-.21a133.38 133.38 0 0 0-.48-1.8l1.19-.35h.01l.07.27a8.97 8.97 0 0 0-.74.21l.16.58h.01a3.65 3.65 0 0 0 .56-.17l.08.29a3.72 3.72 0 0 0-.58.16ZM26.04 40.34a115.16 115.16 0 0 0-.21 1.37l-.3-.05v-.01l.07-.39a892.57 892.57 0 0 0 .26-1.67l.38.06.01.01.59 1.47c0 .02 0 .02.01 0a237.71 237.71 0 0 0 .2-1.33l.3.05h.01v.01l-.08.42a327.83 327.83 0 0 0-.26 1.63l-.35-.05h-.02v-.02l-.6-1.5ZM30.86 40.7a20.22 20.22 0 0 0 .17 1.03 8.99 8.99 0 0 1-.48.08 20.1 20.1 0 0 0-.16-1.03 20.13 20.13 0 0 0-.17-1.03 8.77 8.77 0 0 1 .48-.07 20.07 20.07 0 0 0 .16 1.02Z" fill="#252269"/><path fill-rule="evenodd" d="M24.06 40.63h.01l.54.19h.01v.02a3.56 3.56 0 0 1-.02.54l.54.19.01-.01-.02-.42a285.67 285.67 0 0 1-.02-1.8l-.43-.14a.01.01 0 0 0-.01 0v.01l-.01.1a213.87 213.87 0 0 1-1.21 1.68l.3.1h.02a3.93 3.93 0 0 1 .3-.46Zm.59-.83-.41.58v.01l.39.14.03-.73h-.01ZM28.53 40.87a24.51 24.51 0 0 0 .04 1.03v.09l.01.01.7-.04c.22-.02.4-.1.55-.27.24-.28.26-.68.2-1.05-.08-.51-.4-.8-.92-.77a263.02 263.02 0 0 0-.65.05 6.94 6.94 0 0 1 .05.73h-.14c-.02 0-.03.02-.03.04l.01.15c0 .03.02.04.04.04l.13-.01Zm.7-.05-.22.02-.01.01.05.83h.25c.24-.08.27-.35.28-.59 0-.23-.02-.43-.06-.6-.04-.14-.14-.33-.3-.34h-.25l-.01.01.03.45h.23l.01.2v.01Z" fill="#252269"/><path fill-rule="evenodd" d="M28 44a16 16 0 1 0 0-32 16 16 0 0 0 0 32Zm0 1a17 17 0 1 0 0-34 17 17 0 0 0 0 34Z" fill="#EB2228"/><path fill-rule="evenodd" d="M28 37a9 9 0 1 0 0-18 9 9 0 0 0 0 18Zm0 1a10 10 0 1 0 0-20 10 10 0 0 0 0 20Z" fill="#EB2228"/><path fill-rule="evenodd" d="M20 29.5V33h16v-5h-6.5v.5c0 .17.1.5.5.5v3h-1v-9c.17 0 .5-.1.5-.5s-.33-.5-.5-.5c0-.17.1-.5.5-.5.25 0 .5.38.75.75.25.38.5.75.75.75s.5-.13.75-.25c.25-.13.5-.25.75-.25s.5.13.75.25c.25.13.5.25.75.25.4 0 .5-.33.5-.5-.17.17-.7.3-1.5-.5-.59-.59-1-.31-1.34-.09-.25.16-.45.3-.66.09-.14-.14-.24-.31-.34-.5-.27-.47-.57-1-1.66-1-.33 0-1 .3-1 1.5-.17 0-.5.1-.5.5s.33.5.5.5v9h-1v-3c.17 0 .5-.1.5-.5V28H25v-2c.17 0 .5-.1.5-.5s-.33-.5-.5-.5l1-1h-.5l-.5.5h-.5c0-.17-.1-.5-.5-.5s-.5.33-.5.5c0 .17.1.5.5.5v.5c-.17 0-.5.1-.5.5s.33.5.5.5v.5h-2v-.5c.17 0 .5-.1.5-.5s-.33-.5-.5-.5V25l1-1h-.5l-.5.5h-.5c0-.17-.1-.5-.5-.5s-.5.33-.5.5c0 .17.1.5.5.5v.5c-.17 0-.5.1-.5.5s.33.5.5.5v.5h-1.5v.5c0 .28.22.5.5.5v.5h-.5v.5c0 .17.1.5.5.5Zm1.5.5H21v1.5h.5V30Zm1 0H22v1.5h.5V30Zm.5 0h.5v1.5H23V30Zm1.5 0H24v1.5h.5V30Zm.5 0h.5v1.5H25V30Zm7.5 1.5V30H31v1.5h1.5ZM33 30h1.5v1.5H33V30Z" fill="#EB2228"/></svg>