<!-- by TradingView --><svg width="56" height="56" viewBox="0 0 56 56" xmlns="http://www.w3.org/2000/svg"><path fill="#F0F3FA" d="M0 0h56v56H0z"/><path fill-rule="evenodd" d="M47.85 31.25c-.92 2.1-2.73 4-5.22 5.54a25.76 25.76 0 0 1-9.43 3.33c4.27-1.5 7.56-4.8 8.72-8.87h-.46c-1.4 4.66-5.7 8.29-11.13 9.1a8.47 8.47 0 0 0 3.06-3.32 7.81 7.81 0 0 0 4.38-5.78h10.08Zm-12.6 0c-.15 1-.36 1.95-.63 2.84a6.25 6.25 0 0 0 1.56-2.84H8.15c.92 2.1 2.73 4 5.22 5.54a25.1 25.1 0 0 0 8.25 3.12 2.06 2.06 0 0 1-.04-.27 13.39 13.39 0 0 1-7.5-8.39h.46a12.95 12.95 0 0 0 7.09 7.9c.08-.28.28-.5.67-.57.28-.05.64-.1 1.06-.15l.16-.02a15.65 15.65 0 0 1-2.77-7.16h.44c.34 2.2 1 4.15 1.89 5.7.3.51.62.98.96 1.4a29.6 29.6 0 0 0 3.96-.77v-6.33h.52v6.19a15.01 15.01 0 0 0 5.41-2.7c.39-1.06.69-2.24.88-3.49h.44Zm-9.58 9.1c-.5-.07-1-.17-1.48-.3.18-.13.42-.24.57-.3h.03c.28.23.58.44.88.6Zm2.33.18c-.92 0-1.81-.32-2.64-.92.66-.16 1.58-.4 2.64-.72v1.64Zm.52-.03v-1.77c1.28-.39 2.72-.87 4.18-1.42-1.15 1.84-2.61 2.98-4.18 3.19Zm19.55-9.8a7.86 7.86 0 0 0 0-5.4H7.93a7.86 7.86 0 0 0 0 5.4h40.14ZM8.15 24.76h5.93c1.16-4.07 4.45-7.37 8.72-8.87a25.76 25.76 0 0 0-9.43 3.33c-2.49 1.55-4.3 3.45-5.22 5.54Zm6.4 0h6.2c.26-1.76.73-3.38 1.36-4.77v-.02c0-.86.48-1.58 1.24-2.15a7.55 7.55 0 0 1 2.32-2.17c-5.43.82-9.73 4.45-11.13 9.11Zm6.64 0c.22-1.44.58-2.78 1.06-3.96.45 1.27 2.01 1.96 4.07 2.43.52.12 1.1.28 1.68.46v1.07h-6.8Zm7.33 0v-.9c.9.3 1.8.62 2.54.9h-2.54Zm0-2.73c2.04.53 4.8 1.42 6.24 2.42-.35-2.08-1-3.92-1.84-5.39a9.53 9.53 0 0 0-1.47-1.96l-.38.03c-.76.04-1.65.18-2.55.4v4.5Zm6.73 2.73c-.48-3.25-1.67-6-3.26-7.75.62-.15.95-.4 1.1-.67 4.1 1.45 7.22 4.59 8.37 8.42h-6.2Zm-4.84-9.06.08-.02-.16-.03.08.05Zm2.8.19c4.27 1.5 7.55 4.8 8.7 8.87h5.94c-.92-2.1-2.73-4-5.22-5.54a25.75 25.75 0 0 0-9.43-3.33Zm-4.69.17 1.14-.22a4.26 4.26 0 0 0-1.14-.33v.55Zm-.52-.58v.69l-1.39.29c-.74.16-1.47.39-2.1.68A4.92 4.92 0 0 1 28 15.47Zm0 6.42v-4.25c-2.15.57-4.15 1.5-4.15 2.32 0 1 2.3 1.59 3.44 1.76l.71.17Zm.52 19.1C39.88 40.83 49 35.08 49 28s-9.12-12.82-20.48-13H28C16.4 15 7 20.82 7 28s9.4 13 21 13h.52ZM12.48 30h.93l1.49-4h-.98l-.97 3.04-.97-3.04H11l1.48 4Zm2.76 0H16v-4h-.76v4ZM20 28v-2h-.76v2.68L17.76 26H17v4h.76v-2.68L19.24 30H20v-2Zm3.16-2h-.82l-1.58 4h.93l.3-.84h1.53l.3.84h.93l-1.6-4Zm.13 2.51h-1.08l.54-1.54.54 1.54Zm5.08.15h-.85a.89.89 0 0 1-.1.39.57.57 0 0 1-.27.24c-.12.05-.27.08-.44.08a.9.9 0 0 1-.4-.08.67.67 0 0 1-.25-.24c-.07-.1-.12-.23-.15-.38a2.6 2.6 0 0 1-.05-.53v-.28c0-.2.02-.38.05-.54.04-.15.1-.28.16-.38.08-.1.16-.18.27-.23.1-.05.23-.07.37-.07.2 0 .34.02.46.08.11.06.2.14.26.25.05.1.09.24.1.4h.85c-.03-.27-.1-.5-.24-.7-.13-.21-.32-.38-.56-.5a1.95 1.95 0 0 0-.87-.17c-.26 0-.5.04-.7.13a1.54 1.54 0 0 0-.9.97c-.07.23-.11.48-.11.77v.27c0 .28.04.54.12.77a1.51 1.51 0 0 0 .88.96c.2.09.44.13.7.13.35 0 .64-.06.88-.17a1.35 1.35 0 0 0 .8-1.17ZM33 27.9v.18c0 .3-.05.57-.15.8a1.7 1.7 0 0 1-1.04.98c-.24.09-.51.13-.8.13-.3 0-.57-.04-.82-.13a1.72 1.72 0 0 1-1.05-.98c-.1-.23-.14-.5-.14-.8v-.18c0-.3.05-.56.15-.8a1.7 1.7 0 0 1 1.04-.98c.24-.09.51-.13.8-.13.3 0 .57.04.82.13.24.09.45.21.63.38s.31.37.41.6c.1.24.15.5.15.8Zm-.8.18v-.19c0-.82-.55-1.26-1.2-1.26-.64 0-1.18.43-1.18 1.26v.2c0 .8.52 1.26 1.18 1.26.66 0 1.2-.46 1.2-1.27ZM41 30v-.67h-2.22v-1.07h1.9v-.63h-1.9v-.96H41V26h-3v4h3Zm2.27-2.6-.75-1.4h-.95l1.17 1.98-1.2 2.02h.96l.77-1.42.78 1.42H45l-1.2-2.02L44.98 26h-.94l-.76 1.4ZM37 26v4h-.76l-1.48-2.68V30H34v-4h.76l1.48 2.68V26H37Z" fill="#0B2C57"/></svg>