<!-- by TradingView --><svg width="56" height="56" viewBox="0 0 56 56" xmlns="http://www.w3.org/2000/svg"><path fill="#F0F3FA" d="M0 0h56v56H0z"/><path d="M14 21v15.5L28 44l13-8V21l-13-9-14 9Z" fill="#FFC114"/><path fill-rule="evenodd" d="M18 23h5l2 5 2-5h7c1 0 3 .6 3 3 0 .83-.2 2.5-1 2.5.5.17 1.5.9 1.5 2.5 0 2-1.5 3-2.5 3H22l-4-11Zm12 4v-1h2.5c.17 0 .5.1.5.5s-.33.5-.5.5H30Zm0 4v-1h2.5c.17 0 .5.1.5.5s-.33.5-.5.5H30Z" fill="#DC332C"/><path d="M29.5 44H28l13-8 1 .5L29.5 44Z" fill="#FBDA24"/><path d="m42 36.5-1-.5V21l-13-9 14 9v15.5Z" fill="#F4850A"/></svg>