<!-- by TradingView --><svg width="56" height="56" viewBox="0 0 56 56" xmlns="http://www.w3.org/2000/svg"><path fill="#F0F3FA" d="M0 0h56v56H0z"/><path d="m28.08 12 .08.03A25.2 25.2 0 0 1 34 14.86c.79-.28 1.5-.56 2.07-.82A16.86 16.86 0 0 0 28.08 12Zm-.12 0c-2.92 0-5.66.75-8.03 2.04.4.18.87.37 1.38.57 2.27-1.51 4.78-2.3 6.6-2.6l.05-.01Zm-9.08 2.66a16.48 16.48 0 0 0-3.03 2.5c.53.3 1.14.62 1.82.95a12.78 12.78 0 0 1 2.67-2.8c-.57-.23-1.06-.46-1.46-.65Zm-3.72 3.27A15.77 15.77 0 0 0 12 24h3.65c.14-1.95.68-3.61 1.49-5.03-.75-.36-1.41-.72-1.98-1.04ZM16.68 24h3.1c.09-1.27.36-2.47.75-3.58a36.8 36.8 0 0 1-2.46-1.02 10.8 10.8 0 0 0-1.39 4.6Zm4.13 0h3.08c.05-.84.14-1.67.27-2.48-.9-.2-1.8-.46-2.66-.75-.35 1-.6 2.08-.69 3.23Zm4.12 0h6.14c-.04-.77-.12-1.53-.24-2.26-.97.16-1.93.26-2.83.26-.92 0-1.87-.1-2.83-.27-.12.74-.2 1.5-.24 2.27Zm7.18 0h3.08c-.08-1.14-.3-2.2-.61-3.17-.9.28-1.82.52-2.73.72.12.8.21 1.61.26 2.45Zm4.12 0h3.13c-.1-1.57-.7-3-1.6-4.29a47.18 47.18 0 0 1-2.2.8c.35 1.07.58 2.23.67 3.49Zm4.16 0H44a15.74 15.74 0 0 0-2.9-5.75c-.7.34-1.5.7-2.37 1.07A9.3 9.3 0 0 1 40.39 24Zm.04-6.54a16.46 16.46 0 0 0-3.31-2.8c-.55.26-1.27.58-2.1.9a15.7 15.7 0 0 1 3.1 2.93c.84-.35 1.62-.7 2.31-1.03Zm-18.97-1.73-.62.47a11.8 11.8 0 0 0-2.23 2.35 36.87 36.87 0 0 0 2.3.94 15.5 15.5 0 0 1 1.95-3.3c-.49-.15-.96-.3-1.4-.46Zm2.1-.39-1.03-.3c.87-.52 1.76-.93 2.61-1.25-.53.45-1.06.97-1.58 1.55Zm.38 1.13a15.29 15.29 0 0 0-2.07 3.36c.81.28 1.64.52 2.47.7.27-1.35.65-2.62 1.06-3.76-.5-.08-.98-.18-1.46-.3Zm1.82-.66c-.36-.05-.72-.12-1.07-.2.64-.67 1.3-1.24 1.92-1.7-.28.56-.57 1.2-.85 1.9Zm.68 1.1a26.1 26.1 0 0 0-1.1 3.83c.91.17 1.8.26 2.66.26.84 0 1.73-.09 2.66-.25-.29-1.39-.68-2.69-1.1-3.84a14.67 14.67 0 0 1-3.12 0Zm2.74-.96a13.28 13.28 0 0 1-2.36 0c.4-.99.82-1.82 1.18-2.46.36.64.78 1.47 1.18 2.46Zm1.42.82c.42 1.14.8 2.42 1.07 3.79.85-.18 1.7-.41 2.56-.67a13.5 13.5 0 0 0-2.08-3.44c-.5.12-1.02.23-1.55.32Zm.8-1.17c-.39.08-.77.15-1.16.21-.3-.72-.59-1.37-.88-1.94.65.45 1.35 1.03 2.03 1.73Zm1.83.56c.76.97 1.45 2.11 1.99 3.41a42.45 42.45 0 0 0 1.9-.69 14.98 14.98 0 0 0-1.82-1.8c-.47-.4-.96-.77-1.46-1.11l-.61.19Zm-.49-.9-.22.06-.4-.44.62.37ZM28.06 44a17.5 17.5 0 0 1-6.47-2.58c-.57.22-1.07.43-1.5.63A16.87 16.87 0 0 0 28 44h.06Zm-9.03-2.56c.42-.21.96-.46 1.59-.72l-.16-.12c-.93-.75-1.79-1.64-2.5-2.68-.76.36-1.43.72-2 1.04.92.94 1.95 1.77 3.07 2.48Zm-3.76-3.24c.6-.35 1.33-.74 2.15-1.14-.81-1.42-1.36-3.1-1.5-5.06H12c.61 2.3 1.75 4.41 3.27 6.2Zm1.69-6.2c.13 1.8.64 3.32 1.39 4.62a38.1 38.1 0 0 1 2.46-1.02 13.7 13.7 0 0 1-.76-3.6h-3.1Zm4.13 0c.09 1.16.33 2.25.7 3.26.86-.29 1.75-.55 2.65-.75-.14-.82-.23-1.66-.27-2.51H21.1Zm4.12 0h6.14c-.04.78-.12 1.55-.24 2.29-.97-.16-1.93-.26-2.83-.26-.92 0-1.88.1-2.83.27a21.5 21.5 0 0 1-.24-2.3Zm7.18 0c-.04.85-.13 1.68-.26 2.48.9.2 1.83.44 2.73.72.32-.98.53-2.04.61-3.2H32.4Zm4.12 0a14.2 14.2 0 0 1-.67 3.52 43.43 43.43 0 0 1 2.2.8c.9-1.3 1.5-2.74 1.6-4.32H36.5Zm4.16 0a9.3 9.3 0 0 1-1.66 4.71c.78.33 1.5.65 2.15.96A15.73 15.73 0 0 0 44 32h-3.33Zm-.18 6.47c-.63-.3-1.34-.61-2.1-.93a15.71 15.71 0 0 1-3.1 2.93c.75.28 1.4.56 1.92.81 1.22-.8 2.33-1.74 3.28-2.81Zm-4.32 3.44c-.54-.24-1.18-.5-1.89-.74a25.23 25.23 0 0 1-5.8 2.82c2.79-.07 5.4-.82 7.69-2.08ZM21.74 40.3a11.8 11.8 0 0 1-2.84-2.82 36.87 36.87 0 0 1 2.28-.94 15.5 15.5 0 0 0 1.96 3.3c-.49.15-.96.3-1.4.46Zm2.1.39-1.03.3c.86.52 1.75.93 2.61 1.25-.53-.45-1.06-.97-1.58-1.55Zm.38-1.13a15.2 15.2 0 0 1-2.07-3.36c.81-.28 1.64-.52 2.46-.7a27 27 0 0 0 1.06 3.76c-.49.08-.98.18-1.45.3Zm1.82.65-1.07.2c.64.68 1.3 1.25 1.92 1.7-.28-.55-.57-1.19-.85-1.9Zm.68-1.1a26.09 26.09 0 0 1-1.1-3.83c.91-.16 1.8-.25 2.66-.25.84 0 1.73.09 2.66.24-.29 1.4-.68 2.7-1.1 3.85a14.66 14.66 0 0 0-3.12 0Zm2.74.97a13.28 13.28 0 0 0-2.36 0c.4.99.82 1.82 1.18 2.46.36-.64.78-1.47 1.18-2.46Zm1.42-.82c.42-1.14.8-2.42 1.07-3.79.85.18 1.7.41 2.56.67a13.5 13.5 0 0 1-2.08 3.44c-.5-.12-1.02-.23-1.55-.32Zm.8 1.17a19.1 19.1 0 0 0-1.16-.22c-.3.73-.6 1.38-.88 1.95.65-.45 1.35-1.03 2.03-1.73Zm1.83-.56c.76-.97 1.45-2.11 1.98-3.41a43.18 43.18 0 0 1 1.91.69c-.54.64-1.16 1.24-1.82 1.8-.47.4-.96.77-1.46 1.11l-.61-.19Zm-.49.9-.22-.06-.4.43.62-.36Z" fill="#751320"/><path d="M40 26v1.66h-.15a1.74 1.74 0 0 0-.64-1 1.73 1.73 0 0 0-1.06-.34 1.68 1.68 0 0 0-1.5.93 2.8 2.8 0 0 0-.25 1.18c0 .43.06.82.18 1.17s.3.62.56.8c.25.18.58.27.99.27.33 0 .63-.07.9-.2.28-.13.57-.36.88-.68v.41c-.3.28-.6.49-.92.61-.32.13-.7.19-1.12.19a3.5 3.5 0 0 1-1.5-.3 2.32 2.32 0 0 1-.98-3.4c.27-.42.62-.74 1.07-.96a3.13 3.13 0 0 1 2.6-.12c.24.08.39.13.45.13a.3.3 0 0 0 .22-.09c.06-.05.1-.14.12-.26H40ZM29.47 28.35c.51.1.87.24 1.08.4.3.22.45.51.45.87 0 .38-.16.69-.5.93-.4.3-.98.45-1.75.45H26v-.14c.25 0 .42-.02.5-.06a.4.4 0 0 0 .2-.17c.03-.07.05-.24.05-.5v-3.25c0-.27-.02-.44-.05-.51a.37.37 0 0 0-.2-.17c-.08-.04-.25-.06-.5-.06V26h2.6c.62 0 1.06.05 1.32.15.26.1.46.26.6.46.16.2.23.42.23.65 0 .24-.1.45-.28.64-.2.19-.52.34-1 .45Zm-1.46-.1c.38 0 .66-.04.84-.12a.93.93 0 0 0 .42-.33c.1-.14.14-.33.14-.55 0-.22-.05-.4-.14-.54a.87.87 0 0 0-.4-.32c-.18-.08-.47-.11-.86-.11v1.97Zm0 .29v1.79c0 .13.04.23.1.3.08.06.2.1.34.1.2 0 .4-.05.58-.13a.95.95 0 0 0 .42-.38c.1-.17.14-.35.14-.56 0-.23-.06-.44-.17-.63a.93.93 0 0 0-.49-.39c-.2-.07-.5-.1-.92-.1ZM22 26v.13a.95.95 0 0 0-.55.29c-.12.12-.29.4-.52.85L19 31h-.14l-1.93-3.89a4.58 4.58 0 0 0-.47-.82c-.08-.08-.23-.13-.45-.16V26h2.7v.13h-.09c-.24 0-.4.03-.5.08a.17.17 0 0 0-.1.16l.04.16.23.47 1.2 2.43 1.11-2.16c.14-.27.22-.44.25-.53a.72.72 0 0 0 .04-.23.3.3 0 0 0-.06-.19.41.41 0 0 0-.2-.13 1.5 1.5 0 0 0-.47-.06V26H22Z" fill="#F80303"/></svg>