<!-- by TradingView --><svg width="56" height="56" viewBox="0 0 56 56" xmlns="http://www.w3.org/2000/svg"><path fill="#F0F3FA" d="M0 0h56v56H0z"/><path fill-rule="evenodd" d="M28 39c11.05 0 21-4.92 21-11s-9.95-11-21-11S7 21.92 7 28s9.95 11 21 11ZM12 26.05v-.01.01Zm0-.05c0-3.31 4.25-6 9.5-6s9.5 2.69 9.5 6c0 .34-.05.67-.13 1h6.03c.07-.33.1-.66.1-1 0-4.42-5.6-8-12.5-8S12 21.58 12 26Zm11.94 1h2.84c.14-.32.22-.65.22-1 0-2.2-3.13-4-7-4s-7 1.8-7 4l.01.25c.2-1.82 2.58-3.25 5.49-3.25 3.04 0 5.5 1.57 5.5 3.5 0 .17-.02.34-.06.5ZM36 34v-6h-1.5v2.5h-2V28H31v6h1.5v-2.5h2V34H36Zm-7.27-3.08c.7.12 1.27.73 1.27 1.46 0 1.16-1.17 1.62-2.17 1.62H25v-6h2.71c.95 0 2.14.42 2.14 1.55 0 .7-.44 1.18-1.12 1.37Zm-2.23-.44h1.02c.64 0 .98-.27.98-.75s-.35-.73-.98-.73H26.5v1.48ZM27.65 33c.64 0 1.01-.27 1.01-.77 0-.52-.4-.83-1.04-.83H26.5V33h1.15Zm-5.9 1L24 28h-1.5L21 32.5 19.5 28H18l2.25 6h1.5Z" fill="#73AEE8"/><path fill-rule="evenodd" d="M12 28c0-.34.03-.67.08-1h31.84c.05.33.08.66.08 1 0 5.52-7.16 10-16 10s-16-4.48-16-10Zm24 6v-6h-1.5v2.5h-2V28H31v6h1.5v-2.5h2V34H36Zm-7.27-3.08c.7.12 1.27.73 1.27 1.46 0 1.16-1.17 1.62-2.17 1.62H25v-6h2.71c.95 0 2.14.42 2.14 1.55 0 .7-.44 1.18-1.12 1.37Zm-2.23-.44h1.02c.64 0 .98-.27.98-.75s-.35-.73-.98-.73H26.5v1.48ZM27.65 33c.64 0 1.01-.27 1.01-.77 0-.52-.4-.83-1.04-.83H26.5V33h1.15Zm-5.9 1L24 28h-1.5L21 32.5 19.5 28H18l2.25 6h1.5Z" fill="#256BA7"/></svg>