<!-- by TradingView --><svg width="56" height="56" fill="none" xmlns="http://www.w3.org/2000/svg"><path fill="#F0F3FA" d="M0 0h56v56H0z"/><path fill-rule="evenodd" clip-rule="evenodd" d="M41 13v31h-4V17c-1.94.031-3.605.53-5.01 1.31-.447-.777-1.32-1.845-2.88-3.103C31.494 13.719 33.98 13 35.696 13H41ZM26 27.756c0-1.176.424-2.849 1.308-4.526-.844-1.722-2.122-2.828-3.013-3.372C22.91 21.975 22 24.6 22 27.756V44h4V27.756ZM15 44V13h5.304C24.67 13 34 17.65 34 27.756V44h-4V27.756C30 24.428 26.603 17.123 19 17v27h-4Z" fill="#F7941E"/></svg>