<!-- by TradingView --><svg width="56" height="56" viewBox="0 0 56 56" xmlns="http://www.w3.org/2000/svg"><path fill="#F0F3FA" d="M0 0h56v56H0z"/><path d="m44.48 16.02.86 3.8a.02.02 0 0 1 0 .02l-.01.01H42.22a.02.02 0 0 1-.01-.03l2.23-3.8V16h.02a.02.02 0 0 1 .02.02ZM40 22.24v-.04a308.83 308.83 0 0 0-4.12-2.34l.04-.02a3631.23 3631.23 0 0 0 4 .02l1.32.87c.34.21.72.31 1.14.28l1.6-.1c.09 0 .09 0 .01.04-2.48 1.13-4.99 2.77-6.35 5.15-.08.13-.1.12-.05-.02a9.01 9.01 0 0 1 2.4-3.84ZM51.96 19.9l-.14.05-4 1.98c-1.08.54-2.04.98-3.1 1.53-.4.2-.9.55-.7 1.03.02.04.01.05-.03.03l-.47-.28c-1.48-.85 2.01-3.85 2.66-4.38a629141.78 629141.78 0 0 1 5.75-.02s.03 0 .06.03v.02h-.02Z" fill="#E0A94E"/><path d="m46.35 22.87.87 3.58c.01.05 0 .06-.05.03-.98-.63-1.95-1.24-2.93-1.84-.06-.04-.1-.12-.1-.25 0-.36.32-.62.6-.77.5-.27 1.02-.53 1.54-.78.04-.02.06 0 .07.03Z" fill="#E0A94E"/><path d="m21.23 29.07.14.1c.23.16.41.4.53.7.07.16.1.44.1.86v1.85c0 .32-.03.56-.08.72a2.5 2.5 0 0 1-1.93 1.64c-.18.04-.47.06-.88.06A3753.45 3753.45 0 0 1 8 34.98a.06.06 0 0 1-.01-.04v-10.9c0-.02.01-.03.03-.04h10.41c.64 0 1.09.04 1.34.11.8.23 1.48.87 1.72 1.71.05.17.07.43.07.79v1.79c0 .21-.12.42-.34.61-.02.02-.02.04 0 .06Zm-3.7-2.34c0-.41-.34-.73-.73-.73H12v2.49a.03.03 0 0 0 .02.03h5.51v-1.79Zm.43 3.94c-.08-.19-.3-.36-.5-.36a3010.72 3010.72 0 0 0-5.45 0V33H18l.01-.02v-1.98a.92.92 0 0 0-.04-.32ZM33 31.06a.05.05 0 0 0-.01-.04h-.02l-.02-.02h-2.94l-.01-.03v-.64c.01-.6.38-1.03.93-1.23.17-.07.42-.1.74-.1h5.28c.03 0 .04.01.04.04v3.4c0 .4-.03.7-.09.9-.27.84-1 1.4-1.83 1.6-.2.04-.5.06-.92.06H25.9a4.6 4.6 0 0 1-.95-.07c-.3-.07-.6-.2-.89-.36-.48-.28-.8-.66-.95-1.14-.07-.2-.1-.6-.1-1.2V27.1c0-.75.02-1.2.05-1.37.2-.9 1.01-1.47 1.9-1.65.2-.04.52-.07.94-.07h8.63c1.03 0 2.1.57 2.38 1.62.14.49.1.85.1 1.35 0 .02-.02.03-.04.03h-3.93c-.02 0-.04-.01-.03-.04 0-.31-.03-.72-.31-.89-.09-.05-.27-.07-.53-.07h-4.42c-.34 0-.54.05-.69.33a.71.71 0 0 0-.05.32v5.62c0 .2.02.35.08.43.12.2.28.3.53.3h4.74c.2 0 .33-.04.4-.1.17-.12.25-.3.25-.55v-1.29ZM39 29.5v-2.87c0-.47.02-.81.09-1.02.16-.49.45-.88.86-1.17.5-.36.96-.43 1.61-.44h1.3c.03 0 .07.03.1.05.02.03.03.07.03.11a23839.86 23839.86 0 0 0 0 8.2c.02.48-.01.82-.08 1.03-.16.49-.45.88-.86 1.17-.5.35-.96.43-1.61.43h-1.3a.14.14 0 0 1-.1-.05.16.16 0 0 1-.03-.1V29.5Z" fill="#00235A"/></svg>