<!-- by TradingView --><svg width="56" height="56" viewBox="0 0 56 56" xmlns="http://www.w3.org/2000/svg"><path fill="#F0F3FA" d="M0 0h56v56H0z"/><path d="M24.95 29c0 2.6 2.59 4.44 5.07 3.6a4.07 4.07 0 0 0 2.4-2.6h3.31a5.8 5.8 0 0 1-.6 2.05A7.05 7.05 0 0 1 21.72 29a6.94 6.94 0 0 1 4-6.32 7.09 7.09 0 0 1 9.4 3.27c.29.6.6 1.48.6 2.05h-3.3c-.01 0 0 0 0 0a4.06 4.06 0 0 0-2.4-2.6 3.83 3.83 0 0 0-5.08 3.6ZM14.53 31.4l3.82-9.39.02-.01h3.65c.01 0 .02 0 .01.02l-5.8 13.96a.03.03 0 0 1-.03.02h-3.35a.02.02 0 0 1-.02-.01L7 22.02A.01.01 0 0 1 7 22H10.67a.03.03 0 0 1 .03.02l3.82 9.38v.01h.01ZM42.49 32.87l-1.3 3.1V36h3.6a.03.03 0 0 0 .02-.02 27788.32 27788.32 0 0 0 2.85-6.65 5.44 5.44 0 0 0-6.56-7.13 5.44 5.44 0 0 0 1.39 10.67Zm2.46-5.44a2.38 2.38 0 1 1-4.76 0 2.38 2.38 0 0 1 4.76 0Z" fill="#00148D"/></svg>