<!-- by TradingView --><svg xmlns="http://www.w3.org/2000/svg" width="56" height="56" viewBox="0 0 56 56"><path fill="#F0F3FA" d="M0 0h56v56H0z"/><path d="M36.43 24.63c-1.6-.83-12.43-1.07-15.81 0-.44-2.86-1.8-7.56.56-8.57 4.74-2.04 13.34-.62 16.06 0 2.72.62 4.74 1.96 4.94 4.34.16 1.9-1.68 5.88-2.62 7.64-.1-.68 0-1.81-3.13-3.41z" fill="url(#akfezrke1)"/><path d="M26.1 15.05c-1.56.15-4.94 1.06-4.94 3.2.53 6.48 7.8 14.4 11.01 16.83.2.16.5.13.67-.05l.08-.08c12.3-12.28 8.67-16.25 7.42-17.61v-.01c3.01 1.82 2.8 5.02 2.48 6.58C42.5 25.46 35.46 45 29.61 45c-5.85 0-18.53-19.54-16.36-24.65 1.73-4.08 9.37-5.26 12.84-5.3z" fill="url(#bkfezrke1)"/><defs><linearGradient id="akfezrke1" x1="27.37" y1="15.96" x2="40.14" y2="24.03" gradientUnits="userSpaceOnUse"><stop stop-color="#035933"/><stop offset="1" stop-color="#77B53E"/></linearGradient><linearGradient id="bkfezrke1" x1="33.72" y1="37.9" x2="10.93" y2="18.24" gradientUnits="userSpaceOnUse"><stop stop-color="#005632"/><stop offset="1" stop-color="#8CC63F"/></linearGradient></defs></svg>