<!-- by TradingView --><svg width="56" height="56" fill="none" xmlns="http://www.w3.org/2000/svg"><path fill="#F0F3FA" d="M0 0h56v56H0z"/><path fill-rule="evenodd" clip-rule="evenodd" d="M42 13H14v30h28V26.713c-1.487 7.684-12.946 16.004-18.62 16.004-6.073 0-6.806-4.219-6.806-5.46 0-.992.442-2.162.663-2.623-.782 5.7 3.165 7.007 5.236 6.948 1.121-.032 4.646-.387 11.24-5.282 6.593-4.895 7.867-10.902 7.68-13.294.276.403.477.944.607 1.399V13Zm-8.427 2.597c-2.82 0-4.293.921-4.677 1.382.814-.2 2.89-.603 4.677-.603 2.234 0 3.386.568 5.271 1.88-.593-.922-1.745-2.66-5.27-2.66ZM16.26 36.017c-.279-.367-.837-1.518-.837-3.191 0-2.092 1.57-7.374 8.377-12.87-3.141 1.797-9.425 6.85-9.425 12.692-.035.603.294 2.12 1.885 3.368Zm4.863-4.608a315.96 315.96 0 0 1 6.6-5.225c2.426-1.863 4.776-3.59 6.15-4.417a.24.24 0 0 0 .085-.321.225.225 0 0 0-.313-.087c-1.403.843-3.777 2.59-6.2 4.45a316.485 316.485 0 0 0-6.612 5.234.236.236 0 0 0-.035.33c.08.1.225.117.325.036Zm8.175-3.637a764.814 764.814 0 0 0-8.025 6.438c-.2.162-.49.13-.65-.072a.473.473 0 0 1 .072-.66 767.92 767.92 0 0 1 8.036-6.447c2.722-2.15 5.273-4.12 6.586-5.018a.444.444 0 0 1 .63.142c.136.22.072.509-.14.654-1.274.874-3.781 2.808-6.509 4.963Z" fill="url(#a)"/><defs><linearGradient id="a" x1="41.064" y1="14.63" x2="16.745" y2="39.595" gradientUnits="userSpaceOnUse"><stop stop-color="#FE2327"/><stop offset="1" stop-color="#D20102"/></linearGradient></defs></svg>