<!-- by TradingView --><svg width="56" height="56" fill="none" xmlns="http://www.w3.org/2000/svg"><path fill="#F0F3FA" d="M0 0h56v56H0z"/><path fill-rule="evenodd" clip-rule="evenodd" d="M42.617 35.335C46.357 33.377 48.5 30.758 48.5 28s-2.144-5.377-5.883-7.335C38.902 18.719 33.735 17.5 28 17.5c-5.735 0-10.902 1.219-14.617 3.165C9.643 22.623 7.5 25.242 7.5 28s2.144 5.377 5.883 7.335C17.098 37.281 22.265 38.5 28 38.5c5.735 0 10.902-1.219 14.617-3.165ZM28 39c11.598 0 21-4.925 21-11s-9.402-11-21-11S7 21.925 7 28s9.402 11 21 11Z" fill="#0605A6"/><path fill-rule="evenodd" clip-rule="evenodd" d="M47.022 24H8.89v-.5h38.13v.5ZM47.022 32.5H8.974V32h38.048v.5Z" fill="#0605A6"/><path fill-rule="evenodd" clip-rule="evenodd" d="M28.5 17.184v6.753H28v-6.753h.5Zm0 14.99v6.744H28v-6.744h.5Z" fill="#0605A6"/><path d="M20.97 37.482a.51.51 0 0 1-.029-.014l-1.296-.627c-.21-.228-.022-.71 2.413-.813 3.045-.13 10.28-1.558 12.468-4.009h1.6c-4.435 3.87-10.605 4.556-13.303 4.822-2.082.205-2.133.495-1.882.627l.03.014ZM30.527 22.224c3.494.561 5.352 1.418 5.844 1.776h-2.134c-1.288-.642-10.12-1.955-11.66-2.418-1.231-.37-.513-1.418 0-1.895 2.671-1.24 8.735-.881 10.322-.881 1.27 0 .79-.537.393-.806.215.05.75.191 1.178.358.428.167.597.428.629.537.402.598-.168.777-.503.792-6.174-.344-9.238.164-11.17.79-1.932.628 2.734 1.045 7.101 1.747Z" fill="#0605A6"/><path fill-rule="evenodd" clip-rule="evenodd" d="M37.955 35.38c2.53-1.919 4.05-4.533 4.05-7.38 0-2.847-1.52-5.461-4.05-7.38-2.53-1.919-6.048-3.12-9.955-3.12s-7.424 1.201-9.955 3.12c-2.53 1.919-4.05 4.533-4.05 7.38 0 2.847 1.52 5.461 4.05 7.38 2.53 1.919 6.048 3.12 9.955 3.12s7.425-1.201 9.955-3.12ZM28 39c8.011 0 14.506-4.925 14.506-11S36.01 17 28 17s-14.506 4.925-14.506 11S19.99 39 28 39Z" fill="#0605A6"/><path fill-rule="evenodd" clip-rule="evenodd" d="M28 38.5c4.291 0 7.975-4.572 7.975-10.5S32.291 17.5 28 17.5c-4.291 0-7.975 4.572-7.975 10.5S23.709 38.5 28 38.5Zm0 .5c4.68 0 8.475-4.925 8.475-11S32.681 17 28 17c-4.68 0-8.475 4.925-8.475 11S23.319 39 28 39Z" fill="#0605A6"/><path d="M42.663 24H13.72l-.815 7.997h29.758V24Z" fill="#F0F3FA"/><path fill-rule="evenodd" clip-rule="evenodd" d="M10.772 30 9.5 26h1.11l.859 2.918.984-2.918H13.5l-1.377 4h-1.351ZM14 26v4h1v-4h-1Zm2 4v-4h1.53l1.558 3.189V26H20v4h-1.572l-1.502-2.947V30H16Zm18 0h1v-2.947L36.428 30H38v-4h-1v3.189L35.53 26H34v4Zm-10.783-4 1.322 4h-1.155l-.222-.729h-1.437L21.47 30h-1.09l1.432-4h1.405Zm-.724 1.082.454 1.485h-.975l.52-1.485Zm6.504.198h-1.261c-.136-.374-.383-.622-.703-.622-.52 0-.82.6-.82 1.342 0 .741.318 1.342.82 1.342.332 0 .573-.242.704-.608H29c-.26.741-.932 1.266-1.94 1.266-1.262 0-2.06-.895-2.06-2s.754-2 2.06-2c.964 0 1.665.531 1.937 1.28Zm4.631.72c0 1.105-.721 2-2 2-1.225 0-2-.895-2-2s.732-2 2-2c1.215 0 2 .895 2 2Zm-1.23 0c0 .741-.288 1.342-.796 1.342-.488 0-.796-.6-.796-1.342 0-.741.291-1.342.796-1.342.483 0 .795.6.795 1.342ZM39 30h3v-.637h-2v-.903h2v-.779h-2v-.99h2V26h-3v4Zm6.27-4h1.266l-1.465 2.045L46.536 30h-1.399l-.733-1.023L43.672 30h-1.4l1.465-1.955L42.273 26h1.265l.867 1.155L45.27 26Z" fill="#0605A6"/></svg>