<!-- by TradingView --><svg width="56" height="56" fill="none" xmlns="http://www.w3.org/2000/svg"><path fill="#F0F3FA" d="M0 0h56v56H0z"/><path d="M17.122 27.304c-.433-4.76-3.535-6.28-4.352-6.799A16.723 16.723 0 0 0 11.34 24.7c0 .562-1.202 4.452.908 9.641C14.765 40.587 20.871 45 28.017 45a16.91 16.91 0 0 0 8.636-2.374c.737-5.715-3.601-8.992-6.628-11.471-3.157-2.58-2.868-6.31-2.583-7.57.034-.15.078-.29.133-.422-1.822.245-2.24-1.429-2.24-1.429s2.324.668 3.599-.09c.649-.332 1.175-.918 1.175-1.91-.126-1.283-1.142-1.802-1.987-1.884-3.96-.384-5.423 2.815-5.423 2.815-2.225 4.79 2.954 9.36 4.485 11.819a8.86 8.86 0 0 1 .817 1.776c1.14 4.76-2.377 7.967-6 7.985-4.302-.072-6.048-3.515-6.265-5.883-.363-3.658 1.521-6.437 1.386-9.058ZM40.453 16.49c.009-.01.012-.018.018-.027C37.366 13.11 32.944 11 28.013 11c-4.992 0-9.583 2.205-12.694 5.633 5.312 4.887 4.034 10 3.435 12.235-1.019 3.546-1.497 5.08-1.497 7.02-.071 4.452 3.65 4.49 3.848 4.464 2.658-.027 4.053-2.38 3.836-4.356-.144-1.344-.339-2.942-2.02-6.107-2.642-5.364-2.654-7.59-2.224-9.345-1.963-1.036-2.394-3.078-1.837-4.708 1.29 1.845 3.96 2.522 6.135 1.473.283-.135.824-.416 1.248-.561 2.97-.819 4.912.652 5.799 1.881 2.546.846 3.818 3.18 4.112 5.026-1.28-1.718-3.583-1.803-4.759-1.139-1.355.735-1.95 1.955-2.052 2.7-.716 3.296 2.984 5.108 7.344 8.66 2.645 2.223 3.51 4.407 3.799 5.642a16.191 16.191 0 0 0 2.026-2.691 17.077 17.077 0 0 1-4.476-11.556c0-1.776.27-3.485.77-5.098.64-2.344 1.611-3.658 1.611-3.658l.036-.024Zm4.251 8.306a17.051 17.051 0 0 0-1.424-4.247s-.064-.133-.172-.347a14.709 14.709 0 0 0-2.468 8.167c0 1.598.258 3.135.727 4.582.262.713.571 1.456.941 2.232.178.347.373.685.578 1.015.36-.659.69-1.341.964-2.048 1.792-5.449.99-8.472.854-9.354Z" fill="#C42127"/></svg>