<!-- by TradingView --><svg width="56" height="56" viewBox="0 0 56 56" xmlns="http://www.w3.org/2000/svg"><path fill="#F0F3FA" d="M0 0h56v56H0z"/><path d="M28 29h-1v9h1v-9ZM31 32h-1v6h1v-6ZM18.5 27h-3L21 38l5.5-11h-3L21 32.5 18.5 27ZM8 27h4c1.74 0 3.5 1.1 3.5 3 0 .68-.1 1.3-.37 1.8a3.48 3.48 0 0 1 1.37 2.7c0 2.18-1.83 3.5-4 3.5H8V27Zm2 9h2.5c1.09 0 2-.39 2-1.5 0-1.02-.5-1.5-2-1.5H10v3Zm0-5h2.5c.54 0 1-.53 1-1 0-.75-.88-1-1.5-1h-2v2Z" fill="#77787B"/><circle cx="30.5" cy="29.5" r=".5" fill="#77787B"/><path d="M33.77 29.4c.42-.3.9-.4 1.23-.4h1v1h-1c-.17 0-.44.06-.65.2-.18.14-.35.36-.35.8v1h1.5v1H34v5h-1v-5h-1v-1h1v-1c0-.76.33-1.29.77-1.6Z" fill="#77787B"/><path fill-rule="evenodd" d="M39 37a2 2 0 0 0 1.12-.34l1.16.29a3 3 0 1 1 .68-1.45h-4.9A2 2 0 0 0 39 37Zm-1.94-2.5a2 2 0 0 1 3.88 0h-3.88Z" fill="#77787B"/><path d="M31.5 21c.33-.5 1-2.2 1-5s-1.66-4.5-2.5-5h4c2.8 0 3.83 2.67 4 4h-4v1c0 3.2-1.67 4.67-2.5 5Z" fill="#F7941D"/><path d="M27 27c5.6-1.2 7.67-7.8 8-10.97 4.8-.4 6 2.83 6 4.49C41 25.5 34.33 27 31.5 27H27Z" fill="#F7941D"/><path d="M48 19.5c0 4.8-6.33 6.33-9.5 6.5 1.5-1.33 4.5-4.7 4.5-7.5s-1.33-4.83-2-5.5c5.5 3 5.51 5.95 5.5 6 .4-1.6-.17-3-.5-3.5 1.6.8 2 3 2 4Z" fill="#F7941D"/></svg>