<!-- by TradingView --><svg width="56" height="56" fill="none" xmlns="http://www.w3.org/2000/svg"><path fill="#F0F3FA" d="M0 0h56v56H0z"/><path d="M21.346 36.168c-8.842-5.273-6.605-15.58-4.38-20.073-3.337 3.711-8.345 13.262-1.694 21.771 8.315 10.636 24.148 6.242 27.533-4.045-3.236 3.895-10.405 8.939-21.459 2.347Z" fill="#23337B"/><path d="M39.42 16.644c3.027 12.823-4.747 19.225-9.012 20.823C34.54 38.166 44 35.419 44 28.329c0-5.673-3.054-10.154-4.58-11.685Z" fill="#1E3471"/><path d="M28.118 12c-7.369 0-10.655 7.09-10.804 7.44.896-1.581 4.241-4.744 10.455-4.744s10.157 3.363 11.352 5.044C37.909 17.16 34.013 12 28.118 12Z" fill="#E86524"/></svg>