<!-- by TradingView --><svg width="56" height="56" viewBox="0 0 56 56" xmlns="http://www.w3.org/2000/svg"><path fill="#F0F3FA" d="M0 0h56v56H0z"/><path fill-rule="evenodd" d="M47.5 28.24c-.13 2.38-2.13 4.66-5.58 6.38-.3.15-.6.3-.91.43l-2.2-.86c2-1.68 3.19-3.84 3.19-6.2v.25h5.5Zm0-.49H42V28c0-1.56-.53-3.04-1.46-4.35l3.06-1.28-.03-.05c2.43 1.57 3.82 3.46 3.92 5.43Zm-4.37-5.71a22.17 22.17 0 0 0-3.52-1.65l.01.04c-.48.12-1.22.27-2.1.42 1.08.7 2 1.5 2.71 2.4l2.9-1.21Zm-4.31-1.93c-1.91-.62-4.06-1.1-6.36-1.36 1.63.38 3.13.97 4.43 1.72.74-.13 1.4-.25 1.93-.36Zm-15.28-1.36c-1.63.38-3.13.97-4.43 1.72-.74-.13-1.4-.25-1.93-.36 1.91-.62 4.06-1.1 6.36-1.36Zm-7.15 1.64a22.17 22.17 0 0 0-3.52 1.65l2.9 1.2c.72-.89 1.63-1.7 2.7-2.39-.87-.15-1.6-.3-2.1-.42l.02-.04Zm-3.96 1.93C10 23.89 8.6 25.78 8.5 27.75H14v.49H8.5c.13 2.32 2.03 4.54 5.31 6.25l2.83-.8A7.93 7.93 0 0 1 14 28c0-1.55.53-3.03 1.46-4.34l-3.06-1.28.03-.05Zm2.03 12.49c1.05.5 2.2.93 3.45 1.3l-.02-.09c.41-.09.94-.2 1.54-.31a13.03 13.03 0 0 1-2.37-1.63l-2.6.73Zm4.26 1.53c1.51.4 3.14.72 4.86.91a17.03 17.03 0 0 1-3.44-1.18l-1.42.27ZM28.21 38h.24C39.29 37.88 48 33.45 48 28c0-5.52-8.95-10-19.99-10H28C16.95 18 8 22.48 8 28s8.95 10 20 10h.21Zm4.2-.75c1.23-.28 2.37-.68 3.42-1.17l1.38.28c-1.5.4-3.1.7-4.8.9Zm5.63-1.12c.81-.24 1.59-.51 2.32-.8l-1.95-.77.02-.06c-.57.45-1.2.86-1.9 1.23.6.11 1.11.22 1.53.32l-.02.08ZM28.8 18.75l-.55-.01v2.68c1.2-.02 2.47-.11 3.73-.25a4.16 4.16 0 0 0-1.7-1.71c-.5-.3-1.02-.54-1.48-.7Zm-1.05-.01c-.26 0-.52 0-.78.02-1 .37-2.23 1.1-2.92 2.41 1.25.14 2.52.23 3.7.25v-2.68Zm-7.86 1.86a17 17 0 0 1 5.7-1.72c-.8.49-1.57 1.2-2.06 2.23-1.2-.15-2.48-.33-3.64-.51Zm-1.5.9a13 13 0 0 1 .81-.52c1.37.23 2.97.46 4.45.64 1.46.17 2.96.28 4.35.28 1.39 0 2.9-.11 4.35-.28a97.2 97.2 0 0 0 4.45-.64c.28.16.55.34.8.52 2.45 1.7 3.9 4 3.9 6.5s-1.45 4.8-3.9 6.5c-.56.39-1.18.75-1.84 1.07a79.97 79.97 0 0 0-3.72-.63 30.69 30.69 0 0 0-4.04-.36c-1.15 0-2.66.16-4.2.38-1.22.18-2.48.4-3.59.6a13.6 13.6 0 0 1-1.82-1.06c-2.44-1.7-3.89-4-3.89-6.5s1.45-4.8 3.9-6.5Zm14.1-.4c1.2-.14 2.46-.32 3.61-.5-1.69-.88-3.7-1.49-5.88-1.74l.32.18a4.5 4.5 0 0 1 1.95 2.07Zm-.28 14.36c.94.14 1.9.3 2.77.46-1.1.46-2.32.82-3.6 1.05.4-.37.7-.87.83-1.51Zm-1.98 1.66-.03.02c-.63.07-1.29.11-1.95.12v-2.2c.98.03 2.2.15 3.46.33a2.39 2.39 0 0 1-1.48 1.73Zm-2.48-2.05v2.19c-.63 0-1.24-.05-1.84-.11a4.65 4.65 0 0 1-.33-.13c-.74-.33-1.32-.84-1.46-1.6 1.33-.2 2.61-.33 3.63-.35Zm-4.12.41c.1.63.44 1.1.89 1.47A17.14 17.14 0 0 1 21 35.9c.84-.15 1.74-.3 2.63-.43Z" fill="#44C2F3"/><path fill-rule="evenodd" d="M21 25.5c0-.8-.67-1.33-1-1.5h2c.5.17 1.5.7 1.5 1.5 0 .59-.51 1.17-.94 1.66-.3.34-.56.63-.56.84 0 .5 1.5.5 2 .5.13 0 .5-.3 1.05-.76 1.54-1.28 4.5-3.74 7.45-3.74 4 0 5 1.5 5 2.5 0 .8-.67 1.33-1 1.5.33.17 1 .7 1 1.5 0 1-1 1.5-2 1.5h-9l6.5-.5c.5 0 1.5-.2 1.5-1 0-.7-1.03-.94-1.73-.99-.1.08-.2.14-.33.16a.68.68 0 0 1-1.3.39.68.68 0 1 1-.86-1.06.68.68 0 1 1 .85-1.06.68.68 0 0 1 1.3.39c.32.05.56.32.57.65 1.05-.09 2.5-.46 2.5-1.48 0-1.5-1.5-1.5-3-1.5-.7 0-2.25 1.3-3.92 2.68-1.93 1.6-4 3.32-5.08 3.32H18c1.5-.17 4.7-.8 5.5-2h-3c-.33 0-1-.2-1-1 0-.5.38-.88.75-1.25.38-.38.75-.75.75-1.25Zm10.42 2.9h-.02a.4.4 0 0 1-.23-.06l-.54.45-.17-.21.54-.46a.4.4 0 0 1 0-.24l-.54-.46.17-.2.54.44a.4.4 0 0 1 .22-.07l.26-.6.25.1-.25.59c.06.05.1.11.13.18h.54v.28h-.54a.4.4 0 0 1-.11.17l.22.45-.24.12-.23-.47Zm.17-.38a.19.19 0 1 1-.37 0 .19.19 0 0 1 .37 0Z" fill="#EE1D23"/></svg>