<!-- by TradingView --><svg width="56" height="56" viewBox="0 0 56 56" xmlns="http://www.w3.org/2000/svg"><path fill="#F0F3FA" d="M0 0h56v56H0z"/><path fill-rule="evenodd" d="M8 21v13h7c2 0 6-1.4 6-7 0-2-1.2-6-6-6H8Zm6.5 10a3.5 3.5 0 1 0 0-7 3.5 3.5 0 0 0 0 7Z" fill="#0082CA"/><path d="M15 27.5a.5.5 0 1 1-1 0 .5.5 0 0 1 1 0Z" fill="#FF8300"/><path d="M14.5 30a2.5 2.5 0 1 0 0-5 2.5 2.5 0 0 0 0 5Zm0-4v-.5a2 2 0 1 1 0 4c-.62 0-1.5-.8-1.5-1.5 0-2 1-2 1.5-2Z" fill="#FF8300"/><path fill-rule="evenodd" d="M21 34h3.5l1.05-3h4.64l.31 1c.17.67.9 2 2.5 2h3l-3.5-10.5c-.33-.83-1.3-2.5-2.5-2.5h-4.5L21 34Zm8.25-6L28 24l-1.4 4h2.65Z" fill="#0082CA"/><path d="M36 22v2h4v10h4V24h4c.8 0 1-.67 1-1v-2H37c-.8 0-1 .67-1 1Z" fill="#0082CA"/></svg>