<!-- by TradingView --><svg width="56" height="56" viewBox="0 0 56 56" xmlns="http://www.w3.org/2000/svg"><path fill="#990D23" d="M0 0h56v56H0z"/><path d="M4 23c-.02-.02.1.05 0 0h2.32c.03 0 .11.07.12.1.01.17.05.53-.12.72a2.4 2.4 0 0 1-.28.28c-.05.04-.04.1-.04.2v7.48c0 .06-.01.12.03.16.05.04.1.06.17.06h1.44c.93-.02 1.95-.56 2.12-1.5.03-.19.06-.42.13-.6.21-.57.66-.95 1.34-1.13.5-.14 1.15-.13 1.7-.29.04 0 .06-.03.06-.05 0-.25-.02-.67-.07-.84-.13-.46-.7-.5-1.13-.42-.37.06-.54.3-.52.64.01.21-.2.52-.4.53-.37.04-.68.05-.95.03-.02 0-.04 0-.04-.03v-.64c0-.83.49-1.42 1.4-1.6a4.28 4.28 0 0 1 1.76.01c1.01.25 1.33.93 1.33 1.84v3.18c0 .16.02.27.06.33.06.11.16.2.3.25.53.2.86-.28.86-.71l.01-3.04c0-1.17.77-1.93 1.9-1.96.45 0 1.07.1 1.5.33.02 0 0 0 0-.02v-1.96c0-.11-.18-.18-.23-.22-.24-.16-.42-.35-.42-.6V23h1.54c.3 0 .55.09.55.68v7.42c0 .17.02.29.06.36.17.3.46.4.72.14a.76.76 0 0 0 .21-.55v-2.49c0-.52.04-1.14.13-1.37.3-.84 1.18-1.17 2.07-1.19 1.44-.03 2.38.96 2.37 2.43v2.82c-.01.9-.65 1.53-1.6 1.7a3.5 3.5 0 0 1-2.01-.24v-.02h.02c.4-.15.59-.55.68-.91 0-.03.02-.04.04-.02.49.26 1.18.23 1.44-.28.05-.1.08-.29.08-.55v-2.66c0-.22-.02-.63-.06-.72-.25-.65-1.58-.67-1.72.07-.03.16-.05.57-.05.73v2.73c0 .86-.55 1.5-1.45 1.74-.26.07-.47.18-.64.18h-1.55c-.14 0-.25-.15-.31-.28-.01-.03-.04-.03-.06-.01-.17.11-.34.21-.53.24-.2.03-.42.05-.64.05a2.5 2.5 0 0 1-1.12-.28l.01-.02c.34-.19.58-.5.73-.93 0-.03.03-.04.05-.02.12.06.21.11.33.13.47.05 1.05-.08 1.37-.4.01-.01-.01-.04-.01-.06v-3.85c0-.03.02-.07-.01-.09-.13-.1-.48-.2-.66-.27-.74-.31-1.33.2-1.33.93v2.14c0 .68-.03 1.05-.04 1.1a1.8 1.8 0 0 1-1.28 1.4c-.32.1-.59.22-.8.22h-1.36c-.24 0-.38-.11-.48-.3-.01-.03-.03-.03-.06-.02-.74.44-1.73.38-2.46-.01-.04-.02-.03-.04 0-.06.39-.19.63-.51.73-.97.01-.04.04-.05.07-.01.33.32.74.4 1.22.24a.77.77 0 0 0 .37-.28c.06-.08.1-.2.1-.34v-1.66c0-.03-.02-.04-.05-.04-.33.07-.6.12-.81.13-.47.04-.8.24-.96.62-.12.25-.1.61-.16.87-.3 1.18-1.39 1.83-2.67 1.83H4v-.83c0-.17.24-.28.35-.34.12-.08.15-.15.15-.28v-7.21c0-.11-.02-.18-.05-.21-.12-.1-.41-.13-.45-.41V23ZM29.76 23c.1.04.23.02.23.24a27.46 27.46 0 0 1 0 .88.09.09 0 0 1-.06.04h-.04c-.16-.01-.3-.05-.41-.02-.32.08-.48.33-.48.65v1.52c0 .02.01.03.03.03h.8c.01 0 .03.01.03.03.02.6-.1 1.1-.84 1.13-.01 0-.02.01-.02.03v4.23a.17.17 0 0 0 .05.13c.09.08.25.17.35.28.15.18.13.58.12.8 0 .02-.02.03-.04.03h-2.1c-.03 0-.04-.01-.04-.03v-.56c.02-.2.2-.34.39-.52a.17.17 0 0 0 .05-.13v-4.21c0-.03-.01-.04-.03-.04h-.7c-.03 0-.05-.01-.05-.04V27c.06-.44.3-.66.75-.66.02 0 .03-.01.03-.04v-1.82c.01-.47.22-1.48 1.07-1.48h.91ZM37.49 30.12a15.53 15.53 0 0 0-1.44-2.37c.1-.9.63-1.45 1.62-1.65 1.09-.23 2.35-.04 3 .8.21.26.32.55.33.88v3.01c0 .48-.04.82-.13 1.02-.4.95-1.59 1.25-2.64 1.18-.68-.04-1.35-.25-1.75-.73-.1-.11-.23-.35-.4-.72a13.84 13.84 0 0 0-2.67-4c-.17-.18-.34-.3-.49-.36-.46-.16-1.12-.07-1.32.37-.05.1-.08.32-.08.64v2.88c.01.58.52.88 1.14.8.36-.04.6-.2.73-.48.06-.13.1-.38.1-.73v-2.04c0-.04 0-.05.04-.01a10 10 0 0 1 1.34 1.9c.13.25.13.42.11.72-.1 1.36-1.45 1.85-2.82 1.76-1.29-.1-2.13-.8-2.15-1.96v-2.98c0-.93.44-1.65 1.48-1.92.9-.24 2.07-.16 2.8.41.56.43 1.07.97 1.52 1.63a19 19 0 0 1 1.84 3.3c.1.26.5.4.78.41.64.03 1.06-.31 1.07-.89v-2.75c0-.23-.02-.45-.08-.63-.11-.39-.65-.53-1.07-.5-.53.06-.8.32-.8.8v2.2c0 .08-.03.08-.06 0ZM52 30.44v1.19a.3.3 0 0 0-.03-.09c-.01-.03-.02-.02-.02 0-.15 1.49-2.16 1.62-3.34 1.29-.84-.24-1.26-.76-1.26-1.58l.01-.77c0-.02.02-.03.04-.03.4-.01.7 0 .92.01.5.05.46.42.48.76.02.42.25.64.67.68.24.02.45 0 .63-.04.44-.11.53-.64.47-.98-.04-.26-.5-.49-.73-.6-.75-.35-1.3-.57-1.8-1.03a1.5 1.5 0 0 1-.53-1.16c-.01-.28 0-.49.01-.62.08-.65.73-1.03 1.38-1.15.57-.1 1.14-.09 1.73.06.77.2 1.2.66 1.27 1.4v.83c0 .02-.01.03-.04.03-.34.02-.66.01-.94-.02-.27-.03-.42-.16-.44-.4-.01-.1 0-.3-.07-.43-.17-.4-.5-.55-.98-.46a.6.6 0 0 0-.5.47c-.15.54.33.83.79 1.07.6.31 2.09.78 2.23 1.62 0 .04.02.04.03 0l.02-.05Z" fill="#fff"/><path fill-rule="evenodd" d="M46 23.9c0-.61-.15-.9-.5-.9h-1.23v.54c0 .14.06.26.17.38l.12.1c.1.09.21.17.21.33a853.04 853.04 0 0 0-.02 2.22 2.67 2.67 0 0 0-1.89-.26c-1.01.21-1.34 1.11-1.34 1.95v2.56c0 .95.32 1.95 1.52 2.15.14.02.4.03.81.03a1.79 1.79 0 0 0 .93-.27h.02l.01.02v.01c.04.13.13.24.29.24h1.55l.02-.06c.01-.15 0-.36 0-.56-.02-.18-.22-.31-.4-.43l-.17-.12a.11.11 0 0 1-.04-.06l-.03-.06-.03-.12V23.9Zm-1.23 7.54a395.56 395.56 0 0 1 0-3.65 1.4 1.4 0 0 0-1-.42c-.67 0-.85.51-.86 1.02a118.38 118.38 0 0 0 0 2.47c0 .51.18 1.03.85 1.04.36 0 .7-.13.98-.4l.02-.02a.1.1 0 0 0 0-.04Z" fill="#fff"/></svg>