<!-- by TradingView --><svg width="56" height="56" viewBox="0 0 56 56" xmlns="http://www.w3.org/2000/svg"><path fill="#F0F3FA" d="M0 0h56v56H0z"/><path fill-rule="evenodd" d="M30.85 43.82C38.32 42.45 44 35.44 44 27.62c0-5.29-2.25-9.29-6.08-12.21-2.59-1.99-5.2-2.82-8.34-3.3-1.9-.3-3.65.04-5.58.54a15.67 15.67 0 0 0-8.2 5.12c-.4.47-.36.68-.22 1.21.84 3.12 4.9 2.94 7.38 2.43 2.35-.5 4.62-1.3 6.82-2.44.36-.18.63-.26.84-.23 1.05.16 1.24 1.53 1.1 2.4-.01.12-.05.13-.1.02-.32-.64-.89-.96-1.7-.96-2.96.02-5.94 1.32-8.61 2.44-.92.39-1.97.7-3.16.95a5.03 5.03 0 0 1-4.89-1.37.17.17 0 0 0-.2.11c-1 3.14 1.9 3 3.88 2.68l3.84-.6c.66-.11 1.31-.08 1.95.09.03 0 .04.02.04.04 0 .06 0 .15-.09.13a5.7 5.7 0 0 0-2.7.42c-1.43.53-2.68 1-3.74 1.43-1.16.46-3.06 1.1-4.1.06a.05.05 0 0 0-.08 0v.03a16.19 16.19 0 0 0 2.01 9.27.1.1 0 0 0 .15-.05c1.23-2.99 3.49-4.76 6.37-6.07a7.37 7.37 0 0 1 1.9-.62l.1.01c.04.01.07.03.09.05l.05.07c.08.1.06.17-.05.2l-1.07.32a6.92 6.92 0 0 0-3.38 2.47 11.91 11.91 0 0 0-2.25 6.18c-.01.08.01.15.06.2a14.4 14.4 0 0 0 2.4 2.2.08.08 0 0 0 .08-.04v-.05c-.25-4.2 1.54-8.94 5.78-10.46h.09l.13.05.04.01.03.03.01.05-.01.04c-.01.01-.02.03-.04.03-4.33 2.09-4.58 7.42-3.67 11.49.08.34.21.5.53.64a19.96 19.96 0 0 0 3.26 1.04.12.12 0 0 0 .08-.1c0-.02 0-.05-.02-.07-2.79-4.94-1.98-11.13 3.26-14.02a11.7 11.7 0 0 1 6.28-1.33h.14c1.8.09 3.18.14 4.89-.27.8-.2 1.39-.64 1.75-1.32.12-.2.19-.2.2.05.34 3.45-6.12 3.18-8.12 2.94-1.95-.23-3.7-.3-5.24.5-2.02 1.05-3 3.17-3.08 5.39-.1 2.79.76 5.22 2.58 7.29.32.36.9.79 1.76 1.27l1.7-.18Zm7.01-23.15c.56-.44.8-.78.82-1.4 0-.25.14-.4.4-.44.69-.1 1.15.18 1.38.84.1.25.04.45-.17.6l-.1.08c-.56.4-1.07.78-1.84 1.13-1.27.6-2.35 1-3.24 1.24-2 .53-3.27.86-3.82.99-.2.04-.24-.02-.13-.2a.74.74 0 0 1 .46-.33c2.3-.57 4.58-1.21 6.24-2.51Zm-8.47 2.19a.43.43 0 0 0 .58-.14c.1-.13.2-.24.32-.33.19-.13.32.05.43.18.1.11.07.18-.07.2-.63.12-1.3.35-2.03.7a2.6 2.6 0 0 1-.94.17c-.4.01-.42-.08-.07-.26.3-.16.63-.46.97-.9.03-.04.07-.05.12-.02l.7.4Zm8.1 1.19.25.43a.48.48 0 0 1-.17.65c-.63.38-1.31.53-2.04.46a49.3 49.3 0 0 0-1.99-.16.58.58 0 0 0-.42.14c-.08.06-.05.1.08.12.13 0 .98.1 2.53.3 1.04.11 2.64-.1 3.28-1.09 1-1.52-1.13-2.7-1.55-1.11-.02.09-.01.18.04.26Zm-15.2 2.33c.19-.17.36-.4.5-.62l.2-.26c.03-.03.07-.04.13-.02a.1.1 0 0 1 .07.14c-.12.32-.47.77-1.08 1.33-1.87 1.72-4.69 3.21-7.3 2.5-.1-.02-.11-.08-.07-.16.3-.55 1.47-.87 2.04-.96l.23-.03c2.03-.32 3.81-.6 5.28-1.92Z" fill="#E11E2B"/></svg>