<!-- by TradingView --><svg width="56" height="56" viewBox="0 0 56 56" xmlns="http://www.w3.org/2000/svg"><path fill="#F0F3FA" d="M0 0h56v56H0z"/><path d="m22 16-2-4-8 16 8 16h4l-8-16 6-12Z" fill="#8BC63E"/><path d="m24.5 21.5-2-4-5 10.5 8 16h4l-8-16 3-6.5Z" fill="#0072BC"/><path d="m27 27-2-4-2 5 8 16h4l-8.5-16 .5-1ZM34 40l2 4 8-16-8-16h-4l8 16-6 12Z" fill="#EE1D23"/><path d="m31.5 34.5 2 4 5-10.5-8-16h-4l8 16-3 6.5Z" fill="#0072BC"/><path d="m29 29 2 4 2-5-8-16h-4l8.5 16-.5 1Z" fill="#8BC63E"/></svg>