<!-- by TradingView --><svg width="56" height="56" viewBox="0 0 56 56" xmlns="http://www.w3.org/2000/svg"><path fill="#F0F3FA" d="M0 0h56v56H0z"/><path d="M49 28c-.09 4.49-9.95 7-21 7S6.88 32.49 7 28c.12-4.49 9.95-7 21-7s21.09 2.51 21 7Z" fill="#6AC651"/><path fill-rule="evenodd" d="M47.68 30.37C48.62 29.53 49 28.72 49 28c0-.72-.38-1.53-1.32-2.37a13.52 13.52 0 0 0-4.19-2.35C39.83 21.88 33.71 21 28 21c-5.7 0-11.83.88-15.5 2.28-1.83.7-3.24 1.5-4.18 2.35C7.38 26.47 7 27.28 7 28c0 .72.38 1.53 1.32 2.37.94.85 2.35 1.65 4.19 2.35C16.17 34.12 22.29 35 28 35c5.7 0 11.83-.88 15.5-2.28 1.83-.7 3.24-1.5 4.18-2.35ZM28 36c12.6 0 22-3.58 22-8s-9.4-8-22-8c-11.6 0-22 3.58-22 8s10.4 8 22 8Z" fill="url(#a)"/><path d="M14 24h3l-1 5.5 4-5.5h7l-.5 1H24l-1 2h2.5l-.5 1h-2.5L21 31h4l5-7h2v7l3-7h2v3.5l3-3.5h2l-3 8h-2l1.5-4-3 4h-1v-3L33 32h-4v-2h-1.8L26 32h-7.5l3-7H21l-4.5 7h-3l.5-8Zm13.8 5H29v-2l-1.2 2Z" fill="#FF242A"/><defs><linearGradient id="a" x1="11" y1="23.5" x2="38.5" y2="36" gradientUnits="userSpaceOnUse"><stop stop-color="#D3D8D7"/><stop offset=".24" stop-color="#696269"/><stop offset="1" stop-color="#2B2829"/></linearGradient></defs></svg>