<!-- by TradingView --><svg width="56" height="56" viewBox="0 0 56 56" xmlns="http://www.w3.org/2000/svg"><path fill="#F0F3FA" d="M0 0h56v56H0z"/><path d="M44 14H12v28h32V14ZM28 31h9.3l.27-3H43v13H28v-1.85c-2.94.03-8.79-2.07-9.2-11.15h14.26c.04-2.8-1.02-8.69-5.06-9.42V27h-5.05c.16-3.01 1.34-8 5.05-8.46v-1.85c3.14.1 9.43 3.23 9.02 13.31H22.98c.15 2.42 1.27 6.92 5.02 7.28V31Zm8.3 2c-.75 2.21-3.62 6.16-8.3 6.05v-1.73c1.04-.16 3.57-.9 4.55-4.32h3.75ZM13 15h15v1.66c-2.77.07-8.41 2.27-9.18 10.34H13V15Z" fill="#ED1B24"/></svg>