<!-- by TradingView --><svg width="56" height="56" viewBox="0 0 56 56" xmlns="http://www.w3.org/2000/svg"><path fill="#F0F3FA" d="M0 0h56v56H0z"/><path fill-rule="evenodd" d="M31.1 10c3.57.86 10.67 4.82 10.51 13.77-.2 11.17-8.83 13.62-11.5 13.46 2.76-.58 8.21-3.53 7.95-10.74-.32-9.01-8.55-12.26-10.57-12.54l1.5-1.64c3.9 1.02 11.37 5.7 10.14 16.2 1.12-4.1.79-13.15-9.5-16.64L31.1 10Zm-6.42 36c-3.57-.86-10.67-4.82-10.51-13.77.2-11.17 8.83-13.62 11.5-13.46-2.76.58-8.21 3.53-7.95 10.74.32 9.01 8.55 12.26 10.56 12.54l-1.49 1.64c-3.9-1.02-11.37-5.7-10.14-16.2-1.12 4.1-.79 13.15 9.5 16.64L24.68 46Zm-.94-31.72c-9 0-12.65 7.36-13.74 10.77l1.91 1.43c3.33-10.29 12.36-11.23 16.76-9.82-10.7-1.19-15.39 6.46-16.35 10.34l1.75 1.3c.24-2 3.35-9.99 12.42-10.47 7.25-.39 10.17 5.22 10.88 7.86.12-2.65-3.1-11.4-13.63-11.4ZM46 30.95c-1.09 3.4-4.74 10.76-13.74 10.76-10.53 0-13.75-8.75-13.63-11.4.7 2.64 3.63 8.24 10.88 7.85 9.07-.48 12.18-8.46 12.42-10.47l1.75 1.3c-.96 3.89-5.66 11.53-16.35 10.35 4.4 1.4 13.43.46 16.76-9.82L46 30.95Zm-12.1 3.03A8.37 8.37 0 0 0 36.4 28H31v3.68l-.85.84c1.22.23 2.49.69 3.75 1.46Zm-1.25-6.57H30.7l-1.88-2.43.22-1.07.66-.36c1.37-.18 2.82-.62 4.26-1.47a8.37 8.37 0 0 1 2.42 5.33h-3.2l.1-.23-.34-.25-.47.25.18.23Zm.16 0h.24l-.11-.07-.13.07ZM29 27.1l-.4-.64v.95h.4v-.31ZM26.72 24v-.47a11.9 11.9 0 0 1-.64-.1l-1.75-.28v-.2a9.65 9.65 0 0 1-2.12-1.03 8.38 8.38 0 0 0-2.59 5.48H28v-1.9l-.52-.83L26 24.4V24h.72Zm.76-3.95.52.25v-.7c-2.03 0-3.88.72-5.33 1.91.57.37 1.4.76 2.4 1.06l.25-.08.25-.76c1.55-.33 1.92-1.26 1.91-1.68Zm2.83 1.68.62.97c.85-.22 1.71-.56 2.57-1.05a8.36 8.36 0 0 0-4.9-2.03v.96l.22.1.41.86 1.08.19ZM29 31.08V28h-.4v3.17l.4-.09Zm.04 2.53-.44-.1v2.87a8.36 8.36 0 0 0 4.84-1.98 10.6 10.6 0 0 0-3.81-1.37l-.59.58Zm-3.72-.22.18-.19c-1.24.3-2.27.75-2.97 1.17A8.37 8.37 0 0 0 28 36.4v-2.75l-.52 1.57-1.11-1.6-1.05-.23Zm-3.24.57c.9-.58 2.38-1.23 4.18-1.5l.46-.46h.76l.52-.63V28h-8.4c0 2.33.95 4.43 2.48 5.96ZM28.39 19 28 19a9 9 0 1 0 .6.02v-.01h-.21Zm5.1 7.24-.2.1v.28h.2l.21-.17-.2-.2Zm-1.83 5.52.22-.3.31.16v.43h-.3l-.23-.3Zm-.47.4.14-.28.33.17v.33h-.33l-.14-.23Zm1.5-.54-.22.26v.27l.38-.1v-.3l-.15-.13Zm-.62.9.12-.14.28.14-.1.19h-.3v-.2Zm1.63-5.69.26.09v.25l-.26.16-.2-.16.2-.34Z" fill="#106DB4"/></svg>