<!-- by TradingView --><svg width="56" height="56" viewBox="0 0 56 56" xmlns="http://www.w3.org/2000/svg"><path fill="#F0F3FA" d="M0 0h56v56H0z"/><path fill-rule="evenodd" d="M28 40c13.25 0 23-5.37 23-12s-9.75-12-23-12S5 21.37 5 28s9.75 12 23 12Zm0-1c11.6 0 20-4.92 20-11s-8.4-11-20-11S8 21.92 8 28s8.4 11 20 11Z" fill="#006AB7"/><path d="M19 24h-1.12l-2 6h1.29l.29-1h1.96l.28 1h1.28L19 24Zm.13 4h-1.39l.7-2.42.69 2.42Zm4.26 2h-.43l-1.93-6h1.4l1.2 4.47L24.85 24h1.41l-1.94 6H23.4ZM31 29v1h-4v-6h4v1h-3v1.5h2.5v1H28V29h3Zm3-4h1.5v-1h-4v1H33v5h1v-5Zm4.92 3h1.07c-.01.4-.1.72-.27 1.03a1.81 1.81 0 0 1-1.7.97c-.31 0-.6-.07-.85-.2a1.82 1.82 0 0 1-.64-.56 2.8 2.8 0 0 1-.4-.88c-.08-.35-.13-.74-.13-1.18v-.35c0-.44.05-.83.14-1.18.1-.35.23-.64.41-.89a1.75 1.75 0 0 1 1.47-.76c.41 0 .76.09 1.04.27.28.18.5.42.66.74.16.3.25.59.28.99h-1.08c-.02-.58-.28-.97-.92-.97-.88 0-1 1.15-1 1.79v.36c0 .66.12 1.82 1.02 1.82.61 0 .87-.44.9-1ZM46 26.87v.26c0 .45-.06.84-.18 1.2-.12.35-.3.65-.52.9-.22.25-.48.44-.78.57-.3.13-.64.2-1.01.2s-.7-.07-1.01-.2c-.3-.13-.57-.32-.8-.57-.22-.25-.4-.55-.52-.9a3.64 3.64 0 0 1-.18-1.2v-.26c0-.44.06-.84.18-1.2.13-.35.3-.65.52-.9.22-.25.48-.44.79-.57.3-.13.64-.2 1.01-.2s.7.07 1.01.2c.3.13.57.32.79.57.22.25.4.55.52.9.12.36.18.76.18 1.2Zm-1 .26v-.27c0-.77-.54-1.86-1.5-1.86-.97 0-1.5 1.09-1.5 1.86v.27c0 .78.54 1.87 1.5 1.87.97 0 1.5-1.1 1.5-1.87Zm-30 2.9v-6h-1v3.87l-1.91-3.87H11v6h1v-3.88l1.92 3.88H15Z" fill="#006AB7"/><path d="M28.43 31c-6.75 0-14.5.37-17.53.55 4.1.15 13.37.45 17.53.45 4.17 0 13.04-.3 16.95-.45-2.83-.18-10.2-.55-16.95-.55Z" fill="#EB0000"/><path opacity=".5" d="M29 34H19v3h10v-3Zm8 0h-7v3h7v-3Z" fill="#EB0000"/></svg>