<!-- by TradingView --><svg width="56" height="56" viewBox="0 0 56 56" xmlns="http://www.w3.org/2000/svg"><path fill="#F0F3FA" d="M0 0h56v56H0z"/><path d="M9.17 25H6c1.32.5 3.07 2.87 3.79 3.98l3.1 6.22c.25.6 1 1.8 2.08 1.8s1.95-1.2 2.24-1.8c.66-1.44 2.16-4.7 2.95-6.22.78-1.52 2.89-3.29 3.84-3.98h-2.86c-1.86 0-3.4 2-3.93 2.99l-2.24 4.5-2.21-4.5c-1.08-2.17-2.84-2.9-3.6-2.99ZM21 37v-6.84c.26-1.72 2.09-5.16 7.28-5.16.7.06 2.39.27 3.46.6 1.07.33 1.95.42 2.26.42a5.23 5.23 0 0 1-4.46 2.37c-.95 0-1.84-.08-2.62-.16-1.75-.16-2.92-.27-2.92.77v1h6c-.07.77-.12 2.44.21 3H24v4h-3Zm10.29-7.92c1.03-.27 3.2-1.37 3.58-3.6a5.63 5.63 0 0 1 2.47-.48c1.62 0 4.38.77 5.66 3.94-.27.2-1.03.6-1.92.6-.52 0-1.09-.34-1.7-.7-.7-.43-1.48-.89-2.3-.89A3.11 3.11 0 0 0 34 31.02c0 1.83 1.85 2.96 3.08 2.96 1 0 2-.7 2.38-1.06.13-.16.65-.48 1.62-.48.96 0 1.68.32 1.92.48A5.97 5.97 0 0 1 37.08 37C32.31 37 31 32.51 31 31.02c0-.67.19-1.57.29-1.94Z" fill="#7EBB4A"/><path d="M14.5 18.68c-.22-.5-.8-.96-1.07-1.13.2-1.09.8-2.15 1.07-2.55.67.9 1 2.08 1.07 2.55-.52.25-.93.86-1.07 1.13ZM12 17l1.3 1.12c.44.39.7.96.7 1.55v1.83l-1.4-1.39c-.38-.38-.6-.9-.6-1.45V17Zm0 6.5 1.3 1.12c.44.39.7.95.7 1.55V28l-1.4-1.39c-.38-.39-.6-.9-.6-1.45V23.5Zm1.3-2.15L12 20.23v1.66c0 .54.22 1.07.6 1.45l1.4 1.4V22.9c0-.6-.26-1.16-.7-1.55ZM17 17l-1.3 1.12c-.44.39-.7.96-.7 1.55v1.83l1.4-1.39c.38-.38.6-.9.6-1.45V17Zm0 6.5-1.3 1.12c-.44.39-.7.95-.7 1.55V28l1.4-1.39c.38-.39.6-.9.6-1.45V23.5Zm-1.3-2.15 1.3-1.12v1.66c0 .54-.22 1.07-.6 1.45l-1.4 1.4V22.9c0-.6.26-1.16.7-1.55ZM19 22.4v-2.32c1.39-.7 5.59-2.08 11.32-2.08C37.5 18 48 21.98 48 29.57c.04 1.12-.32 3.79-2.06 5.43.41-.77 1.23-2.82 1.23-4.81 0-2.5-4.33-10.35-16.85-10.35-5.74 0-9.94 1.7-11.32 2.56Z" fill="#FBB12F"/></svg>