<!-- by TradingView --><svg width="56" height="56" viewBox="0 0 56 56" xmlns="http://www.w3.org/2000/svg"><path fill="#F0F3FA" d="M0 0h56v56H0z"/><path fill-rule="evenodd" d="M43 13H13v30h30V13Zm-1 1H14v28h28V14Z" fill="#1266A5"/><path d="M20 15h-5v14.76a3.24 3.24 0 0 0 6.17 1.4L29 15h-5.75L20 20.88V15Z" fill="#1266A5"/><path fill-rule="evenodd" d="M22 37c2.11-.82 6.68-4.18 8.09-11H40v11H22Zm7-4h2v-3h1v4h1.98l.41-1.65h.3c.1-.2 1.31-.6 1.31-.6V34h.92l-.44-1H37v-2h.47v2H39l-1.34 2H30.4L29 33Z" fill="#1266A5"/><path d="M40 21h-7c1.85-3.06 5.44-4.6 7-5v5Z" fill="#1266A5"/><path opacity=".5" fill="#1266A5" d="M15 39h23v2H15z"/></svg>