<!-- by TradingView --><svg width="56" height="56" viewBox="0 0 56 56" xmlns="http://www.w3.org/2000/svg"><path fill="#F0F3FA" d="M0 0h56v56H0z"/><path d="M27.27 44.72C20.4 37.34 14.9 24.75 13 19.37c3.68 2.34 12.33 6.24 17.47 3.21-3.2 3.94-10.41 1.65-13.61 0 .93 4.96 7.33 16.83 10.4 22.14Z" fill="#F6840D"/><path d="M30.24 22.9c-6.07 7.08-4.45 17.4-2.87 21.66-2.79-3.77-8.76-12.67-10.38-18.1l-1.62-5.06c3.33 1.64 10.95 4.24 14.87 1.5Z" fill="#FAA61A"/><path d="M35.62 17.53A17.04 17.04 0 0 0 38.78 9c2 6.33-.42 13.02-1.89 15.58-2.17 2.88-6.13 9.12-4.62 11 1.5 1.88 5.78-5.9 7.73-10.01-1.52 7.47-8.34 17.8-9.62 19.03-1.28 1.24-3.17-.06-3.17-9.02 0-8.96 5.42-14.03 8.4-18.05Z" fill="url(#ana00fiay)"/><defs><linearGradient id="ana00fiay" x1="38.66" y1="15.24" x2="33.46" y2="44.97" gradientUnits="userSpaceOnUse"><stop stop-color="#F9A41C"/><stop offset="1" stop-color="#A74610"/></linearGradient></defs></svg>