<!-- by TradingView --><svg width="56" height="56" viewBox="0 0 56 56" xmlns="http://www.w3.org/2000/svg"><path fill="#F0F3FA" d="M0 0h56v56H0z"/><path d="M15 15h26v11h-2v1h-8.93l.22-1h-5.33l-.48 1H15V15Zm0 13v1h8.54l.47-1H15Zm14.85 0-.22 1H39v-1h-9.15ZM39 30h-9.6l-.21 1H39v-1Zm0 2H28.97l-.22 1H39v-1Zm0 2H28.53l-.66 3H39v-3Zm0 4H15v3h24v-3Zm-17.35-5 .48-1H15v1h6.65ZM15 34h6.18l-.47 1H15v-1Zm0-3h7.6l.47-1H15v1Zm23.79-5.56.34-1.8c-.87-.16-2.62-1-2.62-3.12s2.35-2.76 3.52-2.82l.44-1.68c-1.95-.15-5.84.59-5.84 4.72-.09 1.19.62 3.8 4.16 4.7ZM16 16v2h1.38l1.1 9 5.27-9h1.75l-2.1 7h1.9l2.14-7h2.46l-2.04 7h4.2l.69-2h-2.31l.43-1.5h1.92l.84-2h-2.19l.42-1.5h2.17l.88-2H22.74l-3.1 5.69L19 16h-3Z" fill="#ED1C24"/><path fill-rule="evenodd" d="M40 13.5H16a2.5 2.5 0 0 0-2.5 2.5v24a2.5 2.5 0 0 0 2.5 2.5h24a2.5 2.5 0 0 0 2.5-2.5V16a2.5 2.5 0 0 0-2.5-2.5ZM16 13a3 3 0 0 0-3 3v24a3 3 0 0 0 3 3h24a3 3 0 0 0 3-3V16a3 3 0 0 0-3-3H16Z" fill="#ED1C24"/></svg>