<!-- by TradingView --><svg width="56" height="56" viewBox="0 0 56 56" xmlns="http://www.w3.org/2000/svg"><path fill="#F0F3FA" d="M0 0h56v56H0z"/><path d="m11.43 26.32-2.3-5.68a1.05 1.05 0 0 0-.99-.64H5.06c-.72 0-1.23.67-1 1.32l4.56 13c.15.4.55.68 1 .68h2.35l-.54-8.68ZM29 20c-5 0-6 3.57-6 4.99v6.03c0 1.24 1.5 3.98 6 3.98l-1-4.1c-.78-.2-1-.64-1-.89V25c0-.25.22-.7 1-.9L29 20ZM41.5 35H43V20h-1c-1.6 0-2 1.33-2 2v12c0 .8 1 1 1.5 1Z" fill="#FBD1A9"/><path d="M34.9 25h-2.4c-.55 0-1.04-.53-1.53-.78A2.28 2.28 0 0 0 30 24c-1.6 0-2 .67-2 1v5c0 .33.4 1 2 1s2-.67 2-1v-1h-1c-.33 0-1-.2-1-1s.67-1 1-1h4c.5 0 1 .5 1 1v3c0 1.33-1.2 4-6 4s-6-2.67-6-4v-6c0-1.5.5-5 6-5 3.58 0 5.2 2.2 5.76 3.92.19.56-.27 1.08-.86 1.08ZM9.14 20H6.06c-.72 0-1.23.67-1 1.32l4.56 13c.15.4.55.68 1 .68h3.76c.45 0 .85-.28 1-.68l4.57-13c.22-.65-.29-1.32-1-1.32h-3.09c-.44 0-.83.25-.98.64L12.5 26.5l-2.38-5.86a1.05 1.05 0 0 0-.98-.64Z" fill="#054EB7"/><path fill-rule="evenodd" d="M41 22c0-.67.4-2 2-2h6c1 0 3 .8 3 4v3c0 1-.6 3-3 3h-3v4c0 .33-.2 1-1 1h-3c-.33 0-1-.2-1-1V22Zm5 2h1c.33 0 1 .2 1 1 0 .33-.2 1-1 1h-1v-2Z" fill="#054EB5"/></svg>