<!-- by TradingView --><svg width="56" height="56" viewBox="0 0 56 56" xmlns="http://www.w3.org/2000/svg"><path fill="#F0F3FA" d="M0 0h56v56H0z"/><path d="M7 24.59 24.63 43h6.92c4.81-5.38 14.42-16 14.42-16H22.91l3.78 4.37h.62L25.65 29h1.4l.26 1H36v.9l-7.75 8.08-14.33-14.14 6.14-4.34h15.95l4.48 4H49L37.7 15H18.68L7 24.59Zm6.98-.37-.89-.85 5.63-3.99-1.41-1.06 1.02-.82 1.1 1.68.34-.34V18h16.68l5.6 5.37H44v-2.13l1 .93v1.2h1.7V24H41l-4.55-4H19.77l-5.79 4.22ZM25.35 42.5 8.5 24.66l.7-.33 6.03 6.12.55-1.09 1.36 1.34h-1.61L25.8 42h4.88L40 31.2v-.5h-1V29h2v1h.11l1.55-2h1.4L31 42.5h-5.66Z" fill="#094"/></svg>