<!-- by TradingView --><svg width="56" height="56" viewBox="0 0 56 56" xmlns="http://www.w3.org/2000/svg"><path fill="#F0F3FA" d="M0 0h56v56H0z"/><circle cx="28" cy="28" r="16" fill="#D9D9D9"/><path d="M28 44a16 16 0 0 0 14.84-22H26L13.61 35A16 16 0 0 0 28 44Z" fill="#2B2A55"/><path d="M14 24v9.55L26.11 21l11.55.03L39.63 18H27.07L17 28.06v-7.85L13.27 24H14Z" fill="#2B2A55"/><path d="M40.6 23H25.75c-2.72 2.92-8.53 9.14-10 10.82-1.47 1.69-.41 2.95.3 3.18h8.83l5.07-6h8.1l2.2-2.94L25.7 28l-2.84 3h5.2l-1.69 2h-8.34l5.56-6h13.9l3.11-4Z" fill="#DCD2CC"/></svg>