<!-- by TradingView --><svg width="56" height="56" fill="none" xmlns="http://www.w3.org/2000/svg"><path fill="#F0F3FA" d="M0 0h56v56H0z"/><path fill-rule="evenodd" clip-rule="evenodd" d="M49 28c0 7.18-9.402 13-21 13S7 35.18 7 28s9.402-13 21-13 21 5.82 21 13Zm-1.996 0c0 6.627-8.508 12-19.002 12S9 34.627 9 28s8.508-12 19.002-12 19.002 5.373 19.002 12Zm-28.978-6.762c.27-1.08 1.695-3.238 5.24-3.238 2.205 0 3.184.222 4.169.445.996.226 1.999.453 4.28.453 3.63 0 5.702-.599 6.285-.898v1.442c-1.208.3-4.157.898-6.285.898-1.326 0-2.763-.223-4.203-.447-1.448-.225-2.899-.45-4.245-.45-2.149 0-4.39 1.196-5.241 1.795Zm8.611 14.298L18 25.393v-2.004l8.987 10.78-.35 1.367ZM18 28.181l7.939 9.178.506-1.24L18 26.178v2.004Zm0 3.1 5.791 6.669h1.71L18 29.276v2.004Zm.834-8.328-.834-.98c1.173-.571 3.99-1.714 5.867-1.714 1.19 0 2.77.217 4.326.43 1.513.209 3.004.413 4.097.413 1.773 0 4.554-.562 5.71-.843V21.7c-.843.218-3.186.654-5.71.654-1.65 0-3.156-.179-4.594-.35-1.314-.155-2.572-.304-3.829-.304-2.107 0-4.233.835-5.033 1.252Zm.522.626 1.017 1.034c.678-.345 2.373-1.034 3.729-1.034.767 0 2.138.212 3.64.444 1.814.28 3.818.59 5.174.59 1.981 0 4.232-.472 5.084-.708V22.49c-1 .236-3.457.708-5.084.708-.965 0-2.433-.19-3.977-.39-1.714-.22-3.52-.454-4.837-.454-2.003 0-3.998.816-4.746 1.225Zm9.361 1.356-1.33-.271c-.182.434-.39 1.917-.39 2.852 0 .548.131 1.526.271 2.565.159 1.175.328 2.427.328 3.22 0 1.195-.8 3.63-1.2 4.699h1.513c.27-1.014.808-3.374.808-4.7 0-.853-.138-1.865-.272-2.846-.127-.924-.25-1.82-.25-2.531 0-1.173.348-2.48.522-2.988Zm.491.065h1.484c-.174.505-.522 1.805-.522 2.973 0 .707.123 1.6.249 2.518.134.977.273 1.984.273 2.833 0 1.32-.54 3.667-.809 4.676h-1.512c.4-1.063 1.2-3.486 1.2-4.676 0-.789-.17-2.034-.328-3.203-.14-1.034-.272-2.008-.272-2.553 0-.93.054-2.136.237-2.568Zm3.805 0h-1.644c-.134.317-.113 1.047-.093 1.78.008.27.015.538.015.788 0 .545.133 1.519.273 2.552.158 1.17.327 2.415.327 3.204 0 1.19-.8 3.613-1.2 4.676h1.513c.27-1.009.809-3.357.809-4.676 0-.85-.139-1.856-.273-2.833-.127-.919-.249-1.81-.249-2.518 0-1.168.348-2.468.522-2.973Z" fill="#1F48A0"/></svg>