<!-- by TradingView --><svg width="56" height="56" viewBox="0 0 56 56" xmlns="http://www.w3.org/2000/svg"><path fill="#F0F3FA" d="M0 0h56v56H0z"/><path d="M10 28h36L28.06 10 10 28Zm27.95-6h-19.9l9.98-9.88L37.95 22Zm-2.76-1H20.81l7.21-7.14L35.2 21Zm10.21 7.5H10.67l.77 1h33.2l.76-1ZM12.15 30h1.77l4.73 5H20v-5h1v6h-2.86l-6-6ZM22 30v6h1v-5l3.26 5H28v-6h-1v5l-3.35-5H22Zm7 6v-6h5v2h-1v-1h-3v4h3v-1h1v2h-5Zm6-6v6h2.6l1.87-2h-1.09l-.95 1H36v-4h5.22l-.97 1h1.33l1.9-2H35Zm-16 7 9 9 9-9H19Zm10.5 4.5a1.5 1.5 0 1 1-3 0 1.5 1.5 0 0 1 3 0Z" fill="#CB0003"/></svg>