<!-- by TradingView --><svg width="56" height="56" viewBox="0 0 56 56" xmlns="http://www.w3.org/2000/svg"><path fill="#1B2739" d="M0 0h56v56H0z"/><path d="M26.83 14.42c-.1-.82-.8-1.7-2.22-.86 0 0-.96.56-.82 1.49l.71 4.91-2.28-5.9a1.44 1.44 0 0 0-.05-.1c-.25-.6-.68-1.32-1.08-1.55a1.96 1.96 0 0 0-2.18-.13 2 2 0 0 0-.72 2.72l.08.12c.14.3.33.58.52.83l.07.1 3.95 4.91-3.88-3.04c-.72-.59-1.68-.02-1.68-.02-1.42.83-1.02 1.88-.36 2.37l.09.08 9.57 6.13c.24.16.47.17.62.08.16-.1.25-.3.24-.59l-.56-11.44c0-.04 0-.08-.02-.1ZM39.1 35.73a.45.45 0 0 0-.09-.08l-9.57-6.13c-.24-.16-.46-.17-.62-.08-.15.1-.25.3-.24.59l.56 11.44.02.11c.1.83.8 1.7 2.22.87 0 0 .96-.57.82-1.5l-.71-4.9 2.28 5.89.05.1c.25.6.68 1.33 1.08 1.56.61.46 1.47.54 2.18.12a2 2 0 0 0 .72-2.7l-.08-.13c-.14-.29-.33-.58-.52-.83l-.07-.1-3.95-4.92 3.88 3.05c.73.58 1.69.02 1.69.02 1.42-.84 1-1.88.35-2.38Zm-10.28-9.17c.16.1.38.08.62-.08l9.59-6.11a.42.42 0 0 0 .08-.08c.66-.49 1.08-1.53-.35-2.37 0 0-.95-.57-1.68.01l-3.88 3.04 3.95-4.9a.9.9 0 0 0 .07-.1c.39-.5.8-1.25.8-1.71a2 2 0 0 0-.96-1.98 1.95 1.95 0 0 0-2.69.69l-.07.13a5.36 5.36 0 0 0-.5.98l-2.3 5.88.72-4.9c.14-.93-.81-1.5-.81-1.5-1.42-.84-2.12.03-2.22.85l-.02.12-.58 11.44c-.02.3.08.5.23.6Zm-1.66 2.88c-.16-.1-.38-.08-.62.08l-9.59 6.11a.42.42 0 0 0-.08.08c-.66.5-1.08 1.53.35 2.38 0 0 .95.56 1.68-.02l3.88-3.04-3.95 4.9a.93.93 0 0 0-.07.1c-.39.5-.8 1.25-.8 1.71a2 2 0 0 0 .96 1.98c.94.56 2.14.25 2.69-.69l.07-.13a5.36 5.36 0 0 0 .5-.98l2.3-5.88-.72 4.9c-.14.93.81 1.5.81 1.5 1.42.84 2.12-.03 2.22-.85l.02-.12.58-11.44c.02-.3-.07-.5-.23-.59Zm16.85-3.71-.14.01c-.33-.01-.67.01-.97.05l-.13.02-6.16 1.07 4.53-1.93c.85-.35.83-1.47.83-1.47-.02-1.67-1.12-1.82-1.87-1.48a.68.68 0 0 0-.1.04l-9.99 5.43c-.25.13-.37.32-.37.5 0 .19.13.37.39.5l10.13 5.12c.04.02.07.03.11.03.76.32 1.86.14 1.83-1.53 0 0-.02-1.12-.88-1.45l-4.59-1.78 6.2.87.12.02c.63.07 1.47.04 1.87-.2A2 2 0 0 0 46 27.7a1.97 1.97 0 0 0-1.98-1.96Zm-17.67 2.3c0-.19-.13-.37-.39-.5L15.83 22.4l-.11-.03c-.76-.32-1.86-.14-1.83 1.53 0 0 .02 1.13.88 1.45l4.59 1.79-6.2-.89-.12-.01c-.63-.07-1.47-.05-1.87.2A2 2 0 0 0 10 28.3a1.97 1.97 0 0 0 2.12 1.95c.33.01.67-.01.97-.05l.13-.02 6.17-1.07-4.53 1.93c-.86.36-.84 1.48-.84 1.48.03 1.66 1.12 1.81 1.87 1.47a.67.67 0 0 0 .11-.04l9.98-5.43c.25-.13.38-.32.37-.5Z" fill="#E11B22"/></svg>