<!-- by TradingView --><svg width="56" height="56" viewBox="0 0 56 56" xmlns="http://www.w3.org/2000/svg"><path fill="#F9B41B" d="M0 0h56v56H0z"/><path fill-rule="evenodd" d="M31.45 18.97 27.95 13l-3.42 5.98a4 4 0 0 0-.53 1.99v.07c0 2.18 1.8 3.96 4 3.96a4.01 4.01 0 0 0 3.45-6.03ZM29.73 20 27.97 17l-1.7 3a2 2 0 0 0-.27.98v.04A2 2 0 0 0 28 23a2 2 0 0 0 1.73-3.01ZM9 25v4.17C9 34.72 13.57 39 19.22 39H25v-4.36c-.25-1.86-1.8-5.56-6.34-5.56.06.59.42 1.92 1.37 2.5l.16.1C21.37 32.4 23 33.4 23 34.9V37h-4.63c-2.35-.36-7.37-3-7.37-8.07v-1.98c-.01-.65-.17-1.95-2-1.95Zm38 0v4.17C47 34.72 42.43 39 36.78 39H31v-4.36c.25-1.86 1.8-5.56 6.34-5.56-.06.59-.42 1.92-1.37 2.5l-.16.1C34.63 32.4 33 33.4 33 34.9V37h4.63c2.35-.36 7.37-2.55 7.37-8.07v-1.98c.01-.65.17-1.95 2-1.95Zm-34 4.7c0 3.27 4.04 5.7 6.56 5.49 0-.83-.33-1.51-.65-1.95-.22-.3-.58-.46-.93-.6A5.06 5.06 0 0 1 15 29.13V27h4.1c4.74 0 7.9 4.98 7.9 7.39v3.5c0 .61.45 1.11 1 1.11s1-.5 1-1.1v-3.51c0-2.4 3.02-7.39 7.76-7.39H41v2.13c-.1.93-1.32 2.8-3.12 3.51-.35.14-.7.3-.93.6a3.36 3.36 0 0 0-.65 1.95c2.53.21 6.7-2.22 6.7-5.5v-4.67h-6.24c-3.46 0-7.08 2.6-8.77 5.76-1.74-3.15-5.42-5.76-8.89-5.76H13v4.67Z"/></svg>