<!-- by TradingView --><svg width="56" height="56" viewBox="0 0 56 56" xmlns="http://www.w3.org/2000/svg"><path fill="#109E4C" d="M0 0h56v56H0z"/><path fill-rule="evenodd" d="M14.82 14a.84.84 0 0 0-.82.85v25.28c0 1.03.8 1.87 1.8 1.87h22.48l-4.23-4.24A9.63 9.63 0 0 1 29.31 39H26.7A9.7 9.7 0 0 1 17 29.3v-3.23A9.06 9.06 0 0 1 26.05 17h3.9c5 0 9.05 4.06 9.05 9.07v3.22c0 2.51-.95 4.8-2.5 6.52l5.26 5.25c.15-.28.24-.6.24-.93V14.85a.84.84 0 0 0-.82-.85H14.82Zm15.83 16 3.6 3.59A7.04 7.04 0 0 0 36 28.94V26.6a6.6 6.6 0 0 0-5.04-6.42l-2.81 1.77-.21-.38-.4.23-2.09-1.7A6.6 6.6 0 0 0 20 26.6v2.34c0 3.9 3.15 7.06 7.05 7.06h1.9a7 7 0 0 0 2.78-.57L26.3 30h4.34Zm-2.85-8c-.77.78-2.3 2.76-2.3 4.47 0 2.13 1.95 2.53 2.53 2.53.59 0 2.47-.41 2.47-2.53 0-1.7-1.44-3.69-2.15-4.47l-.32.26-.23-.26Z" fill="#fff"/></svg>