<!-- by TradingView --><svg width="56" height="56" viewBox="0 0 56 56" xmlns="http://www.w3.org/2000/svg"><path fill="#F0F3FA" d="M0 0h56v56H0z"/><path d="M15.5 30.5c1.6-.4 3 .17 3.5.5l-5.5 1.5c0-.5.4-1.6 2-2Z" fill="#F8CA24"/><path d="M35 33.98a8.5 8.5 0 1 0-12.99.02c.85-.34 3-1 4.99-1v-1h-1l3-2.5 1 .5v-2h-1l3.5-3 3.5 3h-1v5.98Z" fill="url(#a)"/><path d="M29 34c-7.2.4-15.67 4.83-19 7 2.83-1 9.5-3 13.5-3 5 0 4 1 10.5 1 5.2 0 10.17-1.67 12-2.5-2.67-1-9.8-2.9-17-2.5Z" fill="#E5802E"/><path d="m32.5 10-2 8c.5 0 1.7-.6 2.5-3s0-4.33-.5-5Z" fill="#F7CC30"/><path d="m25 19-2-8c.5.33 1.7 1.5 2.5 3.5s0 3.83-.5 4.5Z" fill="#F7CC2F"/><path d="m21 22-5.5-4.5c.83 0 2.8.2 4 1 1.2.8 1.5 2.67 1.5 3.5ZM19 26.5 13 25c.83-.33 2.7-.9 3.5-.5.8.4 2 1.5 2.5 2Z" fill="#F8CA24"/><defs><linearGradient id="a" x1="28.5" y1="20" x2="28.5" y2="37" gradientUnits="userSpaceOnUse"><stop stop-color="#EFA612"/><stop offset="1" stop-color="#FCEB02"/></linearGradient></defs></svg>