<!-- by TradingView --><svg xmlns="http://www.w3.org/2000/svg" width="56" height="56" viewBox="0 0 56 56"><path fill="#F0F3FA" d="M0 0h56v56H0z"/><path d="M11.79 28h-1.52c-.09 0-.25 0-.25.14 0 .05.02.12.16.12.09 0 .21 0 .3.03.06.03.07.1.07.14 0 .08-.04.22-.07.32-.18.6-1.24 3.48-1.78 4.78l-1.6-4.4a3.7 3.7 0 0 1-.23-.71c0-.05.02-.1.08-.12.06-.03.2-.04.3-.04.13 0 .15-.09.15-.13 0-.13-.19-.13-.3-.13H5.29c-.12 0-.29 0-.29.13 0 .08.05.13.14.13.04 0 .18 0 .3.04.28.08.4.15.58.64l2.11 5.46.03.06c.15.41.2.54.34.54.11 0 .15-.1.28-.4l.15-.32c.19-.42.55-1.33 1.06-2.58l.4-.98.61-1.56c.23-.58.35-.73.45-.8.15-.1.32-.1.38-.1.15 0 .17-.08.17-.13 0-.09-.07-.13-.21-.13zM13.24 34.7l.32.03c.07 0 .12.07.12.13 0 .04-.02.14-.18.14a1101.07 1101.07 0 0 1-1.63 0c-.15 0-.18-.09-.18-.14 0-.06.05-.13.12-.13.07 0 .15-.02.21-.04.1-.02.12-.1.14-.35.04-.34.04-1.03.04-1.66V31.3l-.01-1.66c-.02-.27-.08-.33-.18-.36a1.1 1.1 0 0 0-.21-.02c-.07 0-.12-.07-.12-.14 0-.09.06-.13.18-.13h1.46c.12 0 .18.04.18.13 0 .07-.06.14-.13.14-.04 0-.09 0-.16.02-.16.03-.2.1-.2.36l-.01.62v3.17c-.02.4-.02.7 0 .9.03.24.07.32.24.35zm6.21-5.7H21c.06 0 .18.01.18.13 0 .07-.07.14-.16.14-.03 0-.1 0-.18.02-.19.04-.22.21-.22.68l-.02 4.42c0 .5 0 .61-.13.61-.1 0-.18-.05-.65-.48a58.29 58.29 0 0 1-4.2-4.05l.09 3.38c.02.63.1.75.25.8l.38.04c.08 0 .14.05.14.13 0 .06-.04.18-.22.18h-1.6c-.06 0-.2-.05-.2-.18 0-.08.05-.13.13-.13.06 0 .2-.01.3-.05.12-.03.12-.14.11-.53v-4.66c0-.22.08-.45.25-.45.1 0 .2.1.32.21l.04.04.36.38.04.04c.58.6 1.2 1.18 1.82 1.77.66.63 1.32 1.25 1.92 1.88.07.07.11.13.15.19a.9.9 0 0 0 .1.13v-3.6c-.01-.51-.08-.7-.26-.73a2.54 2.54 0 0 0-.38-.04c-.08 0-.13-.05-.13-.14 0-.12.16-.13.22-.13z" fill="#C4842A"/><path d="M27.61 34.73l-.32-.04c-.18-.02-.26-.1-.29-.34-.02-.23-.02-.6 0-1.01V31.31v-1.1c0-.3-.01-.42 0-.56.02-.26.1-.33.25-.36l.17-.02c.07 0 .14-.07.14-.14 0-.06-.03-.13-.2-.13a1077.36 1077.36 0 0 0-1.6 0c-.13 0-.2.05-.2.14 0 .06.06.13.14.13.06 0 .18 0 .24.02.2.03.23.1.25.37l.01 1.67v.14H23v-.14-1.09-.59c.02-.26.16-.33.32-.36.07-.02.12-.02.17-.02.07 0 .13-.07.13-.13 0-.1-.06-.14-.19-.14h-1.61c-.13 0-.2.04-.2.13 0 .07.07.14.14.14.06 0 .18 0 .24.02.2.03.24.1.26.36l.01 1.66v1.37c0 .75 0 1.35-.04 1.66v.03c-.04.23-.06.3-.15.33a.93.93 0 0 1-.21.03c-.08 0-.13.07-.13.13 0 .05.02.14.19.14h1.69c.18 0 .19-.1.19-.13 0-.07-.05-.14-.13-.14a2.8 2.8 0 0 1-.33-.03c-.17-.03-.32-.12-.35-.35-.02-.2-.02-.51 0-.9V32h3.2v.7c0 .74 0 1.32-.03 1.64-.03.24-.05.33-.16.36a.85.85 0 0 1-.2.03c-.08 0-.13.07-.13.14 0 .08.06.13.19.13h1.68c.19 0 .2-.11.2-.13a.13.13 0 0 0-.14-.14zm21.13-3.2l-.22-.14c-.74-.52-.94-.78-.94-1.22 0-.54.5-.74.93-.74.7 0 .91.32.92.34.04.07.1.26.1.34.01.06.03.16.14.16.12 0 .12-.14.12-.24 0-.4.02-.63.03-.73v-.01-.05c0-.12-.1-.12-.13-.12-.06 0-.12 0-.25-.03a3.6 3.6 0 0 0-.8-.09c-1.05 0-1.73.58-1.73 1.47 0 .58.32 1.05 1.1 1.66l.35.26c.67.51.92.75.92 1.25 0 .57-.4.93-1.07.93-.47 0-1.01-.18-1.12-.7-.03-.09-.03-.19-.03-.25 0-.11-.07-.15-.13-.15-.05 0-.12.02-.12.18l-.01.1v.01c-.02.15-.04.4-.04.69 0 .2.01.27.15.34.39.19.92.21 1.12.21.55 0 .96-.1 1.24-.28.48-.32.73-.77.73-1.33 0-.69-.37-1.23-1.26-1.85zM28 32c0-1.24.93-2.99 3-2.99 1.8 0 3 1.16 3 2.88 0 1.78-1.3 3.12-3.04 3.12-2.03 0-2.96-1.56-2.96-3zm.9-.2c0 1.65.91 2.76 2.27 2.76.33 0 1.94-.11 1.94-2.46 0-1.85-1.08-2.67-2.15-2.67-1.3 0-2.06.88-2.06 2.37zm12.67 2.95c-.07 0-.27 0-.47-.07-.25-.09-.31-.4-.34-.73l-.52-4.67c-.03-.22-.11-.27-.18-.27-.1 0-.15.1-.18.16l-2.14 4.6-2.23-4.6c-.06-.14-.16-.16-.21-.16-.08 0-.14.08-.16.2l-.55 4.96v.08c-.04.27-.06.44-.23.47h-.02l-.2.03c-.08 0-.14.05-.14.12 0 .05.03.14.2.14h1.34c.17 0 .2-.08.2-.14 0-.07-.07-.12-.12-.12-.06 0-.17-.02-.28-.05-.13-.03-.13-.12-.13-.14v-.38l.28-3.24.61 1.31.19.4.1.19c.19.43.7 1.42.88 1.77.15.28.2.38.32.38.1 0 .16-.1.32-.44l1.74-3.7.34 3.64v.2a.13.13 0 0 0-.09.12c0 .12.13.19.28.2h1.3c.13 0 .21-.06.21-.14 0-.07-.05-.12-.12-.12zm4.12-.76c.02-.06.04-.17.15-.17.03 0 .12.02.12.19 0 .05-.07.58-.11.75-.07.25-.19.25-.49.25h-2.7c-.17 0-.2-.1-.2-.15 0-.07.05-.13.13-.13l.14-.02.09-.02c.08-.01.1-.1.13-.32v-.02c.05-.31.05-.9.05-1.65v-1.35c0-1.18 0-1.4-.02-1.64-.01-.25-.05-.33-.25-.36l-.25-.01c-.06 0-.13-.07-.13-.13 0-.1.07-.2.2-.2h3.12c.02 0 .1 0 .1.14l-.01.1a1.6 1.6 0 0 0-.06.42l-.03.36c-.02.07-.07.13-.14.13-.03 0-.12 0-.12-.16 0-.05-.01-.17-.04-.25-.04-.08-.08-.13-.49-.19l-1.06-.02v2.09l1.23-.01h.02c.16-.02.26-.03.31-.1l.03-.02c.05-.05.08-.1.13-.1s.11.04.11.14l-.01.1a8.92 8.92 0 0 0-.08.82c0 .13-.05.21-.14.21-.05 0-.11-.04-.11-.14 0-.07 0-.14-.04-.23-.01-.06-.03-.15-.33-.19-.2-.02-.94-.03-1.12-.03v1.92c.02.45.09.55.84.55.19 0 .54 0 .73-.08.16-.07.26-.17.3-.48z" fill="#0C1C56"/><path d="M34.93 12c-3.56.46-7.2 1.7-7.44 5.5-.11 1.77.4 3.1.97 4.38A7.53 7.53 0 0 0 22 19.44c1.78.54 3.89 1.57 5.02 2.93.24.3.59.8.5 1.22-.13.72-1.37.58-2.12.62 1.55.66 3.3 1.86 5.52 1.79 1.11-.04 1.93-.76 1.84-2.1-.15-2.4-1.81-4.46-1.98-7.17-.2-3.06 1.82-4.19 4.08-4.69.04.02.12 0 .13-.01.02-.02 0-.03-.06-.03z" fill="url(#agaszqypc)"/><defs><linearGradient id="agaszqypc" x1="33.5" y1="21.74" x2="27.53" y2="15.87" gradientUnits="userSpaceOnUse"><stop stop-color="#FDB913"/><stop offset=".22" stop-color="#E5A521"/><stop offset=".51" stop-color="#CE9130"/><stop offset=".77" stop-color="#C08538"/><stop offset="1" stop-color="#BB813B"/></linearGradient></defs></svg>