<!-- by TradingView --><svg width="56" height="56" fill="none" xmlns="http://www.w3.org/2000/svg"><path fill="#0065B3" d="M0 0h56v56H0z"/><path fill-rule="evenodd" clip-rule="evenodd" d="M11.163 25h-1.87c-.177 0-.315.145-.29.31.566 3.754 2.49 10.69 6.085 10.69 3.596 0 5.406-6.941 5.91-10.694.022-.164-.116-.306-.292-.306h-1.958a.29.29 0 0 0-.291.227c-.565 2.911-1.957 8.313-3.369 8.313-1.413 0-2.98-5.411-3.635-8.32a.291.291 0 0 0-.29-.22ZM22 35.719V25.28c0-.155.164-.281.366-.281h2.268c.202 0 .366.126.366.281V35.72c0 .155-.164.281-.366.281h-2.268c-.202 0-.366-.126-.366-.281Zm5-10.462v9.486c0 .142.126.257.283.257h6.175C35.169 35 37 33.795 37 32.094c0-1.336-.956-2.137-1.742-2.498-.22-.1-.236-.26-.057-.413.66-.56.761-1.445.792-1.893 0-1.811-1.362-2.281-2.107-2.29h-6.602c-.157 0-.284.115-.284.257Zm2.949 3.798v-2.282h2.436c.601 0 1.09.511 1.09 1.141s-.489 1.141-1.09 1.141h-2.436Zm0 4.109v-2.739h3.131c.774 0 1.402.613 1.402 1.37 0 .756-.628 1.369-1.402 1.369H29.95Z" fill="#fff"/><path d="M40.575 21 37 17h2.522c.314.007 1.241.452 2.434 2.174 1.105-1.565 1.996-2.101 2.303-2.174H47l-3.728 4h-2.697Z" fill="#F6BD16"/><path d="m41.937 23.645-1.877 5.197-1.276-2.256c-.152-.285-.212-1.336.772-3.264-2.002-.207-2.947-.735-3.169-.974L35 19.896l5.573 1.336 1.364 2.413Z" fill="#F19914"/><path d="M43.472 21.243 49 20.2l-1.342 2.22c-.174.272-1.07.854-3.266.998.83 1.795.842 2.86.744 3.169L43.677 29l-1.64-5.384 1.435-2.373Z" fill="#EE7F13"/></svg>