<!-- by TradingView --><svg width="56" height="56" viewBox="0 0 56 56" xmlns="http://www.w3.org/2000/svg"><path fill="#F0F3FA" d="M0 0h56v56H0z"/><circle cx="28" cy="28" r="17" fill="#E31C23"/><path d="M16 25.78c2.9 1.12 8.7 3.95 8.7 6.35 0 .52-.67 1.5-3.33 1.26 1.62 1 5.64 3.01 8.8 3.01 3.93 0 3.07-4.7 2.67-5.63l-.14-.28c-.99-2.09-6.32-13.3 2.3-16.09-3.44.2-10.3 2.27-10.3 9.04.01 1.11.3 3.79 1.25 5.61-1.44-1.35-5.44-3.9-9.95-3.27Zm2.8 9.8-.3 1.17.65 1.02-1.2.06-.77.94-.44-1.13-1.13-.43.94-.77.07-1.2 1.02.65 1.16-.3Zm4.23 3.32-.32-1.17-.86.85-1.2-.06.54 1.08-.43 1.13 1.2-.18.94.75.2-1.19 1-.66-1.07-.55Zm5.83 1.14-.6-1.04-.61 1.04-1.19.26.8.9-.11 1.2 1.1-.48 1.11.48-.12-1.2.8-.9-1.18-.26Zm4.82-1.14.32-1.17.86.85 1.2-.06-.54 1.08.43 1.13-1.2-.18-.94.75-.2-1.19-1-.66 1.07-.55Zm4.23-3.32.3 1.17-.65 1.02 1.2.06.77.94.44-1.13 1.12-.43-.93-.77-.07-1.2-1.02.65-1.16-.3Z" fill="#FDEF03"/></svg>