<!-- by TradingView --><svg width="56" height="56" viewBox="0 0 56 56" xmlns="http://www.w3.org/2000/svg"><path fill="#F0F3FA" d="M0 0h56v56H0z"/><path d="M33.59 20.45c5.42 0 9.87 4.14 10.36 9.44A16.64 16.64 0 0 0 34.7 13.7a3 3 0 1 1-4.06-1.38 16.62 16.62 0 0 0-17.71 8.06 10.4 10.4 0 0 1 16.98.73c1.14-.43 2.38-.67 3.68-.67Zm-21.55 8.29c-.56 6.72 4.46 11.18 6.72 12.55-2.55-4.85-.02-8.01 2.42-11.06 1.05-1.32 2.1-2.62 2.7-4.02 2-4.66 0-6.54-2-6.84-2-.3-9.13.94-9.84 9.37ZM42.4 30.5c-.88-9.37-8.31-9.39-11.93-8.22 1.28 4.88-3.2 11.36-5.7 14.05-.85 1.02-2.36 3.67-.91 5.59a5.36 5.36 0 0 0 5.02 2.03c9.94-1.34 13.52-8.8 13.52-13.45Z" fill="#0061B3"/></svg>