<!-- by TradingView --><svg width="56" height="56" fill="none" xmlns="http://www.w3.org/2000/svg"><path fill="#F0F3FA" d="M0 0h56v56H0z"/><path fill-rule="evenodd" clip-rule="evenodd" d="M28 42c7.658 0 14-6.342 14-14s-6.342-14-14-14-14 6.342-14 14 6.342 14 14 14Zm0 2c8.837 0 16-7.163 16-16s-7.163-16-16-16-16 7.163-16 16 7.163 16 16 16Z" fill="#0A3072"/><path d="M23.944 22H16l10.843 17h6.43c-2.312-1.691-2.693-4.83-2.593-6h4.553l4.958-5h-7.917c-.88 0-1.274-.617-1.274-1.5s.393-1.5 1.274-1.5h11.538L49 20H30.931C29.091 20 28 21.497 28 23.342v5.06c-2.837 0-5.454-1.49-5.454-3.334 0-1.474.932-2.647 1.398-3.068Z" fill="#0A3072"/></svg>