<!-- by TradingView --><svg width="56" height="56" viewBox="0 0 56 56" xmlns="http://www.w3.org/2000/svg"><path fill="#F0F3FA" d="M0 0h56v56H0z"/><path d="m6 24 .52.73L9.4 33h3.46l3.2-8.27.54-.73h-2.17v.51l-2.11 6.42-2.27-6.2V24H6Zm11.67 0 .3.48v7.92l-.3.6h3.68l-.35-.6v-7.92l.35-.48h-3.68Zm6.52 0h5.3l.3 1.98-.66-.46h-3.46c-.34 0-.67.25-.67.6v4.75c0 .36.33.7.67.7h3.82l.51-.33-.51 1.76h-5.3C23 33 22 32 22 30.75v-4.5c0-1.24.98-2.25 2.2-2.25Zm11.46 5.99h-3.46c-.66 0-1.19-.4-1.19-1.11v-3.6c0-.71.53-1.28 1.19-1.28h6.32l.29 2.05-.57-.55h-3.85c-.16 0-.38.2-.38.38v.8c0 .17.22.32.38.32h3.28c.74 0 1.34.49 1.34 1.28v3.29c0 .79-.6 1.43-1.34 1.43H31.3L31 31.13l.43.37h4.22c.16 0 .35-.27.35-.44v-.75c0-.18-.19-.32-.35-.32Z" fill="#FAA61A"/><path fill-rule="evenodd" d="M47.29 26.54 51 22.96 47.92 20l-7.02 6.77 2.93 2.83L40 33.29 42.82 36l7.26-6.77-2.8-2.69ZM47 26.5h-3v3h3v-3Z" fill="#0066B3"/></svg>