<!-- by TradingView --><svg width="56" height="56" fill="none" xmlns="http://www.w3.org/2000/svg"><path fill="#F0F3FA" d="M0 0h56v56H0z"/><path fill-rule="evenodd" clip-rule="evenodd" d="M29.108 14.625c-.036 2.469-.95 4.507-1.884 6.523l-.098.212c-1.11 2.392-2.227 4.801-2.227 8.073 0 5.488 2.668 10.575 3.817 11.928l-1.43-.294c-1.288-.59-2.24-1.182-2.924-1.869-.698-.701-1.091-1.479-1.3-2.392-.204-.892-.23-1.911-.212-3.093.006-.437.019-.894.032-1.38.023-.86.05-1.81.05-2.9 0-4.047-2.253-6.26-4.06-7.233.917 2.23 1.063 3.516.903 4.76-.055.43-.151.877-.25 1.335-.057.261-.114.525-.165.792-.147.77-.273 1.702-.273 2.99 0 5.058 3.887 10.02 9.629 10.02 2.875 0 4.914-1.22 6.245-2.75 1.349-1.552 1.952-3.402 1.952-4.596 0-2.174-.529-3.16-1.55-5.063-.168-.313-.35-.65-.543-1.022a9.436 9.436 0 0 1-1.019-3.613c-.194.288-.397.62-.593.99-.637 1.203-1.185 2.777-1.185 4.568 0 1.836.294 2.982.59 3.922.045.143.092.285.138.426.256.778.508 1.548.508 2.502 0 1.192-.489 2.021-1.052 2.547-.276.258-.568.44-.823.56-.233.11-.497.194-.717.194.013 0-.289.024-.54-.011a1.792 1.792 0 0 1-.974-.46c-.637-.581-1.036-1.703-1.036-3.721 0-1.893.717-4.021 1.457-6.218l.243-.724c.834-2.502 1.638-5.154 1.638-7.949 0-3.252-1.251-5.666-2.347-7.054Z" fill="#DA251C"/><path fill-rule="evenodd" clip-rule="evenodd" d="M28 45c9.389 0 17-7.611 17-17s-7.611-17-17-17-17 7.611-17 17 7.611 17 17 17ZM17.732 21.097c1.933.502 5.798 2.872 5.798 8.336 0 1.095-.027 2.066-.05 2.932-.124 4.532-.17 6.218 4.055 8.158-1.078-1.352-3.235-5.463-3.235-11.09 0-3.405 1.167-5.92 2.272-8.302 1.178-2.538 2.286-4.925 1.836-8.078 1.215.942 3.645 3.985 3.645 8.626 0 3.179-1.001 6.157-1.907 8.85-.748 2.223-1.43 4.253-1.43 6.04 0 3.697 1.391 3.623 1.866 3.598l.085-.003c.36 0 1.993-.682 1.993-2.703 0-.851-.218-1.522-.472-2.298-.35-1.068-.764-2.337-.764-4.552 0-3.826 2.34-6.682 3.024-7.267-.15.819-.18 2.974.902 5.045.19.362.367.694.534 1.004 1.03 1.915 1.627 3.027 1.627 5.358 0 2.71-2.665 7.944-8.795 7.944s-10.228-5.29-10.228-10.617c0-1.836.25-2.984.46-3.95.4-1.839.657-3.02-1.216-7.03Z" fill="#0071B7"/></svg>