<!-- by TradingView --><svg width="56" height="56" viewBox="0 0 56 56" xmlns="http://www.w3.org/2000/svg"><path fill="#F0F3FA" d="M0 0h56v56H0z"/><path fill-rule="evenodd" d="M45 28a17 17 0 1 1-34 0 17 17 0 0 1 34 0Zm-1 0a16 16 0 1 1-32 0 16 16 0 0 1 32 0ZM29.47 14c.22 1.04.2 3.85-1.62 6.7-2.26 3.56-2.48 7.72-2.48 10.42s1.83 8.15 3.4 10.31a6.2 6.2 0 0 1-5.4-6.42c0-1.15.07-2.2.14-3.18.27-3.97.47-6.75-4.51-9.78.38.75 1.13 2.73 1.13 4.59 0 1.09-.13 2.13-.27 3.23a31.86 31.86 0 0 0-.32 4.17c0 2.97 3.4 8.96 9.23 8.96S38 38.46 38 35c0-1.55-.74-2.96-1.48-4.38-.91-1.75-1.84-3.52-1.49-5.66-.79.61-2.37 2.83-2.37 6.8 0 1.68.34 3.05.63 4.22.58 2.3.97 3.84-1.82 5.45-.8-.03-2.38-.98-2.38-4.48 0-2.05.7-4.3 1.43-6.68.82-2.69 1.7-5.55 1.7-8.5 0-4.44-1.83-7.03-2.75-7.77Z"/></svg>