<!-- by TradingView --><svg width="56" height="56" fill="none" xmlns="http://www.w3.org/2000/svg"><path fill="#E12127" d="M0 0h56v56H0z"/><path fill-rule="evenodd" clip-rule="evenodd" d="M27.914 26h.801l.23-1h-.802s.057-.175.229-.971c-1.03-.16-1.573.398-1.573.398l-.944 4.166c-.172.85.2 1.407 1 1.407 1.06 0 1.288-.982 1.288-.982a1.86 1.86 0 0 1-.429.053c-.486-.026-.4-.451-.372-.53L27.914 26Zm-9.153 0h-.801l-.573 2.553c-.028.079-.114.5.372.526.143 0 .344-.026.43-.052 0 0-.23.973-1.288.973-.8 0-1.173-.552-1.001-1.394l.973-4.183s.543-.552 1.573-.395c-.172.79-.19.972-.19.972h.8l-.295 1ZM4.629 31h1.373l3.347-6H7.833l-2.088 4.069L5.487 25H4l.63 6Zm7.81-3h3.06a5.08 5.08 0 0 0 .23-1.298c0-1.09-.659-1.702-1.803-1.702-.944 0-1.716.399-2.202 1.064-.458.558-.716 1.356-.716 2.074 0 1.17.773 1.862 2.089 1.862.772 0 1.43-.16 1.859-.346l-.143-.877c-.286.106-.83.266-1.373.266-.772 0-1.03-.431-1.001-1.043Zm.257-1.43c.258-.48.63-.745 1.059-.745.429 0 .657.239.629.718 0 .116-.03.236-.058.344l-.028.113h-1.802c.068-.19.082-.216.143-.326l.057-.105ZM25.454 28h-3.06c-.03.612.228 1.043 1 1.043.544 0 1.088-.16 1.374-.266l.143.877c-.43.186-1.087.346-1.86.346-1.316 0-2.06-.692-2.06-1.862 0-.718.258-1.516.687-2.074.515-.665 1.259-1.064 2.203-1.064 1.144 0 1.802.612 1.802 1.702 0 .266-.086.872-.229 1.298Zm-1.745-2.175c-.429 0-.8.265-1.058.744l-.057.105c-.061.11-.075.135-.143.326h1.802c.007-.036.017-.074.027-.113.028-.108.059-.228.059-.344.028-.48-.23-.718-.63-.718Zm14.79.2c.257-.107.657-.107 1 .027l.344-.993c-.887-.161-2.031.027-2.66.349L36.123 30h1.487l.887-3.974ZM32.29 31l.028-1.34h-2.03l-.83 1.34h-1.46l4.006-6h1.516l.257 6h-1.487Zm.057-4.66L30.803 29h1.516l.029-2.66Zm-16.934 3.984c-.115.865.629 1.676 1.945 1.676 1.344 0 2.345-.919 2.66-2.405L21.049 25H19.56l-.887 4.027c-.171.838-.4 1.19-.657 1.405-.716.622-1.946.595-2.603-.108ZM10.006 30H8.548l1.087-5h1.459l-1.087 5Zm23.971 0h1.488l1.087-5h-1.487l-1.088 5Zm4.863 0c-.257 0-.429-.171-.429-.4 0-.314.286-.6.601-.6.258 0 .43.171.43.4.028.314-.287.6-.602.6Zm3.319-3.257c.171 0 .314.086.4.143l.343-.6c-.114-.115-.486-.286-.915-.286-.543 0-1.115.257-1.487.8-.315.457-.544 1.143-.544 1.714 0 .915.544 1.486 1.287 1.486.458 0 .801-.114.973-.286l-.086-.685c-.114.085-.315.142-.515.142-.314 0-.515-.228-.515-.714 0-.371.115-.886.315-1.2.2-.343.458-.514.744-.514Zm3.29 2.4a1.916 1.916 0 0 1-1.631.857c-.916 0-1.373-.571-1.373-1.429 0-.571.2-1.257.515-1.714.371-.543.915-.857 1.63-.857.915 0 1.402.571 1.402 1.4 0 .571-.229 1.286-.544 1.743Zm-.945-2.457c-.286 0-.515.228-.658.571a4.139 4.139 0 0 0-.314 1.429c0 .343.085.543.4.543s.515-.2.658-.543a4.138 4.138 0 0 0 .315-1.429c0-.343-.115-.571-.4-.571ZM51.342 30l.543-2.725c.008-.023.014-.046.02-.07.015-.065.032-.134.095-.22 0-.58-.372-.985-1.173-.985-.658 0-1.144.203-1.401.406-.172-.232-.601-.406-1.116-.406-.63 0-1.173.087-1.63.29L45.906 30h1.116l.658-3.217a1.32 1.32 0 0 1 .486-.087c.343 0 .515.145.515.377 0 .028-.007.05-.015.072a.216.216 0 0 0-.014.072L48.081 30h1.116l.629-3.101a.895.895 0 0 1 .543-.203c.315 0 .458.145.458.377 0 .028-.007.05-.014.072a.216.216 0 0 0-.015.072L50.226 30h1.116Z" fill="#fff"/></svg>