<!-- by TradingView --><svg width="56" height="56" viewBox="0 0 56 56" xmlns="http://www.w3.org/2000/svg"><path fill="#F0F3FA" d="M0 0h56v56H0z"/><path d="M18.37 38.71c-.64 2.88 2.04 3.69 3.46 3.73-4.32 3.09-8.71 1.16-8.71-2.05 0-3.22 3.52-11.19 8.7-16.65 5.2-5.47 15.16-13.37 19.08-11.44 3.14 1.54 2.06 5.82 1.13 7.77-.21-2.36-1.73-2.87-2.46-2.82-3.65 0-9.04 3.47-13.42 8.03-4.39 4.56-6.98 9.84-7.78 13.43Zm-4.52-17.29c3.2-5.86 8.24-7.62 10.37-7.77-2.77 2.2-5 5.72-5.78 7.2 2.17-2.62 7.06-7.86 9.24-7.91 2.18-.05 4.36.45 5.18.7-9.89 4.79-16.8 15.41-19 20.13-1.55-6.23-.65-10.82 0-12.35Zm27.25.97c.24-1.29.16-3.86-2.13-3.86-2.85 0-7.97 2.25-12.89 8.23-4.92 5.98-8.24 13.18-4.65 14.4.54.08 1.83.08 2.7-.54.02-1.66 1.17-6.14 5.52-10.78 5.42-5.8 8.54-6.69 11.45-7.45ZM24.96 40.4V37.7c6.38-3.5 11.61-10.85 13.43-14.09l2.46-.42c-1.77 4.49-5 8.6-6.4 10.08a49.61 49.61 0 0 1-9.49 7.14Zm-.81 1.37c2.5-1.35 8.23-4.86 11.18-8.18 2.94-3.32 5.66-8.95 6.64-11.34.6 1.54.8 5.7-3.26 10.05L43 28.97a14.7 14.7 0 0 1-12.45 13.2c1.51-.85 4.9-3.1 6.35-5.2l-2.72 1.7v-1.05c-1.88 1.52-5.8 4.56-6.53 4.56l-3.5-.41Z" fill="url(#awglfe4uy)"/><defs><linearGradient id="awglfe4uy" x1="13" y1="38.65" x2="32.16" y2="16.14" gradientUnits="userSpaceOnUse"><stop stop-color="#FAA61B"/><stop offset="1" stop-color="#CF222C"/></linearGradient></defs></svg>