<!-- by TradingView --><svg width="56" height="56" viewBox="0 0 56 56" xmlns="http://www.w3.org/2000/svg"><path fill="#F0F3FA" d="M0 0h56v56H0z"/><path d="m18.17 22 5.93 15.66a.67.67 0 0 1-.39.86.7.7 0 0 1-.87-.32l-6.65-12.53c-.26-.49-.95-.51-1.2-.02-1.5 3.07-1.95 7.34-1.99 9.83 0 .52.3.99.77 1.25a26.48 26.48 0 0 1 6.73 5.65c.33.38.8.62 1.31.62.77 0 1.42-.55 1.88-1.14.66-.85 1.92-1.7 4.1-1.7 2.15 0 3.46.83 4.18 1.66.53.62 1.24 1.18 2.06 1.18.54 0 1.05-.24 1.42-.62 2-2.12 5.1-4.43 6.92-5.67.36-.24.6-.63.62-1.06a16.1 16.1 0 0 0-3.23-10.28c-.3-.4-.92-.3-1.13.16L32.9 38.18a.65.65 0 0 1-.85.33.63.63 0 0 1-.36-.8l5.65-15.75c.42-1.18.1-2.49-.82-3.35l-7.73-7.22a1.48 1.48 0 0 0-2 0l-7.8 7.2a3.13 3.13 0 0 0-.82 3.4Z" fill="#F02024"/></svg>