<!-- by TradingView --><svg width="56" height="56" viewBox="0 0 56 56" xmlns="http://www.w3.org/2000/svg"><path fill="#F0F3FA" d="M0 0h56v56H0z"/><path fill-rule="evenodd" d="M28 9.85 9.85 28 28 46.15 46.15 28 28 9.85ZM9 28l19 19 19-19L28 9 9 28Z" fill="#299FD5"/><path fill-rule="evenodd" d="M28.09 36.92a8.83 8.83 0 1 0 0-17.66 8.83 8.83 0 0 0 0 17.66Zm0 .6a9.43 9.43 0 1 0 0-18.86 9.43 9.43 0 0 0 0 18.86Z" fill="#299FD5"/><path opacity=".8" fill-rule="evenodd" d="M28 39c6.02 0 11-4.98 11-11s-4.98-11-11-11-11 4.98-11 11 4.98 11 11 11Zm0 1a12 12 0 1 0 0-24 12 12 0 0 0 0 24Z" fill="#299FD5"/><path d="M27.6 27.75V19h.6v8.75H37v.6h-8.8V37h-.6v-8.65H19v-.6h8.6Z" fill="#299FD5"/><path fill-rule="evenodd" d="M26 20.36V24h1.1l-.62.95V27H20.8l2.28-3.32h1.14c.42-.95 1.38-2.94 1.77-3.32Zm-2.65 3.44v.2h.97v-.2h-.97Zm0 .74v-.42H26v.42h-2.65ZM22.61 26h.74l-.15.6h-.6V26Zm3.02 0h-1.9l-.22.6h1.89l.23-.6Z" fill="#29166F"/><path fill-rule="evenodd" d="M34 23.24v3.49h-5v-.18h1v-5.06l1.35-.61 1.65.61v1.26l1 .5Zm-1.23-1.5-1.06-.46-.13.25 1.07.46.12-.25Zm0 .57-1.06-.46-.13.24 1.07.47.12-.25Zm-1.06.1 1.06.47-.12.25-1.07-.47.13-.25Zm1.06 1.04-1.06-.47-.13.25 1.07.47.12-.25Zm-1.06.1 1.06.47-.12.25-1.07-.47.13-.25Zm1.06 1.04-1.06-.47-.13.25 1.07.47.12-.25Zm-1.06.1 1.06.47-.12.25-1.07-.47.13-.25Zm1.06 1.04-1.06-.47-.13.25 1.07.46.12-.24Zm-1.06.1 1.06.47-.12.25-1.07-.47.13-.24Zm-1.52-4.09 1.06-.46.13.25-1.07.46-.12-.25Zm0 .57 1.06-.46.13.24-1.07.47-.12-.25Zm1.06.1-1.06.47.12.25 1.07-.47-.13-.25Zm-1.06 1.04 1.06-.47.13.25-1.07.47-.12-.25Zm1.06.1-1.06.47.12.25 1.07-.47-.13-.25Zm-1.06 1.04 1.06-.47.13.25-1.07.47-.12-.25Zm1.06.1-1.06.47.12.25 1.07-.47-.13-.25Zm-1.06 1.04 1.06-.47.13.25-1.07.46-.12-.24Zm1.06.1-1.06.47.12.25 1.07-.46-.13-.25ZM29 27h5v.32h-5V27Zm.16-2.28a.6.6 0 0 1 .17-.52c.12-.1.26-.15.34-.15v-.18a.74.74 0 0 0-.48.2.77.77 0 0 0-.23.66c.03.3.15.49.29.62.1.1.23.15.32.19v.89h.2V25.4l-.07-.02a.78.78 0 0 1-.31-.17.74.74 0 0 1-.23-.5Z" fill="#DA251D"/><path fill-rule="evenodd" d="m30.89 29.06.24.52-.44.2-.03.27.59-.3.2.45-.85.4-.04.4h1.04l.4 1h.65v-.58h1l.36.58h.3v1h-.3c.05.22.05.74-.36.74-.4 0-.5-.52-.49-.74h-2.31c.32.87-.5.88-.94.74-.7.22-.73-.43-.67-.74h-.44v-1h.6l.51-1h.4l.04-.27-.56.27-.2-.44.82-.4.03-.27-3.64 1.65v1.42a.98.98 0 0 1 .25-.03.5.5 0 0 1 .44.25c.07.13.1.27.11.37v.01c.02.08 0 .16-.03.23a.68.68 0 0 1-.13.22c-.1.1-.24.19-.41.19v.16H22.2v-.19a.9.9 0 0 1-.34-.1.57.57 0 0 1-.3-.48.72.72 0 0 1 .3-.64l.03-.02h.53v-2l.1-.56a.37.37 0 0 1-.1-.12.28.28 0 0 1-.02-.2c.03-.11.13-.2.2-.25l.02-.02h1.53v.55h-.58l-.14.16.13.08c.22.02.38.18.5.34l.15.28.59-.9v1.25l6.09-2.48Zm-6.1 2.74v.3l1.84-.75 4.18-1.9-.04-.09-5.97 2.44Zm1.77-.16-1.73.7c.21.12.43.34.55.68h1.18v-1.38Zm-2-.55v1.15a.8.8 0 0 0-.12-.02v.72h-1.78v-1.36h1.07v-.6h-1.07v-.02l.13-.7-.07-.04c-.05-.03-.07-.06-.08-.07v-.04a.2.2 0 0 1 .06-.09h1.21v.07h-.44l-.4.45.41.27h.04c.12 0 .23.09.34.24.1.14.17.32.2.44l.07.26.43-.66Zm1.88 2.17h-1.23l.03.12.02.17h1.15c0-.1 0-.2.03-.29Zm.04.53h-1.29a.99.99 0 0 1-.32.33h1.9a.77.77 0 0 1-.3-.33Zm.46.16c.14.03.24-.02.32-.1l.1-.14a.22.22 0 0 0 .01-.1v-.02c-.02-.1-.04-.2-.08-.29a.25.25 0 0 0-.09-.1.27.27 0 0 0-.15-.03.54.54 0 0 0-.3.07c-.07.05-.12.14-.1.32l.02.07c.06.2.2.3.27.32Zm-2.64.17a1.08 1.08 0 0 1-.33-.33h-1.21a.55.55 0 0 1-.27.33h1.81Zm-2-.18a.34.34 0 0 0 .17-.1c.04-.06.06-.12.07-.19.02-.15-.02-.34-.08-.48h-.5a.5.5 0 0 0-.15.4c0 .14.07.23.17.29.1.06.22.08.32.08Zm.49-.4h1.15a.96.96 0 0 1 .2-.37h-1.42c.03.11.06.25.07.38Zm1.37.1c.1.15.2.24.28.28a.3.3 0 0 0 .22.03c.14-.04.27-.18.35-.32a.6.6 0 0 0 0-.2.32.32 0 0 0-.1-.2.34.34 0 0 0-.23-.06h-.07a.47.47 0 0 0-.33.2.72.72 0 0 0-.12.27Zm-1.5-2.3h.84v-.11h-.84v.11Zm-.62 2.06h.34v.35h-.34v-.35Zm2.4 0h.34v.35h-.34v-.35Zm2.74 0h-.34v.35h.34v-.35Z" fill="#E0D800"/></svg>