<!-- by TradingView --><svg width="56" height="56" viewBox="0 0 56 56" xmlns="http://www.w3.org/2000/svg"><path fill="#F0F3FA" d="M0 0h56v56H0z"/><path fill-rule="evenodd" d="M27 24.5h1v-2.57h-.06l-.94-.01v2.58Zm19.67 0H34v-3.18c3.42-.7 5.9-1.84 7.02-2.57 2.64 1.53 4.62 3.5 5.65 5.75Zm.2.5H9.13a8.28 8.28 0 0 0 0 6H46.88a8.28 8.28 0 0 0 0-6Zm-.2 6.5H34V34h11.04a10.6 10.6 0 0 0 1.63-2.5ZM28 40.45v-6.7h-.06c-.32 0-.63 0-.94.02v6.66c.33.02.66.02 1 .02Zm-1.98-.06-4.87-5.7a25.21 25.21 0 0 0-6.19 2.55 25.56 25.56 0 0 0 11.06 3.15ZM14.27 36.8c.99-.66 3.29-1.86 6.35-2.74l-2.2-2.57H9.34a12.88 12.88 0 0 0 4.94 5.31ZM8.73 31.5C11.08 36.98 18.82 41 28 41c11.05 0 20-5.82 20-13s-8.95-13-20-13c-.34 0-.67 0-1 .02V15l-.19.02c-8.65.33-15.83 4.24-18.08 9.48h-.02v.06a8.82 8.82 0 0 0 0 6.88v.06h.02Zm.6-7h2.97l-1.68-2.1c-.52.67-.95 1.37-1.29 2.1Zm1.63-2.5h5.58l2.43 2.5H22v-3.16a20.98 20.98 0 0 1-7-2.6A15.52 15.52 0 0 0 10.95 22Zm4.76-3.66c1.14.68 3.32 1.64 6.28 2.25v-4.44a24.26 24.26 0 0 0-6.28 2.2ZM27 15.57v5.6c.3.02.62.02.94.02H28v-5.64c-.34 0-.67 0-1 .02Zm7 .58v4.42a22.45 22.45 0 0 0 6.28-2.22 24.26 24.26 0 0 0-6.28-2.2ZM27 31.5h1v1.51h-.06c-.32 0-.63 0-.94.02V31.5Z" fill="#054BE2"/><path fill-rule="evenodd" d="M17.48 26h1.56c.1 0 .18.07.18.15 0 .04-.03.09-.08.12l-.37.22c.19.58.7 1.91 1.28 2.65.33-.68 1.02-2.15 1.08-2.65l-.39-.22a.14.14 0 0 1-.07-.12c0-.08.08-.15.17-.15h1.1c.1 0 .19.07.19.16 0 .04-.02.08-.06.1l-.28.23c-.29.77-.98 2.46-1.43 3.16-.04.11-.21.35-.6.35-.45 0-.57-.18-.67-.32l-.02-.03c-.1-.14-1.22-1.92-1.4-3.16l-.3-.22a.14.14 0 0 1-.07-.12c0-.08.08-.15.18-.15Zm5.02.24.31.25v3.03l-.27.16a.17.17 0 0 0-.1.14c0 .1.1.18.21.18h1.52c.1 0 .2-.08.2-.17a.17.17 0 0 0-.1-.15l-.27-.16v-3.03l.32-.25a.13.13 0 0 0 .05-.1c0-.08-.07-.14-.16-.14h-1.6c-.1 0-.16.06-.16.14 0 .04.02.07.05.1Zm5.99.25-.31-.25a.13.13 0 0 1-.05-.1c0-.08.07-.14.16-.14h1.6c.09 0 .16.06.16.14 0 .03-.02.07-.05.1l-.33.25v3.03l.29.16c.05.03.09.09.09.15 0 .1-.1.17-.2.17h-1.52c-.11 0-.2-.08-.2-.18 0-.05.03-.1.09-.14l.27-.16v-3.03Zm-3.65 0-.31-.25a.13.13 0 0 1-.05-.1c0-.08.07-.14.16-.14h1.6c.09 0 .16.06.16.14 0 .03-.02.07-.05.1l-.35.25v3.03l.02.09h1.28l.52-.48a.26.26 0 0 1 .27-.05c.11.05.17.16.13.26l-.23.53a.24.24 0 0 1-.22.13h-3.09c-.11 0-.2-.08-.2-.18 0-.05.03-.1.09-.14l.27-.16v-3.03Zm9.26-.05v.63c0 .1-.1.18-.22.18a.25.25 0 0 1-.22-.11c-.2-.33-.65-.83-1.28-.83-.9 0-1.35.94-1.35 1.6 0 .65.36 1.6 1.35 1.6.6 0 1.08-.27 1.35-.5.11-.1.3-.1.4-.02.08.06.1.16.04.24-.32.37-1.06.77-1.87.77-.9 0-2.52-.53-2.52-1.79S30.68 26 32.3 26c1.17 0 1.69.3 1.8.44ZM39 28c0 1.1-1 2-2.25 2-1.24 0-2.25-.9-2.25-2s1-2 2.25-2c1.24 0 2.25.9 2.25 2Zm-1 0c0 .83-.56 1.5-1.25 1.5s-1.25-.67-1.25-1.5.56-1.5 1.25-1.5S38 27.17 38 28Z" fill="red"/></svg>