<!-- by TradingView --><svg width="56" height="56" viewBox="0 0 56 56" xmlns="http://www.w3.org/2000/svg"><path fill="#F0F3FA" d="M0 0h56v56H0z"/><path d="M28 10 10 28l18 18 18-18-18-18ZM14.9 24.71l8.1 8.05V17.1l5.2-5.24L33 17.1v15.66l8.49-8.05 3.45 3.45-16.75 16.75-16.74-16.75 3.45-3.45Z" fill="#01BD5F"/><path d="M29.25 15.7c0 1.5-.57 2.7-1.27 2.7-.7 0-1.28-1.2-1.28-2.7 0-1.5.57-2.7 1.28-2.7.7 0 1.27 1.2 1.27 2.7Zm-5.1 1.9c1.2.17 3.52 1.42 3.1 5.16-3.38-1.37-3.47-4-3.1-5.15Zm0 5.06c1.2.15 3.52 1.4 3.1 5.15-3.38-1.38-3.47-4-3.1-5.15Zm0 4.31c1.2.16 3.52 1.41 3.1 5.16-3.38-1.38-3.47-4.02-3.1-5.16Zm0 4.87c1.2.16 3.52 1.42 3.1 5.16-3.38-1.38-3.47-4.01-3.1-5.16Zm7.7-14.23c-1.2.16-3.52 1.4-3.1 5.15 3.38-1.37 3.47-4 3.1-5.15Zm0 5.05c-1.2.15-3.52 1.4-3.1 5.15 3.38-1.38 3.47-4 3.1-5.15Zm0 4.31c-1.2.16-3.52 1.41-3.1 5.16 3.38-1.38 3.47-4.02 3.1-5.16Zm0 4.87c-1.2.16-3.52 1.42-3.1 5.16 3.38-1.38 3.47-4.01 3.1-5.16Z" fill="#FAEC19"/><path fill-rule="evenodd" d="M28.95 15.7a4.3 4.3 0 0 1-.34 1.78c-.22.47-.46.62-.63.62-.17 0-.41-.15-.63-.62A4.3 4.3 0 0 1 27 15.7c0-.71.14-1.34.35-1.78.22-.46.46-.62.63-.62.17 0 .4.16.63.62.2.44.34 1.07.34 1.78Zm-4.38 4.28a3.53 3.53 0 0 1-.2-2.03c.51.13 1.18.46 1.7 1.08.58.68 1 1.72.91 3.29a4.54 4.54 0 0 1-2.41-2.34Zm-.42-2.37c-.36 1.1-.28 3.62 2.8 5.03l.3.12.03-.3c.26-3.51-1.96-4.7-3.13-4.85Zm.42 7.42a3.53 3.53 0 0 1-.2-2.03c.51.13 1.18.46 1.7 1.08.58.68 1 1.72.91 3.29a4.54 4.54 0 0 1-2.41-2.34Zm-.42-2.37c1.17.15 3.39 1.34 3.13 4.84l-.03.31a8.2 8.2 0 0 1-.3-.12c-3.08-1.4-3.16-3.92-2.8-5.03Zm1.93 5.74a3.32 3.32 0 0 0-1.71-1.08c-.11.52-.11 1.26.2 2.03a4.54 4.54 0 0 0 2.41 2.33 4.49 4.49 0 0 0-.9-3.28Zm-1.93-1.43c1.17.15 3.39 1.34 3.13 4.84l-.03.32a8 8 0 0 1-.3-.13c-3.08-1.4-3.16-3.92-2.8-5.03Zm.42 7.25a3.53 3.53 0 0 1-.2-2.03c.51.13 1.18.45 1.7 1.08.58.67 1 1.71.91 3.29a4.54 4.54 0 0 1-2.41-2.34Zm-.42-2.38c1.17.16 3.39 1.35 3.13 4.85l-.03.31a8.2 8.2 0 0 1-.3-.12c-3.08-1.41-3.16-3.92-2.8-5.04Zm4.9-9.2-.3.12-.03-.3c-.26-3.51 1.96-4.7 3.13-4.85.36 1.1.28 3.62-2.8 5.03Zm.87-3.6c.53-.63 1.2-.96 1.71-1.09.11.52.11 1.27-.2 2.03a4.54 4.54 0 0 1-2.41 2.34c-.1-1.57.33-2.61.9-3.29Zm-.88 8.65a8 8 0 0 1-.29.12l-.03-.31c-.26-3.5 1.96-4.69 3.13-4.84.36 1.1.28 3.62-2.8 5.03Zm.88-3.6c.53-.63 1.2-.96 1.71-1.09.11.52.11 1.27-.2 2.03a4.54 4.54 0 0 1-2.41 2.34c-.1-1.57.33-2.62.9-3.29ZM29.04 32l-.29.13a8.4 8.4 0 0 1-.03-.32c-.26-3.5 1.96-4.69 3.13-4.84.36 1.11.28 3.63-2.8 5.03Zm2.39-2.65c.31-.77.31-1.51.2-2.03-.51.12-1.18.45-1.7 1.08-.58.67-1 1.71-.91 3.28a4.54 4.54 0 0 0 2.41-2.33Zm-2.39 7.53a8 8 0 0 1-.29.12l-.03-.31c-.26-3.5 1.96-4.7 3.13-4.85.36 1.12.28 3.63-2.8 5.04Zm.88-3.6c.53-.64 1.2-.96 1.71-1.09.11.52.11 1.26-.2 2.03a4.54 4.54 0 0 1-2.41 2.34c-.1-1.58.33-2.62.9-3.29Zm-.67-17.58c0 1.5-.57 2.7-1.27 2.7-.7 0-1.28-1.2-1.28-2.7 0-1.5.57-2.7 1.28-2.7.7 0 1.27 1.2 1.27 2.7Zm-1.5 2.77V38h.5V18.47h-.5Z" fill="#79C86D"/><path opacity=".7" d="m15.02 26.7 9.45 9.46-1.68 1.68-9.45-9.45 1.68-1.68Zm26.69 0-9.45 9.46 1.68 1.68 9.45-9.45-1.68-1.68ZM24 38h8l-2.15 3h-4.3L24 38Z" fill="#79C86D"/></svg>