<!-- by TradingView --><svg width="56" height="56" viewBox="0 0 56 56" xmlns="http://www.w3.org/2000/svg"><path fill="#F0F3FA" d="M0 0h56v56H0z"/><path d="m25.11 26.61 8.96-8.55.65.94h7.67l-6.34 3.52 1.57 4.1-5.49-2.4-7.02 2.4ZM24.84 19h5.78l-2.33 2.34L24.84 19Z" fill="#E02419"/><path fill-rule="evenodd" d="m33.11 16-1.79 2-9.77 9.71-2.65-6.99-.46-1.72h-4.81l.75 2h4.27l2.67 7.05c.05.12.2.16.3.06L31.8 18h7.61l2.42-2H33.1ZM23.03 28.82l10.62-10.23-.22-.24-10.65 10.24v.01a3 3 0 0 1-.55.52h-.01a.17.17 0 0 0-.14.1c-.23.14-.47.24-.7.24a.89.89 0 0 1-.62-.25 1.14 1.14 0 0 1-.29-.43l-2.5-7-.32.1 2.5 7c.06.16.18.38.38.57.2.19.48.34.85.34.27 0 .53-.1.77-.22l.1.13a.8.8 0 0 0 .58.21c.17 0 .35-.08.52-.2.11-.06.22-.13.33-.22l.08.18c.11.19.31.33.63.33.18 0 .38-.1.57-.2l.36-.26c0 .02 0 .04.02.06.02.07.06.15.13.21.07.07.17.1.27.1.08 0 .15-.03.21-.06.06-.04.14-.08.21-.14.15-.1.32-.26.5-.42.3-.27.6-.58.84-.83l-.1.16a5.64 5.64 0 0 0-.59.93.31.31 0 0 0 0 .2c.03.07.09.11.15.14.05.02.1.02.16.02.1 0 .2-.02.3-.05a3.4 3.4 0 0 0 .5-.2.54.54 0 0 0 .27.27.9.9 0 0 0 .45.07l.06-.02a6 6 0 0 0 .6-.32l.03.06c.09.18.28.28.58.28.1 0 .2-.03.3-.07.1-.05.21-.1.33-.18.2-.12.42-.29.64-.47a.83.83 0 0 0 .21.49c.1.1.23.13.36.14a1.12 1.12 0 0 0 .63-.19l.24-.2v.04c.02.12.09.24.22.32.12.08.29.12.5.12.33 0 .66-.15.94-.36l.03.07c.07.11.18.22.35.23l.11-.01a8.47 8.47 0 0 0 1.04-.8c-.06.15-.12.32-.12.46 0 .07 0 .17.07.25.07.08.16.1.24.1.25 0 .55-.06.83-.14l.39-.12c.02.13.06.25.15.34.24.3.7.29 1.2.03.19-.1.39-.23.59-.38 0 .03.02.06.05.08.12.12.45.32.88.32.05 0 .1-.01.13-.03.12.05.29.08.45.04.21-.04.42-.2.52-.5.03-.1-.02-.2-.1-.24-.09-.03-.18.02-.21.11-.06.2-.17.26-.27.28a.44.44 0 0 1-.12 0l.04-.1c.05-.15.07-.32.1-.49.03-.34.03-.71.02-.97a.18.18 0 0 0-.11-.16.16.16 0 0 0-.18.05c-.34.4-1.2 1.28-1.94 1.67-.47.24-.72.16-.8.05a.36.36 0 0 1-.08-.22h.01a14.29 14.29 0 0 0 1.3-.83l.13-.13a.43.43 0 0 0 .05-.08.27.27 0 0 0 .03-.13.3.3 0 0 0-.08-.2.44.44 0 0 0-.15-.1.78.78 0 0 0-.4-.05c-.32.04-.69.25-.97.74-.1.17-.18.34-.21.51l-.5.16c-.27.07-.54.13-.73.13 0-.06.03-.18.1-.33.14-.31.38-.7.57-.96a.2.2 0 0 0-.02-.24.15.15 0 0 0-.23 0 27.15 27.15 0 0 1-1.56 1.4 1.69 1.69 0 0 1-.21.13c-.03 0-.05-.02-.07-.06a.34.34 0 0 1-.04-.1c.34-.3.62-.66.77-.9a.16.16 0 0 0-.05-.23.17.17 0 0 0-.23.05c-.14.23-.4.57-.73.85-.32.29-.67.48-.98.48-.18 0-.27-.03-.32-.06a.14.14 0 0 1-.07-.1c0-.05 0-.12.03-.2a.9.9 0 0 1 .09-.18l.78-.68a.16.16 0 0 0 .02-.23.17.17 0 0 0-.24-.01l-1.46 1.26a.79.79 0 0 1-.4.12.23.23 0 0 1-.15-.06c-.04-.03-.08-.1-.1-.22-.02-.09 0-.2.02-.32.45-.38.9-.8 1.2-1.1.08-.09.2-.24.26-.4a.42.42 0 0 0 .01-.26.34.34 0 0 0-.23-.22.4.4 0 0 0-.3.04c-.08.05-.17.11-.25.19a3.88 3.88 0 0 0-.99 1.58 14.16 14.16 0 0 1-.88.65c-.1.07-.2.12-.28.16a.48.48 0 0 1-.17.04c-.22 0-.27-.06-.29-.1a.2.2 0 0 1 0-.12c.3-.22.5-.44.64-.64.1-.17.17-.36.14-.52a.35.35 0 0 0-.14-.22.4.4 0 0 0-.23-.07c-.15 0-.36.06-.57.15a5.02 5.02 0 0 0-1.28.77 1.3 1.3 0 0 0-.2.24.68.68 0 0 0-.06.12l-.04.02a5.17 5.17 0 0 1-.72.26c.06-.12.2-.3.37-.55l.13-.18c.1-.14.17-.25.2-.35.04-.1.06-.2.03-.3a.26.26 0 0 0-.21-.17.44.44 0 0 0-.2 0 .18.18 0 0 0-.08.06 18.94 18.94 0 0 1-1.43 1.36l-.17.1c-.03.03-.05.03-.06.03l-.05-.01a.17.17 0 0 1-.04-.07.61.61 0 0 1-.03-.2c.34-.3.67-.65.87-.89a.18.18 0 0 0-.01-.24.16.16 0 0 0-.23 0c-.21.25-.55.6-.9.91-.19.17-.38.32-.56.43a.89.89 0 0 1-.4.16c-.2 0-.3-.08-.35-.17a.51.51 0 0 1-.06-.24c.36-.32.72-.68.95-.93a.18.18 0 0 0 0-.25.16.16 0 0 0-.24 0c-.23.26-.6.64-.97.96-.19.16-.37.3-.53.4a.8.8 0 0 1-.36.14c-.2 0-.3-.06-.36-.11a.3.3 0 0 1-.04-.07c.26-.19.47-.4.6-.56Zm8.79-.5.68-.65a.94.94 0 0 0 .19-.28.17.17 0 0 0 0-.06l-.06.01a.88.88 0 0 0-.18.14 3.1 3.1 0 0 0-.63.83Zm.88-.99Zm-4.48 2.15.02.07a.2.2 0 0 0 .09.06c.08.04.18.05.26.04a3.35 3.35 0 0 0 1.4-1.03c.09-.15.1-.23.09-.26l-.05-.01c-.09 0-.25.04-.45.12a4.7 4.7 0 0 0-1.18.71.98.98 0 0 0-.16.2c0 .03 0 .07-.02.1Zm9.46-.4a12.7 12.7 0 0 0 1-.67.52.52 0 0 0-.22-.01c-.2.03-.49.17-.73.57l-.05.1Zm1.73.39c.08.07.34.24.68.24l.03-.01c.02-.02.06-.08.1-.2a5.17 5.17 0 0 0 .1-.9c-.24.27-.56.58-.9.87ZM25.4 28a.26.26 0 1 0 0-.53.26.26 0 0 0 0 .53Zm9.13-.27a.26.26 0 1 1-.53 0 .26.26 0 0 1 .53 0Zm-16.67-3.25-.3-.48C13.35 25.62 5 29.65 5 32.82c0 2.37 4.14 3.09 7.76 3.17V36h3.13v-.08a28.4 28.4 0 0 0 0-.01V34.8h-.45l-.27.76H14v-3.12l.22-.44h-1.46l.24.44v3l-.14.32c-3.95-.53-5.24-2.28-5.36-3.26.38-3.8 7.06-6.93 10.35-8.02Zm2.44-1.61.16.5 4.17-1.66-4.33 1.16Zm28.15.48c0-2.54-3.72-3.6-5.58-3.8 2.62-.04 7.89.56 8.14 3.27 0 4.23-8.47 7.87-15 9.87v2.78l.22.53h-1.48l.26-.53v-2.49c-.7.2-1.37.39-2 .55v1.97l.13.5h-1.28l.15-.5v-3.07h-.4c-.1.06-.3.35-.3.66H31V32h3v1h-.3c-.03-.19-.13-.57-.25-.57H33v1.02c.67-.23 1.34-.48 2-.73v-.33l-.27-.39h1.5l-.18.31c6.75-2.7 12.39-6.3 12.39-8.96ZM20 34a2 2 0 1 1-4 0 2 2 0 0 1 4 0Zm-1.06 0c0 .96-.44 1.75-1 1.75-.55 0-1-.79-1-1.75 0-.97.45-1.75 1-1.75.56 0 1 .78 1 1.75Zm5.36-.87h.33V32h-.42v.28c-.06-.1-.34-.28-1.02-.28-.85 0-2.19.4-2.19 1.89 0 1.48 1.13 2.11 2.19 2.11.84 0 1.58-.24 1.81-.36V34h-1.32l.32.66v.43c-.03.18-.26.55-.81.55-.7 0-1.19-1.07-1.19-1.75 0-.69.41-1.48 1.19-1.48.61 0 1 .48 1.11.72ZM25.74 32h1.48l-.22.4v3.07l.22.53h-1.48l.26-.53v-3.08l-.26-.39ZM28 35v1h1.4c.39 0 1.6-.1 1.6-1.2 0-.88-.85-1.22-1.27-1.28-.28-.08-.84-.32-.84-.7 0-.4.43-.49.64-.48.67 0 .9.52.92.79h.32v-.85c-.1-.1-.52-.28-1.24-.28-.9 0-1.45.46-1.45 1.17 0 .72.79 1.29 1.45 1.42.64.12.63.37.63.56v.02c0 .2-.16.54-.76.54-.48 0-.87-.44-1-.71H28Zm13 1v-1h.38c.13.27.52.7.98.7.58 0 .73-.34.73-.53v-.02c0-.2 0-.44-.6-.56-.65-.13-1.4-.7-1.4-1.42 0-.71.52-1.17 1.4-1.17.7 0 1.09.18 1.2.28v.85h-.32a.86.86 0 0 0-.89-.8c-.2 0-.62.1-.62.48 0 .39.54.63.82.7.4.07 1.23.41 1.23 1.29 0 1.1-1.18 1.2-1.55 1.2H41Zm-.97-2.73h.45l-.09-.96a2.47 2.47 0 0 0-1.35-.3c-1.23 0-2.04.84-2.04 1.93 0 1.1.67 2.06 2.04 2.06 1.1 0 1.47-.54 1.51-.81h-.52c-.22.22-.66.29-.85.29-.41 0-1.23-.29-1.23-1.54 0-1.24.73-1.54 1.1-1.53h.45l.53.86Z" fill="#2D5A8C"/></svg>