<!-- by TradingView --><svg width="56" height="56" viewBox="0 0 56 56" xmlns="http://www.w3.org/2000/svg"><path fill="#F0F3FA" d="M0 0h56v56H0z"/><path fill-rule="evenodd" d="M5 24h2.44l1.74 5.29L11.2 24h2.41l-3.27 8H7.87L5 24Zm11 0h-2v8h2v-8Zm1 0v8h2v-5.85L20.64 32h2.28L25 26.15V32h2v-8h-3.73l-1.4 4.82L20.5 24H17Zm17 8v-2h-4v-1h3.5v-2H30v-1h4v-2h-6v8h6Zm8.41-5h-2.03c-.2-.74-.69-1.24-1.63-1.24-1.24 0-1.75 1-1.75 2.23 0 1.24.78 2.24 1.75 2.24.68 0 1.27-.5 1.56-1.23h2.1a3.47 3.47 0 0 1-3.66 3C36.22 32 35 30.2 35 28s1.22-4 3.75-4a3.47 3.47 0 0 1 3.66 3ZM51 28c0 2.2-1.52 4-4 4s-4-1.8-4-4 1.28-4 4-4c2.72 0 4 1.8 4 4Zm-2 0c0 1.25-.9 2.27-2 2.27s-2-1.02-2-2.28c0-1.25.58-2.27 2-2.27 1.51 0 2 1.02 2 2.27Z" fill="#1B429A"/></svg>