<!-- by TradingView --><svg width="56" height="56" viewBox="0 0 56 56" xmlns="http://www.w3.org/2000/svg"><path fill="#F0F3FA" d="M0 0h56v56H0z"/><path fill-rule="evenodd" d="M45 28a17 17 0 1 1-34 0 17 17 0 0 1 34 0Zm-1 0c0 3.68-1.24 7.06-3.32 9.76-1.74-1.5-5.9-3.76-12.46-3.76-6.71 0-11.06 2.37-12.81 3.87A15.93 15.93 0 0 1 12 28c0-3.87 1.38-7.43 3.67-10.2 1.6 1.54 5.87 4.2 12.55 4.2 6.52 0 10.6-2.54 12.2-4.08A15.93 15.93 0 0 1 44 28ZM28 44c-4.57 0-8.69-1.91-11.6-4.98 1.13-1.43 4.65-3.71 11.82-3.71 7.01 0 10.37 2.17 11.48 3.6A15.96 15.96 0 0 1 28 44ZM16.7 16.68c1.01 1.44 4.42 3.83 11.52 3.83 6.94 0 10.19-2.29 11.19-3.73A15.95 15.95 0 0 0 28 12c-4.42 0-8.41 1.79-11.3 4.68ZM16 18.7a6.92 6.92 0 0 0 2.44 1.49c.18 2.84 1.96 9.09 7.56 11.3v-8.88h2.5l5.03 7.43 3.36-9.08 3.11-1.8v17.79l-2.03-1.23v-10.9l-3.2 9.5c-.93-.44-3.1-1.8-4.31-3.7l-1.48-2.28c-.49-.74-.83-1.27-.98-1.52v6.86c-4.33 0-12-3.68-12-14.98Z" fill="#DE240F"/></svg>