<!-- by TradingView --><svg width="56" height="56" viewBox="0 0 56 56" xmlns="http://www.w3.org/2000/svg"><path fill="#F0F3FA" d="M0 0h56v56H0z"/><path d="M20.4 16.48C8.86 18.15 7.44 26.58 8.17 30.59c-.29-7.84 6.4-11.23 9.78-11.94l-.25 1.8L23 17.62V15l-2.6 1.48Zm15.2 23.04c11.55-1.67 12.97-10.1 12.24-14.11.29 7.84-6.4 11.23-9.78 11.94l.25-1.8L33 38.38V41l2.6-1.48Zm1.74-21.43c-1.34-2.04-2.9-2.64-3.84-2.64v3.16c1.45 0 2.74-.21 3.84-.52Zm-7.75.06c.84-1.47 1.95-2.51 3.41-2.67v3.13a15.4 15.4 0 0 1-3.4-.46Zm-.24.45c1.07.29 2.3.48 3.65.51V25h-5.34a20.33 20.33 0 0 1 1.69-6.4ZM27.16 25a20.88 20.88 0 0 1 1.7-6.53 13.23 13.23 0 0 1-3.34-1.5A14.12 14.12 0 0 0 19 25h8.16Zm-1.13-8.3a15.68 15.68 0 0 1 6.64-1.68c-1.58.28-2.73 1.48-3.57 3a13.09 13.09 0 0 1-3.07-1.32ZM34.14 15c2.58.1 4.75.7 6.56 1.6-.68.46-1.64.95-2.87 1.34-1.18-1.88-2.58-2.71-3.69-2.94Zm7.06 1.87c-.7.5-1.75 1.07-3.1 1.51A17.97 17.97 0 0 1 40.04 25H48a14.4 14.4 0 0 0-6.8-8.12ZM39.54 25c-.37-2.93-1.08-5-1.92-6.46a15.3 15.3 0 0 1-4.12.58V25h6.04ZM18.66 37.9c1.34 2.05 2.9 2.65 3.84 2.65v-3.16c-1.45 0-2.74.21-3.84.52Zm7.75-.05c-.84 1.47-1.95 2.51-3.41 2.67V37.4c1.26.03 2.4.2 3.4.46Zm.24-.45c-1.07-.29-2.3-.48-3.65-.51V31h5.34a20.33 20.33 0 0 1-1.69 6.4Zm2.19-6.4a20.88 20.88 0 0 1-1.7 6.53c1.41.42 2.55.99 3.34 1.5A14.12 14.12 0 0 0 37 31h-8.16Zm1.13 8.3A15.68 15.68 0 0 1 23.33 41c1.58-.29 2.73-1.49 3.57-3 1.28.37 2.32.86 3.07 1.31ZM21.86 41a15.9 15.9 0 0 1-6.56-1.6c.68-.46 1.64-.95 2.87-1.34 1.18 1.88 2.58 2.71 3.69 2.94Zm-7.06-1.87c.7-.5 1.75-1.07 3.1-1.51A17.97 17.97 0 0 1 15.96 31H8a14.4 14.4 0 0 0 6.8 8.12ZM16.46 31c.37 2.93 1.08 5 1.92 6.46a15.3 15.3 0 0 1 4.12-.58V31h-6.04Z" fill="#025098"/><path d="M11.47 30h-.27L10 26h.87l.75 2.98.75-2.98h.87l-1.2 4H11.47Zm3.35-4v4H14v-4h.82Zm1.46 0H15.25v4H16v-1.04l-.06-1.93.92 2.97h.53l.9-2.92-.08 1.88V30H19v-4H17.97l-.85 2.86-.84-2.86Zm6.16 3.3v.7H20v-4h2.44v.7H20.8v.91h1.4v.67h-1.4v1.03h1.64Zm1.94-1.94L23.7 26h-.98l1.09 1.98L22.7 30h.99l.69-1.39.69 1.39h.98l-1.11-2.02L26.02 26h-.97l-.67 1.36Zm4.05 1.28h.82c-.01.27-.08.5-.2.71-.13.2-.3.36-.52.48a1.7 1.7 0 0 1-.79.17c-.24 0-.46-.04-.65-.13-.2-.09-.36-.21-.49-.38a1.76 1.76 0 0 1-.3-.59c-.07-.23-.11-.49-.11-.78v-.24c0-.29.04-.55.11-.78.07-.23.18-.43.31-.6a1.5 1.5 0 0 1 1.12-.5c.32 0 .59.06.8.18.22.12.4.28.51.5.12.2.2.44.22.7h-.83c0-.15-.03-.27-.08-.38a.5.5 0 0 0-.22-.24.82.82 0 0 0-.4-.08c-.59 0-.73.7-.73 1.2v.24c0 .5.13 1.2.74 1.2.15 0 .27-.03.37-.08.1-.05.17-.12.23-.22.05-.1.08-.23.09-.38ZM33 28.1v-.18c0-.3-.04-.56-.11-.8a1.8 1.8 0 0 0-.31-.6A1.33 1.33 0 0 0 31.5 26a1.37 1.37 0 0 0-1.08.51c-.13.17-.24.37-.31.6-.07.24-.11.5-.11.8v.18c0 .3.04.56.11.8.07.23.18.43.31.6.14.16.3.29.48.38.18.09.38.13.6.13.23 0 .43-.04.6-.13.2-.09.35-.22.48-.38.14-.17.24-.37.31-.6.07-.24.11-.5.11-.8Zm-.79-.18v.18c0 .2-.01.37-.04.52-.03.15-.08.28-.14.39a.64.64 0 0 1-.22.24.57.57 0 0 1-.3.08.6.6 0 0 1-.32-.08.65.65 0 0 1-.22-.24 1.3 1.3 0 0 1-.14-.39 2.72 2.72 0 0 1-.04-.52v-.18c0-.2.01-.37.04-.52.04-.16.08-.29.14-.39a.58.58 0 0 1 .53-.31c.11 0 .21.02.3.08.1.05.17.13.23.23s.1.23.14.39c.03.15.04.32.04.52ZM38 28v1.46a1.3 1.3 0 0 1-.27.24c-.13.08-.28.15-.47.21a2.3 2.3 0 0 1-.68.09c-.23 0-.45-.04-.64-.12-.2-.09-.36-.2-.5-.37a1.72 1.72 0 0 1-.33-.6c-.07-.23-.11-.5-.11-.8v-.22c0-.3.04-.57.11-.8.08-.24.18-.44.32-.6.13-.16.3-.28.48-.36.2-.09.4-.13.63-.13.32 0 .58.06.79.17.2.1.36.26.47.46.1.2.17.42.2.67h-.78a.98.98 0 0 0-.1-.33.5.5 0 0 0-.21-.22.7.7 0 0 0-.35-.08.63.63 0 0 0-.31.08.63.63 0 0 0-.23.23c-.06.1-.11.23-.15.38-.03.15-.05.32-.05.52v.24c0 .2.02.37.05.52.04.15.09.28.16.38.06.1.15.18.25.23.1.05.22.08.36.08.1 0 .2-.01.26-.03a.58.58 0 0 0 .28-.15v-.5h-.64V28H38Zm2.44-2h.2l1.37 4h-.88l-.23-.8h-1.26l-.24.8h-.87l1.35-4h.56Zm-.6 2.51h.86l-.43-1.47-.43 1.47Zm4.22.24.02.16c0 .07-.01.14-.05.2a.36.36 0 0 1-.15.13.66.66 0 0 1-.29.05c-.1 0-.2 0-.28-.03a.55.55 0 0 1-.22-.1.45.45 0 0 1-.13-.19.82.82 0 0 1-.04-.29H42c0 .23.05.43.14.6.09.17.21.3.36.41.16.1.33.18.52.24a2.26 2.26 0 0 0 1.15 0c.17-.05.32-.12.45-.21a.96.96 0 0 0 .38-.81c0-.17-.03-.31-.09-.44a1.02 1.02 0 0 0-.24-.35c-.11-.1-.25-.2-.4-.28a3.53 3.53 0 0 0-.54-.22 3.6 3.6 0 0 1-.51-.23.55.55 0 0 1-.14-.13.29.29 0 0 1-.05-.16c0-.07.02-.13.06-.2a.4.4 0 0 1 .18-.14.7.7 0 0 1 .29-.05c.12 0 .21.02.3.06.07.05.13.1.17.18.04.07.06.16.06.26H45a1.11 1.11 0 0 0-.68-1.06 2.08 2.08 0 0 0-1.32-.07c-.18.05-.34.12-.47.22-.13.1-.23.2-.3.34a.93.93 0 0 0-.11.45c0 .18.03.33.1.46s.17.25.3.35c.11.1.25.18.4.25.16.07.32.14.5.2l.34.13c.08.04.15.09.2.13.05.04.08.09.1.14Z" fill="red"/></svg>