<!-- by TradingView --><svg width="56" height="56" viewBox="0 0 56 56" xmlns="http://www.w3.org/2000/svg"><path fill="#F0F3FA" d="M0 0h56v56H0z"/><path d="M25.12 23v.08a.96.96 0 0 0-.47.17c-.1.07-.25.24-.45.5L22.55 26h-.12l-1.65-2.33c-.2-.28-.33-.45-.4-.5-.07-.05-.2-.08-.38-.09V23h2.3v.08h-.07c-.21 0-.35.02-.43.05-.05.02-.08.05-.08.1l.03.09.2.28 1.02 1.46.95-1.3c.11-.16.18-.26.2-.32.03-.05.05-.1.05-.13a.15.15 0 0 0-.06-.12.39.39 0 0 0-.17-.07c-.1-.03-.23-.04-.4-.04V23h1.58ZM28.66 24.93 29.88 23h1.8v.08h-.15c-.14 0-.26.02-.34.05a.29.29 0 0 0-.14.1c-.03.03-.05.12-.05.27v1.93c0 .15.02.24.05.28.02.04.07.07.15.1.09.03.2.04.33.04h.15V26h-2.36v-.15h.16c.14 0 .25-.01.34-.04.06-.02.1-.06.14-.1.03-.04.04-.13.04-.28v-2.17L28.24 26h-.08l-1.88-2.72v2.06c0 .15.01.24.02.27.03.07.1.13.2.18.1.04.27.06.49.06V26h-1.65v-.15h.05c.1 0 .2 0 .3-.03.09-.02.16-.05.2-.09.14-.1.11-.22.11-.38V23.5c0-.2.01-.31-.18-.38a.98.98 0 0 0-.33-.04h-.15V23h1.97l1.35 1.93ZM32.15 26v-.15h.16c.14 0 .42-.01.5-.04a.36.36 0 0 0 .16-.1c.02-.04.03-.13.03-.28V23.5c0-.15-.01-.24-.04-.28-.02-.04-.08-.07-.16-.1a2.38 2.38 0 0 0-.49-.04h-.16V23h2.16c.97 0 2.69.17 2.69 1.48 0 .96-1.21 1.43-2.01 1.52-.15.02-.37 0-.68 0h-2.16ZM34 23.17v2.28c0 .13 0 .2.02.23.01.03.05.05.1.06a.9.9 0 0 0 .27.03c.4 0 .7-.08.9-.24.29-.23.43-.57.43-1.04 0-.37-.1-.67-.3-.9-.15-.18-.34-.3-.58-.36a3.56 3.56 0 0 0-.84-.06Z" fill="#1B3264"/><path fill-rule="evenodd" d="M42.56 38.2c3.7-2.65 5.94-6.26 5.94-10.2 0-3.94-2.23-7.55-5.94-10.2-3.7-2.65-8.85-4.3-14.56-4.3-5.7 0-10.85 1.65-14.56 4.3C9.74 20.45 7.5 24.06 7.5 28c0 3.94 2.23 7.55 5.94 10.2 3.7 2.65 8.85 4.3 14.56 4.3 5.7 0 10.85-1.65 14.56-4.3ZM28 43c11.6 0 21-6.72 21-15 0-8.28-9.4-15-21-15S7 19.72 7 28c0 8.28 9.4 15 21 15Z" fill="#1B3264"/><path fill-rule="evenodd" d="M28.15 42.5c7.69 0 13.95-6.47 13.95-14.5 0-8.03-6.26-14.5-13.95-14.5-7.69 0-13.95 6.47-13.95 14.5 0 8.03 6.26 14.5 13.95 14.5Zm0 .5c7.98 0 14.45-6.72 14.45-15 0-8.28-6.47-15-14.45-15-7.98 0-14.45 6.72-14.45 15 0 8.28 6.47 15 14.45 15Z" fill="#1B3264"/><path d="M28 20.52v-7.35h.54v7.35h17.58V21H9.85v-.48H28Zm0 15v-2.13h.5v2.13h17.08V36H28.5v6.86H28V36H10.38v-.48H28Z" fill="#1B3264"/><path d="m43.43 34 3.73-6H41.9l-1.68 3H17v-4h-4v3h-2v1H9.4l2.14 3h31.89Z" fill="#1B3264"/><path d="M18 28h4v2h-4v-2ZM22.55 28h4v2h-4v-2ZM27 28h4v2h-4v-2ZM31.45 28h4v2h-4v-2ZM36 28h4v2h-4v-2Z" fill="#1B3264"/></svg>