<!-- by TradingView --><svg width="56" height="56" viewBox="0 0 56 56" xmlns="http://www.w3.org/2000/svg"><path fill="#36F" d="M0 0h56v56H0z"/><path d="M22.56 21.7c-.5-1.18-2.02-1.66-2.71-1.75l6.49 19-3.1.95.73 1.16h2.37c.2.18.7.63 1.17.99.46.35 3.08.78 4.32.95l-1.92-2.73v-.37c1.62-3.66 4.73-8.46 6.08-10.4 4.86-6.71 12.03-9.02 15.01-9.34l-.76-.68c-9.64 0-15.62 6.8-17.41 10.19l-4.95 5.35c-1.56-3.95-4.83-12.16-5.32-13.33Z" fill="#000082"/><path d="M20.73 20.2C19.93 19.52 9.91 19.12 5 19c6.68 1.63 11.24 5.64 12.62 7.76l6.27 11.3-2.07-.6 1.6 2.81h3.23c.44.83 3.06 1.4 4.31 1.59l-1.8-2.62L33.04 32c5.87-9.77 14.13-12.34 17.53-12.4L49.49 19h-4.6c-7.44 0-11.21 3.75-12.17 5.62L27.2 36.2l-6.47-16Z" fill="#FEFEFE"/><path d="m28.24 37.5-.98-1.4.64-1.3.34 2.7Z" fill="#79797A"/></svg>