<!-- by TradingView --><svg width="56" height="56" viewBox="0 0 56 56" xmlns="http://www.w3.org/2000/svg"><path fill="#F0F3FA" d="M0 0h56v56H0z"/><ellipse cx="35.26" cy="29.5" rx="12.74" ry="7.5" fill="#BC2922"/><path fill-rule="evenodd" d="M47.56 30h-5.08c-.12 1.88-1.2 3.58-2.9 4.84.64.32 1.14.65 1.48.92a14.2 14.2 0 0 0 3-1.3c2.03-1.2 3.3-2.77 3.5-4.46Zm-5.49 0c-.12 1.8-1.2 3.44-2.9 4.64-1.5-.7-3.64-1.33-6.25-1.33v.4c2.43 0 4.43.56 5.86 1.2-1.37.86-3.09 1.46-5 1.64-2.86-.2-5.4-.97-7.3-2.09-2.22-1.3-3.51-3.04-3.54-4.89 0-.47.08-.94.21-1.4.46-1.37 1.62-2.63 3.32-3.63a15.68 15.68 0 0 1 5.16-1.83l.88-.02c2.17 0 4.14.51 5.73 1.38-1.23.5-2.87.91-4.83.91v.4c2.16 0 3.96-.49 5.27-1.06 2.04 1.27 3.34 3.13 3.4 5.18H33.7v.5h8.37Zm.42-.5c-.06-2.14-1.35-4.06-3.39-5.37a7.92 7.92 0 0 0 1.6-1c1.26.36 2.39.84 3.36 1.4 2.23 1.32 3.53 3.1 3.53 4.97h-5.1Zm-1.9 6.4a9.6 9.6 0 0 0-1.38-.8c-.99.66-2.15 1.17-3.43 1.5 1.72-.05 3.34-.3 4.8-.7ZM35.25 37c2.05 0 4-.29 5.7-.8l.05.05.08-.08c4.1-1.24 6.91-3.76 6.91-6.67 0-4.14-5.7-7.5-12.74-7.5-1.3 0-2.57.12-3.76.33-4.33.32-7.85 2.69-8.75 5.77a4.57 4.57 0 0 0-.22 1.55C22.53 33.7 27 37 32.5 37c.41 0 .82-.02 1.22-.05.5.03 1.01.05 1.53.05Zm3.43-13.12c.66-.3 1.17-.62 1.53-.88a20.12 20.12 0 0 0-5.88-.58c1.62.22 3.1.73 4.35 1.46Zm-13.82 9.96a13.89 13.89 0 0 0 5.62 2.62 10.38 10.38 0 0 1-5.62-2.62Z" fill="#E1B927"/><path d="M12.67 38 9.76 20h11.06l1.87 1.54L24.56 20h11.36l-2.39 18h-7.95l-2.25 2-2.25-2h-8.41Z" fill="#E1B927"/><path d="M10.91 36 8 18h11.07l1.86 1.83L22.8 18h11.36l-2.38 18h-6.73l-2.25 2.28L20.55 36h-9.64Z" fill="#FFFBC9"/><path fill-rule="evenodd" d="m8 18 2.91 18h9.64l2.25 2.28L25.05 36h6.73l2.38-18H22.8l-1.87 1.83L19.07 18H8Zm3.91 17L9.57 19h9.4l1.33 1.36a6.75 6.75 0 0 0-1.33 4.06c0 1.33.71 2.81 1.38 4.18.57 1.19 1.1 2.3 1.1 3.15 0 1.49-.66 2.79-1 3.25h-8.54Zm18.88 0 1.76-16h-9.48l-1.13 1.36a6.75 6.75 0 0 0-1.33 4.06c0 1.33.71 2.81 1.38 4.18.58 1.19 1.11 2.3 1.11 3.15 0 1.49-.67 2.79-1 3.25h8.7Z" fill="#BB2A22"/></svg>