<!-- by TradingView --><svg width="56" height="56" viewBox="0 0 56 56" xmlns="http://www.w3.org/2000/svg"><path fill="#F0F3FA" d="M0 0h56v56H0z"/><path fill-rule="evenodd" d="M28.5 12.91a1.5 1.5 0 1 0-1 0v.22L13.3 16h3.13l-5 19H10l1.74 3h9.16l-.17.31a.8.8 0 1 0 1.42.7l2.22-4.8c.82.37 1.7.63 2.63.73V40h-4.26l-1.68 3h14.01l-1.75-3H29v-5.06a8.56 8.56 0 0 0 5.17-2.56L33.48 35h-1.39l1.85 3h10.4L46 35h-1.45L39.6 16h3.22L28.5 13.08v-.17ZM17.55 16H27v2a8.57 8.57 0 0 0-7.3 6.3L17.55 16Zm4.96 19 .76-1.41a8.61 8.61 0 0 1-1.47-1.22L22.5 35h.02ZM29 16h9.49l-2.2 8.33A8.57 8.57 0 0 0 29 18V16Zm10.04 2.2L43.41 35h-8.8l4.43-16.8ZM12.56 35h8.8l-4.38-16.8L12.56 35Zm14.88-14c-.8 0-1.44.55-1.44 1.22v8.56c0 .67.65 1.22 1.44 1.22h1.12c.8 0 1.44-.55 1.44-1.22v-8.56c0-.67-.65-1.22-1.44-1.22h-1.12Zm.47 12.5a7 7 0 1 0 0-14 7 7 0 0 0 0 14Z" fill="#207D57"/></svg>