<!-- by TradingView --><svg width="56" height="56" viewBox="0 0 56 56" xmlns="http://www.w3.org/2000/svg"><path fill="#F0F3FA" d="M0 0h56v56H0z"/><path d="M26.3 28h-1.78L21 20.88 24.44 14l1 1.8-2.66 5.08L26.3 28Z" fill="#0673BA"/><path d="M28.54 28h-1.78l-3.51-7.12 2.4-4.73.98 1.8-1.6 2.93L28.53 28Z" fill="#8CC640"/><path d="M30.9 28h-1.78l-3.52-7.12 1.21-2.38 1 1.79-.43.59L30.89 28ZM29.7 14h1.78L35 21.12 31.56 28l-1-1.8 2.66-5.08L29.7 14Z" fill="#EC1F27"/><path d="M27.46 14h1.78l3.51 7.12-2.4 4.73-.98-1.8 1.6-2.93L27.47 14Z" fill="#8CC640"/><path d="M25.1 14h1.78l3.52 7.12-1.21 2.38-1-1.79.43-.59L25.11 14Z" fill="#0673BA"/><path fill-rule="evenodd" d="M7.54 29H5l3.91 7h2.27L15 29h-2.29l-2.65 4.83L7.54 29ZM16 29v7h2v-3.84L21.95 36H24v-7h-2v4.08L17.86 29H16Zm16 0v2h-5v.5h5v2h-5v.5h5v2h-7v-7h7Zm9 0v2h-5.51a.5.5 0 0 0-.5.5v2.04c0 .26.22.46.5.46H41v2h-7.26a.74.74 0 0 1-.74-.73v-5.54c0-.4.33-.73.74-.73H41Zm1 .97c0-.53.43-.97.95-.97h7.1c.52 0 .95.44.95.97v5.06c0 .53-.43.97-.95.97h-7.1a.96.96 0 0 1-.95-.97v-5.06Zm2 1.44c0-.23.21-.41.47-.41h4.06c.26 0 .47.18.47.4v2.2c0 .22-.21.4-.47.4h-4.06c-.26 0-.47-.18-.47-.4v-2.2Z" fill="#EC1F27"/></svg>