<!-- by TradingView --><svg width="56" height="56" viewBox="0 0 56 56" xmlns="http://www.w3.org/2000/svg"><path fill="#F0F3FA" d="M0 0h56v56H0z"/><path d="m15.18 26-1.94 3.5h1.26l.24-.5h1l.13.5H17l-.78-3.5h-1.05Zm.3 2h-.26l.17-.36.1.36Zm-8.05 1.5h1.1l.6-3.5H8l-.58 3.5Zm-3-3.5c-.15.2-.43.73-.43 1.2 0 .08.03.28.1.45l.59 1.85h1.08l1.48-2c.09-.24.23-.88.13-1.5H6.3v.64c0 .15-.04.49-.12.62-.08.14-.52.76-.72 1.05-.1-.17-.31-.64-.31-1.16 0-.53.25-.99.38-1.15h-1.1Zm8.31 3.5h-1.1l.01-.04-1.03-1.73-.31 1.77h-1.1L9.8 26h1.11v.02l1 1.84.32-1.86h1.11l-.6 3.5Z" fill="#DA251B"/><path d="m18.16 26-.58 3.5h1.1l.27-1.48h1.4l.12-.81H19.1l.07-.37h1.52l.13-.84h-2.66Zm10.68 3.5h-1.1l.58-3.5h1.12l-.6 3.5Zm4.31-2.76-.8.53a.82.82 0 0 0-.73-.4c-.63 0-.92.6-.92 1.14 0 .56.47.71.87.71.32 0 .43-.1.44-.16l.17-.92h.97l-.35 1.86h-1.36c-.84 0-1.84-.33-1.84-1.48 0-1.16.96-2.02 2-2.02.84 0 1.38.5 1.55.74ZM21.43 26l-.58 3.5h1.07l.2-1.33h.4l.42 1.31h1.08l-.5-1.41c.42-.17.76-.57.76-1.2 0-.72-.56-.88-.84-.87h-2Zm.8 1.55.1-.81c.25-.04.74-.01.74.4-.01.13-.11.41-.42.41h-.42ZM25.1 26l-.58 3.5h2.5l.15-.9h-1.4l.07-.49h1.39l.15-.82h-1.44l.07-.5h1.52l.11-.79h-2.54Zm10.88 2-.24 1.5h1.13l.5-3.5h-1.06l-.17 1h-1.2l.15-1h-1.07l-.57 3.5h1.14l.21-1.5H36Zm4.38-1h-.74l-.35 2.5h-1.14l.4-2.5h-.73l.14-1h2.56l-.14 1Z" fill="#29166F"/><path d="M39.93 30H4.73l1.11 1.15c.57.6 1.61.82 2.06.85h29.83l2.2-2Z" fill="#8C8C8C"/><path fill="#F0F3FA" d="M10 30.5h27v1H10z"/><path fill-rule="evenodd" d="m38.16 32 9.73-8.8c.08-.07.34-.2.63-.2H52l-4.55 9h-9.29Zm4.12-2.74.56-.76c.13-.12.53-.37 1.06-.37.66 0 1.13 1 1.25 1.34.45-.75 1.73-2.33 3.22-2.57a9.81 9.81 0 0 0-3.4 4.35c-.68-2.33-2.08-2.3-2.7-1.99Z" fill="#29166F"/></svg>