<!-- by TradingView --><svg width="56" height="56" viewBox="0 0 56 56" xmlns="http://www.w3.org/2000/svg"><path fill="#F0F3FA" d="M0 0h56v56H0z"/><path d="M14 34v-9h-3v-4h20.95c-.95.52-3.02 2.2-3.65 4H26v9h-4V22.01c-.45.66-2.6 2.18-5.1 2.99H18v9h-4Zm23.25-4.71a2.5 2.5 0 1 1-.06-3.63c.71-1.4.79-3.09.7-4.21A6.5 6.5 0 1 0 40 32.2l-2.75-2.91Z" fill="#003768"/><path d="M32.21 10c9.04 6.57 7.62 14.43 5.78 17.55.6.14 2.17-.04 3.7-1.86 1.92-2.26 3.06-5.35 5.31-5.87-.73-1.1-2.45-.64-3.23-.27-3.14-6.82-9.01-9.2-11.56-9.55Z" fill="#471267"/><path fill-rule="evenodd" d="M17.5 38a2 2 0 1 1-4 0 2 2 0 0 1 4 0Zm-1 0a1 1 0 1 1-2 0 1 1 0 0 1 2 0Zm-5.5.5h1V40h1v-4h-1v1.5h-1V36h-1v4h1v-1.5Zm8.56-.1c.23.07.44.13.44.31 0 .21-.19.46-.5.46-.3 0-.54-.16-.58-.49H18c0 .26.06.49.19.69.13.2.31.35.56.46.25.11.53.17.84.17.44 0 .78-.1 1.03-.3.25-.19.38-.45.38-.8 0-.73-.66-1.08-1.26-1.27-.75-.25-.67-.8-.16-.8.32 0 .54.26.64.55l.78-.17c0-.78-.7-1.21-1.42-1.21-.66 0-1.46.33-1.46 1.1 0 .43.24.77.73 1.02a4.73 4.73 0 0 0 .7.27Zm3.44.24V40h-1v-4h1.52c.3 0 .55.06.77.17.23.11.4.27.52.48.13.2.19.44.19.7 0 .4-.13.7-.4.94a1.6 1.6 0 0 1-1.1.35H23Zm0-.74h.52c.18 0 .31-.05.4-.14.1-.1.15-.23.15-.4a.66.66 0 0 0-.15-.45.5.5 0 0 0-.39-.17H23v1.16Zm3.5 2.1h-1v-4h1v4ZM38 40h-1v-4h1v4Zm-8-4v1h-1v3h-1v-3h-1v-1h3Zm11.85 0H39v1h1v3h1v-3h1v-.66c.24.54.71 1.59 1 2.2V40h1v-1.47L45.23 36h-1.08l-.62 1.58-.6-1.58h-1.08ZM34 36h1v3h1v1h-2v-4Zm-4.6 4 1.6-4h.8l1.61 4h-1.1l-.19-.55H30.7l-.18.55h-1.12Zm1.54-1.35h.92l-.47-1.4-.45 1.4Z" fill="#471267"/></svg>