<!-- by TradingView --><svg width="56" height="56" viewBox="0 0 56 56" xmlns="http://www.w3.org/2000/svg"><path fill="#F0F3FA" d="M0 0h56v56H0z"/><path fill-rule="evenodd" d="M28 43.62c1.69-.1 3.5-1.7 4.74-4.46l.25-.58a24.39 24.39 0 0 0-4.99-.55v5.6Zm0-6.1v-5.03c2.27.02 4.54.47 6.34 1.13a24.85 24.85 0 0 1-1.16 4.47A24.84 24.84 0 0 0 28 37.5Zm5.34 1.14c-.92 2.31-2.15 4.02-3.53 4.82 2.6-.42 4.98-1.75 6.87-3.7-.9-.4-2.03-.8-3.34-1.12Zm3.71.72a20.4 20.4 0 0 0-3.52-1.2c.48-1.32.88-2.81 1.15-4.43 1.82.7 3.36 1.62 4.54 2.49a15.46 15.46 0 0 1-2.17 3.14Zm-.02.55a13.27 13.27 0 0 1-4.65 3.22c2.2-.5 4.21-1.36 5.98-2.5-.33-.21-.78-.46-1.33-.72Zm1.8.41c-.35-.23-.83-.51-1.43-.8.8-.92 1.52-1.95 2.11-3.08.82.63 1.45 1.22 1.86 1.7l.25-.23c-.83.9-1.76 1.7-2.8 2.41ZM27.5 37.52c-1.82.03-3.25.32-4.63.72a24.36 24.36 0 0 1-1.17-4.34 14 14 0 0 1 5.8-1.41v5.03Zm-4.44 1.2c1.33-.38 2.7-.65 4.44-.69v5.58c-1.65-.17-3.04-1.75-4.25-4.45l-.19-.44Zm-.53-.37a24.66 24.66 0 0 1-1.17-4.3c-1.7.85-3.1 1.93-4.16 2.95.6 1.02 1.31 1.95 2.1 2.77.84-.5 1.93-1.01 3.23-1.42Zm-2.85 1.8c.8-.47 1.82-.94 3.04-1.32.91 2.22 2.1 3.87 3.46 4.65a12.26 12.26 0 0 1-6.5-3.34Zm-.7-.18c-.76-.8-1.45-1.71-2.05-2.7-.62.63-1.11 1.24-1.45 1.75a17.4 17.4 0 0 0 2.38 1.78c.28-.25.66-.54 1.13-.83Zm-.66 1.1c.27-.22.62-.47 1.04-.73a13.14 13.14 0 0 0 4.25 2.8 18.72 18.72 0 0 1-5.29-2.06Zm-.28.26A18.87 18.87 0 0 0 27.82 44C37.76 44 46 36.6 46 27.76 46 18.98 37.86 12.1 28 12h-.49c-3.06.05-5.74.77-8.24 2l-.02-.02-.06.06C13.71 16.78 10 21.77 10 27.76c0 5.53 3.15 10.64 7.94 13.51l.08.09.03-.03ZM28 31.97c2.3.02 4.59.47 6.43 1.13.23-1.53.36-3.38.37-5.1H28v3.97Zm6.77 1.26c1.87.72 3.46 1.65 4.69 2.55A18.7 18.7 0 0 0 41.2 28h-6.04a37.12 37.12 0 0 1-.39 5.23ZM39.75 36c.87.67 1.54 1.3 1.99 1.81a15.06 15.06 0 0 0 3.9-9.8h-4.08c-.03 2.84-.69 5.7-1.81 8ZM27.5 28v3.97c-2.3.05-4.15.6-5.9 1.4A36.5 36.5 0 0 1 21.2 28h6.3Zm-6.67 0c.01 1.87.16 3.87.44 5.53a17.12 17.12 0 0 0-4.34 3.02A18.46 18.46 0 0 1 14.8 28h6.04Zm-6.4 0c.03 3.18.85 6.34 2.24 8.81-.67.67-1.2 1.32-1.57 1.86A15.17 15.17 0 0 1 10.36 28h4.08ZM28 27.45h6.8c-.02-1.9-.18-3.5-.47-5.17-1.84.4-4.09.66-6.33.67v4.5Zm0-5.02c2.21-.01 4.43-.27 6.23-.66a22.6 22.6 0 0 0-1.55-5.07c-1.3.33-3 .58-4.68.6v5.13Zm0-5.64v-4.41c1.56.1 3.25 1.46 4.45 3.85-1.24.3-2.86.53-4.45.56Zm4.8-.65c-.84-1.7-1.86-2.97-2.99-3.62 2.1.34 4.04 1.26 5.7 2.63-.7.34-1.62.7-2.7.99Zm.23.47a22.86 22.86 0 0 1 1.55 5.08c1.9-.43 3.52-1 4.82-1.58a15.16 15.16 0 0 0-3.45-4.6c-.75.38-1.74.77-2.92 1.1Zm3.26-1.27a15.58 15.58 0 0 1 3.44 4.62c1.04-.48 1.85-.95 2.39-1.33-.9-1.07-3.42-3.4-4.89-3.9-.2.15-.6.42-.94.6Zm.5-.9a18.84 18.84 0 0 0-4.4-1.58 12.9 12.9 0 0 1 3.49 2.12c.38-.2.69-.38.9-.54ZM27.5 16.8a13.96 13.96 0 0 1-3.95-.58c1.16-2.31 2.43-3.66 3.95-3.82v4.4Zm-4.18-.1c1.25.36 2.52.61 4.18.62v5.12a22 22 0 0 1-5.71-.81 22.45 22.45 0 0 1 1.53-4.94Zm-.12-.58c.84-1.69 1.85-2.94 2.98-3.6a12 12 0 0 0-5.53 2.5c.67.38 1.53.78 2.55 1.1Zm-2.97-.76c.71.43 1.64.87 2.75 1.23a22.63 22.63 0 0 0-1.54 4.94 20.39 20.39 0 0 1-4.58-1.94c.9-1.64 2.04-3.08 3.37-4.23Zm.09-.55c1-.81 2.1-1.47 3.29-1.95-1.43.33-2.79.8-4.05 1.42.2.16.46.34.76.53Zm-1.26-.28c.22.19.5.4.85.63a15.37 15.37 0 0 0-3.36 4.25c-.9-.55-1.57-1.09-2.01-1.51a17.37 17.37 0 0 1 4.52-3.37Zm16.09 12.93a30.91 30.91 0 0 0-.48-5.25c1.93-.45 3.6-1.04 4.94-1.63a16.7 16.7 0 0 1 1.58 6.88h-6.04Zm6.4 0a17.08 17.08 0 0 0-1.61-7.02c1.09-.5 1.93-1 2.5-1.4a13.75 13.75 0 0 1 3.19 8.42h-4.08Zm-20.2-5.42a20.9 20.9 0 0 1-4.73-1.99 16.69 16.69 0 0 0-1.83 7.41h6.04c.02-2 .2-3.67.51-5.42Zm-5.03-2.18a12.28 12.28 0 0 1-2.13-1.59 13.94 13.94 0 0 0-3.84 9.2h4.08c.05-2.87.73-5.3 1.89-7.6Zm11.18 3.1a22.5 22.5 0 0 1-5.8-.82 30.5 30.5 0 0 0-.51 5.32h6.3v-4.5Z" fill="#378EC1"/><path fill-rule="evenodd" d="M14.5 21.71c1.22-.18 6.45-.59 8.91-.77v-.15c-2.47.18-7.7.6-8.93.78a3.1 3.1 0 0 0-1.28.43c-.26.17-.37.35-.38.49 0 .14.02.25.06.36a.46.46 0 0 0-.06.18v.01c0 .26.1.47.28.65.17.18.4.32.67.43.23.1.48.18.73.24l-.52.09-1.49.25 3.13.05 1.01.77a14.55 14.55 0 0 1-1.15-.24c-.57-.14-1.44-.34-1.79-.37a9.85 9.85 0 0 0-1.8.29l.1.1a4.48 4.48 0 0 1 2.24 0c.56.11 1.9.37 2.81.58.9.21 1.03.4.97.46a7.6 7.6 0 0 0-1.05-.08c-.43 0-1.11.38-1.4.58l.17.18c.22-.17.8-.5 1.4-.5.58 0 1.13.04 1.33.06-.24.03-.77.07-1.03.07-.27 0-1.02.34-1.37.5l.18.16a3.34 3.34 0 0 1 1.47-.47c.35 0 .95-.07 1.2-.1l.2.2c-.33.05-1.05.16-1.35.16-.3 0-.88.32-1.13.48l.16.18.2-.1c.51-.25.72-.35 1.14-.35.38 0 .93-.1 1.16-.15.42 0 .57.2.6.29H18l-.58.5.07.13.51-.5h2.54l.54.5h.15v-3.94l-3.23-.68.12.47-1.43-.74.18.5-1.39-.66c.02.07.1.27.24.5.16.28-.24.4-.39.4-.11 0-.13-.38-.12-.56l-1.77-.1a1.16 1.16 0 0 1-.4-.4c.05-.07.12-.14.23-.2.23-.17.61-.32 1.22-.41 1.22-.19 6.45-.6 8.91-.78v-.14c-2.47.18-7.7.59-8.93.77a3.1 3.1 0 0 0-1.28.43l-.21.17a.74.74 0 0 1-.03-.2c0-.08.08-.23.32-.4.23-.15.61-.3 1.22-.4Zm.72 2.34c.05.11-.14.2-.33.24a4.86 4.86 0 0 1-1.07-.3c-.25-.11-.46-.25-.62-.4a.77.77 0 0 1-.24-.54V23c.07.1.14.17.23.25h-.08l.16.06c.12.1.27.18.42.25.18.08.39.15.59.2l.04.02a3.6 3.6 0 0 1 .54.1c.17.05.32.1.36.17Zm.54.25c.08 0 .15-.07.15-.15a.15.15 0 0 0-.15-.16.15.15 0 0 0-.15.16c0 .08.06.15.15.15Zm6.36 3.54 1.83-2.78c.28.2.88.76 1.03 1.36l-2.86 1.42Zm2.96-1.07-2.89 1.48 2.7 1.27c.6-1.14.38-2.31.19-2.75Zm-2.94 1.75 2.6 1.32c-.12.24-.43.79-.76 1.04l-1.84-2.36Zm1.53 2.54-1.48-2.01.34 2.76c.57-.24 1-.6 1.14-.75Zm-2.4 1.28.88-.38-.2-2.07-.67 2.45Zm-2.34 1.19 2.25-2.3-2.57 1.13c0 .7.2 1.07.32 1.17Zm.45.4 1.76-1.7-.1-.12-1.76 1.71.1.1Zm2.34-9.63V28l2.07-3.12a2.44 2.44 0 0 0-2.07-.58Zm14.35.15c-.12.3.27.54.48.62-.24-.04-.41.03-.65.14-.19.08-.4.18-.72.25m.9-1c.12-.3 1.48-.83 2.14-1.05l-2.15 1.04Zm2.14-1.05a4.03 4.03 0 0 0-2.45.47l2.45-.47Zm-2.45.47c-1.28.7-1.69.95-1.56 1.1l1.56-1.1Zm-1.56 1.1.06.11-.06-.1Zm.5.58a.64.64 0 0 1-.66-.53c-.37.2-.38.77-.34 1.04.2 0 .64-.02.82-.14.17-.13.2-.3.18-.37Zm-.94.59c.03.02.18.08.46.08.14 0 .23-.08.3-.15.08-.07.15-.13.26-.12h.14c.31.03.91.06 1.05.19.13.12-.32.62-.56.85a.95.95 0 0 1-.4.15c-.15 0-1.31-.4-1.25-1Zm2.57-1.46c-.07-.15.03-.23.09-.26.1 0 .36 0 .5-.03.1-.02.28-.1.43-.15l.26-.1.12-.04c.2-.06.5-.17.45-.07-.07.13-.76.65-1.2.73h-.04c-.4.09-.53.1-.6-.08Zm4.86-.24c.13.3-.27.54-.48.62.25-.04.42.03.66.14.18.08.4.18.72.25.61.14.79-.17.9-.37l.07-.1c.12-.16-.28-.4-1.57-1.1a4.03 4.03 0 0 0-2.44-.48c.66.22 2.02.74 2.14 1.04Zm1.37 1.11a.64.64 0 0 0 .65-.53c.38.2.39.77.35 1.04-.2 0-.64-.02-.82-.14-.18-.13-.2-.3-.18-.37Zm.93.59a.99.99 0 0 1-.45.08c-.15 0-.23-.08-.31-.15-.07-.07-.14-.13-.25-.12h-.14c-.32.03-.92.06-1.05.19-.13.12.31.62.55.85.08.05.27.15.4.15.16 0 1.32-.4 1.25-1Zm-2.57-1.46c.07-.15-.03-.23-.08-.26-.11 0-.37 0-.5-.03-.1-.02-.28-.1-.44-.15a3.8 3.8 0 0 0-.25-.1l-.13-.04c-.2-.06-.5-.17-.45-.07.07.13.77.65 1.2.73h.04c.41.09.53.1.61-.08Zm-8.22.54c0-.06.24-.4.36-.57-.04.18-.11.55-.16.62-.05.08-.2.03-.2-.05Zm.09.81c-.13-.36-.06-.55 0-.6.04 0 .15.02.2.08.02.03.03.1.05.18.03.12.07.28.15.42.14.23.18.34.14.39-.05.05-.37-.02-.54-.47Zm.69.66h-.07c-.1 0-.25-.02-.29 0-.04.04-.04.25.13.32s.45.18.46.07c0-.09-.15-.3-.23-.39Zm.32.46c-.13 0-.2.07-.22.1-.03.13.53.33.8.33.22 0 .48-.16.58-.25-.05-.03-.2-.1-.33-.12a6.81 6.81 0 0 0-.83-.06Zm-1.58-1.05c-.01.02.02.6.11.7.1.1.25.1.18-.08l-.29-.62Zm.32.85c-.04.04-.11.14-.08.24.04.11.33.53.42.6.1.07.29.13.33.06.04-.06-.01-.28-.14-.42a2.66 2.66 0 0 1-.12-.15c-.15-.18-.33-.4-.4-.33Zm.8 1.3a.2.2 0 0 1 0-.27c.1-.12.4-.02.68.07.15.05.3.1.4.11.17.02.58.18.9.32-.34-.32-.66-.6-.74-.64.33-.2 1.01-.65 1.07-.79.03-.04.04-.1.05-.16.03-.15.07-.32.28-.38.3-.08 1.44-.6 1.68-.76.2-.12.7-.15.93-.15.22-.02.78.02 1.22.32.44.3 1.36.88 1.76 1.13l1.17.8-.89.64c.32-.15.73-.31.9-.33.11-.01.26-.06.4-.1.29-.1.6-.2.7-.08a.2.2 0 0 1 0 .28c-.13.14-.48.4-1.1.4-.41.01-.84-.01-1.08-.03-.25.2-.46.39-.54.5-.06.09-.14.2-.26.33l.04.06c.1.1.2.23.12.33l-.04.04c-.1.13-.21.27-.28.12a3.11 3.11 0 0 1-.1-.3c-.41.34-1.04.67-1.94.67-.86 0-1.6-.37-2.08-.72l-.13.35c-.06.15-.17 0-.28-.12l-.03-.04c-.08-.1.03-.22.11-.33l.06-.07a49.36 49.36 0 0 0-.85-.83c-.24.03-.65.05-1.05.05-.62-.01-.97-.27-1.09-.41Zm2.38 1.3c.08-.16.18-.47-.06-.47h-.08c-.39 0-1.38 0-1.42.07-.05.08.02.31.16.35.12.03.6.04.83.04h.57Zm-1.58.03c-.06-.06-.2-.17-.29-.17-.12.01-.36.21-.31.25 0 0 0 .02.02.02.06.06.18.17.29.13a1 1 0 0 0 .3-.23Zm-.59.83a.7.7 0 0 0 .05-.54c-.33 0-.46.22-.54.43-.1.2-.1.33-.07.47.01.1.18.04.25 0a.9.9 0 0 0 .31-.36Zm-.63.5c-.03.04-.12.27-.06.43 0 .03.02.05.03.08.05.16.12.35.28.33.15 0 .14-.03.08-.14a1.83 1.83 0 0 1-.08-.16c-.03-.08 0-.18.02-.27.04-.15.07-.28-.27-.28Zm2.77-1c.26 0 .48.13.55.2-.15.1-.5.3-.63.3-.17 0-.33-.15-.39-.24-.06-.08.15-.26.47-.26Zm-.5.47c0-.06-.04-.2-.2-.2-.2 0-.29.4-.29.46v.04c-.02.05-.03.09.08.06l.09-.02c.13-.02.27-.03.32-.34Zm-.2.53c-.15.1-.22.04-.24 0 0 .07 0 .45.23.59.18.1.62.2.81.22-.07 0-.22.05-.23.21 0 .2 1.15.48 1.15 0s-.37-.7-.53-.7a.3.3 0 0 0-.24.13l-.15-.13c-.1-.1-.3-.32-.4-.32l-.1-.02c-.09-.03-.18-.06-.3.02Zm9.13-6.26c.11.17.35.51.35.57.01.08-.14.13-.2.05a3.66 3.66 0 0 1-.15-.62Zm.27.78c.05.05.13.24 0 .6-.17.45-.5.52-.54.47-.05-.05 0-.16.13-.4.09-.13.12-.29.15-.4a.56.56 0 0 1 .06-.2c.05-.05.15-.07.2-.07Zm-.34 1.26c-.03-.02-.2 0-.29 0h-.06c-.08.1-.24.3-.23.39.01.1.29 0 .45-.07.17-.07.18-.28.13-.32Zm-.46.55a.28.28 0 0 0-.21-.09c-.13 0-.68.02-.84.06-.13.02-.27.1-.32.12.1.09.35.25.57.25.28 0 .84-.2.8-.34Zm1.26-.44c.09-.1.12-.68.1-.7l-.28.62c-.08.17.08.18.18.08Zm-.13.39c.03-.1-.05-.2-.09-.24-.08-.07-.26.15-.4.33l-.12.15c-.13.14-.18.36-.14.42.04.07.23.01.33-.06.09-.07.38-.49.42-.6Zm-3.2 1.9c-.25 0-.15.3-.07.45h.58c.23 0 .71 0 .82-.04.15-.04.22-.27.17-.35-.04-.07-1.04-.07-1.42-.07h-.08Zm1.8.32c-.09 0-.23.1-.28.16a1 1 0 0 0 .29.24c.1.04.23-.07.29-.13l.02-.02c.05-.04-.2-.24-.31-.25Zm.26.46a.7.7 0 0 0 .05.54.9.9 0 0 0 .3.36c.08.04.24.1.26 0a.76.76 0 0 0-.07-.47c-.09-.2-.21-.43-.54-.43Zm.74 1.47c.06-.16-.03-.39-.07-.44-.34 0-.3.13-.26.28.02.1.05.19.01.27l-.07.16c-.06.1-.07.13.07.14.17.02.23-.17.29-.33 0-.03.02-.05.03-.08Zm-3.38-1.23c.07-.07.28-.2.54-.2.33 0 .53.18.48.26-.06.09-.23.23-.4.23-.13 0-.47-.2-.62-.3Zm1.25.07c-.16 0-.2.14-.2.2.05.3.19.32.32.34l.08.02c.11.03.1-.01.1-.06l-.01-.04c0-.06-.09-.46-.3-.46Zm.23.73c-.01.04-.08.1-.22 0-.13-.08-.22-.05-.3-.02l-.12.02c-.09 0-.3.21-.4.32l-.14.13a.3.3 0 0 0-.24-.13c-.16 0-.54.22-.54.7s1.17.2 1.15 0c0-.16-.15-.2-.22-.21.19-.03.62-.11.8-.22.23-.14.23-.52.23-.59Z" fill="#314793"/><path d="M20.4 17.22c-.13-.28-.05-.28-.22-.52.81-1.35 1.01-.5 1.16-.44.15.07.37-.06.5-.33.14-.26 1.27.5 1.91.27.64-.24 1.45-.6 1.82-.61.36-.02.38.22.91.34.53.13.35 0 .52-.12.17-.13.12.01.46.12.33.11.58-.04.68.18.1.22-.13.6.2 1.2.24.29.03.16.28.5.24.32.77.18 1.14.35.3.14.12.35 0 .44-1.03.7-3.1 2.15-3.16 2.25-.07.12-.32.72-.38.99-.06.26-.18 0-.27.33-.1.33.32.8.53 1.2.21.38 0 .26.52.5.41.21.39.52.32.65l.99 1.05c.23.35.75 1.08.95 1.21.24.18.16.76.25.91.1.16 1.15.87 1.36 1.26.22.4.1.5.61 1.04.52.53.64.78 1.28 2.71.64 1.94-1.58 3.57-1.89 3.66-.3.1-.87.2-1.16.76-.29.55-.85.28-1.17.3-.32.01-.3.12-.6.83-.3.7-.83.26-1.03.55-.2.28-.95.45-1.24.5-.29.05-.24.16-.4.6-.15.44-.9.51-1.14.45-.24-.06.14-1.84.25-2.1.1-.27-.14-.58-.25-.7-.1-.13-.33-.3-.53-.62s.38-.16.78-.17c.4-.02 1.03-.41 1.43-.5.4-.07.34-.21.35-.34.02-.12.18-.86.23-.86.04 0 .38-.13.72 0 .33.13.32-.86.5-1 .18-.15.76.06 1.17.21.41.16.7-.23.84-.8.14-.56-.23-.88-.6-1.4-.39-.51-.3-.89-.24-1.01.06-.13.25-.6.23-.8-.01-.21-.15-.5-.53-.8-.38-.3-.18-.2-.32-.78-.14-.58-.3-.9-.37-1.36-.07-.47-.29-.98-.36-1.23-.08-.25-.23-.14-.37-.3-.14-.15-.32-.62-.46-.72-.13-.1-.58-.3-.8-.55-.23-.25-.04-.52-.13-.64-.09-.13-.21-.19-.24-.4-.03-.23-.43-.12-.52-.28-.1-.15-.23-.25-.38-.39s-.28-.19-.47-.34c-.2-.16.03-.32 0-.46s-.37-.1-.72-.17c-.35-.08-.23-.4-.1-.57.11-.17.34-.08.59-.1.24 0 .27-.16.55-.45.27-.28.18-.52.15-.8s-.44-.4-.63-.55a1.46 1.46 0 0 0-.79-.26c-.27 0-.44.18-.72.4-.27.22-.29-.2-.54-.4-.26-.2-.34-.1-.5-.35-.18-.25-.16-.24-.16-.44s.03-.5 0-.72c-.03-.22-.18 0-.52 0-.33 0-.15-.1-.27-.38Z" fill="#36AA47"/><path fill-rule="evenodd" d="M30.76 34.82c-.5 0-.5.64-.5 1.07v.23c-.02.43-.04.97.41.97.54 0 .67-.48.67-.72h.16c.04.33-.12.98-1.03.98s-1.15-.9-1.16-1.35c0-1.54 1.08-1.52 1.33-1.52h.03c.16 0 .35.08.43.13h.4v.89h-.16c-.12-.6-.44-.7-.58-.68Zm-4.46 2.15v.23h.46v-.23h-.12l.2-.55h.78l.21.55h-.23v.23h1.32v-.23h-.15l-.9-2.41h-.65l-.8 2.41h-.12Zm1.23-.77h-.61l.3-.82.31.82Zm-3.95-.98-.05-.27 2.29-.32.14 1.03-.14.03c-.06-.24-.26-.74-.57-.74-.3 0-.43.03-.45.04l.14 1.02.08-.01c.12-.02.2-.14.18-.26l-.03-.17.15-.02.19.92-.14.03-.04-.13a.21.21 0 0 0-.26-.15l-.1.03.15 1.1.52-.12.07-.45.22-.04.11.53-2.03.5-.04-.14.2-.06-.37-2.39-.22.04Zm-.56-.15-.17.07-.1.17a2.1 2.1 0 0 0-1 .2c-.43.23-.46.9-.26 1.24.21.34.62.46.88.51l.11.02c.31.05.85.15.57.43-.3.32-.94.41-1.3-.28a.59.59 0 0 0-.16.07l.3.86.1-.04.07-.18c.18.04.63.07.93-.09.37-.2.85-.51.55-1.27-.16-.4-.6-.5-.98-.57-.32-.07-.6-.12-.62-.36-.05-.5.9-.39 1.16.25l.16-.01-.24-1.02Zm-3.73 1.26.1.2.2-.07.74 2.04-.25.12.1.21 1.36-.61-.1-.22-.2.1-.7-2.04.3-.14-.07-.2-1.48.61Zm-.82 3.26a38.35 38.35 0 0 1-1.69-1.7l-.22.15-.11-.15 1.24-.8.96 1.22v-1.5l-.24.13-.14-.14.62-.37.15.18-.15.12v2.57l-.42.29Zm16-3.25c0 .77-.6 1.38-1.33 1.38-.74 0-1.34-.61-1.34-1.38 0-.76.6-1.37 1.34-1.37.73 0 1.33.61 1.33 1.38Zm-1.34-.92-.36 1.79c-.02.1.04.19.14.21.11.02.23-.05.25-.17l.36-1.74a.2.2 0 0 0-.14-.24.2.2 0 0 0-.25.15Zm4.45 3.34.87-2.03-.27-.2.08-.16 1.66.96c.24.1.66.47.46 1.03-.26.7-1.01.39-1.34.2l-.3-.13-.33.72.34.22-.1.17-1.4-.78.08-.13.25.13Zm1.25-.52.52-1.02c.09.03.23.16.15.44-.09.28-.18.5-.22.58-.07.07-.25.17-.45 0Zm-4.2-.46.63-2.18-.3-.17.05-.16 1.78.62c.27.07.76.37.64.98-.07.38-.32.53-.6.56l.12.16c.14.17.09.44.04.67-.03.15-.05.27-.01.34.07.12.15.08.17.05v.12c-.29 0-.9-.07-1-.26-.1-.19 0-.8.07-1.16a1.97 1.97 0 0 1-.13-.05l-.32-.07-.23.8.39.17-.07.2-1.58-.56.07-.15.27.1Zm1.2-.76.36-1.14c.1.02.26.12.22.43-.04.3-.1.55-.13.63-.05.09-.22.22-.46.08Z" fill="#DA1E1F"/></svg>