<!-- by TradingView --><svg width="56" height="56" viewBox="0 0 56 56" xmlns="http://www.w3.org/2000/svg"><path fill="#F0F3FA" d="M0 0h56v56H0z"/><path d="M18 20H4l7.13 15L18 20Z" fill="#E49E48"/><path fill-rule="evenodd" d="M12 20h4l-1.96 4.5L12 20Zm3 6h-2v7h2v-7Zm4 1.82c.37-.4 1.02-.82 1.99-.82 1.78 0 2.01 1.66 2.01 1.89V33h-2v-3.55c.01-.26-.4-.77-1.08-.77-.45 0-.74.41-.92.83V33h-2v-6h2v.82ZM42.99 27c-.97 0-1.62.41-1.99.82V27h-2v6h2v-3.5c.18-.4.47-.82.92-.82.69 0 1.1.51 1.08.77V33h2v-4.11c0-.23-.23-1.89-2.01-1.89ZM29 27v6h-2.8c-.9-.24-2.7-1.3-2.7-3.65 0-.78.44-2.35 2.2-2.35H29Zm-2 1.5v3h-.39c-.37-.34-1.11-1.22-1.11-2.01 0-.99.95-.99 1.5-.99ZM38 33v-6h-3.3c-1.76 0-2.2 1.57-2.2 2.35 0 2.34 1.8 3.4 2.7 3.65H38Zm-2-1.5v-3c-.55 0-1.5 0-1.5.99 0 .79.74 1.67 1.11 2.01H36ZM30 25h2v8h-2v-8Zm19 0h2v8h-2v-.73c-.4.46-.92.73-1.48.73-1.54 0-2.28-1.34-2.28-3s.71-3 2.28-3c.56 0 1.08.27 1.48.73V25Zm-1 3.5c.55 0 1 .67 1 1.5s-.45 1.5-1 1.5c-.68 0-1-.67-1-1.5s.31-1.5 1-1.5Z" fill="#0D653B"/></svg>