<!-- by TradingView --><svg width="56" height="56" viewBox="0 0 56 56" xmlns="http://www.w3.org/2000/svg"><path fill="#F0F3FA" d="M0 0h56v56H0z"/><path d="M6 27.42c0 6.6 8.58 9.14 12.87 9.58a11.48 11.48 0 0 1-3.45-8.77c.51-7.08 9.05-9.26 13.58-9.12-7.14-2.96-23 .05-23 8.3Z" fill="#00529C"/><path d="M16.47 36.64a19.06 19.06 0 0 1-6.25-2.48c-.87-1.56-1.11-4.26-1.12-5.42 0-6.32 7.39-8.51 11.09-8.82-3.98.82-8.15 3.67-8.15 8.56 0 3.92 2.95 7.07 4.43 8.16ZM26.72 20.04c1.58.14 5.34 1.52 7.73 5.96h3.8c-1.01-2.2-4.73-6.45-11.53-5.96Zm-1.08 16.89c1.85-.11 6.1-1.06 8.27-3.93h3.57c-3.17 3.82-9.22 4.2-11.84 3.93Z" fill="#F37224"/><path fill-rule="evenodd" d="M28.85 22.9a.6.6 0 0 0-.26-.83.65.65 0 0 0-.86.25l-4.16 7.44-1.32-4.49a.64.64 0 0 0-.79-.42.61.61 0 0 0-.44.76l1.75 5.94c.08.24.29.42.55.45.26.02.5-.1.63-.32l4.9-8.77Zm-.5 4.74a.5.5 0 1 0-.99-.25l-.97 3.97c-.07.28.1.56.37.63a.5.5 0 0 0 .62-.38l.97-3.97ZM41.42 27c.27.07.44.35.37.63l-.97 3.97a.5.5 0 1 1-.99-.25l.97-3.97a.5.5 0 0 1 .62-.38Zm-9.02.68c.07-.3-.1-.6-.37-.67-.27-.08-.55.1-.61.4l-.5 2.12-.71-2.17a.51.51 0 0 0-.5-.37.52.52 0 0 0-.47.4l-1.1 3.88c-.07.3.08.6.35.7.27.09.55-.08.63-.37l.65-2.29.75 2.31c.08.23.28.38.5.37a.52.52 0 0 0 .48-.42l.9-3.89Zm13.26-.67c.28.07.44.38.37.67l-.9 3.9a.52.52 0 0 1-.47.4.51.51 0 0 1-.5-.36l-.77-2.3-.64 2.28c-.08.29-.37.46-.64.37-.26-.1-.42-.4-.33-.7l1.09-3.89a.52.52 0 0 1 .47-.39c.22 0 .42.14.5.37l.7 2.17.5-2.12c.07-.3.35-.48.62-.4Zm-10.5.02c.17.08.28.24.3.43.1.83.27 2.81.27 4 0 .3-.22.53-.5.53a.52.52 0 0 1-.52-.53c0-.25 0-.53-.02-.84l-.93.13-.4.92a.5.5 0 0 1-.66.28.53.53 0 0 1-.27-.7l.15-.35a.52.52 0 0 1-.5-.46.52.52 0 0 1 .44-.59l.55-.07a32 32 0 0 1 .98-1.92c.18-.3.39-.6.6-.77a.5.5 0 0 1 .51-.06Zm-.58 1.99.05.55-.34.04a23.51 23.51 0 0 1 .3-.6Zm3.43-2c.27.08.42.38.33.65L37.36 31h1.05c.28-.01.52.14.53.43.01.3-.2.56-.49.57h-1.22c-.68-.07-.9-.68-.93-.96 0-.07 0-.14.02-.2l1.05-3.47a.5.5 0 0 1 .64-.35Zm11.63 0a.5.5 0 0 1 .34.61c-.18.58-.8 1.64-2.02 2.06l1.2 1.5a.5.5 0 0 1-.1.7.52.52 0 0 1-.71-.1l-1.12-1.39-.33 1.21a.51.51 0 1 1-.98-.27L47 27.38a.5.5 0 1 1 .98.27l-.3 1.08c.8-.3 1.2-1 1.32-1.38a.51.51 0 0 1 .64-.33Z" fill="#00529C"/><path opacity=".5" fill="#F37224" d="M38 33h12v2H38z"/></svg>