<!-- by TradingView --><svg width="56" height="56" viewBox="0 0 56 56" xmlns="http://www.w3.org/2000/svg"><path fill="#F0F3FA" d="M0 0h56v56H0z"/><path fill-rule="evenodd" d="M43.3 35.68a26.24 26.24 0 0 0-4.64-1.64 12.95 12.95 0 0 1-7.52 4.61c4.7-.32 8.92-1.4 12.15-2.97ZM27.7 39h.39c6.04 0 11.5-1.21 15.47-3.18h.01C47.6 33.82 50 31.06 50 28c0-6.08-9.75-11-21.9-11h-.39C15.74 17.1 6 22 6 28c0 3.04 2.56 5.79 6.53 7.78l.03.04c.01 0 .02 0 .03-.02 3.9 1.94 9.22 3.15 15.12 3.2Zm.3-.24h-.3c-4.27-.07-8.02-1.96-10.23-4.8a42.58 42.58 0 0 1 20.93 0c-2.24 2.88-6.06 4.78-10.4 4.8Zm-3.44-.14a33.32 33.32 0 0 1-11.7-2.96c.87-.46 2.35-1.08 4.34-1.63 1.7 2.22 4.3 3.87 7.36 4.59Zm-11.97-3.1c.86-.47 2.38-1.11 4.46-1.7A10.07 10.07 0 0 1 15.1 28H6.35c.04 2.86 2.36 5.57 6.24 7.53ZM6.35 27.8h8.75c.04-2.02.71-3.88 1.86-5.5a21.1 21.1 0 0 1-4.51-1.76c-3.75 1.93-6.01 4.47-6.1 7.26Zm6.36-7.4c.84.47 2.35 1.11 4.4 1.69a12.89 12.89 0 0 1 7.45-4.7c-4.6.37-8.7 1.46-11.85 3.02Zm15-3.16c-4.35.07-8.14 2.02-10.34 4.92a42.55 42.55 0 0 0 21.12 0c-2.23-2.94-6.09-4.9-10.5-4.92h-.28Zm3.43.1c3.19.71 5.9 2.43 7.61 4.75a25.23 25.23 0 0 0 4.7-1.7c-3.26-1.6-7.53-2.71-12.3-3.04Zm12.43 18.2a25.45 25.45 0 0 0-4.75-1.71A10.07 10.07 0 0 0 40.76 28h9.08c-.04 2.87-2.38 5.6-6.27 7.55Zm6.27-7.74h-9.08a9.72 9.72 0 0 0-1.85-5.5 24.5 24.5 0 0 0 4.78-1.77l-.01-.02c3.79 1.93 6.07 4.49 6.16 7.29Zm-22.02 4.6c4.24 0 7.92.62 10.73 1.36A9.85 9.85 0 0 0 40.5 28H15.36c.02 2.08.73 4.1 1.95 5.75 2.7-.73 6.28-1.34 10.5-1.34Zm-12.46-4.6H40.5a9.5 9.5 0 0 0-1.86-5.43 42.78 42.78 0 0 1-21.42 0 9.5 9.5 0 0 0-1.86 5.43Z"/><path d="M31.91 17.76c2.36.43 6.44 2.51 8.36 8.09.03.07-.03.16-.11.16h-6.8a.12.12 0 0 0-.13.12l-.08 3.67c0 .07.06.2.13.2h16.4a6.3 6.3 0 0 0 .42-2c0-6.08-9.85-11-22-11-1.53 0-2.66.08-4.1.23v21c-8.25-2.5-8.8-7.9-8.62-10.27H6.1V28c0 6.08 9.85 11 22 11 1.3 0 2.57-.06 3.81-.16V17.76Z" fill="#F8C400"/><path d="M31.8 17.64h.16c2.45.44 6.52 2.45 8.48 8.12.08.23-.1.48-.36.48h-6.82v3.52h16.32c.17-.55.26-1.19.26-1.76 0-2.9-2.35-5.59-6.3-7.56-3.94-1.97-9.4-3.2-15.44-3.2-1.44 0-2.74.07-4.1.2V38.5c-4.46-1.23-9.03-5.52-8.89-10.49H6.35c0 3.07 2.45 5.63 6.3 7.56 3.94 1.97 9.4 3.2 15.45 3.2 1.2 0 2.54-.05 3.7-.15V17.64Zm.2 21.2c-1.24.1-2.6.16-3.9.16-12.02 0-21.8-4.84-22-10.82v-.28a5.55 5.55 0 0 1 0-.09h9.28l-.01.25c-.08 2.47 1.34 7.52 8.43 10.08V17.23a40.6 40.6 0 0 1 4.3-.23c12.15 0 22 4.92 22 11 0 .66-.15 1.37-.37 2h-16.6a.12.12 0 0 1-.13-.12v-3.76c0-.07.06-.12.13-.12h6.95c.09 0 .15-.09.12-.16-1.86-5.39-5.65-7.4-8.04-7.92l-.16-.05v20.97Z"/></svg>