<!-- by TradingView --><svg width="56" height="56" fill="none" xmlns="http://www.w3.org/2000/svg"><path fill="#F0F3FA" d="M0 0h56v56H0z"/><path d="M14 13v19c1.227-2.95 5.752-8.85 14.032-8.85 8.28 0 12.762 5.9 13.968 8.85V13H14Z" fill="#1F6A87"/><path fill-rule="evenodd" clip-rule="evenodd" d="M14 35.148c1.933-.287 6.526-1.378 9.438-3.446-1.603-.933-4.809-3.97-4.809-8.657 0-4.686 4.045-7.983 6.068-9.045.614.3 2.145 1.19 3.36 2.355.614-.633 2.133-1.99 3.297-2.355 2.08.962 6.242 4.118 6.242 9.045s-3.266 7.824-4.9 8.657c1.694.976 5.924 3.032 9.304 3.446V37H14v-1.852Zm10.709-4.326c-1.527-1.082-4.464-4.062-4.464-7.702 0-3.69 3.017-6.484 4.525-7.42.392.167 1.407.752 2.328 1.755-.637.902-1.91 3.299-1.91 5.665s1.273 4.695 1.91 5.564c-.283.394-1.15 1.363-2.39 2.138Zm6.766 0c1.527-1.082 4.463-4.062 4.463-7.702 0-3.69-3.016-6.484-4.525-7.42-.392.167-1.407.752-2.327 1.755.636.902 1.909 3.299 1.909 5.665s-1.273 4.695-1.91 5.564c.283.394 1.15 1.363 2.39 2.138Zm-6.757 1.798c-1.653 1.483-4.107 2.306-5.127 2.531 1.378-.167 4.624-.742 6.591-1.704a3.576 3.576 0 0 1-1.464-.827Zm11.927 2.531c-1.02-.225-3.474-1.048-5.127-2.531-.2.2-.774.646-1.465.827 1.967.962 5.214 1.537 6.592 1.704Zm-10.378-3.413a14.142 14.142 0 0 0 1.857-1.663c.33.374 1.141 1.231 1.75 1.663-.45.28-1.355.846-1.75 1.094-.573-.233-1.477-.827-1.857-1.094Zm1.844-4.277c-.424-.77-1.273-2.736-1.273-4.444 0-1.707.849-3.31 1.273-3.899.417.792 1.25 2.68 1.25 3.9 0 1.22-.833 3.47-1.25 4.443ZM30.951 35h-5.754c.738-.15 2.366-.562 2.974-1 .698.429 2.145.845 2.78 1Z" fill="#F9A51F"/><path fill-rule="evenodd" clip-rule="evenodd" d="M14 43v-5h28v5H14Zm2.379-1L15 39h1.224l.873 2 1.111-2h1.112l-1.477 3h-1.464ZM20 39v3h1v-3h-1Zm2 3.002v-3h1.333L25 41.128v-2.126h1v3h-1.532L23 39.935v2.067h-1ZM26.793 42l1.66-3h1.18l1.574 3h-1.049l-.298-.547h-1.698l-.277.547h-1.092Zm1.683-1.167h1.045l-.543-.993-.502.993ZM32 39v3h1v-.665h1.493c.222 0 .507.132.507.295V42h1c0-.877-.393-1.132-.589-1.15.196-.012.589-.2.589-.862 0-.661-.523-.934-.785-.988H32Zm1 .867v.607h1.422c.23 0 .415-.136.415-.304 0-.168-.186-.303-.415-.303H33ZM37 39v3h3v-.708h-2v-.434h2v-.72h-2v-.33h2V39h-3Z" fill="#1F6A87"/></svg>