<!-- by TradingView --><svg width="56" height="56" viewBox="0 0 56 56" xmlns="http://www.w3.org/2000/svg"><path fill="#F0F3FA" d="M0 0h56v56H0z"/><path d="M14.17 27.7a13.09 13.09 0 0 1-5.75-2.31c-.2-.15-.5.06-.4.29 2.32 5.73 8.81 7.2 12.54 7.2a9.74 9.74 0 0 0 6.1-2.2c.12-.1.09-.3-.05-.38-4.51-2.67-4.2-5.77-4.2-6.2 0-.42 0-5.07 5.48-6.83 3.77-1.2 7.77-.2 9.95.72.24.1.46-.17.3-.36-2.6-2.95-7.02-3.66-9.06-3.63-11.4 0-14.48 8.81-14.64 13.47 0 .14-.12.25-.27.23Z" fill="#C4261D"/><path d="M41.83 28.3c2.42.29 4.54 1.44 5.75 2.31.2.15.5-.06.4-.29-2.32-5.73-8.81-7.2-12.54-7.2a9.74 9.74 0 0 0-6.1 2.2c-.12.1-.09.3.05.38 4.51 2.67 4.2 5.77 4.2 6.2 0 .42 0 5.07-5.48 6.83-3.77 1.2-7.77.2-9.95-.72-.24-.1-.46.17-.3.36 2.6 2.95 7.02 3.66 9.06 3.63 11.4 0 14.48-8.81 14.64-13.47 0-.14.12-.25.27-.23Z" fill="#006432"/></svg>