<!-- by TradingView --><svg width="56" height="56" viewBox="0 0 56 56" xmlns="http://www.w3.org/2000/svg"><path fill="#F0F3FA" d="M0 0h56v56H0z"/><path fill-rule="evenodd" d="M27.99 14c-4.67 0-9 .94-12.54 2.55l-.04-.02v.04A17.75 17.75 0 0 0 7.76 23h1.36a16.77 16.77 0 0 1 6.43-5.4c.9.26 2.33.58 4.2.85A16.22 16.22 0 0 0 17.55 23h1.2a14.54 14.54 0 0 1 2.32-4.37c1.8.21 3.59.38 5.9.4V23h2v-3.96c2.3-.03 4.2-.18 5.95-.39A14.56 14.56 0 0 1 37.24 23h1.2a16.24 16.24 0 0 0-2.2-4.53c1.88-.27 3.31-.6 4.2-.86 2.77 1.33 4.99 3.35 6.4 5.39h1.37a17.74 17.74 0 0 0-7.63-6.43l-.01-.03-.04.01A30.66 30.66 0 0 0 28 14Zm-4.77 1.31c-2.22.34-4.3.9-6.18 1.65.9.2 2.07.41 3.45.6.81-.9 1.73-1.66 2.73-2.25Zm3.76 2.74a51.46 51.46 0 0 1-5.06-.32c1.51-1.44 3.05-2.35 5.06-2.52v2.84Zm2 0v-2.83a8.6 8.6 0 0 1 5.1 2.53c-1.54.17-3.16.28-5.1.3Zm6.53-.47c1.4-.19 2.57-.4 3.46-.6a27.95 27.95 0 0 0-6.21-1.67c1 .6 1.93 1.36 2.75 2.27ZM28 42c4.67 0 9-.94 12.54-2.55l.03.02.01-.04A17.75 17.75 0 0 0 48.21 33h-1.36a16.77 16.77 0 0 1-6.43 5.4c-.9-.26-2.33-.58-4.2-.85A16.22 16.22 0 0 0 38.43 33h-1.2a14.54 14.54 0 0 1-2.33 4.37 52.7 52.7 0 0 0-5.9-.4V33h-2v3.96c-2.29.03-4.2.18-5.95.39a14.56 14.56 0 0 1-2.3-4.35h-1.2c.51 1.6 1.26 3.29 2.19 4.53-1.88.27-3.31.6-4.2.86-2.77-1.33-5-3.35-6.41-5.39H7.77a17.74 17.74 0 0 0 7.63 6.43v.03l.04-.01A30.66 30.66 0 0 0 28 42Zm4.77-1.31c2.22-.34 4.3-.9 6.18-1.65-.9-.2-2.07-.41-3.45-.6-.81.9-1.73 1.66-2.73 2.25ZM29 37.95c1.97.02 3.48.15 5.06.32C32.55 39.7 31 40.62 29 40.79v-2.84Zm-2 0v2.83a8.6 8.6 0 0 1-5.1-2.53 53.5 53.5 0 0 1 5.1-.3Zm-6.53.47c-1.4.19-2.57.4-3.47.6 1.9.76 3.99 1.33 6.22 1.67-1-.6-1.93-1.36-2.75-2.27ZM30.5 25v6h4v-1h-2v-1.5H34v-1h-1.5V26h2v-1h-4Zm-4.89 0h1.92l.45 4.1.65-4.1h1.74l-1.28 6h-2.25l-1.23-6ZM6 25h1.92l.45 4.1L9 25h1.74l-1.27 6H7.23L6 25Zm5 0h2v6h-2v-6Zm24 0h4v1h-1v5h-2v-5h-1v-1Zm-21 0h2.11L18 28.32V25h2v6h-2.31L16 27.86V31h-2v-6Zm9.84 6h2.11l-1.35-6h-2.48l-1.4 6h1.91l.18-1h.9l.13 1Zm-.24-2h-.62l.37-2.1.25 2.1Zm15.9-2.28c0-.95.83-1.72 1.85-1.72h1.05c1.03 0 1.86.77 1.86 1.72V27H42.5v-.57c0-.24-.2-.43-.46-.43h-.08c-.25 0-.46.2-.46.43v3.14c0 .24.2.43.46.43h.08c.25 0 .46-.2.46-.43V29h1.76v.28c0 .95-.83 1.72-1.86 1.72h-1.05c-1.02 0-1.85-.77-1.85-1.72v-2.56ZM46.95 25c-1.08 0-1.95.77-1.95 1.72v2.56c0 .95.87 1.72 1.95 1.72h1.1c1.08 0 1.95-.77 1.95-1.72v-2.56c0-.95-.87-1.72-1.95-1.72h-1.1Zm.52 1c-.26 0-.47.2-.47.43v3.14c0 .24.21.43.47.43h.07c.26 0 .46-.2.46-.43v-3.14c0-.24-.2-.43-.46-.43h-.07Z" fill="#D82126"/></svg>