<!-- by TradingView --><svg width="56" height="56" viewBox="0 0 56 56" xmlns="http://www.w3.org/2000/svg"><path fill="#F0F3FA" d="M0 0h56v56H0z"/><path d="M35.18 12.47c-2.57-.45-4.34 1.44-4.9 2.44l-.03.06-.06.03a8.79 8.79 0 0 0-4.34 4.96l-.04.13h-.13c-7.75.41-12.56 3.88-13.97 5.53l-.06.07H9.06c-.3-.03-.46.08-.54.2a.82.82 0 0 0-.12.46l.87 3.86v.04c-.7 7.01 4.22 12.45 5.5 13.8.47.5.95.6 1.35.53.42-.07.78-.32.98-.52 3.34-3.24 8.03-6.2 13-6.41a25.4 25.4 0 0 0 8.76-2.09c3-1.34 5.63-3.36 6.7-6.21.87-2.32 1.1-4.1 1.03-5.37-.06-1.28-.42-2.04-.7-2.34l-.11-.12.1-.14c.32-.43.46-.73.51-.94.04-.2 0-.28-.06-.32-.06-.06-.2-.1-.38-.1s-.39.03-.57.07l-.25.07v-.27c.03-1.08-.16-2.42-.37-3.61-.1-.6-.22-1.15-.31-1.62l-.07-.3-.15-.78c-.04-.2-.12-.4-.22-.56a.8.8 0 0 0-.3-.3.17.17 0 0 0-.09-.02.12.12 0 0 0-.07.04c-.06.06-.14.21-.18.53-.04.33-.2.63-.42.91-.21.28-.5.55-.8.79-.6.48-1.3.87-1.75 1.09l-.13.06-.1-.1a6.2 6.2 0 0 1-.37-.48c-.69-.93-1.9-2.59-4.62-3.07Zm-5.21 2.19c.63-1.1 2.51-3.07 5.27-2.58a7.33 7.33 0 0 1 4.9 3.24l.22.3a9.12 9.12 0 0 0 1.55-.97c.29-.23.54-.47.73-.72.2-.25.31-.49.34-.7.04-.36.14-.63.3-.78a.5.5 0 0 1 .6-.1c.18.1.34.26.47.46a2 2 0 0 1 .26.7 31.36 31.36 0 0 0 .22 1.07l.32 1.63c.2 1.1.37 2.37.38 3.44.14-.02.29-.04.43-.04a1 1 0 0 1 .63.2c.19.17.25.42.19.72-.06.26-.22.58-.5.97.34.43.65 1.26.7 2.46.08 1.34-.16 3.18-1.05 5.54-1.12 2.99-3.87 5.07-6.91 6.43a25.79 25.79 0 0 1-8.9 2.12c-4.83.2-9.44 3.1-12.74 6.3-.24.24-.67.54-1.2.62-.52.1-1.13-.04-1.7-.63-1.28-1.35-6.3-6.9-5.61-14.1L8 26.4v-.02c0-.19.03-.48.2-.71.16-.25.45-.42.88-.39h2.4c1.54-1.75 6.37-5.14 14.04-5.58a9.22 9.22 0 0 1 4.45-5.04Z" fill="#878886"/><path d="M43.24 23.82c0 4.7-3.74 8.51-8.34 8.51a8.43 8.43 0 0 1-8.35-8.51c0-4.7 3.74-8.52 8.35-8.52 4.6 0 8.34 3.81 8.34 8.52Z" fill="url(#aj55hcyhi)"/><path d="M32.5 14.65a8.04 8.04 0 0 0-6.24 5.8h.79a8.51 8.51 0 0 1 5.46-5.19c3.41-1.05 6.86.74 8.16 1.76a9.02 9.02 0 0 0-8.16-2.37Z" fill="#F8EF29"/><path d="M9.83 29.85c-.91 5.03 2.16 10.1 3.81 12 5.08-5.26 9.56-6.76 18.41-7.9 7.08-.92 10.38-4.59 11.14-6.3a18.68 18.68 0 0 0 .65-13.58l-.9 2.82c-1.7 2.15-9.95 3.13-13.87 3.35-8.07.04-18.1 3.3-19.24 9.6Z" fill="#00A651"/><path d="M11.58 27.69c-2.63 4.83.23 10.68 1.99 13 6.52-6.61 13.64-6.83 14.6-7 .94-.18 8.33 0 13.47-4.9 3.8-3.62 2.96-11.77 2.07-14.98-.55 1.3-2.07 2.46-3.71 3.21-3.58 1.64-8.98 2.87-12.79 3.57-4.11.36-13 2.27-15.63 7.1Z" fill="#F3EC19"/><path d="M31.37 24.69h-1.3l-.39 3.98c.26 1.73 1.48.82 2.05.15v.27h1.22c.18-1.1.8-2.54 1.08-3.13l-.25 2.36h1.17c.26-.91.87-2.19 1.15-2.71-.41 2.83 1 2.04 1.75 1.3 1.13.79 2.59-.2 3.17-.8 1.27 1 2.08-.53 2.32-1.42 1.19 1.35 2.2.31 2.56-.37V22.6l-.9 1.07c-.92.54-.94-.23-.83-.67l1.73-2.64h-1.37l-1.02 1.72L43 20.9h-1.42c0 .47.77 1.92 1.15 2.58-.09.28-.33.9-.58 1.2-.26.3-.39-.32-.42-.67l-1.12.84v.28c-.68.9-1.36.77-1.61.6a7.23 7.23 0 0 0 2.32-1.9c.56-1.6-.24-1.95-.71-1.91-1.64.04-2.9 2.55-3.32 3.8.37-1.17.61-2.73-.24-2.73-.68 0-1.21.88-1.4 1.32-.77-1.6-1.94.2-2.43 1.29l.3-1.6h-1.27l-.37 2.9c0 .45-.6.93-.9 1.11l.39-3.33Zm7.68-.25c.27-.47.86-1.38 1.07-1.24.27.17-.68 1.39-1.07 1.24Zm-7.64-1c-.2.47-.66.72-1.04.55-.38-.16-.53-.67-.33-1.14.2-.47.66-.71 1.03-.55.38.16.53.67.34 1.14ZM9.16 26.37l2.12 11.01h1.64c.7-3.33 2.46-10.38 3.84-11.9L15 24.88c-.73 1.56-2.31 5.38-2.76 8.2l-.95-6.7H9.16Zm5.45 5.73c-.02-1.72 1.63-3.16 2.45-3.67l.44.68c-1.18.9-2.24 3.2-1.22 3.23.8.02.77-1.49.64-2.24l1.04-1.15c.19 0 .37.67.44 1 .29-1 1.46-2.4 2.58-2.32.9.05.69 1.31.47 1.94l-1.07-.2v-.42c-.62.24-.9 2.37-.52 2.37.3 0 1.27-.71 1.72-1.07 1.04-4 3.38-3.75 4.42-3.12l-.48 2.44.8-.62V26h1.24v.9c.69-1.58 1.83-1.6 2.32-1.42l-.29 1.42c-1.04-.62-1.79 2.26-2.03 3.77h-1.24v-.16c-1.02 1.06-1.78.55-2.04.16-1.04 1.66-2.06 1.13-2.45.65-2.57 2.31-3.55 1.24-3.72.42-.67 2.34-3.46 2.5-3.5.36Zm9.9-4.26c-.6.32-1.73 1.27-1.38 2.5a3.17 3.17 0 0 0 1.39-2.5Z" fill="#ED1C24"/><path d="m34.58 12.8-.22.39.59.36.48-.37-.27-.36-.24.2-.34-.21Zm-1.19.28-.2.4 1.75.94 1.62-.95-.22-.38-1.41.82-1.54-.83Zm3.47 2.5c-.44.26-.8.6-1.05.9-.04-.13-.1-.26-.16-.4.56-.7 1.5-1.4 2.85-1.3l.03-.44a3.66 3.66 0 0 0-3.1 1.33 4.64 4.64 0 0 0-.28-.4 4.43 4.43 0 0 1 2.37-1.26l-.1-.43a4.87 4.87 0 0 0-2.56 1.36 4.6 4.6 0 0 0-2.48-1.36l-.09.43c1.04.21 1.77.71 2.28 1.26a4 4 0 0 0-.23.34 3.96 3.96 0 0 0-2.97-1.27v.44c1.3 0 2.2.6 2.75 1.24-.06.12-.1.24-.14.36-.54-.74-1.65-1.55-3.4-1.1l.1.42c1.88-.47 2.88.67 3.17 1.32v2.06h.44v-2.1c.01-.15.06-.34.14-.56.12.19.21.36.27.5v1.95h.44v-1.94c.05-.13.12-.28.22-.43.07.19.12.35.15.5v1.6h.44v-1.56c.2-.32.6-.76 1.13-1.07.55-.33 1.23-.5 2-.27l.13-.43a2.88 2.88 0 0 0-2.35.31Zm-2 .04c.1.14.2.28.27.42a4.3 4.3 0 0 0-.21.34 4.07 4.07 0 0 0-.28-.42l.22-.34Z" fill="#00A651"/><defs><linearGradient id="aj55hcyhi" x1="32.74" y1="15.74" x2="34.98" y2="32.32" gradientUnits="userSpaceOnUse"><stop stop-color="#F8A338"/><stop offset=".2" stop-color="#F8E723"/><stop offset="1" stop-color="#D9D9D9" stop-opacity="0"/></linearGradient></defs></svg>