<!-- by TradingView --><svg width="56" height="56" viewBox="0 0 56 56" xmlns="http://www.w3.org/2000/svg"><path fill="#F0F3FA" d="M0 0h56v56H0z"/><path fill-rule="evenodd" d="M28 40c11.05 0 21-5.37 21-12s-9.95-12-21-12S7 21.37 7 28s9.95 12 21 12Zm0-.45c9.94 0 20.41-5.17 20.41-11.55 0-6.38-9.69-11.55-20.41-11.55S7.59 21.62 7.59 28c0 6.38 10.47 11.55 20.41 11.55Z" fill="#0261AF"/><path fill-rule="evenodd" d="M8.14 27h7.9l1.19 5h2.88l1.9-5H47.9v1.25c0 .35-2.57 10.75-20 10.75-16.76 0-19.75-9.7-19.75-12Zm14.57 1c-.4 0-.71.29-.71.64v1.72c0 .35.32.64.7.64h2.6c.38 0 .7-.29.7-.64v-1.72c0-.35-.32-.64-.7-.64h-2.6Zm2.63.55h-2.62v1.95h2.62v-1.95ZM37.7 28c-.4 0-.71.29-.71.64v1.72c0 .35.32.64.7.64h2.6c.38 0 .7-.29.7-.64v-1.72c0-.35-.32-.64-.7-.64h-2.6Zm2.63.55h-2.62v1.95h2.62v-1.95ZM27 30.15h.83v.33h2.67v-.7h-2.94c-.31 0-.56-.2-.56-.44v-.9c0-.24.25-.44.56-.44h2.88c.31 0 .56.2.56.44v.58h-.82v-.44h-2.35v.65h2.61c.31 0 .56.2.56.44v.9c0 .23-.25.43-.56.43h-2.88c-.31 0-.56-.2-.56-.44v-.4Zm5-1.51c0-.35.36-.64.8-.64h2.4c.44 0 .8.29.8.64V29h-.7v-.45h-2.62v1.95h2.62V30h.7v.36c0 .35-.36.64-.8.64h-2.4c-.44 0-.8-.29-.8-.64v-1.72Z" fill="#0261AF"/><path d="m16.75 25.56 1.28 4.65 3-7.21h.84l-1.42 3h.29l1.38-3h.6l-1.36 3h.32l1.35-3h1.7c.12-.84.28-1.68.49-2.47.26-1.02.6-1.95 1.05-2.64.14-.22.3-.43.48-.6a10.86 10.86 0 0 0-7.46 3.48 11.23 11.23 0 0 0-2.54 4.79ZM24.6 24h-1.2l-1.09 2h2.12c.04-.6.09-1.29.17-2Zm.36 2c.04-.6.1-1.29.17-2h5.78c.09.7.15 1.38.2 2h-6.15Zm6.68 0h7.7c-.15-.62-.37-1.3-.68-2h-7.21c.08.7.14 1.38.19 2Zm-.33-3h6.86a10.82 10.82 0 0 0-8.87-5.7c.18.18.35.4.5.64.44.72.79 1.7 1.05 2.76.2.73.34 1.52.46 2.3Zm7.93 1c.29.7.5 1.38.64 2h7.77a4.35 4.35 0 0 0-1.62-2h-6.8Zm-.47-1c-.43-.82-.97-1.64-1.65-2.41a11.05 11.05 0 0 0-5.62-3.45c7.11.83 12.54 4.11 14.17 5.86h-6.9Zm-14.48-5.83a10.92 10.92 0 0 0-5.4 3.25 11.74 11.74 0 0 0-2.4 4.16L16.05 23H14v.66h1.13L15.9 26H8.47c1.2-3.43 7.06-7.8 15.82-8.83ZM30.77 23h-5.5c.12-.8.27-1.6.46-2.34.26-1 .59-1.87.98-2.48.4-.62.84-.93 1.31-.94h.03c.46.01.9.33 1.3.98.4.65.73 1.56 1 2.6.17.7.3 1.44.42 2.18Z" fill="#B9E7FF"/></svg>