<!-- by TradingView --><svg width="56" height="56" viewBox="0 0 56 56" xmlns="http://www.w3.org/2000/svg"><path fill="#F0F3FA" d="M0 0h56v56H0z"/><path fill-rule="evenodd" d="M42.57 37.48c3.71-2.47 5.93-5.83 5.93-9.48 0-3.65-2.22-7.01-5.93-9.48-3.7-2.47-8.86-4.02-14.57-4.02-5.71 0-10.86 1.55-14.57 4.02C9.72 20.99 7.5 24.35 7.5 28c0 3.65 2.22 7.01 5.93 9.48 3.7 2.48 8.86 4.02 14.57 4.02 5.71 0 10.86-1.55 14.57-4.02ZM28 42c11.6 0 21-6.27 21-14s-9.4-14-21-14S7 20.27 7 28s9.4 14 21 14Z" fill="#29166F"/><path d="M8.7 31h1.22l-.53-2H12v-2h4v-.71h.7v-.68h1.1l.08-.58c-.8-.12-1.58-.26-2.34-.4-.25.77-.4 1.47-.47 2.02l-.33-.04c.08-.56.23-1.27.48-2.05-2.04-.4-3.94-.9-5.65-1.42A10.5 10.5 0 0 0 8 27.65c0 .28 0 2.44.7 3.35Zm1.03-8.13c1.7.51 3.58 1 5.6 1.4a14.2 14.2 0 0 1 1.64-3.31 47.06 47.06 0 0 1-4.55-1.23 14.04 14.04 0 0 0-2.69 3.14Zm2.97-3.38c1.35.43 2.85.84 4.46 1.2a8.5 8.5 0 0 1 3.3-2.77 23.88 23.88 0 0 1-3.15-1.12c-1.88.75-3.4 1.69-4.6 2.7Zm5.03-2.85c2.13.9 5.67 1.96 9.75 1.96 4.1 0 8.51-.93 11.39-1.73C36.13 15.74 32.59 15 28.02 15c-4.27 0-7.64.64-10.3 1.64Zm21.6.42c-.97.28-2.12.58-3.4.85A8.14 8.14 0 0 1 39 20.44c1.52-.28 2.97-.59 4.32-.9a16.51 16.51 0 0 0-4-2.48Zm4.28 2.73c-1.37.32-2.86.64-4.4.93a12.4 12.4 0 0 1 1.64 3.19c1.86-.34 3.65-.7 5.33-1.1a13.9 13.9 0 0 0-2.57-3.02Zm2.74 3.3c-1.7.4-3.5.77-5.4 1.11.52 1.5.77 3.02.77 4.27h-.32c0-1.23-.25-2.73-.76-4.21-4.61.81-9.64 1.4-14.49 1.4-2.73 0-5.35-.21-7.81-.56l.04.5H20V28h1v1h20.81l1.19-.63.54-1.76.43 1.39h2.64l-1.25 3h2.22c.22-.3.42-1.55.42-2.84 0-.7-.3-2.77-1.65-5.06ZM18.3 24.79c2.47.35 5.1.57 7.84.57 4.8 0 9.8-.58 14.38-1.39a14.15 14.15 0 0 0-1.68-3.18c-3.86.71-8.13 1.23-12.23 1.23-3.36 0-6.51-.4-9.31-.98a13.88 13.88 0 0 0-1.67 3.3c.74.14 1.5.27 2.28.4l.24-1.82.15 1.87Zm9.17-5.87a26 26 0 0 1-6.52-.86 7.98 7.98 0 0 0-3.45 2.7c2.74.57 5.83.95 9.1.95 4.03 0 8.22-.5 12.03-1.2a7.57 7.57 0 0 0-3.2-2.46l.02-.03c-2.45.5-5.28.9-7.98.9Z" fill="#0093DD"/><path d="M23 19.02c0-1.12.98-2.02 2.19-2.02H34v8.98c0 1.12-.98 2.02-2.19 2.02H23v-8.98Z" fill="#29166F"/><path d="M24.06 18h5.24c1.13 0 1.65.66 1.65 1.46 0 .8-.88.89-1.32.83-1.2 0-2.17.9-2.17 2v.51c0 1 .87 1.81 1.95 1.81h.11v1.97l.75.42h-6.21l.94-.42v-8.21l-.94-.37Zm7.06 1.34c0 .75-.58 1.08-1.31 1.08-.73 0-2.19.56-2.19 2.22 0 1.66 1.73 1.82 2.54 1.82.8 0 2.89-1.16 2.89-3.34 0-1.74-1.71-2.79-2.5-3.06.21.2.57.7.57 1.28Z" fill="#E87819"/><path fill-rule="evenodd" d="M47.54 31H8.8c.6 1.64 2.25 4 5.22 6h28.3v.02c2.97-2 4.62-4.38 5.22-6.02Zm-5.96 6.5H14.8c.28.17.57.34.88.5H40.7l.88-.5ZM17.83 39c-.4-.16-.79-.33-1.16-.5H39.7c-.37.17-.76.34-1.16.5H17.83Zm1.38.5c2.48.8 5.46 1.32 8.98 1.32 3.53 0 6.5-.51 8.99-1.32H19.2ZM22.6 32l1.46 3h2.6l1.6-3h-2.1l-.7 1.85L24.7 32h-2.1Zm6.4 0H33.53a1 1 0 0 1 0 2H31v1h-2v-3Zm2 1.3v-.7h1.03a.35.35 0 1 1 0 .7H31Z" fill="#29166F"/></svg>