<!-- by TradingView --><svg xmlns="http://www.w3.org/2000/svg" width="56" height="56" viewBox="0 0 56 56"><path fill="url(#ahpkpdzi5)" d="M0 0h56v56H0z"/><path d="M45.37 24.49h-4.25c-2.5 0-4.8 1.1-6.38 2.94L28 35.16V44c2.13-.28 3.33-1.75 3.33-1.75l14.5-16.75c.37-.37.1-1.01-.46-1.01z" fill="#E50306"/><path d="M35.12 27.76l-6.62 7.6v8.04a5.04 5.04 0 0 0 2.4-1.42l.03-.04.01-.01 14.53-16.77v-.01l.03-.04a.1.1 0 0 0 0-.05.12.12 0 0 0-.05-.05.14.14 0 0 0-.08-.02h-4.25a7.87 7.87 0 0 0-6 2.77zm-3.8 14.5s-1 1.23-2.82 1.65c-.16.04-.33.07-.5.09v-8.84l6.74-7.73a8.37 8.37 0 0 1 6.38-2.94h4.25c.55 0 .83.64.46 1.01l-14.5 16.75z" fill="#fff"/><path d="M10.54 24.49h4.27c2.51 0 4.83 1.1 6.41 2.94L28 35.16V44a5.53 5.53 0 0 1-3.34-1.75L10.17 25.5c-.37-.37-.1-1.01.37-1.01z" fill="#E50306"/><path d="M20.84 27.76a7.93 7.93 0 0 0-6.03-2.77h-4.26c-.02 0-.03.02-.04.05a.13.13 0 0 0 0 .06l.01.05h.02l14.5 16.78.01.01a2.41 2.41 0 0 0 .18.19 4.99 4.99 0 0 0 2.27 1.27v-8.05l-6.66-7.6zm7.16 7.4V44a5.33 5.33 0 0 1-.5-.09c-1.82-.41-2.84-1.66-2.84-1.66L10.17 25.5c-.37-.37-.1-1.01.37-1.01h4.27c2.51 0 4.83 1.1 6.41 2.94L28 35.16z" fill="#fff"/><path d="M36 13.63v8.65c0 1.2-.47 2.4-1.2 3.31L28 33.42V21.27l7.07-8.1c.19-.37.93-.1.93.46z" fill="#E50306"/><path d="M35.07 13.17L28 21.27v12.15l6.8-7.83a5.37 5.37 0 0 0 1.2-3.31v-8.65c0-.55-.74-.83-.93-.46zm-.66 12.1l-5.91 6.8V21.46l6.92-7.93c.03.01.05.03.06.05a.1.1 0 0 1 .02.06v8.65c0 1.07-.42 2.15-1.1 3z" fill="#fff"/><path d="M20 13.63v8.65c0 1.2.47 2.4 1.2 3.31l6.8 7.83V21.27l-7.07-8.1c-.28-.37-.93-.1-.93.46z" fill="#E50306"/><path fill-rule="evenodd" d="M20.56 13.5l6.94 7.95v10.63l-5.9-6.8a4.87 4.87 0 0 1-1.1-3v-8.65l.02-.08a.13.13 0 0 1 .04-.04zm.65 12.1A5.37 5.37 0 0 1 20 22.27v-8.65c0-.55.65-.83.93-.46l7.07 8.1v12.15l-6.8-7.83z" fill="#fff"/><defs><linearGradient id="ahpkpdzi5" x1="46.29" y1="7.22" x2="7.94" y2="48.48" gradientUnits="userSpaceOnUse"><stop stop-color="#00B64F"/><stop offset="1" stop-color="#127072"/></linearGradient></defs></svg>