<!-- by TradingView --><svg width="56" height="56" viewBox="0 0 56 56" xmlns="http://www.w3.org/2000/svg"><path fill="#F0F3FA" d="M0 0h56v56H0z"/><path fill-rule="evenodd" d="M28 43a15 15 0 1 0 0-30 15 15 0 0 0 0 30Zm0 1a16 16 0 1 0 0-32 16 16 0 0 0 0 32Z" fill="#150D6D"/><path d="m25.39 24.44 2.6-10.78 2.52 10.77c.1.42.42.75.84.84l11.22 2.64-11.23 2.63c-.41.1-.74.42-.84.84L28 41.96l-2.6-10.59c-.1-.41-.42-.73-.84-.83l-11.23-2.63 11.23-2.64c.41-.1.74-.42.84-.83Z" fill="#150D6D"/><path d="m26.36 25.85 1.67-6.9 1.6 6.9c.07.26.28.47.55.53l7.18 1.68-7.19 1.69a.72.72 0 0 0-.53.53l-1.61 6.77-1.66-6.77a.72.72 0 0 0-.54-.53l-7.19-1.69 7.19-1.68a.72.72 0 0 0 .53-.53Z" fill="#E63524"/><path d="m27.3 27.08.71-2.96.7 2.95c.02.12.1.2.22.24l3.08.72-3.08.72a.3.3 0 0 0-.23.23l-.69 2.9-.71-2.9a.3.3 0 0 0-.23-.23l-3.08-.72 3.08-.73a.3.3 0 0 0 .23-.22Z" fill="#F8CA45"/></svg>