<!-- by TradingView --><svg width="56" height="56" viewBox="0 0 56 56" xmlns="http://www.w3.org/2000/svg"><path fill="#F0F3FA" d="M0 0h56v56H0z"/><path fill-rule="evenodd" d="M14.94 13A2.94 2.94 0 0 0 12 15.93v24.14A2.94 2.94 0 0 0 14.94 43h26.12A2.94 2.94 0 0 0 44 40.07V15.93A2.94 2.94 0 0 0 41.06 13H14.94Zm.64 2c-1.43 0-1.58.14-1.58 1.54V31h10v-9.62c-.88.56-1.62.99-2.12 1.2l-.46-1.3c1.37-.52 4.27-2.12 4.92-4.34.98-.25 2.83-.92 3.88-1.94H15.58ZM24 32v1H14v-1h10Zm0 3v-1H14v1h10Zm7 0h11v-1H31v1Zm0-2h11v-1H31v1Zm11-2H31V16.41c.66-.5 1.29-.97 1.85-1.41h7.57c1.43 0 1.58.14 1.58 1.54V31Z" fill="#014189"/></svg>