<!-- by TradingView --><svg width="56" height="56" viewBox="0 0 56 56" xmlns="http://www.w3.org/2000/svg"><path fill="#F0F3FA" d="M0 0h56v56H0z"/><path d="M44.32 35H11.85v1.17l16.1 7.38 16.37-7.38V35Z" fill="#955436"/><path fill-rule="evenodd" d="m45 20-17-8-17 8v16l17 8 17-8V20Zm-1 .5L28 13l-16 7.5v15L28 43l16-7.5v-15Z" fill="#0072BC"/><path fill-rule="evenodd" d="M28.02 29.94c-1.16-1.02-3.49-3.7-3.49-6.26 0-1.96 1.32-3.83 2.33-5.27.64-.91 1.16-1.65 1.16-2.14.2.45.58 1.09 1.03 1.83 1.03 1.7 2.38 3.91 2.38 5.58 0 3.1-2.27 5.47-3.4 6.26Zm-11.2-4.9c.84 4.04 4.17 11.38 10.8 8.43.18-2.57-1.73-7.87-10.8-8.43Zm22.68.04c-.84 4.04-4.16 11.38-10.8 8.43-.18-2.58 1.73-7.87 10.8-8.43Zm-11.84 8.54L27.61 35h1.2l-.07-1.38h.15l7.5-6.14-7.69 5.32-.55-12.36-.46 12.5-7.34-5.46 6.98 6.14h.33Z" fill="#22B24C"/></svg>