<!-- by TradingView --><svg width="56" height="56" viewBox="0 0 56 56" xmlns="http://www.w3.org/2000/svg"><path fill="#F0F3FA" d="M0 0h56v56H0z"/><path fill="#90D9FA" d="M8 17h40v7H8z"/><path fill="#363435" d="M8 32h40v7H8z"/><path fill="#EC2790" d="M8 24h40v8H8z"/><path d="m16.73 28 11.12-11 11.12 11-11.12 11-11.12-11Z" fill="#F0F3FA"/><path fill-rule="evenodd" d="M27.85 17.49 17.23 28l10.62 10.51L38.47 28 27.85 17.49ZM16.73 28l11.12 11 11.12-11-11.12-11-11.12 11Z" fill="#373536"/><path d="M28.83 25c-2.21 0-2.8 2.04-2.83 3.06 0 1.43 1.03 2.94 2.83 2.94 1.43 0 2.04-.92 2.17-1.38h-.3c-.59.62-.92.93-1.87.93-.95 0-1.4-1.77-1.4-2.6 0-.82.12-2.66 1.4-2.66 1.02 0 1.6 1.05 1.75 1.57H31V25h-.42l-.13.43c-.5-.27-1.3-.4-1.62-.43ZM22 28l2.31-2.47v-.24h-.88V25h2.5v.3h-.72l-2 2.01 2.43 3.32h.3V31h-2.5v-.37h.87l-1.75-2.22H22v2.26h.97V31h-2.7v-.33H21v-5.41h-.73V25h2.7v.26H22V28Zm10 3v-2.03h.36c.05.54.43 1.6 1.54 1.6.36.04 1.07-.08 1.07-.75 0-.61-.34-.8-.93-1.1-.24-.13-.5-.27-.8-.47-1.09-.7-1.09-1.26-1.09-1.79S32.62 25 33.9 25c.25.02.85.12 1.3.34V25h.47v1.78h-.31c-.04-.48-.4-1.44-1.46-1.44-.28 0-.85.14-.85.72 0 .57.57.9.85 1 .7.27 2.1 1.12 2.1 2.27 0 1.44-1.44 1.67-2.1 1.67-.54 0-1.16-.28-1.41-.42V31H32Z" fill="#373536"/></svg>