<!-- by TradingView --><svg width="56" height="56" viewBox="0 0 56 56" xmlns="http://www.w3.org/2000/svg"><path fill="#F0F3FA" d="M0 0h56v56H0z"/><path fill-rule="evenodd" d="M17.6 38a15.5 15.5 0 1 1 20.78 0H17.62ZM43 26.5c0 3.6-1.27 6.91-3.4 9.5H37v-6.61l-4.5-2.34v-4.27L27.95 20l-4.45 2.78v4.23L19 29.4V36h-2.6l.07.1A15 15 0 1 1 43 26.5Zm-10.5 1v8.92H32v-13.4l-4.05-2.54L24 23.01v13.4h-.5v-8.94l-4 2.16v7.87h17v-7.87l-4-2.13Zm-5.43-5.2-2.54 1.58-.22-.35 2.53-1.57.23.35Zm-2.54 7.36 2.54-1.58-.23-.35-2.53 1.58.22.35Zm-4.21.7 2.53-1.39-.2-.36-2.54 1.4.2.35Zm0 1.77 2.53-1.39-.2-.36-2.54 1.4.2.35Zm6.75-2.04-2.54 1.58-.22-.35 2.53-1.58.23.35Zm-2.54-4.2 2.54-1.58-.23-.35-2.53 1.58.22.35Zm-1.68 6.58-2.53 1.39-.2-.36 2.53-1.4.2.37Zm1.68 1.15 2.54-1.58-.23-.34-2.53 1.57.22.35Zm2.54-7.35-2.54 1.58-.22-.35 2.53-1.58.23.35Zm-6.75 9.31 2.53-1.39-.2-.36-2.54 1.4.2.35ZM27.07 34l-2.54 1.58-.22-.35 2.53-1.58.23.35Zm8.61-3.64-2.53-1.39.2-.36 2.54 1.4-.2.35Zm-6.75-2.28 2.54 1.58.22-.35-2.53-1.58-.23.35Zm2.54-4.2-2.54-1.57.23-.35 2.53 1.57-.22.35Zm1.68 6.86 2.53 1.4.2-.37-2.53-1.39-.2.36Zm-1.68.93-2.54-1.58.23-.35 2.53 1.58-.22.35Zm-2.54-7.36 2.54 1.58.22-.35-2.53-1.58-.23.35Zm6.75 9.55-2.53-1.4.2-.35 2.54 1.39-.2.36Zm-6.75-1.82 2.54 1.58.22-.35-2.53-1.57-.23.34Zm2.54-4.2-2.54-1.57.23-.35 2.53 1.58-.22.35Zm1.68 6.35 2.53 1.4.2-.37-2.53-1.39-.2.36Zm-1.68 1.39L28.93 34l.23-.35 2.53 1.58-.22.35ZM27.8 21v15h.42V21h-.42Zm9.8 20.33c3.65 0 5.8-2.08 6.41-3.11-1.02.7-3.74 2.1-6.41 2.1s-6.65-.73-8.3-1.1c1.25.71 4.65 2.11 8.3 2.11Zm-24.96.92Zm28.57-.69c-.6.29-2.2.69-5.4.69-2.33 0-5.1-.85-7.9-1.7-2.85-.86-5.71-1.73-8.15-1.73a8.98 8.98 0 0 0-6.84 3.05c.72-.77 2.45-1.73 5.5-1.73 2.34 0 5.52.93 8.57 1.83 2.8.82 5.47 1.6 7.28 1.6 2.84 0 5.67-1.26 6.94-2Zm0 0 .22-.13a8 8 0 0 1-.22.13ZM12 44c.62-1.04 2.76-3.12 6.41-3.12 3.65 0 7.05 1.4 8.3 2.1a47.01 47.01 0 0 0-8.3-1.08c-2.67 0-5.39 1.4-6.41 2.1Z" fill="#E0A527"/></svg>