<!-- by TradingView --><svg width="56" height="56" viewBox="0 0 56 56" xmlns="http://www.w3.org/2000/svg"><path fill="#F0F3FA" d="M0 0h56v56H0z"/><path fill-rule="evenodd" d="m28.5 13-13.63 1.75-1.89 11.1c-.84-.04-1.58-.02-1.98 0v1.74c.14-.11.68-.34 1.75-.34.68 0 1.22.15 1.76.3.52.14 1.02.28 1.64.28.63 0 1.08-.15 1.53-.3a4.3 4.3 0 0 1 1.45-.28c.62 0 1.07.16 1.5.3.4.15.79.28 1.28.28.83 0 1.74-.16 2.09-.24v-1.73c-.32.14-1.2.42-2.09.42-.47 0-.64-.08-.84-.16-.27-.12-.59-.26-1.77-.26-.89 0-1.4.12-1.84.23a4 4 0 0 1-1.33.16 12 12 0 1 1 .1 4.13 4.58 4.58 0 0 0 1.45-.29 4.3 4.3 0 0 1 1.45-.28c.62 0 1.07.15 1.5.3.4.14.79.27 1.28.27.83 0 1.74-.15 2.09-.23V28.4c-.32.14-1.2.42-2.09.42-.47 0-.64-.07-.84-.16-.27-.12-.59-.26-1.77-.26-.89 0-1.4.13-1.84.24-.6.15-1.1.27-2.23.03A17.46 17.46 0 0 0 11 28.4v1.74c.14-.12.68-.34 1.75-.34h.11L14.87 43h27.2L44 28.08l-1.93-13.33L28.5 13Zm-1.24 17L27 26h.92v2.63L28.7 26h1.01l-1.33 4h-1.12Zm3.65 0h.33c.59 0 1.08-.37 1.14-.85l.26-2.11c.07-.56-.46-1.04-1.14-1.04h-.37c-.6 0-1.1.38-1.14.86l-.22 2.12c-.06.55.47 1.02 1.14 1.02Zm.52-.91.26-2.11c.02-.17-.13-.31-.33-.32-.2-.01-.36.1-.38.26l-.24 2.11c-.02.16.12.3.32.31.19.01.35-.1.37-.25Zm3.56-1.82h.83l.07-.2c.17-.41-.1-.86-.6-1.02a1.2 1.2 0 0 0-.35-.05h-.64c-.58 0-1.07.36-1.13.84l-.03.2c-.04.2.04.65.63 1 .75.41.96.6.96.9v.05c0 .18-.18.33-.4.33-.22 0-.4-.15-.4-.33v-.33h-.99v.63c0 .09.02.18.08.26.15.2.53.45 1.26.45 1.12 0 1.45-.74 1.45-1.2 0-.45-.39-.82-.74-1.05l-.15-.09c-.33-.2-.69-.41-.69-.67 0-.29.2-.36.45-.36s.39.16.39.64ZM36.94 30H36l1.3-4h1.33l.37 4h-.88l-.07-1h-.82l-.29 1Zm.43-1.5H38l-.12-1.83-.52 1.83Z" fill="#006DB2"/></svg>