<!-- by TradingView --><svg width="56" height="56" fill="none" xmlns="http://www.w3.org/2000/svg"><path fill="#F0F3FA" d="M0 0h56v56H0z"/><path fill-rule="evenodd" clip-rule="evenodd" d="M28.016 22H24v-1h2.267a2 2 0 1 1 3.465 0H32v1h-3.984ZM28 21a1 1 0 1 0 0-2 1 1 0 0 0 0 2Zm-5.465 1H4l3.132 3H17v2H9.22l2.087 2h5.636v2h-3.548l2.088 2h6.044c-2.844-4.629-.513-9.262 1.008-11Zm11.14 0H52l-3.074 3H39v2h7.876l-2.05 2H39v2h3.777l-2.05 2h-6.044c2.844-4.629.513-9.262-1.008-11Zm-13.22 15.285L20 34l3.382 1.362-1.313.24c.934 1.175 3.18 3.034 4.694 1.069.227.204.818.614 1.363.614s.95-.41 1.085-.614c1.454 1.922 3.97.089 5.048-1.069l-1.287-.24L36 34l-.151 3.285-.58-.775c-.413.73-1.53 2.319-2.701 2.831-1.171.513-3.45 2.653-4.442 3.659-.765-.864-2.69-2.756-4.265-3.418-1.575-.663-2.473-2.324-2.725-3.072l-.682.775Z" fill="#3751A3"/><path fill-rule="evenodd" clip-rule="evenodd" d="M28.683 23h-1.366v1.046a4.97 4.97 0 0 0-1.203.322l-.522-.906-1.184.683.524.907a5.03 5.03 0 0 0-.88.88l-.907-.523-.683 1.183.906.523c-.155.38-.264.782-.322 1.202H22v1.366h1.046c.058.42.167.823.322 1.203l-.905.523.682 1.183.907-.524c.256.329.551.625.88.88l-.523.907 1.183.683.523-.906c.38.155.782.264 1.202.322V35h1.366v-1.046c.42-.058.823-.167 1.203-.322l.522.905 1.183-.683-.523-.906a5.03 5.03 0 0 0 .88-.88l.906.524.683-1.183-.905-.523a4.97 4.97 0 0 0 .322-1.203H34v-1.366h-1.046a4.965 4.965 0 0 0-.322-1.203l.906-.522-.683-1.183-.906.523a5.029 5.029 0 0 0-.88-.88l.522-.905-1.183-.684-.522.905a4.965 4.965 0 0 0-1.203-.322V23ZM28 32.999a4 4 0 1 0 0-8 4 4 0 0 0 0 8Z" fill="#221F1F"/><path d="M28 25.795 28.7 28h2.264l-1.832 1.378.7 2.215L28 30.224l-1.831 1.369.7-2.215L25.036 28H27.3l.7-2.205Z" fill="#ED2227"/></svg>