<!-- by TradingView --><svg width="56" height="56" viewBox="0 0 56 56" xmlns="http://www.w3.org/2000/svg"><path fill="#F0F3FA" d="M0 0h56v56H0z"/><ellipse cx="28" cy="28" rx="19" ry="16" fill="#0193DF"/><path d="M28.15 13 16.56 39h2.66l7.19-11h-1.14l-3.8 4.65L28.14 13Zm-1.22 15-.55 5.97h5.11l-.76-1.46H28v-1.94h1.96l-.33-.9H28v-.98h1.46L29.3 28h-2.37Zm5.96 6-2.06-5.98h3.97l.65 1.65H34.2l-.22-.67h-1.72l1.54 3.5h1.46l-.15-.5h1.23l.93 2H32.9Z" fill="#D9251C"/><path fill-rule="evenodd" d="m24.3 27 4.75-14 5.8 14H29.5v-4H29v4h-4.7ZM29 17h.5v3H29v-3Zm-5.52 18L21 39h8v-4h-5.52Zm13.83 0L39 39h-9.5v-4h7.8Z" fill="#fff"/></svg>