<!-- by TradingView --><svg width="56" height="56" viewBox="0 0 56 56" xmlns="http://www.w3.org/2000/svg"><path fill="#F0F3FA" d="M0 0h56v56H0z"/><path fill-rule="evenodd" d="M28 45.5a17.5 17.5 0 1 0 0-35 17.5 17.5 0 0 0 0 35Zm0 .5a18 18 0 1 0 0-36 18 18 0 0 0 0 36Z" fill="#361D66"/><path d="M40 28a12 12 0 1 1-24 0 12 12 0 0 1 24 0Z" fill="#099F3C"/><path d="m17.39 17.1-.33-.38 1.4-1.21.32.37-.52.45 1.55 1.76-.36.31-1.54-1.76-.52.46ZM14.34 34.9l-.45.2-.76-1.69.46-.2.28.63 2.14-.95.19.42-2.14.96.28.63ZM32.6 13.47l.17-.46 1.73.64-.17.47-.65-.24-.81 2.2-.44-.17.81-2.2-.64-.24ZM18.57 15.44l.44-.3 1.13.75.02-.01-.28-1.33.45-.3.37 2.03.57.85-.39.26-.57-.85-1.74-1.1ZM22.32 16.54l-1.16-2.67.44-.2.96 2.21.88-.38.2.46-1.32.58ZM24.18 12.71l.46-.13.52 1.84c.06.2.07.4.04.58a.9.9 0 0 1-.21.45.89.89 0 0 1-.44.26.9.9 0 0 1-.5 0 .9.9 0 0 1-.42-.27c-.12-.13-.2-.3-.27-.5l-.52-1.85.46-.13.5 1.8c.04.1.08.19.14.26.06.08.13.13.21.16a.4.4 0 0 0 .26 0 .4.4 0 0 0 .2-.13.48.48 0 0 0 .1-.25c.02-.09 0-.2-.02-.3l-.51-1.79ZM38.19 16.03l.36.3-1.25 1.46c-.14.16-.29.28-.45.35a.9.9 0 0 1-.5.08.9.9 0 0 1-.45-.22.9.9 0 0 1-.29-.42.9.9 0 0 1 0-.5c.04-.17.14-.34.28-.5l1.24-1.45.36.3-1.2 1.42a.75.75 0 0 0-.16.26.49.49 0 0 0-.01.26.4.4 0 0 0 .13.21c.07.06.15.1.23.1.09.01.17 0 .26-.05.09-.04.16-.1.24-.19l1.2-1.41ZM27.3 13.77c.03.3 0 .58-.07.8-.07.24-.18.41-.33.54a.89.89 0 0 1-.52.22.89.89 0 0 1-.55-.13c-.17-.1-.3-.26-.42-.47a2.08 2.08 0 0 1-.2-.79c-.03-.31 0-.58.07-.8.07-.24.18-.41.33-.54.15-.13.32-.2.52-.22.2-.02.38.02.55.13.17.1.3.26.42.47.11.21.18.47.2.79Zm-.48.04c-.01-.2-.05-.38-.11-.51a.7.7 0 0 0-.23-.3.45.45 0 0 0-.3-.08.45.45 0 0 0-.3.13.7.7 0 0 0-.17.33c-.03.15-.04.32-.02.52.01.2.05.38.1.51a.7.7 0 0 0 .24.3c.09.07.19.1.3.08a.45.45 0 0 0 .3-.13.7.7 0 0 0 .17-.33c.03-.15.04-.32.02-.52ZM29.85 42.37c.02.3 0 .58-.07.8-.07.23-.18.41-.32.54-.14.13-.3.2-.5.22a.83.83 0 0 1-.53-.13c-.16-.1-.3-.26-.4-.48-.1-.2-.17-.47-.2-.78-.02-.32 0-.59.07-.82.07-.22.17-.4.31-.53.15-.13.31-.2.5-.22.2-.01.37.03.53.14.16.1.3.25.4.47.11.2.18.47.2.79Zm-.47.03c-.01-.2-.05-.37-.1-.5a.7.7 0 0 0-.22-.3.42.42 0 0 0-.3-.09c-.11.01-.2.06-.28.13a.7.7 0 0 0-.16.34 1.7 1.7 0 0 0-.03.52c.02.2.06.37.11.5a.7.7 0 0 0 .22.3c.09.07.19.1.3.09.1 0 .2-.05.28-.13a.7.7 0 0 0 .16-.34c.03-.14.04-.31.02-.52ZM31.98 41.88c.07.3.09.57.05.8-.04.24-.12.44-.24.59a.86.86 0 0 1-.48.28.86.86 0 0 1-.55-.05 1.16 1.16 0 0 1-.47-.4c-.14-.2-.25-.45-.32-.76-.07-.3-.08-.57-.05-.8.04-.24.12-.44.25-.58a.86.86 0 0 1 .47-.3.85.85 0 0 1 .55.06c.18.08.34.21.48.4.14.2.24.45.31.76Zm-.46.1c-.04-.2-.1-.36-.18-.48a.7.7 0 0 0-.26-.27.44.44 0 0 0-.32-.04.44.44 0 0 0-.26.17.7.7 0 0 0-.12.36c0 .15 0 .32.05.52s.11.36.19.48a.7.7 0 0 0 .26.27c.1.05.2.06.31.04.11-.03.2-.08.26-.17a.7.7 0 0 0 .12-.36c.02-.15 0-.32-.05-.52ZM15.1 21.87c.3.12.53.27.7.44.16.17.27.35.31.54a.89.89 0 0 1-.42.99c-.16.1-.37.15-.6.15-.24 0-.5-.06-.8-.18a2.08 2.08 0 0 1-.68-.44 1.15 1.15 0 0 1-.32-.54.89.89 0 0 1 .04-.56c.08-.19.2-.33.37-.43.17-.1.37-.15.61-.15s.5.06.8.18Zm-.18.44a1.62 1.62 0 0 0-.5-.13.7.7 0 0 0-.37.06.45.45 0 0 0-.22.23.45.45 0 0 0-.02.32c.04.11.11.21.22.31s.26.19.45.27c.19.08.35.12.5.13a.7.7 0 0 0 .37-.06c.1-.05.17-.13.22-.24.04-.1.05-.2.02-.32a.7.7 0 0 0-.22-.3c-.11-.1-.26-.19-.45-.27ZM14 30.78c.3-.07.57-.08.8-.04.25.04.44.12.59.25.14.13.24.3.29.49.04.2.02.38-.05.56-.08.18-.22.34-.41.48-.2.14-.45.24-.75.31-.31.08-.58.09-.82.05a1.15 1.15 0 0 1-.57-.26.89.89 0 0 1-.3-.48.89.89 0 0 1 .06-.56c.07-.18.2-.35.4-.48.2-.14.45-.25.76-.32Zm.1.47c-.2.05-.36.1-.48.19a.7.7 0 0 0-.27.26c-.05.1-.06.2-.04.32.03.11.09.2.18.27.08.06.2.1.35.12.15.02.32 0 .52-.05.2-.04.36-.1.49-.18a.7.7 0 0 0 .26-.27c.05-.1.07-.2.04-.31a.45.45 0 0 0-.17-.27.7.7 0 0 0-.36-.12c-.15-.02-.32 0-.52.04ZM29.5 12.29v2.84h-.4l-.98-1.79h-.02v1.79h-.47v-2.84h.41l.98 1.78h.02V12.3h.47ZM12.38 28.83l2.82-.26.04.41-1.69 1.14v.02l1.78-.16.04.47-2.82.26-.04-.42 1.7-1.13-.01-.02-1.78.16-.04-.47ZM14.93 19.35l2.47 1.4-.2.36-2.04-.03v.02l1.55.87-.24.42-2.47-1.4.2-.36 2.04.03v-.02l-1.55-.87.24-.42ZM43.77 26.39l-2.8.48-.06-.41 1.6-1.27-.01-.01-1.76.3-.08-.47 2.8-.48.07.41-1.6 1.26v.02l1.76-.3.08.47ZM24.06 40.3l-.96 2.66-.39-.14-.31-2.01-.02-.01-.6 1.68-.45-.16.96-2.67.4.14.3 2.01h.02l.6-1.67.45.16ZM43.77 29.27l-2.83.03v-.41l1.77-1v-.02l-1.79.02v-.48l2.83-.02v.41l-1.77 1v.01l1.79-.01v.47ZM31.42 13.54a.75.75 0 0 0-.04-.2.49.49 0 0 0-.08-.15.4.4 0 0 0-.12-.1.45.45 0 0 0-.17-.06.45.45 0 0 0-.31.07.73.73 0 0 0-.25.3c-.07.12-.12.3-.15.5s-.03.38 0 .53c.02.15.07.27.15.35a.5.5 0 0 0 .57.12c.08-.03.15-.1.2-.18a.8.8 0 0 0 .11-.32l.1.04-.58-.09.07-.46.93.14-.05.36c-.04.26-.11.48-.23.65-.1.17-.24.3-.4.37a.87.87 0 0 1-.52.08.89.89 0 0 1-.52-.27 1.2 1.2 0 0 1-.3-.57 2.22 2.22 0 0 1 0-.82c.03-.24.09-.44.17-.62.08-.18.17-.33.29-.44a1 1 0 0 1 .37-.25.86.86 0 0 1 .43-.04.9.9 0 0 1 .6.37 1.32 1.32 0 0 1 .2.76l-.47-.07ZM16.82 18.35a.76.76 0 0 0-.19-.07.5.5 0 0 0-.17 0 .4.4 0 0 0-.16.05.45.45 0 0 0-.12.11c-.08.1-.11.2-.1.3 0 .12.04.24.12.37.08.13.2.26.36.38.16.13.32.22.46.28.14.05.27.07.38.05.12-.02.2-.08.28-.17a.5.5 0 0 0 .12-.27c0-.09-.01-.18-.06-.27a.8.8 0 0 0-.22-.25l.08-.06-.36.45-.37-.3.59-.73.29.23c.2.16.35.34.44.52.1.18.13.36.12.54a.87.87 0 0 1-.2.48.89.89 0 0 1-.49.32c-.2.05-.4.04-.64-.03-.23-.08-.47-.21-.71-.4-.19-.16-.34-.31-.45-.47-.12-.16-.2-.32-.24-.47a1 1 0 0 1-.02-.45.86.86 0 0 1 .18-.39.9.9 0 0 1 .62-.33c.12-.01.25 0 .38.03.13.04.25.1.38.17l-.3.38ZM13.24 26.83a.76.76 0 0 0-.2.06.49.49 0 0 0-.13.1.4.4 0 0 0-.1.13.45.45 0 0 0-.04.16c0 .12.03.22.1.31.08.1.18.16.32.22.14.05.32.08.52.1.2 0 .38-.01.53-.06.15-.04.26-.1.34-.18a.46.46 0 0 0 .12-.3.5.5 0 0 0-.06-.29.48.48 0 0 0-.2-.18.8.8 0 0 0-.33-.08l.02-.1-.02.59-.47-.02.04-.94.37.01c.26.01.48.06.66.16.18.09.32.2.42.36.1.15.13.32.13.5-.01.22-.08.4-.21.56-.13.15-.31.27-.54.35-.23.08-.5.1-.81.1a2.37 2.37 0 0 1-.64-.11 1.49 1.49 0 0 1-.47-.25 1 1 0 0 1-.28-.34.86.86 0 0 1-.09-.42c0-.13.04-.25.1-.35a.9.9 0 0 1 .2-.29c.1-.08.2-.14.33-.2.13-.04.26-.07.4-.08l-.01.48ZM33.5 16.3l1.48-2.4.4.26-.61.98.82.51.61-.99.4.25-1.48 2.4-.4-.25.61-1-.82-.5-.61.99-.4-.25ZM39.39 18.64l-.3-.33c.06-.06.1-.12.13-.18a.54.54 0 0 0 .06-.18.39.39 0 0 0-.1-.32.4.4 0 0 0-.27-.14.72.72 0 0 0-.37.08c-.13.06-.27.15-.42.29-.16.13-.27.27-.35.4a.7.7 0 0 0-.11.34.4.4 0 0 0 .4.42c.05 0 .11 0 .17-.03a.76.76 0 0 0 .2-.1l.29.34c-.1.08-.22.15-.35.2-.12.04-.24.07-.37.08a.87.87 0 0 1-.35-.06.76.76 0 0 1-.3-.21.78.78 0 0 1-.2-.5c-.01-.18.04-.38.15-.59.11-.2.28-.42.52-.63.24-.2.47-.35.69-.44.22-.08.43-.1.61-.07a.8.8 0 0 1 .66.9c-.02.11-.06.24-.12.36a1.6 1.6 0 0 1-.27.37ZM13.8 23.9l-.11.43a.83.83 0 0 0-.23 0 .56.56 0 0 0-.18.05.41.41 0 0 0-.14.1.4.4 0 0 0-.03.45c.06.1.15.2.28.27.13.08.3.14.5.19.2.05.38.07.54.07.15-.01.27-.05.36-.1a.4.4 0 0 0 .17-.25.4.4 0 0 0-.05-.32.55.55 0 0 0-.13-.14.8.8 0 0 0-.2-.1l.11-.43c.13.04.26.1.37.18.11.07.2.16.29.26.07.1.13.2.16.32s.03.24 0 .37a.76.76 0 0 1-.3.44 1.2 1.2 0 0 1-.6.21c-.23.03-.51 0-.83-.08a2.39 2.39 0 0 1-.78-.32 1.2 1.2 0 0 1-.42-.46.78.78 0 0 1 .37-1.05c.1-.06.23-.1.38-.11.14-.02.3-.01.47.01ZM40.77 18.73l.3.5-1.32 1.5.01.02 1.95-.42.3.5-2.44 1.43-.23-.4 1.58-.92v-.02l-1.87.42-.16-.28 1.28-1.42v-.02l-1.6.93-.23-.4 2.43-1.42ZM43.24 32.53l-.23.55-1.98-.17-.01.03 1.5 1.3-.22.54-2.6-1.09.18-.42 1.69.7v-.01l-1.45-1.24.12-.3 1.91.18.01-.02-1.7-.71.18-.43 2.6 1.1ZM42.51 21.8l-2.55 1.13-.2-.43 2.56-1.13.19.44ZM22.09 39.5l-1.36 2.44-.41-.24 1.35-2.43.42.23ZM40 23.32l2.71-.93.52 1.5-.48.16-.35-1.03-.65.22.33.95-.47.16-.33-.95-.65.23.35 1.03-.47.16-.51-1.5Z" fill="#361D66"/><path d="m40.9 29.76.08-.5 2.64 1.2-.1.6-2.88.3.08-.5 2.22-.2v-.01l-2.04-.9Zm1.1.14-.2 1.17-.45-.08.19-1.16.45.07ZM24.05 43.26l-.5-.1 1.36-2.57.59.13.13 2.9-.49-.12-.07-2.22h-.02l-1 1.98Zm.2-1.08 1.16.26-.1.45-1.16-.26.1-.45ZM19.9 38.32l-.58 2.13.02.01 1.53-1.6.46.26-2.07 2.08-.53-.3.71-2.84.46.26ZM26.24 43.77l.12-2.8 1.5.07-.03.49-1.01-.05-.03.67.91.04-.02.49-.92-.05-.05 1.16-.47-.02ZM33.61 42.85l-.74.28-1.02-2.7.75-.28a.99.99 0 0 1 1.13.28c.16.17.3.4.4.68.1.28.16.54.15.77a1 1 0 0 1-.67.97Zm-.48-.37.28-.11a.63.63 0 0 0 .3-.22c.07-.1.1-.21.1-.35 0-.15-.05-.32-.12-.52-.08-.2-.16-.36-.26-.47a.58.58 0 0 0-.3-.2.63.63 0 0 0-.37.04l-.28.1.65 1.73ZM39.63 35.56l-.12 1.32 1.23.53-1.3.3-.12 1.32-.68-1.14-1.3.3.88-1-.69-1.15 1.23.52.87-1ZM16.37 35.4l.12 1.33-1.23.53 1.3.3.12 1.32.68-1.14 1.3.3-.88-1.01.69-1.14-1.23.52-.87-1ZM11.94 32.25l.46-.57.23.3-.32.4.32.08.15.42-.73-.17-.11-.46ZM12.63 21.82l.69-.25.04.37-.49.18.24.24-.1.43-.53-.52.15-.45ZM44.1 23.09l-.5.54-.2-.31.34-.4-.32-.08-.12-.43.72.2.08.48ZM35.73 17.97l.39.33-.27.3-.38-.33.26-.3ZM24.86 11.97l.02.08a.8.8 0 0 1 .02.2 1.61 1.61 0 0 1-.02.34l-.28.12a16.64 16.64 0 0 0-.02-.31 1.04 1.04 0 0 0-.05-.2l-.03-.07.36-.16ZM26.98 11.77l.02.08a.8.8 0 0 1 .02.2 1.61 1.61 0 0 1-.02.33l-.28.12a16.4 16.4 0 0 0-.02-.3 1.04 1.04 0 0 0-.05-.2l-.03-.08.36-.15ZM39.25 15.95l-.04.07a.79.79 0 0 1-.13.16 1.61 1.61 0 0 1-.25.22l-.28-.11a12.72 12.72 0 0 0 .2-.24l.1-.17.04-.07.36.14Z" fill="#361D66"/><path fill-rule="evenodd" d="m34.05 39.56 2.02-1.37.24.3-.24.2 1.2 1.74.27-.16.18.3L35.63 42l-.22-.3.3-.22-1.22-1.78-.25.14-.19-.27Zm.84-.13.68-.44 1.23 1.72-.73.5-1.18-1.78Z" fill="#361D66"/><path d="M24.77 36.58 24.49 39h3.44v-4.04c-.08-1.04-.6-1.63-.87-1.8-.9-.53-2.88-1.58-3.67-1.58-.8 0-.43.41-.14.62a5.4 5.4 0 0 1 2.16 1.74 43.72 43.72 0 0 0-2.43-1.39c-.64-.32-.94-1.39-1-1.88-.15-.6-.53-1.87-.94-2.24-.4-.37-.54-.03-.56.19.11.62.35 2.2.43 3.58.08 1.37.9 2.3 1.29 2.6l2.57 1.78ZM31.3 36.58 31.6 39h-3.45v-4.04c.08-1.04.61-1.63.87-1.8.9-.53 2.89-1.58 3.68-1.58s.42.41.14.62a5.4 5.4 0 0 0-2.16 1.74c.54-.33 1.78-1.07 2.42-1.39.65-.32.95-1.39 1.01-1.88.14-.6.53-1.87.93-2.24.4-.37.54-.03.56.19a36 36 0 0 0-.43 3.58 3.67 3.67 0 0 1-1.28 2.6l-2.57 1.78Z" fill="#F0F3FA"/><path d="M23.61 31.13v.6h.26v-.6a2.3 2.3 0 0 0 1.86-2.23c-1.05.2-1.62 1.13-1.86 1.82v-1.26a2.3 2.3 0 0 0 1.9-2.24c-1.1.22-1.68 1.23-1.9 1.92v-1.28a2.3 2.3 0 0 0 1.86-2.23c-1.05.2-1.62 1.13-1.86 1.82v-1.2a2.32 2.32 0 0 0 1.88-2.27c-1.1.23-1.67 1.29-1.88 1.98v-1.32a2.03 2.03 0 0 0 1.64-1.97c-.96.2-1.46 1.11-1.64 1.72v-2.37c.23-.34.42-1 0-1.88v-1.16h-.26v1.1c-.28.47-.53 1.3 0 1.95v2.3c-.2-.61-.69-1.47-1.62-1.66 0 .55.33 1.7 1.62 1.97v1.25c-.22-.7-.79-1.69-1.86-1.91 0 .63.39 1.95 1.86 2.26v1.15c-.25-.68-.82-1.56-1.84-1.76 0 .62.38 1.9 1.84 2.23v1.22c-.23-.7-.8-1.65-1.87-1.86 0 .62.38 1.93 1.87 2.24v1.2c-.25-.68-.82-1.56-1.84-1.76 0 .62.38 1.91 1.84 2.23Zm-.02-7.78c0-.55-.27-1.77-1.3-2.18-.1.54.03 1.73 1.3 2.18Zm.32 0c0-.55.27-1.77 1.31-2.18.1.54-.03 1.73-1.3 2.18ZM32.26 31.01v.6h.26v-.6a2.3 2.3 0 0 0 1.86-2.23c-1.05.2-1.62 1.14-1.86 1.82v-1.26a2.3 2.3 0 0 0 1.9-2.24c-1.1.22-1.68 1.23-1.9 1.92v-1.28a2.3 2.3 0 0 0 1.86-2.23c-1.05.2-1.62 1.13-1.86 1.82v-1.2a2.32 2.32 0 0 0 1.88-2.27c-1.1.23-1.67 1.29-1.88 1.99v-1.33a2.03 2.03 0 0 0 1.64-1.97c-.96.2-1.46 1.12-1.64 1.73V21.9c.23-.34.42-1 0-1.88v-1.16h-.26v1.1c-.28.47-.53 1.3 0 1.96v2.29c-.2-.61-.69-1.47-1.62-1.66 0 .55.33 1.7 1.62 1.97v1.26c-.22-.7-.79-1.7-1.86-1.92 0 .63.38 1.95 1.86 2.26v1.15c-.25-.68-.82-1.56-1.84-1.76 0 .62.38 1.91 1.84 2.23v1.22c-.23-.7-.8-1.65-1.87-1.86 0 .63.38 1.93 1.87 2.24v1.2c-.25-.68-.82-1.56-1.84-1.76 0 .62.38 1.91 1.84 2.23Zm-.02-7.78c0-.55-.27-1.77-1.31-2.18-.1.54.04 1.73 1.31 2.18Zm.32 0c0-.55.27-1.77 1.31-2.18.1.54-.03 1.73-1.3 2.18ZM27.94 33.08v.6h.25v-.65a2.3 2.3 0 0 0 1.79-2.22c-.95.19-1.5.97-1.79 1.62v-1.08a2.3 2.3 0 0 0 1.82-2.23c-.99.2-1.55 1.04-1.82 1.72v-1.21A2.3 2.3 0 0 0 30 27.4c-.96.2-1.52.98-1.8 1.64v-1.09c1.42-.36 1.79-1.68 1.8-2.32-.96.2-1.52 1.03-1.8 1.71v-1.2a2.27 2.27 0 0 0 1.8-2.2c-1.01.2-1.56 1.1-1.8 1.78v-1.07c1.66-.55 1.82-1.86 1.7-2.46a2.59 2.59 0 0 0-1.7 1.77v-1.08c1.49-.48 1.64-1.6 1.53-2.1-.9.27-1.34.92-1.52 1.48v-.75c1.35-.64 1.35-1.72 1.17-2.19-.68.32-1.02.83-1.18 1.3v-.45c.24-.37.43-1.09 0-2.06v-.8h-.25v.73c-.28.53-.54 1.43 0 2.15v.67a2.17 2.17 0 0 0-1.23-1.5c-.18.47-.19 1.58 1.23 2.22v.9a2.28 2.28 0 0 0-1.58-1.67c-.11.52.04 1.66 1.58 2.12v1.28a2.62 2.62 0 0 0-1.75-1.98c-.13.6.04 1.94 1.75 2.48v1.22c-.2-.68-.76-1.73-1.85-1.96 0 .62.38 1.92 1.85 2.21v1.35c-.26-.72-.83-1.64-1.85-1.87 0 .65.39 2 1.85 2.34v1.22c-.25-.68-.82-1.57-1.85-1.78 0 .63.38 1.92 1.85 2.24v1.34c-.24-.69-.8-1.64-1.88-1.86 0 .63.38 1.94 1.88 2.24v1.21c-.26-.68-.82-1.56-1.84-1.76 0 .62.37 1.91 1.84 2.23Z" fill="#FEEF13"/></svg>