<!-- by TradingView --><svg width="56" height="56" viewBox="0 0 56 56" xmlns="http://www.w3.org/2000/svg"><path fill="#105BAC" d="M0 0h56v56H0z"/><path fill-rule="evenodd" d="M51 28c0 6.63-9.75 12-23 12S5 34.63 5 28s9.75-12 23-12 23 5.37 23 12Zm-1 0c0 6.08-9.3 11-22 11S6 34.08 6 28s9.3-11 22-11 22 4.92 22 11Zm-39.22-5H12v8.43l5.2-7.7.67 8L22.7 23h1.12L18.5 33H16v-4.83L12.95 33h-2.93l.76-10Zm1.63 0v7.52L17.25 23H15.9l-2.27 3.6V23h-1.21Zm5.66 7.9-.45-7.9H19v3.75L20.9 23h1.35l-4.18 7.9Zm5.24-2.9h-1.1l3.16-5h.95l.83 5H26.1l-.16-1H23.9l-.59 1Zm2.18-3.7.28 1.7h-1.28l1-1.7Zm2.16 2.07h.92c.02.3.22.88.84.88.77 0 1.23-.51 1.23-.88 0-.3-.62-.48-.94-.54-.47-.1-1.4-.52-1.4-1.32 0-1 1.2-1.51 2.15-1.51s1.55.35 1.55 1.4h-1.06c.04-.22-.06-.68-.8-.68-.92 0-1.07.77-.53.96l.24.08c.65.2 1.8.56 1.8 1.4 0 .96-.9 1.84-2.3 1.84-1.41 0-1.7-.94-1.7-1.63ZM32.11 28l1.23-5h3.54l-.26 1h-2.55l-.24 1h2.32l-.21 1h-2.36l-.24 1h2.62l-.23 1h-3.62Zm13.04-5c-2.46 0-3.12 2.2-3.15 3.35 0 .8.6 1.65 2.09 1.65 1.5 0 2.91-1.58 2.91-3.26 0-1.34-1.23-1.72-1.85-1.74Zm-.26 1c-1.48 0-1.87 1.32-1.89 2 0 .5.36 1 1.25 1 .9 0 1.75-.95 1.75-1.96 0-.8-.74-1.03-1.11-1.04Zm-4.98-1c-2.27 0-2.88 2.2-2.91 3.35 0 .8.55 1.65 1.93 1.65.87 0 1.7-.62 2.21-1.5h-.98c-.28.3-.64.5-1 .5-.8 0-1.13-.51-1.13-1 .02-.69.37-2.01 1.7-2.01.32 0 .97.23 1 1h.88l.01-.25c0-1.34-1.14-1.72-1.71-1.74Zm-15.99 7.4 1.52-1.1c.57-.23 2.16-.41 3.99.61 2.28 1.28 3.48 1.33 6.22.25l.96-.38c1.8-.72 1.88-.75 2.74-.75.73 0 1.23.26 2.05.7l1.06.54c1.56.75 2.3 1.03 2.72.75-.15.33-.76 1.01-1.97 1.01a6.6 6.6 0 0 1-2.27-.67c-.95-.39-2.02-.83-3.2-.96.4.1.8.32 1.33.6l1.06.54c1.56.75 2.3 1.03 2.72.75-.15.33-.76 1.01-1.97 1.01a6.7 6.7 0 0 1-2.32-.7c-1.16-.5-2.5-1.06-3.97-1.06-1.21 0-1.95.34-2.73.71-.9.42-1.86.87-3.66.87a5.4 5.4 0 0 1-3.13-.96c-.93-.57-1.74-1.06-3.53-.44l1.57-1.15c.18-.07.46-.14.81-.17Zm.09 0c.77-.04 1.88.1 3.08.78 2.14 1.2 3.33 1.32 5.72.44a12 12 0 0 1-2.28.23c-1.54.03-2.38-.49-3.15-.96-.9-.55-1.7-1.03-3.37-.49Zm-2.81 1.86-1.57 1.16c1.79-.62 2.6-.13 3.53.43.76.46 1.6.97 3.13.97 1.8 0 2.76-.45 3.66-.87a5.77 5.77 0 0 1 2.73-.71c1.47 0 2.8.56 3.97 1.05.88.38 1.66.71 2.32.71 1.21 0 1.82-.68 1.97-1.01-.41.28-1.16 0-2.72-.75l-1.06-.54c-.82-.44-1.32-.7-2.05-.7-.87 0-.95.03-2.74.75l-.96.37c-2.74 1.09-3.94 1.04-6.23-.24-1.82-1.02-3.41-.84-3.98-.62Z" fill="#fff"/></svg>