<!-- by TradingView --><svg width="56" height="56" viewBox="0 0 56 56" xmlns="http://www.w3.org/2000/svg"><path fill="#F0F3FA" d="M0 0h56v56H0z"/><path d="M22.07 17h-7.35c1.76-2 6.9-6 13.45-6 6.54 0 11.47 4 13.11 6h-7.32c-.79-.6-3.05-1.83-5.8-1.83-2.74 0-5.2 1.22-6.09 1.83Z" fill="#EB1B20"/><path d="M14.16 18h5.66l8.2 14.36L35.95 18h5.89A18.3 18.3 0 0 1 45 28.21c0 4.9-2.36 8.54-3.54 9.79h-5.9c2.2-2.41 5.99-8.58 3.5-14.36C36.09 28.92 30.15 39 30.15 39h-4.1l-9.1-15.36C16.2 26.77 15.9 33.95 20.61 38h-5.9C13.49 36.43 11 32.34 11 28.21c0-4.12 1.63-8.8 3.16-10.21Zm18.5 26.45c.3-.12.75-.27 1.3-.4 1.08-.43 2.05-.96 2.9-1.53a15.3 15.3 0 0 0-4.59.9c-.4.15-1.77.48-3.76.48-2 0-3.4-.34-3.8-.48l-.01-.01a18.7 18.7 0 0 0-4.65-.7H20c.9.53 1.9 1.02 3 1.42.48.09.94.2 1.36.33.54.2 2.05.54 4.14.54 2.1 0 3.6-.35 4.14-.55h.01Zm0-1.78c.83-.34 2.77-.85 5.16-.85.44-.36.85-.71 1.2-1.06-3.06-.22-5.66.44-6.75.88-.4.15-1.77.48-3.76.48-2 0-3.4-.34-3.8-.48l-.01-.01a18.7 18.7 0 0 0-4.65-.7c-.93-.05-1.81-.05-2.56-.02.43.36.9.73 1.42 1.09l1.09.03c1.53.07 3.14.25 4.37.65.54.2 2.05.54 4.14.54 2.1 0 3.6-.35 4.14-.55h.01Zm0-1.78a15.62 15.62 0 0 1 6.96-.75c.32-.36.59-.7.8-1-3.64-.58-6.9.21-8.15.72-.4.15-1.77.48-3.76.48-2 0-3.4-.34-3.8-.48l-.01-.01a18.7 18.7 0 0 0-4.65-.7 33.2 33.2 0 0 0-3.92.05l.03.45.6.61c.85-.04 2-.07 3.24-.01 1.53.07 3.14.25 4.37.65.54.2 2.05.54 4.14.54 2.1 0 3.6-.35 4.14-.55h.01Z" fill="#11449A"/></svg>