<!-- by TradingView --><svg width="56" height="56" viewBox="0 0 56 56" xmlns="http://www.w3.org/2000/svg"><path fill="#F0F3FA" d="M0 0h56v56H0z"/><path fill-rule="evenodd" d="M34 19.02a6.5 6.5 0 1 0-11.99 0 6.5 6.5 0 0 0-4.74 10.34L12 31.82V41h32v-9.18l-5.26-2.47A6.5 6.5 0 0 0 34 19.02ZM28 33c-2.1 0-3.86-.41-5.27-1A6.5 6.5 0 0 0 28 28.97 6.5 6.5 0 0 0 33.32 32c-1.44.59-3.22 1-5.32 1Zm-12.57 1H14l2.32 5h.96l2.03-5h-1.35l-1.17 3.24L15.43 34ZM20 39v-5h1v5h-1Zm21 0v-5h-1v3.23L38.09 34H37v5h1v-3.23L39.92 39H41Zm-7.22-5H32.64l-2.03 5h1.3l.35-1h1.9l.35 1h1.31l-2.04-5Zm-.57 1.3-.6 1.7h1.2l-.6-1.7Zm-11.1-.38c-.07.18-.11.37-.11.58a1.47 1.47 0 0 0 .44 1.06c.14.14.3.24.48.32.18.08.37.12.58.12h1a.5.5 0 0 1 .2.04l.15.1c.05.05.09.1.11.17a.5.5 0 0 1 .04.2.5.5 0 0 1-.3.45.5.5 0 0 1-.2.04h-2.22v1h2.22a1.52 1.52 0 0 0 1.38-.92 1.44 1.44 0 0 0 0-1.16 1.44 1.44 0 0 0-.32-.48c-.13-.14-.3-.24-.48-.32a1.44 1.44 0 0 0-.58-.12h-1a.5.5 0 0 1-.5-.5.5.5 0 0 1 .3-.46.5.5 0 0 1 .2-.04h2.3v-1h-2.3a1.54 1.54 0 0 0-1.38.92Zm4.39.58A1.53 1.53 0 0 1 28 34h2.3v1H28a.5.5 0 0 0-.5.5.52.52 0 0 0 .14.36.53.53 0 0 0 .36.14h1c.2 0 .4.04.58.12a1.44 1.44 0 0 1 .8.8 1.44 1.44 0 0 1 0 1.16A1.49 1.49 0 0 1 29 39h-2.22v-1H29a.5.5 0 0 0 .46-.7.46.46 0 0 0-.1-.15.46.46 0 0 0-.16-.11.5.5 0 0 0-.2-.04h-1a1.57 1.57 0 0 1-1.06-.44 1.47 1.47 0 0 1-.44-1.06Z" fill="#EE4023"/><path d="M29.61 13.17c0 .27-.06.7-.18 1.18.41-.28.8-.5 1.06-.6a1.6 1.6 0 0 1 2.07.98c.3.85-.12 1.78-.96 2.1-.2.07-.52.14-.9.2.22.17.4.33.5.47.58.68.5 1.71-.19 2.3-.68.58-1.7.5-2.27-.2a6.6 6.6 0 0 1-.82-1.45 6.59 6.59 0 0 1-.8 1.45 1.6 1.6 0 0 1-2.28.2 1.65 1.65 0 0 1-.2-2.3c.13-.15.32-.32.55-.51a4 4 0 0 1-.66-.17 1.64 1.64 0 0 1-.97-2.09 1.6 1.6 0 0 1 2.07-.97c.23.08.56.26.91.5a5.3 5.3 0 0 1-.15-1.09c0-.9.72-1.63 1.61-1.63.9 0 1.61.73 1.61 1.63Z" fill="#FFF300"/><path d="M28.59 14.33c0 .26-.06.75-.16 1.2.35-.18.78-.33 1.01-.38.48-.1 1 .04 1.18.32.17.27-.08.58-.55.68-.28.06-.93.11-1.46.09.27.17.55.42.67.58.25.3.33.77.17 1.05-.15.28-.48.26-.73-.05-.19-.24-.61-1-.7-1.44a7.13 7.13 0 0 1-.86 1.42c-.3.35-.65.36-.77.03-.12-.34.03-.89.33-1.24.1-.11.28-.27.47-.43-.45 0-.91-.04-1.13-.08-.48-.1-.72-.38-.55-.64.17-.25.7-.39 1.17-.3.22.05.6.17.93.32a6.43 6.43 0 0 1-.14-1.13c0-.5.25-.92.56-.92.3 0 .56.41.56.92Z" fill="#F69812"/><path d="M35.3 22.81c-.02.27-.13.7-.3 1.16a5.5 5.5 0 0 1 1.12-.48c.87-.22 1.74.32 1.95 1.2.22.87-.31 1.75-1.17 1.97-.22.05-.54.09-.91.1.19.2.34.38.44.52.5.75.3 1.77-.44 2.27-.73.5-1.74.3-2.24-.44-.2-.3-.45-.89-.65-1.53-.32.58-.7 1.1-.96 1.36a1.6 1.6 0 0 1-2.28-.06c-.62-.65-.6-1.68.05-2.3.14-.13.34-.3.6-.46a4 4 0 0 1-.65-.23 1.64 1.64 0 0 1-.73-2.18 1.6 1.6 0 0 1 2.16-.75c.21.1.52.32.85.6a5.32 5.32 0 0 1-.04-1.1c.1-.9.89-1.54 1.78-1.45.88.1 1.52.9 1.43 1.8Z" fill="#FFF300"/><path d="M34.16 23.86c-.02.25-.14.74-.28 1.16.37-.13.81-.24 1.05-.26.48-.05.99.15 1.13.44.14.3-.13.58-.61.62-.29.03-.94.01-1.47-.07.25.2.5.48.61.65.22.33.24.8.06 1.07-.19.26-.5.2-.72-.13a4.76 4.76 0 0 1-.55-1.5 7.1 7.1 0 0 1-1 1.3c-.34.32-.69.3-.77-.05-.09-.34.12-.88.46-1.2.1-.1.3-.24.51-.37-.44-.05-.9-.14-1.12-.2-.46-.15-.67-.46-.47-.7.2-.23.73-.3 1.2-.16.2.06.57.23.89.4-.05-.42-.06-.89-.03-1.13.05-.5.35-.89.65-.86.31.04.52.48.46.99Z" fill="#F69812"/><path d="M20.44 22.81c.03.27.14.7.3 1.16a5.5 5.5 0 0 0-1.11-.48 1.63 1.63 0 0 0-.77 3.17c.2.05.53.09.9.1-.2.2-.35.38-.44.52-.5.75-.3 1.77.43 2.27.74.5 1.74.3 2.24-.44.2-.3.46-.89.66-1.53.32.58.7 1.1.96 1.36.64.62 1.66.6 2.28-.06.61-.65.59-1.68-.06-2.3a4.23 4.23 0 0 0-.59-.46c.27-.07.5-.15.64-.23.8-.4 1.13-1.37.74-2.18a1.6 1.6 0 0 0-2.16-.75c-.22.1-.53.32-.85.6.05-.45.07-.85.04-1.1-.1-.9-.9-1.54-1.78-1.45-.88.1-1.53.9-1.43 1.8Z" fill="#FFF300"/><path d="M21.58 23.86c.03.25.14.74.29 1.16a5.11 5.11 0 0 0-1.05-.26c-.48-.05-1 .15-1.13.44-.15.3.13.58.61.62.29.03.94.01 1.46-.07-.25.2-.5.48-.6.65-.22.33-.24.8-.06 1.07.18.26.5.2.72-.13.16-.26.5-1.06.55-1.5.28.48.77 1.1 1 1.3.34.32.68.3.77-.05.08-.34-.12-.88-.46-1.2-.11-.1-.3-.24-.51-.37.44-.05.9-.14 1.11-.2.47-.15.68-.46.48-.7-.2-.23-.74-.3-1.2-.16-.2.06-.57.23-.89.4.05-.42.05-.89.03-1.13-.06-.5-.35-.89-.66-.86-.3.04-.51.48-.46.99Z" fill="#F69812"/></svg>