<!-- by TradingView --><svg width="56" height="56" viewBox="0 0 56 56" xmlns="http://www.w3.org/2000/svg"><path fill="#F0F3FA" d="M0 0h56v56H0z"/><path fill-rule="evenodd" d="M28 44a16 16 0 1 0 0-32 16 16 0 0 0 0 32Zm0 2a18 18 0 1 0 0-36 18 18 0 0 0 0 36Z" fill="#183A84"/><path d="M28.26 14.4c-4.25 0-8.04 1.95-10.54 5l-.88-.72a14.72 14.72 0 0 1 22.85 0l-.88.72c-2.5-3.05-6.3-5-10.55-5Zm-10.8 21.88a13.58 13.58 0 0 0 21.6 0l.9.7a14.72 14.72 0 0 1-23.4 0l.9-.7Z" fill="#1E386E" fill-opacity=".8"/><path d="M40.28 28a12.28 12.28 0 1 1-24.56 0 12.28 12.28 0 0 1 24.56 0Z" fill="#DA251C"/><path d="M15.76 29a12.28 12.28 0 0 0 24.48 0H15.76Z" fill="#0193DE"/><path d="m41.64 28.56 1.44-2.39h-2.35l-.35.39h-1.75l-.46.56H13.14l.59 1.44h27.9ZM15.17 23.85h1.43l-.24 1.23h-1.2l.5-.88-.5-.35Z" fill="#183A84"/><path d="M18.28 26.8h20.07v.43H18.28v-.43Z" fill="#fff"/><path d="m13.86 29-.39-1h27.99a1.85 1.85 0 0 1 1.8 1h-29.4Z" fill="#DA251C"/><path d="M27.19 22.16h-6.06v1.34h1.16c.2 0 .4.13.48.34l4.42 10h1.49l4.8-10.02c.1-.2.28-.32.48-.32H34.87v-1.34h-4.98v1.34h.75c.4 0 .67.49.48.9l-2.64 5.96-2.64-5.96c-.19-.41.07-.9.48-.9h.87v-1.34Z" fill="#FBF607"/><path d="M21 22h6.32v1.65h-1c-.3 0-.5.37-.36.68l2.52 5.69L31 24.33c.14-.3-.05-.68-.36-.68h-.92V22H35v1.65h-1.04a.4.4 0 0 0-.35.24L28.76 34H27.1l-4.46-10.1a.4.4 0 0 0-.36-.25H21V22Zm.27.31v1.03h1.02c.26 0 .49.16.6.42l4.38 9.93h1.33l4.77-9.95c.12-.25.34-.4.59-.4h.77v-1.03H30v1.03h.64c.5 0 .83.62.6 1.13l-2.76 6.23-2.76-6.23c-.23-.51.1-1.13.6-1.13H27v-1.03h-5.73Z" fill="#F4BCA5"/><path d="M18.4 24.99v2.05h-5.07l.86-2.05h1.89v-.8h2.6l-.29.8Z" fill="#fff"/><path d="M15.88 24h3.08l-.37 1.02v2.21h-5.56l1.03-2.43h1.82V24Zm.4.37v.8h-1.95l-.7 1.68h4.56v-1.9l.21-.58h-2.12Z" fill="#929292"/></svg>