<!-- by TradingView --><svg width="56" height="56" viewBox="0 0 56 56" xmlns="http://www.w3.org/2000/svg"><path fill="#F0F3FA" d="M0 0h56v56H0z"/><path d="m9.25 30.23-.23.05-.97.6c.1.55.27 1.68.27 1.75 0 .07.92.03 1.37 0l.66-1.81-1.1-.59Z" fill="#FF0909"/><path d="M7.32 34 4 22l1.94 1.52c.54 2.09 1.65 6.4 1.78 6.81.13.41.37.81.47.96l.28 1.27L7.32 34Z" fill="maroon"/><path d="M9.11 31.63a5.13 5.13 0 0 1-1.34-.56l-1.84-7.52L7.29 22l1.82 8.3v1.32Z" fill="#FF7070"/><path d="M7.3 22H4l1.94 1.55L7.3 22Z" fill="#FF2D2D"/><path d="M10.8 34H7.32l1.12-1.5h1.23L10.8 34Z" fill="#C00"/><path d="m14.5 22-3.7 12-1.12-1.48 2.83-9.01L14.5 22Z" fill="#FF5D5E"/><path d="m10.24 30.83-1.06-.57L11.3 22l1.23 1.52-2.3 7.31Z" fill="#9A0000"/><path d="M14.5 22h-3.2l1.2 1.54 2-1.54Z" fill="#FF2E2F"/><path d="M18 22h-3l.5 10.49h2.46L18 22Z" fill="#FF2D2D"/><path d="M18 34h-3l.85-1.51h.79L18 34Z" fill="#C00"/><path d="M16.37 23.5 15 22.01V34l1.37-1.48v-9.03Z" fill="#920000"/><path d="m16.6 23.5 1.4-1.48V34l-1.4-1.47v-9.03Z" fill="#FF6364"/><path d="M27 22h-8l1.35 1.5h5.26L27 22Z" fill="#FF2D2D"/><path d="M19 22v3l1.5-1.5L19 22Z" fill="#920000"/><path d="M27 22v3l-1.5-1.5L27 22Z" fill="#FF6364"/><path d="M27 25h-2.5l.02-1.5h1.02L27 25Z" fill="#C00"/><path d="M21.5 34v-9l.55-1.3c.42.12.68.6.75.83v7.95L21.5 34Z" fill="#920000"/><path d="M21.5 25H19l1.46-1.5h1.04c.45 0 .54.13.58.22L21.5 25Z" fill="#C00"/><path d="M22.8 24.9c0-.89-.83-1.31-1.25-1.4h3L24.5 25l-1.15-.55-.18.53v7.55h-.37V24.9Z" fill="red"/><path d="m24.5 34-1.37-1.5v-7.55l.23-.64 1.14.69v9Z" fill="#FF6364"/><path d="M24.5 34h-3l1.27-1.49h.43L24.5 34Z" fill="#C00"/><path d="m28.42 30.59 1.53.7-.63-1.18.52-.11h2.97c.7 0 1.25.35 1.42.59l-.59-2.52-1.23.34-3.35-.04-.64 2.22Z" fill="#FF2D2D"/><path d="M29.62 22 26 34l1.9-1.5 2.26-7.79.64-1.05L29.62 22Z" fill="#9E0000"/><path d="M33.4 22h-3.77l1.11 1.64-.58 1.03 1.37.6-.63-1.21c.82-.18 1.37.02 1.62.29l-.25-.78L33.4 22Z" fill="#FF0F0F"/><path d="m31.48 23.89.05 1.41-.66-1.3c.27-.06.53-.1.6-.11Z" fill="#ED0000"/><path d="m31.4 23.93.09 1.36.71-1.27c-.28-.16-.69-.11-.8-.09Z" fill="#AE0000"/><path d="m32.41 28.46-.94-3.22.67-1.17c.16 0 .31.17.36.26.32 1.04.98 3.2 1.07 3.54.1.33.08.89.06 1.12l-1.22-.53Z" fill="#7E0000"/><path d="m29.09 28.36 1.07-3.73 1.31.6-.9 3.08-.68 1.37c-.66-.29-.81-1-.8-1.32Z" fill="#FF6969"/><path d="M29.16 34h-3.18l1.89-1.5 1.3 1.5Z" fill="#C00"/><path d="m29.93 31.25-.78 2.72-1.3-1.39.58-2 1.5.67Z" fill="#FF5252"/><path d="M33 31.3h-3.14l-.56-1.2.56-.1H33v1.3Z" fill="#C00"/><path d="M33.62 34 33 31.25V30c.58 0 1.02.32 1.21.56l.52 1.98L33.62 34Z" fill="maroon"/><path d="M36.55 34H33.6l1.13-1.48L36.55 34Z" fill="#C00"/><path d="m34.72 32.54-2.5-8.94 1.19-1.6 3.12 12-1.81-1.46Z" fill="#FF7372"/><path d="M40 22h-2.99l.72 10.6h4.77L44 31h-4v-9Z" fill="url(#al1ul4ts2)"/><path d="M37 34V22.02l1.48 1.48v9L37 34Z" fill="#920000"/><path d="m39 23.46 1-1.44v8.97l-.35 1.34c-.59-.42-.68-1-.64-1.24v-7.63Z" fill="url(#bl1ul4ts2)"/><path d="M44 34v-3l-1.56 1.47L44 34Z" fill="#FF6364"/><path d="M44 34h-7l1.42-1.5h4.07L44 34Z" fill="#C00"/><path d="M49 34h-3l1.2-1.42v-3.37l-1.12-2.96 1.39-.57 1.07 1.12-.96 2.41v3.37L49 34Z" fill="url(#cl1ul4ts2)"/><path d="M46 29.33 43 22l2.08 1.5 2.17 5.82v3.22L46 34v-4.67Z" fill="maroon"/><path d="M46.38 22H43l2.1 1.55L46.37 22ZM48.73 22H52l-2.13 1.5-1.14-1.5Z" fill="#FF2D2D"/><path d="M47.43 25.66 46.37 22l-1.3 1.53c.27.77.92 2.53 1.2 3.08.26.55.88.59 1.16.54v-1.5Z" fill="#FF6F70"/><path d="m48.74 22-1.24 3.74 1.03 1.1 1.34-3.4-1.13-1.43Z" fill="#9F0000"/><path d="M49 29.37V34l-1.48-1.48v-3.34l.19-.5 1.29.69Z" fill="#FF6363"/><path d="m49 29.4 3-7.4-2.14 1.47-2.11 5.26 1.25.68Z" fill="#FF2323"/><defs><linearGradient id="al1ul4ts2" x1="40.51" y1="22" x2="40.51" y2="32.59" gradientUnits="userSpaceOnUse"><stop stop-color="#FF2D2D"/><stop offset="1" stop-color="red"/></linearGradient><linearGradient id="bl1ul4ts2" x1="39.64" y1="22.02" x2="39.64" y2="32.33" gradientUnits="userSpaceOnUse"><stop offset=".83" stop-color="#FF6263"/><stop offset="1" stop-color="#FF7675"/></linearGradient><linearGradient id="cl1ul4ts2" x1="46.74" y1="33.85" x2="46.74" y2="31.49" gradientUnits="userSpaceOnUse"><stop offset=".44" stop-color="#C00"/><stop offset=".76" stop-color="red"/></linearGradient></defs></svg>