<!-- by TradingView --><svg width="56" height="56" viewBox="0 0 56 56" xmlns="http://www.w3.org/2000/svg"><path fill="#F0F3FA" d="M0 0h56v56H0z"/><path d="M11.36 36 6 20h3.82l3.23 10.9L16.23 20H20l-5.4 16h-3.24ZM21 20v3h5v13h3V23h5v-3H21Zm22.79 0H36v16h8.79c2.33 0 4.21-2.22 4.21-4.96 0-1.74-.76-3.27-1.91-4.15a4.25 4.25 0 0 0-3.3-6.89ZM39 26v-3h4.43c.87 0 1.57.67 1.57 1.5s-.7 1.5-1.57 1.5H39Zm0 7v-4h5.17c1.01 0 1.83.9 1.83 2s-.82 2-1.83 2H39Z" fill="url(#afnxzt1dm)"/><defs><linearGradient id="afnxzt1dm" x1="28" y1="20" x2="28" y2="35.95" gradientUnits="userSpaceOnUse"><stop stop-color="#D60000"/><stop offset="1" stop-color="#C30000"/></linearGradient></defs></svg>