<!-- by TradingView --><svg width="56" height="56" viewBox="0 0 56 56" xmlns="http://www.w3.org/2000/svg"><path fill="#F0F3FA" d="M0 0h56v56H0z"/><path d="M34.33 17.9c1.2-.41 5.38-1.86 9.14-.75.68.28 1.92 1.45 1.37 3.85.47-1.02 1.08-3.35-.28-4.52-1.7-1.45-9.16.78-10.56 1.53l.33-.1Zm-12.71 6.56C24.23 22.3 31.65 18 40.4 18c1.63-.04 4.53.72 3.14 4.13l-1.17 3.53c.3-1.42.44-4.4-1.28-5-2.16-.76-10.05-2.1-19.47 3.8ZM11.5 27v3.4c.03.75.76 2.08 3.06 1.42v-1.25c-.45.23-1.32.49-1.56-.34V27h1.5v-1H13v-2l-1.5.62V26H11v1h.5Zm-5.11-1H5l2.44 6h.64l2.5-6h-1.3l-1.47 3.67L6.39 26Zm12.88 1.51.55-.89c-.5-.39-1.14-.62-1.83-.62-1.65 0-2.99.98-2.99 3 0 2.26 1.34 3 3 3 .68 0 1.3-.23 1.8-.61l-.48-.96c-.3.35-.7.57-1.16.57-.92 0-1.66-.5-1.66-2 0-1.34.74-2 1.66-2 .43 0 .82.2 1.11.51Z" fill="#1E58A9"/><path fill-rule="evenodd" d="M28.3 30.57V24h.7v6.46c0 .55.6.73 1 .74l.04.8c-1.26-.02-1.7-.9-1.74-1.43ZM21 27.7v2.9c.06.62.67 1.75 2.64 1.3l-.12-.73c-.54.2-1.82.18-1.82-.77v-2.7H23V27h-1.3v-2l-.7.37V27h-1v.7h1Zm18.3-.18-.35.57a1.7 1.7 0 0 0-1.2-.48c-.96 0-1.75.6-1.75 1.84 0 1.38.79 1.84 1.76 1.84.46 0 .87-.19 1.18-.49l.35.69c-.42.32-.94.51-1.5.51-1.38 0-2.49-.62-2.49-2.5 0-1.68 1.11-2.5 2.48-2.5.57 0 1.1.2 1.52.52ZM27.97 29.7l-3.68-.05c0 1.31 1 1.65 1.64 1.65.52 0 1.05-.27 1.25-.44l.42.56c-.35.45-1.26.57-1.67.58-1.88 0-2.4-1.61-2.43-2.42 0-2.04 1.5-2.57 2.24-2.58 2.1 0 2.36 1.84 2.23 2.7Zm-.77-.7h-2.8c.04-.43.4-1.3 1.42-1.3s1.35.87 1.38 1.3Zm3.89.65 3.68.05c.13-.86-.14-2.7-2.23-2.7-.75 0-2.24.54-2.24 2.58.03.8.55 2.42 2.43 2.42.41 0 1.32-.13 1.67-.58l-.42-.56c-.2.17-.73.44-1.25.44-.65 0-1.64-.34-1.64-1.65Zm.1-.65H34c-.03-.43-.36-1.3-1.38-1.3s-1.38.87-1.43 1.3Zm12.72.5c0 1.38-1 2.5-2.24 2.5-1.24 0-2.25-1.12-2.25-2.5s1-2.5 2.25-2.5c1.24 0 2.24 1.12 2.24 2.5Zm-.73 0c0 1.04-.68 1.89-1.51 1.89-.84 0-1.51-.85-1.51-1.89s.67-1.89 1.5-1.89c.84 0 1.52.85 1.52 1.89ZM44.3 27h.47l.23.6v.25c.3-.42.81-.85 1.52-.85.82 0 1.23.54 1.4.97.29-.45.82-.97 1.6-.97 1.03 0 1.42.85 1.48 1.27V32h-.7v-3.42a1.06 1.06 0 0 0-1.07-.97c-.69 0-1.08.52-1.23.87V32h-.7v-3.42a1.06 1.06 0 0 0-1.07-.97c-.69 0-1.08.52-1.23.87V32h-.7v-5Z" fill="#28A6DD"/></svg>