<!-- by TradingView --><svg width="56" height="56" viewBox="0 0 56 56" xmlns="http://www.w3.org/2000/svg"><path fill="#F0F3FA" d="M0 0h56v56H0z"/><path d="M9.4 28.15 9.96 27h1.37l-3.17 6L5 27h1.39l1.77 3.69.56-1.14L7.37 27H8.8l.6 1.15ZM12 27h1v6h-1v-6Zm2 0h3.5v1H15v1.5h2.5v1H15V32h2.5v1H14v-6Z" fill="#F05A86"/><path fill-rule="evenodd" d="M41 24.5a.5.5 0 1 1-1 0 .5.5 0 0 1 1 0ZM18 27v1h1.5v5h1v-5H22v-1h-4Zm17 0h2.29c1.22 0 2.21.93 2.21 2.08 0 .63-.34 1.68-1.6 1.79l.95 2.13h-.95l-1.33-2.98h1.03c.56 0 .9-.5.9-1.02 0-.53-.34-1-.9-1H36v5h-1v-6Zm12 1v-1h4v1h-1.5v5h-1v-5H47Zm-6-1h-1v6h1v-6Zm-16 6a3 3 0 1 0 0-6 3 3 0 0 0 0 6Zm0-1a2 2 0 1 0 0-4 2 2 0 0 0 0 4Zm3.5-5v3.46c0 1.4 1.18 2.54 2.63 2.54h.24A2.58 2.58 0 0 0 34 30.46V27h-1v3.48c0 .73-.52 1.52-1.77 1.52s-1.73-.79-1.73-1.52V27h-1ZM45 33h1c-.05-.67-.63-1.85-1.6-1.96-1.56-.17-1.9-.61-1.9-1.56 0-.94 1.08-1.48 1.7-1.48.64 0 1.8.63 1.8 1.48h1c-.1-.82-.8-2.48-2.8-2.48-1.98 0-2.62 1.66-2.7 2.48-.02.87.46 2.52 2.5 2.52.34 0 1 .25 1 1Z" fill="#038039"/><path fill-rule="evenodd" d="m39.95 15 .16.17a6.92 6.92 0 0 1 1.39 2.16c.4-.32 1.14-.82 2.06-1.2l.28-.13.06.31c.14.72.22 1.7.1 2.69h3l-.12.38a8.42 8.42 0 0 1-2.35 3.6c-.6.5-1.3.88-2.1.99-.74.1-1.56-.03-2.43-.48-.87.45-1.69.58-2.43.48-.8-.11-1.5-.48-2.1-.98a8.42 8.42 0 0 1-2.35-3.61L33 19h3c-.12-1-.04-1.97.1-2.69l.06-.3.28.11c.84.36 1.53.8 1.95 1.12a6.7 6.7 0 0 1 1.38-2.08l.18-.16Zm.54 8.15c.69.3 1.31.37 1.88.3.69-.1 1.3-.42 1.85-.88a7.76 7.76 0 0 0 2.07-3.02h-2.36c-.05.27-.12.53-.2.78-.22.7-.58 1.36-1.14 1.86-.51.48-1.19.8-2.05.92l-.05.04Zm1.48-3.56a5.7 5.7 0 0 0-.29-1.75c.3-.24.94-.7 1.78-1.1a7.9 7.9 0 0 1-.2 3.42 3.7 3.7 0 0 1-1 1.63 3 3 0 0 1-1.17.66c.47-.67.88-1.63.88-2.86Zm-.5 0a4.4 4.4 0 0 1-1.15 3.01l-.27.26a3.97 3.97 0 0 1-1.67-3.27c0-1.73.95-3.2 1.56-3.86.26.3.6.78.9 1.36.35.72.64 1.58.64 2.5Zm-5.4-.04h-2.36c.39.99 1.1 2.2 2.07 3.02.54.46 1.16.78 1.85.88.58.07 1.22 0 1.92-.32l-.02-.02a3.69 3.69 0 0 1-3.26-2.78 6.34 6.34 0 0 1-.2-.78Zm1.82.04c0 1.24.46 2.2.98 2.85a3 3 0 0 1-1.14-.65 3.7 3.7 0 0 1-.99-1.63 7.9 7.9 0 0 1-.2-3.42c.74.35 1.33.75 1.66 1a5.77 5.77 0 0 0-.31 1.85Z" fill="#F05A86"/></svg>