<!-- by TradingView --><svg width="56" height="56" viewBox="0 0 56 56" xmlns="http://www.w3.org/2000/svg"><path fill="#2D3985" d="M0 0h56v56H0z"/><path d="M11.53 31.72 5 21h9.3l-3.08 4.99a.62.62 0 0 0 0 .63l.41.74 3.5-5.77c.21-.37.6-.59 1.03-.59h1.98l-6.61 10.72Zm4.83-5.88L12.2 32.7l1.36 2.3 5.06-8.27A5.94 5.94 0 0 1 23.83 24l1.72-2.99h-.64a10 10 0 0 0-8.55 4.83ZM25.03 24h2.61c.3 0 .58-.17.73-.46L29.75 21h-2.54c-.3 0-.57.17-.72.44L25.03 24ZM20 26.03V31h1v-6h-.1c-.25 0-.48.17-.62.45l-.28.58ZM22 31v-6h4l-.6 1H23v1.5h3v1h-3V30h3v1h-4Zm7-5h1c.18 0 .36-.1.47-.24L31 25h-4.03c-.2 0-.38.1-.49.26L26 26h2v5h1v-5Zm6.03 0H34v5h-1v-5h-2.18l.5-.74c.12-.16.31-.26.52-.26h4.26l-.56.76a.62.62 0 0 1-.5.24ZM37 25v6h1v-2.5h1.22c.16 0 .31-.07.4-.18l.38-.45V31h1v-6h-1v2.5h-2V25h-1Zm11 6v-6h1v6h-1Zm-6.05 0 2.01-6h1.27l2.03 6h-1.13l-.34-1h-.94a.64.64 0 0 1-.52-.24l-.57-.76h1.69l-.89-2.59L43.07 31h-1.12Zm-23.26 4h11.36c.3 0 .58-.17.73-.46L32.16 32h-11.3c-.3 0-.57.17-.73.44L18.7 35Z" fill="#fff"/><path opacity=".4" fill="#2D3985" d="M21 33h9v1h-9z"/></svg>