<!-- by TradingView --><svg width="56" height="56" viewBox="0 0 56 56" xmlns="http://www.w3.org/2000/svg"><path fill="#F0F3FA" d="M0 0h56v56H0z"/><path d="M16.69 12.43c-.69 3.8-.6 14.08.15 16.87 1.94 7.28 7.32 12.08 14.76 13.17.83.12 1.42.34 1.32.5-.1.16-1.18.6-2.4.97-4.46 1.35-8.68.1-12.09-3.57-2.53-2.73-3.38-4.7-3.54-8.26-.09-1.95.03-3.45.38-4.8.37-1.45.45-2.67.3-4.76-.11-1.55-.29-2.82-.39-2.82-.43 0-1.9 2.82-2.52 4.82-.45 1.48-.66 3-.66 4.88 0 5.07 1.45 8.7 4.8 12.01 4.35 4.32 9.67 5.63 14.9 3.68 2.92-1.1 4.36-2.28 5.6-4.63 5.46-10.37-.05-20.79-15.05-28.47-2.17-1.11-4.21-2.02-4.53-2.02-.5 0-.67.42-1.03 2.43Zm2.97 2.58c.98 1.71 1.78 3.2 1.78 3.3 0 .1-.56.08-1.26-.03-1.68-.27-1.59.18.29 1.3 1.13.69 1.8 1.4 2.52 2.7 1.08 1.97 1.15 2.2.58 2.02-.22-.07-1-.2-1.76-.31-1.79-.25-1.5.13 1.15 1.58 1.73.95 2.3 1.46 3 2.72.48.85.8 1.62.71 1.71-.09.09-1.09.03-2.22-.13-1.13-.17-2.06-.2-2.06-.07s1.45 1.1 3.24 2.17c2.44 1.47 3.4 2.24 3.93 3.15.38.67.7 1.3.7 1.4 0 .19-2.14-.01-3.73-.34-1.7-.36-.27.68 3.7 2.65 2.46 1.22 4.4 2.4 4.7 2.84l.5.75-1.87-.23c-6.43-.8-12.12-4.33-14.48-8.97-1.58-3.1-2.88-10.18-2.5-13.64.63-5.93.87-7.7 1.07-7.7.12 0 1.02 1.4 2 3.13Zm7.01-1.92c-.5.2-.24.5 1.74 1.99 1.27.96 2.82 1.85 3.42 1.97 1.65.35 4.6 2 6 3.37a16.76 16.76 0 0 1 3.91 6.19c.58 1.75.8 6.72.34 8.12-.34 1.09 1.17.97 1.68-.14 1.27-2.77 1.61-7.22.8-10.32-1.28-4.93-5.75-9.28-10.89-10.62-2.17-.56-6.21-.89-7-.56Zm-3.58 5.23c.09.43.03.78-.12.78-.14 0-.27-.35-.27-.78 0-.43.06-.79.12-.79.07 0 .2.36.27.79Zm-8.43 8.47c-1.03 4.37-.34 9.22 1.76 12.26a17.94 17.94 0 0 0 4.82 4.43c.49.26.82.54.73.63-.31.31-3.22-1.62-4.82-3.21a16 16 0 0 1-4.52-11.26c0-2.71.3-4.12 1.37-6.61l.67-1.57.22 1.72c.13 1.12.05 2.4-.23 3.61Zm12.44-2.9v2.27l-.76-1.22c-.64-1.03-.69-1.29-.33-1.65.24-.23.52-.7.63-1.05.35-1.1.47-.68.46 1.65Zm5.44 10.23c.48.72.95 1.3 1.04 1.3.09 0 .44-.63.77-1.4.33-.79.65-1.42.7-1.42.2 0-.15 5.52-.37 5.92-.16.29-.94-.8-2.39-3.3-3.43-5.94-4.28-7.53-3.64-6.78.34.39.74.7.9.7.15 0 .62-.8 1.04-1.8l.77-1.8.16 3.63c.14 3.3.23 3.75 1.02 4.95Zm-8.58 10.55c.78.24 1.14.45.79.45a4.7 4.7 0 0 1-1.57-.43c-1.25-.56-.97-.57.78-.02Zm4.34.7c-.48.08-1.33.08-1.9.01-.56-.07-.17-.13.87-.13s1.5.06 1.03.13Z" fill="#F7941D"/></svg>