<!-- by TradingView --><svg width="56" height="56" fill="none" xmlns="http://www.w3.org/2000/svg"><path fill="#EF0032" d="M0 0h56v56H0z"/><path d="M20.912 24c-.327 0-1.703.041-2.758.639-.692.392-1.134 1.049-1.154 2.422 0 0 .004 2.035.296 2.52 0 0 .342.692 1.106 1.11.33.18.994.309 1.489.309h4.854s.255-.045.255-.62V30h-4.608s-1.293-.285-1.32-1.73c-.002-.076-.002-.2-.003-.27h5.466s.956-.009.956-1.23c0 0 .155-1.257-.837-2.038-.993-.782-2.586-.708-3.67-.731L20.912 24Zm.326 1c.568 0 1.39.09 1.84.523 0 0 .355.29.355.906 0 .422-.273.571-.355.571h-3.05s-.642 0-.96.244c.01-.595.04-.78.04-.78s-.01-1.262 1.548-1.424c0 0 .242-.04.582-.04ZM41.912 24c-.327 0-1.703.041-2.758.639-.692.392-1.134 1.049-1.154 2.422 0 0 .004 2.035.296 2.52 0 0 .342.692 1.106 1.11.33.18.994.309 1.489.309h4.854s.255-.045.255-.62V30h-4.608s-1.293-.285-1.32-1.73c-.002-.076-.002-.2-.003-.27h5.466s.956-.009.956-1.23c0 0 .155-1.257-.837-2.038-.993-.782-2.586-.708-3.67-.731L41.912 24Zm.326 1c.568 0 1.39.09 1.84.523 0 0 .355.29.355.906 0 .422-.273.571-.355.571h-3.05s-.642 0-.96.244c.01-.595.04-.78.04-.78s-.01-1.262 1.548-1.424c0 0 .242-.04.582-.04ZM47 22.563s0-.563.564-.563h.972s.464.094.464.617v5.874s.351 1.106 1.526 1.443c0 0 .715.154 1.474.009v.493s-.16.564-.576.564h-1.979c-1.147 0-2.408-.724-2.445-1.972v-6.465ZM27 22.598s-.045-.598.52-.598h.97s.51.13.51.652V24h3.95v-1.402s0-.598.565-.598h.972s.481.13.481.652V24h2.036v.77s.01.23-.554.23h-1.482v3.491s-.037 1.151 1.138 1.488c0 0 .62.154 1.379.009v.448s-.065.564-.481.564h-1.527c-1.147 0-2.49-.724-2.526-1.972V25H29v3.491s-.065 1.142 1.11 1.478c0 0 .62.155 1.379.01v.457s-.065.564-.481.564H29.48c-1.148 0-2.513-.724-2.55-1.972V25h-.393c-.564 0-.538-.27-.538-.27V24h1v-1.402ZM14.002 22.46c0-.427.47-.46.47-.46h1.014c.514 0 .514.45.514.45v.513c0 .415-.502.445-.502.445h-.615c-.516 0-.883.487-.883.487l.002-1.434ZM14.002 24.543c0-.552.488-.543.488-.543h1.044c.386 0 .466.475.466.475v5.917c0 .586-.386.608-.386.608h-1.09c-.488 0-.522-.473-.522-.473v-5.984ZM7.516 30.453 4 24h1.605c.446 0 .844.613.844.613s2.215 4.392 2.32 4.592c.106.2.247 0 .247 0s1.78-3.6 2.168-4.358c.386-.758.996-.847.996-.847h1.605s-3.14 5.762-3.516 6.398c-.375.635-1.148.602-1.148.602h-.375c-1.043 0-1.23-.547-1.23-.547Z" fill="#fff"/><path fill-rule="evenodd" clip-rule="evenodd" d="M49.418 36.202v-1.829H49V34h.418v-1h.587v1H51v.373h-.995v1.746c0 .28.227.508.507.508H51V37h-.784a.798.798 0 0 1-.798-.798ZM38 34.422V38h.583v-1h1.407c.166 0 1.01-.193 1.01-1.586 0-1.114-.882-1.407-1.323-1.414h-1.26a.42.42 0 0 0-.417.423Zm.562.19v2.026h1.198c.344 0 .657-.242.657-1.266 0-.819-.535-.989-.803-.971h-.843a.21.21 0 0 0-.209.211Zm2.754.699c0-.724.664-1.311 1.483-1.311h1.033c.82 0 1.484.587 1.484 1.31v.38c0 .723-.665 1.31-1.484 1.31H42.8c-.82 0-1.483-.587-1.483-1.31v-.38Zm.684-.24c0-.315.304-.571.68-.571h1.14c.376 0 .68.256.68.572v.856c0 .316-.304.572-.68.572h-1.14c-.376 0-.68-.256-.68-.572v-.856ZM48.502 34v.364h-1.966a.367.367 0 0 0-.372.362c0 .165.114.309.277.35l1.803.46c.335.086.57.382.57.72 0 .411-.342.744-.763.744h-2.366v-.399h2.17c.2 0 .363-.158.363-.353a.356.356 0 0 0-.29-.347l-1.648-.331a.798.798 0 0 1-.649-.777c0-.438.364-.793.813-.793h2.058Z" fill="#333"/></svg>