<!-- by TradingView --><svg width="56" height="56" viewBox="0 0 56 56" xmlns="http://www.w3.org/2000/svg"><path fill="#F0F3FA" d="M0 0h56v56H0z"/><path d="M27.98 15.57c-.02.44-.08.63-.27.9-.16.22-.22.38-.18.52.04.11.02.35-.04.53-.12.37-.42.6-1.18.88-.26.1-.5.21-.56.25-.05.04-.67.32-1.36.63-.7.3-1.62.73-2.05.94a2.6 2.6 0 0 1-1.48.37h-.71l.06-.43c.03-.23.03-.56 0-.73-.06-.27-.1-.3-.41-.3-.3 0-.37.05-.47.3-.16.36-.25.36-.4-.01a7.84 7.84 0 0 0-1.04-1.28c-.65-.67-.93-1.04-.93-1.2 0-.12-.06-.29-.14-.37-.09-.1-.14-.36-.16-.76-.01-.59-.01-.6-.05-.13-.02.27-.1.55-.16.63a1.7 1.7 0 0 0-.23.59c-.07.33-.2.52-.54.84-.25.23-.48.41-.52.42-.09 0-.92 1.15-.92 1.27a.1.1 0 0 1-.1.1c-.05 0-.09.06-.09.14 0 .25-.17.07-.23-.25-.06-.25-.1-.29-.4-.29-.2 0-.38.07-.46.17-.14.19-.18.86-.05.94.06.04.08.9.02 1.25 0 .03-.25.08-.55.1-.65.03-.65.1-.12.92.8 1.26.76 1 .76 4.15 0 2.8 0 2.8-.2 2.75-.27-.07-.65.12-.65.34 0 .14-.07.18-.35.19-.2 0-.28.03-.19.06.24.06.22.47-.02.47-.14 0-.19-.06-.19-.27 0-.26-.01-.27-.52-.27-.46 0-.53-.03-.6-.24-.1-.27-.33-.34-.69-.2-.18.06-.26.16-.26.31 0 .13.05.23.1.23s.1.17.1.38c0 .37-.02.39-.4.5l-1.8.48c-.28.08-.35.15-.35.34v.24h2.54v1.85c0 1.17-.03 1.85-.1 1.85-.05 0-.09.27-.09.63 0 .5-.03.63-.14.63-.08 0-.2.11-.25.25-.1.24-.14.25-.57.2-.53-.08-.73.03-.73.39V38h20.29c16.15 0 20.3-.02 20.33-.12a.64.64 0 0 0 0-.3c-.04-.13-.16-.16-.65-.16-.54 0-.6-.02-.6-.2 0-.13-.06-.2-.19-.2-.17 0-.18-.06-.18-.67 0-.4-.05-.68-.1-.68-.06 0-.1-.68-.1-1.85v-1.85H49v-.24c0-.2-.06-.26-.4-.35l-1-.3c-.33-.1-.72-.18-.87-.18-.25 0-.26-.02-.26-.49 0-.26.04-.48.1-.48.2 0 .07-.37-.18-.48-.33-.14-.77.03-.77.3 0 .16-.09.18-.9.18-.8 0-.88-.02-.88-.19s-.37-.35-.62-.31c-.17.02-.23-.83-.23-3.38v-2.37l.3-.59c.17-.32.4-.7.52-.83a.93.93 0 0 0 .21-.52c0-.27 0-.27-.37-.21-.52.08-.66-.06-.66-.7 0-.29.04-.55.1-.58.13-.09.1-.75-.04-.95-.16-.22-.81-.24-.81-.02 0 .08-.04.14-.1.14-.05 0-.09.15-.1.32 0 .3 0 .3-.29-.25-.19-.36-.6-.86-1.12-1.37-.55-.53-.83-.89-.83-1.02 0-.12-.08-.33-.17-.47-.09-.14-.19-.54-.22-.9l-.05-.63-.02.6c0 .36-.06.63-.14.7-.07.06-.16.29-.2.5-.03.21-.14.46-.25.56a9.36 9.36 0 0 0-1.62 1.81l-.26.48-.15-.3c-.12-.27-.2-.32-.5-.32-.31 0-.36.03-.41.28-.04.15-.05.46-.04.68.01.22-.01.43-.05.48-.04.04-.36.07-.7.07-.57 0-.74-.05-1.54-.46a13.82 13.82 0 0 0-1.6-.75 48.83 48.83 0 0 0-2.94-1.32.93.93 0 0 1-.49-.99.85.85 0 0 0-.28-.76c-.06-.05-.13-.38-.14-.73l-.04-.63-.01.57ZM16.76 17.1c.02.26.11.43.33.63 1.06.96 1.26 1.17 1.45 1.49.29.49.58 1.06.58 1.12 0 .03-.17.06-.38.06-.33 0-.37-.03-.32-.18.03-.1 0-.3-.04-.45a4.2 4.2 0 0 0-.83-1.15c-.06-.05-.12-.13-.12-.2s-.08-.2-.2-.3c-.17-.15-.2-.15-.41-.01-.29.2-.41.19-.63-.02-.2-.19-.14-.23-.6.42l-.28.37c-.3.35-.7 1.05-.7 1.27 0 .21-.04.25-.28.25-.34 0-.35-.1-.03-.67.33-.58.77-1.1 1.66-1.94.36-.35.44-.48.44-.76 0-.27.03-.34.16-.31.12.02.18.14.2.38Zm22.83.01c.03.36.05.38 1.01 1.25.15.13.38.39.51.56.24.34.75 1.28.75 1.4 0 .04-.12.08-.28.08-.24 0-.28-.04-.28-.24 0-.28-.18-.74-.3-.74-.04 0-.08-.04-.08-.1 0-.07-.13-.28-.3-.47l-.52-.64c-.2-.26-.21-.27-.38-.12-.22.21-.47.21-.69.01-.15-.14-.18-.14-.4.12-.13.16-.26.36-.3.45-.02.1-.08.17-.12.17-.15 0-.76 1.07-.76 1.31 0 .21-.05.25-.3.25-.26 0-.28-.02-.22-.26.03-.15.21-.5.4-.78.32-.52.42-.62 1.42-1.59.41-.4.5-.52.45-.71-.07-.27 0-.38.22-.34.09.02.15.16.17.39Zm-.4 1.28c.15.12.22.12.43 0 .26-.13.26-.13.87.72.63.87.73 1.13.47 1.23-.08.03-.82.06-1.64.06-1.31 0-1.51-.02-1.56-.16-.08-.21.27-.9.73-1.42.2-.23.36-.45.37-.49 0-.11.13-.09.33.06Zm-21.99.16a7 7 0 0 1 1.08 1.62c0 .06-.07.14-.15.17-.2.08-2.9.08-3.08 0-.23-.1-.18-.43.13-.87l.52-.74c.23-.33.26-.35.77-.34.32 0 .62.07.73.16Zm11.74.73c.46.8.5.92.29.92-.08 0-.23-.22-.34-.49-.12-.27-.22-.47-.24-.45-.02.02.07.29.2.59s.23.62.23.7c0 .2-.25.18-.36-.03-.1-.16-.1-.16-.1 0 0 .2-.36.23-.44.04a5.5 5.5 0 0 1-.02-.95l.03-.82.21.78c.19.69.2.58.05-.28-.03-.2-.02-.26.06-.21.13.08.13.04.01-.28-.15-.42-.03-.28.42.48Zm-12.85-.36c-.36.4-.05 1.09.49 1.09.5 0 .8-.93.39-1.17-.28-.15-.71-.11-.88.08Zm22.83 0c-.22.25-.2.65.05.89.27.27.54.25.85-.05.3-.28.3-.34.11-.73-.12-.24-.2-.29-.5-.29-.23 0-.41.07-.51.18Zm-11.73.41c-.1.28-.13.47-.08.44.05-.04.1-.1.1-.14 0-.15.29-.81.33-.76.03.02-.02.34-.1.7-.08.36-.13.7-.12.76.02.06.1-.17.16-.52.18-.9.29-.93.29-.09 0 .86-.1 1.08-.37.9-.12-.08-.2-.09-.2-.03s-.06.1-.15.1c-.12 0-.14-.07-.09-.41.06-.37.05-.4-.06-.23-.16.22-.37.12-.28-.12.1-.27.63-1.09.7-1.09.03 0-.03.22-.13.5Zm-10.37-.24c.15.12.16.17.07.38-.12.28-.43.33-.64.1-.38-.39.12-.83.57-.48Zm14.35.27c.48.24 1.01.49 1.18.56.17.08.3.17.3.2 0 .17-.48.07-.82-.15a5.95 5.95 0 0 0-1.61-.8c.08-.04.07-.09-.02-.14-.35-.23.18-.05.97.33Zm8.53-.28c.07.09.1.25.06.4-.05.18-.12.24-.34.24-.18 0-.31-.07-.37-.2-.22-.4.36-.8.65-.44Zm-14.46.21c-.63.46-1.54.9-1.68.83-.13-.08-.12-.1.04-.21.21-.13 1.63-.75 1.77-.77.05 0 0 .07-.13.15Zm1.43.34c-.14.28-.34.52-.43.55-.09.02-.19.15-.22.28-.03.14-.13.23-.23.23-.26 0-.23-.11.15-.49.18-.18.33-.37.33-.43 0-.05-.2.13-.43.41-.24.28-.5.5-.59.5-.1 0 0-.16.31-.48.26-.26.42-.48.37-.48-.05 0-.3.22-.56.49-.25.26-.55.48-.65.48-.17 0-.15-.04.1-.27.7-.63 1.27-1.05 1.2-.87-.08.23.33.13.6-.16l.28-.26c.02 0-.08.23-.23.5Zm2.9.07c.14.06.27.4.18.45-.05.03-.22-.14-.38-.38-.33-.5-.4-.8-.08-.38.12.15.25.3.29.31Zm-15.96-.27c.17.2.22.58.07.58-.06 0-.1.09-.1.2 0 .12-.06.19-.19.19-.12 0-.18-.07-.18-.2 0-.1-.05-.2-.1-.2s-.1-.1-.1-.23c0-.14.05-.25.1-.25s.1-.06.1-.14c0-.21.2-.18.4.05Zm6.4.04c.17.27.2.54.05.54-.05 0-.09.09-.09.2 0 .12-.06.19-.19.19-.1 0-.19-.07-.19-.15a.24.24 0 0 0-.14-.2c-.07-.04-.14-.15-.14-.25s.07-.21.14-.24c.08-.03.14-.12.14-.2 0-.21.25-.15.42.11Zm16.5-.04c.06.12.08.36.04.59-.05.3-.1.38-.25.38-.1 0-.2-.08-.24-.2-.02-.1-.08-.2-.13-.2-.11 0-.1-.2.04-.5.14-.32.4-.35.54-.07Zm6.3-.05c0 .08.03.14.09.14.05 0 .1.11.1.25 0 .13-.05.24-.1.24s-.1.09-.1.2c0 .32-.3.19-.4-.18a.8.8 0 0 1 .01-.56c.12-.26.4-.33.4-.1Zm-17.32.14c0 .14-.18.35-.6.68-.59.46-.88.6-.88.41 0-.04.32-.27.7-.5.39-.25.7-.48.7-.52.01-.1-.04-.06-.85.48-.62.42-.83.5-.83.33 0-.06 1.37-.9 1.74-1.07l.02.2Zm5.6.15c.3.19.57.34.6.34.2 0 .57.36.5.47-.05.09-.3-.04-.93-.48a4.65 4.65 0 0 0-.9-.56c-.03.02.3.28.72.57.54.36.72.54.6.56-.2.04-1.5-1.01-1.42-1.15.1-.16.26-.1.83.25Zm-.42.85c.01.04-.03.07-.1.07-.12 0-1.02-.99-1.02-1.12 0-.08 1.06.92 1.12 1.05Zm-.25-.68c.72.58.87.75.7.75-.1 0-.4-.24-.7-.53-.6-.6-.6-.71 0-.22Zm-7.59.58c-.08.27-.04.24-.36.28-.38.05-.4-.12-.03-.31.42-.22.47-.22.4.03Zm10.7.02c.15.03.25.11.23.18-.07.2-.33.19-.54-.02-.2-.22-.27-.49-.07-.33.06.06.24.13.38.17Zm-10.01.12c.08.18.08.3.02.36a.45.45 0 0 0-.1.27c0 .1-.06.18-.13.18-.08 0-.14-.09-.14-.2 0-.1-.05-.19-.1-.19s-.1-.09-.1-.2c0-.1.05-.19.1-.19s.1-.06.1-.14c0-.24.22-.17.35.11Zm3.17.02c.07.36-.1.81-.3.77-.22-.04-.36-.53-.23-.82.14-.33.45-.3.53.04Zm3.05-.13c0 .08.04.14.1.14.05 0 .09.09.09.2 0 .1-.04.2-.08.2-.05 0-.1.08-.14.2-.07.3-.28.17-.38-.24-.06-.25-.06-.39.03-.5.16-.2.38-.2.38 0Zm3.2.08c.1.2.1.3-.02.54-.07.17-.18.3-.26.28-.2-.04-.33-.54-.2-.82.13-.3.32-.3.47 0Zm-19.28.43c-.03.29-.07.36-.22.36s-.2-.07-.22-.36c-.02-.34 0-.37.22-.37.23 0 .24.03.22.37Zm.56 0c-.02.24-.07.36-.17.36s-.15-.12-.17-.36c-.02-.32 0-.37.17-.37s.2.05.17.37Zm.58.03c0 .32-.03.39-.16.36-.3-.06-.27-.76.02-.76.1 0 .14.1.14.4Zm.57 0c0 .32-.03.39-.17.36-.29-.06-.27-.76.02-.76.1 0 .15.1.15.4Zm.56 0c0 .32-.03.39-.16.36-.3-.06-.28-.76.02-.76.1 0 .14.1.14.4Zm.56 0c0 .32-.03.39-.16.36-.12-.02-.17-.14-.2-.4-.02-.3 0-.36.17-.36.16 0 .2.06.2.4Zm.57 0c0 .32-.03.39-.17.36-.11-.02-.17-.14-.19-.4-.03-.3 0-.36.16-.36.17 0 .2.06.2.4Zm.56 0c0 .32-.03.39-.16.36-.12-.02-.18-.14-.2-.4-.02-.3 0-.36.17-.36.16 0 .2.06.2.4Zm.57 0c0 .32-.03.39-.17.36-.11-.02-.17-.14-.2-.4-.02-.3 0-.36.17-.36s.2.06.2.4Zm.56 0c0 .32-.03.39-.17.36-.11-.02-.17-.14-.19-.4-.02-.3 0-.36.17-.36.16 0 .19.06.19.4Zm.56 0c0 .5-.22.47-.26-.04-.02-.27 0-.36.12-.36.1 0 .14.1.14.4Zm.56-.26c.15.19.1.6-.09.6-.1 0-.15-.13-.17-.37-.03-.38.07-.47.26-.23Zm16.64.2c0 .3-.03.34-.23.34-.16 0-.24-.07-.28-.26-.07-.27.05-.41.34-.42.13 0 .17.08.17.34Zm.66 0c0 .3-.03.34-.24.34-.2 0-.23-.04-.23-.34 0-.3.02-.34.23-.34.2 0 .24.04.24.34Zm.54-.02c-.02.2-.08.32-.2.34-.12.03-.16-.03-.16-.31 0-.29.04-.35.2-.35s.19.05.16.32Zm.58.02c0 .24-.04.34-.14.34s-.14-.1-.14-.34c0-.24.04-.34.14-.34s.14.1.14.34Zm.66 0c0 .28-.04.34-.19.34s-.19-.06-.19-.34c0-.27.04-.34.2-.34.14 0 .18.07.18.34Zm.61 0c0 .2-.05.3-.16.32-.14.03-.17-.03-.17-.32 0-.28.03-.35.17-.32.1.02.16.12.16.32Zm.61 0c0 .28-.03.34-.19.34-.15 0-.18-.06-.18-.34 0-.27.03-.34.18-.34.16 0 .2.07.2.34Zm.66 0c0 .3-.03.34-.24.34-.2 0-.23-.04-.23-.34 0-.3.03-.34.23-.34.21 0 .24.04.24.34Zm.56 0c0 .28-.03.34-.18.34-.16 0-.2-.06-.2-.34 0-.27.04-.34.2-.34.15 0 .18.07.18.34Zm.57 0c0 .28-.04.34-.2.34-.14 0-.18-.06-.18-.34 0-.27.04-.34.19-.34s.19.07.19.34Zm.7-.28c.08.04.14.18.14.35 0 .26-.02.28-.3.25-.2-.02-.32-.08-.34-.2-.07-.39.13-.55.5-.4Zm-21.84.53c0 .25-.04.29-.29.29-.25 0-.28-.04-.28-.3 0-.25.03-.29.28-.29s.29.04.29.3Zm.65 0c0 .22-.04.29-.19.29-.1 0-.21-.07-.24-.15-.09-.23.03-.44.24-.44.15 0 .2.07.2.3Zm.74-.03c-.02.2-.1.28-.24.3-.18.03-.21-.01-.21-.27 0-.25.03-.3.24-.3.2 0 .23.04.2.27Zm.58-.2.06.3c.05.18.02.22-.2.22-.2 0-.24-.04-.24-.3 0-.22.05-.29.2-.29.1 0 .18.04.18.08Zm1.36.23c0 .19-.05.24-.26.27-.27.03-.29 0-.2-.35.09-.32.46-.26.46.08Zm.57 0c0 .15-.07.25-.17.27-.13.02-.16-.04-.16-.27 0-.24.03-.3.16-.28.1.02.17.12.17.28Zm.56 0c0 .15-.06.25-.17.27-.12.02-.16-.04-.16-.27 0-.24.04-.3.16-.28.1.02.17.12.17.28Zm.7-.22.06.29c.05.2.02.22-.23.22-.27 0-.3-.03-.3-.3 0-.24.04-.29.24-.29.13 0 .23.04.24.08Zm1.23.22c0 .21-.05.29-.18.29-.25 0-.29-.08-.17-.35.15-.33.35-.3.35.06Zm.65 0c0 .24-.03.29-.23.29s-.24-.05-.24-.3c0-.24.04-.29.24-.29.2 0 .23.05.23.3Zm.66 0c0 .24-.04.29-.23.29-.2 0-.24-.05-.24-.3 0-.24.04-.29.24-.29.2 0 .23.05.23.3Zm.6-.08c.09.34.07.37-.13.37-.21 0-.33-.21-.25-.44.08-.22.32-.18.38.07Zm1.28.08c0 .24-.04.29-.23.29-.26 0-.27-.03-.18-.37.03-.13.13-.22.23-.22.14 0 .18.07.18.3Zm.61 0c0 .17-.06.25-.21.27-.18.03-.21-.01-.21-.27 0-.27.03-.3.2-.28.16.02.22.1.22.28Zm.61 0c0 .22-.04.29-.19.29-.14 0-.18-.07-.18-.3 0-.22.04-.29.18-.29.15 0 .2.07.2.3Zm.64.03c.03.24 0 .27-.19.24-.16-.02-.22-.1-.24-.3-.03-.25 0-.28.18-.25.16.02.23.1.25.3Zm1.15-.03c0 .22-.04.29-.2.29-.2 0-.2-.04-.12-.37.09-.33.32-.27.32.08Zm.7 0c0 .17-.06.25-.21.27-.18.03-.21-.01-.21-.27 0-.27.03-.3.21-.28.15.02.21.1.21.28Zm.52 0c0 .22-.04.29-.19.29s-.19-.07-.19-.3c0-.22.04-.29.19-.29s.19.07.19.3Zm.66 0c0 .22-.05.29-.2.29-.14 0-.18-.07-.18-.3 0-.22.04-.29.19-.29.14 0 .19.07.19.3Zm.45-.04c-.04.38-.27.42-.27.04 0-.2.05-.3.15-.3.1 0 .14.08.12.26Zm7.09.52c.04.14.14.2.48.21l.44.03-.45.69-.45.68-.03 4.6c-.02 4.08 0 4.62.12 4.72.13.1.15.36.12 1.71l-.02 1.6-.74.04c-.69.02-.75 0-.96-.22a.68.68 0 0 0-.5-.25h-.3v-1.43c-.02-2.4.02-3.38.12-3.5.06-.07.07-.22.03-.34-.04-.12-.1-1.05-.13-2.07-.06-1.82-.06-1.85-.27-1.88-.28-.04-.27-.21 0-.21.28 0 .45-.17.45-.46 0-.17-.06-.22-.24-.22-.22 0-.23-.04-.23-.44v-.44h.94v3.83c0 3.61-.02 3.86-.19 4.26-.14.3-.19.63-.19 1.2 0 1.25-.02 1.22.9 1.22.96 0 .94.02.92-1.28 0-.78-.04-1-.2-1.28-.2-.33-.21-.4-.21-4.75 0-3.54.02-4.46.13-4.61.06-.1.17-.33.23-.5l.1-.32h-6.67l.15.28c.08.16.14.33.14.4 0 .06-2.59.1-8.36.1-7.22 0-8.37-.03-8.37-.15 0-.07.05-.16.1-.2.05-.03.1-.14.1-.25 0-.18-.1-.18-3.3-.18-1.81 0-3.28.03-3.26.07.39.77.38.7.42 4.89.03 2.91 0 4.2-.07 4.61-.07.33-.18 1.17-.2 1.88V35H15l-.04-1.3a71.15 71.15 0 0 1-.19-8.62l.06-.6h.82v.44c0 .4-.02.44-.24.44-.15 0-.23.05-.23.15 0 .29.2.53.42.53.3 0 .4.17.12.21-.21.03-.21.04-.24 1.9-.02 1.56-.05 1.9-.16 1.94-.17.07-.19.38-.02.45.08.03.11.34.1 1.1l-.02 2.45-.01 1.38h-.43c-.38 0-.42.02-.42.24 0 .24 0 .25-.79.25-.63 0-.8-.03-.84-.16-.03-.08-.06-.84-.06-1.69 0-1.45.01-1.54.19-1.58.18-.05.19-.14.19-4.52v-4.47l-.52-.8c-.29-.44-.52-.82-.52-.84 0-.02.21-.04.47-.04.32 0 .49-.05.54-.15.08-.14.5-.15 3.57-.13 3.61.03 3.88.06 3.6.41-.06.08-.09.2-.05.25.06.1 15.36.16 15.36.06 0-.02-.04-.16-.1-.3-.07-.2-.05-.26.08-.3.09-.03.23-.09.3-.14.08-.04 1.65-.08 3.5-.09 3.23 0 3.34 0 3.39.19Zm-7.73.1c.1.06.19.15.19.2 0 .06-2.69.1-7.34.1-7.3 0-7.33-.01-7.23-.2.1-.2.2-.2 7.15-.2 4.68 0 7.11.04 7.23.1Zm-15.7.8c0 .12-.06.3-.14.4-.08.12-.14.41-.14.72v.51l-2.6-.02-2.61-.03-.05-.64c-.02-.35-.1-.71-.17-.8-.11-.14-.11-.17 0-.21a46.1 46.1 0 0 1 2.85-.08c1.5-.01 2.76-.03 2.8-.04.04-.02.07.07.06.2Zm22.93-.05c0 .04-.06.18-.14.32-.07.13-.13.5-.14.8v.56h-2.53c-1.39 0-2.6-.03-2.67-.06-.12-.04-.14-.15-.1-.47.05-.3.01-.5-.14-.81l-.2-.41h2.96c1.63 0 2.96.03 2.96.07Zm-28.13.83c-.14.65-.22.6 1.05.63l1.16.03-.03-.41-.03-.42-1.05-.03c-1.03-.03-1.06-.02-1.1.2Zm2.55-.15c-.19.05-.2.14-.06.29.07.08.07.16 0 .31-.1.2-.1.2 1.07.2h1.18v-.32c0-.5-.12-.55-1.13-.54-.49 0-.97.03-1.06.06Zm20.3.3c-.07.52.08.6 1.11.6.98 0 1.22-.05 1.07-.24-.12-.15-.02-.44.16-.44s.26.27.14.43c-.18.21-.02.25.92.25 1.26 0 1.32-.02 1.32-.54v-.43c-.64 0-1.72-.2-2.28.11-.15.09-.21.09-.24 0-.09-.27-1.84-.11-2.16-.11l-.04.37Zm-16.82.29.03.41h-.76v-.89l.35.03c.35.03.36.05.38.45Zm16.26 0 .03.41h-.76v-.89l.35.03c.34.03.35.05.38.45Zm-20.47-.12c0 .24 0 .24-.8.24-.78 0-.8 0-.8-.24s.02-.25.8-.25c.8 0 .8 0 .8.25Zm2.62.02c.03.21 0 .22-.77.22-.8 0-.97-.07-.87-.35.04-.12.21-.14.83-.12.73.03.78.05.8.25Zm20.22-.02c0 .25 0 .25-.78.22-.72-.03-.78-.04-.8-.25-.03-.21-.01-.22.77-.22.8 0 .8 0 .8.25Zm2.67 0c0 .17-.07.2-.79.22-.8.03-1.01-.04-.91-.32.05-.13.2-.15.88-.13.75.03.82.05.82.23Zm-19.32.12c-.03.14-.15.17-.85.17-.44 0-.84-.03-.87-.07-.18-.18.12-.27.9-.27.76 0 .85.02.82.17Zm9.79-.04c0 .08-.07.16-.15.2-.2.07-7.54.07-7.82 0-.11-.04-.2-.12-.2-.2 0-.11.66-.13 4.08-.13 3.43 0 4.09.02 4.09.13Zm3.46.04c-.03.14-.16.17-.86.2-.77.02-.82.01-.82-.17 0-.19.06-.2.86-.2.76 0 .84.02.82.17ZM14.5 28.44l.02 3.92h-.27c-.16 0-.3-.06-.33-.15-.08-.22-.07-7.58.01-7.67.1-.11.4-.03.54 0l.03 3.9Zm2.56-3.08h-1.13v-.88h1.13v.88Zm1.31 2.98c0 3.7 0 3.86-.19 4.17-.16.28-.2.46-.18 1.37V35h1.69v-1.27c0-.74-.04-1.29-.1-1.32-.06-.04-.09-1.48-.09-4v-3.93h.75c.44 0 .75.04.75.1 0 .05-.17.1-.37.1-.32 0-.4.04-.47.23a.73.73 0 0 1-.18.3c-.07.04-.1.72-.08 2.03l.02 1.96h.17l.02-1.74c.03-1.12-.06-1.9 0-1.9.15 0 .13 4.49-.02 4.54-.07.02-.07-.88-.17-.9-.02-.26-.02.77-.03 1.72-.01 1.63 0 1.73.17 1.83.18.1.2.2.2 1.41v1.31h-2.54l-.02-1.38c-.01-2.28.03-3.53.12-3.56.11-.05.1-.5-.01-.5-.06 0-.1-.66-.1-1.77 0-1.47-.02-1.8-.14-1.94-.14-.15-.13-.19.1-.41.3-.32.3-.55 0-.55-.22 0-.24-.04-.24-.44v-.44h.94v3.86Zm.75.09v3.94l-.2-.03-.22-.03-.02-3.91-.03-3.92h.47v3.95Zm5.17-3.85c0 .05-.19.1-.42.1-.3 0-.42.04-.42.14 0 .07-.09.29-.2.47-.18.33-.19.46-.16 3.85.02 3.07.01 3.51-.11 3.51-.13 0-.14-.45-.12-3.61.03-3.02 0-3.64-.1-3.77a.88.88 0 0 1-.17-.35c-.03-.16-.12-.2-.48-.22-.25-.02-.45-.08-.45-.13s.55-.09 1.32-.09c.81 0 1.31.04 1.31.1Zm3.34 0c-.03.05-.22.1-.41.1-.34 0-.37.03-.56.46-.18.42-.2.68-.23 2.8a77 77 0 0 0 .02 3.52c.05 1.1.04 1.2-.11 1.2-.16 0-.17-.25-.17-3.63 0-3.45-.01-3.64-.19-3.87a.93.93 0 0 1-.18-.36c0-.08-.14-.12-.37-.12-.2 0-.4-.05-.43-.1-.04-.06.42-.1 1.31-.1.9 0 1.36.04 1.32.1Zm3.33 0c0 .05-.2.1-.47.1-.43 0-.47.01-.47.23 0 .13-.05.3-.11.37-.15.16-.22 6.72-.08 7.11.09.24.08.26-.13.26h-.23v-3.6c-.01-3.03-.04-3.65-.15-3.82a.83.83 0 0 1-.14-.38c0-.14-.08-.17-.42-.17-.24 0-.43-.05-.43-.1 0-.06.5-.1 1.32-.1.81 0 1.31.04 1.31.1Zm3.3 0c0 .05-.2.1-.43.1-.34 0-.42.03-.43.17 0 .09-.08.28-.18.41-.18.23-.19.42-.19 3.63 0 2.15.04 3.45.1 3.57.08.17.06.2-.14.2h-.24v-3.58c0-3.52 0-3.58-.21-3.99-.18-.36-.26-.41-.52-.41-.17 0-.3-.05-.3-.1 0-.06.48-.1 1.26-.1.79 0 1.27.04 1.27.1Zm2.25 3.77c0 3.53-.02 3.89-.17 4.1-.13.2-.16.44-.14 1.3V35h1.62v-1.27c0-1-.03-1.27-.14-1.37-.12-.1-.14-.64-.12-3.98l.03-3.85.44-.03.45-.03v.44c0 .39-.03.45-.2.45-.16 0-.18.05-.16.31.03.28.07.32.34.35.35.04.41.21.07.21h-.24v1.65c0 .92-.05 1.86-.1 2.15-.08.3-.09.52-.03.56.05.04.1 1.1.12 2.4.02 1.84 0 2.33-.1 2.4a7.2 7.2 0 0 1-2.5-.05c-.06-.07-.08-.16-.05-.2.03-.03.05-.54.04-1.14-.02-1.04 0-1.08.22-1.3l.24-.23V28.9c0-2.1-.03-3.55-.09-3.55-.04 0-.13-.16-.19-.34-.1-.34-.2-.38-.63-.35-.12.01-.22-.03-.22-.08 0-.07.28-.1.76-.1h.75v3.86Zm.82-.12c.02 2.03 0 3.79-.02 3.91-.06.24-.32.3-.5.1-.09-.08-.11-1-.11-3.48 0-1.86.02-3.58.06-3.83.05-.42.08-.46.3-.43l.25.03.02 3.7Zm2.64-3.29.02.42h-1.23v-.89l.59.03.59.03.03.41Zm2.09-.34c.03.89-.03 7.51-.07 7.62-.03.08-.15.14-.28.14h-.22v-7.88h.28c.16 0 .28.05.29.12Zm-19.78.4c.07.11.13.24.13.28 0 .12-.8.09-.92-.04-.08-.08-.16-.08-.32 0-.26.13-.92.2-.92.1 0-.04.04-.17.09-.3.08-.23.12-.24.94-.24.76 0 .87.02 1 .2Zm3.26-.16c.07.02.36.63.32.67-.04.05-.97-.23-1.08-.27-.26-.1-.34-.1-.37 0-.06.2-.65.12-.82.12l.02 2.2c.03 1.66 0 2.23-.09 2.34-.1.13-.12.12-.18-.08-.03-.13-.07-1.1-.07-2.16-.01-1.9 0-1.93.22-2.28.13-.2.24-.41.24-.47 0-.12 1.44-.17 1.8-.07Zm3.55.52.26.53-.05 2.07c-.05 1.9-.13 2.42-.26 1.85-.03-.12-.04-1.17-.03-2.34l.03-2.11h-.35c-.2 0-.46-.05-.59-.12-.19-.08-.27-.08-.35 0-.06.07-.24.12-.4.12a.76.76 0 0 0-.44.16c-.1.09-.17.11-.17.06 0-.06.06-.16.14-.22.07-.07.14-.2.14-.3 0-.22.14-.25 1.07-.24h.74l.26.54Zm3.02-.52c.1.03.17.14.17.28 0 .13.04.24.1.24.04 0 .09.05.09.11 0 .1-.03.1-.12 0-.06-.06-.23-.11-.37-.11-.15 0-.37-.07-.49-.15-.2-.13-.23-.13-.34 0-.07.09-.27.15-.52.15h-.41l-.03 2.35c-.02 1.77-.05 2.36-.14 2.39-.1.03-.12-.45-.12-2.18 0-2.05.02-2.25.19-2.54.1-.18.19-.38.19-.46 0-.11.16-.14.82-.13.45 0 .9.03.98.05Zm3.58.37.25.42v2.24c0 1.28-.03 2.25-.08 2.25-.14 0-.26-.5-.2-.81.03-.16.04-1.11.02-2.12l-.03-1.83h-.3c-.15 0-.43-.06-.61-.12-.26-.1-.34-.1-.37 0-.02.06-.2.12-.4.12-.37 0-.46.13-.47.65 0 .12-.04.22-.1.22-.14 0-.1-.74.04-.86a.75.75 0 0 0 .2-.34c.04-.22.08-.23.92-.23h.87l.26.41ZM22.6 27.75c0 1.5-.03 2.27-.1 2.23-.05-.04-.09-.89-.09-2.23 0-1.9.03-2.3.16-2.3.02 0 .03 1.04.03 2.3Zm-5.21-2c-.04.05-.31.1-.61.1s-.58-.05-.61-.1c-.04-.07.18-.1.6-.1.43 0 .65.03.62.1Zm4.69-.04c.12.05.15.3.15 1.75 0 1.06-.04 1.69-.1 1.69-.06 0-.1-.43-.1-1.1v-1.1l-.36-.12c-.54-.17-.92-.06-1 .29-.11.54-.23.27-.23-.55v-.82c.11 0 .75-.05.75.1 0 .14.25.11.38-.06.12-.15.27-.18.5-.08Zm3.38.03c.03.04.03.35 0 .68-.06.5-.1.59-.22.53-.6-.25-.65-.26-.94-.14-.28.12-.23.32-.43.5-.12.1-.14 0-.14-.73v-.83c.1 0 .75-.05.75.1 0 .15.35.1.41-.06.06-.15.49-.2.57-.05Zm2.38.12c.1.1.14.1.23 0 .06-.06.27-.11.47-.11h.36l-.03.68c-.01.46-.06.68-.14.68-.06 0-.12-.04-.12-.1 0-.05-.16-.14-.36-.2-.38-.1-.78-.01-.9.2-.13.21-.24-.12-.24-.7v-.56h.31c.17 0 .36.05.42.11Zm3.34 0c.03.1.08.1.24 0 .1-.06.33-.11.48-.11h.3l-.07.65c-.04.36-.08.68-.1.7-.02.02-.1-.03-.2-.11-.3-.29-.67-.32-.96-.09-.15.11-.3.2-.33.2-.02 0-.05-.3-.05-.67v-.68h.33c.17 0 .34.05.36.12Zm3.29 0c.03.1.08.1.24 0 .1-.06.32-.11.48-.11h.28v.68c0 .7-.1.84-.33.5-.16-.21-.97-.2-1.13.03-.19.26-.23.17-.23-.53v-.68h.32c.18 0 .34.05.37.12Zm-17.43 2.18c.02 1.13.01 1.19-.17 1.24-.11.03-.35.03-.52 0l-.33-.06v-2.41l.5.03.5.02.02 1.18Zm22.89-1.1c.15.12.16.23.1 1.17-.08 1.19-.15 1.3-.8 1.19-.42-.08-.47-.22-.47-1.48 0-.76.02-.82.21-.9.32-.13.77-.12.96.02Zm-18.26.22.27.15v.96c0 1.07 0 1.07-.7 1.07-.37 0-.43-.02-.48-.25a5.2 5.2 0 0 1 0-1.05c.07-1.02.28-1.22.9-.88Zm3.17-.09.3.06v2.21H24.1v-1.06c0-.91.03-1.08.17-1.16.2-.12.2-.12.57-.05Zm3.57.16c.33.29.08 1.62.06 2.07l-1.15.08v-1.07c0-.91.2-1.11.33-1.2.18-.1.56-.05.76.12Zm3.24-.1c.2.16.32 1.86.15 2.08-.1.14-.7.18-.97.08-.22-.1-.22-1.85 0-2.1.19-.2.59-.23.82-.06Zm3.24-.06c.2.06.11.1.11 1.17v1.1h-1v-1.01c0-.94.08-1.03.27-1.17.23-.16.3-.17.62-.09Zm-1.38.94v1.9c0 .07-.05.1-.1.07-.06-.04-.1-.52-.1-1.13 0-.64.04-1.06.1-1.06.05 0 .1.1.1.22Zm-16.1 1.74c-.02.22-.06.23-.9.25-.88.03-.89.03-.83-.19l.06-.28c0-.03.31-.04.7-.01.48.03.7 0 .76-.07.1-.18.26.03.22.3Zm22.62-.3c.12-.21.24-.1.24.23v.35h-1.7v-.34c0-.33.02-.34.25-.25.2.08 1.07.24 1.21 0Zm-29.98.15c.16.06.2.33.05.33-.19 0 .03.58-.23.58-.2 0-.15-.52-.3-.64s-.15-.14-.03-.23c.16-.11.3-.12.51-.04Zm2.86.03c.1.06.1.13.02.28-.09.17-.03.6-.29.6-.32 0-.08-.58-.28-.58-.14 0-.12-.27.02-.33a.58.58 0 0 1 .53.03Zm30.83.07c.03.03-.02.1-.12.17-.09.07-.16.24-.16.38 0 .2-.05.26-.19.26-.16 0-.19-.06-.19-.42 0-.23.04-.45.07-.5.07-.06.5.01.6.11Zm2.58-.1c.16.06.2.33.05.33-.05 0-.1.13-.1.29 0 .23-.03.3-.18.3-.14 0-.19-.07-.19-.3 0-.16-.04-.3-.09-.3-.16 0-.1-.27.07-.31.26-.07.28-.07.44-.01Zm-23.97.57c.05.12-.03.15-.36.15-.22 0-.44-.05-.47-.1-.03-.05-.14-.1-.24-.1-.1 0-.18.05-.18.1s-.2.1-.42.1c-.4 0-.57-.12-.31-.23.06-.03.52-.05 1.02-.06.73 0 .92.02.96.14Zm3.26 0c.1.13.06.15-.32.15-.24 0-.43-.05-.43-.1s-.09-.1-.19-.1-.2.05-.24.1c-.03.05-.22.1-.42.1-.29 0-.36-.03-.32-.15.05-.11.24-.14.93-.14.66 0 .9.03.99.14Zm3.36.03c.02.08-.1.12-.4.12-.23 0-.43-.05-.43-.1s-.08-.1-.18-.1c-.1 0-.2.05-.2.1s-.2.1-.44.1c-.41 0-.43-.02-.26-.16.24-.18 1.85-.16 1.9.04Zm3.16-.12c.08.04.15.11.15.18 0 .13-.72.09-.8-.05-.08-.12-.42-.11-.42.01 0 .05-.17.1-.38.1-.35 0-.46-.08-.31-.23a6.42 6.42 0 0 1 1.76 0Zm3.44.1c.1.12.06.14-.31.14-.26 0-.44-.05-.47-.12-.03-.1-.09-.1-.3 0-.28.13-.9.16-.9.04 0-.18.16-.21 1-.21.65 0 .89.03.98.14Zm-18.25 1.04.03.65-.35-.24c-.43-.3-.64-.3-.94 0a1.3 1.3 0 0 1-.27.24c-.08 0-.05-1.22.02-1.3.04-.03.38-.05.77-.04l.71.03.03.66Zm3.67-.44c.03.25-.1.28-.3.07-.08-.08-.19-.14-.25-.14s-.08-.05-.04-.1c.03-.06.17-.1.3-.08.18.02.27.1.29.25Zm1.27-.2c.07.07-.4.42-.57.42-.13 0-.17-.31-.06-.42.08-.09.55-.09.63 0Zm2.11.25.03.28-.33-.23c-.36-.24-.36-.4.02-.35.2.02.26.09.28.3Zm1.1-.23c.07.13-.35.42-.46.3-.13-.13 0-.39.21-.39.1 0 .21.04.24.1Zm2.2.15c0 .29-.06.3-.35.1-.29-.21-.26-.34.07-.34.24 0 .29.04.29.24Zm1.16-.18c.06.06-.32.43-.44.43-.03 0-.06-.11-.06-.25 0-.19.05-.24.22-.24.12 0 .25.03.28.06Zm2.12.2c.03.26-.1.3-.3.08-.08-.08-.19-.14-.25-.14s-.08-.05-.04-.1c.03-.06.17-.1.3-.08.18.02.27.1.29.25Zm1.14-.17c0 .05-.1.16-.2.25-.24.16-.42.06-.33-.19.06-.16.53-.21.53-.06Zm2.24.18c.04.26 0 .26-.37.07-.32-.18-.27-.36.09-.32.18.02.26.1.28.25Zm1.14-.18c0 .1-.36.4-.49.4-.09 0-.1-.33 0-.42.09-.1.5-.08.5.02Zm4.78.57c.03.67-.04.73-.43.41-.3-.24-.46-.24-.85 0l-.35.2c-.07 0-.05-1.13.02-1.2.22-.23 1.26-.03 1.58-.02l.03.6Zm-27.42-.12c0 .27-.04.34-.19.34-.14 0-.19-.07-.19-.3v-.29H10l.04.3c.03.23 0 .29-.13.29s-.17-.08-.17-.34v-.34h3.1v.34Zm7.42-.2c.07.08.17.15.24.15.06 0 .17.07.24.15.1.14.1.18-.06.3-.37.26-.42.34-.42.67 0 .23-.04.34-.14.34-.11 0-.14-.17-.14-.88 0-.87.06-1.01.28-.73Zm10.43.5c0 .07-.04.13-.09.13-.19 0-.38.33-.38.65 0 .23-.04.33-.12.3-.12-.04-.2-1.12-.12-1.5l.06-.23.33.26c.18.14.32.32.32.39Zm1.88.18c0 .49-.04.83-.1.83-.04 0-.09-.11-.09-.25 0-.36-.16-.63-.38-.63-.29 0-.21-.23.17-.5.2-.14.36-.26.38-.26.01 0 .02.36.02.81Zm13.72-.48c0 .27-.04.34-.19.34-.14 0-.19-.07-.19-.3v-.29h-2.44v.3c0 .22-.04.29-.19.29s-.19-.07-.19-.34v-.34h3.2v.34Zm-24.8.05c0 .19-.05.29-.15.29-.1 0-.14-.1-.14-.3 0-.19.05-.29.14-.29.1 0 .14.1.14.3Zm1.12.54c0 .53-.03.8-.1.77-.04-.03-.09-.19-.09-.34 0-.2-.08-.34-.28-.49-.24-.17-.26-.23-.17-.39.1-.16.4-.36.57-.38.04 0 .07.37.07.83Zm1.12-.7c.14.08.31.21.38.3.1.13.08.16-.17.25-.25.1-.3.16-.3.44 0 .35-.16.53-.29.32-.1-.16-.06-1.44.04-1.45.04 0 .2.07.34.14Zm1.09-.04c.08.13-.03.49-.15.49-.05 0-.09-.13-.09-.3 0-.28.13-.38.24-.19Zm1.13.19a2 2 0 0 1 0 .64c-.07.34-.08.34-.18.13a.96.96 0 0 0-.38-.37l-.28-.13.32-.28c.4-.34.44-.34.52 0Zm1.2-.1c.33.18.32.4-.03.61-.2.12-.28.24-.28.41 0 .14-.05.25-.1.25-.07 0-.09-.09-.05-.22.03-.12.05-.45.05-.73 0-.29.04-.5.08-.49l.33.17Zm.91.1c0 .17-.04.3-.1.3-.04 0-.09-.13-.09-.3 0-.16.05-.29.1-.29s.1.13.1.3Zm1.22.55c0 .62-.03.82-.11.8-.07-.03-.14-.22-.17-.43-.03-.27-.1-.4-.26-.48-.28-.12-.26-.28.05-.52.45-.35.5-.29.5.63Zm2.16-.54c0 .19-.04.29-.14.29s-.14-.1-.14-.3c0-.19.05-.29.14-.29.1 0 .14.1.14.3Zm2.36-.08c.33.25.35.42.05.5-.22.06-.34.3-.34.72 0 .13-.04.2-.1.17a3.9 3.9 0 0 1-.02-1.54c.08-.1.1-.09.4.15Zm1.03.08c0 .2-.05.29-.15.29-.17 0-.27-.23-.2-.44.1-.27.35-.17.35.15Zm1.12.53c0 .66-.02.83-.13.83-.1 0-.15-.14-.17-.42-.02-.32-.07-.43-.24-.5-.11-.06-.2-.14-.2-.2 0-.16.4-.54.57-.54.15 0 .17.1.17.83Zm-23.58-.58c0 .12-.18.14-1.08.14-.9 0-1.08-.02-1.08-.14 0-.12.18-.15 1.08-.15.9 0 1.08.03 1.08.15Zm33.45 0c0 .12-.18.14-1.08.14-.9 0-1.08-.02-1.08-.14 0-.12.18-.15 1.08-.15.9 0 1.08.03 1.08.15Zm-36.27.2c0 .23 0 .23-.8.23s-1.07-.12-.5-.22c.3-.05 1.3-.5 1.3-.02Zm37.94-.05c.27.08.5.17.5.21 0 .04-.35.07-.76.07-.75 0-.75 0-.75-.25 0-.28.03-.28 1-.03Zm-38.78.53c0 .05-.35.1-.8.12-.68.03-.8 0-.8-.12 0-.3 1.6-.12 1.6 0Zm4.22 0c0 .12-.28.14-2.02.14-1.73 0-2.02-.02-2.02-.14 0-.26 4.04-.26 4.04 0Zm33.83 0c0 .12-.27.14-1.83.14-1.57 0-1.84-.02-1.84-.14 0-.13.27-.15 1.84-.15 1.56 0 1.83.02 1.83.15Zm2.16 0c0 .12-.17.14-.99.14-.81 0-.98-.02-.98-.14 0-.12.17-.15.98-.15.82 0 .99.03.99.15Zm-32.06.07c.2.2.12.27-.3.27-.24 0-.43-.04-.43-.08 0-.15.22-.31.42-.31.11 0 .25.05.31.12Zm5.21.01c.24.19.1.26-.2.1a1.1 1.1 0 0 0-1.04.01c-.3.16-.5.03-.22-.14.24-.14 1.27-.12 1.46.03Zm3.36.02c.18.21.05.28-.2.1-.27-.2-.8-.2-1.14-.01-.21.11-.26.11-.26 0 0-.18.15-.22.86-.23.45 0 .66.03.74.14Zm3.3 0c.06.08.08.18.04.21-.03.04-.1.01-.14-.06-.12-.2-.8-.25-1.14-.07-.35.18-.49.13-.22-.08.25-.2 1.3-.2 1.45 0Zm3.29-.05c.33.18.09.28-.3.12a.97.97 0 0 0-.78-.05c-.4.11-.57.07-.34-.08a2.73 2.73 0 0 1 1.42.01Zm3.36.03c.16.2.03.25-.26.1a1.1 1.1 0 0 0-1.05.01c-.24.13-.28.13-.28.01 0-.2.15-.23.86-.24.41 0 .66.03.73.12Zm4.34-.03c.31.17.2.29-.29.29-.5 0-.54-.03-.35-.25.14-.16.39-.18.64-.04Zm-29.14 2.04v1.85h-.84v-3.7h.84v1.85Zm1.6.2c0 1.74-.02 2.03-.14 2.03-.08 0-.14.1-.14.2 0 .17-.06.2-.46.2h-.45l-.06-.6c-.04-.33-.06-1.34-.06-2.24v-1.64h1.31v2.04Zm.75-1.86c0 .11-.04.2-.09.2-.06 0-.1.61-.1 1.64 0 1.72-.02 1.96-.24 1.96-.1 0-.13-.35-.13-1.93 0-1.06.03-1.96.06-2 .04-.03.16-.06.28-.06.16 0 .22.06.22.2ZM43.62 34c.03 1.84.02 1.97-.13 1.94-.15-.03-.17-.2-.2-1.77-.02-1.48-.05-1.76-.17-1.86-.22-.16-.07-.36.23-.32l.25.03.03 1.98Zm1.52-.25c0 .97-.03 1.97-.07 2.2l-.06.45-.5.02c-.47.03-.49.02-.49-.21 0-.16-.05-.25-.14-.25-.12 0-.14-.28-.14-1.93 0-1.06.03-1.96.06-2 .04-.03.36-.06.71-.06h.64v1.78Zm1.14.07v1.85h-.85v-1.79c0-.98.03-1.8.07-1.84.03-.04.22-.07.42-.07h.36v1.85ZM21.7 32.4c.12.18.14.48.12 1.53l-.03 1.3h-.94l-.02-1.3c-.03-1.45.06-1.77.5-1.77.13 0 .28.1.37.24Zm3.28-.05c.13.15.15.37.13 1.53l-.03 1.35h-.94l-.02-1.35c-.03-1.16 0-1.38.13-1.53.08-.1.25-.19.36-.19.11 0 .28.09.37.19Zm3.38.03c.12.17.15.5.15 1.56v1.29h-.99l-.02-1.3c-.02-1.05 0-1.35.12-1.53.18-.3.55-.3.74-.02Zm3.25-.12c.12.08.14.36.14 1.53v1.44l-.89.06v-1.45c0-1 .04-1.48.11-1.56.14-.14.45-.15.64-.02Zm3.33.06c.12.12.15.4.15 1.56v1.4l-.99-.05-.02-1.3c-.03-1.05 0-1.35.11-1.53.17-.27.53-.3.75-.08Zm-17.71.2c.3.4.24.59-.08.24-.27-.3-.55-.37-1-.25-.36.1-.53 1.14-.36 2.2l.06.37h.69c.55 0 .7-.03.78-.17.08-.14.1-.13.1.1v.27h-.75c-1.13 0-1.13 0-1.13-1.23 0-1.4.22-1.78 1.05-1.79.37 0 .48.05.64.26Zm22.8-.05c.13.12.23.3.23.4 0 .15-.05.13-.25-.11-.3-.37-.66-.4-1.13-.1-.26.17-.32.18-.32.05 0-.42 1.1-.6 1.48-.24Zm-30.03 1.35c0 1.14.02 1.36.14 1.36.12 0 .14-.22.14-1.36 0-1.15-.02-1.36-.14-1.36-.12 0-.14.21-.14 1.36Zm4.68-1.25c.2.22.12.28-.44.28-.6 0-.72-.06-.56-.26.13-.16.85-.17 1-.02Zm4.57-.05c.08.03.15.12.15.19 0 .1-.15.14-.57.14-.56 0-.66-.06-.45-.28.12-.12.62-.15.87-.05Zm18.36.16c.02.14-.05.17-.54.17-.41 0-.57-.04-.57-.13 0-.23.12-.27.6-.24.37.02.48.07.5.2Zm4.6-.1c.2.2.12.27-.4.27-.5 0-.68-.1-.57-.3.08-.13.83-.12.97.02Zm3.45 0c-.03.07-.04.67-.03 1.34.03 1.07.05 1.21.2 1.24.15.03.16-.06.14-1.3-.02-.96-.06-1.35-.15-1.38-.06-.02-.14.02-.16.1Zm-28.73.29c.08.07.12.44.12 1.02v.9h-1.04v-.87c0-.47.03-.93.06-1.02.07-.18.7-.21.87-.03Zm22.94.01c.07.1.14.45.12 1v.86h-1v-1.98l.36-.01c.24 0 .46.06.52.13Zm-.57 2.2c.44 0 .77-.04.84-.11.1-.1.12-.07.12.1 0 .2-.03.21-.87.19l-.87-.03.05-.15h.73Zm-28.55 1.07c0 .27-.02.3-.33.3-.21 0-.33.04-.32.12.03.23 0 .34-.15.4-.3.12-.42-.04-.42-.59v-.52h1.22v.3Zm35.7.24c0 .3-.03.55-.07.58-.15.1-.45-.05-.54-.26-.06-.15-.19-.23-.4-.25-.26-.02-.3-.06-.3-.31v-.29h1.32v.53Z" fill="#D51E26"/></svg>