<!-- by TradingView --><svg width="56" height="56" viewBox="0 0 56 56" xmlns="http://www.w3.org/2000/svg"><path fill="#F0F3FA" d="M0 0h56v56H0z"/><path d="M26.9 14.03 25.87 13a3.41 3.41 0 0 0-4.82 0L13 21.04a3.4 3.4 0 0 0 0 4.81L24.15 37l2.6-2.6-10.97-10.94 7.68-7.67.85.85 2.6-2.6ZM29.27 21.59l2.6-2.6L43 30.13a3.4 3.4 0 0 1 0 4.81l-8.05 8.04a3.41 3.41 0 0 1-4.82 0l-1.02-1.02 2.6-2.59.83.83 7.68-7.67L29.27 21.6Z" fill="#0C4DA2"/><path d="M30.14 13a3.4 3.4 0 0 1 4.81 0L43 21.05a3.41 3.41 0 0 1 0 4.82l-1.26 1.26-2.6-2.6 1.09-1.08-7.68-7.67-11.2 11.19-2.58-2.58 11.38-11.4ZM13.8 29.35l-.79.78a3.41 3.41 0 0 0 0 4.82L21.06 43a3.4 3.4 0 0 0 4.81 0l10.9-10.9-2.6-2.6-10.71 10.7-7.68-7.68.6-.59-2.59-2.58Z" fill="#ED1C24"/></svg>