<!-- by TradingView --><svg width="56" height="56" viewBox="0 0 56 56" xmlns="http://www.w3.org/2000/svg"><path fill="#F0F3FA" d="M0 0h56v56H0z"/><path d="M9 25H5c.4.4.5.83.5 1v6h4L21 25h-4c0 .4-.67.83-1 1l-6.5 4-.5-5ZM24.58 25h-2.85c.16.17.2 1.2-.95 4-1.14 2.8-.78 3-.47 3h2.85c-.48-1 .47-3 1.42-5 .76-1.6.32-2 0-2ZM22 23.5c0-.28.22-.5.5-.5h2a.5.5 0 0 1 0 1h-2a.5.5 0 0 1-.5-.5ZM40.58 25h-2.85c.16.16.2 1.18-.95 3.95-1.14 2.76-.78 3.08-.47 3.05h2.85c-.48-.99.47-3.05 1.42-5.03.76-1.58.32-1.97 0-1.97ZM38 23.5c0-.28.22-.5.5-.5h2a.5.5 0 0 1 0 1h-2a.5.5 0 0 1-.5-.5ZM24.5 32h3c-.4-.4-.17-1.17 0-1.5l1-2.5.5 4 3.5-3.5c-.84 2.44-1.35 3.35-1.5 3.5h4c-.17-.17-.4-.9 0-2.5s1.83-3.67 2.5-4.5H34l-4 4-.5-4H26c-.17.67-.7 2.5-1.5 4.5s-.33 2.5 0 2.5ZM42.8 25H48.68c1.14 0 3.14.8 1.96 4-.33 1-1.66 3-4.4 3h-4.42c-.49 0-1.27-.1-.49-2.5.42-1.27.74-2.09.98-2.7.33-.81.5-1.22.5-1.8Zm2.03 5h.91c.33 0 1.08-.2 1.47-1 .5-1 .5-2-.49-2h-1.05l-.84 3Z" fill="#138CCD"/></svg>