<!-- by TradingView --><svg width="56" height="56" viewBox="0 0 56 56" xmlns="http://www.w3.org/2000/svg"><path fill="#F0F3FA" d="M0 0h56v56H0z"/><path d="M28 10 11 41l17-25.58L44.96 41 28 10Z" fill="#3266CC"/><path d="M28 18.35 11 41l17-20.6L44.96 41 28 18.35Z" fill="#3266CC"/><path d="M22.69 36c-1.42 0-4-2.12-5.1-3.18l-3.04 3.6c.27.44 1.33 1.32 3.43 1.32 2.62 0 2.2-.92 4.7-.92 2.51 0 2.46 1.16 5.34 1.16 2.87 0 3.56-1.16 5.7-1.16 2.15 0 3.06.92 4.76.92a5.7 5.7 0 0 0 3.16-1.14l-2.9-3.63c-1.1 1-3.65 3.03-5.02 3.03-1.7 0-.9-.39-2.14-.39-1.25 0-1.56 1.7-3.56 1.7s-2.19-1.7-3.27-1.7-.3.4-2.06.4Z" fill="#3266CC"/><path d="M17.73 38.98a6.02 6.02 0 0 1-4.05-1.5l.55-.58c.4.4 1.69 1.27 3.5 1.27a7.6 7.6 0 0 0 2.5-.4l.07-.03c.67-.2 1.36-.41 2.44-.41 1.05 0 1.74.25 2.42.5l.15.06c.72.26 1.5.51 2.83.51 1.34 0 2.3-.25 3.18-.52l.28-.09c.76-.23 1.5-.46 2.36-.46.91 0 1.5.2 2.08.4l.1.04c.59.2 1.2.4 2.25.4 1.66 0 2.92-.77 3.32-1.12l.51.62a6.17 6.17 0 0 1-3.83 1.31 6.86 6.86 0 0 1-2.5-.44l-.1-.03a4.98 4.98 0 0 0-1.83-.37c-.73 0-1.36.2-2.13.43l-.3.1c-.89.27-1.94.55-3.4.55a8.12 8.12 0 0 1-3.08-.56l-.15-.06c-.67-.25-1.25-.46-2.16-.46-.97 0-1.56.18-2.22.39a8.36 8.36 0 0 1-2.79.46Z" fill="#3266CC"/><path d="M17.76 39.79c-2.54 0-4.05-1.2-4.48-1.79L11 41h34l-2.15-2.76a5.91 5.91 0 0 1-4.1 1.55c-2.66 0-2.17-.85-4.72-.85s-2.53 1.09-5.7 1.09c-3.18 0-3.32-1.1-5.46-1.1-2.15 0-1.93.86-5.11.86Z" fill="#3266CC"/><path d="m21.93 29.36-1.02 1.3a2.72 2.72 0 0 0-.57 1.68A2.64 2.64 0 0 0 22.97 35h2.4a3 3 0 0 1 2.56 2c.33-.66 1.3-2 2.53-2h2.04c1.71 0 3.1-1.4 3.1-3.14a3.2 3.2 0 0 0-.73-2.04l-.5-.61a12.27 12.27 0 0 0-3.86 3.01 15.05 15.05 0 0 0-2.47 3.8.13.13 0 0 1-.12.08.13.13 0 0 1-.11-.07c-1.34-3.19-4.06-5.5-5.88-6.67Zm.16-.2c1.8 1.15 4.45 3.4 5.84 6.5.43-.95 1.24-2.31 2.39-3.61A12.57 12.57 0 0 1 34.19 29l-2-2.41a7.37 7.37 0 0 0-2.55 1.93 9.22 9.22 0 0 0-1.5 2.32.13.13 0 0 1-.12.08.13.13 0 0 1-.12-.08 9.66 9.66 0 0 0-3.84-4.22l-1.97 2.54Zm2.13-2.75c1.09.65 2.86 2.07 3.8 4.07.28-.58.76-1.38 1.43-2.14a7.68 7.68 0 0 1 2.56-1.96l-3.4-4.1a.76.76 0 0 0-1.2.02l-3.2 4.11Z" fill="#00CC65"/></svg>