<!-- by TradingView --><svg width="56" height="56" viewBox="0 0 56 56" xmlns="http://www.w3.org/2000/svg"><path fill="#F0F3FA" d="M0 0h56v56H0z"/><path fill-rule="evenodd" d="M28 45a17 17 0 1 0 0-34 17 17 0 0 0 0 34Zm0 1a18 18 0 1 0 0-36 18 18 0 0 0 0 36Z" fill="#2957A4"/><path fill-rule="evenodd" d="M28 43a15 15 0 1 0 0-30 15 15 0 0 0 0 30Zm0 1a16 16 0 1 0 0-32 16 16 0 0 0 0 32Z" fill="#EC3237"/><path d="M27.9 37.8a9.39 9.39 0 0 0 8.78-6.1l.7.26a10.13 10.13 0 0 1-18.66.76l.67-.32a9.38 9.38 0 0 0 8.5 5.4Z" fill="#EC3237"/><path d="m26.45 13.89-.62 1 .93.58-.62.75 1.02.74a11.52 11.52 0 0 0-2.91.81 12.97 12.97 0 0 0-2.9 1.65 7.85 7.85 0 0 0-2.7 3.75c-.17.53-.29 1.1-.33 1.7l-1.48.56-1.19.45-1.37.52c.02-.71.13-1.58.37-2.52a13.6 13.6 0 0 1 3.15-5.79 12.64 12.64 0 0 1 3.25-2.5 14.1 14.1 0 0 1 3.7-1.39c.54-.12 1.1-.23 1.7-.31Z" fill="#FFF112"/><path fill-rule="evenodd" d="m26.65 13.76-.68 1.09.94.6-.62.75 1.13.82-.24.04a11.41 11.41 0 0 0-2.9.8 12.89 12.89 0 0 0-2.87 1.64 7.75 7.75 0 0 0-2.67 3.7 7.25 7.25 0 0 0-.32 1.68v.07l-4.24 1.6v-.15c.02-.72.13-1.6.37-2.54a13.7 13.7 0 0 1 3.18-5.83A12.72 12.72 0 0 1 21 15.5a14.2 14.2 0 0 1 3.72-1.4c.55-.13 1.12-.24 1.72-.32l.2-.03Zm-.56 2.36.52-.63-.8-.5c-.42.05-.9.15-1.43.3l-.26.6.72.52c.46-.14.88-.23 1.25-.29Zm-1.49.36-.73-.53.26-.58c-.5.15-1.04.36-1.6.61l-.2.64.8.43c.5-.23 1-.42 1.47-.57Zm-1.26.69c.51-.23 1-.4 1.47-.54l.8.57c-.44.12-.9.28-1.36.46l-.9-.49Zm-.44-.01-.81-.44.2-.62c-.44.21-.89.46-1.34.74l-.13.87.65.25c.47-.3.95-.58 1.43-.8Zm-1.2.89c.47-.3.95-.56 1.42-.78l.9.5c-.45.18-.9.4-1.35.65l-.97-.37Zm-.44.05-.67-.26.14-.86c-.47.31-.94.66-1.4 1.05v.74l.8.21c.36-.32.74-.62 1.13-.88Zm-.9.95c.36-.32.74-.6 1.13-.87l.96.37c-.38.23-.76.48-1.12.76l-.98-.26Zm-.41.1-.82-.23v-.71c-.37.33-.73.7-1.08 1.1l.1.83h.84c.3-.36.62-.7.96-1Zm-.7 1c.3-.34.6-.66.92-.95l.97.27c-.26.2-.51.43-.75.67h-1.14Zm-.42.2h-.86l-.1-.84c-.38.45-.73.94-1.06 1.47l.26.92.8-.12c.3-.52.61-1 .96-1.44Zm-.7 1.4c.28-.51.6-.98.95-1.4h1.12c-.35.37-.67.79-.94 1.24l-1.13.16Zm-.36.25-.84.12-.26-.9c-.3.5-.57 1.05-.81 1.63l.48.9c.22-.1.52-.23.85-.35.16-.5.35-.96.58-1.4Zm-.34 1.31c.16-.47.36-.92.58-1.34l1.12-.16c-.22.4-.4.81-.56 1.26-.33 0-.75.1-1.14.24Zm-.32.33-.77.33-.08.04-.5-.91c-.19.48-.36 1-.5 1.53.18.32.35.7.46 1.12l1.03-.39c.08-.6.2-1.18.36-1.72Zm-.15 1.64c.08-.61.22-1.19.39-1.73.4-.14.83-.26 1.16-.28-.14.48-.24 1-.29 1.54l-1.26.47Zm-1.43.54a5.1 5.1 0 0 0-.83-1.71c-.2.79-.29 1.52-.31 2.14l1.14-.43Zm-.77-1.96c.1.12.23.3.36.53.15-.54.32-1.04.51-1.52l-.34-.63c-.22.55-.4 1.1-.53 1.62Zm.63-1.86.34.63c.26-.6.55-1.16.86-1.68l-.23-.81c-.39.61-.7 1.24-.97 1.86Zm1.11-2.09.24.81c.34-.53.7-1.03 1.1-1.48l-.11-.92c-.46.51-.87 1.05-1.23 1.6Zm1.4-1.78.12.9c.36-.39.73-.75 1.11-1.09V17c-.44.36-.85.74-1.22 1.14Zm1.43-1.3v.94c.47-.4.96-.74 1.44-1.05l.15-.94c-.58.33-1.1.68-1.59 1.05Zm1.81-1.17-.14.92c.46-.29.92-.53 1.37-.74l.28-.88c-.54.21-1.04.45-1.51.7Zm1.75-.79-.28.86c.57-.26 1.12-.45 1.62-.6l.34-.78c-.59.15-1.15.32-1.68.52Zm1.93-.58-.34.76c.48-.13.91-.21 1.29-.26l.48-.77c-.5.07-.97.16-1.43.27Zm1.03 2.84-.8-.57c.39-.11.75-.19 1.06-.24l.8.58a12 12 0 0 0-1.06.23Z" fill="#756B2F"/><path d="m30.32 14.12.58 1.02-.87.61.58.77-.96.76a12.22 12.22 0 0 1 4.21 1.62 10.3 10.3 0 0 1 2.1 1.76 8.03 8.03 0 0 1 1.69 3.01 21.06 21.06 0 0 1 .55 3.15l1.29.32.83-.32.06 1.75.07 1.75.07 1.77.63-.45 1.03-1.32a103.8 103.8 0 0 0-.4-3.5 14.94 14.94 0 0 0-2.02-6.52 13.15 13.15 0 0 0-2.66-3.2 12.19 12.19 0 0 0-3.36-2.05 13.93 13.93 0 0 0-3.42-.93Z" fill="#FFF112"/><path d="m30.13 14 .64 1.11-.89.62.6.77-1.07.85.22.03a12.1 12.1 0 0 1 5.4 2.51 8.93 8.93 0 0 1 1.9 2.3c.25.47.46.97.62 1.51a21 21 0 0 1 .55 3.13v.07l1.4.34.72-.27.2 5.32.8-.58 1.06-1.36v-.03a103.92 103.92 0 0 0-.4-3.5 15.03 15.03 0 0 0-2.04-6.56 13.23 13.23 0 0 0-2.68-3.23 12.28 12.28 0 0 0-3.38-2.07 14.05 14.05 0 0 0-3.45-.94l-.2-.03Zm10.29 12.83c.07-.31.2-.66.33-.99.09.44.18 1.07.26 1.8l-.54.66-.05-1.47Zm.07 1.77.55-.69c.05.5.08 1.04.1 1.59l-.6.59-.05-1.49Zm.06 1.76.6-.59c0 .62-.03 1.23-.1 1.81l-.44.32-.06-1.54Zm.74.94c.05-.56.06-1.15.05-1.72l.61-.62c.07.61.12 1.1.13 1.33l-.8 1Zm.64-2.59-.6.6c-.02-.57-.06-1.11-.11-1.62l.5-.62c.07.56.15 1.13.2 1.64Zm-.25-1.92-.5.62c-.08-.76-.19-1.4-.27-1.81l-.02-.07c.16-.36.34-.67.46-.87.1.47.21 1.27.33 2.13Zm-.39-2.4c-.11.15-.3.46-.48.83-.14-.54-.3-1.06-.48-1.55l.47-.94c.2.56.37 1.12.5 1.65Zm-.59-1.92-.47.95c-.17-.45-.36-.88-.57-1.3l.17-1.5c.34.61.63 1.24.87 1.85Zm-1.04-2.15-.17 1.49c-.29-.56-.61-1.07-.95-1.55v-1.54c.42.52.8 1.06 1.12 1.6Zm-1.32-1.83v1.5c-.3-.4-.6-.78-.92-1.13l-.2-1.5c.41.35.78.73 1.12 1.13ZM37 17.15l.18 1.47c-.42-.44-.85-.83-1.28-1.18l-.35-1.35c.52.33 1 .68 1.45 1.06Zm-1.7-1.2.34 1.29a13.3 13.3 0 0 0-1.31-.89l-.42-1.11c.5.2.96.45 1.4.7Zm-1.64-.82.4 1.06c-.54-.3-1.05-.53-1.54-.72l-.42-.87c.55.15 1.07.33 1.56.53Zm-1.81-.6.4.85c-.47-.17-.9-.27-1.29-.33l-.45-.8c.46.08.9.17 1.34.28Zm-.92.72c.41.06.9.18 1.45.38l.28.59-.76.53a8.32 8.32 0 0 0-1.23-.33l-.5-.65.76-.52Zm-.3 1.37c.32.06.68.15 1.07.27l-.82.57c-.35-.1-.69-.18-1-.24l.76-.6Zm.5.92.8-.57c.44.15.9.35 1.38.6l-.92.44c-.44-.19-.86-.35-1.26-.47Zm1.5.58.9-.44c.4.23.8.49 1.21.79l-.87.32a11.8 11.8 0 0 0-1.25-.67Zm1.45.8.85-.3c.38.28.75.6 1.1.97l-.9.12c-.33-.29-.69-.55-1.05-.78Zm1.26.97.87-.12c.27.3.53.6.79.95l-.98-.15a9.03 9.03 0 0 0-.68-.68Zm.88.91.94.14c.3.42.57.87.82 1.35l-.9-.23a8.07 8.07 0 0 0-.86-1.26Zm1 1.5.88.23c.2.42.4.86.56 1.33a4.2 4.2 0 0 0-.42-.17c-.17-.07-.35-.11-.52-.12-.13-.45-.3-.87-.5-1.27Zm.56 1.48c.12 0 .25.04.4.1.18.06.38.15.57.25.2.6.36 1.24.48 1.93l-1.13-.68c-.1-.61-.23-1.25-.32-1.6Zm.36 1.86 1.14.68.1.69-1.09-.27c-.02-.25-.08-.66-.15-1.1ZM39.57 27l-.07-.55.59.35-.52.2Zm-.11-.8c-.12-.7-.27-1.33-.46-1.93l.3.17.09.05.32.19.1.05.4-.81c.17.5.33 1.03.47 1.59-.17.37-.33.78-.43 1.16l-.8-.48Zm.65-2.54-.4.79-.22-.13-.09-.06-.49-.27c-.16-.5-.35-.96-.56-1.4l1.22.32.05-.4c.18.36.34.75.5 1.15Zm-.65-1.5-.06.5-1.16-.3c-.25-.5-.52-.95-.8-1.38l1.1.17v-.54c.33.48.63 1 .92 1.56Zm-1.12-1.84v.6l-1.07-.16c-.26-.37-.53-.7-.82-1.02l1.06-.14-.05-.39c.3.35.6.72.88 1.11Zm-1.11-1.37.05.48-1 .13c-.36-.38-.74-.72-1.13-1.03l.94-.35-.1-.41c.41.35.83.75 1.24 1.18Zm-1.51-1.4.13.5-.88.34c-.41-.31-.82-.58-1.23-.81l.89-.43-.19-.5c.42.26.85.56 1.28.9Zm-1.55-1.06.2.56-.84.41c-.48-.26-.95-.47-1.4-.63l.78-.55-.26-.54c.48.2 1 .44 1.52.75Z" fill="#756B2F"/><path d="M23.78 21.74h8.76l.3.37h-3.86l5.14 1.6.33.6-5.16-1.68 3.8 3.75h-.26l-3.96-3.55h-.5l1.44 3.13-.43.1-1.58-3.12-.99 2.93h-.47l.93-2.93-2.58 2.35-.6-.11 2.83-2.55L23.3 24l-.8-.17 4.56-1.72h-3.9l.63-.37Z" fill="#F58635"/><path d="m30.01 17.76-2.72-.17-.06 1.02c-.67.05-1.3.17-1.92.35l-.59-.92-2.4 1.52.43.66c-.54.39-1.04.83-1.48 1.32l-1.01-.59-1.43 2.46.9.52c-.1.25-.2.5-.28.76l1.9.3a7.01 7.01 0 0 1 13.6 2.1l1.83.29a8.9 8.9 0 0 0-.24-1.95l.93-.37-1.07-2.63-.94.38a8.92 8.92 0 0 0-1.15-1.49l.55-.72-2.27-1.7-.54.71a8.82 8.82 0 0 0-2.1-.79l.06-1.06Z" fill="#3E4095"/><path d="m28 20.14.36 1.1h1.16l-.94.7.36 1.1-.94-.69-.94.69.36-1.1-.94-.7h1.16l.36-1.1Z" fill="#FFF112"/><path fill-rule="evenodd" d="m28.36 21.25-.36-1.1-.36 1.1h-1.16l.94.68-.36 1.1.94-.68.94.69-.36-1.1.94-.7h-1.16Zm.4.25h-.58l-.18-.56-.18.56h-.58l.47.34-.18.55.47-.34.47.34-.18-.55.47-.34Z" fill="#EC3237"/><path d="m18.84 24.36-4.76 2.17 3.3-.22 1.46-1.95Z" fill="url(#aeqcz4xah)"/><path d="M14 31.75v-5.34l3.37-.24v6.61L14 31.75Z" fill="#AAABAF"/><path d="M19 26.2h-1.63v6.55l1.63.61v-7.15Z" fill="url(#beqcz4xah)"/><path d="M20.51 26.4 19 26.2v7.17l1.51.26V26.4Z" fill="#AAABAF"/><path d="m40.7 29.35-20.21.24v1l20.2.17v-1.41Z" fill="#949597"/><path d="M22.07 33.64h-1.56V30.1h1.56v3.55Z" fill="url(#ceqcz4xah)"/><path d="M22.07 26.4h-1.56v3.5h1.56v-3.5Z" fill="url(#deqcz4xah)"/><path d="M23.63 33.51h-1.56V30.1h1.56v3.42Z" fill="url(#eeqcz4xah)"/><path d="M23.63 26.53h-1.56v3.37h1.56v-3.37Z" fill="url(#feqcz4xah)"/><path d="M25.19 33.35h-1.56v-3.22h1.56v3.22Z" fill="url(#geqcz4xah)"/><path d="M25.19 26.7h-1.56v3.22h1.56v-3.23Z" fill="url(#heqcz4xah)"/><path d="M26.75 33.22h-1.56v-3.09h1.56v3.09Z" fill="url(#ieqcz4xah)"/><path d="M26.75 26.83h-1.56v2.96h1.56v-2.96Z" fill="url(#jeqcz4xah)"/><path d="M28.3 33.22h-1.55v-3.09h1.56v3.09Z" fill="url(#keqcz4xah)"/><path d="M28.3 26.83h-1.55v3.07h1.56v-3.07Z" fill="url(#leqcz4xah)"/><path d="M29.87 33.1H28.3v-2.84h1.56v2.84Z" fill="url(#meqcz4xah)"/><path d="M29.87 26.95H28.3v2.97h1.56v-2.97Z" fill="url(#neqcz4xah)"/><path d="M31.43 32.97h-1.56v-2.7h1.56v2.7Z" fill="url(#oeqcz4xah)"/><path d="M31.43 27.08h-1.56v2.84h1.56v-2.84Z" fill="url(#peqcz4xah)"/><path d="M32.99 32.8h-1.56v-2.54h1.56v2.53Z" fill="url(#qeqcz4xah)"/><path d="M32.99 27.25h-1.56v2.65h1.56v-2.65Z" fill="url(#reqcz4xah)"/><path d="M34.55 32.7h-1.56v-2.51h1.56v2.5Z" fill="url(#seqcz4xah)"/><path d="M34.55 27.64h-1.56v2.28h1.56v-2.28Z" fill="url(#teqcz4xah)"/><path d="M36.1 32.54h-1.55V30.2h1.55v2.34Z" fill="url(#ueqcz4xah)"/><path d="M36.1 27.79h-1.55v2.12h1.55v-2.12Z" fill="url(#veqcz4xah)"/><path d="M37.66 32.38H36.1v-2.2h1.56v2.2Z" fill="url(#weqcz4xah)"/><path d="M37.66 27.93H36.1v1.99h1.56v-2Z" fill="url(#xeqcz4xah)"/><path d="M39.22 32.22h-1.56V30.2h1.56v2.03Z" fill="url(#yeqcz4xah)"/><path d="M39.22 28.07h-1.56v1.85h1.56v-1.85Z" fill="url(#zeqcz4xah)"/><path d="M40.78 32.22h-1.56V30.2h1.56v2.03Z" fill="url(#aaeqcz4xah)"/><path d="M40.78 28.28h-1.56v1.64h1.56v-1.64Z" fill="url(#abeqcz4xah)"/><path d="m39.14 27-20.3-2.75-1.5 1.9 23.37 2.23L39.14 27Z" fill="url(#aceqcz4xah)"/><path d="m18.77 24.09 20.44 2.76 1.95 1.73-24.1-2.3 1.71-2.2Zm.13.32-1.27 1.63 22.64 2.15-1.2-1.05L18.9 24.4Z" fill="#fff"/><path d="M38.18 36.42c-.56.69-1.27 1.44-1.91 1.9l-.73-1c.52-.37 1.15-1.03 1.68-1.68a10.82 10.82 0 0 0 .83-1.18l.04-.1v.02l1.22.24c-.03.15-.1.3-.16.41l-.25.42c-.19.29-.44.63-.72.97Zm-18.55 2.23c-.79-.6-1.6-1.3-2.07-2l1.03-.7a8.44 8.44 0 0 0 1.78 1.72c.75.56 1.53 1.06 2.03 1.34l-.6 1.08c-.55-.3-1.38-.83-2.17-1.44Zm12.4 2.12a9.9 9.9 0 0 1-3.92.5l.14-1.23a8.7 8.7 0 0 0 3.4-.45 6.8 6.8 0 0 0 2.5-1.3l.88.88a7.93 7.93 0 0 1-3 1.6Zm-6.86.36c-.61-.1-1.22-.24-1.65-.45l.54-1.11c.26.13.72.25 1.3.34.56.08 1.17.13 1.71.13v1.24c-.6 0-1.28-.05-1.9-.15Z" fill="#EC3237"/><defs><linearGradient id="aeqcz4xah" x1="17.87" y1="25.03" x2="14.98" y2="26.36" gradientUnits="userSpaceOnUse"><stop stop-color="#CACCDF"/><stop offset="1" stop-color="#7F818E"/></linearGradient><linearGradient id="beqcz4xah" x1="17.37" y1="29.79" x2="19.12" y2="29.79" gradientUnits="userSpaceOnUse"><stop stop-color="#343333"/><stop offset=".99" stop-color="#C6C7C9"/></linearGradient><linearGradient id="ceqcz4xah" x1="22.07" y1="31.87" x2="20.51" y2="31.87" gradientUnits="userSpaceOnUse"><stop stop-color="#DDDEE0"/><stop offset=".7" stop-color="#7F8082"/></linearGradient><linearGradient id="deqcz4xah" x1="22.07" y1="28.15" x2="20.51" y2="28.15" gradientUnits="userSpaceOnUse"><stop stop-color="#DDDEE0"/><stop offset=".7" stop-color="#7F8082"/></linearGradient><linearGradient id="eeqcz4xah" x1="23.63" y1="31.8" x2="22.07" y2="31.8" gradientUnits="userSpaceOnUse"><stop stop-color="#DDDEE0"/><stop offset=".7" stop-color="#7F8082"/></linearGradient><linearGradient id="feqcz4xah" x1="23.63" y1="28.21" x2="22.07" y2="28.21" gradientUnits="userSpaceOnUse"><stop stop-color="#DDDEE0"/><stop offset=".7" stop-color="#7F8082"/></linearGradient><linearGradient id="geqcz4xah" x1="25.19" y1="31.74" x2="23.63" y2="31.74" gradientUnits="userSpaceOnUse"><stop stop-color="#DDDEE0"/><stop offset=".7" stop-color="#7F8082"/></linearGradient><linearGradient id="heqcz4xah" x1="25.19" y1="28.31" x2="23.63" y2="28.31" gradientUnits="userSpaceOnUse"><stop stop-color="#DDDEE0"/><stop offset=".7" stop-color="#7F8082"/></linearGradient><linearGradient id="ieqcz4xah" x1="26.75" y1="31.67" x2="25.19" y2="31.67" gradientUnits="userSpaceOnUse"><stop stop-color="#DDDEE0"/><stop offset=".7" stop-color="#7F8082"/></linearGradient><linearGradient id="jeqcz4xah" x1="26.75" y1="28.31" x2="25.19" y2="28.31" gradientUnits="userSpaceOnUse"><stop stop-color="#DDDEE0"/><stop offset=".7" stop-color="#7F8082"/></linearGradient><linearGradient id="keqcz4xah" x1="28.31" y1="31.67" x2="26.75" y2="31.67" gradientUnits="userSpaceOnUse"><stop stop-color="#DDDEE0"/><stop offset=".7" stop-color="#7F8082"/></linearGradient><linearGradient id="leqcz4xah" x1="28.31" y1="28.37" x2="26.75" y2="28.37" gradientUnits="userSpaceOnUse"><stop stop-color="#DDDEE0"/><stop offset=".7" stop-color="#7F8082"/></linearGradient><linearGradient id="meqcz4xah" x1="29.87" y1="31.68" x2="28.31" y2="31.68" gradientUnits="userSpaceOnUse"><stop stop-color="#DDDEE0"/><stop offset=".7" stop-color="#7F8082"/></linearGradient><linearGradient id="neqcz4xah" x1="29.87" y1="28.43" x2="28.31" y2="28.43" gradientUnits="userSpaceOnUse"><stop stop-color="#DDDEE0"/><stop offset=".7" stop-color="#7F8082"/></linearGradient><linearGradient id="oeqcz4xah" x1="31.43" y1="31.62" x2="29.87" y2="31.62" gradientUnits="userSpaceOnUse"><stop stop-color="#DDDEE0"/><stop offset=".7" stop-color="#7F8082"/></linearGradient><linearGradient id="peqcz4xah" x1="31.43" y1="28.5" x2="29.87" y2="28.5" gradientUnits="userSpaceOnUse"><stop stop-color="#DDDEE0"/><stop offset=".7" stop-color="#7F8082"/></linearGradient><linearGradient id="qeqcz4xah" x1="32.99" y1="31.53" x2="31.43" y2="31.53" gradientUnits="userSpaceOnUse"><stop stop-color="#DDDEE0"/><stop offset=".7" stop-color="#7F8082"/></linearGradient><linearGradient id="reqcz4xah" x1="32.99" y1="28.58" x2="31.43" y2="28.58" gradientUnits="userSpaceOnUse"><stop stop-color="#DDDEE0"/><stop offset=".7" stop-color="#7F8082"/></linearGradient><linearGradient id="seqcz4xah" x1="34.55" y1="31.44" x2="32.99" y2="31.44" gradientUnits="userSpaceOnUse"><stop stop-color="#DDDEE0"/><stop offset=".7" stop-color="#7F8082"/></linearGradient><linearGradient id="teqcz4xah" x1="34.55" y1="28.78" x2="32.99" y2="28.78" gradientUnits="userSpaceOnUse"><stop stop-color="#DDDEE0"/><stop offset=".7" stop-color="#7F8082"/></linearGradient><linearGradient id="ueqcz4xah" x1="36.1" y1="31.37" x2="34.55" y2="31.37" gradientUnits="userSpaceOnUse"><stop stop-color="#DDDEE0"/><stop offset=".7" stop-color="#7F8082"/></linearGradient><linearGradient id="veqcz4xah" x1="36.1" y1="28.85" x2="34.55" y2="28.85" gradientUnits="userSpaceOnUse"><stop stop-color="#DDDEE0"/><stop offset=".7" stop-color="#7F8082"/></linearGradient><linearGradient id="weqcz4xah" x1="37.66" y1="31.28" x2="36.1" y2="31.28" gradientUnits="userSpaceOnUse"><stop stop-color="#DDDEE0"/><stop offset=".7" stop-color="#7F8082"/></linearGradient><linearGradient id="xeqcz4xah" x1="37.66" y1="28.92" x2="36.1" y2="28.92" gradientUnits="userSpaceOnUse"><stop stop-color="#DDDEE0"/><stop offset=".7" stop-color="#7F8082"/></linearGradient><linearGradient id="yeqcz4xah" x1="39.22" y1="31.21" x2="37.66" y2="31.21" gradientUnits="userSpaceOnUse"><stop stop-color="#DDDEE0"/><stop offset=".7" stop-color="#7F8082"/></linearGradient><linearGradient id="zeqcz4xah" x1="39.22" y1="29" x2="37.66" y2="29" gradientUnits="userSpaceOnUse"><stop stop-color="#DDDEE0"/><stop offset=".7" stop-color="#7F8082"/></linearGradient><linearGradient id="aaeqcz4xah" x1="40.78" y1="31.21" x2="39.22" y2="31.21" gradientUnits="userSpaceOnUse"><stop stop-color="#DDDEE0"/><stop offset=".7" stop-color="#7F8082"/></linearGradient><linearGradient id="abeqcz4xah" x1="40.78" y1="29.1" x2="39.22" y2="29.1" gradientUnits="userSpaceOnUse"><stop stop-color="#DDDEE0"/><stop offset=".7" stop-color="#7F8082"/></linearGradient><linearGradient id="aceqcz4xah" x1="18.94" y1="25.44" x2="39.8" y2="27.57" gradientUnits="userSpaceOnUse"><stop stop-color="#727377"/><stop offset="1" stop-color="#BFBFC0"/></linearGradient></defs></svg>