<!-- by TradingView --><svg width="56" height="56" viewBox="0 0 56 56" xmlns="http://www.w3.org/2000/svg"><path fill="#F0F3FA" d="M0 0h56v56H0z"/><path d="M19.01 13.52c-.34.4-.3.9.18 2.27.33.97.63 2.86.66 4.21.03 1.36.15 2.46.27 2.46.98 0 3.28-4.44 3.28-6.34 0-1.32-1.7-3.12-2.93-3.12-.56 0-1.22.23-1.46.52Zm-2.92 1.07a5.66 5.66 0 0 0-.9 3.9c.25 1.22 2.87 4.34 3.65 4.34.75 0 .66-4.42-.14-6.74-.67-1.93-1.73-2.55-2.6-1.5Zm9.25 3.13a8.17 8.17 0 0 0-3.3 4.88l-.2 1.34 2.15-1.45a22.3 22.3 0 0 1 4.83-2.28c1.47-.45 2.67-1.02 2.67-1.26s-.44-.78-.97-1.2c-1.25-.96-3.6-.98-5.18-.03ZM10.61 18.9c-.8.79-.46 1.4 1.17 2.09.89.38 2.3 1.12 3.16 1.65.85.53 1.63.88 1.74.78.34-.35-1.41-3.49-2.37-4.23-1.04-.81-3.02-.97-3.7-.3Zm18.48 1.67c-2 .69-4.64 2.12-6.07 3.31-.77.64-.83.8-.36 1.12 1.07.72 3.33 1 5.44 1 2.36 0 5.72-.57 5.9-3.54a2.3 2.3 0 0 0-.68-1.82c-.89-.88-1.81-.9-4.23-.07Zm-20.38.78c-.61 1.13-.45 1.83.7 2.96.92.92 1.34 1.06 3.03 1.05 1.07-.01 2.45-.23 3.06-.49l1.1-.47-2.02-1.28c-4.15-2.63-5.23-2.96-5.87-1.77Zm1.27 5.4c-1.33.83-2.13 2.21-1.96 3.4.11.77.3.86 1.65.8 1.62-.07 3.93-1.06 5.95-2.57 1.12-.83 1.18-.96.65-1.49-.92-.9-4.9-1-6.29-.14Zm5.22 2.46c-.98.68-2.75 1.6-3.95 2.03-1.77.63-2.18.94-2.18 1.59 0 1.89 2.51 2.6 4.65 1.3 1.3-.78 2.86-3.2 3.24-5.02.14-.66.2-1.18.13-1.17-.07.02-.92.59-1.9 1.27Zm3.91 1.47c-.41 1.06.17 5.77.98 7.89.58 1.55 1.01 2.15 1.65 2.3 1.92.48 3.73-1.79 3.4-4.25-.23-1.68-2.1-4.34-3.93-5.6-1.57-1.07-1.8-1.1-2.1-.34Zm-2.27 1.05c-2.47 2.8-2.46 7 .02 8.73 1 .68 1.78.72 2.61.11.58-.42.57-.59-.16-2.46a13.7 13.7 0 0 1-.82-4.82c-.03-1.55-.16-2.82-.29-2.82-.13 0-.74.57-1.36 1.26Z" fill="#5F1F60"/><path d="M27.42 34 26 28h2.17l.64 3.11.95-3.11h2.05l.87 3.11.83-3.11h2.06l-1.66 6h-2.1l-.99-2.89L29.76 34h-2.34Zm14.54-4H39.7c0-.52-1.3-.55-1.3-.2 0 .3.5.39 1.73.59l.44.07c1.24.21 1.6 1.11 1.64 1.53-.05.67-.73 2.01-3.07 2.01-2.33 0-3.12-1.28-3.22-2h2.23s.05.53 1 .53c.75 0 .91-.26.9-.39 0-.44-1.1-.7-1.65-.77-2.12-.45-2.18-1.32-2.18-1.58S36.5 28 39.14 28c2.13 0 2.76 1.4 2.82 2Zm4.53 0h2.26c-.05-.6-.7-2-2.81-2-2.66 0-2.93 1.53-2.93 1.8 0 .25.06 1.12 2.18 1.57.55.08 1.65.33 1.65.77.02.13-.15.4-.9.4-.95 0-1-.54-1-.54H42.7c.1.72.89 2 3.23 2 2.33 0 3.01-1.34 3.06-2-.03-.43-.4-1.33-1.64-1.54l-.44-.07c-1.23-.2-1.73-.29-1.73-.6 0-.34 1.3-.31 1.3.21Z" fill="#1B2D5A"/></svg>