<!-- by TradingView --><svg width="56" height="56" viewBox="0 0 56 56" xmlns="http://www.w3.org/2000/svg"><path fill="#F0F3FA" d="M0 0h56v56H0z"/><ellipse cx="28" cy="28" rx="21" ry="13" fill="#56BCED"/><path fill-rule="evenodd" d="M48.04 28c0 3.22-2.14 6.21-5.78 8.42l-.6.36c-1.75-1.14-6.66-3.24-13.42-3.24-6.9 0-11.93 2.2-13.61 3.3l.07.13c-.33-.17-.65-.36-.96-.55-3.64-2.2-5.78-5.2-5.78-8.42 0-3.22 2.14-6.21 5.78-8.42l.8-.47-.04.07c1.68 1.1 6.7 3.3 13.58 3.3 6.87 0 11.82-2.2 13.46-3.3l-.01-.03c.25.14.5.28.73.43 3.64 2.2 5.78 5.2 5.78 8.42Zm-9.01 7.96c.93.38 1.67.75 2.18 1.06a24.63 24.63 0 0 1-5.32 2.02c-.16-.1-.36-.2-.6-.32a12 12 0 0 0 3.74-2.76Zm-.43-.17c-1.1-.42-2.44-.83-3.98-1.15a12 12 0 0 1-1.84 3.2c.78.2 1.45.42 1.99.65a12.1 12.1 0 0 0 3.83-2.7Zm-4.4-1.24a31.05 31.05 0 0 0-6.2-.57v3.3h.22c1.55 0 2.92.18 4.09.44.9-1.06 1.54-2.28 1.88-3.17Zm-6.73-.56c-1.8.04-3.47.24-4.97.52.3.88.88 2.11 1.74 3.19.95-.21 2.04-.36 3.24-.41v-3.3Zm-5.4.6c-1.55.31-2.9.71-4.03 1.12.58.76 1.8 1.88 3.61 2.77.58-.23 1.3-.47 2.12-.68a11.4 11.4 0 0 1-1.7-3.21Zm-4.45 1.28c-1.17.45-2.06.9-2.62 1.26 1.6.82 3.4 1.49 5.38 1.98.19-.12.44-.26.75-.4a10.32 10.32 0 0 1-3.51-2.84ZM21 39.26c.85.19 1.72.34 2.62.46-.72-.21-1.39-.47-2-.76-.23.1-.44.2-.62.3Zm12.05.36c.75-.11 1.49-.26 2.2-.42-.14-.08-.3-.15-.48-.23-.53.24-1.1.46-1.72.65Zm8.06-20.69a24.75 24.75 0 0 0-5.28-1.98l.04.07a6.5 6.5 0 0 1-.75.41c1.73.86 2.96 1.9 3.63 2.66 1.04-.42 1.83-.83 2.36-1.16Zm-5.77-2.1c-1.2-.29-2.46-.5-3.76-.65 1.12.25 2.13.6 3.02 1 .29-.12.54-.24.74-.35Zm-10.94-.65c-1.29.14-2.53.36-3.72.64.2.11.47.24.78.37.86-.4 1.84-.76 2.94-1Zm-4.2.75c-1.94.5-3.73 1.17-5.3 1.99.57.35 1.46.8 2.62 1.25.59-.77 1.74-1.84 3.43-2.72-.34-.16-.6-.3-.8-.43l.05-.09ZM48.48 28c0 6.88-9.17 12.46-20.48 12.46-11.3 0-20.48-5.58-20.48-12.46 0-6.88 9.17-12.46 20.48-12.46 11.3 0 20.48 5.58 20.48 12.46ZM25.82 16.37c-1.44.2-2.7.58-3.78 1.05.53.2 1.16.39 1.87.55a6.84 6.84 0 0 1 1.91-1.6Zm2.7 2.06v-2.17c1.29.14 2.39.86 3.28 1.8-.96.2-2.06.34-3.27.37Zm-.52-2.2v2.2c-1.34 0-2.55-.14-3.6-.35a5 5 0 0 1 3.6-1.85Zm0 5.8v-3.15c-1.47 0-2.8-.18-3.93-.42a10.94 10.94 0 0 0-1.7 3.06c1.68.3 3.57.51 5.63.51Zm.53-3.16v3.16c2-.03 3.83-.24 5.44-.56-.35-.87-.97-2.03-1.83-3.04-1.04.24-2.26.41-3.61.44Zm-4.92-.52c-.83-.2-1.55-.44-2.13-.68a10.6 10.6 0 0 0-3.52 2.66c1.12.4 2.46.8 4 1.1.3-.86.85-2.03 1.65-3.08Zm10.8 3.04c1.51-.32 2.83-.72 3.92-1.13-.7-.76-1.97-1.77-3.73-2.6-.54.23-1.21.46-1.99.66.85 1.04 1.45 2.2 1.8 3.07Zm-2.12-3.45c.66-.16 1.25-.34 1.74-.52-1.05-.44-2.26-.8-3.62-1.01.71.4 1.34.93 1.88 1.53Zm-7.72 20.14c.86-.18 1.84-.3 2.9-.35v2.12a5.32 5.32 0 0 1-2.9-1.77Zm3.64 1.84H28v-2.2h.21c1.4 0 2.67.15 3.75.38a5.26 5.26 0 0 1-3.76 1.82Zm4.25-1.7a7.3 7.3 0 0 1-1.88 1.53c1.35-.2 2.57-.57 3.62-1.01-.5-.19-1.08-.37-1.74-.53Zm-6.47 1.56a6.84 6.84 0 0 1-1.9-1.6c-.72.17-1.35.36-1.88.56 1.07.47 2.34.85 3.78 1.04Z" fill="#F0F3FA"/><path d="M12 24v5.58c.91.06 3 .71 3 2.86V35h1.27c.09-.96.96-3 3.72-3h21.27c.57.11 2.07-.72 2.9-2.5H18.99c-.6.03-1.28 1.13-1.98 2.37V25.2c0-.66-.56-1.2-1.2-1.2H12Zm5.66 5.45a3.88 3.88 0 0 1 2.55-1.07h20.8c.52-.04 1.7-.25 2.15-.88h2.61L44.52 29H20.21c-.6.02-1.94.23-2.55.45Z" fill="#1F3484"/><path d="m14.23 24.63.2.6h.63l-.51.37.2.6-.52-.37-.51.37.2-.6-.52-.37h.63l.2-.6Z" fill="#EBFD2D"/><path d="m19.64 28-1.7-4h1.54l1.09 2.36.72-2.36h.93l.8 2.36.92-2.36h1.53l-1.7 4h-1.55l-.46-1.5-.47 1.5h-1.65Zm7.86-4v1H29v3h1.5v-3H32v-1h-4.5Zm7.56 0c-.59 0-1.06.5-1.06 1.11v1.78c0 .61.47 1.11 1.06 1.11h2.88c.59 0 1.06-.5 1.06-1.11v-.39h-1.5c-.02.28-.2.5-.42.5h-1.16c-.23 0-.42-.25-.42-.56v-.88c0-.31.19-.56.42-.56h1.16c.22 0 .4.22.42.5H39v-.39c0-.61-.47-1.11-1.06-1.11h-2.88Z" fill="#DD211F"/></svg>