<!-- by TradingView --><svg width="56" height="56" viewBox="0 0 56 56" xmlns="http://www.w3.org/2000/svg"><path fill="#F0F3FA" d="M0 0h56v56H0z"/><path d="M22.85 44h-9.33c-.82 0-1.5-.67-1.5-1.49v-9.39c0-.7.29-1.38.79-1.88l3.23-3.23-3.26-3.28c-.5-.5-.78-1.17-.78-1.88v-9.33c0-.82.67-1.5 1.49-1.5h9.39c.7 0 1.38.29 1.88.79L28 16.05l3.27-3.27c.5-.5 1.18-.78 1.88-.78h9.33c.82 0 1.5.67 1.5 1.49v9.44c0 .7-.29 1.38-.79 1.88l-3.22 3.21 3.25 3.25c.5.5.78 1.18.78 1.88v9.33c0 .82-.67 1.5-1.49 1.5h-9.44c-.7 0-1.38-.29-1.88-.79L28 39.98l-3.26 3.24c-.5.5-1.17.78-1.88.78Z" fill="#FFF212"/><path d="m24.2 21.5 2.4-3.5.77.9c.22.25.24.6.06.88l-2.33 3.5-.82-.88a.72.72 0 0 1-.07-.9Zm7.44 0-2.4-3.5-.77.9a.72.72 0 0 0-.05.88l2.33 3.5.82-.88a.72.72 0 0 0 .07-.9Zm-5.13.5h2.82l.94 1.42h-4.66l.9-1.42Zm-5.68 12.45.38-4.17c.03-.33.29-.6.63-.67l1.22-.21-.43 4.13a.76.76 0 0 1-.6.66l-1.2.26Zm2.1 1.55 4.14-1.36c.33-.1.54-.41.52-.75l-.08-1.17-4.1 1.4c-.31.1-.52.4-.52.71l.03 1.17Zm2.69-3.16L23.4 31.2l.12-1.62 3.68 2.74-1.58.53Zm8.82-2.56.37 4.17-1.2-.26a.76.76 0 0 1-.6-.66l-.43-4.13 1.22.21c.34.06.6.34.64.67Zm-5.86 4.36L32.72 36l.03-1.17c0-.32-.2-.6-.52-.72l-4.1-1.4-.08 1.18c-.02.34.2.65.53.75Zm3.66-3.45-2.22 1.65-1.58-.53 3.68-2.74.12 1.62Zm-13.4-7.78 4.25-1.05a.8.8 0 0 1 .87.35l.61 1.02-4.23 1a.8.8 0 0 1-.84-.34l-.66-.98ZM18 25.8l2.72 3.28c.21.26.6.35.92.22l1.13-.46-2.74-3.22a.8.8 0 0 0-.89-.23l-1.14.4Zm4.92-1.18-.9 2.55 1.04 1.28 1.49-4.21-1.63.38Zm10-2.26 4.24 1.05-.65.98a.8.8 0 0 1-.85.33l-4.23-.99.61-1.02a.8.8 0 0 1 .88-.35Zm2.36 6.72L38 25.8l-1.14-.41a.8.8 0 0 0-.89.23l-2.74 3.22 1.13.46c.33.13.7.04.92-.22Zm-1.3-1.9-.9-2.56-1.63-.38 1.49 4.21 1.04-1.28Z" fill="#00A65B"/><path fill-rule="evenodd" d="M26 27.38h.72v-.55c0-.16.1-.29.23-.29.12 0 .22.13.22.3v.24c0 .07-.01.27-.16.47l-.77 1.03c-.08.11-.24.41-.24.65V30h1.82v-.77h-1.1l.93-1.38c.05-.1.17-.41.17-.87 0-.56-.23-.98-.81-.98-.59 0-1.01.31-1.01.93v.45Zm2-.42c0-.53.36-.96.81-.96h.38c.45 0 .81.43.81.96v2.08c0 .53-.36.96-.81.96h-.38c-.45 0-.81-.43-.81-.96v-2.08Zm.72-.1c0-.18.13-.33.28-.33.15 0 .28.15.28.33v2.28c0 .18-.13.33-.28.33-.15 0-.28-.15-.28-.33v-2.28Z" fill="#00A65B"/><path opacity=".3" fill="#00A65B" d="M17 37h22v2H17z"/></svg>