<!-- by TradingView --><svg width="56" height="56" viewBox="0 0 56 56" xmlns="http://www.w3.org/2000/svg"><path fill="#F0F3FA" d="M0 0h56v56H0z"/><path fill-rule="evenodd" d="M41 14H15v28h26V14Zm-20 3v-2h-5v26h7v-1h1v1h16V15h-5v2h-.65v-1.2a.8.8 0 0 0-.8-.8h-1.94v2H31v-1.2c0-.44-.31-.8-.76-.8h-1.9v2h-.51v-1.2a.8.8 0 0 0-.8-.8h-3.7v.83h-.58V15h-1.19v1.23h.83v.41h-.83V17H21Zm-4 23V16h3v2h2.88v-.8h.54v.8h1.2v-1.15h-.84v-.45h.83V16h.49v2h10.87v-2H39v24h-5v-2h-1v2h-1v-.36h-2V39h2v-1h-2.99v2h-.54v-.36h-1.65V39h1.65v-1h-2.84v2H25v-2h-1v1h-1v-1h-1v2h-5Zm9.02-24.3v1.4h.41c.15 0 .27-.13.27-.27v-.86a.27.27 0 0 0-.27-.27h-.4Zm3.26 0v1.4h.4c.16 0 .32-.13.32-.27v-.86c0-.15-.16-.27-.31-.27h-.4Zm3.35 1.4v-1.4h.4c.15 0 .27.12.27.27v.86c0 .14-.12.26-.26.26h-.41Zm-3.47 2.46H26.5v.52h2.66v-.52Zm-3.66.84h5v.6h-5v-.6Zm6.5 1.1h-8v1h8v-1Zm-4.28 1.96-.45-.46h-3.89v3.47l.52.53h2.49v.5h-2.46l-.55.56v3.44H21.5V37H26v-5.5h1.3l.42-.43v-2.3h.5v2.3l.42.43H30V37h4.5v-5.5h-1.95v-3.44l-.54-.56h-2.59V27h2.62l.51-.53V23h-3.89l-.45.46v2.2h-.49v-2.2Zm-4.22 9.26h.19c.22 0 .4.18.4.4v2.38a.4.4 0 0 1-.4.41h-.19v-3.2Zm8.69 0H32v3.19h.19a.4.4 0 0 0 .4-.4v-2.39a.4.4 0 0 0-.4-.4Z" fill="#CF271E"/></svg>