<!-- by TradingView --><svg width="56" height="56" viewBox="0 0 56 56" xmlns="http://www.w3.org/2000/svg"><path fill="#F0F3FA" d="M0 0h56v56H0z"/><path fill-rule="evenodd" d="M10.43 22C6.88 22 4 24.69 4 28s2.88 6 6.43 6h35.14c3.55 0 6.43-2.69 6.43-6s-2.88-6-6.43-6H10.43ZM9 25h1.5v2h2v-2H14v6h-1.5v-2.5h-2V31H9v-6Zm7.05 6h-1.63l2.74-6h1.54l2.85 6h-1.7l-.45-1h-2.93l-.42 1Zm1.05-2.5h1.62l-.83-1.86-.79 1.86Zm10.4-2V25h-3.95c-1.13 0-2.05.8-2.05 1.8 0 .99.92 1.95 2.05 1.95h2.03c.35 0 .62.08.62.38s-.27.37-.62.37H22V31h3.93c1.14 0 2.07-.81 2.07-1.81s-.93-1.94-2.07-1.94h-2.14c-.38 0-.68-.14-.68-.46 0-.3.25-.3.57-.3l.1.01h3.72Zm4-1.5a3 3 0 1 0 0 6 3 3 0 0 0 0-6Zm0 1.29c-.83 0-1.5.67-1.5 1.5v.4a1.5 1.5 0 0 0 3 0v-.4c0-.83-.67-1.5-1.5-1.5ZM41 28a3 3 0 1 1 6 0 3 3 0 0 1-6 0Zm1.5-.19a1.5 1.5 0 0 1 3 0v.35a1.5 1.5 0 0 1-3 0v-.35ZM40.37 25v1.5h-2.54c-.78 0-1.33.32-1.33 1.04v.87c0 .72.55 1.09 1.33 1.09h2.67V31h-2.67C36.27 31 35 29.84 35 28.42v-.84c0-1.42 1.27-2.58 2.83-2.58h2.54Z" fill="#E22226"/><path d="m6.7 24.36-2.66 2.22.53-1.73.69-1.78 2.87-1.04.15.5c1.28.25 3.89.75 4.08.75.2 0-2.42.2-3.75.3l3.38 4.2-4.12-3.42-.86 3.73-.32-3.73Z" fill="url(#apcnsfrut)"/><defs><linearGradient id="apcnsfrut" x1="5.28" y1="23.44" x2="8.66" y2="28.18" gradientUnits="userSpaceOnUse"><stop stop-color="#FEFFFF"/><stop offset="1" stop-color="#FEFFFF" stop-opacity="0"/></linearGradient></defs></svg>