<!-- by TradingView --><svg width="56" height="56" viewBox="0 0 56 56" xmlns="http://www.w3.org/2000/svg"><path fill="#F0F3FA" d="M0 0h56v56H0z"/><path d="M18.84 25.4c-.25-.28-.2-.92-.14-1.21.37.4.85.17 1.05 0a1.8 1.8 0 0 1-1.65-1.3h1.4c.01-.06-.07-.26-.47-.5-.4-.23-.67-1.15-.75-1.59.38.3 1.5.92 2.98.98 1.86.08 2.2-.27 3.1-.27.88 0 .75 0 1.59 1.39a2.91 2.91 0 0 0 2.1 1.47c-.21-.56-.76-1.72-1.32-1.91-.55-.2-.75-.43-.78-.53l.3-.42a1.67 1.67 0 0 1-1.23-1.36h.93c-.71-.1-1.07-.88-1.16-1.26h1.04a1.27 1.27 0 0 1-.42-1.63c2.14 1.7 4.73 1.13 6.14 1.13 1.14 0 1.42.75 1.42 1.13 0 1.7-2.6 2.73-2.6 3.74 0 1 .35 1.47 1.84 1.59 1.2.1 2.35 1.09 2.78 1.58-1.03 0-3.22.03-3.7.16-.6.16-.92.65-.64 1.01s1 .22 1.37.18c.36-.03.17-.24.79-.36.61-.1.34.55.04.74-.24.15-.36.48-.38.62a2.67 2.67 0 0 0-.58-.53c-.3-.2-.43.02-.46.15l-.14 1c-.53-.19-.5-.62-.57-1-.07-.3-1-.66-1.44-.8l1.09 1c-.19.11-.73.34-1.41.32-.86-.01-1.35-1.73-2.65-.14-1.03 1.26-3.68 1.44-4.87 1.37l3.97-2.55c-.08-.04-.33-.09-.71 0-.38.1-.4-.35-.35-.59-.12.05-.44.14-.76.18-.32.04-.21-.38-.13-.6-.26.03-.8.1-.9.1-.09 0-.26-.42-.33-.62-1.15 1.04-1.92.67-2.15.36l.79-.72c-.37.06-1.71.03-2.03-.31Z" fill="#27562A"/><path fill-rule="evenodd" d="M27.54 16C34.7 15.9 49 18.13 49 27.8c0 5.11-5.5 8.62-11.26 10.52l-.15.09-.03-.03A32.16 32.16 0 0 1 27.82 40C20.52 40 7 37.62 7 27.8 7 24.4 12.97 16 27.54 16Zm15.48 19.23a25.69 25.69 0 0 1-5.7 2.64c-.19-.13-.43-.27-.71-.41a14.7 14.7 0 0 0 4.37-3.77c.94.54 1.6 1.09 2.04 1.54Zm-2.73-1.91a13.72 13.72 0 0 1-4.2 3.9c-.4-.16-.84-.32-1.36-.46a23.9 23.9 0 0 0-6.28-.8v-1.1H28v1.1l-.63.01c-3.24.07-5.7.43-7.45.85-.44.1-.83.2-1.18.32a10.4 10.4 0 0 1-3.7-4.26c.26-.1.52-.18.8-.27A41.73 41.73 0 0 1 28 30.95v.52h.45v-.52c4.5.02 7.87.75 10.28 1.68.58.22 1.1.45 1.56.69Zm-11.84-2.84c4.54.02 7.97.76 10.43 1.71.61.24 1.17.49 1.66.74a9.66 9.66 0 0 0 1.44-4.43H33.7l.32-.5H42v-.2c0-1.85-.37-3.42-.99-4.75-.45.23-.94.45-1.47.66-1.51.61-3.38 1.15-5.66 1.5a4.76 4.76 0 0 0-.7-.36 25.9 25.9 0 0 0 6.2-1.57c.52-.2 1-.42 1.42-.65a10.44 10.44 0 0 0-3.9-4.02c-.45.21-1 .43-1.65.63-.6.18-1.29.34-2.07.49l.01-.21v-.02c.74-.14 1.39-.3 1.95-.47.6-.18 1.1-.38 1.52-.57a16.32 16.32 0 0 0-4.54-1.73 39.07 39.07 0 0 0-3.67-.23v1.7l-.45-.06V16.5h-.44c-1.24 0-2.42.07-3.53.19a13.28 13.28 0 0 0-4.87 2.29 31.3 31.3 0 0 0 5.87.89l.05.05h-.3v.15a31.27 31.27 0 0 1-4.55-.6c-.48-.1-.91-.2-1.29-.32a13.94 13.94 0 0 0-3.64 4.35 25.21 25.21 0 0 0 3.15.82c-.02.14-.03.3-.02.47a31.04 31.04 0 0 1-3.34-.88A9.44 9.44 0 0 0 14 28h10.1l-.78.5h-9.3c.07 1.5.36 2.8.83 3.95A42.15 42.15 0 0 1 28 30.48v-1.8l.04.02.2.16.2.14v1.48ZM28 36.2h-.62c-3.23.07-5.66.43-7.38.84l-1 .27c1.52.98 3.24 1.6 4.88 1.98 1.5.16 2.9.23 4.12.22v-3.31Zm.45 3.3c.87 0 1.86-.08 2.92-.22 1.44-.4 3-1.02 4.47-1.9-.35-.14-.75-.27-1.2-.4-1.48-.42-3.5-.75-6.2-.78v3.3ZM14.2 33.2c.93 1.8 2.31 3.15 3.9 4.16-.46.17-.83.33-1.1.48a17.23 17.23 0 0 1-5.74-3.07c.57-.45 1.54-1.02 2.94-1.58Zm4.14 4.32c-.42.15-.76.3-1.02.43 1.35.43 2.75.76 4.13 1a15.68 15.68 0 0 1-3.1-1.43Zm18.68.46c-.18-.12-.4-.24-.67-.37-.89.5-1.81.93-2.72 1.27a34.1 34.1 0 0 0 3.4-.9ZM48 27.8V28h-5v-.2c0-2.04-.46-3.75-1.22-5.17a9.02 9.02 0 0 0 2.4-1.92c2.29 1.69 3.82 4 3.82 7.1Zm-4.2-7.37a20.08 20.08 0 0 0-5.7-2.55c-.17.14-.4.29-.67.45 1.64.93 3.1 2.2 4.12 3.89a8.7 8.7 0 0 0 2.25-1.79Zm-9.22-3.36c1.07.19 2.16.43 3.22.72-.16.13-.37.26-.62.4-.83-.45-1.71-.82-2.6-1.12ZM21.88 17a14.32 14.32 0 0 0-3.35 1.78 7.42 7.42 0 0 1-1.2-.5c1.36-.53 2.87-.97 4.56-1.28Zm-10.3 4.76a18.78 18.78 0 0 1 5.47-3.36c.27.16.69.35 1.25.55a14.43 14.43 0 0 0-3.8 4.27 12.64 12.64 0 0 1-2.92-1.46Zm-.35.32C9.01 24.2 8 26.43 8 27.8c0 2.8 1.14 4.97 2.93 6.64.6-.5 1.62-1.1 3.08-1.68a11.47 11.47 0 0 1-1-4.27H8.05V28H13v-.2c0-1.05.4-2.57 1.27-4.18a12.56 12.56 0 0 1-3.04-1.54Zm32.17 12.9c2.5-1.69 4.3-3.85 4.56-6.48h-4.98a9.61 9.61 0 0 1-1.73 4.82c.98.57 1.7 1.16 2.15 1.66Z" fill="#17548E"/><path fill-rule="evenodd" d="M26 31.37v3.75l4.61-.3c.23-.08.7-.37.7-.9s-.6-.74-.9-.77c.21-.1.63-.43.63-.96 0-.67-1-.9-1.63-.9l-2.2.05-1.21.03Zm2 .7v.62c.27.03.8 0 .8-.33s-.53-.33-.8-.29Zm0 1.35v.57c.33.03 1 0 1-.3 0-.31-.67-.31-1-.27Zm-7.5.94-2.72-1.75 2.97-.73.79.94.85-1.35h2.58L23 33.8v1.8l-2.5.68v-1.92Zm16.5.52v1.56c-1.68-.23-5-1.14-5-2.9 0-2.21 3.98-1.78 5-1.11v1.41a2.53 2.53 0 0 0-1.7-.64c-.86 0-1 .43-.95.64-.07.35.31 1.04 2.65 1.04Z" fill="#DE2827"/></svg>