<!-- by TradingView --><svg width="56" height="56" viewBox="0 0 56 56" xmlns="http://www.w3.org/2000/svg"><path fill="#F0F3FA" d="M0 0h56v56H0z"/><path d="M10.12 21H5l6.28 8 2.5-3.2-3.66-4.8Z" fill="#ED1C24"/><path d="M18.72 21 7.59 35h5.03l8.98-11h3.32c1.11 0 1.62.6 1.62 1.34 0 1.3-1.62 1.66-2.54 1.66h-3.47l-2.31 3h5.17c1.23 0 1.8.39 1.86.77 0 1.25-1.76 1.18-2.64 1.23h-6.42l-2.31 3h7.92c5.65 0 7.8-2.83 7.8-4.47 0-1.3-.83-2.2-1.23-2.49 2.03-1.23 2.48-2.92 2.45-3.61 0-2.6-2.86-3.37-4.28-3.43h-7.82Z"/><path fill-rule="evenodd" d="M51 21H32v11.19l5.29-7.02a.43.43 0 0 1 .69.01l1.51 2.17 3.5-3.84a.43.43 0 0 1 .63 0L51 32.19V21Zm0 11.77-7.35-7.47a.43.43 0 0 0-.64.03l-3.16 3.95a.43.43 0 0 1-.68-.02l-1.34-1.88a.29.29 0 0 0-.43-.04L32 32.73V35h19v-2.23Zm-7.97-6.63-2.15 2.72 1.47-.7.33 1.34.67-1.87.7.84.57-.67.88.52-1.8-2.19a.43.43 0 0 0-.67 0Z" fill="url(#azkvirp2x)"/><defs><linearGradient id="azkvirp2x" x1="41.57" y1="21.09" x2="41.57" y2="35" gradientUnits="userSpaceOnUse"><stop stop-color="#ED1C24"/><stop offset="1" stop-color="#D71921"/></linearGradient></defs></svg>