<!-- by TradingView --><svg width="56" height="56" viewBox="0 0 56 56" xmlns="http://www.w3.org/2000/svg"><path fill="#F0F3FA" d="M0 0h56v56H0z"/><path fill-rule="evenodd" d="M23.14 27.5c.2-1.5 1.52-4.5 5.1-4.5.5-.02 1.68.2 2.32 1.18l.25-1.07a.14.14 0 0 1 .14-.1h2.67c.1 0 .16.08.14.17l-2.2 8.71a.14.14 0 0 1-.14.11h-2.54c-.1 0-.17-.1-.14-.19l.21-.71c-.18.3-.98.9-2.7.9-2.15 0-3.62-2-3.11-4.5Zm2.9.22c.08-.74.64-2.22 2.32-2.22 1.68 0 1.75 1.4 1.58 2.11-.1.63-.7 1.89-2.32 1.89-1.6 0-1.72-1.18-1.57-1.78ZM6.2 28.97l-.68 2.56c-.06.23.11.47.35.47h2.4c.17 0 .31-.11.35-.28l.7-2.75 4.79-5.34c.21-.24.05-.63-.26-.63H11.6a.28.28 0 0 0-.2.1l-3.06 3.4-1.32-3.32a.29.29 0 0 0-.26-.18h-2.4c-.26 0-.43.27-.33.52l2.16 5.45Zm16.29-1.82-.14.52a.42.42 0 0 1-.42.33h-5.94l.02.13c.08.44.26 1.53 1.68 1.53.97 0 1.62-.3 1.96-.54.12-.1.31-.07.38.06l.9 1.58c.03.05.02.12-.03.17-.92.88-2.75 1.08-3.57 1.07-3.88 0-4.33-2.59-4.33-3.9 0-1.3 1.1-5.1 5.58-5.1 3.59 0 4.1 2.77 3.9 4.15Zm-2.75-.65h-3.51c.11-.5.66-1.5 1.96-1.5 1.3 0 1.58 1 1.55 1.5Zm13.2 5.03 2.12-8.26a.36.36 0 0 1 .34-.27h2.38c.23 0 .4.23.34.46L37.48 26h3.08l.7-2.73a.36.36 0 0 1 .35-.27h2.37c.24 0 .4.23.35.46l-2.12 8.27a.36.36 0 0 1-.34.27h-2.39c-.23 0-.4-.23-.34-.47l.65-2.53H36.7l-.7 2.73a.36.36 0 0 1-.34.27h-2.4c-.23 0-.4-.23-.34-.47Z" fill="#555"/><path d="M49.63 28h-4.76a.36.36 0 0 1-.34-.44c.14-.61.33-1.4.45-1.84.06-.23.24-.38.46-.46a6.2 6.2 0 0 0 2.64-2.1c.07-.1.19-.16.3-.16h2.4c.23 0 .4.22.34.45l-1.15 4.29a.36.36 0 0 1-.34.26Z" fill="#FF1D49"/><path d="m46.13 31.62 1.88-7.4a.29.29 0 0 1 .27-.22h3.43c.2 0 .33.19.28.38l-1.84 7.4a.29.29 0 0 1-.28.22h-3.46c-.2 0-.33-.2-.28-.38Z" fill="#BC56FC"/><path d="M47.03 28h2.6c.16 0 .3-.1.34-.27l1-3.73h-2.69a.29.29 0 0 0-.27.21L47.03 28Z" fill="#7100D1"/></svg>