<!-- by TradingView --><svg width="56" height="56" viewBox="0 0 56 56" xmlns="http://www.w3.org/2000/svg"><path fill="#F0F3FA" d="M0 0h56v56H0z"/><path d="M42 28c0-2.72 2.28-5 5-5 2.7 0 5 2.3 5 5 0 2.72-2.28 5-5 5-2.74 0-5-2.26-5-5Zm5-3c-1.7 0-3 1.3-3 3 0 1.72 1.28 3 3 3 1.7 0 3-1.3 3-3 0-1.68-1.32-3-3-3ZM41 26.49l-2.18.02A3.2 3.2 0 0 0 36.21 25 3.06 3.06 0 0 0 33 28c0 1.75 1.49 3 3.21 3 1.15 0 2.08-.48 2.61-1.49H41A5.07 5.07 0 0 1 36.14 33 5.11 5.11 0 0 1 31 28c0-2.76 2.4-5 5.14-5A5.3 5.3 0 0 1 41 26.49ZM22 27h6c-.37-1.3-1.66-2-3-2-1.32 0-2.55.77-3 2Zm7.96 1.57H22A2.9 2.9 0 0 0 25 31c1.08 0 2.1-.4 2.62-1.33h2.07A4.98 4.98 0 0 1 25 33c-2.7 0-5-2.27-5-5a5 5 0 1 1 9.96.57ZM15 21h2v2h2v2h-2v6h2v2h-1.72c-1.26 0-2.28-.91-2.28-2.04V21ZM4 24h2v1a3 3 0 1 0 6 0v-1h2v1a5 5 0 0 1-4 4.9V33H8v-3.1A5 5 0 0 1 4 25v-1Z" fill="#0051D1"/><circle cx="9" cy="25" r="2" fill="#FF002A"/></svg>